<svg width="660" height="304" viewBox="0 0 660 304" fill="none" xmlns="http://www.w3.org/2000/svg">
<rect x="40" y="95" width="580" height="174" fill="#E3EFF6"/>
<path d="M238 95L242 101H234L238 95Z" fill="#108CD2"/>
<path d="M238 269L234 263L242 263L238 269Z" fill="#108CD2"/>
<rect x="237" y="101" width="2" height="163" fill="#108CD2"/>
<path d="M620 277L614 281L614 273L620 277Z" fill="#837978"/>
<rect x="614" y="276" width="2.00003" height="574" transform="rotate(90 614 276)" fill="#837978"/>
<path d="M254.096 130.48L255.856 131.056C255.44 132.096 254.944 133.184 254.368 134.208V145.36H252.56V136.992C252.16 137.504 251.76 137.984 251.344 138.416C251.168 137.952 250.64 136.928 250.32 136.464C251.808 135.024 253.264 132.752 254.096 130.48ZM257.984 132.816V134.96H262.672V132.816H257.984ZM265.36 139.808H262.16C263.104 141.2 264.48 142.512 265.824 143.296C265.392 143.664 264.784 144.336 264.48 144.816C263.312 143.984 262.144 142.688 261.232 141.264V145.392H259.312V141.344C258.336 142.752 257.12 143.968 255.856 144.784C255.568 144.32 254.976 143.632 254.544 143.264C255.984 142.512 257.408 141.216 258.4 139.808H255.12V138.08H259.312V136.64H256.176V131.136H264.576V136.64H261.232V138.08H265.36V139.808ZM274.752 139.552H276.32C276.336 139.408 276.336 139.264 276.336 139.12V138.112H274.752V139.552ZM279.728 138.112H278.048V139.168C278.048 139.296 278.048 139.424 278.048 139.552H279.728V138.112ZM275.296 134.128H279.168C278.384 133.488 277.664 132.768 277.168 132.08C276.72 132.752 276.064 133.472 275.296 134.128ZM281.44 141.008H278.576C279.52 142.768 280.72 143.376 282.304 143.872C281.872 144.272 281.424 144.896 281.216 145.456C279.616 144.848 278.352 144.032 277.376 142.288C276.688 143.568 275.392 144.72 272.992 145.472C272.816 145.088 272.288 144.368 271.984 144.064C274.56 143.28 275.632 142.192 276.064 141.008H273.104V136.672H276.336V135.696H274.304V134.88C273.84 135.2 273.36 135.488 272.88 135.728C272.704 135.312 272.384 134.736 272.096 134.32C271.872 134.976 271.648 135.632 271.44 136.176C272.464 137.392 272.672 138.448 272.672 139.376C272.672 140.384 272.464 141.056 271.936 141.424C271.68 141.6 271.36 141.696 271.008 141.744C270.704 141.792 270.32 141.808 269.92 141.792C269.92 141.328 269.776 140.592 269.504 140.128C269.808 140.16 270.048 140.16 270.24 140.144C270.416 140.144 270.592 140.112 270.704 140.032C270.896 139.888 270.976 139.584 270.976 139.12C270.976 138.4 270.736 137.44 269.808 136.384C270.144 135.36 270.496 133.936 270.768 132.832H269.472V145.392H267.824V131.136H271.36L271.632 131.056L272.896 131.792C272.688 132.496 272.432 133.296 272.176 134.08C273.872 133.296 275.472 131.776 276.256 130.464H277.984C279.088 131.984 280.752 133.312 282.416 133.92C282.064 134.368 281.696 135.072 281.44 135.584C281.04 135.392 280.608 135.136 280.192 134.864V135.696H278.048V136.672H281.44V141.008ZM290.192 140.096H287.872C288.48 140.912 289.104 142 289.344 142.736L288.032 143.296H290.192V140.096ZM288.384 135.216H294.16C292.976 134.256 291.92 133.216 291.216 132.256C290.528 133.216 289.536 134.256 288.384 135.216ZM294.416 140.096L296.24 140.768C295.632 141.648 295.008 142.624 294.448 143.296H298.064V144.928H284.528V143.296H287.648C287.408 142.576 286.88 141.504 286.32 140.72L287.776 140.096H285.328V138.464H290.192V136.88H287.248V136.096C286.496 136.64 285.68 137.152 284.864 137.584C284.624 137.136 284.096 136.448 283.68 136.048C286.4 134.72 288.96 132.32 290.144 130.4H292.112C293.84 132.816 296.416 134.832 298.944 135.856C298.464 136.336 298.032 136.976 297.68 137.568C296.88 137.152 296.048 136.624 295.248 136.048V136.88H292.192V138.464H297.12V140.096H292.192V143.296H293.936L292.896 142.864C293.424 142.112 294.064 140.944 294.416 140.096Z" fill="#108CD2"/>
<path d="M544.864 296.528L544.72 294.96C545.488 294.896 546.416 294.8 547.44 294.704V293.376H545.248V291.952H547.44V290.96H544.976V289.536H547.44V288.448H549.2V289.536H551.44V290.96H549.2V291.952H551.232V293.376H549.2V294.512C549.952 294.432 550.72 294.352 551.472 294.272L551.488 295.12C553.12 294.16 553.504 292.688 553.632 290.672H551.808V289.072H558.992C558.992 289.072 558.992 289.584 558.976 289.792C558.832 293.632 558.672 295.168 558.256 295.696C557.936 296.112 557.6 296.256 557.136 296.32C556.736 296.384 556.064 296.384 555.36 296.384C555.344 295.856 555.136 295.12 554.864 294.688C555.44 294.736 555.952 294.736 556.192 294.736C556.416 294.736 556.544 294.704 556.688 294.544C556.912 294.272 557.04 293.248 557.152 290.672H555.408C555.216 293.376 554.624 295.36 552.304 296.608C552.144 296.288 551.824 295.84 551.504 295.504V295.728C549.152 296.032 546.672 296.32 544.864 296.528ZM559.12 299.264H553.664C554.704 300.736 556.56 301.408 559.552 301.584C559.136 302.032 558.656 302.848 558.4 303.408C555.344 303.04 553.52 302.144 552.304 300.368C551.52 301.664 549.68 302.848 545.6 303.424C545.36 302.96 544.88 302.256 544.512 301.824C548.608 301.264 550.144 300.272 550.672 299.264H544.912V297.664H550.912V296.72H552.832V297.664H559.12V299.264ZM561.776 297.808L563.344 298.08C563.184 299.584 562.848 301.184 562.384 302.208C562.048 302 561.344 301.664 560.928 301.52C561.392 300.576 561.648 299.152 561.776 297.808ZM565.344 298.16L566.752 297.712C567.184 298.656 567.6 299.904 567.792 300.72L566.288 301.248C566.16 300.432 565.744 299.136 565.344 298.16ZM570.336 291.152H575.792C575.792 291.152 575.792 291.792 575.776 292.032C575.568 299.04 575.344 301.568 574.672 302.416C574.224 303.024 573.808 303.2 573.136 303.296C572.56 303.392 571.568 303.376 570.64 303.344C570.608 302.8 570.352 301.968 570 301.424C571.008 301.52 571.92 301.52 572.352 301.52C572.656 301.52 572.832 301.456 573.024 301.248C573.504 300.752 573.744 298.416 573.92 292.96H569.504C569.072 293.744 568.624 294.448 568.144 295.024C567.824 294.736 567.12 294.256 566.64 293.968C567.2 294.976 567.712 296.16 567.888 296.96L566.448 297.632C566.4 297.376 566.32 297.088 566.224 296.768L565.312 296.832V303.408H563.632V296.96L561.264 297.12L561.104 295.456L562.288 295.408C562.528 295.104 562.784 294.768 563.024 294.416C562.56 293.728 561.776 292.864 561.104 292.224L562 290.912C562.128 291.024 562.256 291.136 562.384 291.248C562.832 290.368 563.28 289.296 563.552 288.464L565.232 289.056C564.656 290.16 564 291.392 563.424 292.288C563.632 292.512 563.824 292.752 563.984 292.96C564.56 292.064 565.072 291.136 565.456 290.336L567.072 291.008C566.176 292.416 565.056 294.048 564.016 295.344L565.632 295.28C565.456 294.896 565.264 294.512 565.072 294.176L566.416 293.584L566.528 293.776C567.712 292.512 568.656 290.464 569.168 288.448L571.12 288.864C570.912 289.648 570.64 290.416 570.336 291.152ZM572.144 298.464L570.496 299.344C570.192 298.336 569.36 296.8 568.544 295.648L570.064 294.88C570.896 295.984 571.808 297.456 572.144 298.464ZM580.96 296.848V297.936H582.944V296.848H580.96ZM582.944 292H580.96V292.928H582.944V292ZM580.96 294.384V295.392H582.944V294.384H580.96ZM585.664 297.936V299.6H577.808V297.936H579.248V292H578V290.336H579.248V288.64H580.96V290.336H582.944V288.64H584.688V290.336H585.776V292H584.688V297.936H585.664ZM579.792 299.712L581.568 300.24C581.008 301.408 580.064 302.656 579.2 303.44C578.848 303.104 578.112 302.56 577.68 302.304C578.512 301.68 579.344 300.672 579.792 299.712ZM588.08 296.4H590.4V294.432H588.096V295.024C588.096 295.44 588.096 295.904 588.08 296.4ZM590.4 290.88H588.096V292.752H590.4V290.88ZM592.24 289.152V301.28C592.24 302.224 592.064 302.72 591.504 303.024C590.944 303.328 590.128 303.376 588.944 303.36C588.88 302.864 588.64 302.032 588.4 301.552C589.088 301.6 589.856 301.584 590.08 301.584C590.32 301.584 590.4 301.504 590.4 301.248V298.096H587.968C587.792 299.984 587.392 301.984 586.528 303.424C586.224 303.088 585.44 302.512 585.024 302.352C585.072 302.256 585.136 302.176 585.184 302.08L583.856 302.832C583.536 302.208 582.768 301.152 582.144 300.416L583.584 299.632C584.16 300.272 584.912 301.152 585.312 301.808C586.24 299.808 586.32 297.104 586.32 295.024V289.152H592.24ZM599.568 290.432H597.104V291.28H599.568V290.432ZM597.104 293.472H599.568V292.56H597.104V293.472ZM601.344 294.832H597.104V303.392H595.216V289.056H601.344V294.832ZM604.256 293.504H606.8V292.56H604.256V293.504ZM606.8 290.432H604.256V291.28H606.8V290.432ZM600.56 300.512H603.2V299.52H600.56V300.512ZM603.2 298.16V297.2H600.56V298.16H603.2ZM608.72 289.056V301.136C608.72 302.16 608.512 302.72 607.872 303.024C607.248 303.344 606.32 303.392 604.944 303.392C604.896 302.992 604.72 302.4 604.528 301.904H600.56V302.72H598.832V295.808H599.616V295.792L604.992 295.808V301.472C605.616 301.488 606.208 301.488 606.416 301.472C606.704 301.472 606.8 301.376 606.8 301.12V294.864H602.448V289.056H608.72Z" fill="#4A3E42"/>
<g filter="url(#filter0_d_956_27055)">
<path fill-rule="evenodd" clip-rule="evenodd" d="M532.644 249.362C482.763 243.724 444 201.389 444 150C444 94.7715 488.772 50 544 50C599.228 50 644 94.7715 644 150C644 205.228 599.228 250 544 250C542.711 250 541.428 249.976 540.151 249.927L528.55 257.109L532.644 249.362Z" fill="white"/>
<path d="M500.188 95.476H506.92V96.488H501.244V109.798H500.188V95.476ZM516.172 92.03L519.032 92.966C518.356 94.656 517.55 96.424 516.614 98.088V116.21H513.676V102.612C513.026 103.444 512.376 104.224 511.7 104.926C511.414 104.172 510.556 102.508 510.036 101.754C512.454 99.414 514.82 95.722 516.172 92.03ZM522.49 95.826V99.31H530.108V95.826H522.49ZM534.476 107.188H529.276C530.81 109.45 533.046 111.582 535.23 112.856C534.528 113.454 533.54 114.546 533.046 115.326C531.148 113.974 529.25 111.868 527.768 109.554V116.262H524.648V109.684C523.062 111.972 521.086 113.948 519.032 115.274C518.564 114.52 517.602 113.402 516.9 112.804C519.24 111.582 521.554 109.476 523.166 107.188H517.836V104.38H524.648V102.04H519.552V93.096H533.202V102.04H527.768V104.38H534.476V107.188ZM550.778 106.772H553.326C553.352 106.538 553.352 106.304 553.352 106.07V104.432H550.778V106.772ZM558.864 104.432H556.134V106.148C556.134 106.356 556.134 106.564 556.134 106.772H558.864V104.432ZM551.662 97.958H557.954C556.68 96.918 555.51 95.748 554.704 94.63C553.976 95.722 552.91 96.892 551.662 97.958ZM561.646 109.138H556.992C558.526 111.998 560.476 112.986 563.05 113.792C562.348 114.442 561.62 115.456 561.282 116.366C558.682 115.378 556.628 114.052 555.042 111.218C553.924 113.298 551.818 115.17 547.918 116.392C547.632 115.768 546.774 114.598 546.28 114.104C550.466 112.83 552.208 111.062 552.91 109.138H548.1V102.092H553.352V100.506H550.05V99.18C549.296 99.7 548.516 100.168 547.736 100.558C547.45 99.882 546.93 98.946 546.462 98.27C546.098 99.336 545.734 100.402 545.396 101.286C547.06 103.262 547.398 104.978 547.398 106.486C547.398 108.124 547.06 109.216 546.202 109.814C545.786 110.1 545.266 110.256 544.694 110.334C544.2 110.412 543.576 110.438 542.926 110.412C542.926 109.658 542.692 108.462 542.25 107.708C542.744 107.76 543.134 107.76 543.446 107.734C543.732 107.734 544.018 107.682 544.2 107.552C544.512 107.318 544.642 106.824 544.642 106.07C544.642 104.9 544.252 103.34 542.744 101.624C543.29 99.96 543.862 97.646 544.304 95.852H542.198V116.262H539.52V93.096H545.266L545.708 92.966L547.762 94.162C547.424 95.306 547.008 96.606 546.592 97.88C549.348 96.606 551.948 94.136 553.222 92.004H556.03C557.824 94.474 560.528 96.632 563.232 97.62C562.66 98.348 562.062 99.492 561.646 100.324C560.996 100.012 560.294 99.596 559.618 99.154V100.506H556.134V102.092H561.646V109.138ZM573.244 115.804H566.512V114.792H572.188V101.482H573.244V115.804Z" fill="#1492D9"/>
<path d="M585.072 112.18C585.072 112.754 585.632 112.992 586.374 112.992C587.228 112.992 587.522 112.544 587.522 111.718C587.522 111.648 587.522 111.564 587.522 111.466C587.158 111.368 586.78 111.312 586.402 111.312C585.604 111.312 585.072 111.648 585.072 112.18ZM589.23 103.038C589.188 103.304 589.16 103.64 589.146 103.948C589.132 104.256 589.118 104.774 589.104 105.39C589.874 105.32 590.602 105.208 591.274 105.068V106.818C590.602 106.916 589.874 107 589.104 107.056C589.132 108.414 589.202 109.534 589.258 110.486C590.42 110.962 591.302 111.676 591.974 112.292L591.008 113.762C590.42 113.216 589.86 112.726 589.3 112.348C589.216 113.692 588.46 114.644 586.57 114.644C584.638 114.644 583.434 113.832 583.434 112.362C583.434 110.948 584.638 109.968 586.542 109.968C586.864 109.968 587.172 109.982 587.452 110.024C587.424 109.156 587.368 108.134 587.354 107.14C587.018 107.154 586.682 107.154 586.36 107.154C585.534 107.154 584.736 107.126 583.91 107.07V105.404C584.708 105.488 585.52 105.53 586.36 105.53C586.682 105.53 587.018 105.53 587.34 105.516C587.34 104.83 587.326 104.256 587.326 103.962C587.326 103.752 587.284 103.318 587.228 103.038H589.23ZM582.398 103.192C582.286 103.472 582.118 104.186 582.076 104.438C581.866 105.376 581.404 108.456 581.404 109.856C581.404 110.136 581.418 110.486 581.46 110.766C581.642 110.276 581.88 109.8 582.09 109.324L582.944 110.024C582.552 111.172 582.104 112.6 581.936 113.356C581.894 113.552 581.866 113.86 581.866 114.014C581.866 114.154 581.88 114.392 581.894 114.588L580.312 114.714C580.018 113.734 579.752 112.138 579.752 110.234C579.752 108.12 580.172 105.474 580.326 104.396C580.382 104.004 580.452 103.472 580.466 103.024L582.398 103.192ZM478.719 132.212L478.593 130.84C479.265 130.784 480.077 130.7 480.973 130.616V129.454H479.055V128.208H480.973V127.34H478.817V126.094H480.973V125.142H482.513V126.094H484.473V127.34H482.513V128.208H484.291V129.454H482.513V130.448C483.171 130.378 483.843 130.308 484.501 130.238L484.515 130.98C485.943 130.14 486.279 128.852 486.391 127.088H484.795V125.688H491.081C491.081 125.688 491.081 126.136 491.067 126.318C490.941 129.678 490.801 131.022 490.437 131.484C490.157 131.848 489.863 131.974 489.457 132.03C489.107 132.086 488.519 132.086 487.903 132.086C487.889 131.624 487.707 130.98 487.469 130.602C487.973 130.644 488.421 130.644 488.631 130.644C488.827 130.644 488.939 130.616 489.065 130.476C489.261 130.238 489.373 129.342 489.471 127.088H487.945C487.777 129.454 487.259 131.19 485.229 132.282C485.089 132.002 484.809 131.61 484.529 131.316V131.512C482.471 131.778 480.301 132.03 478.719 132.212ZM491.193 134.606H486.419C487.329 135.894 488.953 136.482 491.571 136.636C491.207 137.028 490.787 137.742 490.563 138.232C487.889 137.91 486.293 137.126 485.229 135.572C484.543 136.706 482.933 137.742 479.363 138.246C479.153 137.84 478.733 137.224 478.411 136.846C481.995 136.356 483.339 135.488 483.801 134.606H478.761V133.206H484.011V132.38H485.691V133.206H491.193V134.606ZM494.077 133.332L495.449 133.57C495.309 134.886 495.015 136.286 494.609 137.182C494.315 137 493.699 136.706 493.335 136.58C493.741 135.754 493.965 134.508 494.077 133.332ZM497.199 133.64L498.431 133.248C498.809 134.074 499.173 135.166 499.341 135.88L498.025 136.342C497.913 135.628 497.549 134.494 497.199 133.64ZM501.567 127.508H506.341C506.341 127.508 506.341 128.068 506.327 128.278C506.145 134.41 505.949 136.622 505.361 137.364C504.969 137.896 504.605 138.05 504.017 138.134C503.513 138.218 502.645 138.204 501.833 138.176C501.805 137.7 501.581 136.972 501.273 136.496C502.155 136.58 502.953 136.58 503.331 136.58C503.597 136.58 503.751 136.524 503.919 136.342C504.339 135.908 504.549 133.864 504.703 129.09H500.839C500.461 129.776 500.069 130.392 499.649 130.896C499.369 130.644 498.753 130.224 498.333 129.972C498.823 130.854 499.271 131.89 499.425 132.59L498.165 133.178C498.123 132.954 498.053 132.702 497.969 132.422L497.171 132.478V138.232H495.701V132.59L493.629 132.73L493.489 131.274L494.525 131.232C494.735 130.966 494.959 130.672 495.169 130.364C494.763 129.762 494.077 129.006 493.489 128.446L494.273 127.298C494.385 127.396 494.497 127.494 494.609 127.592C495.001 126.822 495.393 125.884 495.631 125.156L497.101 125.674C496.597 126.64 496.023 127.718 495.519 128.502C495.701 128.698 495.869 128.908 496.009 129.09C496.513 128.306 496.961 127.494 497.297 126.794L498.711 127.382C497.927 128.614 496.947 130.042 496.037 131.176L497.451 131.12C497.297 130.784 497.129 130.448 496.961 130.154L498.137 129.636L498.235 129.804C499.271 128.698 500.097 126.906 500.545 125.142L502.253 125.506C502.071 126.192 501.833 126.864 501.567 127.508ZM503.149 133.906L501.707 134.676C501.441 133.794 500.713 132.45 499.999 131.442L501.329 130.77C502.057 131.736 502.855 133.024 503.149 133.906ZM518.325 130.462V129.748H514.013V130.462H518.325ZM518.325 132.254V131.554H514.013V132.254H518.325ZM518.325 134.074V133.36H514.013V134.074H518.325ZM512.445 128.586H514.223C514.265 128.348 514.307 128.082 514.335 127.816H509.015V126.29H514.489C514.517 125.87 514.531 125.464 514.545 125.1L516.505 125.156C516.449 125.534 516.407 125.912 516.337 126.29H521.419V127.816H516.085C516.029 128.082 515.987 128.348 515.931 128.586H519.977V135.236H512.445V128.586ZM521.559 136.048V137.602H511.311V138.232H509.659V129.02H511.311V136.048H521.559ZM526.459 125.156L527.929 125.73C527.047 126.934 525.745 128.292 524.583 129.146C524.373 128.81 523.967 128.222 523.715 127.928C524.709 127.228 525.871 126.066 526.459 125.156ZM526.711 128.138L528.167 128.684C527.859 129.244 527.495 129.818 527.103 130.378V138.246H525.549V132.254C525.185 132.646 524.821 132.982 524.457 133.29C524.303 132.926 523.855 132.086 523.589 131.736C524.751 130.854 525.983 129.496 526.711 128.138ZM530.799 133.626L530.785 133.64C531.149 134.144 531.625 134.592 532.171 134.998C532.703 134.592 533.151 134.144 533.515 133.626H530.799ZM534.649 132.324L535.685 132.786C535.209 134.018 534.467 135.012 533.557 135.81C534.565 136.286 535.741 136.636 537.043 136.832C536.693 137.182 536.259 137.826 536.049 138.26C534.565 137.966 533.277 137.476 532.185 136.79C531.023 137.476 529.665 137.966 528.223 138.288C528.069 137.868 527.719 137.21 527.425 136.874C528.671 136.664 529.847 136.3 530.869 135.782C530.463 135.418 530.085 135.012 529.763 134.564C529.343 134.886 528.923 135.18 528.503 135.432C528.279 135.11 527.747 134.494 527.425 134.2C528.615 133.598 529.763 132.674 530.547 131.61L527.747 131.694L527.607 130.224C528.237 130.224 528.965 130.224 529.763 130.21C529.959 130.042 530.169 129.86 530.365 129.678C529.721 129.02 528.741 128.236 527.901 127.69L528.895 126.612C529.133 126.766 529.399 126.934 529.665 127.116C530.211 126.486 530.799 125.716 531.163 125.1L532.605 125.842C532.003 126.556 531.317 127.312 530.729 127.9C531.023 128.138 531.303 128.376 531.527 128.6C532.381 127.774 533.179 126.892 533.781 126.122L535.251 126.934C534.243 127.998 532.997 129.188 531.821 130.182L534.327 130.14C534.103 129.818 533.865 129.524 533.627 129.244L534.915 128.53C535.727 129.44 536.651 130.7 537.043 131.596L535.643 132.38C535.531 132.114 535.377 131.792 535.181 131.456C534.257 131.498 533.305 131.526 532.395 131.554C532.227 131.834 532.045 132.114 531.849 132.38H534.383L534.649 132.324ZM544.911 125.94C544.827 126.304 544.729 126.752 544.659 127.102C544.561 127.522 544.463 128.04 544.365 128.544C544.827 128.516 545.247 128.488 545.541 128.488C547.025 128.488 548.075 129.146 548.075 131.162C548.075 132.814 547.879 135.082 547.277 136.3C546.815 137.28 546.031 137.588 544.981 137.588C544.435 137.588 543.777 137.49 543.301 137.392L542.993 135.544C543.539 135.698 544.337 135.838 544.715 135.838C545.177 135.838 545.541 135.698 545.765 135.236C546.143 134.438 546.325 132.744 546.325 131.358C546.325 130.238 545.849 130.084 544.967 130.084C544.743 130.084 544.393 130.112 544.001 130.14C543.469 132.268 542.433 135.586 541.145 137.644L539.325 136.916C540.683 135.082 541.649 132.254 542.153 130.336C541.649 130.392 541.215 130.448 540.949 130.476C540.557 130.546 539.815 130.644 539.395 130.714L539.227 128.81C539.731 128.852 540.207 128.824 540.725 128.81C541.159 128.796 541.817 128.754 542.531 128.698C542.727 127.634 542.839 126.612 542.825 125.73L544.911 125.94ZM549.727 127.256C550.595 128.46 551.771 131.134 552.191 132.464L550.413 133.29C550.049 131.736 549.055 129.202 548.061 127.97L549.727 127.256ZM557.187 125.73C558.517 126.15 561.569 126.682 562.787 126.822L562.367 128.53C560.953 128.348 557.831 127.69 556.739 127.41L557.187 125.73ZM557.271 128.544C557.089 129.314 556.837 131.022 556.739 131.82C558.013 130.896 559.399 130.49 560.869 130.49C563.319 130.49 564.747 132.002 564.747 133.696C564.747 136.244 562.731 138.204 556.907 137.714L556.375 135.88C560.575 136.454 562.801 135.432 562.801 133.654C562.801 132.744 561.933 132.072 560.715 132.072C559.133 132.072 557.705 132.66 556.823 133.724C556.571 134.032 556.431 134.256 556.305 134.536L554.695 134.13C554.975 132.758 555.297 130.014 555.395 128.278L557.271 128.544ZM570.422 125.17L571.962 125.674C571.598 126.584 571.164 127.536 570.66 128.432V138.19H569.078V130.868C568.728 131.316 568.378 131.736 568.014 132.114C567.86 131.708 567.398 130.812 567.118 130.406C568.42 129.146 569.694 127.158 570.422 125.17ZM573.824 127.214V129.09H577.926V127.214H573.824ZM580.278 133.332H577.478C578.304 134.55 579.508 135.698 580.684 136.384C580.306 136.706 579.774 137.294 579.508 137.714C578.486 136.986 577.464 135.852 576.666 134.606V138.218H574.986V134.676C574.132 135.908 573.068 136.972 571.962 137.686C571.71 137.28 571.192 136.678 570.814 136.356C572.074 135.698 573.32 134.564 574.188 133.332H571.318V131.82H574.986V130.56H572.242V125.744H579.592V130.56H576.666V131.82H580.278V133.332ZM590.288 128.18H591.968C592.08 127.928 592.22 127.606 592.332 127.312H590.022C590.148 127.62 590.246 127.942 590.288 128.18ZM586.998 128.18H588.79C588.734 127.9 588.636 127.578 588.51 127.312H587.474V126.01H590.358V125.142H591.968V126.01H595.132V127.312H593.97C593.802 127.648 593.648 127.942 593.508 128.18H595.398V129.482H586.998V128.18ZM586.27 125.674L587.362 126.304C586.998 127.494 586.536 129.02 586.144 130.112C586.984 131.176 587.166 132.114 587.166 132.926C587.166 133.822 586.984 134.41 586.55 134.718C586.326 134.872 586.06 134.956 585.738 135.012C585.5 135.04 585.164 135.054 584.842 135.04C584.828 134.648 584.702 134.018 584.478 133.626C584.73 133.64 584.912 133.64 585.094 133.64C585.248 133.626 585.374 133.598 585.486 133.514C585.64 133.402 585.696 133.122 585.696 132.73C585.696 132.086 585.514 131.218 584.73 130.28C585.01 129.398 585.304 128.18 585.528 127.228H584.436V138.218H582.994V125.744H586.032L586.27 125.674ZM589.238 132.604V133.192H593.144V132.604H589.238ZM589.238 131.064V131.652H593.144V131.064H589.238ZM595.468 134.914V136.23H591.968V138.218H590.358V136.23H586.886V134.914H590.358V134.2H587.754V130.056H594.684V134.2H591.968V134.914H595.468ZM603.489 126.038C603.405 126.402 603.307 126.85 603.237 127.2C603.153 127.62 603.041 128.138 602.943 128.642C603.419 128.614 603.825 128.586 604.119 128.586C605.603 128.586 606.653 129.244 606.653 131.26C606.653 132.912 606.457 135.18 605.855 136.398C605.393 137.378 604.623 137.686 603.559 137.686C603.027 137.686 602.355 137.588 601.879 137.49L601.585 135.642C602.117 135.796 602.929 135.936 603.293 135.936C603.769 135.936 604.119 135.796 604.343 135.334C604.721 134.536 604.917 132.842 604.917 131.456C604.917 130.336 604.427 130.182 603.559 130.182C603.335 130.182 602.985 130.21 602.579 130.238C602.047 132.366 601.011 135.684 599.723 137.742L597.903 137.014C599.261 135.18 600.227 132.352 600.745 130.434C600.241 130.49 599.793 130.546 599.541 130.574C599.135 130.644 598.407 130.742 597.973 130.812L597.805 128.908C598.323 128.95 598.785 128.922 599.303 128.908C599.737 128.894 600.395 128.852 601.109 128.782C601.305 127.732 601.431 126.71 601.403 125.828L603.489 126.038ZM609.719 124.876C610.083 125.408 610.601 126.29 610.839 126.78L609.733 127.256C609.439 126.682 608.991 125.856 608.599 125.324L609.719 124.876ZM608.053 125.506C608.403 126.024 608.907 126.906 609.173 127.424L608.487 127.718C609.327 129.02 610.377 131.358 610.769 132.604L608.991 133.416C608.627 131.862 607.633 129.398 606.639 128.166L607.899 127.62C607.619 127.088 607.269 126.416 606.947 125.968L608.053 125.506ZM495.476 149.864H493.278V150.578H495.476V149.864ZM493.278 152.426H495.476V151.67H493.278V152.426ZM497.044 153.63H493.278V161.218H491.654V148.674H497.044V153.63ZM496.82 156.71H498.122V155.66H496.82V156.71ZM501.118 158.068H499.578V160.952H498.122V158.068H496.778C496.638 159.034 496.176 160.392 494.986 161.204C494.748 160.91 494.244 160.476 493.922 160.252C494.818 159.692 495.21 158.782 495.35 158.068H493.936V156.71H495.406V155.66H494.132V154.344H500.894V155.66H499.578V156.71H501.118V158.068ZM499.55 152.454H501.818V151.67H499.55V152.454ZM501.818 149.864H499.55V150.578H501.818V149.864ZM503.456 148.674V159.272C503.456 160.126 503.302 160.588 502.798 160.854C502.294 161.134 501.566 161.176 500.502 161.176C500.446 160.714 500.222 159.958 499.998 159.524C500.628 159.552 501.314 159.552 501.524 159.538C501.748 159.538 501.818 159.454 501.818 159.258V153.658H497.968V148.674H503.456ZM511.59 152.748L512.738 152.692C513.242 151.32 513.746 149.514 514.012 148.142L515.86 148.464C515.412 149.85 514.88 151.376 514.362 152.594C515.174 152.552 516.028 152.496 516.896 152.454C516.602 151.936 516.294 151.432 515.986 150.984L517.302 150.312C518.17 151.488 519.094 153.042 519.43 154.106L517.988 154.876C517.904 154.582 517.792 154.26 517.638 153.91C515.552 154.078 513.354 154.232 511.758 154.344L511.59 152.748ZM510.022 152.454H508.79C508.552 153.504 508.3 154.54 508.062 155.492C508.426 155.716 508.804 155.968 509.182 156.234C509.588 155.156 509.854 153.882 510.022 152.454ZM510.68 150.886L511.674 151.04C511.52 153.588 511.142 155.618 510.512 157.242C511.128 157.746 511.66 158.25 512.01 158.698L511.016 160.028C510.722 159.636 510.288 159.174 509.784 158.712C509.126 159.79 508.286 160.63 507.25 161.274C507.012 160.854 506.564 160.252 506.242 159.944C507.166 159.454 507.936 158.684 508.524 157.662C508.244 157.438 507.95 157.214 507.67 157.018L507.53 157.508L506.186 156.78C506.522 155.632 506.9 154.078 507.25 152.454H506.228V150.928H507.572C507.768 149.962 507.95 149.01 508.09 148.142L509.658 148.296C509.504 149.122 509.322 150.018 509.126 150.928H510.4L510.68 150.886ZM516.994 156.878H514.054V159.174H516.994V156.878ZM512.486 161.218V155.38H518.646V161.162H516.994V160.672H514.054V161.218H512.486ZM527.134 150.06C527.022 149.738 526.868 149.234 526.686 148.772L528.576 148.548C528.716 149.29 528.926 150.046 529.164 150.746C530.172 150.592 531.152 150.368 532.034 150.102L532.258 151.866C531.544 152.076 530.648 152.244 529.766 152.37C530.172 153.28 530.662 154.148 531.012 154.652C531.25 155.002 531.516 155.31 531.768 155.59L530.9 156.85C530.116 156.696 528.352 156.514 527.176 156.416L527.316 154.932C528.002 154.988 528.926 155.072 529.36 155.1C528.94 154.428 528.436 153.504 528.044 152.566C526.378 152.692 524.46 152.706 522.066 152.51L522.038 150.718C524.138 150.97 525.93 151.012 527.414 150.914C527.302 150.592 527.218 150.298 527.134 150.06ZM524.838 155.492C524.39 156.15 524.152 156.766 524.152 157.382C524.152 158.558 525.202 159.062 527.12 159.062C528.646 159.062 529.878 158.922 530.872 158.726L530.774 160.49C529.976 160.644 528.716 160.826 527.008 160.826C524.152 160.812 522.346 159.706 522.346 157.69C522.346 156.836 522.612 156.038 523.088 155.086L524.838 155.492ZM538.075 149.906C538.075 149.5 538.089 149.08 538.019 148.646L540.063 148.716C539.979 149.108 539.853 149.822 539.755 150.69L540.273 151.362C540.077 151.614 539.797 152.076 539.559 152.44C539.545 152.538 539.545 152.636 539.531 152.748C540.637 151.782 542.247 150.648 543.605 150.648C545.117 150.648 545.803 151.544 545.803 152.72C545.803 154.176 545.341 156.234 545.341 157.676C545.341 158.04 545.523 158.306 545.873 158.306C546.391 158.306 547.049 157.942 547.693 157.298L547.917 159.272C547.273 159.874 546.419 160.308 545.285 160.308C544.235 160.308 543.535 159.552 543.535 158.194C543.535 156.682 544.039 154.624 544.039 153.35C544.039 152.664 543.675 152.314 543.087 152.314C542.051 152.314 540.539 153.602 539.391 154.862C539.377 155.254 539.363 155.632 539.363 155.996C539.363 157.144 539.363 158.32 539.447 159.636C539.461 159.888 539.503 160.392 539.545 160.714H537.613C537.641 160.392 537.655 159.902 537.655 159.678C537.683 158.586 537.697 157.774 537.711 156.598C537.123 157.48 536.437 158.502 535.947 159.16L534.841 157.634C535.639 156.654 537.039 154.806 537.837 153.63C537.865 153.308 537.893 152.972 537.907 152.636C537.221 152.72 536.143 152.86 535.359 152.972L535.177 151.18C535.583 151.194 535.905 151.194 536.395 151.166C536.801 151.138 537.417 151.068 538.019 150.984C538.047 150.452 538.075 150.06 538.075 149.906ZM554.314 158.348C554.314 158.866 554.888 159.216 555.728 159.216C556.022 159.216 556.288 159.202 556.54 159.174C556.456 158.264 555.938 157.676 555.182 157.676C554.65 157.676 554.314 157.998 554.314 158.348ZM551.934 149.332C552.326 149.388 552.816 149.402 553.208 149.402C553.95 149.402 556.946 149.346 557.744 149.276C558.318 149.22 558.64 149.178 558.808 149.122L559.718 150.368C559.396 150.578 559.06 150.774 558.738 151.012C557.982 151.544 556.512 152.776 555.63 153.476C556.092 153.364 556.512 153.322 556.96 153.322C559.34 153.322 561.146 154.806 561.146 156.85C561.146 159.062 559.466 160.812 556.078 160.812C554.132 160.812 552.662 159.916 552.662 158.516C552.662 157.382 553.684 156.332 555.168 156.332C556.904 156.332 557.954 157.396 558.15 158.726C558.92 158.32 559.312 157.676 559.312 156.822C559.312 155.562 558.052 154.708 556.4 154.708C554.258 154.708 552.858 155.842 551.36 157.55L550.086 156.234C551.08 155.436 552.774 154.008 553.6 153.322C554.384 152.678 555.84 151.502 556.526 150.9C555.812 150.914 553.88 150.998 553.138 151.04C552.76 151.068 552.312 151.11 551.99 151.152L551.934 149.332ZM576.255 155.072C576.255 158.026 574.449 160.112 570.921 160.658L569.871 158.992C570.403 158.936 570.795 158.852 571.173 158.768C572.965 158.348 574.365 157.06 574.365 155.016C574.365 153.084 573.315 151.642 571.425 151.32C571.229 152.51 570.991 153.798 570.585 155.114C569.745 157.942 568.541 159.678 567.015 159.678C565.461 159.678 564.173 157.97 564.173 155.604C564.173 152.37 566.973 149.612 570.599 149.612C574.071 149.612 576.255 152.02 576.255 155.072ZM565.965 155.422C565.965 156.836 566.525 157.522 567.071 157.522C567.659 157.522 568.205 156.64 568.779 154.75C569.101 153.714 569.367 152.524 569.521 151.362C567.211 151.838 565.965 153.882 565.965 155.422ZM578.556 150.396C579.116 150.382 579.662 150.354 579.928 150.326C581.104 150.228 583.414 150.018 585.976 149.808C587.418 149.682 588.944 149.598 589.938 149.556L589.952 151.348C589.196 151.362 587.992 151.362 587.25 151.544C585.556 151.992 584.282 153.798 584.282 155.464C584.282 157.774 586.438 158.6 588.818 158.726L588.16 160.644C585.22 160.448 582.448 158.88 582.448 155.842C582.448 153.826 583.582 152.23 584.534 151.516C583.218 151.656 580.362 151.964 578.738 152.314L578.556 150.396ZM587.95 152.72C588.3 153.224 588.804 154.078 589.07 154.624L588.006 155.1C587.656 154.33 587.362 153.784 586.914 153.154L587.95 152.72ZM589.518 152.076C589.868 152.566 590.4 153.392 590.694 153.938L589.644 154.442C589.266 153.686 588.944 153.168 588.496 152.552L589.518 152.076ZM595.009 160.966C594.155 159.916 592.965 158.712 591.999 157.872L593.455 156.612C594.449 157.424 595.807 158.81 596.507 159.678L595.009 160.966ZM488.733 172.99C488.635 173.494 488.565 174.306 488.565 174.698C488.551 175.608 488.565 176.658 488.649 177.666C488.845 179.682 489.265 181.068 490.147 181.068C490.805 181.068 491.365 179.43 491.631 178.31L493.031 180.018C492.107 182.454 491.225 183.308 490.105 183.308C488.565 183.308 487.235 181.922 486.843 178.17C486.703 176.882 486.689 175.244 486.689 174.39C486.689 173.998 486.661 173.396 486.577 172.962L488.733 172.99ZM495.733 173.312C497.063 174.922 498.127 178.422 498.281 180.564L496.447 181.278C496.223 179.024 495.481 175.622 493.955 173.886L495.733 173.312ZM500.641 175.328C501.159 175.244 501.859 175.048 502.363 174.908C503.441 174.572 506.297 173.564 508.341 173.564C510.875 173.564 512.863 175.02 512.863 177.61C512.863 180.788 509.839 182.818 504.911 183.07L504.099 181.208C507.893 181.11 510.861 180.018 510.861 177.582C510.861 176.266 509.951 175.258 508.271 175.258C506.213 175.258 502.895 176.658 501.439 177.288L500.641 175.328ZM522.381 176.532L523.417 175.664C524.915 176.742 527.071 178.352 528.079 179.458L526.665 180.732C525.797 179.696 523.893 178.1 522.381 176.938V184.19H520.561V177.358C519.287 178.716 517.789 179.934 516.109 180.802C515.843 180.354 515.325 179.668 514.961 179.29C517.509 178.1 519.693 175.93 520.995 173.788H515.409V172.08H527.547V173.788H523.193C522.955 174.222 522.675 174.656 522.381 175.076V176.532ZM540.273 172.556V180.648H538.831V172.556H540.273ZM533.707 172.556L532.727 173.9C532.279 173.452 531.327 172.836 530.557 172.486L531.495 171.254C532.251 171.576 533.231 172.136 533.707 172.556ZM533.175 176.196L532.209 177.54C531.747 177.106 530.795 176.546 530.025 176.196L530.935 174.978C531.705 175.272 532.699 175.762 533.175 176.196ZM532.069 178.716L533.413 179.584C532.951 181.082 532.335 182.692 531.761 184.064L530.263 183.21C530.781 182.132 531.523 180.354 532.069 178.716ZM534.295 180.928L535.807 181.348C535.345 182.412 534.589 183.56 533.917 184.26C533.609 184.008 532.979 183.602 532.615 183.406C533.273 182.776 533.917 181.838 534.295 180.928ZM536.255 181.516L537.515 180.816C538.033 181.46 538.691 182.37 538.985 182.958L537.669 183.742C537.403 183.154 536.773 182.216 536.255 181.516ZM536.675 174.306V173.13H535.303V174.306H536.675ZM536.675 176.826V175.636H535.303V176.826H536.675ZM536.675 179.374V178.17H535.303V179.374H536.675ZM538.131 171.688V180.816H533.903V171.688H538.131ZM541.141 171.156H542.653V182.342C542.653 183.196 542.499 183.644 542.009 183.882C541.519 184.148 540.791 184.204 539.699 184.204C539.643 183.77 539.433 183.07 539.223 182.608C539.937 182.636 540.609 182.636 540.833 182.636C541.071 182.622 541.141 182.552 541.141 182.342V171.156ZM557.676 178.072C557.676 181.026 555.87 183.112 552.342 183.658L551.292 181.992C551.824 181.936 552.216 181.852 552.594 181.768C554.386 181.348 555.786 180.06 555.786 178.016C555.786 176.084 554.736 174.642 552.846 174.32C552.65 175.51 552.412 176.798 552.006 178.114C551.166 180.942 549.962 182.678 548.436 182.678C546.882 182.678 545.594 180.97 545.594 178.604C545.594 175.37 548.394 172.612 552.02 172.612C555.492 172.612 557.676 175.02 557.676 178.072ZM547.386 178.422C547.386 179.836 547.946 180.522 548.492 180.522C549.08 180.522 549.626 179.64 550.2 177.75C550.522 176.714 550.788 175.524 550.942 174.362C548.632 174.838 547.386 176.882 547.386 178.422ZM569.958 180.984V180.326H567.438V180.984H569.958ZM567.438 178.45V179.052H569.958V178.45H567.438ZM563.546 175.664H565.744V174.992H563.546V175.664ZM569.706 174.992H567.438V175.664H569.706V174.992ZM573.108 179.052V180.326H571.652V182.762H569.958V182.188H567.438V182.622C567.438 183.448 567.242 183.784 566.696 184.022C566.164 184.232 565.408 184.26 564.218 184.26C564.134 183.868 563.882 183.294 563.672 182.944C564.344 182.972 565.17 182.972 565.394 182.972C565.66 182.958 565.744 182.874 565.744 182.622V182.188H561.488V180.984H565.744V180.326H560.2V179.052H565.744V178.45H561.6V177.33H565.744V176.714H561.95V173.942H565.744V173.368H560.522V172.052H565.744V171.142H567.438V172.052H572.786V173.368H567.438V173.942H571.414V176.714H567.438V177.33H571.652V179.052H573.108ZM586.254 175.678H584.252C582.656 175.678 582.278 175.272 582.278 173.928V171.24H583.818V172.374C584.77 172.122 585.722 171.8 586.324 171.478L587.472 172.472C586.422 172.92 585.036 173.284 583.818 173.536V173.928C583.818 174.306 583.888 174.362 584.448 174.362H586.1C586.52 174.362 586.618 174.236 586.66 173.438C586.968 173.648 587.584 173.872 588.004 173.942C587.85 175.314 587.416 175.678 586.254 175.678ZM586.324 180.41H584.266C582.656 180.41 582.278 179.99 582.278 178.632V175.804H583.818V177.078C584.826 176.812 585.834 176.476 586.478 176.126L587.626 177.12C586.548 177.61 585.106 178.002 583.818 178.254V178.618C583.818 179.038 583.888 179.08 584.462 179.08H586.17C586.604 179.08 586.688 178.94 586.744 178.072C587.052 178.296 587.682 178.52 588.088 178.59C587.934 180.018 587.5 180.41 586.324 180.41ZM575.516 174.25L575.446 172.962L576.524 172.948C576.874 172.332 577.224 171.618 577.434 171.072L579.072 171.464C578.764 171.954 578.428 172.458 578.106 172.906L579.828 172.864C579.646 172.64 579.45 172.416 579.268 172.22L580.43 171.604C581.13 172.29 581.9 173.256 582.208 173.928L580.962 174.628C580.892 174.446 580.78 174.25 580.668 174.04C578.806 174.138 576.916 174.194 575.516 174.25ZM576.524 183.966L575.222 183.056C576.118 182.538 576.804 181.684 577.126 180.788L578.54 181.32C578.162 182.356 577.546 183.35 576.524 183.966ZM577.644 177.722H579.912V177.204H577.644V177.722ZM579.912 175.818H577.644V176.308H579.912V175.818ZM580.276 180.69L580.808 180.2C580.402 180.368 579.842 180.382 579.128 180.382C579.058 180.018 578.862 179.542 578.694 179.248C579.114 179.262 579.59 179.262 579.702 179.262C579.856 179.248 579.912 179.206 579.912 179.066V178.646H577.644V180.41H576.16V174.74H581.41V179.066C581.41 179.374 581.382 179.598 581.312 179.78C582.04 180.13 582.936 180.704 583.384 181.18L582.306 182.188C581.914 181.712 581.032 181.068 580.276 180.69ZM581.298 182.748H583.216C583.72 182.748 583.818 182.608 583.874 181.684C584.196 181.922 584.854 182.132 585.274 182.216C585.106 183.7 584.658 184.078 583.398 184.078H581.102C579.366 184.078 578.932 183.672 578.932 182.356V180.942H580.556V182.342C580.556 182.706 580.682 182.748 581.298 182.748ZM584.63 181.39L585.946 180.662C586.87 181.362 587.878 182.37 588.298 183.182L586.856 183.994C586.506 183.238 585.54 182.146 584.63 181.39ZM596.291 172.038C596.207 172.402 596.109 172.85 596.039 173.2C595.955 173.62 595.843 174.138 595.745 174.642C596.221 174.614 596.627 174.586 596.921 174.586C598.405 174.586 599.455 175.244 599.455 177.26C599.455 178.912 599.259 181.18 598.657 182.398C598.195 183.378 597.425 183.686 596.361 183.686C595.829 183.686 595.157 183.588 594.681 183.49L594.387 181.642C594.919 181.796 595.731 181.936 596.095 181.936C596.571 181.936 596.921 181.796 597.145 181.334C597.523 180.536 597.719 178.842 597.719 177.456C597.719 176.336 597.229 176.182 596.361 176.182C596.137 176.182 595.787 176.21 595.381 176.238C594.849 178.366 593.813 181.684 592.525 183.742L590.705 183.014C592.063 181.18 593.029 178.352 593.547 176.434C593.043 176.49 592.595 176.546 592.343 176.574C591.937 176.644 591.209 176.742 590.775 176.812L590.607 174.908C591.125 174.95 591.587 174.922 592.105 174.908C592.539 174.894 593.197 174.852 593.911 174.782C594.107 173.732 594.233 172.71 594.205 171.828L596.291 172.038ZM602.521 170.876C602.885 171.408 603.403 172.29 603.641 172.78L602.535 173.256C602.241 172.682 601.793 171.856 601.401 171.324L602.521 170.876ZM600.855 171.506C601.205 172.024 601.709 172.906 601.975 173.424L601.289 173.718C602.129 175.02 603.179 177.358 603.571 178.604L601.793 179.416C601.429 177.862 600.435 175.398 599.441 174.166L600.701 173.62C600.421 173.088 600.071 172.416 599.749 171.968L600.855 171.506ZM496.189 198.286V196.13H492.521V194.674H497.799V200.078H496.189V199.714H494.229V202.584C494.229 203.088 494.327 203.158 494.873 203.158H496.497C496.987 203.158 497.071 202.906 497.127 201.338C497.477 201.604 498.163 201.87 498.583 201.968C498.401 204.054 497.995 204.642 496.637 204.642H494.649C493.095 204.642 492.647 204.194 492.647 202.584V198.286H496.189ZM490.001 202.682V204.992C490.743 205.202 491.625 205.258 492.703 205.258C493.767 205.272 497.477 205.272 498.737 205.216C498.485 205.594 498.205 206.364 498.107 206.854H492.703C490.099 206.854 488.433 206.518 487.341 204.95C487.201 205.888 486.991 206.714 486.683 207.4C486.389 207.204 485.661 206.84 485.297 206.686C485.983 205.272 486.123 202.948 486.151 200.554L487.677 200.666C487.663 201.282 487.635 201.884 487.607 202.472C487.831 203.158 488.111 203.676 488.475 204.082V199.728H485.675V198.286H488.139V196.97H486.053V195.542H488.139V194.17H489.693V195.542H491.765V196.97H489.693V198.286H492.115V199.728H490.001V201.24H491.989V202.682H490.001ZM501.375 198.888C503.461 199.084 505.351 199.098 506.905 199C506.835 198.832 506.779 198.664 506.723 198.51C506.611 198.188 506.527 197.922 506.443 197.684C505.127 197.754 503.489 197.726 501.725 197.558L501.627 195.948C503.293 196.144 504.721 196.2 506.009 196.158C505.869 195.71 505.729 195.262 505.561 194.772L507.437 194.562C507.507 195.066 507.591 195.556 507.689 196.032C508.655 195.906 509.551 195.71 510.447 195.43L510.671 197.04C509.901 197.25 509.019 197.432 508.095 197.558C508.165 197.782 508.235 198.006 508.305 198.216C508.375 198.412 508.459 198.622 508.543 198.846C509.691 198.706 510.531 198.468 511.217 198.286L511.497 199.938C510.853 200.106 510.097 200.26 509.257 200.372C509.495 200.82 509.733 201.254 509.985 201.618C510.167 201.884 510.363 202.094 510.615 202.332L509.761 203.62C508.977 203.466 507.465 203.284 506.443 203.172L506.583 201.842C507.171 201.898 507.927 201.968 508.347 202.01C508.053 201.52 507.787 201.03 507.563 200.554C505.841 200.666 503.587 200.666 501.473 200.54L501.375 198.888ZM504.063 202.136C503.727 202.598 503.447 203.088 503.447 203.69C503.447 204.726 504.427 205.146 506.275 205.146C507.605 205.146 508.795 205.034 509.789 204.838L509.691 206.616C508.711 206.784 507.437 206.882 506.289 206.882C503.489 206.882 501.753 206.056 501.725 204.054C501.697 203.158 502.005 202.472 502.327 201.8L504.063 202.136ZM513.75 196.368C514.31 196.354 514.856 196.326 515.136 196.298C516.298 196.2 518.608 195.99 521.17 195.766C522.612 195.654 524.152 195.556 525.132 195.528L525.146 197.32C524.39 197.334 523.186 197.334 522.444 197.502C520.75 197.95 519.49 199.77 519.49 201.436C519.49 203.732 521.646 204.572 524.012 204.698L523.354 206.616C520.428 206.42 517.656 204.838 517.656 201.814C517.656 199.798 518.79 198.202 519.728 197.488C518.412 197.628 515.556 197.936 513.932 198.286L513.75 196.368ZM532.487 194.786C532.361 195.29 532.305 195.668 532.249 196.032C532.207 196.27 532.151 196.648 532.095 197.11C533.103 197.096 533.999 197.012 534.657 196.914L534.601 198.58C533.761 198.664 532.991 198.72 531.871 198.72C531.787 199.336 531.703 199.994 531.633 200.624C531.661 200.624 531.703 200.624 531.731 200.624C532.599 200.624 533.635 200.568 534.545 200.456L534.503 202.122C533.719 202.192 532.907 202.248 532.025 202.248C531.843 202.248 531.647 202.248 531.465 202.248C531.437 202.668 531.409 203.018 531.409 203.27C531.409 204.432 532.123 205.048 533.495 205.048C535.455 205.048 536.519 204.152 536.519 203.004C536.519 202.052 536.001 201.156 535.077 200.288L537.051 199.868C537.975 201.044 538.409 202.038 538.409 203.228C538.409 205.342 536.505 206.854 533.439 206.854C531.241 206.854 529.687 205.902 529.687 203.564C529.687 203.228 529.729 202.724 529.785 202.15C528.763 202.052 527.839 201.898 527.097 201.688L527.195 199.994C528.105 200.302 529.043 200.456 529.953 200.554C530.037 199.924 530.121 199.266 530.191 198.636C529.225 198.538 528.231 198.37 527.405 198.132L527.503 196.522C528.315 196.788 529.365 196.97 530.387 197.054C530.429 196.62 530.471 196.242 530.499 195.92C530.541 195.262 530.541 194.982 530.513 194.674L532.487 194.786ZM543.362 196.928V198.678H541.668V195.388H546.666V194.142H548.43V195.388H553.568V198.678H551.79V196.928H543.362ZM549.564 200.904H546.302C546.008 201.492 545.7 202.066 545.406 202.612C546.26 202.85 547.17 203.158 548.094 203.494C548.78 202.822 549.27 201.982 549.564 200.904ZM553.82 200.904H551.496C551.09 202.234 550.516 203.284 549.76 204.138C551.118 204.698 552.378 205.286 553.26 205.832L551.93 207.19C551.076 206.616 549.788 205.958 548.374 205.342C546.89 206.336 544.986 206.882 542.634 207.218C542.48 206.826 542.004 206.07 541.682 205.706C543.642 205.51 545.238 205.174 546.498 204.572C545.882 204.348 545.28 204.124 544.692 203.928L544.426 204.39L542.69 203.914C543.194 203.102 543.782 202.038 544.384 200.904H541.374V199.336H545.182C545.546 198.622 545.882 197.908 546.162 197.264L547.912 197.628C547.66 198.174 547.38 198.748 547.086 199.336H553.82V200.904ZM565.398 199.336L566.938 198.566C568.128 200.106 569.122 202.15 569.472 203.606L567.778 204.446C567.498 203.018 566.518 200.876 565.398 199.336ZM557.39 199.126L559.028 199.462C558.818 201.38 558.454 203.522 557.53 204.894L555.976 203.998C556.802 202.794 557.208 200.988 557.39 199.126ZM559.938 195.486L561.016 194.184C562.668 194.772 564.6 195.808 565.706 196.62L564.614 198.09C563.536 197.194 561.59 196.116 559.938 195.486ZM559.896 198.132H561.632V204.782C561.632 205.454 561.73 205.552 562.388 205.552H564.306C564.992 205.552 565.104 205.118 565.202 202.92C565.594 203.228 566.294 203.522 566.756 203.648C566.574 206.252 566.126 207.078 564.446 207.078H562.164C560.386 207.078 559.896 206.532 559.896 204.782V198.132ZM571.167 196.396C571.727 196.382 572.273 196.354 572.539 196.326C573.715 196.228 576.025 196.018 578.587 195.808C580.029 195.682 581.555 195.598 582.549 195.556L582.563 197.348C581.807 197.362 580.603 197.362 579.861 197.544C578.167 197.992 576.893 199.798 576.893 201.464C576.893 203.774 579.049 204.6 581.429 204.726L580.771 206.644C577.831 206.448 575.059 204.88 575.059 201.842C575.059 199.826 576.193 198.23 577.145 197.516C575.829 197.656 572.973 197.964 571.349 198.314L571.167 196.396ZM580.561 198.72C580.911 199.224 581.415 200.078 581.681 200.624L580.617 201.1C580.267 200.33 579.973 199.784 579.525 199.154L580.561 198.72ZM582.129 198.076C582.479 198.566 583.011 199.392 583.305 199.938L582.255 200.442C581.877 199.686 581.555 199.168 581.107 198.552L582.129 198.076ZM593.082 194.716C593.054 194.94 592.998 195.696 592.984 195.92C592.984 196.032 592.984 196.186 592.97 196.354C594.384 196.354 596.302 196.326 597.03 196.34L597.016 197.992C596.176 197.95 594.874 197.922 592.97 197.922C592.97 198.636 592.984 199.406 592.984 200.022C593.32 200.554 593.488 201.212 593.488 201.94C593.488 203.76 592.424 206.084 589.008 207.036L587.51 205.552C588.924 205.258 590.156 204.796 590.926 203.956C590.73 203.998 590.52 204.026 590.296 204.026C589.218 204.026 587.888 203.158 587.888 201.45C587.888 199.868 589.162 198.832 590.688 198.832C590.884 198.832 591.066 198.846 591.248 198.874C591.248 198.566 591.248 198.244 591.234 197.936C589.12 197.964 586.936 198.048 585.214 198.146L585.172 196.452C586.768 196.452 589.316 196.396 591.22 196.368C591.206 196.186 591.206 196.046 591.192 195.934C591.15 195.36 591.094 194.884 591.052 194.716H593.082ZM589.568 201.422C589.568 202.066 590.086 202.472 590.646 202.472C591.234 202.472 591.752 202.024 591.556 200.792C591.36 200.47 591.024 200.302 590.646 200.302C590.1 200.302 589.568 200.68 589.568 201.422ZM599.793 202.528C601.053 202.528 602.061 203.55 602.061 204.796C602.061 206.042 601.053 207.064 599.793 207.064C598.561 207.064 597.539 206.042 597.539 204.796C597.539 203.55 598.561 202.528 599.793 202.528ZM599.793 206.056C600.493 206.056 601.053 205.496 601.053 204.796C601.053 204.096 600.493 203.536 599.793 203.536C599.121 203.536 598.547 204.096 598.547 204.796C598.547 205.496 599.121 206.056 599.793 206.056Z" fill="#4A3E42"/>
</g>
<path d="M293 0H367V70H293V0Z" fill="#E3EFF6"/>
<path d="M251.855 32.14H255.943V48.66H251.855V32.14ZM244.939 35.304H262.859V38.972H244.939V35.304ZM256.615 36.984C258.071 39.84 260.899 42.808 263.727 44.488C262.803 45.244 261.487 46.728 260.843 47.736C257.959 45.552 255.271 41.8 253.591 38.048L256.615 36.984ZM251.407 36.648L254.599 37.74C252.807 41.744 249.923 45.468 246.619 47.652C246.003 46.672 244.715 45.188 243.819 44.404C246.955 42.752 249.895 39.7 251.407 36.648ZM250.511 26.792V29.76H257.511V26.792H250.511ZM246.675 23.236H261.599V33.316H246.675V23.236ZM242.559 22.116L246.339 23.348C244.491 28.108 241.467 33.288 238.331 36.508C237.995 35.528 236.903 33.288 236.231 32.28C238.723 29.844 241.159 25.98 242.559 22.116ZM239.983 30.152L243.847 26.288V26.316V48.576H239.983V30.152ZM268.431 23.264H275.039V26.876H271.959V48.688H268.431V23.264ZM273.807 23.264H274.479L275.039 23.124L277.755 24.636C277.083 27.1 276.187 30.236 275.459 32.392C277.027 34.464 277.279 36.312 277.279 37.88C277.279 39.84 276.887 41.016 275.907 41.688C275.431 42.052 274.871 42.248 274.227 42.332C273.751 42.416 273.079 42.444 272.407 42.416C272.407 41.436 272.099 39.896 271.567 38.916C271.959 38.944 272.267 38.944 272.547 38.944C272.799 38.944 273.079 38.888 273.275 38.748C273.555 38.524 273.667 38.076 273.667 37.32C273.667 36.172 273.387 34.52 272.043 32.812C272.687 30.348 273.499 26.148 273.807 24.468V23.264ZM280.275 28.416H290.243V31.72H280.275V28.416ZM285.147 25.56C283.663 27.772 280.751 30.404 277.755 31.832C277.363 30.852 276.551 29.34 275.879 28.472C278.903 27.212 281.815 24.412 283.187 22.088H286.855C288.787 24.72 291.559 26.988 294.443 27.996C293.687 28.948 292.903 30.432 292.371 31.58C289.711 30.292 286.687 27.772 285.147 25.56ZM281.423 36.032V37.824H289.095V36.032H281.423ZM277.923 32.98H292.735V40.904H277.923V32.98ZM283.355 30.544H286.995V37.544C286.995 41.744 285.623 46.504 278.147 48.828C277.783 48.016 276.663 46.448 275.991 45.804C282.711 43.788 283.355 40.624 283.355 37.432V30.544ZM287.163 39.14C288.983 43.368 291.279 44.572 294.247 45.412C293.323 46.252 292.343 47.596 291.923 48.772C288.423 47.428 285.763 45.468 283.747 39.868L287.163 39.14ZM308.163 28.444C309.787 28.612 311.467 28.696 313.175 28.696C316.619 28.696 320.147 28.388 323.115 27.744V31.972C320.203 32.392 316.619 32.616 313.203 32.644C311.523 32.644 309.843 32.588 308.191 32.476L308.163 28.444ZM319.307 23.88C319.223 24.412 319.167 25.14 319.139 25.756C319.083 26.624 319.027 28.5 319.027 30.74C319.027 36.368 319.475 39.588 319.475 42.108C319.475 45.412 317.795 47.512 313.623 47.512C309.675 47.512 307.071 45.832 307.071 42.668C307.071 39.532 309.647 37.516 313.567 37.516C319.139 37.516 322.583 40.288 324.683 42.248L322.387 45.804C318.999 42.64 316.199 40.792 313.231 40.792C311.915 40.792 311.047 41.296 311.047 42.192C311.047 43.172 312.027 43.508 313.231 43.508C314.575 43.508 315.107 42.78 315.107 41.24C315.107 39.364 314.743 34.968 314.743 30.74C314.743 28.5 314.715 26.568 314.687 25.812C314.687 25.392 314.575 24.468 314.463 23.88H319.307ZM305.727 24.244C305.475 24.86 305.083 26.596 304.971 27.1C304.635 28.556 303.655 35.08 303.655 37.684C303.655 37.768 303.655 38.216 303.683 38.328C304.019 37.516 304.383 36.984 304.747 36.144L306.791 37.796C305.951 40.316 305.111 43.144 304.775 44.768C304.691 45.16 304.607 45.804 304.607 46.084C304.607 46.392 304.607 46.896 304.635 47.344L300.799 47.624C300.211 45.72 299.651 42.444 299.651 38.636C299.651 34.352 300.435 29.088 300.743 27.016C300.855 26.176 301.023 24.888 301.051 23.852L305.727 24.244Z" fill="#1492D9"/>
<path d="M341.299 23.46C343.259 24.524 346.255 26.4 347.851 27.492L345.331 31.244C343.651 30.124 340.795 28.304 338.835 27.212L341.299 23.46ZM335.559 43.256C338.723 42.724 341.999 41.884 345.163 40.176C349.979 37.516 354.011 33.568 356.223 29.536L358.827 34.184C356.139 38.132 352.135 41.632 347.487 44.292C344.631 45.888 340.515 47.344 338.107 47.736L335.559 43.256ZM336.931 29.9C338.947 30.964 341.915 32.84 343.483 33.932L340.991 37.74C339.283 36.564 336.455 34.716 334.467 33.652L336.931 29.9ZM376.025 23.292C375.942 23.964 375.857 25.252 375.83 25.924C375.521 36.9 373.17 42.808 366.589 47.54L362.641 44.348C363.957 43.62 365.497 42.584 366.785 41.24C370.537 37.348 371.265 32.56 371.265 26.008C371.265 25.392 371.153 23.964 371.042 23.292H376.025ZM385.406 29.396C385.321 29.844 385.209 30.656 385.209 30.936C385.098 34.156 384.734 41.8 383.558 44.74C382.942 46.28 381.766 47.148 379.637 47.148C377.902 47.148 376.222 47.008 374.906 46.896L374.373 42.36C375.69 42.612 377.118 42.78 378.181 42.78C379.133 42.78 379.442 42.444 379.722 41.744C380.393 40.204 380.785 35.332 380.785 32.28H367.737C366.869 32.28 365.077 32.308 363.789 32.42V27.996C365.077 28.136 366.673 28.22 367.737 28.22H380.198C380.898 28.22 381.738 28.136 382.522 27.996L385.406 29.396ZM415.271 28.64C414.907 29.256 414.459 30.096 414.179 30.936C413.423 33.26 411.911 36.956 409.335 40.12C406.619 43.452 403.231 46.028 397.967 48.184L393.935 44.6C399.983 42.752 402.895 40.372 405.275 37.712C407.039 35.752 408.607 32.532 408.971 30.712H400.067L401.579 26.876C402.895 26.876 408.159 26.876 409.055 26.876C409.979 26.876 411.099 26.736 411.827 26.512L415.271 28.64ZM406.283 24.104C405.499 25.224 404.659 26.68 404.295 27.324C402.279 30.88 398.695 34.8 394.943 37.404L391.135 34.576C396.091 31.524 398.359 28.164 399.843 25.812C400.347 25.028 401.019 23.572 401.327 22.48L406.283 24.104Z" fill="#1492D9"/>
<defs>
<filter id="filter0_d_956_27055" x="430" y="38" width="228" height="235.109" filterUnits="userSpaceOnUse" color-interpolation-filters="sRGB">
<feFlood flood-opacity="0" result="BackgroundImageFix"/>
<feColorMatrix in="SourceAlpha" type="matrix" values="0 0 0 0 0 0 0 0 0 0 0 0 0 0 0 0 0 0 127 0" result="hardAlpha"/>
<feOffset dy="2"/>
<feGaussianBlur stdDeviation="7"/>
<feComposite in2="hardAlpha" operator="out"/>
<feColorMatrix type="matrix" values="0 0 0 0 0 0 0 0 0 0 0 0 0 0 0 0 0 0 0.03 0"/>
<feBlend mode="normal" in2="BackgroundImageFix" result="effect1_dropShadow_956_27055"/>
<feBlend mode="normal" in="SourceGraphic" in2="effect1_dropShadow_956_27055" result="shape"/>
</filter>
</defs>
</svg>
