<svg width="660" height="304" viewBox="0 0 660 304" fill="none" xmlns="http://www.w3.org/2000/svg">
<path d="M619.999 81L620 269H40L619.999 81Z" fill="#F5EBE2"/>
<path d="M238 205L242 211H234L238 205Z" fill="#E57512"/>
<path d="M238 269L234 263L242 263L238 269Z" fill="#E57512"/>
<rect x="237" y="211" width="2" height="53" fill="#E57512"/>
<path d="M620 277L614 281L614 273L620 277Z" fill="#837978"/>
<rect x="614" y="276" width="2.00003" height="574" transform="rotate(90 614 276)" fill="#837978"/>
<path d="M256.672 239.088L255.584 240.576C255.408 240.208 255.072 239.664 254.736 239.136V245.376H252.88V239.824C252.384 240.976 251.808 242.032 251.216 242.8C251.04 242.256 250.64 241.472 250.336 240.992C251.248 239.936 252.16 238.16 252.752 236.576H250.752V234.8H252.88V233.008C252.256 233.104 251.648 233.184 251.072 233.248C250.992 232.848 250.752 232.192 250.544 231.792C252.272 231.552 254.16 231.12 255.36 230.608L256.624 232.064C256.048 232.288 255.408 232.48 254.736 232.64V234.8H256.224V234.528H259.84V233.984H257.008V232.88H259.84V232.336H256.72V231.184H259.84V230.464H261.744V231.184H265.056V232.336H261.744V232.88H264.688V233.984H261.744V234.528H265.376V235.712H256.32V236.576H254.736V237.088C255.248 237.568 256.4 238.752 256.672 239.088ZM258.912 240.96V241.632H262.8V240.96H258.912ZM258.912 239.184V239.872H262.8V239.184H258.912ZM258.912 237.424V238.096H262.8V237.424H258.912ZM264.608 242.816H262.896C263.872 243.392 264.976 244.064 265.616 244.512L263.952 245.408C263.36 244.912 262.256 244.128 261.312 243.536L262.304 242.816H259.392L260.464 243.52C259.488 244.272 257.904 245.04 256.624 245.456C256.336 245.12 255.808 244.608 255.456 244.272C256.544 243.952 257.808 243.36 258.608 242.816H257.216V236.256H264.608V242.816ZM281.44 233.248V235.12H267.936V233.248H273.616V230.464H275.6V233.248H281.44ZM273.312 241.856L271.36 242.368C271.248 240.704 270.688 238.144 269.984 236.192L271.808 235.712C272.56 237.68 273.152 240.16 273.312 241.856ZM277.408 242.864H281.904V244.768H267.424V242.864H275.392C276.112 240.928 276.88 237.952 277.216 235.648L279.408 236.048C278.848 238.4 278.096 240.992 277.408 242.864ZM296.368 236.176V235.2H293.2V236.176H296.368ZM296.368 238.464V237.488H293.2V238.464H296.368ZM296.368 240.8V239.808H293.2V240.8H296.368ZM291.488 233.776H293.504C293.568 233.424 293.632 233.04 293.696 232.688H291.008V231.072H298.48V232.688H295.712C295.584 233.072 295.456 233.44 295.328 233.776H298.16V242.208H291.488V233.776ZM285.552 233.248V234.352H284.016V231.776H286.576V230.48H288.352V231.776H290.96V234.352H289.376V233.248H285.552ZM288.432 242.992V241.52H286.496V242.992H288.432ZM286.528 240.048H289.232C288.832 239.728 288.352 239.376 287.872 239.008C287.44 239.392 286.992 239.744 286.528 240.048ZM288.448 235.792H286.896C286.784 235.936 286.672 236.064 286.56 236.208L287.664 236.928C287.968 236.576 288.224 236.192 288.448 235.792ZM290.048 240.72V244.032C291.104 243.6 292.224 242.864 292.8 242.272L294.336 243.232C293.504 244.048 292.096 244.896 290.928 245.36C290.72 245.104 290.368 244.752 290.048 244.448H286.496V245.088H284.896V240.944L284.56 241.088C284.352 240.672 283.936 240.032 283.6 239.728C284.656 239.36 285.664 238.784 286.544 238.048L285.488 237.312C285.264 237.504 285.04 237.696 284.8 237.856C284.544 237.552 283.952 236.976 283.6 236.752C284.848 235.968 285.952 234.752 286.528 233.408L288.08 233.792C287.968 234.048 287.856 234.288 287.712 234.528H289.2L289.488 234.448L290.56 234.944C290.192 236.032 289.648 236.992 288.976 237.824C289.84 238.4 290.624 238.976 291.152 239.424L290.08 240.752L290.048 240.72ZM295.04 243.216L296.416 242.352C297.264 242.944 298.432 243.824 299.008 244.432L297.536 245.408C297.024 244.8 295.904 243.856 295.04 243.216Z" fill="#E57512"/>
<path d="M552.976 291.872V293.376H551.312V290.272H554.336V288.448H556.192V290.272H559.28V293.376H557.536V291.872H552.976ZM549.04 292.032V290.576H547.056V292.032H549.04ZM549.04 294.928V293.44H547.056V294.928H549.04ZM549.04 297.824V296.336H547.056V297.824H549.04ZM550.848 289.072V299.344H545.344V289.072H550.848ZM546.224 299.472L548.016 299.888C547.52 301.232 546.704 302.592 545.872 303.424C545.536 303.12 544.784 302.624 544.368 302.384C545.168 301.664 545.856 300.56 546.224 299.472ZM548.32 300.08L549.824 299.424C550.496 300.224 551.168 301.28 551.456 302.032L549.856 302.8C549.616 302.064 548.96 300.912 548.32 300.08ZM559.44 294.288V296.032H556.24V301.424C556.24 302.32 556.08 302.784 555.472 303.072C554.88 303.344 554.048 303.376 552.928 303.376C552.848 302.864 552.608 302.112 552.336 301.616C553.056 301.648 553.84 301.648 554.064 301.648C554.288 301.648 554.368 301.584 554.368 301.376V296.032H551.2V294.288H559.44ZM564.896 291.744V290.8H561.568V289.296H564.896V288.448H566.768V289.296H570.416V288.448H572.288V289.296H575.744V290.8H572.288V291.744H570.416V290.8H566.768V291.744H564.896ZM567.808 299.2H564.864V299.888H567.808V299.2ZM572.496 299.888V299.2H569.488V299.888H572.496ZM569.488 301.712H572.496V300.96H569.488V301.712ZM564.864 301.712H567.808V300.96H564.864V301.712ZM562.992 303.36V297.968H574.464V303.36H572.496V302.912H564.864V303.36H562.992ZM569.968 293.68H568.128C567.6 294.112 567.024 294.528 566.512 294.88C566.864 295.056 567.2 295.248 567.504 295.424C568.4 294.864 569.296 294.24 569.968 293.68ZM571.424 294.976L572.864 294.224C574.096 294.96 575.488 296.128 576.192 296.912L574.704 297.84C574.544 297.648 574.352 297.424 574.128 297.2C569.6 297.328 564.752 297.424 561.584 297.472L561.52 295.952C562.608 295.952 563.888 295.936 565.296 295.92C564.624 295.552 563.872 295.2 563.2 294.944L564.336 293.92C564.608 294.016 564.896 294.144 565.184 294.256C565.408 294.08 565.648 293.872 565.888 293.68H561.696V292.176H567.696V291.36H569.568V292.176H575.664V293.68H570.592L571.728 294.24C570.976 294.8 570.096 295.36 569.216 295.872L572.576 295.824C572.192 295.52 571.792 295.216 571.424 294.976ZM580.96 296.848V297.936H582.944V296.848H580.96ZM582.944 292H580.96V292.928H582.944V292ZM580.96 294.384V295.392H582.944V294.384H580.96ZM585.664 297.936V299.6H577.808V297.936H579.248V292H578V290.336H579.248V288.64H580.96V290.336H582.944V288.64H584.688V290.336H585.776V292H584.688V297.936H585.664ZM579.792 299.712L581.568 300.24C581.008 301.408 580.064 302.656 579.2 303.44C578.848 303.104 578.112 302.56 577.68 302.304C578.512 301.68 579.344 300.672 579.792 299.712ZM588.08 296.4H590.4V294.432H588.096V295.024C588.096 295.44 588.096 295.904 588.08 296.4ZM590.4 290.88H588.096V292.752H590.4V290.88ZM592.24 289.152V301.28C592.24 302.224 592.064 302.72 591.504 303.024C590.944 303.328 590.128 303.376 588.944 303.36C588.88 302.864 588.64 302.032 588.4 301.552C589.088 301.6 589.856 301.584 590.08 301.584C590.32 301.584 590.4 301.504 590.4 301.248V298.096H587.968C587.792 299.984 587.392 301.984 586.528 303.424C586.224 303.088 585.44 302.512 585.024 302.352C585.072 302.256 585.136 302.176 585.184 302.08L583.856 302.832C583.536 302.208 582.768 301.152 582.144 300.416L583.584 299.632C584.16 300.272 584.912 301.152 585.312 301.808C586.24 299.808 586.32 297.104 586.32 295.024V289.152H592.24ZM599.568 290.432H597.104V291.28H599.568V290.432ZM597.104 293.472H599.568V292.56H597.104V293.472ZM601.344 294.832H597.104V303.392H595.216V289.056H601.344V294.832ZM604.256 293.504H606.8V292.56H604.256V293.504ZM606.8 290.432H604.256V291.28H606.8V290.432ZM600.56 300.512H603.2V299.52H600.56V300.512ZM603.2 298.16V297.2H600.56V298.16H603.2ZM608.72 289.056V301.136C608.72 302.16 608.512 302.72 607.872 303.024C607.248 303.344 606.32 303.392 604.944 303.392C604.896 302.992 604.72 302.4 604.528 301.904H600.56V302.72H598.832V295.808H599.616V295.792L604.992 295.808V301.472C605.616 301.488 606.208 301.488 606.416 301.472C606.704 301.472 606.8 301.376 606.8 301.12V294.864H602.448V289.056H608.72Z" fill="#4A3E42"/>
<g filter="url(#filter0_d_956_27032)">
<path fill-rule="evenodd" clip-rule="evenodd" d="M127.356 249.362C177.237 243.724 216 201.389 216 150C216 94.7715 171.228 50 116 50C60.7715 50 16 94.7715 16 150C16 205.228 60.7715 250 116 250C117.289 250 118.572 249.976 119.849 249.927L131.45 257.109L127.356 249.362Z" fill="white"/>
<path d="M70.4917 113.108H78.4477V114.304H71.7397V130.034H70.4917V113.108ZM96.1017 118.542V120.986H93.3977V115.942H98.3117V112.978H101.328V115.942H106.346V120.986H103.512V118.542H96.1017ZM89.7057 118.802V116.436H86.4817V118.802H89.7057ZM89.7057 123.508V121.09H86.4817V123.508H89.7057ZM89.7057 128.214V125.796H86.4817V128.214H89.7057ZM92.6437 113.992V130.684H83.6997V113.992H92.6437ZM85.1297 130.892L88.0417 131.568C87.2357 133.752 85.9097 135.962 84.5577 137.314C84.0117 136.82 82.7897 136.014 82.1137 135.624C83.4137 134.454 84.5317 132.66 85.1297 130.892ZM88.5357 131.88L90.9797 130.814C92.0717 132.114 93.1637 133.83 93.6317 135.052L91.0317 136.3C90.6417 135.104 89.5757 133.232 88.5357 131.88ZM106.606 122.468V125.302H101.406V134.064C101.406 135.52 101.146 136.274 100.158 136.742C99.1957 137.184 97.8437 137.236 96.0237 137.236C95.8937 136.404 95.5037 135.182 95.0617 134.376C96.2317 134.428 97.5057 134.428 97.8697 134.428C98.2337 134.428 98.3637 134.324 98.3637 133.986V125.302H93.2157V122.468H106.606ZM116.512 118.334V116.8H111.104V114.356H116.512V112.978H119.554V114.356H125.482V112.978H128.524V114.356H134.14V116.8H128.524V118.334H125.482V116.8H119.554V118.334H116.512ZM121.244 130.45H116.46V131.568H121.244V130.45ZM128.862 131.568V130.45H123.974V131.568H128.862ZM123.974 134.532H128.862V133.31H123.974V134.532ZM116.46 134.532H121.244V133.31H116.46V134.532ZM113.418 137.21V128.448H132.06V137.21H128.862V136.482H116.46V137.21H113.418ZM124.754 121.48H121.764C120.906 122.182 119.97 122.858 119.138 123.43C119.71 123.716 120.256 124.028 120.75 124.314C122.206 123.404 123.662 122.39 124.754 121.48ZM127.12 123.586L129.46 122.364C131.462 123.56 133.724 125.458 134.868 126.732L132.45 128.24C132.19 127.928 131.878 127.564 131.514 127.2C124.156 127.408 116.278 127.564 111.13 127.642L111.026 125.172C112.794 125.172 114.874 125.146 117.162 125.12C116.07 124.522 114.848 123.95 113.756 123.534L115.602 121.87C116.044 122.026 116.512 122.234 116.98 122.416C117.344 122.13 117.734 121.792 118.124 121.48H111.312V119.036H121.062V117.71H124.104V119.036H134.01V121.48H125.768L127.614 122.39C126.392 123.3 124.962 124.21 123.532 125.042L128.992 124.964C128.368 124.47 127.718 123.976 127.12 123.586ZM146.594 137.158H138.638V135.962H145.346V120.232H146.594V137.158Z" fill="#E57512"/>
<path d="M159.392 133.18C159.392 133.754 159.952 133.992 160.694 133.992C161.548 133.992 161.842 133.544 161.842 132.718C161.842 132.648 161.842 132.564 161.842 132.466C161.478 132.368 161.1 132.312 160.722 132.312C159.924 132.312 159.392 132.648 159.392 133.18ZM163.55 124.038C163.508 124.304 163.48 124.64 163.466 124.948C163.452 125.256 163.438 125.774 163.424 126.39C164.194 126.32 164.922 126.208 165.594 126.068V127.818C164.922 127.916 164.194 128 163.424 128.056C163.452 129.414 163.522 130.534 163.578 131.486C164.74 131.962 165.622 132.676 166.294 133.292L165.328 134.762C164.74 134.216 164.18 133.726 163.62 133.348C163.536 134.692 162.78 135.644 160.89 135.644C158.958 135.644 157.754 134.832 157.754 133.362C157.754 131.948 158.958 130.968 160.862 130.968C161.184 130.968 161.492 130.982 161.772 131.024C161.744 130.156 161.688 129.134 161.674 128.14C161.338 128.154 161.002 128.154 160.68 128.154C159.854 128.154 159.056 128.126 158.23 128.07V126.404C159.028 126.488 159.84 126.53 160.68 126.53C161.002 126.53 161.338 126.53 161.66 126.516C161.66 125.83 161.646 125.256 161.646 124.962C161.646 124.752 161.604 124.318 161.548 124.038H163.55ZM156.718 124.192C156.606 124.472 156.438 125.186 156.396 125.438C156.186 126.376 155.724 129.456 155.724 130.856C155.724 131.136 155.738 131.486 155.78 131.766C155.962 131.276 156.2 130.8 156.41 130.324L157.264 131.024C156.872 132.172 156.424 133.6 156.256 134.356C156.214 134.552 156.186 134.86 156.186 135.014C156.186 135.154 156.2 135.392 156.214 135.588L154.632 135.714C154.338 134.734 154.072 133.138 154.072 131.234C154.072 129.12 154.492 126.474 154.646 125.396C154.702 125.004 154.772 124.472 154.786 124.024L156.718 124.192ZM41.0269 149.36L40.2709 150.62C39.6269 150.27 38.3109 149.766 37.3449 149.486L38.0729 148.352C38.9969 148.576 40.3269 149.024 41.0269 149.36ZM40.2289 157.256V157.872H46.2909V157.256H40.2289ZM40.2289 155.716V156.318H46.2909V155.716H40.2289ZM40.2289 154.176V154.778H46.2909V154.176H40.2289ZM42.4969 153.182H47.2009C46.1229 152.79 45.4789 152.272 45.0589 151.67C44.5689 152.328 43.7849 152.818 42.4969 153.182ZM47.9849 158.866H45.5629C46.9909 159.37 48.6009 160.042 49.5529 160.504L47.6209 161.246C46.8229 160.784 45.3949 160.126 43.9809 159.594L45.2409 158.866H41.1529L42.4269 159.426C41.2649 160.182 39.4729 160.868 38.0589 161.26C37.7649 160.938 37.1769 160.336 36.8269 160.042C38.1849 159.79 39.7109 159.342 40.6769 158.866H38.6189V153.182H41.5449C41.3769 152.846 41.1109 152.44 40.8869 152.216L40.9009 152.272C39.6969 152.622 38.3949 153 37.3449 153.294L36.7289 151.838C37.7649 151.642 39.2629 151.292 40.7469 150.942L40.8869 152.202C43.1129 151.838 43.8549 151.236 44.1629 150.242H43.1549C42.8329 150.634 42.4689 151.012 42.0349 151.362C41.7409 151.068 41.1669 150.732 40.7889 150.578C41.7969 149.878 42.4829 148.954 42.8469 148.142L44.3169 148.38C44.2049 148.618 44.0929 148.842 43.9529 149.066H48.0829L48.3349 149.024L49.4409 149.304C49.0769 150.06 48.5729 150.9 48.1109 151.418L46.8229 151.012C46.9909 150.802 47.1869 150.536 47.3689 150.242H45.8149C46.1089 151.138 46.9069 151.908 49.7349 152.244C49.4269 152.552 49.0629 153.196 48.9089 153.602C48.5729 153.546 48.2649 153.49 47.9849 153.42V158.866ZM57.3649 156.584H55.3349C55.8669 157.298 56.4129 158.25 56.6229 158.894L55.4749 159.384H57.3649V156.584ZM55.7829 152.314H60.8369C59.8009 151.474 58.8769 150.564 58.2609 149.724C57.6589 150.564 56.7909 151.474 55.7829 152.314ZM61.0609 156.584L62.6569 157.172C62.1249 157.942 61.5789 158.796 61.0889 159.384H64.2529V160.812H52.4089V159.384H55.1389C54.9289 158.754 54.4669 157.816 53.9769 157.13L55.2509 156.584H53.1089V155.156H57.3649V153.77H54.7889V153.084C54.1309 153.56 53.4169 154.008 52.7029 154.386C52.4929 153.994 52.0309 153.392 51.6669 153.042C54.0469 151.88 56.2869 149.78 57.3229 148.1H59.0449C60.5569 150.214 62.8109 151.978 65.0229 152.874C64.6029 153.294 64.2249 153.854 63.9169 154.372C63.2169 154.008 62.4889 153.546 61.7889 153.042V153.77H59.1149V155.156H63.4269V156.584H59.1149V159.384H60.6409L59.7309 159.006C60.1929 158.348 60.7529 157.326 61.0609 156.584ZM72.8479 149.038C72.7639 149.402 72.6659 149.85 72.5959 150.2C72.5119 150.62 72.3999 151.138 72.3019 151.642C72.7779 151.614 73.1839 151.586 73.4779 151.586C74.9619 151.586 76.0119 152.244 76.0119 154.26C76.0119 155.912 75.8159 158.18 75.2139 159.398C74.7519 160.378 73.9819 160.686 72.9179 160.686C72.3859 160.686 71.7139 160.588 71.2379 160.49L70.9439 158.642C71.4759 158.796 72.2879 158.936 72.6519 158.936C73.1279 158.936 73.4779 158.796 73.7019 158.334C74.0799 157.536 74.2759 155.842 74.2759 154.456C74.2759 153.336 73.7859 153.182 72.9179 153.182C72.6939 153.182 72.3439 153.21 71.9379 153.238C71.4059 155.366 70.3699 158.684 69.0819 160.742L67.2619 160.014C68.6199 158.18 69.5859 155.352 70.1039 153.434C69.5999 153.49 69.1519 153.546 68.8999 153.574C68.4939 153.644 67.7659 153.742 67.3319 153.812L67.1639 151.908C67.6819 151.95 68.1439 151.922 68.6619 151.908C69.0959 151.894 69.7539 151.852 70.4679 151.782C70.6639 150.732 70.7899 149.71 70.7619 148.828L72.8479 149.038ZM79.0779 147.876C79.4419 148.408 79.9599 149.29 80.1979 149.78L79.0919 150.256C78.7979 149.682 78.3499 148.856 77.9579 148.324L79.0779 147.876ZM77.4119 148.506C77.7619 149.024 78.2659 149.906 78.5319 150.424L77.8459 150.718C78.6859 152.02 79.7359 154.358 80.1279 155.604L78.3499 156.416C77.9859 154.862 76.9919 152.398 75.9979 151.166L77.2579 150.62C76.9779 150.088 76.6279 149.416 76.3059 148.968L77.4119 148.506ZM87.3539 155.702L86.4019 157.004C86.2479 156.682 85.9539 156.206 85.6599 155.744V161.204H84.0359V156.346C83.6019 157.354 83.0979 158.278 82.5799 158.95C82.4259 158.474 82.0759 157.788 81.8099 157.368C82.6079 156.444 83.4059 154.89 83.9239 153.504H82.1739V151.95H84.0359V150.382C83.4899 150.466 82.9579 150.536 82.4539 150.592C82.3839 150.242 82.1739 149.668 81.9919 149.318C83.5039 149.108 85.1559 148.73 86.2059 148.282L87.3119 149.556C86.8079 149.752 86.2479 149.92 85.6599 150.06V151.95H86.9619V151.712H90.1259V151.236H87.6479V150.27H90.1259V149.794H87.3959V148.786H90.1259V148.156H91.7919V148.786H94.6899V149.794H91.7919V150.27H94.3679V151.236H91.7919V151.712H94.9699V152.748H87.0459V153.504H85.6599V153.952C86.1079 154.372 87.1159 155.408 87.3539 155.702ZM89.3139 157.34V157.928H92.7159V157.34H89.3139ZM89.3139 155.786V156.388H92.7159V155.786H89.3139ZM89.3139 154.246V154.834H92.7159V154.246H89.3139ZM94.2979 158.964H92.7999C93.6539 159.468 94.6199 160.056 95.1799 160.448L93.7239 161.232C93.2059 160.798 92.2399 160.112 91.4139 159.594L92.2819 158.964H89.7339L90.6719 159.58C89.8179 160.238 88.4319 160.91 87.3119 161.274C87.0599 160.98 86.5979 160.532 86.2899 160.238C87.2419 159.958 88.3479 159.44 89.0479 158.964H87.8299V153.224H94.2979V158.964ZM99.6319 149.402C100.01 149.444 100.486 149.472 100.794 149.472C101.592 149.472 103.076 149.402 103.734 149.346C104.084 149.332 104.448 149.248 104.686 149.15L105.806 150.018C105.61 150.228 105.442 150.41 105.33 150.606C104.966 151.208 104.434 152.426 103.93 153.616C105.022 153.784 106.058 154.12 106.968 154.512C106.982 154.344 106.996 154.19 107.01 154.036C107.052 153.49 107.052 152.93 107.01 152.51L108.844 152.72C108.788 153.658 108.718 154.526 108.578 155.31C109.166 155.646 109.67 155.968 110.076 156.248L109.264 158.194C108.9 157.858 108.494 157.536 108.06 157.214C107.444 158.796 106.38 160.028 104.504 161.008L103.02 159.79C105.134 158.88 106.114 157.55 106.576 156.276C105.582 155.73 104.462 155.31 103.258 155.142C102.754 156.332 102.166 157.732 101.676 158.502C101.116 159.342 100.444 159.734 99.4919 159.734C98.2599 159.734 97.3359 158.88 97.3359 157.466C97.3359 155.296 99.3099 153.644 102.124 153.518C102.516 152.594 102.922 151.642 103.244 150.984C102.684 151.012 101.48 151.054 100.836 151.096C100.556 151.11 100.066 151.152 99.7019 151.208L99.6319 149.402ZM98.9739 157.2C98.9739 157.662 99.2399 157.9 99.5619 157.9C99.8419 157.9 100.038 157.76 100.29 157.41C100.654 156.892 101.032 156.01 101.424 155.128C99.8559 155.366 98.9739 156.318 98.9739 157.2ZM118.944 158.852H124.866V160.532H112.14V158.852H117.152V148.31H118.944V152.314H123.886V154.008H118.944V158.852ZM133.027 149.038C132.943 149.402 132.845 149.85 132.775 150.2C132.691 150.62 132.579 151.138 132.481 151.642C132.957 151.614 133.363 151.586 133.657 151.586C135.141 151.586 136.191 152.244 136.191 154.26C136.191 155.912 135.995 158.18 135.393 159.398C134.931 160.378 134.161 160.686 133.097 160.686C132.565 160.686 131.893 160.588 131.417 160.49L131.123 158.642C131.655 158.796 132.467 158.936 132.831 158.936C133.307 158.936 133.657 158.796 133.881 158.334C134.259 157.536 134.455 155.842 134.455 154.456C134.455 153.336 133.965 153.182 133.097 153.182C132.873 153.182 132.523 153.21 132.117 153.238C131.585 155.366 130.549 158.684 129.261 160.742L127.441 160.014C128.799 158.18 129.765 155.352 130.283 153.434C129.779 153.49 129.331 153.546 129.079 153.574C128.673 153.644 127.945 153.742 127.511 153.812L127.343 151.908C127.861 151.95 128.323 151.922 128.841 151.908C129.275 151.894 129.933 151.852 130.647 151.782C130.843 150.732 130.969 149.71 130.941 148.828L133.027 149.038ZM139.257 147.876C139.621 148.408 140.139 149.29 140.377 149.78L139.271 150.256C138.977 149.682 138.529 148.856 138.137 148.324L139.257 147.876ZM137.591 148.506C137.941 149.024 138.445 149.906 138.711 150.424L138.025 150.718C138.865 152.02 139.915 154.358 140.307 155.604L138.529 156.416C138.165 154.862 137.171 152.398 136.177 151.166L137.437 150.62C137.157 150.088 136.807 149.416 136.485 148.968L137.591 148.506ZM146.745 158.348C146.745 158.866 147.319 159.216 148.159 159.216C148.453 159.216 148.719 159.202 148.971 159.174C148.887 158.264 148.369 157.676 147.613 157.676C147.081 157.676 146.745 157.998 146.745 158.348ZM144.365 149.332C144.757 149.388 145.247 149.402 145.639 149.402C146.381 149.402 149.377 149.346 150.175 149.276C150.749 149.22 151.071 149.178 151.239 149.122L152.149 150.368C151.827 150.578 151.491 150.774 151.169 151.012C150.413 151.544 148.943 152.776 148.061 153.476C148.523 153.364 148.943 153.322 149.391 153.322C151.771 153.322 153.577 154.806 153.577 156.85C153.577 159.062 151.897 160.812 148.509 160.812C146.563 160.812 145.093 159.916 145.093 158.516C145.093 157.382 146.115 156.332 147.599 156.332C149.335 156.332 150.385 157.396 150.581 158.726C151.351 158.32 151.743 157.676 151.743 156.822C151.743 155.562 150.483 154.708 148.831 154.708C146.689 154.708 145.289 155.842 143.791 157.55L142.517 156.234C143.511 155.436 145.205 154.008 146.031 153.322C146.815 152.678 148.271 151.502 148.957 150.9C148.243 150.914 146.311 150.998 145.569 151.04C145.191 151.068 144.743 151.11 144.421 151.152L144.365 149.332ZM159.014 158.418C159.014 158.95 159.518 159.272 160.484 159.272C161.226 159.272 161.716 159.062 161.716 158.25C161.716 158.096 161.716 157.9 161.702 157.648C161.324 157.592 160.946 157.55 160.554 157.55C159.56 157.55 159.014 157.942 159.014 158.418ZM163.396 148.674C163.354 148.954 163.326 149.304 163.312 149.668C163.298 149.808 163.298 150.018 163.298 150.242C164.446 150.186 165.608 150.074 166.84 149.864L166.826 151.474C165.902 151.586 164.628 151.712 163.27 151.782C163.27 152.272 163.27 152.79 163.27 153.224C164.684 153.154 165.874 153.042 167.008 152.888L166.994 154.54C165.734 154.68 164.642 154.778 163.298 154.82C163.326 155.352 163.354 155.926 163.396 156.486C165.16 156.99 166.504 157.928 167.316 158.6L166.308 160.168C165.552 159.468 164.6 158.726 163.48 158.222C163.494 158.418 163.494 158.586 163.494 158.74C163.494 159.93 162.584 160.854 160.736 160.854C158.496 160.854 157.32 160 157.32 158.516C157.32 157.102 158.622 156.108 160.778 156.108C161.072 156.108 161.366 156.122 161.646 156.15C161.618 155.716 161.604 155.268 161.59 154.848C161.352 154.848 161.114 154.848 160.862 154.848C160.05 154.848 158.454 154.778 157.53 154.666L157.516 153.014C158.426 153.182 160.148 153.28 160.89 153.28C161.114 153.28 161.338 153.28 161.562 153.28C161.562 152.818 161.562 152.314 161.576 151.838C161.394 151.838 161.226 151.838 161.058 151.838C160.176 151.838 158.552 151.712 157.628 151.586L157.586 149.99C158.594 150.158 160.19 150.298 161.044 150.298C161.226 150.298 161.408 150.298 161.59 150.298C161.59 150.032 161.59 149.808 161.59 149.64C161.59 149.374 161.562 148.94 161.506 148.674H163.396ZM169.784 150.396C170.344 150.382 170.89 150.354 171.156 150.326C172.332 150.228 174.642 150.018 177.204 149.808C178.646 149.682 180.172 149.598 181.166 149.556L181.18 151.348C180.424 151.362 179.22 151.362 178.478 151.544C176.784 151.992 175.51 153.798 175.51 155.464C175.51 157.774 177.666 158.6 180.046 158.726L179.388 160.644C176.448 160.448 173.676 158.88 173.676 155.842C173.676 153.826 174.81 152.23 175.762 151.516C174.446 151.656 171.59 151.964 169.966 152.314L169.784 150.396ZM179.178 152.72C179.528 153.224 180.032 154.078 180.298 154.624L179.234 155.1C178.884 154.33 178.59 153.784 178.142 153.154L179.178 152.72ZM180.746 152.076C181.096 152.566 181.628 153.392 181.922 153.938L180.872 154.442C180.494 153.686 180.172 153.168 179.724 152.552L180.746 152.076ZM189.485 150.214C191.207 150.452 193.993 150.382 195.505 150.2V152.006C193.783 152.16 191.249 152.174 189.485 152.006V150.214ZM190.605 156.192C190.493 156.654 190.437 156.99 190.437 157.368C190.437 157.984 190.969 158.362 192.397 158.362C193.643 158.362 194.679 158.25 195.911 157.998L195.939 159.888C195.029 160.056 193.909 160.154 192.327 160.154C189.919 160.154 188.757 159.3 188.757 157.858C188.757 157.312 188.841 156.752 188.995 156.038L190.605 156.192ZM187.329 149.276C187.217 149.57 187.035 150.27 186.979 150.522C186.797 151.46 186.307 154.26 186.307 155.66C186.307 155.926 186.321 156.29 186.363 156.57C186.573 156.094 186.797 155.604 186.993 155.142L187.861 155.828C187.469 156.99 187.007 158.516 186.853 159.258C186.811 159.468 186.783 159.776 186.783 159.916C186.783 160.07 186.797 160.294 186.811 160.49L185.187 160.602C184.907 159.636 184.641 157.928 184.641 156.024C184.641 153.924 185.075 151.558 185.229 150.48C185.271 150.088 185.355 149.556 185.369 149.108L187.329 149.276ZM60.0041 175.48H58.7161V177.944H60.0041V175.48ZM58.7161 182.032H60.0041V179.4H58.7161V182.032ZM61.5581 173.996V183.516H58.7161V184.748H57.1761V173.996H61.5581ZM62.3841 182.34L63.7141 181.57C64.3581 182.256 65.1141 183.18 65.4081 183.866L63.9801 184.692C63.7281 184.048 63.0141 183.054 62.3841 182.34ZM69.7901 178.756H68.3481V179.96H69.6921V181.402H68.3481V184.454C68.3481 185.252 68.1941 185.672 67.6481 185.924C67.1021 186.162 66.3461 186.204 65.3101 186.204C65.2541 185.742 65.0021 185.084 64.7781 184.636C65.4501 184.664 66.2341 184.664 66.4441 184.664C66.6681 184.664 66.7381 184.608 66.7381 184.412V181.402H61.8241V179.96H66.7381V178.756H61.7961V177.3H64.9601V176.068H62.2721V174.612H64.9601V173.142H66.5981V174.612H69.3981V176.068H66.5981V177.3H69.7901V178.756ZM76.3281 174.878H74.1721V175.62H76.3281V174.878ZM74.1721 177.538H76.3281V176.74H74.1721V177.538ZM77.8821 178.728H74.1721V186.218H72.5201V173.674H77.8821V178.728ZM80.4301 177.566H82.6561V176.74H80.4301V177.566ZM82.6561 174.878H80.4301V175.62H82.6561V174.878ZM77.1961 183.698H79.5061V182.83H77.1961V183.698ZM79.5061 181.64V180.8H77.1961V181.64H79.5061ZM84.3361 173.674V184.244C84.3361 185.14 84.1541 185.63 83.5941 185.896C83.0481 186.176 82.2361 186.218 81.0321 186.218C80.9901 185.868 80.8361 185.35 80.6681 184.916H77.1961V185.63H75.6841V179.582H76.3701V179.568L81.0741 179.582V184.538C81.6201 184.552 82.1381 184.552 82.3201 184.538C82.5721 184.538 82.6561 184.454 82.6561 184.23V178.756H78.8481V173.674H84.3361ZM92.9171 174.038C92.8331 174.402 92.7351 174.85 92.6651 175.2C92.5811 175.62 92.4691 176.138 92.3711 176.642C92.8471 176.614 93.2531 176.586 93.5471 176.586C95.0311 176.586 96.0811 177.244 96.0811 179.26C96.0811 180.912 95.8851 183.18 95.2831 184.398C94.8211 185.378 94.0511 185.686 92.9871 185.686C92.4551 185.686 91.7831 185.588 91.3071 185.49L91.0131 183.642C91.5451 183.796 92.3571 183.936 92.7211 183.936C93.1971 183.936 93.5471 183.796 93.7711 183.334C94.1491 182.536 94.3451 180.842 94.3451 179.456C94.3451 178.336 93.8551 178.182 92.9871 178.182C92.7631 178.182 92.4131 178.21 92.0071 178.238C91.4751 180.366 90.4391 183.684 89.1511 185.742L87.3311 185.014C88.6891 183.18 89.6551 180.352 90.1731 178.434C89.6691 178.49 89.2211 178.546 88.9691 178.574C88.5631 178.644 87.8351 178.742 87.4011 178.812L87.2331 176.908C87.7511 176.95 88.2131 176.922 88.7311 176.908C89.1651 176.894 89.8231 176.852 90.5371 176.782C90.7331 175.732 90.8591 174.71 90.8311 173.828L92.9171 174.038ZM99.1471 172.876C99.5111 173.408 100.029 174.29 100.267 174.78L99.1611 175.256C98.8671 174.682 98.4191 173.856 98.0271 173.324L99.1471 172.876ZM97.4811 173.506C97.8311 174.024 98.3351 174.906 98.6011 175.424L97.9151 175.718C98.7551 177.02 99.8051 179.358 100.197 180.604L98.4191 181.416C98.0551 179.862 97.0611 177.398 96.0671 176.166L97.3271 175.62C97.0471 175.088 96.6971 174.416 96.3751 173.968L97.4811 173.506ZM108.053 173.94C107.969 174.304 107.871 174.752 107.801 175.102C107.703 175.522 107.605 176.04 107.507 176.544C107.969 176.516 108.389 176.488 108.683 176.488C110.167 176.488 111.217 177.146 111.217 179.162C111.217 180.814 111.021 183.082 110.419 184.3C109.957 185.28 109.173 185.588 108.123 185.588C107.577 185.588 106.919 185.49 106.443 185.392L106.135 183.544C106.681 183.698 107.479 183.838 107.857 183.838C108.319 183.838 108.683 183.698 108.907 183.236C109.285 182.438 109.467 180.744 109.467 179.358C109.467 178.238 108.991 178.084 108.109 178.084C107.885 178.084 107.535 178.112 107.143 178.14C106.611 180.268 105.575 183.586 104.287 185.644L102.467 184.916C103.825 183.082 104.791 180.254 105.295 178.336C104.791 178.392 104.357 178.448 104.091 178.476C103.699 178.546 102.957 178.644 102.537 178.714L102.369 176.81C102.873 176.852 103.349 176.824 103.867 176.81C104.301 176.796 104.959 176.754 105.673 176.698C105.869 175.634 105.981 174.612 105.967 173.73L108.053 173.94ZM112.869 175.256C113.737 176.46 114.913 179.134 115.333 180.464L113.555 181.29C113.191 179.736 112.197 177.202 111.203 175.97L112.869 175.256ZM123.036 173.94C122.952 174.304 122.854 174.752 122.784 175.102C122.686 175.522 122.588 176.04 122.49 176.544C122.952 176.516 123.372 176.488 123.666 176.488C125.15 176.488 126.2 177.146 126.2 179.162C126.2 180.814 126.004 183.082 125.402 184.3C124.94 185.28 124.156 185.588 123.106 185.588C122.56 185.588 121.902 185.49 121.426 185.392L121.118 183.544C121.664 183.698 122.462 183.838 122.84 183.838C123.302 183.838 123.666 183.698 123.89 183.236C124.268 182.438 124.45 180.744 124.45 179.358C124.45 178.238 123.974 178.084 123.092 178.084C122.868 178.084 122.518 178.112 122.126 178.14C121.594 180.268 120.558 183.586 119.27 185.644L117.45 184.916C118.808 183.082 119.774 180.254 120.278 178.336C119.774 178.392 119.34 178.448 119.074 178.476C118.682 178.546 117.94 178.644 117.52 178.714L117.352 176.81C117.856 176.852 118.332 176.824 118.85 176.81C119.284 176.796 119.942 176.754 120.656 176.698C120.852 175.634 120.964 174.612 120.95 173.73L123.036 173.94ZM127.852 175.256C128.72 176.46 129.896 179.134 130.316 180.464L128.538 181.29C128.174 179.736 127.18 177.202 126.186 175.97L127.852 175.256ZM135.279 173.758C135.083 174.444 134.803 175.886 134.719 176.67C135.391 175.578 136.609 174.402 138.191 174.402C140.137 174.402 141.649 176.306 141.649 179.386C141.649 183.348 139.227 185.238 135.517 185.91L134.453 184.286C137.561 183.81 139.759 182.788 139.759 179.4C139.759 177.244 139.031 176.04 137.855 176.04C136.203 176.04 134.761 178.518 134.691 180.366C134.663 180.744 134.677 181.192 134.761 181.85L133.039 181.962C132.955 181.416 132.857 180.562 132.857 179.624C132.857 178.322 133.053 176.586 133.249 175.144C133.319 174.612 133.361 174.052 133.361 173.674L135.279 173.758ZM146.997 183.418C146.997 183.95 147.501 184.272 148.467 184.272C149.209 184.272 149.699 184.062 149.699 183.25C149.699 183.096 149.699 182.9 149.685 182.648C149.307 182.592 148.929 182.55 148.537 182.55C147.543 182.55 146.997 182.942 146.997 183.418ZM151.379 173.674C151.337 173.954 151.309 174.304 151.295 174.668C151.281 174.808 151.281 175.018 151.281 175.242C152.429 175.186 153.591 175.074 154.823 174.864L154.809 176.474C153.885 176.586 152.611 176.712 151.253 176.782C151.253 177.272 151.253 177.79 151.253 178.224C152.667 178.154 153.857 178.042 154.991 177.888L154.977 179.54C153.717 179.68 152.625 179.778 151.281 179.82C151.309 180.352 151.337 180.926 151.379 181.486C153.143 181.99 154.487 182.928 155.299 183.6L154.291 185.168C153.535 184.468 152.583 183.726 151.463 183.222C151.477 183.418 151.477 183.586 151.477 183.74C151.477 184.93 150.567 185.854 148.719 185.854C146.479 185.854 145.303 185 145.303 183.516C145.303 182.102 146.605 181.108 148.761 181.108C149.055 181.108 149.349 181.122 149.629 181.15C149.601 180.716 149.587 180.268 149.573 179.848C149.335 179.848 149.097 179.848 148.845 179.848C148.033 179.848 146.437 179.778 145.513 179.666L145.499 178.014C146.409 178.182 148.131 178.28 148.873 178.28C149.097 178.28 149.321 178.28 149.545 178.28C149.545 177.818 149.545 177.314 149.559 176.838C149.377 176.838 149.209 176.838 149.041 176.838C148.159 176.838 146.535 176.712 145.611 176.586L145.569 174.99C146.577 175.158 148.173 175.298 149.027 175.298C149.209 175.298 149.391 175.298 149.573 175.298C149.573 175.032 149.573 174.808 149.573 174.64C149.573 174.374 149.545 173.94 149.489 173.674H151.379ZM165.861 173.716C165.833 173.94 165.777 174.696 165.763 174.92C165.763 175.032 165.763 175.186 165.749 175.354C167.163 175.354 169.081 175.326 169.809 175.34L169.795 176.992C168.955 176.95 167.653 176.922 165.749 176.922C165.749 177.636 165.763 178.406 165.763 179.022C166.099 179.554 166.267 180.212 166.267 180.94C166.267 182.76 165.203 185.084 161.787 186.036L160.289 184.552C161.703 184.258 162.935 183.796 163.705 182.956C163.509 182.998 163.299 183.026 163.075 183.026C161.997 183.026 160.667 182.158 160.667 180.45C160.667 178.868 161.941 177.832 163.467 177.832C163.663 177.832 163.845 177.846 164.027 177.874C164.027 177.566 164.027 177.244 164.013 176.936C161.899 176.964 159.715 177.048 157.993 177.146L157.951 175.452C159.547 175.452 162.095 175.396 163.999 175.368C163.985 175.186 163.985 175.046 163.971 174.934C163.929 174.36 163.873 173.884 163.831 173.716H165.861ZM162.347 180.422C162.347 181.066 162.865 181.472 163.425 181.472C164.013 181.472 164.531 181.024 164.335 179.792C164.139 179.47 163.803 179.302 163.425 179.302C162.879 179.302 162.347 179.68 162.347 180.422ZM172.573 181.528C173.833 181.528 174.841 182.55 174.841 183.796C174.841 185.042 173.833 186.064 172.573 186.064C171.341 186.064 170.319 185.042 170.319 183.796C170.319 182.55 171.341 181.528 172.573 181.528ZM172.573 185.056C173.273 185.056 173.833 184.496 173.833 183.796C173.833 183.096 173.273 182.536 172.573 182.536C171.901 182.536 171.327 183.096 171.327 183.796C171.327 184.496 171.901 185.056 172.573 185.056Z" fill="#4A3E42"/>
</g>
<path d="M330 1L375 81H285L330 1Z" fill="#F5EBE2"/>
<path d="M248.523 47.392H263.027V51.116H248.523V47.392ZM253.619 37.06H257.623V42.492H253.619V37.06ZM253.619 48.876H257.651V59.656C257.651 61.448 257.343 62.428 256.139 63.016C254.991 63.604 253.507 63.66 251.603 63.66C251.463 62.568 250.903 60.972 250.371 59.936C251.407 59.992 252.723 59.992 253.115 59.992C253.479 59.992 253.619 59.88 253.619 59.544V48.876ZM248.663 40.196H262.747V45.964H258.995V43.584H252.219V45.964H248.663V40.196ZM239.451 56.492L243.231 57.416C242.363 59.824 240.851 62.26 239.339 63.744C238.611 63.1 237.015 62.036 236.119 61.532C237.575 60.328 238.807 58.396 239.451 56.492ZM243.091 57.808L246.311 56.408C247.487 57.836 248.663 59.74 249.195 61.084L245.807 62.708C245.359 61.364 244.211 59.292 243.091 57.808ZM241.663 46.3V48.316H244.127V46.3H241.663ZM241.663 51.256V53.3H244.127V51.256H241.663ZM241.663 41.344V43.332H244.127V41.344H241.663ZM237.995 38.152H247.991V56.492H237.995V38.152ZM268.263 43.556H292.987V46.72H268.263V43.556ZM273.527 57.276H287.527V59.46H273.527V57.276ZM273.527 60.328H287.527V62.848H273.527V60.328ZM278.567 42.296H282.599V45.208H278.567V42.296ZM278.791 55.736H282.403V61.924H278.791V55.736ZM270.559 53.916H290.971V63.604H286.743V56.436H274.591V63.604H270.559V53.916ZM267.955 50.052C273.779 50.024 282.823 49.94 290.971 49.828L290.775 52.796C282.599 53.02 273.779 53.16 268.067 53.244L267.955 50.052ZM282.823 46.132L286.127 47.7C283.635 49.464 280.611 51.228 278.259 52.32L275.739 50.864C278.119 49.66 281.059 47.7 282.823 46.132ZM276.887 45.012L280.135 46.496C278.679 47.7 277.083 48.82 275.823 49.548L273.275 48.232C274.479 47.364 275.991 46.02 276.887 45.012ZM270.951 49.044L273.359 46.888C275.403 47.616 277.895 48.82 279.351 49.688L276.887 52.096C275.515 51.116 272.967 49.8 270.951 49.044ZM285.567 48.596L288.675 47.028C290.719 48.372 292.987 50.416 294.163 51.816L290.943 53.692C289.795 52.18 287.499 49.996 285.567 48.596ZM273.639 37.06H277.615V42.996H273.639V37.06ZM283.383 37.06H287.359V42.996H283.383V37.06ZM268.039 38.376H293.127V41.568H268.039V38.376ZM308.163 43.444C309.787 43.612 311.467 43.696 313.175 43.696C316.619 43.696 320.147 43.388 323.115 42.744V46.972C320.203 47.392 316.619 47.616 313.203 47.644C311.523 47.644 309.843 47.588 308.191 47.476L308.163 43.444ZM319.307 38.88C319.223 39.412 319.167 40.14 319.139 40.756C319.083 41.624 319.027 43.5 319.027 45.74C319.027 51.368 319.475 54.588 319.475 57.108C319.475 60.412 317.795 62.512 313.623 62.512C309.675 62.512 307.071 60.832 307.071 57.668C307.071 54.532 309.647 52.516 313.567 52.516C319.139 52.516 322.583 55.288 324.683 57.248L322.387 60.804C318.999 57.64 316.199 55.792 313.231 55.792C311.915 55.792 311.047 56.296 311.047 57.192C311.047 58.172 312.027 58.508 313.231 58.508C314.575 58.508 315.107 57.78 315.107 56.24C315.107 54.364 314.743 49.968 314.743 45.74C314.743 43.5 314.715 41.568 314.687 40.812C314.687 40.392 314.575 39.468 314.463 38.88H319.307ZM305.727 39.244C305.475 39.86 305.083 41.596 304.971 42.1C304.635 43.556 303.655 50.08 303.655 52.684C303.655 52.768 303.655 53.216 303.683 53.328C304.019 52.516 304.383 51.984 304.747 51.144L306.791 52.796C305.951 55.316 305.111 58.144 304.775 59.768C304.691 60.16 304.607 60.804 304.607 61.084C304.607 61.392 304.607 61.896 304.635 62.344L300.799 62.624C300.211 60.72 299.651 57.444 299.651 53.636C299.651 49.352 300.435 44.088 300.743 42.016C300.855 41.176 301.023 39.888 301.051 38.852L305.727 39.244Z" fill="#E57512"/>
<path d="M354.146 48.904C354.146 55.54 352.438 59.992 345.466 63.044L341.826 59.628C347.426 57.78 349.694 55.344 349.694 49.016V41.204C349.694 40.056 349.638 39.132 349.526 38.432H354.342C354.258 39.16 354.146 40.056 354.146 41.204V48.904ZM344.01 38.712C343.926 39.384 343.814 40.336 343.814 41.54V51.396C343.814 52.768 343.898 53.86 343.954 54.56H339.222C339.306 53.86 339.39 52.768 339.39 51.396V41.512C339.39 40.588 339.306 39.692 339.194 38.712H344.01ZM334.21 43.528C334.854 43.64 335.862 43.836 337.374 43.836H355.63C357.254 43.836 358.038 43.78 359.018 43.612V48.092C358.234 48.008 357.254 48.008 355.658 48.008H337.374C335.862 48.008 335.022 48.064 334.21 48.12V43.528ZM368.256 39.272C370.188 40.588 373.856 43.5 375.536 45.292L372.064 48.848C370.58 47.224 367.052 44.144 365.036 42.716L368.256 39.272ZM364.112 57.864C368.228 57.304 371.84 56.044 374.584 54.448C379.624 51.536 383.404 47.196 385.28 43.248L387.912 48.036C385.672 52.012 381.696 55.904 377.02 58.648C374.164 60.328 370.524 61.784 366.996 62.344L364.112 57.864ZM405.158 38.292C405.074 38.964 404.99 40.252 404.962 40.924C404.654 51.9 402.302 57.808 395.722 62.54L391.774 59.348C393.09 58.62 394.63 57.584 395.918 56.24C399.67 52.348 400.398 47.56 400.398 41.008C400.398 40.392 400.286 38.964 400.174 38.292H405.158ZM414.538 44.396C414.454 44.844 414.342 45.656 414.342 45.936C414.23 49.156 413.866 56.8 412.69 59.74C412.074 61.28 410.898 62.148 408.77 62.148C407.034 62.148 405.354 62.008 404.038 61.896L403.506 57.36C404.822 57.612 406.25 57.78 407.314 57.78C408.266 57.78 408.574 57.444 408.854 56.744C409.526 55.204 409.918 50.332 409.918 47.28H396.87C396.002 47.28 394.21 47.308 392.922 47.42V42.996C394.21 43.136 395.806 43.22 396.87 43.22H409.33C410.03 43.22 410.87 43.136 411.654 42.996L414.538 44.396ZM444.403 43.64C444.039 44.256 443.591 45.096 443.311 45.936C442.555 48.26 441.043 51.956 438.467 55.12C435.751 58.452 432.363 61.028 427.099 63.184L423.067 59.6C429.115 57.752 432.027 55.372 434.407 52.712C436.171 50.752 437.739 47.532 438.103 45.712H429.199L430.711 41.876C432.027 41.876 437.291 41.876 438.187 41.876C439.111 41.876 440.231 41.736 440.959 41.512L444.403 43.64ZM435.415 39.104C434.631 40.224 433.791 41.68 433.427 42.324C431.411 45.88 427.827 49.8 424.075 52.404L420.267 49.576C425.223 46.524 427.491 43.164 428.975 40.812C429.479 40.028 430.151 38.572 430.459 37.48L435.415 39.104Z" fill="#E57512"/>
<defs>
<filter id="filter0_d_956_27032" x="2" y="38" width="228" height="235.109" filterUnits="userSpaceOnUse" color-interpolation-filters="sRGB">
<feFlood flood-opacity="0" result="BackgroundImageFix"/>
<feColorMatrix in="SourceAlpha" type="matrix" values="0 0 0 0 0 0 0 0 0 0 0 0 0 0 0 0 0 0 127 0" result="hardAlpha"/>
<feOffset dy="2"/>
<feGaussianBlur stdDeviation="7"/>
<feComposite in2="hardAlpha" operator="out"/>
<feColorMatrix type="matrix" values="0 0 0 0 0 0 0 0 0 0 0 0 0 0 0 0 0 0 0.03 0"/>
<feBlend mode="normal" in2="BackgroundImageFix" result="effect1_dropShadow_956_27032"/>
<feBlend mode="normal" in="SourceGraphic" in2="effect1_dropShadow_956_27032" result="shape"/>
</filter>
</defs>
</svg>
