<svg width="100" height="80" viewBox="0 0 100 80" fill="none" xmlns="http://www.w3.org/2000/svg">
<mask id="mask0_1621_25544" style="mask-type:alpha" maskUnits="userSpaceOnUse" x="0" y="0" width="100" height="80">
<rect width="100" height="80" fill="#D9D9D9"/>
</mask>
<g mask="url(#mask0_1621_25544)">
<path d="M50.0473 10.4905C32.6028 10.4905 20.5449 23.959 20.5449 39.719C20.5449 57.3527 32.8622 69.4959 50.0486 69.4959C67.897 69.4959 79.552 57.2393 79.552 39.719C79.552 23.8516 67.4306 10.4905 50.0473 10.4905Z" fill="white"/>
<path d="M38.0722 54.6319C36.1811 53.8175 34.1204 54.2847 32.9785 54.4096C33.3078 55.486 33.9135 56.2355 35.1437 56.9148C37.6611 58.3048 40.285 56.6004 40.5003 56.1932L40.54 56.1176L40.9352 56.1924C41.1786 56.2384 41.583 54.4737 40.9596 52.5539C40.6379 51.634 40.093 50.8077 39.3735 50.1484C38.6497 51.0185 38.4902 51.7477 38.6048 52.8369C38.6614 53.6059 38.7776 54.3694 38.9525 55.1205C38.6843 54.9161 38.3878 54.7515 38.0722 54.6319Z" fill="#65B005"/>
<path d="M36.0382 52.0647C35.6812 51.6291 35.3197 51.1679 34.9673 50.6863L34.9406 50.5584C34.6765 49.2981 35.8843 47.0261 36.6895 46.3113C37.063 46.5973 37.3665 46.9641 37.577 47.3841C37.7876 47.804 37.8997 48.2662 37.9049 48.7357C37.908 51.5427 36.4018 51.6909 36.2049 51.9066L35.8543 52.2905L34.9528 51.1477C33.8912 49.8038 32.5827 49.728 32.5827 49.728C31.8357 49.5419 31.068 49.4518 30.2982 49.4599C30.2595 49.7045 30.5463 51.5477 32.3153 52.3919C34.0802 53.2344 35.2428 52.6505 35.6566 52.5156L36.2529 52.3229C36.2189 52.2841 36.1861 52.2445 36.1534 52.2049C36.1152 52.1585 36.0768 52.1117 36.0382 52.0647Z" fill="#65B005"/>
<path d="M64.5289 52.0647C64.8858 51.6291 65.2473 51.1679 65.5998 50.6863L65.6264 50.5584C65.8905 49.2981 64.6827 47.0261 63.8776 46.3113C63.5041 46.5973 63.2006 46.9641 62.99 47.3841C62.7795 47.804 62.6674 48.2662 62.6621 48.7357C62.659 51.5427 64.1653 51.6909 64.3622 51.9066L64.7127 52.2905L65.6153 51.1469C66.6758 49.803 67.9844 49.7265 67.9844 49.7265C68.7313 49.5405 69.499 49.4504 70.2689 49.4585C70.3076 49.703 70.0207 51.5462 68.2518 52.3905C66.4868 53.2329 65.3243 52.649 64.9104 52.5142L64.3142 52.3214C64.3481 52.2827 64.381 52.2431 64.4137 52.2035C64.452 52.158 64.4904 52.1117 64.5289 52.0647Z" fill="#65B005"/>
<path d="M32.9623 47.3475C32.9947 47.4183 33.0278 47.4888 33.0616 47.5592C30.9953 47.7006 30.4104 47.2087 29.5837 46.3908C29.2031 45.9777 28.9187 45.4859 28.7507 44.9505C28.5826 44.4152 28.5352 43.8494 28.6117 43.2937C29.2282 43.3584 30.1095 43.7609 30.8935 44.3691C31.5403 44.8474 32.0634 45.4725 32.4196 46.1925" fill="#65B005"/>
<path d="M31.3964 37.7132C30.9517 37.2496 30.4471 36.847 29.8959 36.5161C29.0248 38.3453 28.9642 39.5996 29.4515 41.0569C29.8517 42.2537 32.9984 43.9387 32.1066 42.484C33.4861 42.3034 34.1955 41.3614 34.5497 40.82C34.7401 40.5533 34.8676 40.2471 34.9227 39.9245C34.9778 39.6018 34.9591 39.2709 34.868 38.9564C34.4136 38.891 33.9499 38.9641 33.5378 39.1661L32.6485 39.7815C32.6485 39.7815 32.5542 39.8466 32.4065 39.9501C32.3949 39.7837 32.3748 39.6124 32.3444 39.4335C32.203 38.7803 31.8736 38.1824 31.3964 37.7132Z" fill="#65B005"/>
<path d="M50.049 54.9349C49.8047 54.973 49.5547 54.9421 49.3272 54.8456C48.2352 54.3813 45.4349 53.6583 44.8618 53.6519C44.348 53.6461 44.1975 54.2236 44.1973 54.4498C44.1962 55.4794 44.4002 57.6481 44.7437 58.9068C44.7763 59.0517 44.8632 59.1787 44.9865 59.262C45.1098 59.3453 45.2603 59.3785 45.4074 59.3551C46.6983 59.2841 48.0753 58.7126 49.484 58.2038C49.8529 58.0966 50.2449 58.0966 50.6138 58.2038C52.0218 58.7126 53.3632 59.6107 54.654 59.6818C54.8423 59.6792 55.0268 59.629 55.1903 59.5358C55.3537 59.4427 55.4908 59.3097 55.5886 59.1493C55.9321 57.8916 55.9816 55.6169 55.9803 54.6407C55.9803 54.4139 55.7499 53.8855 55.2358 53.8911C54.1616 53.9976 53.0969 54.1844 52.0508 54.45C51.8357 54.5032 51.6291 54.5584 51.4384 54.6149C51.2113 54.6794 50.9881 54.7565 50.7697 54.8458C50.5425 54.942 50.2929 54.9729 50.049 54.9349Z" fill="#65B005"/>
<path d="M45.3348 33.6057C45.3803 29.3655 45.2299 23.1921 45.1263 22.0566C44.5772 22.0153 42.192 22.0733 41.6236 22.2042C41.3012 23.4022 39.7354 24.472 38.5801 24.9227C38.613 25.7005 38.6568 27.4443 38.6614 27.6766C39.4735 27.6766 40.5893 27.5638 41.7111 27.5638C41.7111 29.3319 41.8009 32.8004 41.8009 34.2056C41.8009 36.1879 41.9312 40.3355 41.9312 43.5803H45.4276C45.4557 41.8545 45.3174 35.3302 45.3348 33.6057Z" fill="#65B005"/>
<path d="M60.1193 25.8893C59.7636 25.1798 59.3285 24.5127 58.8222 23.9008C57.8346 22.7247 56.5935 21.8833 55.201 21.8833C52.6571 21.8833 50.8706 23.8757 50.2597 24.9758C49.1377 26.9962 48.5723 29.54 48.5723 32.1987C48.5723 34.5166 48.6083 35.8924 48.9669 37.9507C49.2589 39.6277 50.1503 41.5425 50.8442 42.1511C51.7087 42.9092 53.0497 43.7922 54.8771 43.7922C56.6384 43.7922 58.2838 42.6857 59.2292 41.3877C59.8039 40.5987 60.5696 38.7348 60.9565 37.3815C61.188 36.5727 61.4661 34.4018 61.4661 32.4364C61.4663 30.1594 61.2674 28.1509 60.1193 25.8893ZM57.9767 35.5584C57.8197 36.357 57.537 37.126 57.1393 37.8367C56.6843 38.5834 55.8113 39.2842 54.9638 39.2842C54.0842 39.2842 53.6279 38.744 53.2118 38.308C52.8778 37.9575 52.4195 36.8941 52.3084 35.9239C52.1724 34.8157 52.1179 33.699 52.1455 32.5828C52.1901 31.2531 52.3905 29.5578 52.9314 28.3956C53.2255 27.7631 54.085 26.5849 55.3098 26.5849C56.1232 26.5849 57.0559 27.7833 57.5666 28.9857C58.119 30.2868 58.1115 31.5073 58.187 32.7842C58.1654 33.7118 58.0952 34.6377 57.9767 35.558V35.5584Z" fill="#65B005"/>
<path d="M62.4633 54.6319C64.3543 53.8175 66.4152 54.2847 67.5571 54.4096C67.2278 55.486 66.6218 56.2355 65.3917 56.9148C62.8743 58.3048 60.2504 56.6004 60.0363 56.1932L59.9966 56.1176L59.6014 56.1924C59.358 56.2384 58.9536 54.4737 59.577 52.5539C59.8987 51.634 60.4436 50.8077 61.1631 50.1484C61.8869 51.0185 62.0464 51.7477 61.9318 52.8369C61.8753 53.6059 61.759 54.3694 61.5842 55.1205C61.852 54.9161 62.1481 54.7515 62.4633 54.6319Z" fill="#65B005"/>
<path d="M67.5719 47.3475C67.5395 47.4183 67.5064 47.4888 67.4727 47.5592C69.539 47.7006 70.1236 47.2087 70.9503 46.3908C71.3309 45.9777 71.6154 45.4859 71.7834 44.9505C71.9515 44.4152 71.9989 43.8494 71.9223 43.2937C71.3056 43.3584 70.4244 43.7609 69.6403 44.3691C68.9936 44.8474 68.4705 45.4725 68.1144 46.1925" fill="#65B005"/>
<path d="M67.1026 48.0926C66.678 47.967 65.8566 47.2396 65.3709 45.6554C65.1413 44.8698 65.2161 44.0269 65.5807 43.2937C66.3945 43.5174 67.2284 44.3328 67.4937 46.3712" fill="#65B005"/>
<path d="M69.1374 37.7136C69.582 37.25 70.0866 36.8475 70.6378 36.5166C71.5087 38.3458 71.5685 39.6001 71.0821 41.0574C70.6819 42.2542 67.5354 43.9392 68.4269 42.4845C67.0475 42.3039 66.3381 41.3619 65.9838 40.8205C65.7935 40.5537 65.6661 40.2476 65.611 39.9249C65.5559 39.6022 65.5746 39.2713 65.6657 38.9569C66.1202 38.8915 66.5839 38.9646 66.996 39.1665L67.8853 39.782C67.8853 39.782 67.9796 39.8471 68.1271 39.9506C68.1388 39.7842 68.1587 39.6129 68.1891 39.4339C68.3306 38.7808 68.6601 38.1829 69.1374 37.7136Z" fill="#65B005"/>
<path d="M33.4309 48.0926C33.8557 47.967 34.6769 47.2396 35.1626 45.6554C35.3927 44.87 35.3183 44.027 34.9541 43.2937C34.1403 43.5174 33.3062 44.3328 33.041 46.3712" fill="#65B005"/>
<path d="M49.9993 10.0002C46.6225 9.98966 43.2656 10.5161 40.0551 11.5596C34.1183 13.5065 28.9745 17.319 25.3946 22.4257C23.6412 24.9283 22.2869 27.6863 21.3798 30.6017C20.4469 33.6103 19.9818 36.7436 20.0005 39.8925C19.9998 43.1448 20.461 46.3808 21.3703 49.5041C22.2148 52.3816 23.4983 55.1124 25.1758 57.6008C26.8027 59.9976 28.8006 62.1221 31.0949 63.8952C33.4453 65.6991 36.0638 67.1261 38.8557 68.1249C41.813 69.1727 44.9078 69.7848 48.0424 69.9418C51.31 70.1284 54.5878 69.8657 57.7835 69.1613C60.7034 68.5183 63.5078 67.4348 66.0997 65.9482C68.5737 64.5181 70.8008 62.7006 72.6955 60.5653C74.5945 58.4113 76.1448 55.9752 77.2906 53.345C78.5072 50.5259 79.3175 47.5494 79.6974 44.504C80.127 41.3031 80.1 38.0576 79.6171 34.8642C79.139 31.8125 78.1914 28.8526 76.8077 26.089C75.4488 23.3767 73.6722 20.8933 71.5425 18.7289C69.3874 16.5426 66.8947 14.7148 64.1591 13.3151C61.2827 11.8508 58.1878 10.8593 54.9942 10.3789C53.341 10.1286 51.6714 10.002 49.9993 10.0002C49.3604 10.0002 49.3594 10.9897 49.9993 10.9897C53.2731 10.9806 56.5276 11.4898 59.6412 12.4985C62.5213 13.4455 65.2297 14.8488 67.6622 16.6543C70.0099 18.4028 72.0641 20.5121 73.7478 22.9032C75.4565 25.3302 76.7768 28.0071 77.6614 30.838C78.5672 33.7554 79.0205 36.7935 79.0058 39.8474C79.0116 42.9337 78.6034 46.007 77.7919 48.9854C77.0375 51.7366 75.8725 54.359 74.3358 56.7648C72.8527 59.0668 71.0115 61.1188 68.8814 62.844C66.7145 64.586 64.2846 65.9752 61.682 66.9601C58.8348 68.0308 55.847 68.6845 52.8116 68.9009C49.6547 69.1549 46.4777 68.9723 43.371 68.3585C40.5037 67.7867 37.7398 66.7853 35.1733 65.3885C32.7011 64.0322 30.461 62.2924 28.5372 60.2344C26.6084 58.1553 25.0191 55.7872 23.8275 53.2165C22.5705 50.4803 21.7257 47.5741 21.3205 44.5918C20.8651 41.472 20.8697 38.3025 21.3341 35.184C21.7862 32.2303 22.6901 29.3632 24.0143 26.6828C25.3205 24.0479 27.0307 21.6321 29.0834 19.5223C31.1745 17.3816 33.5977 15.5906 36.26 14.2179C39.0536 12.7895 42.0606 11.8209 45.1645 11.3495C46.7646 11.1069 48.3809 10.9866 49.9993 10.9897C50.638 10.9897 50.6392 10.0002 49.9993 10.0002Z" fill="#726A69"/>
<path d="M67.9455 20.2374C67.0071 19.3922 66.0085 18.6158 64.9576 17.9145C64.8437 17.849 64.7086 17.831 64.5815 17.8642C64.4544 17.8974 64.3455 17.9793 64.2786 18.092C64.2152 18.206 64.1983 18.3399 64.2315 18.466C64.2646 18.5921 64.3453 18.7005 64.4566 18.7688C64.704 18.9338 64.9486 19.1031 65.1904 19.2768C65.3145 19.3661 65.4378 19.4564 65.5602 19.548C65.6748 19.6335 65.7931 19.7238 65.8665 19.7811C66.3393 20.1498 66.7983 20.5351 67.2435 20.9372C67.3369 21.0287 67.4627 21.0798 67.5937 21.0792C67.7246 21.0787 67.85 21.0266 67.9426 20.9343C68.0352 20.842 68.0875 20.717 68.088 20.5864C68.0885 20.4559 68.0373 20.3305 67.9455 20.2374Z" fill="#726A69"/>
<path d="M68.8158 22.3966C69.4544 22.3966 69.4555 21.407 68.8158 21.407C68.1761 21.407 68.1759 22.3966 68.8158 22.3966Z" fill="#726A69"/>
<path d="M62.8504 16.6562C59.98 15.1444 56.8594 14.1618 53.6387 13.7557C50.6631 13.3729 47.646 13.4525 44.6949 13.9917C42.1511 14.4553 39.6895 15.2889 37.3888 16.4657C35.2011 17.5893 33.1881 19.0228 31.4126 20.7216C29.6545 22.4064 28.145 24.3313 26.9292 26.4387C25.702 28.5684 24.7787 30.8582 24.1859 33.2421C23.5806 35.7104 23.3153 38.2493 23.3973 40.789C23.4624 43.3806 23.8618 45.9532 24.5857 48.4432C25.2623 50.7549 26.2572 52.9619 27.542 55.0011C28.7794 56.9561 30.2911 58.7246 32.0312 60.2527C33.7907 61.792 35.7616 63.073 37.8841 64.0573C40.0954 65.0786 42.4351 65.797 44.8396 66.193C47.438 66.6196 50.0796 66.7217 52.7033 66.4966C55.1959 66.3003 57.6524 65.7812 60.0106 64.9525C62.2126 64.174 64.2925 63.0876 66.188 61.726C68.0441 60.3805 69.6954 58.7748 71.0908 56.9586C72.4875 55.1257 73.6225 53.1086 74.4632 50.9648C75.3576 48.6744 75.9547 46.2795 76.24 43.8381C76.6092 40.9493 76.5555 38.0222 76.0805 35.1487C75.3167 30.5979 73.354 26.331 70.393 22.7844C70.2995 22.6925 70.1734 22.641 70.0421 22.641C69.9107 22.641 69.7846 22.6925 69.6911 22.7844C69.6006 22.8786 69.5501 23.0039 69.5501 23.1343C69.5501 23.2647 69.6006 23.39 69.6911 23.4842C71.5875 25.7739 73.0589 28.3825 74.0361 31.1875C75.0364 34.0818 75.5271 37.1268 75.4863 40.1878C75.4712 42.6452 75.1587 45.0917 74.5557 47.4745C73.9963 49.6787 73.1435 51.7984 72.0199 53.7771C69.8419 57.6095 66.5868 60.7231 62.6558 62.7343C60.5929 63.7857 58.3959 64.552 56.1255 65.0118C53.6497 65.5143 51.1212 65.7098 48.5973 65.5938C46.1663 65.4981 43.7581 65.0868 41.4337 64.3705C39.252 63.6947 37.1754 62.7189 35.2639 61.4714C33.4037 60.2499 31.7287 58.7689 30.2902 57.0735C28.8324 55.3445 27.6268 53.419 26.7093 51.3539C25.7388 49.1535 25.0684 46.8333 24.7162 44.4554C24.3299 41.9618 24.2686 39.4289 24.5338 36.9197C24.7945 34.5454 25.3831 32.2185 26.2831 30.0049C27.6096 26.7138 29.6359 23.7483 32.2225 21.3127C34.809 18.8771 37.8943 17.0292 41.266 15.8963C43.7166 15.0773 46.2732 14.6164 48.8562 14.5278C52.0442 14.3985 55.2303 14.8245 58.2714 15.7866C59.6793 16.2396 61.0441 16.8163 62.3497 17.5099C62.9135 17.8091 63.4156 16.9551 62.8508 16.6556L62.8504 16.6562Z" fill="#726A69"/>
<path d="M32.992 46.375C32.9534 46.6735 32.9267 46.9983 32.9141 47.3512Z" fill="#C4B7AE"/>
<path d="M32.494 46.3748C32.4526 46.6987 32.4278 47.0247 32.416 47.351C32.416 47.4823 32.4683 47.6081 32.5614 47.7009C32.6545 47.7937 32.7807 47.8458 32.9124 47.8458C33.044 47.8458 33.1703 47.7937 33.2634 47.7009C33.3564 47.6081 33.4087 47.4823 33.4087 47.351C33.4205 47.0247 33.4449 46.6987 33.4867 46.3748C33.4871 46.3097 33.4745 46.2452 33.4496 46.1851C33.4248 46.1249 33.3882 46.0702 33.3419 46.0243C33.2489 45.9315 33.1226 45.8794 32.991 45.8794C32.8593 45.8794 32.7331 45.9315 32.64 46.0243L32.5624 46.1243C32.518 46.2001 32.4946 46.2864 32.4946 46.3742L32.494 46.3748Z" fill="#726A69"/>
<path d="M40.8849 56.6909C41.3606 56.721 41.5488 56.1549 41.6255 55.7891C41.7499 55.1591 41.7722 54.5132 41.6917 53.8761C41.6128 53.0849 41.3933 52.314 41.0433 51.5995C40.69 50.9289 40.2273 50.3217 39.6742 49.8025C39.5806 49.7107 39.4545 49.6592 39.3232 49.6592C39.1919 49.6592 39.0658 49.7107 38.9722 49.8025C38.6029 50.2239 38.3247 50.7167 38.1549 51.25C38.0228 51.7696 37.9899 52.3092 38.0579 52.8409C38.0614 52.971 38.1149 53.0948 38.2072 53.1868C38.2995 53.2789 38.4237 53.3321 38.5542 53.3357C38.6856 53.3348 38.8113 53.2823 38.9042 53.1897C38.9971 53.0971 39.0497 52.9718 39.0506 52.8409C38.9909 52.4209 39.0058 51.9937 39.0944 51.5789C39.2069 51.1824 39.4045 50.815 39.6735 50.5022H38.9722C39.8673 51.3358 40.4621 52.4399 40.6648 53.6441C40.7538 54.1741 40.7701 54.7136 40.7132 55.2479C40.6956 55.4131 40.6631 55.5764 40.616 55.7357C40.6044 55.7739 40.5918 55.8116 40.5777 55.8491C40.6007 55.7873 40.6129 55.8153 40.5881 55.8219C40.5819 55.8343 40.5753 55.8465 40.5674 55.8582C40.5463 55.8924 40.561 55.875 40.6115 55.806C40.562 55.8444 40.8158 55.697 40.8845 55.7013C40.2464 55.6611 40.2489 56.6509 40.8845 56.6909H40.8849Z" fill="#726A69"/>
<path d="M33.5139 48.5737C34.2752 48.3333 34.8196 47.5525 35.159 46.8771C35.4682 46.2984 35.6629 45.6658 35.7325 45.0137C35.773 44.3349 35.6352 43.6573 35.3327 43.0479C35.277 42.9542 35.192 42.8812 35.0908 42.8403C34.9896 42.7993 34.8776 42.7926 34.7722 42.8211C32.9905 43.3272 32.5373 45.445 32.4316 47.0396C32.4316 47.1708 32.4839 47.2967 32.577 47.3895C32.6701 47.4823 32.7964 47.5344 32.928 47.5344C33.0596 47.5344 33.1859 47.4823 33.279 47.3895C33.3721 47.2967 33.4244 47.1708 33.4244 47.0396C33.4808 46.1875 33.6273 45.2892 34.0545 44.5834C34.0959 44.5156 34.1395 44.4498 34.1855 44.3851C34.2074 44.3538 34.2212 44.3371 34.1896 44.3773C34.2165 44.343 34.2448 44.3096 34.2736 44.2773C34.3591 44.1811 34.4522 44.0919 34.5521 44.0107C34.5993 43.9721 34.4804 44.0583 34.5581 44.0078C34.584 43.9911 34.6092 43.973 34.6353 43.9565C34.6858 43.9243 34.7387 43.8946 34.791 43.867C34.8171 43.8538 34.8436 43.8418 34.8698 43.8288C34.9525 43.7876 34.8043 43.8521 34.8618 43.8323C34.9192 43.8126 34.977 43.7921 35.0361 43.7752L34.4754 43.5484C34.9304 44.5138 34.7453 45.5246 34.2686 46.4421C34.1141 46.7585 33.9123 47.0496 33.6701 47.3055C33.6173 47.3593 33.5625 47.4101 33.5061 47.4598C33.4959 47.4688 33.4058 47.54 33.462 47.4973C33.5183 47.4546 33.4237 47.5233 33.4206 47.5247C33.3793 47.5517 33.3363 47.5769 33.2928 47.6018C33.1588 47.6783 33.3549 47.587 33.2486 47.6204C32.6418 47.8119 32.9009 48.7677 33.5125 48.5747L33.5139 48.5737Z" fill="#726A69"/>
<path d="M39.2659 54.7761C38.2345 54.0645 37.0113 53.6807 35.757 53.6751C34.8079 53.6483 33.7796 53.8232 32.9298 53.9184C32.8539 53.9198 32.7792 53.9383 32.7114 53.9726C32.6437 54.0068 32.5846 54.0559 32.5385 54.1162C32.4925 54.1764 32.4607 54.2463 32.4456 54.3205C32.4305 54.3947 32.4324 54.4714 32.4513 54.5448C32.9081 56.0032 34.0136 57.0434 35.4203 57.6145C36.8184 58.1821 38.4161 57.9812 39.7428 57.3182C40.1399 57.1197 40.6506 56.8473 40.8803 56.4463C41.1966 55.8919 40.3391 55.3925 40.0231 55.9467C39.9883 56.0086 40.1135 55.8643 40.0096 55.9618C39.959 56.0092 39.9083 56.0554 39.8543 56.0995C39.8409 56.1102 39.9058 56.0651 39.828 56.117C39.791 56.1418 39.7552 56.1678 39.7182 56.1921C39.62 56.2564 39.5191 56.3158 39.4161 56.3729C38.9593 56.6213 38.466 56.796 37.9545 56.8906C37.3121 57.0021 36.6524 56.9624 36.0281 56.7747C35.4038 56.587 34.832 56.2566 34.3585 55.8096C33.9103 55.3946 33.5822 54.8671 33.4086 54.2823L32.9298 54.9087C33.8256 54.8083 34.6777 54.6526 35.6102 54.6625C36.7378 54.6464 37.8418 54.9855 38.7648 55.6315C38.8788 55.6965 39.0138 55.7142 39.1408 55.6808C39.2677 55.6474 39.3764 55.5656 39.4434 55.453C39.5069 55.339 39.5238 55.205 39.4906 55.0789C39.4575 54.9528 39.3767 54.8443 39.2653 54.7761H39.2659Z" fill="#726A69"/>
<path d="M36.5073 52.2613C36.542 52.2259 36.3733 52.3294 36.4788 52.2863C36.5114 52.2731 36.5435 52.2525 36.5753 52.2366C36.6641 52.1921 36.754 52.1502 36.8405 52.1011C37.1213 51.9439 37.3699 51.7353 37.573 51.4861C37.8794 51.0969 38.0945 50.6443 38.2028 50.1615C38.3801 49.4587 38.4037 48.7262 38.2719 48.0135C38.0981 47.2031 37.6453 46.4789 36.9921 45.9663C36.897 45.8774 36.7715 45.8279 36.6411 45.8279C36.5107 45.8279 36.3852 45.8774 36.2901 45.9663C35.6796 46.5196 35.2374 47.3064 34.9078 48.05C34.5444 48.8708 34.2397 49.7889 34.4135 50.694C34.4496 50.8199 34.5338 50.9266 34.648 50.9912C34.7622 51.0558 34.8973 51.0732 35.0242 51.0395C35.1496 51.0023 35.2557 50.9182 35.3203 50.8047C35.3849 50.6913 35.403 50.5574 35.3708 50.4309C35.3529 50.2915 35.3483 50.1507 35.357 50.0103C35.3678 49.8553 35.3924 49.7015 35.4304 49.5508C35.5222 49.1611 35.6539 48.7819 35.8234 48.4191C36.0936 47.7642 36.4904 47.1688 36.9913 46.6666H36.2901C36.6047 46.9 36.8636 47.1999 37.0484 47.5447C37.2332 47.8895 37.3392 48.2707 37.359 48.6611C37.3734 49.0333 37.3446 49.4059 37.2734 49.7716C37.2256 50.0284 37.1445 50.2779 37.0322 50.5138C36.9767 50.6205 36.9136 50.7231 36.8434 50.8208C36.7813 50.9064 36.8945 50.7668 36.8204 50.8488C36.7863 50.8866 36.7532 50.9251 36.717 50.9614C36.6808 50.9977 36.6481 51.0276 36.6136 51.06C36.5913 51.0806 36.467 51.1738 36.5851 51.0874C36.5282 51.1286 36.4705 51.1686 36.4103 51.2053C36.1948 51.2993 35.9916 51.419 35.8051 51.562C35.3582 52.0176 36.0595 52.718 36.5071 52.2617L36.5073 52.2613Z" fill="#726A69"/>
<path d="M32.6681 49.2536C31.8762 49.0665 31.0655 48.9703 30.2516 48.967C30.1211 48.9705 29.9968 49.0237 29.9045 49.1158C29.8121 49.2078 29.7587 49.3317 29.7553 49.4619C29.7449 49.7532 29.7935 50.0436 29.8982 50.3158C30.0571 50.822 30.3074 51.2949 30.6367 51.7114C31.0847 52.2539 31.6552 52.683 32.3014 52.9635C32.9476 53.2441 33.6513 53.3681 34.3549 53.3255C34.8288 53.2739 35.2944 53.163 35.7406 52.9957C36.3439 52.7957 36.0854 51.8396 35.4767 52.0415C35.3019 52.0992 35.1313 52.1677 34.9545 52.219C34.7196 52.2913 34.4763 52.3329 34.2306 52.3427C33.4216 52.3649 32.6279 52.1197 31.9732 51.6452C31.7328 51.4676 31.5206 51.2551 31.3434 51.0148C31.2531 50.8896 31.1709 50.7587 31.0973 50.623C31.0627 50.5598 31.03 50.4955 30.9993 50.4302C30.9844 50.3991 30.9701 50.3684 30.9561 50.3358C30.9697 50.3688 30.9701 50.3698 30.9573 50.3385C30.8746 50.1366 30.8111 49.9275 30.7674 49.7138C30.7592 49.6726 30.7528 49.6313 30.7453 49.5901C30.7739 49.7503 30.7486 49.6313 30.748 49.5936C30.7448 49.5504 30.7448 49.5071 30.748 49.4639L30.2516 49.9587C30.9765 49.9598 31.6987 50.0441 32.4042 50.2099C33.023 50.3698 33.2869 49.4157 32.6681 49.2557V49.2536Z" fill="#726A69"/>
<path d="M31.0963 43.9453C30.361 43.3818 29.4959 42.9126 28.5638 42.8025C28.455 42.8021 28.3492 42.8375 28.2627 42.9032C28.1761 42.9688 28.1138 43.0612 28.0852 43.1658C27.9795 43.835 28.0354 44.5198 28.2481 45.1632C28.4609 45.8067 28.8244 46.3903 29.3085 46.8657C29.6488 47.2226 30.049 47.5174 30.4911 47.7368C31.1017 47.9881 31.7594 48.1057 32.4195 48.0815C33.0582 48.0795 33.0594 47.0899 32.4195 47.0919C32.132 47.0974 31.8444 47.079 31.56 47.0369C31.4362 47.015 31.3139 46.986 31.1935 46.9501C31.1456 46.9363 31.0983 46.9207 31.0514 46.9033C31.0349 46.8975 30.9132 46.8478 30.992 46.8827C30.7992 46.7967 30.6169 46.689 30.4487 46.5616C30.5279 46.6206 30.4241 46.541 30.4074 46.5282C30.3604 46.4895 30.3145 46.4497 30.269 46.4093C30.1927 46.3415 30.1182 46.2711 30.0446 46.2002C29.3207 45.5017 28.8804 44.3954 29.042 43.4293L28.564 43.7921C28.4922 43.7837 28.6767 43.8146 28.7156 43.8235C28.8004 43.8441 28.8844 43.8668 28.9673 43.8934C29.134 43.9468 29.2968 44.0119 29.4544 44.0882C29.8581 44.286 30.2405 44.5245 30.5956 44.7999C30.7094 44.8654 30.8445 44.8836 30.9717 44.8503C31.0988 44.8171 31.2077 44.7352 31.2746 44.6224C31.3377 44.5083 31.3545 44.3744 31.3213 44.2484C31.2882 44.1223 31.2075 44.0138 31.0963 43.9453Z" fill="#726A69"/>
<path d="M32.8004 45.9466C32.4266 45.1877 31.8769 44.5284 31.1968 44.0232C31.101 43.9343 30.976 43.883 30.8452 43.8789C30.7136 43.8795 30.5874 43.9313 30.4936 44.0232C30.33 44.201 30.2752 44.5527 30.4936 44.723C30.8116 44.9684 31.1044 45.2447 31.3678 45.5477C31.3981 45.583 31.428 45.6187 31.4574 45.6547C31.4737 45.6753 31.4894 45.6949 31.5058 45.7149C31.5451 45.7635 31.4309 45.6149 31.4938 45.7002C31.5513 45.778 31.6077 45.8565 31.6607 45.9373C31.7671 46.0999 31.8611 46.2702 31.9419 46.4468C32.0075 46.5579 32.1139 46.6392 32.2385 46.6736C32.3337 46.6998 32.4346 46.6972 32.5283 46.666C32.622 46.6347 32.7042 46.5764 32.7644 46.4983C32.8246 46.4202 32.8601 46.326 32.8663 46.2277C32.8725 46.1295 32.8491 46.0316 32.7992 45.9466H32.8004Z" fill="#726A69"/>
<path d="M33.7392 39.5976C33.8868 39.5313 34.0418 39.4828 34.201 39.4533C34.3613 39.4245 34.5249 39.4189 34.6868 39.4366L34.3402 39.0911C34.4442 39.4476 34.427 39.8285 34.2912 40.1743C34.2138 40.3496 34.1184 40.5163 34.0066 40.672C33.97 40.726 33.9325 40.7794 33.8939 40.8322C33.8767 40.8557 33.8587 40.8786 33.8415 40.9023C33.8209 40.9305 33.899 40.833 33.8285 40.9171C33.7342 41.0297 33.6376 41.1396 33.5328 41.2425C33.4764 41.2975 33.4181 41.351 33.3578 41.4031C33.3237 41.4322 33.2891 41.4608 33.2544 41.4884C33.3315 41.428 33.213 41.5177 33.2072 41.5208C32.9073 41.7411 32.5621 41.8925 32.1965 41.9641C32.1337 41.9814 32.0748 42.0108 32.0234 42.0507C31.972 42.0907 31.9289 42.1403 31.8968 42.1968C31.8646 42.2533 31.8439 42.3156 31.8358 42.3801C31.8278 42.4446 31.8326 42.5101 31.8499 42.5727C31.8672 42.6354 31.8968 42.694 31.9368 42.7453C31.9769 42.7965 32.0267 42.8394 32.0834 42.8715C32.1401 42.9036 32.2025 42.9243 32.2672 42.9323C32.3319 42.9403 32.3976 42.9355 32.4604 42.9183C33.3013 42.72 34.0484 42.2402 34.5772 41.559C34.8569 41.224 35.0823 40.8475 35.2452 40.4431C35.4277 39.9227 35.446 39.3591 35.2978 38.828C35.2762 38.7448 35.2327 38.6689 35.1717 38.6081C35.1108 38.5473 35.0346 38.5039 34.9511 38.4824C34.367 38.3939 33.7697 38.4845 33.2385 38.7422C33.1257 38.8093 33.0439 38.9178 33.0106 39.0444C32.9773 39.1709 32.9952 39.3055 33.0604 39.4191C33.1287 39.5304 33.2376 39.611 33.3642 39.6441C33.4908 39.6771 33.6253 39.6601 33.7396 39.5966L33.7392 39.5976Z" fill="#726A69"/>
<path d="M32.4745 43.1823C32.6867 41.8299 33.1156 40.3794 32.7098 39.0189C32.3278 37.7379 31.2021 36.7716 30.0992 36.0931C29.9853 36.0277 29.8502 36.0097 29.7231 36.0429C29.596 36.0761 29.4872 36.1579 29.4202 36.2706C28.991 37.1135 28.7191 38.0271 28.6177 38.9669C28.5617 39.7378 28.672 40.5116 28.9414 41.2363C29.1848 41.8874 29.7525 42.3739 30.2996 42.7741C30.7862 43.13 31.3789 43.5009 31.9955 43.5456C32.1268 43.5445 32.2524 43.492 32.3452 43.3994C32.438 43.3069 32.4907 43.1817 32.4918 43.0508C32.4894 42.9203 32.4363 42.7959 32.3438 42.7036C32.2512 42.6113 32.1263 42.5584 31.9955 42.556C31.9305 42.5513 32.0848 42.5894 31.9498 42.5442C31.9084 42.5304 31.866 42.5193 31.8257 42.5063C31.7333 42.4764 31.6442 42.4373 31.5597 42.3896C31.2943 42.2542 31.0407 42.097 30.8015 41.9195C30.5873 41.7617 30.388 41.5847 30.2061 41.3907C30.126 41.3089 30.0539 41.2198 29.9908 41.1243C29.9297 41.0445 29.885 40.9534 29.8595 40.8563C29.6515 40.2495 29.5671 39.6075 29.6113 38.9678C29.7 38.2016 29.9259 37.4575 30.2781 36.7708L29.5991 36.9483C30.494 37.4982 31.4917 38.2942 31.7733 39.3541C32.0836 40.5182 31.6987 41.7682 31.5179 42.9209C31.487 43.0473 31.5057 43.1807 31.5701 43.2938C31.6346 43.4069 31.7399 43.4912 31.8646 43.5295C31.9915 43.5634 32.1267 43.5462 32.241 43.4815C32.3552 43.4169 32.4394 43.31 32.4753 43.184L32.4745 43.1823Z" fill="#726A69"/>
<path d="M50.0004 54.4439C49.5002 54.5039 48.9829 54.1998 48.5114 54.0478C47.9852 53.8779 47.4529 53.7268 46.9189 53.5868C46.4455 53.4631 45.9691 53.345 45.4883 53.2536C45.066 53.1732 44.6197 53.0796 44.2315 53.3266C43.7765 53.6163 43.6445 54.1563 43.6549 54.6595C43.6666 55.229 43.7123 55.7982 43.7715 56.3644C43.84 57.02 43.9266 57.6758 44.0524 58.323C44.134 58.7424 44.1911 59.2508 44.5191 59.5617C45.0397 60.0565 45.9218 59.8215 46.5412 59.6831C47.3161 59.4924 48.0773 59.2505 48.8199 58.9591C49.1425 58.8058 49.4829 58.6932 49.8333 58.6238C50.1904 58.6102 50.545 58.6883 50.8631 58.8506C51.5663 59.1436 52.2411 59.4963 52.9491 59.7772C53.5581 60.0188 54.3614 60.3132 55.0207 60.1309C55.2694 60.067 55.4967 59.9389 55.6799 59.7594C55.863 59.58 55.9955 59.3557 56.0639 59.1089C56.3436 57.9272 56.3911 56.678 56.4193 55.4686C56.4315 54.9453 56.5053 54.3835 56.1816 53.9322C55.7839 53.378 55.2154 53.3755 54.6053 53.4569C53.8549 53.5565 53.1091 53.6938 52.3704 53.8588C51.9652 53.9491 51.5611 54.0476 51.164 54.168C50.7725 54.2878 50.4195 54.4923 50.0011 54.442C49.8696 54.4427 49.7438 54.4951 49.6509 54.5877C49.5579 54.6804 49.5054 54.8058 49.5047 54.9368C49.5078 55.0671 49.5611 55.1912 49.6535 55.2833C49.7459 55.3754 49.8704 55.4286 50.0011 55.4316C50.3425 55.4615 50.686 55.4047 50.9996 55.2667C51.3414 55.1419 51.6902 55.0368 52.0442 54.9521C52.6781 54.7913 53.3201 54.6608 53.9645 54.549C54.3571 54.4586 54.7573 54.4049 55.1599 54.3886C55.3018 54.3903 55.3461 54.4408 55.4098 54.5657C55.4859 54.7125 55.3711 54.4888 55.4305 54.6259C55.4793 54.7381 55.4327 54.5694 55.4352 54.6259C55.4398 54.729 55.4352 54.8321 55.4352 54.9352C55.4398 55.9757 55.3785 57.0156 55.2516 58.0484C55.2181 58.2958 55.1757 58.5416 55.1208 58.7846C55.1074 58.844 55.0888 58.9036 55.0776 58.9634C55.0516 59.1017 55.0828 58.9551 55.1 58.9271C55.0842 58.9527 55.029 59.0106 55.1031 58.9271C55.0617 58.9762 55.0164 59.0219 54.9676 59.0638C54.6392 59.3333 54.0127 59.105 53.6194 58.9725C52.9848 58.7352 52.3626 58.4665 51.7551 58.1672C51.1231 57.8822 50.5038 57.5787 49.792 57.6369C49.4627 57.6802 49.141 57.769 48.8363 57.9008C48.4665 58.0368 48.0971 58.1742 47.7246 58.3026C47.0716 58.5474 46.3953 58.725 45.7061 58.8327C45.5669 58.8585 45.4253 58.8692 45.2838 58.8644C45.1965 58.8554 45.2265 58.8675 45.1907 58.8306C45.2099 58.8512 45.2527 58.8787 45.1973 58.8366C45.1613 58.8094 45.1611 58.698 45.1944 58.843C45.1801 58.7811 45.1588 58.7193 45.1429 58.6574C45.0137 58.1319 44.9151 57.5993 44.8474 57.0625C44.77 56.4901 44.7136 55.9153 44.6782 55.338C44.6652 55.1302 44.6548 54.922 44.6494 54.714C44.647 54.6164 44.6436 54.5187 44.647 54.4212C44.6509 54.3053 44.6153 54.5286 44.6519 54.3965C44.6628 54.3503 44.6762 54.3047 44.692 54.26C44.659 54.3424 44.7311 54.195 44.7315 54.1942C44.7121 54.2266 44.7506 54.1684 44.756 54.1657C44.7909 54.148 44.8103 54.1523 44.884 54.153C44.9125 54.153 44.9415 54.1589 44.9698 54.1616C44.8902 54.154 44.9028 54.1511 44.975 54.1631C45.0662 54.1779 45.1574 54.1938 45.2482 54.2113C45.7431 54.3066 46.2333 54.4286 46.7203 54.5571C47.2531 54.6977 47.7836 54.8492 48.3072 55.0199C48.8596 55.2001 49.4048 55.504 50.0013 55.4323C50.1317 55.4284 50.2557 55.375 50.3479 55.283C50.4402 55.1911 50.4937 55.0675 50.4976 54.9375C50.4965 54.8065 50.4438 54.6813 50.3507 54.5889C50.2576 54.4965 50.1318 54.4444 50.0004 54.4439Z" fill="#726A69"/>
<path d="M45.7806 33.6088C45.8158 30.2358 45.7707 26.8615 45.6454 23.4861C45.6278 23.0105 45.6143 22.5332 45.5721 22.059C45.5682 21.929 45.5147 21.8054 45.4224 21.7134C45.3302 21.6215 45.2062 21.5681 45.0758 21.5642C44.4841 21.5373 43.8914 21.5409 43.3 21.5749C42.677 21.5715 42.0548 21.6232 41.4409 21.7296C41.3581 21.7523 41.2826 21.7962 41.2218 21.8568C41.1611 21.9174 41.1171 21.9927 41.0943 22.0753C40.9264 22.6594 40.4718 23.1191 40.0127 23.4962C39.5261 23.8936 38.9815 24.2146 38.3976 24.4481C38.2941 24.4793 38.2031 24.5424 38.1376 24.6283C38.0722 24.7142 38.0357 24.8185 38.0332 24.9264C38.0713 25.8438 38.0952 26.7622 38.1143 27.6803C38.1163 27.8109 38.1692 27.9356 38.2618 28.028C38.3545 28.1204 38.4796 28.1731 38.6106 28.1751C39.6282 28.171 40.6426 28.0654 41.6606 28.0625L41.1642 27.5677C41.1642 29.5506 41.2263 31.5333 41.2492 33.516C41.2713 35.478 41.3007 37.4398 41.3373 39.4016C41.3626 40.7956 41.3837 42.1899 41.3841 43.5842C41.386 43.7149 41.4389 43.8396 41.5316 43.932C41.6243 44.0244 41.7494 44.0771 41.8804 44.079H45.3773C45.5083 44.0769 45.6334 44.0242 45.726 43.9318C45.8186 43.8395 45.8716 43.7148 45.8737 43.5842C45.915 40.8422 45.8168 38.0955 45.7881 35.3535C45.7821 34.7723 45.7748 34.1908 45.7808 33.6096C45.7872 32.9725 44.7945 32.9721 44.7881 33.6096C44.7604 36.3516 44.8541 39.0977 44.8785 41.8405C44.8836 42.4217 44.8898 43.003 44.881 43.5842L45.3773 43.0894H41.8804L42.3768 43.5842C42.3768 41.1641 42.3148 38.7447 42.2717 36.3254C42.2397 34.5208 42.2318 32.7161 42.1998 30.9117C42.1801 29.7972 42.1584 28.6825 42.1569 27.5677C42.1551 27.4371 42.1023 27.3123 42.0096 27.2199C41.9169 27.1275 41.7917 27.0747 41.6606 27.0729C40.6426 27.0758 39.6282 27.1814 38.6106 27.1855L39.107 27.6803C39.0888 26.7622 39.064 25.8438 39.0259 24.9264L38.6615 25.4036C40.0348 24.8581 41.6205 23.8395 42.0517 22.3396L41.7048 22.6851C41.7485 22.6757 41.7923 22.6689 41.8364 22.6608C41.9028 22.6486 41.7392 22.6724 41.814 22.6633C41.8411 22.66 41.8684 22.6565 41.8957 22.6536C42.0335 22.6388 42.1716 22.6268 42.3094 22.6169C42.661 22.5913 43.0113 22.5757 43.3627 22.5635C43.9331 22.5318 44.5047 22.529 45.0754 22.555L44.579 22.0603C44.6737 23.122 44.6793 24.1961 44.7068 25.261C44.7526 27.0311 44.7808 28.8017 44.7914 30.5728C44.7976 31.585 44.798 32.5973 44.7875 33.6096C44.7813 34.245 45.774 34.2462 45.7806 33.6088Z" fill="#726A69"/>
<path d="M58.423 24.2546C61.0643 27.4332 61.1985 31.7637 60.7158 35.6734C60.5054 37.2257 60.0378 38.7324 59.3322 40.1319C59.0114 40.8235 58.5586 41.4463 57.9993 41.9656C57.3538 42.5634 56.5667 42.988 55.7116 43.1997C54.0885 43.5802 52.4088 42.9034 51.1916 41.8443C50.6659 41.3869 50.3309 40.6748 50.0541 40.0222C49.6948 39.1491 49.4452 38.2351 49.311 37.3009C49.0499 35.4558 48.9547 33.5911 49.0267 31.7291C49.0761 29.7674 49.4353 27.7633 50.2632 25.9724C50.8376 24.7296 51.6456 23.7105 52.8677 23.0118C53.5607 22.6054 54.349 22.3883 55.153 22.3822C55.9907 22.413 56.7932 22.7254 57.4301 23.2687C57.7918 23.5649 58.1242 23.895 58.4228 24.2544C58.5164 24.3462 58.6425 24.3977 58.7738 24.3977C58.9051 24.3977 59.0312 24.3462 59.1248 24.2544C59.2154 24.1603 59.266 24.035 59.266 23.9045C59.266 23.7741 59.2154 23.6487 59.1248 23.5547C58.4818 22.7578 57.6571 22.1257 56.7193 21.7111C55.8086 21.3545 54.8073 21.2982 53.8623 21.5505C52.302 21.9334 50.9482 23.0083 50.0448 24.3115C49.5617 25.0535 49.1792 25.856 48.9073 26.6981C48.5542 27.7271 48.3096 28.7901 48.1775 29.8697C48.0521 30.9754 48.0031 32.0883 48.031 33.2007C48.0391 34.1563 48.0668 35.112 48.1603 36.0635C48.3545 38.0385 48.7439 40.0602 49.8401 41.7559C50.2728 42.3863 50.8393 42.9142 51.4994 43.3021C52.3146 43.8209 53.238 44.1472 54.199 44.2562C56.2341 44.483 58.2069 43.4438 59.4412 41.8635C59.9472 41.1609 60.356 40.3936 60.6567 39.5823C61.0032 38.7993 61.2772 37.9864 61.4752 37.1537C61.8695 35.1624 62.007 33.129 61.8843 31.103C61.8114 28.9272 61.1984 26.8034 60.1001 24.9217C59.81 24.4424 59.4839 23.9856 59.1246 23.5553C59.031 23.4634 58.9049 23.4119 58.7736 23.4119C58.6422 23.4119 58.5162 23.4634 58.4226 23.5553C58.3322 23.6495 58.2817 23.7748 58.2817 23.9051C58.2817 24.0355 58.3322 24.1608 58.4226 24.255L58.423 24.2546Z" fill="#726A69"/>
<path d="M54.9141 38.7933C54.5146 38.7806 54.1363 38.6107 53.862 38.3208C53.5878 38.082 53.3663 37.7889 53.2116 37.4602C52.7262 36.4525 52.6658 35.3103 52.61 34.2122C52.5457 33.1075 52.5855 31.9992 52.7289 30.9019C52.853 30.0098 53.0317 29.0368 53.5222 28.2643C53.8887 27.687 54.5108 27.077 55.2595 27.0829C55.3988 27.1001 55.5318 27.1507 55.6471 27.2306C55.8249 27.3506 55.9854 27.4944 56.124 27.658C56.4735 28.0606 56.7619 28.5121 56.9802 28.9981C57.4683 30.0329 57.5558 31.1629 57.6141 32.288C57.6426 32.9977 57.6218 33.7086 57.5521 34.4155C57.5342 34.6276 57.5144 34.8395 57.4927 35.0513C57.4844 35.1305 57.476 35.2099 57.4667 35.289C57.4636 35.3162 57.46 35.3437 57.4569 35.3715C57.4433 35.4925 57.4722 35.2804 57.4569 35.3769C57.3672 35.894 57.2178 36.399 57.0117 36.8819C56.6551 37.7415 55.9554 38.768 54.9143 38.7931C54.2767 38.8084 54.2742 39.7982 54.9143 39.7828C56.0967 39.7543 57.1341 38.8577 57.6534 37.8468C58.0972 36.991 58.3777 36.0605 58.4807 35.1026C58.5812 34.3522 58.6331 33.596 58.636 32.8389C58.6046 31.5882 58.5338 30.2695 58.0877 29.0888C57.8621 28.4771 57.5513 27.9 57.1643 27.3747C56.8554 26.9139 56.4396 26.5342 55.9521 26.2677C54.9724 25.8067 53.8668 26.3605 53.1853 27.091C52.4919 27.8342 52.1413 28.7729 51.9289 29.7525C51.6755 30.9756 51.5626 32.2235 51.5926 33.472C51.6158 34.9359 51.6869 36.4675 52.2912 37.8223C52.7537 38.8587 53.7334 39.7584 54.9145 39.7828C55.5534 39.7962 55.5534 38.8065 54.9141 38.7933Z" fill="#726A69"/>
<path d="M53.6997 60.8884C53.3446 60.7688 52.9916 60.6432 52.6419 60.5086C52.4801 60.4468 52.313 60.388 52.1563 60.314C52.2787 60.3717 52.1838 60.3253 52.1544 60.3127C52.1156 60.2961 52.0771 60.2792 52.0388 60.262C51.9664 60.23 51.8945 60.197 51.8231 60.1631C51.7094 60.0968 51.574 60.0784 51.4466 60.1117C51.3193 60.145 51.2104 60.2274 51.144 60.3407C51.0776 60.454 51.059 60.589 51.0924 60.7159C51.1258 60.8429 51.2085 60.9514 51.3222 61.0176C52.0098 61.3337 52.7156 61.6091 53.4358 61.8423C53.5628 61.8763 53.698 61.8591 53.8123 61.7944C53.9266 61.7297 54.0107 61.6228 54.0466 61.4968C54.0784 61.3703 54.0602 61.2365 53.9956 61.1232C53.931 61.0098 53.825 60.9256 53.6997 60.8882V60.8884Z" fill="#726A69"/>
<path d="M46.5328 61.8426C47.2095 61.6141 47.8651 61.3321 48.528 61.0676C48.6507 61.0294 48.7558 60.949 48.8246 60.8408C48.8745 60.7558 48.8978 60.658 48.8916 60.5597C48.8854 60.4615 48.8499 60.3673 48.7898 60.2892C48.7296 60.2112 48.6474 60.1528 48.5538 60.1215C48.4601 60.0903 48.3593 60.0876 48.2641 60.1138C47.6023 60.3783 46.9456 60.6604 46.2687 60.889C46.1418 60.9239 46.034 61.0077 45.969 61.1218C45.904 61.236 45.8872 61.3712 45.9222 61.4977C45.9572 61.6243 46.0412 61.7317 46.1557 61.7965C46.2702 61.8613 46.4059 61.8781 46.5328 61.8432V61.8426Z" fill="#726A69"/>
<path d="M31.5221 43.0507C31.3198 45.6023 32.5355 48.07 33.9245 50.1328C34.6361 51.1761 35.4084 52.1769 36.2376 53.1301C37.0142 54.0618 37.88 54.9158 38.8228 55.68C39.8918 56.5596 41.1431 57.1922 42.4866 57.5323C43.1083 57.6766 43.3736 56.7218 42.7505 56.5779C40.4802 56.0538 38.7144 54.4428 37.2156 52.7462C35.6475 50.9711 34.1429 49.0155 33.2188 46.8208C32.6858 45.6381 32.4447 44.3454 32.5157 43.0507C32.5146 42.9198 32.4619 42.7946 32.3691 42.702C32.2762 42.6095 32.1506 42.557 32.0193 42.5559C31.8885 42.5585 31.7637 42.6115 31.6712 42.7037C31.5787 42.7959 31.5255 42.9203 31.5229 43.0507H31.5221Z" fill="#726A69"/>
<path d="M59.5532 55.7013C59.6249 55.6989 59.6949 55.7229 59.7499 55.7688C59.839 55.8312 59.8644 55.8436 59.8262 55.8061C59.8469 55.8203 59.9089 55.9067 59.8568 55.8345C59.8396 55.8106 59.819 55.7347 59.8603 55.8492C59.8492 55.8182 59.8372 55.7873 59.8283 55.7558C59.7838 55.5999 59.7504 55.4411 59.7284 55.2805C59.6658 54.7357 59.6809 54.1847 59.7735 53.6441C59.9756 52.4398 60.5705 51.3354 61.4661 50.5023H60.7629C61.0319 50.8151 61.2295 51.1824 61.342 51.5789C61.4306 51.9938 61.4454 52.4209 61.3856 52.8409C61.3865 52.9719 61.439 53.0972 61.5319 53.1898C61.6248 53.2824 61.7506 53.3348 61.882 53.3357C62.0127 53.3329 62.1373 53.2798 62.2298 53.1876C62.3223 53.0955 62.3755 52.9712 62.3783 52.8409C62.4463 52.3092 62.4134 51.7696 62.2813 51.2501C62.1115 50.7168 61.8334 50.224 61.4642 49.8025C61.3704 49.7107 61.2441 49.6592 61.1126 49.6592C60.9811 49.6592 60.8548 49.7107 60.761 49.8025C60.2187 50.3123 59.763 50.9064 59.4115 51.5616C59.0492 52.286 58.8229 53.0705 58.7437 53.8761C58.6656 54.5045 58.6861 55.1412 58.8043 55.7634C58.879 56.1345 59.0655 56.7217 59.5503 56.6912C59.681 56.6883 59.8056 56.6352 59.8981 56.543C59.9905 56.4509 60.0438 56.3267 60.0467 56.1964C60.0455 56.0655 59.9929 55.9403 59.9 55.8477C59.8072 55.7552 59.6816 55.7027 59.5503 55.7015L59.5532 55.7013Z" fill="#726A69"/>
<path d="M67.1861 47.6189C67.0755 47.584 67.2662 47.6749 67.1555 47.6073C67.1086 47.5789 67.0606 47.5523 67.014 47.5232C66.9094 47.458 67.0267 47.5438 66.9452 47.4719C66.8898 47.4222 66.8345 47.3735 66.782 47.3207C66.5319 47.0613 66.3243 46.7643 66.1667 46.4406C65.691 45.5231 65.5049 44.5124 65.9599 43.5469L65.3994 43.7737C65.4528 43.789 65.5049 43.8078 65.5576 43.8249C65.6641 43.8593 65.4902 43.7923 65.5498 43.8203C65.576 43.8327 65.6025 43.8445 65.6286 43.8574C65.6819 43.8849 65.734 43.9141 65.7847 43.9451C65.816 43.9646 65.957 44.0669 65.8675 43.997C65.9735 44.081 66.0718 44.1743 66.1611 44.2758C66.2461 44.3688 66.3196 44.4715 66.3802 44.5819C66.8072 45.2875 66.9539 46.1862 67.0103 47.0381C67.0133 47.1684 67.0666 47.2925 67.159 47.3846C67.2515 47.4768 67.376 47.5299 67.5067 47.5329C67.638 47.5318 67.7636 47.4793 67.8564 47.3867C67.9493 47.2942 68.0019 47.169 68.0031 47.0381C67.8974 45.4435 67.4446 43.3257 65.6627 42.8196C65.5572 42.7914 65.4454 42.7982 65.3442 42.8392C65.243 42.8801 65.158 42.9529 65.102 43.0464C64.7995 43.6558 64.6617 44.3334 64.7022 45.0122C64.7721 45.6642 64.9667 46.2968 65.2757 46.8756C65.6143 47.5512 66.1599 48.332 66.9208 48.5722C67.5313 48.7648 67.7925 47.8094 67.1847 47.6178L67.1861 47.6189Z" fill="#726A69"/>
<path d="M61.6723 55.6308C62.5953 54.9848 63.6993 54.6457 64.8269 54.6618C65.7603 54.6519 66.6101 54.8074 67.5073 54.908L67.0285 54.2816C66.8424 54.8344 66.5338 55.3382 66.1256 55.7558C65.7175 56.1734 65.2202 56.494 64.6708 56.6938C64.1074 56.8986 63.5075 56.9839 62.9092 56.9444C62.3109 56.9048 61.7275 56.7413 61.1962 56.4642C60.9807 56.3563 60.7738 56.2323 60.5772 56.0931C60.53 56.0599 60.5946 56.1077 60.5991 56.1112C60.5803 56.0963 60.5609 56.0817 60.5429 56.0658C60.5152 56.0411 60.4864 56.0176 60.4601 55.9916C60.4401 55.9681 60.4186 55.9459 60.3956 55.9252C60.342 55.8863 60.4626 56.0283 60.4163 55.9471C60.1005 55.3935 59.2426 55.8916 59.5592 56.4466C59.7547 56.7893 60.1648 57.0293 60.4984 57.2146C61.0566 57.5269 61.6631 57.7445 62.293 57.8583C63.0948 57.9961 63.9177 57.946 64.6967 57.7118C65.4757 57.4776 66.1892 57.0659 66.7809 56.5091C67.3503 55.9726 67.7663 55.2948 67.9863 54.5451C68.0051 54.4717 68.007 54.3951 67.9919 54.3208C67.9768 54.2466 67.945 54.1768 67.899 54.1165C67.8529 54.0562 67.7938 54.0072 67.7261 53.9729C67.6583 53.9387 67.5836 53.9202 67.5077 53.9188C67.1184 53.8752 66.6974 53.8076 66.2393 53.7553C65.7222 53.6919 65.2013 53.6652 64.6805 53.6755C63.4262 53.6811 62.203 54.0649 61.1716 54.7764C61.0608 54.8452 60.9806 54.9537 60.9475 55.0795C60.9144 55.2054 60.9308 55.3392 60.9935 55.4533C61.0606 55.5659 61.1695 55.6476 61.2966 55.6809C61.4237 55.7141 61.5588 55.6961 61.6727 55.6308H61.6723Z" fill="#726A69"/>
<path d="M64.6291 51.5613C64.4427 51.4184 64.2395 51.2986 64.024 51.2047C63.9638 51.168 63.9061 51.1284 63.8492 51.0867C63.9673 51.1729 63.8432 51.0799 63.8207 51.0593C63.7857 51.0269 63.7503 50.9948 63.7173 50.9608C63.6842 50.9267 63.6482 50.8863 63.6138 50.8482C63.5276 50.7503 63.6697 50.9307 63.5909 50.8202C63.5207 50.7221 63.4576 50.6192 63.4021 50.5121C63.2898 50.2762 63.2087 50.0267 63.1609 49.7699C63.0896 49.4043 63.0609 49.0317 63.0753 48.6595C63.0951 48.2691 63.2011 47.8878 63.3859 47.543C63.5707 47.1982 63.8296 46.8984 64.1441 46.6649H63.4422C63.9431 47.167 64.34 47.7625 64.6101 48.4174C64.7751 48.7702 64.9044 49.1386 64.9962 49.5169C65.0725 49.8147 65.0952 50.1236 65.0634 50.4293C65.032 50.5557 65.0504 50.6893 65.115 50.8026C65.1795 50.9158 65.2852 51.0001 65.4103 51.0379C65.5371 51.0715 65.6722 51.0541 65.7864 50.9895C65.9005 50.9249 65.9847 50.8182 66.0208 50.6923C66.1945 49.7872 65.8899 48.8691 65.5265 48.0484C65.1968 47.3039 64.7549 46.5179 64.1441 45.9646C64.0489 45.876 63.9234 45.8267 63.7932 45.8267C63.6629 45.8267 63.5374 45.876 63.4422 45.9646C62.8661 46.419 62.4438 47.0388 62.2325 47.7401C62.0469 48.4458 62.0284 49.1849 62.1785 49.899C62.327 50.7639 62.7479 51.5785 63.5104 52.0504C63.6114 52.1122 63.7173 52.1652 63.8238 52.2178C63.8612 52.2361 63.8982 52.2561 63.9359 52.2739C63.9493 52.2801 63.9702 52.3009 63.9847 52.3023C64.0221 52.306 63.8813 52.2135 63.927 52.2597C64.3743 52.7157 65.076 52.0157 64.6289 51.5599L64.6291 51.5613Z" fill="#726A69"/>
<path d="M68.0328 50.2083C68.7383 50.0425 69.4605 49.9583 70.1853 49.9572L69.689 49.4624C69.6922 49.5056 69.6922 49.5489 69.689 49.5921C69.689 49.6304 69.6631 49.7488 69.6917 49.5886C69.6842 49.6298 69.6778 49.671 69.6695 49.7123C69.6275 49.9179 69.567 50.1193 69.4888 50.3141C69.4669 50.3681 69.4642 50.375 69.4809 50.3347C69.4669 50.3665 69.4526 50.398 69.4377 50.4291C69.4068 50.4943 69.3741 50.5585 69.3397 50.6219C69.2661 50.7576 69.1839 50.8884 69.0935 51.0136C68.9165 51.2544 68.7042 51.4674 68.4638 51.6453C67.8179 52.1135 67.0365 52.3589 66.238 52.3443C65.7993 52.3053 65.3685 52.2035 64.9588 52.0422C64.3512 51.8408 64.0902 52.7962 64.6949 52.9964C65.0436 53.127 65.4036 53.2253 65.7704 53.29C66.7567 53.4167 67.7571 53.2094 68.611 52.7013C69.4649 52.1933 70.1229 51.414 70.4792 50.4885C70.6214 50.1655 70.6902 49.8152 70.6807 49.4626C70.6778 49.3322 70.6246 49.208 70.5321 49.1158C70.4397 49.0237 70.3151 48.9706 70.1843 48.9678C69.3705 48.9711 68.5597 49.0672 67.7678 49.2544C67.1499 49.4141 67.4119 50.3689 68.0317 50.2085L68.0328 50.2083Z" fill="#726A69"/>
<path d="M69.8405 44.8006C70.1955 44.5252 70.5779 44.2867 70.9817 44.0889C71.1301 44.0169 71.2831 43.9549 71.4398 43.9033C71.5225 43.8759 71.608 43.851 71.6936 43.8303C71.7378 43.8196 71.7823 43.8108 71.827 43.8015C71.8421 43.7984 71.9554 43.7827 71.8721 43.7926L71.3935 43.4293C71.5546 44.395 71.1151 45.502 70.3906 46.2003C70.317 46.2712 70.2425 46.3415 70.1662 46.4094C70.1265 46.4448 70.0862 46.4796 70.0452 46.5137C70.0301 46.5265 69.9071 46.6217 69.9873 46.5617C69.825 46.6838 69.6499 46.7882 69.4651 46.873C69.4335 46.8873 69.437 46.886 69.4753 46.8695C69.4453 46.8815 69.4151 46.893 69.3847 46.9038C69.3378 46.9207 69.2904 46.9363 69.2426 46.9506C69.1222 46.9865 68.9998 47.0155 68.8761 47.0374C68.5917 47.0799 68.3041 47.0983 68.0166 47.0924C67.3777 47.0903 67.3769 48.08 68.0166 48.082C68.6767 48.1062 69.3343 47.9886 69.9449 47.7373C70.3871 47.518 70.7874 47.2232 71.1275 46.8662C71.6117 46.3908 71.9752 45.8071 72.1879 45.1637C72.4006 44.5202 72.4564 43.8355 72.3506 43.1663C72.322 43.0617 72.2597 42.9694 72.1731 42.9037C72.0866 42.8381 71.9808 42.8027 71.8721 42.803C70.9399 42.9131 70.0748 43.3823 69.3396 43.9458C69.2291 44.015 69.1493 44.1234 69.1162 44.2492C69.0831 44.375 69.0993 44.5086 69.1615 44.6229C69.2285 44.7356 69.3373 44.8174 69.4644 44.8507C69.5915 44.8839 69.7267 44.8658 69.8405 44.8004V44.8006Z" fill="#726A69"/>
<path d="M68.4949 46.4458C68.5736 46.2738 68.6648 46.1078 68.7679 45.9492C68.8233 45.8638 68.8825 45.7811 68.9431 45.6993C68.9817 45.6467 68.9365 45.7088 68.9224 45.7261C68.9391 45.7067 68.9544 45.6848 68.9706 45.6657C69.0031 45.6254 69.0362 45.5857 69.0699 45.5467C69.3332 45.2437 69.6261 44.9675 69.9441 44.722C69.9901 44.6759 70.0266 44.6213 70.0515 44.5611C70.0763 44.501 70.089 44.4366 70.0888 44.3715C70.0882 44.2404 70.0363 44.1146 69.9441 44.021C69.8506 43.9285 69.7242 43.8767 69.5925 43.8767C69.4623 43.884 69.3385 43.9348 69.2409 44.021C68.5608 44.5262 68.0111 45.1855 67.6372 45.9444C67.5739 46.0611 67.5561 46.1969 67.5872 46.3258C67.6131 46.4197 67.6662 46.5039 67.7399 46.5679C67.8136 46.6318 67.9046 46.6726 68.0015 46.6853C68.0984 46.6979 68.1968 46.6817 68.2845 46.6388C68.3722 46.5959 68.4452 46.5281 68.4945 46.444L68.4949 46.4458Z" fill="#726A69"/>
<path d="M67.198 38.7434C66.6668 38.4858 66.0695 38.3952 65.4854 38.4837C65.4019 38.5052 65.3257 38.5485 65.2648 38.6093C65.2038 38.6701 65.1603 38.746 65.1387 38.8292C64.9898 39.3602 65.0081 39.9241 65.1913 40.4444C65.3548 40.8485 65.5801 41.2249 65.8593 41.5602C66.3881 42.2414 67.1352 42.7212 67.9761 42.9195C68.1029 42.9517 68.2373 42.9338 68.3512 42.8695C68.4651 42.8052 68.5497 42.6995 68.5872 42.5745C68.6208 42.4481 68.6033 42.3135 68.5385 42.1997C68.4737 42.086 68.3667 42.002 68.2406 41.9659C67.875 41.8943 67.5299 41.7429 67.2299 41.5226C67.221 41.5165 67.1232 41.4445 67.1678 41.4794C67.2063 41.5084 67.107 41.4293 67.0952 41.4192C67.0344 41.3677 66.9754 41.3143 66.9182 41.259C66.8088 41.1512 66.7053 41.0377 66.608 40.919C66.5701 40.8736 66.5666 40.8683 66.6059 40.919C66.5847 40.8915 66.5636 40.8634 66.5426 40.8347C66.507 40.7862 66.4725 40.7369 66.4392 40.6874C66.324 40.5277 66.2257 40.3566 66.1457 40.1768C66.0096 39.831 65.9924 39.4501 66.0967 39.0935L65.7501 39.4391C65.912 39.4219 66.0755 39.4276 66.2359 39.4558C66.3949 39.4861 66.5498 39.5345 66.6977 39.6001C66.8122 39.663 66.9465 39.6797 67.0729 39.6466C67.1993 39.6136 67.3082 39.5334 67.3769 39.4226C67.4422 39.309 67.4601 39.1744 67.4268 39.0478C67.3935 38.9212 67.3116 38.8127 67.1988 38.7457L67.198 38.7434Z" fill="#726A69"/>
<path d="M68.9204 42.9192C68.7392 41.7646 68.3582 40.5193 68.6649 39.3524C68.9437 38.2928 69.9462 37.4954 70.8394 36.9465L70.1602 36.769C70.5122 37.4558 70.738 38.1999 70.827 38.966C70.8713 39.6057 70.7869 40.2478 70.5788 40.8545C70.5066 41.0457 70.3958 41.2201 70.2533 41.3669C70.0663 41.5703 69.86 41.7554 69.6374 41.9194C69.3982 42.0969 69.1446 42.2541 68.8792 42.3895C68.7944 42.4367 68.7054 42.4758 68.6132 42.5062C68.5719 42.5194 68.5295 42.5309 68.4891 42.5441C68.3522 42.5874 68.5098 42.5511 68.4434 42.5559C68.3128 42.559 68.1883 42.6121 68.0959 42.7042C68.0035 42.7964 67.9502 42.9204 67.9471 43.0507C67.9481 43.1816 68.0007 43.3069 68.0936 43.3995C68.1864 43.492 68.3121 43.5445 68.4434 43.5455C69.0602 43.5008 69.6531 43.1299 70.1393 42.774C70.6866 42.3738 71.2541 41.8875 71.4975 41.2362C71.7669 40.5115 71.8773 39.7376 71.8212 38.9668C71.7198 38.027 71.4479 37.1134 71.0189 36.2705C70.9517 36.158 70.8428 36.0764 70.7158 36.0432C70.5887 36.01 70.4537 36.0279 70.3397 36.093C69.2393 36.7688 68.1061 37.7382 67.7293 39.0188C67.327 40.3822 67.7518 41.8273 67.9644 43.1822C68.0002 43.3083 68.0844 43.4153 68.1987 43.4799C68.313 43.5446 68.4482 43.5618 68.5752 43.5278C68.7003 43.4902 68.8062 43.406 68.8707 43.2927C68.9353 43.1793 68.9536 43.0456 68.9218 42.9192H68.9204Z" fill="#726A69"/>
<path d="M67.9216 43.0507C68.1109 45.4396 66.9531 47.7051 65.6547 49.6332C64.991 50.6071 64.2704 51.5412 63.4968 52.4308C62.7462 53.3296 61.9137 54.1572 61.0102 54.9032C60.0432 55.7038 58.9073 56.2763 57.6872 56.5779C57.0651 56.7222 57.3284 57.676 57.9511 57.5323C60.3819 56.9711 62.3165 55.2658 63.924 53.446C65.6005 51.5481 67.1787 49.4718 68.1595 47.1239C68.6951 45.8411 69.025 44.4465 68.9144 43.0507C68.9112 42.9205 68.8578 42.7965 68.7654 42.7044C68.673 42.6123 68.5486 42.5591 68.418 42.5559C68.2867 42.5569 68.161 42.6094 68.0682 42.702C67.9753 42.7945 67.9227 42.9198 67.9216 43.0507Z" fill="#726A69"/>
</g>
</svg>
