<svg width="130" height="80" viewBox="0 0 130 80" fill="none" xmlns="http://www.w3.org/2000/svg">
<mask id="mask0_1621_24574" style="mask-type:alpha" maskUnits="userSpaceOnUse" x="0" y="0" width="130" height="80">
<rect width="130" height="80" fill="#D9D9D9"/>
</mask>
<g mask="url(#mask0_1621_24574)">
<path d="M65.0562 5.57251C44.7043 5.57251 30.6367 21.2858 30.6367 39.6725C30.6367 60.2451 45.0069 74.4122 65.0576 74.4122C85.8808 74.4122 99.4783 60.1128 99.4783 39.6725C99.4783 21.1605 85.3367 5.57251 65.0562 5.57251Z" fill="white"/>
<path d="M51.0833 57.0705C48.877 56.1204 46.4728 56.6655 45.1406 56.8112C45.5248 58.0671 46.2315 58.9414 47.6667 59.734C50.6036 61.3556 53.6648 59.3671 53.916 58.8921L53.9623 58.8038L54.4234 58.8911C54.7074 58.9448 55.1792 56.886 54.4519 54.6462C54.0766 53.573 53.4409 52.6089 52.6015 51.8398C51.757 52.8549 51.5709 53.7057 51.7046 54.9764C51.7706 55.8736 51.9062 56.7643 52.1102 57.6406C51.7973 57.4021 51.4514 57.2101 51.0833 57.0705Z" fill="#65B005"/>
<path d="M48.7122 54.0756C48.2957 53.5674 47.874 53.0293 47.4628 52.4674L47.4317 52.3183C47.1236 50.8479 48.5327 48.1972 49.472 47.3633C49.9078 47.6969 50.2618 48.1249 50.5075 48.6149C50.7531 49.1048 50.8839 49.644 50.8901 50.1917C50.8937 53.4666 49.1364 53.6396 48.9067 53.8912L48.4977 54.339L47.4459 53.0057C46.2074 51.4379 44.6808 51.3494 44.6808 51.3494C43.8093 51.1324 42.9137 51.0273 42.0155 51.0367C41.9704 51.322 42.305 53.4724 44.3688 54.4574C46.4279 55.4402 47.7842 54.759 48.267 54.6017L48.9627 54.3768C48.9231 54.3316 48.8847 54.2854 48.8466 54.2392C48.802 54.185 48.7572 54.1305 48.7122 54.0756Z" fill="#65B005"/>
<path d="M81.9513 54.0756C82.3678 53.5674 82.7895 53.0293 83.2007 52.4674L83.2318 52.3183C83.5399 50.8479 82.1308 48.1972 81.1915 47.3633C80.7557 47.6969 80.4017 48.1249 80.156 48.6149C79.9104 49.1048 79.7796 49.644 79.7734 50.1917C79.7698 53.4666 81.5271 53.6396 81.7568 53.8912L82.1658 54.339L83.2188 53.0048C84.4561 51.437 85.9827 51.3477 85.9827 51.3477C86.8542 51.1307 87.7498 51.0256 88.648 51.035C88.6931 51.3203 88.3585 53.4707 86.2947 54.4557C84.2356 55.4385 82.8793 54.7573 82.3965 54.6L81.7008 54.3751C81.7404 54.3299 81.7788 54.2837 81.8169 54.2375C81.8616 54.1845 81.9064 54.1305 81.9513 54.0756Z" fill="#65B005"/>
<path d="M45.123 48.5722C45.1608 48.6548 45.1994 48.7371 45.2388 48.8192C42.8281 48.9842 42.1458 48.4103 41.1813 47.4561C40.7373 46.9741 40.4054 46.4003 40.2094 45.7757C40.0134 45.1511 39.958 44.4911 40.0473 43.8428C40.7666 43.9183 41.7947 44.3878 42.7094 45.0974C43.464 45.6554 44.0743 46.3847 44.4899 47.2247" fill="#65B005"/>
<path d="M43.2968 37.3321C42.778 36.7912 42.1893 36.3216 41.5462 35.9355C40.5299 38.0696 40.4592 39.533 41.0277 41.2331C41.4946 42.6294 45.1658 44.5953 44.1253 42.8981C45.7347 42.6874 46.5624 41.5884 46.9757 40.9567C47.1977 40.6455 47.3465 40.2884 47.4108 39.9119C47.4751 39.5355 47.4533 39.1494 47.347 38.7825C46.8168 38.7062 46.2758 38.7915 45.7951 39.0271L44.7575 39.7451C44.7575 39.7451 44.6475 39.8211 44.4752 39.9419C44.4617 39.7478 44.4383 39.5479 44.4028 39.3391C44.2378 38.5771 43.8535 37.8796 43.2968 37.3321Z" fill="#65B005"/>
<path d="M65.0575 57.4241C64.7725 57.4686 64.4808 57.4325 64.2154 57.32C62.9414 56.7783 59.6743 55.9348 59.0057 55.9273C58.4064 55.9206 58.2307 56.5943 58.2305 56.8582C58.2293 58.0594 58.4672 60.5896 58.868 62.0581C58.906 62.2271 59.0073 62.3752 59.1512 62.4724C59.2951 62.5696 59.4707 62.6084 59.6422 62.581C61.1484 62.4982 62.7549 61.8315 64.3983 61.2378C64.8287 61.1128 65.286 61.1128 65.7164 61.2378C67.3591 61.8315 68.9241 62.8792 70.43 62.9622C70.6496 62.9592 70.8649 62.9006 71.0556 62.7919C71.2463 62.6832 71.4063 62.528 71.5204 62.3409C71.9211 60.8737 71.9788 58.2198 71.9774 57.0809C71.9774 56.8163 71.7086 56.1998 71.1087 56.2063C69.8555 56.3306 68.6134 56.5486 67.3929 56.8584C67.142 56.9205 66.9009 56.9849 66.6784 57.0508C66.4136 57.126 66.1531 57.2159 65.8984 57.3202C65.6333 57.4324 65.342 57.4684 65.0575 57.4241Z" fill="#65B005"/>
<path d="M59.5562 32.54C59.6093 27.5932 59.4339 20.3909 59.313 19.0661C58.6724 19.018 55.8896 19.0856 55.2266 19.2383C54.8504 20.636 53.0236 21.8841 51.6758 22.4098C51.7141 23.3174 51.7653 25.3517 51.7706 25.6228C52.7181 25.6228 54.0199 25.4912 55.3286 25.4912C55.3286 27.554 55.4334 31.6006 55.4334 33.24C55.4334 35.5526 55.5854 40.3915 55.5854 44.1771H59.6646C59.6974 42.1637 59.536 34.552 59.5562 32.54Z" fill="#65B005"/>
<path d="M76.8056 23.5374C76.3906 22.7097 75.8829 21.9314 75.2922 21.2175C74.1401 19.8454 72.6921 18.8638 71.0675 18.8638C68.0997 18.8638 66.0154 21.1882 65.3027 22.4716C63.9937 24.8288 63.334 27.7966 63.334 30.8984C63.334 33.6027 63.376 35.2077 63.7944 37.6091C64.1351 39.5655 65.175 41.7995 65.9845 42.5095C66.9931 43.394 68.5576 44.4241 70.6896 44.4241C72.7445 44.4241 74.6641 43.1332 75.7671 41.6189C76.4376 40.6984 77.3309 38.5238 77.7823 36.945C78.0523 36.0014 78.3768 33.4687 78.3768 31.1758C78.3771 28.5192 78.145 26.176 76.8056 23.5374ZM74.3058 34.818C74.1226 35.7498 73.7929 36.6469 73.3289 37.4761C72.798 38.3473 71.7795 39.1648 70.7907 39.1648C69.7645 39.1648 69.2323 38.5346 68.7468 38.0259C68.3571 37.617 67.8224 36.3764 67.6928 35.2445C67.5341 33.9515 67.4706 32.6487 67.5027 31.3465C67.5548 29.7952 67.7886 27.8173 68.4196 26.4615C68.7627 25.7235 69.7655 24.3489 71.1944 24.3489C72.1434 24.3489 73.2316 25.7471 73.8274 27.1499C74.4718 28.6678 74.4631 30.0917 74.5512 31.5815C74.526 32.6637 74.4441 33.7439 74.3058 34.8176V34.818Z" fill="#65B005"/>
<path d="M79.5406 57.0705C81.7467 56.1204 84.1511 56.6655 85.4833 56.8112C85.0991 58.0671 84.3921 58.9414 82.957 59.734C80.02 61.3556 76.9588 59.3671 76.7091 58.8921L76.6627 58.8038L76.2016 58.8911C75.9176 58.9448 75.4459 56.886 76.1732 54.6462C76.5485 53.573 77.1842 52.6089 78.0236 51.8398C78.8681 52.8549 79.0541 53.7057 78.9205 54.9764C78.8545 55.8736 78.7189 56.7643 78.5149 57.6406C78.8273 57.4021 79.1728 57.2101 79.5406 57.0705Z" fill="#65B005"/>
<path d="M85.5006 48.5722C85.4628 48.6548 85.4242 48.7371 85.3848 48.8192C87.7955 48.9842 88.4776 48.4103 89.442 47.4561C89.8861 46.9741 90.218 46.4003 90.414 45.7757C90.61 45.1512 90.6654 44.4911 90.5761 43.8428C89.8566 43.9183 88.8284 44.3878 87.9137 45.0974C87.1592 45.6554 86.5489 46.3847 86.1335 47.2247" fill="#65B005"/>
<path d="M84.954 49.4415C84.4587 49.295 83.5003 48.4464 82.9337 46.5981C82.6658 45.6816 82.7531 44.6981 83.1784 43.8428C84.1279 44.1038 85.1007 45.0551 85.4103 47.4332" fill="#65B005"/>
<path d="M87.3259 37.3326C87.8447 36.7917 88.4334 36.3221 89.0765 35.936C90.0926 38.0701 90.1623 39.5335 89.5948 41.2336C89.1279 42.6299 85.4569 44.5958 86.4971 42.8986C84.8877 42.6879 84.0601 41.5888 83.6468 40.9572C83.4248 40.646 83.2761 40.2889 83.2118 39.9124C83.1476 39.5359 83.1694 39.1499 83.2757 38.783C83.8059 38.7067 84.3469 38.792 84.8277 39.0276L85.8652 39.7456C85.8652 39.7456 85.9752 39.8216 86.1473 39.9424C86.161 39.7483 86.1842 39.5484 86.2196 39.3396C86.3847 38.5776 86.7692 37.8801 87.3259 37.3326Z" fill="#65B005"/>
<path d="M45.6697 49.4415C46.1653 49.295 47.1234 48.4464 47.69 46.5981C47.9585 45.6818 47.8717 44.6983 47.4468 43.8428C46.4973 44.1038 45.5242 45.0551 45.2148 47.4332" fill="#65B005"/>
<path d="M64.9992 5.00018C61.0596 4.98794 57.1432 5.6021 53.3976 6.81951C46.4714 9.09089 40.4702 13.5388 36.2937 19.4966C34.2481 22.4163 32.6681 25.634 31.6098 29.0354C30.5214 32.5454 29.9787 36.2008 30.0006 39.8746C29.9998 43.6689 30.5378 47.4442 31.5987 51.0881C32.5839 54.4452 34.0813 57.6312 36.0384 60.5343C37.9365 63.3305 40.2673 65.8091 42.944 67.8778C45.6862 69.9822 48.7411 71.6472 51.9984 72.8124C55.4485 74.0348 59.0591 74.7489 62.7161 74.9321C66.5283 75.1498 70.3524 74.8434 74.0808 74.0215C77.4873 73.2713 80.7591 72.0073 83.783 70.2729C86.6693 68.6045 89.2676 66.484 91.4781 63.9928C93.6936 61.4798 95.5023 58.6378 96.8391 55.5691C98.2584 52.2802 99.2038 48.8077 99.6469 45.2547C100.148 41.5202 100.117 37.7339 99.5533 34.0082C98.9955 30.4479 97.8899 26.9947 96.2756 23.7705C94.6903 20.6062 92.6176 17.7088 90.1329 15.1838C87.6187 12.633 84.7105 10.5006 81.519 8.86758C78.1631 7.15929 74.5525 6.00254 70.8265 5.44202C68.8979 5.15 66.95 5.00231 64.9992 5.00018C64.2539 5.00018 64.2526 6.1547 64.9992 6.1547C68.8186 6.14399 72.6156 6.73811 76.248 7.91486C79.6082 9.0198 82.7679 10.6569 85.6059 12.7634C88.3449 14.8033 90.7414 17.2641 92.7058 20.0537C94.6993 22.8853 96.2396 26.0083 97.2717 29.311C98.3284 32.7146 98.8573 36.2591 98.8401 39.822C98.8469 43.4227 98.3706 47.0081 97.4239 50.483C96.5438 53.6927 95.1845 56.7522 93.3918 59.559C91.6614 62.2446 89.5134 64.6386 87.0283 66.6513C84.5002 68.6837 81.6654 70.3044 78.6291 71.4534C75.3073 72.7026 71.8215 73.4653 68.2802 73.7177C64.5972 74.014 60.8907 73.8011 57.2662 73.0849C53.921 72.4178 50.6965 71.2495 47.7022 69.6199C44.8179 68.0375 42.2045 66.0078 39.96 63.6068C37.7097 61.1812 35.8556 58.4184 34.4654 55.4193C32.9989 52.2271 32.0133 48.8364 31.5405 45.3572C31.0093 41.7173 31.0147 38.0196 31.5565 34.3813C32.0839 30.9353 33.1385 27.5904 34.6833 24.4632C36.2072 21.3892 38.2025 18.5707 40.5973 16.1093C43.0369 13.6119 45.864 11.5224 48.97 9.92084C52.2292 8.25442 55.7374 7.12436 59.3586 6.57442C61.2253 6.29135 63.111 6.15104 64.9992 6.1547C65.7443 6.1547 65.7457 5.00018 64.9992 5.00018Z" fill="#726A69"/>
<path d="M85.9364 16.9435C84.8416 15.9574 83.6766 15.0517 82.4505 14.2334C82.3177 14.1571 82.16 14.136 82.0117 14.1748C81.8635 14.2135 81.7365 14.309 81.6583 14.4405C81.5844 14.5735 81.5647 14.7298 81.6034 14.8769C81.6421 15.024 81.7362 15.1505 81.8661 15.2302C82.1547 15.4226 82.44 15.6202 82.7222 15.8229C82.867 15.9269 83.0108 16.0324 83.1536 16.1392C83.2873 16.239 83.4253 16.3443 83.5109 16.4112C84.0625 16.8413 84.598 17.2909 85.1174 17.7599C85.2263 17.8667 85.3732 17.9263 85.5259 17.9257C85.6787 17.925 85.825 17.8643 85.9331 17.7566C86.0411 17.6489 86.102 17.503 86.1027 17.3507C86.1033 17.1984 86.0435 17.0521 85.9364 16.9435Z" fill="#726A69"/>
<path d="M86.9524 19.4629C87.6975 19.4629 87.6987 18.3083 86.9524 18.3083C86.2061 18.3083 86.2059 19.4629 86.9524 19.4629Z" fill="#726A69"/>
<path d="M79.9928 12.7654C76.644 11.0017 73.0033 9.85532 69.2458 9.3815C65.7743 8.93491 62.2543 9.02782 58.8113 9.6569C55.8436 10.1978 52.9717 11.1703 50.2876 12.5432C47.7353 13.8541 45.3868 15.5265 43.3153 17.5084C41.2642 19.474 39.5032 21.7197 38.0847 24.1784C36.653 26.663 35.5758 29.3345 34.8843 32.1157C34.1781 34.9953 33.8686 37.9574 33.9642 40.9203C34.0401 43.944 34.5061 46.9453 35.3507 49.8503C36.14 52.5473 37.3007 55.1221 38.7996 57.5012C40.2433 59.7821 42.007 61.8453 44.037 63.6281C46.0898 65.4238 48.3891 66.9184 50.8655 68.0667C53.4453 69.2582 56.175 70.0963 58.9802 70.5583C62.0116 71.0561 65.0935 71.1751 68.1545 70.9126C71.0626 70.6836 73.9284 70.0779 76.6796 69.1111C79.2487 68.2028 81.6752 66.9355 83.8867 65.3469C86.0521 63.7772 87.9786 61.9039 89.6066 59.785C91.2361 57.6465 92.5602 55.2932 93.5411 52.7922C94.5845 50.12 95.2812 47.3259 95.614 44.4777C96.0448 41.1073 95.9821 37.6925 95.4279 34.3401C94.5368 29.0308 92.247 24.0527 88.7925 19.9151C88.6834 19.8078 88.5363 19.7477 88.3831 19.7477C88.2298 19.7477 88.0827 19.8078 87.9736 19.9151C87.868 20.0249 87.8091 20.1711 87.8091 20.3232C87.8091 20.4753 87.868 20.6216 87.9736 20.7314C90.1861 23.4028 91.9027 26.4462 93.0428 29.7186C94.2098 33.0953 94.7822 36.6478 94.7347 40.219C94.7171 43.0859 94.3525 45.9402 93.6489 48.7201C92.9964 51.2917 92.0014 53.7647 90.6905 56.0732C88.1495 60.5443 84.352 64.1768 79.7657 66.5233C77.3591 67.7499 74.7959 68.6438 72.147 69.1804C69.2587 69.7666 66.3087 69.9946 63.3642 69.8594C60.528 69.7477 57.7185 69.2679 55.0067 68.4321C52.4613 67.6436 50.0386 66.5053 47.8086 65.0498C45.6383 63.6248 43.6842 61.8969 42.0059 59.9189C40.3051 57.9018 38.8986 55.6553 37.8282 53.2461C36.6959 50.6789 35.9138 47.9721 35.5029 45.1978C35.0523 42.2887 34.9807 39.3336 35.2901 36.4062C35.5942 33.6362 36.281 30.9214 37.3309 28.339C38.8785 24.4993 41.2426 21.0396 44.2602 18.1981C47.2778 15.3565 50.8774 13.2007 54.811 11.8789C57.67 10.9234 60.6527 10.3856 63.6663 10.2823C67.3855 10.1314 71.1027 10.6284 74.6506 11.7509C76.2932 12.2794 77.8854 12.9522 79.4086 13.7615C80.0664 14.1105 80.6522 13.1142 79.9932 12.7647L79.9928 12.7654Z" fill="#726A69"/>
<path d="M45.1574 47.4375C45.1123 47.7858 45.0811 48.1646 45.0664 48.5764Z" fill="#C4B7AE"/>
<path d="M44.5773 47.4374C44.529 47.8152 44.5001 48.1955 44.4863 48.5763C44.4863 48.7294 44.5473 48.8762 44.6559 48.9845C44.7645 49.0927 44.9118 49.1536 45.0654 49.1536C45.219 49.1536 45.3663 49.0927 45.4749 48.9845C45.5835 48.8762 45.6445 48.7294 45.6445 48.5763C45.6583 48.1955 45.6867 47.8152 45.7355 47.4374C45.7359 47.3614 45.7212 47.2862 45.6922 47.216C45.6632 47.1458 45.6205 47.082 45.5666 47.0284C45.458 46.9202 45.3107 46.8594 45.1571 46.8594C45.0035 46.8594 44.8562 46.9202 44.7476 47.0284L44.6572 47.1451C44.6053 47.2336 44.578 47.3342 44.578 47.4366L44.5773 47.4374Z" fill="#726A69"/>
<path d="M54.3657 59.4728C54.9206 59.5079 55.1402 58.8474 55.2297 58.4207C55.3749 57.6856 55.4009 56.932 55.3069 56.1887C55.215 55.2657 54.9588 54.3663 54.5505 53.5327C54.1384 52.7504 53.5986 52.0419 52.9532 51.4362C52.844 51.3291 52.6969 51.269 52.5437 51.269C52.3905 51.269 52.2434 51.3291 52.1343 51.4362C51.7034 51.9279 51.3788 52.5028 51.1807 53.125C51.0266 53.7312 50.9882 54.3608 51.0675 54.981C51.0717 55.1328 51.134 55.2773 51.2417 55.3846C51.3494 55.492 51.4943 55.5542 51.6466 55.5583C51.7999 55.5572 51.9465 55.4961 52.0549 55.388C52.1633 55.28 52.2246 55.1338 52.2257 54.981C52.1561 54.491 52.1734 53.9927 52.2769 53.5087C52.408 53.0461 52.6386 52.6175 52.9525 52.2526H52.1343C53.1785 53.2251 53.8724 54.5132 54.109 55.9181C54.2127 56.5364 54.2317 57.1659 54.1654 57.7893C54.1449 57.982 54.1069 58.1724 54.052 58.3584C54.0385 58.4029 54.0238 58.4469 54.0074 58.4907C54.0342 58.4185 54.0484 58.4512 54.0194 58.4589C54.0122 58.4733 54.0045 58.4875 53.9953 58.5012C53.9707 58.5412 53.9878 58.5209 54.0467 58.4404C53.989 58.4851 54.2851 58.3131 54.3652 58.3182C53.6208 58.2713 53.6237 59.4261 54.3652 59.4728H54.3657Z" fill="#726A69"/>
<path d="M45.7666 50.0027C46.6547 49.7222 47.2898 48.8113 47.6858 48.0233C48.0465 47.3481 48.2737 46.61 48.3549 45.8493C48.4021 45.0574 48.2414 44.2669 47.8885 43.5558C47.8235 43.4465 47.7244 43.3614 47.6063 43.3136C47.4881 43.2659 47.3576 43.258 47.2346 43.2913C45.1559 43.8818 44.6272 46.3525 44.5039 48.2128C44.5039 48.3659 44.5649 48.5128 44.6735 48.621C44.7821 48.7293 44.9294 48.7901 45.083 48.7901C45.2366 48.7901 45.3839 48.7293 45.4925 48.621C45.6011 48.5128 45.6621 48.3659 45.6621 48.2128C45.728 47.2187 45.8988 46.1707 46.3973 45.3473C46.4456 45.2682 46.4965 45.1915 46.55 45.1159C46.5756 45.0794 46.5918 45.0599 46.5549 45.1068C46.5862 45.0669 46.6193 45.0279 46.6528 44.9902C46.7526 44.8779 46.8613 44.7739 46.9778 44.6791C47.0328 44.6342 46.8941 44.7347 46.9848 44.6758C47.015 44.6563 47.0444 44.6351 47.0748 44.6159C47.1337 44.5784 47.1955 44.5437 47.2565 44.5115C47.2869 44.4961 47.3178 44.4821 47.3484 44.467C47.445 44.4189 47.272 44.4942 47.339 44.4711C47.4061 44.448 47.4734 44.4242 47.5424 44.4044L46.8883 44.1399C47.4191 45.266 47.2032 46.4454 46.647 47.5158C46.4668 47.8849 46.2313 48.2245 45.9487 48.5231C45.8872 48.5859 45.8233 48.6451 45.7574 48.703C45.7456 48.7136 45.6404 48.7966 45.706 48.7468C45.7716 48.697 45.6614 48.7771 45.6577 48.7788C45.6095 48.8103 45.5593 48.8397 45.5086 48.8688C45.3523 48.958 45.581 48.8515 45.457 48.8904C44.7491 49.1139 45.0514 50.229 45.7649 50.0039L45.7666 50.0027Z" fill="#726A69"/>
<path d="M52.4766 57.2388C51.2733 56.4087 49.8462 55.9609 48.3829 55.9544C47.2756 55.9231 46.0759 56.1271 45.0845 56.2382C44.9959 56.2399 44.9088 56.2615 44.8297 56.3014C44.7506 56.3414 44.6817 56.3986 44.628 56.4689C44.5742 56.5392 44.5372 56.6207 44.5196 56.7073C44.5019 56.7939 44.5042 56.8834 44.5261 56.969C45.0591 58.6705 46.3488 59.884 47.9901 60.5503C49.6212 61.2125 51.4851 60.9782 53.033 60.2046C53.4963 59.973 54.092 59.6553 54.3601 59.1874C54.729 58.5406 53.7286 57.9581 53.3599 58.6046C53.3194 58.6768 53.4654 58.5084 53.3442 58.6222C53.2851 58.6775 53.226 58.7314 53.163 58.7828C53.1474 58.7954 53.2231 58.7427 53.1324 58.8033C53.0892 58.8322 53.0475 58.8625 53.0043 58.8908C52.8897 58.9659 52.7719 59.0352 52.6517 59.1018C52.1189 59.3916 51.5434 59.5955 50.9466 59.7058C50.1971 59.8358 49.4275 59.7895 48.6991 59.5706C47.9707 59.3516 47.3037 58.9661 46.7513 58.4447C46.2283 57.9605 45.8456 57.345 45.6431 56.6628L45.0845 57.3935C46.1295 57.2764 47.1236 57.0948 48.2116 57.1063C49.5271 57.0875 50.8151 57.4832 51.8919 58.2368C52.0249 58.3127 52.1825 58.3333 52.3306 58.2944C52.4787 58.2554 52.6055 58.1599 52.6836 58.0285C52.7577 57.8956 52.7775 57.7392 52.7387 57.5921C52.7 57.445 52.6059 57.3184 52.4758 57.2388H52.4766Z" fill="#726A69"/>
<path d="M49.2592 54.305C49.2997 54.2636 49.1028 54.3844 49.2259 54.3341C49.264 54.3187 49.3014 54.2947 49.3385 54.2761C49.4421 54.2242 49.547 54.1754 49.6479 54.1181C49.9755 53.9347 50.2655 53.6913 50.5025 53.4006C50.8599 52.9465 51.1109 52.4184 51.2372 51.8552C51.4441 51.0353 51.4716 50.1807 51.3178 49.3493C51.1151 48.4038 50.5868 47.5588 49.8247 46.9607C49.7138 46.857 49.5674 46.7993 49.4153 46.7993C49.2632 46.7993 49.1168 46.857 49.0058 46.9607C48.2935 47.6063 47.7777 48.5242 47.393 49.3918C46.9691 50.3494 46.6137 51.4205 46.8164 52.4765C46.8585 52.6233 46.9568 52.7478 47.09 52.8232C47.2232 52.8986 47.3808 52.9188 47.5289 52.8796C47.6752 52.8362 47.799 52.738 47.8744 52.6057C47.9497 52.4733 47.9708 52.317 47.9333 52.1695C47.9124 52.0068 47.907 51.8425 47.9171 51.6788C47.9298 51.498 47.9584 51.3185 48.0028 51.1427C48.1099 50.6881 48.2635 50.2457 48.4612 49.8224C48.7765 49.0584 49.2395 48.3637 49.8238 47.7778H49.0058C49.3728 48.0502 49.6749 48.4 49.8904 48.8022C50.106 49.2045 50.2297 49.6493 50.2528 50.1048C50.2696 50.539 50.2361 50.9737 50.1529 51.4003C50.0971 51.6999 50.0026 51.991 49.8716 52.2662C49.8068 52.3907 49.7331 52.5104 49.6513 52.6244C49.5789 52.7242 49.7109 52.5614 49.6245 52.6571C49.5847 52.7011 49.5461 52.7461 49.5038 52.7884C49.4616 52.8308 49.4235 52.8656 49.3832 52.9034C49.3571 52.9275 49.2121 53.0362 49.3499 52.9354C49.2835 52.9835 49.2162 53.0302 49.146 53.073C48.8946 53.1826 48.6575 53.3223 48.44 53.4891C47.9186 54.0207 48.7368 54.8378 49.2589 54.3055L49.2592 54.305Z" fill="#726A69"/>
<path d="M44.7788 50.7958C43.8549 50.5775 42.9091 50.4653 41.9596 50.4614C41.8073 50.4654 41.6623 50.5275 41.5546 50.635C41.4468 50.7424 41.3845 50.8869 41.3805 51.0387C41.3684 51.3786 41.4251 51.7174 41.5472 52.035C41.7326 52.6255 42.0246 53.1773 42.4089 53.6632C42.9315 54.2961 43.597 54.7967 44.351 55.124C45.1049 55.4513 45.9259 55.596 46.7467 55.5463C47.2997 55.4861 47.8428 55.3568 48.3634 55.1615C49.0672 54.9282 48.7656 53.8128 48.0555 54.0483C47.8516 54.1156 47.6525 54.1955 47.4462 54.2554C47.1722 54.3397 46.8883 54.3882 46.6017 54.3997C45.6578 54.4256 44.7318 54.1395 43.9681 53.586C43.6877 53.3788 43.44 53.1308 43.2334 52.8504C43.1279 52.7044 43.032 52.5517 42.9462 52.3934C42.9058 52.3196 42.8677 52.2447 42.8319 52.1685C42.8145 52.1322 42.7978 52.0963 42.7814 52.0583C42.7973 52.0968 42.7978 52.098 42.7829 52.0615C42.6864 51.8259 42.6123 51.5819 42.5614 51.3326C42.5517 51.2845 42.5442 51.2364 42.5356 51.1883C42.5688 51.3752 42.5394 51.2364 42.5387 51.1924C42.5349 51.142 42.5349 51.0915 42.5387 51.0411L41.9596 51.6184C42.8052 51.6197 43.6479 51.718 44.4709 51.9114C45.1929 52.098 45.5007 50.9848 44.7788 50.7982V50.7958Z" fill="#726A69"/>
<path d="M42.9447 44.6031C42.0869 43.9457 41.0776 43.3982 39.9901 43.2698C39.8632 43.2693 39.7397 43.3106 39.6388 43.3872C39.5378 43.4639 39.4651 43.5715 39.4318 43.6936C39.3085 44.4744 39.3736 45.2733 39.6219 46.0239C39.8701 46.7746 40.2942 47.4555 40.859 48.0102C41.2559 48.4266 41.7228 48.7706 42.2387 49.0265C42.951 49.3197 43.7183 49.4568 44.4884 49.4287C45.2335 49.4263 45.235 48.2717 44.4884 48.2741C44.153 48.2805 43.8175 48.2591 43.4857 48.2099C43.3413 48.1844 43.1985 48.1505 43.0581 48.1086C43.0023 48.0926 42.947 48.0744 42.8923 48.054C42.873 48.0473 42.7311 47.9893 42.8231 48.03C42.5981 47.9297 42.3854 47.8041 42.1892 47.6555C42.2816 47.7242 42.1605 47.6314 42.141 47.6165C42.0862 47.5713 42.0326 47.5248 41.9795 47.4777C41.8905 47.3986 41.8036 47.3165 41.7177 47.2338C40.8732 46.4189 40.3595 45.1282 40.548 44.001L39.9904 44.4243C39.9066 44.4145 40.1219 44.4506 40.1672 44.4609C40.2662 44.485 40.3641 44.5114 40.4609 44.5424C40.6554 44.6048 40.8453 44.6808 41.0291 44.7698C41.5002 45.0005 41.9463 45.2787 42.3605 45.6001C42.4933 45.6766 42.651 45.6977 42.7993 45.6589C42.9477 45.6201 43.0746 45.5246 43.1527 45.393C43.2264 45.2599 43.2459 45.1037 43.2072 44.9566C43.1686 44.8096 43.0744 44.683 42.9447 44.6031Z" fill="#726A69"/>
<path d="M44.9335 46.9377C44.4974 46.0523 43.856 45.2831 43.0626 44.6938C42.9508 44.59 42.805 44.5302 42.6524 44.5254C42.4989 44.5261 42.3517 44.5865 42.2422 44.6938C42.0513 44.9011 41.9874 45.3115 42.2422 45.5101C42.6132 45.7965 42.9548 46.1188 43.2621 46.4723C43.2975 46.5135 43.3323 46.5551 43.3666 46.5971C43.3857 46.6212 43.404 46.644 43.4231 46.6674C43.4689 46.7241 43.3357 46.5507 43.4091 46.6503C43.4761 46.741 43.542 46.8326 43.6038 46.9269C43.728 47.1165 43.8376 47.3152 43.9319 47.5213C44.0084 47.6509 44.1325 47.7458 44.2779 47.7858C44.389 47.8165 44.5067 47.8134 44.616 47.777C44.7253 47.7405 44.8212 47.6724 44.8915 47.5813C44.9617 47.4903 45.0031 47.3804 45.0103 47.2657C45.0176 47.1511 44.9903 47.0368 44.9321 46.9377H44.9335Z" fill="#726A69"/>
<path d="M46.0297 39.5304C46.2019 39.453 46.3828 39.3965 46.5685 39.3621C46.7555 39.3285 46.9464 39.3219 47.1353 39.3426L46.7309 38.9395C46.8523 39.3555 46.8322 39.7998 46.6737 40.2032C46.5834 40.4077 46.4722 40.6023 46.3417 40.7839C46.299 40.8469 46.2552 40.9092 46.2102 40.9708C46.1901 40.9982 46.1692 41.0249 46.1491 41.0526C46.125 41.0855 46.2162 40.9717 46.1339 41.0699C46.0239 41.2012 45.9112 41.3294 45.7889 41.4494C45.7231 41.5136 45.655 41.576 45.5848 41.6368C45.5449 41.6707 45.5046 41.7042 45.4641 41.7364C45.5541 41.6659 45.4158 41.7706 45.4091 41.7742C45.0592 42.0312 44.6565 42.2078 44.2299 42.2913C44.1566 42.3115 44.088 42.3458 44.028 42.3924C43.968 42.439 43.9178 42.4969 43.8802 42.5628C43.8427 42.6288 43.8185 42.7014 43.8091 42.7767C43.7997 42.8519 43.8053 42.9283 43.8255 43.0014C43.8457 43.0745 43.8802 43.1429 43.9269 43.2027C43.9737 43.2625 44.0318 43.3126 44.0979 43.35C44.164 43.3874 44.2369 43.4115 44.3124 43.4209C44.3879 43.4302 44.4645 43.4247 44.5378 43.4045C45.5188 43.1732 46.3905 42.6134 47.0074 41.8187C47.3337 41.4279 47.5966 40.9887 47.7867 40.5169C47.9996 39.9097 48.021 39.2522 47.848 38.6325C47.8229 38.5355 47.7721 38.4469 47.701 38.376C47.6299 38.3051 47.541 38.2545 47.4436 38.2294C46.7622 38.1261 46.0653 38.2318 45.4455 38.5325C45.314 38.6107 45.2185 38.7373 45.1797 38.885C45.1408 39.0326 45.1617 39.1896 45.2378 39.3221C45.3175 39.452 45.4445 39.546 45.5922 39.5846C45.7399 39.6232 45.8968 39.6034 46.0302 39.5292L46.0297 39.5304Z" fill="#726A69"/>
<path d="M44.5532 43.7126C44.8008 42.1347 45.3012 40.4425 44.8278 38.8553C44.3821 37.3608 43.0688 36.2334 41.782 35.4418C41.6492 35.3655 41.4916 35.3445 41.3433 35.3833C41.195 35.422 41.068 35.5175 40.9899 35.6489C40.4892 36.6323 40.172 37.6982 40.0537 38.7946C39.9883 39.6939 40.117 40.5967 40.4313 41.4422C40.7153 42.2018 41.3776 42.7695 42.0158 43.2364C42.5836 43.6515 43.2751 44.0842 43.9944 44.1364C44.1476 44.1351 44.2941 44.0739 44.4024 43.9659C44.5107 43.8579 44.5722 43.7119 44.5735 43.5592C44.5706 43.4069 44.5087 43.2617 44.4007 43.1541C44.2927 43.0464 44.1471 42.9847 43.9944 42.9819C43.9186 42.9763 44.0986 43.0208 43.9411 42.9682C43.8928 42.952 43.8433 42.9391 43.7963 42.9239C43.6886 42.889 43.5846 42.8433 43.486 42.7878C43.1763 42.6298 42.8805 42.4464 42.6014 42.2393C42.3515 42.0552 42.119 41.8487 41.9068 41.6224C41.8133 41.527 41.7292 41.4229 41.6556 41.3116C41.5843 41.2185 41.5322 41.1122 41.5024 40.9989C41.2597 40.291 41.1613 39.5419 41.2128 38.7956C41.3164 37.9017 41.5799 37.0336 41.9907 36.2325L41.1986 36.4396C42.2426 37.0811 43.4066 38.0098 43.7352 39.2464C44.0972 40.6044 43.6481 42.0628 43.4373 43.4076C43.4012 43.5551 43.423 43.7106 43.4982 43.8426C43.5733 43.9746 43.6962 44.073 43.8417 44.1177C43.9897 44.1572 44.1475 44.1371 44.2808 44.0617C44.4141 43.9862 44.5123 43.8615 44.5542 43.7145L44.5532 43.7126Z" fill="#726A69"/>
<path d="M65.0015 56.851C64.4178 56.921 63.8144 56.5662 63.2642 56.3889C62.6504 56.1907 62.0293 56.0144 61.4063 55.8511C60.854 55.7068 60.2983 55.5689 59.7373 55.4624C59.2446 55.3686 58.7239 55.2594 58.271 55.5475C57.7402 55.8855 57.5862 56.5154 57.5983 57.1026C57.6121 57.7669 57.6654 58.4311 57.7344 59.0916C57.8143 59.8565 57.9154 60.6216 58.0621 61.3766C58.1574 61.8659 58.224 62.4591 58.6066 62.8218C59.214 63.3991 60.2431 63.1249 60.9657 62.9635C61.8697 62.741 62.7578 62.4588 63.6242 62.1187C64.0005 61.9399 64.3977 61.8085 64.8065 61.7276C65.2231 61.7117 65.6368 61.8028 66.0079 61.9922C66.8283 62.334 67.6156 62.7455 68.4415 63.0731C69.1521 63.355 70.0893 63.6985 70.8585 63.4859C71.1486 63.4113 71.4138 63.2618 71.6275 63.0525C71.8411 62.8431 71.9957 62.5814 72.0756 62.2936C72.4018 60.9148 72.4573 59.4574 72.4901 58.0464C72.5043 57.436 72.5905 56.7805 72.2129 56.254C71.7489 55.6074 71.0856 55.6045 70.3738 55.6995C69.4984 55.8157 68.6283 55.9759 67.7664 56.1683C67.2937 56.2737 66.8223 56.3887 66.359 56.5291C65.9022 56.6689 65.4903 56.9075 65.0022 56.8488C64.8489 56.8496 64.7021 56.9107 64.5937 57.0188C64.4852 57.1269 64.424 57.2733 64.4231 57.4261C64.4267 57.5781 64.4889 57.7228 64.5967 57.8303C64.7046 57.9378 64.8498 57.9998 65.0022 58.0034C65.4006 58.0382 65.8013 57.972 66.1672 57.811C66.566 57.6653 66.9729 57.5428 67.3859 57.4439C68.1255 57.2563 68.8744 57.104 69.6263 56.9737C70.0843 56.8682 70.5512 56.8055 71.0209 56.7865C71.1864 56.7884 71.2381 56.8474 71.3124 56.9931C71.4012 57.1644 71.2673 56.9034 71.3365 57.0634C71.3935 57.1942 71.3392 56.9975 71.3421 57.0634C71.3474 57.1836 71.3421 57.3039 71.3421 57.4242C71.3475 58.6382 71.2759 59.8513 71.1278 61.0563C71.0887 61.3449 71.0392 61.6316 70.9753 61.9152C70.9596 61.9845 70.9379 62.054 70.9249 62.1238C70.8945 62.2852 70.9309 62.1141 70.9509 62.0814C70.9326 62.1112 70.8682 62.1788 70.9545 62.0814C70.9063 62.1387 70.8534 62.1921 70.7965 62.2409C70.4133 62.5553 69.6825 62.289 69.2236 62.1343C68.4833 61.8576 67.7574 61.544 67.0486 61.1948C66.3112 60.8624 65.5888 60.5083 64.7583 60.5761C64.3741 60.6267 63.9988 60.7303 63.6433 60.884C63.2119 61.0428 62.7809 61.203 62.3464 61.3528C61.5846 61.6384 60.7955 61.8456 59.9914 61.9713C59.829 62.0014 59.6638 62.0138 59.4987 62.0083C59.3969 61.9977 59.4318 62.0119 59.3901 61.9688C59.4125 61.9929 59.4625 62.0249 59.3978 61.9758C59.3558 61.9441 59.3556 61.8142 59.3945 61.9833C59.3778 61.9111 59.3529 61.839 59.3344 61.7668C59.1837 61.1537 59.0686 60.5324 58.9896 59.906C58.8993 59.2383 58.8335 58.5677 58.7922 57.8942C58.777 57.6517 58.7649 57.4088 58.7587 57.1661C58.7558 57.0523 58.7519 56.9383 58.7558 56.8245C58.7603 56.6893 58.7188 56.9498 58.7616 56.7957C58.7742 56.7418 58.7899 56.6886 58.8084 56.6364C58.7698 56.7326 58.854 56.5607 58.8544 56.5597C58.8318 56.5975 58.8766 56.5296 58.8829 56.5265C58.9237 56.5058 58.9464 56.5109 59.0323 56.5116C59.0656 56.5116 59.0994 56.5186 59.1324 56.5217C59.0395 56.5128 59.0542 56.5094 59.1384 56.5234C59.2449 56.5407 59.3513 56.5592 59.4572 56.5797C60.0346 56.6908 60.6064 56.8332 61.1747 56.983C61.7962 57.1471 62.4151 57.3239 63.0261 57.523C63.6706 57.7333 64.3066 58.0878 65.0025 58.0041C65.1546 57.9996 65.2993 57.9373 65.4069 57.83C65.5145 57.7227 65.577 57.5785 65.5816 57.4268C65.5803 57.2741 65.5187 57.128 65.4101 57.0202C65.3015 56.9124 65.1547 56.8516 65.0015 56.851Z" fill="#726A69"/>
<path d="M60.0777 32.5435C60.1187 28.6083 60.0661 24.6717 59.9199 20.7337C59.8994 20.1788 59.8837 19.622 59.8345 19.0688C59.8299 18.9171 59.7675 18.7729 59.6598 18.6656C59.5522 18.5583 59.4075 18.496 59.2554 18.4915C58.5651 18.4601 57.8736 18.4643 57.1837 18.504C56.4568 18.5 55.7309 18.5603 55.0148 18.6844C54.9181 18.711 54.83 18.7621 54.7591 18.8328C54.6882 18.9035 54.637 18.9914 54.6104 19.0878C54.4144 19.7692 53.8841 20.3056 53.3484 20.7455C52.7808 21.2091 52.1454 21.5836 51.4642 21.856C51.3434 21.8925 51.2373 21.9661 51.1609 22.0663C51.0846 22.1665 51.0419 22.2882 51.0391 22.414C51.0835 23.4843 51.1114 24.5559 51.1336 25.6269C51.136 25.7793 51.1977 25.9248 51.3058 26.0326C51.4139 26.1403 51.5599 26.2019 51.7127 26.2042C52.8999 26.1994 54.0834 26.0762 55.271 26.0729L54.6919 25.4956C54.6919 27.809 54.7643 30.1221 54.7911 32.4352C54.8168 34.7242 54.8511 37.0131 54.8939 39.3017C54.9233 40.9282 54.9479 42.5548 54.9484 44.1815C54.9506 44.3339 55.0124 44.4795 55.1205 44.5872C55.2286 44.695 55.3746 44.7565 55.5275 44.7588H59.6072C59.76 44.7564 59.9059 44.6948 60.014 44.587C60.1221 44.4793 60.1839 44.3339 60.1863 44.1815C60.2345 40.9825 60.1199 37.778 60.0864 34.579C60.0794 33.901 60.0709 33.2225 60.0779 32.5444C60.0854 31.8012 58.9272 31.8007 58.9198 32.5444C58.8874 35.7434 58.9967 38.9472 59.0252 42.1472C59.0312 42.8252 59.0385 43.5035 59.0281 44.1815L59.6072 43.6043H55.5275L56.1066 44.1815C56.1066 41.358 56.0342 38.5354 55.984 35.7129C55.9466 33.6076 55.9374 31.502 55.9 29.3969C55.8771 28.0966 55.8518 26.7961 55.8501 25.4956C55.848 25.3432 55.7863 25.1976 55.6781 25.0898C55.57 24.982 55.4239 24.9205 55.271 24.9183C54.0834 24.9217 52.8999 25.0449 51.7127 25.0497L52.2918 25.6269C52.2706 24.5559 52.2416 23.4843 52.1972 22.414L51.7721 22.9708C53.3742 22.3344 55.2242 21.1459 55.7273 19.3961L55.3226 19.7992C55.3736 19.7882 55.4247 19.7802 55.4761 19.7709C55.5536 19.7567 55.3627 19.7843 55.45 19.7738C55.4817 19.7699 55.5135 19.7658 55.5454 19.7624C55.7061 19.7451 55.8672 19.7312 56.0279 19.7196C56.4381 19.6898 56.8469 19.6715 57.2568 19.6573C57.9222 19.6204 58.5891 19.6171 59.2549 19.6475L58.6758 19.0702C58.7863 20.3089 58.7928 21.5621 58.8249 22.8044C58.8783 24.8695 58.9112 26.9352 58.9236 29.0015C58.9309 30.1825 58.9313 31.3635 58.919 32.5444C58.9118 33.2857 60.07 33.2872 60.0777 32.5435Z" fill="#726A69"/>
<path d="M74.8262 21.6306C77.9077 25.339 78.0643 30.3912 77.5011 34.9525C77.2556 36.7635 76.7101 38.5213 75.8869 40.1541C75.5126 40.961 74.9844 41.6875 74.3318 42.2934C73.5788 42.9908 72.6605 43.4862 71.6629 43.7331C69.7693 44.1771 67.8096 43.3875 66.3896 42.1519C65.7762 41.6182 65.3853 40.7874 65.0625 40.0262C64.6433 39.0075 64.3521 37.9411 64.1956 36.8512C63.8909 34.6986 63.7799 32.5231 63.8638 30.3508C63.9215 28.0622 64.3406 25.7241 65.3064 23.6346C65.9765 22.1847 66.9192 20.9958 68.345 20.1807C69.1535 19.7065 70.0732 19.4532 71.0112 19.4461C71.9885 19.482 72.9248 19.8465 73.6678 20.4804C74.0898 20.8259 74.4776 21.211 74.826 21.6303C74.9352 21.7375 75.0822 21.7975 75.2354 21.7975C75.3886 21.7975 75.5357 21.7375 75.6449 21.6303C75.7506 21.5206 75.8097 21.3743 75.8097 21.2222C75.8097 21.07 75.7506 20.9237 75.6449 20.814C74.8948 19.8843 73.9326 19.1468 72.8385 18.6632C71.7761 18.2472 70.6079 18.1815 69.5053 18.4758C67.6851 18.9225 66.1056 20.1766 65.0516 21.697C64.488 22.5626 64.0417 23.4989 63.7246 24.4813C63.3126 25.6819 63.0272 26.922 62.8731 28.1815C62.7268 29.4715 62.6697 30.7699 62.7022 32.0677C62.7116 33.1825 62.744 34.2976 62.853 35.4076C63.0796 37.7118 63.5339 40.0704 64.8128 42.0487C65.3176 42.7842 65.9785 43.4001 66.7486 43.8527C67.6997 44.4579 68.777 44.8387 69.8981 44.9658C72.2724 45.2304 74.5741 44.0179 76.0141 42.1743C76.6044 41.3546 77.0814 40.4594 77.4321 39.5129C77.8364 38.5994 78.1561 37.651 78.3871 36.6795C78.8471 34.3563 79.0075 31.984 78.8644 29.6203C78.7794 27.0819 78.0642 24.6042 76.7828 22.4089C76.4444 21.8496 76.0639 21.3167 75.6447 20.8147C75.5355 20.7075 75.3884 20.6474 75.2352 20.6474C75.082 20.6474 74.9349 20.7075 74.8257 20.8147C74.7202 20.9246 74.6613 21.0708 74.6613 21.2229C74.6613 21.375 74.7202 21.5212 74.8257 21.631L74.8262 21.6306Z" fill="#726A69"/>
<path d="M70.7322 38.5922C70.266 38.5773 69.8247 38.3791 69.5047 38.0408C69.1847 37.7622 68.9263 37.4203 68.7459 37.0369C68.1796 35.8611 68.1091 34.5286 68.044 33.2475C67.969 31.9586 68.0154 30.6656 68.1827 29.3854C68.3275 28.3446 68.536 27.2096 69.1083 26.3083C69.5359 25.6348 70.2616 24.923 71.1351 24.93C71.2976 24.95 71.4528 25.0091 71.5873 25.1022C71.7947 25.2423 71.982 25.4101 72.1437 25.6009C72.5514 26.0707 72.8879 26.5974 73.1426 27.1643C73.7121 28.3716 73.8141 29.69 73.8822 31.0026C73.9154 31.8306 73.8912 32.6599 73.8098 33.4846C73.7889 33.7321 73.7658 33.9793 73.7405 34.2264C73.7309 34.3188 73.721 34.4114 73.7101 34.5038C73.7065 34.5355 73.7024 34.5675 73.6988 34.6C73.6829 34.7412 73.7166 34.4937 73.6988 34.6063C73.5941 35.2096 73.4198 35.7988 73.1793 36.3622C72.7633 37.3649 71.947 38.5626 70.7324 38.5919C69.9885 38.6097 69.9856 39.7645 70.7324 39.7465C72.1118 39.7133 73.3221 38.6672 73.928 37.4879C74.4457 36.4894 74.773 35.4039 74.8932 34.2863C75.0104 33.4108 75.0709 32.5286 75.0744 31.6453C75.0377 30.1862 74.9552 28.6477 74.4347 27.2702C74.1715 26.5565 73.8088 25.8833 73.3574 25.2704C72.997 24.7328 72.5119 24.2898 71.9432 23.9789C70.8002 23.4411 69.5103 24.0872 68.7152 24.9394C67.9062 25.8065 67.4972 26.9017 67.2494 28.0445C66.9537 29.4714 66.8221 30.9273 66.8571 32.3839C66.8841 34.0917 66.9671 35.8787 67.6721 37.4592C68.2117 38.6684 69.3546 39.7181 70.7326 39.7465C71.478 39.7621 71.478 38.6076 70.7322 38.5922Z" fill="#726A69"/>
<path d="M69.3167 64.3699C68.9024 64.2304 68.4905 64.0839 68.0825 63.9268C67.8938 63.8547 67.6989 63.7861 67.516 63.6998C67.6588 63.7671 67.548 63.713 67.5138 63.6983C67.4686 63.6789 67.4236 63.6592 67.3789 63.6391C67.2945 63.6018 67.2106 63.5633 67.1272 63.5237C66.9946 63.4464 66.8366 63.4249 66.6881 63.4637C66.5395 63.5026 66.4125 63.5987 66.335 63.7309C66.2575 63.8631 66.2358 64.0206 66.2748 64.1687C66.3138 64.3168 66.4102 64.4435 66.5428 64.5207C67.3451 64.8895 68.1686 65.2107 69.0088 65.4828C69.1569 65.5225 69.3146 65.5024 69.448 65.4269C69.5813 65.3515 69.6795 65.2268 69.7213 65.0797C69.7585 64.9322 69.7372 64.7761 69.6618 64.6438C69.5864 64.5116 69.4628 64.4134 69.3167 64.3697V64.3699Z" fill="#726A69"/>
<path d="M60.9559 65.4828C61.7454 65.2163 62.5103 64.8872 63.2836 64.5786C63.4268 64.5341 63.5494 64.4403 63.6296 64.314C63.6878 64.2149 63.7151 64.1007 63.7078 63.9861C63.7006 63.8715 63.6592 63.7616 63.589 63.6706C63.5188 63.5795 63.423 63.5114 63.3137 63.4749C63.2045 63.4385 63.0868 63.4353 62.9757 63.4659C62.2036 63.7745 61.4375 64.1036 60.6478 64.3703C60.4997 64.411 60.3739 64.5087 60.2981 64.6419C60.2223 64.7751 60.2027 64.9329 60.2435 65.0805C60.2844 65.2281 60.3824 65.3535 60.516 65.4291C60.6496 65.5047 60.8078 65.5242 60.9559 65.4835V65.4828Z" fill="#726A69"/>
<path d="M43.4418 43.559C43.2058 46.5358 44.6241 49.4148 46.2446 51.8213C47.0748 53.0386 47.9758 54.2062 48.9432 55.3182C49.8492 56.4052 50.8594 57.4015 51.9593 58.2932C53.2065 59.3194 54.6663 60.0574 56.2337 60.4541C56.959 60.6225 57.2686 59.5086 56.5416 59.3407C53.893 58.7293 51.8328 56.8497 50.0842 54.8704C48.2548 52.7994 46.4994 50.5179 45.4213 47.9574C44.7995 46.5776 44.5182 45.0694 44.601 43.559C44.5997 43.4063 44.5383 43.2601 44.43 43.1522C44.3216 43.0442 44.1751 42.9829 44.0219 42.9817C43.8692 42.9847 43.7237 43.0465 43.6157 43.1541C43.5078 43.2617 43.4458 43.4068 43.4428 43.559H43.4418Z" fill="#726A69"/>
<path d="M76.1451 58.3182C76.2287 58.3153 76.3104 58.3434 76.3745 58.3969C76.4784 58.4697 76.5081 58.4842 76.4636 58.4404C76.4877 58.457 76.5601 58.5578 76.4993 58.4736C76.4793 58.4457 76.4551 58.3572 76.5034 58.4907C76.4904 58.4546 76.4764 58.4185 76.466 58.3817C76.4141 58.1999 76.3752 58.0146 76.3494 57.8273C76.2764 57.1916 76.2941 56.5489 76.402 55.9182C76.6379 54.5131 77.332 53.2247 78.3767 52.2527H77.5564C77.8702 52.6176 78.1007 53.0462 78.232 53.5087C78.3354 53.9927 78.3526 54.4911 78.2829 54.981C78.2839 55.1338 78.3452 55.2801 78.4536 55.3881C78.562 55.4962 78.7087 55.5573 78.862 55.5583C79.0145 55.555 79.1599 55.4931 79.2678 55.3856C79.3757 55.278 79.4377 55.1331 79.4411 54.981C79.5204 54.3608 79.482 53.7312 79.3279 53.1251C79.1298 52.5029 78.8053 51.928 78.3746 51.4363C78.2651 51.3291 78.1178 51.269 77.9644 51.269C77.8109 51.269 77.6636 51.3291 77.5542 51.4363C76.9215 52.031 76.3898 52.7241 75.9798 53.4885C75.5571 54.3337 75.2931 55.2489 75.2007 56.1888C75.1096 56.9219 75.1334 57.6648 75.2714 58.3906C75.3585 58.8236 75.5761 59.5086 76.1417 59.473C76.2942 59.4697 76.4396 59.4078 76.5474 59.3002C76.6553 59.1927 76.7174 59.0478 76.7208 58.8957C76.7195 58.7431 76.658 58.597 76.5497 58.489C76.4414 58.381 76.2949 58.3198 76.1417 58.3185L76.1451 58.3182Z" fill="#726A69"/>
<path d="M85.0505 48.8889C84.9214 48.8482 85.1439 48.9543 85.0148 48.8754C84.96 48.8422 84.904 48.8112 84.8497 48.7773C84.7276 48.7013 84.8644 48.8013 84.7694 48.7174C84.7047 48.6594 84.6403 48.6026 84.579 48.5411C84.2873 48.2384 84.045 47.8919 83.8612 47.5142C83.3062 46.4438 83.089 45.2647 83.6199 44.1383L82.966 44.4029C83.0282 44.4207 83.089 44.4426 83.1506 44.4625C83.2748 44.5027 83.0719 44.4245 83.1414 44.4573C83.1721 44.4717 83.2029 44.4854 83.2333 44.5005C83.2956 44.5326 83.3563 44.5667 83.4155 44.6028C83.4519 44.6256 83.6165 44.7449 83.512 44.6634C83.6358 44.7613 83.7504 44.8702 83.8547 44.9886C83.9538 45.0971 84.0396 45.217 84.1102 45.3458C84.6084 46.1689 84.7795 47.2174 84.8454 48.2113C84.8489 48.3633 84.911 48.5081 85.0189 48.6156C85.1267 48.7231 85.272 48.7851 85.4245 48.7886C85.5776 48.7872 85.7242 48.726 85.8325 48.618C85.9408 48.51 86.0022 48.364 86.0036 48.2113C85.8803 46.351 85.3521 43.8802 83.2732 43.2897C83.1501 43.2568 83.0196 43.2648 82.9016 43.3126C82.7835 43.3603 82.6843 43.4452 82.619 43.5543C82.2661 44.2653 82.1053 45.0559 82.1526 45.8478C82.2341 46.6084 82.4612 47.3464 82.8217 48.0217C83.2167 48.81 83.8532 49.7209 84.7409 50.0011C85.4532 50.2258 85.7579 49.1111 85.0488 48.8877L85.0505 48.8889Z" fill="#726A69"/>
<path d="M78.618 58.2359C79.6948 57.4822 80.9828 57.0866 82.2984 57.1054C83.3873 57.0938 84.3788 57.2752 85.4255 57.3925L84.8669 56.6618C84.6498 57.3067 84.2898 57.8945 83.8136 58.3817C83.3374 58.8689 82.7572 59.2429 82.1162 59.4761C81.459 59.7149 80.759 59.8145 80.061 59.7683C79.363 59.7222 78.6824 59.5314 78.0626 59.2081C77.8111 59.0823 77.5697 58.9376 77.3404 58.7751C77.2854 58.7364 77.3607 58.7922 77.366 58.7963C77.344 58.779 77.3213 58.7619 77.3003 58.7434C77.268 58.7145 77.2345 58.6871 77.2038 58.6568C77.1805 58.6294 77.1553 58.6035 77.1285 58.5793C77.0661 58.5339 77.2067 58.6996 77.1527 58.6048C76.7842 57.959 75.7834 58.5401 76.1528 59.1877C76.3808 59.5874 76.8593 59.8674 77.2485 60.0837C77.8997 60.448 78.6073 60.7018 79.3421 60.8346C80.2775 60.9954 81.2377 60.9369 82.1465 60.6637C83.0553 60.3905 83.8878 59.9101 84.5781 59.2605C85.2424 58.6346 85.7277 57.8438 85.9843 56.9692C86.0063 56.8836 86.0085 56.7942 85.9909 56.7076C85.9732 56.621 85.9362 56.5395 85.8825 56.4692C85.8288 56.3989 85.7598 56.3416 85.6807 56.3017C85.6017 56.2617 85.5146 56.2401 85.4259 56.2385C84.9718 56.1877 84.4806 56.1088 83.9461 56.0477C83.3429 55.9738 82.7352 55.9427 82.1275 55.9546C80.6642 55.9612 79.2371 56.4089 78.0339 57.2391C77.9046 57.3193 77.811 57.4459 77.7724 57.5927C77.7337 57.7396 77.753 57.8956 77.8261 58.0288C77.9044 58.1601 78.0314 58.2555 78.1797 58.2943C78.328 58.333 78.4856 58.312 78.6185 58.2359H78.618Z" fill="#726A69"/>
<path d="M82.0679 53.4883C81.8504 53.3215 81.6133 53.1818 81.3619 53.0722C81.2917 53.0294 81.2244 52.9832 81.1581 52.9346C81.2958 53.0351 81.1511 52.9267 81.1248 52.9026C81.084 52.8649 81.0427 52.8273 81.0041 52.7876C80.9655 52.7479 80.9235 52.7008 80.8835 52.6563C80.7829 52.5421 80.9486 52.7525 80.8567 52.6236C80.7747 52.5092 80.7011 52.3891 80.6364 52.2642C80.5054 51.9889 80.4108 51.6979 80.355 51.3983C80.2719 50.9717 80.2384 50.537 80.2552 50.1028C80.2782 49.6473 80.402 49.2025 80.6175 48.8003C80.8331 48.398 81.1352 48.0482 81.5021 47.7759H80.6832C81.2676 48.3616 81.7306 49.0563 82.0458 49.8204C82.2383 50.232 82.3892 50.6617 82.4962 51.1032C82.5852 51.4506 82.6117 51.8109 82.5747 52.1675C82.538 52.315 82.5595 52.471 82.6348 52.6031C82.7101 52.7352 82.8334 52.8335 82.9793 52.8776C83.1273 52.9168 83.2849 52.8965 83.4181 52.8212C83.5513 52.7458 83.6495 52.6213 83.6916 52.4745C83.8943 51.4185 83.5388 50.3474 83.1149 49.3898C82.7303 48.5213 82.2147 47.6044 81.5021 46.9588C81.391 46.8554 81.2447 46.7979 81.0927 46.7979C80.9407 46.7979 80.7943 46.8554 80.6832 46.9588C80.0111 47.4889 79.5185 48.212 79.2719 49.0302C79.0553 49.8536 79.0338 50.7158 79.2089 51.5489C79.3822 52.5579 79.8732 53.5083 80.7628 54.0589C80.8806 54.131 81.0041 54.1928 81.1284 54.2542C81.172 54.2756 81.2152 54.2989 81.2592 54.3196C81.2748 54.3268 81.2992 54.3511 81.3161 54.3528C81.3598 54.3571 81.1955 54.2491 81.2488 54.303C81.7707 54.8351 82.5894 54.0185 82.0677 53.4866L82.0679 53.4883Z" fill="#726A69"/>
<path d="M86.0389 51.9097C86.8619 51.7163 87.7046 51.618 88.5502 51.6167L87.9711 51.0394C87.9749 51.0898 87.9749 51.1404 87.9711 51.1907C87.9711 51.2355 87.941 51.3735 87.9743 51.1867C87.9656 51.2348 87.9581 51.2829 87.9484 51.331C87.8994 51.5708 87.8288 51.8058 87.7376 52.0331C87.712 52.0961 87.7089 52.1041 87.7284 52.0572C87.712 52.0942 87.6953 52.131 87.678 52.1673C87.6419 52.2433 87.6038 52.3183 87.5636 52.3922C87.4778 52.5505 87.3819 52.7032 87.2765 52.8492C87.0699 53.1302 86.8223 53.3786 86.5417 53.5862C85.7882 54.1325 84.8765 54.4187 83.945 54.4016C83.4332 54.3561 82.9306 54.2375 82.4526 54.0493C81.7437 53.8143 81.4392 54.9289 82.1447 55.1625C82.5515 55.3148 82.9715 55.4295 83.3994 55.505C84.5501 55.6528 85.7172 55.4109 86.7135 54.8182C87.7097 54.2255 88.4773 53.3163 88.8931 52.2366C89.059 51.8598 89.1393 51.451 89.1281 51.0397C89.1248 50.8876 89.0627 50.7427 88.9548 50.6352C88.8469 50.5276 88.7015 50.4657 88.549 50.4624C87.5996 50.4662 86.6537 50.5784 85.7298 50.7967C85.0088 50.9832 85.3145 52.0971 86.0377 51.9099L86.0389 51.9097Z" fill="#726A69"/>
<path d="M88.1482 45.6006C88.5624 45.2792 89.0086 45.001 89.4796 44.7702C89.6527 44.6862 89.8313 44.6139 90.0141 44.5538C90.1106 44.5218 90.2103 44.4927 90.3102 44.4686C90.3618 44.4561 90.4137 44.4458 90.4658 44.4349C90.4834 44.4313 90.6156 44.413 90.5184 44.4246L89.9601 44.0008C90.148 45.1274 89.6353 46.4189 88.79 47.2336C88.7041 47.3163 88.6173 47.3983 88.5282 47.4775C88.4819 47.5188 88.4349 47.5594 88.3871 47.5992C88.3695 47.6141 88.2259 47.7252 88.3195 47.6552C88.1301 47.7977 87.9258 47.9195 87.7103 48.0184C87.6734 48.035 87.6775 48.0336 87.7221 48.0143C87.6871 48.0283 87.6519 48.0418 87.6164 48.0543C87.5617 48.074 87.5065 48.0922 87.4507 48.1089C87.3102 48.1508 87.1675 48.1846 87.0231 48.2101C86.6912 48.2597 86.3558 48.2812 86.0203 48.2744C85.275 48.2719 85.274 49.4265 86.0203 49.4289C86.7905 49.4571 87.5577 49.3199 88.2701 49.0267C88.7859 48.7709 89.2529 48.4269 89.6498 48.0105C90.2146 47.4558 90.6387 46.7749 90.8868 46.0242C91.135 45.2735 91.2001 44.4746 91.0767 43.6938C91.0434 43.5718 90.9706 43.4642 90.8696 43.3876C90.7687 43.311 90.6453 43.2696 90.5184 43.27C89.4309 43.3985 88.4216 43.9459 87.5638 44.6033C87.435 44.684 87.3418 44.8106 87.3032 44.9573C87.2646 45.104 87.2835 45.2599 87.3561 45.3932C87.4342 45.5247 87.5612 45.6202 87.7095 45.659C87.8578 45.6978 88.0154 45.6767 88.1482 45.6003V45.6006Z" fill="#726A69"/>
<path d="M86.5764 47.5203C86.6682 47.3196 86.7746 47.1259 86.8949 46.9408C86.9596 46.8412 87.0286 46.7448 87.0993 46.6493C87.1444 46.5879 87.0916 46.6603 87.0751 46.6805C87.0947 46.6579 87.1125 46.6324 87.1314 46.6101C87.1693 46.5631 87.2079 46.5168 87.2472 46.4713C87.5544 46.1178 87.8961 45.7955 88.2671 45.5091C88.3208 45.4554 88.3634 45.3916 88.3924 45.3214C88.4214 45.2513 88.4362 45.1761 88.436 45.1002C88.4353 44.9472 88.3747 44.8005 88.2671 44.6913C88.158 44.5834 88.0106 44.5229 87.8569 44.5229C87.7051 44.5315 87.5605 44.5908 87.4467 44.6913C86.6533 45.2807 86.0119 46.0499 85.5758 46.9353C85.502 47.0714 85.4812 47.2298 85.5174 47.3803C85.5476 47.4898 85.6096 47.588 85.6956 47.6626C85.7816 47.7372 85.8877 47.7849 86.0007 47.7996C86.1138 47.8143 86.2286 47.7954 86.3309 47.7454C86.4333 47.6953 86.5185 47.6162 86.5759 47.5181L86.5764 47.5203Z" fill="#726A69"/>
<path d="M85.0637 38.5339C84.4439 38.2333 83.7471 38.1276 83.0656 38.2309C82.9682 38.2559 82.8794 38.3066 82.8082 38.3774C82.7371 38.4483 82.6864 38.5369 82.6612 38.634C82.4875 39.2535 82.5088 39.9113 82.7225 40.5183C82.9133 40.9898 83.1762 41.4289 83.5018 41.8201C84.1187 42.6149 84.9904 43.1747 85.9714 43.406C86.1194 43.4436 86.2762 43.4227 86.4091 43.3477C86.542 43.2727 86.6407 43.1494 86.6844 43.0036C86.7236 42.856 86.7032 42.699 86.6276 42.5663C86.552 42.4335 86.4272 42.3356 86.28 42.2935C85.8535 42.2099 85.4509 42.0333 85.1009 41.7763C85.0905 41.7691 84.9764 41.6852 85.0285 41.7258C85.0734 41.7597 84.9575 41.6674 84.9438 41.6556C84.8728 41.5956 84.804 41.5333 84.7372 41.4687C84.6096 41.343 84.4888 41.2106 84.3753 41.0721C84.3312 41.0191 84.3271 41.0129 84.3729 41.0721C84.3481 41.04 84.3235 41.0072 84.2991 40.9737C84.2576 40.9172 84.2173 40.8597 84.1784 40.8019C84.044 40.6156 83.9293 40.4159 83.836 40.2061C83.6772 39.8028 83.6571 39.3583 83.7788 38.9424L83.3744 39.3455C83.5634 39.3255 83.7542 39.3321 83.9412 39.365C84.1267 39.4003 84.3075 39.4568 84.48 39.5334C84.6135 39.6068 84.7703 39.6262 84.9177 39.5876C85.0652 39.5491 85.1922 39.4555 85.2724 39.3263C85.3486 39.1938 85.3695 39.0368 85.3306 38.8891C85.2917 38.7413 85.1962 38.6148 85.0647 38.5366L85.0637 38.5339Z" fill="#726A69"/>
<path d="M87.0744 43.4058C86.863 42.0588 86.4186 40.6059 86.7764 39.2445C87.1017 38.0084 88.2712 37.078 89.3133 36.4377L88.5209 36.2306C88.9315 37.0319 89.195 37.8999 89.2988 38.7938C89.3505 39.5401 89.2521 40.2892 89.0093 40.9971C88.925 41.2201 88.7957 41.4235 88.6295 41.5948C88.4113 41.8322 88.1707 42.048 87.9109 42.2394C87.6319 42.4464 87.336 42.6299 87.0264 42.7878C86.9275 42.8429 86.8236 42.8885 86.7161 42.924C86.6678 42.9394 86.6184 42.9528 86.5713 42.9682C86.4116 43.0187 86.5954 42.9764 86.518 42.9819C86.3655 42.9856 86.2203 43.0475 86.1125 43.155C86.0047 43.2625 85.9425 43.4073 85.9389 43.5592C85.9401 43.712 86.0015 43.8581 86.1098 43.9661C86.2182 44.0741 86.3648 44.1353 86.518 44.1365C87.2375 44.0843 87.9293 43.6516 88.4965 43.2364C89.135 42.7696 89.7971 42.2021 90.0811 41.4423C90.3954 40.5968 90.5241 39.694 90.4587 38.7947C90.3404 37.6983 90.0233 36.6324 89.5227 35.649C89.4443 35.5178 89.3173 35.4225 89.1691 35.3838C89.0208 35.345 88.8633 35.3659 88.7304 35.4419C87.4465 36.2304 86.1244 37.3614 85.6848 38.8553C85.2155 40.446 85.7111 42.1319 85.9592 43.7127C86.0009 43.8598 86.0991 43.9845 86.2325 44.06C86.3658 44.1354 86.5236 44.1555 86.6717 44.1158C86.8177 44.072 86.9412 43.9737 87.0165 43.8415C87.0918 43.7093 87.1131 43.5533 87.0761 43.4058H87.0744Z" fill="#726A69"/>
<path d="M85.9092 43.559C86.13 46.3461 84.7793 48.989 83.2645 51.2385C82.4901 52.3747 81.6495 53.4645 80.7469 54.5023C79.8712 55.551 78.9 56.5166 77.8459 57.3868C76.7177 58.3209 75.3925 58.9888 73.9691 59.3407C73.2433 59.5091 73.5505 60.6218 74.277 60.4541C77.1128 59.7994 79.3698 57.8099 81.2454 55.6867C83.2013 53.4726 85.0425 51.0502 86.1867 48.311C86.8116 46.8144 87.1965 45.1874 87.0674 43.559C87.0637 43.407 87.0015 43.2624 86.8937 43.1549C86.7859 43.0474 86.6407 42.9854 86.4883 42.9817C86.3351 42.9829 86.1885 43.0441 86.0802 43.1521C85.9718 43.2601 85.9104 43.4062 85.9092 43.559Z" fill="#726A69"/>
</g>
</svg>
