<svg width="144" height="12" viewBox="0 0 144 12" fill="none" xmlns="http://www.w3.org/2000/svg">
<path d="M118.229 1.45223H122.333V2.50823H118.229V1.45223ZM119.705 2.04023H120.845V7.77623H119.705V2.04023ZM117.941 7.93223C119.057 7.60823 120.821 7.03223 122.465 6.48023L122.657 7.47623C121.181 8.02823 119.597 8.59223 118.409 9.01223L117.941 7.93223ZM122.429 0.63623H129.233V1.59623H122.429V0.63623ZM124.037 5.28023V6.27623H127.661V5.28023H124.037ZM124.037 7.08023V8.07623H127.661V7.08023H124.037ZM124.037 3.49223V4.47623H127.661V3.49223H124.037ZM122.969 2.62823H128.777V8.92823H122.969V2.62823ZM125.201 1.14023L126.521 1.30823C126.293 2.02823 126.029 2.79623 125.825 3.31223L124.805 3.12023C124.961 2.55623 125.129 1.72823 125.201 1.14023ZM124.265 9.02423L125.213 9.67223C124.421 10.2722 123.173 10.8962 122.117 11.2442C121.961 11.0162 121.637 10.6682 121.409 10.4522C122.429 10.1282 123.665 9.52823 124.265 9.02423ZM126.173 9.68423L127.025 9.07223C127.805 9.48023 128.873 10.1282 129.437 10.5842L128.537 11.2562C128.033 10.8122 126.977 10.1402 126.173 9.68423Z" fill="white"/>
<path d="M110.777 0.0961914H111.929V10.0682C111.929 10.6922 111.761 10.9442 111.353 11.1122C110.933 11.2562 110.297 11.2682 109.289 11.2682C109.229 11.0042 109.049 10.5962 108.905 10.3562C109.553 10.3802 110.273 10.3682 110.477 10.3682C110.705 10.3562 110.777 10.2842 110.777 10.0682V0.0961914ZM106.169 0.984191H116.645V1.89619H106.169V0.984191ZM108.497 3.26419V3.99619H114.293V3.26419H108.497ZM107.417 2.50819H115.457V4.75219H107.417V2.50819ZM107.093 5.46019H115.649V9.97219H114.497V6.26419H107.093V5.46019ZM105.917 6.96019H116.897V7.83619H105.917V6.96019ZM106.985 8.59219H115.109V9.44419H106.985V8.59219Z" fill="white"/>
<path d="M96.4977 1.76423C96.4257 2.11223 96.3777 2.73623 96.3777 3.06023C96.3657 3.82823 96.3777 4.83623 96.4497 5.77223C96.6417 7.65623 97.1217 8.92823 97.9377 8.92823C98.5257 8.92823 99.0537 7.60823 99.3297 6.51623L100.278 7.63223C99.5217 9.69623 98.7897 10.4042 97.9137 10.4042C96.6897 10.4042 95.5857 9.25223 95.2497 6.09623C95.1417 5.02823 95.1177 3.58823 95.1177 2.88023C95.1177 2.58023 95.1057 2.06423 95.0337 1.74023L96.4977 1.76423ZM102.63 2.07623C103.734 3.45623 104.622 6.20423 104.778 8.14823L103.554 8.64023C103.35 6.57623 102.666 3.91223 101.442 2.47223L102.63 2.07623Z" fill="white"/>
<path d="M87.2836 0.731817C87.1996 1.01982 87.1036 1.51182 87.0556 1.76382C86.8756 2.60382 86.5996 4.00782 86.2756 5.21982C85.8436 6.91182 85.0396 9.37182 84.3916 10.7398L83.0716 10.2958C83.7916 9.07182 84.6676 6.59982 85.1116 4.90782C85.4116 3.79182 85.7116 2.36382 85.7956 1.70382C85.8436 1.31982 85.8676 0.875817 85.8316 0.611816L87.2836 0.731817ZM84.4516 2.63982C85.8316 2.63982 87.5596 2.42382 89.0836 2.05182V3.23982C87.5956 3.57582 85.7476 3.77982 84.4276 3.77982C83.8756 3.77982 83.4436 3.75582 83.0116 3.73182L82.9756 2.54382C83.5636 2.61582 83.9836 2.63982 84.4516 2.63982ZM88.2316 4.36782C88.8796 4.30782 89.7076 4.25982 90.4756 4.25982C91.1716 4.25982 91.8916 4.29582 92.5636 4.36782L92.5396 5.50782C91.9276 5.43582 91.2076 5.36382 90.4996 5.36382C89.7196 5.36382 88.9756 5.39982 88.2316 5.48382V4.36782ZM88.6516 7.33182C88.5556 7.70382 88.4836 8.08782 88.4836 8.37582C88.4836 8.92782 88.8196 9.40782 90.3436 9.40782C91.1356 9.40782 91.9636 9.32382 92.7556 9.16782L92.7076 10.3798C92.0476 10.4758 91.2436 10.5478 90.3316 10.5478C88.3876 10.5478 87.3316 9.92382 87.3316 8.72382C87.3316 8.21982 87.4276 7.71582 87.5236 7.22382L88.6516 7.33182Z" fill="white"/>
<path d="M72.9131 1.83576C74.6171 2.03976 76.1411 2.06376 77.3891 1.95576C78.4211 1.87176 79.4051 1.67976 80.3291 1.37976L80.4851 2.47176C79.6691 2.69976 78.6371 2.90376 77.6411 2.98776C76.4171 3.09576 74.7491 3.09576 72.9851 2.92776L72.9131 1.83576ZM72.6851 4.31976C74.7851 4.53576 76.7891 4.49976 78.2051 4.34376C79.4171 4.22376 80.3531 3.98376 81.0131 3.79176L81.2051 4.90776C80.5211 5.08776 79.6211 5.26776 78.6371 5.37576C77.1371 5.55576 74.8691 5.59176 72.7571 5.44776L72.6851 4.31976ZM76.7531 1.89576C76.6451 1.49976 76.5251 1.10376 76.3811 0.707758L77.6531 0.551758C77.7851 1.61976 78.1211 2.75976 78.4211 3.64776C78.7331 4.53576 79.2851 5.73576 79.8851 6.62376C80.0291 6.82776 80.1851 6.99576 80.3771 7.17576L79.7771 8.07576C79.1051 7.91976 77.9051 7.78776 77.0531 7.69176L77.1491 6.77976C77.7371 6.83976 78.4571 6.91176 78.8291 6.95976C78.1691 5.90376 77.6891 4.79976 77.3651 3.86376C77.0651 3.03576 76.9091 2.48376 76.7531 1.89576ZM74.6771 6.99576C74.3891 7.40376 74.1611 7.81176 74.1611 8.33976C74.1611 9.28776 75.0251 9.71976 76.7771 9.71976C77.9051 9.71976 78.8411 9.63576 79.7051 9.46776L79.6451 10.6678C78.8051 10.8118 77.7971 10.8838 76.7891 10.8838C74.4251 10.8838 73.0331 10.1878 73.0091 8.56776C72.9971 7.84776 73.2251 7.30776 73.5011 6.75576L74.6771 6.99576Z" fill="white"/>
<path d="M64.1664 0.887933C64.0824 1.17593 63.9744 1.66793 63.9264 1.91993C63.7584 2.75993 63.4824 4.16393 63.1584 5.37593C62.7264 7.06793 61.9224 9.53993 61.2744 10.8959L59.9544 10.4519C60.6744 9.22793 61.5504 6.75593 61.9944 5.06393C62.2944 3.94793 62.5944 2.53193 62.6784 1.85993C62.7264 1.47593 62.7504 1.03193 62.7144 0.767933L64.1664 0.887933ZM61.3344 2.79593C62.7144 2.79593 64.4424 2.57993 65.9664 2.20793V3.39593C64.4784 3.73193 62.6304 3.93593 61.3104 3.93593C60.7584 3.93593 60.3264 3.91193 59.8944 3.88793L59.8584 2.71193C60.4464 2.78393 60.8664 2.79593 61.3344 2.79593ZM65.1144 4.53593C65.7624 4.46393 66.5784 4.41593 67.3584 4.41593C68.0544 4.41593 68.7744 4.45193 69.4464 4.52393L69.4224 5.66393C68.8104 5.59193 68.0904 5.51993 67.3824 5.51993C66.5904 5.51993 65.8584 5.55593 65.1144 5.65193V4.53593ZM65.5344 7.48793C65.4384 7.85993 65.3664 8.24393 65.3664 8.53193C65.3664 9.08393 65.7024 9.56393 67.2264 9.56393C68.0184 9.56393 68.8464 9.47993 69.6384 9.32393L69.5904 10.5359C68.9304 10.6319 68.1264 10.7159 67.2144 10.7159C65.2704 10.7159 64.2144 10.0799 64.2144 8.87993C64.2144 8.37593 64.2984 7.87193 64.4064 7.37993L65.5344 7.48793ZM68.1504 1.24793C68.4624 1.67993 68.8944 2.42393 69.1224 2.89193L68.3424 3.23993C68.1024 2.74793 67.7064 2.02793 67.3824 1.57193L68.1504 1.24793ZM69.5184 0.731934C69.8424 1.17593 70.2984 1.93193 70.5144 2.37593L69.7344 2.71193C69.4824 2.19593 69.0864 1.51193 68.7504 1.05593L69.5184 0.731934Z" fill="white"/>
<path d="M52.474 0.731817C52.39 1.01982 52.294 1.51182 52.246 1.76382C52.066 2.60382 51.79 4.00782 51.466 5.21982C51.034 6.91182 50.23 9.37182 49.582 10.7398L48.262 10.2958C48.982 9.07182 49.858 6.59982 50.302 4.90782C50.602 3.79182 50.902 2.36382 50.986 1.70382C51.034 1.31982 51.058 0.875817 51.022 0.611816L52.474 0.731817ZM49.642 2.63982C51.022 2.63982 52.75 2.42382 54.274 2.05182V3.23982C52.786 3.57582 50.938 3.77982 49.618 3.77982C49.066 3.77982 48.634 3.75582 48.202 3.73182L48.166 2.54382C48.754 2.61582 49.174 2.63982 49.642 2.63982ZM53.422 4.36782C54.07 4.30782 54.898 4.25982 55.666 4.25982C56.362 4.25982 57.082 4.29582 57.754 4.36782L57.73 5.50782C57.118 5.43582 56.398 5.36382 55.69 5.36382C54.91 5.36382 54.166 5.39982 53.422 5.48382V4.36782ZM53.842 7.33182C53.746 7.70382 53.674 8.08782 53.674 8.37582C53.674 8.92782 54.01 9.40782 55.534 9.40782C56.326 9.40782 57.154 9.32382 57.946 9.16782L57.898 10.3798C57.238 10.4758 56.434 10.5478 55.522 10.5478C53.578 10.5478 52.522 9.92382 52.522 8.72382C52.522 8.21982 52.618 7.71582 52.714 7.22382L53.842 7.33182Z" fill="white"/>
<path d="M38.4269 1.76423C38.3549 2.11223 38.3069 2.73623 38.3069 3.06023C38.2949 3.82823 38.3069 4.83623 38.3789 5.77223C38.5709 7.65623 39.0509 8.92823 39.8669 8.92823C40.4549 8.92823 40.9829 7.60823 41.2589 6.51623L42.2069 7.63223C41.4509 9.69623 40.7189 10.4042 39.8429 10.4042C38.6189 10.4042 37.5149 9.25223 37.1789 6.09623C37.0709 5.02823 37.0469 3.58823 37.0469 2.88023C37.0469 2.58023 37.0349 2.06423 36.9629 1.74023L38.4269 1.76423ZM44.5589 2.07623C45.6629 3.45623 46.5509 6.20423 46.7069 8.14823L45.4829 8.64023C45.2789 6.57623 44.5949 3.91223 43.3709 2.47223L44.5589 2.07623Z" fill="white"/>
<path d="M26.746 7.06819H32.338V6.38419H26.746V7.06819ZM26.746 5.67619H32.338V5.00419H26.746V5.67619ZM33.466 4.27219V7.80019H25.666V4.27219H33.466ZM32.482 1.78819C32.218 2.26819 31.966 2.70019 31.762 3.02419L30.754 2.78419C30.946 2.43619 31.186 1.92019 31.306 1.56019L32.482 1.78819ZM27.706 1.56019C27.934 1.94419 28.138 2.44819 28.222 2.77219L27.142 3.03619C27.07 2.68819 26.878 2.17219 26.674 1.78819L27.706 1.56019ZM30.07 0.0961914V1.46419H28.93V0.0961914H30.07ZM34.726 2.83219V3.73219H24.358V2.83219H34.726ZM34.09 0.828191V1.72819H24.91V0.828191H34.09ZM26.542 8.66419C26.206 9.55219 25.702 10.4402 24.826 10.9802L23.938 10.3802C24.742 9.91219 25.294 9.10819 25.594 8.31619L26.542 8.66419ZM33.034 8.19619C33.814 8.79619 34.702 9.68419 35.098 10.3442L34.162 10.9082C33.802 10.2602 32.938 9.33619 32.158 8.70019L33.034 8.19619ZM28.93 7.68019C29.614 7.99219 30.478 8.49619 30.922 8.86819L30.262 9.54019C29.842 9.16819 29.002 8.62819 28.318 8.28019L28.93 7.68019ZM28.126 9.85219C28.126 10.1522 28.234 10.1882 28.822 10.1882C29.086 10.1882 30.382 10.1882 30.742 10.1882C31.222 10.1882 31.294 10.0562 31.354 9.08419C31.594 9.24019 32.038 9.38419 32.326 9.44419C32.206 10.8002 31.882 11.1242 30.85 11.1242C30.55 11.1242 28.99 11.1242 28.714 11.1242C27.358 11.1242 27.022 10.8482 27.022 9.86419V8.43619H28.126V9.85219Z" fill="white"/>
<path d="M16.8338 0.935777L17.5658 0.0717773C18.5498 0.551777 19.7978 1.33178 20.3978 1.91978L19.5818 2.89178C19.0298 2.27978 17.8178 1.45178 16.8338 0.935777ZM15.8618 6.09578H22.1618V7.18778H15.8618V6.09578ZM15.0098 9.77978H22.8578V10.8598H15.0098V9.77978ZM15.4298 2.69978H22.6058V3.77978H15.4298V2.69978ZM18.3578 3.07178H19.5338V10.2718H18.3578V3.07178ZM12.4178 1.00778L13.0298 0.179777C13.8218 0.467777 14.8298 0.995777 15.3338 1.42778L14.6618 2.36378C14.1938 1.91978 13.2098 1.35578 12.4178 1.00778ZM11.6738 4.28378L12.2618 3.41978C13.0538 3.68378 14.0978 4.16378 14.6138 4.54778L13.9898 5.50778C13.4978 5.11178 12.4778 4.58378 11.6738 4.28378ZM12.1538 10.3198C12.7898 9.40778 13.7258 7.85978 14.4338 6.49178L15.2618 7.23578C14.6258 8.50778 13.8218 9.94778 13.1138 11.0878L12.1538 10.3198Z" fill="white"/>
<path d="M2.3305 1.8C3.2065 1.908 4.3225 1.956 5.5465 1.956C6.7105 1.956 7.9945 1.872 8.8945 1.788V3.036C8.0665 3.096 6.6745 3.18 5.5585 3.18C4.3225 3.18 3.2905 3.12 2.3305 3.048V1.8ZM3.0505 6.744C2.9065 7.2 2.8225 7.62 2.8225 8.04C2.8225 8.904 3.6625 9.492 5.4985 9.492C7.1425 9.492 8.6785 9.312 9.6505 9.024L9.6625 10.332C8.7265 10.572 7.2385 10.752 5.5345 10.752C2.9665 10.752 1.5625 9.9 1.5625 8.328C1.5625 7.668 1.7065 7.104 1.8025 6.636L3.0505 6.744ZM9.2185 0.504C9.5185 0.936 9.9505 1.692 10.1905 2.16L9.3985 2.508C9.1585 2.016 8.7625 1.284 8.4385 0.828L9.2185 0.504ZM10.5865 0C10.8985 0.444 11.3545 1.2 11.5825 1.632L10.7905 1.98C10.5385 1.464 10.1425 0.78 9.8065 0.324L10.5865 0Z" fill="white"/>
<path fill-rule="evenodd" clip-rule="evenodd" d="M141.882 1.82362H134.66V2.93473V3.49029V9.04584H140.215H140.771H141.882V1.82362ZM134.104 1.82362V2.93473H132.993C132.686 2.93473 132.438 3.18347 132.438 3.49029V10.7125C132.438 11.0193 132.686 11.2681 132.993 11.2681H140.215C140.522 11.2681 140.771 11.0193 140.771 10.7125V9.6014H141.882C142.189 9.6014 142.438 9.35266 142.438 9.04584V1.82362C142.438 1.5168 142.189 1.26807 141.882 1.26807H134.66C134.353 1.26807 134.104 1.5168 134.104 1.82362ZM140.215 10.7125V9.6014H134.66C134.353 9.6014 134.104 9.35266 134.104 9.04584V3.49029H132.993V10.7125H140.215Z" fill="white"/>
</svg>
