<svg width="159" height="13" viewBox="0 0 159 13" fill="none" xmlns="http://www.w3.org/2000/svg">
<path d="M137.167 1.48389C138.247 1.83189 140.827 2.31189 141.883 2.41989L141.595 3.57189C140.419 3.41589 137.791 2.87589 136.867 2.63589L137.167 1.48389ZM137.047 3.77589C136.891 4.51989 136.675 6.16389 136.567 6.89589C137.695 5.98389 138.955 5.57589 140.323 5.57589C142.267 5.57589 143.491 6.76389 143.491 8.19189C143.491 10.3519 141.667 11.8999 136.975 11.5039L136.615 10.2679C140.323 10.7479 142.195 9.75189 142.195 8.15589C142.195 7.27989 141.367 6.64389 140.227 6.64389C138.739 6.64389 137.479 7.19589 136.675 8.16789C136.483 8.39589 136.363 8.58789 136.279 8.80389L135.175 8.52789C135.415 7.39989 135.703 4.95189 135.775 3.59589L137.047 3.77589Z" fill="white"/>
<path d="M128.014 1.53217C127.906 1.90417 127.834 2.28817 127.762 2.63617C127.582 3.59617 127.15 5.67217 126.766 6.78817C127.774 6.14017 128.794 5.87617 129.97 5.87617C131.89 5.87617 133.078 6.87217 133.078 8.33617C133.078 10.9282 130.498 11.8762 126.754 11.4682L126.43 10.2562C129.142 10.6642 131.818 10.2562 131.818 8.37217C131.818 7.55617 131.134 6.89617 129.826 6.89617C128.422 6.89617 127.138 7.38817 126.382 8.32417C126.238 8.50417 126.142 8.66017 126.022 8.86417L124.906 8.46817C125.806 6.70417 126.454 3.75217 126.61 2.56417C126.67 2.12017 126.682 1.83217 126.658 1.47217L128.014 1.53217ZM124.078 3.00817C124.774 3.12817 125.71 3.22417 126.442 3.22417C127.978 3.22417 130.306 3.04417 132.226 2.62417L132.25 3.76417C130.63 4.04017 128.146 4.30417 126.454 4.30417C125.602 4.30417 124.786 4.25617 124.09 4.18417L124.078 3.00817Z" fill="white"/>
<path d="M114.52 2.45613C115.396 2.55213 116.5 2.60013 117.736 2.60013C118.9 2.60013 120.184 2.52813 121.072 2.43213V3.68013C120.244 3.75213 118.864 3.82413 117.736 3.82413C116.512 3.82413 115.48 3.77613 114.52 3.69213V2.45613ZM115.228 7.40013C115.096 7.85613 115 8.26413 115 8.69613C115 9.54813 115.852 10.1481 117.688 10.1481C119.32 10.1481 120.868 9.96813 121.84 9.66813L121.852 10.9881C120.904 11.2281 119.416 11.3961 117.724 11.3961C115.156 11.3961 113.752 10.5441 113.752 8.97213C113.752 8.32413 113.896 7.74813 113.992 7.28013L115.228 7.40013Z" fill="white"/>
<path d="M105.14 3.78799C105.824 3.85999 106.484 3.89599 107.204 3.89599C108.656 3.89599 110.144 3.77599 111.368 3.52399V4.69999C110.096 4.90399 108.62 4.99999 107.192 4.99999C106.496 4.99999 105.848 4.97599 105.14 4.92799V3.78799ZM109.496 1.69999C109.46 1.92799 109.436 2.19199 109.424 2.44399C109.4 2.86399 109.388 3.70399 109.388 4.48399C109.388 6.48799 109.568 8.21599 109.568 9.41599C109.568 10.52 109.04 11.456 107.372 11.456C105.74 11.456 104.792 10.796 104.792 9.63199C104.792 8.53999 105.752 7.72399 107.348 7.72399C109.472 7.72399 110.9 8.77999 111.884 9.67999L111.224 10.676C109.916 9.45199 108.704 8.63599 107.252 8.63599C106.448 8.63599 105.896 8.98399 105.896 9.51199C105.896 10.076 106.436 10.352 107.204 10.352C108.092 10.352 108.368 9.89599 108.368 9.13999C108.368 8.28799 108.212 6.13999 108.212 4.49599C108.212 3.63199 108.2 2.85199 108.2 2.45599C108.2 2.26399 108.176 1.91599 108.14 1.69999H109.496ZM103.604 1.79599C103.52 2.01199 103.4 2.50399 103.364 2.71999C103.148 3.70399 102.776 6.18799 102.776 7.47199C102.776 7.90399 102.8 8.32399 102.86 8.75599C103.04 8.26399 103.292 7.67599 103.484 7.21999L104.084 7.69999C103.772 8.59999 103.352 9.82399 103.22 10.436C103.184 10.604 103.16 10.856 103.172 10.988C103.172 11.108 103.184 11.3 103.196 11.444L102.128 11.528C101.888 10.676 101.66 9.33199 101.66 7.71199C101.66 5.92399 102.044 3.64399 102.188 2.68399C102.236 2.37199 102.272 1.99999 102.284 1.68799L103.604 1.79599Z" fill="white"/>
<path d="M91.0105 2.08416C91.3225 2.10816 91.6945 2.13216 91.9465 2.13216C92.6065 2.13216 94.0465 2.06016 94.5745 2.01216C94.8385 2.00016 95.0905 1.94016 95.2705 1.86816L96.0265 2.46816C95.8945 2.62416 95.7745 2.75616 95.6785 2.91216C95.2825 3.56016 94.6345 5.10816 94.0825 6.34416C93.6025 7.42416 92.9785 8.97216 92.4745 9.71616C92.0305 10.3762 91.5145 10.6522 90.8065 10.6522C89.8465 10.6522 89.1265 9.96816 89.1265 8.87616C89.1265 7.01616 90.8905 5.60016 93.3865 5.60016C96.1225 5.60016 98.5345 7.05216 99.8185 7.95216L99.2665 9.26016C97.8265 8.00016 95.6665 6.65616 93.1945 6.65616C91.3105 6.65616 90.2305 7.70016 90.2305 8.70816C90.2305 9.17616 90.5185 9.42816 90.8545 9.42816C91.1185 9.42816 91.2985 9.32016 91.5385 9.00816C91.9945 8.38416 92.4865 7.12416 92.9305 6.14016C93.3865 5.13216 93.9025 3.92016 94.2865 3.11616C93.8065 3.14016 92.5345 3.18816 91.9825 3.22416C91.7305 3.23616 91.3585 3.27216 91.0585 3.30816L91.0105 2.08416ZM98.6785 4.80816C98.5105 8.21616 97.8265 10.3522 94.9945 11.7922L93.9985 10.9642C96.8785 9.74016 97.3225 7.48416 97.4425 5.86416C97.4665 5.45616 97.4785 5.01216 97.4425 4.66416L98.6785 4.80816Z" fill="white"/>
<path d="M81.0371 1.43616H83.5691V2.51616H81.0371V1.43616ZM82.9331 1.43616H84.1571C84.3971 5.01216 85.2371 7.88016 87.6971 9.14016C87.4211 9.32016 87.0131 9.72816 86.7971 9.99216C84.3131 8.54016 83.4371 5.57616 83.1491 1.96416H82.9331V1.43616ZM82.9451 3.83616L84.1091 4.00416C83.5691 6.72816 82.4771 8.74416 80.6891 10.0042C80.5091 9.78816 80.0651 9.34416 79.8011 9.15216C81.5291 8.08416 82.5131 6.23616 82.9451 3.83616ZM79.4051 5.58816V9.90816H78.3011V6.64416H76.7411V5.58816H79.4051ZM79.4051 9.41616C79.9331 10.2562 80.9291 10.6402 82.2611 10.6882C83.6051 10.7482 86.3171 10.7122 87.8171 10.6042C87.6971 10.8682 87.5051 11.4202 87.4571 11.7562C86.0771 11.8162 83.6291 11.8402 82.2491 11.7922C80.7251 11.7322 79.6811 11.3362 78.9011 10.4002C78.3491 10.8922 77.7611 11.3842 77.1131 11.9122L76.5371 10.7362C77.1011 10.3762 77.7851 9.89616 78.3731 9.41616H79.4051ZM76.8251 1.84416L77.6651 1.16016C78.4211 1.66416 79.3091 2.43216 79.7291 3.00816L78.8291 3.76416C78.4571 3.18816 77.5811 2.38416 76.8251 1.84416Z" fill="white"/>
<path d="M65.209 2.46807H74.737V9.40407H73.561V3.56007H66.337V9.46407H65.209V2.46807ZM65.941 5.07207H74.149V6.12807H65.941V5.07207ZM65.941 7.71207H74.161V8.80407H65.941V7.71207ZM69.313 0.87207H70.501V12.0081H69.313V0.87207Z" fill="white"/>
<path d="M56.9958 1.35205C56.9598 1.56805 56.9238 1.97605 56.9118 2.27605C56.8638 3.08005 56.8158 4.68805 56.8158 5.87605C56.8158 7.14805 56.8758 9.11605 56.8758 9.83605C56.8758 11.1081 56.4198 11.4801 55.6998 11.4801C54.6678 11.4801 53.0718 10.5321 53.0718 9.36805C53.0718 8.26405 54.5238 7.11205 56.0958 6.53605C57.1638 6.12805 58.3638 5.92405 59.2998 5.92405C61.0998 5.92405 62.4438 6.87205 62.4438 8.40805C62.4438 9.84805 61.6038 10.8321 59.8398 11.2641C59.2998 11.3841 58.7718 11.4081 58.3158 11.4321L57.8838 10.2201C58.3758 10.2201 58.8918 10.2201 59.3238 10.1361C60.3438 9.94405 61.2198 9.41605 61.2198 8.40805C61.2198 7.47205 60.3798 6.95605 59.2878 6.95605C58.2438 6.95605 57.2238 7.18405 56.2398 7.58005C55.1118 8.01205 54.2478 8.74405 54.2478 9.32005C54.2478 9.78805 54.9678 10.1961 55.3638 10.1961C55.6158 10.1961 55.7838 10.0521 55.7838 9.64405C55.7838 8.98405 55.7118 7.31605 55.7118 5.92405C55.7118 4.55605 55.7478 2.80405 55.7478 2.28805C55.7478 2.04805 55.7118 1.55605 55.6758 1.35205H56.9958ZM60.5958 2.67205C61.4718 3.11605 62.8158 3.92005 63.4278 4.38805L62.8398 5.36005C62.2518 4.83205 60.8118 3.96805 60.0558 3.58405L60.5958 2.67205ZM53.3238 3.41605C54.0078 3.50005 54.4758 3.51205 54.9078 3.51205C56.1198 3.51205 58.0038 3.27205 59.2158 2.91205L59.2518 4.08805C57.9558 4.38805 56.0118 4.62805 54.9438 4.62805C54.2118 4.62805 53.7558 4.61605 53.3478 4.56805L53.3238 3.41605Z" fill="white"/>
<path d="M48.9613 5.06006C49.7173 5.06006 50.3413 5.68406 50.3413 6.44006C50.3413 7.20806 49.7173 7.83206 48.9613 7.83206C48.1933 7.83206 47.5693 7.20806 47.5693 6.44006C47.5693 5.68406 48.1933 5.06006 48.9613 5.06006Z" fill="white"/>
<path d="M39.1864 1.46011C38.9704 2.21611 38.7304 3.66811 38.6584 4.43611C39.1864 3.33211 40.3504 2.04811 41.8024 2.04811C43.4224 2.04811 44.6344 3.66811 44.6344 6.23611C44.6344 9.59611 42.5464 11.1321 39.4864 11.6841L38.7664 10.5921C41.4064 10.1961 43.3744 9.21211 43.3744 6.24811C43.3744 4.37611 42.7384 3.15211 41.5864 3.15211C40.1224 3.15211 38.8024 5.31211 38.6944 6.88411C38.6464 7.29211 38.6584 7.68811 38.7304 8.27611L37.5664 8.36011C37.4944 7.89211 37.4224 7.19611 37.4224 6.40411C37.4224 5.27611 37.6264 3.63211 37.7824 2.54011C37.8304 2.14411 37.8664 1.73611 37.8784 1.41211L39.1864 1.46011Z" fill="white"/>
<path d="M25.813 1.92807H26.917V11.9961H25.813V1.92807ZM24.061 4.18407H28.201V5.25207H24.061V4.18407ZM25.897 4.67607L26.581 4.96407C26.113 6.66807 25.213 8.79207 24.301 9.93207C24.193 9.60807 23.929 9.14007 23.749 8.86407C24.601 7.90407 25.489 6.09207 25.897 4.67607ZM27.625 1.02807L28.393 1.90407C27.265 2.33607 25.645 2.63607 24.289 2.79207C24.241 2.55207 24.085 2.16807 23.953 1.91607C25.261 1.72407 26.749 1.40007 27.625 1.02807ZM26.821 5.75607C27.121 6.02007 28.213 7.13607 28.441 7.41207L27.781 8.31207C27.505 7.78407 26.677 6.65607 26.305 6.21207L26.821 5.75607ZM30.985 0.87207H32.113V4.60407H30.985V0.87207ZM28.501 1.49607H34.753V2.21607H28.501V1.49607ZM28.753 2.74407H34.453V3.44007H28.753V2.74407ZM28.141 3.98007H35.029V4.72407H28.141V3.98007ZM29.941 7.31607V7.98807H33.313V7.31607H29.941ZM29.941 8.67207V9.34407H33.313V8.67207H29.941ZM29.941 5.98407V6.63207H33.313V5.98407H29.941ZM28.921 5.24007H34.381V10.0881H28.921V5.24007ZM32.101 10.6281L32.869 10.0761C33.661 10.5321 34.609 11.0961 35.161 11.4801L34.165 12.0321C33.697 11.6601 32.857 11.0841 32.101 10.6281ZM30.265 10.0281L31.177 10.6041C30.457 11.1801 29.269 11.7561 28.297 12.0681C28.129 11.8521 27.805 11.5401 27.577 11.3481C28.549 11.0601 29.701 10.5081 30.265 10.0281Z" fill="white"/>
<path d="M14.5212 4.23227V5.25227H19.9932V4.23227H14.5212ZM14.5212 6.20027V7.23227H19.9932V6.20027H14.5212ZM14.5212 2.27627V3.29627H19.9932V2.27627H14.5212ZM13.4172 1.28027H21.1452V8.22827H13.4172V1.28027ZM17.9292 7.48427H19.0812V10.4243C19.0812 10.7843 19.1772 10.8443 19.6572 10.8443C19.8852 10.8443 20.9172 10.8443 21.2172 10.8443C21.6732 10.8443 21.7452 10.6403 21.8052 9.17627C22.0452 9.38027 22.5372 9.56027 22.8492 9.64427C22.7172 11.4563 22.4052 11.9243 21.3132 11.9243C21.0372 11.9243 19.7772 11.9243 19.5252 11.9243C18.2532 11.9243 17.9292 11.5763 17.9292 10.4243V7.48427ZM15.0252 7.84427H16.2372C16.0092 9.99227 15.3612 11.3483 12.3132 12.0443C12.2172 11.7443 11.9052 11.2763 11.6772 11.0363C14.3772 10.5083 14.8332 9.52427 15.0252 7.84427Z" fill="white"/>
<path d="M4.3034 1.35205C4.26739 1.56805 4.23139 1.97605 4.21939 2.27605C4.17139 3.08005 4.12339 4.68805 4.12339 5.87605C4.12339 7.14805 4.18339 9.11605 4.18339 9.83605C4.18339 11.1081 3.72739 11.4801 3.00739 11.4801C1.97539 11.4801 0.379395 10.5321 0.379395 9.36805C0.379395 8.26405 1.83139 7.11205 3.40339 6.53605C4.47139 6.12805 5.6714 5.92405 6.6074 5.92405C8.40739 5.92405 9.7514 6.87205 9.7514 8.40805C9.7514 9.84805 8.9114 10.8321 7.1474 11.2641C6.60739 11.3841 6.07939 11.4081 5.62339 11.4321L5.19139 10.2201C5.68339 10.2201 6.19939 10.2201 6.63139 10.1361C7.65139 9.94405 8.5274 9.41605 8.5274 8.40805C8.5274 7.47205 7.68739 6.95605 6.5954 6.95605C5.55139 6.95605 4.53139 7.18405 3.54739 7.58005C2.41939 8.01205 1.55539 8.74405 1.55539 9.32005C1.55539 9.78805 2.27539 10.1961 2.67139 10.1961C2.92339 10.1961 3.09139 10.0521 3.09139 9.64405C3.09139 8.98405 3.01939 7.31605 3.01939 5.92405C3.01939 4.55605 3.05539 2.80405 3.05539 2.28805C3.05539 2.04805 3.01939 1.55605 2.98339 1.35205H4.3034ZM7.90339 2.67205C8.77939 3.11605 10.1234 3.92005 10.7354 4.38805L10.1474 5.36005C9.55939 4.83205 8.11939 3.96805 7.36339 3.58405L7.90339 2.67205ZM0.631395 3.41605C1.31539 3.50005 1.78339 3.51205 2.21539 3.51205C3.42739 3.51205 5.31139 3.27205 6.52339 2.91205L6.55939 4.08805C5.2634 4.38805 3.31939 4.62805 2.25139 4.62805C1.51939 4.62805 1.06339 4.61605 0.655395 4.56805L0.631395 3.41605Z" fill="white"/>
<path fill-rule="evenodd" clip-rule="evenodd" d="M157.944 2.55556H150.722V3.66667V4.22222V9.77778H156.278H156.833H157.944V2.55556ZM150.167 2.55556V3.66667H149.056C148.749 3.66667 148.5 3.9154 148.5 4.22222V11.4444C148.5 11.7513 148.749 12 149.056 12H156.278C156.585 12 156.833 11.7513 156.833 11.4444V10.3333H157.944C158.251 10.3333 158.5 10.0846 158.5 9.77778V2.55556C158.5 2.24874 158.251 2 157.944 2H150.722C150.415 2 150.167 2.24874 150.167 2.55556ZM156.278 11.4444V10.3333H150.722C150.415 10.3333 150.167 10.0846 150.167 9.77778V4.22222H149.056V11.4444H156.278Z" fill="white"/>
</svg>
