<svg width="96" height="96" viewBox="0 0 96 96" fill="none" xmlns="http://www.w3.org/2000/svg">
<path d="M96 48C96 74.5097 74.5097 96 48 96C21.4903 96 0 74.5097 0 48C0 21.4903 21.4903 0 48 0C74.5097 0 96 21.4903 96 48Z" fill="#FAF1F5"/>
<path d="M76.6169 42.706C76.2259 43.25 75.8179 43.947 75.5629 44.389H78.2999C78.8609 44.389 79.5409 44.304 79.9829 44.168L82.0739 45.46C81.8529 45.834 81.5809 46.344 81.4109 46.854C80.9519 48.265 80.0339 50.509 78.4699 52.43C76.8209 54.453 74.7639 56.017 71.5679 57.326L69.1199 55.15C72.7919 54.028 74.5599 52.583 76.0049 50.968C77.0759 49.778 78.0279 47.823 78.2489 46.718H74.0159C72.8089 48.231 71.2959 49.693 69.7319 50.781L67.4199 49.064C70.4289 47.211 71.8059 45.171 72.7069 43.743C73.0129 43.267 73.4209 42.383 73.6079 41.72L76.6169 42.706Z" fill="#E5005A"/>
<path d="M57.6272 45.7322C57.9672 46.4802 58.8002 48.6902 59.0552 49.4892L56.5902 50.3392C56.3522 49.4892 55.6382 47.4832 55.1792 46.5312L57.6272 45.7322ZM63.9682 47.1262C63.7302 47.7892 63.6112 48.1972 63.4922 48.6052C63.0502 50.2372 62.3362 51.9712 61.2142 53.4332C59.6332 55.5072 57.4912 56.9862 55.4512 57.7682L53.2922 55.5582C55.0942 55.0992 57.5762 53.8072 58.9872 52.0222C60.1092 50.6112 60.9082 48.2992 61.0612 46.1912L63.9682 47.1262ZM53.6832 46.6502C54.1592 47.6022 54.9412 49.5742 55.2812 50.5602L52.7652 51.4952C52.4762 50.5772 51.6602 48.3502 51.2012 47.5342L53.6832 46.6502Z" fill="#E5005A"/>
<path d="M34.4406 46.5481C34.8146 46.6161 35.4606 46.6501 35.8856 46.6501H43.6376C44.0456 46.6501 44.5896 46.6161 45.0316 46.5481V49.1151C44.5726 49.0811 44.0286 49.0471 43.6376 49.0471H40.9686V54.0791H44.4366C44.9466 54.0791 45.4566 54.0111 45.8136 53.9601V56.6461C45.4396 56.5781 44.7596 56.5611 44.4366 56.5611H35.0526C34.6106 56.5611 34.0326 56.5781 33.5566 56.6461V53.9601C34.0156 54.0281 34.5936 54.0791 35.0526 54.0791H38.2486V49.0471H35.8856C35.4606 49.0471 34.8146 49.0811 34.4406 49.1151V46.5481Z" fill="#E5005A"/>
<path d="M15.9441 43.5731C17.2531 43.5901 19.9051 43.5901 21.7921 43.3011C23.5941 43.0291 25.1581 42.6721 26.0251 42.2471L27.7081 44.5081C27.0111 44.6781 26.5011 44.8141 26.1951 44.8821C25.3961 45.0861 24.5291 45.2561 23.6281 45.3921V47.7551H27.6911C28.0481 47.7551 28.9491 47.6871 29.3401 47.6531V50.2881C28.8301 50.2541 28.2351 50.2201 27.7421 50.2201H23.5431C23.2201 52.9231 21.9961 55.4221 19.1911 57.1391L16.5561 55.3711C19.0721 54.2321 20.3811 52.4811 20.7891 50.2201H16.3351C15.8251 50.2201 15.1621 50.2541 14.7031 50.2881V47.6531C15.2131 47.7041 15.7741 47.7551 16.3181 47.7551H20.9081V45.7321C19.3271 45.8511 17.6611 45.9191 16.5901 45.9361L15.9441 43.5731Z" fill="#E5005A"/>
<path d="M69.9056 24.7861C69.7796 25.2901 69.7236 25.6681 69.6676 26.0321C69.6256 26.2701 69.5696 26.6481 69.5136 27.1101C70.5216 27.0961 71.4176 27.0121 72.0756 26.9141L72.0196 28.5801C71.1796 28.6641 70.4096 28.7201 69.2896 28.7201C69.2056 29.3361 69.1216 29.9941 69.0516 30.6241C69.0796 30.6241 69.1216 30.6241 69.1496 30.6241C70.0176 30.6241 71.0536 30.5681 71.9636 30.4561L71.9216 32.1221C71.1376 32.1921 70.3256 32.2481 69.4436 32.2481C69.2616 32.2481 69.0656 32.2481 68.8836 32.2481C68.8556 32.6681 68.8276 33.0181 68.8276 33.2701C68.8276 34.4321 69.5416 35.0481 70.9136 35.0481C72.8736 35.0481 73.9376 34.1521 73.9376 33.0041C73.9376 32.0521 73.4196 31.1561 72.4956 30.2881L74.4696 29.8681C75.3936 31.0441 75.8276 32.0381 75.8276 33.2281C75.8276 35.3421 73.9236 36.8541 70.8576 36.8541C68.6596 36.8541 67.1056 35.9021 67.1056 33.5641C67.1056 33.2281 67.1476 32.7241 67.2036 32.1501C66.1816 32.0521 65.2576 31.8981 64.5156 31.6881L64.6136 29.9941C65.5236 30.3021 66.4616 30.4561 67.3716 30.5541C67.4556 29.9241 67.5396 29.2661 67.6096 28.6361C66.6436 28.5381 65.6496 28.3701 64.8236 28.1321L64.9216 26.5221C65.7336 26.7881 66.7836 26.9701 67.8056 27.0541C67.8476 26.6201 67.8896 26.2421 67.9176 25.9201C67.9596 25.2621 67.9596 24.9821 67.9316 24.6741L69.9056 24.7861Z" fill="#E5005A"/>
<path d="M53.4549 24.73C54.7849 25.15 57.8369 25.682 59.0549 25.822L58.6349 27.53C57.2209 27.348 54.0989 26.69 53.0069 26.41L53.4549 24.73ZM53.5389 27.544C53.3569 28.314 53.1049 30.022 53.0069 30.82C54.2809 29.896 55.6669 29.49 57.1369 29.49C59.5869 29.49 61.0149 31.002 61.0149 32.696C61.0149 35.244 58.9989 37.204 53.1749 36.714L52.6429 34.88C56.8429 35.454 59.0689 34.432 59.0689 32.654C59.0689 31.744 58.2009 31.072 56.9829 31.072C55.4009 31.072 53.9729 31.66 53.0909 32.724C52.8389 33.032 52.6989 33.256 52.5729 33.536L50.9629 33.13C51.2429 31.758 51.5649 29.014 51.6629 27.278L53.5389 27.544Z" fill="#E5005A"/>
<path d="M40.5618 24.8421C40.4078 25.3321 40.3238 25.8081 40.2258 26.2701C40.1978 26.3961 40.1698 26.5501 40.1418 26.7041C41.7378 26.6201 43.6278 26.4101 45.3218 26.0461L45.3498 27.7121C43.8938 27.9501 41.6678 28.2161 39.7918 28.3141C39.5958 29.1681 39.3718 30.0641 39.1618 30.7501C40.2958 30.1201 41.3878 29.8681 42.6338 29.8681C44.9018 29.8681 46.3998 31.0721 46.3998 32.8641C46.3998 36.0141 43.3618 37.1481 38.8398 36.6581L38.3498 34.8521C41.4158 35.3561 44.5098 34.9781 44.5098 32.9201C44.5098 32.0801 43.7958 31.3801 42.4238 31.3801C40.8138 31.3801 39.3858 31.9541 38.5458 33.0181C38.3918 33.2141 38.2938 33.3961 38.1538 33.6341L36.5018 33.0461C37.1738 31.7441 37.7338 29.8821 38.0978 28.3421C37.2158 28.3281 36.3898 28.2861 35.6758 28.2161V26.4801C36.5158 26.6201 37.5658 26.7321 38.4198 26.7461C38.4478 26.5361 38.4758 26.3401 38.5038 26.1721C38.5878 25.5701 38.6018 25.2201 38.5738 24.7581L40.5618 24.8421Z" fill="#E5005A"/>
<path d="M22.7114 25.8222C23.7474 25.9342 25.0494 25.9902 26.5194 25.9902C27.9054 25.9902 29.5014 25.9062 30.5794 25.7942V27.6562C29.5994 27.7402 27.8634 27.8242 26.5334 27.8242C25.0634 27.8242 23.8454 27.7682 22.7114 27.6702V25.8222ZM23.8874 31.7582C23.7474 32.2622 23.6494 32.6962 23.6494 33.1722C23.6494 34.0682 24.5034 34.7122 26.5194 34.7122C28.4094 34.7122 30.2014 34.5022 31.4334 34.1522L31.4474 36.1262C30.2294 36.4202 28.5494 36.6022 26.5894 36.6022C23.3834 36.6022 21.7734 35.5242 21.7734 33.6062C21.7734 32.7942 21.9414 32.1082 22.0534 31.5902L23.8874 31.7582Z" fill="#E5005A"/>
<path fill-rule="evenodd" clip-rule="evenodd" d="M51.3008 71.5C51.3008 73.8749 49.3756 75.8 47.0008 75.8C44.626 75.8 42.7008 73.8749 42.7008 71.5C42.7008 69.1252 44.626 67.2 47.0008 67.2C49.3756 67.2 51.3008 69.1252 51.3008 71.5ZM47.0008 77.2C50.1488 77.2 52.7008 74.6481 52.7008 71.5C52.7008 68.352 50.1488 65.8 47.0008 65.8C43.8528 65.8 41.3008 68.352 41.3008 71.5C41.3008 74.6481 43.8528 77.2 47.0008 77.2ZM47.0008 76C49.4861 76 51.5008 73.9853 51.5008 71.5C51.5008 70.8787 51.3749 70.2868 51.1471 69.7484C51.3749 70.2868 51.5008 70.8787 51.5008 71.5001C51.5008 73.9853 49.4861 76.0001 47.0008 76.0001C46.454 76.0001 45.93 75.9025 45.4453 75.724C45.93 75.9025 46.454 76 47.0008 76ZM49.3008 66.5026C48.601 66.18 47.8219 66 47.0008 66C43.9632 66 41.5008 68.4625 41.5008 71.5C41.5008 72.6391 41.8471 73.6973 42.4401 74.5752C41.8471 73.6973 41.5008 72.6391 41.5008 71.5001C41.5008 68.4625 43.9632 66.0001 47.0008 66.0001C47.8219 66.0001 48.601 66.18 49.3008 66.5026Z" fill="#E5005A"/>
<path fill-rule="evenodd" clip-rule="evenodd" d="M50.8552 74.3638L49.8652 75.3537L54.0067 79.4951C54.28 79.7685 54.7232 79.7685 54.9966 79.4951C55.27 79.2218 55.27 78.7786 54.9966 78.5052L50.8552 74.3638ZM54.9894 79.1104C55.0258 78.9487 54.981 78.7725 54.8552 78.6466L50.8552 74.6466L50.1481 75.3537L50.1481 75.3537L50.8552 74.6466L54.8552 78.6466C54.981 78.7725 55.0258 78.9487 54.9894 79.1104Z" fill="#E5005A"/>
</svg>
