<svg width="159" height="18" viewBox="0 0 159 18" fill="none" xmlns="http://www.w3.org/2000/svg">
<path d="M131.978 2.70621C131.587 3.25021 131.179 3.94721 130.924 4.38921H133.661C134.222 4.38921 134.902 4.30422 135.344 4.16821L137.435 5.46022C137.214 5.83421 136.942 6.34422 136.772 6.85421C136.313 8.26522 135.395 10.5092 133.831 12.4302C132.182 14.4532 130.125 16.0172 126.929 17.3262L124.481 15.1502C128.153 14.0282 129.921 12.5832 131.366 10.9682C132.437 9.77822 133.389 7.82321 133.61 6.71822H129.377C128.17 8.23122 126.657 9.69322 125.093 10.7812L122.781 9.06421C125.79 7.21121 127.167 5.17121 128.068 3.74322C128.374 3.26722 128.782 2.38321 128.969 1.72021L131.978 2.70621Z" fill="#E5005A"/>
<path d="M112.99 5.73242C113.33 6.48042 114.163 8.69042 114.418 9.48942L111.953 10.3394C111.715 9.48942 111.001 7.48342 110.542 6.53142L112.99 5.73242ZM119.331 7.12642C119.093 7.78942 118.974 8.19742 118.855 8.60542C118.413 10.2374 117.699 11.9714 116.577 13.4334C114.996 15.5074 112.854 16.9864 110.814 17.7684L108.655 15.5584C110.457 15.0994 112.939 13.8074 114.35 12.0224C115.472 10.6114 116.271 8.29942 116.424 6.19142L119.331 7.12642ZM109.046 6.65042C109.522 7.60242 110.304 9.57442 110.644 10.5604L108.128 11.4954C107.839 10.5774 107.023 8.35042 106.564 7.53442L109.046 6.65042Z" fill="#E5005A"/>
<path d="M89.802 6.54834C90.176 6.61634 90.822 6.65034 91.247 6.65034H98.999C99.407 6.65034 99.951 6.61634 100.393 6.54834V9.11534C99.934 9.08134 99.39 9.04734 98.999 9.04734H96.33V14.0793H99.798C100.308 14.0793 100.818 14.0113 101.175 13.9603V16.6463C100.801 16.5783 100.121 16.5613 99.798 16.5613H90.414C89.972 16.5613 89.394 16.5783 88.918 16.6463V13.9603C89.377 14.0283 89.955 14.0793 90.414 14.0793H93.61V9.04734H91.247C90.822 9.04734 90.176 9.08134 89.802 9.11534V6.54834Z" fill="#E5005A"/>
<path d="M71.3055 3.57307C72.6145 3.59007 75.2665 3.59007 77.1535 3.30107C78.9555 3.02907 80.5195 2.67207 81.3865 2.24707L83.0695 4.50807C82.3725 4.67807 81.8625 4.81407 81.5565 4.88207C80.7575 5.08607 79.8905 5.25607 78.9895 5.39207V7.75507H83.0525C83.4095 7.75507 84.3105 7.68707 84.7015 7.65307V10.2881C84.1915 10.2541 83.5965 10.2201 83.1035 10.2201H78.9045C78.5815 12.9231 77.3575 15.4221 74.5525 17.1391L71.9175 15.3711C74.4335 14.2321 75.7425 12.4811 76.1505 10.2201H71.6965C71.1865 10.2201 70.5235 10.2541 70.0645 10.2881V7.65307C70.5745 7.70407 71.1355 7.75507 71.6795 7.75507H76.2695V5.73207C74.6885 5.85107 73.0225 5.91907 71.9515 5.93607L71.3055 3.57307Z" fill="#E5005A"/>
<path d="M59.1329 2.38307C58.9799 2.99507 58.9119 3.45407 58.8439 3.89607C58.7929 4.18507 58.7249 4.64407 58.6569 5.20507C59.8809 5.18807 60.9689 5.08607 61.7679 4.96707L61.6999 6.99007C60.6799 7.09207 59.7449 7.16007 58.3849 7.16007C58.2829 7.90807 58.1809 8.70707 58.0959 9.47207C58.1299 9.47207 58.1809 9.47207 58.2149 9.47207C59.2689 9.47207 60.5269 9.40407 61.6319 9.26807L61.5809 11.2911C60.6289 11.3761 59.6429 11.4441 58.5719 11.4441C58.3509 11.4441 58.1129 11.4441 57.8919 11.4441C57.8579 11.9541 57.8239 12.3791 57.8239 12.6851C57.8239 14.0961 58.6909 14.8441 60.3569 14.8441C62.7369 14.8441 64.0289 13.7561 64.0289 12.3621C64.0289 11.2061 63.3999 10.1181 62.2779 9.06407L64.6749 8.55407C65.7969 9.98207 66.3239 11.1891 66.3239 12.6341C66.3239 15.2011 64.0119 17.0371 60.2889 17.0371C57.6199 17.0371 55.7329 15.8811 55.7329 13.0421C55.7329 12.6341 55.7839 12.0221 55.8519 11.3251C54.6109 11.2061 53.4889 11.0191 52.5879 10.7641L52.7069 8.70707C53.8119 9.08107 54.9509 9.26807 56.0559 9.38707C56.1579 8.62207 56.2599 7.82307 56.3449 7.05807C55.1719 6.93907 53.9649 6.73507 52.9619 6.44607L53.0809 4.49107C54.0669 4.81407 55.3419 5.03507 56.5829 5.13707C56.6339 4.61007 56.6849 4.15107 56.7189 3.76007C56.7699 2.96107 56.7699 2.62107 56.7359 2.24707L59.1329 2.38307Z" fill="#E5005A"/>
<path d="M39.1588 2.31543C40.7738 2.82543 44.4798 3.47143 45.9588 3.64143L45.4488 5.71543C43.7318 5.49443 39.9408 4.69543 38.6148 4.35543L39.1588 2.31543ZM39.2608 5.73243C39.0398 6.66743 38.7338 8.74143 38.6148 9.71043C40.1618 8.58843 41.8448 8.09543 43.6298 8.09543C46.6048 8.09543 48.3388 9.93143 48.3388 11.9884C48.3388 15.0824 45.8908 17.4624 38.8188 16.8674L38.1728 14.6404C43.2728 15.3374 45.9758 14.0964 45.9758 11.9374C45.9758 10.8324 44.9218 10.0164 43.4428 10.0164C41.5218 10.0164 39.7878 10.7304 38.7168 12.0224C38.4108 12.3964 38.2408 12.6684 38.0878 13.0084L36.1328 12.5154C36.4728 10.8494 36.8638 7.51743 36.9828 5.40943L39.2608 5.73243Z" fill="#E5005A"/>
<path d="M23.5014 2.45112C23.3144 3.04612 23.2124 3.62412 23.0934 4.18512C23.0594 4.33812 23.0254 4.52512 22.9914 4.71212C24.9294 4.61012 27.2244 4.35512 29.2814 3.91312L29.3154 5.93612C27.5474 6.22512 24.8444 6.54812 22.5664 6.66712C22.3284 7.70412 22.0564 8.79212 21.8014 9.62512C23.1784 8.86012 24.5044 8.55412 26.0174 8.55412C28.7714 8.55412 30.5904 10.0161 30.5904 12.1921C30.5904 16.0171 26.9014 17.3941 21.4104 16.7991L20.8154 14.6061C24.5384 15.2181 28.2954 14.7591 28.2954 12.2601C28.2954 11.2401 27.4284 10.3901 25.7624 10.3901C23.8074 10.3901 22.0734 11.0871 21.0534 12.3791C20.8664 12.6171 20.7474 12.8381 20.5774 13.1271L18.5714 12.4131C19.3874 10.8321 20.0674 8.57112 20.5094 6.70112C19.4384 6.68412 18.4354 6.63312 17.5684 6.54812V4.44012C18.5884 4.61012 19.8634 4.74612 20.9004 4.76312C20.9344 4.50812 20.9684 4.27012 21.0024 4.06612C21.1044 3.33512 21.1214 2.91012 21.0874 2.34912L23.5014 2.45112Z" fill="#E5005A"/>
<path d="M1.8265 3.64142C3.0845 3.77742 4.6655 3.84542 6.4505 3.84542C8.1335 3.84542 10.0715 3.74342 11.3805 3.60742V5.86842C10.1905 5.97042 8.0825 6.07242 6.4675 6.07242C4.6825 6.07242 3.2035 6.00442 1.8265 5.88542V3.64142ZM3.2545 10.8494C3.0845 11.4614 2.9655 11.9884 2.9655 12.5664C2.9655 13.6544 4.0025 14.4364 6.4505 14.4364C8.7455 14.4364 10.9215 14.1814 12.4175 13.7564L12.4345 16.1534C10.9555 16.5104 8.9155 16.7314 6.5355 16.7314C2.6425 16.7314 0.6875 15.4224 0.6875 13.0934C0.6875 12.1074 0.8915 11.2744 1.0275 10.6454L3.2545 10.8494Z" fill="#E5005A"/>
<path fill-rule="evenodd" clip-rule="evenodd" d="M152.801 8.4998C152.801 10.8746 150.876 12.7998 148.501 12.7998C146.126 12.7998 144.201 10.8746 144.201 8.4998C144.201 6.12498 146.126 4.1998 148.501 4.1998C150.876 4.1998 152.801 6.12498 152.801 8.4998ZM148.501 14.1998C151.649 14.1998 154.201 11.6478 154.201 8.4998C154.201 5.35178 151.649 2.7998 148.501 2.7998C145.353 2.7998 142.801 5.35178 142.801 8.4998C142.801 11.6478 145.353 14.1998 148.501 14.1998ZM148.501 12.9998C150.986 12.9998 153.001 10.9851 153.001 8.4998C153.001 7.87848 152.875 7.28657 152.647 6.7482C152.875 7.28658 153.001 7.87849 153.001 8.49982C153.001 10.9851 150.986 12.9998 148.501 12.9998C147.954 12.9998 147.43 12.9023 146.945 12.7237C147.43 12.9023 147.954 12.9998 148.501 12.9998ZM150.801 3.50234C150.101 3.17974 149.322 2.9998 148.501 2.9998C145.463 2.9998 143.001 5.46224 143.001 8.4998C143.001 9.63889 143.347 10.6971 143.94 11.5749C143.347 10.6971 143.001 9.6389 143.001 8.49982C143.001 5.46225 145.463 2.99982 148.501 2.99982C149.322 2.99982 150.101 3.17975 150.801 3.50234Z" fill="#E5005A"/>
<path fill-rule="evenodd" clip-rule="evenodd" d="M152.355 11.3633L151.365 12.3532L155.507 16.4947C155.78 16.768 156.223 16.768 156.497 16.4947C156.77 16.2213 156.77 15.7781 156.497 15.5047L152.355 11.3633ZM156.489 16.1099C156.526 15.9482 156.481 15.772 156.355 15.6461L152.355 11.6461L151.648 12.3532L151.648 12.3532L152.355 11.6461L156.355 15.6461C156.481 15.772 156.526 15.9482 156.489 16.1099Z" fill="#E5005A"/>
</svg>
