<svg width="130" height="80" viewBox="0 0 130 80" fill="none" xmlns="http://www.w3.org/2000/svg">
<mask id="mask0_1621_24857" style="mask-type:alpha" maskUnits="userSpaceOnUse" x="0" y="0" width="130" height="80">
<rect width="130" height="80" fill="#D9D9D9"/>
</mask>
<g mask="url(#mask0_1621_24857)">
</g>
<g clip-path="url(#clip0_1621_24857)">
<path d="M57.3676 40.7873L53.8146 36.4959C54.5643 34.2672 54.9384 31.9291 54.9217 29.5773C54.9217 19.7651 47.4622 11.5029 36.7633 11.5029C26.0279 11.5029 18.6074 19.8316 18.6074 29.5773C18.6074 40.4816 26.1875 47.9907 36.7641 47.9907C43.7687 47.9907 49.2191 44.905 52.2518 39.8618L57.3676 40.7873Z" fill="white"/>
<path d="M93.8839 19.7719L92.252 19.4063C90.7017 18.5841 89.0213 16.0911 88.3991 14.645C87.8597 13.3683 87.3945 12.0615 87.0059 10.731C84.8803 13.0461 81.7449 14.7957 78.3831 15.745C78.3015 15.7687 78.2153 15.7723 78.132 15.7554C78.0487 15.7385 77.9707 15.7018 77.9046 15.6482C77.8386 15.5946 77.7864 15.5259 77.7526 15.4478C77.7188 15.3697 77.7043 15.2845 77.7104 15.1996C77.7607 14.5157 77.8947 13.8406 78.1093 13.1894C78.1176 13.1653 78.1179 13.1392 78.1099 13.115C78.102 13.0908 78.0865 13.0699 78.0656 13.0554C78.0447 13.0409 78.0196 13.0336 77.9942 13.0347C77.9688 13.0358 77.9445 13.0452 77.9249 13.0615C75.7411 14.8522 73.3818 16.7166 71.1826 18.2272C70.9422 18.3933 70.6526 18.5708 70.4675 18.6951L70.0254 18.9939L70.0384 19.0962C70.2902 21.0643 70.4555 23.0333 70.6475 24.8448C70.6617 24.9791 70.677 25.1129 70.6935 25.2461C71.0633 28.2277 72.0195 30.9077 74.1158 32.6393C75.846 34.0683 77.6583 34.8649 79.7089 35.065C79.737 35.9463 78.8025 36.4569 78.0626 36.7255C77.239 37.1059 75.8437 37.5953 74.7353 38.0141C75.6364 39.439 77.006 40.3558 78.5106 40.9511C80.0202 41.5202 81.6261 41.7889 83.2384 41.7421C87.6758 41.6971 92.2538 40.2139 95.4086 36.8222C93.9529 36.3039 91.6257 35.968 91.0986 34.7534C90.9203 34.2994 90.7906 33.8278 90.7117 33.3464C90.5893 32.7355 90.467 32.1247 90.3449 31.514C91.229 30.6568 92.0186 29.7071 92.7002 28.681C92.7002 28.681 93.27 27.8076 93.5111 27.3083C93.5111 27.3083 93.5734 27.1804 93.6426 27.0381C94.2955 27.0581 94.9428 26.9105 95.5228 26.6094C96.3972 26.0519 97.0859 25.246 97.5008 24.2945C97.9889 23.3183 98.2118 21.6744 97.7817 20.713C97.6374 20.3917 97.2778 19.8299 96.293 19.6764C95.7913 19.5925 95.2765 19.7039 94.8542 19.988L93.8839 19.7719Z" fill="white"/>
<path d="M76.2879 75.8787C73.4821 75.2325 71.5215 74.8531 68.4108 74.2069C63.4166 73.1693 60.6992 70.4894 60.6992 70.4894C61.469 64.2571 62.8956 54.6542 64.0883 48.4633C64.5154 46.2037 65.5686 44.1099 67.1275 42.4214C69.1938 40.139 71.1982 39.3101 74.6008 37.7954C75.4974 39.3467 76.9292 40.328 78.5095 40.9522C80.0191 41.5214 81.6251 41.79 83.2374 41.7432C87.7578 41.6974 92.4228 40.1597 95.5805 36.6345C98.6639 37.2608 102.992 39.7755 104.752 41.9755C108.309 46.4204 109.31 52.0947 109.907 57.395C110.524 62.877 110.765 69.5426 109.192 72.9294C108.459 74.5085 107.506 75.4336 105.742 76.4768C103.268 77.9386 98.2573 78.6733 94.5094 78.3338C94.5102 78.3333 80.9222 76.9465 76.2879 75.8787Z" fill="white"/>
<path d="M76.899 66.2281C78.0664 66.5821 79.6572 66.9137 80.8938 67.1628C80.8008 66.9679 80.7431 66.8456 80.7431 66.8456C80.509 66.3502 80.306 65.8407 80.1353 65.3199C80.0734 65.1631 80.0434 64.9955 80.0472 64.827C80.0824 64.4105 80.5171 64.1183 80.9339 64.102C81.353 64.1181 81.76 64.2471 82.112 64.4755C82.1961 64.5218 82.2785 64.5706 82.3618 64.6185L82.1749 64.1009C79.7203 57.047 76.9776 45.1798 75.4836 37.1169C75.4714 37.0507 75.4452 36.9879 75.4069 36.9326C75.3686 36.8774 75.319 36.8309 75.2614 36.7963C75.2038 36.7617 75.1395 36.7397 75.0728 36.732C75.0061 36.7242 74.9385 36.7307 74.8745 36.7511L73.9438 37.0458C73.8412 37.0779 73.7521 37.1434 73.6906 37.2318C73.6291 37.3202 73.5987 37.4265 73.6041 37.5341C74.0582 47.1701 74.697 56.5379 76.8338 65.9403L76.899 66.2281Z" fill="white"/>
<path d="M76.5394 74.5543C77.4078 72.1453 81.2954 68.6111 84.0199 65.7145L83.7969 65.5592C83.2613 65.1592 82.6985 64.797 82.1126 64.4753C81.7606 64.247 81.3536 64.118 80.9345 64.1018C80.5177 64.1182 80.083 64.4103 80.0478 64.8268C80.044 64.9954 80.0739 65.163 80.1359 65.3198C80.3066 65.8405 80.5096 66.3501 80.7437 66.8455C80.7437 66.8455 80.8014 66.9678 80.8944 67.1627C79.2545 66.8319 76.9869 66.3566 75.9173 65.8754C74.3576 65.1739 73.7465 65.3893 73.4351 65.8286C73.3342 65.9806 73.2813 66.1594 73.2833 66.3419C73.2852 66.5244 73.342 66.7021 73.4461 66.8519C72.4435 66.408 71.4638 65.9969 70.9885 66.8567C70.5707 67.6124 71.1946 68.2926 71.867 68.7209L71.7575 68.6697C71.2372 68.4226 70.8074 68.5344 70.4741 69.0611C70.4093 69.1781 70.3692 69.3072 70.3564 69.4403C70.3436 69.5735 70.3583 69.7078 70.3996 69.835C70.4409 69.9623 70.508 70.0796 70.5965 70.1797C70.6851 70.2798 70.7933 70.3606 70.9144 70.417C71.1604 70.5932 71.3772 70.7465 71.5802 70.8854C71.0781 70.6651 70.5939 70.7482 70.3135 71.156C70.2141 71.3048 70.1545 71.4765 70.1401 71.6549C70.1258 71.8333 70.1572 72.0124 70.2315 72.1752C70.5617 72.6899 71.1471 73.045 71.629 73.3926C72.7325 74.1924 73.9063 74.8901 75.1358 75.4771C75.5108 75.6246 75.8967 75.7429 76.2899 75.8309C76.3054 75.3948 76.3896 74.964 76.5394 74.5543Z" fill="white"/>
<path d="M96.4962 36.678C96.2921 36.6173 96.0726 36.6356 95.8812 36.7293C95.6899 36.823 95.5407 36.9853 95.4632 37.1841C93.8762 41.3027 89.746 56.9711 85.4033 64.1796C85.0643 64.7424 84.5482 65.1502 84.0992 65.6293C81.3716 68.5416 77.4148 72.1218 76.5396 74.5544C76.3036 75.2095 76.1154 76.2683 76.5501 76.7091C77.8704 78.0519 80.8506 78.7511 83.1405 78.6953C84.4685 78.6628 86.0691 78.2975 86.9004 78.5352C90.6242 79.6006 93.9982 79.6526 97.2693 78.835C99.8784 78.0558 99.1924 73.1476 99.409 67.7227C99.5086 66.2328 99.4473 59.8923 99.4264 58.6544C99.3183 52.3163 99.185 44.9249 98.9268 38.4775C98.9142 38.1585 98.8022 37.8514 98.6063 37.5995C98.4105 37.3477 98.1407 37.1636 97.835 37.0733L96.4962 36.678Z" fill="white"/>
<path d="M69.3392 34.2701C69.4426 35.5602 70.0729 37.1158 71.8463 38.3555L73.1726 38.4322C73.3238 38.364 73.4781 38.2949 73.6356 38.2248C73.6246 37.9945 73.6129 37.7643 73.6022 37.5341C73.5967 37.4265 73.6272 37.3201 73.6887 37.2317C73.7501 37.1433 73.8392 37.0779 73.9418 37.0457L74.8725 36.751C74.9365 36.7306 75.0041 36.7241 75.0708 36.7319C75.1376 36.7397 75.2019 36.7616 75.2595 36.7962C75.3171 36.8308 75.3667 36.8773 75.405 36.9326C75.4433 36.9879 75.4694 37.0507 75.4816 37.1168C75.5169 37.3072 75.5534 37.5006 75.5901 37.6957C76.4935 37.3616 77.4402 37.0132 78.0616 36.7262C78.8022 36.4576 79.7359 35.947 79.7078 35.0657C77.6583 34.8664 75.8461 34.068 74.1147 32.64C72.0177 30.9084 71.0615 28.2284 70.6925 25.2468C70.6755 25.1136 70.6601 24.9798 70.6465 24.8454C70.4545 23.034 70.289 21.0649 70.0374 19.0969L70.0244 18.9946L70.4665 18.6961C70.6506 18.5717 70.9402 18.3942 71.1816 18.2282C73.3813 16.7176 75.7406 14.8534 77.9239 13.0624C77.9435 13.0462 77.9678 13.0368 77.9932 13.0357C78.0186 13.0346 78.0437 13.0418 78.0646 13.0563C78.0854 13.0708 78.101 13.0918 78.1089 13.1159C78.1168 13.1401 78.1166 13.1663 78.1083 13.1903C77.8937 13.8415 77.7597 14.5166 77.7094 15.2005C77.7033 15.2855 77.7178 15.3706 77.7516 15.4487C77.7854 15.5268 77.8375 15.5956 77.9036 15.6491C77.9697 15.7027 78.0477 15.7395 78.131 15.7563C78.2143 15.7732 78.3005 15.7696 78.3821 15.746C81.7428 14.7961 84.8793 13.0466 87.0049 10.7319C87.3935 12.0624 87.8587 13.3693 88.3981 14.6459C89.0202 16.0921 90.7007 18.5855 92.2509 19.4072L93.8829 19.7728L94.8534 19.99C95.2757 19.7059 95.7905 19.5944 96.2923 19.6784C97.2771 19.8319 97.6367 20.3947 97.781 20.715C98.2116 21.6758 97.9886 23.3197 97.5 24.2965C97.0851 25.2479 96.3965 26.0539 95.522 26.6114C94.942 26.9125 94.2948 27.06 93.6418 27.0401C93.5726 27.1813 93.5103 27.3103 93.5103 27.3103C93.2692 27.8096 92.6994 28.683 92.6994 28.683C92.0178 29.709 91.2282 30.6588 90.3442 31.5159C90.4666 32.1268 90.5888 32.7376 90.7109 33.3484C90.7899 33.8297 90.9196 34.3014 91.0979 34.7554C91.6245 35.9685 93.9452 36.3051 95.402 36.8221C95.461 36.7589 95.5228 36.6998 95.5808 36.6354C95.6944 36.6584 95.8106 36.6847 95.9273 36.7121C96.1073 36.6358 96.3081 36.624 96.4958 36.6786L97.8349 37.0738C98.1718 37.1744 98.4634 37.3891 98.6598 37.6812C99.2388 37.9429 99.8193 38.2378 100.385 38.5563C101.07 37.6719 101.106 36.7318 101.126 36.0749C101.175 34.7209 100.981 33.3692 100.552 32.0841C100.023 30.3174 99.0523 26.7342 99.2352 20.407C99.3834 19.0779 99.444 17.7405 99.4165 16.4034C99.4111 15.78 99.3974 15.2522 99.3851 14.9071C99.2531 10.7744 96.9563 5.9862 93.9215 4.09314C90.2663 1.1305 86.9554 0.455392 83.6552 0.649047C78.971 0.924053 75.218 2.77004 72.7177 5.77182C71.274 7.50474 70.2471 10.0141 69.865 12.2458C69.4919 14.8322 69.5617 17.4632 70.0714 20.0261C70.4991 24.9869 69.0013 30.2107 69.3392 34.2701Z" fill="#1492D9"/>
<path d="M94.7527 5.51761C96.4579 7.15486 97.5914 9.36411 98.235 11.6212C98.9107 13.9909 98.8913 16.5125 98.7552 18.9558C98.7189 19.6071 98.6244 20.2525 98.6114 20.9041C98.5974 21.6033 98.5974 22.3026 98.6114 23.0018C98.6369 24.1824 98.7056 25.3628 98.8318 26.537C98.9988 28.1799 99.2958 29.8069 99.7201 31.4027C99.9892 32.3924 100.327 33.3651 100.452 34.3883C100.608 35.6674 100.668 37.1704 99.8587 38.2489C99.7777 38.3897 99.7553 38.5569 99.7964 38.7142C99.8376 38.8714 99.939 39.0061 100.079 39.089C100.22 39.1673 100.386 39.1881 100.542 39.1471C100.698 39.1061 100.832 39.0064 100.917 38.8687C101.709 37.8145 101.787 36.4784 101.74 35.2064C101.663 33.9887 101.433 32.7856 101.057 31.625C100.647 30.2188 100.345 28.7834 100.152 27.3313C99.7985 24.8056 99.723 22.2486 99.9272 19.7064C100.031 18.3588 100.062 17.0066 100.02 15.6557C100.011 14.4213 99.8697 13.1915 99.5985 11.9873C98.9577 9.28557 97.6386 6.58643 95.62 4.64936C95.0502 4.10268 94.1821 4.96991 94.7532 5.51761H94.7527Z" fill="#726A69"/>
<path d="M69.3634 19.1436C69.7509 22.0747 69.4091 25.0292 69.0733 27.9473C68.9137 29.3346 68.7495 30.7242 68.694 32.1205C68.6499 33.2394 68.622 34.4346 68.9563 35.516C69.4201 36.8942 70.3278 38.0792 71.5368 38.8846C71.6775 38.9654 71.8443 38.9876 72.0012 38.9464C72.1581 38.9052 72.2925 38.8039 72.3755 38.6643C72.4542 38.5229 72.4752 38.3566 72.4342 38.2C72.3932 38.0434 72.2934 37.9088 72.1556 37.8242C71.2359 37.2052 70.5379 36.3078 70.1636 35.2632C69.841 34.274 69.8788 33.1926 69.9212 32.1195C70.0295 29.3904 70.5155 26.6915 70.6928 23.9673C70.817 22.3596 70.7828 20.7435 70.5906 19.1425C70.5855 18.9813 70.5193 18.8281 70.4054 18.7141C70.2915 18.6 70.1386 18.5337 69.9777 18.5286C69.6801 18.5286 69.3208 18.8115 69.3647 19.1425L69.3634 19.1436Z" fill="#726A69"/>
<path d="M78.9695 29.9053C79.0222 29.8769 79.0763 29.8526 79.1297 29.8255C79.0096 29.8866 79.1552 29.8173 79.204 29.7999C79.3402 29.7533 79.4791 29.7152 79.62 29.6858C79.6892 29.6712 79.7592 29.6615 79.8284 29.6472C79.9211 29.628 79.7304 29.6569 79.8251 29.6472C79.8611 29.6433 79.8969 29.6387 79.9326 29.6354C80.0854 29.6205 80.2388 29.6134 80.3923 29.6142C80.5343 29.6142 80.6733 29.629 80.8155 29.6397C80.6848 29.6308 80.8577 29.6466 80.9041 29.6556C80.968 29.6679 81.0318 29.6812 81.0944 29.6986C81.157 29.716 81.2142 29.7326 81.2732 29.7533C81.286 29.7577 81.4211 29.8134 81.3598 29.7863C81.3087 29.7633 81.4144 29.8119 81.4239 29.817C81.586 29.8938 81.7459 29.9738 81.9091 30.046C82.0504 30.124 82.2163 30.1446 82.3724 30.1036C82.5285 30.0626 82.6629 29.9631 82.7478 29.8257C82.8281 29.6847 82.85 29.5178 82.8089 29.3607C82.7678 29.2037 82.667 29.069 82.5279 28.9856C82.1779 28.8046 81.8152 28.6493 81.4428 28.5208C81.0997 28.431 80.7464 28.3861 80.3918 28.3872C79.6834 28.3685 78.9814 28.526 78.3487 28.8457C78.2094 28.9288 78.1082 29.0635 78.0671 29.2207C78.026 29.3778 78.0481 29.5448 78.1288 29.6858C78.2132 29.8238 78.3476 29.9239 78.5039 29.9649C78.6602 30.006 78.8264 29.9849 78.9675 29.906L78.9695 29.9053Z" fill="#726A69"/>
<path d="M82.6698 22.278C82.4992 21.6361 82.6821 20.1823 83.8865 20.1035C85.4715 20.1741 85.4881 21.9413 84.9227 22.75C84.4596 23.413 83.164 23.6458 82.6698 22.278Z" fill="#726A69"/>
<path d="M73.245 22.2117C73.0892 21.568 73.2575 20.1091 74.3603 20.03C75.8117 20.0999 75.826 21.8719 75.3078 22.6844C74.8834 23.349 73.6966 23.5836 73.245 22.2117Z" fill="#726A69"/>
<path d="M78.145 23.721C77.9381 24.0661 77.74 24.4178 77.5642 24.7798C77.4656 24.9583 77.4047 25.1553 77.3855 25.3585C77.3804 25.4821 77.403 25.6053 77.4516 25.7191C77.5002 25.8328 77.5736 25.9343 77.6664 26.0159C77.8153 26.1573 77.996 26.2607 78.1933 26.3173C78.3223 26.3435 78.4529 26.3613 78.5843 26.3705L78.4213 26.3485L78.4367 26.3508C78.5964 26.3887 78.7645 26.3667 78.9091 26.2889C78.9787 26.2482 79.0395 26.1942 79.0882 26.13C79.1369 26.0657 79.1724 25.9925 79.1929 25.9145C79.2133 25.8365 79.2181 25.7552 79.2072 25.6753C79.1962 25.5954 79.1697 25.5184 79.129 25.4488C79.0899 25.3797 79.0373 25.3192 78.9743 25.2708C78.9114 25.2225 78.8393 25.1873 78.7625 25.1674C78.6525 25.1507 78.5421 25.1418 78.4305 25.127L78.5935 25.149C78.5399 25.1409 78.4874 25.1266 78.4372 25.1062L78.5838 25.1681C78.5378 25.1473 78.4943 25.1215 78.4538 25.0914L78.5776 25.1876C78.5386 25.1568 78.5025 25.1225 78.4696 25.0853L78.5654 25.2096C78.5565 25.1976 78.5489 25.1846 78.5429 25.171L78.6047 25.3175C78.5971 25.2969 78.5917 25.2754 78.5886 25.2536L78.6106 25.4168C78.6088 25.3937 78.6088 25.3705 78.6106 25.3475L78.5889 25.5107C78.5991 25.453 78.6162 25.3969 78.64 25.3434L78.5782 25.49C78.763 25.0949 78.9713 24.7113 79.2021 24.3413C79.2841 24.2007 79.307 24.0332 79.2657 23.8757C79.2245 23.7182 79.1224 23.5835 78.9821 23.5014C78.8417 23.4192 78.6745 23.3963 78.5172 23.4376C78.3599 23.4789 78.2255 23.5811 78.1435 23.7217L78.145 23.721Z" fill="#726A69"/>
<path d="M89.9778 32.6654C90.9645 31.8262 91.8529 30.8774 92.6257 29.8373C93.1648 29.1433 93.6382 28.4006 94.0396 27.6186C94.1177 27.4771 94.1384 27.3109 94.0975 27.1546C94.0565 26.9982 93.9571 26.8636 93.8197 26.7787C93.679 26.698 93.5123 26.6758 93.3555 26.717C93.1987 26.7582 93.0643 26.8595 92.9812 26.999C92.0306 28.8459 90.7136 30.479 89.111 31.7984C88.9973 31.9142 88.9336 32.0701 88.9336 32.2325C88.9336 32.3949 88.9973 32.5509 89.111 32.6667C89.2275 32.7787 89.3829 32.8413 89.5444 32.8413C89.706 32.8413 89.8613 32.7787 89.9778 32.6667V32.6654Z" fill="#726A69"/>
<path d="M93.0967 2.70891C90.9005 1.15065 88.3197 0.225569 85.6351 0.034321C83.1672 -0.118606 80.6944 0.244328 78.374 1.10006C76.2395 1.87903 74.3157 3.14578 72.7554 4.79972C71.0268 6.72856 69.8529 9.09093 69.3587 11.6352C68.7802 14.4441 68.9125 17.4965 69.5022 20.2911C69.6654 21.0637 70.8474 20.7367 70.6844 19.9647C70.1772 17.5931 70.0822 15.1517 70.4035 12.7478C70.7332 10.4298 71.6473 8.01767 73.152 6.20493C75.9808 2.79691 80.3661 1.22081 84.7162 1.23232C87.5021 1.26022 90.212 2.14593 92.4781 3.76928C92.6188 3.84987 92.7855 3.87195 92.9423 3.83076C93.0991 3.78958 93.2334 3.68841 93.3166 3.54902C93.3955 3.40768 93.4166 3.24122 93.3756 3.08458C93.3346 2.92794 93.2346 2.7933 93.0967 2.70891Z" fill="#726A69"/>
<path d="M86.6418 33.081C83.5659 34.4826 79.936 35.1518 76.7699 33.6312C75.3054 32.9283 73.937 31.895 73.0439 30.521C72.146 29.1396 71.6748 27.5356 71.4061 25.9214C71.2289 24.8574 71.1507 23.7763 71.0455 22.7037C70.9267 21.5013 70.8041 20.2969 70.6517 19.0966C70.6467 18.9354 70.5805 18.7821 70.4666 18.668C70.3527 18.554 70.1997 18.4877 70.0387 18.4827C69.8764 18.4835 69.721 18.5485 69.6063 18.6635C69.4915 18.7784 69.4267 18.9341 69.4258 19.0966C69.7042 21.2875 69.8375 23.4967 70.1386 25.6842C70.3845 27.4691 70.8642 29.2629 71.7887 30.8229C73.6446 33.9549 77.3287 35.7755 80.9128 35.7282C83.1378 35.699 85.2489 35.0577 87.2606 34.1421C87.4 34.059 87.5012 33.9243 87.5423 33.7672C87.5835 33.61 87.5613 33.4429 87.4805 33.302C87.3958 33.1643 87.2614 33.0646 87.1052 33.0236C86.949 32.9826 86.7831 33.0034 86.6418 33.0817V33.081Z" fill="#726A69"/>
<path d="M95.1622 20.5193C95.452 20.3305 95.7971 20.2459 96.1412 20.2791C96.4853 20.3123 96.808 20.4615 97.0564 20.7022C97.0771 20.7237 97.097 20.7472 97.1157 20.7708C97.1088 20.7621 97.0666 20.7035 97.1034 20.759C97.1356 20.8079 97.1665 20.8572 97.1943 20.9086C97.2445 21.006 97.2825 21.1091 97.3077 21.2156C97.3961 21.5883 97.422 21.9731 97.3844 22.3543C97.2842 23.7815 96.4749 25.3474 95.2135 26.0785C94.7043 26.3732 93.7279 26.5978 93.0925 26.3003C92.9511 26.2226 92.7853 26.2021 92.6293 26.2431C92.4733 26.2841 92.3389 26.3834 92.2538 26.5205C92.1731 26.6614 92.151 26.8285 92.1921 26.9856C92.2332 27.1427 92.3344 27.2773 92.4737 27.3604C93.4551 27.8209 94.6054 27.693 95.5777 27.2647C96.4813 26.8667 97.2056 26.0488 97.7021 25.2136C98.2092 24.3737 98.5174 23.4285 98.6028 22.4507C98.6807 21.5554 98.5666 20.55 97.9449 19.8567C97.5082 19.4123 96.933 19.1306 96.3146 19.0583C95.6962 18.9859 95.0717 19.1273 94.5444 19.4589C93.8898 19.8938 94.503 20.9575 95.1632 20.5193H95.1622Z" fill="#726A69"/>
<path d="M86.4356 10.9728C86.9372 12.7006 87.5264 14.5 88.4371 16.0608C89.2876 17.5189 90.4292 19.1119 91.9416 19.9362C92.6348 20.314 93.2544 19.2542 92.5605 18.8761C91.909 18.4867 91.3336 17.982 90.8623 17.3864C90.3308 16.7579 89.8587 16.0814 89.4521 15.3655C88.6174 13.9139 88.0837 12.2506 87.6176 10.6458C87.3977 9.88862 86.2144 10.211 86.4356 10.9723V10.9728Z" fill="#726A69"/>
<path d="M86.5681 10.3019C84.6476 12.3763 82.1202 13.8381 79.4669 14.7616C79.1582 14.869 78.8472 14.9696 78.5337 15.0632C78.4791 15.0796 78.1167 15.1655 78.2783 15.1655C78.2668 15.1655 78.2949 15.2216 78.3215 15.2019C78.3585 15.1745 78.3511 14.8969 78.3562 14.8552C78.4011 14.4945 78.4716 14.1374 78.5672 13.7867C78.6729 13.3958 78.8581 12.9834 78.5184 12.6432C78.1667 12.2909 77.7341 12.4331 77.3972 12.7056C77.0537 12.9834 76.7128 13.2645 76.369 13.5421C75.7372 14.0524 75.1011 14.5574 74.4607 15.0571C73.0617 16.1458 71.6325 17.1865 70.1566 18.1676C69.5023 18.6025 70.1155 19.6667 70.7754 19.2279C72.0587 18.3745 73.3066 17.4784 74.5297 16.5418C75.1673 16.0534 75.8002 15.5588 76.4283 15.0581C76.7451 14.8055 77.0611 14.5517 77.3763 14.2968C77.5328 14.1702 77.6891 14.0433 77.8452 13.9161C77.9793 13.7835 78.1283 13.6669 78.2893 13.5687L77.98 13.6526L78.0372 13.6593L77.728 13.5754L77.7749 13.6078L77.5551 13.3876L77.5806 13.4388L77.4968 13.1287C77.4488 13.3344 77.3879 13.5369 77.3145 13.735C77.2588 13.976 77.2151 14.2193 77.1799 14.4638C77.1033 14.9898 76.9863 15.5615 77.3809 15.9949C77.5468 16.1693 77.7605 16.2907 77.995 16.344C78.2296 16.3973 78.4746 16.38 78.6995 16.2945C79.1704 16.158 79.6364 16.0056 80.0975 15.8371C81.8903 15.1992 83.5844 14.3115 85.13 13.2003C85.9614 12.5987 86.7333 11.9185 87.4349 11.1691C87.9713 10.5905 87.106 9.71991 86.5681 10.3009V10.3019Z" fill="#726A69"/>
<path d="M89.7728 31.7728C89.9516 32.665 90.0793 33.5891 90.3423 34.4612C90.5194 35.1347 90.9463 35.7152 91.536 36.0843C92.6378 36.7878 93.9937 36.982 95.2104 37.4033C95.288 37.4248 95.3691 37.4307 95.4489 37.4207C95.5288 37.4108 95.606 37.3852 95.676 37.3454C95.746 37.3055 95.8075 37.2523 95.857 37.1887C95.9064 37.1251 95.9429 37.0523 95.9643 36.9746C95.9857 36.8968 95.9916 36.8156 95.9817 36.7356C95.9717 36.6556 95.9462 36.5783 95.9064 36.5082C95.8667 36.4381 95.8135 36.3765 95.75 36.3269C95.6865 36.2774 95.6139 36.2408 95.5363 36.2194C94.4411 35.84 93.2122 35.6489 92.2596 35.0882C92.207 35.0572 92.1549 35.025 92.104 34.9912C92.088 34.9802 91.9554 34.8843 92.0376 34.9485C91.9354 34.8679 91.8413 34.7774 91.7567 34.6783C91.8384 34.7735 91.7363 34.6466 91.7263 34.6308C91.698 34.5865 91.6724 34.5405 91.6497 34.4931C91.5761 34.3161 91.5163 34.1335 91.4709 33.9472C91.2536 33.1268 91.1208 32.2783 90.9543 31.4463C90.9111 31.2893 90.8073 31.1559 90.6659 31.0755C90.5245 30.995 90.357 30.9742 90.2002 31.0174C90.0434 31.0607 89.9103 31.1646 89.83 31.3063C89.7497 31.4479 89.7288 31.6157 89.772 31.7728H89.7728Z" fill="#726A69"/>
<path d="M84.1491 18.3648C84.3914 18.5968 84.6708 18.7865 84.9758 18.9261C85.1439 19.0044 85.3179 19.0698 85.496 19.1215C85.6755 19.1675 85.8585 19.1984 86.0431 19.2141C86.2057 19.2144 86.3619 19.15 86.4772 19.0351C86.5922 18.9199 86.6567 18.7638 86.6567 18.6009C86.6567 18.4381 86.5922 18.282 86.4772 18.1668C86.3576 18.0585 86.2041 17.9952 86.0431 17.9877C86.0142 17.9849 85.9853 17.9816 85.9562 17.9778L86.1192 17.9998C85.9072 17.9691 85.7 17.9117 85.5024 17.8289L85.6487 17.8908C85.4434 17.8042 85.2497 17.692 85.0723 17.5569L85.1964 17.6529C85.1338 17.6041 85.0736 17.5529 85.0159 17.4994C84.899 17.3868 84.7438 17.3228 84.5817 17.3203C84.4192 17.3211 84.2635 17.3853 84.1475 17.4994C84.033 17.6151 83.9687 17.7714 83.9688 17.9343C83.9696 18.097 84.0337 18.253 84.1475 18.3692L84.1491 18.3648Z" fill="#726A69"/>
<path d="M88.0186 21.7939C87.9628 22.315 87.938 22.839 87.9443 23.3631C87.9558 23.8612 87.9563 24.4549 88.2375 24.8873C88.41 25.1248 88.648 25.3067 88.9222 25.4106C89.1965 25.5145 89.4951 25.5359 89.7813 25.4721C90.0293 25.4183 90.2601 25.304 90.4532 25.1392C90.6463 24.9745 90.7958 24.7644 90.8882 24.5278C90.9655 24.3828 90.9875 24.2146 90.95 24.0546C90.9064 23.9009 90.806 23.7697 90.6691 23.6877C90.4068 23.5488 89.9637 23.592 89.8304 23.908C89.7985 23.986 89.7608 24.0615 89.7175 24.1339C89.7063 24.1518 89.6327 24.2467 89.6935 24.1745C89.7543 24.1024 89.6741 24.1927 89.6598 24.2068C89.6455 24.2208 89.6299 24.2359 89.6138 24.2495C89.5798 24.2789 89.5934 24.2682 89.6549 24.2175L89.5423 24.281C89.5512 24.2487 89.6606 24.2405 89.5405 24.2707C89.4264 24.2996 89.5201 24.2544 89.5543 24.2743C89.5106 24.2718 89.4668 24.273 89.4233 24.2779C89.2872 24.2804 89.5433 24.3145 89.4126 24.2779C89.3778 24.2684 89.3423 24.2567 89.3076 24.249C89.2417 24.2349 89.4057 24.3119 89.3155 24.2513C89.2905 24.2377 89.2662 24.2229 89.2427 24.2068L89.2999 24.2505C89.2837 24.2368 89.2683 24.222 89.254 24.2063C89.2225 24.1722 89.233 24.1872 89.2856 24.2515C89.2856 24.2515 89.2057 24.1183 89.2601 24.2173C89.3063 24.2996 89.2486 24.1717 89.242 24.1472C89.2323 24.111 89.2237 24.0747 89.2164 24.0382C89.2121 24.0164 89.2082 23.9944 89.2047 23.9727C89.1974 23.9248 89.1997 23.9436 89.2116 24.0292C89.1946 23.9346 89.1861 23.8386 89.186 23.7425C89.1717 23.5291 89.1659 23.3155 89.1669 23.1029C89.1689 22.6655 89.2014 22.2293 89.2435 21.7941C89.243 21.6315 89.1782 21.4756 89.0634 21.3606C88.9485 21.2456 88.7929 21.1807 88.6305 21.1802C88.4693 21.1844 88.3158 21.2504 88.2018 21.3647C88.0877 21.4789 88.0218 21.6326 88.0176 21.7941L88.0186 21.7939Z" fill="#726A69"/>
<path d="M79.0967 35.0654C79.0967 35.1107 79.0911 35.1577 79.0929 35.2027C79.0952 35.2667 79.1233 35.1188 79.0847 35.2214C79.0791 35.2363 79.038 35.3734 79.0669 35.2943C79.0957 35.2153 79.0352 35.3557 79.0329 35.3598C79.0122 35.3972 78.9885 35.4325 78.9652 35.4685C78.9177 35.5417 79.0592 35.3747 78.9499 35.4875C78.8881 35.5509 78.8255 35.6121 78.7614 35.6732C78.7241 35.7088 78.7103 35.7154 78.7589 35.6788C78.7226 35.7065 78.685 35.7323 78.6472 35.7576C78.5706 35.8088 78.4922 35.8564 78.4118 35.9009C78.3313 35.9454 78.2499 35.9863 78.1671 36.0252C78.1262 36.0443 78.0851 36.0628 78.0438 36.0807C78.1234 36.0464 78.0678 36.0702 78.0182 36.0886C77.817 36.1654 77.6236 36.2565 77.426 36.3406C77.5026 36.3084 77.3749 36.3616 77.3619 36.3662C77.3092 36.388 77.2566 36.4095 77.204 36.4307C77.0937 36.4752 76.983 36.5189 76.872 36.5619C76.3924 36.7487 75.9092 36.9265 75.4265 37.1053C75.2721 37.1524 75.1417 37.2571 75.0622 37.3978C74.9827 37.5385 74.9601 37.7044 74.9992 37.8612C75.0435 38.0175 75.1474 38.1501 75.2885 38.2304C75.4295 38.3106 75.5964 38.3321 75.7531 38.2902C76.2813 38.0945 76.81 37.9004 77.334 37.6939C77.592 37.5916 77.8484 37.4858 78.1033 37.3764C78.1584 37.3524 78.2136 37.3283 78.2682 37.3035C78.4388 37.2268 78.1607 37.3411 78.3209 37.2823C78.4447 37.237 78.5665 37.1838 78.6871 37.1303C79.535 36.7548 80.3316 36.0687 80.3216 35.0656C80.3216 34.9028 80.257 34.7466 80.1421 34.6315C80.0271 34.5163 79.8712 34.4517 79.7087 34.4517C79.5461 34.4517 79.3902 34.5163 79.2752 34.6315C79.1603 34.7466 79.0957 34.9028 79.0957 35.0656L79.0967 35.0654Z" fill="#726A69"/>
<path d="M98.3589 38.2153C100.113 38.9842 101.744 40.0087 103.199 41.2554C104.464 42.3764 105.408 43.8182 106.185 45.3089C107.771 48.3488 108.526 51.7494 109.009 55.1219C109.524 58.55 109.776 62.0125 109.765 65.4792C109.772 67.0402 109.645 68.5989 109.384 70.1379C109.136 71.4792 108.759 72.7238 107.968 73.8304C107.064 75.0939 105.565 76.0236 104.132 76.56C102.189 77.2446 100.158 77.6433 98.1012 77.7437C97.9398 77.7474 97.7861 77.8133 97.6719 77.9276C97.5578 78.042 97.492 78.196 97.4883 78.3577C97.4896 78.5201 97.5546 78.6755 97.6693 78.7903C97.7839 78.9052 97.9391 78.9703 98.1012 78.9716C101.618 78.7363 105.449 78.0215 108.107 75.5155C110.362 73.3891 110.786 70.0566 110.942 67.1188C111.131 63.5066 110.836 59.8655 110.39 56.282C109.946 52.7026 109.275 49.1293 107.792 45.819C107.076 44.1548 106.111 42.6097 104.929 41.237C103.675 39.8323 102.023 38.742 100.38 37.85C99.9209 37.601 99.4539 37.3689 98.9785 37.1536C98.8371 37.0762 98.6715 37.0559 98.5156 37.0969C98.3597 37.1378 98.2253 37.2369 98.14 37.3739C98.0592 37.5148 98.037 37.6819 98.0781 37.8391C98.1193 37.9963 98.2205 38.1309 98.3599 38.214L98.3589 38.2153Z" fill="#726A69"/>
<path d="M96.0883 36.1182C95.8559 36.062 95.622 36.0123 95.386 35.975C95.307 35.9495 95.2226 35.9458 95.1416 35.964C95.0605 35.9676 94.9819 35.9928 94.9138 36.0369C94.7805 36.1228 94.6812 36.2525 94.6328 36.4037C94.6115 36.4828 94.606 36.5653 94.6166 36.6465C94.6272 36.7278 94.6537 36.8061 94.6946 36.877L94.7904 37.0011C94.8653 37.0764 94.9585 37.1309 95.0609 37.1592C95.2969 37.1965 95.5308 37.2461 95.7632 37.3024C95.9227 37.3431 96.0917 37.3209 96.2354 37.2405C96.3688 37.1545 96.4681 37.0247 96.5164 36.8734C96.5378 36.7957 96.5437 36.7145 96.5338 36.6344C96.5238 36.5544 96.4983 36.4771 96.4585 36.407C96.4188 36.3369 96.3656 36.2753 96.3021 36.2257C96.2386 36.1762 96.1659 36.1397 96.0883 36.1182Z" fill="#726A69"/>
<path d="M61.3121 70.4886C61.8972 65.7518 62.5867 61.0266 63.3427 56.3142C63.7146 53.9967 64.1043 51.6815 64.5369 49.3746C64.7161 48.2291 65.0307 47.109 65.474 46.0379C65.9984 44.8735 66.7026 43.7991 67.5608 42.8542C68.3778 41.9475 69.3225 41.165 70.365 40.5314C71.5197 39.8648 72.7151 39.2715 73.9441 38.755C74.0836 38.672 74.1849 38.5374 74.2261 38.3801C74.2672 38.2229 74.2449 38.0558 74.1639 37.9149C74.0793 37.7772 73.9449 37.6776 73.7888 37.6365C73.6326 37.5955 73.4667 37.6163 73.3255 37.6946C71.1861 38.6481 69.076 39.6483 67.3674 41.2912C65.449 43.1104 64.1188 45.4636 63.5483 48.0474C63.0651 50.3208 62.7081 52.6281 62.3334 54.9212C61.9181 57.4624 61.5265 60.0079 61.1586 62.5577C60.7755 65.1977 60.4128 67.8411 60.0859 70.4881C60.0867 70.6507 60.1516 70.8064 60.2664 70.9213C60.3811 71.0363 60.5366 71.1012 60.6989 71.102C60.8602 71.0982 61.0139 71.0323 61.1281 70.918C61.2422 70.8036 61.308 70.6497 61.3118 70.4881L61.3121 70.4886Z" fill="#726A69"/>
<path d="M75.4845 39.8381C77.8914 41.9476 81.1714 42.5091 84.2757 42.3196C87.0476 42.1794 89.7533 41.4206 92.1949 40.0985C93.582 39.3272 94.8383 38.3406 95.917 37.1753C96.4518 36.5956 95.587 35.725 95.0502 36.307C93.279 38.1944 91.0402 39.578 88.5617 40.317C86.0844 41.0801 83.2824 41.4076 80.7186 40.9394C79.141 40.6514 77.5693 40.0376 76.3513 38.9696C75.7598 38.4513 74.8895 39.3167 75.4845 39.8381Z" fill="#726A69"/>
<path d="M38.5139 28.788C38.6248 28.5941 38.7167 28.4299 38.7451 28.3726C38.6784 28.217 38.4062 27.7113 38.233 27.4025H42.6638C42.7267 26.7927 42.9799 26.2183 43.3876 25.761C43.7952 25.3037 44.3364 24.9869 44.9343 24.8556C45.493 24.7438 46.0726 24.8112 46.5909 25.0482C47.1092 25.2852 47.5398 25.6798 47.8215 26.1759C48.105 26.7393 48.1637 27.3898 47.9854 27.995C47.9001 28.3022 47.7542 28.5893 47.5564 28.8392C47.3922 29.0438 47.2754 29.2132 47.2182 29.2961L47.1462 29.4017C47.4713 29.6133 47.7179 29.926 47.8483 30.2917C48.0738 30.9374 48.0415 31.6453 47.7581 32.2677C47.6075 32.6022 47.3734 32.8921 47.0783 33.1096C46.7081 33.3541 46.2806 33.4976 45.8381 33.526C45.0941 33.6184 44.3406 33.4589 43.6976 33.0727C43.3517 32.8491 43.0671 32.5423 42.8699 32.1802C42.7774 32.009 42.7082 31.8262 42.6643 31.6366C42.6372 31.5209 42.6625 31.2229 42.5795 31.1344C42.2271 31.1387 40.0458 31.0873 39.2163 31.0873C38.8393 30.5562 38.4912 29.9909 38.1035 29.4979C38.2126 29.3114 38.3776 29.027 38.5139 28.788Z" fill="#726A69"/>
<path d="M27.6975 35.9056C27.263 35.9915 26.8123 35.9017 26.4438 35.6556C25.8735 35.2793 25.4704 34.6969 25.3188 34.0299C25.2361 33.6725 25.2466 33.2997 25.3494 32.9475C25.4961 32.5283 25.7493 32.1546 26.0842 31.8634C26.6198 31.3378 27.3155 31.0069 28.0607 30.9233C28.4711 30.8909 28.883 30.962 29.259 31.13C29.4363 31.2096 29.6021 31.3129 29.7519 31.4369C29.8433 31.5137 30.0037 31.7646 30.1232 31.7846C30.4011 31.5671 32.2307 30.2205 32.8901 29.7166C33.2112 29.8657 33.7273 30.1161 33.8721 30.2026C33.8959 30.3436 33.9725 31.1013 34.009 31.4914C34.6115 31.6641 35.2239 31.9074 35.8397 32.1172C35.2489 32.5687 33.1529 34.1591 32.317 34.7979C32.6363 35.3209 32.7827 35.9314 32.7356 36.5427C32.6885 37.1539 32.4501 37.7346 32.0545 38.2023C31.678 38.6308 31.1764 38.9295 30.6208 39.0561C30.0652 39.1827 29.4838 39.1307 28.9594 38.9076C28.3927 38.632 27.9522 38.1504 27.7274 37.561C27.6089 37.2646 27.5508 36.9475 27.5568 36.6283C27.5637 36.3663 27.5542 36.1596 27.5489 36.0596L27.6975 35.9056Z" fill="#726A69"/>
<path d="M34.1989 26.0058C33.5742 25.3437 32.973 24.6584 32.3478 23.9979C32.2808 23.9329 32.2001 23.8838 32.1116 23.8543C32.0231 23.8249 31.9292 23.8158 31.8367 23.8277C31.7442 23.8396 31.6556 23.8723 31.5774 23.9232C31.4993 23.9741 31.4336 24.0421 31.3852 24.1219C31.1395 24.4829 30.9255 24.8638 30.6857 25.2289L31.6485 25.1045C31.0254 24.3954 30.4086 23.6804 29.7862 22.9705C29.7295 22.9127 29.6619 22.8668 29.5873 22.8353C29.5127 22.8038 29.4327 22.7874 29.3518 22.7871C29.2709 22.7868 29.1907 22.8025 29.1159 22.8334C29.041 22.8642 28.9731 22.9096 28.9159 22.9669C28.8586 23.0242 28.8133 23.0923 28.7825 23.1673C28.7517 23.2422 28.736 23.3225 28.7363 23.4036C28.7367 23.4846 28.753 23.5648 28.7844 23.6395C28.8158 23.7142 28.8617 23.7819 28.9194 23.8387C29.5418 24.5486 30.1586 25.2636 30.7817 25.9728C30.8486 26.038 30.9293 26.0873 31.0178 26.1169C31.1063 26.1465 31.2004 26.1556 31.2929 26.1437C31.3855 26.1318 31.4742 26.099 31.5523 26.048C31.6305 25.9969 31.6961 25.9288 31.7443 25.8487C31.9828 25.4831 32.1979 25.1025 32.4436 24.7418L31.481 24.8661C32.1072 25.5269 32.7069 26.212 33.3321 26.874C33.3888 26.9318 33.4564 26.9778 33.531 27.0092C33.6056 27.0407 33.6856 27.0571 33.7665 27.0574C33.8474 27.0577 33.9276 27.042 34.0024 27.0111C34.0772 26.9803 34.1452 26.9349 34.2024 26.8776C34.2596 26.8203 34.305 26.7522 34.3358 26.6772C34.3666 26.6023 34.3823 26.522 34.3819 26.4409C34.3816 26.3599 34.3653 26.2797 34.3338 26.205C34.3024 26.1303 34.2566 26.0626 34.1989 26.0058Z" fill="#726A69"/>
<path d="M36.7526 26.0256C36.7015 24.8588 36.7944 23.6894 36.7411 22.5229C36.7396 22.4288 36.7168 22.3364 36.6744 22.2524C36.6321 22.1685 36.5713 22.0952 36.4966 22.0382C36.4219 21.9812 36.3352 21.942 36.2432 21.9234C36.1511 21.9048 36.0561 21.9074 35.9652 21.9309C35.5443 22.0445 35.1329 22.1911 34.7138 22.3129L35.4896 22.9048C35.4766 21.8872 35.4235 20.8703 35.4115 19.8524C35.402 19.0629 34.1762 19.0609 34.1856 19.8524C34.1976 20.8703 34.2507 21.8872 34.2638 22.9048C34.265 22.999 34.2876 23.0916 34.3299 23.1756C34.3722 23.2597 34.433 23.3331 34.5078 23.3901C34.5825 23.4472 34.6692 23.4865 34.7614 23.505C34.8535 23.5235 34.9487 23.5208 35.0396 23.497C35.4582 23.3753 35.8697 23.2287 36.2911 23.1148L35.5152 22.5229C35.5686 23.6894 35.4753 24.8588 35.5267 26.0256C35.5611 26.8127 36.7873 26.8168 36.7526 26.0256Z" fill="#726A69"/>
<path d="M57.8009 40.3531L54.2479 36.0618L54.4057 36.6591C55.7866 32.6033 55.9547 28.0099 54.6928 23.9001C53.6511 20.4756 51.6341 17.4301 48.8892 15.1373C45.9714 12.7558 42.4071 11.3065 38.6577 10.9772C34.784 10.591 30.8834 11.3717 27.4554 13.2194C24.337 14.9498 21.795 17.5599 20.1453 20.7254C18.4542 24.0371 17.7358 27.7614 18.0735 31.4657C18.3703 35.0216 19.5185 38.5281 21.661 41.4053C23.7287 44.1692 26.5609 46.2642 29.8063 47.4306C33.4599 48.7583 37.5572 48.9336 41.3477 48.1405C45.126 47.3498 48.6543 45.3992 51.1586 42.4327C51.7583 41.7229 52.3013 40.9669 52.7824 40.1718L52.0901 40.4532L57.2046 41.3787C57.3612 41.4175 57.5266 41.3946 57.6669 41.3149C57.8072 41.2351 57.9117 41.1045 57.9587 40.95C58.0005 40.793 57.979 40.6258 57.8989 40.4846C57.8188 40.3433 57.6864 40.2392 57.5304 40.1948L52.4162 39.269C52.2859 39.2371 52.1489 39.2471 52.0246 39.2976C51.9003 39.3481 51.7951 39.4366 51.7238 39.5504C49.7858 42.7402 46.7889 45.1453 43.2583 46.3442C39.5429 47.5917 35.5461 47.7331 31.7521 46.7512C28.5145 45.924 25.602 44.136 23.3967 41.6217C21.1668 39.0497 19.8291 35.7543 19.3954 32.3815C18.9357 28.8052 19.3791 25.1191 20.9487 21.8531C22.4562 18.6993 24.8925 16.0842 27.9294 14.3601C31.2293 12.5006 35.0883 11.8347 38.8385 12.2227C42.3723 12.5572 45.7133 13.9903 48.3936 16.3213C51.0739 18.6522 52.9594 21.7645 53.7861 25.2222C54.2352 27.1032 54.3976 29.0413 54.2678 30.971C54.1966 32.2067 54.0136 33.4335 53.721 34.6361C53.5813 35.2066 53.3517 35.7617 53.2235 36.3327C53.1303 36.7468 53.4641 37.0303 53.7041 37.3201L54.3906 38.1492L56.9341 41.2214C57.0496 41.3355 57.2053 41.3994 57.3675 41.3994C57.5297 41.3994 57.6854 41.3355 57.8009 41.2214C57.9126 41.1046 57.975 40.949 57.975 40.7873C57.975 40.6255 57.9126 40.4699 57.8009 40.3531Z" fill="#726A69"/>
<path d="M82.7665 63.9376C81.6346 60.6779 80.7157 57.3436 79.855 54.0034C78.8939 50.271 78.018 46.5177 77.2273 42.7435C76.8652 41.031 76.5208 39.3151 76.1942 37.5956C76.1087 37.1431 76.0785 36.6706 75.6957 36.3598C75.5449 36.2426 75.3669 36.1655 75.1784 36.1356C74.9898 36.1057 74.7968 36.1239 74.6172 36.1886C74.0298 36.3649 73.2529 36.5013 73.0455 37.1733C72.8958 37.6573 73.0258 38.2782 73.0503 38.7786C73.0786 39.3584 73.1081 39.9376 73.1387 40.5161C73.1997 41.6698 73.2662 42.8232 73.3384 43.9763C73.4822 46.2487 73.6538 48.5196 73.8714 50.7862C74.288 55.3579 74.9557 59.9032 75.8714 64.4014C75.9906 64.9698 76.1141 65.5371 76.242 66.1034C76.4167 66.8736 77.5989 66.5477 77.4242 65.7769C76.4703 61.4958 75.7622 57.1634 75.3034 52.801C74.8302 48.4498 74.5459 44.0807 74.3232 39.71C74.2946 39.1508 74.267 38.5915 74.2402 38.0321C74.2343 37.9077 74.2303 37.7829 74.2226 37.6586C74.2109 37.4716 74.2481 37.5667 74.1736 37.6051C74.018 37.6844 74.2211 37.6013 74.2632 37.588C74.5089 37.5382 74.7487 37.4623 74.9783 37.3616C75.1157 37.2784 74.8414 37.3252 74.8968 37.2725C74.8552 37.3122 74.9775 37.7358 74.988 37.7924C75.2955 39.425 75.6207 41.0542 75.9636 42.68C76.7225 46.2956 77.5533 49.8954 78.4562 53.4795C79.2865 56.7557 80.1733 60.0241 81.2354 63.2338C81.3493 63.578 81.4658 63.9214 81.5848 64.264C81.6314 64.4188 81.7357 64.5498 81.8761 64.6296C82.0164 64.7094 82.1821 64.7321 82.3387 64.6928C82.4946 64.6481 82.6268 64.544 82.7068 64.4028C82.7869 64.2616 82.8084 64.0945 82.7668 63.9376H82.7665Z" fill="#726A69"/>
<path d="M71.7704 70.3059C70.8735 69.9478 69.8678 70.3128 69.5889 71.288C69.2809 72.3643 70.1173 73.0726 70.9047 73.6329C71.7018 74.2148 72.5282 74.7556 73.3804 75.253C74.2308 75.7811 75.1566 76.1762 76.1259 76.4249C76.8952 76.5914 77.2241 75.408 76.4518 75.2407C75.735 75.0666 75.0469 74.7901 74.4086 74.4198C73.7043 74.0383 73.021 73.6192 72.3617 73.1642C72.0552 72.9524 71.7502 72.7372 71.4466 72.5185C71.1889 72.3591 70.9645 72.1511 70.7859 71.9061C70.7521 71.8329 70.7404 71.7515 70.7522 71.6717C70.7641 71.592 70.799 71.5175 70.8526 71.4574C71.0073 71.3057 71.2517 71.4136 71.4446 71.4909C71.6013 71.533 71.7683 71.5116 71.9094 71.4313C72.0505 71.351 72.1543 71.2183 72.1985 71.0619C72.2378 70.905 72.2152 70.739 72.1355 70.5984C72.0558 70.4578 71.925 70.3533 71.7704 70.3067V70.3059Z" fill="#726A69"/>
<path d="M82.1377 66.789C81.1503 66.5861 80.1607 66.395 79.1769 66.175C78.1785 65.9825 77.1977 65.7078 76.2445 65.3536C76.2682 65.3633 76.3359 65.3922 76.2263 65.3454C76.1523 65.3137 76.079 65.2807 76.0049 65.2492C75.8389 65.1783 75.6729 65.1098 75.5023 65.0494C75.2478 64.9568 74.9848 64.8893 74.7172 64.8478C74.2828 64.7589 73.8312 64.8185 73.4347 65.0172C72.3786 65.6148 72.4999 67.0893 73.4701 67.7071C74.5354 68.3987 75.6708 68.9756 76.8572 69.428C77.0139 69.47 77.1808 69.4485 77.3218 69.3683C77.4629 69.2881 77.5668 69.1555 77.6111 68.9992C77.6508 68.8424 77.6285 68.6762 77.5487 68.5354C77.4689 68.3947 77.3379 68.2903 77.183 68.2441C76.289 67.9125 75.431 67.4907 74.6222 66.9852C74.3875 66.8381 73.8448 66.6327 73.8964 66.2786C73.9111 66.2284 73.934 66.181 73.9643 66.1384C73.8931 66.2737 73.9618 66.1602 73.9968 66.1128C74.0415 66.053 73.9005 66.1522 74.0348 66.0873C74.1692 66.0223 73.9876 66.0706 74.1148 66.056C74.1579 66.0509 74.2981 66.0328 74.1796 66.0399C74.2597 66.0349 74.3399 66.0349 74.42 66.0399C74.4848 66.0431 74.5492 66.053 74.612 66.0693C74.7397 66.0962 74.8654 66.131 74.9897 66.1701C75.4239 66.307 75.8307 66.515 76.2603 66.6654C77.1245 66.9509 78.0047 67.1857 78.8962 67.3684C79.8649 67.5846 80.8395 67.7726 81.8118 67.9724C81.9684 68.0116 82.134 67.989 82.2744 67.9091C82.4148 67.8293 82.5191 67.6984 82.5657 67.5436C82.6073 67.3867 82.5857 67.2197 82.5057 67.0785C82.4257 66.9373 82.2935 66.8331 82.1377 66.7885V66.789Z" fill="#726A69"/>
<path d="M73.6276 66.2666C72.9556 65.9731 72.2329 65.6413 71.4823 65.7785C71.1108 65.867 70.7828 66.0846 70.5564 66.3925C70.33 66.7005 70.22 67.0789 70.2459 67.4605C70.3151 68.2842 70.9674 68.8954 71.6355 69.3008C72.1953 69.6403 72.7664 69.9639 73.3359 70.2865C74.051 70.6915 74.772 71.0882 75.519 71.4305C75.6605 71.508 75.8261 71.5283 75.982 71.4873C76.138 71.4464 76.2724 71.3473 76.3577 71.2103C76.4384 71.0693 76.4605 70.9023 76.4194 70.7451C76.3783 70.588 76.2772 70.4533 76.1378 70.3702C74.7903 69.7348 73.4831 69.0172 72.2234 68.2213C71.9467 68.0657 71.7108 67.8465 71.5351 67.5817C71.5028 67.5135 71.495 67.5024 71.5119 67.5485C71.4963 67.508 71.4833 67.4665 71.4728 67.4244L71.4593 67.3612C71.4687 67.4175 71.4708 67.4075 71.4659 67.3308C71.4685 67.254 71.4703 67.243 71.4705 67.2947C71.4986 67.2272 71.5024 67.208 71.4815 67.2369C71.4963 67.2087 71.6202 67.0241 71.5711 67.0791C71.5976 67.0499 71.6258 67.0224 71.6557 66.9967C71.6068 67.0352 71.6115 67.0352 71.6697 66.9967C71.7336 66.9644 71.7349 66.9635 71.6738 66.9939C71.7088 66.9828 71.7445 66.9737 71.7806 66.9667C71.6529 66.9939 71.8125 66.9688 71.8447 66.969C71.8848 66.969 71.9246 66.9711 71.9647 66.9747C71.9041 66.9643 71.912 66.9656 71.9885 66.9785C72.3402 67.0585 72.6826 67.1752 73.01 67.3267C73.1516 67.4037 73.3171 67.4239 73.4729 67.3829C73.6288 67.342 73.7631 67.2431 73.8487 67.1064C73.9295 66.9655 73.9518 66.7984 73.9106 66.6412C73.8695 66.484 73.7683 66.3494 73.6288 66.2663L73.6276 66.2666Z" fill="#726A69"/>
<path d="M75.1134 72.2614C74.0691 71.6891 73.0192 71.1243 72.0321 70.4548C71.8089 70.3031 71.588 70.1478 71.3681 69.9912C71.3014 69.9437 71.235 69.8971 71.1661 69.8531C71.1034 69.8101 71.094 69.8042 71.1377 69.8352C71.1078 69.8093 71.0792 69.7818 71.0522 69.7528C71.0047 69.6978 71.0011 69.6955 71.0427 69.7454C71.0227 69.7158 71.0043 69.6852 70.9876 69.6536C70.9561 69.5896 70.9564 69.5914 70.9876 69.6587C70.9768 69.6272 70.9677 69.5952 70.9602 69.5627C70.947 69.4924 70.947 69.4988 70.9602 69.5824C70.958 69.5509 70.9574 69.5194 70.9584 69.4878C70.9639 69.4172 70.9617 69.4257 70.9518 69.5134C70.9574 69.4836 70.9646 69.4541 70.9733 69.4251C70.9957 69.3607 70.9913 69.3682 70.96 69.4476C70.9726 69.4213 70.9868 69.3956 71.0024 69.3709C71.043 69.2982 71.0386 69.3236 71.1096 69.2368C71.165 69.1882 71.1676 69.1829 71.1176 69.221C71.147 69.2 71.1778 69.181 71.2098 69.1642C71.0821 69.2409 71.3604 69.1486 71.1967 69.1606C71.2318 69.1578 71.267 69.1572 71.3022 69.1588C71.2294 69.1447 71.2299 69.145 71.3037 69.1588C71.3267 69.1652 71.5193 69.232 71.4473 69.1992C71.5887 69.2767 71.7544 69.297 71.9103 69.256C72.0662 69.2151 72.2006 69.116 72.286 68.979C72.3668 68.8381 72.389 68.6711 72.3479 68.5139C72.3067 68.3568 72.2055 68.2221 72.0661 68.1391C71.7178 67.9561 71.318 67.8964 70.9316 67.9698C70.5832 68.0651 70.2788 68.2788 70.0704 68.5743C69.8651 68.8334 69.7488 69.1521 69.739 69.4828C69.7291 69.8135 69.8262 70.1386 70.0158 70.4095C70.2423 70.6838 70.5138 70.9174 70.8187 71.1002C71.0231 71.2445 71.2261 71.3875 71.4317 71.5274C71.8102 71.7833 72.1968 72.0267 72.5914 72.2578C73.2179 72.6252 73.8564 72.9718 74.4931 73.3207C74.6335 73.4029 74.8007 73.4259 74.958 73.3846C75.1153 73.3433 75.2497 73.2411 75.3318 73.1005C75.4139 72.9599 75.4368 72.7924 75.3955 72.6348C75.3543 72.4773 75.2523 72.3426 75.1119 72.2604L75.1134 72.2614Z" fill="#726A69"/>
<path d="M96.6591 36.0861C96.3926 36.0136 96.1112 36.0164 95.8462 36.0942C95.5812 36.172 95.3428 36.3217 95.1576 36.5269C94.9587 36.7966 94.811 37.1006 94.7219 37.4238C94.5508 37.8955 94.3899 38.3703 94.2344 38.848C93.7989 40.1716 93.3859 41.5026 92.9689 42.8321C91.8794 46.3051 90.7784 49.7755 89.553 53.2035C88.3667 56.5222 87.1012 59.8571 85.4013 62.9517C85.2226 63.2764 85.0438 63.6031 84.8448 63.9159C84.543 64.3912 84.0891 64.7517 83.7035 65.1556C82.9479 65.9468 82.1868 66.7327 81.4203 67.5135C79.9313 69.0318 78.4169 70.5524 77.1511 72.2676C76.6494 72.9133 76.2439 73.6285 75.9475 74.3909C75.6277 75.2784 75.4456 76.4997 76.1949 77.2208C76.9264 77.8685 77.7889 78.3504 78.7233 78.6337C79.7315 78.9697 80.7766 79.1818 81.8358 79.2653C82.9085 79.3273 83.9847 79.2864 85.0497 79.1433C85.5438 79.0678 86.0449 79.0483 86.5435 79.0852C87.0394 79.1487 87.6577 79.3787 88.1915 79.4961C90.636 80.0476 93.1608 80.1455 95.6405 79.7849C96.5743 79.645 97.6232 79.5339 98.3822 78.9215C98.9008 78.4613 99.2756 77.8606 99.4612 77.1919C99.7002 76.3734 99.8398 75.529 99.877 74.6769C99.9536 73.6312 99.958 72.581 99.9636 71.5332C99.9809 68.2239 100.091 64.9205 100.069 61.6102C100.043 57.7896 99.9618 53.9694 99.8798 50.1495C99.8257 47.6268 99.7606 45.1044 99.6847 42.5824C99.6462 41.3437 99.6031 40.1053 99.5552 38.8671C99.5335 38.3135 99.4883 37.7907 99.1606 37.3233C98.8744 36.9194 98.4622 36.6224 97.9889 36.4791C97.5491 36.3379 97.1019 36.2171 96.6588 36.0864C95.9005 35.8625 95.5767 37.0472 96.3329 37.2703C96.7735 37.4005 97.2227 37.5141 97.6576 37.6615C97.7994 37.704 97.9289 37.7799 98.0354 37.8829C98.1418 37.9859 98.222 38.113 98.2693 38.2534C98.321 38.4729 98.3418 38.6985 98.3314 38.9237C98.3431 39.224 98.3545 39.5243 98.3656 39.8244C98.4539 42.2366 98.5264 44.6492 98.5829 47.0623C98.6851 51.2434 98.7796 55.4263 98.8256 59.6084C98.8552 62.2979 98.9323 65.0062 98.798 67.6923C98.6897 69.8555 98.7931 72.0244 98.6813 74.1873C98.6605 74.9913 98.5547 75.7909 98.3656 76.5726C98.2609 77.121 97.985 77.6219 97.5777 78.0031C97.5251 78.0486 97.5887 77.9962 97.5966 77.9901C97.5682 78.0113 97.5386 78.0325 97.5087 78.0515C97.4475 78.0903 97.3856 78.1256 97.322 78.1602C97.298 78.1732 97.273 78.1845 97.2482 78.1963C97.1617 78.2367 97.3323 78.1658 97.2408 78.1983C97.1258 78.2371 97.0087 78.2697 96.8902 78.296C96.3339 78.4283 95.7713 78.5373 95.2046 78.6173C94.0762 78.7728 92.9356 78.8208 91.7982 78.7606C90.5911 78.6967 89.3923 78.5238 88.2163 78.2441C87.6675 78.0787 87.1084 77.9496 86.5427 77.8578C86.0616 77.828 85.5787 77.8457 85.101 77.9105C84.0664 78.0497 83.0214 78.0962 81.9786 78.0494C80.996 77.9759 80.0265 77.7796 79.0926 77.4651C78.6708 77.3255 78.2628 77.1471 77.8739 76.932C77.5422 76.7696 77.2415 76.5501 76.9856 76.2835C76.8324 76.0863 76.9003 75.5856 76.9642 75.2909C77.0083 75.0864 77.0666 74.8853 77.1386 74.689C77.188 74.5538 77.247 74.4223 77.3151 74.2955C78.1385 72.6708 79.4803 71.3024 80.7218 69.9957C82.1905 68.4495 83.6874 66.9259 85.186 65.4086C85.7683 64.7663 86.254 64.0424 86.6277 63.2597C86.9963 62.5713 87.3408 61.8704 87.67 61.162C88.4132 59.5634 89.0826 57.93 89.7147 56.2843C91.0172 52.8914 92.1593 49.4381 93.261 45.9748C94.0934 43.3593 94.8636 40.7195 95.7682 38.1278C95.8336 37.9406 95.9003 37.7536 95.9695 37.5673C96.0323 37.3982 96.0762 37.2092 96.3316 37.2698C97.0999 37.4548 97.427 36.2711 96.6591 36.0861Z" fill="#726A69"/>
<path d="M81.2728 66.5356C81.0369 66.0528 80.8416 65.5511 80.689 65.0357C80.6829 65.0135 80.6494 64.8418 80.6612 64.9521L80.6584 64.8894C80.6626 64.8041 80.6614 64.8052 80.6548 64.8925L80.6681 64.8457C80.6349 64.9168 80.634 64.9216 80.6655 64.8603C80.7286 64.7628 80.6303 64.9114 80.6716 64.8485C80.6881 64.8305 80.7056 64.8134 80.724 64.7973C80.6704 64.8349 80.6617 64.8413 80.6984 64.816C80.7416 64.7904 80.7858 64.7648 80.8292 64.7392C80.8693 64.7198 80.8596 64.7242 80.8001 64.7518C80.8244 64.7433 80.8486 64.7359 80.8734 64.7295C80.8982 64.7231 80.9224 64.7167 80.9475 64.7121C80.8763 64.7195 80.8637 64.7214 80.9097 64.718C80.9607 64.7219 81.0141 64.716 81.0657 64.718C81.142 64.7242 81.1522 64.7251 81.0963 64.7208L81.1599 64.7346C81.2228 64.7538 81.2876 64.7682 81.3489 64.7891C81.3466 64.7891 81.531 64.8626 81.4483 64.826C81.6937 64.9409 81.9324 65.0695 82.1634 65.2112C82.4017 65.3513 82.6359 65.498 82.866 65.6515C83.0655 65.8082 83.2728 65.9546 83.4871 66.0902C83.6274 66.171 83.7938 66.193 83.9502 66.1513C84.1065 66.1096 84.2401 66.0077 84.3218 65.8678C84.4034 65.7278 84.4265 65.5612 84.386 65.4043C84.3455 65.2474 84.2447 65.1129 84.1056 65.0301C83.9791 64.9498 83.8575 64.8619 83.7415 64.7669C83.6 64.6678 83.4566 64.5713 83.3114 64.4773C83.0407 64.3023 82.7641 64.1365 82.4819 63.9797C81.8891 63.6507 81.1842 63.3402 80.4977 63.5602C80.1549 63.652 79.8587 63.869 79.6675 64.1685C79.4762 64.4679 79.4037 64.8282 79.4641 65.1785C79.5337 65.4909 79.6326 65.7961 79.7594 66.09C79.8974 66.451 80.049 66.8065 80.214 67.1565C80.2965 67.2965 80.4309 67.3982 80.5879 67.4394C80.745 67.4807 80.9119 67.4582 81.0524 67.3767C81.1895 67.2916 81.2888 67.1569 81.3297 67.0006C81.3706 66.8443 81.3501 66.6782 81.2723 66.5366L81.2728 66.5356Z" fill="#726A69"/>
</g>
<defs>
<clipPath id="clip0_1621_24857">
<rect width="93" height="80" fill="white" transform="translate(18)"/>
</clipPath>
</defs>
</svg>
