<svg width="100" height="80" viewBox="0 0 100 80" fill="none" xmlns="http://www.w3.org/2000/svg">
<mask id="mask0_1621_25827" style="mask-type:alpha" maskUnits="userSpaceOnUse" x="0" y="0" width="100" height="80">
<rect width="100" height="80" fill="#D9D9D9"/>
</mask>
<g mask="url(#mask0_1621_25827)">
<path d="M43.4705 40.6705L40.4503 37.0227C41.0876 35.1282 41.4056 33.1408 41.3914 31.1417C41.3914 22.8011 35.0507 15.7781 25.9563 15.7781C16.831 15.7781 10.5234 22.8577 10.5234 31.1417C10.5234 40.4106 16.9667 46.7935 25.957 46.7935C31.9111 46.7935 36.544 44.1706 39.122 39.8837L43.4705 40.6705Z" fill="white"/>
<path d="M74.5088 22.8063L73.1216 22.4956C71.8039 21.7967 70.3754 19.6776 69.8466 18.4484C69.3881 17.3632 68.9927 16.2523 68.6624 15.1213C66.8555 17.0893 64.1903 18.5764 61.3328 19.3834C61.2634 19.4035 61.1902 19.4066 61.1193 19.3922C61.0485 19.3779 60.9822 19.3466 60.9261 19.3011C60.8699 19.2556 60.8256 19.1971 60.7968 19.1307C60.7681 19.0643 60.7558 18.992 60.761 18.9198C60.8037 18.3385 60.9176 17.7646 61.1001 17.2111C61.1071 17.1906 61.1073 17.1684 61.1006 17.1478C61.0939 17.1273 61.0806 17.1095 61.0628 17.0971C61.0451 17.0848 61.0238 17.0787 61.0022 17.0796C60.9806 17.0805 60.9599 17.0885 60.9433 17.1023C59.087 18.6245 57.0815 20.2093 55.2121 21.4933C55.0079 21.6345 54.7617 21.7854 54.6043 21.8911L54.2285 22.145L54.2396 22.232C54.4536 23.9049 54.5941 25.5786 54.7573 27.1184C54.7694 27.2326 54.7824 27.3463 54.7964 27.4596C55.1108 29.994 55.9235 32.272 57.7054 33.7439C59.1762 34.9586 60.7167 35.6358 62.4597 35.8058C62.4836 36.5549 61.6892 36.989 61.0603 37.2173C60.3602 37.5406 59.1743 37.9566 58.2321 38.3126C58.998 39.5238 60.1622 40.3032 61.4411 40.8092C62.7243 41.2929 64.0894 41.5213 65.4599 41.4815C69.2318 41.4433 73.1231 40.1825 75.8048 37.2995C74.5674 36.8589 72.5893 36.5734 72.1412 35.541C71.9897 35.1551 71.8794 34.7542 71.8123 34.345C71.7083 33.8257 71.6044 33.3065 71.5006 32.7874C72.2521 32.0588 72.9233 31.2515 73.5026 30.3793C73.5026 30.3793 73.9869 29.6369 74.1919 29.2125C74.1919 29.2125 74.2448 29.1037 74.3037 28.9828C74.8587 28.9998 75.4089 28.8743 75.9019 28.6184C76.6452 28.1445 77.2306 27.4594 77.5832 26.6506C77.9981 25.8209 78.1876 24.4235 77.822 23.6063C77.6994 23.3332 77.3937 22.8557 76.5566 22.7252C76.1301 22.6538 75.6925 22.7486 75.3335 22.9901L74.5088 22.8063Z" fill="white"/>
<path d="M59.5535 70.4986C57.1685 69.9493 55.5019 69.6268 52.8578 69.0775C48.6126 68.1955 46.3027 65.9175 46.3027 65.9175C46.957 60.62 48.1697 52.4572 49.1835 47.1949C49.5466 45.2741 50.4418 43.4944 51.7669 42.0591C53.5234 40.119 55.2271 39.4145 58.1194 38.1269C58.8816 39.4456 60.0986 40.2797 61.4419 40.8103C62.7251 41.2941 64.0902 41.5224 65.4607 41.4827C69.3032 41.4437 73.2685 40.1366 75.9526 37.1401C78.5736 37.6725 82.2524 39.81 83.7488 41.6801C86.7722 45.4583 87.6232 50.2816 88.1305 54.787C88.6552 59.4468 88.8595 65.1127 87.5226 67.9916C86.8996 69.3339 86.0898 70.1202 84.5898 71.007C82.4872 72.2495 78.2279 72.874 75.0422 72.5855C75.0428 72.585 63.4928 71.4062 59.5535 70.4986Z" fill="white"/>
<path d="M60.0727 62.2953C61.065 62.5963 62.4173 62.8781 63.4684 63.0899C63.3894 62.9242 63.3403 62.8202 63.3403 62.8202C63.1413 62.3991 62.9687 61.966 62.8236 61.5233C62.771 61.3901 62.7455 61.2476 62.7488 61.1043C62.7787 60.7503 63.1482 60.502 63.5025 60.4881C63.8587 60.5018 64.2047 60.6115 64.5039 60.8055C64.5753 60.8449 64.6455 60.8864 64.7162 60.9271L64.5573 60.4872C62.4709 54.4912 60.1395 44.4038 58.8696 37.5501C58.8592 37.4939 58.837 37.4405 58.8044 37.3935C58.7719 37.3465 58.7297 37.307 58.6808 37.2776C58.6318 37.2482 58.5771 37.2296 58.5204 37.2229C58.4637 37.2163 58.4062 37.2218 58.3518 37.2392L57.5607 37.4897C57.4735 37.517 57.3978 37.5727 57.3455 37.6478C57.2933 37.7229 57.2674 37.8133 57.272 37.9048C57.658 46.0956 58.2009 54.0584 60.0173 62.0507L60.0727 62.2953Z" fill="white"/>
<path d="M59.7647 69.3727C60.5028 67.3249 63.8074 64.3208 66.1233 61.8586L65.9338 61.7266C65.4785 61.3866 65.0001 61.0787 64.5021 60.8053C64.2028 60.6112 63.8569 60.5015 63.5006 60.4878C63.1463 60.5017 62.7768 60.75 62.7469 61.1041C62.7437 61.2473 62.7691 61.3898 62.8218 61.5231C62.9669 61.9657 63.1394 62.3989 63.3385 62.82C63.3385 62.82 63.3875 62.9239 63.4665 63.0896C62.0726 62.8084 60.1451 62.4044 59.2359 61.9954C57.9101 61.3991 57.3906 61.5822 57.126 61.9556C57.0402 62.0848 56.9952 62.2368 56.9969 62.3919C56.9986 62.5471 57.0468 62.6981 57.1353 62.8254C56.283 62.4481 55.4503 62.0987 55.0463 62.8295C54.6911 63.4719 55.2215 64.0501 55.7931 64.4141L55.6999 64.3706C55.2577 64.1606 54.8924 64.2556 54.6091 64.7033C54.554 64.8027 54.5199 64.9125 54.509 65.0256C54.4981 65.1388 54.5106 65.253 54.5457 65.3612C54.5808 65.4693 54.6378 65.569 54.7131 65.6541C54.7884 65.7392 54.8804 65.8079 54.9833 65.8558C55.1924 66.0056 55.3767 66.1359 55.5493 66.254C55.1225 66.0667 54.7109 66.1374 54.4725 66.484C54.3881 66.6105 54.3373 66.7565 54.3251 66.9081C54.3129 67.0598 54.3397 67.212 54.4028 67.3504C54.6835 67.7879 55.1811 68.0897 55.5907 68.3852C56.5287 69.065 57.5265 69.6581 58.5716 70.157C58.8904 70.2825 59.2184 70.383 59.5526 70.4578C59.5658 70.0871 59.6373 69.7209 59.7647 69.3727Z" fill="white"/>
<path d="M76.7312 37.1774C76.5577 37.1258 76.3711 37.1413 76.2085 37.221C76.0458 37.3006 75.919 37.4386 75.8531 37.6075C74.5041 41.1085 70.9933 54.427 67.302 60.5544C67.0139 61.0328 66.5751 61.3794 66.1935 61.7867C63.875 64.2621 60.5116 67.3054 59.7676 69.3731C59.567 69.93 59.4071 70.8301 59.7765 71.2047C60.8989 72.3461 63.4321 72.9404 65.3785 72.893C66.5074 72.8654 67.8679 72.5549 68.5745 72.7569C71.7399 73.6626 74.6079 73.7067 77.3884 73.0118C79.6062 72.3494 79.0231 68.1774 79.2072 63.5661C79.2918 62.2996 79.2397 56.9101 79.2219 55.8578C79.1301 50.4702 79.0168 44.1874 78.7973 38.707C78.7866 38.4358 78.6913 38.1748 78.5249 37.9607C78.3584 37.7466 78.1291 37.5901 77.8692 37.5134L76.7312 37.1774Z" fill="white"/>
<path d="M53.648 35.1301C53.736 36.2267 54.2717 37.549 55.7792 38.6028L56.9066 38.668C57.0351 38.61 57.1663 38.5512 57.3001 38.4917C57.2908 38.296 57.2808 38.1002 57.2717 37.9045C57.2671 37.8131 57.293 37.7227 57.3452 37.6475C57.3975 37.5724 57.4732 37.5168 57.5604 37.4894L58.3515 37.2389C58.4059 37.2216 58.4634 37.2161 58.5201 37.2227C58.5768 37.2293 58.6315 37.2479 58.6805 37.2774C58.7294 37.3068 58.7716 37.3463 58.8041 37.3933C58.8367 37.4402 58.8589 37.4936 58.8693 37.5499C58.8992 37.7117 58.9303 37.8761 58.9615 38.042C59.7294 37.758 60.5341 37.4618 61.0623 37.2178C61.6919 36.9895 62.4855 36.5555 62.4617 35.8063C60.7195 35.637 59.1791 34.9583 57.7074 33.7445C55.9249 32.2725 55.1121 29.9945 54.7984 27.4601C54.7839 27.3469 54.7709 27.2332 54.7593 27.1189C54.5961 25.5791 54.4554 23.9054 54.2416 22.2326L54.2305 22.1456L54.6063 21.8918C54.7628 21.7861 55.009 21.6352 55.2141 21.4941C57.0839 20.21 59.0894 18.6255 60.9453 17.1031C60.9619 17.0893 60.9826 17.0813 61.0042 17.0804C61.0258 17.0794 61.0471 17.0856 61.0648 17.0979C61.0826 17.1102 61.0958 17.128 61.1026 17.1486C61.1093 17.1692 61.1091 17.1914 61.102 17.2118C60.9196 17.7653 60.8057 18.3392 60.7629 18.9205C60.7577 18.9927 60.77 19.0651 60.7988 19.1315C60.8275 19.1979 60.8719 19.2563 60.928 19.3019C60.9842 19.3474 61.0505 19.3787 61.1213 19.393C61.1921 19.4073 61.2654 19.4043 61.3348 19.3842C64.1914 18.5768 66.8575 17.0896 68.6644 15.1221C68.9947 16.2531 69.3901 17.3639 69.8486 18.4491C70.3774 19.6784 71.8059 21.7979 73.1236 22.4963L74.5108 22.8071L75.3357 22.9917C75.6947 22.7502 76.1323 22.6554 76.5588 22.7268C77.3959 22.8573 77.7016 23.3357 77.8242 23.6079C78.1903 24.4247 78.0007 25.822 77.5854 26.6523C77.2328 27.461 76.6474 28.1461 75.9041 28.62C75.4111 28.8759 74.8609 29.0014 74.3059 28.9844C74.247 29.1045 74.1941 29.2141 74.1941 29.2141C73.9891 29.6385 73.5048 30.3809 73.5048 30.3809C72.9254 31.2531 72.2543 32.0604 71.5028 32.789C71.6069 33.3083 71.7108 33.8275 71.8145 34.3466C71.8816 34.7558 71.9919 35.1567 72.1434 35.5426C72.5911 36.5737 74.5638 36.8599 75.802 37.2994C75.8522 37.2457 75.9047 37.1954 75.954 37.1406C76.0506 37.1602 76.1494 37.1826 76.2486 37.2059C76.4016 37.141 76.5723 37.131 76.7318 37.1774L77.87 37.5133C78.1564 37.5988 78.4043 37.7813 78.5712 38.0296C79.0634 38.252 79.5568 38.5028 80.0377 38.7735C80.6197 38.0217 80.6505 37.2226 80.6672 36.6642C80.7092 35.5133 80.5441 34.3643 80.1799 33.2719C79.7296 31.7702 78.9049 28.7244 79.0603 23.3461C79.1863 22.2164 79.2378 21.0795 79.2145 19.943C79.2099 19.4131 79.1982 18.9645 79.1878 18.6711C79.0755 15.1582 77.1233 11.0881 74.5436 9.47899C71.4366 6.96068 68.6222 6.38682 65.817 6.55143C61.8354 6.7852 58.6452 8.35433 56.5199 10.9059C55.2927 12.3789 54.4198 14.5119 54.095 16.409C53.7779 18.6074 53.8372 20.8439 54.2704 23.0223C54.6341 27.2392 53.3608 31.6795 53.648 35.1301Z" fill="#1492D9"/>
<path d="M75.2482 10.6899C76.6977 12.0816 77.6611 13.9595 78.2082 15.8781C78.7826 17.8924 78.7661 20.0358 78.6504 22.1127C78.6196 22.6663 78.5393 23.2149 78.5282 23.7688C78.5163 24.3631 78.5163 24.9575 78.5282 25.5519C78.5499 26.5554 78.6083 27.5588 78.7155 28.5569C78.8574 29.9534 79.1099 31.3364 79.4706 32.6928C79.6994 33.5341 79.9866 34.3609 80.0925 35.2307C80.225 36.3179 80.2762 37.5955 79.5884 38.5122C79.5195 38.632 79.5005 38.7741 79.5355 38.9078C79.5705 39.0414 79.6567 39.1559 79.7754 39.2264C79.8954 39.2929 80.0364 39.3106 80.1692 39.2757C80.3019 39.2409 80.4161 39.1561 80.4881 39.0391C81.161 38.143 81.2275 37.0073 81.1877 35.9261C81.1218 34.891 80.9267 33.8683 80.607 32.8818C80.2587 31.6865 80.0015 30.4664 79.8379 29.232C79.5372 27.0851 79.4731 24.9116 79.6466 22.7507C79.7352 21.6052 79.7615 20.4558 79.7254 19.3075C79.7178 18.2583 79.5978 17.2128 79.3672 16.1893C78.8226 13.8928 77.7013 11.5984 75.9854 9.95188C75.5011 9.48718 74.7632 10.2243 75.2486 10.6899H75.2482Z" fill="#726A69"/>
<path d="M53.6673 22.2725C53.9967 24.7641 53.7062 27.2754 53.4207 29.7559C53.285 30.9351 53.1454 32.1163 53.0983 33.3032C53.0608 34.2543 53.0371 35.2703 53.3213 36.1894C53.7155 37.361 54.4871 38.3682 55.5148 39.0529C55.6344 39.1215 55.7761 39.1404 55.9095 39.1054C56.0428 39.0704 56.1571 38.9843 56.2277 38.8656C56.2945 38.7454 56.3124 38.604 56.2776 38.4709C56.2427 38.3378 56.1579 38.2234 56.0408 38.1515C55.259 37.6253 54.6657 36.8626 54.3475 35.9746C54.0733 35.1337 54.1054 34.2145 54.1415 33.3023C54.2335 30.9826 54.6466 28.6884 54.7973 26.3728C54.9029 25.0062 54.8738 23.6325 54.7105 22.2716C54.7061 22.1346 54.6498 22.0044 54.553 21.9074C54.4562 21.8105 54.3262 21.7541 54.1894 21.7498C53.9365 21.7498 53.6311 21.9903 53.6684 22.2716L53.6673 22.2725Z" fill="#726A69"/>
<path d="M61.8331 31.4203C61.8778 31.3962 61.9239 31.3755 61.9692 31.3525C61.8672 31.4044 61.9909 31.3455 62.0324 31.3307C62.1482 31.2911 62.2663 31.2587 62.386 31.2337C62.4449 31.2213 62.5044 31.2131 62.5632 31.2009C62.642 31.1846 62.4798 31.2092 62.5604 31.2009C62.591 31.1976 62.6214 31.1937 62.6518 31.1909C62.7816 31.1783 62.912 31.1722 63.0425 31.1728C63.1632 31.1728 63.2813 31.1855 63.4022 31.1946C63.2911 31.187 63.4381 31.2005 63.4776 31.2081C63.5318 31.2185 63.5861 31.2298 63.6393 31.2446C63.6925 31.2594 63.7411 31.2735 63.7913 31.2911C63.8021 31.2948 63.917 31.3422 63.8649 31.3192C63.8214 31.2996 63.9113 31.3409 63.9193 31.3453C64.0572 31.4105 64.1931 31.4786 64.3318 31.5399C64.452 31.6062 64.5929 31.6237 64.7256 31.5889C64.8583 31.5541 64.9725 31.4695 65.0447 31.3527C65.113 31.2328 65.1316 31.0909 65.0967 30.9574C65.0617 30.8239 64.976 30.7095 64.8578 30.6386C64.5603 30.4847 64.252 30.3527 63.9354 30.2434C63.6438 30.1671 63.3435 30.129 63.0421 30.1299C62.4399 30.114 61.8432 30.2479 61.3054 30.5196C61.1869 30.5903 61.101 30.7048 61.066 30.8384C61.031 30.9719 61.0499 31.1139 61.1185 31.2337C61.1902 31.3511 61.3044 31.4361 61.4373 31.471C61.5702 31.5059 61.7114 31.488 61.8314 31.421L61.8331 31.4203Z" fill="#726A69"/>
<path d="M64.9761 24.9365C64.8311 24.3909 64.9865 23.1551 66.0103 23.0881C67.3576 23.1482 67.3717 24.6503 66.8911 25.3377C66.4975 25.9013 65.3962 26.0992 64.9761 24.9365Z" fill="#726A69"/>
<path d="M56.968 24.8803C56.8356 24.3332 56.9787 23.0931 57.9161 23.0259C59.1498 23.0852 59.1619 24.5915 58.7215 25.2822C58.3607 25.8471 57.3518 26.0465 56.968 24.8803Z" fill="#726A69"/>
<path d="M61.1325 26.1635C60.9567 26.4568 60.7882 26.7558 60.6389 27.0635C60.555 27.2153 60.5033 27.3827 60.4869 27.5554C60.4826 27.6605 60.5018 27.7652 60.5431 27.8619C60.5844 27.9586 60.6468 28.0448 60.7257 28.1143C60.8523 28.2344 61.0059 28.3223 61.1736 28.3704C61.2833 28.3927 61.3943 28.4078 61.5059 28.4156L61.3674 28.3969L61.3805 28.3989C61.5163 28.4311 61.6591 28.4124 61.7821 28.3463C61.8412 28.3117 61.8929 28.2658 61.9343 28.2112C61.9757 28.1566 62.0059 28.0943 62.0232 28.028C62.0406 27.9617 62.0447 27.8926 62.0354 27.8247C62.0261 27.7568 62.0036 27.6913 61.969 27.6322C61.9357 27.5734 61.891 27.522 61.8375 27.4809C61.784 27.4398 61.7227 27.4099 61.6575 27.393C61.5639 27.3788 61.4701 27.3712 61.3753 27.3586L61.5138 27.3773C61.4682 27.3705 61.4236 27.3583 61.3809 27.341L61.5055 27.3936C61.4665 27.3759 61.4294 27.354 61.395 27.3284L61.5003 27.4101C61.4671 27.384 61.4364 27.3549 61.4085 27.3232L61.4899 27.4289C61.4823 27.4187 61.4759 27.4076 61.4708 27.396L61.5233 27.5206C61.5168 27.503 61.5122 27.4848 61.5096 27.4663L61.5283 27.605C61.5268 27.5854 61.5268 27.5657 61.5283 27.5461L61.5099 27.6848C61.5185 27.6358 61.5331 27.588 61.5533 27.5426L61.5007 27.6672C61.6578 27.3314 61.8349 27.0053 62.0311 26.6908C62.1008 26.5713 62.1203 26.4289 62.0852 26.295C62.0501 26.1611 61.9634 26.0467 61.8441 25.9768C61.7247 25.907 61.5826 25.8875 61.4489 25.9226C61.3152 25.9577 61.201 26.0446 61.1312 26.1641L61.1325 26.1635Z" fill="#726A69"/>
<path d="M71.1904 33.7666C72.0291 33.0532 72.7842 32.2467 73.4411 31.3626C73.8994 30.7728 74.3017 30.1414 74.6429 29.4767C74.7093 29.3564 74.727 29.2152 74.6922 29.0822C74.6574 28.9493 74.5728 28.8349 74.456 28.7628C74.3365 28.6941 74.1947 28.6753 74.0614 28.7103C73.9281 28.7454 73.8139 28.8314 73.7433 28.95C72.9353 30.5199 71.8158 31.9081 70.4535 33.0296C70.3569 33.128 70.3027 33.2606 70.3027 33.3986C70.3027 33.5367 70.3569 33.6692 70.4535 33.7676C70.5526 33.8629 70.6846 33.9161 70.822 33.9161C70.9593 33.9161 71.0913 33.8629 71.1904 33.7676V33.7666Z" fill="#726A69"/>
<path d="M73.842 8.30243C71.9752 6.97787 69.7814 6.19153 67.4995 6.02897C65.4017 5.89897 63.2998 6.20748 61.3274 6.93487C59.513 7.59701 57.8778 8.67378 56.5515 10.0797C55.0821 11.7192 54.0843 13.7273 53.6642 15.89C53.1725 18.2776 53.2849 20.8722 53.7862 23.2477C53.9249 23.9044 54.9296 23.6265 54.7911 22.9702C54.36 20.9543 54.2792 18.8791 54.5523 16.8357C54.8325 14.8653 55.6095 12.815 56.8886 11.2741C59.2931 8.37723 63.0207 7.03751 66.7184 7.04729C69.0865 7.07101 71.3899 7.82388 73.3162 9.20377C73.4358 9.27227 73.5775 9.29104 73.7108 9.25603C73.844 9.22102 73.9583 9.13503 74.0289 9.01654C74.096 8.8964 74.114 8.7549 74.0791 8.62176C74.0443 8.48861 73.9593 8.37416 73.842 8.30243Z" fill="#726A69"/>
<path d="M68.3547 34.1193C65.7401 35.3108 62.6546 35.8796 59.9633 34.5871C58.7185 33.9895 57.5554 33.1112 56.7962 31.9433C56.0329 30.7691 55.6324 29.4056 55.404 28.0335C55.2534 27.1291 55.1869 26.2102 55.0975 25.2984C54.9965 24.2764 54.8923 23.2526 54.7627 22.2323C54.7585 22.0953 54.7022 21.965 54.6054 21.868C54.5086 21.771 54.3786 21.7147 54.2417 21.7104C54.1038 21.7112 53.9717 21.7664 53.8741 21.8641C53.7766 21.9618 53.7214 22.0942 53.7207 22.2323C53.9573 24.0946 54.0707 25.9725 54.3266 27.8319C54.5357 29.3491 54.9434 30.8739 55.7292 32.1999C57.3068 34.8622 60.4383 36.4098 63.485 36.3695C65.3762 36.3448 67.1707 35.7996 68.8807 35.0213C68.9992 34.9507 69.0852 34.8362 69.1202 34.7026C69.1551 34.569 69.1363 34.427 69.0676 34.3072C68.9956 34.1902 68.8814 34.1055 68.7486 34.0706C68.6159 34.0357 68.4748 34.0534 68.3547 34.12V34.1193Z" fill="#726A69"/>
<path d="M75.5946 23.4424C75.8409 23.282 76.1343 23.21 76.4268 23.2382C76.7193 23.2665 76.9935 23.3933 77.2047 23.5979C77.2223 23.6162 77.2392 23.6362 77.2551 23.6562C77.2492 23.6488 77.2134 23.599 77.2447 23.6462C77.272 23.6877 77.2983 23.7297 77.322 23.7734C77.3645 23.8561 77.3969 23.9437 77.4183 24.0343C77.4935 24.3511 77.5155 24.6782 77.4835 25.0022C77.3984 26.2154 76.7104 27.5464 75.6382 28.1679C75.2053 28.4184 74.3754 28.6093 73.8353 28.3564C73.7151 28.2904 73.5742 28.273 73.4416 28.3078C73.309 28.3426 73.1947 28.427 73.1224 28.5436C73.0538 28.6634 73.035 28.8054 73.0699 28.9389C73.1049 29.0724 73.1908 29.1869 73.3093 29.2575C74.1435 29.6489 75.1213 29.5402 75.9478 29.1762C76.7158 28.8378 77.3315 28.1426 77.7535 27.4327C78.1846 26.7188 78.4466 25.9153 78.5192 25.0842C78.5854 24.3231 78.4884 23.4685 77.96 22.8792C77.5887 22.5015 77.0998 22.262 76.5741 22.2005C76.0485 22.139 75.5176 22.2592 75.0694 22.5411C74.513 22.9107 75.0343 23.8149 75.5954 23.4424H75.5946Z" fill="#726A69"/>
<path d="M68.1776 15.3275C68.604 16.7962 69.1048 18.3258 69.8789 19.6524C70.6018 20.8919 71.5722 22.246 72.8578 22.9466C73.447 23.2678 73.9737 22.3669 73.3838 22.0455C72.8301 21.7145 72.341 21.2855 71.9404 20.7793C71.4886 20.2451 71.0873 19.67 70.7416 19.0614C70.0322 17.8276 69.5785 16.4137 69.1823 15.0496C68.9954 14.406 67.9896 14.68 68.1776 15.3271V15.3275Z" fill="#726A69"/>
<path d="M68.2914 14.7566C66.6589 16.5199 64.5106 17.7625 62.2552 18.5475C61.9928 18.6388 61.7284 18.7243 61.462 18.8038C61.4155 18.8178 61.1075 18.8908 61.2449 18.8908C61.2351 18.8908 61.259 18.9385 61.2816 18.9217C61.313 18.8984 61.3067 18.6625 61.3111 18.6271C61.3492 18.3204 61.4091 18.0169 61.4904 17.7188C61.5803 17.3865 61.7377 17.036 61.4489 16.7468C61.15 16.4473 60.7823 16.5682 60.4959 16.7998C60.2039 17.036 59.9141 17.2749 59.6219 17.5109C59.0848 17.9446 58.5441 18.3739 57.9998 18.7986C56.8106 19.7241 55.5958 20.6087 54.3412 21.4426C53.785 21.8123 54.3063 22.7169 54.8672 22.344C55.9581 21.6185 57.0188 20.8568 58.0584 20.0607C58.6004 19.6455 59.1384 19.2251 59.6723 18.7995C59.9416 18.5848 60.2102 18.3691 60.4781 18.1524C60.6111 18.0448 60.744 17.9369 60.8767 17.8288C60.9907 17.7161 61.1174 17.617 61.2542 17.5335L60.9913 17.6048L61.0399 17.6105L60.777 17.5391L60.817 17.5668L60.6301 17.3795L60.6518 17.423L60.5806 17.1595C60.5397 17.3343 60.488 17.5065 60.4256 17.6748C60.3783 17.8797 60.3411 18.0865 60.3112 18.2944C60.246 18.7414 60.1466 19.2274 60.482 19.5958C60.6231 19.744 60.8047 19.8472 61.0041 19.8925C61.2035 19.9378 61.4118 19.9232 61.6029 19.8504C62.0032 19.7345 62.3993 19.6049 62.7912 19.4616C64.3151 18.9194 65.7552 18.1649 67.069 17.2204C67.7757 16.709 68.4318 16.1308 69.0282 15.4938C69.4841 15.0019 68.7486 14.2619 68.2914 14.7558V14.7566Z" fill="#726A69"/>
<path d="M71.0155 33.0077C71.1675 33.7662 71.276 34.5516 71.4996 35.2929C71.6501 35.8655 72.013 36.3589 72.5143 36.6727C73.4508 37.2707 74.6033 37.4357 75.6375 37.7938C75.7035 37.8121 75.7724 37.8171 75.8403 37.8086C75.9082 37.8002 75.9738 37.7784 76.0333 37.7446C76.0928 37.7107 76.1451 37.6655 76.1872 37.6114C76.2292 37.5573 76.2602 37.4955 76.2784 37.4294C76.2966 37.3633 76.3016 37.2943 76.2932 37.2263C76.2847 37.1583 76.263 37.0926 76.2292 37.033C76.1954 36.9733 76.1502 36.921 76.0962 36.8789C76.0423 36.8367 75.9805 36.8057 75.9145 36.7875C74.9837 36.465 73.939 36.3026 73.1293 35.8259C73.0846 35.7996 73.0403 35.7722 72.9971 35.7435C72.9834 35.7341 72.8707 35.6526 72.9406 35.7072C72.8537 35.6386 72.7738 35.5617 72.7018 35.4775C72.7713 35.5584 72.6845 35.4506 72.676 35.4371C72.6519 35.3995 72.6302 35.3604 72.6109 35.3201C72.5483 35.1696 72.4975 35.0145 72.4589 34.8561C72.2742 34.1587 72.1613 33.4374 72.0197 32.7303C71.983 32.5968 71.8948 32.4834 71.7746 32.415C71.6544 32.3466 71.512 32.3289 71.3788 32.3657C71.2455 32.4025 71.1323 32.4908 71.0641 32.6112C70.9958 32.7316 70.9781 32.8742 71.0148 33.0077H71.0155Z" fill="#726A69"/>
<path d="M66.2353 21.6108C66.4413 21.808 66.6788 21.9692 66.938 22.0878C67.081 22.1545 67.2288 22.21 67.3802 22.254C67.5328 22.293 67.6883 22.3194 67.8452 22.3327C67.9835 22.3329 68.1162 22.2782 68.2143 22.1805C68.312 22.0826 68.3669 21.9499 68.3669 21.8115C68.3669 21.6731 68.312 21.5403 68.2143 21.4424C68.1126 21.3504 67.9822 21.2966 67.8452 21.2902C67.8207 21.2878 67.7962 21.285 67.7714 21.2818L67.9099 21.3005C67.7298 21.2744 67.5536 21.2256 67.3857 21.1552L67.51 21.2078C67.3355 21.1342 67.1709 21.0388 67.0201 20.924L67.1256 21.0056C67.0723 20.9641 67.0212 20.9206 66.9721 20.8751C66.8728 20.7794 66.7409 20.725 66.603 20.7229C66.4649 20.7236 66.3325 20.7782 66.234 20.8751C66.1366 20.9734 66.082 21.1063 66.082 21.2448C66.0827 21.3831 66.1372 21.5157 66.234 21.6145L66.2353 21.6108Z" fill="#726A69"/>
<path d="M69.523 24.5256C69.4755 24.9685 69.4545 25.4139 69.4598 25.8594C69.4696 26.2828 69.47 26.7875 69.709 27.155C69.8556 27.3569 70.0579 27.5115 70.2911 27.5999C70.5242 27.6882 70.778 27.7063 71.0213 27.6521C71.2321 27.6064 71.4283 27.5092 71.5924 27.3692C71.7566 27.2291 71.8836 27.0506 71.9622 26.8495C72.0279 26.7262 72.0466 26.5832 72.0147 26.4472C71.9777 26.3166 71.8923 26.2051 71.7759 26.1354C71.553 26.0173 71.1763 26.054 71.063 26.3226C71.0359 26.3889 71.0038 26.4531 70.967 26.5146C70.9575 26.5298 70.895 26.6105 70.9466 26.5492C70.9983 26.4879 70.9301 26.5646 70.918 26.5766C70.9058 26.5885 70.8926 26.6014 70.8789 26.6129C70.85 26.6379 70.8615 26.6288 70.9139 26.5857L70.8181 26.6396C70.8257 26.6122 70.9186 26.6053 70.8166 26.6309C70.7196 26.6555 70.7992 26.617 70.8283 26.634C70.7912 26.6319 70.7539 26.6329 70.717 26.637C70.6012 26.6392 70.819 26.6681 70.7078 26.637C70.6783 26.629 70.6481 26.619 70.6186 26.6125C70.5626 26.6005 70.702 26.666 70.6253 26.6144C70.6041 26.6029 70.5834 26.5903 70.5635 26.5766L70.6121 26.6138C70.5983 26.6021 70.5852 26.5895 70.573 26.5761C70.5463 26.5472 70.5552 26.56 70.5999 26.6146C70.5999 26.6146 70.532 26.5013 70.5782 26.5855C70.6175 26.6555 70.5685 26.5468 70.5628 26.5259C70.5546 26.4952 70.5473 26.4643 70.5411 26.4333C70.5374 26.4148 70.5342 26.3961 70.5311 26.3776C70.5249 26.3369 70.5269 26.3529 70.537 26.4257C70.5226 26.3452 70.5153 26.2636 70.5153 26.1819C70.5031 26.0006 70.4981 25.819 70.499 25.6383C70.5007 25.2664 70.5283 24.8957 70.5641 24.5258C70.5637 24.3875 70.5086 24.255 70.411 24.1573C70.3134 24.0595 70.1812 24.0044 70.0431 24.0039C69.9061 24.0075 69.7756 24.0636 69.6787 24.1607C69.5817 24.2578 69.5257 24.3885 69.5221 24.5258L69.523 24.5256Z" fill="#726A69"/>
<path d="M61.9384 35.8063C61.9384 35.8448 61.9336 35.8848 61.9351 35.9231C61.9371 35.9775 61.961 35.8518 61.9282 35.939C61.9234 35.9516 61.8884 36.0681 61.913 36.001C61.9375 35.9338 61.8861 36.0531 61.8841 36.0566C61.8665 36.0884 61.8463 36.1184 61.8266 36.149C61.7862 36.2112 61.9065 36.0692 61.8135 36.1651C61.761 36.2191 61.7078 36.271 61.6533 36.323C61.6216 36.3532 61.6099 36.3589 61.6512 36.3278C61.6203 36.3513 61.5884 36.3732 61.5563 36.3948C61.4912 36.4383 61.4245 36.4787 61.3561 36.5165C61.2878 36.5544 61.2185 36.5892 61.1482 36.6222C61.1134 36.6385 61.0785 36.6542 61.0433 36.6694C61.111 36.6403 61.0637 36.6605 61.0216 36.6761C60.8505 36.7414 60.6862 36.8188 60.5182 36.8903C60.5833 36.8629 60.4748 36.9082 60.4637 36.9121C60.419 36.9306 60.3742 36.9489 60.3295 36.9669C60.2357 37.0047 60.1417 37.0419 60.0473 37.0784C59.6396 37.2372 59.2289 37.3883 58.8186 37.5403C58.6874 37.5804 58.5765 37.6694 58.5089 37.789C58.4413 37.9085 58.4222 38.0495 58.4554 38.1829C58.4931 38.3157 58.5814 38.4284 58.7013 38.4967C58.8212 38.5649 58.963 38.5832 59.0962 38.5475C59.5452 38.3812 59.9946 38.2161 60.44 38.0407C60.6593 37.9537 60.8772 37.8637 61.0939 37.7708C61.1408 37.7504 61.1877 37.7299 61.2341 37.7088C61.3792 37.6436 61.1427 37.7408 61.2789 37.6908C61.3841 37.6523 61.4877 37.6071 61.5902 37.5616C62.3109 37.2424 62.988 36.6592 62.9795 35.8066C62.9795 35.6681 62.9246 35.5354 62.8269 35.4375C62.7292 35.3397 62.5967 35.2847 62.4585 35.2847C62.3203 35.2847 62.1878 35.3397 62.0901 35.4375C61.9924 35.5354 61.9375 35.6681 61.9375 35.8066L61.9384 35.8063Z" fill="#726A69"/>
<path d="M78.3123 38.4839C79.8035 39.1375 81.19 40.0083 82.4268 41.0681C83.5019 42.021 84.304 43.2465 84.965 44.5136C86.3127 47.0976 86.9547 49.9882 87.3652 52.8549C87.8026 55.7689 88.0174 58.7121 88.0076 61.6589C88.0136 62.9857 87.9054 64.3106 87.6841 65.6189C87.4731 66.759 87.1529 67.8169 86.4801 68.7576C85.7123 69.8316 84.4373 70.6218 83.2194 71.0778C81.5683 71.6597 79.8416 71.9986 78.0933 72.0839C77.9561 72.0871 77.8254 72.1431 77.7284 72.2403C77.6313 72.3375 77.5754 72.4684 77.5723 72.6058C77.5734 72.7439 77.6287 72.876 77.7261 72.9736C77.8236 73.0712 77.9554 73.1266 78.0933 73.1277C81.0826 72.9277 84.3387 72.3201 86.5982 70.1899C88.5153 68.3825 88.8759 65.5497 89.0079 63.0525C89.169 59.9821 88.9182 56.8871 88.5394 53.841C88.1612 50.7984 87.5914 47.7611 86.331 44.9472C85.7222 43.5326 84.9016 42.2192 83.8974 41.0524C82.8313 39.8584 81.4269 38.9316 80.0299 38.1734C79.64 37.9617 79.2431 37.7644 78.839 37.5815C78.7188 37.5157 78.578 37.4984 78.4455 37.5332C78.313 37.568 78.1988 37.6523 78.1263 37.7687C78.0576 37.8885 78.0387 38.0305 78.0737 38.1641C78.1086 38.2977 78.1947 38.4122 78.3132 38.4828L78.3123 38.4839Z" fill="#726A69"/>
<path d="M76.3844 36.7016C76.1868 36.6537 75.988 36.6115 75.7874 36.5798C75.7202 36.5582 75.6485 36.5549 75.5796 36.5704C75.5107 36.5736 75.4439 36.5949 75.386 36.6324C75.2727 36.7055 75.1883 36.8157 75.1472 36.9442C75.129 37.0114 75.1243 37.0816 75.1334 37.1506C75.1424 37.2197 75.1649 37.2862 75.1997 37.3465L75.2811 37.452C75.3448 37.516 75.424 37.5624 75.511 37.5864C75.7116 37.6181 75.9105 37.6603 76.108 37.7081C76.2436 37.7427 76.3873 37.7238 76.5094 37.6555C76.6228 37.5824 76.7072 37.4721 76.7482 37.3435C76.7664 37.2774 76.7714 37.2084 76.763 37.1403C76.7546 37.0723 76.7328 37.0066 76.6991 36.947C76.6653 36.8874 76.6201 36.835 76.5661 36.7929C76.5121 36.7508 76.4504 36.7198 76.3844 36.7016Z" fill="#726A69"/>
<path d="M46.8235 65.9171C47.3208 61.8907 47.907 57.8742 48.5496 53.8685C48.8657 51.8986 49.1969 49.9307 49.5647 47.9697C49.717 46.996 49.9844 46.0439 50.3612 45.1335C50.8069 44.1437 51.4056 43.2304 52.135 42.4273C52.8295 41.6565 53.6325 40.9914 54.5187 40.4528C55.5002 39.8862 56.5163 39.3819 57.561 38.9428C57.6796 38.8723 57.7657 38.7578 57.8007 38.6242C57.8357 38.4905 57.8167 38.3484 57.7479 38.2287C57.6759 38.1117 57.5617 38.027 57.429 37.9921C57.2962 37.9572 57.1552 37.9749 57.0352 38.0415C55.2166 38.8519 53.423 39.7022 51.9707 41.0986C50.34 42.645 49.2092 44.6453 48.7243 46.8415C48.3136 48.774 48.0101 50.7352 47.6916 52.6845C47.3386 54.8445 47.0058 57.0082 46.693 59.1756C46.3674 61.4197 46.0591 63.6667 45.7812 65.9167C45.7819 66.0549 45.837 66.1872 45.9346 66.2849C46.0322 66.3827 46.1643 66.4379 46.3023 66.4385C46.4394 66.4353 46.5701 66.3792 46.6671 66.2821C46.7641 66.1849 46.82 66.054 46.8233 65.9167L46.8235 65.9171Z" fill="#726A69"/>
<path d="M58.8687 39.8629C60.9145 41.656 63.7026 42.1334 66.3414 41.9722C68.6976 41.8531 70.9975 41.2081 73.0729 40.0843C74.2519 39.4287 75.3198 38.59 76.2367 37.5995C76.6913 37.1067 75.9563 36.3667 75.4999 36.8615C73.9944 38.4658 72.0914 39.6419 69.9846 40.27C67.8788 40.9187 65.4971 41.197 63.3177 40.7991C61.9768 40.5542 60.6408 40.0326 59.6055 39.1247C59.1027 38.6841 58.3629 39.4198 58.8687 39.8629Z" fill="#726A69"/>
<path d="M27.4426 30.4704C27.5368 30.3056 27.615 30.166 27.6391 30.1172C27.5824 29.985 27.351 29.5551 27.2038 29.2927H30.9701C31.0235 28.7743 31.2388 28.2861 31.5853 27.8974C31.9318 27.5087 32.3919 27.2393 32.9 27.1277C33.375 27.0327 33.8677 27.09 34.3082 27.2915C34.7488 27.4929 35.1148 27.8283 35.3542 28.25C35.5953 28.7289 35.6451 29.2818 35.4936 29.7963C35.4211 30.0575 35.297 30.3015 35.1289 30.5139C34.9893 30.6878 34.8901 30.8318 34.8415 30.9022L34.7802 30.9921C35.0565 31.1719 35.2662 31.4377 35.377 31.7486C35.5687 32.2974 35.5412 32.8992 35.3004 33.4282C35.1724 33.7125 34.9733 33.959 34.7225 34.1438C34.4078 34.3516 34.0445 34.4736 33.6683 34.4978C33.0359 34.5764 32.3954 34.4407 31.8489 34.1125C31.5548 33.9224 31.3129 33.6616 31.1453 33.3538C31.0666 33.2083 31.0078 33.0529 30.9705 32.8917C30.9475 32.7934 30.969 32.5401 30.8985 32.4649C30.5989 32.4686 28.7447 32.4248 28.0396 32.4248C27.7192 31.9734 27.4233 31.4928 27.0938 31.0738C27.1864 30.9153 27.3267 30.6735 27.4426 30.4704Z" fill="#726A69"/>
<path d="M18.2485 36.5208C17.8792 36.5939 17.496 36.5175 17.1828 36.3084C16.6981 35.9885 16.3554 35.4934 16.2265 34.9265C16.1562 34.6226 16.1652 34.3058 16.2526 34.0064C16.3772 33.6501 16.5925 33.3324 16.8771 33.0849C17.3324 32.6381 17.9238 32.3568 18.5572 32.2857C18.906 32.2582 19.2562 32.3186 19.5758 32.4614C19.7265 32.5291 19.8675 32.6169 19.9948 32.7224C20.0725 32.7876 20.2088 33.0009 20.3104 33.0179C20.5466 32.8331 22.1018 31.6884 22.6624 31.26C22.9352 31.3868 23.374 31.5997 23.4971 31.6732C23.5173 31.793 23.5824 32.4371 23.6134 32.7687C24.1255 32.9155 24.6461 33.1223 25.1695 33.3006C24.6674 33.6844 22.8857 35.0363 22.1752 35.5793C22.4466 36.0238 22.5711 36.5428 22.531 37.0624C22.4909 37.5819 22.2883 38.0755 21.952 38.4731C21.632 38.8373 21.2056 39.0912 20.7333 39.1988C20.2611 39.3065 19.7669 39.2623 19.3211 39.0726C18.8395 38.8383 18.465 38.429 18.2739 37.928C18.1731 37.676 18.1238 37.4065 18.1289 37.1351C18.1347 36.9125 18.1267 36.7368 18.1221 36.6517L18.2485 36.5208Z" fill="#726A69"/>
<path d="M23.7761 28.1058C23.2451 27.543 22.7341 26.9605 22.2026 26.399C22.1457 26.3438 22.0771 26.3021 22.0019 26.277C21.9267 26.252 21.8468 26.2443 21.7682 26.2544C21.6896 26.2645 21.6142 26.2923 21.5478 26.3356C21.4814 26.3789 21.4255 26.4366 21.3844 26.5045C21.1756 26.8113 20.9937 27.1351 20.7898 27.4454L21.6082 27.3397C21.0785 26.737 20.5543 26.1292 20.0252 25.5257C19.977 25.4766 19.9195 25.4376 19.8561 25.4108C19.7928 25.3841 19.7247 25.3702 19.6559 25.3699C19.5872 25.3696 19.519 25.383 19.4554 25.4092C19.3918 25.4354 19.334 25.474 19.2854 25.5227C19.2368 25.5714 19.1983 25.6293 19.1721 25.693C19.1459 25.7567 19.1325 25.825 19.1328 25.8939C19.1331 25.9628 19.147 26.0309 19.1737 26.0944C19.2004 26.1579 19.2394 26.2155 19.2884 26.2638C19.8175 26.8672 20.3417 27.475 20.8714 28.0778C20.9283 28.1332 20.9969 28.1751 21.0721 28.2002C21.1474 28.2254 21.2273 28.2332 21.306 28.2231C21.3847 28.2129 21.46 28.1851 21.5265 28.1417C21.5929 28.0983 21.6487 28.0404 21.6897 27.9723C21.8924 27.6616 22.0752 27.338 22.284 27.0314L21.4658 27.1371C21.9981 27.6987 22.5079 28.2811 23.0393 28.8438C23.0875 28.893 23.145 28.932 23.2084 28.9588C23.2718 28.9855 23.3398 28.9994 23.4086 28.9997C23.4774 29 23.5455 28.9866 23.6091 28.9604C23.6727 28.9342 23.7305 28.8956 23.7791 28.8469C23.8278 28.7981 23.8663 28.7403 23.8925 28.6766C23.9187 28.6129 23.932 28.5446 23.9317 28.4757C23.9314 28.4068 23.9175 28.3387 23.8908 28.2752C23.8641 28.2117 23.8251 28.1541 23.7761 28.1058Z" fill="#726A69"/>
<path d="M25.9457 28.1224C25.9023 27.1306 25.9813 26.1366 25.9359 25.145C25.9346 25.0651 25.9153 24.9865 25.8793 24.9151C25.8433 24.8438 25.7916 24.7815 25.7281 24.7331C25.6646 24.6846 25.591 24.6512 25.5127 24.6354C25.4345 24.6196 25.3537 24.6218 25.2764 24.6418C24.9186 24.7384 24.5689 24.863 24.2127 24.9665L24.8722 25.4697C24.8611 24.6047 24.816 23.7403 24.8057 22.875C24.7977 22.204 23.7557 22.2022 23.7637 22.875C23.7739 23.7403 23.8191 24.6047 23.8301 25.4697C23.8312 25.5497 23.8504 25.6284 23.8864 25.6999C23.9223 25.7714 23.974 25.8337 24.0376 25.8822C24.1011 25.9307 24.1748 25.9641 24.2532 25.9798C24.3315 25.9956 24.4124 25.9933 24.4897 25.9731C24.8455 25.8696 25.1952 25.745 25.5534 25.6482L24.8939 25.145C24.9393 26.1366 24.86 27.1306 24.9037 28.1224C24.933 28.7915 25.9752 28.795 25.9457 28.1224Z" fill="#726A69"/>
<path d="M43.8383 40.3009L40.8182 36.6531L40.9523 37.1609C42.1261 33.7134 42.269 29.8088 41.1963 26.3155C40.3108 23.4045 38.5964 20.8158 36.2632 18.8668C33.783 16.8425 30.7532 15.6106 27.5661 15.3306C24.2734 15.0024 20.9578 15.666 18.0439 17.2366C15.3932 18.7075 13.2325 20.9261 11.8302 23.6169C10.3927 26.4319 9.78207 29.5976 10.0691 32.7464C10.3214 35.769 11.2974 38.7496 13.1186 41.1953C14.8762 43.5446 17.2836 45.3254 20.0422 46.3169C23.1479 47.4455 26.6307 47.5944 29.8527 46.9203C33.0644 46.2482 36.0635 44.5901 38.1922 42.0685C38.702 41.4652 39.1635 40.8226 39.5725 40.1467L38.984 40.3859L43.3314 41.1726C43.4645 41.2056 43.6052 41.1862 43.7244 41.1184C43.8437 41.0506 43.9325 40.9396 43.9725 40.8082C44.008 40.6748 43.9897 40.5327 43.9216 40.4126C43.8535 40.2925 43.741 40.2041 43.6084 40.1663L39.2612 39.3793C39.1504 39.3522 39.034 39.3607 38.9283 39.4037C38.8227 39.4466 38.7332 39.5218 38.6727 39.6185C37.0253 42.33 34.4779 44.3743 31.4768 45.3934C28.3186 46.4539 24.9212 46.574 21.6962 45.7394C18.9442 45.0363 16.4685 43.5164 14.5939 41.3792C12.6985 39.193 11.5614 36.3917 11.1928 33.5249C10.802 30.4849 11.1789 27.3516 12.5131 24.5754C13.7945 21.8947 15.8654 19.6718 18.4468 18.2062C21.2519 16.6256 24.5321 16.0595 27.7198 16.3894C30.7237 16.6737 33.5636 17.8918 35.8419 19.8732C38.1202 21.8546 39.7229 24.5001 40.4257 27.4392C40.8074 29.0381 40.9454 30.6856 40.8351 32.3258C40.7746 33.3763 40.619 34.419 40.3703 35.4413C40.2516 35.9262 40.0564 36.398 39.9474 36.8834C39.8682 37.2355 40.1519 37.4764 40.356 37.7228L40.9395 38.4275L43.1015 41.0389C43.1997 41.1359 43.332 41.1902 43.4699 41.1902C43.6078 41.1902 43.7401 41.1359 43.8383 41.0389C43.9333 40.9396 43.9863 40.8074 43.9863 40.6699C43.9863 40.5324 43.9333 40.4002 43.8383 40.3009Z" fill="#726A69"/>
<path d="M65.0597 60.3486C64.0975 57.5778 63.3164 54.7435 62.5848 51.9043C61.7679 48.7316 61.0233 45.5413 60.3512 42.3331C60.0434 40.8775 59.7507 39.4189 59.4731 37.9573C59.4004 37.5727 59.3747 37.171 59.0493 36.9068C58.9211 36.8072 58.7698 36.7417 58.6096 36.7162C58.4493 36.6908 58.2852 36.7063 58.1326 36.7613C57.6332 36.9112 56.9729 37.0271 56.7966 37.5983C56.6694 38.0097 56.7799 38.5375 56.8007 38.9628C56.8247 39.4557 56.8498 39.948 56.8758 40.4398C56.9276 41.4205 56.9842 42.4009 57.0456 43.381C57.1678 45.3126 57.3137 47.243 57.4987 49.1696C57.8527 53.0557 58.4203 56.9193 59.1987 60.7428C59.3 61.226 59.405 61.7082 59.5137 62.1895C59.6622 62.8443 60.6671 62.5672 60.5186 61.9121C59.7078 58.273 59.1059 54.5903 58.7159 50.8822C58.3136 47.1836 58.072 43.4697 57.8827 39.7546C57.8584 39.2792 57.8349 38.8038 57.8121 38.3283C57.8071 38.2226 57.8037 38.1165 57.7972 38.0108C57.7872 37.8519 57.8189 37.9328 57.7555 37.9654C57.6233 38.0328 57.7958 37.9621 57.8317 37.9508C58.0405 37.9085 58.2443 37.844 58.4395 37.7584C58.5563 37.6877 58.3232 37.7275 58.3703 37.6827C58.3349 37.7164 58.4389 38.0765 58.4478 38.1246C58.7091 39.5123 58.9856 40.8972 59.2771 42.2792C59.9221 45.3525 60.6284 48.4124 61.3958 51.4589C62.1016 54.2438 62.8553 57.022 63.7582 59.7504C63.855 60.0429 63.954 60.3348 64.0552 60.6261C64.0948 60.7577 64.1834 60.869 64.3028 60.9368C64.4221 61.0047 64.5629 61.0239 64.696 60.9905C64.8286 60.9526 64.9409 60.8641 65.0089 60.744C65.077 60.624 65.0953 60.482 65.0599 60.3486H65.0597Z" fill="#726A69"/>
<path d="M55.7127 65.7618C54.9503 65.4574 54.0954 65.7677 53.8584 66.5966C53.5965 67.5114 54.3075 68.1135 54.9768 68.5898C55.6544 69.0844 56.3568 69.5441 57.0813 69.9669C57.8041 70.4158 58.5911 70.7517 59.415 70.963C60.0689 71.1046 60.3485 70.0987 59.692 69.9564C59.0827 69.8085 58.4978 69.5735 57.9553 69.2586C57.3566 68.9344 56.7758 68.5782 56.2153 68.1914C55.9548 68.0113 55.6955 67.8284 55.4375 67.6425C55.2184 67.5071 55.0277 67.3303 54.8759 67.122C54.8471 67.0598 54.8372 66.9905 54.8473 66.9228C54.8573 66.855 54.887 66.7917 54.9325 66.7405C55.0641 66.6116 55.2718 66.7034 55.4357 66.769C55.569 66.8048 55.7109 66.7866 55.8308 66.7184C55.9508 66.6501 56.0391 66.5373 56.0766 66.4044C56.11 66.271 56.0908 66.1299 56.0231 66.0104C55.9553 65.8908 55.8442 65.802 55.7127 65.7624V65.7618Z" fill="#726A69"/>
<path d="M64.5256 62.7721C63.6864 62.5996 62.8451 62.4372 62.0089 62.2502C61.1603 62.0866 60.3266 61.8531 59.5163 61.552C59.5365 61.5602 59.594 61.5848 59.5009 61.545C59.4379 61.518 59.3756 61.49 59.3127 61.4632C59.1715 61.403 59.0304 61.3447 58.8854 61.2934C58.6691 61.2147 58.4456 61.1573 58.2181 61.1221C57.8488 61.0465 57.4649 61.0971 57.1279 61.266C56.2302 61.774 56.3333 63.0274 57.158 63.5525C58.0636 64.1404 59.0286 64.6307 60.0371 65.0153C60.1703 65.051 60.3121 65.0328 60.432 64.9646C60.5519 64.8964 60.6403 64.7837 60.6779 64.6509C60.7117 64.5175 60.6927 64.3762 60.6249 64.2566C60.5571 64.137 60.4457 64.0482 60.3141 64.0089C59.5542 63.7271 58.8248 63.3686 58.1373 62.9389C57.9378 62.8138 57.4765 62.6392 57.5204 62.3383C57.5328 62.2956 57.5523 62.2553 57.5781 62.2191C57.5175 62.3341 57.5759 62.2376 57.6057 62.1974C57.6437 62.1465 57.5238 62.2308 57.638 62.1756C57.7522 62.1204 57.5979 62.1615 57.706 62.1491C57.7427 62.1447 57.8618 62.1293 57.7611 62.1354C57.8291 62.1311 57.8974 62.1311 57.9654 62.1354C58.0205 62.1381 58.0752 62.1465 58.1287 62.1604C58.2372 62.1832 58.344 62.2128 58.4497 62.2461C58.8188 62.3624 59.1646 62.5392 59.5297 62.6671C60.2644 62.9098 61.0125 63.1093 61.7703 63.2646C62.5938 63.4484 63.4222 63.6082 64.2486 63.778C64.3817 63.8114 64.5225 63.7921 64.6419 63.7243C64.7612 63.6564 64.8498 63.5451 64.8895 63.4136C64.9248 63.2802 64.9065 63.1382 64.8385 63.0182C64.7704 62.8981 64.6581 62.8096 64.5256 62.7716V62.7721Z" fill="#726A69"/>
<path d="M57.2937 62.3282C56.7225 62.0788 56.1081 61.7968 55.4701 61.9133C55.1544 61.9886 54.8755 62.1735 54.6831 62.4353C54.4907 62.6971 54.3972 63.0187 54.4192 63.3431C54.478 64.0433 55.0325 64.5628 55.6004 64.9074C56.0762 65.196 56.5616 65.4711 57.0457 65.7453C57.6536 66.0895 58.2664 66.4268 58.9014 66.7177C59.0217 66.7835 59.1625 66.8008 59.295 66.766C59.4276 66.7312 59.5418 66.6469 59.6144 66.5305C59.6829 66.4107 59.7018 66.2687 59.6668 66.1351C59.6318 66.0015 59.5459 65.8871 59.4274 65.8164C58.282 65.2763 57.1708 64.6663 56.1001 63.9898C55.8649 63.8575 55.6643 63.6712 55.515 63.4462C55.4875 63.3882 55.481 63.3787 55.4953 63.4179C55.4821 63.3834 55.471 63.3482 55.4621 63.3124L55.4506 63.2587C55.4586 63.3065 55.4603 63.2981 55.4562 63.2328C55.4584 63.1676 55.4599 63.1582 55.4601 63.2022C55.484 63.1448 55.4873 63.1285 55.4695 63.153C55.482 63.1291 55.5873 62.9721 55.5457 63.0189C55.5681 62.9941 55.5921 62.9707 55.6175 62.9488C55.576 62.9816 55.58 62.9816 55.6295 62.9488C55.6837 62.9214 55.6849 62.9206 55.6329 62.9464C55.6627 62.937 55.693 62.9293 55.7237 62.9234C55.6151 62.9464 55.7508 62.9251 55.7782 62.9254C55.8122 62.9254 55.8461 62.9271 55.8802 62.9301C55.8287 62.9213 55.8354 62.9224 55.9004 62.9334C56.1994 63.0014 56.4904 63.1006 56.7687 63.2294C56.889 63.2949 57.0298 63.3119 57.1622 63.2772C57.2947 63.2424 57.4089 63.1583 57.4817 63.0421C57.5503 62.9224 57.5692 62.7803 57.5343 62.6467C57.4993 62.5131 57.4133 62.3986 57.2947 62.328L57.2937 62.3282Z" fill="#726A69"/>
<path d="M58.5553 67.4244C57.6676 66.938 56.7752 66.4579 55.9361 65.8888C55.7464 65.7598 55.5586 65.6278 55.3717 65.4948C55.315 65.4543 55.2586 65.4147 55.2 65.3773C55.1467 65.3408 55.1387 65.3357 55.1759 65.3621C55.1504 65.3401 55.1262 65.3167 55.1032 65.2921C55.0628 65.2454 55.0598 65.2434 55.0951 65.2858C55.0781 65.2606 55.0624 65.2346 55.0482 65.2077C55.0215 65.1534 55.0218 65.1549 55.0482 65.2121C55.0391 65.1853 55.0313 65.1581 55.025 65.1305C55.0137 65.0707 55.0137 65.0762 55.025 65.1473C55.0231 65.1205 55.0226 65.0936 55.0235 65.0668C55.0281 65.0068 55.0262 65.0141 55.0179 65.0886C55.0226 65.0633 55.0287 65.0382 55.0361 65.0135C55.0552 64.9587 55.0514 64.9651 55.0248 65.0327C55.0356 65.0103 55.0476 64.9885 55.0608 64.9674C55.0954 64.9057 55.0917 64.9272 55.152 64.8535C55.199 64.8122 55.2013 64.8077 55.1587 64.84C55.1838 64.8222 55.2099 64.8061 55.2371 64.7917C55.1286 64.857 55.3652 64.7785 55.226 64.7887C55.2559 64.7863 55.2858 64.7858 55.3157 64.7872C55.2538 64.7752 55.2543 64.7754 55.317 64.7872C55.3365 64.7926 55.5002 64.8494 55.439 64.8215C55.5592 64.8874 55.7001 64.9046 55.8326 64.8698C55.9652 64.835 56.0794 64.7508 56.1519 64.6343C56.2206 64.5146 56.2395 64.3726 56.2045 64.239C56.1696 64.1054 56.0835 63.991 55.965 63.9204C55.669 63.7648 55.3291 63.7141 55.0007 63.7765C54.7046 63.8575 54.4458 64.0391 54.2687 64.2903C54.0941 64.5106 53.9953 64.7815 53.9869 65.0626C53.9785 65.3437 54.0611 65.62 54.2222 65.8503C54.4148 66.0835 54.6456 66.282 54.9047 66.4374C55.0784 66.5601 55.251 66.6816 55.4258 66.8006C55.7475 67.018 56.0761 67.225 56.4116 67.4214C56.9441 67.7337 57.4868 68.0283 58.028 68.3249C58.1473 68.3948 58.2895 68.4143 58.4232 68.3792C58.5569 68.3441 58.6712 68.2572 58.7409 68.1377C58.8107 68.0182 58.8302 67.8758 58.7951 67.7419C58.7601 67.6079 58.6734 67.4934 58.554 67.4236L58.5553 67.4244Z" fill="#726A69"/>
<path d="M76.8686 36.6742C76.6421 36.6125 76.4029 36.6149 76.1776 36.681C75.9524 36.7472 75.7498 36.8745 75.5923 37.0489C75.4232 37.2781 75.2977 37.5365 75.222 37.8113C75.0765 38.2122 74.9397 38.6158 74.8075 39.0218C74.4374 40.1469 74.0864 41.2783 73.7319 42.4084C72.8058 45.3606 71.8699 48.3105 70.8283 51.2244C69.8199 54.0454 68.7442 56.8801 67.2993 59.5106C67.1473 59.7865 66.9953 60.0642 66.8262 60.3302C66.5696 60.7342 66.1839 61.0406 65.8561 61.3839C65.2138 62.0564 64.5668 62.7245 63.9153 63.3882C62.6496 64.6788 61.3623 65.9713 60.2864 67.4293C59.8599 67.9782 59.5153 68.5861 59.2633 69.2342C58.9915 69.9885 58.8367 71.0266 59.4736 71.6396C60.0954 72.1902 60.8285 72.5998 61.6228 72.8406C62.4797 73.1262 63.3681 73.3065 64.2685 73.3775C65.1803 73.4302 66.0951 73.3955 67.0003 73.2738C67.4204 73.2096 67.8463 73.193 68.2701 73.2244C68.6917 73.2783 69.2173 73.4738 69.671 73.5737C71.7489 74.0425 73.895 74.1257 76.0028 73.8192C76.7965 73.7002 77.6881 73.6058 78.3333 73.0853C78.7742 72.694 79.0927 72.1835 79.2505 71.6151C79.4537 70.9193 79.5723 70.2015 79.6039 69.4773C79.669 68.5883 79.6727 67.6957 79.6775 66.805C79.6923 63.9921 79.7861 61.1841 79.7669 58.3703C79.7452 55.1226 79.676 51.8754 79.6063 48.6284C79.5603 46.4841 79.505 44.34 79.4404 42.1962C79.4077 41.1433 79.3711 40.0906 79.3304 39.0381C79.3119 38.5676 79.2735 38.1231 78.995 37.7258C78.7517 37.3825 78.4013 37.13 77.999 37.0082C77.6251 36.8882 77.245 36.7855 76.8684 36.6744C76.2238 36.4842 75.9486 37.4912 76.5914 37.6808C76.9658 37.7915 77.3477 37.888 77.7174 38.0133C77.8379 38.0494 77.948 38.114 78.0385 38.2015C78.129 38.2891 78.1971 38.3971 78.2373 38.5165C78.2812 38.703 78.299 38.8947 78.2901 39.0862C78.3001 39.3415 78.3098 39.5967 78.3192 39.8518C78.3943 41.9023 78.4559 43.9531 78.5039 46.0042C78.5908 49.5582 78.6711 53.1138 78.7102 56.6687C78.7353 58.9548 78.8009 61.2569 78.6867 63.5402C78.5947 65.379 78.6826 67.2225 78.5875 69.0611C78.5698 69.7445 78.4799 70.4242 78.3192 71.0886C78.2302 71.5548 77.9957 71.9806 77.6495 72.3046C77.6047 72.3433 77.6588 72.2987 77.6655 72.2935C77.6414 72.3116 77.6162 72.3296 77.5908 72.3457C77.5387 72.3788 77.4862 72.4088 77.4321 72.4381C77.4117 72.4492 77.3905 72.4588 77.3694 72.4688C77.2958 72.5031 77.4408 72.4429 77.3631 72.4705C77.2653 72.5035 77.1658 72.5312 77.0651 72.5536C76.5922 72.666 76.114 72.7586 75.6323 72.8267C74.6731 72.9589 73.7036 72.9996 72.7367 72.9485C71.7107 72.8942 70.6917 72.7472 69.692 72.5094C69.2255 72.3688 68.7503 72.2591 68.2694 72.1811C67.8605 72.1558 67.45 72.1708 67.044 72.2259C66.1645 72.3442 65.2763 72.3837 64.3898 72.344C63.5547 72.2815 62.7306 72.1147 61.9367 71.8473C61.5782 71.7287 61.2314 71.5769 60.9008 71.3941C60.6188 71.2561 60.3633 71.0695 60.1457 70.8429C60.0155 70.6752 60.0732 70.2497 60.1275 69.9992C60.165 69.8254 60.2145 69.6544 60.2758 69.4875C60.3178 69.3726 60.3679 69.2608 60.4258 69.1531C61.1257 67.772 62.2663 66.6089 63.3215 65.4981C64.57 64.1839 65.8424 62.8887 67.1163 61.599C67.6112 61.053 68.024 60.4377 68.3417 59.7724C68.655 59.1872 68.9478 58.5914 69.2277 57.9893C69.8594 56.6304 70.4284 55.242 70.9657 53.8431C72.0729 50.9591 73.0437 48.0237 73.9802 45.0798C74.6877 42.8566 75.3424 40.6127 76.1114 38.4097C76.167 38.2505 76.2236 38.0916 76.2824 37.9333C76.3358 37.7895 76.3732 37.6288 76.5903 37.6804C77.2433 37.8376 77.5214 36.8314 76.8686 36.6742Z" fill="#726A69"/>
<path d="M63.7914 62.5568C63.5909 62.1464 63.4249 61.7199 63.2951 61.2819C63.2899 61.263 63.2615 61.1171 63.2715 61.2108L63.2691 61.1575C63.2727 61.085 63.2717 61.0859 63.2661 61.1601L63.2773 61.1203C63.2491 61.1808 63.2484 61.1849 63.2752 61.1327C63.3288 61.0499 63.2452 61.1762 63.2804 61.1227C63.2944 61.1074 63.3093 61.0929 63.3249 61.0792C63.2793 61.1112 63.2719 61.1166 63.3032 61.0951C63.3399 61.0733 63.3774 61.0516 63.4143 61.0299C63.4484 61.0133 63.4402 61.017 63.3896 61.0405C63.4102 61.0333 63.4308 61.027 63.4519 61.0216C63.4729 61.0162 63.4936 61.0107 63.5148 61.0068C63.4543 61.013 63.4436 61.0147 63.4827 61.0118C63.5261 61.0151 63.5715 61.0101 63.6154 61.0118C63.6802 61.017 63.6889 61.0178 63.6414 61.0142L63.6955 61.0259C63.7489 61.0422 63.804 61.0544 63.8561 61.0723C63.8542 61.0723 64.0109 61.1347 63.9406 61.1036C64.1491 61.2012 64.3521 61.3106 64.5484 61.4311C64.751 61.5501 64.9501 61.6748 65.1456 61.8053C65.3152 61.9385 65.4914 62.0629 65.6736 62.1782C65.7928 62.2469 65.9343 62.2655 66.0672 62.2301C66.2001 62.1947 66.3137 62.1081 66.3831 61.9891C66.4525 61.8702 66.4721 61.7286 66.4377 61.5952C66.4033 61.4618 66.3176 61.3475 66.1994 61.2771C66.0918 61.2088 65.9884 61.1341 65.8898 61.0533C65.7695 60.9691 65.6477 60.8871 65.5242 60.8072C65.2941 60.6584 65.0591 60.5175 64.8191 60.3842C64.3153 60.1046 63.7161 59.8406 63.1325 60.0276C62.8411 60.1057 62.5894 60.2901 62.4268 60.5447C62.2643 60.7992 62.2026 61.1055 62.254 61.4032C62.3131 61.6688 62.3971 61.9282 62.5049 62.178C62.6223 62.4849 62.7511 62.7871 62.8914 63.0846C62.9615 63.2036 63.0758 63.29 63.2093 63.3251C63.3427 63.3601 63.4846 63.341 63.6041 63.2718C63.7206 63.1994 63.805 63.085 63.8397 62.9521C63.8745 62.8192 63.8571 62.678 63.791 62.5577L63.7914 62.5568Z" fill="#726A69"/>
</g>
</svg>
