<svg width="100" height="80" viewBox="0 0 100 80" fill="none" xmlns="http://www.w3.org/2000/svg">
<mask id="mask0_1592_28711" style="mask-type:alpha" maskUnits="userSpaceOnUse" x="0" y="0" width="100" height="80">
<rect width="100" height="80" fill="#D9D9D9"/>
</mask>
<g mask="url(#mask0_1592_28711)">
<path d="M1.81409 62.4011C1.51403 62.7586 1.21373 63.12 0.901714 63.4923C0.605068 63.8464 0.326475 64.3933 0.594578 64.9173C0.882198 65.4793 1.5216 65.3588 1.9007 65.0547C1.92095 65.1496 1.93461 65.2115 1.93461 65.2115C2.1666 66.2703 3.41344 65.9274 3.82914 65.3707L4.00869 65.1299L4.10309 65.4306C4.53294 66.8019 6.02617 65.7087 6.61043 65.2514C7.2247 64.771 8.29882 64.2301 9.08923 64.4464C9.99185 64.6928 10.5595 65.4489 11.5226 65.5385C12.0301 65.5776 12.5389 65.4805 12.9961 65.2573C13.3903 65.0715 13.6975 64.7683 14.0966 64.6314C14.5487 64.496 15.0156 64.416 15.4871 64.3933H16.9433C16.7893 62.8791 16.6473 60.7893 16.572 59.2888L16.4802 59.2944C15.4717 59.356 14.1483 59.5691 13.1396 59.6307C12.3389 59.6794 11.6134 59.3504 10.8301 59.2167C10.2658 59.1318 9.69617 59.088 9.12558 59.0857C7.91802 59.0462 6.70938 59.1182 5.51509 59.3007C4.45951 59.4904 3.87646 60.0486 3.17949 60.8222C2.6994 61.3547 2.25687 61.8737 1.81409 62.4011Z" fill="white"/>
<path d="M62.4668 45.7507C61.7057 45.1371 60.5437 43.1081 60.1673 41.9439C59.1859 41.1023 58.728 41.8928 58.0679 41.9373C57.3245 41.6829 56.7156 41.4218 55.5574 40.9039C54.2488 40.3194 52.587 39.5682 51.416 38.8372C50.4646 37.7609 47.504 33.8661 46.7224 32.6111L46.4884 32.2344C46.1601 32.578 45.6693 32.9118 45.0996 33.4122C43.7975 34.4818 42.4339 35.4745 41.0156 36.385C41.2018 36.6977 41.322 36.901 41.322 36.901C42.0295 38.0996 45.9176 42.6177 47.0744 43.2652C46.8002 43.0918 46.5443 42.8909 46.3108 42.6657C46.7707 43.0263 47.0744 43.2652 47.0744 43.2652C48.3066 44.2332 56.1416 45.6465 57.3624 45.9682C58.4414 46.0836 58.7285 47.0426 59.3662 47.0837L59.7306 47.1081C60.5872 46.5314 61.4351 45.7534 62.4285 45.7595" fill="white"/>
<path d="M94.2723 75.7305C93.3126 75.7305 12.1454 75.7704 1.32031 75.7704L1.42863 63.1646C3.75812 63.1646 93.3126 63.1938 94.2723 63.1938V75.7305Z" fill="white"/>
<path d="M62.9966 36.7147C63.1149 36.5146 63.1987 36.2962 63.2445 36.0684C63.356 35.5069 63.2525 34.8085 64.0317 34.64C64.329 34.5879 64.6352 34.636 64.9021 34.7766C66.2766 35.4341 67.9559 34.2896 69.1676 33.4655C69.7855 32.9668 70.4563 32.5372 71.1681 32.1844C71.911 31.8067 72.6899 31.504 73.4932 31.2808L73.4361 31.3976C72.7959 32.709 73.1128 35.3683 73.7452 36.5703L73.9977 37.0505C73.3458 38.7778 73.1555 40.9411 73.319 43.2452C73.458 43.3032 73.5891 43.3784 73.7093 43.469C73.8673 43.5886 73.9998 43.7386 74.0989 43.91C74.198 44.0815 74.2618 44.271 74.2865 44.4674C74.3017 44.7507 74.2401 45.0329 74.1081 45.2842C73.9761 45.5355 73.7787 45.7467 73.5366 45.8954C72.7872 46.3938 71.8902 46.6229 70.9931 46.545L70.2003 48.1162C69.5521 49.3172 69.6277 51.1114 70.3393 52.8807C69.7174 53.2718 69.1287 53.7133 68.5792 54.2008C66.2878 52.2748 63.6756 50.7652 60.8613 49.7406C59.4077 49.199 57.9127 48.7752 56.3909 48.4732C55.8574 48.3672 55.3509 48.2603 54.8613 48.1469C56.3982 47.8861 57.4321 48.0439 58.7494 47.6211C59.9829 47.2257 61.0872 45.7135 62.4799 45.7604C61.6881 45.1334 60.4512 42.9459 60.1268 41.8061C59.9364 41.108 60.0247 40.3634 60.3729 39.7289C60.8484 38.7624 62.1567 37.5356 62.7737 37.0371C62.8557 36.9352 62.9303 36.8275 62.9966 36.7147Z" fill="white"/>
<path d="M84.9373 37.2649C85.929 39.548 86.1815 42.0085 85.2759 43.6656C85.2388 46.8836 82.8788 49.665 79.9504 51.2196C78.5414 52.1337 76.3346 52.7564 74.7787 52.5859C73.3625 52.431 72.446 52.0923 71.7232 52.2413C71.2279 52.3723 70.7592 52.5885 70.3383 52.8801C69.6269 51.1119 69.5513 49.317 70.1994 48.116L70.9923 46.5449C71.8895 46.6228 72.7865 46.3937 73.536 45.8952C73.7781 45.7465 73.9755 45.5354 74.1075 45.2841C74.2395 45.0327 74.3011 44.7506 74.2859 44.4672C74.2612 44.2708 74.1974 44.0813 74.0983 43.9099C73.9991 43.7384 73.8667 43.5885 73.7087 43.4688C73.5885 43.3782 73.4574 43.303 73.3184 43.245C73.1549 40.9409 73.3452 38.7776 73.997 37.0503L73.7446 36.5701C73.1122 35.3682 72.7953 32.7088 73.4355 31.3975L73.4926 31.2806C75.8769 30.6333 77.8517 31.011 79.8253 31.7861C82.026 32.6506 83.8925 34.8595 84.9373 37.2649Z" fill="white"/>
<path d="M37.0221 8.31543L36.896 8.43719C36.7223 8.74932 36.5137 9.04079 36.2742 9.30604C36.0207 9.57974 35.3269 10.2852 35.0444 10.5277C34.135 11.2702 33.1128 11.8632 32.0162 12.2842C31.8565 12.1932 31.6764 12.1437 31.4925 12.1403C31.3367 12.1367 31.1821 12.168 31.04 12.232C30.898 12.2959 30.7721 12.3908 30.6716 12.5097C30.515 12.7219 30.3943 12.9582 30.3142 13.2093C30.1061 13.8487 30.1175 14.5391 30.3466 15.1713C30.5027 15.6528 30.7402 16.1042 31.049 16.5057C31.302 16.7888 31.5853 17.0434 31.8938 17.265L32.3458 17.5399L32.3968 17.668C32.4436 17.7851 32.4971 17.9074 32.5539 18.0318C32.2709 18.4248 31.9531 18.7915 31.6042 19.1276C31.4842 21.3238 33.5678 25.6108 36.3037 25.8113L36.4657 25.8558C37.7703 25.0094 38.2109 24.9081 38.8976 23.8853C38.8976 23.8853 38.9298 23.7682 38.9681 23.56C41.424 24.1571 44.1248 23.3255 45.9305 21.5203C48.0683 19.383 48.9404 15.8438 49.0287 13.3383C45.8415 12.8995 39.7181 10.2601 37.0221 8.31543Z" fill="white"/>
<path d="M19.2554 30.8128C18.3528 33.4359 17.7144 36.2025 17.0237 38.8672C16.3096 41.5268 15.8175 44.241 15.5527 46.9817C15.4901 47.7792 15.4717 48.5794 15.4978 49.3789C19.1344 49.4203 23.1123 49.6151 26.988 49.3545C28.4809 49.4544 29.6763 49.0672 30.9619 49.0672L34.2365 42.6957C35.186 39.8249 37.1576 38.8185 38.2749 36.8677C38.546 36.3747 38.7481 35.8469 38.8755 35.299C38.9401 35.4244 38.9758 35.4924 38.9758 35.4924C39.1787 35.9009 39.4105 36.2945 39.6693 36.6702C39.729 36.7513 39.814 36.8103 39.9109 36.838C40.0078 36.8656 40.1112 36.8603 40.2048 36.8229C41.2138 36.4206 44.3578 34.0634 45.0994 33.4138C46.5219 32.1648 47.4524 31.9527 46.5953 30.0345C46.0196 28.7464 45.5166 27.4015 44.7516 26.228C44.188 25.3633 43.5186 24.6125 43.1332 23.5355L38.8984 23.8866C38.2117 24.9094 37.7711 25.0107 36.4667 25.8571L36.3045 25.8125C33.5234 25.609 31.4157 21.1814 31.6128 19.0225C30.0693 19.9761 28.3765 20.589 27.1343 21.5932C26.0246 22.4901 24.8219 23.4407 23.7573 24.3817C21.9669 25.9645 20.188 28.1778 19.3679 30.4938C19.3298 30.5993 19.2923 30.7057 19.2554 30.8128Z" fill="white"/>
<path d="M94.3662 81.1333C94.3662 76.5251 94.313 52.5373 94.3105 47.2976C94.3105 47.2482 94.3203 47.1993 94.3393 47.1536C94.3583 47.108 94.3862 47.0665 94.4213 47.0317C94.4563 46.9968 94.498 46.9692 94.5438 46.9504C94.5896 46.9317 94.6387 46.9221 94.6882 46.9224H99.0793C99.1288 46.9222 99.1778 46.9317 99.2235 46.9505C99.2693 46.9692 99.3109 46.9968 99.346 47.0316C99.3811 47.0664 99.4089 47.1078 99.428 47.1533C99.447 47.1989 99.4569 47.2478 99.457 47.2971C99.4631 52.4632 99.5145 76.8351 99.5145 81.1667L94.3662 81.1333Z" fill="white"/>
<path d="M26.5543 39.847C28.0755 39.1392 29.5793 38.3373 30.921 37.626C30.9508 37.6666 30.9676 37.6881 30.9676 37.6881C31.5123 38.3804 32.4313 39.9656 33.0483 40.919C33.5876 41.7506 35.2748 44.5841 36.3548 46.1301C36.8498 46.1903 43.7685 49.73 46.7525 50.161C47.7361 49.6783 49.7648 49.3123 50.8509 49.251C51.5691 49.2103 52.147 49.6335 52.206 49.9545C52.3173 50.5579 51.4876 50.8849 50.2344 51.1382C51.5986 51.4691 53.9588 52.1069 55.4867 52.5106C55.968 52.638 56.6291 53.0193 56.4745 53.6727C56.4441 53.8354 56.3607 53.9835 56.2371 54.0939C56.1135 54.2043 55.9568 54.2708 55.7914 54.2829L55.9378 54.4185C56.1654 54.6294 56.1712 55.0565 56.0473 55.4006C55.9731 55.5784 55.8492 55.731 55.6904 55.8404C55.5316 55.9498 55.3446 56.0112 55.1518 56.0174C55.2257 56.1351 55.2667 56.2703 55.2707 56.4091C55.2747 56.5479 55.2415 56.6852 55.1745 56.8069C55.0606 57.0365 54.8749 57.2229 54.6454 57.3376C54.4159 57.4524 54.1551 57.4893 53.9027 57.4427C53.6817 57.4047 53.3843 57.3494 53.0489 57.2837C53.0792 57.403 53.1001 57.4853 53.1001 57.4853C53.1955 57.8362 52.6764 58.362 52.169 58.4143C50.9307 58.5441 49.1496 57.9205 48.3294 57.6037C47.4102 57.2486 46.5422 56.5079 45.8562 55.8694C45.3309 55.3851 44.7693 54.9416 44.1761 54.543L44.1105 54.5089C43.3299 54.1051 41.6671 53.6495 40.7815 53.3541C38.8399 52.7067 34.0943 51.2648 33.0483 50.534C31.1479 48.8709 30.3462 48.2923 28.7327 46.303C28.1514 45.5861 25.0391 41.7647 24.4943 40.88L24.4199 40.7595C25.1257 40.4894 25.8419 40.1787 26.5543 39.847Z" fill="white"/>
<path d="M89.0898 56.3076C88.6439 55.0233 87.6888 53.9638 85.7477 53.8033C83.3813 53.6085 75.7173 54.3169 74.47 54.6702C72.0378 55.3591 71.3938 58.5372 71.6807 60.8374C71.7492 61.4186 72.027 61.955 72.4623 62.347C72.8977 62.7389 73.4608 62.9596 74.047 62.9679C76.1779 62.9891 79.5588 62.9238 82.7024 62.9238C84.3193 62.9238 87.7034 62.718 88.4463 62.3447C89.9178 61.605 90.011 58.9609 89.0898 56.3076Z" fill="white"/>
<path d="M60.859 49.7406C59.4054 49.199 57.9104 48.7752 56.3886 48.4732C55.0098 48.2159 53.649 47.8704 52.3146 47.4387C50.3991 46.9337 48.3082 46.2803 46.297 46.519C44.1427 46.6325 42.0126 47.0282 39.9616 47.6959L39.9272 47.7012C42.2355 48.7286 45.099 49.9228 46.7527 50.1607C47.7363 49.6781 49.765 49.3121 50.8511 49.2507C51.5693 49.21 52.1472 49.6333 52.2063 49.9542C52.3175 50.5576 51.4878 50.8847 50.2346 51.1379C51.5988 51.4688 53.9591 52.1066 55.4869 52.5103C55.9682 52.6377 56.6294 53.019 56.4747 53.6724C56.4444 53.8351 56.3609 53.9833 56.2373 54.0937C56.1137 54.2041 55.957 54.2705 55.7916 54.2826L55.938 54.4183C56.1656 54.6289 56.1715 55.0563 56.0475 55.4003C55.9733 55.5781 55.8494 55.7308 55.6906 55.8401C55.5318 55.9495 55.3448 56.011 55.152 56.0172C55.2259 56.1348 55.267 56.27 55.2709 56.4088C55.2749 56.5476 55.2417 56.6849 55.1747 56.8066C55.0609 57.0363 54.8751 57.2226 54.6456 57.3374C54.4161 57.4521 54.1554 57.489 53.9029 57.4424C53.6819 57.4044 53.3845 57.3492 53.0491 57.2834C53.0794 57.4027 53.1003 57.485 53.1003 57.485C53.1957 57.8359 52.6766 58.3617 52.1692 58.414C50.9311 58.5438 49.1498 57.9202 48.3296 57.6034C47.4104 57.2483 46.5424 56.5076 45.8564 55.8691C45.3311 55.3848 44.7695 54.9414 44.1763 54.5427L44.1107 54.5086C43.3301 54.1049 41.6673 53.6492 40.7817 53.3539C38.8401 52.7064 34.0945 51.2645 33.0485 50.5338C32.3493 49.9218 31.7992 49.4569 31.3023 49.0142L30.9607 49.0661C29.6751 49.0661 28.4797 49.4533 26.9868 49.3535C21.449 49.726 15.7015 49.1684 11.0396 49.4582C10.6005 51.0337 10.6493 57.6402 10.8688 59.1256L10.8825 59.2252C11.6461 59.3632 12.3572 59.6771 13.14 59.6292C14.1488 59.5676 15.4722 59.3545 16.4807 59.2929C16.4807 59.2929 16.5127 59.2909 16.5727 59.2863C16.6966 61.7579 17.0011 65.8256 17.2428 66.2968L17.2755 66.3608L17.4575 66.3766C20.2629 66.6201 39.5503 66.1054 42.7478 65.7062C47.9254 65.0602 61.7082 64.6224 65.3955 62.1023C67.2849 60.8104 67.2052 58.6658 67.7733 56.7336C68.1536 55.9836 68.8182 54.8729 68.9611 54.5368C66.5838 52.4476 63.8358 50.8209 60.859 49.7406Z" fill="#65B005"/>
<path d="M45.7663 2.61541C44.1161 1.29991 42.08 0.559621 39.9688 0.507578C38.7881 0.451267 37.6066 0.602347 36.4783 0.953935C35.9652 1.11854 35.4667 1.32551 34.988 1.5727C34.3832 1.88113 33.8072 2.24271 33.2667 2.65316C33.0588 2.82508 32.7524 3.10926 32.5504 3.30382C31.5281 4.28472 30.7438 5.48574 30.2573 6.81526C30.2483 6.83961 30.2417 6.86396 30.2329 6.88831H30.2292C29.7479 6.79556 29.2498 6.84638 28.7972 7.03442C27.6263 7.54847 26.7146 9.05825 26.4934 10.5578C26.3553 11.5133 26.4382 12.5302 26.3277 13.4919C26.2172 14.4535 25.6417 15.4782 24.6871 15.6387C24.0087 16.406 29.6589 18.7257 31.1965 16.8248C31.1965 16.8248 31.2197 16.7905 31.2599 16.724C31.1806 16.6453 31.1077 16.5696 31.0499 16.5048C30.7412 16.1033 30.5036 15.652 30.3475 15.1704C30.2397 14.8555 30.1791 14.5265 30.1675 14.1939C30.1675 14.1613 30.1697 14.1282 30.1707 14.0953C30.1707 14.0534 30.1707 14.012 30.1751 13.9694C30.1795 13.9268 30.1843 13.8873 30.1895 13.8476C30.1939 13.8109 30.1965 13.7746 30.2026 13.7373C30.2102 13.6886 30.2214 13.6346 30.2314 13.5822C30.2378 13.5501 30.2424 13.5199 30.2495 13.4863C30.2683 13.3988 30.2902 13.3073 30.3151 13.2096C30.331 13.1516 30.3508 13.0946 30.3744 13.0392C30.4298 12.9079 30.4951 12.7809 30.5695 12.6593C30.6011 12.6072 30.6357 12.5569 30.6732 12.5088C30.7737 12.3899 30.8996 12.295 31.0417 12.2311C31.1837 12.1672 31.3383 12.1358 31.4941 12.1394C31.678 12.1428 31.8581 12.1923 32.0179 12.2833C32.0347 12.278 32.0547 12.2694 32.072 12.2636C32.1362 12.2419 32.2033 12.2176 32.2726 12.1905C32.2953 12.1818 32.3172 12.1735 32.3401 12.164C32.4314 12.127 32.5263 12.0856 32.6236 12.0408C32.629 12.0381 32.6341 12.0364 32.6395 12.0337C33.4995 11.6303 34.3076 11.1246 35.0461 10.5276C35.3286 10.2841 36.0219 9.57961 36.2758 9.3059C36.5153 9.04066 36.7239 8.74918 36.8977 8.43705L36.9796 8.28388L37.0238 8.31554C39.766 10.2938 46.0546 12.991 49.1923 13.3584C49.3819 12.41 49.4946 11.4478 49.5292 10.4813C49.5488 8.96989 49.2195 7.47424 48.567 6.11021C47.9145 4.74619 46.9561 3.55039 45.7663 2.61541Z" fill="#65B005"/>
<path d="M31.5991 19.3418C31.6186 21.5923 33.6561 25.6171 36.3049 25.8112L36.5577 25.8806L36.4386 26.0267C35.6463 26.5587 34.1211 27.7025 33.1982 27.9385C32.4468 27.9 31.5096 26.7402 30.9921 25.7174C30.2603 24.2702 29.1213 19.3588 31.5991 19.3423" fill="#65B005"/>
<path d="M38.8992 23.8853C38.333 24.7285 37.9342 24.9453 37.0801 25.4698C37.456 25.9548 37.9284 26.357 38.4677 26.6508C39.2312 26.9956 39.0395 27.0891 39.6143 26.4996C40.2241 25.8745 40.5476 24.1689 39.6306 23.9393L38.8992 23.8853Z" fill="#65B005"/>
<path d="M57.4625 52.129C61.0335 53.4004 64.3093 55.4198 67.4097 57.5698C67.9266 57.9282 68.415 57.0842 67.9022 56.7287C64.7281 54.5278 61.3767 52.4916 57.7218 51.1898C57.1293 50.9789 56.8741 51.9203 57.4625 52.129Z" fill="#4A3E42"/>
<path d="M40.0909 48.1654C41.6493 47.6313 43.2649 47.281 44.9048 47.1217C45.9625 46.9711 47.0329 46.931 48.0989 47.0021C49.1717 47.1355 50.2316 47.3567 51.2681 47.6635C52.2327 47.9216 53.1807 48.2348 54.1496 48.4773C55.1686 48.7323 56.203 48.9127 57.2251 49.1523C59.2473 49.6214 61.211 50.3134 63.08 51.2156C65.0867 52.1767 66.9503 53.4107 68.6177 54.8824L68.5413 54.2921C68.312 54.8118 67.9981 55.2993 67.7239 55.7958C67.5462 56.0771 67.3977 56.3757 67.2806 56.6871C67.1896 56.9856 67.1247 57.2934 67.0591 57.598C66.8073 58.7684 66.6444 60.0819 65.854 61.0362C65.3067 61.6306 64.619 62.0786 63.8536 62.3392C63.0236 62.646 62.1728 62.8937 61.3077 63.0802C56.886 64.0881 52.3015 64.382 47.7927 64.7536C44.8958 64.9923 42.0125 65.3281 39.108 65.4703C35.1643 65.6636 31.216 65.7764 27.2688 65.8628C25.3796 65.9042 23.4902 65.9373 21.6006 65.9503C20.3591 65.9585 19.1123 65.9746 17.873 65.9174C17.6739 65.9084 17.4759 65.893 17.2773 65.876L17.6986 66.1171C17.6095 65.9434 17.7135 66.2327 17.6703 66.044C17.6508 65.9595 17.6298 65.8757 17.6137 65.7905C17.5949 65.6931 17.5793 65.5935 17.5649 65.4946C17.5564 65.4375 17.5483 65.38 17.5405 65.3222C17.5293 65.2409 17.5564 65.444 17.5385 65.3076C17.5332 65.264 17.5276 65.2207 17.522 65.1771C17.4341 64.4709 17.3712 63.762 17.3129 63.0534C17.1895 61.5534 17.0894 60.05 17.0299 58.546C17.0194 58.2816 17.0094 58.0171 17.0075 57.7524C17.0075 57.673 17.0101 57.5934 17.0097 57.514C17.0097 57.3499 16.9928 57.5934 16.9582 57.6414L16.5369 57.8825C19.1113 57.6032 21.7116 57.4948 24.2946 57.3153C27.2464 57.1103 30.2109 56.9466 33.1544 56.6306C34.0387 56.5356 34.9143 56.3749 35.7959 56.2585C37.4448 56.0408 39.0998 55.8723 40.7518 55.6818C40.88 55.6781 41.0019 55.6256 41.0926 55.5351C41.1833 55.4445 41.236 55.3228 41.2397 55.1948C41.2389 55.0659 41.1872 54.9425 41.0959 54.8514C41.0046 54.7602 40.8809 54.7086 40.7518 54.7078C39.2952 54.8756 37.8366 55.0268 36.3816 55.2092C35.6552 55.3003 34.9294 55.3982 34.2056 55.5087C34.0029 55.5396 33.7999 55.5708 33.5977 55.6042C33.5577 55.6107 33.432 55.6254 33.6062 55.6042C33.5645 55.6095 33.5225 55.6151 33.4806 55.6202C32.3733 55.7559 31.2574 55.8331 30.1455 55.9193C26.8468 56.1754 23.5449 56.3914 20.2445 56.6233C19.1267 56.7017 18.0082 56.7752 16.8921 56.8748C16.6642 56.8953 16.3603 56.8843 16.1924 57.0518C16.0746 57.1933 16.0173 57.3753 16.0329 57.5586C16.019 57.9952 16.0487 58.4352 16.0685 58.8721C16.1358 60.3692 16.2341 61.8648 16.3632 63.3588C16.4195 64.0163 16.4805 64.6738 16.5662 65.3293C16.5826 65.7462 16.6701 66.1573 16.825 66.5449C17.038 66.9489 17.7186 66.8875 18.137 66.9016C18.5902 66.9167 19.044 66.9223 19.4975 66.926C20.8197 66.9357 22.1422 66.9228 23.4641 66.9053C26.872 66.8597 30.2792 66.7785 33.6857 66.6618C36.3999 66.5717 39.121 66.4928 41.8291 66.2839C42.8649 66.204 43.8956 66.0647 44.9304 65.9714C46.6798 65.8131 48.4314 65.6792 50.1815 65.5285C53.9747 65.2007 57.8172 64.871 61.5363 64.028C62.8582 63.7282 64.2541 63.3705 65.4261 62.6643C66.2999 62.1302 66.9744 61.3251 67.3465 60.3721C67.7473 59.3942 67.8739 58.3361 68.1256 57.3168C68.3528 56.3973 69.0061 55.6441 69.3859 54.7843C69.4376 54.6906 69.4581 54.5829 69.4443 54.4768C69.4306 54.3707 69.3834 54.2717 69.3095 54.1942C66.2087 51.4272 62.3945 49.5149 58.3895 48.4401C57.3161 48.1522 56.2252 47.9591 55.1432 47.7129C54.1587 47.4889 53.2068 47.1731 52.2331 46.9135C51.1705 46.63 50.1108 46.3291 49.0227 46.1506C47.9271 45.9885 46.8157 45.962 45.7135 46.0717C43.7111 46.1951 41.7341 46.5838 39.8343 47.2274C39.2488 47.4395 39.5013 48.3811 40.0936 48.1666L40.0909 48.1654Z" fill="#4A3E42"/>
<path d="M11.3389 58.9975C11.3296 58.933 11.3501 59.1115 11.337 58.9771C11.3323 58.9306 11.3265 58.8843 11.3218 58.8378C11.3111 58.7289 11.3021 58.6201 11.294 58.5112C11.2745 58.2475 11.2604 57.9835 11.2484 57.7193C11.2177 57.0304 11.203 56.3408 11.1962 55.6512C11.1818 54.1604 11.1962 52.6645 11.3009 51.1769C11.324 50.8482 11.3523 50.5194 11.3938 50.1931C11.3967 50.1604 11.4014 50.1279 11.4077 50.0957C11.4177 50.0341 11.4272 49.9725 11.4384 49.9111C11.458 49.8028 11.4809 49.6951 11.5097 49.5887L11.0393 49.9462C16.2723 49.6279 21.5183 50.1848 26.754 49.8566C27.1331 49.8322 27.5132 49.8658 27.8935 49.8478C28.2467 49.8313 28.5983 49.7928 28.9488 49.7485C29.6149 49.6439 30.2866 49.5789 30.9604 49.5537C31.5881 49.5488 31.5896 48.5747 30.9604 48.5796C29.7248 48.5891 28.516 48.9142 27.2768 48.8803C26.5986 48.8618 25.9165 48.9315 25.2378 48.9556C24.5592 48.9797 23.8746 48.9926 23.193 48.9977C20.5205 49.0177 17.8505 48.9118 15.1775 48.8884C13.7975 48.8764 12.4167 48.8884 11.0388 48.9717C10.9326 48.974 10.8299 49.0099 10.7454 49.0741C10.6608 49.1383 10.5988 49.2276 10.5683 49.3291C10.4496 49.829 10.3762 50.3386 10.3487 50.8516C10.2885 51.5655 10.2592 52.2824 10.2399 52.9986C10.1992 54.5133 10.2023 56.0313 10.2643 57.5452C10.2793 58.1175 10.3236 58.6886 10.397 59.2564C10.432 59.3806 10.5147 59.4861 10.627 59.5499C10.7394 59.6137 10.8725 59.6308 10.9974 59.5973C11.1205 59.5604 11.2247 59.4775 11.2883 59.366C11.3518 59.2545 11.37 59.1228 11.3389 58.9983V58.9975Z" fill="#4A3E42"/>
<path d="M63.119 63.6515C64.418 63.6515 65.7169 63.6525 67.0159 63.6545L74.4133 63.6613L82.9662 63.6698L90.3075 63.6771C91.5889 63.6783 92.8733 63.7041 94.1546 63.6805C94.1931 63.6805 94.2314 63.6805 94.27 63.6805C94.8977 63.6805 94.8989 62.7065 94.27 62.7065C93.1863 62.7065 92.1027 62.7055 91.0191 62.7035L83.954 62.6965L75.4198 62.688L67.7841 62.6809C66.2993 62.6794 64.8144 62.6782 63.3295 62.6772H63.1178C62.4899 62.6772 62.4889 63.6513 63.1178 63.6513L63.119 63.6515Z" fill="#4A3E42"/>
<path d="M1.31897 76.2574C3.00143 76.2574 4.68388 76.2574 6.36634 76.2574L14.6007 76.2545L25.1789 76.2503L37.2099 76.245L49.9476 76.2394L62.5048 76.2335L73.9969 76.2282L83.6745 76.2235L90.6464 76.2201L94.0705 76.2187H94.2715C94.8992 76.2187 94.9004 75.2446 94.2715 75.2446C93.4583 75.2446 92.6452 75.2446 91.832 75.2446L85.6419 75.2475L76.5425 75.2519L65.4232 75.257L53.0363 75.2629L40.2649 75.2687L27.9978 75.2741L16.9785 75.2785L8.09864 75.2819C6.1332 75.2819 4.16768 75.2824 2.20208 75.2833H1.31897C0.691039 75.2833 0.690063 76.2574 1.31897 76.2574Z" fill="#4A3E42"/>
<path d="M94.8543 81.133C94.8543 79.3685 94.8522 77.604 94.848 75.8395C94.8432 73.0391 94.8383 70.2388 94.8331 67.4384C94.8272 64.3638 94.8214 61.2891 94.8158 58.2142C94.8109 55.6271 94.8064 53.0399 94.8023 50.4525C94.8009 49.5773 94.7997 48.7019 94.7989 47.8264C94.8181 47.6686 94.8181 47.5091 94.7989 47.3513C94.7655 47.2357 94.7467 47.4397 94.7013 47.4093C94.7216 47.4232 94.8001 47.4093 94.8233 47.4093H98.7753C98.8748 47.4189 98.975 47.4189 99.0744 47.4093C99.0481 47.4651 98.9524 47.309 98.9685 47.297C98.9649 47.3322 98.9649 47.3676 98.9685 47.4027C98.9639 47.4775 98.9685 47.5542 98.9685 47.6292V48.1406C98.9685 48.5539 98.9692 48.967 98.9705 49.38C98.9744 51.7695 98.9787 54.1592 98.9834 56.549L99.0003 65.5982C99.0056 68.4916 99.0108 71.3851 99.0159 74.2786C99.0193 76.2998 99.0221 78.3209 99.0244 80.3421C99.0244 80.6169 99.0244 80.8918 99.0244 81.1668C99.0244 81.7936 100 81.7946 100 81.1668C100 79.4248 99.9981 77.6827 99.9939 75.9406C99.9895 73.1173 99.9845 70.2942 99.979 67.4713C99.9733 64.373 99.9675 61.2748 99.9617 58.1767C99.9568 55.5712 99.952 52.9657 99.9473 50.3599C99.9458 49.495 99.9445 48.6299 99.9434 47.7646C99.9434 47.6136 99.9505 47.4604 99.9434 47.3095C99.9404 47.0795 99.848 46.8597 99.6856 46.6965C99.5233 46.5333 99.3038 46.4394 99.0734 46.4348C98.7385 46.4167 98.3977 46.4348 98.0625 46.4348C96.972 46.4348 95.8808 46.4226 94.7904 46.4348C94.5398 46.419 94.2929 46.5012 94.1019 46.6639C93.9945 46.7798 93.9136 46.9177 93.865 47.0681C93.8164 47.2184 93.8013 47.3775 93.8207 47.5342C93.8207 47.9039 93.8207 48.2734 93.8207 48.6427C93.8234 50.9655 93.8271 53.2883 93.8317 55.6113C93.8372 58.6795 93.8429 61.7484 93.8487 64.8179C93.8546 67.8148 93.8601 70.8117 93.8653 73.8086C93.8689 75.9515 93.872 78.0944 93.8746 80.2373C93.8746 80.5357 93.8746 80.834 93.8746 81.132C93.8746 81.7586 94.8504 81.7598 94.8504 81.132L94.8543 81.133Z" fill="#4A3E42"/>
<path d="M46.4813 49.6208C44.8956 49.2869 43.3667 48.6482 41.8796 48.0221C40.4539 47.4219 39.0515 46.7695 37.6405 46.1354C37.284 45.9752 36.8759 45.7195 36.4849 45.661L36.7776 45.8848C35.3 43.7621 33.9826 41.5157 32.6238 39.3156C32.2229 38.6353 31.7857 37.9769 31.3143 37.3432C31.2224 37.2525 31.0984 37.2017 30.9692 37.2017C30.84 37.2017 30.716 37.2525 30.6242 37.3432C30.5357 37.4361 30.4863 37.5593 30.4863 37.6875C30.4863 37.8157 30.5357 37.9389 30.6242 38.0318C31.1022 38.6919 31.5454 39.3766 31.9517 40.0829C32.3067 40.6583 32.6731 41.2274 33.029 41.8014C33.8829 43.1811 34.7206 44.5733 35.6247 45.9216C35.8054 46.1909 35.9557 46.4999 36.2743 46.6103C36.3756 46.6453 36.4751 46.6833 36.5744 46.7225C36.6351 46.7469 36.4866 46.684 36.6093 46.7374C36.649 46.7547 36.689 46.7717 36.7288 46.7892C36.8264 46.8316 36.924 46.8747 37.0198 46.9178C37.2574 47.024 37.4946 47.1311 37.7312 47.2392C39.0437 47.8361 40.3569 48.431 41.6869 48.9881C43.154 49.6028 44.6604 50.2301 46.2229 50.5593C46.8355 50.6883 47.0972 49.7496 46.4822 49.6201L46.4813 49.6208Z" fill="#4A3E42"/>
<path d="M44.376 54.1615C43.4846 53.7452 42.5631 53.3966 41.6193 53.1186C40.9037 52.8824 40.1871 52.6481 39.4696 52.4158C37.7971 51.8757 36.1116 51.35 34.4805 50.693C34.2093 50.5836 33.9329 50.466 33.6606 50.3262C33.3627 50.155 33.0873 49.9475 32.8404 49.7087C32.1086 49.0756 31.3653 48.4488 30.6805 47.7621C29.6409 46.6641 28.6607 45.5114 27.7443 44.3091C27.1664 43.59 26.5909 42.8689 26.0247 42.1418C25.6297 41.6592 25.26 41.1566 24.9169 40.6359C24.5861 40.1046 23.7415 40.5931 24.0743 41.1276C24.367 41.5973 24.7193 42.0339 25.0567 42.4715C25.5699 43.1371 26.0899 43.7975 26.6165 44.4525C27.5486 45.6187 28.4642 46.8175 29.4768 47.9157C30.1213 48.5994 30.8036 49.2464 31.5207 49.8538C32.1466 50.3966 32.7202 50.9713 33.4798 51.3181C35.0599 52.0393 36.741 52.5546 38.3904 53.0908C39.2086 53.3567 40.0275 53.6195 40.8445 53.8893C41.8613 54.2249 42.9259 54.5173 43.8834 55.0036C44.4418 55.2873 44.9363 54.4472 44.376 54.1625V54.1615Z" fill="#4A3E42"/>
<path d="M15.4883 63.9062C15.0174 63.9334 14.5501 64.0057 14.0931 64.1222C13.6211 64.2632 13.269 64.5681 12.8411 64.7919C12.4229 65.0175 11.9439 65.1056 11.4726 65.0437C11.0807 64.9488 10.7114 64.7779 10.3858 64.5406C10.0278 64.2956 9.63506 64.1055 9.22066 63.9766C8.77588 63.8751 8.3117 63.8977 7.87892 64.0419C7.10657 64.2761 6.5184 64.7537 5.92169 65.1569C5.65315 65.3608 5.34727 65.5104 5.02127 65.5972C4.93482 65.6197 4.84365 65.6165 4.75902 65.5879C4.67055 65.5126 4.60645 65.4128 4.57484 65.3011C4.37382 64.7111 3.43095 64.9643 3.63391 65.5602C3.90958 66.3684 4.60021 66.7585 5.42989 66.4965C6.09807 66.2854 6.59061 65.8285 7.16317 65.4545C7.55 65.1836 7.98906 64.996 8.45245 64.9037C8.85835 64.8619 9.26568 64.9683 9.59903 65.2032C9.97923 65.4524 10.3783 65.6717 10.7927 65.859C11.2748 66.0375 11.7966 66.0811 12.3018 65.9851C12.8818 65.8567 13.4299 65.6126 13.9131 65.2675C14.3873 64.9731 14.9428 64.9329 15.4866 64.8803C15.6149 64.8769 15.737 64.8245 15.8278 64.7339C15.9186 64.6433 15.9711 64.5214 15.9745 64.3933C15.9735 64.2644 15.9218 64.1411 15.8305 64.05C15.7392 63.9588 15.6157 63.9072 15.4866 63.9062H15.4883Z" fill="#4A3E42"/>
<path d="M16.481 58.8073C15.5735 58.8662 14.6731 59.0021 13.7685 59.0919C13.3214 59.1583 12.867 59.1583 12.4199 59.0919C11.9645 59.0028 11.5229 58.854 11.067 58.7669C10.1206 58.6148 9.1614 58.5581 8.20371 58.5976C7.22701 58.5881 6.25166 58.6725 5.29117 58.8497C4.53057 59.0267 3.83835 59.4217 3.29955 59.9861C2.6321 60.6453 2.03539 61.3834 1.43307 62.1013C0.870274 62.7724 -0.00624513 63.5265 0.00107343 64.475C-0.00699059 64.6703 0.0304678 64.8649 0.110501 65.0433C0.190534 65.2217 0.310958 65.3792 0.462295 65.5033C0.613633 65.6273 0.791755 65.7147 0.982643 65.7584C1.17353 65.8021 1.37198 65.801 1.56237 65.7552C2.32276 65.5798 2.75505 64.7974 3.22124 64.2415C3.75183 63.6098 4.2895 62.9828 4.84596 62.3738C5.26848 61.9111 4.5803 61.2207 4.15606 61.6851C3.72305 62.1587 3.30223 62.6445 2.88751 63.1328C2.673 63.3846 2.46011 63.6378 2.24885 63.8925C2.05783 64.1234 1.85608 64.4197 1.66507 64.6116C1.60559 64.6814 1.53093 64.7366 1.44679 64.7732C1.36266 64.8097 1.27127 64.8266 1.17961 64.8225C0.974442 64.7787 0.953462 64.4589 1.00884 64.2707C1.10984 63.9298 1.39501 63.6619 1.61872 63.3941C1.93049 63.0208 2.24202 62.6472 2.55696 62.2766C3.05056 61.6617 3.58098 61.0772 4.14533 60.5262C4.65017 60.0708 5.28714 59.7875 5.96399 59.7175C6.79818 59.6084 7.63909 59.5586 8.48035 59.5685C9.33115 59.5333 10.1832 59.594 11.0204 59.7494C11.4719 59.8517 11.913 59.9954 12.3714 60.066C12.8189 60.1244 13.272 60.1255 13.7197 60.0692C14.6416 59.9803 15.5581 59.8395 16.4827 59.7796C17.1063 59.7392 17.1109 58.7649 16.4827 58.8056L16.481 58.8073Z" fill="#4A3E42"/>
<path d="M1.46599 65.3405C1.51258 65.5732 1.62175 65.7889 1.78179 65.9644C1.94184 66.1399 2.14672 66.2686 2.37446 66.3367C2.80473 66.4341 3.25592 66.3673 3.63936 66.1494C3.81193 66.0594 3.96852 65.9417 4.10286 65.801C4.27509 65.6169 4.46269 65.3899 4.66712 65.1601C5.0908 64.6644 5.55139 64.2014 6.04497 63.775C6.13562 63.6832 6.18644 63.5594 6.18644 63.4305C6.18644 63.3016 6.13562 63.1779 6.04497 63.0861C5.95214 62.9973 5.82856 62.9478 5.70002 62.9478C5.57147 62.9478 5.44789 62.9973 5.35507 63.0861C4.93889 63.4415 4.54856 63.826 4.18703 64.2367C3.9987 64.4451 3.81354 64.6567 3.62594 64.8669C3.5791 64.9197 3.52982 64.9713 3.48469 65.0256C3.3967 65.1407 3.38337 65.1575 3.44468 65.0758L3.42321 65.1002C3.39882 65.1216 3.37442 65.1489 3.35222 65.1715C3.33539 65.1868 3.31807 65.2019 3.30026 65.2165C3.34905 65.1805 3.35881 65.173 3.32954 65.1942C3.27043 65.236 3.20875 65.2742 3.14486 65.3084C3.13194 65.3152 3.01996 65.367 3.08632 65.3388C3.15267 65.3105 3.03753 65.3556 3.02338 65.3602C2.98825 65.3717 2.95287 65.3819 2.91701 65.3907C2.90213 65.3943 2.77869 65.4192 2.85651 65.4062C2.93433 65.3933 2.81211 65.4094 2.79601 65.4101C2.7604 65.4116 2.72527 65.4101 2.68989 65.4101C2.58329 65.4101 2.70843 65.4243 2.68209 65.4101C2.65075 65.3959 2.6173 65.3869 2.58304 65.3834C2.54856 65.3712 2.56117 65.377 2.62086 65.4009C2.60524 65.3936 2.59012 65.3858 2.57524 65.3765C2.56036 65.3673 2.47034 65.2993 2.52523 65.3466C2.58012 65.3938 2.49449 65.3096 2.48449 65.2979C2.46188 65.2716 2.46822 65.2797 2.50351 65.3222C2.49239 65.3065 2.48205 65.2903 2.47253 65.2735C2.46204 65.2562 2.45253 65.2385 2.44375 65.2202C2.46107 65.266 2.46375 65.2721 2.45107 65.2382C2.43299 65.187 2.41792 65.1347 2.40593 65.0816C2.36767 64.9617 2.28438 64.8612 2.17352 64.8012C2.06265 64.7413 1.93283 64.7265 1.81127 64.7599C1.68971 64.7934 1.58586 64.8726 1.52149 64.9808C1.45712 65.089 1.43723 65.2179 1.46599 65.3405Z" fill="#4A3E42"/>
<path d="M5.86203 61.4257C5.93052 61.4627 5.99581 61.5053 6.05719 61.5531L5.95961 61.4769C6.22555 61.7209 6.46541 61.9919 6.67537 62.2853C6.76704 62.3764 6.89099 62.4277 7.02031 62.428C7.14959 62.4271 7.27342 62.3759 7.36551 62.2853C7.45667 62.1938 7.50796 62.0701 7.50822 61.941L7.4909 61.8115C7.46852 61.7302 7.4253 61.6562 7.36551 61.5967C7.22133 61.4262 7.09082 61.2429 6.94371 61.0739C6.77851 60.8767 6.57901 60.711 6.35481 60.5847C6.24028 60.521 6.10565 60.5035 5.97864 60.536C5.85595 60.5704 5.75117 60.6505 5.6859 60.7597C5.65353 60.815 5.63238 60.876 5.62367 60.9394C5.61496 61.0028 5.61884 61.0673 5.63511 61.1292C5.65138 61.1911 5.6797 61.2492 5.71847 61.3002C5.75724 61.3511 5.80569 61.394 5.86105 61.4262L5.86203 61.4257Z" fill="#4A3E42"/>
<path d="M10.4705 49.7236C8.39687 49.7256 6.29717 49.7575 4.22993 49.927C3.60834 49.9781 3.60297 50.9526 4.22993 50.901C6.29717 50.7306 8.39687 50.6996 10.4705 50.6977C11.0984 50.6977 11.0994 49.7236 10.4705 49.7236Z" fill="#4A3E42"/>
<path d="M46.9771 50.592C47.509 50.3564 48.0662 50.1825 48.6377 50.0736C49.2566 49.9309 49.8841 49.8277 50.5161 49.7646C50.8125 49.7102 51.1178 49.7305 51.4044 49.8235C51.5042 49.8632 51.5957 49.921 51.6744 49.994C51.7352 50.0529 51.6966 50.0122 51.7366 50.0712C51.7171 50.0427 51.7366 50.0651 51.7281 50.0751C51.7266 50.0765 51.7257 50.0819 51.7227 50.0853C51.7198 50.0887 51.7198 50.0892 51.6844 50.1238C51.6108 50.1873 51.5287 50.2403 51.4405 50.2813C51.124 50.4247 50.7915 50.5299 50.45 50.5947C49.8401 50.7384 50.0978 51.6779 50.7093 51.5339C51.399 51.3718 52.4624 51.12 52.6705 50.3164C52.9035 49.4193 51.9198 48.8595 51.1672 48.7754C50.7993 48.7534 50.43 48.7749 50.067 48.8395C49.6345 48.895 49.2042 48.9632 48.7765 49.0484C47.9852 49.1833 47.2145 49.419 46.4834 49.7497C45.9194 50.0249 46.4134 50.8653 46.9759 50.5906L46.9771 50.592Z" fill="#4A3E42"/>
<path d="M50.0904 51.6045C51.8279 52.0274 53.5546 52.4964 55.2822 52.9611C55.5218 53.0256 55.9233 53.1398 56.0007 53.4155C56.0875 53.724 55.7916 53.8126 55.5555 53.8117C55.2234 53.791 54.8944 53.7355 54.574 53.6461C54.1949 53.5628 53.8164 53.4768 53.4384 53.3882C52.6427 53.2024 51.8435 53.0198 51.0592 52.7901C50.4554 52.6133 50.1975 53.553 50.7996 53.7293C51.6105 53.9668 52.4373 54.155 53.2599 54.3462C53.6746 54.4436 54.0917 54.5376 54.5089 54.6274C54.9436 54.7504 55.3966 54.7965 55.8472 54.7635C56.0924 54.7318 56.3232 54.6303 56.5122 54.4713C56.7012 54.3123 56.8404 54.1023 56.9132 53.8665C56.986 53.6307 56.9893 53.379 56.9228 53.1414C56.8563 52.9037 56.7228 52.6902 56.5381 52.5262C56.1666 52.2341 55.7299 52.036 55.2652 51.9485C54.7491 51.8117 54.2333 51.6745 53.7178 51.537C52.5971 51.2394 51.4766 50.9394 50.3498 50.6652C49.7399 50.5169 49.4796 51.4559 50.0904 51.6045Z" fill="#4A3E42"/>
<path d="M54.7113 56.2317C54.9633 56.6053 54.4469 57.019 54.0719 56.9825C53.628 56.9208 53.1876 56.8364 52.7524 56.7294C52.2108 56.6187 51.6705 56.5015 51.134 56.3686C50.8974 56.3099 50.661 56.2488 50.4266 56.1791C50.3395 56.1533 50.2526 56.1263 50.1667 56.097C50.1265 56.0832 50.087 56.0678 50.0467 56.0542C49.9247 56.0128 50.0936 56.0773 50.016 56.0423C49.9034 55.9809 49.7715 55.9648 49.6475 55.9973C49.5234 56.0298 49.4164 56.1085 49.3485 56.2171C49.2842 56.3289 49.2665 56.4614 49.2993 56.5861C49.3321 56.7107 49.4127 56.8175 49.5237 56.8833C50.0234 57.0895 50.5416 57.2477 51.0713 57.356C51.7146 57.5101 52.3623 57.6463 53.0117 57.7724C53.6611 57.8986 54.3415 58.1024 54.9484 57.7305C55.6093 57.3258 56.0282 56.445 55.553 55.7401C55.2041 55.2228 54.3576 55.7099 54.7103 56.2317H54.7113Z" fill="#4A3E42"/>
<path d="M43.7184 54.8402C45.106 55.6016 46.074 56.9344 47.4484 57.7197C48.0928 58.0608 48.7741 58.3272 49.4791 58.5135C50.255 58.7697 51.0654 58.9063 51.8825 58.9187C52.7176 58.9034 53.7405 58.3246 53.5694 57.3566C53.5343 57.2325 53.4516 57.1271 53.3393 57.0633C53.2269 56.9995 53.094 56.9824 52.9691 57.0157C52.8457 57.0522 52.7412 57.135 52.6775 57.2466C52.6139 57.3583 52.596 57.4902 52.6275 57.6147C52.6032 57.4813 52.6193 57.5863 52.5631 57.6659C52.5133 57.728 52.4531 57.7809 52.3851 57.8225C52.2467 57.9077 52.086 57.9497 51.9235 57.943C51.5188 57.949 51.1147 57.9082 50.7194 57.8212C49.9454 57.6626 49.188 57.4323 48.4569 57.1333C46.8 56.4568 45.7618 54.8492 44.21 53.9976C43.6594 53.6954 43.1664 54.5363 43.7174 54.8387L43.7184 54.8402Z" fill="#4A3E42"/>
<path d="M50.305 55.4188C51.4703 55.7841 52.6957 55.9944 53.8889 56.2484C54.5319 56.3853 55.2394 56.6641 55.8568 56.3122C56.6131 55.8812 56.9058 54.7423 56.2847 54.0748C55.8568 53.6144 55.1679 54.3042 55.5948 54.7635C55.7251 54.9038 55.6207 55.2354 55.5119 55.3572C55.4241 55.4522 55.3063 55.5143 55.1781 55.533C55.2669 55.5181 55.1923 55.533 55.1379 55.5196C55.0891 55.5079 55.0389 55.4984 54.9896 55.4879C54.4773 55.3786 53.9628 55.2702 53.45 55.1597C52.4883 54.9525 51.5042 54.7737 50.5643 54.4796C49.9637 54.2916 49.7068 55.2318 50.305 55.4188Z" fill="#4A3E42"/>
<path d="M38.7028 32.3278C38.7074 33.9676 38.513 35.6958 37.5645 37.0811C36.8119 38.1801 35.7837 39.0624 35.003 40.1418C34.4707 40.8832 34.0537 41.7007 33.7662 42.5665C33.5654 43.1619 34.5075 43.4173 34.7071 42.8253C35.195 41.3808 36.1018 40.2531 37.1147 39.1422C37.5723 38.6585 37.9969 38.1447 38.3856 37.6042C38.8239 36.9615 39.1438 36.246 39.3305 35.4913C39.5795 34.4556 39.6966 33.3927 39.6791 32.3278C39.6771 31.7012 38.7013 31.7 38.7033 32.3278H38.7028Z" fill="#4A3E42"/>
<path d="M31.1448 18.735C30.1563 19.3162 29.1071 19.7821 28.1127 20.3531C27.1145 20.9249 26.2458 21.6817 25.3561 22.4042C23.5786 23.847 21.8868 25.3366 20.5597 27.2175C19.9164 28.1179 19.3877 29.0946 18.9858 30.1252C18.5552 31.2493 18.2195 32.4155 17.8958 33.5738C17.2386 35.9264 16.6206 38.3033 16.0808 40.6856C15.4738 43.3642 14.983 46.1278 15.0025 48.881C15.0067 49.5075 15.9825 49.509 15.9783 48.881C15.962 46.5031 16.3443 44.1308 16.8322 41.8094C17.3242 39.4717 17.9456 37.153 18.5606 34.845C19.1416 32.6641 19.7025 30.3975 20.9025 28.4616C22.0649 26.5865 23.6348 25.0819 25.3231 23.6844C26.2797 22.8925 27.2289 22.0285 28.2916 21.379C29.3735 20.7191 30.544 20.2187 31.6361 19.577C32.177 19.2593 31.6866 18.417 31.1438 18.736L31.1448 18.735Z" fill="#4A3E42"/>
<path d="M31.1105 19.3414C31.1742 20.5829 31.5231 21.793 32.1302 22.8784C32.7288 24.0244 33.5817 25.1479 34.7212 25.8006C35.0126 25.9698 35.3247 26.1007 35.6497 26.1902C35.8336 26.2389 36.018 26.2559 36.2049 26.2876C36.2859 26.3012 36.2017 26.2876 36.189 26.2834C36.2176 26.2898 36.2466 26.2983 36.2747 26.3078C36.3252 26.3231 36.3769 26.3358 36.4279 26.3499L36.2125 25.5359C36.1922 25.5602 36.0622 25.7097 36.1407 25.6401C36.0496 25.7105 35.9545 25.7755 35.8558 25.8349C35.607 26.0073 35.3589 26.1804 35.1081 26.3499C34.6299 26.6857 34.1295 26.9888 33.6102 27.257C33.5127 27.3045 33.417 27.35 33.3175 27.388C33.2658 27.4077 33.2131 27.4265 33.1599 27.4416C33.0987 27.4589 33.2714 27.509 33.1426 27.4362C32.9149 27.325 32.7035 27.1834 32.5142 27.0152C32.0631 26.5654 31.6913 26.0429 31.4144 25.4696C31.3859 25.4124 31.359 25.3547 31.3322 25.2965C31.3107 25.2566 31.2933 25.2147 31.2802 25.1713C31.2168 25.0065 31.1566 24.8409 31.1019 24.6729C30.977 24.2877 30.8721 23.8963 30.7875 23.5003C30.589 22.6959 30.528 21.8637 30.6072 21.0389C30.6362 20.7054 30.7514 20.3851 30.9416 20.1094C30.8904 20.1767 31.0148 20.0364 31.0412 20.012C31.1388 19.918 30.9653 20.0561 31.0787 19.9806C31.1156 19.9563 31.1531 19.9344 31.1917 19.9129C31.3137 19.8452 31.1402 19.9285 31.2188 19.8981C31.2701 19.8795 31.3224 19.8636 31.3754 19.8506C31.4479 19.8278 31.5244 19.82 31.6001 19.8277C32.227 19.8143 32.2292 18.8403 31.6001 18.8537C29.3377 18.9024 29.486 21.758 29.7612 23.3228C29.9022 24.1918 30.1554 25.0389 30.5145 25.8429C30.813 26.4791 31.2117 27.0634 31.6952 27.5738C32.0977 27.9975 32.7545 28.5571 33.3885 28.3903C34.0747 28.2099 34.719 27.7737 35.304 27.3897C35.6143 27.1861 35.9192 26.9757 36.2242 26.7632C36.475 26.6163 36.7038 26.4347 36.9036 26.2238C36.962 26.1627 37.0038 26.0877 37.0249 26.0059C37.0461 25.9241 37.0458 25.8383 37.0242 25.7567C37.0026 25.675 36.9603 25.6002 36.9015 25.5395C36.8427 25.4788 36.7692 25.4342 36.6882 25.41C36.4303 25.3391 36.1681 25.3201 35.91 25.2512C35.5993 25.1642 35.3043 25.029 35.0356 24.8506C34.4318 24.4381 33.9161 23.91 33.5183 23.297C32.7415 22.1581 32.1102 20.7302 32.088 19.3407C32.0777 18.7146 31.1019 18.7127 31.1122 19.3407L31.1105 19.3414Z" fill="#4A3E42"/>
<path d="M38.4761 23.6394C38.4111 23.7345 38.3446 23.8281 38.2766 23.9202C38.3471 23.8259 38.2461 23.957 38.2324 23.9735C38.2015 24.0108 38.17 24.0466 38.1375 24.0838C38.0186 24.2168 37.8893 24.3401 37.7509 24.4527C37.644 24.5397 37.7899 24.4269 37.7209 24.4771C37.6848 24.5029 37.6494 24.5295 37.613 24.5548C37.5372 24.6081 37.4598 24.6592 37.3818 24.7094C37.2005 24.8258 37.0159 24.9371 36.8322 25.0503C36.7691 25.0891 36.7154 25.1414 36.6752 25.2036C36.635 25.2657 36.6093 25.336 36.5998 25.4093C36.5903 25.4827 36.5974 25.5572 36.6205 25.6275C36.6436 25.6977 36.6822 25.762 36.7334 25.8154C37.1155 26.3159 37.5973 26.7321 38.1483 27.0379C38.3759 27.1624 38.6109 27.2729 38.8521 27.3688C38.9564 27.4069 39.0683 27.4197 39.1786 27.4063C39.2888 27.3928 39.3943 27.3534 39.4864 27.2914C39.6816 27.1468 39.8573 26.9776 40.0091 26.788C40.1621 26.6134 40.2884 26.4173 40.3841 26.206C40.6022 25.7561 40.705 25.2592 40.6834 24.7598C40.6383 24.18 40.3587 23.6314 39.7588 23.4692C39.6341 23.4348 39.5007 23.4514 39.3882 23.5151C39.2756 23.5789 39.193 23.6847 39.1586 23.8093C39.1242 23.9338 39.1407 24.0669 39.2046 24.1793C39.2685 24.2916 39.3745 24.3741 39.4993 24.4084C39.5201 24.4158 39.5413 24.4222 39.5627 24.4274C39.62 24.4357 39.4693 24.3756 39.5168 24.4072C39.5198 24.4094 39.612 24.4627 39.612 24.4627C39.5783 24.4898 39.5261 24.3807 39.5695 24.4313C39.5804 24.443 39.5919 24.454 39.6039 24.4644C39.6176 24.4769 39.6642 24.5402 39.6127 24.4695C39.5612 24.3989 39.6127 24.4732 39.6232 24.4893C39.6372 24.5238 39.6547 24.5569 39.6754 24.5879C39.6676 24.5813 39.6361 24.4705 39.6549 24.5424C39.6591 24.5589 39.6661 24.5752 39.6713 24.5911C39.6829 24.6294 39.6926 24.6684 39.7003 24.7077C39.7032 24.7213 39.7037 24.7674 39.7123 24.7756C39.6957 24.7593 39.7013 24.65 39.7064 24.7442C39.7108 24.8278 39.7144 24.9103 39.7108 24.9941C39.7086 25.045 39.7032 25.0956 39.6986 25.1463C39.6932 25.2057 39.6742 25.1538 39.704 25.1093C39.6943 25.1392 39.689 25.1703 39.6883 25.2018C39.672 25.2899 39.651 25.3771 39.6261 25.4631C39.6132 25.5086 39.5988 25.5537 39.5834 25.5985C39.5747 25.6228 39.52 25.7202 39.5286 25.7446C39.5195 25.7188 39.5703 25.6523 39.5415 25.7129C39.5327 25.7314 39.5247 25.7499 39.5171 25.7682C39.4956 25.813 39.4728 25.8571 39.4485 25.9004C39.4164 25.9795 39.3697 26.0519 39.3107 26.1137C39.3802 26.0694 39.3685 26.0448 39.329 26.0879C39.3173 26.1006 39.3063 26.1137 39.2949 26.1264C39.257 26.1678 39.217 26.207 39.1782 26.2482C39.1087 26.3212 39.0407 26.3943 38.9675 26.4627C38.9338 26.4941 38.8352 26.5586 38.9794 26.459C38.9062 26.5097 38.9826 26.4605 39.0282 26.4456C38.9504 26.47 39.1258 26.4422 39.1414 26.4456C39.2541 26.4629 39.146 26.4369 39.1204 26.432C39.0665 26.4218 39.2456 26.4929 39.1712 26.4529C39.1575 26.4456 39.1424 26.4393 39.1282 26.4325C39.0948 26.4162 39.0616 26.3991 39.0282 26.3823C38.9123 26.3239 38.7943 26.2703 38.6774 26.2138C38.5503 26.1514 38.4286 26.0785 38.3134 25.9961C38.289 25.9788 38.2646 25.9608 38.2402 25.9435C38.3173 25.9988 38.2012 25.9121 38.1966 25.9082C38.1379 25.8595 38.0802 25.8099 38.0236 25.7594C37.8073 25.5644 37.6067 25.3527 37.4237 25.1263L37.3257 25.8899C37.7138 25.6651 38.0866 25.415 38.4417 25.1412C38.7826 24.8491 39.0785 24.5086 39.32 24.1306C39.3844 24.0188 39.4022 23.8863 39.3694 23.7616C39.3366 23.6369 39.2559 23.5301 39.1448 23.4643C39.0324 23.4022 38.9003 23.3856 38.776 23.4181C38.6517 23.4507 38.5448 23.5297 38.4774 23.6389L38.4761 23.6394Z" fill="#4A3E42"/>
<path d="M42.663 23.6639C43.2075 25.1386 44.3238 26.2938 45.0205 27.695C45.3925 28.4425 45.7077 29.2164 46.0424 29.981C46.2478 30.4508 46.5547 31.0591 46.3891 31.5317C46.3255 31.6774 46.233 31.8087 46.1171 31.9177C45.9192 32.1108 45.7099 32.2919 45.4904 32.46C45.1149 32.7617 44.7531 33.0795 44.3777 33.3812C43.5624 34.0362 42.7152 34.6552 41.8547 35.2499C41.3883 35.5721 40.9167 35.8916 40.4225 36.1704C40.3391 36.2174 40.2551 36.2634 40.1693 36.3063C40.1324 36.3248 40.0961 36.3423 40.0583 36.3596C40.0066 36.3825 40.0124 36.3805 40.0751 36.3535C40.0336 36.3688 40.0227 36.3732 40.0422 36.3664C39.7881 36.0168 39.5719 35.6413 39.3972 35.2463C39.1056 34.6908 38.263 35.1827 38.5546 35.7379C38.9039 36.4032 39.3735 37.5961 40.3354 37.2922C40.7681 37.1223 41.177 36.8974 41.552 36.6231C42.5766 35.9656 43.56 35.2399 44.5236 34.4965C44.8736 34.2267 45.2174 33.951 45.5526 33.6634C46.0219 33.2607 46.5696 32.9112 46.9648 32.4303C47.9621 31.2171 46.9753 29.6905 46.4525 28.4886C46.0671 27.5435 45.5938 26.6366 45.0388 25.7797C44.518 25.0132 43.9281 24.2831 43.6036 23.4045C43.3882 22.8213 42.4446 23.0733 42.6627 23.6634L42.663 23.6639Z" fill="#4A3E42"/>
<path d="M29.2235 31.4436C29.7995 32.4585 30.3681 33.4781 30.9185 34.5072C31.19 35.0149 31.4574 35.5251 31.714 36.0413C31.7901 36.1938 31.9414 36.3866 31.836 36.5576C31.7255 36.738 31.3549 36.8483 31.1719 36.9445C28.88 38.1499 26.601 39.4191 24.173 40.3361C23.8927 40.4418 23.6331 40.6252 23.3848 40.3973C23.1624 40.1875 22.9609 39.9567 22.7832 39.7081C22.3692 39.138 22.0405 38.5108 21.8074 37.8462C21.5988 37.2596 20.6557 37.5124 20.8664 38.1051C21.1013 38.7893 21.4243 39.4402 21.8274 40.0413C22.1752 40.548 22.6595 41.279 23.2862 41.4522C23.6229 41.5215 23.9732 41.4787 24.2832 41.3304C24.6492 41.1945 25.0151 41.0494 25.3752 40.8979C26.0887 40.5989 26.7925 40.2782 27.4888 39.9412C28.7963 39.308 30.0773 38.6226 31.3615 37.9444C31.9319 37.6434 32.641 37.4069 32.8142 36.7115C32.9723 36.0757 32.4983 35.4287 32.2192 34.8898C31.5315 33.5612 30.8028 32.2538 30.0644 30.9527C29.7551 30.4072 28.9117 30.8976 29.2218 31.4443L29.2235 31.4436Z" fill="#4A3E42"/>
<path d="M31.8448 19.5907C32.2242 19.1568 32.6743 18.7735 32.9775 18.2757C33.0098 18.2205 33.0309 18.1595 33.0396 18.0961C33.0483 18.0327 33.0444 17.9683 33.0281 17.9064C33.0119 17.8445 32.9836 17.7865 32.9448 17.7355C32.9061 17.6846 32.8577 17.6417 32.8023 17.6095C32.747 17.5772 32.6858 17.5561 32.6224 17.5475C32.5589 17.5388 32.4943 17.5427 32.4323 17.5589C32.3703 17.5752 32.3122 17.6034 32.2611 17.6421C32.2101 17.6808 32.1672 17.7291 32.1349 17.7843C32.0874 17.8614 32.0361 17.9359 31.9809 18.0076L32.0573 17.909C31.7833 18.2628 31.4489 18.5643 31.1547 18.9008C31.0657 18.9938 31.0148 19.1166 31.0117 19.2452C31.0126 19.3741 31.0639 19.4977 31.1547 19.5895C31.2463 19.6806 31.3703 19.7319 31.4996 19.7322C31.5637 19.7323 31.6272 19.7198 31.6864 19.6953C31.7456 19.6708 31.7994 19.6348 31.8446 19.5895L31.8448 19.5907Z" fill="#4A3E42"/>
<path d="M40.8905 37.0132C41.4827 37.9227 42.1481 38.7826 42.8802 39.5842C43.7569 40.6167 44.661 41.6363 45.6368 42.577C45.9896 42.9483 46.3864 43.2753 46.8183 43.551C46.9299 43.6154 47.0626 43.6331 47.1873 43.6001C47.3119 43.5672 47.4185 43.4863 47.4835 43.3752C47.5486 43.264 47.567 43.1317 47.5346 43.0071C47.5023 42.8825 47.4218 42.7757 47.3108 42.7102C47.0721 42.5585 46.8493 42.3832 46.6458 42.1869L45.9559 42.8755C46.2925 43.1729 46.6513 43.4442 47.0293 43.6871C47.3436 43.8534 47.6715 43.9926 48.0095 44.1033C48.9626 44.4247 49.9315 44.6973 50.9125 44.92C52.8419 45.3873 54.7914 45.7628 56.7293 46.1863C57.1166 46.2316 57.494 46.3394 57.8466 46.5055C58.3806 46.8333 58.6824 47.3627 59.3562 47.4338C59.4853 47.4329 59.6089 47.3813 59.7002 47.2902C59.7915 47.199 59.8432 47.0757 59.8441 46.9468C59.8413 46.8185 59.789 46.6962 59.6981 46.6055C59.6072 46.5148 59.4847 46.4626 59.3562 46.4598C59.4469 46.4693 59.2767 46.4271 59.3542 46.4598C59.3062 46.4379 59.2603 46.4115 59.2171 46.3811C59.1425 46.3251 59.0714 46.2644 59.0044 46.1995C58.8 46.0004 58.5773 45.821 58.3391 45.6637C57.9709 45.4667 57.57 45.3377 57.1557 45.2831C56.3995 45.1127 55.6391 44.9627 54.8806 44.8034C52.8151 44.3704 50.7264 43.9511 48.7133 43.3109C48.4886 43.2393 48.2652 43.1648 48.0449 43.0806C47.9053 43.0332 47.7696 42.9749 47.6392 42.9062C47.5723 42.8726 47.5057 42.8378 47.4421 42.7983C47.3977 42.7708 47.2391 42.6549 47.4055 42.781C47.1493 42.5862 46.899 42.3834 46.6458 42.1849C46.5524 42.0972 46.4291 42.0484 46.3009 42.0484C46.1726 42.0484 46.0493 42.0972 45.9559 42.1849C45.8656 42.2768 45.8149 42.4005 45.8149 42.5292C45.8149 42.658 45.8656 42.7817 45.9559 42.8736C46.22 43.127 46.5089 43.3533 46.8183 43.5491L47.3108 42.7082C47.2474 42.6719 47.1876 42.6313 47.1276 42.5901C47.0974 42.5692 47.0681 42.5468 47.0386 42.5246C47.1252 42.5901 46.9986 42.491 46.9764 42.4727C46.7953 42.3237 46.6219 42.1654 46.4514 42.0045C46.0018 41.5793 45.5731 41.1317 45.1523 40.6783C44.247 39.7021 43.3732 38.6927 42.5479 37.6481C42.2526 37.2893 41.9806 36.9122 41.7333 36.5189C41.4118 35.981 40.5677 36.4702 40.8907 37.0105L40.8905 37.0132Z" fill="#4A3E42"/>
<path d="M46.0642 32.4804C47.1681 34.1874 48.3615 35.835 49.6393 37.4164C49.9423 37.806 50.2478 38.1937 50.5595 38.5763C50.6713 38.7134 50.7835 38.8497 50.8979 38.9846C51.0657 39.1749 51.2663 39.3337 51.4902 39.4534C52.8599 40.2165 54.2714 40.9023 55.7181 41.5074C56.3478 41.7867 56.9801 42.0636 57.6278 42.2988C57.7879 42.375 57.9627 42.4152 58.1401 42.4164C58.3099 42.3992 58.4758 42.3547 58.6314 42.2847C58.9439 42.1559 59.1976 41.9818 59.5409 42.1004C60.1354 42.3061 60.3908 41.3654 59.8002 41.1611C59.4764 41.0481 59.1238 41.0481 58.8 41.1611C58.6624 41.2098 58.5302 41.2727 58.3972 41.3316C58.3401 41.3559 58.2899 41.382 58.2308 41.4029C58.1977 41.4146 58.021 41.4339 58.1254 41.4451C57.8783 41.3859 57.6393 41.297 57.4136 41.1804C57.1323 41.0688 56.8542 40.9498 56.5771 40.8287C55.2031 40.2275 53.8226 39.6212 52.5031 38.905C52.2271 38.7827 51.9653 38.6306 51.7224 38.4516C51.6017 38.3275 51.4898 38.195 51.3877 38.0551C51.104 37.7113 50.8266 37.3621 50.5517 37.0112C49.8768 36.1508 49.2154 35.2798 48.5677 34.3981C47.9885 33.6116 47.4225 32.8189 46.9088 31.9888C46.5787 31.457 45.7342 31.9454 46.0662 32.4804H46.0642Z" fill="#4A3E42"/>
<path d="M62.4299 45.2705C61.1335 45.2905 60.2292 46.2521 59.187 46.8777C58.0212 47.5768 56.5445 47.4326 55.2438 47.6014C55.1156 47.6054 54.9939 47.658 54.9032 47.7485C54.8126 47.839 54.7599 47.9605 54.7559 48.0884C54.7566 48.2174 54.8083 48.3408 54.8996 48.432C54.9909 48.5231 55.1146 48.5747 55.2438 48.5754C56.6211 48.3967 58.118 48.5124 59.3939 47.8766C60.3802 47.3849 61.2594 46.2631 62.4299 46.245C63.0571 46.2355 63.059 45.2615 62.4299 45.271V45.2705Z" fill="#4A3E42"/>
<path d="M68.9093 54.557C69.4523 54.0704 70.0384 53.6339 70.6604 53.253C71.1151 52.9747 71.6038 52.6893 72.1349 52.6915C72.8248 52.6941 73.5142 52.9002 74.1941 52.998C74.9802 53.1169 75.7799 53.1142 76.5653 52.9903C78.1175 52.7443 79.5086 52.0866 80.8374 51.2747C82.1372 50.491 83.2701 49.4599 84.1717 48.2401C85.1594 46.9141 85.7152 45.3171 85.7637 43.6655L85.6971 43.9112C86.3409 42.7102 86.4146 41.3183 86.2292 39.9923C85.9997 38.4858 85.4824 37.0373 84.7055 35.7255C83.9402 34.3705 82.9025 33.1881 81.6575 32.2526C80.3557 31.3508 78.8559 30.7746 77.2844 30.5723C75.0574 30.2487 72.9177 30.7752 70.9205 31.7629C70.3579 32.0409 70.8517 32.8815 71.413 32.6039C72.9406 31.8491 74.5956 31.362 76.3128 31.447C77.6986 31.5185 79.0524 31.8889 80.2811 32.5326C82.5477 33.7516 84.1502 36.1629 84.9067 38.5702C85.2919 39.6834 85.4239 40.8681 85.2931 42.0386C85.2538 42.3048 85.1924 42.5673 85.1094 42.8234C85.0282 43.074 84.8762 43.2778 84.8055 43.5352C84.7738 43.7394 84.76 43.9461 84.7642 44.1527C84.7494 44.329 84.7262 44.5031 84.694 44.677C84.6251 45.0495 84.5265 45.416 84.3991 45.7728C83.8469 47.2033 82.9295 48.4648 81.7378 49.4318C81.1322 49.9355 80.4785 50.3786 79.7862 50.7548C79.1016 51.1625 78.3745 51.4945 77.6179 51.7452C76.8601 51.9909 76.0691 52.1194 75.2723 52.1263C74.4636 52.1192 73.6752 51.9091 72.8796 51.7902C72.2559 51.6648 71.609 51.7246 71.019 51.9624C70.3377 52.2766 69.6969 52.6718 69.1106 53.1395C68.8049 53.3716 68.5058 53.6117 68.2202 53.8679C67.7523 54.2877 68.4441 54.9749 68.9103 54.5565L68.9093 54.557Z" fill="#4A3E42"/>
<path d="M70.8603 52.8823C70.295 51.5166 69.8903 49.7483 70.619 48.362C70.9105 47.8072 70.0686 47.3149 69.7764 47.8703C68.9226 49.4974 69.2446 51.5113 69.9193 53.1411C69.9571 53.2635 70.0402 53.367 70.1517 53.4303C70.2632 53.4937 70.3947 53.5122 70.5195 53.482C70.6439 53.4471 70.7496 53.3647 70.8135 53.2525C70.8775 53.1404 70.8945 53.0076 70.861 52.883L70.8603 52.8823Z" fill="#4A3E42"/>
<path d="M70.921 31.7636C69.4385 32.497 68.2439 33.7901 66.6587 34.3219C66.3374 34.441 65.9957 34.495 65.6533 34.4809C65.263 34.4532 64.9381 34.2204 64.5555 34.158C64.195 34.077 63.817 34.1414 63.5038 34.337C63.1905 34.5327 62.9672 34.8439 62.8825 35.2029C62.8189 35.4781 62.8201 35.7642 62.751 36.0384C62.6642 36.373 62.4702 36.6701 62.1985 36.8844C61.6673 37.3379 61.174 37.834 60.7236 38.3676C60.1925 38.9461 59.8117 39.6458 59.6145 40.4053C59.4803 41.0827 59.5527 41.7847 59.8224 42.4206C60.1102 43.1443 60.4622 43.8408 60.8743 44.5019C61.2027 45.0959 61.6239 45.6338 62.1221 46.0952C62.6017 46.4931 63.2955 45.8079 62.812 45.4063C62.4138 45.0429 62.0744 44.6201 61.806 44.153C61.4529 43.5995 61.1409 43.021 60.8726 42.4221C60.6102 41.928 60.4909 41.3707 60.5279 40.8127C60.6609 40.1268 60.9883 39.4935 61.4713 38.9878C61.8922 38.498 62.3488 38.0398 62.8374 37.6171C63.3748 37.1573 63.7102 36.5056 63.7717 35.8017C63.7676 35.5997 63.8169 35.4002 63.9147 35.2234C64.092 35.0169 64.4455 35.115 64.6551 35.1968C65.3451 35.4886 66.1174 35.5216 66.8299 35.2899C68.5534 34.7541 69.8217 33.3919 71.4133 32.6047C71.9761 32.3261 71.4823 31.4857 70.9207 31.7636H70.921Z" fill="#4A3E42"/>
<path d="M74.5015 35.0703C72.8766 37.2891 72.6616 40.3138 72.8109 42.9656C72.8461 43.589 73.8221 43.5929 73.7867 42.9656C73.646 40.4689 73.8126 37.6534 75.3441 35.5629C75.4085 35.4511 75.4262 35.3186 75.3935 35.1939C75.3607 35.0692 75.28 34.9624 75.169 34.8966C75.0566 34.8343 74.9244 34.8177 74.8001 34.8503C74.6757 34.8829 74.5688 34.9621 74.5015 35.0715V35.0703Z" fill="#4A3E42"/>
<path d="M73.0132 31.1517C72.595 32.0361 72.5475 33.0637 72.6241 34.0251C72.6715 34.9921 72.9087 35.9404 73.3223 36.8162C73.6094 37.3739 74.4515 36.8817 74.1646 36.3246C73.8342 35.6 73.6427 34.8201 73.5999 34.0251C73.5382 33.2544 73.5369 32.3178 73.8558 31.6436C73.9176 31.5312 73.9339 31.3996 73.9013 31.2756C73.8688 31.1517 73.7899 31.0449 73.6809 30.9773C73.5689 30.9131 73.4361 30.8955 73.3112 30.9281C73.1863 30.9608 73.0793 31.0409 73.0132 31.1517Z" fill="#4A3E42"/>
<path d="M72.733 43.6373C72.9926 43.627 73.2465 43.7143 73.4446 43.8819C73.6428 44.0495 73.7708 44.2852 73.8033 44.5424C73.8433 45.1056 73.3397 45.4828 72.8923 45.7113C72.3565 45.9638 71.769 46.0877 71.1766 46.073C70.5843 46.0584 70.0036 45.9057 69.4809 45.627C68.9254 45.336 68.4319 46.1764 68.9884 46.4681C70.4521 47.2349 72.3927 47.2865 73.7818 46.3149C74.4892 45.8199 74.9654 44.9841 74.7088 44.108C74.5806 43.6859 74.3187 43.3168 73.9624 43.0561C73.606 42.7954 73.1746 42.6572 72.7328 42.6622C72.1053 42.6705 72.1034 43.6446 72.7328 43.6363L72.733 43.6373Z" fill="#4A3E42"/>
<path d="M67.2512 36.7989C67.3011 36.8398 67.3461 36.8865 67.3851 36.9379L67.3087 36.8393C67.4008 36.9633 67.4773 37.0982 67.5363 37.2409L67.4875 37.1247C67.5512 37.2705 67.5963 37.4238 67.6217 37.5808L67.6041 37.4512C67.6144 37.5174 67.6161 37.5846 67.609 37.6512L67.6263 37.5216C67.6227 37.5481 67.6161 37.5741 67.6066 37.5991C67.5895 37.6617 67.585 37.7272 67.5933 37.7916C67.6017 37.856 67.6228 37.9181 67.6554 37.9743C67.7207 38.0858 67.8277 38.1668 67.9529 38.1996C68.078 38.2323 68.2111 38.2141 68.3228 38.1489C68.4284 38.08 68.5075 37.9774 68.5473 37.8579C68.5945 37.7053 68.6028 37.5434 68.5717 37.3867C68.552 37.2352 68.5147 37.0864 68.4604 36.9435C68.401 36.7796 68.3264 36.6216 68.2374 36.4716C68.1602 36.3353 68.0604 36.2131 67.9423 36.11C67.8485 36.0222 67.7258 35.9715 67.5973 35.9673C67.468 35.9682 67.3442 36.0194 67.2521 36.11C67.161 36.2016 67.1098 36.3253 67.1094 36.4543C67.1086 36.5184 67.1208 36.582 67.1453 36.6412C67.1698 36.7005 67.2062 36.7541 67.2521 36.7989H67.2512Z" fill="#4A3E42"/>
<path d="M61.7049 38.1321C61.9086 38.5206 62.1867 38.8653 62.5234 39.1468C62.7482 39.3446 63.0145 39.4897 63.3028 39.5713C63.4298 39.6035 63.5643 39.5861 63.6788 39.5226C63.7616 39.4742 63.8284 39.4026 63.8707 39.3165C63.9129 39.2305 63.9288 39.1339 63.9164 39.0389C63.9039 38.9439 63.8637 38.8547 63.8007 38.7824C63.7377 38.7101 63.6547 38.658 63.5622 38.6325C63.506 38.6191 63.451 38.6009 63.398 38.578L63.5146 38.6267C63.381 38.5676 63.2553 38.4922 63.1404 38.4022L63.2379 38.4782C63.0665 38.3423 62.9122 38.1861 62.7786 38.0131L62.8547 38.1105C62.7396 37.9619 62.6364 37.8044 62.5463 37.6395C62.4802 37.5289 62.3732 37.4486 62.2484 37.416C62.1236 37.3833 61.9909 37.4009 61.8789 37.4649C61.7691 37.5319 61.6896 37.6386 61.6569 37.7628C61.6243 37.887 61.6411 38.019 61.7037 38.1312L61.7049 38.1321Z" fill="#4A3E42"/>
<path d="M64.7047 39.9467C64.6905 40.0366 64.6652 40.1244 64.6293 40.208L64.6781 40.0916C64.6271 40.2092 64.5615 40.32 64.4829 40.4213L64.5593 40.3227C64.4999 40.4004 64.4316 40.4708 64.3558 40.5326C64.2691 40.6271 64.2185 40.749 64.2129 40.877C64.2138 41.0059 64.2651 41.1295 64.3558 41.2213C64.4475 41.3123 64.5715 41.3636 64.7008 41.364L64.8306 41.3467C64.9121 41.3242 64.9863 41.281 65.046 41.2213C65.1024 41.1757 65.1545 41.1251 65.2016 41.0701C65.2814 40.9784 65.354 40.8807 65.4187 40.7778C65.4808 40.6724 65.5338 40.562 65.5773 40.4476C65.6094 40.3694 65.6321 40.2877 65.6449 40.2041C65.6654 40.1412 65.6684 40.0739 65.6537 40.0093C65.6509 39.9449 65.6309 39.8825 65.5959 39.8284C65.5635 39.7731 65.5206 39.7248 65.4696 39.6861C65.4185 39.6474 65.3603 39.6191 65.2983 39.6029C65.2363 39.5866 65.1717 39.5827 65.1082 39.5914C65.0447 39.6001 64.9835 39.6212 64.9282 39.6536C64.8732 39.6846 64.825 39.7263 64.7865 39.7763C64.7479 39.8263 64.7199 39.8835 64.704 39.9445L64.7047 39.9467Z" fill="#4A3E42"/>
<path d="M48.5096 13.8881C48.2823 16.7408 47.263 19.9615 44.9101 21.774C43.6868 22.719 42.1898 23.2432 40.6432 23.2684C39.0641 23.2823 37.5101 22.6628 36.2032 21.8074C34.6998 20.8211 33.5366 19.1933 32.8667 17.5398C32.8291 17.4173 32.746 17.3138 32.6345 17.2504C32.5229 17.187 32.3913 17.1686 32.2666 17.1989C32.1421 17.2337 32.0364 17.3162 31.9724 17.4283C31.9085 17.5405 31.8915 17.6733 31.9251 17.7979C32.5896 19.4382 33.6498 21.0637 35.0501 22.1685C36.4575 23.3004 38.1579 24.0103 39.9535 24.2154C41.6497 24.3466 43.3435 23.9334 44.7879 23.0361C46.2309 22.1143 47.3772 20.7971 48.0898 19.242C48.8796 17.5578 49.3527 15.7432 49.4854 13.8884C49.5342 13.2635 48.5584 13.2664 48.5096 13.8881Z" fill="#4A3E42"/>
<path d="M32.6683 12.1938C32.5121 12.0173 32.3182 11.8782 32.1009 11.7867C31.8835 11.6951 31.6484 11.6535 31.4128 11.6649C31.1772 11.6763 30.9471 11.7405 30.7397 11.8526C30.5323 11.9647 30.3527 12.1219 30.2144 12.3126C29.7401 13.048 29.5724 13.9394 29.7472 14.7964C29.8935 15.6059 30.2639 16.3582 30.8165 16.9683C31.2174 17.3545 31.6465 17.7102 32.1004 18.0327C32.2123 18.0972 32.3452 18.1151 32.4703 18.0823C32.5953 18.0496 32.7023 17.9689 32.7681 17.8579C32.8302 17.7456 32.8467 17.6138 32.8141 17.4898C32.7815 17.3657 32.7023 17.259 32.5929 17.1916C32.3085 16.9725 32.0123 16.7662 31.7506 16.5203C31.339 16.1395 31.0288 15.6625 30.8479 15.1322C30.6226 14.5384 30.6067 13.8856 30.8028 13.2816C30.8624 13.0292 31.0199 12.8107 31.2407 12.6742C31.3696 12.6238 31.5115 12.6167 31.6447 12.6543C31.778 12.6918 31.8952 12.7719 31.9787 12.8822C32.3934 13.3553 33.0806 12.663 32.6688 12.1935L32.6683 12.1938Z" fill="#4A3E42"/>
<path d="M36.777 8.73613C38.1795 9.69847 39.6701 10.5261 41.2289 11.208C42.9582 12.0214 44.7436 12.7105 46.5714 13.2698C47.4002 13.5253 48.248 13.7145 49.1068 13.8358C49.236 13.8352 49.3598 13.7837 49.4512 13.6925C49.5425 13.6013 49.5941 13.4777 49.5947 13.3487C49.5915 13.2206 49.5391 13.0986 49.4482 13.0079C49.3574 12.9173 49.2352 12.8649 49.1068 12.8617C47.5911 12.662 45.973 12.0942 44.5046 11.5375C42.7814 10.8881 41.1037 10.1244 39.4826 9.2514C38.7171 8.84643 37.9779 8.39365 37.2695 7.89577C37.1576 7.83157 37.0248 7.81392 36.8999 7.84664C36.775 7.87935 36.668 7.95981 36.6021 8.07061C36.5395 8.18274 36.5227 8.31467 36.5553 8.43884C36.5879 8.563 36.6673 8.66978 36.777 8.73686V8.73613Z" fill="#4A3E42"/>
<path d="M36.4756 8.19169C36.2447 8.58965 35.9604 8.95423 35.6306 9.27532C35.3293 9.58507 35.0278 9.9009 34.7004 10.1836C34.3122 10.5055 33.897 10.7934 33.4594 11.0442C33.0231 11.3158 32.5644 11.55 32.0884 11.7443C31.9655 11.7816 31.8617 11.8645 31.7982 11.9759C31.7346 12.0873 31.7163 12.2188 31.7469 12.3433C31.782 12.4675 31.8647 12.5729 31.977 12.6367C32.0894 12.7005 32.2224 12.7176 32.3472 12.6842C33.4373 12.2601 34.4505 11.6607 35.3466 10.9098C35.6916 10.619 36.0053 10.2878 36.32 9.9647C36.7088 9.58465 37.0443 9.15387 37.3175 8.68407C37.6193 8.13398 36.7769 7.64184 36.4749 8.19242L36.4756 8.19169Z" fill="#4A3E42"/>
<path d="M30.525 13.7848C30.145 12.6067 29.9969 11.3664 30.0888 10.1322C30.1382 8.88156 30.4151 7.65036 30.9061 6.49872C31.421 5.35259 32.1626 4.32215 33.0864 3.46925C34.0102 2.61635 35.0972 1.9586 36.282 1.53547C37.5192 1.09794 38.8318 0.912699 40.142 0.990708C41.4522 1.06872 42.7334 1.40839 43.9097 1.98962C45.627 2.879 47.0351 4.26548 47.9495 5.96738C49.1498 8.20476 49.2181 10.7266 48.7302 13.1697C48.6082 13.7819 49.5484 14.0439 49.6711 13.4286C49.9221 12.2867 50.0333 11.1186 50.0021 9.95001C49.9448 8.66967 49.6577 7.40999 49.1546 6.23086C48.2971 4.27756 46.8641 2.63116 45.0462 1.51063C42.6119 0.065561 39.7053 -0.364251 36.9558 0.314255C35.616 0.647406 34.3561 1.24396 33.25 2.069C32.1439 2.89405 31.2138 3.93101 30.514 5.11923C29.7282 6.51845 29.2603 8.07306 29.1435 9.67289C28.9846 11.1446 29.1346 12.6331 29.5841 14.0437C29.7897 14.6315 30.7329 14.3788 30.525 13.7848Z" fill="#4A3E42"/>
<path d="M39.622 10.9734L42.0651 9.39448C42.1205 9.3622 42.1689 9.31936 42.2076 9.2684C42.2464 9.21744 42.2747 9.15936 42.2909 9.09748C42.3072 9.0356 42.3111 8.97114 42.3024 8.90776C42.2937 8.84438 42.2725 8.78334 42.2402 8.72811C42.2078 8.67289 42.1649 8.62456 42.1139 8.58589C42.0628 8.54722 42.0046 8.51897 41.9426 8.50274C41.8807 8.48652 41.8161 8.48264 41.7526 8.49133C41.6891 8.50002 41.6279 8.52111 41.5726 8.55339L39.1304 10.1323C39.0187 10.1975 38.9375 10.3044 38.9046 10.4293C38.8718 10.5543 38.8901 10.6872 38.9554 10.7987C39.0207 10.9102 39.1277 10.9913 39.2529 11.0241C39.3781 11.0568 39.5112 11.0386 39.6229 10.9734H39.622Z" fill="#4A3E42"/>
<path d="M30.8517 16.4809C30.5854 16.7918 30.2081 16.9869 29.8001 17.0247C29.3106 17.0921 28.8137 17.0856 28.3261 17.0052C27.3105 16.8725 26.3336 16.5305 25.4575 16.0007C25.4104 15.9705 25.3648 15.9389 25.3187 15.907C25.2555 15.8634 25.3631 15.9518 25.2677 15.8678C25.2078 15.815 25.1508 15.7591 25.0969 15.7002C25.0898 15.6924 25.1457 15.7872 25.1047 15.7032C25.0559 15.5999 25.1257 15.7733 25.1103 15.719C25.1189 15.7661 25.1162 15.8146 25.1026 15.8605C25.0889 15.9065 25.0647 15.9486 25.0318 15.9834L24.8166 16.1086C25.7436 15.9269 26.3628 15.1346 26.6511 14.2796C26.99 13.277 26.849 12.1552 26.9229 11.1156C27.0366 9.51747 28.0975 7.02026 30.0992 7.35899C30.2239 7.38952 30.3557 7.3712 30.4673 7.3078C30.579 7.2444 30.6621 7.14072 30.6995 7.01807C30.7328 6.89345 30.7157 6.76076 30.6518 6.64866C30.5879 6.53657 30.4823 6.45408 30.358 6.41903C29.9058 6.33469 29.4405 6.35248 28.9961 6.47109C28.5517 6.58971 28.1395 6.80615 27.7899 7.10452C27.1135 7.70201 26.6038 8.46432 26.3106 9.31706C25.9576 10.2607 25.9283 11.2554 25.9066 12.2506C25.8881 13.0891 25.9049 14.0368 25.3267 14.7147C25.2167 14.8482 25.0828 14.96 24.9318 15.0445C24.761 15.1382 24.5463 15.1375 24.3904 15.2558C24.2921 15.337 24.2185 15.444 24.178 15.5648C24.1374 15.6855 24.1316 15.8152 24.1611 15.9391C24.2828 16.2926 24.531 16.5888 24.8581 16.7707C25.7918 17.3689 26.8423 17.7618 27.9399 17.9233C29.1204 18.1256 30.6912 18.1855 31.5404 17.1684C31.94 16.6901 31.2533 15.9976 30.8505 16.4797L30.8517 16.4809Z" fill="#4A3E42"/>
<path d="M89.5584 56.1785C89.3166 55.4261 88.8687 54.7562 88.2654 54.2445C87.5267 53.6823 86.6341 53.3576 85.7061 53.3136C84.4333 53.2505 83.1576 53.2745 81.888 53.3854C80.3333 53.4789 78.7811 53.61 77.2315 53.7787C76.5992 53.8476 75.9673 53.9231 75.3379 54.0156C74.9371 54.0596 74.5413 54.1412 74.1557 54.2592C72.5398 54.8192 71.643 56.3777 71.3118 57.9761C70.9834 59.5614 70.8634 61.7111 72.2707 62.8235C73.0453 63.4357 73.9101 63.4593 74.8542 63.4605C75.8998 63.4605 76.9451 63.4517 77.9904 63.4422C80.076 63.4235 82.1693 63.4685 84.2529 63.3706C85.1153 63.3302 85.9784 63.2708 86.8356 63.1673C87.447 63.0942 88.1269 63.0434 88.6882 62.7667C90.4022 61.922 90.2932 59.4206 90.0055 57.858C89.8977 57.2883 89.7481 56.7273 89.5579 56.1795C89.3562 55.5897 88.4133 55.843 88.617 56.4383C88.9706 57.4084 89.1662 58.4287 89.1961 59.4606C89.202 60.157 89.1229 60.9635 88.6787 61.5338C88.5972 61.6389 88.501 61.7317 88.393 61.8095C88.3298 61.8522 88.264 61.891 88.1959 61.9256C88.1259 61.9636 88.2115 61.9203 88.2228 61.9159C88.1935 61.9273 88.1635 61.9383 88.1335 61.9478C87.8902 62.0197 87.6425 62.0754 87.3918 62.1144C86.6529 62.2376 85.9015 62.2953 85.1546 62.3454C83.3381 62.4672 81.5197 62.438 79.6988 62.4531C78.6445 62.4618 77.5899 62.4731 76.5353 62.4804C75.659 62.4864 74.749 62.5534 73.8762 62.4748C73.5202 62.4363 73.1818 62.3001 72.8988 62.0811C72.6158 61.8622 72.3992 61.5691 72.2732 61.2346C72.0292 60.5722 72.0744 59.7511 72.1334 59.0593C72.2466 57.7268 72.7201 56.1595 73.9369 55.428C74.3125 55.2179 74.7249 55.0815 75.1518 55.026C75.6761 54.9361 76.0515 54.8906 76.5714 54.8287C77.969 54.6627 79.3717 54.5365 80.7751 54.4345C82.1074 54.3371 83.4454 54.254 84.7818 54.2584C86.0433 54.2626 87.3972 54.4333 88.1715 55.5573C88.3581 55.8303 88.508 56.1265 88.6175 56.4383C88.8251 57.0242 89.7692 56.7715 89.5584 56.1785Z" fill="#4A3E42"/>
<path d="M39.7101 20.2316C40.0373 20.5536 40.4537 20.7701 40.9055 20.8533C41.2682 20.9422 41.6445 20.9623 42.0147 20.9125C42.2458 20.8675 42.4681 20.786 42.6734 20.6709C42.7844 20.6051 42.8651 20.4983 42.8978 20.3736C42.9306 20.2489 42.9128 20.1164 42.8483 20.0047C42.7809 19.8954 42.674 19.8163 42.5497 19.7838C42.4254 19.7512 42.2933 19.7677 42.1808 19.8298C42.1452 19.8481 42.1099 19.8664 42.074 19.8839C42.0572 19.8919 42.0398 19.8995 42.0233 19.9082C41.9435 19.9487 42.1406 19.8651 42.0537 19.8958C42.0101 19.9112 41.9669 19.927 41.9223 19.9394C41.8706 19.945 41.8197 19.9558 41.7703 19.9716C41.8039 19.9526 41.8764 19.9599 41.7898 19.9664C41.7612 19.9689 41.7325 19.9703 41.7039 19.9711C41.6324 19.9728 41.561 19.9711 41.4897 19.965C41.4531 19.9623 41.4165 19.9584 41.3804 19.9545C41.2365 19.9392 41.4758 19.973 41.3397 19.9482C41.269 19.9353 41.1982 19.9226 41.1282 19.9063C41.0134 19.8801 40.9005 19.8461 40.7903 19.8045C40.7393 19.7848 40.7115 19.7466 40.7998 19.8094C40.7802 19.7983 40.7597 19.7887 40.7386 19.7809C40.6976 19.7609 40.6574 19.7395 40.6181 19.7166C40.5864 19.6981 40.5552 19.6784 40.5249 19.6577C40.5088 19.6467 40.4932 19.6333 40.4761 19.6231C40.5893 19.6842 40.5544 19.6864 40.5173 19.654C40.4766 19.6193 40.4377 19.5824 40.401 19.5435C40.309 19.453 40.185 19.4023 40.0559 19.4023C39.9268 19.4023 39.8028 19.453 39.7108 19.5435C39.6219 19.6361 39.5723 19.7595 39.5723 19.8878C39.5723 20.0161 39.6219 20.1395 39.7108 20.2321L39.7101 20.2316Z" fill="#4A3E42"/>
<path d="M41.5956 16.8407C41.5981 16.8577 41.6003 16.8748 41.6027 16.8918L41.5852 16.7625C41.6027 16.8924 41.6179 17.0222 41.6308 17.1521C41.6501 17.276 41.6563 17.4017 41.6493 17.5269L41.6666 17.3973C41.6639 17.4165 41.6592 17.4353 41.6527 17.4536L41.7015 17.3372C41.6958 17.3504 41.6886 17.363 41.6801 17.3747L41.7564 17.2773C41.752 17.2828 41.747 17.2879 41.7415 17.2924L41.8391 17.2164C41.8304 17.2231 41.821 17.2289 41.8111 17.2335L41.9277 17.1848C41.8931 17.1992 41.8572 17.2098 41.8203 17.2164L41.9499 17.1991C41.9175 17.2034 41.8847 17.2034 41.8523 17.1991L41.9821 17.2164C41.9347 17.2089 41.8906 17.1921 41.8445 17.1794C41.7175 17.1468 41.5828 17.1642 41.4683 17.2281C41.3854 17.2764 41.3187 17.3481 41.2764 17.4341C41.2341 17.5202 41.2182 17.6167 41.2307 17.7117C41.2431 17.8068 41.2834 17.896 41.3464 17.9683C41.4094 18.0406 41.4924 18.0927 41.5849 18.1181C41.6313 18.1301 41.6754 18.1471 41.7227 18.1551C41.8656 18.1861 42.0141 18.1795 42.1536 18.1359C42.2599 18.1051 42.3574 18.0493 42.4378 17.9732C42.5088 17.8997 42.5615 17.8105 42.5917 17.7129C42.6218 17.6157 42.6329 17.5136 42.6244 17.4122C42.6093 17.1343 42.5737 16.8577 42.5346 16.5823C42.5008 16.4598 42.4203 16.3554 42.3104 16.2913C42.2551 16.259 42.194 16.2379 42.1304 16.2291C42.0669 16.2204 42.0023 16.2243 41.9403 16.2405C41.8783 16.2567 41.8201 16.285 41.7691 16.3236C41.718 16.3623 41.6751 16.4107 41.6427 16.4659L41.5939 16.5823C41.5705 16.6671 41.5705 16.7566 41.5939 16.8414L41.5956 16.8407Z" fill="#4A3E42"/>
<path d="M37.5588 14.2268C37.3768 14.6407 37.3483 15.6372 38.1526 15.8154C39.2294 15.9338 39.4256 14.7471 39.1284 14.1442C38.8854 13.6506 38.0345 13.3586 37.5588 14.2268Z" fill="#4A3E42"/>
<path d="M44.3222 14.742C44.1353 15.1382 44.0558 16.1057 44.772 16.3024C45.7376 16.4485 45.9786 15.304 45.7432 14.7091C45.5495 14.2226 44.7991 13.9133 44.3222 14.742Z" fill="#4A3E42"/>
</g>
</svg>
