<svg width="18" height="18" viewBox="0 0 18 18" fill="none" xmlns="http://www.w3.org/2000/svg">
<path fill-rule="evenodd" clip-rule="evenodd" d="M9 13.8C11.651 13.8 13.8 11.651 13.8 9C13.8 6.34903 11.651 4.2 9 4.2C6.34903 4.2 4.2 6.34903 4.2 9C4.2 11.651 6.34903 13.8 9 13.8ZM9 15C12.3137 15 15 12.3137 15 9C15 5.68629 12.3137 3 9 3C5.68629 3 3 5.68629 3 9C3 12.3137 5.68629 15 9 15Z" fill="#E5005A"/>
<path fill-rule="evenodd" clip-rule="evenodd" d="M11.9072 7.12999C12.1115 7.35475 12.0949 7.70259 11.8702 7.90692L8.57018 10.9069C8.45989 11.0072 8.31364 11.0584 8.1649 11.0488C8.01616 11.0393 7.87767 10.9697 7.78114 10.8562L6.08114 8.85616C5.88441 8.62472 5.91256 8.27762 6.144 8.08089C6.37544 7.88416 6.72255 7.9123 6.91927 8.14375L8.25099 9.71048L11.1302 7.09299C11.355 6.88866 11.7028 6.90522 11.9072 7.12999Z" fill="#E5005A"/>
</svg>
