<svg width="26" height="26" viewBox="0 0 26 26" fill="none" xmlns="http://www.w3.org/2000/svg">
<path fill-rule="evenodd" clip-rule="evenodd" d="M17.2612 4.2668C17.2612 6.62328 15.3964 11.3527 13.0959 11.3527C10.7955 11.3527 8.93065 6.62328 8.93065 4.2668C8.93065 1.91031 10.7955 0 13.0959 0C15.3964 0 17.2612 1.91031 17.2612 4.2668ZM21.7035 19.2718C20.3882 17.3384 16.2186 14.5504 14.3312 15.8977C12.4439 17.245 13.5535 22.2174 14.8688 24.1507C16.184 26.0841 18.7802 26.5592 20.6676 25.2119C22.5549 23.8646 23.0187 21.2051 21.7035 19.2718ZM15.1407 13.1452C15.7219 15.4252 20.6602 16.0787 22.886 15.4834C25.1118 14.888 26.445 12.5571 25.8639 10.277C25.2827 7.997 23.0072 6.63127 20.7814 7.22661C18.5556 7.82195 14.5596 10.8651 15.1407 13.1452ZM2.89996 14.8863C5.09147 15.6028 10.0568 15.2209 10.7563 12.976C11.4557 10.7311 7.62438 7.47321 5.43286 6.75672C3.24135 6.04023 0.897762 7.27927 0.19832 9.52419C-0.501123 11.7691 0.708441 14.1698 2.89996 14.8863ZM10.908 15.6047C12.8974 16.788 12.1918 21.8372 11.0366 23.875C9.88149 25.9129 7.33236 26.6057 5.34298 25.4224C3.3536 24.2391 2.67732 21.6278 3.83246 19.59C4.98759 17.5521 8.91864 14.4214 10.908 15.6047Z" fill="#FDD000"/>
<path fill-rule="evenodd" clip-rule="evenodd" d="M2.89996 14.8858C5.09147 15.6023 10.0568 15.2204 10.7563 12.9755C11.4557 10.7305 7.62438 7.47268 5.43286 6.75619C3.24135 6.0397 0.897762 7.27874 0.19832 9.52367C-0.501123 11.7686 0.708441 14.1693 2.89996 14.8858ZM10.908 15.6042C12.8974 16.7874 12.1918 21.8366 11.0366 23.8745C9.88149 25.9124 7.33236 26.6051 5.34298 25.4218C3.35361 24.2386 2.67732 21.6273 3.83246 19.5894C4.98759 17.5516 8.91865 14.4209 10.908 15.6042Z" fill="#F2D5E1"/>
</svg>
