<svg width="20" height="20" viewBox="0 0 20 20" fill="none" xmlns="http://www.w3.org/2000/svg">
<path fill-rule="evenodd" clip-rule="evenodd" d="M13.2779 3.28215C13.2779 5.09483 11.8434 8.73287 10.0738 8.73287C8.30424 8.73287 6.86973 5.09483 6.86973 3.28215C6.86973 1.46947 8.30424 0 10.0738 0C11.8434 0 13.2779 1.46947 13.2779 3.28215ZM16.695 14.8244C15.6833 13.3373 12.4758 11.1926 11.024 12.229C9.5722 13.2654 10.4258 17.0903 11.4375 18.5775C12.4492 20.0647 14.4463 20.4301 15.8981 19.3938C17.3499 18.3574 17.7067 16.3116 16.695 14.8244ZM11.6467 10.1117C12.0938 11.8656 15.8925 12.3682 17.6046 11.9103C19.3168 11.4523 20.3423 9.6593 19.8953 7.90542C19.4482 6.15154 17.6978 5.10098 15.9857 5.55893C14.2735 6.01688 11.1997 8.35779 11.6467 10.1117ZM2.23074 11.451C3.91652 12.0021 7.73602 11.7084 8.27405 9.98153C8.81209 8.25466 5.8649 5.74862 4.17912 5.19748C2.49334 4.64633 0.690586 5.59944 0.152554 7.3263C-0.385479 9.05317 0.544955 10.8999 2.23074 11.451ZM8.39079 12.0036C9.92108 12.9138 9.37828 16.7978 8.48971 18.3654C7.60114 19.933 5.64028 20.4659 4.10999 19.5557C2.5797 18.6454 2.05948 16.6368 2.94804 15.0692C3.83661 13.5016 6.8605 11.0934 8.39079 12.0036Z" fill="#FDD000"/>
</svg>
