<svg width="80" height="83" viewBox="0 0 80 83" fill="none" xmlns="http://www.w3.org/2000/svg">
<path fill-rule="evenodd" clip-rule="evenodd" d="M58.8504 82.5689C53.0807 82.3497 36.7291 80.0175 19.6041 62.3479C2.48317 44.6741 0.227352 27.8026 0.0109866 21.8438C-0.309555 12.763 6.42984 3.94266 14.215 0.498057C15.1525 0.0802679 16.1791 -0.0787974 17.1942 0.0364706C18.2092 0.151739 19.1777 0.537379 20.0048 1.15555C26.4156 5.97717 30.8391 13.2716 34.6375 19.0071C35.4733 20.2672 35.8306 21.8006 35.6414 23.3151C35.4523 24.8296 34.7298 26.2194 33.6118 27.2196L25.7946 33.2114C25.4169 33.4929 25.1511 33.9063 25.0464 34.3748C24.9418 34.8432 25.0054 35.335 25.2256 35.7587C26.9966 39.0792 30.1459 44.0249 33.752 47.7466C37.3621 51.4682 42.3786 54.9335 45.8204 56.968C46.252 57.218 46.7599 57.2879 47.2398 57.1633C47.7198 57.0387 48.1352 56.7291 48.4008 56.2981L53.4894 48.3048C54.4249 47.0223 55.805 46.1631 57.3406 45.9072C58.8762 45.6513 60.4482 46.0185 61.7273 46.932C67.3648 50.9596 73.944 55.4463 78.7601 61.8103C79.4077 62.67 79.8197 63.6935 79.9529 64.7737C80.0861 65.854 79.9357 66.9513 79.5174 67.951C76.1637 76.027 67.6774 82.9038 58.8504 82.5689Z" fill="#E3EFF6"/>
</svg>
