<svg width="18" height="18" viewBox="0 0 18 18" fill="none" xmlns="http://www.w3.org/2000/svg">
<path fill-rule="evenodd" clip-rule="evenodd" d="M11.7998 8.50005C11.7998 10.8749 9.87463 12.8 7.4998 12.8C5.12498 12.8 3.1998 10.8749 3.1998 8.50005C3.1998 6.12522 5.12498 4.20005 7.4998 4.20005C9.87463 4.20005 11.7998 6.12522 11.7998 8.50005ZM7.4998 14.2C10.6478 14.2 13.1998 11.6481 13.1998 8.50005C13.1998 5.35203 10.6478 2.80005 7.4998 2.80005C4.35178 2.80005 1.7998 5.35203 1.7998 8.50005C1.7998 11.6481 4.35178 14.2 7.4998 14.2ZM7.4998 13C9.98509 13 11.9998 10.9853 11.9998 8.50005C11.9998 7.87873 11.8739 7.28682 11.6462 6.74845C11.8739 7.28682 11.9998 7.87874 11.9998 8.50006C11.9998 10.9853 9.9851 13.0001 7.49982 13.0001C6.95305 13.0001 6.42905 12.9025 5.94428 12.724C6.42905 12.9025 6.95304 13 7.4998 13ZM9.7998 3.50259C9.10002 3.17999 8.32092 3.00005 7.4998 3.00005C4.46224 3.00005 1.9998 5.46248 1.9998 8.50005C1.9998 9.63914 2.34608 10.6973 2.93912 11.5752C2.34609 10.6973 1.99982 9.63914 1.99982 8.50006C1.99982 5.46249 4.46225 3.00006 7.49982 3.00006C8.32093 3.00006 9.10002 3.17999 9.7998 3.50259Z" fill="white"/>
<path fill-rule="evenodd" clip-rule="evenodd" d="M11.3532 11.3638L10.3633 12.3537L14.5047 16.4951C14.7781 16.7685 15.2213 16.7685 15.4947 16.4951C15.768 16.2218 15.768 15.7786 15.4947 15.5052L11.3532 11.3638ZM15.4874 16.1104C15.5238 15.9487 15.4791 15.7725 15.3532 15.6466L11.3532 11.6466L10.6461 12.3537L10.6461 12.3537L11.3532 11.6466L15.3532 15.6466C15.4791 15.7725 15.5238 15.9487 15.4874 16.1104Z" fill="white"/>
</svg>
