<svg width="130" height="80" viewBox="0 0 130 80" fill="none" xmlns="http://www.w3.org/2000/svg">
<mask id="mask0_1512_25413" style="mask-type:alpha" maskUnits="userSpaceOnUse" x="0" y="0" width="130" height="80">
<rect width="130" height="80" fill="#D9D9D9"/>
</mask>
<g mask="url(#mask0_1512_25413)">
<path d="M2.74987 1.05896H0.527344C0.527344 2.95659 0.527344 57.0276 0.527344 58.8441C8.8523 58.8441 85.8098 58.7717 97.1776 58.7603C97.1871 39.3029 97.1995 2.25534 97.1998 1.05078C86.6766 1.05107 18.2663 1.05779 2.74987 1.05896Z" fill="white"/>
<path d="M59.2088 23.7591C59.2088 22.5882 59.207 21.8548 59.207 21.7832H68.7947V46.0214C65.7087 46.0284 62.4853 46.036 59.2293 46.0443C59.2301 44.5082 59.2142 29.2762 59.2088 23.7591Z" fill="#65B005"/>
<path d="M70.1629 13.148C70.1366 13.0505 70.0838 12.9624 70.0106 12.8938C69.9374 12.8251 69.8467 12.7787 69.7488 12.7598C69.0308 12.5618 68.2738 12.5618 67.5558 12.7598C66.6204 12.9937 65.7735 13.5019 65.1205 14.221C64.7599 14.654 64.4893 15.1565 64.3247 15.6983C64.1602 16.2401 64.1051 16.81 64.1628 17.374C64.1667 17.4076 64.1808 17.4392 64.2033 17.4642C64.2257 17.4892 64.2553 17.5065 64.2879 17.5136C64.7886 17.6494 66.8468 18.0866 68.4834 16.9579C69.2423 16.46 69.8227 15.7266 70.1381 14.8668C70.2856 14.3047 70.2941 13.7143 70.1629 13.148Z" fill="#65B005"/>
<path d="M57.8599 13.148C57.8863 13.0505 57.9391 12.9624 58.0123 12.8938C58.0855 12.8251 58.1762 12.7787 58.274 12.7598C58.9921 12.5618 59.7491 12.5618 60.4671 12.7598C61.4026 12.9936 62.2496 13.5018 62.9027 14.221C63.2631 14.6541 63.5336 15.1565 63.6982 15.6983C63.8627 16.2401 63.9179 16.8101 63.8603 17.374C63.8564 17.4077 63.8422 17.4392 63.8198 17.4643C63.7973 17.4893 63.7676 17.5066 63.735 17.5136C63.2345 17.6494 61.1763 18.0866 59.5398 16.9579C58.7808 16.46 58.2003 15.7266 57.8848 14.8668C57.7374 14.3046 57.7289 13.7143 57.8599 13.148Z" fill="#65B005"/>
<path d="M74.966 59.1385H74.9695V57.9656C74.2475 57.9723 73.5256 57.967 72.8036 57.9679L75.5473 57.9741L66.783 57.9832L61.9787 57.9943L49.9748 58.0063C45.8367 58.0108 41.6987 58.0149 37.5608 58.0186L25.6816 58.0301L15.126 58.04L6.73475 58.0471C4.93427 58.0485 3.1336 58.0496 1.33274 58.0506H0.57757L1.15514 58.6371V52.3499C1.15514 47.8144 1.15514 43.2796 1.15514 38.7454V0.594502L0.57757 1.18099H5.08261H12.6664H22.6055H34.2164H46.663H59.254H71.3047H81.973H90.5788H96.4024H97.3017L96.7241 0.594502C96.7241 3.82489 96.7221 18.0553 96.7181 21.2857C96.7241 24.8479 96.697 24.66 96.697 24.66C96.697 25.4146 97.8521 25.416 97.8521 24.66C97.8659 4.35929 97.8667 20.3375 97.877 4.28265C97.877 3.05336 97.8777 1.82398 97.8793 0.594502C97.877 0.439663 97.8155 0.291803 97.7076 0.182303C97.5998 0.0728037 97.4542 0.0102835 97.3017 0.00801168H92.2711H84.2775H74.0421H62.2467L49.7287 0.00390625H37.181H25.2872H14.8883H6.66573L1.33967 0.00801168H0.57757C0.425062 0.0102097 0.27941 0.0727062 0.17156 0.182222C0.0637105 0.291737 0.0021646 0.439639 0 0.594502V36.7883C0 41.516 0 46.2439 0 50.972V58.6374C0.0021646 58.7922 0.0637105 58.9402 0.17156 59.0497C0.27941 59.1592 0.425062 59.2217 0.57757 59.2239C2.09138 59.2239 3.60538 59.223 5.11958 59.2212L12.859 59.2148L22.9665 59.2057L34.6016 59.1946L46.9246 59.1825L59.144 59.1702L66.3168 59.1588L73.6538 59.1491L71.686 59.1421C72.7349 59.1421 73.7875 59.1667 74.8358 59.1385C74.8805 59.1385 74.925 59.1385 74.9695 59.1385C75.1227 59.1385 75.2699 59.0768 75.3782 58.9668C75.4865 58.8568 75.5473 58.7076 75.5473 58.5521C75.5473 58.3965 75.4865 58.2473 75.3782 58.1373C75.2699 58.0274 75.1227 57.9656 74.9695 57.9656H74.9663C74.223 57.9656 74.2215 59.1385 74.966 59.1385Z" fill="#4A3E42"/>
<path d="M27.7547 46.118C27.7547 42.5759 27.7414 39.0335 27.7342 35.4914C27.7342 34.9788 27.7332 34.4664 27.7313 33.9542L27.1537 34.5407H36.7414L36.1638 33.9542V46.098C36.1638 46.8528 37.319 46.854 37.319 46.098V33.9542C37.3169 33.7993 37.2554 33.6513 37.1475 33.5418C37.0396 33.4323 36.8939 33.3698 36.7414 33.3677H27.1537C27.0012 33.3699 26.8556 33.4324 26.7477 33.5419C26.6399 33.6514 26.5783 33.7993 26.5762 33.9542C26.5762 37.3617 26.5903 40.7695 26.5967 44.1773C26.5978 44.8242 26.5988 45.4711 26.5996 46.118C26.5996 46.8728 27.7547 46.874 27.7547 46.118Z" fill="#4A3E42"/>
<path d="M43.7805 46.0847C43.7805 43.8525 43.7783 41.6203 43.7739 39.3882C43.7704 36.2974 43.7669 33.2067 43.7632 30.116C43.7632 29.3671 43.7623 28.6182 43.7606 27.8692L43.183 28.4557H52.7707L52.1931 27.8692V46.0645C52.1931 46.8193 53.3483 46.8205 53.3483 46.0645V27.8692C53.3461 27.7143 53.2846 27.5664 53.1767 27.4569C53.0689 27.3474 52.9232 27.2849 52.7707 27.2827H43.183C43.0305 27.2849 42.8849 27.3474 42.777 27.4569C42.6692 27.5664 42.6076 27.7143 42.6055 27.8692C42.6055 29.8525 42.6078 31.8359 42.6124 33.8194C42.6159 36.98 42.6194 40.1405 42.6231 43.3009C42.6231 44.2288 42.6239 45.1567 42.6254 46.0847C42.6254 46.8395 43.7805 46.8407 43.7805 46.0847Z" fill="#4A3E42"/>
<path d="M59.8071 46.0465C59.8071 43.0835 59.8045 40.1204 59.7993 37.157C59.7953 33.0158 59.7911 28.8745 59.7866 24.7331C59.7866 23.7496 59.7858 22.7661 59.784 21.7828L59.2065 22.3693H68.7941L68.2166 21.7828V46.023C68.2166 46.7775 69.3717 46.779 69.3717 46.023V21.7828C69.3695 21.6279 69.3079 21.4801 69.2001 21.3706C69.0922 21.2611 68.9466 21.1986 68.7941 21.1963H59.2065C59.0539 21.1984 58.9083 21.2609 58.8004 21.3704C58.6925 21.48 58.631 21.6279 58.6289 21.7828C58.6289 24.4046 58.6315 27.0266 58.6367 29.6488C58.6411 33.8856 58.6453 38.1225 58.6491 42.3595C58.6503 43.5886 58.6512 44.8176 58.652 46.0465C58.652 46.8013 59.8071 46.8025 59.8071 46.0465Z" fill="#4A3E42"/>
<path d="M75.7783 45.3848C73.4873 45.3848 71.1969 45.3898 68.9072 45.4C64.9318 45.4112 60.9562 45.4233 56.9804 45.4364L42.9544 45.4801C38.6034 45.4936 34.2524 45.5063 29.9014 45.5182C26.8947 45.526 23.8882 45.5322 20.8818 45.5367H20.1809C19.4378 45.5367 19.4364 46.7096 20.1809 46.7096C22.9711 46.7096 25.7612 46.7046 28.551 46.6944C32.7819 46.6836 37.0127 46.6715 41.2434 46.658C45.9336 46.644 50.6238 46.6293 55.3139 46.614C59.4381 46.6011 63.5622 46.5885 67.6863 46.5762C70.2256 46.5688 72.765 46.5626 75.3044 46.5577H75.7783C76.5216 46.5577 76.5228 45.3848 75.7783 45.3848Z" fill="#4A3E42"/>
<path d="M70.7206 12.9903C70.4694 12.1073 69.3512 12.005 68.5873 12.0258C67.6982 12.0532 66.8286 12.297 66.0515 12.7366C65.2416 13.1631 64.5741 13.8234 64.133 14.6344C63.6919 15.4453 63.4969 16.3707 63.5726 17.2939C63.6402 18.0174 64.2336 18.1288 64.8164 18.2132C66.2239 18.4168 67.7201 18.2344 68.9007 17.3743C69.4787 16.9681 69.967 16.4441 70.3345 15.8356C70.8115 14.9707 70.9494 13.9548 70.7206 12.9911C70.6788 12.8418 70.581 12.7151 70.4481 12.6383C70.3152 12.5615 70.158 12.5408 70.0102 12.5806C69.864 12.6244 69.7403 12.7241 69.6649 12.8586C69.5895 12.9931 69.5684 13.152 69.6059 13.302C69.7501 13.9005 69.6851 14.5313 69.4222 15.0867C69.1783 15.5372 68.8491 15.9343 68.4536 16.2552C68.4248 16.2793 68.3959 16.3025 68.367 16.325C68.4649 16.2479 68.3471 16.3385 68.3321 16.3491C68.285 16.3825 68.2382 16.4171 68.1903 16.4497C67.9267 16.6331 67.6401 16.7798 67.3381 16.8857C66.8055 17.0622 66.2463 17.1416 65.6865 17.1203C65.3087 17.1035 64.933 17.0557 64.5628 16.9772C64.5362 16.9687 64.5091 16.9619 64.4817 16.957C64.3327 16.9543 64.6879 17.4505 64.7228 17.2614C64.7255 17.1942 64.7221 17.127 64.7124 17.0605C64.7062 16.8469 64.7163 16.6332 64.7427 16.4212C64.8755 15.5075 65.353 14.6821 66.0743 14.1195C66.5622 13.7472 67.1181 13.4773 67.7097 13.3254C68.1099 13.2229 68.523 13.1825 68.935 13.2055C69.1005 13.2154 69.2648 13.2401 69.426 13.2794C69.4837 13.2932 69.5398 13.314 69.5966 13.3254C69.741 13.3548 69.6365 13.4058 69.6076 13.304C69.8115 14.0272 70.9265 13.7193 70.7206 12.9903Z" fill="#4A3E42"/>
<path d="M58.418 13.3037C58.3862 13.4146 58.2802 13.3407 58.418 13.3257C58.4507 13.3207 58.4828 13.3125 58.5139 13.3011C58.6397 13.2633 58.7685 13.2366 58.8988 13.2213C59.2573 13.1769 59.6203 13.1868 59.976 13.2506C60.6026 13.3593 61.1998 13.6006 61.7286 13.9588C62.4874 14.4624 63.0254 15.2442 63.2303 16.1409C63.2755 16.3376 63.3013 16.5385 63.3071 16.7405C63.294 16.914 63.2915 17.0881 63.2996 17.2619C63.3343 17.4514 63.6898 16.9549 63.541 16.9575C63.5136 16.9625 63.4865 16.9693 63.4599 16.9778C63.39 16.9892 63.321 17.0094 63.2517 17.0232C63.0694 17.0624 62.8846 17.0884 62.6987 17.1009C61.6397 17.2235 60.5725 16.9569 59.6904 16.3493C59.6904 16.3493 59.5749 16.2614 59.637 16.3103C59.6852 16.3476 59.5408 16.2312 59.5252 16.218C59.4251 16.1327 59.3288 16.0433 59.2364 15.9497C59.045 15.7601 58.876 15.5484 58.7331 15.3189C58.3701 14.7152 58.2571 13.9903 58.4186 13.3022C58.4552 13.1523 58.4337 12.9938 58.3584 12.8595C58.2832 12.7252 58.1599 12.6255 58.0143 12.5809C57.8665 12.5409 57.7092 12.5615 57.5762 12.6383C57.4433 12.7152 57.3455 12.842 57.3039 12.9914C57.1032 13.8502 57.1874 14.7522 57.5436 15.5573C57.8418 16.1669 58.2699 16.7015 58.7969 17.1223C59.9015 18.0052 61.3003 18.4185 62.6989 18.2754C63.1214 18.2399 63.8653 18.2276 64.1951 17.9C64.5821 17.5156 64.4839 16.7687 64.4181 16.2737C64.3281 15.6161 64.102 14.9854 63.7546 14.423C63.4072 13.8606 62.9464 13.3793 62.4026 13.0108C61.6295 12.4744 60.7355 12.1448 59.8036 12.0524C58.9745 11.9624 57.5883 11.9979 57.3056 12.9908C57.0971 13.7184 58.2115 14.0286 58.418 13.3037Z" fill="#4A3E42"/>
<path d="M63.4297 17.7603C63.4297 19.0377 63.4219 20.3154 63.4219 21.5927C63.4219 21.7483 63.4827 21.8975 63.591 22.0074C63.6994 22.1174 63.8463 22.1792 63.9994 22.1792C64.1526 22.1792 64.2995 22.1174 64.4078 22.0074C64.5162 21.8975 64.577 21.7483 64.577 21.5927C64.577 20.3154 64.5845 19.0377 64.5848 17.7603C64.5848 17.6048 64.524 17.4556 64.4156 17.3456C64.3073 17.2356 64.1604 17.1738 64.0072 17.1738C63.8541 17.1738 63.7072 17.2356 63.5988 17.3456C63.4905 17.4556 63.4297 17.6048 63.4297 17.7603Z" fill="#4A3E42"/>
<path d="M104.22 54.8307C105.076 55.3586 106.916 55.9228 109.226 55.9228C112.221 55.9228 113.333 55.0539 114.488 54.4046L114.517 51.7886C113.813 51.3053 113.143 50.7737 113.001 50.4153C112.844 49.8815 112.785 49.323 112.827 48.7676C114.822 47.899 116.426 45.173 116.706 44.4018C116.747 44.2762 116.828 44.0434 116.903 43.7654L117.134 43.7293C117.477 43.6711 117.8 43.5234 118.07 43.3006C118.403 43.0132 118.671 42.6562 118.856 42.254C119.247 41.4582 119.416 40.5685 119.343 39.682C119.332 39.4554 119.276 39.2335 119.176 39.0307C119.089 38.8837 118.972 38.7583 118.831 38.6635C118.691 38.5688 118.532 38.5072 118.365 38.4832C118.195 38.4579 118.021 38.4702 117.857 38.5192C117.692 38.5681 117.539 38.6527 117.409 38.767L116.921 39.2151C116.509 37.7981 115.868 36.4604 115.024 35.2563C114.536 34.5709 113.865 34.0406 113.091 33.7273C112.317 33.4141 111.471 33.3307 110.652 33.4869L110.612 33.4951C106.954 34.4871 102.879 36.7442 101.567 39.0022C101.447 38.8117 101.275 38.661 101.072 38.5686C100.869 38.4762 100.644 38.4462 100.424 38.4823C100.257 38.5063 100.098 38.5679 99.9575 38.6626C99.8172 38.7574 99.6995 38.8828 99.6132 39.0298C99.5133 39.2327 99.4565 39.4545 99.4463 39.6811C99.3733 40.5676 99.5419 41.4574 99.9335 42.2531C100.118 42.6553 100.386 43.0123 100.719 43.2997C101.065 43.5899 101.5 43.7483 101.949 43.7478C102.245 44.8698 102.772 45.9153 103.494 46.8157C104.163 47.6682 105.02 48.3489 105.996 48.8028C106.036 49.3466 105.977 49.8932 105.823 50.4156C105.683 50.7658 104.985 51.2807 104.235 51.754C104.235 51.7537 104.22 54.0982 104.22 54.8307Z" fill="white"/>
<path d="M114.643 80.3599C114.421 79.7322 114.244 79.0889 114.115 78.4351C113.98 77.5899 113.848 76.697 113.734 75.7305C111.564 75.7478 105.937 75.8618 104.713 75.8618H104.399C104.287 76.7779 104.16 77.6283 104.032 78.4351C103.902 79.0888 103.726 79.7322 103.504 80.3599H114.643Z" fill="white"/>
<path d="M119.951 67.6765C120.169 66.732 120.39 65.5593 120.602 64.2837H126.013C124.887 61.3002 124.69 59.5888 123.565 56.6053C123.37 56.0633 123.071 55.5665 122.683 55.1444C122.304 54.7321 121.717 54.6166 121.217 54.3717C119.744 53.6491 117.319 52.9149 115.701 52.143C115.359 51.7199 114.998 51.2926 114.6 50.8422L113.647 50.6211C114.002 53.7726 113.822 56.9581 113.642 60.1249C113.574 61.3272 113.435 63.7025 113.371 66.3947C113.351 67.2648 113.338 68.1674 113.338 69.0738C113.335 72.2117 113.595 75.344 114.115 78.4372C114.245 79.091 114.421 79.7343 114.643 80.362H120.297C119.814 76.9044 119.392 72.6497 119.392 71.8872C119.419 70.4666 119.606 69.0537 119.951 67.6765Z" fill="white"/>
<path d="M104.034 78.4352C104.554 75.3421 104.814 72.2097 104.811 69.0719C104.811 65.3615 104.598 61.7114 104.508 60.1229C104.327 56.9559 104.147 53.7706 104.502 50.6191L103.772 50.8402C103.43 51.2282 103.114 51.5992 102.817 51.9666C101.216 52.8032 98.5298 53.5938 96.945 54.3712C96.4451 54.6167 95.858 54.7316 95.4791 55.1439C95.0917 55.5659 94.7918 56.0627 94.5975 56.6049C93.9075 58.4338 93.5665 59.7848 93.1463 61.244C92.8723 62.1956 92.5647 63.1932 92.105 64.3993C91.4598 62.8651 90.8955 61.4416 90.2567 59.8443C88.6372 60.71 86.0587 61.9097 84.4395 62.2671C85.2481 64.8887 86.0566 67.7112 87.1927 70.3358C87.9831 72.1603 88.8299 74.0307 90.7659 74.3488C91.4219 74.4233 92.086 74.3594 92.7166 74.1613C93.3472 73.9632 93.9308 73.6351 94.4308 73.1976C95.5587 72.097 96.6082 70.9167 97.5717 69.6654L97.8316 69.3197L98.3904 68.5778C98.6211 69.6649 98.744 70.7727 98.7574 71.8847C98.7574 72.6489 98.3349 76.9024 97.8524 80.3595H103.507C103.728 79.7319 103.905 79.0888 104.034 78.4352Z" fill="white"/>
<path d="M87.9246 53.4C87.6749 53.1202 87.4991 52.7807 87.4137 52.4132C87.2771 51.7792 86.9453 50.947 86.282 50.9071C86.1318 50.8969 85.9833 50.9442 85.8657 51.0396C85.7481 51.135 85.67 51.2717 85.6466 51.4227C85.6466 51.4227 85.6039 51.5693 85.5352 51.8068C85.3792 51.7477 85.2183 51.7031 85.0543 51.6737C83.9038 51.4596 82.647 51.7182 82.606 52.322C82.5535 52.6223 82.6297 52.8892 82.8627 53.3628C82.6583 53.5704 82.5101 54.1665 82.6661 54.2938C82.6661 54.2938 82.7126 54.4366 82.766 54.5991C82.6313 54.5654 82.4901 54.5695 82.3575 54.6108C82.2249 54.6521 82.1058 54.7291 82.0129 54.8337C81.7769 55.0976 81.597 55.6627 81.8817 55.8694C82.0071 55.9603 82.118 56.0518 82.2251 56.141L82.2078 56.1383C81.7299 55.97 81.0656 56.3984 81.1052 56.8421C81.1759 57.1994 81.3805 57.5149 81.6758 57.7218L81.7151 57.7532L81.9112 58.0834C82.3892 58.8884 83.0072 59.5984 83.7352 60.179C83.9414 60.3432 84.1562 60.4968 84.3555 60.6696C84.6847 60.955 84.969 61.29 85.1984 61.6628L85.3333 61.9018C86.2311 61.5639 88.4343 60.7232 89.5767 60.1622C89.5551 59.9795 89.54 59.8452 89.54 59.8452C89.3645 57.487 89.2801 55.1938 88.8669 54.544C88.5792 54.1409 88.2644 53.7587 87.9246 53.4Z" fill="white"/>
<path d="M78.4465 37.4679C78.4815 37.5559 78.6622 38.0069 78.96 38.75C79.0354 38.9386 79.1811 39.0893 79.3655 39.1692C79.5499 39.249 79.7579 39.2516 79.9441 39.1764L80.7987 38.8286C80.9845 38.7527 81.1331 38.6053 81.2122 38.4185C81.2912 38.2316 81.2943 38.0206 81.2206 37.8316C80.9318 37.087 80.8362 36.848 80.7184 36.5504C80.455 35.8859 79.5863 35.2932 79.0226 35.4818C78.5366 35.6445 78.1378 36.6952 78.4465 37.4679Z" fill="white"/>
<path d="M107.725 65.4293C107.513 65.6328 107.316 65.8524 107.137 66.0862C107.453 66.4226 107.79 66.7386 108.145 67.0325L108.244 67.107C108.801 66.3323 109.574 65.7461 110.464 65.4252C111.79 64.8809 113.212 64.6213 114.641 64.6628C116.053 64.71 117.611 65.1613 118.663 66.1801C119.524 65.178 121.129 64.4006 122.369 64.0863C123.598 63.8048 124.865 63.7364 126.117 63.8839C126.87 63.9538 127.604 64.1664 128.281 64.5106L128.31 64.4813C128.529 64.2699 128.967 63.8244 129.34 63.4236C127.992 62.3881 127.236 62.2336 125.644 62.0764C124.433 61.9567 123.059 61.9166 121.875 62.2166C120.692 62.5165 119.175 63.0177 118.334 63.9675C117.232 63.2499 115.951 62.8659 114.641 62.8605C113.212 62.819 111.79 63.0786 110.464 63.623C109.855 63.8551 109.278 64.1672 108.748 64.5514C108.391 64.8242 108.049 65.1173 107.725 65.4293Z" fill="white"/>
<path d="M124.851 69.7077C125.764 68.8813 128.652 66.128 129.427 65.3407C128.517 64.4891 127.35 63.976 126.116 63.8853C124.864 63.7377 123.597 63.8062 122.368 64.0876C121.128 64.402 119.523 65.1794 118.662 66.1814C117.61 65.1618 116.052 64.7114 114.64 64.6642C113.211 64.6227 111.789 64.8823 110.463 65.4266C109.365 65.8136 108.453 66.6115 107.914 67.6576C108.741 68.3907 111.807 70.7851 112.668 71.4786L124.851 69.7077Z" fill="white"/>
<path d="M120.893 67.4487C120.837 67.403 120.78 67.3578 120.724 67.3132C119.998 66.7438 119.471 66.6549 118.726 67.0786L118.326 67.4305C118.021 67.1021 117.762 66.8297 117.652 66.7323C117.492 66.5862 117.299 66.4843 117.089 66.4366C116.88 66.3888 116.662 66.3967 116.456 66.4596C115.985 66.6379 115.787 66.8995 115.787 67.3003L115.743 67.6411C115.493 67.3725 115.268 67.1426 115.096 66.9848C114.951 66.8526 114.242 66.498 113.771 66.8575C113.68 66.9119 113.601 66.9847 113.539 67.0715C113.477 67.1582 113.434 67.257 113.411 67.3617C113.389 67.4663 113.388 67.5745 113.409 67.6795C113.429 67.7845 113.471 67.8841 113.531 67.9719C113.559 68.0144 113.578 68.0598 113.6 68.1053L113.495 68.0493C113.361 67.9743 113.213 67.9291 113.061 67.9168C112.909 67.9045 112.756 67.9253 112.612 67.9779C112.468 68.0305 112.337 68.1136 112.228 68.2217C112.118 68.3298 112.033 68.4604 111.977 68.6047C111.903 68.95 111.945 69.3107 112.098 69.6281C112.404 70.2278 113.738 71.7319 114.459 72.5046C116.109 73.6901 118.743 72.8644 120.853 72.3664C121.149 72.2922 121.432 72.1688 121.688 72.0013C122.478 71.4442 122.884 70.7618 123.528 70.0387C123.802 69.7707 124.045 69.4718 124.252 69.1478C124.498 68.7557 124.593 68.2851 124.518 67.8264C124.47 67.5894 124.339 67.3782 124.149 67.2323C123.836 67.022 123.415 67.1223 123.067 67.2666C122.547 67.4823 122.064 67.7791 121.634 68.1463C121.405 67.8952 121.157 67.662 120.893 67.4487Z" fill="white"/>
<path d="M112.667 71.4773C111.806 70.784 108.739 68.3909 107.913 67.6566C108.017 67.4556 108.136 67.2626 108.268 67.0789C108.26 67.0895 108.25 67.0962 108.242 67.1082L108.143 67.0337C107.788 66.7395 107.451 66.423 107.135 66.0863C107.314 65.8523 107.51 65.6326 107.722 65.4291C108.047 65.1164 108.389 64.8227 108.746 64.5494C109.276 64.1652 109.853 63.8531 110.462 63.6209C111.431 63.2258 112.453 62.9796 113.494 62.8905C113.548 61.7248 113.604 60.7574 113.639 60.1222C113.746 58.2311 113.854 56.3332 113.847 54.4397L113.501 54.5342C112.65 54.759 111.786 54.9263 110.914 55.035C110.365 55.107 109.813 55.1462 109.259 55.1523C107.774 55.1561 105.6 54.8943 104.292 54.2397C104.278 56.1992 104.389 58.164 104.501 60.1217C104.591 61.7113 104.805 65.3602 104.805 69.0706C104.81 71.3409 104.673 73.6092 104.395 75.8619C104.863 75.8619 105.19 75.8619 105.19 75.8619C106.374 75.8619 111.725 75.7282 113.216 75.7282C113.216 75.7282 113.398 75.7282 113.727 75.7302C113.57 74.432 113.444 72.9969 113.38 71.3729L112.667 71.4773Z" fill="#65B005"/>
<path d="M99.4203 53.3595C100.576 52.9587 101.71 52.4934 102.816 51.9657C103.113 51.5982 103.428 51.2273 103.771 50.8393L104.501 50.6182C104.462 50.9596 104.433 51.3018 104.406 51.6446C105.091 51.2024 105.697 50.7385 105.826 50.415C105.98 49.8926 106.038 49.346 105.999 48.8022C105.023 48.3483 104.166 47.6676 103.497 46.8151C102.775 45.9147 102.248 44.8692 101.951 43.7472C101.503 43.7477 101.068 43.5892 100.722 43.2991C100.389 43.0117 100.121 42.6547 99.9363 42.2525C99.5447 41.4568 99.3762 40.567 99.4492 39.6805C99.4593 39.4539 99.5162 39.232 99.6161 39.0292C99.7023 38.8821 99.8199 38.7566 99.9602 38.6618C100.101 38.5671 100.26 38.5055 100.427 38.4817C100.647 38.4456 100.872 38.4756 101.075 38.5679C101.278 38.6603 101.45 38.8109 101.57 39.0013C102.882 36.7433 106.956 34.4853 110.615 33.4945L110.655 33.4863C111.474 33.33 112.32 33.4134 113.094 33.7267C113.868 34.04 114.538 34.5703 115.027 35.2557C115.871 36.4597 116.512 37.7974 116.924 39.2145L117.412 38.7664C117.542 38.6521 117.694 38.5675 117.859 38.5186C118.024 38.4696 118.198 38.4573 118.368 38.4826C118.535 38.5064 118.694 38.568 118.834 38.6627C118.975 38.7575 119.092 38.883 119.179 39.0301C119.279 39.2329 119.335 39.4548 119.346 39.6813C119.418 40.5678 119.25 41.4575 118.858 42.2534C118.674 42.6556 118.406 43.0126 118.073 43.3C117.803 43.5228 117.48 43.6705 117.137 43.7287L116.906 43.7648C116.831 44.0428 116.749 44.2756 116.709 44.4011C116.429 45.1724 114.825 47.8984 112.83 48.767C112.788 49.3223 112.847 49.8808 113.004 50.4147C113.179 50.7174 113.417 50.978 113.701 51.1789C113.683 50.9921 113.67 50.805 113.649 50.6185L114.602 50.8396C115 51.29 115.361 51.7173 115.703 52.1405C116.574 52.5569 117.679 52.9615 118.743 53.3598C119.439 53.2155 120.067 52.8372 120.525 52.286C120.983 51.7347 121.245 51.0427 121.268 50.3217C121.262 49.3489 121.099 48.3837 120.785 47.4644C120.388 46.2075 119.618 43.6545 119.562 39.0928C119.629 37.8091 119.611 36.5223 119.508 35.241C119.334 32.7699 118.246 30.0101 116.68 28.4762C115.725 27.4888 114.573 26.7199 113.302 26.2208C112.213 25.795 111.201 25.5903 109.291 25.5903C106.65 25.6453 104.114 26.6521 102.136 28.4307C100.084 30.4248 98.7826 34.0689 98.9467 39.0928C98.9467 42.7543 98.6726 45.3949 98.2877 46.8955C97.997 48.1362 97.8312 49.4036 97.793 50.6783C97.8076 51.2312 97.9659 51.7703 98.2516 52.2411C98.5374 52.7119 98.9405 53.0977 99.4203 53.3595Z" fill="#65B005"/>
<path d="M117.82 39.1825C117.882 39.1334 117.953 39.0974 118.029 39.0765C118.106 39.0556 118.185 39.0502 118.263 39.0606C118.341 39.0711 118.416 39.0972 118.485 39.1374C118.553 39.1775 118.612 39.231 118.66 39.2948C118.758 39.5034 118.801 39.7346 118.783 39.9651C118.793 40.2431 118.774 40.5213 118.728 40.7953C118.551 41.7812 118.064 42.9674 116.982 43.1641C116.835 43.2065 116.711 43.3058 116.635 43.4408C116.559 43.5757 116.539 43.7355 116.578 43.8855C116.622 44.0338 116.72 44.1594 116.852 44.2359C116.985 44.3124 117.141 44.334 117.289 44.2961C118.985 43.9873 119.795 42.0454 119.923 40.4839C119.989 39.6722 119.916 38.7578 119.226 38.2341C118.897 37.9946 118.498 37.8758 118.094 37.8975C117.689 37.9192 117.305 38.08 117.002 38.3535C116.895 38.4641 116.835 38.613 116.835 38.7683C116.835 38.9235 116.895 39.0725 117.002 39.1831C117.112 39.29 117.259 39.3496 117.411 39.3496C117.563 39.3496 117.709 39.29 117.819 39.1831L117.82 39.1825Z" fill="#4A3E42"/>
<path d="M101.787 38.3523C101.485 38.079 101.1 37.9183 100.696 37.8966C100.292 37.8749 99.8926 37.9935 99.5637 38.233C98.8727 38.7549 98.801 39.6728 98.8672 40.4827C98.9948 42.044 99.8049 43.9859 101.501 44.2949C101.649 44.3319 101.805 44.31 101.937 44.2336C102.069 44.1572 102.167 44.0322 102.212 43.8844C102.251 43.7343 102.231 43.5746 102.155 43.4397C102.079 43.3047 101.954 43.2053 101.807 43.163C100.727 42.9662 100.239 41.7801 100.062 40.7942C100.018 40.5357 99.9994 40.2734 100.006 40.0112C99.9886 39.7778 100.024 39.5434 100.11 39.3262C100.155 39.2566 100.214 39.1971 100.282 39.1517C100.351 39.1062 100.428 39.0757 100.509 39.0621C100.59 39.0484 100.672 39.052 100.752 39.0725C100.831 39.0931 100.905 39.1301 100.97 39.1813C101.08 39.2874 101.226 39.3466 101.378 39.3466C101.53 39.3466 101.676 39.2874 101.787 39.1813C101.894 39.0707 101.954 38.9217 101.954 38.7665C101.954 38.6113 101.894 38.4624 101.787 38.3517L101.787 38.3523Z" fill="#4A3E42"/>
<path d="M99.7044 52.8562C99.2205 52.5832 98.8308 52.1658 98.588 51.6607C98.3964 51.2024 98.3257 50.7013 98.3829 50.2068C98.4452 49.102 98.6086 48.0055 98.871 46.9315C99.3651 44.8847 99.4572 42.7167 99.504 40.6191C99.5352 39.2168 99.4653 37.8145 99.5774 36.4149C99.6652 35.2489 99.8753 34.0958 100.204 32.9751C100.718 31.2514 101.59 29.5831 102.995 28.443C106.432 25.6542 111.946 25.2384 115.439 28.1383C116.23 28.7722 116.903 29.5431 117.429 30.4154C118.044 31.4836 118.483 32.6468 118.728 33.8589C119.214 36.1791 118.905 38.5726 119.044 40.9185C119.14 42.875 119.443 44.8152 119.949 46.7057C120.428 48.4274 121.376 50.6317 119.897 52.1123C119.542 52.4691 119.088 52.7079 118.596 52.797C117.866 52.9386 118.175 54.0694 118.903 53.9283C119.473 53.8047 120.008 53.5458 120.461 53.1726C120.915 52.7995 121.275 52.3227 121.513 51.7812C122.044 50.5789 121.851 49.1804 121.522 47.9429C121.329 47.216 121.081 46.506 120.9 45.7755C120.67 44.8429 120.496 43.8968 120.38 42.9425C120.184 41.5639 120.11 40.1704 120.158 38.7784C120.206 37.6188 120.181 36.4573 120.085 35.3008C119.909 32.7716 118.993 30.0517 117.226 28.2043C115.67 26.5372 113.605 25.4516 111.366 25.1232C108.711 24.7407 106.006 25.2547 103.667 26.5862C101.944 27.5604 100.573 29.0687 99.7544 30.8907C98.7064 33.1977 98.3451 35.7744 98.3503 38.2981C98.3555 40.8218 98.3656 43.3797 97.9134 45.8708C97.7228 46.9215 97.4626 47.9441 97.3358 49.0086C97.1914 50.2191 97.0759 51.4469 97.7427 52.5304C98.0868 53.0851 98.5605 53.545 99.1216 53.8691C99.7671 54.2462 100.349 53.2331 99.7044 52.8562Z" fill="#4A3E42"/>
<path d="M110.46 32.9307C108.566 33.4491 106.745 34.2108 105.041 35.1975C103.601 36.0353 102.168 37.0669 101.215 38.4716C100.793 39.0947 101.793 39.6818 102.213 39.0637C103.07 37.8001 104.434 36.8936 105.727 36.1506C107.315 35.2434 109.008 34.5417 110.767 34.0618C111.484 33.865 111.18 32.7334 110.46 32.9307Z" fill="#4A3E42"/>
<path d="M110.307 32.2807C113.441 33.4742 115.456 36.2955 116.394 39.4652C116.608 40.1863 117.723 39.8792 117.508 39.1535C117.036 37.4938 116.263 35.938 115.23 34.5653C114.033 33.0145 112.435 31.8319 110.615 31.1493C110.467 31.1094 110.31 31.13 110.177 31.2068C110.044 31.2836 109.946 31.4104 109.905 31.5599C109.867 31.7099 109.889 31.8688 109.964 32.0033C110.039 32.1378 110.163 32.2375 110.309 32.2815L110.307 32.2807Z" fill="#4A3E42"/>
<path d="M116.483 42.811C116.452 43.2269 116.364 43.6364 116.223 44.0279C116.199 44.1007 116.172 44.1725 116.151 44.2461C116.139 44.2851 116.093 44.3819 116.163 44.2224C116.125 44.3086 116.086 44.3936 116.044 44.4778C115.79 44.9803 115.496 45.4608 115.165 45.9147C114.404 46.9733 113.369 48.0938 112.075 48.402C111.353 48.5744 111.657 49.7058 112.382 49.533C113.963 49.1565 115.188 47.8451 116.118 46.5663C116.921 45.4634 117.581 44.213 117.637 42.8127C117.666 42.0579 116.511 42.0591 116.482 42.8127L116.483 42.811Z" fill="#4A3E42"/>
<path d="M101.22 43.1859C101.878 46.3254 104.133 49.413 107.466 49.7763C107.619 49.7752 107.765 49.7131 107.873 49.6033C107.981 49.4936 108.043 49.345 108.044 49.1898C108.04 49.0353 107.979 48.8881 107.871 48.7788C107.763 48.6695 107.618 48.6067 107.466 48.6033C106.127 48.4567 104.987 47.6356 104.109 46.6427C103.202 45.5667 102.589 44.2669 102.334 42.8742C102.179 42.1361 101.065 42.4484 101.22 43.1859Z" fill="#4A3E42"/>
<path d="M114.285 51.1874C114.285 50.815 113.918 50.6232 113.691 50.3851C113.653 50.3464 113.619 50.3059 113.583 50.2654C113.531 50.2068 113.604 50.2895 113.612 50.308C113.599 50.2867 113.585 50.2663 113.57 50.2467C113.549 50.2135 113.534 50.1739 113.512 50.1423C113.527 50.1637 113.559 50.2725 113.535 50.1901C113.526 50.1608 113.515 50.1314 113.506 50.0995C113.477 49.996 113.475 49.8696 113.436 49.7716C113.457 49.825 113.448 49.8784 113.438 49.786C113.435 49.7584 113.432 49.7311 113.43 49.7036C113.424 49.6414 113.42 49.579 113.417 49.5162C113.404 49.2672 113.407 49.0177 113.408 48.7681C113.408 48.6126 113.347 48.4634 113.239 48.3534C113.131 48.2434 112.984 48.1816 112.831 48.1816C112.677 48.1816 112.531 48.2434 112.422 48.3534C112.314 48.4634 112.253 48.6126 112.253 48.7681C112.224 49.3069 112.267 49.8473 112.382 50.3742C112.549 50.8718 112.87 51.3013 113.297 51.5991L113.128 51.1845V51.1874C113.128 51.3429 113.189 51.4921 113.297 51.6021C113.406 51.7121 113.552 51.7739 113.706 51.7739C113.859 51.7739 114.006 51.7121 114.114 51.6021C114.222 51.4921 114.283 51.3429 114.283 51.1874H114.285Z" fill="#4A3E42"/>
<path d="M105.42 48.8028C105.428 49.106 105.421 49.4094 105.399 49.7119C105.397 49.7524 105.393 49.7928 105.387 49.833C105.402 49.7538 105.394 49.7781 105.383 49.8426C105.372 49.9072 105.357 49.9799 105.339 50.0479C105.329 50.0846 105.319 50.1206 105.307 50.1567C105.301 50.1767 105.262 50.2708 105.303 50.1813C105.343 50.0919 105.274 50.2233 105.26 50.2456C105.249 50.2629 105.205 50.3233 105.26 50.2456C105.32 50.1632 105.26 50.2435 105.243 50.2611C105.207 50.3019 105.17 50.3409 105.131 50.3784C105.035 50.4722 104.932 50.5567 104.829 50.6423C104.867 50.6104 104.885 50.5998 104.835 50.6373L104.738 50.7101C104.678 50.7552 104.616 50.798 104.555 50.8426C104.41 50.9444 104.263 51.042 104.114 51.1379C103.982 51.2164 103.886 51.3451 103.847 51.4956C103.808 51.6461 103.83 51.8061 103.907 51.9404C103.984 52.0747 104.111 52.1723 104.259 52.2118C104.408 52.2512 104.565 52.2293 104.697 52.1508C105.025 51.9411 105.341 51.7145 105.646 51.4719C105.88 51.2932 106.086 51.0793 106.258 50.8376C106.428 50.5301 106.526 50.1862 106.542 49.8336C106.575 49.4915 106.586 49.1477 106.575 48.8043C106.575 48.6487 106.514 48.4995 106.406 48.3896C106.298 48.2796 106.151 48.2178 105.998 48.2178C105.845 48.2178 105.698 48.2796 105.589 48.3896C105.481 48.4995 105.42 48.6487 105.42 48.8043V48.8028Z" fill="#4A3E42"/>
<path d="M114.643 80.3599C114.421 79.7322 114.244 79.0889 114.115 78.4351C113.98 77.5899 113.848 76.697 113.734 75.7305C111.564 75.7478 105.937 75.8618 104.713 75.8618H104.399C104.287 76.7779 104.16 77.6283 104.032 78.4351C103.902 79.0888 103.726 79.7322 103.504 80.3599H114.643Z" fill="white"/>
<path d="M82.9782 57.3963C82.995 57.4197 83.0406 57.5156 82.997 57.4142C82.9424 57.2875 83.001 57.5083 82.984 57.3693C82.9698 57.252 82.9817 57.3772 82.9811 57.4054C82.9811 57.42 82.9785 57.4347 82.9791 57.45C82.9814 57.5194 83.0094 57.3033 82.9857 57.3995C82.9785 57.4288 82.9727 57.4599 82.9644 57.4895C82.9583 57.5115 82.9115 57.6362 82.9528 57.5344C82.9941 57.4327 82.9424 57.5497 82.9306 57.5699C82.9221 57.581 82.9147 57.5929 82.9083 57.6054C82.8936 57.6514 82.9851 57.5218 82.9511 57.5505C82.9382 57.5609 82.9268 57.5729 82.917 57.5863C82.8936 57.6212 82.9782 57.5373 82.9825 57.5365C82.9482 57.5519 82.9159 57.5716 82.8864 57.5951C82.8379 57.6268 82.9482 57.5708 82.9482 57.5708C82.9318 57.5758 82.9157 57.5816 82.8999 57.5884C82.8558 57.6036 82.8108 57.6159 82.7651 57.6253C82.6346 57.6523 82.8598 57.6253 82.7608 57.6253C82.7255 57.6253 82.6909 57.6282 82.6556 57.6253C82.6337 57.6253 82.6077 57.6189 82.5866 57.6206C82.5866 57.6206 82.7131 57.6467 82.6571 57.6282C82.6123 57.6136 82.5644 57.5989 82.5193 57.5866C82.4584 57.569 82.5589 57.6004 82.5615 57.6063C82.5575 57.5977 82.5144 57.5837 82.5055 57.579C82.4619 57.5573 82.4188 57.5338 82.3775 57.5089C82.2937 57.458 82.2125 57.4029 82.1341 57.3438C82.113 57.3251 82.0905 57.308 82.0668 57.2928C82.0691 57.2928 82.1514 57.3614 82.1012 57.3192C82.0662 57.2898 82.031 57.262 81.9969 57.2312C81.9282 57.1699 81.8673 57.1025 81.8043 57.0353C81.731 56.957 81.8574 57.1183 81.7982 57.0294C81.7731 56.9919 81.7483 56.9544 81.726 56.9148C81.7168 56.8981 81.7084 56.8808 81.6992 56.864C81.6507 56.7761 81.7128 56.8852 81.7125 56.9004C81.7058 56.8513 81.6924 56.8033 81.6726 56.7579C81.6755 56.7623 81.6758 56.8717 81.6827 56.8283C81.684 56.8153 81.684 56.8022 81.6827 56.7893C81.6761 56.699 81.6622 56.9532 81.681 56.8294C81.6836 56.8165 81.6878 56.8039 81.6934 56.7919C81.7093 56.7884 81.6253 56.9171 81.6628 56.8705C81.6758 56.8541 81.752 56.7353 81.6859 56.8242C81.6232 56.908 81.7076 56.8089 81.7286 56.7863C81.7376 56.7767 81.7552 56.7676 81.7621 56.757C81.7454 56.7863 81.6466 56.8362 81.7298 56.784C81.7604 56.7649 81.7902 56.745 81.8222 56.7277C81.8415 56.7197 81.8601 56.7098 81.8777 56.6984C81.8644 56.711 81.7512 56.7441 81.8263 56.7218C81.8661 56.7101 81.9048 56.696 81.9455 56.6869C81.9602 56.6837 81.9764 56.6822 81.9909 56.6781C82.0486 56.662 81.8398 56.6825 81.9438 56.6869C81.9782 56.6887 82.0145 56.6896 82.0492 56.6896C82.1194 56.6896 81.9221 56.652 81.9842 56.6822C82.0076 56.6907 82.0315 56.6976 82.0558 56.7028C82.2036 56.7427 82.3609 56.722 82.4938 56.6452C82.6267 56.5684 82.7246 56.4416 82.7662 56.2922C82.8036 56.1422 82.7823 55.9834 82.707 55.849C82.6316 55.7145 82.508 55.6149 82.3619 55.5708C82.1051 55.5015 81.8348 55.5018 81.578 55.5717C81.3213 55.6416 81.0872 55.7788 80.899 55.9694C80.6884 56.1723 80.5575 56.4459 80.5305 56.7394C80.5185 57.03 80.5978 57.3169 80.7569 57.5587C80.9024 57.7903 81.0859 57.9949 81.2995 58.1634C81.5119 58.3473 81.7459 58.5036 81.9963 58.6288C82.2791 58.7674 82.5952 58.8204 82.9069 58.7813C83.2049 58.7503 83.4868 58.6286 83.7155 58.432C84.1134 58.071 84.3046 57.2676 83.9754 56.8048C83.8958 56.676 83.7733 56.5804 83.6303 56.5353C83.5195 56.5042 83.4021 56.5074 83.2932 56.5444C83.1842 56.5814 83.0886 56.6506 83.0185 56.7431C82.9485 56.8356 82.9072 56.9472 82.9 57.0637C82.8927 57.1802 82.9199 57.2962 82.9779 57.3969L82.9782 57.3963Z" fill="#4A3E42"/>
<path d="M83.4048 54.2256C83.0527 54.0206 82.6391 53.9529 82.2413 54.035C81.905 54.1284 81.6154 54.3465 81.4295 54.6461C81.2454 54.9227 81.1508 55.2507 81.1587 55.5845C81.1638 55.7677 81.2177 55.9462 81.3146 56.1009C81.3871 56.2101 81.4801 56.3037 81.5884 56.3762C81.6173 56.3982 81.6461 56.4196 81.6765 56.4419C81.5861 56.3733 81.727 56.4836 81.744 56.4973C82.1417 56.8246 82.5624 57.1199 82.9742 57.4284C83.1379 57.5597 83.3139 57.6744 83.4995 57.7709C83.8147 57.916 84.1713 57.9389 84.5019 57.8351C84.7036 57.7808 84.8896 57.6786 85.0446 57.5368C85.1996 57.3951 85.3192 57.2179 85.3934 57.0199C85.4711 56.8077 85.4961 56.5794 85.4662 56.3551C85.4363 56.1307 85.3525 55.9173 85.2222 55.7337C85.1426 55.602 85.016 55.5065 84.8687 55.4673C84.7215 55.4281 84.565 55.4482 84.432 55.5235C84.3011 55.6032 84.2061 55.7318 84.1673 55.8817C84.1286 56.0317 84.1492 56.1911 84.2247 56.3258C84.2665 56.3828 84.3026 56.4439 84.3324 56.5082C84.3203 56.4806 84.3035 56.4097 84.3217 56.5026C84.3399 56.5956 84.3116 56.49 84.3235 56.4777C84.3082 56.4935 84.3483 56.668 84.3295 56.5657C84.3165 56.4947 84.3321 56.546 84.3223 56.5844C84.3197 56.5947 84.2934 56.6739 84.2934 56.6748C84.2819 56.6633 84.3636 56.549 84.3061 56.6331C84.2954 56.6468 84.2864 56.6618 84.2793 56.6777C84.2599 56.7443 84.3598 56.5897 84.3102 56.6396C84.2605 56.6894 84.27 56.6504 84.3041 56.6548L84.3347 56.6322C84.3197 56.6434 84.3044 56.6536 84.2882 56.6633C84.272 56.673 84.255 56.6818 84.2391 56.6926C84.1525 56.746 84.2547 56.6768 84.2703 56.6809C84.2378 56.6873 84.2061 56.6971 84.1756 56.7102C84.1499 56.717 84.1233 56.7211 84.0979 56.7281C84.0214 56.7492 84.2134 56.7223 84.1343 56.7237C84.0901 56.7237 84.0453 56.7237 84.0012 56.7267C83.8831 56.7305 84.1222 56.7378 84.0139 56.7267C84.0009 56.7267 83.9885 56.714 83.9758 56.7129C83.9968 56.7149 84.1202 56.7856 84.0384 56.7372C83.8973 56.6548 83.7603 56.5651 83.6281 56.4686C83.3624 56.2733 83.0958 56.08 82.8296 55.8862C82.816 55.8765 82.7334 55.8147 82.7909 55.8584C82.8483 55.902 82.7666 55.8387 82.7536 55.829C82.7086 55.7924 82.6641 55.7551 82.6193 55.7182C82.5665 55.6745 82.5136 55.6302 82.4602 55.5883C82.4068 55.5463 82.3548 55.5044 82.302 55.4636C82.2855 55.451 82.1827 55.3519 82.2399 55.4176C82.31 55.498 82.1841 55.337 82.2687 55.4505C82.3216 55.522 82.2901 55.4774 82.2803 55.4593C82.3424 55.5736 82.3202 55.5584 82.3063 55.5114C82.2794 55.4202 82.3196 55.5601 82.3129 55.5701C82.3147 55.5471 82.3147 55.5239 82.3129 55.5009C82.31 55.4217 82.3461 55.5176 82.3046 55.5493C82.3233 55.5349 82.3334 55.4282 82.3409 55.4027C82.3392 55.4082 82.3643 55.3305 82.3667 55.3308C82.3768 55.3329 82.3089 55.4463 82.3632 55.3502C82.3779 55.3244 82.4481 55.237 82.4478 55.2103C82.4478 55.2252 82.3539 55.3123 82.4204 55.2502C82.4421 55.2311 82.4627 55.2106 82.4819 55.1889C82.5255 55.1352 82.3828 55.2396 82.4466 55.2159C82.4727 55.2031 82.4976 55.1881 82.5211 55.171C82.5925 55.1264 82.5032 55.21 82.4801 55.1877C82.5036 55.1827 82.5267 55.1759 82.5492 55.1675C82.6393 55.1364 82.5246 55.1763 82.5056 55.1701C82.5381 55.1726 82.5708 55.1717 82.6032 55.1675C82.6274 55.1675 82.7089 55.1862 82.6292 55.1675C82.5379 55.1455 82.6632 55.1786 82.6814 55.1839C82.712 55.1924 82.7415 55.2032 82.7715 55.2132C82.6733 55.1807 82.788 55.222 82.8226 55.2402C82.9549 55.3187 83.1125 55.3406 83.2607 55.3012C83.4089 55.2617 83.5356 55.1641 83.6129 55.0298C83.6902 54.8955 83.7118 54.7355 83.673 54.585C83.6341 54.4345 83.538 54.3058 83.4057 54.2273L83.4048 54.2256Z" fill="#4A3E42"/>
<path d="M84.7557 55.3087C84.3073 54.9395 83.8715 54.555 83.4305 54.1767C83.3479 54.1056 83.2646 54.0351 83.1807 53.9653C83.1565 53.9451 83.1328 53.9216 83.1068 53.904C83.0562 53.8703 83.064 53.8275 83.1403 53.9677C83.2206 54.1143 83.1819 54.0891 83.172 54.0421C83.2081 54.2163 83.181 54.1395 83.181 54.082C83.1844 54.0598 83.1855 54.0373 83.1842 54.0149C83.2131 54.0894 83.1591 54.1342 83.1824 54.0442C83.1972 53.9876 83.209 53.931 83.2278 53.8753C83.2344 53.8501 83.2433 53.8255 83.2544 53.802C83.2619 53.7999 83.1966 53.9163 83.2425 53.8383C83.2599 53.8143 83.2746 53.7884 83.2861 53.7609C83.3106 53.7228 83.2962 53.7401 83.2431 53.8128C83.2537 53.7992 83.2653 53.7864 83.2777 53.7744C83.2956 53.7577 83.3644 53.7134 83.2994 53.7507C83.2128 53.7993 83.3494 53.7293 83.3473 53.7287C83.3453 53.7281 83.2102 53.7709 83.3263 53.7395L83.4083 53.7175C83.5264 53.6853 83.3794 53.7219 83.3817 53.7207C83.3921 53.7081 83.4712 53.719 83.4891 53.7207H83.5108C83.5766 53.727 83.5684 53.7258 83.486 53.7172C83.5294 53.7208 83.5718 53.7326 83.611 53.7521C83.607 53.7466 83.4738 53.6803 83.6023 53.7521C83.6338 53.7697 83.6662 53.7859 83.6979 53.8032C83.7667 53.841 83.8345 53.88 83.9001 53.9204C84.0328 54.0018 84.1613 54.0899 84.2853 54.1844C84.1851 54.1084 84.3243 54.2184 84.3517 54.243C84.411 54.294 84.4688 54.3465 84.525 54.4005C84.6284 54.4993 84.7271 54.6025 84.8233 54.7102C84.8493 54.7395 84.875 54.7688 84.8998 54.7996C84.9247 54.8304 84.9795 54.9128 84.9059 54.8052C84.9385 54.853 84.9717 54.9002 85.0015 54.9497C85.0355 55.0063 85.0666 55.0645 85.0948 55.1242C85.1026 55.1409 85.1407 55.2304 85.1121 55.16C85.0812 55.0843 85.1361 55.231 85.141 55.245C85.1846 55.3623 85.1208 55.2245 85.1453 55.2222C85.1478 55.2618 85.1471 55.3017 85.143 55.3412C85.1289 55.3468 85.1855 55.1881 85.143 55.3054L85.1317 55.3453C85.1104 55.406 85.115 55.3981 85.1453 55.3222C85.1357 55.3486 85.1228 55.3738 85.1069 55.3969C85.0965 55.4151 85.0855 55.433 85.0737 55.4503C85.0497 55.4861 85.0595 55.4744 85.1026 55.4157C85.0994 55.4298 85.0532 55.4711 85.0474 55.477C85.033 55.4917 85.0185 55.5063 85.0026 55.5186C84.9699 55.547 84.9826 55.5372 85.0408 55.4893C85.0408 55.484 84.983 55.5321 84.9738 55.5289C85.0489 55.4996 85.0546 55.4946 84.9911 55.5139L85.0584 55.5025C84.931 55.5227 85.0925 55.5025 85.0832 55.5098C85.0543 55.5283 84.9432 55.4532 85.0543 55.5098C84.9809 55.4726 84.9103 55.4298 84.8432 55.3817C84.8271 55.37 84.7505 55.3131 84.8167 55.3629C84.888 55.4169 84.7673 55.3222 84.7552 55.3119C84.6451 55.2053 84.4988 55.1458 84.3467 55.1458C84.1945 55.1458 84.0483 55.2053 83.9382 55.3119C83.8314 55.4227 83.7717 55.5715 83.7717 55.7265C83.7717 55.8816 83.8314 56.0304 83.9382 56.1412C84.2735 56.4171 84.6437 56.7019 85.1017 56.6734C85.3318 56.6485 85.5512 56.5616 85.7372 56.4217C85.9231 56.2819 86.0689 56.0941 86.1595 55.8779C86.2575 55.6746 86.3062 55.4505 86.3016 55.2242C86.2781 54.9746 86.2037 54.7326 86.0833 54.5137C85.9006 54.1718 85.6615 53.8643 85.3763 53.6046C84.7866 53.0307 83.9613 52.4023 83.1004 52.5885C82.8839 52.6413 82.6838 52.7484 82.5185 52.9001C82.3533 53.0517 82.2282 53.2431 82.1547 53.4565C82.0718 53.6282 82.0276 53.8165 82.0255 54.0077C82.0233 54.1989 82.0632 54.3882 82.1422 54.5618C82.2574 54.7157 82.3966 54.8494 82.5543 54.9577C82.6863 55.0703 82.8174 55.1846 82.9482 55.2984C83.2751 55.5829 83.6038 55.865 83.9382 56.14C84.0483 56.2467 84.1945 56.3062 84.3467 56.3062C84.4988 56.3062 84.6451 56.2467 84.7552 56.14C84.8625 56.0292 84.9227 55.8799 84.9228 55.7245C84.923 55.569 84.863 55.4197 84.7557 55.3087Z" fill="#4A3E42"/>
<path d="M86.2017 51.5785C86.209 51.5548 86.2142 51.4905 86.237 51.4882C86.3274 51.4788 86.4152 51.5721 86.4695 51.6322C86.67 51.9091 86.8019 52.231 86.8541 52.5706C87.095 53.5183 87.8331 54.0089 88.3321 54.7896C88.4549 54.9984 88.5336 55.2309 88.5631 55.4722C88.6343 55.8493 88.6864 56.2299 88.7191 56.6124C88.8242 57.688 88.8814 58.7683 88.9608 59.8463C89.016 60.5943 90.1717 60.6005 90.1159 59.8463C90.0218 58.5686 89.9675 57.2839 89.8078 56.0127C89.7686 55.5648 89.6847 55.122 89.5574 54.6913C89.3879 54.2565 89.1339 53.8608 88.8106 53.5277C88.4996 53.1738 88.1282 52.8406 87.9954 52.37C87.8945 51.8792 87.7045 51.4119 87.4351 50.9917C86.766 50.0827 85.4489 50.1058 85.0882 51.2683C84.8641 51.9899 85.9791 52.2987 86.202 51.58L86.2017 51.5785Z" fill="#4A3E42"/>
<path d="M84.8032 53.3546C84.901 53.9696 85.0592 54.5732 85.2754 55.1563C85.3716 55.4306 85.4415 55.7137 85.4842 56.0017C85.4732 55.9105 85.4882 56.0817 85.4893 56.099C85.4942 56.1832 85.4949 56.2676 85.4914 56.3518C85.4914 56.3518 85.4723 56.5371 85.4859 56.4474C85.4721 56.5316 85.4528 56.6148 85.4281 56.6964C85.408 56.7706 85.4024 56.8482 85.4118 56.9247C85.4212 57.0011 85.4453 57.0749 85.4827 57.1419C85.5202 57.2089 85.5703 57.2677 85.6301 57.3151C85.69 57.3624 85.7584 57.3973 85.8316 57.4178C85.9047 57.4382 85.9811 57.4439 86.0564 57.4344C86.1317 57.4248 86.2044 57.4004 86.2703 57.3623C86.3363 57.3243 86.3942 57.2734 86.4408 57.2126C86.4875 57.1519 86.5218 57.0824 86.542 57.0081C86.7 56.3533 86.6672 55.666 86.4475 55.0299C86.3609 54.7393 86.2572 54.4542 86.1642 54.1657C86.1183 54.0223 86.0747 53.878 86.0375 53.732C86.019 53.6595 86.0019 53.5853 85.9872 53.5135C85.9788 53.4719 85.971 53.4299 85.9641 53.388C85.9529 53.3153 85.9508 53.3041 85.9589 53.3546C85.9552 53.2002 85.8931 53.0532 85.7856 52.944C85.6781 52.8349 85.5334 52.7719 85.3813 52.7681C85.0989 52.781 84.7657 53.0285 84.8038 53.3546H84.8032Z" fill="#4A3E42"/>
<path d="M84.4887 53.7759C85.113 53.8764 85.9055 53.9433 86.4218 53.4911C86.5469 53.3748 86.6465 53.2332 86.7143 53.0753C86.7821 52.9175 86.8165 52.747 86.8154 52.5748C86.8143 52.4027 86.7776 52.2326 86.7078 52.0757C86.638 51.9188 86.5365 51.7785 86.41 51.6639C85.865 51.173 85.0859 51.0372 84.3804 51.0158C83.7832 50.9977 83.0661 51.0666 82.5611 51.4264C82.4091 51.5278 82.2794 51.6603 82.1804 51.8152C82.1329 51.893 82.0959 51.9769 82.0704 52.0648C82.0493 52.139 82.0179 52.4093 82.0436 52.2114C81.9967 52.6609 82.0843 53.1143 82.2951 53.5125C82.3728 53.6463 82.4995 53.7435 82.6475 53.7829C82.7954 53.8224 82.9528 53.8008 83.0852 53.7231C83.2143 53.6416 83.3077 53.513 83.3463 53.3637C83.3848 53.2144 83.3656 53.0558 83.2925 52.9205C83.2755 52.8895 83.2613 52.857 83.2501 52.8234C83.2279 52.7647 83.2074 52.7037 83.1909 52.6422C83.1845 52.6187 83.1594 52.4777 83.1684 52.5557C83.1773 52.6337 83.1704 52.4824 83.1701 52.4554C83.1701 52.4419 83.1701 52.3642 83.1701 52.4451C83.1666 52.5938 83.1635 52.1923 83.1799 52.3709C83.1903 52.4803 83.2065 52.3061 83.1733 52.4032C83.1317 52.524 83.2328 52.3299 83.162 52.4266C83.097 52.5146 83.2622 52.368 83.1762 52.414C83.0959 52.458 83.2033 52.3985 83.2232 52.3865C83.257 52.3662 83.2949 52.3513 83.3281 52.3302C83.3798 52.2973 83.2914 52.3454 83.2862 52.3472C83.3151 52.3378 83.3411 52.3261 83.3685 52.3178C83.4196 52.3002 83.4716 52.2847 83.5239 52.2709C83.6206 52.2451 83.7185 52.2278 83.817 52.2102C83.9065 52.1944 83.728 52.2155 83.821 52.2102C83.8479 52.2102 83.875 52.2046 83.9019 52.2023C83.9662 52.197 84.0308 52.1932 84.0957 52.1909C84.2201 52.1862 84.3449 52.1873 84.4694 52.1935C84.5271 52.1964 84.5857 52.2005 84.6452 52.2058L84.7336 52.2146C84.8326 52.2243 84.6579 52.2023 84.7567 52.2167C84.8885 52.2355 85.0191 52.2623 85.1477 52.297C85.2033 52.3123 85.2585 52.3294 85.3132 52.3483C85.3389 52.3571 85.3643 52.368 85.39 52.3777C85.4553 52.3999 85.3242 52.3404 85.4169 52.3914C85.4584 52.4143 85.5006 52.4354 85.5407 52.4604C85.5921 52.4923 85.6372 52.5372 85.5641 52.4692C85.5952 52.5023 85.628 52.5336 85.6626 52.563C85.7181 52.6035 85.6147 52.5152 85.6288 52.5143C85.6438 52.532 85.6561 52.5517 85.6655 52.573C85.6655 52.5841 85.7105 52.648 85.6655 52.5665C85.6254 52.4926 85.656 52.556 85.6655 52.5721C85.7157 52.6733 85.6329 52.4794 85.6698 52.5823C85.7134 52.7035 85.6655 52.531 85.6814 52.5504C85.6796 52.5711 85.6749 52.5915 85.6672 52.6108C85.6317 52.6604 85.6874 52.5715 85.6895 52.568C85.6745 52.5916 85.6608 52.6159 85.6485 52.641C85.6485 52.641 85.7045 52.548 85.6719 52.6058C85.658 52.6301 85.5656 52.6938 85.6678 52.6131C85.6615 52.6178 85.591 52.6592 85.6513 52.6272C85.7117 52.5952 85.634 52.6325 85.6193 52.636C85.5959 52.6419 85.5725 52.6477 85.5488 52.6527C85.535 52.6557 85.5199 52.6577 85.5072 52.6604C85.3917 52.6844 85.5407 52.6574 85.541 52.6568C85.4319 52.6736 85.3215 52.6799 85.2112 52.6756C85.0728 52.6759 84.9346 52.6667 84.7974 52.648C84.6497 52.6107 84.4936 52.6325 84.3613 52.7089C84.229 52.7854 84.1308 52.9106 84.087 53.0586C84.0481 53.2086 84.0686 53.3682 84.1442 53.503C84.2198 53.6379 84.3444 53.7373 84.4913 53.78L84.4887 53.7759Z" fill="#4A3E42"/>
<path d="M81.4158 58.3795C81.8409 59.0955 82.3693 59.7429 82.9833 60.3C83.2983 60.5833 83.6671 60.8393 83.9504 61.0847C84.2453 61.3338 84.4993 61.6288 84.703 61.9589C84.7413 62.0254 84.7921 62.0836 84.8525 62.1301C84.913 62.1767 84.9818 62.2107 85.0552 62.2303C85.1286 62.2498 85.205 62.2545 85.2802 62.244C85.3554 62.2335 85.4278 62.2081 85.4933 62.1693C85.5588 62.1304 85.6161 62.0788 85.6619 62.0174C85.7078 61.9561 85.7413 61.8861 85.7605 61.8116C85.7798 61.7371 85.7844 61.6595 85.7741 61.5831C85.7638 61.5068 85.7387 61.4333 85.7005 61.3668C85.4665 60.9875 85.1835 60.6418 84.8589 60.339C84.5335 60.0399 84.1962 59.8188 83.8901 59.5522C83.3048 59.0515 82.8054 58.4555 82.4124 57.7886C82.335 57.6543 82.2083 57.5567 82.0601 57.5172C81.9119 57.4778 81.7544 57.4997 81.6221 57.5782C81.4898 57.6567 81.3937 57.7854 81.3548 57.9359C81.316 58.0864 81.3376 58.2464 81.4149 58.3807L81.4158 58.3795Z" fill="#4A3E42"/>
<path d="M79.5688 38.4994C80.7704 41.813 81.9397 45.1358 83.1644 48.4404C83.5318 49.4314 83.9052 50.4198 84.2849 51.4057C84.3293 51.5533 84.4277 51.6781 84.5598 51.7545C84.692 51.8308 84.8479 51.8529 84.9956 51.8162C85.1428 51.7741 85.2678 51.6748 85.3435 51.5398C85.4192 51.4047 85.4394 51.2449 85.3999 51.0948C84.0322 47.5618 82.7644 43.9892 81.4866 40.4207C81.2197 39.6763 80.952 38.932 80.6835 38.1879C80.4288 37.4842 79.3117 37.7894 79.5696 38.5L79.5688 38.4994Z" fill="#4A3E42"/>
<path d="M77.8908 37.6232C77.9896 37.8701 78.0884 38.1169 78.1874 38.3636C78.3875 38.8639 78.5414 39.407 79.0537 39.6654C79.3182 39.8 79.6186 39.8439 79.9097 39.7906C80.1564 39.728 80.396 39.6396 80.6247 39.5267C80.9098 39.438 81.1773 39.2991 81.4149 39.1161C81.6048 38.941 81.7411 38.7139 81.8073 38.4622C81.9378 37.9484 81.7106 37.5006 81.5286 37.0358C81.4154 36.7467 81.3129 36.4452 81.1789 36.1652C80.8021 35.3781 79.7572 34.635 78.8686 34.9154C78.6318 35.0143 78.4207 35.1676 78.2518 35.363C78.0828 35.5585 77.9607 35.791 77.8949 36.0423C77.714 36.553 77.7121 37.1113 77.8894 37.6232C77.9329 37.7714 78.0311 37.8968 78.1634 37.9732C78.2958 38.0497 78.4521 38.0714 78.5998 38.0337C78.7467 37.9911 78.8713 37.8917 78.9469 37.7568C79.0224 37.622 79.043 37.4624 79.0041 37.3124C78.9745 37.2309 78.9497 37.1476 78.9299 37.0631C78.903 36.9552 78.9235 37.0373 78.9264 37.0631C78.9215 37.0197 78.9189 36.9751 78.9174 36.9326C78.9156 36.8544 78.9176 36.7761 78.9235 36.698C78.9339 36.5364 78.9024 36.7672 78.927 36.6737C78.94 36.6244 78.9469 36.5731 78.9593 36.5235C78.9781 36.4505 79.0023 36.3804 79.0266 36.3092C78.9876 36.4238 79.0185 36.3256 79.0344 36.2954C79.0503 36.2652 79.0688 36.2271 79.0878 36.1936C79.1026 36.1681 79.1199 36.1438 79.1343 36.1183C79.1979 36.0054 79.0745 36.1628 79.1317 36.1183C79.1561 36.0962 79.1785 36.0719 79.1987 36.0458C79.2701 35.9614 79.1017 36.1095 79.1953 36.0458C79.2131 36.0323 79.2325 36.021 79.253 36.0121C79.2345 36.0045 79.1153 36.0511 79.2328 36.0303C79.3142 36.0159 79.0864 36.0244 79.2195 36.0323C79.2467 36.0341 79.2773 36.0323 79.3035 36.0323C79.4058 36.0323 79.2998 36.0323 79.279 36.0277C79.3232 36.0388 79.3674 36.0473 79.411 36.0605C79.4399 36.0696 79.4687 36.0822 79.4996 36.0898C79.3809 36.0549 79.5126 36.0972 79.5386 36.1106C79.6137 36.1499 79.683 36.1969 79.7541 36.2423C79.7714 36.2535 79.8407 36.3095 79.7607 36.2444C79.7873 36.2664 79.8138 36.2889 79.8392 36.3124C79.9039 36.371 79.9617 36.4338 80.0206 36.498C80.0939 36.5781 80.0411 36.5203 80.0258 36.4998C80.0547 36.5402 80.0836 36.5822 80.1095 36.6256C80.1355 36.669 80.1563 36.7136 80.18 36.7552C80.2037 36.7968 80.2404 36.8177 80.1711 36.7303C80.1916 36.768 80.2075 36.8082 80.2184 36.8499C80.2569 36.9477 80.2954 37.0454 80.3339 37.1432C80.4564 37.4546 80.5797 37.7657 80.6932 38.0815C80.7094 38.1261 80.686 38.1695 80.6932 38.0701C80.6932 38.0733 80.6862 38.2305 80.6969 38.1349C80.7076 38.0393 80.6793 38.1895 80.6779 38.1953C80.6834 38.1722 80.7356 38.0942 80.6813 38.1851C80.6773 38.1918 80.5915 38.3024 80.6478 38.2437C80.7088 38.1798 80.5961 38.2874 80.5959 38.2877C80.6193 38.2675 80.6825 38.2358 80.5959 38.2792C80.448 38.3522 80.7198 38.2337 80.5141 38.3164C80.316 38.3959 80.1188 38.4774 79.9213 38.5578C79.8326 38.5951 79.7417 38.6269 79.6492 38.6531C79.7532 38.6238 79.6983 38.6437 79.6605 38.6452C79.5933 38.6411 79.5979 38.6434 79.6744 38.6522L79.629 38.6419C79.491 38.5736 79.7243 38.7182 79.5944 38.6323C79.5629 38.6117 79.4757 38.5264 79.5591 38.6144C79.5372 38.5912 79.5149 38.5698 79.4936 38.5455C79.5739 38.637 79.4915 38.5255 79.4786 38.5003C79.5198 38.5804 79.4589 38.4504 79.4497 38.4308L79.3763 38.2475L79.2573 37.9511L79.0018 37.3124C78.9579 37.1644 78.8597 37.0392 78.7274 36.9628C78.5952 36.8864 78.439 36.8645 78.2914 36.9018C78.145 36.9451 78.0212 37.0448 77.9463 37.1796C77.8715 37.3144 77.8515 37.4737 77.8908 37.6232Z" fill="#4A3E42"/>
<path d="M113.353 53.9698C110.618 54.7014 107.506 54.8991 104.82 53.8413C104.672 53.8012 104.515 53.8218 104.382 53.8986C104.249 53.9755 104.151 54.1024 104.11 54.2519C104.072 54.4019 104.094 54.5607 104.169 54.6951C104.244 54.8295 104.368 54.9292 104.514 54.9733C105.96 55.4931 107.485 55.7524 109.019 55.7395C110.588 55.7409 112.15 55.5264 113.662 55.1017C114.38 54.9096 114.075 53.7777 113.355 53.9707L113.353 53.9698Z" fill="#4A3E42"/>
<path d="M92.7039 64.4389C93.5362 62.2217 94.0491 59.9062 94.8236 57.6708C94.9965 57.0792 95.2415 56.5119 95.5528 55.982C95.8528 55.5466 96.2883 55.2264 96.7894 55.0729C97.7623 54.6773 98.7147 54.2472 99.7003 53.8788C100.861 53.4786 101.997 53.0095 103.103 52.4739C103.768 52.1317 103.182 51.1194 102.52 51.461C101.521 51.944 100.495 52.3669 99.4473 52.7276C98.4265 53.1088 97.4371 53.5486 96.4301 53.9627C95.8525 54.1997 95.3264 54.4102 94.9146 54.9078C94.5267 55.3889 94.2222 55.9334 94.0138 56.518C93.5737 57.684 93.2133 58.8763 92.8749 60.0757C92.4891 61.4419 92.0888 62.7991 91.5901 64.1278C91.5505 64.2779 91.5708 64.4377 91.6465 64.5728C91.7221 64.7079 91.8471 64.8072 91.9944 64.8494C92.1421 64.8872 92.2984 64.8656 92.4308 64.7891C92.5632 64.7126 92.6614 64.5871 92.7048 64.4389H92.7039Z" fill="#4A3E42"/>
<path d="M93.6085 66.4271C92.6212 64.2046 91.717 61.9474 90.8128 59.6892C90.7874 59.6038 90.7435 59.5253 90.6844 59.4594C90.6253 59.3935 90.5523 59.3418 90.471 59.3082C90.3897 59.2746 90.3019 59.2599 90.2143 59.2652C90.1266 59.2705 90.0412 59.2956 89.9644 59.3387C88.1759 60.2918 86.2679 61.2519 84.2851 61.7026C84.1381 61.745 84.0133 61.8444 83.9376 61.9793C83.862 62.1142 83.8416 62.2739 83.8808 62.424C84.4494 64.2714 84.9944 66.1253 85.6404 67.9458C86.2113 69.5554 86.814 71.2504 87.7127 72.7072C88.5187 74.0145 89.7215 74.9652 91.2936 74.9798C92.9074 74.9936 94.3117 74.186 95.4181 73.0526C96.4593 71.9712 97.4316 70.8235 98.329 69.6164C98.4055 69.4819 98.4266 69.3222 98.3879 69.172C98.3491 69.0218 98.2535 68.8932 98.122 68.8141C97.9889 68.7394 97.8326 68.7196 97.6855 68.7588C97.5384 68.7979 97.4118 68.893 97.3318 69.0243L97.1799 69.2261C97.1511 69.2648 97.1222 69.3041 97.0933 69.3434C97.0327 69.4217 97.2256 69.1768 97.0699 69.3707C96.8822 69.6052 96.6959 69.8398 96.5053 70.07C96.0496 70.6237 95.583 71.1685 95.0992 71.6973C94.6991 72.1751 94.2505 72.6088 93.7607 72.9911C93.1766 73.4091 92.5027 73.6797 91.795 73.7805C90.4351 73.9582 89.4102 73.25 88.7108 72.116C87.9102 70.8178 87.3639 69.3243 86.8472 67.8933C86.1608 65.9904 85.591 64.0474 84.9955 62.1137L84.5912 62.8351C85.6182 62.5748 86.6199 62.221 87.5842 61.778C88.5903 61.3451 89.5777 60.8702 90.5463 60.3531L89.6978 60.0026C90.6395 62.3548 91.5816 64.706 92.6099 67.0206C92.688 67.154 92.8146 67.2509 92.9625 67.2903C93.1103 67.3297 93.2675 67.3084 93.4 67.2311C93.5296 67.1501 93.6234 67.0215 93.6621 66.872C93.7007 66.7225 93.6811 66.5637 93.6074 66.4285L93.6085 66.4271Z" fill="#4A3E42"/>
<path d="M95.7441 54.851C96.0667 58.3061 96.5166 61.7599 97.1138 65.1771C97.424 66.9521 97.9279 68.7078 98.1061 70.5027C98.1907 71.7389 98.1454 72.9808 97.971 74.2073C97.7553 76.2092 97.5141 78.2083 97.2473 80.2047C97.2118 80.3546 97.2338 80.5126 97.3089 80.6466C97.384 80.7806 97.5065 80.8805 97.6516 80.9261C97.7994 80.9664 97.9568 80.9459 98.0898 80.869C98.2228 80.7922 98.3206 80.6652 98.362 80.5156C98.6059 78.6779 98.8319 76.8385 99.04 74.9973C99.1737 73.8064 99.3701 72.5897 99.3239 71.3877C99.2503 69.4717 98.742 67.6318 98.3906 65.7592C98.0613 64.0062 97.7957 62.2402 97.5545 60.4728C97.2995 58.6037 97.0754 56.729 96.9001 54.8502C96.8961 54.6959 96.834 54.5491 96.7265 54.44C96.6191 54.3308 96.4745 54.2677 96.3226 54.2637C96.1697 54.2647 96.0234 54.3269 95.9153 54.4366C95.8073 54.5464 95.7461 54.6949 95.745 54.8502L95.7441 54.851Z" fill="#4A3E42"/>
<path d="M125.809 61.8871C125.228 59.976 124.782 58.0048 124.006 56.1603C123.815 55.7065 123.559 55.2842 123.245 54.9076C122.906 54.5229 122.475 54.2331 121.993 54.0659C121.047 53.6818 120.12 53.2575 119.163 52.8953C118.545 52.6607 117.924 52.4349 117.308 52.1942C117.029 52.0851 116.751 51.9742 116.476 51.8555C116.237 51.7082 115.973 51.6069 115.699 51.5566C114.955 51.5566 114.954 52.7296 115.699 52.7296H115.701L115.41 52.6496C116.614 53.2158 117.872 53.6504 119.113 54.1237C119.69 54.3442 120.268 54.5674 120.827 54.8307C121.315 55.0606 121.937 55.1938 122.312 55.6046C122.68 56.0405 122.958 56.5467 123.131 57.0934C123.349 57.6906 123.551 58.2935 123.737 58.9018C124.073 59.9956 124.362 61.1038 124.694 62.1991C124.913 62.9181 126.028 62.6114 125.808 61.8871H125.809Z" fill="#4A3E42"/>
<path d="M117.362 63.3777C117.77 62.1567 118.271 60.9373 118.48 59.6603C118.605 59.1479 118.547 58.6068 118.316 58.1339C117.961 57.5525 117.527 57.0249 117.026 56.5668V57.3961C117.471 56.9702 117.878 56.5057 118.243 56.0079C118.345 55.8954 118.421 55.7618 118.467 55.6164C118.513 55.471 118.527 55.3172 118.509 55.1657C118.424 54.8596 118.273 54.5769 118.065 54.3393C117.701 53.8238 117.33 53.3138 116.952 52.8092C116.759 52.5535 116.564 52.2993 116.366 52.0467C116.185 51.818 116.024 51.5556 115.699 51.5556L116.108 51.7274C115.751 51.2843 115.383 50.8518 115.007 50.4254C114.511 49.8612 113.696 50.6931 114.191 51.2547C114.44 51.5383 114.687 51.8239 114.929 52.1142C115.138 52.3655 115.336 52.7285 115.702 52.7285L115.294 52.5567C115.67 53.0259 116.036 53.5024 116.391 53.9863C116.564 54.2236 116.736 54.4621 116.907 54.7018C117.061 54.9194 117.356 55.2138 117.396 55.4768V55.1648C117.342 55.4091 117.046 55.673 116.887 55.8575C116.673 56.105 116.446 56.3396 116.211 56.5659C116.104 56.677 116.045 56.8257 116.045 56.9806C116.045 57.1355 116.104 57.2842 116.211 57.3952C116.596 57.7967 117.075 58.2111 117.32 58.7251C117.471 59.0421 117.366 59.3861 117.299 59.7166C117.016 60.8533 116.666 61.9715 116.25 63.0648C116.011 63.7815 117.126 64.0889 117.364 63.3769L117.362 63.3777Z" fill="#4A3E42"/>
<path d="M103.361 50.4267C102.42 51.4968 101.539 52.6167 100.705 53.7759C100.323 54.3081 99.5986 55.0125 99.942 55.7216C100.247 56.3509 100.847 56.9206 101.343 57.3972V56.5679C100.768 57.1673 99.9922 57.854 99.8412 58.7203C99.7286 59.3622 99.9492 60.1437 100.134 60.7569C100.763 62.8468 101.52 64.9063 102.211 66.976C102.449 67.6868 103.565 67.3819 103.325 66.6643L101.386 60.8651C101.173 60.3002 101.035 59.7095 100.973 59.1079C100.983 58.8281 101.095 58.5619 101.286 58.3599C101.558 58.0216 101.85 57.7001 102.161 57.3972C102.267 57.2862 102.327 57.1374 102.327 56.9825C102.327 56.8276 102.267 56.6788 102.161 56.5679C101.925 56.3415 101.699 56.1069 101.485 55.8594C101.326 55.6755 101.029 55.411 100.977 55.1676V55.4796C101.04 55.2823 101.147 55.1019 101.288 54.9518C101.426 54.7563 101.564 54.5614 101.703 54.3671C101.953 54.019 102.207 53.6732 102.467 53.3328C103.012 52.619 103.586 51.9287 104.178 51.2551C104.672 50.6939 103.858 49.8616 103.361 50.4258V50.4267Z" fill="#4A3E42"/>
<path d="M104.716 76.4488C107.713 76.4464 110.708 76.3168 113.705 76.3151C114.448 76.3151 114.449 75.1421 113.705 75.1421C110.708 75.1438 107.713 75.2735 104.716 75.2758C103.973 75.2758 103.971 76.4488 104.716 76.4488Z" fill="#4A3E42"/>
<path d="M104.314 79.7205C104.704 78.1252 104.964 76.4999 105.09 74.8611C105.289 72.9385 105.388 71.0065 105.385 69.0733C105.387 65.4107 105.15 61.7618 104.971 58.1059C104.809 55.6112 104.843 53.1073 105.075 50.6182C105.074 50.463 105.013 50.3143 104.904 50.2045C104.796 50.0947 104.65 50.0327 104.497 50.0317C104.345 50.0352 104.2 50.0982 104.093 50.2074C103.985 50.3166 103.923 50.4638 103.92 50.6182C103.497 54.4891 103.849 58.3798 104.042 62.2548C104.238 66.1907 104.366 70.1522 104.011 74.0825C103.85 75.8572 103.675 77.6894 103.2 79.4084C102.998 80.1366 104.113 80.4474 104.314 79.7205Z" fill="#4A3E42"/>
<path d="M118.873 72.7076C119.109 75.2345 119.441 77.7546 119.771 80.2704C119.776 80.4244 119.838 80.5708 119.946 80.6797C120.053 80.7887 120.197 80.852 120.349 80.8569C120.629 80.8569 120.968 80.5865 120.926 80.2704C120.596 77.7546 120.264 75.2345 120.028 72.7076C120.024 72.5533 119.962 72.4066 119.854 72.2975C119.747 72.1884 119.603 72.1252 119.451 72.1211C119.298 72.1222 119.151 72.1843 119.043 72.2941C118.935 72.4038 118.874 72.5524 118.873 72.7076Z" fill="#4A3E42"/>
<path d="M121.44 62.6594C121.829 60.0671 122.162 57.4634 122.405 54.8526C122.404 54.6974 122.342 54.5489 122.234 54.4392C122.126 54.3294 121.98 54.2673 121.827 54.2661C121.675 54.2693 121.53 54.3322 121.422 54.4415C121.315 54.5508 121.253 54.6981 121.25 54.8526C121.016 57.359 120.699 59.8586 120.325 62.3474C120.29 62.4973 120.311 62.6555 120.387 62.7896C120.462 62.9238 120.584 63.0237 120.73 63.069C120.878 63.1091 121.035 63.0885 121.168 63.0117C121.301 62.9348 121.399 62.808 121.44 62.6585L121.44 62.6594Z" fill="#4A3E42"/>
<path d="M112.807 71.3059C112.834 72.7483 112.946 74.1877 113.142 75.6166C113.265 76.9809 113.49 78.3338 113.815 79.6634C114.015 80.3892 115.13 80.081 114.929 79.3514C114.617 78.0875 114.401 76.801 114.284 75.5034C114.096 74.1116 113.988 72.7099 113.962 71.3053C113.962 70.5505 112.807 70.5493 112.807 71.3053V71.3059Z" fill="#4A3E42"/>
<path d="M114.076 62.89C114.26 58.8002 114.657 54.7053 114.223 50.6177C114.219 50.4636 114.157 50.3169 114.049 50.2079C113.942 50.0988 113.797 50.0356 113.646 50.0312C113.493 50.0322 113.346 50.0943 113.238 50.204C113.13 50.3138 113.069 50.4625 113.068 50.6177C113.501 54.7053 113.105 58.7993 112.921 62.89C112.887 63.6446 114.042 63.6431 114.076 62.89Z" fill="#4A3E42"/>
<path d="M121.398 71.4959C120.948 71.745 120.457 71.9103 119.95 71.9842C119.335 72.1349 118.719 72.2841 118.096 72.3929C117.037 72.5777 115.838 72.6736 114.88 72.088C114.242 71.6974 113.66 72.7111 114.297 73.1008C115.469 73.8175 116.871 73.7668 118.176 73.5615C118.858 73.4545 119.531 73.2929 120.202 73.1287C120.808 72.98 121.453 72.8703 121.981 72.5088C122.594 72.0888 122.016 71.0719 121.398 71.4959Z" fill="#4A3E42"/>
<path d="M122.44 68.2322C121.957 67.5636 121.352 66.9953 120.657 66.5583C120.333 66.3526 119.961 66.2384 119.579 66.2275C119.175 66.2423 118.78 66.3607 118.433 66.5718C118.301 66.6514 118.206 66.78 118.167 66.9301C118.129 67.0802 118.15 67.2398 118.226 67.3744C118.305 67.5063 118.432 67.6019 118.579 67.6411C118.726 67.6802 118.883 67.66 119.016 67.5847C119.049 67.5662 119.082 67.5477 119.116 67.5301C119.128 67.524 119.259 67.4606 119.193 67.4905C119.137 67.5163 119.231 67.4762 119.242 67.4721C119.272 67.4612 119.303 67.4507 119.334 67.4413C119.358 67.4342 119.523 67.3765 119.536 67.3947C119.536 67.3947 119.416 67.402 119.514 67.402C119.543 67.402 119.572 67.4002 119.601 67.402C119.62 67.402 119.745 67.4073 119.654 67.402C119.572 67.3973 119.666 67.4058 119.684 67.4096C119.743 67.4225 119.801 67.4392 119.858 67.4595C119.912 67.4785 119.942 67.4988 119.873 67.4636C119.902 67.4785 119.933 67.4929 119.962 67.5081C120.032 67.5454 120.101 67.587 120.167 67.6307C120.234 67.6744 120.295 67.7187 120.357 67.765C120.438 67.8237 120.306 67.7234 120.38 67.7817C120.416 67.8105 120.452 67.8398 120.488 67.8697C120.61 67.9696 120.729 68.0732 120.845 68.1806C120.96 68.2876 121.072 68.3987 121.179 68.5146C121.229 68.5691 121.278 68.6247 121.326 68.6814C121.355 68.7169 121.384 68.7544 121.415 68.7893C121.481 68.8647 121.339 68.6846 121.443 68.8257C121.523 68.957 121.65 69.0521 121.797 69.0913C121.944 69.1305 122.101 69.1108 122.234 69.0362C122.365 68.9566 122.46 68.828 122.499 68.678C122.537 68.528 122.517 68.3686 122.441 68.2339L122.44 68.2322Z" fill="#4A3E42"/>
<path d="M120.295 68.7027C119.791 68.22 119.338 67.6728 118.864 67.1596C118.629 66.9051 118.395 66.6468 118.148 66.4039C117.935 66.1847 117.674 66.0199 117.386 65.923C117.098 65.8262 116.791 65.8 116.491 65.8468C116.143 65.8968 115.823 66.0702 115.588 66.3362C115.353 66.6023 115.218 66.9441 115.207 67.3013C115.207 67.4568 115.268 67.606 115.376 67.716C115.485 67.826 115.631 67.8878 115.785 67.8878C115.938 67.8878 116.085 67.826 116.193 67.716C116.301 67.606 116.362 67.4568 116.362 67.3013C116.362 67.2673 116.362 67.2335 116.367 67.1998C116.356 67.2755 116.357 67.2805 116.37 67.2148C116.391 67.1516 116.387 67.1557 116.358 67.2271C116.371 67.2001 116.386 67.174 116.402 67.1488C116.34 67.2626 116.428 67.125 116.466 67.094C116.369 67.1725 116.553 67.0526 116.574 67.0412C116.635 67.0116 116.646 67.0067 116.607 67.0262C116.642 67.0129 116.678 67.002 116.714 66.9934C116.783 66.9793 116.788 66.978 116.731 66.9896C116.77 66.9875 116.809 66.9872 116.848 66.9896C116.919 66.9951 116.928 66.9957 116.875 66.991C116.915 66.9992 116.955 67.0092 116.994 67.0203C117.09 67.0426 117.008 67.0124 117.09 67.0567C117.37 67.2539 117.62 67.4909 117.834 67.7605C118.383 68.347 118.899 68.9789 119.48 69.5335C119.589 69.6403 119.735 69.6994 119.886 69.6981C120.038 69.6967 120.182 69.6351 120.29 69.5263C120.397 69.4176 120.457 69.2705 120.459 69.1167C120.46 68.9629 120.402 68.8148 120.297 68.7042L120.295 68.7027Z" fill="#4A3E42"/>
<path d="M125.26 70.1225C126.818 68.7085 128.355 67.2546 129.835 65.7561C129.941 65.645 130 65.4962 130 65.3414C130 65.1866 129.941 65.0379 129.835 64.9268C128.373 63.4312 126.148 63.1459 124.17 63.2418C122.055 63.3444 119.709 64.1265 118.255 65.7655H119.072C117.332 64.1233 114.803 63.8541 112.549 64.2259C110.508 64.5626 108.436 65.4282 107.416 67.3593C107.353 67.4717 107.328 67.6017 107.345 67.7298C107.361 67.8579 107.418 67.9772 107.507 68.0698C109.027 69.4187 110.677 70.621 112.26 71.8908C112.37 71.9965 112.516 72.0553 112.668 72.0553C112.82 72.0553 112.966 71.9965 113.077 71.8908C113.184 71.7803 113.244 71.6313 113.244 71.4761C113.244 71.3209 113.184 71.172 113.077 71.0615C111.494 69.7903 109.844 68.5883 108.323 67.2405L108.414 67.951C109.274 66.3218 111.017 65.6845 112.725 65.3796C114.586 65.0473 116.809 65.2306 118.255 66.5948C118.364 66.703 118.511 66.7635 118.663 66.7635C118.816 66.7635 118.963 66.703 119.072 66.5948C120.323 65.1843 122.347 64.5033 124.17 64.4148C125.835 64.3339 127.775 64.4837 129.018 65.7561V64.9268C127.539 66.425 126.001 67.8789 124.444 69.2932C123.888 69.7973 124.707 70.6245 125.26 70.1225Z" fill="#4A3E42"/>
<path d="M128.714 64.8968C129.067 64.5546 129.407 64.2001 129.745 63.8412C129.806 63.7769 129.851 63.6997 129.879 63.6151C129.906 63.5306 129.915 63.4409 129.904 63.3526C129.893 63.2643 129.862 63.1796 129.815 63.1048C129.768 63.03 129.704 62.9668 129.63 62.9201C128.921 62.3476 128.099 61.9367 127.221 61.7151C126.207 61.505 125.175 61.4006 124.141 61.4034C122.982 61.3913 121.83 61.5715 120.729 61.9371C119.705 62.2732 118.67 62.743 117.924 63.5544L118.624 63.4626C116.756 62.1723 114.274 62.055 112.122 62.5016C110.067 62.9289 108.038 63.9678 106.728 65.6716C106.625 65.7845 106.568 65.9325 106.568 66.0862C106.568 66.2399 106.625 66.388 106.728 66.5009C107.063 66.8896 107.44 67.2381 107.853 67.5399C107.985 67.6175 108.142 67.6389 108.29 67.5995C108.438 67.5601 108.565 67.463 108.643 67.3293C108.716 67.1941 108.736 67.0354 108.697 66.886C108.659 66.7367 108.565 66.6081 108.436 66.527C108.533 66.6026 108.328 66.429 108.294 66.3988C108.187 66.3034 108.082 66.2067 107.978 66.1085C107.823 65.9733 107.679 65.8273 107.544 65.6716V66.5009C108.722 64.9696 110.459 64.067 112.301 63.6599C114.2 63.24 116.391 63.3374 118.041 64.4754C118.151 64.5403 118.279 64.5664 118.406 64.5499C118.532 64.5333 118.65 64.4749 118.741 64.3837C119.383 63.6849 120.28 63.3063 121.163 63.0274C122.169 62.7059 123.219 62.5542 124.273 62.5784C125.175 62.5784 126.075 62.6715 126.958 62.8564C127.722 63.0604 128.434 63.4274 129.047 63.9329L128.932 63.0119C128.595 63.3705 128.254 63.7253 127.901 64.0675C127.362 64.5898 128.18 65.4185 128.718 64.8968H128.714Z" fill="#4A3E42"/>
<path d="M113.786 67.5425C113.505 67.3858 113.186 67.3145 112.867 67.3371C112.547 67.3597 112.241 67.4752 111.984 67.6698C111.778 67.8209 111.614 68.0224 111.505 68.2557C111.397 68.489 111.348 68.7463 111.364 69.0038C111.4 69.5205 111.594 70.0131 111.918 70.4131C112.232 70.8409 112.57 71.25 112.915 71.6521C113.283 72.0792 113.658 72.499 114.042 72.9115C114.15 73.0216 114.297 73.0834 114.45 73.0834C114.603 73.0834 114.75 73.0216 114.859 72.9115C114.967 72.8015 115.028 72.6523 115.028 72.4967C115.028 72.3412 114.967 72.192 114.859 72.082C114.504 71.7007 114.156 71.3132 113.814 70.9192C113.623 70.6981 113.435 70.4746 113.25 70.2486C113.165 70.1442 113.081 70.0383 112.998 69.9325C112.921 69.8354 113.036 69.9864 112.959 69.8817C112.925 69.8354 112.891 69.7894 112.857 69.7424C112.758 69.6148 112.67 69.4785 112.594 69.3351C112.538 69.2109 112.511 69.0749 112.517 68.9384C112.517 68.914 112.529 68.7378 112.513 68.8577C112.515 68.8381 112.558 68.6636 112.523 68.7741C112.49 68.8788 112.548 68.7416 112.558 68.7199C112.603 68.6199 112.483 68.7885 112.569 68.7052C112.614 68.6615 112.655 68.6149 112.703 68.5753C112.623 68.6398 112.72 68.5753 112.751 68.553C112.845 68.4856 112.698 68.5554 112.804 68.5258C112.839 68.5139 112.874 68.5041 112.909 68.4964C112.848 68.5011 112.852 68.5011 112.924 68.4964C113.02 68.4848 113.118 68.5053 113.202 68.5551C113.335 68.6297 113.491 68.6494 113.638 68.6103C113.785 68.5711 113.912 68.4761 113.992 68.3448C114.068 68.2102 114.088 68.0506 114.05 67.9005C114.011 67.7504 113.916 67.6218 113.785 67.5422L113.786 67.5425Z" fill="#4A3E42"/>
<path d="M118.054 69.3466C117.579 68.8241 117.116 68.2909 116.644 67.7657C116.411 67.5065 116.176 67.2484 115.935 66.9966C115.75 66.7817 115.541 66.5892 115.312 66.423C114.556 65.9368 113.503 66.0244 113.01 66.8426C112.45 67.7725 113.243 68.6021 113.793 69.2862C114.372 70.0196 114.99 70.7209 115.643 71.387C116.173 71.9175 116.991 71.0888 116.46 70.5577C115.946 70.0431 115.462 69.502 115 68.9384C114.765 68.6516 114.534 68.3616 114.301 68.0731C114.199 67.9503 114.108 67.8176 114.031 67.6769C114.016 67.6511 114 67.6261 113.986 67.6C113.941 67.5162 114.006 67.6707 113.98 67.583C113.976 67.5669 113.948 67.4555 113.966 67.5285C113.98 67.5871 113.982 67.4461 113.962 67.5508C113.969 67.5151 113.979 67.4802 113.991 67.4464C113.954 67.5382 113.997 67.4464 114.007 67.4347C113.952 67.4918 114.023 67.4144 114.029 67.4083C114.059 67.3758 114.091 67.3453 114.125 67.3168C114.096 67.3405 114.11 67.3253 114.163 67.3001C114.137 67.3124 114.081 67.3232 114.186 67.2965C114.207 67.291 114.295 67.2833 114.199 67.2904C114.245 67.2879 114.292 67.2879 114.339 67.2904C114.433 67.2936 114.259 67.2716 114.349 67.2904C114.376 67.2962 114.403 67.3015 114.429 67.308C114.495 67.3256 114.561 67.3469 114.625 67.3719C114.505 67.3265 114.651 67.3883 114.684 67.4071C114.703 67.4182 114.723 67.4335 114.742 67.4435C114.828 67.4872 114.652 67.3525 114.7 67.4109C114.854 67.5986 115.057 67.7605 115.224 67.9387C115.434 68.1619 115.641 68.3895 115.846 68.6176C116.312 69.1352 116.768 69.661 117.236 70.1762C117.29 70.2307 117.353 70.2739 117.424 70.3033C117.494 70.3328 117.569 70.3479 117.645 70.3479C117.72 70.3479 117.796 70.3327 117.866 70.3032C117.936 70.2737 117.999 70.2305 118.053 70.1761C118.107 70.1216 118.149 70.0569 118.178 69.9858C118.207 69.9146 118.222 69.8383 118.222 69.7613C118.222 69.6843 118.207 69.608 118.178 69.5369C118.149 69.4657 118.106 69.4011 118.053 69.3466H118.054Z" fill="#4A3E42"/>
<path d="M122.27 68.3837C122.542 68.1888 122.831 68.0185 123.132 67.8746C123.333 67.7493 123.568 67.69 123.803 67.7048C123.892 67.7342 123.964 67.9224 123.979 68.0811C123.976 68.3764 123.887 68.6643 123.724 68.9089C123.583 69.1244 123.419 69.3231 123.233 69.501C123.029 69.7224 122.837 69.954 122.647 70.1886C122.29 70.6787 121.87 71.1182 121.398 71.4953C121.269 71.5766 121.175 71.7052 121.137 71.8545C121.098 72.0038 121.117 72.1624 121.191 72.2976C121.269 72.431 121.395 72.5279 121.543 72.5673C121.691 72.6066 121.848 72.5854 121.981 72.5082C122.615 72.0052 123.181 71.4209 123.667 70.7698C123.895 70.4951 124.146 70.242 124.376 69.969C124.662 69.6332 124.879 69.2436 125.017 68.8224C125.292 67.9916 125.039 66.8362 124.104 66.5761C123.279 66.3462 122.336 66.9084 121.686 67.3711C121.557 67.4523 121.463 67.5809 121.425 67.7303C121.386 67.8796 121.406 68.0383 121.479 68.1734C121.557 68.3068 121.684 68.4035 121.832 68.4429C121.979 68.4822 122.137 68.4609 122.269 68.3837H122.27Z" fill="#4A3E42"/>
<path d="M107.849 45.4715C108.352 45.7372 108.913 45.8703 109.481 45.8585C110.083 45.8816 110.675 45.6989 111.162 45.3398C111.271 45.2298 111.332 45.0807 111.332 44.9251C111.331 44.7698 111.27 44.621 111.162 44.5105C111.052 44.4047 110.906 44.3457 110.754 44.3457C110.602 44.3457 110.456 44.4047 110.346 44.5105C110.546 44.3518 110.346 44.5026 110.282 44.5363C110.233 44.5621 110.105 44.6032 110.289 44.5386C110.245 44.5539 110.203 44.5727 110.157 44.587C110.037 44.6263 109.909 44.6348 109.789 44.6724C109.85 44.6533 109.889 44.6603 109.801 44.6691C109.765 44.6727 109.729 44.6759 109.693 44.6782C109.606 44.6839 109.518 44.6863 109.431 44.6856C109.353 44.6856 109.275 44.6827 109.197 44.677C109.161 44.6747 109.125 44.6718 109.09 44.668C109.069 44.6659 109.049 44.6639 109.028 44.6612C108.983 44.6556 109.001 44.658 109.085 44.6688C109.027 44.6515 108.968 44.6403 108.908 44.6354C108.851 44.6228 108.796 44.6081 108.741 44.5911C108.692 44.5765 108.645 44.5592 108.598 44.5424C108.47 44.4982 108.722 44.6011 108.607 44.5471C108.549 44.5178 108.489 44.4885 108.432 44.4592C108.299 44.3807 108.142 44.3587 107.994 44.3982C107.845 44.4376 107.719 44.5353 107.641 44.6696C107.564 44.8039 107.543 44.9639 107.581 45.1144C107.62 45.2649 107.716 45.3935 107.849 45.472V45.4715Z" fill="#4A3E42"/>
<path d="M109.108 41.6731C109.179 41.9337 109.235 42.198 109.278 42.4649L109.257 42.3089C109.262 42.3451 109.263 42.3818 109.26 42.4183L109.281 42.2623C109.278 42.279 109.274 42.2955 109.269 42.3115L109.327 42.1713C109.322 42.1824 109.316 42.193 109.31 42.203L109.4 42.0843C109.393 42.0937 109.384 42.1022 109.375 42.1098L109.49 42.018C109.471 42.0305 109.45 42.0415 109.429 42.0511L109.567 41.9925C109.533 42.0069 109.498 42.0173 109.463 42.0233L109.616 42.0021C109.584 42.0061 109.551 42.0061 109.519 42.0021L109.672 42.023C109.635 42.018 109.599 42.0089 109.562 42.0036C109.488 41.9792 109.408 41.9756 109.331 41.9933C109.255 41.9967 109.181 42.0207 109.116 42.0628C109.051 42.1017 108.994 42.1533 108.948 42.2146C108.902 42.276 108.868 42.3459 108.849 42.4204C108.83 42.4949 108.825 42.5725 108.835 42.6488C108.846 42.7252 108.871 42.7987 108.909 42.8652L108.999 42.9825C109.07 43.0543 109.158 43.1062 109.254 43.1332C109.354 43.147 109.45 43.1722 109.552 43.1766C109.712 43.1771 109.869 43.1381 110.011 43.0628C110.103 43.0181 110.185 42.9533 110.25 42.873C110.315 42.7928 110.362 42.699 110.388 42.5983C110.422 42.44 110.421 42.276 110.384 42.1183C110.342 41.8631 110.284 41.6107 110.219 41.3605C110.178 41.2134 110.083 41.0877 109.954 41.0086C109.819 40.9303 109.659 40.9093 109.508 40.95C109.364 40.9913 109.24 41.0878 109.163 41.2195C109.088 41.3571 109.067 41.5188 109.106 41.6714L109.108 41.6731Z" fill="#4A3E42"/>
<path d="M105.155 39.3835C105.025 39.8131 105.11 40.8014 105.911 40.8855C106.97 40.8791 107.027 39.6832 106.67 39.1225C106.378 38.6627 105.52 38.4715 105.155 39.3835Z" fill="#4A3E42"/>
<path d="M113.638 39.3838C113.769 39.8131 113.684 40.8013 112.882 40.8855C111.823 40.8788 111.767 39.6832 112.123 39.1225C112.415 38.6627 113.273 38.4715 113.638 39.3838Z" fill="#4A3E42"/>
</g>
</svg>
