<svg width="100" height="80" viewBox="0 0 100 80" fill="none" xmlns="http://www.w3.org/2000/svg">
<mask id="mask0_1592_29276" style="mask-type:alpha" maskUnits="userSpaceOnUse" x="0" y="0" width="100" height="80">
<rect width="100" height="80" fill="#D9D9D9"/>
</mask>
<g mask="url(#mask0_1592_29276)">
<path d="M2.11588 9.81146H0.40625C0.40625 11.2712 0.40625 52.8642 0.40625 54.2615C6.81005 54.2615 66.008 54.2058 74.7524 54.197C74.7598 39.2298 74.7693 10.7318 74.7695 9.80518C66.6748 9.8054 14.0516 9.81057 2.11588 9.81146Z" fill="white"/>
<path d="M45.5443 27.2733C45.5443 26.3726 45.543 25.8085 45.543 25.7534H52.9181V44.3981C50.5443 44.4035 48.0647 44.4094 45.5601 44.4157C45.5607 43.2342 45.5485 31.5173 45.5443 27.2733Z" fill="#65B005"/>
<path d="M53.9704 19.1106C53.9501 19.0356 53.9095 18.9678 53.8532 18.915C53.7969 18.8622 53.7272 18.8265 53.6519 18.812C53.0996 18.6597 52.5172 18.6597 51.9649 18.812C51.2454 18.9919 50.5939 19.3828 50.0916 19.936C49.8143 20.269 49.6061 20.6555 49.4795 21.0723C49.3529 21.4891 49.3106 21.9275 49.355 22.3613C49.3579 22.3872 49.3688 22.4115 49.3861 22.4307C49.4033 22.45 49.4261 22.4633 49.4512 22.4687C49.8364 22.5732 51.4196 22.9095 52.6784 22.0413C53.2623 21.6583 53.7087 21.0941 53.9513 20.4327C54.0648 20.0003 54.0713 19.5462 53.9704 19.1106Z" fill="#65B005"/>
<path d="M44.5066 19.1106C44.5269 19.0356 44.5675 18.9678 44.6238 18.915C44.6801 18.8622 44.7498 18.8265 44.8251 18.812C45.3774 18.6597 45.9598 18.6597 46.5121 18.812C47.2317 18.9918 47.8832 19.3827 48.3856 19.936C48.6628 20.2691 48.871 20.6556 48.9975 21.0724C49.1241 21.4891 49.1665 21.9275 49.1222 22.3613C49.1193 22.3872 49.1084 22.4115 49.0911 22.4308C49.0738 22.45 49.0509 22.4633 49.0258 22.4687C48.6409 22.5732 47.0577 22.9095 45.7988 22.0413C45.2149 21.6582 44.7684 21.0941 44.5257 20.4327C44.4124 20.0003 44.4058 19.5462 44.5066 19.1106Z" fill="#65B005"/>
<path d="M57.666 54.4881H57.6687V53.5858C57.1134 53.591 56.558 53.5869 56.0026 53.5876L58.1132 53.5923L51.3714 53.5993L47.6758 53.6079L38.4421 53.6171C35.2589 53.6206 32.0759 53.6238 28.8929 53.6266L19.7551 53.6354L11.6353 53.6431L5.18057 53.6485C3.79559 53.6496 2.41046 53.6505 1.02518 53.6512H0.444283L0.888567 54.1024V49.2661C0.888567 45.7772 0.888567 42.2889 0.888567 38.8011V9.4543L0.444283 9.90545H3.90969H9.74335H17.3888H26.3202H35.8945H45.5799H54.8497H63.056H69.6758H74.1555H74.8473L74.403 9.4543C74.403 11.9392 74.4015 22.8856 74.3984 25.3706C74.403 28.1107 74.3821 27.9662 74.3821 27.9662C74.3821 28.5466 75.2707 28.5477 75.2707 27.9662C75.2813 12.3503 75.2819 24.6412 75.2898 12.2913C75.2898 11.3457 75.2904 10.4001 75.2916 9.4543C75.2899 9.3352 75.2425 9.22146 75.1596 9.13723C75.0766 9.053 74.9646 9.00491 74.8473 9.00316H70.9776H64.8287H56.9553H47.882L38.2528 9H28.6007H19.4516H11.4525H5.12747L1.03052 9.00316H0.444283C0.32697 9.00485 0.21493 9.05292 0.131969 9.13717C0.049008 9.22141 0.00166508 9.33518 0 9.4543V37.2956C0 40.9323 0 44.5691 0 48.2061V54.1026C0.00166508 54.2217 0.049008 54.3355 0.131969 54.4197C0.21493 54.504 0.32697 54.552 0.444283 54.5537C1.60875 54.5537 2.77336 54.553 3.93813 54.5517L9.89152 54.5467L17.6665 54.5397L26.6166 54.5312L36.0958 54.5219L45.4953 54.5124L51.0128 54.5037L56.6566 54.4962L55.143 54.4908C55.9498 54.4908 56.7595 54.5097 57.5659 54.4881C57.6003 54.4881 57.6345 54.4881 57.6687 54.4881C57.7865 54.4881 57.8998 54.4406 57.9831 54.3559C58.0664 54.2713 58.1132 54.1566 58.1132 54.0369C58.1132 53.9173 58.0664 53.8025 57.9831 53.7179C57.8998 53.6333 57.7865 53.5858 57.6687 53.5858H57.6663C57.0945 53.5858 57.0934 54.4881 57.666 54.4881Z" fill="#4A3E42"/>
<path d="M21.3499 44.4725C21.3499 41.7478 21.3397 39.0228 21.3341 36.2981C21.3341 35.9038 21.3334 35.5097 21.3319 35.1157L20.8876 35.5668H28.2627L27.8185 35.1157V44.4571C27.8185 45.0377 28.707 45.0386 28.707 44.4571V35.1157C28.7054 34.9966 28.6581 34.8827 28.5751 34.7985C28.4922 34.7142 28.3801 34.6662 28.2627 34.6646H20.8876C20.7703 34.6662 20.6583 34.7143 20.5753 34.7986C20.4924 34.8828 20.445 34.9966 20.4434 35.1157C20.4434 37.7369 20.4542 40.3582 20.4591 42.9796C20.46 43.4772 20.4608 43.9748 20.4614 44.4725C20.4614 45.0531 21.3499 45.054 21.3499 44.4725Z" fill="#4A3E42"/>
<path d="M33.6773 44.4469C33.6773 42.7299 33.6756 41.0128 33.6722 39.2958C33.6696 36.9182 33.6668 34.5408 33.664 32.1634C33.664 31.5873 33.6633 31.0111 33.662 30.435L33.2177 30.8862H40.5928L40.1485 30.435V44.4314C40.1485 45.012 41.0371 45.0129 41.0371 44.4314V30.435C41.0354 30.3159 40.9881 30.2021 40.9051 30.1179C40.8222 30.0337 40.7101 29.9856 40.5928 29.9839H33.2177C33.1004 29.9856 32.9884 30.0337 32.9054 30.1179C32.8224 30.2021 32.7751 30.3159 32.7734 30.435C32.7734 31.9607 32.7752 33.4864 32.7788 35.0121C32.7814 37.4434 32.7842 39.8745 32.787 42.3056C32.787 43.0193 32.7876 43.7331 32.7888 44.4469C32.7888 45.0276 33.6773 45.0285 33.6773 44.4469Z" fill="#4A3E42"/>
<path d="M46.0059 44.4172C46.0059 42.1381 46.0039 39.8587 45.9999 37.5792C45.9968 34.3937 45.9936 31.2081 45.9902 28.0224C45.9902 27.2658 45.9895 26.5093 45.9882 25.7529L45.5439 26.204H52.919L52.4747 25.7529V44.3992C52.4747 44.9796 53.3633 44.9807 53.3633 44.3992V25.7529C53.3616 25.6338 53.3142 25.5201 53.2312 25.4358C53.1483 25.3516 53.0363 25.3035 52.919 25.3018H45.5439C45.4266 25.3034 45.3145 25.3514 45.2315 25.4357C45.1485 25.52 45.1012 25.6338 45.0996 25.7529C45.0996 27.7697 45.1016 29.7866 45.1056 31.8037C45.109 35.0627 45.1122 38.3219 45.1152 41.5811C45.116 42.5266 45.1168 43.4719 45.1174 44.4172C45.1174 44.9979 46.0059 44.9988 46.0059 44.4172Z" fill="#4A3E42"/>
<path d="M58.29 43.9082C56.5277 43.9082 54.7659 43.9121 53.0046 43.9199C49.9466 43.9285 46.8884 43.9378 43.8301 43.9479L33.0409 43.9815C29.694 43.9919 26.3471 44.0017 23.0001 44.0108C20.6873 44.0169 18.3746 44.0216 16.062 44.025H15.5228C14.9513 44.025 14.9502 44.9273 15.5228 44.9273C17.6692 44.9273 19.8154 44.9234 21.9614 44.9156C25.2159 44.9073 28.4704 44.898 31.7247 44.8876C35.3326 44.8768 38.9404 44.8655 42.5482 44.8538C45.7206 44.8439 48.893 44.8342 52.0654 44.8247C54.0187 44.819 55.9721 44.8143 57.9255 44.8105H58.29C58.8618 44.8105 58.8627 43.9082 58.29 43.9082Z" fill="#4A3E42"/>
<path d="M54.3994 18.9893C54.2061 18.3101 53.346 18.2314 52.7584 18.2474C52.0745 18.2685 51.4055 18.456 50.8078 18.7942C50.1848 19.1223 49.6713 19.6302 49.332 20.254C48.9927 20.8778 48.8427 21.5896 48.9009 22.2998C48.9529 22.8563 49.4094 22.942 49.8577 23.007C50.9404 23.1635 52.0913 23.0232 52.9995 22.3616C53.4441 22.0492 53.8197 21.6461 54.1024 21.178C54.4693 20.5127 54.5754 19.7313 54.3994 18.99C54.3673 18.8751 54.292 18.7776 54.1898 18.7186C54.0876 18.6595 53.9666 18.6436 53.8529 18.6742C53.7405 18.7079 53.6453 18.7845 53.5873 18.888C53.5293 18.9915 53.5131 19.1137 53.5419 19.2291C53.6528 19.6895 53.6029 20.1747 53.4006 20.6019C53.213 20.9485 52.9598 21.2539 52.6556 21.5008C52.6334 21.5193 52.6112 21.5372 52.5889 21.5545C52.6642 21.4952 52.5736 21.5649 52.5621 21.573C52.5259 21.5987 52.4899 21.6254 52.453 21.6504C52.2503 21.7915 52.0298 21.9043 51.7974 21.9858C51.3878 22.1215 50.9577 22.1826 50.527 22.1663C50.2364 22.1534 49.9474 22.1165 49.6627 22.0562C49.6422 22.0496 49.6214 22.0444 49.6002 22.0406C49.4856 22.0386 49.7589 22.4203 49.7857 22.2748C49.7878 22.2231 49.7851 22.1714 49.7777 22.1203C49.7729 21.956 49.7807 21.7916 49.8011 21.6285C49.9031 20.9257 50.2705 20.2907 50.8254 19.858C51.2006 19.5716 51.6282 19.364 52.0833 19.2471C52.3911 19.1683 52.7089 19.1372 53.0259 19.1549C53.1532 19.1625 53.2795 19.1815 53.4035 19.2117C53.448 19.2223 53.4911 19.2383 53.5348 19.2471C53.6459 19.2697 53.5655 19.3089 53.5433 19.2307C53.7001 19.7869 54.5578 19.5501 54.3994 18.9893Z" fill="#4A3E42"/>
<path d="M44.9371 19.2306C44.9126 19.3159 44.8311 19.259 44.9371 19.2475C44.9622 19.2437 44.9869 19.2373 45.0108 19.2286C45.1076 19.1995 45.2067 19.179 45.3069 19.1672C45.5827 19.1331 45.8619 19.1407 46.1355 19.1898C46.6176 19.2734 47.0769 19.459 47.4837 19.7345C48.0674 20.1219 48.4812 20.7233 48.6388 21.413C48.6736 21.5644 48.6934 21.7189 48.6979 21.8743C48.6878 22.0078 48.6859 22.1417 48.6921 22.2754C48.7188 22.4211 48.9923 22.0392 48.8779 22.0412C48.8568 22.0451 48.8359 22.0503 48.8154 22.0568C48.7617 22.0656 48.7086 22.0812 48.6553 22.0918C48.5151 22.1219 48.3729 22.1419 48.2299 22.1516C47.4153 22.2458 46.5943 22.0407 45.9158 21.5734C45.9158 21.5734 45.827 21.5057 45.8747 21.5434C45.9118 21.5721 45.8008 21.4825 45.7888 21.4724C45.7118 21.4068 45.6377 21.338 45.5666 21.266C45.4193 21.1201 45.2894 20.9573 45.1794 20.7807C44.9003 20.3164 44.8133 19.7587 44.9375 19.2295C44.9657 19.1141 44.9491 18.9922 44.8912 18.8889C44.8334 18.7856 44.7386 18.7089 44.6265 18.6746C44.5128 18.6438 44.3918 18.6597 44.2896 18.7188C44.1873 18.7779 44.1121 18.8754 44.08 18.9904C43.9257 19.651 43.9905 20.3448 44.2644 20.9641C44.4939 21.4331 44.8232 21.8443 45.2285 22.168C46.0782 22.8471 47.1542 23.1651 48.2301 23.055C48.5551 23.0277 49.1273 23.0182 49.381 22.7662C49.6787 22.4705 49.6032 21.896 49.5525 21.5152C49.4833 21.0094 49.3093 20.5242 49.0421 20.0916C48.7749 19.659 48.4205 19.2887 48.0022 19.0053C47.4074 18.5927 46.7198 18.3391 46.0029 18.2681C45.3651 18.1988 44.2989 18.2261 44.0814 18.9899C43.921 19.5496 44.7782 19.7882 44.9371 19.2306Z" fill="#4A3E42"/>
<path d="M48.7912 22.6587C48.7912 23.6413 48.7852 24.6241 48.7852 25.6067C48.7852 25.7263 48.832 25.8411 48.9153 25.9257C48.9986 26.0103 49.1116 26.0578 49.2294 26.0578C49.3473 26.0578 49.4603 26.0103 49.5436 25.9257C49.6269 25.8411 49.6737 25.7263 49.6737 25.6067C49.6737 24.6241 49.6795 23.6413 49.6797 22.6587C49.6797 22.539 49.6329 22.4243 49.5496 22.3397C49.4663 22.2551 49.3533 22.2075 49.2354 22.2075C49.1176 22.2075 49.0046 22.2551 48.9213 22.3397C48.838 22.4243 48.7912 22.539 48.7912 22.6587Z" fill="#4A3E42"/>
<path d="M80.1676 51.1746C80.8258 51.5806 82.2409 52.0146 84.018 52.0146C86.3218 52.0146 87.1773 51.3462 88.0659 50.8468L88.0881 48.8345C87.5465 48.4628 87.0314 48.0538 86.9216 47.7781C86.8012 47.3675 86.756 46.9379 86.7883 46.5106C88.3225 45.8425 89.5565 43.7456 89.7717 43.1523C89.803 43.0558 89.8659 42.8767 89.9232 42.6628L90.1009 42.6351C90.365 42.5903 90.6132 42.4767 90.8211 42.3053C91.0772 42.0842 91.2833 41.8096 91.4253 41.5002C91.7265 40.8881 91.8561 40.2036 91.8001 39.5217C91.7922 39.3475 91.7485 39.1768 91.6717 39.0207C91.6053 38.9077 91.5148 38.8112 91.4068 38.7383C91.2989 38.6654 91.1763 38.618 91.0479 38.5996C90.9171 38.5801 90.7838 38.5896 90.6569 38.6273C90.53 38.6649 90.4127 38.73 90.3128 38.8179L89.9374 39.1626C89.6202 38.0726 89.1272 37.0436 88.4784 36.1174C88.1025 35.5901 87.5868 35.1822 86.9913 34.9413C86.3958 34.7003 85.7452 34.6361 85.1152 34.7563L85.0843 34.7626C82.27 35.5257 79.136 37.2619 78.1266 38.9989C78.0345 38.8523 77.9021 38.7364 77.7459 38.6653C77.5897 38.5942 77.4164 38.5712 77.2474 38.5989C77.119 38.6174 76.9964 38.6648 76.8884 38.7376C76.7805 38.8105 76.69 38.907 76.6236 39.0201C76.5468 39.1761 76.503 39.3468 76.4952 39.5211C76.4391 40.203 76.5687 40.8874 76.8699 41.4995C77.0119 41.8089 77.218 42.0836 77.4742 42.3046C77.7403 42.5278 78.0749 42.6497 78.42 42.6493C78.648 43.5123 79.0532 44.3166 79.6092 45.0092C80.1237 45.665 80.7829 46.1886 81.5336 46.5377C81.5639 46.9561 81.5187 47.3765 81.4003 47.7784C81.293 48.0477 80.7561 48.4438 80.1785 48.8079C80.179 48.8077 80.1676 50.6111 80.1676 51.1746Z" fill="white"/>
<path d="M88.1854 70.8126C88.0148 70.3297 87.879 69.8348 87.7793 69.3319C87.6758 68.6818 87.5739 67.995 87.4868 67.2515C85.8169 67.2648 81.489 67.3525 80.5471 67.3525H80.3061C80.2194 68.0572 80.1219 68.7114 80.023 69.3319C79.9233 69.8348 79.7877 70.3297 79.6172 70.8126H88.1854Z" fill="white"/>
<path d="M92.2685 61.0561C92.4364 60.3295 92.6066 59.4274 92.7694 58.4462H96.9317C96.0653 56.1512 95.914 54.8348 95.0484 52.5398C94.8988 52.1228 94.6683 51.7406 94.3704 51.416C94.0787 51.0988 93.6273 51.0099 93.2426 50.8216C92.1096 50.2658 90.2437 49.701 88.9997 49.1072C88.7366 48.7817 88.4587 48.4531 88.1529 48.1066L87.4198 47.9365C87.6926 50.3608 87.5542 52.8111 87.4153 55.2471C87.3629 56.172 87.2563 57.9991 87.2072 60.0701C87.1914 60.7394 87.1817 61.4337 87.1817 62.1309C87.1797 64.5446 87.3797 66.9541 87.7794 69.3334C87.8791 69.8364 88.0149 70.3312 88.1855 70.8141H92.5346C92.1634 68.1544 91.8384 64.8815 91.8384 64.2951C91.8592 63.2022 92.0035 62.1154 92.2685 61.0561Z" fill="white"/>
<path d="M80.0261 69.332C80.4258 66.9527 80.6258 64.5432 80.6239 62.1294C80.6239 59.2753 80.4597 56.4676 80.3902 55.2456C80.2514 52.8095 80.113 50.3593 80.3858 47.9351L79.8242 48.1051C79.5609 48.4036 79.3181 48.6889 79.0896 48.9716C77.8584 49.6151 75.7919 50.2233 74.5728 50.8213C74.1882 51.0101 73.7366 51.0985 73.4452 51.4156C73.1471 51.7402 72.9165 52.1224 72.767 52.5394C72.2363 53.9463 71.9739 54.9856 71.6507 56.108C71.4399 56.84 71.2033 57.6074 70.8497 58.5352C70.3534 57.355 69.9193 56.26 69.4279 55.0314C68.1822 55.6972 66.1987 56.6201 64.9531 56.895C65.5751 58.9117 66.1971 61.0828 67.071 63.1017C67.679 64.5052 68.3303 65.9439 69.8196 66.1886C70.3242 66.2459 70.8351 66.1968 71.3201 66.0444C71.8052 65.892 72.2541 65.6396 72.6388 65.303C73.5063 64.4565 74.3137 63.5485 75.0548 62.586L75.2547 62.3201L75.6846 61.7494C75.862 62.5856 75.9566 63.4378 75.9669 64.2931C75.9669 64.881 75.6419 68.1529 75.2707 70.8122H79.6203C79.7907 70.3294 79.9264 69.8347 80.0261 69.332Z" fill="white"/>
<path d="M67.6337 50.0739C67.4416 49.8587 67.3064 49.5975 67.2407 49.3149C67.1356 48.8272 66.8804 48.187 66.3701 48.1563C66.2546 48.1485 66.1404 48.1848 66.0499 48.2582C65.9595 48.3316 65.8994 48.4367 65.8814 48.5529C65.8814 48.5529 65.8485 48.6657 65.7957 48.8484C65.6757 48.8029 65.5519 48.7686 65.4258 48.746C64.5408 48.5813 63.574 48.7803 63.5425 49.2447C63.5021 49.4757 63.5607 49.681 63.74 50.0453C63.5827 50.205 63.4687 50.6636 63.5887 50.7615C63.5887 50.7615 63.6245 50.8713 63.6656 50.9963C63.5619 50.9704 63.4534 50.9735 63.3513 51.0053C63.2493 51.0371 63.1577 51.0963 63.0862 51.1767C62.9047 51.3798 62.7663 51.8144 62.9854 51.9735C63.0818 52.0434 63.1671 52.1138 63.2495 52.1823L63.2362 52.1803C62.8685 52.0508 62.3576 52.3804 62.388 52.7217C62.4424 52.9965 62.5998 53.2392 62.827 53.3984L62.8572 53.4225L63.008 53.6765C63.3757 54.2957 63.8511 54.8419 64.4111 55.2885C64.5697 55.4148 64.7349 55.533 64.8882 55.6659C65.1415 55.8855 65.3601 56.1431 65.5367 56.4299L65.6404 56.6137C66.331 56.3539 68.0258 55.7071 68.9045 55.2756C68.8879 55.1351 68.8763 55.0318 68.8763 55.0318C68.7413 53.2177 68.6764 51.4537 68.3585 50.9539C68.1373 50.6439 67.8951 50.3498 67.6337 50.0739Z" fill="white"/>
<path d="M60.3414 37.8188C60.3682 37.8865 60.5073 38.2334 60.7363 38.805C60.7943 38.9501 60.9065 39.066 61.0483 39.1274C61.1901 39.1889 61.3501 39.1909 61.4934 39.133L62.1507 38.8654C62.2936 38.8071 62.408 38.6937 62.4688 38.55C62.5296 38.4062 62.5319 38.2439 62.4753 38.0985C62.2531 37.5258 62.1796 37.3419 62.089 37.113C61.8864 36.6018 61.2182 36.1459 60.7845 36.291C60.4107 36.4162 60.1039 37.2244 60.3414 37.8188Z" fill="white"/>
<path d="M82.8644 59.3273C82.7012 59.4838 82.55 59.6527 82.4121 59.8326C82.6556 60.0913 82.9148 60.3344 83.1881 60.5605L83.264 60.6178C83.692 60.0218 84.2871 59.571 84.9716 59.3241C85.9913 58.9054 87.0854 58.7057 88.1849 58.7376C89.2705 58.774 90.4692 59.1211 91.2787 59.9048C91.9404 59.134 93.1753 58.536 94.129 58.2942C95.0746 58.0776 96.0495 58.025 97.0124 58.1385C97.5919 58.1923 98.1564 58.3558 98.6767 58.6206L98.6989 58.598C98.8675 58.4354 99.2049 58.0927 99.4917 57.7844C98.4543 56.9879 97.8727 56.869 96.6483 56.7481C95.7173 56.6561 94.6597 56.6252 93.7496 56.8559C92.8394 57.0867 91.6721 57.4722 91.0254 58.2028C90.1775 57.6508 89.1922 57.3554 88.1849 57.3513C87.0854 57.3194 85.9913 57.5191 84.9716 57.9378C84.5029 58.1163 84.0592 58.3564 83.6519 58.6519C83.377 58.8618 83.1141 59.0873 82.8644 59.3273Z" fill="white"/>
<path d="M96.0379 62.6185C96.7408 61.9829 98.9618 59.865 99.5578 59.2593C98.8582 58.6042 97.9605 58.2095 97.0114 58.1398C96.0485 58.0263 95.0736 58.0789 94.128 58.2954C93.1743 58.5373 91.9394 59.1352 91.2777 59.906C90.4682 59.1217 89.2695 58.7752 88.1839 58.7389C87.0844 58.707 85.9903 58.9067 84.9706 59.3254C84.1257 59.6231 83.4244 60.2369 83.0098 61.0416C83.646 61.6055 86.0047 63.4473 86.6667 63.9808L96.0379 62.6185Z" fill="white"/>
<path d="M92.9929 60.8809C92.95 60.8457 92.9066 60.811 92.863 60.7767C92.3047 60.3386 91.8998 60.2703 91.3262 60.5962L91.0183 60.8669C90.7837 60.6143 90.5847 60.4047 90.4998 60.3298C90.3773 60.2174 90.2283 60.139 90.0672 60.1023C89.9061 60.0655 89.7384 60.0717 89.5804 60.12C89.2178 60.2572 89.0659 60.4584 89.0659 60.7667L89.0315 61.0289C88.8393 60.8222 88.666 60.6454 88.5339 60.524C88.4228 60.4223 87.8772 60.1496 87.5145 60.4261C87.4446 60.4679 87.3839 60.524 87.3364 60.5907C87.2888 60.6574 87.2553 60.7334 87.2381 60.8139C87.2208 60.8944 87.2201 60.9776 87.236 61.0584C87.2519 61.1392 87.2841 61.2158 87.3305 61.2833C87.3514 61.316 87.3661 61.351 87.3836 61.3859L87.3023 61.3429C87.1995 61.2852 87.0857 61.2504 86.9687 61.241C86.8516 61.2315 86.7338 61.2475 86.6233 61.288C86.5128 61.3284 86.4121 61.3923 86.3279 61.4755C86.2436 61.5586 86.1779 61.6591 86.1349 61.7701C86.0776 62.0357 86.1105 62.3132 86.2283 62.5573C86.4633 63.0186 87.4898 64.1756 88.044 64.77C89.3136 65.682 91.3395 65.0468 92.9623 64.6637C93.1903 64.6066 93.4075 64.5117 93.6051 64.3829C94.2122 63.9543 94.5246 63.4294 95.0204 62.8731C95.2311 62.667 95.4178 62.4371 95.5771 62.1879C95.7665 61.8863 95.8393 61.5243 95.7817 61.1714C95.745 60.9891 95.6442 60.8266 95.498 60.7144C95.2568 60.5527 94.9335 60.6298 94.6659 60.7408C94.2659 60.9067 93.8939 61.135 93.5634 61.4175C93.3868 61.2243 93.1961 61.0449 92.9929 60.8809Z" fill="white"/>
<path d="M86.6655 63.9798C86.0035 63.4466 83.6444 61.6057 83.0086 61.0408C83.0891 60.8863 83.1804 60.7377 83.2819 60.5965C83.2756 60.6046 83.2679 60.6098 83.2619 60.619L83.1859 60.5617C82.9126 60.3354 82.6534 60.092 82.41 59.8329C82.5478 59.653 82.699 59.484 82.8622 59.3274C83.1119 59.0869 83.3748 58.861 83.6497 58.6507C84.0571 58.3552 84.5008 58.1151 84.9695 57.9365C85.7152 57.6326 86.5013 57.4432 87.302 57.3746C87.3435 56.478 87.3864 55.7338 87.413 55.2452C87.4959 53.7905 87.5787 52.3306 87.5736 50.8741L87.3071 50.9467C86.6529 51.1196 85.9882 51.2483 85.3173 51.332C84.8952 51.3873 84.4701 51.4174 84.0445 51.4222C82.9022 51.4251 81.2299 51.2237 80.2236 50.7202C80.2125 52.2275 80.2983 53.7388 80.384 55.2448C80.4536 56.4676 80.6177 59.2744 80.6177 62.1286C80.6216 63.8749 80.5164 65.6198 80.3027 67.3526C80.6626 67.3526 80.9143 67.3526 80.9143 67.3526C81.8251 67.3526 85.9409 67.2497 87.088 67.2497C87.088 67.2497 87.2282 67.2497 87.481 67.2513C87.3604 66.2527 87.2633 65.1487 87.2144 63.8995L86.6655 63.9798Z" fill="#65B005"/>
<path d="M76.4764 50.043C77.3657 49.7347 78.2376 49.3768 79.0881 48.9708C79.3167 48.6882 79.5595 48.4028 79.8227 48.1044L80.3843 47.9343C80.3548 48.1969 80.3321 48.4601 80.3117 48.7238C80.8381 48.3837 81.3046 48.0268 81.4037 47.778C81.5221 47.3761 81.5673 46.9557 81.537 46.5373C80.7863 46.1882 80.1271 45.6646 79.6126 45.0089C79.0566 44.3162 78.6514 43.512 78.4234 42.6489C78.0783 42.6493 77.7438 42.5274 77.4776 42.3042C77.2214 42.0832 77.0153 41.8086 76.8733 41.4992C76.5721 40.887 76.4425 40.2026 76.4986 39.5207C76.5064 39.3464 76.5502 39.1757 76.627 39.0197C76.6933 38.9066 76.7838 38.81 76.8917 38.7371C76.9997 38.6642 77.1224 38.6169 77.2508 38.5985C77.4197 38.5708 77.593 38.5938 77.7492 38.6649C77.9055 38.7359 78.0378 38.8518 78.13 38.9982C79.1394 37.2613 82.2734 35.5244 85.0877 34.7622L85.1186 34.7559C85.7485 34.6357 86.3992 34.6999 86.9946 34.9409C87.59 35.1819 88.1057 35.5898 88.4816 36.117C89.1305 37.0431 89.6236 38.0722 89.9408 39.1622L90.316 38.8176C90.4159 38.7296 90.5333 38.6646 90.6602 38.6269C90.7871 38.5892 90.9205 38.5798 91.0513 38.5992C91.1797 38.6175 91.3024 38.6649 91.4103 38.7378C91.5183 38.8107 91.6088 38.9072 91.6751 39.0204C91.7519 39.1764 91.7957 39.3471 91.8035 39.5213C91.8594 40.2033 91.7298 40.8877 91.4287 41.4998C91.2867 41.8092 91.0806 42.0838 90.8245 42.3049C90.6166 42.4763 90.3685 42.5899 90.1043 42.6347L89.9266 42.6624C89.8693 42.8763 89.8064 43.0554 89.7751 43.1519C89.5599 43.7452 88.3259 45.8421 86.7918 46.5103C86.7595 46.9375 86.8046 47.3671 86.925 47.7778C87.0601 48.0106 87.243 48.2111 87.4613 48.3656C87.4477 48.2219 87.4375 48.078 87.4215 47.9345L88.1546 48.1046C88.4605 48.4511 88.7384 48.7798 89.0014 49.1053C89.6714 49.4256 90.5213 49.7369 91.3403 50.0432C91.8757 49.9322 92.3586 49.6412 92.711 49.2172C93.0634 48.7931 93.2646 48.2608 93.2823 47.7063C93.2775 46.9579 93.152 46.2154 92.9109 45.5083C92.6052 44.5415 92.0127 42.5776 91.9699 39.0686C92.0216 38.0812 92.0077 37.0913 91.9281 36.1057C91.7948 34.2048 90.9578 32.082 89.7533 30.902C89.0185 30.1425 88.1324 29.551 87.1543 29.1671C86.317 28.8396 85.5386 28.6821 84.0694 28.6821C82.0376 28.7244 80.0868 29.4988 78.5654 30.867C76.9871 32.4009 75.9859 35.2041 76.1121 39.0686C76.1121 41.8851 75.9013 43.9164 75.6051 45.0707C75.3815 46.025 75.254 47 75.2246 47.9806C75.2359 48.4058 75.3576 48.8205 75.5774 49.1827C75.7972 49.5448 76.1073 49.8416 76.4764 50.043Z" fill="#65B005"/>
<path d="M90.6304 39.1378C90.6783 39.1001 90.7331 39.0724 90.7916 39.0563C90.8501 39.0402 90.9112 39.0361 90.9713 39.0441C91.0314 39.0521 91.0893 39.0722 91.1417 39.1031C91.1941 39.134 91.24 39.1752 91.2766 39.2242C91.3521 39.3847 91.3848 39.5625 91.3713 39.7399C91.3788 39.9536 91.3646 40.1676 91.3288 40.3785C91.1924 41.1368 90.8179 42.0493 89.9862 42.2006C89.873 42.2332 89.777 42.3096 89.7188 42.4134C89.6607 42.5172 89.645 42.6401 89.6752 42.7555C89.7086 42.8696 89.7841 42.9662 89.886 43.025C89.9879 43.0839 90.1083 43.1005 90.2219 43.0713C91.5265 42.8338 92.1496 41.3401 92.2478 40.1389C92.2989 39.5145 92.2429 38.8112 91.712 38.4083C91.459 38.224 91.1518 38.1327 90.8409 38.1494C90.53 38.1661 90.234 38.2898 90.0015 38.5001C89.919 38.5852 89.8728 38.6998 89.8728 38.8192C89.8728 38.9386 89.919 39.0532 90.0015 39.1383C90.0861 39.2205 90.1987 39.2664 90.3158 39.2664C90.4328 39.2664 90.5454 39.2205 90.63 39.1383L90.6304 39.1378Z" fill="#4A3E42"/>
<path d="M78.2965 38.499C78.064 38.2888 77.768 38.1651 77.4571 38.1484C77.1462 38.1317 76.839 38.223 76.586 38.4072C76.0544 38.8087 75.9993 39.5148 76.0502 40.1378C76.1484 41.3387 76.7715 42.8325 78.0761 43.0702C78.1897 43.0987 78.3098 43.0818 78.4115 43.023C78.5132 42.9643 78.5888 42.8681 78.6228 42.7544C78.653 42.639 78.6373 42.5161 78.5792 42.4123C78.521 42.3085 78.425 42.2321 78.3118 42.1995C77.4808 42.0482 77.1056 41.1357 76.9692 40.3773C76.9355 40.1785 76.9211 39.9768 76.9261 39.7751C76.9128 39.5955 76.9403 39.4152 77.0065 39.2481C77.0409 39.1946 77.086 39.1488 77.1387 39.1139C77.1915 39.0789 77.2508 39.0554 77.3129 39.045C77.3751 39.0345 77.4387 39.0372 77.4997 39.053C77.5608 39.0688 77.6179 39.0973 77.6676 39.1367C77.7525 39.2183 77.8649 39.2638 77.9818 39.2638C78.0987 39.2638 78.2111 39.2183 78.296 39.1367C78.3785 39.0516 78.4247 38.937 78.4247 38.8176C78.4247 38.6983 78.3785 38.5837 78.296 38.4986L78.2965 38.499Z" fill="#4A3E42"/>
<path d="M76.6946 49.6559C76.3224 49.4458 76.0227 49.1248 75.8358 48.7362C75.6885 48.3837 75.6341 47.9982 75.6781 47.6178C75.726 46.768 75.8517 45.9245 76.0535 45.0984C76.4336 43.5239 76.5045 41.8562 76.5405 40.2427C76.5645 39.164 76.5107 38.0853 76.5969 37.0087C76.6645 36.1118 76.8261 35.2248 77.079 34.3627C77.4741 33.0368 78.1452 31.7535 79.2262 30.8765C81.8697 28.7313 86.1112 28.4114 88.7985 30.6421C89.4063 31.1297 89.9244 31.7227 90.3288 32.3937C90.802 33.2154 91.1397 34.1102 91.3284 35.0426C91.7023 36.8273 91.4646 38.6684 91.571 40.473C91.6451 41.978 91.8784 43.4705 92.267 44.9247C92.6358 46.249 93.3653 47.9447 92.2277 49.0836C91.9541 49.3581 91.6049 49.5418 91.2263 49.6103C90.6651 49.7192 90.9028 50.589 91.4624 50.4805C91.9016 50.3855 92.3124 50.1863 92.6613 49.8992C93.0102 49.6122 93.2874 49.2454 93.4701 48.8289C93.8789 47.9041 93.7302 46.8283 93.4774 45.8764C93.3288 45.3172 93.138 44.7711 92.999 44.2092C92.8217 43.4918 92.6882 42.764 92.5991 42.0299C92.4484 40.9695 92.3911 39.8975 92.4278 38.8268C92.4648 37.9348 92.4461 37.0413 92.3719 36.1517C92.2363 34.2062 91.5324 32.114 90.1726 30.6929C88.9756 29.4105 87.3876 28.5754 85.6654 28.3228C83.623 28.0286 81.5419 28.424 79.7424 29.4482C78.4171 30.1975 77.3626 31.3578 76.7331 32.7593C75.9269 34.5339 75.649 36.516 75.653 38.4573C75.657 40.3986 75.6648 42.3662 75.3169 44.2825C75.1703 45.0907 74.9702 45.8773 74.8726 46.6961C74.7616 47.6273 74.6727 48.5718 75.1856 49.4052C75.4503 49.8319 75.8147 50.1857 76.2464 50.435C76.7429 50.7251 77.1907 49.9457 76.6946 49.6559Z" fill="#4A3E42"/>
<path d="M84.9671 34.3287C83.5102 34.7275 82.1093 35.3134 80.7986 36.0724C79.6908 36.7169 78.5889 37.5104 77.8559 38.5909C77.5307 39.0703 78.3002 39.5219 78.6231 39.0464C79.2825 38.0744 80.3316 37.3771 81.3266 36.8055C82.5477 36.1077 83.85 35.5679 85.2032 35.1988C85.7548 35.0474 85.5207 34.1769 84.9671 34.3287Z" fill="#4A3E42"/>
<path d="M84.8507 33.8285C87.2616 34.7465 88.8117 36.9168 89.5332 39.355C89.6973 39.9097 90.555 39.6735 90.39 39.1152C90.0264 37.8386 89.4322 36.6418 88.6375 35.5859C87.7168 34.393 86.4878 33.4833 85.0877 32.9582C84.974 32.9275 84.853 32.9433 84.7507 33.0024C84.6485 33.0615 84.5732 33.1591 84.5412 33.274C84.5125 33.3894 84.5288 33.5116 84.5867 33.6151C84.6447 33.7186 84.7398 33.7953 84.8522 33.8291L84.8507 33.8285Z" fill="#4A3E42"/>
<path d="M89.6006 41.9289C89.5768 42.2488 89.5095 42.5638 89.4007 42.865C89.3825 42.921 89.3614 42.9762 89.3454 43.0328C89.3367 43.0628 89.3009 43.1373 89.3547 43.0146C89.3256 43.0809 89.2956 43.1463 89.2636 43.211C89.068 43.5976 88.8416 43.9672 88.5867 44.3164C88.0021 45.1307 87.2052 45.9926 86.2098 46.2297C85.6545 46.3623 85.8888 47.2326 86.446 47.0997C87.6624 46.8101 88.605 45.8013 89.3205 44.8176C89.9376 43.9692 90.4454 43.0074 90.4885 41.9302C90.5107 41.3496 89.6221 41.3505 89.5999 41.9302L89.6006 41.9289Z" fill="#4A3E42"/>
<path d="M77.8609 42.2174C78.3669 44.6323 80.1019 47.0074 82.6658 47.2869C82.7834 47.2861 82.8959 47.2383 82.9791 47.1538C83.0622 47.0694 83.1093 46.9551 83.1101 46.8357C83.1075 46.7169 83.0599 46.6036 82.9772 46.5196C82.8944 46.4355 82.7828 46.3872 82.6658 46.3846C81.6355 46.2718 80.7585 45.6402 80.0834 44.8764C79.3853 44.0487 78.9143 43.0489 78.7177 41.9776C78.5988 41.4098 77.742 41.6501 77.8609 42.2174Z" fill="#4A3E42"/>
<path d="M87.9095 48.3722C87.9095 48.0857 87.6278 47.9382 87.4525 47.755C87.4239 47.7252 87.3972 47.6941 87.3699 47.663C87.3295 47.6179 87.3861 47.6815 87.3921 47.6957C87.3822 47.6794 87.3714 47.6636 87.3597 47.6485C87.3432 47.6231 87.3321 47.5926 87.3152 47.5682C87.3268 47.5847 87.351 47.6684 87.3328 47.605C87.3261 47.5824 87.3175 47.5599 87.3106 47.5353C87.2884 47.4557 87.2868 47.3585 87.2564 47.2831C87.273 47.3242 87.2662 47.3652 87.2582 47.2942C87.2559 47.273 87.2539 47.252 87.2519 47.2308C87.2478 47.183 87.2445 47.1349 87.2419 47.0866C87.2322 46.8951 87.2342 46.7032 87.2353 46.5112C87.2353 46.3916 87.1885 46.2768 87.1051 46.1922C87.0218 46.1076 86.9088 46.0601 86.791 46.0601C86.6732 46.0601 86.5602 46.1076 86.4768 46.1922C86.3935 46.2768 86.3467 46.3916 86.3467 46.5112C86.3241 46.9257 86.3574 47.3413 86.4456 47.7467C86.5747 48.1294 86.8216 48.4598 87.15 48.6889L87.0198 48.3699V48.3722C87.0198 48.4918 87.0666 48.6066 87.1499 48.6912C87.2332 48.7758 87.3463 48.8233 87.4641 48.8233C87.5819 48.8233 87.6949 48.7758 87.7782 48.6912C87.8616 48.6066 87.9084 48.4918 87.9084 48.3722H87.9095Z" fill="#4A3E42"/>
<path d="M81.0918 46.5379C81.0982 46.7711 81.0928 47.0045 81.0756 47.2372C81.074 47.2684 81.0708 47.2995 81.0661 47.3303C81.0778 47.2694 81.0718 47.2882 81.0632 47.3378C81.0545 47.3874 81.043 47.4434 81.0294 47.4957C81.0221 47.5239 81.0139 47.5516 81.005 47.5794C81.0001 47.5947 80.9703 47.6671 81.0014 47.5983C81.0325 47.5295 80.9792 47.6306 80.9688 47.6477C80.9605 47.661 80.9266 47.7075 80.9688 47.6477C81.0148 47.5843 80.9688 47.6461 80.9559 47.6597C80.9281 47.691 80.899 47.721 80.869 47.7499C80.7953 47.8221 80.716 47.8871 80.6369 47.9529C80.6664 47.9283 80.68 47.9202 80.6418 47.9491L80.5674 48.005C80.5207 48.0398 80.4736 48.0727 80.4261 48.107C80.315 48.1853 80.2015 48.2604 80.0873 48.3341C79.9856 48.3945 79.9116 48.4935 79.8817 48.6093C79.8518 48.725 79.8684 48.8481 79.9279 48.9514C79.9874 49.0547 80.0849 49.1298 80.1989 49.1602C80.3129 49.1905 80.4341 49.1737 80.5358 49.1133C80.7876 48.952 81.0311 48.7777 81.2653 48.5911C81.4456 48.4536 81.6044 48.2891 81.736 48.1032C81.8674 47.8666 81.9423 47.6021 81.9546 47.3308C81.98 47.0677 81.9886 46.8032 81.9804 46.539C81.9804 46.4194 81.9336 46.3046 81.8503 46.22C81.767 46.1354 81.6539 46.0879 81.5361 46.0879C81.4183 46.0879 81.3053 46.1354 81.222 46.22C81.1386 46.3046 81.0918 46.4194 81.0918 46.539V46.5379Z" fill="#4A3E42"/>
<path d="M88.1854 70.8126C88.0148 70.3297 87.879 69.8348 87.7793 69.3319C87.6758 68.6818 87.5739 67.995 87.4868 67.2515C85.8169 67.2648 81.489 67.3525 80.5471 67.3525H80.3061C80.2194 68.0572 80.1219 68.7114 80.023 69.3319C79.9233 69.8348 79.7877 70.3297 79.6172 70.8126H88.1854Z" fill="white"/>
<path d="M63.8291 53.1481C63.842 53.1662 63.8771 53.2399 63.8435 53.1619C63.8015 53.0644 63.8466 53.2343 63.8335 53.1274C63.8226 53.0372 63.8318 53.1335 63.8313 53.1551C63.8313 53.1664 63.8293 53.1777 63.8298 53.1894C63.8315 53.2429 63.8531 53.0766 63.8349 53.1506C63.8293 53.1732 63.8249 53.1971 63.8184 53.2199C63.8138 53.2368 63.7778 53.3327 63.8095 53.2544C63.8413 53.1761 63.8015 53.2661 63.7924 53.2817C63.786 53.2902 63.7802 53.2994 63.7753 53.309C63.764 53.3444 63.8344 53.2447 63.8082 53.2668C63.7983 53.2748 63.7895 53.284 63.782 53.2943C63.764 53.3211 63.8291 53.2566 63.8324 53.256C63.806 53.2678 63.7812 53.283 63.7584 53.3011C63.7211 53.3254 63.806 53.2823 63.806 53.2823C63.7934 53.2862 63.781 53.2907 63.7689 53.2959C63.7349 53.3076 63.7003 53.3171 63.6652 53.3243C63.5647 53.3451 63.738 53.3243 63.6618 53.3243C63.6347 53.3243 63.6081 53.3266 63.581 53.3243C63.5641 53.3243 63.5441 53.3193 63.5279 53.3207C63.5279 53.3207 63.6252 53.3408 63.5821 53.3266C63.5476 53.3153 63.5108 53.304 63.4761 53.2945C63.4292 53.281 63.5065 53.3051 63.5085 53.3096C63.5054 53.3031 63.4723 53.2923 63.4654 53.2887C63.4319 53.272 63.3988 53.2539 63.367 53.2348C63.3026 53.1956 63.2401 53.1532 63.1798 53.1078C63.1635 53.0934 63.1462 53.0803 63.128 53.0685C63.1298 53.0685 63.1931 53.1213 63.1544 53.0888C63.1276 53.0662 63.1005 53.0448 63.0743 53.0211C63.0214 52.974 62.9745 52.9221 62.9261 52.8705C62.8697 52.8102 62.967 52.9343 62.9214 52.8659C62.9021 52.8371 62.883 52.8082 62.8659 52.7777C62.8588 52.7649 62.8523 52.7516 62.8452 52.7387C62.8079 52.671 62.8557 52.755 62.8554 52.7667C62.8503 52.7289 62.84 52.692 62.8248 52.6571C62.827 52.6604 62.8272 52.7446 62.8326 52.7112C62.8336 52.7012 62.8336 52.6912 62.8326 52.6812C62.8275 52.6117 62.8168 52.8073 62.8312 52.7121C62.8333 52.7021 62.8365 52.6924 62.8408 52.6832C62.853 52.6805 62.7884 52.7795 62.8172 52.7437C62.8272 52.731 62.8859 52.6397 62.835 52.708C62.7868 52.7726 62.8517 52.6963 62.8679 52.6789C62.8748 52.6715 62.8883 52.6645 62.8937 52.6564C62.8808 52.6789 62.8048 52.7173 62.8688 52.6771C62.8923 52.6625 62.9152 52.6471 62.9399 52.6338C62.9547 52.6276 62.969 52.6201 62.9825 52.6113C62.9723 52.621 62.8852 52.6465 62.943 52.6293C62.9736 52.6203 63.0034 52.6095 63.0347 52.6025C63.046 52.6 63.0585 52.5989 63.0696 52.5957C63.114 52.5833 62.9534 52.5991 63.0334 52.6025C63.0598 52.6038 63.0878 52.6045 63.1145 52.6045C63.1684 52.6045 63.0167 52.5756 63.0645 52.5989C63.0825 52.6054 63.1009 52.6107 63.1196 52.6147C63.2332 52.6453 63.3542 52.6294 63.4565 52.5704C63.5587 52.5113 63.634 52.4138 63.666 52.2989C63.6947 52.1835 63.6784 52.0613 63.6204 51.9579C63.5625 51.8545 63.4674 51.7778 63.355 51.7439C63.1574 51.6906 62.9495 51.6908 62.752 51.7446C62.5546 51.7984 62.3744 51.9039 62.2297 52.0505C62.0677 52.2066 61.967 52.4171 61.9462 52.6429C61.937 52.8664 61.998 53.0871 62.1204 53.2731C62.2323 53.4513 62.3735 53.6086 62.5378 53.7382C62.7011 53.8797 62.8812 53.9999 63.0738 54.0962C63.2913 54.2029 63.5345 54.2436 63.7742 54.2135C64.0035 54.1897 64.2203 54.096 64.3962 53.9449C64.7023 53.6672 64.8494 53.0491 64.5961 52.6932C64.5349 52.5941 64.4407 52.5205 64.3307 52.4858C64.2455 52.4619 64.1552 52.4644 64.0714 52.4928C63.9875 52.5213 63.914 52.5745 63.8601 52.6457C63.8062 52.7169 63.7745 52.8027 63.7689 52.8923C63.7633 52.9819 63.7842 53.0711 63.8289 53.1486L63.8291 53.1481Z" fill="#4A3E42"/>
<path d="M64.1559 50.7094C63.885 50.5517 63.5669 50.4996 63.2609 50.5628C63.0022 50.6347 62.7794 50.8024 62.6365 51.0329C62.4948 51.2456 62.422 51.4979 62.4281 51.7547C62.432 51.8957 62.4735 52.0329 62.548 52.1519C62.6038 52.236 62.6753 52.3079 62.7586 52.3637C62.7808 52.3807 62.8031 52.3971 62.8264 52.4143C62.7569 52.3615 62.8653 52.4463 62.8784 52.4569C63.1843 52.7086 63.5079 52.9358 63.8247 53.1731C63.9506 53.2741 64.0859 53.3623 64.2288 53.4366C64.4712 53.5482 64.7455 53.5658 64.9998 53.486C65.1549 53.4442 65.298 53.3655 65.4173 53.2565C65.5365 53.1475 65.6285 53.0112 65.6856 52.8589C65.7453 52.6956 65.7645 52.52 65.7416 52.3475C65.7186 52.1749 65.6541 52.0108 65.5538 51.8695C65.4926 51.7681 65.3952 51.6947 65.282 51.6646C65.1687 51.6344 65.0483 51.6499 64.9461 51.7078C64.8453 51.7691 64.7722 51.868 64.7424 51.9833C64.7126 52.0987 64.7285 52.2213 64.7866 52.3249C64.8187 52.3688 64.8465 52.4158 64.8694 52.4652C64.8601 52.444 64.8472 52.3894 64.8612 52.461C64.8752 52.5325 64.8534 52.4513 64.8625 52.4418C64.8508 52.454 64.8816 52.5882 64.8672 52.5095C64.8572 52.4549 64.8692 52.4943 64.8616 52.5239C64.8596 52.5318 64.8394 52.5927 64.8394 52.5934C64.8306 52.5846 64.8934 52.4966 64.8492 52.5613C64.841 52.5719 64.834 52.5834 64.8285 52.5956C64.8137 52.6468 64.8905 52.5279 64.8523 52.5663C64.8141 52.6046 64.8214 52.5746 64.8477 52.578L64.8712 52.5607C64.8597 52.5692 64.8479 52.5771 64.8354 52.5846C64.823 52.592 64.8099 52.5988 64.7977 52.6071C64.731 52.6482 64.8097 52.5949 64.8217 52.5981C64.7967 52.603 64.7722 52.6106 64.7488 52.6207C64.729 52.6258 64.7086 52.629 64.689 52.6344C64.6302 52.6507 64.7779 52.6299 64.717 52.631C64.683 52.631 64.6486 52.631 64.6146 52.6333C64.5238 52.6362 64.7077 52.6419 64.6244 52.6333C64.6144 52.6333 64.6049 52.6236 64.5951 52.6227C64.6113 52.6243 64.7062 52.6786 64.6433 52.6414C64.5347 52.578 64.4293 52.509 64.3276 52.4348C64.1232 52.2846 63.9182 52.1359 63.7134 51.9868C63.703 51.9794 63.6394 51.9318 63.6836 51.9654C63.7278 51.999 63.665 51.9503 63.655 51.9428C63.6203 51.9146 63.5861 51.886 63.5517 51.8575C63.511 51.8239 63.4704 51.7899 63.4293 51.7576C63.3882 51.7254 63.3482 51.6931 63.3075 51.6618C63.2949 51.6521 63.2158 51.5758 63.2598 51.6263C63.3138 51.6881 63.2169 51.5643 63.282 51.6516C63.3226 51.7066 63.2984 51.6724 63.2909 51.6584C63.3386 51.7463 63.3215 51.7346 63.3109 51.6985C63.2902 51.6284 63.3211 51.736 63.316 51.7436C63.3173 51.7259 63.3173 51.7081 63.316 51.6904C63.3138 51.6295 63.3415 51.7033 63.3095 51.7276C63.324 51.7166 63.3318 51.6345 63.3375 51.6148C63.3362 51.6191 63.3555 51.5593 63.3573 51.5596C63.3651 51.5611 63.3129 51.6484 63.3546 51.5745C63.366 51.5546 63.4199 51.4874 63.4197 51.4669C63.4197 51.4784 63.3475 51.5454 63.3986 51.4975C63.4154 51.4829 63.4312 51.4671 63.4459 51.4504C63.4795 51.4091 63.3697 51.4894 63.4188 51.4711C63.4389 51.4613 63.458 51.4498 63.4761 51.4366C63.531 51.4023 63.4624 51.4666 63.4446 51.4495C63.4626 51.4456 63.4804 51.4404 63.4977 51.4339C63.567 51.41 63.4788 51.4407 63.4642 51.436C63.4892 51.4378 63.5143 51.4372 63.5392 51.4339C63.5579 51.4339 63.6205 51.4484 63.5592 51.4339C63.489 51.417 63.5854 51.4425 63.5994 51.4466C63.623 51.4531 63.6456 51.4614 63.6687 51.4691C63.5932 51.4441 63.6814 51.4759 63.7081 51.4899C63.8098 51.5503 63.931 51.5671 64.045 51.5368C64.159 51.5064 64.2565 51.4313 64.316 51.328C64.3754 51.2247 64.3921 51.1016 64.3622 50.9859C64.3323 50.8701 64.2583 50.7711 64.1566 50.7107L64.1559 50.7094Z" fill="#4A3E42"/>
<path d="M65.196 51.5424C64.851 51.2584 64.5158 50.9627 64.1766 50.6717C64.113 50.6169 64.049 50.5627 63.9844 50.509C63.9657 50.4935 63.9475 50.4754 63.9275 50.4619C63.8887 50.436 63.8947 50.403 63.9533 50.5108C64.0151 50.6236 63.9853 50.6042 63.9777 50.5681C64.0055 50.7021 63.9846 50.643 63.9846 50.5988C63.9873 50.5817 63.9881 50.5644 63.9871 50.5472C64.0093 50.6045 63.9677 50.639 63.9857 50.5697C63.9971 50.5262 64.0062 50.4826 64.0206 50.4398C64.0257 50.4204 64.0326 50.4015 64.0411 50.3834C64.0468 50.3818 63.9966 50.4714 64.0319 50.4114C64.0454 50.3929 64.0566 50.3729 64.0655 50.3518C64.0843 50.3225 64.0733 50.3358 64.0324 50.3917C64.0406 50.3813 64.0495 50.3714 64.059 50.3622C64.0728 50.3493 64.1257 50.3153 64.0757 50.3439C64.0091 50.3814 64.1141 50.3275 64.1126 50.327C64.111 50.3266 64.0071 50.3595 64.0964 50.3353L64.1595 50.3184C64.2503 50.2936 64.1372 50.3218 64.139 50.3209C64.147 50.3112 64.2079 50.3196 64.2217 50.3209H64.2383C64.289 50.3257 64.2826 50.3248 64.2192 50.3182C64.2527 50.3209 64.2853 50.33 64.3154 50.345C64.3123 50.3408 64.2099 50.2898 64.3087 50.345C64.3329 50.3586 64.3578 50.371 64.3823 50.3843C64.4351 50.4134 64.4873 50.4434 64.5378 50.4745C64.6398 50.5371 64.7387 50.6049 64.8341 50.6775C64.757 50.6191 64.8641 50.7037 64.8852 50.7227C64.9308 50.7619 64.9752 50.8023 65.0185 50.8438C65.098 50.9198 65.174 50.9992 65.2479 51.082C65.2679 51.1046 65.2877 51.1271 65.3068 51.1508C65.3259 51.1745 65.3681 51.2379 65.3115 51.1551C65.3366 51.1918 65.3621 51.2282 65.385 51.2663C65.4111 51.3098 65.4351 51.3546 65.4568 51.4005C65.4628 51.4134 65.4921 51.4822 65.4701 51.428C65.4463 51.3698 65.4885 51.4826 65.4923 51.4934C65.5258 51.5837 65.4768 51.4776 65.4956 51.4758C65.4976 51.5064 65.497 51.537 65.4939 51.5674C65.483 51.5717 65.5265 51.4497 65.4939 51.5399L65.4852 51.5706C65.4688 51.6173 65.4723 51.6112 65.4956 51.5528C65.4882 51.5731 65.4783 51.5925 65.4661 51.6103C65.4581 51.6243 65.4497 51.638 65.4405 51.6513C65.4221 51.6789 65.4297 51.6698 65.4628 51.6247C65.4603 51.6355 65.4248 51.6674 65.4203 51.6719C65.4092 51.6831 65.3981 51.6944 65.3859 51.7039C65.3607 51.7257 65.3705 51.7182 65.4152 51.6813C65.4152 51.6773 65.3708 51.7143 65.3637 51.7118C65.4214 51.6892 65.4259 51.6854 65.377 51.7003L65.4288 51.6915C65.3308 51.7071 65.455 51.6915 65.4479 51.6971C65.4257 51.7113 65.3401 51.6536 65.4257 51.6971C65.3692 51.6685 65.3149 51.6355 65.2633 51.5986C65.2508 51.5895 65.192 51.5458 65.2428 51.5841C65.2977 51.6256 65.2049 51.5528 65.1955 51.5449C65.1109 51.4628 64.9983 51.4171 64.8813 51.4171C64.7643 51.4171 64.6518 51.4628 64.5671 51.5449C64.485 51.6301 64.439 51.7446 64.439 51.8638C64.439 51.9831 64.485 52.0976 64.5671 52.1828C64.825 52.3951 65.1098 52.6141 65.4621 52.5922C65.6391 52.573 65.8078 52.5062 65.9509 52.3986C66.0939 52.291 66.2061 52.1466 66.2758 51.9802C66.3511 51.8238 66.3886 51.6515 66.3851 51.4774C66.367 51.2854 66.3098 51.0993 66.2172 50.9309C66.0766 50.6679 65.8927 50.4313 65.6733 50.2316C65.2197 49.7901 64.5849 49.3067 63.9227 49.45C63.7561 49.4906 63.6022 49.573 63.4751 49.6896C63.3479 49.8063 63.2517 49.9535 63.1951 50.1177C63.1314 50.2497 63.0974 50.3946 63.0958 50.5417C63.0941 50.6887 63.1248 50.8343 63.1856 50.9679C63.2742 51.0863 63.3812 51.1891 63.5026 51.2724C63.6041 51.359 63.705 51.447 63.8056 51.5345C64.057 51.7533 64.3098 51.9703 64.5671 52.1819C64.6518 52.2639 64.7643 52.3097 64.8813 52.3097C64.9983 52.3097 65.1109 52.2639 65.1955 52.1819C65.2781 52.0966 65.3244 51.9818 65.3245 51.8622C65.3246 51.7426 65.2784 51.6278 65.196 51.5424Z" fill="#4A3E42"/>
<path d="M66.3071 48.6732C66.3126 48.655 66.3166 48.6056 66.3342 48.6038C66.4037 48.5965 66.4712 48.6683 66.513 48.7145C66.6673 48.9275 66.7688 49.1751 66.8089 49.4363C66.9942 50.1654 67.562 50.5428 67.9458 51.1433C68.0403 51.3039 68.1008 51.4827 68.1235 51.6684C68.1783 51.9584 68.2183 52.2512 68.2435 52.5454C68.3243 53.3728 68.3683 54.2038 68.4294 55.033C68.4718 55.6085 69.3609 55.6132 69.318 55.033C69.2456 54.0502 69.2038 53.062 69.081 52.0841C69.0508 51.7396 68.9863 51.399 68.8884 51.0677C68.7579 50.7332 68.5626 50.4288 68.3139 50.1726C68.0747 49.9003 67.789 49.6441 67.6868 49.2821C67.6092 48.9046 67.4631 48.545 67.2558 48.2219C66.7411 47.5226 65.728 47.5404 65.4505 48.4346C65.2781 48.9897 66.1358 49.2272 66.3073 48.6744L66.3071 48.6732Z" fill="#4A3E42"/>
<path d="M65.2323 50.039C65.3076 50.5121 65.4293 50.9764 65.5955 51.425C65.6696 51.636 65.7233 51.8538 65.7561 52.0753C65.7477 52.0051 65.7592 52.1369 65.7601 52.1502C65.7639 52.2149 65.7644 52.2798 65.7617 52.3446C65.7617 52.3446 65.747 52.4872 65.7575 52.4182C65.7469 52.4829 65.732 52.5469 65.713 52.6097C65.6975 52.6668 65.6933 52.7265 65.7005 52.7853C65.7077 52.8441 65.7262 52.9009 65.755 52.9524C65.7838 53.0039 65.8224 53.0492 65.8684 53.0856C65.9145 53.122 65.9671 53.1488 66.0234 53.1646C66.0796 53.1803 66.1384 53.1847 66.1963 53.1773C66.2542 53.17 66.3101 53.1512 66.3609 53.1219C66.4116 53.0927 66.4562 53.0535 66.4921 53.0068C66.5279 52.96 66.5543 52.9066 66.5698 52.8494C66.6914 52.3458 66.6662 51.8171 66.4972 51.3277C66.4306 51.1042 66.3508 50.8849 66.2793 50.663C66.244 50.5527 66.2104 50.4417 66.1818 50.3293C66.1675 50.2736 66.1544 50.2166 66.1431 50.1613C66.1367 50.1293 66.1307 50.097 66.1253 50.0648C66.1167 50.0088 66.1151 50.0002 66.1213 50.039C66.1185 49.9203 66.0707 49.8072 65.988 49.7233C65.9053 49.6393 65.794 49.5908 65.6771 49.5879C65.4598 49.5978 65.2034 49.7882 65.2328 50.039H65.2323Z" fill="#4A3E42"/>
<path d="M64.9899 50.3634C65.4702 50.4408 66.0798 50.4922 66.477 50.1444C66.5731 50.0549 66.6498 49.946 66.7019 49.8246C66.7541 49.7032 66.7806 49.572 66.7797 49.4396C66.7789 49.3071 66.7507 49.1763 66.6969 49.0556C66.6432 48.9349 66.5652 48.827 66.4679 48.7388C66.0487 48.3612 65.4493 48.2568 64.9066 48.2403C64.4473 48.2263 63.8957 48.2793 63.5072 48.5561C63.3902 48.6342 63.2905 48.736 63.2144 48.8552C63.1778 48.9151 63.1493 48.9796 63.1297 49.0472C63.1135 49.1043 63.0893 49.3122 63.1091 49.16C63.073 49.5058 63.1405 49.8546 63.3026 50.1608C63.3624 50.2638 63.4598 50.3385 63.5736 50.3689C63.6875 50.3992 63.8085 50.3826 63.9103 50.3228C64.0096 50.2601 64.0815 50.1612 64.1112 50.0464C64.1408 49.9315 64.126 49.8095 64.0698 49.7054C64.0568 49.6816 64.0458 49.6566 64.0372 49.6307C64.0201 49.5856 64.0043 49.5387 63.9916 49.4913C63.9868 49.4733 63.9674 49.3648 63.9743 49.4248C63.9812 49.4848 63.9759 49.3684 63.9757 49.3477C63.9757 49.3373 63.9757 49.2775 63.9757 49.3398C63.973 49.4541 63.9705 49.1453 63.9832 49.2827C63.9912 49.3668 64.0036 49.2328 63.9781 49.3075C63.9461 49.4004 64.0239 49.2511 63.9694 49.3256C63.9194 49.3932 64.0465 49.2804 63.9803 49.3158C63.9186 49.3497 64.0012 49.3039 64.0165 49.2946C64.0425 49.2791 64.0716 49.2676 64.0972 49.2513C64.1369 49.2261 64.0689 49.2631 64.0649 49.2644C64.0872 49.2572 64.1072 49.2482 64.1283 49.2419C64.1676 49.2283 64.2076 49.2164 64.2478 49.2058C64.3222 49.1859 64.3975 49.1726 64.4732 49.1591C64.5421 49.1469 64.4048 49.1631 64.4764 49.1591C64.497 49.1591 64.5179 49.1548 64.5386 49.153C64.588 49.1489 64.6377 49.146 64.6876 49.1442C64.7834 49.1406 64.8793 49.1415 64.9751 49.1462C65.0195 49.1485 65.0646 49.1516 65.1104 49.1557L65.1783 49.1625C65.2545 49.1699 65.1201 49.153 65.1961 49.164C65.2975 49.1785 65.3979 49.1992 65.4969 49.2258C65.5397 49.2376 65.5821 49.2507 65.6242 49.2653C65.6439 49.2721 65.6635 49.2804 65.6833 49.2879C65.7335 49.305 65.6326 49.2592 65.7039 49.2985C65.7359 49.3161 65.7683 49.3323 65.7992 49.3515C65.8388 49.3761 65.8734 49.4106 65.8172 49.3583C65.8411 49.3838 65.8664 49.4079 65.893 49.4304C65.9356 49.4616 65.8561 49.3937 65.867 49.393C65.8784 49.4066 65.888 49.4218 65.8952 49.4381C65.8952 49.4467 65.9298 49.4959 65.8952 49.4331C65.8643 49.3763 65.8878 49.425 65.8952 49.4374C65.9338 49.5153 65.8701 49.3662 65.8985 49.4453C65.9321 49.5385 65.8952 49.4059 65.9074 49.4207C65.9061 49.4367 65.9024 49.4524 65.8965 49.4672C65.8692 49.5053 65.9121 49.437 65.9136 49.4343C65.9021 49.4524 65.8916 49.4712 65.8821 49.4904C65.8821 49.4904 65.9252 49.4189 65.9001 49.4634C65.8894 49.4821 65.8183 49.531 65.897 49.469C65.8921 49.4726 65.8379 49.5044 65.8843 49.4798C65.9307 49.4553 65.871 49.4839 65.8596 49.4866C65.8416 49.4911 65.8236 49.4956 65.8054 49.4995C65.7948 49.5017 65.7832 49.5033 65.7734 49.5053C65.6846 49.5238 65.7992 49.5031 65.7994 49.5026C65.7155 49.5155 65.6306 49.5203 65.5457 49.5171C65.4393 49.5173 65.3329 49.5102 65.2274 49.4959C65.1138 49.4671 64.9937 49.4839 64.8919 49.5427C64.7902 49.6015 64.7146 49.6978 64.681 49.8117C64.651 49.9271 64.6668 50.0498 64.725 50.1535C64.7831 50.2573 64.8789 50.3337 64.9919 50.3666L64.9899 50.3634Z" fill="#4A3E42"/>
<path d="M62.6259 53.9046C62.9529 54.4554 63.3593 54.9534 63.8316 55.3819C64.074 55.5998 64.3577 55.7967 64.5756 55.9855C64.8024 56.1771 64.9978 56.4041 65.1545 56.658C65.1839 56.7091 65.223 56.7539 65.2695 56.7897C65.316 56.8255 65.369 56.8517 65.4254 56.8667C65.4819 56.8818 65.5407 56.8853 65.5985 56.8773C65.6563 56.8692 65.712 56.8497 65.7624 56.8198C65.8128 56.7899 65.8569 56.7502 65.8921 56.703C65.9274 56.6558 65.9532 56.602 65.968 56.5447C65.9828 56.4874 65.9863 56.4276 65.9784 56.3689C65.9705 56.3102 65.9512 56.2537 65.9218 56.2025C65.7418 55.9107 65.5241 55.6448 65.2745 55.4119C65.0241 55.1818 64.7646 55.0117 64.5292 54.8067C64.0789 54.4215 63.6948 53.9631 63.3925 53.4501C63.333 53.3468 63.2355 53.2717 63.1215 53.2413C63.0075 53.211 62.8863 53.2278 62.7846 53.2882C62.6828 53.3486 62.6089 53.4476 62.579 53.5634C62.5491 53.6791 62.5657 53.8022 62.6252 53.9055L62.6259 53.9046Z" fill="#4A3E42"/>
<path d="M61.2046 38.6123C62.129 41.1613 63.0284 43.7172 63.9705 46.2592C64.2531 47.0215 64.5404 47.7818 64.8324 48.5402C64.8666 48.6538 64.9423 48.7498 65.0439 48.8085C65.1456 48.8673 65.2655 48.8842 65.3791 48.856C65.4924 48.8236 65.5885 48.7472 65.6467 48.6434C65.7049 48.5395 65.7205 48.4165 65.6901 48.3011C64.6381 45.5834 63.6629 42.8353 62.6799 40.0903C62.4746 39.5176 62.2687 38.9451 62.0621 38.3728C61.8662 37.8314 61.0069 38.0662 61.2053 38.6128L61.2046 38.6123Z" fill="#4A3E42"/>
<path d="M59.9148 37.938C59.9908 38.1279 60.0668 38.3178 60.1429 38.5076C60.2969 38.8924 60.4153 39.3101 60.8094 39.5089C61.0128 39.6124 61.2438 39.6462 61.4678 39.6052C61.6576 39.5571 61.8419 39.489 62.0178 39.4022C62.2371 39.334 62.4429 39.2271 62.6256 39.0864C62.7717 38.9516 62.8766 38.777 62.9275 38.5834C63.0279 38.1881 62.8531 37.8437 62.7131 37.4862C62.626 37.2638 62.5472 37.0319 62.4441 36.8164C62.1542 36.211 61.3505 35.6394 60.667 35.8551C60.4848 35.9312 60.3224 36.049 60.1925 36.1994C60.0625 36.3498 59.9686 36.5286 59.9179 36.7219C59.7788 37.1147 59.7773 37.5442 59.9137 37.938C59.9472 38.052 60.0227 38.1484 60.1245 38.2073C60.2263 38.2661 60.3466 38.2828 60.4602 38.2538C60.5732 38.221 60.669 38.1445 60.7272 38.0408C60.7853 37.937 60.8011 37.8143 60.7712 37.6989C60.7484 37.6362 60.7293 37.5722 60.7141 37.5071C60.6934 37.4241 60.7092 37.4873 60.7114 37.5071C60.7076 37.4738 60.7056 37.4395 60.7045 37.4068C60.7031 37.3466 60.7047 37.2863 60.7092 37.2263C60.7172 37.102 60.693 37.2795 60.7119 37.2076C60.7218 37.1697 60.7272 37.1302 60.7367 37.0921C60.7512 37.0359 60.7698 36.982 60.7885 36.9272C60.7585 37.0154 60.7823 36.9398 60.7945 36.9166C60.8067 36.8934 60.8209 36.864 60.8356 36.8383C60.8469 36.8187 60.8602 36.8 60.8713 36.7804C60.9202 36.6935 60.8254 36.8146 60.8694 36.7804C60.8881 36.7633 60.9053 36.7447 60.9209 36.7246C60.9758 36.6597 60.8462 36.7736 60.9182 36.7246C60.932 36.7142 60.9469 36.7055 60.9627 36.6987C60.9484 36.6928 60.8567 36.7287 60.9471 36.7127C61.0097 36.7016 60.8345 36.7082 60.9369 36.7143C60.9578 36.7156 60.9813 36.7143 61.0015 36.7143C61.0802 36.7143 60.9986 36.7143 60.9826 36.7106C61.0166 36.7192 61.0506 36.7258 61.0842 36.7359C61.1064 36.7429 61.1286 36.7526 61.1524 36.7585C61.0611 36.7316 61.1624 36.7641 61.1824 36.7745C61.2401 36.8047 61.2934 36.8408 61.3481 36.8758C61.3614 36.8843 61.4147 36.9274 61.3532 36.8773C61.3736 36.8943 61.394 36.9116 61.4136 36.9297C61.4634 36.9748 61.5078 37.0231 61.5531 37.0725C61.6095 37.134 61.5689 37.0896 61.5571 37.0738C61.5793 37.105 61.6015 37.1372 61.6215 37.1706C61.6415 37.204 61.6575 37.2383 61.6757 37.2703C61.6939 37.3023 61.7222 37.3183 61.6688 37.2511C61.6846 37.2802 61.6969 37.3111 61.7053 37.3432C61.7349 37.4183 61.7645 37.4935 61.7941 37.5687C61.8883 37.8083 61.9832 38.0476 62.0705 38.2906C62.0829 38.3248 62.0649 38.3582 62.0705 38.2818C62.0705 38.2842 62.0651 38.4052 62.0734 38.3316C62.0816 38.2581 62.0598 38.3736 62.0587 38.3781C62.0629 38.3603 62.1031 38.3003 62.0614 38.3702C62.0583 38.3754 61.9923 38.4604 62.0356 38.4153C62.0825 38.3661 61.9958 38.4489 61.9956 38.4491C62.0136 38.4336 62.0623 38.4092 61.9956 38.4426C61.8819 38.4988 62.0909 38.4076 61.9327 38.4712C61.7804 38.5324 61.6286 38.5951 61.4767 38.6569C61.4084 38.6856 61.3386 38.7101 61.2674 38.7302C61.3474 38.7076 61.3052 38.723 61.2761 38.7241C61.2244 38.721 61.228 38.7228 61.2868 38.7295L61.2519 38.7216C61.1457 38.6691 61.3252 38.7803 61.2252 38.7142C61.201 38.6984 61.1339 38.6328 61.1981 38.7004C61.1812 38.6826 61.1641 38.6661 61.1477 38.6474C61.2095 38.7178 61.1461 38.6321 61.1361 38.6127C61.1679 38.6743 61.121 38.5743 61.1139 38.5592L61.0575 38.4182L60.966 38.1902L60.7694 37.6989C60.7357 37.5851 60.6601 37.4888 60.5584 37.43C60.4566 37.3712 60.3365 37.3544 60.2229 37.3831C60.1104 37.4164 60.0151 37.4931 59.9575 37.5968C59.8999 37.7005 59.8846 37.823 59.9148 37.938Z" fill="#4A3E42"/>
<path d="M87.1942 50.5127C85.0903 51.0755 82.6963 51.2275 80.6306 50.4139C80.5169 50.383 80.3958 50.3988 80.2935 50.4579C80.1913 50.517 80.116 50.6147 80.0841 50.7297C80.0555 50.845 80.0718 50.9672 80.1298 51.0706C80.1877 51.174 80.2828 51.2507 80.3951 51.2846C81.5076 51.6844 82.6804 51.8839 83.8605 51.874C85.0673 51.8751 86.2687 51.71 87.4319 51.3834C87.9843 51.2356 87.75 50.3649 87.1955 50.5133L87.1942 50.5127Z" fill="#4A3E42"/>
<path d="M71.3095 58.5657C71.9497 56.8601 72.3442 55.079 72.94 53.3594C73.073 52.9044 73.2614 52.468 73.5009 52.0604C73.7317 51.7254 74.0667 51.4791 74.4521 51.3611C75.2005 51.0568 75.9332 50.7259 76.6913 50.4426C77.584 50.1347 78.4581 49.7738 79.309 49.3618C79.82 49.0986 79.3697 48.3199 78.8605 48.5827C78.0921 48.9542 77.3028 49.2795 76.4967 49.557C75.7115 49.8502 74.9504 50.1886 74.1758 50.5071C73.7315 50.6893 73.3268 50.8513 73.01 51.2341C72.7117 51.6042 72.4774 52.023 72.3171 52.4727C71.9786 53.3696 71.7014 54.2868 71.441 55.2094C71.1442 56.2603 70.8363 57.3043 70.4527 58.3263C70.4223 58.4418 70.4379 58.5648 70.4961 58.6687C70.5543 58.7725 70.6504 58.849 70.7637 58.8815C70.8773 58.9105 70.9976 58.8939 71.0994 58.8351C71.2013 58.7762 71.2768 58.6797 71.3102 58.5657H71.3095Z" fill="#4A3E42"/>
<path d="M72.0057 60.0949C71.2462 58.3853 70.5506 56.649 69.8551 54.9119C69.8356 54.8462 69.8018 54.7858 69.7563 54.7351C69.7108 54.6844 69.6547 54.6447 69.5922 54.6189C69.5296 54.593 69.4621 54.5817 69.3947 54.5858C69.3273 54.5898 69.2616 54.6092 69.2024 54.6423C67.8267 55.3754 66.359 56.114 64.8338 56.4607C64.7207 56.4933 64.6247 56.5697 64.5665 56.6735C64.5083 56.7773 64.4927 56.9002 64.5228 57.0156C64.9602 58.4367 65.3794 59.8628 65.8763 61.2631C66.3155 62.5013 66.7791 63.8051 67.4704 64.9257C68.0904 65.9313 69.0156 66.6626 70.225 66.6739C71.4663 66.6845 72.5466 66.0633 73.3976 65.1915C74.1986 64.3596 74.9465 63.4767 75.6368 62.5482C75.6956 62.4448 75.7119 62.3219 75.682 62.2064C75.6522 62.0908 75.5787 61.9919 75.4775 61.931C75.3751 61.8736 75.2549 61.8584 75.1418 61.8885C75.0286 61.9186 74.9312 61.9917 74.8697 62.0928L74.7529 62.248C74.7307 62.2777 74.7084 62.308 74.6862 62.3382C74.6396 62.3984 74.788 62.2101 74.6682 62.3592C74.5238 62.5396 74.3806 62.7201 74.234 62.8972C73.8834 63.323 73.5244 63.7422 73.1523 64.1489C72.8446 64.5165 72.4994 64.85 72.1227 65.1441C71.6734 65.4656 71.155 65.6738 70.6106 65.7513C69.5645 65.888 68.7762 65.3433 68.2381 64.471C67.6224 63.4724 67.2021 62.3235 66.8047 61.2227C66.2766 59.759 65.8383 58.2644 65.3803 56.7769L65.0693 57.3318C65.8592 57.1316 66.6298 56.8594 67.3716 56.5186C68.1455 56.1857 68.905 55.8203 69.6501 55.4226L68.9974 55.153C69.7218 56.9623 70.4464 58.771 71.2375 60.5514C71.2975 60.6541 71.395 60.7286 71.5087 60.7589C71.6224 60.7892 71.7433 60.7729 71.8453 60.7134C71.9449 60.651 72.0171 60.5521 72.0468 60.4371C72.0765 60.3222 72.0615 60.2 72.0048 60.096L72.0057 60.0949Z" fill="#4A3E42"/>
<path d="M73.6484 51.1901C73.8966 53.8478 74.2427 56.5046 74.7021 59.1332C74.9406 60.4986 75.3283 61.8491 75.4653 63.2298C75.5304 64.1808 75.4955 65.136 75.3614 66.0795C75.1955 67.6194 75.0099 69.1572 74.8047 70.6929C74.7774 70.8082 74.7944 70.9297 74.8521 71.0328C74.9099 71.1359 75.0041 71.2127 75.1157 71.2478C75.2294 71.2788 75.3505 71.263 75.4528 71.2039C75.5551 71.1448 75.6303 71.0471 75.6622 70.932C75.8498 69.5184 76.0236 68.1035 76.1837 66.6872C76.2866 65.7711 76.4376 64.8352 76.4021 63.9106C76.3455 62.4367 75.9545 61.0215 75.6841 59.581C75.4309 58.2325 75.2265 56.8741 75.041 55.5146C74.8449 54.0768 74.6725 52.6347 74.5377 51.1894C74.5346 51.0708 74.4868 50.9578 74.4041 50.8739C74.3215 50.79 74.2102 50.7414 74.0934 50.7383C73.9758 50.7391 73.8633 50.7869 73.7801 50.8713C73.697 50.9558 73.6499 51.07 73.6491 51.1894L73.6484 51.1901Z" fill="#4A3E42"/>
<path d="M96.7747 56.6027C96.3282 55.1327 95.9846 53.6164 95.3877 52.1975C95.2411 51.8484 95.0439 51.5236 94.8025 51.2339C94.5415 50.938 94.21 50.7151 93.8398 50.5865C93.1118 50.291 92.399 49.9646 91.6628 49.686C91.1872 49.5055 90.7096 49.3318 90.2357 49.1466C90.0212 49.0627 89.807 48.9775 89.5953 48.8861C89.4116 48.7729 89.209 48.6949 88.9975 48.6562C88.4257 48.6563 88.4249 49.5585 88.9975 49.5585H88.9998L88.7754 49.497C89.7015 49.9325 90.6694 50.2668 91.6237 50.6309C92.068 50.8005 92.5123 50.9722 92.9428 51.1748C93.3182 51.3516 93.796 51.454 94.085 51.7701C94.368 52.1053 94.5821 52.4947 94.7146 52.9153C94.8825 53.3747 95.038 53.8384 95.1811 54.3064C95.4394 55.1478 95.6618 56.0002 95.9175 56.8427C96.0854 57.3958 96.9435 57.1599 96.7743 56.6027H96.7747Z" fill="#4A3E42"/>
<path d="M90.2764 57.7491C90.5901 56.8098 90.9753 55.8719 91.1361 54.8895C91.2328 54.4954 91.1881 54.0792 91.0102 53.7154C90.737 53.2681 90.4029 52.8623 90.0179 52.51V53.1479C90.3599 52.8202 90.6732 52.4629 90.9542 52.08C91.0323 51.9934 91.091 51.8907 91.1263 51.7789C91.1615 51.667 91.1725 51.5487 91.1583 51.4322C91.0936 51.1967 90.9768 50.9793 90.8169 50.7965C90.5372 50.4 90.2518 50.0076 89.9608 49.6195C89.8127 49.4228 89.6624 49.2273 89.5098 49.033C89.3708 48.857 89.247 48.6552 88.9973 48.6552L89.3115 48.7873C89.0371 48.4465 88.7539 48.1138 88.4651 47.7858C88.0832 47.3518 87.4566 47.9917 87.8369 48.4237C88.0286 48.6418 88.2187 48.8616 88.4047 49.0849C88.5657 49.2782 88.7181 49.5574 88.9996 49.5574L88.6855 49.4253C88.9747 49.7862 89.2561 50.1527 89.5296 50.5249C89.6629 50.7075 89.7951 50.891 89.9263 51.0753C90.0452 51.2427 90.272 51.4692 90.3026 51.6715V51.4315C90.2611 51.6194 90.0336 51.8224 89.9108 51.9643C89.7462 52.1547 89.5718 52.3351 89.3908 52.5093C89.309 52.5947 89.2632 52.7091 89.2632 52.8282C89.2632 52.9474 89.309 53.0618 89.3908 53.1472C89.6869 53.456 90.0556 53.7748 90.244 54.1702C90.3602 54.414 90.2793 54.6786 90.2276 54.9328C90.0105 55.8073 89.7411 56.6674 89.4207 57.5084C89.2368 58.0597 90.0947 58.2961 90.2775 57.7484L90.2764 57.7491Z" fill="#4A3E42"/>
<path d="M79.5069 47.7869C78.7825 48.61 78.1047 49.4715 77.4632 50.3632C77.1693 50.7726 76.6124 51.3144 76.8765 51.8599C77.1108 52.344 77.5729 52.7822 77.9541 53.1488V52.5109C77.5118 52.9719 76.9151 53.5002 76.799 54.1666C76.7123 54.6604 76.882 55.2615 77.024 55.7332C77.5078 57.3408 78.0903 58.925 78.6221 60.5171C78.8049 61.0639 79.6635 60.8293 79.4789 60.2773L77.9874 55.8164C77.8238 55.3819 77.717 54.9275 77.6698 54.4648C77.6776 54.2495 77.7632 54.0447 77.9101 53.8893C78.1198 53.6291 78.3445 53.3818 78.5832 53.1488C78.6652 53.0635 78.711 52.949 78.711 52.8298C78.711 52.7107 78.6652 52.5962 78.5832 52.5109C78.4022 52.3367 78.2278 52.1563 78.0636 51.9659C77.9414 51.8245 77.7129 51.621 77.6724 51.4338V51.6738C77.7215 51.522 77.8034 51.3832 77.9121 51.2677C78.0179 51.1174 78.1243 50.9674 78.2313 50.818C78.4237 50.5502 78.6185 50.2842 78.8185 50.0224C79.2379 49.4733 79.6793 48.9423 80.1353 48.4242C80.5152 47.9924 79.889 47.3523 79.5069 47.7863V47.7869Z" fill="#4A3E42"/>
<path d="M80.5504 67.804C82.8553 67.8022 85.1596 67.7025 87.4647 67.7011C88.0363 67.7011 88.0374 66.7988 87.4647 66.7988C85.1596 66.8002 82.8553 66.8999 80.5504 66.9017C79.9786 66.9017 79.9775 67.804 80.5504 67.804Z" fill="#4A3E42"/>
<path d="M80.2408 70.3208C80.5412 69.0937 80.7407 67.8435 80.8375 66.5829C80.9908 65.1039 81.0667 63.6178 81.0649 62.1307C81.0663 59.3133 80.8841 56.5065 80.7462 53.6943C80.6212 51.7753 80.6479 49.8492 80.8259 47.9345C80.8252 47.8151 80.7782 47.7008 80.695 47.6163C80.6118 47.5319 80.4992 47.4841 80.3816 47.4834C80.2646 47.4861 80.1532 47.5345 80.0704 47.6185C79.9877 47.7025 79.94 47.8157 79.9373 47.9345C79.6121 50.9121 79.8829 53.905 80.0313 56.8857C80.1821 59.9134 80.2808 62.9606 80.0075 65.984C79.884 67.3491 79.7492 68.7585 79.384 70.0808C79.2285 70.6409 80.0864 70.88 80.2408 70.3208Z" fill="#4A3E42"/>
<path d="M91.4395 64.9262C91.6209 66.87 91.8762 68.8086 92.1303 70.7438C92.134 70.8622 92.182 70.9748 92.2645 71.0586C92.347 71.1425 92.4579 71.1912 92.5746 71.1949C92.7898 71.1949 93.0509 70.9869 93.0189 70.7438C92.7647 68.8086 92.5095 66.87 92.328 64.9262C92.3249 64.8076 92.2771 64.6947 92.1944 64.6108C92.1118 64.5268 92.0006 64.4783 91.8837 64.4751C91.7662 64.4759 91.6536 64.5237 91.5705 64.6082C91.4873 64.6926 91.4403 64.8068 91.4395 64.9262Z" fill="#4A3E42"/>
<path d="M93.4129 57.1966C93.7122 55.2025 93.9683 53.1997 94.1553 51.1914C94.1545 51.072 94.1074 50.9578 94.0242 50.8734C93.9411 50.7889 93.8286 50.7411 93.711 50.7402C93.594 50.7427 93.4824 50.791 93.3996 50.8751C93.3168 50.9592 93.2692 51.0725 93.2668 51.1914C93.0868 53.1193 92.8434 55.0421 92.5559 56.9566C92.5283 57.0719 92.5452 57.1936 92.603 57.2968C92.6608 57.4 92.7552 57.4768 92.8669 57.5117C92.9806 57.5425 93.1016 57.5267 93.2039 57.4676C93.3062 57.4085 93.3814 57.3109 93.4134 57.1959L93.4129 57.1966Z" fill="#4A3E42"/>
<path d="M86.7734 63.8479C86.7947 64.9574 86.881 66.0647 87.0318 67.1638C87.1261 68.2133 87.2989 69.2539 87.5489 70.2767C87.7027 70.835 88.5603 70.5979 88.4057 70.0367C88.1657 69.0645 87.9999 68.0749 87.9099 67.0767C87.7653 66.0061 87.6825 64.9278 87.662 63.8474C87.662 63.2668 86.7734 63.2659 86.7734 63.8474V63.8479Z" fill="#4A3E42"/>
<path d="M87.7485 57.3743C87.89 54.2282 88.1952 51.0783 87.8618 47.9341C87.8585 47.8155 87.8106 47.7027 87.728 47.6188C87.6454 47.5349 87.5343 47.4863 87.4175 47.4829C87.2999 47.4836 87.1873 47.5314 87.1041 47.6158C87.021 47.7003 86.9739 47.8146 86.9732 47.9341C87.3065 51.0783 87.0014 54.2275 86.8599 57.3743C86.8337 57.9547 87.7225 57.9535 87.7485 57.3743Z" fill="#4A3E42"/>
<path d="M93.3811 63.994C93.0347 64.1856 92.6575 64.3128 92.2671 64.3696C91.7943 64.4855 91.3205 64.6003 90.8409 64.684C90.0265 64.8261 89.104 64.8999 88.3674 64.4494C87.8764 64.149 87.4293 64.9288 87.9191 65.2286C88.8205 65.7799 89.899 65.7408 90.9029 65.5829C91.4278 65.5006 91.9452 65.3763 92.4612 65.25C92.9277 65.1356 93.4235 65.0512 93.8296 64.7731C94.301 64.4501 93.8569 63.6678 93.3811 63.994Z" fill="#4A3E42"/>
<path d="M94.1841 61.4834C93.8123 60.9691 93.3468 60.532 92.8128 60.1959C92.5636 60.0376 92.2773 59.9498 91.9835 59.9414C91.6722 59.9527 91.3688 60.0438 91.1014 60.2062C91.0005 60.2674 90.9272 60.3664 90.8975 60.4819C90.8677 60.5973 90.8837 60.72 90.9421 60.8236C91.0032 60.9251 91.1007 60.9986 91.214 61.0287C91.3273 61.0589 91.4476 61.0433 91.5499 60.9854C91.5755 60.9711 91.601 60.9569 91.627 60.9434C91.6363 60.9387 91.7367 60.8899 91.6861 60.9129C91.643 60.9328 91.7159 60.9019 91.7238 60.8987C91.7474 60.8904 91.7709 60.8823 91.7949 60.8751C91.8129 60.8696 91.94 60.8252 91.9504 60.8392C91.9504 60.8392 91.8576 60.8448 91.9335 60.8448C91.9558 60.8448 91.978 60.8435 92.0002 60.8448C92.0144 60.8448 92.1113 60.8489 92.0406 60.8448C91.9782 60.8412 92.0504 60.8478 92.0644 60.8507C92.1096 60.8606 92.1541 60.8734 92.1977 60.889C92.2392 60.9037 92.2628 60.9193 92.2095 60.8922C92.2317 60.9037 92.2552 60.9148 92.2779 60.9265C92.3321 60.9551 92.3845 60.9872 92.4358 61.0208C92.4871 61.0544 92.534 61.0884 92.582 61.1241C92.6442 61.1692 92.5424 61.0921 92.5991 61.1369C92.6271 61.159 92.6548 61.1816 92.6824 61.2046C92.7761 61.2815 92.8677 61.3612 92.957 61.4437C93.0458 61.5261 93.1318 61.6115 93.214 61.7006C93.2526 61.7426 93.2904 61.7854 93.3273 61.829C93.3495 61.8563 93.3717 61.8852 93.3952 61.912C93.4461 61.97 93.3368 61.8315 93.4175 61.94C93.479 62.041 93.5764 62.1142 93.6896 62.1443C93.8027 62.1745 93.923 62.1593 94.0255 62.1019C94.1263 62.0407 94.1994 61.9418 94.2292 61.8264C94.259 61.711 94.243 61.5883 94.1847 61.4848L94.1841 61.4834Z" fill="#4A3E42"/>
<path d="M92.5333 61.8456C92.145 61.4743 91.7969 61.0533 91.4321 60.6586C91.2511 60.4628 91.0716 60.2641 90.8814 60.0773C90.7175 59.9086 90.5165 59.7818 90.295 59.7073C90.0734 59.6328 89.8377 59.6127 89.607 59.6487C89.339 59.6872 89.0929 59.8205 88.9122 60.0252C88.7314 60.2299 88.6277 60.4928 88.6191 60.7675C88.6191 60.8872 88.6659 61.0019 88.7493 61.0866C88.8326 61.1712 88.9456 61.2187 89.0634 61.2187C89.1813 61.2187 89.2943 61.1712 89.3776 61.0866C89.4609 61.0019 89.5077 60.8872 89.5077 60.7675C89.5077 60.7414 89.5077 60.7154 89.5113 60.6895C89.5028 60.7477 89.5037 60.7515 89.5139 60.701C89.5299 60.6524 89.5268 60.6556 89.5046 60.7105C89.5146 60.6897 89.5258 60.6696 89.5381 60.6502C89.4908 60.7378 89.5584 60.632 89.5877 60.6081C89.5133 60.6685 89.6543 60.5763 89.671 60.5675C89.7176 60.5448 89.726 60.5409 89.6961 60.556C89.723 60.5457 89.7505 60.5373 89.7785 60.5307C89.8314 60.5199 89.8356 60.5189 89.7912 60.5278C89.8214 60.5262 89.8516 60.526 89.8818 60.5278C89.9362 60.532 89.9431 60.5325 89.902 60.5289C89.9329 60.5352 89.9638 60.5429 89.994 60.5514C90.0677 60.5686 90.0042 60.5454 90.0677 60.5794C90.283 60.7311 90.4756 60.9134 90.6397 61.1208C91.0618 61.5719 91.4588 62.058 91.906 62.4846C91.9897 62.5668 92.102 62.6123 92.2185 62.6112C92.335 62.6102 92.4464 62.5628 92.5288 62.4791C92.6111 62.3955 92.6579 62.2823 92.6589 62.164C92.6599 62.0457 92.6151 61.9318 92.5342 61.8467L92.5333 61.8456Z" fill="#4A3E42"/>
<path d="M96.3534 62.9375C97.5514 61.8498 98.7341 60.7314 99.8721 59.5787C99.9538 59.4933 99.9994 59.3789 99.9994 59.2598C99.9994 59.1407 99.9538 59.0263 99.8721 58.9408C98.7476 57.7904 97.036 57.5709 95.5148 57.6447C93.8874 57.7236 92.0832 58.3252 90.9647 59.586H91.5929C90.2549 58.3228 88.3094 58.1157 86.5752 58.4017C85.0051 58.6607 83.4112 59.3266 82.627 60.812C82.5788 60.8984 82.5595 60.9985 82.5721 61.097C82.5846 61.1956 82.6283 61.2873 82.6966 61.3585C83.8664 62.3962 85.1355 63.321 86.353 64.2977C86.438 64.379 86.5504 64.4243 86.6671 64.4243C86.7839 64.4243 86.8962 64.379 86.9812 64.2977C87.0638 64.2128 87.1101 64.0982 87.1101 63.9788C87.1101 63.8594 87.0638 63.7448 86.9812 63.6598C85.7639 62.682 84.4946 61.7573 83.3248 60.7206L83.3943 61.2672C84.0558 60.0139 85.3969 59.5237 86.7109 59.2891C88.1421 59.0335 89.8526 59.1745 90.9647 60.2239C91.0487 60.3071 91.1614 60.3537 91.2788 60.3537C91.3962 60.3537 91.5089 60.3071 91.5929 60.2239C92.5557 59.1389 94.112 58.6151 95.5148 58.547C96.795 58.4847 98.288 58.6 99.2439 59.5787V58.9408C98.1059 60.0933 96.9232 61.2117 95.7252 62.2996C95.298 62.6874 95.928 63.3237 96.3534 62.9375Z" fill="#4A3E42"/>
<path d="M99.0098 58.9177C99.2812 58.6544 99.5429 58.3817 99.8028 58.1056C99.8495 58.0562 99.8847 57.9968 99.9058 57.9318C99.9269 57.8667 99.9335 57.7977 99.925 57.7298C99.9164 57.6619 99.8931 57.5968 99.8566 57.5392C99.8201 57.4816 99.7713 57.4331 99.714 57.3971C99.1689 56.9568 98.5369 56.6406 97.8609 56.4702C97.0813 56.3086 96.2874 56.2282 95.4917 56.2304C94.6007 56.2211 93.7143 56.3598 92.8673 56.641C92.0801 56.8995 91.2833 57.2608 90.7099 57.885L91.2482 57.8144C89.8111 56.8219 87.9023 56.7316 86.2464 57.0752C84.6657 57.4039 83.1051 58.2031 82.0975 59.5136C82.0185 59.6005 81.9746 59.7144 81.9746 59.8326C81.9746 59.9508 82.0185 60.0647 82.0975 60.1516C82.3549 60.4505 82.6451 60.7187 82.9625 60.9508C83.0644 61.0105 83.1854 61.027 83.2993 60.9966C83.4131 60.9663 83.5106 60.8916 83.5705 60.7888C83.627 60.6848 83.642 60.5627 83.6123 60.4478C83.5826 60.3329 83.5105 60.234 83.411 60.1716C83.4856 60.2298 83.3281 60.0963 83.3019 60.0731C83.22 59.9997 83.1389 59.9252 83.0587 59.8497C82.94 59.7457 82.8287 59.6334 82.7255 59.5136V60.1516C83.6309 58.9736 84.9671 58.2793 86.3841 57.9662C87.8449 57.6432 89.5306 57.7181 90.7994 58.5935C90.8844 58.6434 90.9831 58.6635 91.0804 58.6508C91.1777 58.638 91.2682 58.5931 91.3379 58.5229C91.8317 57.9854 92.5221 57.6942 93.2014 57.4796C93.9747 57.2323 94.7827 57.1156 95.5932 57.1343C96.2872 57.1342 96.9795 57.2059 97.6592 57.3481C98.2467 57.505 98.7945 57.7873 99.2661 58.1762L99.1773 57.4677C98.9183 57.7436 98.6557 58.0165 98.3842 58.2798C97.9697 58.6815 98.5986 59.319 99.0125 58.9177H99.0098Z" fill="#4A3E42"/>
<path d="M87.5271 60.9532C87.3112 60.8326 87.0658 60.7778 86.82 60.7951C86.5743 60.8125 86.3387 60.9013 86.1414 61.0511C85.983 61.1673 85.8562 61.3223 85.7728 61.5018C85.6894 61.6812 85.6521 61.8792 85.6644 62.0772C85.692 62.4747 85.8408 62.8536 86.0903 63.1613C86.3317 63.4904 86.5916 63.8051 86.8575 64.1143C87.1401 64.4429 87.4289 64.7659 87.7239 65.0832C87.8072 65.1678 87.9203 65.2153 88.0381 65.2153C88.156 65.2153 88.269 65.1678 88.3523 65.0832C88.4357 64.9985 88.4825 64.8838 88.4825 64.7641C88.4825 64.6444 88.4357 64.5296 88.3523 64.445C88.0792 64.1518 87.8115 63.8536 87.5491 63.5506C87.4017 63.3805 87.2569 63.2086 87.1146 63.0347C87.0492 62.9544 86.985 62.873 86.9208 62.7916C86.862 62.7169 86.9504 62.8331 86.8911 62.7525C86.8649 62.7169 86.8384 62.6815 86.8127 62.6454C86.7362 62.5472 86.6684 62.4423 86.6101 62.3321C86.5669 62.2365 86.5466 62.1319 86.5508 62.0269C86.5508 62.0082 86.5601 61.8726 86.5477 61.9648C86.5499 61.9497 86.5823 61.8155 86.5554 61.9006C86.5301 61.9811 86.575 61.8755 86.5825 61.8588C86.6172 61.7819 86.5248 61.9116 86.591 61.8475C86.6256 61.8139 86.6576 61.7781 86.6943 61.7476C86.6327 61.7972 86.7071 61.7476 86.7309 61.7305C86.8031 61.6786 86.6905 61.7323 86.7722 61.7095C86.7987 61.7004 86.8256 61.6929 86.8529 61.6869C86.8053 61.6905 86.8091 61.6905 86.8642 61.6869C86.9383 61.6779 87.0133 61.6938 87.0777 61.7321C87.1801 61.7894 87.3003 61.8046 87.4134 61.7745C87.5265 61.7444 87.6239 61.6713 87.6855 61.5703C87.7439 61.4667 87.7599 61.344 87.7301 61.2286C87.7004 61.1131 87.6271 61.0141 87.5262 60.9529L87.5271 60.9532Z" fill="#4A3E42"/>
<path d="M90.8086 62.341C90.4434 61.939 90.0873 61.5289 89.7241 61.1249C89.5446 60.9255 89.364 60.727 89.1786 60.5332C89.0361 60.3679 88.8753 60.2199 88.6994 60.092C88.1183 59.718 87.3077 59.7854 86.9285 60.4148C86.4977 61.1301 87.108 61.7682 87.5312 62.2945C87.9767 62.8586 88.4518 63.3981 88.9544 63.9105C89.362 64.3186 89.9907 63.6811 89.5826 63.2726C89.1872 62.8767 88.8149 62.4605 88.4597 62.027C88.2789 61.8063 88.1012 61.5833 87.9219 61.3613C87.8429 61.2668 87.7732 61.1648 87.7138 61.0565C87.7029 61.0367 87.6904 61.0175 87.6795 60.9974C87.6447 60.9329 87.6949 61.0518 87.6751 60.9844C87.6715 60.972 87.6502 60.8862 87.6638 60.9424C87.6749 60.9875 87.6767 60.879 87.6613 60.9595C87.6662 60.9321 87.6737 60.9052 87.6835 60.8792C87.6549 60.9498 87.6875 60.8792 87.6958 60.8702C87.6536 60.9142 87.708 60.8547 87.7126 60.8499C87.7359 60.825 87.7606 60.8015 87.7866 60.7795C87.7644 60.7978 87.7751 60.7861 87.8159 60.7667C87.7959 60.7762 87.7522 60.7845 87.833 60.764C87.8497 60.7597 87.9168 60.7538 87.843 60.7592C87.8789 60.7573 87.9149 60.7573 87.9508 60.7592C88.023 60.7617 87.8895 60.7448 87.959 60.7592C87.9794 60.7638 87.9999 60.7678 88.0201 60.7728C88.0711 60.7863 88.1214 60.8028 88.1707 60.8219C88.079 60.787 88.1914 60.8346 88.2162 60.849C88.2309 60.8576 88.2462 60.8693 88.2607 60.877C88.3273 60.9106 88.192 60.8071 88.2289 60.8519C88.3469 60.9963 88.503 61.1208 88.6314 61.258C88.7936 61.4296 88.9524 61.6047 89.1104 61.7802C89.4685 62.1783 89.8194 62.5828 90.1795 62.9791C90.2208 63.021 90.2698 63.0542 90.3237 63.0769C90.3776 63.0995 90.4354 63.1112 90.4937 63.1112C90.5521 63.1112 90.6098 63.0995 90.6637 63.0768C90.7176 63.0541 90.7666 63.0209 90.8079 62.979C90.8491 62.9371 90.8818 62.8873 90.9041 62.8326C90.9265 62.7779 90.9379 62.7192 90.9379 62.6599C90.9379 62.6007 90.9264 62.542 90.9041 62.4873C90.8817 62.4326 90.849 62.3828 90.8077 62.341H90.8086Z" fill="#4A3E42"/>
<path d="M94.0528 61.5998C94.2622 61.4499 94.484 61.3189 94.7159 61.2082C94.8707 61.1118 95.0509 61.0662 95.2321 61.0776C95.3008 61.1001 95.3557 61.245 95.3674 61.367C95.365 61.5942 95.2969 61.8156 95.1715 62.0038C95.063 62.1696 94.9363 62.3224 94.7939 62.4592C94.6366 62.6295 94.4889 62.8077 94.3431 62.9882C94.0682 63.3652 93.745 63.7032 93.3819 63.9933C93.2826 64.0559 93.2106 64.1548 93.181 64.2696C93.1513 64.3845 93.1661 64.5065 93.2224 64.6105C93.2826 64.7131 93.38 64.7876 93.4938 64.8179C93.6075 64.8482 93.7284 64.8319 93.8304 64.7725C94.3178 64.3856 94.7536 63.9361 95.1271 63.4353C95.3026 63.2239 95.4958 63.0292 95.6729 62.8192C95.8926 62.5609 96.0601 62.2612 96.1658 61.9372C96.3775 61.2982 96.1825 60.4094 95.4636 60.2094C94.829 60.0325 94.1032 60.4649 93.6036 60.8209C93.5042 60.8834 93.4322 60.9823 93.4025 61.0972C93.3729 61.212 93.3879 61.3341 93.4443 61.4381C93.5045 61.5406 93.6019 61.6151 93.7156 61.6453C93.8293 61.6756 93.9502 61.6592 94.0521 61.5998H94.0528Z" fill="#4A3E42"/>
<path d="M82.9584 43.9753C83.3457 44.1798 83.7773 44.2821 84.2137 44.2731C84.6768 44.2908 85.1323 44.1503 85.5075 43.8741C85.5908 43.7895 85.6376 43.6747 85.6377 43.5551C85.6369 43.4356 85.5901 43.3212 85.5075 43.2361C85.4225 43.1547 85.3102 43.1094 85.1934 43.1094C85.0766 43.1094 84.9642 43.1547 84.8793 43.2361C85.0332 43.1141 84.8793 43.23 84.8302 43.256C84.7926 43.2758 84.694 43.3074 84.8357 43.2578C84.8017 43.2695 84.7691 43.284 84.7344 43.295C84.642 43.3252 84.5429 43.3318 84.4512 43.3606C84.4978 43.346 84.5278 43.3514 84.4605 43.3582C84.4328 43.3609 84.4048 43.3634 84.377 43.3652C84.3099 43.3695 84.2428 43.3714 84.1757 43.3708C84.1156 43.3708 84.0555 43.3686 83.9954 43.3643C83.9678 43.3625 83.9403 43.3602 83.9129 43.3573C83.8972 43.3557 83.8814 43.3541 83.8659 43.3521C83.8308 43.3478 83.8452 43.3496 83.9092 43.3579C83.865 43.3446 83.8196 43.336 83.7737 43.3322C83.7292 43.3225 83.6872 43.3112 83.6446 43.2982C83.6075 43.2869 83.5713 43.2736 83.5349 43.2607C83.4367 43.2267 83.6304 43.3058 83.5415 43.2643C83.4971 43.2418 83.4513 43.2192 83.4069 43.1967C83.3052 43.1363 83.184 43.1194 83.07 43.1497C82.9559 43.1801 82.8585 43.2552 82.799 43.3585C82.7395 43.4618 82.7229 43.5849 82.7528 43.7007C82.7827 43.8164 82.8567 43.9154 82.9584 43.9758V43.9753Z" fill="#4A3E42"/>
<path d="M83.9284 41.0533C83.9829 41.2538 84.0267 41.4571 84.0594 41.6624L84.0434 41.5424C84.0474 41.5702 84.0481 41.5985 84.0457 41.6265L84.0617 41.5065C84.0597 41.5194 84.0567 41.5321 84.0525 41.5444L84.097 41.4366C84.0934 41.4451 84.089 41.4532 84.0839 41.4609L84.1534 41.3696C84.1476 41.3768 84.1411 41.3834 84.1338 41.3892L84.2227 41.3186C84.2075 41.3282 84.1917 41.3367 84.1754 41.3441L84.2816 41.299C84.2559 41.3101 84.2289 41.318 84.2014 41.3227L84.3196 41.3064C84.2946 41.3095 84.2694 41.3095 84.2445 41.3064L84.3624 41.3224C84.3342 41.3186 84.3065 41.3116 84.278 41.3075C84.2206 41.2887 84.1592 41.286 84.1003 41.2996C84.0415 41.3022 83.9845 41.3207 83.935 41.3531C83.8846 41.383 83.8406 41.4227 83.8053 41.4699C83.77 41.517 83.7442 41.5708 83.7294 41.6281C83.7146 41.6854 83.711 41.7452 83.719 41.8039C83.7269 41.8626 83.7461 41.9191 83.7755 41.9703L83.8451 42.0605C83.8995 42.1157 83.967 42.1557 84.0412 42.1764C84.1179 42.187 84.1921 42.2064 84.2702 42.2098C84.3932 42.2103 84.5143 42.1802 84.6232 42.1223C84.6943 42.0879 84.7571 42.038 84.8072 41.9763C84.8573 41.9146 84.8935 41.8424 84.9131 41.765C84.9393 41.6432 84.9383 41.5171 84.9102 41.3957C84.8776 41.1995 84.8329 41.0053 84.7834 40.8129C84.7514 40.6997 84.6785 40.603 84.5792 40.5422C84.4754 40.4819 84.3523 40.4657 84.2367 40.4971C84.1252 40.5288 84.0301 40.6031 83.9712 40.7044C83.9132 40.8102 83.8973 40.9346 83.9268 41.052L83.9284 41.0533Z" fill="#4A3E42"/>
<path d="M80.8878 39.2922C80.7876 39.6227 80.8529 40.3829 81.4694 40.4476C82.2842 40.4427 82.3275 39.5228 82.0532 39.0915C81.8286 38.7378 81.1684 38.5907 80.8878 39.2922Z" fill="#4A3E42"/>
<path d="M87.413 39.2924C87.5132 39.6227 87.4479 40.3829 86.8314 40.4476C86.0166 40.4424 85.9733 39.5228 86.2474 39.0915C86.472 38.7378 87.132 38.5907 87.413 39.2924Z" fill="#4A3E42"/>
</g>
</svg>
