<svg width="414" height="385" viewBox="0 0 414 385" fill="none" xmlns="http://www.w3.org/2000/svg">
<path fill-rule="evenodd" clip-rule="evenodd" d="M328.315 109.6C328.315 108.192 329.455 107.051 330.861 107.051H339.344C340.75 107.051 341.889 108.192 341.889 109.6V124.068C341.889 124.604 342.058 125.126 342.371 125.561L352.436 139.517C352.749 139.952 352.918 140.474 352.918 141.01V166.463C352.918 167.052 352.715 167.622 352.343 168.077L345.858 176.015C345.486 176.47 345.283 177.04 345.283 177.629V200.508V234.492C345.283 235.9 344.143 237.041 342.738 237.041H306.258C304.852 237.041 303.713 235.9 303.713 234.492V203.057C303.713 201.649 302.574 200.508 301.168 200.508H294.381C292.975 200.508 291.836 199.367 291.836 197.959V176.719V167.373V140.186V124.893V117.246C291.836 115.838 292.975 114.697 294.381 114.697H315.59C316.996 114.697 318.135 115.838 318.135 117.246V122.344C318.135 123.751 319.275 124.893 320.68 124.893H325.77C327.176 124.893 328.315 123.751 328.315 122.344V109.6Z" fill="white"/>
<path fill-rule="evenodd" clip-rule="evenodd" d="M284.201 232.289C284.201 230.881 285.341 229.74 286.746 229.74H342.738C344.144 229.74 345.283 230.881 345.283 232.289V261.499C345.283 261.619 345.292 261.74 345.309 261.859L347.803 279.342C347.82 279.462 347.828 279.582 347.828 279.703V299.912C347.828 301.32 346.689 302.461 345.283 302.461H332.558C331.152 302.461 330.013 301.32 330.013 299.912V296.514C330.013 295.106 328.873 293.965 327.468 293.965H324.922C323.517 293.965 322.377 295.106 322.377 296.514V305.01C322.377 306.417 321.238 307.559 319.832 307.559H301.168C299.763 307.559 298.623 306.417 298.623 305.01V282.07C298.623 280.663 297.484 279.521 296.078 279.521H286.746C285.341 279.521 284.201 278.38 284.201 276.973V261.68V232.289Z" fill="white"/>
<path fill-rule="evenodd" clip-rule="evenodd" d="M292.713 197.279C293.071 197.096 293.468 197 293.871 197H303.893C305.299 197 306.439 198.141 306.439 199.549V234.285C306.439 235.693 305.299 236.834 303.893 236.834H293.258H288.471C287.066 236.834 285.926 237.975 285.926 239.383V266.57V275.465C285.926 276.872 287.066 278.014 288.471 278.014H297.803C299.209 278.014 300.348 279.155 300.348 280.562V312.449V318.396C300.348 319.804 299.209 320.945 297.803 320.945H292.41C291.004 320.945 289.865 319.804 289.865 318.396V314.998C289.865 313.59 288.725 312.449 287.32 312.449H286.489C285.927 312.449 285.382 312.635 284.937 312.978L275.28 320.417C274.835 320.759 274.29 320.945 273.729 320.945H231.328C229.922 320.945 228.783 319.804 228.783 318.396V314.998C228.783 313.59 222.643 312.449 221.238 312.449H219.541C218.135 312.449 216.996 311.308 216.996 309.9L219.996 281.014V269.119C219.996 267.711 218.856 266.57 217.451 266.57H205.029H196.545C195.139 266.57 194 265.429 194 264.021V260.623C194 259.215 195.139 258.074 196.545 258.074H202.484C203.889 258.074 205.029 256.933 205.029 255.525V237.708C205.029 237.142 205.217 236.591 205.565 236.144L216.37 222.231C216.717 221.784 216.906 221.233 216.906 220.666V207.947C216.906 206.54 218.045 205.398 219.451 205.398H227.934C229.34 205.398 230.48 206.54 230.48 207.947V218.992C230.48 220.4 231.619 221.541 233.025 221.541H254.469C254.872 221.541 255.269 221.445 255.628 221.262L292.713 197.279Z" fill="white"/>
<path fill-rule="evenodd" clip-rule="evenodd" d="M197.66 260.549C197.66 259.141 196.52 258 195.115 258H149.545C148.139 258 147 259.141 147 260.549V266.496V268.195V297.082C147 298.49 148.139 299.631 149.545 299.631H174.148C175.553 299.631 176.693 300.772 176.693 302.18V342.111C176.693 343.519 177.832 344.66 179.238 344.66H219.111C220.516 344.66 221.656 343.519 221.656 342.111V299.631V268.744C221.656 267.336 220.516 266.195 219.111 266.195H199.357C198.419 266.195 197.66 265.435 197.66 265.496V260.549Z" fill="white"/>
<path fill-rule="evenodd" clip-rule="evenodd" d="M90.5899 258.28C90.1545 258.28 89.7263 258.39 89.3464 258.598L70.0183 269.213C69.2146 269.655 68.7168 270.488 68.7168 271.391V297.384C68.7168 298.763 69.8563 299.88 71.2619 299.88H89.9258H151.979C153.385 299.88 154.524 298.763 154.524 297.384V260.776C154.524 259.398 153.385 258.28 151.979 258.28H90.5899Z" fill="white"/>
<path fill-rule="evenodd" clip-rule="evenodd" d="M95.0166 305.859C95.0166 304.451 96.1561 303.31 97.5617 303.31H118.771C120.176 303.31 121.316 304.451 121.316 305.859V311.806C121.316 313.214 122.455 314.355 123.861 314.355H130.648C132.053 314.355 133.193 313.214 133.193 311.806V305.859C133.193 304.451 134.332 303.31 135.738 303.31H167.976C169.381 303.31 170.521 304.451 170.521 305.859V342.392C170.521 343.8 169.381 344.941 167.976 344.941H133.193H121.316H97.5617C96.1561 344.941 95.0166 343.8 95.0166 342.392V305.859Z" fill="white"/>
<path fill-rule="evenodd" clip-rule="evenodd" d="M0 302.461C0 301.053 1.13947 299.912 2.54508 299.912H62.7787C64.1843 299.912 65.3238 301.053 65.3238 302.461V323.701V376.501C65.3238 377.466 64.7791 378.349 63.9169 378.78L52.0398 384.728C50.3476 385.575 48.3566 384.343 48.3566 382.448V380.625C48.3566 379.217 47.2171 378.076 45.8115 378.076H39.873C38.4673 378.076 37.3279 379.217 37.3279 380.625V381.474C37.3279 382.882 36.1884 384.023 34.7828 384.023H24.6025C23.1968 384.023 22.0574 382.882 22.0574 381.474V378.076V326.25C22.0574 324.842 20.9179 323.701 19.5123 323.701H11.877C10.4714 323.701 9.33197 324.842 9.33197 326.25V331.347C9.33197 332.755 8.1925 333.896 6.78689 333.896H2.54508C1.13947 333.896 0 332.755 0 331.347V323.701V302.461Z" fill="white"/>
<path fill-rule="evenodd" clip-rule="evenodd" d="M310.5 2.54883C310.5 1.14115 311.639 0 313.045 0H329.724C330.19 0 330.647 0.127936 331.045 0.369881L391.334 37.0129C391.732 37.2548 392.189 37.3828 392.654 37.3828H411.455C412.86 37.3828 414 38.5239 414 39.9316V55.2246V67.9687C414 69.3764 412.86 70.5175 411.455 70.5175H394.649C394 70.5175 393.376 70.7653 392.904 71.2103L379.217 84.1113L370.534 93.185C369.875 93.8738 368.887 94.1363 367.974 93.8652L335.456 84.2163C335.222 84.1466 334.978 84.1113 334.733 84.1113H320.68C319.275 84.1113 318.135 85.2524 318.135 86.6601V95.1562C318.135 96.5639 316.996 97.705 315.59 97.705H294.381C292.975 97.705 291.836 96.5639 291.836 95.1562V84.1113V71.6898C291.836 70.9458 292.161 70.2388 292.725 69.7546L309.478 55.3739C309.59 55.2775 309.733 55.2246 309.881 55.2246V55.2246C310.223 55.2246 310.5 54.9469 310.5 54.6044V37.3828V2.54883Z" fill="#00AD8E"/>
<path fill-rule="evenodd" clip-rule="evenodd" d="M377.455 82.3362L391.189 69.3911C392.125 68.5092 393.362 68.0175 394.649 68.0175H411.455C411.465 68.0175 411.469 68.016 411.47 68.0153C411.474 68.0138 411.479 68.0106 411.485 68.0045C411.491 67.9985 411.495 67.9924 411.497 67.9882C411.498 67.9855 411.5 67.9806 411.5 67.9687V39.9316C411.5 39.9197 411.498 39.9148 411.497 39.9122C411.496 39.9095 411.494 39.9063 411.491 39.9027C411.49 39.9005 411.488 39.8981 411.485 39.8958C411.479 39.8897 411.474 39.8865 411.47 39.8851C411.469 39.8844 411.465 39.8828 411.455 39.8828H392.654C391.731 39.8828 390.825 39.629 390.035 39.1493L329.746 2.50624C329.74 2.50205 329.732 2.5 329.724 2.5H313.045C313.035 2.5 313.031 2.50159 313.029 2.5023C313.026 2.50371 313.02 2.50693 313.014 2.513C313.008 2.51907 313.005 2.52509 313.003 2.52937C313.002 2.532 313 2.53695 313 2.54883V54.6044C313 56.0394 312.03 57.2521 310.706 57.6143L294.353 71.6516C294.343 71.6604 294.336 71.6742 294.336 71.6898V95.1562C294.336 95.1681 294.338 95.173 294.339 95.1756C294.341 95.1799 294.344 95.1859 294.35 95.192C294.357 95.1981 294.362 95.2013 294.365 95.2027C294.367 95.2034 294.371 95.205 294.381 95.205H315.59C315.6 95.205 315.604 95.2034 315.606 95.2027C315.609 95.2013 315.615 95.1981 315.621 95.192C315.627 95.1859 315.63 95.1799 315.632 95.1756C315.633 95.1745 315.633 95.173 315.634 95.1708C315.634 95.1676 315.635 95.1631 315.635 95.1562V86.6601C315.635 83.8752 317.89 81.6113 320.68 81.6113H334.733C335.219 81.6113 335.702 81.6814 336.167 81.8196L368.685 91.4685C368.699 91.4729 368.716 91.4691 368.728 91.4565L377.455 82.3362ZM379.217 84.1113L392.904 71.2103C393.376 70.7653 394 70.5175 394.649 70.5175H411.455C412.86 70.5175 414 69.3764 414 67.9687V39.9316C414 38.5239 412.86 37.3828 411.455 37.3828H392.654C392.189 37.3828 391.732 37.2548 391.334 37.0129L331.045 0.369881C330.647 0.127936 330.19 0 329.724 0H313.045C311.639 0 310.5 1.14115 310.5 2.54883V54.6044C310.5 54.9469 310.223 55.2246 309.881 55.2246C309.733 55.2246 309.59 55.2775 309.478 55.3739L292.725 69.7546C292.161 70.2388 291.836 70.9458 291.836 71.6898V95.1562C291.836 96.5639 292.975 97.705 294.381 97.705H315.59C316.996 97.705 318.135 96.5639 318.135 95.1562V86.6601C318.135 85.2524 319.275 84.1113 320.68 84.1113H334.733C334.978 84.1113 335.222 84.1466 335.456 84.2163L367.974 93.8652C368.887 94.1363 369.875 93.8738 370.534 93.185L379.217 84.1113Z" fill="#009378"/>
<path d="M344.481 176.085L345.458 176.864L344.481 176.085C344.235 176.393 344.101 176.775 344.099 177.169L344.035 194.75H324C323.586 194.75 323.25 194.414 323.25 194V162.5C323.25 162.086 323.586 161.75 324 161.75H351.67V167.063L344.481 176.085Z" fill="#00AD8E" stroke="#009378" stroke-width="2.5"/>
<path d="M344.03 261.502L344.03 261.588L344.042 261.673L346.55 279.587V301.25H331.25V297C331.25 294.653 329.347 292.75 327 292.75H324.75V248C324.75 247.586 325.086 247.25 325.5 247.25H344.002L344.03 261.502Z" fill="#F09E00" stroke="#CB8600" stroke-width="2.5"/>
<path d="M321.421 295.25C321.369 295.387 321.33 295.513 321.301 295.618C321.24 295.829 321.201 296.017 321.176 296.154C321.164 296.222 321.155 296.28 321.149 296.322C321.146 296.344 321.143 296.361 321.142 296.375L321.139 296.393L321.139 296.399L321.138 296.402L321.138 296.403L321.138 296.403C321.138 296.404 321.138 296.404 322.38 296.546L321.138 296.404L321.13 296.475V296.546V305.55C321.13 305.964 320.794 306.3 320.38 306.3H301.6V295.25H321.421Z" fill="#B7C500" stroke="#9DA711" stroke-width="2.5"/>
<path d="M301.6 281.25H322.25V292.75H301.6V281.25Z" fill="#E33979" stroke="#BD275F" stroke-width="2.5"/>
<path d="M257.25 291V319.75H230.5C230.086 319.75 229.75 319.414 229.75 319V314.914C229.75 314.327 229.504 313.624 228.842 313.2C228.447 312.947 227.826 312.624 226.895 312.314C226.064 312.037 224.87 311.774 223.933 311.587C223.454 311.491 223.024 311.411 222.713 311.356C222.558 311.328 222.432 311.306 222.344 311.291L222.243 311.273L222.216 311.269L222.208 311.268L222.206 311.267L222.206 311.267L222.206 311.267C222.206 311.267 222.205 311.267 222 312.5L222.205 311.267L222.103 311.25H222C221.586 311.25 221.25 310.914 221.25 310.5V291C221.25 290.586 221.586 290.25 222 290.25H256.5C256.914 290.25 257.25 290.586 257.25 291Z" fill="#119EED" stroke="#108CD2" stroke-width="2.5"/>
<path d="M173.7 298.75H149.75V259.25H184.25V284C184.25 285.795 185.705 287.25 187.5 287.25H194C194.414 287.25 194.75 287.586 194.75 288V322.5C194.75 322.914 194.414 323.25 194 323.25H177.95V303C177.95 300.653 176.047 298.75 173.7 298.75Z" fill="#87CE2E" stroke="#65B005" stroke-width="2.5"/>
<path d="M293 263.25H322.25V278.75H293C292.586 278.75 292.25 278.414 292.25 278V264C292.25 263.586 292.586 263.25 293 263.25Z" fill="#B178E2" stroke="#8E57BE" stroke-width="2.5"/>
</svg>
