<svg width="130" height="80" viewBox="0 0 130 80" fill="none" xmlns="http://www.w3.org/2000/svg">
<mask id="mask0_1621_24981" style="mask-type:alpha" maskUnits="userSpaceOnUse" x="0" y="0" width="130" height="80">
<rect width="130" height="80" fill="#D9D9D9"/>
</mask>
<g mask="url(#mask0_1621_24981)">
<path d="M60.7674 80.4449C60.4308 78.2316 59.92 76.0577 58.8614 74.0578C58.3731 73.1276 57.7719 72.2611 57.0714 71.4779C56.3555 70.71 55.5187 70.0642 54.5942 69.5662C52.0899 68.1097 49.1489 67.4807 46.3495 66.8784C45.3254 68.8737 44.2458 70.9429 42.6527 72.6679C41.875 71.9626 39.3704 69.2871 39.2722 69.1732C39.1448 69.0254 39.126 68.6489 39.3419 68.5444L38.3392 68.5795C38.5616 68.6686 38.5688 69.0456 38.4522 69.2017C38.3622 69.3224 36.0505 72.1658 35.3238 72.9235C33.6323 71.3313 32.4188 69.3669 31.2689 67.4677C26.2725 68.9989 23.8218 69.8947 21.5743 71.4454C20.0118 72.5219 19.0692 73.9349 18.2474 75.9626C17.7854 77.6168 17.4487 79.0668 17.1934 80.4449" fill="white"/>
<path d="M42.6508 72.667C44.2237 70.9643 45.2959 68.9252 46.3083 66.9543C45.7855 66.1014 45.1177 65.3463 44.3349 64.7229C42.9196 66.2929 41.2261 67.588 39.3397 68.5429C39.1243 68.6473 39.1431 69.0238 39.2701 69.1716C39.3688 69.2853 41.8733 71.9617 42.6508 72.667Z" fill="white"/>
<path d="M50.0933 43.0722C50.7865 45.3174 50.8695 47.7065 50.3338 49.9944L50.2945 50.1728C50.4873 50.2134 50.6697 50.2928 50.8308 50.4062C50.9918 50.5196 51.128 50.6646 51.2311 50.8324C51.7288 51.623 51.7665 53.1139 51.4886 54.0477C51.2919 54.7092 50.9671 55.7219 50.1188 56.4717C49.9321 56.6394 49.7127 56.7666 49.4743 56.8454C49.236 56.9241 48.9839 56.9527 48.734 56.9292L48.5988 56.9116C48.4841 57.3622 48.34 57.8048 48.1675 58.2366C47.8503 59.211 46.0316 62.6384 43.6148 64.069C43.6148 64.0922 43.6148 64.1063 43.6148 64.1063V65.4707C42.3601 66.7126 40.9176 67.7492 39.3402 68.5427L38.3375 68.5777C36.3891 67.7564 34.6094 66.5822 33.0881 65.1144C33.0881 65.1144 33.0881 64.6415 33.0881 64.1383C32.1751 63.5831 31.3529 62.8909 30.6504 62.086C29.5098 60.8117 28.6423 59.3177 28.1012 57.6958C27.8387 57.7619 27.5645 57.7673 27.2995 57.7117C27.0346 57.6562 26.7857 57.541 26.572 57.3749C25.6686 56.6924 25.2668 55.7075 25.02 55.0632C24.6717 54.1533 24.5944 52.664 25.0297 51.8383C25.2028 51.5009 25.5016 51.245 25.8618 51.1259L25.8051 50.9379C25.4077 49.6567 25.1994 48.3243 25.1869 46.9829C25.1655 45.0463 25.5902 43.1307 26.4283 41.3845C27.2663 39.6382 28.4952 38.108 30.0198 36.9123C32.135 35.2307 34.7429 34.2874 37.4451 34.2264C40.1437 34.0793 42.8162 34.8192 45.0544 36.333C47.4547 37.9386 49.2328 40.3168 50.0933 43.0722Z" fill="white"/>
<path d="M104.131 52.8883C104.291 52.757 104.476 52.6586 104.674 52.5988C104.872 52.5391 105.08 52.5192 105.286 52.5403C105.549 52.5471 105.805 52.625 106.027 52.7658C106.25 52.9066 106.429 53.105 106.548 53.3398C106.946 54.1333 106.845 55.5469 106.497 56.4051C106.25 57.0127 105.85 57.9409 104.978 58.5725C104.787 58.714 104.567 58.8143 104.335 58.867C104.102 58.9198 103.861 58.9237 103.627 58.8787L103.501 58.8497C103.351 59.2654 103.174 59.6709 102.971 60.0636C102.636 60.8308 101.085 63.2137 99.1191 64.586C99.1224 64.9835 99.1161 65.2092 99.1588 65.7948C99.1668 66.1115 99.2204 66.4255 99.3178 66.727C99.4521 67.1139 99.6883 67.4575 100.002 67.7216C100.696 68.281 101.411 68.548 102.29 68.8788L103.093 69.1946C100.262 70.6157 97.1487 71.386 93.9811 71.4492C90.9166 71.4613 86.8967 70.4052 84.7431 69.2018L85.5662 68.8784C86.4461 68.5489 87.1588 68.2798 87.853 67.7207C88.2177 67.471 88.5631 67.1941 88.8861 66.8924C89.32 66.4075 89.4686 65.7929 89.5935 65.061C88.2397 64.5164 87.097 63.5172 86.0479 62.1027C85.0857 60.7934 84.4019 59.3011 84.0388 57.7178C83.7843 57.7562 83.5244 57.7362 83.2789 57.6593C83.0333 57.5824 82.8084 57.4506 82.6214 57.2739C81.8293 56.5457 81.5395 55.5773 81.365 54.9451C81.1186 54.0525 81.1822 52.6368 81.67 51.8947C81.8147 51.6749 82.0164 51.4986 82.2535 51.3844C82.4907 51.2703 82.7544 51.2227 83.0166 51.2467C83.2236 51.2496 83.4279 51.2934 83.6179 51.3757C83.8079 51.4579 83.9796 51.577 84.1233 51.726C84.1233 51.726 82.9423 42.0112 94.0157 42.0112C105.089 42.0112 104.131 52.8883 104.131 52.8883Z" fill="white"/>
<path d="M85.666 18.4187C85.666 17.0267 85.666 15.1168 85.666 13.2696C85.666 13.2696 102.087 7.17362 107.223 5.27002C109.498 7.50145 112.134 10.0755 114.057 11.9947C114.057 13.332 114.057 16.3455 114.057 17.422C108.869 19.4209 98.2248 23.3432 92.7101 25.345C90.4887 23.182 85.8527 18.6103 85.666 18.4187Z" fill="white"/>
<path d="M75.9812 20.2593V26.548H54.1953V20.2593H75.9812Z" fill="white"/>
<path d="M73.6541 17.0552V20.2599H56.5254V17.0552H73.6541Z" fill="white"/>
<path d="M71.3869 0.556641V17.055H58.7891C58.7891 15.27 58.8522 2.95511 58.8522 0.556641H71.3869Z" fill="white"/>
<path d="M112.002 80.4449C112.021 79.9693 112.032 79.4983 112.042 79.0389C112.039 75.3663 110.825 73.4638 109.207 72.0741C107.706 70.5988 105.879 69.7541 103.482 68.9871C100.554 70.5427 97.3003 71.3865 93.9847 71.4498C90.8089 71.4623 86.6096 70.3278 84.5215 69.0717C81.4119 70.1076 78.3729 70.8668 76.5474 73.6139C75.8552 74.7368 75.3061 75.9418 74.913 77.2007C74.6228 78.2494 74.3581 79.3143 74.1445 80.4442L112.002 80.4449Z" fill="white"/>
<path d="M17.8926 20.4626V11.6329L28.8523 0.680664L39.8119 11.6329V26.0743H17.8926V20.4626Z" fill="white"/>
<path d="M103.449 58.8372C103.357 58.6625 103.22 58.516 103.051 58.4134C102.883 58.3108 102.69 58.256 102.492 58.2549C101.778 58.3245 101.564 58.7869 101.482 59.2196C101.449 59.3892 101.412 59.6478 101.389 59.8546L101.374 59.8362C101.266 59.6857 101.122 59.5638 100.957 59.4812C100.791 59.3986 100.607 59.3578 100.422 59.3622C99.8806 59.4124 99.5308 59.8214 99.4015 60.4626C99.2062 61.448 98.8064 63.0985 98.4605 64.3884C98.4805 63.9425 98.4918 63.5265 98.5055 63.0251C98.5098 62.8 98.4682 62.5764 98.3832 62.3679C98.346 62.2728 98.2869 62.1878 98.2107 62.1198C98.1345 62.0518 98.0434 62.0027 97.9446 61.9765C97.7799 61.9536 97.612 61.9809 97.463 62.0546C97.3139 62.1284 97.1905 62.2453 97.1089 62.3901C96.9751 62.6976 96.8934 63.025 96.8672 63.3592C96.7475 64.3056 96.5202 65.2352 96.1897 66.1301C95.5209 67.7091 93.5874 69.7262 93.346 71.011C93.2113 71.7277 93.3288 72.3102 93.4242 72.9436C93.521 73.5844 93.7235 74.2772 93.7546 75.0825C93.8242 76.1425 93.8734 76.9153 93.9187 77.7665C95.935 77.3262 97.947 76.8655 99.9549 76.3845C99.6253 75.5105 99.3843 74.6461 99.4465 74.0644C99.4582 72.9026 99.8449 71.7756 100.549 70.8511C100.803 70.4983 101.035 70.1783 101.25 69.8654C101.53 69.4657 101.786 69.0496 102.016 68.6193C102.132 68.3993 102.241 68.1701 102.345 67.9232C103.039 65.6749 103.462 61.8343 103.561 59.8304C103.609 59.4952 103.57 59.1533 103.449 58.8372Z" fill="white"/>
<path d="M29.7394 67.8043C29.9862 66.9496 30.3946 66.1502 30.9425 65.4492C31.3817 64.8425 31.887 64.2864 32.4492 63.7913C32.8339 63.4493 33.6414 63.0695 34.6648 62.9415C35.863 62.7837 37.0742 62.7477 38.2798 62.834C38.5288 62.8445 38.7642 62.9504 38.9371 63.1297C39.11 63.309 39.2072 63.548 39.2084 63.7971C39.1959 64.0137 39.1093 64.2195 38.9632 64.38C38.8171 64.5404 38.6202 64.6459 38.4056 64.6787C37.8556 64.7639 37.0967 64.788 36.1826 64.9539C35.1379 65.1436 35.1084 65.2406 34.5933 65.7195L34.5454 65.7909C35.5725 65.7701 36.7951 65.8299 37.3374 66.0772C37.5412 66.17 38.283 66.6013 38.4671 66.7287C39.3335 67.3275 39.7849 67.7632 40.0542 68.3219C40.1581 68.6313 40.139 68.9688 40.001 69.2645C39.8942 69.481 39.5344 69.7654 38.9672 69.5877C39.1263 69.7318 39.2435 69.9161 39.3065 70.1212C39.3695 70.3263 39.376 70.5446 39.3252 70.7531C39.2557 70.9783 39.1178 71.1764 38.9306 71.3197C38.7434 71.4631 38.5162 71.5446 38.2805 71.553C38.5101 71.7704 38.3847 72.3511 38.2057 72.6022C38.0186 72.8648 37.4872 72.8861 37.2074 72.7864C36.9732 72.691 36.7318 72.6146 36.4854 72.5578C36.4701 72.6381 36.4622 72.6838 36.4622 72.6838C36.4074 72.9683 36.2959 73.6281 36.2049 73.9035C35.9475 74.7044 35.5781 75.5918 34.8456 76.0217C34.48 76.1907 34.106 76.3411 33.7252 76.4722C33.4085 76.6205 33.1269 77.345 32.9591 77.8541C32.9582 77.8567 32.9568 77.8591 32.9549 77.8611C32.9531 77.8632 32.9509 77.8649 32.9484 77.8661C32.9459 77.8673 32.9432 77.868 32.9405 77.8682C32.9377 77.8683 32.935 77.868 32.9324 77.867C31.3416 77.3448 29.4785 76.707 27.9873 76.2268C27.963 76.2189 27.9405 76.2062 27.9212 76.1895C27.9019 76.1727 27.8861 76.1523 27.8749 76.1293C27.8636 76.1064 27.8571 76.0814 27.8557 76.0559C27.8544 76.0304 27.8581 76.0049 27.8668 75.9809C28.1115 75.2939 28.2708 74.9236 28.4219 74.4677C28.6345 73.7067 28.8055 72.9347 28.9343 72.1551C29.2361 70.1134 29.329 69.3102 29.5967 68.2876C29.6424 68.1168 29.6909 67.956 29.7394 67.8043Z" fill="white"/>
<path d="M102.654 47.9962C102.226 47.1574 101.68 46.384 101.034 45.6994L99.3905 44.2672C98.369 45.4773 96.8386 46.252 95.4401 46.7265C93.6181 47.3457 92.4155 47.1104 90.5087 46.532C90.0569 46.7316 89.5784 46.8977 89.164 47.0327C88.2326 47.3364 87.1721 47.4387 86.3068 47.8976C85.6057 48.3077 85.0649 48.9437 84.7729 49.7012C84.5812 50.1511 84.2545 51.2675 84.1229 51.7243C83.9792 51.5753 83.8074 51.4563 83.6175 51.374C83.4275 51.2917 83.2231 51.2479 83.0161 51.245C82.8565 51.2401 82.6968 51.2553 82.5409 51.2902C82.1718 50.0215 82.0077 48.7021 82.0548 47.3816C82.2941 43.1624 84.2543 40.3721 86.3556 39.2459C88.3289 36.8138 91.6721 35.509 95.0981 35.88C97.2568 36.1093 99.3133 36.9178 101.05 38.22L103.071 40.002C105.045 41.7402 106.496 44.6897 106.432 48.7199C106.403 50.0526 106.164 51.3725 105.726 52.6315C105.583 52.5844 105.435 52.5541 105.285 52.5412C105.079 52.5201 104.871 52.54 104.672 52.5997C104.474 52.6594 104.29 52.7578 104.13 52.8892L103.716 53.2426L103.678 52.1204C103.643 50.6872 103.294 49.2792 102.654 47.9962Z" fill="#65B005"/>
<path d="M99.6312 8.51009L99.3385 8.22217C97.7098 8.82654 96.0185 9.4518 94.3574 10.0654C96.7389 12.3669 99.2398 14.7192 101.508 16.9729V22.1223C103.108 21.5318 104.737 20.9284 106.308 20.3433V15.0802C104.19 12.9367 101.864 10.7037 99.6312 8.51009Z" fill="#65B005"/>
<path d="M34.9457 15.1909H29.8047V19.7962H34.9457V15.1909Z" fill="#65B005"/>
<path d="M27.1812 51.1581C26.9272 51.0494 26.6507 51.0033 26.3751 51.0235C26.2012 51.0348 26.0295 51.0688 25.8644 51.1247C25.4305 49.786 25.2026 48.3893 25.1883 46.9822C25.1571 44.2691 26.0044 41.6187 27.604 39.4263C27.9018 40.1766 29.1295 40.8213 29.7399 41.2489C30.571 41.8303 30.4621 42.6472 30.0398 43.4323C29.3683 44.6818 28.828 45.9974 28.4275 47.3581C28.0344 48.6914 27.8647 50.0651 27.5819 51.4126C27.4626 51.3072 27.3274 51.2213 27.1812 51.1581Z" fill="#65B005"/>
<path d="M48.9174 50.389C48.7904 50.4712 48.6768 50.5722 48.5803 50.6886C48.1819 49.3429 47.907 47.9565 47.402 46.631C46.8981 45.3051 46.2584 44.0347 45.493 42.8403C45.0117 42.0898 44.8401 41.2838 45.6244 40.6404C46.2203 40.1514 47.4538 39.3811 47.6358 38.5828C49.1528 40.3247 50.3786 42.7389 50.6426 46.0053C50.7468 47.404 50.631 48.8104 50.2994 50.1733C50.1452 50.1386 49.9874 50.1218 49.8293 50.1234C49.5063 50.124 49.1901 50.2161 48.9174 50.389Z" fill="#65B005"/>
<path d="M91.7756 15.5726C91.3152 15.7415 91.2358 16.077 91.516 16.332C91.6951 16.4797 91.9111 16.5757 92.1408 16.6096C92.3705 16.6435 92.605 16.614 92.8192 16.5243C93.3028 16.344 93.3866 16.0522 93.0657 15.7587C92.8838 15.6215 92.6702 15.5325 92.4446 15.4999C92.219 15.4674 91.9889 15.4924 91.7756 15.5726Z" fill="#726A69"/>
<path d="M93.6919 14.8688C93.2389 15.0352 93.1616 15.3672 93.4381 15.6205C93.6138 15.7673 93.8264 15.863 94.0527 15.8972C94.2791 15.9315 94.5105 15.9029 94.7218 15.8147C95.1975 15.6375 95.2789 15.3484 94.9627 15.0568C94.7841 14.9205 94.5738 14.8318 94.3516 14.799C94.1293 14.7661 93.9023 14.7901 93.6919 14.8688Z" fill="#726A69"/>
<path d="M95.5792 14.1756C95.1334 14.3392 95.058 14.6682 95.331 14.9199C95.5034 15.0656 95.7126 15.161 95.9356 15.1955C96.1587 15.2301 96.387 15.2025 96.5954 15.1157C97.0636 14.9413 97.1435 14.6552 96.831 14.3654C96.6558 14.23 96.4488 14.1414 96.2297 14.1082C96.0107 14.075 95.7868 14.0982 95.5792 14.1756Z" fill="#726A69"/>
<path d="M106.937 12.4636C106.853 12.3756 106.806 12.2599 106.802 12.1388C106.799 12.0177 106.841 11.8996 106.919 11.8073C107.182 11.4247 106.82 11.009 106.438 10.9695C106.067 10.931 105.593 10.8036 105.38 10.4698C105.36 10.4393 105.342 10.4074 105.326 10.3742C105.319 10.3582 105.286 10.215 105.292 10.2642C105.287 10.2253 105.293 10.1859 105.307 10.1496C105.359 10.0373 105.447 9.94519 105.556 9.88721C105.997 9.65971 106.51 9.61414 106.985 9.76031C107.217 9.81777 107.423 9.95201 107.57 10.1413C107.716 10.3305 107.795 10.5637 107.792 10.8029C107.794 10.9499 107.854 11.0901 107.958 11.194C108.062 11.2979 108.202 11.3573 108.349 11.3598C109.191 11.3551 109.917 11.4294 110.62 11.9286C110.748 12.002 110.9 12.0222 111.043 11.9849C111.185 11.9475 111.307 11.8555 111.383 11.7289C111.454 11.6007 111.473 11.4498 111.436 11.3079C111.399 11.1659 111.308 11.0438 111.183 10.9672C110.33 10.364 109.369 10.2403 108.349 10.2461L108.906 10.8029C108.904 10.3359 108.754 9.8816 108.477 9.50567C108.2 9.12974 107.81 8.85173 107.364 8.71187C106.586 8.45528 105.555 8.52465 104.874 9.00467C104.562 9.20434 104.336 9.51389 104.242 9.87194C104.148 10.23 104.191 10.6104 104.365 10.9377C104.762 11.7047 105.633 11.9996 106.438 12.0831L105.957 11.2451C105.752 11.55 105.659 11.9166 105.694 12.2824C105.729 12.6482 105.89 12.9905 106.149 13.2511C106.674 13.7383 107.464 12.9525 106.937 12.4636Z" fill="#726A69"/>
<path d="M90.8943 12.7202C90.3083 12.9225 89.7186 13.1146 89.1338 13.32C88.9955 13.3618 88.8771 13.4525 88.8008 13.5752C88.7449 13.6708 88.7187 13.7809 88.7257 13.8915C88.7327 14.002 88.7725 14.108 88.8401 14.1958C88.9077 14.2836 88.9999 14.3492 89.1051 14.3844C89.2102 14.4195 89.3234 14.4225 89.4302 14.393C90.0148 14.1867 90.6045 13.9958 91.1905 13.7933C91.3289 13.7517 91.4474 13.6609 91.5234 13.5381C91.5793 13.4425 91.6055 13.3324 91.5985 13.2219C91.5915 13.1113 91.5517 13.0054 91.4841 12.9176C91.4166 12.8298 91.3244 12.7642 91.2193 12.729C91.1142 12.6938 91.0011 12.6908 90.8943 12.7202Z" fill="#726A69"/>
<path d="M87.1973 15.3727L92.4307 20.5213C92.5001 20.5914 92.5869 20.6416 92.6822 20.6668C92.7775 20.6921 92.8779 20.6913 92.9728 20.6647C95.8105 19.6724 98.6364 18.6463 101.46 17.6164C101.601 17.5738 101.72 17.479 101.792 17.3515C101.864 17.224 101.885 17.0735 101.85 16.9313C101.809 16.7896 101.715 16.6694 101.587 16.5966C101.458 16.5239 101.307 16.5044 101.164 16.5424C98.3402 17.5725 95.5143 18.5987 92.6766 19.5908L93.2187 19.7339L87.9853 14.5852C87.4745 14.082 86.6852 14.869 87.1973 15.3727Z" fill="#726A69"/>
<path d="M98.9903 8.66069C101.299 10.9313 103.638 13.1711 105.915 15.4735L105.753 15.0791V20.2985C105.753 21.015 106.867 21.0161 106.867 20.2985V16.537C106.867 16.0568 106.895 15.5673 106.867 15.0875C106.849 14.7703 106.608 14.5882 106.4 14.3789C106.091 14.0688 105.782 13.7595 105.471 13.4509C104.905 12.8884 104.336 12.328 103.765 11.7698C102.438 10.4706 101.103 9.1762 99.7782 7.8721C99.2675 7.36888 98.4781 8.15585 98.9903 8.65953V8.66069Z" fill="#726A69"/>
<path d="M94.02 10.5145C96.3843 12.7981 98.7793 15.0502 101.112 17.3665L100.95 16.9721V22.0368C100.95 22.7532 102.064 22.7544 102.064 22.0368V18.3029C102.064 17.8621 102.091 17.4131 102.064 16.9737C102.041 16.6025 101.683 16.3624 101.437 16.1204C101.137 15.8244 100.836 15.5292 100.534 15.2351C99.9596 14.6752 99.3832 14.1176 98.8046 13.5623C97.4734 12.2828 96.1362 11.0102 94.8082 9.72703C94.2923 9.22868 93.5032 10.0152 94.0202 10.5145H94.02Z" fill="#726A69"/>
<path d="M112.333 12.3204C110.325 13.1012 108.313 13.8705 106.296 14.6284C106.156 14.6712 106.038 14.766 105.965 14.8935C105.893 15.0209 105.872 15.1713 105.907 15.3135C105.948 15.4553 106.042 15.5755 106.17 15.6483C106.299 15.721 106.45 15.7405 106.593 15.7024C108.608 14.9405 110.62 14.1711 112.629 13.3942C112.769 13.3513 112.888 13.2565 112.96 13.1291C113.032 13.0018 113.053 12.8515 113.018 12.7093C112.978 12.5674 112.884 12.4471 112.755 12.3744C112.627 12.3016 112.475 12.2822 112.333 12.3204Z" fill="#726A69"/>
<path d="M86.2249 18.4184C86.2249 16.7015 86.2249 14.9852 86.2249 13.2693L85.8158 13.8061C87.7618 13.0681 89.7145 12.3473 91.6645 11.6192C95.3196 10.2546 98.9769 8.89495 102.636 7.54035C104.213 6.95801 105.791 6.37568 107.372 5.80657L106.83 5.66342C109.152 7.85935 111.463 10.0715 113.664 12.3881L113.521 12.1424C113.488 12.0649 113.509 12.0148 113.503 12.1303C113.5 12.1779 113.503 12.2271 113.504 12.2746C113.504 12.3687 113.505 12.4627 113.506 12.5568C113.507 12.7801 113.508 13.0037 113.509 13.2275C113.51 13.7463 113.51 14.2651 113.509 14.784C113.509 15.6633 113.506 16.5432 113.501 17.4235L113.577 17.1424V17.1437L113.91 16.8885C111.277 17.9024 108.634 18.8884 105.991 19.8721C102.937 21.0083 99.88 22.1367 96.8201 23.2573C95.4011 23.7773 93.9816 24.2955 92.5616 24.8117L93.1036 24.9549C90.7442 22.658 88.3543 20.3893 86.0612 18.0268C85.5609 17.5112 84.7734 18.2991 85.2733 18.8142C87.5663 21.1767 89.9562 23.4466 92.3157 25.7423C92.385 25.8124 92.4718 25.8627 92.5672 25.8879C92.6625 25.9131 92.7629 25.9123 92.8578 25.8857C97.5136 24.1953 102.162 22.4846 106.803 20.7535C108.995 19.9359 111.184 19.1121 113.37 18.282L114.044 18.0233C114.431 17.8746 114.613 17.7122 114.616 17.2827C114.619 16.783 114.621 16.2832 114.622 15.7835C114.625 14.6142 114.628 13.4447 114.618 12.2756C114.628 12.1324 114.621 11.9885 114.595 11.8473C114.509 11.6531 114.377 11.4825 114.212 11.3499C113.937 11.0631 113.66 10.7781 113.381 10.4947C112.776 9.87865 112.166 9.2684 111.55 8.66395C110.253 7.38746 108.942 6.12512 107.618 4.87693C107.548 4.80703 107.461 4.75691 107.366 4.73175C107.271 4.70658 107.17 4.70729 107.075 4.73378C103.898 5.87641 100.734 7.05917 97.5681 8.23706C94.2487 9.47086 90.9305 10.7082 87.6135 11.9491C86.9151 12.2104 86.2156 12.4691 85.5184 12.7336C85.4026 12.7689 85.3007 12.8398 85.2273 12.9361C85.1539 13.0324 85.1127 13.1494 85.1094 13.2704C85.1094 14.9873 85.1094 16.7036 85.1094 18.4195C85.1105 19.1348 86.2249 19.136 86.2249 18.4184Z" fill="#726A69"/>
<path d="M92.3086 20.2387V23.0692C92.3086 23.2168 92.3673 23.3585 92.4718 23.4629C92.5763 23.5673 92.718 23.626 92.8658 23.626C93.0136 23.626 93.1553 23.5673 93.2598 23.4629C93.3643 23.3585 93.423 23.2168 93.423 23.0692V20.2387C93.423 20.091 93.3643 19.9494 93.2598 19.845C93.1553 19.7405 93.0136 19.6819 92.8658 19.6819C92.718 19.6819 92.5763 19.7405 92.4718 19.845C92.3673 19.9494 92.3086 20.091 92.3086 20.2387Z" fill="#726A69"/>
<path d="M59.3468 17.0559C59.3468 15.1604 59.36 13.2647 59.3684 11.369C59.38 8.69672 59.3915 6.0244 59.4028 3.35201C59.4062 2.42028 59.4088 1.48855 59.4106 0.556813L58.8535 1.11363H71.3867L70.8296 0.556813V17.0559C70.8296 17.7725 71.9439 17.7737 71.9439 17.0559V0.556813C71.9418 0.40979 71.8825 0.269379 71.7784 0.165407C71.6744 0.0614363 71.5339 0.0020985 71.3867 0L58.8535 0C58.7063 0.0020985 58.5658 0.0614363 58.4618 0.165407C58.3577 0.269379 58.2984 0.40979 58.2963 0.556813C58.2963 2.59846 58.2835 4.64011 58.2747 6.68175C58.2634 9.31316 58.2519 11.9446 58.2403 14.5762C58.2368 15.4031 58.2324 16.2299 58.2324 17.0568C58.2324 17.7735 59.3468 17.7746 59.3468 17.0568V17.0559Z" fill="#726A69"/>
<path d="M57.0812 20.2603V17.0558L56.524 17.6126H73.6534L73.0962 17.0558V20.2603C73.0962 20.9767 74.2106 20.9781 74.2106 20.2603V17.0558C74.2085 16.9088 74.1491 16.7684 74.0451 16.6644C73.941 16.5605 73.8005 16.5011 73.6534 16.499H56.524C56.3769 16.5011 56.2364 16.5605 56.1323 16.6644C56.0283 16.7684 55.9689 16.9088 55.9668 17.0558V20.2603C55.9668 20.9767 57.0812 20.9781 57.0812 20.2603Z" fill="#726A69"/>
<path d="M75.9824 19.7031H54.1959C54.0487 19.7052 53.9082 19.7645 53.8041 19.8685C53.7001 19.9725 53.6407 20.1129 53.6387 20.2599V26.5473C53.6408 26.6943 53.7002 26.8347 53.8042 26.9387C53.9082 27.0427 54.0487 27.102 54.1959 27.1041H75.9824C76.1296 27.102 76.2701 27.0427 76.3741 26.9387C76.4781 26.8347 76.5375 26.6943 76.5396 26.5473V20.2599C76.5396 19.5433 75.4252 19.5421 75.4252 20.2599V26.5473L75.9824 25.9905H54.1959L54.7531 26.5473V20.2599L54.1959 20.8167H75.9824C76.6996 20.8167 76.7008 19.7031 75.9824 19.7031Z" fill="#726A69"/>
<path d="M17.3347 11.8966V26.0743C17.3368 26.2213 17.3962 26.3617 17.5002 26.4657C17.6042 26.5696 17.7447 26.629 17.8919 26.6311H37.1049C37.9913 26.6311 38.8858 26.6663 39.7718 26.6311C39.785 26.6311 39.7982 26.6311 39.8112 26.6311C39.9584 26.629 40.0989 26.5696 40.2029 26.4657C40.307 26.3617 40.3663 26.2213 40.3684 26.0743V11.8966C40.3684 11.1802 39.2541 11.1791 39.2541 11.8966V26.0743L39.8112 25.5174H18.7859C18.5055 25.5174 18.2104 25.4912 17.9306 25.5174C17.9176 25.5174 17.9042 25.5174 17.8912 25.5174L18.4484 26.0743V11.8966C18.4484 11.1802 17.334 11.1791 17.334 11.8966H17.3347Z" fill="#726A69"/>
<path d="M89.0579 64.912C88.963 65.4598 88.8685 66.0704 88.4931 66.4992C88.2691 66.7255 88.0215 66.9272 87.7546 67.101C87.5018 67.3013 87.2383 67.4877 86.9652 67.6594C86.4634 67.9319 85.9399 68.1627 85.4002 68.3494C85.2547 68.4055 85.1096 68.4633 84.9645 68.5204L84.7258 68.6132C84.6162 68.6563 84.5206 68.6438 84.7432 68.6438C84.0263 68.6438 84.0251 69.7574 84.7432 69.7574C84.9088 69.738 85.0694 69.6882 85.217 69.6106C85.3796 69.547 85.5409 69.4821 85.7046 69.4196C86.3581 69.1973 86.9904 68.9168 87.5937 68.5814C87.8941 68.3991 88.162 68.1752 88.4455 67.9691C88.7681 67.7588 89.0647 67.5111 89.3293 67.2314C89.8197 66.6558 90.0072 65.9363 90.1335 65.2074C90.1686 65.0651 90.1478 64.9149 90.0755 64.7875C90.0031 64.6601 89.8846 64.5653 89.7444 64.5225C89.602 64.4844 89.4503 64.5038 89.3221 64.5766C89.1938 64.6493 89.0994 64.7696 89.0591 64.9113L89.0579 64.912Z" fill="#726A69"/>
<path d="M101.794 69.2853C102.14 69.4125 102.481 69.5489 102.824 69.6839C102.908 69.7248 103 69.7475 103.093 69.7507C103.241 69.7492 103.382 69.6911 103.488 69.5883C103.566 69.5105 103.62 69.4111 103.641 69.3029C103.663 69.1947 103.652 69.0826 103.61 68.9806C103.567 68.8787 103.496 68.7917 103.404 68.7305C103.312 68.6693 103.204 68.6368 103.093 68.6371H103.091L103.239 68.6571L102.464 68.3513C102.34 68.3026 102.215 68.2585 102.09 68.2121C102.018 68.1926 101.943 68.1875 101.87 68.1971C101.796 68.2068 101.725 68.2309 101.661 68.2682C101.533 68.3427 101.44 68.4648 101.403 68.6077C101.366 68.7505 101.386 68.9024 101.461 69.0299C101.539 69.1505 101.657 69.2406 101.794 69.2851V69.2853Z" fill="#726A69"/>
<path d="M84.5187 51.3319C84.2014 51.0204 83.7988 50.8099 83.3617 50.7273C82.9247 50.6447 82.473 50.6937 82.0638 50.8679C81.7716 51.007 81.5136 51.2088 81.3082 51.4588C81.1029 51.7088 80.9551 52.001 80.8756 52.3145C80.4256 53.7409 80.7184 55.4115 81.4592 56.6917C81.9737 57.5812 82.8353 58.3708 83.9306 58.29C84.0773 58.2865 84.217 58.2268 84.3207 58.1231C84.4245 58.0194 84.4843 57.8798 84.4878 57.7332C84.4866 57.5859 84.4275 57.445 84.3232 57.3408C84.219 57.2367 84.078 57.1776 83.9306 57.1764C83.0802 57.239 82.5397 56.4458 82.2277 55.7537C81.9614 55.1777 81.8115 54.5549 81.7866 53.9209C81.7732 53.5588 81.8069 53.1964 81.8869 52.843C81.9181 52.6993 81.9618 52.5587 82.0176 52.4226C82.0579 52.3371 82.1035 52.2541 82.1543 52.1744C82.1666 52.1537 82.2472 52.0563 82.1671 52.1512C82.2408 52.0515 82.3353 51.9691 82.444 51.9095C82.5527 51.85 82.673 51.8147 82.7967 51.8062C82.9661 51.7821 83.1387 51.7977 83.301 51.8518C83.4633 51.906 83.6107 51.9971 83.7316 52.118C84.2375 52.6284 85.0255 51.8396 84.5196 51.3305L84.5187 51.3319Z" fill="#726A69"/>
<path d="M104.525 53.282C104.666 53.1836 104.827 53.1198 104.998 53.0959C105.168 53.072 105.341 53.0886 105.503 53.1444C105.617 53.1817 105.725 53.235 105.824 53.3026C105.875 53.346 105.922 53.394 105.964 53.446C105.99 53.4769 105.987 53.4734 105.956 53.4354C105.974 53.4609 105.991 53.4871 106.007 53.5138C106.316 54.0755 106.296 54.8276 106.186 55.4436C106.064 56.1102 105.804 56.7441 105.423 57.3047C105.023 57.9121 104.425 58.4794 103.65 58.314C103.507 58.2791 103.357 58.3 103.23 58.3723C103.102 58.4446 103.007 58.5628 102.964 58.7028L102.939 58.7724C102.901 58.9147 102.92 59.0663 102.993 59.1944C103.066 59.3225 103.186 59.4169 103.328 59.4573C103.47 59.4935 103.621 59.4732 103.749 59.4007C103.877 59.3282 103.971 59.2092 104.013 59.0684L104.039 58.9988L103.354 59.3877C105.214 59.7851 106.378 58.1581 106.998 56.6384C107.297 55.8913 107.415 55.0844 107.343 54.2831C107.28 53.5855 107.079 52.8804 106.507 52.4319C106.105 52.1305 105.614 51.9729 105.111 51.9842C104.609 51.9956 104.125 52.1753 103.737 52.4946C103.633 52.5994 103.575 52.7409 103.575 52.8883C103.575 53.0357 103.633 53.1771 103.737 53.282C103.843 53.3832 103.984 53.4397 104.131 53.4397C104.278 53.4397 104.419 53.3832 104.525 53.282Z" fill="#726A69"/>
<path d="M83.3507 57.0863C83.604 58.6116 84.1367 60.0771 84.9222 61.4092C85.758 62.8191 86.8888 64.1445 88.2885 65.019C88.9946 65.4581 89.7727 65.7692 90.587 65.9382C91.2867 66.0836 91.5853 65.0102 90.8832 64.8642C89.1157 64.4967 87.7339 63.3836 86.6488 61.979C85.4905 60.459 84.7261 58.6765 84.4237 56.79C84.3835 56.6482 84.289 56.528 84.1608 56.4553C84.0326 56.3825 83.8808 56.3631 83.7384 56.4011C83.5978 56.4433 83.4788 56.5381 83.4064 56.6657C83.3339 56.7933 83.3134 56.944 83.3493 57.0863H83.3507Z" fill="#726A69"/>
<path d="M92.3241 61.0339C92.358 61.0186 92.3938 61.0042 92.4265 60.9875C92.4836 60.9599 92.2872 61.0415 92.371 61.0107C92.3961 61.0014 92.4207 60.991 92.4458 60.9817C92.5529 60.9419 92.6624 60.9087 92.7736 60.8824C92.8456 60.8655 92.9178 60.8529 92.9904 60.8395C93.0972 60.8195 92.924 60.8441 92.9981 60.8381C93.038 60.8348 93.078 60.8295 93.1179 60.8265C93.3248 60.8105 93.5325 60.809 93.7396 60.8218C93.838 60.8276 93.9367 60.8358 94.0345 60.8481C93.9258 60.8344 94.0918 60.8585 94.0988 60.8597C94.1396 60.8671 94.1803 60.8748 94.2209 60.8829C94.3683 60.9134 94.5131 60.9552 94.6541 61.0079C94.6715 61.0144 94.6887 61.0211 94.7059 61.0281C94.7456 61.0443 94.7291 61.0369 94.6536 61.0063C94.6697 61.0028 94.7145 61.0348 94.7282 61.0415C94.7764 61.0647 94.824 61.0912 94.8702 61.1193C94.906 61.1411 94.9399 61.1657 94.9749 61.1889C95.0513 61.2353 94.8733 61.0949 94.9301 61.1536C94.9427 61.1668 94.9589 61.1768 94.9726 61.1898C95.0773 61.2942 95.2192 61.3528 95.3671 61.3527C95.515 61.3525 95.6568 61.2937 95.7613 61.1891C95.8658 61.0845 95.9244 60.9427 95.9243 60.7949C95.9241 60.6471 95.8653 60.5054 95.7606 60.401C95.2208 59.9279 94.5013 59.7609 93.8014 59.711C93.1019 59.6553 92.3998 59.7791 91.7616 60.0706C91.6344 60.1455 91.5421 60.2676 91.5046 60.4103C91.4672 60.553 91.4877 60.7047 91.5617 60.8323C91.6391 60.9567 91.7613 61.0467 91.9031 61.0839C92.0449 61.121 92.1956 61.1025 92.3241 61.032V61.0339Z" fill="#726A69"/>
<path d="M93.4383 55.8491C93.3412 56.1475 93.2511 56.4496 93.1806 56.7554C93.147 56.8744 93.131 56.9978 93.133 57.1215C93.1365 57.2452 93.1702 57.3661 93.2311 57.4739C93.2921 57.5816 93.3784 57.6729 93.4826 57.7398C93.6356 57.8359 93.8101 57.8924 93.9904 57.9042C94.1018 57.9069 94.2131 57.8971 94.3223 57.875L94.1742 57.895C94.1905 57.8929 94.2065 57.891 94.2228 57.8899C94.3699 57.8863 94.5105 57.8285 94.6174 57.7275C94.7219 57.623 94.7806 57.4814 94.7806 57.3337C94.7806 57.1861 94.7219 57.0445 94.6174 56.94C94.5658 56.888 94.5043 56.8469 94.4365 56.819C94.3687 56.7911 94.2961 56.777 94.2228 56.7776C94.144 56.7837 94.066 56.7973 93.9878 56.8078L94.1359 56.7878C94.0877 56.7948 94.0389 56.7962 93.9904 56.792L94.1385 56.8117C94.096 56.8058 94.0545 56.7947 94.0147 56.7786L94.1478 56.8347C94.1068 56.8174 94.0679 56.7956 94.0317 56.7697L94.1445 56.857C94.136 56.8501 94.1282 56.8423 94.1213 56.8338L94.2086 56.9465C94.1995 56.9337 94.1917 56.9201 94.1854 56.9057L94.2416 57.0386C94.2361 57.0235 94.2319 57.008 94.229 56.9922L94.249 57.1403C94.2443 57.0992 94.245 57.0577 94.2511 57.0168L94.2311 57.1648C94.2643 56.9872 94.3083 56.8117 94.3627 56.6393C94.4092 56.4744 94.4593 56.3101 94.5125 56.147C94.5505 56.0047 94.531 55.8531 94.4582 55.7249C94.3853 55.5968 94.265 55.5024 94.1232 55.4622C93.9808 55.4262 93.83 55.4466 93.7023 55.5191C93.5747 55.5915 93.4799 55.7104 93.4378 55.851L93.4383 55.8491Z" fill="#726A69"/>
<path d="M88.6706 53.0078C88.4737 53.5361 88.5095 54.7801 89.5233 54.9446C90.8719 55.0142 91.0307 53.5229 90.618 52.793C90.2799 52.1954 89.2013 51.8924 88.6706 53.0078Z" fill="#726A69"/>
<path d="M99.4667 53.6353C99.6011 54.1828 99.4203 55.4141 98.3951 55.4603C97.0485 55.3737 97.0629 53.8733 97.5574 53.1961C97.9625 52.6416 99.0681 52.4651 99.4667 53.6353Z" fill="#726A69"/>
<path d="M86.0747 38.7672C82.9342 40.4722 81.4995 44.4189 81.4865 47.8171C81.4812 48.981 81.6375 50.14 81.9508 51.261C82.146 51.9493 83.2216 51.6568 83.0255 50.9649C82.5166 49.1313 82.4706 47.2003 82.8917 45.3446C83.2381 43.7902 83.8924 42.2617 84.968 41.0673C85.4407 40.5258 86.006 40.0726 86.6374 39.7287C87.2678 39.3865 86.7059 38.4246 86.0751 38.7672H86.0747Z" fill="#726A69"/>
<path d="M101.984 38.2363C100.369 36.9103 98.4646 35.9826 96.4244 35.5281C94.241 35.0495 91.9648 35.2263 89.8816 36.0362C88.744 36.4908 87.6972 37.1455 86.7908 37.9693C86.2608 38.4542 87.0504 39.2402 87.5788 38.7567C90.5393 36.0474 95.053 35.7478 98.6065 37.4111C99.5291 37.8475 100.398 38.3888 101.197 39.0242C101.304 39.1246 101.444 39.1804 101.591 39.1804C101.737 39.1804 101.878 39.1246 101.985 39.0242C102.089 38.9193 102.147 38.7779 102.147 38.6305C102.147 38.4831 102.089 38.3417 101.985 38.2368L101.984 38.2363Z" fill="#726A69"/>
<path d="M106.316 52.6143C106.944 50.63 107.13 48.5325 106.861 46.4689C106.654 44.7166 106.058 43.0326 105.118 41.5395C104.656 40.8253 104.101 40.1757 103.467 39.6078C102.933 39.1331 102.142 39.9178 102.679 40.3952C105.114 42.5587 106.005 45.9093 105.866 49.0748C105.797 50.1781 105.587 51.2681 105.242 52.3182C105.031 53.0047 106.106 53.2984 106.316 52.6143Z" fill="#726A69"/>
<path d="M100.642 46.093C102.171 47.7359 103.053 49.8768 103.124 52.1193C103.152 52.8337 104.266 52.8374 104.239 52.1193C104.159 49.5831 103.161 47.162 101.43 45.3056C100.942 44.7791 100.154 45.568 100.642 46.093H100.642Z" fill="#726A69"/>
<path d="M99.1516 43.6813C98.3639 44.7429 97.1483 45.4677 95.938 45.9531C95.2754 46.2435 94.5733 46.4341 93.8546 46.5185C93.1523 46.5616 92.4476 46.4905 91.7682 46.3078C91.0717 46.1384 90.7743 47.2126 91.4719 47.3817C92.2626 47.5966 93.0833 47.6798 93.901 47.6279C94.7329 47.538 95.5468 47.3245 96.3155 46.9943C97.793 46.3911 99.1525 45.5394 100.114 44.2434C100.188 44.1156 100.208 43.9641 100.171 43.8215C100.133 43.6789 100.041 43.5568 99.9143 43.4815C99.7859 43.4103 99.635 43.3913 99.493 43.4285C99.3509 43.4658 99.2288 43.5563 99.1518 43.6813H99.1516Z" fill="#726A69"/>
<path d="M93.5953 43.3735C93.0639 44.0176 92.4568 44.5954 91.7872 45.0945C91.4145 45.3884 91.0175 45.65 90.6004 45.8766C90.1698 46.0875 89.7245 46.2669 89.268 46.4137C88.318 46.735 87.3072 46.8575 86.3818 47.2524C85.4988 47.6424 84.7887 48.3413 84.3852 49.2177C84.0537 49.9809 83.7862 50.7703 83.5854 51.5777C83.3848 52.2672 84.4599 52.5619 84.6598 51.8737C85.0635 50.4845 85.4009 48.8284 86.903 48.2336C87.8161 47.8721 88.8106 47.7517 89.7386 47.4278C90.6468 47.1217 91.5024 46.6777 92.2754 46.1114C93.0555 45.5501 93.7635 44.895 94.3835 44.161C94.4842 44.0546 94.5403 43.9137 94.5403 43.7672C94.5403 43.6208 94.4842 43.4799 94.3835 43.3735C94.2784 43.2701 94.1369 43.2122 93.9895 43.2122C93.8421 43.2122 93.7005 43.2701 93.5955 43.3735H93.5953Z" fill="#726A69"/>
<path d="M99.3636 51.6565C99.5182 51.8723 99.6919 52.0738 99.8825 52.2586C99.9938 52.3634 100.112 52.4611 100.235 52.5512C100.345 52.6295 100.464 52.6925 100.591 52.7384C100.663 52.7615 100.739 52.7649 100.813 52.7484C100.887 52.7451 100.958 52.7223 101.02 52.6822C101.083 52.6453 101.139 52.5964 101.183 52.5381C101.227 52.4798 101.259 52.4134 101.278 52.3427C101.297 52.2719 101.301 52.1982 101.291 52.1257C101.281 52.0533 101.257 51.9835 101.22 51.9203L101.133 51.8076C101.065 51.7394 100.98 51.6901 100.887 51.6644L100.871 51.6579L101.004 51.7141C100.92 51.6752 100.841 51.626 100.769 51.5677L100.881 51.6547C100.659 51.477 100.459 51.2724 100.286 51.0454L100.373 51.1582C100.357 51.1371 100.341 51.116 100.326 51.0946C100.248 50.9736 100.13 50.8834 99.9927 50.8394C99.8478 50.8009 99.6936 50.8211 99.5635 50.8956C99.4385 50.9693 99.347 51.0885 99.3081 51.2283C99.2876 51.2998 99.2821 51.3748 99.2917 51.4486C99.3014 51.5224 99.3261 51.5934 99.3643 51.6572L99.3636 51.6565Z" fill="#726A69"/>
<path d="M90.0671 58.8839C89.8445 59.2227 89.6646 59.5877 89.5318 59.9706C89.5023 60.0774 89.5054 60.1905 89.5406 60.2955C89.5757 60.4005 89.6415 60.4926 89.7293 60.5601C89.8172 60.6276 89.9231 60.6674 90.0337 60.6744C90.1443 60.6814 90.2545 60.6552 90.3501 60.5994L90.463 60.5123C90.5313 60.4443 90.5807 60.3596 90.6062 60.2667C90.6353 60.1853 90.6663 60.1049 90.6991 60.0254L90.6429 60.1583C90.7489 59.9094 90.878 59.6709 91.0285 59.4461C91.0845 59.3505 91.1107 59.2403 91.1038 59.1298C91.0968 59.0192 91.057 58.9132 90.9895 58.8254C90.9219 58.7376 90.8297 58.6719 90.7246 58.6367C90.6194 58.6015 90.5062 58.5985 90.3994 58.628C90.2617 58.6713 90.1438 58.7616 90.0662 58.8832L90.0671 58.8839Z" fill="#726A69"/>
<path d="M96.7747 60.2831C96.8721 60.5719 96.9454 60.8682 96.9941 61.1691L96.9742 61.0211C96.9765 61.0392 96.9783 61.057 96.9797 61.0751C96.9856 61.2216 97.0432 61.3614 97.1422 61.4695C97.2467 61.574 97.3885 61.6326 97.5362 61.6326C97.684 61.6326 97.8257 61.574 97.9302 61.4695C97.9824 61.418 98.0236 61.3566 98.0515 61.2888C98.0795 61.2211 98.0935 61.1484 98.0927 61.0751C98.0514 60.7045 97.9692 60.3396 97.8478 59.987C97.8068 59.8483 97.7158 59.7297 97.5924 59.6541C97.4623 59.5796 97.308 59.5595 97.1631 59.598C97.0926 59.6174 97.0265 59.6505 96.9687 59.6955C96.911 59.7404 96.8627 59.7963 96.8265 59.8599C96.7904 59.9236 96.7671 59.9937 96.7581 60.0663C96.7491 60.1389 96.7545 60.2125 96.774 60.2831H96.7747Z" fill="#726A69"/>
<path d="M74.6795 80.5917C75.1276 78.2443 75.7242 75.7774 77.1033 73.781C78.2485 72.1226 80.0736 71.1953 81.9211 70.5262C83.0633 70.1123 84.229 69.7668 85.3761 69.3661C85.5165 69.3238 85.6352 69.2291 85.7076 69.1017C85.78 68.9743 85.8005 68.8239 85.765 68.6817C85.7246 68.54 85.6302 68.4199 85.502 68.3472C85.3738 68.2744 85.2221 68.2549 85.0797 68.2929C83.0086 69.0158 80.8237 69.5515 78.9181 70.6723C77.9759 71.2147 77.1443 71.9295 76.4667 72.7794C75.7525 73.7464 75.1826 74.8119 74.7747 75.9426C74.2515 77.3546 73.8598 78.8119 73.6048 80.2959C73.5694 80.4381 73.59 80.5886 73.6624 80.716C73.7349 80.8435 73.8535 80.9383 73.9939 80.9808C74.1364 81.0187 74.288 80.9992 74.4162 80.9265C74.5444 80.8538 74.6389 80.7336 74.6793 80.5919L74.6795 80.5917Z" fill="#726A69"/>
<path d="M102.821 68.7087L102.812 68.7134L103.093 68.6373C102.85 68.6812 102.619 68.7752 102.414 68.9133C102.254 68.9907 102.094 69.0656 101.932 69.1382C101.843 69.1781 101.753 69.2166 101.664 69.2542C101.544 69.3059 101.782 69.2054 101.66 69.2558C101.614 69.2748 101.568 69.2941 101.521 69.3129C101.333 69.3902 101.143 69.4644 100.952 69.5354C100.814 69.5776 100.696 69.6682 100.619 69.7906C100.563 69.8862 100.537 69.9962 100.544 70.1068C100.551 70.2173 100.591 70.3232 100.658 70.411C100.726 70.4988 100.818 70.5644 100.923 70.5996C101.028 70.6348 101.141 70.6378 101.248 70.6084C101.975 70.3407 102.684 70.0283 103.371 69.6729L103.09 69.749C103.193 69.7483 103.294 69.7205 103.383 69.6683C103.51 69.5931 103.602 69.471 103.639 69.3285C103.677 69.1859 103.656 69.0343 103.583 68.9066C103.506 68.7818 103.384 68.6913 103.242 68.6542C103.1 68.617 102.949 68.6358 102.82 68.7069L102.821 68.7087Z" fill="#726A69"/>
<path d="M93.2911 70.8782C90.9777 70.7364 88.6992 70.2449 86.5333 69.4202C86.2461 69.3089 85.9631 69.1882 85.6845 69.0574C85.4098 68.9277 85.0493 68.644 84.7428 68.644L85.0242 68.72C84.979 68.695 84.9341 68.6695 84.8896 68.6435C84.2669 68.2848 83.7055 69.2467 84.327 69.6049C84.4503 69.6921 84.5945 69.7447 84.7449 69.7576L84.4638 69.6815C85.7436 70.3607 87.1024 70.8795 88.5094 71.2262C90.0719 71.6504 91.6751 71.907 93.292 71.9918C94.0089 72.0247 94.0073 70.9111 93.292 70.8782H93.2911Z" fill="#726A69"/>
<path d="M50.8712 50.1426C51.6108 46.7149 51.1781 43.0799 49.3521 40.0503C47.9342 37.7046 45.829 35.8511 43.3217 34.7409C40.0465 33.3543 36.3619 33.2851 33.0369 34.5479C30.1161 35.6938 27.6963 37.8373 26.2075 40.5975C24.7186 43.3578 24.2571 46.5561 24.905 49.6243C25.0022 50.1175 25.126 50.6043 25.2695 51.0859C25.4733 51.771 26.5491 51.4803 26.3439 50.7899C25.4153 47.668 25.5597 44.261 27.0722 41.3403C28.2467 39.0769 30.0938 37.2325 32.3597 36.0606C35.308 34.6103 38.7043 34.3593 41.834 35.3604C44.2434 36.1571 46.3392 37.6944 47.8219 39.7527C49.6171 42.2774 50.4062 45.3801 50.0354 48.455C49.9817 48.9227 49.8961 49.3862 49.7979 49.847C49.647 50.5458 50.7212 50.8446 50.8723 50.1433L50.8712 50.1426Z" fill="#726A69"/>
<path d="M27.1439 39.7558C27.4706 40.4303 28.1668 40.8868 28.7751 41.2833C29.2626 41.6019 29.9243 41.8854 29.7862 42.5626C29.6772 42.9357 29.5188 43.2926 29.3153 43.6238C29.086 44.0783 28.8759 44.5414 28.6788 45.0105C28.2916 45.9175 27.9746 46.853 27.7308 47.8085C27.4471 48.9493 27.2855 50.1156 27.0467 51.2654C26.9015 51.9646 27.9753 52.263 28.1213 51.5614C28.3412 50.5025 28.4953 49.4304 28.7398 48.3769C28.976 47.378 29.2944 46.4002 29.6917 45.4536C29.8837 44.991 30.0975 44.537 30.3255 44.0908C30.5554 43.7045 30.7348 43.2903 30.8595 42.8584C31.0591 41.9492 30.6737 41.2063 29.9199 40.6994C29.3005 40.2832 28.4454 39.8966 28.1048 39.1934C28.0293 39.067 27.9071 38.9752 27.7645 38.9378C27.6219 38.9005 27.4704 38.9205 27.3424 38.9937C27.2172 39.0704 27.1264 39.1925 27.0892 39.3345C27.0519 39.4765 27.071 39.6274 27.1425 39.7556L27.1439 39.7558Z" fill="#726A69"/>
<path d="M47.0619 38.5591C46.912 38.8379 46.7056 39.0823 46.4557 39.2767C46.1772 39.5261 45.8753 39.747 45.5796 39.9728C45.2293 40.2008 44.9369 40.5071 44.7254 40.8674C44.5307 41.2654 44.4805 41.7187 44.5836 42.1497C44.697 42.5612 44.8805 42.9501 45.1262 43.2992C45.3893 43.7196 45.6369 44.1492 45.8691 44.588C46.3434 45.4725 46.7439 46.3946 47.0663 47.345C47.4394 48.4653 47.6908 49.6212 48.0182 50.7554C48.2169 51.4426 49.2925 51.1498 49.0926 50.4594C48.8152 49.5003 48.5923 48.5261 48.3047 47.57C48.0075 46.5984 47.6349 45.6515 47.1903 44.7379C46.9831 44.3068 46.7609 43.8834 46.5238 43.4674C46.2916 43.0603 46.0077 42.6747 45.7992 42.2554C45.7208 42.1297 45.6709 41.9883 45.6531 41.8413C45.6353 41.6942 45.65 41.545 45.6961 41.4042C45.8518 41.1551 46.0658 40.9475 46.3197 40.7994C47.0308 40.2621 47.7983 39.7117 48.1357 38.8547C48.1738 38.7124 48.1544 38.5607 48.0816 38.4326C48.0088 38.3044 47.8884 38.21 47.7466 38.1698C47.6042 38.134 47.4534 38.1544 47.3258 38.2269C47.1981 38.2993 47.1032 38.4181 47.061 38.5587L47.0619 38.5591Z" fill="#726A69"/>
<path d="M27.9769 51.0198C27.6207 50.7206 27.1838 50.5335 26.7213 50.4822C26.2589 50.4308 25.7915 50.5175 25.3783 50.7312C25.0886 50.8974 24.8397 51.126 24.6496 51.4005C24.4594 51.6749 24.3328 51.9882 24.279 52.3176C24.1334 53.1083 24.1513 53.9205 24.3314 54.7041C24.5115 55.4877 24.85 56.2262 25.3263 56.8742C25.9996 57.7943 26.9514 58.4692 28.1373 58.263C28.2791 58.2227 28.3995 58.1283 28.4723 58.0002C28.5451 57.8721 28.5645 57.7204 28.5264 57.5781C28.4843 57.4375 28.3895 57.3186 28.2618 57.2461C28.134 57.1736 27.9833 57.1532 27.8408 57.189C27.0283 57.3303 26.3703 56.5055 26.0116 55.8898C25.6495 55.2932 25.4145 54.6283 25.3214 53.9368C25.2469 53.2916 25.2434 52.5174 25.6079 51.9615C25.63 51.9304 25.6248 51.936 25.5926 51.9777C25.6144 51.9508 25.6376 51.9246 25.6622 51.8991C25.6808 51.881 25.8055 51.7696 25.7706 51.7954C25.889 51.7101 26.0232 51.6495 26.1653 51.617C26.3391 51.5672 26.5221 51.5585 26.6999 51.5916C26.8776 51.6247 27.0452 51.6987 27.1894 51.8077C27.2958 51.9084 27.4368 51.9645 27.5834 51.9645C27.7299 51.9645 27.8709 51.9084 27.9773 51.8077C28.0807 51.7026 28.1387 51.5612 28.1387 51.4138C28.1387 51.2665 28.0807 51.1251 27.9773 51.02L27.9769 51.0198Z" fill="#726A69"/>
<path d="M49.0494 50.998C49.1618 50.8923 49.2939 50.8097 49.4383 50.7552C49.5826 50.7006 49.7363 50.675 49.8906 50.6798C50.0448 50.6847 50.1966 50.72 50.3372 50.7835C50.4779 50.8471 50.6045 50.9378 50.71 51.0504C50.6295 50.9562 50.7367 51.0915 50.7506 51.1135C50.8019 51.193 50.8463 51.2766 50.8834 51.3636C50.9409 51.5127 50.9856 51.6663 51.0169 51.823C51.0953 52.2063 51.1227 52.5983 51.0984 52.9888C51.0557 53.6702 50.8749 54.3359 50.5672 54.9455C50.2118 55.6661 49.6309 56.458 48.7348 56.3724C48.5873 56.3734 48.4462 56.4324 48.3419 56.5366C48.2377 56.6408 48.1786 56.7818 48.1776 56.9292C48.1807 57.0759 48.2404 57.2157 48.3443 57.3194C48.4481 57.4232 48.588 57.4828 48.7348 57.486C50.5893 57.6632 51.6368 55.6323 52.0463 54.1263C52.2589 53.3025 52.2801 52.441 52.1083 51.6077C52.0595 51.2672 51.9422 50.9402 51.7637 50.6461C51.5852 50.3521 51.349 50.0972 51.0694 49.8966C50.6315 49.6348 50.1197 49.5237 49.6125 49.5804C49.1053 49.637 48.6307 49.8583 48.2614 50.2103C47.7465 50.7112 48.5349 51.4982 49.0494 50.9991V50.998Z" fill="#726A69"/>
<path d="M48.2314 55.9831C48.1521 56.4374 48.042 56.8858 47.9017 57.3252C47.846 57.5043 47.7873 57.6825 47.722 57.8588C47.7081 57.8964 47.6937 57.934 47.6793 57.9713C47.6378 58.0797 47.7434 57.8052 47.6589 58.0228C47.6368 58.0802 47.6159 58.1375 47.5941 58.1948C47.5809 58.2298 47.5672 58.2644 47.5539 58.2999C47.5456 58.3231 47.5363 58.3432 47.5277 58.3648C47.5003 58.4344 47.5711 58.2651 47.5398 58.3361C47.4903 58.4481 47.4402 58.5597 47.387 58.6701C47.2679 58.9184 47.1395 59.1622 47.0053 59.4028C46.3098 60.7013 45.4002 61.8732 44.3148 62.8694C43.7312 63.4129 43.0308 63.8157 42.2674 64.0471C41.576 64.235 41.8694 65.3094 42.5636 65.1208C44.1679 64.6849 45.4636 63.4652 46.4707 62.1931C47.3393 61.126 48.0544 59.9427 48.5954 58.6778C48.6168 58.6251 48.6381 58.5727 48.6581 58.5196C48.6665 58.4964 48.7099 58.3641 48.6825 58.4425C48.6432 58.5544 48.7143 58.3662 48.7338 58.3175C48.7517 58.2736 48.7688 58.2293 48.7856 58.185C48.8269 58.0753 48.8652 57.9644 48.9016 57.853C49.0769 57.3399 49.212 56.8139 49.3056 56.2798C49.3405 56.1375 49.3197 55.9873 49.2473 55.86C49.175 55.7326 49.0566 55.6377 48.9165 55.5947C48.774 55.5567 48.6223 55.5762 48.494 55.649C48.3658 55.7217 48.2713 55.842 48.2309 55.9838L48.2314 55.9831Z" fill="#726A69"/>
<path d="M27.3243 57.0436C28.0801 59.9291 29.8048 62.4676 32.2097 64.2343C32.3375 64.3077 32.4892 64.3278 32.6318 64.2905C32.7744 64.2531 32.8966 64.1612 32.9721 64.0346C33.0434 63.9063 33.0625 63.7555 33.0252 63.6136C32.988 63.4717 32.8973 63.3496 32.7722 63.2729C30.6012 61.7136 29.0852 59.3093 28.3987 56.7475C28.213 56.0559 27.1383 56.3494 27.3243 57.0436Z" fill="#726A69"/>
<path d="M37.5073 59.881C37.583 59.8374 37.6589 59.7942 37.7372 59.7552C37.7629 59.7422 37.8502 59.6833 37.8765 59.69C37.8006 59.7216 37.7824 59.7293 37.8226 59.7132L37.873 59.6935C37.9029 59.6824 37.9329 59.6717 37.9631 59.6613C38.1125 59.6108 38.2652 59.5707 38.4202 59.5413C38.4722 59.5314 38.5242 59.5228 38.5767 59.5144C38.495 59.5274 38.5943 59.5123 38.6268 59.5091C38.7429 59.4968 38.8578 59.4887 38.9737 59.4843C39.1832 59.4753 39.3932 59.4811 39.6019 59.5017C39.6483 59.5065 39.7145 59.5184 39.6307 59.5042C39.6771 59.5121 39.7236 59.5193 39.77 59.5286C39.8399 59.5425 39.9096 59.559 39.9789 59.578C40.0449 59.5965 40.1092 59.6188 40.1739 59.6413C40.2703 59.675 40.1784 59.6258 40.1477 59.6283C40.1764 59.6374 40.2037 59.6502 40.229 59.6664C40.3065 59.7045 40.3808 59.7489 40.4509 59.7993C40.5787 59.8733 40.7305 59.8938 40.8733 59.8564C41.0161 59.819 41.1383 59.7267 41.2133 59.5996C41.284 59.4712 41.3027 59.3205 41.2655 59.1788C41.2283 59.037 41.1381 58.9149 41.0134 58.8377C40.4444 58.4289 39.6525 58.3451 38.9746 58.3706C38.2632 58.3832 37.5661 58.5718 36.9455 58.9196C36.8818 58.9562 36.8259 59.005 36.7812 59.0633C36.7364 59.1216 36.7037 59.1881 36.6848 59.2591C36.6659 59.3301 36.6612 59.4041 36.671 59.4769C36.6809 59.5497 36.7051 59.6198 36.7422 59.6832C36.7792 59.7467 36.8285 59.8021 36.8872 59.8464C36.9458 59.8907 37.0126 59.923 37.0838 59.9414C37.155 59.9598 37.2291 59.9639 37.3018 59.9535C37.3746 59.9432 37.4446 59.9185 37.5078 59.881H37.5073Z" fill="#726A69"/>
<path d="M38.3035 54.5793C38.3559 54.7522 38.4047 54.926 38.4509 55.1004C38.5045 55.2829 38.5471 55.4685 38.5783 55.6561L38.5584 55.5081C38.5629 55.5452 38.5636 55.5828 38.5607 55.6201L38.5807 55.4721C38.5774 55.495 38.5718 55.5174 38.5639 55.5391L38.6201 55.406C38.6131 55.421 38.6046 55.4353 38.5948 55.4487L38.6819 55.3359C38.675 55.3444 38.6672 55.3522 38.6587 55.3591L38.7713 55.2721C38.7388 55.2943 38.7044 55.3135 38.6684 55.3294L38.8014 55.2733C38.7584 55.2917 38.7132 55.3048 38.667 55.3122L38.8151 55.2923C38.7679 55.2981 38.7201 55.2981 38.6728 55.2923L38.8209 55.3122C38.7318 55.3002 38.6436 55.2842 38.554 55.2756C38.4061 55.2754 38.2641 55.3338 38.1593 55.438C38.0548 55.5424 37.9961 55.684 37.9961 55.8317C37.9961 55.9794 38.0548 56.121 38.1593 56.2254C38.268 56.3237 38.4075 56.3812 38.554 56.3878C38.5623 56.3878 38.5707 56.3894 38.5788 56.3906L38.4307 56.3707C38.5407 56.3927 38.6524 56.4058 38.7645 56.4099C38.943 56.4045 39.1176 56.3568 39.2739 56.2707C39.3682 56.2218 39.4509 56.1533 39.5163 56.0697C39.5818 55.9861 39.6285 55.8894 39.6532 55.7862C39.6859 55.6111 39.6795 55.4309 39.6347 55.2584C39.565 54.9299 39.4763 54.6051 39.3793 54.284C39.3384 54.1453 39.2474 54.0267 39.1239 53.9513C39.0282 53.8953 38.9181 53.8691 38.8074 53.8761C38.6968 53.8831 38.5907 53.9228 38.5029 53.9903C38.415 54.0578 38.3492 54.15 38.314 54.2551C38.2788 54.3601 38.2758 54.4732 38.3053 54.58L38.3035 54.5793Z" fill="#726A69"/>
<path d="M32.9298 51.8384C32.777 52.4117 32.9407 53.7109 34.0193 53.7805C35.4387 53.7177 35.4536 52.1389 34.948 51.4162C34.5326 50.8252 33.3723 50.6171 32.9298 51.8384Z" fill="#726A69"/>
<path d="M44.2958 51.4029C44.4922 51.963 44.4286 53.2708 43.3585 53.4227C41.9386 53.4691 41.803 51.8957 42.2518 51.1366C42.6198 50.5148 43.7606 50.2183 44.2958 51.4029Z" fill="#726A69"/>
<path d="M37.5161 54.2167C38.4289 52.5778 38.2653 50.1262 36.332 49.3035C35.4074 48.9366 34.4128 48.7794 33.42 48.8432C32.5034 48.887 31.5119 49.0339 30.7228 49.5329C29.9609 49.9895 29.4081 50.7259 29.1826 51.5846C29.0322 52.3369 29.1086 53.1169 29.4022 53.8257C29.7055 54.5531 30.2101 55.1788 30.8569 55.6296C31.5036 56.0803 32.2656 56.3373 33.0534 56.3704C33.9454 56.4423 34.8418 56.3024 35.6694 55.9623C36.4548 55.5907 37.1017 54.9794 37.517 54.2167C37.8801 53.597 36.9173 53.0358 36.5547 53.6545C36.2782 54.168 35.8625 54.5933 35.3553 54.8816C34.873 55.1141 34.3464 55.2406 33.811 55.2528C32.6207 55.3171 31.4056 55.0087 30.7184 53.9587C30.0964 53.0074 29.9849 51.711 30.8395 50.853C31.3308 50.3596 31.943 50.1591 32.614 50.041C33.4166 49.8987 34.239 49.9091 35.0377 50.0719C35.7437 50.2211 36.4969 50.4821 36.7996 51.2319C37.1156 52.014 36.9528 52.9395 36.5538 53.6554C36.2046 54.2814 37.1669 54.8435 37.5161 54.2167Z" fill="#726A69"/>
<path d="M40.8255 53.5282C40.0949 52.4262 39.9596 50.6601 41.3732 50.0386C42.0948 49.7341 42.8689 49.5733 43.6521 49.5653C44.3718 49.5493 45.1686 49.5846 45.8133 49.9365C46.0841 50.0717 46.3248 50.2602 46.521 50.4907C46.7171 50.7212 46.8646 50.9889 46.9546 51.2777C47.0752 51.8031 47.043 52.3519 46.8618 52.8595C46.6714 53.3873 46.3375 53.8515 45.8975 54.1999C45.4575 54.5483 44.929 54.7671 44.3714 54.8316C43.6879 54.941 42.9888 54.8998 42.323 54.7109C41.7059 54.4936 41.1787 54.0774 40.8244 53.5277C40.7472 53.4031 40.625 53.3129 40.4831 53.2757C40.3412 53.2385 40.1904 53.2572 40.062 53.328C39.9354 53.4034 39.8435 53.5256 39.8061 53.6681C39.7687 53.8106 39.7888 53.962 39.8621 54.0899C40.2932 54.7592 40.9048 55.2932 41.6265 55.6301C42.3594 55.9224 43.15 56.0415 43.9365 55.9782C45.5345 55.8953 47.0723 55.1325 47.7533 53.6182C48.0698 52.9264 48.1903 52.1611 48.1015 51.4056C48.0414 50.9695 47.8916 50.5506 47.6615 50.1753C47.4315 49.8 47.1261 49.4763 46.7647 49.2247C46.0169 48.6709 45.1196 48.5041 44.2082 48.4579C43.2099 48.3994 42.2101 48.5448 41.2699 48.8851C40.3296 49.2384 39.4927 49.9291 39.2594 50.9534C39.1439 51.4897 39.1378 52.0437 39.2415 52.5824C39.3452 53.1211 39.5566 53.6333 39.863 54.0885C40.2588 54.6852 41.2232 54.1279 40.8255 53.5282Z" fill="#726A69"/>
<path d="M37.4908 52.146L39.711 52.0609C39.8587 52.0609 40.0005 52.0022 40.1049 51.8978C40.2094 51.7934 40.2681 51.6518 40.2681 51.5041C40.2681 51.3564 40.2094 51.2148 40.1049 51.1104C40.0005 51.0059 39.8587 50.9473 39.711 50.9473L37.4908 51.0324C37.343 51.0324 37.2013 51.0911 37.0968 51.1955C36.9923 51.2999 36.9336 51.4415 36.9336 51.5892C36.9336 51.7369 36.9923 51.8785 37.0968 51.9829C37.2013 52.0874 37.343 52.146 37.4908 52.146Z" fill="#726A69"/>
<path d="M31.1946 46.965C31.0961 47.0691 30.9887 47.1643 30.8735 47.2497L30.9864 47.1626C30.7315 47.3713 30.4515 47.5472 30.1529 47.6863L30.2862 47.6301C30.2575 47.6424 30.2281 47.6529 30.1982 47.6617C30.0591 47.702 29.9403 47.7931 29.8652 47.9169C29.8093 48.0125 29.7832 48.1226 29.7902 48.2331C29.7972 48.3436 29.837 48.4495 29.9045 48.5373C29.9721 48.6251 30.0643 48.6908 30.1693 48.7259C30.2744 48.7611 30.3876 48.7642 30.4944 48.7347C30.7694 48.6412 31.0279 48.5051 31.2605 48.3313C31.417 48.2252 31.5682 48.1109 31.716 47.9928C31.8109 47.9197 31.8997 47.8392 31.9816 47.7519C32.0835 47.6455 32.1415 47.5047 32.1442 47.3575C32.1433 47.21 32.0851 47.0685 31.9816 46.9631C31.8771 46.8587 31.7354 46.8 31.5877 46.8C31.4399 46.8 31.2982 46.8587 31.1937 46.9631L31.1946 46.965Z" fill="#726A69"/>
<path d="M41.8223 58.6624C41.9313 58.8535 42.027 59.0518 42.1088 59.2561L42.0526 59.1231C42.1146 59.2707 42.1731 59.4196 42.2255 59.5709C42.2672 59.7092 42.358 59.8276 42.4809 59.9036C42.6085 59.9781 42.7605 59.9989 42.9034 59.9615C43.0463 59.924 43.1685 59.8313 43.2431 59.7038C43.2808 59.6398 43.3052 59.5688 43.3148 59.4951C43.3245 59.4214 43.3192 59.3465 43.2993 59.2749C43.2173 59.0384 43.1207 58.8067 43.0207 58.5788C42.9518 58.415 42.8729 58.2555 42.7843 58.1014C42.709 57.9778 42.5902 57.8867 42.4512 57.8462C42.3063 57.8078 42.1521 57.828 42.0219 57.9023C41.897 57.9762 41.8055 58.0955 41.7665 58.2352C41.729 58.3801 41.7491 58.5339 41.8227 58.6642L41.8223 58.6624Z" fill="#726A69"/>
<path d="M34.7001 58.3312C34.5154 58.7173 34.3701 59.121 34.2664 59.5362C34.2291 59.6811 34.2492 59.8348 34.3226 59.9652C34.3595 60.0283 34.4085 60.0836 34.4668 60.1278C34.5251 60.1721 34.5916 60.2044 34.6624 60.2229C34.7332 60.2415 34.8069 60.2459 34.8795 60.236C34.952 60.226 35.0218 60.2019 35.085 60.1649C35.2089 60.09 35.3001 59.9713 35.3404 59.8323C35.422 59.5177 35.5256 59.2092 35.6503 58.9091L35.5941 59.042C35.6153 58.9919 35.6373 58.942 35.6617 58.8933C35.7337 58.7625 35.7538 58.6093 35.7179 58.4644C35.6782 58.3249 35.5869 58.2059 35.4625 58.1314C35.3982 58.0942 35.3271 58.0701 35.2534 58.0604C35.1796 58.0508 35.1047 58.0558 35.033 58.0753C34.8928 58.1135 34.7733 58.2051 34.7001 58.3305V58.3312Z" fill="#726A69"/>
<path d="M43.0586 64.1065V65.2387C43.0601 65.3862 43.1183 65.5274 43.2211 65.6331C43.299 65.7113 43.3984 65.7645 43.5067 65.7861C43.615 65.8077 43.7272 65.7967 43.8292 65.7544C43.9312 65.7122 44.0183 65.6406 44.0795 65.5488C44.1407 65.4569 44.1732 65.349 44.173 65.2387V64.1065C44.1714 63.9591 44.1133 63.8179 44.0105 63.7121C43.9325 63.634 43.8331 63.5807 43.7249 63.5591C43.6166 63.5375 43.5044 63.5485 43.4024 63.5908C43.3004 63.6331 43.2133 63.7046 43.1521 63.7965C43.0909 63.8883 43.0583 63.9962 43.0586 64.1065Z" fill="#726A69"/>
<path d="M17.7279 80.5922C17.9921 79.1755 18.3246 77.7731 18.7062 76.3836C18.9011 75.7541 19.1701 75.15 19.5074 74.5839C19.7744 74.0918 20.09 73.6277 20.4496 73.1984C21.7515 71.679 23.6847 70.7303 25.5123 69.9953C26.9285 69.4258 28.3832 68.9534 29.8384 68.4945C30.5201 68.2797 30.2289 67.2041 29.5422 67.4208C27.1556 68.1734 24.7199 68.946 22.5327 70.1851C21.551 70.7077 20.6551 71.3774 19.8761 72.1708C19.0354 73.1142 18.3646 74.1959 17.8934 75.3681C17.5793 76.1936 17.3346 77.0438 17.1619 77.91C16.9722 78.7008 16.8027 79.4962 16.6535 80.2961C16.6182 80.4385 16.6391 80.589 16.7117 80.7165C16.7843 80.8439 16.9032 80.9387 17.0437 80.981C17.1862 81.019 17.3378 80.9995 17.466 80.9267C17.5942 80.854 17.6887 80.7338 17.7291 80.5922H17.7279Z" fill="#726A69"/>
<path d="M46.291 67.4336C48.9697 68.0099 51.7218 68.589 54.1337 69.9441C55.2877 70.5603 56.3081 71.3989 57.1358 72.4115C57.9679 73.4753 58.6287 74.6625 59.0941 75.9301C59.6312 77.4409 60.0114 79.003 60.2287 80.5916C60.2688 80.7334 60.3632 80.8538 60.4915 80.9265C60.6198 80.9993 60.7716 81.0187 60.914 80.9804C61.0545 80.938 61.1733 80.8433 61.2457 80.7158C61.3182 80.5883 61.3387 80.4378 61.3031 80.2955C60.8604 77.4084 60.0682 74.5286 58.3191 72.1398C57.5057 71.0147 56.4776 70.0614 55.2941 69.3349C54.0444 68.5811 52.7086 67.9801 51.3155 67.5447C49.7674 67.0462 48.1757 66.7016 46.5873 66.3599C45.888 66.2093 45.589 67.2826 46.291 67.4336Z" fill="#726A69"/>
<path d="M45.8276 66.674C44.8142 68.6461 43.7657 70.6274 42.2581 72.2733H43.046C41.9876 71.3063 41.0207 70.2267 40.0395 69.1829L39.9269 70.0574C40.6966 69.6729 40.8605 68.6377 40.4728 67.9245L40.2729 68.6862C41.9389 67.7409 43.4433 66.536 44.7292 65.1168H43.9413C44.6876 65.7093 45.3257 66.4262 45.8276 67.236C46.2104 67.8392 47.1741 67.2824 46.7899 66.674C46.2426 65.7802 45.5455 64.9871 44.7292 64.3294C44.6232 64.2278 44.4821 64.1711 44.3352 64.1711C44.1884 64.1711 44.0472 64.2278 43.9413 64.3294C42.7215 65.6797 41.2931 66.8261 39.7103 67.7248C39.5847 67.8011 39.4936 67.9231 39.4563 68.0653C39.419 68.2074 39.4384 68.3584 39.5104 68.4865C39.5698 68.5872 39.5878 68.707 39.5606 68.8207C39.5333 68.9344 39.463 69.033 39.3644 69.0959C39.2917 69.1397 39.2298 69.1992 39.1834 69.2702C39.137 69.3412 39.1073 69.4218 39.0964 69.5059C39.0856 69.59 39.0939 69.6755 39.1208 69.7559C39.1476 69.8363 39.1923 69.9096 39.2516 69.9704C40.2327 71.0144 41.1997 72.0937 42.2581 73.0607C42.3636 73.1631 42.5049 73.2205 42.6521 73.2205C42.7992 73.2205 42.9405 73.1631 43.046 73.0607C44.6208 71.3415 45.731 69.2955 46.7899 67.236C47.117 66.5996 46.1556 66.0356 45.8276 66.674Z" fill="#726A69"/>
<path d="M101.899 69.091C104.078 69.7209 106.373 70.4185 108.157 71.8802C108.843 72.4175 109.463 73.0335 110.004 73.7156C110.545 74.4566 110.937 75.295 111.16 76.1848C111.52 77.5826 111.497 79.0129 111.443 80.4444C111.416 81.1611 112.53 81.1599 112.557 80.4444C112.65 78.0239 112.543 75.4995 111.152 73.4179C110.608 72.6504 109.968 71.9558 109.248 71.351C108.386 70.5945 107.416 69.9691 106.371 69.4949C105.019 68.8975 103.623 68.4037 102.196 68.0178C101.506 67.8182 101.211 68.8924 101.9 69.0915L101.899 69.091Z" fill="#726A69"/>
<path d="M99.074 64.2506C99.3656 63.1421 99.6425 62.0285 99.8784 60.9068C99.9124 60.6988 99.9622 60.4937 100.027 60.2933C100.049 60.247 100.073 60.2019 100.1 60.1583C100.112 60.1381 100.178 60.0502 100.133 60.1052C100.168 60.0618 100.208 60.022 100.252 59.9866C100.182 60.0421 100.31 59.9576 100.322 59.9516C100.231 59.998 100.514 59.9075 100.422 59.9184C100.503 59.9032 100.586 59.9136 100.661 59.9481C100.716 59.9742 100.766 60.0086 100.81 60.0502C100.87 60.1062 100.926 60.166 100.979 60.2293C101.084 60.3327 101.225 60.3907 101.373 60.3907C101.52 60.3907 101.662 60.3327 101.767 60.2293C101.868 60.1234 101.925 59.9823 101.925 59.8356C101.925 59.6889 101.868 59.5478 101.767 59.4419C101.58 59.203 101.331 59.0205 101.047 58.9145C100.762 58.8086 100.454 58.7834 100.157 58.8417C99.8551 58.9221 99.5807 59.0822 99.3623 59.3052C99.1439 59.5282 98.9896 59.8058 98.9156 60.1089C98.7406 60.6889 98.654 61.3053 98.5145 61.8953C98.3515 62.5839 98.1798 63.2705 97.9993 63.9551C97.8168 64.6488 98.8915 64.9446 99.074 64.2511V64.2506Z" fill="#726A69"/>
<path d="M102.882 68.0698C103.286 66.6471 103.573 65.1941 103.741 63.725C103.952 62.3423 104.082 60.9484 104.129 59.5506C104.142 58.7501 103.779 58.0604 103.001 57.7781C102.642 57.6635 102.255 57.6808 101.908 57.8267C101.562 57.9727 101.279 58.2378 101.111 58.5741C100.984 58.8723 100.904 59.1887 100.876 59.5116C100.857 59.6508 100.826 59.913 100.816 59.9944C100.81 60.0429 100.781 60.2352 100.765 60.3424C100.67 60.9765 100.573 61.6099 100.473 62.2425C100.252 63.6508 100.043 65.069 99.7305 66.4606C99.5733 67.1585 100.647 67.4566 100.805 66.7566C101.053 65.6569 101.227 64.5389 101.407 63.4267C101.595 62.2697 101.804 61.1085 101.936 59.9436C101.957 59.6919 101.998 59.4423 102.06 59.1975C102.071 59.1113 102.108 59.0305 102.167 58.9662C102.225 58.9018 102.302 58.8569 102.387 58.8376C102.921 58.6752 103.024 59.2745 103.014 59.6348C102.975 60.8876 102.834 62.1439 102.673 63.3861C102.508 64.8701 102.219 66.3377 101.809 67.7735C101.6 68.4605 102.674 68.7542 102.883 68.0696L102.882 68.0698Z" fill="#726A69"/>
<path d="M95.7069 65.8488C95.1033 67.2445 94.0304 68.3758 93.2896 69.6945C92.8868 70.369 92.6941 71.1482 92.7361 71.9326C92.7919 72.8713 93.0746 73.7736 93.1703 74.7049C93.2745 75.7192 93.3075 76.7484 93.3579 77.7673C93.3932 78.4805 94.5078 78.4849 94.4722 77.7673C94.4298 76.9089 94.3736 76.0505 94.3195 75.1932C94.2614 74.2722 94.0486 73.3836 93.9107 72.4744C93.7669 71.7791 93.8561 71.0558 94.1646 70.4163C94.5254 69.777 94.9247 69.1602 95.3603 68.5693C95.8666 67.8949 96.3051 67.1722 96.6692 66.4116C96.739 66.2831 96.7572 66.1327 96.7201 65.9913C96.6829 65.8498 96.5933 65.7277 96.4693 65.6499C96.3415 65.5764 96.1898 65.5561 96.0471 65.5935C95.9044 65.6309 95.7822 65.7229 95.7069 65.8497V65.8488Z" fill="#726A69"/>
<path d="M101.787 67.9205V67.9228L101.863 67.6419C101.515 68.4141 101.089 69.1486 100.592 69.8336C100.127 70.4925 99.6451 71.1199 99.3333 71.8685C99.0621 72.5701 98.9112 73.3123 98.8869 74.064C98.8356 74.9076 99.122 75.7546 99.4129 76.5344C99.4556 76.6746 99.5505 76.7931 99.678 76.8654C99.8055 76.9378 99.9559 76.9585 100.098 76.9232C100.24 76.8831 100.361 76.7887 100.433 76.6605C100.506 76.5324 100.526 76.3807 100.487 76.2384C100.214 75.5059 99.9534 74.7535 100.007 73.9628C100.033 73.2978 100.191 72.6446 100.471 72.0407C100.819 71.34 101.328 70.7319 101.768 70.0888C102.003 69.7457 102.222 69.3928 102.424 69.0297C102.507 68.8798 102.585 68.7276 102.659 68.5729C102.783 68.3739 102.865 68.152 102.901 67.9205C102.901 67.2038 101.787 67.2027 101.787 67.9205H101.787Z" fill="#726A69"/>
<path d="M94.0549 78.3058C96.0589 77.8051 98.0908 77.4033 100.1 76.923C100.797 76.7565 100.503 75.6825 99.8042 75.8493C97.7946 76.3293 95.7627 76.7309 93.7587 77.2321C93.0622 77.4056 93.358 78.48 94.0549 78.3058Z" fill="#726A69"/>
<path d="M96.7258 66.2769C97.0018 65.5274 97.2068 64.7537 97.338 63.9659C97.3789 63.6053 97.4379 63.247 97.5149 62.8924C97.526 62.8495 97.5381 62.807 97.5523 62.7645C97.5775 62.6979 97.5814 62.6841 97.5641 62.7233C97.5801 62.6886 97.5984 62.6551 97.6191 62.623C97.5882 62.6601 97.5954 62.654 97.6407 62.6045C97.6902 62.5598 97.698 62.5528 97.6639 62.5836C97.696 62.5626 97.7294 62.5436 97.7638 62.5267C97.6509 62.5766 97.9049 62.4762 97.819 62.5149C97.7805 62.5202 97.7902 62.5216 97.8483 62.5191C97.7786 62.5082 97.7802 62.5119 97.852 62.5298C97.8035 62.5114 97.8079 62.5179 97.8657 62.5488C97.8225 62.5193 97.8251 62.527 97.8731 62.572C97.8585 62.5175 97.8843 62.6131 97.8919 62.6393C97.9056 62.6857 97.94 62.8179 97.9411 62.8274C97.9634 63.1462 97.9588 63.4662 97.9272 63.7842C97.9049 64.4648 97.8682 65.1453 97.8169 65.8259C97.8182 65.9731 97.8773 66.114 97.9815 66.2182C98.0858 66.3223 98.2267 66.3814 98.3741 66.3827C98.521 66.3798 98.6611 66.3202 98.765 66.2164C98.8688 66.1126 98.9285 65.9726 98.9313 65.8259C98.9777 65.2057 99.0135 64.5851 99.0355 63.9638C99.0588 63.3195 99.1581 62.5987 98.8266 62.0119C98.7366 61.8601 98.6147 61.7297 98.4692 61.6297C98.3237 61.5297 98.1582 61.4625 97.9841 61.4328C97.81 61.4032 97.6316 61.4117 97.4612 61.4579C97.2908 61.504 97.1324 61.5867 96.9972 61.7001C96.404 62.1532 96.3838 62.9181 96.2763 63.5949C96.1457 64.4089 95.9366 65.2085 95.6518 65.9822C95.6138 66.1246 95.6333 66.2762 95.7061 66.4043C95.7789 66.5325 95.8991 66.6269 96.0409 66.6673C96.1833 66.7034 96.3342 66.6831 96.4619 66.6106C96.5896 66.5381 96.6844 66.419 96.7262 66.2783L96.7258 66.2769Z" fill="#726A69"/>
<path d="M38.8788 70.1414C39.1109 70.2063 39.3553 70.214 39.591 70.1637C39.8267 70.1135 40.0467 70.0068 40.232 69.8528C40.3859 69.6973 40.5052 69.511 40.5819 69.3062C40.6586 69.1014 40.691 68.8827 40.6771 68.6644C40.6618 67.9206 40.0825 67.2921 39.5395 66.8427C39.0034 66.406 38.4257 66.0229 37.8145 65.6992C37.2401 65.4242 36.6131 65.2762 35.9763 65.2653C35.0897 65.2026 34.1993 65.216 33.315 65.3055C33.1685 65.3095 33.0291 65.3694 32.9254 65.473C32.8218 65.5765 32.7618 65.7159 32.7578 65.8623C32.7588 66.0096 32.8179 66.1507 32.9222 66.2549C33.0264 66.3591 33.1675 66.4181 33.315 66.4191C34.1427 66.3368 34.9757 66.3197 35.8061 66.3681C36.1428 66.3804 36.4777 66.422 36.8072 66.4922C36.8673 66.5063 36.9268 66.5233 36.9864 66.54C37.0222 66.551 37.0576 66.5629 37.0927 66.5757C37.0463 66.5541 37.0421 66.5525 37.0842 66.5727C37.1975 66.6263 37.3066 66.6901 37.4157 66.7516C38.024 67.0683 38.5864 67.4664 39.0873 67.9348C39.3002 68.1155 39.4629 68.348 39.5597 68.6099C39.6215 68.919 39.4884 69.1359 39.1732 69.0686C38.4739 68.919 38.1749 69.9922 38.8769 70.1423L38.8788 70.1414Z" fill="#726A69"/>
<path d="M34.7923 68.5298C35.9995 68.5356 36.9994 68.9572 38.0077 69.5778C38.1166 69.6449 38.2238 69.7142 38.3288 69.7866C38.3492 69.8008 38.4623 69.8834 38.4346 69.8618C38.4017 69.8365 38.5043 69.9205 38.5194 69.9328C38.6629 70.0485 38.761 70.2111 38.7966 70.3919C38.8098 70.4835 38.8 70.577 38.768 70.6638C38.755 70.7013 38.7601 70.6911 38.7831 70.6332C38.7731 70.6545 38.762 70.6754 38.7502 70.6956C38.7399 70.7105 38.661 70.8223 38.6937 70.7833C38.6465 70.834 38.5916 70.877 38.5312 70.9109C38.453 70.9566 38.366 70.9854 38.2758 70.9954C38.1293 70.9993 37.9899 71.0593 37.8863 71.1629C37.7826 71.2664 37.7226 71.4058 37.7187 71.5522C37.7197 71.6995 37.7787 71.8406 37.883 71.9448C37.9873 72.049 38.1284 72.108 38.2758 72.109C38.9853 72.0394 39.6688 71.6292 39.8578 70.9002C40.0732 70.0671 39.6333 69.369 38.9846 68.8934C37.7751 67.9752 36.3084 67.4584 34.7902 67.4153C34.073 67.4118 34.0721 68.5254 34.7902 68.5289L34.7923 68.5298Z" fill="#726A69"/>
<path d="M35.2024 70.7799C35.217 70.7818 35.3125 70.7936 35.2222 70.7818C35.2498 70.7853 35.2774 70.7894 35.305 70.7936C35.3686 70.8029 35.4325 70.8131 35.4961 70.824C35.6303 70.8472 35.764 70.8744 35.8966 70.9064C36.0199 70.9363 36.142 70.9704 36.2627 71.0096C36.3238 71.0293 36.3841 71.0502 36.4443 71.0723L36.522 71.102C36.5476 71.1119 36.6381 71.1516 36.5701 71.1212C37.0023 71.324 37.41 71.5754 37.7852 71.8706C37.7924 71.8759 37.8864 71.9476 37.8456 71.917C37.8098 71.8896 37.8892 71.9499 37.8846 71.9474C37.9078 71.9613 37.958 72.0504 37.8544 71.9072C37.8653 71.9223 37.9008 71.9641 37.853 71.8996C37.8094 71.8411 37.8412 71.878 37.8498 71.9135C37.8635 71.9717 37.84 71.855 37.8428 71.8541C37.8456 71.8532 37.8428 71.9891 37.8428 72.0065C37.8428 72.0887 37.8581 71.9945 37.8481 71.9768C37.8474 71.997 37.8435 72.0168 37.8368 72.0358C37.8245 72.0803 37.8154 72.1256 37.8012 72.1696C37.7957 72.1875 37.7864 72.2061 37.7824 72.2244C37.7666 72.2954 37.8356 72.1365 37.7961 72.1935C37.7875 72.2086 37.7798 72.2241 37.7729 72.2399C37.7578 72.2678 37.7072 72.3181 37.7646 72.2655C37.8219 72.2128 37.7801 72.245 37.7664 72.2597C37.6968 72.3339 37.7927 72.2293 37.7982 72.2365C37.7982 72.2365 37.7546 72.2615 37.7518 72.2629C37.6879 72.2956 37.8546 72.2397 37.782 72.2499C37.7397 72.2557 37.6924 72.2743 37.6503 72.284C37.6225 72.2905 37.5832 72.2787 37.6457 72.2854C37.7293 72.2942 37.6167 72.284 37.5993 72.2854C37.5528 72.2854 37.5064 72.2787 37.4623 72.2815C37.4015 72.2854 37.5131 72.2829 37.5171 72.2907C37.4941 72.285 37.4709 72.2806 37.4474 72.2775C37.372 72.2578 37.298 72.233 37.2259 72.2033C36.9442 72.0926 36.6497 72.0178 36.3493 71.9808C36.0257 71.9559 35.7031 72.0405 35.4334 72.2209C35.3702 72.2578 35.3149 72.3068 35.2707 72.3651C35.2265 72.4233 35.1941 72.4897 35.1756 72.5605C35.157 72.6312 35.1526 72.705 35.1625 72.7774C35.1725 72.8499 35.1966 72.9197 35.2335 72.9828C35.2705 73.046 35.3195 73.1012 35.3778 73.1454C35.4361 73.1896 35.5025 73.2219 35.5733 73.2405C35.6441 73.259 35.7179 73.2635 35.7904 73.2535C35.8629 73.2436 35.9328 73.2195 35.9959 73.1826C36.0203 73.1673 36.1852 73.0831 36.0795 73.1264C36.1081 73.1148 36.2256 73.0592 36.253 73.074C36.2597 73.0777 36.1137 73.0661 36.2179 73.0835C36.2513 73.0893 36.2896 73.0879 36.3231 73.0914C36.2975 73.0886 36.2246 73.0719 36.3324 73.0953C36.3753 73.1046 36.4183 73.1134 36.461 73.1241C36.6859 73.1805 36.8951 73.2837 37.1182 73.3434C37.6661 73.49 38.3649 73.3724 38.6927 72.8717C38.9713 72.4471 39.0821 71.7657 38.7991 71.3196C38.6809 71.1641 38.5356 71.0312 38.37 70.9275C38.2461 70.8347 38.1205 70.7419 37.9925 70.6535C37.7767 70.5024 37.5506 70.3667 37.3158 70.2472C36.6499 69.9335 35.9346 69.7373 35.2017 69.6672C35.0539 69.6672 34.9122 69.7259 34.8077 69.8303C34.7032 69.9347 34.6445 70.0764 34.6445 70.224C34.6488 70.3704 34.7089 70.5095 34.8125 70.6131C34.916 70.7166 35.0553 70.7766 35.2017 70.7809L35.2024 70.7799Z" fill="#726A69"/>
<path d="M30.4606 65.168C28.5666 67.6356 28.7765 70.847 28.0333 73.7181C27.9506 74.0632 27.8503 74.4039 27.7329 74.7389C27.5621 75.1171 27.4223 75.5087 27.315 75.9096C27.192 76.5592 27.7956 76.7499 28.2843 76.9095C28.7314 77.0555 29.178 77.2031 29.6241 77.3522C30.5502 77.6608 31.4751 77.9728 32.4019 78.2802C32.667 78.3679 32.941 78.4967 33.2103 78.3498C33.4487 78.2192 33.5007 77.9703 33.5869 77.7352C33.6429 77.5774 33.7088 77.4233 33.7842 77.2738C33.8262 77.1916 33.8741 77.1139 33.9235 77.0357C33.9678 76.9645 33.9481 77.0012 33.9414 77.01C33.9878 76.9473 33.9548 76.9845 33.9827 76.9675C34.2065 76.8644 34.4381 76.7791 34.6752 76.7123C34.9096 76.6253 35.1313 76.5076 35.3346 76.3622C35.7268 76.0607 36.0455 75.6743 36.2667 75.2319C36.628 74.4731 36.8745 73.6649 36.998 72.8337C37.0334 72.6914 37.0127 72.541 36.9403 72.4136C36.8679 72.2861 36.7493 72.1913 36.6089 72.1488C36.4665 72.1108 36.3148 72.1303 36.1866 72.2031C36.0584 72.2758 35.964 72.3959 35.9236 72.5376C35.7406 73.5023 35.5658 74.6384 34.818 75.3502C34.3683 75.7783 33.6665 75.7402 33.2184 76.1574C32.7973 76.5492 32.5974 77.1782 32.4191 77.7079L32.6745 77.3749L32.6478 77.3882L33.0773 77.332C32.2394 77.0566 31.4036 76.7752 30.5674 76.4968C30.1564 76.3593 29.7454 76.2223 29.3341 76.0859C29.1447 76.0231 28.9551 75.9606 28.7653 75.8984C28.5708 75.8532 28.3807 75.7902 28.1977 75.7103L28.3976 75.9103L28.3895 75.9119V76.2079C28.4857 75.8167 28.6213 75.4362 28.7943 75.0723C28.9092 74.7508 29.0073 74.4237 29.0883 74.0921C29.2969 73.2611 29.4597 72.4194 29.5758 71.5706C29.7615 70.2844 29.924 68.9903 30.3419 67.7541C30.5877 67.0251 30.9529 66.3419 31.4227 65.7324C31.4964 65.6047 31.5168 65.4531 31.4794 65.3104C31.442 65.1678 31.3497 65.0457 31.2228 64.9705C31.0943 64.8997 30.9435 64.8809 30.8016 64.9181C30.6597 64.9553 30.5375 65.0456 30.4603 65.1703L30.4606 65.168Z" fill="#726A69"/>
<path d="M34.9851 66.1125C35.257 65.8073 35.6276 65.6073 36.0322 65.5476C36.6217 65.4355 37.2168 65.3546 37.8149 65.3052C38.3489 65.2523 38.8643 65.2181 39.2829 64.8428C39.4988 64.6489 39.651 64.3944 39.7195 64.1125C39.788 63.8307 39.7697 63.5347 39.6669 63.2635C39.2413 62.1434 37.9345 62.2283 36.9434 62.2313C35.7301 62.235 34.3938 62.2777 33.252 62.7169C32.0466 63.1809 31.2185 64.1586 30.4617 65.1687C30.388 65.2964 30.3676 65.448 30.4051 65.5906C30.4425 65.7332 30.5346 65.8553 30.6616 65.9304C30.79 66.0015 30.9408 66.0204 31.0828 65.9832C31.2248 65.946 31.347 65.8555 31.424 65.7307C31.7213 65.3304 32.0477 64.9525 32.4005 64.6001C32.6578 64.3129 32.9654 64.075 33.3082 63.8983C34.2204 63.4428 35.3194 63.3981 36.3196 63.3584C36.7855 63.3398 37.2517 63.3405 37.7184 63.3603C38.0476 63.3739 38.3733 63.319 38.5604 63.5412C38.5985 63.5862 38.6248 63.6399 38.6369 63.6976C38.6491 63.7553 38.6466 63.815 38.6298 63.8715C38.6131 63.928 38.5825 63.9794 38.5409 64.0212C38.4992 64.0629 38.4479 64.0936 38.3914 64.1106C38.0564 64.2402 37.5788 64.2119 37.2023 64.2528C36.5923 64.3018 35.9877 64.4028 35.3949 64.5544C34.9383 64.7082 34.5271 64.973 34.1983 65.3251C33.6732 65.8153 34.4623 66.6011 34.9863 66.1125H34.9851Z" fill="#726A69"/>
<path d="M16.9519 13.3598L21.1225 9.19202L27.7224 2.59657L29.2456 1.07439H28.4576L32.6282 5.24306L39.2281 11.8385L40.7513 13.3607C41.2591 13.8681 42.0472 13.0809 41.5393 12.5733L37.3687 8.40459L30.7688 1.80938L29.2456 0.286959C29.14 0.184653 28.9987 0.127441 28.8516 0.127441C28.7045 0.127441 28.5632 0.184653 28.4576 0.286959L24.2882 4.45424L17.6872 11.0501L16.1639 12.5723C15.6562 13.0797 16.4439 13.8674 16.9519 13.3598Z" fill="#726A69"/>
<path d="M34.9462 14.6338H29.8052C29.6581 14.6358 29.5176 14.6951 29.4135 14.7991C29.3094 14.9031 29.2501 15.0436 29.248 15.1906V19.7959C29.2501 19.9429 29.3095 20.0833 29.4136 20.1873C29.5176 20.2913 29.6581 20.3506 29.8052 20.3527H34.9462C35.0934 20.3506 35.2339 20.2913 35.3379 20.1873C35.4419 20.0833 35.5013 19.9429 35.5034 19.7959V15.1906C35.5034 14.4739 34.389 14.4728 34.389 15.1906V19.7959L34.9462 19.2391H29.8052L30.3624 19.7959V15.1906L29.8052 15.7474H34.9462C35.6639 15.7474 35.6639 14.6338 34.9462 14.6338Z" fill="#726A69"/>
<path d="M17.8918 18.0497H23.8133L23.2562 17.4928V26.0752C23.2562 26.7916 24.3705 26.7928 24.3705 26.0752V17.4928C24.3685 17.3458 24.3091 17.2054 24.2051 17.1014C24.101 16.9974 23.9605 16.9381 23.8133 16.936H17.8918C17.1747 16.936 17.1735 18.0497 17.8918 18.0497Z" fill="#726A69"/>
</g>
</svg>
