<svg width="100" height="80" viewBox="0 0 100 80" fill="none" xmlns="http://www.w3.org/2000/svg">
<mask id="mask0_1592_29184" style="mask-type:alpha" maskUnits="userSpaceOnUse" x="0" y="0" width="100" height="80">
<rect width="100" height="80" fill="#D9D9D9"/>
</mask>
<g mask="url(#mask0_1592_29184)">
<path d="M45.6879 74.52C45.3969 72.6073 44.9555 70.7286 44.0407 69.0003C43.6187 68.1964 43.0992 67.4476 42.4938 66.7708C41.8751 66.1071 41.152 65.5491 40.353 65.1187C38.1888 63.8599 35.6471 63.3164 33.2279 62.7959C32.3429 64.5202 31.4099 66.3084 30.0332 67.7991C29.3611 67.1896 27.1966 64.8775 27.1118 64.779C27.0016 64.6513 26.9854 64.3259 27.1719 64.2357L26.3054 64.266C26.4976 64.3429 26.5038 64.6688 26.4031 64.8037C26.3253 64.9079 24.3276 67.3653 23.6996 68.0201C22.2378 66.6441 21.189 64.9464 20.1953 63.3052C15.8774 64.6285 13.7596 65.4026 11.8172 66.7427C10.4669 67.673 9.65237 68.8941 8.94213 70.6464C8.54287 72.076 8.25195 73.3291 8.03125 74.52" fill="white"/>
<path d="M30.0324 67.7989C31.3917 66.3274 32.3183 64.5652 33.1932 62.862C32.7414 62.1249 32.1643 61.4723 31.4878 60.9336C30.2647 62.2904 28.8012 63.4096 27.171 64.2348C26.9848 64.325 27.001 64.6504 27.1108 64.7781C27.1961 64.8764 29.3605 67.1893 30.0324 67.7989Z" fill="white"/>
<path d="M36.4634 42.223C37.0624 44.1633 37.1342 46.2279 36.6712 48.205L36.6373 48.3592C36.8039 48.3943 36.9616 48.463 37.1007 48.561C37.2399 48.659 37.3576 48.7843 37.4467 48.9292C37.8769 49.6125 37.9094 50.9009 37.6692 51.7079C37.4993 52.2796 37.2186 53.1547 36.4855 53.8027C36.3241 53.9477 36.1345 54.0576 35.9285 54.1256C35.7225 54.1937 35.5047 54.2184 35.2887 54.1981L35.1719 54.1829C35.0728 54.5723 34.9482 54.9548 34.7991 55.3279C34.5251 56.17 32.9533 59.132 30.8647 60.3683C30.8647 60.3883 30.8647 60.4005 30.8647 60.4005V61.5797C29.7804 62.6529 28.5338 63.5488 27.1706 64.2345L26.3041 64.2647C24.6203 63.5549 23.0823 62.5402 21.7675 61.2717C21.7675 61.2717 21.7675 60.8631 21.7675 60.4282C20.9785 59.9484 20.268 59.3502 19.6609 58.6546C18.6752 57.5534 17.9255 56.2622 17.4579 54.8606C17.231 54.9177 16.9941 54.9224 16.7651 54.8744C16.5361 54.8263 16.3211 54.7268 16.1363 54.5833C15.3557 53.9934 15.0084 53.1423 14.7951 52.5855C14.4942 51.7992 14.4273 50.5122 14.8035 49.7986C14.9531 49.507 15.2113 49.2858 15.5226 49.1829L15.4737 49.0205C15.1302 47.9132 14.9502 46.7618 14.9394 45.6026C14.9209 43.9289 15.2879 42.2735 16.0122 40.7644C16.7364 39.2552 17.7984 37.9328 19.116 36.8995C20.9439 35.4463 23.1976 34.6311 25.5328 34.5784C27.865 34.4513 30.1746 35.0907 32.1088 36.3989C34.1832 37.7865 35.7198 39.8417 36.4634 42.223Z" fill="white"/>
<path d="M83.1631 50.7061C83.3013 50.5926 83.4606 50.5075 83.6319 50.4559C83.8032 50.4043 83.983 50.3871 84.161 50.4054C84.3883 50.4112 84.6097 50.4785 84.8017 50.6002C84.9937 50.7219 85.1491 50.8933 85.2513 51.0963C85.5953 51.782 85.5081 53.0036 85.2071 53.7453C84.9938 54.2704 84.6482 55.0726 83.8952 55.6183C83.7293 55.7407 83.5399 55.8274 83.3389 55.8729C83.1378 55.9185 82.9295 55.9219 82.7271 55.883L82.6181 55.8579C82.4885 56.2172 82.3357 56.5676 82.1605 56.9069C81.8712 57.57 80.5305 59.6293 78.8316 60.8152C78.8344 61.1587 78.829 61.3538 78.8659 61.8598C78.8728 62.1336 78.9191 62.4049 79.0033 62.6654C79.1193 62.9999 79.3234 63.2968 79.5942 63.525C80.1947 64.0084 80.8118 64.2392 81.5718 64.5251L82.266 64.7979C79.8193 66.026 77.1288 66.6918 74.3913 66.7464C71.743 66.7568 68.269 65.8441 66.4079 64.8042L67.1191 64.5247C67.8795 64.24 68.4955 64.0074 69.0954 63.5242C69.4106 63.3084 69.7091 63.0691 69.9882 62.8084C70.3632 62.3894 70.4916 61.8582 70.5995 61.2257C69.4297 60.7551 68.4421 59.8916 67.5355 58.6691C66.7039 57.5377 66.113 56.248 65.7992 54.8797C65.5793 54.9129 65.3547 54.8956 65.1425 54.8292C64.9302 54.7627 64.7359 54.6488 64.5743 54.4961C63.8897 53.8668 63.6394 53.0299 63.4885 52.4835C63.2756 51.7122 63.3306 50.4888 63.7521 49.8474C63.8771 49.6575 64.0514 49.5051 64.2564 49.4065C64.4613 49.3078 64.6893 49.2667 64.9158 49.2874C65.0947 49.2899 65.2713 49.3278 65.4355 49.3989C65.5996 49.47 65.7481 49.5729 65.8722 49.7016C65.8722 49.7016 64.8516 41.3062 74.4212 41.3062C83.9909 41.3062 83.1631 50.7061 83.1631 50.7061Z" fill="white"/>
<path d="M67.2051 20.9177C67.2051 19.7147 67.2051 18.0642 67.2051 16.4679C67.2051 16.4679 81.3961 11.1998 85.8346 9.55469C87.8008 11.4831 90.0788 13.7076 91.7406 15.3661C91.7406 16.5218 91.7406 19.1261 91.7406 20.0564C87.2567 21.7839 78.0584 25.1735 73.2925 26.9034C71.3729 25.0342 67.3664 21.0833 67.2051 20.9177Z" fill="white"/>
<path d="M58.8351 22.5078V27.9425H40.0078V22.5078H58.8351Z" fill="white"/>
<path d="M56.826 19.7388V22.5083H42.0234V19.7388H56.826Z" fill="white"/>
<path d="M54.8655 5.48096V19.7388H43.9785C43.9785 18.1962 44.0331 7.55371 44.0331 5.48096H54.8655Z" fill="white"/>
<path d="M89.9644 74.5205C89.9805 74.1094 89.9905 73.7024 89.9986 73.3054C89.9965 70.1316 88.9472 68.4875 87.5488 67.2865C86.2519 66.0115 84.6731 65.2815 82.6018 64.6187C80.0713 65.9631 77.2592 66.6922 74.3938 66.7469C71.6494 66.7578 68.0203 65.7773 66.2158 64.6918C63.5285 65.5871 60.9022 66.2431 59.3246 68.6172C58.7264 69.5876 58.2519 70.6289 57.9121 71.7169C57.6614 72.6232 57.4326 73.5434 57.248 74.5199L89.9644 74.5205Z" fill="white"/>
<path d="M8.63672 22.6839V15.0533L18.1081 5.58838L27.5794 15.0533V27.5335H8.63672V22.6839Z" fill="white"/>
<path d="M82.5724 55.847C82.4933 55.696 82.3746 55.5694 82.229 55.4807C82.0834 55.3921 81.9163 55.3447 81.7458 55.3438C81.1284 55.4039 80.9433 55.8035 80.8724 56.1774C80.8443 56.324 80.8122 56.5475 80.7922 56.7262L80.7791 56.7103C80.6858 56.5803 80.5621 56.475 80.4187 56.4036C80.2753 56.3322 80.1167 56.2969 79.9565 56.3007C79.4889 56.344 79.1865 56.6975 79.0748 57.2517C78.906 58.1032 78.5605 59.5296 78.2616 60.6443C78.2788 60.259 78.2887 59.8995 78.3005 59.4662C78.3042 59.2717 78.2682 59.0784 78.1948 58.8982C78.1626 58.816 78.1116 58.7426 78.0457 58.6838C77.9799 58.625 77.9011 58.5826 77.8158 58.5599C77.6734 58.5402 77.5283 58.5637 77.3995 58.6275C77.2707 58.6912 77.1641 58.7923 77.0935 58.9174C76.9779 59.1831 76.9073 59.4661 76.8846 59.7549C76.7812 60.5727 76.5848 61.3761 76.2992 62.1495C75.7212 63.5141 74.0503 65.2572 73.8416 66.3676C73.7252 66.9869 73.8268 67.4903 73.9092 68.0377C73.9929 68.5915 74.1678 69.1902 74.1947 69.8861C74.2549 70.8022 74.2975 71.47 74.3366 72.2057C76.079 71.8251 77.8178 71.427 79.5531 71.0113C79.2682 70.256 79.0599 69.509 79.1137 69.0063C79.1238 68.0023 79.458 67.0283 80.0667 66.2294C80.2856 65.9245 80.4864 65.648 80.6722 65.3775C80.9143 65.0321 81.1354 64.6725 81.3343 64.3006C81.4346 64.1105 81.5283 63.9125 81.6186 63.6991C82.2181 61.7561 82.5842 58.437 82.6693 56.7053C82.7108 56.4156 82.6774 56.1202 82.5724 55.847Z" fill="white"/>
<path d="M18.8723 63.5965C19.0855 62.8579 19.4384 62.167 19.9119 61.5612C20.2915 61.0369 20.7282 60.5564 21.2141 60.1285C21.5465 59.8329 22.2443 59.5047 23.1287 59.3941C24.1643 59.2577 25.211 59.2266 26.2528 59.3012C26.468 59.3102 26.6714 59.4017 26.8209 59.5567C26.9703 59.7117 27.0543 59.9183 27.0553 60.1335C27.0445 60.3207 26.9697 60.4985 26.8434 60.6372C26.7171 60.7759 26.547 60.867 26.3615 60.8954C25.8862 60.969 25.2304 60.9898 24.4405 61.1332C23.5376 61.2972 23.5121 61.381 23.0669 61.7948L23.0256 61.8566C23.9132 61.8385 24.9697 61.8903 25.4384 62.104C25.6146 62.1842 26.2556 62.5569 26.4147 62.667C27.1635 63.1845 27.5535 63.561 27.7862 64.0438C27.876 64.3112 27.8596 64.6028 27.7403 64.8584C27.648 65.0455 27.337 65.2913 26.8469 65.1377C26.9844 65.2622 27.0857 65.4215 27.1401 65.5988C27.1946 65.776 27.2001 65.9647 27.1562 66.1448C27.0962 66.3395 26.9771 66.5107 26.8153 66.6345C26.6535 66.7584 26.4571 66.8289 26.2534 66.8361C26.4518 67.024 26.3435 67.5259 26.1888 67.7428C26.0271 67.9698 25.5678 67.9882 25.3261 67.902C25.1237 67.8196 24.915 67.7535 24.7021 67.7045C24.6888 67.7739 24.682 67.8134 24.682 67.8134C24.6347 68.0592 24.5384 68.6294 24.4597 68.8674C24.2372 69.5595 23.918 70.3264 23.285 70.6979C22.969 70.844 22.6459 70.9739 22.3167 71.0873C22.0431 71.2154 21.7997 71.8416 21.6547 72.2815C21.6539 72.2837 21.6527 72.2858 21.6511 72.2876C21.6495 72.2894 21.6476 72.2909 21.6455 72.2919C21.6433 72.293 21.641 72.2936 21.6386 72.2937C21.6362 72.2938 21.6338 72.2935 21.6316 72.2927C20.2568 71.8414 18.6467 71.2902 17.3581 70.8752C17.3371 70.8684 17.3176 70.8574 17.3009 70.843C17.2842 70.8285 17.2706 70.8108 17.2609 70.791C17.2512 70.7712 17.2456 70.7496 17.2444 70.7275C17.2432 70.7055 17.2464 70.6834 17.2539 70.6627C17.4654 70.069 17.603 69.749 17.7337 69.355C17.9173 68.6973 18.0652 68.0301 18.1765 67.3564C18.4373 65.5921 18.5175 64.8979 18.7489 64.0141C18.7884 63.8666 18.8303 63.7276 18.8723 63.5965Z" fill="white"/>
<path d="M81.8864 46.4783C81.5168 45.7534 81.0454 45.085 80.4866 44.4934L79.0665 43.2557C78.1837 44.3015 76.8611 44.971 75.6525 45.381C74.0779 45.9161 73.0386 45.7128 71.3908 45.213C71.0004 45.3854 70.5869 45.529 70.2288 45.6457C69.4238 45.9081 68.5073 45.9965 67.7596 46.3931C67.1537 46.7475 66.6863 47.2971 66.434 47.9518C66.2682 48.3406 65.9859 49.3054 65.8722 49.7001C65.748 49.5714 65.5996 49.4685 65.4354 49.3974C65.2713 49.3263 65.0947 49.2884 64.9158 49.2859C64.7778 49.2817 64.6398 49.2948 64.5051 49.325C64.1861 48.2286 64.0442 47.0883 64.0849 45.9472C64.2918 42.3009 65.9857 39.8896 67.8017 38.9163C69.5071 36.8145 72.3962 35.6869 75.357 36.0075C77.2225 36.2057 78.9997 36.9044 80.5002 38.0297L82.2475 39.5698C83.9529 41.0719 85.2073 43.6208 85.1519 47.1037C85.1264 48.2554 84.9203 49.3961 84.5414 50.4841C84.4178 50.4434 84.2899 50.4172 84.1602 50.4061C83.9822 50.3878 83.8024 50.405 83.6311 50.4567C83.4598 50.5083 83.3004 50.5933 83.1622 50.7068L82.8049 51.0122L82.7718 50.0424C82.7418 48.8039 82.4395 47.5871 81.8864 46.4783Z" fill="#65B005"/>
<path d="M79.2744 12.3543L79.0214 12.1055C77.614 12.6278 76.1523 13.1681 74.7168 13.6984C76.7749 15.6874 78.9361 17.7202 80.8963 19.6679V24.1179C82.2789 23.6077 83.6865 23.0862 85.0446 22.5805V18.0322C83.2139 16.1798 81.2039 14.25 79.2744 12.3543Z" fill="#65B005"/>
<path d="M23.3745 18.1279H18.9316V22.1078H23.3745V18.1279Z" fill="#65B005"/>
<path d="M16.6624 49.2109C16.4429 49.117 16.204 49.0771 15.9658 49.0946C15.8155 49.1043 15.6671 49.1337 15.5244 49.182C15.1495 48.0251 14.9525 46.8181 14.9402 45.6021C14.9131 43.2575 15.6454 40.9669 17.0278 39.0723C17.2852 39.7207 18.3461 40.2779 18.8736 40.6474C19.5919 41.1498 19.4978 41.8558 19.1328 42.5343C18.5525 43.6141 18.0856 44.751 17.7394 45.9269C17.3997 47.0792 17.2531 48.2663 17.0087 49.4308C16.9056 49.3397 16.7887 49.2655 16.6624 49.2109Z" fill="#65B005"/>
<path d="M35.4456 48.5462C35.3359 48.6172 35.2377 48.7045 35.1543 48.8051C34.81 47.6422 34.5725 46.444 34.1361 45.2986C33.7006 44.1527 33.1477 43.0549 32.4863 42.0226C32.0703 41.374 31.9221 40.6775 32.5998 40.1215C33.1148 39.6988 34.1808 39.0332 34.3381 38.3433C35.6491 39.8486 36.7084 41.935 36.9365 44.7578C37.0266 45.9666 36.9266 47.182 36.64 48.3598C36.5067 48.3298 36.3703 48.3153 36.2337 48.3167C35.9546 48.3171 35.6813 48.3967 35.4456 48.5462Z" fill="#65B005"/>
<path d="M72.4859 18.4576C72.088 18.6036 72.0194 18.8935 72.2615 19.1138C72.4163 19.2415 72.603 19.3244 72.8015 19.3537C72.9999 19.383 73.2027 19.3575 73.3877 19.28C73.8056 19.1242 73.8781 18.872 73.6008 18.6184C73.4436 18.4998 73.2589 18.4229 73.064 18.3948C72.8691 18.3667 72.6702 18.3883 72.4859 18.4576Z" fill="#4A3E42"/>
<path d="M74.1414 17.8496C73.75 17.9933 73.6832 18.2803 73.9222 18.4992C74.0739 18.626 74.2577 18.7087 74.4533 18.7383C74.6489 18.7679 74.8489 18.7432 75.0315 18.667C75.4426 18.5138 75.513 18.264 75.2397 18.012C75.0854 17.8943 74.9036 17.8176 74.7115 17.7892C74.5195 17.7608 74.3233 17.7816 74.1414 17.8496Z" fill="#4A3E42"/>
<path d="M75.7739 17.2502C75.3887 17.3915 75.3235 17.6758 75.5594 17.8934C75.7083 18.0193 75.8891 18.1017 76.0819 18.1315C76.2747 18.1614 76.472 18.1375 76.6521 18.0626C77.0567 17.9118 77.1258 17.6646 76.8557 17.4142C76.7042 17.2971 76.5254 17.2206 76.3361 17.1919C76.1468 17.1632 75.9533 17.1833 75.7739 17.2502Z" fill="#4A3E42"/>
<path d="M85.5876 15.7714C85.5157 15.6953 85.4744 15.5953 85.4716 15.4906C85.4688 15.386 85.5048 15.284 85.5726 15.2042C85.7995 14.8735 85.4871 14.5142 85.1568 14.4802C84.8358 14.4469 84.4267 14.3368 84.2423 14.0483C84.2247 14.022 84.209 13.9944 84.1956 13.9657C84.1898 13.9518 84.1609 13.8281 84.1661 13.8706C84.1622 13.837 84.1667 13.803 84.1794 13.7716C84.2244 13.6746 84.2999 13.5949 84.3944 13.5448C84.7758 13.3482 85.2191 13.3089 85.6291 13.4352C85.83 13.4848 86.0082 13.6008 86.1348 13.7644C86.2613 13.9279 86.3289 14.1294 86.3265 14.3362C86.3287 14.4632 86.3801 14.5843 86.4699 14.6741C86.5598 14.7639 86.681 14.8153 86.8081 14.8174C87.5354 14.8134 88.1629 14.8776 88.7711 15.309C88.8816 15.3725 89.0126 15.3899 89.1359 15.3576C89.2592 15.3253 89.3648 15.2459 89.4299 15.1364C89.4917 15.0256 89.5082 14.8952 89.476 14.7726C89.4438 14.6499 89.3654 14.5444 89.2572 14.4782C88.5205 13.9569 87.6894 13.85 86.8081 13.855L87.2896 14.3362C87.2881 13.9326 87.1581 13.54 86.9185 13.2151C86.6789 12.8902 86.3421 12.65 85.9568 12.5291C85.2846 12.3074 84.3934 12.3673 83.805 12.7821C83.5353 12.9547 83.3404 13.2222 83.2589 13.5316C83.1773 13.8411 83.2151 14.1698 83.3648 14.4527C83.7083 15.1155 84.4612 15.3704 85.1568 15.4426L84.7409 14.7184C84.5636 14.9819 84.4832 15.2986 84.5134 15.6147C84.5436 15.9308 84.6826 16.2267 84.9067 16.4519C85.3605 16.8729 86.043 16.1938 85.5876 15.7714Z" fill="#4A3E42"/>
<path d="M71.7227 15.9929C71.2163 16.1677 70.7066 16.3338 70.2012 16.5112C70.0817 16.5473 69.9794 16.6257 69.9135 16.7317C69.8652 16.8144 69.8426 16.9095 69.8486 17.0051C69.8547 17.1006 69.8891 17.1922 69.9475 17.268C70.0059 17.3439 70.0856 17.4007 70.1764 17.431C70.2673 17.4614 70.3651 17.464 70.4575 17.4385C70.9627 17.2603 71.4723 17.0952 71.9787 16.9202C72.0983 16.8843 72.2007 16.8058 72.2664 16.6997C72.3147 16.6171 72.3373 16.5219 72.3312 16.4264C72.3252 16.3309 72.2908 16.2394 72.2324 16.1635C72.1741 16.0876 72.0944 16.0309 72.0036 16.0005C71.9128 15.9701 71.815 15.9675 71.7227 15.9929Z" fill="#4A3E42"/>
<path d="M68.5283 18.285L73.051 22.7345C73.1109 22.795 73.1859 22.8385 73.2683 22.8603C73.3507 22.882 73.4374 22.8814 73.5195 22.8584C75.9718 22.0009 78.4139 21.1141 80.8544 20.2241C80.9758 20.1873 81.0783 20.1053 81.1409 19.9951C81.2035 19.8849 81.2213 19.7549 81.1907 19.632C81.1558 19.5095 81.0742 19.4057 80.9634 19.3428C80.8526 19.2799 80.7215 19.2631 80.5984 19.2959C78.1579 20.1862 75.7158 21.073 73.2634 21.9303L73.7319 22.054L69.2092 17.6045C68.7678 17.1697 68.0857 17.8498 68.5283 18.285Z" fill="#4A3E42"/>
<path d="M78.7197 12.4843C80.7148 14.4466 82.7364 16.3822 84.7042 18.3719L84.5638 18.0311V22.5417C84.5638 23.1608 85.5268 23.1618 85.5268 22.5417V19.291C85.5268 18.876 85.5509 18.4529 85.5268 18.0383C85.511 17.7642 85.3025 17.6068 85.1227 17.426C84.8563 17.158 84.5888 16.8906 84.3202 16.624C83.8309 16.1378 83.3396 15.6536 82.8461 15.1712C81.6989 14.0484 80.5457 12.9298 79.4006 11.8028C78.9592 11.3679 78.2771 12.048 78.7197 12.4833V12.4843Z" fill="#4A3E42"/>
<path d="M74.4249 14.0866C76.4681 16.0601 78.5379 18.0063 80.554 20.0081L80.4136 19.6673V24.0441C80.4136 24.6633 81.3766 24.6643 81.3766 24.0441V20.8173C81.3766 20.4364 81.3997 20.0484 81.3766 19.6687C81.3566 19.3479 81.0474 19.1404 80.8349 18.9312C80.5756 18.6754 80.3153 18.4204 80.0543 18.1661C79.5579 17.6823 79.0597 17.2004 78.5597 16.7205C77.4093 15.6148 76.2536 14.5151 75.106 13.4061C74.6602 12.9754 73.9783 13.6551 74.4251 14.0866H74.4249Z" fill="#4A3E42"/>
<path d="M90.2508 15.6469C88.5155 16.3217 86.7766 16.9865 85.0343 17.6415C84.9131 17.6784 84.8107 17.7604 84.7481 17.8706C84.6856 17.9807 84.6677 18.1106 84.6981 18.2336C84.7329 18.3561 84.8145 18.46 84.9253 18.5228C85.0361 18.5857 85.1672 18.6025 85.2903 18.5696C87.0318 17.9112 88.7707 17.2462 90.5068 16.5748C90.628 16.5378 90.7303 16.4559 90.7929 16.3458C90.8555 16.2357 90.8735 16.1059 90.8433 15.983C90.8085 15.8604 90.7269 15.7564 90.616 15.6935C90.5051 15.6307 90.374 15.6139 90.2508 15.6469Z" fill="#4A3E42"/>
<path d="M67.6867 20.9171C67.6867 19.4334 67.6867 17.9501 67.6867 16.4672L67.3332 16.9312C69.0149 16.2934 70.7024 15.6704 72.3876 15.0413C75.5463 13.8619 78.7069 12.6869 81.8693 11.5163C83.2322 11.0131 84.5953 10.5098 85.9623 10.018L85.4938 9.89427C87.5001 11.792 89.497 13.7037 91.3998 15.7057L91.2761 15.4934C91.2478 15.4264 91.2652 15.3831 91.2602 15.483C91.2582 15.5241 91.2602 15.5666 91.2614 15.6077C91.2614 15.6889 91.2619 15.7702 91.263 15.8515C91.2642 16.0445 91.265 16.2377 91.2654 16.4311C91.2666 16.8794 91.2666 17.3278 91.2654 17.7763C91.2656 18.5362 91.2633 19.2965 91.2586 20.0573L91.3242 19.8143V19.8155L91.6119 19.595C89.3369 20.4712 87.0529 21.3233 84.7681 22.1734C82.1291 23.1553 79.4874 24.1305 76.843 25.0989C75.6168 25.5482 74.39 25.996 73.1628 26.4422L73.6313 26.5659C71.5922 24.581 69.5269 22.6203 67.5453 20.5786C67.1129 20.1331 66.4323 20.814 66.8643 21.2591C68.846 23.3008 70.9113 25.2625 72.9503 27.2464C73.0102 27.307 73.0853 27.3504 73.1677 27.3722C73.2501 27.394 73.3368 27.3933 73.4188 27.3703C77.4423 25.9095 81.4595 24.4311 85.4703 22.9351C87.3646 22.2285 89.2562 21.5166 91.1452 20.7992L91.7283 20.5756C92.0623 20.4471 92.22 20.3068 92.222 19.9356C92.2245 19.5038 92.2262 19.0719 92.2273 18.64C92.2299 17.6295 92.2323 16.6188 92.2241 15.6085C92.2329 15.4847 92.2262 15.3604 92.204 15.2384C92.1297 15.0706 92.0161 14.9231 91.8727 14.8085C91.6352 14.5607 91.396 14.3143 91.1551 14.0694C90.6324 13.5371 90.1048 13.0097 89.5723 12.4873C88.4515 11.3842 87.3188 10.2933 86.1741 9.21458C86.1141 9.15417 86.0391 9.11086 85.9567 9.08912C85.8744 9.06737 85.7877 9.06798 85.7057 9.09087C82.9594 10.0783 80.2251 11.1005 77.4895 12.1184C74.6208 13.1846 71.7532 14.254 68.8867 15.3264C68.2832 15.5521 67.6787 15.7757 67.0762 16.0043C66.976 16.0348 66.888 16.096 66.8246 16.1793C66.7611 16.2625 66.7255 16.3636 66.7227 16.4682C66.7227 17.9519 66.7227 19.4352 66.7227 20.9181C66.7237 21.5362 67.6867 21.5372 67.6867 20.9171Z" fill="#4A3E42"/>
<path d="M72.9453 22.491V24.937C72.9453 25.0647 72.996 25.1871 73.0863 25.2773C73.1766 25.3675 73.2991 25.4182 73.4268 25.4182C73.5545 25.4182 73.677 25.3675 73.7673 25.2773C73.8576 25.1871 73.9084 25.0647 73.9084 24.937V22.491C73.9084 22.3633 73.8576 22.2409 73.7673 22.1507C73.677 22.0605 73.5545 22.0098 73.4268 22.0098C73.2991 22.0098 73.1766 22.0605 73.0863 22.1507C72.996 22.2409 72.9453 22.3633 72.9453 22.491Z" fill="#4A3E42"/>
<path d="M44.4591 19.7396C44.4591 18.1016 44.4706 16.4633 44.4778 14.825C44.4878 12.5157 44.4977 10.2063 44.5075 7.8968C44.5104 7.0916 44.5127 6.2864 44.5143 5.4812L44.0328 5.96239H54.864L54.3825 5.4812V19.7396C54.3825 20.359 55.3455 20.36 55.3455 19.7396V5.4812C55.3437 5.35414 55.2924 5.2328 55.2025 5.14294C55.1126 5.05309 54.9912 5.00181 54.864 5H44.0328C43.9056 5.00181 43.7842 5.05309 43.6943 5.14294C43.6044 5.2328 43.5531 5.35414 43.5513 5.4812C43.5513 7.24558 43.5402 9.00997 43.5326 10.7744C43.5228 13.0484 43.5129 15.3225 43.5029 17.5967C43.4999 18.3113 43.4961 19.0259 43.4961 19.7404C43.4961 20.3598 44.4591 20.3608 44.4591 19.7404V19.7396Z" fill="#4A3E42"/>
<path d="M42.5021 22.5093V19.74L42.0206 20.2212H56.8238L56.3423 19.74V22.5093C56.3423 23.1284 57.3053 23.1296 57.3053 22.5093V19.74C57.3035 19.6129 57.2522 19.4916 57.1623 19.4017C57.0723 19.3119 56.9509 19.2606 56.8238 19.2588H42.0206C41.8934 19.2606 41.772 19.3119 41.6821 19.4017C41.5922 19.4916 41.5409 19.6129 41.5391 19.74V22.5093C41.5391 23.1284 42.5021 23.1296 42.5021 22.5093Z" fill="#4A3E42"/>
<path d="M58.8368 22.0273H40.0089C39.8817 22.0291 39.7603 22.0804 39.6703 22.1702C39.5804 22.2601 39.5291 22.3815 39.5273 22.5085V27.942C39.5292 28.0691 39.5805 28.1904 39.6704 28.2803C39.7603 28.3701 39.8817 28.4214 40.0089 28.4232H58.8368C58.9639 28.4214 59.0853 28.3701 59.1753 28.2803C59.2652 28.1904 59.3165 28.0691 59.3183 27.942V22.5085C59.3183 21.8892 58.3553 21.8882 58.3553 22.5085V27.942L58.8368 27.4608H40.0089L40.4904 27.942V22.5085L40.0089 22.9897H58.8368C59.4565 22.9897 59.4575 22.0273 58.8368 22.0273Z" fill="#4A3E42"/>
<path d="M8.15295 15.2811V27.5334C8.15476 27.6604 8.20607 27.7818 8.29599 27.8716C8.3859 27.9615 8.50733 28.0128 8.63447 28.0146H25.2383C26.0044 28.0146 26.7774 28.0451 27.543 28.0146C27.5545 28.0146 27.5659 28.0146 27.5771 28.0146C27.7043 28.0128 27.8257 27.9615 27.9156 27.8716C28.0055 27.7818 28.0568 27.6604 28.0587 27.5334V15.2811C28.0587 14.662 27.0956 14.661 27.0956 15.2811V27.5334L27.5771 27.0522H9.40711C9.16474 27.0522 8.90974 27.0295 8.66797 27.0522C8.65674 27.0522 8.6451 27.0522 8.63387 27.0522L9.11539 27.5334V15.2811C9.11539 14.662 8.15234 14.661 8.15234 15.2811H8.15295Z" fill="#4A3E42"/>
<path d="M70.1352 61.0968C70.0532 61.5701 69.9715 62.0978 69.6471 62.4684C69.4535 62.6639 69.2395 62.8383 69.0089 62.9885C68.7904 63.1616 68.5627 63.3227 68.3267 63.4711C67.893 63.7065 67.4407 63.906 66.9742 64.0673C66.8484 64.1159 66.7231 64.1658 66.5977 64.2151L66.3914 64.2953C66.2967 64.3326 66.214 64.3218 66.4065 64.3218C65.7869 64.3218 65.7859 65.2842 66.4065 65.2842C66.5496 65.2673 66.6884 65.2243 66.8159 65.1573C66.9564 65.1023 67.0958 65.0462 67.2373 64.9922C67.8021 64.8001 68.3484 64.5576 68.8698 64.2678C69.1295 64.1103 69.361 63.9168 69.606 63.7387C69.8847 63.5569 70.1411 63.3429 70.3698 63.1011C70.7935 62.6037 70.9556 61.982 71.0648 61.352C71.0951 61.2291 71.0771 61.0992 71.0146 60.9891C70.952 60.8791 70.8497 60.7971 70.7285 60.7601C70.6054 60.7272 70.4743 60.744 70.3635 60.8069C70.2527 60.8698 70.1711 60.9737 70.1362 61.0962L70.1352 61.0968Z" fill="#4A3E42"/>
<path d="M81.1426 64.8762C81.4413 64.986 81.7366 65.1039 82.0328 65.2206C82.1055 65.2559 82.1849 65.2756 82.2657 65.2784C82.3932 65.2771 82.5153 65.2268 82.6068 65.138C82.6744 65.0707 82.7204 64.9849 82.7391 64.8914C82.7578 64.7979 82.7482 64.7009 82.7117 64.6129C82.6752 64.5248 82.6133 64.4495 82.5339 64.3967C82.4544 64.3438 82.3611 64.3157 82.2657 64.316H82.2637L82.3917 64.3332L81.7214 64.069C81.6145 64.0269 81.5063 63.9888 81.3986 63.9487C81.3366 63.9318 81.2719 63.9274 81.2082 63.9357C81.1445 63.9441 81.0831 63.965 81.0276 63.9972C80.9173 64.0616 80.8372 64.1671 80.8048 64.2905C80.7724 64.414 80.7904 64.5452 80.8549 64.6554C80.9227 64.7597 81.0242 64.8375 81.1426 64.876V64.8762Z" fill="#4A3E42"/>
<path d="M66.2137 49.361C65.9395 49.0917 65.5916 48.9099 65.2139 48.8385C64.8362 48.7671 64.4458 48.8094 64.0922 48.96C63.8396 49.0802 63.6167 49.2545 63.4392 49.4706C63.2618 49.6867 63.1341 49.9391 63.0653 50.2101C62.6765 51.4428 62.9295 52.8865 63.5697 53.9929C64.0143 54.7616 64.7589 55.4439 65.7055 55.3741C65.8322 55.3711 65.953 55.3195 66.0426 55.2299C66.1323 55.1403 66.184 55.0196 66.187 54.8929C66.1859 54.7656 66.1349 54.6438 66.0448 54.5538C65.9547 54.4638 65.8329 54.4128 65.7055 54.4117C64.9706 54.4659 64.5035 53.7804 64.2338 53.1823C64.0037 52.6845 63.8742 52.1462 63.8526 51.5983C63.841 51.2854 63.8702 50.9723 63.9393 50.6668C63.9663 50.5427 64.0041 50.4211 64.0523 50.3035C64.0871 50.2296 64.1265 50.1579 64.1704 50.089C64.1811 50.0711 64.2507 49.9869 64.1815 50.0689C64.2452 49.9829 64.3268 49.9116 64.4207 49.8601C64.5147 49.8087 64.6187 49.7782 64.7256 49.7708C64.8719 49.75 65.0211 49.7635 65.1614 49.8103C65.3016 49.857 65.429 49.9358 65.5335 50.0403C65.9707 50.4814 66.6517 49.7997 66.2145 49.3598L66.2137 49.361Z" fill="#4A3E42"/>
<path d="M83.5022 51.0459C83.6238 50.9608 83.7638 50.9057 83.9107 50.8851C84.0577 50.8644 84.2075 50.8788 84.3478 50.927C84.4461 50.9592 84.5393 51.0052 84.6245 51.0637C84.6687 51.1012 84.7094 51.1426 84.7459 51.1876C84.7684 51.2143 84.766 51.2113 84.7389 51.1784C84.7543 51.2004 84.769 51.2231 84.783 51.2462C85.0503 51.7316 85.0326 52.3816 84.9375 52.9139C84.8322 53.49 84.6077 54.0378 84.2784 54.5223C83.9327 55.0472 83.4157 55.5374 82.746 55.3945C82.623 55.3644 82.4931 55.3824 82.383 55.4449C82.2729 55.5074 82.1909 55.6096 82.1537 55.7305L82.1316 55.7907C82.0988 55.9137 82.1157 56.0446 82.1786 56.1554C82.2415 56.2661 82.3454 56.3476 82.4679 56.3825C82.5909 56.4138 82.7213 56.3963 82.8317 56.3336C82.9421 56.271 83.024 56.1681 83.0602 56.0465L83.0822 55.9863L82.49 56.3224C84.0978 56.6658 85.1034 55.2597 85.6399 53.9465C85.8979 53.3008 86 52.6035 85.9379 51.911C85.8833 51.3081 85.7097 50.6988 85.2156 50.3112C84.8682 50.0508 84.4432 49.9145 84.009 49.9243C83.5748 49.9341 83.1565 50.0895 82.8212 50.3654C82.7316 50.456 82.6814 50.5782 82.6814 50.7056C82.6814 50.833 82.7316 50.9552 82.8212 51.0459C82.9129 51.1333 83.0349 51.1822 83.1617 51.1822C83.2885 51.1822 83.4104 51.1333 83.5022 51.0459Z" fill="#4A3E42"/>
<path d="M65.2036 54.3341C65.4225 55.6523 65.8829 56.9188 66.5617 58.07C67.284 59.2884 68.2613 60.4339 69.4709 61.1896C70.0811 61.569 70.7535 61.8379 71.4572 61.9839C72.0619 62.1097 72.3199 61.1819 71.7132 61.0558C70.1858 60.7382 68.9916 59.7763 68.0538 58.5624C67.0528 57.2489 66.3923 55.7084 66.131 54.0781C66.0961 53.9556 66.0145 53.8517 65.9037 53.7888C65.7929 53.726 65.6618 53.7092 65.5387 53.7421C65.4171 53.7785 65.3144 53.8604 65.2517 53.9707C65.1891 54.081 65.1714 54.2112 65.2024 54.3341H65.2036Z" fill="#4A3E42"/>
<path d="M72.9584 57.7453C72.9877 57.7321 73.0186 57.7196 73.0469 57.7052C73.0962 57.6813 72.9265 57.7519 72.9989 57.7252C73.0206 57.7172 73.0419 57.7082 73.0635 57.7002C73.1561 57.6658 73.2507 57.6371 73.3468 57.6144C73.409 57.5997 73.4714 57.5889 73.5342 57.5773C73.6265 57.56 73.4768 57.5813 73.5408 57.5761C73.5753 57.5733 73.6099 57.5687 73.6444 57.5661C73.8232 57.5523 74.0027 57.5509 74.1817 57.562C74.2667 57.567 74.352 57.5741 74.4365 57.5847C74.3426 57.5729 74.486 57.5937 74.492 57.5947C74.5273 57.6011 74.5625 57.6078 74.5976 57.6148C74.7249 57.6412 74.8501 57.6773 74.972 57.7228C74.987 57.7285 75.0019 57.7343 75.0167 57.7403C75.051 57.7543 75.0368 57.7479 74.9716 57.7214C74.9854 57.7184 75.0241 57.7461 75.036 57.7519C75.0777 57.772 75.1188 57.7948 75.1587 57.8191C75.1896 57.8379 75.2189 57.8592 75.2492 57.8792C75.3152 57.9193 75.1614 57.798 75.2105 57.8488C75.2213 57.8602 75.2354 57.8688 75.2472 57.88C75.3377 57.9703 75.4603 58.0209 75.5881 58.0208C75.7159 58.0207 75.8385 57.9698 75.9288 57.8794C76.0191 57.789 76.0697 57.6665 76.0696 57.5388C76.0695 57.411 76.0186 57.2886 75.9282 57.1983C75.4617 56.7895 74.8399 56.6452 74.235 56.6021C73.6305 56.5539 73.0238 56.6609 72.4723 56.9128C72.3624 56.9776 72.2825 57.0831 72.2502 57.2064C72.2178 57.3297 72.2356 57.4608 72.2995 57.5711C72.3664 57.6786 72.472 57.7564 72.5945 57.7885C72.7171 57.8206 72.8473 57.8046 72.9584 57.7437V57.7453Z" fill="#4A3E42"/>
<path d="M73.9202 53.2649C73.8364 53.5228 73.7585 53.7838 73.6975 54.0481C73.6685 54.151 73.6546 54.2576 73.6564 54.3645C73.6595 54.4714 73.6886 54.5759 73.7412 54.669C73.7939 54.7622 73.8685 54.841 73.9585 54.8988C74.0907 54.9819 74.2415 55.0307 74.3973 55.041C74.4936 55.0433 74.5899 55.0348 74.6842 55.0157L74.5562 55.0329C74.5703 55.0311 74.5841 55.0295 74.5982 55.0285C74.7253 55.0255 74.8468 54.9755 74.9392 54.8882C75.0295 54.7979 75.0803 54.6755 75.0803 54.5479C75.0803 54.4203 75.0295 54.2979 74.9392 54.2077C74.8946 54.1627 74.8415 54.1272 74.7829 54.1031C74.7243 54.079 74.6615 54.0668 74.5982 54.0673C74.5302 54.0725 74.4627 54.0844 74.3951 54.0934L74.5231 54.0762C74.4815 54.0822 74.4393 54.0834 74.3973 54.0798L74.5253 54.0968C74.4886 54.0917 74.4527 54.0821 74.4184 54.0681L74.5334 54.1167C74.498 54.1017 74.4643 54.0828 74.4331 54.0605L74.5306 54.1359C74.5232 54.13 74.5164 54.1232 74.5105 54.1159L74.5859 54.2133C74.5781 54.2023 74.5713 54.1904 74.5659 54.178L74.6144 54.2929C74.6097 54.2798 74.6061 54.2664 74.6036 54.2528L74.6208 54.3807C74.6168 54.3452 74.6174 54.3094 74.6226 54.274L74.6054 54.402C74.6341 54.2484 74.6721 54.0968 74.7192 53.9478C74.7593 53.8053 74.8026 53.6633 74.8486 53.5224C74.8814 53.3993 74.8646 53.2683 74.8016 53.1576C74.7387 53.0469 74.6347 52.9653 74.5121 52.9305C74.3891 52.8995 74.2588 52.9171 74.1484 52.9797C74.0381 53.0423 73.9562 53.1451 73.9198 53.2665L73.9202 53.2649Z" fill="#4A3E42"/>
<path d="M69.8023 50.809C69.6322 51.2656 69.663 52.3406 70.5392 52.4828C71.7047 52.5429 71.8419 51.2541 71.4852 50.6234C71.1931 50.1069 70.2609 49.845 69.8023 50.809Z" fill="#4A3E42"/>
<path d="M79.1325 51.3516C79.2487 51.8248 79.0924 52.8888 78.2064 52.9287C77.0427 52.8539 77.0551 51.5573 77.4825 50.9721C77.8326 50.4929 78.788 50.3403 79.1325 51.3516Z" fill="#4A3E42"/>
<path d="M67.557 38.5022C64.8431 39.9757 63.6031 43.3864 63.5919 46.3231C63.5874 47.3289 63.7224 48.3305 63.9932 49.2993C64.1619 49.8942 65.0914 49.6413 64.9219 49.0434C64.4821 47.4589 64.4424 45.79 64.8063 44.1864C65.1057 42.843 65.6711 41.5222 66.6006 40.49C67.0092 40.022 67.4977 39.6303 68.0434 39.3331C68.5881 39.0374 68.1026 38.2061 67.5574 38.5022H67.557Z" fill="#4A3E42"/>
<path d="M81.3074 38.0445C79.9116 36.8985 78.2656 36.0968 76.5024 35.7041C74.6155 35.2904 72.6484 35.4432 70.8482 36.1431C69.8651 36.536 68.9604 37.1018 68.1771 37.8137C67.7191 38.2327 68.4014 38.912 68.8581 38.4942C71.4166 36.1528 75.3173 35.8939 78.3882 37.3313C79.1855 37.7085 79.9367 38.1762 80.6269 38.7254C80.719 38.8121 80.8408 38.8604 80.9673 38.8604C81.0939 38.8604 81.2157 38.8121 81.3078 38.7254C81.3974 38.6347 81.4476 38.5125 81.4476 38.3851C81.4476 38.2577 81.3974 38.1355 81.3078 38.0449L81.3074 38.0445Z" fill="#4A3E42"/>
<path d="M85.0519 50.4693C85.5943 48.7545 85.7549 46.9419 85.5224 45.1585C85.3437 43.6442 84.8291 42.1889 84.0161 40.8985C83.6168 40.2814 83.1372 39.72 82.5897 39.2292C82.1283 38.819 81.4445 39.4971 81.9088 39.9097C84.0128 41.7793 84.7829 44.6749 84.6629 47.4105C84.6034 48.364 84.4221 49.306 84.1234 50.2135C83.9408 50.8068 84.8702 51.0606 85.0519 50.4693Z" fill="#4A3E42"/>
<path d="M80.1487 44.8336C81.4702 46.2533 82.2322 48.1035 82.2937 50.0415C82.3173 50.6588 83.2804 50.662 83.2567 50.0415C83.1877 47.8497 82.3251 45.7574 80.829 44.1531C80.4077 43.6981 79.7269 44.3798 80.1481 44.8336H80.1487Z" fill="#4A3E42"/>
<path d="M78.8594 42.7496C78.1786 43.6671 77.1281 44.2935 76.0822 44.7129C75.5095 44.964 74.9028 45.1286 74.2817 45.2015C73.6748 45.2388 73.0658 45.1774 72.4786 45.0195C71.8767 44.8731 71.6197 45.8014 72.2226 45.9476C72.9059 46.1333 73.6151 46.2052 74.3218 46.1603C75.0408 46.0827 75.7441 45.8981 76.4084 45.6128C77.6853 45.0915 78.8602 44.3554 79.6912 43.2354C79.7547 43.125 79.7722 42.994 79.7399 42.8708C79.7076 42.7476 79.628 42.6421 79.5185 42.577C79.4075 42.5155 79.2771 42.4991 79.1544 42.5312C79.0316 42.5634 78.926 42.6416 78.8596 42.7496H78.8594Z" fill="#4A3E42"/>
<path d="M74.0587 42.4837C73.5995 43.0403 73.0748 43.5397 72.4962 43.971C72.1741 44.2249 71.831 44.451 71.4705 44.6469C71.0984 44.8291 70.7136 44.9842 70.3191 45.111C69.4981 45.3887 68.6245 45.4946 67.8248 45.8358C67.0617 46.1729 66.4481 46.7769 66.0994 47.5342C65.8129 48.1938 65.5817 48.876 65.4082 49.5737C65.2348 50.1696 66.164 50.4242 66.3367 49.8296C66.6856 48.629 66.9771 47.1978 68.2752 46.6837C69.0643 46.3714 69.9238 46.2673 70.7258 45.9874C71.5106 45.7229 72.2501 45.3392 72.9181 44.8498C73.5922 44.3647 74.204 43.7986 74.7399 43.1642C74.8269 43.0723 74.8754 42.9505 74.8754 42.8239C74.8754 42.6974 74.8269 42.5756 74.7399 42.4837C74.6491 42.3943 74.5268 42.3442 74.3994 42.3442C74.272 42.3442 74.1497 42.3943 74.0589 42.4837H74.0587Z" fill="#4A3E42"/>
<path d="M79.0426 49.6411C79.1763 49.8276 79.3264 50.0017 79.4911 50.1614C79.5873 50.252 79.6891 50.3364 79.7958 50.4143C79.8904 50.482 79.9938 50.5364 80.1032 50.5761C80.1653 50.596 80.2316 50.599 80.2952 50.5847C80.3589 50.5818 80.4206 50.5621 80.4742 50.5275C80.5288 50.4956 80.5766 50.4533 80.6148 50.403C80.6531 50.3526 80.681 50.2952 80.697 50.2341C80.7131 50.1729 80.7169 50.1092 80.7083 50.0466C80.6997 49.984 80.6788 49.9237 80.6469 49.8691L80.5717 49.7717C80.5128 49.7127 80.4395 49.6701 80.3592 49.6479L80.3452 49.6423L80.4603 49.6909C80.3876 49.6572 80.3192 49.6147 80.2569 49.5643L80.3544 49.6395C80.1617 49.486 79.989 49.3091 79.84 49.113L79.9154 49.2105C79.9014 49.1922 79.8877 49.174 79.8741 49.1555C79.8067 49.0509 79.7049 48.9729 79.5864 48.935C79.4611 48.9017 79.3278 48.9191 79.2154 48.9835C79.1074 49.0472 79.0283 49.1503 78.9947 49.271C78.977 49.3328 78.9722 49.3976 78.9805 49.4614C78.9889 49.5252 79.0102 49.5865 79.0432 49.6417L79.0426 49.6411Z" fill="#4A3E42"/>
<path d="M71.0093 55.8869C70.8169 56.1797 70.6615 56.4951 70.5466 56.8261C70.5212 56.9183 70.5238 57.0161 70.5542 57.1068C70.5846 57.1976 70.6414 57.2772 70.7173 57.3355C70.7933 57.3938 70.8849 57.4282 70.9804 57.4343C71.076 57.4403 71.1712 57.4177 71.2539 57.3694L71.3514 57.2942C71.4104 57.2354 71.4531 57.1623 71.4752 57.0819C71.5003 57.0116 71.5271 56.9421 71.5554 56.8734L71.5069 56.9883C71.5984 56.7731 71.71 56.5671 71.8401 56.3728C71.8885 56.2901 71.9112 56.195 71.9051 56.0994C71.8991 56.0039 71.8647 55.9123 71.8064 55.8364C71.748 55.7605 71.6683 55.7037 71.5774 55.6733C71.4866 55.6429 71.3887 55.6403 71.2964 55.6658C71.1775 55.7032 71.0755 55.7813 71.0085 55.8863L71.0093 55.8869Z" fill="#4A3E42"/>
<path d="M76.8071 57.0964C76.8912 57.346 76.9546 57.6021 76.9967 57.8621L76.9794 57.7342C76.9814 57.7498 76.983 57.7652 76.9842 57.7809C76.9893 57.9075 77.0391 58.0282 77.1247 58.1217C77.215 58.212 77.3374 58.2626 77.4651 58.2626C77.5928 58.2626 77.7153 58.212 77.8056 58.1217C77.8507 58.0772 77.8864 58.0241 77.9105 57.9655C77.9346 57.907 77.9467 57.8442 77.9461 57.7809C77.9103 57.4606 77.8393 57.1452 77.7344 56.8405C77.6989 56.7207 77.6203 56.6182 77.5137 56.5528C77.4012 56.4885 77.2679 56.471 77.1427 56.5043C77.0817 56.5211 77.0246 56.5497 76.9747 56.5886C76.9248 56.6274 76.883 56.6757 76.8518 56.7307C76.8206 56.7857 76.8005 56.8463 76.7927 56.909C76.7849 56.9718 76.7896 57.0354 76.8065 57.0964H76.8071Z" fill="#4A3E42"/>
<path d="M57.7109 74.647C58.0982 72.6183 58.6138 70.4864 59.8056 68.7611C60.7953 67.328 62.3725 66.5266 63.9691 65.9483C64.9562 65.5906 65.9636 65.2921 66.955 64.9458C67.0763 64.9092 67.1788 64.8274 67.2414 64.7173C67.304 64.6072 67.3217 64.4772 67.291 64.3544C67.2561 64.2319 67.1745 64.1281 67.0637 64.0652C66.9529 64.0024 66.8218 63.9855 66.6987 64.0183C64.9089 64.6431 63.0207 65.106 61.3739 66.0746C60.5597 66.5434 59.841 67.1611 59.2554 67.8956C58.6383 68.7313 58.1457 69.6521 57.7932 70.6292C57.341 71.8494 57.0026 73.1088 56.7822 74.3913C56.7516 74.5142 56.7694 74.6442 56.832 74.7544C56.8946 74.8646 56.9972 74.9465 57.1185 74.9832C57.2416 75.016 57.3726 74.9991 57.4834 74.9363C57.5942 74.8734 57.6758 74.7696 57.7107 74.6472L57.7109 74.647Z" fill="#4A3E42"/>
<path d="M82.0316 64.3777L82.0235 64.3817L82.2665 64.316C82.0564 64.354 81.8565 64.4352 81.6794 64.5546C81.5415 64.6214 81.4026 64.6862 81.2627 64.7488C81.1859 64.7833 81.1084 64.8166 81.0312 64.8491C80.9279 64.8938 81.1329 64.807 81.0282 64.8505C80.9881 64.8669 80.9479 64.8836 80.9078 64.8998C80.7449 64.9667 80.581 65.0308 80.4161 65.0921C80.2967 65.1286 80.1946 65.2069 80.1283 65.3127C80.08 65.3953 80.0574 65.4904 80.0635 65.5859C80.0695 65.6814 80.1039 65.773 80.1623 65.8488C80.2206 65.9247 80.3003 65.9814 80.3911 66.0118C80.4819 66.0422 80.5797 66.0449 80.6721 66.0194C81.2997 65.7881 81.9124 65.5181 82.5067 65.211L82.2635 65.2768C82.3526 65.2762 82.4399 65.2521 82.5167 65.207C82.6263 65.142 82.7059 65.0365 82.7383 64.9133C82.7706 64.7901 82.7531 64.6591 82.6894 64.5487C82.6229 64.4409 82.5173 64.3627 82.3946 64.3306C82.2719 64.2984 82.1415 64.3147 82.0306 64.3761L82.0316 64.3777Z" fill="#4A3E42"/>
<path d="M73.7948 66.2532C71.7956 66.1307 69.8265 65.7059 67.9548 64.9933C67.7066 64.897 67.462 64.7928 67.2212 64.6797C66.9839 64.5676 66.6723 64.3224 66.4075 64.3224L66.6506 64.3882C66.6116 64.3665 66.5728 64.3444 66.5343 64.322C65.9962 64.012 65.511 64.8433 66.0481 65.1529C66.1546 65.2282 66.2793 65.2737 66.4093 65.2848L66.1663 65.219C67.2723 65.806 68.4466 66.2544 69.6626 66.5539C71.0128 66.9205 72.3983 67.1423 73.7956 67.2156C74.4152 67.2441 74.4138 66.2817 73.7956 66.2532H73.7948Z" fill="#4A3E42"/>
<path d="M37.1361 48.3333C37.7754 45.3711 37.4014 42.2297 35.8234 39.6116C34.598 37.5844 32.7787 35.9826 30.6119 35.0232C27.7815 33.8249 24.5973 33.7651 21.7238 34.8564C19.1997 35.8467 17.1085 37.6991 15.8218 40.0845C14.5352 42.4699 14.1364 45.2339 14.6962 47.8854C14.7803 48.3116 14.8872 48.7323 15.0112 49.1485C15.1874 49.7406 16.1171 49.4894 15.9398 48.8927C15.1372 46.1948 15.262 43.2505 16.5691 40.7264C17.5841 38.7703 19.1804 37.1764 21.1386 36.1636C23.6865 34.9104 26.6216 34.6935 29.3263 35.5585C31.4085 36.2471 33.2196 37.5756 34.501 39.3544C36.0524 41.5362 36.7344 44.2176 36.4139 46.8749C36.3675 47.2791 36.2935 47.6797 36.2086 48.0779C36.0782 48.6818 37.0065 48.94 37.1372 48.3339L37.1361 48.3333Z" fill="#4A3E42"/>
<path d="M16.6289 39.3566C16.9112 39.9394 17.5129 40.334 18.0385 40.6767C18.4599 40.952 19.0317 41.197 18.9123 41.7822C18.8181 42.1046 18.6813 42.4131 18.5054 42.6993C18.3072 43.0921 18.1256 43.4923 17.9553 43.8977C17.6207 44.6815 17.3468 45.4899 17.1361 46.3157C16.8909 47.3015 16.7513 48.3094 16.5448 49.3031C16.4194 49.9074 17.3474 50.1653 17.4736 49.559C17.6636 48.6439 17.7968 47.7174 18.008 46.8069C18.2122 45.9436 18.4873 45.0987 18.8306 44.2806C18.9966 43.8808 19.1814 43.4885 19.3784 43.1029C19.5771 42.769 19.7321 42.4111 19.8398 42.0379C20.0124 41.2521 19.6793 40.6101 19.0279 40.172C18.4926 39.8123 17.7536 39.4783 17.4593 38.8706C17.394 38.7613 17.2884 38.682 17.1652 38.6497C17.042 38.6174 16.911 38.6347 16.8004 38.698C16.6922 38.7642 16.6138 38.8698 16.5816 38.9925C16.5494 39.1152 16.5659 39.2456 16.6277 39.3564L16.6289 39.3566Z" fill="#4A3E42"/>
<path d="M33.8452 38.323C33.7157 38.5639 33.5372 38.7751 33.3213 38.9432C33.0806 39.1587 32.8198 39.3496 32.5642 39.5447C32.2615 39.7417 32.0088 40.0064 31.826 40.3178C31.6577 40.6618 31.6144 41.0535 31.7034 41.4259C31.8014 41.7816 31.96 42.1177 32.1723 42.4194C32.3997 42.7827 32.6137 43.154 32.8143 43.5332C33.2243 44.2975 33.5703 45.0944 33.849 45.9157C34.1714 46.8839 34.3887 47.8828 34.6716 48.863C34.8434 49.4569 35.7729 49.2039 35.6001 48.6072C35.3604 47.7783 35.1678 46.9364 34.9192 46.1102C34.6624 45.2706 34.3404 44.4523 33.9562 43.6627C33.7771 43.2902 33.585 42.9242 33.3801 42.5648C33.1795 42.2129 32.9341 41.8797 32.754 41.5174C32.6862 41.4087 32.6431 41.2865 32.6277 41.1594C32.6123 41.0323 32.625 40.9034 32.6649 40.7817C32.7994 40.5664 32.9844 40.387 33.2038 40.259C33.8183 39.7947 34.4816 39.3191 34.7731 38.5785C34.8061 38.4554 34.7893 38.3244 34.7264 38.2136C34.6635 38.1029 34.5595 38.0213 34.4369 37.9866C34.3138 37.9556 34.1836 37.9733 34.0732 38.0359C33.9628 38.0985 33.8809 38.2012 33.8444 38.3226L33.8452 38.323Z" fill="#4A3E42"/>
<path d="M17.3502 49.0908C17.0423 48.8323 16.6648 48.6706 16.2651 48.6262C15.8654 48.5818 15.4616 48.6567 15.1045 48.8414C14.8541 48.9851 14.639 49.1826 14.4747 49.4198C14.3104 49.6569 14.201 49.9277 14.1545 50.2124C14.0287 50.8957 14.0441 51.5976 14.1997 52.2748C14.3553 52.952 14.6479 53.5902 15.0595 54.1502C15.6414 54.9454 16.464 55.5286 17.4888 55.3504C17.6114 55.3156 17.7153 55.234 17.7783 55.1233C17.8412 55.0125 17.858 54.8815 17.8251 54.7585C17.7886 54.637 17.7067 54.5342 17.5963 54.4716C17.486 54.4089 17.3557 54.3913 17.2326 54.4223C16.5304 54.5444 15.9618 53.8316 15.6518 53.2995C15.3388 52.7839 15.1357 52.2093 15.0553 51.6117C14.9909 51.0541 14.9879 50.385 15.3029 49.9046C15.3219 49.8778 15.3175 49.8826 15.2896 49.9187C15.3085 49.8954 15.3286 49.8728 15.3498 49.8507C15.3659 49.8351 15.4736 49.7388 15.4435 49.7611C15.5458 49.6874 15.6617 49.635 15.7846 49.6069C15.9348 49.5639 16.093 49.5564 16.2466 49.585C16.4002 49.6136 16.545 49.6775 16.6696 49.7717C16.7616 49.8587 16.8834 49.9072 17.0101 49.9072C17.1367 49.9072 17.2586 49.8587 17.3506 49.7717C17.4399 49.6809 17.49 49.5587 17.49 49.4314C17.49 49.304 17.4399 49.1818 17.3506 49.091L17.3502 49.0908Z" fill="#4A3E42"/>
<path d="M35.5622 49.072C35.6593 48.9807 35.7735 48.9094 35.8982 48.8622C36.023 48.815 36.1558 48.7929 36.2891 48.7971C36.4225 48.8013 36.5536 48.8318 36.6751 48.8867C36.7967 48.9417 36.9061 49.0201 36.9973 49.1173C36.9277 49.0359 37.0204 49.1528 37.0324 49.1719C37.0767 49.2406 37.1151 49.3129 37.1472 49.388C37.1968 49.5168 37.2354 49.6496 37.2625 49.785C37.3303 50.1163 37.3539 50.455 37.333 50.7925C37.296 51.3814 37.1398 51.9567 36.8739 52.4835C36.5667 53.1063 36.0648 53.7906 35.2903 53.7166C35.1629 53.7175 35.0409 53.7685 34.9508 53.8585C34.8607 53.9486 34.8097 54.0704 34.8088 54.1978C34.8115 54.3245 34.8631 54.4454 34.9528 54.535C35.0425 54.6247 35.1635 54.6763 35.2903 54.679C36.893 54.8322 37.7982 53.077 38.1522 51.7756C38.3358 51.0636 38.3541 50.3191 38.2057 49.5989C38.1635 49.3047 38.0622 49.0221 37.9079 48.768C37.7536 48.5139 37.5495 48.2936 37.3079 48.1203C36.9294 47.894 36.4871 47.798 36.0488 47.8469C35.6105 47.8959 35.2004 48.0871 34.8812 48.3913C34.4362 48.8242 35.1176 49.5043 35.5622 49.073V49.072Z" fill="#4A3E42"/>
<path d="M34.8562 53.3804C34.7877 53.773 34.6925 54.1605 34.5713 54.5403C34.5231 54.695 34.4724 54.849 34.416 55.0014C34.404 55.0339 34.3915 55.0664 34.3791 55.0986C34.3432 55.1923 34.4345 54.9551 34.3614 55.1432C34.3424 55.1927 34.3243 55.2422 34.3055 55.2917C34.294 55.322 34.2822 55.3519 34.2707 55.3825C34.2635 55.4026 34.2555 55.42 34.2481 55.4387C34.2244 55.4988 34.2856 55.3525 34.2585 55.4138C34.2158 55.5107 34.1724 55.6071 34.1265 55.7025C34.0236 55.9171 33.9126 56.1278 33.7966 56.3357C33.1956 57.4578 32.4095 58.4706 31.4715 59.3316C30.9671 59.8012 30.3619 60.1494 29.7021 60.3493C29.1046 60.5117 29.3582 61.4402 29.9581 61.2772C31.3445 60.9005 32.4642 59.8464 33.3346 58.7471C34.0852 57.8249 34.7033 56.8023 35.1708 55.7092C35.1892 55.6636 35.2077 55.6183 35.225 55.5724C35.2322 55.5524 35.2697 55.4381 35.246 55.5059C35.2121 55.6025 35.2735 55.4399 35.2904 55.3978C35.3058 55.3599 35.3207 55.3216 35.3351 55.2833C35.3708 55.1885 35.4039 55.0926 35.4354 54.9964C35.5869 54.5529 35.7036 54.0984 35.7845 53.6368C35.8147 53.5139 35.7967 53.3841 35.7341 53.274C35.6716 53.1639 35.5693 53.0819 35.4483 53.0447C35.3251 53.0119 35.194 53.0287 35.0831 53.0916C34.9723 53.1545 34.8907 53.2585 34.8558 53.381L34.8562 53.3804Z" fill="#4A3E42"/>
<path d="M16.7881 54.297C17.4413 56.7906 18.9318 58.9844 21.0101 60.5112C21.1206 60.5746 21.2516 60.592 21.3749 60.5597C21.4982 60.5274 21.6038 60.448 21.669 60.3386C21.7306 60.2278 21.7471 60.0974 21.7149 59.9748C21.6827 59.8521 21.6044 59.7466 21.4962 59.6803C19.6201 58.3328 18.3099 56.255 17.7167 54.0411C17.5562 53.4434 16.6274 53.6971 16.7881 54.297Z" fill="#4A3E42"/>
<path d="M25.5864 56.7488C25.6518 56.7111 25.7175 56.6738 25.7851 56.6401C25.8073 56.6289 25.8828 56.578 25.9054 56.5838C25.8398 56.6111 25.8242 56.6177 25.8589 56.6038L25.9024 56.5868C25.9283 56.5772 25.9542 56.5679 25.9803 56.5589C26.1094 56.5153 26.2414 56.4807 26.3753 56.4553C26.4203 56.4466 26.4652 56.4392 26.5106 56.432C26.4399 56.4432 26.5258 56.4302 26.5539 56.4274C26.6542 56.4168 26.7535 56.4098 26.8536 56.4059C27.0347 56.3982 27.2162 56.4032 27.3966 56.421C27.4367 56.4252 27.4939 56.4354 27.4214 56.4232C27.4616 56.43 27.5017 56.4362 27.5418 56.4442C27.6023 56.4563 27.6625 56.4705 27.7224 56.4869C27.7794 56.503 27.8349 56.5222 27.8909 56.5417C27.9742 56.5708 27.8947 56.5283 27.8683 56.5305C27.893 56.5383 27.9166 56.5493 27.9385 56.5633C28.0055 56.5962 28.0696 56.6347 28.1303 56.6782C28.2407 56.7421 28.3719 56.7599 28.4953 56.7275C28.6187 56.6952 28.7243 56.6154 28.7892 56.5056C28.8502 56.3946 28.8664 56.2644 28.8342 56.1419C28.8021 56.0194 28.7241 55.9139 28.6164 55.8472C28.1247 55.4939 27.4403 55.4215 26.8544 55.4435C26.2397 55.4544 25.6372 55.6174 25.1009 55.9179C25.0458 55.9496 24.9976 55.9918 24.9589 56.0422C24.9202 56.0925 24.8919 56.15 24.8756 56.2114C24.8592 56.2727 24.8552 56.3367 24.8637 56.3996C24.8722 56.4625 24.8931 56.5231 24.9252 56.5779C24.9572 56.6327 24.9998 56.6806 25.0505 56.7189C25.1012 56.7572 25.1589 56.7851 25.2204 56.801C25.2819 56.8169 25.346 56.8204 25.4088 56.8115C25.4717 56.8025 25.5322 56.7812 25.5868 56.7488H25.5864Z" fill="#4A3E42"/>
<path d="M26.2734 52.1673C26.3188 52.3167 26.3609 52.4668 26.4008 52.6176C26.4472 52.7753 26.484 52.9357 26.511 53.0978L26.4937 52.9699C26.4976 53.002 26.4983 53.0344 26.4957 53.0667L26.513 52.9388C26.5102 52.9586 26.5053 52.978 26.4985 52.9967L26.5471 52.8817C26.541 52.8946 26.5337 52.907 26.5252 52.9185L26.6005 52.8211C26.5945 52.8285 26.5878 52.8352 26.5804 52.8412L26.6777 52.766C26.6497 52.7851 26.6199 52.8017 26.5888 52.8155L26.7038 52.767C26.6666 52.7829 26.6276 52.7942 26.5876 52.8007L26.7156 52.7834C26.6748 52.7884 26.6335 52.7884 26.5926 52.7834L26.7206 52.8007C26.6436 52.7902 26.5674 52.7764 26.4899 52.769C26.3621 52.7688 26.2395 52.8193 26.1488 52.9093C26.0585 52.9996 26.0078 53.1219 26.0078 53.2496C26.0078 53.3772 26.0585 53.4996 26.1488 53.5898C26.2428 53.6748 26.3634 53.7244 26.4899 53.7302C26.4971 53.7302 26.5044 53.7316 26.5114 53.7326L26.3834 53.7153C26.4785 53.7344 26.575 53.7457 26.6719 53.7492C26.8261 53.7446 26.977 53.7034 27.1121 53.6289C27.1936 53.5867 27.265 53.5275 27.3216 53.4553C27.3782 53.383 27.4185 53.2995 27.4399 53.2103C27.4681 53.0589 27.4626 52.9032 27.4239 52.7541C27.3637 52.4702 27.287 52.1895 27.2032 51.912C27.1678 51.7922 27.0892 51.6897 26.9825 51.6245C26.8998 51.5762 26.8046 51.5535 26.709 51.5595C26.6134 51.5656 26.5217 51.5999 26.4458 51.6583C26.3698 51.7166 26.313 51.7963 26.2826 51.887C26.2522 51.9778 26.2495 52.0756 26.275 52.1679L26.2734 52.1673Z" fill="#4A3E42"/>
<path d="M21.6302 49.7987C21.4981 50.2941 21.6396 51.4169 22.5717 51.477C23.7984 51.4227 23.8112 50.0583 23.3743 49.4338C23.0153 48.9231 22.0126 48.7432 21.6302 49.7987Z" fill="#4A3E42"/>
<path d="M31.454 49.4222C31.6237 49.9062 31.5687 51.0364 30.644 51.1678C29.4169 51.2079 29.2998 49.8481 29.6876 49.192C30.0056 48.6547 30.9915 48.3985 31.454 49.4222Z" fill="#4A3E42"/>
<path d="M25.5949 51.8539C26.3837 50.4376 26.2423 48.319 24.5716 47.608C23.7726 47.291 22.913 47.1551 22.0551 47.2102C21.263 47.2481 20.4061 47.375 19.7241 47.8063C19.0657 48.2008 18.5879 48.8372 18.3931 49.5793C18.2631 50.2294 18.3291 50.9035 18.5829 51.5161C18.845 52.1447 19.2811 52.6855 19.84 53.075C20.3989 53.4645 21.0575 53.6866 21.7383 53.7152C22.5091 53.7773 23.2838 53.6565 23.999 53.3625C24.6777 53.0414 25.2368 52.5131 25.5957 51.8539C25.9094 51.3184 25.0774 50.8334 24.764 51.3681C24.5251 51.8119 24.1659 52.1794 23.7276 52.4286C23.3107 52.6295 22.8556 52.7389 22.3929 52.7494C21.3643 52.8049 20.3142 52.5384 19.7203 51.631C19.1828 50.8089 19.0865 49.6886 19.825 48.9471C20.2496 48.5207 20.7786 48.3474 21.3585 48.2454C22.0521 48.1223 22.7628 48.1314 23.4531 48.272C24.0632 48.401 24.7141 48.6265 24.9757 49.2745C25.2488 49.9504 25.1081 50.7502 24.7632 51.3689C24.4615 51.9099 25.2931 52.3957 25.5949 51.8539Z" fill="#4A3E42"/>
<path d="M28.4559 51.2588C27.8245 50.3064 27.7075 48.7803 28.9292 48.2431C29.5528 47.98 30.2218 47.8411 30.8986 47.8341C31.5206 47.8203 32.2092 47.8507 32.7663 48.1549C33.0004 48.2718 33.2084 48.4347 33.3779 48.6338C33.5474 48.833 33.6748 49.0644 33.7527 49.314C33.8569 49.768 33.829 50.2423 33.6724 50.681C33.5079 51.1371 33.2193 51.5382 32.8391 51.8393C32.4589 52.1404 32.0021 52.3294 31.5202 52.3852C30.9296 52.4798 30.3254 52.4442 29.75 52.281C29.2167 52.0931 28.7611 51.7334 28.4549 51.2584C28.3882 51.1507 28.2826 51.0727 28.16 51.0406C28.0373 51.0085 27.9071 51.0246 27.796 51.0858C27.6866 51.151 27.6072 51.2565 27.5749 51.3797C27.5426 51.5028 27.56 51.6337 27.6233 51.7442C27.9958 52.3227 28.5244 52.7841 29.1481 53.0753C29.7815 53.3279 30.4647 53.4308 31.1444 53.3761C32.5254 53.3045 33.8544 52.6453 34.4428 51.3366C34.7164 50.7388 34.8205 50.0774 34.7438 49.4245C34.6919 49.0476 34.5624 48.6856 34.3636 48.3613C34.1647 48.0369 33.9009 47.7572 33.5885 47.5398C32.9423 47.0612 32.1668 46.917 31.3792 46.8771C30.5164 46.8266 29.6525 46.9521 28.8399 47.2462C28.0274 47.5516 27.3041 48.1485 27.1024 49.0337C27.0026 49.4971 26.9973 49.9759 27.087 50.4415C27.1766 50.907 27.3593 51.3497 27.6241 51.743C27.9662 52.2587 28.7996 51.7771 28.4559 51.2588Z" fill="#4A3E42"/>
<path d="M25.5714 50.0643L27.49 49.9907C27.6177 49.9907 27.7402 49.94 27.8305 49.8498C27.9208 49.7595 27.9716 49.6371 27.9716 49.5095C27.9716 49.3819 27.9208 49.2595 27.8305 49.1693C27.7402 49.079 27.6177 49.0283 27.49 49.0283L25.5714 49.1019C25.4437 49.1019 25.3212 49.1526 25.2309 49.2428C25.1406 49.3331 25.0898 49.4555 25.0898 49.5831C25.0898 49.7107 25.1406 49.8331 25.2309 49.9234C25.3212 50.0136 25.4437 50.0643 25.5714 50.0643Z" fill="#4A3E42"/>
<path d="M20.1326 45.5869C20.0475 45.6768 19.9547 45.7592 19.8552 45.8329L19.9527 45.7577C19.7324 45.938 19.4905 46.09 19.2324 46.2102L19.3476 46.1617C19.3228 46.1723 19.2974 46.1814 19.2715 46.189C19.1513 46.2238 19.0486 46.3025 18.9838 46.4095C18.9355 46.4921 18.9129 46.5873 18.9189 46.6828C18.925 46.7783 18.9594 46.8698 19.0177 46.9457C19.0761 47.0216 19.1558 47.0783 19.2466 47.1087C19.3374 47.1391 19.4352 47.1417 19.5275 47.1163C19.7652 47.0355 19.9886 46.9178 20.1896 46.7676C20.3248 46.676 20.4555 46.5771 20.5833 46.4751C20.6652 46.412 20.742 46.3424 20.8128 46.267C20.9008 46.175 20.9509 46.0533 20.9532 45.9261C20.9525 45.7986 20.9022 45.6763 20.8128 45.5853C20.7225 45.495 20.6 45.4443 20.4723 45.4443C20.3446 45.4443 20.2221 45.495 20.1318 45.5853L20.1326 45.5869Z" fill="#4A3E42"/>
<path d="M29.3161 55.6959C29.4103 55.8611 29.493 56.0325 29.5637 56.209L29.5151 56.0941C29.5687 56.2216 29.6193 56.3503 29.6646 56.4811C29.7006 56.6006 29.7791 56.7029 29.8853 56.7686C29.9955 56.833 30.1269 56.851 30.2504 56.8186C30.3739 56.7862 30.4795 56.7061 30.544 56.596C30.5765 56.5406 30.5976 56.4792 30.606 56.4155C30.6143 56.3518 30.6097 56.2871 30.5925 56.2252C30.5217 56.0209 30.4382 55.8206 30.3518 55.6237C30.2922 55.4821 30.224 55.3443 30.1475 55.2111C30.0824 55.1043 29.9798 55.0256 29.8596 54.9906C29.7344 54.9574 29.6011 54.9748 29.4886 55.0391C29.3807 55.1029 29.3016 55.206 29.2679 55.3268C29.2355 55.452 29.2529 55.5849 29.3165 55.6975L29.3161 55.6959Z" fill="#4A3E42"/>
<path d="M23.1621 55.41C23.0025 55.7436 22.8769 56.0925 22.7873 56.4514C22.7551 56.5766 22.7725 56.7094 22.8359 56.8221C22.8678 56.8767 22.9102 56.9244 22.9605 56.9626C23.0109 57.0009 23.0684 57.0288 23.1295 57.0448C23.1907 57.0608 23.2545 57.0647 23.3171 57.0561C23.3798 57.0475 23.4402 57.0266 23.4948 56.9947C23.6019 56.93 23.6807 56.8273 23.7155 56.7072C23.7861 56.4354 23.8756 56.1688 23.9833 55.9094L23.9348 56.0243C23.953 55.981 23.9721 55.9379 23.9931 55.8958C24.0554 55.7827 24.0727 55.6503 24.0417 55.5251C24.0075 55.4046 23.9285 55.3017 23.821 55.2373C23.7654 55.2052 23.704 55.1843 23.6403 55.176C23.5766 55.1677 23.5118 55.172 23.4498 55.1888C23.3287 55.2218 23.2254 55.301 23.1621 55.4094V55.41Z" fill="#4A3E42"/>
<path d="M30.3828 60.4003V61.3788C30.3841 61.5062 30.4344 61.6283 30.5233 61.7196C30.5906 61.7872 30.6765 61.8332 30.7701 61.8518C30.8636 61.8705 30.9606 61.861 31.0488 61.8245C31.1369 61.7879 31.2122 61.7261 31.2651 61.6467C31.318 61.5674 31.3461 61.4741 31.3459 61.3788V60.4003C31.3445 60.2729 31.2942 60.1509 31.2054 60.0595C31.1381 59.992 31.0522 59.9459 30.9586 59.9273C30.865 59.9086 30.768 59.9181 30.6799 59.9547C30.5918 59.9912 30.5165 60.053 30.4636 60.1324C30.4107 60.2117 30.3826 60.305 30.3828 60.4003Z" fill="#4A3E42"/>
<path d="M8.49184 74.6472C8.72016 73.423 9.00747 72.211 9.33731 71.0102C9.50573 70.4662 9.73815 69.9441 10.0297 69.4549C10.2604 69.0296 10.5332 68.6285 10.8439 68.2575C11.969 66.9445 13.6397 66.1246 15.2191 65.4895C16.443 64.9972 17.7001 64.589 18.9577 64.1924C19.5468 64.0068 19.2952 63.0773 18.7017 63.2645C16.6392 63.9149 14.5343 64.5826 12.6442 65.6535C11.7957 66.1051 11.0215 66.6838 10.3483 67.3695C9.62178 68.1848 9.04207 69.1196 8.63489 70.1326C8.36337 70.846 8.1519 71.5807 8.00269 72.3293C7.83871 73.0127 7.69225 73.7001 7.5633 74.3914C7.53284 74.5144 7.55085 74.6445 7.61362 74.7547C7.6764 74.8648 7.77912 74.9467 7.90057 74.9833C8.02367 75.0161 8.15473 74.9992 8.26551 74.9364C8.3763 74.8735 8.45794 74.7697 8.49284 74.6472H8.49184Z" fill="#4A3E42"/>
<path d="M33.1761 63.2758C35.491 63.7739 37.8693 64.2743 39.9537 65.4454C40.951 65.9779 41.8328 66.7026 42.5481 67.5777C43.2672 68.4971 43.8382 69.523 44.2405 70.6185C44.7047 71.9241 45.0332 73.274 45.221 74.6469C45.2557 74.7695 45.3373 74.8735 45.4481 74.9364C45.559 74.9993 45.6901 75.016 45.8132 74.9829C45.9347 74.9463 46.0373 74.8644 46.0999 74.7542C46.1625 74.644 46.1803 74.514 46.1495 74.3911C45.7669 71.8961 45.0823 69.4073 43.5708 67.3429C42.8678 66.3706 41.9794 65.5467 40.9565 64.9189C39.8765 64.2675 38.7222 63.7481 37.5182 63.3719C36.1804 62.941 34.8049 62.6433 33.4321 62.3479C32.8278 62.2178 32.5694 63.1453 33.1761 63.2758Z" fill="#4A3E42"/>
<path d="M32.7781 62.6195C31.9023 64.3238 30.9962 66.036 29.6933 67.4584H30.3743C29.4596 66.6227 28.6239 65.6898 27.7761 64.7877L27.6788 65.5434C28.3439 65.2112 28.4855 64.3166 28.1505 63.7002L27.9777 64.3585C29.4175 63.5416 30.7176 62.5002 31.8289 61.2738H31.1479C31.7929 61.7858 32.3444 62.4054 32.7781 63.1051C33.1089 63.6264 33.9418 63.1452 33.6097 62.6195C33.1367 61.8471 32.5343 61.1617 31.8289 60.5933C31.7373 60.5055 31.6153 60.4565 31.4884 60.4565C31.3615 60.4565 31.2395 60.5055 31.1479 60.5933C30.0938 61.7603 28.8594 62.7509 27.4916 63.5276C27.383 63.5935 27.3043 63.699 27.2721 63.8218C27.2398 63.9446 27.2566 64.0751 27.3188 64.1858C27.3702 64.2729 27.3857 64.3764 27.3621 64.4747C27.3386 64.5729 27.2778 64.6582 27.1926 64.7125C27.1298 64.7503 27.0763 64.8018 27.0362 64.8632C26.9961 64.9245 26.9704 64.9941 26.961 65.0668C26.9516 65.1395 26.9588 65.2134 26.9821 65.2829C27.0053 65.3524 27.0439 65.4157 27.0951 65.4682C27.943 66.3705 28.7786 67.3032 29.6933 68.1389C29.7845 68.2274 29.9067 68.277 30.0338 68.277C30.161 68.277 30.2831 68.2274 30.3743 68.1389C31.7352 66.6532 32.6946 64.885 33.6097 63.1051C33.8924 62.5552 33.0616 62.0678 32.7781 62.6195Z" fill="#4A3E42"/>
<path d="M81.2346 64.708C83.1178 65.2524 85.1007 65.8553 86.6429 67.1184C87.2353 67.5828 87.7709 68.1151 88.2388 68.7046C88.7062 69.3449 89.0454 70.0695 89.2377 70.8385C89.5487 72.0465 89.5293 73.2825 89.4823 74.5196C89.4588 75.139 90.4219 75.138 90.4454 74.5196C90.5256 72.4278 90.4329 70.2462 89.2307 68.4473C88.761 67.7841 88.2081 67.1838 87.5855 66.6611C86.8402 66.0073 86.0026 65.4668 85.0997 65.0571C83.931 64.5408 82.7247 64.114 81.4913 63.7805C80.8948 63.6081 80.6402 64.5364 81.2352 64.7084L81.2346 64.708Z" fill="#4A3E42"/>
<path d="M78.7924 60.5256C79.0444 59.5676 79.2837 58.6052 79.4876 57.6358C79.5169 57.4561 79.56 57.2789 79.6164 57.1057C79.6351 57.0656 79.6562 57.0267 79.6794 56.989C79.6894 56.9716 79.7466 56.8956 79.7073 56.9431C79.7381 56.9056 79.7727 56.8712 79.8104 56.8406C79.7502 56.8886 79.8604 56.8156 79.8706 56.8104C79.7926 56.8505 80.0369 56.7723 79.9575 56.7817C80.0273 56.7686 80.0995 56.7775 80.1639 56.8074C80.2112 56.8299 80.2546 56.8597 80.2927 56.8956C80.3446 56.944 80.3933 56.9957 80.4384 57.0504C80.5292 57.1397 80.6515 57.1898 80.7789 57.1898C80.9063 57.1898 81.0286 57.1397 81.1194 57.0504C81.2072 56.9588 81.2562 56.8369 81.2562 56.7101C81.2562 56.5833 81.2072 56.4614 81.1194 56.3699C80.958 56.1635 80.7426 56.0057 80.4971 55.9142C80.2515 55.8226 79.9854 55.8008 79.7281 55.8512C79.4675 55.9207 79.2303 56.0591 79.0416 56.2518C78.8529 56.4445 78.7195 56.6844 78.6556 56.9463C78.5043 57.4476 78.4294 57.9803 78.3089 58.4901C78.168 59.0852 78.0196 59.6786 77.8637 60.2702C77.706 60.8697 78.6347 61.1253 78.7924 60.526V60.5256Z" fill="#4A3E42"/>
<path d="M82.085 63.826C82.4336 62.5966 82.6819 61.3409 82.8273 60.0713C83.0095 58.8764 83.1214 57.6718 83.1624 56.4637C83.1732 55.772 82.8598 55.1759 82.1873 54.9319C81.8777 54.8329 81.5429 54.8479 81.2433 54.974C80.9438 55.1002 80.6993 55.3293 80.554 55.6198C80.4441 55.8776 80.3755 56.151 80.3509 56.4301C80.3345 56.5504 80.3078 56.7769 80.2992 56.8473C80.2939 56.8892 80.2687 57.0554 80.2548 57.148C80.1731 57.6961 80.0892 58.2434 80.0032 58.7901C79.8116 60.0071 79.631 61.2328 79.3612 62.4354C79.2254 63.0385 80.1535 63.2961 80.2897 62.6912C80.504 61.7409 80.6545 60.7747 80.8102 59.8135C80.9723 58.8136 81.1535 57.8101 81.2672 56.8034C81.285 56.5859 81.3208 56.3702 81.3744 56.1586C81.3839 56.0841 81.416 56.0143 81.4665 55.9587C81.517 55.9031 81.5834 55.8643 81.6566 55.8476C82.1181 55.7073 82.2078 56.2252 82.1984 56.5365C82.165 57.6192 82.0429 58.7049 81.904 59.7784C81.7612 61.0608 81.5114 62.3291 81.1573 63.57C80.9767 64.1637 81.9052 64.4175 82.0858 63.8258L82.085 63.826Z" fill="#4A3E42"/>
<path d="M75.8828 61.9063C75.3611 63.1125 74.434 64.0902 73.7938 65.2298C73.4456 65.8128 73.2791 66.4861 73.3154 67.164C73.3636 67.9752 73.608 68.755 73.6906 69.5598C73.7807 70.4363 73.8092 71.3258 73.8527 72.2063C73.8832 72.8227 74.8465 72.8265 74.8158 72.2063C74.7791 71.4645 74.7305 70.7227 74.6838 69.9818C74.6336 69.1858 74.4496 68.4179 74.3305 67.6322C74.2062 67.0313 74.2834 66.4063 74.55 65.8536C74.8618 65.3011 75.2068 64.7681 75.5832 64.2574C76.0208 63.6746 76.3997 63.05 76.7144 62.3928C76.7747 62.2816 76.7904 62.1518 76.7583 62.0295C76.7263 61.9072 76.6488 61.8017 76.5416 61.7345C76.4312 61.671 76.3001 61.6535 76.1768 61.6858C76.0535 61.7181 75.9478 61.7976 75.8828 61.9071V61.9063Z" fill="#4A3E42"/>
<path d="M81.1361 63.6968V63.6988L81.2019 63.456C80.9018 64.1234 80.5337 64.7581 80.1034 65.3501C79.7022 65.9195 79.2855 66.4617 79.016 67.1087C78.7816 67.715 78.6512 68.3564 78.6302 69.006C78.5858 69.735 78.8334 70.467 79.0848 71.1409C79.1217 71.2621 79.2037 71.3645 79.3139 71.427C79.4241 71.4895 79.5541 71.5074 79.6771 71.477C79.7997 71.4423 79.9038 71.3607 79.9667 71.2499C80.0296 71.1392 80.0464 71.0081 80.0134 70.8851C79.7774 70.2521 79.5519 69.6019 79.5978 68.9186C79.6208 68.3439 79.7572 67.7794 79.9991 67.2575C80.3001 66.652 80.7397 66.1264 81.1201 65.5707C81.3231 65.2741 81.5125 64.9692 81.6866 64.6554C81.7583 64.5259 81.8261 64.3943 81.8899 64.2606C81.9968 64.0886 82.068 63.8969 82.0993 63.6968C82.0993 63.0775 81.1363 63.0765 81.1363 63.6968H81.1361Z" fill="#4A3E42"/>
<path d="M74.4549 72.6712C76.1867 72.2386 77.9427 71.8913 79.6794 71.4763C80.2813 71.3323 80.0269 70.4042 79.4234 70.5484C77.6867 70.9632 75.9307 71.3103 74.1988 71.7433C73.5969 71.8933 73.8526 72.8218 74.4549 72.6712Z" fill="#4A3E42"/>
<path d="M76.7609 62.2764C76.9995 61.6287 77.1766 60.96 77.29 60.2792C77.3254 59.9676 77.3764 59.658 77.4429 59.3515C77.4525 59.3144 77.463 59.2777 77.4752 59.241C77.497 59.1834 77.5004 59.1715 77.4854 59.2053C77.4992 59.1754 77.5151 59.1464 77.533 59.1187C77.5062 59.1508 77.5124 59.1454 77.5516 59.1027C77.5944 59.064 77.6011 59.058 77.5717 59.0846C77.5994 59.0665 77.6282 59.0501 77.658 59.0355C77.5605 59.0786 77.78 58.9918 77.7057 59.0253C77.6724 59.0298 77.6808 59.031 77.731 59.0289C77.6708 59.0195 77.6722 59.0227 77.7342 59.0381C77.6923 59.0223 77.6961 59.0279 77.746 59.0546C77.7087 59.0291 77.7109 59.0357 77.7525 59.0746C77.7398 59.0275 77.7621 59.1101 77.7687 59.1327C77.7806 59.1728 77.8103 59.2871 77.8113 59.2954C77.8305 59.5708 77.8265 59.8474 77.7992 60.1222C77.78 60.7103 77.7482 61.2985 77.7039 61.8866C77.705 62.0139 77.7561 62.1356 77.8462 62.2256C77.9362 62.3156 78.0581 62.3667 78.1854 62.3678C78.3124 62.3653 78.4334 62.3138 78.5232 62.2241C78.613 62.1344 78.6645 62.0134 78.667 61.8866C78.7071 61.3507 78.738 60.8143 78.757 60.2774C78.7771 59.7206 78.863 59.0977 78.5765 58.5906C78.4987 58.4594 78.3933 58.3467 78.2676 58.2603C78.1419 58.1738 77.9988 58.1158 77.8484 58.0902C77.698 58.0645 77.5438 58.0719 77.3965 58.1118C77.2492 58.1517 77.1124 58.2231 76.9955 58.3211C76.4829 58.7127 76.4654 59.3737 76.3725 59.9586C76.2597 60.6621 76.0789 61.353 75.8328 62.0217C75.8 62.1448 75.8168 62.2758 75.8797 62.3865C75.9426 62.4973 76.0465 62.5789 76.1691 62.6138C76.2921 62.645 76.4225 62.6274 76.5329 62.5648C76.6433 62.5021 76.7251 62.3992 76.7613 62.2776L76.7609 62.2764Z" fill="#4A3E42"/>
<path d="M26.7721 65.616C26.9727 65.6722 27.1839 65.6788 27.3876 65.6353C27.5914 65.5919 27.7815 65.4997 27.9416 65.3666C28.0746 65.2323 28.1777 65.0713 28.2439 64.8943C28.3102 64.7173 28.3383 64.5283 28.3263 64.3397C28.313 63.6969 27.8124 63.1537 27.3431 62.7653C26.8799 62.3879 26.3806 62.0569 25.8524 61.7771C25.356 61.5395 24.8142 61.4116 24.2638 61.4022C23.4976 61.3479 22.7282 61.3595 21.9639 61.4368C21.8373 61.4403 21.7168 61.4921 21.6273 61.5816C21.5377 61.6711 21.4859 61.7915 21.4824 61.918C21.4833 62.0454 21.5343 62.1673 21.6244 62.2573C21.7146 62.3474 21.8365 62.3983 21.9639 62.3992C22.6793 62.3281 23.3991 62.3134 24.1167 62.3551C24.4077 62.3658 24.6971 62.4017 24.9819 62.4624C25.0338 62.4746 25.0852 62.4893 25.1368 62.5037C25.1677 62.5132 25.1983 62.5235 25.2287 62.5346C25.1885 62.5159 25.1849 62.5145 25.2212 62.532C25.3191 62.5783 25.4134 62.6334 25.5077 62.6866C26.0335 62.9603 26.5195 63.3043 26.9523 63.7091C27.1363 63.8653 27.2769 64.0662 27.3606 64.2925C27.414 64.5596 27.299 64.7471 27.0265 64.6889C26.4222 64.5596 26.1638 65.4871 26.7705 65.6168L26.7721 65.616Z" fill="#4A3E42"/>
<path d="M23.2404 64.2235C24.2837 64.2285 25.1478 64.5928 26.0191 65.1291C26.1132 65.187 26.2059 65.247 26.2966 65.3096C26.3143 65.3218 26.412 65.3932 26.3881 65.3745C26.3596 65.3527 26.4483 65.4252 26.4613 65.4359C26.5853 65.5359 26.6702 65.6764 26.7009 65.8327C26.7123 65.9118 26.7039 65.9926 26.6762 66.0676C26.665 66.1 26.6693 66.0912 26.6893 66.0412C26.6806 66.0596 26.671 66.0777 26.6608 66.0951C26.6519 66.1079 26.5837 66.2046 26.612 66.1709C26.5712 66.2147 26.5238 66.2519 26.4716 66.2812C26.4039 66.3207 26.3287 66.3455 26.2509 66.3542C26.1243 66.3576 26.0038 66.4094 25.9142 66.4989C25.8246 66.5884 25.7728 66.7088 25.7694 66.8353C25.7703 66.9627 25.8213 67.0846 25.9114 67.1746C26.0015 67.2647 26.1234 67.3156 26.2509 67.3165C26.864 67.2564 27.4547 66.9019 27.618 66.2719C27.8042 65.552 27.424 64.9487 26.8634 64.5376C25.8182 63.7442 24.5506 63.2975 23.2386 63.2603C22.6188 63.2573 22.618 64.2196 23.2386 64.2227L23.2404 64.2235Z" fill="#4A3E42"/>
<path d="M23.5954 66.1676C23.608 66.1692 23.6905 66.1795 23.6125 66.1692C23.6363 66.1723 23.6602 66.1759 23.6841 66.1795C23.7391 66.1875 23.7942 66.1963 23.8492 66.2057C23.9652 66.2258 24.0807 66.2492 24.1953 66.2769C24.3018 66.3028 24.4074 66.3323 24.5117 66.3661C24.5645 66.3832 24.6166 66.4012 24.6686 66.4203L24.7358 66.4459C24.7579 66.4546 24.8361 66.4888 24.7773 66.4626C25.1509 66.6378 25.5032 66.8551 25.8275 67.1102C25.8337 67.1148 25.9149 67.1768 25.8796 67.1503C25.8487 67.1266 25.9173 67.1788 25.9133 67.1766C25.9334 67.1886 25.9767 67.2656 25.8872 67.1419C25.8967 67.1549 25.9274 67.191 25.886 67.1352C25.8483 67.0847 25.8758 67.1166 25.8832 67.1473C25.8951 67.1976 25.8748 67.0968 25.8772 67.096C25.8796 67.0951 25.8772 67.2126 25.8772 67.2277C25.8772 67.2987 25.8905 67.2173 25.8818 67.202C25.8812 67.2194 25.8779 67.2366 25.872 67.2529C25.8614 67.2914 25.8535 67.3305 25.8413 67.3686C25.8365 67.3841 25.8285 67.4001 25.8251 67.4159C25.8114 67.4773 25.871 67.34 25.8369 67.3893C25.8295 67.4023 25.8228 67.4156 25.8168 67.4294C25.8038 67.4534 25.76 67.497 25.8096 67.4514C25.8592 67.4059 25.823 67.4338 25.8112 67.4464C25.751 67.5106 25.8339 67.4202 25.8387 67.4264C25.8387 67.4264 25.801 67.448 25.7986 67.4492C25.7434 67.4775 25.8874 67.4292 25.8247 67.438C25.7881 67.443 25.7472 67.4591 25.7109 67.4675C25.6868 67.4731 25.6529 67.4629 25.7069 67.4687C25.7791 67.4763 25.6818 67.4675 25.6668 67.4687C25.6266 67.4687 25.5865 67.4629 25.5484 67.4653C25.4958 67.4687 25.5923 67.4665 25.5957 67.4733C25.5759 67.4683 25.5558 67.4645 25.5355 67.4619C25.4704 67.4448 25.4064 67.4234 25.3441 67.3977C25.1007 67.302 24.8462 67.2374 24.5865 67.2054C24.3069 67.1839 24.0281 67.257 23.795 67.4129C23.7404 67.4448 23.6926 67.4872 23.6544 67.5375C23.6162 67.5879 23.5882 67.6453 23.5722 67.7064C23.5562 67.7675 23.5523 67.8312 23.5609 67.8939C23.5695 67.9565 23.5904 68.0168 23.6223 68.0714C23.6542 68.1259 23.6966 68.1737 23.747 68.2119C23.7973 68.2501 23.8548 68.278 23.916 68.2941C23.9771 68.3101 24.0409 68.3139 24.1035 68.3053C24.1662 68.2967 24.2266 68.2759 24.2812 68.244C24.3022 68.2308 24.4447 68.158 24.3534 68.1955C24.3781 68.1855 24.4796 68.1373 24.5033 68.1502C24.5091 68.1534 24.3829 68.1434 24.473 68.1584C24.5019 68.1634 24.535 68.1622 24.5639 68.1652C24.5418 68.1628 24.4788 68.1484 24.5719 68.1686C24.609 68.1766 24.6461 68.1843 24.683 68.1935C24.8775 68.2422 25.0582 68.3314 25.251 68.383C25.7245 68.5097 26.3284 68.408 26.6117 67.9753C26.8525 67.6084 26.9482 67.0196 26.7036 66.634C26.6015 66.4996 26.4759 66.3848 26.3329 66.2952C26.2257 66.215 26.1172 66.1348 26.0066 66.0584C25.8201 65.9278 25.6247 65.8105 25.4218 65.7073C24.8463 65.4362 24.2282 65.2666 23.5948 65.2061C23.4671 65.2061 23.3446 65.2568 23.2543 65.347C23.164 65.4372 23.1133 65.5596 23.1133 65.6872C23.117 65.8137 23.1689 65.934 23.2584 66.0234C23.3479 66.1129 23.4683 66.1648 23.5948 66.1684L23.5954 66.1676Z" fill="#4A3E42"/>
<path d="M19.496 61.318C17.8593 63.4505 18.0406 66.2258 17.3984 68.707C17.3269 69.0053 17.2403 69.2997 17.1388 69.5892C16.9912 69.9161 16.8704 70.2544 16.7777 70.6009C16.6713 71.1623 17.193 71.3271 17.6153 71.465C18.0017 71.5912 18.3877 71.7187 18.7732 71.8476C19.5735 72.1143 20.3728 72.3839 21.1737 72.6496C21.4029 72.7254 21.6396 72.8367 21.8724 72.7097C22.0784 72.5969 22.1233 72.3817 22.1978 72.1786C22.2462 72.0422 22.3031 71.909 22.3683 71.7798C22.4046 71.7089 22.446 71.6417 22.4887 71.5741C22.527 71.5126 22.51 71.5442 22.5042 71.5519C22.5443 71.4977 22.5158 71.5298 22.5399 71.5152C22.7333 71.4261 22.9334 71.3523 23.1384 71.2946C23.3408 71.2194 23.5325 71.1177 23.7082 70.9921C24.0471 70.7315 24.3226 70.3975 24.5137 70.0152C24.826 69.3595 25.0389 68.661 25.1457 67.9427C25.1763 67.8198 25.1584 67.6898 25.0958 67.5797C25.0333 67.4695 24.9307 67.3876 24.8094 67.3508C24.6863 67.318 24.5553 67.3349 24.4445 67.3977C24.3337 67.4606 24.2521 67.5644 24.2172 67.6869C24.0591 68.5205 23.908 69.5024 23.2617 70.1175C22.8731 70.4874 22.2666 70.4545 21.8794 70.815C21.5154 71.1537 21.3427 71.6972 21.1886 72.155L21.4093 71.8672L21.3862 71.8787L21.7574 71.8302C21.0333 71.5922 20.311 71.349 19.5883 71.1084C19.2332 70.9895 18.878 70.8712 18.5226 70.7533C18.3589 70.699 18.195 70.645 18.031 70.5913C17.8629 70.5522 17.6987 70.4977 17.5405 70.4287L17.7132 70.6015L17.7062 70.6029V70.8587C17.7894 70.5206 17.9066 70.1918 18.0561 69.8773C18.1554 69.5995 18.2401 69.3168 18.3101 69.0302C18.4904 68.3121 18.6311 67.5847 18.7314 66.8512C18.8919 65.7396 19.0324 64.6212 19.3935 63.553C19.6059 62.923 19.9216 62.3326 20.3275 61.8058C20.3912 61.6955 20.4088 61.5644 20.3765 61.4411C20.3442 61.3179 20.2645 61.2123 20.1547 61.1474C20.0437 61.0862 19.9134 61.0699 19.7907 61.1021C19.6681 61.1342 19.5625 61.2122 19.4958 61.32L19.496 61.318Z" fill="#4A3E42"/>
<path d="M23.4056 62.1342C23.6405 61.8704 23.9608 61.6976 24.3104 61.646C24.8199 61.5491 25.3342 61.4791 25.8511 61.4364C26.3126 61.3907 26.758 61.3613 27.1197 61.0368C27.3063 60.8693 27.4378 60.6493 27.497 60.4058C27.5562 60.1622 27.5404 59.9065 27.4516 59.6721C27.0838 58.7041 25.9544 58.7774 25.0979 58.78C24.0494 58.7832 22.8946 58.8201 21.9078 59.1997C20.8661 59.6007 20.1505 60.4456 19.4964 61.3185C19.4327 61.4289 19.4151 61.5599 19.4475 61.6831C19.4798 61.8063 19.5595 61.9119 19.6692 61.9768C19.7801 62.0382 19.9105 62.0546 20.0332 62.0224C20.1559 61.9903 20.2615 61.9121 20.328 61.8042C20.585 61.4583 20.867 61.1317 21.1719 60.8271C21.3943 60.5789 21.6601 60.3734 21.9564 60.2206C22.7447 59.827 23.6945 59.7883 24.5588 59.7541C24.9614 59.738 25.3644 59.7386 25.7676 59.7557C26.0521 59.7675 26.3336 59.72 26.4953 59.9121C26.5283 59.9509 26.551 59.9974 26.5615 60.0472C26.5719 60.097 26.5698 60.1487 26.5553 60.1975C26.5408 60.2463 26.5144 60.2908 26.4784 60.3268C26.4425 60.3629 26.3981 60.3894 26.3493 60.4041C26.0598 60.5162 25.6471 60.4917 25.3216 60.527C24.7945 60.5694 24.272 60.6566 23.7597 60.7876C23.3651 60.9205 23.0097 61.1494 22.7256 61.4537C22.2718 61.8773 22.9537 62.5564 23.4066 62.1342H23.4056Z" fill="#4A3E42"/>
<path d="M7.82262 16.5452L11.4268 12.9434L17.1304 7.24368L18.4468 5.92821H17.7659L21.37 9.53076L27.0737 15.2305L28.39 16.546C28.8288 16.9845 29.51 16.3042 29.071 15.8655L25.4668 12.263L19.7632 6.56339L18.4468 5.24772C18.3555 5.15931 18.2334 5.10986 18.1063 5.10986C17.9792 5.10986 17.8571 5.15931 17.7659 5.24772L14.1627 8.84907L8.45803 14.5492L7.14167 15.8647C6.70288 16.3032 7.38364 16.9839 7.82262 16.5452Z" fill="#4A3E42"/>
<path d="M23.3716 17.6465H18.9288C18.8016 17.6482 18.6802 17.6995 18.5903 17.7894C18.5003 17.8792 18.449 18.0006 18.4473 18.1277V22.1076C18.4491 22.2346 18.5004 22.356 18.5903 22.4458C18.6802 22.5357 18.8016 22.587 18.9288 22.5888H23.3716C23.4988 22.587 23.6202 22.5357 23.7101 22.4458C23.8 22.356 23.8513 22.2346 23.8532 22.1076V18.1277C23.8532 17.5083 22.8901 17.5073 22.8901 18.1277V22.1076L23.3716 21.6264H18.9288L19.4103 22.1076V18.1277L18.9288 18.6089H23.3716C23.9918 18.6089 23.9918 17.6465 23.3716 17.6465Z" fill="#4A3E42"/>
<path d="M8.63316 20.5986H13.7505L13.269 20.1174V27.5343C13.269 28.1534 14.2321 28.1544 14.2321 27.5343V20.1174C14.2303 19.9904 14.179 19.869 14.0891 19.7791C13.9991 19.6893 13.8777 19.638 13.7505 19.6362H8.63316C8.01341 19.6362 8.0124 20.5986 8.63316 20.5986Z" fill="#4A3E42"/>
</g>
</svg>
