<svg width="100" height="80" viewBox="0 0 100 80" fill="none" xmlns="http://www.w3.org/2000/svg">
<mask id="mask0_1592_28898" style="mask-type:alpha" maskUnits="userSpaceOnUse" x="0" y="0" width="100" height="80">
<rect width="100" height="80" fill="#D9D9D9"/>
</mask>
<g mask="url(#mask0_1592_28898)">
<path d="M83.7484 53.2802C84.8668 53.0205 85.9225 52.5386 86.8538 51.8627C87.6703 51.263 88.1724 50.4154 88.7585 48.8207C89.5343 46.7096 89.7574 44.1732 89.2926 41.4705C89.1982 40.9213 89.0787 40.2708 88.9201 39.5026C88.663 38.261 88.3153 36.7317 87.8125 35.5681C87.0703 33.8478 86.1037 32.4713 84.9334 31.0127C82.6301 28.1421 81.1828 26.8486 78.3111 24.9586C73.6831 22.5073 70.7219 21.7508 65.5081 20.883C60.2943 20.0153 49.9125 20.6837 44.8497 22.2121C39.1828 23.9222 34.6523 27.0848 29.2893 32.0463C28.6965 32.5872 27.9662 32.9514 27.1799 33.0982C23.1745 33.8747 21.5257 34.0473 18.1644 34.8281C16.3673 35.2458 14.5608 35.9181 13.2026 37.1756C10.7984 39.4025 10.5514 43.062 10.51 46.3686C10.4878 47.5069 10.6336 48.6423 10.9428 49.7375C11.6351 52.1222 12.7427 53.4802 15.6855 53.6855L30.6666 53.8035C40.7 53.8035 59.6763 53.6263 69.7565 53.7437L83.7484 53.2802Z" fill="white"/>
<path d="M69.7453 50.562C68.1356 50.562 65.7591 50.5646 65.7591 50.5646C64.4404 50.5646 39.3865 50.6533 34.7477 50.6282H31.0547C31.2931 51.3584 31.4141 52.1224 31.4133 52.8911C31.4133 53.2047 31.3983 53.5091 31.3717 53.8053L69.4031 53.7479C69.3792 53.4688 69.3659 53.1844 69.3659 52.8907C69.365 52.1008 69.4932 51.3161 69.7453 50.5682V50.562Z" fill="white"/>
<path d="M11.0352 41.1016C11.414 39.5991 12.0683 38.2284 13.2038 37.1769C13.9875 36.4736 14.8909 35.9188 15.8702 35.5391C16.664 35.6611 17.6081 35.8171 18.4186 35.9932C18.6331 36.0219 18.843 36.078 19.0434 36.16C19.2367 36.2581 19.4998 36.4664 19.3797 36.8318C19.0026 38.0315 18.4738 39.1771 17.8063 40.2406C17.5174 40.737 17.0486 41.101 16.4986 41.2556C14.5427 41.7805 12.4193 41.7052 10.8926 41.7405C10.9348 41.525 10.9823 41.3121 11.0352 41.1016Z" fill="white"/>
<path d="M85.312 36.1627C86.1627 36.0509 86.9999 35.8526 87.8109 35.5708C88.3199 36.8212 88.6884 38.125 88.9097 39.458C88.8046 39.464 88.734 39.4684 88.734 39.4684C87.8575 39.5757 86.9756 39.6328 86.0927 39.6394C85.9877 39.6452 85.8834 39.6191 85.7932 39.5645C85.7128 39.4894 85.6591 39.3898 85.6403 39.281C85.3929 38.3622 85.1645 37.4044 84.8976 36.541C84.8855 36.5029 84.8819 36.4626 84.887 36.4229C84.8921 36.3832 84.9059 36.3451 84.9273 36.3114C84.9486 36.2777 84.9771 36.2491 85.0107 36.2277C85.0443 36.2064 85.0821 36.1927 85.1215 36.1878C85.1821 36.1806 85.2457 36.172 85.312 36.1627Z" fill="white"/>
<path d="M36.9526 32.3672C36.9377 32.0079 37.0386 31.6535 37.2402 31.3569C37.5513 31.0013 37.976 30.7665 38.4408 30.6933L39.0081 30.6733C39.1771 30.6891 39.3385 30.7516 39.4745 30.8538C39.6106 30.956 39.7161 31.094 39.7795 31.2526C39.9037 31.7227 39.8388 32.7926 39.8507 33.0011C39.882 33.6999 39.8641 34.4001 39.7973 35.0964C39.7647 35.3826 39.5702 35.6862 39.0749 35.5828C38.5797 35.4793 37.8603 35.3852 37.6338 35.1099C37.4017 34.7752 37.2482 34.3916 37.1852 33.9882C37.0704 33.454 36.9927 32.9123 36.9526 32.3672Z" fill="white"/>
<path d="M24.445 50.4795C24.1227 50.4731 23.8024 50.532 23.5032 50.6529C23.204 50.7737 22.9319 50.954 22.7033 51.1831C22.4746 51.4121 22.294 51.6851 22.1722 51.9859C22.0504 52.2868 21.99 52.6092 21.9944 52.9341C21.9944 54.4662 22.9424 55.4348 24.445 55.4348C25.9829 55.4348 26.8957 54.4662 26.8957 52.9341C26.9004 52.6091 26.8401 52.2865 26.7184 51.9856C26.5968 51.6846 26.4162 51.4115 26.1875 51.1824C25.9587 50.9533 25.6866 50.773 25.3872 50.6522C25.0878 50.5315 24.7674 50.4727 24.445 50.4795Z" fill="white"/>
<path d="M76.336 50.4795C76.0138 50.473 75.6934 50.5318 75.3942 50.6526C75.0949 50.7734 74.8229 50.9537 74.5942 51.1826C74.3655 51.4116 74.1848 51.6846 74.063 51.9854C73.9412 52.2862 73.8806 52.6086 73.885 52.9334C73.885 54.4656 74.8328 55.4342 76.3357 55.4342C77.8733 55.4342 78.7863 54.4656 78.7863 52.9334C78.7909 52.6086 78.7306 52.2861 78.6089 51.9853C78.4872 51.6844 78.3066 51.4114 78.0779 51.1824C77.8493 50.9534 77.5772 50.7731 77.2779 50.6524C76.9787 50.5316 76.6583 50.4728 76.336 50.4795Z" fill="white"/>
<path d="M56.0547 33.8244C56.2525 32.247 56.5456 30.3273 56.8338 28.425C57.1028 26.6508 57.3678 24.8908 57.5459 23.439C59.1596 23.4574 60.7696 23.55 62.3758 23.7167C64.7691 23.9638 67.1564 24.3765 69.433 25.1619C72.9407 26.3723 77.8037 28.5366 80.0391 31.5178C80.0623 31.5491 80.0773 31.5858 80.0826 31.6245C80.0879 31.6632 80.0833 31.7026 80.0693 31.7391C80.0553 31.7755 80.0324 31.8078 80.0027 31.8329C79.9729 31.8579 79.9374 31.875 79.8993 31.8824C75.404 32.7531 62.7619 33.4484 57.8127 33.7295L56.0547 33.8244Z" fill="#1492D9"/>
<path d="M47.9885 24.3637C44.1865 25.2939 40.464 26.9582 37.6372 28.8599C35.3182 30.4206 33.9849 32.1152 32.455 33.754C32.4088 33.8042 32.378 33.8668 32.3665 33.9343C32.3549 34.0017 32.363 34.0711 32.3898 34.134C32.4166 34.1969 32.461 34.2506 32.5175 34.2885C32.574 34.3265 32.6402 34.3471 32.7081 34.3479C33.9018 34.3646 35.486 34.359 37.2772 34.3381C37.2428 34.2173 37.2143 34.0989 37.1919 33.9879C37.0769 33.4535 36.999 32.9117 36.9587 32.3664C36.9438 32.0072 37.0447 31.6527 37.2463 31.3561C37.5574 31.0005 37.9821 30.7657 38.4469 30.6925L39.0142 30.6726C39.1832 30.6884 39.3446 30.7508 39.4806 30.853C39.6167 30.9552 39.7222 31.0932 39.7856 31.2519C39.9098 31.7219 39.8449 32.7918 39.8568 33.0003C39.8687 33.2088 39.8813 33.7343 39.8602 34.2992C40.7463 34.2837 41.6579 34.2658 42.5796 34.2454C46.6053 34.1573 50.8078 34.0307 53.7735 33.9171C54.2712 30.0947 55.2261 25.1087 55.4698 23.4553C52.945 23.3788 50.4231 23.685 47.9885 24.3637Z" fill="#1492D9"/>
<path d="M18.9035 36.7061C18.6483 37.524 18.3153 38.3151 17.909 39.0684C17.551 39.7358 17.2031 40.5311 16.4256 40.7745C14.7576 41.2966 12.9268 41.233 11.2006 41.2574C10.5903 41.2659 10.5885 42.2228 11.2006 42.2142C12.6817 42.1931 14.163 42.1867 15.6275 41.9319C16.3593 41.8046 17.0741 41.6475 17.6511 41.1465C18.2012 40.6681 18.5388 39.9271 18.8673 39.2878C19.2514 38.5416 19.5699 37.7628 19.8191 36.9605C20.0021 36.3714 19.0857 36.1195 18.9035 36.7061Z" fill="#4A3E42"/>
<path d="M15.366 37.882C15.2705 38.3656 15.2521 38.8845 15.0616 39.3442L15.1095 39.2297C15.0982 39.256 15.0861 39.2818 15.0727 39.3071C15.0091 39.4167 14.9914 39.5472 15.0234 39.6699C15.0553 39.7927 15.1343 39.8976 15.2431 39.9616C15.3518 40.0257 15.4813 40.0435 15.6031 40.0113C15.7249 39.9791 15.829 39.8995 15.8925 39.7899C16.1601 39.2877 16.1732 38.6845 16.2816 38.1353C16.3121 38.0107 16.295 37.8791 16.2337 37.7665C16.1866 37.6852 16.1167 37.6197 16.0329 37.5782C15.949 37.5367 15.8548 37.5211 15.7621 37.5333C15.6695 37.5456 15.5825 37.5851 15.512 37.6469C15.4415 37.7087 15.3907 37.7902 15.366 37.881V37.882Z" fill="#4A3E42"/>
<path d="M31.3706 54.2848C33.6021 54.2831 35.8336 54.2764 38.065 54.2649C40.6636 54.2541 43.2623 54.2422 45.861 54.229C48.5876 54.2164 51.3143 54.2053 54.0409 54.1959C56.6566 54.1875 59.2721 54.1836 61.8876 54.1841C64.1432 54.1857 66.3989 54.1953 68.6547 54.2128C68.9039 54.2152 69.1531 54.2178 69.4024 54.2204C70.0136 54.227 70.0139 53.2702 69.4024 53.2636C67.1962 53.2397 64.9899 53.2279 62.7836 53.2283C60.1978 53.2244 57.6121 53.227 55.0265 53.2361C52.3006 53.2436 49.5746 53.2542 46.8486 53.2678C44.2216 53.2797 41.5947 53.2919 38.9677 53.3042C36.6883 53.3141 34.409 53.3214 32.1298 53.3264H31.3706C30.7599 53.3264 30.7587 54.2832 31.3706 54.2832V54.2848Z" fill="#4A3E42"/>
<path d="M15.6785 53.2105C14.1116 53.0909 12.7335 52.5409 11.9649 51.0937C10.9722 49.2248 10.9287 47.046 11.012 44.9812C11.0911 43.0228 11.3047 40.9566 12.2428 39.2034C13.2878 37.2498 15.2038 36.1676 17.2589 35.5608C19.0847 35.0226 20.9873 34.7018 22.8592 34.3705C23.8175 34.2011 24.7764 34.0344 25.7337 33.858C26.8483 33.6527 28.0034 33.5205 28.9758 32.8868C29.4421 32.5511 29.8812 32.1784 30.2887 31.7723C30.7421 31.3603 31.1997 30.9533 31.6618 30.5513C32.5364 29.7912 33.4279 29.049 34.3459 28.3425C36.0262 27.032 37.8121 25.8651 39.6851 24.854C41.4415 23.9155 43.2895 23.1627 45.1998 22.6078C46.7493 22.182 48.3259 21.8635 49.9185 21.6544C53.6749 21.1138 57.47 20.8956 61.263 21.0019C62.9206 21.046 64.573 21.2084 66.2078 21.4877C68.1994 21.8047 70.1686 22.2508 72.1032 22.8233C74.0532 23.4474 75.9439 24.2458 77.7528 25.2091C78.633 25.7022 79.4686 26.2722 80.2502 26.9123C80.9439 27.4502 81.6028 28.0322 82.2228 28.6549C83.7312 30.153 85.0734 31.8121 86.2255 33.603C86.8446 34.5555 87.3429 35.5823 87.709 36.6596C88.042 37.7337 88.3122 38.8267 88.5181 39.9328C88.9794 42.2233 89.2676 44.5243 88.8109 46.8433C88.4505 48.673 87.7869 50.7532 86.1284 51.7732C85.2954 52.2814 84.3866 52.6512 83.437 52.8684C82.8419 53.0062 83.0936 53.9289 83.6894 53.7912C85.5289 53.3654 87.4673 52.4468 88.4277 50.7351C89.5435 48.748 90.021 46.3764 90.0022 44.1101C89.9727 42.8997 89.8363 41.6945 89.5947 40.5085C89.3742 39.3262 89.1337 38.1419 88.8018 36.9857C88.1469 34.705 86.897 32.7359 85.4393 30.8945C84.1758 29.3008 82.8298 27.7742 81.2476 26.494C80.4679 25.8633 79.6507 25.2826 78.8171 24.7272C77.8648 24.0925 76.7577 23.6255 75.7118 23.1662C73.8663 22.3558 71.9506 21.7187 69.989 21.263C68.0382 20.7898 66.0597 20.4411 64.0653 20.2191C60.2793 19.8332 56.4083 20.0028 52.6277 20.3744C48.9135 20.7394 45.2429 21.3526 41.7819 22.808C37.6037 24.565 33.9437 27.2655 30.5543 30.2559C29.6595 31.0453 28.809 32.0806 27.6543 32.4767C27.0742 32.6471 26.4826 32.7751 25.8842 32.8599C25.3382 32.9617 24.7917 33.0614 24.2447 33.1589C22.3568 33.4946 20.4683 33.8189 18.5965 34.2399C16.3947 34.7353 14.1173 35.4663 12.5271 37.1715C11.1006 38.7005 10.5007 40.7543 10.2376 42.791C9.94604 45.0518 9.83093 47.5103 10.4376 49.7246C10.8604 51.2685 11.6069 52.7957 13.0947 53.536C13.9076 53.9122 14.7849 54.1266 15.6785 54.1674C16.2881 54.2136 16.2851 53.2566 15.6785 53.2105Z" fill="#4A3E42"/>
<path d="M39.8536 34.7748C43.972 34.7005 48.0898 34.5923 52.207 34.4501C52.6408 34.4575 53.0746 34.438 53.5061 34.3917C54.0257 34.3075 54.244 33.8917 54.3101 33.4129C54.4399 32.4726 54.5841 31.5343 54.7348 30.5969C55.0099 28.886 55.3104 27.1794 55.6065 25.4722C55.6629 25.1477 55.7187 24.823 55.7738 24.4982C55.8363 24.127 55.9294 23.7581 55.7206 23.4128C55.4308 22.9344 54.911 22.9563 54.4215 22.9611C53.9151 22.966 53.4093 22.9873 52.904 23.0249C50.7903 23.2079 48.7006 23.6066 46.6668 24.2149C42.9148 25.2854 39.2054 26.9673 36.1046 29.3728C34.7507 30.45 33.5095 31.6637 32.4003 32.9951C32.1036 33.3407 31.8327 33.6928 31.9931 34.1748C32.1472 34.6392 32.5594 34.8222 33.0141 34.8268C33.9125 34.8362 34.8108 34.834 35.7092 34.828C36.2295 34.8244 36.7499 34.8196 37.2704 34.8135C37.881 34.8063 37.8836 33.8494 37.2704 33.8566C36.3182 33.8675 35.3661 33.8742 34.4141 33.8766C34.0176 33.8766 33.6211 33.8752 33.2247 33.8724C33.1317 33.8659 33.0384 33.8651 32.9453 33.8698C32.9093 33.8738 32.8661 33.8919 32.9002 33.8813C32.9029 33.8813 32.893 33.8676 32.8922 33.8696C32.8622 33.937 32.9077 33.862 32.912 33.858C33.4603 33.2941 33.9437 32.6637 34.4914 32.0966C35.0408 31.5261 35.6219 30.9876 36.232 30.4837C38.9973 28.2052 42.3569 26.5987 45.7391 25.4977C47.5985 24.8729 49.5093 24.4161 51.449 24.1326C52.389 24.0053 53.3355 23.9342 54.2838 23.9195C54.4052 23.9178 54.5268 23.9169 54.6483 23.9167C54.6972 23.9167 54.8942 23.8868 54.9209 23.9189C54.9035 23.8978 54.9059 23.952 54.8989 23.9963C54.8546 24.2722 54.806 24.5475 54.7585 24.8227C54.4943 26.3563 54.2225 27.8885 53.9685 29.4236C53.8255 30.2868 53.6887 31.1506 53.5583 32.0151C53.4936 32.4489 53.4363 32.8838 53.372 33.3176C53.3654 33.3688 53.3541 33.4192 53.3384 33.4683C53.354 33.4236 53.4189 33.4567 53.3033 33.4531C53.0943 33.4466 52.8795 33.4687 52.6704 33.4763C48.8962 33.6114 45.1212 33.7157 41.3453 33.789C40.8478 33.7987 40.3503 33.8082 39.8528 33.8173C39.2426 33.8283 39.2406 34.7852 39.8528 34.7742L39.8536 34.7748Z" fill="#4A3E42"/>
<path d="M69.9969 25.8211C70.6551 26.917 71.2446 28.0532 71.762 29.2233C72.3095 30.3845 72.8362 31.5556 73.3517 32.7317C73.4158 32.8406 73.5199 32.9197 73.6415 32.9518C73.7631 32.984 73.8923 32.9666 74.0012 32.9034C74.1076 32.8372 74.1846 32.7323 74.2163 32.6104C74.248 32.4885 74.232 32.359 74.1715 32.2487C73.6561 31.0726 73.1293 29.9017 72.5819 28.7403C72.0645 27.5701 71.4749 26.4337 70.8165 25.3379C70.4882 24.8208 69.6662 25.3002 69.9969 25.8209V25.8211Z" fill="#4A3E42"/>
<path d="M56.5299 33.8236C56.8292 31.4461 57.2178 29.0802 57.5687 26.71C57.6576 26.1107 57.7439 25.5108 57.8276 24.9104C57.8672 24.6229 57.9059 24.3353 57.9437 24.0476C57.9511 23.9918 57.9598 23.9358 57.9657 23.88C57.992 23.6314 57.9774 23.8343 57.9657 23.8325L57.8249 23.9206L58.0189 23.9242C58.1161 23.9262 58.2131 23.9285 58.31 23.931C59.5391 23.963 60.766 24.038 61.9908 24.1559C64.3768 24.3845 66.7598 24.7766 69.0417 25.5313C70.8105 26.1135 72.5329 26.83 74.1941 27.6749C75.8571 28.5251 77.4956 29.522 78.8272 30.8522C78.9783 31.0033 79.1247 31.159 79.2665 31.3193C79.3324 31.3936 79.3969 31.469 79.4599 31.5455C79.4877 31.5792 79.5153 31.613 79.5426 31.6472C79.6494 31.7806 79.6057 31.8067 79.7008 31.5874C79.8009 31.3601 79.7776 31.4197 79.6318 31.4479C79.5701 31.4594 79.5082 31.4706 79.4463 31.4815C79.3144 31.5049 79.1825 31.5273 79.0507 31.5485C78.7738 31.5934 78.4969 31.635 78.2199 31.6733C77.9804 31.707 77.6841 31.7457 77.3678 31.7845C74.1596 32.1802 70.9311 32.4177 67.7076 32.6429C64.6729 32.8548 61.6354 33.0344 58.599 33.2065L57.8118 33.2511C57.2044 33.2856 57.2004 34.2427 57.8118 34.208C60.8418 34.0359 63.8716 33.8613 66.8994 33.6554C70.3058 33.4238 73.7172 33.1792 77.1083 32.7729C77.7787 32.6932 78.4484 32.6052 79.1156 32.501C79.3842 32.4589 79.6522 32.4141 79.9194 32.3638C80.027 32.3498 80.1303 32.3127 80.2225 32.2549C80.3146 32.1972 80.3933 32.1202 80.4534 32.0291C80.6479 31.7154 80.5379 31.3912 80.3324 31.1247C79.1577 29.6009 77.5308 28.4535 75.882 27.5052C74.1185 26.5109 72.2744 25.6693 70.3695 24.9895C68.115 24.1808 65.7767 23.6324 63.3995 23.3549C62.111 23.1938 60.8177 23.0824 59.5194 23.0206C59.2124 23.0054 58.9053 22.993 58.5982 22.9833C58.2818 22.9731 57.906 22.91 57.599 22.9971C56.9502 23.1815 57.0022 23.9828 56.9281 24.5242C56.5823 27.0463 56.1685 29.5583 55.8125 32.0794C55.7305 32.6609 55.6524 33.2428 55.5781 33.825C55.5788 33.9517 55.629 34.073 55.7179 34.1626C55.8068 34.2521 55.9271 34.3028 56.0528 34.3035C56.1778 34.3005 56.2968 34.2491 56.3852 34.16C56.4736 34.0709 56.5246 33.951 56.5275 33.825L56.5299 33.8236Z" fill="#4A3E42"/>
<path d="M54.702 35.3778C54.4844 36.9203 54.2867 38.4589 54.2206 40.0165C54.1429 41.8415 54.1045 43.6677 54.0924 45.4941C54.0857 46.5156 54.083 47.5369 54.0843 48.5582C54.0843 49.174 55.0337 49.175 55.0337 48.5582C55.0337 46.742 55.0337 44.9254 55.0715 43.1094C55.1039 41.529 55.1308 39.938 55.2764 38.363C55.3611 37.4494 55.489 36.5404 55.6174 35.632C55.6467 35.5098 55.6288 35.3809 55.5672 35.2715C55.5056 35.1622 55.4051 35.0806 55.2859 35.0433C55.1645 35.0105 55.0352 35.0272 54.9259 35.0897C54.8166 35.1523 54.7362 35.2559 54.702 35.3778Z" fill="#4A3E42"/>
<path d="M33.1355 36.4399C32.6511 37.8974 32.3704 39.4157 32.3014 40.9512C32.2542 42.5694 32.2988 44.189 32.4349 45.8021C32.5067 46.7061 32.6054 47.6079 32.7377 48.505C32.7719 48.6269 32.8524 48.7303 32.9617 48.7928C33.0709 48.8553 33.2003 48.872 33.3216 48.8391C33.4413 48.8027 33.5425 48.7213 33.6043 48.6117C33.666 48.5022 33.6836 48.3729 33.6533 48.2506C33.4356 46.7121 33.304 45.1624 33.2593 43.6089C33.2093 42.1537 33.1689 40.6634 33.4241 39.2249C33.5759 38.368 33.7854 37.5225 34.0509 36.6942C34.2396 36.1072 33.3232 35.8556 33.1355 36.4399Z" fill="#4A3E42"/>
<path d="M34.7501 51.108C36.3305 51.1166 37.9111 51.113 39.4915 51.1112C41.9561 51.1086 44.4208 51.104 46.8856 51.0975C49.6088 51.0911 52.3317 51.0838 55.0544 51.0757L61.9303 51.0558C63.163 51.0521 64.3956 51.0486 65.6281 51.0452H65.761C66.3718 51.0452 66.3728 50.0884 65.761 50.0884C64.7034 50.0884 63.6456 50.094 62.588 50.0972C60.3908 50.1037 58.1934 50.1103 55.9957 50.1171C53.2879 50.1251 50.5801 50.1324 47.8724 50.1392C45.3438 50.1455 42.8151 50.1505 40.2864 50.1544C38.5618 50.1568 36.8371 50.1599 35.1125 50.1544C34.9915 50.1544 34.8705 50.1538 34.7496 50.1528C34.1386 50.1496 34.1378 51.1064 34.7496 51.1096L34.7501 51.108Z" fill="#4A3E42"/>
<path d="M74.0939 34.9497C74.4736 35.9252 74.7985 36.9214 75.0672 37.9337C75.3882 39.0398 75.6978 40.152 75.9555 41.2751C75.998 41.4611 76.0399 41.6475 76.0732 41.8352C76.0797 41.8717 76.0831 41.9096 76.0916 41.9455C76.1062 42.0081 76.0876 41.8095 76.086 41.9056C76.086 41.9239 76.0963 41.9523 76.09 41.9698C76.112 41.8655 76.1562 41.7673 76.2195 41.6819L76.5558 41.5424C75.7421 41.5505 74.9293 41.6003 74.1206 41.6917C73.2376 41.8058 72.3761 42.0502 71.5637 42.4171C70.2514 42.9867 69.1838 44.0093 68.5527 45.3012C68.4924 45.4115 68.4764 45.5409 68.5081 45.6627C68.5398 45.7845 68.6167 45.8894 68.723 45.9557C68.832 46.0186 68.9611 46.0359 69.0826 46.0038C69.2041 45.9717 69.3082 45.8928 69.3725 45.784C69.6607 45.1627 70.0702 44.6063 70.5765 44.148C71.0451 43.753 71.5717 43.4335 72.1375 43.2011C72.9036 42.8773 73.7145 42.6738 74.5419 42.5979C74.9232 42.5595 75.3061 42.5381 75.6891 42.5252C75.874 42.5186 76.0591 42.5136 76.2441 42.5084C76.4658 42.502 76.7204 42.5303 76.8913 42.3591C77.1112 42.1386 77.0321 41.8133 76.9822 41.5434C76.9207 41.2097 76.84 40.8794 76.7591 40.5501C76.5133 39.5498 76.2391 38.5566 75.9505 37.5675C75.69 36.5932 75.3759 35.6343 75.0096 34.6951C74.9727 34.5751 74.8918 34.4737 74.7833 34.4116C74.6748 34.3496 74.547 34.3315 74.4258 34.361C74.3047 34.3953 74.2019 34.4764 74.1397 34.5866C74.0776 34.6968 74.0611 34.8273 74.0939 34.9497Z" fill="#4A3E42"/>
<path d="M87.5973 35.141C87.001 35.3499 86.3878 35.5057 85.7645 35.6067C85.6276 35.6316 85.4905 35.6548 85.3531 35.676C85.2808 35.6872 85.2083 35.6979 85.1355 35.7081C85.1567 35.7051 85.2073 35.698 85.111 35.7111C85.0504 35.7163 84.9902 35.7261 84.931 35.7404C84.4696 35.8772 84.3339 36.3536 84.4616 36.7754C84.6917 37.5347 84.8806 38.306 85.0825 39.0732C85.1871 39.4719 85.2752 39.9055 85.7097 40.0592C86.0095 40.1339 86.3201 40.1541 86.6269 40.119C87.3277 40.0953 88.0259 40.0183 88.7235 39.9496C88.8484 39.9462 88.9672 39.8948 89.0555 39.8058C89.1438 39.7167 89.1949 39.597 89.1982 39.4711C89.1973 39.3445 89.147 39.2233 89.0582 39.1338C88.9694 39.0443 88.8491 38.9936 88.7235 38.9927C88.1993 39.0445 87.6752 39.0992 87.1499 39.1346C86.89 39.1522 86.6297 39.1657 86.3694 39.1677C86.2533 39.1505 86.1355 39.148 86.0189 39.1604C86.0371 39.1444 85.9002 39.0354 86.0705 39.2024C86.1822 39.3123 86.0944 39.2236 86.0942 39.199C86.0942 39.2323 86.0901 39.1659 86.0875 39.1566C86.0735 39.1071 86.0608 39.0569 86.0479 39.0073C85.8721 38.3468 85.7083 37.683 85.5238 37.025C85.4799 36.8687 85.4347 36.7128 85.3881 36.5573C85.3814 36.521 85.3706 36.4856 85.3561 36.4517C85.3127 36.3819 85.3561 36.4716 85.3434 36.5115C85.3224 36.583 85.2425 36.6111 85.2049 36.651C85.1521 36.6636 85.1456 36.6666 85.1852 36.66C85.2146 36.6562 85.2445 36.6522 85.2734 36.648C85.5424 36.6117 85.8103 36.5691 86.077 36.52C86.6794 36.42 87.2721 36.2679 87.8487 36.0655C87.9682 36.029 88.0693 35.9475 88.131 35.838C88.1927 35.7285 88.2103 35.5993 88.1802 35.4771C88.1458 35.3553 88.0654 35.252 87.9561 35.1894C87.8469 35.1269 87.7177 35.1101 87.5963 35.1428L87.5973 35.141Z" fill="#4A3E42"/>
<path d="M53.0344 37.6955C53.0261 37.2889 53.0835 36.8312 52.7929 36.5048C52.705 36.4094 52.5984 36.3335 52.4799 36.2818C52.3613 36.2301 52.2334 36.2038 52.1042 36.2046C51.8488 36.1969 51.5921 36.2046 51.3368 36.2046H48.9951C48.9286 36.2046 48.8616 36.202 48.7951 36.2046C48.6076 36.2067 48.4253 36.267 48.2731 36.3774C48.1209 36.4877 48.0062 36.6427 47.9446 36.8212C47.8991 37.0035 47.8858 37.1924 47.905 37.3794C47.8939 37.5896 47.9151 37.8002 47.9677 38.0039C48.0313 38.1784 48.146 38.3293 48.2966 38.4366C48.4471 38.5439 48.6265 38.6025 48.8109 38.6047C49.4462 38.6292 50.0871 38.6047 50.7228 38.6047H51.9373C52.0043 38.6047 52.0721 38.6077 52.1392 38.6047C52.3759 38.5993 52.6014 38.5016 52.7681 38.3322C52.9348 38.1627 53.0299 37.9347 53.0332 37.6961C53.0332 37.5692 52.9832 37.4475 52.8942 37.3578C52.8052 37.2681 52.6844 37.2177 52.5585 37.2177C52.4326 37.2177 52.3119 37.2681 52.2229 37.3578C52.1338 37.4475 52.0838 37.5692 52.0838 37.6961C52.0872 37.626 52.1752 37.6676 52.102 37.6479C52.0206 37.6383 51.9384 37.6383 51.8569 37.6479H48.9889C48.9676 37.6479 48.8266 37.6311 48.8135 37.6479C48.8135 37.6467 48.8396 37.6658 48.8552 37.6756C48.879 37.6905 48.8459 37.7583 48.8624 37.6802C48.8698 37.5799 48.8669 37.4791 48.8537 37.3794C48.8525 37.3383 48.8647 37.0644 48.8258 37.1495C48.8135 37.176 48.7862 37.1459 48.8012 37.1621C48.819 37.182 48.9666 37.1621 48.9931 37.1621H51.9446C52.0041 37.1697 52.0643 37.1697 52.1238 37.1621C52.1097 37.1832 52.0518 37.1035 52.0706 37.0971C52.0609 37.2965 52.065 37.4963 52.083 37.6951C52.0975 38.3103 53.0469 38.3125 53.0344 37.6955Z" fill="#4A3E42"/>
<path d="M73.0149 37.6955C73.0066 37.2889 73.0639 36.8312 72.7734 36.5048C72.6855 36.4094 72.5789 36.3335 72.4603 36.2818C72.3418 36.2301 72.2138 36.2038 72.0847 36.2046C71.8293 36.1969 71.5726 36.2046 71.3172 36.2046H68.9755C68.9091 36.2046 68.842 36.202 68.7756 36.2046C68.5881 36.2067 68.4058 36.267 68.2536 36.3774C68.1014 36.4877 67.9866 36.6427 67.9251 36.8212C67.8796 37.0035 67.8662 37.1924 67.8855 37.3794C67.8748 37.5894 67.8963 37.7999 67.9492 38.0033C68.0128 38.1778 68.1274 38.3287 68.278 38.436C68.4286 38.5433 68.608 38.6019 68.7924 38.6041C69.4277 38.6286 70.0685 38.6041 70.7043 38.6041H71.9187C71.9858 38.6041 72.0536 38.6071 72.1207 38.6041C72.3574 38.5987 72.5828 38.501 72.7495 38.3316C72.9163 38.1621 73.0113 37.9341 73.0147 37.6955C73.0147 37.5686 72.9647 37.4469 72.8756 37.3572C72.7866 37.2675 72.6659 37.2171 72.54 37.2171C72.4141 37.2171 72.2933 37.2675 72.2043 37.3572C72.1153 37.4469 72.0653 37.5686 72.0653 37.6955C72.0686 37.6254 72.1567 37.667 72.0835 37.6473C72.0021 37.6377 71.9198 37.6377 71.8384 37.6473H68.9704C68.949 37.6473 68.808 37.6305 68.795 37.6473C68.795 37.6461 68.8211 37.6652 68.8367 37.675C68.8604 37.6899 68.8274 37.7577 68.8438 37.6796C68.8512 37.5793 68.8483 37.4785 68.8351 37.3788C68.8339 37.3377 68.8462 37.0638 68.8072 37.1489C68.795 37.1754 68.7677 37.1453 68.7827 37.1615C68.8005 37.1814 68.948 37.1615 68.9746 37.1615H71.926C71.9855 37.1691 72.0457 37.1691 72.1052 37.1615C72.0912 37.1826 72.0332 37.1029 72.0522 37.0965C72.0423 37.2959 72.0464 37.4957 72.0645 37.6945C72.0779 38.3103 73.0273 38.3125 73.0149 37.6955Z" fill="#4A3E42"/>
<path d="M37.6808 35.185C37.5109 35.3346 37.3538 35.4985 37.2113 35.6747C37.1162 35.7883 37.0281 35.9075 36.9472 36.0318C36.843 36.1758 36.7802 36.3459 36.7656 36.5236C36.7648 36.6205 36.7892 36.7161 36.8364 36.8006C36.8837 36.8851 36.9521 36.9556 37.0348 37.0052C37.1507 37.064 37.2777 37.0974 37.4073 37.103C37.5368 37.1196 37.6668 37.1308 37.7971 37.1375C37.9423 37.1453 38.0877 37.1477 38.2323 37.1473C38.3253 37.1498 38.4184 37.146 38.511 37.1361C38.5994 37.1267 38.6844 37.0963 38.7589 37.0474C38.8334 36.9984 38.8953 36.9324 38.9396 36.8547C39.0079 36.6777 39.0516 36.492 39.0693 36.3029C39.1036 36.1402 39.1451 35.9793 39.1938 35.8203C39.226 35.6979 39.2093 35.5677 39.1473 35.4576C39.0853 35.3475 38.9828 35.2664 38.8621 35.2316C38.7407 35.2005 38.6122 35.218 38.5033 35.2803C38.3945 35.3426 38.3138 35.445 38.2782 35.5659C38.2325 35.7164 38.1923 35.8687 38.1595 36.0226C38.1434 36.0976 38.1288 36.1727 38.1156 36.2481C38.1075 36.3284 38.0931 36.4079 38.0725 36.4859L38.1203 36.3717L38.1089 36.3916L38.183 36.2947L38.1698 36.3073L38.2657 36.2325L38.2473 36.2429L38.3607 36.1946C38.3486 36.2005 38.3356 36.2039 38.3223 36.2048L38.4485 36.1877C38.0928 36.1993 37.7368 36.1844 37.3834 36.143L37.5095 36.1599C37.481 36.1572 37.4529 36.1518 37.4253 36.144L37.5386 36.1922C37.5269 36.1877 37.516 36.1814 37.5062 36.1735L37.6023 36.2483L37.5895 36.2351L37.6638 36.332L37.6545 36.316L37.7024 36.4305L37.6971 36.4079L37.7141 36.5351L37.7155 36.5116L37.6984 36.6388C37.7036 36.618 37.7103 36.5976 37.7182 36.5778L37.6704 36.692C37.732 36.5605 37.8092 36.437 37.9004 36.3242L37.8262 36.4209C37.983 36.2178 38.1588 36.0305 38.3512 35.8613C38.4396 35.7713 38.4893 35.6497 38.4893 35.523C38.4893 35.3963 38.4396 35.2748 38.3512 35.1848C38.2607 35.0978 38.1405 35.0493 38.0155 35.0493C37.8905 35.0493 37.7703 35.0978 37.6799 35.1848L37.6808 35.185Z" fill="#4A3E42"/>
<path d="M38.7362 35.6913C38.6503 35.9739 38.586 36.2626 38.544 36.5551C38.5422 36.5823 38.5335 36.6086 38.5188 36.6314C38.5004 36.6509 38.4753 36.6627 38.4486 36.6645C38.077 36.6782 37.7049 36.661 37.336 36.6133C37.3173 36.6121 37.2991 36.6063 37.2832 36.5963C37.2672 36.5863 37.254 36.5725 37.2446 36.5561C37.2362 36.5252 37.24 36.4921 37.2553 36.464C37.4483 36.1046 37.7065 35.7849 38.0164 35.5215L38.7362 35.6913Z" fill="#4A3E42"/>
<path d="M37.4265 32.3646C37.4344 31.9783 37.5351 31.6547 37.8161 31.4548C37.9719 31.3418 38.1451 31.2553 38.3286 31.1986C38.4187 31.1681 38.5139 31.1559 38.6087 31.1626C38.8797 31.1532 39.0779 31.0892 39.266 31.3021C39.3291 31.3827 39.3617 31.4833 39.3579 31.586C39.3767 31.7973 39.3819 32.0094 39.3825 32.2215C39.3846 32.9369 39.4068 33.6567 39.3761 34.3714C39.367 34.5837 39.3563 34.81 39.3324 35.0137C39.3285 35.046 39.3158 35.0771 39.3089 35.1086C39.3265 35.0302 39.278 35.1568 39.3025 35.1187C39.3271 35.0807 39.3668 35.1147 39.2845 35.1273C39.3316 35.1201 39.2232 35.1209 39.2288 35.1209C39.0353 35.1027 38.844 35.0658 38.6575 35.0107C38.4565 34.9793 38.26 34.9232 38.0725 34.8436C37.9829 34.7988 38.0052 34.8135 37.9577 34.7474C37.8866 34.6429 37.8304 34.5288 37.7908 34.4085C37.7119 34.1722 37.651 33.9302 37.6086 33.6847C37.5089 33.2509 37.4479 32.809 37.4265 32.3642C37.4215 31.7488 36.4721 31.7474 36.4771 32.3642C36.5023 32.8946 36.5746 33.4217 36.6933 33.939C36.8018 34.5089 36.9654 35.2254 37.4605 35.5856C37.8899 35.8982 38.5185 35.9743 39.0282 36.0551C39.1634 36.0855 39.3033 36.0879 39.4394 36.062C39.5755 36.0361 39.7049 35.9824 39.8197 35.9043C39.9345 35.8263 40.0323 35.7254 40.107 35.6079C40.1818 35.4904 40.232 35.3587 40.2545 35.221C40.4179 34.2546 40.3321 33.2323 40.3317 32.2544C40.3317 31.7305 40.3538 31.1247 40.0031 30.7015C39.8526 30.5244 39.662 30.3864 39.4474 30.2993C39.2328 30.2121 39.0006 30.1782 38.7703 30.2005C38.2609 30.1969 37.7619 30.3457 37.3365 30.6281C36.7431 31.0334 36.4911 31.6539 36.4767 32.3642C36.4648 32.9806 37.4142 32.9806 37.4265 32.3646Z" fill="#4A3E42"/>
<path d="M19.8235 36.9607C19.8806 36.7759 19.882 36.5782 19.8274 36.3926C19.7728 36.207 19.6648 36.0419 19.5169 35.9184C19.2048 35.6576 18.8304 35.597 18.4455 35.5149C17.6784 35.3514 16.9043 35.2228 16.1295 35.1024C16.0083 35.0726 15.8803 35.0906 15.7718 35.1527C15.6633 35.2148 15.5824 35.3163 15.5456 35.4365C15.5131 35.5589 15.5296 35.6892 15.5916 35.7993C15.6537 35.9094 15.7562 35.9905 15.8771 36.025C16.5334 36.1271 17.1887 36.2357 17.8402 36.3651C18.1546 36.4067 18.465 36.474 18.7685 36.5664C18.8021 36.5805 18.8346 36.5972 18.8656 36.6165C18.8757 36.6222 18.9384 36.6693 18.8933 36.6326C18.8482 36.5959 18.9097 36.6515 18.9174 36.6589C18.9354 36.6789 18.9356 36.6777 18.9186 36.6557C18.9016 36.6338 18.9018 36.6324 18.9166 36.6557C18.9315 36.6791 18.9309 36.6783 18.9202 36.6525C18.9111 36.6258 18.9095 36.6268 18.9202 36.6525C18.9293 36.6793 18.9283 36.6793 18.9241 36.6525C18.92 36.6258 18.9212 36.6256 18.922 36.6557C18.9079 36.741 18.957 36.5371 18.9089 36.706C18.8923 36.7665 18.8878 36.8298 18.8955 36.8922C18.9032 36.9545 18.923 37.0147 18.9537 37.0694C18.9845 37.124 19.0257 37.172 19.0749 37.2106C19.1241 37.2493 19.1803 37.2777 19.2404 37.2944C19.3005 37.3111 19.3633 37.3157 19.4252 37.308C19.487 37.3002 19.5468 37.2803 19.601 37.2493C19.6552 37.2182 19.7029 37.1767 19.7412 37.1272C19.7795 37.0776 19.8077 37.0209 19.8243 36.9603L19.8235 36.9607Z" fill="#4A3E42"/>
<path d="M24.446 45.9116C20.3261 45.9116 17.4785 49.1274 17.4785 52.8905C17.4785 57.2467 20.1736 60.0003 24.4462 60.0003C28.8174 60.0003 31.4139 57.2467 31.4139 52.8905C31.4139 49.1019 28.5514 45.9116 24.446 45.9116ZM24.446 55.4337C22.9428 55.4337 21.9953 54.4651 21.9953 52.9329C21.9953 52.2779 22.2535 51.6496 22.7131 51.1864C23.1727 50.7233 23.796 50.463 24.446 50.463C25.0959 50.463 25.7193 50.7233 26.1789 51.1864C26.6385 51.6496 26.8967 52.2779 26.8967 52.9329C26.8968 54.4659 25.9838 55.4337 24.446 55.4337Z" fill="#4A3E42"/>
<path d="M76.3345 45.9116C72.2148 45.9116 69.3672 49.1274 69.3672 52.8905C69.3672 57.2467 72.0621 60.0003 76.3349 60.0003C80.7061 60.0003 83.3025 57.2467 83.3025 52.8905C83.3025 49.1019 80.4399 45.9116 76.3345 45.9116ZM76.3345 55.4337C74.8312 55.4337 73.8838 54.4651 73.8838 52.9329C73.8838 52.2779 74.142 51.6496 74.6016 51.1864C75.0612 50.7233 75.6845 50.463 76.3345 50.463C76.9844 50.463 77.6078 50.7233 78.0673 51.1864C78.5269 51.6496 78.7851 52.2779 78.7851 52.9329C78.7855 54.4659 77.8725 55.4337 76.3349 55.4337H76.3345Z" fill="#4A3E42"/>
</g>
</svg>
