<svg width="370" height="180" viewBox="0 0 370 180" fill="none" xmlns="http://www.w3.org/2000/svg">
<path d="M0 0H370V180H0V0Z" fill="white"/>
<mask id="mask0_1827_25306" style="mask-type:alpha" maskUnits="userSpaceOnUse" x="0" y="0" width="370" height="180">
<path d="M0 0H370V180H0V0Z" fill="white"/>
</mask>
<g mask="url(#mask0_1827_25306)">
<path fill-rule="evenodd" clip-rule="evenodd" d="M332.443 -5.01438C332.443 13.2031 318.026 49.7653 300.242 49.7653C282.458 49.7653 268.041 13.2031 268.041 -5.01438C268.041 -23.2318 282.458 -38 300.242 -38C318.026 -38 332.443 -23.2318 332.443 -5.01438ZM366.785 110.986C356.618 96.0394 324.383 74.4858 309.792 84.9014C295.201 95.3169 303.78 133.758 313.947 148.704C324.115 163.65 344.186 167.323 358.777 156.907C373.368 146.492 376.953 125.932 366.785 110.986ZM316.05 63.6223C320.543 81.2488 358.72 86.3009 375.927 81.6985C393.134 77.096 403.441 59.0759 398.948 41.4494C394.456 23.8229 376.864 13.2648 359.657 17.8672C342.45 22.4697 311.557 45.9958 316.05 63.6223ZM221.419 77.0826C238.361 82.6216 276.747 79.6693 282.155 62.3144C287.562 44.9594 257.943 19.7736 241 14.2346C224.058 8.69563 205.94 18.2744 200.533 35.6293C195.126 52.9843 204.477 71.5436 221.419 77.0826ZM283.328 82.6362C298.707 91.7839 293.252 130.818 284.322 146.572C275.392 162.327 255.685 167.682 240.306 158.534C224.926 149.387 219.698 129.2 228.628 113.445C237.558 97.6913 267.948 73.4884 283.328 82.6362Z" fill="#FAF1F5"/>
</g>
<path d="M172.234 104.136C171.73 100.368 176.818 99.504 176.818 97.176C176.818 95.736 175.666 94.92 173.794 94.92C172.306 94.92 171.13 95.568 169.954 96.816L167.986 94.992C169.498 93.216 171.61 92.064 174.178 92.064C177.658 92.064 180.202 93.672 180.202 96.864C180.202 100.392 174.97 100.8 175.33 104.136H172.234ZM173.794 110.52C172.57 110.52 171.682 109.656 171.682 108.408C171.682 107.136 172.594 106.272 173.794 106.272C175.018 106.272 175.906 107.136 175.906 108.408C175.906 109.656 175.018 110.52 173.794 110.52Z" fill="#E5005A"/>
<path d="M162.944 101.856C162.944 106.92 159.848 110.496 153.8 111.432L152 108.576C152.912 108.48 153.584 108.336 154.232 108.192C157.304 107.472 159.704 105.264 159.704 101.76C159.704 98.4481 157.904 95.9761 154.664 95.4241C154.328 97.4641 153.92 99.6721 153.224 101.928C151.784 106.776 149.72 109.752 147.104 109.752C144.44 109.752 142.232 106.824 142.232 102.768C142.232 97.2241 147.032 92.4961 153.248 92.4961C159.2 92.4961 162.944 96.6241 162.944 101.856ZM145.304 102.456C145.304 104.88 146.264 106.056 147.2 106.056C148.208 106.056 149.144 104.544 150.128 101.304C150.68 99.5281 151.136 97.4881 151.4 95.4961C147.44 96.3121 145.304 99.8161 145.304 102.456Z" fill="#E5005A"/>
<path d="M127.309 91.0802C127.093 91.9442 126.997 92.5922 126.901 93.2162C126.829 93.6242 126.733 94.2722 126.637 95.0642C128.365 95.0402 129.901 94.8962 131.029 94.7282L130.933 97.5842C129.493 97.7282 128.173 97.8242 126.253 97.8242C126.109 98.8802 125.965 100.008 125.845 101.088C125.893 101.088 125.965 101.088 126.013 101.088C127.501 101.088 129.277 100.992 130.837 100.8L130.765 103.656C129.421 103.776 128.029 103.872 126.517 103.872C126.205 103.872 125.869 103.872 125.557 103.872C125.509 104.592 125.461 105.192 125.461 105.624C125.461 107.616 126.685 108.672 129.037 108.672C132.397 108.672 134.221 107.136 134.221 105.168C134.221 103.536 133.333 102 131.749 100.512L135.133 99.7922C136.717 101.808 137.461 103.512 137.461 105.552C137.461 109.176 134.197 111.768 128.941 111.768C125.173 111.768 122.509 110.136 122.509 106.128C122.509 105.552 122.581 104.688 122.677 103.704C120.925 103.536 119.341 103.272 118.069 102.912L118.237 100.008C119.797 100.536 121.405 100.8 122.965 100.968C123.109 99.8882 123.253 98.7602 123.373 97.6802C121.717 97.5122 120.013 97.2242 118.597 96.8162L118.765 94.0562C120.157 94.5122 121.957 94.8242 123.709 94.9682C123.781 94.2242 123.853 93.5762 123.901 93.0242C123.973 91.8962 123.973 91.4162 123.925 90.8882L127.309 91.0802Z" fill="#E5005A"/>
<path d="M109.608 102.456C109.608 100.872 108.36 99.576 106.104 99.576C103.464 99.576 101.088 100.392 99.864 100.752C99.168 100.944 98.232 101.328 97.536 101.592L96.624 98.16C97.44 98.088 98.472 97.92 99.264 97.752C101.016 97.344 103.704 96.648 106.512 96.648C110.304 96.648 112.968 98.808 112.968 102.576C112.968 107.712 108.216 110.904 101.544 111.816L99.816 108.84C105.768 108.168 109.608 106.2 109.608 102.456ZM100.176 90.936C102.96 91.536 108.408 91.992 110.952 92.016L110.472 94.968C107.664 94.776 102.456 94.296 99.696 93.816L100.176 90.936Z" fill="#E5005A"/>
<path d="M75.8669 93.1442C75.6989 94.0082 75.5789 95.4002 75.5789 96.0722C75.5549 97.6322 75.5789 99.4322 75.7229 101.16C76.0589 104.616 76.7789 106.992 78.2909 106.992C79.4189 106.992 80.3789 104.184 80.8349 102.264L83.2349 105.192C81.6509 109.368 80.1389 110.832 78.2189 110.832C75.5789 110.832 73.2989 108.456 72.6269 102.024C72.3869 99.8162 72.3629 97.0082 72.3629 95.5442C72.3629 94.8722 72.3149 93.8402 72.1709 93.0962L75.8669 93.1442ZM87.8669 93.6962C90.1469 96.4562 91.9709 102.456 92.2349 106.128L89.0909 107.352C88.7069 103.488 87.4349 97.6562 84.8189 94.6802L87.8669 93.6962Z" fill="#E5005A"/>
<path d="M63.111 102.456C63.111 100.872 61.863 99.576 59.607 99.576C56.967 99.576 54.591 100.392 53.367 100.752C52.671 100.944 51.735 101.328 51.039 101.592L50.127 98.16C50.943 98.088 51.975 97.92 52.767 97.752C54.519 97.344 57.207 96.648 60.015 96.648C63.807 96.648 66.471 98.808 66.471 102.576C66.471 107.712 61.719 110.904 55.047 111.816L53.319 108.84C59.271 108.168 63.111 106.2 63.111 102.456ZM53.679 90.936C56.463 91.536 61.911 91.992 64.455 92.016L63.975 94.968C61.167 94.776 55.959 94.296 53.199 93.816L53.679 90.936Z" fill="#E5005A"/>
<path d="M31.8302 91.5358C32.7422 94.0318 33.8462 96.3358 34.8302 98.1838C36.5822 97.1518 38.2862 96.2878 39.4142 95.6398C40.3022 95.1358 40.9982 94.7038 41.6462 94.1998L43.1582 97.0318C42.3902 97.4638 41.6222 97.8718 40.7582 98.3038C39.2462 99.0478 37.0142 100.104 34.8062 101.52C32.8142 102.84 31.4702 104.208 31.4702 105.888C31.4702 107.616 33.1502 108.528 36.4862 108.528C38.9342 108.528 42.1742 108.144 44.3102 107.664L44.2622 111.096C42.2222 111.456 39.6782 111.72 36.5582 111.72C31.7822 111.72 28.1582 110.376 28.1582 106.224C28.1582 103.584 29.8382 101.616 32.1422 99.9118C31.0382 97.8718 29.8862 95.2798 28.8062 92.7598L31.8302 91.5358ZM43.4222 91.1758C44.0222 92.0398 44.8862 93.5758 45.3422 94.4638L43.3982 95.2798C42.9182 94.2958 42.1742 92.8798 41.5262 91.9438L43.4222 91.1758ZM46.2782 90.0718C46.9022 90.9838 47.7902 92.5198 48.2222 93.3598L46.3022 94.1758C45.7982 93.1678 45.0302 91.7758 44.3822 90.8638L46.2782 90.0718Z" fill="#E5005A"/>
<path d="M198.708 51.0802C198.492 51.9442 198.396 52.5922 198.3 53.2162C198.228 53.6242 198.132 54.2722 198.036 55.0642C199.764 55.0402 201.3 54.8962 202.428 54.7282L202.332 57.5842C200.892 57.7282 199.572 57.8242 197.652 57.8242C197.508 58.8802 197.364 60.0082 197.244 61.0882C197.292 61.0882 197.364 61.0882 197.412 61.0882C198.9 61.0882 200.676 60.9922 202.236 60.8002L202.164 63.6562C200.82 63.7762 199.428 63.8722 197.916 63.8722C197.604 63.8722 197.268 63.8722 196.956 63.8722C196.908 64.5922 196.86 65.1922 196.86 65.6242C196.86 67.6162 198.084 68.6722 200.436 68.6722C203.796 68.6722 205.62 67.1362 205.62 65.1682C205.62 63.5362 204.732 62.0002 203.148 60.5122L206.532 59.7922C208.116 61.8082 208.86 63.5122 208.86 65.5522C208.86 69.1762 205.596 71.7682 200.34 71.7682C196.572 71.7682 193.908 70.1362 193.908 66.1282C193.908 65.5522 193.98 64.6882 194.076 63.7042C192.324 63.5362 190.74 63.2722 189.468 62.9122L189.636 60.0082C191.196 60.5362 192.804 60.8002 194.364 60.9682C194.508 59.8882 194.652 58.7602 194.772 57.6802C193.116 57.5122 191.412 57.2242 189.996 56.8162L190.164 54.0562C191.556 54.5122 193.356 54.8242 195.108 54.9682C195.18 54.2242 195.252 53.5762 195.3 53.0242C195.372 51.8962 195.372 51.4162 195.324 50.8882L198.708 51.0802Z" fill="#E5005A"/>
<path d="M169.766 51.9442C170.534 51.9922 171.23 52.0162 172.046 52.0162C173.078 52.0162 177.59 51.8002 179.054 51.6562C179.822 51.5602 180.374 51.4642 180.71 51.3442L182.606 53.5522C182.102 53.8882 181.214 54.4642 180.71 54.8722C179.006 56.2402 176.654 58.2322 174.998 59.5042C178.214 59.1922 182.198 58.9282 185.126 58.9282V61.7602C182.822 61.6402 180.422 61.6162 178.958 61.8322C176.75 62.1202 174.926 63.6802 174.926 65.6482C174.926 67.5442 176.414 68.2882 178.55 68.5282C179.894 68.6722 181.31 68.6722 182.222 68.6002L181.574 71.7442C175.43 72.0082 171.854 70.1602 171.854 66.1522C171.854 64.6882 172.694 63.2002 173.606 62.3602C171.398 62.5522 168.71 62.9122 166.31 63.3202L166.022 60.4162C167.294 60.2962 168.974 60.0802 170.246 59.9362C172.382 58.5442 175.502 55.8082 176.99 54.4882C176.006 54.5602 173.054 54.7042 172.07 54.8002C171.47 54.8482 170.678 54.9202 169.91 55.0162L169.766 51.9442Z" fill="#E5005A"/>
<path d="M151.859 51.0802C151.643 51.9442 151.547 52.5922 151.451 53.2162C151.379 53.6242 151.283 54.2722 151.187 55.0642C152.915 55.0402 154.451 54.8962 155.579 54.7282L155.483 57.5842C154.043 57.7282 152.723 57.8242 150.803 57.8242C150.659 58.8802 150.515 60.0082 150.395 61.0882C150.443 61.0882 150.515 61.0882 150.563 61.0882C152.051 61.0882 153.827 60.9922 155.387 60.8002L155.315 63.6562C153.971 63.7762 152.579 63.8722 151.067 63.8722C150.755 63.8722 150.419 63.8722 150.107 63.8722C150.059 64.5922 150.011 65.1922 150.011 65.6242C150.011 67.6162 151.235 68.6722 153.587 68.6722C156.947 68.6722 158.771 67.1362 158.771 65.1682C158.771 63.5362 157.883 62.0002 156.299 60.5122L159.683 59.7922C161.267 61.8082 162.011 63.5122 162.011 65.5522C162.011 69.1762 158.747 71.7682 153.491 71.7682C149.723 71.7682 147.059 70.1362 147.059 66.1282C147.059 65.5522 147.131 64.6882 147.227 63.7042C145.475 63.5362 143.891 63.2722 142.619 62.9122L142.787 60.0082C144.347 60.5362 145.955 60.8002 147.515 60.9682C147.659 59.8882 147.803 58.7602 147.923 57.6802C146.267 57.5122 144.563 57.2242 143.147 56.8162L143.315 54.0562C144.707 54.5122 146.507 54.8242 148.259 54.9682C148.331 54.2242 148.403 53.5762 148.451 53.0242C148.523 51.8962 148.523 51.4162 148.475 50.8882L151.859 51.0802Z" fill="#E5005A"/>
<path d="M122.918 51.9442C123.686 51.9922 124.382 52.0162 125.198 52.0162C126.23 52.0162 130.742 51.8002 132.206 51.6562C132.974 51.5602 133.526 51.4642 133.862 51.3442L135.758 53.5522C135.254 53.8882 134.366 54.4642 133.862 54.8722C132.158 56.2402 129.806 58.2322 128.15 59.5042C131.366 59.1922 135.35 58.9282 138.278 58.9282V61.7602C135.974 61.6402 133.574 61.6162 132.11 61.8322C129.902 62.1202 128.078 63.6802 128.078 65.6482C128.078 67.5442 129.566 68.2882 131.702 68.5282C133.046 68.6722 134.462 68.6722 135.374 68.6002L134.726 71.7442C128.582 72.0082 125.006 70.1602 125.006 66.1522C125.006 64.6882 125.846 63.2002 126.758 62.3602C124.55 62.5522 121.862 62.9122 119.462 63.3202L119.174 60.4162C120.446 60.2962 122.126 60.0802 123.398 59.9362C125.534 58.5442 128.654 55.8082 130.142 54.4882C129.158 54.5602 126.206 54.7042 125.222 54.8002C124.622 54.8482 123.83 54.9202 123.062 55.0162L122.918 51.9442Z" fill="#E5005A"/>
<path d="M96.9111 53.7921C97.8711 53.7681 98.8071 53.7201 99.2871 53.6721C101.279 53.5041 105.239 53.1441 109.631 52.7601C112.103 52.5681 114.743 52.4001 116.423 52.3521L116.447 55.4241C115.151 55.4481 113.087 55.4481 111.815 55.7361C108.911 56.5041 106.751 59.6241 106.751 62.4801C106.751 66.4161 110.447 67.8561 114.503 68.0721L113.375 71.3601C108.359 71.0241 103.607 68.3121 103.607 63.1281C103.607 59.6721 105.551 56.9361 107.159 55.7121C104.903 55.9521 100.007 56.4801 97.2231 57.0801L96.9111 53.7921Z" fill="#E5005A"/>
<path d="M77.3711 60.1518C78.0911 60.0078 79.1951 59.7198 79.9151 59.5038C81.5471 58.9998 85.6271 57.6318 88.5311 57.6318C92.3231 57.6318 94.8671 59.8878 94.8671 63.5118C94.8671 67.8558 91.0511 70.8078 83.4191 71.2878L82.1471 68.3358C87.6431 68.1918 91.6751 66.7278 91.6751 63.4638C91.6751 61.6638 90.3311 60.4158 88.2431 60.4158C85.4591 60.4158 80.6591 62.4078 78.6191 63.2718L77.3711 60.1518Z" fill="#E5005A"/>
<path d="M63.1283 63.632H65.4803C65.5043 63.416 65.5043 63.2 65.5043 62.984V61.472H63.1283V63.632ZM70.5923 61.472H68.0723V63.056C68.0723 63.248 68.0723 63.44 68.0723 63.632H70.5923V61.472ZM63.9443 55.496H69.7523C68.5763 54.536 67.4963 53.456 66.7523 52.424C66.0803 53.432 65.0963 54.512 63.9443 55.496ZM73.1603 65.816H68.8643C70.2803 68.456 72.0803 69.368 74.4563 70.112C73.8083 70.712 73.1363 71.648 72.8243 72.488C70.4243 71.576 68.5283 70.352 67.0643 67.736C66.0323 69.656 64.0883 71.384 60.4883 72.512C60.2243 71.936 59.4323 70.856 58.9763 70.4C62.8403 69.224 64.4483 67.592 65.0963 65.816H60.6563V59.312H65.5043V57.848H62.4563V56.624C61.7603 57.104 61.0403 57.536 60.3203 57.896C60.0563 57.272 59.5763 56.408 59.1443 55.784C58.8083 56.768 58.4723 57.752 58.1603 58.568C59.6963 60.392 60.0083 61.976 60.0083 63.368C60.0083 64.88 59.6963 65.888 58.9043 66.44C58.5203 66.704 58.0403 66.848 57.5123 66.92C57.0563 66.992 56.4803 67.016 55.8803 66.992C55.8803 66.296 55.6643 65.192 55.2563 64.496C55.7123 64.544 56.0723 64.544 56.3603 64.52C56.6243 64.52 56.8883 64.472 57.0563 64.352C57.3443 64.136 57.4643 63.68 57.4643 62.984C57.4643 61.904 57.1043 60.464 55.7123 58.88C56.2163 57.344 56.7443 55.208 57.1523 53.552H55.2083V72.392H52.7363V51.008H58.0403L58.4483 50.888L60.3443 51.992C60.0323 53.048 59.6483 54.248 59.2643 55.424C61.8083 54.248 64.2083 51.968 65.3843 50H67.9763C69.6323 52.28 72.1283 54.272 74.6243 55.184C74.0963 55.856 73.5443 56.912 73.1603 57.68C72.5603 57.392 71.9123 57.008 71.2883 56.6V57.848H68.0723V59.312H73.1603V65.816Z" fill="#E5005A"/>
<path d="M31.664 50.0239L34.304 50.8879C33.68 52.4479 32.936 54.0799 32.072 55.6159V72.3439H29.36V59.7919C28.76 60.5599 28.16 61.2799 27.536 61.9279C27.272 61.2319 26.48 59.6959 26 58.9999C28.232 56.8399 30.416 53.4319 31.664 50.0239ZM37.496 53.5279V56.7439H44.528V53.5279H37.496ZM48.56 64.0159H43.76C45.176 66.1039 47.24 68.0719 49.256 69.2479C48.608 69.7999 47.696 70.8079 47.24 71.5279C45.488 70.2799 43.736 68.3359 42.368 66.1999V72.3919H39.488V66.3199C38.024 68.4319 36.2 70.2559 34.304 71.4799C33.872 70.7839 32.984 69.7519 32.336 69.1999C34.496 68.0719 36.632 66.1279 38.12 64.0159H33.2V61.4239H39.488V59.2639H34.784V51.0079H47.384V59.2639H42.368V61.4239H48.56V64.0159Z" fill="#E5005A"/>
</svg>
