<svg width="370" height="180" viewBox="0 0 370 180" fill="none" xmlns="http://www.w3.org/2000/svg">
<rect width="370" height="180" fill="white"/>
<mask id="mask0_1523_25583" style="mask-type:alpha" maskUnits="userSpaceOnUse" x="0" y="0" width="370" height="180">
<rect x="2" y="2" width="366" height="176" rx="8" fill="white" stroke="#FAF1F5" stroke-width="4"/>
</mask>
<g mask="url(#mask0_1523_25583)">
<path fill-rule="evenodd" clip-rule="evenodd" d="M332.443 -5.01438C332.443 13.2031 318.026 49.7653 300.242 49.7653C282.458 49.7653 268.041 13.2031 268.041 -5.01438C268.041 -23.2318 282.458 -38 300.242 -38C318.026 -38 332.443 -23.2318 332.443 -5.01438ZM366.785 110.986C356.618 96.0394 324.383 74.4858 309.792 84.9014C295.201 95.3169 303.78 133.758 313.947 148.704C324.115 163.65 344.186 167.323 358.777 156.907C373.368 146.492 376.953 125.932 366.785 110.986ZM316.05 63.6223C320.543 81.2488 358.72 86.3009 375.927 81.6985C393.134 77.096 403.441 59.0759 398.948 41.4494C394.456 23.8229 376.864 13.2648 359.657 17.8672C342.45 22.4697 311.557 45.9958 316.05 63.6223ZM221.419 77.0826C238.361 82.6216 276.747 79.6693 282.155 62.3144C287.562 44.9594 257.943 19.7736 241 14.2346C224.058 8.69563 205.94 18.2744 200.533 35.6293C195.126 52.9843 204.477 71.5436 221.419 77.0826ZM283.328 82.6362C298.707 91.7839 293.252 130.818 284.322 146.572C275.392 162.327 255.685 167.682 240.306 158.534C224.926 149.387 219.698 129.2 228.628 113.445C237.558 97.6913 267.948 73.4884 283.328 82.6362Z" fill="#FAF1F5"/>
</g>
<path d="M32.144 59.72L34.784 60.584C34.16 62.144 33.416 63.776 32.552 65.312V82.04H29.84V69.488C29.24 70.256 28.64 70.976 28.016 71.624C27.752 70.928 26.96 69.392 26.48 68.696C28.712 66.536 30.896 63.128 32.144 59.72ZM37.976 63.224V66.44H45.008V63.224H37.976ZM49.04 73.712H44.24C45.656 75.8 47.72 77.768 49.736 78.944C49.088 79.496 48.176 80.504 47.72 81.224C45.968 79.976 44.216 78.032 42.848 75.896V82.088H39.968V76.016C38.504 78.128 36.68 79.952 34.784 81.176C34.352 80.48 33.464 79.448 32.816 78.896C34.976 77.768 37.112 75.824 38.6 73.712H33.68V71.12H39.968V68.96H35.264V60.704H47.864V68.96H42.848V71.12H49.04V73.712ZM63.608 73.328H65.96C65.984 73.112 65.984 72.896 65.984 72.68V71.168H63.608V73.328ZM71.072 71.168H68.552V72.752C68.552 72.944 68.552 73.136 68.552 73.328H71.072V71.168ZM64.424 65.192H70.232C69.056 64.232 67.976 63.152 67.232 62.12C66.56 63.128 65.576 64.208 64.424 65.192ZM73.64 75.512H69.344C70.76 78.152 72.56 79.064 74.936 79.808C74.288 80.408 73.616 81.344 73.304 82.184C70.904 81.272 69.008 80.048 67.544 77.432C66.512 79.352 64.568 81.08 60.968 82.208C60.704 81.632 59.912 80.552 59.456 80.096C63.32 78.92 64.928 77.288 65.576 75.512H61.136V69.008H65.984V67.544H62.936V66.32C62.24 66.8 61.52 67.232 60.8 67.592C60.536 66.968 60.056 66.104 59.624 65.48C59.288 66.464 58.952 67.448 58.64 68.264C60.176 70.088 60.488 71.672 60.488 73.064C60.488 74.576 60.176 75.584 59.384 76.136C59 76.4 58.52 76.544 57.992 76.616C57.536 76.688 56.96 76.712 56.36 76.688C56.36 75.992 56.144 74.888 55.736 74.192C56.192 74.24 56.552 74.24 56.84 74.216C57.104 74.216 57.368 74.168 57.536 74.048C57.824 73.832 57.944 73.376 57.944 72.68C57.944 71.6 57.584 70.16 56.192 68.576C56.696 67.04 57.224 64.904 57.632 63.248H55.688V82.088H53.216V60.704H58.52L58.928 60.584L60.824 61.688C60.512 62.744 60.128 63.944 59.744 65.12C62.288 63.944 64.688 61.664 65.864 59.696H68.456C70.112 61.976 72.608 63.968 75.104 64.88C74.576 65.552 74.024 66.608 73.64 67.376C73.04 67.088 72.392 66.704 71.768 66.296V67.544H68.552V69.008H73.64V75.512ZM77.8511 69.848C78.5711 69.704 79.6751 69.416 80.3951 69.2C82.0271 68.696 86.1071 67.328 89.0111 67.328C92.8031 67.328 95.3471 69.584 95.3471 73.208C95.3471 77.552 91.5311 80.504 83.8991 80.984L82.6271 78.032C88.1231 77.888 92.1551 76.424 92.1551 73.16C92.1551 71.36 90.8111 70.112 88.7231 70.112C85.9391 70.112 81.1391 72.104 79.0991 72.968L77.8511 69.848ZM97.3912 63.488C98.3512 63.464 99.2872 63.416 99.7672 63.368C101.759 63.2 105.719 62.84 110.111 62.456C112.583 62.264 115.223 62.096 116.903 62.048L116.927 65.12C115.631 65.144 113.567 65.144 112.295 65.432C109.391 66.2 107.231 69.32 107.231 72.176C107.231 76.112 110.927 77.552 114.983 77.768L113.855 81.056C108.839 80.72 104.087 78.008 104.087 72.824C104.087 69.368 106.031 66.632 107.639 65.408C105.383 65.648 100.487 66.176 97.7032 66.776L97.3912 63.488ZM123.398 61.64C124.166 61.688 124.862 61.712 125.678 61.712C126.71 61.712 131.222 61.496 132.686 61.352C133.454 61.256 134.006 61.16 134.342 61.04L136.238 63.248C135.734 63.584 134.846 64.16 134.342 64.568C132.638 65.936 130.286 67.928 128.63 69.2C131.846 68.888 135.83 68.624 138.758 68.624V71.456C136.454 71.336 134.054 71.312 132.59 71.528C130.382 71.816 128.558 73.376 128.558 75.344C128.558 77.24 130.046 77.984 132.182 78.224C133.526 78.368 134.942 78.368 135.854 78.296L135.206 81.44C129.062 81.704 125.486 79.856 125.486 75.848C125.486 74.384 126.326 72.896 127.238 72.056C125.03 72.248 122.342 72.608 119.942 73.016L119.654 70.112C120.926 69.992 122.606 69.776 123.878 69.632C126.014 68.24 129.134 65.504 130.622 64.184C129.638 64.256 126.686 64.4 125.702 64.496C125.102 64.544 124.31 64.616 123.542 64.712L123.398 61.64ZM152.339 60.776C152.123 61.64 152.027 62.288 151.931 62.912C151.859 63.32 151.763 63.968 151.667 64.76C153.395 64.736 154.931 64.592 156.059 64.424L155.963 67.28C154.523 67.424 153.203 67.52 151.283 67.52C151.139 68.576 150.995 69.704 150.875 70.784C150.923 70.784 150.995 70.784 151.043 70.784C152.531 70.784 154.307 70.688 155.867 70.496L155.795 73.352C154.451 73.472 153.059 73.568 151.547 73.568C151.235 73.568 150.899 73.568 150.587 73.568C150.539 74.288 150.491 74.888 150.491 75.32C150.491 77.312 151.715 78.368 154.067 78.368C157.427 78.368 159.251 76.832 159.251 74.864C159.251 73.232 158.363 71.696 156.779 70.208L160.163 69.488C161.747 71.504 162.491 73.208 162.491 75.248C162.491 78.872 159.227 81.464 153.971 81.464C150.203 81.464 147.539 79.832 147.539 75.824C147.539 75.248 147.611 74.384 147.707 73.4C145.955 73.232 144.371 72.968 143.099 72.608L143.267 69.704C144.827 70.232 146.435 70.496 147.995 70.664C148.139 69.584 148.283 68.456 148.403 67.376C146.747 67.208 145.043 66.92 143.627 66.512L143.795 63.752C145.187 64.208 146.987 64.52 148.739 64.664C148.811 63.92 148.883 63.272 148.931 62.72C149.003 61.592 149.003 61.112 148.955 60.584L152.339 60.776ZM170.247 61.64C171.015 61.688 171.711 61.712 172.527 61.712C173.559 61.712 178.071 61.496 179.535 61.352C180.303 61.256 180.855 61.16 181.191 61.04L183.087 63.248C182.583 63.584 181.695 64.16 181.191 64.568C179.487 65.936 177.135 67.928 175.479 69.2C178.695 68.888 182.679 68.624 185.607 68.624V71.456C183.303 71.336 180.903 71.312 179.439 71.528C177.231 71.816 175.407 73.376 175.407 75.344C175.407 77.24 176.895 77.984 179.031 78.224C180.375 78.368 181.791 78.368 182.703 78.296L182.055 81.44C175.911 81.704 172.335 79.856 172.335 75.848C172.335 74.384 173.175 72.896 174.087 72.056C171.879 72.248 169.191 72.608 166.791 73.016L166.503 70.112C167.775 69.992 169.455 69.776 170.727 69.632C172.863 68.24 175.983 65.504 177.471 64.184C176.487 64.256 173.535 64.4 172.551 64.496C171.951 64.544 171.159 64.616 170.391 64.712L170.247 61.64ZM199.188 60.776C198.972 61.64 198.876 62.288 198.78 62.912C198.708 63.32 198.612 63.968 198.516 64.76C200.244 64.736 201.78 64.592 202.908 64.424L202.812 67.28C201.372 67.424 200.052 67.52 198.132 67.52C197.988 68.576 197.844 69.704 197.724 70.784C197.772 70.784 197.844 70.784 197.892 70.784C199.38 70.784 201.156 70.688 202.716 70.496L202.644 73.352C201.3 73.472 199.908 73.568 198.396 73.568C198.084 73.568 197.748 73.568 197.436 73.568C197.388 74.288 197.34 74.888 197.34 75.32C197.34 77.312 198.564 78.368 200.916 78.368C204.276 78.368 206.1 76.832 206.1 74.864C206.1 73.232 205.212 71.696 203.628 70.208L207.012 69.488C208.596 71.504 209.34 73.208 209.34 75.248C209.34 78.872 206.076 81.464 200.82 81.464C197.052 81.464 194.388 79.832 194.388 75.824C194.388 75.248 194.46 74.384 194.556 73.4C192.804 73.232 191.22 72.968 189.948 72.608L190.116 69.704C191.676 70.232 193.284 70.496 194.844 70.664C194.988 69.584 195.132 68.456 195.252 67.376C193.596 67.208 191.892 66.92 190.476 66.512L190.644 63.752C192.036 64.208 193.836 64.52 195.588 64.664C195.66 63.92 195.732 63.272 195.78 62.72C195.852 61.592 195.852 61.112 195.804 60.584L199.188 60.776ZM32.3105 101.232C33.2225 103.728 34.3265 106.032 35.3105 107.88C37.0625 106.848 38.7665 105.984 39.8945 105.336C40.7825 104.832 41.4785 104.4 42.1265 103.896L43.6385 106.728C42.8705 107.16 42.1025 107.568 41.2385 108C39.7265 108.744 37.4945 109.8 35.2865 111.216C33.2945 112.536 31.9505 113.904 31.9505 115.584C31.9505 117.312 33.6305 118.224 36.9665 118.224C39.4145 118.224 42.6545 117.84 44.7905 117.36L44.7425 120.792C42.7025 121.152 40.1585 121.416 37.0385 121.416C32.2625 121.416 28.6385 120.072 28.6385 115.92C28.6385 113.28 30.3185 111.312 32.6225 109.608C31.5185 107.568 30.3665 104.976 29.2865 102.456L32.3105 101.232ZM43.9025 100.872C44.5025 101.736 45.3665 103.272 45.8225 104.16L43.8785 104.976C43.3985 103.992 42.6545 102.576 42.0065 101.64L43.9025 100.872ZM46.7585 99.768C47.3825 100.68 48.2705 102.216 48.7025 103.056L46.7825 103.872C46.2785 102.864 45.5105 101.472 44.8625 100.56L46.7585 99.768ZM63.5909 112.152C63.5909 110.568 62.3429 109.272 60.0869 109.272C57.4469 109.272 55.0709 110.088 53.8469 110.448C53.1509 110.64 52.2149 111.024 51.5189 111.288L50.6069 107.856C51.4229 107.784 52.4549 107.616 53.2469 107.448C54.9989 107.04 57.6869 106.344 60.4949 106.344C64.2869 106.344 66.9509 108.504 66.9509 112.272C66.9509 117.408 62.1989 120.6 55.5269 121.512L53.7989 118.536C59.7509 117.864 63.5909 115.896 63.5909 112.152ZM54.1589 100.632C56.9429 101.232 62.3909 101.688 64.9349 101.712L64.4549 104.664C61.6469 104.472 56.4389 103.992 53.6789 103.512L54.1589 100.632ZM76.3466 102.84C76.1786 103.704 76.0586 105.096 76.0586 105.768C76.0346 107.328 76.0586 109.128 76.2026 110.856C76.5386 114.312 77.2586 116.688 78.7706 116.688C79.8986 116.688 80.8586 113.88 81.3146 111.96L83.7146 114.888C82.1306 119.064 80.6186 120.528 78.6986 120.528C76.0586 120.528 73.7786 118.152 73.1066 111.72C72.8666 109.512 72.8426 106.704 72.8426 105.24C72.8426 104.568 72.7946 103.536 72.6506 102.792L76.3466 102.84ZM88.3466 103.392C90.6266 106.152 92.4506 112.152 92.7146 115.824L89.5706 117.048C89.1866 113.184 87.9146 107.352 85.2986 104.376L88.3466 103.392ZM110.088 112.152C110.088 110.568 108.84 109.272 106.584 109.272C103.944 109.272 101.568 110.088 100.344 110.448C99.6481 110.64 98.7121 111.024 98.0161 111.288L97.1041 107.856C97.9201 107.784 98.9521 107.616 99.7441 107.448C101.496 107.04 104.184 106.344 106.992 106.344C110.784 106.344 113.448 108.504 113.448 112.272C113.448 117.408 108.696 120.6 102.024 121.512L100.296 118.536C106.248 117.864 110.088 115.896 110.088 112.152ZM100.656 100.632C103.44 101.232 108.888 101.688 111.432 101.712L110.952 104.664C108.144 104.472 102.936 103.992 100.176 103.512L100.656 100.632ZM127.789 100.776C127.573 101.64 127.477 102.288 127.381 102.912C127.309 103.32 127.213 103.968 127.117 104.76C128.845 104.736 130.381 104.592 131.509 104.424L131.413 107.28C129.973 107.424 128.653 107.52 126.733 107.52C126.589 108.576 126.445 109.704 126.325 110.784C126.373 110.784 126.445 110.784 126.493 110.784C127.981 110.784 129.757 110.688 131.317 110.496L131.245 113.352C129.901 113.472 128.509 113.568 126.997 113.568C126.685 113.568 126.349 113.568 126.037 113.568C125.989 114.288 125.941 114.888 125.941 115.32C125.941 117.312 127.165 118.368 129.517 118.368C132.877 118.368 134.701 116.832 134.701 114.864C134.701 113.232 133.813 111.696 132.229 110.208L135.613 109.488C137.197 111.504 137.941 113.208 137.941 115.248C137.941 118.872 134.677 121.464 129.421 121.464C125.653 121.464 122.989 119.832 122.989 115.824C122.989 115.248 123.061 114.384 123.157 113.4C121.405 113.232 119.821 112.968 118.549 112.608L118.717 109.704C120.277 110.232 121.885 110.496 123.445 110.664C123.589 109.584 123.733 108.456 123.853 107.376C122.197 107.208 120.493 106.92 119.077 106.512L119.245 103.752C120.637 104.208 122.437 104.52 124.189 104.664C124.261 103.92 124.333 103.272 124.381 102.72C124.453 101.592 124.453 101.112 124.405 100.584L127.789 100.776ZM163.425 111.552C163.425 116.616 160.329 120.192 154.281 121.128L152.481 118.272C153.393 118.176 154.065 118.032 154.713 117.888C157.785 117.168 160.185 114.96 160.185 111.456C160.185 108.144 158.385 105.672 155.145 105.12C154.809 107.16 154.401 109.368 153.705 111.624C152.265 116.472 150.201 119.448 147.585 119.448C144.921 119.448 142.713 116.52 142.713 112.464C142.713 106.92 147.513 102.192 153.729 102.192C159.681 102.192 163.425 106.32 163.425 111.552ZM145.785 112.152C145.785 114.576 146.745 115.752 147.681 115.752C148.689 115.752 149.625 114.24 150.609 111C151.161 109.224 151.617 107.184 151.881 105.192C147.921 106.008 145.785 109.512 145.785 112.152ZM172.714 113.832C172.21 110.064 177.298 109.2 177.298 106.872C177.298 105.432 176.146 104.616 174.274 104.616C172.786 104.616 171.61 105.264 170.434 106.512L168.466 104.688C169.978 102.912 172.09 101.76 174.658 101.76C178.138 101.76 180.682 103.368 180.682 106.56C180.682 110.088 175.45 110.496 175.81 113.832H172.714ZM174.274 120.216C173.05 120.216 172.162 119.352 172.162 118.104C172.162 116.832 173.074 115.968 174.274 115.968C175.498 115.968 176.386 116.832 176.386 118.104C176.386 119.352 175.498 120.216 174.274 120.216Z" fill="#E5005A"/>
</svg>
