<svg width="196" height="120" viewBox="0 0 196 120" fill="none" xmlns="http://www.w3.org/2000/svg">
<path d="M0 0H196V120H0V0Z" fill="white"/>
<mask id="mask0_1827_25418" style="mask-type:alpha" maskUnits="userSpaceOnUse" x="0" y="0" width="196" height="120">
<path d="M0 0H196V120H0V0Z" fill="white"/>
</mask>
<g mask="url(#mask0_1827_25418)">
<path fill-rule="evenodd" clip-rule="evenodd" d="M165.634 15.6622C165.634 27.6259 156.166 51.6369 144.487 51.6369C132.808 51.6369 123.34 27.6259 123.34 15.6622C123.34 3.6985 132.808 -6 144.487 -6C156.166 -6 165.634 3.6985 165.634 15.6622ZM188.187 91.8413C181.51 82.0258 160.341 67.8713 150.759 74.7113C141.177 81.5514 146.81 106.796 153.488 116.611C160.165 126.427 173.346 128.839 182.928 121.999C192.51 115.159 194.865 101.657 188.187 91.8413ZM154.869 60.737C157.819 72.3126 182.891 75.6304 194.191 72.6079C205.491 69.5855 212.26 57.7514 209.309 46.1757C206.359 34.6001 194.806 27.6664 183.506 30.6889C172.206 33.7114 151.918 49.1614 154.869 60.737ZM92.7229 69.5766C103.849 73.2142 129.058 71.2754 132.609 59.8781C136.16 48.4808 116.709 31.9409 105.582 28.3033C94.4561 24.6658 82.5579 30.9563 79.0069 42.3536C75.4558 53.7509 81.5967 65.9391 92.7229 69.5766ZM133.379 73.2237C143.479 79.2312 139.897 104.866 134.032 115.212C128.168 125.558 115.226 129.075 105.126 123.067C95.0261 117.06 91.5926 103.803 97.4572 93.4567C103.322 83.1107 123.279 67.2163 133.379 73.2237Z" fill="#FAF1F5"/>
</g>
<path d="M117.923 75.6311C117.566 72.9621 121.17 72.3501 121.17 70.7011C121.17 69.6811 120.354 69.1031 119.028 69.1031C117.974 69.1031 117.141 69.5621 116.308 70.4461L114.914 69.1541C115.985 67.8961 117.481 67.0801 119.3 67.0801C121.765 67.0801 123.567 68.2191 123.567 70.4801C123.567 72.9791 119.861 73.2681 120.116 75.6311H117.923ZM119.028 80.1531C118.161 80.1531 117.532 79.5411 117.532 78.6571C117.532 77.7561 118.178 77.1441 119.028 77.1441C119.895 77.1441 120.524 77.7561 120.524 78.6571C120.524 79.5411 119.895 80.1531 119.028 80.1531Z" fill="#E5005A"/>
<path d="M111.342 74.0162C111.342 77.6032 109.149 80.1362 104.865 80.7992L103.59 78.7762C104.236 78.7082 104.712 78.6062 105.171 78.5042C107.347 77.9942 109.047 76.4302 109.047 73.9482C109.047 71.6022 107.772 69.8512 105.477 69.4602C105.239 70.9052 104.95 72.4692 104.457 74.0672C103.437 77.5012 101.975 79.6092 100.122 79.6092C98.2349 79.6092 96.6709 77.5352 96.6709 74.6622C96.6709 70.7352 100.071 67.3862 104.474 67.3862C108.69 67.3862 111.342 70.3102 111.342 74.0162ZM98.8469 74.4412C98.8469 76.1582 99.5269 76.9912 100.19 76.9912C100.904 76.9912 101.567 75.9202 102.264 73.6252C102.655 72.3672 102.978 70.9222 103.165 69.5112C100.36 70.0892 98.8469 72.5712 98.8469 74.4412Z" fill="#E5005A"/>
<path d="M86.1007 66.3831C85.9477 66.9951 85.8797 67.4541 85.8117 67.8961C85.7607 68.1851 85.6927 68.6441 85.6247 69.2051C86.8487 69.1881 87.9367 69.0861 88.7357 68.9671L88.6677 70.9901C87.6477 71.0921 86.7127 71.1601 85.3527 71.1601C85.2507 71.9081 85.1487 72.7071 85.0637 73.4721C85.0977 73.4721 85.1487 73.4721 85.1827 73.4721C86.2367 73.4721 87.4947 73.4041 88.5997 73.2681L88.5487 75.2911C87.5967 75.3761 86.6107 75.4441 85.5397 75.4441C85.3187 75.4441 85.0807 75.4441 84.8597 75.4441C84.8257 75.9541 84.7917 76.3791 84.7917 76.6851C84.7917 78.0961 85.6587 78.8441 87.3247 78.8441C89.7047 78.8441 90.9967 77.7561 90.9967 76.3621C90.9967 75.2061 90.3677 74.1181 89.2457 73.0641L91.6427 72.5541C92.7647 73.9821 93.2917 75.1891 93.2917 76.6341C93.2917 79.2011 90.9797 81.0371 87.2567 81.0371C84.5877 81.0371 82.7007 79.8811 82.7007 77.0421C82.7007 76.6341 82.7517 76.0221 82.8197 75.3251C81.5787 75.2061 80.4567 75.0191 79.5557 74.7641L79.6747 72.7071C80.7797 73.0811 81.9187 73.2681 83.0237 73.3871C83.1257 72.6221 83.2277 71.8231 83.3127 71.0581C82.1397 70.9391 80.9327 70.7351 79.9297 70.4461L80.0487 68.4911C81.0347 68.8141 82.3097 69.0351 83.5507 69.1371C83.6017 68.6101 83.6527 68.1511 83.6867 67.7601C83.7377 66.9611 83.7377 66.6211 83.7037 66.2471L86.1007 66.3831Z" fill="#E5005A"/>
<path d="M73.5622 74.4412C73.5622 73.3193 72.6782 72.4013 71.0802 72.4013C69.2102 72.4013 67.5272 72.9793 66.6602 73.2343C66.1672 73.3703 65.5042 73.6423 65.0112 73.8293L64.3652 71.3983C64.9432 71.3473 65.6742 71.2283 66.2352 71.1093C67.4762 70.8203 69.3802 70.3273 71.3692 70.3273C74.0552 70.3273 75.9422 71.8573 75.9422 74.5263C75.9422 78.1643 72.5762 80.4253 67.8502 81.0713L66.6262 78.9633C70.8422 78.4873 73.5622 77.0933 73.5622 74.4412ZM66.8812 66.2812C68.8532 66.7062 72.7122 67.0293 74.5142 67.0463L74.1742 69.1372C72.1852 69.0012 68.4962 68.6613 66.5412 68.3213L66.8812 66.2812Z" fill="#E5005A"/>
<path d="M49.6619 67.845C49.5429 68.457 49.4579 69.443 49.4579 69.919C49.4409 71.024 49.4579 72.299 49.5599 73.523C49.7979 75.971 50.3079 77.654 51.3789 77.654C52.1779 77.654 52.8579 75.665 53.1809 74.305L54.8809 76.379C53.7589 79.337 52.6879 80.374 51.3279 80.374C49.4579 80.374 47.8429 78.691 47.3669 74.135C47.1969 72.571 47.1799 70.582 47.1799 69.545C47.1799 69.069 47.1459 68.338 47.0439 67.811L49.6619 67.845ZM58.1619 68.236C59.7769 70.191 61.0689 74.441 61.2559 77.042L59.0289 77.909C58.7569 75.172 57.8559 71.041 56.0029 68.933L58.1619 68.236Z" fill="#E5005A"/>
<path d="M40.6267 74.4412C40.6267 73.3193 39.7427 72.4013 38.1447 72.4013C36.2747 72.4013 34.5917 72.9793 33.7247 73.2343C33.2317 73.3703 32.5687 73.6423 32.0757 73.8293L31.4297 71.3983C32.0077 71.3473 32.7387 71.2283 33.2997 71.1093C34.5407 70.8203 36.4447 70.3273 38.4337 70.3273C41.1197 70.3273 43.0067 71.8573 43.0067 74.5263C43.0067 78.1643 39.6407 80.4253 34.9147 81.0713L33.6907 78.9633C37.9067 78.4873 40.6267 77.0933 40.6267 74.4412ZM33.9457 66.2812C35.9177 66.7062 39.7767 67.0293 41.5787 67.0463L41.2387 69.1372C39.2497 69.0012 35.5607 68.6613 33.6057 68.3213L33.9457 66.2812Z" fill="#E5005A"/>
<path d="M18.4701 66.7059C19.1161 68.4739 19.8981 70.1059 20.5951 71.4149C21.8361 70.6839 23.0431 70.0719 23.8421 69.6129C24.4711 69.2559 24.9641 68.9499 25.4231 68.5929L26.4941 70.5989C25.9501 70.9049 25.4061 71.1939 24.7941 71.4999C23.7231 72.0269 22.1421 72.7749 20.5781 73.7779C19.1671 74.7129 18.2151 75.6819 18.2151 76.8719C18.2151 78.0959 19.4051 78.7419 21.7681 78.7419C23.5021 78.7419 25.7971 78.4699 27.3101 78.1299L27.2761 80.5609C25.8311 80.8159 24.0291 81.0029 21.8191 81.0029C18.4361 81.0029 15.8691 80.0509 15.8691 77.1099C15.8691 75.2399 17.0591 73.8459 18.6911 72.6389C17.9091 71.1939 17.0931 69.3579 16.3281 67.5729L18.4701 66.7059ZM26.6811 66.4509C27.1061 67.0629 27.7181 68.1509 28.0411 68.7799L26.6641 69.3579C26.3241 68.6609 25.7971 67.6579 25.3381 66.9949L26.6811 66.4509ZM28.7041 65.6689C29.1461 66.3149 29.7751 67.4029 30.0811 67.9979L28.7211 68.5759C28.3641 67.8619 27.8201 66.8759 27.3611 66.2299L28.7041 65.6689Z" fill="#E5005A"/>
<path d="M136.674 40.3831C136.521 40.9951 136.453 41.4541 136.385 41.8961C136.334 42.1851 136.266 42.6441 136.198 43.2051C137.422 43.1881 138.51 43.0861 139.309 42.9671L139.241 44.9901C138.221 45.0921 137.286 45.1601 135.926 45.1601C135.824 45.9081 135.722 46.7071 135.637 47.4721C135.671 47.4721 135.722 47.4721 135.756 47.4721C136.81 47.4721 138.068 47.4041 139.173 47.2681L139.122 49.2911C138.17 49.3761 137.184 49.4441 136.113 49.4441C135.892 49.4441 135.654 49.4441 135.433 49.4441C135.399 49.9541 135.365 50.3791 135.365 50.6851C135.365 52.0961 136.232 52.8441 137.898 52.8441C140.278 52.8441 141.57 51.7561 141.57 50.3621C141.57 49.2061 140.941 48.1181 139.819 47.0641L142.216 46.5541C143.338 47.9821 143.865 49.1891 143.865 50.6341C143.865 53.2011 141.553 55.0371 137.83 55.0371C135.161 55.0371 133.274 53.8811 133.274 51.0421C133.274 50.6341 133.325 50.0221 133.393 49.3251C132.152 49.2061 131.03 49.0191 130.129 48.7641L130.248 46.7071C131.353 47.0811 132.492 47.2681 133.597 47.3871C133.699 46.6221 133.801 45.8231 133.886 45.0581C132.713 44.9391 131.506 44.7351 130.503 44.4461L130.622 42.4911C131.608 42.8141 132.883 43.0351 134.124 43.1371C134.175 42.6101 134.226 42.1511 134.26 41.7601C134.311 40.9611 134.311 40.6211 134.277 40.2471L136.674 40.3831Z" fill="#E5005A"/>
<path d="M116.174 40.9953C116.718 41.0293 117.211 41.0463 117.789 41.0463C118.52 41.0463 121.716 40.8933 122.753 40.7913C123.297 40.7233 123.688 40.6553 123.926 40.5703L125.269 42.1343C124.912 42.3723 124.283 42.7803 123.926 43.0693C122.719 44.0383 121.053 45.4493 119.88 46.3503C122.158 46.1293 124.98 45.9423 127.054 45.9423V47.9483C125.422 47.8633 123.722 47.8463 122.685 47.9993C121.121 48.2033 119.829 49.3083 119.829 50.7023C119.829 52.0453 120.883 52.5723 122.396 52.7423C123.348 52.8443 124.351 52.8443 124.997 52.7933L124.538 55.0203C120.186 55.2073 117.653 53.8983 117.653 51.0593C117.653 50.0223 118.248 48.9683 118.894 48.3733C117.33 48.5093 115.426 48.7643 113.726 49.0533L113.522 46.9963C114.423 46.9113 115.613 46.7583 116.514 46.6563C118.027 45.6703 120.237 43.7323 121.291 42.7973C120.594 42.8483 118.503 42.9503 117.806 43.0183C117.381 43.0523 116.82 43.1033 116.276 43.1713L116.174 40.9953Z" fill="#E5005A"/>
<path d="M103.49 40.3831C103.337 40.9951 103.269 41.4541 103.201 41.8961C103.15 42.1851 103.082 42.6441 103.014 43.2051C104.238 43.1881 105.326 43.0861 106.125 42.9671L106.057 44.9901C105.037 45.0921 104.102 45.1601 102.742 45.1601C102.64 45.9081 102.538 46.7071 102.453 47.4721C102.487 47.4721 102.538 47.4721 102.572 47.4721C103.626 47.4721 104.884 47.4041 105.989 47.2681L105.938 49.2911C104.986 49.3761 104 49.4441 102.929 49.4441C102.708 49.4441 102.47 49.4441 102.249 49.4441C102.215 49.9541 102.181 50.3791 102.181 50.6851C102.181 52.0961 103.048 52.8441 104.714 52.8441C107.094 52.8441 108.386 51.7561 108.386 50.3621C108.386 49.2061 107.757 48.1181 106.635 47.0641L109.032 46.5541C110.154 47.9821 110.681 49.1891 110.681 50.6341C110.681 53.2011 108.369 55.0371 104.646 55.0371C101.977 55.0371 100.09 53.8811 100.09 51.0421C100.09 50.6341 100.141 50.0221 100.209 49.3251C98.9683 49.2061 97.8463 49.0191 96.9453 48.7641L97.0643 46.7071C98.1693 47.0811 99.3083 47.2681 100.413 47.3871C100.515 46.6221 100.617 45.8231 100.702 45.0581C99.5293 44.9391 98.3223 44.7351 97.3193 44.4461L97.4383 42.4911C98.4243 42.8141 99.6993 43.0351 100.94 43.1371C100.991 42.6101 101.042 42.1511 101.076 41.7601C101.127 40.9611 101.127 40.6211 101.093 40.2471L103.49 40.3831Z" fill="#E5005A"/>
<path d="M82.9899 40.9953C83.5339 41.0293 84.0269 41.0463 84.6049 41.0463C85.3359 41.0463 88.5319 40.8933 89.5689 40.7913C90.1129 40.7233 90.5039 40.6553 90.7419 40.5703L92.0849 42.1343C91.7279 42.3723 91.0989 42.7803 90.7419 43.0693C89.5349 44.0383 87.8689 45.4493 86.6959 46.3503C88.9739 46.1293 91.7959 45.9423 93.8699 45.9423V47.9483C92.2379 47.8633 90.5379 47.8463 89.5009 47.9993C87.9369 48.2033 86.6449 49.3083 86.6449 50.7023C86.6449 52.0453 87.6989 52.5723 89.2119 52.7423C90.1639 52.8443 91.1669 52.8443 91.8129 52.7933L91.3539 55.0203C87.0019 55.2073 84.4689 53.8983 84.4689 51.0593C84.4689 50.0223 85.0639 48.9683 85.7099 48.3733C84.1459 48.5093 82.2419 48.7643 80.5419 49.0533L80.3379 46.9963C81.2389 46.9113 82.4289 46.7583 83.3299 46.6563C84.8429 45.6703 87.0529 43.7323 88.1069 42.7973C87.4099 42.8483 85.3189 42.9503 84.6219 43.0183C84.1969 43.0523 83.6359 43.1033 83.0919 43.1713L82.9899 40.9953Z" fill="#E5005A"/>
<path d="M64.5684 42.3042C65.2484 42.2872 65.9114 42.2532 66.2514 42.2192C67.6624 42.1002 70.4674 41.8452 73.5784 41.5732C75.3294 41.4372 77.1994 41.3182 78.3894 41.2842L78.4064 43.4602C77.4884 43.4772 76.0264 43.4772 75.1254 43.6812C73.0684 44.2252 71.5384 46.4352 71.5384 48.4582C71.5384 51.2462 74.1564 52.2662 77.0294 52.4192L76.2304 54.7482C72.6774 54.5102 69.3114 52.5892 69.3114 48.9172C69.3114 46.4692 70.6884 44.5312 71.8274 43.6642C70.2294 43.8342 66.7614 44.2082 64.7894 44.6332L64.5684 42.3042Z" fill="#E5005A"/>
<path d="M50.7275 46.8089C51.2375 46.7069 52.0195 46.5029 52.5295 46.3499C53.6855 45.9929 56.5755 45.0239 58.6325 45.0239C61.3185 45.0239 63.1205 46.6219 63.1205 49.1889C63.1205 52.2659 60.4175 54.3569 55.0115 54.6969L54.1105 52.6059C58.0035 52.5039 60.8595 51.4669 60.8595 49.1549C60.8595 47.8799 59.9075 46.9959 58.4285 46.9959C56.4565 46.9959 53.0565 48.4069 51.6115 49.0189L50.7275 46.8089Z" fill="#E5005A"/>
<path d="M40.6393 49.2742H42.3053C42.3223 49.1212 42.3223 48.9682 42.3223 48.8152V47.7442H40.6393V49.2742ZM45.9263 47.7442H44.1413V48.8662C44.1413 49.0022 44.1413 49.1382 44.1413 49.2742H45.9263V47.7442ZM41.2173 43.5112H45.3313C44.4983 42.8312 43.7333 42.0662 43.2063 41.3352C42.7303 42.0492 42.0333 42.8142 41.2173 43.5112ZM47.7453 50.8212H44.7023C45.7053 52.6912 46.9803 53.3372 48.6633 53.8642C48.2043 54.2892 47.7283 54.9522 47.5073 55.5472C45.8073 54.9012 44.4643 54.0342 43.4273 52.1812C42.6963 53.5412 41.3193 54.7652 38.7693 55.5642C38.5823 55.1562 38.0213 54.3912 37.6983 54.0682C40.4353 53.2352 41.5743 52.0792 42.0333 50.8212H38.8883V46.2142H42.3223V45.1772H40.1633V44.3102C39.6703 44.6502 39.1603 44.9562 38.6503 45.2112C38.4633 44.7692 38.1233 44.1572 37.8173 43.7152C37.5793 44.4122 37.3413 45.1092 37.1203 45.6872C38.2083 46.9792 38.4293 48.1012 38.4293 49.0872C38.4293 50.1582 38.2083 50.8722 37.6473 51.2632C37.3753 51.4502 37.0353 51.5522 36.6613 51.6032C36.3383 51.6542 35.9303 51.6712 35.5053 51.6542C35.5053 51.1612 35.3523 50.3792 35.0633 49.8862C35.3863 49.9202 35.6413 49.9202 35.8453 49.9032C36.0323 49.9032 36.2193 49.8692 36.3383 49.7842C36.5423 49.6312 36.6273 49.3082 36.6273 48.8152C36.6273 48.0502 36.3723 47.0302 35.3863 45.9082C35.7433 44.8202 36.1173 43.3072 36.4063 42.1342H35.0293V55.4792H33.2783V40.3322H37.0353L37.3243 40.2472L38.6673 41.0292C38.4463 41.7772 38.1743 42.6272 37.9023 43.4602C39.7043 42.6272 41.4043 41.0122 42.2373 39.6182H44.0733C45.2463 41.2332 47.0143 42.6442 48.7823 43.2902C48.4083 43.7662 48.0173 44.5142 47.7453 45.0582C47.3203 44.8542 46.8613 44.5822 46.4193 44.2932V45.1772H44.1413V46.2142H47.7453V50.8212Z" fill="#E5005A"/>
<path d="M18.3518 39.6353L20.2218 40.2473C19.7798 41.3523 19.2528 42.5083 18.6408 43.5963V55.4453H16.7198V46.5543C16.2948 47.0983 15.8698 47.6083 15.4278 48.0673C15.2408 47.5743 14.6798 46.4863 14.3398 45.9933C15.9208 44.4633 17.4678 42.0493 18.3518 39.6353ZM22.4828 42.1173V44.3953H27.4638V42.1173H22.4828ZM30.3198 49.5463H26.9198C27.9228 51.0253 29.3848 52.4193 30.8128 53.2523C30.3538 53.6433 29.7078 54.3573 29.3848 54.8673C28.1438 53.9833 26.9028 52.6063 25.9338 51.0933V55.4793H23.8938V51.1783C22.8568 52.6743 21.5648 53.9663 20.2218 54.8333C19.9158 54.3403 19.2868 53.6093 18.8278 53.2183C20.3578 52.4193 21.8708 51.0423 22.9248 49.5463H19.4398V47.7103H23.8938V46.1803H20.5618V40.3323H29.4868V46.1803H25.9338V47.7103H30.3198V49.5463Z" fill="#E5005A"/>
</svg>
