<svg width="370" height="180" viewBox="0 0 370 180" fill="none" xmlns="http://www.w3.org/2000/svg">
<path d="M0 0H370V180H0V0Z" fill="white"/>
<mask id="mask0_2115_22319" style="mask-type:alpha" maskUnits="userSpaceOnUse" x="0" y="0" width="370" height="180">
<path d="M0 0H370V180H0V0Z" fill="white"/>
</mask>
<g mask="url(#mask0_2115_22319)">
<path fill-rule="evenodd" clip-rule="evenodd" d="M332.443 -5.01438C332.443 13.2031 318.026 49.7653 300.242 49.7653C282.458 49.7653 268.041 13.2031 268.041 -5.01438C268.041 -23.2318 282.458 -38 300.242 -38C318.026 -38 332.443 -23.2318 332.443 -5.01438ZM366.785 110.986C356.618 96.0394 324.383 74.4858 309.792 84.9014C295.201 95.3169 303.78 133.758 313.947 148.704C324.115 163.65 344.186 167.323 358.777 156.907C373.368 146.492 376.953 125.932 366.785 110.986ZM316.05 63.6223C320.543 81.2488 358.72 86.3009 375.927 81.6985C393.134 77.096 403.441 59.0759 398.948 41.4494C394.456 23.8229 376.864 13.2648 359.657 17.8672C342.45 22.4697 311.557 45.9958 316.05 63.6223ZM221.419 77.0826C238.361 82.6216 276.747 79.6693 282.155 62.3144C287.562 44.9594 257.943 19.7736 241 14.2346C224.058 8.69563 205.94 18.2744 200.533 35.6293C195.126 52.9843 204.477 71.5436 221.419 77.0826ZM283.328 82.6362C298.707 91.7839 293.252 130.818 284.322 146.572C275.392 162.327 255.685 167.682 240.306 158.534C224.926 149.387 219.698 129.2 228.628 113.445C237.558 97.6913 267.948 73.4884 283.328 82.6362Z" fill="#FAF1F5"/>
</g>
<path d="M279.105 81.2799C278.553 82.1199 277.929 83.1999 277.641 83.7279C277.617 83.7759 277.593 83.7999 277.569 83.8479H282.393C283.137 83.8479 283.929 83.7279 284.481 83.5599L286.929 85.0719C286.665 85.5279 286.329 86.1999 286.137 86.7999C285.489 88.9359 284.121 92.1279 281.961 94.8159C279.681 97.5999 276.777 99.8079 272.265 101.584L269.433 99.0399C274.353 97.5759 277.017 95.4879 279.105 93.1119C280.737 91.2399 282.129 88.3599 282.513 86.5599H275.769C274.161 88.6479 272.073 90.7599 269.721 92.3679L267.033 90.3759C271.233 87.8079 273.321 84.7119 274.521 82.6479C274.881 82.0479 275.385 80.9439 275.601 80.1279L279.105 81.2799Z" fill="#E5005A"/>
<path d="M261.008 83.7282C260.816 83.9922 260.384 84.7362 260.168 85.2162C259.352 87.0882 258.008 89.6562 256.4 91.8162C258.776 93.8802 261.68 96.9522 263.096 98.6802L260.36 101.056C258.8 98.8962 256.568 96.4482 254.312 94.2642C251.768 96.9522 248.576 99.4482 245.288 101.008L242.816 98.4162C246.68 96.9762 250.4 94.0482 252.656 91.5282C254.24 89.7282 255.704 87.3522 256.232 85.6482H248.096C247.088 85.6482 245.768 85.7922 245.264 85.8162V82.4082C245.912 82.5042 247.376 82.5762 248.096 82.5762H256.568C257.6 82.5762 258.56 82.4322 259.04 82.2642L261.008 83.7282Z" fill="#E5005A"/>
<path d="M237.8 81.376C237.752 82.048 237.704 82.816 237.704 83.776V88.528C237.704 93.688 236.696 95.92 234.92 97.888C233.336 99.616 230.84 100.792 229.088 101.344L226.592 98.704C228.968 98.152 230.912 97.24 232.352 95.68C234.008 93.88 234.32 92.08 234.32 88.336V83.776C234.32 82.816 234.272 82.048 234.176 81.376H237.8ZM226.664 81.568C226.616 82.12 226.592 82.648 226.592 83.416V91.528C226.592 92.128 226.616 93.064 226.664 93.616H223.184C223.208 93.16 223.304 92.224 223.304 91.504V83.416C223.304 82.96 223.28 82.12 223.208 81.568H226.664Z" fill="#E5005A"/>
<path d="M205.027 97.1681C205.027 98.0561 206.011 98.6561 207.451 98.6561C207.955 98.6561 208.411 98.6321 208.843 98.5841C208.699 97.0241 207.811 96.0161 206.515 96.0161C205.603 96.0161 205.027 96.5681 205.027 97.1681ZM200.947 81.7121C201.619 81.8081 202.459 81.8321 203.131 81.8321C204.403 81.8321 209.539 81.7361 210.907 81.6161C211.891 81.5201 212.443 81.448 212.731 81.3521L214.291 83.4881C213.739 83.8481 213.163 84.1841 212.611 84.5921C211.315 85.5041 208.795 87.6161 207.283 88.8161C208.075 88.6241 208.795 88.5521 209.563 88.5521C213.643 88.5521 216.739 91.0961 216.739 94.6001C216.739 98.3921 213.859 101.392 208.051 101.392C204.715 101.392 202.195 99.8561 202.195 97.4561C202.195 95.5121 203.947 93.7121 206.491 93.7121C209.467 93.7121 211.267 95.5361 211.603 97.8161C212.923 97.1201 213.595 96.0161 213.595 94.5521C213.595 92.3921 211.435 90.9281 208.603 90.9281C204.931 90.9281 202.531 92.8721 199.963 95.8001L197.779 93.5441C199.483 92.1761 202.387 89.7281 203.803 88.5521C205.147 87.4481 207.643 85.4321 208.819 84.4001C207.595 84.4241 204.283 84.5681 203.011 84.6401C202.363 84.6881 201.595 84.76 201.043 84.8321L200.947 81.7121Z" fill="#E5005A"/>
<path d="M177.669 82.6961C177.669 82.0001 177.693 81.2801 177.573 80.5361L181.077 80.6561C180.933 81.3281 180.717 82.5521 180.549 84.0401L181.437 85.1921C181.101 85.6241 180.621 86.4161 180.213 87.0401C180.189 87.2081 180.189 87.3761 180.165 87.5681C182.061 85.9121 184.821 83.9681 187.149 83.9681C189.741 83.9681 190.917 85.5041 190.917 87.5201C190.917 90.0161 190.125 93.5441 190.125 96.0161C190.125 96.6401 190.437 97.0961 191.037 97.0961C191.925 97.0961 193.053 96.4721 194.157 95.3681L194.541 98.7521C193.437 99.7841 191.973 100.528 190.029 100.528C188.229 100.528 187.029 99.2321 187.029 96.9041C187.029 94.3121 187.893 90.7841 187.893 88.6001C187.893 87.4241 187.269 86.8241 186.261 86.8241C184.485 86.8241 181.893 89.0321 179.925 91.1921C179.901 91.8641 179.877 92.5121 179.877 93.1361C179.877 95.1041 179.877 97.1201 180.021 99.3761C180.045 99.8081 180.117 100.672 180.189 101.224H176.877C176.925 100.672 176.949 99.8321 176.949 99.4481C176.997 97.5761 177.021 96.1841 177.045 94.1681C176.037 95.6801 174.861 97.4321 174.021 98.5601L172.125 95.9441C173.493 94.2641 175.893 91.0961 177.261 89.0801C177.309 88.5281 177.357 87.9521 177.381 87.3761C176.205 87.5201 174.357 87.7601 173.013 87.9521L172.701 84.8801C173.397 84.9041 173.949 84.9041 174.789 84.8561C175.485 84.8081 176.541 84.6881 177.573 84.5441C177.621 83.6321 177.669 82.9601 177.669 82.6961Z" fill="#E5005A"/>
<path d="M154.866 80.6799C157.146 81.3999 162.378 82.3119 164.466 82.5519L163.746 85.4799C161.322 85.1679 155.97 84.0399 154.098 83.5599L154.866 80.6799ZM155.01 85.5039C154.698 86.8239 154.266 89.7519 154.098 91.1199C156.282 89.5359 158.658 88.8399 161.178 88.8399C165.378 88.8399 167.826 91.4319 167.826 94.3359C167.826 98.7039 164.37 102.064 154.386 101.224L153.474 98.0799C160.674 99.0639 164.49 97.3119 164.49 94.2639C164.49 92.7039 163.002 91.5519 160.914 91.5519C158.202 91.5519 155.754 92.5599 154.242 94.3839C153.81 94.9119 153.57 95.2959 153.354 95.7759L150.594 95.0799C151.074 92.7279 151.626 88.0239 151.794 85.0479L155.01 85.5039Z" fill="#E5005A"/>
<path d="M131.334 80.5361C134.022 81.0401 138.63 81.5441 141.126 81.7121L140.742 84.5201C138.222 84.3281 133.734 83.8001 130.878 83.3201L131.334 80.5361ZM141.966 88.1681C141.342 88.6001 140.838 89.0321 140.406 89.3921C139.302 90.3281 137.07 92.3921 136.494 93.0161C136.71 92.9921 137.142 93.0881 137.406 93.1841C138.102 93.4001 138.534 93.9281 138.846 94.8161C139.062 95.4641 139.326 96.3761 139.542 97.0001C139.758 97.7441 140.286 98.1281 141.222 98.1281C143.07 98.1281 144.726 97.9361 145.926 97.6961L145.734 100.84C144.75 101.032 142.278 101.2 141.03 101.2C138.75 101.2 137.526 100.696 136.926 99.1361C136.686 98.4161 136.398 97.2881 136.23 96.6881C135.966 95.8481 135.438 95.5361 134.958 95.5361C134.454 95.5361 133.95 95.9201 133.374 96.4961C132.558 97.3361 130.758 99.3041 129.102 101.416L126.27 99.4241C126.702 99.0641 127.278 98.5601 127.926 97.9361C129.15 96.6881 134.07 91.7921 136.254 89.4881C134.574 89.5361 131.694 89.8001 130.326 89.9201C129.486 89.9921 128.766 90.1121 128.262 90.1841L127.974 86.8721C128.526 86.9201 129.39 86.9681 130.278 86.9441C131.406 86.9441 136.854 86.7041 138.846 86.4401C139.302 86.3921 139.95 86.2721 140.214 86.1761L141.966 88.1681Z" fill="#E5005A"/>
<path d="M107.702 81.568H111.086V79.816H113.726V81.568H117.278V79.816H119.966V81.568H123.182V84.016H119.966V85.624H117.278V84.016H113.726V85.624H111.086V84.016H107.702V81.568ZM118.046 96.52H120.326V95.2H118.046V96.52ZM113.63 96.52H115.79V95.2H113.63V96.52ZM115.79 91.984H113.63V93.352H115.79V91.984ZM120.326 91.984H118.046V93.352H120.326V91.984ZM122.75 89.92V99.664C122.75 100.744 122.606 101.32 121.934 101.704C121.286 102.064 120.422 102.112 119.174 102.088C119.126 101.44 118.838 100.552 118.55 99.928C119.222 99.952 119.822 99.952 120.062 99.928C120.278 99.928 120.326 99.88 120.326 99.64V98.392H118.046V101.992H115.79V98.392H113.63V102.04H111.254V89.92H122.75ZM123.302 86.272V88.72H110.414V91.552C110.414 94.672 110.054 99.256 108.014 102.16C107.606 101.68 106.55 100.768 105.998 100.432V102.064H103.286V90.064C102.806 90.784 102.302 91.456 101.798 92.032C101.582 91.36 100.886 89.704 100.43 88.96C102.35 86.728 104.126 83.224 105.182 79.696L107.822 80.488C107.318 82.024 106.694 83.608 105.998 85.144V100.336C107.678 97.768 107.822 94.144 107.822 91.504V86.272H123.302Z" fill="#E5005A"/>
<path d="M77.459 83.5359C78.419 83.5119 79.355 83.4639 79.811 83.4159C81.827 83.2479 85.787 82.8879 90.179 82.5279C92.651 82.3119 95.267 82.1679 96.971 82.0959L96.995 85.1679C95.699 85.1919 93.635 85.1919 92.363 85.5039C89.459 86.2719 87.275 89.3679 87.275 92.2239C87.275 96.1839 90.971 97.5999 95.051 97.8159L93.923 101.104C88.883 100.768 84.131 98.0799 84.131 92.8719C84.131 89.4159 86.075 86.6799 87.707 85.4559C85.451 85.6959 80.555 86.2239 77.771 86.8239L77.459 83.5359ZM93.563 87.5199C94.163 88.3839 95.027 89.8479 95.483 90.7839L93.659 91.5999C93.059 90.2799 92.555 89.3439 91.787 88.2639L93.563 87.5199ZM96.251 86.4159C96.851 87.2559 97.763 88.6719 98.267 89.6079L96.467 90.4719C95.819 89.1759 95.267 88.2879 94.499 87.2319L96.251 86.4159Z" fill="#E5005A"/>
<path d="M63.6088 93.328H65.9608C65.9848 93.112 65.9848 92.896 65.9848 92.68V91.168H63.6088V93.328ZM71.0728 91.168H68.5528V92.752C68.5528 92.944 68.5528 93.136 68.5528 93.328H71.0728V91.168ZM64.4248 85.192H70.2328C69.0568 84.232 67.9768 83.152 67.2328 82.12C66.5608 83.128 65.5768 84.208 64.4248 85.192ZM73.6408 95.512H69.3448C70.7608 98.152 72.5608 99.064 74.9368 99.808C74.2888 100.408 73.6168 101.344 73.3048 102.184C70.9048 101.272 69.0088 100.048 67.5448 97.432C66.5128 99.352 64.5688 101.08 60.9688 102.208C60.7048 101.632 59.9128 100.552 59.4568 100.096C63.3208 98.92 64.9288 97.288 65.5768 95.512H61.1368V89.008H65.9848V87.544H62.9368V86.32C62.2408 86.8 61.5208 87.232 60.8008 87.592C60.5368 86.968 60.0568 86.104 59.6248 85.48C59.2888 86.464 58.9528 87.448 58.6408 88.264C60.1768 90.088 60.4888 91.672 60.4888 93.064C60.4888 94.576 60.1768 95.584 59.3848 96.136C59.0008 96.4 58.5208 96.544 57.9928 96.616C57.5368 96.688 56.9608 96.712 56.3608 96.688C56.3608 95.992 56.1448 94.888 55.7368 94.192C56.1928 94.24 56.5528 94.24 56.8408 94.216C57.1048 94.216 57.3688 94.168 57.5368 94.048C57.8248 93.832 57.9448 93.376 57.9448 92.68C57.9448 91.6 57.5848 90.16 56.1928 88.576C56.6968 87.04 57.2248 84.904 57.6328 83.248H55.6888V102.088H53.2168V80.704H58.5208L58.9288 80.584L60.8248 81.688C60.5128 82.744 60.1288 83.944 59.7448 85.12C62.2888 83.944 64.6888 81.664 65.8648 79.696H68.4568C70.1128 81.976 72.6088 83.968 75.1048 84.88C74.5768 85.552 74.0248 86.608 73.6408 87.376C73.0408 87.088 72.3928 86.704 71.7688 86.296V87.544H68.5528V89.008H73.6408V95.512Z" fill="#E5005A"/>
<path d="M32.1445 79.72L34.7845 80.584C34.1605 82.144 33.4165 83.776 32.5525 85.312V102.04H29.8405V89.488C29.2405 90.256 28.6405 90.976 28.0165 91.624C27.7525 90.928 26.9605 89.392 26.4805 88.696C28.7125 86.536 30.8965 83.128 32.1445 79.72ZM37.9765 83.224V86.44H45.0085V83.224H37.9765ZM49.0405 93.712H44.2405C45.6565 95.8 47.7205 97.768 49.7365 98.944C49.0885 99.496 48.1765 100.504 47.7205 101.224C45.9685 99.976 44.2165 98.032 42.8485 95.896V102.088H39.9685V96.016C38.5045 98.128 36.6805 99.952 34.7845 101.176C34.3525 100.48 33.4645 99.448 32.8165 98.896C34.9765 97.768 37.1125 95.824 38.6005 93.712H33.6805V91.12H39.9685V88.96H35.2645V80.704H47.8645V88.96H42.8485V91.12H49.0405V93.712Z" fill="#E5005A"/>
</svg>
