<svg width="370" height="180" viewBox="0 0 370 180" fill="none" xmlns="http://www.w3.org/2000/svg">
<path d="M0 0H370V180H0V0Z" fill="white"/>
<mask id="mask0_1827_25322" style="mask-type:alpha" maskUnits="userSpaceOnUse" x="0" y="0" width="370" height="180">
<path d="M0 0H370V180H0V0Z" fill="white"/>
</mask>
<g mask="url(#mask0_1827_25322)">
<path fill-rule="evenodd" clip-rule="evenodd" d="M332.443 -5.01438C332.443 13.2031 318.026 49.7653 300.242 49.7653C282.458 49.7653 268.041 13.2031 268.041 -5.01438C268.041 -23.2318 282.458 -38 300.242 -38C318.026 -38 332.443 -23.2318 332.443 -5.01438ZM366.785 110.986C356.618 96.0394 324.383 74.4858 309.792 84.9014C295.201 95.3169 303.78 133.758 313.947 148.704C324.115 163.65 344.186 167.323 358.777 156.907C373.368 146.492 376.953 125.932 366.785 110.986ZM316.05 63.6223C320.543 81.2488 358.72 86.3009 375.927 81.6985C393.134 77.096 403.441 59.0759 398.948 41.4494C394.456 23.8229 376.864 13.2648 359.657 17.8672C342.45 22.4697 311.557 45.9958 316.05 63.6223ZM221.419 77.0826C238.361 82.6216 276.747 79.6693 282.155 62.3144C287.562 44.9594 257.943 19.7736 241 14.2346C224.058 8.69563 205.94 18.2744 200.533 35.6293C195.126 52.9843 204.477 71.5436 221.419 77.0826ZM283.328 82.6362C298.707 91.7839 293.252 130.818 284.322 146.572C275.392 162.327 255.685 167.682 240.306 158.534C224.926 149.387 219.698 129.2 228.628 113.445C237.558 97.6913 267.948 73.4884 283.328 82.6362Z" fill="#FAF1F5"/>
</g>
<path d="M204.541 112.328H206.893C206.917 112.112 206.917 111.896 206.917 111.68V110.168H204.541V112.328ZM212.005 110.168H209.485V111.752C209.485 111.944 209.485 112.136 209.485 112.328H212.005V110.168ZM205.357 104.192H211.165C209.989 103.232 208.909 102.152 208.165 101.12C207.493 102.128 206.509 103.208 205.357 104.192ZM214.573 114.512H210.277C211.693 117.152 213.493 118.064 215.869 118.808C215.221 119.408 214.549 120.344 214.237 121.184C211.837 120.272 209.941 119.048 208.477 116.432C207.445 118.352 205.501 120.08 201.901 121.208C201.637 120.632 200.845 119.552 200.389 119.096C204.253 117.92 205.861 116.288 206.509 114.512H202.069V108.008H206.917V106.544H203.869V105.32C203.173 105.8 202.453 106.232 201.733 106.592C201.469 105.968 200.989 105.104 200.557 104.48C200.221 105.464 199.885 106.448 199.573 107.264C201.109 109.088 201.421 110.672 201.421 112.064C201.421 113.576 201.109 114.584 200.317 115.136C199.933 115.4 199.453 115.544 198.925 115.616C198.469 115.688 197.893 115.712 197.293 115.688C197.293 114.992 197.077 113.888 196.669 113.192C197.125 113.24 197.485 113.24 197.773 113.216C198.037 113.216 198.301 113.168 198.469 113.048C198.757 112.832 198.877 112.376 198.877 111.68C198.877 110.6 198.517 109.16 197.125 107.576C197.629 106.04 198.157 103.904 198.565 102.248H196.621V121.088H194.149V99.7038H199.453L199.861 99.5838L201.757 100.688C201.445 101.744 201.061 102.944 200.677 104.12C203.221 102.944 205.621 100.664 206.797 98.6958H209.389C211.045 100.976 213.541 102.968 216.037 103.88C215.509 104.552 214.957 105.608 214.573 106.376C213.973 106.088 213.325 105.704 212.701 105.296V106.544H209.485V108.008H214.573V114.512Z" fill="#E5005A"/>
<path d="M173.077 98.7197L175.717 99.5837C175.093 101.144 174.349 102.776 173.485 104.312V121.04H170.773V108.488C170.173 109.256 169.573 109.976 168.949 110.624C168.685 109.928 167.893 108.392 167.413 107.696C169.645 105.536 171.829 102.128 173.077 98.7197ZM178.909 102.224V105.44H185.941V102.224H178.909ZM189.973 112.712H185.173C186.589 114.8 188.653 116.768 190.669 117.944C190.021 118.496 189.109 119.504 188.653 120.224C186.901 118.976 185.149 117.032 183.781 114.896V121.088H180.901V115.016C179.437 117.128 177.613 118.952 175.717 120.176C175.285 119.48 174.397 118.448 173.749 117.896C175.909 116.768 178.045 114.824 179.533 112.712H174.613V110.12H180.901V107.96H176.197V99.7037H188.797V107.96H183.781V110.12H189.973V112.712Z" fill="#E5005A"/>
<path d="M149.15 110.36V111.944C151.502 111.824 154.046 111.68 156.59 111.536C156.902 111.296 157.19 111.032 157.478 110.792V110.36H149.15ZM157.478 103.4H149.15V104.792H157.478V103.4ZM157.478 108.272V106.832H149.15V108.272H157.478ZM161.654 105.848L164.414 107.192C163.262 108.968 161.918 110.552 160.43 112.016V117.608C160.43 119.24 160.118 120.104 159.062 120.56C158.006 121.04 156.47 121.112 154.166 121.088C154.046 120.248 153.566 118.904 153.158 118.088C154.646 118.184 156.35 118.16 156.83 118.136C157.31 118.136 157.478 117.992 157.478 117.584V114.512C153.662 117.368 149.174 119.456 144.35 120.896C143.942 120.2 142.982 118.928 142.43 118.28C146.078 117.368 149.486 116.048 152.486 114.344C149.03 114.632 145.742 114.896 143.15 115.064L142.766 112.232C143.798 112.184 144.974 112.136 146.294 112.088V100.952H151.262C151.574 100.136 151.862 99.296 152.03 98.624L155.534 98.96C155.198 99.656 154.814 100.328 154.454 100.952H160.43V107.6C160.862 107.048 161.27 106.448 161.654 105.848Z" fill="#E5005A"/>
<path d="M117.757 112.712L120.109 113.12C119.869 115.376 119.365 117.776 118.669 119.312C118.165 119 117.109 118.496 116.485 118.28C117.181 116.864 117.565 114.728 117.757 112.712ZM122.965 113.144L124.981 112.52C125.581 113.888 126.205 115.64 126.469 116.84L124.357 117.608C124.141 116.408 123.517 114.56 122.965 113.144ZM126.877 117.488L128.533 115.472C131.629 116.312 135.349 117.872 137.557 119.072L135.901 121.304C133.813 119.984 129.997 118.376 126.877 117.488ZM129.469 113.216L131.077 111.416C132.805 112.088 134.869 113.168 136.045 114.032L134.389 116.024C133.261 115.112 131.173 113.888 129.469 113.216ZM134.485 103.4H130.309C130.885 104.336 131.581 105.248 132.397 106.112C133.213 105.272 133.909 104.36 134.485 103.4ZM136.429 100.856L138.205 101.84C137.293 104.144 135.949 106.136 134.341 107.84C135.925 109.064 137.749 110.048 139.669 110.672C139.069 111.248 138.253 112.304 137.869 113C135.877 112.208 134.053 111.056 132.421 109.616C130.741 111.008 128.893 112.088 127.021 112.88C126.853 112.52 126.541 112.04 126.181 111.584L124.429 112.376C124.357 112.04 124.261 111.632 124.141 111.2L122.917 111.296V121.112H120.445V111.464L116.965 111.68L116.725 109.208L118.453 109.136C118.813 108.68 119.197 108.152 119.581 107.6C118.885 106.568 117.733 105.296 116.749 104.336L118.117 102.392C118.285 102.536 118.477 102.704 118.669 102.872C119.341 101.552 120.013 99.9679 120.421 98.6959L122.893 99.6079C122.029 101.24 121.069 103.088 120.205 104.432C120.517 104.768 120.781 105.104 121.021 105.392C121.837 104.048 122.605 102.68 123.157 101.504L125.485 102.584C124.165 104.672 122.509 107.096 120.997 109.04L123.301 108.944C123.037 108.344 122.749 107.744 122.461 107.216L124.357 106.424C125.029 107.624 125.701 109.064 126.109 110.288C127.693 109.64 129.205 108.776 130.549 107.744C129.877 107 129.277 106.184 128.725 105.344C128.077 106.064 127.381 106.76 126.589 107.408C126.157 106.808 125.245 105.92 124.621 105.56C127.237 103.568 128.941 100.928 129.829 98.6719L132.613 99.1279C132.349 99.7279 132.061 100.352 131.725 100.952H135.997L136.429 100.856Z" fill="#E5005A"/>
<path d="M101.112 99.8716C102.024 102.368 103.152 104.672 104.112 106.52C106.08 105.368 108.168 104.336 109.296 103.688C110.208 103.16 110.904 102.752 111.528 102.224L113.184 105.008C112.464 105.44 111.696 105.848 110.808 106.304C109.32 107.048 106.296 108.44 104.112 109.856C102.12 111.176 100.776 112.544 100.776 114.224C100.776 115.952 102.432 116.864 105.768 116.864C108.24 116.864 111.48 116.504 113.616 115.976L113.568 119.432C111.528 119.792 108.984 120.032 105.864 120.032C101.088 120.032 97.4639 118.712 97.4639 114.584C97.4639 111.944 99.1439 109.952 101.448 108.248C100.344 106.208 99.1919 103.64 98.1119 101.096L101.112 99.8716Z" fill="#E5005A"/>
<path d="M84.6911 100.28C84.1391 101.12 83.5151 102.2 83.2271 102.728C83.2031 102.776 83.1791 102.8 83.1551 102.848H87.9791C88.7231 102.848 89.5151 102.728 90.0671 102.56L92.5151 104.072C92.2511 104.528 91.9151 105.2 91.7231 105.8C91.0751 107.936 89.7071 111.128 87.5471 113.816C85.2671 116.6 82.3631 118.808 77.8511 120.584L75.0191 118.04C79.9391 116.576 82.6031 114.488 84.6911 112.112C86.3231 110.24 87.7151 107.36 88.0991 105.56H81.3551C79.7471 107.648 77.6591 109.76 75.3071 111.368L72.6191 109.376C76.8191 106.808 78.9071 103.712 80.1071 101.648C80.4671 101.048 80.9711 99.9439 81.1871 99.1279L84.6911 100.28Z" fill="#E5005A"/>
<path d="M66.5934 102.728C66.4014 102.992 65.9694 103.736 65.7534 104.216C64.9374 106.088 63.5934 108.656 61.9854 110.816C64.3614 112.88 67.2654 115.952 68.6814 117.68L65.9454 120.056C64.3854 117.896 62.1534 115.448 59.8974 113.264C57.3534 115.952 54.1614 118.448 50.8734 120.008L48.4014 117.416C52.2654 115.976 55.9854 113.048 58.2414 110.528C59.8254 108.728 61.2894 106.352 61.8174 104.648H53.6814C52.6734 104.648 51.3534 104.792 50.8494 104.816V101.408C51.4974 101.504 52.9614 101.576 53.6814 101.576H62.1534C63.1854 101.576 64.1454 101.432 64.6254 101.264L66.5934 102.728Z" fill="#E5005A"/>
<path d="M43.3855 100.376C43.3375 101.048 43.2895 101.816 43.2895 102.776V107.528C43.2895 112.688 42.2815 114.92 40.5055 116.888C38.9215 118.616 36.4255 119.792 34.6735 120.344L32.1775 117.704C34.5535 117.152 36.4975 116.24 37.9375 114.68C39.5935 112.88 39.9055 111.08 39.9055 107.336V102.776C39.9055 101.816 39.8575 101.048 39.7615 100.376H43.3855ZM32.2495 100.568C32.2015 101.12 32.1775 101.648 32.1775 102.416V110.528C32.1775 111.128 32.2015 112.064 32.2495 112.616H28.7695C28.7935 112.16 28.8895 111.224 28.8895 110.504V102.416C28.8895 101.96 28.8655 101.12 28.7935 100.568H32.2495Z" fill="#E5005A"/>
<path d="M204.546 76.1676C204.546 77.0556 205.53 77.6556 206.97 77.6556C207.474 77.6556 207.93 77.6316 208.362 77.5836C208.218 76.0236 207.33 75.0156 206.034 75.0156C205.122 75.0156 204.546 75.5676 204.546 76.1676ZM200.466 60.7116C201.138 60.8076 201.978 60.8316 202.65 60.8316C203.922 60.8316 209.058 60.7356 210.426 60.6156C211.41 60.5196 211.962 60.4476 212.25 60.3516L213.81 62.4876C213.258 62.8476 212.682 63.1836 212.13 63.5916C210.834 64.5036 208.314 66.6156 206.802 67.8156C207.594 67.6236 208.314 67.5516 209.082 67.5516C213.162 67.5516 216.258 70.0956 216.258 73.5996C216.258 77.3916 213.378 80.3916 207.57 80.3916C204.234 80.3916 201.714 78.8556 201.714 76.4556C201.714 74.5116 203.466 72.7116 206.01 72.7116C208.986 72.7116 210.786 74.5356 211.122 76.8156C212.442 76.1196 213.114 75.0156 213.114 73.5516C213.114 71.3916 210.954 69.9276 208.122 69.9276C204.45 69.9276 202.05 71.8716 199.482 74.7996L197.298 72.5436C199.002 71.1756 201.906 68.7276 203.322 67.5516C204.666 66.4476 207.162 64.4316 208.338 63.3996C207.114 63.4236 203.802 63.5676 202.53 63.6396C201.882 63.6876 201.114 63.7596 200.562 63.8316L200.466 60.7116Z" fill="#E5005A"/>
<path d="M177.188 61.6956C177.188 60.9996 177.212 60.2796 177.092 59.5356L180.596 59.6556C180.452 60.3276 180.236 61.5516 180.068 63.0396L180.956 64.1916C180.62 64.6236 180.14 65.4156 179.732 66.0396C179.708 66.2076 179.708 66.3756 179.684 66.5676C181.58 64.9116 184.34 62.9676 186.668 62.9676C189.26 62.9676 190.436 64.5036 190.436 66.5196C190.436 69.0156 189.644 72.5436 189.644 75.0156C189.644 75.6396 189.956 76.0956 190.556 76.0956C191.444 76.0956 192.572 75.4716 193.676 74.3676L194.06 77.7516C192.956 78.7836 191.492 79.5276 189.548 79.5276C187.748 79.5276 186.548 78.2316 186.548 75.9036C186.548 73.3116 187.412 69.7836 187.412 67.5996C187.412 66.4236 186.788 65.8236 185.78 65.8236C184.004 65.8236 181.412 68.0316 179.444 70.1916C179.42 70.8636 179.396 71.5116 179.396 72.1356C179.396 74.1036 179.396 76.1196 179.54 78.3756C179.564 78.8076 179.636 79.6716 179.708 80.2236H176.396C176.444 79.6716 176.468 78.8316 176.468 78.4476C176.516 76.5756 176.54 75.1836 176.564 73.1676C175.556 74.6796 174.38 76.4316 173.54 77.5596L171.644 74.9436C173.012 73.2636 175.412 70.0956 176.78 68.0796C176.828 67.5276 176.876 66.9516 176.9 66.3756C175.724 66.5196 173.876 66.7596 172.532 66.9516L172.22 63.8796C172.916 63.9036 173.468 63.9036 174.308 63.8556C175.004 63.8076 176.06 63.6876 177.092 63.5436C177.14 62.6316 177.188 61.9596 177.188 61.6956Z" fill="#E5005A"/>
<path d="M154.384 59.6797C156.664 60.3997 161.896 61.3117 163.984 61.5517L163.264 64.4797C160.84 64.1677 155.488 63.0397 153.616 62.5597L154.384 59.6797ZM154.528 64.5037C154.216 65.8237 153.784 68.7517 153.616 70.1197C155.8 68.5357 158.176 67.8397 160.696 67.8397C164.896 67.8397 167.344 70.4317 167.344 73.3357C167.344 77.7037 163.888 81.0637 153.904 80.2237L152.992 77.0797C160.192 78.0637 164.008 76.3117 164.008 73.2637C164.008 71.7037 162.52 70.5517 160.432 70.5517C157.72 70.5517 155.272 71.5597 153.76 73.3837C153.328 73.9117 153.088 74.2957 152.872 74.7757L150.112 74.0797C150.592 71.7277 151.144 67.0237 151.312 64.0477L154.528 64.5037Z" fill="#E5005A"/>
<path d="M130.854 59.5356C133.542 60.0396 138.15 60.5436 140.646 60.7116L140.262 63.5196C137.742 63.3276 133.254 62.7996 130.398 62.3196L130.854 59.5356ZM141.486 67.1676C140.862 67.5996 140.358 68.0316 139.926 68.3916C138.822 69.3276 136.59 71.3916 136.014 72.0156C136.23 71.9916 136.662 72.0876 136.926 72.1836C137.622 72.3996 138.054 72.9276 138.366 73.8156C138.582 74.4636 138.846 75.3756 139.062 75.9996C139.278 76.7436 139.806 77.1276 140.742 77.1276C142.59 77.1276 144.246 76.9356 145.446 76.6956L145.254 79.8396C144.27 80.0316 141.798 80.1996 140.55 80.1996C138.27 80.1996 137.046 79.6956 136.446 78.1356C136.206 77.4156 135.918 76.2876 135.75 75.6876C135.486 74.8476 134.958 74.5356 134.478 74.5356C133.974 74.5356 133.47 74.9196 132.894 75.4956C132.078 76.3356 130.278 78.3036 128.622 80.4156L125.79 78.4236C126.222 78.0636 126.798 77.5596 127.446 76.9356C128.67 75.6876 133.59 70.7916 135.774 68.4876C134.094 68.5356 131.214 68.7996 129.846 68.9196C129.006 68.9916 128.286 69.1116 127.782 69.1836L127.494 65.8716C128.046 65.9196 128.91 65.9676 129.798 65.9436C130.926 65.9436 136.374 65.7036 138.366 65.4396C138.822 65.3916 139.47 65.2716 139.734 65.1756L141.486 67.1676Z" fill="#E5005A"/>
<path d="M107.221 60.5678H110.605V58.8158H113.245V60.5678H116.797V58.8158H119.485V60.5678H122.701V63.0158H119.485V64.6238H116.797V63.0158H113.245V64.6238H110.605V63.0158H107.221V60.5678ZM117.565 75.5198H119.845V74.1998H117.565V75.5198ZM113.149 75.5198H115.309V74.1998H113.149V75.5198ZM115.309 70.9838H113.149V72.3518H115.309V70.9838ZM119.845 70.9838H117.565V72.3518H119.845V70.9838ZM122.269 68.9198V78.6638C122.269 79.7438 122.125 80.3198 121.453 80.7038C120.805 81.0638 119.941 81.1118 118.693 81.0878C118.645 80.4398 118.357 79.5518 118.069 78.9278C118.741 78.9518 119.341 78.9518 119.581 78.9278C119.797 78.9278 119.845 78.8798 119.845 78.6398V77.3918H117.565V80.9918H115.309V77.3918H113.149V81.0398H110.773V68.9198H122.269ZM122.821 65.2718V67.7198H109.933V70.5518C109.933 73.6718 109.573 78.2558 107.533 81.1598C107.125 80.6798 106.069 79.7678 105.517 79.4318V81.0638H102.805V69.0638C102.325 69.7838 101.821 70.4558 101.317 71.0318C101.101 70.3598 100.405 68.7038 99.9492 67.9598C101.869 65.7278 103.645 62.2238 104.701 58.6958L107.341 59.4878C106.837 61.0238 106.213 62.6078 105.517 64.1438V79.3358C107.197 76.7678 107.341 73.1438 107.341 70.5038V65.2718H122.821Z" fill="#E5005A"/>
<path d="M76.9775 62.5357C77.9375 62.5117 78.8735 62.4637 79.3295 62.4157C81.3455 62.2477 85.3055 61.8877 89.6975 61.5277C92.1695 61.3117 94.7855 61.1677 96.4895 61.0957L96.5135 64.1677C95.2175 64.1917 93.1535 64.1917 91.8815 64.5037C88.9775 65.2717 86.7935 68.3677 86.7935 71.2237C86.7935 75.1837 90.4895 76.5997 94.5695 76.8157L93.4415 80.1037C88.4015 79.7677 83.6495 77.0797 83.6495 71.8717C83.6495 68.4157 85.5935 65.6797 87.2255 64.4557C84.9695 64.6957 80.0735 65.2237 77.2895 65.8237L76.9775 62.5357ZM93.0815 66.5197C93.6815 67.3837 94.5455 68.8477 95.0015 69.7837L93.1775 70.5997C92.5775 69.2797 92.0735 68.3437 91.3055 67.2637L93.0815 66.5197ZM95.7695 65.4157C96.3695 66.2557 97.2815 67.6717 97.7855 68.6077L95.9855 69.4717C95.3375 68.1757 94.7855 67.2877 94.0175 66.2317L95.7695 65.4157Z" fill="#E5005A"/>
<path d="M63.1283 72.3278H65.4803C65.5043 72.1118 65.5043 71.8958 65.5043 71.6798V70.1678H63.1283V72.3278ZM70.5923 70.1678H68.0723V71.7518C68.0723 71.9438 68.0723 72.1358 68.0723 72.3278H70.5923V70.1678ZM63.9443 64.1918H69.7523C68.5763 63.2318 67.4963 62.1518 66.7523 61.1198C66.0803 62.1278 65.0963 63.2078 63.9443 64.1918ZM73.1603 74.5118H68.8643C70.2803 77.1518 72.0803 78.0638 74.4563 78.8078C73.8083 79.4078 73.1363 80.3438 72.8243 81.1838C70.4243 80.2718 68.5283 79.0478 67.0643 76.4318C66.0323 78.3518 64.0883 80.0798 60.4883 81.2078C60.2243 80.6318 59.4323 79.5518 58.9763 79.0958C62.8403 77.9198 64.4483 76.2878 65.0963 74.5118H60.6563V68.0078H65.5043V66.5438H62.4563V65.3198C61.7603 65.7998 61.0403 66.2318 60.3203 66.5918C60.0563 65.9678 59.5763 65.1038 59.1443 64.4798C58.8083 65.4638 58.4723 66.4478 58.1603 67.2638C59.6963 69.0878 60.0083 70.6718 60.0083 72.0638C60.0083 73.5758 59.6963 74.5838 58.9043 75.1358C58.5203 75.3998 58.0403 75.5438 57.5123 75.6158C57.0563 75.6878 56.4803 75.7118 55.8803 75.6878C55.8803 74.9918 55.6643 73.8878 55.2563 73.1918C55.7123 73.2398 56.0723 73.2398 56.3603 73.2158C56.6243 73.2158 56.8883 73.1678 57.0563 73.0478C57.3443 72.8318 57.4643 72.3758 57.4643 71.6798C57.4643 70.5998 57.1043 69.1598 55.7123 67.5758C56.2163 66.0398 56.7443 63.9038 57.1523 62.2478H55.2083V81.0878H52.7363V59.7038H58.0403L58.4483 59.5838L60.3443 60.6878C60.0323 61.7438 59.6483 62.9438 59.2643 64.1198C61.8083 62.9438 64.2083 60.6638 65.3843 58.6958H67.9763C69.6323 60.9758 72.1283 62.9678 74.6243 63.8798C74.0963 64.5518 73.5443 65.6078 73.1603 66.3758C72.5603 66.0878 71.9123 65.7038 71.2883 65.2958V66.5438H68.0723V68.0078H73.1603V74.5118Z" fill="#E5005A"/>
<path d="M31.664 58.7197L34.304 59.5837C33.68 61.1437 32.936 62.7757 32.072 64.3117V81.0397H29.36V68.4877C28.76 69.2557 28.16 69.9757 27.536 70.6237C27.272 69.9277 26.48 68.3917 26 67.6957C28.232 65.5357 30.416 62.1277 31.664 58.7197ZM37.496 62.2237V65.4397H44.528V62.2237H37.496ZM48.56 72.7117H43.76C45.176 74.7997 47.24 76.7677 49.256 77.9437C48.608 78.4957 47.696 79.5037 47.24 80.2237C45.488 78.9757 43.736 77.0317 42.368 74.8957V81.0877H39.488V75.0157C38.024 77.1277 36.2 78.9517 34.304 80.1757C33.872 79.4797 32.984 78.4477 32.336 77.8957C34.496 76.7677 36.632 74.8237 38.12 72.7117H33.2V70.1197H39.488V67.9597H34.784V59.7037H47.384V67.9597H42.368V70.1197H48.56V72.7117Z" fill="#E5005A"/>
</svg>
