<svg width="196" height="120" viewBox="0 0 196 120" fill="none" xmlns="http://www.w3.org/2000/svg">
<path d="M0 0H196V120H0V0Z" fill="white"/>
<mask id="mask0_2115_22327" style="mask-type:alpha" maskUnits="userSpaceOnUse" x="0" y="0" width="196" height="120">
<path d="M0 0H196V120H0V0Z" fill="white"/>
</mask>
<g mask="url(#mask0_2115_22327)">
<path fill-rule="evenodd" clip-rule="evenodd" d="M165.634 15.6622C165.634 27.6259 156.166 51.6369 144.487 51.6369C132.808 51.6369 123.34 27.6259 123.34 15.6622C123.34 3.6985 132.808 -6 144.487 -6C156.166 -6 165.634 3.6985 165.634 15.6622ZM188.187 91.8413C181.51 82.0258 160.341 67.8713 150.759 74.7113C141.177 81.5514 146.81 106.796 153.488 116.611C160.165 126.427 173.346 128.839 182.928 121.999C192.51 115.159 194.865 101.657 188.187 91.8413ZM154.869 60.737C157.819 72.3126 182.891 75.6304 194.191 72.6079C205.491 69.5855 212.26 57.7514 209.309 46.1757C206.359 34.6001 194.806 27.6664 183.506 30.6889C172.206 33.7114 151.918 49.1614 154.869 60.737ZM92.7229 69.5766C103.849 73.2142 129.058 71.2754 132.609 59.8781C136.16 48.4808 116.709 31.9409 105.582 28.3033C94.4561 24.6658 82.5579 30.9563 79.0069 42.3536C75.4558 53.7509 81.5967 65.9391 92.7229 69.5766ZM133.379 73.2237C143.479 79.2312 139.897 104.866 134.032 115.212C128.168 125.558 115.226 129.075 105.126 123.067C95.0261 117.06 91.5926 103.803 97.4572 93.4567C103.322 83.1107 123.279 67.2163 133.379 73.2237Z" fill="#FAF1F5"/>
</g>
<path d="M55.9123 66.7398C55.5213 67.3348 55.0793 68.0998 54.8753 68.4738C54.8583 68.5078 54.8413 68.5248 54.8243 68.5588H58.2413C58.7683 68.5588 59.3293 68.4738 59.7203 68.3548L61.4543 69.4258C61.2673 69.7488 61.0293 70.2248 60.8933 70.6498C60.4343 72.1628 59.4653 74.4238 57.9353 76.3278C56.3203 78.2998 54.2633 79.8638 51.0673 81.1218L49.0613 79.3198C52.5463 78.2828 54.4333 76.8038 55.9123 75.1208C57.0683 73.7948 58.0543 71.7548 58.3263 70.4798H53.5493C52.4103 71.9588 50.9313 73.4548 49.2653 74.5938L47.3613 73.1828C50.3363 71.3638 51.8153 69.1708 52.6653 67.7088C52.9203 67.2838 53.2773 66.5018 53.4303 65.9238L55.9123 66.7398Z" fill="#E5005A"/>
<path d="M43.093 68.474C42.957 68.661 42.651 69.188 42.498 69.528C41.92 70.854 40.968 72.673 39.829 74.203C41.512 75.665 43.569 77.841 44.572 79.065L42.634 80.748C41.529 79.218 39.948 77.484 38.35 75.937C36.548 77.841 34.287 79.609 31.958 80.714L30.207 78.878C32.944 77.858 35.579 75.784 37.177 73.999C38.299 72.724 39.336 71.041 39.71 69.834H33.947C33.233 69.834 32.298 69.936 31.941 69.953V67.539C32.4 67.607 33.437 67.658 33.947 67.658H39.948C40.679 67.658 41.359 67.556 41.699 67.437L43.093 68.474Z" fill="#E5005A"/>
<path d="M26.6538 66.8079C26.6198 67.2839 26.5858 67.8279 26.5858 68.5079V71.8739C26.5858 75.5289 25.8718 77.1099 24.6138 78.5039C23.4918 79.7279 21.7238 80.5609 20.4828 80.9519L18.7148 79.0819C20.3978 78.6909 21.7748 78.0449 22.7948 76.9399C23.9678 75.6649 24.1888 74.3899 24.1888 71.7379V68.5079C24.1888 67.8279 24.1548 67.2839 24.0868 66.8079H26.6538ZM18.7658 66.9439C18.7318 67.3349 18.7148 67.7089 18.7148 68.2529V73.9989C18.7148 74.4239 18.7318 75.0869 18.7658 75.4779H16.3008C16.3178 75.1549 16.3858 74.4919 16.3858 73.9819V68.2529C16.3858 67.9299 16.3688 67.3349 16.3178 66.9439H18.7658Z" fill="#E5005A"/>
<path d="M140.81 51.994C140.81 52.623 141.507 53.048 142.527 53.048C142.884 53.048 143.207 53.031 143.513 52.997C143.411 51.892 142.782 51.178 141.864 51.178C141.218 51.178 140.81 51.569 140.81 51.994ZM137.92 41.046C138.396 41.114 138.991 41.131 139.467 41.131C140.368 41.131 144.006 41.063 144.975 40.978C145.672 40.91 146.063 40.859 146.267 40.791L147.372 42.304C146.981 42.559 146.573 42.797 146.182 43.086C145.264 43.732 143.479 45.228 142.408 46.078C142.969 45.942 143.479 45.891 144.023 45.891C146.913 45.891 149.106 47.693 149.106 50.175C149.106 52.861 147.066 54.986 142.952 54.986C140.589 54.986 138.804 53.898 138.804 52.198C138.804 50.821 140.045 49.546 141.847 49.546C143.955 49.546 145.23 50.838 145.468 52.453C146.403 51.96 146.879 51.178 146.879 50.141C146.879 48.611 145.349 47.574 143.343 47.574C140.742 47.574 139.042 48.951 137.223 51.025L135.676 49.427C136.883 48.458 138.94 46.724 139.943 45.891C140.895 45.109 142.663 43.681 143.496 42.95C142.629 42.967 140.283 43.069 139.382 43.12C138.923 43.154 138.379 43.205 137.988 43.256L137.92 41.046Z" fill="#E5005A"/>
<path d="M121.431 41.7429C121.431 41.2499 121.448 40.7399 121.363 40.2129L123.845 40.2979C123.743 40.7739 123.59 41.6409 123.471 42.6949L124.1 43.5109C123.862 43.8169 123.522 44.3779 123.233 44.8199C123.216 44.9389 123.216 45.0579 123.199 45.1939C124.542 44.0209 126.497 42.6439 128.146 42.6439C129.982 42.6439 130.815 43.7319 130.815 45.1599C130.815 46.9279 130.254 49.4269 130.254 51.1779C130.254 51.6199 130.475 51.9429 130.9 51.9429C131.529 51.9429 132.328 51.5009 133.11 50.7189L133.382 53.1159C132.6 53.8469 131.563 54.3739 130.186 54.3739C128.911 54.3739 128.061 53.4559 128.061 51.8069C128.061 49.9709 128.673 47.4719 128.673 45.9249C128.673 45.0919 128.231 44.6669 127.517 44.6669C126.259 44.6669 124.423 46.2309 123.029 47.7609C123.012 48.2369 122.995 48.6959 122.995 49.1379C122.995 50.5319 122.995 51.9599 123.097 53.5579C123.114 53.8639 123.165 54.4759 123.216 54.8669H120.87C120.904 54.4759 120.921 53.8809 120.921 53.6089C120.955 52.2829 120.972 51.2969 120.989 49.8689C120.275 50.9399 119.442 52.1809 118.847 52.9799L117.504 51.1269C118.473 49.9369 120.173 47.6929 121.142 46.2649C121.176 45.8739 121.21 45.4659 121.227 45.0579C120.394 45.1599 119.085 45.3299 118.133 45.4659L117.912 43.2899C118.405 43.3069 118.796 43.3069 119.391 43.2729C119.884 43.2389 120.632 43.1539 121.363 43.0519C121.397 42.4059 121.431 41.9299 121.431 41.7429Z" fill="#E5005A"/>
<path d="M105.278 40.3149C106.893 40.8249 110.599 41.4709 112.078 41.6409L111.568 43.7149C109.851 43.4939 106.06 42.6949 104.734 42.3549L105.278 40.3149ZM105.38 43.7319C105.159 44.6669 104.853 46.7409 104.734 47.7099C106.281 46.5879 107.964 46.0949 109.749 46.0949C112.724 46.0949 114.458 47.9309 114.458 49.9879C114.458 53.0819 112.01 55.4619 104.938 54.8669L104.292 52.6399C109.392 53.3369 112.095 52.0959 112.095 49.9369C112.095 48.8319 111.041 48.0159 109.562 48.0159C107.641 48.0159 105.907 48.7299 104.836 50.0219C104.53 50.3959 104.36 50.6679 104.207 51.0079L102.252 50.5149C102.592 48.8489 102.983 45.5169 103.102 43.4089L105.38 43.7319Z" fill="#E5005A"/>
<path d="M88.6104 40.2129C90.5144 40.5699 93.7784 40.9269 95.5464 41.0459L95.2744 43.0349C93.4894 42.8989 90.3104 42.5249 88.2874 42.1849L88.6104 40.2129ZM96.1414 45.6189C95.6994 45.9249 95.3424 46.2309 95.0364 46.4859C94.2544 47.1489 92.6734 48.6109 92.2654 49.0529C92.4184 49.0359 92.7244 49.1039 92.9114 49.1719C93.4044 49.3249 93.7104 49.6989 93.9314 50.3279C94.0844 50.7869 94.2714 51.4329 94.4244 51.8749C94.5774 52.4019 94.9514 52.6739 95.6144 52.6739C96.9234 52.6739 98.0964 52.5379 98.9464 52.3679L98.8104 54.5949C98.1134 54.7309 96.3624 54.8499 95.4784 54.8499C93.8634 54.8499 92.9964 54.4929 92.5714 53.3879C92.4014 52.8779 92.1974 52.0789 92.0784 51.6539C91.8914 51.0589 91.5174 50.8379 91.1774 50.8379C90.8204 50.8379 90.4634 51.1099 90.0554 51.5179C89.4774 52.1129 88.2024 53.5069 87.0294 55.0029L85.0234 53.5919C85.3294 53.3369 85.7374 52.9799 86.1964 52.5379C87.0634 51.6539 90.5484 48.1859 92.0954 46.5539C90.9054 46.5879 88.8654 46.7749 87.8964 46.8599C87.3014 46.9109 86.7914 46.9959 86.4344 47.0469L86.2304 44.7009C86.6214 44.7349 87.2334 44.7689 87.8624 44.7519C88.6614 44.7519 92.5204 44.5819 93.9314 44.3949C94.2544 44.3609 94.7134 44.2759 94.9004 44.2079L96.1414 45.6189Z" fill="#E5005A"/>
<path d="M71.8717 40.9439H74.2687V39.7029H76.1387V40.9439H78.6547V39.7029H80.5587V40.9439H82.8367V42.6779H80.5587V43.8169H78.6547V42.6779H76.1387V43.8169H74.2687V42.6779H71.8717V40.9439ZM79.1987 51.5349H80.8137V50.5999H79.1987V51.5349ZM76.0707 51.5349H77.6007V50.5999H76.0707V51.5349ZM77.6007 48.3219H76.0707V49.2909H77.6007V48.3219ZM80.8137 48.3219H79.1987V49.2909H80.8137V48.3219ZM82.5307 46.8599V53.7619C82.5307 54.5269 82.4287 54.9349 81.9527 55.2069C81.4937 55.4619 80.8817 55.4959 79.9977 55.4789C79.9637 55.0199 79.7597 54.3909 79.5557 53.9489C80.0317 53.9659 80.4567 53.9659 80.6267 53.9489C80.7797 53.9489 80.8137 53.9149 80.8137 53.7449V52.8609H79.1987V55.4109H77.6007V52.8609H76.0707V55.4449H74.3877V46.8599H82.5307ZM82.9217 44.2759V46.0099H73.7927V48.0159C73.7927 50.2259 73.5377 53.4729 72.0927 55.5299C71.8037 55.1899 71.0557 54.5439 70.6647 54.3059V55.4619H68.7437V46.9619C68.4037 47.4719 68.0467 47.9479 67.6897 48.3559C67.5367 47.8799 67.0437 46.7069 66.7207 46.1799C68.0807 44.5989 69.3387 42.1169 70.0867 39.6179L71.9567 40.1789C71.5997 41.2669 71.1577 42.3889 70.6647 43.4769V54.2379C71.8547 52.4189 71.9567 49.8519 71.9567 47.9819V44.2759H82.9217Z" fill="#E5005A"/>
<path d="M50.4492 42.3379C51.1292 42.3209 51.7922 42.2869 52.1152 42.2529C53.5432 42.1339 56.3482 41.8789 59.4592 41.6239C61.2102 41.4709 63.0632 41.3689 64.2702 41.3179L64.2872 43.4939C63.3692 43.5109 61.9072 43.5109 61.0062 43.7319C58.9492 44.2759 57.4022 46.4689 57.4022 48.4919C57.4022 51.2969 60.0202 52.2999 62.9102 52.4529L62.1112 54.7819C58.5412 54.5439 55.1752 52.6399 55.1752 48.9509C55.1752 46.5029 56.5522 44.5649 57.7082 43.6979C56.1102 43.8679 52.6422 44.2419 50.6702 44.6669L50.4492 42.3379ZM61.8562 45.1599C62.2812 45.7719 62.8932 46.8089 63.2162 47.4719L61.9242 48.0499C61.4992 47.1149 61.1422 46.4519 60.5982 45.6869L61.8562 45.1599ZM63.7602 44.3779C64.1852 44.9729 64.8312 45.9759 65.1882 46.6389L63.9132 47.2509C63.4542 46.3329 63.0632 45.7039 62.5192 44.9559L63.7602 44.3779Z" fill="#E5005A"/>
<path d="M40.6383 49.2739H42.3043C42.3213 49.1209 42.3213 48.9679 42.3213 48.8149V47.7439H40.6383V49.2739ZM45.9253 47.7439H44.1403V48.8659C44.1403 49.0019 44.1403 49.1379 44.1403 49.2739H45.9253V47.7439ZM41.2163 43.5109H45.3303C44.4973 42.8309 43.7323 42.0659 43.2053 41.3349C42.7293 42.0489 42.0323 42.8139 41.2163 43.5109ZM47.7443 50.8209H44.7013C45.7043 52.6909 46.9793 53.3369 48.6623 53.8639C48.2033 54.2889 47.7273 54.9519 47.5063 55.5469C45.8063 54.9009 44.4633 54.0339 43.4263 52.1809C42.6953 53.5409 41.3183 54.7649 38.7683 55.5639C38.5813 55.1559 38.0203 54.3909 37.6973 54.0679C40.4343 53.2349 41.5733 52.0789 42.0323 50.8209H38.8873V46.2139H42.3213V45.1769H40.1623V44.3099C39.6693 44.6499 39.1593 44.9559 38.6493 45.2109C38.4623 44.7689 38.1223 44.1569 37.8163 43.7149C37.5783 44.4119 37.3403 45.1089 37.1193 45.6869C38.2073 46.9789 38.4283 48.1009 38.4283 49.0869C38.4283 50.1579 38.2073 50.8719 37.6463 51.2629C37.3743 51.4499 37.0343 51.5519 36.6603 51.6029C36.3373 51.6539 35.9293 51.6709 35.5043 51.6539C35.5043 51.1609 35.3513 50.3789 35.0623 49.8859C35.3853 49.9199 35.6403 49.9199 35.8443 49.9029C36.0313 49.9029 36.2183 49.8689 36.3373 49.7839C36.5413 49.6309 36.6263 49.3079 36.6263 48.8149C36.6263 48.0499 36.3713 47.0299 35.3853 45.9079C35.7423 44.8199 36.1163 43.3069 36.4053 42.1339H35.0283V55.4789H33.2773V40.3319H37.0343L37.3233 40.2469L38.6663 41.0289C38.4453 41.7769 38.1733 42.6269 37.9013 43.4599C39.7033 42.6269 41.4033 41.0119 42.2363 39.6179H44.0723C45.2453 41.2329 47.0133 42.6439 48.7813 43.2899C48.4073 43.7659 48.0163 44.5139 47.7443 45.0579C47.3193 44.8539 46.8603 44.5819 46.4183 44.2929V45.1769H44.1403V46.2139H47.7443V50.8209Z" fill="#E5005A"/>
<path d="M18.3518 39.635L20.2218 40.247C19.7798 41.352 19.2528 42.508 18.6408 43.596V55.445H16.7198V46.554C16.2948 47.098 15.8698 47.608 15.4278 48.067C15.2408 47.574 14.6798 46.486 14.3398 45.993C15.9208 44.463 17.4678 42.049 18.3518 39.635ZM22.4828 42.117V44.395H27.4638V42.117H22.4828ZM30.3198 49.546H26.9198C27.9228 51.025 29.3848 52.419 30.8128 53.252C30.3538 53.643 29.7078 54.357 29.3848 54.867C28.1438 53.983 26.9028 52.606 25.9338 51.093V55.479H23.8938V51.178C22.8568 52.674 21.5648 53.966 20.2218 54.833C19.9158 54.34 19.2868 53.609 18.8278 53.218C20.3578 52.419 21.8708 51.042 22.9248 49.546H19.4398V47.71H23.8938V46.18H20.5618V40.332H29.4868V46.18H25.9338V47.71H30.3198V49.546Z" fill="#E5005A"/>
</svg>
