<svg width="370" height="180" viewBox="0 0 370 180" fill="none" xmlns="http://www.w3.org/2000/svg">
<rect width="370" height="180" fill="white"/>
<mask id="mask0_1523_25603" style="mask-type:alpha" maskUnits="userSpaceOnUse" x="0" y="0" width="370" height="180">
<rect x="2" y="2" width="366" height="176" rx="8" fill="white" stroke="#FAF1F5" stroke-width="4"/>
</mask>
<g mask="url(#mask0_1523_25603)">
<path fill-rule="evenodd" clip-rule="evenodd" d="M332.443 -5.01438C332.443 13.2031 318.026 49.7653 300.242 49.7653C282.458 49.7653 268.041 13.2031 268.041 -5.01438C268.041 -23.2318 282.458 -38 300.242 -38C318.026 -38 332.443 -23.2318 332.443 -5.01438ZM366.785 110.986C356.618 96.0394 324.383 74.4858 309.792 84.9014C295.201 95.3169 303.78 133.758 313.947 148.704C324.115 163.65 344.186 167.323 358.777 156.907C373.368 146.492 376.953 125.932 366.785 110.986ZM316.05 63.6223C320.543 81.2488 358.72 86.3009 375.927 81.6985C393.134 77.096 403.441 59.0759 398.948 41.4494C394.456 23.8229 376.864 13.2648 359.657 17.8672C342.45 22.4697 311.557 45.9958 316.05 63.6223ZM221.419 77.0826C238.361 82.6216 276.747 79.6693 282.155 62.3144C287.562 44.9594 257.943 19.7736 241 14.2346C224.058 8.69563 205.94 18.2744 200.533 35.6293C195.126 52.9843 204.477 71.5436 221.419 77.0826ZM283.328 82.6362C298.707 91.7839 293.252 130.818 284.322 146.572C275.392 162.327 255.685 167.682 240.306 158.534C224.926 149.387 219.698 129.2 228.628 113.445C237.558 97.6913 267.948 73.4884 283.328 82.6362Z" fill="#FAF1F5"/>
</g>
<path d="M32.144 59.72L34.784 60.584C34.16 62.144 33.416 63.776 32.552 65.312V82.04H29.84V69.488C29.24 70.256 28.64 70.976 28.016 71.624C27.752 70.928 26.96 69.392 26.48 68.696C28.712 66.536 30.896 63.128 32.144 59.72ZM37.976 63.224V66.44H45.008V63.224H37.976ZM49.04 73.712H44.24C45.656 75.8 47.72 77.768 49.736 78.944C49.088 79.496 48.176 80.504 47.72 81.224C45.968 79.976 44.216 78.032 42.848 75.896V82.088H39.968V76.016C38.504 78.128 36.68 79.952 34.784 81.176C34.352 80.48 33.464 79.448 32.816 78.896C34.976 77.768 37.112 75.824 38.6 73.712H33.68V71.12H39.968V68.96H35.264V60.704H47.864V68.96H42.848V71.12H49.04V73.712ZM63.608 73.328H65.96C65.984 73.112 65.984 72.896 65.984 72.68V71.168H63.608V73.328ZM71.072 71.168H68.552V72.752C68.552 72.944 68.552 73.136 68.552 73.328H71.072V71.168ZM64.424 65.192H70.232C69.056 64.232 67.976 63.152 67.232 62.12C66.56 63.128 65.576 64.208 64.424 65.192ZM73.64 75.512H69.344C70.76 78.152 72.56 79.064 74.936 79.808C74.288 80.408 73.616 81.344 73.304 82.184C70.904 81.272 69.008 80.048 67.544 77.432C66.512 79.352 64.568 81.08 60.968 82.208C60.704 81.632 59.912 80.552 59.456 80.096C63.32 78.92 64.928 77.288 65.576 75.512H61.136V69.008H65.984V67.544H62.936V66.32C62.24 66.8 61.52 67.232 60.8 67.592C60.536 66.968 60.056 66.104 59.624 65.48C59.288 66.464 58.952 67.448 58.64 68.264C60.176 70.088 60.488 71.672 60.488 73.064C60.488 74.576 60.176 75.584 59.384 76.136C59 76.4 58.52 76.544 57.992 76.616C57.536 76.688 56.96 76.712 56.36 76.688C56.36 75.992 56.144 74.888 55.736 74.192C56.192 74.24 56.552 74.24 56.84 74.216C57.104 74.216 57.368 74.168 57.536 74.048C57.824 73.832 57.944 73.376 57.944 72.68C57.944 71.6 57.584 70.16 56.192 68.576C56.696 67.04 57.224 64.904 57.632 63.248H55.688V82.088H53.216V60.704H58.52L58.928 60.584L60.824 61.688C60.512 62.744 60.128 63.944 59.744 65.12C62.288 63.944 64.688 61.664 65.864 59.696H68.456C70.112 61.976 72.608 63.968 75.104 64.88C74.576 65.552 74.024 66.608 73.64 67.376C73.04 67.088 72.392 66.704 71.768 66.296V67.544H68.552V69.008H73.64V75.512ZM77.4579 63.536C78.4179 63.512 79.3539 63.464 79.8099 63.416C81.8259 63.248 85.7859 62.888 90.1779 62.528C92.6499 62.312 95.2659 62.168 96.9699 62.096L96.9939 65.168C95.6979 65.192 93.6339 65.192 92.3619 65.504C89.4579 66.272 87.2739 69.368 87.2739 72.224C87.2739 76.184 90.9699 77.6 95.0499 77.816L93.9219 81.104C88.8819 80.768 84.1299 78.08 84.1299 72.872C84.1299 69.416 86.0739 66.68 87.7059 65.456C85.4499 65.696 80.5539 66.224 77.7699 66.824L77.4579 63.536ZM93.5619 67.52C94.1619 68.384 95.0259 69.848 95.4819 70.784L93.6579 71.6C93.0579 70.28 92.5539 69.344 91.7859 68.264L93.5619 67.52ZM96.2499 66.416C96.8499 67.256 97.7619 68.672 98.2659 69.608L96.4659 70.472C95.8179 69.176 95.2659 68.288 94.4979 67.232L96.2499 66.416ZM107.701 61.568H111.085V59.816H113.725V61.568H117.277V59.816H119.965V61.568H123.181V64.016H119.965V65.624H117.277V64.016H113.725V65.624H111.085V64.016H107.701V61.568ZM118.045 76.52H120.325V75.2H118.045V76.52ZM113.629 76.52H115.789V75.2H113.629V76.52ZM115.789 71.984H113.629V73.352H115.789V71.984ZM120.325 71.984H118.045V73.352H120.325V71.984ZM122.749 69.92V79.664C122.749 80.744 122.605 81.32 121.933 81.704C121.285 82.064 120.421 82.112 119.173 82.088C119.125 81.44 118.837 80.552 118.549 79.928C119.221 79.952 119.821 79.952 120.061 79.928C120.277 79.928 120.325 79.88 120.325 79.64V78.392H118.045V81.992H115.789V78.392H113.629V82.04H111.253V69.92H122.749ZM123.301 66.272V68.72H110.413V71.552C110.413 74.672 110.053 79.256 108.013 82.16C107.605 81.68 106.549 80.768 105.997 80.432V82.064H103.285V70.064C102.805 70.784 102.301 71.456 101.797 72.032C101.581 71.36 100.885 69.704 100.429 68.96C102.349 66.728 104.125 63.224 105.181 59.696L107.821 60.488C107.317 62.024 106.693 63.608 105.997 65.144V80.336C107.677 77.768 107.821 74.144 107.821 71.504V66.272H123.301ZM131.334 60.536C134.022 61.04 138.63 61.544 141.126 61.712L140.742 64.52C138.222 64.328 133.734 63.8 130.878 63.32L131.334 60.536ZM141.966 68.168C141.342 68.6 140.838 69.032 140.406 69.392C139.302 70.328 137.07 72.392 136.494 73.016C136.71 72.992 137.142 73.088 137.406 73.184C138.102 73.4 138.534 73.928 138.846 74.816C139.062 75.464 139.326 76.376 139.542 77C139.758 77.744 140.286 78.128 141.222 78.128C143.07 78.128 144.726 77.936 145.926 77.696L145.734 80.84C144.75 81.032 142.278 81.2 141.03 81.2C138.75 81.2 137.526 80.696 136.926 79.136C136.686 78.416 136.398 77.288 136.23 76.688C135.966 75.848 135.438 75.536 134.958 75.536C134.454 75.536 133.95 75.92 133.374 76.496C132.558 77.336 130.758 79.304 129.102 81.416L126.27 79.424C126.702 79.064 127.278 78.56 127.926 77.936C129.15 76.688 134.07 71.792 136.254 69.488C134.574 69.536 131.694 69.8 130.326 69.92C129.486 69.992 128.766 70.112 128.262 70.184L127.974 66.872C128.526 66.92 129.39 66.968 130.278 66.944C131.406 66.944 136.854 66.704 138.846 66.44C139.302 66.392 139.95 66.272 140.214 66.176L141.966 68.168ZM154.864 60.68C157.144 61.4 162.376 62.312 164.464 62.552L163.744 65.48C161.32 65.168 155.968 64.04 154.096 63.56L154.864 60.68ZM155.008 65.504C154.696 66.824 154.264 69.752 154.096 71.12C156.28 69.536 158.656 68.84 161.176 68.84C165.376 68.84 167.824 71.432 167.824 74.336C167.824 78.704 164.368 82.064 154.384 81.224L153.472 78.08C160.672 79.064 164.488 77.312 164.488 74.264C164.488 72.704 163 71.552 160.912 71.552C158.2 71.552 155.752 72.56 154.24 74.384C153.808 74.912 153.568 75.296 153.352 75.776L150.592 75.08C151.072 72.728 151.624 68.024 151.792 65.048L155.008 65.504ZM177.668 62.696C177.668 62 177.692 61.28 177.572 60.536L181.076 60.656C180.932 61.328 180.716 62.552 180.548 64.04L181.436 65.192C181.1 65.624 180.62 66.416 180.212 67.04C180.188 67.208 180.188 67.376 180.164 67.568C182.06 65.912 184.82 63.968 187.148 63.968C189.74 63.968 190.916 65.504 190.916 67.52C190.916 70.016 190.124 73.544 190.124 76.016C190.124 76.64 190.436 77.096 191.036 77.096C191.924 77.096 193.052 76.472 194.156 75.368L194.54 78.752C193.436 79.784 191.972 80.528 190.028 80.528C188.228 80.528 187.028 79.232 187.028 76.904C187.028 74.312 187.892 70.784 187.892 68.6C187.892 67.424 187.268 66.824 186.26 66.824C184.484 66.824 181.892 69.032 179.924 71.192C179.9 71.864 179.876 72.512 179.876 73.136C179.876 75.104 179.876 77.12 180.02 79.376C180.044 79.808 180.116 80.672 180.188 81.224H176.876C176.924 80.672 176.948 79.832 176.948 79.448C176.996 77.576 177.02 76.184 177.044 74.168C176.036 75.68 174.86 77.432 174.02 78.56L172.124 75.944C173.492 74.264 175.892 71.096 177.26 69.08C177.308 68.528 177.356 67.952 177.38 67.376C176.204 67.52 174.356 67.76 173.012 67.952L172.7 64.88C173.396 64.904 173.948 64.904 174.788 64.856C175.484 64.808 176.54 64.688 177.572 64.544C177.62 63.632 177.668 62.96 177.668 62.696ZM205.026 77.168C205.026 78.056 206.01 78.656 207.45 78.656C207.954 78.656 208.41 78.632 208.842 78.584C208.698 77.024 207.81 76.016 206.514 76.016C205.602 76.016 205.026 76.568 205.026 77.168ZM200.946 61.712C201.618 61.808 202.458 61.832 203.13 61.832C204.402 61.832 209.538 61.736 210.906 61.616C211.89 61.52 212.442 61.448 212.73 61.352L214.29 63.488C213.738 63.848 213.162 64.184 212.61 64.592C211.314 65.504 208.794 67.616 207.282 68.816C208.074 68.624 208.794 68.552 209.562 68.552C213.642 68.552 216.738 71.096 216.738 74.6C216.738 78.392 213.858 81.392 208.05 81.392C204.714 81.392 202.194 79.856 202.194 77.456C202.194 75.512 203.946 73.712 206.49 73.712C209.466 73.712 211.266 75.536 211.602 77.816C212.922 77.12 213.594 76.016 213.594 74.552C213.594 72.392 211.434 70.928 208.602 70.928C204.93 70.928 202.53 72.872 199.962 75.8L197.778 73.544C199.482 72.176 202.386 69.728 203.802 68.552C205.146 67.448 207.642 65.432 208.818 64.4C207.594 64.424 204.282 64.568 203.01 64.64C202.362 64.688 201.594 64.76 201.042 64.832L200.946 61.712ZM43.8658 101.376C43.8178 102.048 43.7698 102.816 43.7698 103.776V108.528C43.7698 113.688 42.7618 115.92 40.9858 117.888C39.4018 119.616 36.9058 120.792 35.1538 121.344L32.6578 118.704C35.0338 118.152 36.9778 117.24 38.4178 115.68C40.0738 113.88 40.3858 112.08 40.3858 108.336V103.776C40.3858 102.816 40.3378 102.048 40.2418 101.376H43.8658ZM32.7298 101.568C32.6818 102.12 32.6578 102.648 32.6578 103.416V111.528C32.6578 112.128 32.6818 113.064 32.7298 113.616H29.2498C29.2738 113.16 29.3698 112.224 29.3698 111.504V103.416C29.3698 102.96 29.3458 102.12 29.2738 101.568H32.7298ZM67.0732 103.728C66.8812 103.992 66.4492 104.736 66.2332 105.216C65.4172 107.088 64.0732 109.656 62.4652 111.816C64.8412 113.88 67.7452 116.952 69.1612 118.68L66.4252 121.056C64.8652 118.896 62.6332 116.448 60.3772 114.264C57.8332 116.952 54.6412 119.448 51.3532 121.008L48.8812 118.416C52.7452 116.976 56.4652 114.048 58.7212 111.528C60.3052 109.728 61.7692 107.352 62.2972 105.648H54.1612C53.1532 105.648 51.8332 105.792 51.3292 105.816V102.408C51.9772 102.504 53.4412 102.576 54.1612 102.576H62.6332C63.6652 102.576 64.6252 102.432 65.1052 102.264L67.0732 103.728ZM85.1711 101.28C84.6191 102.12 83.9951 103.2 83.7071 103.728C83.6831 103.776 83.6591 103.8 83.6351 103.848H88.4591C89.2031 103.848 89.9951 103.728 90.5471 103.56L92.9951 105.072C92.7311 105.528 92.3951 106.2 92.2031 106.8C91.5551 108.936 90.1871 112.128 88.0271 114.816C85.7471 117.6 82.8431 119.808 78.3311 121.584L75.4991 119.04C80.4191 117.576 83.0831 115.488 85.1711 113.112C86.8031 111.24 88.1951 108.36 88.5791 106.56H81.8351C80.2271 108.648 78.1391 110.76 75.7871 112.368L73.0991 110.376C77.2991 107.808 79.3871 104.712 80.5871 102.648C80.9471 102.048 81.4511 100.944 81.6671 100.128L85.1711 101.28ZM101.592 100.872C102.504 103.368 103.632 105.672 104.592 107.52C106.56 106.368 108.648 105.336 109.776 104.688C110.688 104.16 111.384 103.752 112.008 103.224L113.664 106.008C112.944 106.44 112.176 106.848 111.288 107.304C109.8 108.048 106.776 109.44 104.592 110.856C102.6 112.176 101.256 113.544 101.256 115.224C101.256 116.952 102.912 117.864 106.248 117.864C108.72 117.864 111.96 117.504 114.096 116.976L114.048 120.432C112.008 120.792 109.464 121.032 106.344 121.032C101.568 121.032 97.9436 119.712 97.9436 115.584C97.9436 112.944 99.6236 110.952 101.928 109.248C100.824 107.208 99.6716 104.64 98.5916 102.096L101.592 100.872ZM118.237 113.712L120.589 114.12C120.349 116.376 119.845 118.776 119.149 120.312C118.645 120 117.589 119.496 116.965 119.28C117.661 117.864 118.045 115.728 118.237 113.712ZM123.445 114.144L125.461 113.52C126.061 114.888 126.685 116.64 126.949 117.84L124.837 118.608C124.621 117.408 123.997 115.56 123.445 114.144ZM127.357 118.488L129.013 116.472C132.109 117.312 135.829 118.872 138.037 120.072L136.381 122.304C134.293 120.984 130.477 119.376 127.357 118.488ZM129.949 114.216L131.557 112.416C133.285 113.088 135.349 114.168 136.525 115.032L134.869 117.024C133.741 116.112 131.653 114.888 129.949 114.216ZM134.965 104.4H130.789C131.365 105.336 132.061 106.248 132.877 107.112C133.693 106.272 134.389 105.36 134.965 104.4ZM136.909 101.856L138.685 102.84C137.773 105.144 136.429 107.136 134.821 108.84C136.405 110.064 138.229 111.048 140.149 111.672C139.549 112.248 138.733 113.304 138.349 114C136.357 113.208 134.533 112.056 132.901 110.616C131.221 112.008 129.373 113.088 127.501 113.88C127.333 113.52 127.021 113.04 126.661 112.584L124.909 113.376C124.837 113.04 124.741 112.632 124.621 112.2L123.397 112.296V122.112H120.925V112.464L117.445 112.68L117.205 110.208L118.933 110.136C119.293 109.68 119.677 109.152 120.061 108.6C119.365 107.568 118.213 106.296 117.229 105.336L118.597 103.392C118.765 103.536 118.957 103.704 119.149 103.872C119.821 102.552 120.493 100.968 120.901 99.696L123.373 100.608C122.509 102.24 121.549 104.088 120.685 105.432C120.997 105.768 121.261 106.104 121.501 106.392C122.317 105.048 123.085 103.68 123.637 102.504L125.965 103.584C124.645 105.672 122.989 108.096 121.477 110.04L123.781 109.944C123.517 109.344 123.229 108.744 122.941 108.216L124.837 107.424C125.509 108.624 126.181 110.064 126.589 111.288C128.173 110.64 129.685 109.776 131.029 108.744C130.357 108 129.757 107.184 129.205 106.344C128.557 107.064 127.861 107.76 127.069 108.408C126.637 107.808 125.725 106.92 125.101 106.56C127.717 104.568 129.421 101.928 130.309 99.672L133.093 100.128C132.829 100.728 132.541 101.352 132.205 101.952H136.477L136.909 101.856ZM149.629 111.36V112.944C151.981 112.824 154.525 112.68 157.069 112.536C157.381 112.296 157.669 112.032 157.957 111.792V111.36H149.629ZM157.957 104.4H149.629V105.792H157.957V104.4ZM157.957 109.272V107.832H149.629V109.272H157.957ZM162.133 106.848L164.893 108.192C163.741 109.968 162.397 111.552 160.909 113.016V118.608C160.909 120.24 160.597 121.104 159.541 121.56C158.485 122.04 156.949 122.112 154.645 122.088C154.525 121.248 154.045 119.904 153.637 119.088C155.125 119.184 156.829 119.16 157.309 119.136C157.789 119.136 157.957 118.992 157.957 118.584V115.512C154.141 118.368 149.653 120.456 144.829 121.896C144.421 121.2 143.461 119.928 142.909 119.28C146.557 118.368 149.965 117.048 152.965 115.344C149.509 115.632 146.221 115.896 143.629 116.064L143.245 113.232C144.277 113.184 145.453 113.136 146.773 113.088V101.952H151.741C152.053 101.136 152.341 100.296 152.509 99.624L156.013 99.96C155.677 100.656 155.293 101.328 154.933 101.952H160.909V108.6C161.341 108.048 161.749 107.448 162.133 106.848ZM173.557 99.72L176.197 100.584C175.573 102.144 174.829 103.776 173.965 105.312V122.04H171.253V109.488C170.653 110.256 170.053 110.976 169.429 111.624C169.165 110.928 168.373 109.392 167.893 108.696C170.125 106.536 172.309 103.128 173.557 99.72ZM179.389 103.224V106.44H186.421V103.224H179.389ZM190.453 113.712H185.653C187.069 115.8 189.133 117.768 191.149 118.944C190.501 119.496 189.589 120.504 189.133 121.224C187.381 119.976 185.629 118.032 184.261 115.896V122.088H181.381V116.016C179.917 118.128 178.093 119.952 176.197 121.176C175.765 120.48 174.877 119.448 174.229 118.896C176.389 117.768 178.525 115.824 180.013 113.712H175.093V111.12H181.381V108.96H176.677V100.704H189.277V108.96H184.261V111.12H190.453V113.712ZM205.021 113.328H207.373C207.397 113.112 207.397 112.896 207.397 112.68V111.168H205.021V113.328ZM212.485 111.168H209.965V112.752C209.965 112.944 209.965 113.136 209.965 113.328H212.485V111.168ZM205.837 105.192H211.645C210.469 104.232 209.389 103.152 208.645 102.12C207.973 103.128 206.989 104.208 205.837 105.192ZM215.053 115.512H210.757C212.173 118.152 213.973 119.064 216.349 119.808C215.701 120.408 215.029 121.344 214.717 122.184C212.317 121.272 210.421 120.048 208.957 117.432C207.925 119.352 205.981 121.08 202.381 122.208C202.117 121.632 201.325 120.552 200.869 120.096C204.733 118.92 206.341 117.288 206.989 115.512H202.549V109.008H207.397V107.544H204.349V106.32C203.653 106.8 202.933 107.232 202.213 107.592C201.949 106.968 201.469 106.104 201.037 105.48C200.701 106.464 200.365 107.448 200.053 108.264C201.589 110.088 201.901 111.672 201.901 113.064C201.901 114.576 201.589 115.584 200.797 116.136C200.413 116.4 199.933 116.544 199.405 116.616C198.949 116.688 198.373 116.712 197.773 116.688C197.773 115.992 197.557 114.888 197.149 114.192C197.605 114.24 197.965 114.24 198.253 114.216C198.517 114.216 198.781 114.168 198.949 114.048C199.237 113.832 199.357 113.376 199.357 112.68C199.357 111.6 198.997 110.16 197.605 108.576C198.109 107.04 198.637 104.904 199.045 103.248H197.101V122.088H194.629V100.704H199.933L200.341 100.584L202.237 101.688C201.925 102.744 201.541 103.944 201.157 105.12C203.701 103.944 206.101 101.664 207.277 99.696H209.869C211.525 101.976 214.021 103.968 216.517 104.88C215.989 105.552 215.437 106.608 215.053 107.376C214.453 107.088 213.805 106.704 213.181 106.296V107.544H209.965V109.008H215.053V115.512Z" fill="#E5005A"/>
</svg>
