<svg width="370" height="180" viewBox="0 0 370 180" fill="none" xmlns="http://www.w3.org/2000/svg">
<rect width="370" height="180" fill="white"/>
<mask id="mask0_1523_25697" style="mask-type:alpha" maskUnits="userSpaceOnUse" x="0" y="0" width="370" height="180">
<rect x="2" y="2" width="366" height="176" rx="8" fill="white" stroke="#FAF1F5" stroke-width="4"/>
</mask>
<g mask="url(#mask0_1523_25697)">
<path fill-rule="evenodd" clip-rule="evenodd" d="M332.443 -5.01438C332.443 13.2031 318.026 49.7653 300.242 49.7653C282.458 49.7653 268.041 13.2031 268.041 -5.01438C268.041 -23.2318 282.458 -38 300.242 -38C318.026 -38 332.443 -23.2318 332.443 -5.01438ZM366.785 110.986C356.618 96.0394 324.383 74.4858 309.792 84.9014C295.201 95.3169 303.78 133.758 313.947 148.704C324.115 163.65 344.186 167.323 358.777 156.907C373.368 146.492 376.953 125.932 366.785 110.986ZM316.05 63.6223C320.543 81.2488 358.72 86.3009 375.927 81.6985C393.134 77.096 403.441 59.0759 398.948 41.4494C394.456 23.8229 376.864 13.2648 359.657 17.8672C342.45 22.4697 311.557 45.9958 316.05 63.6223ZM221.419 77.0826C238.361 82.6216 276.747 79.6693 282.155 62.3144C287.562 44.9594 257.943 19.7736 241 14.2346C224.058 8.69563 205.94 18.2744 200.533 35.6293C195.126 52.9843 204.477 71.5436 221.419 77.0826ZM283.328 82.6362C298.707 91.7839 293.252 130.818 284.322 146.572C275.392 162.327 255.685 167.682 240.306 158.534C224.926 149.387 219.698 129.2 228.628 113.445C237.558 97.6913 267.948 73.4884 283.328 82.6362Z" fill="#FAF1F5"/>
</g>
<path d="M37.201 66.786V69.04H38.604C39.478 68.327 40.283 67.568 41.042 66.786H37.201ZM47.919 71.593H39.731C38.466 72.628 37.132 73.548 35.775 74.445V75.595C38.558 74.882 41.364 73.962 43.181 73.088L45.458 75.089C42.652 76.193 39.064 77.159 35.775 77.895V79.16C35.775 80.057 36.051 80.195 37.73 80.195H42.721C44.147 80.195 44.4 79.781 44.561 77.366C45.205 77.78 46.378 78.217 47.137 78.355C46.746 81.759 45.918 82.656 42.928 82.656H37.523C33.935 82.656 32.946 81.874 32.946 79.183V76.101C31.451 76.906 29.91 77.619 28.369 78.263C27.978 77.619 27.035 76.492 26.46 75.917C29.565 74.836 32.509 73.364 35.2 71.593H27.081V69.04H34.349V66.786H29.151V64.279H34.349V61.496H37.201V64.279H42.123V65.613C43.02 64.601 43.848 63.52 44.584 62.416L47.137 63.635C45.803 65.567 44.285 67.384 42.606 69.04H47.919V71.593ZM60.178 79.528V70.052H62.294V82.702H60.178V81.598H53.922V82.978H51.898V70.052H53.922V79.528H60.178ZM56.245 79.183V76.676C55.831 77.527 55.302 78.286 54.75 78.792C54.612 78.309 54.29 77.55 54.037 77.113C54.612 76.676 55.21 75.894 55.647 75.089H54.313V73.502H56.245V70.282H57.855V73.502H59.764V75.089H58.131C58.729 75.664 59.741 76.653 60.04 76.975L59.051 78.125C58.821 77.734 58.315 77.09 57.855 76.492V79.183H56.245ZM56.107 72.858L54.819 73.272C54.727 72.697 54.451 71.754 54.129 71.064L55.348 70.696C55.693 71.363 55.992 72.283 56.107 72.858ZM58.752 70.765L60.086 71.156C59.695 71.961 59.327 72.697 59.005 73.249L57.878 72.927C58.2 72.306 58.568 71.386 58.752 70.765ZM64.801 68.649H69.7C68.642 67.292 67.768 65.705 67.216 64.371C66.687 65.682 65.836 67.269 64.801 68.649ZM64.341 70.972V69.201C63.858 69.776 63.352 70.305 62.823 70.719C62.685 70.351 62.478 69.891 62.248 69.454H51.162V67.154H52.45V62.738H54.75V67.154H56.222V61.542H58.752V63.29H62.087V65.452H58.752V67.154H62.662V67.315C64.088 65.705 65.284 63.382 65.882 61.542H68.343C69.401 64.026 71.103 66.786 72.92 68.005C72.437 68.695 71.931 69.753 71.586 70.604C71.103 70.213 70.62 69.753 70.183 69.224V70.972H64.341ZM71.793 72.605V78.286C71.793 79.367 71.655 80.034 70.965 80.471C70.275 80.885 69.447 80.931 68.297 80.931C68.205 80.195 67.86 79.16 67.561 78.493C68.182 78.516 68.849 78.516 69.056 78.516C69.263 78.516 69.332 78.424 69.332 78.24V74.974H67.262V83.024H64.732V74.974H63.03V72.605H71.793ZM87.617 76.469H91.297C90.676 75.871 90.124 75.227 89.641 74.56H83.155C82.695 75.227 82.12 75.871 81.522 76.469H84.834V75.043H87.617V76.469ZM82.695 71.294V72.329H89.894V71.294H82.695ZM89.894 65.475H82.695V66.487H89.894V65.475ZM82.695 68.373V69.385H89.894V68.373H82.695ZM96.955 74.56H92.746C93.965 75.664 95.575 76.653 97.231 77.228C96.633 77.734 95.805 78.677 95.414 79.344C94.172 78.769 92.93 77.941 91.803 76.929V78.631H87.617V80.126H95.138V82.38H77.612V80.126H84.834V78.631H80.763V77.205C79.636 78.171 78.394 78.976 77.106 79.551C76.715 78.907 75.933 77.964 75.358 77.458C77.037 76.837 78.739 75.779 80.004 74.56H75.588V72.329H79.958V65.475H76.784V63.267H79.958V61.542H82.695V63.267H89.894V61.542H92.7V63.267H95.851V65.475H92.7V72.329H96.955V74.56ZM116.528 71.294V68.741C115.953 69.615 115.286 70.397 114.596 70.949C114.389 70.466 113.929 69.661 113.538 69.224C114.55 68.511 115.562 67.2 116.206 65.82H114.573V63.773H116.528V61.542H118.759V63.773H121.289V65.82H119.173C119.771 67.2 120.691 68.557 121.68 69.316C121.243 69.661 120.622 70.374 120.277 70.857C119.725 70.328 119.196 69.569 118.759 68.718V71.294H116.528ZM110.341 71.294V68.695C109.766 69.615 109.122 70.443 108.478 71.064C108.271 70.535 107.742 69.661 107.351 69.224C108.271 68.488 109.214 67.154 109.835 65.82H108.225V63.773H110.341V61.542H112.549V63.773H114.205V65.82H112.549V66.073C112.986 66.349 114.274 67.338 114.596 67.66L113.377 69.178C113.193 68.902 112.894 68.488 112.549 68.074V71.294H110.341ZM105.35 77.734V72.03H103.717V77.734H105.35ZM107.627 80.08H103.717V81.782H101.486V76.285C101.325 76.561 101.164 76.814 100.98 77.067C100.727 76.446 100.037 75.112 99.554 74.491C101.049 72.191 101.831 68.741 102.291 65.061H100.198V62.577H108.11V65.061H104.798C104.591 66.648 104.315 68.189 103.97 69.684H107.627V80.08ZM115.884 78.056V80.356C116.298 80.402 116.735 80.425 117.195 80.425C117.885 80.425 120.737 80.402 121.657 80.402C121.335 80.931 121.036 82.035 120.921 82.679H117.034C114.274 82.679 112.227 82.127 110.824 79.85C110.272 81.092 109.444 82.173 108.202 83.024C107.903 82.449 107.236 81.621 106.661 81.23C108.938 79.735 109.352 77.205 109.513 74.583H111.928C111.859 75.434 111.79 76.262 111.652 77.067C112.066 78.24 112.641 79.022 113.354 79.528V73.962H108.133V71.754H119.265L119.656 71.639L121.404 72.191C121.013 73.433 120.484 74.859 120.047 75.802L118 75.112C118.115 74.79 118.253 74.399 118.391 73.962H115.884V75.894H119.679V78.056H115.884ZM130.88 75.48H134.859V71.984H130.88V75.48ZM145.554 75.48V78.102H137.688V83.024H134.859V78.102H124.509V75.48H128.143V69.431H134.859V66.694H129.937C128.994 68.327 127.89 69.799 126.809 70.88C126.28 70.42 125.107 69.5 124.44 69.109C126.51 67.361 128.281 64.417 129.27 61.45L132.053 62.163C131.846 62.807 131.593 63.428 131.294 64.049H144.289V66.694H137.688V69.431H143.76V71.984H137.688V75.48H145.554ZM157.836 75.388H154.501C155.375 76.561 156.272 78.125 156.617 79.183L154.731 79.988H157.836V75.388ZM155.237 68.373H163.54C161.838 66.993 160.32 65.498 159.308 64.118C158.319 65.498 156.893 66.993 155.237 68.373ZM163.908 75.388L166.53 76.354C165.656 77.619 164.759 79.022 163.954 79.988H169.152V82.334H149.694V79.988H154.179C153.834 78.953 153.075 77.412 152.27 76.285L154.363 75.388H150.844V73.042H157.836V70.765H153.604V69.638C152.523 70.42 151.35 71.156 150.177 71.777C149.832 71.133 149.073 70.144 148.475 69.569C152.385 67.66 156.065 64.21 157.767 61.45H160.596C163.08 64.923 166.783 67.821 170.417 69.293C169.727 69.983 169.106 70.903 168.6 71.754C167.45 71.156 166.254 70.397 165.104 69.569V70.765H160.711V73.042H167.795V75.388H160.711V79.988H163.218L161.723 79.367C162.482 78.286 163.402 76.607 163.908 75.388ZM178.03 70.121C179.203 70.121 180.169 71.087 180.169 72.26C180.169 73.456 179.203 74.422 178.03 74.422C176.834 74.422 175.868 73.456 175.868 72.26C175.868 71.087 176.834 70.121 178.03 70.121ZM198.615 79.275V77.78H194.636V79.275H198.615ZM205.975 72.651V80.103C205.975 81.368 205.722 82.104 204.825 82.518C203.974 82.932 202.755 82.955 201.099 82.955C201.03 82.426 200.823 81.713 200.57 81.115H194.636V82.15H192.244V75.963H201.03V80.425C201.812 80.448 202.525 80.448 202.778 80.425C203.123 80.402 203.215 80.333 203.215 80.057V74.928H190.197V83.001H187.529V72.651H205.975ZM200.156 69.845V68.442H192.98V69.845H200.156ZM190.381 66.625H202.939V71.685H190.381V66.625ZM197.902 63.428H206.711V65.751H186.609V63.428H195.119V61.496H197.902V63.428ZM219.338 79.528V70.052H221.454V82.702H219.338V81.598H213.082V82.978H211.058V70.052H213.082V79.528H219.338ZM215.405 79.183V76.676C214.991 77.527 214.462 78.286 213.91 78.792C213.772 78.309 213.45 77.55 213.197 77.113C213.772 76.676 214.37 75.894 214.807 75.089H213.473V73.502H215.405V70.282H217.015V73.502H218.924V75.089H217.291C217.889 75.664 218.901 76.653 219.2 76.975L218.211 78.125C217.981 77.734 217.475 77.09 217.015 76.492V79.183H215.405ZM215.267 72.858L213.979 73.272C213.887 72.697 213.611 71.754 213.289 71.064L214.508 70.696C214.853 71.363 215.152 72.283 215.267 72.858ZM217.912 70.765L219.246 71.156C218.855 71.961 218.487 72.697 218.165 73.249L217.038 72.927C217.36 72.306 217.728 71.386 217.912 70.765ZM223.961 68.649H228.86C227.802 67.292 226.928 65.705 226.376 64.371C225.847 65.682 224.996 67.269 223.961 68.649ZM223.501 70.972V69.201C223.018 69.776 222.512 70.305 221.983 70.719C221.845 70.351 221.638 69.891 221.408 69.454H210.322V67.154H211.61V62.738H213.91V67.154H215.382V61.542H217.912V63.29H221.247V65.452H217.912V67.154H221.822V67.315C223.248 65.705 224.444 63.382 225.042 61.542H227.503C228.561 64.026 230.263 66.786 232.08 68.005C231.597 68.695 231.091 69.753 230.746 70.604C230.263 70.213 229.78 69.753 229.343 69.224V70.972H223.501ZM230.953 72.605V78.286C230.953 79.367 230.815 80.034 230.125 80.471C229.435 80.885 228.607 80.931 227.457 80.931C227.365 80.195 227.02 79.16 226.721 78.493C227.342 78.516 228.009 78.516 228.216 78.516C228.423 78.516 228.492 78.424 228.492 78.24V74.974H226.422V83.024H223.892V74.974H222.19V72.605H230.953ZM239.256 64.9V69.454C239.256 73.387 238.934 79.252 236.864 83.001C236.335 82.564 235.139 81.897 234.472 81.644C236.404 78.171 236.542 73.065 236.542 69.454V62.416H255.724V64.9H239.256ZM243.419 69.868V70.811H251.101V69.868H243.419ZM243.419 67.384V68.327H251.101V67.384H243.419ZM253.769 72.467H240.82V65.728H253.769V72.467ZM255.931 76.975V79.091H248.709V80.54C248.709 81.759 248.41 82.334 247.421 82.679C246.432 83.001 245.098 83.024 243.281 83.001C243.12 82.311 242.706 81.414 242.361 80.793C243.58 80.862 245.098 80.862 245.489 80.839C245.88 80.816 245.995 80.724 245.995 80.425V79.091H239.072V76.975H245.995V75.848H247.904C248.364 75.641 248.847 75.388 249.284 75.135H240.659V73.295H251.998L252.573 73.157L254.137 74.606C252.895 75.434 251.377 76.285 249.859 76.975H255.931ZM271.272 79.666H280.196V82.357H259.519V79.666H268.397V75.043H262.164V72.398H268.397V68.35H263.636C262.969 69.615 262.256 70.788 261.497 71.685C260.945 71.248 259.726 70.42 259.036 70.052C260.83 68.12 262.325 64.946 263.107 61.818L265.936 62.439C265.614 63.543 265.246 64.624 264.855 65.682H268.397V61.542H271.272V65.682H279.023V68.35H271.272V72.398H278.149V75.043H271.272V79.666ZM290.04 75.48H294.019V71.984H290.04V75.48ZM304.714 75.48V78.102H296.848V83.024H294.019V78.102H283.669V75.48H287.303V69.431H294.019V66.694H289.097C288.154 68.327 287.05 69.799 285.969 70.88C285.44 70.42 284.267 69.5 283.6 69.109C285.67 67.361 287.441 64.417 288.43 61.45L291.213 62.163C291.006 62.807 290.753 63.428 290.454 64.049H303.449V66.694H296.848V69.431H302.92V71.984H296.848V75.48H304.714ZM316.996 75.388H313.661C314.535 76.561 315.432 78.125 315.777 79.183L313.891 79.988H316.996V75.388ZM314.397 68.373H322.7C320.998 66.993 319.48 65.498 318.468 64.118C317.479 65.498 316.053 66.993 314.397 68.373ZM323.068 75.388L325.69 76.354C324.816 77.619 323.919 79.022 323.114 79.988H328.312V82.334H308.854V79.988H313.339C312.994 78.953 312.235 77.412 311.43 76.285L313.523 75.388H310.004V73.042H316.996V70.765H312.764V69.638C311.683 70.42 310.51 71.156 309.337 71.777C308.992 71.133 308.233 70.144 307.635 69.569C311.545 67.66 315.225 64.21 316.927 61.45H319.756C322.24 64.923 325.943 67.821 329.577 69.293C328.887 69.983 328.266 70.903 327.76 71.754C326.61 71.156 325.414 70.397 324.264 69.569V70.765H319.871V73.042H326.955V75.388H319.871V79.988H322.378L320.883 79.367C321.642 78.286 322.562 76.607 323.068 75.388ZM35.752 103.245L38.029 102.716C36.097 102.9 34.096 103.038 32.141 103.13C32.67 103.981 33.199 105.016 33.429 105.752L32.233 106.097H36.626C36.488 105.292 36.143 104.142 35.752 103.245ZM30.048 108.466V111.088H27.495V106.097H30.784C30.554 105.384 30.117 104.464 29.703 103.728L31.75 103.153C30.6 103.222 29.427 103.268 28.323 103.291C28.277 102.601 27.955 101.566 27.702 100.968C33.751 100.761 40.674 100.209 44.86 99.404L46.7 101.612C44.216 102.072 41.249 102.44 38.19 102.716C38.65 103.636 39.087 104.855 39.225 105.683L37.523 106.097H41.525C42.077 105.039 42.675 103.682 43.02 102.647L45.941 103.337C45.412 104.303 44.814 105.246 44.285 106.097H47.551V111.088H44.883V108.466H30.048ZM40.651 112.744H34.027C34.97 113.779 36.143 114.653 37.523 115.412C38.742 114.676 39.823 113.802 40.651 112.744ZM42.928 110.122L44.768 111.249C43.733 113.503 42.215 115.251 40.352 116.608C42.56 117.39 45.136 117.919 47.965 118.172C47.39 118.793 46.654 119.989 46.286 120.725C42.951 120.311 39.984 119.529 37.5 118.31C34.855 119.575 31.796 120.334 28.553 120.771C28.277 120.127 27.518 118.908 26.943 118.356C29.818 118.057 32.486 117.528 34.763 116.677C33.36 115.688 32.141 114.469 31.129 113.066L31.888 112.744H30.807V110.237H42.422L42.928 110.122ZM52.013 112.974L54.267 113.365C54.037 115.527 53.554 117.827 52.887 119.299C52.404 119 51.392 118.517 50.794 118.31C51.461 116.953 51.829 114.906 52.013 112.974ZM57.004 113.388L58.936 112.79C59.511 114.101 60.109 115.78 60.362 116.93L58.338 117.666C58.131 116.516 57.533 114.745 57.004 113.388ZM56.521 107.707L58.338 106.948C59.212 108.512 60.109 110.513 60.362 111.824L58.43 112.698C58.361 112.353 58.269 111.962 58.131 111.525L56.958 111.617V121.024H54.589V111.778L51.254 111.985L51.024 109.616L52.68 109.547C53.025 109.11 53.393 108.604 53.761 108.075C53.094 107.086 51.99 105.867 51.047 104.947L52.358 103.084C52.519 103.222 52.703 103.383 52.887 103.544C53.531 102.279 54.175 100.761 54.566 99.542L56.935 100.416C56.107 101.98 55.187 103.751 54.359 105.039C54.658 105.361 54.911 105.683 55.141 105.959C55.923 104.671 56.659 103.36 57.188 102.233L59.419 103.268C58.154 105.269 56.567 107.592 55.118 109.455L57.326 109.363C57.073 108.788 56.797 108.213 56.521 107.707ZM68.504 113.779H63.444V117.367H68.504V113.779ZM60.914 120.978V111.364H71.126V120.886H68.504V119.759H63.444V120.978H60.914ZM62.547 106.856H69.125C67.814 105.453 66.572 103.889 65.744 102.601C64.962 103.889 63.858 105.453 62.547 106.856ZM64.364 99.841H66.963C68.504 102.256 70.827 104.993 73.058 106.396C72.483 107.086 71.839 108.098 71.379 108.949C70.827 108.512 70.252 108.006 69.7 107.454V109.34H62.133V107.293C61.489 107.96 60.822 108.558 60.132 109.087C59.787 108.374 59.097 107.293 58.568 106.695C60.891 105.016 63.237 102.003 64.364 99.841ZM93.574 107.753V106.35H89.02V107.753H93.574ZM93.574 111.042V109.639H89.02V111.042H93.574ZM93.574 114.4V112.974H89.02V114.4H93.574ZM86.559 104.303H89.457C89.549 103.797 89.641 103.245 89.733 102.739H85.869V100.416H96.61V102.739H92.631C92.447 103.291 92.263 103.82 92.079 104.303H96.15V116.424H86.559V104.303ZM78.026 103.544V105.131H75.818V101.428H79.498V99.565H82.051V101.428H85.8V105.131H83.523V103.544H78.026ZM82.166 117.551V115.435H79.383V117.551H82.166ZM79.429 113.319H83.316C82.741 112.859 82.051 112.353 81.361 111.824C80.74 112.376 80.096 112.882 79.429 113.319ZM82.189 107.201H79.958C79.797 107.408 79.636 107.592 79.475 107.799L81.062 108.834C81.499 108.328 81.867 107.776 82.189 107.201ZM84.489 114.285V119.046C86.007 118.425 87.617 117.367 88.445 116.516L90.653 117.896C89.457 119.069 87.433 120.288 85.754 120.955C85.455 120.587 84.949 120.081 84.489 119.644H79.383V120.564H77.083V114.607L76.6 114.814C76.301 114.216 75.703 113.296 75.22 112.859C76.738 112.33 78.187 111.502 79.452 110.444L77.934 109.386C77.612 109.662 77.29 109.938 76.945 110.168C76.577 109.731 75.726 108.903 75.22 108.581C77.014 107.454 78.601 105.706 79.429 103.774L81.66 104.326C81.499 104.694 81.338 105.039 81.131 105.384H83.27L83.684 105.269L85.225 105.982C84.696 107.546 83.914 108.926 82.948 110.122C84.19 110.95 85.317 111.778 86.076 112.422L84.535 114.331L84.489 114.285ZM91.665 117.873L93.643 116.631C94.862 117.482 96.541 118.747 97.369 119.621L95.253 121.024C94.517 120.15 92.907 118.793 91.665 117.873ZM105.143 106.787V108.443H115.976V106.787H105.143ZM105.143 102.877V104.556H115.976V102.877H105.143ZM121.197 113.48V116.079H111.974V120.978H109.145V116.079H100.175V113.48H109.145V110.858H102.452V100.462H118.805V110.858H111.974V113.48H121.197ZM130.213 109.915V111.341H139.827V109.915H130.213ZM130.213 106.258V107.684H139.827V106.258H130.213ZM130.213 102.624V104.05H139.827V102.624H130.213ZM139.873 118.218H142.265C143.047 118.218 143.185 117.827 143.3 115.159C143.875 115.596 145.094 116.056 145.807 116.24C145.508 119.874 144.795 120.817 142.518 120.817H139.482C136.745 120.817 136.101 119.989 136.101 117.413V113.733H133.318C132.835 117.39 131.478 119.805 125.797 121.093C125.544 120.357 124.808 119.23 124.279 118.655C128.994 117.781 129.983 116.24 130.374 113.733H127.568V100.232H142.61V113.733H138.861V117.39C138.861 118.126 138.999 118.218 139.873 118.218ZM167.22 110.651L169.497 112.353C168.048 113.388 166.346 114.446 164.92 115.205C166.277 116.723 168.071 117.85 170.348 118.494C169.75 119.069 168.968 120.173 168.577 120.932C163.724 119.276 161.194 115.78 159.676 110.674C158.802 111.502 157.767 112.284 156.663 112.997V117.275C158.296 116.93 160.021 116.562 161.677 116.194L161.93 118.678C158.319 119.529 154.455 120.334 151.603 120.955L150.798 118.425C151.695 118.264 152.776 118.057 153.926 117.827V114.538C152.661 115.159 151.373 115.665 150.108 116.056C149.717 115.435 148.935 114.4 148.36 113.848C151.097 113.135 154.041 111.824 156.203 110.329H149.211V108.006H157.974V106.718H151.143V104.533H157.974V103.36H150.062V101.037H157.974V99.519H160.711V101.037H168.807V103.36H160.711V104.533H167.91V106.718H160.711V108.006H169.543V110.329H162.229C162.597 111.456 163.034 112.468 163.609 113.411C164.897 112.56 166.277 111.525 167.22 110.651Z" fill="#E5005A"/>
</svg>
