<svg width="370" height="180" viewBox="0 0 370 180" fill="none" xmlns="http://www.w3.org/2000/svg">
<path d="M0 0H370V180H0V0Z" fill="white"/>
<mask id="mask0_1827_25394" style="mask-type:alpha" maskUnits="userSpaceOnUse" x="0" y="0" width="370" height="180">
<path d="M0 0H370V180H0V0Z" fill="white"/>
</mask>
<g mask="url(#mask0_1827_25394)">
<path fill-rule="evenodd" clip-rule="evenodd" d="M332.443 -5.01438C332.443 13.2031 318.026 49.7653 300.242 49.7653C282.458 49.7653 268.041 13.2031 268.041 -5.01438C268.041 -23.2318 282.458 -38 300.242 -38C318.026 -38 332.443 -23.2318 332.443 -5.01438ZM366.785 110.986C356.618 96.0394 324.383 74.4858 309.792 84.9014C295.201 95.3169 303.78 133.758 313.947 148.704C324.115 163.65 344.186 167.323 358.777 156.907C373.368 146.492 376.953 125.932 366.785 110.986ZM316.05 63.6223C320.543 81.2488 358.72 86.3009 375.927 81.6985C393.134 77.096 403.441 59.0759 398.948 41.4494C394.456 23.8229 376.864 13.2648 359.657 17.8672C342.45 22.4697 311.557 45.9958 316.05 63.6223ZM221.419 77.0826C238.361 82.6216 276.747 79.6693 282.155 62.3144C287.562 44.9594 257.943 19.7736 241 14.2346C224.058 8.69563 205.94 18.2744 200.533 35.6293C195.126 52.9843 204.477 71.5436 221.419 77.0826ZM283.328 82.6362C298.707 91.7839 293.252 130.818 284.322 146.572C275.392 162.327 255.685 167.682 240.306 158.534C224.926 149.387 219.698 129.2 228.628 113.445C237.558 97.6913 267.948 73.4884 283.328 82.6362Z" fill="#FAF1F5"/>
</g>
<path d="M166.76 109.38L169.037 111.082C167.588 112.117 165.886 113.175 164.46 113.934C165.817 115.452 167.611 116.579 169.888 117.223C169.29 117.798 168.508 118.902 168.117 119.661C163.264 118.005 160.734 114.509 159.216 109.403C158.342 110.231 157.307 111.013 156.203 111.726V116.004C157.836 115.659 159.561 115.291 161.217 114.923L161.47 117.407C157.859 118.258 153.995 119.063 151.143 119.684L150.338 117.154C151.235 116.993 152.316 116.786 153.466 116.556V113.267C152.201 113.888 150.913 114.394 149.648 114.785C149.257 114.164 148.475 113.129 147.9 112.577C150.637 111.864 153.581 110.553 155.743 109.058H148.751V106.735H157.514V105.447H150.683V103.262H157.514V102.089H149.602V99.7656H157.514V98.2476H160.251V99.7656H168.347V102.089H160.251V103.262H167.45V105.447H160.251V106.735H169.083V109.058H161.769C162.137 110.185 162.574 111.197 163.149 112.14C164.437 111.289 165.817 110.254 166.76 109.38Z" fill="#E5005A"/>
<path d="M129.753 108.644V110.07H139.367V108.644H129.753ZM129.753 104.987V106.413H139.367V104.987H129.753ZM129.753 101.353V102.779H139.367V101.353H129.753ZM139.413 116.947H141.805C142.587 116.947 142.725 116.556 142.84 113.888C143.415 114.325 144.634 114.785 145.347 114.969C145.048 118.603 144.335 119.546 142.058 119.546H139.022C136.285 119.546 135.641 118.718 135.641 116.142V112.462H132.858C132.375 116.119 131.018 118.534 125.337 119.822C125.084 119.086 124.348 117.959 123.819 117.384C128.534 116.51 129.523 114.969 129.914 112.462H127.108V98.9609H142.15V112.462H138.401V116.119C138.401 116.855 138.539 116.947 139.413 116.947Z" fill="#E5005A"/>
<path d="M104.683 105.516V107.172H115.516V105.516H104.683ZM104.683 101.606V103.285H115.516V101.606H104.683ZM120.737 112.209V114.808H111.514V119.707H108.685V114.808H99.7148V112.209H108.685V109.587H101.992V99.1909H118.345V109.587H111.514V112.209H120.737Z" fill="#E5005A"/>
<path d="M93.1138 106.482V105.079H88.5598V106.482H93.1138ZM93.1138 109.771V108.368H88.5598V109.771H93.1138ZM93.1138 113.129V111.703H88.5598V113.129H93.1138ZM86.0988 103.032H88.9968C89.0888 102.526 89.1808 101.974 89.2728 101.468H85.4088V99.1449H96.1498V101.468H92.1708C91.9868 102.02 91.8028 102.549 91.6188 103.032H95.6898V115.153H86.0988V103.032ZM77.5658 102.273V103.86H75.3578V100.157H79.0378V98.2939H81.5908V100.157H85.3398V103.86H83.0628V102.273H77.5658ZM81.7058 116.28V114.164H78.9228V116.28H81.7058ZM78.9688 112.048H82.8558C82.2808 111.588 81.5908 111.082 80.9008 110.553C80.2798 111.105 79.6358 111.611 78.9688 112.048ZM81.7288 105.93H79.4978C79.3368 106.137 79.1758 106.321 79.0148 106.528L80.6018 107.563C81.0388 107.057 81.4068 106.505 81.7288 105.93ZM84.0288 113.014V117.775C85.5468 117.154 87.1568 116.096 87.9848 115.245L90.1928 116.625C88.9968 117.798 86.9728 119.017 85.2938 119.684C84.9948 119.316 84.4888 118.81 84.0288 118.373H78.9228V119.293H76.6228V113.336L76.1398 113.543C75.8408 112.945 75.2428 112.025 74.7598 111.588C76.2778 111.059 77.7268 110.231 78.9918 109.173L77.4738 108.115C77.1518 108.391 76.8298 108.667 76.4848 108.897C76.1168 108.46 75.2658 107.632 74.7598 107.31C76.5538 106.183 78.1408 104.435 78.9688 102.503L81.1998 103.055C81.0388 103.423 80.8778 103.768 80.6708 104.113H82.8098L83.2238 103.998L84.7648 104.711C84.2358 106.275 83.4538 107.655 82.4878 108.851C83.7298 109.679 84.8568 110.507 85.6158 111.151L84.0748 113.06L84.0288 113.014ZM91.2048 116.602L93.1828 115.36C94.4018 116.211 96.0808 117.476 96.9088 118.35L94.7928 119.753C94.0568 118.879 92.4468 117.522 91.2048 116.602Z" fill="#E5005A"/>
<path d="M51.553 111.703L53.807 112.094C53.577 114.256 53.094 116.556 52.427 118.028C51.944 117.729 50.932 117.246 50.334 117.039C51.001 115.682 51.369 113.635 51.553 111.703ZM56.544 112.117L58.476 111.519C59.051 112.83 59.649 114.509 59.902 115.659L57.878 116.395C57.671 115.245 57.073 113.474 56.544 112.117ZM56.061 106.436L57.878 105.677C58.752 107.241 59.649 109.242 59.902 110.553L57.97 111.427C57.901 111.082 57.809 110.691 57.671 110.254L56.498 110.346V119.753H54.129V110.507L50.794 110.714L50.564 108.345L52.22 108.276C52.565 107.839 52.933 107.333 53.301 106.804C52.634 105.815 51.53 104.596 50.587 103.676L51.898 101.813C52.059 101.951 52.243 102.112 52.427 102.273C53.071 101.008 53.715 99.4895 54.106 98.2705L56.475 99.1445C55.647 100.709 54.727 102.48 53.899 103.768C54.198 104.09 54.451 104.412 54.681 104.688C55.463 103.4 56.199 102.089 56.728 100.962L58.959 101.997C57.694 103.998 56.107 106.321 54.658 108.184L56.866 108.092C56.613 107.517 56.337 106.942 56.061 106.436ZM68.044 112.508H62.984V116.096H68.044V112.508ZM60.454 119.707V110.093H70.666V119.615H68.044V118.488H62.984V119.707H60.454ZM62.087 105.585H68.665C67.354 104.182 66.112 102.618 65.284 101.33C64.502 102.618 63.398 104.182 62.087 105.585ZM63.904 98.5695H66.503C68.044 100.985 70.367 103.722 72.598 105.125C72.023 105.815 71.379 106.827 70.919 107.678C70.367 107.241 69.792 106.735 69.24 106.183V108.069H61.673V106.022C61.029 106.689 60.362 107.287 59.672 107.816C59.327 107.103 58.637 106.022 58.108 105.424C60.431 103.745 62.777 100.732 63.904 98.5695Z" fill="#E5005A"/>
<path d="M35.2924 101.974L37.5694 101.445C35.6374 101.629 33.6364 101.767 31.6814 101.859C32.2104 102.71 32.7394 103.745 32.9694 104.481L31.7734 104.826H36.1664C36.0284 104.021 35.6834 102.871 35.2924 101.974ZM29.5884 107.195V109.817H27.0354V104.826H30.3244C30.0944 104.113 29.6574 103.193 29.2434 102.457L31.2904 101.882C30.1404 101.951 28.9674 101.997 27.8634 102.02C27.8174 101.33 27.4954 100.295 27.2424 99.6968C33.2914 99.4898 40.2144 98.9378 44.4004 98.1328L46.2404 100.341C43.7564 100.801 40.7894 101.169 37.7304 101.445C38.1904 102.365 38.6274 103.584 38.7654 104.412L37.0634 104.826H41.0654C41.6174 103.768 42.2154 102.411 42.5604 101.376L45.4814 102.066C44.9524 103.032 44.3544 103.975 43.8254 104.826H47.0914V109.817H44.4234V107.195H29.5884ZM40.1914 111.473H33.5674C34.5104 112.508 35.6834 113.382 37.0634 114.141C38.2824 113.405 39.3634 112.531 40.1914 111.473ZM42.4684 108.851L44.3084 109.978C43.2734 112.232 41.7554 113.98 39.8924 115.337C42.1004 116.119 44.6764 116.648 47.5054 116.901C46.9304 117.522 46.1944 118.718 45.8264 119.454C42.4914 119.04 39.5244 118.258 37.0404 117.039C34.3954 118.304 31.3364 119.063 28.0934 119.5C27.8174 118.856 27.0584 117.637 26.4834 117.085C29.3584 116.786 32.0264 116.257 34.3034 115.406C32.9004 114.417 31.6814 113.198 30.6694 111.795L31.4284 111.473H30.3474V108.966H41.9624L42.4684 108.851Z" fill="#E5005A"/>
<path d="M316.536 74.1167H313.201C314.075 75.2897 314.972 76.8537 315.317 77.9117L313.431 78.7167H316.536V74.1167ZM313.937 67.1017H322.24C320.538 65.7217 319.02 64.2267 318.008 62.8467C317.019 64.2267 315.593 65.7217 313.937 67.1017ZM322.608 74.1167L325.23 75.0827C324.356 76.3477 323.459 77.7507 322.654 78.7167H327.852V81.0627H308.394V78.7167H312.879C312.534 77.6817 311.775 76.1407 310.97 75.0137L313.063 74.1167H309.544V71.7707H316.536V69.4937H312.304V68.3667C311.223 69.1487 310.05 69.8847 308.877 70.5057C308.532 69.8617 307.773 68.8727 307.175 68.2977C311.085 66.3887 314.765 62.9387 316.467 60.1787H319.296C321.78 63.6517 325.483 66.5497 329.117 68.0217C328.427 68.7117 327.806 69.6317 327.3 70.4827C326.15 69.8847 324.954 69.1257 323.804 68.2977V69.4937H319.411V71.7707H326.495V74.1167H319.411V78.7167H321.918L320.423 78.0957C321.182 77.0147 322.102 75.3357 322.608 74.1167Z" fill="#E5005A"/>
<path d="M289.58 74.2087H293.559V70.7127H289.58V74.2087ZM304.254 74.2087V76.8307H296.388V81.7527H293.559V76.8307H283.209V74.2087H286.843V68.1597H293.559V65.4227H288.637C287.694 67.0557 286.59 68.5277 285.509 69.6087C284.98 69.1487 283.807 68.2287 283.14 67.8377C285.21 66.0897 286.981 63.1457 287.97 60.1787L290.753 60.8917C290.546 61.5357 290.293 62.1567 289.994 62.7777H302.989V65.4227H296.388V68.1597H302.46V70.7127H296.388V74.2087H304.254Z" fill="#E5005A"/>
<path d="M270.812 78.3945H279.736V81.0855H259.059V78.3945H267.937V73.7715H261.704V71.1265H267.937V67.0785H263.176C262.509 68.3435 261.796 69.5165 261.037 70.4135C260.485 69.9765 259.266 69.1485 258.576 68.7805C260.37 66.8485 261.865 63.6745 262.647 60.5465L265.476 61.1675C265.154 62.2715 264.786 63.3525 264.395 64.4105H267.937V60.2705H270.812V64.4105H278.563V67.0785H270.812V71.1265H277.689V73.7715H270.812V78.3945Z" fill="#E5005A"/>
<path d="M238.796 63.6285V68.1825C238.796 72.1155 238.474 77.9805 236.404 81.7295C235.875 81.2925 234.679 80.6255 234.012 80.3725C235.944 76.8995 236.082 71.7935 236.082 68.1825V61.1445H255.264V63.6285H238.796ZM242.959 68.5965V69.5395H250.641V68.5965H242.959ZM242.959 66.1125V67.0555H250.641V66.1125H242.959ZM253.309 71.1955H240.36V64.4565H253.309V71.1955ZM255.471 75.7035V77.8195H248.249V79.2685C248.249 80.4875 247.95 81.0625 246.961 81.4075C245.972 81.7295 244.638 81.7525 242.821 81.7295C242.66 81.0395 242.246 80.1425 241.901 79.5215C243.12 79.5905 244.638 79.5905 245.029 79.5675C245.42 79.5445 245.535 79.4525 245.535 79.1535V77.8195H238.612V75.7035H245.535V74.5765H247.444C247.904 74.3695 248.387 74.1165 248.824 73.8635H240.199V72.0235H251.538L252.113 71.8855L253.677 73.3345C252.435 74.1625 250.917 75.0135 249.399 75.7035H255.471Z" fill="#E5005A"/>
<path d="M218.878 78.2565V68.7805H220.994V81.4305H218.878V80.3265H212.622V81.7065H210.598V68.7805H212.622V78.2565H218.878ZM214.945 77.9115V75.4045C214.531 76.2555 214.002 77.0145 213.45 77.5205C213.312 77.0375 212.99 76.2785 212.737 75.8415C213.312 75.4045 213.91 74.6225 214.347 73.8175H213.013V72.2305H214.945V69.0105H216.555V72.2305H218.464V73.8175H216.831C217.429 74.3925 218.441 75.3815 218.74 75.7035L217.751 76.8535C217.521 76.4625 217.015 75.8185 216.555 75.2205V77.9115H214.945ZM214.807 71.5865L213.519 72.0005C213.427 71.4255 213.151 70.4825 212.829 69.7925L214.048 69.4245C214.393 70.0915 214.692 71.0115 214.807 71.5865ZM217.452 69.4935L218.786 69.8845C218.395 70.6895 218.027 71.4255 217.705 71.9775L216.578 71.6555C216.9 71.0345 217.268 70.1145 217.452 69.4935ZM223.501 67.3775H228.4C227.342 66.0205 226.468 64.4335 225.916 63.0995C225.387 64.4105 224.536 65.9975 223.501 67.3775ZM223.041 69.7005V67.9295C222.558 68.5045 222.052 69.0335 221.523 69.4475C221.385 69.0795 221.178 68.6195 220.948 68.1825H209.862V65.8825H211.15V61.4665H213.45V65.8825H214.922V60.2705H217.452V62.0185H220.787V64.1805H217.452V65.8825H221.362V66.0435C222.788 64.4335 223.984 62.1105 224.582 60.2705H227.043C228.101 62.7545 229.803 65.5145 231.62 66.7335C231.137 67.4235 230.631 68.4815 230.286 69.3325C229.803 68.9415 229.32 68.4815 228.883 67.9525V69.7005H223.041ZM230.493 71.3335V77.0145C230.493 78.0955 230.355 78.7625 229.665 79.1995C228.975 79.6135 228.147 79.6595 226.997 79.6595C226.905 78.9235 226.56 77.8885 226.261 77.2215C226.882 77.2445 227.549 77.2445 227.756 77.2445C227.963 77.2445 228.032 77.1525 228.032 76.9685V73.7025H225.962V81.7525H223.432V73.7025H221.73V71.3335H230.493Z" fill="#E5005A"/>
<path d="M198.155 78.0036V76.5086H194.176V78.0036H198.155ZM205.515 71.3796V78.8316C205.515 80.0966 205.262 80.8326 204.365 81.2466C203.514 81.6606 202.295 81.6836 200.639 81.6836C200.57 81.1546 200.363 80.4416 200.11 79.8436H194.176V80.8786H191.784V74.6916H200.57V79.1536C201.352 79.1766 202.065 79.1766 202.318 79.1536C202.663 79.1306 202.755 79.0616 202.755 78.7856V73.6566H189.737V81.7296H187.069V71.3796H205.515ZM199.696 68.5736V67.1706H192.52V68.5736H199.696ZM189.921 65.3536H202.479V70.4136H189.921V65.3536ZM197.442 62.1566H206.251V64.4796H186.149V62.1566H194.659V60.2246H197.442V62.1566Z" fill="#E5005A"/>
<path d="M177.57 68.8496C178.743 68.8496 179.709 69.8156 179.709 70.9886C179.709 72.1846 178.743 73.1506 177.57 73.1506C176.374 73.1506 175.408 72.1846 175.408 70.9886C175.408 69.8156 176.374 68.8496 177.57 68.8496Z" fill="#E5005A"/>
<path d="M157.376 74.1167H154.041C154.915 75.2897 155.812 76.8537 156.157 77.9117L154.271 78.7167H157.376V74.1167ZM154.777 67.1017H163.08C161.378 65.7217 159.86 64.2267 158.848 62.8467C157.859 64.2267 156.433 65.7217 154.777 67.1017ZM163.448 74.1167L166.07 75.0827C165.196 76.3477 164.299 77.7507 163.494 78.7167H168.692V81.0627H149.234V78.7167H153.719C153.374 77.6817 152.615 76.1407 151.81 75.0137L153.903 74.1167H150.384V71.7707H157.376V69.4937H153.144V68.3667C152.063 69.1487 150.89 69.8847 149.717 70.5057C149.372 69.8617 148.613 68.8727 148.015 68.2977C151.925 66.3887 155.605 62.9387 157.307 60.1787H160.136C162.62 63.6517 166.323 66.5497 169.957 68.0217C169.267 68.7117 168.646 69.6317 168.14 70.4827C166.99 69.8847 165.794 69.1257 164.644 68.2977V69.4937H160.251V71.7707H167.335V74.1167H160.251V78.7167H162.758L161.263 78.0957C162.022 77.0147 162.942 75.3357 163.448 74.1167Z" fill="#E5005A"/>
<path d="M130.42 74.2087H134.399V70.7127H130.42V74.2087ZM145.094 74.2087V76.8307H137.228V81.7527H134.399V76.8307H124.049V74.2087H127.683V68.1597H134.399V65.4227H129.477C128.534 67.0557 127.43 68.5277 126.349 69.6087C125.82 69.1487 124.647 68.2287 123.98 67.8377C126.05 66.0897 127.821 63.1457 128.81 60.1787L131.593 60.8917C131.386 61.5357 131.133 62.1567 130.834 62.7777H143.829V65.4227H137.228V68.1597H143.3V70.7127H137.228V74.2087H145.094Z" fill="#E5005A"/>
<path d="M116.068 70.0225V67.4695C115.493 68.3435 114.826 69.1255 114.136 69.6775C113.929 69.1945 113.469 68.3895 113.078 67.9525C114.09 67.2395 115.102 65.9285 115.746 64.5485H114.113V62.5015H116.068V60.2705H118.299V62.5015H120.829V64.5485H118.713C119.311 65.9285 120.231 67.2855 121.22 68.0445C120.783 68.3895 120.162 69.1025 119.817 69.5855C119.265 69.0565 118.736 68.2975 118.299 67.4465V70.0225H116.068ZM109.881 70.0225V67.4235C109.306 68.3435 108.662 69.1715 108.018 69.7925C107.811 69.2635 107.282 68.3895 106.891 67.9525C107.811 67.2165 108.754 65.8825 109.375 64.5485H107.765V62.5015H109.881V60.2705H112.089V62.5015H113.745V64.5485H112.089V64.8015C112.526 65.0775 113.814 66.0665 114.136 66.3885L112.917 67.9065C112.733 67.6305 112.434 67.2165 112.089 66.8025V70.0225H109.881ZM104.89 76.4625V70.7585H103.257V76.4625H104.89ZM107.167 78.8085H103.257V80.5105H101.026V75.0135C100.865 75.2895 100.704 75.5425 100.52 75.7955C100.267 75.1745 99.5767 73.8405 99.0938 73.2195C100.589 70.9195 101.371 67.4695 101.831 63.7895H99.7377V61.3055H107.65V63.7895H104.338C104.131 65.3765 103.855 66.9175 103.51 68.4125H107.167V78.8085ZM115.424 76.7845V79.0845C115.838 79.1305 116.275 79.1535 116.735 79.1535C117.425 79.1535 120.277 79.1305 121.197 79.1305C120.875 79.6595 120.576 80.7635 120.461 81.4075H116.574C113.814 81.4075 111.767 80.8555 110.364 78.5785C109.812 79.8205 108.984 80.9015 107.742 81.7525C107.443 81.1775 106.776 80.3495 106.201 79.9585C108.478 78.4635 108.892 75.9335 109.053 73.3115H111.468C111.399 74.1625 111.33 74.9905 111.192 75.7955C111.606 76.9685 112.181 77.7505 112.894 78.2565V72.6905H107.673V70.4825H118.805L119.196 70.3675L120.944 70.9195C120.553 72.1615 120.024 73.5875 119.587 74.5305L117.54 73.8405C117.655 73.5185 117.793 73.1275 117.931 72.6905H115.424V74.6225H119.219V76.7845H115.424Z" fill="#E5005A"/>
<path d="M87.1574 75.1975H90.8374C90.2164 74.5995 89.6644 73.9555 89.1814 73.2885H82.6954C82.2354 73.9555 81.6604 74.5995 81.0624 75.1975H84.3744V73.7715H87.1574V75.1975ZM82.2354 70.0225V71.0575H89.4344V70.0225H82.2354ZM89.4344 64.2035H82.2354V65.2155H89.4344V64.2035ZM82.2354 67.1015V68.1135H89.4344V67.1015H82.2354ZM96.4954 73.2885H92.2864C93.5054 74.3925 95.1154 75.3815 96.7714 75.9565C96.1734 76.4625 95.3454 77.4055 94.9544 78.0725C93.7124 77.4975 92.4704 76.6695 91.3434 75.6575V77.3595H87.1574V78.8545H94.6784V81.1085H77.1524V78.8545H84.3744V77.3595H80.3034V75.9335C79.1764 76.8995 77.9344 77.7045 76.6464 78.2795C76.2554 77.6355 75.4734 76.6925 74.8984 76.1865C76.5774 75.5655 78.2794 74.5075 79.5444 73.2885H75.1284V71.0575H79.4984V64.2035H76.3244V61.9955H79.4984V60.2705H82.2354V61.9955H89.4344V60.2705H92.2404V61.9955H95.3914V64.2035H92.2404V71.0575H96.4954V73.2885Z" fill="#E5005A"/>
<path d="M59.7182 78.2565V68.7805H61.8341V81.4305H59.7182V80.3265H53.4621V81.7065H51.4381V68.7805H53.4621V78.2565H59.7182ZM55.7851 77.9115V75.4045C55.3711 76.2555 54.8421 77.0145 54.2901 77.5205C54.1521 77.0375 53.8301 76.2785 53.5771 75.8415C54.1521 75.4045 54.7501 74.6225 55.1871 73.8175H53.8531V72.2305H55.7851V69.0105H57.3951V72.2305H59.3041V73.8175H57.6712C58.2692 74.3925 59.2812 75.3815 59.5802 75.7035L58.5911 76.8535C58.3611 76.4625 57.8551 75.8185 57.3951 75.2205V77.9115H55.7851ZM55.6472 71.5865L54.3591 72.0005C54.2671 71.4255 53.9911 70.4825 53.6691 69.7925L54.8881 69.4245C55.2331 70.0915 55.5322 71.0115 55.6472 71.5865ZM58.2921 69.4935L59.6261 69.8845C59.2351 70.6895 58.8672 71.4255 58.5452 71.9775L57.4181 71.6555C57.7401 71.0345 58.1081 70.1145 58.2921 69.4935ZM64.3411 67.3775H69.2402C68.1822 66.0205 67.3081 64.4335 66.7561 63.0995C66.2271 64.4105 65.3761 65.9975 64.3411 67.3775ZM63.8811 69.7005V67.9295C63.3981 68.5045 62.8921 69.0335 62.3631 69.4475C62.2251 69.0795 62.0182 68.6195 61.7882 68.1825H50.7021V65.8825H51.9901V61.4665H54.2901V65.8825H55.7621V60.2705H58.2921V62.0185H61.6271V64.1805H58.2921V65.8825H62.2021V66.0435C63.6281 64.4335 64.8241 62.1105 65.4221 60.2705H67.8831C68.9411 62.7545 70.6431 65.5145 72.4601 66.7335C71.9771 67.4235 71.4711 68.4815 71.1261 69.3325C70.6431 68.9415 70.1601 68.4815 69.7231 67.9525V69.7005H63.8811ZM71.3331 71.3335V77.0145C71.3331 78.0955 71.1952 78.7625 70.5051 79.1995C69.8152 79.6135 68.9872 79.6595 67.8372 79.6595C67.7452 78.9235 67.4002 77.8885 67.1012 77.2215C67.7222 77.2445 68.3891 77.2445 68.5961 77.2445C68.8031 77.2445 68.8722 77.1525 68.8722 76.9685V73.7025H66.8022V81.7525H64.2721V73.7025H62.5701V71.3335H71.3331Z" fill="#E5005A"/>
<path d="M36.741 65.5146V67.7686H38.144C39.018 67.0556 39.823 66.2966 40.582 65.5146H36.741ZM47.459 70.3216H39.271C38.006 71.3566 36.672 72.2766 35.315 73.1736V74.3236C38.098 73.6106 40.904 72.6906 42.721 71.8166L44.998 73.8176C42.192 74.9216 38.604 75.8876 35.315 76.6236V77.8886C35.315 78.7856 35.591 78.9236 37.27 78.9236H42.261C43.687 78.9236 43.94 78.5096 44.101 76.0946C44.745 76.5086 45.918 76.9456 46.677 77.0836C46.286 80.4876 45.458 81.3846 42.468 81.3846H37.063C33.475 81.3846 32.486 80.6026 32.486 77.9116V74.8296C30.991 75.6346 29.45 76.3476 27.909 76.9916C27.518 76.3476 26.575 75.2206 26 74.6456C29.105 73.5646 32.049 72.0926 34.74 70.3216H26.621V67.7686H33.889V65.5146H28.691V63.0076H33.889V60.2246H36.741V63.0076H41.663V64.3416C42.56 63.3296 43.388 62.2486 44.124 61.1446L46.677 62.3636C45.343 64.2956 43.825 66.1126 42.146 67.7686H47.459V70.3216Z" fill="#E5005A"/>
</svg>
