<svg width="196" height="120" viewBox="0 0 196 120" fill="none" xmlns="http://www.w3.org/2000/svg">
<path d="M0 0H196V120H0V0Z" fill="white"/>
<mask id="mask0_1827_25448" style="mask-type:alpha" maskUnits="userSpaceOnUse" x="0" y="0" width="196" height="120">
<path d="M0 0H196V120H0V0Z" fill="white"/>
</mask>
<g mask="url(#mask0_1827_25448)">
<path fill-rule="evenodd" clip-rule="evenodd" d="M165.634 15.6622C165.634 27.6259 156.166 51.6369 144.487 51.6369C132.808 51.6369 123.34 27.6259 123.34 15.6622C123.34 3.6985 132.808 -6 144.487 -6C156.166 -6 165.634 3.6985 165.634 15.6622ZM188.187 91.8413C181.51 82.0258 160.341 67.8713 150.759 74.7113C141.177 81.5514 146.81 106.796 153.488 116.611C160.165 126.427 173.346 128.839 182.928 121.999C192.51 115.159 194.865 101.657 188.187 91.8413ZM154.869 60.737C157.819 72.3126 182.891 75.6304 194.191 72.6079C205.491 69.5855 212.26 57.7514 209.309 46.1757C206.359 34.6001 194.806 27.6664 183.506 30.6889C172.206 33.7114 151.918 49.1614 154.869 60.737ZM92.7229 69.5766C103.849 73.2142 129.058 71.2754 132.609 59.8781C136.16 48.4808 116.709 31.9409 105.582 28.3033C94.4561 24.6658 82.5579 30.9563 79.0069 42.3536C75.4558 53.7509 81.5967 65.9391 92.7229 69.5766ZM133.379 73.2237C143.479 79.2312 139.897 104.866 134.032 115.212C128.168 125.558 115.226 129.075 105.126 123.067C95.0261 117.06 91.5926 103.803 97.4572 93.4567C103.322 83.1107 123.279 67.2163 133.379 73.2237Z" fill="#FAF1F5"/>
</g>
<path d="M91.7478 72.2081L93.0546 73.1849C92.223 73.7789 91.2462 74.3861 90.4278 74.8217C91.2066 75.6929 92.2362 76.3397 93.543 76.7093C93.1998 77.0393 92.751 77.6729 92.5266 78.1085C89.7414 77.1581 88.2894 75.1517 87.4182 72.2213C86.9166 72.6965 86.3226 73.1453 85.689 73.5545V76.0097C86.6262 75.8117 87.6162 75.6005 88.5666 75.3893L88.7118 76.8149C86.6394 77.3033 84.4218 77.7653 82.785 78.1217L82.323 76.6697C82.8378 76.5773 83.4582 76.4585 84.1182 76.3265V74.4389C83.3922 74.7953 82.653 75.0857 81.927 75.3101C81.7026 74.9537 81.2538 74.3597 80.9238 74.0429C82.4946 73.6337 84.1842 72.8813 85.425 72.0233H81.4122V70.6901H86.4414V69.9509H82.521V68.6969H86.4414V68.0237H81.9006V66.6905H86.4414V65.8193H88.0122V66.6905H92.6586V68.0237H88.0122V68.6969H92.1438V69.9509H88.0122V70.6901H93.081V72.0233H88.8834C89.0946 72.6701 89.3454 73.2509 89.6754 73.7921C90.4146 73.3037 91.2066 72.7097 91.7478 72.2081Z" fill="#E5005A"/>
<path d="M71.1693 71.7857V72.6041H76.6869V71.7857H71.1693ZM71.1693 69.6869V70.5053H76.6869V69.6869H71.1693ZM71.1693 67.6013V68.4197H76.6869V67.6013H71.1693ZM76.7133 76.5509H78.0861C78.5349 76.5509 78.6141 76.3265 78.6801 74.7953C79.0101 75.0461 79.7097 75.3101 80.1189 75.4157C79.9473 77.5013 79.5381 78.0425 78.2313 78.0425H76.4889C74.9181 78.0425 74.5485 77.5673 74.5485 76.0889V73.9769H72.9513C72.6741 76.0757 71.8953 77.4617 68.6349 78.2009C68.4897 77.7785 68.0673 77.1317 67.7637 76.8017C70.4697 76.3001 71.0373 75.4157 71.2617 73.9769H69.6513V66.2285H78.2841V73.9769H76.1325V76.0757C76.1325 76.4981 76.2117 76.5509 76.7133 76.5509Z" fill="#E5005A"/>
<path d="M57.441 69.9904V70.9408H63.6582V69.9904H57.441ZM57.441 67.7464V68.71H63.6582V67.7464H57.441ZM66.6546 73.8316V75.3232H61.3614V78.1348H59.7378V75.3232H54.5898V73.8316H59.7378V72.3268H55.8966V66.3604H65.2818V72.3268H61.3614V73.8316H66.6546Z" fill="#E5005A"/>
<path d="M51.4613 70.5449V69.7397H48.8477V70.5449H51.4613ZM51.4613 72.4325V71.6273H48.8477V72.4325H51.4613ZM51.4613 74.3597V73.5413H48.8477V74.3597H51.4613ZM47.4353 68.5649H49.0985C49.1513 68.2745 49.2041 67.9577 49.2569 67.6673H47.0393V66.3341H53.2037V67.6673H50.9201C50.8145 67.9841 50.7089 68.2877 50.6033 68.5649H52.9397V75.5213H47.4353V68.5649ZM42.5381 68.1293V69.0401H41.2709V66.9149H43.3829V65.8457H44.8481V66.9149H46.9997V69.0401H45.6929V68.1293H42.5381ZM44.9141 76.1681V74.9537H43.3169V76.1681H44.9141ZM43.3433 73.7393H45.5741C45.2441 73.4753 44.8481 73.1849 44.4521 72.8813C44.0957 73.1981 43.7261 73.4885 43.3433 73.7393ZM44.9273 70.2281H43.6469C43.5545 70.3469 43.4621 70.4525 43.3697 70.5713L44.2805 71.1653C44.5313 70.8749 44.7425 70.5581 44.9273 70.2281ZM46.2473 74.2937V77.0261C47.1185 76.6697 48.0425 76.0625 48.5177 75.5741L49.7849 76.3661C49.0985 77.0393 47.9369 77.7389 46.9733 78.1217C46.8017 77.9105 46.5113 77.6201 46.2473 77.3693H43.3169V77.8973H41.9969V74.4785L41.7197 74.5973C41.5481 74.2541 41.2049 73.7261 40.9277 73.4753C41.7989 73.1717 42.6305 72.6965 43.3565 72.0893L42.4853 71.4821C42.3005 71.6405 42.1157 71.7989 41.9177 71.9309C41.7065 71.6801 41.2181 71.2049 40.9277 71.0201C41.9573 70.3733 42.8681 69.3701 43.3433 68.2613L44.6237 68.5781C44.5313 68.7893 44.4389 68.9873 44.3201 69.1853H45.5477L45.7853 69.1193L46.6697 69.5285C46.3661 70.4261 45.9173 71.2181 45.3629 71.9045C46.0757 72.3797 46.7225 72.8549 47.1581 73.2245L46.2737 74.3201L46.2473 74.2937ZM50.3657 76.3529L51.5009 75.6401C52.2005 76.1285 53.1641 76.8545 53.6393 77.3561L52.4249 78.1613C52.0025 77.6597 51.0785 76.8809 50.3657 76.3529Z" fill="#E5005A"/>
<path d="M28.2689 73.5413L29.5625 73.7657C29.4305 75.0065 29.1533 76.3265 28.7705 77.1713C28.4933 76.9997 27.9125 76.7225 27.5693 76.6037C27.9521 75.8249 28.1633 74.6501 28.2689 73.5413ZM31.1333 73.7789L32.2421 73.4357C32.5721 74.1881 32.9153 75.1517 33.0605 75.8117L31.8989 76.2341C31.7801 75.5741 31.4369 74.5577 31.1333 73.7789ZM30.8561 70.5185L31.8989 70.0829C32.4005 70.9805 32.9153 72.1289 33.0605 72.8813L31.9517 73.3829C31.9121 73.1849 31.8593 72.9605 31.7801 72.7097L31.1069 72.7625V78.1613H29.7473V72.8549L27.8333 72.9737L27.7013 71.6141L28.6517 71.5745C28.8497 71.3237 29.0609 71.0333 29.2721 70.7297C28.8893 70.1621 28.2557 69.4625 27.7145 68.9345L28.4669 67.8653C28.5593 67.9445 28.6649 68.0369 28.7705 68.1293C29.1401 67.4033 29.5097 66.5321 29.7341 65.8325L31.0937 66.3341C30.6185 67.2317 30.0905 68.2481 29.6153 68.9873C29.7869 69.1721 29.9321 69.3569 30.0641 69.5153C30.5129 68.7761 30.9353 68.0237 31.2389 67.3769L32.5193 67.9709C31.7933 69.1193 30.8825 70.4525 30.0509 71.5217L31.3181 71.4689C31.1729 71.1389 31.0145 70.8089 30.8561 70.5185ZM37.7333 74.0033H34.8293V76.0625H37.7333V74.0033ZM33.3773 78.1349V72.6173H39.2381V78.0821H37.7333V77.4353H34.8293V78.1349H33.3773ZM34.3145 70.0301H38.0897C37.3373 69.2249 36.6245 68.3273 36.1493 67.5881C35.7005 68.3273 35.0669 69.2249 34.3145 70.0301ZM35.3573 66.0041H36.8489C37.7333 67.3901 39.0665 68.9609 40.3469 69.7661C40.0169 70.1621 39.6473 70.7429 39.3833 71.2313C39.0665 70.9805 38.7365 70.6901 38.4197 70.3733V71.4557H34.0769V70.2809C33.7073 70.6637 33.3245 71.0069 32.9285 71.3105C32.7305 70.9013 32.3345 70.2809 32.0309 69.9377C33.3641 68.9741 34.7105 67.2449 35.3573 66.0041Z" fill="#E5005A"/>
<path d="M19.5966 67.9578L20.9034 67.6542C19.7946 67.7598 18.6462 67.839 17.5242 67.8918C17.8278 68.3802 18.1314 68.9742 18.2634 69.3966L17.577 69.5946H20.0982C20.019 69.1326 19.821 68.4726 19.5966 67.9578ZM16.323 70.9542V72.459H14.8578V69.5946H16.7454C16.6134 69.1854 16.3626 68.6574 16.125 68.235L17.2998 67.905C16.6398 67.9446 15.9666 67.971 15.333 67.9842C15.3066 67.5882 15.1218 66.9942 14.9766 66.651C18.4482 66.5322 22.4214 66.2154 24.8238 65.7534L25.8798 67.0206C24.4542 67.2846 22.7514 67.4958 20.9958 67.6542C21.2598 68.1822 21.5106 68.8818 21.5898 69.357L20.613 69.5946H22.9098C23.2266 68.9874 23.5698 68.2086 23.7678 67.6146L25.4442 68.0106C25.1406 68.565 24.7974 69.1062 24.4938 69.5946H26.3682V72.459H24.837V70.9542H16.323ZM22.4082 73.4094H18.6066C19.1478 74.0034 19.821 74.505 20.613 74.9406C21.3126 74.5182 21.933 74.0166 22.4082 73.4094ZM23.715 71.9046L24.771 72.5514C24.177 73.845 23.3058 74.8482 22.2366 75.627C23.5038 76.0758 24.9822 76.3794 26.6058 76.5246C26.2758 76.881 25.8534 77.5674 25.6422 77.9898C23.7282 77.7522 22.0254 77.3034 20.5998 76.6038C19.0818 77.3298 17.3262 77.7654 15.465 78.0162C15.3066 77.6466 14.871 76.947 14.541 76.6302C16.191 76.4586 17.7222 76.155 19.029 75.6666C18.2238 75.099 17.5242 74.3994 16.9434 73.5942L17.379 73.4094H16.7586V71.9706H23.4246L23.715 71.9046Z" fill="#E5005A"/>
<path d="M173.086 50.779H171.172C171.674 51.4522 172.189 52.3498 172.387 52.957L171.304 53.419H173.086V50.779ZM171.595 46.753H176.36C175.383 45.961 174.512 45.103 173.931 44.311C173.363 45.103 172.545 45.961 171.595 46.753ZM176.571 50.779L178.076 51.3334C177.574 52.0594 177.059 52.8646 176.597 53.419H179.581V54.7654H168.413V53.419H170.987C170.789 52.825 170.354 51.9406 169.892 51.2938L171.093 50.779H169.073V49.4326H173.086V48.1258H170.657V47.479C170.037 47.9278 169.364 48.3502 168.691 48.7066C168.493 48.337 168.057 47.7694 167.714 47.4394C169.958 46.3438 172.07 44.3638 173.047 42.7798H174.67C176.096 44.773 178.221 46.4362 180.307 47.281C179.911 47.677 179.554 48.205 179.264 48.6934C178.604 48.3502 177.917 47.9146 177.257 47.4394V48.1258H174.736V49.4326H178.802V50.779H174.736V53.419H176.175L175.317 53.0626C175.753 52.4422 176.281 51.4786 176.571 50.779Z" fill="#E5005A"/>
<path d="M158.276 50.8318H160.56V48.8254H158.276V50.8318ZM166.698 50.8318V52.3366H162.183V55.1614H160.56V52.3366H154.62V50.8318H156.705V47.3602H160.56V45.7894H157.735C157.194 46.7266 156.56 47.5714 155.94 48.1918C155.636 47.9278 154.963 47.3998 154.58 47.1754C155.768 46.1722 156.784 44.4826 157.352 42.7798L158.949 43.189C158.83 43.5586 158.685 43.915 158.514 44.2714H165.972V45.7894H162.183V47.3602H165.668V48.8254H162.183V50.8318H166.698Z" fill="#E5005A"/>
<path d="M148.164 53.2341H153.286V54.7785H141.419V53.2341H146.514V50.5809H142.937V49.0629H146.514V46.7397H143.782C143.399 47.4657 142.99 48.1389 142.554 48.6537C142.237 48.4029 141.538 47.9277 141.142 47.7165C142.171 46.6077 143.029 44.7861 143.478 42.9909L145.102 43.3473C144.917 43.9809 144.706 44.6013 144.481 45.2085H146.514V42.8325H148.164V45.2085H152.612V46.7397H148.164V49.0629H152.111V50.5809H148.164V53.2341Z" fill="#E5005A"/>
<path d="M130.45 44.7596V47.3732C130.45 49.6304 130.265 52.9964 129.077 55.148C128.773 54.8972 128.087 54.5144 127.704 54.3692C128.813 52.376 128.892 49.4456 128.892 47.3732V43.334H139.901V44.7596H130.45ZM132.839 47.6108V48.152H137.248V47.6108H132.839ZM132.839 46.1852V46.7264H137.248V46.1852H132.839ZM138.779 49.1024H131.347V45.2348H138.779V49.1024ZM140.02 51.6896V52.904H135.875V53.7356C135.875 54.4352 135.703 54.7652 135.136 54.9632C134.568 55.148 133.802 55.1612 132.76 55.148C132.667 54.752 132.43 54.2372 132.232 53.8808C132.931 53.9204 133.803 53.9204 134.027 53.9072C134.251 53.894 134.317 53.8412 134.317 53.6696V52.904H130.344V51.6896H134.317V51.0428H135.413C135.677 50.924 135.954 50.7788 136.205 50.6336H131.255V49.5776H137.762L138.092 49.4984L138.99 50.33C138.277 50.8052 137.406 51.2936 136.535 51.6896H140.02Z" fill="#E5005A"/>
<path d="M119.679 53.1549V47.7165H120.894V54.9765H119.679V54.3429H116.089V55.1349H114.927V47.7165H116.089V53.1549H119.679ZM117.422 52.9569V51.5181C117.184 52.0065 116.881 52.4421 116.564 52.7325C116.485 52.4553 116.3 52.0197 116.155 51.7689C116.485 51.5181 116.828 51.0693 117.079 50.6073H116.313V49.6965H117.422V47.8485H118.346V49.6965H119.442V50.6073H118.504C118.848 50.9373 119.428 51.5049 119.6 51.6897L119.032 52.3497C118.9 52.1253 118.61 51.7557 118.346 51.4125V52.9569H117.422ZM117.343 49.3269L116.604 49.5645C116.551 49.2345 116.392 48.6933 116.208 48.2973L116.907 48.0861C117.105 48.4689 117.277 48.9969 117.343 49.3269ZM118.861 48.1257L119.626 48.3501C119.402 48.8121 119.191 49.2345 119.006 49.5513L118.359 49.3665C118.544 49.0101 118.755 48.4821 118.861 48.1257ZM122.332 46.9113H125.144C124.537 46.1325 124.035 45.2217 123.718 44.4561C123.415 45.2085 122.926 46.1193 122.332 46.9113ZM122.068 48.2445V47.2281C121.791 47.5581 121.501 47.8617 121.197 48.0993C121.118 47.8881 120.999 47.6241 120.867 47.3733H114.505V46.0533H115.244V43.5189H116.564V46.0533H117.409V42.8325H118.861V43.8357H120.775V45.0765H118.861V46.0533H121.105V46.1457C121.923 45.2217 122.61 43.8885 122.953 42.8325H124.365C124.972 44.2581 125.949 45.8421 126.992 46.5417C126.715 46.9377 126.424 47.5449 126.226 48.0333C125.949 47.8089 125.672 47.5449 125.421 47.2413V48.2445H122.068ZM126.345 49.1817V52.4421C126.345 53.0625 126.266 53.4453 125.87 53.6961C125.474 53.9337 124.999 53.9601 124.339 53.9601C124.286 53.5377 124.088 52.9437 123.916 52.5609C124.273 52.5741 124.656 52.5741 124.774 52.5741C124.893 52.5741 124.933 52.5213 124.933 52.4157V50.5413H123.745V55.1613H122.293V50.5413H121.316V49.1817H126.345Z" fill="#E5005A"/>
<path d="M108.446 53.0098V52.1518H106.162V53.0098H108.446ZM112.67 49.2082V53.485C112.67 54.211 112.525 54.6334 112.01 54.871C111.522 55.1086 110.822 55.1218 109.872 55.1218C109.832 54.8182 109.713 54.409 109.568 54.0658H106.162V54.6598H104.79V51.109H109.832V53.6698C110.281 53.683 110.69 53.683 110.835 53.6698C111.033 53.6566 111.086 53.617 111.086 53.4586V50.515H103.615V55.1482H102.084V49.2082H112.67ZM109.33 47.5978V46.7926H105.212V47.5978H109.33ZM103.72 45.7498H110.928V48.6538H103.72V45.7498ZM108.037 43.915H113.092V45.2482H101.556V43.915H106.44V42.8062H108.037V43.915Z" fill="#E5005A"/>
<path d="M97.2916 47.7563C97.9648 47.7563 98.5192 48.3107 98.5192 48.9839C98.5192 49.6703 97.9648 50.2247 97.2916 50.2247C96.6052 50.2247 96.0508 49.6703 96.0508 48.9839C96.0508 48.3107 96.6052 47.7563 97.2916 47.7563Z" fill="#E5005A"/>
<path d="M86.3617 50.779H84.4477C84.9493 51.4522 85.4641 52.3498 85.6621 52.957L84.5797 53.419H86.3617V50.779ZM84.8701 46.753H89.6353C88.6585 45.961 87.7873 45.103 87.2065 44.311C86.6389 45.103 85.8205 45.961 84.8701 46.753ZM89.8465 50.779L91.3513 51.3334C90.8497 52.0594 90.3349 52.8646 89.8729 53.419H92.8561V54.7654H81.6889V53.419H84.2629C84.0649 52.825 83.6293 51.9406 83.1673 51.2938L84.3685 50.779H82.3489V49.4326H86.3617V48.1258H83.9329V47.479C83.3125 47.9278 82.6393 48.3502 81.9661 48.7066C81.7681 48.337 81.3325 47.7694 80.9893 47.4394C83.2333 46.3438 85.3453 44.3638 86.3221 42.7798H87.9457C89.3713 44.773 91.4965 46.4362 93.5821 47.281C93.1861 47.677 92.8297 48.205 92.5393 48.6934C91.8793 48.3502 91.1929 47.9146 90.5329 47.4394V48.1258H88.0117V49.4326H92.0773V50.779H88.0117V53.419H89.4505L88.5925 53.0626C89.0281 52.4422 89.5561 51.4786 89.8465 50.779Z" fill="#E5005A"/>
<path d="M71.5515 50.8318H73.8351V48.8254H71.5515V50.8318ZM79.9731 50.8318V52.3366H75.4587V55.1614H73.8351V52.3366H67.8951V50.8318H69.9807V47.3602H73.8351V45.7894H71.0103C70.4691 46.7266 69.8355 47.5714 69.2151 48.1918C68.9115 47.9278 68.2383 47.3998 67.8555 47.1754C69.0435 46.1722 70.0599 44.4826 70.6275 42.7798L72.2247 43.189C72.1059 43.5586 71.9607 43.915 71.7891 44.2714H79.2471V45.7894H75.4587V47.3602H78.9435V48.8254H75.4587V50.8318H79.9731Z" fill="#E5005A"/>
<path d="M63.975 48.4293V46.9641C63.645 47.4657 63.2622 47.9145 62.8662 48.2313C62.7474 47.9541 62.4834 47.4921 62.259 47.2413C62.8398 46.8321 63.4206 46.0797 63.7902 45.2877H62.853V44.1129H63.975V42.8325H65.2554V44.1129H66.7074V45.2877H65.493C65.8362 46.0797 66.3642 46.8585 66.9318 47.2941C66.681 47.4921 66.3246 47.9013 66.1266 48.1785C65.8098 47.8749 65.5062 47.4393 65.2554 46.9509V48.4293H63.975ZM60.4242 48.4293V46.9377C60.0942 47.4657 59.7246 47.9409 59.355 48.2973C59.2362 47.9937 58.9326 47.4921 58.7082 47.2413C59.2362 46.8189 59.7774 46.0533 60.1338 45.2877H59.2098V44.1129H60.4242V42.8325H61.6914V44.1129H62.6418V45.2877H61.6914V45.4329C61.9422 45.5913 62.6814 46.1589 62.8662 46.3437L62.1666 47.2149C62.061 47.0565 61.8894 46.8189 61.6914 46.5813V48.4293H60.4242ZM57.5598 52.1253V48.8517H56.6226V52.1253H57.5598ZM58.8666 53.4717H56.6226V54.4485H55.3422V51.2937C55.2498 51.4521 55.1574 51.5973 55.0518 51.7425C54.9066 51.3861 54.5106 50.6205 54.2334 50.2641C55.0914 48.9441 55.5402 46.9641 55.8042 44.8521H54.603V43.4265H59.1438V44.8521H57.243C57.1242 45.7629 56.9658 46.6473 56.7678 47.5053H58.8666V53.4717ZM63.6054 52.3101V53.6301C63.843 53.6565 64.0938 53.6697 64.3578 53.6697C64.7538 53.6697 66.3906 53.6565 66.9186 53.6565C66.7338 53.9601 66.5622 54.5937 66.4962 54.9633H64.2654C62.6814 54.9633 61.5066 54.6465 60.7014 53.3397C60.3846 54.0525 59.9094 54.6729 59.1966 55.1613C59.025 54.8313 58.6422 54.3561 58.3122 54.1317C59.619 53.2737 59.8566 51.8217 59.949 50.3169H61.335C61.2954 50.8053 61.2558 51.2805 61.1766 51.7425C61.4142 52.4157 61.7442 52.8645 62.1534 53.1549V49.9605H59.157V48.6933H65.5458L65.7702 48.6273L66.7734 48.9441C66.549 49.6569 66.2454 50.4753 65.9946 51.0165L64.8198 50.6205C64.8858 50.4357 64.965 50.2113 65.0442 49.9605H63.6054V51.0693H65.7834V52.3101H63.6054Z" fill="#E5005A"/>
<path d="M48.0424 51.3993H50.1544C49.798 51.0561 49.4812 50.6865 49.204 50.3037H45.4816C45.2176 50.6865 44.8876 51.0561 44.5444 51.3993H46.4452V50.5809H48.0424V51.3993ZM45.2176 48.4293V49.0233H49.3492V48.4293H45.2176ZM49.3492 45.0897H45.2176V45.6705H49.3492V45.0897ZM45.2176 46.7529V47.3337H49.3492V46.7529H45.2176ZM53.4016 50.3037H50.986C51.6856 50.9373 52.6096 51.5049 53.56 51.8349C53.2168 52.1253 52.7416 52.6665 52.5172 53.0493C51.8044 52.7193 51.0916 52.2441 50.4448 51.6633V52.6401H48.0424V53.4981H52.3588V54.7917H42.3004V53.4981H46.4452V52.6401H44.1088V51.8217C43.462 52.3761 42.7492 52.8381 42.01 53.1681C41.7856 52.7985 41.3368 52.2573 41.0068 51.9669C41.9704 51.6105 42.9472 51.0033 43.6732 50.3037H41.1388V49.0233H43.6468V45.0897H41.8252V43.8225H43.6468V42.8325H45.2176V43.8225H49.3492V42.8325H50.9596V43.8225H52.768V45.0897H50.9596V49.0233H53.4016V50.3037Z" fill="#E5005A"/>
<path d="M32.9547 53.1549V47.7165H34.1691V54.9765H32.9547V54.3429H29.3643V55.1349H28.2027V47.7165H29.3643V53.1549H32.9547ZM30.6975 52.9569V51.5181C30.4599 52.0065 30.1563 52.4421 29.8395 52.7325C29.7603 52.4553 29.5755 52.0197 29.4303 51.7689C29.7603 51.5181 30.1035 51.0693 30.3543 50.6073H29.5887V49.6965H30.6975V47.8485H31.6215V49.6965H32.7171V50.6073H31.7799C32.1231 50.9373 32.7039 51.5049 32.8755 51.6897L32.3079 52.3497C32.1759 52.1253 31.8855 51.7557 31.6215 51.4125V52.9569H30.6975ZM30.6183 49.3269L29.8791 49.5645C29.8263 49.2345 29.6679 48.6933 29.4831 48.2973L30.1827 48.0861C30.3807 48.4689 30.5523 48.9969 30.6183 49.3269ZM32.1363 48.1257L32.9019 48.3501C32.6775 48.8121 32.4663 49.2345 32.2815 49.5513L31.6347 49.3665C31.8195 49.0101 32.0307 48.4821 32.1363 48.1257ZM35.6079 46.9113H38.4195C37.8123 46.1325 37.3107 45.2217 36.9939 44.4561C36.6903 45.2085 36.2019 46.1193 35.6079 46.9113ZM35.3439 48.2445V47.2281C35.0667 47.5581 34.7763 47.8617 34.4727 48.0993C34.3935 47.8881 34.2747 47.6241 34.1427 47.3733H27.7803V46.0533H28.5195V43.5189H29.8395V46.0533H30.6843V42.8325H32.1363V43.8357H34.0503V45.0765H32.1363V46.0533H34.3803V46.1457C35.1987 45.2217 35.8851 43.8885 36.2283 42.8325H37.6407C38.2479 44.2581 39.2247 45.8421 40.2675 46.5417C39.9903 46.9377 39.6999 47.5449 39.5019 48.0333C39.2247 47.8089 38.9475 47.5449 38.6967 47.2413V48.2445H35.3439ZM39.6207 49.1817V52.4421C39.6207 53.0625 39.5415 53.4453 39.1455 53.6961C38.7495 53.9337 38.2743 53.9601 37.6143 53.9601C37.5615 53.5377 37.3635 52.9437 37.1919 52.5609C37.5483 52.5741 37.9311 52.5741 38.0499 52.5741C38.1687 52.5741 38.2083 52.5213 38.2083 52.4157V50.5413H37.0203V55.1613H35.5683V50.5413H34.5915V49.1817H39.6207Z" fill="#E5005A"/>
<path d="M20.4281 45.8422V47.1358H21.2333C21.7349 46.7266 22.1969 46.291 22.6325 45.8422H20.4281ZM26.5793 48.601H21.8801C21.1541 49.195 20.3885 49.723 19.6097 50.2378V50.8978C21.2069 50.4886 22.8173 49.9606 23.8601 49.459L25.1669 50.6074C23.5565 51.241 21.4973 51.7954 19.6097 52.2178V52.9438C19.6097 53.4586 19.7681 53.5378 20.7317 53.5378H23.5961C24.4145 53.5378 24.5597 53.3002 24.6521 51.9142C25.0217 52.1518 25.6949 52.4026 26.1305 52.4818C25.9061 54.4354 25.4309 54.9502 23.7149 54.9502H20.6129C18.5537 54.9502 17.9861 54.5014 17.9861 52.957V51.1882C17.1281 51.6502 16.2437 52.0594 15.3593 52.429C15.1349 52.0594 14.5937 51.4126 14.2637 51.0826C16.0457 50.4622 17.7353 49.6174 19.2797 48.601H14.6201V47.1358H18.7913V45.8422H15.8081V44.4034H18.7913V42.8062H20.4281V44.4034H23.2529V45.169C23.7677 44.5882 24.2429 43.9678 24.6653 43.3342L26.1305 44.0338C25.3649 45.1426 24.4937 46.1854 23.5301 47.1358H26.5793V48.601Z" fill="#E5005A"/>
</svg>
