<svg width="196" height="120" viewBox="0 0 196 120" fill="none" xmlns="http://www.w3.org/2000/svg">
<path d="M0 0H196V120H0V0Z" fill="white"/>
<mask id="mask0_1981_22451" style="mask-type:alpha" maskUnits="userSpaceOnUse" x="0" y="0" width="196" height="120">
<path d="M0 0H196V120H0V0Z" fill="white"/>
</mask>
<g mask="url(#mask0_1981_22451)">
<path fill-rule="evenodd" clip-rule="evenodd" d="M165.634 15.6622C165.634 27.6259 156.166 51.6369 144.487 51.6369C132.808 51.6369 123.34 27.6259 123.34 15.6622C123.34 3.6985 132.808 -6 144.487 -6C156.166 -6 165.634 3.6985 165.634 15.6622ZM188.187 91.8413C181.51 82.0258 160.341 67.8713 150.759 74.7113C141.177 81.5514 146.81 106.796 153.488 116.611C160.165 126.427 173.346 128.839 182.928 121.999C192.51 115.159 194.865 101.657 188.187 91.8413ZM154.869 60.737C157.819 72.3126 182.891 75.6304 194.191 72.6079C205.491 69.5855 212.26 57.7514 209.309 46.1757C206.359 34.6001 194.806 27.6664 183.506 30.6889C172.206 33.7114 151.918 49.1614 154.869 60.737ZM92.7229 69.5766C103.849 73.2142 129.058 71.2754 132.609 59.8781C136.16 48.4808 116.709 31.9409 105.582 28.3033C94.4561 24.6658 82.5579 30.9563 79.0069 42.3536C75.4558 53.7509 81.5967 65.9391 92.7229 69.5766ZM133.379 73.2237C143.479 79.2312 139.897 104.866 134.032 115.212C128.168 125.558 115.226 129.075 105.126 123.067C95.0261 117.06 91.5926 103.803 97.4572 93.4567C103.322 83.1107 123.279 67.2163 133.379 73.2237Z" fill="#FAF1F5"/>
</g>
<path d="M118.379 87.8286L120.062 89.0866C118.991 89.8516 117.733 90.6336 116.679 91.1946C117.682 92.3166 119.008 93.1496 120.691 93.6256C120.249 94.0506 119.671 94.8666 119.382 95.4276C115.795 94.2036 113.925 91.6196 112.803 87.8456C112.157 88.4576 111.392 89.0356 110.576 89.5626V92.7246C111.783 92.4696 113.058 92.1976 114.282 91.9256L114.469 93.7616C111.8 94.3906 108.944 94.9856 106.836 95.4446L106.241 93.5746C106.904 93.4556 107.703 93.3026 108.553 93.1326V90.7016C107.618 91.1606 106.666 91.5346 105.731 91.8236C105.442 91.3646 104.864 90.5996 104.439 90.1916C106.462 89.6646 108.638 88.6956 110.236 87.5906H105.068V85.8736H111.545V84.9216H106.496V83.3066H111.545V82.4396H105.697V80.7226H111.545V79.6006H113.568V80.7226H119.552V82.4396H113.568V83.3066H118.889V84.9216H113.568V85.8736H120.096V87.5906H114.69C114.962 88.4236 115.285 89.1716 115.71 89.8686C116.662 89.2396 117.682 88.4746 118.379 87.8286Z" fill="#E5005A"/>
<path d="M91.0266 87.2849V88.3389H98.1326V87.2849H91.0266ZM91.0266 84.5819V85.6359H98.1326V84.5819H91.0266ZM91.0266 81.8959V82.9499H98.1326V81.8959H91.0266ZM98.1666 93.4219H99.9346C100.513 93.4219 100.615 93.1329 100.7 91.1609C101.125 91.4839 102.026 91.8239 102.553 91.9599C102.332 94.6459 101.805 95.3429 100.122 95.3429H97.8776C95.8546 95.3429 95.3786 94.7309 95.3786 92.8269V90.1069H93.3216C92.9646 92.8099 91.9616 94.5949 87.7626 95.5469C87.5756 95.0029 87.0316 94.1699 86.6406 93.7449C90.1256 93.0989 90.8566 91.9599 91.1456 90.1069H89.0716V80.1279H100.19V90.1069H97.4186V92.8099C97.4186 93.3539 97.5206 93.4219 98.1666 93.4219Z" fill="#E5005A"/>
<path d="M72.4962 84.9729V86.1968H80.5032V84.9729H72.4962ZM72.4962 82.0829V83.3239H80.5032V82.0829H72.4962ZM84.3622 89.9198V91.8409H77.5452V95.4618H75.4542V91.8409H68.8242V89.9198H75.4542V87.9819H70.5072V80.2979H82.5942V87.9819H77.5452V89.9198H84.3622Z" fill="#E5005A"/>
<path d="M63.9449 85.6868V84.6498H60.5789V85.6868H63.9449ZM63.9449 88.1178V87.0808H60.5789V88.1178H63.9449ZM63.9449 90.5998V89.5458H60.5789V90.5998H63.9449ZM58.7599 83.1368H60.9019C60.9699 82.7628 61.0379 82.3548 61.1059 81.9808H58.2499V80.2638H66.1889V81.9808H63.2479C63.1119 82.3888 62.9759 82.7798 62.8399 83.1368H65.8489V92.0958H58.7599V83.1368ZM52.4529 82.5758V83.7488H50.8209V81.0118H53.5409V79.6348H55.4279V81.0118H58.1989V83.7488H56.5159V82.5758H52.4529ZM55.5129 92.9288V91.3648H53.4559V92.9288H55.5129ZM53.4899 89.8008H56.3629C55.9379 89.4608 55.4279 89.0868 54.9179 88.6958C54.4589 89.1038 53.9829 89.4778 53.4899 89.8008ZM55.5299 85.2788H53.8809C53.7619 85.4318 53.6429 85.5678 53.5239 85.7208L54.6969 86.4858C55.0199 86.1118 55.2919 85.7038 55.5299 85.2788ZM57.2299 90.5148V94.0338C58.3519 93.5748 59.5419 92.7928 60.1539 92.1638L61.7859 93.1838C60.9019 94.0508 59.4059 94.9518 58.1649 95.4448C57.9439 95.1728 57.5699 94.7988 57.2299 94.4758H53.4559V95.1558H51.7559V90.7528L51.3989 90.9058C51.1779 90.4638 50.7359 89.7838 50.3789 89.4608C51.5009 89.0698 52.5719 88.4578 53.5069 87.6758L52.3849 86.8938C52.1469 87.0978 51.9089 87.3018 51.6539 87.4718C51.3819 87.1488 50.7529 86.5368 50.3789 86.2988C51.7049 85.4658 52.8779 84.1738 53.4899 82.7458L55.1389 83.1538C55.0199 83.4258 54.9009 83.6808 54.7479 83.9358H56.3289L56.6349 83.8508L57.7739 84.3778C57.3829 85.5338 56.8049 86.5538 56.0909 87.4378C57.0089 88.0498 57.8419 88.6618 58.4029 89.1378L57.2639 90.5488L57.2299 90.5148ZM62.5339 93.1668L63.9959 92.2488C64.8969 92.8778 66.1379 93.8128 66.7499 94.4588L65.1859 95.4958C64.6419 94.8498 63.4519 93.8468 62.5339 93.1668Z" fill="#E5005A"/>
<path d="M33.2272 89.5457L34.8932 89.8347C34.7232 91.4327 34.3662 93.1327 33.8732 94.2207C33.5162 93.9997 32.7682 93.6427 32.3262 93.4897C32.8192 92.4867 33.0912 90.9737 33.2272 89.5457ZM36.9162 89.8517L38.3442 89.4097C38.7692 90.3787 39.2112 91.6197 39.3982 92.4697L37.9022 93.0137C37.7492 92.1637 37.3072 90.8547 36.9162 89.8517ZM36.5592 85.6527L37.9022 85.0917C38.5482 86.2477 39.2112 87.7267 39.3982 88.6957L37.9702 89.3417C37.9192 89.0867 37.8512 88.7977 37.7492 88.4747L36.8822 88.5427V95.4957H35.1312V88.6617L32.6662 88.8147L32.4962 87.0637L33.7202 87.0127C33.9752 86.6897 34.2472 86.3157 34.5192 85.9247C34.0262 85.1937 33.2102 84.2927 32.5132 83.6127L33.4822 82.2357C33.6012 82.3377 33.7372 82.4567 33.8732 82.5757C34.3492 81.6407 34.8252 80.5187 35.1142 79.6177L36.8652 80.2637C36.2532 81.4197 35.5732 82.7287 34.9612 83.6807C35.1822 83.9187 35.3692 84.1567 35.5392 84.3607C36.1172 83.4087 36.6612 82.4397 37.0522 81.6067L38.7012 82.3717C37.7662 83.8507 36.5932 85.5677 35.5222 86.9447L37.1542 86.8767C36.9672 86.4517 36.7632 86.0267 36.5592 85.6527ZM45.4162 90.1407H41.6762V92.7927H45.4162V90.1407ZM39.8062 95.4617V88.3557H47.3542V95.3937H45.4162V94.5607H41.6762V95.4617H39.8062ZM41.0132 85.0237H45.8752C44.9062 83.9867 43.9882 82.8307 43.3762 81.8787C42.7982 82.8307 41.9822 83.9867 41.0132 85.0237ZM42.3562 79.8387H44.2772C45.4162 81.6237 47.1332 83.6467 48.7822 84.6837C48.3572 85.1937 47.8812 85.9417 47.5412 86.5707C47.1332 86.2477 46.7082 85.8737 46.3002 85.4657V86.8597H40.7072V85.3467C40.2312 85.8397 39.7382 86.2817 39.2282 86.6727C38.9732 86.1457 38.4632 85.3467 38.0722 84.9047C39.7892 83.6637 41.5232 81.4367 42.3562 79.8387Z" fill="#E5005A"/>
<path d="M21.2083 82.3546L22.8913 81.9636C21.4633 82.0996 19.9843 82.2016 18.5393 82.2696C18.9303 82.8986 19.3213 83.6636 19.4913 84.2076L18.6073 84.4626H21.8543C21.7523 83.8676 21.4973 83.0176 21.2083 82.3546ZM16.9923 86.2136V88.1516H15.1053V84.4626H17.5363C17.3663 83.9356 17.0433 83.2556 16.7373 82.7116L18.2503 82.2866C17.4003 82.3376 16.5333 82.3716 15.7173 82.3886C15.6833 81.8786 15.4453 81.1136 15.2583 80.6716C19.7293 80.5186 24.8463 80.1106 27.9403 79.5156L29.3003 81.1476C27.4643 81.4876 25.2713 81.7596 23.0103 81.9636C23.3503 82.6436 23.6733 83.5446 23.7753 84.1566L22.5173 84.4626H25.4753C25.8833 83.6806 26.3253 82.6776 26.5803 81.9126L28.7393 82.4226C28.3483 83.1366 27.9063 83.8336 27.5153 84.4626H29.9293V88.1516H27.9573V86.2136H16.9923ZM24.8293 89.3756H19.9333C20.6303 90.1406 21.4973 90.7866 22.5173 91.3476C23.4183 90.8036 24.2173 90.1576 24.8293 89.3756ZM26.5123 87.4376L27.8723 88.2706C27.1073 89.9366 25.9853 91.2286 24.6083 92.2316C26.2403 92.8096 28.1443 93.2006 30.2353 93.3876C29.8103 93.8466 29.2663 94.7306 28.9943 95.2746C26.5293 94.9686 24.3363 94.3906 22.5003 93.4896C20.5453 94.4246 18.2843 94.9856 15.8873 95.3086C15.6833 94.8326 15.1223 93.9316 14.6973 93.5236C16.8223 93.3026 18.7943 92.9116 20.4773 92.2826C19.4403 91.5516 18.5393 90.6506 17.7913 89.6136L18.3523 89.3756H17.5533V87.5226H26.1383L26.5123 87.4376Z" fill="#E5005A"/>
<path d="M111.444 63.8518H108.979C109.625 64.7188 110.288 65.8748 110.543 66.6568L109.149 67.2518H111.444V63.8518ZM109.523 58.6668H115.66C114.402 57.6468 113.28 56.5418 112.532 55.5218C111.801 56.5418 110.747 57.6468 109.523 58.6668ZM115.932 63.8518L117.87 64.5658C117.224 65.5008 116.561 66.5378 115.966 67.2518H119.808V68.9858H105.426V67.2518H108.741C108.486 66.4868 107.925 65.3478 107.33 64.5148L108.877 63.8518H106.276V62.1178H111.444V60.4348H108.316V59.6018C107.517 60.1798 106.65 60.7238 105.783 61.1828C105.528 60.7068 104.967 59.9758 104.525 59.5508C107.415 58.1398 110.135 55.5898 111.393 53.5498H113.484C115.32 56.1168 118.057 58.2588 120.743 59.3468C120.233 59.8568 119.774 60.5368 119.4 61.1658C118.55 60.7238 117.666 60.1628 116.816 59.5508V60.4348H113.569V62.1178H118.805V63.8518H113.569V67.2518H115.422L114.317 66.7928C114.878 65.9938 115.558 64.7528 115.932 63.8518Z" fill="#E5005A"/>
<path d="M91.5198 63.9198H94.4608V61.3358H91.5198V63.9198ZM102.366 63.9198V65.8578H96.5518V69.4958H94.4608V65.8578H86.8108V63.9198H89.4968V59.4488H94.4608V57.4258H90.8228C90.1258 58.6328 89.3098 59.7208 88.5108 60.5198C88.1198 60.1798 87.2528 59.4998 86.7598 59.2108C88.2898 57.9188 89.5988 55.7428 90.3298 53.5498L92.3868 54.0768C92.2338 54.5528 92.0468 55.0118 91.8258 55.4708H101.431V57.4258H96.5518V59.4488H101.04V61.3358H96.5518V63.9198H102.366Z" fill="#E5005A"/>
<path d="M77.6475 67.0137H84.2435V69.0027H68.9605V67.0137H75.5225V63.5967H70.9155V61.6417H75.5225V58.6497H72.0035C71.5105 59.5847 70.9835 60.4517 70.4225 61.1147C70.0145 60.7917 69.1135 60.1797 68.6035 59.9077C69.9295 58.4797 71.0345 56.1337 71.6125 53.8217L73.7035 54.2807C73.4655 55.0967 73.1935 55.8957 72.9045 56.6777H75.5225V53.6177H77.6475V56.6777H83.3765V58.6497H77.6475V61.6417H82.7305V63.5967H77.6475V67.0137Z" fill="#E5005A"/>
<path d="M53.9833 56.0997V59.4657C53.9833 62.3727 53.7453 66.7077 52.2153 69.4787C51.8243 69.1557 50.9403 68.6627 50.4473 68.4757C51.8753 65.9087 51.9773 62.1347 51.9773 59.4657V54.2637H66.1553V56.0997H53.9833ZM57.0603 59.7717V60.4687H62.7383V59.7717H57.0603ZM57.0603 57.9357V58.6327H62.7383V57.9357H57.0603ZM64.7103 61.6927H55.1393V56.7117H64.7103V61.6927ZM66.3083 65.0247V66.5887H60.9703V67.6597C60.9703 68.5607 60.7493 68.9857 60.0183 69.2407C59.2873 69.4787 58.3013 69.4957 56.9583 69.4787C56.8393 68.9687 56.5333 68.3057 56.2783 67.8467C57.1793 67.8977 58.3013 67.8977 58.5903 67.8807C58.8793 67.8637 58.9643 67.7957 58.9643 67.5747V66.5887H53.8473V65.0247H58.9643V64.1917H60.3753C60.7153 64.0387 61.0723 63.8517 61.3953 63.6647H55.0203V62.3047H63.4013L63.8263 62.2027L64.9823 63.2737C64.0643 63.8857 62.9423 64.5147 61.8203 65.0247H66.3083Z" fill="#E5005A"/>
<path d="M39.2617 66.9117V59.9077H40.8257V69.2577H39.2617V68.4417H34.6377V69.4617H33.1417V59.9077H34.6377V66.9117H39.2617ZM36.3547 66.6567V64.8037C36.0487 65.4327 35.6577 65.9937 35.2497 66.3677C35.1477 66.0107 34.9097 65.4497 34.7227 65.1267C35.1477 64.8037 35.5897 64.2257 35.9127 63.6307H34.9267V62.4577H36.3547V60.0777H37.5447V62.4577H38.9557V63.6307H37.7487C38.1907 64.0557 38.9387 64.7867 39.1597 65.0247L38.4287 65.8747C38.2587 65.5857 37.8847 65.1097 37.5447 64.6677V66.6567H36.3547ZM36.2527 61.9817L35.3007 62.2877C35.2327 61.8627 35.0287 61.1657 34.7907 60.6557L35.6917 60.3837C35.9467 60.8767 36.1677 61.5567 36.2527 61.9817ZM38.2077 60.4347L39.1937 60.7237C38.9047 61.3187 38.6327 61.8627 38.3947 62.2707L37.5617 62.0327C37.7997 61.5737 38.0717 60.8937 38.2077 60.4347ZM42.6787 58.8707H46.2997C45.5177 57.8677 44.8717 56.6947 44.4637 55.7087C44.0727 56.6777 43.4437 57.8507 42.6787 58.8707ZM42.3387 60.5877V59.2787C41.9817 59.7037 41.6077 60.0947 41.2167 60.4007C41.1147 60.1287 40.9617 59.7887 40.7917 59.4657H32.5977V57.7657H33.5497V54.5017H35.2497V57.7657H36.3377V53.6177H38.2077V54.9097H40.6727V56.5077H38.2077V57.7657H41.0977V57.8847C42.1517 56.6947 43.0357 54.9777 43.4777 53.6177H45.2967C46.0787 55.4537 47.3367 57.4937 48.6797 58.3947C48.3227 58.9047 47.9487 59.6867 47.6937 60.3157C47.3367 60.0267 46.9797 59.6867 46.6567 59.2957V60.5877H42.3387ZM47.8467 61.7947V65.9937C47.8467 66.7927 47.7447 67.2857 47.2347 67.6087C46.7247 67.9147 46.1127 67.9487 45.2627 67.9487C45.1947 67.4047 44.9397 66.6397 44.7187 66.1467C45.1777 66.1637 45.6707 66.1637 45.8237 66.1637C45.9767 66.1637 46.0277 66.0957 46.0277 65.9597V63.5457H44.4977V69.4957H42.6277V63.5457H41.3697V61.7947H47.8467Z" fill="#E5005A"/>
<path d="M23.9443 66.725V65.62H21.0033V66.725H23.9443ZM29.3843 61.829V67.337C29.3843 68.272 29.1973 68.816 28.5343 69.122C27.9053 69.428 27.0043 69.445 25.7803 69.445C25.7293 69.054 25.5763 68.527 25.3893 68.085H21.0033V68.85H19.2353V64.277H25.7293V67.575C26.3073 67.592 26.8343 67.592 27.0213 67.575C27.2763 67.558 27.3443 67.507 27.3443 67.303V63.512H17.7223V69.479H15.7503V61.829H29.3843ZM25.0833 59.755V58.718H19.7793V59.755H25.0833ZM17.8583 57.375H27.1403V61.115H17.8583V57.375ZM23.4173 55.012H29.9283V56.729H15.0703V55.012H21.3603V53.584H23.4173V55.012Z" fill="#E5005A"/>
<path d="M126.371 34.0947C127.17 34.0947 127.816 34.7407 127.816 35.5397C127.816 36.3387 127.17 36.9847 126.371 36.9847C125.572 36.9847 124.926 36.3387 124.926 35.5397C124.926 34.7407 125.572 34.0947 126.371 34.0947Z" fill="#E5005A"/>
<path d="M111.444 37.8518H108.979C109.625 38.7188 110.288 39.8748 110.543 40.6568L109.149 41.2518H111.444V37.8518ZM109.523 32.6668H115.66C114.402 31.6468 113.28 30.5418 112.532 29.5218C111.801 30.5418 110.747 31.6468 109.523 32.6668ZM115.932 37.8518L117.87 38.5658C117.224 39.5008 116.561 40.5378 115.966 41.2518H119.808V42.9858H105.426V41.2518H108.741C108.486 40.4868 107.925 39.3478 107.33 38.5148L108.877 37.8518H106.276V36.1178H111.444V34.4348H108.316V33.6018C107.517 34.1798 106.65 34.7238 105.783 35.1828C105.528 34.7068 104.967 33.9758 104.525 33.5508C107.415 32.1398 110.135 29.5898 111.393 27.5498H113.484C115.32 30.1168 118.057 32.2588 120.743 33.3468C120.233 33.8568 119.774 34.5368 119.4 35.1658C118.55 34.7238 117.666 34.1628 116.816 33.5508V34.4348H113.569V36.1178H118.805V37.8518H113.569V41.2518H115.422L114.317 40.7928C114.878 39.9938 115.558 38.7528 115.932 37.8518Z" fill="#E5005A"/>
<path d="M91.5198 37.9198H94.4608V35.3358H91.5198V37.9198ZM102.366 37.9198V39.8578H96.5518V43.4958H94.4608V39.8578H86.8108V37.9198H89.4968V33.4488H94.4608V31.4258H90.8228C90.1258 32.6328 89.3098 33.7208 88.5108 34.5198C88.1198 34.1798 87.2528 33.4998 86.7598 33.2108C88.2898 31.9188 89.5988 29.7428 90.3298 27.5498L92.3868 28.0768C92.2338 28.5528 92.0468 29.0118 91.8258 29.4708H101.431V31.4258H96.5518V33.4488H101.04V35.3358H96.5518V37.9198H102.366Z" fill="#E5005A"/>
<path d="M80.9112 34.8257V32.9387C80.4862 33.5847 79.9932 34.1627 79.4832 34.5707C79.3302 34.2137 78.9902 33.6187 78.7012 33.2957C79.4492 32.7687 80.1972 31.7997 80.6732 30.7797H79.4662V29.2667H80.9112V27.6177H82.5602V29.2667H84.4302V30.7797H82.8662C83.3082 31.7997 83.9882 32.8027 84.7192 33.3637C84.3962 33.6187 83.9372 34.1457 83.6822 34.5027C83.2742 34.1117 82.8832 33.5507 82.5602 32.9217V34.8257H80.9112ZM76.3382 34.8257V32.9047C75.9132 33.5847 75.4372 34.1967 74.9612 34.6557C74.8082 34.2647 74.4172 33.6187 74.1282 33.2957C74.8082 32.7517 75.5052 31.7657 75.9642 30.7797H74.7742V29.2667H76.3382V27.6177H77.9702V29.2667H79.1942V30.7797H77.9702V30.9667C78.2932 31.1707 79.2452 31.9017 79.4832 32.1397L78.5822 33.2617C78.4462 33.0577 78.2252 32.7517 77.9702 32.4457V34.8257H76.3382ZM72.6492 39.5857V35.3697H71.4422V39.5857H72.6492ZM74.3322 41.3197H71.4422V42.5777H69.7932V38.5147C69.6742 38.7187 69.5552 38.9057 69.4192 39.0927C69.2322 38.6337 68.7222 37.6477 68.3652 37.1887C69.4702 35.4887 70.0482 32.9387 70.3882 30.2187H68.8412V28.3827H74.6892V30.2187H72.2412C72.0882 31.3917 71.8842 32.5307 71.6292 33.6357H74.3322V41.3197ZM80.4352 39.8237V41.5237C80.7412 41.5577 81.0642 41.5747 81.4042 41.5747C81.9142 41.5747 84.0222 41.5577 84.7022 41.5577C84.4642 41.9487 84.2432 42.7647 84.1582 43.2407H81.2852C79.2452 43.2407 77.7322 42.8327 76.6952 41.1497C76.2872 42.0677 75.6752 42.8667 74.7572 43.4957C74.5362 43.0707 74.0432 42.4587 73.6182 42.1697C75.3012 41.0647 75.6072 39.1947 75.7262 37.2567H77.5112C77.4602 37.8857 77.4092 38.4977 77.3072 39.0927C77.6132 39.9597 78.0382 40.5377 78.5652 40.9117V36.7977H74.7062V35.1657H82.9342L83.2232 35.0807L84.5152 35.4887C84.2262 36.4067 83.8352 37.4607 83.5122 38.1577L81.9992 37.6477C82.0842 37.4097 82.1862 37.1207 82.2882 36.7977H80.4352V38.2257H83.2402V39.8237H80.4352Z" fill="#E5005A"/>
<path d="M59.5434 38.6507H62.2634C61.8044 38.2087 61.3964 37.7327 61.0394 37.2397H56.2454C55.9054 37.7327 55.4804 38.2087 55.0384 38.6507H57.4864V37.5967H59.5434V38.6507ZM55.9054 34.8257V35.5907H61.2264V34.8257H55.9054ZM61.2264 30.5247H55.9054V31.2727H61.2264V30.5247ZM55.9054 32.6667V33.4147H61.2264V32.6667H55.9054ZM66.4454 37.2397H63.3344C64.2354 38.0557 65.4254 38.7867 66.6494 39.2117C66.2074 39.5857 65.5954 40.2827 65.3064 40.7757C64.3884 40.3507 63.4704 39.7387 62.6374 38.9907V40.2487H59.5434V41.3537H65.1024V43.0197H52.1484V41.3537H57.4864V40.2487H54.4774V39.1947C53.6444 39.9087 52.7264 40.5037 51.7744 40.9287C51.4854 40.4527 50.9074 39.7557 50.4824 39.3817C51.7234 38.9227 52.9814 38.1407 53.9164 37.2397H50.6524V35.5907H53.8824V30.5247H51.5364V28.8927H53.8824V27.6177H55.9054V28.8927H61.2264V27.6177H63.3004V28.8927H65.6294V30.5247H63.3004V35.5907H66.4454V37.2397Z" fill="#E5005A"/>
<path d="M39.2617 40.9117V33.9077H40.8257V43.2577H39.2617V42.4417H34.6377V43.4617H33.1417V33.9077H34.6377V40.9117H39.2617ZM36.3547 40.6567V38.8037C36.0487 39.4327 35.6577 39.9937 35.2497 40.3677C35.1477 40.0107 34.9097 39.4497 34.7227 39.1267C35.1477 38.8037 35.5897 38.2257 35.9127 37.6307H34.9267V36.4577H36.3547V34.0777H37.5447V36.4577H38.9557V37.6307H37.7487C38.1907 38.0557 38.9387 38.7867 39.1597 39.0247L38.4287 39.8747C38.2587 39.5857 37.8847 39.1097 37.5447 38.6677V40.6567H36.3547ZM36.2527 35.9817L35.3007 36.2877C35.2327 35.8627 35.0287 35.1657 34.7907 34.6557L35.6917 34.3837C35.9467 34.8767 36.1677 35.5567 36.2527 35.9817ZM38.2077 34.4347L39.1937 34.7237C38.9047 35.3187 38.6327 35.8627 38.3947 36.2707L37.5617 36.0327C37.7997 35.5737 38.0717 34.8937 38.2077 34.4347ZM42.6787 32.8707H46.2997C45.5177 31.8677 44.8717 30.6947 44.4637 29.7087C44.0727 30.6777 43.4437 31.8507 42.6787 32.8707ZM42.3387 34.5877V33.2787C41.9817 33.7037 41.6077 34.0947 41.2167 34.4007C41.1147 34.1287 40.9617 33.7887 40.7917 33.4657H32.5977V31.7657H33.5497V28.5017H35.2497V31.7657H36.3377V27.6177H38.2077V28.9097H40.6727V30.5077H38.2077V31.7657H41.0977V31.8847C42.1517 30.6947 43.0357 28.9777 43.4777 27.6177H45.2967C46.0787 29.4537 47.3367 31.4937 48.6797 32.3947C48.3227 32.9047 47.9487 33.6867 47.6937 34.3157C47.3367 34.0267 46.9797 33.6867 46.6567 33.2957V34.5877H42.3387ZM47.8467 35.7947V39.9937C47.8467 40.7927 47.7447 41.2857 47.2347 41.6087C46.7247 41.9147 46.1127 41.9487 45.2627 41.9487C45.1947 41.4047 44.9397 40.6397 44.7187 40.1467C45.1777 40.1637 45.6707 40.1637 45.8237 40.1637C45.9767 40.1637 46.0277 40.0957 46.0277 39.9597V37.5457H44.4977V43.4957H42.6277V37.5457H41.3697V35.7947H47.8467Z" fill="#E5005A"/>
<path d="M22.2788 31.494V33.16H23.3158C23.9618 32.633 24.5568 32.072 25.1178 31.494H22.2788ZM30.2008 35.047H24.1488C23.2138 35.812 22.2278 36.492 21.2248 37.155V38.005C23.2818 37.478 25.3558 36.798 26.6988 36.152L28.3818 37.631C26.3078 38.447 23.6558 39.161 21.2248 39.705V40.64C21.2248 41.303 21.4288 41.405 22.6698 41.405H26.3588C27.4128 41.405 27.5998 41.099 27.7188 39.314C28.1948 39.62 29.0618 39.943 29.6228 40.045C29.3338 42.561 28.7218 43.224 26.5118 43.224H22.5168C19.8648 43.224 19.1338 42.646 19.1338 40.657V38.379C18.0288 38.974 16.8898 39.501 15.7508 39.977C15.4618 39.501 14.7648 38.668 14.3398 38.243C16.6348 37.444 18.8108 36.356 20.7998 35.047H14.7988V33.16H20.1708V31.494H16.3288V29.641H20.1708V27.584H22.2788V29.641H25.9168V30.627C26.5798 29.879 27.1918 29.08 27.7358 28.264L29.6228 29.165C28.6368 30.593 27.5148 31.936 26.2738 33.16H30.2008V35.047Z" fill="#E5005A"/>
</svg>
