<svg width="370" height="180" viewBox="0 0 370 180" fill="none" xmlns="http://www.w3.org/2000/svg">
<path d="M0 0H370V180H0V0Z" fill="white"/>
<mask id="mask0_1827_25314" style="mask-type:alpha" maskUnits="userSpaceOnUse" x="0" y="0" width="370" height="180">
<path d="M0 0H370V180H0V0Z" fill="white"/>
</mask>
<g mask="url(#mask0_1827_25314)">
<path fill-rule="evenodd" clip-rule="evenodd" d="M332.443 -5.01438C332.443 13.2031 318.026 49.7653 300.242 49.7653C282.458 49.7653 268.041 13.2031 268.041 -5.01438C268.041 -23.2318 282.458 -38 300.242 -38C318.026 -38 332.443 -23.2318 332.443 -5.01438ZM366.785 110.986C356.618 96.0394 324.383 74.4858 309.792 84.9014C295.201 95.3169 303.78 133.758 313.947 148.704C324.115 163.65 344.186 167.323 358.777 156.907C373.368 146.492 376.953 125.932 366.785 110.986ZM316.05 63.6223C320.543 81.2488 358.72 86.3009 375.927 81.6985C393.134 77.096 403.441 59.0759 398.948 41.4494C394.456 23.8229 376.864 13.2648 359.657 17.8672C342.45 22.4697 311.557 45.9958 316.05 63.6223ZM221.419 77.0826C238.361 82.6216 276.747 79.6693 282.155 62.3144C287.562 44.9594 257.943 19.7736 241 14.2346C224.058 8.69563 205.94 18.2744 200.533 35.6293C195.126 52.9843 204.477 71.5436 221.419 77.0826ZM283.328 82.6362C298.707 91.7839 293.252 130.818 284.322 146.572C275.392 162.327 255.685 167.682 240.306 158.534C224.926 149.387 219.698 129.2 228.628 113.445C237.558 97.6913 267.948 73.4884 283.328 82.6362Z" fill="#FAF1F5"/>
</g>
<path d="M237.104 92.3639H239.456C239.48 92.1479 239.48 91.9319 239.48 91.7159V90.2039H237.104V92.3639ZM244.568 90.2039H242.048V91.7879C242.048 91.9799 242.048 92.1719 242.048 92.3639H244.568V90.2039ZM237.92 84.2279H243.728C242.552 83.2679 241.472 82.1879 240.728 81.1559C240.056 82.1639 239.072 83.2439 237.92 84.2279ZM247.136 94.5479H242.84C244.256 97.1879 246.056 98.0999 248.432 98.8439C247.784 99.4439 247.112 100.38 246.8 101.22C244.4 100.308 242.504 99.0839 241.04 96.4679C240.008 98.3879 238.064 100.116 234.464 101.244C234.2 100.668 233.408 99.5879 232.952 99.1319C236.816 97.9559 238.424 96.3239 239.072 94.5479H234.632V88.0439H239.48V86.5799H236.432V85.3559C235.736 85.8359 235.016 86.2679 234.296 86.6279C234.032 86.0039 233.552 85.1399 233.12 84.5159C232.784 85.4999 232.448 86.4839 232.136 87.2999C233.672 89.1239 233.984 90.7079 233.984 92.0999C233.984 93.6119 233.672 94.6199 232.88 95.1719C232.496 95.4359 232.016 95.5799 231.488 95.6519C231.032 95.7239 230.456 95.7479 229.856 95.7239C229.856 95.0279 229.64 93.9239 229.232 93.2279C229.688 93.2759 230.048 93.2759 230.336 93.2519C230.6 93.2519 230.864 93.2039 231.032 93.0839C231.32 92.8679 231.44 92.4119 231.44 91.7159C231.44 90.6359 231.08 89.1959 229.688 87.6119C230.192 86.0759 230.72 83.9399 231.128 82.2839H229.184V101.124H226.712V79.7399H232.016L232.424 79.6199L234.32 80.7239C234.008 81.7799 233.624 82.9799 233.24 84.1559C235.784 82.9799 238.184 80.6999 239.36 78.7319H241.952C243.608 81.0119 246.104 83.0039 248.6 83.9159C248.072 84.5879 247.52 85.6439 247.136 86.4119C246.536 86.1239 245.888 85.7399 245.264 85.3319V86.5799H242.048V88.0439H247.136V94.5479Z" fill="#E5005A"/>
<path d="M205.64 78.7563L208.28 79.6203C207.656 81.1803 206.912 82.8123 206.048 84.3483V101.076H203.336V88.5243C202.736 89.2923 202.136 90.0123 201.512 90.6603C201.248 89.9643 200.456 88.4283 199.976 87.7323C202.208 85.5723 204.392 82.1643 205.64 78.7563ZM211.472 82.2603V85.4763H218.504V82.2603H211.472ZM222.536 92.7483H217.736C219.152 94.8363 221.216 96.8043 223.232 97.9803C222.584 98.5323 221.672 99.5403 221.216 100.26C219.464 99.0123 217.712 97.0683 216.344 94.9323V101.124H213.464V95.0523C212 97.1643 210.176 98.9883 208.28 100.212C207.848 99.5163 206.96 98.4843 206.312 97.9323C208.472 96.8043 210.608 94.8603 212.096 92.7483H207.176V90.1563H213.464V87.9963H208.76V79.7403H221.36V87.9963H216.344V90.1563H222.536V92.7483Z" fill="#E5005A"/>
<path d="M181.711 90.3962V91.9802C184.063 91.8602 186.607 91.7162 189.151 91.5722C189.463 91.3322 189.751 91.0682 190.039 90.8282V90.3962H181.711ZM190.039 83.4362H181.711V84.8282H190.039V83.4362ZM190.039 88.3082V86.8682H181.711V88.3082H190.039ZM194.215 85.8842L196.975 87.2282C195.823 89.0042 194.479 90.5882 192.991 92.0522V97.6442C192.991 99.2762 192.679 100.14 191.623 100.596C190.567 101.076 189.031 101.148 186.727 101.124C186.607 100.284 186.127 98.9402 185.719 98.1242C187.207 98.2202 188.911 98.1962 189.391 98.1722C189.871 98.1722 190.039 98.0282 190.039 97.6202V94.5482C186.223 97.4042 181.735 99.4922 176.911 100.932C176.503 100.236 175.543 98.9642 174.991 98.3162C178.639 97.4042 182.047 96.0842 185.047 94.3802C181.591 94.6682 178.303 94.9322 175.711 95.1002L175.327 92.2682C176.359 92.2202 177.535 92.1722 178.855 92.1242V80.9882H183.823C184.135 80.1722 184.423 79.3322 184.591 78.6602L188.095 78.9962C187.759 79.6922 187.375 80.3642 187.015 80.9882H192.991V87.6362C193.423 87.0842 193.831 86.4842 194.215 85.8842Z" fill="#E5005A"/>
<path d="M150.32 92.748L152.672 93.156C152.432 95.412 151.928 97.812 151.232 99.348C150.728 99.036 149.672 98.532 149.048 98.316C149.744 96.9 150.128 94.764 150.32 92.748ZM155.528 93.18L157.544 92.556C158.144 93.924 158.768 95.676 159.032 96.876L156.92 97.644C156.704 96.444 156.08 94.596 155.528 93.18ZM159.44 97.524L161.096 95.508C164.192 96.348 167.912 97.908 170.12 99.108L168.464 101.34C166.376 100.02 162.56 98.412 159.44 97.524ZM162.032 93.252L163.64 91.452C165.368 92.124 167.432 93.204 168.608 94.068L166.952 96.06C165.824 95.148 163.736 93.924 162.032 93.252ZM167.048 83.436H162.872C163.448 84.372 164.144 85.284 164.96 86.148C165.776 85.308 166.472 84.396 167.048 83.436ZM168.992 80.892L170.768 81.876C169.856 84.18 168.512 86.172 166.904 87.876C168.488 89.1 170.312 90.084 172.232 90.708C171.632 91.284 170.816 92.34 170.432 93.036C168.44 92.244 166.616 91.092 164.984 89.652C163.304 91.044 161.456 92.124 159.584 92.916C159.416 92.556 159.104 92.076 158.744 91.62L156.992 92.412C156.92 92.076 156.824 91.668 156.704 91.236L155.48 91.332V101.148H153.008V91.5L149.528 91.716L149.288 89.244L151.016 89.172C151.376 88.716 151.76 88.188 152.144 87.636C151.448 86.604 150.296 85.332 149.312 84.372L150.68 82.428C150.848 82.572 151.04 82.74 151.232 82.908C151.904 81.588 152.576 80.004 152.984 78.732L155.456 79.644C154.592 81.276 153.632 83.124 152.768 84.468C153.08 84.804 153.344 85.14 153.584 85.428C154.4 84.084 155.168 82.716 155.72 81.54L158.048 82.62C156.728 84.708 155.072 87.132 153.56 89.076L155.864 88.98C155.6 88.38 155.312 87.78 155.024 87.252L156.92 86.46C157.592 87.66 158.264 89.1 158.672 90.324C160.256 89.676 161.768 88.812 163.112 87.78C162.44 87.036 161.84 86.22 161.288 85.38C160.64 86.1 159.944 86.796 159.152 87.444C158.72 86.844 157.808 85.956 157.184 85.596C159.8 83.604 161.504 80.964 162.392 78.708L165.176 79.164C164.912 79.764 164.624 80.388 164.288 80.988H168.56L168.992 80.892Z" fill="#E5005A"/>
<path d="M133.673 79.9082C134.585 82.4042 135.713 84.7082 136.673 86.5562C138.641 85.4042 140.729 84.3722 141.857 83.7242C142.769 83.1962 143.465 82.7882 144.089 82.2602L145.745 85.0442C145.025 85.4762 144.257 85.8842 143.369 86.3402C141.881 87.0842 138.857 88.4762 136.673 89.8922C134.681 91.2122 133.337 92.5802 133.337 94.2602C133.337 95.9882 134.993 96.9002 138.329 96.9002C140.801 96.9002 144.041 96.5402 146.177 96.0122L146.129 99.4682C144.089 99.8282 141.545 100.068 138.425 100.068C133.649 100.068 130.025 98.7482 130.025 94.6202C130.025 91.9802 131.705 89.9882 134.009 88.2842C132.905 86.2442 131.753 83.6762 130.673 81.1322L133.673 79.9082Z" fill="#E5005A"/>
<path d="M113.888 92.3639H116.24C116.264 92.1479 116.264 91.9319 116.264 91.7159V90.2039H113.888V92.3639ZM121.352 90.2039H118.832V91.7879C118.832 91.9799 118.832 92.1719 118.832 92.3639H121.352V90.2039ZM114.704 84.2279H120.512C119.336 83.2679 118.256 82.1879 117.512 81.1559C116.84 82.1639 115.856 83.2439 114.704 84.2279ZM123.92 94.5479H119.624C121.04 97.1879 122.84 98.0999 125.216 98.8439C124.568 99.4439 123.896 100.38 123.584 101.22C121.184 100.308 119.288 99.0839 117.824 96.4679C116.792 98.3879 114.848 100.116 111.248 101.244C110.984 100.668 110.192 99.5879 109.736 99.1319C113.6 97.9559 115.208 96.3239 115.856 94.5479H111.416V88.0439H116.264V86.5799H113.216V85.3559C112.52 85.8359 111.8 86.2679 111.08 86.6279C110.816 86.0039 110.336 85.1399 109.904 84.5159C109.568 85.4999 109.232 86.4839 108.92 87.2999C110.456 89.1239 110.768 90.7079 110.768 92.0999C110.768 93.6119 110.456 94.6199 109.664 95.1719C109.28 95.4359 108.8 95.5799 108.272 95.6519C107.816 95.7239 107.24 95.7479 106.64 95.7239C106.64 95.0279 106.424 93.9239 106.016 93.2279C106.472 93.2759 106.832 93.2759 107.12 93.2519C107.384 93.2519 107.648 93.2039 107.816 93.0839C108.104 92.8679 108.224 92.4119 108.224 91.7159C108.224 90.6359 107.864 89.1959 106.472 87.6119C106.976 86.0759 107.504 83.9399 107.912 82.2839H105.968V101.124H103.496V79.7399H108.8L109.208 79.6199L111.104 80.7239C110.792 81.7799 110.408 82.9799 110.024 84.1559C112.568 82.9799 114.968 80.6999 116.144 78.7319H118.736C120.392 81.0119 122.888 83.0039 125.384 83.9159C124.856 84.5879 124.304 85.6439 123.92 86.4119C123.32 86.1239 122.672 85.7399 122.048 85.3319V86.5799H118.832V88.0439H123.92V94.5479Z" fill="#E5005A"/>
<path d="M82.4238 78.7563L85.0638 79.6203C84.4398 81.1803 83.6958 82.8123 82.8318 84.3483V101.076H80.1198V88.5243C79.5198 89.2923 78.9198 90.0123 78.2958 90.6603C78.0318 89.9643 77.2398 88.4283 76.7598 87.7323C78.9918 85.5723 81.1758 82.1643 82.4238 78.7563ZM88.2558 82.2603V85.4763H95.2878V82.2603H88.2558ZM99.3198 92.7483H94.5198C95.9358 94.8363 97.9998 96.8043 100.016 97.9803C99.3678 98.5323 98.4558 99.5403 97.9998 100.26C96.2478 99.0123 94.4958 97.0683 93.1278 94.9323V101.124H90.2478V95.0523C88.7838 97.1643 86.9598 98.9883 85.0638 100.212C84.6318 99.5163 83.7438 98.4843 83.0958 97.9323C85.2558 96.8043 87.3918 94.8603 88.8798 92.7483H83.9598V90.1563H90.2478V87.9963H85.5438V79.7403H98.1438V87.9963H93.1278V90.1563H99.3198V92.7483Z" fill="#E5005A"/>
<path d="M56.3604 91.3081V92.9401H59.3364V91.3081H56.3604ZM59.3364 84.0361H56.3604V85.4281H59.3364V84.0361ZM56.3604 87.6121V89.1241H59.3364V87.6121H56.3604ZM63.4164 92.9401V95.4361H51.6324V92.9401H53.7924V84.0361H51.9204V81.5401H53.7924V78.9961H56.3604V81.5401H59.3364V78.9961H61.9524V81.5401H63.5844V84.0361H61.9524V92.9401H63.4164ZM54.6084 95.6041L57.2724 96.3961C56.4324 98.1481 55.0164 100.02 53.7204 101.196C53.1924 100.692 52.0884 99.8761 51.4404 99.4921C52.6884 98.5561 53.9364 97.0441 54.6084 95.6041ZM67.0404 90.6361H70.5204V87.6841H67.0644V88.5721C67.0644 89.1961 67.0644 89.8921 67.0404 90.6361ZM70.5204 82.3561H67.0644V85.1641H70.5204V82.3561ZM73.2804 79.7641V97.9561C73.2804 99.3721 73.0164 100.116 72.1764 100.572C71.3364 101.028 70.1124 101.1 68.3364 101.076C68.2404 100.332 67.8804 99.0841 67.5204 98.3641C68.5524 98.4361 69.7044 98.4121 70.0404 98.4121C70.4004 98.4121 70.5204 98.2921 70.5204 97.9081V93.1801H66.8724C66.6084 96.0121 66.0084 99.0121 64.7124 101.172C64.2564 100.668 63.0804 99.8041 62.4564 99.5641C62.5284 99.4201 62.6244 99.3001 62.6964 99.1561L60.7044 100.284C60.2244 99.3481 59.0724 97.7641 58.1364 96.6601L60.2964 95.4841C61.1604 96.4441 62.2884 97.7641 62.8884 98.7481C64.2804 95.7481 64.4004 91.6921 64.4004 88.5721V79.7641H73.2804Z" fill="#E5005A"/>
<path d="M29.96 83.8439V87.1319H27.152V81.1319H35.864V78.7319H38.888V81.1319H47.672V87.1319H44.72V83.8439H29.96ZM38.864 94.3079V97.8839C39.728 97.9799 40.64 98.0279 41.6 98.0279C42.896 98.0279 46.856 98.0279 48.464 97.9559C48.056 98.6519 47.6 100.02 47.456 100.86H41.456C37.04 100.86 33.752 100.14 31.544 96.7319C30.776 98.5559 29.72 100.092 28.352 101.268C27.872 100.764 26.672 99.7559 26 99.3239C28.592 97.4039 29.768 94.0919 30.2 89.9879L33.176 90.2759C33.032 91.3559 32.864 92.3639 32.648 93.3239C33.368 95.2439 34.496 96.3959 35.912 97.0919V88.6199H30.8V85.9079H44V88.6199H38.864V91.6199H45.464V94.3079H38.864Z" fill="#E5005A"/>
</svg>
