<svg width="370" height="180" viewBox="0 0 370 180" fill="none" xmlns="http://www.w3.org/2000/svg">
<rect width="370" height="180" fill="white"/>
<mask id="mask0_1523_25593" style="mask-type:alpha" maskUnits="userSpaceOnUse" x="0" y="0" width="370" height="180">
<rect x="2" y="2" width="366" height="176" rx="8" fill="white" stroke="#FAF1F5" stroke-width="4"/>
</mask>
<g mask="url(#mask0_1523_25593)">
<path fill-rule="evenodd" clip-rule="evenodd" d="M332.443 -5.01438C332.443 13.2031 318.026 49.7653 300.242 49.7653C282.458 49.7653 268.041 13.2031 268.041 -5.01438C268.041 -23.2318 282.458 -38 300.242 -38C318.026 -38 332.443 -23.2318 332.443 -5.01438ZM366.785 110.986C356.618 96.0394 324.383 74.4858 309.792 84.9014C295.201 95.3169 303.78 133.758 313.947 148.704C324.115 163.65 344.186 167.323 358.777 156.907C373.368 146.492 376.953 125.932 366.785 110.986ZM316.05 63.6223C320.543 81.2488 358.72 86.3009 375.927 81.6985C393.134 77.096 403.441 59.0759 398.948 41.4494C394.456 23.8229 376.864 13.2648 359.657 17.8672C342.45 22.4697 311.557 45.9958 316.05 63.6223ZM221.419 77.0826C238.361 82.6216 276.747 79.6693 282.155 62.3144C287.562 44.9594 257.943 19.7736 241 14.2346C224.058 8.69563 205.94 18.2744 200.533 35.6293C195.126 52.9843 204.477 71.5436 221.419 77.0826ZM283.328 82.6362C298.707 91.7839 293.252 130.818 284.322 146.572C275.392 162.327 255.685 167.682 240.306 158.534C224.926 149.387 219.698 129.2 228.628 113.445C237.558 97.6913 267.948 73.4884 283.328 82.6362Z" fill="#FAF1F5"/>
</g>
<path d="M30.56 84.808V88.096H27.752V82.096H36.464V79.696H39.488V82.096H48.272V88.096H45.32V84.808H30.56ZM39.464 95.272V98.848C40.328 98.944 41.24 98.992 42.2 98.992C43.496 98.992 47.456 98.992 49.064 98.92C48.656 99.616 48.2 100.984 48.056 101.824H42.056C37.64 101.824 34.352 101.104 32.144 97.696C31.376 99.52 30.32 101.056 28.952 102.232C28.472 101.728 27.272 100.72 26.6 100.288C29.192 98.368 30.368 95.056 30.8 90.952L33.776 91.24C33.632 92.32 33.464 93.328 33.248 94.288C33.968 96.208 35.096 97.36 36.512 98.056V89.584H31.4V86.872H44.6V89.584H39.464V92.584H46.064V95.272H39.464ZM56.96 92.272V93.904H59.936V92.272H56.96ZM59.936 85H56.96V86.392H59.936V85ZM56.96 88.576V90.088H59.936V88.576H56.96ZM64.016 93.904V96.4H52.232V93.904H54.392V85H52.52V82.504H54.392V79.96H56.96V82.504H59.936V79.96H62.552V82.504H64.184V85H62.552V93.904H64.016ZM55.208 96.568L57.872 97.36C57.032 99.112 55.616 100.984 54.32 102.16C53.792 101.656 52.688 100.84 52.04 100.456C53.288 99.52 54.536 98.008 55.208 96.568ZM67.64 91.6H71.12V88.648H67.664V89.536C67.664 90.16 67.664 90.856 67.64 91.6ZM71.12 83.32H67.664V86.128H71.12V83.32ZM73.88 80.728V98.92C73.88 100.336 73.616 101.08 72.776 101.536C71.936 101.992 70.712 102.064 68.936 102.04C68.84 101.296 68.48 100.048 68.12 99.328C69.152 99.4 70.304 99.376 70.64 99.376C71 99.376 71.12 99.256 71.12 98.872V94.144H67.472C67.208 96.976 66.608 99.976 65.312 102.136C64.856 101.632 63.68 100.768 63.056 100.528C63.128 100.384 63.224 100.264 63.296 100.12L61.304 101.248C60.824 100.312 59.672 98.728 58.736 97.624L60.896 96.448C61.76 97.408 62.888 98.728 63.488 99.712C64.88 96.712 65 92.656 65 89.536V80.728H73.88ZM83.024 79.72L85.664 80.584C85.04 82.144 84.296 83.776 83.432 85.312V102.04H80.72V89.488C80.12 90.256 79.52 90.976 78.896 91.624C78.632 90.928 77.84 89.392 77.36 88.696C79.592 86.536 81.776 83.128 83.024 79.72ZM88.856 83.224V86.44H95.888V83.224H88.856ZM99.92 93.712H95.12C96.536 95.8 98.6 97.768 100.616 98.944C99.968 99.496 99.056 100.504 98.6 101.224C96.848 99.976 95.096 98.032 93.728 95.896V102.088H90.848V96.016C89.384 98.128 87.56 99.952 85.664 101.176C85.232 100.48 84.344 99.448 83.696 98.896C85.856 97.768 87.992 95.824 89.48 93.712H84.56V91.12H90.848V88.96H86.144V80.704H98.744V88.96H93.728V91.12H99.92V93.712ZM114.488 93.328H116.84C116.864 93.112 116.864 92.896 116.864 92.68V91.168H114.488V93.328ZM121.952 91.168H119.432V92.752C119.432 92.944 119.432 93.136 119.432 93.328H121.952V91.168ZM115.304 85.192H121.112C119.936 84.232 118.856 83.152 118.112 82.12C117.44 83.128 116.456 84.208 115.304 85.192ZM124.52 95.512H120.224C121.64 98.152 123.44 99.064 125.816 99.808C125.168 100.408 124.496 101.344 124.184 102.184C121.784 101.272 119.888 100.048 118.424 97.432C117.392 99.352 115.448 101.08 111.848 102.208C111.584 101.632 110.792 100.552 110.336 100.096C114.2 98.92 115.808 97.288 116.456 95.512H112.016V89.008H116.864V87.544H113.816V86.32C113.12 86.8 112.4 87.232 111.68 87.592C111.416 86.968 110.936 86.104 110.504 85.48C110.168 86.464 109.832 87.448 109.52 88.264C111.056 90.088 111.368 91.672 111.368 93.064C111.368 94.576 111.056 95.584 110.264 96.136C109.88 96.4 109.4 96.544 108.872 96.616C108.416 96.688 107.84 96.712 107.24 96.688C107.24 95.992 107.024 94.888 106.616 94.192C107.072 94.24 107.432 94.24 107.72 94.216C107.984 94.216 108.248 94.168 108.416 94.048C108.704 93.832 108.824 93.376 108.824 92.68C108.824 91.6 108.464 90.16 107.072 88.576C107.576 87.04 108.104 84.904 108.512 83.248H106.568V102.088H104.096V80.704H109.4L109.808 80.584L111.704 81.688C111.392 82.744 111.008 83.944 110.624 85.12C113.168 83.944 115.568 81.664 116.744 79.696H119.336C120.992 81.976 123.488 83.968 125.984 84.88C125.456 85.552 124.904 86.608 124.52 87.376C123.92 87.088 123.272 86.704 122.648 86.296V87.544H119.432V89.008H124.52V95.512ZM134.274 80.872C135.186 83.368 136.314 85.672 137.274 87.52C139.242 86.368 141.33 85.336 142.458 84.688C143.37 84.16 144.066 83.752 144.69 83.224L146.346 86.008C145.626 86.44 144.858 86.848 143.97 87.304C142.482 88.048 139.458 89.44 137.274 90.856C135.282 92.176 133.938 93.544 133.938 95.224C133.938 96.952 135.594 97.864 138.93 97.864C141.402 97.864 144.642 97.504 146.778 96.976L146.73 100.432C144.69 100.792 142.146 101.032 139.026 101.032C134.25 101.032 130.626 99.712 130.626 95.584C130.626 92.944 132.306 90.952 134.61 89.248C133.506 87.208 132.354 84.64 131.274 82.096L134.274 80.872ZM150.92 93.712L153.272 94.12C153.032 96.376 152.528 98.776 151.832 100.312C151.328 100 150.272 99.496 149.648 99.28C150.344 97.864 150.728 95.728 150.92 93.712ZM156.128 94.144L158.144 93.52C158.744 94.888 159.368 96.64 159.632 97.84L157.52 98.608C157.304 97.408 156.68 95.56 156.128 94.144ZM160.04 98.488L161.696 96.472C164.792 97.312 168.512 98.872 170.72 100.072L169.064 102.304C166.976 100.984 163.16 99.376 160.04 98.488ZM162.632 94.216L164.24 92.416C165.968 93.088 168.032 94.168 169.208 95.032L167.552 97.024C166.424 96.112 164.336 94.888 162.632 94.216ZM167.648 84.4H163.472C164.048 85.336 164.744 86.248 165.56 87.112C166.376 86.272 167.072 85.36 167.648 84.4ZM169.592 81.856L171.368 82.84C170.456 85.144 169.112 87.136 167.504 88.84C169.088 90.064 170.912 91.048 172.832 91.672C172.232 92.248 171.416 93.304 171.032 94C169.04 93.208 167.216 92.056 165.584 90.616C163.904 92.008 162.056 93.088 160.184 93.88C160.016 93.52 159.704 93.04 159.344 92.584L157.592 93.376C157.52 93.04 157.424 92.632 157.304 92.2L156.08 92.296V102.112H153.608V92.464L150.128 92.68L149.888 90.208L151.616 90.136C151.976 89.68 152.36 89.152 152.744 88.6C152.048 87.568 150.896 86.296 149.912 85.336L151.28 83.392C151.448 83.536 151.64 83.704 151.832 83.872C152.504 82.552 153.176 80.968 153.584 79.696L156.056 80.608C155.192 82.24 154.232 84.088 153.368 85.432C153.68 85.768 153.944 86.104 154.184 86.392C155 85.048 155.768 83.68 156.32 82.504L158.648 83.584C157.328 85.672 155.672 88.096 154.16 90.04L156.464 89.944C156.2 89.344 155.912 88.744 155.624 88.216L157.52 87.424C158.192 88.624 158.864 90.064 159.272 91.288C160.856 90.64 162.368 89.776 163.712 88.744C163.04 88 162.44 87.184 161.888 86.344C161.24 87.064 160.544 87.76 159.752 88.408C159.32 87.808 158.408 86.92 157.784 86.56C160.4 84.568 162.104 81.928 162.992 79.672L165.776 80.128C165.512 80.728 165.224 81.352 164.888 81.952H169.16L169.592 81.856ZM182.312 91.36V92.944C184.664 92.824 187.208 92.68 189.752 92.536C190.064 92.296 190.352 92.032 190.64 91.792V91.36H182.312ZM190.64 84.4H182.312V85.792H190.64V84.4ZM190.64 89.272V87.832H182.312V89.272H190.64ZM194.816 86.848L197.576 88.192C196.424 89.968 195.08 91.552 193.592 93.016V98.608C193.592 100.24 193.28 101.104 192.224 101.56C191.168 102.04 189.632 102.112 187.328 102.088C187.208 101.248 186.728 99.904 186.32 99.088C187.808 99.184 189.512 99.16 189.992 99.136C190.472 99.136 190.64 98.992 190.64 98.584V95.512C186.824 98.368 182.336 100.456 177.512 101.896C177.104 101.2 176.144 99.928 175.592 99.28C179.24 98.368 182.648 97.048 185.648 95.344C182.192 95.632 178.904 95.896 176.312 96.064L175.928 93.232C176.96 93.184 178.136 93.136 179.456 93.088V81.952H184.424C184.736 81.136 185.024 80.296 185.192 79.624L188.696 79.96C188.36 80.656 187.976 81.328 187.616 81.952H193.592V88.6C194.024 88.048 194.432 87.448 194.816 86.848ZM206.24 79.72L208.88 80.584C208.256 82.144 207.512 83.776 206.648 85.312V102.04H203.936V89.488C203.336 90.256 202.736 90.976 202.112 91.624C201.848 90.928 201.056 89.392 200.576 88.696C202.808 86.536 204.992 83.128 206.24 79.72ZM212.072 83.224V86.44H219.104V83.224H212.072ZM223.136 93.712H218.336C219.752 95.8 221.816 97.768 223.832 98.944C223.184 99.496 222.272 100.504 221.816 101.224C220.064 99.976 218.312 98.032 216.944 95.896V102.088H214.064V96.016C212.6 98.128 210.776 99.952 208.88 101.176C208.448 100.48 207.56 99.448 206.912 98.896C209.072 97.768 211.208 95.824 212.696 93.712H207.776V91.12H214.064V88.96H209.36V80.704H221.96V88.96H216.944V91.12H223.136V93.712ZM237.704 93.328H240.056C240.08 93.112 240.08 92.896 240.08 92.68V91.168H237.704V93.328ZM245.168 91.168H242.648V92.752C242.648 92.944 242.648 93.136 242.648 93.328H245.168V91.168ZM238.52 85.192H244.328C243.152 84.232 242.072 83.152 241.328 82.12C240.656 83.128 239.672 84.208 238.52 85.192ZM247.736 95.512H243.44C244.856 98.152 246.656 99.064 249.032 99.808C248.384 100.408 247.712 101.344 247.4 102.184C245 101.272 243.104 100.048 241.64 97.432C240.608 99.352 238.664 101.08 235.064 102.208C234.8 101.632 234.008 100.552 233.552 100.096C237.416 98.92 239.024 97.288 239.672 95.512H235.232V89.008H240.08V87.544H237.032V86.32C236.336 86.8 235.616 87.232 234.896 87.592C234.632 86.968 234.152 86.104 233.72 85.48C233.384 86.464 233.048 87.448 232.736 88.264C234.272 90.088 234.584 91.672 234.584 93.064C234.584 94.576 234.272 95.584 233.48 96.136C233.096 96.4 232.616 96.544 232.088 96.616C231.632 96.688 231.056 96.712 230.456 96.688C230.456 95.992 230.24 94.888 229.832 94.192C230.288 94.24 230.648 94.24 230.936 94.216C231.2 94.216 231.464 94.168 231.632 94.048C231.92 93.832 232.04 93.376 232.04 92.68C232.04 91.6 231.68 90.16 230.288 88.576C230.792 87.04 231.32 84.904 231.728 83.248H229.784V102.088H227.312V80.704H232.616L233.024 80.584L234.92 81.688C234.608 82.744 234.224 83.944 233.84 85.12C236.384 83.944 238.784 81.664 239.96 79.696H242.552C244.208 81.976 246.704 83.968 249.2 84.88C248.672 85.552 248.12 86.608 247.736 87.376C247.136 87.088 246.488 86.704 245.864 86.296V87.544H242.648V89.008H247.736V95.512Z" fill="#E5005A"/>
</svg>
