<svg width="196" height="120" viewBox="0 0 196 120" fill="none" xmlns="http://www.w3.org/2000/svg">
<path d="M0 0H196V120H0V0Z" fill="white"/>
<mask id="mask0_1827_25490" style="mask-type:alpha" maskUnits="userSpaceOnUse" x="0" y="0" width="196" height="120">
<path d="M0 0H196V120H0V0Z" fill="white"/>
</mask>
<g mask="url(#mask0_1827_25490)">
<path fill-rule="evenodd" clip-rule="evenodd" d="M165.634 15.6622C165.634 27.6259 156.166 51.6369 144.487 51.6369C132.808 51.6369 123.34 27.6259 123.34 15.6622C123.34 3.6985 132.808 -6 144.487 -6C156.166 -6 165.634 3.6985 165.634 15.6622ZM188.187 91.8413C181.51 82.0258 160.341 67.8713 150.759 74.7113C141.177 81.5514 146.81 106.796 153.488 116.611C160.165 126.427 173.346 128.839 182.928 121.999C192.51 115.159 194.865 101.657 188.187 91.8413ZM154.869 60.737C157.819 72.3126 182.891 75.6304 194.191 72.6079C205.491 69.5855 212.26 57.7514 209.309 46.1757C206.359 34.6001 194.806 27.6664 183.506 30.6889C172.206 33.7114 151.918 49.1614 154.869 60.737ZM92.7229 69.5766C103.849 73.2142 129.058 71.2754 132.609 59.8781C136.16 48.4808 116.709 31.9409 105.582 28.3033C94.4561 24.6658 82.5579 30.9563 79.0069 42.3536C75.4558 53.7509 81.5967 65.9391 92.7229 69.5766ZM133.379 73.2237C143.479 79.2312 139.897 104.866 134.032 115.212C128.168 125.558 115.226 129.075 105.126 123.067C95.0261 117.06 91.5926 103.803 97.4572 93.4567C103.322 83.1107 123.279 67.2163 133.379 73.2237Z" fill="#FAF1F5"/>
</g>
<path d="M163.957 61.2737H165.623C165.64 61.1207 165.64 60.9677 165.64 60.8147V59.7437H163.957V61.2737ZM169.244 59.7437H167.459V60.8657C167.459 61.0017 167.459 61.1377 167.459 61.2737H169.244V59.7437ZM164.535 55.5107H168.649C167.816 54.8307 167.051 54.0657 166.524 53.3347C166.048 54.0487 165.351 54.8137 164.535 55.5107ZM171.063 62.8207H168.02C169.023 64.6907 170.298 65.3367 171.981 65.8637C171.522 66.2887 171.046 66.9517 170.825 67.5467C169.125 66.9007 167.782 66.0337 166.745 64.1807C166.014 65.5407 164.637 66.7647 162.087 67.5637C161.9 67.1557 161.339 66.3907 161.016 66.0677C163.753 65.2347 164.892 64.0787 165.351 62.8207H162.206V58.2137H165.64V57.1767H163.481V56.3097C162.988 56.6497 162.478 56.9557 161.968 57.2107C161.781 56.7687 161.441 56.1567 161.135 55.7147C160.897 56.4117 160.659 57.1087 160.438 57.6867C161.526 58.9787 161.747 60.1007 161.747 61.0867C161.747 62.1577 161.526 62.8717 160.965 63.2627C160.693 63.4497 160.353 63.5517 159.979 63.6027C159.656 63.6537 159.248 63.6707 158.823 63.6537C158.823 63.1607 158.67 62.3787 158.381 61.8857C158.704 61.9197 158.959 61.9197 159.163 61.9027C159.35 61.9027 159.537 61.8687 159.656 61.7837C159.86 61.6307 159.945 61.3077 159.945 60.8147C159.945 60.0497 159.69 59.0297 158.704 57.9077C159.061 56.8197 159.435 55.3067 159.724 54.1337H158.347V67.4787H156.596V52.3317H160.353L160.642 52.2467L161.985 53.0287C161.764 53.7767 161.492 54.6267 161.22 55.4597C163.022 54.6267 164.722 53.0117 165.555 51.6177H167.391C168.564 53.2327 170.332 54.6437 172.1 55.2897C171.726 55.7657 171.335 56.5137 171.063 57.0577C170.638 56.8537 170.179 56.5817 169.737 56.2927V57.1767H167.459V58.2137H171.063V62.8207Z" fill="#E5005A"/>
<path d="M141.669 51.6348L143.539 52.2468C143.097 53.3518 142.57 54.5078 141.958 55.5958V67.4448H140.037V58.5538C139.612 59.0978 139.187 59.6078 138.745 60.0668C138.558 59.5738 137.997 58.4858 137.657 57.9928C139.238 56.4628 140.785 54.0488 141.669 51.6348ZM145.8 54.1168V56.3948H150.781V54.1168H145.8ZM153.637 61.5458H150.237C151.24 63.0248 152.702 64.4188 154.13 65.2518C153.671 65.6428 153.025 66.3568 152.702 66.8668C151.461 65.9828 150.22 64.6058 149.251 63.0928V67.4788H147.211V63.1778C146.174 64.6738 144.882 65.9658 143.539 66.8328C143.233 66.3398 142.604 65.6088 142.145 65.2178C143.675 64.4188 145.188 63.0418 146.242 61.5458H142.757V59.7098H147.211V58.1798H143.879V52.3318H152.804V58.1798H149.251V59.7098H153.637V61.5458Z" fill="#E5005A"/>
<path d="M124.721 59.8799V61.0019C126.387 60.9169 128.189 60.8149 129.991 60.7129C130.212 60.5429 130.416 60.3559 130.62 60.1859V59.8799H124.721ZM130.62 54.9499H124.721V55.9359H130.62V54.9499ZM130.62 58.4009V57.3809H124.721V58.4009H130.62ZM133.578 56.6839L135.533 57.6359C134.717 58.8939 133.765 60.0159 132.711 61.0529V65.0139C132.711 66.1699 132.49 66.7819 131.742 67.1049C130.994 67.4449 129.906 67.4959 128.274 67.4789C128.189 66.8839 127.849 65.9319 127.56 65.3539C128.614 65.4219 129.821 65.4049 130.161 65.3879C130.501 65.3879 130.62 65.2859 130.62 64.9969V62.8209C127.917 64.8439 124.738 66.3229 121.321 67.3429C121.032 66.8499 120.352 65.9489 119.961 65.4899C122.545 64.8439 124.959 63.9089 127.084 62.7019C124.636 62.9059 122.307 63.0929 120.471 63.2119L120.199 61.2059C120.93 61.1719 121.763 61.1379 122.698 61.1039V53.2159H126.217C126.438 52.6379 126.642 52.0429 126.761 51.5669L129.243 51.8049C129.005 52.2979 128.733 52.7739 128.478 53.2159H132.711V57.9249C133.017 57.5339 133.306 57.1089 133.578 56.6839Z" fill="#E5005A"/>
<path d="M102.485 61.5461L104.151 61.8351C103.981 63.4331 103.624 65.1331 103.131 66.2211C102.774 66.0001 102.026 65.6431 101.584 65.4901C102.077 64.4871 102.349 62.9741 102.485 61.5461ZM106.174 61.8521L107.602 61.4101C108.027 62.3791 108.469 63.6201 108.656 64.4701L107.16 65.0141C107.007 64.1641 106.565 62.8551 106.174 61.8521ZM108.945 64.9291L110.118 63.5011C112.311 64.0961 114.946 65.2011 116.51 66.0511L115.337 67.6321C113.858 66.6971 111.155 65.5581 108.945 64.9291ZM110.781 61.9031L111.92 60.6281C113.144 61.1041 114.606 61.8691 115.439 62.4811L114.266 63.8921C113.467 63.2461 111.988 62.3791 110.781 61.9031ZM114.334 54.9501H111.376C111.784 55.6131 112.277 56.2591 112.855 56.8711C113.433 56.2761 113.926 55.6301 114.334 54.9501ZM115.711 53.1481L116.969 53.8451C116.323 55.4771 115.371 56.8881 114.232 58.0951C115.354 58.9621 116.646 59.6591 118.006 60.1011C117.581 60.5091 117.003 61.2571 116.731 61.7501C115.32 61.1891 114.028 60.3731 112.872 59.3531C111.682 60.3391 110.373 61.1041 109.047 61.6651C108.928 61.4101 108.707 61.0701 108.452 60.7471L107.211 61.3081C107.16 61.0701 107.092 60.7811 107.007 60.4751L106.14 60.5431V67.4961H104.389V60.6621L101.924 60.8151L101.754 59.0641L102.978 59.0131C103.233 58.6901 103.505 58.3161 103.777 57.9251C103.284 57.1941 102.468 56.2931 101.771 55.6131L102.74 54.2361C102.859 54.3381 102.995 54.4571 103.131 54.5761C103.607 53.6411 104.083 52.5191 104.372 51.6181L106.123 52.2641C105.511 53.4201 104.831 54.7291 104.219 55.6811C104.44 55.9191 104.627 56.1571 104.797 56.3611C105.375 55.4091 105.919 54.4401 106.31 53.6071L107.959 54.3721C107.024 55.8511 105.851 57.5681 104.78 58.9451L106.412 58.8771C106.225 58.4521 106.021 58.0271 105.817 57.6531L107.16 57.0921C107.636 57.9421 108.112 58.9621 108.401 59.8291C109.523 59.3701 110.594 58.7581 111.546 58.0271C111.07 57.5001 110.645 56.9221 110.254 56.3271C109.795 56.8371 109.302 57.3301 108.741 57.7891C108.435 57.3641 107.789 56.7351 107.347 56.4801C109.2 55.0691 110.407 53.1991 111.036 51.6011L113.008 51.9241C112.821 52.3491 112.617 52.7911 112.379 53.2161H115.405L115.711 53.1481Z" fill="#E5005A"/>
<path d="M90.6934 52.4507C91.3394 54.2187 92.1384 55.8507 92.8184 57.1597C94.2124 56.3437 95.6914 55.6127 96.4904 55.1537C97.1364 54.7797 97.6294 54.4907 98.0714 54.1167L99.2444 56.0887C98.7344 56.3947 98.1904 56.6837 97.5614 57.0067C96.5074 57.5337 94.3654 58.5197 92.8184 59.5227C91.4074 60.4577 90.4554 61.4267 90.4554 62.6167C90.4554 63.8407 91.6284 64.4867 93.9914 64.4867C95.7424 64.4867 98.0374 64.2317 99.5504 63.8577L99.5164 66.3057C98.0714 66.5607 96.2694 66.7307 94.0594 66.7307C90.6764 66.7307 88.1094 65.7957 88.1094 62.8717C88.1094 61.0017 89.2994 59.5907 90.9314 58.3837C90.1494 56.9387 89.3334 55.1197 88.5684 53.3177L90.6934 52.4507Z" fill="#E5005A"/>
<path d="M76.6784 61.2737H78.3444C78.3614 61.1207 78.3614 60.9677 78.3614 60.8147V59.7437H76.6784V61.2737ZM81.9654 59.7437H80.1804V60.8657C80.1804 61.0017 80.1804 61.1377 80.1804 61.2737H81.9654V59.7437ZM77.2564 55.5107H81.3704C80.5374 54.8307 79.7724 54.0657 79.2454 53.3347C78.7694 54.0487 78.0724 54.8137 77.2564 55.5107ZM83.7844 62.8207H80.7414C81.7444 64.6907 83.0194 65.3367 84.7024 65.8637C84.2434 66.2887 83.7674 66.9517 83.5464 67.5467C81.8464 66.9007 80.5034 66.0337 79.4664 64.1807C78.7354 65.5407 77.3584 66.7647 74.8084 67.5637C74.6214 67.1557 74.0604 66.3907 73.7374 66.0677C76.4744 65.2347 77.6134 64.0787 78.0724 62.8207H74.9274V58.2137H78.3614V57.1767H76.2024V56.3097C75.7094 56.6497 75.1994 56.9557 74.6894 57.2107C74.5024 56.7687 74.1624 56.1567 73.8564 55.7147C73.6184 56.4117 73.3804 57.1087 73.1594 57.6867C74.2474 58.9787 74.4684 60.1007 74.4684 61.0867C74.4684 62.1577 74.2474 62.8717 73.6864 63.2627C73.4144 63.4497 73.0744 63.5517 72.7004 63.6027C72.3774 63.6537 71.9694 63.6707 71.5444 63.6537C71.5444 63.1607 71.3914 62.3787 71.1024 61.8857C71.4254 61.9197 71.6804 61.9197 71.8844 61.9027C72.0714 61.9027 72.2584 61.8687 72.3774 61.7837C72.5814 61.6307 72.6664 61.3077 72.6664 60.8147C72.6664 60.0497 72.4114 59.0297 71.4254 57.9077C71.7824 56.8197 72.1564 55.3067 72.4454 54.1337H71.0684V67.4787H69.3174V52.3317H73.0744L73.3634 52.2467L74.7064 53.0287C74.4854 53.7767 74.2134 54.6267 73.9414 55.4597C75.7434 54.6267 77.4434 53.0117 78.2764 51.6177H80.1124C81.2854 53.2327 83.0534 54.6437 84.8214 55.2897C84.4474 55.7657 84.0564 56.5137 83.7844 57.0577C83.3594 56.8537 82.9004 56.5817 82.4584 56.2927V57.1767H80.1804V58.2137H83.7844V62.8207Z" fill="#E5005A"/>
<path d="M54.3919 51.6348L56.2619 52.2468C55.8199 53.3518 55.2929 54.5078 54.6809 55.5958V67.4448H52.7599V58.5538C52.3349 59.0978 51.9099 59.6078 51.4679 60.0668C51.2809 59.5738 50.7199 58.4858 50.3799 57.9928C51.9609 56.4628 53.5079 54.0488 54.3919 51.6348ZM58.5229 54.1168V56.3948H63.5039V54.1168H58.5229ZM66.3599 61.5458H62.9599C63.9629 63.0248 65.4249 64.4188 66.8529 65.2518C66.3939 65.6428 65.7479 66.3568 65.4249 66.8668C64.1839 65.9828 62.9429 64.6058 61.9739 63.0928V67.4788H59.9339V63.1778C58.8969 64.6738 57.6049 65.9658 56.2619 66.8328C55.9559 66.3398 55.3269 65.6088 54.8679 65.2178C56.3979 64.4188 57.9109 63.0418 58.9649 61.5458H55.4799V59.7098H59.9339V58.1798H56.6019V52.3318H65.5269V58.1798H61.9739V59.7098H66.3599V61.5458Z" fill="#E5005A"/>
<path d="M35.9293 60.5257V61.6817H38.0373V60.5257H35.9293ZM38.0373 55.3747H35.9293V56.3607H38.0373V55.3747ZM35.9293 57.9077V58.9787H38.0373V57.9077H35.9293ZM40.9273 61.6817V63.4497H32.5803V61.6817H34.1103V55.3747H32.7843V53.6067H34.1103V51.8047H35.9293V53.6067H38.0373V51.8047H39.8903V53.6067H41.0463V55.3747H39.8903V61.6817H40.9273ZM34.6883 63.5687L36.5753 64.1297C35.9803 65.3707 34.9773 66.6967 34.0593 67.5297C33.6853 67.1727 32.9033 66.5947 32.4443 66.3227C33.3283 65.6597 34.2123 64.5887 34.6883 63.5687ZM43.4943 60.0497H45.9593V57.9587H43.5113V58.5877C43.5113 59.0297 43.5113 59.5227 43.4943 60.0497ZM45.9593 54.1847H43.5113V56.1737H45.9593V54.1847ZM47.9143 52.3487V65.2347C47.9143 66.2377 47.7273 66.7647 47.1323 67.0877C46.5373 67.4107 45.6703 67.4617 44.4123 67.4447C44.3443 66.9177 44.0893 66.0337 43.8343 65.5237C44.5653 65.5747 45.3813 65.5577 45.6193 65.5577C45.8743 65.5577 45.9593 65.4727 45.9593 65.2007V61.8517H43.3753C43.1883 63.8577 42.7633 65.9827 41.8453 67.5127C41.5223 67.1557 40.6893 66.5437 40.2473 66.3737C40.2983 66.2717 40.3663 66.1867 40.4173 66.0847L39.0063 66.8837C38.6663 66.2207 37.8503 65.0987 37.1873 64.3167L38.7173 63.4837C39.3293 64.1637 40.1283 65.0987 40.5533 65.7957C41.5393 63.6707 41.6243 60.7977 41.6243 58.5877V52.3487H47.9143Z" fill="#E5005A"/>
<path d="M17.2298 55.2387V57.5677H15.2408V53.3177H21.4118V51.6177H23.5538V53.3177H29.7758V57.5677H27.6848V55.2387H17.2298ZM23.5368 62.6507V65.1837C24.1488 65.2517 24.7948 65.2857 25.4748 65.2857C26.3928 65.2857 29.1978 65.2857 30.3368 65.2347C30.0478 65.7277 29.7248 66.6967 29.6228 67.2917H25.3728C22.2448 67.2917 19.9158 66.7817 18.3518 64.3677C17.8078 65.6597 17.0598 66.7477 16.0908 67.5807C15.7508 67.2237 14.9008 66.5097 14.4248 66.2037C16.2608 64.8437 17.0938 62.4977 17.3998 59.5907L19.5078 59.7947C19.4058 60.5597 19.2868 61.2737 19.1338 61.9537C19.6438 63.3137 20.4428 64.1297 21.4458 64.6227V58.6217H17.8248V56.7007H27.1748V58.6217H23.5368V60.7467H28.2118V62.6507H23.5368Z" fill="#E5005A"/>
</svg>
