<svg width="370" height="180" viewBox="0 0 370 180" fill="none" xmlns="http://www.w3.org/2000/svg">
<rect width="370" height="180" fill="white"/>
<mask id="mask0_1523_25708" style="mask-type:alpha" maskUnits="userSpaceOnUse" x="0" y="0" width="370" height="180">
<rect x="2" y="2" width="366" height="176" rx="8" fill="white" stroke="#FAF1F5" stroke-width="4"/>
</mask>
<g mask="url(#mask0_1523_25708)">
<path fill-rule="evenodd" clip-rule="evenodd" d="M332.443 -5.01438C332.443 13.2031 318.026 49.7653 300.242 49.7653C282.458 49.7653 268.041 13.2031 268.041 -5.01438C268.041 -23.2318 282.458 -38 300.242 -38C318.026 -38 332.443 -23.2318 332.443 -5.01438ZM366.785 110.986C356.618 96.0394 324.383 74.4858 309.792 84.9014C295.201 95.3169 303.78 133.758 313.947 148.704C324.115 163.65 344.186 167.323 358.777 156.907C373.368 146.492 376.953 125.932 366.785 110.986ZM316.05 63.6223C320.543 81.2488 358.72 86.3009 375.927 81.6985C393.134 77.096 403.441 59.0759 398.948 41.4494C394.456 23.8229 376.864 13.2648 359.657 17.8672C342.45 22.4697 311.557 45.9958 316.05 63.6223ZM221.419 77.0826C238.361 82.6216 276.747 79.6693 282.155 62.3144C287.562 44.9594 257.943 19.7736 241 14.2346C224.058 8.69563 205.94 18.2744 200.533 35.6293C195.126 52.9843 204.477 71.5436 221.419 77.0826ZM283.328 82.6362C298.707 91.7839 293.252 130.818 284.322 146.572C275.392 162.327 255.685 167.682 240.306 158.534C224.926 149.387 219.698 129.2 228.628 113.445C237.558 97.6913 267.948 73.4884 283.328 82.6362Z" fill="#FAF1F5"/>
</g>
<path d="M33.752 72.848L36.104 71.792C36.848 73.28 37.592 75.008 38.048 76.52C39.968 73.472 40.28 70.16 40.28 67.232H37.016V66.992C36.008 68.936 34.88 70.952 33.752 72.848ZM31.496 76.376C32.6 76.184 33.752 75.968 34.88 75.728C34.544 74.768 34.136 73.784 33.728 72.896C32.96 74.12 32.216 75.32 31.496 76.376ZM48.872 64.448V65.792C48.608 75.824 48.32 79.424 47.48 80.576C46.88 81.392 46.328 81.68 45.464 81.824C44.672 81.968 43.496 81.968 42.272 81.92C42.224 81.128 41.888 79.928 41.432 79.136C42.56 79.232 43.544 79.232 44.048 79.232C44.432 79.232 44.672 79.136 44.912 78.8C45.512 78.128 45.8 75.08 46.016 67.232H43.184C43.184 72.32 42.296 77.96 36.992 82.088C36.488 81.416 35.504 80.648 34.736 80.144C35.12 79.856 35.48 79.544 35.816 79.232C35.768 78.968 35.72 78.68 35.648 78.368C32.624 78.992 29.48 79.64 27.032 80.144L26.504 77.264C26.936 77.192 27.392 77.12 27.896 77.024C28.904 75.632 30.008 73.928 31.04 72.128C29.888 70.592 28.088 68.72 26.552 67.304L28.112 64.808C28.424 65.096 28.76 65.384 29.096 65.696C30.08 63.824 31.04 61.568 31.64 59.696L34.592 60.776C33.536 63.104 32.24 65.672 31.088 67.544C31.664 68.096 32.192 68.672 32.648 69.2C33.416 67.712 34.136 66.224 34.688 64.856L37.016 65.6V64.448H40.28V59.792H43.184V64.448H48.872ZM65.312 76.088V78.56H68V76.088H65.312ZM68 68.864V66.536H65.312V68.864H68ZM68 73.688V71.264H65.312V73.688H68ZM74.696 78.56V81.032H65.312V82.088H62.6V69.008C62.336 69.296 62.096 69.584 61.832 69.848C61.64 69.584 61.304 69.2 60.968 68.792V69.056H58.688V69.752C59.336 70.28 61.304 72.368 61.76 72.896L60.128 75.128C59.84 74.504 59.264 73.568 58.688 72.704V82.064H55.928V73.448C55.16 75.296 54.248 77 53.312 78.2C53.048 77.384 52.448 76.208 51.992 75.488C53.336 73.928 54.656 71.384 55.544 69.056H52.496V66.392H55.928V63.608C54.92 63.8 53.936 63.968 53 64.088C52.856 63.44 52.52 62.48 52.208 61.904C54.848 61.448 57.8 60.752 59.648 59.912L61.544 62.096C60.68 62.432 59.72 62.744 58.688 63.008V66.392H60.968V66.464C62.48 64.64 63.752 62.192 64.544 59.696L67.232 60.392C66.824 61.64 66.32 62.864 65.744 64.04H68.24C68.768 62.696 69.272 61.184 69.56 59.96L72.536 60.608C72.032 61.736 71.456 62.936 70.904 64.04H74.24V66.536H70.712V68.864H73.76V71.264H70.712V73.688H73.76V76.088H70.712V78.56H74.696ZM95.48 66.896V68.504H82.136V66.896H87.488V65.984H83.264V64.448H87.488V63.44H90.08V64.448H94.496V65.984H90.08V66.896H95.48ZM85.736 70.688V71.888H91.928V70.688H85.736ZM90.296 73.328L90.224 73.4C90.608 73.76 91.04 74.12 91.544 74.456C92.048 74.12 92.6 73.712 93.104 73.328H90.296ZM94.424 72.944L95.624 73.736C94.856 74.336 93.968 74.912 93.176 75.368C94.064 75.776 95.048 76.136 96.008 76.352C95.528 76.784 94.856 77.624 94.568 78.176C92.816 77.6 91.088 76.64 89.72 75.464V78.152H87.224V75.656C85.904 76.472 84.488 77.144 83.12 77.648C82.832 77.192 82.064 76.28 81.584 75.848C83.552 75.272 85.592 74.408 87.128 73.328H83.36V69.224H94.424V72.944ZM81.32 78.68H96.32V63.152H81.32V78.68ZM78.632 60.584H99.104V82.088H96.32V81.224H81.32V82.088H78.632V60.584ZM113.408 61.04C113.264 61.664 113.096 62.432 112.976 63.032C112.808 63.752 112.64 64.64 112.472 65.504C113.264 65.456 113.984 65.408 114.488 65.408C117.032 65.408 118.832 66.536 118.832 69.992C118.832 72.824 118.496 76.712 117.464 78.8C116.672 80.48 115.328 81.008 113.528 81.008C112.592 81.008 111.464 80.84 110.648 80.672L110.12 77.504C111.056 77.768 112.424 78.008 113.072 78.008C113.864 78.008 114.488 77.768 114.872 76.976C115.52 75.608 115.832 72.704 115.832 70.328C115.832 68.408 115.016 68.144 113.504 68.144C113.12 68.144 112.52 68.192 111.848 68.24C110.936 71.888 109.16 77.576 106.952 81.104L103.832 79.856C106.16 76.712 107.816 71.864 108.68 68.576C107.816 68.672 107.072 68.768 106.616 68.816C105.944 68.936 104.672 69.104 103.952 69.224L103.664 65.96C104.528 66.032 105.344 65.984 106.232 65.96C106.976 65.936 108.104 65.864 109.328 65.768C109.664 63.944 109.856 62.192 109.832 60.68L113.408 61.04ZM121.664 63.296C123.152 65.36 125.168 69.944 125.888 72.224L122.84 73.64C122.216 70.976 120.512 66.632 118.808 64.52L121.664 63.296ZM133.971 60.68C136.251 61.4 141.483 62.312 143.571 62.552L142.851 65.48C140.427 65.168 135.075 64.04 133.203 63.56L133.971 60.68ZM134.115 65.504C133.803 66.824 133.371 69.752 133.203 71.12C135.387 69.536 137.763 68.84 140.283 68.84C144.483 68.84 146.931 71.432 146.931 74.336C146.931 78.704 143.475 82.064 133.491 81.224L132.579 78.08C139.779 79.064 143.595 77.312 143.595 74.264C143.595 72.704 142.107 71.552 140.019 71.552C137.307 71.552 134.859 72.56 133.347 74.384C132.915 74.912 132.675 75.296 132.459 75.776L129.699 75.08C130.179 72.728 130.731 68.024 130.899 65.048L134.115 65.504ZM172.692 69.056H164.244C165.828 73.736 168.732 77.504 173.22 79.328C172.5 79.928 171.564 81.2 171.108 82.016C166.764 79.976 163.98 76.472 162.108 71.84C160.812 75.848 158.22 79.592 153.132 82.04C152.676 81.248 151.836 80.216 150.996 79.616C156.492 77.168 158.772 73.184 159.708 69.056H151.452V66.104H160.188C160.428 63.848 160.404 61.664 160.428 59.696H163.548C163.524 61.664 163.5 63.872 163.26 66.104H172.692V69.056ZM179.82 65.984V69.296H177.132V63.464H180.396C179.964 62.672 179.316 61.736 178.74 60.992L181.164 59.912C182.004 60.848 182.964 62.12 183.348 63.056L182.484 63.464H186.252C185.916 62.528 185.316 61.376 184.74 60.464L187.26 59.552C188.028 60.584 188.82 62.048 189.132 63.008L187.98 63.464H191.604C192.396 62.336 193.212 60.944 193.668 59.816L196.764 60.752C196.116 61.664 195.396 62.624 194.748 63.464H197.94V69.296H195.132V65.984H179.82ZM198.18 73.208V75.824H188.94V79.016C188.94 80.504 188.628 81.248 187.452 81.656C186.324 82.064 184.836 82.112 182.796 82.112C182.604 81.296 182.052 80.096 181.62 79.328C183.156 79.4 184.932 79.4 185.412 79.376C185.916 79.376 186.036 79.28 186.036 78.944V75.824H176.82V73.208H186.036V71.624H187.404C188.028 71.24 188.676 70.784 189.252 70.304H181.116V67.832H191.892L192.516 67.688L194.316 69.08C192.948 70.544 191.076 72.08 189.108 73.208H198.18ZM206.56 77.288C206.56 78.2 207.424 78.752 209.08 78.752C210.352 78.752 211.192 78.392 211.192 77C211.192 76.736 211.192 76.4 211.168 75.968C210.52 75.872 209.872 75.8 209.2 75.8C207.496 75.8 206.56 76.472 206.56 77.288ZM214.072 60.584C214 61.064 213.952 61.664 213.928 62.288C213.904 62.528 213.904 62.888 213.904 63.272C215.872 63.176 217.864 62.984 219.976 62.624L219.952 65.384C218.368 65.576 216.184 65.792 213.856 65.912C213.856 66.752 213.856 67.64 213.856 68.384C216.28 68.264 218.32 68.072 220.264 67.808L220.24 70.64C218.08 70.88 216.208 71.048 213.904 71.12C213.952 72.032 214 73.016 214.072 73.976C217.096 74.84 219.4 76.448 220.792 77.6L219.064 80.288C217.768 79.088 216.136 77.816 214.216 76.952C214.24 77.288 214.24 77.576 214.24 77.84C214.24 79.88 212.68 81.464 209.512 81.464C205.672 81.464 203.656 80 203.656 77.456C203.656 75.032 205.888 73.328 209.584 73.328C210.088 73.328 210.592 73.352 211.072 73.4C211.024 72.656 211 71.888 210.976 71.168C210.568 71.168 210.16 71.168 209.728 71.168C208.336 71.168 205.6 71.048 204.016 70.856L203.992 68.024C205.552 68.312 208.504 68.48 209.776 68.48C210.16 68.48 210.544 68.48 210.928 68.48C210.928 67.688 210.928 66.824 210.952 66.008C210.64 66.008 210.352 66.008 210.064 66.008C208.552 66.008 205.768 65.792 204.184 65.576L204.112 62.84C205.84 63.128 208.576 63.368 210.04 63.368C210.352 63.368 210.664 63.368 210.976 63.368C210.976 62.912 210.976 62.528 210.976 62.24C210.976 61.784 210.928 61.04 210.832 60.584H214.072ZM224.543 63.536C225.503 63.512 226.439 63.464 226.895 63.416C228.911 63.248 232.871 62.888 237.263 62.528C239.735 62.312 242.351 62.168 244.055 62.096L244.079 65.168C242.783 65.192 240.719 65.192 239.447 65.504C236.543 66.272 234.359 69.368 234.359 72.224C234.359 76.184 238.055 77.6 242.135 77.816L241.007 81.104C235.967 80.768 231.215 78.08 231.215 72.872C231.215 69.416 233.159 66.68 234.791 65.456C232.535 65.696 227.639 66.224 224.855 66.824L224.543 63.536ZM240.647 67.52C241.247 68.384 242.111 69.848 242.567 70.784L240.743 71.6C240.143 70.28 239.639 69.344 238.871 68.264L240.647 67.52ZM243.335 66.416C243.935 67.256 244.847 68.672 245.351 69.608L243.551 70.472C242.903 69.176 242.351 68.288 241.583 67.232L243.335 66.416ZM257.837 63.224C260.789 63.632 265.565 63.512 268.157 63.2V66.296C265.205 66.56 260.861 66.584 257.837 66.296V63.224ZM259.757 73.472C259.565 74.264 259.469 74.84 259.469 75.488C259.469 76.544 260.381 77.192 262.829 77.192C264.965 77.192 266.741 77 268.853 76.568L268.901 79.808C267.341 80.096 265.421 80.264 262.709 80.264C258.581 80.264 256.589 78.8 256.589 76.328C256.589 75.392 256.733 74.432 256.997 73.208L259.757 73.472ZM254.141 61.616C253.949 62.12 253.637 63.32 253.541 63.752C253.229 65.36 252.389 70.16 252.389 72.56C252.389 73.016 252.413 73.64 252.485 74.12C252.845 73.304 253.229 72.464 253.565 71.672L255.053 72.848C254.381 74.84 253.589 77.456 253.325 78.728C253.253 79.088 253.205 79.616 253.205 79.856C253.205 80.12 253.229 80.504 253.253 80.84L250.469 81.032C249.989 79.376 249.533 76.448 249.533 73.184C249.533 69.584 250.277 65.528 250.541 63.68C250.613 63.008 250.757 62.096 250.781 61.328L254.141 61.616ZM37.088 101.04C36.944 101.664 36.776 102.432 36.656 103.032C36.488 103.752 36.32 104.64 36.152 105.504C36.944 105.456 37.664 105.408 38.168 105.408C40.712 105.408 42.512 106.536 42.512 109.992C42.512 112.824 42.176 116.712 41.144 118.8C40.352 120.48 39.008 121.008 37.208 121.008C36.272 121.008 35.144 120.84 34.328 120.672L33.8 117.504C34.736 117.768 36.104 118.008 36.752 118.008C37.544 118.008 38.168 117.768 38.552 116.976C39.2 115.608 39.512 112.704 39.512 110.328C39.512 108.408 38.696 108.144 37.184 108.144C36.8 108.144 36.2 108.192 35.528 108.24C34.616 111.888 32.84 117.576 30.632 121.104L27.512 119.856C29.84 116.712 31.496 111.864 32.36 108.576C31.496 108.672 30.752 108.768 30.296 108.816C29.624 108.936 28.352 109.104 27.632 109.224L27.344 105.96C28.208 106.032 29.024 105.984 29.912 105.96C30.656 105.936 31.784 105.864 33.008 105.768C33.344 103.944 33.536 102.192 33.512 100.68L37.088 101.04ZM45.344 103.296C46.832 105.36 48.848 109.944 49.568 112.224L46.52 113.64C45.896 110.976 44.192 106.632 42.488 104.52L45.344 103.296ZM62.2936 101.04C62.1496 101.664 61.9816 102.432 61.8616 103.032C61.6936 103.752 61.5256 104.64 61.3576 105.504C62.1496 105.456 62.8696 105.408 63.3736 105.408C65.9176 105.408 67.7176 106.536 67.7176 109.992C67.7176 112.824 67.3816 116.712 66.3496 118.8C65.5576 120.48 64.2136 121.008 62.4136 121.008C61.4776 121.008 60.3496 120.84 59.5336 120.672L59.0056 117.504C59.9416 117.768 61.3096 118.008 61.9576 118.008C62.7496 118.008 63.3736 117.768 63.7576 116.976C64.4056 115.608 64.7176 112.704 64.7176 110.328C64.7176 108.408 63.9016 108.144 62.3896 108.144C62.0056 108.144 61.4056 108.192 60.7336 108.24C59.8216 111.888 58.0456 117.576 55.8376 121.104L52.7176 119.856C55.0456 116.712 56.7016 111.864 57.5656 108.576C56.7016 108.672 55.9576 108.768 55.5016 108.816C54.8296 108.936 53.5576 109.104 52.8376 109.224L52.5496 105.96C53.4136 106.032 54.2296 105.984 55.1176 105.96C55.8616 105.936 56.9896 105.864 58.2136 105.768C58.5496 103.944 58.7416 102.192 58.7176 100.68L62.2936 101.04ZM70.5496 103.296C72.0376 105.36 74.0536 109.944 74.7736 112.224L71.7256 113.64C71.1016 110.976 69.3976 106.632 67.6936 104.52L70.5496 103.296ZM85.0681 117.168C85.0681 118.056 86.0521 118.656 87.4921 118.656C87.9961 118.656 88.4521 118.632 88.8841 118.584C88.7401 117.024 87.8521 116.016 86.5561 116.016C85.6441 116.016 85.0681 116.568 85.0681 117.168ZM80.9881 101.712C81.6601 101.808 82.5001 101.832 83.1721 101.832C84.4441 101.832 89.5801 101.736 90.9481 101.616C91.9321 101.52 92.4841 101.448 92.7721 101.352L94.3321 103.488C93.7801 103.848 93.2041 104.184 92.6521 104.592C91.3561 105.504 88.8361 107.616 87.3241 108.816C88.1161 108.624 88.8361 108.552 89.6041 108.552C93.6841 108.552 96.7801 111.096 96.7801 114.6C96.7801 118.392 93.9001 121.392 88.0921 121.392C84.7561 121.392 82.2361 119.856 82.2361 117.456C82.2361 115.512 83.9881 113.712 86.5321 113.712C89.5081 113.712 91.3081 115.536 91.6441 117.816C92.9641 117.12 93.6361 116.016 93.6361 114.552C93.6361 112.392 91.4761 110.928 88.6441 110.928C84.9721 110.928 82.5721 112.872 80.0041 115.8L77.8201 113.544C79.5241 112.176 82.4281 109.728 83.8441 108.552C85.1881 107.448 87.6841 105.432 88.8601 104.4C87.6361 104.424 84.3241 104.568 83.0521 104.64C82.4041 104.688 81.6361 104.76 81.0841 104.832L80.9881 101.712ZM118.816 106.68H116.08C116.416 108.672 116.896 110.544 117.544 112.272C118.144 110.64 118.552 108.768 118.816 106.68ZM109.648 109.512L110.152 109.368L110.992 110.04C111.4 109.536 111.784 108.96 112.144 108.312H109.288C108.952 108.72 108.616 109.128 108.256 109.512H109.648ZM107.056 104.256V105.864H107.848C108.232 105.336 108.592 104.808 108.928 104.256H107.056ZM123.184 106.68H121.768C121.264 110.232 120.448 113.16 119.176 115.608C120.256 117.312 121.648 118.704 123.424 119.616C122.776 120.192 121.888 121.32 121.456 122.112C119.8 121.128 118.48 119.832 117.4 118.248C116.08 119.832 114.424 121.128 112.336 122.184C112.072 121.512 111.232 120.192 110.704 119.592C112.96 118.584 114.616 117.24 115.864 115.488C115.192 114.024 114.664 112.392 114.232 110.616C113.872 111.216 113.512 111.768 113.128 112.272C112.816 111.912 112.144 111.288 111.544 110.808C110.584 111.936 109.36 113.16 108.184 114.096V114.576C109.624 114.48 111.088 114.336 112.528 114.216V116.664C111.088 116.808 109.624 116.928 108.184 117.048V119.4C108.184 120.624 107.968 121.272 107.104 121.68C106.24 122.064 105.136 122.088 103.648 122.088C103.528 121.344 103.168 120.336 102.832 119.664C103.744 119.688 104.8 119.688 105.088 119.688C105.4 119.664 105.496 119.592 105.496 119.328V117.288C103.84 117.432 102.304 117.576 100.984 117.696L100.696 115.152C102.04 115.056 103.696 114.936 105.496 114.792V112.92H106.432C106.84 112.56 107.272 112.152 107.68 111.72H105.976C104.8 112.704 103.576 113.568 102.256 114.312C101.872 113.76 100.912 112.656 100.336 112.128C101.224 111.696 102.064 111.192 102.856 110.664V109.512H104.392C104.848 109.128 105.28 108.72 105.712 108.312H100.888V105.864H104.392V104.256H101.68V101.856H104.392V99.672H107.056V101.856H109.384V103.488C109.96 102.48 110.464 101.376 110.896 100.248L113.536 100.992C112.84 102.744 112 104.352 111.04 105.864H112.552V107.496C113.608 105.264 114.328 102.504 114.76 99.672L117.64 100.104C117.4 101.448 117.136 102.768 116.8 104.04H123.184V106.68ZM132.88 116.328H141.976V115.176H132.88V116.328ZM141.976 112.08H132.88V113.232H141.976V112.08ZM144.88 109.776V119.424C144.88 120.768 144.544 121.368 143.56 121.728C142.576 122.064 141.16 122.088 139.216 122.088C139.072 121.392 138.688 120.456 138.376 119.808C139.528 119.88 141.064 119.88 141.424 119.856C141.856 119.856 141.976 119.736 141.976 119.4V118.296H132.88V122.088H130.024V109.776H144.88ZM141.088 104.208H135.808C135.28 104.88 134.704 105.576 134.152 106.224C136.48 106.176 138.976 106.152 141.496 106.104C140.968 105.672 140.44 105.264 139.936 104.904L141.088 104.208ZM148.024 104.208H143.272C145.024 105.48 147.016 107.088 148.072 108.312L145.552 109.92C145.192 109.464 144.688 108.936 144.112 108.384C138.136 108.6 131.872 108.768 127.672 108.864L127.6 106.296L130.936 106.248C131.392 105.6 131.824 104.88 132.208 104.208H126.76V101.712H135.928V99.672H138.856V101.712H148.024V104.208ZM157.816 115.824V116.808H168.136V115.824H157.816ZM164.152 107.64H160.96C160.696 108.216 160.312 108.744 159.784 109.224H164.152V107.64ZM156.424 105.024L156.112 105.96H158.728C158.824 105.672 158.872 105.36 158.872 105.024H156.424ZM161.488 102.408V103.368H164.152V102.408H161.488ZM169.36 102.408H166.864V103.368H169.36V102.408ZM164.152 105.96V105.024H161.488C161.464 105.336 161.44 105.648 161.416 105.96H164.152ZM170.704 107.64H166.864V109.224H168.952C168.88 108.936 168.76 108.648 168.664 108.432C169.216 108.504 169.72 108.528 169.984 108.504C170.2 108.504 170.344 108.504 170.488 108.336C170.584 108.216 170.656 108 170.704 107.64ZM168.136 111.792V110.856H157.816V111.792H168.136ZM168.136 114.288V113.328H157.816V114.288H168.136ZM171.04 118.44H167.416C169.72 119.184 172.24 120.096 173.752 120.744L170.584 122.112C169.168 121.392 166.672 120.384 164.176 119.568L166 118.44H159.592L161.488 119.304C159.496 120.48 156.448 121.56 154 122.16C153.544 121.608 152.536 120.6 151.936 120.12C154.168 119.736 156.616 119.136 158.296 118.44H155.032V111.312C154.48 111.432 153.904 111.528 153.256 111.624C153.016 111.024 152.344 109.944 151.912 109.416C154.888 109.032 156.616 108.432 157.6 107.64H155.488L155.416 107.856L152.824 107.688C153.352 106.512 153.928 104.784 154.336 103.368H158.896V102.408H153.448V100.728H158.896V99.696H161.488V100.728H164.152V99.696H166.864V100.728H171.952V105.024H166.864V105.96H173.512C173.512 105.96 173.488 106.44 173.464 106.704C173.344 108.264 173.2 109.128 172.792 109.56C172.432 109.92 171.904 110.112 171.4 110.136C171.304 110.136 171.184 110.16 171.04 110.16V118.44Z" fill="#E5005A"/>
</svg>
