<svg width="370" height="180" viewBox="0 0 370 180" fill="none" xmlns="http://www.w3.org/2000/svg">
<path d="M0 0H370V180H0V0Z" fill="white"/>
<mask id="mask0_1827_25402" style="mask-type:alpha" maskUnits="userSpaceOnUse" x="0" y="0" width="370" height="180">
<path d="M0 0H370V180H0V0Z" fill="white"/>
</mask>
<g mask="url(#mask0_1827_25402)">
<path fill-rule="evenodd" clip-rule="evenodd" d="M332.443 -5.01438C332.443 13.2031 318.026 49.7653 300.242 49.7653C282.458 49.7653 268.041 13.2031 268.041 -5.01438C268.041 -23.2318 282.458 -38 300.242 -38C318.026 -38 332.443 -23.2318 332.443 -5.01438ZM366.785 110.986C356.618 96.0394 324.383 74.4858 309.792 84.9014C295.201 95.3169 303.78 133.758 313.947 148.704C324.115 163.65 344.186 167.323 358.777 156.907C373.368 146.492 376.953 125.932 366.785 110.986ZM316.05 63.6223C320.543 81.2488 358.72 86.3009 375.927 81.6985C393.134 77.096 403.441 59.0759 398.948 41.4494C394.456 23.8229 376.864 13.2648 359.657 17.8672C342.45 22.4697 311.557 45.9958 316.05 63.6223ZM221.419 77.0826C238.361 82.6216 276.747 79.6693 282.155 62.3144C287.562 44.9594 257.943 19.7736 241 14.2346C224.058 8.69563 205.94 18.2744 200.533 35.6293C195.126 52.9843 204.477 71.5436 221.419 77.0826ZM283.328 82.6362C298.707 91.7839 293.252 130.818 284.322 146.572C275.392 162.327 255.685 167.682 240.306 158.534C224.926 149.387 219.698 129.2 228.628 113.445C237.558 97.6913 267.948 73.4884 283.328 82.6362Z" fill="#FAF1F5"/>
</g>
<path d="M157.312 114.956V115.94H167.632V114.956H157.312ZM163.648 106.772H160.456C160.192 107.348 159.808 107.876 159.28 108.356H163.648V106.772ZM155.92 104.156L155.608 105.092H158.224C158.32 104.804 158.368 104.492 158.368 104.156H155.92ZM160.984 101.54V102.5H163.648V101.54H160.984ZM168.856 101.54H166.36V102.5H168.856V101.54ZM163.648 105.092V104.156H160.984C160.96 104.468 160.936 104.78 160.912 105.092H163.648ZM170.2 106.772H166.36V108.356H168.448C168.376 108.068 168.256 107.78 168.16 107.564C168.712 107.636 169.216 107.66 169.48 107.636C169.696 107.636 169.84 107.636 169.984 107.468C170.08 107.348 170.152 107.132 170.2 106.772ZM167.632 110.924V109.988H157.312V110.924H167.632ZM167.632 113.42V112.46H157.312V113.42H167.632ZM170.536 117.572H166.912C169.216 118.316 171.736 119.228 173.248 119.876L170.08 121.244C168.664 120.524 166.168 119.516 163.672 118.7L165.496 117.572H159.088L160.984 118.436C158.992 119.612 155.944 120.692 153.496 121.292C153.04 120.74 152.032 119.732 151.432 119.252C153.664 118.868 156.112 118.268 157.792 117.572H154.528V110.444C153.976 110.564 153.4 110.66 152.752 110.756C152.512 110.156 151.84 109.076 151.408 108.548C154.384 108.164 156.112 107.564 157.096 106.772H154.984L154.912 106.988L152.32 106.82C152.848 105.644 153.424 103.916 153.832 102.5H158.392V101.54H152.944V99.8601H158.392V98.8281H160.984V99.8601H163.648V98.8281H166.36V99.8601H171.448V104.156H166.36V105.092H173.008C173.008 105.092 172.984 105.572 172.96 105.836C172.84 107.396 172.696 108.26 172.288 108.692C171.928 109.052 171.4 109.244 170.896 109.268C170.8 109.268 170.68 109.292 170.536 109.292V117.572Z" fill="#E5005A"/>
<path d="M132.376 115.46H141.472V114.308H132.376V115.46ZM141.472 111.212H132.376V112.364H141.472V111.212ZM144.376 108.908V118.556C144.376 119.9 144.04 120.5 143.056 120.86C142.072 121.196 140.656 121.22 138.712 121.22C138.568 120.524 138.184 119.588 137.872 118.94C139.024 119.012 140.56 119.012 140.92 118.988C141.352 118.988 141.472 118.868 141.472 118.532V117.428H132.376V121.22H129.52V108.908H144.376ZM140.584 103.34H135.304C134.776 104.012 134.2 104.708 133.648 105.356C135.976 105.308 138.472 105.284 140.992 105.236C140.464 104.804 139.936 104.396 139.432 104.036L140.584 103.34ZM147.52 103.34H142.768C144.52 104.612 146.512 106.22 147.568 107.444L145.048 109.052C144.688 108.596 144.184 108.068 143.608 107.516C137.632 107.732 131.368 107.9 127.168 107.996L127.096 105.428L130.432 105.38C130.888 104.732 131.32 104.012 131.704 103.34H126.256V100.844H135.424V98.8042H138.352V100.844H147.52V103.34Z" fill="#E5005A"/>
<path d="M118.312 105.812H115.576C115.912 107.804 116.392 109.676 117.04 111.404C117.64 109.772 118.048 107.9 118.312 105.812ZM109.144 108.644L109.648 108.5L110.488 109.172C110.896 108.668 111.28 108.092 111.64 107.444H108.784C108.448 107.852 108.112 108.26 107.752 108.644H109.144ZM106.552 103.388V104.996H107.344C107.728 104.468 108.088 103.94 108.424 103.388H106.552ZM122.68 105.812H121.264C120.76 109.364 119.944 112.292 118.672 114.74C119.752 116.444 121.144 117.836 122.92 118.748C122.272 119.324 121.384 120.452 120.952 121.244C119.296 120.26 117.976 118.964 116.896 117.38C115.576 118.964 113.92 120.26 111.832 121.316C111.568 120.644 110.728 119.324 110.2 118.724C112.456 117.716 114.112 116.372 115.36 114.62C114.688 113.156 114.16 111.524 113.728 109.748C113.368 110.348 113.008 110.9 112.624 111.404C112.312 111.044 111.64 110.42 111.04 109.94C110.08 111.068 108.856 112.292 107.68 113.228V113.708C109.12 113.612 110.584 113.468 112.024 113.348V115.796C110.584 115.94 109.12 116.06 107.68 116.18V118.532C107.68 119.756 107.464 120.404 106.6 120.812C105.736 121.196 104.632 121.22 103.144 121.22C103.024 120.476 102.664 119.468 102.328 118.796C103.24 118.82 104.296 118.82 104.584 118.82C104.896 118.796 104.992 118.724 104.992 118.46V116.42C103.336 116.564 101.8 116.708 100.48 116.828L100.192 114.284C101.536 114.188 103.192 114.068 104.992 113.924V112.052H105.928C106.336 111.692 106.768 111.284 107.176 110.852H105.472C104.296 111.836 103.072 112.7 101.752 113.444C101.368 112.892 100.408 111.788 99.832 111.26C100.72 110.828 101.56 110.324 102.352 109.796V108.644H103.888C104.344 108.26 104.776 107.852 105.208 107.444H100.384V104.996H103.888V103.388H101.176V100.988H103.888V98.8042H106.552V100.988H108.88V102.62C109.456 101.612 109.96 100.508 110.392 99.3802L113.032 100.124C112.336 101.876 111.496 103.484 110.536 104.996H112.048V106.628C113.104 104.396 113.824 101.636 114.256 98.8042L117.136 99.2362C116.896 100.58 116.632 101.9 116.296 103.172H122.68V105.812Z" fill="#E5005A"/>
<path d="M84.5644 116.3C84.5644 117.188 85.5484 117.788 86.9884 117.788C87.4924 117.788 87.9484 117.764 88.3804 117.716C88.2364 116.156 87.3484 115.148 86.0524 115.148C85.1404 115.148 84.5644 115.7 84.5644 116.3ZM80.4844 100.844C81.1564 100.94 81.9964 100.964 82.6684 100.964C83.9404 100.964 89.0764 100.868 90.4444 100.748C91.4284 100.652 91.9804 100.58 92.2684 100.484L93.8284 102.62C93.2764 102.98 92.7004 103.316 92.1484 103.724C90.8524 104.636 88.3324 106.748 86.8204 107.948C87.6124 107.756 88.3324 107.684 89.1004 107.684C93.1804 107.684 96.2764 110.228 96.2764 113.732C96.2764 117.524 93.3964 120.524 87.5884 120.524C84.2524 120.524 81.7324 118.988 81.7324 116.588C81.7324 114.644 83.4844 112.844 86.0284 112.844C89.0044 112.844 90.8044 114.668 91.1404 116.948C92.4604 116.252 93.1324 115.148 93.1324 113.684C93.1324 111.524 90.9724 110.06 88.1404 110.06C84.4684 110.06 82.0684 112.004 79.5004 114.932L77.3164 112.676C79.0204 111.308 81.9244 108.86 83.3404 107.684C84.6844 106.58 87.1804 104.564 88.3564 103.532C87.1324 103.556 83.8204 103.7 82.5484 103.772C81.9004 103.82 81.1324 103.892 80.5804 103.964L80.4844 100.844Z" fill="#E5005A"/>
<path d="M61.7899 100.172C61.6459 100.796 61.4779 101.564 61.3579 102.164C61.1899 102.884 61.0219 103.772 60.8539 104.636C61.6459 104.588 62.3659 104.54 62.8699 104.54C65.4139 104.54 67.2139 105.668 67.2139 109.124C67.2139 111.956 66.8779 115.844 65.8459 117.932C65.0539 119.612 63.7099 120.14 61.9099 120.14C60.9739 120.14 59.8459 119.972 59.0299 119.804L58.5019 116.636C59.4379 116.9 60.8059 117.14 61.4539 117.14C62.2459 117.14 62.8699 116.9 63.2539 116.108C63.9019 114.74 64.2139 111.836 64.2139 109.46C64.2139 107.54 63.3979 107.276 61.8859 107.276C61.5019 107.276 60.9019 107.324 60.2299 107.372C59.3179 111.02 57.5419 116.708 55.3339 120.236L52.2139 118.988C54.5419 115.844 56.1979 110.996 57.0619 107.708C56.1979 107.804 55.4539 107.9 54.9979 107.948C54.3259 108.068 53.0539 108.236 52.3339 108.356L52.0459 105.092C52.9099 105.164 53.7259 105.116 54.6139 105.092C55.3579 105.068 56.4859 104.996 57.7099 104.9C58.0459 103.076 58.2379 101.324 58.2139 99.812L61.7899 100.172ZM70.0459 102.428C71.5339 104.492 73.5499 109.076 74.2699 111.356L71.2219 112.772C70.5979 110.108 68.8939 105.764 67.1899 103.652L70.0459 102.428Z" fill="#E5005A"/>
<path d="M36.5838 100.172C36.4398 100.796 36.2718 101.564 36.1518 102.164C35.9838 102.884 35.8158 103.772 35.6478 104.636C36.4398 104.588 37.1598 104.54 37.6638 104.54C40.2078 104.54 42.0078 105.668 42.0078 109.124C42.0078 111.956 41.6718 115.844 40.6398 117.932C39.8478 119.612 38.5038 120.14 36.7038 120.14C35.7678 120.14 34.6398 119.972 33.8238 119.804L33.2958 116.636C34.2318 116.9 35.5998 117.14 36.2478 117.14C37.0398 117.14 37.6638 116.9 38.0478 116.108C38.6958 114.74 39.0078 111.836 39.0078 109.46C39.0078 107.54 38.1918 107.276 36.6798 107.276C36.2958 107.276 35.6958 107.324 35.0238 107.372C34.1118 111.02 32.3358 116.708 30.1278 120.236L27.0078 118.988C29.3358 115.844 30.9918 110.996 31.8558 107.708C30.9918 107.804 30.2478 107.9 29.7918 107.948C29.1198 108.068 27.8478 108.236 27.1278 108.356L26.8398 105.092C27.7038 105.164 28.5198 105.116 29.4078 105.092C30.1518 105.068 31.2798 104.996 32.5038 104.9C32.8398 103.076 33.0318 101.324 33.0078 99.812L36.5838 100.172ZM44.8398 102.428C46.3278 104.492 48.3438 109.076 49.0638 111.356L46.0158 112.772C45.3918 110.108 43.6878 105.764 41.9838 103.652L44.8398 102.428Z" fill="#E5005A"/>
<path d="M257.333 62.356C260.285 62.764 265.061 62.644 267.653 62.332V65.428C264.701 65.692 260.357 65.716 257.333 65.428V62.356ZM259.253 72.604C259.061 73.396 258.965 73.972 258.965 74.62C258.965 75.676 259.877 76.324 262.325 76.324C264.461 76.324 266.237 76.132 268.349 75.7L268.397 78.94C266.837 79.228 264.917 79.396 262.205 79.396C258.077 79.396 256.085 77.932 256.085 75.46C256.085 74.524 256.229 73.564 256.493 72.34L259.253 72.604ZM253.637 60.748C253.445 61.252 253.133 62.452 253.037 62.884C252.725 64.492 251.885 69.292 251.885 71.692C251.885 72.148 251.909 72.772 251.981 73.252C252.341 72.436 252.725 71.596 253.061 70.804L254.549 71.98C253.877 73.972 253.085 76.588 252.821 77.86C252.749 78.22 252.701 78.748 252.701 78.988C252.701 79.252 252.725 79.636 252.749 79.972L249.965 80.164C249.485 78.508 249.029 75.58 249.029 72.316C249.029 68.716 249.773 64.66 250.037 62.812C250.109 62.14 250.253 61.228 250.277 60.46L253.637 60.748Z" fill="#E5005A"/>
<path d="M224.039 62.668C224.999 62.644 225.935 62.596 226.391 62.548C228.407 62.38 232.367 62.02 236.759 61.66C239.231 61.444 241.847 61.3 243.551 61.228L243.575 64.3C242.279 64.324 240.215 64.324 238.943 64.636C236.039 65.404 233.855 68.5 233.855 71.356C233.855 75.316 237.551 76.732 241.631 76.948L240.503 80.236C235.463 79.9 230.711 77.212 230.711 72.004C230.711 68.548 232.655 65.812 234.287 64.588C232.031 64.828 227.135 65.356 224.351 65.956L224.039 62.668ZM240.143 66.652C240.743 67.516 241.607 68.98 242.063 69.916L240.239 70.732C239.639 69.412 239.135 68.476 238.367 67.396L240.143 66.652ZM242.831 65.548C243.431 66.388 244.343 67.804 244.847 68.74L243.047 69.604C242.399 68.308 241.847 67.42 241.079 66.364L242.831 65.548Z" fill="#E5005A"/>
<path d="M206.056 76.4203C206.056 77.3323 206.92 77.8843 208.576 77.8843C209.848 77.8843 210.688 77.5243 210.688 76.1323C210.688 75.8683 210.688 75.5323 210.664 75.1003C210.016 75.0043 209.368 74.9323 208.696 74.9323C206.992 74.9323 206.056 75.6043 206.056 76.4203ZM213.568 59.7163C213.496 60.1963 213.448 60.7963 213.424 61.4203C213.4 61.6603 213.4 62.0203 213.4 62.4043C215.368 62.3083 217.36 62.1163 219.472 61.7563L219.448 64.5163C217.864 64.7083 215.68 64.9243 213.352 65.0443C213.352 65.8843 213.352 66.7723 213.352 67.5163C215.776 67.3963 217.816 67.2043 219.76 66.9403L219.736 69.7723C217.576 70.0123 215.704 70.1803 213.4 70.2523C213.448 71.1643 213.496 72.1483 213.568 73.1083C216.592 73.9723 218.896 75.5803 220.288 76.7323L218.56 79.4203C217.264 78.2203 215.632 76.9483 213.712 76.0843C213.736 76.4203 213.736 76.7083 213.736 76.9723C213.736 79.0123 212.176 80.5963 209.008 80.5963C205.168 80.5963 203.152 79.1323 203.152 76.5883C203.152 74.1643 205.384 72.4603 209.08 72.4603C209.584 72.4603 210.088 72.4843 210.568 72.5323C210.52 71.7883 210.496 71.0203 210.472 70.3003C210.064 70.3003 209.656 70.3003 209.224 70.3003C207.832 70.3003 205.096 70.1803 203.512 69.9883L203.488 67.1563C205.048 67.4443 208 67.6123 209.272 67.6123C209.656 67.6123 210.04 67.6123 210.424 67.6123C210.424 66.8203 210.424 65.9563 210.448 65.1403C210.136 65.1403 209.848 65.1403 209.56 65.1403C208.048 65.1403 205.264 64.9243 203.68 64.7083L203.608 61.9723C205.336 62.2603 208.072 62.5003 209.536 62.5003C209.848 62.5003 210.16 62.5003 210.472 62.5003C210.472 62.0443 210.472 61.6603 210.472 61.3723C210.472 60.9163 210.424 60.1723 210.328 59.7163H213.568Z" fill="#E5005A"/>
<path d="M179.316 65.1161V68.4281H176.628V62.5961H179.892C179.46 61.8041 178.812 60.8681 178.236 60.1241L180.66 59.0441C181.5 59.9801 182.46 61.2521 182.844 62.1881L181.98 62.5961H185.748C185.412 61.6601 184.812 60.5081 184.236 59.5961L186.756 58.6841C187.524 59.7161 188.316 61.1801 188.628 62.1401L187.476 62.5961H191.1C191.892 61.4681 192.708 60.0761 193.164 58.9481L196.26 59.8841C195.612 60.7961 194.892 61.7561 194.244 62.5961H197.436V68.4281H194.628V65.1161H179.316ZM197.676 72.3401V74.9561H188.436V78.1481C188.436 79.6361 188.124 80.3801 186.948 80.7881C185.82 81.1961 184.332 81.2441 182.292 81.2441C182.1 80.4281 181.548 79.2281 181.116 78.4601C182.652 78.5321 184.428 78.5321 184.908 78.5081C185.412 78.5081 185.532 78.4121 185.532 78.0761V74.9561H176.316V72.3401H185.532V70.7561H186.9C187.524 70.3721 188.172 69.9161 188.748 69.4361H180.612V66.9641H191.388L192.012 66.8201L193.812 68.2121C192.444 69.6761 190.572 71.2121 188.604 72.3401H197.676Z" fill="#E5005A"/>
<path d="M172.188 68.1881H163.74C165.324 72.8681 168.228 76.6361 172.716 78.4601C171.996 79.0601 171.06 80.3321 170.604 81.1481C166.26 79.1081 163.476 75.6041 161.604 70.9721C160.308 74.9801 157.716 78.7241 152.628 81.1721C152.172 80.3801 151.332 79.3481 150.492 78.7481C155.988 76.3001 158.268 72.3161 159.204 68.1881H150.948V65.2361H159.684C159.924 62.9801 159.9 60.7961 159.924 58.8281H163.044C163.02 60.7961 162.996 63.0041 162.756 65.2361H172.188V68.1881Z" fill="#E5005A"/>
<path d="M133.467 59.812C135.747 60.532 140.979 61.444 143.067 61.684L142.347 64.612C139.923 64.3 134.571 63.172 132.699 62.692L133.467 59.812ZM133.611 64.636C133.299 65.956 132.867 68.884 132.699 70.252C134.883 68.668 137.259 67.972 139.779 67.972C143.979 67.972 146.427 70.564 146.427 73.468C146.427 77.836 142.971 81.196 132.987 80.356L132.075 77.212C139.275 78.196 143.091 76.444 143.091 73.396C143.091 71.836 141.603 70.684 139.515 70.684C136.803 70.684 134.355 71.692 132.843 73.516C132.411 74.044 132.171 74.428 131.955 74.908L129.195 74.212C129.675 71.86 130.227 67.156 130.395 64.18L133.611 64.636Z" fill="#E5005A"/>
<path d="M112.904 60.172C112.76 60.796 112.592 61.564 112.472 62.164C112.304 62.884 112.136 63.772 111.968 64.636C112.76 64.588 113.48 64.54 113.984 64.54C116.528 64.54 118.328 65.668 118.328 69.124C118.328 71.956 117.992 75.844 116.96 77.932C116.168 79.612 114.824 80.14 113.024 80.14C112.088 80.14 110.96 79.972 110.144 79.804L109.616 76.636C110.552 76.9 111.92 77.14 112.568 77.14C113.36 77.14 113.984 76.9 114.368 76.108C115.016 74.74 115.328 71.836 115.328 69.46C115.328 67.54 114.512 67.276 113 67.276C112.616 67.276 112.016 67.324 111.344 67.372C110.432 71.02 108.656 76.708 106.448 80.236L103.328 78.988C105.656 75.844 107.312 70.996 108.176 67.708C107.312 67.804 106.568 67.9 106.112 67.948C105.44 68.068 104.168 68.236 103.448 68.356L103.16 65.092C104.024 65.164 104.84 65.116 105.728 65.092C106.472 65.068 107.6 64.996 108.824 64.9C109.16 63.076 109.352 61.324 109.328 59.812L112.904 60.172ZM121.16 62.428C122.648 64.492 124.664 69.076 125.384 71.356L122.336 72.772C121.712 70.108 120.008 65.764 118.304 63.652L121.16 62.428Z" fill="#E5005A"/>
<path d="M94.9759 66.0283V67.6363H81.6319V66.0283H86.9839V65.1163H82.7599V63.5803H86.9839V62.5723H89.5759V63.5803H93.9919V65.1163H89.5759V66.0283H94.9759ZM85.2319 69.8203V71.0203H91.4239V69.8203H85.2319ZM89.7919 72.4603L89.7199 72.5323C90.1039 72.8923 90.5359 73.2523 91.0399 73.5883C91.5439 73.2523 92.0959 72.8443 92.5999 72.4603H89.7919ZM93.9199 72.0763L95.1199 72.8683C94.3519 73.4683 93.4639 74.0443 92.6719 74.5003C93.5599 74.9083 94.5439 75.2683 95.5039 75.4843C95.0239 75.9163 94.3519 76.7563 94.0639 77.3083C92.3119 76.7323 90.5839 75.7723 89.2159 74.5963V77.2843H86.7199V74.7883C85.3999 75.6043 83.9839 76.2763 82.6159 76.7803C82.3279 76.3243 81.5599 75.4123 81.0799 74.9803C83.0479 74.4043 85.0879 73.5403 86.6239 72.4603H82.8559V68.3563H93.9199V72.0763ZM80.8159 77.8123H95.8159V62.2843H80.8159V77.8123ZM78.1279 59.7163H98.5999V81.2203H95.8159V80.3563H80.8159V81.2203H78.1279V59.7163Z" fill="#E5005A"/>
<path d="M64.8083 75.2201V77.6921H67.4963V75.2201H64.8083ZM67.4963 67.9961V65.6681H64.8083V67.9961H67.4963ZM67.4963 72.8201V70.3961H64.8083V72.8201H67.4963ZM74.1923 77.6921V80.1641H64.8083V81.2201H62.0963V68.1401C61.8323 68.4281 61.5923 68.7161 61.3283 68.9801C61.1363 68.7161 60.8003 68.3321 60.4643 67.9241V68.1881H58.1843V68.8841C58.8323 69.4121 60.8003 71.5001 61.2563 72.0281L59.6243 74.2601C59.3363 73.6361 58.7603 72.7001 58.1843 71.8361V81.1961H55.4243V72.5801C54.6563 74.4281 53.7443 76.1321 52.8083 77.3321C52.5443 76.5161 51.9443 75.3401 51.4883 74.6201C52.8323 73.0601 54.1523 70.5161 55.0403 68.1881H51.9923V65.5241H55.4243V62.7401C54.4163 62.9321 53.4323 63.1001 52.4963 63.2201C52.3523 62.5721 52.0163 61.6121 51.7043 61.0361C54.3443 60.5801 57.2963 59.8841 59.1443 59.0441L61.0403 61.2281C60.1763 61.5641 59.2163 61.8761 58.1843 62.1401V65.5241H60.4643V65.5961C61.9763 63.7721 63.2483 61.3241 64.0403 58.8281L66.7283 59.5241C66.3203 60.7721 65.8163 61.9961 65.2403 63.1721H67.7363C68.2643 61.8281 68.7683 60.3161 69.0563 59.0921L72.0323 59.7401C71.5283 60.8681 70.9523 62.0681 70.4003 63.1721H73.7363V65.6681H70.2083V67.9961H73.2563V70.3961H70.2083V72.8201H73.2563V75.2201H70.2083V77.6921H74.1923Z" fill="#E5005A"/>
<path d="M33.248 71.9801L35.6 70.9241C36.344 72.4121 37.088 74.1401 37.544 75.6521C39.464 72.6041 39.776 69.2921 39.776 66.3641H36.512V66.1241C35.504 68.0681 34.376 70.0841 33.248 71.9801ZM30.992 75.5081C32.096 75.3161 33.248 75.1001 34.376 74.8601C34.04 73.9001 33.632 72.9161 33.224 72.0281C32.456 73.2521 31.712 74.4521 30.992 75.5081ZM48.368 63.5801V64.9241C48.104 74.9561 47.816 78.5561 46.976 79.7081C46.376 80.5241 45.824 80.8121 44.96 80.9561C44.168 81.1001 42.992 81.1001 41.768 81.0521C41.72 80.2601 41.384 79.0601 40.928 78.2681C42.056 78.3641 43.04 78.3641 43.544 78.3641C43.928 78.3641 44.168 78.2681 44.408 77.9321C45.008 77.2601 45.296 74.2121 45.512 66.3641H42.68C42.68 71.4521 41.792 77.0921 36.488 81.2201C35.984 80.5481 35 79.7801 34.232 79.2761C34.616 78.9881 34.976 78.6761 35.312 78.3641C35.264 78.1001 35.216 77.8121 35.144 77.5001C32.12 78.1241 28.976 78.7721 26.528 79.2761L26 76.3961C26.432 76.3241 26.888 76.2521 27.392 76.1561C28.4 74.7641 29.504 73.0601 30.536 71.2601C29.384 69.7241 27.584 67.8521 26.048 66.4361L27.608 63.9401C27.92 64.2281 28.256 64.5161 28.592 64.8281C29.576 62.9561 30.536 60.7001 31.136 58.8281L34.088 59.9081C33.032 62.2361 31.736 64.8041 30.584 66.6761C31.16 67.2281 31.688 67.8041 32.144 68.3321C32.912 66.8441 33.632 65.3561 34.184 63.9881L36.512 64.7321V63.5801H39.776V58.9241H42.68V63.5801H48.368Z" fill="#E5005A"/>
</svg>
