<svg width="196" height="120" viewBox="0 0 196 120" fill="none" xmlns="http://www.w3.org/2000/svg">
<path d="M0 0H196V120H0V0Z" fill="white"/>
<mask id="mask0_1827_25430" style="mask-type:alpha" maskUnits="userSpaceOnUse" x="0" y="0" width="196" height="120">
<path d="M0 0H196V120H0V0Z" fill="white"/>
</mask>
<g mask="url(#mask0_1827_25430)">
<path fill-rule="evenodd" clip-rule="evenodd" d="M165.634 15.6622C165.634 27.6259 156.166 51.6369 144.487 51.6369C132.808 51.6369 123.34 27.6259 123.34 15.6622C123.34 3.6985 132.808 -6 144.487 -6C156.166 -6 165.634 3.6985 165.634 15.6622ZM188.187 91.8413C181.51 82.0258 160.341 67.8713 150.759 74.7113C141.177 81.5514 146.81 106.796 153.488 116.611C160.165 126.427 173.346 128.839 182.928 121.999C192.51 115.159 194.865 101.657 188.187 91.8413ZM154.869 60.737C157.819 72.3126 182.891 75.6304 194.191 72.6079C205.491 69.5855 212.26 57.7514 209.309 46.1757C206.359 34.6001 194.806 27.6664 183.506 30.6889C172.206 33.7114 151.918 49.1614 154.869 60.737ZM92.7229 69.5766C103.849 73.2142 129.058 71.2754 132.609 59.8781C136.16 48.4808 116.709 31.9409 105.582 28.3033C94.4561 24.6658 82.5579 30.9563 79.0069 42.3536C75.4558 53.7509 81.5967 65.9391 92.7229 69.5766ZM133.379 73.2237C143.479 79.2312 139.897 104.866 134.032 115.212C128.168 125.558 115.226 129.075 105.126 123.067C95.0261 117.06 91.5926 103.803 97.4572 93.4567C103.322 83.1107 123.279 67.2163 133.379 73.2237Z" fill="#FAF1F5"/>
</g>
<path d="M101.078 75.2164V75.8724H107.958V75.2164H101.078ZM105.302 69.7604H103.174C102.998 70.1444 102.742 70.4964 102.39 70.8164H105.302V69.7604ZM100.15 68.0164L99.9416 68.6404H101.686C101.75 68.4484 101.782 68.2404 101.782 68.0164H100.15ZM103.526 66.2724V66.9124H105.302V66.2724H103.526ZM108.774 66.2724H107.11V66.9124H108.774V66.2724ZM105.302 68.6404V68.0164H103.526C103.51 68.2244 103.494 68.4324 103.478 68.6404H105.302ZM109.67 69.7604H107.11V70.8164H108.502C108.454 70.6244 108.374 70.4324 108.31 70.2884C108.678 70.3364 109.014 70.3524 109.19 70.3364C109.334 70.3364 109.43 70.3364 109.526 70.2244C109.59 70.1444 109.638 70.0004 109.67 69.7604ZM107.958 72.5284V71.9044H101.078V72.5284H107.958ZM107.958 74.1924V73.5524H101.078V74.1924H107.958ZM109.894 76.9604H107.478C109.014 77.4564 110.694 78.0644 111.702 78.4964L109.59 79.4084C108.646 78.9284 106.982 78.2564 105.318 77.7124L106.534 76.9604H102.262L103.526 77.5364C102.198 78.3204 100.166 79.0404 98.5336 79.4404C98.2296 79.0724 97.5576 78.4004 97.1576 78.0804C98.6456 77.8244 100.278 77.4244 101.398 76.9604H99.2216V72.2084C98.8536 72.2884 98.4696 72.3524 98.0376 72.4164C97.8776 72.0164 97.4296 71.2964 97.1416 70.9444C99.1256 70.6884 100.278 70.2884 100.934 69.7604H99.5256L99.4776 69.9044L97.7496 69.7924C98.1016 69.0084 98.4856 67.8564 98.7576 66.9124H101.798V66.2724H98.1656V65.1524H101.798V64.4644H103.526V65.1524H105.302V64.4644H107.11V65.1524H110.502V68.0164H107.11V68.6404H111.542C111.542 68.6404 111.526 68.9604 111.51 69.1364C111.43 70.1764 111.334 70.7524 111.062 71.0404C110.822 71.2804 110.47 71.4084 110.134 71.4244C110.07 71.4244 109.99 71.4404 109.894 71.4404V76.9604Z" fill="#E5005A"/>
<path d="M84.6132 75.5522H90.6772V74.7842H84.6132V75.5522ZM90.6772 72.7202H84.6132V73.4882H90.6772V72.7202ZM92.6132 71.1842V77.6162C92.6132 78.5122 92.3892 78.9122 91.7332 79.1522C91.0772 79.3762 90.1332 79.3922 88.8372 79.3922C88.7412 78.9282 88.4852 78.3042 88.2772 77.8722C89.0452 77.9202 90.0692 77.9202 90.3092 77.9042C90.5972 77.9042 90.6772 77.8242 90.6772 77.6002V76.8642H84.6132V79.3922H82.7092V71.1842H92.6132ZM90.0852 67.4722H86.5652C86.2132 67.9202 85.8292 68.3842 85.4612 68.8162C87.0132 68.7842 88.6772 68.7682 90.3572 68.7362C90.0052 68.4482 89.6532 68.1762 89.3172 67.9362L90.0852 67.4722ZM94.7092 67.4722H91.5412C92.7092 68.3202 94.0372 69.3922 94.7412 70.2082L93.0612 71.2802C92.8212 70.9762 92.4852 70.6242 92.1012 70.2562C88.1172 70.4002 83.9412 70.5122 81.1412 70.5762L81.0932 68.8642L83.3172 68.8322C83.6212 68.4002 83.9092 67.9202 84.1652 67.4722H80.5332V65.8082H86.6452V64.4482H88.5972V65.8082H94.7092V67.4722Z" fill="#E5005A"/>
<path d="M75.3971 69.1202H73.5731C73.7971 70.4482 74.1171 71.6962 74.5491 72.8482C74.9491 71.7602 75.2211 70.5122 75.3971 69.1202ZM69.2851 71.0082L69.6211 70.9122L70.1811 71.3602C70.4531 71.0242 70.7091 70.6402 70.9491 70.2082H69.0451C68.8211 70.4802 68.5971 70.7522 68.3571 71.0082H69.2851ZM67.5571 67.5042V68.5762H68.0851C68.3411 68.2242 68.5811 67.8722 68.8051 67.5042H67.5571ZM78.3091 69.1202H77.3651C77.0291 71.4882 76.4851 73.4402 75.6371 75.0722C76.3571 76.2082 77.2852 77.1362 78.4692 77.7442C78.0372 78.1282 77.4451 78.8802 77.1571 79.4082C76.0531 78.7522 75.1731 77.8882 74.4531 76.8322C73.5731 77.8882 72.4691 78.7522 71.0771 79.4562C70.9011 79.0082 70.3411 78.1282 69.9891 77.7282C71.4931 77.0562 72.5971 76.1602 73.4291 74.9922C72.9811 74.0162 72.6291 72.9282 72.3411 71.7442C72.1011 72.1442 71.8611 72.5122 71.6051 72.8482C71.3971 72.6082 70.9491 72.1922 70.5491 71.8722C69.9091 72.6242 69.0931 73.4402 68.3091 74.0642V74.3842C69.2691 74.3202 70.2451 74.2242 71.2051 74.1442V75.7762C70.2451 75.8722 69.2691 75.9522 68.3091 76.0322V77.6002C68.3091 78.4162 68.1651 78.8482 67.5891 79.1202C67.0131 79.3762 66.2771 79.3922 65.2851 79.3922C65.2051 78.8962 64.9651 78.2242 64.7411 77.7762C65.3491 77.7922 66.0531 77.7922 66.2451 77.7922C66.4531 77.7762 66.5171 77.7282 66.5171 77.5522V76.1922C65.4131 76.2882 64.3891 76.3842 63.5091 76.4642L63.3171 74.7682C64.2131 74.7042 65.3171 74.6242 66.5171 74.5282V73.2802H67.1411C67.4131 73.0402 67.7011 72.7682 67.9731 72.4802H66.8371C66.0531 73.1362 65.2371 73.7122 64.3571 74.2082C64.1011 73.8402 63.4611 73.1042 63.0771 72.7522C63.6691 72.4642 64.2291 72.1282 64.7571 71.7762V71.0082H65.7811C66.0851 70.7522 66.3731 70.4802 66.6611 70.2082H63.4451V68.5762H65.7811V67.5042H63.9731V65.9042H65.7811V64.4482H67.5571V65.9042H69.1091V66.9922C69.4931 66.3202 69.8291 65.5842 70.1171 64.8322L71.8771 65.3282C71.4131 66.4962 70.8531 67.5682 70.2131 68.5762H71.2211V69.6642C71.9251 68.1762 72.4051 66.3362 72.6931 64.4482L74.6131 64.7362C74.4531 65.6322 74.2771 66.5122 74.0531 67.3602H78.3091V69.1202Z" fill="#E5005A"/>
<path d="M53.0586 76.1124C53.0586 76.7044 53.7146 77.1044 54.6746 77.1044C55.0106 77.1044 55.3146 77.0884 55.6026 77.0564C55.5066 76.0164 54.9146 75.3444 54.0506 75.3444C53.4426 75.3444 53.0586 75.7124 53.0586 76.1124ZM50.3386 65.8084C50.7866 65.8724 51.3466 65.8884 51.7946 65.8884C52.6426 65.8884 56.0666 65.8244 56.9786 65.7444C57.6346 65.6804 58.0026 65.6324 58.1946 65.5684L59.2346 66.9924C58.8666 67.2324 58.4826 67.4564 58.1146 67.7284C57.2506 68.3364 55.5706 69.7444 54.5626 70.5444C55.0906 70.4164 55.5706 70.3684 56.0826 70.3684C58.8026 70.3684 60.8666 72.0644 60.8666 74.4004C60.8666 76.9284 58.9466 78.9284 55.0746 78.9284C52.8506 78.9284 51.1706 77.9044 51.1706 76.3044C51.1706 75.0084 52.3386 73.8084 54.0346 73.8084C56.0186 73.8084 57.2186 75.0244 57.4426 76.5444C58.3226 76.0804 58.7706 75.3444 58.7706 74.3684C58.7706 72.9284 57.3306 71.9524 55.4426 71.9524C52.9946 71.9524 51.3946 73.2484 49.6826 75.2004L48.2266 73.6964C49.3626 72.7844 51.2986 71.1524 52.2426 70.3684C53.1386 69.6324 54.8026 68.2884 55.5866 67.6004C54.7706 67.6164 52.5626 67.7124 51.7146 67.7604C51.2826 67.7924 50.7706 67.8404 50.4026 67.8884L50.3386 65.8084Z" fill="#E5005A"/>
<path d="M38.036 65.3601C37.94 65.7761 37.828 66.2881 37.748 66.6881C37.636 67.1681 37.524 67.7601 37.412 68.3361C37.94 68.3041 38.42 68.2721 38.756 68.2721C40.452 68.2721 41.652 69.0241 41.652 71.3281C41.652 73.2161 41.428 75.8081 40.74 77.2001C40.212 78.3201 39.316 78.6721 38.116 78.6721C37.492 78.6721 36.74 78.5601 36.196 78.4481L35.844 76.3361C36.468 76.5121 37.38 76.6721 37.812 76.6721C38.34 76.6721 38.756 76.5121 39.012 75.9841C39.444 75.0721 39.652 73.1361 39.652 71.5521C39.652 70.2721 39.108 70.0961 38.1 70.0961C37.844 70.0961 37.444 70.1281 36.996 70.1601C36.388 72.5921 35.204 76.3841 33.732 78.7361L31.652 77.9041C33.204 75.8081 34.308 72.5761 34.884 70.3841C34.308 70.4481 33.812 70.5121 33.508 70.5441C33.06 70.6241 32.212 70.7361 31.732 70.8161L31.54 68.6401C32.116 68.6881 32.66 68.6561 33.252 68.6401C33.748 68.6241 34.5 68.5761 35.316 68.5121C35.54 67.2961 35.668 66.1281 35.652 65.1201L38.036 65.3601ZM43.54 66.8641C44.532 68.2401 45.876 71.2961 46.356 72.8161L44.324 73.7601C43.908 71.9841 42.772 69.0881 41.636 67.6801L43.54 66.8641Z" fill="#E5005A"/>
<path d="M21.3915 65.3601C21.2955 65.7761 21.1835 66.2881 21.1035 66.6881C20.9915 67.1681 20.8795 67.7601 20.7675 68.3361C21.2955 68.3041 21.7755 68.2721 22.1115 68.2721C23.8075 68.2721 25.0075 69.0241 25.0075 71.3281C25.0075 73.2161 24.7835 75.8081 24.0955 77.2001C23.5675 78.3201 22.6715 78.6721 21.4715 78.6721C20.8475 78.6721 20.0955 78.5601 19.5515 78.4481L19.1995 76.3361C19.8235 76.5121 20.7355 76.6721 21.1675 76.6721C21.6955 76.6721 22.1115 76.5121 22.3675 75.9841C22.7995 75.0721 23.0075 73.1361 23.0075 71.5521C23.0075 70.2721 22.4635 70.0961 21.4555 70.0961C21.1995 70.0961 20.7995 70.1281 20.3515 70.1601C19.7435 72.5921 18.5595 76.3841 17.0875 78.7361L15.0075 77.9041C16.5595 75.8081 17.6635 72.5761 18.2395 70.3841C17.6635 70.4481 17.1675 70.5121 16.8635 70.5441C16.4155 70.6241 15.5675 70.7361 15.0875 70.8161L14.8955 68.6401C15.4715 68.6881 16.0155 68.6561 16.6075 68.6401C17.1035 68.6241 17.8555 68.5761 18.6715 68.5121C18.8955 67.2961 19.0235 66.1281 19.0075 65.1201L21.3915 65.3601ZM26.8955 66.8641C27.8875 68.2401 29.2315 71.2961 29.7115 72.8161L27.6795 73.7601C27.2635 71.9841 26.1275 69.0881 24.9915 67.6801L26.8955 66.8641Z" fill="#E5005A"/>
<path d="M167.118 41.8162C169.086 42.0882 172.27 42.0082 173.998 41.8002V43.8642C172.03 44.0402 169.134 44.0562 167.118 43.8642V41.8162ZM168.398 48.6482C168.27 49.1762 168.206 49.5602 168.206 49.9922C168.206 50.6962 168.814 51.1282 170.446 51.1282C171.87 51.1282 173.054 51.0002 174.462 50.7122L174.494 52.8722C173.454 53.0642 172.174 53.1762 170.366 53.1762C167.614 53.1762 166.286 52.2002 166.286 50.5522C166.286 49.9282 166.382 49.2882 166.558 48.4722L168.398 48.6482ZM164.654 40.7442C164.526 41.0802 164.318 41.8802 164.254 42.1682C164.046 43.2402 163.486 46.4402 163.486 48.0402C163.486 48.3442 163.502 48.7602 163.55 49.0802C163.79 48.5362 164.046 47.9762 164.27 47.4482L165.262 48.2322C164.814 49.5602 164.286 51.3042 164.11 52.1522C164.062 52.3922 164.03 52.7442 164.03 52.9042C164.03 53.0802 164.046 53.3362 164.062 53.5602L162.206 53.6882C161.886 52.5842 161.582 50.6322 161.582 48.4562C161.582 46.0562 162.078 43.3522 162.254 42.1202C162.302 41.6722 162.398 41.0642 162.414 40.5522L164.654 40.7442Z" fill="#E5005A"/>
<path d="M145.082 42.024C145.722 42.008 146.346 41.976 146.65 41.944C147.994 41.832 150.634 41.592 153.562 41.352C155.21 41.208 156.954 41.112 158.09 41.064L158.106 43.112C157.242 43.128 155.866 43.128 155.018 43.336C153.082 43.848 151.626 45.912 151.626 47.816C151.626 50.456 154.09 51.4 156.81 51.544L156.058 53.736C152.698 53.512 149.53 51.72 149.53 48.248C149.53 45.944 150.826 44.12 151.914 43.304C150.41 43.464 147.146 43.816 145.29 44.216L145.082 42.024ZM155.818 44.68C156.218 45.256 156.794 46.232 157.098 46.856L155.882 47.4C155.482 46.52 155.146 45.896 154.634 45.176L155.818 44.68ZM157.61 43.944C158.01 44.504 158.618 45.448 158.954 46.072L157.754 46.648C157.322 45.784 156.954 45.192 156.442 44.488L157.61 43.944Z" fill="#E5005A"/>
<path d="M133.253 51.1922C133.253 51.8002 133.829 52.1682 134.933 52.1682C135.781 52.1682 136.341 51.9282 136.341 51.0002C136.341 50.8242 136.341 50.6002 136.325 50.3122C135.893 50.2482 135.461 50.2002 135.013 50.2002C133.877 50.2002 133.253 50.6482 133.253 51.1922ZM138.261 40.0562C138.213 40.3762 138.181 40.7762 138.165 41.1922C138.149 41.3522 138.149 41.5922 138.149 41.8482C139.461 41.7842 140.789 41.6562 142.197 41.4162L142.181 43.2562C141.125 43.3842 139.669 43.5282 138.117 43.6082C138.117 44.1682 138.117 44.7602 138.117 45.2562C139.733 45.1762 141.093 45.0482 142.389 44.8722L142.373 46.7602C140.933 46.9202 139.685 47.0322 138.149 47.0802C138.181 47.6882 138.213 48.3442 138.261 48.9842C140.277 49.5602 141.813 50.6322 142.741 51.4002L141.589 53.1922C140.725 52.3922 139.637 51.5442 138.357 50.9682C138.373 51.1922 138.373 51.3842 138.373 51.5602C138.373 52.9202 137.333 53.9762 135.221 53.9762C132.661 53.9762 131.317 53.0002 131.317 51.3042C131.317 49.6882 132.805 48.5522 135.269 48.5522C135.605 48.5522 135.941 48.5682 136.261 48.6002C136.229 48.1042 136.213 47.5922 136.197 47.1122C135.925 47.1122 135.653 47.1122 135.365 47.1122C134.437 47.1122 132.613 47.0322 131.557 46.9042L131.541 45.0162C132.581 45.2082 134.549 45.3202 135.397 45.3202C135.653 45.3202 135.909 45.3202 136.165 45.3202C136.165 44.7922 136.165 44.2162 136.181 43.6722C135.973 43.6722 135.781 43.6722 135.589 43.6722C134.581 43.6722 132.725 43.5282 131.669 43.3842L131.621 41.5602C132.773 41.7522 134.597 41.9122 135.573 41.9122C135.781 41.9122 135.989 41.9122 136.197 41.9122C136.197 41.6082 136.197 41.3522 136.197 41.1602C136.197 40.8562 136.165 40.3602 136.101 40.0562H138.261Z" fill="#E5005A"/>
<path d="M115.587 43.6562V45.8642H113.795V41.9762H115.971C115.683 41.4482 115.251 40.8242 114.867 40.3282L116.483 39.6082C117.043 40.2322 117.683 41.0802 117.939 41.7042L117.363 41.9762H119.875C119.651 41.3522 119.251 40.5842 118.867 39.9762L120.547 39.3682C121.059 40.0562 121.587 41.0322 121.795 41.6722L121.027 41.9762H123.443C123.971 41.2242 124.515 40.2962 124.819 39.5442L126.883 40.1682C126.451 40.7762 125.971 41.4162 125.539 41.9762H127.667V45.8642H125.795V43.6562H115.587ZM127.827 48.4722V50.2162H121.667V52.3442C121.667 53.3362 121.459 53.8322 120.675 54.1042C119.923 54.3762 118.931 54.4082 117.571 54.4082C117.443 53.8642 117.075 53.0642 116.787 52.5522C117.811 52.6002 118.995 52.6002 119.315 52.5842C119.651 52.5842 119.731 52.5202 119.731 52.2962V50.2162H113.587V48.4722H119.731V47.4162H120.643C121.059 47.1602 121.491 46.8562 121.875 46.5362H116.451V44.8882H123.635L124.051 44.7922L125.251 45.7202C124.339 46.6962 123.091 47.7202 121.779 48.4722H127.827Z" fill="#E5005A"/>
<path d="M110.994 45.7044H105.362C106.418 48.8244 108.354 51.3364 111.346 52.5524C110.866 52.9524 110.242 53.8004 109.938 54.3444C107.042 52.9844 105.186 50.6484 103.938 47.5604C103.074 50.2324 101.346 52.7284 97.9543 54.3604C97.6503 53.8324 97.0903 53.1444 96.5303 52.7444C100.194 51.1124 101.714 48.4564 102.338 45.7044H96.8343V43.7364H102.658C102.818 42.2324 102.802 40.7764 102.818 39.4644H104.898C104.882 40.7764 104.866 42.2484 104.706 43.7364H110.994V45.7044Z" fill="#E5005A"/>
<path d="M85.3412 40.1201C86.8612 40.6001 90.3492 41.2081 91.7412 41.3681L91.2612 43.3201C89.6452 43.1121 86.0772 42.3601 84.8292 42.0401L85.3412 40.1201ZM85.4372 43.3361C85.2292 44.2161 84.9412 46.1681 84.8292 47.0801C86.2852 46.0241 87.8692 45.5601 89.5492 45.5601C92.3492 45.5601 93.9812 47.2881 93.9812 49.2241C93.9812 52.1361 91.6772 54.3761 85.0212 53.8161L84.4132 51.7201C89.2132 52.3761 91.7572 51.2081 91.7572 49.1761C91.7572 48.1361 90.7652 47.3681 89.3732 47.3681C87.5652 47.3681 85.9332 48.0401 84.9252 49.2561C84.6372 49.6081 84.4772 49.8641 84.3332 50.1841L82.4932 49.7201C82.8132 48.1521 83.1812 45.0161 83.2932 43.0321L85.4372 43.3361Z" fill="#E5005A"/>
<path d="M71.7919 40.3601C71.6959 40.7761 71.5839 41.2881 71.5039 41.6881C71.3919 42.1681 71.2799 42.7601 71.1679 43.3361C71.6959 43.3041 72.1759 43.2721 72.5119 43.2721C74.2079 43.2721 75.4079 44.0241 75.4079 46.3281C75.4079 48.2161 75.1839 50.8081 74.4959 52.2001C73.9679 53.3201 73.0719 53.6721 71.8719 53.6721C71.2479 53.6721 70.4959 53.5601 69.9519 53.4481L69.5999 51.3361C70.2239 51.5121 71.1359 51.6721 71.5679 51.6721C72.0959 51.6721 72.5119 51.5121 72.7679 50.9841C73.1999 50.0721 73.4079 48.1361 73.4079 46.5521C73.4079 45.2721 72.8639 45.0961 71.8559 45.0961C71.5999 45.0961 71.1999 45.1281 70.7519 45.1601C70.1439 47.5921 68.9599 51.3841 67.4879 53.7361L65.4079 52.9041C66.9599 50.8081 68.0639 47.5761 68.6399 45.3841C68.0639 45.4481 67.5679 45.5121 67.2639 45.5441C66.8159 45.6241 65.9679 45.7361 65.4879 45.8161L65.2959 43.6401C65.8719 43.6881 66.4159 43.6561 67.0079 43.6401C67.5039 43.6241 68.2559 43.5761 69.0719 43.5121C69.2959 42.2961 69.4239 41.1281 69.4079 40.1201L71.7919 40.3601ZM77.2959 41.8641C78.2879 43.2401 79.6319 46.2961 80.1119 47.8161L78.0799 48.7601C77.6639 46.9841 76.5279 44.0881 75.3919 42.6801L77.2959 41.8641Z" fill="#E5005A"/>
<path d="M59.9996 44.2642V45.3362H51.1036V44.2642H54.6716V43.6562H51.8556V42.6322H54.6716V41.9602H56.3996V42.6322H59.3436V43.6562H56.3996V44.2642H59.9996ZM53.5036 46.7922V47.5922H57.6316V46.7922H53.5036ZM56.5436 48.5522L56.4956 48.6002C56.7516 48.8402 57.0396 49.0802 57.3756 49.3042C57.7116 49.0802 58.0796 48.8082 58.4156 48.5522H56.5436ZM59.2956 48.2962L60.0956 48.8242C59.5836 49.2242 58.9916 49.6082 58.4636 49.9122C59.0556 50.1842 59.7116 50.4242 60.3516 50.5682C60.0316 50.8562 59.5836 51.4162 59.3916 51.7842C58.2236 51.4002 57.0716 50.7602 56.1596 49.9762V51.7682H54.4956V50.1042C53.6156 50.6482 52.6716 51.0962 51.7596 51.4322C51.5676 51.1282 51.0556 50.5202 50.7356 50.2322C52.0476 49.8482 53.4076 49.2722 54.4316 48.5522H51.9196V45.8162H59.2956V48.2962ZM50.5596 52.1202H60.5596V41.7682H50.5596V52.1202ZM48.7676 40.0562H62.4156V54.3922H60.5596V53.8162H50.5596V54.3922H48.7676V40.0562Z" fill="#E5005A"/>
<path d="M40.048 50.3924V52.0404H41.84V50.3924H40.048ZM41.84 45.5764V44.0244H40.048V45.5764H41.84ZM41.84 48.7924V47.1764H40.048V48.7924H41.84ZM46.304 52.0404V53.6884H40.048V54.3924H38.24V45.6724C38.064 45.8644 37.904 46.0564 37.728 46.2324C37.6 46.0564 37.376 45.8004 37.152 45.5284V45.7044H35.632V46.1684C36.064 46.5204 37.376 47.9124 37.68 48.2644L36.592 49.7524C36.4 49.3364 36.016 48.7124 35.632 48.1364V54.3764H33.792V48.6324C33.28 49.8644 32.672 51.0004 32.048 51.8004C31.872 51.2564 31.472 50.4724 31.168 49.9924C32.064 48.9524 32.944 47.2564 33.536 45.7044H31.504V43.9284H33.792V42.0724C33.12 42.2004 32.464 42.3124 31.84 42.3924C31.744 41.9604 31.52 41.3204 31.312 40.9364C33.072 40.6324 35.04 40.1684 36.272 39.6084L37.536 41.0644C36.96 41.2884 36.32 41.4964 35.632 41.6724V43.9284H37.152V43.9764C38.16 42.7604 39.008 41.1284 39.536 39.4644L41.328 39.9284C41.056 40.7604 40.72 41.5764 40.336 42.3604H42C42.352 41.4644 42.688 40.4564 42.88 39.6404L44.864 40.0724C44.528 40.8244 44.144 41.6244 43.776 42.3604H46V44.0244H43.648V45.5764H45.68V47.1764H43.648V48.7924H45.68V50.3924H43.648V52.0404H46.304Z" fill="#E5005A"/>
<path d="M19.1679 48.2324L20.7359 47.5284C21.2319 48.5204 21.7279 49.6724 22.0319 50.6804C23.3119 48.6484 23.5199 46.4404 23.5199 44.4884H21.3439V44.3284C20.6719 45.6244 19.9199 46.9684 19.1679 48.2324ZM17.6639 50.5844C18.3999 50.4564 19.1679 50.3124 19.9199 50.1524C19.6959 49.5124 19.4239 48.8564 19.1519 48.2644C18.6399 49.0804 18.1439 49.8804 17.6639 50.5844ZM29.2479 42.6324V43.5284C29.0719 50.2164 28.8799 52.6164 28.3199 53.3844C27.9199 53.9284 27.5519 54.1204 26.9759 54.2164C26.4479 54.3124 25.6639 54.3124 24.8479 54.2804C24.8159 53.7524 24.5919 52.9524 24.2879 52.4244C25.0399 52.4884 25.6959 52.4884 26.0319 52.4884C26.2879 52.4884 26.4479 52.4244 26.6079 52.2004C27.0079 51.7524 27.1999 49.7204 27.3439 44.4884H25.4559C25.4559 47.8804 24.8639 51.6404 21.3279 54.3924C20.9919 53.9444 20.3359 53.4324 19.8239 53.0964C20.0799 52.9044 20.3199 52.6964 20.5439 52.4884C20.5119 52.3124 20.4799 52.1204 20.4319 51.9124C18.4159 52.3284 16.3199 52.7604 14.6879 53.0964L14.3359 51.1764C14.6239 51.1284 14.9279 51.0804 15.2639 51.0164C15.9359 50.0884 16.6719 48.9524 17.3599 47.7524C16.5919 46.7284 15.3919 45.4804 14.3679 44.5364L15.4079 42.8724C15.6159 43.0644 15.8399 43.2564 16.0639 43.4644C16.7199 42.2164 17.3599 40.7124 17.7599 39.4644L19.7279 40.1844C19.0239 41.7364 18.1599 43.4484 17.3919 44.6964C17.7759 45.0644 18.1279 45.4484 18.4319 45.8004C18.9439 44.8084 19.4239 43.8164 19.7919 42.9044L21.3439 43.4004V42.6324H23.5199V39.5284H25.4559V42.6324H29.2479Z" fill="#E5005A"/>
</svg>
