<svg width="370" height="180" viewBox="0 0 370 180" fill="none" xmlns="http://www.w3.org/2000/svg">
<path d="M0 0H370V180H0V0Z" fill="white"/>
<mask id="mask0_1827_25378" style="mask-type:alpha" maskUnits="userSpaceOnUse" x="0" y="0" width="370" height="180">
<path d="M0 0H370V180H0V0Z" fill="white"/>
</mask>
<g mask="url(#mask0_1827_25378)">
<path fill-rule="evenodd" clip-rule="evenodd" d="M332.443 -5.01438C332.443 13.2031 318.026 49.7653 300.242 49.7653C282.458 49.7653 268.041 13.2031 268.041 -5.01438C268.041 -23.2318 282.458 -38 300.242 -38C318.026 -38 332.443 -23.2318 332.443 -5.01438ZM366.785 110.986C356.618 96.0394 324.383 74.4858 309.792 84.9014C295.201 95.3169 303.78 133.758 313.947 148.704C324.115 163.65 344.186 167.323 358.777 156.907C373.368 146.492 376.953 125.932 366.785 110.986ZM316.05 63.6223C320.543 81.2488 358.72 86.3009 375.927 81.6985C393.134 77.096 403.441 59.0759 398.948 41.4494C394.456 23.8229 376.864 13.2648 359.657 17.8672C342.45 22.4697 311.557 45.9958 316.05 63.6223ZM221.419 77.0826C238.361 82.6216 276.747 79.6693 282.155 62.3144C287.562 44.9594 257.943 19.7736 241 14.2346C224.058 8.69563 205.94 18.2744 200.533 35.6293C195.126 52.9843 204.477 71.5436 221.419 77.0826ZM283.328 82.6362C298.707 91.7839 293.252 130.818 284.322 146.572C275.392 162.327 255.685 167.682 240.306 158.534C224.926 149.387 219.698 129.2 228.628 113.445C237.558 97.6913 267.948 73.4884 283.328 82.6362Z" fill="#FAF1F5"/>
</g>
<path d="M278.532 92.8802L277.884 84.6722L277.764 81.0962H281.748L281.628 84.6722L280.98 92.8802H278.532ZM279.756 99.2642C278.532 99.2642 277.644 98.4002 277.644 97.1522C277.644 95.8802 278.556 95.0162 279.756 95.0162C280.956 95.0162 281.868 95.8802 281.868 97.1522C281.868 98.4002 280.956 99.2642 279.756 99.2642Z" fill="#E5005A"/>
<path d="M259.206 79.7041C259.158 80.0881 259.062 81.3841 259.038 81.7681C259.038 81.9601 259.038 82.2241 259.014 82.5121C261.438 82.5121 264.726 82.4641 265.974 82.4881L265.95 85.3201C264.51 85.2481 262.278 85.2001 259.014 85.2001C259.014 86.4241 259.038 87.7441 259.038 88.8001C259.614 89.7121 259.902 90.8401 259.902 92.0881C259.902 95.2081 258.078 99.1921 252.222 100.824L249.654 98.2801C252.078 97.7761 254.19 96.9841 255.51 95.5441C255.174 95.6161 254.814 95.6641 254.43 95.6641C252.582 95.6641 250.302 94.1761 250.302 91.2481C250.302 88.5361 252.486 86.7601 255.102 86.7601C255.438 86.7601 255.75 86.7841 256.062 86.8321C256.062 86.3041 256.062 85.7521 256.038 85.2241C252.414 85.2721 248.67 85.4161 245.718 85.5841L245.646 82.6801C248.382 82.6801 252.75 82.5841 256.014 82.5361C255.99 82.2241 255.99 81.9841 255.966 81.7921C255.894 80.8081 255.798 79.9921 255.726 79.7041H259.206ZM253.182 91.2001C253.182 92.3041 254.07 93.0001 255.03 93.0001C256.038 93.0001 256.926 92.2321 256.59 90.1201C256.254 89.5681 255.678 89.2801 255.03 89.2801C254.094 89.2801 253.182 89.9281 253.182 91.2001Z" fill="#E5005A"/>
<path d="M227.348 96.3363C227.348 97.2483 228.212 97.8003 229.868 97.8003C231.14 97.8003 231.98 97.4403 231.98 96.0483C231.98 95.7843 231.98 95.4483 231.956 95.0163C231.308 94.9203 230.66 94.8483 229.988 94.8483C228.284 94.8483 227.348 95.5203 227.348 96.3363ZM234.86 79.6323C234.788 80.1123 234.74 80.7123 234.716 81.3363C234.692 81.5763 234.692 81.9363 234.692 82.3203C236.66 82.2243 238.652 82.0323 240.764 81.6723L240.74 84.4323C239.156 84.6243 236.972 84.8403 234.644 84.9603C234.644 85.8003 234.644 86.6883 234.644 87.4323C237.068 87.3123 239.108 87.1203 241.052 86.8563L241.028 89.6883C238.868 89.9283 236.996 90.0963 234.692 90.1683C234.74 91.0803 234.788 92.0643 234.86 93.0243C237.884 93.8883 240.188 95.4963 241.58 96.6483L239.852 99.3363C238.556 98.1363 236.924 96.8643 235.004 96.0003C235.028 96.3363 235.028 96.6243 235.028 96.8883C235.028 98.9283 233.468 100.512 230.3 100.512C226.46 100.512 224.444 99.0483 224.444 96.5043C224.444 94.0803 226.676 92.3763 230.372 92.3763C230.876 92.3763 231.38 92.4003 231.86 92.4483C231.812 91.7043 231.788 90.9363 231.764 90.2163C231.356 90.2163 230.948 90.2163 230.516 90.2163C229.124 90.2163 226.388 90.0963 224.804 89.9043L224.78 87.0723C226.34 87.3603 229.292 87.5283 230.564 87.5283C230.948 87.5283 231.332 87.5283 231.716 87.5283C231.716 86.7363 231.716 85.8723 231.74 85.0563C231.428 85.0563 231.14 85.0563 230.852 85.0563C229.34 85.0563 226.556 84.8403 224.972 84.6243L224.9 81.8883C226.628 82.1763 229.364 82.4163 230.828 82.4163C231.14 82.4163 231.452 82.4163 231.764 82.4163C231.764 81.9603 231.764 81.5763 231.764 81.2883C231.764 80.8323 231.716 80.0883 231.62 79.6323H234.86Z" fill="#E5005A"/>
<path d="M202.691 81.8883C202.523 82.7523 202.403 84.1443 202.403 84.8163C202.379 86.3763 202.403 88.1763 202.547 89.9043C202.883 93.3603 203.603 95.7363 205.115 95.7363C206.243 95.7363 207.203 92.9283 207.659 91.0083L210.059 93.9363C208.475 98.1123 206.963 99.5763 205.043 99.5763C202.403 99.5763 200.123 97.2003 199.451 90.7683C199.211 88.5603 199.187 85.7523 199.187 84.2883C199.187 83.6163 199.139 82.5843 198.995 81.8403L202.691 81.8883ZM214.691 82.4403C216.971 85.2003 218.795 91.2003 219.059 94.8723L215.915 96.0963C215.531 92.2323 214.259 86.4003 211.643 83.4243L214.691 82.4403Z" fill="#E5005A"/>
<path d="M174.802 82.5362C175.762 82.5122 176.698 82.4642 177.178 82.4162C179.17 82.2482 183.13 81.8882 187.522 81.5042C189.994 81.3122 192.634 81.1442 194.314 81.0962L194.338 84.1682C193.042 84.1922 190.978 84.1922 189.706 84.4802C186.802 85.2482 184.642 88.3682 184.642 91.2242C184.642 95.1602 188.338 96.6002 192.394 96.8162L191.266 100.104C186.25 99.7682 181.498 97.0562 181.498 91.8722C181.498 88.4162 183.442 85.6802 185.05 84.4562C182.794 84.6962 177.898 85.2242 175.114 85.8242L174.802 82.5362Z" fill="#E5005A"/>
<path d="M159.843 80.0163C159.699 81.0243 159.579 82.2483 159.531 83.2083C159.435 85.8003 159.243 91.1763 159.243 94.1523C159.243 96.5763 160.683 97.3683 162.555 97.3683C166.515 97.3683 169.035 95.0883 170.763 92.4723L172.947 95.1123C171.411 97.4163 168.003 100.632 162.531 100.632C158.595 100.632 156.051 98.9043 156.051 94.8003C156.051 91.5843 156.291 85.2723 156.291 83.2083C156.291 82.0803 156.195 80.9283 155.979 79.9683L159.843 80.0163Z" fill="#E5005A"/>
<path d="M133.792 79.0322L136.624 79.9682C135.928 81.6002 135.088 83.2322 134.128 84.8162V101.088H131.272V88.8482C130.504 89.7842 129.688 90.6482 128.896 91.3922C128.584 90.6722 127.768 89.0882 127.24 88.3682C129.832 86.1842 132.352 82.6562 133.792 79.0322ZM142.624 98.1842H146.152C147.304 98.1842 147.496 97.3682 147.688 93.9842C148.36 94.4882 149.56 95.0402 150.328 95.2082C149.992 99.3362 149.248 100.848 146.416 100.848H142.312C139.288 100.848 138.424 99.8882 138.424 96.5042V79.3442H141.304V87.5522C143.56 86.2562 145.768 84.7202 147.352 83.3522L149.464 85.8482C147.088 87.5282 144.112 89.1362 141.304 90.4802V96.5282C141.304 97.9442 141.472 98.1842 142.624 98.1842Z" fill="#E5005A"/>
<path d="M116.296 86.064V84.552H113.176V86.064H116.296ZM116.296 89.952V88.368H113.176V89.952H116.296ZM116.296 93.888V92.256H113.176V93.888H116.296ZM110.416 96.288V87.096C109.984 87.552 109.552 87.96 109.12 88.344C108.688 87.768 107.632 86.616 107.032 86.088C109.24 84.408 111.232 81.648 112.336 78.792L115.168 79.608C114.808 80.472 114.4 81.312 113.944 82.152H116.68C117.088 81.096 117.448 79.92 117.688 78.984L120.832 79.584C120.4 80.448 119.968 81.336 119.536 82.152H123.784V84.552H119.008V86.064H123.136V88.368H119.008V89.952H123.04V92.256H119.008V93.888H124.192V96.288H110.416ZM108.544 83.136L106.192 84.936C105.52 83.76 103.936 82.104 102.592 80.952L104.776 79.32C106.12 80.4 107.776 81.984 108.544 83.136ZM107.896 88.032V95.688C108.832 97.296 110.512 97.968 112.96 98.064C115.84 98.184 121.504 98.112 124.816 97.848C124.48 98.52 124.072 99.84 123.928 100.632C120.952 100.776 115.864 100.824 112.936 100.704C110.08 100.584 108.16 99.888 106.72 98.04C105.76 98.976 104.776 99.888 103.552 100.92L102.208 98.088C103.144 97.488 104.224 96.696 105.184 95.88V90.648H102.496V88.032H107.896Z" fill="#E5005A"/>
<path d="M87.7762 95.9279C87.7762 96.9119 88.7362 97.3199 90.0082 97.3199C91.4722 97.3199 91.9762 96.5519 91.9762 95.1359C91.9762 95.0159 91.9762 94.8719 91.9762 94.7039C91.3522 94.5359 90.7043 94.4399 90.0563 94.4399C88.6883 94.4399 87.7762 95.0159 87.7762 95.9279ZM94.9043 80.2559C94.8323 80.7119 94.7843 81.2879 94.7603 81.8159C94.7363 82.3439 94.7122 83.2319 94.6882 84.2879C96.0082 84.1679 97.2562 83.9759 98.4082 83.7359V86.7359C97.2562 86.9039 96.0082 87.0479 94.6882 87.1439C94.7362 89.4719 94.8562 91.3919 94.9522 93.0239C96.9442 93.8399 98.4563 95.0639 99.6083 96.1199L97.9522 98.6399C96.9442 97.7039 95.9842 96.8639 95.0242 96.2159C94.8802 98.5199 93.5843 100.152 90.3443 100.152C87.0323 100.152 84.9683 98.7599 84.9683 96.2399C84.9683 93.8159 87.0322 92.1359 90.2962 92.1359C90.8482 92.1359 91.3762 92.1599 91.8562 92.2319C91.8082 90.7439 91.7122 88.9919 91.6882 87.2879C91.1122 87.3119 90.5363 87.3119 89.9843 87.3119C88.5683 87.3119 87.2002 87.2639 85.7842 87.1679V84.3119C87.1522 84.4559 88.5443 84.5279 89.9843 84.5279C90.5363 84.5279 91.1123 84.5279 91.6643 84.5039C91.6643 83.3279 91.6403 82.3439 91.6403 81.8399C91.6403 81.4799 91.5683 80.7359 91.4723 80.2559H94.9043ZM83.1922 80.5199C83.0002 80.9999 82.7123 82.2239 82.6403 82.6559C82.2803 84.2639 81.4883 89.5439 81.4883 91.9439C81.4883 92.4239 81.5123 93.0239 81.5843 93.5039C81.8963 92.6639 82.3042 91.8479 82.6642 91.0319L84.1283 92.2319C83.4562 94.1999 82.6883 96.6479 82.4002 97.9439C82.3282 98.2799 82.2803 98.8079 82.2803 99.0719C82.2803 99.3119 82.3043 99.7199 82.3283 100.056L79.6162 100.272C79.1122 98.5919 78.6562 95.8559 78.6562 92.5919C78.6562 88.9679 79.3763 84.4319 79.6403 82.5839C79.7363 81.9119 79.8562 80.9999 79.8802 80.2319L83.1922 80.5199Z" fill="#E5005A"/>
<path d="M63.1283 92.3761H65.4803C65.5043 92.1601 65.5043 91.9441 65.5043 91.7281V90.2161H63.1283V92.3761ZM70.5923 90.2161H68.0723V91.8001C68.0723 91.9921 68.0723 92.1841 68.0723 92.3761H70.5923V90.2161ZM63.9443 84.2401H69.7523C68.5763 83.2801 67.4963 82.2001 66.7523 81.1681C66.0803 82.1761 65.0963 83.2561 63.9443 84.2401ZM73.1603 94.5601H68.8643C70.2803 97.2001 72.0803 98.1121 74.4563 98.8561C73.8083 99.4561 73.1363 100.392 72.8243 101.232C70.4243 100.32 68.5283 99.0961 67.0643 96.4801C66.0323 98.4001 64.0883 100.128 60.4883 101.256C60.2243 100.68 59.4323 99.6001 58.9763 99.1441C62.8403 97.9681 64.4483 96.3361 65.0963 94.5601H60.6563V88.0561H65.5043V86.5921H62.4563V85.3681C61.7603 85.8481 61.0403 86.2801 60.3203 86.6401C60.0563 86.0161 59.5763 85.1521 59.1443 84.5281C58.8083 85.5121 58.4723 86.4961 58.1603 87.3121C59.6963 89.1361 60.0083 90.7201 60.0083 92.1121C60.0083 93.6241 59.6963 94.6321 58.9043 95.1841C58.5203 95.4481 58.0403 95.5921 57.5123 95.6641C57.0563 95.7361 56.4803 95.7601 55.8803 95.7361C55.8803 95.0401 55.6643 93.9361 55.2563 93.2401C55.7123 93.2881 56.0723 93.2881 56.3603 93.2641C56.6243 93.2641 56.8883 93.2161 57.0563 93.0961C57.3443 92.8801 57.4643 92.4241 57.4643 91.7281C57.4643 90.6481 57.1043 89.2081 55.7123 87.6241C56.2163 86.0881 56.7443 83.9521 57.1523 82.2961H55.2083V101.136H52.7363V79.7521H58.0403L58.4483 79.6321L60.3443 80.7361C60.0323 81.7921 59.6483 82.9921 59.2643 84.1681C61.8083 82.9921 64.2083 80.7121 65.3843 78.7441H67.9763C69.6323 81.0241 72.1283 83.0161 74.6243 83.9281C74.0963 84.6001 73.5443 85.6561 73.1603 86.4241C72.5603 86.1361 71.9123 85.7521 71.2883 85.3441V86.5921H68.0723V88.0561H73.1603V94.5601Z" fill="#E5005A"/>
<path d="M31.664 78.7681L34.304 79.6321C33.68 81.1921 32.936 82.8241 32.072 84.3601V101.088H29.36V88.5361C28.76 89.3041 28.16 90.0241 27.536 90.6721C27.272 89.9761 26.48 88.4401 26 87.7441C28.232 85.5841 30.416 82.1761 31.664 78.7681ZM37.496 82.2721V85.4881H44.528V82.2721H37.496ZM48.56 92.7601H43.76C45.176 94.8481 47.24 96.8161 49.256 97.9921C48.608 98.5441 47.696 99.5521 47.24 100.272C45.488 99.0241 43.736 97.0801 42.368 94.9441V101.136H39.488V95.0641C38.024 97.1761 36.2 99.0001 34.304 100.224C33.872 99.5281 32.984 98.4961 32.336 97.9441C34.496 96.8161 36.632 94.8721 38.12 92.7601H33.2V90.1681H39.488V88.0081H34.784V79.7521H47.384V88.0081H42.368V90.1681H48.56V92.7601Z" fill="#E5005A"/>
</svg>
