<svg width="196" height="120" viewBox="0 0 196 120" fill="none" xmlns="http://www.w3.org/2000/svg">
<path d="M0 0H196V120H0V0Z" fill="white"/>
<mask id="mask0_1827_25466" style="mask-type:alpha" maskUnits="userSpaceOnUse" x="0" y="0" width="196" height="120">
<path d="M0 0H196V120H0V0Z" fill="white"/>
</mask>
<g mask="url(#mask0_1827_25466)">
<path fill-rule="evenodd" clip-rule="evenodd" d="M165.634 15.6622C165.634 27.6259 156.166 51.6369 144.487 51.6369C132.808 51.6369 123.34 27.6259 123.34 15.6622C123.34 3.6985 132.808 -6 144.487 -6C156.166 -6 165.634 3.6985 165.634 15.6622ZM188.187 91.8413C181.51 82.0258 160.341 67.8713 150.759 74.7113C141.177 81.5514 146.81 106.796 153.488 116.611C160.165 126.427 173.346 128.839 182.928 121.999C192.51 115.159 194.865 101.657 188.187 91.8413ZM154.869 60.737C157.819 72.3126 182.891 75.6304 194.191 72.6079C205.491 69.5855 212.26 57.7514 209.309 46.1757C206.359 34.6001 194.806 27.6664 183.506 30.6889C172.206 33.7114 151.918 49.1614 154.869 60.737ZM92.7229 69.5766C103.849 73.2142 129.058 71.2754 132.609 59.8781C136.16 48.4808 116.709 31.9409 105.582 28.3033C94.4561 24.6658 82.5579 30.9563 79.0069 42.3536C75.4558 53.7509 81.5967 65.9391 92.7229 69.5766ZM133.379 73.2237C143.479 79.2312 139.897 104.866 134.032 115.212C128.168 125.558 115.226 129.075 105.126 123.067C95.0261 117.06 91.5926 103.803 97.4572 93.4567C103.322 83.1107 123.279 67.2163 133.379 73.2237Z" fill="#FAF1F5"/>
</g>
<path d="M173.875 61.8877L173.443 56.4157L173.363 54.0317H176.019L175.939 56.4157L175.507 61.8877H173.875ZM174.691 66.1437C173.875 66.1437 173.283 65.5677 173.283 64.7357C173.283 63.8877 173.891 63.3117 174.691 63.3117C175.491 63.3117 176.099 63.8877 176.099 64.7357C176.099 65.5677 175.491 66.1437 174.691 66.1437Z" fill="#E5005A"/>
<path d="M165.472 53.104C165.44 53.36 165.376 54.224 165.36 54.48C165.36 54.608 165.36 54.784 165.344 54.976C166.96 54.976 169.152 54.944 169.984 54.96L169.968 56.848C169.008 56.8 167.52 56.768 165.344 56.768C165.344 57.584 165.36 58.464 165.36 59.168C165.744 59.776 165.936 60.528 165.936 61.36C165.936 63.44 164.72 66.096 160.816 67.184L159.104 65.488C160.72 65.152 162.128 64.624 163.008 63.664C162.784 63.712 162.544 63.744 162.288 63.744C161.056 63.744 159.536 62.752 159.536 60.8C159.536 58.992 160.992 57.808 162.736 57.808C162.96 57.808 163.168 57.824 163.376 57.856C163.376 57.504 163.376 57.136 163.36 56.784C160.944 56.816 158.448 56.912 156.48 57.024L156.432 55.088C158.256 55.088 161.168 55.024 163.344 54.992C163.328 54.784 163.328 54.624 163.312 54.496C163.264 53.84 163.2 53.296 163.152 53.104H165.472ZM161.456 60.768C161.456 61.504 162.048 61.968 162.688 61.968C163.36 61.968 163.952 61.456 163.728 60.048C163.504 59.68 163.12 59.488 162.688 59.488C162.064 59.488 161.456 59.92 161.456 60.768Z" fill="#E5005A"/>
<path d="M144.712 64.1917C144.712 64.7997 145.288 65.1677 146.392 65.1677C147.24 65.1677 147.8 64.9277 147.8 63.9997C147.8 63.8237 147.8 63.5997 147.784 63.3117C147.352 63.2477 146.92 63.1997 146.472 63.1997C145.336 63.1997 144.712 63.6477 144.712 64.1917ZM149.72 53.0557C149.672 53.3757 149.64 53.7757 149.624 54.1917C149.608 54.3517 149.608 54.5917 149.608 54.8477C150.92 54.7837 152.248 54.6557 153.656 54.4157L153.64 56.2557C152.584 56.3837 151.128 56.5277 149.576 56.6077C149.576 57.1677 149.576 57.7597 149.576 58.2557C151.192 58.1757 152.552 58.0477 153.848 57.8717L153.832 59.7597C152.392 59.9197 151.144 60.0317 149.608 60.0797C149.64 60.6877 149.672 61.3437 149.72 61.9837C151.736 62.5597 153.272 63.6317 154.2 64.3997L153.048 66.1917C152.184 65.3917 151.096 64.5437 149.816 63.9677C149.832 64.1917 149.832 64.3837 149.832 64.5597C149.832 65.9197 148.792 66.9757 146.68 66.9757C144.12 66.9757 142.776 65.9997 142.776 64.3037C142.776 62.6877 144.264 61.5517 146.728 61.5517C147.064 61.5517 147.4 61.5677 147.72 61.5997C147.688 61.1037 147.672 60.5917 147.656 60.1117C147.384 60.1117 147.112 60.1117 146.824 60.1117C145.896 60.1117 144.072 60.0317 143.016 59.9037L143 58.0157C144.04 58.2077 146.008 58.3197 146.856 58.3197C147.112 58.3197 147.368 58.3197 147.624 58.3197C147.624 57.7917 147.624 57.2157 147.64 56.6717C147.432 56.6717 147.24 56.6717 147.048 56.6717C146.04 56.6717 144.184 56.5277 143.128 56.3837L143.08 54.5597C144.232 54.7517 146.056 54.9117 147.032 54.9117C147.24 54.9117 147.448 54.9117 147.656 54.9117C147.656 54.6077 147.656 54.3517 147.656 54.1597C147.656 53.8557 147.624 53.3597 147.56 53.0557H149.72Z" fill="#E5005A"/>
<path d="M128.755 54.5598C128.643 55.1358 128.563 56.0638 128.563 56.5118C128.547 57.5518 128.563 58.7518 128.659 59.9038C128.883 62.2078 129.363 63.7918 130.371 63.7918C131.123 63.7918 131.763 61.9198 132.067 60.6398L133.667 62.5918C132.611 65.3758 131.603 66.3518 130.323 66.3518C128.563 66.3518 127.043 64.7678 126.595 60.4798C126.435 59.0078 126.419 57.1358 126.419 56.1598C126.419 55.7118 126.387 55.0238 126.291 54.5278L128.755 54.5598ZM136.755 54.9278C138.275 56.7678 139.491 60.7678 139.667 63.2158L137.571 64.0318C137.315 61.4558 136.467 57.5678 134.723 55.5838L136.755 54.9278Z" fill="#E5005A"/>
<path d="M110.642 54.9917C111.282 54.9757 111.906 54.9437 112.226 54.9117C113.554 54.7997 116.194 54.5597 119.122 54.3037C120.77 54.1757 122.53 54.0637 123.65 54.0317L123.666 56.0797C122.802 56.0957 121.426 56.0957 120.578 56.2877C118.642 56.7997 117.202 58.8797 117.202 60.7837C117.202 63.4077 119.666 64.3677 122.37 64.5117L121.618 66.7037C118.274 66.4797 115.106 64.6717 115.106 61.2157C115.106 58.9117 116.402 57.0877 117.474 56.2717C115.97 56.4317 112.706 56.7837 110.85 57.1837L110.642 54.9917Z" fill="#E5005A"/>
<path d="M101.149 53.3118C101.053 53.9838 100.973 54.7998 100.941 55.4398C100.877 57.1678 100.749 60.7518 100.749 62.7358C100.749 64.3518 101.709 64.8798 102.957 64.8798C105.597 64.8798 107.277 63.3598 108.429 61.6158L109.885 63.3758C108.861 64.9118 106.589 67.0558 102.941 67.0558C100.317 67.0558 98.6212 65.9038 98.6212 63.1678C98.6212 61.0238 98.7812 56.8158 98.7812 55.4398C98.7812 54.6878 98.7172 53.9198 98.5732 53.2798L101.149 53.3118Z" fill="#E5005A"/>
<path d="M84.2616 52.6558L86.1496 53.2798C85.6856 54.3678 85.1255 55.4558 84.4855 56.5118V67.3598H82.5816V59.1998C82.0696 59.8238 81.5256 60.3998 80.9976 60.8958C80.7896 60.4158 80.2456 59.3598 79.8936 58.8798C81.6216 57.4238 83.3016 55.0718 84.2616 52.6558ZM90.1496 65.4238H92.5016C93.2696 65.4238 93.3976 64.8798 93.5256 62.6238C93.9736 62.9598 94.7736 63.3278 95.2856 63.4398C95.0616 66.1918 94.5656 67.1998 92.6776 67.1998H89.9416C87.9256 67.1998 87.3496 66.5598 87.3496 64.3038V52.8638H89.2696V58.3358C90.7736 57.4718 92.2456 56.4478 93.3016 55.5358L94.7096 57.1998C93.1256 58.3198 91.1416 59.3918 89.2696 60.2878V64.3198C89.2696 65.2638 89.3816 65.4238 90.1496 65.4238Z" fill="#E5005A"/>
<path d="M73.0775 57.3441V56.3361H70.9975V57.3441H73.0775ZM73.0775 59.9361V58.8801H70.9975V59.9361H73.0775ZM73.0775 62.5601V61.4721H70.9975V62.5601H73.0775ZM69.1575 64.1601V58.0321C68.8695 58.3361 68.5815 58.6081 68.2935 58.8641C68.0055 58.4801 67.3015 57.7121 66.9015 57.3601C68.3735 56.2401 69.7015 54.4001 70.4375 52.4961L72.3255 53.0401C72.0855 53.6161 71.8135 54.1761 71.5095 54.7361H73.3335C73.6055 54.0321 73.8455 53.2481 74.0055 52.6241L76.1015 53.0241C75.8135 53.6001 75.5255 54.1921 75.2375 54.7361H78.0695V56.3361H74.8855V57.3441H77.6375V58.8801H74.8855V59.9361H77.5735V61.4721H74.8855V62.5601H78.3415V64.1601H69.1575ZM67.9095 55.3921L66.3415 56.5921C65.8935 55.8081 64.8375 54.7041 63.9415 53.9361L65.3975 52.8481C66.2935 53.5681 67.3975 54.6241 67.9095 55.3921ZM67.4775 58.6561V63.7601C68.1015 64.8321 69.2215 65.2801 70.8535 65.3441C72.7735 65.4241 76.5495 65.3761 78.7575 65.2001C78.5335 65.6481 78.2616 66.5281 78.1656 67.0561C76.1816 67.1521 72.7895 67.1841 70.8375 67.1041C68.9335 67.0241 67.6535 66.5601 66.6935 65.3281C66.0535 65.9521 65.3975 66.5601 64.5815 67.2481L63.6855 65.3601C64.3095 64.9601 65.0295 64.4321 65.6695 63.8881V60.4001H63.8775V58.6561H67.4775Z" fill="#E5005A"/>
<path d="M54.5439 63.9201C54.5439 64.5761 55.1839 64.8481 56.0319 64.8481C57.0079 64.8481 57.3439 64.3361 57.3439 63.3921C57.3439 63.3121 57.3439 63.2161 57.3439 63.1041C56.9279 62.9921 56.4959 62.9281 56.0639 62.9281C55.1519 62.9281 54.5439 63.3121 54.5439 63.9201ZM59.2959 53.4721C59.2479 53.7761 59.2159 54.1601 59.1999 54.5121C59.1839 54.8641 59.1679 55.4561 59.1519 56.1601C60.0319 56.0801 60.8639 55.9521 61.6319 55.7921V57.7921C60.8639 57.9041 60.0319 58.0001 59.1519 58.0641C59.1839 59.6161 59.2639 60.8961 59.3279 61.9841C60.6559 62.5281 61.6639 63.3441 62.4319 64.0481L61.3279 65.7281C60.6559 65.1041 60.0159 64.5441 59.3759 64.1121C59.2799 65.6481 58.4159 66.7361 56.2559 66.7361C54.0479 66.7361 52.6719 65.8081 52.6719 64.1281C52.6719 62.5121 54.0479 61.3921 56.2239 61.3921C56.5919 61.3921 56.9439 61.4081 57.2639 61.4561C57.2319 60.4641 57.1679 59.2961 57.1519 58.1601C56.7679 58.1761 56.3839 58.1761 56.0159 58.1761C55.0719 58.1761 54.1599 58.1441 53.2159 58.0801V56.1761C54.1279 56.2721 55.0559 56.3201 56.0159 56.3201C56.3839 56.3201 56.7679 56.3201 57.1359 56.3041C57.1359 55.5201 57.1199 54.8641 57.1199 54.5281C57.1199 54.2881 57.0719 53.7921 57.0079 53.4721H59.2959ZM51.4879 53.6481C51.3599 53.9681 51.1679 54.7841 51.1199 55.0721C50.8799 56.1441 50.3519 59.6641 50.3519 61.2641C50.3519 61.5841 50.3679 61.9841 50.4159 62.3041C50.6239 61.7441 50.8959 61.2001 51.1359 60.6561L52.1119 61.4561C51.6639 62.7681 51.1519 64.4001 50.9599 65.2641C50.9119 65.4881 50.8799 65.8401 50.8799 66.0161C50.8799 66.1761 50.8959 66.4481 50.9119 66.6721L49.1039 66.8161C48.7679 65.6961 48.4639 63.8721 48.4639 61.6961C48.4639 59.2801 48.9439 56.2561 49.1199 55.0241C49.1839 54.5761 49.2639 53.9681 49.2799 53.4561L51.4879 53.6481Z" fill="#E5005A"/>
<path d="M38.5921 61.5519H40.1601C40.1761 61.4079 40.1761 61.2639 40.1761 61.1199V60.1119H38.5921V61.5519ZM43.5681 60.1119H41.8881V61.1679C41.8881 61.2959 41.8881 61.4239 41.8881 61.5519H43.5681V60.1119ZM39.1361 56.1279H43.0081C42.2241 55.4879 41.5041 54.7679 41.0081 54.0799C40.5601 54.7519 39.9041 55.4719 39.1361 56.1279ZM45.2801 63.0079H42.4161C43.3601 64.7679 44.5601 65.3759 46.1441 65.8719C45.7121 66.2719 45.2641 66.8959 45.0561 67.4559C43.4561 66.8479 42.1921 66.0319 41.2161 64.2879C40.5281 65.5679 39.2321 66.7199 36.8321 67.4719C36.6561 67.0879 36.1281 66.3679 35.8241 66.0639C38.4001 65.2799 39.4721 64.1919 39.9041 63.0079H36.9441V58.6719H40.1761V57.6959H38.1441V56.8799C37.6801 57.1999 37.2001 57.4879 36.7201 57.7279C36.5441 57.3119 36.2241 56.7359 35.9361 56.3199C35.7121 56.9759 35.4881 57.6319 35.2801 58.1759C36.3041 59.3919 36.5121 60.4479 36.5121 61.3759C36.5121 62.3839 36.3041 63.0559 35.7761 63.4239C35.5201 63.5999 35.2001 63.6959 34.8481 63.7439C34.5441 63.7919 34.1601 63.8079 33.7601 63.7919C33.7601 63.3279 33.6161 62.5919 33.3441 62.1279C33.6481 62.1599 33.8881 62.1599 34.0801 62.1439C34.2561 62.1439 34.4321 62.1119 34.5441 62.0319C34.7361 61.8879 34.8161 61.5839 34.8161 61.1199C34.8161 60.3999 34.5761 59.4399 33.6481 58.3839C33.9841 57.3599 34.3361 55.9359 34.6081 54.8319H33.3121V67.3919H31.6641V53.1359H35.2001L35.4721 53.0559L36.7361 53.7919C36.5281 54.4959 36.2721 55.2959 36.0161 56.0799C37.7121 55.2959 39.3121 53.7759 40.0961 52.4639H41.8241C42.9281 53.9839 44.5921 55.3119 46.2561 55.9199C45.9041 56.3679 45.5361 57.0719 45.2801 57.5839C44.8801 57.3919 44.4481 57.1359 44.0321 56.8639V57.6959H41.8881V58.6719H45.2801V63.0079Z" fill="#E5005A"/>
<path d="M18.0963 52.48L19.8563 53.056C19.4403 54.096 18.9443 55.184 18.3683 56.208V67.36H16.5603V58.992C16.1603 59.504 15.7603 59.984 15.3443 60.416C15.1683 59.952 14.6403 58.928 14.3203 58.464C15.8083 57.024 17.2643 54.752 18.0963 52.48ZM21.9843 54.816V56.96H26.6723V54.816H21.9843ZM29.3603 61.808H26.1603C27.1043 63.2 28.4803 64.512 29.8243 65.296C29.3923 65.664 28.7843 66.336 28.4803 66.816C27.3123 65.984 26.1443 64.688 25.2323 63.264V67.392H23.3123V63.344C22.3363 64.752 21.1203 65.968 19.8563 66.784C19.5683 66.32 18.9763 65.632 18.5443 65.264C19.9843 64.512 21.4083 63.216 22.4003 61.808H19.1203V60.08H23.3123V58.64H20.1763V53.136H28.5763V58.64H25.2323V60.08H29.3603V61.808Z" fill="#E5005A"/>
</svg>
