<svg width="370" height="180" viewBox="0 0 370 180" fill="none" xmlns="http://www.w3.org/2000/svg">
<rect width="370" height="180" fill="white"/>
<mask id="mask0_1523_25676" style="mask-type:alpha" maskUnits="userSpaceOnUse" x="0" y="0" width="370" height="180">
<rect x="2" y="2" width="366" height="176" rx="8" fill="white" stroke="#FAF1F5" stroke-width="4"/>
</mask>
<g mask="url(#mask0_1523_25676)">
<path fill-rule="evenodd" clip-rule="evenodd" d="M332.443 -5.01438C332.443 13.2031 318.026 49.7653 300.242 49.7653C282.458 49.7653 268.041 13.2031 268.041 -5.01438C268.041 -23.2318 282.458 -38 300.242 -38C318.026 -38 332.443 -23.2318 332.443 -5.01438ZM366.785 110.986C356.618 96.0394 324.383 74.4858 309.792 84.9014C295.201 95.3169 303.78 133.758 313.947 148.704C324.115 163.65 344.186 167.323 358.777 156.907C373.368 146.492 376.953 125.932 366.785 110.986ZM316.05 63.6223C320.543 81.2488 358.72 86.3009 375.927 81.6985C393.134 77.096 403.441 59.0759 398.948 41.4494C394.456 23.8229 376.864 13.2648 359.657 17.8672C342.45 22.4697 311.557 45.9958 316.05 63.6223ZM221.419 77.0826C238.361 82.6216 276.747 79.6693 282.155 62.3144C287.562 44.9594 257.943 19.7736 241 14.2346C224.058 8.69563 205.94 18.2744 200.533 35.6293C195.126 52.9843 204.477 71.5436 221.419 77.0826ZM283.328 82.6362C298.707 91.7839 293.252 130.818 284.322 146.572C275.392 162.327 255.685 167.682 240.306 158.534C224.926 149.387 219.698 129.2 228.628 113.445C237.558 97.6913 267.948 73.4884 283.328 82.6362Z" fill="#FAF1F5"/>
</g>
<path d="M32.144 79.72L34.784 80.584C34.16 82.144 33.416 83.776 32.552 85.312V102.04H29.84V89.488C29.24 90.256 28.64 90.976 28.016 91.624C27.752 90.928 26.96 89.392 26.48 88.696C28.712 86.536 30.896 83.128 32.144 79.72ZM37.976 83.224V86.44H45.008V83.224H37.976ZM49.04 93.712H44.24C45.656 95.8 47.72 97.768 49.736 98.944C49.088 99.496 48.176 100.504 47.72 101.224C45.968 99.976 44.216 98.032 42.848 95.896V102.088H39.968V96.016C38.504 98.128 36.68 99.952 34.784 101.176C34.352 100.48 33.464 99.448 32.816 98.896C34.976 97.768 37.112 95.824 38.6 93.712H33.68V91.12H39.968V88.96H35.264V80.704H47.864V88.96H42.848V91.12H49.04V93.712ZM63.608 93.328H65.96C65.984 93.112 65.984 92.896 65.984 92.68V91.168H63.608V93.328ZM71.072 91.168H68.552V92.752C68.552 92.944 68.552 93.136 68.552 93.328H71.072V91.168ZM64.424 85.192H70.232C69.056 84.232 67.976 83.152 67.232 82.12C66.56 83.128 65.576 84.208 64.424 85.192ZM73.64 95.512H69.344C70.76 98.152 72.56 99.064 74.936 99.808C74.288 100.408 73.616 101.344 73.304 102.184C70.904 101.272 69.008 100.048 67.544 97.432C66.512 99.352 64.568 101.08 60.968 102.208C60.704 101.632 59.912 100.552 59.456 100.096C63.32 98.92 64.928 97.288 65.576 95.512H61.136V89.008H65.984V87.544H62.936V86.32C62.24 86.8 61.52 87.232 60.8 87.592C60.536 86.968 60.056 86.104 59.624 85.48C59.288 86.464 58.952 87.448 58.64 88.264C60.176 90.088 60.488 91.672 60.488 93.064C60.488 94.576 60.176 95.584 59.384 96.136C59 96.4 58.52 96.544 57.992 96.616C57.536 96.688 56.96 96.712 56.36 96.688C56.36 95.992 56.144 94.888 55.736 94.192C56.192 94.24 56.552 94.24 56.84 94.216C57.104 94.216 57.368 94.168 57.536 94.048C57.824 93.832 57.944 93.376 57.944 92.68C57.944 91.6 57.584 90.16 56.192 88.576C56.696 87.04 57.224 84.904 57.632 83.248H55.688V102.088H53.216V80.704H58.52L58.928 80.584L60.824 81.688C60.512 82.744 60.128 83.944 59.744 85.12C62.288 83.944 64.688 81.664 65.864 79.696H68.456C70.112 81.976 72.608 83.968 75.104 84.88C74.576 85.552 74.024 86.608 73.64 87.376C73.04 87.088 72.392 86.704 71.768 86.296V87.544H68.552V89.008H73.64V95.512ZM88.256 96.88C88.256 97.864 89.216 98.272 90.488 98.272C91.952 98.272 92.456 97.504 92.456 96.088C92.456 95.968 92.456 95.824 92.456 95.656C91.832 95.488 91.184 95.392 90.536 95.392C89.168 95.392 88.256 95.968 88.256 96.88ZM95.384 81.208C95.312 81.664 95.264 82.24 95.24 82.768C95.216 83.296 95.192 84.184 95.168 85.24C96.488 85.12 97.736 84.928 98.888 84.688V87.688C97.736 87.856 96.488 88 95.168 88.096C95.216 90.424 95.336 92.344 95.432 93.976C97.424 94.792 98.936 96.016 100.088 97.072L98.432 99.592C97.424 98.656 96.464 97.816 95.504 97.168C95.36 99.472 94.064 101.104 90.824 101.104C87.512 101.104 85.448 99.712 85.448 97.192C85.448 94.768 87.512 93.088 90.776 93.088C91.328 93.088 91.856 93.112 92.336 93.184C92.288 91.696 92.192 89.944 92.168 88.24C91.592 88.264 91.016 88.264 90.464 88.264C89.048 88.264 87.68 88.216 86.264 88.12V85.264C87.632 85.408 89.024 85.48 90.464 85.48C91.016 85.48 91.592 85.48 92.144 85.456C92.144 84.28 92.12 83.296 92.12 82.792C92.12 82.432 92.048 81.688 91.952 81.208H95.384ZM83.672 81.472C83.48 81.952 83.192 83.176 83.12 83.608C82.76 85.216 81.968 90.496 81.968 92.896C81.968 93.376 81.992 93.976 82.064 94.456C82.376 93.616 82.784 92.8 83.144 91.984L84.608 93.184C83.936 95.152 83.168 97.6 82.88 98.896C82.808 99.232 82.76 99.76 82.76 100.024C82.76 100.264 82.784 100.672 82.808 101.008L80.096 101.224C79.592 99.544 79.136 96.808 79.136 93.544C79.136 89.92 79.856 85.384 80.12 83.536C80.216 82.864 80.336 81.952 80.36 81.184L83.672 81.472ZM116.776 87.016V85.504H113.656V87.016H116.776ZM116.776 90.904V89.32H113.656V90.904H116.776ZM116.776 94.84V93.208H113.656V94.84H116.776ZM110.896 97.24V88.048C110.464 88.504 110.032 88.912 109.6 89.296C109.168 88.72 108.112 87.568 107.512 87.04C109.72 85.36 111.712 82.6 112.816 79.744L115.648 80.56C115.288 81.424 114.88 82.264 114.424 83.104H117.16C117.568 82.048 117.928 80.872 118.168 79.936L121.312 80.536C120.88 81.4 120.448 82.288 120.016 83.104H124.264V85.504H119.488V87.016H123.616V89.32H119.488V90.904H123.52V93.208H119.488V94.84H124.672V97.24H110.896ZM109.024 84.088L106.672 85.888C106 84.712 104.416 83.056 103.072 81.904L105.256 80.272C106.6 81.352 108.256 82.936 109.024 84.088ZM108.376 88.984V96.64C109.312 98.248 110.992 98.92 113.44 99.016C116.32 99.136 121.984 99.064 125.296 98.8C124.96 99.472 124.552 100.792 124.408 101.584C121.432 101.728 116.344 101.776 113.416 101.656C110.56 101.536 108.64 100.84 107.2 98.992C106.24 99.928 105.256 100.84 104.032 101.872L102.688 99.04C103.624 98.44 104.704 97.648 105.664 96.832V91.6H102.976V88.984H108.376ZM134.272 79.984L137.104 80.92C136.408 82.552 135.568 84.184 134.608 85.768V102.04H131.752V89.8C130.984 90.736 130.168 91.6 129.376 92.344C129.064 91.624 128.248 90.04 127.72 89.32C130.312 87.136 132.832 83.608 134.272 79.984ZM143.104 99.136H146.632C147.784 99.136 147.976 98.32 148.168 94.936C148.84 95.44 150.04 95.992 150.808 96.16C150.472 100.288 149.728 101.8 146.896 101.8H142.792C139.768 101.8 138.904 100.84 138.904 97.456V80.296H141.784V88.504C144.04 87.208 146.248 85.672 147.832 84.304L149.944 86.8C147.568 88.48 144.592 90.088 141.784 91.432V97.48C141.784 98.896 141.952 99.136 143.104 99.136ZM160.323 80.968C160.179 81.976 160.059 83.2 160.011 84.16C159.915 86.752 159.723 92.128 159.723 95.104C159.723 97.528 161.163 98.32 163.035 98.32C166.995 98.32 169.515 96.04 171.243 93.424L173.427 96.064C171.891 98.368 168.483 101.584 163.011 101.584C159.075 101.584 156.531 99.856 156.531 95.752C156.531 92.536 156.771 86.224 156.771 84.16C156.771 83.032 156.675 81.88 156.459 80.92L160.323 80.968ZM175.281 83.488C176.241 83.464 177.177 83.416 177.657 83.368C179.649 83.2 183.609 82.84 188.001 82.456C190.474 82.264 193.113 82.096 194.794 82.048L194.818 85.12C193.522 85.144 191.458 85.144 190.186 85.432C187.282 86.2 185.122 89.32 185.122 92.176C185.122 96.112 188.818 97.552 192.873 97.768L191.746 101.056C186.73 100.72 181.977 98.008 181.977 92.824C181.977 89.368 183.921 86.632 185.53 85.408C183.273 85.648 178.377 86.176 175.593 86.776L175.281 83.488ZM203.172 82.84C203.004 83.704 202.884 85.096 202.884 85.768C202.86 87.328 202.884 89.128 203.028 90.856C203.364 94.312 204.084 96.688 205.596 96.688C206.724 96.688 207.684 93.88 208.14 91.96L210.54 94.888C208.956 99.064 207.444 100.528 205.524 100.528C202.884 100.528 200.604 98.152 199.932 91.72C199.692 89.512 199.668 86.704 199.668 85.24C199.668 84.568 199.62 83.536 199.476 82.792L203.172 82.84ZM215.172 83.392C217.452 86.152 219.276 92.152 219.54 95.824L216.396 97.048C216.012 93.184 214.74 87.352 212.124 84.376L215.172 83.392ZM227.828 97.288C227.828 98.2 228.692 98.752 230.348 98.752C231.62 98.752 232.46 98.392 232.46 97C232.46 96.736 232.46 96.4 232.436 95.968C231.788 95.872 231.14 95.8 230.468 95.8C228.764 95.8 227.828 96.472 227.828 97.288ZM235.34 80.584C235.268 81.064 235.22 81.664 235.196 82.288C235.172 82.528 235.172 82.888 235.172 83.272C237.14 83.176 239.132 82.984 241.244 82.624L241.22 85.384C239.636 85.576 237.452 85.792 235.124 85.912C235.124 86.752 235.124 87.64 235.124 88.384C237.548 88.264 239.588 88.072 241.532 87.808L241.508 90.64C239.348 90.88 237.476 91.048 235.172 91.12C235.22 92.032 235.268 93.016 235.34 93.976C238.364 94.84 240.668 96.448 242.06 97.6L240.332 100.288C239.036 99.088 237.404 97.816 235.484 96.952C235.508 97.288 235.508 97.576 235.508 97.84C235.508 99.88 233.948 101.464 230.78 101.464C226.94 101.464 224.924 100 224.924 97.456C224.924 95.032 227.156 93.328 230.852 93.328C231.356 93.328 231.86 93.352 232.34 93.4C232.292 92.656 232.268 91.888 232.244 91.168C231.836 91.168 231.428 91.168 230.996 91.168C229.604 91.168 226.868 91.048 225.284 90.856L225.26 88.024C226.82 88.312 229.772 88.48 231.044 88.48C231.428 88.48 231.812 88.48 232.196 88.48C232.196 87.688 232.196 86.824 232.22 86.008C231.908 86.008 231.62 86.008 231.332 86.008C229.82 86.008 227.036 85.792 225.452 85.576L225.38 82.84C227.108 83.128 229.844 83.368 231.308 83.368C231.62 83.368 231.932 83.368 232.244 83.368C232.244 82.912 232.244 82.528 232.244 82.24C232.244 81.784 232.196 81.04 232.1 80.584H235.34ZM259.687 80.656C259.639 81.04 259.543 82.336 259.519 82.72C259.519 82.912 259.519 83.176 259.495 83.464C261.919 83.464 265.207 83.416 266.455 83.44L266.431 86.272C264.991 86.2 262.759 86.152 259.495 86.152C259.495 87.376 259.519 88.696 259.519 89.752C260.095 90.664 260.383 91.792 260.383 93.04C260.383 96.16 258.559 100.144 252.703 101.776L250.135 99.232C252.559 98.728 254.671 97.936 255.991 96.496C255.655 96.568 255.295 96.616 254.911 96.616C253.063 96.616 250.783 95.128 250.783 92.2C250.783 89.488 252.967 87.712 255.583 87.712C255.919 87.712 256.231 87.736 256.543 87.784C256.543 87.256 256.543 86.704 256.519 86.176C252.895 86.224 249.151 86.368 246.199 86.536L246.127 83.632C248.863 83.632 253.231 83.536 256.495 83.488C256.471 83.176 256.471 82.936 256.447 82.744C256.375 81.76 256.279 80.944 256.207 80.656H259.687ZM253.663 92.152C253.663 93.256 254.551 93.952 255.511 93.952C256.519 93.952 257.407 93.184 257.071 91.072C256.735 90.52 256.159 90.232 255.511 90.232C254.575 90.232 253.663 90.88 253.663 92.152ZM273.012 93.832L272.364 85.624L272.244 82.048H276.228L276.108 85.624L275.46 93.832H273.012ZM274.236 100.216C273.012 100.216 272.124 99.352 272.124 98.104C272.124 96.832 273.036 95.968 274.236 95.968C275.436 95.968 276.348 96.832 276.348 98.104C276.348 99.352 275.436 100.216 274.236 100.216Z" fill="#E5005A"/>
</svg>
