<svg width="370" height="180" viewBox="0 0 370 180" fill="none" xmlns="http://www.w3.org/2000/svg">
<path d="M0 0H370V180H0V0Z" fill="white"/>
<mask id="mask0_1827_25346" style="mask-type:alpha" maskUnits="userSpaceOnUse" x="0" y="0" width="370" height="180">
<path d="M0 0H370V180H0V0Z" fill="white"/>
</mask>
<g mask="url(#mask0_1827_25346)">
<path fill-rule="evenodd" clip-rule="evenodd" d="M332.443 -5.01438C332.443 13.2031 318.026 49.7653 300.242 49.7653C282.458 49.7653 268.041 13.2031 268.041 -5.01438C268.041 -23.2318 282.458 -38 300.242 -38C318.026 -38 332.443 -23.2318 332.443 -5.01438ZM366.785 110.986C356.618 96.0394 324.383 74.4858 309.792 84.9014C295.201 95.3169 303.78 133.758 313.947 148.704C324.115 163.65 344.186 167.323 358.777 156.907C373.368 146.492 376.953 125.932 366.785 110.986ZM316.05 63.6223C320.543 81.2488 358.72 86.3009 375.927 81.6985C393.134 77.096 403.441 59.0759 398.948 41.4494C394.456 23.8229 376.864 13.2648 359.657 17.8672C342.45 22.4697 311.557 45.9958 316.05 63.6223ZM221.419 77.0826C238.361 82.6216 276.747 79.6693 282.155 62.3144C287.562 44.9594 257.943 19.7736 241 14.2346C224.058 8.69563 205.94 18.2744 200.533 35.6293C195.126 52.9843 204.477 71.5436 221.419 77.0826ZM283.328 82.6362C298.707 91.7839 293.252 130.818 284.322 146.572C275.392 162.327 255.685 167.682 240.306 158.534C224.926 149.387 219.698 129.2 228.628 113.445C237.558 97.6913 267.948 73.4884 283.328 82.6362Z" fill="#FAF1F5"/>
</g>
<path d="M182.576 83.5081V87.6841C182.576 91.5721 182.216 97.4521 180.032 101.148C179.552 100.668 178.352 99.8761 177.704 99.5881C179.696 96.1801 179.84 91.1881 179.84 87.6841V80.9641H188.384V78.8281H191.36V80.9641H199.88V83.5081H182.576ZM193.472 87.7801H189.104V89.3641H193.472V87.7801ZM196.304 91.5241H186.416V87.7801H183.176V85.5241H186.416V83.9401H189.104V85.5241H193.472V83.9401H196.304V85.5241H199.76V87.7801H196.304V91.5241ZM194.36 94.7161H188.672C189.392 95.4841 190.352 96.1321 191.48 96.6841C192.584 96.1561 193.568 95.4841 194.36 94.7161ZM196.784 92.3641L198.56 93.2521C197.6 95.1721 196.184 96.6601 194.456 97.8121C196.208 98.3161 198.2 98.6521 200.36 98.8441C199.784 99.4441 199.04 100.548 198.68 101.292C195.92 100.956 193.472 100.332 191.384 99.3961C189.032 100.332 186.344 100.908 183.488 101.268C183.272 100.548 182.768 99.4681 182.336 98.8681C184.544 98.6761 186.656 98.3401 188.552 97.7881C187.496 97.0441 186.56 96.1561 185.792 95.1241L186.92 94.7161H183.344V92.4841H196.28L196.784 92.3641Z" fill="#E5005A"/>
<path d="M154.832 86.3642H158.072V84.5642H155.648C155.384 85.2362 155.096 85.8362 154.832 86.3642ZM160.784 84.5642V86.3642H166.04V88.9322H160.784V90.6842H165.464V96.8042C165.464 97.9082 165.296 98.5802 164.6 98.9882C163.928 99.3962 163.016 99.4442 161.816 99.4202C161.744 98.7002 161.432 97.6922 161.12 96.9962C161.792 97.0442 162.392 97.0442 162.608 97.0202C162.824 97.0202 162.896 96.9722 162.896 96.7322V93.2282H160.784V101.196H158.072V93.2282H156.104V99.3002H153.56V90.6842H158.072V88.9322H152.624V86.3642H154.424C153.8 86.0522 152.816 85.6442 152.264 85.4522C153.248 83.9402 154.04 81.5162 154.472 79.2362L157.088 79.7882C156.944 80.5322 156.752 81.2522 156.536 81.9722H158.072V78.9482H160.784V81.9722H165.08V84.5642H160.784ZM169.784 80.7722V94.2842H167.12V80.7722H169.784ZM171.416 79.2122H174.152V97.8362C174.152 99.3722 173.84 100.14 172.976 100.62C172.088 101.076 170.696 101.172 168.848 101.172C168.752 100.38 168.368 99.1322 168.008 98.2922C169.232 98.3402 170.48 98.3402 170.888 98.3402C171.272 98.3162 171.416 98.2202 171.416 97.8122V79.2122Z" fill="#E5005A"/>
<path d="M133.208 94.9561V95.9401H143.528V94.9561H133.208ZM139.544 86.7721H136.352C136.088 87.3481 135.704 87.8761 135.176 88.3561H139.544V86.7721ZM131.816 84.1561L131.504 85.0921H134.12C134.216 84.8041 134.264 84.4921 134.264 84.1561H131.816ZM136.88 81.5401V82.5001H139.544V81.5401H136.88ZM144.752 81.5401H142.256V82.5001H144.752V81.5401ZM139.544 85.0921V84.1561H136.88C136.856 84.4681 136.832 84.7801 136.808 85.0921H139.544ZM146.096 86.7721H142.256V88.3561H144.344C144.272 88.0681 144.152 87.7801 144.056 87.5641C144.608 87.6361 145.112 87.6601 145.376 87.6361C145.592 87.6361 145.736 87.6361 145.88 87.4681C145.976 87.3481 146.048 87.1321 146.096 86.7721ZM143.528 90.9241V89.9881H133.208V90.9241H143.528ZM143.528 93.4201V92.4601H133.208V93.4201H143.528ZM146.432 97.5721H142.808C145.112 98.3161 147.632 99.2281 149.144 99.8761L145.976 101.244C144.56 100.524 142.064 99.5161 139.568 98.7001L141.392 97.5721H134.984L136.88 98.4361C134.888 99.6121 131.84 100.692 129.392 101.292C128.936 100.74 127.928 99.7321 127.328 99.2521C129.56 98.8681 132.008 98.2681 133.688 97.5721H130.424V90.4441C129.872 90.5641 129.296 90.6601 128.648 90.7561C128.408 90.1561 127.736 89.0761 127.304 88.5481C130.28 88.1641 132.008 87.5641 132.992 86.7721H130.88L130.808 86.9881L128.216 86.8201C128.744 85.6441 129.32 83.9161 129.728 82.5001H134.288V81.5401H128.84V79.8601H134.288V78.8281H136.88V79.8601H139.544V78.8281H142.256V79.8601H147.344V84.1561H142.256V85.0921H148.904C148.904 85.0921 148.88 85.5721 148.856 85.8361C148.736 87.3961 148.592 88.2601 148.184 88.6921C147.824 89.0521 147.296 89.2441 146.792 89.2681C146.696 89.2681 146.576 89.2921 146.432 89.2921V97.5721Z" fill="#E5005A"/>
<path d="M119.072 96.66H114.8C115.496 97.164 116.36 97.548 117.32 97.86C117.92 97.5 118.52 97.068 119.072 96.66ZM109.112 98.292L113.072 98.004C112.592 97.596 112.184 97.164 111.8 96.66H109.112V98.292ZM116.456 92.676V91.86H109.112V92.676H116.456ZM109.112 94.932H116.456V94.116H109.112V94.932ZM115.688 88.74H110.048C109.712 89.244 109.304 89.7 108.872 90.156H111.392V89.172H114.104V90.156H116.864C116.432 89.7 116.048 89.244 115.688 88.74ZM123.416 88.74H118.856C120.248 89.94 122.12 90.924 124.112 91.428C123.512 91.98 122.72 92.988 122.312 93.684C121.28 93.324 120.272 92.82 119.336 92.196V96.468C119.696 96.18 120.032 95.916 120.296 95.676L122.384 96.852C121.592 97.428 120.704 97.98 119.864 98.46C121.016 98.652 122.288 98.772 123.632 98.844C123.104 99.42 122.432 100.5 122.072 101.244C118.856 100.932 116.264 100.212 114.272 98.916V100.164C110.648 100.5 106.856 100.836 104.048 101.052L103.76 98.604C104.504 98.58 105.344 98.532 106.28 98.46V92.316C105.344 92.964 104.336 93.492 103.328 93.948C102.92 93.396 101.984 92.364 101.408 91.884C103.424 91.14 105.32 90.06 106.688 88.74H102.152V86.628H111.296V85.812H104.504V83.82H111.296V82.98H103.304V80.892H107.384C107.12 80.412 106.808 79.908 106.496 79.5L108.992 78.708C109.568 79.284 110.144 80.172 110.408 80.796L110.144 80.892H115.352L115.256 80.868C115.664 80.244 116.144 79.356 116.384 78.78L119.552 79.38C119.12 79.956 118.688 80.46 118.28 80.892H122.192V82.98H114.224V83.82H121.088V85.812H114.224V86.628H123.416V88.74Z" fill="#E5005A"/>
<path d="M84.6561 95.9641L87.2241 96.6841C86.3601 98.2681 84.9201 99.9001 83.6001 100.908C83.1201 100.428 82.0881 99.6121 81.4641 99.2521C82.7601 98.4361 83.9601 97.2121 84.6561 95.9641ZM92.6961 97.1161L94.8561 96.0361C96.0321 97.1161 97.5441 98.6521 98.2401 99.7081L95.9361 100.908C95.3361 99.8761 93.8721 98.2441 92.6961 97.1161ZM93.3441 91.4761V90.6121H87.1761V91.4761H93.3441ZM93.3441 93.9961V93.0841H87.1761V93.9961H93.3441ZM82.1121 83.1241V88.4281C82.1121 89.0761 82.0881 89.7721 82.0641 90.4921C82.8321 90.1081 83.5281 89.7001 84.1521 89.2441C83.6721 88.8601 83.1681 88.4761 82.7121 88.1641L84.1521 86.8921C84.6081 87.1801 85.1601 87.5641 85.6641 87.9241C86.0241 87.5401 86.3601 87.1561 86.6481 86.7721H82.9521V84.6361H87.8961C88.1121 84.1321 88.3041 83.6281 88.4481 83.1241H82.1121ZM91.2081 86.7721H89.5761C89.1441 87.5161 88.6401 88.2361 88.0641 88.9081H92.6481C92.0961 88.2361 91.6161 87.5161 91.2081 86.7721ZM96.4641 86.7721H93.7761C94.1361 87.2521 94.5681 87.7081 95.0241 88.1401C95.5521 87.6841 96.1041 87.1561 96.4641 86.7721ZM96.5841 86.7721L98.1441 87.9241C97.6401 88.4281 97.0641 88.8841 96.5121 89.2921C97.2321 89.7721 98.0001 90.1561 98.7921 90.4441C98.2161 90.9001 97.4961 91.8361 97.1361 92.4361C96.7041 92.2441 96.2481 92.0041 95.8401 91.7401V95.6761H91.6401V98.7481C91.6401 99.9241 91.4241 100.5 90.5601 100.884C89.7201 101.244 88.6161 101.244 87.2001 101.244C87.0321 100.524 86.6241 99.5881 86.3121 98.9641C87.2001 98.9881 88.2081 98.9881 88.5201 98.9881C88.7841 98.9881 88.8801 98.8921 88.8801 98.6521V95.6761H84.8001V91.7401C84.3441 92.0281 83.8641 92.3161 83.3601 92.5801C83.0961 92.1001 82.5441 91.4281 82.0401 90.9961C81.8001 94.5001 80.9841 98.5321 78.5601 101.196C78.1761 100.668 77.0961 99.6601 76.5921 99.3241C78.1281 97.5721 78.8721 95.3401 79.2081 93.1081C78.3441 93.6121 77.5041 94.1161 76.6881 94.5961L75.8721 92.0281C76.8081 91.6201 78.1041 90.9721 79.4721 90.3001C79.4961 89.6521 79.4961 89.0281 79.4961 88.4281V87.6121L77.3841 88.5721C77.2641 87.3241 76.7121 85.3081 76.0881 83.7481L78.1281 82.9081C78.7521 84.2521 79.2801 85.9321 79.4961 87.1561V80.7241H87.0081V78.8281H90.0321V80.7241H98.4321V83.1241H89.4081L91.0881 83.3401C90.9441 83.7721 90.8001 84.2041 90.6081 84.6361H98.2161V86.7721H96.5841Z" fill="#E5005A"/>
<path d="M69.5602 87.3961V85.9321H64.8082V87.3961H69.5602ZM69.5602 90.8281V89.3641H64.8082V90.8281H69.5602ZM69.5602 94.3321V92.8441H64.8082V94.3321H69.5602ZM62.2402 83.7961H65.2642C65.3602 83.2681 65.4562 82.692 65.5522 82.1641H61.5202V79.7401H72.7282V82.1641H68.5762C68.3842 82.7401 68.1922 83.2921 68.0002 83.7961H72.2482V96.4441H62.2402V83.7961ZM53.3362 83.0041V84.6601H51.0322V80.7961H54.8722V78.8521H57.5362V80.7961H61.4482V84.6601H59.0722V83.0041H53.3362ZM57.6562 97.6201V95.4121H54.7522V97.6201H57.6562ZM54.8002 93.2041H58.8562C58.2562 92.7241 57.5362 92.1961 56.8162 91.6441C56.1682 92.2201 55.4962 92.7481 54.8002 93.2041ZM57.6802 86.8201H55.3522C55.1842 87.0361 55.0162 87.2281 54.8482 87.4441L56.5042 88.524C56.9602 87.9961 57.3442 87.4201 57.6802 86.8201ZM60.0802 94.2121V99.1801C61.6642 98.5321 63.3442 97.4281 64.2082 96.5401L66.5122 97.9801C65.2642 99.2041 63.1522 100.476 61.4002 101.172C61.0882 100.788 60.5602 100.26 60.0802 99.8041H54.7522V100.764H52.3522V94.5481L51.8482 94.7641C51.5362 94.1401 50.9122 93.1801 50.4082 92.7241C51.9922 92.1721 53.5042 91.3081 54.8242 90.2041L53.2402 89.1001C52.9042 89.3881 52.5682 89.6761 52.2082 89.9161C51.8242 89.4601 50.9362 88.5961 50.4082 88.2601C52.2802 87.0841 53.9362 85.2601 54.8002 83.2441L57.1282 83.8201C56.9602 84.2041 56.7922 84.5641 56.5762 84.9241H58.8082L59.2402 84.8041L60.8482 85.548C60.2962 87.1801 59.4802 88.6201 58.4722 89.8681C59.7682 90.7321 60.9442 91.5961 61.7362 92.2681L60.1282 94.2601L60.0802 94.2121ZM67.5682 97.9561L69.6322 96.6601C70.9042 97.5481 72.6562 98.8681 73.5202 99.7801L71.3122 101.244C70.5442 100.332 68.8642 98.9161 67.5682 97.9561Z" fill="#E5005A"/>
<path d="M38.528 97.3318V95.7718H34.376V97.3318H38.528ZM46.208 90.4198V98.1958C46.208 99.5158 45.944 100.284 45.008 100.716C44.12 101.148 42.848 101.172 41.12 101.172C41.048 100.62 40.832 99.8758 40.568 99.2518H34.376V100.332H31.88V93.8758H41.048V98.5318C41.864 98.5558 42.608 98.5558 42.872 98.5318C43.232 98.5078 43.328 98.4358 43.328 98.1478V92.7958H29.744V101.22H26.96V90.4198H46.208ZM40.136 87.4918V86.0278H32.648V87.4918H40.136ZM29.936 84.1318H43.04V89.4118H29.936V84.1318ZM37.784 80.7958H46.976V83.2198H26V80.7958H34.88V78.7798H37.784V80.7958Z" fill="#E5005A"/>
</svg>
