<svg width="370" height="180" viewBox="0 0 370 180" fill="none" xmlns="http://www.w3.org/2000/svg">
<rect width="370" height="180" fill="white"/>
<mask id="mask0_1523_25634" style="mask-type:alpha" maskUnits="userSpaceOnUse" x="0" y="0" width="370" height="180">
<rect x="2" y="2" width="366" height="176" rx="8" fill="white" stroke="#FAF1F5" stroke-width="4"/>
</mask>
<g mask="url(#mask0_1523_25634)">
<path fill-rule="evenodd" clip-rule="evenodd" d="M332.443 -5.01438C332.443 13.2031 318.026 49.7653 300.242 49.7653C282.458 49.7653 268.041 13.2031 268.041 -5.01438C268.041 -23.2318 282.458 -38 300.242 -38C318.026 -38 332.443 -23.2318 332.443 -5.01438ZM366.785 110.986C356.618 96.0394 324.383 74.4858 309.792 84.9014C295.201 95.3169 303.78 133.758 313.947 148.704C324.115 163.65 344.186 167.323 358.777 156.907C373.368 146.492 376.953 125.932 366.785 110.986ZM316.05 63.6223C320.543 81.2488 358.72 86.3009 375.927 81.6985C393.134 77.096 403.441 59.0759 398.948 41.4494C394.456 23.8229 376.864 13.2648 359.657 17.8672C342.45 22.4697 311.557 45.9958 316.05 63.6223ZM221.419 77.0826C238.361 82.6216 276.747 79.6693 282.155 62.3144C287.562 44.9594 257.943 19.7736 241 14.2346C224.058 8.69563 205.94 18.2744 200.533 35.6293C195.126 52.9843 204.477 71.5436 221.419 77.0826ZM283.328 82.6362C298.707 91.7839 293.252 130.818 284.322 146.572C275.392 162.327 255.685 167.682 240.306 158.534C224.926 149.387 219.698 129.2 228.628 113.445C237.558 97.6913 267.948 73.4884 283.328 82.6362Z" fill="#FAF1F5"/>
</g>
<path d="M40.04 98.2V96.64H35.888V98.2H40.04ZM47.72 91.288V99.064C47.72 100.384 47.456 101.152 46.52 101.584C45.632 102.016 44.36 102.04 42.632 102.04C42.56 101.488 42.344 100.744 42.08 100.12H35.888V101.2H33.392V94.744H42.56V99.4C43.376 99.424 44.12 99.424 44.384 99.4C44.744 99.376 44.84 99.304 44.84 99.016V93.664H31.256V102.088H28.472V91.288H47.72ZM41.648 88.36V86.896H34.16V88.36H41.648ZM31.448 85H44.552V90.28H31.448V85ZM39.296 81.664H48.488V84.088H27.512V81.664H36.392V79.648H39.296V81.664ZM71.072 88.264V86.8H66.32V88.264H71.072ZM71.072 91.696V90.232H66.32V91.696H71.072ZM71.072 95.2V93.712H66.32V95.2H71.072ZM63.752 84.664H66.776C66.872 84.136 66.968 83.56 67.064 83.032H63.032V80.608H74.24V83.032H70.088C69.896 83.608 69.704 84.16 69.512 84.664H73.76V97.312H63.752V84.664ZM54.848 83.872V85.528H52.544V81.664H56.384V79.72H59.048V81.664H62.96V85.528H60.584V83.872H54.848ZM59.168 98.488V96.28H56.264V98.488H59.168ZM56.312 94.072H60.368C59.768 93.592 59.048 93.064 58.328 92.512C57.68 93.088 57.008 93.616 56.312 94.072ZM59.192 87.688H56.864C56.696 87.904 56.528 88.096 56.36 88.312L58.016 89.392C58.472 88.864 58.856 88.288 59.192 87.688ZM61.592 95.08V100.048C63.176 99.4 64.856 98.296 65.72 97.408L68.024 98.848C66.776 100.072 64.664 101.344 62.912 102.04C62.6 101.656 62.072 101.128 61.592 100.672H56.264V101.632H53.864V95.416L53.36 95.632C53.048 95.008 52.424 94.048 51.92 93.592C53.504 93.04 55.016 92.176 56.336 91.072L54.752 89.968C54.416 90.256 54.08 90.544 53.72 90.784C53.336 90.328 52.448 89.464 51.92 89.128C53.792 87.952 55.448 86.128 56.312 84.112L58.64 84.688C58.472 85.072 58.304 85.432 58.088 85.792H60.32L60.752 85.672L62.36 86.416C61.808 88.048 60.992 89.488 59.984 90.736C61.28 91.6 62.456 92.464 63.248 93.136L61.64 95.128L61.592 95.08ZM69.08 98.824L71.144 97.528C72.416 98.416 74.168 99.736 75.032 100.648L72.824 102.112C72.056 101.2 70.376 99.784 69.08 98.824ZM86.168 96.832L88.736 97.552C87.872 99.136 86.432 100.768 85.112 101.776C84.632 101.296 83.6 100.48 82.976 100.12C84.272 99.304 85.472 98.08 86.168 96.832ZM94.208 97.984L96.368 96.904C97.544 97.984 99.056 99.52 99.752 100.576L97.448 101.776C96.848 100.744 95.384 99.112 94.208 97.984ZM94.856 92.344V91.48H88.688V92.344H94.856ZM94.856 94.864V93.952H88.688V94.864H94.856ZM83.624 83.992V89.296C83.624 89.944 83.6 90.64 83.576 91.36C84.344 90.976 85.04 90.568 85.664 90.112C85.184 89.728 84.68 89.344 84.224 89.032L85.664 87.76C86.12 88.048 86.672 88.432 87.176 88.792C87.536 88.408 87.872 88.024 88.16 87.64H84.464V85.504H89.408C89.624 85 89.816 84.496 89.96 83.992H83.624ZM92.72 87.64H91.088C90.656 88.384 90.152 89.104 89.576 89.776H94.16C93.608 89.104 93.128 88.384 92.72 87.64ZM97.976 87.64H95.288C95.648 88.12 96.08 88.576 96.536 89.008C97.064 88.552 97.616 88.024 97.976 87.64ZM98.096 87.64L99.656 88.792C99.152 89.296 98.576 89.752 98.024 90.16C98.744 90.64 99.512 91.024 100.304 91.312C99.728 91.768 99.008 92.704 98.648 93.304C98.216 93.112 97.76 92.872 97.352 92.608V96.544H93.152V99.616C93.152 100.792 92.936 101.368 92.072 101.752C91.232 102.112 90.128 102.112 88.712 102.112C88.544 101.392 88.136 100.456 87.824 99.832C88.712 99.856 89.72 99.856 90.032 99.856C90.296 99.856 90.392 99.76 90.392 99.52V96.544H86.312V92.608C85.856 92.896 85.376 93.184 84.872 93.448C84.608 92.968 84.056 92.296 83.552 91.864C83.312 95.368 82.496 99.4 80.072 102.064C79.688 101.536 78.608 100.528 78.104 100.192C79.64 98.44 80.384 96.208 80.72 93.976C79.856 94.48 79.016 94.984 78.2 95.464L77.384 92.896C78.32 92.488 79.616 91.84 80.984 91.168C81.008 90.52 81.008 89.896 81.008 89.296V88.48L78.896 89.44C78.776 88.192 78.224 86.176 77.6 84.616L79.64 83.776C80.264 85.12 80.792 86.8 81.008 88.024V81.592H88.52V79.696H91.544V81.592H99.944V83.992H90.92L92.6 84.208C92.456 84.64 92.312 85.072 92.12 85.504H99.728V87.64H98.096ZM120.584 97.528H116.312C117.008 98.032 117.872 98.416 118.832 98.728C119.432 98.368 120.032 97.936 120.584 97.528ZM110.624 99.16L114.584 98.872C114.104 98.464 113.696 98.032 113.312 97.528H110.624V99.16ZM117.968 93.544V92.728H110.624V93.544H117.968ZM110.624 95.8H117.968V94.984H110.624V95.8ZM117.2 89.608H111.56C111.224 90.112 110.816 90.568 110.384 91.024H112.904V90.04H115.616V91.024H118.376C117.944 90.568 117.56 90.112 117.2 89.608ZM124.928 89.608H120.368C121.76 90.808 123.632 91.792 125.624 92.296C125.024 92.848 124.232 93.856 123.824 94.552C122.792 94.192 121.784 93.688 120.848 93.064V97.336C121.208 97.048 121.544 96.784 121.808 96.544L123.896 97.72C123.104 98.296 122.216 98.848 121.376 99.328C122.528 99.52 123.8 99.64 125.144 99.712C124.616 100.288 123.944 101.368 123.584 102.112C120.368 101.8 117.776 101.08 115.784 99.784V101.032C112.16 101.368 108.368 101.704 105.56 101.92L105.272 99.472C106.016 99.448 106.856 99.4 107.792 99.328V93.184C106.856 93.832 105.848 94.36 104.84 94.816C104.432 94.264 103.496 93.232 102.92 92.752C104.936 92.008 106.832 90.928 108.2 89.608H103.664V87.496H112.808V86.68H106.016V84.688H112.808V83.848H104.816V81.76H108.896C108.632 81.28 108.32 80.776 108.008 80.368L110.504 79.576C111.08 80.152 111.656 81.04 111.92 81.664L111.656 81.76H116.864L116.768 81.736C117.176 81.112 117.656 80.224 117.896 79.648L121.064 80.248C120.632 80.824 120.2 81.328 119.792 81.76H123.704V83.848H115.736V84.688H122.6V86.68H115.736V87.496H124.928V89.608ZM134.72 95.824V96.808H145.04V95.824H134.72ZM141.056 87.64H137.864C137.6 88.216 137.216 88.744 136.688 89.224H141.056V87.64ZM133.328 85.024L133.016 85.96H135.632C135.728 85.672 135.776 85.36 135.776 85.024H133.328ZM138.392 82.408V83.368H141.056V82.408H138.392ZM146.264 82.408H143.768V83.368H146.264V82.408ZM141.056 85.96V85.024H138.392C138.368 85.336 138.344 85.648 138.32 85.96H141.056ZM147.608 87.64H143.768V89.224H145.856C145.784 88.936 145.664 88.648 145.568 88.432C146.12 88.504 146.624 88.528 146.888 88.504C147.104 88.504 147.248 88.504 147.392 88.336C147.488 88.216 147.56 88 147.608 87.64ZM145.04 91.792V90.856H134.72V91.792H145.04ZM145.04 94.288V93.328H134.72V94.288H145.04ZM147.944 98.44H144.32C146.624 99.184 149.144 100.096 150.656 100.744L147.488 102.112C146.072 101.392 143.576 100.384 141.08 99.568L142.904 98.44H136.496L138.392 99.304C136.4 100.48 133.352 101.56 130.904 102.16C130.448 101.608 129.44 100.6 128.84 100.12C131.072 99.736 133.52 99.136 135.2 98.44H131.936V91.312C131.384 91.432 130.808 91.528 130.16 91.624C129.92 91.024 129.248 89.944 128.816 89.416C131.792 89.032 133.52 88.432 134.504 87.64H132.392L132.32 87.856L129.728 87.688C130.256 86.512 130.832 84.784 131.24 83.368H135.8V82.408H130.352V80.728H135.8V79.696H138.392V80.728H141.056V79.696H143.768V80.728H148.856V85.024H143.768V85.96H150.416C150.416 85.96 150.392 86.44 150.368 86.704C150.248 88.264 150.104 89.128 149.696 89.56C149.336 89.92 148.808 90.112 148.304 90.136C148.208 90.136 148.088 90.16 147.944 90.16V98.44ZM156.344 87.232H159.584V85.432H157.16C156.896 86.104 156.608 86.704 156.344 87.232ZM162.296 85.432V87.232H167.552V89.8H162.296V91.552H166.976V97.672C166.976 98.776 166.808 99.448 166.112 99.856C165.44 100.264 164.528 100.312 163.328 100.288C163.256 99.568 162.944 98.56 162.632 97.864C163.304 97.912 163.904 97.912 164.12 97.888C164.336 97.888 164.408 97.84 164.408 97.6V94.096H162.296V102.064H159.584V94.096H157.616V100.168H155.072V91.552H159.584V89.8H154.136V87.232H155.936C155.312 86.92 154.328 86.512 153.776 86.32C154.76 84.808 155.552 82.384 155.984 80.104L158.6 80.656C158.456 81.4 158.264 82.12 158.048 82.84H159.584V79.816H162.296V82.84H166.592V85.432H162.296ZM171.296 81.64V95.152H168.632V81.64H171.296ZM172.928 80.08H175.664V98.704C175.664 100.24 175.352 101.008 174.488 101.488C173.6 101.944 172.208 102.04 170.36 102.04C170.264 101.248 169.88 100 169.52 99.16C170.744 99.208 171.992 99.208 172.4 99.208C172.784 99.184 172.928 99.088 172.928 98.68V80.08ZM184.088 84.376V88.552C184.088 92.44 183.728 98.32 181.544 102.016C181.064 101.536 179.864 100.744 179.216 100.456C181.208 97.048 181.352 92.056 181.352 88.552V81.832H189.896V79.696H192.872V81.832H201.392V84.376H184.088ZM194.984 88.648H190.616V90.232H194.984V88.648ZM197.816 92.392H187.928V88.648H184.688V86.392H187.928V84.808H190.616V86.392H194.984V84.808H197.816V86.392H201.272V88.648H197.816V92.392ZM195.872 95.584H190.184C190.904 96.352 191.864 97 192.992 97.552C194.096 97.024 195.08 96.352 195.872 95.584ZM198.296 93.232L200.072 94.12C199.112 96.04 197.696 97.528 195.968 98.68C197.72 99.184 199.712 99.52 201.872 99.712C201.296 100.312 200.552 101.416 200.192 102.16C197.432 101.824 194.984 101.2 192.896 100.264C190.544 101.2 187.856 101.776 185 102.136C184.784 101.416 184.28 100.336 183.848 99.736C186.056 99.544 188.168 99.208 190.064 98.656C189.008 97.912 188.072 97.024 187.304 95.992L188.432 95.584H184.856V93.352H197.792L198.296 93.232Z" fill="#E5005A"/>
</svg>
