<svg width="370" height="180" viewBox="0 0 370 180" fill="none" xmlns="http://www.w3.org/2000/svg">
<rect width="370" height="180" fill="white"/>
<mask id="mask0_1523_25645" style="mask-type:alpha" maskUnits="userSpaceOnUse" x="0" y="0" width="370" height="180">
<rect x="2" y="2" width="366" height="176" rx="8" fill="white" stroke="#FAF1F5" stroke-width="4"/>
</mask>
<g mask="url(#mask0_1523_25645)">
<path fill-rule="evenodd" clip-rule="evenodd" d="M332.443 -5.01438C332.443 13.2031 318.026 49.7653 300.242 49.7653C282.458 49.7653 268.041 13.2031 268.041 -5.01438C268.041 -23.2318 282.458 -38 300.242 -38C318.026 -38 332.443 -23.2318 332.443 -5.01438ZM366.785 110.986C356.618 96.0394 324.383 74.4858 309.792 84.9014C295.201 95.3169 303.78 133.758 313.947 148.704C324.115 163.65 344.186 167.323 358.777 156.907C373.368 146.492 376.953 125.932 366.785 110.986ZM316.05 63.6223C320.543 81.2488 358.72 86.3009 375.927 81.6985C393.134 77.096 403.441 59.0759 398.948 41.4494C394.456 23.8229 376.864 13.2648 359.657 17.8672C342.45 22.4697 311.557 45.9958 316.05 63.6223ZM221.419 77.0826C238.361 82.6216 276.747 79.6693 282.155 62.3144C287.562 44.9594 257.943 19.7736 241 14.2346C224.058 8.69563 205.94 18.2744 200.533 35.6293C195.126 52.9843 204.477 71.5436 221.419 77.0826ZM283.328 82.6362C298.707 91.7839 293.252 130.818 284.322 146.572C275.392 162.327 255.685 167.682 240.306 158.534C224.926 149.387 219.698 129.2 228.628 113.445C237.558 97.6913 267.948 73.4884 283.328 82.6362Z" fill="#FAF1F5"/>
</g>
<path d="M31.544 64.516H39.848C39.848 69.052 40.496 77.812 49.328 83.02C48.704 83.524 47.528 84.772 47.024 85.516C42.056 82.516 39.512 77.98 38.192 73.684C36.392 79.06 33.512 83.044 29.336 85.54C28.808 84.94 27.464 83.764 26.72 83.212C31.712 80.692 34.568 76.06 35.888 69.748L37.352 70.012C37.184 69.1 37.088 68.236 37.016 67.42H31.544V64.516ZM71.768 70.18V68.212H63.08V70.18H71.768ZM60.536 65.788H65.888V63.268H68.648V65.788H74.384V70.492H72.536V72.628H62.312V70.516H60.536V65.788ZM58.832 64.084L60.704 65.164C60.08 67.204 59.288 69.82 58.616 71.692C60.056 73.516 60.368 75.124 60.368 76.516C60.368 78.052 60.056 79.06 59.312 79.588C58.928 79.852 58.472 79.996 57.92 80.092C57.512 80.14 56.936 80.164 56.384 80.14C56.36 79.468 56.144 78.388 55.76 77.716C56.192 77.74 56.504 77.74 56.816 77.74C57.08 77.716 57.296 77.668 57.488 77.524C57.752 77.332 57.848 76.852 57.848 76.18C57.848 75.076 57.536 73.588 56.192 71.98C56.672 70.468 57.176 68.38 57.56 66.748H55.688V85.588H53.216V64.204H58.424L58.832 64.084ZM71.048 82.852H71.84C72.224 82.852 72.296 82.492 72.344 80.044C72.872 80.476 74.024 80.932 74.72 81.1C74.48 84.46 73.856 85.372 72.152 85.372H70.544C68.456 85.372 68 84.556 68 82.108V76.9H66.224C65.936 81.244 64.928 84.004 60.248 85.564C60.008 84.892 59.312 83.836 58.736 83.332C62.576 82.18 63.296 80.236 63.536 76.9H60.896V74.356H74.264V76.9H70.664V82.084C70.664 82.78 70.712 82.852 71.048 82.852ZM99.1046 75.052C99.1046 80.116 96.0086 83.692 89.9606 84.628L88.1606 81.772C89.0726 81.676 89.7446 81.532 90.3926 81.388C93.4646 80.668 95.8646 78.46 95.8646 74.956C95.8646 71.644 94.0646 69.172 90.8246 68.62C90.4886 70.66 90.0806 72.868 89.3846 75.124C87.9446 79.972 85.8806 82.948 83.2646 82.948C80.6006 82.948 78.3926 80.02 78.3926 75.964C78.3926 70.42 83.1926 65.692 89.4086 65.692C95.3606 65.692 99.1046 69.82 99.1046 75.052ZM81.4646 75.652C81.4646 78.076 82.4246 79.252 83.3606 79.252C84.3686 79.252 85.3046 77.74 86.2886 74.5C86.8406 72.724 87.2966 70.684 87.5606 68.692C83.6006 69.508 81.4646 73.012 81.4646 75.652ZM108.376 81.724H119.776V79.228H108.376V81.724ZM119.776 74.116H108.376V76.588H119.776V74.116ZM119.776 69.004H108.376V71.476H119.776V69.004ZM114.592 66.268H122.824V85.54H119.776V84.364H108.376V85.564H105.472V66.268H111.616C111.88 65.236 112.144 64.084 112.264 63.124L115.72 63.508C115.36 64.468 114.976 65.404 114.592 66.268ZM136.936 82.3H144.616C147.016 82.3 147.352 81.7 147.664 78.244C148.432 78.676 149.728 79.18 150.568 79.324C150.04 83.908 148.984 85.156 144.688 85.156H136.912C132.424 85.156 130.96 84.292 130.96 80.86V72.22H144.64V67.468H130.672V64.54H147.688V76.396H144.64V75.028H133.936V80.812C133.936 82.084 134.368 82.3 136.936 82.3ZM159.784 77.716V79.108H170.248V77.716H159.784ZM165.472 66.94H160.96C160.48 67.54 159.952 68.116 159.376 68.668H164.128C164.608 68.14 165.064 67.516 165.472 66.94ZM170.248 72.244V70.876H159.784V72.244H170.248ZM170.248 75.652V74.308H159.784V75.652H170.248ZM173.224 81.34H169.216C171.544 82.228 174.184 83.356 175.744 84.148L172.528 85.588C171.208 84.796 168.808 83.62 166.504 82.708L168.616 81.34H161.128L163.576 82.444C161.608 83.74 158.56 84.964 156.16 85.684C155.656 85.108 154.576 84.004 153.928 83.476C156.28 82.996 158.896 82.204 160.552 81.34H156.952V70.78C156.616 71.044 156.256 71.284 155.872 71.548C155.392 70.876 154.408 69.916 153.76 69.508C156.808 67.732 158.944 65.308 160.12 63.196L163.216 63.772C163.024 64.108 162.808 64.42 162.592 64.756H167.056L167.512 64.636L169.48 65.908C168.976 66.772 168.28 67.756 167.536 68.668H173.224V81.34ZM197.08 70.852V67.348H191.056V70.852H197.08ZM197.08 77.14V73.516H191.056V77.14H197.08ZM199.936 64.708V79.78H188.32V64.708H199.936ZM187.408 73.3L187.744 75.916C186.856 76.156 185.968 76.42 185.056 76.66V82.372C185.056 83.764 184.792 84.46 184 84.868C183.208 85.324 182.032 85.396 180.352 85.396C180.28 84.652 179.896 83.524 179.56 82.804C180.496 82.828 181.504 82.828 181.816 82.828C182.152 82.828 182.272 82.708 182.272 82.372V77.38L179.728 78.052L178.984 75.316C179.92 75.124 181.072 74.86 182.272 74.572V70.372H179.296V67.732H182.272V63.196H185.056V67.732H187.576V70.372H185.056V73.9L187.408 73.3ZM186.664 82.132H201.4V84.796H186.664V82.132ZM223.384 71.764V70.3H218.632V71.764H223.384ZM223.384 75.196V73.732H218.632V75.196H223.384ZM223.384 78.7V77.212H218.632V78.7H223.384ZM216.064 68.164H219.088C219.184 67.636 219.28 67.06 219.376 66.532H215.344V64.108H226.552V66.532H222.4C222.208 67.108 222.016 67.66 221.824 68.164H226.072V80.812H216.064V68.164ZM207.16 67.372V69.028H204.856V65.164H208.696V63.22H211.36V65.164H215.272V69.028H212.896V67.372H207.16ZM211.48 81.988V79.78H208.576V81.988H211.48ZM208.624 77.572H212.68C212.08 77.092 211.36 76.564 210.64 76.012C209.992 76.588 209.32 77.116 208.624 77.572ZM211.504 71.188H209.176C209.008 71.404 208.84 71.596 208.672 71.812L210.328 72.892C210.784 72.364 211.168 71.788 211.504 71.188ZM213.904 78.58V83.548C215.488 82.9 217.168 81.796 218.032 80.908L220.336 82.348C219.088 83.572 216.976 84.844 215.224 85.54C214.912 85.156 214.384 84.628 213.904 84.172H208.576V85.132H206.176V78.916L205.672 79.132C205.36 78.508 204.736 77.548 204.232 77.092C205.816 76.54 207.328 75.676 208.648 74.572L207.064 73.468C206.728 73.756 206.392 74.044 206.032 74.284C205.648 73.828 204.76 72.964 204.232 72.628C206.104 71.452 207.76 69.628 208.624 67.612L210.952 68.188C210.784 68.572 210.616 68.932 210.4 69.292H212.632L213.064 69.172L214.672 69.916C214.12 71.548 213.304 72.988 212.296 74.236C213.592 75.1 214.768 75.964 215.56 76.636L213.952 78.628L213.904 78.58ZM221.392 82.324L223.456 81.028C224.728 81.916 226.48 83.236 227.344 84.148L225.136 85.612C224.368 84.7 222.688 83.284 221.392 82.324ZM30.6227 109.9C30.6227 106 32.2027 102.84 34.6027 100.4L35.8027 101.02C33.4827 103.4 32.0627 106.34 32.0627 109.9C32.0627 113.48 33.4827 116.42 35.8027 118.8L34.6027 119.42C32.2027 116.98 30.6227 113.82 30.6227 109.9ZM42.32 100.6L44.52 101.32C44 102.62 43.38 103.98 42.66 105.26V119.2H40.4V108.74C39.9 109.38 39.4 109.98 38.88 110.52C38.66 109.94 38 108.66 37.6 108.08C39.46 106.28 41.28 103.44 42.32 100.6ZM47.18 103.52V106.2H53.04V103.52H47.18ZM56.4 112.26H52.4C53.58 114 55.3 115.64 56.98 116.62C56.44 117.08 55.68 117.92 55.3 118.52C53.84 117.48 52.38 115.86 51.24 114.08V119.24H48.84V114.18C47.62 115.94 46.1 117.46 44.52 118.48C44.16 117.9 43.42 117.04 42.88 116.58C44.68 115.64 46.46 114.02 47.7 112.26H43.6V110.1H48.84V108.3H44.92V101.42H55.42V108.3H51.24V110.1H56.4V112.26ZM68.54 111.94H70.5C70.52 111.76 70.52 111.58 70.52 111.4V110.14H68.54V111.94ZM74.76 110.14H72.66V111.46C72.66 111.62 72.66 111.78 72.66 111.94H74.76V110.14ZM69.22 105.16H74.06C73.08 104.36 72.18 103.46 71.56 102.6C71 103.44 70.18 104.34 69.22 105.16ZM76.9 113.76H73.32C74.5 115.96 76 116.72 77.98 117.34C77.44 117.84 76.88 118.62 76.62 119.32C74.62 118.56 73.04 117.54 71.82 115.36C70.96 116.96 69.34 118.4 66.34 119.34C66.12 118.86 65.46 117.96 65.08 117.58C68.3 116.6 69.64 115.24 70.18 113.76H66.48V108.34H70.52V107.12H67.98V106.1C67.4 106.5 66.8 106.86 66.2 107.16C65.98 106.64 65.58 105.92 65.22 105.4C64.94 106.22 64.66 107.04 64.4 107.72C65.68 109.24 65.94 110.56 65.94 111.72C65.94 112.98 65.68 113.82 65.02 114.28C64.7 114.5 64.3 114.62 63.86 114.68C63.48 114.74 63 114.76 62.5 114.74C62.5 114.16 62.32 113.24 61.98 112.66C62.36 112.7 62.66 112.7 62.9 112.68C63.12 112.68 63.34 112.64 63.48 112.54C63.72 112.36 63.82 111.98 63.82 111.4C63.82 110.5 63.52 109.3 62.36 107.98C62.78 106.7 63.22 104.92 63.56 103.54H61.94V119.24H59.88V101.42H64.3L64.64 101.32L66.22 102.24C65.96 103.12 65.64 104.12 65.32 105.1C67.44 104.12 69.44 102.22 70.42 100.58H72.58C73.96 102.48 76.04 104.14 78.12 104.9C77.68 105.46 77.22 106.34 76.9 106.98C76.4 106.74 75.86 106.42 75.34 106.08V107.12H72.66V108.34H76.9V113.76ZM90.72 105.18H93.38C93.56 104.76 93.74 104.24 93.9 103.78H90.24C90.48 104.24 90.66 104.76 90.72 105.18ZM95.96 113.72V106.98H92.98V108.02H95.34V109.46H92.98V110.56H94.86V114.04C95.22 114.04 95.52 114.04 95.66 114.04C95.88 114.02 95.96 113.96 95.96 113.72ZM93.22 113V111.9H91.06V113H93.22ZM88.06 103.86L88.4 103.78H85.76V101.94H90.86V100.56H93.16V101.94H98.56V103.78H96.26C96 104.3 95.76 104.76 95.54 105.18H98.14V113.76C98.14 114.72 97.98 115.24 97.34 115.6C96.68 115.92 95.84 115.94 94.64 115.94C94.58 115.48 94.38 114.84 94.18 114.34H91.06V114.96H89.44V110.56H91.28V109.46H88.94V108.02H91.28V106.98H88.42V115.86H86.28V105.18H88.56C88.44 104.74 88.26 104.26 88.06 103.86ZM85.46 104.24L83.5 105.74C82.94 104.76 81.62 103.38 80.5 102.42L82.32 101.06C83.44 101.96 84.82 103.28 85.46 104.24ZM84.92 108.32V114.7C85.7 116.04 87.1 116.6 89.14 116.68C91.54 116.78 96.26 116.72 99.02 116.5C98.74 117.06 98.4 118.16 98.28 118.82C95.8 118.94 91.56 118.98 89.12 118.88C86.74 118.78 85.14 118.2 83.94 116.66C83.14 117.44 82.32 118.2 81.3 119.06L80.18 116.7C80.96 116.2 81.86 115.54 82.66 114.86V110.5H80.42V108.32H84.92ZM112.2 111.16H116.42V108.7H112.2V111.16ZM105.98 111.16H109.8V108.7H106.04V109.06C106.04 109.7 106.02 110.42 105.98 111.16ZM109.8 104.16H106.04V106.48H109.8V104.16ZM116.42 106.48V104.16H112.2V106.48H116.42ZM118.78 101.9V116.42C118.78 117.7 118.5 118.34 117.7 118.7C116.88 119.1 115.66 119.14 113.86 119.12C113.78 118.48 113.4 117.46 113.1 116.84C114.22 116.9 115.54 116.88 115.9 116.88C116.28 116.88 116.42 116.76 116.42 116.4V113.4H112.2V118.98H109.8V113.4H105.72C105.36 115.58 104.64 117.78 103.2 119.34C102.82 118.9 101.86 118.08 101.32 117.8C103.5 115.4 103.68 111.84 103.68 109.04V101.9H118.78ZM130.72 105.72H127.78C127.42 106.54 127.02 107.3 126.58 108.04C127.58 108.62 128.64 109.34 129.44 109.98C129.98 108.7 130.4 107.28 130.72 105.72ZM137.6 100.6V109.92C138.88 111.04 140.32 111.96 141.78 112.6C141.2 113.1 140.44 114.06 140.04 114.68C139.2 114.24 138.38 113.7 137.6 113.1V119.2H135.12V110.78C134.22 109.8 133.4 108.7 132.68 107.56C131.18 113.22 128.4 117.04 124.84 119.06C124.44 118.54 123.52 117.66 122.94 117.28C125.14 116.14 126.96 114.42 128.36 112.1C127.58 111.38 126.42 110.52 125.36 109.82C125.04 110.26 124.7 110.64 124.34 111C123.92 110.6 122.94 109.82 122.36 109.48C124.56 107.48 126.18 104.14 127.06 100.56L129.42 101.02C129.2 101.86 128.96 102.66 128.68 103.46H131.46L131.88 103.38L133.44 103.92C133.34 104.52 133.24 105.1 133.14 105.66L133.88 105.38C134.22 106.02 134.64 106.68 135.12 107.3V100.6H137.6ZM148.557 109.9C148.557 113.82 146.977 116.98 144.577 119.42L143.377 118.8C145.697 116.42 147.117 113.48 147.117 109.9C147.117 106.34 145.697 103.4 143.377 101.02L144.577 100.4C146.977 102.84 148.557 106 148.557 109.9Z" fill="#E5005A"/>
</svg>
