<svg width="370" height="180" viewBox="0 0 370 180" fill="none" xmlns="http://www.w3.org/2000/svg">
<path d="M0 0H370V180H0V0Z" fill="white"/>
<mask id="mask0_1827_25354" style="mask-type:alpha" maskUnits="userSpaceOnUse" x="0" y="0" width="370" height="180">
<path d="M0 0H370V180H0V0Z" fill="white"/>
</mask>
<g mask="url(#mask0_1827_25354)">
<path fill-rule="evenodd" clip-rule="evenodd" d="M332.443 -5.01438C332.443 13.2031 318.026 49.7653 300.242 49.7653C282.458 49.7653 268.041 13.2031 268.041 -5.01438C268.041 -23.2318 282.458 -38 300.242 -38C318.026 -38 332.443 -23.2318 332.443 -5.01438ZM366.785 110.986C356.618 96.0394 324.383 74.4858 309.792 84.9014C295.201 95.3169 303.78 133.758 313.947 148.704C324.115 163.65 344.186 167.323 358.777 156.907C373.368 146.492 376.953 125.932 366.785 110.986ZM316.05 63.6223C320.543 81.2488 358.72 86.3009 375.927 81.6985C393.134 77.096 403.441 59.0759 398.948 41.4494C394.456 23.8229 376.864 13.2648 359.657 17.8672C342.45 22.4697 311.557 45.9958 316.05 63.6223ZM221.419 77.0826C238.361 82.6216 276.747 79.6693 282.155 62.3144C287.562 44.9594 257.943 19.7736 241 14.2346C224.058 8.69563 205.94 18.2744 200.533 35.6293C195.126 52.9843 204.477 71.5436 221.419 77.0826ZM283.328 82.6362C298.707 91.7839 293.252 130.818 284.322 146.572C275.392 162.327 255.685 167.682 240.306 158.534C224.926 149.387 219.698 129.2 228.628 113.445C237.558 97.6913 267.948 73.4884 283.328 82.6362Z" fill="#FAF1F5"/>
</g>
<path d="M147.837 108.628C147.837 112.548 146.257 115.708 143.857 118.148L142.657 117.528C144.977 115.148 146.397 112.208 146.397 108.628C146.397 105.068 144.977 102.128 142.657 99.7479L143.857 99.1279C146.257 101.568 147.837 104.728 147.837 108.628Z" fill="#E5005A"/>
<path d="M130 104.448H127.06C126.7 105.268 126.3 106.028 125.86 106.768C126.86 107.348 127.92 108.068 128.72 108.708C129.26 107.428 129.68 106.008 130 104.448ZM136.88 99.3281V108.648C138.16 109.768 139.6 110.688 141.06 111.328C140.48 111.828 139.72 112.788 139.32 113.408C138.48 112.968 137.66 112.428 136.88 111.828V117.928H134.4V109.508C133.5 108.528 132.68 107.428 131.96 106.288C130.46 111.948 127.68 115.768 124.12 117.788C123.72 117.268 122.8 116.388 122.22 116.008C124.42 114.868 126.24 113.148 127.64 110.828C126.86 110.108 125.7 109.248 124.64 108.548C124.32 108.988 123.98 109.368 123.62 109.728C123.2 109.328 122.22 108.548 121.64 108.208C123.84 106.208 125.46 102.868 126.34 99.2881L128.7 99.7481C128.48 100.588 128.24 101.388 127.96 102.188H130.74L131.16 102.108L132.72 102.648C132.62 103.248 132.52 103.828 132.42 104.388L133.16 104.108C133.5 104.748 133.92 105.408 134.4 106.028V99.3281H136.88Z" fill="#E5005A"/>
<path d="M111.48 109.888H115.7V107.428H111.48V109.888ZM105.26 109.888H109.08V107.428H105.32V107.788C105.32 108.428 105.3 109.148 105.26 109.888ZM109.08 102.888H105.32V105.208H109.08V102.888ZM115.7 105.208V102.888H111.48V105.208H115.7ZM118.06 100.628V115.148C118.06 116.428 117.78 117.068 116.98 117.428C116.16 117.828 114.94 117.868 113.14 117.848C113.06 117.208 112.68 116.188 112.38 115.568C113.5 115.628 114.82 115.608 115.18 115.608C115.56 115.608 115.7 115.488 115.7 115.128V112.128H111.48V117.708H109.08V112.128H105C104.64 114.308 103.92 116.508 102.48 118.068C102.1 117.628 101.14 116.808 100.6 116.528C102.78 114.128 102.96 110.568 102.96 107.768V100.628H118.06Z" fill="#E5005A"/>
<path d="M90 103.908H92.66C92.84 103.488 93.02 102.968 93.18 102.508H89.52C89.76 102.968 89.94 103.488 90 103.908ZM95.24 112.448V105.708H92.26V106.748H94.62V108.188H92.26V109.288H94.14V112.768C94.5 112.768 94.8 112.768 94.94 112.768C95.16 112.748 95.24 112.688 95.24 112.448ZM92.5 111.728V110.628H90.34V111.728H92.5ZM87.34 102.588L87.68 102.508H85.04V100.668H90.14V99.2881H92.44V100.668H97.84V102.508H95.54C95.28 103.028 95.04 103.488 94.82 103.908H97.42V112.488C97.42 113.448 97.26 113.968 96.62 114.328C95.96 114.648 95.12 114.668 93.92 114.668C93.86 114.208 93.66 113.568 93.46 113.068H90.34V113.688H88.72V109.288H90.56V108.188H88.22V106.748H90.56V105.708H87.7V114.588H85.56V103.908H87.84C87.72 103.468 87.54 102.988 87.34 102.588ZM84.74 102.968L82.78 104.468C82.22 103.488 80.9 102.108 79.78 101.148L81.6 99.7881C82.72 100.688 84.1 102.008 84.74 102.968ZM84.2 107.048V113.428C84.98 114.768 86.38 115.328 88.42 115.408C90.82 115.508 95.54 115.448 98.3 115.228C98.02 115.788 97.68 116.888 97.56 117.548C95.08 117.668 90.84 117.708 88.4 117.608C86.02 117.508 84.42 116.928 83.22 115.388C82.42 116.168 81.6 116.928 80.58 117.788L79.46 115.428C80.24 114.928 81.14 114.268 81.94 113.588V109.228H79.7V107.048H84.2Z" fill="#E5005A"/>
<path d="M67.8202 110.668H69.7802C69.8002 110.488 69.8002 110.308 69.8002 110.128V108.868H67.8202V110.668ZM74.0402 108.868H71.9402V110.188C71.9402 110.348 71.9402 110.508 71.9402 110.668H74.0402V108.868ZM68.5002 103.888H73.3402C72.3602 103.088 71.4602 102.188 70.8402 101.328C70.2802 102.168 69.4602 103.068 68.5002 103.888ZM76.1802 112.488H72.6002C73.7802 114.688 75.2802 115.448 77.2602 116.068C76.7202 116.568 76.1602 117.348 75.9002 118.048C73.9002 117.288 72.3202 116.268 71.1002 114.088C70.2402 115.688 68.6202 117.128 65.6202 118.068C65.4002 117.588 64.7402 116.688 64.3602 116.308C67.5802 115.328 68.9202 113.968 69.4602 112.488H65.7602V107.068H69.8002V105.848H67.2602V104.828C66.6802 105.228 66.0802 105.588 65.4802 105.888C65.2602 105.368 64.8602 104.648 64.5002 104.128C64.2202 104.948 63.9402 105.768 63.6802 106.448C64.9602 107.968 65.2202 109.288 65.2202 110.448C65.2202 111.708 64.9602 112.548 64.3002 113.008C63.9802 113.228 63.5802 113.348 63.1402 113.408C62.7602 113.468 62.2802 113.488 61.7802 113.468C61.7802 112.888 61.6002 111.968 61.2602 111.388C61.6402 111.428 61.9402 111.428 62.1802 111.408C62.4002 111.408 62.6202 111.368 62.7602 111.268C63.0002 111.088 63.1002 110.708 63.1002 110.128C63.1002 109.228 62.8002 108.028 61.6402 106.708C62.0602 105.428 62.5002 103.648 62.8402 102.268H61.2202V117.968H59.1602V100.148H63.5802L63.9202 100.048L65.5002 100.968C65.2402 101.848 64.9202 102.848 64.6002 103.828C66.7202 102.848 68.7202 100.948 69.7002 99.3081H71.8602C73.2402 101.208 75.3202 102.868 77.4002 103.628C76.9602 104.188 76.5002 105.068 76.1802 105.708C75.6802 105.468 75.1402 105.148 74.6202 104.808V105.848H71.9402V107.068H76.1802V112.488Z" fill="#E5005A"/>
<path d="M41.5999 99.3281L43.7999 100.048C43.2799 101.348 42.6599 102.708 41.9399 103.988V117.928H39.6799V107.468C39.1799 108.108 38.6799 108.708 38.1599 109.248C37.9399 108.668 37.2799 107.388 36.8799 106.808C38.7399 105.008 40.5599 102.168 41.5999 99.3281ZM46.4599 102.248V104.928H52.3199V102.248H46.4599ZM55.6799 110.988H51.6799C52.8599 112.728 54.5799 114.368 56.2599 115.348C55.7199 115.808 54.9599 116.648 54.5799 117.248C53.1199 116.208 51.6599 114.588 50.5199 112.808V117.968H48.1199V112.908C46.8999 114.668 45.3799 116.188 43.7999 117.208C43.4399 116.628 42.6999 115.768 42.1599 115.308C43.9599 114.368 45.7399 112.748 46.9799 110.988H42.8799V108.828H48.1199V107.028H44.1999V100.148H54.6999V107.028H50.5199V108.828H55.6799V110.988Z" fill="#E5005A"/>
<path d="M29.9023 108.628C29.9023 104.728 31.4823 101.568 33.8823 99.1279L35.0823 99.7479C32.7623 102.128 31.3423 105.068 31.3423 108.628C31.3423 112.208 32.7623 115.148 35.0823 117.528L33.8823 118.148C31.4823 115.708 29.9023 112.548 29.9023 108.628Z" fill="#E5005A"/>
<path d="M222.664 70.4922V69.0282H217.912V70.4922H222.664ZM222.664 73.9242V72.4602H217.912V73.9242H222.664ZM222.664 77.4282V75.9402H217.912V77.4282H222.664ZM215.344 66.8922H218.368C218.464 66.3642 218.56 65.7882 218.656 65.2602H214.624V62.8362H225.832V65.2602H221.68C221.488 65.8362 221.296 66.3882 221.104 66.8922H225.352V79.5402H215.344V66.8922ZM206.44 66.1002V67.7562H204.136V63.8922H207.976V61.9482H210.64V63.8922H214.552V67.7562H212.176V66.1002H206.44ZM210.76 80.7162V78.5082H207.856V80.7162H210.76ZM207.904 76.3002H211.96C211.36 75.8202 210.64 75.2922 209.92 74.7402C209.272 75.3162 208.6 75.8442 207.904 76.3002ZM210.784 69.9162H208.456C208.288 70.1322 208.12 70.3242 207.952 70.5402L209.608 71.6202C210.064 71.0922 210.448 70.5162 210.784 69.9162ZM213.184 77.3082V82.2762C214.768 81.6282 216.448 80.5242 217.312 79.6362L219.616 81.0762C218.368 82.3002 216.256 83.5722 214.504 84.2682C214.192 83.8842 213.664 83.3562 213.184 82.9002H207.856V83.8602H205.456V77.6442L204.952 77.8602C204.64 77.2362 204.016 76.2762 203.512 75.8202C205.096 75.2682 206.608 74.4042 207.928 73.3002L206.344 72.1962C206.008 72.4842 205.672 72.7722 205.312 73.0122C204.928 72.5562 204.04 71.6922 203.512 71.3562C205.384 70.1802 207.04 68.3562 207.904 66.3402L210.232 66.9162C210.064 67.3002 209.896 67.6602 209.68 68.0202H211.912L212.344 67.9002L213.952 68.6442C213.4 70.2762 212.584 71.7162 211.576 72.9642C212.872 73.8282 214.048 74.6922 214.84 75.3642L213.232 77.3562L213.184 77.3082ZM220.672 81.0522L222.736 79.7562C224.008 80.6442 225.76 81.9642 226.624 82.8762L224.416 84.3402C223.648 83.4282 221.968 82.0122 220.672 81.0522Z" fill="#E5005A"/>
<path d="M196.36 69.5798V66.0758H190.336V69.5798H196.36ZM196.36 75.8678V72.2438H190.336V75.8678H196.36ZM199.216 63.4358V78.5078H187.6V63.4358H199.216ZM186.688 72.0278L187.024 74.6438C186.136 74.8838 185.248 75.1478 184.336 75.3878V81.0998C184.336 82.4918 184.072 83.1878 183.28 83.5958C182.488 84.0518 181.312 84.1238 179.632 84.1238C179.56 83.3798 179.176 82.2518 178.84 81.5318C179.776 81.5558 180.784 81.5558 181.096 81.5558C181.432 81.5558 181.552 81.4358 181.552 81.0998V76.1078L179.008 76.7798L178.264 74.0438C179.2 73.8518 180.352 73.5878 181.552 73.2998V69.0998H178.576V66.4598H181.552V61.9238H184.336V66.4598H186.856V69.0998H184.336V72.6278L186.688 72.0278ZM185.944 80.8598H200.68V83.5238H185.944V80.8598Z" fill="#E5005A"/>
<path d="M159.064 76.4438V77.8358H169.528V76.4438H159.064ZM164.752 65.6678H160.24C159.76 66.2678 159.232 66.8438 158.656 67.3958H163.408C163.888 66.8678 164.344 66.2438 164.752 65.6678ZM169.528 70.9718V69.6038H159.064V70.9718H169.528ZM169.528 74.3798V73.0358H159.064V74.3798H169.528ZM172.504 80.0678H168.496C170.824 80.9558 173.464 82.0838 175.024 82.8758L171.808 84.3158C170.488 83.5238 168.088 82.3478 165.784 81.4358L167.896 80.0678H160.408L162.856 81.1718C160.888 82.4678 157.84 83.6918 155.44 84.4118C154.936 83.8358 153.856 82.7318 153.208 82.2038C155.56 81.7238 158.176 80.9318 159.832 80.0678H156.232V69.5078C155.896 69.7718 155.536 70.0118 155.152 70.2758C154.672 69.6038 153.688 68.6438 153.04 68.2358C156.088 66.4598 158.224 64.0358 159.4 61.9238L162.496 62.4998C162.304 62.8358 162.088 63.1478 161.872 63.4838H166.336L166.792 63.3638L168.76 64.6358C168.256 65.4998 167.56 66.4838 166.816 67.3958H172.504V80.0678Z" fill="#E5005A"/>
<path d="M136.216 81.0281H143.896C146.296 81.0281 146.632 80.4281 146.944 76.9721C147.712 77.4041 149.008 77.9081 149.848 78.0521C149.32 82.6361 148.264 83.8841 143.968 83.8841H136.192C131.704 83.8841 130.24 83.0201 130.24 79.5881V70.9481H143.92V66.1961H129.952V63.2681H146.968V75.1241H143.92V73.7561H133.216V79.5401C133.216 80.8121 133.648 81.0281 136.216 81.0281Z" fill="#E5005A"/>
<path d="M107.656 80.4521H119.056V77.9561H107.656V80.4521ZM119.056 72.8441H107.656V75.3161H119.056V72.8441ZM119.056 67.7321H107.656V70.2041H119.056V67.7321ZM113.872 64.9961H122.104V84.2681H119.056V83.0921H107.656V84.2921H104.752V64.9961H110.896C111.16 63.9641 111.424 62.8121 111.544 61.8521L115 62.2361C114.64 63.1961 114.256 64.1321 113.872 64.9961Z" fill="#E5005A"/>
<path d="M98.3849 73.7799C98.3849 78.8439 95.2889 82.4199 89.2409 83.3559L87.4409 80.4999C88.3529 80.4039 89.0249 80.2599 89.6729 80.1159C92.7449 79.3959 95.1449 77.1879 95.1449 73.6839C95.1449 70.3719 93.3449 67.8999 90.1049 67.3479C89.7689 69.3879 89.3609 71.5959 88.6649 73.8519C87.2249 78.6999 85.1609 81.6759 82.5449 81.6759C79.8809 81.6759 77.6729 78.7479 77.6729 74.6919C77.6729 69.1479 82.4729 64.4199 88.6889 64.4199C94.6409 64.4199 98.3849 68.5479 98.3849 73.7799ZM80.7449 74.3799C80.7449 76.8039 81.7049 77.9799 82.6409 77.9799C83.6489 77.9799 84.5849 76.4679 85.5689 73.2279C86.1209 71.4519 86.5769 69.4119 86.8409 67.4199C82.8809 68.2359 80.7449 71.7399 80.7449 74.3799Z" fill="#E5005A"/>
<path d="M71.0481 68.9081V66.9401H62.3601V68.9081H71.0481ZM59.8161 64.5161H65.1681V61.9961H67.9281V64.5161H73.6641V69.2201H71.8161V71.3561H61.5921V69.2441H59.8161V64.5161ZM58.1121 62.8121L59.9841 63.8921C59.3601 65.9321 58.5681 68.5481 57.8961 70.4201C59.3361 72.2441 59.6481 73.8521 59.6481 75.2441C59.6481 76.7801 59.3361 77.7881 58.5921 78.3161C58.2081 78.5801 57.7521 78.7241 57.2001 78.8201C56.7921 78.8681 56.2161 78.8921 55.6641 78.8681C55.6401 78.1961 55.4241 77.1161 55.0401 76.4441C55.4721 76.4681 55.7841 76.4681 56.0961 76.4681C56.3601 76.4441 56.5761 76.3961 56.7681 76.2521C57.0321 76.0601 57.1281 75.5801 57.1281 74.9081C57.1281 73.8041 56.8161 72.3161 55.4721 70.7081C55.9521 69.1961 56.4561 67.1081 56.8401 65.4761H54.9681V84.3161H52.4961V62.9321H57.7041L58.1121 62.8121ZM70.3281 81.5801H71.1201C71.5041 81.5801 71.5761 81.2201 71.6241 78.7721C72.1521 79.2041 73.3041 79.6601 74.0001 79.8281C73.7601 83.1881 73.1361 84.1001 71.4321 84.1001H69.8241C67.7361 84.1001 67.2801 83.2841 67.2801 80.8361V75.6281H65.5041C65.2161 79.9721 64.2081 82.7321 59.5281 84.2921C59.2881 83.6201 58.5921 82.5641 58.0161 82.0601C61.8561 80.9081 62.5761 78.9641 62.8161 75.6281H60.1761V73.0841H73.5441V75.6281H69.9441V80.8121C69.9441 81.5081 69.9921 81.5801 70.3281 81.5801Z" fill="#E5005A"/>
<path d="M30.824 63.2441H39.128C39.128 67.7801 39.776 76.5401 48.608 81.7481C47.984 82.2521 46.808 83.5001 46.304 84.2441C41.336 81.2441 38.792 76.7081 37.472 72.4121C35.672 77.7881 32.792 81.7721 28.616 84.2681C28.088 83.6681 26.744 82.4921 26 81.9401C30.992 79.4201 33.848 74.7881 35.168 68.4761L36.632 68.7401C36.464 67.8281 36.368 66.9641 36.296 66.1481H30.824V63.2441Z" fill="#E5005A"/>
</svg>
