<svg width="370" height="180" viewBox="0 0 370 180" fill="none" xmlns="http://www.w3.org/2000/svg">
<rect width="370" height="180" fill="white"/>
<mask id="mask0_1523_25655" style="mask-type:alpha" maskUnits="userSpaceOnUse" x="0" y="0" width="370" height="180">
<rect x="2" y="2" width="366" height="176" rx="8" fill="white" stroke="#FAF1F5" stroke-width="4"/>
</mask>
<g mask="url(#mask0_1523_25655)">
<path fill-rule="evenodd" clip-rule="evenodd" d="M332.443 -5.01438C332.443 13.2031 318.026 49.7653 300.242 49.7653C282.458 49.7653 268.041 13.2031 268.041 -5.01438C268.041 -23.2318 282.458 -38 300.242 -38C318.026 -38 332.443 -23.2318 332.443 -5.01438ZM366.785 110.986C356.618 96.0394 324.383 74.4858 309.792 84.9014C295.201 95.3169 303.78 133.758 313.947 148.704C324.115 163.65 344.186 167.323 358.777 156.907C373.368 146.492 376.953 125.932 366.785 110.986ZM316.05 63.6223C320.543 81.2488 358.72 86.3009 375.927 81.6985C393.134 77.096 403.441 59.0759 398.948 41.4494C394.456 23.8229 376.864 13.2648 359.657 17.8672C342.45 22.4697 311.557 45.9958 316.05 63.6223ZM221.419 77.0826C238.361 82.6216 276.747 79.6693 282.155 62.3144C287.562 44.9594 257.943 19.7736 241 14.2346C224.058 8.69563 205.94 18.2744 200.533 35.6293C195.126 52.9843 204.477 71.5436 221.419 77.0826ZM283.328 82.6362C298.707 91.7839 293.252 130.818 284.322 146.572C275.392 162.327 255.685 167.682 240.306 158.534C224.926 149.387 219.698 129.2 228.628 113.445C237.558 97.6913 267.948 73.4884 283.328 82.6362Z" fill="#FAF1F5"/>
</g>
<path d="M39.536 78.608H48.848V81.416H27.272V78.608H36.536V73.784H30.032V71.024H36.536V66.8H31.568C30.872 68.12 30.128 69.344 29.336 70.28C28.76 69.824 27.488 68.96 26.768 68.576C28.64 66.56 30.2 63.248 31.016 59.984L33.968 60.632C33.632 61.784 33.248 62.912 32.84 64.016H36.536V59.696H39.536V64.016H47.624V66.8H39.536V71.024H46.712V73.784H39.536V78.608ZM59.552 62.384L57.848 64.688C56.912 63.968 54.872 62.84 53.48 62.048L55.088 59.984C56.432 60.656 58.52 61.712 59.552 62.384ZM58.4 68.864L56.816 71.24C55.832 70.544 53.768 69.416 52.352 68.648L53.888 66.536C55.208 67.184 57.344 68.216 58.4 68.864ZM55.088 81.824L52.688 79.88C53.96 78.08 55.808 75.104 57.248 72.32L59.336 74.24C58.064 76.76 56.552 79.496 55.088 81.824ZM70.664 78.512V74.984H63.464V78.512H70.664ZM74.576 69.368H68.48V72.392H73.376V81.968H70.664V81.104H63.464V82.088H60.872V72.392H65.768V69.368H59.384V66.632H65.768V63.824C64.208 64.064 62.6 64.232 61.112 64.376C60.992 63.68 60.608 62.576 60.272 61.928C64.352 61.52 68.864 60.728 71.504 59.672L73.688 61.928C72.152 62.504 70.352 62.984 68.48 63.344V66.632H74.576V69.368ZM84.008 66.104L84.44 68.144C82.52 68.984 80.48 69.824 78.776 70.52L77.792 68.192C79.352 67.712 81.704 66.896 84.008 66.104ZM94.112 75.584V74.192H83.84V75.584H94.112ZM83.84 79.112H94.112V77.72H83.84V79.112ZM87.848 69.92L90.416 70.28C90.128 70.904 89.792 71.504 89.48 72.032H97.088V82.136H94.112V81.272H83.84V82.136H81.008V72.032H86.648C86.84 71.576 87.008 71.072 87.152 70.64L87.08 70.664C86.336 70.976 85.28 70.976 83.816 70.976C83.72 70.352 83.384 69.512 83.096 68.96C83.912 68.984 84.848 68.984 85.112 68.984C85.376 68.984 85.472 68.888 85.472 68.648V62.936H80.84C81.8 63.464 82.928 64.184 83.504 64.736L82.064 66.56C81.464 65.888 80.12 64.952 79.04 64.376L80.24 62.936H78.416V60.728H88.04V68.672C88.04 69.2 87.992 69.608 87.848 69.92ZM98.888 60.728V68.6C98.888 69.752 98.648 70.328 97.832 70.688C97.04 71.048 95.888 71.072 94.328 71.048C94.208 70.376 93.872 69.488 93.56 68.888C94.472 68.936 95.528 68.936 95.816 68.936C96.128 68.912 96.224 68.84 96.224 68.576V62.936H91.64C92.624 63.44 93.728 64.136 94.304 64.64L93.008 66.368C93.728 66.104 94.472 65.864 95.216 65.6L95.648 67.64C93.584 68.432 91.376 69.248 89.6 69.896L88.64 67.76C89.744 67.424 91.208 66.968 92.768 66.44C92.096 65.768 90.776 64.904 89.744 64.352L90.896 62.936H89.336V60.728H98.888ZM103.856 64.4L105.608 64.616C105.656 66.848 105.344 69.632 104.552 71.408L102.848 70.664C103.568 69.152 103.856 66.536 103.856 64.4ZM114.392 75.536V76.472H121.016V75.536H114.392ZM114.392 72.896V73.856H121.016V72.896H114.392ZM114.392 70.28V71.216H121.016V70.28H114.392ZM123.824 78.296H121.544C123.032 79.064 124.568 79.904 125.528 80.528L123.32 82.112C122.288 81.344 120.368 80.168 118.76 79.304L119.888 78.296H115.232L116.936 78.872C115.568 80.24 113.312 81.464 111.344 82.208C110.936 81.656 110 80.648 109.448 80.168C111.104 79.736 112.856 79.064 113.984 78.296H111.728V68.48H123.824V78.296ZM118.664 65.888H120.848L120.92 64.904H118.76L118.664 65.888ZM114.512 64.904L114.416 65.888H116.312C116.336 65.576 116.384 65.24 116.408 64.904H114.512ZM116.6 62.264H114.752L114.656 63.2H116.552L116.6 62.264ZM121.016 63.2L121.088 62.264H119L118.928 63.2H121.016ZM123.584 62.84H125.528V65.24H123.44L123.272 67.712H111.8L112.04 65.24H110.168C110.528 66.464 110.768 67.736 110.792 68.624L109.112 69.2C109.064 68.144 108.776 66.512 108.368 65.096V82.064H105.8V59.672H108.368V64.16L109.664 63.752C109.808 64.16 109.952 64.568 110.096 65V62.84H112.256L112.472 60.44H123.752L123.584 62.84ZM147.32 76.928V72.896H144.08C144.032 73.208 143.984 73.544 143.912 73.856C145.064 74.792 146.456 76.04 147.32 76.928ZM138.824 72.896V76.88C140.72 75.848 141.368 74.336 141.584 72.896H138.824ZM135.776 68.768V66.368H150.704V68.768H144.176V70.496H150.056V79.304C150.056 80.528 149.816 81.2 148.952 81.608C148.136 82.016 147.032 82.088 145.52 82.064C145.4 81.32 144.992 80.264 144.608 79.592C145.568 79.64 146.624 79.64 146.912 79.616C147.224 79.616 147.32 79.52 147.32 79.256V77.456L145.808 78.824C145.232 78.08 144.128 76.976 143.048 76.016C142.4 77.12 141.392 78.128 139.904 78.944C139.664 78.584 139.256 78.056 138.824 77.648V82.088H136.28V70.496H141.68V68.768H135.776ZM142.424 62.216H150.848V64.784H134.936V69.368C134.936 73.208 134.384 78.704 131.072 81.992C130.664 81.464 129.56 80.432 129.032 80.096C130.568 78.512 131.384 76.52 131.792 74.528C130.904 75.056 130.016 75.584 129.152 76.064L128.336 73.376C129.32 72.944 130.712 72.296 132.152 71.576C132.2 70.808 132.2 70.064 132.2 69.344V68.672L130.16 69.776C129.944 68.576 129.248 66.68 128.528 65.192L130.592 64.184C131.264 65.36 131.888 66.824 132.2 67.976V62.216H139.4V59.696H142.424V62.216ZM163.858 63.224C166.81 63.632 171.586 63.512 174.178 63.2V66.296C171.226 66.56 166.882 66.584 163.858 66.296V63.224ZM165.778 73.472C165.586 74.264 165.49 74.84 165.49 75.488C165.49 76.544 166.402 77.192 168.85 77.192C170.986 77.192 172.762 77 174.874 76.568L174.922 79.808C173.362 80.096 171.442 80.264 168.73 80.264C164.602 80.264 162.61 78.8 162.61 76.328C162.61 75.392 162.754 74.432 163.018 73.208L165.778 73.472ZM160.162 61.616C159.97 62.12 159.658 63.32 159.562 63.752C159.25 65.36 158.41 70.16 158.41 72.56C158.41 73.016 158.434 73.64 158.506 74.12C158.866 73.304 159.25 72.464 159.586 71.672L161.074 72.848C160.402 74.84 159.61 77.456 159.346 78.728C159.274 79.088 159.226 79.616 159.226 79.856C159.226 80.12 159.25 80.504 159.274 80.84L156.49 81.032C156.01 79.376 155.554 76.448 155.554 73.184C155.554 69.584 156.298 65.528 156.562 63.68C156.634 63.008 156.778 62.096 156.802 61.328L160.162 61.616ZM182.85 76.928C182.85 78.104 184.074 78.536 185.754 78.536C187.29 78.536 187.842 77.864 187.842 76.256C187.842 76.04 187.842 75.752 187.818 75.416C187.194 75.32 186.522 75.248 185.85 75.248C183.978 75.248 182.85 75.896 182.85 76.928ZM190.89 60.752C190.77 61.448 190.698 62.624 190.674 63.56C190.65 64.112 190.65 64.688 190.65 65.312C192.57 65.288 195.378 65.192 197.37 64.952L197.466 67.808C195.45 67.976 192.618 68.096 190.674 68.144C190.722 69.584 190.818 71.504 190.938 73.28C193.986 74.168 196.578 75.848 198.234 77.384L196.386 80.24C195.018 78.872 193.218 77.456 191.082 76.472C191.106 76.784 191.106 77.072 191.106 77.312C191.106 79.448 190.026 81.464 185.994 81.464C182.562 81.464 179.754 80.336 179.754 77.072C179.754 74.576 181.89 72.584 186.306 72.584C186.786 72.584 187.266 72.608 187.722 72.656C187.65 70.784 187.554 68.744 187.554 67.472C187.554 66.008 187.554 64.592 187.53 63.56C187.482 62.384 187.41 61.352 187.266 60.752H190.89ZM208.682 77.168C208.682 78.056 209.666 78.656 211.106 78.656C211.61 78.656 212.066 78.632 212.498 78.584C212.354 77.024 211.466 76.016 210.17 76.016C209.258 76.016 208.682 76.568 208.682 77.168ZM204.602 61.712C205.274 61.808 206.114 61.832 206.786 61.832C208.058 61.832 213.194 61.736 214.562 61.616C215.546 61.52 216.098 61.448 216.386 61.352L217.946 63.488C217.394 63.848 216.818 64.184 216.266 64.592C214.97 65.504 212.45 67.616 210.938 68.816C211.73 68.624 212.45 68.552 213.218 68.552C217.298 68.552 220.394 71.096 220.394 74.6C220.394 78.392 217.514 81.392 211.706 81.392C208.37 81.392 205.85 79.856 205.85 77.456C205.85 75.512 207.602 73.712 210.146 73.712C213.122 73.712 214.922 75.536 215.258 77.816C216.578 77.12 217.25 76.016 217.25 74.552C217.25 72.392 215.09 70.928 212.258 70.928C208.586 70.928 206.186 72.872 203.618 75.8L201.434 73.544C203.138 72.176 206.042 69.728 207.458 68.552C208.802 67.448 211.298 65.432 212.474 64.4C211.25 64.424 207.938 64.568 206.666 64.64C206.018 64.688 205.25 64.76 204.698 64.832L204.602 61.712ZM31.544 101.016H39.848C39.848 105.552 40.496 114.312 49.328 119.52C48.704 120.024 47.528 121.272 47.024 122.016C42.056 119.016 39.512 114.48 38.192 110.184C36.392 115.56 33.512 119.544 29.336 122.04C28.808 121.44 27.464 120.264 26.72 119.712C31.712 117.192 34.568 112.56 35.888 106.248L37.352 106.512C37.184 105.6 37.088 104.736 37.016 103.92H31.544V101.016ZM71.768 106.68V104.712H63.08V106.68H71.768ZM60.536 102.288H65.888V99.768H68.648V102.288H74.384V106.992H72.536V109.128H62.312V107.016H60.536V102.288ZM58.832 100.584L60.704 101.664C60.08 103.704 59.288 106.32 58.616 108.192C60.056 110.016 60.368 111.624 60.368 113.016C60.368 114.552 60.056 115.56 59.312 116.088C58.928 116.352 58.472 116.496 57.92 116.592C57.512 116.64 56.936 116.664 56.384 116.64C56.36 115.968 56.144 114.888 55.76 114.216C56.192 114.24 56.504 114.24 56.816 114.24C57.08 114.216 57.296 114.168 57.488 114.024C57.752 113.832 57.848 113.352 57.848 112.68C57.848 111.576 57.536 110.088 56.192 108.48C56.672 106.968 57.176 104.88 57.56 103.248H55.688V122.088H53.216V100.704H58.424L58.832 100.584ZM71.048 119.352H71.84C72.224 119.352 72.296 118.992 72.344 116.544C72.872 116.976 74.024 117.432 74.72 117.6C74.48 120.96 73.856 121.872 72.152 121.872H70.544C68.456 121.872 68 121.056 68 118.608V113.4H66.224C65.936 117.744 64.928 120.504 60.248 122.064C60.008 121.392 59.312 120.336 58.736 119.832C62.576 118.68 63.296 116.736 63.536 113.4H60.896V110.856H74.264V113.4H70.664V118.584C70.664 119.28 70.712 119.352 71.048 119.352ZM99.1046 111.552C99.1046 116.616 96.0086 120.192 89.9606 121.128L88.1606 118.272C89.0726 118.176 89.7446 118.032 90.3926 117.888C93.4646 117.168 95.8646 114.96 95.8646 111.456C95.8646 108.144 94.0646 105.672 90.8246 105.12C90.4886 107.16 90.0806 109.368 89.3846 111.624C87.9446 116.472 85.8806 119.448 83.2646 119.448C80.6006 119.448 78.3926 116.52 78.3926 112.464C78.3926 106.92 83.1926 102.192 89.4086 102.192C95.3606 102.192 99.1046 106.32 99.1046 111.552ZM81.4646 112.152C81.4646 114.576 82.4246 115.752 83.3606 115.752C84.3686 115.752 85.3046 114.24 86.2886 111C86.8406 109.224 87.2966 107.184 87.5606 105.192C83.6006 106.008 81.4646 109.512 81.4646 112.152ZM106.576 106.176H112.432V104.808H115.288V106.176H121.264V104.28H106.576V106.176ZM124.552 116.208H116.68C118.384 118.128 121.072 119.232 124.864 119.64C124.288 120.24 123.544 121.368 123.184 122.136C118.624 121.416 115.768 119.712 113.872 116.736C112.456 118.872 109.792 120.768 104.896 122.088C104.56 121.464 103.744 120.384 103.12 119.784C107.152 118.872 109.456 117.624 110.776 116.208H103.552V113.736H112.168C112.288 113.232 112.36 112.728 112.408 112.224H106.264V109.92H112.432V108.48H105.88V106.896H103.744V101.784H112.504V99.696H115.432V101.784H124.216V106.896H122.296V108.48H115.288V109.92H121.816V112.224H115.264C115.24 112.728 115.192 113.232 115.072 113.736H124.552V116.208ZM147.136 107.448H143.704C140.968 107.448 140.32 106.752 140.32 104.448V99.84H142.96V101.784C144.592 101.352 146.224 100.8 147.256 100.248L149.224 101.952C147.424 102.72 145.048 103.344 142.96 103.776V104.448C142.96 105.096 143.08 105.192 144.04 105.192H146.872C147.592 105.192 147.76 104.976 147.832 103.608C148.36 103.968 149.416 104.352 150.136 104.472C149.872 106.824 149.128 107.448 147.136 107.448ZM147.256 115.56H143.728C140.968 115.56 140.32 114.84 140.32 112.512V107.664H142.96V109.848C144.688 109.392 146.416 108.816 147.52 108.216L149.488 109.92C147.64 110.76 145.168 111.432 142.96 111.864V112.488C142.96 113.208 143.08 113.28 144.064 113.28H146.992C147.736 113.28 147.88 113.04 147.976 111.552C148.504 111.936 149.584 112.32 150.28 112.44C150.016 114.888 149.272 115.56 147.256 115.56ZM128.728 105L128.608 102.792L130.456 102.768C131.056 101.712 131.656 100.488 132.016 99.552L134.824 100.224C134.296 101.064 133.72 101.928 133.168 102.696L136.12 102.624C135.808 102.24 135.472 101.856 135.16 101.52L137.152 100.464C138.352 101.64 139.672 103.296 140.2 104.448L138.064 105.648C137.944 105.336 137.752 105 137.56 104.64C134.368 104.808 131.128 104.904 128.728 105ZM130.456 121.656L128.224 120.096C129.76 119.208 130.936 117.744 131.488 116.208L133.912 117.12C133.264 118.896 132.208 120.6 130.456 121.656ZM132.376 110.952H136.264V110.064H132.376V110.952ZM136.264 107.688H132.376V108.528H136.264V107.688ZM136.888 116.04L137.8 115.2C137.104 115.488 136.144 115.512 134.92 115.512C134.8 114.888 134.464 114.072 134.176 113.568C134.896 113.592 135.712 113.592 135.904 113.592C136.168 113.568 136.264 113.496 136.264 113.256V112.536H132.376V115.56H129.832V105.84H138.832V113.256C138.832 113.784 138.784 114.168 138.664 114.48C139.912 115.08 141.448 116.064 142.216 116.88L140.368 118.608C139.696 117.792 138.184 116.688 136.888 116.04ZM138.64 119.568H141.928C142.792 119.568 142.96 119.328 143.056 117.744C143.608 118.152 144.736 118.512 145.456 118.656C145.168 121.2 144.4 121.848 142.24 121.848H138.304C135.328 121.848 134.584 121.152 134.584 118.896V116.472H137.368V118.872C137.368 119.496 137.584 119.568 138.64 119.568ZM144.352 117.24L146.608 115.992C148.192 117.192 149.92 118.92 150.64 120.312L148.168 121.704C147.568 120.408 145.912 118.536 144.352 117.24Z" fill="#E5005A"/>
</svg>
