<svg width="370" height="180" viewBox="0 0 370 180" fill="none" xmlns="http://www.w3.org/2000/svg">
<path d="M0 0H370V180H0V0Z" fill="white"/>
<mask id="mask0_1827_25362" style="mask-type:alpha" maskUnits="userSpaceOnUse" x="0" y="0" width="370" height="180">
<path d="M0 0H370V180H0V0Z" fill="white"/>
</mask>
<g mask="url(#mask0_1827_25362)">
<path fill-rule="evenodd" clip-rule="evenodd" d="M332.443 -5.01438C332.443 13.2031 318.026 49.7653 300.242 49.7653C282.458 49.7653 268.041 13.2031 268.041 -5.01438C268.041 -23.2318 282.458 -38 300.242 -38C318.026 -38 332.443 -23.2318 332.443 -5.01438ZM366.785 110.986C356.618 96.0394 324.383 74.4858 309.792 84.9014C295.201 95.3169 303.78 133.758 313.947 148.704C324.115 163.65 344.186 167.323 358.777 156.907C373.368 146.492 376.953 125.932 366.785 110.986ZM316.05 63.6223C320.543 81.2488 358.72 86.3009 375.927 81.6985C393.134 77.096 403.441 59.0759 398.948 41.4494C394.456 23.8229 376.864 13.2648 359.657 17.8672C342.45 22.4697 311.557 45.9958 316.05 63.6223ZM221.419 77.0826C238.361 82.6216 276.747 79.6693 282.155 62.3144C287.562 44.9594 257.943 19.7736 241 14.2346C224.058 8.69563 205.94 18.2744 200.533 35.6293C195.126 52.9843 204.477 71.5436 221.419 77.0826ZM283.328 82.6362C298.707 91.7839 293.252 130.818 284.322 146.572C275.392 162.327 255.685 167.682 240.306 158.534C224.926 149.387 219.698 129.2 228.628 113.445C237.558 97.6913 267.948 73.4884 283.328 82.6362Z" fill="#FAF1F5"/>
</g>
<path d="M146.416 106.544H142.984C140.248 106.544 139.6 105.848 139.6 103.544V98.936H142.24V100.88C143.872 100.448 145.504 99.896 146.536 99.344L148.504 101.048C146.704 101.816 144.328 102.44 142.24 102.872V103.544C142.24 104.192 142.36 104.288 143.32 104.288H146.152C146.872 104.288 147.04 104.072 147.112 102.704C147.64 103.064 148.696 103.448 149.416 103.568C149.152 105.92 148.408 106.544 146.416 106.544ZM146.536 114.656H143.008C140.248 114.656 139.6 113.936 139.6 111.608V106.76H142.24V108.944C143.968 108.488 145.696 107.912 146.8 107.312L148.768 109.016C146.92 109.856 144.448 110.528 142.24 110.96V111.584C142.24 112.304 142.36 112.376 143.344 112.376H146.272C147.016 112.376 147.16 112.136 147.256 110.648C147.784 111.032 148.864 111.416 149.56 111.536C149.296 113.984 148.552 114.656 146.536 114.656ZM128.008 104.096L127.888 101.888L129.736 101.864C130.336 100.808 130.936 99.584 131.296 98.6479L134.104 99.32C133.576 100.16 133 101.024 132.448 101.792L135.4 101.72C135.088 101.336 134.752 100.952 134.44 100.616L136.432 99.56C137.632 100.736 138.952 102.392 139.48 103.544L137.344 104.744C137.224 104.432 137.032 104.096 136.84 103.736C133.648 103.904 130.408 104 128.008 104.096ZM129.736 120.752L127.504 119.192C129.04 118.304 130.216 116.84 130.768 115.304L133.192 116.216C132.544 117.992 131.488 119.696 129.736 120.752ZM131.656 110.048H135.544V109.16H131.656V110.048ZM135.544 106.784H131.656V107.624H135.544V106.784ZM136.168 115.136L137.08 114.296C136.384 114.584 135.424 114.608 134.2 114.608C134.08 113.984 133.744 113.168 133.456 112.664C134.176 112.688 134.992 112.688 135.184 112.688C135.448 112.664 135.544 112.592 135.544 112.352V111.632H131.656V114.656H129.112V104.936H138.112V112.352C138.112 112.88 138.064 113.264 137.944 113.576C139.192 114.176 140.728 115.16 141.496 115.976L139.648 117.704C138.976 116.888 137.464 115.784 136.168 115.136ZM137.92 118.664H141.208C142.072 118.664 142.24 118.424 142.336 116.84C142.888 117.248 144.016 117.608 144.736 117.752C144.448 120.296 143.68 120.944 141.52 120.944H137.584C134.608 120.944 133.864 120.248 133.864 117.992V115.568H136.648V117.968C136.648 118.592 136.864 118.664 137.92 118.664ZM143.632 116.336L145.888 115.088C147.472 116.288 149.2 118.016 149.92 119.408L147.448 120.8C146.848 119.504 145.192 117.632 143.632 116.336Z" fill="#E5005A"/>
<path d="M105.855 105.272H111.711V103.904H114.567V105.272H120.543V103.376H105.855V105.272ZM123.831 115.304H115.959C117.663 117.224 120.351 118.328 124.143 118.736C123.567 119.336 122.823 120.464 122.463 121.232C117.903 120.512 115.047 118.808 113.151 115.832C111.735 117.968 109.071 119.864 104.175 121.184C103.839 120.56 103.023 119.48 102.399 118.88C106.431 117.968 108.735 116.72 110.055 115.304H102.831V112.832H111.447C111.567 112.328 111.639 111.824 111.687 111.32H105.543V109.016H111.711V107.576H105.159V105.992H103.023V100.88H111.783V98.792H114.711V100.88H123.495V105.992H121.575V107.576H114.567V109.016H121.095V111.32H114.543C114.519 111.824 114.471 112.328 114.351 112.832H123.831V115.304Z" fill="#E5005A"/>
<path d="M98.3849 110.648C98.3849 115.712 95.2889 119.288 89.2409 120.224L87.4409 117.368C88.3529 117.272 89.0249 117.128 89.6729 116.984C92.7449 116.264 95.1449 114.056 95.1449 110.552C95.1449 107.24 93.3449 104.768 90.1049 104.216C89.7689 106.256 89.3609 108.464 88.6649 110.72C87.2249 115.568 85.1609 118.544 82.5449 118.544C79.8809 118.544 77.6729 115.616 77.6729 111.56C77.6729 106.016 82.4729 101.288 88.6889 101.288C94.6409 101.288 98.3849 105.416 98.3849 110.648ZM80.7449 111.248C80.7449 113.672 81.7049 114.848 82.6409 114.848C83.6489 114.848 84.5849 113.336 85.5689 110.096C86.1209 108.32 86.5769 106.28 86.8409 104.288C82.8809 105.104 80.7449 108.608 80.7449 111.248Z" fill="#E5005A"/>
<path d="M71.0481 105.776V103.808H62.3601V105.776H71.0481ZM59.8161 101.384H65.1681V98.8643H67.9281V101.384H73.6641V106.088H71.8161V108.224H61.5921V106.112H59.8161V101.384ZM58.1121 99.6803L59.9841 100.76C59.3601 102.8 58.5681 105.416 57.8961 107.288C59.3361 109.112 59.6481 110.72 59.6481 112.112C59.6481 113.648 59.3361 114.656 58.5921 115.184C58.2081 115.448 57.7521 115.592 57.2001 115.688C56.7921 115.736 56.2161 115.76 55.6641 115.736C55.6401 115.064 55.4241 113.984 55.0401 113.312C55.4721 113.336 55.7841 113.336 56.0961 113.336C56.3601 113.312 56.5761 113.264 56.7681 113.12C57.0321 112.928 57.1281 112.448 57.1281 111.776C57.1281 110.672 56.8161 109.184 55.4721 107.576C55.9521 106.064 56.4561 103.976 56.8401 102.344H54.9681V121.184H52.4961V99.8003H57.7041L58.1121 99.6803ZM70.3281 118.448H71.1201C71.5041 118.448 71.5761 118.088 71.6241 115.64C72.1521 116.072 73.3041 116.528 74.0001 116.696C73.7601 120.056 73.1361 120.968 71.4321 120.968H69.8241C67.7361 120.968 67.2801 120.152 67.2801 117.704V112.496H65.5041C65.2161 116.84 64.2081 119.6 59.5281 121.16C59.2881 120.488 58.5921 119.432 58.0161 118.928C61.8561 117.776 62.5761 115.832 62.8161 112.496H60.1761V109.952H73.5441V112.496H69.9441V117.68C69.9441 118.376 69.9921 118.448 70.3281 118.448Z" fill="#E5005A"/>
<path d="M30.824 100.112H39.128C39.128 104.648 39.776 113.408 48.608 118.616C47.984 119.12 46.808 120.368 46.304 121.112C41.336 118.112 38.792 113.576 37.472 109.28C35.672 114.656 32.792 118.64 28.616 121.136C28.088 120.536 26.744 119.36 26 118.808C30.992 116.288 33.848 111.656 35.168 105.344L36.632 105.608C36.464 104.696 36.368 103.832 36.296 103.016H30.824V100.112Z" fill="#E5005A"/>
<path d="M207.962 76.2642C207.962 77.1522 208.946 77.7522 210.386 77.7522C210.89 77.7522 211.346 77.7282 211.778 77.6802C211.634 76.1202 210.746 75.1122 209.45 75.1122C208.538 75.1122 207.962 75.6642 207.962 76.2642ZM203.882 60.8082C204.554 60.9042 205.394 60.9282 206.066 60.9282C207.338 60.9282 212.474 60.8322 213.842 60.7122C214.826 60.6162 215.378 60.5442 215.666 60.4482L217.226 62.5842C216.674 62.9442 216.098 63.2802 215.546 63.6882C214.25 64.6002 211.73 66.7122 210.218 67.9122C211.01 67.7202 211.73 67.6482 212.498 67.6482C216.578 67.6482 219.674 70.1922 219.674 73.6962C219.674 77.4882 216.794 80.4882 210.986 80.4882C207.65 80.4882 205.13 78.9522 205.13 76.5522C205.13 74.6082 206.882 72.8082 209.426 72.8082C212.402 72.8082 214.202 74.6322 214.538 76.9122C215.858 76.2162 216.53 75.1122 216.53 73.6482C216.53 71.4882 214.37 70.0242 211.538 70.0242C207.866 70.0242 205.466 71.9682 202.898 74.8962L200.714 72.6402C202.418 71.2722 205.322 68.8242 206.738 67.6482C208.082 66.5442 210.578 64.5282 211.754 63.4962C210.53 63.5202 207.218 63.6642 205.946 63.7362C205.298 63.7842 204.53 63.8562 203.978 63.9282L203.882 60.8082Z" fill="#E5005A"/>
<path d="M182.13 76.0241C182.13 77.2001 183.354 77.6321 185.034 77.6321C186.57 77.6321 187.122 76.9601 187.122 75.3521C187.122 75.1361 187.122 74.8481 187.098 74.5121C186.474 74.4161 185.802 74.3441 185.13 74.3441C183.258 74.3441 182.13 74.9921 182.13 76.0241ZM190.17 59.8481C190.05 60.5441 189.978 61.7201 189.954 62.6561C189.93 63.2081 189.93 63.7841 189.93 64.4081C191.85 64.3841 194.658 64.2881 196.65 64.0481L196.746 66.9041C194.73 67.0721 191.898 67.1921 189.954 67.2401C190.002 68.6801 190.098 70.6001 190.218 72.3761C193.266 73.2641 195.858 74.9441 197.514 76.4801L195.666 79.3361C194.298 77.9681 192.498 76.5521 190.362 75.5681C190.386 75.8801 190.386 76.1681 190.386 76.4081C190.386 78.5441 189.306 80.5601 185.274 80.5601C181.842 80.5601 179.034 79.4321 179.034 76.1681C179.034 73.6721 181.17 71.6801 185.586 71.6801C186.066 71.6801 186.546 71.7041 187.002 71.7521C186.93 69.8801 186.834 67.8401 186.834 66.5681C186.834 65.1041 186.834 63.6881 186.81 62.6561C186.762 61.4801 186.69 60.4481 186.546 59.8481H190.17Z" fill="#E5005A"/>
<path d="M163.138 62.3198C166.09 62.7278 170.866 62.6078 173.458 62.2958V65.3918C170.506 65.6558 166.162 65.6798 163.138 65.3918V62.3198ZM165.058 72.5678C164.866 73.3598 164.77 73.9358 164.77 74.5838C164.77 75.6398 165.682 76.2878 168.13 76.2878C170.266 76.2878 172.042 76.0958 174.154 75.6638L174.202 78.9038C172.642 79.1918 170.722 79.3598 168.01 79.3598C163.882 79.3598 161.89 77.8958 161.89 75.4238C161.89 74.4878 162.034 73.5278 162.298 72.3038L165.058 72.5678ZM159.442 60.7118C159.25 61.2158 158.938 62.4158 158.842 62.8478C158.53 64.4558 157.69 69.2558 157.69 71.6558C157.69 72.1118 157.714 72.7358 157.786 73.2158C158.146 72.3998 158.53 71.5598 158.866 70.7678L160.354 71.9438C159.682 73.9358 158.89 76.5518 158.626 77.8238C158.554 78.1838 158.506 78.7118 158.506 78.9518C158.506 79.2158 158.53 79.5998 158.554 79.9358L155.77 80.1278C155.29 78.4718 154.834 75.5438 154.834 72.2798C154.834 68.6798 155.578 64.6238 155.842 62.7758C155.914 62.1038 156.058 61.1918 156.082 60.4238L159.442 60.7118Z" fill="#E5005A"/>
<path d="M146.6 76.024V71.992H143.36C143.312 72.304 143.264 72.64 143.192 72.952C144.344 73.888 145.736 75.136 146.6 76.024ZM138.104 71.992V75.976C140 74.944 140.648 73.432 140.864 71.992H138.104ZM135.056 67.864V65.464H149.984V67.864H143.456V69.592H149.336V78.4C149.336 79.624 149.096 80.296 148.232 80.704C147.416 81.112 146.312 81.184 144.8 81.16C144.68 80.416 144.272 79.36 143.888 78.688C144.848 78.736 145.904 78.736 146.192 78.712C146.504 78.712 146.6 78.616 146.6 78.352V76.552L145.088 77.92C144.512 77.176 143.408 76.072 142.328 75.112C141.68 76.216 140.672 77.224 139.184 78.04C138.944 77.68 138.536 77.152 138.104 76.744V81.184H135.56V69.592H140.96V67.864H135.056ZM141.704 61.312H150.128V63.88H134.216V68.464C134.216 72.304 133.664 77.8 130.352 81.088C129.944 80.56 128.84 79.528 128.312 79.192C129.848 77.608 130.664 75.616 131.072 73.624C130.184 74.152 129.296 74.68 128.432 75.16L127.616 72.472C128.6 72.04 129.992 71.392 131.432 70.672C131.48 69.904 131.48 69.16 131.48 68.44V67.768L129.44 68.872C129.224 67.672 128.528 65.776 127.808 64.288L129.872 63.28C130.544 64.456 131.168 65.92 131.48 67.072V61.312H138.68V58.792H141.704V61.312Z" fill="#E5005A"/>
<path d="M103.136 63.4961L104.888 63.7121C104.936 65.9441 104.624 68.7281 103.832 70.5041L102.128 69.7601C102.848 68.2481 103.136 65.6321 103.136 63.4961ZM113.672 74.6321V75.5681H120.296V74.6321H113.672ZM113.672 71.9921V72.9521H120.296V71.9921H113.672ZM113.672 69.3761V70.3121H120.296V69.3761H113.672ZM123.104 77.3921H120.824C122.312 78.1601 123.848 79.0001 124.808 79.6241L122.6 81.2081C121.568 80.4401 119.648 79.2641 118.04 78.4001L119.168 77.3921H114.512L116.216 77.9681C114.848 79.3361 112.592 80.5601 110.624 81.3041C110.216 80.7521 109.28 79.7441 108.728 79.2641C110.384 78.8321 112.136 78.1601 113.264 77.3921H111.008V67.5761H123.104V77.3921ZM117.944 64.9841H120.128L120.2 64.0001H118.04L117.944 64.9841ZM113.792 64.0001L113.696 64.9841H115.592C115.616 64.6721 115.664 64.3361 115.688 64.0001H113.792ZM115.88 61.3601H114.032L113.936 62.2961H115.832L115.88 61.3601ZM120.296 62.2961L120.368 61.3601H118.28L118.208 62.2961H120.296ZM122.864 61.9361H124.808V64.3361H122.72L122.552 66.8081H111.08L111.32 64.3361H109.448C109.808 65.5601 110.048 66.8321 110.072 67.7201L108.392 68.2961C108.344 67.2401 108.056 65.6081 107.648 64.1921V81.1601H105.08V58.7681H107.648V63.2561L108.944 62.8481C109.088 63.2561 109.232 63.6641 109.376 64.0961V61.9361H111.536L111.752 59.5361H123.032L122.864 61.9361Z" fill="#E5005A"/>
<path d="M83.2883 65.2002L83.7203 67.2402C81.8003 68.0802 79.7603 68.9202 78.0563 69.6162L77.0723 67.2882C78.6323 66.8082 80.9843 65.9922 83.2883 65.2002ZM93.3923 74.6802V73.2882H83.1203V74.6802H93.3923ZM83.1203 78.2082H93.3923V76.8162H83.1203V78.2082ZM87.1283 69.0162L89.6963 69.3762C89.4083 70.0002 89.0723 70.6002 88.7603 71.1282H96.3683V81.2322H93.3923V80.3682H83.1203V81.2322H80.2883V71.1282H85.9283C86.1203 70.6722 86.2883 70.1682 86.4323 69.7362L86.3603 69.7602C85.6163 70.0722 84.5603 70.0722 83.0963 70.0722C83.0003 69.4482 82.6643 68.6082 82.3763 68.0562C83.1923 68.0802 84.1283 68.0802 84.3923 68.0802C84.6563 68.0802 84.7523 67.9842 84.7523 67.7442V62.0322H80.1203C81.0803 62.5602 82.2083 63.2802 82.7843 63.8322L81.3443 65.6562C80.7443 64.9842 79.4003 64.0482 78.3203 63.4722L79.5203 62.0322H77.6963V59.8242H87.3203V67.7682C87.3203 68.2962 87.2723 68.7042 87.1283 69.0162ZM98.1683 59.8242V67.6962C98.1683 68.8482 97.9283 69.4242 97.1123 69.7842C96.3203 70.1442 95.1683 70.1682 93.6083 70.1442C93.4883 69.4722 93.1523 68.5842 92.8403 67.9842C93.7523 68.0322 94.8083 68.0322 95.0963 68.0322C95.4083 68.0082 95.5043 67.9362 95.5043 67.6722V62.0322H90.9203C91.9043 62.5362 93.0083 63.2322 93.5843 63.7362L92.2883 65.4642C93.0083 65.2002 93.7523 64.9602 94.4963 64.6962L94.9283 66.7362C92.8643 67.5282 90.6563 68.3442 88.8803 68.9922L87.9203 66.8562C89.0243 66.5202 90.4883 66.0642 92.0483 65.5362C91.3763 64.8642 90.0563 64.0002 89.0243 63.4482L90.1763 62.0322H88.6163V59.8242H98.1683Z" fill="#E5005A"/>
<path d="M58.8318 61.4801L57.1278 63.7841C56.1918 63.0641 54.1518 61.9361 52.7598 61.1441L54.3678 59.0801C55.7118 59.7521 57.7998 60.8081 58.8318 61.4801ZM57.6798 67.9601L56.0958 70.3361C55.1118 69.6401 53.0478 68.5121 51.6318 67.7441L53.1678 65.6321C54.4878 66.2801 56.6238 67.3121 57.6798 67.9601ZM54.3678 80.9201L51.9678 78.9761C53.2398 77.1761 55.0878 74.2001 56.5278 71.4161L58.6158 73.3361C57.3438 75.8561 55.8318 78.5921 54.3678 80.9201ZM69.9438 77.6081V74.0801H62.7438V77.6081H69.9438ZM73.8558 68.4641H67.7598V71.4881H72.6558V81.0641H69.9438V80.2001H62.7438V81.1841H60.1518V71.4881H65.0478V68.4641H58.6638V65.7281H65.0478V62.9201C63.4878 63.1601 61.8798 63.3281 60.3918 63.4721C60.2718 62.7761 59.8878 61.6721 59.5518 61.0241C63.6318 60.6161 68.1438 59.8241 70.7838 58.7681L72.9678 61.0241C71.4318 61.6001 69.6318 62.0801 67.7598 62.4401V65.7281H73.8558V68.4641Z" fill="#E5005A"/>
<path d="M38.8159 77.704H48.1279V80.512H26.5519V77.704H35.8159V72.88H29.3119V70.12H35.8159V65.896H30.8479C30.1519 67.216 29.4079 68.44 28.6159 69.376C28.0399 68.92 26.7679 68.056 26.0479 67.672C27.9199 65.656 29.4799 62.344 30.2959 59.08L33.2479 59.728C32.9119 60.88 32.5279 62.008 32.1199 63.112H35.8159V58.792H38.8159V63.112H46.9039V65.896H38.8159V70.12H45.9919V72.88H38.8159V77.704Z" fill="#E5005A"/>
</svg>
