<svg width="196" height="120" viewBox="0 0 196 120" fill="none" xmlns="http://www.w3.org/2000/svg">
<path d="M0 0H196V120H0V0Z" fill="white"/>
<mask id="mask0_1827_25424" style="mask-type:alpha" maskUnits="userSpaceOnUse" x="0" y="0" width="196" height="120">
<path d="M0 0H196V120H0V0Z" fill="white"/>
</mask>
<g mask="url(#mask0_1827_25424)">
<path fill-rule="evenodd" clip-rule="evenodd" d="M165.634 15.6622C165.634 27.6259 156.166 51.6369 144.487 51.6369C132.808 51.6369 123.34 27.6259 123.34 15.6622C123.34 3.6985 132.808 -6 144.487 -6C156.166 -6 165.634 3.6985 165.634 15.6622ZM188.187 91.8413C181.51 82.0258 160.341 67.8713 150.759 74.7113C141.177 81.5514 146.81 106.796 153.488 116.611C160.165 126.427 173.346 128.839 182.928 121.999C192.51 115.159 194.865 101.657 188.187 91.8413ZM154.869 60.737C157.819 72.3126 182.891 75.6304 194.191 72.6079C205.491 69.5855 212.26 57.7514 209.309 46.1757C206.359 34.6001 194.806 27.6664 183.506 30.6889C172.206 33.7114 151.918 49.1614 154.869 60.737ZM92.7229 69.5766C103.849 73.2142 129.058 71.2754 132.609 59.8781C136.16 48.4808 116.709 31.9409 105.582 28.3033C94.4561 24.6658 82.5579 30.9563 79.0069 42.3536C75.4558 53.7509 81.5967 65.9391 92.7229 69.5766ZM133.379 73.2237C143.479 79.2312 139.897 104.866 134.032 115.212C128.168 125.558 115.226 129.075 105.126 123.067C95.0261 117.06 91.5926 103.803 97.4572 93.4567C103.322 83.1107 123.279 67.2163 133.379 73.2237Z" fill="#FAF1F5"/>
</g>
<path d="M99.8042 71.1091H97.3732C95.4352 71.1091 94.9762 70.6161 94.9762 68.9841V65.7201H96.8462V67.0971C98.0022 66.7911 99.1582 66.4001 99.8892 66.0091L101.283 67.2161C100.008 67.7601 98.3252 68.2021 96.8462 68.5081V68.9841C96.8462 69.4431 96.9312 69.5111 97.6112 69.5111H99.6172C100.127 69.5111 100.246 69.3581 100.297 68.3891C100.671 68.6441 101.419 68.9161 101.929 69.0011C101.742 70.6671 101.215 71.1091 99.8042 71.1091ZM99.8892 76.8551H97.3902C95.4352 76.8551 94.9762 76.3451 94.9762 74.6961V71.2621H96.8462V72.8091C98.0702 72.4861 99.2942 72.0781 100.076 71.6531L101.47 72.8601C100.161 73.4551 98.4102 73.9311 96.8462 74.2371V74.6791C96.8462 75.1891 96.9312 75.2401 97.6282 75.2401H99.7022C100.229 75.2401 100.331 75.0701 100.399 74.0161C100.773 74.2881 101.538 74.5601 102.031 74.6451C101.844 76.3791 101.317 76.8551 99.8892 76.8551ZM86.7652 69.3751L86.6802 67.8111L87.9892 67.7941C88.4142 67.0461 88.8392 66.1791 89.0942 65.5161L91.0832 65.9921C90.7092 66.5871 90.3012 67.1991 89.9102 67.7431L92.0012 67.6921C91.7802 67.4201 91.5422 67.1481 91.3212 66.9101L92.7322 66.1621C93.5822 66.9951 94.5172 68.1681 94.8912 68.9841L93.3782 69.8341C93.2932 69.6131 93.1572 69.3751 93.0212 69.1201C90.7602 69.2391 88.4652 69.3071 86.7652 69.3751ZM87.9892 81.1731L86.4082 80.0681C87.4962 79.4391 88.3292 78.4021 88.7202 77.3141L90.4372 77.9601C89.9782 79.2181 89.2302 80.4251 87.9892 81.1731ZM89.3492 73.5911H92.1032V72.9621H89.3492V73.5911ZM92.1032 71.2791H89.3492V71.8741H92.1032V71.2791ZM92.5452 77.1951L93.1912 76.6001C92.6982 76.8041 92.0182 76.8211 91.1512 76.8211C91.0662 76.3791 90.8282 75.8011 90.6242 75.4441C91.1342 75.4611 91.7122 75.4611 91.8482 75.4611C92.0352 75.4441 92.1032 75.3931 92.1032 75.2231V74.7131H89.3492V76.8551H87.5472V69.9701H93.9222V75.2231C93.9222 75.5971 93.8882 75.8691 93.8032 76.0901C94.6872 76.5151 95.7752 77.2121 96.3192 77.7901L95.0102 79.0141C94.5342 78.4361 93.4632 77.6541 92.5452 77.1951ZM93.7862 79.6941H96.1152C96.7272 79.6941 96.8462 79.5241 96.9142 78.4021C97.3052 78.6911 98.1042 78.9461 98.6142 79.0481C98.4102 80.8501 97.8662 81.3091 96.3362 81.3091H93.5482C91.4402 81.3091 90.9132 80.8161 90.9132 79.2181V77.5011H92.8852V79.2011C92.8852 79.6431 93.0382 79.6941 93.7862 79.6941ZM97.8322 78.0451L99.4302 77.1611C100.552 78.0111 101.776 79.2351 102.286 80.2211L100.535 81.2071C100.11 80.2891 98.9372 78.9631 97.8322 78.0451Z" fill="#E5005A"/>
<path d="M71.074 70.2082H75.222V69.2392H77.245V70.2082H81.478V68.8652H71.074V70.2082ZM83.807 77.3142H78.231C79.438 78.6742 81.342 79.4562 84.028 79.7452C83.62 80.1702 83.093 80.9692 82.838 81.5132C79.608 81.0032 77.585 79.7962 76.242 77.6882C75.239 79.2012 73.352 80.5442 69.884 81.4792C69.646 81.0372 69.068 80.2722 68.626 79.8472C71.482 79.2012 73.114 78.3172 74.049 77.3142H68.932V75.5632H75.035C75.12 75.2062 75.171 74.8492 75.205 74.4922H70.853V72.8602H75.222V71.8402H70.581V70.7182H69.068V67.0972H75.273V65.6182H77.347V67.0972H83.569V70.7182H82.209V71.8402H77.245V72.8602H81.869V74.4922H77.228C77.211 74.8492 77.177 75.2062 77.092 75.5632H83.807V77.3142Z" fill="#E5005A"/>
<path d="M65.7823 74.0162C65.7823 77.6032 63.5893 80.1362 59.3053 80.7992L58.0303 78.7762C58.6763 78.7082 59.1523 78.6062 59.6113 78.5042C61.7873 77.9942 63.4873 76.4302 63.4873 73.9482C63.4873 71.6022 62.2123 69.8512 59.9173 69.4602C59.6793 70.9052 59.3903 72.4692 58.8973 74.0672C57.8773 77.5012 56.4153 79.6092 54.5623 79.6092C52.6753 79.6092 51.1113 77.5352 51.1113 74.6622C51.1113 70.7352 54.5113 67.3862 58.9143 67.3862C63.1303 67.3862 65.7823 70.3102 65.7823 74.0162ZM53.2873 74.4412C53.2873 76.1582 53.9673 76.9912 54.6303 76.9912C55.3443 76.9912 56.0073 75.9202 56.7043 73.6252C57.0953 72.3672 57.4183 70.9222 57.6053 69.5112C54.8003 70.0892 53.2873 72.5712 53.2873 74.4412Z" fill="#E5005A"/>
<path d="M46.4183 70.5649V69.1709H40.2643V70.5649H46.4183ZM38.4623 67.4539H42.2533V65.6689H44.2083V67.4539H48.2713V70.7859H46.9623V72.2989H39.7203V70.8029H38.4623V67.4539ZM37.2553 66.2469L38.5813 67.0119C38.1393 68.4569 37.5783 70.3099 37.1023 71.6359C38.1223 72.9279 38.3433 74.0669 38.3433 75.0529C38.3433 76.1409 38.1223 76.8549 37.5953 77.2289C37.3233 77.4159 37.0003 77.5179 36.6093 77.5859C36.3203 77.6199 35.9123 77.6369 35.5213 77.6199C35.5043 77.1439 35.3513 76.3789 35.0793 75.9029C35.3853 75.9199 35.6063 75.9199 35.8273 75.9199C36.0143 75.9029 36.1673 75.8689 36.3033 75.7669C36.4903 75.6309 36.5583 75.2909 36.5583 74.8149C36.5583 74.0329 36.3373 72.9789 35.3853 71.8399C35.7253 70.7689 36.0823 69.2899 36.3543 68.1339H35.0283V81.4789H33.2773V66.3319H36.9663L37.2553 66.2469ZM45.9083 79.5409H46.4693C46.7413 79.5409 46.7923 79.2859 46.8263 77.5519C47.2003 77.8579 48.0163 78.1809 48.5093 78.2999C48.3393 80.6799 47.8973 81.3259 46.6903 81.3259H45.5513C44.0723 81.3259 43.7493 80.7479 43.7493 79.0139V75.3249H42.4913C42.2873 78.4019 41.5733 80.3569 38.2583 81.4619C38.0883 80.9859 37.5953 80.2379 37.1873 79.8809C39.9073 79.0649 40.4173 77.6879 40.5873 75.3249H38.7173V73.5229H48.1863V75.3249H45.6363V78.9969C45.6363 79.4899 45.6703 79.5409 45.9083 79.5409Z" fill="#E5005A"/>
<path d="M17.9268 66.5532H23.8088C23.8088 69.7662 24.2678 75.9712 30.5238 79.6602C30.0818 80.0172 29.2488 80.9012 28.8918 81.4282C25.3728 79.3032 23.5708 76.0902 22.6358 73.0472C21.3608 76.8552 19.3208 79.6772 16.3628 81.4452C15.9888 81.0202 15.0368 80.1872 14.5098 79.7962C18.0458 78.0112 20.0688 74.7302 21.0038 70.2592L22.0408 70.4462C21.9218 69.8002 21.8538 69.1882 21.8028 68.6102H17.9268V66.5532Z" fill="#E5005A"/>
<path d="M143.4 51.994C143.4 52.623 144.097 53.048 145.117 53.048C145.474 53.048 145.797 53.031 146.103 52.997C146.001 51.892 145.372 51.178 144.454 51.178C143.808 51.178 143.4 51.569 143.4 51.994ZM140.51 41.046C140.986 41.114 141.581 41.131 142.057 41.131C142.958 41.131 146.596 41.063 147.565 40.978C148.262 40.91 148.653 40.859 148.857 40.791L149.962 42.304C149.571 42.559 149.163 42.797 148.772 43.086C147.854 43.732 146.069 45.228 144.998 46.078C145.559 45.942 146.069 45.891 146.613 45.891C149.503 45.891 151.696 47.693 151.696 50.175C151.696 52.861 149.656 54.986 145.542 54.986C143.179 54.986 141.394 53.898 141.394 52.198C141.394 50.821 142.635 49.546 144.437 49.546C146.545 49.546 147.82 50.838 148.058 52.453C148.993 51.96 149.469 51.178 149.469 50.141C149.469 48.611 147.939 47.574 145.933 47.574C143.332 47.574 141.632 48.951 139.813 51.025L138.266 49.427C139.473 48.458 141.53 46.724 142.533 45.891C143.485 45.109 145.253 43.681 146.086 42.95C145.219 42.967 142.873 43.069 141.972 43.12C141.513 43.154 140.969 43.205 140.578 43.256L140.51 41.046Z" fill="#E5005A"/>
<path d="M125.102 51.8242C125.102 52.6572 125.969 52.9632 127.159 52.9632C128.247 52.9632 128.638 52.4872 128.638 51.3482C128.638 51.1952 128.638 50.9912 128.621 50.7532C128.179 50.6852 127.703 50.6342 127.227 50.6342C125.901 50.6342 125.102 51.0932 125.102 51.8242ZM130.797 40.3662C130.712 40.8592 130.661 41.6922 130.644 42.3552C130.627 42.7462 130.627 43.1542 130.627 43.5962C131.987 43.5792 133.976 43.5112 135.387 43.3412L135.455 45.3642C134.027 45.4832 132.021 45.5682 130.644 45.6022C130.678 46.6222 130.746 47.9822 130.831 49.2402C132.99 49.8692 134.826 51.0592 135.999 52.1472L134.69 54.1702C133.721 53.2012 132.446 52.1982 130.933 51.5012C130.95 51.7222 130.95 51.9262 130.95 52.0962C130.95 53.6092 130.185 55.0372 127.329 55.0372C124.898 55.0372 122.909 54.2382 122.909 51.9262C122.909 50.1582 124.422 48.7472 127.55 48.7472C127.89 48.7472 128.23 48.7642 128.553 48.7982C128.502 47.4722 128.434 46.0272 128.434 45.1262C128.434 44.0892 128.434 43.0862 128.417 42.3552C128.383 41.5222 128.332 40.7912 128.23 40.3662H130.797Z" fill="#E5005A"/>
<path d="M111.65 42.1169C113.741 42.4059 117.124 42.3209 118.96 42.0999V44.2929C116.869 44.4799 113.792 44.4969 111.65 44.2929V42.1169ZM113.01 49.3759C112.874 49.9369 112.806 50.3449 112.806 50.8039C112.806 51.5519 113.452 52.0109 115.186 52.0109C116.699 52.0109 117.957 51.8749 119.453 51.5689L119.487 53.8639C118.382 54.0679 117.022 54.1869 115.101 54.1869C112.177 54.1869 110.766 53.1499 110.766 51.3989C110.766 50.7359 110.868 50.0559 111.055 49.1889L113.01 49.3759ZM109.032 40.9779C108.896 41.3349 108.675 42.1849 108.607 42.4909C108.386 43.6299 107.791 47.0299 107.791 48.7299C107.791 49.0529 107.808 49.4949 107.859 49.8349C108.114 49.2569 108.386 48.6619 108.624 48.1009L109.678 48.9339C109.202 50.3449 108.641 52.1979 108.454 53.0989C108.403 53.3539 108.369 53.7279 108.369 53.8979C108.369 54.0849 108.386 54.3569 108.403 54.5949L106.431 54.7309C106.091 53.5579 105.768 51.4839 105.768 49.1719C105.768 46.6219 106.295 43.7489 106.482 42.4399C106.533 41.9639 106.635 41.3179 106.652 40.7739L109.032 40.9779Z" fill="#E5005A"/>
<path d="M99.9343 51.8242V48.9682H97.6393C97.6053 49.1892 97.5713 49.4272 97.5203 49.6482C98.3363 50.3112 99.3223 51.1952 99.9343 51.8242ZM93.9163 48.9682V51.7902C95.2593 51.0592 95.7183 49.9882 95.8713 48.9682H93.9163ZM91.7573 46.0442V44.3442H102.331V46.0442H97.7073V47.2682H101.872V53.5072C101.872 54.3742 101.702 54.8502 101.09 55.1392C100.512 55.4282 99.7303 55.4792 98.6593 55.4622C98.5743 54.9352 98.2853 54.1872 98.0133 53.7112C98.6933 53.7452 99.4413 53.7452 99.6453 53.7282C99.8663 53.7282 99.9343 53.6602 99.9343 53.4732V52.1982L98.8633 53.1672C98.4553 52.6402 97.6733 51.8582 96.9083 51.1782C96.4493 51.9602 95.7353 52.6742 94.6813 53.2522C94.5113 52.9972 94.2223 52.6232 93.9163 52.3342V55.4792H92.1143V47.2682H95.9393V46.0442H91.7573ZM96.4663 41.4032H102.433V43.2222H91.1623V46.4692C91.1623 49.1892 90.7713 53.0822 88.4253 55.4112C88.1363 55.0372 87.3543 54.3062 86.9803 54.0682C88.0683 52.9462 88.6463 51.5352 88.9353 50.1242C88.3063 50.4982 87.6773 50.8722 87.0653 51.2122L86.4873 49.3082C87.1843 49.0022 88.1703 48.5432 89.1903 48.0332C89.2243 47.4892 89.2243 46.9622 89.2243 46.4522V45.9762L87.7793 46.7582C87.6263 45.9082 87.1333 44.5652 86.6233 43.5112L88.0853 42.7972C88.5613 43.6302 89.0033 44.6672 89.2243 45.4832V41.4032H94.3243V39.6182H96.4663V41.4032Z" fill="#E5005A"/>
<path d="M69.1476 42.9501L70.3886 43.1031C70.4226 44.6841 70.2016 46.6561 69.6406 47.9141L68.4336 47.3871C68.9436 46.3161 69.1476 44.4631 69.1476 42.9501ZM76.6106 50.8381V51.5011H81.3026V50.8381H76.6106ZM76.6106 48.9681V49.6481H81.3026V48.9681H76.6106ZM76.6106 47.1151V47.7781H81.3026V47.1151H76.6106ZM83.2916 52.7931H81.6766C82.7306 53.3371 83.8186 53.9321 84.4986 54.3741L82.9346 55.4961C82.2036 54.9521 80.8436 54.1191 79.7046 53.5071L80.5036 52.7931H77.2056L78.4126 53.2011C77.4436 54.1701 75.8456 55.0371 74.4516 55.5641C74.1626 55.1731 73.4996 54.4591 73.1086 54.1191C74.2816 53.8131 75.5226 53.3371 76.3216 52.7931H74.7236V45.8401H83.2916V52.7931ZM79.6366 44.0041H81.1836L81.2346 43.3071H79.7046L79.6366 44.0041ZM76.6956 43.3071L76.6276 44.0041H77.9706C77.9876 43.7831 78.0216 43.5451 78.0386 43.3071H76.6956ZM78.1746 41.4371H76.8656L76.7976 42.1001H78.1406L78.1746 41.4371ZM81.3026 42.1001L81.3536 41.4371H79.8746L79.8236 42.1001H81.3026ZM83.1216 41.8451H84.4986V43.5451H83.0196L82.9006 45.2961H74.7746L74.9446 43.5451H73.6186C73.8736 44.4121 74.0436 45.3131 74.0606 45.9421L72.8706 46.3501C72.8366 45.6021 72.6326 44.4461 72.3436 43.4431V55.4621H70.5246V39.6011H72.3436V42.7801L73.2616 42.4911C73.3636 42.7801 73.4656 43.0691 73.5676 43.3751V41.8451H75.0976L75.2506 40.1451H83.2406L83.1216 41.8451Z" fill="#E5005A"/>
<path d="M55.0885 44.1571L55.3945 45.6021C54.0345 46.1971 52.5895 46.7921 51.3825 47.2851L50.6855 45.6361C51.7905 45.2961 53.4565 44.7181 55.0885 44.1571ZM62.2455 50.8721V49.8861H54.9695V50.8721H62.2455ZM54.9695 53.3711H62.2455V52.3851H54.9695V53.3711ZM57.8085 46.8601L59.6275 47.1151C59.4235 47.5571 59.1855 47.9821 58.9645 48.3561H64.3535V55.5131H62.2455V54.9011H54.9695V55.5131H52.9635V48.3561H56.9585C57.0945 48.0331 57.2135 47.6761 57.3155 47.3701L57.2645 47.3871C56.7375 47.6081 55.9895 47.6081 54.9525 47.6081C54.8845 47.1661 54.6465 46.5711 54.4425 46.1801C55.0205 46.1971 55.6835 46.1971 55.8705 46.1971C56.0575 46.1971 56.1255 46.1291 56.1255 45.9591V41.9131H52.8445C53.5245 42.2871 54.3235 42.7971 54.7315 43.1881L53.7115 44.4801C53.2865 44.0041 52.3345 43.3411 51.5695 42.9331L52.4195 41.9131H51.1275V40.3491H57.9445V45.9761C57.9445 46.3501 57.9105 46.6391 57.8085 46.8601ZM65.6285 40.3491V45.9251C65.6285 46.7411 65.4585 47.1491 64.8805 47.4041C64.3195 47.6591 63.5035 47.6761 62.3985 47.6591C62.3135 47.1831 62.0755 46.5541 61.8545 46.1291C62.5005 46.1631 63.2485 46.1631 63.4525 46.1631C63.6735 46.1461 63.7415 46.0951 63.7415 45.9081V41.9131H60.4945C61.1915 42.2701 61.9735 42.7631 62.3815 43.1201L61.4635 44.3441C61.9735 44.1571 62.5005 43.9871 63.0275 43.8001L63.3335 45.2451C61.8715 45.8061 60.3075 46.3841 59.0495 46.8431L58.3695 45.3301C59.1515 45.0921 60.1885 44.7691 61.2935 44.3951C60.8175 43.9191 59.8825 43.3071 59.1515 42.9161L59.9675 41.9131H58.8625V40.3491H65.6285Z" fill="#E5005A"/>
<path d="M37.766 41.5221L36.559 43.1541C35.896 42.6441 34.451 41.8451 33.465 41.2841L34.604 39.8221C35.556 40.2981 37.035 41.0461 37.766 41.5221ZM36.95 46.1121L35.828 47.7951C35.131 47.3021 33.669 46.5031 32.666 45.9591L33.754 44.4631C34.689 44.9221 36.202 45.6531 36.95 46.1121ZM34.604 55.2921L32.904 53.9151C33.805 52.6401 35.114 50.5321 36.134 48.5601L37.613 49.9201C36.712 51.7051 35.641 53.6431 34.604 55.2921ZM45.637 52.9461V50.4471H40.537V52.9461H45.637ZM48.408 46.4691H44.09V48.6111H47.558V55.3941H45.637V54.7821H40.537V55.4791H38.701V48.6111H42.169V46.4691H37.647V44.5311H42.169V42.5421C41.064 42.7121 39.925 42.8311 38.871 42.9331C38.786 42.4401 38.514 41.6581 38.276 41.1991C41.166 40.9101 44.362 40.3491 46.232 39.6011L47.779 41.1991C46.691 41.6071 45.416 41.9471 44.09 42.2021V44.5311H48.408V46.4691Z" fill="#E5005A"/>
<path d="M23.5879 53.0142H30.1839V55.0032H14.9009V53.0142H21.4629V49.5972H16.8559V47.6422H21.4629V44.6502H17.9439C17.4509 45.5852 16.9239 46.4522 16.3629 47.1152C15.9549 46.7922 15.0539 46.1802 14.5439 45.9082C15.8699 44.4802 16.9749 42.1342 17.5529 39.8222L19.6439 40.2812C19.4059 41.0972 19.1339 41.8962 18.8449 42.6782H21.4629V39.6182H23.5879V42.6782H29.3169V44.6502H23.5879V47.6422H28.6709V49.5972H23.5879V53.0142Z" fill="#E5005A"/>
</svg>
