<svg width="370" height="180" viewBox="0 0 370 180" fill="none" xmlns="http://www.w3.org/2000/svg">
<path d="M0 0H370V180H0V0Z" fill="white"/>
<mask id="mask0_1827_25330" style="mask-type:alpha" maskUnits="userSpaceOnUse" x="0" y="0" width="370" height="180">
<path d="M0 0H370V180H0V0Z" fill="white"/>
</mask>
<g mask="url(#mask0_1827_25330)">
<path fill-rule="evenodd" clip-rule="evenodd" d="M332.443 -5.01438C332.443 13.2031 318.026 49.7653 300.242 49.7653C282.458 49.7653 268.041 13.2031 268.041 -5.01438C268.041 -23.2318 282.458 -38 300.242 -38C318.026 -38 332.443 -23.2318 332.443 -5.01438ZM366.785 110.986C356.618 96.0394 324.383 74.4858 309.792 84.9014C295.201 95.3169 303.78 133.758 313.947 148.704C324.115 163.65 344.186 167.323 358.777 156.907C373.368 146.492 376.953 125.932 366.785 110.986ZM316.05 63.6223C320.543 81.2488 358.72 86.3009 375.927 81.6985C393.134 77.096 403.441 59.0759 398.948 41.4494C394.456 23.8229 376.864 13.2648 359.657 17.8672C342.45 22.4697 311.557 45.9958 316.05 63.6223ZM221.419 77.0826C238.361 82.6216 276.747 79.6693 282.155 62.3144C287.562 44.9594 257.943 19.7736 241 14.2346C224.058 8.69563 205.94 18.2744 200.533 35.6293C195.126 52.9843 204.477 71.5436 221.419 77.0826ZM283.328 82.6362C298.707 91.7839 293.252 130.818 284.322 146.572C275.392 162.327 255.685 167.682 240.306 158.534C224.926 149.387 219.698 129.2 228.628 113.445C237.558 97.6913 267.948 73.4884 283.328 82.6362Z" fill="#FAF1F5"/>
</g>
<path d="M227.763 96.9837V83.1837C227.763 82.3437 227.691 81.1437 227.523 80.3037H231.267C231.171 81.1437 231.051 82.1997 231.051 83.1837V86.7357C234.267 87.6717 238.875 89.3757 241.083 90.4557L239.715 93.7677C237.243 92.4717 233.643 91.0797 231.051 90.1917V96.9837C231.051 97.6797 231.171 99.3597 231.267 100.344H227.523C227.667 99.3837 227.763 97.9437 227.763 96.9837Z" fill="#E5005A"/>
<path d="M204.157 81.0479C205.837 82.1759 208.957 84.6719 210.349 86.1359L207.901 88.6319C206.653 87.2879 203.653 84.6719 201.901 83.4479L204.157 81.0479ZM201.157 97.0319C204.901 96.5039 208.021 95.2799 210.349 93.8879C214.453 91.4639 217.573 87.7919 219.085 84.5519L220.957 87.9359C219.133 91.1759 215.941 94.4879 212.077 96.8159C209.653 98.2799 206.557 99.6239 203.173 100.2L201.157 97.0319Z" fill="#E5005A"/>
<path d="M177.305 89.9517C181.601 88.8477 185.129 87.2877 187.793 85.6557C190.265 84.1197 193.001 81.7197 194.561 79.8237L197.153 82.2957C195.329 84.0957 193.025 85.9677 190.697 87.5037V97.1997C190.697 98.2557 190.745 99.7437 190.913 100.344H187.121C187.217 99.7677 187.289 98.2557 187.289 97.1997V89.5197C184.817 90.8157 181.769 92.1117 178.817 92.9757L177.305 89.9517Z" fill="#E5005A"/>
<path d="M170.453 81.2879C170.453 82.0079 171.052 82.5839 171.772 82.5839C172.492 82.5839 173.069 82.0079 173.069 81.2879C173.069 80.5679 172.492 79.9919 171.772 79.9919C171.052 79.9919 170.453 80.5679 170.453 81.2879ZM168.989 81.2879C168.989 79.7519 170.236 78.5039 171.772 78.5039C173.308 78.5039 174.533 79.7519 174.533 81.2879C174.533 82.8239 173.308 84.0719 171.772 84.0719C170.236 84.0719 168.989 82.8239 168.989 81.2879ZM165.677 80.3519C165.629 80.6879 165.461 81.8399 165.461 82.4399V84.3599H171.052C171.724 84.3599 172.781 84.2879 173.429 84.1919V87.3359C172.661 87.2879 171.725 87.2639 171.076 87.2639H165.461V98.4239C165.461 99.8159 164.669 100.68 162.965 100.68C161.668 100.68 160.276 100.608 159.052 100.464L158.765 97.4879C159.797 97.6799 160.853 97.7759 161.429 97.7759C162.053 97.7759 162.293 97.5359 162.317 96.9119C162.341 96.0239 162.341 88.4159 162.341 87.2879V87.2639H156.244C155.524 87.2639 154.588 87.2879 153.916 87.3599V84.1679C154.636 84.2639 155.476 84.3599 156.244 84.3599H162.341V82.4399C162.341 81.8159 162.221 80.7599 162.125 80.3519H165.677ZM160.037 90.6719C158.933 92.8079 156.725 95.9519 155.405 97.3679L152.812 95.5919C154.421 94.0559 156.341 91.4159 157.325 89.3999L160.037 90.6719ZM170.356 89.3279C171.58 90.8639 173.501 93.8879 174.461 95.6399L171.629 97.1759C170.597 95.1119 168.893 92.2079 167.741 90.7439L170.356 89.3279Z" fill="#E5005A"/>
<path d="M148.778 90.84C148.778 95.904 145.682 99.48 139.634 100.416L137.834 97.56C138.746 97.464 139.418 97.32 140.066 97.176C143.138 96.456 145.538 94.248 145.538 90.744C145.538 87.432 143.738 84.96 140.498 84.408C140.162 86.448 139.754 88.656 139.058 90.912C137.618 95.76 135.554 98.736 132.938 98.736C130.274 98.736 128.066 95.808 128.066 91.752C128.066 86.208 132.866 81.48 139.082 81.48C145.034 81.48 148.778 85.608 148.778 90.84ZM131.138 91.44C131.138 93.864 132.098 95.04 133.034 95.04C134.042 95.04 134.978 93.528 135.962 90.288C136.514 88.512 136.97 86.472 137.234 84.48C133.274 85.296 131.138 88.8 131.138 91.44Z" fill="#E5005A"/>
<path d="M121.446 79.9921C121.878 80.9761 122.502 82.4641 122.838 83.4481L121.038 84.0481C120.654 82.9201 120.174 81.5761 119.646 80.5441L121.446 79.9921ZM124.014 79.0801C124.542 80.0641 125.142 81.5761 125.502 82.5361L123.702 83.1361C123.318 82.0561 122.79 80.6641 122.286 79.6801L124.014 79.0801ZM103.494 82.5121C103.902 82.5361 104.382 82.5361 104.838 82.5121C107.118 82.3921 111.126 81.8881 112.686 81.3121L113.598 83.9761C113.238 84.1201 112.758 84.2881 112.374 84.5041C110.742 85.7281 107.502 89.4481 107.502 94.0561C107.502 96.8641 109.326 97.9681 111.63 97.9681C116.91 97.9681 118.614 92.3281 116.766 83.6401C116.598 83.1601 116.43 82.6561 116.262 82.1521L119.286 81.3121C119.766 84.3361 120.75 88.1281 124.422 91.5121L122.478 94.2721C121.494 93.1921 120.606 91.9681 119.814 90.5761C120.15 96.0481 118.278 101.184 111.582 101.184C107.718 101.184 104.43 99.0721 104.43 94.7281C104.43 90.8401 106.038 87.9121 108.27 85.0561C107.358 85.1521 105.846 85.3201 105.126 85.4161C104.622 85.4881 104.262 85.5361 103.71 85.6321L103.494 82.5121Z" fill="#E5005A"/>
<path d="M95.96 82.4877V81.4797H91.304V79.6797H98.384V84.3117H94.088V84.7917C94.088 85.3197 94.208 85.4157 94.808 85.4157H96.752C97.232 85.4157 97.328 85.2717 97.424 84.4557C97.856 84.7677 98.792 85.0557 99.416 85.1757C99.176 86.8317 98.552 87.2877 97.04 87.2877H94.472C92.312 87.2877 91.76 86.7357 91.76 84.8157V82.4877H95.96ZM88.088 82.4877V81.4797H83.552V79.6797H90.488V84.3117H86.24V84.8157C86.24 85.3197 86.336 85.4157 86.96 85.4157H88.808C89.288 85.4157 89.384 85.2717 89.48 84.4797C89.888 84.7917 90.8 85.0797 91.448 85.1997C91.208 86.8317 90.56 87.2877 89.12 87.2877H86.6C84.488 87.2877 83.888 86.7357 83.888 84.8157V82.4877H88.088ZM82.808 83.4717L80.384 85.0557C79.856 83.8797 78.416 82.1517 77.192 80.9517L79.448 79.5117C80.696 80.6637 82.208 82.2717 82.808 83.4717ZM89.792 90.8157V92.3997H92.576V90.8157H89.792ZM88.424 94.5117L90.512 95.2317C89.312 96.3597 87.296 97.4637 85.664 98.1357C86.264 98.2797 86.912 98.3517 87.632 98.3757C90.584 98.5197 96.464 98.4477 99.824 98.1597C99.512 98.8077 99.104 100.056 98.984 100.824C95.936 100.992 90.632 101.04 87.632 100.896C84.752 100.776 82.784 100.08 81.344 98.2077C80.432 99.1677 79.496 100.104 78.344 101.136L77 98.4237C77.864 97.7997 78.92 97.0077 79.832 96.1917V90.8877H77.36V88.2717H82.472V95.9517C83.12 97.0797 84.176 97.7757 85.568 98.1117C85.088 97.6317 84.128 96.8157 83.552 96.4317C85.112 95.9517 86.792 95.2797 87.8 94.5117H83.24V92.3997H87.152V90.8157H83.936V88.7277H87.152V87.4557H89.792V88.7277H92.576V87.4557H95.288V88.7277H98.576V90.8157H95.288V92.3997H99.32V94.5117H94.64C96.296 95.3037 98.192 96.3357 99.272 97.1037L96.368 98.1597C95.456 97.4157 93.776 96.3117 92.192 95.5437L94.016 94.5117H88.424Z" fill="#E5005A"/>
<path d="M63.1283 92.6159H65.4803C65.5043 92.3999 65.5043 92.1839 65.5043 91.9679V90.4559H63.1283V92.6159ZM70.5923 90.4559H68.0723V92.0399C68.0723 92.2319 68.0723 92.4239 68.0723 92.6159H70.5923V90.4559ZM63.9443 84.4799H69.7523C68.5763 83.5199 67.4963 82.4399 66.7523 81.4079C66.0803 82.4159 65.0963 83.4959 63.9443 84.4799ZM73.1603 94.7999H68.8643C70.2803 97.4399 72.0803 98.3519 74.4563 99.0959C73.8083 99.6959 73.1363 100.632 72.8243 101.472C70.4243 100.56 68.5283 99.3359 67.0643 96.7199C66.0323 98.6399 64.0883 100.368 60.4883 101.496C60.2243 100.92 59.4323 99.8399 58.9763 99.3839C62.8403 98.2079 64.4483 96.5759 65.0963 94.7999H60.6563V88.2959H65.5043V86.8319H62.4563V85.6079C61.7603 86.0879 61.0403 86.5199 60.3203 86.8799C60.0563 86.2559 59.5763 85.3919 59.1443 84.7679C58.8083 85.7519 58.4723 86.7359 58.1603 87.5519C59.6963 89.3759 60.0083 90.9599 60.0083 92.3519C60.0083 93.8639 59.6963 94.8719 58.9043 95.4239C58.5203 95.6879 58.0403 95.8319 57.5123 95.9039C57.0563 95.9759 56.4803 95.9999 55.8803 95.9759C55.8803 95.2799 55.6643 94.1759 55.2563 93.4799C55.7123 93.5279 56.0723 93.5279 56.3603 93.5039C56.6243 93.5039 56.8883 93.4559 57.0563 93.3359C57.3443 93.1199 57.4643 92.6639 57.4643 91.9679C57.4643 90.8879 57.1043 89.4479 55.7123 87.8639C56.2163 86.3279 56.7443 84.1919 57.1523 82.5359H55.2083V101.376H52.7363V79.9919H58.0403L58.4483 79.8719L60.3443 80.9759C60.0323 82.0319 59.6483 83.2319 59.2643 84.4079C61.8083 83.2319 64.2083 80.9519 65.3843 78.9839H67.9763C69.6323 81.2639 72.1283 83.2559 74.6243 84.1679C74.0963 84.8399 73.5443 85.8959 73.1603 86.6639C72.5603 86.3759 71.9123 85.9919 71.2883 85.5839V86.8319H68.0723V88.2959H73.1603V94.7999Z" fill="#E5005A"/>
<path d="M31.664 79.0078L34.304 79.8718C33.68 81.4318 32.936 83.0638 32.072 84.5998V101.328H29.36V88.7758C28.76 89.5438 28.16 90.2638 27.536 90.9118C27.272 90.2158 26.48 88.6798 26 87.9838C28.232 85.8238 30.416 82.4158 31.664 79.0078ZM37.496 82.5118V85.7278H44.528V82.5118H37.496ZM48.56 92.9998H43.76C45.176 95.0878 47.24 97.0558 49.256 98.2318C48.608 98.7838 47.696 99.7918 47.24 100.512C45.488 99.2638 43.736 97.3198 42.368 95.1838V101.376H39.488V95.3038C38.024 97.4158 36.2 99.2398 34.304 100.464C33.872 99.7678 32.984 98.7358 32.336 98.1838C34.496 97.0558 36.632 95.1118 38.12 92.9998H33.2V90.4078H39.488V88.2478H34.784V79.9918H47.384V88.2478H42.368V90.4078H48.56V92.9998Z" fill="#E5005A"/>
</svg>
