<svg width="196" height="120" viewBox="0 0 196 120" fill="none" xmlns="http://www.w3.org/2000/svg">
<path d="M0 0H196V120H0V0Z" fill="white"/>
<mask id="mask0_1827_25460" style="mask-type:alpha" maskUnits="userSpaceOnUse" x="0" y="0" width="196" height="120">
<path d="M0 0H196V120H0V0Z" fill="white"/>
</mask>
<g mask="url(#mask0_1827_25460)">
<path fill-rule="evenodd" clip-rule="evenodd" d="M165.634 15.6622C165.634 27.6259 156.166 51.6369 144.487 51.6369C132.808 51.6369 123.34 27.6259 123.34 15.6622C123.34 3.6985 132.808 -6 144.487 -6C156.166 -6 165.634 3.6985 165.634 15.6622ZM188.187 91.8413C181.51 82.0258 160.341 67.8713 150.759 74.7113C141.177 81.5514 146.81 106.796 153.488 116.611C160.165 126.427 173.346 128.839 182.928 121.999C192.51 115.159 194.865 101.657 188.187 91.8413ZM154.869 60.737C157.819 72.3126 182.891 75.6304 194.191 72.6079C205.491 69.5855 212.26 57.7514 209.309 46.1757C206.359 34.6001 194.806 27.6664 183.506 30.6889C172.206 33.7114 151.918 49.1614 154.869 60.737ZM92.7229 69.5766C103.849 73.2142 129.058 71.2754 132.609 59.8781C136.16 48.4808 116.709 31.9409 105.582 28.3033C94.4561 24.6658 82.5579 30.9563 79.0069 42.3536C75.4558 53.7509 81.5967 65.9391 92.7229 69.5766ZM133.379 73.2237C143.479 79.2312 139.897 104.866 134.032 115.212C128.168 125.558 115.226 129.075 105.126 123.067C95.0261 117.06 91.5926 103.803 97.4572 93.4567C103.322 83.1107 123.279 67.2163 133.379 73.2237Z" fill="#FAF1F5"/>
</g>
<path d="M157.256 64.3677V54.5927C157.256 53.9977 157.205 53.1477 157.086 52.5527H159.738C159.67 53.1477 159.585 53.8957 159.585 54.5927V57.1087C161.863 57.7717 165.127 58.9787 166.691 59.7437L165.722 62.0897C163.971 61.1717 161.421 60.1857 159.585 59.5567V64.3677C159.585 64.8607 159.67 66.0507 159.738 66.7477H157.086C157.188 66.0677 157.256 65.0477 157.256 64.3677Z" fill="#E5005A"/>
<path d="M140.535 53.0796C141.725 53.8786 143.935 55.6466 144.921 56.6836L143.187 58.4516C142.303 57.4996 140.178 55.6466 138.937 54.7796L140.535 53.0796ZM138.41 64.4016C141.062 64.0276 143.272 63.1606 144.921 62.1746C147.828 60.4576 150.038 57.8566 151.109 55.5616L152.435 57.9586C151.143 60.2536 148.882 62.5996 146.145 64.2486C144.428 65.2856 142.235 66.2376 139.838 66.6456L138.41 64.4016Z" fill="#E5005A"/>
<path d="M121.514 59.3869C124.557 58.6049 127.056 57.4999 128.943 56.3439C130.694 55.2559 132.632 53.5559 133.737 52.2129L135.573 53.9639C134.281 55.2389 132.649 56.5649 131 57.6529V64.5209C131 65.2689 131.034 66.3229 131.153 66.7479H128.467C128.535 66.3399 128.586 65.2689 128.586 64.5209V59.0809C126.835 59.9989 124.676 60.9169 122.585 61.5289L121.514 59.3869Z" fill="#E5005A"/>
<path d="M116.661 53.2498C116.661 53.7598 117.086 54.1678 117.596 54.1678C118.106 54.1678 118.514 53.7598 118.514 53.2498C118.514 52.7398 118.106 52.3318 117.596 52.3318C117.086 52.3318 116.661 52.7398 116.661 53.2498ZM115.624 53.2498C115.624 52.1618 116.508 51.2778 117.596 51.2778C118.684 51.2778 119.551 52.1618 119.551 53.2498C119.551 54.3378 118.684 55.2218 117.596 55.2218C116.508 55.2218 115.624 54.3378 115.624 53.2498ZM113.278 52.5868C113.244 52.8248 113.125 53.6408 113.125 54.0658V55.4258H117.086C117.562 55.4258 118.31 55.3748 118.769 55.3068V57.5338C118.225 57.4998 117.562 57.4828 117.103 57.4828H113.125V65.3878C113.125 66.3738 112.564 66.9858 111.357 66.9858C110.439 66.9858 109.453 66.9348 108.586 66.8328L108.382 64.7248C109.113 64.8608 109.861 64.9288 110.269 64.9288C110.711 64.9288 110.881 64.7588 110.898 64.3168C110.915 63.6878 110.915 58.2988 110.915 57.4998V57.4828H106.597C106.087 57.4828 105.424 57.4998 104.948 57.5508V55.2898C105.458 55.3578 106.053 55.4258 106.597 55.4258H110.915V54.0658C110.915 53.6238 110.83 52.8758 110.762 52.5868H113.278ZM109.283 59.8968C108.501 61.4098 106.937 63.6368 106.002 64.6398L104.166 63.3818C105.305 62.2938 106.665 60.4238 107.362 58.9958L109.283 59.8968ZM116.593 58.9448C117.46 60.0328 118.82 62.1748 119.5 63.4158L117.494 64.5038C116.763 63.0418 115.556 60.9848 114.74 59.9478L116.593 58.9448Z" fill="#E5005A"/>
<path d="M101.308 60.0157C101.308 63.6027 99.1147 66.1357 94.8307 66.7987L93.5557 64.7757C94.2017 64.7077 94.6777 64.6057 95.1367 64.5037C97.3127 63.9937 99.0127 62.4297 99.0127 59.9477C99.0127 57.6017 97.7377 55.8507 95.4427 55.4597C95.2047 56.9047 94.9157 58.4687 94.4227 60.0667C93.4027 63.5007 91.9407 65.6087 90.0877 65.6087C88.2007 65.6087 86.6367 63.5347 86.6367 60.6617C86.6367 56.7347 90.0367 53.3857 94.4397 53.3857C98.6557 53.3857 101.308 56.3097 101.308 60.0157ZM88.8127 60.4407C88.8127 62.1577 89.4927 62.9907 90.1557 62.9907C90.8697 62.9907 91.5327 61.9197 92.2297 59.6247C92.6207 58.3667 92.9437 56.9217 93.1307 55.5107C90.3257 56.0887 88.8127 58.5707 88.8127 60.4407Z" fill="#E5005A"/>
<path d="M81.9474 52.332C82.2534 53.029 82.6954 54.083 82.9334 54.78L81.6584 55.205C81.3864 54.406 81.0464 53.454 80.6724 52.723L81.9474 52.332ZM83.7664 51.686C84.1404 52.383 84.5654 53.454 84.8204 54.134L83.5454 54.559C83.2734 53.794 82.8994 52.808 82.5424 52.111L83.7664 51.686ZM69.2314 54.117C69.5204 54.134 69.8604 54.134 70.1834 54.117C71.7984 54.032 74.6374 53.675 75.7424 53.267L76.3884 55.154C76.1334 55.256 75.7934 55.375 75.5214 55.528C74.3654 56.395 72.0704 59.03 72.0704 62.294C72.0704 64.283 73.3624 65.065 74.9944 65.065C78.7344 65.065 79.9414 61.07 78.6324 54.916C78.5134 54.576 78.3944 54.219 78.2754 53.862L80.4174 53.267C80.7574 55.409 81.4544 58.095 84.0554 60.492L82.6784 62.447C81.9814 61.682 81.3524 60.815 80.7914 59.829C81.0294 63.705 79.7034 67.343 74.9604 67.343C72.2234 67.343 69.8944 65.847 69.8944 62.77C69.8944 60.016 71.0334 57.942 72.6144 55.919C71.9684 55.987 70.8974 56.106 70.3874 56.174C70.0304 56.225 69.7754 56.259 69.3844 56.327L69.2314 54.117Z" fill="#E5005A"/>
<path d="M63.8948 54.0997V53.3857H60.5968V52.1107H65.6118V55.3917H62.5688V55.7317C62.5688 56.1057 62.6538 56.1737 63.0788 56.1737H64.4558C64.7958 56.1737 64.8638 56.0717 64.9318 55.4937C65.2378 55.7147 65.9008 55.9187 66.3428 56.0037C66.1728 57.1767 65.7308 57.4997 64.6598 57.4997H62.8408C61.3108 57.4997 60.9198 57.1087 60.9198 55.7487V54.0997H63.8948ZM58.3188 54.0997V53.3857H55.1058V52.1107H60.0188V55.3917H57.0098V55.7487C57.0098 56.1057 57.0778 56.1737 57.5198 56.1737H58.8288C59.1688 56.1737 59.2368 56.0717 59.3048 55.5107C59.5938 55.7317 60.2398 55.9357 60.6988 56.0207C60.5288 57.1767 60.0698 57.4997 59.0498 57.4997H57.2648C55.7688 57.4997 55.3438 57.1087 55.3438 55.7487V54.0997H58.3188ZM54.5788 54.7967L52.8618 55.9187C52.4878 55.0857 51.4678 53.8617 50.6008 53.0117L52.1988 51.9917C53.0828 52.8077 54.1538 53.9467 54.5788 54.7967ZM59.5258 59.9987V61.1207H61.4978V59.9987H59.5258ZM58.5568 62.6167L60.0358 63.1267C59.1858 63.9257 57.7578 64.7077 56.6018 65.1837C57.0268 65.2857 57.4858 65.3367 57.9958 65.3537C60.0868 65.4557 64.2518 65.4047 66.6318 65.2007C66.4108 65.6597 66.1218 66.5437 66.0368 67.0877C63.8778 67.2067 60.1208 67.2407 57.9958 67.1387C55.9558 67.0537 54.5618 66.5607 53.5418 65.2347C52.8958 65.9147 52.2328 66.5777 51.4168 67.3087L50.4648 65.3877C51.0768 64.9457 51.8248 64.3847 52.4708 63.8067V60.0497H50.7198V58.1967H54.3408V63.6367C54.7998 64.4357 55.5478 64.9287 56.5338 65.1667C56.1938 64.8267 55.5138 64.2487 55.1058 63.9767C56.2108 63.6367 57.4008 63.1607 58.1148 62.6167H54.8848V61.1207H57.6558V59.9987H55.3778V58.5197H57.6558V57.6187H59.5258V58.5197H61.4978V57.6187H63.4188V58.5197H65.7478V59.9987H63.4188V61.1207H66.2748V62.6167H62.9598C64.1328 63.1777 65.4758 63.9087 66.2408 64.4527L64.1838 65.2007C63.5378 64.6737 62.3478 63.8917 61.2258 63.3477L62.5178 62.6167H58.5568Z" fill="#E5005A"/>
<path d="M40.6393 61.2737H42.3053C42.3223 61.1207 42.3223 60.9677 42.3223 60.8147V59.7437H40.6393V61.2737ZM45.9263 59.7437H44.1413V60.8657C44.1413 61.0017 44.1413 61.1377 44.1413 61.2737H45.9263V59.7437ZM41.2173 55.5107H45.3313C44.4983 54.8307 43.7333 54.0657 43.2063 53.3347C42.7303 54.0487 42.0333 54.8137 41.2173 55.5107ZM47.7453 62.8207H44.7023C45.7053 64.6907 46.9803 65.3367 48.6633 65.8637C48.2043 66.2887 47.7283 66.9517 47.5073 67.5467C45.8073 66.9007 44.4643 66.0337 43.4273 64.1807C42.6963 65.5407 41.3193 66.7647 38.7693 67.5637C38.5823 67.1557 38.0213 66.3907 37.6983 66.0677C40.4353 65.2347 41.5743 64.0787 42.0333 62.8207H38.8883V58.2137H42.3223V57.1767H40.1633V56.3097C39.6703 56.6497 39.1603 56.9557 38.6503 57.2107C38.4633 56.7687 38.1233 56.1567 37.8173 55.7147C37.5793 56.4117 37.3413 57.1087 37.1203 57.6867C38.2083 58.9787 38.4293 60.1007 38.4293 61.0867C38.4293 62.1577 38.2083 62.8717 37.6473 63.2627C37.3753 63.4497 37.0353 63.5517 36.6613 63.6027C36.3383 63.6537 35.9303 63.6707 35.5053 63.6537C35.5053 63.1607 35.3523 62.3787 35.0633 61.8857C35.3863 61.9197 35.6413 61.9197 35.8453 61.9027C36.0323 61.9027 36.2193 61.8687 36.3383 61.7837C36.5423 61.6307 36.6273 61.3077 36.6273 60.8147C36.6273 60.0497 36.3723 59.0297 35.3863 57.9077C35.7433 56.8197 36.1173 55.3067 36.4063 54.1337H35.0293V67.4787H33.2783V52.3317H37.0353L37.3243 52.2467L38.6673 53.0287C38.4463 53.7767 38.1743 54.6267 37.9023 55.4597C39.7043 54.6267 41.4043 53.0117 42.2373 51.6177H44.0733C45.2463 53.2327 47.0143 54.6437 48.7823 55.2897C48.4083 55.7657 48.0173 56.5137 47.7453 57.0577C47.3203 56.8537 46.8613 56.5817 46.4193 56.2927V57.1767H44.1413V58.2137H47.7453V62.8207Z" fill="#E5005A"/>
<path d="M18.3518 51.6348L20.2218 52.2468C19.7798 53.3518 19.2528 54.5078 18.6408 55.5958V67.4448H16.7198V58.5538C16.2948 59.0978 15.8698 59.6078 15.4278 60.0668C15.2408 59.5738 14.6798 58.4858 14.3398 57.9928C15.9208 56.4628 17.4678 54.0488 18.3518 51.6348ZM22.4828 54.1168V56.3948H27.4638V54.1168H22.4828ZM30.3198 61.5458H26.9198C27.9228 63.0248 29.3848 64.4188 30.8128 65.2518C30.3538 65.6428 29.7078 66.3568 29.3848 66.8668C28.1438 65.9828 26.9028 64.6058 25.9338 63.0928V67.4788H23.8938V63.1778C22.8568 64.6738 21.5648 65.9658 20.2218 66.8328C19.9158 66.3398 19.2868 65.6088 18.8278 65.2178C20.3578 64.4188 21.8708 63.0418 22.9248 61.5458H19.4398V59.7098H23.8938V58.1798H20.5618V52.3318H29.4868V58.1798H25.9338V59.7098H30.3198V61.5458Z" fill="#E5005A"/>
</svg>
