<svg width="196" height="120" viewBox="0 0 196 120" fill="none" xmlns="http://www.w3.org/2000/svg">
<path d="M0 0H196V120H0V0Z" fill="white"/>
<mask id="mask0_1827_25472" style="mask-type:alpha" maskUnits="userSpaceOnUse" x="0" y="0" width="196" height="120">
<path d="M0 0H196V120H0V0Z" fill="white"/>
</mask>
<g mask="url(#mask0_1827_25472)">
<path fill-rule="evenodd" clip-rule="evenodd" d="M165.634 15.6622C165.634 27.6259 156.166 51.6369 144.487 51.6369C132.808 51.6369 123.34 27.6259 123.34 15.6622C123.34 3.6985 132.808 -6 144.487 -6C156.166 -6 165.634 3.6985 165.634 15.6622ZM188.187 91.8413C181.51 82.0258 160.341 67.8713 150.759 74.7113C141.177 81.5514 146.81 106.796 153.488 116.611C160.165 126.427 173.346 128.839 182.928 121.999C192.51 115.159 194.865 101.657 188.187 91.8413ZM154.869 60.737C157.819 72.3126 182.891 75.6304 194.191 72.6079C205.491 69.5855 212.26 57.7514 209.309 46.1757C206.359 34.6001 194.806 27.6664 183.506 30.6889C172.206 33.7114 151.918 49.1614 154.869 60.737ZM92.7229 69.5766C103.849 73.2142 129.058 71.2754 132.609 59.8781C136.16 48.4808 116.709 31.9409 105.582 28.3033C94.4561 24.6658 82.5579 30.9563 79.0069 42.3536C75.4558 53.7509 81.5967 65.9391 92.7229 69.5766ZM133.379 73.2237C143.479 79.2312 139.897 104.866 134.032 115.212C128.168 125.558 115.226 129.075 105.126 123.067C95.0261 117.06 91.5926 103.803 97.4572 93.4567C103.322 83.1107 123.279 67.2163 133.379 73.2237Z" fill="#FAF1F5"/>
</g>
<path d="M171.221 57.0407V54.5587H166.954V57.0407H171.221ZM171.221 61.4947V58.9277H166.954V61.4947H171.221ZM173.244 52.6887V63.3647H165.016V52.6887H173.244ZM164.37 58.7747L164.608 60.6277C163.979 60.7977 163.35 60.9847 162.704 61.1547V65.2007C162.704 66.1867 162.517 66.6797 161.956 66.9687C161.395 67.2917 160.562 67.3427 159.372 67.3427C159.321 66.8157 159.049 66.0167 158.811 65.5067C159.474 65.5237 160.188 65.5237 160.409 65.5237C160.647 65.5237 160.732 65.4387 160.732 65.2007V61.6647L158.93 62.1407L158.403 60.2027C159.066 60.0667 159.882 59.8797 160.732 59.6757V56.7007H158.624V54.8307H160.732V51.6177H162.704V54.8307H164.489V56.7007H162.704V59.1997L164.37 58.7747ZM163.843 65.0307H174.281V66.9177H163.843V65.0307Z" fill="#E5005A"/>
<path d="M144.804 61.9027V62.8887H152.216V61.9027H144.804ZM148.833 54.2697H145.637C145.297 54.6947 144.923 55.1027 144.515 55.4937H147.881C148.221 55.1197 148.544 54.6777 148.833 54.2697ZM152.216 58.0267V57.0577H144.804V58.0267H152.216ZM152.216 60.4407V59.4887H144.804V60.4407H152.216ZM154.324 64.4697H151.485C153.134 65.0987 155.004 65.8977 156.109 66.4587L153.831 67.4787C152.896 66.9177 151.196 66.0847 149.564 65.4387L151.06 64.4697H145.756L147.49 65.2517C146.096 66.1697 143.937 67.0367 142.237 67.5467C141.88 67.1387 141.115 66.3567 140.656 65.9827C142.322 65.6427 144.175 65.0817 145.348 64.4697H142.798V56.9897C142.56 57.1767 142.305 57.3467 142.033 57.5337C141.693 57.0577 140.996 56.3777 140.537 56.0887C142.696 54.8307 144.209 53.1137 145.042 51.6177L147.235 52.0257C147.099 52.2637 146.946 52.4847 146.793 52.7227H149.955L150.278 52.6377L151.672 53.5387C151.315 54.1507 150.822 54.8477 150.295 55.4937H154.324V64.4697Z" fill="#E5005A"/>
<path d="M128.62 65.1498H134.06C135.76 65.1498 135.998 64.7248 136.219 62.2768C136.763 62.5828 137.681 62.9398 138.276 63.0418C137.902 66.2888 137.154 67.1728 134.111 67.1728H128.603C125.424 67.1728 124.387 66.5608 124.387 64.1298V58.0098H134.077V54.6438H124.183V52.5698H136.236V60.9678H134.077V59.9988H126.495V64.0958C126.495 64.9968 126.801 65.1498 128.62 65.1498Z" fill="#E5005A"/>
<path d="M108.39 64.7419H116.465V62.9739H108.39V64.7419ZM116.465 59.3529H108.39V61.1039H116.465V59.3529ZM116.465 55.7319H108.39V57.4829H116.465V55.7319ZM112.793 53.7939H118.624V67.4449H116.465V66.6119H108.39V67.4619H106.333V53.7939H110.685C110.872 53.0629 111.059 52.2469 111.144 51.5669L113.592 51.8389C113.337 52.5189 113.065 53.1819 112.793 53.7939Z" fill="#E5005A"/>
<path d="M101.822 60.0157C101.822 63.6027 99.6294 66.1357 95.3454 66.7987L94.0704 64.7757C94.7164 64.7077 95.1924 64.6057 95.6514 64.5037C97.8274 63.9937 99.5274 62.4297 99.5274 59.9477C99.5274 57.6017 98.2524 55.8507 95.9574 55.4597C95.7194 56.9047 95.4304 58.4687 94.9374 60.0667C93.9174 63.5007 92.4554 65.6087 90.6024 65.6087C88.7154 65.6087 87.1514 63.5347 87.1514 60.6617C87.1514 56.7347 90.5514 53.3857 94.9544 53.3857C99.1704 53.3857 101.822 56.3097 101.822 60.0157ZM89.3274 60.4407C89.3274 62.1577 90.0074 62.9907 90.6704 62.9907C91.3844 62.9907 92.0474 61.9197 92.7444 59.6247C93.1354 58.3667 93.4584 56.9217 93.6454 55.5107C90.8404 56.0887 89.3274 58.5707 89.3274 60.4407Z" fill="#E5005A"/>
<path d="M76.6794 61.2737H78.3454C78.3624 61.1207 78.3624 60.9677 78.3624 60.8147V59.7437H76.6794V61.2737ZM81.9664 59.7437H80.1814V60.8657C80.1814 61.0017 80.1814 61.1377 80.1814 61.2737H81.9664V59.7437ZM77.2574 55.5107H81.3714C80.5384 54.8307 79.7734 54.0657 79.2464 53.3347C78.7704 54.0487 78.0734 54.8137 77.2574 55.5107ZM83.7854 62.8207H80.7424C81.7454 64.6907 83.0204 65.3367 84.7034 65.8637C84.2444 66.2887 83.7684 66.9517 83.5474 67.5467C81.8474 66.9007 80.5044 66.0337 79.4674 64.1807C78.7364 65.5407 77.3594 66.7647 74.8094 67.5637C74.6224 67.1557 74.0614 66.3907 73.7384 66.0677C76.4754 65.2347 77.6144 64.0787 78.0734 62.8207H74.9284V58.2137H78.3624V57.1767H76.2034V56.3097C75.7104 56.6497 75.2004 56.9557 74.6904 57.2107C74.5034 56.7687 74.1634 56.1567 73.8574 55.7147C73.6194 56.4117 73.3814 57.1087 73.1604 57.6867C74.2484 58.9787 74.4694 60.1007 74.4694 61.0867C74.4694 62.1577 74.2484 62.8717 73.6874 63.2627C73.4154 63.4497 73.0754 63.5517 72.7014 63.6027C72.3784 63.6537 71.9704 63.6707 71.5454 63.6537C71.5454 63.1607 71.3924 62.3787 71.1034 61.8857C71.4264 61.9197 71.6814 61.9197 71.8854 61.9027C72.0724 61.9027 72.2594 61.8687 72.3784 61.7837C72.5824 61.6307 72.6674 61.3077 72.6674 60.8147C72.6674 60.0497 72.4124 59.0297 71.4264 57.9077C71.7834 56.8197 72.1574 55.3067 72.4464 54.1337H71.0694V67.4787H69.3184V52.3317H73.0754L73.3644 52.2467L74.7074 53.0287C74.4864 53.7767 74.2144 54.6267 73.9424 55.4597C75.7444 54.6267 77.4444 53.0117 78.2774 51.6177H80.1134C81.2864 53.2327 83.0544 54.6437 84.8224 55.2897C84.4484 55.7657 84.0574 56.5137 83.7854 57.0577C83.3604 56.8537 82.9014 56.5817 82.4594 56.2927V57.1767H80.1814V58.2137H83.7854V62.8207Z" fill="#E5005A"/>
<path d="M54.3919 51.6348L56.2619 52.2468C55.8199 53.3518 55.2929 54.5078 54.6809 55.5958V67.4448H52.7599V58.5538C52.3349 59.0978 51.9099 59.6078 51.4679 60.0668C51.2809 59.5738 50.7199 58.4858 50.3799 57.9928C51.9609 56.4628 53.5079 54.0488 54.3919 51.6348ZM58.5229 54.1168V56.3948H63.5039V54.1168H58.5229ZM66.3599 61.5458H62.9599C63.9629 63.0248 65.4249 64.4188 66.8529 65.2518C66.3939 65.6428 65.7479 66.3568 65.4249 66.8668C64.1839 65.9828 62.9429 64.6058 61.9739 63.0928V67.4788H59.9339V63.1778C58.8969 64.6738 57.6049 65.9658 56.2619 66.8328C55.9559 66.3398 55.3269 65.6088 54.8679 65.2178C56.3979 64.4188 57.9109 63.0418 58.9649 61.5458H55.4799V59.7098H59.9339V58.1798H56.6019V52.3318H65.5269V58.1798H61.9739V59.7098H66.3599V61.5458Z" fill="#E5005A"/>
<path d="M38.599 63.7557L40.418 64.2657C39.806 65.3877 38.786 66.5437 37.851 67.2577C37.511 66.9177 36.78 66.3397 36.338 66.0847C37.256 65.5067 38.106 64.6397 38.599 63.7557ZM44.294 64.5717L45.824 63.8067C46.657 64.5717 47.728 65.6597 48.221 66.4077L46.589 67.2577C46.164 66.5267 45.127 65.3707 44.294 64.5717ZM44.753 60.5767V59.9647H40.384V60.5767H44.753ZM44.753 62.3617V61.7157H40.384V62.3617H44.753ZM36.797 54.6607V58.4177C36.797 58.8767 36.78 59.3697 36.763 59.8797C37.307 59.6077 37.8 59.3187 38.242 58.9957C37.902 58.7237 37.545 58.4517 37.222 58.2307L38.242 57.3297C38.565 57.5337 38.956 57.8057 39.313 58.0607C39.568 57.7887 39.806 57.5167 40.01 57.2447H37.392V55.7317H40.894C41.047 55.3747 41.183 55.0177 41.285 54.6607H36.797ZM43.24 57.2447H42.084C41.778 57.7717 41.421 58.2817 41.013 58.7577H44.26C43.869 58.2817 43.529 57.7717 43.24 57.2447ZM46.963 57.2447H45.059C45.314 57.5847 45.62 57.9077 45.943 58.2137C46.317 57.8907 46.708 57.5167 46.963 57.2447ZM47.048 57.2447L48.153 58.0607C47.796 58.4177 47.388 58.7407 46.997 59.0297C47.507 59.3697 48.051 59.6417 48.612 59.8457C48.204 60.1687 47.694 60.8317 47.439 61.2567C47.133 61.1207 46.81 60.9507 46.521 60.7637V63.5517H43.546V65.7277C43.546 66.5607 43.393 66.9687 42.781 67.2407C42.186 67.4957 41.404 67.4957 40.401 67.4957C40.282 66.9857 39.993 66.3227 39.772 65.8807C40.401 65.8977 41.115 65.8977 41.336 65.8977C41.523 65.8977 41.591 65.8297 41.591 65.6597V63.5517H38.701V60.7637C38.378 60.9677 38.038 61.1717 37.681 61.3587C37.494 61.0187 37.103 60.5427 36.746 60.2367C36.576 62.7187 35.998 65.5747 34.281 67.4617C34.009 67.0877 33.244 66.3737 32.887 66.1357C33.975 64.8947 34.502 63.3137 34.74 61.7327C34.128 62.0897 33.533 62.4467 32.955 62.7867L32.377 60.9677C33.04 60.6787 33.958 60.2197 34.927 59.7437C34.944 59.2847 34.944 58.8427 34.944 58.4177V57.8397L33.448 58.5197C33.363 57.6357 32.972 56.2077 32.53 55.1027L33.975 54.5077C34.417 55.4597 34.791 56.6497 34.944 57.5167V52.9607H40.265V51.6177H42.407V52.9607H48.357V54.6607H41.965L43.155 54.8137C43.053 55.1197 42.951 55.4257 42.815 55.7317H48.204V57.2447H47.048Z" fill="#E5005A"/>
<path d="M30.2861 64.8608V66.7818H17.4341V67.4958H15.4111V52.3828H29.8951V54.3208H20.6981L22.2451 54.7118C22.1261 55.0348 21.9731 55.3408 21.8031 55.6468H28.7561V57.3298H24.8121V58.5878H29.5041V60.3218H25.0331C25.9341 61.6478 27.5491 62.4638 29.8101 62.7698C29.3681 63.1778 28.8411 63.9258 28.6031 64.4528C26.4951 64.0278 25.0161 63.1438 23.9791 61.8008C23.1971 62.8548 21.7691 63.8238 19.3211 64.5208C19.0661 64.0958 18.4881 63.3988 18.0801 63.0248C20.9701 62.3448 22.1261 61.3418 22.5681 60.3218H18.2331V58.5878H22.8061V57.3298H20.6981C20.3751 57.7378 20.0351 58.0948 19.6951 58.4008C19.3041 58.1118 18.4711 57.6358 18.0121 57.4148C19.0151 56.6838 19.8821 55.4938 20.3241 54.3208H17.4341V64.8608H30.2861Z" fill="#E5005A"/>
</svg>
