<svg width="370" height="180" viewBox="0 0 370 180" fill="none" xmlns="http://www.w3.org/2000/svg">
<rect width="370" height="180" fill="white"/>
<mask id="mask0_1523_25624" style="mask-type:alpha" maskUnits="userSpaceOnUse" x="0" y="0" width="370" height="180">
<rect x="2" y="2" width="366" height="176" rx="8" fill="white" stroke="#FAF1F5" stroke-width="4"/>
</mask>
<g mask="url(#mask0_1523_25624)">
<path fill-rule="evenodd" clip-rule="evenodd" d="M332.443 -5.01438C332.443 13.2031 318.026 49.7653 300.242 49.7653C282.458 49.7653 268.041 13.2031 268.041 -5.01438C268.041 -23.2318 282.458 -38 300.242 -38C318.026 -38 332.443 -23.2318 332.443 -5.01438ZM366.785 110.986C356.618 96.0394 324.383 74.4858 309.792 84.9014C295.201 95.3169 303.78 133.758 313.947 148.704C324.115 163.65 344.186 167.323 358.777 156.907C373.368 146.492 376.953 125.932 366.785 110.986ZM316.05 63.6223C320.543 81.2488 358.72 86.3009 375.927 81.6985C393.134 77.096 403.441 59.0759 398.948 41.4494C394.456 23.8229 376.864 13.2648 359.657 17.8672C342.45 22.4697 311.557 45.9958 316.05 63.6223ZM221.419 77.0826C238.361 82.6216 276.747 79.6693 282.155 62.3144C287.562 44.9594 257.943 19.7736 241 14.2346C224.058 8.69563 205.94 18.2744 200.533 35.6293C195.126 52.9843 204.477 71.5436 221.419 77.0826ZM283.328 82.6362C298.707 91.7839 293.252 130.818 284.322 146.572C275.392 162.327 255.685 167.682 240.306 158.534C224.926 149.387 219.698 129.2 228.628 113.445C237.558 97.6913 267.948 73.4884 283.328 82.6362Z" fill="#FAF1F5"/>
</g>
<path d="M48.992 98.392V101.104H30.848V102.112H27.992V80.776H48.44V83.512H35.456L37.64 84.064C37.472 84.52 37.256 84.952 37.016 85.384H46.832V87.76H41.264V89.536H47.888V91.984H41.576C42.848 93.856 45.128 95.008 48.32 95.44C47.696 96.016 46.952 97.072 46.616 97.816C43.64 97.216 41.552 95.968 40.088 94.072C38.984 95.56 36.968 96.928 33.512 97.912C33.152 97.312 32.336 96.328 31.76 95.8C35.84 94.84 37.472 93.424 38.096 91.984H31.976V89.536H38.432V87.76H35.456C35 88.336 34.52 88.84 34.04 89.272C33.488 88.864 32.312 88.192 31.664 87.88C33.08 86.848 34.304 85.168 34.928 83.512H30.848V98.392H48.992ZM60.728 96.832L63.296 97.552C62.432 99.136 60.992 100.768 59.672 101.776C59.192 101.296 58.16 100.48 57.536 100.12C58.832 99.304 60.032 98.08 60.728 96.832ZM68.768 97.984L70.928 96.904C72.104 97.984 73.616 99.52 74.312 100.576L72.008 101.776C71.408 100.744 69.944 99.112 68.768 97.984ZM69.416 92.344V91.48H63.248V92.344H69.416ZM69.416 94.864V93.952H63.248V94.864H69.416ZM58.184 83.992V89.296C58.184 89.944 58.16 90.64 58.136 91.36C58.904 90.976 59.6 90.568 60.224 90.112C59.744 89.728 59.24 89.344 58.784 89.032L60.224 87.76C60.68 88.048 61.232 88.432 61.736 88.792C62.096 88.408 62.432 88.024 62.72 87.64H59.024V85.504H63.968C64.184 85 64.376 84.496 64.52 83.992H58.184ZM67.28 87.64H65.648C65.216 88.384 64.712 89.104 64.136 89.776H68.72C68.168 89.104 67.688 88.384 67.28 87.64ZM72.536 87.64H69.848C70.208 88.12 70.64 88.576 71.096 89.008C71.624 88.552 72.176 88.024 72.536 87.64ZM72.656 87.64L74.216 88.792C73.712 89.296 73.136 89.752 72.584 90.16C73.304 90.64 74.072 91.024 74.864 91.312C74.288 91.768 73.568 92.704 73.208 93.304C72.776 93.112 72.32 92.872 71.912 92.608V96.544H67.712V99.616C67.712 100.792 67.496 101.368 66.632 101.752C65.792 102.112 64.688 102.112 63.272 102.112C63.104 101.392 62.696 100.456 62.384 99.832C63.272 99.856 64.28 99.856 64.592 99.856C64.856 99.856 64.952 99.76 64.952 99.52V96.544H60.872V92.608C60.416 92.896 59.936 93.184 59.432 93.448C59.168 92.968 58.616 92.296 58.112 91.864C57.872 95.368 57.056 99.4 54.632 102.064C54.248 101.536 53.168 100.528 52.664 100.192C54.2 98.44 54.944 96.208 55.28 93.976C54.416 94.48 53.576 94.984 52.76 95.464L51.944 92.896C52.88 92.488 54.176 91.84 55.544 91.168C55.568 90.52 55.568 89.896 55.568 89.296V88.48L53.456 89.44C53.336 88.192 52.784 86.176 52.16 84.616L54.2 83.776C54.824 85.12 55.352 86.8 55.568 88.024V81.592H63.08V79.696H66.104V81.592H74.504V83.992H65.48L67.16 84.208C67.016 84.64 66.872 85.072 66.68 85.504H74.288V87.64H72.656ZM83.024 79.72L85.664 80.584C85.04 82.144 84.296 83.776 83.432 85.312V102.04H80.72V89.488C80.12 90.256 79.52 90.976 78.896 91.624C78.632 90.928 77.84 89.392 77.36 88.696C79.592 86.536 81.776 83.128 83.024 79.72ZM88.856 83.224V86.44H95.888V83.224H88.856ZM99.92 93.712H95.12C96.536 95.8 98.6 97.768 100.616 98.944C99.968 99.496 99.056 100.504 98.6 101.224C96.848 99.976 95.096 98.032 93.728 95.896V102.088H90.848V96.016C89.384 98.128 87.56 99.952 85.664 101.176C85.232 100.48 84.344 99.448 83.696 98.896C85.856 97.768 87.992 95.824 89.48 93.712H84.56V91.12H90.848V88.96H86.144V80.704H98.744V88.96H93.728V91.12H99.92V93.712ZM114.488 93.328H116.84C116.864 93.112 116.864 92.896 116.864 92.68V91.168H114.488V93.328ZM121.952 91.168H119.432V92.752C119.432 92.944 119.432 93.136 119.432 93.328H121.952V91.168ZM115.304 85.192H121.112C119.936 84.232 118.856 83.152 118.112 82.12C117.44 83.128 116.456 84.208 115.304 85.192ZM124.52 95.512H120.224C121.64 98.152 123.44 99.064 125.816 99.808C125.168 100.408 124.496 101.344 124.184 102.184C121.784 101.272 119.888 100.048 118.424 97.432C117.392 99.352 115.448 101.08 111.848 102.208C111.584 101.632 110.792 100.552 110.336 100.096C114.2 98.92 115.808 97.288 116.456 95.512H112.016V89.008H116.864V87.544H113.816V86.32C113.12 86.8 112.4 87.232 111.68 87.592C111.416 86.968 110.936 86.104 110.504 85.48C110.168 86.464 109.832 87.448 109.52 88.264C111.056 90.088 111.368 91.672 111.368 93.064C111.368 94.576 111.056 95.584 110.264 96.136C109.88 96.4 109.4 96.544 108.872 96.616C108.416 96.688 107.84 96.712 107.24 96.688C107.24 95.992 107.024 94.888 106.616 94.192C107.072 94.24 107.432 94.24 107.72 94.216C107.984 94.216 108.248 94.168 108.416 94.048C108.704 93.832 108.824 93.376 108.824 92.68C108.824 91.6 108.464 90.16 107.072 88.576C107.576 87.04 108.104 84.904 108.512 83.248H106.568V102.088H104.096V80.704H109.4L109.808 80.584L111.704 81.688C111.392 82.744 111.008 83.944 110.624 85.12C113.168 83.944 115.568 81.664 116.744 79.696H119.336C120.992 81.976 123.488 83.968 125.984 84.88C125.456 85.552 124.904 86.608 124.52 87.376C123.92 87.088 123.272 86.704 122.648 86.296V87.544H119.432V89.008H124.52V95.512ZM149.985 91.552C149.985 96.616 146.889 100.192 140.841 101.128L139.041 98.272C139.953 98.176 140.625 98.032 141.273 97.888C144.345 97.168 146.745 94.96 146.745 91.456C146.745 88.144 144.945 85.672 141.705 85.12C141.369 87.16 140.961 89.368 140.265 91.624C138.825 96.472 136.761 99.448 134.145 99.448C131.481 99.448 129.273 96.52 129.273 92.464C129.273 86.92 134.073 82.192 140.289 82.192C146.241 82.192 149.985 86.32 149.985 91.552ZM132.345 92.152C132.345 94.576 133.305 95.752 134.241 95.752C135.249 95.752 136.185 94.24 137.169 91C137.721 89.224 138.177 87.184 138.441 85.192C134.481 86.008 132.345 89.512 132.345 92.152ZM159.256 98.224H170.656V95.728H159.256V98.224ZM170.656 90.616H159.256V93.088H170.656V90.616ZM170.656 85.504H159.256V87.976H170.656V85.504ZM165.472 82.768H173.704V102.04H170.656V100.864H159.256V102.064H156.352V82.768H162.496C162.76 81.736 163.024 80.584 163.144 79.624L166.6 80.008C166.24 80.968 165.856 81.904 165.472 82.768ZM187.816 98.8H195.496C197.896 98.8 198.232 98.2 198.544 94.744C199.312 95.176 200.608 95.68 201.448 95.824C200.92 100.408 199.864 101.656 195.568 101.656H187.792C183.304 101.656 181.84 100.792 181.84 97.36V88.72H195.52V83.968H181.552V81.04H198.568V92.896H195.52V91.528H184.816V97.312C184.816 98.584 185.248 98.8 187.816 98.8ZM210.664 94.216V95.608H221.128V94.216H210.664ZM216.352 83.44H211.84C211.36 84.04 210.832 84.616 210.256 85.168H215.008C215.488 84.64 215.944 84.016 216.352 83.44ZM221.128 88.744V87.376H210.664V88.744H221.128ZM221.128 92.152V90.808H210.664V92.152H221.128ZM224.104 97.84H220.096C222.424 98.728 225.064 99.856 226.624 100.648L223.408 102.088C222.088 101.296 219.688 100.12 217.384 99.208L219.496 97.84H212.008L214.456 98.944C212.488 100.24 209.44 101.464 207.04 102.184C206.536 101.608 205.456 100.504 204.808 99.976C207.16 99.496 209.776 98.704 211.432 97.84H207.832V87.28C207.496 87.544 207.136 87.784 206.752 88.048C206.272 87.376 205.288 86.416 204.64 86.008C207.688 84.232 209.824 81.808 211 79.696L214.096 80.272C213.904 80.608 213.688 80.92 213.472 81.256H217.936L218.392 81.136L220.36 82.408C219.856 83.272 219.16 84.256 218.416 85.168H224.104V97.84ZM247.96 87.352V83.848H241.936V87.352H247.96ZM247.96 93.64V90.016H241.936V93.64H247.96ZM250.816 81.208V96.28H239.2V81.208H250.816ZM238.288 89.8L238.624 92.416C237.736 92.656 236.848 92.92 235.936 93.16V98.872C235.936 100.264 235.672 100.96 234.88 101.368C234.088 101.824 232.912 101.896 231.232 101.896C231.16 101.152 230.776 100.024 230.44 99.304C231.376 99.328 232.384 99.328 232.696 99.328C233.032 99.328 233.152 99.208 233.152 98.872V93.88L230.608 94.552L229.864 91.816C230.8 91.624 231.952 91.36 233.152 91.072V86.872H230.176V84.232H233.152V79.696H235.936V84.232H238.456V86.872H235.936V90.4L238.288 89.8ZM237.544 98.632H252.28V101.296H237.544V98.632Z" fill="#E5005A"/>
</svg>
