<svg width="370" height="180" viewBox="0 0 370 180" fill="none" xmlns="http://www.w3.org/2000/svg">
<path d="M0 0H370V180H0V0Z" fill="white"/>
<mask id="mask0_1827_25386" style="mask-type:alpha" maskUnits="userSpaceOnUse" x="0" y="0" width="370" height="180">
<path d="M0 0H370V180H0V0Z" fill="white"/>
</mask>
<g mask="url(#mask0_1827_25386)">
<path fill-rule="evenodd" clip-rule="evenodd" d="M332.443 -5.01438C332.443 13.2031 318.026 49.7653 300.242 49.7653C282.458 49.7653 268.041 13.2031 268.041 -5.01438C268.041 -23.2318 282.458 -38 300.242 -38C318.026 -38 332.443 -23.2318 332.443 -5.01438ZM366.785 110.986C356.618 96.0394 324.383 74.4858 309.792 84.9014C295.201 95.3169 303.78 133.758 313.947 148.704C324.115 163.65 344.186 167.323 358.777 156.907C373.368 146.492 376.953 125.932 366.785 110.986ZM316.05 63.6223C320.543 81.2488 358.72 86.3009 375.927 81.6985C393.134 77.096 403.441 59.0759 398.948 41.4494C394.456 23.8229 376.864 13.2648 359.657 17.8672C342.45 22.4697 311.557 45.9958 316.05 63.6223ZM221.419 77.0826C238.361 82.6216 276.747 79.6693 282.155 62.3144C287.562 44.9594 257.943 19.7736 241 14.2346C224.058 8.69563 205.94 18.2744 200.533 35.6293C195.126 52.9843 204.477 71.5436 221.419 77.0826ZM283.328 82.6362C298.707 91.7839 293.252 130.818 284.322 146.572C275.392 162.327 255.685 167.682 240.306 158.534C224.926 149.387 219.698 129.2 228.628 113.445C237.558 97.6913 267.948 73.4884 283.328 82.6362Z" fill="#FAF1F5"/>
</g>
<path d="M236.687 112.808H233.207C234.119 114.032 235.055 115.664 235.415 116.768L233.447 117.608H236.687V112.808ZM233.975 105.488H242.639C240.863 104.048 239.279 102.488 238.223 101.048C237.191 102.488 235.703 104.048 233.975 105.488ZM243.023 112.808L245.759 113.816C244.847 115.136 243.911 116.6 243.071 117.608H248.495V120.056H228.191V117.608H232.871C232.511 116.528 231.719 114.92 230.879 113.744L233.063 112.808H229.391V110.36H236.687V107.984H232.271V106.808C231.143 107.624 229.919 108.392 228.695 109.04C228.335 108.368 227.543 107.336 226.919 106.736C230.999 104.744 234.839 101.144 236.615 98.2642H239.567C242.159 101.888 246.023 104.912 249.815 106.448C249.095 107.168 248.447 108.128 247.919 109.016C246.719 108.392 245.471 107.6 244.271 106.736V107.984H239.687V110.36H247.079V112.808H239.687V117.608H242.303L240.743 116.96C241.535 115.832 242.495 114.08 243.023 112.808Z" fill="#E5005A"/>
<path d="M208.559 112.904H212.711V109.256H208.559V112.904ZM223.871 112.904V115.64H215.663V120.776H212.711V115.64H201.911V112.904H205.703V106.592H212.711V103.736H207.575C206.591 105.44 205.439 106.976 204.311 108.104C203.759 107.624 202.535 106.664 201.839 106.256C203.999 104.432 205.847 101.36 206.879 98.2642L209.783 99.0082C209.567 99.6802 209.303 100.328 208.991 100.976H222.551V103.736H215.663V106.592H221.999V109.256H215.663V112.904H223.871Z" fill="#E5005A"/>
<path d="M181.367 107.432H186.023C186.023 107.432 185.999 108.2 185.975 108.56C185.711 115.928 185.447 118.736 184.775 119.648C184.295 120.296 183.815 120.536 183.119 120.632C182.519 120.752 181.607 120.776 180.647 120.728C180.599 119.936 180.335 118.856 179.927 118.136C180.695 118.232 181.367 118.232 181.727 118.232C182.039 118.232 182.231 118.16 182.447 117.872C182.831 117.368 183.095 115.376 183.263 110.024H181.199C180.863 114.248 180.047 118.064 178.031 120.776C177.599 120.104 176.759 119.24 176.039 118.784C178.463 115.568 178.679 110.312 178.751 104.84H176.423V102.2H180.383V98.3601H183.143V102.2H186.263V103.664C187.367 102.152 188.255 100.208 188.783 98.2881L191.375 98.8641C191.159 99.6321 190.871 100.424 190.559 101.168H198.311V103.736H189.311C188.687 104.816 188.015 105.8 187.343 106.568C186.863 106.136 185.759 105.392 185.111 105.032L185.303 104.84H181.439C181.415 105.704 181.391 106.568 181.367 107.432ZM198.407 113.672H194.351C195.287 115.808 196.919 117.632 199.055 118.544C198.455 119.048 197.663 120.032 197.255 120.728C195.407 119.744 193.991 118.088 192.983 116.072C192.071 117.752 190.511 119.408 187.847 120.728C187.487 120.128 186.647 119.264 186.023 118.784C189.359 117.368 190.631 115.448 191.111 113.672H186.815V111.128H191.399V108.656H190.271C189.839 109.472 189.359 110.24 188.879 110.84C188.399 110.408 187.295 109.712 186.671 109.376C187.895 108.032 188.831 105.992 189.335 103.952L191.903 104.528C191.759 105.08 191.567 105.632 191.375 106.16H198.047V108.656H194.111V111.128H198.407V113.672Z" fill="#E5005A"/>
<path d="M160.991 101.936H163.295V100.976H160.991V101.936ZM168.311 100.976H166.007V101.936H168.311V100.976ZM163.295 104.168V103.4H158.423V99.4883H163.295V98.3604H166.007V99.4883H171.095V103.4H166.007V104.168H172.871V105.968H156.671V104.168H163.295ZM157.031 102.752L154.679 104.552C154.007 103.376 152.423 101.72 151.079 100.568L153.263 98.9364C154.607 100.016 156.263 101.6 157.031 102.752ZM161.399 112.304V113.144H168.119V112.304H161.399ZM161.399 110.192V111.008H168.119V110.192H161.399ZM161.399 108.056V108.872H168.119V108.056H161.399ZM162.455 114.536L164.159 115.088C163.127 116.072 161.519 117.032 160.103 117.656C160.535 117.728 160.967 117.776 161.447 117.8C164.327 117.92 170.015 117.848 173.303 117.584C172.991 118.208 172.583 119.48 172.463 120.248C169.511 120.392 164.351 120.44 161.447 120.32C158.591 120.2 156.671 119.504 155.255 117.632C154.295 118.592 153.311 119.504 152.111 120.56L150.791 117.824C151.679 117.224 152.735 116.48 153.671 115.664V110.264H150.983V107.648H156.383V115.376C156.983 116.432 157.895 117.08 159.119 117.44C158.615 117.032 157.991 116.576 157.559 116.312C158.975 115.856 160.439 115.208 161.399 114.536H158.759V106.712H170.855V114.536H168.431C169.919 115.184 171.479 115.904 172.487 116.456L169.823 117.584C168.815 116.96 167.087 116 165.479 115.256L166.631 114.536H162.455Z" fill="#E5005A"/>
<path d="M135.091 115.832C135.091 116.72 136.075 117.32 137.515 117.32C138.019 117.32 138.475 117.296 138.907 117.248C138.763 115.688 137.875 114.68 136.579 114.68C135.667 114.68 135.091 115.232 135.091 115.832ZM131.011 100.376C131.683 100.472 132.523 100.496 133.195 100.496C134.467 100.496 139.603 100.4 140.971 100.28C141.955 100.184 142.507 100.112 142.795 100.016L144.355 102.152C143.803 102.512 143.227 102.848 142.675 103.256C141.379 104.168 138.859 106.28 137.347 107.48C138.139 107.288 138.859 107.216 139.627 107.216C143.707 107.216 146.803 109.76 146.803 113.264C146.803 117.056 143.923 120.056 138.115 120.056C134.779 120.056 132.259 118.52 132.259 116.12C132.259 114.176 134.011 112.376 136.555 112.376C139.531 112.376 141.331 114.2 141.667 116.48C142.987 115.784 143.659 114.68 143.659 113.216C143.659 111.056 141.499 109.592 138.667 109.592C134.995 109.592 132.595 111.536 130.027 114.464L127.843 112.208C129.547 110.84 132.451 108.392 133.867 107.216C135.211 106.112 137.707 104.096 138.883 103.064C137.659 103.088 134.347 103.232 133.075 103.304C132.427 103.352 131.659 103.424 131.107 103.496L131.011 100.376Z" fill="#E5005A"/>
<path d="M107.732 101.36C107.732 100.664 107.756 99.9442 107.636 99.2002L111.14 99.3202C110.996 99.9922 110.78 101.216 110.612 102.704L111.5 103.856C111.164 104.288 110.684 105.08 110.276 105.704C110.252 105.872 110.252 106.04 110.228 106.232C112.124 104.576 114.884 102.632 117.212 102.632C119.804 102.632 120.98 104.168 120.98 106.184C120.98 108.68 120.188 112.208 120.188 114.68C120.188 115.304 120.5 115.76 121.1 115.76C121.988 115.76 123.116 115.136 124.22 114.032L124.604 117.416C123.5 118.448 122.036 119.192 120.092 119.192C118.292 119.192 117.092 117.896 117.092 115.568C117.092 112.976 117.956 109.448 117.956 107.264C117.956 106.088 117.332 105.488 116.324 105.488C114.548 105.488 111.956 107.696 109.988 109.856C109.964 110.528 109.94 111.176 109.94 111.8C109.94 113.768 109.94 115.784 110.084 118.04C110.108 118.472 110.18 119.336 110.252 119.888H106.94C106.988 119.336 107.012 118.496 107.012 118.112C107.06 116.24 107.084 114.848 107.108 112.832C106.1 114.344 104.924 116.096 104.084 117.224L102.188 114.608C103.556 112.928 105.956 109.76 107.324 107.744C107.372 107.192 107.42 106.616 107.444 106.04C106.268 106.184 104.42 106.424 103.076 106.616L102.764 103.544C103.46 103.568 104.012 103.568 104.852 103.52C105.548 103.472 106.604 103.352 107.636 103.208C107.684 102.296 107.732 101.624 107.732 101.36Z" fill="#E5005A"/>
<path d="M87.17 102.32V118.112C88.754 117.224 90.146 115.928 91.322 114.296C89.858 111.632 88.826 108.416 88.082 104.792L90.818 104.24C91.298 106.808 92.018 109.232 93.026 111.344C93.962 109.28 94.682 106.88 95.09 104.192H88.01V102.32H87.17ZM81.002 112.112V114.728C82.106 114.584 83.258 114.416 84.41 114.272V112.112H81.002ZM81.002 107.168V109.568H84.41V107.168H81.002ZM84.41 102.32H81.002V104.6H84.41V102.32ZM96.362 101.312L98.234 101.768C97.73 107 96.578 111.128 94.778 114.344C95.954 115.952 97.394 117.296 99.122 118.232C98.474 118.76 97.586 119.84 97.154 120.584C95.522 119.6 94.178 118.376 93.026 116.912C91.802 118.4 90.386 119.6 88.754 120.584C88.394 119.96 87.746 119.072 87.17 118.496V120.752H84.41V116.912C81.65 117.392 78.842 117.824 76.634 118.16L76.082 115.304C76.73 115.232 77.474 115.16 78.29 115.064V102.32H76.658V99.6802H88.706V101.384H95.882L96.362 101.312Z" fill="#E5005A"/>
<path d="M69.9346 99.584C69.8626 100.112 69.8386 100.688 69.8146 101.216C69.8146 101.72 69.8146 102.968 69.8146 104.288C71.1586 104.192 72.4306 104.048 73.4146 103.856L73.3906 106.976C72.4306 107.096 71.1826 107.192 69.8386 107.264C69.8386 107.672 69.8386 108.032 69.8386 108.272C69.8386 113.936 69.4066 117.416 64.6066 120.464L61.8466 118.28C62.7586 117.872 63.9586 117.104 64.6306 116.36C66.4786 114.44 66.8626 112.304 66.8626 108.248C66.8626 108.008 66.8626 107.72 66.8626 107.384C65.9506 107.408 65.0626 107.432 64.1746 107.432C63.1426 107.432 61.6546 107.36 60.4786 107.312V104.264C61.6546 104.432 62.8306 104.528 64.1026 104.528C64.9666 104.528 65.9026 104.504 66.8146 104.48C66.7906 103.136 66.7666 101.888 66.7186 101.24C66.6706 100.64 66.5506 99.968 66.4546 99.584H69.9346ZM58.0066 99.992C57.7906 100.568 57.5506 101.432 57.4306 101.936C56.8306 104.6 55.9906 109.64 56.6386 112.616C56.9506 111.872 57.3826 110.72 57.7906 109.832L59.2786 110.792C58.5826 112.856 57.9346 115.28 57.6466 116.648C57.5506 117.008 57.5026 117.536 57.5026 117.824C57.5026 118.064 57.5266 118.472 57.5506 118.808L54.8866 119.072C54.3586 117.632 53.5186 114.272 53.5186 111.296C53.5186 107.36 53.9986 103.664 54.2866 101.72C54.4066 101.048 54.4306 100.232 54.4546 99.632L58.0066 99.992Z" fill="#E5005A"/>
<path d="M35.7174 102.224L38.0934 101.672C36.0774 101.864 33.9894 102.008 31.9494 102.104C32.5014 102.992 33.0534 104.072 33.2934 104.84L32.0454 105.2H36.6294C36.4854 104.36 36.1254 103.16 35.7174 102.224ZM29.7654 107.672V110.408H27.1014V105.2H30.5334C30.2934 104.456 29.8374 103.496 29.4054 102.728L31.5414 102.128C30.3414 102.2 29.1174 102.248 27.9654 102.272C27.9174 101.552 27.5814 100.472 27.3174 99.8483C33.6294 99.6323 40.8534 99.0563 45.2214 98.2163L47.1414 100.52C44.5494 101 41.4534 101.384 38.2614 101.672C38.7414 102.632 39.1974 103.904 39.3414 104.768L37.5654 105.2H41.7414C42.3174 104.096 42.9414 102.68 43.3014 101.6L46.3494 102.32C45.7974 103.328 45.1734 104.312 44.6214 105.2H48.0294V110.408H45.2454V107.672H29.7654ZM40.8294 112.136H33.9174C34.9014 113.216 36.1254 114.128 37.5654 114.92C38.8374 114.152 39.9654 113.24 40.8294 112.136ZM43.2054 109.4L45.1254 110.576C44.0454 112.928 42.4614 114.752 40.5174 116.168C42.8214 116.984 45.5094 117.536 48.4614 117.8C47.8614 118.448 47.0934 119.696 46.7094 120.464C43.2294 120.032 40.1334 119.216 37.5414 117.944C34.7814 119.264 31.5894 120.056 28.2054 120.512C27.9174 119.84 27.1254 118.568 26.5254 117.992C29.5254 117.68 32.3094 117.128 34.6854 116.24C33.2214 115.208 31.9494 113.936 30.8934 112.472L31.6854 112.136H30.5574V109.52H42.6774L43.2054 109.4Z" fill="#E5005A"/>
<path d="M166.187 61.8882C169.139 62.2962 173.915 62.1762 176.507 61.8642V64.9602C173.555 65.2242 169.211 65.2482 166.187 64.9602V61.8882ZM168.107 72.1362C167.915 72.9282 167.819 73.5042 167.819 74.1522C167.819 75.2082 168.731 75.8562 171.179 75.8562C173.315 75.8562 175.091 75.6642 177.203 75.2322L177.251 78.4722C175.691 78.7602 173.771 78.9282 171.059 78.9282C166.931 78.9282 164.939 77.4642 164.939 74.9922C164.939 74.0562 165.083 73.0962 165.347 71.8722L168.107 72.1362ZM162.491 60.2802C162.299 60.7842 161.987 61.9842 161.891 62.4162C161.579 64.0242 160.739 68.8242 160.739 71.2242C160.739 71.6802 160.763 72.3042 160.835 72.7842C161.195 71.9682 161.579 71.1282 161.915 70.3362L163.403 71.5122C162.731 73.5042 161.939 76.1202 161.675 77.3922C161.603 77.7522 161.555 78.2802 161.555 78.5202C161.555 78.7842 161.579 79.1682 161.603 79.5042L158.819 79.6962C158.339 78.0402 157.883 75.1122 157.883 71.8482C157.883 68.2482 158.627 64.1922 158.891 62.3442C158.963 61.6722 159.107 60.7602 159.131 59.9922L162.491 60.2802Z" fill="#E5005A"/>
<path d="M141.565 59.392C141.229 60.568 140.749 63.04 140.605 64.384C141.757 62.512 143.845 60.496 146.557 60.496C149.893 60.496 152.485 63.76 152.485 69.04C152.485 75.832 148.333 79.072 141.973 80.224L140.149 77.44C145.477 76.624 149.245 74.872 149.245 69.064C149.245 65.368 147.997 63.304 145.981 63.304C143.149 63.304 140.677 67.552 140.557 70.72C140.509 71.368 140.533 72.136 140.677 73.264L137.725 73.456C137.581 72.52 137.413 71.056 137.413 69.448C137.413 67.216 137.749 64.24 138.085 61.768C138.205 60.856 138.277 59.896 138.277 59.248L141.565 59.392Z" fill="#E5005A"/>
<path d="M124.315 72.8081C124.123 73.4801 123.979 74.2721 123.979 74.8001C123.979 75.8561 124.699 76.6481 127.267 76.6481C128.875 76.6481 130.531 76.4561 132.259 76.1441L132.139 79.2161C130.795 79.3841 129.163 79.5521 127.243 79.5521C123.211 79.5521 121.027 78.1601 121.027 75.7361C121.027 74.6321 121.267 73.4801 121.459 72.5201L124.315 72.8081ZM121.603 59.5121C121.411 60.1601 121.195 61.2401 121.099 61.7681C121.051 62.0321 120.979 62.3441 120.907 62.6801C122.251 62.4881 123.595 62.2241 124.915 61.9121V64.9121C123.475 65.2481 121.843 65.5121 120.235 65.7041C120.019 66.7361 119.779 67.7921 119.515 68.7761C118.651 72.1361 117.043 77.0321 115.699 79.8881L112.363 78.7601C113.803 76.3601 115.627 71.3201 116.515 67.9601C116.683 67.3121 116.875 66.6401 117.019 65.9441C116.467 65.9681 115.939 65.9921 115.435 65.9921C114.283 65.9921 113.371 65.9441 112.531 65.8961L112.459 62.8961C113.683 63.0401 114.499 63.0881 115.483 63.0881C116.179 63.0881 116.899 63.0641 117.643 63.0161C117.739 62.4881 117.811 62.0321 117.859 61.6481C117.955 60.7601 118.003 59.7761 117.931 59.2241L121.603 59.5121ZM123.019 66.7601C124.363 66.6401 126.091 66.5201 127.627 66.5201C128.995 66.5201 130.435 66.5921 131.851 66.7361L131.779 69.6161C130.579 69.4721 129.115 69.3281 127.651 69.3281C126.019 69.3281 124.531 69.4001 123.019 69.5681V66.7601Z" fill="#E5005A"/>
<path d="M97.3938 59.344C97.2498 59.824 97.1538 60.256 97.0578 60.616C96.9858 61.024 96.8898 61.456 96.8178 61.936C99.7458 61.816 102.338 61.504 104.978 60.88L105.002 63.664C102.65 64.096 99.4338 64.384 96.4818 64.504C96.4098 65.224 96.3378 65.968 96.3138 66.688C97.4658 66.424 98.7138 66.256 99.8898 66.256C100.034 66.256 100.178 66.256 100.322 66.256C100.418 65.776 100.514 65.176 100.538 64.816L103.466 65.512C103.37 65.776 103.178 66.28 103.034 66.736C105.818 67.648 107.666 69.832 107.666 72.616C107.666 76.024 105.674 79.312 99.7698 80.2L98.1858 77.68C102.818 77.176 104.69 74.824 104.69 72.472C104.69 71.032 103.85 69.76 102.194 69.112C100.898 72.376 98.9778 74.896 97.1538 76.408C97.3218 77.008 97.5138 77.608 97.7058 78.184L94.9458 79.024C94.8498 78.712 94.7298 78.376 94.6338 78.04C93.4578 78.616 92.1858 79 90.9138 79C89.1618 79 87.6738 77.944 87.6738 75.52C87.6738 72.424 90.2178 69.208 93.5778 67.624C93.6258 66.592 93.6978 65.584 93.7938 64.6C93.5298 64.6 93.2898 64.6 93.0258 64.6C91.7778 64.6 89.9058 64.504 88.7778 64.456L88.7058 61.672C89.5458 61.816 91.6578 62.008 93.1218 62.008C93.4578 62.008 93.7698 62.008 94.0818 62.008C94.1298 61.552 94.1778 61.12 94.2258 60.712C94.2498 60.256 94.2978 59.68 94.2738 59.272L97.3938 59.344ZM90.5058 74.896C90.5058 75.664 90.8418 76.072 91.6098 76.072C92.2818 76.072 93.1458 75.784 94.0098 75.28C93.7458 73.792 93.5538 72.136 93.5058 70.48C91.7058 71.704 90.5058 73.528 90.5058 74.896ZM96.2178 69.304C96.2178 70.768 96.3138 72.088 96.5058 73.288C97.6338 72.112 98.7138 70.648 99.5298 68.704C98.2578 68.728 97.1538 68.944 96.2178 69.232V69.304Z" fill="#E5005A"/>
<path d="M67.534 70.8164H77.326V67.8884H67.702C67.678 68.8004 67.63 69.8084 67.534 70.8164ZM77.326 62.2484H67.702V65.1764H77.326V62.2484ZM80.35 59.4644V77.1044C80.35 78.8324 79.942 79.6484 78.838 80.1284C77.686 80.6324 76.006 80.6804 73.534 80.6804C73.366 79.8404 72.79 78.4724 72.334 77.6804C74.014 77.7764 76.03 77.7524 76.558 77.7524C77.134 77.7524 77.326 77.5604 77.326 77.0564V73.5764H67.054C66.43 76.2644 65.23 78.8804 62.998 80.7524C62.566 80.1524 61.414 79.0964 60.79 78.6884C64.414 75.5924 64.75 71.0084 64.75 67.3604V59.4644H80.35Z" fill="#E5005A"/>
<path d="M47.9234 64.3122C47.7074 64.8642 47.5154 65.2962 47.3714 65.7282C47.2034 66.1602 46.9874 66.7122 46.7474 67.2642H55.5074C56.0354 67.2642 56.9954 67.2402 57.6434 67.1442V70.0722C56.8994 70.0002 55.9874 70.0002 55.5074 70.0002H52.5794C52.1714 75.0882 50.2514 78.6642 46.4114 81.0162L43.4354 79.0242C44.1074 78.7362 45.0194 78.2082 45.5954 77.7522C47.5874 76.1202 49.1714 73.8402 49.5554 70.0002H45.3554C44.4194 71.4882 43.0274 73.2882 42.0434 74.1522L39.2354 72.5202C40.7954 71.3442 42.0434 69.7602 42.8834 68.4402C43.5554 67.4082 43.9634 66.3282 44.2274 65.3682C44.3954 64.8162 44.5154 64.1202 44.5634 63.6162L47.9234 64.3122Z" fill="#E5005A"/>
<path d="M29.78 78.6642V64.2192H26V61.7622C26.738 61.7262 27.395 61.6452 27.971 61.5192C28.547 61.3932 29.06 61.1772 29.51 60.8712C29.978 60.5652 30.392 60.1332 30.752 59.5752H33.155V78.6642H29.78Z" fill="#E5005A"/>
</svg>
