<svg width="370" height="180" viewBox="0 0 370 180" fill="none" xmlns="http://www.w3.org/2000/svg">
<rect width="370" height="180" fill="white"/>
<mask id="mask0_1523_25686" style="mask-type:alpha" maskUnits="userSpaceOnUse" x="0" y="0" width="370" height="180">
<rect x="2" y="2" width="366" height="176" rx="8" fill="white" stroke="#FAF1F5" stroke-width="4"/>
</mask>
<g mask="url(#mask0_1523_25686)">
<path fill-rule="evenodd" clip-rule="evenodd" d="M332.443 -5.01438C332.443 13.2031 318.026 49.7653 300.242 49.7653C282.458 49.7653 268.041 13.2031 268.041 -5.01438C268.041 -23.2318 282.458 -38 300.242 -38C318.026 -38 332.443 -23.2318 332.443 -5.01438ZM366.785 110.986C356.618 96.0394 324.383 74.4858 309.792 84.9014C295.201 95.3169 303.78 133.758 313.947 148.704C324.115 163.65 344.186 167.323 358.777 156.907C373.368 146.492 376.953 125.932 366.785 110.986ZM316.05 63.6223C320.543 81.2488 358.72 86.3009 375.927 81.6985C393.134 77.096 403.441 59.0759 398.948 41.4494C394.456 23.8229 376.864 13.2648 359.657 17.8672C342.45 22.4697 311.557 45.9958 316.05 63.6223ZM221.419 77.0826C238.361 82.6216 276.747 79.6693 282.155 62.3144C287.562 44.9594 257.943 19.7736 241 14.2346C224.058 8.69563 205.94 18.2744 200.533 35.6293C195.126 52.9843 204.477 71.5436 221.419 77.0826ZM283.328 82.6362C298.707 91.7839 293.252 130.818 284.322 146.572C275.392 162.327 255.685 167.682 240.306 158.534C224.926 149.387 219.698 129.2 228.628 113.445C237.558 97.6913 267.948 73.4884 283.328 82.6362Z" fill="#FAF1F5"/>
</g>
<path d="M30.239 80V65.555H26.459V63.098C27.197 63.062 27.854 62.981 28.43 62.855C29.006 62.729 29.519 62.513 29.969 62.207C30.437 61.901 30.851 61.469 31.211 60.911H33.614V80H30.239ZM48.382 65.648C48.166 66.2 47.974 66.632 47.83 67.064C47.662 67.496 47.446 68.048 47.206 68.6H55.966C56.494 68.6 57.454 68.576 58.102 68.48V71.408C57.358 71.336 56.446 71.336 55.966 71.336H53.038C52.63 76.424 50.71 80 46.87 82.352L43.894 80.36C44.566 80.072 45.478 79.544 46.054 79.088C48.046 77.456 49.63 75.176 50.014 71.336H45.814C44.878 72.824 43.486 74.624 42.502 75.488L39.694 73.856C41.254 72.68 42.502 71.096 43.342 69.776C44.014 68.744 44.422 67.664 44.686 66.704C44.854 66.152 44.974 65.456 45.022 64.952L48.382 65.648ZM67.9932 72.152H77.7852V69.224H68.1612C68.1372 70.136 68.0892 71.144 67.9932 72.152ZM77.7852 63.584H68.1612V66.512H77.7852V63.584ZM80.8092 60.8V78.44C80.8092 80.168 80.4012 80.984 79.2972 81.464C78.1452 81.968 76.4652 82.016 73.9932 82.016C73.8252 81.176 73.2492 79.808 72.7932 79.016C74.4732 79.112 76.4892 79.088 77.0172 79.088C77.5932 79.088 77.7852 78.896 77.7852 78.392V74.912H67.5132C66.8892 77.6 65.6892 80.216 63.4572 82.088C63.0252 81.488 61.8732 80.432 61.2492 80.024C64.8732 76.928 65.2092 72.344 65.2092 68.696V60.8H80.8092ZM97.8531 60.68C97.7091 61.16 97.6131 61.592 97.5171 61.952C97.4451 62.36 97.3491 62.792 97.2771 63.272C100.205 63.152 102.797 62.84 105.437 62.216L105.461 65C103.109 65.432 99.8931 65.72 96.9411 65.84C96.8691 66.56 96.7971 67.304 96.7731 68.024C97.9251 67.76 99.1731 67.592 100.349 67.592C100.493 67.592 100.637 67.592 100.781 67.592C100.877 67.112 100.973 66.512 100.997 66.152L103.925 66.848C103.829 67.112 103.637 67.616 103.493 68.072C106.277 68.984 108.125 71.168 108.125 73.952C108.125 77.36 106.133 80.648 100.229 81.536L98.6451 79.016C103.277 78.512 105.149 76.16 105.149 73.808C105.149 72.368 104.309 71.096 102.653 70.448C101.357 73.712 99.4371 76.232 97.6131 77.744C97.7811 78.344 97.9731 78.944 98.1651 79.52L95.4051 80.36C95.3091 80.048 95.1891 79.712 95.0931 79.376C93.9171 79.952 92.6451 80.336 91.3731 80.336C89.6211 80.336 88.1331 79.28 88.1331 76.856C88.1331 73.76 90.6771 70.544 94.0371 68.96C94.0851 67.928 94.1571 66.92 94.2531 65.936C93.9891 65.936 93.7491 65.936 93.4851 65.936C92.2371 65.936 90.3651 65.84 89.2371 65.792L89.1651 63.008C90.0051 63.152 92.1171 63.344 93.5811 63.344C93.9171 63.344 94.2291 63.344 94.5411 63.344C94.5891 62.888 94.6371 62.456 94.6851 62.048C94.7091 61.592 94.7571 61.016 94.7331 60.608L97.8531 60.68ZM90.9651 76.232C90.9651 77 91.3011 77.408 92.0691 77.408C92.7411 77.408 93.6051 77.12 94.4691 76.616C94.2051 75.128 94.0131 73.472 93.9651 71.816C92.1651 73.04 90.9651 74.864 90.9651 76.232ZM96.6771 70.64C96.6771 72.104 96.7731 73.424 96.9651 74.624C98.0931 73.448 99.1731 71.984 99.9891 70.04C98.7171 70.064 97.6131 70.28 96.6771 70.568V70.64ZM124.774 74.144C124.582 74.816 124.438 75.608 124.438 76.136C124.438 77.192 125.158 77.984 127.726 77.984C129.334 77.984 130.99 77.792 132.718 77.48L132.598 80.552C131.254 80.72 129.622 80.888 127.702 80.888C123.67 80.888 121.486 79.496 121.486 77.072C121.486 75.968 121.726 74.816 121.918 73.856L124.774 74.144ZM122.062 60.848C121.87 61.496 121.654 62.576 121.558 63.104C121.51 63.368 121.438 63.68 121.366 64.016C122.71 63.824 124.054 63.56 125.374 63.248V66.248C123.934 66.584 122.302 66.848 120.694 67.04C120.478 68.072 120.238 69.128 119.974 70.112C119.11 73.472 117.502 78.368 116.158 81.224L112.822 80.096C114.262 77.696 116.086 72.656 116.974 69.296C117.142 68.648 117.334 67.976 117.478 67.28C116.926 67.304 116.398 67.328 115.894 67.328C114.742 67.328 113.83 67.28 112.99 67.232L112.918 64.232C114.142 64.376 114.958 64.424 115.942 64.424C116.638 64.424 117.358 64.4 118.102 64.352C118.198 63.824 118.27 63.368 118.318 62.984C118.414 62.096 118.462 61.112 118.39 60.56L122.062 60.848ZM123.478 68.096C124.822 67.976 126.55 67.856 128.086 67.856C129.454 67.856 130.894 67.928 132.31 68.072L132.238 70.952C131.038 70.808 129.574 70.664 128.11 70.664C126.478 70.664 124.99 70.736 123.478 70.904V68.096ZM142.024 60.728C141.688 61.904 141.208 64.376 141.064 65.72C142.216 63.848 144.304 61.832 147.016 61.832C150.352 61.832 152.944 65.096 152.944 70.376C152.944 77.168 148.792 80.408 142.432 81.56L140.608 78.776C145.936 77.96 149.704 76.208 149.704 70.4C149.704 66.704 148.456 64.64 146.44 64.64C143.608 64.64 141.136 68.888 141.016 72.056C140.968 72.704 140.992 73.472 141.136 74.6L138.184 74.792C138.04 73.856 137.872 72.392 137.872 70.784C137.872 68.552 138.208 65.576 138.544 63.104C138.664 62.192 138.736 61.232 138.736 60.584L142.024 60.728ZM166.646 63.224C169.598 63.632 174.374 63.512 176.966 63.2V66.296C174.014 66.56 169.67 66.584 166.646 66.296V63.224ZM168.566 73.472C168.374 74.264 168.278 74.84 168.278 75.488C168.278 76.544 169.19 77.192 171.638 77.192C173.774 77.192 175.55 77 177.662 76.568L177.71 79.808C176.15 80.096 174.23 80.264 171.518 80.264C167.39 80.264 165.398 78.8 165.398 76.328C165.398 75.392 165.542 74.432 165.806 73.208L168.566 73.472ZM162.95 61.616C162.758 62.12 162.446 63.32 162.35 63.752C162.038 65.36 161.198 70.16 161.198 72.56C161.198 73.016 161.222 73.64 161.294 74.12C161.654 73.304 162.038 72.464 162.374 71.672L163.862 72.848C163.19 74.84 162.398 77.456 162.134 78.728C162.062 79.088 162.014 79.616 162.014 79.856C162.014 80.12 162.038 80.504 162.062 80.84L159.278 81.032C158.798 79.376 158.342 76.448 158.342 73.184C158.342 69.584 159.086 65.528 159.35 63.68C159.422 63.008 159.566 62.096 159.59 61.328L162.95 61.616ZM36.176 103.56L38.552 103.008C36.536 103.2 34.448 103.344 32.408 103.44C32.96 104.328 33.512 105.408 33.752 106.176L32.504 106.536H37.088C36.944 105.696 36.584 104.496 36.176 103.56ZM30.224 109.008V111.744H27.56V106.536H30.992C30.752 105.792 30.296 104.832 29.864 104.064L32 103.464C30.8 103.536 29.576 103.584 28.424 103.608C28.376 102.888 28.04 101.808 27.776 101.184C34.088 100.968 41.312 100.392 45.68 99.552L47.6 101.856C45.008 102.336 41.912 102.72 38.72 103.008C39.2 103.968 39.656 105.24 39.8 106.104L38.024 106.536H42.2C42.776 105.432 43.4 104.016 43.76 102.936L46.808 103.656C46.256 104.664 45.632 105.648 45.08 106.536H48.488V111.744H45.704V109.008H30.224ZM41.288 113.472H34.376C35.36 114.552 36.584 115.464 38.024 116.256C39.296 115.488 40.424 114.576 41.288 113.472ZM43.664 110.736L45.584 111.912C44.504 114.264 42.92 116.088 40.976 117.504C43.28 118.32 45.968 118.872 48.92 119.136C48.32 119.784 47.552 121.032 47.168 121.8C43.688 121.368 40.592 120.552 38 119.28C35.24 120.6 32.048 121.392 28.664 121.848C28.376 121.176 27.584 119.904 26.984 119.328C29.984 119.016 32.768 118.464 35.144 117.576C33.68 116.544 32.408 115.272 31.352 113.808L32.144 113.472H31.016V110.856H43.136L43.664 110.736ZM70.3933 100.92C70.3213 101.448 70.2973 102.024 70.2733 102.552C70.2733 103.056 70.2733 104.304 70.2733 105.624C71.6173 105.528 72.8893 105.384 73.8733 105.192L73.8493 108.312C72.8893 108.432 71.6413 108.528 70.2973 108.6C70.2973 109.008 70.2973 109.368 70.2973 109.608C70.2973 115.272 69.8653 118.752 65.0653 121.8L62.3053 119.616C63.2173 119.208 64.4173 118.44 65.0893 117.696C66.9373 115.776 67.3213 113.64 67.3213 109.584C67.3213 109.344 67.3213 109.056 67.3213 108.72C66.4093 108.744 65.5213 108.768 64.6333 108.768C63.6013 108.768 62.1133 108.696 60.9373 108.648V105.6C62.1133 105.768 63.2893 105.864 64.5613 105.864C65.4253 105.864 66.3613 105.84 67.2733 105.816C67.2493 104.472 67.2253 103.224 67.1773 102.576C67.1293 101.976 67.0093 101.304 66.9133 100.92H70.3933ZM58.4653 101.328C58.2493 101.904 58.0093 102.768 57.8893 103.272C57.2893 105.936 56.4493 110.976 57.0973 113.952C57.4093 113.208 57.8413 112.056 58.2493 111.168L59.7373 112.128C59.0413 114.192 58.3933 116.616 58.1053 117.984C58.0093 118.344 57.9613 118.872 57.9613 119.16C57.9613 119.4 57.9853 119.808 58.0093 120.144L55.3453 120.408C54.8173 118.968 53.9773 115.608 53.9773 112.632C53.9773 108.696 54.4573 105 54.7453 103.056C54.8653 102.384 54.8893 101.568 54.9133 100.968L58.4653 101.328ZM87.6288 103.656V119.448C89.2128 118.56 90.6048 117.264 91.7808 115.632C90.3168 112.968 89.2848 109.752 88.5408 106.128L91.2768 105.576C91.7568 108.144 92.4768 110.568 93.4848 112.68C94.4208 110.616 95.1408 108.216 95.5488 105.528H88.4688V103.656H87.6288ZM81.4608 113.448V116.064C82.5648 115.92 83.7168 115.752 84.8688 115.608V113.448H81.4608ZM81.4608 108.504V110.904H84.8688V108.504H81.4608ZM84.8688 103.656H81.4608V105.936H84.8688V103.656ZM96.8208 102.648L98.6928 103.104C98.1888 108.336 97.0368 112.464 95.2368 115.68C96.4128 117.288 97.8528 118.632 99.5808 119.568C98.9328 120.096 98.0448 121.176 97.6128 121.92C95.9808 120.936 94.6368 119.712 93.4848 118.248C92.2608 119.736 90.8448 120.936 89.2128 121.92C88.8528 121.296 88.2048 120.408 87.6288 119.832V122.088H84.8688V118.248C82.1088 118.728 79.3008 119.16 77.0928 119.496L76.5408 116.64C77.1888 116.568 77.9328 116.496 78.7488 116.4V103.656H77.1168V101.016H89.1648V102.72H96.3408L96.8208 102.648ZM108.192 102.696C108.192 102 108.216 101.28 108.096 100.536L111.6 100.656C111.456 101.328 111.24 102.552 111.072 104.04L111.96 105.192C111.624 105.624 111.144 106.416 110.736 107.04C110.712 107.208 110.712 107.376 110.688 107.568C112.584 105.912 115.344 103.968 117.672 103.968C120.264 103.968 121.44 105.504 121.44 107.52C121.44 110.016 120.648 113.544 120.648 116.016C120.648 116.64 120.96 117.096 121.56 117.096C122.448 117.096 123.576 116.472 124.68 115.368L125.064 118.752C123.96 119.784 122.496 120.528 120.552 120.528C118.752 120.528 117.552 119.232 117.552 116.904C117.552 114.312 118.416 110.784 118.416 108.6C118.416 107.424 117.792 106.824 116.784 106.824C115.008 106.824 112.416 109.032 110.448 111.192C110.424 111.864 110.4 112.512 110.4 113.136C110.4 115.104 110.4 117.12 110.544 119.376C110.568 119.808 110.64 120.672 110.712 121.224H107.4C107.448 120.672 107.472 119.832 107.472 119.448C107.52 117.576 107.544 116.184 107.568 114.168C106.56 115.68 105.384 117.432 104.544 118.56L102.648 115.944C104.016 114.264 106.416 111.096 107.784 109.08C107.832 108.528 107.88 107.952 107.904 107.376C106.728 107.52 104.88 107.76 103.536 107.952L103.224 104.88C103.92 104.904 104.472 104.904 105.312 104.856C106.008 104.808 107.064 104.688 108.096 104.544C108.144 103.632 108.192 102.96 108.192 102.696ZM135.55 117.168C135.55 118.056 136.534 118.656 137.974 118.656C138.478 118.656 138.934 118.632 139.366 118.584C139.222 117.024 138.334 116.016 137.038 116.016C136.126 116.016 135.55 116.568 135.55 117.168ZM131.47 101.712C132.142 101.808 132.982 101.832 133.654 101.832C134.926 101.832 140.062 101.736 141.43 101.616C142.414 101.52 142.966 101.448 143.254 101.352L144.814 103.488C144.262 103.848 143.686 104.184 143.134 104.592C141.838 105.504 139.318 107.616 137.806 108.816C138.598 108.624 139.318 108.552 140.086 108.552C144.166 108.552 147.262 111.096 147.262 114.6C147.262 118.392 144.382 121.392 138.574 121.392C135.238 121.392 132.718 119.856 132.718 117.456C132.718 115.512 134.47 113.712 137.014 113.712C139.99 113.712 141.79 115.536 142.126 117.816C143.446 117.12 144.118 116.016 144.118 114.552C144.118 112.392 141.958 110.928 139.126 110.928C135.454 110.928 133.054 112.872 130.486 115.8L128.302 113.544C130.006 112.176 132.91 109.728 134.326 108.552C135.67 107.448 138.166 105.432 139.342 104.4C138.118 104.424 134.806 104.568 133.534 104.64C132.886 104.688 132.118 104.76 131.566 104.832L131.47 101.712ZM161.45 103.272H163.754V102.312H161.45V103.272ZM168.77 102.312H166.466V103.272H168.77V102.312ZM163.754 105.504V104.736H158.882V100.824H163.754V99.696H166.466V100.824H171.554V104.736H166.466V105.504H173.33V107.304H157.13V105.504H163.754ZM157.49 104.088L155.138 105.888C154.466 104.712 152.882 103.056 151.538 101.904L153.722 100.272C155.066 101.352 156.722 102.936 157.49 104.088ZM161.858 113.64V114.48H168.578V113.64H161.858ZM161.858 111.528V112.344H168.578V111.528H161.858ZM161.858 109.392V110.208H168.578V109.392H161.858ZM162.914 115.872L164.618 116.424C163.586 117.408 161.978 118.368 160.562 118.992C160.994 119.064 161.426 119.112 161.906 119.136C164.786 119.256 170.474 119.184 173.762 118.92C173.45 119.544 173.042 120.816 172.922 121.584C169.97 121.728 164.81 121.776 161.906 121.656C159.05 121.536 157.13 120.84 155.714 118.968C154.754 119.928 153.77 120.84 152.57 121.896L151.25 119.16C152.138 118.56 153.194 117.816 154.13 117V111.6H151.442V108.984H156.842V116.712C157.442 117.768 158.354 118.416 159.578 118.776C159.074 118.368 158.45 117.912 158.018 117.648C159.434 117.192 160.898 116.544 161.858 115.872H159.218V108.048H171.314V115.872H168.89C170.378 116.52 171.938 117.24 172.946 117.792L170.282 118.92C169.274 118.296 167.546 117.336 165.938 116.592L167.09 115.872H162.914ZM181.826 108.768H186.482C186.482 108.768 186.458 109.536 186.434 109.896C186.17 117.264 185.906 120.072 185.234 120.984C184.754 121.632 184.274 121.872 183.578 121.968C182.978 122.088 182.066 122.112 181.106 122.064C181.058 121.272 180.794 120.192 180.386 119.472C181.154 119.568 181.826 119.568 182.186 119.568C182.498 119.568 182.69 119.496 182.906 119.208C183.29 118.704 183.554 116.712 183.722 111.36H181.658C181.322 115.584 180.506 119.4 178.49 122.112C178.058 121.44 177.218 120.576 176.498 120.12C178.922 116.904 179.138 111.648 179.21 106.176H176.882V103.536H180.842V99.696H183.602V103.536H186.722V105C187.826 103.488 188.714 101.544 189.242 99.624L191.834 100.2C191.618 100.968 191.33 101.76 191.018 102.504H198.77V105.072H189.77C189.146 106.152 188.474 107.136 187.802 107.904C187.322 107.472 186.218 106.728 185.57 106.368L185.762 106.176H181.898C181.874 107.04 181.85 107.904 181.826 108.768ZM198.866 115.008H194.81C195.746 117.144 197.378 118.968 199.514 119.88C198.914 120.384 198.122 121.368 197.714 122.064C195.866 121.08 194.45 119.424 193.442 117.408C192.53 119.088 190.97 120.744 188.306 122.064C187.946 121.464 187.106 120.6 186.482 120.12C189.818 118.704 191.09 116.784 191.57 115.008H187.274V112.464H191.858V109.992H190.73C190.298 110.808 189.818 111.576 189.338 112.176C188.858 111.744 187.754 111.048 187.13 110.712C188.354 109.368 189.29 107.328 189.794 105.288L192.362 105.864C192.218 106.416 192.026 106.968 191.834 107.496H198.506V109.992H194.57V112.464H198.866V115.008ZM209.018 114.24H213.17V110.592H209.018V114.24ZM224.33 114.24V116.976H216.122V122.112H213.17V116.976H202.37V114.24H206.162V107.928H213.17V105.072H208.034C207.05 106.776 205.898 108.312 204.77 109.44C204.218 108.96 202.994 108 202.298 107.592C204.458 105.768 206.306 102.696 207.338 99.6L210.242 100.344C210.026 101.016 209.762 101.664 209.45 102.312H223.01V105.072H216.122V107.928H222.458V110.592H216.122V114.24H224.33ZM237.146 114.144H233.666C234.578 115.368 235.514 117 235.874 118.104L233.906 118.944H237.146V114.144ZM234.434 106.824H243.098C241.322 105.384 239.738 103.824 238.682 102.384C237.65 103.824 236.162 105.384 234.434 106.824ZM243.482 114.144L246.218 115.152C245.306 116.472 244.37 117.936 243.53 118.944H248.954V121.392H228.65V118.944H233.33C232.97 117.864 232.178 116.256 231.338 115.08L233.522 114.144H229.85V111.696H237.146V109.32H232.73V108.144C231.602 108.96 230.378 109.728 229.154 110.376C228.794 109.704 228.002 108.672 227.378 108.072C231.458 106.08 235.298 102.48 237.074 99.6H240.026C242.618 103.224 246.482 106.248 250.274 107.784C249.554 108.504 248.906 109.464 248.378 110.352C247.178 109.728 245.93 108.936 244.73 108.072V109.32H240.146V111.696H247.538V114.144H240.146V118.944H242.762L241.202 118.296C241.994 117.168 242.954 115.416 243.482 114.144Z" fill="#E5005A"/>
</svg>
