<svg width="370" height="180" viewBox="0 0 370 180" fill="none" xmlns="http://www.w3.org/2000/svg">
<rect width="370" height="180" fill="white"/>
<mask id="mask0_1523_25718" style="mask-type:alpha" maskUnits="userSpaceOnUse" x="0" y="0" width="370" height="180">
<rect x="2" y="2" width="366" height="176" rx="8" fill="white" stroke="#FAF1F5" stroke-width="4"/>
</mask>
<g mask="url(#mask0_1523_25718)">
<path fill-rule="evenodd" clip-rule="evenodd" d="M332.443 -5.01438C332.443 13.2031 318.026 49.7653 300.242 49.7653C282.458 49.7653 268.041 13.2031 268.041 -5.01438C268.041 -23.2318 282.458 -38 300.242 -38C318.026 -38 332.443 -23.2318 332.443 -5.01438ZM366.785 110.986C356.618 96.0394 324.383 74.4858 309.792 84.9014C295.201 95.3169 303.78 133.758 313.947 148.704C324.115 163.65 344.186 167.323 358.777 156.907C373.368 146.492 376.953 125.932 366.785 110.986ZM316.05 63.6223C320.543 81.2488 358.72 86.3009 375.927 81.6985C393.134 77.096 403.441 59.0759 398.948 41.4494C394.456 23.8229 376.864 13.2648 359.657 17.8672C342.45 22.4697 311.557 45.9958 316.05 63.6223ZM221.419 77.0826C238.361 82.6216 276.747 79.6693 282.155 62.3144C287.562 44.9594 257.943 19.7736 241 14.2346C224.058 8.69563 205.94 18.2744 200.533 35.6293C195.126 52.9843 204.477 71.5436 221.419 77.0826ZM283.328 82.6362C298.707 91.7839 293.252 130.818 284.322 146.572C275.392 162.327 255.685 167.682 240.306 158.534C224.926 149.387 219.698 129.2 228.628 113.445C237.558 97.6913 267.948 73.4884 283.328 82.6362Z" fill="#FAF1F5"/>
</g>
<path d="M31.888 79.065L34.418 79.893C33.82 81.388 33.107 82.952 32.279 84.424V100.455H29.68V88.426C29.105 89.162 28.53 89.852 27.932 90.473C27.679 89.806 26.92 88.334 26.46 87.667C28.599 85.597 30.692 82.331 31.888 79.065ZM37.477 82.423V85.505H44.216V82.423H37.477ZM48.08 92.474H43.48C44.837 94.475 46.815 96.361 48.747 97.488C48.126 98.017 47.252 98.983 46.815 99.673C45.136 98.477 43.457 96.614 42.146 94.567V100.501H39.386V94.682C37.983 96.706 36.235 98.454 34.418 99.627C34.004 98.96 33.153 97.971 32.532 97.442C34.602 96.361 36.649 94.498 38.075 92.474H33.36V89.99H39.386V87.92H34.878V80.008H46.953V87.92H42.146V89.99H48.08V92.474ZM62.041 92.106H64.295C64.318 91.899 64.318 91.692 64.318 91.485V90.036H62.041V92.106ZM69.194 90.036H66.779V91.554C66.779 91.738 66.779 91.922 66.779 92.106H69.194V90.036ZM62.823 84.309H68.389C67.262 83.389 66.227 82.354 65.514 81.365C64.87 82.331 63.927 83.366 62.823 84.309ZM71.655 94.199H67.538C68.895 96.729 70.62 97.603 72.897 98.316C72.276 98.891 71.632 99.788 71.333 100.593C69.033 99.719 67.216 98.546 65.813 96.039C64.824 97.879 62.961 99.535 59.511 100.616C59.258 100.064 58.499 99.029 58.062 98.592C61.765 97.465 63.306 95.901 63.927 94.199H59.672V87.966H64.318V86.563H61.397V85.39C60.73 85.85 60.04 86.264 59.35 86.609C59.097 86.011 58.637 85.183 58.223 84.585C57.901 85.528 57.579 86.471 57.28 87.253C58.752 89.001 59.051 90.519 59.051 91.853C59.051 93.302 58.752 94.268 57.993 94.797C57.625 95.05 57.165 95.188 56.659 95.257C56.222 95.326 55.67 95.349 55.095 95.326C55.095 94.659 54.888 93.601 54.497 92.934C54.934 92.98 55.279 92.98 55.555 92.957C55.808 92.957 56.061 92.911 56.222 92.796C56.498 92.589 56.613 92.152 56.613 91.485C56.613 90.45 56.268 89.07 54.934 87.552C55.417 86.08 55.923 84.033 56.314 82.446H54.451V100.501H52.082V80.008H57.165L57.556 79.893L59.373 80.951C59.074 81.963 58.706 83.113 58.338 84.24C60.776 83.113 63.076 80.928 64.203 79.042H66.687C68.274 81.227 70.666 83.136 73.058 84.01C72.552 84.654 72.023 85.666 71.655 86.402C71.08 86.126 70.459 85.758 69.861 85.367V86.563H66.779V87.966H71.655V94.199ZM84.696 92.888H81.361C82.235 94.061 83.132 95.625 83.477 96.683L81.591 97.488H84.696V92.888ZM82.097 85.873H90.4C88.698 84.493 87.18 82.998 86.168 81.618C85.179 82.998 83.753 84.493 82.097 85.873ZM90.768 92.888L93.39 93.854C92.516 95.119 91.619 96.522 90.814 97.488H96.012V99.834H76.554V97.488H81.039C80.694 96.453 79.935 94.912 79.13 93.785L81.223 92.888H77.704V90.542H84.696V88.265H80.464V87.138C79.383 87.92 78.21 88.656 77.037 89.277C76.692 88.633 75.933 87.644 75.335 87.069C79.245 85.16 82.925 81.71 84.627 78.95H87.456C89.94 82.423 93.643 85.321 97.277 86.793C96.587 87.483 95.966 88.403 95.46 89.254C94.31 88.656 93.114 87.897 91.964 87.069V88.265H87.571V90.542H94.655V92.888H87.571V97.488H90.078L88.583 96.867C89.342 95.786 90.262 94.107 90.768 92.888ZM109.354 82.423C112.183 82.814 116.76 82.699 119.244 82.4V85.367C116.415 85.62 112.252 85.643 109.354 85.367V82.423ZM111.194 92.244C111.01 93.003 110.918 93.555 110.918 94.176C110.918 95.188 111.792 95.809 114.138 95.809C116.185 95.809 117.887 95.625 119.911 95.211L119.957 98.316C118.462 98.592 116.622 98.753 114.023 98.753C110.067 98.753 108.158 97.35 108.158 94.981C108.158 94.084 108.296 93.164 108.549 91.991L111.194 92.244ZM105.812 80.882C105.628 81.365 105.329 82.515 105.237 82.929C104.938 84.47 104.133 89.07 104.133 91.37C104.133 91.807 104.156 92.405 104.225 92.865C104.57 92.083 104.938 91.278 105.26 90.519L106.686 91.646C106.042 93.555 105.283 96.062 105.03 97.281C104.961 97.626 104.915 98.132 104.915 98.362C104.915 98.615 104.938 98.983 104.961 99.305L102.293 99.489C101.833 97.902 101.396 95.096 101.396 91.968C101.396 88.518 102.109 84.631 102.362 82.86C102.431 82.216 102.569 81.342 102.592 80.606L105.812 80.882ZM133.382 80.33C133.244 80.928 133.083 81.664 132.968 82.239C132.807 82.929 132.646 83.78 132.485 84.608C133.244 84.562 133.934 84.516 134.417 84.516C136.855 84.516 138.58 85.597 138.58 88.909C138.58 91.623 138.258 95.349 137.269 97.35C136.51 98.96 135.222 99.466 133.497 99.466C132.6 99.466 131.519 99.305 130.737 99.144L130.231 96.108C131.128 96.361 132.439 96.591 133.06 96.591C133.819 96.591 134.417 96.361 134.785 95.602C135.406 94.291 135.705 91.508 135.705 89.231C135.705 87.391 134.923 87.138 133.474 87.138C133.106 87.138 132.531 87.184 131.887 87.23C131.013 90.726 129.311 96.177 127.195 99.558L124.205 98.362C126.436 95.349 128.023 90.703 128.851 87.552C128.023 87.644 127.31 87.736 126.873 87.782C126.229 87.897 125.01 88.058 124.32 88.173L124.044 85.045C124.872 85.114 125.654 85.068 126.505 85.045C127.218 85.022 128.299 84.953 129.472 84.861C129.794 83.113 129.978 81.434 129.955 79.985L133.382 80.33ZM141.294 82.492C142.72 84.47 144.652 88.863 145.342 91.048L142.421 92.405C141.823 89.852 140.19 85.689 138.557 83.665L141.294 82.492ZM157.538 80.33C157.4 80.928 157.239 81.664 157.124 82.239C156.963 82.929 156.802 83.78 156.641 84.608C157.4 84.562 158.09 84.516 158.573 84.516C161.011 84.516 162.736 85.597 162.736 88.909C162.736 91.623 162.414 95.349 161.425 97.35C160.666 98.96 159.378 99.466 157.653 99.466C156.756 99.466 155.675 99.305 154.893 99.144L154.387 96.108C155.284 96.361 156.595 96.591 157.216 96.591C157.975 96.591 158.573 96.361 158.941 95.602C159.562 94.291 159.861 91.508 159.861 89.231C159.861 87.391 159.079 87.138 157.63 87.138C157.262 87.138 156.687 87.184 156.043 87.23C155.169 90.726 153.467 96.177 151.351 99.558L148.361 98.362C150.592 95.349 152.179 90.703 153.007 87.552C152.179 87.644 151.466 87.736 151.029 87.782C150.385 87.897 149.166 88.058 148.476 88.173L148.2 85.045C149.028 85.114 149.81 85.068 150.661 85.045C151.374 85.022 152.455 84.953 153.628 84.861C153.95 83.113 154.134 81.434 154.111 79.985L157.538 80.33ZM165.45 82.492C166.876 84.47 168.808 88.863 169.498 91.048L166.577 92.405C165.979 89.852 164.346 85.689 162.713 83.665L165.45 82.492ZM179.363 95.786C179.363 96.637 180.306 97.212 181.686 97.212C182.169 97.212 182.606 97.189 183.02 97.143C182.882 95.648 182.031 94.682 180.789 94.682C179.915 94.682 179.363 95.211 179.363 95.786ZM175.453 80.974C176.097 81.066 176.902 81.089 177.546 81.089C178.765 81.089 183.687 80.997 184.998 80.882C185.941 80.79 186.47 80.721 186.746 80.629L188.241 82.676C187.712 83.021 187.16 83.343 186.631 83.734C185.389 84.608 182.974 86.632 181.525 87.782C182.284 87.598 182.974 87.529 183.71 87.529C187.62 87.529 190.587 89.967 190.587 93.325C190.587 96.959 187.827 99.834 182.261 99.834C179.064 99.834 176.649 98.362 176.649 96.062C176.649 94.199 178.328 92.474 180.766 92.474C183.618 92.474 185.343 94.222 185.665 96.407C186.93 95.74 187.574 94.682 187.574 93.279C187.574 91.209 185.504 89.806 182.79 89.806C179.271 89.806 176.971 91.669 174.51 94.475L172.417 92.313C174.05 91.002 176.833 88.656 178.19 87.529C179.478 86.471 181.87 84.539 182.997 83.55C181.824 83.573 178.65 83.711 177.431 83.78C176.81 83.826 176.074 83.895 175.545 83.964L175.453 80.974ZM203.54 91.692L201.976 93.831C201.7 93.233 201.148 92.336 200.596 91.508V100.478H197.951V92.221C197.215 93.992 196.341 95.625 195.444 96.775C195.191 95.993 194.616 94.866 194.179 94.176C195.467 92.681 196.732 90.243 197.583 88.012H194.662V85.459H197.951V82.791C196.985 82.975 196.042 83.136 195.145 83.251C195.007 82.63 194.685 81.71 194.386 81.158C196.916 80.721 199.745 80.054 201.516 79.249L203.333 81.342C202.505 81.664 201.585 81.963 200.596 82.216V85.459H203.057V88.012H200.596V88.679C201.217 89.185 203.103 91.186 203.54 91.692ZM212.142 89.093V85.965H206.461V89.093H212.142ZM212.625 97.741H213.361C213.706 97.741 213.798 97.396 213.844 95.004C214.35 95.418 215.477 95.878 216.167 96.039C215.937 99.328 215.316 100.202 213.66 100.202H212.142C210.095 100.202 209.658 99.397 209.658 97.005V91.485H208.393C208.071 95.441 207.105 98.661 202.965 100.524C202.689 99.857 201.93 98.891 201.378 98.362C204.805 96.959 205.449 94.498 205.702 91.485H203.862V83.596H205.633C205.265 82.561 204.529 81.135 203.839 80.031L206.093 79.042C206.921 80.261 207.841 81.848 208.186 82.952L206.714 83.596H212.119L210.325 82.952C210.969 81.871 211.797 80.215 212.211 79.019L215.017 79.916C214.258 81.25 213.43 82.63 212.763 83.596H214.879V91.485H212.28V96.982C212.28 97.672 212.326 97.741 212.625 97.741ZM227.966 92.888H224.631C225.505 94.061 226.402 95.625 226.747 96.683L224.861 97.488H227.966V92.888ZM225.367 85.873H233.67C231.968 84.493 230.45 82.998 229.438 81.618C228.449 82.998 227.023 84.493 225.367 85.873ZM234.038 92.888L236.66 93.854C235.786 95.119 234.889 96.522 234.084 97.488H239.282V99.834H219.824V97.488H224.309C223.964 96.453 223.205 94.912 222.4 93.785L224.493 92.888H220.974V90.542H227.966V88.265H223.734V87.138C222.653 87.92 221.48 88.656 220.307 89.277C219.962 88.633 219.203 87.644 218.605 87.069C222.515 85.16 226.195 81.71 227.897 78.95H230.726C233.21 82.423 236.913 85.321 240.547 86.793C239.857 87.483 239.236 88.403 238.73 89.254C237.58 88.656 236.384 87.897 235.234 87.069V88.265H230.841V90.542H237.925V92.888H230.841V97.488H233.348L231.853 96.867C232.612 95.786 233.532 94.107 234.038 92.888ZM252.624 82.423C255.453 82.814 260.03 82.699 262.514 82.4V85.367C259.685 85.62 255.522 85.643 252.624 85.367V82.423ZM254.464 92.244C254.28 93.003 254.188 93.555 254.188 94.176C254.188 95.188 255.062 95.809 257.408 95.809C259.455 95.809 261.157 95.625 263.181 95.211L263.227 98.316C261.732 98.592 259.892 98.753 257.293 98.753C253.337 98.753 251.428 97.35 251.428 94.981C251.428 94.084 251.566 93.164 251.819 91.991L254.464 92.244ZM249.082 80.882C248.898 81.365 248.599 82.515 248.507 82.929C248.208 84.47 247.403 89.07 247.403 91.37C247.403 91.807 247.426 92.405 247.495 92.865C247.84 92.083 248.208 91.278 248.53 90.519L249.956 91.646C249.312 93.555 248.553 96.062 248.3 97.281C248.231 97.626 248.185 98.132 248.185 98.362C248.185 98.615 248.208 98.983 248.231 99.305L245.563 99.489C245.103 97.902 244.666 95.096 244.666 91.968C244.666 88.518 245.379 84.631 245.632 82.86C245.701 82.216 245.839 81.342 245.862 80.606L249.082 80.882ZM266.909 85.896C267.76 85.758 268.91 85.436 269.738 85.206C271.509 84.654 276.201 82.998 279.559 82.998C283.722 82.998 286.988 85.39 286.988 89.645C286.988 94.866 282.02 98.201 273.924 98.615L272.59 95.556C278.823 95.395 283.699 93.601 283.699 89.599C283.699 87.437 282.204 85.781 279.444 85.781C276.063 85.781 270.612 88.081 268.22 89.116L266.909 85.896ZM295.039 82.055C294.878 82.883 294.763 84.217 294.763 84.861C294.74 86.356 294.763 88.081 294.901 89.737C295.223 93.049 295.913 95.326 297.362 95.326C298.443 95.326 299.363 92.635 299.8 90.795L302.1 93.601C300.582 97.603 299.133 99.006 297.293 99.006C294.763 99.006 292.578 96.729 291.934 90.565C291.704 88.449 291.681 85.758 291.681 84.355C291.681 83.711 291.635 82.722 291.497 82.009L295.039 82.055ZM306.539 82.584C308.724 85.229 310.472 90.979 310.725 94.498L307.712 95.671C307.344 91.968 306.125 86.379 303.618 83.527L306.539 82.584ZM313.163 82.676C314.083 82.653 314.98 82.607 315.44 82.561C317.349 82.4 321.144 82.055 325.353 81.687C327.722 81.503 330.252 81.342 331.862 81.296L331.885 84.24C330.643 84.263 328.665 84.263 327.446 84.539C324.663 85.275 322.593 88.265 322.593 91.002C322.593 94.774 326.135 96.154 330.022 96.361L328.941 99.512C324.134 99.19 319.58 96.591 319.58 91.623C319.58 88.311 321.443 85.689 322.984 84.516C320.822 84.746 316.13 85.252 313.462 85.827L313.163 82.676Z" fill="#E5005A"/>
</svg>
