<svg width="370" height="180" viewBox="0 0 370 180" fill="none" xmlns="http://www.w3.org/2000/svg">
<path d="M0 0H370V180H0V0Z" fill="white"/>
<mask id="mask0_1827_25410" style="mask-type:alpha" maskUnits="userSpaceOnUse" x="0" y="0" width="370" height="180">
<path d="M0 0H370V180H0V0Z" fill="white"/>
</mask>
<g mask="url(#mask0_1827_25410)">
<path fill-rule="evenodd" clip-rule="evenodd" d="M332.443 -5.01438C332.443 13.2031 318.026 49.7653 300.242 49.7653C282.458 49.7653 268.041 13.2031 268.041 -5.01438C268.041 -23.2318 282.458 -38 300.242 -38C318.026 -38 332.443 -23.2318 332.443 -5.01438ZM366.785 110.986C356.618 96.0394 324.383 74.4858 309.792 84.9014C295.201 95.3169 303.78 133.758 313.947 148.704C324.115 163.65 344.186 167.323 358.777 156.907C373.368 146.492 376.953 125.932 366.785 110.986ZM316.05 63.6223C320.543 81.2488 358.72 86.3009 375.927 81.6985C393.134 77.096 403.441 59.0759 398.948 41.4494C394.456 23.8229 376.864 13.2648 359.657 17.8672C342.45 22.4697 311.557 45.9958 316.05 63.6223ZM221.419 77.0826C238.361 82.6216 276.747 79.6693 282.155 62.3144C287.562 44.9594 257.943 19.7736 241 14.2346C224.058 8.69563 205.94 18.2744 200.533 35.6293C195.126 52.9843 204.477 71.5436 221.419 77.0826ZM283.328 82.6362C298.707 91.7839 293.252 130.818 284.322 146.572C275.392 162.327 255.685 167.682 240.306 158.534C224.926 149.387 219.698 129.2 228.628 113.445C237.558 97.6913 267.948 73.4884 283.328 82.6362Z" fill="#FAF1F5"/>
</g>
<path d="M312.703 82.8932C313.623 82.8702 314.52 82.8242 314.98 82.7782C316.889 82.6172 320.684 82.2722 324.893 81.9042C327.262 81.7202 329.792 81.5592 331.402 81.5132L331.425 84.4572C330.183 84.4802 328.205 84.4802 326.986 84.7562C324.203 85.4922 322.133 88.4822 322.133 91.2192C322.133 94.9912 325.675 96.3712 329.562 96.5782L328.481 99.7292C323.674 99.4072 319.12 96.8082 319.12 91.8402C319.12 88.5282 320.983 85.9062 322.524 84.7332C320.362 84.9632 315.67 85.4692 313.002 86.0442L312.703 82.8932Z" fill="#E5005A"/>
<path d="M294.579 82.2721C294.418 83.1001 294.303 84.4341 294.303 85.0781C294.28 86.5731 294.303 88.2981 294.441 89.9541C294.763 93.2661 295.453 95.5431 296.902 95.5431C297.983 95.5431 298.903 92.8521 299.34 91.0121L301.64 93.8181C300.122 97.8201 298.673 99.2231 296.833 99.2231C294.303 99.2231 292.118 96.9461 291.474 90.7821C291.244 88.6661 291.221 85.9751 291.221 84.5721C291.221 83.9281 291.175 82.9391 291.037 82.2261L294.579 82.2721ZM306.079 82.8011C308.264 85.4461 310.012 91.1961 310.265 94.7151L307.252 95.8881C306.884 92.1851 305.665 86.5961 303.158 83.7441L306.079 82.8011Z" fill="#E5005A"/>
<path d="M266.449 86.1128C267.3 85.9748 268.45 85.6528 269.278 85.4228C271.049 84.8708 275.741 83.2148 279.099 83.2148C283.262 83.2148 286.528 85.6068 286.528 89.8618C286.528 95.0828 281.56 98.4178 273.464 98.8318L272.13 95.7728C278.363 95.6118 283.239 93.8178 283.239 89.8158C283.239 87.6538 281.744 85.9978 278.984 85.9978C275.603 85.9978 270.152 88.2978 267.76 89.3328L266.449 86.1128Z" fill="#E5005A"/>
<path d="M252.164 82.6398C254.993 83.0308 259.57 82.9158 262.054 82.6168V85.5838C259.225 85.8368 255.062 85.8598 252.164 85.5838V82.6398ZM254.004 92.4608C253.82 93.2198 253.728 93.7718 253.728 94.3928C253.728 95.4048 254.602 96.0258 256.948 96.0258C258.995 96.0258 260.697 95.8418 262.721 95.4278L262.767 98.5328C261.272 98.8088 259.432 98.9698 256.833 98.9698C252.877 98.9698 250.968 97.5668 250.968 95.1978C250.968 94.3008 251.106 93.3808 251.359 92.2078L254.004 92.4608ZM248.622 81.0988C248.438 81.5818 248.139 82.7318 248.047 83.1458C247.748 84.6868 246.943 89.2868 246.943 91.5868C246.943 92.0238 246.966 92.6218 247.035 93.0818C247.38 92.2998 247.748 91.4948 248.07 90.7358L249.496 91.8628C248.852 93.7718 248.093 96.2788 247.84 97.4978C247.771 97.8428 247.725 98.3488 247.725 98.5788C247.725 98.8318 247.748 99.1998 247.771 99.5218L245.103 99.7058C244.643 98.1188 244.206 95.3128 244.206 92.1848C244.206 88.7348 244.919 84.8478 245.172 83.0768C245.241 82.4328 245.379 81.5588 245.402 80.8228L248.622 81.0988Z" fill="#E5005A"/>
<path d="M227.507 93.105H224.172C225.046 94.278 225.943 95.842 226.288 96.9L224.402 97.705H227.507V93.105ZM224.908 86.09H233.211C231.509 84.71 229.991 83.215 228.979 81.835C227.99 83.215 226.564 84.71 224.908 86.09ZM233.579 93.105L236.201 94.071C235.327 95.336 234.43 96.739 233.625 97.705H238.823V100.051H219.365V97.705H223.85C223.505 96.67 222.746 95.129 221.941 94.002L224.034 93.105H220.515V90.759H227.507V88.482H223.275V87.355C222.194 88.137 221.021 88.873 219.848 89.494C219.503 88.85 218.744 87.861 218.146 87.286C222.056 85.377 225.736 81.927 227.438 79.167H230.267C232.751 82.64 236.454 85.538 240.088 87.01C239.398 87.7 238.777 88.62 238.271 89.471C237.121 88.873 235.925 88.114 234.775 87.286V88.482H230.382V90.759H237.466V93.105H230.382V97.705H232.889L231.394 97.084C232.153 96.003 233.073 94.324 233.579 93.105Z" fill="#E5005A"/>
<path d="M203.08 91.9088L201.516 94.0478C201.24 93.4498 200.688 92.5528 200.136 91.7248V100.695H197.491V92.4378C196.755 94.2088 195.881 95.8418 194.984 96.9918C194.731 96.2098 194.156 95.0828 193.719 94.3928C195.007 92.8978 196.272 90.4598 197.123 88.2288H194.202V85.6758H197.491V83.0078C196.525 83.1918 195.582 83.3528 194.685 83.4678C194.547 82.8468 194.225 81.9268 193.926 81.3748C196.456 80.9378 199.285 80.2708 201.056 79.4658L202.873 81.5588C202.045 81.8808 201.125 82.1798 200.136 82.4328V85.6758H202.597V88.2288H200.136V88.8958C200.757 89.4018 202.643 91.4028 203.08 91.9088ZM211.682 89.3098V86.1818H206.001V89.3098H211.682ZM212.165 97.9578H212.901C213.246 97.9578 213.338 97.6128 213.384 95.2208C213.89 95.6348 215.017 96.0948 215.707 96.2558C215.477 99.5448 214.856 100.419 213.2 100.419H211.682C209.635 100.419 209.198 99.6138 209.198 97.2218V91.7018H207.933C207.611 95.6578 206.645 98.8778 202.505 100.741C202.229 100.074 201.47 99.1078 200.918 98.5788C204.345 97.1758 204.989 94.7148 205.242 91.7018H203.402V83.8128H205.173C204.805 82.7778 204.069 81.3518 203.379 80.2478L205.633 79.2588C206.461 80.4778 207.381 82.0648 207.726 83.1688L206.254 83.8128H211.659L209.865 83.1688C210.509 82.0878 211.337 80.4318 211.751 79.2358L214.557 80.1328C213.798 81.4668 212.97 82.8468 212.303 83.8128H214.419V91.7018H211.82V97.1988C211.82 97.8888 211.866 97.9578 212.165 97.9578Z" fill="#E5005A"/>
<path d="M178.903 96.0032C178.903 96.8542 179.846 97.4292 181.226 97.4292C181.709 97.4292 182.146 97.4062 182.56 97.3602C182.422 95.8652 181.571 94.8992 180.329 94.8992C179.455 94.8992 178.903 95.4282 178.903 96.0032ZM174.993 81.1912C175.637 81.2832 176.442 81.3062 177.086 81.3062C178.305 81.3062 183.227 81.2142 184.538 81.0992C185.481 81.0072 186.01 80.9382 186.286 80.8462L187.781 82.8932C187.252 83.2382 186.7 83.5602 186.171 83.9512C184.929 84.8252 182.514 86.8492 181.065 87.9992C181.824 87.8152 182.514 87.7462 183.25 87.7462C187.16 87.7462 190.127 90.1842 190.127 93.5422C190.127 97.1762 187.367 100.051 181.801 100.051C178.604 100.051 176.189 98.5792 176.189 96.2792C176.189 94.4162 177.868 92.6912 180.306 92.6912C183.158 92.6912 184.883 94.4392 185.205 96.6242C186.47 95.9572 187.114 94.8992 187.114 93.4962C187.114 91.4262 185.044 90.0232 182.33 90.0232C178.811 90.0232 176.511 91.8862 174.05 94.6922L171.957 92.5302C173.59 91.2192 176.373 88.8732 177.73 87.7462C179.018 86.6882 181.41 84.7562 182.537 83.7672C181.364 83.7902 178.19 83.9282 176.971 83.9972C176.35 84.0432 175.614 84.1122 175.085 84.1812L174.993 81.1912Z" fill="#E5005A"/>
<path d="M157.077 80.5471C156.939 81.1451 156.778 81.8811 156.663 82.4561C156.502 83.1461 156.341 83.9971 156.18 84.8251C156.939 84.7792 157.629 84.7331 158.112 84.7331C160.55 84.7331 162.275 85.8141 162.275 89.1261C162.275 91.8401 161.953 95.5661 160.964 97.5672C160.205 99.1772 158.917 99.6831 157.192 99.6831C156.295 99.6831 155.214 99.5221 154.432 99.3611L153.926 96.3251C154.823 96.5781 156.134 96.8081 156.755 96.8081C157.514 96.8081 158.112 96.5781 158.48 95.8191C159.101 94.5081 159.4 91.7251 159.4 89.4481C159.4 87.6082 158.618 87.3551 157.169 87.3551C156.801 87.3551 156.226 87.4011 155.582 87.4471C154.708 90.9431 153.006 96.3942 150.89 99.7752L147.9 98.5791C150.131 95.5661 151.718 90.9201 152.546 87.7691C151.718 87.8611 151.005 87.9531 150.568 87.9991C149.924 88.1141 148.705 88.2751 148.015 88.3901L147.739 85.2621C148.567 85.3311 149.349 85.2851 150.2 85.2621C150.913 85.2391 151.994 85.1701 153.167 85.0781C153.489 83.3301 153.673 81.6511 153.65 80.2021L157.077 80.5471ZM164.989 82.7091C166.415 84.6871 168.347 89.0801 169.037 91.2652L166.116 92.6221C165.518 90.0691 163.885 85.9061 162.252 83.8821L164.989 82.7091Z" fill="#E5005A"/>
<path d="M132.922 80.5471C132.784 81.1451 132.623 81.8811 132.508 82.4561C132.347 83.1461 132.186 83.9971 132.025 84.8251C132.784 84.7792 133.474 84.7331 133.957 84.7331C136.395 84.7331 138.12 85.8141 138.12 89.1261C138.12 91.8401 137.798 95.5661 136.809 97.5672C136.05 99.1772 134.762 99.6831 133.037 99.6831C132.14 99.6831 131.059 99.5221 130.277 99.3611L129.771 96.3251C130.668 96.5781 131.979 96.8081 132.6 96.8081C133.359 96.8081 133.957 96.5781 134.325 95.8191C134.946 94.5081 135.245 91.7251 135.245 89.4481C135.245 87.6082 134.463 87.3551 133.014 87.3551C132.646 87.3551 132.071 87.4011 131.427 87.4471C130.553 90.9431 128.851 96.3942 126.735 99.7752L123.745 98.5791C125.976 95.5661 127.563 90.9201 128.391 87.7691C127.563 87.8611 126.85 87.9531 126.413 87.9991C125.769 88.1141 124.55 88.2751 123.86 88.3901L123.584 85.2621C124.412 85.3311 125.194 85.2851 126.045 85.2621C126.758 85.2391 127.839 85.1701 129.012 85.0781C129.334 83.3301 129.518 81.6511 129.495 80.2021L132.922 80.5471ZM140.834 82.7091C142.26 84.6871 144.192 89.0801 144.882 91.2652L141.961 92.6221C141.363 90.0691 139.73 85.9061 138.097 83.8821L140.834 82.7091Z" fill="#E5005A"/>
<path d="M108.895 82.6398C111.724 83.0308 116.301 82.9158 118.785 82.6168V85.5838C115.956 85.8368 111.793 85.8598 108.895 85.5838V82.6398ZM110.735 92.4608C110.551 93.2198 110.459 93.7718 110.459 94.3928C110.459 95.4048 111.333 96.0258 113.679 96.0258C115.726 96.0258 117.428 95.8418 119.452 95.4278L119.498 98.5328C118.003 98.8088 116.163 98.9698 113.564 98.9698C109.608 98.9698 107.699 97.5668 107.699 95.1978C107.699 94.3008 107.837 93.3808 108.09 92.2078L110.735 92.4608ZM105.353 81.0988C105.169 81.5818 104.87 82.7318 104.778 83.1458C104.479 84.6868 103.674 89.2868 103.674 91.5868C103.674 92.0238 103.697 92.6218 103.766 93.0818C104.111 92.2998 104.479 91.4948 104.801 90.7358L106.227 91.8628C105.583 93.7718 104.824 96.2788 104.571 97.4978C104.502 97.8428 104.456 98.3488 104.456 98.5788C104.456 98.8318 104.479 99.1998 104.502 99.5218L101.834 99.7058C101.374 98.1188 100.937 95.3128 100.937 92.1848C100.937 88.7348 101.65 84.8478 101.903 83.0768C101.972 82.4328 102.11 81.5588 102.133 80.8228L105.353 81.0988Z" fill="#E5005A"/>
<path d="M84.236 93.105H80.901C81.775 94.278 82.672 95.842 83.017 96.9L81.131 97.705H84.236V93.105ZM81.637 86.09H89.94C88.238 84.71 86.72 83.215 85.708 81.835C84.719 83.215 83.293 84.71 81.637 86.09ZM90.308 93.105L92.93 94.071C92.056 95.336 91.159 96.739 90.354 97.705H95.552V100.051H76.094V97.705H80.579C80.234 96.67 79.475 95.129 78.67 94.002L80.763 93.105H77.244V90.759H84.236V88.482H80.004V87.355C78.923 88.137 77.75 88.873 76.577 89.494C76.232 88.85 75.473 87.861 74.875 87.286C78.785 85.377 82.465 81.927 84.167 79.167H86.996C89.48 82.64 93.183 85.538 96.817 87.01C96.127 87.7 95.506 88.62 95 89.471C93.85 88.873 92.654 88.114 91.504 87.286V88.482H87.111V90.759H94.195V93.105H87.111V97.705H89.618L88.123 97.084C88.882 96.003 89.802 94.324 90.308 93.105Z" fill="#E5005A"/>
<path d="M61.5811 92.3228H63.8351C63.8581 92.1158 63.8581 91.9088 63.8581 91.7018V90.2528H61.5811V92.3228ZM68.7341 90.2528H66.3191V91.7708C66.3191 91.9548 66.3191 92.1388 66.3191 92.3228H68.7341V90.2528ZM62.3631 84.5258H67.9291C66.8021 83.6058 65.7671 82.5708 65.0541 81.5818C64.4101 82.5478 63.4671 83.5828 62.3631 84.5258ZM71.1951 94.4158H67.0781C68.4351 96.9458 70.1601 97.8198 72.4371 98.5328C71.8161 99.1078 71.1721 100.005 70.8731 100.81C68.5731 99.9358 66.7561 98.7628 65.3531 96.2558C64.3641 98.0958 62.5011 99.7518 59.0511 100.833C58.7981 100.281 58.0391 99.2458 57.6021 98.8088C61.3051 97.6818 62.8461 96.1178 63.4671 94.4158H59.2121V88.1828H63.8581V86.7798H60.9371V85.6068C60.2701 86.0668 59.5801 86.4808 58.8901 86.8258C58.6371 86.2278 58.1771 85.3998 57.7631 84.8018C57.4411 85.7448 57.1191 86.6878 56.8201 87.4698C58.2921 89.2178 58.5911 90.7358 58.5911 92.0698C58.5911 93.5188 58.2921 94.4848 57.5331 95.0138C57.1651 95.2668 56.7051 95.4048 56.1991 95.4738C55.7621 95.5428 55.2101 95.5658 54.6351 95.5428C54.6351 94.8758 54.4281 93.8178 54.0371 93.1508C54.4741 93.1968 54.8191 93.1968 55.0951 93.1738C55.3481 93.1738 55.6011 93.1278 55.7621 93.0128C56.0381 92.8058 56.1531 92.3688 56.1531 91.7018C56.1531 90.6668 55.8081 89.2868 54.4741 87.7688C54.9571 86.2968 55.4631 84.2498 55.8541 82.6628H53.9911V100.718H51.6221V80.2248H56.7051L57.0961 80.1098L58.9131 81.1678C58.6141 82.1798 58.2461 83.3298 57.8781 84.4568C60.3161 83.3298 62.6161 81.1448 63.7431 79.2588H66.2271C67.8141 81.4438 70.2061 83.3528 72.5981 84.2268C72.0921 84.8708 71.5631 85.8828 71.1951 86.6188C70.6201 86.3428 69.9991 85.9748 69.4011 85.5838V86.7798H66.3191V88.1828H71.1951V94.4158Z" fill="#E5005A"/>
<path d="M31.428 79.2822L33.958 80.1102C33.36 81.6052 32.647 83.1692 31.819 84.6412V100.672H29.22V88.6432C28.645 89.3792 28.07 90.0692 27.472 90.6902C27.219 90.0232 26.46 88.5512 26 87.8842C28.139 85.8142 30.232 82.5482 31.428 79.2822ZM37.017 82.6402V85.7222H43.756V82.6402H37.017ZM47.62 92.6912H43.02C44.377 94.6922 46.355 96.5782 48.287 97.7052C47.666 98.2342 46.792 99.2002 46.355 99.8902C44.676 98.6942 42.997 96.8312 41.686 94.7842V100.718H38.926V94.8992C37.523 96.9232 35.775 98.6712 33.958 99.8442C33.544 99.1772 32.693 98.1882 32.072 97.6592C34.142 96.5782 36.189 94.7152 37.615 92.6912H32.9V90.2072H38.926V88.1372H34.418V80.2252H46.493V88.1372H41.686V90.2072H47.62V92.6912Z" fill="#E5005A"/>
</svg>
