<svg width="196" height="120" viewBox="0 0 196 120" fill="none" xmlns="http://www.w3.org/2000/svg">
<path d="M0 0H196V120H0V0Z" fill="white"/>
<mask id="mask0_1827_25478" style="mask-type:alpha" maskUnits="userSpaceOnUse" x="0" y="0" width="196" height="120">
<path d="M0 0H196V120H0V0Z" fill="white"/>
</mask>
<g mask="url(#mask0_1827_25478)">
<path fill-rule="evenodd" clip-rule="evenodd" d="M165.634 15.6622C165.634 27.6259 156.166 51.6369 144.487 51.6369C132.808 51.6369 123.34 27.6259 123.34 15.6622C123.34 3.6985 132.808 -6 144.487 -6C156.166 -6 165.634 3.6985 165.634 15.6622ZM188.187 91.8413C181.51 82.0258 160.341 67.8713 150.759 74.7113C141.177 81.5514 146.81 106.796 153.488 116.611C160.165 126.427 173.346 128.839 182.928 121.999C192.51 115.159 194.865 101.657 188.187 91.8413ZM154.869 60.737C157.819 72.3126 182.891 75.6304 194.191 72.6079C205.491 69.5855 212.26 57.7514 209.309 46.1757C206.359 34.6001 194.806 27.6664 183.506 30.6889C172.206 33.7114 151.918 49.1614 154.869 60.737ZM92.7229 69.5766C103.849 73.2142 129.058 71.2754 132.609 59.8781C136.16 48.4808 116.709 31.9409 105.582 28.3033C94.4561 24.6658 82.5579 30.9563 79.0069 42.3536C75.4558 53.7509 81.5967 65.9391 92.7229 69.5766ZM133.379 73.2237C143.479 79.2312 139.897 104.866 134.032 115.212C128.168 125.558 115.226 129.075 105.126 123.067C95.0261 117.06 91.5926 103.803 97.4572 93.4567C103.322 83.1107 123.279 67.2163 133.379 73.2237Z" fill="#FAF1F5"/>
</g>
<path d="M102.335 68.3037C103.015 68.2867 103.678 68.2527 104.018 68.2187C105.429 68.0997 108.234 67.8447 111.345 67.5727C113.096 67.4367 114.966 67.3177 116.156 67.2837L116.173 69.4597C115.255 69.4767 113.793 69.4767 112.892 69.6807C110.835 70.2247 109.305 72.4347 109.305 74.4577C109.305 77.2457 111.923 78.2657 114.796 78.4187L113.997 80.7477C110.444 80.5097 107.078 78.5887 107.078 74.9167C107.078 72.4687 108.455 70.5307 109.594 69.6637C107.996 69.8337 104.528 70.2077 102.556 70.6327L102.335 68.3037Z" fill="#E5005A"/>
<path d="M88.9393 67.845C88.8203 68.457 88.7353 69.443 88.7353 69.919C88.7183 71.024 88.7353 72.299 88.8373 73.523C89.0753 75.971 89.5853 77.654 90.6563 77.654C91.4553 77.654 92.1353 75.665 92.4583 74.305L94.1583 76.379C93.0363 79.337 91.9653 80.374 90.6053 80.374C88.7353 80.374 87.1203 78.691 86.6443 74.135C86.4743 72.571 86.4573 70.582 86.4573 69.545C86.4573 69.069 86.4233 68.338 86.3213 67.811L88.9393 67.845ZM97.4393 68.236C99.0543 70.191 100.346 74.441 100.533 77.042L98.3063 77.909C98.0343 75.172 97.1333 71.041 95.2803 68.933L97.4393 68.236Z" fill="#E5005A"/>
<path d="M68.1475 70.684C68.7765 70.582 69.6265 70.344 70.2385 70.174C71.5475 69.766 75.0155 68.542 77.4975 68.542C80.5745 68.542 82.9885 70.31 82.9885 73.455C82.9885 77.314 79.3165 79.779 73.3325 80.085L72.3465 77.824C76.9535 77.705 80.5575 76.379 80.5575 73.421C80.5575 71.823 79.4525 70.599 77.4125 70.599C74.9135 70.599 70.8845 72.299 69.1165 73.064L68.1475 70.684Z" fill="#E5005A"/>
<path d="M57.589 68.1169C59.68 68.4059 63.063 68.3209 64.899 68.0999V70.2929C62.808 70.4799 59.731 70.4969 57.589 70.2929V68.1169ZM58.949 75.3759C58.813 75.9369 58.745 76.3449 58.745 76.8039C58.745 77.5519 59.391 78.0109 61.125 78.0109C62.638 78.0109 63.896 77.8749 65.392 77.5689L65.426 79.8639C64.321 80.0679 62.961 80.1869 61.04 80.1869C58.116 80.1869 56.705 79.1499 56.705 77.3989C56.705 76.7359 56.807 76.0559 56.994 75.1889L58.949 75.3759ZM54.971 66.9779C54.835 67.3349 54.614 68.1849 54.546 68.4909C54.325 69.6299 53.73 73.0299 53.73 74.7299C53.73 75.0529 53.747 75.4949 53.798 75.8349C54.053 75.2569 54.325 74.6619 54.563 74.1009L55.617 74.9339C55.141 76.3449 54.58 78.1979 54.393 79.0989C54.342 79.3539 54.308 79.7279 54.308 79.8979C54.308 80.0849 54.325 80.3569 54.342 80.5949L52.37 80.7309C52.03 79.5579 51.707 77.4839 51.707 75.1719C51.707 72.6219 52.234 69.7489 52.421 68.4399C52.472 67.9639 52.574 67.3179 52.591 66.7739L54.971 66.9779Z" fill="#E5005A"/>
<path d="M39.3643 75.8518H36.8993C37.5453 76.7188 38.2083 77.8748 38.4633 78.6568L37.0693 79.2518H39.3643V75.8518ZM37.4433 70.6668H43.5803C42.3223 69.6468 41.2003 68.5418 40.4523 67.5218C39.7213 68.5418 38.6673 69.6468 37.4433 70.6668ZM43.8523 75.8518L45.7903 76.5658C45.1443 77.5008 44.4813 78.5378 43.8863 79.2518H47.7283V80.9858H33.3463V79.2518H36.6613C36.4063 78.4868 35.8453 77.3478 35.2503 76.5148L36.7973 75.8518H34.1963V74.1178H39.3643V72.4348H36.2363V71.6018C35.4373 72.1798 34.5703 72.7238 33.7033 73.1828C33.4483 72.7068 32.8873 71.9758 32.4453 71.5508C35.3353 70.1398 38.0553 67.5898 39.3133 65.5498H41.4043C43.2403 68.1168 45.9773 70.2588 48.6633 71.3468C48.1533 71.8568 47.6943 72.5368 47.3203 73.1658C46.4703 72.7238 45.5863 72.1628 44.7363 71.5508V72.4348H41.4893V74.1178H46.7253V75.8518H41.4893V79.2518H43.3423L42.2373 78.7928C42.7983 77.9938 43.4783 76.7528 43.8523 75.8518Z" fill="#E5005A"/>
<path d="M21.3096 74.9676L20.1536 76.5486C19.9496 76.1066 19.5416 75.4436 19.1336 74.8316V81.4616H17.1786V75.3586C16.6346 76.6676 15.9886 77.8746 15.3256 78.7246C15.1386 78.1466 14.7136 77.3136 14.3906 76.8036C15.3426 75.6986 16.2776 73.8966 16.9066 72.2476H14.7476V70.3606H17.1786V68.3886C16.4646 68.5246 15.7676 68.6436 15.1046 68.7286C15.0026 68.2696 14.7646 67.5896 14.5436 67.1816C16.4136 66.8586 18.5046 66.3656 19.8136 65.7706L21.1566 67.3176C20.5446 67.5556 19.8646 67.7766 19.1336 67.9636V70.3606H20.9526V72.2476H19.1336V72.7406C19.5926 73.1146 20.9866 74.5936 21.3096 74.9676ZM27.6676 73.0466V70.7346H23.4686V73.0466H27.6676ZM28.0246 79.4386H28.5686C28.8236 79.4386 28.8916 79.1836 28.9256 77.4156C29.2996 77.7216 30.1326 78.0616 30.6426 78.1806C30.4726 80.6116 30.0136 81.2576 28.7896 81.2576H27.6676C26.1546 81.2576 25.8316 80.6626 25.8316 78.8946V74.8146H24.8966C24.6586 77.7386 23.9446 80.1186 20.8846 81.4956C20.6806 81.0026 20.1196 80.2886 19.7116 79.8976C22.2446 78.8606 22.7206 77.0416 22.9076 74.8146H21.5476V68.9836H22.8566C22.5846 68.2186 22.0406 67.1646 21.5306 66.3486L23.1966 65.6176C23.8086 66.5186 24.4886 67.6916 24.7436 68.5076L23.6556 68.9836H27.6506L26.3246 68.5076C26.8006 67.7086 27.4126 66.4846 27.7186 65.6006L29.7926 66.2636C29.2316 67.2496 28.6196 68.2696 28.1266 68.9836H29.6906V74.8146H27.7696V78.8776C27.7696 79.3876 27.8036 79.4386 28.0246 79.4386Z" fill="#E5005A"/>
<path d="M127.356 51.994C127.356 52.623 128.053 53.048 129.073 53.048C129.43 53.048 129.753 53.031 130.059 52.997C129.957 51.892 129.328 51.178 128.41 51.178C127.764 51.178 127.356 51.569 127.356 51.994ZM124.466 41.046C124.942 41.114 125.537 41.131 126.013 41.131C126.914 41.131 130.552 41.063 131.521 40.978C132.218 40.91 132.609 40.859 132.813 40.791L133.918 42.304C133.527 42.559 133.119 42.797 132.728 43.086C131.81 43.732 130.025 45.228 128.954 46.078C129.515 45.942 130.025 45.891 130.569 45.891C133.459 45.891 135.652 47.693 135.652 50.175C135.652 52.861 133.612 54.986 129.498 54.986C127.135 54.986 125.35 53.898 125.35 52.198C125.35 50.821 126.591 49.546 128.393 49.546C130.501 49.546 131.776 50.838 132.014 52.453C132.949 51.96 133.425 51.178 133.425 50.141C133.425 48.611 131.895 47.574 129.889 47.574C127.288 47.574 125.588 48.951 123.769 51.025L122.222 49.427C123.429 48.458 125.486 46.724 126.489 45.891C127.441 45.109 129.209 43.681 130.042 42.95C129.175 42.967 126.829 43.069 125.928 43.12C125.469 43.154 124.925 43.205 124.534 43.256L124.466 41.046Z" fill="#E5005A"/>
<path d="M111.223 40.5699C111.121 41.0119 111.002 41.5559 110.917 41.9809C110.798 42.4909 110.679 43.1199 110.56 43.7319C111.121 43.6979 111.631 43.6639 111.988 43.6639C113.79 43.6639 115.065 44.4629 115.065 46.9109C115.065 48.9169 114.827 51.6709 114.096 53.1499C113.535 54.3399 112.583 54.7139 111.308 54.7139C110.645 54.7139 109.846 54.5949 109.268 54.4759L108.894 52.2319C109.557 52.4189 110.526 52.5889 110.985 52.5889C111.546 52.5889 111.988 52.4189 112.26 51.8579C112.719 50.8889 112.94 48.8319 112.94 47.1489C112.94 45.7889 112.362 45.6019 111.291 45.6019C111.019 45.6019 110.594 45.6359 110.118 45.6699C109.472 48.2539 108.214 52.2829 106.65 54.7819L104.44 53.8979C106.089 51.6709 107.262 48.2369 107.874 45.9079C107.262 45.9759 106.735 46.0439 106.412 46.0779C105.936 46.1629 105.035 46.2819 104.525 46.3669L104.321 44.0549C104.933 44.1059 105.511 44.0719 106.14 44.0549C106.667 44.0379 107.466 43.9869 108.333 43.9189C108.571 42.6269 108.707 41.3859 108.69 40.3149L111.223 40.5699ZM117.071 42.1679C118.125 43.6299 119.553 46.8769 120.063 48.4919L117.904 49.4949C117.462 47.6079 116.255 44.5309 115.048 43.0349L117.071 42.1679Z" fill="#E5005A"/>
<path d="M93.3698 40.5699C93.2678 41.0119 93.1488 41.5559 93.0638 41.9809C92.9448 42.4909 92.8258 43.1199 92.7068 43.7319C93.2678 43.6979 93.7778 43.6639 94.1348 43.6639C95.9368 43.6639 97.2118 44.4629 97.2118 46.9109C97.2118 48.9169 96.9738 51.6709 96.2428 53.1499C95.6818 54.3399 94.7298 54.7139 93.4548 54.7139C92.7918 54.7139 91.9928 54.5949 91.4148 54.4759L91.0408 52.2319C91.7038 52.4189 92.6728 52.5889 93.1318 52.5889C93.6928 52.5889 94.1348 52.4189 94.4068 51.8579C94.8658 50.8889 95.0868 48.8319 95.0868 47.1489C95.0868 45.7889 94.5088 45.6019 93.4378 45.6019C93.1658 45.6019 92.7408 45.6359 92.2648 45.6699C91.6188 48.2539 90.3608 52.2829 88.7968 54.7819L86.5868 53.8979C88.2358 51.6709 89.4088 48.2369 90.0208 45.9079C89.4088 45.9759 88.8818 46.0439 88.5588 46.0779C88.0828 46.1629 87.1818 46.2819 86.6718 46.3669L86.4678 44.0549C87.0798 44.1059 87.6578 44.0719 88.2868 44.0549C88.8138 44.0379 89.6128 43.9869 90.4798 43.9189C90.7178 42.6269 90.8538 41.3859 90.8368 40.3149L93.3698 40.5699ZM99.2178 42.1679C100.272 43.6299 101.7 46.8769 102.21 48.4919L100.051 49.4949C99.6088 47.6079 98.4018 44.5309 97.1948 43.0349L99.2178 42.1679Z" fill="#E5005A"/>
<path d="M75.6095 42.1169C77.7005 42.4059 81.0835 42.3209 82.9195 42.0999V44.2929C80.8285 44.4799 77.7515 44.4969 75.6095 44.2929V42.1169ZM76.9695 49.3759C76.8335 49.9369 76.7655 50.3449 76.7655 50.8039C76.7655 51.5519 77.4115 52.0109 79.1455 52.0109C80.6585 52.0109 81.9165 51.8749 83.4125 51.5689L83.4465 53.8639C82.3415 54.0679 80.9815 54.1869 79.0605 54.1869C76.1365 54.1869 74.7255 53.1499 74.7255 51.3989C74.7255 50.7359 74.8275 50.0559 75.0145 49.1889L76.9695 49.3759ZM72.9915 40.9779C72.8555 41.3349 72.6345 42.1849 72.5665 42.4909C72.3455 43.6299 71.7505 47.0299 71.7505 48.7299C71.7505 49.0529 71.7675 49.4949 71.8185 49.8349C72.0735 49.2569 72.3455 48.6619 72.5835 48.1009L73.6375 48.9339C73.1615 50.3449 72.6005 52.1979 72.4135 53.0989C72.3625 53.3539 72.3285 53.7279 72.3285 53.8979C72.3285 54.0849 72.3455 54.3569 72.3625 54.5949L70.3905 54.7309C70.0505 53.5579 69.7275 51.4839 69.7275 49.1719C69.7275 46.6219 70.2545 43.7489 70.4415 42.4399C70.4925 41.9639 70.5945 41.3179 70.6115 40.7739L72.9915 40.9779Z" fill="#E5005A"/>
<path d="M57.3838 49.8518H54.9188C55.5648 50.7188 56.2278 51.8748 56.4828 52.6568L55.0888 53.2518H57.3838V49.8518ZM55.4628 44.6668H61.5998C60.3418 43.6468 59.2198 42.5418 58.4718 41.5218C57.7408 42.5418 56.6868 43.6468 55.4628 44.6668ZM61.8718 49.8518L63.8098 50.5658C63.1638 51.5008 62.5008 52.5378 61.9058 53.2518H65.7478V54.9858H51.3658V53.2518H54.6808C54.4258 52.4868 53.8648 51.3478 53.2698 50.5148L54.8168 49.8518H52.2158V48.1178H57.3838V46.4348H54.2558V45.6018C53.4568 46.1798 52.5898 46.7238 51.7228 47.1828C51.4678 46.7068 50.9068 45.9758 50.4648 45.5508C53.3548 44.1398 56.0748 41.5898 57.3328 39.5498H59.4238C61.2598 42.1168 63.9968 44.2588 66.6828 45.3468C66.1728 45.8568 65.7138 46.5368 65.3398 47.1658C64.4898 46.7238 63.6058 46.1628 62.7558 45.5508V46.4348H59.5088V48.1178H64.7448V49.8518H59.5088V53.2518H61.3618L60.2568 52.7928C60.8178 51.9938 61.4978 50.7528 61.8718 49.8518Z" fill="#E5005A"/>
<path d="M40.6393 49.2737H42.3053C42.3223 49.1207 42.3223 48.9677 42.3223 48.8147V47.7437H40.6393V49.2737ZM45.9263 47.7437H44.1413V48.8657C44.1413 49.0017 44.1413 49.1377 44.1413 49.2737H45.9263V47.7437ZM41.2173 43.5107H45.3313C44.4983 42.8307 43.7333 42.0657 43.2063 41.3347C42.7303 42.0487 42.0333 42.8137 41.2173 43.5107ZM47.7453 50.8207H44.7023C45.7053 52.6907 46.9803 53.3367 48.6633 53.8637C48.2043 54.2887 47.7283 54.9517 47.5073 55.5467C45.8073 54.9007 44.4643 54.0337 43.4273 52.1807C42.6963 53.5407 41.3193 54.7647 38.7693 55.5637C38.5823 55.1557 38.0213 54.3907 37.6983 54.0677C40.4353 53.2347 41.5743 52.0787 42.0333 50.8207H38.8883V46.2137H42.3223V45.1767H40.1633V44.3097C39.6703 44.6497 39.1603 44.9557 38.6503 45.2107C38.4633 44.7687 38.1233 44.1567 37.8173 43.7147C37.5793 44.4117 37.3413 45.1087 37.1203 45.6867C38.2083 46.9787 38.4293 48.1007 38.4293 49.0867C38.4293 50.1577 38.2083 50.8717 37.6473 51.2627C37.3753 51.4497 37.0353 51.5517 36.6613 51.6027C36.3383 51.6537 35.9303 51.6707 35.5053 51.6537C35.5053 51.1607 35.3523 50.3787 35.0633 49.8857C35.3863 49.9197 35.6413 49.9197 35.8453 49.9027C36.0323 49.9027 36.2193 49.8687 36.3383 49.7837C36.5423 49.6307 36.6273 49.3077 36.6273 48.8147C36.6273 48.0497 36.3723 47.0297 35.3863 45.9077C35.7433 44.8197 36.1173 43.3067 36.4063 42.1337H35.0293V55.4787H33.2783V40.3317H37.0353L37.3243 40.2467L38.6673 41.0287C38.4463 41.7767 38.1743 42.6267 37.9023 43.4597C39.7043 42.6267 41.4043 41.0117 42.2373 39.6177H44.0733C45.2463 41.2327 47.0143 42.6437 48.7823 43.2897C48.4083 43.7657 48.0173 44.5137 47.7453 45.0577C47.3203 44.8537 46.8613 44.5817 46.4193 44.2927V45.1767H44.1413V46.2137H47.7453V50.8207Z" fill="#E5005A"/>
<path d="M18.3518 39.6348L20.2218 40.2468C19.7798 41.3518 19.2528 42.5078 18.6408 43.5958V55.4448H16.7198V46.5538C16.2948 47.0978 15.8698 47.6078 15.4278 48.0668C15.2408 47.5738 14.6798 46.4858 14.3398 45.9928C15.9208 44.4628 17.4678 42.0488 18.3518 39.6348ZM22.4828 42.1168V44.3948H27.4638V42.1168H22.4828ZM30.3198 49.5458H26.9198C27.9228 51.0248 29.3848 52.4188 30.8128 53.2518C30.3538 53.6428 29.7078 54.3568 29.3848 54.8668C28.1438 53.9828 26.9028 52.6058 25.9338 51.0928V55.4788H23.8938V51.1778C22.8568 52.6738 21.5648 53.9658 20.2218 54.8328C19.9158 54.3398 19.2868 53.6088 18.8278 53.2178C20.3578 52.4188 21.8708 51.0418 22.9248 49.5458H19.4398V47.7098H23.8938V46.1798H20.5618V40.3318H29.4868V46.1798H25.9338V47.7098H30.3198V49.5458Z" fill="#E5005A"/>
</svg>
