<svg width="196" height="120" viewBox="0 0 196 120" fill="none" xmlns="http://www.w3.org/2000/svg">
<path d="M0 0H196V120H0V0Z" fill="white"/>
<mask id="mask0_1827_25442" style="mask-type:alpha" maskUnits="userSpaceOnUse" x="0" y="0" width="196" height="120">
<path d="M0 0H196V120H0V0Z" fill="white"/>
</mask>
<g mask="url(#mask0_1827_25442)">
<path fill-rule="evenodd" clip-rule="evenodd" d="M165.634 15.6622C165.634 27.6259 156.166 51.6369 144.487 51.6369C132.808 51.6369 123.34 27.6259 123.34 15.6622C123.34 3.6985 132.808 -6 144.487 -6C156.166 -6 165.634 3.6985 165.634 15.6622ZM188.187 91.8413C181.51 82.0258 160.341 67.8713 150.759 74.7113C141.177 81.5514 146.81 106.796 153.488 116.611C160.165 126.427 173.346 128.839 182.928 121.999C192.51 115.159 194.865 101.657 188.187 91.8413ZM154.869 60.737C157.819 72.3126 182.891 75.6304 194.191 72.6079C205.491 69.5855 212.26 57.7514 209.309 46.1757C206.359 34.6001 194.806 27.6664 183.506 30.6889C172.206 33.7114 151.918 49.1614 154.869 60.737ZM92.7229 69.5766C103.849 73.2142 129.058 71.2754 132.609 59.8781C136.16 48.4808 116.709 31.9409 105.582 28.3033C94.4561 24.6658 82.5579 30.9563 79.0069 42.3536C75.4558 53.7509 81.5967 65.9391 92.7229 69.5766ZM133.379 73.2237C143.479 79.2312 139.897 104.866 134.032 115.212C128.168 125.558 115.226 129.075 105.126 123.067C95.0261 117.06 91.5926 103.803 97.4572 93.4567C103.322 83.1107 123.279 67.2163 133.379 73.2237Z" fill="#FAF1F5"/>
</g>
<path d="M172.019 73.8878C171.683 71.3758 175.075 70.7998 175.075 69.2478C175.075 68.2878 174.307 67.7438 173.059 67.7438C172.067 67.7438 171.283 68.1758 170.499 69.0078L169.187 67.7918C170.195 66.6078 171.603 65.8398 173.315 65.8398C175.635 65.8398 177.331 66.9118 177.331 69.0398C177.331 71.3918 173.843 71.6638 174.083 73.8878H172.019ZM173.059 78.1438C172.243 78.1438 171.651 77.5678 171.651 76.7358C171.651 75.8878 172.259 75.3118 173.059 75.3118C173.875 75.3118 174.467 75.8878 174.467 76.7358C174.467 77.5678 173.875 78.1438 173.059 78.1438Z" fill="#E5005A"/>
<path d="M157.971 76.1119C157.971 76.7039 158.627 77.1039 159.587 77.1039C159.923 77.1039 160.227 77.0879 160.515 77.0559C160.419 76.0159 159.827 75.3439 158.963 75.3439C158.355 75.3439 157.971 75.7119 157.971 76.1119ZM155.251 65.8079C155.699 65.8719 156.259 65.8879 156.707 65.8879C157.555 65.8879 160.979 65.8239 161.891 65.7439C162.547 65.6799 162.915 65.6319 163.107 65.5679L164.147 66.9919C163.779 67.2319 163.395 67.4559 163.027 67.7279C162.163 68.3359 160.483 69.7439 159.475 70.5439C160.003 70.4159 160.483 70.3679 160.995 70.3679C163.715 70.3679 165.779 72.0639 165.779 74.3999C165.779 76.9279 163.859 78.9279 159.987 78.9279C157.763 78.9279 156.083 77.9039 156.083 76.3039C156.083 75.0079 157.251 73.8079 158.947 73.8079C160.931 73.8079 162.131 75.0239 162.355 76.5439C163.235 76.0799 163.683 75.3439 163.683 74.3679C163.683 72.9279 162.243 71.9519 160.355 71.9519C157.907 71.9519 156.307 73.2479 154.595 75.1999L153.139 73.6959C154.275 72.7839 156.211 71.1519 157.155 70.3679C158.051 69.6319 159.715 68.2879 160.499 67.5999C159.683 67.6159 157.475 67.7119 156.627 67.7599C156.195 67.7919 155.683 67.8399 155.315 67.8879L155.251 65.8079Z" fill="#E5005A"/>
<path d="M143.295 65.12C143.167 65.632 142.959 66.448 142.719 67.312C143.503 67.168 144.255 66.992 144.879 66.8L144.943 68.656C144.207 68.848 143.215 69.056 142.143 69.216C141.375 71.456 140.015 74.256 138.719 76.064L136.783 75.072C138.047 73.504 139.343 71.152 140.047 69.424C139.759 69.44 139.487 69.44 139.215 69.44C138.559 69.44 137.903 69.424 137.215 69.376L137.071 67.52C137.759 67.6 138.607 67.632 139.199 67.632C139.679 67.632 140.159 67.616 140.655 67.568C140.879 66.688 141.055 65.728 141.087 64.896L143.295 65.12ZM142.463 76.192C142.463 76.784 142.959 77.184 143.839 77.184C144.943 77.184 145.279 76.576 145.279 75.696C145.279 75.6 145.279 75.504 145.279 75.376C144.863 75.28 144.431 75.216 143.983 75.216C143.055 75.216 142.463 75.632 142.463 76.192ZM147.039 70.096C146.991 70.768 147.023 71.44 147.039 72.144C147.055 72.608 147.103 73.376 147.135 74.176C148.511 74.688 149.631 75.488 150.447 76.224L149.375 77.936C148.815 77.424 148.095 76.752 147.215 76.224C147.215 76.272 147.215 76.336 147.215 76.384C147.215 77.872 146.399 79.024 144.127 79.024C142.143 79.024 140.575 78.144 140.575 76.384C140.575 74.816 141.887 73.616 144.111 73.616C144.495 73.616 144.847 73.648 145.215 73.68C145.151 72.496 145.071 71.072 145.039 70.096H147.039ZM149.791 70.944C148.863 70.208 147.039 69.168 145.951 68.672L146.975 67.088C148.127 67.584 150.111 68.672 150.927 69.264L149.791 70.944Z" fill="#E5005A"/>
<path d="M131.481 72.7679C131.481 71.7119 130.649 70.8479 129.145 70.8479C127.385 70.8479 125.801 71.3919 124.985 71.6319C124.521 71.7599 123.897 72.0159 123.433 72.1919L122.825 69.9039C123.369 69.8559 124.057 69.7439 124.585 69.6319C125.753 69.3599 127.545 68.8959 129.417 68.8959C131.945 68.8959 133.721 70.3359 133.721 72.8479C133.721 76.2719 130.553 78.3999 126.105 79.0079L124.953 77.0239C128.921 76.5759 131.481 75.2639 131.481 72.7679ZM125.193 65.0879C127.049 65.4879 130.681 65.7919 132.377 65.8079L132.057 67.7759C130.185 67.6479 126.713 67.3279 124.873 67.0079L125.193 65.0879Z" fill="#E5005A"/>
<path d="M110.788 65.4882C111.396 67.1522 112.132 68.6882 112.788 69.9202C113.956 69.2322 115.092 68.6562 115.844 68.2242C116.436 67.8882 116.9 67.6002 117.332 67.2642L118.34 69.1522C117.828 69.4402 117.316 69.7122 116.74 70.0002C115.732 70.4962 114.244 71.2002 112.772 72.1442C111.444 73.0242 110.548 73.9362 110.548 75.0562C110.548 76.2082 111.668 76.8162 113.892 76.8162C115.524 76.8162 117.684 76.5602 119.108 76.2402L119.076 78.5282C117.716 78.7682 116.02 78.9442 113.94 78.9442C110.756 78.9442 108.34 78.0482 108.34 75.2802C108.34 73.5202 109.46 72.2082 110.996 71.0722C110.26 69.7122 109.492 67.9842 108.772 66.3042L110.788 65.4882ZM118.516 65.2482C118.916 65.8242 119.492 66.8482 119.796 67.4402L118.5 67.9842C118.18 67.3282 117.684 66.3842 117.252 65.7602L118.516 65.2482ZM120.42 64.5122C120.836 65.1202 121.428 66.1442 121.716 66.7042L120.436 67.2482C120.1 66.5762 119.588 65.6482 119.156 65.0402L120.42 64.5122Z" fill="#E5005A"/>
<path d="M97.5839 75.9201C97.5839 76.5761 98.2239 76.8481 99.0719 76.8481C100.048 76.8481 100.384 76.3361 100.384 75.3921C100.384 75.3121 100.384 75.2161 100.384 75.1041C99.9679 74.9921 99.5359 74.9281 99.1039 74.9281C98.1919 74.9281 97.5839 75.3121 97.5839 75.9201ZM102.336 65.4721C102.288 65.7761 102.256 66.1601 102.24 66.5121C102.224 66.8641 102.208 67.4561 102.192 68.1601C103.072 68.0801 103.904 67.9521 104.672 67.7921V69.7921C103.904 69.9041 103.072 70.0001 102.192 70.0641C102.224 71.6161 102.304 72.8961 102.368 73.9841C103.696 74.5281 104.704 75.3441 105.472 76.0481L104.368 77.7281C103.696 77.1041 103.056 76.5441 102.416 76.1121C102.32 77.6481 101.456 78.7361 99.2959 78.7361C97.0879 78.7361 95.7119 77.8081 95.7119 76.1281C95.7119 74.5121 97.0879 73.3921 99.2639 73.3921C99.6319 73.3921 99.9839 73.4081 100.304 73.4561C100.272 72.4641 100.208 71.2961 100.192 70.1601C99.8079 70.1761 99.4239 70.1761 99.0559 70.1761C98.1119 70.1761 97.1999 70.1441 96.2559 70.0801V68.1761C97.1679 68.2721 98.0959 68.3201 99.0559 68.3201C99.4239 68.3201 99.8079 68.3201 100.176 68.3041C100.176 67.5201 100.16 66.8641 100.16 66.5281C100.16 66.2881 100.112 65.7921 100.048 65.4721H102.336ZM94.5279 65.6481C94.3999 65.9681 94.2079 66.7841 94.1599 67.0721C93.9199 68.1441 93.3919 71.6641 93.3919 73.2641C93.3919 73.5841 93.4079 73.9841 93.4559 74.3041C93.6639 73.7441 93.9359 73.2001 94.1759 72.6561L95.1519 73.4561C94.7039 74.7681 94.1919 76.4001 93.9999 77.2641C93.9519 77.4881 93.9199 77.8401 93.9199 78.0161C93.9199 78.1761 93.9359 78.4481 93.9519 78.6721L92.1439 78.8161C91.8079 77.6961 91.5039 75.8721 91.5039 73.6961C91.5039 71.2801 91.9839 68.2561 92.1599 67.0241C92.2239 66.5761 92.3039 65.9681 92.3199 65.4561L94.5279 65.6481Z" fill="#E5005A"/>
<path d="M78.6076 66.2562L77.4716 67.7922C76.8476 67.3122 75.4876 66.5602 74.5596 66.0322L75.6316 64.6562C76.5276 65.1042 77.9196 65.8082 78.6076 66.2562ZM77.8396 70.5762L76.7836 72.1602C76.1276 71.6962 74.7516 70.9442 73.8076 70.4322L74.8316 69.0242C75.7116 69.4562 77.1356 70.1442 77.8396 70.5762ZM75.6316 79.2162L74.0316 77.9202C74.8796 76.7202 76.1116 74.7362 77.0716 72.8802L78.4636 74.1602C77.6156 75.8402 76.6076 77.6642 75.6316 79.2162ZM86.0156 77.0082V74.6562H81.2156V77.0082H86.0156ZM88.6236 70.9122H84.5596V72.9282H87.8236V79.3122H86.0156V78.7362H81.2156V79.3922H79.4876V72.9282H82.7516V70.9122H78.4956V69.0882H82.7516V67.2162C81.7116 67.3762 80.6396 67.4882 79.6476 67.5842C79.5676 67.1202 79.3116 66.3842 79.0876 65.9522C81.8076 65.6802 84.8156 65.1522 86.5756 64.4482L88.0316 65.9522C87.0076 66.3362 85.8076 66.6562 84.5596 66.8962V69.0882H88.6236V70.9122Z" fill="#E5005A"/>
<path d="M65.4241 77.0719H71.6321V78.9439H57.2481V77.0719H63.4241V73.8559H59.0881V72.0159H63.4241V69.1999H60.1121C59.6481 70.0799 59.1521 70.8959 58.6241 71.5199C58.2401 71.2159 57.3921 70.6399 56.9121 70.3839C58.1601 69.0399 59.2001 66.8319 59.7441 64.6559L61.7121 65.0879C61.4881 65.8559 61.2321 66.6079 60.9601 67.3439H63.4241V64.4639H65.4241V67.3439H70.8161V69.1999H65.4241V72.0159H70.2081V73.8559H65.4241V77.0719Z" fill="#E5005A"/>
<path d="M51.5998 69.8721C52.7198 69.8721 53.6478 70.8001 53.6478 71.9201C53.6478 73.0401 52.7198 73.9681 51.5998 73.9681C50.4798 73.9681 49.5518 73.0401 49.5518 71.9201C49.5518 70.8001 50.4798 69.8721 51.5998 69.8721Z" fill="#E5005A"/>
<path d="M42.5915 75.6962V74.9442H39.7115V75.6962H42.5915ZM39.7115 72.8002V73.4882H42.5915V72.8002H39.7115ZM35.2635 69.6162H37.7755V68.8482H35.2635V69.6162ZM42.3035 68.8482H39.7115V69.6162H42.3035V68.8482ZM46.1915 73.4882V74.9442H44.5275V77.7282H42.5915V77.0722H39.7115V77.5682C39.7115 78.5122 39.4875 78.8962 38.8635 79.1682C38.2555 79.4082 37.3915 79.4402 36.0315 79.4402C35.9355 78.9922 35.6475 78.3362 35.4075 77.9362C36.1755 77.9682 37.1195 77.9682 37.3755 77.9682C37.6795 77.9522 37.7755 77.8562 37.7755 77.5682V77.0722H32.9115V75.6962H37.7755V74.9442H31.4395V73.4882H37.7755V72.8002H33.0395V71.5202H37.7755V70.8162H33.4395V67.6482H37.7755V66.9922H31.8075V65.4882H37.7755V64.4482H39.7115V65.4882H45.8235V66.9922H39.7115V67.6482H44.2555V70.8162H39.7115V71.5202H44.5275V73.4882H46.1915Z" fill="#E5005A"/>
<path d="M18.3677 64.48L20.2237 65.072C19.7757 66.192 19.2157 67.312 18.5757 68.416V79.376H16.6877V71.168C16.2717 71.696 15.8397 72.16 15.4077 72.592C15.2157 72.128 14.6557 71.104 14.3037 70.64C15.9197 69.168 17.4717 66.848 18.3677 64.48ZM29.4877 71.136H25.4397V76.96H29.2157V78.784H19.6477V76.96H23.4877V71.136H19.2477V69.28H23.4877V64.768H25.4397V69.28H29.4877V71.136Z" fill="#E5005A"/>
<path d="M113.66 40.1201C115.18 40.6001 118.668 41.2081 120.06 41.3681L119.58 43.3201C117.964 43.1121 114.396 42.3601 113.148 42.0401L113.66 40.1201ZM113.756 43.3361C113.548 44.2161 113.26 46.1681 113.148 47.0801C114.604 46.0241 116.188 45.5601 117.868 45.5601C120.668 45.5601 122.3 47.2881 122.3 49.2241C122.3 52.1361 119.996 54.3761 113.34 53.8161L112.732 51.7201C117.532 52.3761 120.076 51.2081 120.076 49.1761C120.076 48.1361 119.084 47.3681 117.692 47.3681C115.884 47.3681 114.252 48.0401 113.244 49.2561C112.956 49.6081 112.796 49.8641 112.652 50.1841L110.812 49.7201C111.132 48.1521 111.5 45.0161 111.612 43.0321L113.756 43.3361Z" fill="#E5005A"/>
<path d="M102.282 49.096C102.154 49.544 102.058 50.072 102.058 50.424C102.058 51.128 102.538 51.656 104.25 51.656C105.322 51.656 106.426 51.528 107.578 51.32L107.498 53.368C106.602 53.48 105.514 53.592 104.234 53.592C101.546 53.592 100.09 52.664 100.09 51.048C100.09 50.312 100.25 49.544 100.378 48.904L102.282 49.096ZM100.474 40.232C100.346 40.664 100.202 41.384 100.138 41.736C100.106 41.912 100.058 42.12 100.01 42.344C100.906 42.216 101.802 42.04 102.682 41.832V43.832C101.722 44.056 100.634 44.232 99.5624 44.36C99.4184 45.048 99.2585 45.752 99.0825 46.408C98.5065 48.648 97.4345 51.912 96.5385 53.816L94.3145 53.064C95.2745 51.464 96.4905 48.104 97.0825 45.864C97.1945 45.432 97.3224 44.984 97.4184 44.52C97.0504 44.536 96.6984 44.552 96.3624 44.552C95.5944 44.552 94.9865 44.52 94.4265 44.488L94.3784 42.488C95.1944 42.584 95.7384 42.616 96.3944 42.616C96.8584 42.616 97.3384 42.6 97.8344 42.568C97.8984 42.216 97.9464 41.912 97.9784 41.656C98.0424 41.064 98.0745 40.408 98.0265 40.04L100.474 40.232ZM101.418 45.064C102.314 44.984 103.466 44.904 104.49 44.904C105.402 44.904 106.362 44.952 107.306 45.048L107.258 46.968C106.458 46.872 105.482 46.776 104.506 46.776C103.418 46.776 102.426 46.824 101.418 46.936V45.064Z" fill="#E5005A"/>
<path d="M80.0029 46.2322C80.4829 46.1362 81.2189 45.9442 81.6989 45.8002C82.7869 45.4642 85.5069 44.5522 87.4429 44.5522C89.9709 44.5522 91.6669 46.0562 91.6669 48.4722C91.6669 51.3682 89.1229 53.3362 84.0349 53.6562L83.1869 51.6882C86.8509 51.5922 89.5389 50.6162 89.5389 48.4402C89.5389 47.2402 88.6429 46.4082 87.2509 46.4082C85.3949 46.4082 82.1949 47.7362 80.8349 48.3122L80.0029 46.2322Z" fill="#E5005A"/>
<path d="M70.4515 40.12C70.3235 40.632 70.1155 41.448 69.8755 42.312C70.6595 42.168 71.4115 41.992 72.0355 41.8L72.0995 43.656C71.3635 43.848 70.3715 44.056 69.2995 44.216C68.5315 46.456 67.1715 49.256 65.8755 51.064L63.9395 50.072C65.2035 48.504 66.4995 46.152 67.2035 44.424C66.9155 44.44 66.6435 44.44 66.3715 44.44C65.7155 44.44 65.0595 44.424 64.3715 44.376L64.2275 42.52C64.9155 42.6 65.7635 42.632 66.3555 42.632C66.8355 42.632 67.3155 42.616 67.8115 42.568C68.0355 41.688 68.2115 40.728 68.2435 39.896L70.4515 40.12ZM69.6195 51.192C69.6195 51.784 70.1155 52.184 70.9955 52.184C72.0995 52.184 72.4355 51.576 72.4355 50.696C72.4355 50.6 72.4355 50.504 72.4355 50.376C72.0195 50.28 71.5875 50.216 71.1395 50.216C70.2115 50.216 69.6195 50.632 69.6195 51.192ZM74.1955 45.096C74.1475 45.768 74.1795 46.44 74.1955 47.144C74.2115 47.608 74.2595 48.376 74.2915 49.176C75.6675 49.688 76.7875 50.488 77.6035 51.224L76.5315 52.936C75.9715 52.424 75.2515 51.752 74.3715 51.224C74.3715 51.272 74.3715 51.336 74.3715 51.384C74.3715 52.872 73.5555 54.024 71.2835 54.024C69.2995 54.024 67.7315 53.144 67.7315 51.384C67.7315 49.816 69.0435 48.616 71.2675 48.616C71.6515 48.616 72.0035 48.648 72.3715 48.68C72.3075 47.496 72.2275 46.072 72.1955 45.096H74.1955ZM76.9475 45.944C76.0195 45.208 74.1955 44.168 73.1075 43.672L74.1315 42.088C75.2835 42.584 77.2675 43.672 78.0835 44.264L76.9475 45.944Z" fill="#E5005A"/>
<path d="M53.7362 41.8162C55.7042 42.0882 58.8882 42.0082 60.6162 41.8002V43.8642C58.6482 44.0402 55.7522 44.0562 53.7362 43.8642V41.8162ZM55.0162 48.6482C54.8882 49.1762 54.8242 49.5602 54.8242 49.9922C54.8242 50.6962 55.4322 51.1282 57.0642 51.1282C58.4882 51.1282 59.6722 51.0002 61.0802 50.7122L61.1122 52.8722C60.0722 53.0642 58.7922 53.1762 56.9842 53.1762C54.2322 53.1762 52.9042 52.2002 52.9042 50.5522C52.9042 49.9282 53.0002 49.2882 53.1762 48.4722L55.0162 48.6482ZM51.2722 40.7442C51.1442 41.0802 50.9362 41.8802 50.8722 42.1682C50.6642 43.2402 50.1042 46.4402 50.1042 48.0402C50.1042 48.3442 50.1202 48.7602 50.1682 49.0802C50.4082 48.5362 50.6642 47.9762 50.8882 47.4482L51.8802 48.2322C51.4322 49.5602 50.9042 51.3042 50.7282 52.1522C50.6802 52.3922 50.6482 52.7442 50.6482 52.9042C50.6482 53.0802 50.6642 53.3362 50.6802 53.5602L48.8242 53.6882C48.5042 52.5842 48.2002 50.6322 48.2002 48.4562C48.2002 46.0562 48.6962 43.3522 48.8722 42.1202C48.9202 41.6722 49.0162 41.0642 49.0322 40.5522L51.2722 40.7442Z" fill="#E5005A"/>
<path d="M39.5477 41.1122C39.3877 41.3362 39.2117 41.6082 39.0357 41.8642C38.2517 43.0162 37.1317 45.0642 36.3317 46.4722C36.9237 46.1362 37.5637 45.9922 38.1717 45.9922C39.3717 45.9922 40.0917 46.7442 40.1557 48.0722C40.1877 48.7922 40.1397 50.0722 40.2197 50.7442C40.2837 51.3682 40.7317 51.6082 41.2597 51.6082C42.6517 51.6082 43.4997 49.8162 43.9637 47.8322L45.6917 49.2402C44.8597 51.9762 43.3717 53.8002 40.9237 53.8002C39.1477 53.8002 38.3157 52.7442 38.2517 51.5762C38.1877 50.7282 38.2037 49.4162 38.1557 48.7602C38.1077 48.2002 37.7877 47.8642 37.2117 47.8642C36.1237 47.8642 35.2277 48.9842 34.6517 50.2802C34.2357 51.2082 33.6757 53.0002 33.4357 53.8482L31.1797 53.0802C32.3637 49.8802 35.6437 43.3522 36.4917 41.8322C36.6997 41.4002 37.0037 40.8722 37.2757 40.2002L39.5477 41.1122Z" fill="#E5005A"/>
<path d="M21.3271 40.472C21.2311 40.888 21.1191 41.4 21.0391 41.8C20.9431 42.28 20.8151 42.872 20.7031 43.448C21.2471 43.416 21.7111 43.384 22.0471 43.384C23.7431 43.384 24.9431 44.136 24.9431 46.44C24.9431 48.328 24.7191 50.92 24.0311 52.312C23.5031 53.432 22.6231 53.784 21.4071 53.784C20.7991 53.784 20.0311 53.672 19.4871 53.56L19.1511 51.448C19.7591 51.624 20.6871 51.784 21.1031 51.784C21.6471 51.784 22.0471 51.624 22.3031 51.096C22.7351 50.184 22.9591 48.248 22.9591 46.664C22.9591 45.384 22.3991 45.208 21.4071 45.208C21.1511 45.208 20.7511 45.24 20.2871 45.272C19.6791 47.704 18.4951 51.496 17.0231 53.848L14.9431 53.016C16.4951 50.92 17.5991 47.688 18.1911 45.496C17.6151 45.56 17.1031 45.624 16.8151 45.656C16.3511 45.736 15.5191 45.848 15.0231 45.928L14.8311 43.752C15.4231 43.8 15.9511 43.768 16.5431 43.752C17.0391 43.736 17.7911 43.688 18.6071 43.608C18.8311 42.408 18.9751 41.24 18.9431 40.232L21.3271 40.472ZM28.4471 39.144C28.8631 39.752 29.4551 40.76 29.7271 41.32L28.4631 41.864C28.1271 41.208 27.6151 40.264 27.1671 39.656L28.4471 39.144ZM26.5431 39.864C26.9431 40.456 27.5191 41.464 27.8231 42.056L27.0391 42.392C27.9991 43.88 29.1991 46.552 29.6471 47.976L27.6151 48.904C27.1991 47.128 26.0631 44.312 24.9271 42.904L26.3671 42.28C26.0471 41.672 25.6471 40.904 25.2791 40.392L26.5431 39.864Z" fill="#E5005A"/>
</svg>
