<svg width="370" height="180" viewBox="0 0 370 180" fill="none" xmlns="http://www.w3.org/2000/svg">
<path d="M0 0H370V180H0V0Z" fill="white"/>
<mask id="mask0_1827_25370" style="mask-type:alpha" maskUnits="userSpaceOnUse" x="0" y="0" width="370" height="180">
<path d="M0 0H370V180H0V0Z" fill="white"/>
</mask>
<g mask="url(#mask0_1827_25370)">
<path fill-rule="evenodd" clip-rule="evenodd" d="M332.443 -5.01438C332.443 13.2031 318.026 49.7653 300.242 49.7653C282.458 49.7653 268.041 13.2031 268.041 -5.01438C268.041 -23.2318 282.458 -38 300.242 -38C318.026 -38 332.443 -23.2318 332.443 -5.01438ZM366.785 110.986C356.618 96.0394 324.383 74.4858 309.792 84.9014C295.201 95.3169 303.78 133.758 313.947 148.704C324.115 163.65 344.186 167.323 358.777 156.907C373.368 146.492 376.953 125.932 366.785 110.986ZM316.05 63.6223C320.543 81.2488 358.72 86.3009 375.927 81.6985C393.134 77.096 403.441 59.0759 398.948 41.4494C394.456 23.8229 376.864 13.2648 359.657 17.8672C342.45 22.4697 311.557 45.9958 316.05 63.6223ZM221.419 77.0826C238.361 82.6216 276.747 79.6693 282.155 62.3144C287.562 44.9594 257.943 19.7736 241 14.2346C224.058 8.69563 205.94 18.2744 200.533 35.6293C195.126 52.9843 204.477 71.5436 221.419 77.0826ZM283.328 82.6362C298.707 91.7839 293.252 130.818 284.322 146.572C275.392 162.327 255.685 167.682 240.306 158.534C224.926 149.387 219.698 129.2 228.628 113.445C237.558 97.6913 267.948 73.4884 283.328 82.6362Z" fill="#FAF1F5"/>
</g>
<path d="M264.972 113.144C264.468 109.376 269.556 108.512 269.556 106.184C269.556 104.744 268.404 103.928 266.532 103.928C265.044 103.928 263.868 104.576 262.692 105.824L260.724 104C262.236 102.224 264.348 101.072 266.916 101.072C270.396 101.072 272.94 102.68 272.94 105.872C272.94 109.4 267.708 109.808 268.068 113.144H264.972ZM266.532 119.528C265.308 119.528 264.42 118.664 264.42 117.416C264.42 116.144 265.332 115.28 266.532 115.28C267.756 115.28 268.644 116.144 268.644 117.416C268.644 118.664 267.756 119.528 266.532 119.528Z" fill="#E5005A"/>
<path d="M243.661 116.48C243.661 117.368 244.645 117.968 246.085 117.968C246.589 117.968 247.045 117.944 247.477 117.896C247.333 116.336 246.445 115.328 245.149 115.328C244.237 115.328 243.661 115.88 243.661 116.48ZM239.581 101.024C240.253 101.12 241.093 101.144 241.765 101.144C243.037 101.144 248.173 101.048 249.541 100.928C250.525 100.832 251.077 100.76 251.365 100.664L252.925 102.8C252.373 103.16 251.797 103.496 251.245 103.904C249.949 104.816 247.429 106.928 245.917 108.128C246.709 107.936 247.429 107.864 248.197 107.864C252.277 107.864 255.373 110.408 255.373 113.912C255.373 117.704 252.493 120.704 246.685 120.704C243.349 120.704 240.829 119.168 240.829 116.768C240.829 114.824 242.581 113.024 245.125 113.024C248.101 113.024 249.901 114.848 250.237 117.128C251.557 116.432 252.229 115.328 252.229 113.864C252.229 111.704 250.069 110.24 247.237 110.24C243.565 110.24 241.165 112.184 238.597 115.112L236.413 112.856C238.117 111.488 241.021 109.04 242.437 107.864C243.781 106.76 246.277 104.744 247.453 103.712C246.229 103.736 242.917 103.88 241.645 103.952C240.997 104 240.229 104.072 239.677 104.144L239.581 101.024Z" fill="#E5005A"/>
<path d="M221.408 99.9918C221.216 100.76 220.904 101.984 220.544 103.28C221.72 103.064 222.848 102.8 223.784 102.512L223.88 105.296C222.776 105.584 221.288 105.896 219.68 106.136C218.528 109.496 216.488 113.696 214.544 116.408L211.64 114.92C213.536 112.568 215.48 109.04 216.536 106.448C216.104 106.472 215.696 106.472 215.288 106.472C214.304 106.472 213.32 106.448 212.288 106.376L212.072 103.592C213.104 103.712 214.376 103.76 215.264 103.76C215.984 103.76 216.704 103.736 217.448 103.664C217.784 102.344 218.048 100.904 218.096 99.6558L221.408 99.9918ZM220.16 116.6C220.16 117.488 220.904 118.088 222.224 118.088C223.88 118.088 224.384 117.176 224.384 115.856C224.384 115.712 224.384 115.568 224.384 115.376C223.76 115.232 223.112 115.136 222.44 115.136C221.048 115.136 220.16 115.76 220.16 116.6ZM227.024 107.456C226.952 108.464 227 109.472 227.024 110.528C227.048 111.224 227.12 112.376 227.168 113.576C229.232 114.344 230.912 115.544 232.136 116.648L230.528 119.216C229.688 118.448 228.608 117.44 227.288 116.648C227.288 116.72 227.288 116.816 227.288 116.888C227.288 119.12 226.064 120.848 222.656 120.848C219.68 120.848 217.328 119.528 217.328 116.888C217.328 114.536 219.296 112.736 222.632 112.736C223.208 112.736 223.736 112.784 224.288 112.832C224.192 111.056 224.072 108.92 224.024 107.456H227.024ZM231.152 108.728C229.76 107.624 227.024 106.064 225.392 105.32L226.928 102.944C228.656 103.688 231.632 105.32 232.856 106.208L231.152 108.728Z" fill="#E5005A"/>
<path d="M203.447 111.464C203.447 109.88 202.199 108.584 199.943 108.584C197.303 108.584 194.927 109.4 193.703 109.76C193.007 109.952 192.071 110.336 191.375 110.6L190.463 107.168C191.279 107.096 192.311 106.928 193.103 106.76C194.855 106.352 197.543 105.656 200.351 105.656C204.143 105.656 206.807 107.816 206.807 111.584C206.807 116.72 202.055 119.912 195.383 120.824L193.655 117.848C199.607 117.176 203.447 115.208 203.447 111.464ZM194.015 99.9438C196.799 100.544 202.247 101 204.791 101.024L204.311 103.976C201.503 103.784 196.295 103.304 193.535 102.824L194.015 99.9438Z" fill="#E5005A"/>
<path d="M172.166 100.544C173.078 103.04 174.182 105.344 175.166 107.192C176.918 106.16 178.622 105.296 179.75 104.648C180.638 104.144 181.334 103.712 181.982 103.208L183.494 106.04C182.726 106.472 181.958 106.88 181.094 107.312C179.582 108.056 177.35 109.112 175.142 110.528C173.15 111.848 171.806 113.216 171.806 114.896C171.806 116.624 173.486 117.536 176.822 117.536C179.27 117.536 182.51 117.152 184.646 116.672L184.598 120.104C182.558 120.464 180.014 120.728 176.894 120.728C172.118 120.728 168.494 119.384 168.494 115.232C168.494 112.592 170.174 110.624 172.478 108.92C171.374 106.88 170.222 104.288 169.142 101.768L172.166 100.544ZM183.758 100.184C184.358 101.048 185.222 102.584 185.678 103.472L183.734 104.288C183.254 103.304 182.51 101.888 181.862 100.952L183.758 100.184ZM186.614 99.0796C187.238 99.9916 188.126 101.528 188.558 102.368L186.638 103.184C186.134 102.176 185.366 100.784 184.718 99.8716L186.614 99.0796Z" fill="#E5005A"/>
<path d="M152.12 116.192C152.12 117.176 153.08 117.584 154.352 117.584C155.816 117.584 156.32 116.816 156.32 115.4C156.32 115.28 156.32 115.136 156.32 114.968C155.696 114.8 155.048 114.704 154.4 114.704C153.032 114.704 152.12 115.28 152.12 116.192ZM159.248 100.52C159.176 100.976 159.128 101.552 159.104 102.08C159.08 102.608 159.056 103.496 159.032 104.552C160.352 104.432 161.6 104.24 162.752 104V107C161.6 107.168 160.352 107.312 159.032 107.408C159.08 109.736 159.2 111.656 159.296 113.288C161.288 114.104 162.8 115.328 163.952 116.384L162.296 118.904C161.288 117.968 160.328 117.128 159.368 116.48C159.224 118.784 157.928 120.416 154.688 120.416C151.376 120.416 149.312 119.024 149.312 116.504C149.312 114.08 151.376 112.4 154.64 112.4C155.192 112.4 155.72 112.424 156.2 112.496C156.152 111.008 156.056 109.256 156.032 107.552C155.456 107.576 154.88 107.576 154.328 107.576C152.912 107.576 151.544 107.528 150.128 107.432V104.576C151.496 104.72 152.888 104.792 154.328 104.792C154.88 104.792 155.456 104.792 156.008 104.768C156.008 103.592 155.984 102.608 155.984 102.104C155.984 101.744 155.912 101 155.816 100.52H159.248ZM147.536 100.784C147.344 101.264 147.056 102.488 146.984 102.92C146.624 104.528 145.832 109.808 145.832 112.208C145.832 112.688 145.856 113.288 145.928 113.768C146.24 112.928 146.648 112.112 147.008 111.296L148.472 112.496C147.8 114.464 147.032 116.912 146.744 118.208C146.672 118.544 146.624 119.072 146.624 119.336C146.624 119.576 146.648 119.984 146.672 120.32L143.96 120.536C143.456 118.856 143 116.12 143 112.856C143 109.232 143.72 104.696 143.984 102.848C144.08 102.176 144.2 101.264 144.224 100.496L147.536 100.784Z" fill="#E5005A"/>
<path d="M123.416 101.696L121.712 104C120.776 103.28 118.736 102.152 117.344 101.36L118.952 99.2959C120.296 99.9679 122.384 101.024 123.416 101.696ZM122.264 108.176L120.68 110.552C119.696 109.856 117.632 108.728 116.216 107.96L117.752 105.848C119.072 106.496 121.208 107.528 122.264 108.176ZM118.952 121.136L116.552 119.192C117.824 117.392 119.672 114.416 121.112 111.632L123.2 113.552C121.928 116.072 120.416 118.808 118.952 121.136ZM134.528 117.824V114.296H127.328V117.824H134.528ZM138.44 108.68H132.344V111.704H137.24V121.28H134.528V120.416H127.328V121.4H124.736V111.704H129.632V108.68H123.248V105.944H129.632V103.136C128.072 103.376 126.464 103.544 124.976 103.688C124.856 102.992 124.472 101.888 124.136 101.24C128.216 100.832 132.728 100.04 135.368 98.9839L137.552 101.24C136.016 101.816 134.216 102.296 132.344 102.656V105.944H138.44V108.68Z" fill="#E5005A"/>
<path d="M103.4 117.92H112.712V120.728H91.1358V117.92H100.4V113.096H93.8958V110.336H100.4V106.112H95.4318C94.7358 107.432 93.9918 108.656 93.1998 109.592C92.6238 109.136 91.3518 108.272 90.6318 107.888C92.5038 105.872 94.0638 102.56 94.8798 99.2958L97.8318 99.9438C97.4958 101.096 97.1118 102.224 96.7038 103.328H100.4V99.0078H103.4V103.328H111.488V106.112H103.4V110.336H110.576V113.096H103.4V117.92Z" fill="#E5005A"/>
<path d="M82.424 107.96C83.648 107.96 84.656 108.968 84.656 110.192C84.656 111.44 83.648 112.448 82.424 112.448C81.176 112.448 80.168 111.44 80.168 110.192C80.168 108.968 81.176 107.96 82.424 107.96Z" fill="#E5005A"/>
<path d="M68.6723 115.856V114.728H64.3523V115.856H68.6723ZM64.3523 111.512V112.544H68.6723V111.512H64.3523ZM57.6803 106.736H61.4483V105.584H57.6803V106.736ZM68.2403 105.584H64.3523V106.736H68.2403V105.584ZM74.0723 112.544V114.728H71.5763V118.904H68.6723V117.92H64.3523V118.664C64.3523 120.08 64.0163 120.656 63.0803 121.064C62.1683 121.424 60.8723 121.472 58.8323 121.472C58.6883 120.8 58.2563 119.816 57.8963 119.216C59.0483 119.264 60.4643 119.264 60.8483 119.264C61.3043 119.24 61.4483 119.096 61.4483 118.664V117.92H54.1523V115.856H61.4483V114.728H51.9443V112.544H61.4483V111.512H54.3443V109.592H61.4483V108.536H54.9443V103.784H61.4483V102.8H52.4963V100.544H61.4483V98.9839H64.3523V100.544H73.5203V102.8H64.3523V103.784H71.1683V108.536H64.3523V109.592H71.5763V112.544H74.0723Z" fill="#E5005A"/>
<path d="M32.096 99.0317L34.88 99.9197C34.208 101.6 33.368 103.28 32.408 104.936V121.376H29.576V109.064C28.952 109.856 28.304 110.552 27.656 111.2C27.368 110.504 26.528 108.968 26 108.272C28.424 106.064 30.752 102.584 32.096 99.0317ZM48.776 109.016H42.704V117.752H48.368V120.488H34.016V117.752H39.776V109.016H33.416V106.232H39.776V99.4637H42.704V106.232H48.776V109.016Z" fill="#E5005A"/>
<path d="M176.473 59.9917C178.753 60.7117 183.985 61.6237 186.073 61.8637L185.353 64.7917C182.929 64.4797 177.577 63.3517 175.705 62.8717L176.473 59.9917ZM176.617 64.8157C176.305 66.1357 175.873 69.0637 175.705 70.4317C177.889 68.8477 180.265 68.1517 182.785 68.1517C186.985 68.1517 189.433 70.7437 189.433 73.6477C189.433 78.0157 185.977 81.3757 175.993 80.5357L175.081 77.3917C182.281 78.3757 186.097 76.6237 186.097 73.5757C186.097 72.0157 184.609 70.8637 182.521 70.8637C179.809 70.8637 177.361 71.8717 175.849 73.6957C175.417 74.2237 175.177 74.6077 174.961 75.0877L172.201 74.3917C172.681 72.0397 173.233 67.3357 173.401 64.3597L176.617 64.8157Z" fill="#E5005A"/>
<path d="M159.168 73.4561C158.976 74.1281 158.832 74.9201 158.832 75.4481C158.832 76.5041 159.552 77.2961 162.12 77.2961C163.728 77.2961 165.384 77.1041 167.112 76.7921L166.992 79.8641C165.648 80.0321 164.016 80.2001 162.096 80.2001C158.064 80.2001 155.88 78.8081 155.88 76.3841C155.88 75.2801 156.12 74.1281 156.312 73.1681L159.168 73.4561ZM156.456 60.1601C156.264 60.8081 156.048 61.8881 155.952 62.4161C155.904 62.6801 155.832 62.9921 155.76 63.3281C157.104 63.1361 158.448 62.8721 159.768 62.5601V65.5601C158.328 65.8961 156.696 66.1601 155.088 66.3521C154.872 67.3841 154.632 68.4401 154.368 69.4241C153.504 72.7841 151.896 77.6801 150.552 80.5361L147.216 79.4081C148.656 77.0081 150.48 71.9681 151.368 68.6081C151.536 67.9601 151.728 67.2881 151.872 66.5921C151.32 66.6161 150.792 66.6401 150.288 66.6401C149.136 66.6401 148.224 66.5921 147.384 66.5441L147.312 63.5441C148.536 63.6881 149.352 63.7361 150.336 63.7361C151.032 63.7361 151.752 63.7121 152.496 63.6641C152.592 63.1361 152.664 62.6801 152.712 62.2961C152.808 61.4081 152.856 60.4241 152.784 59.8721L156.456 60.1601ZM157.872 67.4081C159.216 67.2881 160.944 67.1681 162.48 67.1681C163.848 67.1681 165.288 67.2401 166.704 67.3841L166.632 70.2641C165.432 70.1201 163.968 69.9761 162.504 69.9761C160.872 69.9761 159.384 70.0481 157.872 70.2161V67.4081Z" fill="#E5005A"/>
<path d="M125.51 69.1596C126.23 69.0156 127.334 68.7276 128.054 68.5116C129.686 68.0076 133.766 66.6396 136.67 66.6396C140.462 66.6396 143.006 68.8956 143.006 72.5196C143.006 76.8636 139.19 79.8156 131.558 80.2956L130.286 77.3436C135.782 77.1996 139.814 75.7356 139.814 72.4716C139.814 70.6716 138.47 69.4236 136.382 69.4236C133.598 69.4236 128.798 71.4156 126.758 72.2796L125.51 69.1596Z" fill="#E5005A"/>
<path d="M110.942 59.9918C110.75 60.7598 110.438 61.9838 110.078 63.2798C111.254 63.0638 112.382 62.7998 113.318 62.5118L113.414 65.2958C112.31 65.5838 110.822 65.8958 109.214 66.1358C108.062 69.4958 106.022 73.6958 104.078 76.4078L101.174 74.9198C103.07 72.5678 105.014 69.0398 106.07 66.4478C105.638 66.4718 105.23 66.4718 104.822 66.4718C103.838 66.4718 102.854 66.4478 101.822 66.3758L101.606 63.5918C102.638 63.7118 103.91 63.7598 104.798 63.7598C105.518 63.7598 106.238 63.7358 106.982 63.6638C107.318 62.3438 107.582 60.9038 107.63 59.6558L110.942 59.9918ZM109.694 76.5998C109.694 77.4878 110.438 78.0878 111.758 78.0878C113.414 78.0878 113.918 77.1758 113.918 75.8558C113.918 75.7118 113.918 75.5678 113.918 75.3758C113.294 75.2318 112.646 75.1358 111.974 75.1358C110.582 75.1358 109.694 75.7598 109.694 76.5998ZM116.558 67.4558C116.486 68.4638 116.534 69.4718 116.558 70.5278C116.582 71.2238 116.654 72.3758 116.702 73.5758C118.766 74.3438 120.446 75.5438 121.67 76.6478L120.062 79.2158C119.222 78.4478 118.142 77.4398 116.822 76.6478C116.822 76.7198 116.822 76.8158 116.822 76.8878C116.822 79.1198 115.598 80.8478 112.19 80.8478C109.214 80.8478 106.862 79.5278 106.862 76.8878C106.862 74.5358 108.83 72.7358 112.166 72.7358C112.742 72.7358 113.27 72.7838 113.822 72.8318C113.726 71.0558 113.606 68.9198 113.558 67.4558H116.558ZM120.686 68.7278C119.294 67.6238 116.558 66.0638 114.926 65.3198L116.462 62.9438C118.19 63.6878 121.166 65.3198 122.39 66.2078L120.686 68.7278Z" fill="#E5005A"/>
<path d="M85.6292 62.5356C88.5812 62.9436 93.3572 62.8236 95.9492 62.5116V65.6076C92.9972 65.8716 88.6532 65.8956 85.6292 65.6076V62.5356ZM87.5492 72.7836C87.3572 73.5756 87.2612 74.1516 87.2612 74.7996C87.2612 75.8556 88.1732 76.5036 90.6212 76.5036C92.7572 76.5036 94.5332 76.3117 96.6452 75.8797L96.6932 79.1196C95.1332 79.4076 93.2132 79.5756 90.5012 79.5756C86.3732 79.5756 84.3812 78.1116 84.3812 75.6396C84.3812 74.7036 84.5252 73.7436 84.7892 72.5196L87.5492 72.7836ZM81.9332 60.9276C81.7412 61.4316 81.4292 62.6316 81.3332 63.0636C81.0212 64.6716 80.1812 69.4716 80.1812 71.8716C80.1812 72.3276 80.2052 72.9516 80.2772 73.4316C80.6372 72.6156 81.0212 71.7757 81.3572 70.9837L82.8452 72.1596C82.1732 74.1516 81.3812 76.7676 81.1172 78.0396C81.0452 78.3996 80.9972 78.9277 80.9972 79.1677C80.9972 79.4317 81.0212 79.8156 81.0452 80.1516L78.2612 80.3436C77.7812 78.6876 77.3252 75.7596 77.3252 72.4956C77.3252 68.8956 78.0692 64.8396 78.3332 62.9916C78.4052 62.3196 78.5492 61.4076 78.5732 60.6396L81.9332 60.9276Z" fill="#E5005A"/>
<path d="M64.1057 61.4798C63.8657 61.8158 63.6017 62.2238 63.3377 62.6078C62.1617 64.3358 60.4817 67.4078 59.2817 69.5198C60.1697 69.0158 61.1297 68.7998 62.0417 68.7998C63.8417 68.7998 64.9217 69.9278 65.0177 71.9198C65.0657 72.9998 64.9937 74.9198 65.1137 75.9278C65.2097 76.8638 65.8817 77.2238 66.6737 77.2238C68.7617 77.2238 70.0337 74.5358 70.7297 71.5598L73.3217 73.6718C72.0737 77.7758 69.8417 80.5118 66.1697 80.5118C63.5057 80.5118 62.2577 78.9278 62.1617 77.1758C62.0657 75.9038 62.0897 73.9358 62.0177 72.9518C61.9457 72.1118 61.4657 71.6078 60.6017 71.6078C58.9697 71.6078 57.6257 73.2878 56.7617 75.2318C56.1377 76.6238 55.2977 79.3118 54.9377 80.5838L51.5537 79.4318C53.3297 74.6318 58.2497 64.8398 59.5217 62.5598C59.8337 61.9118 60.2897 61.1198 60.6977 60.1118L64.1057 61.4798Z" fill="#E5005A"/>
<path d="M36.534 60.5198C36.39 61.1438 36.222 61.9118 36.102 62.5118C35.958 63.2318 35.766 64.1198 35.598 64.9838C36.414 64.9358 37.11 64.8878 37.614 64.8878C40.158 64.8878 41.958 66.0158 41.958 69.4718C41.958 72.3038 41.622 76.1918 40.59 78.2798C39.798 79.9598 38.478 80.4878 36.654 80.4878C35.742 80.4878 34.59 80.3198 33.774 80.1518L33.27 76.9838C34.182 77.2478 35.574 77.4878 36.198 77.4878C37.014 77.4878 37.614 77.2478 37.998 76.4558C38.646 75.0878 38.982 72.1838 38.982 69.8078C38.982 67.8878 38.142 67.6238 36.654 67.6238C36.27 67.6238 35.67 67.6718 34.974 67.7198C34.062 71.3678 32.286 77.0558 30.078 80.5838L26.958 79.3358C29.286 76.1918 30.942 71.3438 31.83 68.0558C30.966 68.1518 30.198 68.2478 29.766 68.2958C29.07 68.4158 27.822 68.5838 27.078 68.7038L26.79 65.4398C27.678 65.5118 28.47 65.4638 29.358 65.4398C30.102 65.4158 31.23 65.3438 32.454 65.2238C32.79 63.4238 33.006 61.6718 32.958 60.1598L36.534 60.5198ZM47.214 58.5278C47.838 59.4398 48.726 60.9518 49.134 61.7918L47.238 62.6078C46.734 61.6238 45.966 60.2078 45.294 59.2958L47.214 58.5278ZM44.358 59.6078C44.958 60.4958 45.822 62.0078 46.278 62.8958L45.102 63.3998C46.542 65.6318 48.342 69.6398 49.014 71.7758L45.966 73.1678C45.342 70.5038 43.638 66.2798 41.934 64.1678L44.094 63.2318C43.614 62.3198 43.014 61.1678 42.462 60.3998L44.358 59.6078Z" fill="#E5005A"/>
</svg>
