<svg width="370" height="180" viewBox="0 0 370 180" fill="none" xmlns="http://www.w3.org/2000/svg">
<rect width="370" height="180" fill="white"/>
<mask id="mask0_1523_25665" style="mask-type:alpha" maskUnits="userSpaceOnUse" x="0" y="0" width="370" height="180">
<rect x="2" y="2" width="366" height="176" rx="8" fill="white" stroke="#FAF1F5" stroke-width="4"/>
</mask>
<g mask="url(#mask0_1523_25665)">
<path fill-rule="evenodd" clip-rule="evenodd" d="M332.443 -5.01438C332.443 13.2031 318.026 49.7653 300.242 49.7653C282.458 49.7653 268.041 13.2031 268.041 -5.01438C268.041 -23.2318 282.458 -38 300.242 -38C318.026 -38 332.443 -23.2318 332.443 -5.01438ZM366.785 110.986C356.618 96.0394 324.383 74.4858 309.792 84.9014C295.201 95.3169 303.78 133.758 313.947 148.704C324.115 163.65 344.186 167.323 358.777 156.907C373.368 146.492 376.953 125.932 366.785 110.986ZM316.05 63.6223C320.543 81.2488 358.72 86.3009 375.927 81.6985C393.134 77.096 403.441 59.0759 398.948 41.4494C394.456 23.8229 376.864 13.2648 359.657 17.8672C342.45 22.4697 311.557 45.9958 316.05 63.6223ZM221.419 77.0826C238.361 82.6216 276.747 79.6693 282.155 62.3144C287.562 44.9594 257.943 19.7736 241 14.2346C224.058 8.69563 205.94 18.2744 200.533 35.6293C195.126 52.9843 204.477 71.5436 221.419 77.0826ZM283.328 82.6362C298.707 91.7839 293.252 130.818 284.322 146.572C275.392 162.327 255.685 167.682 240.306 158.534C224.926 149.387 219.698 129.2 228.628 113.445C237.558 97.6913 267.948 73.4884 283.328 82.6362Z" fill="#FAF1F5"/>
</g>
<path d="M36.9903 61.208C36.8463 61.832 36.6783 62.6 36.5583 63.2C36.4143 63.92 36.2223 64.808 36.0543 65.672C36.8703 65.624 37.5663 65.576 38.0703 65.576C40.6143 65.576 42.4143 66.704 42.4143 70.16C42.4143 72.992 42.0783 76.88 41.0463 78.968C40.2543 80.648 38.9343 81.176 37.1103 81.176C36.1983 81.176 35.0463 81.008 34.2303 80.84L33.7263 77.672C34.6383 77.936 36.0303 78.176 36.6543 78.176C37.4703 78.176 38.0703 77.936 38.4543 77.144C39.1023 75.776 39.4383 72.872 39.4383 70.496C39.4383 68.576 38.5983 68.312 37.1103 68.312C36.7263 68.312 36.1263 68.36 35.4303 68.408C34.5183 72.056 32.7423 77.744 30.5343 81.272L27.4143 80.024C29.7423 76.88 31.3983 72.032 32.2863 68.744C31.4223 68.84 30.6543 68.936 30.2223 68.984C29.5263 69.104 28.2783 69.272 27.5343 69.392L27.2463 66.128C28.1343 66.2 28.9263 66.152 29.8143 66.128C30.5583 66.104 31.6863 66.032 32.9103 65.912C33.2463 64.112 33.4623 62.36 33.4143 60.848L36.9903 61.208ZM47.6703 59.216C48.2943 60.128 49.1823 61.64 49.5903 62.48L47.6943 63.296C47.1903 62.312 46.4223 60.896 45.7503 59.984L47.6703 59.216ZM44.8143 60.296C45.4143 61.184 46.2783 62.696 46.7343 63.584L45.5583 64.088C46.9983 66.32 48.7983 70.328 49.4703 72.464L46.4223 73.856C45.7983 71.192 44.0943 66.968 42.3903 64.856L44.5503 63.92C44.0703 63.008 43.4703 61.856 42.9183 61.088L44.8143 60.296ZM64.5614 62.168C64.3214 62.504 64.0574 62.912 63.7934 63.296C62.6174 65.024 60.9374 68.096 59.7374 70.208C60.6254 69.704 61.5854 69.488 62.4974 69.488C64.2974 69.488 65.3774 70.616 65.4734 72.608C65.5214 73.688 65.4494 75.608 65.5694 76.616C65.6654 77.552 66.3374 77.912 67.1294 77.912C69.2174 77.912 70.4894 75.224 71.1854 72.248L73.7774 74.36C72.5294 78.464 70.2974 81.2 66.6254 81.2C63.9614 81.2 62.7134 79.616 62.6174 77.864C62.5214 76.592 62.5454 74.624 62.4734 73.64C62.4014 72.8 61.9214 72.296 61.0574 72.296C59.4254 72.296 58.0814 73.976 57.2174 75.92C56.5934 77.312 55.7534 80 55.3934 81.272L52.0094 80.12C53.7854 75.32 58.7054 65.528 59.9774 63.248C60.2894 62.6 60.7454 61.808 61.1534 60.8L64.5614 62.168ZM86.0851 63.224C89.0371 63.632 93.8131 63.512 96.4051 63.2V66.296C93.4531 66.56 89.1091 66.584 86.0851 66.296V63.224ZM88.0051 73.472C87.8131 74.264 87.7171 74.84 87.7171 75.488C87.7171 76.544 88.6291 77.192 91.0771 77.192C93.2131 77.192 94.9891 77 97.1011 76.568L97.1491 79.808C95.5891 80.096 93.6691 80.264 90.9571 80.264C86.8291 80.264 84.8371 78.8 84.8371 76.328C84.8371 75.392 84.9811 74.432 85.2451 73.208L88.0051 73.472ZM82.3891 61.616C82.1971 62.12 81.8851 63.32 81.7891 63.752C81.4771 65.36 80.6371 70.16 80.6371 72.56C80.6371 73.016 80.6611 73.64 80.7331 74.12C81.0931 73.304 81.4771 72.464 81.8131 71.672L83.3011 72.848C82.6291 74.84 81.8371 77.456 81.5731 78.728C81.5011 79.088 81.4531 79.616 81.4531 79.856C81.4531 80.12 81.4771 80.504 81.5011 80.84L78.7171 81.032C78.2371 79.376 77.7811 76.448 77.7811 73.184C77.7811 69.584 78.5251 65.528 78.7891 63.68C78.8611 63.008 79.0051 62.096 79.0291 61.328L82.3891 61.616ZM111.398 60.68C111.206 61.448 110.894 62.672 110.534 63.968C111.71 63.752 112.838 63.488 113.774 63.2L113.87 65.984C112.766 66.272 111.278 66.584 109.67 66.824C108.518 70.184 106.478 74.384 104.534 77.096L101.63 75.608C103.526 73.256 105.47 69.728 106.526 67.136C106.094 67.16 105.686 67.16 105.278 67.16C104.294 67.16 103.31 67.136 102.278 67.064L102.062 64.28C103.094 64.4 104.366 64.448 105.254 64.448C105.974 64.448 106.694 64.424 107.438 64.352C107.774 63.032 108.038 61.592 108.086 60.344L111.398 60.68ZM110.15 77.288C110.15 78.176 110.894 78.776 112.214 78.776C113.87 78.776 114.374 77.864 114.374 76.544C114.374 76.4 114.374 76.256 114.374 76.064C113.75 75.92 113.102 75.824 112.43 75.824C111.038 75.824 110.15 76.448 110.15 77.288ZM117.014 68.144C116.942 69.152 116.99 70.16 117.014 71.216C117.038 71.912 117.11 73.064 117.158 74.264C119.222 75.032 120.902 76.232 122.126 77.336L120.518 79.904C119.678 79.136 118.598 78.128 117.278 77.336C117.278 77.408 117.278 77.504 117.278 77.576C117.278 79.808 116.054 81.536 112.646 81.536C109.67 81.536 107.318 80.216 107.318 77.576C107.318 75.224 109.286 73.424 112.622 73.424C113.198 73.424 113.726 73.472 114.278 73.52C114.182 71.744 114.062 69.608 114.014 68.144H117.014ZM121.142 69.416C119.75 68.312 117.014 66.752 115.382 66.008L116.918 63.632C118.646 64.376 121.622 66.008 122.846 66.896L121.142 69.416ZM125.965 69.848C126.685 69.704 127.789 69.416 128.509 69.2C130.141 68.696 134.221 67.328 137.125 67.328C140.917 67.328 143.461 69.584 143.461 73.208C143.461 77.552 139.645 80.504 132.013 80.984L130.741 78.032C136.237 77.888 140.269 76.424 140.269 73.16C140.269 71.36 138.925 70.112 136.837 70.112C134.053 70.112 129.253 72.104 127.213 72.968L125.965 69.848ZM159.624 74.144C159.432 74.816 159.288 75.608 159.288 76.136C159.288 77.192 160.008 77.984 162.576 77.984C164.184 77.984 165.84 77.792 167.568 77.48L167.448 80.552C166.104 80.72 164.472 80.888 162.552 80.888C158.52 80.888 156.336 79.496 156.336 77.072C156.336 75.968 156.576 74.816 156.768 73.856L159.624 74.144ZM156.912 60.848C156.72 61.496 156.504 62.576 156.408 63.104C156.36 63.368 156.288 63.68 156.216 64.016C157.56 63.824 158.904 63.56 160.224 63.248V66.248C158.784 66.584 157.152 66.848 155.544 67.04C155.328 68.072 155.088 69.128 154.824 70.112C153.96 73.472 152.352 78.368 151.008 81.224L147.672 80.096C149.112 77.696 150.936 72.656 151.824 69.296C151.992 68.648 152.184 67.976 152.328 67.28C151.776 67.304 151.248 67.328 150.744 67.328C149.592 67.328 148.68 67.28 147.84 67.232L147.768 64.232C148.992 64.376 149.808 64.424 150.792 64.424C151.488 64.424 152.208 64.4 152.952 64.352C153.048 63.824 153.12 63.368 153.168 62.984C153.264 62.096 153.312 61.112 153.24 60.56L156.912 60.848ZM158.328 68.096C159.672 67.976 161.4 67.856 162.936 67.856C164.304 67.856 165.744 67.928 167.16 68.072L167.088 70.952C165.888 70.808 164.424 70.664 162.96 70.664C161.328 70.664 159.84 70.736 158.328 70.904V68.096ZM176.929 60.68C179.209 61.4 184.441 62.312 186.529 62.552L185.809 65.48C183.385 65.168 178.033 64.04 176.161 63.56L176.929 60.68ZM177.073 65.504C176.761 66.824 176.329 69.752 176.161 71.12C178.345 69.536 180.721 68.84 183.241 68.84C187.441 68.84 189.889 71.432 189.889 74.336C189.889 78.704 186.433 82.064 176.449 81.224L175.537 78.08C182.737 79.064 186.553 77.312 186.553 74.264C186.553 72.704 185.065 71.552 182.977 71.552C180.265 71.552 177.817 72.56 176.305 74.384C175.873 74.912 175.633 75.296 175.417 75.776L172.657 75.08C173.137 72.728 173.689 68.024 173.857 65.048L177.073 65.504ZM32.552 99.72L35.336 100.608C34.664 102.288 33.824 103.968 32.864 105.624V122.064H30.032V109.752C29.408 110.544 28.76 111.24 28.112 111.888C27.824 111.192 26.984 109.656 26.456 108.96C28.88 106.752 31.208 103.272 32.552 99.72ZM49.232 109.704H43.16V118.44H48.824V121.176H34.472V118.44H40.232V109.704H33.872V106.92H40.232V100.152H43.16V106.92H49.232V109.704ZM69.128 116.544V115.416H64.808V116.544H69.128ZM64.808 112.2V113.232H69.128V112.2H64.808ZM58.136 107.424H61.904V106.272H58.136V107.424ZM68.696 106.272H64.808V107.424H68.696V106.272ZM74.528 113.232V115.416H72.032V119.592H69.128V118.608H64.808V119.352C64.808 120.768 64.472 121.344 63.536 121.752C62.624 122.112 61.328 122.16 59.288 122.16C59.144 121.488 58.712 120.504 58.352 119.904C59.504 119.952 60.92 119.952 61.304 119.952C61.76 119.928 61.904 119.784 61.904 119.352V118.608H54.608V116.544H61.904V115.416H52.4V113.232H61.904V112.2H54.8V110.28H61.904V109.224H55.4V104.472H61.904V103.488H52.952V101.232H61.904V99.672H64.808V101.232H73.976V103.488H64.808V104.472H71.624V109.224H64.808V110.28H72.032V113.232H74.528ZM82.88 108.648C84.104 108.648 85.112 109.656 85.112 110.88C85.112 112.128 84.104 113.136 82.88 113.136C81.632 113.136 80.624 112.128 80.624 110.88C80.624 109.656 81.632 108.648 82.88 108.648ZM103.856 118.608H113.168V121.416H91.592V118.608H100.856V113.784H94.352V111.024H100.856V106.8H95.888C95.192 108.12 94.448 109.344 93.656 110.28C93.08 109.824 91.808 108.96 91.088 108.576C92.96 106.56 94.52 103.248 95.336 99.984L98.288 100.632C97.952 101.784 97.568 102.912 97.16 104.016H100.856V99.696H103.856V104.016H111.944V106.8H103.856V111.024H111.032V113.784H103.856V118.608ZM123.872 102.384L122.168 104.688C121.232 103.968 119.192 102.84 117.8 102.048L119.408 99.984C120.752 100.656 122.84 101.712 123.872 102.384ZM122.72 108.864L121.136 111.24C120.152 110.544 118.088 109.416 116.672 108.648L118.208 106.536C119.528 107.184 121.664 108.216 122.72 108.864ZM119.408 121.824L117.008 119.88C118.28 118.08 120.128 115.104 121.568 112.32L123.656 114.24C122.384 116.76 120.872 119.496 119.408 121.824ZM134.984 118.512V114.984H127.784V118.512H134.984ZM138.896 109.368H132.8V112.392H137.696V121.968H134.984V121.104H127.784V122.088H125.192V112.392H130.088V109.368H123.704V106.632H130.088V103.824C128.528 104.064 126.92 104.232 125.432 104.376C125.312 103.68 124.928 102.576 124.592 101.928C128.672 101.52 133.184 100.728 135.824 99.672L138.008 101.928C136.472 102.504 134.672 102.984 132.8 103.344V106.632H138.896V109.368ZM152.576 116.88C152.576 117.864 153.536 118.272 154.808 118.272C156.272 118.272 156.776 117.504 156.776 116.088C156.776 115.968 156.776 115.824 156.776 115.656C156.152 115.488 155.504 115.392 154.856 115.392C153.488 115.392 152.576 115.968 152.576 116.88ZM159.704 101.208C159.632 101.664 159.584 102.24 159.56 102.768C159.536 103.296 159.512 104.184 159.488 105.24C160.808 105.12 162.056 104.928 163.208 104.688V107.688C162.056 107.856 160.808 108 159.488 108.096C159.536 110.424 159.656 112.344 159.752 113.976C161.744 114.792 163.256 116.016 164.408 117.072L162.752 119.592C161.744 118.656 160.784 117.816 159.824 117.168C159.68 119.472 158.384 121.104 155.144 121.104C151.832 121.104 149.768 119.712 149.768 117.192C149.768 114.768 151.832 113.088 155.096 113.088C155.648 113.088 156.176 113.112 156.656 113.184C156.608 111.696 156.512 109.944 156.488 108.24C155.912 108.264 155.336 108.264 154.784 108.264C153.368 108.264 152 108.216 150.584 108.12V105.264C151.952 105.408 153.344 105.48 154.784 105.48C155.336 105.48 155.912 105.48 156.464 105.456C156.464 104.28 156.44 103.296 156.44 102.792C156.44 102.432 156.368 101.688 156.272 101.208H159.704ZM147.992 101.472C147.8 101.952 147.512 103.176 147.44 103.608C147.08 105.216 146.288 110.496 146.288 112.896C146.288 113.376 146.312 113.976 146.384 114.456C146.696 113.616 147.104 112.8 147.464 111.984L148.928 113.184C148.256 115.152 147.488 117.6 147.2 118.896C147.128 119.232 147.08 119.76 147.08 120.024C147.08 120.264 147.104 120.672 147.128 121.008L144.416 121.224C143.912 119.544 143.456 116.808 143.456 113.544C143.456 109.92 144.176 105.384 144.44 103.536C144.536 102.864 144.656 101.952 144.68 101.184L147.992 101.472ZM172.622 101.232C173.534 103.728 174.638 106.032 175.622 107.88C177.374 106.848 179.078 105.984 180.206 105.336C181.094 104.832 181.79 104.4 182.438 103.896L183.95 106.728C183.182 107.16 182.414 107.568 181.55 108C180.038 108.744 177.806 109.8 175.598 111.216C173.606 112.536 172.262 113.904 172.262 115.584C172.262 117.312 173.942 118.224 177.278 118.224C179.726 118.224 182.966 117.84 185.102 117.36L185.054 120.792C183.014 121.152 180.47 121.416 177.35 121.416C172.574 121.416 168.95 120.072 168.95 115.92C168.95 113.28 170.63 111.312 172.934 109.608C171.83 107.568 170.678 104.976 169.598 102.456L172.622 101.232ZM184.214 100.872C184.814 101.736 185.678 103.272 186.134 104.16L184.19 104.976C183.71 103.992 182.966 102.576 182.318 101.64L184.214 100.872ZM187.07 99.768C187.694 100.68 188.582 102.216 189.014 103.056L187.094 103.872C186.59 102.864 185.822 101.472 185.174 100.56L187.07 99.768ZM203.903 112.152C203.903 110.568 202.655 109.272 200.399 109.272C197.759 109.272 195.383 110.088 194.159 110.448C193.463 110.64 192.527 111.024 191.831 111.288L190.919 107.856C191.735 107.784 192.767 107.616 193.559 107.448C195.311 107.04 197.999 106.344 200.807 106.344C204.599 106.344 207.263 108.504 207.263 112.272C207.263 117.408 202.511 120.6 195.839 121.512L194.111 118.536C200.063 117.864 203.903 115.896 203.903 112.152ZM194.471 100.632C197.255 101.232 202.703 101.688 205.247 101.712L204.767 104.664C201.959 104.472 196.751 103.992 193.991 103.512L194.471 100.632ZM221.864 100.68C221.672 101.448 221.36 102.672 221 103.968C222.176 103.752 223.304 103.488 224.24 103.2L224.336 105.984C223.232 106.272 221.744 106.584 220.136 106.824C218.984 110.184 216.944 114.384 215 117.096L212.096 115.608C213.992 113.256 215.936 109.728 216.992 107.136C216.56 107.16 216.152 107.16 215.744 107.16C214.76 107.16 213.776 107.136 212.744 107.064L212.528 104.28C213.56 104.4 214.832 104.448 215.72 104.448C216.44 104.448 217.16 104.424 217.904 104.352C218.24 103.032 218.504 101.592 218.552 100.344L221.864 100.68ZM220.616 117.288C220.616 118.176 221.36 118.776 222.68 118.776C224.336 118.776 224.84 117.864 224.84 116.544C224.84 116.4 224.84 116.256 224.84 116.064C224.216 115.92 223.568 115.824 222.896 115.824C221.504 115.824 220.616 116.448 220.616 117.288ZM227.48 108.144C227.408 109.152 227.456 110.16 227.48 111.216C227.504 111.912 227.576 113.064 227.624 114.264C229.688 115.032 231.368 116.232 232.592 117.336L230.984 119.904C230.144 119.136 229.064 118.128 227.744 117.336C227.744 117.408 227.744 117.504 227.744 117.576C227.744 119.808 226.52 121.536 223.112 121.536C220.136 121.536 217.784 120.216 217.784 117.576C217.784 115.224 219.752 113.424 223.088 113.424C223.664 113.424 224.192 113.472 224.744 113.52C224.648 111.744 224.528 109.608 224.48 108.144H227.48ZM231.608 109.416C230.216 108.312 227.48 106.752 225.848 106.008L227.384 103.632C229.112 104.376 232.088 106.008 233.312 106.896L231.608 109.416ZM244.117 117.168C244.117 118.056 245.101 118.656 246.541 118.656C247.045 118.656 247.501 118.632 247.933 118.584C247.789 117.024 246.901 116.016 245.605 116.016C244.693 116.016 244.117 116.568 244.117 117.168ZM240.037 101.712C240.709 101.808 241.549 101.832 242.221 101.832C243.493 101.832 248.629 101.736 249.997 101.616C250.981 101.52 251.533 101.448 251.821 101.352L253.381 103.488C252.829 103.848 252.253 104.184 251.701 104.592C250.405 105.504 247.885 107.616 246.373 108.816C247.165 108.624 247.885 108.552 248.653 108.552C252.733 108.552 255.829 111.096 255.829 114.6C255.829 118.392 252.949 121.392 247.141 121.392C243.805 121.392 241.285 119.856 241.285 117.456C241.285 115.512 243.037 113.712 245.581 113.712C248.557 113.712 250.357 115.536 250.693 117.816C252.013 117.12 252.685 116.016 252.685 114.552C252.685 112.392 250.525 110.928 247.693 110.928C244.021 110.928 241.621 112.872 239.053 115.8L236.869 113.544C238.573 112.176 241.477 109.728 242.893 108.552C244.237 107.448 246.733 105.432 247.909 104.4C246.685 104.424 243.373 104.568 242.101 104.64C241.453 104.688 240.685 104.76 240.133 104.832L240.037 101.712ZM265.428 113.832C264.924 110.064 270.012 109.2 270.012 106.872C270.012 105.432 268.86 104.616 266.988 104.616C265.5 104.616 264.324 105.264 263.148 106.512L261.18 104.688C262.692 102.912 264.804 101.76 267.372 101.76C270.852 101.76 273.396 103.368 273.396 106.56C273.396 110.088 268.164 110.496 268.524 113.832H265.428ZM266.988 120.216C265.764 120.216 264.876 119.352 264.876 118.104C264.876 116.832 265.788 115.968 266.988 115.968C268.212 115.968 269.1 116.832 269.1 118.104C269.1 119.352 268.212 120.216 266.988 120.216Z" fill="#E5005A"/>
</svg>
