<svg width="264" height="228" viewBox="0 0 264 228" fill="none" xmlns="http://www.w3.org/2000/svg">
<path fill-rule="evenodd" clip-rule="evenodd" d="M144.697 35.7755C144.697 55.5337 129.065 95.1883 109.781 95.1883C90.4966 95.1883 74.8639 55.5337 74.8639 35.7755C74.8639 16.0172 90.4966 0 109.781 0C129.065 0 144.697 16.0172 144.697 35.7755ZM181.936 161.586C170.911 145.376 135.957 122 120.136 133.296C104.314 144.593 113.616 186.284 124.642 202.495C135.667 218.705 157.431 222.689 173.252 211.392C189.073 200.096 192.961 177.797 181.936 161.586ZM126.922 110.217C131.794 129.335 173.19 134.814 191.849 129.822C210.507 124.831 221.684 105.286 216.812 86.169C211.94 67.0517 192.865 55.6007 174.206 60.5923C155.548 65.584 122.05 91.0999 126.922 110.217ZM24.3098 124.816C42.6808 130.823 84.3044 127.621 90.1677 108.799C96.031 89.9758 63.9137 62.66 45.5426 56.6525C27.1716 50.645 7.52576 61.0339 1.66248 79.8567C-4.20081 98.6795 5.93872 118.808 24.3098 124.816ZM91.4398 130.839C108.116 140.761 102.201 183.096 92.5179 200.183C82.8346 217.27 61.4657 223.078 44.7892 213.157C28.1126 203.235 22.4434 181.341 32.1267 164.254C41.81 147.168 74.7633 120.918 91.4398 130.839Z" fill="white"/>
<path fill-rule="evenodd" clip-rule="evenodd" d="M233.737 152.77C233.737 160.927 227.284 177.298 219.322 177.298C211.361 177.298 204.907 160.927 204.907 152.77C204.907 144.613 211.361 138 219.322 138C227.284 138 233.737 144.613 233.737 152.77ZM249.111 204.71C244.559 198.018 230.129 188.367 223.597 193.03C217.066 197.694 220.906 214.906 225.458 221.599C230.009 228.291 238.994 229.936 245.526 225.272C252.058 220.608 253.663 211.402 249.111 204.71ZM226.399 183.503C228.41 191.395 245.501 193.657 253.204 191.596C260.907 189.536 265.521 181.467 263.509 173.574C261.498 165.682 253.623 160.954 245.92 163.015C238.217 165.076 224.388 175.61 226.399 183.503ZM184.036 189.53C191.621 192.01 208.805 190.688 211.225 182.917C213.646 175.146 200.386 163.869 192.802 161.389C185.218 158.908 177.107 163.197 174.686 170.968C172.266 178.739 176.452 187.049 184.036 189.53ZM211.75 192.016C218.635 196.112 216.193 213.59 212.195 220.644C208.198 227.698 199.376 230.096 192.491 226C185.606 221.904 183.266 212.866 187.263 205.811C191.261 198.757 204.866 187.92 211.75 192.016Z" fill="white"/>
<path d="M164.293 162.262L163.409 150.634L163.239 145.568H168.849L168.679 150.634L167.795 162.262H164.293ZM166.061 171.34C164.293 171.34 163.035 170.082 163.035 168.314C163.035 166.546 164.327 165.322 166.061 165.322C167.761 165.322 169.053 166.546 169.053 168.314C169.053 170.082 167.761 171.34 166.061 171.34Z" fill="#E5005A"/>
<path d="M149.503 148.9L154.161 149.818C153.311 152.674 152.427 155.666 151.645 157.638L147.871 156.72C148.551 154.578 149.231 151.314 149.503 148.9ZM136.651 150.022L140.561 149.206C141.241 151.62 141.785 154.714 141.921 156.788L137.773 157.706C137.739 155.632 137.229 152.436 136.651 150.022ZM136.583 143.494H154.059V148.084H136.583V143.494ZM135.495 158.284H154.637V162.942H135.495V158.284ZM142.533 145.126H147.395V174.196H142.533V145.126ZM124.037 152.436H134.781V156.108H124.037V152.436ZM124.139 142.916H134.713V146.588H124.139V142.916ZM124.037 157.128H134.781V160.8H124.037V157.128ZM122.371 147.574H136.005V151.416H122.371V147.574ZM126.281 161.922H134.713V172.496H126.281V168.654H130.497V165.764H126.281V161.922ZM123.901 161.922H128.049V173.72H123.901V161.922Z" fill="#E5005A"/>
<path d="M100.951 143.63H114.143V148.152H100.951V143.63ZM99.7947 155.36H118.631V160.018H99.7947V155.36ZM106.527 151.722H111.491V168.96C111.491 171.272 111.049 172.564 109.587 173.346C108.091 174.094 106.187 174.264 103.773 174.23C103.535 172.87 102.719 170.728 102.039 169.402C103.535 169.47 105.269 169.504 105.813 169.47C106.357 169.47 106.527 169.334 106.527 168.892V151.722ZM112.341 143.63H113.565L114.585 143.358L117.781 145.806C115.809 148.798 113.055 152.572 110.471 154.918C109.825 154.068 108.465 152.708 107.683 152.062C109.485 150.09 111.525 146.622 112.341 144.65V143.63ZM86.6367 148.56H97.5167V153.116H86.6367V148.56ZM90.8867 141.93L95.5107 142.406C94.2187 149.886 92.3487 158.998 90.7167 165.356L86.7047 163.248C88.1667 157.774 89.9007 148.866 90.8867 141.93ZM88.7787 162.942L91.4647 159.474C94.8647 161.718 99.3527 165.05 101.291 167.6L98.3327 171.578C96.4967 168.994 92.2127 165.356 88.7787 162.942ZM95.7827 148.56H96.5987L97.4487 148.458L100.373 148.934C99.6587 162.262 96.5987 169.946 89.5607 174.366C88.9147 173.142 87.6227 171.374 86.6367 170.456C92.4847 167.396 95.2387 159.712 95.7827 149.444V148.56Z" fill="#E5005A"/>
<path d="M51.2425 150.736H81.7065V155.87H51.2425V150.736ZM69.1945 152.81C71.1325 160.358 75.2805 166.58 82.5565 169.402C81.3325 170.49 79.6665 172.666 78.8845 174.094C70.8265 170.388 66.8145 163.418 64.1965 153.966L69.1945 152.81ZM63.5505 141.93H68.9905C68.8205 153.116 68.7525 166.92 54.3025 174.094C53.5205 172.734 52.0245 170.966 50.5625 169.878C64.1965 163.69 63.4145 151.722 63.5505 141.93Z" fill="#E5005A"/>
<path d="M181.97 111.98C181.79 112.7 181.71 113.24 181.63 113.76C181.57 114.1 181.49 114.64 181.41 115.3C182.85 115.28 184.13 115.16 185.07 115.02L184.99 117.4C183.79 117.52 182.69 117.6 181.09 117.6C180.97 118.48 180.85 119.42 180.75 120.32C180.79 120.32 180.85 120.32 180.89 120.32C182.13 120.32 183.61 120.24 184.91 120.08L184.85 122.46C183.73 122.56 182.57 122.64 181.31 122.64C181.05 122.64 180.77 122.64 180.51 122.64C180.47 123.24 180.43 123.74 180.43 124.1C180.43 125.76 181.45 126.64 183.41 126.64C186.21 126.64 187.73 125.36 187.73 123.72C187.73 122.36 186.99 121.08 185.67 119.84L188.49 119.24C189.81 120.92 190.43 122.34 190.43 124.04C190.43 127.06 187.71 129.22 183.33 129.22C180.19 129.22 177.97 127.86 177.97 124.52C177.97 124.04 178.03 123.32 178.11 122.5C176.65 122.36 175.33 122.14 174.27 121.84L174.41 119.42C175.71 119.86 177.05 120.08 178.35 120.22C178.47 119.32 178.59 118.38 178.69 117.48C177.31 117.34 175.89 117.1 174.71 116.76L174.85 114.46C176.01 114.84 177.51 115.1 178.97 115.22C179.03 114.6 179.09 114.06 179.13 113.6C179.19 112.66 179.19 112.26 179.15 111.82L181.97 111.98Z" fill="#E5005A"/>
<path d="M160.158 111.9C162.058 112.5 166.418 113.26 168.158 113.46L167.558 115.9C165.538 115.64 161.078 114.7 159.518 114.3L160.158 111.9ZM160.278 115.92C160.018 117.02 159.658 119.46 159.518 120.6C161.338 119.28 163.318 118.7 165.418 118.7C168.918 118.7 170.958 120.86 170.958 123.28C170.958 126.92 168.078 129.72 159.758 129.02L158.998 126.4C164.998 127.22 168.178 125.76 168.178 123.22C168.178 121.92 166.938 120.96 165.198 120.96C162.938 120.96 160.898 121.8 159.638 123.32C159.278 123.76 159.078 124.08 158.898 124.48L156.598 123.9C156.998 121.94 157.458 118.02 157.598 115.54L160.278 115.92Z" fill="#E5005A"/>
<path d="M143.819 112.2C143.699 112.72 143.559 113.36 143.459 113.86C143.319 114.46 143.179 115.2 143.039 115.92C143.699 115.88 144.299 115.84 144.719 115.84C146.839 115.84 148.339 116.78 148.339 119.66C148.339 122.02 148.059 125.26 147.199 127C146.539 128.4 145.419 128.84 143.919 128.84C143.139 128.84 142.199 128.7 141.519 128.56L141.079 125.92C141.859 126.14 142.999 126.34 143.539 126.34C144.199 126.34 144.719 126.14 145.039 125.48C145.579 124.34 145.839 121.92 145.839 119.94C145.839 118.34 145.159 118.12 143.899 118.12C143.579 118.12 143.079 118.16 142.519 118.2C141.759 121.24 140.279 125.98 138.439 128.92L135.839 127.88C137.779 125.26 139.159 121.22 139.879 118.48C139.159 118.56 138.539 118.64 138.159 118.68C137.599 118.78 136.539 118.92 135.939 119.02L135.699 116.3C136.419 116.36 137.099 116.32 137.839 116.3C138.459 116.28 139.399 116.22 140.419 116.14C140.699 114.62 140.859 113.16 140.839 111.9L143.819 112.2ZM150.699 114.08C151.939 115.8 153.619 119.62 154.219 121.52L151.679 122.7C151.159 120.48 149.739 116.86 148.319 115.1L150.699 114.08Z" fill="#E5005A"/>
<path d="M125.267 106.758C125.189 107.304 125.111 108.032 125.085 108.656C125.007 110.164 124.981 113.96 124.981 116.144C124.981 118.692 125.423 123.476 125.423 125.712C125.423 128.156 123.447 129.82 120.015 129.82C115.621 129.82 113.359 128.078 113.359 125.192C113.359 122.41 115.855 120.434 119.989 120.434C125.839 120.434 130.077 123.164 132.339 125.062L130.077 128.572C127.529 126.128 123.811 123.658 119.469 123.658C118.013 123.658 117.181 124.23 117.181 124.958C117.181 125.816 118.039 126.258 119.391 126.258C120.717 126.258 121.445 125.894 121.445 124.568C121.445 123.268 121.133 118.796 121.133 116.144C121.133 113.57 121.185 109.93 121.185 108.656C121.185 108.162 121.133 107.33 121.003 106.758H125.267ZM114.009 108.968C115.959 109.28 118.793 109.54 120.301 109.54C123.967 109.54 127.347 109.384 131.377 108.734L131.351 112.322C128.855 112.686 124.487 112.998 120.327 112.998C118.767 112.998 115.855 112.764 114.087 112.53L114.009 108.968ZM113.853 114.636C115.465 114.948 118.767 115.13 119.963 115.13C125.345 115.13 128.647 114.792 131.741 114.428L131.715 118.12C128.075 118.51 125.423 118.666 119.911 118.666C118.533 118.666 115.543 118.536 113.905 118.328L113.853 114.636Z" fill="#E5005A"/>
<path d="M97.9185 109.54C97.7105 108.916 97.3725 107.902 97.0085 106.94L101.246 106.446C101.714 108.734 102.338 110.684 102.962 112.348C103.768 114.48 104.938 116.612 105.64 117.626C106.134 118.354 106.654 118.978 107.174 119.576L105.276 122.384C103.69 122.098 100.336 121.734 97.9705 121.526L98.2825 118.198C99.4525 118.302 101.064 118.432 101.792 118.484C100.934 117.028 99.9465 115.052 99.1665 113.024C98.6205 111.62 98.2305 110.424 97.9185 109.54ZM88.4805 110.294C93.6285 110.918 97.5025 110.866 100.7 110.502C103.17 110.216 105.302 109.774 107.356 109.176L107.85 113.128C106.212 113.596 104.106 113.96 101.922 114.22C98.3605 114.636 94.2785 114.792 88.5325 114.324L88.4805 110.294ZM94.3825 119.472C93.4985 120.694 93.0825 121.864 93.0825 122.93C93.0825 124.958 94.8505 125.79 98.2565 125.79C101.194 125.79 103.508 125.504 105.354 125.166L105.12 129.144C103.716 129.404 101.298 129.768 97.9965 129.768C92.4585 129.768 89.0005 127.558 89.0005 123.684C89.0005 122.02 89.4685 120.46 90.4305 118.562L94.3825 119.472Z" fill="#E5005A"/>
<path d="M68.4269 110.814L72.4309 111.62C70.3509 114.584 67.6729 116.846 63.5649 118.666C63.0709 117.782 61.9009 116.43 61.0949 115.832C64.7869 114.558 67.1269 112.738 68.4269 110.814ZM69.7009 112.452H76.7469V115.234H67.1789L69.7009 112.452ZM75.6029 112.452H76.3309L76.9549 112.296L79.5029 113.804C76.0969 119.706 68.9209 122.722 61.1469 124.152C60.8089 123.164 60.0289 121.63 59.3789 120.798C66.5029 119.836 73.2109 117.21 75.6029 112.972V112.452ZM68.1929 114.532C71.1829 117.6 77.1109 119.446 84.1569 120.018C83.3249 120.902 82.2589 122.618 81.7389 123.684C74.4849 122.748 68.7649 120.33 64.9169 115.962L68.1929 114.532ZM64.3189 122.254H79.5809V130.418H75.6809V125.322H68.0109V130.496H64.3189V122.254ZM66.1909 126.648H77.5529V129.716H66.1909V126.648ZM69.7529 105.796H73.6529V109.67H69.7529V105.796ZM60.4709 107.772H83.1169V114.012H79.2429V111.178H64.1629V114.012H60.4709V107.772Z" fill="#E5005A"/>
<path d="M43.4801 106.68C43.3761 107.174 43.2461 108.526 43.1941 109.202C43.0641 111.542 42.9861 113.674 42.9861 115.962C42.9861 118.848 43.1681 123.606 43.1681 125.036C43.1681 128.702 41.8681 129.612 39.9961 129.612C37.1881 129.612 33.4961 127.324 33.4961 124.334C33.4961 121.682 36.8241 118.9 40.6721 117.6C42.9861 116.82 45.6381 116.43 47.5621 116.43C51.6701 116.43 55.0761 118.536 55.0761 122.384C55.0761 125.426 53.6721 127.922 49.2261 129.04C48.0041 129.3 46.8341 129.404 45.6901 129.508L44.2601 125.426C45.5081 125.426 46.6521 125.4 47.5101 125.244C49.5121 124.906 50.9681 123.944 50.9681 122.358C50.9681 120.824 49.6681 119.888 47.5101 119.888C45.3781 119.888 42.9861 120.356 41.0621 121.084C38.8521 121.916 37.3701 123.138 37.3701 124.152C37.3701 124.776 38.2541 125.296 38.7481 125.296C39.1381 125.296 39.5021 125.192 39.5021 124.282C39.5021 123.008 39.3461 119.394 39.3461 116.092C39.3461 113.154 39.3461 110.476 39.3461 109.228C39.3461 108.682 39.2421 107.174 39.1641 106.68H43.4801ZM50.5001 109.462C52.5801 110.424 55.7001 112.088 57.1561 113.05L55.2841 116.248C54.0621 115.286 50.3961 113.258 48.8101 112.53L50.5001 109.462ZM34.3541 110.71C35.9401 110.892 37.1621 110.892 38.0981 110.892C40.8801 110.892 44.8841 110.424 47.6141 109.644L47.6921 113.544C44.6241 114.22 40.4901 114.636 38.2281 114.636C36.3561 114.636 35.3161 114.61 34.4321 114.506L34.3541 110.71Z" fill="#E5005A"/>
<path d="M175.26 83.9599C175.26 88.1799 172.68 91.1599 167.64 91.9399L166.14 89.5599C166.9 89.4799 167.46 89.3599 168 89.2399C170.56 88.6399 172.56 86.7999 172.56 83.8799C172.56 81.1199 171.06 79.0599 168.36 78.5999C168.08 80.2999 167.74 82.1399 167.16 84.0199C165.96 88.0599 164.24 90.5399 162.06 90.5399C159.84 90.5399 158 88.0999 158 84.7199C158 80.0999 162 76.1599 167.18 76.1599C172.14 76.1599 175.26 79.5999 175.26 83.9599ZM160.56 84.4599C160.56 86.4799 161.36 87.4599 162.14 87.4599C162.98 87.4599 163.76 86.1999 164.58 83.4999C165.04 82.0199 165.42 80.3199 165.64 78.6599C162.34 79.3399 160.56 82.2599 160.56 84.4599Z" fill="#E5005A"/>
<path d="M146.181 76.44L148.495 73.944C150.653 75.14 153.903 77.038 155.489 78.338L152.993 81.172C151.563 79.846 148.417 77.792 146.181 76.44ZM148.209 79.924H150.107V84.006C150.107 85.878 151.355 88.66 155.723 90.298C155.047 91.156 154.059 92.612 153.539 93.522C150.679 92.456 148.729 89.83 148.183 88.218C147.585 89.83 145.375 92.378 142.359 93.522C141.943 92.664 140.955 91.156 140.279 90.428C144.699 88.842 146.233 85.904 146.233 84.006V79.924H148.209ZM146.493 68.77H150.185C149.951 74.984 149.223 79.118 142.697 81.38C142.333 80.47 141.397 79.092 140.617 78.39C146.077 76.7 146.311 73.736 146.493 68.77ZM142.671 70.2L145.739 70.798C145.479 72.566 144.803 74.516 143.737 75.738L140.773 74.516C141.683 73.554 142.385 71.812 142.671 70.2ZM142.359 81.562L145.635 82.212C145.297 84.214 144.491 86.346 143.295 87.698L140.175 86.164C141.215 85.15 141.995 83.278 142.359 81.562ZM151.797 70.018L155.437 71.11C154.527 72.696 153.643 74.282 152.941 75.348L150.133 74.334C150.757 73.138 151.459 71.344 151.797 70.018ZM151.875 81.354L155.593 82.472C154.657 84.136 153.695 85.826 152.915 86.944L149.977 85.904C150.679 84.656 151.459 82.758 151.875 81.354ZM132.115 76.804H140.097V79.612H132.115V76.804ZM132.193 69.524H140.045V72.332H132.193V69.524ZM132.115 80.392H140.097V83.2H132.115V80.392ZM130.867 73.086H140.955V76.024H130.867V73.086ZM133.727 84.058H140.149V92.144H133.727V89.206H136.951V86.996H133.727V84.058ZM132.037 84.058H135.183V93.08H132.037V84.058Z" fill="#E5005A"/>
<path d="M116.387 76.232H125.409V79.638H116.387V76.232ZM116.387 82.29H125.409V85.696H116.387V82.29ZM116.387 88.348H125.409V91.754H116.387V88.348ZM114.619 70.096H127.151V93.028H123.355V73.658H118.233V93.236H114.619V70.096ZM103.725 74.022H113.813V77.584H103.725V74.022ZM107.209 68.77H110.823V93.47H107.209V68.77ZM107.001 76.492L109.185 77.272C108.379 81.51 106.819 86.476 104.765 89.206C104.427 88.14 103.595 86.58 103.023 85.618C104.843 83.382 106.351 79.586 107.001 76.492ZM110.589 78.468C111.317 79.17 113.813 82.342 114.359 83.044L112.253 86.086C111.499 84.396 109.835 81.588 108.899 80.158L110.589 78.468Z" fill="#E5005A"/>
<path d="M76.8125 69.8879H82.9485V73.2419H80.0885V93.4959H76.8125V69.8879ZM81.8045 69.8879H82.4285L82.9485 69.7579L85.4705 71.1619C84.8465 73.4499 84.0145 76.3619 83.3385 78.3639C84.7945 80.2879 85.0285 82.0039 85.0285 83.4599C85.0285 85.2799 84.6645 86.3719 83.7545 86.9959C83.3125 87.3339 82.7925 87.5159 82.1945 87.5939C81.7525 87.6719 81.1285 87.6979 80.5045 87.6719C80.5045 86.7619 80.2185 85.3319 79.7245 84.4219C80.0885 84.4479 80.3745 84.4479 80.6345 84.4479C80.8685 84.4479 81.1285 84.3959 81.3105 84.2659C81.5705 84.0579 81.6745 83.6419 81.6745 82.9399C81.6745 81.8739 81.4145 80.3399 80.1665 78.7539C80.7645 76.4659 81.5185 72.5659 81.8045 71.0059V69.8879ZM87.8105 74.6719H97.0665V77.7399H87.8105V74.6719ZM92.3345 72.0199C90.9565 74.0739 88.2525 76.5179 85.4705 77.8439C85.1065 76.9339 84.3525 75.5299 83.7285 74.7239C86.5365 73.5539 89.2405 70.9539 90.5145 68.7959H93.9205C95.7145 71.2399 98.2885 73.3459 100.967 74.2819C100.265 75.1659 99.5365 76.5439 99.0425 77.6099C96.5725 76.4139 93.7645 74.0739 92.3345 72.0199ZM88.8765 81.7439V83.4079H96.0005V81.7439H88.8765ZM85.6265 78.9099H99.3805V86.2679H85.6265V78.9099ZM90.6705 76.6479H94.0505V83.1479C94.0505 87.0479 92.7765 91.4679 85.8345 93.6259C85.4965 92.8719 84.4565 91.4159 83.8325 90.8179C90.0725 88.9459 90.6705 86.0079 90.6705 83.0439V76.6479ZM94.2065 84.6299C95.8965 88.5559 98.0285 89.6739 100.785 90.4539C99.9265 91.2339 99.0165 92.4819 98.6265 93.5739C95.3765 92.3259 92.9065 90.5059 91.0345 85.3059L94.2065 84.6299Z" fill="#E5005A"/>
<path d="M62.4611 78.13H66.2571V93.47H62.4611V78.13ZM56.0391 81.068H72.6791V84.474H56.0391V81.068ZM66.8811 82.628C68.2331 85.28 70.8591 88.036 73.4851 89.596C72.6271 90.298 71.4051 91.676 70.8071 92.612C68.1291 90.584 65.6331 87.1 64.0731 83.616L66.8811 82.628ZM62.0451 82.316L65.0091 83.33C63.3451 87.048 60.6671 90.506 57.5991 92.534C57.0271 91.624 55.8311 90.246 54.9991 89.518C57.9111 87.984 60.6411 85.15 62.0451 82.316ZM61.2131 73.164V75.92H67.7131V73.164H61.2131ZM57.6511 69.862H71.5091V79.222H57.6511V69.862ZM53.8291 68.822L57.3391 69.966C55.6231 74.386 52.8151 79.196 49.9031 82.186C49.5911 81.276 48.5771 79.196 47.9531 78.26C50.2671 75.998 52.5291 72.41 53.8291 68.822ZM51.4371 76.284L55.0251 72.696V72.722V93.392H51.4371V76.284Z" fill="#E5005A"/>
</svg>
