<svg xmlns="http://www.w3.org/2000/svg" version="1.1" xmlns:xlink="http://www.w3.org/1999/xlink" xmlns:svgjs="http://svgjs.dev/svgjs" width="34" height="34"><svg width="34" height="34" viewBox="0 0 34 34" fill="none" xmlns="http://www.w3.org/2000/svg">
<path fill-rule="evenodd" clip-rule="evenodd" d="M21.2612 8.2668C21.2612 10.6233 19.3964 15.3527 17.0959 15.3527C14.7955 15.3527 12.9306 10.6233 12.9306 8.2668C12.9306 5.91031 14.7955 4 17.0959 4C19.3964 4 21.2612 5.91031 21.2612 8.2668ZM25.7035 23.2718C24.3882 21.3384 20.2186 18.5504 18.3312 19.8977C16.4439 21.245 17.5535 26.2174 18.8688 28.1507C20.184 30.0841 22.7802 30.5592 24.6676 29.2119C26.5549 27.8646 27.0187 25.2051 25.7035 23.2718ZM19.1407 17.1452C19.7219 19.4252 24.6602 20.0787 26.886 19.4834C29.1118 18.888 30.445 16.5571 29.8639 14.277C29.2827 11.997 27.0072 10.6313 24.7814 11.2266C22.5556 11.8219 18.5596 14.8651 19.1407 17.1452ZM6.89996 18.8863C9.09147 19.6028 14.0568 19.2209 14.7563 16.976C15.4557 14.7311 11.6244 11.4732 9.43286 10.7567C7.24135 10.0402 4.89776 11.2793 4.19832 13.5242C3.49888 15.7691 4.70844 18.1698 6.89996 18.8863ZM14.908 19.6047C16.8974 20.788 16.1918 25.8372 15.0366 27.875C13.8815 29.9129 11.3324 30.6057 9.34298 29.4224C7.3536 28.2391 6.67732 25.6278 7.83246 23.59C8.98759 21.5521 12.9186 18.4214 14.908 19.6047Z" fill="#FDD000"></path>
</svg><style>@media (prefers-color-scheme: light) { :root { filter: none; } }
@media (prefers-color-scheme: dark) { :root { filter: none; } }
</style></svg>