<svg width="130" height="80" viewBox="0 0 130 80" fill="none" xmlns="http://www.w3.org/2000/svg">
<mask id="mask0_1509_24756" style="mask-type:alpha" maskUnits="userSpaceOnUse" x="0" y="0" width="130" height="80">
<rect width="130" height="80" fill="#D9D9D9"/>
</mask>
<g mask="url(#mask0_1509_24756)">
</g>
<g clip-path="url(#clip0_1509_24756)">
<path d="M70.7762 44.6122C69.8323 47.4402 68.7277 50.2122 67.4676 52.9148C67.2163 53.3923 67.0303 53.9012 66.9144 54.4279C66.8095 55.0453 66.9068 55.677 67.0045 56.2956L69.2229 70.4173C70.0857 70.1899 72.5797 69.4638 73.4833 69.2363C73.3765 67.2132 72.9764 62.8487 72.6293 60.3983C72.4947 59.4479 72.2879 58.3064 72.4691 57.3635C72.6113 56.4906 72.9168 55.6521 73.3698 54.8919C75.4661 51.2981 78.3253 47.5933 80.4213 44" fill="white"/>
<path d="M53.8087 8.99344C53.8718 9.5243 53.9931 10.0467 54.1702 10.5512C54.4194 11.5053 54.7678 12.8289 54.0373 13.5504C53.8871 13.6877 53.7871 13.8711 53.753 14.0715C53.6835 14.6032 54.1513 14.6961 54.4833 14.8937C54.693 15.0223 54.8679 15.2002 54.9927 15.4118C55.17 15.9149 55.654 17.0225 56.1609 17.5427C56.4856 17.9072 56.9394 18.1318 57.4268 18.1693C58.2217 18.2219 59.2881 17.9129 60.1218 17.7454C60.6023 17.6656 60.9975 17.6306 61.4314 17.807C61.5437 17.8529 61.6504 17.9114 61.7494 17.9813C62.1826 18.2854 62.4768 18.7842 62.7416 19.2571C63.0883 19.8756 63.4845 20.5085 63.8312 21.127L63.8631 21.1838C63.8991 21.0745 63.9366 20.9658 63.9741 20.8575C64.4378 19.5211 65.4692 17.4018 66.3107 15.879C66.2671 15.7496 66.2617 15.6292 66.222 15.4873C65.9824 14.6427 66.5139 13.6921 66.8417 12.9123C67.3846 11.3462 67.5094 9.66611 67.2038 8.03731C66.5535 4.81189 64.5666 3.39234 63.1417 2.9485C61.1664 2.31192 59.0193 2.47652 57.1647 3.40671C55.5092 4.21172 53.47 5.97987 53.8087 8.99506" fill="white"/>
<path d="M66.7808 15.0562C65.9001 16.5336 64.5291 19.256 63.9746 20.8562C63.7874 21.3236 63.6677 21.8153 63.6192 22.3163C63.6168 22.7708 63.673 23.2238 63.7864 23.664L64.8193 28.528C65.2462 30.3648 67.1678 33.9437 67.5347 34.8847C67.4751 35.2024 68.4439 37.1474 69.3328 37.6142C73.4614 38.849 78.2992 40.0485 82.609 40.0867C83.7832 40.1407 83.5697 38.7558 83.2228 37.3449C83.036 36.0937 82.1228 33.6497 81.9818 33.3518L81.1416 32.0746C80.3011 30.2777 80.0839 29.5541 78.972 27.1218C76.7304 22.2173 72.9855 17.7713 66.7808 15.0562Z" fill="white"/>
<path d="M69.9566 70.4527C70.0715 71.6089 69.1121 72.8092 68.1896 73.252C67.2671 73.6947 66.2363 73.9853 65.4998 74.6945C64.9977 75.1779 64.7035 76.0643 65.2204 76.5322C65.6026 76.8781 66.1962 76.7872 66.7 76.6749C68.777 76.2113 70.6386 75.9284 72.7166 75.465C73.221 75.3523 74.0111 75.0045 74.2185 74.5321C74.4133 73.9866 74.394 73.3878 74.1644 72.8559C73.8373 72.1607 73.6681 70.9257 73.4669 69.8643" fill="white"/>
<path d="M63.6316 22.7644C63.622 22.6632 63.6165 22.5617 63.6163 22.46C63.2084 23.4387 62.9167 24.4617 62.7473 25.508C62.619 26.3587 62.4647 27.2198 62.0828 27.9912C61.7508 28.6623 61.2597 29.2395 60.7858 29.8192C59.7039 31.1417 58.6861 32.5133 57.7324 33.934C58.5117 34.6645 59.0402 35.0891 59.6959 35.9315C59.7159 35.9114 59.7357 35.8914 59.7554 35.8713L60.883 34.7232C61.5496 33.0953 62.975 31.533 64.2021 30.0333C64.4527 29.7279 64.7079 29.4224 64.9407 29.1027L63.786 23.6646C63.7171 23.3678 63.6656 23.0672 63.6316 22.7644Z" fill="white"/>
<path d="M57.254 34.2848C57.3954 34.1461 57.5545 34.0266 57.7272 33.9292C58.5919 34.7401 59.1478 35.1736 59.9092 36.2141C59.7351 36.3739 59.5304 36.497 59.3074 36.576C58.7736 36.7483 58.1983 36.5485 57.6373 36.5372C57.0339 36.5416 56.445 36.7228 55.944 37.0583C55.3895 36.7708 54.7495 36.4339 54.2568 36.3935C53.9314 36.3685 53.6051 36.4305 53.3116 36.5732C53.2554 35.7175 53.9881 35.477 54.6173 35.4623C55.073 35.4514 55.5455 35.5177 55.9726 35.3593C56.499 35.1631 56.8431 34.672 57.254 34.2848Z" fill="white"/>
<path d="M65.1409 55.8345C65.2889 56.5763 65.0148 57.377 64.5664 58.0176C64.9575 58.3209 65.7076 58.2826 66.1931 58.2073C66.9621 58.088 68.5235 57.8512 68.873 56.4661C68.6958 56.0187 68.5397 55.5638 68.4046 55.1016" fill="white"/>
<path d="M62.3394 63.0172C62.5143 62.9997 62.6869 62.9652 62.855 62.914C65.0167 62.2048 66.6401 61.66 68.9538 60.9053C69.2209 60.808 69.4625 60.6518 69.6608 60.4485C69.8591 60.2452 70.0088 59.9999 70.0989 59.7308C70.2571 59.2466 69.9796 58.7404 69.7334 58.2933C69.4074 57.703 69.1196 57.0924 68.8718 56.4653C68.5225 57.8506 66.9609 58.0874 66.1919 58.2067C65.7064 58.282 64.9563 58.3203 64.5654 58.0171C64.2978 58.4083 63.9533 58.7412 63.5528 58.9955C62.6179 59.5625 61.5515 59.9788 60.8423 60.8104C60.3588 61.377 60.1385 62.3505 60.7373 62.7944C61.0644 63.0373 61.7776 63.0804 62.3394 63.0172Z" fill="white"/>
<path d="M81.7637 40.1138C82.4169 41.9396 80.9796 43.9771 79.1737 44.6926C77.3678 45.4081 75.3421 45.162 73.4146 44.9045C70.7349 44.5451 68.8501 44.971 66.1704 44.6123C66.9111 46.5718 67.3881 48.2241 67.6218 49.0177C68.1653 50.973 68.5746 52.9631 68.8467 54.9739C68.0462 55.2932 65.7559 56.0664 64.4191 56.1654C62.6236 52.3048 60.8365 47.8424 59.0401 43.9798C58.4504 42.7117 57.9094 41.0688 58.8643 40.0446C59.3914 39.48 60.2118 39.3213 60.9743 39.1925L69.664 37.7246" fill="white"/>
<path d="M61.302 34.2949L59.7543 35.8706C59.4736 36.1563 59.1778 36.4521 58.7956 36.5754C58.2618 36.7477 57.6865 36.5479 57.1255 36.5366C56.3495 36.5209 55.1996 36.9858 54.6003 37.4776C54.1051 37.9113 53.6975 38.4354 53.3993 39.0217C53.2891 39.2137 53.0726 40.04 53.753 40.1663C53.8529 40.1767 53.9538 40.1614 54.0461 40.1218C54.1384 40.0822 54.2189 40.0196 54.28 39.9401C54.1851 40.0748 53.9198 40.9643 54.5737 41.2245C54.7229 41.2792 54.8872 41.276 55.0342 41.2157C55.1812 41.1553 55.3002 41.0421 55.3675 40.8985C55.2676 41.2444 55.3205 41.9328 56.0014 42.0306C56.088 42.0368 56.1748 42.0226 56.2547 41.989C56.3347 41.9555 56.4056 41.9036 56.4617 41.8376C56.7153 41.5489 56.941 41.237 57.1356 40.9059C57.0257 41.0681 56.9837 41.2668 57.0186 41.4595C57.0535 41.6522 57.1625 41.8237 57.3224 41.9373C57.4209 42.0192 57.7922 42.0316 58.0696 41.8043C58.3449 41.5713 58.5853 41.3001 58.7835 40.999C58.9006 40.7478 59.0799 40.5306 59.3045 40.3677C59.5291 40.2049 59.7916 40.1018 60.0672 40.0682C60.2919 40.038 60.5112 39.9759 60.7184 39.8838C61.0786 39.7149 61.2599 39.3172 61.4557 38.9704C61.9548 38.0692 62.5768 37.2415 63.3041 36.5109" fill="white"/>
<path d="M68.9884 20.1875C67.9762 20.5911 67.2591 21.5309 66.8572 22.5414C66.4553 23.552 66.3253 24.646 66.1631 25.7219C66.0349 26.5726 65.8805 27.4337 65.4988 28.2051C65.1666 28.8762 64.6755 29.4534 64.2018 30.0331C63.1199 31.3556 61.8467 33.0725 61.1484 34.148C61.8467 34.9098 62.7274 35.7883 63.608 36.7067C64.1758 36.7389 66.248 35.65 67.3886 34.7602C67.8764 34.3797 68.561 33.8543 68.9081 33.3429C70.7036 30.6974 72.2824 27.9117 73.6291 25.0131" fill="white"/>
<path d="M63.1343 0.78248C62.7974 0.807996 62.5015 0.829918 62.2678 0.84627L60.7628 1.12856C59.699 1.32802 58.6166 1.53376 57.6599 2.03869C56.7073 2.54182 55.9295 3.31449 55.194 4.10027C53.9123 5.47004 52.6976 6.82185 52.3961 8.65145C52.3713 8.82137 52.4093 8.99447 52.503 9.13849C52.5968 9.2825 52.7398 9.3876 52.9055 9.43418C53.047 9.46489 53.1914 9.48043 53.3362 9.48054C54.363 9.50138 55.3898 9.50048 56.4166 9.47784C61.4336 9.53714 62.1489 8.62809 66.5823 6.44109C67.0759 6.19761 67.4387 5.11785 67.3324 4.29487C67.2627 3.7558 68.706 1.85487 69.056 0.963248C69.0793 0.904162 69.0877 0.840283 69.0805 0.777201C69.0733 0.71412 69.0507 0.653758 69.0147 0.601398C68.9787 0.549038 68.9304 0.506276 68.874 0.476854C68.8176 0.447431 68.7548 0.432245 68.6912 0.432624C67.6181 0.437655 64.8458 0.653642 63.1343 0.78248Z" fill="white"/>
<path d="M73.2441 66.8223C73.2441 59.4205 79.1784 56.4736 84.1425 56.4736C89.1066 56.4736 95.0409 59.5875 95.0409 66.8223C95.0409 74.0572 89.1066 77.171 84.1425 77.171C79.1784 77.171 73.2441 74.2241 73.2441 66.8223Z" fill="white"/>
<path d="M34.959 66.8223C34.959 59.4205 40.8933 56.4736 45.8574 56.4736C50.8214 56.4736 56.7557 59.5875 56.7557 66.8223C56.7557 74.0572 50.8214 77.171 45.8574 77.171C40.8933 77.171 34.959 74.2241 34.959 66.8223Z" fill="white"/>
<path d="M75.2876 51.2857C75.6643 50.0853 76.0325 48.9044 76.382 47.779L73.3256 47.2939C73.1254 47.9328 72.7052 49.3305 72.505 49.9693C68.634 48.8532 57.7157 45.7701 54.1401 44.7762C54.8066 42.6158 55.3541 40.8171 55.6826 39.7056L53.3048 38.98C51.9033 43.722 46.5808 60.7469 44.9824 65.3421L47.3602 66.0677C48.3575 63.1998 50.7739 55.5909 52.8004 49.0909C54.5267 51.9248 60.8252 61.7138 64.6715 67.3275L70.1625 66.5837C70.9292 64.3791 72.547 59.3309 74.1697 54.1767C76.7156 58.1358 80.213 63.4244 82.5393 66.8204L84.621 65.4626C82.241 61.903 78.0978 55.6252 75.2876 51.2857ZM67.381 65.8484L66.0033 64.9832C62.6563 59.9787 56.5394 50.6032 54.7302 47.6791C58.1446 48.6185 68.3691 51.4648 71.6611 52.4159C70.0698 57.4871 68.1295 63.6983 67.3817 65.8484H67.381Z" fill="white"/>
<path d="M54.6002 39.027C53.992 38.9432 53.3634 38.8525 52.8426 38.5278C52.3218 38.2031 51.9374 37.5769 52.0907 36.9839C52.262 36.3199 53.0371 35.9641 53.722 36.0198C54.4069 36.0756 55.3766 36.7066 56.0074 36.9783C57.5363 37.6365 58.3853 37.9641 59.8532 38.5321C60.2181 38.6736 60.5539 38.8807 60.844 39.143C60.9531 39.2854 61.0165 39.4573 61.026 39.6362C61.0354 39.8151 60.9905 39.9927 60.8969 40.1457C60.7851 40.2845 60.6373 40.39 60.4695 40.4509C60.3018 40.5118 60.1205 40.5256 59.9454 40.4909C58.1214 40.1719 56.3316 39.6818 54.5998 39.0273" fill="white"/>
<path d="M81.025 43.2065C77.9584 43.2494 74.8995 43.5257 71.8751 44.0331C71.3022 44.1291 70.6393 44.3039 70.4223 44.8417C70.2574 45.2498 70.4345 45.7333 70.7454 46.0456C71.0763 46.3391 71.4674 46.5569 71.8915 46.6837C74.4759 47.6257 77.2418 47.9668 79.9784 47.6812C80.309 47.6465 80.6593 47.5937 80.911 47.3771C81.2183 47.1132 81.2997 46.6764 81.3368 46.2733C81.4227 45.3413 81.3746 44.4018 81.1942 43.4833" fill="white"/>
<path d="M68.4419 78.2875C68.3686 77.9506 68.2171 77.2474 68.1379 76.8882C68.1319 76.8615 68.1312 76.8338 68.1359 76.8068C68.1407 76.7798 68.1507 76.754 68.1654 76.7308C68.1802 76.7077 68.1993 76.6876 68.2218 76.6719C68.2443 76.6561 68.2697 76.645 68.2966 76.639C68.9642 76.4892 72.4987 75.6888 73.1866 75.5339C73.2135 75.5279 73.2414 75.5272 73.2686 75.5319C73.2958 75.5366 73.3218 75.5467 73.3451 75.5615C73.3684 75.5763 73.3885 75.5955 73.4043 75.6181C73.4201 75.6407 73.4313 75.6662 73.4372 75.6931C73.5132 76.0322 73.6667 76.7217 73.7373 77.0392C73.7496 77.0928 73.7402 77.1491 73.7111 77.1958C73.6821 77.2425 73.6356 77.2759 73.582 77.2886C72.9011 77.4503 69.3633 78.2871 68.6963 78.4463C68.6691 78.4529 68.6409 78.4541 68.6133 78.4496C68.5857 78.4452 68.5592 78.4352 68.5355 78.4204C68.5118 78.4056 68.4913 78.3862 68.4753 78.3634C68.4592 78.3406 68.4479 78.3148 68.4419 78.2875Z" fill="white"/>
<path d="M63.8281 69.7327C63.8281 67.1237 65.9197 66.085 67.6692 66.085C69.4187 66.085 71.5103 67.1825 71.5103 69.7327C71.5103 72.2828 69.4187 73.3804 67.6692 73.3804C65.9197 73.3804 63.8281 72.3416 63.8281 69.7327Z" fill="white"/>
<path d="M68.3066 72.5535C68.9371 74.2122 70.1772 77.426 70.2583 77.5868C70.4813 78.0289 70.955 78.3045 71.4158 78.1404C72.0596 77.9113 71.9651 77.279 71.862 76.9915C71.7116 76.5716 70.2019 72.7481 69.7036 71.5068" fill="white"/>
<path d="M66.6254 63.8657C67.0847 65.1218 68.261 68.676 68.3997 69.1001C68.4934 69.3912 68.5691 70.0255 67.9188 70.2357C67.4522 70.3849 66.9875 70.0956 66.7785 69.6463C66.7028 69.4864 65.5067 66.0795 64.9141 64.3724" fill="white"/>
<path d="M62.7741 63.3416C62.8821 63.6757 63.108 64.3723 63.2221 64.7292C63.239 64.7828 63.2765 64.8276 63.3265 64.8536C63.3764 64.8796 63.4347 64.8848 63.4885 64.8681C64.1534 64.6602 67.6772 63.5662 68.3629 63.3526C68.3897 63.3442 68.4146 63.3306 68.4361 63.3125C68.4577 63.2945 68.4754 63.2724 68.4883 63.2475C68.5013 63.2226 68.5092 63.1954 68.5115 63.1674C68.5139 63.1395 68.5107 63.1114 68.5021 63.0847C68.3956 62.7472 68.1779 62.0617 68.0779 61.746C68.0613 61.6924 68.0243 61.6476 67.9747 61.6212C67.9252 61.5949 67.8672 61.589 67.8134 61.6051C67.1307 61.8092 63.5854 62.8728 62.9162 63.0721C62.8889 63.0802 62.8635 63.0936 62.8416 63.1116C62.8196 63.1296 62.8014 63.1519 62.7882 63.177C62.7749 63.2021 62.7669 63.2296 62.7644 63.2579C62.762 63.2861 62.7653 63.3146 62.7741 63.3416Z" fill="white"/>
<path d="M67.2627 11.1633C67.4279 10.1254 67.4078 9.06652 67.2034 8.03559C66.5549 4.81088 64.5673 3.39133 63.1422 2.94804C61.1667 2.31074 59.019 2.47536 57.1643 3.40625C55.5933 4.16939 53.6756 5.80115 53.7752 8.54393C54.8533 8.44349 55.9633 8.33891 55.9633 8.33891C57.2124 8.26452 58.1711 8.61689 59.0504 9.0936C59.8752 9.54049 60.4243 10.7387 61.0182 10.6731C61.0646 10.2559 61.2627 9.8701 61.575 9.58883C61.6798 9.50324 61.803 9.44304 61.935 9.41295C62.0669 9.38286 62.2041 9.38371 62.3357 9.41543C62.7283 9.52702 62.9504 9.94408 63.0412 10.3408C63.1287 10.6704 63.1494 11.014 63.1021 11.3517C63.0547 11.6893 62.9402 12.0141 62.7654 12.307C63.612 13.0588 64.8438 14.1308 66.206 14.6149C66.3159 14.0255 66.6243 13.4299 66.8419 12.9111C67.0314 12.3414 67.1721 11.7567 67.2627 11.1633Z" fill="#1492D9"/>
<path d="M63.1343 0.78248C62.7974 0.807996 62.5015 0.829918 62.2678 0.84627L60.7628 1.12856C59.699 1.32802 58.6166 1.53376 57.6599 2.03869C56.7073 2.54182 55.9295 3.31449 55.194 4.10027C53.9123 5.47004 52.6976 6.82185 52.3961 8.65145C52.3713 8.82137 52.4093 8.99447 52.503 9.13849C52.5968 9.2825 52.7398 9.3876 52.9055 9.43418C53.047 9.46489 53.1914 9.48043 53.3362 9.48054C54.363 9.50138 55.3898 9.50048 56.4166 9.47784C61.4336 9.53714 62.1489 8.62809 66.5823 6.44109C67.0759 6.19761 67.4387 5.11785 67.3324 4.29487C67.2627 3.7558 68.706 1.85487 69.056 0.963248C69.0793 0.904162 69.0877 0.840283 69.0805 0.777201C69.0733 0.71412 69.0507 0.653758 69.0147 0.601398C68.9787 0.549038 68.9304 0.506276 68.874 0.476854C68.8176 0.447431 68.7548 0.432245 68.6912 0.432624C67.6181 0.437655 64.8458 0.653642 63.1343 0.78248Z" fill="#1492D9"/>
<path d="M84.1422 54.0742C82.0087 54.0715 79.8975 54.5077 77.9406 55.3556C78.3888 56.0399 78.8452 56.7353 79.3022 57.4305C80.8365 56.797 82.481 56.4716 84.1415 56.4727C89.105 56.4727 95.0399 59.5866 95.0399 66.8214C95.0399 74.0563 89.1056 77.1701 84.1415 77.1701C79.1774 77.1701 73.2431 74.2232 73.2431 66.8214C73.2431 62.9681 74.8528 60.3247 77.095 58.6732C76.8648 58.3225 76.6361 57.9736 76.409 57.6265L76.4029 57.6172C76.1767 57.2711 75.953 56.9283 75.7319 56.5888C74.2026 57.6385 72.9556 59.0473 72.1009 60.6911C72.0473 60.8578 71.9944 61.0224 71.9422 61.1851L71.9285 61.2277L71.7962 61.6381L71.7613 61.7459C71.7195 61.8753 71.6781 62.0033 71.6372 62.1301L71.6159 62.196C71.4677 62.6544 71.325 63.0932 71.1892 63.509L71.1659 63.5809C71.1274 63.6991 71.0894 63.8154 71.0519 63.9297L71.0353 63.9803C70.994 64.1059 70.9535 64.2292 70.9137 64.3501L70.9092 64.3634C70.779 65.1768 70.7147 65.9992 70.7168 66.8229C70.7168 67.0273 70.7219 67.228 70.7291 67.4271C71.2568 68.0781 71.5337 68.8959 71.5096 69.7327C71.5135 70.1647 71.4457 70.5944 71.309 71.0042C73.1673 77.0691 79.0661 79.5709 84.1415 79.5709C90.2557 79.5709 97.5659 75.7349 97.5659 66.8229C97.5659 57.9108 90.2574 54.0742 84.1422 54.0742Z" fill="#1492D9"/>
<path d="M50.9594 54.9585C50.7115 55.7427 50.4658 56.5184 50.2252 57.2765C53.748 58.6138 56.7546 61.6739 56.7546 66.8233C56.7546 74.0581 50.8203 77.172 45.8563 77.172C40.8922 77.172 34.9579 74.2251 34.9579 66.8233C34.9579 59.4215 40.8922 56.4746 45.8563 56.4746C46.514 56.4755 47.1706 56.5291 47.8198 56.6349C48.0603 55.8782 48.3062 55.1034 48.5537 54.3194C47.6636 54.1581 46.7608 54.0763 45.8561 54.0752C39.7418 54.0752 32.4316 57.7049 32.4316 66.8233C32.4316 75.9416 39.7418 79.5714 45.8561 79.5714C51.9703 79.5714 59.2805 75.7353 59.2805 66.8233C59.2813 60.344 55.4173 56.5484 50.9594 54.9585Z" fill="#1492D9"/>
<path d="M95.6931 24.4561C94.1202 21.1058 91.9823 16.7012 90.1463 12.8194C90.1165 12.7561 90.0997 12.6875 90.0971 12.6177C90.0945 12.5478 90.1061 12.4781 90.1311 12.4129C90.1562 12.3476 90.1942 12.288 90.2429 12.2377C90.2916 12.1875 90.35 12.1476 90.4145 12.1204C90.4792 12.093 90.5375 12.0529 90.5862 12.0024C90.6348 11.9519 90.6727 11.8921 90.6976 11.8266C90.7224 11.7612 90.7337 11.6913 90.7308 11.6214C90.7279 11.5514 90.7108 11.4828 90.6806 11.4196C90.1042 10.2157 89.5229 9.00276 88.9607 7.82112C88.9035 7.70038 88.8017 7.60644 88.6765 7.55903C88.5514 7.51161 88.4127 7.51442 88.2896 7.56686C86.2152 8.44572 74.831 13.3674 71.3078 14.8524C71.2442 14.8791 71.1867 14.9183 71.1387 14.9677C71.0907 15.0171 71.0532 15.0757 71.0284 15.1399C71.0036 15.2041 70.9921 15.2726 70.9944 15.3414C70.9968 15.4101 71.0131 15.4777 71.0423 15.54C73.5761 20.9726 77.0681 28.0973 79.0541 32.4271C79.1097 32.5482 79.2104 32.6429 79.3348 32.6911C79.4593 32.7394 79.5976 32.7374 79.7206 32.6857C83.1712 31.2408 92.1554 27.32 95.7321 25.8063C95.7962 25.7793 95.8542 25.7396 95.9026 25.6898C95.951 25.6399 95.9889 25.5808 96.0139 25.516C96.0389 25.4512 96.0505 25.382 96.0481 25.3126C96.0456 25.2432 96.0292 25.175 95.9997 25.1121C95.9004 24.8983 95.7982 24.6796 95.6931 24.4561Z" fill="#1492D9"/>
<path d="M62.7751 12.8902C63.7234 13.7158 64.7283 14.4871 65.9039 14.9604C66.0145 14.99 66.1323 14.9751 66.2318 14.9187C66.3313 14.8623 66.4046 14.7691 66.4357 14.6592C66.4634 14.549 66.4474 14.4325 66.3912 14.3337C66.335 14.2349 66.2428 14.1615 66.1338 14.1288C65.6059 13.9011 65.1045 13.6165 64.6386 13.2801C64.2041 12.969 63.7862 12.6353 63.3869 12.2803C63.3045 12.2019 63.195 12.1582 63.0812 12.1582C62.9673 12.1582 62.8578 12.2019 62.7755 12.2803C62.6953 12.3616 62.6504 12.4712 62.6504 12.5852C62.6504 12.6993 62.6953 12.8088 62.7755 12.8902H62.7751Z" fill="#4A3E42"/>
<path d="M61.544 10.3627C61.6486 10.0862 61.9088 9.76487 62.1955 9.82363C62.2545 9.83986 62.3094 9.86836 62.3566 9.90726C62.4037 9.94616 62.4421 9.99457 62.4692 10.0493C62.5603 10.2102 62.6213 10.3862 62.6493 10.5688C62.8037 11.3584 62.5209 12.0392 61.9786 12.6473C61.9 12.7294 61.8561 12.8386 61.8561 12.9522C61.8561 13.0658 61.9 13.175 61.9786 13.2571C62.0602 13.3371 62.17 13.3818 62.2843 13.3818C62.3987 13.3818 62.5085 13.3371 62.59 13.2571C63.0048 12.8249 63.3073 12.298 63.4711 11.7224C63.6064 11.1642 63.5835 10.5794 63.405 10.0333C63.2124 9.46677 62.7725 8.94621 62.1246 8.95519C61.4148 8.96454 60.9425 9.51852 60.7101 10.1323C60.6805 10.2426 60.6956 10.3601 60.7521 10.4593C60.8086 10.5586 60.902 10.6317 61.012 10.663C61.1225 10.6908 61.2395 10.6751 61.3386 10.619C61.4377 10.5628 61.5112 10.4707 61.5438 10.3618L61.544 10.3627Z" fill="#4A3E42"/>
<path d="M53.4681 9.6028C53.6483 10.5221 54.061 11.406 54.043 12.3589C54.0435 12.5412 54.0136 12.7223 53.9547 12.8949C53.879 13.0631 53.7728 13.2159 53.6414 13.3456C53.3029 13.7515 53.1747 14.3445 53.5321 14.7811C53.7715 15.0736 54.1552 15.1311 54.4198 15.3823C54.6844 15.6335 54.7669 16.0265 54.9242 16.3661C55.3304 17.2446 55.8771 18.149 56.8398 18.4885C57.3579 18.6712 57.9282 18.6076 58.4592 18.5278C59.0585 18.438 59.6451 18.2815 60.2385 18.1607C60.2932 18.1457 60.3444 18.12 60.3892 18.0852C60.434 18.0504 60.4715 18.0071 60.4995 17.9579C60.5276 17.9086 60.5456 17.8543 60.5526 17.7981C60.5596 17.7419 60.5555 17.6849 60.5404 17.6303C60.5253 17.5757 60.4995 17.5246 60.4647 17.4799C60.4298 17.4352 60.3864 17.3978 60.337 17.3698C60.2876 17.3419 60.2332 17.3239 60.1769 17.3169C60.1205 17.3099 60.0633 17.314 60.0086 17.3291C59.5152 17.4294 59.027 17.5539 58.5315 17.645C58.1337 17.7183 57.6792 17.8035 57.2779 17.716C56.4345 17.5323 55.9989 16.6427 55.6705 15.9308C55.5098 15.5832 55.4124 15.2167 55.165 14.9177C55.024 14.7478 54.8531 14.6052 54.6606 14.4967C54.5099 14.4291 54.3642 14.3511 54.2245 14.2631C54.2445 14.2783 54.1626 14.1619 54.1905 14.2365C54.1711 14.1769 54.1747 14.1122 54.2006 14.0552C54.2627 13.8778 54.4585 13.7418 54.5637 13.588C54.7897 13.2292 54.9084 12.8135 54.906 12.3898C54.9366 11.3435 54.4989 10.3805 54.3011 9.37334C54.2696 9.26369 54.1963 9.17072 54.0969 9.11441C53.9974 9.0581 53.8798 9.04294 53.7693 9.07218C53.66 9.10456 53.5676 9.17787 53.5113 9.27676C53.455 9.37565 53.4393 9.49243 53.4674 9.60262L53.4681 9.6028Z" fill="#4A3E42"/>
<path d="M66.2784 6.48495C66.9124 7.99964 67.0965 9.66421 66.8088 11.2803C66.7339 11.707 66.6329 12.1286 66.5065 12.543C66.3883 12.9315 66.2003 13.2932 66.0473 13.6697C65.8968 14.0257 65.7956 14.4005 65.7465 14.7837C65.7169 15.1924 65.7673 15.6029 65.8948 15.9923C66.0472 16.5251 66.8817 16.2978 66.7284 15.763C66.6084 15.4163 66.575 15.0456 66.631 14.6831C66.7123 14.3293 66.8309 13.9852 66.985 13.6564C67.1667 13.2612 67.3178 12.8527 67.4371 12.4345C67.5486 12.0204 67.6348 11.6 67.6952 11.1756C67.9513 9.51313 67.7497 7.81255 67.1121 6.25549C67.0784 6.14731 67.0047 6.05598 66.9059 6.00004C66.8072 5.94411 66.6908 5.92777 66.5804 5.95433C66.4702 5.9853 66.3767 6.05837 66.3201 6.15767C66.2636 6.25698 66.2486 6.37469 66.2784 6.48495Z" fill="#4A3E42"/>
<path d="M67.7116 72.9989C66.5362 73.52 65.0275 73.9969 64.5992 75.3584C64.4059 75.9726 64.5668 76.6791 65.1547 77.0143C65.7703 77.365 66.5095 77.1548 67.153 77.0153C68.0242 76.8263 68.9003 76.659 69.7758 76.4932C69.8858 76.4619 69.9791 76.3888 70.0356 76.2896C70.0921 76.1903 70.1072 76.073 70.0777 75.9627C70.0452 75.8538 69.9717 75.7616 69.8726 75.7054C69.7735 75.6493 69.6564 75.6336 69.546 75.6616C68.6982 75.8218 67.8507 75.9839 67.0073 76.1647C66.6238 76.2472 65.647 76.6024 65.4195 76.0928C65.1983 75.5965 65.7341 75.0116 66.1093 74.7433C66.7275 74.3015 67.4587 74.0494 68.1479 73.7434C68.2463 73.6851 68.3178 73.5905 68.3468 73.4801C68.3758 73.3696 68.3601 73.2522 68.303 73.1533C68.2432 73.0566 68.1485 72.9866 68.0384 72.9578C67.9282 72.929 67.8112 72.9436 67.7116 72.9986V72.9989Z" fill="#4A3E42"/>
<path d="M71.4942 76.1627C72.2751 76.0054 73.0886 75.8911 73.7969 75.5066C73.8952 75.4482 73.9665 75.3536 73.9955 75.2432C74.0245 75.1328 74.0089 75.0155 73.952 74.9165C73.8925 74.8195 73.7978 74.7493 73.6875 74.7205C73.5773 74.6916 73.4602 74.7064 73.3606 74.7618C73.2796 74.8058 73.1971 74.8461 73.1131 74.8842C73.0666 74.9043 73.0652 74.905 73.1084 74.8865C73.0845 74.896 73.0605 74.9056 73.0364 74.9145C73.0011 74.9281 72.9655 74.9409 72.9297 74.9532C72.7657 75.0074 72.5986 75.0519 72.4293 75.0863C72.0417 75.1714 71.6533 75.2529 71.2642 75.3311C71.154 75.362 71.0605 75.4351 71.004 75.5344C70.9474 75.6337 70.9325 75.7512 70.9623 75.8615C70.9951 75.9703 71.0687 76.0622 71.1677 76.1183C71.2667 76.1744 71.3836 76.1903 71.494 76.1627H71.4942Z" fill="#4A3E42"/>
<path d="M77.6486 47.5622C76.7998 48.8262 75.9362 50.08 75.0943 51.3483C75.0656 51.3972 75.0469 51.4512 75.0392 51.5073C75.0315 51.5635 75.0349 51.6205 75.0493 51.6753C75.0637 51.7301 75.0887 51.7815 75.1231 51.8267C75.1574 51.8718 75.2003 51.9097 75.2493 51.9383C75.2983 51.9669 75.3525 51.9856 75.4087 51.9933C75.465 52.001 75.5222 51.9975 75.5771 51.9832C75.6321 51.9688 75.6836 51.9438 75.7288 51.9096C75.7741 51.8754 75.8121 51.8326 75.8408 51.7837C76.6829 50.5152 77.5465 49.2614 78.3951 47.9976C78.453 47.8989 78.4692 47.7812 78.4401 47.6706C78.4111 47.5599 78.3391 47.4653 78.2401 47.4076C78.1411 47.3499 78.0232 47.3337 77.9123 47.3627C77.8014 47.3917 77.7065 47.4635 77.6486 47.5622Z" fill="#4A3E42"/>
<path d="M72.9272 59.4594V59.4576C72.9241 59.3442 72.8776 59.2363 72.7972 59.156C72.7167 59.0758 72.6085 59.0294 72.4948 59.0264L72.3799 59.0418C72.3078 59.0617 72.242 59.0999 72.1891 59.1527L72.1216 59.24C72.0827 59.306 72.0623 59.3811 72.0625 59.4576V59.4594C72.0654 59.5729 72.1119 59.6809 72.1924 59.7611C72.2728 59.8414 72.3811 59.8878 72.4948 59.8907L72.6098 59.8752C72.6819 59.8554 72.7477 59.8172 72.8005 59.7644L72.8681 59.6772C72.9069 59.6112 72.9273 59.536 72.9272 59.4594Z" fill="#4A3E42"/>
<path d="M70.0118 45.5874C70.0118 45.455 69.9491 45.6975 69.9397 45.7258C69.9176 45.7884 69.8954 45.8511 69.8731 45.9139C69.8211 46.0602 69.7687 46.2062 69.7158 46.352C69.6139 46.6334 69.5103 46.9141 69.4051 47.1942C69.1911 47.7645 68.9705 48.3323 68.7434 48.8976C68.7137 49.0079 68.7288 49.1254 68.7853 49.2247C68.8418 49.3239 68.9352 49.397 69.0453 49.4281C69.1558 49.4558 69.2727 49.44 69.3718 49.3839C69.4708 49.3278 69.5444 49.2358 69.5771 49.1269C69.8123 48.541 70.0404 47.9525 70.2616 47.3613C70.3704 47.0708 70.4776 46.7795 70.583 46.4875C70.6356 46.3416 70.6878 46.1954 70.7397 46.049C70.8098 45.9034 70.8559 45.7476 70.8765 45.5874C70.8765 45.0325 70.0118 45.0316 70.0118 45.5874Z" fill="#4A3E42"/>
<path d="M63.2003 22.3465C62.8831 23.1236 62.6318 23.9258 62.4491 24.7448C62.2778 25.5534 62.2086 26.378 61.9523 27.1685C61.6985 27.9503 61.2253 28.6038 60.7093 29.2349C60.1592 29.9084 59.6166 30.5871 59.093 31.2812C58.4925 32.0769 57.9146 32.8886 57.3591 33.7164C57.3114 33.7988 57.2921 33.8946 57.3044 33.989C57.3166 34.0835 57.3595 34.1713 57.4267 34.2389C58.1123 34.88 58.8089 35.4953 59.3902 36.2363C59.4716 36.3166 59.5814 36.3617 59.6959 36.3617C59.8104 36.3617 59.9202 36.3166 60.0016 36.2363C60.0801 36.1541 60.1239 36.045 60.1239 35.9314C60.1239 35.8179 60.0801 35.7087 60.0016 35.6265C59.4203 34.8854 58.7235 34.2702 58.0381 33.629L58.1056 34.1516C59.0915 32.6854 60.1462 31.2706 61.2698 29.9071C61.8127 29.2443 62.325 28.5755 62.6482 27.7758C62.965 26.9917 63.0654 26.162 63.2118 25.3364C63.3924 24.3912 63.6676 23.4665 64.0333 22.5762C64.063 22.4659 64.0479 22.3484 63.9914 22.2491C63.9349 22.1497 63.8415 22.0766 63.7313 22.0455C63.6209 22.0178 63.5039 22.0337 63.4049 22.0898C63.3058 22.146 63.2323 22.238 63.1996 22.3469L63.2003 22.3465Z" fill="#4A3E42"/>
<path d="M57.6291 33.4974C57.2562 33.6932 56.9244 33.9585 56.6517 34.2791C56.3907 34.5536 56.1208 34.872 55.7418 34.9788C55.2525 35.1157 54.7188 34.9924 54.2173 35.0686C53.9827 35.0944 53.7566 35.1715 53.5552 35.2942C53.3537 35.4169 53.1818 35.5823 53.0516 35.7788C52.7576 36.2519 53.5054 36.6855 53.7981 36.2141C53.9782 35.9256 54.3886 35.8943 54.6963 35.8916C55.2367 35.8869 55.7668 35.9275 56.2725 35.6968C56.9948 35.3662 57.3499 34.5685 58.0656 34.2426C58.1639 34.1842 58.2353 34.0896 58.2643 33.9792C58.2934 33.8688 58.2777 33.7515 58.2207 33.6525C58.161 33.5557 58.0662 33.4856 57.956 33.4568C57.8458 33.428 57.7287 33.4427 57.6291 33.4978V33.4974Z" fill="#4A3E42"/>
<path d="M79.4154 57.8448C80.7908 57.2743 82.2588 56.9577 83.7477 56.9105C84.6794 56.8789 85.6115 56.9581 86.5244 57.1464C88.3289 57.494 90.015 58.2939 91.4241 59.4709C92.9462 60.7884 93.9873 62.5722 94.3845 64.543C94.8363 66.7129 94.6599 69.1396 93.7148 71.1609C92.8924 72.8922 91.5491 74.3243 89.872 75.2579C88.2911 76.1408 86.5256 76.644 84.7156 76.7274C82.944 76.8183 81.1742 76.5182 79.5323 75.8485C77.8305 75.1731 76.3619 74.0192 75.305 72.5271C74.0397 70.674 73.5895 68.4291 73.6906 66.2128C73.7952 63.9187 74.5952 61.6809 76.2109 60.0135C76.5515 59.6606 76.9204 59.3361 77.3141 59.0432C77.4105 58.9831 77.4803 58.8886 77.5091 58.7789C77.5379 58.6692 77.5236 58.5526 77.4692 58.4531C77.4108 58.3549 77.316 58.2837 77.2053 58.2547C77.0946 58.2258 76.9769 58.2414 76.8778 58.2984C74.9678 59.7029 73.63 61.7479 73.1104 64.0574C72.5546 66.5176 72.7321 69.2275 73.7648 71.5408C74.6194 73.4042 76.0399 74.9523 77.8253 75.9658C79.5083 76.9051 81.3814 77.4551 83.3061 77.5753C85.2309 77.6955 87.1581 77.3828 88.9454 76.6603C90.8596 75.9002 92.5116 74.6024 93.7011 72.9244C95.0438 70.9796 95.565 68.5801 95.4592 66.2428C95.3549 63.9383 94.5967 61.713 93.101 59.9357C91.8075 58.3994 90.0363 57.3122 88.1379 56.6833C85.9607 55.9749 83.6346 55.8527 81.3949 56.3292C80.639 56.4876 79.8995 56.7162 79.1862 57.012C79.0777 57.0455 78.9861 57.119 78.93 57.2176C78.8739 57.3161 78.8576 57.4323 78.8843 57.5424C78.9154 57.6523 78.9886 57.7456 79.0882 57.802C79.1877 57.8584 79.3056 57.8733 79.4161 57.8436L79.4154 57.8448Z" fill="#4A3E42"/>
<path d="M85.5946 64.4672C86.4322 62.7337 87.3038 61.0171 88.2093 59.3176C88.4703 58.8276 87.7243 58.3913 87.4628 58.8823C86.5573 60.5814 85.6857 62.298 84.8481 64.032C84.7931 64.1314 84.7786 64.248 84.8075 64.3578C84.8363 64.4676 84.9064 64.5622 85.0032 64.6219C85.1024 64.6787 85.22 64.6942 85.3306 64.6653C85.4412 64.6364 85.536 64.5652 85.5946 64.4672Z" fill="#4A3E42"/>
<path d="M85.1329 69.6563C86.2333 71.2902 87.2558 72.9901 88.2601 74.6842C88.5431 75.1616 89.2908 74.7282 89.0066 74.2488C88.0025 72.5547 86.98 70.855 85.8794 69.2209C85.5708 68.7625 84.8214 69.1938 85.1329 69.6563Z" fill="#4A3E42"/>
<path d="M86.9426 68.2787C88.5343 68.8801 90.1024 69.5658 91.6562 70.2576C91.756 70.3119 91.8729 70.3262 91.9828 70.2974C92.0928 70.2687 92.1876 70.1991 92.2478 70.1029C92.3048 70.004 92.3205 69.8866 92.2915 69.7762C92.2625 69.6658 92.1911 69.5712 92.0927 69.5128C90.4715 68.7908 88.8338 68.0753 87.1724 67.4464C87.0619 67.4169 86.9442 67.432 86.8447 67.4883C86.7452 67.5447 86.6719 67.6378 86.6407 67.7476C86.6125 67.8579 86.6281 67.9748 86.6844 68.0738C86.7407 68.1728 86.8332 68.2462 86.9426 68.2787Z" fill="#4A3E42"/>
<path d="M78.1582 55.7284C80.4511 54.7418 82.9545 54.3413 85.4418 54.5631C87.1457 54.7149 88.8101 55.1615 90.3604 55.8827C91.9775 56.6319 93.4092 57.7273 94.5537 59.0911C95.7712 60.597 96.5843 62.3873 96.9164 64.2933C97.3213 66.4775 97.1949 68.7267 96.5476 70.852C95.9911 72.6321 94.9917 74.2427 93.6427 75.5336C92.3699 76.7285 90.8643 77.6495 89.2196 78.2395C87.3358 78.9237 85.3333 79.2232 83.3311 79.1202C81.3289 79.0171 79.3679 78.5137 77.5647 77.6397C76.1715 76.986 74.9317 76.0472 73.9259 74.8845C72.92 73.7217 72.1706 72.3609 71.7262 70.8904C71.5626 70.3616 70.7277 70.5873 70.8925 71.1197C71.6777 73.6735 73.2984 75.8909 75.4958 77.4176C77.538 78.8426 79.9769 79.6427 82.4425 79.9099C84.3627 80.1162 86.3045 79.9678 88.1709 79.4722C89.9761 79.0053 91.6718 78.1892 93.1618 77.0705C94.733 75.8861 95.9878 74.3341 96.8153 72.5515C97.7394 70.4517 98.1358 68.1587 97.9702 65.8715C97.8668 63.6917 97.212 61.5735 96.0669 59.7141C95.0215 58.0921 93.6112 56.7357 91.9482 55.7526C90.3566 54.8114 88.6035 54.1736 86.7782 53.8718C84.4532 53.4802 82.0702 53.6046 79.7989 54.2364C79.09 54.4367 78.3961 54.6863 77.7223 54.9836C77.6238 55.0418 77.5523 55.1364 77.5232 55.2468C77.4942 55.3573 77.51 55.4747 77.5672 55.5737C77.627 55.6703 77.7218 55.7403 77.8319 55.7691C77.942 55.7979 78.059 55.7833 78.1586 55.7284H78.1582Z" fill="#4A3E42"/>
<path d="M72.4738 60.9084C73.2983 59.3336 74.4907 57.9799 75.9503 56.9617C76.0471 56.9019 76.1171 56.8074 76.146 56.6975C76.1749 56.5877 76.1603 56.471 76.1054 56.3716C76.0469 56.2735 75.9521 56.2023 75.8414 56.1734C75.7308 56.1445 75.6132 56.1601 75.514 56.2169C73.9274 57.3121 72.6286 58.7722 71.7273 60.4739C71.4693 60.9652 72.2153 61.4016 72.4738 60.9093V60.9084Z" fill="#4A3E42"/>
<path d="M70.4785 64.3619C70.4785 64.2086 70.4658 64.4277 70.4604 64.4606C70.4525 64.5145 70.4451 64.5673 70.4377 64.6207C70.4176 64.7669 70.3985 64.9132 70.3819 65.0598C70.3536 65.3092 70.3317 65.5592 70.3163 65.8099C70.282 66.3478 70.276 66.8871 70.2983 67.4256C70.2983 67.54 70.3439 67.6497 70.4249 67.7306C70.506 67.8114 70.616 67.8569 70.7306 67.8569C70.8453 67.8569 70.9553 67.8114 71.0364 67.7306C71.1174 67.6497 71.163 67.54 71.163 67.4256C71.1407 66.8871 71.1467 66.3478 71.181 65.8099C71.1967 65.5594 71.2186 65.3094 71.2466 65.0598C71.259 64.9499 71.2732 64.8327 71.2864 64.743C71.314 64.6175 71.3328 64.4901 71.3426 64.3619C71.3426 64.2475 71.297 64.1379 71.216 64.057C71.1349 63.9761 71.0249 63.9307 70.9102 63.9307C70.7956 63.9307 70.6856 63.9761 70.6045 64.057C70.5235 64.1379 70.4779 64.2475 70.4779 64.3619H70.4785Z" fill="#4A3E42"/>
<path d="M50.1115 57.6902C51.9925 58.409 53.7068 59.6668 54.8149 61.3739C56.1299 63.3995 56.5186 65.8841 56.2405 68.256C56.0132 70.3255 55.0884 72.2568 53.6175 73.7338C52.2495 75.0452 50.5521 75.964 48.7042 76.3932C46.9602 76.8161 45.1441 76.8497 43.3856 76.4915C41.5743 76.119 39.8423 75.3564 38.4623 74.1421C36.9382 72.7822 35.9199 70.9482 35.5728 68.9381C35.1598 66.7015 35.3765 64.2133 36.4045 62.1638C37.2753 60.4592 38.6647 59.0735 40.3737 58.2054C42.6363 57.0634 45.2012 56.6587 47.7066 57.0484C47.817 57.0753 47.9336 57.0592 48.0325 57.0032C48.1313 56.9472 48.205 56.8556 48.2384 56.7472C48.2679 56.637 48.2528 56.5195 48.1964 56.4203C48.1399 56.321 48.0465 56.2479 47.9365 56.2168C45.7137 55.854 43.4347 56.0711 41.3211 56.8471C39.3766 57.5443 37.6799 58.7953 36.4413 60.445C35.0195 62.3889 34.4657 64.8262 34.5327 67.2037C34.599 69.5623 35.3158 71.8641 36.8304 73.6997C38.1168 75.2583 39.903 76.3478 41.8154 76.9689C43.6671 77.5664 45.6296 77.742 47.5584 77.4828C49.5687 77.2318 51.4823 76.4763 53.1203 75.2869C54.8892 73.9786 56.1726 72.1214 56.769 70.0069C57.4762 67.471 57.3133 64.7721 56.3062 62.3391C55.3921 60.2721 53.8047 58.5737 51.8015 57.5195C51.3292 57.268 50.8413 57.047 50.3406 56.8579C50.2301 56.8284 50.1123 56.8434 50.0128 56.8997C49.9133 56.9561 49.84 57.0492 49.8088 57.1591C49.7809 57.2692 49.7967 57.3859 49.8529 57.4848C49.9092 57.5836 50.0016 57.657 50.1107 57.6895L50.1115 57.6902Z" fill="#4A3E42"/>
<path d="M48.291 68.4022C50.1613 69.3007 52.0133 70.2363 53.8468 71.209C54.3381 71.4695 54.7754 70.7253 54.2833 70.4644C52.4501 69.4922 50.5981 68.5566 48.7273 67.6574C48.6276 67.6027 48.5107 67.5882 48.4006 67.617C48.2906 67.6458 48.1958 67.7157 48.1359 67.8121C48.079 67.9111 48.0634 68.0285 48.0924 68.1389C48.1214 68.2492 48.1927 68.3438 48.291 68.4022Z" fill="#4A3E42"/>
<path d="M43.088 67.9408C41.45 69.0385 39.7459 70.0584 38.0476 71.0602C37.5689 71.3425 38.0034 72.0884 38.484 71.805C40.1824 70.8032 41.8863 69.7833 43.5245 68.6856C43.984 68.3776 43.5517 67.6301 43.088 67.9408Z" fill="#4A3E42"/>
<path d="M44.47 69.7462C43.867 71.334 43.1796 72.8982 42.4861 74.4482C42.4317 74.5477 42.4174 74.6642 42.4462 74.7739C42.475 74.8836 42.5448 74.9782 42.6412 75.0383C42.7404 75.0952 42.8581 75.1108 42.9688 75.0819C43.0795 75.0529 43.1743 74.9817 43.2328 74.8836C43.9566 73.2663 44.6739 71.6328 45.3044 69.9755C45.3339 69.8653 45.3188 69.7478 45.2623 69.6486C45.2058 69.5494 45.1125 69.4762 45.0024 69.4451C44.892 69.4172 44.775 69.433 44.6759 69.4891C44.5769 69.5452 44.5033 69.6373 44.4707 69.7462H44.47Z" fill="#4A3E42"/>
<path d="M50.8445 55.3743C53.2014 56.2188 55.3708 57.7192 56.8058 59.8022C58.5121 62.279 59.0662 65.342 58.7794 68.3015C58.5533 70.9272 57.4308 73.3959 55.5994 75.2952C53.9382 76.9784 51.7933 78.096 49.5107 78.6782C47.3401 79.2252 45.0746 79.2834 42.8786 78.8486C40.6133 78.397 38.4393 77.4502 36.7067 75.9376C34.7869 74.2359 33.5078 71.9308 33.0816 69.4045C32.5772 66.6153 32.858 63.5263 34.1534 60.9792C35.2558 58.8559 37.006 57.137 39.1513 56.0704C42.0244 54.6455 45.2798 54.1773 48.4393 54.7346C48.5497 54.7618 48.6664 54.7457 48.7653 54.6897C48.8642 54.6337 48.9379 54.542 48.971 54.4334C49.0006 54.3232 48.9854 54.2058 48.929 54.1065C48.8725 54.0073 48.7792 53.9342 48.6691 53.903C45.8926 53.4023 43.0327 53.643 40.3795 54.6007C38.0017 55.4735 35.8728 56.9423 34.3647 58.9895C32.6123 61.3698 31.9278 64.355 32.006 67.2748C32.084 70.1645 32.9594 72.9927 34.8199 75.239C36.4131 77.1617 38.6253 78.5016 40.9938 79.2543C43.2898 79.9778 45.7198 80.1761 48.1031 79.8344C50.5602 79.5028 52.8918 78.5514 54.8774 77.0702C57.0328 75.433 58.5762 73.1227 59.2611 70.5081C60.0625 67.4363 59.8507 63.9913 58.5301 61.0933C57.3837 58.5776 55.3249 56.5651 52.87 55.3139C52.2886 55.019 51.6889 54.7614 51.0745 54.5427C50.964 54.5133 50.8463 54.5285 50.7469 54.5848C50.6474 54.6411 50.5741 54.7341 50.5427 54.8438C50.5146 54.954 50.5303 55.0708 50.5866 55.1697C50.6429 55.2686 50.7352 55.3419 50.8445 55.3743Z" fill="#4A3E42"/>
<path d="M83.0594 66.8229C83.0594 66.7772 83.0631 66.732 83.0644 66.6863C83.0682 66.5544 83.0446 66.7551 83.0707 66.6308C83.0875 66.5529 83.1082 66.4759 83.1327 66.4001C83.1381 66.3821 83.1669 66.3262 83.1327 66.3986C83.1485 66.3656 83.1649 66.3329 83.1831 66.3011C83.2013 66.2693 83.2213 66.2409 83.2402 66.2112C83.269 66.1717 83.2676 66.1729 83.2363 66.2146C83.2509 66.1967 83.266 66.1796 83.2817 66.1625C83.3206 66.1205 83.3631 66.0833 83.4056 66.045C83.3292 66.1136 83.4094 66.0427 83.4263 66.0313C83.4541 66.0125 83.4827 65.9954 83.5117 65.9774C83.5602 65.9494 83.6102 65.9248 83.6612 65.9016C83.5616 65.9467 83.6636 65.9029 83.6821 65.8966C83.7239 65.882 83.7659 65.8691 83.8082 65.8581C83.8622 65.8443 83.9148 65.8346 83.9689 65.8243C84.077 65.8037 83.8734 65.8285 83.9826 65.8243C84.0145 65.8229 84.0462 65.8195 84.0782 65.8182C84.1314 65.8164 84.1845 65.817 84.2375 65.82C84.2701 65.8218 84.3025 65.8254 84.3349 65.8283C84.2132 65.817 84.3589 65.8344 84.3834 65.8396C84.4381 65.8512 84.4922 65.8655 84.5455 65.8826C84.5779 65.8928 84.6095 65.905 84.6415 65.9162C84.5412 65.8802 84.6451 65.9183 84.6631 65.9271C84.7248 65.9571 84.7843 65.9912 84.8413 66.0292C84.8604 66.0419 84.8791 66.0552 84.8975 66.0687C84.8119 66.006 84.9276 66.0987 84.9424 66.1129C84.9678 66.1372 84.9903 66.164 85.0153 66.1884C85.0944 66.2662 84.9742 66.1185 85.0358 66.2123C85.0694 66.2631 85.0985 66.3158 85.1301 66.3679C85.1893 66.4662 85.1093 66.2921 85.1472 66.4038C85.16 66.441 85.1729 66.4777 85.1832 66.5156C85.1924 66.5481 85.2 66.581 85.2068 66.6143C85.2111 66.6346 85.2147 66.6551 85.218 66.6755C85.2122 66.6312 85.212 66.6358 85.218 66.6892C85.2212 66.7803 85.2212 66.8689 85.218 66.9603C85.2129 67.0958 85.2281 66.9188 85.2145 66.9947C85.2086 67.0284 85.2019 67.062 85.1936 67.0953C85.1842 67.1337 85.173 67.1718 85.1601 67.2094C85.1556 67.223 85.103 67.333 85.1465 67.2477C85.1131 67.3127 85.0762 67.3758 85.0358 67.4367C84.9742 67.5303 85.0944 67.3828 85.0153 67.4604C84.9903 67.485 84.9678 67.5118 84.9424 67.5361C84.917 67.5603 84.8908 67.5824 84.8645 67.6051C84.9294 67.5492 84.8869 67.5891 84.8696 67.6004C84.8128 67.6388 84.754 67.6742 84.6936 67.7066C84.6633 67.7222 84.6323 67.7368 84.6012 67.7504C84.6999 67.7073 84.5832 67.754 84.5615 67.7612C84.5029 67.7804 84.4433 67.7965 84.383 67.8094C84.3506 67.8162 84.3178 67.8214 84.285 67.8273C84.3998 67.8072 84.2924 67.8252 84.2695 67.8273C84.2155 67.8315 84.1629 67.8329 84.1094 67.832C84.0777 67.832 84.046 67.8306 84.0143 67.8277C83.9928 67.8263 83.9714 67.8243 83.9502 67.822C84.0114 67.8309 84.0175 67.8318 83.9682 67.8243C83.9033 67.8119 83.8392 67.7997 83.7754 67.7817C83.7436 67.7727 83.712 67.7628 83.6805 67.7521C83.6594 67.7449 83.6385 67.7371 83.618 67.7291C83.6696 67.7516 83.6733 67.753 83.629 67.7332C83.5692 67.7025 83.5095 67.6726 83.4528 67.6362C83.4243 67.6181 83.3966 67.5988 83.3696 67.5785C83.4566 67.6441 83.3427 67.5499 83.328 67.5355C83.3132 67.5212 83.2955 67.5032 83.28 67.4863C83.2645 67.4694 83.2492 67.452 83.2346 67.4342C83.266 67.4761 83.2674 67.4771 83.2386 67.4378C83.2197 67.4074 83.1993 67.3783 83.1815 67.3479C83.1748 67.3364 83.1183 67.2221 83.1381 67.2674C83.1637 67.3262 83.1181 67.2101 83.119 67.2124C83.1023 67.162 83.0885 67.1106 83.0776 67.0586C83.0761 67.0514 83.0585 66.919 83.0673 67.0063C83.0612 66.9463 83.059 66.8863 83.0583 66.8266C83.0583 66.7123 83.0127 66.6026 82.9317 66.5217C82.8506 66.4408 82.7406 66.3954 82.626 66.3954C82.5113 66.3954 82.4013 66.4408 82.3203 66.5217C82.2392 66.6026 82.1936 66.7123 82.1936 66.8266C82.189 67.2705 82.341 67.7019 82.6231 68.0453C82.8674 68.3219 83.1884 68.52 83.5456 68.6147C83.8952 68.7157 84.265 68.7246 84.6191 68.6406C84.9731 68.5566 85.2994 68.3826 85.566 68.1355C85.864 67.8218 86.0466 67.4166 86.0839 66.9861C86.1212 66.5555 86.0111 66.1251 85.7715 65.765C85.5427 65.4637 85.2344 65.2317 84.8811 65.095C84.5277 64.9583 84.1432 64.9223 83.7706 64.9909C83.3684 65.0506 82.9953 65.2353 82.7045 65.5187C82.3689 65.871 82.1854 66.3407 82.1936 66.8266C82.1936 66.941 82.2392 67.0507 82.3203 67.1316C82.4013 67.2125 82.5113 67.2579 82.626 67.2579C82.7406 67.2579 82.8506 67.2125 82.9317 67.1316C83.0127 67.0507 83.0583 66.941 83.0583 66.8266L83.0594 66.8229Z" fill="#4A3E42"/>
<path d="M84.9947 65.2451C82.5285 61.557 80.0833 57.8548 77.6591 54.1383C76.9912 53.1163 76.3253 52.093 75.6614 51.0683L75.705 51.4007C76.0716 50.2324 76.4364 49.0635 76.7993 47.8941C76.9643 47.3627 76.1299 47.1354 75.9657 47.6648C75.7173 48.4646 75.4682 49.2642 75.2183 50.0635L75.0322 50.6582C74.968 50.8625 74.834 51.1285 74.8636 51.3434C74.91 51.5075 74.9908 51.6599 75.1006 51.7906L75.3597 52.1901C76.0831 53.3042 76.8091 54.4172 77.5375 55.5291C79.0482 57.8357 80.5654 60.138 82.0891 62.436C82.8068 63.5186 83.5265 64.6001 84.2482 65.6805C84.5556 66.1399 85.3047 65.7087 84.9947 65.2451Z" fill="#4A3E42"/>
<path d="M44.7758 66.8227C44.7758 66.7771 44.7794 66.7318 44.7807 66.6862C44.7845 66.5543 44.7609 66.755 44.787 66.6307C44.8036 66.552 44.8248 66.4767 44.849 66.3999C44.8544 66.382 44.8834 66.3261 44.849 66.3985C44.8648 66.3654 44.8812 66.3327 44.8994 66.3009C44.9176 66.2691 44.9376 66.2407 44.9567 66.2111C44.9853 66.1715 44.9839 66.1728 44.9525 66.2145C44.9671 66.1965 44.9824 66.1795 44.9979 66.1624C45.0368 66.1203 45.0793 66.0831 45.1219 66.0449C45.0455 66.1135 45.1256 66.0425 45.1426 66.0312C45.1703 66.0123 45.199 65.9953 45.2281 65.9773C45.2764 65.9493 45.3265 65.9247 45.3775 65.9015C45.2779 65.9466 45.3798 65.9027 45.3984 65.8964C45.4402 65.8818 45.4822 65.869 45.5245 65.858C45.5785 65.8442 45.6313 65.8345 45.6852 65.8242C45.7932 65.8035 45.5897 65.8283 45.6988 65.8242C45.7307 65.8228 45.7626 65.8194 45.7945 65.8181C45.8476 65.8163 45.9007 65.8169 45.9537 65.8199C45.9863 65.8217 46.0188 65.8253 46.0512 65.8282C45.9294 65.8168 46.0752 65.8343 46.0998 65.8395C46.1539 65.8512 46.2079 65.8654 46.262 65.8824C46.2944 65.8927 46.3259 65.9049 46.358 65.916C46.2576 65.8801 46.3616 65.9182 46.3796 65.927C46.4412 65.9569 46.5008 65.991 46.5577 66.0291C46.5768 66.0418 46.5956 66.0551 46.6141 66.0686C46.5284 66.0059 46.6442 66.0986 46.659 66.1128C46.6842 66.137 46.7067 66.1638 46.731 66.1883C46.8101 66.2661 46.69 66.1184 46.7516 66.2122C46.7851 66.263 46.8143 66.3157 46.8458 66.3678C46.9051 66.4661 46.8251 66.2919 46.8629 66.4037C46.8757 66.4409 46.8887 66.4776 46.8989 66.5155C46.9081 66.548 46.9157 66.5809 46.9225 66.6141C46.9268 66.6344 46.9306 66.6549 46.9337 66.6754C46.9279 66.631 46.9279 66.6357 46.9337 66.6891C46.9369 66.7802 46.9369 66.8687 46.9337 66.9602C46.9288 67.0957 46.944 66.9187 46.9303 66.9945C46.9243 67.0283 46.9177 67.0619 46.9094 67.0952C46.8998 67.1336 46.8888 67.1717 46.876 67.2093C46.8714 67.2229 46.8188 67.3329 46.8622 67.2475C46.8289 67.3126 46.792 67.3757 46.7516 67.4366C46.69 67.5302 46.8101 67.3827 46.731 67.4603C46.706 67.4849 46.6835 67.5117 46.659 67.5359C46.6345 67.5602 46.6073 67.5823 46.581 67.6049C46.6458 67.549 46.6033 67.5889 46.5862 67.6003C46.5293 67.6386 46.4705 67.674 46.41 67.7065C46.3798 67.722 46.349 67.7366 46.3176 67.7503C46.4165 67.7072 46.2996 67.7539 46.2782 67.7611C46.2196 67.7803 46.16 67.7963 46.0997 67.8092C46.067 67.8161 46.0343 67.8213 46.0015 67.8272C46.1162 67.8071 46.0089 67.8251 45.986 67.8272C45.9319 67.8313 45.8793 67.8328 45.8258 67.8319C45.7941 67.8319 45.7624 67.8304 45.7307 67.8276C45.7093 67.8261 45.6879 67.8242 45.6666 67.8218C45.728 67.8308 45.7342 67.8317 45.6846 67.8242C45.6199 67.8118 45.5556 67.7995 45.492 67.7816C45.46 67.7726 45.4283 67.7627 45.3969 67.7519C45.3759 67.7447 45.3551 67.737 45.3344 67.7289C45.3862 67.7514 45.3899 67.7528 45.3456 67.7331C45.2856 67.7023 45.226 67.6725 45.1692 67.636C45.1408 67.6179 45.1131 67.5987 45.0862 67.5783C45.173 67.6439 45.0594 67.5498 45.0444 67.5354C45.0295 67.521 45.0122 67.5031 44.9965 67.4862C44.9808 67.4693 44.9657 67.4518 44.9511 67.434C44.9824 67.4759 44.9839 67.477 44.9552 67.4376C44.9361 67.4073 44.9158 67.3782 44.8979 67.3478C44.8915 67.3363 44.8347 67.222 44.8545 67.2673C44.8801 67.3261 44.8347 67.21 44.8354 67.2123C44.8188 67.1618 44.8049 67.1105 44.794 67.0585C44.7926 67.0513 44.776 66.9189 44.7837 67.0062C44.7778 66.9462 44.7756 66.8862 44.7749 66.8265C44.7749 66.7121 44.7294 66.6024 44.6483 66.5216C44.5672 66.4407 44.4572 66.3953 44.3426 66.3953C44.2279 66.3953 44.118 66.4407 44.0369 66.5216C43.9558 66.6024 43.9103 66.7121 43.9103 66.8265C43.9064 67.2692 44.0585 67.6991 44.3399 68.0414C44.5841 68.3181 44.9052 68.5162 45.2624 68.6108C45.6119 68.7117 45.9817 68.7206 46.3358 68.6366C46.6898 68.5527 47.016 68.3787 47.2826 68.1316C47.5806 67.8179 47.7632 67.4128 47.8006 66.9822C47.8379 66.5517 47.7279 66.1212 47.4883 65.7611C47.2595 65.4598 46.9511 65.2278 46.5978 65.0911C46.2444 64.9544 45.8599 64.9184 45.4872 64.987C45.085 65.0467 44.712 65.2314 44.4211 65.5148C44.0855 65.8671 43.9021 66.3368 43.9104 66.8227C43.9104 66.9371 43.956 67.0468 44.0371 67.1277C44.1181 67.2086 44.2281 67.254 44.3428 67.254C44.4574 67.254 44.5674 67.2086 44.6485 67.1277C44.7295 67.0468 44.7751 66.9371 44.7751 66.8227H44.7758Z" fill="#4A3E42"/>
<path d="M52.8888 38.8651C52.4934 40.2026 52.0843 41.536 51.6747 42.8693C51.0919 44.7659 50.5045 46.6612 49.9126 48.5553C49.2553 50.6616 48.594 52.766 47.9285 54.8686C47.3171 56.8002 46.7007 58.73 46.0792 60.6581C45.6246 62.0647 45.1688 63.4715 44.69 64.8702C44.6493 64.9894 44.6083 65.1084 44.567 65.2272C44.3843 65.7528 45.2193 65.9787 45.4007 65.4565C45.8544 64.1511 46.281 62.8361 46.7076 61.5213C47.318 59.6405 47.9212 57.7571 48.5172 55.871C49.1841 53.7686 49.8464 51.6648 50.5042 49.5595C51.1104 47.6204 51.7128 45.6802 52.3115 43.7387C52.7501 42.3144 53.1877 40.8897 53.6135 39.4621C53.6495 39.3397 53.6859 39.2173 53.7227 39.0946C53.8803 38.5611 53.0463 38.3332 52.8888 38.8653V38.8651Z" fill="#4A3E42"/>
<path d="M68.5779 60.7756C68.3791 61.3973 68.1803 62.0191 67.9816 62.6408C67.952 62.751 67.9671 62.8684 68.0236 62.9677C68.0801 63.0669 68.1734 63.14 68.2835 63.1712C68.394 63.1991 68.511 63.1834 68.6101 63.1273C68.7092 63.0711 68.7827 62.979 68.8153 62.8701C69.0141 62.2483 69.2129 61.6266 69.4115 61.0049C69.441 60.8946 69.4259 60.7772 69.3695 60.678C69.313 60.5788 69.2197 60.5057 69.1096 60.4744C68.9992 60.4465 68.8821 60.4623 68.783 60.5184C68.6839 60.5745 68.6104 60.6667 68.5779 60.7756Z" fill="#4A3E42"/>
<path d="M68.1076 51.8539C69.2543 52.1773 70.4016 52.5007 71.5464 52.8314L71.2445 52.3009C70.6192 54.2913 69.9941 56.2816 69.3693 58.272C69.2017 58.8028 70.0358 59.0298 70.2029 58.5013C70.8305 56.5118 71.4556 54.5214 72.0782 52.5302C72.107 52.42 72.0916 52.3029 72.0352 52.2038C71.9788 52.1048 71.8859 52.0315 71.7763 51.9998C70.6315 51.669 69.4842 51.3462 68.3374 51.0223C67.8011 50.8708 67.5722 51.7027 68.1076 51.8539Z" fill="#4A3E42"/>
<path d="M64.8032 62.4011C64.7634 62.3397 64.7223 62.2791 64.6825 62.2178C64.6406 62.1436 64.5768 62.084 64.4997 62.0472C64.4227 62.0103 64.3361 61.998 64.2518 62.0119C64.1946 62.0144 64.1392 62.0321 64.0911 62.0631L64.0036 62.1305C63.9507 62.1833 63.9124 62.2488 63.8924 62.3208L63.877 62.4354C63.8768 62.512 63.8972 62.5872 63.936 62.6532C63.9759 62.7145 64.0167 62.775 64.0567 62.8365C64.0987 62.9107 64.1626 62.9702 64.2396 63.007C64.3166 63.0438 64.4032 63.0561 64.4874 63.0422C64.5446 63.0398 64.6001 63.0222 64.6481 62.9912L64.7357 62.9236C64.7886 62.8709 64.8269 62.8053 64.8468 62.7334L64.8623 62.6187C64.8624 62.5422 64.842 62.4671 64.8032 62.4011Z" fill="#4A3E42"/>
<path d="M61.6257 49.1452C59.3664 48.5152 57.1062 47.8881 54.8453 47.2639C54.7627 47.2434 54.676 47.2474 54.5957 47.2753C54.5154 47.3033 54.4451 47.354 54.3933 47.4213C54.3414 47.4885 54.3104 47.5694 54.304 47.654C54.2976 47.7386 54.316 47.8232 54.3571 47.8975C56.1925 50.8632 58.116 53.7767 60.0228 56.697C60.7059 57.7431 61.3904 58.7882 62.0764 59.8325C62.3801 60.2948 63.1291 59.8632 62.8229 59.3971C60.6084 56.0248 58.3996 52.6485 56.2298 49.2473C55.8515 48.6543 55.4741 48.0603 55.1038 47.4621L54.6156 48.0955C56.8775 48.7158 59.1377 49.3429 61.396 49.9768C61.9328 50.1265 62.1618 49.294 61.6259 49.1452H61.6257Z" fill="#4A3E42"/>
<path d="M67.7979 65.9625C68.0794 65.1526 68.343 64.3364 68.6067 63.5205C68.6362 63.4102 68.6211 63.2928 68.5647 63.1936C68.5082 63.0943 68.4148 63.0212 68.3048 62.99C68.1943 62.9621 68.0773 62.9779 67.9782 63.034C67.8791 63.0901 67.8056 63.1823 67.773 63.2912C67.5093 64.1072 67.2457 64.9233 66.9642 65.7332C66.9344 65.8434 66.9494 65.9609 67.0059 66.0602C67.0625 66.1595 67.1559 66.2326 67.2661 66.2636C67.3765 66.2913 67.4934 66.2754 67.5925 66.2193C67.6915 66.1632 67.7651 66.0712 67.7979 65.9625Z" fill="#4A3E42"/>
<path d="M67.3632 48.9487C69.0396 49.4256 70.7155 49.9041 72.3909 50.3844C72.5014 50.4128 72.6186 50.3972 72.7178 50.341C72.817 50.2849 72.8905 50.1924 72.9226 50.0832C73.201 49.1936 73.4631 48.2991 73.7423 47.4094C73.9085 46.8785 73.074 46.6512 72.9086 47.1802C72.6301 48.0698 72.3682 48.9643 72.089 49.8539L72.6207 49.5528C70.9458 49.0707 69.2699 48.5922 67.5931 48.1171C67.057 47.9647 66.8282 48.7966 67.3632 48.9487Z" fill="#4A3E42"/>
<path d="M54.8726 40.9017C54.4935 42.156 54.1105 43.4091 53.7233 44.6608C53.6943 44.771 53.7097 44.8882 53.7661 44.9873C53.8225 45.0863 53.9155 45.1595 54.0252 45.1912C56.0335 45.7513 58.0408 46.3149 60.0472 46.8821C60.5835 47.0336 60.8124 46.2016 60.2771 46.0505C58.2704 45.4843 56.2631 44.9206 54.255 44.3596L54.557 44.8901C54.9432 43.638 55.3263 42.385 55.7062 41.131C55.8671 40.5984 55.0329 40.3707 54.8726 40.9017Z" fill="#4A3E42"/>
<path d="M70.5789 66.6982C71.6181 63.7069 72.5619 60.6811 73.52 57.6632C73.8767 56.5395 74.2321 55.4155 74.5861 54.2911L73.7958 54.3941C75.9845 57.7974 78.2088 61.1778 80.4687 64.5353C81.0311 65.3715 81.5967 66.2057 82.1654 67.0378C82.4774 67.4935 83.227 67.0624 82.9121 66.6026C80.6832 63.348 78.5075 60.0567 76.3529 56.7529C75.7466 55.8233 75.1431 54.892 74.5425 53.9589C74.498 53.8879 74.434 53.8311 74.3581 53.7953C74.2821 53.7595 74.1975 53.7462 74.1142 53.7571C74.0309 53.7679 73.9525 53.8024 73.8884 53.8565C73.8242 53.9105 73.7769 53.9818 73.7522 54.0619C72.6424 57.5868 71.5302 61.1125 70.3685 64.6202C70.1642 65.2377 69.9582 65.8545 69.7447 66.4689C69.562 66.9945 70.3972 67.2204 70.5786 66.6982H70.5789Z" fill="#4A3E42"/>
<path d="M47.7776 66.1814C49.246 61.9587 50.5579 57.6779 51.9007 53.4141C52.3422 52.0114 52.7819 50.6081 53.2196 49.2043L52.4295 49.3074C54.2489 52.2935 56.1647 55.2234 58.07 58.155C58.7798 59.2472 59.4924 60.3373 60.2079 61.4254C60.5118 61.8875 61.2608 61.4559 60.9544 60.99C58.6928 57.5505 56.4608 54.0913 54.2583 50.6123C53.8942 50.0343 53.5314 49.4555 53.176 48.872C53.1317 48.8009 53.0677 48.7439 52.9917 48.708C52.9158 48.6721 52.8311 48.6588 52.7477 48.6697C52.6644 48.6806 52.586 48.7151 52.5218 48.7693C52.4577 48.8234 52.4105 48.8948 52.3859 48.975C50.8872 53.776 49.3838 58.5764 47.8149 63.355C47.5301 64.2226 47.2437 65.0898 46.944 65.9521C46.7611 66.4777 47.5962 66.7034 47.7776 66.1814Z" fill="#4A3E42"/>
<path d="M65.0455 67.1088C64.0727 65.6885 63.1126 64.26 62.1651 62.8232C61.8597 62.3621 61.1105 62.7935 61.4186 63.2586C62.3689 64.6936 63.329 66.1221 64.299 67.5442C64.3588 67.6408 64.4536 67.7107 64.5637 67.7395C64.6738 67.7683 64.7908 67.7538 64.8904 67.6989C64.9886 67.6404 65.0599 67.5458 65.0889 67.4355C65.1179 67.3251 65.1023 67.2078 65.0455 67.1088Z" fill="#4A3E42"/>
<path d="M59.2955 39.9434H59.2937C59.1799 39.9478 59.0714 39.9924 58.9874 40.0691C58.9106 40.1529 58.8659 40.2611 58.8613 40.3746L58.8768 40.4893C58.8966 40.5613 58.9349 40.6268 58.988 40.6795L59.0755 40.7471C59.1417 40.7858 59.217 40.8061 59.2937 40.8059H59.2955C59.4092 40.8028 59.5174 40.7564 59.5978 40.6762C59.6782 40.596 59.7247 40.488 59.7278 40.3746L59.7123 40.26C59.6923 40.188 59.654 40.1225 59.6012 40.0697L59.5136 40.0023C59.4474 39.9637 59.3721 39.9434 59.2955 39.9434Z" fill="#4A3E42"/>
<path d="M53.6331 38.4044C53.173 38.2647 52.7144 38.0028 52.5458 37.5454C52.5073 37.4505 52.4883 37.3488 52.4897 37.2464C52.4882 37.1965 52.4943 37.1465 52.5077 37.0984C52.5106 37.0872 52.5492 36.9695 52.527 37.024C52.5974 36.853 52.7261 36.7124 52.8905 36.6272C53.0639 36.5274 53.2571 36.4669 53.4565 36.4499C53.6559 36.4329 53.8566 36.4599 54.0443 36.5289C54.5484 36.7213 55.0371 36.9516 55.5061 37.2179C55.6058 37.2728 55.7228 37.2874 55.8329 37.2586C55.943 37.2298 56.0378 37.1598 56.0975 37.0632C56.1544 36.9641 56.1699 36.8468 56.1409 36.7365C56.1119 36.6261 56.0406 36.5315 55.9424 36.4731C55.0216 36.0148 54.0541 35.3696 52.9804 35.6625C52.7378 35.7217 52.5095 35.8286 52.3088 35.977C52.1081 36.1253 51.9391 36.3121 51.8117 36.5264C51.6843 36.7751 51.6223 37.052 51.6318 37.3311C51.6413 37.6102 51.7218 37.8824 51.8657 38.1219C52.1957 38.7043 52.7763 39.046 53.402 39.236C53.9355 39.3977 54.1636 38.5657 53.6318 38.4044H53.6331Z" fill="#4A3E42"/>
<path d="M80.7774 43.5981C80.8745 44.1026 80.9297 44.6143 80.9426 45.1278C80.9718 45.6085 80.9447 46.0909 80.8619 46.5653C80.839 46.7359 80.7671 46.8962 80.6549 47.027C80.5003 47.1502 80.311 47.2224 80.1134 47.2336C79.6296 47.2976 79.1424 47.3331 78.6543 47.34C76.6413 47.4015 74.6326 47.1207 72.7141 46.5096C72.2182 46.3517 71.6808 46.2004 71.2465 45.9039C70.9669 45.7131 70.6684 45.319 70.8372 44.9683C70.8921 44.8688 70.9067 44.7521 70.8778 44.6423C70.8489 44.5325 70.7789 44.4379 70.6821 44.3782C70.5829 44.3214 70.4653 44.3058 70.3547 44.3348C70.244 44.3637 70.1492 44.4349 70.0907 44.5329C69.9732 44.7745 69.9217 45.0428 69.9417 45.3106C69.9617 45.5784 70.0523 45.8361 70.2044 46.0577C70.513 46.5217 70.997 46.79 71.5014 46.9943C72.5852 47.4211 73.7112 47.7328 74.8606 47.9242C76.0304 48.1307 77.2173 48.2259 78.4052 48.2084C78.9983 48.202 79.5905 48.162 80.179 48.0886C80.7319 48.0167 81.2598 47.8063 81.5243 47.2812C81.8042 46.7253 81.8075 46.0338 81.8107 45.4252C81.8113 44.735 81.7445 44.0464 81.6115 43.369C81.5801 43.2593 81.5068 43.1663 81.4073 43.11C81.3079 43.0536 81.1902 43.0385 81.0797 43.0679C80.9704 43.1003 80.878 43.1736 80.8217 43.2725C80.7654 43.3714 80.7497 43.4881 80.7778 43.5983L80.7774 43.5981Z" fill="#4A3E42"/>
<path d="M71.5656 76.342C71.9739 76.2502 72.3825 76.158 72.7914 76.0652L73.2045 75.9718C73.2257 75.9671 73.2473 75.963 73.2686 75.9574C73.3709 75.9307 73.163 75.9574 73.1128 75.926C73.0838 75.9071 73.0592 75.8822 73.0407 75.853C73.0324 75.8396 73.0184 75.7749 73.0241 75.8293C73.0295 75.8622 73.0368 75.8947 73.0461 75.9267C73.1189 76.2487 73.1909 76.5709 73.2623 76.8933C73.2767 76.9582 73.2912 77.0232 73.3057 77.0882C73.3078 77.1032 73.3111 77.118 73.3154 77.1324C73.3414 77.1993 73.319 77.021 73.3208 77.014C73.3347 76.9601 73.4244 76.8692 73.4594 76.8742C73.4116 76.8784 73.3647 76.8896 73.3201 76.9073L73.122 76.9542L71.7758 77.2731C71.6658 77.3044 71.5725 77.3775 71.516 77.4767C71.4595 77.5759 71.4444 77.6933 71.4739 77.8036C71.5063 77.9126 71.5798 78.0048 71.679 78.061C71.7781 78.1171 71.8952 78.1328 72.0056 78.1047L73.3655 77.7827C73.5301 77.7578 73.6907 77.7114 73.8432 77.6447C73.9884 77.5634 74.097 77.4298 74.1468 77.2713C74.1814 77.1316 74.1781 76.9851 74.137 76.8471C74.0557 76.4816 73.9741 76.1162 73.8922 75.751C73.8306 75.4777 73.7204 75.2096 73.4199 75.126C73.2224 75.0916 73.0194 75.1078 72.8299 75.1733C72.332 75.2859 71.8341 75.3984 71.3362 75.5107C71.2262 75.5419 71.1328 75.615 71.0763 75.7142C71.0199 75.8135 71.0048 75.9309 71.0343 76.0412C71.0669 76.1501 71.1405 76.2422 71.2396 76.2983C71.3386 76.3544 71.4556 76.3702 71.5661 76.3423L71.5656 76.342Z" fill="#4A3E42"/>
<path d="M69.6373 75.8953C69.207 75.9924 68.7767 76.0895 68.3463 76.1865C68.2334 76.1991 68.1246 76.2362 68.0275 76.2952C67.9305 76.3542 67.8476 76.4336 67.7846 76.5279C67.645 76.7649 67.7259 77.0228 67.7798 77.2704C67.8585 77.6321 67.9323 77.9951 68.0139 78.3561C68.0473 78.5248 68.1464 78.6734 68.2894 78.7693C68.4325 78.8653 68.6078 78.9008 68.777 78.868C68.911 78.8449 69.0436 78.8077 69.176 78.7762C69.6874 78.6547 70.1988 78.5331 70.7102 78.4113C70.8202 78.38 70.9135 78.3069 70.97 78.2077C71.0265 78.1084 71.0416 77.9911 71.0122 77.8808C70.9796 77.7719 70.9061 77.6797 70.807 77.6235C70.7079 77.5674 70.5909 77.5517 70.4804 77.5797L69.2412 77.8743L68.7956 77.9802L68.6415 78.0161C68.6309 78.0185 68.5857 78.0224 68.5817 78.0301C68.5931 78.0086 68.733 78.0357 68.7532 78.0481C68.7676 78.0573 68.8718 78.145 68.8577 78.1728C68.8709 78.1466 68.8251 78.021 68.819 77.992C68.802 77.9137 68.7852 77.8354 68.7685 77.7572C68.7325 77.5895 68.6965 77.4221 68.6604 77.2551C68.6286 77.1078 68.6051 76.9552 68.5637 76.8102C68.5329 76.7024 68.5722 76.8979 68.539 76.9484C68.5261 76.9685 68.4441 77.0663 68.412 77.0562C68.4174 77.058 68.432 77.0512 68.4378 77.0505C68.4918 77.0435 68.5479 77.0253 68.6015 77.0131C69.0234 76.9173 69.4454 76.822 69.8676 76.7274C69.9776 76.6963 70.071 76.6232 70.1275 76.5239C70.184 76.4246 70.1991 76.3072 70.1695 76.1969C70.1369 76.088 70.0633 75.9959 69.9642 75.9398C69.8652 75.8837 69.7482 75.8679 69.6377 75.8958L69.6373 75.8953Z" fill="#4A3E42"/>
<path d="M69.7218 72.7094C70.2956 74.1579 70.9042 75.599 71.4308 77.0655C71.4658 77.1558 71.4909 77.2496 71.5057 77.3452C71.4956 77.2662 71.5039 77.452 71.5016 77.4796C71.5081 77.4056 71.4987 77.4965 71.4926 77.5156C71.4681 77.5932 71.4955 77.5449 71.4602 77.5995C71.4248 77.6447 71.3803 77.682 71.3295 77.709C71.2787 77.736 71.2228 77.752 71.1654 77.756C71.0748 77.754 70.986 77.73 70.9067 77.6862C70.8274 77.6424 70.7599 77.58 70.7101 77.5044C70.6836 77.4685 70.6623 77.3839 70.6265 77.3557C70.5757 77.3158 70.6719 77.4681 70.6362 77.3788C70.5978 77.2823 70.5584 77.1862 70.5202 77.0897C70.3946 76.7731 70.2703 76.4559 70.1475 76.1383C69.7626 75.1486 69.3804 74.158 69.0009 73.1664C68.9677 73.0579 68.894 72.9662 68.7951 72.9102C68.6962 72.8542 68.5796 72.8381 68.4691 72.8652C68.359 72.8963 68.2656 72.9694 68.2091 73.0687C68.1526 73.1679 68.1376 73.2854 68.1672 73.3957C68.5401 74.3687 68.9151 75.341 69.2922 76.3124C69.4313 76.67 69.5703 77.0275 69.7123 77.384C69.7988 77.6475 69.9295 77.8944 70.0987 78.1143C70.2859 78.3437 70.5439 78.5048 70.8325 78.5725C71.1211 78.6402 71.4241 78.6108 71.6941 78.4888C71.9012 78.3916 72.0753 78.2363 72.1952 78.0418C72.315 77.8474 72.3753 77.6223 72.3688 77.3941C72.3553 77.131 72.2938 76.8726 72.1874 76.6315C72.064 76.3081 71.9379 75.9875 71.812 75.6658C71.3956 74.6029 70.9768 73.541 70.5555 72.48C70.5222 72.3715 70.4485 72.2799 70.3496 72.2239C70.2508 72.1679 70.1342 72.1518 70.0237 72.1788C69.9136 72.2099 69.8202 72.283 69.7637 72.3822C69.7072 72.4815 69.6922 72.599 69.7218 72.7092V72.7094Z" fill="#4A3E42"/>
<path d="M67.3979 66.5251C68.5704 66.4622 69.8547 66.8794 70.5451 67.8934C71.3037 69.0075 71.2795 70.7275 70.4046 71.7578C69.6243 72.6769 68.4112 73.0399 67.2428 72.9287C66.6761 72.8701 66.1293 72.6875 65.6416 72.3937C65.1369 72.0851 64.741 71.6274 64.5089 71.0842C64.1833 70.2615 64.1653 69.3494 64.4584 68.5146C64.7178 67.822 65.2317 67.2538 65.8958 66.9254C66.3883 66.6663 65.9518 65.9217 65.4595 66.1806C64.7263 66.555 64.1368 67.1594 63.7818 67.9008C63.3947 68.7781 63.2932 69.7544 63.4914 70.6922C63.8034 72.2478 65.0747 73.3633 66.5988 73.6931C68.0239 74.0011 69.5877 73.6803 70.6894 72.7008C71.9951 71.54 72.2746 69.5135 71.5708 67.957C70.8577 66.379 69.0705 65.5724 67.3979 65.662C66.8444 65.6917 66.8409 66.5544 67.3979 66.5245V66.5251Z" fill="#4A3E42"/>
<path d="M66.2179 64.0035C66.8168 65.6513 67.3578 67.3215 67.9077 68.9859C67.9346 69.0668 67.9634 69.1477 67.9877 69.2292C67.9987 69.2668 68.0084 69.3045 68.0169 69.3428C68.0234 69.3714 68.0301 69.4531 68.0245 69.3807C68.0283 69.4296 68.0286 69.4776 68.0281 69.5264C68.028 69.5479 68.0267 69.5693 68.0239 69.5906C68.0344 69.5187 68.0155 69.6138 68.0104 69.6265C67.9798 69.6998 68.0115 69.6587 67.9722 69.7083C67.996 69.6783 67.9285 69.7565 67.9146 69.7671C67.8324 69.8225 67.7342 69.8492 67.6352 69.8431C67.5356 69.8313 67.4417 69.7907 67.365 69.7263C67.3278 69.6944 67.294 69.6588 67.2641 69.6201C67.231 69.5784 67.1937 69.4531 67.1526 69.4291C67.1886 69.4497 67.203 69.5579 67.1667 69.4583C67.1508 69.4154 67.1344 69.3728 67.1186 69.3299C67.0681 69.1928 67.0188 69.0553 66.9694 68.9178C66.8198 68.5007 66.6715 68.0832 66.5246 67.6652C66.1298 66.5461 65.7376 65.426 65.348 64.305C65.1678 63.7839 64.3313 64.0078 64.5143 64.5343C64.8883 65.6108 65.2647 66.6864 65.6438 67.7612C65.8067 68.2235 65.9706 68.6855 66.1355 69.1473C66.2136 69.3903 66.3039 69.6292 66.4059 69.8632C66.4802 70.0311 66.5872 70.1825 66.7208 70.3088C66.8543 70.435 67.0117 70.5335 67.1837 70.5985C67.3558 70.6635 67.5391 70.6937 67.7229 70.6873C67.9068 70.6809 68.0876 70.6382 68.2547 70.5615C68.8084 70.2919 68.9698 69.6763 68.8511 69.1128C68.7851 68.8578 68.7049 68.6066 68.611 68.3604C68.4618 67.9107 68.3121 67.4615 68.1617 67.0128C67.7997 65.9309 67.4412 64.8466 67.0519 63.7742C67.0189 63.6656 66.9453 63.5737 66.8463 63.5177C66.7474 63.4616 66.6306 63.4456 66.5201 63.4731C66.4101 63.5043 66.3168 63.5774 66.2603 63.6766C66.2038 63.7759 66.1887 63.8933 66.2182 64.0035H66.2179Z" fill="#4A3E42"/>
<path d="M62.357 63.4561C62.4607 63.7774 62.5647 64.0986 62.6688 64.4197C62.7909 64.7982 62.8911 65.2742 63.3778 65.3036C63.5636 65.2971 63.7467 65.2571 63.9182 65.1856C64.125 65.1211 64.3318 65.0568 64.5386 64.9926C65.6109 64.6591 66.6833 64.3258 67.7557 63.9928C68.1554 63.8686 68.8074 63.7836 68.9237 63.31C69.0044 62.9824 68.793 62.5706 68.6948 62.2611C68.5944 61.9445 68.5307 61.4746 68.2367 61.2789C67.8618 61.0294 67.3142 61.3032 66.9244 61.42L65.3469 61.8928L63.5486 62.4318L62.941 62.6137C62.5297 62.7364 62.2754 63.0016 62.3562 63.4553C62.3876 63.5651 62.4609 63.6582 62.5604 63.7145C62.6599 63.7709 62.7777 63.786 62.8882 63.7565C62.9973 63.7239 63.0897 63.6506 63.1459 63.5518C63.2022 63.4529 63.218 63.3363 63.1901 63.2261C63.2049 63.3091 62.9491 63.4748 63.0946 63.4681C63.1208 63.4632 63.1463 63.4556 63.1708 63.4453L63.3748 63.3844L63.8991 63.2273C64.3563 63.0905 64.8135 62.9536 65.2705 62.8166C66.101 62.5675 66.9315 62.3186 67.762 62.0699C67.7914 62.0611 67.8917 62.0493 67.9112 62.0252C67.9389 61.9911 68.219 62.1582 67.8009 61.9596C67.5947 61.8619 67.6849 61.875 67.6945 61.9652C67.7096 62.0348 67.7312 62.1029 67.759 62.1686C67.8482 62.45 67.9374 62.7315 68.0265 63.0131C68.0354 63.0703 68.0529 63.1258 68.0783 63.1777C68.1774 63.2855 68.1392 62.8917 68.2306 62.9416C68.2176 62.9442 68.2049 62.9481 68.1927 62.9533C68.1309 62.9644 68.0708 62.9832 68.0137 63.0092L67.5259 63.1607L64.757 64.0212C64.3506 64.1474 63.9442 64.2738 63.538 64.4003C63.4809 64.4091 63.4255 64.4264 63.3735 64.4515C63.7282 64.1561 63.6309 64.7182 63.6088 64.5222C63.6009 64.487 63.5899 64.4527 63.5758 64.4196L63.492 64.1596C63.3915 63.8481 63.2909 63.537 63.1901 63.2264C63.021 62.7005 62.1858 62.9254 62.357 63.4561Z" fill="#4A3E42"/>
<path d="M64.7403 56.0619C64.7643 56.7996 64.4943 57.5167 63.9895 58.0564C63.4527 58.6656 62.6925 58.9728 62.0008 59.3705C61.2874 59.7811 60.5164 60.3063 60.1653 61.0791C59.8486 61.7763 59.8259 62.6841 60.5195 63.1664C60.8662 63.4076 61.3391 63.4581 61.7496 63.4703C62.1915 63.4886 62.6332 63.4312 63.0556 63.3006C63.8843 63.0311 64.7118 62.7555 65.5394 62.4816C66.3482 62.2139 67.1573 61.9469 67.9668 61.6806C68.4009 61.5381 68.855 61.4215 69.2738 61.2385C69.6248 61.0798 69.9292 60.8341 70.158 60.5248C70.3081 60.3443 70.421 60.1359 70.4899 59.9117C70.5589 59.6874 70.5826 59.4517 70.5597 59.2183C70.4921 58.7202 70.2185 58.2887 69.9865 57.8526C69.5072 56.9497 69.1204 56.0009 68.832 55.0205C68.6749 54.4894 67.8401 54.7151 67.9983 55.2498C68.2422 56.072 68.5497 56.8739 68.9182 57.6485C69.0896 58.0097 69.2837 58.3572 69.47 58.7105C69.6275 59.0091 69.7957 59.3486 69.6581 59.6853C69.3673 60.3961 68.6747 60.5412 68.0138 60.7577C67.2666 61.0027 66.5196 61.2488 65.773 61.496C65.0372 61.7396 64.3013 61.9827 63.5653 62.2256C62.8065 62.4752 62.0445 62.7524 61.2357 62.5436C60.6106 62.3819 60.7893 61.6675 61.0541 61.2499C61.4477 60.6281 62.189 60.2474 62.8153 59.9047C63.2168 59.7053 63.6047 59.48 63.9767 59.2301C64.293 58.9969 64.5742 58.7197 64.8118 58.407C65.3211 57.745 65.6651 56.9069 65.6044 56.0613C65.6018 55.9478 65.5554 55.8396 65.4749 55.7593C65.3943 55.679 65.2859 55.6327 65.1721 55.6301C65.0577 55.631 64.9483 55.6767 64.8674 55.7574C64.7865 55.8381 64.7407 55.9472 64.7398 56.0613L64.7403 56.0619Z" fill="#4A3E42"/>
<path d="M64.3943 58.4232C64.8882 58.7299 65.5279 58.725 66.086 58.6544C66.4752 58.6103 66.8606 58.537 67.2389 58.4352C68.1918 58.1657 69.0255 57.5756 69.2908 56.581C69.4349 56.0441 68.6004 55.815 68.4571 56.3517C68.2613 57.085 67.6499 57.4284 66.9658 57.6156C66.6742 57.6925 66.378 57.7513 66.0791 57.7917C65.6994 57.8456 65.1824 57.8963 64.8313 57.6783C64.3576 57.3842 63.9229 58.1301 64.3948 58.4232H64.3943Z" fill="#4A3E42"/>
<path d="M69.5476 37.3083C66.7829 37.7771 64.0177 38.2443 61.2523 38.7099C61.1422 38.7411 61.0488 38.8142 60.9924 38.9134C60.9359 39.0127 60.9208 39.1301 60.9503 39.2403C60.983 39.3492 61.0565 39.4413 61.1556 39.4974C61.2547 39.5535 61.3717 39.5693 61.4821 39.5415C64.2472 39.0743 67.0124 38.6071 69.7775 38.1399C69.8876 38.1088 69.981 38.0357 70.0374 37.9364C70.0939 37.8372 70.109 37.7197 70.0794 37.6095C70.0467 37.5006 69.9732 37.4085 69.8741 37.3524C69.775 37.2963 69.6581 37.2805 69.5476 37.3083Z" fill="#4A3E42"/>
<path d="M81.3471 40.2286C81.6713 41.172 81.3853 42.1411 80.8027 42.9207C80.1417 43.769 79.1958 44.3507 78.139 44.5586C76.8836 44.8405 75.569 44.737 74.3031 44.587C73.639 44.5081 72.9782 44.4073 72.3105 44.3627C71.6857 44.3207 71.0596 44.3135 70.4336 44.3187C69.0076 44.3308 67.5892 44.3667 66.1712 44.1804C66.1047 44.1807 66.0392 44.1962 65.9797 44.2258C65.9202 44.2554 65.8683 44.2982 65.828 44.3509C65.7877 44.4037 65.7601 44.465 65.7474 44.53C65.7346 44.5951 65.737 44.6622 65.7543 44.7263C66.6728 47.1315 67.3992 49.6055 67.9266 52.125C68.1194 53.0685 68.2869 54.0182 68.4157 54.9725L68.7331 54.5567C68.0846 54.8139 67.4193 55.0304 66.7516 55.227C65.9939 55.4742 65.213 55.6442 64.4209 55.7344L64.7942 55.9481C63.0578 52.2105 61.5225 48.3855 59.8168 44.6348C59.3709 43.6544 58.8143 42.6469 58.779 41.5461C58.761 40.9925 57.8963 40.99 57.9143 41.5461C57.9478 42.5937 58.3705 43.5493 58.8026 44.4858C59.2364 45.4263 59.6574 46.3726 60.0728 47.3212C60.9268 49.2719 61.7565 51.2328 62.6102 53.1837C63.0785 54.2548 63.5548 55.3229 64.0477 56.3834C64.0847 56.4494 64.139 56.5041 64.2047 56.5417C64.2705 56.5793 64.3452 56.5984 64.4209 56.5969C65.2693 56.5088 66.1064 56.3346 66.9193 56.0769C67.6088 55.876 68.2959 55.6535 68.9637 55.3883C69.1224 55.3254 69.3076 55.1702 69.2811 54.9725C68.9208 52.3254 68.3301 49.7146 67.5157 47.1697C67.2289 46.2703 66.9195 45.3794 66.5873 44.497L66.1704 45.0429C67.5125 45.2193 68.8563 45.1997 70.2055 45.1837C70.8661 45.1758 71.527 45.1776 72.1871 45.2175C72.8963 45.2605 73.597 45.3658 74.3021 45.4495C76.8049 45.7462 79.6999 45.7027 81.4026 43.5461C82.1898 42.549 82.6066 41.2396 82.1797 39.9993C81.9996 39.4782 81.1646 39.7016 81.346 40.2286H81.3471Z" fill="#4A3E42"/>
<path d="M60.8194 42.8056L63.8573 43.7675C63.912 43.7825 63.9692 43.7867 64.0255 43.7797C64.0819 43.7727 64.1363 43.7547 64.1857 43.7268C64.2351 43.6988 64.2784 43.6614 64.3133 43.6167C64.3482 43.572 64.3739 43.5209 64.389 43.4663C64.4041 43.4117 64.4083 43.3547 64.4013 43.2985C64.3943 43.2423 64.3763 43.188 64.3482 43.1387C64.3202 43.0895 64.2827 43.0462 64.2379 43.0114C64.1931 42.9766 64.1419 42.9509 64.0871 42.9359L61.0493 41.974C60.9945 41.959 60.9374 41.9548 60.881 41.9618C60.8247 41.9688 60.7702 41.9868 60.7209 42.0147C60.6715 42.0427 60.6281 42.0801 60.5932 42.1248C60.5583 42.1695 60.5326 42.2206 60.5175 42.2752C60.5024 42.3298 60.4983 42.3868 60.5053 42.443C60.5123 42.4992 60.5303 42.5535 60.5583 42.6028C60.5864 42.652 60.6239 42.6953 60.6686 42.7301C60.7134 42.7649 60.7647 42.7906 60.8194 42.8056Z" fill="#4A3E42"/>
<path d="M54.4468 40.3315C54.6058 40.2072 54.7373 40.0514 54.8328 39.8738C54.9589 39.6828 55.085 39.491 55.2214 39.306C55.2824 39.2228 55.1673 39.3714 55.2183 39.3099C55.2325 39.293 55.2462 39.2758 55.2604 39.2589C55.2902 39.2242 55.321 39.1904 55.3539 39.1588C55.4703 39.047 55.5941 38.9417 55.7167 38.8372C55.7746 38.7879 55.8329 38.739 55.892 38.6912C55.928 38.6625 55.9641 38.6343 55.9987 38.6061C56.0707 38.5495 55.9385 38.6501 56.0167 38.5917C56.1397 38.5008 56.2638 38.412 56.3924 38.3292C56.4861 38.2691 56.5529 38.1753 56.579 38.0673C56.605 37.9593 56.5883 37.8454 56.5322 37.7494C56.4762 37.6534 56.3852 37.5827 56.2782 37.552C56.1712 37.5213 56.0564 37.5329 55.9578 37.5845C55.6845 37.7633 55.4227 37.9588 55.1738 38.17C54.9595 38.3353 54.7627 38.5219 54.5864 38.727C54.4278 38.9268 54.2859 39.1376 54.1454 39.3502C54.0913 39.4312 54.0386 39.5119 53.9824 39.592C53.9725 39.6062 53.9618 39.6199 53.9521 39.6341C53.913 39.6912 54.035 39.5397 53.9757 39.6037C53.9677 39.6117 53.9602 39.6201 53.9532 39.6289C53.9116 39.6849 54.047 39.564 54.011 39.5868C53.962 39.6154 53.9191 39.6533 53.8848 39.6985C53.8505 39.7436 53.8254 39.795 53.811 39.8498C53.7966 39.9046 53.7932 39.9617 53.8009 40.0178C53.8086 40.0739 53.8273 40.1279 53.856 40.1768C53.8847 40.2257 53.9227 40.2685 53.9679 40.3027C54.0132 40.337 54.0647 40.362 54.1196 40.3763C54.1746 40.3907 54.2318 40.3941 54.288 40.3864C54.3443 40.3787 54.3985 40.36 54.4475 40.3315H54.4468Z" fill="#4A3E42"/>
<path d="M60.9971 33.99L59.821 35.1875C59.5159 35.4983 59.2179 35.8714 58.8346 36.0897C58.4194 36.3263 57.8935 36.1767 57.4475 36.1283C57.0323 36.0868 56.613 36.1216 56.2103 36.2307C55.3523 36.4363 54.5681 36.8751 53.9451 37.4984C53.6453 37.8239 53.3834 38.1821 53.1642 38.5662C53.0045 38.8103 52.9 39.0863 52.8579 39.3748C52.8273 39.5517 52.8404 39.7334 52.8959 39.9042C52.9514 40.075 53.0477 40.2298 53.1766 40.3552C53.6179 40.7422 54.1902 40.6247 54.5851 40.2441L53.9062 39.7216C53.7797 39.9429 53.7111 40.1925 53.7069 40.4473C53.7026 40.7021 53.7628 40.9538 53.8818 41.1792C54.3163 41.9044 55.3372 41.8124 55.7403 41.1152L54.9501 40.7828C54.7966 41.3562 54.9753 42.0502 55.5382 42.3307C55.7269 42.4339 55.9434 42.475 56.1569 42.4482C56.3704 42.4215 56.57 42.3281 56.7271 42.1815C57.0342 41.8646 57.2972 41.5081 57.5091 41.1214L56.7624 40.686C56.659 40.8552 56.5984 41.0469 56.5859 41.2447C56.5733 41.4425 56.6092 41.6404 56.6904 41.8212C56.7513 41.9686 56.8474 42.0989 56.9703 42.2009C57.0932 42.3028 57.2392 42.3733 57.3956 42.4061C58.149 42.5129 58.7634 41.834 59.1304 41.2561C59.2433 41.0241 59.4124 40.8239 59.6223 40.6734C59.885 40.5494 60.1656 40.4673 60.4538 40.4301C60.8211 40.3566 61.153 40.1623 61.3963 39.8783C61.6092 39.5833 61.8 39.2732 61.9674 38.9503C62.4221 38.1721 62.9743 37.4547 63.6108 36.8156C64.0058 36.4235 63.3946 35.8137 62.9994 36.2058C62.5057 36.6999 62.0595 37.239 61.6663 37.816C61.4729 38.0978 61.2914 38.3874 61.1218 38.6846C61.0074 38.9397 60.8576 39.1774 60.6768 39.3909C60.4863 39.5733 60.2011 39.6033 59.9531 39.6522C59.6833 39.7005 59.4238 39.7947 59.186 39.9307C58.6816 40.2319 58.4894 40.7503 58.1111 41.1659C58.011 41.2892 57.8951 41.3989 57.7664 41.4922C57.7164 41.5252 57.6601 41.5472 57.601 41.5569C57.6159 41.5546 57.5388 41.5628 57.5489 41.56C57.4817 41.579 57.5268 41.5442 57.5271 41.56C57.5271 41.5637 57.6267 41.6541 57.5361 41.5445C57.5056 41.5128 57.4803 41.4764 57.4612 41.4367C57.4442 41.3841 57.4397 41.3283 57.4482 41.2737C57.4566 41.2191 57.4777 41.1673 57.5098 41.1223C57.7727 40.6333 57.0523 40.2107 56.7632 40.6869C56.6267 40.9186 56.4752 41.1413 56.3096 41.3533C56.1844 41.5091 56.1114 41.6495 55.9313 41.5632C55.8556 41.5273 55.8672 41.5235 55.8349 41.4788C55.7809 41.4038 55.7989 41.4205 55.7728 41.3158C55.7659 41.2894 55.7607 41.2186 55.7659 41.2807C55.7623 41.2387 55.7638 41.1975 55.763 41.155C55.763 41.14 55.78 41.0166 55.763 41.1142C55.7692 41.0797 55.7771 41.0459 55.7863 41.0121C55.9124 40.5429 55.2437 40.2513 54.996 40.6797C54.9376 40.7807 54.8519 40.8552 54.7465 40.8268C54.6996 40.8159 54.6584 40.788 54.6309 40.7485C54.6638 40.7893 54.5997 40.6874 54.5984 40.6845C54.6206 40.7365 54.5959 40.6587 54.5911 40.6401C54.5873 40.6258 54.5772 40.5341 54.5829 40.6008C54.5801 40.5641 54.5793 40.5274 54.5804 40.4906C54.5804 40.4547 54.5833 40.4188 54.5873 40.3828C54.5806 40.4443 54.5873 40.3866 54.5936 40.3566C54.6069 40.2998 54.626 40.2439 54.6388 40.1871C54.6591 40.0962 54.5945 40.2509 54.6552 40.1566C54.9254 39.7367 54.3234 39.2989 53.9761 39.6339C53.897 39.7102 53.8365 39.7509 53.7779 39.7264C53.7343 39.7085 53.7388 39.6849 53.7471 39.7085C53.7403 39.6889 53.7269 39.6407 53.7381 39.7023C53.7332 39.6759 53.7201 39.6511 53.7156 39.6244C53.7019 39.5361 53.7123 39.6003 53.7138 39.6172C53.7114 39.5899 53.7106 39.5624 53.7114 39.5351C53.7125 39.5119 53.7327 39.3613 53.7158 39.4506C53.7248 39.4028 53.7352 39.3555 53.7489 39.309C53.7702 39.2371 53.7959 39.2032 53.7601 39.2655C54.1023 38.6688 54.4707 38.0663 55.0562 37.6749C55.6187 37.2822 56.2725 37.0396 56.9556 36.9702C57.3646 36.9455 57.7662 37.0508 58.1724 37.0711C58.6137 37.1029 59.0529 36.986 59.4197 36.7393C59.7974 36.4472 60.1471 36.1209 60.4645 35.7644L61.6098 34.5984C61.9994 34.2017 61.3886 33.5922 60.9973 33.9886L60.9971 33.99Z" fill="#4A3E42"/>
<path d="M55.7094 41.1695C55.8317 40.96 55.945 40.7454 56.0696 40.537C56.0986 40.4881 56.1284 40.4396 56.1597 40.392C56.1924 40.3515 56.222 40.3088 56.2485 40.264C56.2395 40.2842 56.1963 40.3257 56.2341 40.2849C56.2507 40.2669 56.2665 40.249 56.2833 40.231C56.3281 40.1828 56.3733 40.1352 56.4187 40.0872C56.572 39.9255 56.727 39.7654 56.8891 39.6125C56.9655 39.5406 57.0435 39.4705 57.1233 39.4023C57.166 39.3663 57.2091 39.3304 57.2526 39.2944C57.2706 39.2801 57.2886 39.266 57.3066 39.2519C57.3978 39.18 57.2346 39.3058 57.3301 39.2339C57.4247 39.1741 57.4949 39.0827 57.5282 38.976C57.5581 38.8639 57.5425 38.7445 57.4846 38.6438C57.426 38.5459 57.3312 38.4748 57.2206 38.4459C57.11 38.417 56.9925 38.4325 56.8932 38.4891C56.5042 38.7873 56.141 39.1175 55.8074 39.4763C55.6347 39.6527 55.4815 39.847 55.3503 40.056C55.2151 40.2781 55.0947 40.509 54.9634 40.7334C54.9347 40.7823 54.916 40.8364 54.9083 40.8925C54.9006 40.9486 54.904 41.0057 54.9184 41.0605C54.9328 41.1153 54.9579 41.1667 54.9922 41.2118C55.0266 41.257 55.0695 41.2949 55.1185 41.3235C55.1675 41.3521 55.2217 41.3708 55.278 41.3785C55.3342 41.3862 55.3915 41.3827 55.4464 41.3684C55.5013 41.354 55.5529 41.329 55.5981 41.2947C55.6434 41.2605 55.6814 41.2177 55.7101 41.1688L55.7094 41.1695Z" fill="#4A3E42"/>
<path d="M57.443 41.2092C57.5127 41.0985 57.5893 40.9923 57.6691 40.8888L57.6015 40.9761C57.8395 40.6748 58.0983 40.3905 58.3761 40.1253C58.4163 40.0852 58.4482 40.0377 58.47 39.9853C58.4918 39.933 58.5031 39.8769 58.5031 39.8202C58.5032 39.7635 58.492 39.7074 58.4703 39.655C58.4486 39.6026 58.4168 39.555 58.3766 39.5149C58.3365 39.4748 58.2888 39.4429 58.2363 39.4212C58.1839 39.3994 58.1276 39.3882 58.0708 39.3882C58.014 39.3881 57.9577 39.3992 57.9052 39.4209C57.8527 39.4425 57.8049 39.4743 57.7647 39.5143C57.3601 39.8901 57.0015 40.3123 56.6963 40.7722C56.6395 40.8712 56.6239 40.9884 56.6529 41.0988C56.682 41.2091 56.7532 41.3036 56.8514 41.3621C56.951 41.4175 57.0681 41.4323 57.1784 41.4035C57.2887 41.3747 57.3835 41.3044 57.443 41.2074V41.2092Z" fill="#4A3E42"/>
<path d="M68.8739 19.7711C67.9205 20.1832 67.1475 20.9235 66.6957 21.8569C66.1513 22.9216 65.9685 24.1061 65.795 25.2753C65.6266 26.4171 65.4486 27.5561 64.8055 28.5413C64.4872 29.0004 64.1455 29.4428 63.7816 29.8667C63.4333 30.2957 63.0918 30.7298 62.757 31.1691C62.0681 32.0676 61.3922 32.9804 60.774 33.9292C60.727 34.0118 60.7082 34.1074 60.7204 34.2017C60.7326 34.2959 60.7751 34.3836 60.8416 34.4517C61.3168 34.969 61.8075 35.472 62.2976 35.9753C62.5713 36.2561 62.8444 36.5373 63.1169 36.8189C63.2594 36.9666 63.3844 37.1275 63.6069 37.1368C63.6976 37.1375 63.7882 37.1285 63.8771 37.1098C64.292 37.0145 64.6925 36.865 65.0683 36.6653C65.5754 36.4239 66.0685 36.1545 66.5455 35.8583C67.0266 35.5579 67.4901 35.2302 67.9336 34.8768C68.4676 34.4891 68.9381 34.0212 69.3284 33.4898C70.1634 32.2615 70.9475 30.9975 71.6852 29.7088C72.5205 28.2494 73.2928 26.7565 74.0021 25.2302C74.0568 25.1307 74.0712 25.0142 74.0424 24.9044C74.0135 24.7947 73.9436 24.7002 73.847 24.6403C73.7478 24.5835 73.6302 24.5679 73.5195 24.5968C73.4089 24.6258 73.3141 24.6969 73.2556 24.795C72.2508 26.9551 71.1177 29.0535 69.8623 31.0789C69.5521 31.5789 69.2344 32.0744 68.9092 32.5653C68.7642 32.7845 68.6261 33.0162 68.4625 33.2223C68.2823 33.4388 68.083 33.6387 67.8668 33.8196C67.1842 34.4119 66.4443 34.9352 65.6581 35.3818C65.2358 35.6283 64.7999 35.8506 64.3523 36.0477C64.1994 36.1136 64.043 36.1713 63.8839 36.2204C63.8209 36.2384 63.7558 36.2511 63.6928 36.2696C63.6605 36.279 63.5899 36.2763 63.7047 36.2707C63.6719 36.2723 63.6402 36.2754 63.6072 36.2743L63.9135 36.4001C63.0944 35.5467 62.2542 34.7124 61.4538 33.8413L61.5214 34.3638C62.0418 33.5655 62.6049 32.7942 63.1787 32.0331C63.8272 31.1725 64.5268 30.3537 65.1806 29.498C65.5339 29.0471 65.826 28.5517 66.0494 28.0246C66.2549 27.4982 66.403 26.9513 66.4909 26.3933C66.6948 25.2343 66.7852 24.048 67.1732 22.9289C67.5031 21.9766 68.1359 21.0008 69.1041 20.6016C69.2127 20.5681 69.3043 20.4945 69.3604 20.396C69.4166 20.2975 69.4329 20.1813 69.4062 20.0711C69.3751 19.9612 69.3019 19.8679 69.2023 19.8115C69.1027 19.7551 68.9849 19.7401 68.8743 19.7698L68.8739 19.7711Z" fill="#4A3E42"/>
<path d="M66.4069 14.8385C65.5697 16.2571 64.8203 17.7254 64.1628 19.2353C63.7973 20.0028 63.5039 20.8025 63.2862 21.6239C63.0322 22.7265 63.3799 23.8298 63.6087 24.9076L64.4013 28.6424C64.5166 29.1851 65.3502 28.9555 65.2351 28.4131L64.5526 25.1994C64.439 24.6638 64.3253 24.1282 64.2114 23.5924C64.1073 23.1015 63.9976 22.6029 64.0707 22.099C64.1842 21.3192 64.533 20.5384 64.8453 19.8181C65.1746 19.0563 65.5334 18.3074 65.9081 17.5669C66.3006 16.7908 66.7094 16.0216 67.154 15.2737C67.4384 14.7952 66.6912 14.3609 66.4073 14.8385H66.4069Z" fill="#4A3E42"/>
<path d="M67.0996 34.9088C67.1231 35.174 67.1989 35.432 67.3228 35.668C67.4569 35.9731 67.6131 36.2681 67.7903 36.5506C67.9964 36.8901 68.2364 37.208 68.5065 37.4995C68.7676 37.7886 69.1045 37.9992 69.4792 38.1074C71.5206 38.7128 73.5804 39.2619 75.667 39.6899C77.747 40.1383 79.8613 40.4108 81.9873 40.5045C82.4036 40.5185 82.8671 40.579 83.2559 40.3956C83.4087 40.3178 83.5424 40.2075 83.6476 40.0724C83.7529 39.9372 83.827 39.7807 83.8647 39.6138C84.073 38.8102 83.7797 37.9727 83.6341 37.1869C83.4742 36.3841 83.2574 35.5936 82.9857 34.8213C82.8072 34.2477 82.5973 33.6844 82.357 33.1338C82.2985 33.0357 82.2037 32.9646 82.093 32.9356C81.9824 32.9067 81.8648 32.9223 81.7656 32.9791C81.6685 33.0386 81.5982 33.1331 81.5693 33.2431C81.5404 33.353 81.5551 33.4698 81.6105 33.5692C81.6179 33.585 81.6539 33.6669 81.6202 33.5893C81.5842 33.5072 81.6348 33.6265 81.6427 33.6459C81.6824 33.7449 81.7204 33.8436 81.7582 33.9442C81.86 34.2138 81.9579 34.4851 82.0518 34.7578C82.2831 35.4248 82.5011 36.0992 82.6695 36.7849C82.7466 37.0988 82.8003 37.417 82.8729 37.7317C82.9652 38.0926 83.0276 38.4606 83.0593 38.8317C83.0651 38.9243 83.0678 39.0172 83.0653 39.1099C83.0642 39.1458 83.0559 39.2716 83.0593 39.2474C83.0517 39.3624 83.0145 39.4735 82.9512 39.5699C82.9233 39.603 82.8854 39.6261 82.8432 39.6357C82.6637 39.6624 82.4816 39.6674 82.3009 39.6506C78.375 39.5661 74.4903 38.6458 70.7316 37.573C70.4784 37.5011 70.2255 37.4279 69.9728 37.3533C69.7662 37.3152 69.5675 37.2422 69.3854 37.1376C69.324 37.0929 69.4214 37.1678 69.3605 37.1182C69.3218 37.087 69.285 37.0532 69.2487 37.0192C69.1845 36.9592 69.1235 36.8961 69.0644 36.8311C68.9436 36.6971 68.8317 36.5554 68.7295 36.4068C68.518 36.1024 68.3306 35.7818 68.1693 35.4482C68.135 35.3774 68.1015 35.3059 68.0707 35.2335C68.097 35.2955 68.0637 35.2155 68.0579 35.1991C68.0464 35.1691 68.0349 35.1393 68.0241 35.1093C68.0041 35.0529 67.9881 34.9959 67.9715 34.9388C67.9315 34.8067 67.9664 34.9981 67.9657 34.9098C67.9605 34.3551 67.0958 34.3539 67.1011 34.9098L67.0996 34.9088Z" fill="#4A3E42"/>
<path d="M69.7456 16.0877C68.8585 15.5662 67.9411 15.0976 66.9985 14.6843C66.8988 14.6296 66.7819 14.6151 66.6718 14.6439C66.5617 14.6727 66.467 14.7425 66.4071 14.839C66.3504 14.938 66.3349 15.0553 66.3639 15.1656C66.3929 15.2759 66.4641 15.3705 66.5622 15.4291C67.5049 15.8423 68.4222 16.3109 69.3093 16.8325C69.4083 16.8902 69.5262 16.9063 69.6372 16.8773C69.7481 16.8482 69.8429 16.7764 69.9008 16.6777C69.9586 16.5789 69.9748 16.4613 69.9457 16.3506C69.9166 16.24 69.8446 16.1454 69.7456 16.0877Z" fill="#4A3E42"/>
<path d="M73.3194 49.3845C73.4579 49.415 73.5964 49.4465 73.7337 49.4799C73.7894 49.4978 73.849 49.5004 73.9061 49.4874C73.9632 49.485 74.0187 49.4674 74.0668 49.4364C74.1606 49.3757 74.2305 49.2847 74.2649 49.1786L74.2804 49.0639C74.2804 48.9874 74.26 48.9123 74.2213 48.8463L74.1538 48.759C74.1008 48.7062 74.0351 48.668 73.963 48.6481C73.825 48.6148 73.6869 48.5831 73.5487 48.5529C73.4929 48.5349 73.4334 48.5322 73.3763 48.5451C73.3191 48.5476 73.2636 48.5652 73.2156 48.5964C73.1216 48.6567 73.0516 48.7478 73.0174 48.854L73.002 48.9687C73.0018 49.0452 73.0222 49.1203 73.061 49.1863L73.1286 49.2736C73.1814 49.3265 73.2472 49.3647 73.3194 49.3845Z" fill="#4A3E42"/>
<path d="M60.2373 18.1605C60.599 18.1016 60.9844 18.0644 61.325 18.2292C61.6465 18.4109 61.9114 18.6778 62.0902 19.0004C62.3194 19.3598 62.5179 19.7388 62.7344 20.1057C62.9772 20.5173 63.2242 20.9267 63.4586 21.3432C63.7309 21.8273 64.4782 21.393 64.2052 20.9078C63.9478 20.4505 63.6755 20.002 63.4097 19.5495C63.1828 19.1249 62.934 18.7121 62.6645 18.3129C62.3888 17.9048 62.001 17.5845 61.5477 17.3904C61.048 17.1927 60.5254 17.2447 60.0082 17.3289C59.8981 17.36 59.8047 17.4331 59.7482 17.5324C59.6917 17.6317 59.6766 17.7491 59.7063 17.8594C59.7391 17.9682 59.8126 18.0602 59.9116 18.1163C60.0107 18.1724 60.1276 18.1882 60.2381 18.1605H60.2373Z" fill="#4A3E42"/>
<path d="M55.5017 16.4291C55.8054 16.3839 56.0971 16.2791 56.36 16.1207C56.5476 16.0102 56.7081 15.8592 56.8297 15.6789C56.8865 15.5799 56.9021 15.4626 56.8731 15.3523C56.8441 15.2419 56.7728 15.1474 56.6746 15.089C56.575 15.0336 56.4578 15.0188 56.3476 15.0476C56.2373 15.0764 56.1425 15.1467 56.083 15.2437C56.0733 15.2589 56.0626 15.2735 56.0515 15.2879L56.1192 15.2005C56.069 15.2625 56.0115 15.3181 55.9479 15.3662L56.0354 15.2988C55.9289 15.3789 55.8127 15.4453 55.6896 15.4965L55.7928 15.453C55.6255 15.5218 55.4506 15.5705 55.2718 15.598C55.1632 15.6278 55.0705 15.6987 55.0135 15.7957C54.9557 15.8964 54.94 16.0158 54.9699 16.1279C55.0002 16.2361 55.0712 16.3284 55.1681 16.3856L55.2713 16.4291C55.3465 16.4498 55.4259 16.4498 55.5011 16.4291H55.5017Z" fill="#4A3E42"/>
<path d="M55.4738 11.7245C55.4557 12.0239 55.6586 12.6562 56.1763 12.5935C56.8428 12.4338 56.6987 11.646 56.389 11.3319C56.1358 11.0746 55.5662 11.0758 55.4738 11.7245Z" fill="#4A3E42"/>
<path d="M65.7324 23.5809C65.7373 23.6528 65.7421 23.7246 65.7468 23.7965L66.4854 23.491C65.9885 22.854 66.0366 21.888 66.1029 21.1313C66.1857 20.2939 66.4446 19.4832 66.8626 18.7523C66.9484 18.5996 67.044 18.4527 67.1488 18.3124C67.1893 18.2576 67.1052 18.3618 67.1819 18.2718C67.2153 18.2328 67.2479 18.1934 67.2821 18.155C67.359 18.0687 67.4397 17.9859 67.5244 17.9066C67.8928 17.5685 68.3218 17.3028 68.789 17.1234C69.6259 16.825 70.5132 16.6928 71.401 16.7342C71.9576 16.7466 71.9574 15.8841 71.401 15.8717C69.8361 15.837 68.2006 16.155 66.9995 17.2193C65.9568 18.1426 65.4155 19.5941 65.2583 20.9421C65.1322 22.028 65.1779 23.2077 65.8749 24.1016C66.1038 24.3954 66.6372 24.1498 66.6134 23.7961C66.6086 23.7243 66.6038 23.6524 66.599 23.5805C66.5964 23.467 66.55 23.3588 66.4695 23.2785C66.3889 23.1982 66.2805 23.1519 66.1667 23.1493C66.0523 23.1502 65.9429 23.196 65.8621 23.2767C65.7812 23.3573 65.7353 23.4664 65.7344 23.5805L65.7324 23.5809Z" fill="#4A3E42"/>
<path d="M68.7006 20.8116C68.6498 20.8518 68.7759 20.7618 68.7907 20.7519C68.846 20.7169 68.9029 20.684 68.9605 20.6529C69.0737 20.5915 69.1901 20.5363 69.3093 20.4876C69.6145 20.3654 69.9292 20.2684 70.2503 20.1974C70.5358 20.1287 70.8278 20.0906 71.1215 20.0839C71.3709 20.0805 71.6185 20.1266 71.8499 20.2193C72.3691 20.394 72.6245 20.6925 72.8704 21.1997C73.2475 21.9781 73.4561 22.8263 73.8262 23.6086C74.2375 24.4778 74.8673 25.221 75.5284 25.9112C75.9135 26.3133 76.5244 25.7029 76.1398 25.3013C75.5055 24.6812 74.9762 23.9626 74.5726 23.1734C74.1851 22.353 73.9781 21.4578 73.5598 20.6501C73.2752 20.0706 72.7725 19.627 72.1612 19.4159C71.5194 19.2009 70.8295 19.1722 70.172 19.3333C69.4411 19.4799 68.6781 19.7347 68.0885 20.2017C68.008 20.2829 67.9629 20.3925 67.9629 20.5067C67.9629 20.6208 68.008 20.7304 68.0885 20.8116C68.1708 20.89 68.2803 20.9338 68.3942 20.9338C68.508 20.9338 68.6175 20.89 68.6999 20.8116H68.7006Z" fill="#4A3E42"/>
<path d="M72.9614 26.6189C73.9614 27.3974 75.3337 27.5713 76.5655 27.57C77.1217 27.57 77.1228 26.7075 76.5655 26.7075C75.9635 26.717 75.3626 26.6529 74.7762 26.5169C74.6486 26.4856 74.5222 26.4497 74.397 26.4091C74.3369 26.3898 74.2778 26.3693 74.2195 26.3476C74.1959 26.3388 74.0671 26.2872 74.1134 26.3072C74.003 26.2594 73.8954 26.2054 73.7912 26.1455C73.745 26.1191 73.6997 26.0914 73.6552 26.0623C73.6314 26.0468 73.5074 25.957 73.5728 26.0084C73.49 25.9308 73.3807 25.8877 73.2671 25.8877C73.1536 25.8877 73.0443 25.9308 72.9614 26.0084C72.881 26.0896 72.8359 26.1991 72.8359 26.3133C72.8359 26.4275 72.881 26.537 72.9614 26.6182V26.6189Z" fill="#4A3E42"/>
<path d="M72.0554 28.717C73.7922 29.2541 75.6111 29.4783 77.4267 29.379C77.5406 29.3764 77.649 29.3301 77.7296 29.2498C77.8101 29.1695 77.8565 29.0613 77.8591 28.9478C77.8581 28.8337 77.8122 28.7246 77.7314 28.6439C77.6505 28.5632 77.5411 28.5175 77.4267 28.5165C75.6889 28.6137 73.9476 28.3998 72.2852 27.8851C71.7506 27.7271 71.5222 28.5593 72.0554 28.7167V28.717Z" fill="#4A3E42"/>
<path d="M71.402 16.3052C68.1799 16.2207 66.9322 17.7186 66.4725 18.568C65.9774 19.4352 65.6962 20.4075 65.6523 21.4046C65.6055 22.357 65.6677 23.404 66.4323 24.0559C66.5274 23.5391 66.6702 23.0322 66.8587 22.5417C67.1597 21.7278 67.6936 21.02 68.3942 20.5061C69.0458 19.9761 70.8221 19.4882 71.6346 19.7046C72.5286 19.9426 72.882 20.2064 73.2738 21.0425C73.6656 21.8786 73.8816 22.7913 74.3096 23.6097C74.7205 24.3429 75.2333 25.0144 75.8329 25.6043C74.359 22.5241 72.766 19.2136 71.402 16.3052Z" fill="#4A3E42"/>
<path d="M76.5639 27.1365C75.153 27.1423 73.9338 26.8417 73.2662 26.3145L72.1699 28.3015C73.8678 28.8352 75.6494 29.054 77.4264 28.9469C77.1483 28.3617 76.8608 27.7583 76.5639 27.1365Z" fill="#4A3E42"/>
<path d="M96.0674 24.2374C94.6281 21.1722 93.1526 18.1243 91.6938 15.0683C91.3189 14.2829 90.9232 13.5032 90.571 12.7074C90.5317 12.6188 90.5074 12.5893 90.5728 12.5214C90.6166 12.4939 90.6626 12.4701 90.7104 12.4504C90.797 12.3962 90.8745 12.3286 90.9399 12.2503C91.2282 11.9053 91.1963 11.5035 91.0165 11.1198C90.6022 10.2343 90.1713 9.35581 89.7503 8.47318C89.6555 8.2748 89.561 8.07636 89.4666 7.87786C89.39 7.67027 89.2696 7.48152 89.1135 7.32442C88.9658 7.20275 88.7857 7.12671 88.5954 7.10561C88.405 7.08452 88.2126 7.11928 88.0417 7.20565C86.6267 7.80509 85.2169 8.41693 83.8055 9.02446C81.6372 9.95789 79.4688 10.8908 77.3004 11.8233C75.4402 12.6229 73.5787 13.4196 71.7161 14.2132C71.2647 14.4047 70.7443 14.5453 70.5947 15.0777C70.482 15.4793 70.7086 15.8392 70.8725 16.1896C71.031 16.5285 71.19 16.8671 71.3495 17.2056C72.035 18.6606 72.7255 20.1131 73.4211 21.5632C74.7815 24.4081 76.152 27.2481 77.4969 30.1003C77.7851 30.7112 78.0711 31.3222 78.3549 31.9331C78.4624 32.2154 78.5937 32.4881 78.7473 32.7484C78.8662 32.9169 79.0369 33.0423 79.2336 33.1055C79.4303 33.1688 79.6422 33.1665 79.8375 33.0989C80.2662 32.9462 80.6841 32.7428 81.1026 32.5647C81.5756 32.3635 82.0483 32.1616 82.5206 31.9592C84.8963 30.9409 87.2695 29.9175 89.6404 28.889C91.7095 27.995 93.7771 27.0977 95.8523 26.2183C96.0228 26.1543 96.1719 26.0438 96.2824 25.8994C96.393 25.7549 96.4605 25.5823 96.4774 25.4014C96.5107 24.9955 96.2342 24.5903 96.0676 24.2352C96.0091 24.1371 95.9143 24.066 95.8036 24.037C95.693 24.0081 95.5754 24.0237 95.4762 24.0805C95.3791 24.1399 95.3087 24.2345 95.2798 24.3445C95.2509 24.4544 95.2657 24.5712 95.3211 24.6706C95.4068 24.8533 95.498 25.0345 95.5781 25.2197C95.6161 25.3076 95.6441 25.341 95.5715 25.4037C95.4911 25.4531 95.4043 25.4911 95.3135 25.5169L95.0091 25.6463C94.5777 25.8299 94.1466 26.0143 93.7159 26.1994C92.6663 26.6494 91.6174 27.1012 90.5692 27.5546C88.226 28.5663 85.8827 29.5778 83.5395 30.5894C82.5623 31.0099 81.5843 31.4286 80.6054 31.8456C80.4082 31.9294 80.2108 32.0133 80.0131 32.0972L79.871 32.1572L79.82 32.1786C79.7333 32.23 79.6394 32.2683 79.5415 32.2923C79.3826 32.2946 79.2693 31.861 79.2093 31.731C79.0829 31.4575 78.9559 31.1842 78.8283 30.911C77.5854 28.2473 76.3091 25.5989 75.0391 22.9477C74.3578 21.5258 73.6783 20.1031 73.0005 18.6797C72.6728 17.9901 72.3462 17.2999 72.0209 16.6092C71.8673 16.2828 71.7141 15.9563 71.5612 15.6295C71.5277 15.5576 71.4048 15.3779 71.4282 15.3061C71.4517 15.2342 71.5363 15.2185 71.605 15.1893C73.2487 14.4818 74.8975 13.7862 76.542 13.0802C78.6616 12.1698 80.7807 11.2582 82.8991 10.3454C84.5304 9.64314 86.1619 8.94157 87.7936 8.24066C88.0111 8.14758 88.2272 8.05109 88.4463 7.96214C88.4879 7.94525 88.5016 7.9598 88.4655 7.95765C88.4881 7.95891 88.5196 7.94345 88.5376 7.96376C88.6381 8.10761 88.7186 8.26442 88.7768 8.42987C88.9729 8.84208 89.1695 9.25405 89.3664 9.66578C89.5649 10.0806 89.7636 10.4955 89.9623 10.9105C90.0585 11.1114 90.1578 11.3108 90.2505 11.513C90.2947 11.6088 90.3359 11.653 90.2543 11.7205C90.1686 11.7924 90.0439 11.8271 89.9562 11.9117C89.8042 12.0602 89.7062 12.255 89.6779 12.4653C89.6211 12.874 89.876 13.2502 90.0445 13.6057C91.4856 16.6424 92.9474 19.6671 94.3901 22.7021C94.7015 23.3576 95.0117 24.0138 95.3207 24.6708C95.3792 24.7688 95.474 24.8399 95.5847 24.8689C95.6953 24.8978 95.8129 24.8822 95.9121 24.8255C96.0087 24.7661 96.0787 24.6719 96.1077 24.5624C96.1366 24.4529 96.1221 24.3365 96.0674 24.2374Z" fill="#4A3E42"/>
<path d="M74.6351 19.4041C76.3824 18.6778 78.1184 17.9197 79.8558 17.1682C81.9911 16.2447 84.1259 15.3208 86.2603 14.3963C86.7222 14.1971 87.1845 13.9983 87.6473 13.7998C87.8343 13.7196 88.0214 13.6397 88.2085 13.5601L88.4502 13.4573L88.561 13.4104C88.5916 13.3974 88.7276 13.3401 88.594 13.3965C88.7024 13.3629 88.794 13.2893 88.8501 13.1908C88.9061 13.0922 88.9225 12.9761 88.8959 12.8659C88.8648 12.756 88.7916 12.6627 88.692 12.6064C88.5925 12.55 88.4746 12.535 88.3641 12.5648C86.6542 13.2835 84.9545 14.0271 83.2523 14.7642C81.1082 15.6928 78.9635 16.6201 76.8183 17.5459C76.3455 17.7496 75.8724 17.9522 75.3988 18.1537C75.205 18.2361 75.0111 18.3183 74.817 18.4004L74.7584 18.425C74.7073 18.4465 74.8372 18.3919 74.7622 18.4234L74.6405 18.4746L74.4063 18.5723C74.2977 18.6058 74.2061 18.6794 74.15 18.7779C74.0939 18.8765 74.0776 18.9926 74.1044 19.1028C74.1354 19.2127 74.2087 19.306 74.3082 19.3624C74.4077 19.4188 74.5256 19.4338 74.6361 19.4041H74.6351Z" fill="#4A3E42"/>
<path d="M76.7782 17.2287C77.0291 17.7787 77.2757 18.3269 77.5708 18.8556C77.6294 18.9535 77.7242 19.0246 77.8348 19.0535C77.9454 19.0824 78.0629 19.0669 78.1622 19.0103C78.2595 18.951 78.33 18.8565 78.3589 18.7464C78.3879 18.6364 78.3729 18.5195 78.3173 18.4202C78.0224 17.8916 77.7758 17.3433 77.5247 16.7933C77.4674 16.6965 77.3748 16.6256 77.2662 16.5956C77.1833 16.5728 77.0954 16.5751 77.0138 16.6024C76.9323 16.6296 76.8607 16.6805 76.8083 16.7485C76.7559 16.8166 76.725 16.8986 76.7196 16.9843C76.7142 17.0699 76.7345 17.1552 76.778 17.2292L76.7782 17.2287Z" fill="#4A3E42"/>
<path d="M84.9225 13.7975C85.1605 14.3186 85.3945 14.8397 85.6744 15.3412C85.7028 15.3906 85.7408 15.4338 85.786 15.4684C85.8313 15.5031 85.8829 15.5284 85.9381 15.5431C85.9932 15.5577 86.0506 15.5613 86.1072 15.5537C86.1637 15.546 86.2181 15.5273 86.2674 15.4986C86.3166 15.4699 86.3597 15.4318 86.3941 15.3864C86.4285 15.341 86.4535 15.2893 86.4678 15.2342C86.4821 15.1791 86.4853 15.1218 86.4772 15.0655C86.4692 15.0091 86.45 14.955 86.4209 14.906C86.1412 14.4043 85.9072 13.8841 85.669 13.3621C85.6119 13.2653 85.5193 13.1944 85.4107 13.1645C85.3278 13.1416 85.2399 13.144 85.1584 13.1712C85.0768 13.1985 85.0052 13.2494 84.9528 13.3174C84.9004 13.3854 84.8695 13.4675 84.8641 13.5531C84.8587 13.6387 84.8791 13.724 84.9225 13.7981V13.7975Z" fill="#4A3E42"/>
<path d="M59.7468 17.3314C60.2332 14.7492 60.351 11.7946 59.5847 9.32387C60.027 9.264 60.465 9.17638 60.8963 9.06152C61.3448 11.7094 61.1539 16.5979 60.1991 18.1739L59.5488 18.2818C59.6197 17.972 59.6857 17.6552 59.7468 17.3314Z" fill="#4A3E42"/>
<path d="M60.4803 9.17704C60.6604 10.3911 60.7308 11.6188 60.6906 12.8454C60.6883 14.1019 60.5594 15.3549 60.306 16.5856C60.247 16.8547 60.1735 17.1205 60.0858 17.3817C60.0653 17.4413 60.0435 17.5006 60.0213 17.5596C60.0118 17.5849 60.0017 17.6099 59.9916 17.6349C60.0145 17.5783 59.9947 17.6289 59.9815 17.6573C59.935 17.76 59.8831 17.8601 59.8261 17.9574L60.0844 17.7597L59.4341 17.8676L59.9659 18.398C60.6455 15.4257 60.9071 12.1655 60.0019 9.21118C59.8398 8.68182 59.0048 8.90769 59.1682 9.44047C60.0286 12.2487 59.7782 15.3429 59.1322 18.1687C59.1139 18.242 59.1149 18.3187 59.1351 18.3915C59.1553 18.4643 59.1941 18.5306 59.2476 18.584C59.3011 18.6374 59.3676 18.6761 59.4406 18.6963C59.5135 18.7164 59.5905 18.7174 59.664 18.6992C59.8682 18.6654 60.0803 18.6452 60.2813 18.5969C60.5861 18.5232 60.7025 18.1624 60.8102 17.9013C61.0302 17.3312 61.185 16.738 61.2717 16.1332C61.5191 14.5674 61.6101 12.981 61.5432 11.3973C61.5198 10.5766 61.4428 9.75839 61.3126 8.94776C61.2813 8.83797 61.208 8.74486 61.1085 8.68851C61.0091 8.63216 60.8913 8.61711 60.7808 8.6466C60.672 8.67954 60.58 8.75303 60.5241 8.8518C60.4681 8.95057 60.4525 9.06705 60.4803 9.17704Z" fill="#4A3E42"/>
<path d="M63.1347 0.351211C62.6941 0.374215 62.2551 0.421606 61.8197 0.493166C61.3762 0.576302 60.9327 0.659439 60.4892 0.742575C59.5826 0.886417 58.6951 1.13162 57.8435 1.47355C56.2916 2.14883 55.1 3.50405 54.0132 4.75684C53.4656 5.36222 52.9906 6.02924 52.5979 6.74439C52.4097 7.10212 52.2552 7.47653 52.1365 7.86278C52.023 8.23797 51.8903 8.67408 52 9.06311C52.2772 10.0465 53.415 9.91717 54.2168 9.92364C55.1618 9.93137 56.1066 9.91591 57.0514 9.91052C58.3794 9.90298 59.7276 9.82229 61.0145 9.47567C62.0889 9.15511 63.1267 8.72293 64.1107 8.18622C64.7547 7.85721 65.3945 7.52137 66.0396 7.19379C66.3678 7.02776 66.7539 6.89461 67.0318 6.64897C67.2834 6.40117 67.4708 6.09603 67.5778 5.75987C67.7077 5.40246 67.7769 5.02593 67.7826 4.64579C67.7966 4.51026 67.7899 4.37339 67.7626 4.23988C67.7713 4.26485 67.739 4.32002 67.7677 4.22352C67.7816 4.17609 67.7951 4.12937 67.8113 4.08283C67.8408 4.00259 67.876 3.92454 67.9165 3.84923C67.979 3.72345 68.0462 3.60108 68.1146 3.47925C68.267 3.20971 68.4288 2.94629 68.5902 2.68233C68.9176 2.19517 69.2032 1.68136 69.4441 1.14634C69.5206 0.964634 69.53 0.761727 69.4707 0.573739C69.4113 0.385751 69.2869 0.224882 69.1198 0.119771C68.8667 -0.0378171 68.5507 0.000456787 68.2663 0.01016C66.8859 0.0568793 65.5068 0.171881 64.1296 0.275023L63.1338 0.350133C63.02 0.352826 62.9116 0.399126 62.8311 0.479426C62.7506 0.559725 62.7042 0.667859 62.7015 0.781388C62.7024 0.895488 62.7482 1.00466 62.8291 1.08534C62.91 1.16603 63.0194 1.21175 63.1338 1.21264C64.463 1.11256 65.7921 1.00816 67.1228 0.929093C67.4152 0.911124 67.7077 0.895671 68.0002 0.882913C68.1188 0.877881 68.2375 0.87321 68.3562 0.869795C68.4252 0.867639 68.6151 0.899085 68.6734 0.863506C68.6824 0.858295 68.6981 0.858475 68.6765 0.864944C68.5673 0.897288 68.7529 0.694059 68.639 0.848233C68.6359 0.852186 68.614 0.910405 68.632 0.866202C68.652 0.816607 68.6187 0.894772 68.614 0.905374C68.5852 0.964133 68.5572 1.02325 68.5271 1.08147C68.4084 1.31147 68.2766 1.53465 68.1433 1.75656C67.846 2.25125 67.5308 2.73641 67.2579 3.24529C67.1397 3.45538 67.0403 3.67545 66.9608 3.90296C66.9087 4.11393 66.8944 4.33246 66.9187 4.5484C66.9229 4.86257 66.8715 5.17501 66.7667 5.47129C66.7233 5.59766 66.6659 5.7188 66.5955 5.83247C66.5775 5.86211 66.5281 5.93201 66.5235 5.93794C66.5025 5.96267 66.4801 5.98619 66.4565 6.00838C66.3576 6.10146 66.4802 5.99922 66.4204 6.03803C66.0925 6.22549 65.7551 6.396 65.4097 6.54889C65.0984 6.70737 64.7877 6.86724 64.4776 7.02848C63.5229 7.52263 62.5561 8.04355 61.5823 8.39412C60.5819 8.74257 59.5369 8.94742 58.4787 9.00255C57.7327 9.05071 56.9878 9.03561 56.2413 9.05035C55.332 9.0682 54.4225 9.06898 53.5128 9.05268C53.2811 9.04855 52.889 9.10659 52.8265 8.80543C52.8188 8.66976 52.839 8.53397 52.8857 8.40634C52.9298 8.21987 52.984 8.0359 53.0479 7.85523C53.2995 7.19127 53.6523 6.57002 54.0939 6.01341C54.5586 5.42356 55.0542 4.85867 55.5788 4.3211C56.0917 3.74447 56.6648 3.22414 57.2885 2.76894C58.6811 1.81317 60.4269 1.6288 62.0485 1.32495C62.4081 1.2679 62.7706 1.23077 63.1343 1.21372C63.2482 1.21103 63.3566 1.16473 63.4371 1.08443C63.5176 1.00413 63.564 0.895995 63.5667 0.782466C63.5658 0.668428 63.52 0.559308 63.4392 0.478635C63.3584 0.397961 63.249 0.352198 63.1347 0.351211Z" fill="#4A3E42"/>
<path d="M56.5656 6.1341C56.9138 5.74062 57.2977 5.38018 57.7126 5.0574C57.7655 5.0144 57.8189 4.97181 57.8727 4.92964C57.8822 4.9221 57.9696 4.85381 57.9217 4.89101C57.8738 4.92821 57.9741 4.8513 57.9833 4.84429C58.0837 4.76846 58.1852 4.69425 58.2879 4.62165C58.4583 4.49864 58.6358 4.38572 58.8195 4.28348C58.9177 4.22503 58.989 4.13044 59.0181 4.02007C59.0471 3.9097 59.0315 3.79238 58.9746 3.69338C58.9151 3.5964 58.8203 3.52615 58.71 3.49731C58.5998 3.46847 58.4826 3.48329 58.383 3.53867C57.9386 3.7959 57.5184 4.09289 57.1278 4.42597C56.7029 4.7545 56.31 5.12221 55.9542 5.52424C55.8742 5.60533 55.8296 5.71468 55.8301 5.82844C55.8305 5.94221 55.8761 6.05118 55.9567 6.13163C56.0374 6.21208 56.1466 6.25747 56.2607 6.25794C56.3747 6.2584 56.4843 6.21389 56.5656 6.1341Z" fill="#4A3E42"/>
<path d="M60.2231 3.72296C60.4427 3.64775 60.6692 3.59424 60.8993 3.56322L60.7844 3.57867C60.8576 3.56909 60.9307 3.56178 61.004 3.55675C61.1182 3.55421 61.2274 3.50938 61.3102 3.43097C61.3913 3.35009 61.4369 3.24041 61.4369 3.12604C61.4369 3.01166 61.3913 2.90198 61.3102 2.8211C61.2701 2.78094 61.2224 2.74913 61.1698 2.72754C61.1172 2.70594 61.0609 2.69499 61.004 2.69532C60.6599 2.71713 60.3201 2.78358 59.9932 2.89298C59.8859 2.92527 59.794 2.99556 59.7349 3.09064C59.7063 3.13954 59.6875 3.1936 59.6798 3.24972C59.6721 3.30585 59.6755 3.36294 59.6899 3.41774C59.7043 3.47254 59.7294 3.52397 59.7637 3.5691C59.7981 3.61423 59.841 3.65216 59.89 3.68074C59.9398 3.70986 59.9949 3.72872 60.0521 3.73619C60.1094 3.74366 60.1675 3.73959 60.2231 3.72422V3.72296Z" fill="#4A3E42"/>
</g>
<defs>
<clipPath id="clip0_1509_24756">
<rect width="66" height="80" fill="white" transform="translate(32)"/>
</clipPath>
</defs>
</svg>
