<svg width="100" height="80" viewBox="0 0 100 80" fill="none" xmlns="http://www.w3.org/2000/svg">
<mask id="mask0_1621_25869" style="mask-type:alpha" maskUnits="userSpaceOnUse" x="0" y="0" width="100" height="80">
<rect width="100" height="80" fill="#D9D9D9"/>
</mask>
<g mask="url(#mask0_1621_25869)">
<path d="M24.1541 40.8192C24.655 40.6603 25.3009 40.4192 25.3614 40.396C26.285 40.0614 26.2493 39.4642 26.3651 38.7969C26.4212 38.4826 26.4649 38.1892 26.5003 37.8853C25.525 37.371 24.6443 36.693 23.8961 35.8806C22.9054 34.8258 22.1295 33.5863 21.612 32.2321C21.0157 32.5574 20.5417 32.2723 20.1709 32.0134C19.7576 31.7041 19.4156 31.3088 19.168 30.8546C18.6476 29.9576 18.3824 28.9342 18.4013 27.896C18.3962 27.6313 18.4465 27.3684 18.5489 27.1244C18.6394 26.9466 18.7684 26.7914 18.9264 26.6703C19.0844 26.5492 19.2674 26.4653 19.4619 26.4246C19.651 26.3842 19.8463 26.3832 20.0358 26.4217C20.2252 26.4601 20.4049 26.5371 20.5636 26.6479C20.9357 26.354 21.2225 25.9651 21.3942 25.5219C22.3881 24.5443 20.8973 21.1691 22.8567 19.5413C23.5763 18.9651 24.4324 18.5865 25.3412 18.4426C26.777 18.1596 29.6648 17.569 30.9155 17.581C32.4459 17.5954 33.6147 17.5999 35.4657 18.2597C37.6388 18.9182 38.7201 22.357 38.8559 24.0444C38.8559 24.0444 39.1845 24.8648 39.45 25.6565L39.5511 25.8727L39.6687 25.7523C39.8128 25.6091 39.986 25.4989 40.1764 25.4292C40.3669 25.3595 40.57 25.3319 40.772 25.3483C40.9701 25.3633 41.1624 25.4228 41.3346 25.5224C41.5068 25.622 41.6547 25.7591 41.7673 25.9236C41.9002 26.1523 41.9838 26.4064 42.0128 26.6696C42.1655 27.6966 42.0342 28.746 41.6335 29.703C41.4466 30.1857 41.1583 30.6221 40.7881 30.9824C40.6567 31.1284 40.4883 31.2357 40.3009 31.2928C40.1135 31.3499 39.9141 31.3547 39.7242 31.3067L39.5073 31.2556C39.4393 31.5967 39.3574 31.8867 39.3177 32.0409C39.0421 32.9749 37.3159 36.4428 34.9851 37.5879C35.0168 38.0007 35.072 38.4123 35.1414 38.8223C35.2536 39.4609 35.2179 40.0315 36.1024 40.3516C36.1423 40.3677 36.8303 40.686 37.3331 40.9386C37.3331 40.9386 35.0851 45.0126 30.4708 45.0126C25.8566 45.0126 24.1541 40.8192 24.1541 40.8192Z" fill="white"/>
<path d="M18.4489 59.9579L18.5659 60.1048L18.613 60.1578C20.4026 59.9077 23.6174 59.3133 24.1897 59.1835C24.5922 59.0921 25.1227 58.9727 25.728 58.8357L25.724 58.8306C24.2673 56.8365 22.6278 54.984 20.8268 53.2976C20.7109 53.1699 20.5649 53.0733 20.4024 53.0167C20.3205 52.9911 20.2322 52.9958 20.1534 53.0298C20.0746 53.0638 20.0105 53.1249 19.9725 53.2021L19.7093 53.5852L19.6407 53.525C19.3857 53.2983 19.0892 53.1236 18.7678 53.0109C18.6116 52.9537 18.4442 52.9349 18.2793 52.9558C18.1144 52.9767 17.9569 53.0369 17.8198 53.1313C17.5093 53.403 17.4788 53.6228 17.6541 53.9972C17.7455 54.1713 17.865 54.329 18.0077 54.4638L17.9152 54.4317C17.7417 54.39 17.5603 54.395 17.3893 54.4463C17.2184 54.4976 17.0639 54.5933 16.9415 54.7237C16.8497 54.8313 16.7901 54.9628 16.7696 55.1031C16.7492 55.2433 16.7687 55.3865 16.8259 55.5161C16.9862 55.8349 17.2035 56.1214 17.467 56.3612C17.6483 56.5437 17.8284 56.7277 18.0073 56.9133L17.6447 56.9117C17.5235 56.9084 17.4031 56.9329 17.2928 56.9834C17.1825 57.034 17.085 57.1092 17.008 57.2033C16.9321 57.2958 16.882 57.407 16.8627 57.5253C16.8435 57.6437 16.8557 57.7651 16.8982 57.8772C16.9859 58.1 17.1127 58.3052 17.2725 58.483L18.4489 59.9579Z" fill="white"/>
<path d="M37.5099 63.6913C37.6416 63.6858 37.7728 63.673 37.903 63.6529C38.6418 63.5391 39.7535 63.2837 40.3878 63.43C40.5992 63.4787 41.55 63.8384 41.9036 63.8017C42.2346 63.7673 42.7509 63.2975 42.8795 63.1761C43.0518 62.3583 43.3387 59.8358 43.6224 57.1574L43.323 57.0525C43.1263 56.979 42.359 56.6794 42.1623 56.6059C41.675 56.3954 41.1589 56.2601 40.6314 56.2046C39.537 56.1458 38.0276 56.8668 36.9487 57.2399C35.7358 57.6592 34.9757 57.9259 33.7394 58.2709L33.5898 58.312C34.0291 59.7154 34.7011 61.637 35.1893 63.1297L35.248 63.1572C35.9465 63.5204 36.7236 63.7039 37.5099 63.6913Z" fill="white"/>
<path d="M35.138 64.874C32.9285 65.833 30.6613 66.6515 28.3496 67.3244L28.7112 67.5486C28.9108 67.6726 34.982 68.2324 36.3806 68.2655C39.8495 68.348 43.4531 68.7271 46.8926 68.131C48.3365 67.8787 49.9116 67.4186 50.7182 65.7119C51.3088 64.4628 51.1974 62.6725 51.1319 60.8954C50.9942 57.1924 50.1985 52.8236 48.6258 48.3147C48.2982 47.4317 47.4131 45.4876 46.219 44.6907C46.0575 44.5829 45.8933 44.4769 45.7264 44.3728L45.6865 44.4774C45.1404 46.0886 44.7246 47.7415 44.4432 49.4199C44.2312 50.9129 43.267 61.3409 42.8813 63.1766C42.7541 63.297 42.236 63.7684 41.9044 63.8029C41.5508 63.8397 40.6 63.48 40.3886 63.4313C39.7542 63.285 38.6424 63.5404 37.9038 63.6542C36.955 63.7995 36.0436 63.5515 35.1885 63.13C35.3215 63.535 35.4406 63.9087 35.5379 64.2322C35.6311 64.5423 35.4247 64.7151 35.1386 64.8744" fill="white"/>
<path d="M35.1398 64.8738C30.7917 66.8361 22.6135 69.2165 17.7097 69.4956C16.9338 69.5398 16.1396 69.5502 15.3989 69.315C14.2682 68.9455 13.3141 68.1677 12.7211 67.1319C12.1692 66.1216 11.9779 65.3141 11.8412 64.1697C11.6531 62.5973 11.3897 59.6598 11.4788 58.0786C11.7006 54.1393 12.0596 50.8092 13.1336 47.2576C13.5165 46.1739 13.9853 45.3264 14.6324 44.6487L14.8788 44.9076C15.4977 45.9512 16.734 48.3594 17.084 49.7089C17.2615 50.3926 17.6844 51.7312 17.9601 53.0911L19.033 60.0971C20.8639 59.8222 23.6607 59.3034 24.1906 59.1832C26.0833 58.7535 30.8108 57.7043 32.8158 57.0974C32.8668 57.0828 32.9201 57.0784 32.9728 57.0846C33.0254 57.0907 33.0764 57.1073 33.1226 57.1333C33.1689 57.1593 33.2096 57.1942 33.2424 57.2361C33.2752 57.2779 33.2994 57.3259 33.3137 57.3772C33.7684 59.0313 34.9955 62.4215 35.5397 64.2309C35.633 64.541 35.4265 64.7138 35.1404 64.8731" fill="white"/>
<path d="M40.9304 20.5172C40.8154 19.5283 40.6057 18.553 40.3042 17.6046C39.4036 14.8483 37.8624 13.0871 35.0389 12.4585C33.1399 10.2987 28.8189 9.91558 26.3833 11.2807C25.8863 11.4807 25.3741 11.6405 24.8517 11.7585C22.8831 12.1348 20.9125 13.9641 19.889 16.039C18.9224 17.9925 18.4655 20.161 18.5613 22.3407C18.6234 23.7467 18.8587 25.1395 19.2617 26.4873C19.3263 26.4606 19.3931 26.4399 19.4614 26.4255C19.6503 26.3851 19.8455 26.3839 20.0349 26.4222C20.2243 26.4604 20.4039 26.5372 20.5627 26.6479C20.9347 26.3539 21.2216 25.965 21.3933 25.5218C22.3872 24.5442 20.8963 21.169 22.8558 19.5412C23.5754 18.965 24.4315 18.5864 25.3403 18.4425C26.776 18.1595 29.6639 17.5689 30.9145 17.5809C32.4449 17.5954 33.6137 17.5998 35.4647 18.2596C37.6378 18.9181 38.7191 22.3569 38.8549 24.0443C38.8549 24.0443 39.1835 24.8647 39.4491 25.6565L39.5501 25.8726L39.6677 25.7522C39.8068 25.6138 39.9733 25.5062 40.1564 25.4366C40.3395 25.367 40.5351 25.3368 40.7305 25.348C41.0815 24.2027 41.1558 22.3734 40.9304 20.5172Z" fill="white"/>
<path d="M34.4058 45.6434C35.8122 44.2223 36.7121 42.5234 37.7329 40.8234C37.3108 40.0692 36.7611 39.3948 36.1083 38.8306C34.8292 40.1274 33.335 41.19 31.6927 41.9708C31.4987 42.0533 31.3179 42.1641 31.156 42.2995C31.1115 42.3725 31.489 42.3284 31.5295 42.404C31.8305 42.7973 32.1519 43.1742 32.4925 43.5333C33.1464 44.261 33.9668 45.1513 34.4058 45.6434Z" fill="white"/>
<path d="M27.1005 45.6434C25.6941 44.2223 24.7943 42.5234 23.7734 40.8234C24.1955 40.0692 24.7453 39.3948 25.3981 38.8306C26.6772 40.1273 28.1714 41.1899 29.8137 41.9708C30.0077 42.0532 30.1885 42.164 30.3504 42.2995C30.3949 42.3725 30.0173 42.3284 29.9768 42.404C29.6759 42.7972 29.3545 43.1742 29.014 43.5333C28.36 44.261 27.5396 45.1513 27.1005 45.6434Z" fill="white"/>
<path d="M62.2484 41.1415C62.5263 41.0376 63.9023 40.5983 64.8281 40.3015C65.3093 40.1493 65.6697 40.0337 65.6889 40.0279C66.5378 39.7217 66.5053 39.1726 66.6107 38.5599C66.6307 38.4463 66.6472 38.3391 66.6624 38.2344C66.7131 37.89 66.7405 37.5761 66.7622 37.1807C65.7363 36.6971 64.8143 36.0166 64.0481 35.1775C64.0481 35.1775 63.6687 34.7761 63.2552 34.3422C62.7619 33.611 62.3715 32.8147 62.095 31.9761C61.541 32.2053 61.0802 31.9526 60.7573 31.7256C60.3736 31.4384 60.0561 31.0714 59.8265 30.6495C59.3431 29.8169 59.0967 28.8667 59.1141 27.9029C59.1094 27.657 59.1561 27.4129 59.2513 27.1864C59.3354 27.0214 59.4552 26.8774 59.602 26.765C59.7487 26.6526 59.9186 26.5747 60.0993 26.537C60.2832 26.4976 60.4735 26.4985 60.6571 26.5398C60.8407 26.581 61.0132 26.6616 61.163 26.776L61.9217 25.5737C61.9496 25.0122 62.0535 24.4571 62.2306 23.9238C62.4018 23.2645 62.7907 22.6831 63.3335 22.2749C64.0078 21.8105 64.8775 21.7532 65.6212 21.412C65.8911 21.2882 66.1776 21.1585 66.4562 21.0136C66.9595 21.0668 67.3762 21.0939 67.3762 21.0939C68.5387 21.0152 69.6805 20.7444 70.7554 20.2923C71.9316 19.8045 73.0427 19.373 73.4422 18.1588L74.6886 17.8684C76.563 19.5743 77.6466 21.7313 78.0079 24.2624C78.0079 24.2624 78.6137 25.55 78.7611 25.8643C79.0269 25.637 79.3715 25.525 79.7194 25.5528C79.9034 25.5669 80.0819 25.6222 80.2418 25.7147C80.4017 25.8072 80.5389 25.9346 80.6434 26.0874C80.7668 26.2997 80.8444 26.5357 80.871 26.78C81.0123 27.7335 80.89 28.7077 80.5176 29.5961C80.3439 30.0441 80.0761 30.4492 79.7324 30.7838C79.4443 31.0471 78.8938 31.0647 78.5179 31.1579C78.4608 31.4222 78.3981 31.6417 78.3667 31.7661C78.1162 32.6153 76.5736 35.7197 74.4772 36.8462C74.4992 37.412 74.56 37.9756 74.6591 38.533C74.7659 39.1461 74.7324 39.6944 75.5805 40.0022C75.6366 40.0223 78.0423 41.1729 78.1281 41.2084C78.1281 41.2084 75.7674 45.77 69.7777 45.77C68.2156 45.7935 66.679 45.371 65.3462 44.5517C64.0135 43.7325 62.9393 42.5499 62.2484 41.1415Z" fill="white"/>
<path d="M86.9747 49.7599C86.903 48.925 86.342 46.8782 85.6302 45.9243C84.9389 44.9912 84.0641 44.211 83.06 43.6322C81.4039 42.7275 80.0031 41.9866 78.4036 41.2368C78.2575 41.1886 78.1568 41.171 78.1187 41.1955C76.2976 42.2637 72.7507 43.217 70.0589 43.2064C67.2218 43.1515 64.437 42.429 61.9279 41.0969C59.6334 41.9366 57.2924 42.7614 55.7501 43.8973C54.6955 44.7188 53.9595 46.2133 53.7465 47.7658C53.3532 52.0957 54.0574 56.3234 55.5105 60.4648C55.9545 61.7308 56.5024 63.0084 57.4717 63.9316C58.3135 64.7343 59.5455 65.2077 60.6554 64.9639C60.3573 66.1626 60.1074 66.5965 59.4449 68.3855C64.4212 68.3855 85.3369 68.2723 89.2396 68.2715C88.8217 63.9691 87.5779 53.8373 86.9741 49.7605" fill="white"/>
<path d="M64.5062 48.3204C64.852 47.8203 66.2232 45.8365 66.2612 45.1864C66.2054 45.0609 66.123 44.9491 66.0198 44.8589C65.1337 43.9594 64.5972 43.4992 63.9909 42.5403C63.3771 41.8044 62.9113 39.9537 62.5629 38.1051C62.3948 37.0639 62.3358 36.0079 62.387 34.9543C62.378 34.8293 62.4186 34.7057 62.4998 34.6106C62.581 34.5155 62.6964 34.4566 62.8207 34.4466C62.8207 34.4466 63.0469 34.4241 63.2986 34.4207C63.228 34.1324 63.2191 33.8323 63.2723 33.5402C63.291 33.437 63.3388 33.3414 63.41 33.2648C63.4812 33.1881 63.5728 33.1337 63.674 33.108C63.8243 33.0697 63.9818 33.0701 64.1319 33.1093C64.2819 33.1485 64.4198 33.2252 64.5325 33.3321C64.7566 33.6375 64.9049 33.9923 64.965 34.3669L65.0331 34.522C65.0787 34.452 65.1386 34.3926 65.2087 34.3476C65.2789 34.3026 65.3578 34.2732 65.4402 34.2611C66.1813 34.23 66.5201 35.0528 66.6132 35.3324C66.8392 36.0105 67.6935 37.6805 68.2579 39.189C68.3546 39.4031 68.4669 39.6097 68.5938 39.8072C69.162 40.4868 69.7993 41.105 70.4953 41.6515C71.044 42.0956 71.7521 42.7814 71.8853 43.4766C71.9323 43.865 71.891 44.2591 71.7645 44.6291C71.5345 45.4802 70.8567 46.3924 70.5288 47.2106C70.2693 47.8592 69.7302 49.9145 69.5006 50.7969" fill="white"/>
<path d="M38.5332 40.9956C38.5332 40.9956 38.1167 40.8776 37.6989 40.7586C37.6883 40.7408 37.6763 40.7229 37.6657 40.7053C37.6891 40.7444 37.7136 40.7837 37.7362 40.8231C36.7153 42.5231 35.8155 44.2219 34.4091 45.643C33.9699 45.1515 33.1497 44.2613 32.4958 43.5342C32.1552 43.1751 31.8338 42.7981 31.5328 42.4049C31.4929 42.3292 31.1148 42.3734 31.1593 42.3003H30.3527C30.3972 42.3734 30.0196 42.3292 29.9791 42.4049C29.6782 42.7981 29.3568 43.175 29.0164 43.5342C28.3623 44.2613 27.5419 45.1515 27.1028 45.643C25.6964 44.2219 24.7966 42.5231 23.7757 40.8231C23.8556 40.6844 23.9421 40.5455 24.0321 40.4072C24.0231 40.4211 24.0121 40.4345 24.0037 40.4486C23.4862 40.585 22.8362 40.7552 22.8362 40.7552C20.6645 41.4213 17.7994 42.5815 16.0015 43.596C15.503 43.8718 15.0477 44.2201 14.6504 44.6295L14.8802 44.9079C15.4991 45.9515 16.7354 48.3597 17.0854 49.7092C17.2609 50.3855 17.6768 51.7028 17.9515 53.0454C18.2111 52.9339 18.5023 52.9217 18.7701 53.0113C19.0916 53.1241 19.3881 53.2987 19.643 53.5255C19.6991 53.5749 19.7545 53.6239 19.8093 53.6726C19.9102 53.3854 19.9749 53.203 19.9749 53.203C20.0127 53.1256 20.0768 53.0643 20.1557 53.0303C20.2345 52.9963 20.3228 52.9918 20.4047 53.0175C20.5673 53.0742 20.7133 53.1708 20.8294 53.2985C22.6313 54.986 24.2719 56.8396 25.7296 58.8349C27.9709 58.328 31.2379 57.5758 32.8162 57.0978C32.8672 57.0831 32.9205 57.0787 32.9732 57.0849C33.0259 57.091 33.0768 57.1076 33.1231 57.1336C33.1693 57.1596 33.21 57.1945 33.2428 57.2364C33.2756 57.2782 33.2999 57.3262 33.3142 57.3775C33.3881 57.6464 33.4825 57.9615 33.5911 58.3081L33.742 58.2718C34.9783 57.9268 35.7386 57.6601 36.9513 57.2408C38.0295 56.868 39.5397 56.1467 40.634 56.2055C41.1615 56.2611 41.6777 56.3964 42.165 56.6069C42.3617 56.6803 43.1289 56.9799 43.3256 57.0534L43.6233 57.1728C43.9771 53.8341 44.3269 50.249 44.4447 49.4196C44.7261 47.7411 45.1418 46.0882 45.688 44.477L45.7305 44.3733C43.0667 42.7057 39.8558 41.5178 38.5332 40.9956Z" fill="#65B005"/>
<path d="M72.3624 12.6957C70.7053 11.9683 68.6011 11.6756 67.2254 12.2584C66.6452 12.5216 66.0854 12.8279 65.5505 13.1748L63.1628 14.6398C62.3975 15.0727 61.6804 15.5864 61.0235 16.1721C60.1051 17.0517 59.1828 18.9177 59.1134 21.5971C59.0776 22.9739 59.1062 24.6448 59.7804 26.3434L59.8701 26.5692C59.9498 26.5316 60.0333 26.5028 60.1192 26.4833C60.3025 26.442 60.4925 26.441 60.6762 26.4804C60.8599 26.5197 61.0329 26.5984 61.1836 26.7111L61.9223 25.5726C61.9502 25.0111 62.0541 24.456 62.2312 23.9227C62.4024 23.2634 62.7913 22.682 63.3341 22.2738C64.0084 21.8095 64.8781 21.7521 65.6218 21.4109C65.8917 21.2871 66.1782 21.1574 66.4568 21.0125C66.9601 21.0657 67.3768 21.0928 67.3768 21.0928C68.539 21.0142 69.6805 20.7436 70.7552 20.2918C71.9314 19.804 73.0425 19.3725 73.442 18.1583L74.6884 17.8679C76.5628 19.5738 77.6464 21.7308 78.0077 24.2619L78.6756 25.6828C78.8078 25.5488 78.9672 25.4451 79.143 25.3787C79.3187 25.3123 79.5066 25.2848 79.6939 25.298C79.8227 25.3078 79.9493 25.337 80.0694 25.3847C80.1093 25.1517 80.1357 25.0056 80.1357 25.0056C80.7946 21.2604 79.5723 17.1065 77.3385 15.1257C76.7846 14.6346 75.9525 14.0548 75.2307 13.8975L73.9329 13.6145L73.5556 13.3536C73.1794 13.0969 72.7799 12.8767 72.3624 12.6957Z" fill="#65B005"/>
<path d="M60.2438 26.2128C59.6091 24.5862 59.4995 22.8158 59.6181 21.086C59.7132 19.6977 60.0697 18.2637 60.8626 17.1044C61.2385 16.6 61.6977 16.1641 62.2203 15.8157C62.959 15.2973 63.7468 14.8454 64.5163 14.3734C65.3018 13.8917 66.0766 13.3769 66.8922 12.9485C67.4832 12.6269 68.1414 12.4502 68.8132 12.4327C70.4134 12.4069 71.9833 12.8732 73.3126 13.7691C73.824 14.1185 74.3039 13.2842 73.7962 12.9372C72.479 12.0675 70.9559 11.5645 69.3822 11.4798C68.6575 11.4191 67.9281 11.5071 67.2383 11.7385C66.3446 12.0689 65.5398 12.6167 64.7315 13.1124C63.8908 13.6284 63.0409 14.1319 62.2115 14.6662C61.5209 15.0726 60.8969 15.584 60.3618 16.1822C59.4332 17.3161 58.9505 18.7723 58.7516 20.211C58.4675 22.2681 58.5589 24.5222 59.3186 26.4691C59.3555 26.5902 59.4372 26.6926 59.5468 26.7551C59.6564 26.8177 59.7856 26.8357 59.908 26.8055C60.0301 26.7708 60.1337 26.6892 60.1963 26.5783C60.259 26.4674 60.2757 26.3362 60.2428 26.213L60.2438 26.2128Z" fill="#726A69"/>
<path d="M75.1024 14.3614C75.8799 14.5447 76.591 15.0707 77.1615 15.6161C77.6719 16.1143 78.1055 16.6863 78.4479 17.3132C79.2273 18.745 79.6874 20.3302 79.7961 21.9587C79.8742 22.9323 79.8325 23.9119 79.6718 24.8751C79.6416 24.9982 79.6595 25.1282 79.7217 25.2383C79.784 25.3485 79.8858 25.4306 80.0064 25.4676C80.1289 25.5005 80.2594 25.4837 80.3696 25.4208C80.4799 25.3578 80.5611 25.2538 80.5958 25.1312C80.9177 23.2573 80.8318 21.3355 80.344 19.4981C79.9135 17.8791 79.1594 16.2724 77.9761 15.0699C77.2713 14.3536 76.3471 13.665 75.3572 13.4326C74.7582 13.2922 74.501 14.22 75.1024 14.3614Z" fill="#726A69"/>
<path d="M74.3489 18.2076C75.2251 19.0017 75.9537 19.9463 76.5006 20.9971C77.0334 22.0614 77.3864 23.2073 77.5454 24.388C77.5799 24.5107 77.6611 24.6148 77.7714 24.6777C77.8817 24.7407 78.0123 24.7574 78.1348 24.7243C78.2555 24.6876 78.3576 24.6056 78.4199 24.4954C78.4822 24.3851 78.4999 24.255 78.4694 24.1319C78.1186 21.5956 76.9015 19.2608 75.0265 17.5272C74.5717 17.1094 73.8917 17.7881 74.3489 18.2076Z" fill="#726A69"/>
<path d="M72.9776 18.0289C72.656 18.9623 71.7098 19.3751 70.8671 19.7257C69.7548 20.1971 68.5774 20.4949 67.3757 20.6088C67.2496 20.6121 67.1297 20.6639 67.0405 20.7535C66.9514 20.8431 66.8998 20.9637 66.8965 21.0904C66.8974 21.2179 66.9481 21.3399 67.0378 21.43C67.1275 21.5201 67.2488 21.5712 67.3757 21.5721C68.0654 21.5169 68.7499 21.408 69.4229 21.2465C70.0733 21.0692 70.7095 20.8427 71.3259 20.569C72.448 20.0948 73.4822 19.5054 73.9015 18.285C74.1037 17.698 73.1783 17.4457 72.9773 18.0289H72.9776Z" fill="#726A69"/>
<path d="M68.7684 17.5661C68.5049 18.2308 68.1402 18.8502 67.6872 19.4022C67.2019 19.9799 66.5932 20.4401 65.9065 20.7488C65.5749 20.9155 65.2311 21.0564 64.8781 21.1703C64.5121 21.2819 64.1393 21.371 63.7814 21.51C63.0454 21.7835 62.4377 22.3236 62.0775 23.0242C61.696 23.8207 61.4803 24.687 61.4434 25.5702C61.4434 25.6979 61.4938 25.8204 61.5837 25.9108C61.6736 26.0011 61.7955 26.0518 61.9225 26.0518C62.0496 26.0518 62.1715 26.0011 62.2614 25.9108C62.3512 25.8204 62.4017 25.6979 62.4017 25.5702C62.4309 24.8699 62.5959 24.1821 62.8875 23.5454C63.0319 23.2368 63.2411 22.9633 63.5006 22.7437C63.7894 22.5339 64.1152 22.3813 64.4608 22.2941C64.8148 22.1866 65.1758 22.1001 65.522 21.9682C65.8966 21.8206 66.2631 21.6532 66.6201 21.4665C67.3036 21.1257 67.9075 20.643 68.3918 20.0504C68.9381 19.3797 69.3773 18.6275 69.6934 17.821C69.7263 17.6978 69.7097 17.5666 69.647 17.4557C69.5844 17.3448 69.4809 17.2632 69.3588 17.2285C69.2364 17.1976 69.1068 17.2152 68.997 17.2779C68.8872 17.3405 68.8057 17.4433 68.7694 17.5649L68.7684 17.5661Z" fill="#726A69"/>
<path d="M79.0344 26.2676C79.3601 25.9529 79.9528 25.9341 80.2304 26.3298C80.371 26.5903 80.4421 26.883 80.4368 27.1793C80.4621 27.5086 80.4545 27.8396 80.4143 28.1673C80.3362 28.827 80.111 29.4604 79.7554 30.0203C79.6443 30.2282 79.4733 30.3974 79.2648 30.506C78.9954 30.5851 78.7204 30.6435 78.4422 30.6808C77.8389 30.8074 78.0942 31.7362 78.697 31.6098C79.061 31.562 79.418 31.4703 79.7602 31.3366C80.1261 31.1217 80.4264 30.8101 80.6283 30.4355C81.0949 29.6513 81.3603 28.7627 81.4004 27.8498C81.4489 27.0023 81.3804 25.9533 80.6455 25.4068C80.3035 25.1625 79.8871 25.0466 79.4688 25.0794C79.0505 25.1123 78.657 25.2917 78.357 25.5865C77.9117 26.0171 78.5898 26.6977 79.0346 26.2676H79.0344Z" fill="#726A69"/>
<path d="M78.1634 30.014C78.1688 30.6164 78.0655 31.2147 77.8586 31.7801C77.8342 31.8489 77.8073 31.9166 77.7805 31.9846C77.733 32.105 77.7901 31.9661 77.7581 32.038C77.7362 32.0869 77.715 32.1361 77.6927 32.1849C77.5956 32.3982 77.491 32.6081 77.3812 32.815C76.8399 33.8832 76.124 34.8525 75.2634 35.6825C74.8049 36.1302 74.2522 36.4688 73.6462 36.6733C73.057 36.8513 73.308 37.7813 73.901 37.6021C75.2301 37.2007 76.2537 36.1643 77.0743 35.0832C77.7638 34.1883 78.3245 33.2002 78.7401 32.1481C79.0026 31.4681 79.1323 30.7435 79.1218 30.014C79.1042 29.3953 78.1457 29.3929 78.1634 30.014Z" fill="#726A69"/>
<path d="M61.4057 26.3595C61.0529 26.1084 60.6213 25.9949 60.1915 26.0403C59.7616 26.0857 59.3628 26.2868 59.0697 26.6061C58.4783 27.2768 58.5905 28.3365 58.752 29.1513C58.9208 30.0154 59.2947 30.8257 59.842 31.5134C60.3904 32.1903 61.2366 32.7247 62.1289 32.4767C62.7224 32.3111 62.4703 31.3815 61.8741 31.5479C61.335 31.6982 60.8281 31.2292 60.5196 30.8332C59.9688 30.0807 59.6487 29.1829 59.5988 28.25C59.5858 27.968 59.5589 27.6238 59.6986 27.3669C59.95 26.9053 60.546 26.9126 60.9223 27.1925C61.0322 27.2561 61.1627 27.2737 61.2853 27.2413C61.408 27.209 61.5131 27.1294 61.5778 27.0197C61.6391 26.9088 61.6555 26.7783 61.6235 26.6555C61.5914 26.5327 61.5135 26.4271 61.4059 26.3607L61.4057 26.3595Z" fill="#726A69"/>
<path d="M61.3668 31.1871C61.6666 32.4353 62.1891 33.6184 62.909 34.6791C62.9754 34.7868 63.0804 34.8649 63.2024 34.897C63.3244 34.9292 63.454 34.913 63.5645 34.8519C63.6734 34.7867 63.7525 34.681 63.7847 34.5577C63.8169 34.4344 63.7995 34.3034 63.7364 34.1928C63.0576 33.2052 62.5674 32.0992 62.2911 30.9314C62.2573 30.8082 62.1762 30.7036 62.0656 30.6405C61.9551 30.5774 61.8241 30.561 61.7016 30.595C61.579 30.6289 61.4749 30.7104 61.4121 30.8215C61.3493 30.9327 61.3331 31.0643 61.3668 31.1875V31.1871Z" fill="#726A69"/>
<path d="M68.5959 37.1782C68.4954 37.1706 68.3951 37.1601 68.2952 37.1465L68.4226 37.1638C68.1679 37.1281 67.9162 37.0744 67.669 37.0032C67.5444 36.9705 67.4119 36.9879 67.2999 37.0518C67.1902 37.1163 67.1104 37.2219 67.0782 37.3455C67.0459 37.469 67.0638 37.6004 67.128 37.7107C67.193 37.8173 67.295 37.8959 67.4143 37.9314C67.8001 38.0415 68.1959 38.1118 68.5959 38.1414C68.6908 38.1416 68.7837 38.1135 68.8627 38.0606C68.9417 38.0077 69.0033 37.9323 69.0397 37.8442C69.076 37.756 69.0855 37.659 69.0669 37.5654C69.0483 37.4718 69.0025 37.3859 68.9353 37.3185C68.8423 37.2327 68.722 37.1831 68.5959 37.1782Z" fill="#726A69"/>
<path d="M78.4592 40.7512C78.3314 40.7158 78.1975 40.7088 78.0667 40.7307C77.936 40.7526 77.8115 40.8029 77.7021 40.8781C77.4799 41.0005 77.2521 41.1123 77.0212 41.217C76.5138 41.4423 75.9938 41.638 75.4639 41.8032C74.2575 42.1936 73.0167 42.4673 71.7585 42.6204C71.6326 42.6242 71.5129 42.6762 71.4238 42.7657C71.3348 42.8552 71.2831 42.9755 71.2793 43.1021C71.28 43.2296 71.3308 43.3517 71.4205 43.4419C71.5102 43.532 71.6316 43.583 71.7585 43.5837C73.0177 43.4369 74.2614 43.1775 75.4747 42.8085C76.0192 42.6419 76.5568 42.4521 77.0823 42.2317C77.3333 42.1263 77.5827 42.017 77.8269 41.8963C77.9282 41.8466 78.0285 41.7949 78.1277 41.7412C78.186 41.7132 78.2425 41.6818 78.2971 41.6471C78.461 41.5293 77.9694 41.6186 78.2038 41.68C78.8012 41.8367 79.056 40.9078 78.4586 40.7512H78.4592Z" fill="#726A69"/>
<path d="M63.7245 41.42C63.6258 41.3798 63.5275 41.3392 63.4294 41.2982L63.544 41.3467C63.1754 41.1902 62.8124 41.0212 62.4574 40.8364C62.4031 40.8044 62.3431 40.7836 62.2807 40.775C62.2184 40.7664 62.1549 40.7702 62.0941 40.7862C62.0332 40.8023 61.976 40.8302 61.9259 40.8684C61.8758 40.9067 61.8336 40.9545 61.8019 41.0091C61.7701 41.0637 61.7493 41.124 61.7408 41.1867C61.7322 41.2494 61.736 41.3131 61.752 41.3743C61.7679 41.4355 61.7957 41.4929 61.8338 41.5433C61.8718 41.5937 61.9193 41.6361 61.9737 41.668C62.46 41.9213 62.9614 42.1441 63.4697 42.3488C63.5314 42.3658 63.5958 42.3703 63.6593 42.3619C63.7227 42.3536 63.7838 42.3326 63.8391 42.3002C63.9488 42.2357 64.0285 42.1301 64.0608 42.0066C64.093 41.883 64.0751 41.7516 64.011 41.6413C63.9425 41.5378 63.8417 41.4601 63.7245 41.4206V41.42Z" fill="#726A69"/>
<path d="M74.0039 36.9759C74.0445 37.7061 74.1353 38.4326 74.2756 39.1502C74.3303 39.4454 74.4623 39.7206 74.6579 39.9475C74.8536 40.1744 75.1058 40.3448 75.3887 40.4412C75.5638 40.5113 75.2641 40.3792 75.3887 40.4396C75.4335 40.4613 75.479 40.4818 75.5239 40.5028C75.6659 40.5697 75.8076 40.6366 75.949 40.7035C76.3327 40.8857 76.7163 41.0682 77.0998 41.2508C77.3615 41.3754 77.6211 41.5091 77.8874 41.6231C77.9981 41.6834 78.1275 41.6992 78.2493 41.6671C78.3711 41.635 78.4761 41.5574 78.5431 41.4503C78.6064 41.3398 78.6238 41.2087 78.5916 41.0854C78.5595 40.9621 78.4803 40.8565 78.3712 40.7914C77.8062 40.5492 77.2565 40.2634 76.7013 39.9995C76.4317 39.8713 76.1634 39.7404 75.8921 39.6162C75.7518 39.5609 75.6153 39.496 75.4838 39.4221C75.4233 39.3862 75.3709 39.338 75.33 39.2806C75.2891 39.2232 75.2605 39.1579 75.2462 39.0888C75.1819 38.8229 75.1336 38.5533 75.1016 38.2816C75.031 37.8491 74.9847 37.413 74.9629 36.9753C74.9603 36.8484 74.9089 36.7274 74.8196 36.6376C74.7303 36.5479 74.61 36.4963 74.4837 36.4937C74.357 36.4949 74.2358 36.546 74.1462 36.6361C74.0566 36.7261 74.0057 36.8479 74.0045 36.9753L74.0039 36.9759Z" fill="#726A69"/>
<path d="M63.0776 40.358C62.7592 40.4623 62.4387 40.5609 62.1233 40.6771C62.0045 40.7135 61.9028 40.7919 61.837 40.8978C61.7728 41.0081 61.7549 41.1395 61.7872 41.263C61.8194 41.3866 61.8991 41.4922 62.0089 41.5567C62.0639 41.5896 62.125 41.6108 62.1885 41.6192C62.2519 41.6275 62.3164 41.6228 62.378 41.6053C62.6925 41.4891 63.0141 41.3905 63.3324 41.2862C63.4517 41.2506 63.5537 41.1719 63.6189 41.0654C63.683 40.9529 63.7003 40.8196 63.6672 40.6943C63.6505 40.6333 63.622 40.5762 63.5833 40.5263C63.5446 40.4764 63.4965 40.4346 63.4418 40.4033C63.387 40.3721 63.3267 40.352 63.2642 40.3442C63.2017 40.3364 63.1383 40.3411 63.0776 40.358Z" fill="#726A69"/>
<path d="M76.1417 40.7485C78.2053 41.6336 80.2105 42.635 82.1853 43.7039C82.8684 44.0456 83.5088 44.4677 84.0928 44.9612C84.8233 45.5771 85.4052 46.3515 85.7947 47.2262C85.9845 47.6892 86.143 48.1645 86.2691 48.6489C86.329 48.8696 86.3815 49.0922 86.4264 49.3166C86.4437 49.4039 86.4597 49.4915 86.4742 49.5793C86.4728 49.5706 86.4959 49.7292 86.4863 49.6561C86.4798 49.6054 86.4955 49.7453 86.4969 49.7603C86.5002 49.887 86.5518 50.0076 86.641 50.0972C86.7301 50.1868 86.8501 50.2386 86.9761 50.242C87.1029 50.2411 87.2243 50.19 87.3139 50.0999C87.4036 50.0098 87.4544 49.8878 87.4553 49.7603C87.3593 48.9117 87.1529 48.0794 86.8413 47.2848C86.681 46.8294 86.4792 46.3899 86.2384 45.9719C85.9428 45.506 85.5944 45.0761 85.2001 44.6911C84.6412 44.1111 84.0025 43.6146 83.3034 43.2168C82.3051 42.6621 81.2956 42.1277 80.275 41.6135C79.077 41.0089 77.8607 40.4433 76.6261 39.9167C76.5154 39.8563 76.3861 39.8406 76.2643 39.8727C76.1425 39.9048 76.0375 39.9823 75.9706 40.0895C75.9073 40.2 75.8899 40.3311 75.922 40.4545C75.9542 40.5778 76.0334 40.6835 76.1425 40.7485H76.1417Z" fill="#726A69"/>
<path d="M54.2094 47.894C54.3988 46.5705 54.9467 45.1123 56.0424 44.2764C57.1976 43.3954 58.6312 42.8475 59.9741 42.3327C60.8504 41.9966 61.7345 41.6819 62.6149 41.3568C62.7356 41.3199 62.8377 41.2379 62.8999 41.1277C62.9622 41.0174 62.98 40.8874 62.9496 40.7643C62.9149 40.6417 62.8336 40.5377 62.7234 40.4748C62.6131 40.4118 62.4827 40.3949 62.3602 40.4278C60.7495 41.0226 59.1187 41.5785 57.561 42.3064C56.8737 42.616 56.216 42.9882 55.5962 43.4184C55.0012 43.8581 54.508 44.4221 54.1507 45.0717C53.7048 45.865 53.4112 46.7356 53.2853 47.6379C53.2558 47.761 53.2739 47.8907 53.3361 48.0008C53.3982 48.1108 53.4997 48.193 53.62 48.2306C53.7425 48.2635 53.873 48.2467 53.9833 48.1837C54.0936 48.1208 54.1748 48.0167 54.2094 47.894Z" fill="#726A69"/>
<path d="M60.1559 64.992C59.8634 66.1126 59.387 67.1743 58.9851 68.2574C58.9524 68.3805 58.9692 68.5117 59.0318 68.6225C59.0944 68.7334 59.1979 68.815 59.3199 68.8498C59.4424 68.881 59.5721 68.8635 59.6819 68.8008C59.7918 68.7381 59.8732 68.6351 59.9093 68.5135C60.311 67.4297 60.7878 66.3687 61.0801 65.248C61.0968 65.187 61.1014 65.1233 61.0937 65.0605C61.0859 64.9978 61.0659 64.9371 61.0348 64.8821C61.0037 64.8271 60.9622 64.7787 60.9125 64.7399C60.8629 64.701 60.8061 64.6723 60.7454 64.6555C60.6847 64.6387 60.6213 64.6341 60.5588 64.6419C60.4964 64.6497 60.436 64.6698 60.3813 64.701C60.3266 64.7323 60.2785 64.774 60.2398 64.824C60.2011 64.8739 60.1726 64.931 60.1559 64.992Z" fill="#726A69"/>
<path d="M81.1745 49.1576C81.2734 51.1172 81.3326 53.0783 81.352 55.041C81.3618 56.0513 81.3566 57.0451 81.2757 58.0514C81.0894 60.3671 80.8321 62.6783 80.5729 64.9868C80.4485 66.0926 80.3222 67.1984 80.1836 68.3026C80.1842 68.4301 80.2349 68.5523 80.3246 68.6425C80.4144 68.7327 80.5359 68.7836 80.6628 68.7842C80.7889 68.7812 80.909 68.7295 80.9982 68.6398C81.0874 68.5501 81.1389 68.4294 81.1419 68.3026C81.4159 66.1187 81.6553 63.9298 81.8827 61.7401C82.0883 59.7617 82.3243 57.7799 82.3157 55.7886C82.3059 53.577 82.2449 51.3666 82.1329 49.1572C82.1017 48.5403 81.1431 48.5365 81.1745 49.1572V49.1576Z" fill="#726A69"/>
<path d="M86.5121 49.889C86.8465 52.1493 87.1258 54.3563 87.4123 56.6339C87.7516 59.3315 88.0751 62.0309 88.3827 64.7322C88.5158 65.9112 88.6456 67.0909 88.7606 68.2717C88.764 68.3984 88.8156 68.5189 88.9047 68.6085C88.9938 68.6981 89.1138 68.75 89.2398 68.7534C89.3666 68.7525 89.488 68.7014 89.5776 68.6113C89.6673 68.5212 89.7181 68.3992 89.719 68.2717C89.4904 65.9236 89.214 63.58 88.9347 61.2376C88.6133 58.5412 88.2759 55.8469 87.9227 53.1546C87.7673 51.9798 87.6096 50.8051 87.4363 49.6327C87.4018 49.5101 87.3207 49.406 87.2106 49.343C87.1004 49.28 86.97 49.2631 86.8475 49.2959C86.7267 49.3326 86.6245 49.4146 86.5622 49.5249C86.4998 49.6353 86.4821 49.7655 86.5127 49.8886L86.5121 49.889Z" fill="#726A69"/>
<path d="M59.4448 68.8676C60.9536 68.8676 62.4624 68.8638 63.9712 68.8561C66.2006 68.8481 68.4301 68.8391 70.6597 68.8291L78.0419 68.7961C80.2485 68.7861 82.4551 68.7765 84.6617 68.7674C86.1016 68.7618 87.5416 68.7572 88.9815 68.7536H89.2892C89.9059 68.7536 89.9069 67.7903 89.2892 67.7903C87.9714 67.7903 86.6537 67.7967 85.3369 67.8017C83.2058 67.81 81.0746 67.8191 78.9433 67.829L71.5785 67.8619C69.2849 67.872 66.9912 67.8815 64.6975 67.8904C63.0786 67.8964 61.4594 67.9011 59.8401 67.9043H59.4454C58.8286 67.9043 58.8276 68.8676 59.4454 68.8676H59.4448Z" fill="#726A69"/>
<path d="M62.6925 33.9833C61.7741 34.1238 61.8939 35.1824 61.8977 35.8674C61.9078 36.8835 62.0188 37.896 62.2291 38.89C62.3958 39.7796 62.6296 40.6551 62.9283 41.5091C63.1926 42.1964 63.5601 42.8389 64.0181 43.4143C64.2794 43.7518 64.561 44.0731 64.8612 44.3762C65.0273 44.546 65.1962 44.713 65.3643 44.8809C65.5561 45.0339 65.7196 45.2196 65.8473 45.4296L65.782 45.1864C65.7764 45.253 65.782 45.1585 65.7878 45.145C65.7794 45.1719 65.7728 45.1992 65.7678 45.2269C65.7503 45.2827 65.7337 45.3383 65.7137 45.3933C65.7038 45.4206 65.6938 45.4477 65.682 45.4746C65.702 45.4256 65.6878 45.4605 65.6748 45.4884C65.6429 45.5583 65.6101 45.6275 65.575 45.6961C65.4166 46.0124 65.2368 46.3183 65.0517 46.6193C64.7466 47.1154 64.4218 47.5989 64.0907 48.0777C64.0277 48.1883 64.0104 48.3193 64.0426 48.4425C64.0747 48.5657 64.1538 48.6713 64.2626 48.7366C64.3729 48.7986 64.5028 48.8152 64.625 48.783C64.7472 48.7507 64.8523 48.6722 64.9181 48.5638C65.3474 47.943 65.7694 47.3149 66.1448 46.6594C66.3541 46.3159 66.5281 45.9519 66.6639 45.5729C66.7311 45.4104 66.751 45.2321 66.7212 45.0587C66.629 44.7224 66.3055 44.4657 66.0703 44.2305C65.3484 43.508 64.5929 42.7348 64.1321 41.887C63.8943 41.4164 63.7085 40.921 63.578 40.4098C63.3931 39.7634 63.2462 39.1053 63.114 38.447C62.963 37.7079 62.8778 36.9568 62.8594 36.2025C62.8509 35.819 62.8542 35.4351 62.8622 35.0516C62.8622 35.0028 62.8652 34.9552 62.8668 34.9067C62.8616 35.0578 62.8523 34.9229 62.875 34.8986L62.8564 34.937C62.8843 34.8908 62.8843 34.8865 62.8564 34.9241C62.8517 34.9291 62.8459 34.933 62.8395 34.9355C62.833 34.938 62.8262 34.939 62.8193 34.9386C62.8604 34.925 62.903 34.9161 62.9461 34.9121C63.0682 34.8774 63.1717 34.7958 63.2344 34.6849C63.297 34.574 63.3136 34.4428 63.2807 34.3197C63.2443 34.1982 63.1628 34.0955 63.053 34.0329C62.9433 33.9702 62.8137 33.9525 62.6913 33.9833H62.6925Z" fill="#726A69"/>
<path d="M66.6498 38.9965C66.2705 37.7988 65.9628 36.5764 65.62 35.3678C65.542 35.171 65.4931 34.9638 65.4748 34.7527C65.4707 34.8183 65.5026 34.725 65.4633 34.7599C65.5992 34.6395 65.4337 34.7712 65.4397 34.7427C65.4565 34.6636 65.7703 34.8504 65.7628 34.8442C65.8625 34.9238 65.9442 35.0239 66.0023 35.1378C66.0345 35.1926 66.0622 35.2494 66.091 35.306C66.1038 35.3313 66.1151 35.3582 66.1265 35.3843C66.0822 35.2813 66.1265 35.3887 66.1323 35.4057C66.2302 35.6992 66.3549 35.9835 66.4789 36.2665C66.8489 37.1094 67.2476 37.9415 67.5928 38.7952C67.7925 39.2885 67.964 39.793 68.3062 40.2092C68.6328 40.6011 68.9864 40.9694 69.3644 41.3114C69.7319 41.6486 70.1307 41.949 70.4988 42.2848C70.863 42.5785 71.1573 42.9503 71.3604 43.3729C71.5245 43.7899 71.3825 44.2786 71.2463 44.6834C71.0775 45.1233 70.8697 45.547 70.6254 45.9496C70.2252 46.6839 69.9103 47.4621 69.687 48.2687C69.4576 49.0649 69.2466 49.8662 69.0377 50.668C68.8814 51.2682 69.8056 51.5243 69.9617 50.9241C70.3509 49.4307 70.6623 47.8698 71.4111 46.5101C71.9256 45.5759 72.5731 44.4615 72.3465 43.3476C72.134 42.304 71.1771 41.6153 70.4222 40.9679C69.9974 40.6076 69.5967 40.2196 69.2228 39.8063C68.9056 39.4176 68.6606 38.9748 68.4995 38.499C68.1151 37.5519 67.6743 36.6306 67.2676 35.6933C67.02 35.1226 66.8449 34.443 66.2793 34.0348C66.1073 33.902 65.9031 33.8178 65.6879 33.7912C65.4727 33.7645 65.2543 33.7962 65.0554 33.8831C64.8517 33.9959 64.6906 34.173 64.5971 34.387C64.5036 34.6011 64.4829 34.8401 64.5381 35.0672C64.6884 35.7646 64.9292 36.4545 65.1211 37.1415C65.3175 37.8457 65.5048 38.5546 65.7258 39.2516C65.9123 39.84 66.8379 39.5885 66.6498 38.9955V38.9965Z" fill="#726A69"/>
<path d="M65.0776 39.3834C64.4991 38.0034 64.094 36.5563 63.8719 35.0756C63.8232 34.7507 63.7693 34.4241 63.7292 34.0982C63.7125 33.9853 63.7092 33.8708 63.7194 33.757C63.7242 33.7127 63.7328 33.6688 63.7451 33.626C63.7651 33.56 63.7272 33.6085 63.7637 33.5895C64.2574 33.3338 64.4302 34.1915 64.5024 34.495C64.6464 35.097 65.5708 34.8424 65.4264 34.2389C65.3477 33.8262 65.184 33.4345 64.9459 33.0891C64.8101 32.9199 64.6347 32.7872 64.4354 32.7028C64.2361 32.6184 64.0191 32.585 63.8038 32.6055C63.5886 32.6114 63.3803 32.6835 63.2071 32.8122C63.034 32.9408 62.9042 33.1198 62.8355 33.325C62.7393 33.6969 62.7347 34.0867 62.8219 34.4609C62.9605 35.3132 63.0729 36.1601 63.2829 36.9994C63.5317 37.9795 63.855 38.9389 64.2499 39.8692C64.3145 39.979 64.4197 40.0586 64.5424 40.091C64.6651 40.1233 64.7956 40.1057 64.9055 40.042C65.0128 39.9752 65.0904 39.8696 65.1224 39.747C65.1543 39.6243 65.1383 39.494 65.0774 39.383L65.0776 39.3834Z" fill="#726A69"/>
<path d="M53.2689 47.7658C52.8895 52.0365 53.5823 56.328 54.9711 60.3661C55.5701 62.1048 56.3572 63.9845 58.0259 64.9398C58.8114 65.408 59.7332 65.5904 60.6366 65.4563C61.4215 65.3247 62.1353 64.8465 62.7632 64.3789C63.4538 63.8803 64.0848 63.3031 64.6436 62.6589C65.046 62.1522 65.4097 61.6155 65.7313 61.0534C66.4798 59.825 67.1748 58.5631 67.8449 57.2899C68.4638 56.1153 69.0628 54.9292 69.609 53.7176C69.8005 53.2926 69.9904 52.8643 70.1463 52.4246C70.2362 52.1717 70.3428 51.8759 70.2583 51.608C70.1331 51.2116 69.7059 50.9337 69.3878 50.7083C68.9128 50.3719 68.4079 50.0775 67.9026 49.7899C66.699 49.1046 65.4649 48.4746 64.2343 47.8402C63.9912 47.7149 63.7484 47.589 63.5057 47.4625C63.3952 47.4014 63.2656 47.3852 63.1436 47.4174C63.0215 47.4496 62.9165 47.5276 62.85 47.6353C62.2053 48.6117 61.6221 49.6308 61.0481 50.6503C60.4741 51.6698 59.9053 52.6973 59.4019 53.754C59.3412 53.865 59.3251 53.9953 59.3571 54.118C59.3891 54.2406 59.4667 54.3462 59.5739 54.413C59.6839 54.4764 59.8142 54.4937 59.9368 54.4614C60.0595 54.4291 60.1646 54.3497 60.2295 54.2402C60.7329 53.183 61.3015 52.1559 61.8755 51.1364C62.4495 50.1169 63.0335 49.098 63.6776 48.1216L63.0219 48.2944C64.1318 48.875 65.2505 49.4383 66.3532 50.0328C66.9216 50.3392 67.4873 50.6519 68.0409 50.9848C68.2717 51.1235 68.5001 51.2658 68.7238 51.4159C68.8182 51.4793 68.9118 51.5444 69.0033 51.6118C69.0286 51.6305 69.147 51.723 69.0566 51.6507C69.0919 51.679 69.1273 51.7075 69.1618 51.737C69.2205 51.7872 69.274 51.8416 69.3295 51.895C69.3603 51.9247 69.4176 52.0176 69.3281 51.8855C69.3452 51.9078 69.36 51.9317 69.3722 51.957C69.3323 51.8611 69.3679 51.9128 69.3387 51.8504C69.3157 51.8013 69.3309 51.7778 69.3311 51.8265C69.3311 51.9116 69.3667 51.7051 69.3401 51.7651C69.3331 51.7896 69.3278 51.8146 69.3241 51.8398C69.2876 51.9696 69.2483 52.0971 69.2021 52.2239C69.1742 52.3002 69.145 52.3758 69.1153 52.4513C69.0977 52.496 69.0797 52.5404 69.0618 52.5849C69.0492 52.6158 68.9869 52.7656 69.0284 52.6668C68.576 53.7393 68.0553 54.7843 67.5264 55.8205C66.8875 57.0728 66.218 58.3089 65.5179 59.529C64.8889 60.6183 64.274 61.7354 63.3654 62.6168C62.8029 63.1695 62.18 63.6563 61.5085 64.068C60.8908 64.4405 60.2519 64.6454 59.5271 64.4948C57.8065 64.1374 56.8318 62.5654 56.2298 61.033C54.746 57.298 54.0328 53.299 54.1334 49.2786C54.15 48.7735 54.1821 48.2691 54.2268 47.7656C54.2259 47.6381 54.1751 47.5162 54.0854 47.4261C53.9958 47.3359 53.8744 47.2849 53.7476 47.2839C53.6214 47.2866 53.501 47.3381 53.4117 47.4279C53.3224 47.5177 53.2711 47.6387 53.2685 47.7656L53.2689 47.7658Z" fill="#726A69"/>
<path d="M70.5524 29.052C70.5997 29.1953 70.6439 29.3396 70.686 29.4845C70.7359 29.6352 70.7746 29.7895 70.8016 29.9461L70.7846 29.818C70.788 29.8482 70.788 29.8787 70.7846 29.9089L70.8016 29.7809C70.7992 29.7945 70.7957 29.808 70.7912 29.821L70.8395 29.706C70.8341 29.7186 70.8274 29.7305 70.8196 29.7416L70.8946 29.644C70.8886 29.6513 70.8819 29.6581 70.8747 29.6641L70.9717 29.5888C70.9405 29.6113 70.9071 29.6302 70.8719 29.6454L70.9865 29.5969C70.9524 29.611 70.9167 29.6209 70.8803 29.6264L71.0076 29.6091C70.9409 29.6114 70.8741 29.6077 70.808 29.5981C70.6809 29.5982 70.5589 29.6487 70.4686 29.7386C70.424 29.7833 70.3887 29.8364 70.3646 29.8949C70.3405 29.9533 70.3281 30.016 70.3281 30.0792C70.3281 30.1425 70.3405 30.2052 70.3646 30.2636C70.3887 30.3221 70.424 30.3752 70.4686 30.4199C70.5615 30.5058 70.6818 30.5556 70.808 30.5604C70.8629 30.5679 70.9183 30.5725 70.9737 30.574C71.126 30.5691 71.2749 30.5267 71.4072 30.4506C71.4864 30.4081 71.5557 30.3491 71.6104 30.2775C71.6652 30.2059 71.7041 30.1235 71.7246 30.0356C71.7515 29.8898 71.7453 29.7399 71.7064 29.5969C71.6416 29.3263 71.5623 29.0594 71.4748 28.7953C71.4392 28.6756 71.361 28.5732 71.2552 28.5075C71.1433 28.443 71.0105 28.4256 70.8858 28.459C70.8252 28.4758 70.7684 28.5044 70.7187 28.5433C70.6691 28.5822 70.6275 28.6305 70.5964 28.6855C70.5654 28.7405 70.5454 28.8012 70.5376 28.8639C70.5299 28.9267 70.5345 28.9904 70.5512 29.0514L70.5524 29.052Z" fill="#726A69"/>
<path d="M65.8049 26.9332C65.6925 27.407 65.8538 28.4695 66.7353 28.5036C67.8921 28.4215 67.8706 27.1254 67.4419 26.5435C67.0919 26.0666 66.1408 25.9207 65.8049 26.9332Z" fill="#726A69"/>
<path d="M75.0738 26.3315C75.2459 26.7869 75.2219 27.8615 74.3522 28.0093C73.1942 28.0775 73.0498 26.7895 73.4002 26.1567C73.6874 25.6385 74.611 25.3708 75.0738 26.3315Z" fill="#726A69"/>
<path d="M70.1446 33.6265C70.0727 33.721 70.1803 33.5925 70.1959 33.5767C70.2334 33.5386 70.2734 33.5032 70.3141 33.4687C70.2314 33.5388 70.3662 33.4344 70.3838 33.4232C70.4313 33.3927 70.4802 33.3646 70.5301 33.3387C70.5475 33.3296 70.7066 33.2632 70.6124 33.2985C70.6535 33.2831 70.6946 33.268 70.7366 33.2548C70.7929 33.2369 70.8498 33.2217 70.9075 33.2086C70.9262 33.2044 71.1049 33.1771 71.0005 33.1886C71.1294 33.1747 71.2591 33.1701 71.3886 33.1747C71.4376 33.1763 71.4863 33.1791 71.5352 33.1829C71.5673 33.1855 71.5995 33.1886 71.6316 33.1922C71.5838 33.1847 71.5888 33.1854 71.6466 33.1944C71.7671 33.2138 71.8862 33.2406 72.0034 33.2746C72.0579 33.2911 72.1108 33.3106 72.1643 33.3296C72.2178 33.3487 72.215 33.3497 72.1607 33.3278C72.1839 33.3385 72.2068 33.3497 72.2294 33.3615C72.3392 33.426 72.4699 33.444 72.5928 33.4116C72.7158 33.3792 72.8209 33.299 72.885 33.1887C72.9491 33.0783 72.967 32.9469 72.9348 32.8234C72.9025 32.6998 72.8227 32.5941 72.713 32.5297C71.6053 31.9694 70.0989 32.1117 69.317 33.1394C69.2532 33.2498 69.2355 33.3811 69.2677 33.5046C69.2999 33.6281 69.3794 33.7337 69.4889 33.7984C69.5995 33.8591 69.729 33.875 69.8509 33.8429C69.9727 33.8107 70.0778 33.733 70.1446 33.6257V33.6265Z" fill="#726A69"/>
<path d="M65.8729 24.3602C65.7787 24.4656 65.6746 24.5616 65.5621 24.647L65.6591 24.5717C65.5108 24.6918 65.3482 24.7929 65.1751 24.8727L65.2895 24.8242C65.2621 24.8359 65.234 24.8462 65.2055 24.8549C65.086 24.8901 64.984 24.9688 64.9192 25.0756C64.871 25.1583 64.8485 25.2536 64.8545 25.3492C64.8604 25.4449 64.8947 25.5365 64.9528 25.6125C65.0109 25.6885 65.0902 25.7453 65.1806 25.7757C65.271 25.8062 65.3684 25.8088 65.4602 25.7833C65.6634 25.716 65.8546 25.6166 66.0265 25.4887C66.2183 25.3606 66.3943 25.2101 66.5506 25.0401C66.6378 24.9478 66.6876 24.8262 66.6903 24.6989C66.6898 24.5713 66.6397 24.4488 66.5506 24.3578C66.4603 24.2677 66.3383 24.2172 66.2112 24.2173C66.1481 24.2169 66.0857 24.2292 66.0274 24.2533C65.9691 24.2774 65.9162 24.3129 65.8717 24.3578L65.8729 24.3602Z" fill="#726A69"/>
<path d="M67.5684 33.7429V34.3375C67.5697 34.4651 67.6197 34.5872 67.7081 34.6787C67.8012 34.7644 67.9214 34.8142 68.0475 34.8192C68.1746 34.8189 68.2965 34.7685 68.387 34.6787C68.4751 34.587 68.5251 34.465 68.5267 34.3375V33.7429C68.5254 33.6154 68.4754 33.4932 68.387 33.4017C68.2939 33.316 68.1736 33.2662 68.0475 33.2612C67.9204 33.2615 67.7986 33.312 67.7081 33.4017C67.6201 33.4935 67.5701 33.6154 67.5684 33.7429Z" fill="#726A69"/>
<path d="M35.138 64.874C32.9285 65.833 30.6613 66.6515 28.3496 67.3244L28.7112 67.5486C28.9108 67.6726 34.982 68.2324 36.3806 68.2655C39.8495 68.348 43.4531 68.7271 46.8926 68.131C48.3365 67.8787 49.9116 67.4186 50.7182 65.7119C51.3088 64.4628 51.1974 62.6725 51.1319 60.8954C50.9942 57.1924 50.1985 52.8236 48.6258 48.3147C48.2982 47.4317 47.4131 45.4876 46.219 44.6907C46.0575 44.5829 45.8933 44.4769 45.7264 44.3728L45.6865 44.4774C45.1404 46.0886 44.7246 47.7415 44.4432 49.4199C44.2312 50.9129 43.267 61.3409 42.8813 63.1766C42.7541 63.297 42.236 63.7684 41.9044 63.8029C41.5508 63.8397 40.6 63.48 40.3886 63.4313C39.7542 63.285 38.6424 63.5404 37.9038 63.6542C36.955 63.7995 36.0436 63.5515 35.1885 63.13C35.3215 63.535 35.4406 63.9087 35.5379 64.2322C35.6311 64.5423 35.4247 64.7151 35.1386 64.8744" fill="white"/>
<path d="M39.3337 24.0449C39.2466 23.1353 39.0331 22.2424 38.6994 21.3924C38.324 20.4076 37.8225 19.4256 37.0622 18.6831C36.6523 18.2704 36.1473 17.9658 35.5921 17.7964C34.9983 17.6248 34.7448 18.554 35.3373 18.7252C36.3622 19.0214 37.0572 20.0722 37.5248 21.0604C37.767 21.5814 37.9632 22.1227 38.111 22.6782C38.1801 22.9317 38.2404 23.1873 38.2907 23.4452C38.3138 23.5666 38.3344 23.6884 38.3524 23.8107C38.3586 23.837 38.3618 23.8639 38.362 23.891C38.3671 23.9423 38.3725 23.9937 38.3767 24.0453C38.3799 24.172 38.4314 24.2927 38.5206 24.3823C38.6098 24.472 38.7298 24.5237 38.8559 24.5269C38.9827 24.5261 39.1041 24.475 39.1938 24.3849C39.2834 24.2948 39.3342 24.1728 39.3351 24.0453L39.3337 24.0449Z" fill="#726A69"/>
<path d="M33.795 17.6877C33.5998 17.129 33.3919 16.5438 32.983 16.1023C32.801 15.9184 32.5942 15.7611 32.3687 15.6351C32.1277 15.4846 31.8707 15.362 31.6024 15.2694C31.4799 15.2365 31.3494 15.2533 31.2392 15.3162C31.1289 15.3792 31.0476 15.4832 31.013 15.6058C30.982 15.7288 30.9996 15.8592 31.0619 15.9696C31.1243 16.08 31.2266 16.1619 31.3476 16.1982C31.3686 16.205 31.3892 16.2119 31.4097 16.2195C31.4257 16.2253 31.5275 16.266 31.4445 16.2321C31.3614 16.1982 31.457 16.2387 31.4736 16.2466C31.4998 16.2588 31.5257 16.2713 31.5515 16.2841C31.6649 16.3405 31.7761 16.4019 31.8849 16.4669C31.9805 16.5241 32.075 16.5841 32.1644 16.6498C32.2341 16.7005 32.1682 16.6586 32.1399 16.6297C32.1562 16.6463 32.1768 16.66 32.1944 16.6756C32.2329 16.7098 32.2697 16.7459 32.3048 16.7836C32.3212 16.8013 32.3371 16.8193 32.3527 16.8376C32.3647 16.8519 32.4222 16.9251 32.3689 16.8557C32.3156 16.7862 32.3725 16.8621 32.3831 16.8771C32.4002 16.9016 32.4168 16.9263 32.4328 16.9516C32.4915 17.0443 32.5449 17.1404 32.5925 17.2394C32.6191 17.2936 32.6443 17.3483 32.6682 17.4035C32.6766 17.4236 32.6849 17.4421 32.6931 17.4613L32.6696 17.406C32.6856 17.4351 32.6981 17.4661 32.7067 17.4983C32.7648 17.6456 32.8183 17.7945 32.8704 17.944C32.8871 18.005 32.9157 18.0621 32.9543 18.112C32.993 18.1619 33.0411 18.2037 33.0958 18.2349C33.1506 18.2662 33.2109 18.2863 33.2734 18.2941C33.3358 18.3019 33.3992 18.2973 33.4599 18.2805C33.5206 18.2636 33.5774 18.235 33.6271 18.1961C33.6767 18.1572 33.7183 18.1089 33.7494 18.0539C33.7804 17.9989 33.8004 17.9382 33.8082 17.8754C33.816 17.8126 33.8114 17.7489 33.7946 17.6879L33.795 17.6877Z" fill="#726A69"/>
<path d="M31.4277 17.5602C30.7996 16.8416 29.9974 16.2983 29.0989 15.9832C28.7461 15.8626 28.382 15.7789 28.0121 15.7336C27.5992 15.6539 27.1776 15.6305 26.7585 15.6639C26.6326 15.6678 26.513 15.7198 26.4239 15.8093C26.3349 15.8988 26.2832 16.0191 26.2793 16.1456C26.28 16.2731 26.3308 16.3952 26.4205 16.4854C26.5102 16.5755 26.6316 16.6265 26.7585 16.6272C27.1016 16.5953 27.4475 16.6088 27.7871 16.6674C28.1352 16.7122 28.4782 16.7904 28.8116 16.9008C29.5649 17.1665 30.2341 17.6295 30.75 18.242C30.8405 18.3312 30.9621 18.3812 31.0888 18.3812C31.2156 18.3812 31.3372 18.3312 31.4277 18.242C31.5156 18.1504 31.5647 18.0281 31.5647 17.9008C31.5647 17.7736 31.5156 17.6512 31.4277 17.5596V17.5602Z" fill="#726A69"/>
<path d="M34.972 11.7148C33.6343 10.5588 31.8374 10.0571 30.099 10.0053C29.2346 9.97505 28.3705 10.0744 27.5352 10.3001C27.1387 10.4102 26.7531 10.5567 26.3834 10.738C26.3019 10.7782 26.2192 10.8183 26.1412 10.8649C26.0413 10.9241 26.2025 10.849 26.0825 10.8921C25.9214 10.9501 25.7596 11.0055 25.5961 11.0563C24.8374 11.2913 24.0687 11.4216 23.3484 11.7752C22.4529 12.2323 21.6502 12.8535 20.9816 13.6069C19.5976 15.1289 18.7375 17.0942 18.3386 19.1058C17.853 21.553 18.0854 24.064 18.7532 26.4532C18.9198 27.049 19.8446 26.796 19.6773 26.1971C19.124 24.2171 18.8659 22.1432 19.1394 20.0931C19.388 18.2293 20.0554 16.3186 21.2078 14.8236C21.7693 14.0824 22.4554 13.4455 23.2352 12.9418C23.5879 12.7134 23.966 12.5274 24.3618 12.3875C24.6827 12.2781 25.0157 12.2221 25.3419 12.1334C25.6624 12.0461 25.9834 11.9528 26.2949 11.837C26.581 11.7304 26.8396 11.5699 27.1213 11.4543C27.8374 11.1702 28.5957 11.0089 29.3648 10.9768C31.0619 10.8881 32.9735 11.2544 34.2944 12.3959C34.3858 12.4833 34.5071 12.5321 34.6332 12.5321C34.7594 12.5321 34.8807 12.4833 34.972 12.3959C35.0609 12.305 35.1107 12.1827 35.1107 12.0553C35.1107 11.9279 35.0609 11.8056 34.972 11.7148Z" fill="#726A69"/>
<path d="M36.0039 13.2465C39.4138 14.5538 40.4287 18.6125 40.5641 21.9219C40.6235 22.8826 40.5612 23.8469 40.3784 24.7917C40.2476 25.3962 41.1714 25.6547 41.3024 25.0478C41.7227 23.105 41.5687 21.0019 41.1784 19.0673C40.8058 17.2209 40.1066 15.3248 38.7825 13.9477C38.0709 13.2242 37.2091 12.6675 36.2586 12.3175C36.1361 12.2846 36.0056 12.3014 35.8953 12.3644C35.7851 12.4274 35.7039 12.5314 35.6693 12.6541C35.6383 12.7771 35.6558 12.9075 35.7182 13.0178C35.7805 13.1282 35.8829 13.2102 36.0039 13.2465Z" fill="#726A69"/>
<path d="M25.1769 18.1541C24.4819 18.2143 23.806 18.4142 23.1893 18.7419C22.6171 19.0779 22.1417 19.5578 21.8097 20.1343C21.1634 21.232 21.3363 22.5211 21.3159 23.7437C21.3158 24.0398 21.295 24.3356 21.2536 24.6289C21.231 24.7569 21.1986 24.8829 21.1566 25.0058C21.1257 25.0959 21.1462 25.0317 21.155 25.0128C21.14 25.0443 21.1239 25.075 21.1069 25.1055C21.0971 25.1232 21.0869 25.14 21.0753 25.1571C21.0085 25.2631 21.1352 25.0917 21.0544 25.181C20.6381 25.6372 21.3139 26.3201 21.732 25.8621C22.096 25.4634 22.1912 24.9261 22.2417 24.4051C22.2982 23.8109 22.2729 23.211 22.2725 22.6152C22.2417 22.1036 22.2872 21.5902 22.4075 21.0921C22.4136 21.0721 22.461 20.9444 22.4458 20.9806C22.4172 21.0474 22.4801 20.9123 22.4857 20.9003C22.5017 20.8682 22.5179 20.8363 22.5346 20.8044C22.614 20.6528 22.7027 20.5063 22.8002 20.3658C22.952 20.1495 23.1343 19.9563 23.3413 19.7925C23.8812 19.4054 24.5153 19.1723 25.1763 19.118C25.3022 19.1142 25.4219 19.0622 25.511 18.9727C25.6 18.8832 25.6517 18.7629 25.6555 18.6363C25.6548 18.5088 25.6041 18.3867 25.5144 18.2965C25.4247 18.2063 25.3032 18.1553 25.1763 18.1547L25.1769 18.1541Z" fill="#726A69"/>
<path d="M34.5024 37.5875C34.5329 37.9728 34.5822 38.3567 34.6421 38.7384C34.6771 39.0748 34.7388 39.4079 34.8266 39.7344C34.8604 39.8576 34.9415 39.9623 35.052 40.0254C35.1626 40.0885 35.2935 40.1048 35.4161 40.0709C35.5386 40.0369 35.6428 39.9554 35.7055 39.8443C35.7683 39.7332 35.7846 39.6015 35.7508 39.4784C35.6663 39.1644 35.6066 38.8443 35.5723 38.5209C35.559 38.4375 35.5463 38.3542 35.5342 38.2708C35.5288 38.2323 35.5224 38.1937 35.5182 38.1552C35.5318 38.2804 35.516 38.1351 35.5128 38.1096C35.4917 37.9357 35.4742 37.7618 35.4603 37.5879C35.4603 37.4601 35.4098 37.3376 35.32 37.2473C35.2301 37.1569 35.1082 37.1062 34.9811 37.1062C34.854 37.1062 34.7322 37.1569 34.6423 37.2473C34.5524 37.3376 34.502 37.4601 34.502 37.5879L34.5024 37.5875Z" fill="#726A69"/>
<path d="M40.0042 26.0924C40.3636 25.743 41.0225 25.7173 41.3401 26.1484C41.4872 26.4024 41.5659 26.6904 41.5687 26.9843C41.6021 27.3458 41.6004 27.7098 41.5637 28.071C41.497 28.7373 41.2946 29.3827 40.9691 29.9671C40.7471 30.358 40.3634 30.9481 39.8475 30.8419C39.725 30.8111 39.5955 30.8288 39.4858 30.8915C39.376 30.9541 39.2945 31.0568 39.2581 31.1783C39.2255 31.3014 39.2423 31.4325 39.3049 31.5433C39.3674 31.6541 39.4708 31.7357 39.5927 31.7707C39.7991 31.8224 40.0139 31.8313 40.2238 31.7966C40.4337 31.7619 40.6343 31.6844 40.8134 31.569C41.178 31.3103 41.4846 30.9778 41.7137 30.5928C42.2025 29.7726 42.4853 28.8449 42.5375 27.8902C42.5983 27.0091 42.5494 25.8632 41.8047 25.2686C41.4441 24.9877 40.9945 24.8475 40.5391 24.8737C40.0836 24.8999 39.653 25.0909 39.3266 25.4113C38.8823 25.8429 39.5604 26.5237 40.0042 26.0924Z" fill="#726A69"/>
<path d="M39.1313 30.1535C39.1378 30.8064 39.0261 31.455 38.8017 32.0677C38.7755 32.1415 38.7464 32.2144 38.7178 32.2872C38.6701 32.4088 38.7294 32.2641 38.6957 32.3406C38.6713 32.3956 38.6473 32.4508 38.6224 32.5056C38.5156 32.741 38.4002 32.9726 38.279 33.2007C37.6938 34.3536 36.9201 35.3993 35.9901 36.2944C35.494 36.7774 34.8967 37.1428 34.2419 37.3636C33.6527 37.5413 33.9037 38.4715 34.4967 38.2924C35.9276 37.8606 37.0283 36.7379 37.909 35.5729C38.6402 34.6198 39.2358 33.5689 39.6786 32.4506C39.9621 31.7188 40.1017 30.9387 40.0897 30.1535C40.0713 29.535 39.1127 29.5313 39.1313 30.1535Z" fill="#726A69"/>
<path d="M20.8491 26.2659C20.4836 26.0049 20.0373 25.8837 19.5907 25.9241C19.1441 25.9646 18.7265 26.1641 18.4133 26.4867C17.7545 27.1957 17.8703 28.3286 18.0408 29.2073C18.2171 30.1287 18.6106 30.9942 19.1882 31.7313C19.7397 32.4227 20.6209 33.0589 21.5406 32.7859C22.1307 32.6107 21.88 31.6807 21.2858 31.857C20.7339 32.0207 20.1707 31.4532 19.8658 31.0502C19.4627 30.5008 19.1753 29.8744 19.0213 29.2095C18.9406 28.8803 18.8937 28.5436 18.8815 28.2048C18.8713 27.905 18.848 27.5391 19.0127 27.2734C19.3122 26.7895 19.9455 26.7853 20.3648 27.0984C20.4747 27.162 20.6052 27.1795 20.7279 27.1472C20.8506 27.1149 20.9557 27.0353 21.0205 26.9256C21.0817 26.8146 21.098 26.6842 21.066 26.5614C21.0339 26.4387 20.9561 26.3331 20.8485 26.2666L20.8491 26.2659Z" fill="#726A69"/>
<path d="M20.8506 31.4852C21.6712 34.2415 23.5187 36.8169 26.0651 38.2005C26.7693 38.5924 27.5365 38.8569 28.3318 38.982C28.4542 39.0118 28.5833 38.9936 28.6928 38.9311C28.8023 38.8686 28.8839 38.7665 28.9212 38.6456C28.9541 38.5225 28.9374 38.3913 28.8748 38.2804C28.8121 38.1695 28.7086 38.0879 28.5866 38.0532C25.8712 37.6556 23.6638 35.3808 22.476 33.0116C22.1906 32.4394 21.9559 31.8429 21.7746 31.2291C21.5983 30.6367 20.6731 30.889 20.8506 31.4852Z" fill="#726A69"/>
<path d="M26.6713 39.7284C26.7396 39.4747 26.7892 39.2162 26.8198 38.9552C26.8711 38.6517 26.9183 38.3483 26.9578 38.043C26.9581 37.9797 26.946 37.9169 26.922 37.8583C26.898 37.7998 26.8626 37.7466 26.818 37.7019C26.7282 37.6115 26.6063 37.5608 26.4792 37.5608C26.3521 37.5608 26.2303 37.6115 26.1404 37.7019C26.0573 37.7968 26.0082 37.9168 26.0006 38.043C25.997 38.0717 25.9932 38.1004 25.9895 38.1291L26.0064 38.0011C25.9723 38.2541 25.9276 38.5054 25.8866 38.7577C25.8587 38.9992 25.812 39.2382 25.7469 39.4723C25.7141 39.5955 25.7308 39.7266 25.7934 39.8375C25.856 39.9483 25.9595 40.0299 26.0815 40.0648C26.204 40.0959 26.3336 40.0783 26.4435 40.0156C26.5534 39.953 26.6351 39.8501 26.6713 39.7284Z" fill="#726A69"/>
<path d="M42.5717 62.807C42.4526 62.9242 42.3254 63.0327 42.1909 63.1316C42.0901 63.2066 41.9809 63.2696 41.8657 63.3194C41.7658 63.3511 41.927 63.3302 41.8293 63.3224C41.7914 63.3231 41.7535 63.3188 41.7167 63.3096C41.1764 63.206 40.6741 62.9515 40.1223 62.9108C39.3835 62.8566 38.6308 63.0491 37.9071 63.1677C37.0774 63.2764 36.2346 63.1279 35.4912 62.742C35.3807 62.681 35.2511 62.6649 35.1291 62.6971C35.0071 62.7292 34.9021 62.8072 34.8355 62.9148C34.7725 63.0254 34.7551 63.1564 34.7873 63.2797C34.8194 63.403 34.8985 63.5086 35.0074 63.5739C35.6889 63.9192 36.4326 64.123 37.1941 64.1731C37.8693 64.2012 38.5318 64.0168 39.197 63.9245C39.655 63.837 40.127 63.8594 40.5747 63.9901C41.0263 64.135 41.573 64.362 42.0533 64.2628C42.5086 64.1687 42.9237 63.8057 43.2489 63.4882C43.6921 63.0555 43.0141 62.3746 42.5713 62.807H42.5717Z" fill="#726A69"/>
<path d="M33.8672 58.7359C35.2049 58.3612 36.5297 57.9239 37.8262 57.4262C38.4502 57.1678 39.0912 56.9528 39.7445 56.7828C40.0133 56.7146 40.2897 56.6814 40.5669 56.684C40.95 56.7116 41.3265 56.7984 41.6832 56.9413C42.1921 57.1205 42.6911 57.3272 43.196 57.5169C43.3186 57.5497 43.449 57.5328 43.5593 57.4699C43.6696 57.4069 43.7509 57.3029 43.7856 57.1803C43.8166 57.0572 43.7991 56.9268 43.7367 56.8164C43.6743 56.706 43.5719 56.6241 43.4508 56.5879C42.3068 56.1582 41.1805 55.5903 39.9264 55.7711C39.2445 55.8931 38.5778 56.0896 37.9382 56.3569C37.2892 56.6031 36.6393 56.8406 35.9816 57.0653C35.1979 57.3334 34.4093 57.5835 33.6117 57.8079C33.0185 57.974 33.2705 58.9038 33.8664 58.7369L33.8672 58.7359Z" fill="#726A69"/>
<path d="M12.6707 47.1288C11.6876 50.3958 11.2703 53.7788 11.0535 57.1757C10.9707 58.568 10.984 59.9644 11.0934 61.3548C11.1436 62.0372 11.2047 62.7192 11.2765 63.4009C11.3335 64.106 11.434 64.8069 11.5774 65.4995C11.9306 67.0207 12.7652 68.3968 14.0977 69.2345C14.8067 69.6762 15.6137 69.9343 16.4463 69.9857C17.166 70.0197 17.8872 69.9934 18.6026 69.907C21.374 69.6351 24.1145 69.0051 26.7969 68.27C29.4443 67.5662 32.0427 66.6876 34.575 65.6399C34.8446 65.526 35.1132 65.4092 35.3806 65.2895C35.4896 65.2244 35.5688 65.1188 35.601 64.9954C35.6331 64.8721 35.6157 64.741 35.5525 64.6305C35.4862 64.5225 35.3811 64.4443 35.2591 64.4122C35.137 64.38 35.0073 64.3963 34.8968 64.4577C32.5594 65.4756 30.1547 66.3297 27.7 67.0139C25.066 67.8092 22.3786 68.4128 19.6584 68.8201C19.0979 68.8981 18.5343 68.9585 17.9699 68.9981C17.1874 69.0529 16.376 69.0984 15.6139 68.8777C14.2207 68.4745 13.2124 67.3464 12.7262 66.0056C12.2838 64.7854 12.2241 63.4289 12.1137 62.1451C11.9757 60.8402 11.9211 59.5276 11.9504 58.2156C12.0871 54.9845 12.4353 51.7249 13.2549 48.5914C13.3605 48.1875 13.4736 47.7857 13.5944 47.386C13.7741 46.7914 12.8486 46.5371 12.6703 47.13L12.6707 47.1288Z" fill="#726A69"/>
<path d="M18.0846 60.7085C20.0269 60.4805 21.9626 60.1157 23.8809 59.7378C25.79 59.3619 27.687 58.8907 29.5787 58.4365C30.7042 58.1662 31.8331 57.8967 32.942 57.5623C33.5312 57.3845 33.2802 56.4545 32.6872 56.6333C30.5994 57.2629 28.4545 57.7208 26.3309 58.2053C24.6702 58.584 23.0136 58.9362 21.3359 59.2312C20.7369 59.3364 20.1373 59.4375 19.537 59.5347C19.0105 59.6188 18.5419 59.6914 18.0846 59.7452C17.9587 59.7489 17.839 59.8008 17.7499 59.8904C17.6608 59.9799 17.6091 60.1003 17.6055 60.2269C17.6063 60.3544 17.657 60.4764 17.7467 60.5666C17.8364 60.6567 17.9578 60.7077 18.0846 60.7085Z" fill="#726A69"/>
<path d="M32.9403 57.5623C33.0281 57.5463 32.7606 57.5667 32.8486 57.5055C32.862 57.5703 32.88 57.634 32.9023 57.6962C32.9372 57.8182 32.9731 57.94 33.0102 58.0614C33.1006 58.3605 33.195 58.6583 33.2911 58.9557C33.5137 59.6445 33.7449 60.3306 33.9761 61.0164C34.2085 61.7056 34.4421 62.3941 34.6695 63.0847C34.7693 63.3857 34.8662 63.6868 34.9606 63.9878C35.0181 64.1045 35.0565 64.2297 35.0746 64.3587C35.0722 64.3787 35.0822 64.3328 35.081 64.3354C35.058 64.3838 34.9412 64.4309 34.8957 64.457C34.3606 64.7651 34.8428 65.5977 35.3795 65.2889C35.7075 65.1 36.0138 64.8313 36.0354 64.4249C36.0193 64.1375 35.9533 63.8551 35.8403 63.5906C35.649 62.9864 35.4478 62.3865 35.2459 61.7844C34.829 60.5444 34.3996 59.3079 34.012 58.058C33.929 57.7899 33.8623 57.5142 33.7724 57.2484C33.7036 57.0257 33.5527 56.8378 33.3505 56.7233C33.1484 56.6087 32.9103 56.5762 32.6851 56.6323C32.5631 56.6672 32.4597 56.7488 32.3971 56.8597C32.3344 56.9705 32.3176 57.1016 32.3503 57.2248C32.3864 57.3465 32.4679 57.4494 32.5778 57.5121C32.6877 57.5748 32.8174 57.5925 32.9399 57.5613L32.9403 57.5623Z" fill="#726A69"/>
<path d="M28.469 67.9637C28.6428 68.039 28.8285 68.0824 29.0175 68.092C29.39 68.1436 29.7636 68.1865 30.1376 68.2271C31.1277 68.3344 32.1194 68.4277 33.1125 68.5136C35.3945 68.7127 37.6748 68.7946 39.9639 68.8839C41.7536 68.9823 43.5479 68.9605 45.3347 68.8189C46.7107 68.6874 48.211 68.5134 49.4297 67.802C50.7322 67.0414 51.4035 65.7287 51.5872 64.2614C51.6717 63.4376 51.6909 62.6082 51.6445 61.7813C51.6183 61.0093 51.5888 60.2374 51.5287 59.467C51.2502 56.0946 50.5863 52.7657 49.5501 49.5461C49.41 49.1046 49.2636 48.6651 49.1108 48.2276C49.0745 48.1061 48.9929 48.0033 48.8832 47.9406C48.7734 47.878 48.6439 47.8602 48.5214 47.891C48.3995 47.926 48.2961 48.0077 48.2335 48.1185C48.1709 48.2294 48.1541 48.3605 48.1868 48.4836C49.2996 51.6255 50.0588 54.8828 50.4499 58.1946C50.6201 59.7206 50.706 61.2548 50.7073 62.7904C50.7085 64.1621 50.5719 65.6024 49.4962 66.5746C48.5901 67.393 47.272 67.6111 46.1072 67.7675C44.404 67.968 42.6875 68.0304 40.9744 67.9543C38.6116 67.8879 36.2445 67.8098 33.8881 67.6153C32.8858 67.5327 31.8842 67.4411 30.8833 67.3406C30.4754 67.2995 30.0675 67.2567 29.6604 67.2094C29.5076 67.1916 29.355 67.1727 29.2028 67.1528C29.3455 67.1712 29.1864 67.1504 29.1331 67.1423C29.0858 67.1353 29.038 67.1283 28.9909 67.1196C28.8871 67.0996 28.8064 67.0508 28.9536 67.1311C28.4115 66.8355 27.9272 67.6669 28.47 67.9629L28.469 67.9637Z" fill="#726A69"/>
<path d="M20.3873 53.0137C20.3073 52.9921 20.2223 52.9992 20.1469 53.0338C20.0715 53.0683 20.0104 53.1281 19.974 53.203L19.7129 53.5879C20.939 54.6949 22.0965 55.8764 23.1789 57.1256L23.8636 56.4746C22.9114 55.3598 21.8983 54.2992 20.8288 53.2977C20.7128 53.1699 20.5669 53.0733 20.4043 53.0167L20.3873 53.0137Z" fill="#726A69"/>
<path d="M23.5169 56.7849C22.8448 56.0398 22.1718 55.2946 21.465 54.5822C21.1284 54.2426 20.7837 53.9114 20.4311 53.5886C20.0816 53.2295 19.6805 52.9251 19.2412 52.6854C19.0321 52.5736 18.8028 52.5048 18.5669 52.4832C18.331 52.4616 18.0931 52.4876 17.8673 52.5596C17.6422 52.6383 17.4458 52.7833 17.3036 52.9756C17.1615 53.168 17.0802 53.3989 17.0703 53.6383C17.0807 54.1316 17.4097 54.5511 17.7444 54.8792C18.0692 55.1981 18.3918 55.5158 18.7097 55.8425C19.4987 56.6523 20.31 57.4402 21.078 58.2708C21.4989 58.726 22.1762 58.0435 21.7557 57.5897C21.1567 56.9415 20.5304 56.3179 19.9088 55.691C19.6277 55.4076 19.3468 55.1238 19.0719 54.8342C18.797 54.5446 18.4811 54.2948 18.2241 53.9913C18.117 53.8855 18.0462 53.7482 18.0221 53.5992C18.0221 53.6243 18.0043 53.6542 18.0293 53.611C18.0621 53.5529 18.1095 53.5044 18.1668 53.4705C18.4372 53.3311 18.7993 53.5229 19.0254 53.663C19.3538 53.8921 19.6598 54.1521 19.9392 54.4395C20.2376 54.7171 20.53 55.0009 20.8165 55.291C21.5129 55.9946 22.177 56.7299 22.84 57.4651C23.2551 57.9254 23.9311 57.2425 23.5177 56.7839L23.5169 56.7849Z" fill="#726A69"/>
<path d="M18.0413 53.9683C17.7772 53.8995 17.4993 53.9061 17.2387 53.9873C16.9781 54.0685 16.7453 54.2212 16.5662 54.4281C16.1016 54.993 16.2867 55.6834 16.6946 56.2142C17.0954 56.691 17.5229 57.1444 17.975 57.5723C18.4207 58.0319 18.8705 58.4874 19.3459 58.9169C19.437 59.0047 19.5584 59.0537 19.6847 59.0537C19.8109 59.0537 19.9323 59.0047 20.0235 58.9169C20.1122 58.826 20.1619 58.7037 20.1619 58.5763C20.1619 58.449 20.1122 58.3267 20.0235 58.2358C19.2762 57.5616 18.5944 56.8203 17.8872 56.105C17.7285 55.9546 17.58 55.7937 17.4427 55.6234C17.3529 55.5042 17.2177 55.3312 17.2413 55.1706C17.2598 55.0444 17.3381 54.9946 17.4379 54.9439C17.5441 54.8847 17.6686 54.8679 17.7865 54.8967C18.3793 55.0721 18.6327 54.1427 18.0413 53.9677V53.9683Z" fill="#726A69"/>
<path d="M17.6444 56.4312C17.425 56.4295 17.2087 56.4835 17.0154 56.588C16.8222 56.6926 16.6583 56.8444 16.5389 57.0295C16.4319 57.2241 16.3775 57.4434 16.381 57.6657C16.3845 57.888 16.4458 58.1055 16.5589 58.2966C16.7932 58.6773 17.0628 59.0347 17.3641 59.3643L18.2262 60.4456C18.3164 60.5352 18.4382 60.5855 18.565 60.5855C18.6919 60.5855 18.8136 60.5352 18.9039 60.4456C18.9911 60.3539 19.0397 60.2319 19.0397 60.105C19.0397 59.9782 18.9911 59.8562 18.9039 59.7645C18.4558 59.2025 17.9974 58.6472 17.5592 58.0775C17.4933 57.9889 17.4327 57.8966 17.3777 57.8009C17.3651 57.7722 17.329 57.6129 17.3393 57.7006C17.3357 57.6703 17.3363 57.6404 17.3353 57.6099C17.3316 57.4854 17.3198 57.6464 17.3375 57.5824C17.3399 57.5737 17.3667 57.4885 17.3497 57.536C17.3327 57.5836 17.3932 57.4959 17.3559 57.53C17.3186 57.5641 17.4981 57.4118 17.4158 57.4722C17.4396 57.4549 17.4651 57.4407 17.4895 57.4242C17.5204 57.4042 17.5416 57.4001 17.4949 57.4168C17.4949 57.4168 17.6147 57.3855 17.5638 57.3937C17.5128 57.402 17.6436 57.3937 17.6448 57.3937C17.7716 57.3926 17.8928 57.3415 17.9824 57.2514C18.0721 57.1613 18.1229 57.0395 18.124 56.9121C18.1215 56.7851 18.0703 56.664 17.9809 56.5742C17.8916 56.4844 17.7711 56.4329 17.6448 56.4304L17.6444 56.4312Z" fill="#726A69"/>
<path d="M20.386 53.4459C20.3399 53.5382 20.1993 53.4196 20.3679 53.5316C20.4823 53.6208 20.5891 53.7193 20.6873 53.8262C20.9301 54.0569 21.1697 54.2905 21.4061 54.527C21.8798 55.0004 22.3413 55.4857 22.7907 55.9828C23.6825 56.9689 24.5232 58.0005 25.3094 59.0735C25.3761 59.1809 25.4812 59.2587 25.6031 59.2908C25.725 59.3229 25.8545 59.307 25.9651 59.2462C26.0741 59.1811 26.1532 59.0754 26.1854 58.9521C26.2175 58.8288 26.2001 58.6977 26.137 58.5872C25.1964 57.2988 24.1817 56.0668 23.098 54.8975C22.5592 54.3178 22.0033 53.7545 21.4302 53.2077C21.1665 52.956 20.8942 52.6488 20.5288 52.5529C20.345 52.5014 20.1493 52.5135 19.9732 52.5873C19.7972 52.6611 19.6508 52.7922 19.5578 52.9597C19.2811 53.5117 20.1075 54.0002 20.3852 53.4457L20.386 53.4459Z" fill="#726A69"/>
<path d="M45.2236 44.3481C44.9263 45.181 44.6773 46.0306 44.4778 46.8925C44.29 47.6573 44.1105 48.4291 43.9925 49.2084C43.8659 50.0433 43.7928 50.888 43.706 51.7275C43.4163 54.5098 43.1429 57.2942 42.8235 60.0729C42.7835 60.4189 42.7425 60.7648 42.7003 61.1107C42.6821 61.2592 42.6635 61.4078 42.6446 61.5564C42.6354 61.6295 42.6259 61.7025 42.6162 61.7754C42.613 61.8011 42.6096 61.8268 42.6062 61.8524C42.5911 61.9674 42.6174 61.7706 42.6035 61.8739C42.5491 62.2753 42.4976 62.6767 42.4128 63.0728C42.2834 63.6773 43.207 63.9358 43.337 63.3289C43.5251 62.4513 43.6079 61.545 43.7137 60.6549C43.8783 59.2702 44.0258 57.8842 44.1714 56.4978C44.4135 54.1883 44.6196 51.8732 44.9017 49.568C44.9191 49.4264 44.8847 49.6774 44.9005 49.5761C44.9085 49.5243 44.9153 49.4723 44.9235 49.4207C44.9526 49.2339 44.9866 49.0479 45.0233 48.8624C45.1112 48.4069 45.211 47.9537 45.3176 47.5024C45.5343 46.5197 45.8118 45.5517 46.1486 44.6038C46.1813 44.4806 46.1646 44.3495 46.102 44.2386C46.0394 44.1277 45.9359 44.046 45.8139 44.0112C45.6915 43.98 45.5618 43.9976 45.4519 44.0603C45.3421 44.123 45.2606 44.226 45.2246 44.3477L45.2236 44.3481Z" fill="#726A69"/>
<path d="M18.4207 52.963C18.2311 52.0388 17.9797 51.1305 17.7219 50.2234C17.5636 49.6191 17.3732 49.0237 17.1515 48.4399C16.6265 47.1362 16.0045 45.8742 15.2907 44.6645C14.9761 44.1317 14.1473 44.6157 14.4631 45.1506C15.1512 46.3052 15.7495 47.5115 16.2527 48.7588C16.4713 49.3452 16.6598 49.9426 16.8173 50.5485C17.0683 51.4316 17.3112 52.3184 17.4961 53.2191C17.6207 53.8258 18.5447 53.5691 18.4203 52.963H18.4207Z" fill="#726A69"/>
<path d="M13.5967 47.385C13.8664 46.5528 14.2943 45.7811 14.8567 45.1128C15.4357 44.465 16.1585 44.0402 16.923 43.6478C18.7292 42.733 20.6059 41.966 22.5348 41.3543C23.0607 41.1845 23.5967 41.0533 24.132 40.9142C24.7286 40.7585 24.4756 39.8291 23.8773 39.9854C22.3906 40.3754 20.9301 40.8602 19.5048 41.437C18.5119 41.8372 17.5281 42.2653 16.5722 42.7487C15.7434 43.168 14.9394 43.6303 14.2923 44.3105C13.5611 45.125 13.0092 46.0854 12.6725 47.129C12.6399 47.2521 12.6567 47.3831 12.7193 47.4939C12.7819 47.6047 12.8852 47.6864 13.0071 47.7214C13.1296 47.7528 13.2594 47.7353 13.3693 47.6726C13.4792 47.6099 13.5607 47.5068 13.5967 47.385Z" fill="#726A69"/>
<path d="M37.57 41.2227C38.8859 41.6215 40.1729 42.1106 41.4222 42.6865C42.4367 43.1324 43.4372 43.6131 44.4065 44.1515C45.2962 44.646 46.207 45.1349 46.8361 45.9577C47.1458 46.3746 47.418 46.8182 47.6495 47.2835C47.8442 47.6586 48.0163 48.0453 48.1647 48.4412C48.2014 48.5625 48.2829 48.665 48.3926 48.7276C48.5023 48.7902 48.6316 48.8081 48.754 48.7776C48.8761 48.7429 48.9796 48.6612 49.0423 48.5504C49.1049 48.4395 49.1217 48.3083 49.0889 48.1852C48.7809 47.3372 48.3749 46.5286 47.8791 45.7759C47.6006 45.3435 47.2677 44.949 46.8886 44.6023C46.4469 44.2429 45.9733 43.9251 45.4737 43.6528C43.5921 42.5813 41.6294 41.6606 39.6037 40.8993C39.0132 40.6667 38.4353 40.4659 37.8252 40.2929C37.2306 40.1241 36.9768 41.0533 37.5704 41.2216L37.57 41.2227Z" fill="#726A69"/>
<path d="M34.7461 45.9832C36.1555 44.5472 37.122 42.779 38.1481 41.0663C38.1908 40.9925 38.2133 40.9086 38.2133 40.8232C38.2133 40.7377 38.1908 40.6539 38.1481 40.58C37.7036 39.7915 37.1289 39.0846 36.4486 38.4898C36.3574 38.402 36.236 38.353 36.1098 38.353C35.9835 38.353 35.8621 38.402 35.7709 38.4898C34.5533 39.7314 33.1302 40.7507 31.5652 41.5022C31.2948 41.6052 31.0452 41.7563 30.8282 41.9483C30.7425 42.034 30.6903 42.1479 30.6811 42.2691C30.672 42.3902 30.7066 42.5107 30.7785 42.6084C30.8419 42.6813 30.9206 42.7392 31.009 42.7778C31.0973 42.8164 31.1931 42.8348 31.2894 42.8316C31.3126 42.836 31.3361 42.838 31.3597 42.8374C31.3178 42.8914 31.1638 42.6521 31.1273 42.6652C31.1273 42.6652 31.2183 42.7892 31.2165 42.7868C31.3034 42.9006 31.3946 43.0108 31.4877 43.1195C31.7584 43.4362 32.0379 43.7455 32.3171 44.0548C32.8993 44.6992 33.4893 45.3366 34.0685 45.9838C34.4819 46.4454 35.158 45.763 34.7461 45.3026C34.1308 44.6151 33.5034 43.938 32.8861 43.253C32.5866 42.9195 32.2845 42.5855 31.9986 42.2391C31.9165 42.1388 32.0146 42.267 31.9547 42.1789C31.9023 42.0916 31.8293 42.0187 31.742 41.9666C31.6373 41.9144 31.523 41.8846 31.4062 41.8789C31.3751 41.8755 31.3433 41.8747 31.3124 41.8703C31.169 41.8502 31.3813 41.8947 31.2942 41.864L31.5057 41.9879L31.4935 41.976L31.6169 42.4446L31.6197 42.4286L31.4963 42.6411C31.5398 42.5873 31.445 42.6511 31.5065 42.6234C31.5464 42.6052 31.5899 42.5701 31.6286 42.5476C31.7021 42.505 31.7778 42.4657 31.8541 42.4272C32.0441 42.3322 32.2368 42.2431 32.4255 42.1452C32.9155 41.8905 33.3916 41.6097 33.8518 41.3039C34.7897 40.6867 35.6601 39.9717 36.4486 39.1708H35.7709C36.3917 39.7086 36.9159 40.3496 37.3207 41.0659V40.5796C36.3358 42.2225 35.4197 43.9255 34.0685 45.3022C33.635 45.7436 34.3122 46.4259 34.7461 45.9832Z" fill="#726A69"/>
<path d="M27.4395 45.3022C26.0883 43.9255 25.1722 42.2224 24.1873 40.5796V41.0658C24.5921 40.3496 25.1163 39.7086 25.7371 39.1707H25.0594C25.8479 39.9716 26.7183 40.6867 27.6562 41.3038C28.1046 41.6017 28.5681 41.8761 29.0448 42.1257C29.2389 42.226 29.4367 42.3199 29.633 42.4167C29.7164 42.4578 29.7991 42.5006 29.8796 42.5471C29.9131 42.5672 29.948 42.5859 29.9794 42.6073C30.1026 42.694 29.952 42.5672 30.0113 42.6398L29.8879 42.4273L29.8907 42.4434L30.0141 41.9748L30.0019 41.9866L30.2134 41.8628C30.1405 41.8885 30.2932 41.8557 30.2182 41.867C30.1872 41.8716 30.1557 41.872 30.1247 41.8752C30.0053 41.88 29.888 41.9085 29.7795 41.9591C29.6896 42.0097 29.6134 42.0819 29.5579 42.1692C29.5483 42.1827 29.5401 42.1971 29.5306 42.2106C29.5086 42.2415 29.5833 42.1461 29.5244 42.219C29.2369 42.5744 28.9274 42.9124 28.6215 43.2517C28.0042 43.9373 27.3768 44.6138 26.7615 45.3014C26.3498 45.7612 27.0255 46.4453 27.4391 45.9825C27.9445 45.418 28.4574 44.8613 28.9673 44.2999C29.256 43.9816 29.5445 43.663 29.828 43.3396C30.0389 43.1436 30.2224 42.9197 30.3735 42.6742C30.4224 42.5636 30.2349 42.8748 30.1669 42.8333C30.1431 42.8193 30.1669 42.8293 30.1952 42.8333C30.2792 42.8362 30.3631 42.8254 30.4436 42.8012C30.5624 42.7716 30.6663 42.6996 30.7362 42.5986C30.806 42.4976 30.8368 42.3745 30.8229 42.2523C30.783 41.9091 30.412 41.7329 30.1367 41.5957C29.4091 41.243 28.7051 40.843 28.0293 40.3981C27.2029 39.8417 26.4349 39.2021 25.7373 38.4894C25.6459 38.4019 25.5246 38.353 25.3984 38.353C25.2723 38.353 25.1509 38.4019 25.0596 38.4894C24.3793 39.0842 23.8046 39.791 23.3601 40.5796C23.3174 40.6534 23.2949 40.7373 23.2949 40.8227C23.2949 40.9081 23.3174 40.992 23.3601 41.0658C24.3872 42.7791 25.3527 44.5474 26.7621 45.9827C27.1958 46.426 27.8732 45.7437 27.4395 45.3022Z" fill="#726A69"/>
<path d="M30.1945 34.1822C30.2258 34.1445 30.2591 34.1086 30.2943 34.0746C30.3103 34.0592 30.4375 33.9598 30.347 34.0247C30.4265 33.9674 30.51 33.9159 30.5968 33.8707C30.613 33.8625 30.7725 33.7939 30.6837 33.8282C30.7402 33.8065 30.7971 33.7862 30.855 33.768C30.9129 33.7497 30.9734 33.7345 31.0335 33.7214C31.0635 33.7147 31.0939 33.7087 31.1245 33.7033C31.1764 33.6951 31.1858 33.6935 31.1531 33.6983C31.1203 33.7031 31.1297 33.7019 31.182 33.6959C31.2158 33.6929 31.2497 33.6905 31.2834 33.6883C31.3512 33.6843 31.419 33.6821 31.4869 33.6817C31.6118 33.681 31.7366 33.6868 31.8608 33.6991C31.8852 33.7013 31.9094 33.704 31.9335 33.707C31.8858 33.7005 31.8906 33.7015 31.9483 33.7104C32.006 33.7192 32.0695 33.7324 32.1296 33.7467C32.1897 33.7609 32.2434 33.7754 32.2995 33.7931C32.3195 33.7993 32.485 33.8619 32.3778 33.8163C32.4883 33.8772 32.6178 33.8932 32.7397 33.8611C32.8616 33.829 32.9667 33.7511 33.0332 33.6435C33.1417 33.4374 33.1079 33.0892 32.8613 32.9845C32.281 32.7436 31.6471 32.6633 31.0255 32.7517C30.4493 32.8102 29.9137 33.0761 29.5173 33.5005C29.4728 33.5452 29.4375 33.5983 29.4134 33.6567C29.3893 33.7152 29.3769 33.7778 29.377 33.8411C29.377 33.9044 29.3894 33.967 29.4135 34.0254C29.4376 34.0839 29.4729 34.137 29.5174 34.1817C29.5619 34.2264 29.6147 34.2619 29.6729 34.2861C29.731 34.3103 29.7933 34.3227 29.8563 34.3227C29.9192 34.3227 29.9815 34.3103 30.0396 34.286C30.0978 34.2618 30.1506 34.2263 30.1951 34.1816L30.1945 34.1822Z" fill="#726A69"/>
<path d="M30.8632 29.4149C30.9145 29.5702 30.963 29.727 31.0084 29.8841C31.0624 30.0475 31.1044 30.2147 31.134 30.3842L31.1168 30.2562C31.1205 30.2889 31.1205 30.322 31.1168 30.3547L31.134 30.2267C31.1314 30.2418 31.1276 30.2566 31.1226 30.271L31.1709 30.1558C31.1651 30.1694 31.158 30.1823 31.1495 30.1944L31.2244 30.097C31.2185 30.1049 31.2118 30.1121 31.2044 30.1185L31.3013 30.0433C31.2676 30.0676 31.2315 30.0882 31.1934 30.1047L31.3079 30.0563C31.2708 30.0715 31.2322 30.0822 31.1927 30.0882L31.32 30.071C31.2476 30.0734 31.1751 30.0693 31.1034 30.0589C31.0085 30.0587 30.9156 30.0868 30.8366 30.1397C30.7576 30.1926 30.696 30.2679 30.6596 30.3561C30.6232 30.4442 30.6137 30.5413 30.6323 30.6349C30.6509 30.7284 30.6967 30.8144 30.764 30.8817C30.8568 30.9678 30.9772 31.0176 31.1034 31.0222C31.163 31.0305 31.223 31.0354 31.2831 31.0371C31.4412 31.0319 31.5956 30.9878 31.7327 30.9086C31.8142 30.8652 31.8854 30.8047 31.9416 30.7312C31.9978 30.6577 32.0377 30.573 32.0586 30.4828C32.086 30.3317 32.0792 30.1764 32.0386 30.0284C31.9683 29.735 31.8821 29.4452 31.7872 29.1588C31.7516 29.0391 31.6735 28.9366 31.5676 28.871C31.4853 28.8227 31.3906 28.8001 31.2955 28.8061C31.2004 28.8122 31.1092 28.8466 31.0337 28.905C30.9581 28.9634 30.9016 29.0431 30.8714 29.1339C30.8411 29.2247 30.8385 29.3226 30.8638 29.4149H30.8632Z" fill="#726A69"/>
<path d="M25.8424 26.8342C25.7226 27.3082 25.8917 28.3706 26.8267 28.4027C28.054 28.318 28.0335 27.0218 27.5798 26.4404C27.2085 25.9644 26.1996 25.8207 25.8424 26.8342Z" fill="#726A69"/>
<path d="M35.639 26.2003C35.8187 26.6534 35.7871 27.7255 34.8641 27.8788C33.6362 27.9541 33.4903 26.6701 33.8658 26.0365C34.1729 25.5179 35.1548 25.245 35.639 26.2003Z" fill="#726A69"/>
<path d="M25.9007 24.1619C25.8383 24.2256 25.7716 24.2848 25.701 24.3392L25.7981 24.2637C25.623 24.4028 25.4311 24.5188 25.2268 24.6091L25.3413 24.5605C25.296 24.5799 25.2492 24.5958 25.2015 24.6079C25.1408 24.6247 25.084 24.6533 25.0344 24.6922C24.9847 24.7311 24.9432 24.7794 24.9121 24.8344C24.881 24.8894 24.861 24.9501 24.8533 25.0128C24.8455 25.0756 24.8501 25.1393 24.8669 25.2003C24.9005 25.3211 24.9791 25.4242 25.0865 25.4881C25.1991 25.5504 25.3309 25.5677 25.4557 25.5367C25.5673 25.5057 25.6755 25.4633 25.7785 25.41C25.8666 25.3676 25.9521 25.32 26.0347 25.2675C26.2321 25.1483 26.4148 25.0058 26.5787 24.8431C26.6669 24.7514 26.7168 24.6294 26.7185 24.5019C26.7179 24.3742 26.6677 24.2518 26.5787 24.1607C26.4885 24.0708 26.3665 24.0203 26.2393 24.0203C26.1124 24.0215 25.9909 24.0718 25.8999 24.1607L25.9007 24.1619Z" fill="#726A69"/>
<path d="M27.7246 33.7429V34.3375C27.7259 34.4651 27.776 34.5872 27.8644 34.6787C27.9575 34.7643 28.0777 34.8141 28.2038 34.8192C28.3309 34.8188 28.4527 34.7684 28.5432 34.6787C28.6313 34.587 28.6813 34.465 28.683 34.3375V33.7429C28.6817 33.6153 28.6316 33.4932 28.5432 33.4017C28.4501 33.3161 28.3299 33.2663 28.2038 33.2612C28.0767 33.2615 27.9548 33.312 27.8644 33.4017C27.7764 33.4935 27.7264 33.6154 27.7246 33.7429Z" fill="#726A69"/>
</g>
</svg>
