<?xml version="1.0" encoding="UTF-8"?><svg id="_レイヤー_2" xmlns="http://www.w3.org/2000/svg" viewBox="0 0 320.483 115.216"><defs><style>.cls-1{fill:#e5005a;}.cls-1,.cls-2{stroke-width:0px;}.cls-2{fill:#fdd000;}</style></defs><g id="_レイヤー_1-2"><path class="cls-2" d="M304.53,41.602c.157-4.159-3.142-7.318-7.009-7.318s-7.107,3.112-7.029,7.318c0,3.994,3.142,11.659,7.029,11.659s6.852-7.721,7.009-11.659"/><path class="cls-2" d="M292.398,56.408c1.196-3.685-5.223-8.919-8.913-10.278-3.907-1.428-7.932.725-9.13,4.419-1.198,3.687.765,7.704,4.791,8.934,3.788,1.235,12.054.615,13.252-3.075"/><path class="cls-2" d="M293.83,62.237c-3.14-2.268-10.111,2.215-12.525,5.313-2.573,3.271-1.768,7.765,1.375,10.042,3.121,2.283,7.558,1.653,9.973-1.792,2.335-3.229,4.298-11.275,1.177-13.563"/><path class="cls-2" d="M299.799,62.693c-3.121,2.281-1.02,10.284,1.177,13.559,2.318,3.455,6.852,4.07,9.995,1.797,3.121-2.276,3.905-6.685,1.373-10.048-2.354-3.227-9.404-7.587-12.545-5.307"/><path class="cls-2" d="M320.139,51.283c-1.198-3.692-5.144-5.792-9.13-4.417-3.788,1.235-10.111,6.59-8.913,10.274,1.198,3.687,9.463,4.153,13.252,3.075,3.986-1.135,5.987-5.251,4.791-8.933"/><path class="cls-1" d="M110.716,81.748c.339.207.861.47,1.298.642,1.334.537,2.623.054,3.187-1.039.974-1.862,4.785-9.389,8.969-17.723.357-.5.909-.968,1.883-1.031,1.066-.017,2.22,0,3.045.059,1.963.153,2.581,1.354,2.895,2.644.268,1.143.1,4.855.119,6.428.073,6.906,4.532,10.211,9.521,10.468.663.035,2.4.029,2.945,0,5.506-.257,9.061-3.175,9.582-8.783.123-1.396.1-7.602.077-8.411-.042-1.2-.863-2.161-2.347-2.347-.43-.042-.97-.036-1.407,0-1.373.138-2.232,1.091-2.255,2.347-.016,1.331-.038,5.251-.088,6.363-.05,1.12-.111,2.266-.694,3.2-.475.767-1.718,1.48-2.634,1.534-.92.05-1.756.073-2.834,0-1.081-.071-1.982-.376-2.803-1.329-.529-.6-.909-2.318-.87-3.823.042-1.505.061-4.461.061-5.857,0-1.864-.295-3.827-2.086-5.947-1.703-2.013-4.39-2.581-5.633-2.634-.253-.01-.721-.048-1.177-.081-.449-.027-1.446-.692-.893-1.622.51-.857,8.175-16.325,8.693-17.48.491-1.091.161-2.333-1.127-3.169-.376-.236-.871-.477-1.3-.633-1.319-.504-2.619-.084-3.194,1.039-2.304,4.494-19.935,39.503-22.063,44.016-.537,1.139-.119,2.443,1.133,3.167"/><path class="cls-1" d="M1.704,69.641c1.653,3.652,4.605,7.234,7.654,10.234,1.353,1.329,2.5,2.021,3.566,1.703,1.116-.322,2.044-1.24,2.611-2.322.567-1.085,0-1.971-1.292-3.365-1.611-1.741-4.962-4.958-6.254-7.596-.713-1.453-1.411-3.877-1.411-5.938,0-7.18.038-21.791-.038-26.007-.019-1.26-.943-2.243-2.343-2.349-.383-.025-1.185-.036-1.645,0-1.4.105-2.312,1.116-2.343,2.349-.1,4.128-.103,18.868-.046,25.281.015,1.497.357,5.38,1.541,8.01"/><path class="cls-1" d="M32.257,74.754c-.36.539-1.192,1.346-2.642,1.346s-2.209-.301-2.887-1.141c-.702-.853-.832-3.823-.368-5.378.472-1.551,1.825-1.973,2.899-2.142.487-.075,1.492-.103,2.351.082.721.152,1.085.462,1.215,1.547.196,1.662.257,4.442-.568,5.685M45.16,61.297c-.767-.004-2.389-.011-4.321-.015-1.147-.017-1.729-.491-1.752-2.262.008-1.026.019-2.176.023-3.392.038-1.676.579-2.155,1.653-2.184.491-.01.928-.019,1.296-.036,1.196-.037,2.163-.857,2.343-2.341.054-.431.046-.974,0-1.413-.127-1.375-1.085-2.324-2.343-2.343-.422-.013-.824-.013-1.238-.017-1.058-.023-1.622-.443-1.71-1.931-.004-1.127-.015-2.157-.023-3.027.031-1.653.571-2.145,1.607-2.195.564-.015,1.035-.025,1.365-.031,1.196-.048,2.163-.863,2.343-2.348.054-.433.046-.972,0-1.411-.127-1.378-1.085-2.326-2.343-2.349-5.046-.084-15.541-.084-20.537,0-1.254.023-2.239.953-2.347,2.349-.023.389-.027.949,0,1.411.107,1.409,1.12,2.318,2.347,2.348,2.22.046,5.94.073,9.644.075,1.024.059,1.687.608,1.748,2.207-.004.746-.011,1.559-.015,2.404h-.011c0,1.877-.71,2.45-1.887,2.458v.004c-1.181.011-2.374.033-3.585.054-1.258.019-2.243.943-2.347,2.343-.031.383-.034.951,0,1.413.104,1.403,1.116,2.314,2.347,2.341.675.021,2.489.054,3.831.132,1.311.063,1.584,1.064,1.645,2.197.058,1.143.015,2.222.023,3.198-.015,1.82-.805,2.318-1.913,2.395-.341.027-1.181.027-1.561.042-5.307.198-9.517,3.719-9.517,10.357s4.256,10.468,9.517,10.468c5.222,0,8.823-3.253,9.575-8.783.111-.748.134-2.245.134-3.857.031-1.783.537-2.069,1.63-2.099,1.982-.01,3.581-.031,4.383-.058,1.196-.036,2.163-.869,2.343-2.345.054-.433.042-.972,0-1.407-.127-1.377-1.089-2.322-2.343-2.351Z"/><path class="cls-1" d="M61.867,69.641c1.653,3.652,4.605,7.234,7.653,10.234,1.357,1.329,2.496,2.021,3.562,1.703,1.123-.322,2.047-1.24,2.615-2.322.571-1.085,0-1.971-1.296-3.365-1.61-1.741-4.958-4.958-6.246-7.596-.717-1.453-1.419-3.877-1.419-5.938,0-7.18.039-21.791-.034-26.007-.019-1.26-.947-2.243-2.343-2.349-.383-.025-1.185-.036-1.641,0-1.407.105-2.32,1.116-2.343,2.349-.103,4.128-.107,18.868-.05,25.281.019,1.497.357,5.38,1.542,8.01"/><path class="cls-1" d="M104.851,38.009c-.84-.017-2.619-.033-3.861-.036-.84-.084-1.319-.529-1.415-1.787-.012-.688-.015-1.267-.027-1.701-.034-1.229-.939-2.237-2.347-2.343-.453-.033-1.258-.033-1.641,0-1.396.106-2.32,1.083-2.351,2.343-.004.385-.008.869-.011,1.426-.096,1.451-.725,1.977-1.71,2.028-4.463,0-8.816.025-11.181.069-1.261.017-2.247.945-2.347,2.339-.027.385-.031.955,0,1.411.1,1.407,1.112,2.314,2.347,2.341,2.232.056,6.66.088,11.128.088,1.062.063,1.752,1.045,1.737,2.446-.023,1.386.008,12.466.008,16.264,0,2.061-.698,4.479-1.411,5.934-1.296,2.634-4.636,5.849-6.258,7.604-1.292,1.392-1.86,2.27-1.292,3.359.571,1.079,1.496,1.998,2.611,2.324,1.066.309,2.213-.37,3.562-1.708,3.056-2.991,6.012-6.582,7.654-10.228,1.192-2.644,1.53-6.507,1.545-8.008.031-3.397.038-14.362.038-15.681,0-1.308.479-2.253,1.461-2.341,1.407-.013,3.202-.025,3.762-.052,1.196-.037,2.159-.861,2.343-2.341.058-.428.046-.97,0-1.411-.13-1.367-1.081-2.322-2.343-2.339"/><path class="cls-1" d="M206.035,33.954c-5.046-.094-35.427-.094-40.423,0-1.254.015-2.239.947-2.343,2.345q-.027.385,0,.84c.103,1.409,1.116,2.32,2.343,2.349,1.258.031,6.697.058,7.826.065,1.124.006.882,1.405.38,2.021-.498.6-3.624,4.327-4.736,6.783-1.191,2.642-1.499,6.505-1.542,8.008-.065,2.245-.188,8.808-.046,15.712.142,6.898,4.536,10.202,9.517,10.466,3.861.198,17.999.014,18.727,0,5.506-.148,8.942-3.188,9.578-8.792.315-2.786.215-13.9.061-17.278-.23-5.502-3.167-9.065-8.777-9.582-1.396-.132-10.671-.1-11.477-.071-1.192.031-2.159.855-2.339,2.337-.058.435-.038.97,0,1.409.126,1.375,1.085,2.32,2.339,2.353,1.334.021,8.501-.059,9.613-.004,1.12.052,2.255.121,3.206.69.552.332,1.35,1.189,1.35,2.636,0,0,0,.755.004,1.923-.004,1.877-.713,2.45-1.894,2.463v.002c-5.407-.036-14.126-.011-17.757.046-1.262.023-2.243.949-2.347,2.351-.031.385-.034.949,0,1.405.104,1.405,1.112,2.314,2.347,2.347,3.416.082,12.565.096,17.73.069,1.177.013,1.898.581,1.898,2.45l.035.004c0,1.421-.006,2.425-.012,2.6-.054,1.11-.123,2.251-.694,3.2-.326.548-1.181,1.304-2.63,1.34-4.138.102-14.387.058-18.609,0-1.051-.011-2.216-.303-2.895-1.139-.518-.623-.84-1.597-.916-3.305-.073-1.708.004-9.044.004-9.044,0-2.759-.004-5.324-.004-7.31,0-2.069.748-4.484,1.459-5.942,1.022-2.076,4.921-6.296,7.56-9.005.594-.504,1.699-1.045,3.171-1.127,8.942-.002,18.862-.033,20.292-.08,1.193-.037,2.159-.863,2.339-2.349.054-.424.05-.399,0-.84-.127-1.376-1.078-2.329-2.339-2.345"/><path class="cls-1" d="M263.007,75.632c-1.06-.046-10.848-.05-13.371-.084-1.047-.013-2.021-.439-2.707-1.281-.51-.619-1.031-1.453-1.104-3.165-.077-1.703.035-13.083-.054-16.989-.023-1.256-.943-2.241-2.339-2.347-.387-.025-.905-.031-1.365,0-1.404.106-2.297,1.114-2.343,2.347-.103,2.832-.153,11.839-.05,17.069.142,6.898,4.532,10.205,9.525,10.468,2.159.107,12.512.142,13.808.082,1.198-.052,2.161-.859,2.337-2.343.059-.432.038-.974,0-1.413-.138-1.369-1.079-2.289-2.337-2.345"/><path class="cls-1" d="M255.906,35.574c-.004-.784-.008-1.576-.023-2.383-.019-1.221-.928-2.178-2.285-2.283-.379-.025-.928-.029-1.376,0-1.369.106-2.259,1.083-2.282,2.283-.023.811-.042,1.68-.05,2.569-.058.821-.433,1.61-2.232,1.641-.334.004-1.292.009-1.952.019-1.223.023-2.178.922-2.285,2.293-.027.376-.031.594,0,1.041.107,1.369,1.085,2.259,2.285,2.291.748.023,1.545.029,2.362.036,1.476.103,1.745.799,1.81,1.518.015,1.072.035,2.316.061,2.995.035,1.168.836,2.113,2.282,2.283.422.061.947.048,1.376,0,1.331-.123,2.266-1.049,2.285-2.283.015-.805.019-1.923.023-2.724.046-.801.176-1.637,1.764-1.777.966-.015,1.81-.025,2.433-.048,1.177-.044,2.12-.846,2.297-2.291.038-.416.038-.614,0-1.041-.138-1.34-1.06-2.27-2.297-2.293-.658-.01-1.444-.025-1.946-.036-2.021-.042-2.201-.928-2.251-1.81"/><path class="cls-1" d="M231.38,35.574c-.011-.784-.019-1.576-.035-2.383-.019-1.221-.92-2.178-2.281-2.283-.376-.025-.932-.029-1.38,0-1.369.106-2.251,1.083-2.281,2.283-.019.811-.035,1.68-.054,2.569-.058.821-.426,1.61-2.232,1.641-.334.004-1.292.009-1.944.019-1.227.023-2.182.922-2.285,2.293-.027.376-.031.594,0,1.041.104,1.369,1.081,2.259,2.285,2.291.748.023,1.545.029,2.358.036,1.48.103,1.748.799,1.81,1.518.019,1.072.038,2.316.061,2.995.042,1.168.836,2.113,2.281,2.283.422.061.947.048,1.38,0,1.331-.123,2.262-1.049,2.281-2.283.016-.805.023-1.923.035-2.724.035-.801.165-1.637,1.756-1.777.97-.015,1.81-.025,2.435-.048,1.17-.044,2.109-.846,2.293-2.291.042-.416.031-.614,0-1.041-.131-1.34-1.062-2.27-2.293-2.293-.656-.01-1.453-.025-1.952-.036-2.017-.042-2.201-.928-2.239-1.81"/><path class="cls-1" d="M233.996,52.624c-.986-1.01-2.339-1.058-3.305-.286-3.923,3.135-10.591,8.842-12.685,10.733-.893.799-1.108,2.055-.291,3.307.234.355.587.763.901,1.079.985.959,2.324,1.079,3.305.29.705-.568,1.806-1.534,2.216-1.827.402-.293,1.093.029,1.112.888.015.859.011,10.752.08,12.606.035,1.196.855,2.164,2.339,2.349.426.056.97.038,1.407,0,1.373-.129,2.327-1.085,2.347-2.349.077-4.659.027-17.562.023-18.225-.015-.656.387-1.77.755-2.092.372-.32,1.653-1.428,2.416-2.088.947-.826,1.104-2.165.284-3.3-.222-.32-.583-.755-.905-1.085"/><path class="cls-1" d="M264.244,52.72c-.982-1.007-2.335-1.056-3.298-.29-3.925,3.135-9.903,8.16-12.012,10.048-.886.799-1.1,2.048-.284,3.309.238.355.591.765.909,1.072.978.97,2.324,1.081,3.294.292,3.93-3.177,8.231-6.766,12.019-10.041.943-.83,1.099-2.166.274-3.307-.215-.318-.589-.748-.903-1.083"/><path class="cls-1" d="M4.251,6.143l-2.574.137c-.273.02-1.424.078-1.424-1.209,0-1.171.975-1.209,1.326-1.229l2.75-.117c.039-.8.098-2.185.156-2.418.136-.585.683-.78,1.229-.78,1.131,0,1.287.644,1.287,1.248,0,.487-.176,2.925-.195,3.471,2.379-1.892,4.095-1.931,4.934-1.931,3.12,0,5.752,1.911,5.752,6.104,0,5.265-2.886,6.708-4.739,7.293-.994.312-2.34.526-3.354.526-.487,0-1.541,0-1.541-1.229,0-1.111.819-1.17,2.321-1.268,1.657-.117,4.719-.916,4.719-4.934,0-1.15-.292-4.134-3.51-4.134-1.501,0-2.925.624-4.7,2.262-.039,1.502-.059,2.983-.059,4.466,0,.624.039,3.373.039,3.939,0,.701,0,1.657-1.248,1.657-1.307,0-1.307-.78-1.307-2.009,0-1.326.02-3.666.039-4.875-.761,1.15-1.307,1.989-1.697,2.535-.409.546-.663.741-1.092.741-.644,0-1.365-.526-1.365-1.268,0-.488.156-.663.897-1.502,1.248-1.404,2.399-2.886,3.335-4.505l.02-.975Z"/><path class="cls-1" d="M26.696,1.209c.039-.117.292-.663,1.112-.663.332,0,1.404.059,1.404,1.053,0,.41-.37,1.911-.507,2.438,1.735-.02,2.71-.02,3.646.644.371.254,1.813,1.404,1.813,4.953,0,5.363-.975,8.171-4.31,8.171-1.053,0-2.106-.233-3.042-.702-.41-.194-.799-.468-.799-1.111,0-.468.292-1.268,1.033-1.268.292,0,.371.02,1.189.352.41.175.975.272,1.404.272.975,0,1.326-.429,1.619-1.677.234-1.015.39-2.496.39-4.251,0-2.106-.331-3.062-2.515-3.062-.351,0-.585,0-1.034.038-.858,3.14-1.853,6.026-2.867,8.464-.917,2.223-1.268,2.711-2.047,2.711-.722,0-1.482-.585-1.482-1.229,0-.449.156-.702.566-1.424.702-1.248,1.657-3.568,2.145-4.973.37-1.034.838-2.73,1.033-3.354-.409.039-2.204.254-2.574.254-.41,0-.78-.117-.975-.43-.195-.292-.215-.643-.215-.799,0-1.034.663-1.15.956-1.209.429-.078.839-.098,3.413-.254.098-.448.527-2.633.644-2.944ZM34.555,2.047c1.326,0,2.71,1.989,2.789,2.126,1.697,2.398,1.794,5.694,1.794,6.533,0,.331,0,1.384-1.423,1.384-1.053,0-1.17-.702-1.209-1.268-.137-1.677-.214-2.808-.838-4.407-.39-1.014-.663-1.286-1.794-2.398-.234-.214-.487-.468-.487-.896,0-.449.312-.741.449-.839.292-.215.565-.234.721-.234Z"/><path class="cls-1" d="M53.918,6.474c4.076,0,5.87,2.516,5.87,5.363,0,1.54-.585,4.075-3.568,5.323-1.365.565-2.847.741-4.31.741-2.32,0-3.432-.468-4.192-.936-.858-.527-1.365-1.443-1.365-2.419,0-2.359,2.125-3.334,4.134-3.334.917,0,3.861.156,3.861,3.296,0,.39-.039.585-.156.916,2.301-.487,2.906-2.146,2.906-3.374,0-.994-.39-2.047-1.229-2.632-.897-.624-2.087-.741-2.984-.741-2.789,0-4.875,1.268-6.552,2.788-1.248,1.132-1.326,1.189-1.755,1.189-.722,0-1.365-.604-1.365-1.345,0-.546.137-.663,1.677-1.833,2.359-1.756,6.552-4.896,7.8-6.085-.468.039-5.577.332-6.357.332-.39,0-1.326-.02-1.326-1.248,0-1.17.917-1.209,1.385-1.229,1.073-.02,5.85-.098,6.825-.137.214-.02,1.385-.059,2.067-.059.702,0,1.658.137,1.658,1.248,0,.897-.214,1.033-2.418,2.457-1.58,1.015-2.379,1.696-2.925,2.146.527-.195,1.092-.43,2.321-.43ZM52.299,14.82c0-1.463-1.209-1.599-1.853-1.599-1.014,0-1.813.507-1.813,1.268,0,.896,1.248,1.325,2.594,1.325.312,0,.526-.02.877-.077.117-.332.195-.547.195-.917Z"/><path class="cls-1" d="M70.961,15.483c0,.896-.741,1.638-1.638,1.638s-1.638-.741-1.638-1.638c0-.917.741-1.638,1.638-1.638s1.638.721,1.638,1.638ZM70.181,11.35c-.059.546-.234.975-.838.975s-.819-.312-.877-.955l-.546-5.402V1.853c0-.683.292-1.326,1.385-1.326.995,0,1.423.487,1.423,1.326v4.114l-.546,5.383Z"/><path class="cls-1" d="M94.692,5.226c0-.721.253-1.345,1.326-1.345,1.209,0,1.423.682,1.423,1.853,0,.857-.195,3.12-.234,3.451,1.813.78,2.457,1.17,2.457,1.95,0,.624-.507,1.424-1.189,1.424-.371,0-.487-.059-1.716-.702-1.112,4.095-3.881,6.045-5.343,6.045-.663,0-1.268-.644-1.268-1.307,0-.624.253-.78,1.911-1.755,1.853-1.092,2.223-3.374,2.34-4.037-.819-.312-2.808-.975-4.173-1.189-.41,1.58-.956,3.101-1.619,4.583-.722,1.657-1.619,2.594-2.984,2.594-1.56,0-3.607-1.346-3.607-4.096,0-1.794.917-4.056,3.764-5.012,1.131-.39,2.145-.429,2.613-.468.059-.312.468-1.774.507-1.97.059-.253.214-1.053.214-1.268,0-.351-.195-.507-.741-.507-.117,0-3.003.176-3.588.176-.41,0-1.346,0-1.346-1.229,0-1.248.877-1.248,1.638-1.248,1.268,0,3.295-.098,4.563-.098.429,0,2.126,0,2.126,1.638,0,.702-.254,1.853-.312,2.126-.078.39-.566,2.146-.644,2.496.507.078,1.657.293,3.841.937.039-1.015.039-1.21.039-3.043ZM86.424,9.75c-1.502.546-2.204,1.677-2.204,2.964,0,1.307.838,1.639,1.17,1.639.507,0,.897-.546,1.385-1.755.468-1.132.741-1.989,1.033-3.14-.799.116-1.033.155-1.384.292Z"/><path class="cls-1" d="M107.562,14.235c.195,0,.897.078,1.131.098.604.059,1.209.078,1.638.078,1.541,0,7.664,0,7.664-5.285,0-1.755-.546-2.73-1.326-3.373-.624-.508-1.599-1.054-3.433-1.054-2.769,0-5.207.819-7.897,1.716-.253.078-.565.176-.839.176-1.053,0-1.267-.975-1.267-1.481,0-1.073.604-1.229,2.515-1.756,2.73-.76,5.714-1.15,7.723-1.15,5.324,0,7.312,3.198,7.312,6.825,0,.995-.059,4.329-3.393,6.416-2.301,1.424-6.026,1.541-7.508,1.541-.448,0-2.047-.02-2.769-.215-.78-.215-.877-.897-.877-1.209,0-.526.098-1.326,1.326-1.326Z"/><path class="cls-1" d="M130.045,1.209c.039-.117.292-.663,1.112-.663.332,0,1.404.059,1.404,1.053,0,.41-.37,1.911-.507,2.438,1.735-.02,2.71-.02,3.646.644.371.254,1.813,1.404,1.813,4.953,0,5.363-.975,8.171-4.31,8.171-1.053,0-2.106-.233-3.042-.702-.41-.194-.799-.468-.799-1.111,0-.468.292-1.268,1.033-1.268.292,0,.371.02,1.189.352.41.175.975.272,1.404.272.975,0,1.326-.429,1.619-1.677.234-1.015.39-2.496.39-4.251,0-2.106-.331-3.062-2.515-3.062-.351,0-.585,0-1.034.038-.858,3.14-1.853,6.026-2.867,8.464-.917,2.223-1.268,2.711-2.047,2.711-.722,0-1.482-.585-1.482-1.229,0-.449.156-.702.566-1.424.702-1.248,1.657-3.568,2.145-4.973.37-1.034.838-2.73,1.033-3.354-.409.039-2.204.254-2.574.254-.41,0-.78-.117-.975-.43-.195-.292-.215-.643-.215-.799,0-1.034.663-1.15.956-1.209.429-.078.839-.098,3.413-.254.098-.448.527-2.633.644-2.944ZM137.904,2.047c1.326,0,2.71,1.989,2.789,2.126,1.697,2.398,1.794,5.694,1.794,6.533,0,.331,0,1.384-1.423,1.384-1.053,0-1.17-.702-1.209-1.268-.137-1.677-.214-2.808-.838-4.407-.39-1.014-.663-1.286-1.794-2.398-.234-.214-.487-.468-.487-.896,0-.449.312-.741.449-.839.292-.215.565-.234.721-.234Z"/><path class="cls-1" d="M157.268,6.474c4.075,0,5.87,2.516,5.87,5.363,0,1.54-.586,4.075-3.569,5.323-1.365.565-2.847.741-4.31.741-2.32,0-3.432-.468-4.192-.936-.858-.527-1.365-1.443-1.365-2.419,0-2.359,2.125-3.334,4.134-3.334.917,0,3.861.156,3.861,3.296,0,.39-.039.585-.155.916,2.301-.487,2.905-2.146,2.905-3.374,0-.994-.391-2.047-1.229-2.632-.897-.624-2.087-.741-2.984-.741-2.789,0-4.875,1.268-6.552,2.788-1.248,1.132-1.326,1.189-1.755,1.189-.722,0-1.365-.604-1.365-1.345,0-.546.137-.663,1.677-1.833,2.359-1.756,6.552-4.896,7.8-6.085-.468.039-5.577.332-6.357.332-.39,0-1.326-.02-1.326-1.248,0-1.17.917-1.209,1.385-1.229,1.073-.02,5.85-.098,6.825-.137.214-.02,1.385-.059,2.067-.059.702,0,1.657.137,1.657,1.248,0,.897-.215,1.033-2.418,2.457-1.58,1.015-2.379,1.696-2.925,2.146.527-.195,1.092-.43,2.321-.43ZM155.649,14.82c0-1.463-1.209-1.599-1.853-1.599-1.014,0-1.813.507-1.813,1.268,0,.896,1.248,1.325,2.593,1.325.312,0,.527-.02.878-.077.117-.332.195-.547.195-.917Z"/><path class="cls-1" d="M174.311,15.483c0,.896-.741,1.638-1.639,1.638s-1.638-.741-1.638-1.638c0-.917.741-1.638,1.638-1.638s1.639.721,1.639,1.638ZM173.531,11.35c-.059.546-.234.975-.839.975s-.818-.312-.877-.955l-.546-5.402V1.853c0-.683.292-1.326,1.384-1.326.995,0,1.424.487,1.424,1.326v4.114l-.546,5.383Z"/><path class="cls-1" d="M190.457,1.033c.059-.195.293-.663,1.131-.663.858,0,1.385.312,1.346,1.209-.02.312-.039.78-.039.995,1.034-.02,3.179-.059,4.7-.137.272-.02,2.769-.156,3.218-.156.331,0,1.307,0,1.307,1.209,0,.507-.195,1.034-.917,1.15-1.17.176-7.371.293-8.424.312,0,.272-.02.39-.039,1.404.857-.137,1.716-.215,2.573-.215,4.935,0,7.333,2.594,7.333,5.928,0,1.853-.702,3.803-2.945,4.915-1.833.896-3.938.896-3.997.896-.352,0-1.385,0-1.385-1.209,0-1.053.663-1.111,1.326-1.15,1.774-.137,4.407-.565,4.407-3.568,0-2.282-1.561-3.043-2.905-3.413-.527,1.307-1.814,3.92-3.491,5.792.215.39.332.663.332.994,0,.604-.585,1.229-1.326,1.229-.507,0-.741-.292-.858-.448-.858.702-1.911,1.209-3.042,1.209-1.892,0-3.218-1.618-3.218-3.861,0-3.354,2.633-5.46,4.681-6.338.02-.702.02-1.657.039-2.125-.488.02-3.082.02-3.296,0-.371-.039-.995-.215-.995-1.189,0-1.189.878-1.189,1.872-1.189h2.496c.039-1.268.039-1.346.117-1.58ZM190.204,9.555c-.527.352-.858.585-1.307,1.112-.878,1.053-1.034,2.164-1.034,2.729,0,1.521.937,1.658,1.229,1.658.644,0,1.404-.663,1.775-.995-.449-1.462-.604-2.886-.663-4.505ZM194.786,8.21c-.585,0-1.111.02-2.105.253-.039,1.111-.039,1.872.155,3.296,1.015-1.365,1.541-2.535,1.95-3.549Z"/><path class="cls-1" d="M210.581,13.494c-.312.546-.604.917-1.287.917-.8,0-1.385-.565-1.385-1.132,0-.468.098-.644,1.424-2.944.8-1.365,1.404-3.101,1.892-4.602-.565.02-2.301.039-2.633-.039-.37-.098-.722-.449-.722-1.151,0-1.014.702-1.131.956-1.17.155-.02,2.729-.078,3.101-.078.078-.312.331-1.755.429-2.047.137-.468.526-.741,1.15-.741.273,0,1.404.039,1.404,1.033,0,.43-.137.917-.331,1.658.175,0,1.833-.078,1.872-.078.351,0,1.248.02,1.248,1.209,0,1.131-.858,1.189-1.307,1.209-.546.02-1.561.059-2.535.117-.644,2.047-1.58,4.875-3.276,7.839ZM218.458,7.352c-.039-.526.098-1.248,1.248-1.248.741,0,1.229.312,1.268,1.131l.215,3.979c1.092.526,2.106,1.189,3.003,1.989.487.448.702.818.702,1.248,0,.624-.468,1.325-1.268,1.325-.409,0-.604-.214-1.404-.877-.761-.624-.877-.663-1.189-.937,0,.702-.02,1.307-.331,1.931-.956,1.931-3.198,1.95-3.861,1.95-3.452,0-4.758-1.892-4.758-3.705,0-1.638,1.17-3.842,5.089-3.842.644,0,1.093.059,1.521.117l-.234-3.062ZM216.977,12.383c-.956,0-2.633.253-2.633,1.696,0,1.6,1.97,1.6,2.32,1.6,2.106,0,2.146-1.346,2.126-2.965-.371-.155-.839-.331-1.813-.331ZM219.609,1.56c.741,0,2.945,1.189,4.583,2.477.585.469.858.878.858,1.365,0,.741-.683,1.287-1.287,1.287-.448,0-.722-.234-1.15-.604-1.209-1.053-1.443-1.17-3.589-2.34-.194-.117-.682-.391-.682-.976,0-.272.136-.526.194-.624.117-.175.468-.585,1.072-.585Z"/><path class="cls-1" d="M232.342,3.159c.059,0,1.794-.02,1.97-.02.078-.391.292-1.697.37-1.95.234-.644.858-.683,1.111-.683.897,0,1.365.37,1.365,1.111,0,.41-.117,1.053-.194,1.463,1.403-.039,3.256-.078,5.226-.156.254-.02,1.307-.078,1.521-.078.331,0,1.268.02,1.268,1.209,0,1.131-.839,1.189-1.307,1.209-2.379.117-4.816.195-7.196.254-.487,2.223-.604,2.788-1.677,6.318-.409,1.385-1.463,4.562-1.892,5.323-.059.117-.331.624-1.033.624-.43,0-1.443-.233-1.443-1.17,0-.215.02-.429.448-1.365.469-1.014,2.009-4.836,3.004-9.691-.527.02-2.263.039-2.672-.059-.312-.078-.663-.409-.663-1.131,0-.819.351-1.268,1.287-1.229l.507.02ZM246.675,17.434c-.936.253-2.73.253-3.335.253-4.621,0-6.61-.779-6.61-3.197,0-.566.215-2.263,1.716-2.263.468,0,1.189.215,1.189.858,0,.233-.078.409-.117.507-.155.37-.175.429-.175.624,0,.526.39.78,1.072.916.507.117,1.248.176,2.048.176,1.268,0,2.145-.098,3.354-.214.234-.02.352-.039.527-.039.818,0,1.17.448,1.17,1.15,0,.624-.254,1.072-.839,1.229ZM246.539,9.652c-.253.176-.507.195-.818.195-.137,0-.897-.059-1.346-.078-.273-.02-.507-.02-.937-.02-1.287,0-2.281.078-2.574.098-1.521.137-1.755.156-1.931.156-1.072,0-1.072-1.015-1.072-1.189,0-.604.293-1.015,1.131-1.189,1.268-.273,3.433-.352,4.778-.352,3.179,0,3.179.507,3.179,1.463,0,.253-.117.702-.41.916Z"/><path class="cls-1" d="M259.897,13.67c-.956,1.54-1.989,2.359-3.433,2.359-2.535,0-3.919-2.594-3.919-5.694,0-5.947,4.426-9.106,9.341-9.106,5.947,0,8.326,3.881,8.326,8.132,0,.975,0,4.349-3.549,6.688-2.009,1.346-4.407,1.521-4.72,1.521-1.286,0-1.306-1.19-1.306-1.346,0-1.015.721-1.131,1.442-1.229,1.561-.234,5.441-.839,5.441-5.812,0-3.198-1.736-5.323-4.778-5.519-.644,5.07-1.892,8.424-2.847,10.004ZM257.986,4.602c-2.243,1.385-2.944,3.861-2.944,5.772,0,1.872.76,2.925,1.54,2.925.819,0,1.404-1.092,1.931-2.496,1.072-2.847,1.404-4.953,1.696-7.078-.448.117-1.287.312-2.223.877Z"/><path class="cls-1" d="M278.928,17.336c0,.292,0,1.209-1.15,1.209-1.072,0-1.17-.761-1.17-1.209v-7.819c-.215.214-.507.507-.956.507-.74,0-1.286-.761-1.286-1.463,0-.507.233-.839.604-1.346,2.047-2.827,2.71-5.558,2.788-5.889.156-.702.293-1.229,1.17-1.229.156,0,1.268.02,1.268,1.014,0,.604-.526,2.516-1.268,4.231v11.993ZM280.878,10.979c-.312,0-1.189,0-1.189-1.111,0-.937.624-1.111,1.189-1.111h4.31v-1.502h-2.066c-1.561,0-2.243-.585-2.243-2.262v-2.087c0-1.735.741-2.242,2.243-2.242h6.474c1.443,0,2.243.468,2.243,2.242v2.087c0,1.716-.722,2.262-2.243,2.262h-2.125v1.502h4.271c.312,0,1.189.02,1.189,1.111,0,.994-.702,1.111-1.189,1.111h-3.354c1.229,1.833,2.652,3.101,2.925,3.335,1.541,1.248,1.6,1.287,1.6,1.735,0,.702-.644,1.365-1.268,1.365-.391,0-.761-.215-1.541-1.034-1.326-1.364-2.203-2.71-2.632-3.373v4.31c0,.293,0,1.189-1.093,1.189-.877,0-1.189-.39-1.189-1.189v-4.134c-1.326,1.833-3.666,4.251-4.621,4.251-.604,0-1.171-.683-1.171-1.287,0-.565.43-.858.761-1.092,1.189-.819,2.633-1.813,4.174-4.076h-3.452ZM289.439,3.354c0-.429-.214-.663-.663-.663h-4.855c-.468,0-.663.234-.663.663v1.229c0,.449.215.663.663.663h4.855c.449,0,.663-.214.663-.663v-1.229Z"/><path class="cls-1" d="M306.384,6.279c-.292,0-.839,0-.994-.644-.937.644-1.248.702-1.463.702-.429,0-.955-.352-1.15-1.073-.117.293-.604,1.6-.604,1.756,0,.136.039.214.215.468.975,1.403,1.268,3.295,1.268,4.407,0,2.71-1.619,2.71-2.419,2.71-1.092,0-1.325-.526-1.325-1.326,0-.74.253-.994.643-1.033.391-.02.858-.059.858-1.072,0-1.034-.331-2.146-.761-2.905-.429-.8-.468-.878-.468-1.112,0-.272.117-.585.487-1.657.156-.448.683-2.067.683-2.359,0-.332-.37-.332-.448-.332h-.546c-.273,0-.468.117-.468.449v14.079c0,.839-.352,1.189-1.171,1.189-1.072,0-1.072-.897-1.072-1.189V2.71c0-1.833.429-2.184,2.204-2.184h1.481c1.404,0,2.146.195,2.146,1.696,0,.215,0,.819-.273,1.794.098-.078.839-.487,1.287-.722,1.248-.682,2.204-1.696,2.964-2.496.352-.37.761-.799,1.717-.799,1.033,0,1.403.409,1.735.761,1.17,1.286,1.794,1.93,3.939,3.139.292.176.721.41.721,1.034,0,.702-.507,1.365-1.17,1.365-.253,0-.507-.059-1.54-.761-.117.722-.663.741-1.015.741h-1.579v1.092h2.164c1.795,0,2.185.39,2.185,2.184v1.385c0,1.813-.39,2.185-2.185,2.185h-1.462c1.033,1.774,2.496,2.418,3.783,2.964.351.137.779.331.761,1.033,0,.663-.449,1.307-1.132,1.307-.721,0-3.49-1.17-5.167-4.114-1.443,2.769-4.368,4.134-5.246,4.134-.604,0-1.15-.565-1.15-1.326s.526-.955.877-1.092c1.639-.585,2.809-1.189,3.687-2.905h-1.443c-1.813,0-2.204-.41-2.204-2.185v-1.385c0-1.794.41-2.184,2.204-2.184h2.105v-1.092h-1.657ZM308.042,9.341h-1.774c-.312,0-.468.156-.468.468v.878c0,.331.195.468.468.468h1.697c.077-.604.077-1.072.077-1.463v-.351ZM311.201,4.29c-.74-.663-1.229-1.248-1.696-1.794-.117-.117-.176-.176-.292-.176-.137,0-.156.02-.332.254-.117.136-.78.955-1.716,1.716h4.036ZM310.265,9.691c0,.41,0,.858-.078,1.463h1.892c.293,0,.468-.137.468-.468v-.878c0-.312-.155-.468-.468-.468h-1.813v.351Z"/><path class="cls-1" d="M4.251,6.143l-2.574.137c-.273.02-1.424.078-1.424-1.209,0-1.171.975-1.209,1.326-1.229l2.75-.117c.039-.8.098-2.185.156-2.418.136-.585.683-.78,1.229-.78,1.131,0,1.287.644,1.287,1.248,0,.487-.176,2.925-.195,3.471,2.379-1.892,4.095-1.931,4.934-1.931,3.12,0,5.752,1.911,5.752,6.104,0,5.265-2.886,6.708-4.739,7.293-.994.312-2.34.526-3.354.526-.487,0-1.541,0-1.541-1.229,0-1.111.819-1.17,2.321-1.268,1.657-.117,4.719-.916,4.719-4.934,0-1.15-.292-4.134-3.51-4.134-1.501,0-2.925.624-4.7,2.262-.039,1.502-.059,2.983-.059,4.466,0,.624.039,3.373.039,3.939,0,.701,0,1.657-1.248,1.657-1.307,0-1.307-.78-1.307-2.009,0-1.326.02-3.666.039-4.875-.761,1.15-1.307,1.989-1.697,2.535-.409.546-.663.741-1.092.741-.644,0-1.365-.526-1.365-1.268,0-.488.156-.663.897-1.502,1.248-1.404,2.399-2.886,3.335-4.505l.02-.975Z"/><path class="cls-1" d="M26.696,1.209c.039-.117.292-.663,1.112-.663.332,0,1.404.059,1.404,1.053,0,.41-.37,1.911-.507,2.438,1.735-.02,2.71-.02,3.646.644.371.254,1.813,1.404,1.813,4.953,0,5.363-.975,8.171-4.31,8.171-1.053,0-2.106-.233-3.042-.702-.41-.194-.799-.468-.799-1.111,0-.468.292-1.268,1.033-1.268.292,0,.371.02,1.189.352.41.175.975.272,1.404.272.975,0,1.326-.429,1.619-1.677.234-1.015.39-2.496.39-4.251,0-2.106-.331-3.062-2.515-3.062-.351,0-.585,0-1.034.038-.858,3.14-1.853,6.026-2.867,8.464-.917,2.223-1.268,2.711-2.047,2.711-.722,0-1.482-.585-1.482-1.229,0-.449.156-.702.566-1.424.702-1.248,1.657-3.568,2.145-4.973.37-1.034.838-2.73,1.033-3.354-.409.039-2.204.254-2.574.254-.41,0-.78-.117-.975-.43-.195-.292-.215-.643-.215-.799,0-1.034.663-1.15.956-1.209.429-.078.839-.098,3.413-.254.098-.448.527-2.633.644-2.944ZM34.555,2.047c1.326,0,2.71,1.989,2.789,2.126,1.697,2.398,1.794,5.694,1.794,6.533,0,.331,0,1.384-1.423,1.384-1.053,0-1.17-.702-1.209-1.268-.137-1.677-.214-2.808-.838-4.407-.39-1.014-.663-1.286-1.794-2.398-.234-.214-.487-.468-.487-.896,0-.449.312-.741.449-.839.292-.215.565-.234.721-.234Z"/><path class="cls-1" d="M53.918,6.474c4.076,0,5.87,2.516,5.87,5.363,0,1.54-.585,4.075-3.568,5.323-1.365.565-2.847.741-4.31.741-2.32,0-3.432-.468-4.192-.936-.858-.527-1.365-1.443-1.365-2.419,0-2.359,2.125-3.334,4.134-3.334.917,0,3.861.156,3.861,3.296,0,.39-.039.585-.156.916,2.301-.487,2.906-2.146,2.906-3.374,0-.994-.39-2.047-1.229-2.632-.897-.624-2.087-.741-2.984-.741-2.789,0-4.875,1.268-6.552,2.788-1.248,1.132-1.326,1.189-1.755,1.189-.722,0-1.365-.604-1.365-1.345,0-.546.137-.663,1.677-1.833,2.359-1.756,6.552-4.896,7.8-6.085-.468.039-5.577.332-6.357.332-.39,0-1.326-.02-1.326-1.248,0-1.17.917-1.209,1.385-1.229,1.073-.02,5.85-.098,6.825-.137.214-.02,1.385-.059,2.067-.059.702,0,1.658.137,1.658,1.248,0,.897-.214,1.033-2.418,2.457-1.58,1.015-2.379,1.696-2.925,2.146.527-.195,1.092-.43,2.321-.43ZM52.299,14.82c0-1.463-1.209-1.599-1.853-1.599-1.014,0-1.813.507-1.813,1.268,0,.896,1.248,1.325,2.594,1.325.312,0,.526-.02.877-.077.117-.332.195-.547.195-.917Z"/><path class="cls-1" d="M70.961,15.483c0,.896-.741,1.638-1.638,1.638s-1.638-.741-1.638-1.638c0-.917.741-1.638,1.638-1.638s1.638.721,1.638,1.638ZM70.181,11.35c-.059.546-.234.975-.838.975s-.819-.312-.877-.955l-.546-5.402V1.853c0-.683.292-1.326,1.385-1.326.995,0,1.423.487,1.423,1.326v4.114l-.546,5.383Z"/><path class="cls-1" d="M94.692,5.226c0-.721.253-1.345,1.326-1.345,1.209,0,1.423.682,1.423,1.853,0,.857-.195,3.12-.234,3.451,1.813.78,2.457,1.17,2.457,1.95,0,.624-.507,1.424-1.189,1.424-.371,0-.487-.059-1.716-.702-1.112,4.095-3.881,6.045-5.343,6.045-.663,0-1.268-.644-1.268-1.307,0-.624.253-.78,1.911-1.755,1.853-1.092,2.223-3.374,2.34-4.037-.819-.312-2.808-.975-4.173-1.189-.41,1.58-.956,3.101-1.619,4.583-.722,1.657-1.619,2.594-2.984,2.594-1.56,0-3.607-1.346-3.607-4.096,0-1.794.917-4.056,3.764-5.012,1.131-.39,2.145-.429,2.613-.468.059-.312.468-1.774.507-1.97.059-.253.214-1.053.214-1.268,0-.351-.195-.507-.741-.507-.117,0-3.003.176-3.588.176-.41,0-1.346,0-1.346-1.229,0-1.248.877-1.248,1.638-1.248,1.268,0,3.295-.098,4.563-.098.429,0,2.126,0,2.126,1.638,0,.702-.254,1.853-.312,2.126-.078.39-.566,2.146-.644,2.496.507.078,1.657.293,3.841.937.039-1.015.039-1.21.039-3.043ZM86.424,9.75c-1.502.546-2.204,1.677-2.204,2.964,0,1.307.838,1.639,1.17,1.639.507,0,.897-.546,1.385-1.755.468-1.132.741-1.989,1.033-3.14-.799.116-1.033.155-1.384.292Z"/><path class="cls-1" d="M107.562,14.235c.195,0,.897.078,1.131.098.604.059,1.209.078,1.638.078,1.541,0,7.664,0,7.664-5.285,0-1.755-.546-2.73-1.326-3.373-.624-.508-1.599-1.054-3.433-1.054-2.769,0-5.207.819-7.897,1.716-.253.078-.565.176-.839.176-1.053,0-1.267-.975-1.267-1.481,0-1.073.604-1.229,2.515-1.756,2.73-.76,5.714-1.15,7.723-1.15,5.324,0,7.312,3.198,7.312,6.825,0,.995-.059,4.329-3.393,6.416-2.301,1.424-6.026,1.541-7.508,1.541-.448,0-2.047-.02-2.769-.215-.78-.215-.877-.897-.877-1.209,0-.526.098-1.326,1.326-1.326Z"/><path class="cls-1" d="M130.045,1.209c.039-.117.292-.663,1.112-.663.332,0,1.404.059,1.404,1.053,0,.41-.37,1.911-.507,2.438,1.735-.02,2.71-.02,3.646.644.371.254,1.813,1.404,1.813,4.953,0,5.363-.975,8.171-4.31,8.171-1.053,0-2.106-.233-3.042-.702-.41-.194-.799-.468-.799-1.111,0-.468.292-1.268,1.033-1.268.292,0,.371.02,1.189.352.41.175.975.272,1.404.272.975,0,1.326-.429,1.619-1.677.234-1.015.39-2.496.39-4.251,0-2.106-.331-3.062-2.515-3.062-.351,0-.585,0-1.034.038-.858,3.14-1.853,6.026-2.867,8.464-.917,2.223-1.268,2.711-2.047,2.711-.722,0-1.482-.585-1.482-1.229,0-.449.156-.702.566-1.424.702-1.248,1.657-3.568,2.145-4.973.37-1.034.838-2.73,1.033-3.354-.409.039-2.204.254-2.574.254-.41,0-.78-.117-.975-.43-.195-.292-.215-.643-.215-.799,0-1.034.663-1.15.956-1.209.429-.078.839-.098,3.413-.254.098-.448.527-2.633.644-2.944ZM137.904,2.047c1.326,0,2.71,1.989,2.789,2.126,1.697,2.398,1.794,5.694,1.794,6.533,0,.331,0,1.384-1.423,1.384-1.053,0-1.17-.702-1.209-1.268-.137-1.677-.214-2.808-.838-4.407-.39-1.014-.663-1.286-1.794-2.398-.234-.214-.487-.468-.487-.896,0-.449.312-.741.449-.839.292-.215.565-.234.721-.234Z"/><path class="cls-1" d="M157.268,6.474c4.075,0,5.87,2.516,5.87,5.363,0,1.54-.586,4.075-3.569,5.323-1.365.565-2.847.741-4.31.741-2.32,0-3.432-.468-4.192-.936-.858-.527-1.365-1.443-1.365-2.419,0-2.359,2.125-3.334,4.134-3.334.917,0,3.861.156,3.861,3.296,0,.39-.039.585-.155.916,2.301-.487,2.905-2.146,2.905-3.374,0-.994-.391-2.047-1.229-2.632-.897-.624-2.087-.741-2.984-.741-2.789,0-4.875,1.268-6.552,2.788-1.248,1.132-1.326,1.189-1.755,1.189-.722,0-1.365-.604-1.365-1.345,0-.546.137-.663,1.677-1.833,2.359-1.756,6.552-4.896,7.8-6.085-.468.039-5.577.332-6.357.332-.39,0-1.326-.02-1.326-1.248,0-1.17.917-1.209,1.385-1.229,1.073-.02,5.85-.098,6.825-.137.214-.02,1.385-.059,2.067-.059.702,0,1.657.137,1.657,1.248,0,.897-.215,1.033-2.418,2.457-1.58,1.015-2.379,1.696-2.925,2.146.527-.195,1.092-.43,2.321-.43ZM155.649,14.82c0-1.463-1.209-1.599-1.853-1.599-1.014,0-1.813.507-1.813,1.268,0,.896,1.248,1.325,2.593,1.325.312,0,.527-.02.878-.077.117-.332.195-.547.195-.917Z"/><path class="cls-1" d="M174.311,15.483c0,.896-.741,1.638-1.639,1.638s-1.638-.741-1.638-1.638c0-.917.741-1.638,1.638-1.638s1.639.721,1.639,1.638ZM173.531,11.35c-.059.546-.234.975-.839.975s-.818-.312-.877-.955l-.546-5.402V1.853c0-.683.292-1.326,1.384-1.326.995,0,1.424.487,1.424,1.326v4.114l-.546,5.383Z"/><path class="cls-1" d="M190.457,1.033c.059-.195.293-.663,1.131-.663.858,0,1.385.312,1.346,1.209-.02.312-.039.78-.039.995,1.034-.02,3.179-.059,4.7-.137.272-.02,2.769-.156,3.218-.156.331,0,1.307,0,1.307,1.209,0,.507-.195,1.034-.917,1.15-1.17.176-7.371.293-8.424.312,0,.272-.02.39-.039,1.404.857-.137,1.716-.215,2.573-.215,4.935,0,7.333,2.594,7.333,5.928,0,1.853-.702,3.803-2.945,4.915-1.833.896-3.938.896-3.997.896-.352,0-1.385,0-1.385-1.209,0-1.053.663-1.111,1.326-1.15,1.774-.137,4.407-.565,4.407-3.568,0-2.282-1.561-3.043-2.905-3.413-.527,1.307-1.814,3.92-3.491,5.792.215.39.332.663.332.994,0,.604-.585,1.229-1.326,1.229-.507,0-.741-.292-.858-.448-.858.702-1.911,1.209-3.042,1.209-1.892,0-3.218-1.618-3.218-3.861,0-3.354,2.633-5.46,4.681-6.338.02-.702.02-1.657.039-2.125-.488.02-3.082.02-3.296,0-.371-.039-.995-.215-.995-1.189,0-1.189.878-1.189,1.872-1.189h2.496c.039-1.268.039-1.346.117-1.58ZM190.204,9.555c-.527.352-.858.585-1.307,1.112-.878,1.053-1.034,2.164-1.034,2.729,0,1.521.937,1.658,1.229,1.658.644,0,1.404-.663,1.775-.995-.449-1.462-.604-2.886-.663-4.505ZM194.786,8.21c-.585,0-1.111.02-2.105.253-.039,1.111-.039,1.872.155,3.296,1.015-1.365,1.541-2.535,1.95-3.549Z"/><path class="cls-1" d="M210.581,13.494c-.312.546-.604.917-1.287.917-.8,0-1.385-.565-1.385-1.132,0-.468.098-.644,1.424-2.944.8-1.365,1.404-3.101,1.892-4.602-.565.02-2.301.039-2.633-.039-.37-.098-.722-.449-.722-1.151,0-1.014.702-1.131.956-1.17.155-.02,2.729-.078,3.101-.078.078-.312.331-1.755.429-2.047.137-.468.526-.741,1.15-.741.273,0,1.404.039,1.404,1.033,0,.43-.137.917-.331,1.658.175,0,1.833-.078,1.872-.078.351,0,1.248.02,1.248,1.209,0,1.131-.858,1.189-1.307,1.209-.546.02-1.561.059-2.535.117-.644,2.047-1.58,4.875-3.276,7.839ZM218.458,7.352c-.039-.526.098-1.248,1.248-1.248.741,0,1.229.312,1.268,1.131l.215,3.979c1.092.526,2.106,1.189,3.003,1.989.487.448.702.818.702,1.248,0,.624-.468,1.325-1.268,1.325-.409,0-.604-.214-1.404-.877-.761-.624-.877-.663-1.189-.937,0,.702-.02,1.307-.331,1.931-.956,1.931-3.198,1.95-3.861,1.95-3.452,0-4.758-1.892-4.758-3.705,0-1.638,1.17-3.842,5.089-3.842.644,0,1.093.059,1.521.117l-.234-3.062ZM216.977,12.383c-.956,0-2.633.253-2.633,1.696,0,1.6,1.97,1.6,2.32,1.6,2.106,0,2.146-1.346,2.126-2.965-.371-.155-.839-.331-1.813-.331ZM219.609,1.56c.741,0,2.945,1.189,4.583,2.477.585.469.858.878.858,1.365,0,.741-.683,1.287-1.287,1.287-.448,0-.722-.234-1.15-.604-1.209-1.053-1.443-1.17-3.589-2.34-.194-.117-.682-.391-.682-.976,0-.272.136-.526.194-.624.117-.175.468-.585,1.072-.585Z"/><path class="cls-1" d="M232.342,3.159c.059,0,1.794-.02,1.97-.02.078-.391.292-1.697.37-1.95.234-.644.858-.683,1.111-.683.897,0,1.365.37,1.365,1.111,0,.41-.117,1.053-.194,1.463,1.403-.039,3.256-.078,5.226-.156.254-.02,1.307-.078,1.521-.078.331,0,1.268.02,1.268,1.209,0,1.131-.839,1.189-1.307,1.209-2.379.117-4.816.195-7.196.254-.487,2.223-.604,2.788-1.677,6.318-.409,1.385-1.463,4.562-1.892,5.323-.059.117-.331.624-1.033.624-.43,0-1.443-.233-1.443-1.17,0-.215.02-.429.448-1.365.469-1.014,2.009-4.836,3.004-9.691-.527.02-2.263.039-2.672-.059-.312-.078-.663-.409-.663-1.131,0-.819.351-1.268,1.287-1.229l.507.02ZM246.675,17.434c-.936.253-2.73.253-3.335.253-4.621,0-6.61-.779-6.61-3.197,0-.566.215-2.263,1.716-2.263.468,0,1.189.215,1.189.858,0,.233-.078.409-.117.507-.155.37-.175.429-.175.624,0,.526.39.78,1.072.916.507.117,1.248.176,2.048.176,1.268,0,2.145-.098,3.354-.214.234-.02.352-.039.527-.039.818,0,1.17.448,1.17,1.15,0,.624-.254,1.072-.839,1.229ZM246.539,9.652c-.253.176-.507.195-.818.195-.137,0-.897-.059-1.346-.078-.273-.02-.507-.02-.937-.02-1.287,0-2.281.078-2.574.098-1.521.137-1.755.156-1.931.156-1.072,0-1.072-1.015-1.072-1.189,0-.604.293-1.015,1.131-1.189,1.268-.273,3.433-.352,4.778-.352,3.179,0,3.179.507,3.179,1.463,0,.253-.117.702-.41.916Z"/><path class="cls-1" d="M259.897,13.67c-.956,1.54-1.989,2.359-3.433,2.359-2.535,0-3.919-2.594-3.919-5.694,0-5.947,4.426-9.106,9.341-9.106,5.947,0,8.326,3.881,8.326,8.132,0,.975,0,4.349-3.549,6.688-2.009,1.346-4.407,1.521-4.72,1.521-1.286,0-1.306-1.19-1.306-1.346,0-1.015.721-1.131,1.442-1.229,1.561-.234,5.441-.839,5.441-5.812,0-3.198-1.736-5.323-4.778-5.519-.644,5.07-1.892,8.424-2.847,10.004ZM257.986,4.602c-2.243,1.385-2.944,3.861-2.944,5.772,0,1.872.76,2.925,1.54,2.925.819,0,1.404-1.092,1.931-2.496,1.072-2.847,1.404-4.953,1.696-7.078-.448.117-1.287.312-2.223.877Z"/><path class="cls-1" d="M278.928,17.336c0,.292,0,1.209-1.15,1.209-1.072,0-1.17-.761-1.17-1.209v-7.819c-.215.214-.507.507-.956.507-.74,0-1.286-.761-1.286-1.463,0-.507.233-.839.604-1.346,2.047-2.827,2.71-5.558,2.788-5.889.156-.702.293-1.229,1.17-1.229.156,0,1.268.02,1.268,1.014,0,.604-.526,2.516-1.268,4.231v11.993ZM280.878,10.979c-.312,0-1.189,0-1.189-1.111,0-.937.624-1.111,1.189-1.111h4.31v-1.502h-2.066c-1.561,0-2.243-.585-2.243-2.262v-2.087c0-1.735.741-2.242,2.243-2.242h6.474c1.443,0,2.243.468,2.243,2.242v2.087c0,1.716-.722,2.262-2.243,2.262h-2.125v1.502h4.271c.312,0,1.189.02,1.189,1.111,0,.994-.702,1.111-1.189,1.111h-3.354c1.229,1.833,2.652,3.101,2.925,3.335,1.541,1.248,1.6,1.287,1.6,1.735,0,.702-.644,1.365-1.268,1.365-.391,0-.761-.215-1.541-1.034-1.326-1.364-2.203-2.71-2.632-3.373v4.31c0,.293,0,1.189-1.093,1.189-.877,0-1.189-.39-1.189-1.189v-4.134c-1.326,1.833-3.666,4.251-4.621,4.251-.604,0-1.171-.683-1.171-1.287,0-.565.43-.858.761-1.092,1.189-.819,2.633-1.813,4.174-4.076h-3.452ZM289.439,3.354c0-.429-.214-.663-.663-.663h-4.855c-.468,0-.663.234-.663.663v1.229c0,.449.215.663.663.663h4.855c.449,0,.663-.214.663-.663v-1.229Z"/><path class="cls-1" d="M306.384,6.279c-.292,0-.839,0-.994-.644-.937.644-1.248.702-1.463.702-.429,0-.955-.352-1.15-1.073-.117.293-.604,1.6-.604,1.756,0,.136.039.214.215.468.975,1.403,1.268,3.295,1.268,4.407,0,2.71-1.619,2.71-2.419,2.71-1.092,0-1.325-.526-1.325-1.326,0-.74.253-.994.643-1.033.391-.02.858-.059.858-1.072,0-1.034-.331-2.146-.761-2.905-.429-.8-.468-.878-.468-1.112,0-.272.117-.585.487-1.657.156-.448.683-2.067.683-2.359,0-.332-.37-.332-.448-.332h-.546c-.273,0-.468.117-.468.449v14.079c0,.839-.352,1.189-1.171,1.189-1.072,0-1.072-.897-1.072-1.189V2.71c0-1.833.429-2.184,2.204-2.184h1.481c1.404,0,2.146.195,2.146,1.696,0,.215,0,.819-.273,1.794.098-.078.839-.487,1.287-.722,1.248-.682,2.204-1.696,2.964-2.496.352-.37.761-.799,1.717-.799,1.033,0,1.403.409,1.735.761,1.17,1.286,1.794,1.93,3.939,3.139.292.176.721.41.721,1.034,0,.702-.507,1.365-1.17,1.365-.253,0-.507-.059-1.54-.761-.117.722-.663.741-1.015.741h-1.579v1.092h2.164c1.795,0,2.185.39,2.185,2.184v1.385c0,1.813-.39,2.185-2.185,2.185h-1.462c1.033,1.774,2.496,2.418,3.783,2.964.351.137.779.331.761,1.033,0,.663-.449,1.307-1.132,1.307-.721,0-3.49-1.17-5.167-4.114-1.443,2.769-4.368,4.134-5.246,4.134-.604,0-1.15-.565-1.15-1.326s.526-.955.877-1.092c1.639-.585,2.809-1.189,3.687-2.905h-1.443c-1.813,0-2.204-.41-2.204-2.185v-1.385c0-1.794.41-2.184,2.204-2.184h2.105v-1.092h-1.657ZM308.042,9.341h-1.774c-.312,0-.468.156-.468.468v.878c0,.331.195.468.468.468h1.697c.077-.604.077-1.072.077-1.463v-.351ZM311.201,4.29c-.74-.663-1.229-1.248-1.696-1.794-.117-.117-.176-.176-.292-.176-.137,0-.156.02-.332.254-.117.136-.78.955-1.716,1.716h4.036ZM310.265,9.691c0,.41,0,.858-.078,1.463h1.892c.293,0,.468-.137.468-.468v-.878c0-.312-.155-.468-.468-.468h-1.813v.351Z"/><path class="cls-1" d="M2.795,99.576c0,.247-.11,1.256-.128,1.465-.037.514-.183,2.169-.183,3.787,0,1.636.183,4.471.913,5.784.183.323.566.666,1.078.666.968,0,1.571-1.142,1.973-2.455.292-.913.384-1.274,1.114-1.274.694,0,1.297.419,1.297,1.142,0,.818-.475,1.902-1.005,2.893-.603,1.122-1.644,2.549-3.507,2.549C.11,114.131.11,106.54.11,104.503c0-1.56.146-4.719.274-5.232.219-.818.767-.856,1.315-.856.731,0,1.096.438,1.096,1.161ZM13.498,111.354c0-3.14,0-5.747-.858-7.82-.584-1.37-1.553-1.504-2.247-1.599-.475-.058-1.114-.133-1.114-1.218,0-.361.128-1.256,1.278-1.256.731,0,2.85.323,4.073,2.416,1.096,1.884,1.443,5.575,1.443,9.077,0,.799,0,1.826-1.278,1.826-1.297,0-1.297-.933-1.297-1.427Z"/><path class="cls-1" d="M21.885,111.049c.183,0,.84.076,1.06.095.566.058,1.132.076,1.534.076,1.443,0,7.178,0,7.178-5.156,0-1.713-.511-2.664-1.242-3.292-.584-.494-1.498-1.027-3.215-1.027-2.593,0-4.876.799-7.397,1.675-.238.076-.53.171-.786.171-.986,0-1.187-.951-1.187-1.446,0-1.046.566-1.198,2.356-1.712,2.557-.742,5.352-1.123,7.233-1.123,4.986,0,6.849,3.121,6.849,6.66,0,.97-.055,4.224-3.178,6.26-2.155,1.389-5.644,1.503-7.032,1.503-.42,0-1.917-.019-2.593-.209-.731-.209-.822-.875-.822-1.18,0-.514.091-1.294,1.242-1.294Z"/><path class="cls-1" d="M46.125,103.667c.676-.019,3.689-.095,4.311-.114.219-.019.383-.019.457-.019.347,0,1.078.057,1.078,1.084s-.658,1.047-1.571,1.065c-.676.02-3.635.114-4.237.134l.036,2.226c2.229.762,4.347,2.341,5.206,3.063.749.628.749,1.047.749,1.237,0,.742-.584,1.427-1.224,1.427-.475,0-.749-.229-1.297-.761-.493-.476-1.352-1.142-2.229-1.731-.493-.323-.858-.533-1.187-.704-.091,1.884-.493,3.938-4.091,3.938-2.977,0-5.151-1.236-5.151-3.558,0-2.018,1.753-3.597,5.078-3.597.822,0,1.388.095,1.735.133l-.037-1.636c-1.406.019-3.635.057-5.041.057-1.078,0-1.771,0-1.771-1.084,0-.856.548-1.066,1.096-1.066,1.589,0,4.109-.038,5.68-.038l-.037-1.731c-1.424.02-3.689.058-5.114.058-1.096,0-1.79,0-1.79-1.104,0-1.065.84-1.065,1.278-1.065h.986c.731,0,3.945-.038,4.603-.038l-.019-1.085c-.018-.913.621-1.123,1.206-1.123.694,0,1.187.248,1.206,1.123l.018,1.027c.712-.019,3.872-.095,4.53-.133.219,0,.402-.02.457-.02.274,0,1.096.02,1.096,1.085,0,1.047-.676,1.085-1.516,1.104-2.027.076-2.265.057-4.53.133l.037,1.713ZM41.943,109.318c-.786,0-2.703.152-2.703,1.579,0,1.027,1.206,1.484,2.575,1.484,1.315,0,1.827-.438,1.936-1.199.055-.342.055-.552.055-1.56-.347-.114-.895-.305-1.863-.305Z"/><path class="cls-1" d="M57.234,101.65c-.219.019-1.188.114-1.388.114-1.06,0-1.206-.78-1.206-1.313,0-.818.311-1.218,1.187-1.312.95-.096,11.16-.457,13.114-.457,1.041,0,1.881,0,1.881,1.218,0,1.275-.84,1.275-1.845,1.275-1.461.019-2.575.323-4.42,1.503-1.26.799-3.671,2.854-3.671,5.651,0,2.606,2.119,3.329,5.498,3.329,1.461,0,1.625-.019,1.899.058.603.152.786.608.786,1.123,0,1.465-1.096,1.465-2.21,1.465-2.594,0-4.621-.552-5.863-1.142-1.826-.876-2.612-2.778-2.612-4.604,0-1.39.329-3.197,2.338-5.31,1.041-1.084,1.772-1.541,2.557-2.017-2.009.133-4.037.267-6.045.419ZM66.128,103.952c-.055-.114-.091-.247-.091-.361,0-.361.402-.57.658-.57.292,0,.438.151.84.855.219.381.676,1.332.676,1.637,0,.476-.475.609-.694.609s-.383-.19-.493-.4c-.127-.247-.292-.628-.42-.875-.073-.133-.402-.761-.475-.895ZM68.083,103.058c-.073-.152-.091-.267-.091-.381,0-.343.383-.552.639-.552.329,0,.457.229.804.818.128.209.712,1.198.712,1.655,0,.399-.384.59-.676.59-.237,0-.42-.21-.475-.305-.073-.152-.383-.818-.438-.933-.073-.152-.42-.761-.475-.894Z"/><path class="cls-1" d="M79.1,105.208c2.356-.038,2.393-.038,3.05-.076.219,0,1.187-.076,1.388-.076.256,0,1.169.02,1.169,1.142,0,.99-.712,1.104-.895,1.123-.511.076-3.835.19-4.657.19h-.256c-.055.875-.073,1.522-.073,1.712,0,1.58.31,2.893,3.525,2.893,2.704,0,4.073-.837,4.073-3.425,0-.913-.256-1.77-.42-2.303-.164-.476-.201-.608-.201-.837,0-.666.713-.951,1.224-.951.713,0,1.06.438,1.334.97.328.686.603,1.884.603,3.254,0,4.833-3.123,5.709-6.594,5.709-4.438,0-5.991-1.789-5.991-5.328,0-.381.055-1.256.073-1.693-.603,0-2.338-.02-2.74-.114-.42-.114-.676-.514-.676-1.065,0-1.123.913-1.142,1.206-1.142.676,0,1.735.038,2.393.038l.219-2.55c-.584,0-2.356.019-2.776-.096-.365-.095-.658-.494-.658-1.084,0-1.065.84-1.142,1.224-1.142.365,0,2.063.038,2.393.057l.128-1.484c.055-.59.109-1.294,1.26-1.294.749,0,1.406.305,1.296,1.352l-.146,1.408c1.297-.02,2.868-.02,4.859-.114.219-.02,1.26-.076,1.461-.076.292,0,1.205.019,1.205,1.142,0,1.085-.767,1.123-1.479,1.16-2.082.096-4.182.152-6.265.172l-.255,2.53Z"/><path class="cls-1" d="M93.386,107.187c-.822.076-1.534.133-1.753.133-.969,0-.969-.933-.969-1.047,0-.97.658-.989,1.297-1.008.475-.704.548-.838.95-1.446-.329-.419-.457-.571-1.645-1.827-.401-.418-.548-.608-.548-.875,0-.494.438-1.122,1.041-1.122.165,0,.274.057.366.095.127-.267.365-.704.712-1.522.457-1.104.548-1.332,1.041-1.332.585,0,1.205.419,1.205.99,0,.266-.146.59-.475,1.255-.292.553-.749,1.408-1.06,1.96.055.076.402.476.476.552.2-.323,1.132-1.979,1.352-2.359.146-.247.328-.514.712-.514.164,0,.694.058,1.041.666-.019-.989.694-1.065,1.096-1.065h3.087v-.59c0-.646.348-.895,1.151-.895.876,0,1.004.514,1.004.895v.59h3.343c.512,0,1.114.152,1.114,1.009,0,.989-.841.989-1.114.989h-3.343v1.198h2.904c.384,0,.95.076.95.914,0,.913-.694.913-.95.913h-7.763c-.438,0-.949-.095-.949-.913,0-.876.639-.914.949-.914h2.703v-1.198h-3.087c-.347,0-.748-.038-1.004-.495-.037.267-.293.724-.493,1.065-.768,1.313-1.571,2.607-2.43,3.882.201-.019,1.169-.076,1.389-.095-.146-.552-.22-.799-.22-.971,0-.532.53-.666.785-.666.384,0,.512,0,1.297,2.417.201-1.065.932-1.142,1.973-1.142h5.991c1.698,0,2.046.399,2.046,2.131v.951c0,.799-.365,1.123-1.078,1.123-.986,0-1.004-.838-1.004-1.123v-.818c0-.323-.165-.456-.438-.456h-5.151c-.255,0-.438.114-.438.456v.8c0,.247-.018,1.142-1.004,1.142-.968,0-.968-.914-.968-1.123v-.419c-.11.076-.256.19-.585.19-.512,0-.621-.342-.712-.704-.604.096-.768.114-.95.134v7.211c0,.419-.055,1.009-.932,1.009-.895,0-.913-.666-.913-1.009v-7.021ZM92.929,109.033c0,1.065-.219,2.873-.347,3.653-.164.894-.219,1.218-.804,1.218-.164,0-1.022-.058-1.022-.78,0-.267.256-1.39.292-1.617.201-1.275.219-1.846.256-2.455.019-.552.091-.895.804-.895.821,0,.821.59.821.876ZM97.203,109.033c.201,1.16.329,2.207.329,2.777,0,.305-.073.838-.804.838-.713,0-.73-.343-.786-1.313-.036-.608-.091-1.122-.164-1.56-.055-.362-.109-.742-.109-.952,0-.494.365-.704.858-.704.512,0,.584.381.676.914ZM101.623,108.461c0,1.351-.292,3.406-.986,4.566-.529.895-1.79,2.112-2.502,2.112-.73,0-1.224-.646-1.224-1.256,0-.476.292-.685.657-.933,1.589-1.084,1.937-1.826,2.046-4.509.019-.438.109-1.066,1.041-1.066.968,0,.968.856.968,1.085ZM104.691,112.267c0,.514.11.571.694.571.493,0,.621-.038.64-.914.018-.856.018-1.37.876-1.37.932,0,.932.628.932,1.085,0,.971,0,2.416-.566,2.969-.401.38-.748.38-2.265.38-1.845,0-2.374-.152-2.374-2.149v-4.319c0-.628.183-1.143.968-1.143.657,0,1.096.152,1.096,1.143v3.748Z"/><path class="cls-1" d="M111.653,104.238c5.333-3.197,7.215-4.339,9.022-5.899.384-.323.713-.608,1.224-.608.658,0,1.407.419,1.407,1.256,0,.552-.274.875-1.224,1.599-2.448,1.826-5.114,3.272-7.8,4.699-.767.399-.968.59-.968.875s.183.457.822.742c2.611,1.218,4.603,2.132,7.671,4.054,2.137,1.331,2.411,1.693,2.411,2.378,0,.59-.548,1.37-1.334,1.37-.511,0-.876-.247-1.333-.59-1.808-1.37-3.47-2.645-6.977-4.472-.457-.247-2.576-1.236-2.978-1.465-.529-.285-1.333-.78-1.333-1.922,0-1.18.84-1.693,1.388-2.017Z"/><path class="cls-1" d="M128.368,106.197c-.219,0-1.132,0-1.132-1.046,0-.818.383-1.161,1.132-1.161h3.891c.237-.514.566-1.351.804-1.864.128-.285.329-.724,1.022-.724s1.443.4,1.443,1.028c0,.361-.109.608-.548,1.56h8.347c.292,0,1.133.02,1.133,1.104,0,.914-.566,1.104-1.133,1.104h-1.771c-.219.724-.84,2.664-2.374,4.472,1.698.762,1.862.856,3.415,1.693.512.286.877.533.877,1.161,0,.875-.676,1.427-1.224,1.427-.421,0-.548-.076-2.138-1.046-1.169-.724-2.265-1.237-2.831-1.504-.931.704-1.99,1.218-3.086,1.618-2.21.799-4.731,1.046-5.225,1.046-.237,0-1.169,0-1.169-1.312,0-1.065.713-1.142,1.242-1.18,1.224-.096,3.434-.286,5.553-1.313-1.022-.38-1.26-.456-3.488-1.18-.548-.171-1.261-.399-1.261-1.218,0-.418.183-.78.42-1.18.421-.685.457-.761.877-1.484h-2.776ZM141.921,98.757c1.37,0,2.119.457,2.119,2.207v1.275c0,.59-.128,1.218-1.078,1.218-.822,0-1.26-.229-1.26-1.18v-.856c0-.343-.146-.552-.53-.552h-10.648c-.365,0-.529.19-.529.552v.856c0,.38-.037,1.18-1.096,1.18-.95,0-1.261-.361-1.261-1.18v-1.313c0-1.693.694-2.207,2.119-2.207h4.895v-.608c0-.647.365-.952,1.078-.952.821,0,1.278.19,1.278.952v.608h4.913ZM133.866,106.197c-.347.628-.529.952-.822,1.428-.164.285-.237.38-.237.514,0,.305.274.381.438.438,1.188.361,2.722.818,3.562,1.142,1.278-1.332,1.918-2.854,2.21-3.521h-5.15Z"/><path class="cls-1" d="M149.376,104.066c0,.514-.256,4.11-1.224,7.154-.365,1.18-.585,1.637-1.297,1.637-.603,0-1.406-.476-1.406-1.312,0-.267.055-.438.548-1.922.748-2.265.932-4.434,1.004-5.442.073-.951.293-1.236,1.279-1.236.055,0,1.096,0,1.096,1.122ZM157.248,101.935c-.219,0-.493-.095-.931-.285-2.082-.914-3.032-1.332-5.79-1.922-.401-.076-1.022-.21-1.022-1.065,0-.267.128-1.294,1.096-1.294.657,0,3.562.685,6.027,1.674,1.333.533,1.662.742,1.662,1.428,0,.552-.347,1.465-1.041,1.465ZM152.883,111.792c0,.666.347.666,1.15.666,2.082,0,2.082-.02,2.265-.476.128-.286.146-.457.292-2.15.037-.361.11-1.104,1.078-1.104,1.205,0,1.205.989,1.205,1.256,0,1.065-.219,3.063-.821,3.9-.676.933-1.406.971-3.762.971-1.534,0-2.064,0-2.558-.114-1.224-.285-1.224-1.675-1.224-2.112v-9.761c0-.457.073-1.161,1.151-1.161,1.15,0,1.224.686,1.224,1.161v8.924ZM161.193,105.037c1.004,2.893,1.57,5.918,1.57,6.679,0,1.142-1.096,1.18-1.388,1.18-.913,0-1.06-.647-1.151-1.18-.584-3.615-.821-4.281-1.881-7.25-.055-.152-.201-.57-.201-.875,0-.59.53-1.047,1.334-1.047.693,0,.876.114,1.717,2.493Z"/><path class="cls-1" d="M170.985,110.498c-.895,1.503-1.862,2.303-3.214,2.303-2.375,0-3.672-2.531-3.672-5.557,0-5.804,4.146-8.886,8.749-8.886,5.571,0,7.799,3.786,7.799,7.935,0,.951,0,4.243-3.324,6.526-1.881,1.312-4.127,1.484-4.42,1.484-1.205,0-1.224-1.161-1.224-1.313,0-.989.676-1.104,1.352-1.198,1.461-.229,5.096-.818,5.096-5.67,0-3.121-1.625-5.195-4.475-5.386-.603,4.947-1.771,8.221-2.667,9.762ZM169.196,101.65c-2.101,1.351-2.759,3.768-2.759,5.632,0,1.827.713,2.854,1.443,2.854.767,0,1.315-1.065,1.808-2.436,1.005-2.778,1.315-4.833,1.59-6.907-.42.114-1.206.305-2.082.856Z"/><path class="cls-1" d="M183.901,101.022c-.255,0-1.205-.02-1.205-1.199,0-.913.529-1.218,1.205-1.218h12.621c.822,0,1.863.19,1.863,1.579,0,.666-.493,2.531-1.717,4.148-1.206,1.599-3.142,2.893-3.781,2.893-.712,0-1.26-.704-1.26-1.352,0-.494.219-.628,1.132-1.18,1.754-1.065,2.74-2.835,2.74-3.387,0-.285-.22-.285-.566-.285h-11.032ZM191.317,104.066c0,1.275-.073,4.566-2.521,7.611-1.261,1.561-3.032,2.816-3.964,2.816-.657,0-1.205-.686-1.205-1.39,0-.552.164-.646,1.479-1.427,1.753-1.027,3.652-2.702,3.763-6.755.055-1.808.055-1.922.328-2.207.183-.19.476-.305.932-.305,1.188,0,1.188.913,1.188,1.655Z"/><path class="cls-1" d="M212.689,99.062c1.918,0,1.991,1.16,1.991,1.846,0,.229-.183,5.023-3.306,8.771-2.831,3.425-7.233,4.528-8.128,4.528-1.114,0-1.224-1.18-1.224-1.389,0-.799.639-.971,1.388-1.18,4.457-1.218,6.739-3.882,7.653-6.146.657-1.599.895-3.083.895-3.426,0-.514-.329-.514-.584-.514h-10.064c-.273,0-1.224,0-1.224-1.236,0-1.161.768-1.256,1.224-1.256h11.379Z"/><path class="cls-1" d="M222.938,102.24c-1.114,1.541-3.78,4.414-4.968,4.414-.64,0-1.169-.723-1.169-1.274,0-.457.273-.724.749-1.066,2.776-1.997,3.78-3.938,4.493-5.309.548-1.065.693-1.351,1.406-1.351.475,0,1.352.267,1.352,1.027,0,.438-.347,1.085-.42,1.237h5.406c1.077,0,1.826.438,1.826,1.598,0,.78-.785,6.185-4.895,9.609-3.087,2.568-7.123,3.406-7.599,3.406-.858,0-1.187-.762-1.187-1.313,0-.818.438-.933,1.241-1.16,2.21-.609,4.329-1.18,6.375-3.025-1.261-1.104-1.571-1.294-3.489-2.493-.584-.361-.84-.666-.84-1.084s.457-1.143,1.15-1.143c.457,0,.896.172,1.937.8,1.809,1.084,2.539,1.75,2.831,2.017,1.205-1.884,1.826-4.109,1.826-4.51,0-.38-.237-.38-.676-.38h-5.352Z"/><path class="cls-1" d="M234.557,107.51c-.401,0-1.352,0-1.352-1.294,0-1.237.822-1.312,1.352-1.312h13.589c.384,0,1.352,0,1.352,1.293,0,1.275-.858,1.313-1.352,1.313h-13.589Z"/><path class="cls-1" d="M261.007,99.081c0-.552.164-1.198,1.205-1.198.785,0,1.224.323,1.224,1.198v2.359h1.918c.237,0,1.205,0,1.205,1.18,0,.895-.529,1.199-1.205,1.199h-1.918v2.227c0,2.701-.529,5.556-4.055,7.269-1.826.894-3.635,1.18-4.201,1.18-1.187,0-1.26-1.18-1.26-1.39,0-.875.512-.97,1.881-1.18,2.064-.323,4.037-1.332,4.749-3.006.457-1.047.457-2.702.457-2.931v-2.169h-5.589v3.768c0,.818-.384,1.18-1.188,1.18-.621,0-1.206-.19-1.206-1.18v-3.768h-1.881c-.237,0-1.205,0-1.205-1.18,0-.913.565-1.199,1.205-1.199h1.881v-2.321c0-.494.128-1.18,1.188-1.18.804,0,1.206.343,1.206,1.18v2.321h5.589v-2.359Z"/><path class="cls-1" d="M268.352,107.51c-.401,0-1.352,0-1.352-1.294,0-1.237.822-1.312,1.352-1.312h13.589c.384,0,1.352,0,1.352,1.293,0,1.275-.858,1.313-1.352,1.313h-13.589Z"/><path class="cls-1" d="M288.117,110.117c0,1.313.128,1.352,3.252,1.352,1.589,0,3.488-.02,4.767-.076.329-.02,1.717-.114,2.009-.114s1.133,0,1.133,1.198c0,1.085-.768,1.294-1.79,1.37-1.096.096-4.603.076-5.991.076-.913,0-2.685,0-3.488-.114-1.918-.267-2.393-1.561-2.393-2.987v-11.606c0-.59.146-1.18,1.242-1.18.913,0,1.26.38,1.26,1.18v4.643c2.43-.628,4.822-1.484,7.087-2.588,1.078-.533,1.406-.685,1.845-.685.603,0,1.188.703,1.188,1.407,0,.477-.164.838-1.863,1.561-.877.381-2.521,1.027-4.292,1.617-2.119.724-3.27.989-3.964,1.142v3.806ZM296.702,98.035c-.055-.134-.073-.286-.073-.419,0-.438.457-.533.657-.533.348,0,.493.248.768.933.183.457.438,1.294.438,1.561,0,.608-.621.608-.658.608-.164,0-.401-.057-.529-.399-.109-.267-.219-.704-.311-.97-.055-.152-.201-.533-.292-.78ZM298.857,97.825c-.019-.114-.055-.228-.055-.342,0-.438.456-.552.657-.552.384,0,.493.266.768.932.311.742.456,1.294.456,1.542,0,.552-.548.608-.657.608-.42,0-.475-.171-.858-1.351-.037-.134-.274-.686-.311-.838Z"/><path class="cls-1" d="M302.896,101.022c-.384,0-1.206-.096-1.206-1.199,0-.895.512-1.218,1.206-1.218h9.077c.841,0,1.991.152,1.991,1.637,0,1.332-1.389,4.376-2.978,6.641,1.023.799,2.393,1.884,4.566,3.996,1.005.97,1.169,1.294,1.169,1.788,0,.799-.694,1.427-1.406,1.427-.585,0-.822-.285-1.461-1.046-1.443-1.713-3.489-3.653-4.293-4.319-2.575,3.025-6.21,5.479-7.287,5.479-.621,0-1.169-.666-1.169-1.407,0-.59.183-.686,1.479-1.39,5.662-3.082,8.456-9.267,8.456-10.085,0-.285-.2-.304-.511-.304h-7.635Z"/><path class="cls-1" d="M2.795,99.576c0,.247-.11,1.256-.128,1.465-.037.514-.183,2.169-.183,3.787,0,1.636.183,4.471.913,5.784.183.323.566.666,1.078.666.968,0,1.571-1.142,1.973-2.455.292-.913.384-1.274,1.114-1.274.694,0,1.297.419,1.297,1.142,0,.818-.475,1.902-1.005,2.893-.603,1.122-1.644,2.549-3.507,2.549C.11,114.131.11,106.54.11,104.503c0-1.56.146-4.719.274-5.232.219-.818.767-.856,1.315-.856.731,0,1.096.438,1.096,1.161ZM13.498,111.354c0-3.14,0-5.747-.858-7.82-.584-1.37-1.553-1.504-2.247-1.599-.475-.058-1.114-.133-1.114-1.218,0-.361.128-1.256,1.278-1.256.731,0,2.85.323,4.073,2.416,1.096,1.884,1.443,5.575,1.443,9.077,0,.799,0,1.826-1.278,1.826-1.297,0-1.297-.933-1.297-1.427Z"/><path class="cls-1" d="M21.885,111.049c.183,0,.84.076,1.06.095.566.058,1.132.076,1.534.076,1.443,0,7.178,0,7.178-5.156,0-1.713-.511-2.664-1.242-3.292-.584-.494-1.498-1.027-3.215-1.027-2.593,0-4.876.799-7.397,1.675-.238.076-.53.171-.786.171-.986,0-1.187-.951-1.187-1.446,0-1.046.566-1.198,2.356-1.712,2.557-.742,5.352-1.123,7.233-1.123,4.986,0,6.849,3.121,6.849,6.66,0,.97-.055,4.224-3.178,6.26-2.155,1.389-5.644,1.503-7.032,1.503-.42,0-1.917-.019-2.593-.209-.731-.209-.822-.875-.822-1.18,0-.514.091-1.294,1.242-1.294Z"/><path class="cls-1" d="M46.125,103.667c.676-.019,3.689-.095,4.311-.114.219-.019.383-.019.457-.019.347,0,1.078.057,1.078,1.084s-.658,1.047-1.571,1.065c-.676.02-3.635.114-4.237.134l.036,2.226c2.229.762,4.347,2.341,5.206,3.063.749.628.749,1.047.749,1.237,0,.742-.584,1.427-1.224,1.427-.475,0-.749-.229-1.297-.761-.493-.476-1.352-1.142-2.229-1.731-.493-.323-.858-.533-1.187-.704-.091,1.884-.493,3.938-4.091,3.938-2.977,0-5.151-1.236-5.151-3.558,0-2.018,1.753-3.597,5.078-3.597.822,0,1.388.095,1.735.133l-.037-1.636c-1.406.019-3.635.057-5.041.057-1.078,0-1.771,0-1.771-1.084,0-.856.548-1.066,1.096-1.066,1.589,0,4.109-.038,5.68-.038l-.037-1.731c-1.424.02-3.689.058-5.114.058-1.096,0-1.79,0-1.79-1.104,0-1.065.84-1.065,1.278-1.065h.986c.731,0,3.945-.038,4.603-.038l-.019-1.085c-.018-.913.621-1.123,1.206-1.123.694,0,1.187.248,1.206,1.123l.018,1.027c.712-.019,3.872-.095,4.53-.133.219,0,.402-.02.457-.02.274,0,1.096.02,1.096,1.085,0,1.047-.676,1.085-1.516,1.104-2.027.076-2.265.057-4.53.133l.037,1.713ZM41.943,109.318c-.786,0-2.703.152-2.703,1.579,0,1.027,1.206,1.484,2.575,1.484,1.315,0,1.827-.438,1.936-1.199.055-.342.055-.552.055-1.56-.347-.114-.895-.305-1.863-.305Z"/><path class="cls-1" d="M57.234,101.65c-.219.019-1.188.114-1.388.114-1.06,0-1.206-.78-1.206-1.313,0-.818.311-1.218,1.187-1.312.95-.096,11.16-.457,13.114-.457,1.041,0,1.881,0,1.881,1.218,0,1.275-.84,1.275-1.845,1.275-1.461.019-2.575.323-4.42,1.503-1.26.799-3.671,2.854-3.671,5.651,0,2.606,2.119,3.329,5.498,3.329,1.461,0,1.625-.019,1.899.058.603.152.786.608.786,1.123,0,1.465-1.096,1.465-2.21,1.465-2.594,0-4.621-.552-5.863-1.142-1.826-.876-2.612-2.778-2.612-4.604,0-1.39.329-3.197,2.338-5.31,1.041-1.084,1.772-1.541,2.557-2.017-2.009.133-4.037.267-6.045.419ZM66.128,103.952c-.055-.114-.091-.247-.091-.361,0-.361.402-.57.658-.57.292,0,.438.151.84.855.219.381.676,1.332.676,1.637,0,.476-.475.609-.694.609s-.383-.19-.493-.4c-.127-.247-.292-.628-.42-.875-.073-.133-.402-.761-.475-.895ZM68.083,103.058c-.073-.152-.091-.267-.091-.381,0-.343.383-.552.639-.552.329,0,.457.229.804.818.128.209.712,1.198.712,1.655,0,.399-.384.59-.676.59-.237,0-.42-.21-.475-.305-.073-.152-.383-.818-.438-.933-.073-.152-.42-.761-.475-.894Z"/><path class="cls-1" d="M79.1,105.208c2.356-.038,2.393-.038,3.05-.076.219,0,1.187-.076,1.388-.076.256,0,1.169.02,1.169,1.142,0,.99-.712,1.104-.895,1.123-.511.076-3.835.19-4.657.19h-.256c-.055.875-.073,1.522-.073,1.712,0,1.58.31,2.893,3.525,2.893,2.704,0,4.073-.837,4.073-3.425,0-.913-.256-1.77-.42-2.303-.164-.476-.201-.608-.201-.837,0-.666.713-.951,1.224-.951.713,0,1.06.438,1.334.97.328.686.603,1.884.603,3.254,0,4.833-3.123,5.709-6.594,5.709-4.438,0-5.991-1.789-5.991-5.328,0-.381.055-1.256.073-1.693-.603,0-2.338-.02-2.74-.114-.42-.114-.676-.514-.676-1.065,0-1.123.913-1.142,1.206-1.142.676,0,1.735.038,2.393.038l.219-2.55c-.584,0-2.356.019-2.776-.096-.365-.095-.658-.494-.658-1.084,0-1.065.84-1.142,1.224-1.142.365,0,2.063.038,2.393.057l.128-1.484c.055-.59.109-1.294,1.26-1.294.749,0,1.406.305,1.296,1.352l-.146,1.408c1.297-.02,2.868-.02,4.859-.114.219-.02,1.26-.076,1.461-.076.292,0,1.205.019,1.205,1.142,0,1.085-.767,1.123-1.479,1.16-2.082.096-4.182.152-6.265.172l-.255,2.53Z"/><path class="cls-1" d="M93.386,107.187c-.822.076-1.534.133-1.753.133-.969,0-.969-.933-.969-1.047,0-.97.658-.989,1.297-1.008.475-.704.548-.838.95-1.446-.329-.419-.457-.571-1.645-1.827-.401-.418-.548-.608-.548-.875,0-.494.438-1.122,1.041-1.122.165,0,.274.057.366.095.127-.267.365-.704.712-1.522.457-1.104.548-1.332,1.041-1.332.585,0,1.205.419,1.205.99,0,.266-.146.59-.475,1.255-.292.553-.749,1.408-1.06,1.96.055.076.402.476.476.552.2-.323,1.132-1.979,1.352-2.359.146-.247.328-.514.712-.514.164,0,.694.058,1.041.666-.019-.989.694-1.065,1.096-1.065h3.087v-.59c0-.646.348-.895,1.151-.895.876,0,1.004.514,1.004.895v.59h3.343c.512,0,1.114.152,1.114,1.009,0,.989-.841.989-1.114.989h-3.343v1.198h2.904c.384,0,.95.076.95.914,0,.913-.694.913-.95.913h-7.763c-.438,0-.949-.095-.949-.913,0-.876.639-.914.949-.914h2.703v-1.198h-3.087c-.347,0-.748-.038-1.004-.495-.037.267-.293.724-.493,1.065-.768,1.313-1.571,2.607-2.43,3.882.201-.019,1.169-.076,1.389-.095-.146-.552-.22-.799-.22-.971,0-.532.53-.666.785-.666.384,0,.512,0,1.297,2.417.201-1.065.932-1.142,1.973-1.142h5.991c1.698,0,2.046.399,2.046,2.131v.951c0,.799-.365,1.123-1.078,1.123-.986,0-1.004-.838-1.004-1.123v-.818c0-.323-.165-.456-.438-.456h-5.151c-.255,0-.438.114-.438.456v.8c0,.247-.018,1.142-1.004,1.142-.968,0-.968-.914-.968-1.123v-.419c-.11.076-.256.19-.585.19-.512,0-.621-.342-.712-.704-.604.096-.768.114-.95.134v7.211c0,.419-.055,1.009-.932,1.009-.895,0-.913-.666-.913-1.009v-7.021ZM92.929,109.033c0,1.065-.219,2.873-.347,3.653-.164.894-.219,1.218-.804,1.218-.164,0-1.022-.058-1.022-.78,0-.267.256-1.39.292-1.617.201-1.275.219-1.846.256-2.455.019-.552.091-.895.804-.895.821,0,.821.59.821.876ZM97.203,109.033c.201,1.16.329,2.207.329,2.777,0,.305-.073.838-.804.838-.713,0-.73-.343-.786-1.313-.036-.608-.091-1.122-.164-1.56-.055-.362-.109-.742-.109-.952,0-.494.365-.704.858-.704.512,0,.584.381.676.914ZM101.623,108.461c0,1.351-.292,3.406-.986,4.566-.529.895-1.79,2.112-2.502,2.112-.73,0-1.224-.646-1.224-1.256,0-.476.292-.685.657-.933,1.589-1.084,1.937-1.826,2.046-4.509.019-.438.109-1.066,1.041-1.066.968,0,.968.856.968,1.085ZM104.691,112.267c0,.514.11.571.694.571.493,0,.621-.038.64-.914.018-.856.018-1.37.876-1.37.932,0,.932.628.932,1.085,0,.971,0,2.416-.566,2.969-.401.38-.748.38-2.265.38-1.845,0-2.374-.152-2.374-2.149v-4.319c0-.628.183-1.143.968-1.143.657,0,1.096.152,1.096,1.143v3.748Z"/><path class="cls-1" d="M111.653,104.238c5.333-3.197,7.215-4.339,9.022-5.899.384-.323.713-.608,1.224-.608.658,0,1.407.419,1.407,1.256,0,.552-.274.875-1.224,1.599-2.448,1.826-5.114,3.272-7.8,4.699-.767.399-.968.59-.968.875s.183.457.822.742c2.611,1.218,4.603,2.132,7.671,4.054,2.137,1.331,2.411,1.693,2.411,2.378,0,.59-.548,1.37-1.334,1.37-.511,0-.876-.247-1.333-.59-1.808-1.37-3.47-2.645-6.977-4.472-.457-.247-2.576-1.236-2.978-1.465-.529-.285-1.333-.78-1.333-1.922,0-1.18.84-1.693,1.388-2.017Z"/><path class="cls-1" d="M128.368,106.197c-.219,0-1.132,0-1.132-1.046,0-.818.383-1.161,1.132-1.161h3.891c.237-.514.566-1.351.804-1.864.128-.285.329-.724,1.022-.724s1.443.4,1.443,1.028c0,.361-.109.608-.548,1.56h8.347c.292,0,1.133.02,1.133,1.104,0,.914-.566,1.104-1.133,1.104h-1.771c-.219.724-.84,2.664-2.374,4.472,1.698.762,1.862.856,3.415,1.693.512.286.877.533.877,1.161,0,.875-.676,1.427-1.224,1.427-.421,0-.548-.076-2.138-1.046-1.169-.724-2.265-1.237-2.831-1.504-.931.704-1.99,1.218-3.086,1.618-2.21.799-4.731,1.046-5.225,1.046-.237,0-1.169,0-1.169-1.312,0-1.065.713-1.142,1.242-1.18,1.224-.096,3.434-.286,5.553-1.313-1.022-.38-1.26-.456-3.488-1.18-.548-.171-1.261-.399-1.261-1.218,0-.418.183-.78.42-1.18.421-.685.457-.761.877-1.484h-2.776ZM141.921,98.757c1.37,0,2.119.457,2.119,2.207v1.275c0,.59-.128,1.218-1.078,1.218-.822,0-1.26-.229-1.26-1.18v-.856c0-.343-.146-.552-.53-.552h-10.648c-.365,0-.529.19-.529.552v.856c0,.38-.037,1.18-1.096,1.18-.95,0-1.261-.361-1.261-1.18v-1.313c0-1.693.694-2.207,2.119-2.207h4.895v-.608c0-.647.365-.952,1.078-.952.821,0,1.278.19,1.278.952v.608h4.913ZM133.866,106.197c-.347.628-.529.952-.822,1.428-.164.285-.237.38-.237.514,0,.305.274.381.438.438,1.188.361,2.722.818,3.562,1.142,1.278-1.332,1.918-2.854,2.21-3.521h-5.15Z"/><path class="cls-1" d="M149.376,104.066c0,.514-.256,4.11-1.224,7.154-.365,1.18-.585,1.637-1.297,1.637-.603,0-1.406-.476-1.406-1.312,0-.267.055-.438.548-1.922.748-2.265.932-4.434,1.004-5.442.073-.951.293-1.236,1.279-1.236.055,0,1.096,0,1.096,1.122ZM157.248,101.935c-.219,0-.493-.095-.931-.285-2.082-.914-3.032-1.332-5.79-1.922-.401-.076-1.022-.21-1.022-1.065,0-.267.128-1.294,1.096-1.294.657,0,3.562.685,6.027,1.674,1.333.533,1.662.742,1.662,1.428,0,.552-.347,1.465-1.041,1.465ZM152.883,111.792c0,.666.347.666,1.15.666,2.082,0,2.082-.02,2.265-.476.128-.286.146-.457.292-2.15.037-.361.11-1.104,1.078-1.104,1.205,0,1.205.989,1.205,1.256,0,1.065-.219,3.063-.821,3.9-.676.933-1.406.971-3.762.971-1.534,0-2.064,0-2.558-.114-1.224-.285-1.224-1.675-1.224-2.112v-9.761c0-.457.073-1.161,1.151-1.161,1.15,0,1.224.686,1.224,1.161v8.924ZM161.193,105.037c1.004,2.893,1.57,5.918,1.57,6.679,0,1.142-1.096,1.18-1.388,1.18-.913,0-1.06-.647-1.151-1.18-.584-3.615-.821-4.281-1.881-7.25-.055-.152-.201-.57-.201-.875,0-.59.53-1.047,1.334-1.047.693,0,.876.114,1.717,2.493Z"/><path class="cls-1" d="M170.985,110.498c-.895,1.503-1.862,2.303-3.214,2.303-2.375,0-3.672-2.531-3.672-5.557,0-5.804,4.146-8.886,8.749-8.886,5.571,0,7.799,3.786,7.799,7.935,0,.951,0,4.243-3.324,6.526-1.881,1.312-4.127,1.484-4.42,1.484-1.205,0-1.224-1.161-1.224-1.313,0-.989.676-1.104,1.352-1.198,1.461-.229,5.096-.818,5.096-5.67,0-3.121-1.625-5.195-4.475-5.386-.603,4.947-1.771,8.221-2.667,9.762ZM169.196,101.65c-2.101,1.351-2.759,3.768-2.759,5.632,0,1.827.713,2.854,1.443,2.854.767,0,1.315-1.065,1.808-2.436,1.005-2.778,1.315-4.833,1.59-6.907-.42.114-1.206.305-2.082.856Z"/><path class="cls-1" d="M183.901,101.022c-.255,0-1.205-.02-1.205-1.199,0-.913.529-1.218,1.205-1.218h12.621c.822,0,1.863.19,1.863,1.579,0,.666-.493,2.531-1.717,4.148-1.206,1.599-3.142,2.893-3.781,2.893-.712,0-1.26-.704-1.26-1.352,0-.494.219-.628,1.132-1.18,1.754-1.065,2.74-2.835,2.74-3.387,0-.285-.22-.285-.566-.285h-11.032ZM191.317,104.066c0,1.275-.073,4.566-2.521,7.611-1.261,1.561-3.032,2.816-3.964,2.816-.657,0-1.205-.686-1.205-1.39,0-.552.164-.646,1.479-1.427,1.753-1.027,3.652-2.702,3.763-6.755.055-1.808.055-1.922.328-2.207.183-.19.476-.305.932-.305,1.188,0,1.188.913,1.188,1.655Z"/><path class="cls-1" d="M212.689,99.062c1.918,0,1.991,1.16,1.991,1.846,0,.229-.183,5.023-3.306,8.771-2.831,3.425-7.233,4.528-8.128,4.528-1.114,0-1.224-1.18-1.224-1.389,0-.799.639-.971,1.388-1.18,4.457-1.218,6.739-3.882,7.653-6.146.657-1.599.895-3.083.895-3.426,0-.514-.329-.514-.584-.514h-10.064c-.273,0-1.224,0-1.224-1.236,0-1.161.768-1.256,1.224-1.256h11.379Z"/><path class="cls-1" d="M222.938,102.24c-1.114,1.541-3.78,4.414-4.968,4.414-.64,0-1.169-.723-1.169-1.274,0-.457.273-.724.749-1.066,2.776-1.997,3.78-3.938,4.493-5.309.548-1.065.693-1.351,1.406-1.351.475,0,1.352.267,1.352,1.027,0,.438-.347,1.085-.42,1.237h5.406c1.077,0,1.826.438,1.826,1.598,0,.78-.785,6.185-4.895,9.609-3.087,2.568-7.123,3.406-7.599,3.406-.858,0-1.187-.762-1.187-1.313,0-.818.438-.933,1.241-1.16,2.21-.609,4.329-1.18,6.375-3.025-1.261-1.104-1.571-1.294-3.489-2.493-.584-.361-.84-.666-.84-1.084s.457-1.143,1.15-1.143c.457,0,.896.172,1.937.8,1.809,1.084,2.539,1.75,2.831,2.017,1.205-1.884,1.826-4.109,1.826-4.51,0-.38-.237-.38-.676-.38h-5.352Z"/><path class="cls-1" d="M234.557,107.51c-.401,0-1.352,0-1.352-1.294,0-1.237.822-1.312,1.352-1.312h13.589c.384,0,1.352,0,1.352,1.293,0,1.275-.858,1.313-1.352,1.313h-13.589Z"/><path class="cls-1" d="M261.007,99.081c0-.552.164-1.198,1.205-1.198.785,0,1.224.323,1.224,1.198v2.359h1.918c.237,0,1.205,0,1.205,1.18,0,.895-.529,1.199-1.205,1.199h-1.918v2.227c0,2.701-.529,5.556-4.055,7.269-1.826.894-3.635,1.18-4.201,1.18-1.187,0-1.26-1.18-1.26-1.39,0-.875.512-.97,1.881-1.18,2.064-.323,4.037-1.332,4.749-3.006.457-1.047.457-2.702.457-2.931v-2.169h-5.589v3.768c0,.818-.384,1.18-1.188,1.18-.621,0-1.206-.19-1.206-1.18v-3.768h-1.881c-.237,0-1.205,0-1.205-1.18,0-.913.565-1.199,1.205-1.199h1.881v-2.321c0-.494.128-1.18,1.188-1.18.804,0,1.206.343,1.206,1.18v2.321h5.589v-2.359Z"/><path class="cls-1" d="M268.352,107.51c-.401,0-1.352,0-1.352-1.294,0-1.237.822-1.312,1.352-1.312h13.589c.384,0,1.352,0,1.352,1.293,0,1.275-.858,1.313-1.352,1.313h-13.589Z"/><path class="cls-1" d="M288.117,110.117c0,1.313.128,1.352,3.252,1.352,1.589,0,3.488-.02,4.767-.076.329-.02,1.717-.114,2.009-.114s1.133,0,1.133,1.198c0,1.085-.768,1.294-1.79,1.37-1.096.096-4.603.076-5.991.076-.913,0-2.685,0-3.488-.114-1.918-.267-2.393-1.561-2.393-2.987v-11.606c0-.59.146-1.18,1.242-1.18.913,0,1.26.38,1.26,1.18v4.643c2.43-.628,4.822-1.484,7.087-2.588,1.078-.533,1.406-.685,1.845-.685.603,0,1.188.703,1.188,1.407,0,.477-.164.838-1.863,1.561-.877.381-2.521,1.027-4.292,1.617-2.119.724-3.27.989-3.964,1.142v3.806ZM296.702,98.035c-.055-.134-.073-.286-.073-.419,0-.438.457-.533.657-.533.348,0,.493.248.768.933.183.457.438,1.294.438,1.561,0,.608-.621.608-.658.608-.164,0-.401-.057-.529-.399-.109-.267-.219-.704-.311-.97-.055-.152-.201-.533-.292-.78ZM298.857,97.825c-.019-.114-.055-.228-.055-.342,0-.438.456-.552.657-.552.384,0,.493.266.768.932.311.742.456,1.294.456,1.542,0,.552-.548.608-.657.608-.42,0-.475-.171-.858-1.351-.037-.134-.274-.686-.311-.838Z"/><path class="cls-1" d="M302.896,101.022c-.384,0-1.206-.096-1.206-1.199,0-.895.512-1.218,1.206-1.218h9.077c.841,0,1.991.152,1.991,1.637,0,1.332-1.389,4.376-2.978,6.641,1.023.799,2.393,1.884,4.566,3.996,1.005.97,1.169,1.294,1.169,1.788,0,.799-.694,1.427-1.406,1.427-.585,0-.822-.285-1.461-1.046-1.443-1.713-3.489-3.653-4.293-4.319-2.575,3.025-6.21,5.479-7.287,5.479-.621,0-1.169-.666-1.169-1.407,0-.59.183-.686,1.479-1.39,5.662-3.082,8.456-9.267,8.456-10.085,0-.285-.2-.304-.511-.304h-7.635Z"/></g></svg>