<svg width="479" height="61" viewBox="0 0 479 61" fill="none" xmlns="http://www.w3.org/2000/svg">
<path d="M439.558 8.09598C439.052 8.09598 438.638 7.68198 438.638 7.17598C438.638 6.66998 439.052 6.25598 439.558 6.25598C440.547 6.25598 442.042 6.25598 442.617 6.25598C442.709 6.25598 442.801 6.18698 442.801 6.09498C442.801 5.79598 442.801 5.42798 442.801 5.15198C442.801 5.05998 442.709 4.96798 442.617 4.96798C442.341 4.96798 441.628 4.96798 441.214 4.96798C440.708 4.96798 440.294 4.57698 440.294 4.07098C440.294 3.56498 440.708 3.15098 441.214 3.15098C441.628 3.15098 442.341 3.15098 442.617 3.15098C442.709 3.15098 442.801 3.05898 442.801 2.96698C442.801 2.69098 442.801 2.25398 442.801 1.83998C442.801 1.33398 443.192 0.919983 443.698 0.919983C444.204 0.919983 444.618 1.33398 444.618 1.83998C444.618 2.25398 444.618 2.69098 444.618 2.96698C444.618 3.05898 444.71 3.15098 444.802 3.15098C445.078 3.15098 445.906 3.15098 446.32 3.15098C446.826 3.15098 447.24 3.56498 447.24 4.07098C447.24 4.57698 446.826 4.96798 446.32 4.96798C445.906 4.96798 445.078 4.96798 444.802 4.96798C444.71 4.96798 444.618 5.05998 444.618 5.15198C444.618 5.42798 444.618 5.79598 444.618 6.09498C444.618 6.18698 444.71 6.25598 444.802 6.25598C445.354 6.25598 446.872 6.25598 447.815 6.25598C448.321 6.25598 448.735 6.66998 448.735 7.17598C448.735 7.68198 448.321 8.09598 447.815 8.09598H439.558ZM446.458 10.925C446.044 11.27 445.446 11.247 445.078 10.856C444.71 10.511 444.733 9.93598 445.101 9.59098C445.239 9.47598 445.377 9.33798 445.492 9.22298C445.86 8.83198 446.458 8.80898 446.872 9.13098C447.286 9.45298 447.332 10.074 446.964 10.465C446.803 10.603 446.642 10.764 446.458 10.925ZM442.157 10.902C441.743 11.201 441.145 11.155 440.8 10.787C440.708 10.695 440.478 10.511 440.409 10.419C440.041 10.074 440.064 9.49898 440.432 9.15398C440.823 8.80898 441.444 8.80898 441.812 9.17698C441.927 9.29198 442.157 9.49898 442.272 9.59098C442.617 9.98198 442.571 10.58 442.157 10.902ZM444.687 17.388C444.687 17.756 444.687 18.63 444.687 19.251C444.687 19.757 444.273 20.194 443.767 20.194C443.238 20.194 442.824 19.757 442.824 19.251C442.824 18.653 442.824 17.779 442.824 17.388C442.824 17.296 442.732 17.204 442.64 17.204C442.249 17.204 441.145 17.204 440.501 17.204C439.972 17.204 439.558 16.79 439.558 16.261C439.558 15.732 439.972 15.318 440.501 15.318C441.145 15.318 442.249 15.318 442.64 15.318C442.732 15.318 442.824 15.249 442.824 15.134C442.824 14.789 442.824 14.26 442.824 13.915C442.824 13.823 442.732 13.754 442.64 13.754C442.272 13.754 441.214 13.754 440.639 13.754C440.133 13.754 439.719 13.34 439.719 12.834C439.719 12.328 440.133 11.914 440.639 11.914H446.619C447.125 11.914 447.539 12.328 447.539 12.834C447.539 13.34 447.125 13.754 446.619 13.754C446.159 13.754 445.17 13.754 444.871 13.754C444.779 13.754 444.687 13.823 444.687 13.915C444.687 14.26 444.687 14.789 444.687 15.134C444.687 15.249 444.779 15.318 444.871 15.318C445.239 15.318 446.251 15.318 446.872 15.318C447.401 15.318 447.815 15.732 447.815 16.261C447.815 16.79 447.401 17.204 446.872 17.204C446.251 17.204 445.239 17.204 444.871 17.204C444.779 17.204 444.687 17.273 444.687 17.388ZM457.705 16.652C457.659 16.744 457.682 16.836 457.751 16.905C458.487 17.572 459.154 17.664 460.304 18.055C460.787 18.216 460.994 18.768 460.741 19.205C460.465 19.711 459.867 19.941 459.315 19.757C458.096 19.343 457.59 19.228 456.486 18.4C456.417 18.331 456.302 18.331 456.233 18.377C456.118 18.469 455.681 18.814 455.52 18.906C455.06 19.228 454.416 19.297 454.025 18.883C453.68 18.538 453.749 17.825 454.163 17.549C454.301 17.457 454.738 17.112 454.899 16.974C454.968 16.905 454.991 16.79 454.922 16.721C454.83 16.606 454.715 16.445 454.577 16.284C454.278 15.87 454.37 15.295 454.807 14.996C455.244 14.72 455.842 14.973 456.141 15.387C456.187 15.456 456.279 15.456 456.325 15.387C456.716 14.789 457.015 14.099 457.222 13.156C457.245 13.064 457.176 12.995 457.084 12.995C456.67 12.995 455.773 12.995 455.152 12.995C454.623 12.995 454.209 12.558 454.209 12.052C454.209 11.523 454.623 11.109 455.152 11.109H458.303C458.924 11.109 459.384 11.661 459.292 12.282C459.039 13.869 458.51 15.433 457.705 16.652ZM452.3 20.125C451.794 20.125 451.357 19.711 451.357 19.205V2.85198C451.357 2.20798 451.886 1.70198 452.507 1.70198H458.303C458.947 1.70198 459.453 2.20798 459.453 2.85198V7.42898C459.453 8.09598 458.947 8.64798 458.303 8.69398C457.383 8.73998 456.992 8.71698 456.555 8.67098C456.003 8.60198 455.543 8.30298 455.451 7.75098C455.359 7.26798 455.727 6.71598 456.21 6.73898C456.532 6.73898 456.762 6.73898 457.13 6.73898C457.222 6.73898 457.291 6.64698 457.291 6.55498C457.291 5.93398 457.291 4.36998 457.291 3.74898C457.291 3.65698 457.222 3.58798 457.13 3.58798C456.417 3.58798 454.117 3.58798 453.404 3.58798C453.312 3.58798 453.243 3.65698 453.243 3.74898V19.205C453.243 19.711 452.829 20.125 452.3 20.125Z" fill="#53370F"/>
<path d="M432.957 6.371C432.957 6.509 432.957 6.808 432.957 6.946C432.957 7.038 433.026 7.107 433.118 7.107C433.693 7.107 435.464 7.107 436.476 7.107C436.982 7.107 437.396 7.521 437.396 8.027C437.396 8.533 436.982 8.947 436.476 8.947H427.322C426.816 8.947 426.402 8.533 426.402 8.027C426.402 7.521 426.816 7.107 427.322 7.107C428.357 7.107 430.243 7.107 430.841 7.107C430.933 7.107 431.025 7.038 431.025 6.946C431.025 6.808 431.025 6.509 431.025 6.371C431.025 6.279 430.933 6.21 430.841 6.21C430.68 6.21 430.22 6.21 430.013 6.21C429.507 6.21 429.116 5.796 429.116 5.313C429.116 4.83 429.507 4.439 430.013 4.439C430.22 4.439 430.68 4.439 430.841 4.439C430.933 4.439 431.025 4.347 431.025 4.255C431.025 4.14 431.025 3.91 431.025 3.795C431.025 3.703 430.933 3.611 430.841 3.611C430.381 3.611 429.346 3.611 428.564 3.611C428.058 3.611 427.621 3.197 427.621 2.668C427.621 2.139 428.058 1.725 428.564 1.725C429.346 1.725 430.381 1.725 430.841 1.725C430.933 1.725 431.025 1.633 431.025 1.541C431.025 1.426 431.025 1.104 431.025 0.966C431.025 0.437 431.462 0 431.991 0C432.52 0 432.957 0.437 432.957 0.966C432.957 1.104 432.957 1.426 432.957 1.541C432.957 1.633 433.026 1.725 433.118 1.725C433.578 1.725 434.636 1.725 435.395 1.725C435.924 1.725 436.338 2.139 436.338 2.668C436.338 3.197 435.924 3.611 435.395 3.611C434.636 3.611 433.578 3.611 433.118 3.611C433.026 3.611 432.957 3.703 432.957 3.795C432.957 3.91 432.957 4.14 432.957 4.255C432.957 4.347 433.026 4.439 433.118 4.439C433.256 4.439 433.693 4.439 433.877 4.439C434.383 4.439 434.774 4.83 434.774 5.313C434.774 5.796 434.383 6.21 433.877 6.21C433.693 6.21 433.256 6.21 433.118 6.21C433.026 6.21 432.957 6.279 432.957 6.371ZM433.141 18.515C433.325 18.538 433.509 18.538 433.647 18.538C433.739 18.538 433.831 18.469 433.831 18.377C433.831 18.124 433.831 17.917 433.831 17.687C433.831 17.595 433.739 17.526 433.647 17.526C433.302 17.526 432.681 17.526 432.175 17.526C431.669 17.526 431.255 17.112 431.255 16.606C431.255 16.1 431.669 15.686 432.175 15.686C432.681 15.686 433.302 15.686 433.647 15.686C433.739 15.686 433.831 15.617 433.831 15.502C433.831 15.364 433.831 15.226 433.831 15.088C433.831 14.996 433.739 14.904 433.647 14.904C433.302 14.904 432.704 14.904 432.198 14.904C431.669 14.904 431.255 14.49 431.255 13.984C431.255 13.455 431.669 13.041 432.198 13.041C432.704 13.041 433.302 13.041 433.647 13.041C433.739 13.041 433.831 12.949 433.831 12.857C433.831 12.696 433.831 12.512 433.831 12.351C433.831 12.259 433.739 12.167 433.647 12.167C433.026 12.167 431.37 12.167 430.726 12.167C430.634 12.167 430.565 12.259 430.565 12.351C430.565 13.087 430.496 13.777 430.473 14.444C430.404 15.594 430.243 17.319 429.254 19.55C429.024 20.079 428.472 20.378 427.92 20.24C427.437 20.148 427.161 19.619 427.368 19.159C428.403 16.928 428.541 15.916 428.633 14.375C428.702 13.524 428.725 12.581 428.702 11.5C428.702 10.856 429.208 10.327 429.829 10.327H434.567C435.211 10.327 435.717 10.856 435.717 11.477V19.205C435.717 19.849 435.211 20.378 434.567 20.401C434.291 20.401 433.808 20.378 433.509 20.378C432.75 20.401 432.451 20.033 432.313 19.458C432.198 18.975 432.635 18.515 433.141 18.515ZM420.146 2.484C420.675 2.484 421.089 2.898 421.089 3.427V18.4C421.089 18.929 420.675 19.366 420.146 19.366C419.617 19.366 419.203 18.929 419.203 18.4V3.427C419.203 2.898 419.617 2.484 420.146 2.484ZM423.642 9.89C423.757 9.982 424.171 10.212 424.332 10.304C424.746 10.557 424.861 11.109 424.585 11.5C424.286 11.937 423.711 12.052 423.251 11.776C423.067 11.638 422.63 11.385 422.469 11.247C422.078 10.948 422.032 10.373 422.377 10.005C422.722 9.66 423.251 9.614 423.642 9.89ZM416.604 9.959C416.995 9.683 417.524 9.729 417.869 10.074C418.214 10.442 418.168 11.017 417.777 11.316C417.616 11.454 417.179 11.707 416.995 11.822C416.558 12.121 415.96 12.006 415.661 11.569C415.385 11.178 415.5 10.626 415.914 10.373C416.075 10.258 416.489 10.051 416.604 9.959Z" fill="#53370F"/>
<path d="M401.424 11.086C401.424 9.93602 401.424 7.56702 401.424 6.96902C401.424 6.87702 401.332 6.80802 401.24 6.80802C400.596 6.80802 398.871 6.80802 397.721 6.80802C397.192 6.80802 396.778 6.37102 396.778 5.84202C396.778 5.33602 397.192 4.89902 397.721 4.89902C398.871 4.89902 400.596 4.89902 401.24 4.89902C401.332 4.89902 401.424 4.83002 401.424 4.73802C401.424 4.27802 401.424 3.19702 401.424 2.48402C401.424 1.95502 401.838 1.54102 402.367 1.54102C402.873 1.54102 403.287 1.95502 403.287 2.48402C403.287 3.19702 403.287 4.27802 403.287 4.73802C403.287 4.83002 403.379 4.89902 403.471 4.89902C404.299 4.89902 407.473 4.89902 409.037 4.89902C409.566 4.89902 410.003 5.33602 410.003 5.84202C410.003 6.37102 409.566 6.80802 409.037 6.80802C407.473 6.80802 404.299 6.80802 403.471 6.80802C403.379 6.80802 403.287 6.87702 403.287 6.96902C403.287 7.54402 403.287 9.61402 403.287 10.212C403.287 10.304 403.379 10.373 403.471 10.373C406.76 10.373 408.048 12.627 408.048 14.835C408.048 17.112 406.691 18.906 404.368 19.826C403.793 20.056 402.942 19.918 402.597 19.412C402.367 19.113 402.459 18.423 403.149 18.216C405.104 17.572 406.139 16.422 406.139 14.835C406.139 13.478 405.288 11.983 402.482 12.121C401.884 12.144 401.401 11.707 401.424 11.086Z" fill="#53370F"/>
<path d="M374.836 10.672C375.296 10.373 375.917 10.442 376.285 10.879C376.699 11.362 377.09 12.144 377.366 12.627C377.665 13.11 377.642 13.731 377.159 13.984C376.699 14.237 375.986 14.099 375.71 13.639C375.434 13.202 375.089 12.466 374.652 11.96C374.33 11.569 374.422 10.971 374.836 10.672ZM385.025 11.27C385.278 10.81 385.853 10.603 386.359 10.833C386.865 11.063 387.072 11.661 386.819 12.144C386.474 12.788 386.083 13.409 385.623 13.961C385.255 14.421 384.611 14.513 384.128 14.214C383.691 13.938 383.599 13.34 383.921 12.949C384.381 12.397 384.726 11.822 385.025 11.27ZM387.992 6.41701C387.992 6.94601 387.578 7.38301 387.049 7.38301H374.238C373.732 7.38301 373.295 6.94601 373.295 6.41701C373.295 5.91101 373.732 5.47401 374.238 5.47401H387.049C387.578 5.47401 387.992 5.91101 387.992 6.41701ZM371.961 17.825C371.961 17.319 372.398 16.882 372.904 16.882H388.544C389.05 16.882 389.487 17.319 389.487 17.825C389.487 18.354 389.05 18.768 388.544 18.768H372.904C372.398 18.768 371.961 18.354 371.961 17.825ZM380.793 1.12701C381.299 1.12701 381.713 1.54101 381.713 2.04701V4.02501C381.713 4.53101 381.299 4.94501 380.793 4.94501C380.287 4.94501 379.873 4.53101 379.873 4.02501V2.04701C379.873 1.54101 380.287 1.12701 380.793 1.12701Z" fill="#53370F"/>
<path d="M346.983 9.614C346.661 9.269 346.868 8.671 347.305 8.464C349.352 7.475 350.502 6.946 351.721 6.141C352.158 5.865 352.733 5.957 353.055 6.371C353.354 6.808 353.262 7.383 352.825 7.682C351.652 8.441 350.41 9.177 348.593 9.959C348.041 10.189 347.397 10.074 346.983 9.614ZM351.859 18.883C351.859 19.412 351.445 19.826 350.916 19.826C350.387 19.826 349.973 19.412 349.973 18.883V11.362C349.973 10.833 350.387 10.419 350.916 10.419C351.445 10.419 351.859 10.833 351.859 11.362V18.883ZM347.88 4.876C347.535 4.37 347.88 3.864 348.294 3.703C348.938 3.45 349.513 3.105 349.996 2.852C350.433 2.622 351.008 2.737 351.307 3.128C351.606 3.542 351.514 4.094 351.1 4.37C350.571 4.692 350.019 4.991 349.375 5.244C348.846 5.451 348.202 5.359 347.88 4.876ZM359.104 8.556C358.69 8.372 358.506 7.751 358.759 7.383C360.093 5.474 360.231 5.014 360.185 2.369C360.162 1.748 360.737 1.242 361.358 1.242H364.785C365.406 1.242 365.935 1.748 365.935 2.392C365.935 3.013 365.935 3.864 365.912 4.485C365.889 6.164 366.303 6.256 366.924 6.555C367.016 6.601 367.131 6.532 367.131 6.417C367.131 6.302 367.131 6.164 367.131 6.003C367.131 5.635 367.499 5.336 367.89 5.405C368.304 5.497 368.58 5.842 368.58 6.279V7.59C368.58 8.211 368.005 8.694 367.384 8.602C365.705 8.372 364.095 7.544 364.095 4.761C364.095 3.795 364.095 3.358 364.095 3.174C364.095 3.036 363.98 2.944 363.865 2.944C363.451 2.944 362.715 2.944 362.301 2.944C362.186 2.944 362.071 3.036 362.071 3.174C362.002 5.474 361.956 6.601 360.461 8.211C360.093 8.625 359.61 8.786 359.104 8.556ZM360.714 20.01C360.185 20.263 359.541 20.125 359.196 19.665C358.897 19.297 359.081 18.768 359.518 18.561C360.093 18.308 360.53 18.055 360.829 17.894C360.921 17.825 360.944 17.71 360.852 17.618C360.737 17.526 360.599 17.411 360.438 17.273C360.047 16.928 360.047 16.307 360.415 15.962C360.806 15.594 361.427 15.571 361.818 15.939C362.025 16.123 362.209 16.261 362.393 16.399C362.485 16.468 362.646 16.445 362.738 16.353C363.497 15.548 364.049 14.582 364.394 13.432C364.417 13.317 364.325 13.225 364.21 13.225C363.497 13.225 361.68 13.202 360.53 13.225C360.001 13.225 359.564 12.788 359.564 12.259C359.564 11.73 360.001 11.293 360.53 11.293H365.521C366.142 11.293 366.602 11.845 366.533 12.466C366.257 14.444 365.498 16.031 364.394 17.342C364.325 17.411 364.348 17.549 364.463 17.595C365.291 17.986 366.28 18.262 367.867 18.492C368.373 18.561 368.718 18.975 368.58 19.458C368.419 19.987 367.867 20.332 367.315 20.24C365.291 19.918 364.003 19.504 362.945 18.929C362.807 18.86 362.669 18.86 362.554 18.952C362.048 19.297 361.45 19.642 360.714 20.01Z" fill="#53370F"/>
<path d="M342.705 7.10701C342.199 7.08401 341.808 6.62401 341.854 6.14101C341.9 5.81901 341.9 5.17501 341.9 4.94501C341.877 4.43901 342.291 4.02501 342.774 4.02501C343.326 4.00201 343.763 4.43901 343.763 4.96801C343.763 5.24401 343.763 5.91101 343.74 6.18701C343.717 6.73901 343.234 7.15301 342.705 7.10701ZM333.183 19.297C330.86 19.067 328.169 17.572 328.169 14.398C328.169 11.937 329.756 10.12 332.355 9.38401C332.447 9.36101 332.516 9.26901 332.516 9.15401C332.516 8.62501 332.516 7.26801 332.516 6.69301C332.516 6.60101 332.447 6.53201 332.355 6.53201C332.01 6.53201 331.159 6.53201 330.653 6.53201C330.147 6.53201 329.733 6.11801 329.733 5.61201C329.733 5.10601 330.147 4.69201 330.653 4.69201C331.159 4.69201 332.01 4.69201 332.355 4.69201C332.447 4.69201 332.516 4.62301 332.516 4.50801C332.516 4.23201 332.516 3.72601 332.516 3.28901C332.516 2.76001 332.953 2.34601 333.459 2.34601C333.988 2.34601 334.425 2.76001 334.425 3.28901C334.425 3.72601 334.425 4.23201 334.425 4.50801C334.425 4.62301 334.494 4.69201 334.586 4.69201C335.046 4.69201 336.196 4.69201 336.955 4.69201C337.461 4.69201 337.875 5.10601 337.875 5.61201C337.875 6.11801 337.461 6.53201 336.955 6.53201C336.196 6.53201 335.046 6.53201 334.586 6.53201C334.494 6.53201 334.425 6.60101 334.425 6.69301C334.425 7.22201 334.425 8.37201 334.425 8.90101C334.425 8.99301 334.494 9.06201 334.586 9.06201C338.864 8.69401 341.785 11.247 341.785 14.835C341.785 16.629 341.003 18.17 339.324 19.642C338.91 20.01 338.174 20.056 337.714 19.757C337.346 19.527 337.323 18.998 337.645 18.722C339.278 17.273 339.853 16.215 339.853 14.789C339.853 12.397 338.105 10.465 334.586 10.833C334.494 10.856 334.425 10.925 334.425 11.04C334.402 11.983 334.402 16.192 334.379 18.239C334.379 18.883 333.827 19.366 333.183 19.297ZM332.355 11.316C330.86 11.914 329.986 13.064 329.986 14.421C329.986 15.709 330.699 16.928 332.355 17.342C332.447 17.342 332.516 17.296 332.516 17.204C332.516 16.215 332.516 12.443 332.516 11.431C332.516 11.339 332.424 11.293 332.355 11.316Z" fill="#53370F"/>
<path d="M302.478 16.1C302.018 15.962 301.788 15.433 301.995 14.996C303.49 12.029 303.974 9.683 304.089 7.038C304.135 6.233 304.112 4.807 304.089 3.795C304.066 3.151 304.571 2.645 305.192 2.645C306.986 2.645 310.344 2.645 311.218 2.645C311.31 2.645 311.379 2.553 311.379 2.461C311.379 2.162 311.379 1.656 311.379 1.196C311.379 0.690001 311.816 0.276001 312.322 0.276001C312.851 0.276001 313.266 0.690001 313.266 1.196C313.266 1.656 313.266 2.162 313.266 2.461C313.266 2.553 313.334 2.645 313.426 2.645C314.277 2.645 317.498 2.645 319.131 2.645C319.637 2.645 320.05 3.059 320.05 3.565C320.027 4.094 319.614 4.508 319.085 4.508C316.187 4.508 307.446 4.485 306.043 4.485C305.951 4.485 305.86 4.554 305.86 4.646C305.86 5.566 305.905 6.417 305.882 7.199C305.744 9.752 305.216 12.765 303.813 15.502C303.56 16.008 303.007 16.238 302.478 16.1ZM307.769 10.396C309.011 10.396 311.103 10.396 311.793 10.396C311.886 10.396 311.955 10.327 311.955 10.235C311.955 10.074 311.955 9.66 311.955 9.522C311.955 9.407 311.886 9.338 311.793 9.338C311.425 9.338 310.759 9.338 310.23 9.338C309.747 9.338 309.356 8.947 309.356 8.487C309.333 8.004 309.723 7.613 310.206 7.613C310.758 7.613 311.425 7.613 311.793 7.613C311.886 7.613 311.955 7.544 311.955 7.429C311.955 7.291 311.955 6.946 311.955 6.739C311.955 6.233 312.369 5.819 312.898 5.819C313.404 5.819 313.84 6.233 313.84 6.739C313.84 6.946 313.84 7.291 313.84 7.429C313.84 7.544 313.91 7.613 314.002 7.613C314.37 7.613 315.083 7.613 315.704 7.613C316.325 7.613 316.853 8.119 316.853 8.763C316.853 9.2 316.853 9.936 316.853 10.235C316.853 10.327 316.923 10.396 317.015 10.396C317.406 10.396 318.211 10.396 318.855 10.396C319.384 10.396 319.821 10.833 319.821 11.362C319.821 11.868 319.384 12.305 318.855 12.305C318.211 12.305 317.406 12.305 317.015 12.305C316.923 12.305 316.853 12.374 316.853 12.466C316.853 12.765 316.853 13.57 316.853 14.053C316.853 14.674 316.325 15.203 315.704 15.203C315.083 15.203 314.37 15.203 314.002 15.203C313.91 15.203 313.84 15.272 313.84 15.364C313.84 16.1 313.84 18.101 313.84 19.573C313.84 20.217 313.312 20.7 312.691 20.677L311.748 20.654C311.219 20.631 310.804 20.217 310.758 19.711C310.712 19.228 311.126 18.837 311.586 18.86C311.655 18.883 311.724 18.883 311.793 18.883C311.886 18.883 311.955 18.814 311.955 18.722C311.955 17.963 311.955 16.123 311.955 15.364C311.955 15.272 311.886 15.203 311.793 15.203C311.425 15.203 310.736 15.203 310.184 15.203C309.701 15.203 309.309 14.789 309.309 14.306C309.309 13.823 309.701 13.432 310.184 13.432C310.736 13.432 311.425 13.432 311.793 13.432C311.886 13.432 311.955 13.34 311.955 13.248C311.955 13.087 311.955 12.65 311.955 12.466C311.955 12.374 311.886 12.305 311.793 12.305C311.103 12.305 309.011 12.305 307.769 12.305C307.24 12.305 306.803 11.868 306.803 11.362C306.803 10.833 307.24 10.396 307.769 10.396ZM314.783 12.305C314.553 12.305 314.255 12.305 314.002 12.305C313.91 12.305 313.84 12.374 313.84 12.466C313.84 12.65 313.84 13.087 313.84 13.248C313.84 13.34 313.91 13.432 314.002 13.432C314.255 13.432 314.553 13.432 314.783 13.432C314.898 13.432 314.968 13.34 314.968 13.248C314.968 13.087 314.968 12.65 314.968 12.466C314.968 12.374 314.898 12.305 314.783 12.305ZM314.783 9.338C314.553 9.338 314.255 9.338 314.002 9.338C313.91 9.338 313.84 9.407 313.84 9.522C313.84 9.66 313.84 10.074 313.84 10.235C313.84 10.327 313.91 10.396 314.002 10.396C314.255 10.396 314.553 10.396 314.783 10.396C314.898 10.396 314.968 10.327 314.968 10.235C314.968 10.074 314.968 9.66 314.968 9.522C314.968 9.407 314.898 9.338 314.783 9.338ZM319.245 15.824C319.061 15.985 318.74 16.307 318.533 16.422C318.073 16.721 317.475 16.606 317.153 16.192C316.854 15.801 316.922 15.249 317.336 14.973C317.497 14.858 317.796 14.582 317.934 14.444C318.371 14.122 318.901 14.099 319.269 14.467C319.637 14.835 319.659 15.525 319.245 15.824ZM320.119 19.09C319.935 19.642 319.361 19.964 318.809 19.849C317.935 19.688 317.106 19.297 316.485 18.837C316.048 18.515 315.956 17.894 316.301 17.48C316.6 17.066 317.176 16.974 317.613 17.227C318.142 17.526 318.9 17.917 319.521 18.055C320.004 18.193 320.28 18.63 320.119 19.09ZM309.218 17.871C309.379 18.4 309.149 18.998 308.666 19.274C308.183 19.573 307.585 19.803 307.033 19.987C306.527 20.148 305.906 19.803 305.722 19.274C305.561 18.791 305.883 18.308 306.389 18.147C306.918 17.94 307.561 17.71 308.136 17.411C308.55 17.181 309.08 17.411 309.218 17.871ZM307.722 14.582C307.883 14.697 308.274 14.927 308.435 15.042C308.872 15.341 308.964 15.939 308.642 16.33C308.297 16.744 307.723 16.836 307.286 16.514C307.102 16.399 306.734 16.169 306.55 16.054C306.159 15.778 306.066 15.203 306.365 14.812C306.687 14.398 307.285 14.306 307.722 14.582Z" fill="#53370F"/>
<path d="M299.925 6.02602C299.925 6.53202 299.488 6.96902 298.982 6.96902C298.752 6.96902 298.499 6.96902 298.338 6.96902C298.223 6.96902 298.154 7.03802 298.154 7.13002C298.154 7.47502 298.154 8.11902 298.154 8.69402C298.154 9.31502 297.648 9.84402 297.004 9.84402C296.383 9.84402 295.693 9.84402 295.325 9.84402C295.21 9.84402 295.141 9.91302 295.141 10.005C295.141 10.212 295.141 10.258 295.141 10.465C295.141 10.557 295.21 10.649 295.325 10.649C295.463 10.649 295.762 10.649 295.946 10.649C296.452 10.649 296.866 11.04 296.866 11.546C296.866 12.052 296.452 12.466 295.946 12.466C295.762 12.466 295.463 12.466 295.325 12.466C295.21 12.466 295.141 12.558 295.141 12.65C295.141 12.742 295.141 13.018 295.141 13.11C295.141 13.202 295.21 13.294 295.325 13.294C295.601 13.294 295.854 13.294 297.165 13.294C297.694 13.294 298.108 13.708 298.108 14.214C298.108 14.743 297.694 15.157 297.165 15.157C296.521 15.157 295.716 15.157 295.325 15.157C295.21 15.157 295.141 15.226 295.141 15.341C295.141 15.456 295.141 15.617 295.141 15.801C295.141 16.307 294.727 16.721 294.198 16.721C293.692 16.721 293.278 16.307 293.278 15.801C293.278 15.617 293.278 15.456 293.278 15.341C293.278 15.226 293.186 15.157 293.094 15.157C292.726 15.157 291.99 15.157 291.392 15.157C290.886 15.157 290.472 14.743 290.472 14.214C290.472 13.708 290.886 13.294 291.392 13.294C291.99 13.294 292.726 13.294 293.094 13.294C293.186 13.294 293.278 13.202 293.278 13.11C293.278 13.018 293.278 12.742 293.278 12.65C293.278 12.558 293.186 12.466 293.094 12.466C292.979 12.466 292.542 12.466 292.404 12.466C291.898 12.466 291.484 12.052 291.484 11.546C291.484 11.04 291.898 10.649 292.404 10.649C292.542 10.649 292.979 10.649 293.094 10.649C293.186 10.649 293.278 10.557 293.278 10.465C293.278 10.258 293.278 10.212 293.278 10.005C293.278 9.91302 293.186 9.84402 293.094 9.84402C292.818 9.84402 292.358 9.84402 291.944 9.84402C291.438 9.84402 291.024 9.43002 291.024 8.92402C291.024 8.39502 291.438 7.98102 291.944 7.98102C292.358 7.98102 292.818 7.98102 293.094 7.98102C293.186 7.98102 293.278 7.91202 293.278 7.82002C293.278 7.59002 293.278 7.36002 293.278 7.13002C293.278 7.03802 293.186 6.96902 293.094 6.96902C292.611 6.96902 291.461 6.96902 290.633 6.96902C290.127 6.96902 289.713 6.53202 289.713 6.02602C289.713 5.49702 290.127 5.08302 290.633 5.08302C291.461 5.08302 292.611 5.08302 293.094 5.08302C293.186 5.08302 293.278 5.01402 293.278 4.92202C293.278 4.66902 293.278 4.37002 293.278 4.11702C293.278 4.02502 293.186 3.95602 293.094 3.95602C292.818 3.95602 292.358 3.95602 291.944 3.95602C291.438 3.95602 291.024 3.54202 291.024 3.03602C291.024 2.53002 291.438 2.11602 291.944 2.11602C292.358 2.11602 292.818 2.11602 293.094 2.11602C293.186 2.11602 293.278 2.04702 293.278 1.95502C293.278 1.84002 293.278 1.65602 293.278 1.54102C293.278 1.01202 293.692 0.598022 294.198 0.598022C294.727 0.598022 295.141 1.01202 295.141 1.54102C295.141 1.65602 295.141 1.84002 295.141 1.95502C295.141 2.04702 295.21 2.11602 295.325 2.11602C295.693 2.11602 296.383 2.11602 297.004 2.11602C297.648 2.11602 298.154 2.62202 298.154 3.26602C298.154 3.86402 298.154 4.55402 298.154 4.92202C298.154 5.01402 298.223 5.08302 298.338 5.08302C298.499 5.08302 298.752 5.08302 298.982 5.08302C299.488 5.08302 299.925 5.49702 299.925 6.02602ZM296.107 6.96902C295.854 6.96902 295.555 6.96902 295.325 6.96902C295.21 6.96902 295.141 7.03802 295.141 7.13002C295.141 7.36002 295.141 7.59002 295.141 7.82002C295.141 7.91202 295.21 7.98102 295.325 7.98102C295.555 7.98102 295.854 7.98102 296.107 7.98102C296.199 7.98102 296.268 7.91202 296.268 7.82002C296.268 7.59002 296.268 7.36002 296.268 7.13002C296.268 7.03802 296.199 6.96902 296.107 6.96902ZM295.325 5.08302C295.555 5.08302 295.854 5.08302 296.107 5.08302C296.199 5.08302 296.268 5.01402 296.268 4.92202C296.268 4.66902 296.268 4.37002 296.268 4.11702C296.268 4.02502 296.199 3.95602 296.107 3.95602C295.854 3.95602 295.555 3.95602 295.325 3.95602C295.21 3.95602 295.141 4.02502 295.141 4.11702C295.141 4.37002 295.141 4.66902 295.141 4.92202C295.141 5.01402 295.21 5.08302 295.325 5.08302ZM298.844 19.228C298.798 19.78 298.338 20.194 297.786 20.217C294.98 20.286 293.163 20.217 291.783 20.01C289.575 19.711 287.804 19.113 286.378 18.216C286.309 18.17 286.194 18.193 286.125 18.262C285.941 18.492 285.734 18.722 285.435 19.044C285.067 19.412 284.469 19.435 284.078 19.113C283.687 18.791 283.664 18.216 284.009 17.848C284.285 17.572 284.469 17.365 284.63 17.158C284.699 17.089 284.699 16.974 284.63 16.905C284.423 16.721 284.239 16.514 284.009 16.238C283.687 15.847 283.733 15.295 284.124 14.996C284.515 14.674 285.09 14.72 285.435 15.088C285.504 15.157 285.573 15.226 285.642 15.295C285.711 15.341 285.803 15.341 285.849 15.249C286.24 14.444 286.539 13.501 286.723 12.443C286.746 12.374 286.677 12.282 286.585 12.282C286.332 12.282 285.941 12.282 285.573 12.282C284.929 12.282 284.423 11.776 284.423 11.132V11.086C284.423 10.695 284.745 10.396 285.113 10.396C285.182 10.396 285.251 10.35 285.251 10.281C285.527 9.43002 285.711 8.62502 285.826 7.82002C285.826 7.72802 285.757 7.65902 285.665 7.65902C285.55 7.65902 285.182 7.65902 285.044 7.65902C284.515 7.65902 284.101 7.24502 284.101 6.71602C284.101 6.21002 284.515 5.77302 285.044 5.77302L286.792 5.79602C287.413 5.79602 287.896 6.32502 287.85 6.94602C287.735 8.14202 287.551 9.31502 287.252 10.235C287.229 10.304 287.298 10.396 287.367 10.396C287.482 10.396 287.597 10.396 287.735 10.396C288.356 10.396 288.839 10.948 288.747 11.569C288.517 13.386 288.057 15.088 287.367 16.422C287.321 16.514 287.367 16.629 287.436 16.675C288.793 17.434 290.403 17.94 292.266 18.17H292.289C293.37 18.354 295.072 18.4 298.016 18.331C298.499 18.308 298.913 18.745 298.844 19.228ZM277.638 7.03802C277.385 6.69302 277.408 6.09502 278.121 5.77302C280.237 4.85302 281.502 3.97902 282.491 3.22002C282.905 2.89802 283.48 2.96702 283.825 3.38102C284.147 3.79502 284.078 4.41602 283.664 4.76102C282.583 5.58902 281.203 6.55502 279.133 7.36002C278.627 7.56702 277.96 7.47502 277.638 7.03802ZM282.514 8.46402V17.503C282.514 18.009 282.1 18.423 281.594 18.423C281.088 18.423 280.674 18.009 280.674 17.503V8.46402C280.674 7.95802 281.088 7.56702 281.594 7.56702C282.1 7.56702 282.514 7.95802 282.514 8.46402Z" fill="#53370F"/>
<path d="M267.863 17.365C270.623 14.789 271.29 13.294 271.29 11.178C271.29 8.80902 269.749 6.11802 265.793 6.04902C262.573 6.02602 260.227 8.44102 260.227 10.856C260.227 11.983 260.457 12.581 261.147 13.432C261.216 13.501 261.308 13.501 261.377 13.432C262.55 12.374 264.068 10.81 265.149 9.77502C265.517 9.40702 266.115 9.31501 266.483 9.66002C266.851 10.005 266.874 10.649 266.506 10.994C264.666 12.788 263.033 14.398 261.906 15.502C261.423 15.962 260.664 15.962 260.204 15.502C259.146 14.467 258.502 13.018 258.456 11.04C258.387 6.62401 262.251 4.27802 265.724 4.27802C270.048 4.27802 273.199 7.06102 273.199 11.247C273.13 13.938 272.026 16.284 269.749 18.308C269.266 18.745 268.576 18.814 268.001 18.538C267.564 18.308 267.495 17.71 267.863 17.365Z" fill="#53370F"/>
<path d="M238.124 19.987H234.398C233.892 19.987 233.455 19.573 233.455 19.044C233.455 18.515 233.892 18.101 234.398 18.101C235.18 18.101 236.767 18.101 237.227 18.101C237.319 18.101 237.411 18.032 237.411 17.917C237.411 17.296 237.411 14.812 237.411 13.685C237.411 13.156 237.825 12.742 238.354 12.742C238.86 12.742 239.274 13.156 239.274 13.685V18.837C239.274 19.481 238.768 19.987 238.124 19.987Z" fill="#53370F"/>
<path d="M217.309 2.024C217.792 2.208 218.022 2.852 217.792 3.312C217.01 5.037 215.768 6.624 213.928 8.165C213.491 8.533 212.778 8.648 212.341 8.257C211.95 7.912 212.019 7.314 212.41 6.969C214.365 5.221 215.17 4.255 216.021 2.576C216.274 2.116 216.826 1.84 217.309 2.024ZM218.873 4.508L224.048 4.485C224.669 4.485 225.175 5.037 225.106 5.658C224.6 11.408 222.461 15.916 217.976 19.734C217.539 20.102 216.826 20.171 216.366 19.803C215.975 19.481 215.975 18.86 216.366 18.561C221.173 14.697 222.553 11.04 223.082 6.509C223.105 6.417 223.036 6.348 222.944 6.348C222.231 6.348 220.115 6.348 218.85 6.348C218.344 6.348 217.93 5.934 217.93 5.405C217.93 4.899 218.367 4.508 218.873 4.508ZM219.954 11.454C219.77 11.96 219.218 12.236 218.712 12.075C218.206 11.914 217.516 11.684 216.987 11.477C216.504 11.293 216.228 10.764 216.412 10.304C216.596 9.821 217.148 9.637 217.631 9.752C218.252 9.936 218.873 10.166 219.356 10.304C219.839 10.442 220.115 10.971 219.954 11.454ZM228.648 3.68L228.004 3.151C227.659 2.898 227.636 2.415 227.935 2.116C228.257 1.794 228.786 1.748 229.154 2.024C229.361 2.185 229.545 2.346 229.729 2.53C230.051 2.806 230.074 3.289 229.798 3.611C229.499 3.933 228.993 3.956 228.648 3.68ZM226.992 5.29L226.325 4.761C226.003 4.508 225.98 4.002 226.279 3.703C226.601 3.381 227.107 3.358 227.475 3.634C227.682 3.795 227.866 3.956 228.073 4.117C228.395 4.393 228.418 4.899 228.119 5.198C227.82 5.52 227.337 5.566 226.992 5.29Z" fill="#53370F"/>
<path d="M193.343 3.35798C193.343 2.82898 193.78 2.41498 194.309 2.41498H199.415C199.921 2.41498 200.358 2.82898 200.358 3.35798C200.358 3.88698 199.921 4.30098 199.415 4.30098H194.309C193.78 4.30098 193.343 3.88698 193.343 3.35798ZM196.241 18.515C199.852 15.226 201.14 12.558 201.692 9.82098C201.715 9.72898 201.646 9.63698 201.554 9.63698C200.289 9.63698 193.067 9.63698 190.56 9.63698C190.031 9.63698 189.594 9.22298 189.594 8.69398C189.594 8.16498 190.031 7.75098 190.56 7.75098H202.658C203.279 7.75098 203.762 8.30298 203.693 8.92398C203.279 12.236 201.922 15.87 197.713 19.711C197.276 20.102 196.586 20.148 196.149 19.78C195.781 19.435 195.85 18.86 196.241 18.515Z" fill="#53370F"/>
<path d="M167.422 19.159C166.962 18.929 166.801 18.285 167.077 17.871C169.929 13.478 170.665 11.454 171.424 7.91198C171.447 7.81998 171.378 7.72798 171.286 7.72798C170.665 7.72798 168.618 7.72798 167.583 7.72798C167.077 7.72798 166.663 7.33698 166.663 6.83098C166.663 6.32498 167.077 5.91098 167.583 5.91098C168.733 5.91098 171.033 5.91098 171.654 5.91098C171.746 5.91098 171.838 5.84198 171.861 5.72698C171.976 4.94498 171.976 4.04798 172.022 2.92098C172.045 2.41498 172.482 2.00098 173.011 2.00098C173.517 2.02398 173.931 2.46098 173.908 2.96698C173.862 4.11698 173.839 5.10598 173.747 5.72698C173.747 5.81898 173.816 5.91098 173.908 5.91098C174.713 5.91098 177.634 5.91098 179.267 5.91098C179.911 5.91098 180.417 6.41698 180.417 7.06098V18.354C180.417 18.998 179.888 19.527 179.244 19.527C178.784 19.527 178.209 19.504 177.795 19.458C177.243 19.435 176.783 19.021 176.714 18.469C176.645 17.986 177.013 17.572 177.496 17.595C177.749 17.618 178.14 17.618 178.37 17.641C178.462 17.641 178.554 17.549 178.554 17.457C178.554 16.192 178.554 9.17698 178.554 7.91198C178.554 7.81998 178.462 7.72798 178.37 7.72798C177.519 7.72798 174.368 7.72798 173.54 7.72798C173.425 7.72798 173.333 7.79698 173.333 7.91198C172.643 11.362 171.194 15.502 168.894 18.653C168.572 19.113 167.974 19.389 167.422 19.159Z" fill="#53370F"/>
<path d="M156.014 1.05798H159.74C160.269 1.05798 160.683 1.47198 160.683 2.00098C160.683 2.52998 160.269 2.94398 159.74 2.94398C158.958 2.94398 157.394 2.94398 156.911 2.94398C156.819 2.94398 156.75 3.03598 156.75 3.12798C156.75 3.74898 156.75 6.25598 156.75 7.38298C156.75 7.88898 156.313 8.32598 155.807 8.32598C155.278 8.32598 154.864 7.88898 154.864 7.38298V2.20798C154.864 1.56398 155.37 1.05798 156.014 1.05798Z" fill="#53370F"/>
<path d="M124.228 4.11697C124.711 4.64597 125.309 5.31297 125.769 5.93397C126.091 6.39397 125.976 7.01497 125.493 7.31397C125.033 7.58997 124.412 7.40597 124.09 6.94597C123.607 6.30197 123.078 5.86497 122.526 5.17497C122.25 4.80697 122.204 4.25497 122.756 3.90997C123.193 3.61097 123.86 3.72597 124.228 4.11697ZM132.738 6.43997C127.862 9.56797 125.562 11.891 125.309 14.168C125.079 16.123 126.758 17.066 129.403 17.066C130.3 17.066 131.266 16.882 132.347 16.652C132.922 16.537 133.428 16.859 133.497 17.388C133.589 17.917 133.129 18.4 132.6 18.515C131.634 18.699 130.553 18.86 129.725 18.86C126.045 18.952 123.423 17.71 123.423 14.283C123.423 11.316 127.839 7.47497 131.657 4.94497C132.094 4.66897 132.669 4.76097 132.968 5.19797C133.267 5.58897 133.152 6.16397 132.738 6.43997Z" fill="#53370F"/>
<path d="M100.124 19.987H96.3981C95.8921 19.987 95.4551 19.573 95.4551 19.044C95.4551 18.515 95.8921 18.101 96.3981 18.101C97.1801 18.101 98.7671 18.101 99.2271 18.101C99.3191 18.101 99.4111 18.032 99.4111 17.917C99.4111 17.296 99.4111 14.812 99.4111 13.685C99.4111 13.156 99.8251 12.742 100.354 12.742C100.86 12.742 101.274 13.156 101.274 13.685V18.837C101.274 19.481 100.768 19.987 100.124 19.987Z" fill="#53370F"/>
<path d="M76.5265 4.71503H87.2445C87.8885 4.71503 88.3945 5.24403 88.3945 5.86503V16.307C88.3945 16.951 87.8885 17.457 87.2445 17.457H76.5265C75.9055 17.457 75.3765 16.951 75.3765 16.307V5.86503C75.3765 5.24403 75.9055 4.71503 76.5265 4.71503ZM77.4465 15.594C78.6425 15.594 85.1975 15.594 86.3935 15.594C86.4855 15.594 86.5775 15.502 86.5775 15.41C86.5775 14.214 86.5775 7.93503 86.5775 6.73903C86.5775 6.62403 86.4855 6.55503 86.3935 6.55503C85.1975 6.55503 78.6425 6.55503 77.4465 6.55503C77.3545 6.55503 77.2855 6.62403 77.2855 6.73903C77.2855 7.93503 77.2855 14.214 77.2855 15.41C77.2855 15.502 77.3545 15.594 77.4465 15.594Z" fill="#53370F"/>
<path d="M52.7441 5.26699C52.7441 4.76099 53.1581 4.34698 53.6641 4.34698H63.8301C64.4511 4.34698 64.9801 4.85299 64.9801 5.49698C64.9571 8.69398 64.9111 12.696 64.7501 16.675C64.7271 17.319 64.1981 17.825 63.5541 17.825L53.6871 17.848C53.1811 17.848 52.7901 17.434 52.7901 16.928C52.7901 16.422 53.1811 16.008 53.6871 16.008H62.6341C62.7261 16.008 62.7951 15.939 62.7951 15.847C62.9561 13.179 63.0021 9.88998 63.0021 6.34799C63.0021 6.25599 62.9331 6.18698 62.8411 6.18698C61.6911 6.18698 55.9181 6.18698 53.6641 6.18698C53.1581 6.18698 52.7441 5.77298 52.7441 5.26699Z" fill="#53370F"/>
<path d="M29.7441 5.26699C29.7441 4.76099 30.1581 4.34698 30.6641 4.34698H40.8301C41.4511 4.34698 41.9801 4.85299 41.9801 5.49698C41.9571 8.69398 41.9111 12.696 41.7501 16.675C41.7271 17.319 41.1981 17.825 40.5541 17.825L30.6871 17.848C30.1811 17.848 29.7901 17.434 29.7901 16.928C29.7901 16.422 30.1811 16.008 30.6871 16.008H39.6341C39.7261 16.008 39.7951 15.939 39.7951 15.847C39.9561 13.179 40.0021 9.88998 40.0021 6.34799C40.0021 6.25599 39.9331 6.18698 39.8411 6.18698C38.6911 6.18698 32.9181 6.18698 30.6641 6.18698C30.1581 6.18698 29.7441 5.77298 29.7441 5.26699Z" fill="#53370F"/>
<path d="M18.0143 1.05798H21.7403C22.2693 1.05798 22.6833 1.47198 22.6833 2.00098C22.6833 2.52998 22.2693 2.94398 21.7403 2.94398C20.9583 2.94398 19.3943 2.94398 18.9113 2.94398C18.8193 2.94398 18.7503 3.03598 18.7503 3.12798C18.7503 3.74898 18.7503 6.25598 18.7503 7.38298C18.7503 7.88898 18.3133 8.32598 17.8073 8.32598C17.2783 8.32598 16.8643 7.88898 16.8643 7.38298V2.20798C16.8643 1.56398 17.3703 1.05798 18.0143 1.05798Z" fill="#53370F"/>
<path fill-rule="evenodd" clip-rule="evenodd" d="M30.5933 36.3771C16.443 33.9061 5.85363 30.7023 0 27.7669L0.448262 26.873C6.17358 29.7441 16.6516 32.9274 30.7653 35.392C44.868 37.8546 62.5695 39.5942 82.7241 39.5942C91.6412 39.5942 101.463 39.5587 111.658 39.5218C130.609 39.4533 150.852 39.38 168.978 39.5216C182.917 39.6305 195.613 39.8665 205.513 40.3296C210.463 40.5612 214.72 40.8498 218.088 41.2085C221.439 41.5655 223.957 41.9962 225.397 42.5284C227.681 43.372 229.241 44.6264 230.176 46.1357C231.11 47.6443 231.391 49.3635 231.192 51.0885C231.044 52.3748 230.629 53.6722 230.011 54.9072C232.166 53.171 234.611 51.3733 237.169 49.6929C242.109 46.4472 247.518 43.6072 252.108 42.5111C255.194 41.7741 261.642 41.0814 270.07 40.4906C278.515 39.8985 288.987 39.4063 300.15 39.0782C322.471 38.4221 347.575 38.4216 364.758 39.5954C385.966 41.0441 411.779 39.5955 433.62 36.9124C444.539 35.5711 454.457 33.9223 462.302 32.1757C466.224 31.3023 469.623 30.4058 472.367 29.513C475.12 28.6172 477.18 27.7354 478.45 26.902L478.999 27.738C477.614 28.6465 475.451 29.5611 472.676 30.4639C469.893 31.3698 466.461 32.2742 462.519 33.1518C454.635 34.9072 444.684 36.5608 433.742 37.905C411.862 40.5929 385.982 42.0475 364.69 40.593C347.555 39.4225 322.489 39.422 300.179 40.0778C289.026 40.4056 278.568 40.8973 270.14 41.4881C261.697 42.08 255.333 42.7691 252.34 43.4837C247.919 44.5395 242.626 47.3043 237.718 50.5287C234.077 52.9211 230.674 55.5491 228.029 57.8814C227.28 58.7581 226.433 59.5518 225.52 60.2228L224.87 59.467C225.584 58.7514 226.405 57.9815 227.314 57.178C228.876 55.3297 229.952 53.111 230.198 50.9741C230.376 49.4322 230.121 47.9473 229.326 46.6621C228.53 45.3777 227.168 44.2486 225.051 43.4664C223.741 42.9825 221.338 42.5604 217.982 42.2029C214.642 41.8472 210.407 41.5597 205.466 41.3285C195.586 40.8663 182.906 40.6305 168.97 40.5216C150.849 40.38 130.619 40.4532 111.671 40.5218C101.474 40.5586 91.6488 40.5942 82.7241 40.5942C62.5137 40.5942 44.7546 38.8499 30.5933 36.3771Z" fill="#53370F"/>
</svg>
