<svg width="281" height="281" viewBox="0 0 281 281" fill="none" xmlns="http://www.w3.org/2000/svg">
<path opacity="0.6" d="M260.88 122.396C260.88 189.771 206.261 244.39 138.886 244.39C71.5102 244.39 16.8916 189.771 16.8916 122.396C16.8916 55.0205 71.5102 0.401855 138.886 0.401855C206.261 0.401855 260.88 55.0205 260.88 122.396Z" fill="#F2D5E1"/>
<mask id="mask0_1549_24215" style="mask-type:alpha" maskUnits="userSpaceOnUse" x="27" y="47" width="113" height="141">
<path fill-rule="evenodd" clip-rule="evenodd" d="M139.518 47.8601H27.6082V178.845C27.608 178.856 27.6079 178.866 27.6079 178.876C27.6079 178.887 27.608 178.897 27.6082 178.907V180.241H28.1129C30.4521 183.356 40.641 185.7 52.8558 185.7C55.7032 185.7 61.0015 185.956 67.6309 186.277C93.4661 187.525 139.517 189.751 139.517 181.606C139.517 181.121 139.354 180.667 139.042 180.241H139.518V47.8601Z" fill="#D9D9D9"/>
</mask>
<g mask="url(#mask0_1549_24215)">
<path d="M132.958 151.083C130.195 144.321 127.656 138.293 124.195 130.981C122.649 127.721 120.476 124.799 117.8 122.381C114.926 119.786 112.783 119.285 107.011 116.105C106.044 116.602 105.037 117.018 104.002 117.35C102.655 131.929 97.8928 146.547 95.9052 152.291C94.6515 155.802 93.2168 159.245 91.607 162.608L90.6776 162.372C88.1537 156.754 80.5559 138.303 76.9684 127.352C75.3498 122.412 73.3873 117.341 72.1162 111.505L70.5368 112.256L66.1369 114.347H66.2224C57.2202 117.745 49.4043 120.598 43.76 127.999C38.6247 134.732 31.486 163.213 30.4377 169.185C29.8637 172.288 28.84 178.051 28.8537 181.713C28.8537 182.154 28.8867 182.911 28.969 183.732C42.7148 183.732 116.371 183.732 116.371 183.732C121.758 186.726 131.258 185.745 135.084 180.632C136.848 178.279 138.293 174.417 138.286 171.749C138.282 166.243 136.249 159.132 132.958 151.083Z" fill="#95D9FF"/>
<path d="M117.266 178.4C118.592 178.812 121.076 178.64 122.398 178.197C125.67 177.101 126.56 175.441 127.229 172.644C127.615 170.867 127.574 169.025 127.109 167.267C126.14 163.943 123.85 161.764 121.658 160.972C121.636 161.202 121.583 161.428 121.501 161.643C121.045 162.682 120.245 163.533 119.235 164.05C119.13 164.109 119.025 164.167 118.921 164.222C119.261 166.577 119.075 167.92 118.754 170.115C118.444 172.014 117.514 173.758 116.11 175.073C115.919 175.256 115.65 175.44 115.41 175.331L117.266 178.4Z" fill="white"/>
<path d="M91.3637 162.968C89.5291 163.12 88.0493 163.289 85.9406 163.508C84.4079 163.666 82.3736 164.729 81.9291 166.051C80.7241 169.367 80.032 172.848 79.8764 176.373C79.855 177.389 80.1883 179.315 81.6833 179.799C82.7814 180.155 83.8664 180.051 86.0014 179.374C86.0613 179.947 86.3177 180.481 86.727 180.887C87.1364 181.292 87.6734 181.543 88.2469 181.597C89.0636 181.747 89.9068 181.581 90.6057 181.133L91.4816 180.509C91.4182 182.087 91.9167 183.383 93.4593 183.863C95.2546 184.421 96.1074 183.17 97.0373 182.448C97.1531 183.722 97.7439 184.768 98.6622 185.145C99.1634 185.396 99.7429 185.442 100.277 185.272C100.811 185.102 101.258 184.73 101.522 184.236C101.977 183.017 103.31 180.462 104.446 179.614C106.635 177.981 107.236 177.806 109.876 176.802C113.77 175.487 115.485 173.085 115.761 170.956C115.883 169.887 115.791 168.804 115.49 167.77C115.19 166.737 114.687 165.774 114.011 164.937C113.491 164.319 112.928 163.739 112.326 163.2C110.824 161.791 109.056 160.283 107.003 160.454L102.773 160.511C99.7083 161.917 96.3981 162.71 93.029 162.845C92.4309 162.885 91.8831 162.925 91.3637 162.968Z" fill="white"/>
<path d="M84.524 147.622C81.7716 140.741 78.8289 133.037 76.967 127.353C75.3043 122.277 73.2779 117.065 72.0078 111.027C72.7696 111.124 73.5359 111.183 74.3037 111.204L104.554 112.027C104.246 115.004 103.96 117.771 103.96 117.771C102.563 132.21 97.8715 146.601 95.9032 152.292C94.6495 155.802 93.2149 159.246 91.605 162.608L90.6757 162.373C89.4622 159.67 87.0746 153.999 84.524 147.622Z" fill="white"/>
<path d="M115.738 184.819C120.497 187.421 126.815 187.224 131.646 184.924C134.129 183.735 136.15 181.76 137.396 179.306C138.925 176.532 139.652 173.387 139.496 170.223C139.061 163.336 136.583 156.639 133.993 150.311C131.166 143.404 128.353 136.421 124.992 129.753C123.28 126.314 120.867 123.272 117.909 120.822C115.36 118.758 112.308 117.492 109.426 115.977C107.994 115.224 106.721 117.395 108.156 118.149C110.605 119.436 113.229 120.52 115.494 122.124C117.91 123.919 119.956 126.162 121.522 128.732C123.418 131.734 124.764 135.121 126.206 138.356C127.597 141.474 128.942 144.611 130.242 147.768C132.859 154.082 135.519 160.502 136.637 167.285C137.073 169.922 137.231 172.513 136.432 175.095C135.67 177.553 134.419 180.079 132.325 181.606C130.093 183.141 127.473 184.013 124.767 184.122C122.114 184.283 119.315 183.908 117.003 182.645C115.582 181.868 114.311 184.039 115.734 184.817L115.738 184.819Z" fill="#119EED"/>
<path d="M113.326 174.977C114.629 174.003 115.503 172.56 115.762 170.954C115.992 168.951 115.466 166.934 114.286 165.299C114.429 165.395 114.602 165.437 114.773 165.416C116.214 165.254 117.618 164.849 118.924 164.219C119.264 166.575 119.078 167.918 118.758 170.112C118.448 172.012 117.518 173.755 116.113 175.071C115.922 175.254 115.654 175.438 115.413 175.328C115.413 175.328 113.874 175.433 112.567 175.526C112.829 175.356 113.082 175.173 113.326 174.977Z" fill="#726A69"/>
<path d="M121.329 162.183C124.275 163.283 126.111 166.66 126.226 169.753C126.298 171.335 126.003 172.912 125.365 174.361C124.848 175.444 123.931 176.285 122.807 176.707C121.171 177.428 119.344 177.596 117.603 177.184C116.044 176.737 115.378 179.164 116.934 179.61C118.916 180.107 121 180.013 122.929 179.34C124.687 178.723 126.289 177.752 127.271 176.124C129.435 172.533 129.197 167.475 127.019 163.97C125.858 162.048 124.092 160.566 121.998 159.757C121.676 159.671 121.334 159.715 121.044 159.879C120.755 160.044 120.542 160.315 120.45 160.635C120.369 160.957 120.415 161.297 120.579 161.586C120.743 161.874 121.011 162.088 121.329 162.183Z" fill="#119EED"/>
<path d="M115.079 176.542C116.507 176.866 117.482 175.557 118.234 174.537C118.919 173.609 119.433 172.567 119.754 171.46C120.039 170.321 120.22 169.159 120.293 167.988C120.4 166.803 120.374 165.61 120.214 164.431C120.204 164.101 120.068 163.787 119.835 163.553C119.601 163.319 119.287 163.183 118.956 163.173C118.623 163.175 118.304 163.308 118.069 163.544C117.833 163.779 117.7 164.098 117.698 164.431C117.924 166.297 117.858 168.187 117.504 170.033C117.355 170.866 117.062 171.666 116.637 172.397C116.432 172.758 116.198 173.1 115.937 173.422C115.777 173.617 115.374 174.126 115.228 174.149H115.897L115.75 174.115C115.428 174.033 115.087 174.079 114.798 174.242C114.509 174.406 114.295 174.675 114.2 174.993C114.115 175.315 114.159 175.657 114.323 175.946C114.488 176.236 114.759 176.449 115.079 176.541L115.079 176.542Z" fill="#726A69"/>
<path d="M119.237 164.047C120.247 163.53 121.048 162.68 121.503 161.641C121.63 161.324 121.684 160.982 121.66 160.642C121.497 159.894 121.064 159.233 120.443 158.786C118.037 156.652 115.202 155.058 112.129 154.113C111.697 154.019 111.252 153.994 110.812 154.039C109.832 154.047 108.883 154.387 108.121 155.005C107.282 155.73 106.821 156.276 106.706 157.378C106.595 158.233 106.762 159.1 107.182 159.853C107.396 160.127 107.703 160.314 108.045 160.377C109.111 160.672 110.093 161.214 110.912 161.958C112.07 162.953 113.154 164.031 114.155 165.184C114.232 165.269 114.328 165.335 114.436 165.375C114.544 165.416 114.66 165.429 114.774 165.415C116.335 165.245 117.849 164.781 119.237 164.047Z" fill="#ECBB7A"/>
<path d="M119.873 165.133C121.235 164.318 122.535 163.11 122.849 161.482C123.209 159.609 121.898 158.326 120.564 157.245C119.241 156.162 117.806 155.222 116.283 154.444C114.875 153.734 113.175 152.858 111.576 152.77C108.532 152.604 105.471 154.567 105.419 157.821C105.412 158.64 105.593 159.449 105.947 160.188C106.351 161.052 107.048 161.38 107.913 161.647C109.394 162.107 110.548 163.249 111.623 164.321C112.115 164.811 112.587 165.32 113.051 165.837C113.32 166.163 113.675 166.407 114.076 166.542C114.476 166.677 114.907 166.699 115.319 166.604C116.915 166.402 118.459 165.904 119.873 165.136C121.284 164.343 120.017 162.168 118.603 162.964C117.606 163.498 116.528 163.866 115.413 164.054C115.196 164.068 114.98 164.103 114.77 164.159C114.912 164.097 114.851 164.229 114.774 164.159C114.861 164.24 115.04 164.397 114.979 164.224C114.868 163.906 114.332 163.506 114.103 163.262C113.186 162.269 112.187 161.355 111.118 160.529C110.662 160.176 110.168 159.875 109.646 159.631C109.363 159.501 109.074 159.386 108.78 159.285C108.706 159.261 108.005 158.963 108.267 159.219C108 158.805 107.883 158.312 107.935 157.823C107.915 157.367 108.05 156.919 108.319 156.551C108.596 156.205 108.939 155.917 109.329 155.705C109.719 155.493 110.147 155.361 110.589 155.317C111.737 155.182 112.754 155.606 113.798 156.051C114.997 156.565 116.148 157.186 117.236 157.906C117.802 158.274 118.348 158.672 118.872 159.098C119.44 159.472 119.93 159.953 120.316 160.513C120.814 161.492 119.282 162.555 118.603 162.961C117.214 163.791 118.478 165.967 119.873 165.133Z" fill="#726A69"/>
<path d="M86.9234 169.576C86.08 172.187 85.06 174.863 84.7219 177.602C84.5442 179.048 84.7171 180.611 85.7702 181.706C86.4982 182.381 87.4287 182.798 88.4175 182.89C89.4062 182.983 90.398 182.747 91.2389 182.219C91.5213 182.045 91.7259 181.77 91.81 181.449C91.8941 181.128 91.8512 180.788 91.6902 180.498C91.5195 180.212 91.2436 180.005 90.9217 179.921C90.5998 179.836 90.2577 179.881 89.9688 180.047C89.713 180.214 89.4239 180.325 89.1214 180.37C88.8189 180.415 88.5102 180.394 88.2165 180.309C88.0067 180.266 87.8113 180.17 87.6487 180.03C87.4861 179.891 87.3617 179.712 87.2872 179.511C87.3695 179.707 87.2573 179.358 87.2552 179.348C87.2258 179.232 87.2028 179.112 87.1829 178.994C87.2185 179.233 87.176 178.823 87.1755 178.815C87.1687 178.674 87.1682 178.533 87.1718 178.393C87.2077 177.711 87.317 177.036 87.4979 176.377C88.0074 174.302 88.6909 172.276 89.3472 170.245C89.8456 168.7 87.4172 168.038 86.9208 169.576H86.9234Z" fill="#726A69"/>
<path d="M92.8459 171.298C92.2085 172.984 91.5958 174.677 91.0831 176.405C90.6219 177.963 90.0903 179.625 90.2445 181.272C90.3839 182.787 91.0805 184.183 92.5215 184.836C93.3778 185.256 94.3552 185.359 95.2802 185.126C96.0802 184.848 96.806 184.39 97.402 183.788C98.6128 182.708 96.8286 180.934 95.623 182.009C95.3134 182.363 94.9057 182.618 94.4515 182.74C94.0312 182.768 93.6152 182.641 93.2815 182.385C93.0284 182.162 92.8615 181.859 92.8097 181.526C92.7127 181.013 92.7035 180.488 92.7825 179.972C93.0061 178.667 93.345 177.384 93.7952 176.14C94.2392 174.732 94.7513 173.347 95.2728 171.967C95.3588 171.645 95.3149 171.302 95.1506 171.013C94.9862 170.723 94.7146 170.51 94.3943 170.419C94.0729 170.338 93.7324 170.384 93.444 170.547C93.1557 170.711 92.9417 170.98 92.847 171.298L92.8459 171.298Z" fill="#726A69"/>
<path d="M98.3429 173.502C97.651 174.999 97.0537 176.538 96.5544 178.11C96.1351 179.483 95.6487 180.974 95.776 182.422C95.9097 183.939 96.5623 185.556 98.03 186.229C98.8243 186.623 99.7378 186.701 100.587 186.449C101.437 186.196 102.16 185.632 102.611 184.869C102.694 184.727 102.749 184.569 102.771 184.405C102.794 184.242 102.784 184.075 102.742 183.915C102.7 183.755 102.627 183.605 102.527 183.474C102.427 183.342 102.302 183.232 102.16 183.148C102.017 183.065 101.859 183.01 101.696 182.988C101.532 182.965 101.366 182.975 101.206 183.017C101.046 183.059 100.896 183.132 100.764 183.232C100.633 183.332 100.522 183.457 100.439 183.599C100.339 183.749 100.215 183.88 100.072 183.988C100.033 184.013 99.7912 184.114 99.9269 184.064C99.6753 184.157 99.9825 184.094 99.7105 184.103C99.5452 184.109 99.3805 184.081 99.227 184.02C99.0735 183.958 98.9346 183.865 98.8194 183.746C98.5781 183.45 98.4158 183.098 98.3476 182.722C98.2435 182.222 98.2407 181.707 98.3392 181.207C98.8225 178.987 99.5532 176.829 100.518 174.772C100.676 174.482 100.718 174.142 100.634 173.822C100.55 173.502 100.347 173.226 100.066 173.051C99.7777 172.885 99.4353 172.839 99.1132 172.924C98.791 173.008 98.5151 173.216 98.345 173.502H98.3429Z" fill="#726A69"/>
<path d="M102.736 184.568C103.145 183.563 103.659 182.603 104.267 181.703C104.858 180.891 105.612 180.213 106.482 179.712C108.454 178.44 110.78 178.051 112.831 176.842C114.676 175.752 116.277 174.071 116.841 171.959C117.551 169.301 116.697 166.337 115.033 164.215C113.965 162.904 112.734 161.735 111.369 160.736C110.142 159.721 108.595 159.174 107.002 159.194C105.392 159.285 105.382 161.802 107.002 161.71C108.11 161.708 109.18 162.111 110.012 162.842C111.098 163.661 112.089 164.599 112.967 165.638C114.32 167.263 115.003 169.686 114.277 171.722C114.141 172.045 113.977 172.356 113.787 172.652C113.562 172.992 113.298 173.304 113.001 173.582C112.211 174.326 111.288 174.913 110.281 175.315C108.335 176.122 106.381 176.703 104.636 177.924C103.583 178.625 102.682 179.532 101.987 180.588C101.31 181.629 100.746 182.739 100.305 183.9C100.218 184.221 100.262 184.564 100.426 184.854C100.591 185.143 100.863 185.356 101.183 185.447C101.504 185.528 101.845 185.482 102.133 185.319C102.422 185.155 102.635 184.886 102.73 184.568H102.736Z" fill="#726A69"/>
<path d="M88.7287 126.384C88.1521 126.349 87.5755 126.298 86.999 126.231C83.0988 126.008 79.2682 125.101 75.6826 123.551C76.1213 124.833 76.5554 126.097 76.9663 127.352C80.853 139.217 89.4479 159.886 91.196 163.499C92.9608 159.848 94.5318 156.107 95.9025 152.291C97.5799 147.437 101.243 136.247 103.151 124.099C98.5798 125.948 93.6473 126.729 88.7287 126.384Z" fill="white"/>
<path d="M69.8984 111.17L66.0536 112.997L65.5017 113.259C65.215 113.429 65.0067 113.705 64.9222 114.027C64.8377 114.349 64.8838 114.692 65.0505 114.98C65.2249 115.262 65.5007 115.465 65.821 115.549C66.1413 115.633 66.4816 115.591 66.7716 115.431L70.6165 113.604L71.1683 113.342C71.4551 113.173 71.6634 112.897 71.7478 112.575C71.8323 112.252 71.7862 111.91 71.6196 111.621C71.4452 111.34 71.1694 111.136 70.8491 111.052C70.5288 110.968 70.1885 111.01 69.8984 111.17Z" fill="#119EED"/>
<path d="M56.7557 157.706L52.5492 173.106C52.122 174.67 54.5484 175.337 54.9751 173.775L59.1816 158.377C59.6088 156.812 57.1824 156.145 56.7557 157.708V157.706Z" fill="#119EED"/>
<path d="M98.977 124.176C95.1462 125.138 91.1758 125.416 87.2481 125C83.4709 124.637 79.8238 123.978 76.316 122.463C76.0256 122.306 75.6859 122.264 75.3662 122.348C75.0464 122.432 74.7707 122.635 74.5951 122.915C74.429 123.203 74.3832 123.546 74.4677 123.868C74.5522 124.19 74.7601 124.466 75.0465 124.636C78.8495 126.228 82.8857 127.191 86.9976 127.489C91.2325 127.925 95.5111 127.625 99.6437 126.602C101.21 126.195 100.546 123.768 98.9749 124.176H98.977Z" fill="#726A69"/>
<path d="M102.702 117.77C101.947 124.845 100.622 131.848 98.74 138.71C97.4726 143.487 96.04 148.241 94.36 152.891C93.2425 155.984 91.8964 158.987 90.5194 161.972C90.3605 162.262 90.3188 162.602 90.4027 162.923C90.4866 163.243 90.6899 163.518 90.9707 163.693C91.2595 163.859 91.6018 163.905 91.9239 163.82C92.246 163.736 92.5219 163.528 92.6921 163.242C94.9229 158.453 96.8587 153.533 98.4889 148.508C100.421 142.542 102.026 136.476 103.296 130.335C104.152 126.183 104.794 121.989 105.218 117.77C105.216 117.438 105.083 117.119 104.847 116.883C104.612 116.648 104.293 116.515 103.96 116.512C103.629 116.519 103.313 116.654 103.078 116.889C102.844 117.123 102.709 117.439 102.702 117.77Z" fill="#119EED"/>
<path d="M71.0673 112.59C72.1114 117.078 73.6384 121.416 75.1155 125.774C76.2236 129.043 77.3228 132.309 78.5189 135.547C80.9789 142.204 83.6034 148.803 86.3265 155.361C87.3884 157.92 88.4556 160.48 89.5905 163.008C89.7605 163.295 90.0363 163.502 90.3584 163.587C90.6804 163.671 91.0227 163.626 91.3113 163.46C91.5935 163.286 91.7979 163.01 91.8819 162.689C91.966 162.369 91.9232 162.028 91.7626 161.738C89.4783 156.647 87.4246 151.531 85.329 146.266C82.7437 139.769 80.2372 133.236 78.043 126.596C76.4338 121.73 74.6589 116.923 73.4958 111.923C73.1289 110.347 70.7025 111.014 71.0694 112.592L71.0673 112.59Z" fill="#119EED"/>
<path d="M102.44 159.297C99.9912 160.382 97.3969 161.104 94.7393 161.44C91.6467 161.765 88.5159 161.836 85.4411 162.316C84.0956 162.534 82.8413 163.135 81.8274 164.046C80.6905 165.083 80.376 166.686 79.9708 168.109C79.5128 169.689 79.1625 171.298 78.9225 172.925C78.672 174.264 78.5795 175.628 78.6468 176.989C78.7815 178.377 79.2847 179.775 80.4777 180.594C81.8248 181.521 83.6369 181.3 85.1266 180.936C86.6991 180.551 86.0329 178.124 84.4577 178.509C83.6557 178.705 82.5015 178.974 81.8222 178.472C81.2419 178.043 81.1408 177.083 81.135 176.484C81.194 173.745 81.6532 171.03 82.4978 168.424C82.8333 167.28 82.9633 166.193 84.0017 165.527C84.9595 164.978 86.0373 164.673 87.1404 164.639C89.8079 164.357 92.4938 164.219 95.1566 163.905C97.8962 163.553 100.573 162.817 103.107 161.718C103.423 161.62 103.69 161.406 103.853 161.118C104.016 160.831 104.063 160.492 103.986 160.171C103.895 159.85 103.682 159.578 103.392 159.414C103.103 159.249 102.76 159.205 102.438 159.292L102.44 159.297Z" fill="#726A69"/>
<path d="M63.9985 118.561C63.0832 119.89 62.3432 121.33 61.7969 122.848C61.5873 123.416 61.3546 124.082 61.6843 124.652C61.9214 124.991 62.2433 125.263 62.6178 125.439C64.6448 126.609 66.8248 127.535 68.9304 128.551L68.6757 126.575C67.8218 127.497 66.9606 128.412 66.114 129.341C65.2754 130.259 64.1552 131.242 63.62 132.374C62.6498 134.425 64.1762 136.321 65.1794 138.035C67.4947 141.989 69.9248 145.878 72.4072 149.729C74.0025 152.202 75.6263 154.657 77.2789 157.092C78.1841 158.424 80.3647 157.166 79.4516 155.822C76.729 151.817 74.0877 147.759 71.5277 143.647C70.4269 141.883 69.3426 140.109 68.2747 138.326C67.8064 137.542 67.3434 136.755 66.8856 135.964C66.4461 135.363 66.0855 134.708 65.8126 134.015C65.6994 133.557 66.0223 133.236 66.3027 132.914C66.7472 132.397 67.1987 131.887 67.6572 131.383C68.5792 130.364 69.5211 129.365 70.4547 128.357C70.5885 128.219 70.6896 128.054 70.7503 127.872C70.811 127.69 70.8298 127.497 70.8053 127.307C70.7808 127.117 70.7136 126.935 70.6088 126.775C70.504 126.614 70.3642 126.48 70.1999 126.381C68.9126 125.758 67.6179 125.15 66.3326 124.522C65.6957 124.21 65.0594 123.897 64.4325 123.566C64.2228 123.456 64.0163 123.346 63.814 123.227C63.7385 123.171 63.6585 123.121 63.5749 123.079C63.467 123.003 63.5134 123.041 63.7144 123.191C63.5477 123.037 63.6361 123.197 63.9796 123.674V124.343C64.1163 123.708 64.3407 123.096 64.6463 122.523C65.0748 121.584 65.5858 120.684 66.1733 119.835C66.3388 119.546 66.3843 119.204 66.2999 118.882C66.2154 118.56 66.0079 118.285 65.7219 118.114C65.4322 117.953 65.0913 117.91 64.7705 117.994C64.4496 118.078 64.1737 118.283 64.0006 118.566L63.9985 118.561Z" fill="#119EED"/>
<path d="M109.238 123.826C110.077 124.907 110.783 126.084 111.343 127.332C111.352 127.35 111.41 127.545 111.417 127.545C111.344 127.545 111.719 126.827 111.709 126.82C111.698 126.814 111.512 126.906 111.463 126.928C111.183 127.051 110.904 127.175 110.624 127.3C110.128 127.52 109.592 127.706 109.117 127.968C107.853 128.663 107.815 130.29 108.684 131.309C109.121 131.822 109.615 132.293 110.078 132.781C110.306 133.021 110.533 133.261 110.757 133.504C110.996 133.835 111.271 134.138 111.575 134.409L111.733 134.589C111.768 134.141 111.738 134.023 111.644 134.234C111.571 134.334 111.512 134.443 111.467 134.559C111.327 134.814 111.187 135.07 111.048 135.326C110.742 135.883 110.435 136.439 110.126 136.995C108.716 139.535 107.291 142.067 105.85 144.59C104.278 147.351 102.692 150.104 101.093 152.851C100.274 154.251 102.448 155.519 103.266 154.121C106.3 148.935 109.275 143.714 112.19 138.46C112.502 137.898 112.813 137.335 113.123 136.773C113.488 136.197 113.806 135.593 114.073 134.966C114.627 133.378 112.828 132.024 111.859 131.002C111.604 130.734 111.349 130.467 111.093 130.2C110.919 129.988 110.732 129.786 110.534 129.595C110.541 129.595 110.72 130.314 110.402 130.134C110.507 130.101 110.607 130.057 110.701 130.002C111.34 129.718 111.979 129.435 112.618 129.152C113.814 128.623 114.168 127.615 113.67 126.419C113.008 124.838 112.115 123.364 111.019 122.047C110.782 121.813 110.463 121.682 110.13 121.682C109.797 121.682 109.477 121.813 109.24 122.047C109.011 122.286 108.883 122.605 108.883 122.936C108.883 123.268 109.011 123.586 109.24 123.826H109.238Z" fill="#119EED"/>
<path d="M112.441 112.241C116.525 111.288 119.534 109.433 121.558 106.377C124.134 102.463 124.372 97.838 123.87 93.1781C123.278 87.7712 122.504 81.2553 121.649 75.8767C120.326 67.6577 118.966 63.2505 115.242 58.6718C111.876 54.9712 104.626 50.2631 95.504 49.6168C90.967 49.2249 86.398 49.7707 82.081 51.2202L81.3729 51.5573L80.9079 51.779C78.6768 52.5069 76.5692 53.5694 74.6572 54.9303C74.0669 55.3874 73.4552 55.8162 72.8944 56.3084C70.8411 58.1348 69.0977 60.282 67.7318 62.6666C65.373 66.7315 64.4107 72.9293 63.0295 77.7202C61.3872 83.408 59.8163 87.2691 58.5824 92.0705C57.6952 95.7096 58.1506 99.5465 59.865 102.877C62.423 107.878 67.2805 111.009 74.3044 111.203" fill="#645D5C"/>
<path d="M84.8295 114.41C82.2552 112.852 79.9176 110.933 77.8879 108.711C76.6406 107.224 75.5286 105.629 74.5652 103.944C74.5652 103.944 73.629 102.267 73.2495 101.318L72.9932 100.681C71.6002 100.696 70.2311 100.319 69.0425 99.5923C67.4104 98.3863 66.1751 96.721 65.4944 94.8092C64.6741 92.8399 64.4618 89.6042 65.4336 87.7895C65.7591 87.183 66.5375 86.1368 68.4822 85.9717C69.0362 85.9148 69.596 85.9802 70.122 86.1633C70.648 86.3463 71.1275 86.6425 71.5266 87.031C72.7484 86.5126 76.6163 84.8693 76.6163 84.8693C81.2935 83.6456 85.8805 82.0998 90.3443 80.243C98.3039 76.936 102.336 74.0578 107.667 69.0923L107.755 69.1872L110.18 71.819C114.698 76.9491 118.942 86.1887 119.273 91.3843C118.765 94.1839 118.321 96.9515 117.858 99.543C116.779 105.623 114.548 111.033 110.028 114.264C105.283 117.648 100.411 118.848 94.6855 117.953C93.7893 117.817 92.9009 117.635 92.0238 117.406C89.525 116.671 87.113 115.668 84.8301 114.414" fill="white"/>
<path d="M112.775 113.455C115.936 112.703 118.99 111.283 121.214 108.854C123.684 106.153 124.909 102.669 125.245 99.067C125.588 95.3883 124.976 91.6761 124.546 88.0279C124.087 84.1459 123.594 80.266 122.999 76.4018C122.091 70.5096 120.95 64.4507 117.435 59.4899C114.051 54.7126 108.505 51.5393 103.011 49.7896C99.0047 48.5481 94.8063 48.0462 90.6207 48.3083C87.3184 48.4933 83.7441 49.0421 80.7374 50.471C80.4516 50.6415 80.2441 50.9174 80.1597 51.2394C80.0753 51.5614 80.1207 51.9036 80.2861 52.1924C80.4595 52.4751 80.7353 52.6799 81.0561 52.764C81.3769 52.8481 81.7177 52.805 82.0075 52.6437C82.182 52.5604 82.3545 52.4707 82.5317 52.3937C82.5783 52.3738 82.8504 52.2888 82.5909 52.3764C82.7665 52.3187 82.9431 52.2642 83.1198 52.2097C83.8306 51.9911 84.5471 51.7904 85.2689 51.6174C86.6818 51.2717 88.1185 51.0318 89.5671 50.8998C93.079 50.565 96.6219 50.7951 100.061 51.5812C103.103 52.304 106.017 53.4844 108.704 55.0822C110.812 56.2655 112.718 57.7774 114.349 59.5607C117.861 63.6356 119.172 68.9905 120.088 74.1599C120.711 77.6719 121.184 81.2121 121.627 84.7482C122.071 88.2984 122.623 91.8848 122.79 95.4607C122.965 99.2216 122.428 103.084 120.153 106.195C118.214 108.85 115.231 110.28 112.104 111.025C110.531 111.4 111.196 113.827 112.773 113.451L112.775 113.455Z" fill="#726A69"/>
<path d="M80.7906 50.5024C75.5945 51.958 71.0893 55.5717 68.0008 59.9181C64.8071 64.416 63.765 69.7725 62.4446 75.0237C61.0928 80.397 59.0375 85.5527 57.5887 90.8966C56.8337 93.5398 56.7031 96.3222 57.2071 99.0245C57.7104 101.58 58.8021 103.983 60.3956 106.044C63.7414 110.374 68.9554 112.289 74.3024 112.459C75.9221 112.512 75.9206 109.996 74.3024 109.943C70.0797 109.809 65.9183 108.471 63.0165 105.278C61.4819 103.551 60.3877 101.478 59.8269 99.2366C59.2662 96.9951 59.2556 94.6512 59.796 92.4047C61.076 87.2862 63.0705 82.3757 64.4564 77.2876C65.7343 72.5994 66.3901 67.4567 68.8752 63.2036C71.6376 58.4735 76.0988 54.4337 81.4595 52.9293C83.0163 52.4932 82.3553 50.0647 80.7906 50.5035V50.5024Z" fill="#726A69"/>
<path d="M94.6639 93.9358C95.0832 92.7083 94.926 89.8478 92.5837 89.5333C89.4795 89.4552 89.2064 92.8975 90.2006 94.5511C91.0146 95.9048 93.5125 96.5353 94.6639 93.9358Z" fill="#726A69"/>
<path d="M113.076 95.0905C113.467 93.8568 113.338 90.9905 111.194 90.6881C108.351 90.6267 108.082 94.0806 108.984 95.7336C109.722 97.0848 112.007 97.7032 113.076 95.0905Z" fill="#726A69"/>
<path d="M101.142 98.5331C101.452 99.1426 101.748 99.7616 102.016 100.392L101.889 100.091C101.977 100.3 102.061 100.51 102.151 100.72L102.024 100.419C102.083 100.555 102.125 100.697 102.148 100.843L102.104 100.508C102.11 100.569 102.11 100.63 102.104 100.69L102.149 100.356C102.144 100.385 102.136 100.413 102.126 100.44L102.249 100.141C102.231 100.181 102.209 100.218 102.182 100.252L102.379 99.998C102.338 100.039 102.294 100.077 102.249 100.113L102.503 99.9162C102.407 99.9906 102.301 100.053 102.189 100.102L102.489 99.9749C102.399 100.009 102.305 100.033 102.21 100.046L102.544 100.001C102.41 100.015 102.275 100.01 102.14 100.021C101.808 100.029 101.491 100.16 101.249 100.388C101.013 100.624 100.881 100.944 100.881 101.277C100.881 101.611 101.013 101.931 101.249 102.167C101.366 102.284 101.505 102.377 101.658 102.44C101.811 102.503 101.975 102.535 102.14 102.534C102.402 102.513 102.651 102.509 102.916 102.463C103.228 102.404 103.521 102.274 103.775 102.085C104.029 101.921 104.244 101.703 104.404 101.447C104.548 101.188 104.624 100.897 104.624 100.6C104.606 100.184 104.496 99.7761 104.305 99.4057L104.432 99.7061C104.101 98.8729 103.729 98.0572 103.315 97.2622C103.145 96.9759 102.869 96.768 102.547 96.6835C102.225 96.5991 101.883 96.6448 101.594 96.8109C101.312 96.9847 101.108 97.2605 101.024 97.5811C100.94 97.9016 100.982 98.2422 101.143 98.5321L101.142 98.5331Z" fill="#726A69"/>
<path d="M71.8841 85.6888C71.0037 85.0653 69.9572 84.7187 68.8787 84.6934C67.8001 84.6681 66.7385 84.9652 65.8299 85.5468C64.2993 86.5888 63.7285 88.2955 63.5686 90.0735C63.4071 92.088 63.7576 94.1106 64.5873 95.9533C65.417 97.7961 66.6991 99.3991 68.3144 100.614C70.0222 101.819 72.7212 102.37 74.6968 101.612C75.0134 101.516 75.2809 101.301 75.4444 101.014C75.6079 100.726 75.655 100.386 75.5758 100.065C75.4847 99.7445 75.2714 99.4728 74.9818 99.3085C74.6922 99.1441 74.3496 99.1002 74.0279 99.1863C73.3633 99.3919 72.663 99.4562 71.972 99.3749C71.281 99.2937 70.6147 99.0687 70.0159 98.7145C68.7751 97.9408 67.7888 96.8199 67.1791 95.4908C66.5249 94.2704 66.1436 92.9224 66.0616 91.5402C66.0056 90.7943 66.057 90.0442 66.2141 89.313C66.274 89.0325 66.3644 88.7593 66.4835 88.4984C66.527 88.4098 66.5773 88.3259 66.6277 88.241C66.6691 88.1708 66.841 87.9512 66.6984 88.122C67.6094 87.0281 69.4079 86.9369 70.6145 87.8647C70.9031 88.0311 71.2456 88.077 71.5679 87.9925C71.8901 87.9081 72.1661 87.7 72.3359 87.4134C72.4959 87.1233 72.5383 86.7828 72.4542 86.4623C72.37 86.1419 72.1659 85.8661 71.8841 85.692V85.6888Z" fill="#726A69"/>
<path d="M85.4635 113.323C83.0175 111.861 80.7997 110.047 78.8815 107.939C77.0497 105.869 75.5579 103.521 74.4617 100.983C74.3639 100.667 74.1495 100.401 73.862 100.238C73.5745 100.074 73.2356 100.027 72.9143 100.105C72.5937 100.195 72.3216 100.408 72.1572 100.698C71.9927 100.988 71.9491 101.33 72.0358 101.652C74.5104 107.445 78.7712 112.295 84.1966 115.496C85.583 116.34 86.8489 114.165 85.4662 113.323H85.4635Z" fill="#726A69"/>
<path d="M84.1961 115.5C87.3804 117.311 90.8542 118.557 94.4636 119.183C97.959 119.779 101.547 119.502 104.91 118.376C108.164 117.277 111.095 115.388 113.44 112.879C115.56 110.393 117.12 107.479 118.014 104.335C119.272 100.242 119.73 95.9109 120.486 91.707C120.565 91.3856 120.518 91.0459 120.355 90.7581C120.191 90.4702 119.923 90.256 119.607 90.1596C119.285 90.0738 118.942 90.1177 118.653 90.2821C118.364 90.4464 118.15 90.718 118.059 91.0382C117.399 94.7131 116.951 98.462 116.031 102.084C115.368 104.996 114.139 107.75 112.414 110.188C110.538 112.559 108.08 114.404 105.28 115.545C102.355 116.773 99.1632 117.228 96.0115 116.865C92.2704 116.484 88.7548 115.102 85.4678 113.326C84.0431 112.557 82.7714 114.729 84.1977 115.499L84.1961 115.5Z" fill="#726A69"/>
<path d="M76.9504 86.0818C81.7703 84.7823 86.5021 83.1756 91.1167 81.2715C95.3086 79.5947 99.2767 77.4052 102.93 74.7529C104.888 73.2618 106.766 71.6697 108.557 69.9829C109.746 68.8785 107.964 67.1 106.778 68.2039C103.85 71.0206 100.611 73.4946 97.1232 75.5779C92.884 77.9384 88.4264 79.8834 83.8129 81.3858C81.3299 82.2318 78.8096 82.9583 76.2826 83.6575C74.7243 84.0894 75.3863 86.5179 76.9515 86.0839L76.9504 86.0818Z" fill="#726A69"/>
<path d="M120.49 92.963C120.623 91.3337 120.459 89.6937 120.004 88.1233C119.477 86.077 118.781 84.0782 117.921 82.1478C116.202 78.1526 113.982 74.1746 111.065 70.9237C110.269 70.0379 109.451 69.1719 108.644 68.2966C107.543 67.103 105.769 68.8857 106.865 70.0756C108.793 72.0548 110.541 74.2018 112.088 76.4909C114.411 80.0468 116.193 83.9287 117.374 88.0091C117.846 89.7084 118.204 91.2065 117.974 92.9625C117.975 93.2956 118.108 93.6147 118.344 93.8502C118.579 94.0858 118.899 94.2189 119.232 94.2205C119.563 94.2124 119.878 94.0773 120.112 93.8431C120.346 93.6089 120.482 93.2941 120.49 92.963Z" fill="#726A69"/>
<path d="M72.1552 101.921C71.7558 101.868 72.1851 101.94 72.2841 101.967C72.3575 101.987 72.4278 102.014 72.5006 102.036C72.6977 102.095 72.4246 102.011 72.4047 101.992C72.5043 102.057 72.6096 102.113 72.7192 102.159C72.7733 102.203 72.8314 102.242 72.8926 102.276L72.7464 102.164C72.7815 102.192 72.8161 102.222 72.8512 102.252C72.9243 102.337 73.0016 102.417 73.0829 102.494C72.8858 102.351 72.9487 102.299 73.0252 102.423C73.0541 102.469 73.0855 102.513 73.1133 102.56C73.1411 102.607 73.1657 102.656 73.1908 102.703C73.2564 102.819 73.206 102.888 73.1552 102.61C73.1772 102.731 73.2312 102.862 73.26 102.982C73.3098 103.171 73.2433 102.856 73.2448 102.84C73.2458 102.905 73.2502 102.97 73.2579 103.035C73.2579 103.079 73.2579 103.123 73.2579 103.167C73.2537 103.293 73.184 103.429 73.2778 103.102C73.2459 103.213 73.2364 103.332 73.2045 103.444C73.1919 103.487 73.1756 103.53 73.1636 103.573C73.0997 103.798 73.3156 103.296 73.1751 103.548C73.1227 103.643 73.0703 103.735 73.0121 103.827C72.9393 103.945 72.8675 103.91 73.074 103.751C73.0365 103.787 73.0015 103.827 72.9691 103.868C72.9031 103.936 72.8245 103.992 72.7595 104.06C72.9922 103.82 72.9089 103.946 72.8062 104.011C72.7537 104.045 72.6961 104.078 72.639 104.107C72.521 104.169 72.3947 104.157 72.7019 104.089C72.662 104.098 72.6154 104.122 72.5776 104.135C72.4706 104.171 72.3613 104.2 72.2506 104.223C72.0934 104.254 72.03 104.184 72.3088 104.22C72.261 104.22 72.2134 104.224 72.1662 104.231C72.0185 104.24 71.8703 104.238 71.7228 104.226C71.6861 104.226 71.433 104.214 71.6599 104.222C71.879 104.23 71.6432 104.215 71.5997 104.205C71.4793 104.181 71.3605 104.149 71.2438 104.111C71.2007 104.09 71.1558 104.075 71.1096 104.063L71.281 104.137C71.2391 104.119 71.1977 104.099 71.1568 104.079C71.0389 104.018 70.9246 103.951 70.8146 103.876C70.7186 103.814 70.7574 103.763 70.9152 103.955C70.8704 103.911 70.8234 103.868 70.7742 103.828C70.7443 103.799 70.715 103.769 70.6867 103.738C70.5965 103.639 70.5819 103.522 70.726 103.8C70.6841 103.719 70.6212 103.646 70.5766 103.566C70.5525 103.521 70.5347 103.469 70.5069 103.428C70.6924 103.703 70.5819 103.617 70.5415 103.496C70.508 103.395 70.4891 103.293 70.4624 103.19C70.4052 102.949 70.4812 103.516 70.4734 103.266C70.4734 103.222 70.4676 103.178 70.4666 103.133C70.4763 103.02 70.4803 102.905 70.4786 102.791C70.5148 103.062 70.4409 103.017 70.4744 102.859C70.488 102.794 70.5043 102.73 70.5237 102.667C70.5394 102.614 70.563 102.562 70.5761 102.512C70.611 102.421 70.5899 102.471 70.5127 102.663C70.531 102.624 70.5504 102.585 70.5709 102.547C70.5913 102.509 70.6133 102.472 70.6358 102.436C70.6584 102.399 70.682 102.363 70.7071 102.327C70.7826 102.222 70.7562 102.256 70.628 102.427C70.7162 102.347 70.7995 102.261 70.8775 102.17C70.9713 102.078 71.0509 102.109 70.8025 102.223C70.8601 102.189 70.9158 102.152 70.9692 102.112C71.0268 102.077 71.0855 102.044 71.1458 102.014C71.1762 101.998 71.2071 101.983 71.238 101.97C71.3266 101.929 71.2794 101.95 71.0965 102.03C71.2344 101.998 71.3704 101.959 71.5038 101.912C71.5521 101.906 71.6001 101.898 71.6474 101.886C71.4341 101.912 71.3963 101.919 71.5336 101.906C71.586 101.901 71.6343 101.899 71.6851 101.898C71.8427 101.895 72.0003 101.902 72.1568 101.921C72.4901 101.92 72.8095 101.787 73.0452 101.551C73.2808 101.316 73.4137 100.996 73.4146 100.663C73.4055 100.332 73.2701 100.018 73.0361 99.7837C72.8022 99.5498 72.4875 99.4143 72.1568 99.4052C71.3947 99.3149 70.6231 99.4563 69.9425 99.8109C69.262 100.165 68.704 100.717 68.3413 101.393C67.9954 102.086 67.8767 102.871 68.0024 103.635C68.128 104.399 68.4914 105.105 69.041 105.65C69.6156 106.164 70.3163 106.515 71.0714 106.669C71.8264 106.823 72.6088 106.774 73.3386 106.527C74.1017 106.256 74.7563 105.745 75.2045 105.07C75.6118 104.436 75.8103 103.69 75.7721 102.937C75.7222 102.047 75.3515 101.205 74.7286 100.567C74.028 99.8987 73.121 99.4891 72.1568 99.4052C71.9914 99.4042 71.8274 99.4362 71.6745 99.4992C71.5215 99.5621 71.3826 99.6549 71.2658 99.7721C71.0299 100.008 70.8974 100.328 70.8974 100.661C70.8974 100.995 71.0299 101.315 71.2658 101.551C71.513 101.769 71.8259 101.9 72.1552 101.921Z" fill="#726A69"/>
<path d="M72.1553 100.663C72.4886 100.681 72.8148 100.766 73.1146 100.913C73.4144 101.06 73.6817 101.265 73.9005 101.517C74.1194 101.769 74.2855 102.063 74.3888 102.38C74.4922 102.698 74.5307 103.033 74.5022 103.365C74.3267 104.801 73.105 105.656 71.5673 105.468C69.9714 105.274 69.0516 104.148 69.2256 102.722C69.2776 102.392 69.3955 102.075 69.5723 101.792C69.749 101.508 69.9809 101.263 70.2542 101.071C70.5275 100.879 70.8367 100.744 71.1632 100.674C71.4898 100.604 71.8272 100.6 72.1553 100.663Z" fill="white"/>
<path d="M72.1552 101.921C71.7558 101.868 72.1851 101.94 72.2841 101.967C72.3575 101.987 72.4278 102.014 72.5006 102.036C72.6977 102.095 72.4246 102.011 72.4047 101.992C72.5043 102.057 72.6096 102.113 72.7192 102.159C72.7733 102.203 72.8314 102.242 72.8926 102.276L72.7464 102.164C72.7815 102.192 72.8161 102.222 72.8512 102.252C72.9243 102.337 73.0016 102.417 73.0829 102.494C72.8858 102.351 72.9487 102.299 73.0252 102.423C73.0541 102.469 73.0855 102.513 73.1133 102.56C73.1411 102.607 73.1657 102.656 73.1908 102.703C73.2564 102.819 73.206 102.888 73.1552 102.61C73.1772 102.731 73.2312 102.862 73.26 102.982C73.3098 103.171 73.2433 102.856 73.2448 102.84C73.2458 102.905 73.2502 102.97 73.2579 103.035C73.2579 103.079 73.2579 103.123 73.2579 103.167C73.2537 103.293 73.184 103.429 73.2778 103.102C73.2459 103.213 73.2364 103.332 73.2045 103.444C73.1919 103.487 73.1756 103.53 73.1636 103.573C73.0997 103.798 73.3156 103.296 73.1751 103.548C73.1227 103.643 73.0703 103.735 73.0121 103.827C72.9393 103.945 72.8675 103.91 73.074 103.751C73.0365 103.787 73.0015 103.827 72.9691 103.868C72.9031 103.936 72.8245 103.992 72.7595 104.06C72.9922 103.82 72.9089 103.946 72.8062 104.011C72.7537 104.045 72.6961 104.078 72.639 104.107C72.521 104.169 72.3947 104.157 72.7019 104.089C72.662 104.098 72.6154 104.122 72.5776 104.135C72.4706 104.171 72.3613 104.2 72.2506 104.223C72.0934 104.254 72.03 104.184 72.3088 104.22C72.261 104.22 72.2134 104.224 72.1662 104.231C72.0185 104.24 71.8703 104.238 71.7228 104.226C71.6861 104.226 71.433 104.214 71.6599 104.222C71.879 104.23 71.6432 104.215 71.5997 104.205C71.4793 104.181 71.3605 104.149 71.2438 104.111C71.2007 104.09 71.1558 104.075 71.1096 104.063L71.281 104.137C71.2391 104.119 71.1977 104.099 71.1568 104.079C71.0389 104.018 70.9246 103.951 70.8146 103.876C70.7186 103.814 70.7574 103.763 70.9152 103.955C70.8704 103.911 70.8234 103.868 70.7742 103.828C70.7443 103.799 70.715 103.769 70.6867 103.738C70.5965 103.639 70.5819 103.522 70.726 103.8C70.6841 103.719 70.6212 103.646 70.5766 103.566C70.5525 103.521 70.5347 103.469 70.5069 103.428C70.6924 103.703 70.5819 103.617 70.5415 103.496C70.508 103.395 70.4891 103.293 70.4624 103.19C70.4052 102.949 70.4812 103.516 70.4734 103.266C70.4734 103.222 70.4676 103.178 70.4666 103.133C70.4763 103.02 70.4803 102.905 70.4786 102.791C70.5148 103.062 70.4409 103.017 70.4744 102.859C70.488 102.794 70.5043 102.73 70.5237 102.667C70.5394 102.614 70.563 102.562 70.5761 102.512C70.611 102.421 70.5899 102.471 70.5127 102.663C70.531 102.624 70.5504 102.585 70.5709 102.547C70.5913 102.509 70.6133 102.472 70.6358 102.436C70.6584 102.399 70.682 102.363 70.7071 102.327C70.7826 102.222 70.7562 102.256 70.628 102.427C70.7162 102.347 70.7995 102.261 70.8775 102.17C70.9713 102.078 71.0509 102.109 70.8025 102.223C70.8601 102.189 70.9158 102.152 70.9692 102.112C71.0268 102.077 71.0855 102.044 71.1458 102.014C71.1762 101.998 71.2071 101.983 71.238 101.97C71.3266 101.929 71.2794 101.95 71.0965 102.03C71.2344 101.998 71.3704 101.959 71.5038 101.912C71.5521 101.906 71.6001 101.898 71.6474 101.886C71.4341 101.912 71.3963 101.919 71.5336 101.906C71.586 101.901 71.6343 101.899 71.6851 101.898C71.8427 101.895 72.0003 101.902 72.1568 101.921C72.4901 101.92 72.8095 101.787 73.0452 101.551C73.2808 101.316 73.4137 100.996 73.4146 100.663C73.4055 100.332 73.2701 100.018 73.0361 99.7837C72.8022 99.5498 72.4875 99.4143 72.1568 99.4052C71.3947 99.3149 70.6231 99.4563 69.9425 99.8109C69.262 100.165 68.704 100.717 68.3413 101.393C67.9954 102.086 67.8767 102.871 68.0024 103.635C68.128 104.399 68.4914 105.105 69.041 105.65C69.6156 106.164 70.3163 106.515 71.0714 106.669C71.8264 106.823 72.6088 106.774 73.3386 106.527C74.1017 106.256 74.7563 105.745 75.2045 105.07C75.6118 104.436 75.8103 103.69 75.7721 102.937C75.7222 102.047 75.3515 101.205 74.7286 100.567C74.028 99.8987 73.121 99.4891 72.1568 99.4052C71.9914 99.4042 71.8274 99.4362 71.6745 99.4992C71.5215 99.5621 71.3826 99.6549 71.2658 99.7721C71.0299 100.008 70.8974 100.328 70.8974 100.661C70.8974 100.995 71.0299 101.315 71.2658 101.551C71.513 101.769 71.8259 101.9 72.1552 101.921Z" fill="#726A69"/>
<path d="M94.5633 107.887C95.573 108.666 96.7477 109.204 97.9974 109.459C99.2087 109.711 100.458 109.718 101.672 109.481C102.003 109.438 102.303 109.265 102.507 109C102.71 108.736 102.8 108.402 102.757 108.071C102.714 107.74 102.542 107.44 102.277 107.236C102.013 107.033 101.678 106.943 101.347 106.986C101.23 107.004 99.7208 107.172 99.7208 107.172C99.722 107.164 100.016 107.182 99.8023 107.172C99.7439 107.17 99.6854 107.168 99.6271 107.165C99.4928 107.156 99.358 107.144 99.2243 107.127C98.961 107.094 98.6995 107.048 98.4408 106.989C98.3787 106.975 98.317 106.959 98.255 106.945C98.0582 106.899 98.2847 106.925 98.3024 106.961C98.2815 106.918 97.9905 106.865 97.9362 106.848C97.6824 106.763 97.433 106.667 97.1879 106.558C96.9573 106.455 96.7403 106.307 96.5084 106.211C96.3674 106.147 96.2072 106.141 96.0617 106.193C95.9161 106.246 95.7968 106.353 95.7288 106.492C95.6609 106.631 95.6498 106.791 95.6978 106.938C95.7458 107.085 95.8493 107.207 95.9861 107.279C96.123 107.351 96.2826 107.367 96.431 107.324C96.5794 107.28 96.7049 107.18 96.7811 107.046C96.8572 106.911 96.8779 106.752 96.8388 106.602C96.7996 106.453 96.7037 106.324 96.5714 106.244C96.515 106.205 96.4572 106.168 96.4014 106.129C96.3049 106.062 96.2132 105.988 96.1227 105.912C95.8598 105.708 95.5274 105.616 95.197 105.655C94.8665 105.693 94.5646 105.86 94.356 106.119C94.1555 106.384 94.0651 106.715 94.1038 107.045C94.1424 107.374 94.3071 107.676 94.5633 107.887Z" fill="#726A69"/>
<path d="M65.8877 113.132C58.91 115.766 51.667 118.373 46.1065 123.54C44.1357 125.314 42.4806 127.41 41.2118 129.738C40.1373 131.854 39.1929 134.034 38.3839 136.265C36.3176 141.739 34.6413 147.364 33.084 153.002C31.8113 157.609 30.6047 162.244 29.6093 166.92C29.1307 169.166 28.7423 171.434 28.3927 173.703C27.869 177.116 27.3496 180.612 27.749 184.066C27.828 184.958 27.9972 185.84 28.2538 186.698C28.7575 188.229 31.1891 187.573 30.6802 186.029C29.6842 183.01 30.1266 179.533 30.5229 176.452C30.8605 173.808 31.3144 171.169 31.837 168.555C32.6919 164.282 33.7911 160.049 34.9212 155.841C36.4183 150.266 38.038 144.711 39.9612 139.266C40.7867 136.93 41.6312 134.699 42.6045 132.599C43.4239 130.739 44.506 129.007 45.8177 127.456C50.5809 121.988 57.2447 119.105 63.8749 116.574C64.7684 116.233 65.663 115.894 66.5587 115.558C66.8753 115.462 67.1429 115.247 67.3064 114.959C67.4698 114.672 67.5166 114.332 67.4372 114.011C67.3463 113.69 67.1331 113.419 66.8436 113.254C66.5541 113.09 66.2115 113.046 65.8898 113.132H65.8877Z" fill="#119EED"/>
</g>
<path d="M190.527 15.3242C163.65 15.3242 145.071 36.0879 145.071 60.3797C145.071 87.5616 164.048 106.28 190.527 106.28C218.027 106.28 235.982 87.3866 235.982 60.3797C235.984 35.9202 217.309 15.3242 190.527 15.3242Z" fill="#64C7FF"/>
<path d="M190.527 14.2361C180.401 14.2524 170.326 17.2586 162.203 23.3694C154.555 29.1502 148.919 37.1799 146.09 46.326C143.163 55.7667 143.312 66.2379 146.147 75.6845C148.74 84.5137 154.043 92.3102 161.31 97.9769C168.832 103.761 178.121 106.777 187.555 107.288C197.205 107.811 207.158 105.936 215.559 101.05C223.266 96.5292 229.331 89.6808 232.878 81.4951C236.73 72.4803 237.981 62.571 236.488 52.8852C235.032 43.431 230.657 34.6649 223.971 27.8078C217.037 20.8301 208.026 16.2767 198.284 14.8277C195.717 14.4388 193.124 14.241 190.527 14.2361C189.123 14.2361 189.121 16.4122 190.527 16.4122C200.239 16.4276 209.791 19.3064 217.605 25.1221C224.857 30.591 230.196 38.2005 232.863 46.8691C235.636 55.8238 235.529 65.6834 233.003 74.6839C230.685 82.9477 226.048 90.4117 219.342 95.8289C212.436 101.405 203.652 104.377 194.815 105.035C185.528 105.727 176.01 104.16 167.809 99.6398C160.204 95.4199 154.14 88.9002 150.49 81.0209C148.565 76.8264 147.273 72.3705 146.657 67.7983C145.968 63.0529 145.974 58.2328 146.674 53.489C148.039 44.4468 152.187 36.0506 158.543 29.4611C165.175 22.7468 173.811 18.359 183.155 16.9562C185.595 16.5879 188.059 16.406 190.527 16.4122C191.931 16.4122 191.934 14.2361 190.527 14.2361Z" fill="#119EED"/>
<path d="M190.528 23.9382C168.741 23.9382 153.681 40.7682 153.681 60.462C153.681 82.4951 169.065 97.6703 190.529 97.6703C212.821 97.6703 227.377 82.3546 227.377 60.462C227.377 40.6322 212.238 23.9382 190.528 23.9382Z" fill="white"/>
<path d="M190.527 22.8496C182.272 22.8641 174.048 25.3122 167.432 30.3028C161.229 34.9967 156.65 41.5054 154.334 48.9203C151.994 56.688 151.982 64.9689 154.3 72.7433C156.38 79.9736 160.688 86.3678 166.615 91.0199C172.755 95.7602 180.309 98.2532 188.024 98.6862C195.871 99.1264 203.969 97.6158 210.815 93.668C217.115 90.0049 222.083 84.4364 224.997 77.7692C228.177 70.3848 229.211 62.2573 227.981 54.3148C226.793 46.6366 223.24 39.5169 217.815 33.9419C212.175 28.25 204.839 24.5309 196.905 23.3401C194.794 23.0186 192.662 22.8547 190.527 22.8496C189.123 22.8469 189.121 25.023 190.527 25.0257C198.378 24.9665 206.038 27.4324 212.373 32.0577C218.194 36.4522 222.483 42.5606 224.633 49.5192C226.88 56.7412 226.802 64.6862 224.774 71.9522C222.969 78.6658 219.105 84.6488 213.723 89.065C208.162 93.5496 201.064 95.9375 193.946 96.4584C186.461 97.006 178.794 95.743 172.188 92.0925C166.043 88.675 161.149 83.3946 158.216 77.0166C155.087 70.1002 154.033 62.4288 155.178 54.9278C156.276 47.6279 159.623 40.8492 164.755 35.5304C170.112 30.1136 177.088 26.5776 184.633 25.4541C186.584 25.1622 188.554 25.0184 190.527 25.0239C191.931 25.0212 191.934 22.8451 190.527 22.8496Z" fill="#119EED"/>
<path d="M190.549 61.9019H203.136C204.54 61.9019 204.543 59.7258 203.136 59.7258H190.549C189.145 59.7258 189.143 61.9019 190.549 61.9019Z" fill="#726A69"/>
<path d="M189.458 41.7843C189.458 47.0538 189.458 52.3235 189.458 57.5933C189.458 58.6596 189.458 59.7259 189.458 60.7922C189.458 62.1922 191.643 62.1944 191.64 60.7922C191.632 55.601 191.632 50.4097 191.64 45.2185C191.64 44.0736 191.64 42.9289 191.64 41.7843C191.64 40.3839 189.458 40.3816 189.458 41.7843Z" fill="#726A69"/>
<path d="M189.407 31.0276C189.407 31.6827 189.412 32.3378 189.413 32.9924C189.416 33.2805 189.53 33.5565 189.731 33.7631C189.936 33.9672 190.213 34.0818 190.502 34.0818C190.792 34.0818 191.069 33.9672 191.274 33.7631C191.474 33.5559 191.588 33.2803 191.592 32.9924C191.592 32.3378 191.587 31.6827 191.587 31.0276C191.584 30.7395 191.47 30.4635 191.269 30.2569C191.167 30.1558 191.047 30.0756 190.914 30.0209C190.782 29.9661 190.64 29.938 190.497 29.938C190.353 29.938 190.212 29.9661 190.079 30.0209C189.947 30.0756 189.826 30.1558 189.725 30.2569C189.524 30.464 189.411 30.7396 189.407 31.0276Z" fill="#726A69"/>
<path d="M189.407 88.612C189.407 89.2671 189.412 89.9222 189.413 90.5769C189.416 90.865 189.53 91.141 189.731 91.3476C189.936 91.5516 190.213 91.6663 190.502 91.6663C190.792 91.6663 191.069 91.5516 191.274 91.3476C191.474 91.1403 191.588 90.8648 191.592 90.5769C191.592 89.9222 191.587 89.2671 191.587 88.612C191.584 88.3239 191.47 88.048 191.269 87.8413C191.167 87.7402 191.047 87.6601 190.914 87.6053C190.782 87.5506 190.64 87.5225 190.497 87.5225C190.353 87.5225 190.212 87.5506 190.079 87.6053C189.947 87.6601 189.826 87.7402 189.725 87.8413C189.524 88.0485 189.411 88.3241 189.407 88.612Z" fill="#726A69"/>
<path d="M220.354 59.7117C219.698 59.7117 219.041 59.7167 218.384 59.7167C218.095 59.7194 217.819 59.8331 217.611 60.034C217.407 60.2381 217.292 60.5148 217.292 60.8034C217.292 61.0919 217.407 61.3687 217.611 61.5727C217.819 61.7728 218.096 61.8863 218.384 61.8901C219.041 61.8901 219.698 61.8851 220.354 61.8851C220.643 61.882 220.92 61.7684 221.127 61.5677C221.229 61.4667 221.309 61.3465 221.364 61.2143C221.42 61.082 221.448 60.9402 221.448 60.797C221.448 60.6538 221.42 60.512 221.364 60.3798C221.309 60.2475 221.229 60.1274 221.127 60.0263C220.92 59.826 220.643 59.7124 220.354 59.709V59.7117Z" fill="#726A69"/>
<path d="M162.618 59.7117C161.962 59.7117 161.305 59.7167 160.648 59.7167C160.359 59.7194 160.082 59.8331 159.875 60.034C159.671 60.2381 159.556 60.5148 159.556 60.8034C159.556 61.0919 159.671 61.3687 159.875 61.5727C160.083 61.7728 160.359 61.8863 160.648 61.8901C161.305 61.8901 161.962 61.8851 162.618 61.8851C162.907 61.882 163.183 61.7684 163.391 61.5677C163.492 61.4667 163.573 61.3465 163.628 61.2143C163.683 61.082 163.712 60.9402 163.712 60.797C163.712 60.6538 163.683 60.512 163.628 60.3798C163.573 60.2475 163.492 60.1274 163.391 60.0263C163.183 59.826 162.907 59.7124 162.618 59.709V59.7117Z" fill="#726A69"/>
<path d="M174.63 35.5669C174.958 36.1341 175.291 36.7003 175.619 37.2661C175.692 37.3895 175.788 37.4975 175.902 37.5839C176.016 37.6704 176.146 37.7335 176.285 37.7697C176.423 37.806 176.568 37.8146 176.71 37.7952C176.852 37.7758 176.988 37.7286 177.112 37.6565C177.357 37.5123 177.536 37.2793 177.612 37.0063C177.685 36.7232 177.645 36.4232 177.503 36.1681C177.174 35.6005 176.841 35.0347 176.513 34.4684C176.367 34.2193 176.127 34.0382 175.847 33.965C175.568 33.8918 175.27 33.9325 175.02 34.0781C174.776 34.2225 174.596 34.4556 174.52 34.7287C174.448 35.0118 174.487 35.3119 174.63 35.5669H174.63Z" fill="#726A69"/>
<path d="M203.498 85.4367C203.827 86.0038 204.159 86.5701 204.488 87.1358C204.635 87.378 204.867 87.5562 205.14 87.6345C205.424 87.7098 205.726 87.6704 205.98 87.5248C206.225 87.3808 206.404 87.1477 206.48 86.8747C206.553 86.5914 206.514 86.2911 206.37 86.036C206.042 85.4688 205.709 84.9026 205.381 84.3368C205.234 84.0946 205.001 83.9165 204.729 83.8381C204.445 83.7629 204.143 83.8023 203.888 83.9478C203.644 84.0922 203.465 84.3253 203.388 84.5984C203.316 84.8816 203.355 85.1816 203.498 85.4367Z" fill="#726A69"/>
<path d="M215.803 44.9737C215.235 45.301 214.667 45.6328 214.099 45.9606C213.857 46.107 213.678 46.3391 213.599 46.6107C213.524 46.8938 213.564 47.1952 213.709 47.4494C213.854 47.6931 214.088 47.8718 214.361 47.9481C214.645 48.0201 214.946 47.9809 215.202 47.8384C215.771 47.5106 216.339 47.1788 216.906 46.8515C217.149 46.7052 217.327 46.4728 217.406 46.2009C217.481 45.9179 217.442 45.6167 217.296 45.3626C217.151 45.1186 216.918 44.9399 216.644 44.864C216.36 44.7918 216.059 44.831 215.803 44.9737Z" fill="#726A69"/>
<path d="M165.801 73.7657C165.232 74.093 164.665 74.4249 164.097 74.7526C163.855 74.899 163.676 75.1311 163.597 75.4028C163.522 75.6859 163.562 75.9872 163.707 76.2415C163.852 76.4854 164.086 76.6641 164.36 76.7402C164.644 76.8125 164.944 76.7734 165.2 76.6309C165.769 76.3031 166.337 75.9713 166.904 75.6435C167.154 75.4979 167.335 75.2593 167.409 74.9801C167.482 74.701 167.441 74.4043 167.295 74.1551C167.151 73.9111 166.917 73.7323 166.643 73.6564C166.359 73.5843 166.058 73.6235 165.802 73.7661L165.801 73.7657Z" fill="#726A69"/>
<path d="M204.488 34.4682C204.159 35.0358 203.826 35.6016 203.498 36.1678C203.354 36.4225 203.315 36.723 203.388 37.0061C203.426 37.1439 203.491 37.2728 203.58 37.3855C203.668 37.4983 203.777 37.5926 203.902 37.663C204.027 37.7335 204.164 37.7788 204.306 37.7963C204.449 37.8138 204.593 37.8032 204.731 37.765C205.003 37.6859 205.236 37.508 205.383 37.2663C205.712 36.6992 206.044 36.1329 206.372 35.5671C206.517 35.3125 206.556 35.0119 206.482 34.7289C206.444 34.5911 206.38 34.4621 206.292 34.3493C206.204 34.2365 206.094 34.142 205.969 34.0714C205.845 34.0008 205.707 33.9554 205.565 33.9378C205.423 33.9201 205.279 33.9306 205.141 33.9686C204.869 34.0479 204.636 34.2258 204.489 34.4673L204.488 34.4682Z" fill="#726A69"/>
<path d="M175.619 84.3381C175.29 84.9053 174.957 85.4715 174.629 86.0373C174.485 86.2921 174.446 86.5928 174.519 86.876C174.597 87.1484 174.775 87.381 175.019 87.5261C175.145 87.5989 175.284 87.646 175.428 87.6649C175.573 87.6837 175.719 87.6738 175.86 87.6358C176.132 87.5567 176.364 87.3788 176.511 87.1372C176.84 86.57 177.173 86.0038 177.501 85.438C177.645 85.1832 177.685 84.8827 177.611 84.5997C177.573 84.4619 177.508 84.3329 177.42 84.2201C177.332 84.1073 177.223 84.0129 177.098 83.9423C176.973 83.8717 176.836 83.8263 176.694 83.8086C176.552 83.791 176.407 83.8014 176.269 83.8394C175.997 83.9185 175.764 84.0965 175.617 84.3381H175.619Z" fill="#726A69"/>
<path d="M164.098 46.8521C164.667 47.1795 165.234 47.5113 165.802 47.8391C166.057 47.9825 166.358 48.0218 166.642 47.9488C166.781 47.9109 166.91 47.8461 167.023 47.7583C167.136 47.6704 167.231 47.5612 167.302 47.4369C167.372 47.3126 167.418 47.1755 167.435 47.0337C167.453 46.8918 167.442 46.7479 167.404 46.6101C167.325 46.3386 167.147 46.1067 166.904 45.9599C166.336 45.6322 165.768 45.3003 165.201 44.973C164.945 44.8292 164.644 44.7899 164.36 44.8633C164.222 44.9012 164.093 44.9659 163.98 45.0537C163.866 45.1415 163.772 45.2506 163.701 45.3749C163.63 45.4992 163.585 45.6362 163.567 45.778C163.549 45.9199 163.56 46.0638 163.598 46.2016C163.677 46.4731 163.856 46.7051 164.098 46.8521Z" fill="#726A69"/>
<path d="M214.099 75.644C214.668 75.9717 215.235 76.3036 215.803 76.6314C216.058 76.775 216.36 76.8142 216.644 76.7406C216.782 76.7027 216.911 76.6379 217.024 76.5501C217.137 76.4623 217.232 76.3531 217.302 76.2289C217.373 76.1046 217.419 75.9676 217.436 75.8258C217.454 75.684 217.444 75.5401 217.405 75.4023C217.326 75.1309 217.148 74.8989 216.905 74.7522C216.337 74.4244 215.769 74.0926 215.202 73.7652C214.946 73.6214 214.645 73.5821 214.361 73.6555C214.088 73.7328 213.855 73.9112 213.709 74.1542C213.636 74.2798 213.589 74.4185 213.57 74.5624C213.551 74.7063 213.561 74.8524 213.599 74.9925C213.678 75.2639 213.857 75.4959 214.099 75.6426V75.644Z" fill="#726A69"/>
<path d="M0 219.991C0 208.589 9.24315 199.346 20.6452 199.346H67.566C78.968 199.346 88.2111 208.589 88.2111 219.991V219.991C88.2111 231.393 78.968 240.636 67.566 240.636H20.6452C9.24315 240.636 0 231.393 0 219.991V219.991Z" fill="#E5005A"/>
<path d="M48.0332 209.881H65.6492V231.401H61.8185V213.467H51.693V231.401H48.0332V209.881ZM50.5463 217.932H63.4045V221.446H50.5463V217.932ZM50.5463 226.204H63.4045V229.79H50.5463V226.204Z" fill="white"/>
<path d="M29.4663 208.514H33.3945V218.738H29.4663V208.514ZM21.5854 210.662L24.8305 209.417C26.0748 211.101 27.2216 213.345 27.7096 214.907L24.2693 216.346C23.8789 214.785 22.7322 212.394 21.5854 210.662ZM37.5667 209.173L41.5681 210.296C40.4945 212.565 39.2746 214.858 38.2742 216.395L35.1024 215.322C36.0296 213.638 37.0543 211.149 37.5667 209.173ZM22.293 216.883H41.1045V231.669H37.2983V220.445H22.293V216.883ZM23.147 221.958H38.6402V225.374H23.147V221.958ZM21.7074 227.18H39.299V230.717H21.7074V227.18Z" fill="white"/>
<path d="M251.078 220.901C252.204 220.873 253.442 220.817 253.977 220.76C256.624 220.535 260.875 220.197 266.027 219.747C268.842 219.522 272.164 219.325 274.219 219.24L274.247 223.632C272.783 223.66 270.39 223.66 268.842 223.97C265.801 224.646 263.183 227.939 263.183 231.29C263.183 235.428 267.068 237.061 271.939 237.342L270.334 242.072C264.056 241.593 258.679 238.187 258.679 232.19C258.679 228.333 260.734 225.349 262.254 223.97C259.833 224.223 254.878 224.786 251.5 225.546L251.078 220.901ZM270.249 225.997C270.953 227.038 271.939 228.728 272.445 229.769L269.94 230.867C269.18 229.234 268.701 228.305 267.8 227.01L270.249 225.997ZM273.431 224.646C274.163 225.659 275.204 227.292 275.767 228.305L273.29 229.488C272.474 227.883 271.939 227.01 271.01 225.743L273.431 224.646Z" fill="#E5005A"/>
<path d="M241.019 217.635C240.934 218.227 240.85 219.015 240.822 219.691C240.737 221.323 240.709 225.434 240.709 227.799C240.709 230.557 241.188 235.738 241.188 238.159C241.188 240.805 239.048 242.607 235.332 242.607C230.574 242.607 228.125 240.721 228.125 237.596C228.125 234.583 230.828 232.444 235.304 232.444C241.638 232.444 246.227 235.4 248.676 237.455L246.227 241.255C243.468 238.609 239.442 235.935 234.741 235.935C233.164 235.935 232.263 236.554 232.263 237.342C232.263 238.271 233.192 238.75 234.656 238.75C236.092 238.75 236.88 238.356 236.88 236.92C236.88 235.512 236.543 230.67 236.543 227.799C236.543 225.011 236.599 221.07 236.599 219.691C236.599 219.156 236.543 218.255 236.402 217.635H241.019ZM228.829 220.028C230.94 220.366 234.009 220.648 235.642 220.648C239.611 220.648 243.271 220.479 247.635 219.775L247.607 223.66C244.904 224.054 240.174 224.392 235.67 224.392C233.981 224.392 230.828 224.139 228.913 223.885L228.829 220.028ZM228.66 226.166C230.405 226.504 233.981 226.701 235.276 226.701C241.103 226.701 244.679 226.335 248.029 225.94L248.001 229.938C244.059 230.36 241.188 230.529 235.219 230.529C233.727 230.529 230.49 230.389 228.716 230.163L228.66 226.166Z" fill="#E5005A"/>
<path d="M198.222 220.591H224.094V224.279H198.222V220.591ZM201.798 230.473H208.779V233.429H201.798V230.473ZM201.798 234.696H208.779V237.652H201.798V234.696ZM213.143 226.194H216.887V237.736H213.143V226.194ZM207.372 225.884H211.313V239.482C211.313 241.115 211.003 242.044 209.962 242.607C208.92 243.198 207.625 243.254 205.964 243.254C205.767 242.241 205.204 240.72 204.697 239.82C205.514 239.876 206.583 239.876 206.921 239.848C207.259 239.848 207.372 239.735 207.372 239.425V225.884ZM218.745 225.462H222.771V239.003C222.771 240.889 222.433 241.903 221.195 242.522C219.984 243.142 218.408 243.254 216.409 243.226C216.212 242.128 215.564 240.411 214.973 239.369C216.24 239.454 217.704 239.454 218.154 239.425C218.605 239.425 218.745 239.313 218.745 238.947V225.462ZM201.826 217.889L205.739 216.537C206.724 217.579 207.822 218.987 208.273 220.056L204.106 221.492C203.768 220.507 202.755 218.987 201.826 217.889ZM216.268 216.509L220.744 217.804C219.562 219.634 218.323 221.38 217.366 222.562L213.678 221.323C214.607 220 215.677 218.03 216.268 216.509ZM199.63 225.884H208.47V229.291H203.487V243.142H199.63V225.884Z" fill="#E5005A"/>
<path d="M174.518 226.729H189.241V230.698H174.518V226.729ZM187.918 226.729H192.225C192.225 226.729 192.197 227.939 192.169 228.446C191.916 236.892 191.606 240.298 190.649 241.509C189.833 242.579 188.988 242.888 187.834 243.085C186.848 243.254 185.272 243.254 183.667 243.226C183.611 242.015 183.048 240.242 182.316 239.088C183.723 239.2 185.047 239.228 185.75 239.228C186.229 239.228 186.539 239.144 186.877 238.806C187.468 238.13 187.721 234.977 187.918 227.461V226.729ZM177.305 216.819L181.753 218.114C179.613 223.097 176.122 227.827 172.547 230.67C171.787 229.769 170.013 228.108 169.028 227.348C172.519 225.04 175.644 221.07 177.305 216.819ZM188.538 216.763C190.283 220.225 193.774 224.223 196.871 226.729C195.773 227.601 194.168 229.291 193.38 230.445C190.199 227.32 186.792 222.759 184.484 218.367L188.538 216.763ZM179.022 227.911H183.498C183.02 234.33 181.95 240.242 173.251 243.536C172.744 242.381 171.562 240.636 170.576 239.735C178.234 237.23 178.628 232.725 179.022 227.911Z" fill="#E5005A"/>
<path fill-rule="evenodd" clip-rule="evenodd" d="M247.574 217.781C248.437 216.812 249.663 216.243 250.961 216.211C252.094 216.183 253.16 216.129 253.486 216.095C253.517 216.091 253.548 216.088 253.58 216.086C254.505 216.007 255.608 215.916 256.865 215.812C259.266 215.614 262.233 215.369 265.618 215.073L265.653 215.07C268.524 214.841 271.907 214.64 274.026 214.553C275.298 214.5 276.536 214.967 277.457 215.845C278.378 216.723 278.903 217.938 278.911 219.211L278.939 223.602C278.941 223.863 278.921 224.12 278.882 224.369C279.255 224.966 279.602 225.546 279.869 226.027C280.498 227.159 280.631 228.5 280.237 229.734C279.843 230.967 278.957 231.983 277.789 232.54L275.311 233.723C275.227 233.763 275.141 233.801 275.056 233.836C275.347 234.094 275.608 234.391 275.83 234.721C276.648 235.935 276.853 237.463 276.382 238.85L274.777 243.58C274.089 245.609 272.114 246.914 269.977 246.751C266.165 246.46 262.297 245.265 259.266 242.9C256.116 240.443 253.987 236.779 253.987 232.191C253.987 231.361 254.052 230.561 254.172 229.794C253.592 229.9 253.039 230.01 252.53 230.124C251.212 230.421 249.83 230.135 248.738 229.34C248.471 229.145 248.227 228.924 248.01 228.683L248.029 225.941C247.636 225.987 247.24 226.033 246.838 226.078C246.834 226.043 246.83 226.007 246.827 225.972L246.629 223.79C246.978 223.748 247.305 223.705 247.607 223.661L247.635 219.776C247.245 219.838 246.862 219.897 246.483 219.951C246.648 219.153 247.021 218.402 247.574 217.781ZM258.885 234.153C259.925 238.931 264.777 241.649 270.334 242.072L271.939 237.343C270.218 237.243 268.621 236.975 267.274 236.488C265.383 235.803 263.987 234.686 263.438 232.995C263.356 232.74 263.292 232.472 263.249 232.191C263.206 231.905 263.183 231.605 263.183 231.29C263.183 230.525 263.32 229.763 263.567 229.034C263.844 228.217 264.26 227.441 264.778 226.751C265.233 226.145 265.767 225.604 266.354 225.158C266.523 225.03 266.696 224.91 266.873 224.799C266.876 224.797 266.879 224.795 266.882 224.793C267.171 224.611 267.469 224.453 267.775 224.32C268.122 224.169 268.479 224.051 268.842 223.97C269.01 223.937 269.188 223.907 269.374 223.88C269.613 223.846 269.865 223.816 270.124 223.792C271.049 223.704 272.074 223.672 272.981 223.654C273.23 223.649 273.471 223.645 273.698 223.642C273.711 223.642 273.724 223.641 273.737 223.641C273.785 223.64 273.833 223.64 273.88 223.639C274.008 223.637 274.131 223.635 274.247 223.632L274.219 219.241C274.2 219.241 274.182 219.242 274.163 219.243C272.933 219.294 271.266 219.384 269.529 219.496C269.012 219.53 268.488 219.565 267.968 219.602C267.936 219.604 267.905 219.606 267.873 219.608C267.494 219.635 267.117 219.663 266.746 219.691C266.503 219.71 266.263 219.728 266.027 219.747C265.524 219.791 265.031 219.834 264.546 219.876C263.612 219.957 262.711 220.033 261.85 220.106C260.143 220.25 258.588 220.378 257.224 220.491C256.709 220.533 256.222 220.573 255.763 220.611C255.107 220.666 254.51 220.716 253.977 220.761C253.443 220.817 252.204 220.874 251.078 220.902L251.5 225.547C252.366 225.352 253.335 225.17 254.339 225.003C254.367 224.999 254.395 224.994 254.423 224.989C254.893 224.912 255.37 224.837 255.848 224.766C255.944 224.752 256.04 224.738 256.137 224.723C257.848 224.474 259.541 224.269 260.89 224.118C261.4 224.061 261.861 224.011 262.254 223.97C261.985 224.215 261.698 224.51 261.41 224.851C260.546 225.873 259.661 227.309 259.141 229.051C258.932 229.75 258.782 230.499 258.716 231.29C258.692 231.584 258.679 231.885 258.679 232.191C258.679 232.879 258.75 233.533 258.885 234.153ZM267.8 227.011C267.905 227.162 268.005 227.308 268.099 227.45C268.164 227.548 268.227 227.645 268.288 227.74C268.563 228.171 268.801 228.581 269.035 229.021C269.323 229.561 269.604 230.145 269.94 230.868L272.446 229.77C272.437 229.751 272.427 229.733 272.418 229.714C272.23 229.332 271.983 228.869 271.71 228.386C271.378 227.799 271.01 227.181 270.669 226.641C270.572 226.487 270.477 226.34 270.386 226.201C270.339 226.131 270.294 226.063 270.25 225.997L267.8 227.011ZM273.216 229.343C273.223 229.357 273.23 229.371 273.237 229.385C273.255 229.419 273.272 229.453 273.29 229.488L275.768 228.306C275.756 228.286 275.745 228.265 275.734 228.245C275.723 228.226 275.712 228.206 275.701 228.186C275.686 228.161 275.672 228.135 275.657 228.109C275.295 227.476 274.788 226.658 274.291 225.902C273.989 225.442 273.69 225.005 273.431 224.646L271.01 225.744C271.118 225.891 271.22 226.033 271.319 226.171C271.845 226.911 272.249 227.549 272.693 228.355C272.859 228.656 273.03 228.981 273.216 229.343Z" fill="#FAF1F5"/>
<path fill-rule="evenodd" clip-rule="evenodd" d="M232.118 215.722C231.23 215.63 230.333 215.518 229.57 215.396C228.196 215.176 226.795 215.577 225.746 216.492C224.696 217.407 224.108 218.74 224.138 220.132L224.222 223.989C224.226 224.17 224.241 224.348 224.265 224.524C224.063 225.064 223.96 225.642 223.968 226.232L224.025 230.23C224.038 231.156 224.32 232.022 224.8 232.749C223.922 234.16 223.433 235.809 223.433 237.596C223.433 240.552 224.681 243.28 227.217 245.092C229.528 246.742 232.438 247.299 235.332 247.299C237.892 247.299 240.483 246.683 242.543 245.072C242.706 244.945 242.864 244.813 243.016 244.676C244.024 245.623 245.399 246.077 246.774 245.916C248.166 245.753 249.412 244.976 250.171 243.798L252.621 239.997C253.901 238.01 253.503 235.38 251.692 233.861C251.521 233.717 251.34 233.569 251.15 233.417C252.094 232.562 252.683 231.33 252.693 229.972L252.721 225.974C252.723 225.747 252.708 225.523 252.677 225.301C252.428 225.35 252.183 225.399 251.945 225.45C251.794 225.482 251.646 225.514 251.5 225.547L251.078 220.902C251.49 220.891 251.917 220.877 252.319 220.861L252.327 219.81C252.337 218.429 251.738 217.113 250.69 216.214C249.642 215.315 248.251 214.923 246.888 215.143C246.294 215.239 245.714 215.324 245.144 215.4C244.983 215.103 244.789 214.822 244.564 214.562C243.672 213.534 242.379 212.944 241.019 212.944H236.402C234.975 212.944 233.625 213.593 232.735 214.709C232.485 215.022 232.278 215.363 232.118 215.722ZM242.938 220.364C242.383 220.413 241.834 220.454 241.288 220.489C241.198 220.495 241.109 220.5 241.019 220.506C240.942 220.51 240.866 220.515 240.789 220.519C240.799 220.201 240.81 219.922 240.822 219.691C240.824 219.648 240.826 219.605 240.828 219.561C240.861 218.916 240.94 218.19 241.019 217.636H236.402C236.525 218.177 236.584 218.933 236.596 219.472C236.597 219.487 236.597 219.501 236.597 219.515C236.598 219.577 236.599 219.636 236.599 219.691C236.599 219.693 236.599 219.694 236.599 219.696C236.599 219.939 236.597 220.263 236.594 220.645C236.53 220.645 236.466 220.646 236.402 220.646C236.299 220.647 236.195 220.647 236.092 220.647C235.952 220.648 235.811 220.648 235.67 220.648C235.661 220.648 235.651 220.648 235.642 220.648C235.078 220.648 234.342 220.615 233.534 220.557C233.012 220.519 232.46 220.472 231.904 220.417C231.05 220.332 230.187 220.229 229.412 220.117C229.211 220.088 229.016 220.059 228.829 220.029L228.913 223.886C228.973 223.894 229.035 223.902 229.097 223.91C229.894 224.011 230.876 224.111 231.87 224.194C233.097 224.296 234.341 224.371 235.276 224.389C235.404 224.391 235.526 224.392 235.642 224.393C235.651 224.393 235.661 224.393 235.67 224.393C235.791 224.393 235.911 224.392 236.032 224.392C236.208 224.391 236.384 224.39 236.56 224.388C236.558 224.703 236.555 225.021 236.553 225.337C236.552 225.504 236.551 225.67 236.55 225.835C236.548 226.125 236.546 226.413 236.545 226.695C236.372 226.697 236.197 226.698 236.019 226.699C235.904 226.7 235.787 226.7 235.67 226.7C235.54 226.701 235.408 226.701 235.276 226.701C235.258 226.701 235.239 226.701 235.22 226.701C234.783 226.699 234.118 226.677 233.359 226.637C232.883 226.611 232.37 226.579 231.854 226.539C230.916 226.468 229.967 226.374 229.212 226.26C229.014 226.23 228.828 226.199 228.66 226.166L228.716 230.164C229.563 230.271 230.743 230.36 231.907 230.422C233.183 230.491 234.44 230.53 235.22 230.53C235.238 230.53 235.257 230.53 235.276 230.53C235.285 230.53 235.295 230.53 235.304 230.53C235.576 230.53 235.841 230.529 236.101 230.528C236.272 230.528 236.44 230.527 236.606 230.526C236.617 230.798 236.628 231.073 236.64 231.347C236.64 231.36 236.641 231.373 236.641 231.386C236.657 231.756 236.674 232.127 236.692 232.492C236.532 232.481 236.371 232.472 236.209 232.464C235.911 232.451 235.61 232.444 235.304 232.444C235.276 232.444 235.248 232.444 235.22 232.444C235.058 232.445 234.898 232.449 234.741 232.456C233.729 232.498 232.816 232.654 232.014 232.909C230.683 233.332 229.659 234.025 228.997 234.915C228.475 235.615 228.178 236.436 228.132 237.343C228.127 237.426 228.125 237.511 228.125 237.596C228.125 240.569 230.343 242.421 234.657 242.594C234.876 242.603 235.102 242.607 235.332 242.607C236.85 242.607 238.104 242.307 239.058 241.771C240.393 241.021 241.137 239.809 241.185 238.314C241.187 238.263 241.188 238.211 241.188 238.159C241.188 237.982 241.185 237.791 241.181 237.587C241.297 237.646 241.412 237.707 241.526 237.769C241.759 237.895 241.988 238.025 242.212 238.159C242.316 238.221 242.418 238.283 242.52 238.347C243.63 239.038 244.644 239.822 245.544 240.624C245.635 240.705 245.725 240.786 245.813 240.868C245.954 240.997 246.092 241.126 246.227 241.256L248.677 237.455C247.915 236.817 246.947 236.091 245.785 235.394C245.525 235.238 245.255 235.084 244.975 234.932C243.928 234.363 242.745 233.833 241.434 233.409C241.277 233.358 241.119 233.309 240.958 233.262C240.94 232.959 240.921 232.655 240.903 232.353C240.881 231.989 240.859 231.626 240.839 231.27C240.823 230.994 240.809 230.722 240.795 230.456C240.965 230.45 241.133 230.444 241.298 230.438C242.809 230.382 244.135 230.299 245.479 230.184C245.622 230.172 245.765 230.159 245.909 230.146C246.587 230.085 247.276 230.016 248.001 229.939L248.029 225.941C248 225.944 247.97 225.948 247.941 225.951C247.82 225.965 247.699 225.98 247.578 225.994C246.874 226.075 246.155 226.155 245.405 226.23C244.744 226.296 244.057 226.358 243.333 226.414C242.67 226.465 241.975 226.512 241.238 226.551C241.065 226.561 240.889 226.57 240.712 226.578C240.712 226.315 240.714 226.043 240.715 225.764C240.716 225.585 240.717 225.404 240.718 225.222C240.72 224.906 240.723 224.585 240.726 224.264C240.903 224.256 241.079 224.246 241.254 224.237C242.763 224.155 244.185 224.047 245.421 223.923C246.241 223.841 246.978 223.752 247.607 223.661L247.635 219.776C247.44 219.807 247.246 219.837 247.053 219.867C246.527 219.947 246.009 220.02 245.5 220.085C244.626 220.198 243.775 220.29 242.938 220.364ZM236.422 236.048C236.054 235.999 235.681 235.965 235.304 235.948C235.118 235.939 234.93 235.935 234.741 235.935C234.713 235.935 234.684 235.935 234.657 235.936C233.423 235.953 232.619 236.357 232.357 236.92C232.295 237.053 232.264 237.195 232.264 237.343C232.264 237.431 232.272 237.516 232.289 237.596C232.446 238.359 233.332 238.75 234.657 238.75C234.685 238.75 234.713 238.75 234.741 238.75C234.953 238.747 235.15 238.736 235.332 238.713C235.868 238.645 236.272 238.479 236.533 238.159C236.699 237.955 236.808 237.687 236.854 237.343C236.86 237.302 236.864 237.259 236.868 237.216C236.876 237.123 236.881 237.024 236.881 236.92C236.881 236.832 236.879 236.729 236.877 236.615C236.874 236.467 236.868 236.3 236.862 236.115C236.815 236.107 236.768 236.1 236.721 236.092C236.622 236.077 236.522 236.062 236.422 236.048Z" fill="#FAF1F5"/>
<path fill-rule="evenodd" clip-rule="evenodd" d="M198.222 220.592V224.28H224.095V220.592H218.853C219.083 220.269 219.319 219.933 219.556 219.588C219.873 219.126 220.194 218.648 220.513 218.16C220.59 218.042 220.667 217.924 220.744 217.805L216.268 216.51C216.187 216.717 216.098 216.933 216.001 217.154C215.659 217.936 215.225 218.789 214.768 219.588C214.654 219.789 214.538 219.986 214.421 220.178C214.336 220.319 214.25 220.457 214.165 220.592H206.721L208.273 220.057C208.209 219.906 208.133 219.749 208.047 219.588C207.516 218.599 206.586 217.433 205.739 216.538L201.826 217.889C202.175 218.301 202.535 218.773 202.868 219.254C202.945 219.365 203.02 219.476 203.093 219.588C203.318 219.93 203.524 220.271 203.697 220.592H198.222ZM211.268 215.9C210.561 214.886 209.772 213.974 209.148 213.313C207.882 211.975 205.949 211.501 204.208 212.103L200.294 213.454C199.068 213.878 198.083 214.785 197.555 215.947C195.28 216.271 193.53 218.227 193.53 220.592V223.598C193.747 223.829 193.966 224.057 194.186 224.28C194.458 224.555 194.732 224.824 195.006 225.085C195.296 225.361 195.587 225.628 195.876 225.884C196.21 226.181 196.543 226.463 196.871 226.729C196.441 227.071 195.933 227.538 195.427 228.049C195.263 228.215 195.099 228.385 194.938 228.558V243.142C194.938 245.733 197.039 247.834 199.63 247.834H203.487C203.842 247.834 204.188 247.794 204.521 247.72C204.978 247.867 205.463 247.947 205.964 247.947C206.004 247.947 206.045 247.947 206.087 247.947C207.561 247.948 210.024 247.949 212.236 246.711C212.458 246.589 212.672 246.458 212.878 246.316C213.73 247.29 214.974 247.899 216.343 247.918C218.312 247.946 220.962 247.905 223.313 246.709C224.812 245.955 226.052 244.763 226.77 243.064C227.385 241.608 227.463 240.111 227.463 239.003V227.546C228.282 226.701 228.787 225.549 228.787 224.28V220.592C228.787 218.337 227.196 216.454 225.077 216.003C224.531 214.691 223.419 213.694 222.048 213.297L217.572 212.002C215.239 211.327 212.776 212.545 211.895 214.809C211.766 215.141 211.601 215.513 211.413 215.9H211.268ZM222.771 225.462H218.746V238.947C218.746 238.967 218.745 238.985 218.744 239.003C218.73 239.325 218.581 239.426 218.154 239.426C218.143 239.426 218.131 239.427 218.119 239.428C218.103 239.429 218.086 239.429 218.068 239.43C217.822 239.441 217.395 239.446 216.887 239.44C216.751 239.438 216.608 239.436 216.462 239.433C216.313 239.429 216.16 239.425 216.005 239.42C215.663 239.408 215.311 239.392 214.973 239.369C214.994 239.406 215.015 239.444 215.036 239.482C215.326 240.013 215.625 240.693 215.874 241.373C216.006 241.732 216.124 242.092 216.22 242.429C216.301 242.715 216.366 242.986 216.409 243.226C217.031 243.235 217.612 243.23 218.154 243.201C218.233 243.196 218.312 243.192 218.389 243.186C219.486 243.11 220.416 242.921 221.195 242.523C222.434 241.903 222.771 240.89 222.771 239.003V225.462ZM216.887 237.737V226.194H213.143V237.737H216.887ZM211.313 225.884H199.63V243.142H203.487V237.652H207.372V239.426C207.372 239.445 207.371 239.464 207.371 239.482C207.357 239.749 207.238 239.848 206.921 239.848C206.85 239.854 206.746 239.859 206.619 239.862C206.615 239.862 206.612 239.862 206.609 239.862C206.43 239.866 206.207 239.868 205.964 239.865C205.558 239.862 205.098 239.847 204.697 239.82C205.067 240.477 205.467 241.465 205.733 242.344C205.818 242.626 205.889 242.897 205.941 243.142C205.949 243.18 205.957 243.218 205.964 243.254C206.298 243.254 206.617 243.252 206.921 243.244C207.017 243.241 207.111 243.238 207.204 243.234C207.546 243.219 207.871 243.195 208.179 243.155C208.847 243.067 209.437 242.905 209.962 242.607C210.071 242.548 210.171 242.485 210.265 242.418C210.363 242.347 210.454 242.271 210.536 242.19C210.629 242.099 210.712 242.001 210.785 241.895C210.802 241.871 210.818 241.847 210.834 241.822C210.858 241.784 210.882 241.745 210.904 241.705C210.911 241.693 210.918 241.68 210.925 241.667C211.211 241.129 211.313 240.422 211.313 239.482V225.884ZM207.372 229.291H203.487V230.473H207.372V229.291ZM203.487 233.429V234.696H207.372V233.429H203.487Z" fill="#FAF1F5"/>
<path fill-rule="evenodd" clip-rule="evenodd" d="M179.569 222.366C179.397 222.653 179.22 222.938 179.041 223.219C179.034 223.229 179.028 223.239 179.022 223.249C178.408 224.209 177.755 225.134 177.073 226.006C176.882 226.251 176.689 226.492 176.494 226.729H190.032C190.031 226.727 190.029 226.725 190.027 226.723C190.015 226.707 190.003 226.692 189.99 226.677C189.739 226.365 189.489 226.048 189.241 225.726C188.792 225.142 188.349 224.542 187.918 223.933C187.574 223.446 187.236 222.952 186.908 222.454C186.85 222.365 186.791 222.277 186.734 222.188C186.701 222.137 186.668 222.087 186.636 222.037C186.337 221.574 186.047 221.109 185.766 220.642C185.551 220.284 185.342 219.926 185.139 219.568C184.978 219.283 184.82 218.998 184.667 218.714C184.605 218.598 184.544 218.483 184.483 218.368L188.537 216.763C189.399 218.472 190.685 220.311 192.14 222.037C192.168 222.071 192.197 222.104 192.225 222.138C192.616 222.599 193.019 223.051 193.429 223.491C193.476 223.542 193.524 223.592 193.571 223.643C194.658 224.796 195.788 225.854 196.87 226.729C196.828 226.763 196.785 226.798 196.741 226.834C196.741 226.834 196.741 226.834 196.741 226.834C196.681 226.883 196.619 226.935 196.557 226.988C196.061 227.413 195.497 227.961 194.963 228.53C194.942 228.553 194.921 228.575 194.9 228.598C194.554 228.969 194.223 229.348 193.933 229.707C193.818 229.85 193.71 229.989 193.61 230.123C193.527 230.234 193.45 230.342 193.379 230.445C193.105 230.175 192.828 229.894 192.551 229.604C192.442 229.491 192.334 229.376 192.225 229.259C192.199 229.231 192.173 229.203 192.146 229.175C192.142 229.316 192.138 229.456 192.133 229.594C192.121 229.973 192.108 230.341 192.095 230.698C192.087 230.944 192.078 231.185 192.069 231.421C192.064 231.547 192.059 231.671 192.054 231.794C192.014 232.805 191.97 233.721 191.922 234.549C191.915 234.668 191.909 234.784 191.902 234.898C191.663 238.782 191.311 240.671 190.649 241.509C190.553 241.634 190.457 241.749 190.36 241.855C190.288 241.933 190.216 242.006 190.144 242.074C189.606 242.577 189.034 242.824 188.353 242.983C188.304 242.994 188.255 243.005 188.205 243.015C188.085 243.041 187.961 243.064 187.833 243.086C187.288 243.179 186.562 243.221 185.75 243.235C185.095 243.246 184.384 243.239 183.667 243.226C183.652 242.906 183.602 242.547 183.522 242.17C183.301 241.121 182.854 239.937 182.316 239.088C182.808 239.127 183.289 239.156 183.738 239.177C184.449 239.211 185.077 239.225 185.531 239.228C185.609 239.228 185.683 239.229 185.75 239.229C186.153 239.229 186.436 239.169 186.717 238.948C186.729 238.939 186.74 238.93 186.751 238.921C186.793 238.887 186.834 238.848 186.876 238.806C186.904 238.774 186.932 238.736 186.958 238.693C186.972 238.671 186.985 238.647 186.998 238.623C187.005 238.609 187.013 238.594 187.02 238.579C187.03 238.558 187.04 238.537 187.05 238.514C187.05 238.512 187.051 238.51 187.052 238.509C187.059 238.491 187.067 238.474 187.074 238.455C187.101 238.388 187.127 238.313 187.152 238.23C187.324 237.667 187.46 236.749 187.571 235.391C187.644 234.504 187.707 233.429 187.762 232.143C187.773 231.91 187.783 231.669 187.792 231.421C187.793 231.399 187.794 231.377 187.795 231.355C187.803 231.141 187.811 230.923 187.819 230.698H183.227C183.195 230.941 183.162 231.182 183.125 231.421C183.113 231.503 183.1 231.586 183.086 231.668C183.035 231.982 182.979 232.294 182.917 232.603C182.794 233.213 182.647 233.812 182.469 234.398C182.367 234.733 182.255 235.064 182.132 235.391C181.345 237.468 180.089 239.36 178.014 240.962C177.826 241.108 177.631 241.25 177.429 241.391C176.826 241.81 176.162 242.207 175.428 242.58C174.761 242.919 174.037 243.238 173.25 243.536C172.744 242.382 171.561 240.636 170.576 239.735C170.956 239.611 171.319 239.482 171.664 239.347C173.007 238.826 174.093 238.233 174.973 237.581C175.88 236.909 176.569 236.175 177.098 235.391C177.92 234.171 178.355 232.831 178.616 231.421C178.616 231.42 178.616 231.419 178.616 231.418C178.66 231.18 178.699 230.94 178.735 230.698H174.517V228.906C174.408 229.015 174.298 229.123 174.188 229.228C173.96 229.448 173.731 229.66 173.502 229.865C173.493 229.872 173.485 229.879 173.477 229.886C173.168 230.161 172.858 230.423 172.547 230.67C172.536 230.658 172.526 230.646 172.516 230.634C171.923 229.941 170.77 228.829 169.825 228.008C169.532 227.753 169.258 227.526 169.028 227.348C169.296 227.171 169.562 226.984 169.825 226.787C169.851 226.768 169.877 226.749 169.903 226.729C170.08 226.595 170.256 226.458 170.431 226.316C171.197 225.694 171.937 224.996 172.637 224.239C173.273 223.55 173.876 222.813 174.437 222.038C175.605 220.423 176.59 218.647 177.304 216.819L181.752 218.114C181.698 218.241 181.643 218.367 181.587 218.493C181.308 219.122 181.007 219.746 180.688 220.363C180.613 220.508 180.537 220.652 180.46 220.796C180.236 221.214 180.004 221.628 179.764 222.037C179.7 222.147 179.635 222.256 179.569 222.366ZM183.438 213.735C183.315 213.688 183.191 213.646 183.064 213.609L178.616 212.314C176.283 211.635 173.818 212.849 172.934 215.112C171.593 218.543 169.053 221.707 166.439 223.435C165.176 224.27 164.394 225.664 164.339 227.178C164.283 228.691 164.962 230.138 166.162 231.063C166.926 231.653 168.447 233.088 168.96 233.696C169.36 234.17 169.834 234.545 170.351 234.818C169.985 234.973 169.576 235.126 169.117 235.276C167.531 235.795 166.34 237.116 165.989 238.747C165.638 240.378 166.179 242.073 167.41 243.198C167.548 243.325 167.864 243.678 168.24 244.22C168.61 244.75 168.859 245.205 168.954 245.422C169.958 247.709 172.577 248.808 174.912 247.924C176.679 247.255 178.238 246.472 179.607 245.58C180.407 246.958 181.888 247.888 183.585 247.918C185.068 247.944 187.117 247.968 188.623 247.711C189.383 247.581 190.431 247.355 191.517 246.795C192.657 246.208 193.586 245.388 194.358 244.383C195.137 243.383 195.541 242.271 195.785 241.367C196.041 240.416 196.21 239.348 196.336 238.209C196.471 236.996 196.575 235.536 196.661 233.798C196.88 233.585 197.079 233.348 197.254 233.091C197.72 232.409 198.858 231.188 199.629 230.534V225.884H201.486C201.382 225.314 201.173 224.771 200.872 224.28H198.222V221.669C196.007 219.558 193.839 216.858 192.727 214.651C191.634 212.483 189.068 211.507 186.81 212.4L183.438 213.735Z" fill="#FAF1F5"/>
<path d="M148.528 242.993C145.405 242.993 142.763 242.433 140.601 241.312C138.438 240.191 136.677 238.649 135.315 236.687C133.954 234.685 132.973 232.383 132.373 229.781C131.772 227.138 131.472 224.335 131.472 221.372C131.472 218.329 131.772 215.487 132.373 212.844C133.013 210.201 134.014 207.879 135.375 205.877C136.777 203.875 138.559 202.314 140.721 201.193C142.923 200.072 145.565 199.511 148.648 199.511C151.852 199.511 154.534 200.092 156.696 201.253C158.898 202.414 160.66 204.035 161.981 206.117C163.343 208.159 164.304 210.482 164.864 213.084C165.465 215.687 165.765 218.409 165.765 221.252C165.765 224.175 165.465 226.938 164.864 229.54C164.264 232.143 163.303 234.465 161.981 236.507C160.66 238.509 158.898 240.091 156.696 241.252C154.494 242.413 151.772 242.993 148.528 242.993ZM148.528 235.066C150.49 235.066 152.032 234.625 153.153 233.744C154.314 232.824 155.175 231.642 155.735 230.201C156.336 228.76 156.716 227.258 156.876 225.697C157.077 224.095 157.177 222.614 157.177 221.252C157.177 219.971 157.077 218.55 156.876 216.988C156.716 215.386 156.356 213.885 155.795 212.484C155.235 211.042 154.394 209.861 153.273 208.94C152.152 208.019 150.63 207.559 148.709 207.559C146.787 207.559 145.245 208.019 144.084 208.94C142.923 209.821 142.042 210.982 141.441 212.424C140.881 213.865 140.5 215.366 140.3 216.928C140.1 218.49 140 219.931 140 221.252C140 222.574 140.08 224.035 140.24 225.637C140.44 227.238 140.821 228.76 141.381 230.201C141.942 231.642 142.783 232.824 143.904 233.744C145.065 234.625 146.606 235.066 148.528 235.066Z" fill="#E5005A"/>
<path d="M112.477 242.933C110.435 242.933 108.473 242.693 106.591 242.213C104.709 241.732 102.987 240.971 101.426 239.93C99.8643 238.889 98.563 237.568 97.522 235.967C96.481 234.325 95.8403 232.363 95.6001 230.081H104.128C104.409 231.202 104.949 232.143 105.75 232.904C106.591 233.624 107.592 234.145 108.753 234.465C109.954 234.785 111.215 234.946 112.537 234.946C113.417 234.946 114.278 234.866 115.119 234.705C116 234.545 116.781 234.265 117.461 233.865C118.182 233.464 118.743 232.924 119.143 232.243C119.543 231.562 119.744 230.701 119.744 229.66C119.744 228.699 119.564 227.899 119.203 227.258C118.843 226.617 118.362 226.097 117.762 225.697C117.161 225.296 116.44 225.016 115.6 224.856C114.799 224.696 113.938 224.616 113.017 224.616H108.092V217.288H111.396C112.437 217.288 113.377 217.188 114.218 216.988C115.059 216.748 115.76 216.428 116.32 216.027C116.921 215.587 117.381 215.066 117.702 214.466C118.022 213.825 118.182 213.104 118.182 212.303C118.182 211.102 117.922 210.161 117.401 209.481C116.881 208.76 116.16 208.24 115.239 207.919C114.318 207.599 113.257 207.439 112.056 207.439C110.935 207.439 109.874 207.619 108.873 207.979C107.912 208.3 107.111 208.78 106.471 209.421C105.83 210.061 105.41 210.842 105.209 211.763H96.8613C97.1016 209.601 97.6821 207.759 98.603 206.238C99.5239 204.676 100.705 203.395 102.146 202.394C103.588 201.393 105.189 200.672 106.951 200.232C108.753 199.751 110.615 199.511 112.537 199.511C114.378 199.511 116.14 199.711 117.822 200.112C119.503 200.512 121.005 201.173 122.326 202.094C123.688 202.974 124.769 204.156 125.569 205.637C126.37 207.118 126.771 208.9 126.771 210.982C126.771 212.263 126.55 213.465 126.11 214.586C125.71 215.707 125.109 216.708 124.308 217.589C123.547 218.429 122.647 219.13 121.605 219.691C123.167 220.131 124.448 220.852 125.449 221.853C126.45 222.854 127.191 224.035 127.671 225.396C128.192 226.758 128.452 228.219 128.452 229.781C128.452 232.343 127.972 234.485 127.011 236.207C126.09 237.888 124.849 239.23 123.287 240.231C121.726 241.192 120.004 241.892 118.122 242.333C116.24 242.733 114.358 242.933 112.477 242.933Z" fill="#E5005A"/>
<path fill-rule="evenodd" clip-rule="evenodd" d="M131.461 239.362L131.436 239.326C130.031 237.26 128.975 234.98 128.244 232.519C128.339 231.938 128.401 231.328 128.431 230.69C128.431 230.685 128.431 230.681 128.432 230.676C128.445 230.384 128.452 230.085 128.452 229.78C128.452 228.219 128.192 226.758 127.671 225.396C127.448 224.764 127.168 224.17 126.833 223.615C126.797 222.874 126.78 222.127 126.78 221.372C126.78 218.021 127.11 214.827 127.797 211.804L127.813 211.738C128.57 208.615 129.781 205.76 131.496 203.239L131.532 203.186C133.366 200.566 135.724 198.498 138.561 197.027L138.592 197.011C141.597 195.482 145.005 194.819 148.649 194.819C152.391 194.819 155.883 195.494 158.901 197.111C161.796 198.641 164.157 200.805 165.915 203.558C167.608 206.11 168.773 208.963 169.444 212.062C170.124 215.022 170.457 218.089 170.457 221.252C170.457 224.497 170.124 227.616 169.436 230.595C168.725 233.677 167.566 236.514 165.921 239.056L165.898 239.092C164.125 241.778 161.758 243.887 158.885 245.402C155.835 247.01 152.311 247.685 148.529 247.685C144.86 247.685 141.432 247.028 138.441 245.477C135.615 244.012 133.266 241.964 131.461 239.362ZM164.864 213.084C164.304 210.482 163.343 208.159 161.982 206.117C160.66 204.035 158.899 202.414 156.696 201.253C154.534 200.091 151.852 199.511 148.649 199.511C145.566 199.511 142.923 200.071 140.721 201.193C138.559 202.314 136.777 203.875 135.376 205.877C134.014 207.879 133.013 210.201 132.373 212.844C131.772 215.487 131.472 218.329 131.472 221.372C131.472 224.335 131.772 227.138 132.373 229.78C132.973 232.383 133.954 234.685 135.316 236.687C136.677 238.649 138.439 240.191 140.601 241.312C142.763 242.433 145.405 242.993 148.529 242.993C151.772 242.993 154.494 242.413 156.696 241.252C158.899 240.091 160.66 238.509 161.982 236.507C163.303 234.465 164.264 232.143 164.864 229.54C165.465 226.938 165.765 224.175 165.765 221.252C165.765 218.409 165.465 215.687 164.864 213.084ZM144.084 208.94C142.923 209.821 142.042 210.982 141.442 212.424C140.881 213.865 140.501 215.366 140.3 216.928C140.1 218.489 140 219.931 140 221.252C140 222.573 140.08 224.035 140.24 225.636C140.441 227.238 140.821 228.759 141.382 230.201C141.942 231.642 142.783 232.823 143.904 233.744C145.065 234.625 146.607 235.066 148.529 235.066C150.49 235.066 152.032 234.625 153.153 233.744C154.314 232.823 155.175 231.642 155.736 230.201C156.336 228.759 156.717 227.258 156.877 225.697C157.077 224.095 157.177 222.613 157.177 221.252C157.177 219.971 157.077 218.55 156.877 216.988C156.717 215.386 156.356 213.885 155.796 212.484C155.235 211.042 154.394 209.861 153.273 208.94C152.152 208.019 150.631 207.559 148.709 207.559C146.787 207.559 145.245 208.019 144.084 208.94ZM146.794 230.044C146.97 230.156 147.444 230.374 148.529 230.374C149.789 230.374 150.196 230.098 150.25 230.058C150.724 229.679 151.093 229.195 151.363 228.5C151.376 228.465 151.39 228.431 151.404 228.396C151.828 227.38 152.095 226.326 152.209 225.218C152.213 225.183 152.217 225.149 152.221 225.115C152.401 223.672 152.485 222.387 152.485 221.252C152.485 220.209 152.403 218.991 152.223 217.585C152.217 217.541 152.212 217.498 152.208 217.455C152.089 216.262 151.826 215.193 151.439 214.226L151.423 214.184C151.134 213.442 150.752 212.942 150.295 212.566C150.252 212.53 149.899 212.251 148.709 212.251C147.528 212.251 147.113 212.527 147 212.616C146.973 212.637 146.947 212.658 146.92 212.678C146.476 213.015 146.095 213.475 145.793 214.181C145.385 215.244 145.104 216.355 144.954 217.525C144.775 218.924 144.692 220.164 144.692 221.252C144.692 222.373 144.76 223.656 144.903 225.109C145.059 226.324 145.346 227.45 145.755 228.5C146.024 229.194 146.375 229.677 146.794 230.044Z" fill="#FAF1F5"/>
<path fill-rule="evenodd" clip-rule="evenodd" d="M93.5881 238.524L93.5597 238.479C92.0674 236.126 91.2363 233.444 90.934 230.572C90.7948 229.249 91.2234 227.93 92.1132 226.941C93.003 225.953 94.2704 225.389 95.6003 225.389H103.464C103.422 225.137 103.4 224.879 103.4 224.615V217.288C103.4 217.004 103.426 216.725 103.474 216.455H96.8615C95.5269 216.455 94.2554 215.887 93.3653 214.892C92.4752 213.898 92.0508 212.571 92.1982 211.245C92.4961 208.563 93.2408 206.045 94.575 203.831C95.8263 201.717 97.4618 199.935 99.4704 198.54C101.384 197.211 103.498 196.263 105.777 195.689C107.974 195.106 110.232 194.819 112.537 194.819C114.721 194.819 116.849 195.057 118.909 195.547C121.094 196.067 123.123 196.942 124.944 198.199C126.96 199.52 128.55 201.283 129.697 203.406L125.57 205.637C124.769 204.155 123.688 202.974 122.326 202.093C121.005 201.173 119.504 200.512 117.822 200.112C116.14 199.711 114.379 199.511 112.537 199.511C110.615 199.511 108.753 199.751 106.951 200.232C105.19 200.672 103.588 201.393 102.147 202.394C100.705 203.395 99.5241 204.676 98.6032 206.237C98.4411 206.505 98.2896 206.783 98.1485 207.071C97.4885 208.417 97.0595 209.981 96.8615 211.763H105.21C105.41 210.842 105.83 210.061 106.471 209.421C107.112 208.78 107.912 208.3 108.873 207.979C109.874 207.619 110.935 207.439 112.056 207.439C113.258 207.439 114.319 207.599 115.239 207.919C116.16 208.239 116.881 208.76 117.402 209.481C117.922 210.161 118.182 211.102 118.182 212.303C118.182 213.104 118.022 213.825 117.702 214.466C117.382 215.066 116.921 215.587 116.321 216.027C115.76 216.427 115.059 216.748 114.218 216.988C113.378 217.188 112.437 217.288 111.396 217.288H108.093V224.615H113.017C113.938 224.615 114.799 224.696 115.6 224.856C116.441 225.016 117.161 225.296 117.762 225.697C118.363 226.097 118.843 226.617 119.203 227.258C119.564 227.899 119.744 228.699 119.744 229.66C119.744 230.701 119.544 231.562 119.143 232.243C118.743 232.924 118.182 233.464 117.462 233.864C116.781 234.265 116 234.545 115.119 234.705C114.279 234.865 113.418 234.946 112.537 234.946C111.216 234.946 109.954 234.785 108.753 234.465C107.592 234.145 106.591 233.624 105.75 232.904C104.949 232.143 104.409 231.202 104.129 230.081H95.6003C95.7848 231.834 96.2056 233.398 96.8626 234.773C97.0609 235.188 97.2808 235.586 97.5222 235.967C98.5632 237.568 99.8645 238.889 101.426 239.93C102.988 240.971 104.709 241.732 106.591 242.213C108.473 242.693 110.435 242.933 112.477 242.933C114.359 242.933 116.24 242.733 118.122 242.333C120.004 241.892 121.726 241.192 123.287 240.231C124.849 239.23 126.09 237.888 127.011 236.207C127.972 234.485 128.452 232.343 128.452 229.78C128.452 228.219 128.192 226.758 127.672 225.396C127.279 224.285 126.714 223.294 125.975 222.423C125.809 222.227 125.633 222.037 125.449 221.853C124.448 220.852 123.167 220.131 121.606 219.691C122.647 219.13 123.548 218.429 124.308 217.589C124.721 217.134 125.081 216.648 125.388 216.13C125.675 215.643 125.916 215.128 126.11 214.586C126.551 213.465 126.771 212.263 126.771 210.982C126.771 208.9 126.37 207.118 125.57 205.637L129.697 203.406C130.946 205.716 131.463 208.303 131.463 210.982C131.463 212.788 131.154 214.552 130.504 216.233C130.155 217.193 129.707 218.099 129.162 218.946C130.108 219.971 130.883 221.114 131.483 222.36C131.495 222.883 131.517 223.401 131.548 223.914C131.551 223.951 131.553 223.988 131.555 224.026C131.682 226.022 131.955 227.94 132.373 229.78C132.557 230.577 132.776 231.345 133.031 232.086C132.8 234.365 132.201 236.528 131.117 238.477C129.833 240.816 128.06 242.745 125.82 244.181C125.808 244.188 125.796 244.196 125.784 244.203C125.772 244.211 125.759 244.219 125.746 244.227C123.733 245.466 121.538 246.352 119.192 246.901C119.161 246.909 119.13 246.916 119.099 246.922C116.903 247.389 114.694 247.625 112.477 247.625C110.063 247.625 107.71 247.341 105.43 246.759C103.053 246.152 100.841 245.18 98.8233 243.834C96.7214 242.433 94.9704 240.65 93.5881 238.524ZM113.031 212.446C112.621 212.535 112.084 212.596 111.396 212.596H109.978C110.067 212.544 110.188 212.487 110.357 212.43C110.392 212.419 110.428 212.407 110.463 212.394C110.927 212.227 111.448 212.131 112.056 212.131C112.682 212.131 113.14 212.197 113.465 212.281C113.375 212.324 113.235 212.383 113.031 212.446ZM108.823 229.308H113.017C113.668 229.308 114.217 229.364 114.68 229.457L114.722 229.465C114.874 229.494 114.98 229.526 115.05 229.551C115.051 229.583 115.052 229.619 115.052 229.66C115.052 229.731 115.05 229.791 115.046 229.841C114.897 229.923 114.658 230.02 114.28 230.089L114.241 230.096C113.698 230.2 113.132 230.253 112.537 230.253C111.606 230.253 110.76 230.142 109.983 229.937C109.507 229.803 109.168 229.624 108.91 229.427C108.88 229.392 108.851 229.353 108.823 229.308ZM115.159 229.601C115.159 229.601 115.159 229.601 115.159 229.601Z" fill="#FAF1F5"/>
<path d="M171.739 253.905L176.019 254.778C174.977 257.509 173.738 260.296 172.725 262.126L169.149 261.225C170.135 259.254 171.204 256.242 171.739 253.905ZM167.742 259.564C170.838 259.479 175.455 259.254 179.791 259.057L179.763 262.604C175.653 262.914 171.317 263.196 168.051 263.421L167.742 259.564ZM169.403 264.35H178.355V267.672H173.175V280.819H169.403V264.35ZM176.385 264.35H180.438V276.878C180.438 278.539 180.129 279.524 179.059 280.115C177.989 280.735 176.666 280.791 175.005 280.791C174.808 279.721 174.217 278.145 173.71 277.187C174.526 277.244 175.596 277.244 175.934 277.216C176.272 277.216 176.385 277.131 176.385 276.793V264.35ZM171.092 268.629H178.721V271.613H171.092V268.629ZM171.092 272.711H178.721V275.695H171.092V272.711ZM182.409 254.243H186.491V262.21C186.491 263.252 186.632 263.365 187.561 263.365C187.955 263.365 189.391 263.365 189.87 263.365C190.686 263.365 190.855 262.97 190.968 260.662C191.784 261.281 193.473 261.929 194.571 262.154C194.149 265.926 193.079 266.996 190.264 266.996C189.504 266.996 187.646 266.996 186.942 266.996C183.282 266.996 182.409 265.842 182.409 262.267V254.243ZM190.742 255.679L193.304 258.635C190.714 259.902 187.533 260.943 184.802 261.675C184.633 260.887 184.098 259.648 183.676 258.888C186.182 258.072 188.912 256.805 190.742 255.679ZM182.409 267.447H186.463V275.949C186.463 277.018 186.632 277.131 187.589 277.131C187.983 277.131 189.504 277.131 189.982 277.131C190.855 277.131 191.024 276.624 191.165 273.922C192.009 274.541 193.642 275.16 194.74 275.414C194.318 279.496 193.276 280.678 190.376 280.678C189.616 280.678 187.674 280.678 186.942 280.678C183.31 280.678 182.409 279.524 182.409 275.977V267.447ZM190.883 268.404L193.558 271.388C190.883 272.796 187.589 273.978 184.746 274.823C184.549 274.034 183.986 272.739 183.563 271.979C186.182 271.078 188.997 269.643 190.883 268.404ZM175.737 257.227L179.228 255.932C180.551 258.016 181.959 260.746 182.437 262.661L178.665 264.125C178.271 262.295 177.004 259.423 175.737 257.227Z" fill="#E5005A"/>
<path d="M158.395 257.03H162.703V275.892C162.703 278.201 162.168 279.383 160.676 280.031C159.127 280.735 157.016 280.819 154.06 280.819C153.835 279.609 152.99 277.582 152.343 276.484C154.229 276.624 156.791 276.596 157.466 276.596C158.142 276.596 158.395 276.399 158.395 275.808V257.03ZM142.574 262.661H146.543V275.977H142.574V262.661ZM144.263 262.661H154.848V273.866H144.263V269.98H150.794V266.546H144.263V262.661ZM140.125 255.932H165.856V260.071H140.125V255.932Z" fill="#E5005A"/>
<path d="M124.331 267.221L127.596 265.589C129.004 267.503 130.552 270.065 131.116 271.867L127.568 273.697C127.09 271.951 125.682 269.248 124.331 267.221ZM125.71 258.719H135.479V262.576H125.71V258.719ZM133.706 258.719H137.647C137.647 258.719 137.647 260.043 137.619 260.549C137.253 272.767 136.915 277.3 135.733 278.848C134.86 280.059 134.015 280.425 132.748 280.65C131.679 280.847 129.961 280.847 128.3 280.791C128.244 279.637 127.681 277.835 126.921 276.681C128.638 276.821 130.215 276.821 130.975 276.821C131.538 276.821 131.847 276.709 132.185 276.315C133.086 275.386 133.424 270.572 133.706 259.508V258.719ZM125.372 254.074L129.623 255.003C128.469 259.254 126.499 263.477 124.359 266.067C123.571 265.363 121.741 264.125 120.727 263.562C122.839 261.394 124.528 257.734 125.372 254.074ZM115.575 254.131L119.179 255.369C117.968 257.621 116.673 260.127 115.575 261.704L112.845 260.606C113.83 258.86 114.984 256.158 115.575 254.131ZM118.925 257.537L122.36 258.945C120.221 262.21 117.462 266.067 115.266 268.432L112.816 267.193C114.984 264.631 117.49 260.577 118.925 257.537ZM111.296 261.225L113.182 258.382C114.646 259.648 116.392 261.422 117.096 262.689L115.04 265.898C114.393 264.547 112.704 262.604 111.296 261.225ZM118.362 264.462L121.206 263.224C122.304 265.138 123.374 267.616 123.711 269.277L120.643 270.684C120.361 269.051 119.376 266.433 118.362 264.462ZM111.296 266.405C113.971 266.321 117.912 266.152 121.741 265.955L121.713 269.164C118.194 269.474 114.477 269.727 111.634 269.924L111.296 266.405ZM118.728 271.698L121.713 270.712C122.416 272.401 123.148 274.569 123.486 276.005L120.333 277.159C120.08 275.695 119.348 273.415 118.728 271.698ZM112.31 270.909L115.66 271.501C115.435 274.203 114.843 277.075 114.083 278.877C113.379 278.426 111.859 277.722 111.015 277.413C111.747 275.78 112.141 273.246 112.31 270.909ZM115.604 268.291H119.207V280.847H115.604V268.291Z" fill="#E5005A"/>
<path d="M94.7142 268.122H98.9934V276.596C98.9934 278.623 98.5429 279.665 97.0227 280.228C95.5306 280.791 93.5881 280.847 91.1951 280.847C90.9699 279.693 90.2942 277.976 89.703 276.906C91.2233 276.99 93.4192 276.99 93.9822 276.99C94.5453 276.962 94.7142 276.878 94.7142 276.456V268.122ZM86.5781 255.707H103.582V259.451H86.5781V255.707ZM102.034 255.707H103.132L104.061 255.482L106.989 257.819C104.568 260.183 101.33 262.886 98.2614 264.603C97.6983 263.787 96.4878 262.52 95.8121 261.873C98.1769 260.521 100.964 258.072 102.034 256.58V255.707ZM83.791 264.997H106.482V268.883H83.791V264.997ZM90.5476 263.252L92.5746 260.155C95.5306 261.056 100.485 262.661 102.963 263.674L100.795 267.193C98.5148 266.152 93.7007 264.35 90.5476 263.252ZM105.131 264.997H105.891L106.595 264.716L109.973 266.152C108.875 268.883 107.242 271.782 105.722 273.809L102.203 271.782C103.273 270.178 104.511 267.672 105.131 265.645V264.997Z" fill="#E5005A"/>
</svg>
