<svg width="302" height="284" viewBox="0 0 302 284" fill="none" xmlns="http://www.w3.org/2000/svg">
<path opacity="0.6" d="M271.971 122.396C271.971 189.771 217.352 244.39 149.977 244.39C82.6011 244.39 27.9824 189.771 27.9824 122.396C27.9824 55.0202 82.6011 0.401611 149.977 0.401611C217.352 0.401611 271.971 55.0202 271.971 122.396Z" fill="#F2D5E1"/>
<path fill-rule="evenodd" clip-rule="evenodd" d="M203.654 12.4048C203.654 11.694 204.232 11.1177 204.944 11.1177H213.394C213.629 11.1177 213.861 11.1823 214.063 11.3045L244.605 29.8093C244.807 29.9315 245.038 29.9961 245.274 29.9961H254.799C255.511 29.9961 256.088 30.5724 256.088 31.2832V39.0062V45.442C256.088 46.1529 255.511 46.7292 254.799 46.7292H246.284C245.956 46.7292 245.64 46.8543 245.401 47.079L238.467 53.5941L234.068 58.1763C233.734 58.5242 233.234 58.6567 232.771 58.5198L216.297 53.6471C216.178 53.6119 216.055 53.5941 215.931 53.5941H208.812C208.1 53.5941 207.522 54.1703 207.522 54.8812V59.1718C207.522 59.8826 206.945 60.4589 206.233 60.4589H195.488C194.776 60.4589 194.199 59.8826 194.199 59.1718V53.5941V47.3212C194.199 46.9454 194.364 46.5885 194.649 46.3439L203.136 39.0816C203.193 39.033 203.266 39.0062 203.341 39.0062C203.514 39.0062 203.654 38.866 203.654 38.693V29.9961V12.4048ZM212.68 66.4657C212.68 65.7548 213.257 65.1786 213.969 65.1786H218.267C218.979 65.1786 219.556 65.7548 219.556 66.4657V73.7725C219.556 74.0431 219.642 74.3068 219.8 74.5261L224.899 81.5743C225.058 81.7936 225.144 82.0573 225.144 82.3279V95.182C225.144 95.4791 225.041 95.7671 224.852 95.997L221.567 100.005C221.378 100.235 221.275 100.523 221.275 100.821V112.375V129.537C221.275 129.547 221.275 129.557 221.275 129.567C221.275 129.577 221.274 129.588 221.274 129.598L221.274 129.606L221.273 129.623L221.272 129.633V132.873C221.274 132.905 221.275 132.937 221.275 132.969V143.175C221.275 143.236 221.28 143.297 221.288 143.357L222.552 152.186C222.56 152.246 222.565 152.307 222.565 152.368V162.574C222.565 163.285 221.988 163.861 221.275 163.861H214.829C214.117 163.861 213.539 163.285 213.539 162.574V160.858C213.539 160.147 212.962 159.571 212.25 159.571H210.961C210.249 159.571 209.671 160.147 209.671 160.858V165.148C209.671 165.859 209.094 166.435 208.382 166.435H199.16V166.437H198.538C198.313 166.511 197.837 166.73 197.412 167.155C197.048 167.518 196.91 167.956 196.808 168.28C196.798 168.313 196.788 168.346 196.778 168.376V169.01V172.013C196.778 172.724 196.2 173.3 195.488 173.3H193.769C193.057 173.3 192.48 172.724 192.48 172.013V170.297C192.48 169.586 191.903 169.01 191.19 169.01H190.769C190.485 169.01 190.209 169.104 189.983 169.277L185.091 173.033C184.866 173.206 184.59 173.3 184.305 173.3H162.825C162.113 173.3 161.535 172.724 161.535 172.013V170.297C161.535 169.586 160.958 169.01 160.246 169.01H159.386L159.374 169.01C159.364 169.01 159.354 169.009 159.344 169.009H157.237V184.027C157.237 184.737 156.66 185.314 155.948 185.314H135.748C135.036 185.314 134.459 184.737 134.459 184.027V163.861C134.459 163.15 133.882 162.574 133.17 162.574H120.759V162.588H117.147H116.764H92.1153H82.7814C82.0784 162.588 81.5086 162.023 81.5086 161.326V148.181C81.5086 147.724 81.7575 147.303 82.1595 147.08L91.8255 141.711C92.0155 141.606 92.2296 141.551 92.4474 141.551H116.764H117.147H120.675C120.686 141.55 120.696 141.55 120.706 141.55H141.765C141.775 141.55 141.786 141.55 141.796 141.551H145.175L145.19 141.55L145.204 141.55H148.212C148.924 141.55 149.501 140.974 149.501 140.263V131.266C149.501 130.979 149.597 130.701 149.773 130.475L155.247 123.449C155.423 123.224 155.518 122.945 155.518 122.659V116.236C155.518 115.525 156.096 114.949 156.808 114.949H161.106C161.818 114.949 162.395 115.525 162.395 116.236V121.814C162.395 122.525 162.972 123.101 163.684 123.101H174.548C174.752 123.101 174.953 123.053 175.135 122.96L192.381 114.16C192.766 113.791 193.265 113.235 193.667 112.567C194.087 111.868 194.181 111.373 194.199 111.082V100.361V95.6414V81.9117V74.1887V70.3272C194.199 69.6163 194.776 69.0401 195.488 69.0401H206.233C206.945 69.0401 207.522 69.6163 207.522 70.3272V72.9015C207.522 73.6124 208.1 74.1887 208.812 74.1887H211.39C212.103 74.1887 212.68 73.6124 212.68 72.9015V66.4657ZM94.4889 165.577C94.4889 164.866 95.0662 164.29 95.7783 164.29H106.523C107.235 164.29 107.812 164.866 107.812 165.577V168.581C107.812 169.292 108.39 169.868 109.102 169.868H112.54C113.252 169.868 113.829 169.292 113.829 168.581V165.577C113.829 164.866 114.407 164.29 115.119 164.29H131.45C132.162 164.29 132.74 164.866 132.74 165.577V184.027C132.74 184.737 132.162 185.314 131.45 185.314H113.829H107.812H95.7783C95.0662 185.314 94.4889 184.737 94.4889 184.027V165.577ZM47.6424 162.574C46.9303 162.574 46.353 163.15 46.353 163.861V174.587V178.449C46.353 179.16 46.9303 179.736 47.6424 179.736H49.7913C50.5034 179.736 51.0807 179.16 51.0807 178.449V175.875C51.0807 175.164 51.6579 174.587 52.37 174.587H56.2381C56.9502 174.587 57.5274 175.164 57.5274 175.875V202.047V203.763C57.5274 204.474 58.1047 205.05 58.8168 205.05H63.9742C64.6863 205.05 65.2635 204.474 65.2635 203.763V203.334C65.2635 202.623 65.8408 202.047 66.5529 202.047H69.5614C70.2735 202.047 70.8507 202.623 70.8507 203.334V204.255C70.8507 205.212 71.8594 205.834 72.7167 205.406L78.7337 202.403C79.1705 202.185 79.4464 201.739 79.4464 201.251V174.587V163.861C79.4464 163.15 78.8692 162.574 78.1571 162.574H47.6424Z" fill="#87CE2E"/>
<path fill-rule="evenodd" clip-rule="evenodd" d="M236.486 51.5921L243.473 45.0273C244.235 44.3117 245.24 43.9139 246.284 43.9139H253.273V32.8113H245.274C244.524 32.8113 243.788 32.6059 243.146 32.2171L212.968 13.9329H206.47V38.693C206.47 39.9963 205.674 41.1094 204.546 41.5807L197.014 48.0255V57.6437H204.707V54.8812C204.707 52.611 206.549 50.7788 208.812 50.7788H215.931C216.325 50.7788 216.718 50.8356 217.096 50.9475L232.68 55.5571L236.486 51.5921ZM218.457 132.977V129.534L218.46 129.484V100.821C218.46 99.8722 218.789 98.9538 219.389 98.2209L222.328 94.6352V82.8233L217.519 76.1763C217.014 75.4771 216.741 74.6361 216.741 73.7725V67.9938H215.495V72.9015C215.495 75.1718 213.653 77.004 211.39 77.004H208.812C206.549 77.004 204.707 75.1718 204.707 72.9015V71.8553H197.014V111.172L197.009 111.261C196.961 112.016 196.724 112.945 196.08 114.017C195.515 114.956 194.839 115.704 194.328 116.194L194.029 116.48L176.415 125.468C175.837 125.762 175.197 125.916 174.548 125.916H163.684C161.422 125.916 159.58 124.084 159.58 121.814V117.764H158.334V122.659C158.334 123.573 158.029 124.46 157.468 125.18L152.317 131.791V140.263C152.317 142.533 150.474 144.365 148.212 144.365H145.217H145.204L145.198 144.366H141.764L141.749 144.365H120.723L120.707 144.366H92.8446L84.3238 149.098V159.773H117.944V159.759H133.17C135.432 159.759 137.274 161.591 137.274 163.861V182.498H154.422V166.194H159.389L159.41 166.194H160.246C162.508 166.194 164.351 168.027 164.351 170.297V170.485H183.787L188.269 167.044C188.986 166.493 189.865 166.194 190.769 166.194H191.19C192.339 166.194 193.379 166.667 194.125 167.428C194.129 167.416 194.133 167.402 194.138 167.387C194.247 167.034 194.56 166.024 195.423 165.162C195.725 164.861 196.04 164.613 196.345 164.411V163.62H206.856V160.858C206.856 158.588 208.698 156.755 210.961 156.755H212.25C214.512 156.755 216.355 158.588 216.355 160.858V161.046H219.75V152.477L218.502 143.756C218.474 143.563 218.46 143.369 218.46 143.175V133.025L218.457 132.977ZM198.538 166.437C198.313 166.511 197.837 166.73 197.412 167.155C197.048 167.518 196.91 167.956 196.808 168.28L196.778 168.376V172.013C196.778 172.724 196.2 173.3 195.488 173.3H193.769C193.057 173.3 192.48 172.724 192.48 172.013V170.297C192.48 169.586 191.903 169.01 191.19 169.01H190.769C190.485 169.01 190.209 169.104 189.983 169.277L185.091 173.033C184.866 173.206 184.59 173.3 184.305 173.3H162.825C162.113 173.3 161.535 172.724 161.535 172.013V170.297C161.535 169.586 160.958 169.01 160.246 169.01H159.386L159.374 169.01L159.344 169.009H157.237V184.027C157.237 184.737 156.66 185.314 155.948 185.314H135.748C135.616 185.314 135.488 185.294 135.367 185.257C134.841 185.094 134.459 184.605 134.459 184.027V163.861C134.459 163.15 133.882 162.574 133.17 162.574H120.759V162.588H82.7814C82.4611 162.588 82.1685 162.471 81.9447 162.277C81.7218 162.084 81.5673 161.815 81.5222 161.511C81.5132 161.451 81.5086 161.389 81.5086 161.326V148.181C81.5086 147.724 81.7575 147.303 82.1595 147.08L91.8255 141.711C92.0155 141.606 92.2296 141.551 92.4474 141.551H120.675L120.706 141.55H141.765L141.796 141.551H145.175L145.19 141.55L145.204 141.55H148.212C148.924 141.55 149.501 140.974 149.501 140.263V131.266C149.501 130.979 149.597 130.701 149.773 130.475L155.247 123.449C155.423 123.224 155.518 122.945 155.518 122.659V116.236C155.518 115.525 156.096 114.949 156.808 114.949H161.106C161.818 114.949 162.395 115.525 162.395 116.236V121.814C162.395 122.525 162.972 123.101 163.684 123.101H174.548C174.752 123.101 174.953 123.053 175.135 122.96L192.381 114.16C192.766 113.791 193.265 113.235 193.667 112.567C194.087 111.868 194.181 111.373 194.199 111.082V70.3272C194.199 69.6163 194.776 69.0401 195.488 69.0401H206.233C206.945 69.0401 207.522 69.6163 207.522 70.3272V72.9015C207.522 73.6124 208.1 74.1887 208.812 74.1887H211.39C212.102 74.1887 212.68 73.6124 212.68 72.9015V66.4657C212.68 65.7549 213.257 65.1786 213.969 65.1786H218.267C218.979 65.1786 219.556 65.7549 219.556 66.4657V73.7725C219.556 74.0431 219.642 74.3068 219.8 74.5261L224.899 81.5743C225.058 81.7936 225.144 82.0573 225.144 82.3279V95.182C225.144 95.4791 225.041 95.7671 224.852 95.997L221.567 100.005C221.378 100.235 221.275 100.523 221.275 100.821V129.537L221.275 129.567L221.274 129.598L221.274 129.606L221.273 129.623L221.272 129.633V132.873C221.274 132.905 221.275 132.937 221.275 132.969V143.175C221.275 143.236 221.28 143.297 221.288 143.357L222.552 152.186C222.555 152.208 222.558 152.23 222.56 152.253C222.563 152.291 222.565 152.33 222.565 152.368V162.574C222.565 163.285 221.988 163.861 221.275 163.861H214.829C214.117 163.861 213.539 163.285 213.539 162.574V160.858C213.539 160.147 212.962 159.571 212.25 159.571H210.961C210.249 159.571 209.671 160.147 209.671 160.858V165.148C209.671 165.859 209.094 166.435 208.382 166.435H199.16L198.538 166.437ZM79.0044 162.891C78.7778 162.693 78.4815 162.574 78.1571 162.574H47.6424C46.9303 162.574 46.353 163.15 46.353 163.861V178.449C46.353 179.16 46.9303 179.736 47.6424 179.736H49.7913C50.5034 179.736 51.0807 179.16 51.0807 178.449V175.875C51.0807 175.164 51.6579 174.587 52.37 174.587H56.2381C56.9502 174.587 57.5274 175.164 57.5274 175.875V203.763C57.5274 204.474 58.1047 205.05 58.8168 205.05H63.9742C64.6863 205.05 65.2635 204.474 65.2635 203.763V203.334C65.2635 202.623 65.8408 202.047 66.5529 202.047H69.5614C70.2735 202.047 70.8507 202.623 70.8507 203.334V204.255C70.8507 205.212 71.8594 205.834 72.7167 205.406L78.7337 202.403C79.1705 202.185 79.4464 201.739 79.4464 201.251V163.861C79.4464 163.794 79.4413 163.729 79.4315 163.665C79.3844 163.357 79.2286 163.086 79.0044 162.891ZM94.5006 165.403C94.4929 165.46 94.4889 165.518 94.4889 165.577V184.027C94.4889 184.737 95.0662 185.314 95.7783 185.314H131.45C131.583 185.314 131.711 185.294 131.831 185.257C132.357 185.094 132.74 184.605 132.74 184.027V165.577C132.74 165.513 132.735 165.451 132.726 165.389C132.723 165.366 132.719 165.343 132.714 165.32C132.612 164.817 132.216 164.42 131.713 164.317C131.69 164.312 131.667 164.308 131.644 164.304C131.581 164.295 131.516 164.29 131.45 164.29H115.119C114.466 164.29 113.926 164.775 113.841 165.403C113.833 165.46 113.829 165.518 113.829 165.577V168.581C113.829 169.292 113.252 169.868 112.54 169.868H109.102C108.39 169.868 107.812 169.292 107.812 168.581V165.577C107.812 165.518 107.808 165.46 107.801 165.403C107.716 164.775 107.176 164.29 106.523 164.29H95.7783C95.1253 164.29 94.5857 164.775 94.5006 165.403ZM93.1923 144.173C93.1917 144.173 93.191 144.173 93.1903 144.174ZM238.467 53.5941L245.401 47.079C245.64 46.8543 245.956 46.7292 246.284 46.7292H254.799C255.511 46.7292 256.088 46.1529 256.088 45.442V31.2832C256.088 30.5724 255.511 29.9961 254.799 29.9961H245.274C245.038 29.9961 244.807 29.9315 244.605 29.8093L214.063 11.3045C213.861 11.1823 213.629 11.1177 213.394 11.1177H204.944C204.232 11.1177 203.654 11.694 203.654 12.4048V38.693C203.654 38.866 203.514 39.0062 203.341 39.0062C203.266 39.0062 203.193 39.033 203.136 39.0816L194.649 46.3439C194.364 46.5885 194.199 46.9454 194.199 47.3212V59.1718C194.199 59.8826 194.776 60.4589 195.488 60.4589H206.233C206.945 60.4589 207.522 59.8826 207.522 59.1718V54.8812C207.522 54.1703 208.1 53.5941 208.812 53.5941H215.931C216.055 53.5941 216.178 53.6119 216.297 53.6471L232.771 58.5198C233.234 58.6567 233.734 58.5242 234.068 58.1763L238.467 53.5941ZM97.3042 167.105V182.499H129.925V167.105H116.644V168.581C116.644 170.851 114.802 172.683 112.54 172.683H109.102C106.839 172.683 104.997 170.851 104.997 168.581V167.105H97.3042ZM49.1683 165.389V173.307C49.9213 172.371 51.0771 171.772 52.37 171.772H56.2381C58.5005 171.772 60.3427 173.604 60.3427 175.875V202.235H62.5971C63.0782 200.501 64.6701 199.232 66.5529 199.232H69.5614C71.3253 199.232 72.8337 200.345 73.4129 201.912L76.6312 200.306V165.389H49.1683Z" fill="#5F9D11"/>
<path d="M34.355 278.173V247.002H26.0068V240.516C27.6484 240.476 29.1299 240.336 30.4512 240.096C31.7725 239.815 32.9536 239.335 33.9946 238.654C35.0357 237.934 35.9365 236.933 36.6973 235.651H42.9434V278.173H34.355Z" fill="#E5005A"/>
<path d="M13.355 278.173V247.002H5.00684V240.516C6.64844 240.476 8.12989 240.336 9.45118 240.096C10.7725 239.815 11.9536 239.335 12.9946 238.654C14.0357 237.934 14.9365 236.933 15.6973 235.651H21.9434V278.173H13.355Z" fill="#E5005A"/>
<path fill-rule="evenodd" clip-rule="evenodd" d="M34.3544 282.865C31.763 282.865 29.6623 280.764 29.6623 278.173V251.694H26.0062C24.2706 251.694 22.755 250.752 21.9434 249.351V238.168C22.7358 236.799 24.2003 235.867 25.8918 235.825C27.3085 235.791 28.5185 235.673 29.5398 235.492C30.2843 235.327 30.8798 235.074 31.3708 234.763C31.7573 234.484 32.2043 234.027 32.6622 233.256C33.5076 231.832 35.0408 230.959 36.6967 230.959H42.9428C45.5341 230.959 47.6349 233.06 47.6349 235.651V278.173C47.6349 280.764 45.5341 282.865 42.9428 282.865H34.3544ZM33.994 238.654C32.953 239.335 31.7719 239.815 30.4506 240.096C29.1293 240.336 27.6478 240.476 26.0062 240.516V247.002H34.3544V278.173H42.9428V235.651H36.6967C35.9359 236.933 35.035 237.934 33.994 238.654Z" fill="#FAF1F5"/>
<path fill-rule="evenodd" clip-rule="evenodd" d="M13.3552 282.865C10.7638 282.865 8.66309 280.764 8.66309 278.173V251.694H5.00702C2.41566 251.694 0.314941 249.594 0.314941 247.002V240.516C0.314941 237.969 2.34658 235.887 4.89262 235.825C6.30927 235.791 7.51932 235.673 8.54061 235.492C9.28507 235.327 9.88062 235.074 10.3716 234.763C10.7581 234.484 11.2051 234.027 11.663 233.256C12.5083 231.832 14.0416 230.959 15.6975 230.959H21.9436C24.5349 230.959 26.6356 233.06 26.6356 235.651V240.495C26.4286 240.504 26.2189 240.511 26.0064 240.516V247.002H26.6356V278.173C26.6356 280.764 24.5349 282.865 21.9436 282.865H13.3552ZM12.9948 238.654C11.9538 239.335 10.7727 239.815 9.45136 240.096C8.13007 240.336 6.64863 240.476 5.00702 240.516V247.002H13.3552V278.173H21.9436V235.651H15.6975C14.9367 236.933 14.0358 237.934 12.9948 238.654Z" fill="#FAF1F5"/>
<path d="M144.909 259.376V260.361H153.101V259.376H144.909ZM144.909 262.867V263.852H153.101V262.867H144.909ZM144.909 255.885V256.842H153.101V255.885H144.909ZM141.08 253.182H157.099V266.555H141.08V253.182ZM150.398 273.734L153.974 271.51C155.973 272.861 158.985 274.944 160.533 276.352L156.676 278.886C155.381 277.506 152.482 275.254 150.398 273.734ZM145.049 269.201H149.413V278.97H145.049V269.201ZM137.842 267.653H160.027V271.228H137.842V267.653ZM135.506 254.984H139.616V271.707H135.506V254.984ZM139.785 271.819L144.092 273.424C142.206 275.507 139.588 277.591 137.279 278.886C136.407 278.013 134.886 276.774 133.929 276.127C136.153 275.085 138.603 273.283 139.785 271.819Z" fill="#E5005A"/>
<path d="M119.037 262.304H132.24V266.048H119.037V262.304ZM118.84 268.188L122.106 266.864C123.175 268.413 124.217 270.496 124.667 271.932L121.233 273.48C120.867 272.044 119.825 269.82 118.84 268.188ZM125.653 259.151H129.622V274.719C129.622 276.69 129.284 277.731 128.046 278.351C126.807 278.942 125.118 279.054 122.866 279.054C122.725 277.928 122.19 276.239 121.655 275.141C122.978 275.198 124.555 275.198 125.033 275.198C125.484 275.198 125.653 275.057 125.653 274.663V259.151ZM115.687 258.588L119.713 259.686C118.136 263.373 115.687 267.259 112.731 269.623C112.111 268.779 110.929 267.343 110.169 266.639C112.674 264.725 114.758 261.347 115.687 258.588ZM117.798 252.225H122.077V257.546H117.798V252.225ZM109.887 254.984H132.072V258.756H109.887V254.984ZM107.72 254.984H111.717V262.613C111.717 267.287 111.295 274.606 108.818 279.111C108.086 278.407 106.284 277.225 105.327 276.83C107.551 272.776 107.72 266.752 107.72 262.585V254.984ZM113.885 264.978L117.404 261.459L117.714 261.572V278.942H113.885V264.978Z" fill="#E5005A"/>
<path d="M85.5911 255.013H103.721V258.278H85.5911V255.013ZM92.2632 256.645L96.9929 256.871C96.3735 258.447 95.5008 259.939 94.9096 260.953L91.6157 260.418C91.8973 259.235 92.1788 257.743 92.2632 256.645ZM96.9366 252.197L101.047 253.042C100.287 254.252 99.5829 255.322 99.0198 256.054L95.5852 255.238C96.0638 254.337 96.655 253.098 96.9366 252.197ZM88.0122 253.408L91.2216 252.225C91.9254 253.042 92.6855 254.168 92.9671 254.984L89.5606 256.279C89.3354 255.491 88.6597 254.281 88.0122 253.408ZM84.831 263.12V273.734H80.8333V266.893H77.9336V263.12H84.831ZM84.831 271.96C85.8726 273.706 87.787 274.41 90.5459 274.522C93.9805 274.663 100.399 274.578 104.453 274.213C104.003 275.198 103.355 277.169 103.158 278.379C99.5829 278.576 93.9805 278.632 90.4615 278.464C87.1113 278.323 84.8873 277.619 83.0292 275.451C81.875 276.465 80.6926 277.478 79.1723 278.689L77.2017 274.41C78.4404 273.706 79.848 272.861 81.0867 271.96H84.831ZM77.821 255.322L80.8615 252.873C82.4662 254.027 84.5213 255.773 85.4785 257.068L82.2128 259.77C81.3964 258.475 79.4257 256.589 77.821 255.322ZM91.1934 265.879V266.865H97.8937V265.879H91.1934ZM91.1934 269.511V270.496H97.8937V269.511H91.1934ZM91.1934 262.248V263.233H97.8937V262.248H91.1934ZM87.3366 259.348H101.948V273.396H87.3366V259.348Z" fill="#E5005A"/>
<path d="M50.7671 255.041H60.4234V258.532H50.7671V255.041ZM54.3706 274.353H60.9864V277.591H54.3706V274.353ZM54.3706 269.933H61.099V272.974H54.3706V269.933ZM49.5847 260.249H63.9143V263.768H49.5847V260.249ZM54.1172 252.451H57.8896V262.586H54.1172V252.451ZM61.4932 253.633L65.153 254.647C62.4222 262.248 57.5237 268.103 51.0767 271.566C50.6545 270.693 49.5002 268.948 48.7964 268.132C54.821 265.345 59.241 260.305 61.4932 253.633ZM55.6937 265.485H60.9301V268.695H55.6937V278.942H52.0058V267.822L54.2298 265.485H55.6937ZM59.2691 265.485H63.126V278.548H59.2691V265.485ZM64.6462 253.774H72.8668V257.603H68.672V278.942H64.6462V253.774ZM71.9377 253.774H72.726L73.3172 253.633L76.3014 255.463C75.4005 258.194 74.2744 261.375 73.2891 263.796C75.3442 266.274 75.682 268.498 75.682 270.243C75.682 272.552 75.1753 273.987 74.021 274.776C73.458 275.198 72.7542 275.451 71.9659 275.564C71.3465 275.648 70.502 275.676 69.6292 275.62C69.6011 274.522 69.2069 272.777 68.5876 271.679C69.2069 271.735 69.6292 271.735 70.0515 271.735C70.4457 271.735 70.8398 271.679 71.1213 271.51C71.5718 271.257 71.7688 270.693 71.7688 269.764C71.7688 268.357 71.2621 266.33 69.3477 264.303C70.2767 261.628 71.4591 257.124 71.9377 255.21V253.774Z" fill="#E5005A"/>
<path fill-rule="evenodd" clip-rule="evenodd" d="M141.08 253.182H157.099V266.555H141.08V253.182ZM139.616 254.984H135.506V271.707H139.616V271.228H145.05V278.97H149.413V271.228H160.027V267.653H139.616V254.984ZM155.199 272.345C154.816 272.081 154.447 271.83 154.105 271.598C154.061 271.569 154.017 271.539 153.974 271.51L150.399 273.734C150.83 274.049 151.297 274.395 151.777 274.759C152.272 275.133 152.78 275.525 153.279 275.92C153.559 276.141 153.836 276.363 154.105 276.583C154.192 276.654 154.277 276.724 154.362 276.794C155.298 277.566 156.13 278.304 156.677 278.886L160.534 276.352C160.382 276.214 160.216 276.07 160.039 275.92C160.035 275.917 160.031 275.913 160.027 275.91C159.995 275.884 159.964 275.857 159.931 275.83C159.009 275.062 157.798 274.169 156.601 273.322C156.125 272.985 155.652 272.656 155.199 272.345ZM153.072 281.908C153.138 281.974 153.2 282.037 153.256 282.097C154.817 283.76 157.347 284.059 159.253 282.807L163.11 280.273C164.322 279.477 165.098 278.165 165.211 276.719C165.306 275.515 164.932 274.33 164.185 273.405C164.526 272.754 164.719 272.014 164.719 271.228V267.653C164.719 265.685 163.508 264.001 161.791 263.304V253.182C161.791 250.591 159.69 248.49 157.099 248.49H141.08C139.579 248.49 138.243 249.195 137.384 250.292H135.506C132.915 250.292 130.814 252.393 130.814 254.984H132.071V258.757H130.814V262.304H132.24V266.048H130.814V271.707C130.814 271.995 130.84 272.278 130.89 272.552C130.341 273.019 129.907 273.606 129.622 274.266V274.719C129.622 275.677 129.542 276.416 129.318 276.993C129.546 278.207 130.249 279.302 131.3 280.013C132.025 280.503 133.312 281.554 133.962 282.203C135.448 283.69 137.742 284.006 139.575 282.978C140.164 282.647 140.765 282.278 141.367 281.877C142.226 282.965 143.556 283.662 145.05 283.662H149.413C150.892 283.662 152.212 282.978 153.072 281.908ZM143.891 273.643C143.959 273.57 144.026 273.497 144.092 273.424L139.785 271.819C139.731 271.886 139.675 271.953 139.616 272.021C139.524 272.127 139.425 272.236 139.321 272.345C138.984 272.698 138.589 273.062 138.154 273.424C138.052 273.508 137.948 273.593 137.843 273.677C137.128 274.245 136.325 274.799 135.506 275.286C135.503 275.288 135.499 275.29 135.496 275.292C135.438 275.327 135.38 275.361 135.321 275.395C134.856 275.665 134.388 275.912 133.929 276.127C133.93 276.127 133.931 276.128 133.932 276.128C134.889 276.776 136.408 278.013 137.28 278.886C138.217 278.36 139.205 277.704 140.174 276.971C140.236 276.925 140.297 276.879 140.358 276.832C140.668 276.593 140.977 276.347 141.28 276.095C141.35 276.037 141.42 275.979 141.489 275.92C142.041 275.454 142.575 274.97 143.077 274.478C143.359 274.201 143.632 273.923 143.891 273.643ZM153.101 263.852V262.867H144.909V263.852H153.101ZM153.101 260.361V259.376H144.909V260.361H153.101ZM153.101 256.842V255.885H144.909V256.842H153.101Z" fill="#FAF1F5"/>
<path fill-rule="evenodd" clip-rule="evenodd" d="M116.306 258.757L119.712 259.686C119.68 259.761 119.648 259.836 119.615 259.911C119.433 260.328 119.24 260.747 119.037 261.166C118.971 261.301 118.904 261.437 118.836 261.572C118.724 261.794 118.61 262.017 118.492 262.238C118.48 262.26 118.469 262.282 118.457 262.304C118.433 262.349 118.408 262.394 118.384 262.44C118.201 262.778 118.012 263.115 117.816 263.449C117.792 263.489 117.769 263.529 117.745 263.569C117.735 263.586 117.724 263.604 117.714 263.622V278.942H113.885V268.601C113.603 268.876 113.315 269.137 113.021 269.385C112.925 269.466 112.828 269.546 112.731 269.624C112.574 269.41 112.382 269.159 112.169 268.892C111.963 268.631 111.737 268.355 111.506 268.083C111.506 268.086 111.506 268.089 111.506 268.092C111.498 268.181 111.491 268.271 111.483 268.36C111.416 269.141 111.33 269.935 111.223 270.729C111.082 271.777 110.903 272.825 110.677 273.842C110.629 274.055 110.58 274.267 110.528 274.477C110.185 275.875 109.748 277.201 109.193 278.375C109.12 278.529 109.045 278.68 108.968 278.828C108.919 278.924 108.869 279.018 108.817 279.111C108.413 278.722 107.682 278.187 106.948 277.72C106.353 277.341 105.755 277.007 105.326 276.831C105.797 275.973 106.175 275.027 106.48 274.029C106.836 272.863 107.09 271.626 107.272 270.376C107.306 270.139 107.338 269.902 107.368 269.664C107.637 267.492 107.704 265.314 107.717 263.43C107.718 263.257 107.719 263.087 107.719 262.919C107.719 262.816 107.719 262.714 107.719 262.614C107.719 262.604 107.719 262.595 107.719 262.585V254.984H117.798V252.225H122.077V254.984H132.071V258.757H116.306ZM119.037 262.304V266.048H125.653V274.663C125.653 274.682 125.652 274.701 125.651 274.719C125.635 275.07 125.462 275.198 125.033 275.198C125.018 275.198 125.002 275.198 124.985 275.198C124.964 275.198 124.942 275.198 124.918 275.198C124.522 275.198 123.723 275.196 122.865 275.178C122.713 275.175 122.56 275.171 122.406 275.167C122.266 275.163 122.126 275.159 121.987 275.154C121.875 275.15 121.764 275.146 121.655 275.141C121.921 275.688 122.188 276.382 122.406 277.08C122.497 277.374 122.58 277.668 122.651 277.953C122.75 278.349 122.824 278.726 122.865 279.055C123.656 279.055 124.377 279.041 125.033 278.997C126.248 278.917 127.241 278.735 128.046 278.351C129.284 277.731 129.622 276.69 129.622 274.719V266.048H132.24V262.304H129.622V259.151H125.653V262.304H119.037ZM134.314 270.258C134.755 270.041 135.157 269.756 135.506 269.417V254.984H136.763C136.763 252.393 134.663 250.292 132.071 250.292H126.354C125.617 248.665 123.979 247.533 122.077 247.533H117.798C115.896 247.533 114.258 248.665 113.521 250.292H107.719C105.128 250.292 103.027 252.393 103.027 254.984V255.012H103.722V258.278H103.027V262.585C103.027 264.627 102.984 266.933 102.702 269.162C102.527 270.542 102.276 271.766 101.948 272.802V273.396H101.744C101.605 273.768 101.455 274.112 101.293 274.424C102.43 274.368 103.506 274.298 104.454 274.212C104.251 274.656 104.008 275.3 103.784 275.984C103.511 276.819 103.267 277.714 103.159 278.379C102.48 278.416 101.729 278.449 100.932 278.475C101.389 279.695 102.333 280.672 103.54 281.169C103.539 281.169 103.54 281.169 103.542 281.17C103.558 281.178 103.666 281.227 103.871 281.343C104.083 281.462 104.331 281.613 104.588 281.781C104.844 281.949 105.082 282.115 105.275 282.261C105.487 282.421 105.572 282.5 105.565 282.493C106.617 283.505 108.081 283.969 109.524 283.75C110.236 283.641 110.904 283.372 111.482 282.973C112.185 283.393 113.007 283.634 113.885 283.634H117.714C118.629 283.634 119.482 283.372 120.204 282.919C120.964 283.443 121.883 283.747 122.865 283.747C124.995 283.747 127.733 283.699 130.067 282.585C130.092 282.573 130.118 282.56 130.144 282.548C131.691 281.774 132.934 280.543 133.64 278.82C133.983 277.984 134.154 277.131 134.238 276.342C134.13 276.265 134.027 276.193 133.929 276.127C134.043 276.073 134.158 276.018 134.272 275.961C134.306 275.516 134.314 275.097 134.314 274.719V270.258ZM121.233 273.48L124.667 271.932C124.554 271.57 124.402 271.166 124.222 270.74C124.205 270.7 124.188 270.661 124.171 270.62C124.154 270.581 124.137 270.542 124.12 270.503C123.838 269.861 123.497 269.177 123.127 268.515C122.971 268.237 122.81 267.962 122.647 267.696C122.567 267.567 122.487 267.439 122.406 267.314C122.336 267.206 122.266 267.1 122.195 266.996C122.165 266.952 122.135 266.908 122.105 266.865L118.84 268.188C118.905 268.296 118.971 268.407 119.037 268.521C119.1 268.63 119.163 268.741 119.226 268.854C119.283 268.955 119.34 269.058 119.396 269.162C119.428 269.22 119.46 269.279 119.491 269.338C119.727 269.779 119.956 270.236 120.168 270.691C120.176 270.707 120.183 270.724 120.191 270.74C120.46 271.318 120.702 271.89 120.895 272.418C120.918 272.479 120.939 272.539 120.96 272.599C121.015 272.754 121.065 272.904 121.11 273.048C121.141 273.15 121.17 273.249 121.197 273.344C121.209 273.39 121.221 273.436 121.233 273.48ZM111.717 258.757V262.614C111.717 262.679 111.717 262.744 111.717 262.81C111.716 263.018 111.715 263.231 111.713 263.449C111.71 263.646 111.707 263.847 111.704 264.051C111.698 264.353 111.69 264.663 111.68 264.978C111.68 264.988 111.679 264.998 111.679 265.008C111.676 265.097 111.673 265.185 111.67 265.275C111.762 265.177 111.852 265.079 111.942 264.978C112.097 264.806 112.248 264.629 112.397 264.449C112.541 264.274 112.682 264.095 112.82 263.913C112.888 263.824 112.955 263.734 113.021 263.643C113.069 263.579 113.116 263.514 113.162 263.449C113.203 263.39 113.245 263.332 113.286 263.273C113.437 263.056 113.583 262.836 113.725 262.614C113.944 262.27 114.152 261.922 114.347 261.572C114.374 261.524 114.4 261.476 114.426 261.428C114.501 261.292 114.573 261.156 114.643 261.019C114.877 260.568 115.087 260.118 115.273 259.676C115.308 259.594 115.342 259.512 115.375 259.43C115.39 259.391 115.406 259.352 115.421 259.313C115.495 259.125 115.564 258.94 115.629 258.757H111.717Z" fill="#FAF1F5"/>
<path fill-rule="evenodd" clip-rule="evenodd" d="M84.8131 249.976C85.2634 249.556 85.7977 249.223 86.3907 249.005L89.6001 247.822C91.1238 247.261 92.8038 247.533 94.0614 248.489C95.111 247.676 96.4934 247.316 97.8816 247.601L101.992 248.445C103.235 248.701 104.309 249.446 104.987 250.493C106.955 251.042 108.401 252.843 108.414 254.984H107.72V260.736C107.433 261.201 107.067 261.613 106.64 261.952V270.061C106.857 270.175 107.064 270.305 107.261 270.452C107.109 271.481 106.907 272.5 106.64 273.477C106.498 273.995 106.338 274.501 106.157 274.991C105.976 275.48 105.774 275.952 105.55 276.403C105.478 276.548 105.403 276.69 105.327 276.83C106.006 277.11 107.11 277.786 107.955 278.407C107.88 278.686 107.821 278.939 107.79 279.133C107.436 281.307 105.617 282.942 103.417 283.064C99.7122 283.268 93.956 283.328 90.2506 283.151C87.7472 283.044 85.3529 282.642 83.1676 281.494C82.8273 281.772 82.4714 282.06 82.0958 282.359C80.9681 283.257 79.4903 283.587 78.0879 283.253C76.6854 282.92 75.5141 281.96 74.9111 280.651L72.9404 276.372C72.7989 276.065 72.6933 275.749 72.6221 275.431C73.1464 275.292 73.6195 275.076 74.021 274.775C74.928 274.156 75.4352 273.137 75.6109 271.608C75.6333 271.414 75.6503 271.21 75.6621 270.999C75.6754 270.758 75.682 270.506 75.682 270.243C75.682 270.121 75.6804 269.998 75.6767 269.872C75.6503 268.982 75.5192 267.98 75.1193 266.893C74.7623 265.922 74.1911 264.883 73.2891 263.796C73.3783 263.576 73.4687 263.351 73.56 263.12C73.9965 262.016 74.4531 260.79 74.9003 259.541C75.0116 259.446 75.1274 259.357 75.2473 259.273C75.1825 259.22 75.1174 259.167 75.0521 259.114C75.1129 258.943 75.1734 258.772 75.2336 258.6C75.6078 257.533 75.9699 256.468 76.3014 255.463L73.4203 253.696C73.7106 252.91 74.2098 252.206 74.8781 251.668L77.9186 249.219C79.5625 247.894 81.8883 247.831 83.6019 249.064C83.9717 249.329 84.3823 249.637 84.8131 249.976ZM77.9342 263.12V266.893H80.8339V272.142C80.6888 272.245 80.5416 272.347 80.3931 272.448C80.309 272.505 80.2244 272.562 80.1395 272.619C79.5548 273.008 78.9529 273.383 78.3645 273.734C77.9679 273.97 77.5773 274.196 77.2023 274.409L79.1729 278.688C79.2802 278.603 79.3857 278.519 79.4897 278.435C79.5535 278.384 79.6166 278.333 79.6793 278.283C80.0533 277.981 80.4071 277.69 80.746 277.408C80.7754 277.384 80.8047 277.36 80.8339 277.335C81.1128 277.103 81.3817 276.876 81.6438 276.652C81.8333 276.49 82.0193 276.331 82.2028 276.172C82.4384 275.968 82.6701 275.766 82.9001 275.565C82.9434 275.527 82.9866 275.489 83.0298 275.451C83.0809 275.51 83.1322 275.569 83.1838 275.626C83.2044 275.649 83.2251 275.672 83.2458 275.694C83.3379 275.795 83.431 275.892 83.5251 275.985C83.7701 276.229 84.0222 276.451 84.2827 276.652C84.4615 276.79 84.6443 276.918 84.8316 277.037C85.4595 277.437 86.1382 277.735 86.8868 277.953C87.0342 277.996 87.1842 278.036 87.3372 278.073C87.3583 278.078 87.3796 278.083 87.4009 278.088C88.2902 278.297 89.2756 278.41 90.3852 278.46C90.3854 278.46 90.3849 278.46 90.3852 278.46C90.4105 278.461 90.4366 278.462 90.4621 278.463C93.9812 278.632 99.5835 278.576 103.159 278.379C103.183 278.231 103.214 278.072 103.25 277.905C103.511 276.702 104.058 275.077 104.454 274.212C103.978 274.255 103.469 274.294 102.936 274.33C102.615 274.351 102.285 274.371 101.948 274.389C101.445 274.417 100.927 274.442 100.401 274.463C100.048 274.478 99.691 274.491 99.3321 274.503C98.855 274.519 98.3743 274.532 97.8944 274.544C95.4414 274.601 93.0093 274.599 91.1941 274.545C91.0062 274.539 90.825 274.533 90.6511 274.526C90.6432 274.526 90.6354 274.525 90.6276 274.525C90.6004 274.524 90.5734 274.523 90.5466 274.522C90.1723 274.507 89.8136 274.48 89.4705 274.442C89.0995 274.401 88.7467 274.346 88.4122 274.275C88.0298 274.194 87.6715 274.093 87.3372 273.969C87.1447 273.898 86.9602 273.82 86.7837 273.734C86.576 273.632 86.3795 273.52 86.1941 273.396C86.0513 273.3 85.9151 273.198 85.7855 273.089C85.6959 273.013 85.6093 272.934 85.526 272.851C85.2627 272.59 85.0311 272.294 84.8316 271.96V263.12H77.9342ZM87.3372 273.396H101.948V259.348H95.8207C95.9606 259.089 96.1021 258.819 96.2415 258.541C96.285 258.454 96.3283 258.366 96.3713 258.278H103.722V255.012H99.7676C99.8462 254.897 99.9263 254.778 100.008 254.656C100.185 254.39 100.368 254.109 100.556 253.816C100.605 253.74 100.654 253.663 100.703 253.586C100.741 253.527 100.778 253.468 100.816 253.409C100.892 253.288 100.97 253.166 101.047 253.041L96.9372 252.197C96.9273 252.229 96.917 252.261 96.9063 252.293C96.778 252.685 96.5967 253.133 96.3945 253.586C96.3564 253.671 96.3175 253.757 96.2781 253.842C96.2665 253.868 96.2549 253.893 96.2433 253.918C96.1264 254.169 96.0056 254.418 95.8862 254.656C95.8249 254.778 95.7639 254.897 95.7041 255.012H92.8936L92.9677 254.984C92.9446 254.917 92.9184 254.848 92.8893 254.778C92.8727 254.738 92.8551 254.697 92.8367 254.656C92.721 254.396 92.5702 254.118 92.3977 253.835C92.3473 253.752 92.295 253.669 92.2412 253.586C92.1994 253.521 92.1567 253.457 92.1133 253.393C91.9546 253.158 91.7858 252.926 91.6145 252.705C91.4841 252.537 91.3522 252.376 91.2222 252.225L88.4134 253.26L88.0128 253.407C88.0559 253.465 88.099 253.525 88.1422 253.586C88.2306 253.71 88.3189 253.84 88.4059 253.973C88.5 254.117 88.5926 254.265 88.6822 254.415C88.7217 254.481 88.7607 254.547 88.7989 254.614C88.807 254.628 88.815 254.642 88.823 254.656C88.891 254.775 88.9566 254.894 89.019 255.012H85.5917V258.278H92.0522C92.0501 258.291 92.0479 258.304 92.0457 258.317C92.033 258.391 92.02 258.466 92.0067 258.541C91.9683 258.756 91.9274 258.973 91.8847 259.187C91.874 259.241 91.8633 259.294 91.8524 259.348H87.3372V273.396ZM91.1941 270.496H97.8944V269.511H91.1941V270.496ZM97.8944 266.864V265.879H91.1941V266.864H97.8944ZM97.8944 262.247H91.1941V263.233H97.8944V262.247ZM85.4791 257.067C85.3195 256.851 85.1294 256.623 84.9159 256.387C84.7969 256.255 84.6706 256.121 84.5383 255.985C84.4652 255.91 84.3903 255.835 84.3138 255.759C84.1026 255.55 83.879 255.339 83.6475 255.128C83.6051 255.089 83.5625 255.051 83.5196 255.012C83.0551 254.594 82.5625 254.18 82.0761 253.793C81.8046 253.577 81.535 253.369 81.2733 253.174C81.1337 253.07 80.9963 252.969 80.8621 252.873L77.8216 255.322C78.082 255.527 78.3521 255.749 78.6252 255.982C79.3073 256.564 80.009 257.215 80.6291 257.856C80.7212 257.951 80.8115 258.045 80.8996 258.14C80.9428 258.186 80.9854 258.232 81.0275 258.278C81.0736 258.328 81.1191 258.378 81.1638 258.428C81.2035 258.472 81.2426 258.516 81.2811 258.56C81.5951 258.917 81.8696 259.261 82.0854 259.576C82.1307 259.642 82.1735 259.707 82.2134 259.77L85.4791 257.067Z" fill="#FAF1F5"/>
<path fill-rule="evenodd" clip-rule="evenodd" d="M54.117 252.45V255.04H50.7668V258.531H54.117V260.248H49.5844V263.767H55.1963C55.0891 263.871 54.981 263.973 54.8719 264.074C54.8354 264.108 54.7988 264.141 54.7621 264.175C54.587 264.335 54.4095 264.492 54.2296 264.647C54.1921 264.679 54.1546 264.711 54.117 264.743C54.0386 264.809 53.9599 264.875 53.8807 264.94C53.8408 264.973 53.8009 265.006 53.7609 265.039C53.633 265.143 53.504 265.245 53.3738 265.347C53.2106 265.474 53.0455 265.599 52.8787 265.722C52.4767 266.018 52.0644 266.301 51.642 266.572C51.5773 266.614 51.5123 266.655 51.4471 266.696C51.3214 266.774 51.1949 266.852 51.0676 266.929C50.8879 267.037 50.7065 267.142 50.5233 267.246C50.2152 267.42 49.9022 267.588 49.5844 267.749C49.5365 267.773 49.4885 267.797 49.4404 267.821C49.3419 267.871 49.243 267.919 49.1436 267.967C49.0284 268.023 48.9125 268.077 48.7961 268.131C48.8727 268.22 48.9547 268.32 49.0404 268.428C49.2498 268.693 49.482 269.01 49.7147 269.345C49.8482 269.537 49.9819 269.735 50.1115 269.933C50.3554 270.304 50.5851 270.674 50.7726 271C50.8136 271.071 50.8526 271.14 50.8892 271.207C50.9295 271.28 50.9671 271.35 51.0014 271.416C51.0285 271.468 51.0536 271.518 51.0765 271.566C51.3898 271.397 51.6996 271.223 52.0055 271.044V278.942H55.6935V277.59H59.2689V278.548H63.1258V265.485H58.7931C58.8657 265.404 58.9378 265.323 59.0096 265.241C59.0966 265.142 59.183 265.042 59.2689 264.941C59.2691 264.941 59.2686 264.942 59.2689 264.941C59.5013 264.669 59.7302 264.391 59.9539 264.11C59.9824 264.074 60.0107 264.038 60.039 264.002C60.1003 263.924 60.1612 263.846 60.2218 263.767H63.914V260.248H62.5717C62.575 260.243 62.5782 260.237 62.5815 260.231C62.7994 259.852 63.0109 259.467 63.2157 259.075C63.2305 259.047 63.2452 259.019 63.2599 258.991C63.339 258.838 63.4171 258.685 63.4942 258.531C63.6376 258.244 63.7776 257.954 63.914 257.661C63.9363 257.614 63.9584 257.566 63.9805 257.518C64.2128 257.013 64.4347 256.498 64.646 255.975V278.942H68.6718V271.835C68.9478 272.368 69.1745 273.026 69.3381 273.682C69.5126 274.382 69.6151 275.079 69.629 275.62C69.7708 275.629 69.9118 275.636 70.0513 275.641C70.7702 275.665 71.4469 275.634 71.9656 275.563C71.9757 275.562 71.9857 275.56 71.9958 275.559C72.4314 275.495 72.8408 275.387 73.2145 275.231C73.2517 275.215 73.2887 275.199 73.3252 275.183C73.3381 275.177 73.351 275.171 73.3639 275.165C73.5992 275.056 73.819 274.926 74.0208 274.775C74.1031 274.719 74.1821 274.659 74.2579 274.596C75.2447 273.778 75.6818 272.386 75.6818 270.243C75.6818 270.087 75.6791 269.927 75.6727 269.764C75.6184 268.371 75.2969 266.713 74.099 264.887C73.8835 264.559 73.6396 264.225 73.3639 263.887C73.3391 263.857 73.3141 263.826 73.2888 263.796C73.3137 263.734 73.3388 263.673 73.3639 263.61C73.5235 263.215 73.6866 262.8 73.8516 262.372C73.8769 262.306 73.9022 262.24 73.9276 262.174C74.4789 260.733 75.0485 259.147 75.58 257.602C75.7386 257.141 75.8937 256.684 76.044 256.236C76.1315 255.975 76.2173 255.717 76.3011 255.462L73.317 253.633L72.7258 253.773H64.646V254.506L61.4929 253.633C61.477 253.68 61.4611 253.726 61.445 253.773C61.2977 254.202 61.1413 254.625 60.9761 255.04C60.9072 255.213 60.8367 255.385 60.7647 255.556C60.6544 255.818 60.5406 256.077 60.4231 256.333V255.04H57.8894V252.45H54.117ZM61.0283 248.963C60.1969 248.214 59.0963 247.758 57.8894 247.758H54.117C52.2482 247.758 50.6345 248.851 49.88 250.432C47.7126 250.846 46.0747 252.752 46.0747 255.04V257.134C45.3391 257.963 44.8923 259.053 44.8923 260.248V263.767C44.8923 264.273 44.9722 264.759 45.12 265.215C44.6791 265.771 44.3641 266.427 44.2101 267.139C43.8989 268.578 44.281 270.08 45.2423 271.195C45.698 271.723 46.6205 273.129 46.8529 273.609C46.983 273.878 47.1375 274.132 47.3134 274.368V278.942C47.3134 281.533 49.4142 283.634 52.0055 283.634H55.6935C56.5137 283.634 57.2848 283.423 57.9557 283.053C58.3724 283.175 58.813 283.24 59.2689 283.24H62.7607C63.3377 283.493 63.9754 283.634 64.646 283.634H68.6718C70.8608 283.634 72.6996 282.135 73.2179 280.107C74.3811 279.874 75.6193 279.418 76.7517 278.591C77.4148 278.126 77.9607 277.599 78.409 277.03L77.202 274.409C78.1571 273.866 79.2127 273.24 80.2138 272.569C80.333 271.767 80.3739 270.979 80.3739 270.243C80.3739 269.239 80.2879 268.109 80.0061 266.892H77.934V263.12H78.5864C79.2458 261.361 79.91 259.466 80.4955 257.719C80.0495 257.266 79.5664 256.81 79.0819 256.38C78.6547 256.001 78.2264 255.641 77.8214 255.322L80.4251 253.224C80.0424 252.518 79.4758 251.905 78.7539 251.463L75.7697 249.633C74.7111 248.983 73.4382 248.78 72.2302 249.068L72.1749 249.081H64.646C64.1864 249.081 63.7422 249.147 63.3224 249.271L62.7451 249.111C62.1704 248.951 61.5898 248.906 61.0283 248.963ZM57.8894 258.531V260.248H58.1929C58.3114 260.078 58.4279 259.906 58.5424 259.732C58.6325 259.595 58.7214 259.458 58.809 259.319C58.8599 259.238 58.9104 259.157 58.9604 259.075C59.0708 258.896 59.1791 258.714 59.2855 258.531H57.8894ZM68.6718 271.686C68.9216 271.707 69.139 271.719 69.3381 271.726C69.5316 271.732 69.7078 271.734 69.8796 271.734C69.9372 271.735 69.9942 271.735 70.0513 271.735C70.4454 271.735 70.8395 271.678 71.1211 271.509C71.2104 271.459 71.2898 271.397 71.3597 271.322C71.3678 271.313 71.3757 271.304 71.3836 271.295C71.3884 271.289 71.3932 271.284 71.398 271.278C71.441 271.226 71.4801 271.169 71.5153 271.106C71.6384 270.887 71.7142 270.601 71.748 270.243C71.7585 270.13 71.765 270.011 71.7674 269.884C71.7682 269.845 71.7686 269.805 71.7686 269.764C71.7686 268.75 71.5057 267.415 70.6434 265.99C70.3085 265.437 69.883 264.869 69.3475 264.302C69.5406 263.746 69.7446 263.111 69.951 262.437C69.9655 262.39 69.9801 262.342 69.9946 262.294C70.3702 261.059 70.7515 259.704 71.087 258.465C71.1419 258.263 71.1956 258.063 71.2478 257.868C71.2717 257.778 71.2954 257.69 71.3186 257.602H68.6718V271.686ZM55.6935 269.933H59.2689V268.694H55.6935V269.933ZM55.6935 272.973V274.353H59.2689V272.973H55.6935Z" fill="#FAF1F5"/>
<path d="M204.755 278.173V271.086L216.527 261.296C217.368 260.575 218.329 259.775 219.41 258.894C220.531 257.973 221.592 256.992 222.593 255.951C223.634 254.91 224.475 253.809 225.115 252.648C225.796 251.487 226.136 250.285 226.136 249.044C226.136 247.323 225.596 245.921 224.515 244.84C223.474 243.759 221.932 243.219 219.89 243.219C217.968 243.219 216.447 243.659 215.326 244.54C214.245 245.381 213.564 246.462 213.284 247.783H204.996C205.236 244.94 206.077 242.598 207.518 240.756C209 238.874 210.861 237.473 213.104 236.552C215.346 235.631 217.708 235.171 220.19 235.171C222.873 235.171 225.315 235.671 227.518 236.672C229.72 237.673 231.461 239.135 232.743 241.056C234.024 242.938 234.665 245.281 234.665 248.083C234.665 250.486 234.204 252.668 233.283 254.63C232.402 256.552 231.181 258.353 229.62 260.035C228.058 261.677 226.296 263.258 224.334 264.78L217.608 270.245H234.605V278.173H204.755Z" fill="#E5005A"/>
<path d="M187.038 278.653C185.036 278.653 183.094 278.433 181.212 277.992C179.33 277.512 177.608 276.771 176.047 275.77C174.525 274.729 173.304 273.368 172.383 271.686C171.502 270.005 171.062 267.983 171.062 265.62C171.062 264.059 171.282 262.657 171.723 261.416C172.203 260.135 172.884 259.014 173.765 258.053C174.686 257.052 175.787 256.251 177.068 255.651C175.987 254.97 175.106 254.169 174.425 253.248C173.745 252.287 173.244 251.246 172.924 250.125C172.604 249.004 172.443 247.863 172.443 246.702C172.443 244.58 172.864 242.798 173.705 241.357C174.545 239.875 175.667 238.694 177.068 237.813C178.469 236.892 180.051 236.232 181.813 235.831C183.574 235.391 185.356 235.171 187.158 235.171C189 235.171 190.781 235.391 192.503 235.831C194.225 236.232 195.786 236.912 197.188 237.873C198.589 238.794 199.71 240.015 200.551 241.537C201.392 243.018 201.812 244.82 201.812 246.942C201.812 248.023 201.632 249.124 201.272 250.245C200.951 251.326 200.431 252.327 199.71 253.248C199.029 254.169 198.148 254.95 197.067 255.591C198.349 256.151 199.45 256.912 200.371 257.873C201.292 258.834 201.992 259.975 202.473 261.296C202.953 262.617 203.193 264.099 203.193 265.741C203.193 268.103 202.733 270.105 201.812 271.746C200.891 273.388 199.65 274.729 198.088 275.77C196.527 276.771 194.785 277.512 192.863 277.992C190.981 278.433 189.04 278.653 187.038 278.653ZM187.098 270.906C187.979 270.906 188.859 270.805 189.74 270.605C190.621 270.405 191.422 270.085 192.143 269.644C192.863 269.164 193.424 268.583 193.824 267.903C194.265 267.182 194.485 266.301 194.485 265.26C194.485 263.979 194.165 262.938 193.524 262.137C192.883 261.296 192.002 260.676 190.881 260.275C189.8 259.835 188.539 259.615 187.098 259.615C185.696 259.615 184.415 259.835 183.254 260.275C182.133 260.676 181.252 261.296 180.611 262.137C179.971 262.938 179.65 263.979 179.65 265.26C179.65 266.301 179.871 267.182 180.311 267.903C180.751 268.583 181.312 269.164 181.993 269.644C182.713 270.085 183.514 270.405 184.395 270.605C185.276 270.805 186.177 270.906 187.098 270.906ZM187.158 253.068C188.439 253.068 189.52 252.868 190.401 252.468C191.322 252.027 192.022 251.427 192.503 250.666C193.023 249.865 193.284 248.984 193.284 248.023C193.284 246.822 193.023 245.841 192.503 245.08C191.982 244.28 191.242 243.679 190.281 243.279C189.36 242.838 188.259 242.618 186.978 242.618C185.736 242.618 184.655 242.838 183.734 243.279C182.854 243.679 182.153 244.26 181.632 245.02C181.152 245.781 180.912 246.702 180.912 247.783C180.912 248.864 181.172 249.805 181.692 250.606C182.213 251.407 182.934 252.027 183.855 252.468C184.815 252.868 185.917 253.068 187.158 253.068Z" fill="#E5005A"/>
<path fill-rule="evenodd" clip-rule="evenodd" d="M204.755 282.865C202.163 282.865 200.062 280.764 200.062 278.173V274.119C200.737 273.414 201.32 272.623 201.812 271.746C201.932 271.532 202.044 271.312 202.149 271.086C202.468 270.394 202.714 269.645 202.886 268.839C203.057 268.045 203.156 267.195 203.185 266.289L213.499 257.711C214.368 256.967 215.348 256.15 216.438 255.262C217.415 254.459 218.339 253.605 219.21 252.699C219.222 252.686 219.234 252.674 219.246 252.661C219.256 252.652 219.265 252.642 219.274 252.633C220.038 251.87 220.6 251.117 221.006 250.381C221.026 250.345 221.046 250.31 221.067 250.275C221.362 249.771 221.443 249.381 221.443 249.044C221.443 248.405 221.288 248.249 221.2 248.162L221.196 248.158C221.178 248.14 221.16 248.121 221.142 248.103C221.127 248.094 221.092 248.075 221.024 248.052C220.86 247.994 220.508 247.911 219.889 247.911C218.655 247.911 218.271 248.192 218.224 248.229L218.206 248.244C217.985 248.415 217.92 248.535 217.873 248.757C217.413 250.924 215.499 252.475 213.283 252.475H204.995C203.682 252.475 202.429 251.925 201.54 250.958C201.412 250.819 201.294 250.673 201.185 250.521C201.215 250.43 201.244 250.338 201.271 250.245C201.568 249.321 201.743 248.41 201.795 247.513C201.806 247.322 201.812 247.132 201.812 246.942C201.812 245.442 201.602 244.103 201.182 242.923C201.764 241.092 202.629 239.389 203.822 237.864L203.831 237.854C205.818 235.328 208.339 233.436 211.32 232.212C214.142 231.053 217.111 230.479 220.19 230.479C223.469 230.479 226.583 231.094 229.458 232.401C232.411 233.743 234.844 235.758 236.633 238.435C238.547 241.255 239.356 244.566 239.356 248.083C239.356 251.092 238.777 253.958 237.539 256.604C236.434 259.009 234.925 261.217 233.057 263.228L233.019 263.269C232.279 264.046 231.503 264.807 230.692 265.553H234.604C237.195 265.553 239.296 267.653 239.296 270.245V278.173C239.296 280.764 237.195 282.865 234.604 282.865H204.755ZM224.334 264.78C226.296 263.258 228.057 261.676 229.619 260.035C231.18 258.353 232.402 256.551 233.282 254.63C234.203 252.668 234.664 250.486 234.664 248.083C234.664 245.28 234.023 242.938 232.742 241.056C231.461 239.134 229.719 237.673 227.517 236.672C225.315 235.671 222.872 235.171 220.19 235.171C217.707 235.171 215.345 235.631 213.103 236.552C210.861 237.473 208.999 238.874 207.517 240.756C206.966 241.461 206.502 242.239 206.126 243.091C205.52 244.464 205.143 246.028 204.995 247.783H213.283C213.563 246.462 214.244 245.381 215.325 244.54C216.446 243.659 217.967 243.218 219.889 243.218C221.931 243.218 223.473 243.759 224.514 244.84C225.595 245.921 226.135 247.322 226.135 249.044C226.135 250.285 225.795 251.487 225.114 252.648C224.474 253.809 223.633 254.91 222.592 255.951C221.591 256.992 220.53 257.973 219.409 258.894C218.328 259.775 217.367 260.575 216.526 261.296L204.755 271.086V278.173H234.604V270.245H217.607L224.334 264.78Z" fill="#FAF1F5"/>
<path fill-rule="evenodd" clip-rule="evenodd" d="M180.142 282.561C180.112 282.554 180.081 282.546 180.051 282.539C177.706 281.94 175.518 281.005 173.514 279.72C173.475 279.695 173.436 279.669 173.397 279.643C171.242 278.168 169.528 276.242 168.268 273.94C168.254 273.915 168.24 273.889 168.227 273.863C166.918 271.365 166.37 268.559 166.37 265.62C166.37 263.621 166.651 261.676 167.3 259.847C167.31 259.821 167.319 259.795 167.329 259.769C167.967 258.067 168.875 256.516 170.063 255.154C169.343 253.989 168.791 252.739 168.412 251.414L172.924 250.125C173.122 250.819 173.389 251.483 173.726 252.115C173.933 252.505 174.166 252.882 174.425 253.248C175.106 254.169 175.987 254.97 177.068 255.651C175.786 256.251 174.685 257.052 173.764 258.053C173.579 258.256 173.402 258.465 173.234 258.682C172.605 259.494 172.101 260.405 171.722 261.416C171.282 262.657 171.062 264.059 171.062 265.62C171.062 267.983 171.502 270.005 172.383 271.686C173.304 273.368 174.525 274.729 176.047 275.77C177.608 276.771 179.33 277.512 181.212 277.992C183.093 278.433 185.035 278.653 187.037 278.653C189.039 278.653 190.981 278.433 192.863 277.992C194.785 277.512 196.527 276.771 198.088 275.77C199.65 274.729 200.891 273.388 201.812 271.746C202.733 270.105 203.193 268.103 203.193 265.74C203.193 264.099 202.953 262.617 202.472 261.296C202.106 260.288 201.611 259.385 200.988 258.587C200.795 258.339 200.589 258.101 200.37 257.873C199.449 256.912 198.348 256.151 197.067 255.591C198.148 254.95 199.029 254.169 199.71 253.248C200.006 252.87 200.268 252.478 200.496 252.073C200.824 251.492 201.082 250.882 201.271 250.245C201.632 249.124 201.812 248.023 201.812 246.942C201.812 244.82 201.391 243.018 200.551 241.537C199.71 240.015 198.589 238.794 197.187 237.873C195.786 236.912 194.224 236.232 192.503 235.831C190.781 235.391 188.999 235.171 187.157 235.171C185.356 235.171 183.574 235.391 181.812 235.831C180.05 236.232 178.469 236.892 177.068 237.813C175.666 238.694 174.545 239.875 173.704 241.357C172.863 242.798 172.443 244.58 172.443 246.702C172.443 247.863 172.603 249.004 172.924 250.125L168.412 251.414C167.972 249.876 167.751 248.301 167.751 246.702C167.751 243.981 168.289 241.34 169.637 239.017C170.84 236.906 172.479 235.165 174.53 233.866C176.411 232.637 178.49 231.78 180.722 231.267C182.838 230.742 184.986 230.479 187.157 230.479C189.36 230.479 191.517 230.74 193.616 231.273C195.85 231.799 197.925 232.697 199.803 233.978C201.839 235.325 203.458 237.106 204.645 239.245C205.335 240.467 205.812 241.771 206.11 243.128C205.611 244.268 205.27 245.54 205.085 246.942C205.049 247.217 205.019 247.498 204.995 247.783H206.479C206.404 249.087 206.154 250.373 205.754 251.631C205.386 252.857 204.851 254.005 204.166 255.07C205.359 256.427 206.26 257.983 206.882 259.693C207.578 261.606 207.885 263.642 207.885 265.74C207.885 266.727 207.821 267.699 207.684 268.65L204.755 271.086V275.819C203.638 277.325 202.278 278.616 200.691 279.674C200.667 279.69 200.644 279.705 200.62 279.72C198.601 281.015 196.383 281.949 194.001 282.544L193.932 282.561C191.688 283.086 189.386 283.345 187.037 283.345C184.688 283.345 182.387 283.086 180.142 282.561ZM183.734 243.279C182.853 243.679 182.153 244.259 181.632 245.02C181.152 245.781 180.911 246.702 180.911 247.783C180.911 248.864 181.172 249.805 181.692 250.606C182.213 251.406 182.933 252.027 183.854 252.467C184.815 252.868 185.916 253.068 187.157 253.068C188.439 253.068 189.52 252.868 190.401 252.467C191.321 252.027 192.022 251.426 192.503 250.666C193.023 249.865 193.283 248.984 193.283 248.023C193.283 246.822 193.023 245.841 192.503 245.08C191.982 244.279 191.241 243.679 190.28 243.279C189.36 242.838 188.259 242.618 186.977 242.618C185.736 242.618 184.655 242.838 183.734 243.279ZM183.254 260.275C182.133 260.676 181.252 261.296 180.611 262.137C179.97 262.938 179.65 263.979 179.65 265.26C179.65 266.301 179.87 267.182 180.311 267.903C180.751 268.583 181.312 269.164 181.992 269.644C182.713 270.085 183.514 270.405 184.395 270.605C185.276 270.805 186.176 270.905 187.097 270.905C187.978 270.905 188.859 270.805 189.74 270.605C190.621 270.405 191.422 270.085 192.142 269.644C192.863 269.164 193.424 268.583 193.824 267.903C194.264 267.182 194.485 266.301 194.485 265.26C194.485 263.979 194.164 262.938 193.524 262.137C192.883 261.296 192.002 260.676 190.881 260.275C189.8 259.835 188.539 259.614 187.097 259.614C185.696 259.614 184.415 259.835 183.254 260.275ZM189.61 265.691C189.717 265.611 189.759 265.556 189.774 265.534C189.781 265.49 189.793 265.402 189.793 265.26C189.793 265.111 189.781 265.013 189.772 264.957C189.729 264.907 189.614 264.805 189.303 264.694C189.238 264.671 189.174 264.646 189.111 264.62C188.707 264.456 188.07 264.307 187.097 264.307C186.192 264.307 185.483 264.448 184.918 264.662C184.889 264.673 184.86 264.684 184.832 264.694C184.521 264.805 184.406 264.907 184.363 264.957C184.353 265.013 184.342 265.111 184.342 265.26C184.342 265.371 184.349 265.449 184.356 265.498C184.419 265.575 184.492 265.649 184.58 265.721C184.811 265.844 185.089 265.951 185.435 266.03C185.968 266.151 186.52 266.213 187.097 266.213C187.62 266.213 188.152 266.154 188.7 266.03C189.073 265.945 189.368 265.827 189.61 265.691ZM188.425 248.211C188.497 248.173 188.536 248.145 188.554 248.132L188.569 248.109C188.581 248.089 188.587 248.078 188.588 248.074C188.588 248.074 188.589 248.073 188.589 248.072C188.589 248.067 188.591 248.051 188.591 248.023C188.591 247.84 188.578 247.72 188.566 247.652C188.546 247.641 188.517 247.627 188.476 247.61C188.402 247.579 188.328 247.546 188.256 247.511C188.107 247.44 187.732 247.31 186.977 247.31C186.288 247.31 185.926 247.431 185.759 247.511C185.731 247.525 185.703 247.537 185.676 247.55C185.651 247.561 185.63 247.571 185.613 247.581C185.608 247.631 185.603 247.698 185.603 247.783C185.603 247.946 185.623 248.026 185.629 248.049C185.63 248.052 185.63 248.054 185.631 248.056C185.647 248.08 185.679 248.123 185.78 248.183C186.075 248.286 186.514 248.376 187.157 248.376C187.904 248.376 188.283 248.267 188.425 248.211Z" fill="#FAF1F5"/>
<path d="M279.969 255.829H294.299V259.32H279.969V255.829ZM281.771 265.344H292.441V268.582H281.771V265.344ZM281.771 269.821H292.441V273.058H281.771V269.821ZM285.262 252.197H288.893V278.689H285.262V252.197ZM290.414 260.727H293.961V275.17C293.961 276.634 293.792 277.591 292.919 278.182C292.075 278.773 291.089 278.858 289.766 278.858C289.682 277.872 289.259 276.324 288.809 275.395C289.316 275.423 289.907 275.423 290.104 275.423C290.329 275.423 290.414 275.339 290.414 275.085V260.727ZM280.307 260.727H292.441V264.134H283.798V278.858H280.307V260.727ZM288.978 253.971L291.371 252.197C292.328 252.901 293.567 253.943 294.158 254.703L291.652 256.674C291.117 255.885 289.935 254.759 288.978 253.971ZM269.271 269.398H279.378V278.464H275.69V272.664H272.79V279.027H269.271V269.398ZM272.481 258.588H276.169V266.442H272.481V258.588ZM269.496 260.756H279.153V263.824H269.496V260.756ZM268.652 265.204H279.688V268.469H268.652V265.204ZM270.566 274.269H277.689V277.563H270.566V274.269ZM272.058 252.225H274.282V252.957H275.465V254.055C274.339 256.082 272.706 258.841 269.975 261.347C269.412 260.502 268.201 259.179 267.413 258.616C269.665 256.758 271.186 254.309 272.058 252.225ZM272.762 252.225H275.465C277.154 253.661 279.265 255.716 280.279 257.265L277.773 260.39C276.929 258.869 274.958 256.308 273.381 255.013H272.762V252.225Z" fill="#E5005A"/>
<path d="M255.111 261.769H265.781V265.344H255.111V261.769ZM249.424 274.409H262.121V277.985H249.424V274.409ZM253.168 259.517H257.335V270.046H253.168V259.517ZM247.284 267.878H264.289V278.942H260.094V271.453H251.282V278.942H247.284V267.878ZM251.901 252.225H256.181V257.546H251.901V252.225ZM243.991 255.322H266.175V259.207H243.991V255.322ZM241.992 255.322H246.102V262.332C246.102 267.033 245.623 274.381 243.005 278.886C242.245 278.21 240.415 276.999 239.458 276.577C241.823 272.523 241.992 266.47 241.992 262.332V255.322Z" fill="#E5005A"/>
<path fill-rule="evenodd" clip-rule="evenodd" d="M276.277 252.934C276.042 252.724 275.811 252.521 275.587 252.329C275.546 252.294 275.506 252.259 275.466 252.225H272.059C271.959 252.465 271.85 252.709 271.732 252.957C271.561 253.318 271.372 253.685 271.164 254.055C271.157 254.066 271.151 254.078 271.145 254.089C270.971 254.396 270.785 254.705 270.585 255.012C270.568 255.04 270.55 255.067 270.532 255.094C270.457 255.209 270.379 255.324 270.3 255.439C270.155 255.648 270.005 255.857 269.847 256.063C269.734 256.213 269.617 256.361 269.497 256.509C269.252 256.81 268.993 257.106 268.72 257.394C268.429 257.702 268.122 258 267.799 258.287C267.683 258.389 267.566 258.49 267.446 258.589C267.435 258.598 267.425 258.607 267.414 258.616C267.473 258.658 267.534 258.704 267.597 258.754C267.66 258.804 267.724 258.857 267.789 258.913C268.286 259.338 268.865 259.943 269.341 260.512C269.394 260.576 269.447 260.64 269.497 260.703C269.512 260.72 269.526 260.738 269.54 260.756H269.497V263.824H272.481V265.204H268.653V268.469H279.688V265.204H276.169V263.824H279.154V260.756H276.169V258.588H272.526C272.606 258.486 272.685 258.384 272.763 258.282C272.896 258.108 273.026 257.934 273.151 257.76C273.203 257.689 273.254 257.618 273.304 257.547C273.33 257.51 273.356 257.474 273.382 257.437C273.497 257.274 273.608 257.112 273.716 256.952C273.724 256.94 273.731 256.929 273.739 256.917C273.93 256.632 274.111 256.351 274.283 256.076C274.286 256.072 274.289 256.068 274.291 256.063C274.319 256.02 274.346 255.976 274.373 255.933C274.415 255.976 274.457 256.019 274.499 256.063C274.63 256.2 274.761 256.34 274.891 256.485C274.95 256.549 275.008 256.615 275.066 256.681C275.135 256.759 275.204 256.838 275.273 256.917C275.274 256.92 275.276 256.922 275.278 256.924C275.341 256.997 275.403 257.071 275.466 257.145C275.707 257.432 275.943 257.726 276.169 258.019C276.224 258.091 276.279 258.162 276.333 258.233C276.422 258.352 276.51 258.47 276.596 258.588C276.731 258.772 276.86 258.954 276.982 259.132C277.026 259.195 277.068 259.258 277.11 259.32C277.113 259.324 277.116 259.329 277.119 259.333C277.137 259.361 277.156 259.388 277.174 259.415C277.267 259.555 277.355 259.691 277.438 259.823C277.563 260.024 277.676 260.214 277.774 260.39L279.97 257.651V259.32H285.263V260.727H280.308V278.858H283.799V273.058H285.263V278.689H288.894V275.577C289.166 276.188 289.42 277.002 289.586 277.75C289.66 278.084 289.717 278.405 289.75 278.689C289.757 278.747 289.762 278.803 289.767 278.858C289.882 278.858 289.995 278.857 290.105 278.855C290.731 278.847 291.279 278.808 291.772 278.689C291.778 278.687 291.785 278.686 291.791 278.684C292.2 278.583 292.572 278.426 292.92 278.182C293.15 278.026 293.331 277.845 293.473 277.637C293.514 277.576 293.552 277.513 293.586 277.448C293.814 277.022 293.911 276.494 293.946 275.847C293.957 275.634 293.962 275.409 293.962 275.17V260.727H288.894V259.32H294.3V255.829H292.727L294.159 254.703C294.15 254.691 294.14 254.679 294.131 254.667C294.12 254.654 294.11 254.641 294.099 254.628C293.956 254.452 293.782 254.263 293.586 254.067C292.946 253.427 292.081 252.719 291.372 252.197L288.979 253.971C289.193 254.147 289.419 254.341 289.646 254.544C289.677 254.572 289.708 254.6 289.74 254.628C289.811 254.693 289.883 254.758 289.955 254.824C290.311 255.154 290.66 255.499 290.964 255.829H288.894V252.197H285.263V255.829H279.97V256.821C279.848 256.656 279.717 256.487 279.578 256.315C279.525 256.251 279.471 256.185 279.417 256.12C279.402 256.103 279.388 256.086 279.373 256.069C279.307 255.989 279.238 255.909 279.168 255.829C278.67 255.256 278.101 254.664 277.514 254.091C277.502 254.079 277.489 254.067 277.477 254.055C277.47 254.048 277.462 254.041 277.455 254.034C277.073 253.662 276.683 253.3 276.302 252.957C276.294 252.95 276.285 252.942 276.277 252.934ZM271.477 259.832C271.272 260.059 271.059 260.286 270.838 260.512C270.759 260.593 270.678 260.674 270.596 260.756H272.481V258.644C272.353 258.807 272.221 258.969 272.085 259.132C271.959 259.282 271.831 259.433 271.699 259.583C271.644 259.645 271.59 259.707 271.534 259.769C271.515 259.79 271.496 259.811 271.477 259.832ZM298.851 254.684C298.848 253.682 298.525 252.674 297.863 251.822C296.848 250.518 295.159 249.158 294.151 248.417C292.972 247.55 291.488 247.301 290.135 247.671C289.74 247.563 289.324 247.505 288.894 247.505H285.263C283.179 247.505 281.413 248.863 280.801 250.742C279.99 249.951 279.186 249.23 278.504 248.65C277.656 247.929 276.579 247.533 275.466 247.533H272.059C270.168 247.533 268.462 248.668 267.731 250.412C267.074 251.982 265.954 253.738 264.428 254.997C264.303 255.1 264.185 255.208 264.072 255.322H266.175V259.207H262.759C262.881 260.166 263.296 261.06 263.939 261.769H265.781V265.344H263.961V267.878H264.289V270.197C264.372 270.406 264.469 270.608 264.58 270.801V279.027C264.58 281.618 266.681 283.719 269.272 283.719H272.791C273.627 283.719 274.411 283.5 275.091 283.118C275.287 283.143 275.487 283.156 275.691 283.156H278.423C279 283.409 279.637 283.55 280.308 283.55H283.799C284.238 283.55 284.663 283.489 285.065 283.377C285.131 283.379 285.197 283.381 285.263 283.381H288.516C288.915 283.491 289.335 283.55 289.767 283.55C291.079 283.55 293.424 283.542 295.582 282.046C298.628 279.961 298.654 276.592 298.654 275.17V261.071C298.872 260.53 298.992 259.939 298.992 259.32V255.829C298.992 255.434 298.943 255.051 298.851 254.684ZM279.379 278.463V269.398H269.272V279.027H272.791V277.563H275.691V278.463H279.379ZM272.791 272.664V274.269H275.691V272.664H272.791ZM285.263 269.821V268.582H283.799V269.821H285.263ZM288.894 275.399C289.017 275.405 289.144 275.41 289.267 275.413C289.299 275.414 289.33 275.415 289.362 275.415C289.508 275.419 289.647 275.421 289.767 275.422C289.837 275.422 289.9 275.423 289.955 275.423C290.017 275.423 290.068 275.423 290.105 275.423C290.303 275.423 290.392 275.358 290.411 275.17C290.413 275.144 290.415 275.116 290.415 275.085V273.058H288.894V275.399ZM290.415 269.821H288.894V268.582H290.415V269.821ZM290.415 265.344V264.134H288.894V265.344H290.415ZM283.799 264.134V265.344H285.263V264.134H283.799Z" fill="#FAF1F5"/>
<path fill-rule="evenodd" clip-rule="evenodd" d="M246.102 259.207V262.332C246.102 262.655 246.1 262.991 246.095 263.338C246.092 263.522 246.089 263.709 246.084 263.899C246.056 265.133 245.991 266.484 245.867 267.878C245.739 269.305 245.55 270.777 245.276 272.216C245.138 272.935 244.979 273.646 244.796 274.339C244.789 274.363 244.783 274.386 244.777 274.409C244.762 274.465 244.747 274.52 244.732 274.575C244.319 276.079 243.788 277.49 243.108 278.706C243.074 278.766 243.04 278.826 243.005 278.886C242.89 278.783 242.75 278.668 242.593 278.546C242.291 278.312 241.923 278.049 241.538 277.791C240.798 277.294 239.992 276.813 239.458 276.577C239.941 275.749 240.332 274.838 240.649 273.877C241.75 270.54 241.955 266.6 241.987 263.451C241.991 263.065 241.992 262.691 241.992 262.332V255.322H251.902V252.225H256.181V255.322H266.175V259.207H246.102ZM257.335 259.517H253.168V267.878H247.285V278.942H251.282V277.985H260.094V278.942H264.289V267.878H257.335V265.344H265.781V261.769H257.335V259.517ZM268.652 268.469H269.281C269.186 268.576 269.085 268.678 268.981 268.776V278.942C268.981 281.533 266.88 283.634 264.289 283.634H260.094C259.026 283.634 258.042 283.277 257.253 282.677H254.123C253.334 283.277 252.35 283.634 251.282 283.634H247.285C246.491 283.634 245.744 283.437 245.089 283.09C244.671 283.297 244.219 283.443 243.747 283.519C242.357 283.741 240.94 283.328 239.888 282.393C239.763 282.281 239.338 281.956 238.736 281.562C238.461 281.382 238.195 281.218 237.965 281.086C237.851 281.02 237.756 280.967 237.68 280.928C237.643 280.908 237.614 280.894 237.593 280.884C237.573 280.874 237.564 280.87 237.564 280.87C236.341 280.331 235.407 279.296 234.995 278.025C234.583 276.754 234.732 275.367 235.405 274.213C236.139 272.956 236.66 271.13 236.961 268.867C237.256 266.652 237.3 264.361 237.3 262.332V255.322C237.3 252.731 239.401 250.63 241.992 250.63H247.488C248.141 248.824 249.87 247.533 251.902 247.533H256.181C258.212 247.533 259.942 248.824 260.595 250.63H266.175C268.535 250.63 270.489 252.373 270.818 254.642C270.679 254.869 270.533 255.096 270.379 255.322C269.794 256.185 269.105 257.034 268.306 257.814C268.022 258.091 267.725 258.359 267.414 258.616C267.624 258.766 267.865 258.971 268.116 259.207C268.604 259.665 269.128 260.24 269.539 260.755H269.497V263.824H270.473V265.204H268.652V268.469ZM270.611 260.74C270.606 260.745 270.601 260.75 270.596 260.755H270.606C270.607 260.75 270.609 260.745 270.611 260.74ZM251.282 271.453V274.409H260.094V271.453H251.282Z" fill="#FAF1F5"/>
<path d="M44.874 202.161C44.874 189.204 55.3776 178.701 68.3344 178.701H278.54C291.497 178.701 302 189.204 302 202.161V202.161C302 215.118 291.497 225.622 278.54 225.622H68.3344C55.3776 225.622 44.874 215.118 44.874 202.161V202.161Z" fill="#E5005A"/>
<path d="M246.321 235.006C246.321 235.006 248.198 232.513 249.24 230.46C250.283 228.407 251.326 225.621 251.326 225.621L243.818 225.621C243.818 225.621 244.861 226.941 245.487 229.434C246.112 231.926 246.321 235.006 246.321 235.006Z" fill="#E5005A"/>
<path d="M273.462 204.273L272.852 196.343L272.711 192.613H276.91L276.769 196.343L276.159 204.273H273.462ZM274.799 210.935C273.368 210.935 272.335 209.786 272.335 208.331C272.335 206.877 273.368 205.751 274.799 205.751C276.253 205.751 277.286 206.877 277.286 208.331C277.286 209.786 276.253 210.935 274.799 210.935Z" fill="white"/>
<path d="M258.804 191.604C258.57 192.589 258.452 193.293 258.335 193.95C258.053 195.615 256.927 203.662 256.927 205.938C256.927 207.698 258.053 208.542 260.141 208.542C263.262 208.542 264.787 207.064 264.787 205.422C264.787 203.827 263.895 202.442 262.464 201.011L266.452 200.167C267.977 202.231 268.658 203.897 268.658 205.891C268.658 209.457 265.443 212.249 260.024 212.249C256.036 212.249 253.408 210.536 253.408 206.548C253.408 204.202 254.534 197 254.769 193.715C254.863 192.472 254.863 191.979 254.816 191.393L258.804 191.604ZM249.96 194.396C252.048 195.099 255.004 195.404 257.561 195.404C259.391 195.404 261.08 195.264 262.136 195.076L262.018 198.454C260.681 198.595 259.438 198.689 257.443 198.689C254.91 198.689 252.024 198.29 249.795 197.657L249.96 194.396ZM249.49 200.214C252.165 201.105 254.863 201.293 257.35 201.293C258.687 201.293 260.493 201.176 261.948 201.011L261.854 204.366C260.704 204.483 259.367 204.577 257.96 204.577C254.511 204.577 251.438 204.202 249.303 203.639L249.49 200.214Z" fill="white"/>
<path d="M232.494 208.261C232.494 206.196 232.494 196.859 232.494 194.865C232.494 193.927 232.4 192.707 232.212 191.815H236.646C236.553 192.707 236.412 193.739 236.412 194.865C236.412 196.859 236.412 206.173 236.412 208.261C236.412 208.894 236.553 210.748 236.67 211.803H232.212C232.377 210.795 232.494 209.223 232.494 208.261ZM235.567 197.845C238.711 198.689 243.943 200.566 246.101 201.622L244.482 205.586C241.831 204.226 238.124 202.818 235.567 201.95V197.845Z" fill="white"/>
<path d="M211.319 192.402C212.938 193.504 216.011 195.944 217.419 197.446L214.509 200.425C213.266 199.064 210.31 196.484 208.621 195.287L211.319 192.402ZM207.847 207.979C211.295 207.51 214.322 206.454 216.621 205.117C220.844 202.677 224.011 199.041 225.583 195.733L227.788 199.745C225.911 203.076 222.58 206.337 218.662 208.636C216.269 210.044 213.219 211.264 210.263 211.733L207.847 207.979Z" fill="white"/>
<path d="M200.053 194.138C200.757 195.193 201.742 196.859 202.258 197.915L199.748 198.994C198.997 197.375 198.528 196.437 197.613 195.146L200.053 194.138ZM203.267 192.8C203.994 193.809 205.027 195.428 205.543 196.46L203.103 197.633C202.282 196.014 201.766 195.146 200.851 193.903L203.267 192.8ZM183.771 203.639C184.522 203.029 185.085 202.489 185.859 201.715C186.892 200.683 188.604 198.548 190.293 196.53C191.771 194.771 193.32 194.513 195.267 196.343C196.933 197.915 198.598 199.651 200.03 201.199C201.601 202.888 204.041 205.492 205.848 207.416L202.704 210.794C201.179 208.894 199.255 206.454 197.942 204.882C196.557 203.217 194.54 200.965 193.766 200.167C193.085 199.487 192.569 199.51 191.983 200.284C191.162 201.363 189.684 203.522 188.792 204.789C188.229 205.61 187.642 206.501 187.197 207.182L183.771 203.639Z" fill="white"/>
<path d="M162.914 201.129C167.183 200.05 170.538 198.595 173.166 197C175.535 195.545 178.397 193.012 179.875 191.229L182.949 194.161C180.72 196.343 177.647 198.689 174.878 200.308C172.18 201.88 168.333 203.663 164.673 204.718L162.914 201.129ZM172.603 198.83L176.685 197.938V208.425C176.685 209.551 176.732 211.17 176.919 211.827H172.415C172.509 211.193 172.603 209.551 172.603 208.425V198.83Z" fill="white"/>
<path d="M147.788 197.023H160.785V199.651H147.788V197.023ZM147.343 200.308H161.513V203.029H147.343V200.308ZM150.299 203.592H158.134V206.008H150.299V203.592ZM148.305 194.747L150.862 194.044C151.19 194.865 151.636 195.991 151.847 196.671L149.149 197.516C148.985 196.812 148.61 195.616 148.305 194.747ZM152.316 194.372L154.944 193.903C155.178 194.771 155.437 195.944 155.53 196.648L152.739 197.234C152.692 196.507 152.504 195.287 152.316 194.372ZM159.19 190.642L161.067 193.129C157.29 193.879 152.246 194.184 148 194.231C147.929 193.504 147.577 192.401 147.272 191.721C151.448 191.604 156.164 191.252 159.19 190.642ZM153.161 205.516C154.733 207.932 157.923 209.504 162.146 210.091C161.466 210.747 160.598 212.014 160.176 212.859C155.601 211.921 152.457 209.762 150.463 206.313L153.161 205.516ZM157.595 193.363L160.715 194.231C159.824 195.639 158.885 197.117 158.158 198.055L155.835 197.258C156.469 196.179 157.22 194.56 157.595 193.363ZM157.478 203.592H158.088L158.627 203.522L160.457 204.225C159.167 209.316 155.859 211.756 151.425 212.882C151.096 212.179 150.181 210.912 149.618 210.372C153.724 209.598 156.539 207.768 157.478 204.014V203.592ZM150.416 198.665H153.677C153.349 203.827 152.621 209.41 147.46 212.765C147.014 211.967 146.099 210.888 145.302 210.302C149.876 207.533 150.158 202.794 150.416 198.665ZM139.437 202.865C141.337 202.489 144.152 201.809 146.803 201.129L147.225 204.179C144.739 204.882 142.088 205.586 139.906 206.173L139.437 202.865ZM139.788 194.841H146.991V197.962H139.788V194.841ZM141.994 190.572H145.114V209.34C145.114 210.818 144.879 211.686 144.082 212.202C143.284 212.742 142.205 212.859 140.656 212.859C140.586 212.014 140.211 210.607 139.812 209.692C140.563 209.739 141.337 209.739 141.618 209.715C141.9 209.715 141.994 209.645 141.994 209.34V190.572Z" fill="white"/>
<path d="M125.665 200.753H129.043V208.401C129.043 209.293 129.137 209.387 129.653 209.387C129.888 209.387 130.615 209.387 130.873 209.387C131.436 209.387 131.553 208.847 131.647 205.75C132.328 206.313 133.759 206.877 134.627 207.111C134.345 211.217 133.524 212.413 131.201 212.413C130.685 212.413 129.559 212.413 129.067 212.413C126.322 212.413 125.665 211.404 125.665 208.425V200.753ZM122.24 202.443L125.313 203.099C125.102 205.891 124.75 208.988 123.765 210.912L120.738 209.574C121.63 207.768 122.052 205.14 122.24 202.443ZM125.712 198.243L127.987 195.991C129.864 196.859 132.492 198.29 133.829 199.393L131.366 201.926C130.216 200.824 127.659 199.228 125.712 198.243ZM132.703 202.912L135.753 201.739C137.067 204.202 138.38 207.322 138.732 209.504L135.377 210.865C135.119 208.753 133.97 205.469 132.703 202.912ZM126.251 190.548H129.817V194.982H126.251V190.548ZM119.589 193.129H138.075V196.366H119.589V193.129ZM117.993 193.129H121.418V198.97C121.418 202.888 121.02 209.011 118.838 212.765C118.204 212.202 116.679 211.193 115.882 210.841C117.853 207.463 117.993 202.419 117.993 198.97V193.129Z" fill="white"/>
<path d="M98.0988 199.088H114.896V201.41H98.0988V199.088ZM99.3187 196.179H112.902V204.366H99.0138V202.138H109.688V198.407H99.3187V196.179ZM103.917 195.006H107.178V209.645C107.178 211.217 106.85 211.944 105.841 212.39C104.832 212.835 103.448 212.882 101.501 212.882C101.36 212.061 100.938 210.841 100.515 210.044C101.594 210.114 103.002 210.114 103.377 210.091C103.776 210.091 103.917 209.973 103.917 209.621V195.006ZM97.7469 205.891L99.5768 204.061C100.703 204.554 102.181 205.375 102.955 206.009L101.008 208.003C100.328 207.369 98.873 206.454 97.7469 205.891ZM111.659 204.272L114.169 206.29C112.644 207.205 111.002 208.12 109.735 208.66L107.835 206.97C109.031 206.313 110.697 205.14 111.659 204.272ZM107.671 203.709C108.797 206.595 111.096 208.847 114.568 209.833C113.864 210.466 112.949 211.733 112.504 212.577C108.75 211.146 106.498 208.261 105.137 204.296L107.671 203.709ZM96.9258 209.316C98.4507 208.847 100.726 207.979 102.932 207.111L103.542 209.551C101.852 210.419 100.023 211.287 98.4976 212.014L96.9258 209.316ZM102.791 190.548H106.357V194.044H102.791V190.548ZM96.1281 192.472H114.615V195.428H96.1281V192.472ZM94.5328 192.472H97.7704V199.228C97.7704 203.17 97.395 209.223 95.1897 212.929C94.6032 212.366 93.1721 211.404 92.4214 211.076C94.3921 207.721 94.5328 202.748 94.5328 199.228V192.472Z" fill="white"/>
<path d="M83.5775 190.712H86.6508V209.082H83.5775V190.712ZM79.4484 195.428H91.5071V197.844H79.4484V195.428ZM80.1757 204.835H91.0613V207.252H80.1757V204.835ZM80.6918 201.645H90.5217V204.061H80.6918V201.645ZM74.9675 192.401H78.1581V195.099H74.9675V192.401ZM76.3517 198.759H78.6977V201.176H76.3517V198.759ZM77.3839 192.401H77.7593L78.2285 192.284L80.3399 192.824C79.4015 195.615 77.947 199.181 76.7036 202.067L73.9352 201.434C75.2021 198.572 76.6801 194.747 77.3839 192.706V192.401ZM77.8766 198.759H78.4162L78.9323 198.712L80.7153 198.994C80.3165 205.68 78.8854 210.231 75.5775 212.812C75.2021 212.061 74.3575 210.841 73.7241 210.255C76.3047 208.472 77.5951 204.202 77.8766 199.228V198.759ZM76.5159 202.396C77.7827 208.472 80.8326 209.574 85.0555 209.598C86.3223 209.598 90.2402 209.598 91.7652 209.528C91.3194 210.255 90.8737 211.686 90.7094 212.577H84.8678C79.2608 212.577 75.7417 210.982 73.9587 203.123L76.5159 202.396ZM80.9264 192.378H90.4748V200.941H80.9264V198.525H87.6361V194.794H80.9264V192.378ZM72.7388 190.595L75.7652 191.51C74.5217 195.428 72.4807 199.815 70.205 202.56C69.9939 201.739 69.2432 199.721 68.7505 198.83C70.3927 196.789 71.8707 193.692 72.7388 190.595ZM71.1669 197.844L74.076 194.935L74.1229 194.982V212.812H71.1669V197.844Z" fill="white"/>
</svg>
