<svg width="160" height="136" viewBox="0 0 160 136" fill="none" xmlns="http://www.w3.org/2000/svg">
<circle cx="80.1763" cy="68" r="68" fill="#F5ECF0"/>
<path d="M9.33496 83.0139V41.4061C9.33496 40.9646 9.57055 40.5565 9.95332 40.3359L19.8467 34.6285C20.2295 34.4076 20.7007 34.4076 21.0834 34.6285L22.0301 35.1746C22.4126 35.3952 22.8816 35.3968 23.2641 35.1762C33.2709 29.4073 58.3169 14.9571 65.5631 10.7785C65.9455 10.5579 66.4149 10.5592 66.7976 10.7798L90.2092 24.2849C90.592 24.5058 90.8276 24.9108 90.8276 25.3523C90.8276 37.6309 90.8276 52.5862 90.8276 64.9956C90.8276 65.437 90.5895 65.8436 90.2071 66.0645C70.3046 77.5458 54.5127 86.6558 34.6088 98.1372C34.226 98.3577 33.7523 98.3593 33.3699 98.1384L9.95332 84.6299C9.57055 84.409 9.33496 84.0012 9.33496 83.5597V83.0139Z" fill="white"/>
<path d="M45.1152 53.5361C52.1265 49.4913 83.8157 31.2104 90.827 27.1656V54.8036C74.0302 64.4935 62.4521 71.1728 45.1152 81.1741V53.5361Z" fill="#E2E2E2"/>
<path d="M90.8285 57.326V65.7058C87.3259 67.7263 83.8889 69.7091 80.4937 71.6678V63.288C83.7665 61.4 87.175 59.4336 90.8285 57.326Z" fill="#64C7FF"/>
<path d="M78.3071 64.5488C78.3071 68.0198 78.3071 69.4601 78.3071 72.9286C75.2004 74.7208 72.1242 76.4954 69.0635 78.2613V69.8815C72.1112 68.1233 75.1589 66.3651 78.3071 64.5488Z" fill="#64C7FF"/>
<path d="M66.8777 71.1422V79.522C63.7929 81.3016 60.7189 83.0749 57.6362 84.8535V76.4737C60.8107 74.6422 63.8585 72.884 66.8777 71.1422Z" fill="#64C7FF"/>
<path d="M55.4501 77.7349V86.1147C52.0263 88.0898 48.5893 90.0726 45.1152 92.0767V83.6969C48.7838 81.5806 52.1945 79.6129 55.4501 77.7349Z" fill="#64C7FF"/>
<path d="M9.95303 83.0139V41.782C9.95303 41.6581 9.94375 41.5306 9.95303 41.407C9.98889 40.9288 10.4493 40.7632 10.8132 40.5531C13.8499 38.8012 16.8867 37.0492 19.9234 35.2976C20.0344 35.2336 20.1531 35.1478 20.2771 35.1098C20.7174 34.9748 21.2489 35.4437 21.6097 35.6458C22.2917 36.0279 22.9812 36.0406 23.6673 35.6572C24.0661 35.4341 24.4594 35.2006 24.8551 34.9723C26.8147 33.8425 28.7743 32.7125 30.7335 31.5824C35.6241 28.7619 40.5144 25.9408 45.405 23.1196C50.0862 20.4193 54.7672 17.7189 59.4485 15.0186C61.1462 14.0393 62.8442 13.06 64.5419 12.0807C65.0424 11.7918 65.9227 11.0448 66.4971 11.3198C66.6876 11.4109 66.8687 11.5342 67.0515 11.6395C69.8025 13.2265 72.5533 14.8134 75.3044 16.4001C78.863 18.4529 82.4217 20.5058 85.9806 22.5586L89.2662 24.4539C89.4684 24.5707 89.6821 24.6772 89.8769 24.8061C90.2847 25.0758 90.2095 25.4879 90.2095 25.9272C90.2095 26.8299 90.2095 27.7322 90.2095 28.6349C90.2095 36.4616 90.2095 44.2884 90.2095 52.1148C90.2095 55.9461 90.2095 59.7774 90.2095 63.6088C90.2095 64.045 90.2306 64.4871 90.2095 64.9227C90.1882 65.3638 89.9563 65.4954 89.593 65.7049C88.647 66.2507 87.7006 66.7966 86.7545 67.3425C84.935 68.3922 83.1158 69.4417 81.2962 70.4914C74.3994 74.4701 67.5023 78.4488 60.6054 82.4275C53.6421 86.4442 46.6791 90.4609 39.7158 94.4776C38.8083 95.0012 37.9006 95.5245 36.9932 96.0482C36.5458 96.3061 36.0984 96.5644 35.651 96.8224C35.4009 96.9666 35.1504 97.1112 34.9003 97.2555C34.6728 97.3868 34.4316 97.5795 34.1781 97.6558C33.8541 97.7532 33.5968 97.5554 33.3337 97.4038L30.4398 95.7343C26.9523 93.7223 23.4644 91.7105 19.9769 89.6985C17.0484 88.0089 14.1198 86.3194 11.191 84.6302C10.9229 84.4754 10.6542 84.3215 10.3868 84.1662C10.3472 84.1433 10.3049 84.1226 10.2668 84.097C9.88284 83.8372 9.95395 83.4216 9.95395 83.0139C9.95303 82.2187 8.71631 82.2171 8.71631 83.0139C8.71631 83.5906 8.71106 84.1408 9.06414 84.6342C9.23233 84.8693 9.44845 85.0472 9.69486 85.1949C9.94128 85.3426 10.1933 85.4825 10.4421 85.6262L13.9733 87.6632C17.6256 89.7701 21.2779 91.8773 24.9306 93.9842C27.5332 95.4856 30.1356 96.987 32.7382 98.4884C33.1321 98.7158 33.5065 98.9203 33.9886 98.9194C34.4863 98.9187 34.8793 98.6945 35.2976 98.4532C35.7976 98.1646 36.2978 97.8764 36.7977 97.5879C37.7346 97.0476 38.6711 96.5072 39.6079 95.9669C43.2361 93.8739 46.8643 91.7813 50.4925 89.6883C57.4033 85.7018 64.314 81.7154 71.2245 77.7287C74.7658 75.6857 78.3068 73.6431 81.8481 71.6002C83.6915 70.5368 85.5348 69.4735 87.3781 68.4102C88.3242 67.8643 89.2706 67.3184 90.2167 66.7725C90.6065 66.5476 90.9608 66.3227 91.193 65.9242C91.4299 65.5183 91.4453 65.0907 91.4453 64.6329C91.4453 56.7255 91.4453 48.8179 91.4453 40.9105C91.4453 36.9924 91.4453 33.0739 91.4453 29.1558C91.4453 28.2244 91.4453 27.2929 91.4453 26.3615C91.4453 25.5104 91.5375 24.612 90.8393 23.9859C90.6319 23.7996 90.3811 23.6711 90.1409 23.5327C87.4742 21.9945 84.8079 20.4563 82.1412 18.9179C78.5047 16.8199 74.8678 14.7223 71.2313 12.6244L67.8087 10.65C67.5863 10.5218 67.3662 10.388 67.1411 10.2648C66.7287 10.0392 66.2692 9.94132 65.803 10.0358C65.3513 10.1276 64.9416 10.4229 64.5465 10.6509C60.7362 12.8483 56.9259 15.0464 53.1159 17.2444C48.0379 20.1737 42.96 23.1029 37.882 26.0322C33.4453 28.5914 29.0086 31.1505 24.5716 33.7088C24.1545 33.9491 23.7374 34.1898 23.3204 34.4301C23.0736 34.5722 22.8182 34.7743 22.5177 34.7072C22.3273 34.6646 22.1458 34.5281 21.9794 34.4323C21.4313 34.1159 20.9196 33.7863 20.2518 33.8635C19.9305 33.9006 19.6532 34.0264 19.3793 34.1842L15.154 36.6217C13.5114 37.5692 11.869 38.5169 10.2263 39.4644C9.69517 39.7709 9.16153 40.0369 8.88976 40.6331C8.73981 40.963 8.71631 41.2979 8.71631 41.6486C8.71631 43.8503 8.71631 46.0523 8.71631 48.2541C8.71631 50.4558 8.71631 56.3662 8.71631 60.4222C8.71631 64.4781 8.71631 68.9211 8.71631 73.1708V83.0139C8.71631 83.809 9.95303 83.8103 9.95303 83.0139Z" fill="#8A8584"/>
<path d="M90.5161 26.6327C89.3532 27.3034 88.1907 27.9741 87.0279 28.6451C84.134 30.3145 81.2401 31.984 78.3462 33.6535C74.6126 35.8073 70.8789 37.9612 67.1453 40.1153L56.128 46.4709C53.3905 48.0502 50.6528 49.6294 47.9153 51.2087L45.6765 52.5C45.0937 52.8361 44.5298 53.103 44.497 53.9109C44.4191 55.82 44.497 57.7487 44.497 59.6591C44.497 63.677 44.497 67.6953 44.497 71.7132C44.497 75.9149 44.497 80.1164 44.497 84.3181V91.7247C44.497 91.8424 44.497 91.9601 44.497 92.0778C44.497 92.873 45.7337 92.8742 45.7337 92.0778C45.7337 90.3432 45.7337 88.6085 45.7337 86.8736V75.0663C45.7337 70.8318 45.7337 66.5973 45.7337 62.3632C45.7337 59.7326 45.7337 57.1018 45.7337 54.4713C45.7337 54.2173 45.641 53.9591 45.8528 53.8256C46.3456 53.5145 46.8666 53.2408 47.3712 52.9498C49.775 51.563 52.1789 50.1762 54.5827 48.7897C58.112 46.7536 61.6416 44.7177 65.1709 42.6816C68.9496 40.5015 72.7287 38.3217 76.5075 36.1416L85.965 30.6856L90.9152 27.8298L91.1406 27.6998C91.8298 27.3022 91.2077 26.2339 90.5164 26.6327H90.5161Z" fill="#8A8584"/>
<path d="M25.1656 37.6971C27.5525 39.0737 29.939 40.4503 32.3259 41.8266L42.7464 47.8365L44.04 48.5826C44.1526 48.6474 44.2747 48.7067 44.3588 48.809C44.6278 49.1359 44.4982 49.7546 44.4982 50.1504V51.0126C44.4982 51.4828 45.0229 51.78 45.4285 51.5461C47.5968 50.2959 49.7648 49.0453 51.9327 47.7948C55.2366 45.889 58.5408 43.9832 61.8447 42.0774C65.5514 39.9393 69.2582 37.8009 72.9646 35.6628C76.3727 33.6968 79.7804 31.7311 83.1885 29.7654C85.5917 28.3789 87.9953 26.9927 90.3985 25.6066C90.5902 25.496 90.7819 25.3854 90.9736 25.2748C91.6628 24.8775 91.0407 23.8092 90.3494 24.2077C88.1224 25.492 85.8957 26.7765 83.669 28.061C80.3348 29.9844 77.0006 31.9075 73.6664 33.8309C69.9581 35.9702 66.2495 38.1092 62.5413 40.2486C59.1601 42.1992 55.7786 44.1494 52.3974 46.1C50.0495 47.4544 47.7013 48.8087 45.3531 50.163C45.1704 50.2684 44.9873 50.374 44.8046 50.4794L45.7349 51.0129C45.7349 50.3039 45.8385 49.5183 45.6935 48.8241C45.5819 48.2909 45.2396 47.8674 44.7824 47.5841C44.5087 47.4148 44.2234 47.2619 43.9448 47.1009C42.5365 46.2888 41.1282 45.4766 39.7199 44.6641C35.989 42.5124 32.2582 40.3604 28.527 38.2087C27.6146 37.6823 26.7019 37.1562 25.7895 36.6298C25.0988 36.2316 24.4755 37.2989 25.1653 37.6968L25.1656 37.6971Z" fill="#8A8584"/>
<path d="M34.6039 98.3033V60.6318C34.6039 58.7733 34.6398 56.9108 34.6039 55.0523C34.603 55.0059 34.6039 54.9596 34.6039 54.9133C34.6039 54.1181 33.3672 54.1168 33.3672 54.9133V93.058C33.3672 94.7781 33.3078 96.5103 33.3672 98.2298C33.3681 98.2542 33.3672 98.2789 33.3672 98.3033C33.3672 99.0985 34.6039 99.0997 34.6039 98.3033Z" fill="#8A8584"/>
<path d="M12.6323 43.3071C14.1142 44.1619 15.5958 45.0167 17.0777 45.8716L25.88 50.9494C28.0879 52.2231 30.2957 53.4968 32.5039 54.7706C32.6764 54.87 32.8477 54.9726 33.0217 55.0693C33.6475 55.4172 34.3339 55.4128 34.9581 55.0659C35.8495 54.5704 36.726 54.0458 37.6093 53.5364L45.1038 49.2123L45.2624 49.1209C45.9516 48.7233 45.3295 47.655 44.6382 48.0538C42.4724 49.3034 40.3069 50.5528 38.1411 51.8024L34.7086 53.7826C34.417 53.9507 34.1023 54.2021 33.7483 54.0594C33.62 54.0078 33.4966 53.9164 33.3776 53.8478C31.3818 52.6964 29.3858 51.545 27.39 50.3937C24.4504 48.6979 21.5107 47.0019 18.5713 45.3062C16.8291 44.3013 15.1061 43.2478 13.3385 42.2877C13.3107 42.2725 13.2835 42.2558 13.2563 42.2401C12.5659 41.8419 11.9426 42.9092 12.6323 43.3071Z" fill="#8A8584"/>
<path d="M45.4276 84.2299C51.5409 80.7032 57.6546 77.1765 63.768 73.6494L80.7036 63.8795C84.1821 61.8727 87.6607 59.8662 91.1393 57.8594C91.8284 57.4619 91.2064 56.3936 90.515 56.7924C84.5303 60.245 78.5458 63.6973 72.5611 67.1499C66.8799 70.4273 61.1987 73.7047 55.5173 76.9821C51.946 79.0424 48.3746 81.1026 44.8033 83.1629C44.1142 83.5605 44.7362 84.6288 45.4276 84.2299Z" fill="#8A8584"/>
<path d="M45.4276 81.7077C51.5409 78.1809 57.6546 74.6542 63.768 71.1271C69.4133 67.8704 75.0583 64.614 80.7036 61.3573L91.1393 55.3372C91.8284 54.9396 91.2064 53.8713 90.515 54.2701C84.5303 57.7227 78.5458 61.175 72.5611 64.6276C66.8799 67.905 61.1987 71.1824 55.5173 74.4599L44.8033 80.6406C44.1142 81.0382 44.7362 82.1065 45.4276 81.7077Z" fill="#8A8584"/>
<path d="M50.21 50.2408V77.8776C50.21 78.6727 51.4467 78.674 51.4467 77.8776V50.2408C51.4467 49.4456 50.21 49.4444 50.21 50.2408Z" fill="#8A8584"/>
<path d="M55.9233 46.9444V74.5812C55.9233 75.3764 57.1601 75.3777 57.1601 74.5812V46.9444C57.1601 46.1493 55.9233 46.148 55.9233 46.9444Z" fill="#8A8584"/>
<path d="M61.6401 43.6484V71.2852C61.6401 72.0803 62.8769 72.0816 62.8769 71.2852V43.6484C62.8769 42.8532 61.6401 42.8519 61.6401 43.6484Z" fill="#8A8584"/>
<path d="M67.3535 40.352V67.9857C67.3535 68.7809 68.5902 68.7821 68.5902 67.9857V40.352C68.5902 39.5568 67.3535 39.5556 67.3535 40.352Z" fill="#8A8584"/>
<path d="M73.0669 37.0557V64.6925C73.0669 65.4877 74.3036 65.4889 74.3036 64.6925V37.0557C74.3036 36.2605 73.0669 36.2593 73.0669 37.0557Z" fill="#8A8584"/>
<path d="M78.7808 33.7593V61.3961C78.7808 62.1913 80.0175 62.1925 80.0175 61.3961V33.7593C80.0175 32.9641 78.7808 32.9629 78.7808 33.7593Z" fill="#8A8584"/>
<path d="M84.4946 30.4662V58.0999C84.4946 58.8951 85.7313 58.8964 85.7313 58.0999V30.4662C85.7313 29.6711 84.4946 29.6698 84.4946 30.4662Z" fill="#8A8584"/>
<path d="M56.0688 86.1147V77.7349C56.0688 76.9397 54.832 76.9384 54.832 77.7349V86.1147C54.832 86.9099 56.0688 86.9112 56.0688 86.1147Z" fill="#8A8584"/>
<path d="M58.2548 84.8538V76.474C58.2548 75.6788 57.0181 75.6776 57.0181 76.474V84.8538C57.0181 85.6491 58.2548 85.6503 58.2548 84.8538Z" fill="#8A8584"/>
<path d="M67.4965 79.5222V71.1424C67.4965 70.3472 66.2598 70.346 66.2598 71.1424V79.5222C66.2598 80.3175 67.4965 80.3187 67.4965 79.5222Z" fill="#8A8584"/>
<path d="M69.6826 78.2614V69.8815C69.6826 69.0863 68.4458 69.0851 68.4458 69.8815V78.2614C68.4458 79.0566 69.6826 79.0578 69.6826 78.2614Z" fill="#8A8584"/>
<path d="M79.8745 63.2883C79.8745 66.0815 79.8745 68.875 79.8745 71.6682C79.8745 72.4634 81.1113 72.4646 81.1113 71.6682C81.1113 68.875 81.1113 66.0815 81.1113 63.2883C81.1113 62.4931 79.8745 62.4919 79.8745 63.2883Z" fill="#8A8584"/>
<path d="M78.9248 72.9303V64.5505C78.9248 63.7553 77.688 63.754 77.688 64.5505V72.9303C77.688 73.7255 78.9248 73.7268 78.9248 72.9303Z" fill="#8A8584"/>
<path d="M37.9704 59.7593V88.5701L33.9854 90.8691V62.0584L37.9704 59.7593Z" fill="#64C7FF"/>
<path d="M38.5902 88.5703V59.7589C38.5902 59.2888 38.0655 58.9916 37.6599 59.2254L35.0139 60.7518C34.5975 60.9922 34.1736 61.2226 33.7633 61.4732C33.4142 61.6867 33.3682 61.9638 33.3682 62.366V90.8693C33.3682 91.3395 33.8928 91.6367 34.2985 91.4029C35.627 90.6364 36.9556 89.87 38.2841 89.1038C38.9733 88.7062 38.3512 87.6379 37.6599 88.0368C36.3313 88.8032 35.0028 89.5697 33.6743 90.3358L34.6046 90.8693V62.058L34.2982 62.5915C35.6267 61.8251 36.9553 61.0586 38.2838 60.2925L37.3535 59.7589V88.5703C37.3535 89.3655 38.5902 89.3667 38.5902 88.5703Z" fill="#8A8584"/>
<mask id="mask0_923_21941" style="mask-type:alpha" maskUnits="userSpaceOnUse" x="59" y="31" width="84" height="94">
<path fill-rule="evenodd" clip-rule="evenodd" d="M142.95 31H59V121.008H86.9798C86.792 121.149 86.6948 121.294 86.6948 121.441C86.6948 123.114 99.2879 124.47 114.822 124.47C130.357 124.47 142.95 123.114 142.95 121.441C142.95 121.294 142.853 121.149 142.665 121.008H142.95V31Z" fill="#D9D9D9"/>
</mask>
<g mask="url(#mask0_923_21941)">
<path d="M80.1307 83.2191C79.4013 81.489 78.5855 79.7965 77.6864 78.1479C77.623 78.0258 77.1786 77.4074 76.7568 77.2856C76.5683 77.2298 76.3681 77.2261 76.1776 77.275C75.9872 77.324 75.8136 77.4237 75.6756 77.5635C75.5384 77.6924 75.4287 77.8475 75.353 78.0196C75.2772 78.1918 75.237 78.3774 75.2347 78.5654C75.238 79.876 75.4371 81.1788 75.8254 82.4309C73.5805 82.1302 69.0845 80.0004 66.6869 78.7354C66.111 78.4318 65.5379 78.084 64.8907 77.9926C64.2244 77.8952 63.0424 78.3558 62.8089 78.9956C61.8984 78.5561 61.4018 78.5648 60.8346 78.7799C60.1613 79.0364 59.9637 79.3044 59.8307 79.6846C59.7496 79.8952 59.7131 80.1202 59.7235 80.3456C59.7339 80.5709 59.7909 80.7916 59.891 80.9939C59.923 81.05 59.9427 81.1123 59.9489 81.1766C59.9435 81.2422 59.9212 81.3052 59.8841 81.3596C59.701 81.7532 59.6487 82.1948 59.7347 82.6201C59.8206 83.0455 60.0404 83.4323 60.3621 83.7242C60.2393 83.9286 60.1847 84.1666 60.2062 84.4039C60.2277 84.6413 60.3242 84.8657 60.4817 85.0447C62.2176 87.0109 68.4196 90.6234 71.9633 91.987C72.1618 92.0469 72.3466 92.1451 72.5071 92.2761C72.6717 92.4552 72.7921 92.6703 72.8585 92.9041C73.1039 93.5749 73.2809 94.0257 73.4875 94.6656C74.9713 94.2628 78.8325 93.1962 80.9569 92.4132C80.783 91.8381 80.6524 91.2509 80.5661 90.6564C80.5661 90.6564 80.5371 90.3293 80.5169 90.0763C80.939 87.8852 81.1354 85.7054 80.2987 83.6303C80.2415 83.4882 80.1855 83.3511 80.1307 83.2191Z" fill="white"/>
<path d="M60.9264 84.1489C60.9444 84.0203 60.9386 84.1316 60.8948 84.1489C60.9645 84.1181 61.0402 84.103 61.1164 84.1047C61.382 84.1719 61.6339 84.2845 61.861 84.4375C62.507 84.7599 63.1487 85.0904 63.7954 85.4113C65.0541 86.074 66.3691 86.6242 67.7249 87.0557C68.5856 87.3069 68.953 85.9682 68.0946 85.7175C66.5131 85.2549 65.0393 84.4907 63.5752 83.7496C63.2012 83.5605 62.8277 83.3709 62.4526 83.1844C62.1125 82.9814 61.7428 82.8323 61.3569 82.7426C60.6573 82.637 59.6966 82.9799 59.5851 83.7788C59.5421 83.9564 59.5685 84.1437 59.6591 84.3025C59.7496 84.4613 59.8974 84.5797 60.0724 84.6335C60.2501 84.6812 60.4396 84.6571 60.5997 84.5664C60.7598 84.4757 60.8777 84.3257 60.9279 84.1489H60.9264Z" fill="#726A69"/>
<path d="M60.5694 81.5852C60.643 81.5002 60.608 81.5392 60.5694 81.5609C60.5851 81.5522 60.7328 81.5155 60.7224 81.5169C60.8332 81.495 60.9479 81.5042 61.0538 81.5435C61.3976 81.6781 61.7333 81.8326 62.0591 82.0061C62.8294 82.3748 63.6009 82.7362 64.3834 83.0789C65.7711 83.6861 67.142 84.3346 68.545 84.9065C68.7228 84.9544 68.9123 84.9303 69.0725 84.8396C69.2327 84.7489 69.3505 84.5988 69.4005 84.4219C69.4449 84.2446 69.4193 84.0571 69.3289 83.8982C69.2385 83.7392 69.0903 83.6212 68.915 83.5684C67.5415 83.0083 66.0298 82.2944 64.6027 81.6713C63.713 81.2827 62.8517 80.8328 61.9664 80.4358C61.6108 80.243 61.2149 80.1361 60.8105 80.1238C60.5847 80.1169 60.3599 80.1558 60.1496 80.2383C59.9394 80.3207 59.7482 80.445 59.5876 80.6035C59.4615 80.7359 59.3911 80.9115 59.3911 81.0942C59.3911 81.2769 59.4615 81.4525 59.5876 81.5849C59.7188 81.7135 59.8953 81.7856 60.0792 81.7856C60.2632 81.7856 60.4397 81.7135 60.5709 81.5849L60.5694 81.5852Z" fill="#726A69"/>
<path d="M59.5852 83.78C59.2474 85.039 60.2397 85.8676 61.1163 86.5734C62.0311 87.2994 62.9861 87.9736 63.9766 88.5928C66.1218 89.9743 68.3724 91.1855 70.7076 92.2151C71.0022 92.3426 71.2986 92.4676 71.5973 92.5855C71.858 92.689 72.0301 92.7226 72.1512 92.9903C72.4743 93.7577 72.7481 94.5448 72.9711 95.3468C73.2292 96.1995 74.572 95.836 74.3118 94.9779C74.1041 94.2917 73.8605 93.6189 73.6125 92.9478C73.5126 92.6132 73.3663 92.2942 73.1779 92C72.9241 91.6862 72.5826 91.4547 72.1967 91.335C71.1923 90.9409 70.1914 90.4725 69.202 89.9691C66.9595 88.8525 64.8095 87.5597 62.7723 86.103C62.366 85.8119 61.9748 85.5005 61.6001 85.1699C61.3104 84.9129 60.8092 84.5841 60.9266 84.1475C61.1583 83.2839 59.8173 82.9152 59.5855 83.7786L59.5852 83.78Z" fill="#726A69"/>
<path d="M75.3078 81.6277C73.5075 81.194 71.7815 80.4263 70.1064 79.6514C69.2537 79.2567 68.4093 78.8445 67.5732 78.4151C66.6882 77.96 65.7678 77.3187 64.7405 77.2874C63.7036 77.2548 62.5465 77.8434 62.1386 78.8123L63.1601 78.3974C62.1085 77.9042 61.0282 77.7558 60.0023 78.4136C59.6021 78.666 59.3039 79.0512 59.1602 79.5014C59.06 79.7923 59.0165 80.0997 59.0318 80.407C59.0891 80.7315 59.1719 81.051 59.2795 81.3626V80.9933C59.2291 81.2287 59.0877 81.4493 59.0449 81.6985C58.9986 81.9542 58.9889 82.2151 59.0159 82.4734C59.0813 83.0761 59.3358 83.6428 59.743 84.0926C60.3361 84.764 61.3164 83.7792 60.7263 83.1113C60.5754 82.9403 60.4699 82.7341 60.4197 82.5118C60.3695 82.2895 60.3761 82.0582 60.4389 81.8391C60.5383 81.5392 60.7017 81.2926 60.6127 80.9477C60.5354 80.651 60.3784 80.4385 60.4337 80.117C60.4505 80.0333 60.4738 79.9511 60.5035 79.8712C60.5163 79.8339 60.5421 79.7761 60.5119 79.8457C60.5644 79.7246 60.5432 79.7619 60.5988 79.7046C60.7462 79.5775 60.9177 79.4813 61.1032 79.4219C61.5667 79.2579 61.9773 79.3698 62.4611 79.5968C62.5537 79.6473 62.6564 79.6767 62.7618 79.6827C62.8672 79.6887 62.9726 79.6712 63.0704 79.6315C63.1682 79.5918 63.256 79.5309 63.3272 79.4532C63.3985 79.3755 63.4516 79.2829 63.4826 79.1822C63.4536 79.2478 63.5544 79.1197 63.5695 79.1055C63.6361 79.0452 63.7094 78.9927 63.7879 78.9488C63.9825 78.8356 64.1941 78.7544 64.4145 78.7083C64.8781 78.6071 65.3656 78.8257 65.797 79.0483C66.7507 79.5398 67.6975 80.0406 68.6651 80.5035C70.6759 81.4638 72.7644 82.4408 74.9395 82.9679C75.8087 83.1781 76.1801 81.8402 75.3092 81.6297L75.3078 81.6277Z" fill="#726A69"/>
<path d="M62.4592 79.5947C63.6102 80.1331 64.716 80.7686 65.8626 81.3186C67.1825 81.9512 68.4633 82.6633 69.7623 83.3368C70.5556 83.7482 71.2595 82.5509 70.4643 82.1386C69.1653 81.4649 67.8845 80.7527 66.5643 80.1201C65.4176 79.5707 64.3121 78.9346 63.1611 78.3962C63.0007 78.3085 62.8127 78.2854 62.6358 78.3317C62.4588 78.378 62.3064 78.4902 62.2097 78.6452C62.1181 78.8044 62.093 78.9933 62.1396 79.1709C62.1863 79.3486 62.3011 79.5008 62.4592 79.5947Z" fill="#726A69"/>
<path d="M70.5091 82.5659C69.2595 83.6033 68.0629 84.6995 66.9194 85.8543C66.7907 85.9848 66.719 86.1607 66.7197 86.3438C66.7205 86.5269 66.7937 86.7022 66.9234 86.8317C67.0531 86.9611 67.2288 87.0342 67.4122 87.0349C67.5956 87.0357 67.7719 86.964 67.9026 86.8356C69.0449 85.6824 70.2414 84.5862 71.4924 83.5473C71.6221 83.4168 71.6949 83.2404 71.6949 83.0566C71.6949 82.8728 71.6221 82.6964 71.4924 82.5659C71.3597 82.4402 71.1837 82.3701 71.0008 82.3701C70.8178 82.3701 70.6418 82.4402 70.5091 82.5659Z" fill="#726A69"/>
<path d="M68.2875 87.1858C68.9654 87.2001 69.6424 87.2324 70.3186 87.2829C70.91 87.3052 71.4979 87.3831 72.0745 87.5157C72.5187 87.6419 72.9306 87.8616 73.2825 88.16C73.6345 88.4585 73.9182 88.8288 74.1146 89.2459C74.209 89.4034 74.3615 89.5177 74.5394 89.5643C74.7173 89.6108 74.9063 89.5859 75.066 89.4949C75.2224 89.3993 75.3356 89.2472 75.3821 89.0702C75.4286 88.8932 75.4047 88.7051 75.3155 88.5453C75.0434 88.003 74.6667 87.5196 74.2068 87.1231C73.747 86.7266 73.2131 86.4247 72.636 86.2348C71.9627 86.0489 71.2699 85.9422 70.5718 85.9168C69.8119 85.8529 69.05 85.815 68.2875 85.7991C67.3923 85.7806 67.3926 87.1684 68.2875 87.1869V87.1858Z" fill="#726A69"/>
<path d="M79.8701 90.656C79.9593 91.6411 80.2914 92.5988 80.5515 93.5474C80.6005 93.7249 80.7182 93.8756 80.8786 93.9665C81.0389 94.0574 81.2289 94.081 81.4067 94.032C81.5845 93.9831 81.7356 93.8657 81.8266 93.7056C81.9177 93.5456 81.9413 93.356 81.8923 93.1785C81.768 92.7246 81.6359 92.2729 81.5156 91.8178C81.4531 91.5801 81.3934 91.3422 81.3418 91.1022C81.3186 90.9961 81.2972 90.89 81.2787 90.7841C81.2748 90.7334 81.2667 90.683 81.2546 90.6335C81.2546 90.6335 81.2758 90.8249 81.2685 90.7344C81.2665 90.7084 81.263 90.6824 81.2607 90.6563C81.256 90.4732 81.1838 90.2982 81.0579 90.1648C80.9607 90.0674 80.8366 90.001 80.7015 89.9741C80.5664 89.9472 80.4264 89.9609 80.2991 90.0136C80.1718 90.0663 80.0631 90.1555 79.9868 90.2699C79.9104 90.3843 79.8698 90.5188 79.8701 90.6563V90.656Z" fill="#726A69"/>
<path d="M73.0509 94.7841C74.0649 94.5106 79.2796 93.1008 81.4581 92.22C81.6546 92.7174 82.0512 93.9323 82.3012 94.5872L82.3591 94.7275C79.7454 95.7282 76.2174 96.8876 73.6488 97.3271L73.6335 97.2771C73.3864 96.477 73.0309 95.0507 72.9478 94.8119L73.0509 94.7841Z" fill="white"/>
<path d="M127.573 56.2143C127.802 56.0166 128.07 55.8703 128.36 55.7855C128.65 55.7006 128.955 55.6792 129.254 55.7228C129.547 55.7642 129.828 55.8707 130.074 56.0345C130.321 56.1982 130.528 56.4151 130.68 56.6691C130.856 57.0197 130.956 57.4033 130.973 57.795C131.101 59.3275 130.805 60.8657 130.116 62.2414C129.792 62.9366 129.321 63.5537 128.735 64.0506C128.26 64.4355 127.692 64.6907 127.088 64.7914L126.807 64.835C126.671 65.3398 126.519 65.7652 126.445 65.9916C125.952 67.3294 123.119 72.0586 119.599 73.567C119.593 74.5143 119.572 75.6061 119.905 76.4255C120.157 77.0471 121.339 77.9695 122.582 78.808C122.582 78.808 121.899 88.0356 113.143 88.0356C104.388 88.0356 104.432 78.7473 104.432 78.7473C105.759 77.9261 106.99 77.0327 107.237 76.4255C107.561 75.6211 107.546 74.5617 107.541 73.6275C105.818 72.8415 104.305 71.6612 103.125 70.1824C101.842 68.6106 100.908 66.7842 100.387 64.8246C99.5954 64.8289 98.8276 64.5557 98.2175 64.0526C97.6321 63.5557 97.1609 62.9386 96.8362 62.2434C96.1477 60.8677 95.8513 59.3296 95.9793 57.797C95.9972 57.4054 96.0973 57.0218 96.273 56.6711C96.4249 56.4171 96.6318 56.2003 96.8786 56.0365C97.1254 55.8727 97.4058 55.7662 97.6992 55.7248C97.9983 55.6813 98.3032 55.7027 98.5931 55.7875C98.8831 55.8723 99.1513 56.0186 99.3795 56.2163C99.3795 56.2163 99.9879 42.9737 113.894 42.9737C128.187 42.9711 127.573 56.2143 127.573 56.2143Z" fill="white"/>
<path d="M130.974 57.7955C130.956 57.4039 130.857 57.0203 130.681 56.6696C130.529 56.4155 130.322 56.1986 130.075 56.0348C129.828 55.8711 129.547 55.7646 129.254 55.7233C128.955 55.6798 128.65 55.7012 128.36 55.786C128.07 55.8708 127.802 56.0171 127.573 56.2148C125.547 55.2121 124.099 53.4451 123.101 52.0315C121.049 49.1239 120.462 47.0985 120.08 45.0555C118.277 47.2552 114.265 49.7219 110.694 50.877C110.237 51.0224 109.773 51.1447 109.303 51.2433C108.688 51.3978 108.063 51.5118 107.433 51.5845C106.3 52.453 105.114 53.2495 103.881 53.9694C103.127 54.4146 100.293 55.7163 99.2749 56.1307C99.0528 55.9616 98.7992 55.8386 98.5288 55.7687C98.2584 55.6989 97.9768 55.6836 97.7004 55.7239C97.4069 55.7653 97.1265 55.8718 96.8797 56.0356C96.6329 56.1993 96.426 56.4162 96.2742 56.6702C96.0984 57.0209 95.9983 57.4044 95.9804 57.7961L95.0974 56.7784C94.8077 48.0932 97.0978 41.7948 100.706 38.3468C102.882 36.2685 107.784 33.4366 113.291 33.4366C116.652 33.4366 118.431 33.7906 120.345 34.5267L121.426 34.9425L123.454 36.0412C124.75 36.7433 125.096 37.2785 126.286 38.4249C129.039 41.0763 130.954 45.8471 131.259 50.1192C131.346 51.3515 131.548 54.558 131.354 56.7778L130.974 57.7955Z" fill="#726A69"/>
<path d="M93.6346 71.5719C93.1573 73.0743 92.8999 74.6377 92.8704 76.2135C92.8452 77.5855 93.0825 79.1269 94.1819 79.9509C94.6673 80.5768 95.2779 81.0951 95.9749 81.4727C96.6718 81.8503 97.4399 82.0791 98.2302 82.1443L104.433 78.7458C105.76 77.9246 106.991 77.0312 107.237 76.424C107.562 75.6202 107.547 74.5619 107.542 73.628C105.819 72.8406 104.307 71.6597 103.126 70.1809C101.854 68.6233 100.926 66.815 100.403 64.8746L99.8659 64.7919C99.262 64.6912 98.6945 64.436 98.2189 64.0511C97.6335 63.5542 97.1624 62.9371 96.8376 62.242C96.1491 60.8662 95.8527 59.3281 95.9807 57.7956L95.0974 56.7769C95.1003 63.1062 94.6165 67.6717 93.9385 70.2653C93.8314 70.6788 93.7271 71.1588 93.6286 71.6734" fill="#726A69"/>
<path d="M131.355 56.7769C131.451 64.6647 132.807 69.0769 133.505 71.2484C134.057 72.8382 134.344 74.5074 134.357 76.1898C134.374 78.367 132.642 80.8536 130.156 81.3943L128.434 81.7688L122.582 78.8065C121.339 77.968 120.157 77.0456 119.905 76.424C119.571 75.6049 119.592 74.5131 119.598 73.5653C123.119 72.0586 125.951 67.3294 126.445 65.9915C126.519 65.7657 126.671 65.3404 126.806 64.835L127.088 64.791C127.692 64.6904 128.259 64.4351 128.735 64.0502C129.32 63.5534 129.792 62.9363 130.116 62.2411C130.805 60.8654 131.101 59.3272 130.973 57.7947L131.355 56.7769Z" fill="#726A69"/>
<path d="M128.066 56.7049C128.209 56.5886 128.374 56.5021 128.551 56.4506C128.728 56.399 128.913 56.3835 129.097 56.4048C129.28 56.4262 129.457 56.4841 129.617 56.575C129.777 56.666 129.918 56.7881 130.03 56.9342C130.233 57.315 130.328 57.7443 130.303 58.1752C130.327 58.6841 130.298 59.1941 130.216 59.697C129.905 61.5316 128.95 63.7669 126.904 64.1225C126.727 64.1728 126.577 64.2904 126.486 64.4501C126.395 64.6098 126.371 64.7987 126.418 64.9761C126.471 65.1513 126.589 65.2995 126.748 65.3899C126.908 65.4802 127.096 65.5057 127.273 65.461C130.087 64.9717 131.431 61.7866 131.664 59.252C131.777 58.0254 131.746 56.4913 130.708 55.6452C130.192 55.2292 129.544 55.0089 128.881 55.0232C128.217 55.0375 127.58 55.2855 127.082 55.7233C126.953 55.8542 126.881 56.0304 126.881 56.214C126.881 56.3976 126.953 56.5738 127.082 56.7046C127.214 56.8313 127.39 56.9021 127.574 56.9021C127.757 56.9021 127.933 56.8313 128.065 56.7046L128.066 56.7049Z" fill="#726A69"/>
<path d="M126.372 63.2311C126.338 63.8232 126.228 64.4086 126.046 64.9729C125.98 65.1959 125.907 65.4168 125.832 65.6379C125.81 65.7053 125.787 65.7721 125.764 65.8403C125.717 65.976 125.735 65.9083 125.754 65.8693C125.48 66.4604 125.167 67.0326 124.816 67.5821C123.831 69.2104 122.573 70.6578 121.098 71.8614C120.296 72.518 119.36 72.9905 118.355 73.2452C117.483 73.4459 117.852 74.7843 118.725 74.5834C120.841 74.0962 122.614 72.5762 124.01 70.981C125.179 69.6902 126.156 68.238 126.911 66.669C127.413 65.5893 127.702 64.4234 127.763 63.2346C127.794 62.3415 126.403 62.3426 126.372 63.2346V63.2311Z" fill="#726A69"/>
<path d="M99.8724 55.7236C99.3743 55.2857 98.7371 55.0377 98.0734 55.0234C97.4098 55.0091 96.7625 55.2295 96.2459 55.6455C95.2079 56.4915 95.1766 58.0257 95.2898 59.2522C95.5216 61.7869 96.8676 64.972 99.6809 65.4612C99.8585 65.5048 100.046 65.4789 100.205 65.3887C100.364 65.2985 100.483 65.151 100.536 64.9764C100.584 64.799 100.559 64.61 100.468 64.4504C100.378 64.2907 100.228 64.1731 100.051 64.1228C98.0041 63.7672 97.0489 61.5318 96.7378 59.6972C96.6565 59.1943 96.6273 58.6844 96.6509 58.1755C96.6285 57.7446 96.7232 57.3158 96.9249 56.9342C97.0369 56.7879 97.1772 56.6656 97.3375 56.5745C97.4978 56.4834 97.6748 56.4255 97.8581 56.4041C98.0413 56.3827 98.2269 56.3983 98.4039 56.45C98.581 56.5017 98.7458 56.5884 98.8886 56.7049C99.0212 56.8307 99.1972 56.9008 99.3802 56.9008C99.5632 56.9008 99.7392 56.8307 99.8718 56.7049C100.001 56.574 100.073 56.3978 100.073 56.2143C100.073 56.0307 100.001 55.8545 99.8718 55.7236H99.8724Z" fill="#726A69"/>
<path d="M99.4217 63.797C100.311 67.9942 102.794 72.0849 106.756 74.0268C107.816 74.5465 108.96 74.8737 110.135 74.9928C110.319 74.9916 110.495 74.9181 110.625 74.7882C110.755 74.6583 110.829 74.4825 110.83 74.2989C110.826 74.1161 110.752 73.9419 110.622 73.8126C110.492 73.6833 110.318 73.6089 110.135 73.6049C106.235 73.2001 103.045 69.8345 101.642 66.3614C101.264 65.411 100.97 64.4295 100.763 63.4281C100.578 62.5549 99.2369 62.9244 99.4217 63.797Z" fill="#726A69"/>
<path d="M118.904 73.5673C118.886 74.1787 118.906 74.7907 118.965 75.3996C118.994 75.9769 119.162 76.5388 119.454 77.0381C120.141 78.0284 121.25 78.7406 122.232 79.4056C122.311 79.4516 122.398 79.4817 122.489 79.4941C122.579 79.5065 122.671 79.5009 122.759 79.4778C122.848 79.4547 122.931 79.4145 123.003 79.3594C123.076 79.3043 123.137 79.2355 123.183 79.1568C123.23 79.0781 123.26 78.9912 123.272 78.9009C123.284 78.8106 123.279 78.7187 123.256 78.6306C123.233 78.5424 123.192 78.4597 123.137 78.3871C123.082 78.3145 123.013 78.2534 122.934 78.2074C122.467 77.8908 122.002 77.5673 121.564 77.2099C121.373 77.0535 121.185 76.8918 121.008 76.7184C120.93 76.6432 120.854 76.5663 120.782 76.487C120.745 76.4466 120.709 76.4052 120.674 76.3633C120.603 76.2783 120.751 76.4882 120.655 76.337C120.613 76.2705 120.571 76.2069 120.535 76.1366C120.497 76.0614 120.573 76.2488 120.534 76.1256C120.513 76.0603 120.49 75.9961 120.47 75.9302C120.408 75.7131 120.365 75.4912 120.34 75.2669C120.294 74.7014 120.279 74.1338 120.295 73.5667C120.3 72.6736 118.91 72.6724 118.904 73.5667V73.5673Z" fill="#726A69"/>
<path d="M106.846 73.628C106.861 74.1833 106.845 74.7391 106.798 75.2926C106.771 75.5238 106.724 75.7523 106.659 75.9755C106.639 76.0397 106.617 76.1025 106.595 76.1658C106.611 76.1218 106.634 76.0987 106.6 76.1528C106.575 76.1912 106.441 76.3896 106.538 76.2664C105.904 77.0676 104.942 77.6124 104.082 78.1458C103.922 78.2387 103.807 78.391 103.76 78.569C103.713 78.747 103.739 78.9363 103.832 79.0952C103.925 79.2541 104.078 79.3696 104.256 79.4163C104.435 79.4629 104.624 79.4369 104.784 79.344C105.345 78.9953 105.9 78.633 106.426 78.232C106.893 77.9033 107.31 77.5094 107.665 77.0624C107.952 76.6087 108.121 76.0909 108.157 75.5557C108.229 74.9155 108.256 74.2711 108.238 73.6271C108.232 72.7343 106.841 72.7325 106.847 73.6271L106.846 73.628Z" fill="#726A69"/>
<path d="M111.095 46.8434C109.858 48.6652 108.311 50.2569 106.524 51.5463C104.972 52.7103 103.306 53.7146 101.552 54.5438C101.073 54.7693 100.593 54.991 100.111 55.2088C99.8997 55.3039 99.6878 55.3981 99.4752 55.4916C99.3815 55.5331 99.2878 55.5739 99.1939 55.6142L99.096 55.6561C98.8932 55.7429 99.2118 55.6084 99.0264 55.685C98.852 55.7392 98.7049 55.8576 98.6148 56.0163C98.5248 56.1749 98.4987 56.3617 98.5418 56.5389C98.5917 56.7157 98.7095 56.8658 98.8696 56.9565C99.0297 57.0473 99.2192 57.0713 99.397 57.0235C100.965 56.4014 102.495 55.687 103.978 54.8838C106.089 53.7043 108.04 52.2596 109.782 50.5849C110.729 49.6659 111.572 48.6462 112.296 47.544C112.786 46.7922 111.582 46.0983 111.095 46.8434Z" fill="#726A69"/>
<path d="M110.508 50.2074C109.972 50.3759 109.428 50.504 108.88 50.6272C108.635 50.6824 108.388 50.7374 108.142 50.7836C108.016 50.8071 107.891 50.8283 107.765 50.8472C107.729 50.8527 107.499 50.8912 107.69 50.8588C107.613 50.8718 107.535 50.8782 107.458 50.8877C107.275 50.8922 107.101 50.9667 106.971 51.0959C106.842 51.2251 106.767 51.399 106.763 51.5816C106.778 51.9217 107.071 52.3207 107.458 52.2756C108.619 52.14 109.764 51.8959 110.879 51.5464C110.967 51.5221 111.049 51.4808 111.121 51.4248C111.193 51.3688 111.253 51.2992 111.299 51.2199C111.344 51.1407 111.373 51.0533 111.384 50.9628C111.395 50.8724 111.389 50.7806 111.364 50.6927C111.34 50.6048 111.299 50.5226 111.242 50.4506C111.186 50.3787 111.117 50.3185 111.037 50.2735C110.958 50.2285 110.87 50.1995 110.78 50.1883C110.689 50.177 110.597 50.1837 110.509 50.2079L110.508 50.2074Z" fill="#726A69"/>
<path d="M119.541 44.6224C118.421 45.8747 117.109 46.9423 115.655 47.7856C114.041 48.7923 112.313 49.6052 110.508 50.2074C109.661 50.4841 110.024 51.8246 110.878 51.5458C112.799 50.9098 114.638 50.0499 116.357 48.9838C117.87 48.0522 119.372 46.9679 120.524 45.6037C120.65 45.4713 120.72 45.2956 120.72 45.113C120.72 44.9304 120.65 44.7548 120.524 44.6224C120.393 44.4936 120.216 44.4214 120.032 44.4214C119.849 44.4214 119.672 44.4936 119.541 44.6224Z" fill="#726A69"/>
<path d="M127.924 55.6149C125.839 54.5633 124.332 52.707 123.092 50.7776C121.985 49.074 121.21 47.1766 120.81 45.1856C120.761 45.0081 120.643 44.8574 120.483 44.7665C120.323 44.6756 120.133 44.6521 119.955 44.701C119.777 44.7499 119.626 44.8673 119.535 45.0274C119.444 45.1875 119.42 45.3771 119.469 45.5545C119.779 47.1299 120.316 48.6519 121.065 50.0726C121.963 51.7936 123.106 53.3751 124.46 54.7674C125.266 55.5923 126.198 56.2831 127.223 56.8134C128.019 57.2153 128.724 56.0182 127.924 55.6149Z" fill="#726A69"/>
<path d="M142.253 126.372C141.395 109.323 140.593 94.503 138.971 89.1051C138.504 87.5527 137.916 86.1801 137.138 85.5593C136.361 84.9386 135.068 84.526 134.169 84.0925C131.247 82.6841 127.295 80.9236 125.191 79.5099L124.841 79.274C124.631 79.102 124.414 78.9314 124.192 78.7602L122.888 77.8789C121.594 83.1783 119.377 89.1334 117.52 94.3021C116.114 98.2139 115.064 101.032 113.636 105.012C112.334 101.419 110.893 97.639 109.609 94.0716C107.757 88.9189 105.774 83.0175 104.053 77.9064L104.029 77.9226L102.699 78.8221C102.406 79.0476 102.124 79.2763 101.855 79.5082L101.818 79.5279C99.0946 80.9851 95.6877 81.9191 92.8891 83.2693C92.0287 83.6828 91.0177 83.8794 90.3658 84.5763C89.699 85.2905 89.1828 86.1312 88.8478 87.0484C86.956 91.9754 86.5881 94.8523 84.7687 99.6812C84.2539 97.9542 83.7582 96.2384 83.2188 94.39C80.276 95.5676 75.6189 97.1383 72.7671 97.4523C73.6941 102.04 74.5922 106.965 76.088 111.617C77.1274 114.85 78.6913 117.924 81.8737 119.123C83.0637 119.594 84.3456 119.786 85.6215 119.687C86.8974 119.587 88.1337 119.198 89.236 118.549C91.1376 117.443 93.3564 115.033 94.7418 113.616C94.7418 113.616 94.9446 113.436 95.2343 113.183C95.2401 113.306 95.243 113.42 95.243 113.523C95.243 115.53 94.5072 122.267 94.2059 126.373L142.253 126.372Z" fill="#B3B3B3"/>
<path d="M115.497 99.8765C116.144 98.1023 116.783 96.3527 117.52 94.3027C118.689 91.0499 120 87.4857 121.135 83.9694C120.915 84.0533 120.69 84.1231 120.461 84.1782C118.369 85.0086 115.322 85.3463 113.18 85.3411C110.912 85.2795 108.659 84.9563 106.465 84.378L106.343 84.3491C107.431 87.7467 108.666 91.1803 109.79 94.3033C111.073 97.8721 112.356 101.441 113.638 105.01C114.316 103.117 114.91 101.486 115.497 99.8765Z" fill="white"/>
<path d="M74.3033 97.0935C74.0544 96.279 73.8873 95.4358 73.6176 94.6283L73.132 95.4818C74.3549 95.1513 75.576 94.8136 76.7924 94.4606C78.4206 93.9884 80.0678 93.5223 81.6424 92.8902L80.7857 92.4045C81.0893 93.1852 81.3321 93.9884 81.6288 94.7717C81.6821 94.9464 81.8005 95.094 81.9596 95.1841C82.1187 95.2743 82.3064 95.3001 82.484 95.2563C82.661 95.2062 82.8112 95.0886 82.9021 94.9289C82.993 94.7692 83.0174 94.5802 82.9698 94.4027C82.6732 93.6195 82.4304 92.8162 82.1268 92.0355C82.0031 91.7175 81.6482 91.3994 81.2713 91.5509C79.697 92.1833 78.0498 92.6497 76.4216 93.1216C75.2049 93.4746 73.984 93.812 72.7612 94.1428C72.5844 94.1933 72.4345 94.311 72.3436 94.4706C72.2528 94.6301 72.2283 94.8189 72.2754 94.9963C72.5451 95.8039 72.7122 96.647 72.9611 97.4616C73.2218 98.3134 74.564 97.9502 74.3021 97.0926L74.3033 97.0935Z" fill="#726A69"/>
<path d="M106.28 85.0471C108.657 85.7052 111.113 86.0367 113.579 86.0322C115.939 85.9938 118.435 85.7107 120.646 84.8468C120.82 84.7932 120.968 84.675 121.058 84.5163C121.149 84.3576 121.175 84.1705 121.131 83.9932C121.081 83.8165 120.963 83.6666 120.803 83.576C120.643 83.4853 120.454 83.4611 120.276 83.5086C118.171 84.3309 115.826 84.6074 113.579 84.6438C111.237 84.6488 108.906 84.3341 106.65 83.7084C105.784 83.4794 105.414 84.8178 106.28 85.0466V85.0471Z" fill="#726A69"/>
<path d="M110.26 108.144C110.338 108.213 110.409 108.289 110.474 108.371L110.365 108.23C110.434 108.321 110.492 108.419 110.539 108.523L110.469 108.357C110.517 108.47 110.55 108.589 110.567 108.71L110.542 108.526C110.559 108.657 110.559 108.789 110.542 108.92L110.567 108.735C110.547 108.878 110.509 109.017 110.453 109.151L110.524 108.985C110.48 109.089 110.424 109.188 110.357 109.279L110.465 109.138C110.401 109.22 110.328 109.292 110.246 109.355L110.386 109.247C110.29 109.318 110.185 109.378 110.075 109.424L110.241 109.354C110.11 109.407 109.974 109.443 109.835 109.463L110.02 109.438C109.863 109.458 109.704 109.458 109.546 109.438L109.731 109.463C109.598 109.445 109.467 109.41 109.343 109.36L109.509 109.43C109.415 109.39 109.326 109.339 109.244 109.279L109.385 109.387C109.289 109.312 109.203 109.226 109.127 109.13L109.236 109.271C109.166 109.181 109.108 109.082 109.063 108.977L109.133 109.143C109.098 109.053 109.073 108.96 109.059 108.864L109.084 109.049C109.07 108.937 109.07 108.823 109.084 108.711L109.059 108.896C109.08 108.755 109.119 108.616 109.175 108.485L109.105 108.651C109.175 108.491 109.265 108.341 109.373 108.203L109.264 108.343C109.325 108.265 109.394 108.194 109.471 108.131L109.33 108.239C109.418 108.173 109.514 108.117 109.615 108.073L109.449 108.143C109.583 108.087 109.723 108.05 109.867 108.03L109.682 108.055C109.819 108.038 109.957 108.038 110.093 108.055L109.908 108.03C110.025 108.047 110.138 108.078 110.247 108.121L110.081 108.051C110.18 108.093 110.272 108.147 110.358 108.212L110.217 108.104C110.232 108.116 110.247 108.128 110.262 108.141C110.395 108.267 110.571 108.34 110.755 108.344C110.892 108.344 111.027 108.303 111.142 108.227C111.257 108.151 111.346 108.042 111.399 107.915C111.451 107.788 111.465 107.649 111.438 107.514C111.411 107.379 111.345 107.255 111.247 107.158C110.878 106.838 110.408 106.659 109.919 106.652C109.491 106.642 109.07 106.757 108.707 106.983C108.336 107.236 108.046 107.591 107.874 108.005C107.701 108.419 107.653 108.874 107.735 109.315C107.856 109.795 108.152 110.213 108.564 110.489C108.815 110.648 109.095 110.756 109.388 110.806C109.681 110.856 109.98 110.848 110.27 110.782C110.56 110.716 110.833 110.593 111.075 110.421C111.318 110.249 111.523 110.031 111.68 109.78C111.878 109.411 111.968 108.994 111.941 108.576C111.899 108.032 111.65 107.526 111.246 107.159C111.115 107.031 110.939 106.959 110.755 106.96C110.572 106.96 110.396 107.034 110.266 107.163C110.137 107.292 110.064 107.468 110.063 107.651C110.062 107.834 110.134 108.01 110.262 108.14L110.26 108.144Z" fill="#868180"/>
<path d="M113.893 126.372C114.472 121.062 115.117 115.768 115.356 110.428C115.405 109.62 115.379 108.81 115.277 108.007C115.129 107.146 114.885 106.305 114.55 105.498C114.496 105.323 114.378 105.176 114.219 105.086C114.06 104.995 113.872 104.97 113.694 105.013C113.517 105.063 113.367 105.181 113.276 105.341C113.185 105.5 113.161 105.689 113.209 105.867C113.503 106.578 113.73 107.315 113.888 108.068C113.992 108.753 114.022 109.446 113.978 110.137C113.923 111.574 113.821 113.009 113.721 114.443C113.543 117.02 113.258 119.585 112.973 122.152C112.817 123.559 112.655 124.965 112.502 126.373C112.503 126.557 112.577 126.732 112.707 126.862C112.837 126.992 113.013 127.066 113.197 127.067C113.38 127.063 113.555 126.988 113.684 126.859C113.814 126.73 113.888 126.556 113.893 126.373V126.372Z" fill="#868180"/>
<path d="M124.841 80.1091C126.355 81.0685 127.933 81.923 129.564 82.6666C131.32 83.5169 133.076 84.3971 134.875 85.1532C135.616 85.4643 136.485 85.772 137.011 86.4101C137.508 87.0932 137.878 87.8594 138.104 88.6726C138.434 89.6875 138.693 90.7241 138.878 91.7748C139.382 94.4754 139.653 97.1352 139.909 99.9054C140.257 103.654 140.509 107.411 140.738 111.168C141.046 116.235 141.303 121.304 141.558 126.373C141.603 127.262 142.994 127.267 142.949 126.373C142.717 121.77 142.483 117.167 142.212 112.565C141.98 108.647 141.727 104.729 141.382 100.819C141.123 97.8843 140.832 94.9426 140.332 92.0376C140.173 91.05 139.96 90.0718 139.695 89.1072C139.205 87.3969 138.553 85.5091 136.919 84.5842C136.106 84.1244 135.212 83.8278 134.372 83.4238C133.48 82.9951 132.583 82.5752 131.689 82.1516C129.943 81.3232 128.187 80.4957 126.517 79.5205C126.186 79.3273 125.86 79.1261 125.542 78.9133C124.796 78.4154 124.099 79.617 124.84 80.1117L124.841 80.1091Z" fill="#868180"/>
<path d="M122.193 77.8047C121.307 81.3825 120.136 84.8846 118.914 88.3583C117.697 91.817 116.441 95.2624 115.185 98.7069C114.485 100.627 113.788 102.547 113.094 104.469C113.047 104.646 113.071 104.835 113.162 104.995C113.253 105.154 113.403 105.272 113.579 105.322C113.757 105.368 113.945 105.342 114.105 105.252C114.264 105.162 114.382 105.013 114.435 104.838C116.925 97.9121 119.591 91.0357 121.845 84.0281C122.467 82.0938 123.045 80.145 123.533 78.1725C123.748 77.3051 122.408 76.9355 122.193 77.8035V77.8047Z" fill="#868180"/>
<path d="M118.74 103.445C120.489 100.951 122.178 98.4171 123.806 95.8424C124.63 94.539 125.437 93.2256 126.229 91.9023C127.002 90.6101 127.807 89.3203 128.506 87.9865C128.62 87.7995 128.685 87.5868 128.694 87.3682C128.703 87.1495 128.657 86.9321 128.559 86.7362C128.334 86.3917 128.058 86.0833 127.741 85.8214C127.125 85.2165 126.486 84.6359 125.844 84.0611L125.703 85.1512C126.277 84.8114 126.842 84.4572 127.427 84.1366C127.996 83.826 128.808 83.5658 128.599 82.7351C128.411 82.2096 128.132 81.7212 127.774 81.2926C127.448 80.8432 127.09 80.418 126.702 80.0204C125.636 78.9845 124.466 78.0601 123.212 77.2617C122.469 76.7595 121.772 77.9611 122.51 78.4599L123.35 79.0275C123.694 79.2523 124.025 79.4962 124.342 79.7581C124.946 80.2411 125.513 80.7694 126.036 81.3386C126.277 81.6031 126.501 81.8832 126.705 82.1771C126.801 82.3174 126.893 82.4604 126.981 82.6062C127.03 82.6877 127.077 82.7699 127.123 82.8528C127.14 82.8817 127.235 83.0945 127.235 83.0323L127.33 82.6822L127.282 82.7568L127.532 82.5078C127.139 82.7511 126.733 82.9717 126.315 83.1685C125.874 83.4236 125.44 83.6919 125.001 83.9515C124.91 84.0059 124.833 84.0801 124.775 84.1686C124.717 84.2571 124.68 84.3575 124.666 84.4624C124.653 84.5672 124.663 84.6738 124.697 84.7741C124.731 84.8743 124.786 84.9657 124.861 85.0413C125.385 85.5111 125.906 85.9836 126.415 86.4699C126.66 86.7045 126.902 86.9429 127.141 87.185C127.157 87.2009 127.289 87.3666 127.329 87.3781C127.305 87.3712 127.332 87.2364 127.329 87.2411C127.251 87.3932 127.161 87.5398 127.076 87.6881C126.361 88.946 125.63 90.1958 124.885 91.4374C123.416 93.8854 121.891 96.3 120.311 98.6812C119.405 100.047 118.48 101.401 117.538 102.743C117.447 102.903 117.422 103.091 117.468 103.269C117.515 103.446 117.63 103.599 117.788 103.693C117.948 103.782 118.136 103.806 118.314 103.759C118.491 103.713 118.643 103.6 118.739 103.444L118.74 103.445Z" fill="#868180"/>
<path d="M133.457 126.372C133.241 123.443 132.94 120.52 132.686 117.593C132.517 115.636 132.332 113.711 132.55 111.753C133.098 106.852 134.221 101.898 135.005 96.9775C135.277 95.2765 135.533 93.5732 135.817 91.8745C135.973 90.7279 136.204 89.5928 136.508 88.4762C136.769 87.6201 135.429 87.254 135.168 88.1073C134.901 89.0724 134.696 90.0534 134.554 91.0444C134.3 92.5216 134.075 94.0034 133.842 95.4838C133.429 98.1112 132.948 100.722 132.473 103.339C132.016 105.851 131.587 108.371 131.262 110.904C131.125 111.793 131.047 112.689 131.03 113.588C131.036 114.594 131.131 115.602 131.213 116.604C131.479 119.862 131.826 123.112 132.067 126.372C132.071 126.554 132.146 126.728 132.275 126.857C132.405 126.987 132.579 127.061 132.762 127.065C132.946 127.064 133.122 126.99 133.252 126.861C133.382 126.731 133.456 126.555 133.457 126.372V126.372Z" fill="#868180"/>
<path d="M90.8198 88.3063C90.7946 88.1201 90.8332 88.408 90.8401 88.4612L90.8818 88.7793C90.9166 89.0476 90.9512 89.316 90.9856 89.5846C91.0661 90.2126 91.1467 90.8405 91.2275 91.4683C91.4287 93.021 91.6383 94.5727 91.8561 96.1235C92.2426 98.8414 92.6963 101.545 93.1873 104.245C93.6138 106.583 94.0651 109.042 94.3586 111.325C94.4863 112.162 94.5483 113.009 94.5443 113.856C94.5153 114.881 94.4252 115.905 94.3398 116.927C94.0767 120.076 93.745 123.221 93.5124 126.373C93.514 126.556 93.5877 126.732 93.7178 126.862C93.8478 126.991 94.0237 127.065 94.2077 127.067C94.391 127.063 94.5658 126.989 94.6954 126.86C94.8251 126.73 94.8995 126.556 94.9029 126.373C95.1118 123.541 95.4004 120.716 95.6481 117.888C95.8173 115.954 96.0496 114.01 95.8384 112.071C95.288 107.026 94.1234 102.057 93.3829 97.038C92.9361 94.0096 92.57 90.9713 92.1606 87.9379C92.1107 87.761 91.9929 87.6108 91.8328 87.5201C91.6727 87.4293 91.4832 87.4052 91.3054 87.453C91.1303 87.5062 90.9823 87.6244 90.8919 87.7832C90.8016 87.9421 90.7758 88.1295 90.8198 88.3068V88.3063Z" fill="#868180"/>
<path d="M103.403 78.1505C105.829 85.355 108.282 92.5465 110.929 99.6736C111.696 101.738 112.465 103.801 113.21 105.873C113.263 106.048 113.381 106.196 113.54 106.286C113.699 106.376 113.887 106.402 114.065 106.358C114.242 106.307 114.392 106.19 114.483 106.03C114.573 105.87 114.598 105.681 114.55 105.504C113.222 101.812 111.821 98.1478 110.486 94.4589C109.197 90.8935 107.966 87.307 106.749 83.7171C106.078 81.7397 105.41 79.7613 104.746 77.7819C104.462 76.9396 103.118 77.3008 103.405 78.1508L103.403 78.1505Z" fill="#868180"/>
<path d="M109.401 102.897C106.107 98.1999 103.03 93.361 100.17 88.3803C100.067 88.201 99.9647 88.0215 99.8624 87.8419C99.8169 87.7621 99.7714 87.6826 99.7265 87.6025C99.7085 87.5707 99.6054 87.3356 99.6161 87.4307C99.6182 87.4489 99.6292 87.5175 99.6115 87.5322C99.7109 87.4455 99.8018 87.3359 99.8942 87.2431C100.021 87.1145 100.15 86.9871 100.28 86.8608C100.865 86.2907 101.471 85.7416 102.079 85.196C102.154 85.1203 102.209 85.029 102.243 84.9287C102.277 84.8285 102.287 84.7219 102.273 84.6171C102.26 84.5122 102.223 84.4118 102.165 84.3233C102.107 84.2348 102.03 84.1606 101.939 84.1062C101.5 83.846 101.066 83.5785 100.625 83.3229C100.207 83.1261 99.8011 82.9056 99.4084 82.6625L99.6578 82.9115L99.6106 82.8366L99.7056 83.187C99.7056 83.2391 99.7781 83.0783 99.7897 83.0569C99.8349 82.9729 99.8813 82.8894 99.929 82.8065C100.024 82.6417 100.125 82.4799 100.23 82.321C100.43 82.0188 100.648 81.7291 100.884 81.4536C101.393 80.8654 101.952 80.3208 102.552 79.8255C102.866 79.5599 103.197 79.3143 103.542 79.0902L104.382 78.5226C105.119 78.0244 104.424 76.8216 103.68 77.3244C102.42 78.1206 101.256 79.06 100.212 80.1239C99.8309 80.5348 99.479 80.9716 99.1587 81.4311C98.8081 81.8687 98.5322 82.3609 98.342 82.888C98.1302 83.6901 98.9011 83.9579 99.4551 84.2577C100.061 84.585 100.645 84.9531 101.237 85.3041L101.097 84.2143C100.522 84.7296 99.9499 85.248 99.3948 85.7844C98.8927 86.2698 98.1914 86.7923 98.2429 87.5626C98.308 87.9163 98.4512 88.2511 98.6621 88.5428C98.8667 88.9021 99.0723 89.2607 99.2789 89.6187C99.6459 90.2548 100.017 90.8892 100.394 91.5221C101.957 94.1556 103.584 96.7499 105.275 99.3051C106.23 100.749 107.206 102.18 108.201 103.598C108.297 103.753 108.45 103.866 108.627 103.912C108.804 103.958 108.992 103.935 109.152 103.847C109.31 103.753 109.425 103.601 109.471 103.423C109.518 103.246 109.493 103.057 109.402 102.897L109.401 102.897Z" fill="#868180"/>
<path d="M87.5994 106.368C86.2604 102.345 85.0789 98.2756 83.8912 94.2065C83.8411 94.0297 83.7233 93.8797 83.5632 93.789C83.4031 93.6983 83.2137 93.6742 83.0359 93.7219C81.3265 94.4041 79.5914 95.0171 77.8308 95.5611C76.1832 96.1133 74.4887 96.5149 72.7682 96.7607C72.662 96.7634 72.5578 96.7899 72.4633 96.8381C72.3687 96.8863 72.2862 96.9551 72.2218 97.0394C72.1575 97.1237 72.1129 97.2214 72.0914 97.3252C72.0699 97.429 72.072 97.5363 72.0975 97.6392C72.6909 100.576 73.2506 103.521 73.943 106.437C74.5864 109.146 75.2724 111.917 76.4382 114.458C77.3884 116.528 78.8396 118.468 80.9402 119.476C82.1936 120.078 83.5667 120.39 84.9577 120.39C86.3487 120.39 87.7218 120.078 88.9752 119.476C90.2467 118.863 91.3473 117.928 92.3752 116.975C93.3651 116.057 94.2919 115.075 95.2346 114.11C95.8597 113.47 94.8774 112.488 94.2513 113.127C92.6759 114.741 91.1329 116.51 89.2246 117.742C88.1651 118.425 86.9573 118.843 85.7023 118.964C84.4473 119.085 83.1815 118.904 82.011 118.436C80.0308 117.673 78.6979 115.938 77.7972 114.089C76.6656 111.765 76.0401 109.167 75.43 106.669C74.6698 103.557 74.0739 100.409 73.4397 97.2693L72.7694 98.1478C74.5765 97.9061 76.3576 97.4997 78.0904 96.9334C79.8866 96.3842 81.6584 95.7601 83.4059 95.0612L82.5504 94.5766C83.7382 98.6459 84.9211 102.715 86.2586 106.738C86.5394 107.581 87.8827 107.22 87.5994 106.369V106.368Z" fill="#868180"/>
<path d="M85.4406 99.8661C86.7153 96.4692 87.5413 92.9385 88.7001 89.505C88.9883 88.5649 89.3323 87.6428 89.7303 86.7434C90.0655 86.042 90.5441 85.1913 91.2205 84.7648C91.908 84.3311 92.727 84.1096 93.4605 83.7647C94.3134 83.364 95.1892 83.0155 96.0679 82.6775C98.1248 81.8873 100.22 81.1627 102.17 80.1276C102.96 79.7081 102.258 78.5084 101.468 78.9291C99.7361 79.8486 97.8855 80.5058 96.0569 81.2021C95.0974 81.5675 94.1408 81.9428 93.2036 82.3621C92.8324 82.5283 92.4703 82.7128 92.0917 82.8611C91.6517 83.0186 91.2207 83.1999 90.8005 83.4041C89.0457 84.3207 88.3191 86.421 87.6977 88.1605C87.078 89.8953 86.558 91.6591 86.0507 93.4292C85.4647 95.4734 84.847 97.5061 84.099 99.4971C84.0515 99.6745 84.0757 99.8635 84.1666 100.023C84.2574 100.183 84.4075 100.3 84.5845 100.351C84.7622 100.396 84.9505 100.37 85.1099 100.28C85.2693 100.19 85.3876 100.041 85.44 99.8661H85.4406Z" fill="#868180"/>
<path d="M81.1062 90.6633C81.4304 89.0577 81.6957 87.3986 81.517 85.7583C81.3452 84.1816 80.7183 82.7602 80.0618 81.3316C79.7837 80.7264 79.4888 80.1293 79.1863 79.536C78.8813 78.9381 78.604 78.2979 78.2454 77.7306C77.9304 77.2319 77.4316 76.7186 76.8362 76.5917C76.4548 76.5165 76.0593 76.5617 75.7048 76.7212C75.3503 76.8807 75.0545 77.1466 74.8584 77.4817C74.4015 78.1852 74.5331 79.0928 74.6113 79.8841C74.6993 80.8352 74.8881 81.7743 75.1745 82.6856C75.4462 83.5331 76.789 83.1708 76.5152 82.3167C76.3019 81.6584 76.146 80.983 76.0494 80.2979C76.008 79.9972 75.9813 79.6942 75.9625 79.3915C75.9174 79.0794 75.9077 78.7633 75.9335 78.4491C75.9914 78.121 76.3484 77.8061 76.643 77.9992C77.0066 78.2378 77.1558 78.6322 77.3606 79.0263C77.8942 80.0524 78.4273 81.0792 78.9076 82.1322C79.4291 83.2726 79.9636 84.4381 80.1197 85.693C80.3115 87.2315 80.0702 88.7868 79.7657 90.2944C79.7213 90.4716 79.747 90.6592 79.8374 90.8181C79.9278 90.977 80.076 91.0951 80.2513 91.1479C80.4291 91.1951 80.6183 91.1708 80.7783 91.0802C80.9383 90.9895 81.0562 90.8398 81.1068 90.6633H81.1062Z" fill="#726A69"/>
<path d="M111.2 67.5257C112.037 67.9572 112.968 68.1723 113.909 68.1511C114.883 68.1926 115.844 67.9101 116.64 67.3479C116.769 67.2173 116.842 67.041 116.842 66.8572C116.842 66.6734 116.769 66.4971 116.64 66.3665C116.507 66.2406 116.331 66.1704 116.148 66.1704C115.965 66.1704 115.789 66.2406 115.657 66.3665C115.867 66.2032 115.702 66.3295 115.648 66.3642C115.594 66.3989 115.537 66.4313 115.48 66.4611C115.432 66.4859 115.227 66.5675 115.416 66.4975C115.339 66.5264 115.263 66.5553 115.184 66.5817C114.973 66.6484 114.756 66.6977 114.537 66.7291C114.638 66.7141 114.512 66.7308 114.473 66.7349C114.409 66.741 114.345 66.7465 114.282 66.7505C114.128 66.7603 113.975 66.7641 113.821 66.7632C113.684 66.7632 113.546 66.7577 113.409 66.7485C113.346 66.7441 113.283 66.7392 113.221 66.7329C113.215 66.7329 112.989 66.7011 113.127 66.7228C112.922 66.6915 112.72 66.6467 112.522 66.5886C112.437 66.5634 112.354 66.5331 112.271 66.5045C112.092 66.4434 112.37 66.5562 112.209 66.4805C112.106 66.4317 112.003 66.3806 111.902 66.3272C111.742 66.2383 111.554 66.2145 111.376 66.2609C111.199 66.3073 111.047 66.4202 110.951 66.5762C110.86 66.7356 110.835 66.9242 110.881 67.1017C110.928 67.2792 111.042 67.4314 111.2 67.5257H111.2Z" fill="#726A69"/>
<path d="M113.559 61.1534C113.684 61.6036 113.784 62.0604 113.859 62.5216L113.834 62.3371C113.843 62.3997 113.845 62.463 113.839 62.526L113.864 62.3415C113.86 62.3704 113.853 62.3989 113.843 62.4265L113.913 62.2605C113.906 62.2796 113.896 62.2979 113.884 62.3152L113.993 62.1747C113.98 62.191 113.965 62.2059 113.948 62.2189L114.089 62.1105C114.054 62.1321 114.018 62.1514 113.981 62.1683L114.147 62.0983C114.088 62.1233 114.027 62.1412 113.964 62.1515L114.149 62.1269C114.092 62.1336 114.034 62.1336 113.977 62.1269L114.162 62.1515C114.097 62.1426 114.033 62.1269 113.968 62.1183C113.879 62.0894 113.783 62.0851 113.691 62.1058C113.599 62.1097 113.51 62.1382 113.433 62.1882C113.274 62.2811 113.158 62.4333 113.111 62.6113C113.064 62.7893 113.09 62.9786 113.183 63.1375C113.228 63.2158 113.287 63.2843 113.358 63.3389C113.43 63.3936 113.512 63.4333 113.599 63.4555C113.745 63.4752 113.889 63.5134 114.037 63.5192C114.261 63.5204 114.483 63.4679 114.683 63.3662C114.809 63.3091 114.921 63.2245 115.01 63.1186C115.099 63.0127 115.163 62.8883 115.198 62.7544C115.244 62.5365 115.242 62.3112 115.192 62.0943C115.117 61.6536 115.015 61.2167 114.902 60.7845C114.853 60.607 114.735 60.4563 114.575 60.3654C114.414 60.2745 114.224 60.2509 114.047 60.2999C113.869 60.3488 113.718 60.4662 113.627 60.6263C113.536 60.7863 113.512 60.976 113.561 61.1534H113.559Z" fill="#726A69"/>
<path d="M106.304 57.2789C106.075 58.0214 106.224 59.7296 107.633 59.8751C109.496 59.8638 109.596 57.7988 108.968 56.8278C108.455 56.033 106.946 55.7025 106.304 57.2789Z" fill="#726A69"/>
<path d="M121.221 57.2789C121.45 58.0214 121.301 59.7293 119.892 59.8748C118.029 59.8635 117.929 57.7985 118.557 56.8275C119.07 56.033 120.58 55.7025 121.221 57.2789Z" fill="#726A69"/>
</g>
</svg>
