<svg width="160" height="136" viewBox="0 0 160 136" fill="none" xmlns="http://www.w3.org/2000/svg">
<circle cx="80.1758" cy="68" r="68" fill="#F5ECF0"/>
<path d="M9.33496 83.0139V41.4061C9.33496 40.9646 9.57055 40.5565 9.95332 40.3359L19.8467 34.6285C20.2295 34.4076 20.7007 34.4076 21.0834 34.6285L22.0301 35.1746C22.4126 35.3952 22.8816 35.3968 23.2641 35.1762C33.2709 29.4073 58.3169 14.9571 65.5631 10.7785C65.9455 10.5579 66.4149 10.5592 66.7976 10.7798L90.2092 24.2849C90.592 24.5058 90.8276 24.9108 90.8276 25.3523C90.8276 37.6309 90.8276 52.5862 90.8276 64.9956C90.8276 65.437 90.5895 65.8436 90.2071 66.0645C70.3046 77.5458 54.5127 86.6558 34.6088 98.1372C34.226 98.3577 33.7523 98.3593 33.3699 98.1384L9.95332 84.6299C9.57055 84.409 9.33496 84.0012 9.33496 83.5597V83.0139Z" fill="white"/>
<path d="M45.1162 53.5361C52.1275 49.4913 83.8167 31.2104 90.8279 27.1656V54.8036C74.0312 64.4935 62.4531 71.1728 45.1162 81.1741V53.5361Z" fill="#E2E2E2"/>
<path d="M90.829 57.326V65.7058C87.3264 67.7263 83.8894 69.7091 80.4941 71.6678V63.288C83.767 61.4001 87.1755 59.4336 90.829 57.326Z" fill="#64C7FF"/>
<path d="M78.3071 64.5488C78.3071 68.0198 78.3071 69.4601 78.3071 72.9287C75.2004 74.7208 72.1242 76.4954 69.0635 78.2614V69.8815C72.1112 68.1233 75.1589 66.3651 78.3071 64.5488Z" fill="#64C7FF"/>
<path d="M66.8782 71.1422V79.5221C63.7934 81.3016 60.7194 83.0749 57.6367 84.8535V76.4737C60.8112 74.6423 63.8589 72.8841 66.8782 71.1422Z" fill="#64C7FF"/>
<path d="M55.451 77.7349V86.1147C52.0273 88.0898 48.5903 90.0726 45.1162 92.0767V83.6969C48.7848 81.5806 52.1955 79.613 55.451 77.7349Z" fill="#64C7FF"/>
<path d="M25.1656 37.6971C27.5525 39.0737 29.939 40.4503 32.3259 41.8266L42.7464 47.8365L44.04 48.5826C44.1526 48.6474 44.2747 48.7067 44.3588 48.809C44.6278 49.1359 44.4982 49.7546 44.4982 50.1504V51.0126C44.4982 51.4828 45.0229 51.78 45.4285 51.5461C47.5968 50.2959 49.7648 49.0453 51.9327 47.7948C55.2366 45.889 58.5408 43.9832 61.8447 42.0774C65.5514 39.9393 69.2582 37.8009 72.9646 35.6628C76.3727 33.6968 79.7804 31.7311 83.1885 29.7654C85.5917 28.3789 87.9953 26.9927 90.3985 25.6066C90.5902 25.496 90.7819 25.3854 90.9736 25.2748C91.6628 24.8775 91.0407 23.8092 90.3494 24.2077C88.1224 25.492 85.8957 26.7765 83.669 28.061C80.3348 29.9844 77.0006 31.9075 73.6664 33.8309C69.9581 35.9702 66.2495 38.1092 62.5413 40.2486C59.1601 42.1992 55.7786 44.1494 52.3974 46.1C50.0495 47.4544 47.7013 48.8087 45.3531 50.163C45.1704 50.2684 44.9873 50.374 44.8046 50.4794L45.7349 51.0129C45.7349 50.3039 45.8385 49.5183 45.6935 48.8241C45.5819 48.2909 45.2396 47.8674 44.7824 47.5841C44.5087 47.4148 44.2234 47.2619 43.9448 47.1009C42.5365 46.2888 41.1282 45.4766 39.7199 44.6641C35.989 42.5124 32.2582 40.3604 28.527 38.2087C27.6146 37.6823 26.7019 37.1562 25.7895 36.6298C25.0988 36.2316 24.4755 37.2989 25.1653 37.6968L25.1656 37.6971Z" fill="#8A8584"/>
<path d="M12.6323 43.3071C14.1142 44.1619 15.5958 45.0167 17.0777 45.8715L25.88 50.9494C28.0879 52.2231 30.2957 53.4968 32.5039 54.7705C32.6764 54.87 32.8477 54.9726 33.0217 55.0693C33.6475 55.4171 34.3339 55.4128 34.9581 55.0659C35.8495 54.5703 36.726 54.0458 37.6093 53.5364L45.1038 49.2123L45.2624 49.1208C45.9516 48.7232 45.3295 47.655 44.6382 48.0538C42.4724 49.3034 40.3069 50.5527 38.1411 51.8023L34.7086 53.7826C34.417 53.9506 34.1023 54.2021 33.7483 54.0594C33.62 54.0078 33.4966 53.9163 33.3776 53.8478C31.3818 52.6964 29.3858 51.545 27.39 50.3936C24.4504 48.6979 21.5107 47.0019 18.5713 45.3062C16.8291 44.3012 15.1061 43.2478 13.3385 42.2876C13.3107 42.2725 13.2835 42.2558 13.2563 42.2401C12.5659 41.8419 11.9426 42.9092 12.6323 43.3071Z" fill="#8A8584"/>
<path d="M50.2109 50.2407V77.8775C50.2109 78.6727 51.4477 78.6739 51.4477 77.8775V50.2407C51.4477 49.4456 50.2109 49.4443 50.2109 50.2407Z" fill="#C6C6C6"/>
<path d="M55.9238 46.9444V74.5812C55.9238 75.3764 57.1605 75.3777 57.1605 74.5812V46.9444C57.1605 46.1493 55.9238 46.148 55.9238 46.9444Z" fill="#C6C6C6"/>
<path d="M61.6406 43.6484V71.2852C61.6406 72.0803 62.8773 72.0816 62.8773 71.2852V43.6484C62.8773 42.8532 61.6406 42.8519 61.6406 43.6484Z" fill="#C6C6C6"/>
<path d="M67.3535 40.352V67.9857C67.3535 68.7809 68.5902 68.7821 68.5902 67.9857V40.352C68.5902 39.5568 67.3535 39.5556 67.3535 40.352Z" fill="#C6C6C6"/>
<path d="M73.0674 37.0557V64.6925C73.0674 65.4877 74.3041 65.4889 74.3041 64.6925V37.0557C74.3041 36.2605 73.0674 36.2593 73.0674 37.0557Z" fill="#C6C6C6"/>
<path d="M78.7812 33.7594V61.3962C78.7812 62.1913 80.018 62.1926 80.018 61.3962V33.7594C80.018 32.9642 78.7812 32.9629 78.7812 33.7594Z" fill="#C6C6C6"/>
<path d="M84.4951 30.4662V58.0999C84.4951 58.8951 85.7318 58.8963 85.7318 58.0999V30.4662C85.7318 29.671 84.4951 29.6698 84.4951 30.4662Z" fill="#C6C6C6"/>
<path d="M56.0688 86.1147V77.7349C56.0688 76.9397 54.832 76.9384 54.832 77.7349V86.1147C54.832 86.9099 56.0688 86.9112 56.0688 86.1147Z" fill="#119EED"/>
<path d="M58.2553 84.8539V76.474C58.2553 75.6788 57.0186 75.6776 57.0186 76.474V84.8539C57.0186 85.6491 58.2553 85.6503 58.2553 84.8539Z" fill="#119EED"/>
<path d="M67.4975 79.5222V71.1424C67.4975 70.3472 66.2607 70.346 66.2607 71.1424V79.5222C66.2607 80.3175 67.4975 80.3187 67.4975 79.5222Z" fill="#119EED"/>
<path d="M69.6831 78.2614V69.8816C69.6831 69.0864 68.4463 69.0851 68.4463 69.8816V78.2614C68.4463 79.0566 69.6831 79.0579 69.6831 78.2614Z" fill="#119EED"/>
<path d="M79.875 63.2883C79.875 66.0815 79.875 68.875 79.875 71.6681C79.875 72.4634 81.1118 72.4646 81.1118 71.6681C81.1118 68.875 81.1118 66.0815 81.1118 63.2883C81.1118 62.4931 79.875 62.4919 79.875 63.2883Z" fill="#119EED"/>
<path d="M78.9253 72.9303V64.5505C78.9253 63.7553 77.6885 63.7541 77.6885 64.5505V72.9303C77.6885 73.7256 78.9253 73.7268 78.9253 72.9303Z" fill="#119EED"/>
<path d="M37.9713 59.7593V88.57L33.9863 90.8691V62.0584L37.9713 59.7593Z" fill="#64C7FF"/>
<path d="M38.5902 88.5703V59.759C38.5902 59.2888 38.0655 58.9916 37.6599 59.2254L35.0139 60.7519C34.5975 60.9922 34.1736 61.2227 33.7633 61.4732C33.4142 61.6867 33.3682 61.9638 33.3682 62.366V90.8694C33.3682 91.3395 33.8928 91.6367 34.2985 91.4029C35.627 90.6364 36.9556 89.87 38.2841 89.1038C38.9733 88.7062 38.3512 87.638 37.6599 88.0368C36.3313 88.8032 35.0028 89.5697 33.6743 90.3358L34.6046 90.8694V62.058L34.2982 62.5915C35.6267 61.8251 36.9553 61.0586 38.2838 60.2925L37.3535 59.759V88.5703C37.3535 89.3655 38.5902 89.3667 38.5902 88.5703Z" fill="#119EED"/>
<path d="M34.6039 98.3033V60.6319C34.6039 58.7733 34.6398 56.9108 34.6039 55.0523C34.603 55.006 34.6039 54.9596 34.6039 54.9133C34.6039 54.1181 33.3672 54.1169 33.3672 54.9133V93.058C33.3672 94.7781 33.3078 96.5103 33.3672 98.2298C33.3681 98.2542 33.3672 98.2789 33.3672 98.3033C33.3672 99.0985 34.6039 99.0997 34.6039 98.3033Z" fill="#8A8584"/>
<path d="M45.428 84.2299C51.5414 80.7032 57.6551 77.1765 63.7685 73.6494L80.7041 63.8796C84.1826 61.8728 87.6612 59.8663 91.1398 57.8595C91.8289 57.4619 91.2069 56.3936 90.5155 56.7924C84.5308 60.245 78.5463 63.6973 72.5615 67.1499C66.8804 70.4273 61.1992 73.7047 55.5178 76.9822C51.9465 79.0424 48.3751 81.1027 44.8038 83.1629C44.1147 83.5605 44.7367 84.6288 45.428 84.2299Z" fill="#8A8584"/>
<path d="M9.95351 83.0139V41.782C9.95351 41.6581 9.94424 41.5306 9.95351 41.407C9.98938 40.9288 10.4497 40.7632 10.8136 40.5531C13.8504 38.8012 16.8871 37.0492 19.9239 35.2976C20.0349 35.2336 20.1536 35.1478 20.2776 35.1098C20.7179 34.9748 21.2493 35.4437 21.6102 35.6458C22.2922 36.0279 22.9817 36.0406 23.6677 35.6572C24.0666 35.4341 24.4599 35.2006 24.8556 34.9723C26.8152 33.8425 28.7747 32.7125 30.734 31.5824C35.6246 28.7619 40.5149 25.9408 45.4055 23.1196C50.0867 20.4193 54.7677 17.7189 59.449 15.0186C61.1467 14.0393 62.8447 13.06 64.5424 12.0807C65.0429 11.7918 65.9231 11.0448 66.4976 11.3198C66.6881 11.4109 66.8692 11.5342 67.052 11.6395C69.803 13.2265 72.5538 14.8134 75.3049 16.4001C78.8635 18.4529 82.4221 20.5058 85.9811 22.5586L89.2667 24.4539C89.4689 24.5707 89.6826 24.6772 89.8774 24.8061C90.2852 25.0758 90.21 25.4879 90.21 25.9272C90.21 26.8299 90.21 27.7322 90.21 28.6349C90.21 36.4616 90.21 44.2884 90.21 52.1148C90.21 55.9461 90.21 59.7774 90.21 63.6088C90.21 64.045 90.2311 64.4871 90.21 64.9227C90.1887 65.3638 89.9568 65.4954 89.5935 65.7049C88.6474 66.2507 87.7011 66.7966 86.755 67.3425C84.9355 68.3922 83.1163 69.4417 81.2967 70.4914C74.3999 74.4701 67.5027 78.4488 60.6059 82.4275C53.6426 86.4442 46.6796 90.4609 39.7163 94.4776C38.8088 95.0012 37.9011 95.5245 36.9936 96.0482C36.5463 96.3061 36.0989 96.5644 35.6515 96.8224C35.4014 96.9666 35.1509 97.1112 34.9008 97.2555C34.6733 97.3868 34.4321 97.5795 34.1786 97.6558C33.8545 97.7532 33.5973 97.5554 33.3342 97.4038L30.4403 95.7343C26.9528 93.7223 23.4649 91.7105 19.9774 89.6985C17.0489 88.0089 14.1203 86.3194 11.1915 84.6302C10.9234 84.4754 10.6547 84.3215 10.3873 84.1662C10.3477 84.1433 10.3054 84.1226 10.2673 84.097C9.88333 83.8372 9.95444 83.4216 9.95444 83.0139C9.95351 82.2187 8.7168 82.2171 8.7168 83.0139C8.7168 83.5906 8.71155 84.1408 9.06463 84.6342C9.23282 84.8693 9.44894 85.0472 9.69535 85.1949C9.94177 85.3426 10.1937 85.4825 10.4426 85.6262L13.9738 87.6632C17.6261 89.7701 21.2784 91.8773 24.931 93.9842C27.5337 95.4856 30.1361 96.987 32.7387 98.4884C33.1326 98.7158 33.507 98.9203 33.989 98.9194C34.4868 98.9187 34.8798 98.6945 35.2981 98.4532C35.798 98.1646 36.2983 97.8764 36.7982 97.5879C37.735 97.0476 38.6715 96.5072 39.6084 95.9669C43.2366 93.8739 46.8648 91.7813 50.493 89.6883C57.4037 85.7018 64.3145 81.7154 71.2249 77.7287C74.7663 75.6857 78.3073 73.6431 81.8486 71.6002C83.6919 70.5368 85.5353 69.4735 87.3786 68.4102C88.3247 67.8643 89.2711 67.3184 90.2171 66.7725C90.607 66.5476 90.9613 66.3227 91.1935 65.9242C91.4304 65.5183 91.4458 65.0907 91.4458 64.6329C91.4458 56.7255 91.4458 48.8179 91.4458 40.9105C91.4458 36.9924 91.4458 33.0739 91.4458 29.1558C91.4458 28.2244 91.4458 27.2929 91.4458 26.3615C91.4458 25.5104 91.538 24.612 90.8398 23.9859C90.6324 23.7996 90.3816 23.6711 90.1414 23.5327C87.4747 21.9945 84.8084 20.4563 82.1417 18.9179C78.5052 16.8199 74.8683 14.7223 71.2317 12.6244L67.8091 10.65C67.5868 10.5218 67.3667 10.388 67.1416 10.2648C66.7292 10.0392 66.2697 9.94132 65.8035 10.0358C65.3518 10.1276 64.9421 10.4229 64.547 10.6509C60.7367 12.8483 56.9264 15.0464 53.1164 17.2444C48.0384 20.1737 42.9605 23.1029 37.8825 26.0322C33.4458 28.5914 29.0091 31.1505 24.5721 33.7088C24.155 33.9491 23.7379 34.1898 23.3208 34.4301C23.0741 34.5722 22.8187 34.7743 22.5182 34.7072C22.3278 34.6646 22.1463 34.5281 21.9799 34.4323C21.4318 34.1159 20.9201 33.7863 20.2522 33.8635C19.931 33.9006 19.6537 34.0264 19.3797 34.1842L15.1545 36.6217C13.5118 37.5692 11.8695 38.5169 10.2268 39.4644C9.69566 39.7709 9.16202 40.0369 8.89025 40.6331C8.7403 40.963 8.7168 41.2979 8.7168 41.6486C8.7168 43.8503 8.7168 46.0523 8.7168 48.2541C8.7168 50.4558 8.7168 56.3662 8.7168 60.4222C8.7168 64.4781 8.7168 68.9211 8.7168 73.1708V83.0139C8.7168 83.809 9.95351 83.8103 9.95351 83.0139Z" fill="#8A8584"/>
<path d="M90.5166 26.6327C89.3537 27.3034 88.1912 27.9741 87.0284 28.6451C84.1345 30.3146 81.2406 31.984 78.3467 33.6535C74.613 35.8073 70.8794 37.9612 67.1458 40.1153L56.1285 46.4709C53.391 48.0502 50.6533 49.6294 47.9158 51.2087L45.677 52.5C45.0942 52.8361 44.5303 53.103 44.4975 53.9109C44.4196 55.8201 44.4975 57.7487 44.4975 59.6591C44.4975 63.677 44.4975 67.6953 44.4975 71.7132C44.4975 75.915 44.4975 80.1164 44.4975 84.3181V91.7247C44.4975 91.8424 44.4975 91.9601 44.4975 92.0778C44.4975 92.873 45.7342 92.8742 45.7342 92.0778C45.7342 90.3432 45.7342 88.6085 45.7342 86.8736V75.0663C45.7342 70.8318 45.7342 66.5973 45.7342 62.3632C45.7342 59.7326 45.7342 57.1018 45.7342 54.4713C45.7342 54.2173 45.6415 53.9591 45.8533 53.8256C46.3461 53.5145 46.8671 53.2408 47.3716 52.9498C49.7755 51.563 52.1794 50.1762 54.5832 48.7898C58.1125 46.7536 61.6421 44.7178 65.1713 42.6816C68.9501 40.5015 72.7292 38.3217 76.508 36.1416L85.9655 30.6856L90.9157 27.8298L91.1411 27.6998C91.8303 27.3022 91.2079 26.2339 90.5166 26.6327Z" fill="#8A8584"/>
<path d="M45.428 81.7076C51.5414 78.1809 57.6551 74.6542 63.7685 71.1271C69.4138 67.8704 75.0588 64.614 80.7041 61.3572L91.1398 55.3371C91.8289 54.9396 91.2069 53.8713 90.5155 54.2701C84.5308 57.7227 78.5463 61.175 72.5615 64.6276C66.8804 67.905 61.1992 71.1824 55.5178 74.4599L44.8038 80.6406C44.1147 81.0382 44.7367 82.1065 45.428 81.7076Z" fill="#8A8584"/>
<mask id="mask0_923_21941" style="mask-type:alpha" maskUnits="userSpaceOnUse" x="59" y="31" width="84" height="94">
<path fill-rule="evenodd" clip-rule="evenodd" d="M142.95 31H59V121.008H86.9798C86.792 121.149 86.6948 121.294 86.6948 121.441C86.6948 123.114 99.2879 124.47 114.822 124.47C130.357 124.47 142.95 123.114 142.95 121.441C142.95 121.294 142.853 121.149 142.665 121.008H142.95V31Z" fill="#D9D9D9"/>
</mask>
<g mask="url(#mask0_923_21941)">
<path d="M80.1307 83.2191C79.4013 81.489 78.5855 79.7965 77.6864 78.1479C77.623 78.0258 77.1786 77.4074 76.7568 77.2856C76.5683 77.2298 76.3681 77.2261 76.1776 77.275C75.9872 77.324 75.8136 77.4237 75.6756 77.5635C75.5384 77.6924 75.4287 77.8475 75.353 78.0196C75.2772 78.1918 75.237 78.3774 75.2347 78.5654C75.238 79.876 75.4371 81.1788 75.8254 82.4309C73.5805 82.1302 69.0845 80.0004 66.6869 78.7354C66.111 78.4318 65.5379 78.084 64.8907 77.9926C64.2244 77.8952 63.0424 78.3558 62.8089 78.9956C61.8984 78.5561 61.4018 78.5648 60.8346 78.7799C60.1613 79.0364 59.9637 79.3044 59.8307 79.6846C59.7496 79.8952 59.7131 80.1202 59.7235 80.3456C59.7339 80.5709 59.7909 80.7916 59.891 80.9939C59.923 81.05 59.9427 81.1123 59.9489 81.1766C59.9435 81.2422 59.9212 81.3052 59.8841 81.3596C59.701 81.7532 59.6487 82.1948 59.7347 82.6201C59.8206 83.0455 60.0404 83.4323 60.3621 83.7242C60.2393 83.9286 60.1847 84.1666 60.2062 84.4039C60.2277 84.6413 60.3242 84.8657 60.4817 85.0447C62.2176 87.0109 68.4196 90.6234 71.9633 91.987C72.1618 92.0469 72.3466 92.1451 72.5071 92.2761C72.6717 92.4552 72.7921 92.6703 72.8585 92.9041C73.1039 93.5749 73.2809 94.0257 73.4875 94.6656C74.9713 94.2628 78.8325 93.1962 80.9569 92.4132C80.783 91.8381 80.6524 91.2509 80.5661 90.6564C80.5661 90.6564 80.5371 90.3293 80.5169 90.0763C80.939 87.8852 81.1354 85.7054 80.2987 83.6303C80.2415 83.4882 80.1855 83.3511 80.1307 83.2191Z" fill="white"/>
<path d="M60.9259 84.1489C60.9439 84.0203 60.9381 84.1316 60.8943 84.1489C60.9641 84.1181 61.0397 84.103 61.116 84.1047C61.3815 84.172 61.6334 84.2846 61.8605 84.4375C62.5065 84.7599 63.1482 85.0904 63.7949 85.4113C65.0536 86.074 66.3686 86.6242 67.7244 87.0557C68.5851 87.3069 68.9525 85.9682 68.0941 85.7175C66.5126 85.2549 65.0389 84.4907 63.5747 83.7496C63.2007 83.5605 62.8273 83.3709 62.4521 83.1844C62.112 82.9814 61.7424 82.8323 61.3564 82.7426C60.6568 82.637 59.6961 82.98 59.5846 83.7788C59.5416 83.9564 59.568 84.1437 59.6586 84.3025C59.7491 84.4613 59.8969 84.5797 60.0719 84.6335C60.2497 84.6812 60.4391 84.6571 60.5992 84.5664C60.7593 84.4757 60.8772 84.3257 60.9274 84.1489H60.9259Z" fill="#726A69"/>
<path d="M60.5699 81.5852C60.6435 81.5002 60.6084 81.5392 60.5699 81.5609C60.5856 81.5522 60.7333 81.5155 60.7229 81.5169C60.8337 81.495 60.9484 81.5042 61.0543 81.5435C61.3981 81.6781 61.7338 81.8326 62.0596 82.0061C62.8299 82.3748 63.6014 82.7362 64.3839 83.0789C65.7716 83.6861 67.1425 84.3346 68.5455 84.9065C68.7233 84.9544 68.9128 84.9303 69.073 84.8396C69.2331 84.7489 69.351 84.5988 69.401 84.4219C69.4454 84.2446 69.4198 84.0571 69.3294 83.8982C69.239 83.7392 69.0908 83.6212 68.9155 83.5684C67.542 83.0083 66.0303 82.2944 64.6032 81.6713C63.7135 81.2827 62.8522 80.8328 61.9669 80.4358C61.6113 80.243 61.2154 80.1361 60.811 80.1238C60.5852 80.1169 60.3604 80.1558 60.1501 80.2383C59.9399 80.3207 59.7487 80.445 59.5881 80.6035C59.462 80.7359 59.3916 80.9115 59.3916 81.0942C59.3916 81.2769 59.462 81.4525 59.5881 81.5849C59.7193 81.7135 59.8958 81.7856 60.0797 81.7856C60.2636 81.7856 60.4402 81.7135 60.5714 81.5849L60.5699 81.5852Z" fill="#726A69"/>
<path d="M59.5852 83.78C59.2474 85.0389 60.2397 85.8676 61.1163 86.5734C62.0311 87.2994 62.9861 87.9736 63.9766 88.5928C66.1218 89.9743 68.3724 91.1855 70.7076 92.2151C71.0022 92.3426 71.2986 92.4675 71.5973 92.5855C71.858 92.689 72.0301 92.7226 72.1512 92.9903C72.4743 93.7577 72.7481 94.5447 72.9711 95.3468C73.2292 96.1995 74.572 95.836 74.3118 94.9779C74.1041 94.2917 73.8605 93.6189 73.6125 92.9478C73.5126 92.6132 73.3663 92.2942 73.1779 92C72.9241 91.6862 72.5826 91.4547 72.1967 91.335C71.1923 90.9409 70.1914 90.4725 69.202 89.9691C66.9595 88.8524 64.8095 87.5597 62.7723 86.103C62.366 85.8119 61.9748 85.5005 61.6001 85.1699C61.3104 84.9129 60.8092 84.5841 60.9266 84.1475C61.1583 83.2839 59.8173 82.9152 59.5855 83.7786L59.5852 83.78Z" fill="#726A69"/>
<path d="M75.3078 81.6277C73.5075 81.194 71.7815 80.4263 70.1064 79.6514C69.2537 79.2567 68.4093 78.8446 67.5732 78.4151C66.6882 77.96 65.7678 77.3187 64.7405 77.2874C63.7036 77.2548 62.5465 77.8435 62.1386 78.8124L63.1601 78.3974C62.1085 77.9042 61.0282 77.7558 60.0023 78.4136C59.6021 78.666 59.3039 79.0512 59.1602 79.5014C59.06 79.7924 59.0165 80.0997 59.0318 80.407C59.0891 80.7315 59.1719 81.051 59.2795 81.3626V80.9934C59.2291 81.2287 59.0877 81.4493 59.0449 81.6986C58.9986 81.9542 58.9889 82.2151 59.0159 82.4735C59.0813 83.0762 59.3358 83.6429 59.743 84.0926C60.3361 84.764 61.3164 83.7792 60.7263 83.1113C60.5754 82.9403 60.4699 82.7342 60.4197 82.5118C60.3695 82.2895 60.3761 82.0582 60.4389 81.8391C60.5383 81.5392 60.7017 81.2926 60.6127 80.9477C60.5354 80.651 60.3784 80.4385 60.4337 80.117C60.4505 80.0333 60.4738 79.9512 60.5035 79.8712C60.5163 79.8339 60.5421 79.7761 60.5119 79.8458C60.5644 79.7246 60.5432 79.7619 60.5988 79.7047C60.7462 79.5775 60.9177 79.4813 61.1032 79.4219C61.5667 79.2579 61.9773 79.3698 62.4611 79.5968C62.5537 79.6473 62.6564 79.6767 62.7618 79.6827C62.8672 79.6887 62.9726 79.6712 63.0704 79.6315C63.1682 79.5918 63.256 79.5309 63.3272 79.4532C63.3985 79.3755 63.4516 79.2829 63.4826 79.1822C63.4536 79.2478 63.5544 79.1197 63.5695 79.1056C63.6361 79.0453 63.7094 78.9927 63.7879 78.9488C63.9825 78.8356 64.1941 78.7544 64.4145 78.7083C64.8781 78.6071 65.3656 78.8257 65.797 79.0483C66.7507 79.5398 67.6975 80.0406 68.6651 80.5035C70.6759 81.4638 72.7644 82.4408 74.9395 82.9679C75.8087 83.1781 76.1801 81.8402 75.3092 81.6297L75.3078 81.6277Z" fill="#726A69"/>
<path d="M62.4587 79.5947C63.6097 80.1331 64.7155 80.7686 65.8621 81.3186C67.182 81.9512 68.4628 82.6634 69.7619 83.3368C70.5551 83.7482 71.259 82.5509 70.4638 82.1386C69.1648 81.4649 67.884 80.7527 66.5638 80.1201C65.4171 79.5707 64.3116 78.9346 63.1606 78.3962C63.0002 78.3085 62.8122 78.2854 62.6353 78.3317C62.4583 78.378 62.3059 78.4902 62.2092 78.6452C62.1176 78.8045 62.0925 78.9933 62.1391 79.1709C62.1858 79.3486 62.3006 79.5008 62.4587 79.5947Z" fill="#726A69"/>
<path d="M70.5091 82.566C69.2595 83.6034 68.0629 84.6995 66.9194 85.8543C66.7907 85.9848 66.719 86.1608 66.7197 86.3438C66.7205 86.5269 66.7937 86.7023 66.9234 86.8317C67.0531 86.9612 67.2288 87.0342 67.4122 87.035C67.5956 87.0357 67.7719 86.9641 67.9026 86.8357C69.0449 85.6824 70.2414 84.5863 71.4924 83.5473C71.6221 83.4168 71.6949 83.2404 71.6949 83.0566C71.6949 82.8728 71.6221 82.6964 71.4924 82.566C71.3597 82.4402 71.1837 82.3702 71.0008 82.3702C70.8178 82.3702 70.6418 82.4402 70.5091 82.566Z" fill="#726A69"/>
<path d="M68.2875 87.1858C68.9654 87.2001 69.6424 87.2325 70.3186 87.283C70.91 87.3052 71.4979 87.3831 72.0745 87.5157C72.5187 87.6419 72.9306 87.8616 73.2825 88.1601C73.6345 88.4585 73.9182 88.8288 74.1146 89.2459C74.209 89.4035 74.3615 89.5178 74.5394 89.5643C74.7173 89.6108 74.9063 89.5859 75.066 89.4949C75.2224 89.3994 75.3356 89.2472 75.3821 89.0702C75.4286 88.8932 75.4047 88.7052 75.3155 88.5454C75.0434 88.003 74.6667 87.5196 74.2068 87.1231C73.747 86.7266 73.2131 86.4247 72.636 86.2348C71.9627 86.049 71.2699 85.9422 70.5718 85.9168C69.8119 85.8529 69.05 85.815 68.2875 85.7991C67.3923 85.7806 67.3926 87.1685 68.2875 87.187V87.1858Z" fill="#726A69"/>
<path d="M79.8701 90.6561C79.9593 91.6412 80.2914 92.5988 80.5515 93.5475C80.6005 93.7249 80.7182 93.8757 80.8786 93.9666C81.0389 94.0574 81.2289 94.081 81.4067 94.0321C81.5845 93.9832 81.7356 93.8658 81.8266 93.7057C81.9177 93.5456 81.9413 93.356 81.8923 93.1785C81.768 92.7246 81.6359 92.273 81.5156 91.8179C81.4531 91.5802 81.3934 91.3422 81.3418 91.1022C81.3186 90.9961 81.2972 90.89 81.2787 90.7842C81.2748 90.7334 81.2667 90.683 81.2546 90.6335C81.2546 90.6335 81.2758 90.8249 81.2685 90.7344C81.2665 90.7084 81.263 90.6824 81.2607 90.6564C81.256 90.4732 81.1838 90.2982 81.0579 90.1648C80.9607 90.0674 80.8366 90.0011 80.7015 89.9742C80.5664 89.9472 80.4264 89.961 80.2991 90.0137C80.1718 90.0663 80.0631 90.1555 79.9868 90.27C79.9104 90.3844 79.8698 90.5189 79.8701 90.6564V90.6561Z" fill="#726A69"/>
<path d="M73.0514 94.7841C74.0653 94.5106 79.28 93.1008 81.4586 92.22C81.655 92.7174 82.0517 93.9323 82.3017 94.5872L82.3596 94.7275C79.7459 95.7282 76.2179 96.8876 73.6493 97.3271L73.634 97.2771C73.3869 96.4771 73.0314 95.0507 72.9482 94.8119L73.0514 94.7841Z" fill="white"/>
<path d="M127.573 56.2143C127.802 56.0166 128.07 55.8703 128.36 55.7855C128.65 55.7007 128.955 55.6793 129.254 55.7228C129.547 55.7642 129.828 55.8707 130.074 56.0345C130.321 56.1983 130.528 56.4151 130.68 56.6691C130.856 57.0198 130.956 57.4034 130.973 57.795C131.101 59.3276 130.805 60.8657 130.116 62.2414C129.792 62.9367 129.321 63.5538 128.735 64.0506C128.26 64.4355 127.692 64.6907 127.088 64.7914L126.807 64.835C126.671 65.3399 126.519 65.7652 126.445 65.9916C125.952 67.3294 123.119 72.0586 119.599 73.5671C119.593 74.5143 119.572 75.6061 119.905 76.4255C120.157 77.0472 121.339 77.9695 122.582 78.808C122.582 78.808 121.899 88.0356 113.143 88.0356C104.388 88.0356 104.432 78.7473 104.432 78.7473C105.759 77.9261 106.99 77.0327 107.237 76.4255C107.561 75.6211 107.546 74.5617 107.541 73.6275C105.818 72.8415 104.305 71.6612 103.125 70.1824C101.842 68.6106 100.908 66.7842 100.387 64.8246C99.5954 64.8289 98.8276 64.5557 98.2175 64.0526C97.6321 63.5557 97.1609 62.9386 96.8362 62.2435C96.1477 60.8677 95.8513 59.3296 95.9793 57.7971C95.9972 57.4054 96.0973 57.0218 96.273 56.6711C96.4249 56.4171 96.6318 56.2003 96.8786 56.0365C97.1254 55.8727 97.4058 55.7662 97.6992 55.7248C97.9983 55.6813 98.3032 55.7027 98.5931 55.7875C98.8831 55.8724 99.1513 56.0186 99.3795 56.2163C99.3795 56.2163 99.9879 42.9737 113.894 42.9737C128.187 42.9711 127.573 56.2143 127.573 56.2143Z" fill="white"/>
<path d="M130.974 57.7956C130.956 57.4039 130.856 57.0203 130.68 56.6697C130.528 56.4155 130.321 56.1986 130.074 56.0349C129.827 55.8711 129.547 55.7646 129.253 55.7233C128.954 55.6798 128.649 55.7012 128.359 55.786C128.069 55.8708 127.801 56.0171 127.573 56.2149C125.547 55.2121 124.098 53.4452 123.1 52.0316C121.048 49.124 120.461 47.0985 120.08 45.0555C118.277 47.2553 114.264 49.7219 110.693 50.877C110.236 51.0224 109.772 51.1447 109.303 51.2434C108.688 51.3978 108.063 51.5118 107.433 51.5846C106.3 52.453 105.114 53.2495 103.881 53.9694C103.126 54.4147 100.292 55.7164 99.2744 56.1307C99.0524 55.9617 98.7987 55.8386 98.5283 55.7688C98.2579 55.6989 97.9763 55.6836 97.6999 55.7239C97.4065 55.7653 97.126 55.8718 96.8792 56.0356C96.6324 56.1994 96.4255 56.4162 96.2737 56.6702C96.0979 57.0209 95.9979 57.4045 95.9799 57.7962L95.0969 56.7784C94.8072 48.0932 97.0973 41.7949 100.706 38.3469C102.881 36.2685 107.783 33.4367 113.291 33.4367C116.652 33.4367 118.43 33.7906 120.344 34.5267L121.425 34.9425L123.453 36.0413C124.749 36.7433 125.095 37.2785 126.286 38.4249C129.038 41.0763 130.953 45.8472 131.258 50.1192C131.345 51.3515 131.548 54.5581 131.354 56.7778L130.974 57.7956Z" fill="#726A69"/>
<path d="M93.6342 71.572C93.1568 73.0744 92.8994 74.6377 92.8699 76.2135C92.8447 77.5855 93.082 79.1269 94.1814 79.951C94.6668 80.5769 95.2774 81.0951 95.9744 81.4727C96.6713 81.8504 97.4394 82.0791 98.2298 82.1444L104.433 78.7458C105.759 77.9247 106.991 77.0312 107.237 76.424C107.561 75.6202 107.547 74.562 107.541 73.628C105.819 72.8406 104.306 71.6598 103.125 70.1809C101.853 68.6233 100.925 66.8151 100.402 64.8746L99.8654 64.7919C99.2615 64.6913 98.694 64.436 98.2185 64.0511C97.633 63.5542 97.1619 62.9372 96.8371 62.242C96.1486 60.8662 95.8522 59.3281 95.9802 57.7956L95.0969 56.7769C95.0998 63.1062 94.616 67.6717 93.9381 70.2653C93.8309 70.6788 93.7266 71.1588 93.6281 71.6735" fill="#726A69"/>
<path d="M131.355 56.7769C131.451 64.6647 132.807 69.077 133.505 71.2484C134.057 72.8383 134.344 74.5074 134.357 76.1898C134.374 78.367 132.642 80.8537 130.156 81.3943L128.434 81.7688L122.582 78.8065C121.339 77.968 120.157 77.0457 119.905 76.424C119.571 75.6049 119.592 74.5131 119.598 73.5653C123.119 72.0586 125.951 67.3294 126.445 65.9916C126.519 65.7657 126.671 65.3404 126.806 64.835L127.088 64.791C127.692 64.6904 128.259 64.4352 128.735 64.0503C129.32 63.5534 129.792 62.9363 130.116 62.2411C130.805 60.8654 131.101 59.3272 130.973 57.7947L131.355 56.7769Z" fill="#726A69"/>
<path d="M128.066 56.705C128.209 56.5886 128.374 56.5021 128.551 56.4506C128.728 56.399 128.913 56.3835 129.097 56.4049C129.28 56.4262 129.457 56.4841 129.617 56.5751C129.777 56.666 129.918 56.7881 130.03 56.9342C130.233 57.315 130.328 57.7444 130.303 58.1752C130.327 58.6841 130.298 59.1941 130.216 59.697C129.905 61.5316 128.95 63.7669 126.904 64.1226C126.727 64.1728 126.577 64.2904 126.486 64.4501C126.395 64.6098 126.371 64.7987 126.418 64.9761C126.471 65.1513 126.589 65.2995 126.748 65.3899C126.908 65.4802 127.096 65.5057 127.273 65.461C130.087 64.9718 131.431 61.7866 131.664 59.252C131.777 58.0255 131.746 56.4913 130.708 55.6453C130.192 55.2292 129.544 55.0089 128.881 55.0232C128.217 55.0375 127.58 55.2855 127.082 55.7233C126.953 55.8542 126.881 56.0304 126.881 56.214C126.881 56.3976 126.953 56.5738 127.082 56.7047C127.214 56.8314 127.39 56.9021 127.574 56.9021C127.757 56.9021 127.933 56.8314 128.065 56.7047L128.066 56.705Z" fill="#726A69"/>
<path d="M126.372 63.2312C126.338 63.8233 126.228 64.4086 126.046 64.9729C125.98 65.1959 125.907 65.4168 125.832 65.638C125.81 65.7053 125.787 65.7721 125.764 65.8404C125.717 65.976 125.735 65.9083 125.754 65.8693C125.48 66.4604 125.167 67.0326 124.816 67.5821C123.831 69.2104 122.573 70.6578 121.098 71.8614C120.296 72.518 119.36 72.9905 118.355 73.2452C117.483 73.4459 117.852 74.7843 118.725 74.5834C120.841 74.0962 122.614 72.5762 124.01 70.981C125.179 69.6902 126.156 68.238 126.911 66.669C127.413 65.5894 127.702 64.4234 127.763 63.2346C127.794 62.3415 126.403 62.3426 126.372 63.2346V63.2312Z" fill="#726A69"/>
<path d="M99.8724 55.7236C99.3743 55.2857 98.7371 55.0377 98.0734 55.0235C97.4098 55.0092 96.7625 55.2295 96.2459 55.6455C95.2079 56.4916 95.1766 58.0257 95.2898 59.2523C95.5216 61.7869 96.8676 64.9721 99.6809 65.4613C99.8585 65.5049 100.046 65.4789 100.205 65.3887C100.364 65.2985 100.483 65.151 100.536 64.9764C100.584 64.799 100.559 64.6101 100.468 64.4504C100.378 64.2907 100.228 64.1731 100.051 64.1228C98.0041 63.7672 97.0489 61.5319 96.7378 59.6973C96.6565 59.1944 96.6273 58.6844 96.6509 58.1755C96.6285 57.7447 96.7232 57.3158 96.9249 56.9342C97.0369 56.7879 97.1772 56.6656 97.3375 56.5745C97.4978 56.4835 97.6748 56.4255 97.8581 56.4041C98.0413 56.3827 98.2269 56.3983 98.4039 56.45C98.581 56.5017 98.7458 56.5884 98.8886 56.705C99.0212 56.8307 99.1972 56.9009 99.3802 56.9009C99.5632 56.9009 99.7392 56.8307 99.8718 56.705C100.001 56.574 100.073 56.3978 100.073 56.2143C100.073 56.0307 100.001 55.8545 99.8718 55.7236H99.8724Z" fill="#726A69"/>
<path d="M99.4217 63.797C100.311 67.9941 102.794 72.0849 106.756 74.0268C107.816 74.5465 108.96 74.8736 110.135 74.9928C110.319 74.9916 110.495 74.9181 110.625 74.7882C110.755 74.6583 110.829 74.4825 110.83 74.2989C110.826 74.1161 110.752 73.9419 110.622 73.8126C110.492 73.6833 110.318 73.6089 110.135 73.6049C106.235 73.2001 103.045 69.8345 101.642 66.3614C101.264 65.411 100.97 64.4295 100.763 63.428C100.578 62.5548 99.2369 62.9244 99.4217 63.797Z" fill="#726A69"/>
<path d="M118.904 73.5673C118.886 74.1788 118.906 74.7907 118.965 75.3996C118.994 75.977 119.162 76.5388 119.454 77.0382C120.141 78.0285 121.25 78.7406 122.232 79.4057C122.311 79.4517 122.398 79.4817 122.489 79.4941C122.579 79.5065 122.671 79.501 122.759 79.4779C122.848 79.4548 122.931 79.4145 123.003 79.3594C123.076 79.3044 123.137 79.2355 123.183 79.1568C123.23 79.0782 123.26 78.9912 123.272 78.9009C123.284 78.8106 123.279 78.7188 123.256 78.6306C123.233 78.5425 123.192 78.4597 123.137 78.3871C123.082 78.3145 123.013 78.2535 122.934 78.2075C122.467 77.8908 122.002 77.5673 121.564 77.2099C121.373 77.0535 121.185 76.8919 121.008 76.7184C120.93 76.6432 120.854 76.5663 120.782 76.4871C120.745 76.4466 120.709 76.4052 120.674 76.3633C120.603 76.2783 120.751 76.4882 120.655 76.337C120.613 76.2705 120.571 76.2069 120.535 76.1366C120.497 76.0615 120.573 76.2488 120.534 76.1256C120.513 76.0603 120.49 75.9961 120.47 75.9302C120.408 75.7131 120.365 75.4913 120.34 75.2669C120.294 74.7014 120.279 74.1339 120.295 73.5668C120.3 72.6736 118.91 72.6724 118.904 73.5668V73.5673Z" fill="#726A69"/>
<path d="M106.846 73.628C106.861 74.1834 106.845 74.7391 106.798 75.2926C106.771 75.5238 106.724 75.7523 106.659 75.9756C106.639 76.0398 106.617 76.1025 106.595 76.1658C106.611 76.1219 106.634 76.0987 106.6 76.1528C106.575 76.1913 106.441 76.3896 106.538 76.2665C105.904 77.0677 104.942 77.6124 104.082 78.1459C103.922 78.2388 103.807 78.391 103.76 78.569C103.713 78.7471 103.739 78.9364 103.832 79.0953C103.925 79.2541 104.078 79.3696 104.256 79.4163C104.435 79.4629 104.624 79.437 104.784 79.3441C105.345 78.9954 105.9 78.6331 106.426 78.232C106.893 77.9033 107.31 77.5094 107.665 77.0625C107.952 76.6087 108.121 76.091 108.157 75.5557C108.229 74.9155 108.256 74.2711 108.238 73.6272C108.232 72.7343 106.841 72.7326 106.847 73.6272L106.846 73.628Z" fill="#726A69"/>
<path d="M111.095 46.8435C109.858 48.6653 108.311 50.2569 106.524 51.5463C104.972 52.7103 103.306 53.7146 101.552 54.5439C101.073 54.7694 100.593 54.9911 100.111 55.2089C99.8997 55.3039 99.6878 55.3982 99.4752 55.4917C99.3815 55.5331 99.2878 55.574 99.1939 55.6143L99.096 55.6562C98.8932 55.7429 99.2118 55.6085 99.0264 55.6851C98.852 55.7393 98.7049 55.8577 98.6148 56.0163C98.5248 56.1749 98.4987 56.3618 98.5418 56.5389C98.5917 56.7158 98.7095 56.8659 98.8696 56.9566C99.0297 57.0473 99.2192 57.0714 99.397 57.0235C100.965 56.4015 102.495 55.687 103.978 54.8839C106.089 53.7044 108.04 52.2596 109.782 50.5849C110.729 49.6659 111.572 48.6462 112.296 47.5441C112.786 46.7923 111.582 46.0984 111.095 46.8435Z" fill="#726A69"/>
<path d="M110.508 50.2074C109.972 50.376 109.428 50.5041 108.88 50.6272C108.635 50.6825 108.388 50.7374 108.142 50.7837C108.016 50.8072 107.891 50.8284 107.765 50.8473C107.729 50.8528 107.499 50.8912 107.69 50.8588C107.613 50.8719 107.535 50.8782 107.458 50.8878C107.275 50.8922 107.101 50.9668 106.971 51.096C106.842 51.2251 106.767 51.3991 106.763 51.5817C106.778 51.9217 107.071 52.3207 107.458 52.2756C108.619 52.1401 109.764 51.8959 110.879 51.5464C110.967 51.5222 111.049 51.4809 111.121 51.4249C111.193 51.3689 111.253 51.2992 111.299 51.22C111.344 51.1407 111.373 51.0533 111.384 50.9629C111.395 50.8724 111.389 50.7806 111.364 50.6927C111.34 50.6048 111.299 50.5226 111.242 50.4507C111.186 50.3788 111.117 50.3186 111.037 50.2736C110.958 50.2285 110.87 50.1996 110.78 50.1883C110.689 50.1771 110.597 50.1838 110.509 50.208L110.508 50.2074Z" fill="#726A69"/>
<path d="M119.541 44.6224C118.421 45.8747 117.109 46.9423 115.655 47.7856C114.041 48.7923 112.313 49.6052 110.508 50.2074C109.661 50.4841 110.024 51.8246 110.878 51.5458C112.799 50.9098 114.638 50.0499 116.357 48.9838C117.87 48.0521 119.372 46.9679 120.524 45.6037C120.65 45.4713 120.72 45.2956 120.72 45.113C120.72 44.9304 120.65 44.7548 120.524 44.6224C120.393 44.4936 120.216 44.4214 120.032 44.4214C119.849 44.4214 119.672 44.4936 119.541 44.6224Z" fill="#726A69"/>
<path d="M127.924 55.6149C125.839 54.5633 124.332 52.707 123.092 50.7776C121.985 49.0741 121.21 47.1767 120.81 45.1856C120.761 45.0082 120.643 44.8574 120.483 44.7666C120.323 44.6757 120.133 44.6521 119.955 44.701C119.777 44.75 119.626 44.8674 119.535 45.0274C119.444 45.1875 119.42 45.3771 119.469 45.5546C119.779 47.1299 120.316 48.6519 121.065 50.0727C121.963 51.7936 123.106 53.3751 124.46 54.7675C125.266 55.5924 126.198 56.2831 127.223 56.8134C128.019 57.2153 128.724 56.0183 127.924 55.6149Z" fill="#726A69"/>
<path d="M142.254 126.372C141.395 109.324 140.594 94.5031 138.971 89.1051C138.504 87.5527 137.917 86.1802 137.139 85.5594C136.361 84.9386 135.068 84.526 134.169 84.0926C131.247 82.6842 127.295 80.9236 125.192 79.51L124.842 79.2741C124.631 79.102 124.414 78.9314 124.192 78.7603L122.888 77.879C121.595 83.1783 119.378 89.1334 117.52 94.3021C116.114 98.2139 115.064 101.032 113.636 105.012C112.335 101.419 110.893 97.6391 109.609 94.0717C107.757 88.9189 105.775 83.0176 104.053 77.9064L104.03 77.9226L102.7 78.8221C102.406 79.0477 102.125 79.2764 101.855 79.5083L101.818 79.5279C99.0951 80.9852 95.6882 81.9191 92.8896 83.2694C92.0292 83.6829 91.0181 83.8795 90.3663 84.5763C89.6995 85.2906 89.1833 86.1313 88.8482 87.0485C86.9565 91.9754 86.5885 94.8524 84.7692 99.6813C84.2544 97.9542 83.7587 96.2385 83.2193 94.39C80.2764 95.5677 75.6194 97.1383 72.7676 97.4523C73.6946 102.04 74.5927 106.965 76.0885 111.617C77.1279 114.85 78.6918 117.924 81.8742 119.123C83.0642 119.594 84.346 119.786 85.622 119.687C86.8979 119.587 88.1342 119.198 89.2365 118.549C91.1381 117.443 93.3569 115.033 94.7423 113.616C94.7423 113.616 94.9451 113.436 95.2348 113.183C95.2406 113.306 95.2435 113.42 95.2435 113.523C95.2435 115.53 94.5076 122.267 94.2063 126.373L142.254 126.372Z" fill="#B3B3B3"/>
<path d="M115.497 99.8765C116.144 98.1023 116.783 96.3527 117.52 94.3027C118.689 91.0499 120 87.4857 121.135 83.9695C120.915 84.0534 120.69 84.1231 120.461 84.1782C118.369 85.0086 115.322 85.3463 113.18 85.3411C110.912 85.2795 108.659 84.9564 106.465 84.378L106.343 84.3491C107.431 87.7468 108.666 91.1803 109.79 94.3033C111.073 97.8721 112.356 101.441 113.638 105.01C114.316 103.117 114.91 101.486 115.497 99.8765Z" fill="white"/>
<path d="M74.3033 97.0935C74.0544 96.279 73.8873 95.4359 73.6176 94.6283L73.132 95.4818C74.3549 95.1514 75.576 94.8136 76.7924 94.4606C78.4206 93.9884 80.0678 93.5223 81.6424 92.8903L80.7857 92.4045C81.0893 93.1852 81.3321 93.9884 81.6288 94.7717C81.6821 94.9464 81.8005 95.094 81.9596 95.1842C82.1187 95.2743 82.3064 95.3001 82.484 95.2563C82.661 95.2062 82.8112 95.0886 82.9021 94.9289C82.993 94.7692 83.0174 94.5802 82.9698 94.4028C82.6732 93.6195 82.4304 92.8163 82.1268 92.0356C82.0031 91.7175 81.6482 91.3995 81.2713 91.551C79.697 92.1833 78.0498 92.6497 76.4216 93.1216C75.2049 93.4746 73.984 93.8121 72.7612 94.1428C72.5844 94.1933 72.4345 94.311 72.3436 94.4706C72.2528 94.6302 72.2283 94.8189 72.2754 94.9964C72.5451 95.8039 72.7122 96.6471 72.9611 97.4616C73.2218 98.3134 74.564 97.9502 74.3021 97.0926L74.3033 97.0935Z" fill="#726A69"/>
<path d="M106.28 85.0471C108.657 85.7052 111.113 86.0367 113.58 86.0322C115.94 85.9938 118.436 85.7107 120.646 84.8468C120.821 84.7932 120.969 84.675 121.059 84.5163C121.149 84.3576 121.175 84.1705 121.132 83.9932C121.081 83.8165 120.964 83.6666 120.804 83.576C120.644 83.4853 120.454 83.4611 120.276 83.5086C118.172 84.3309 115.827 84.6074 113.58 84.6438C111.238 84.6488 108.906 84.3341 106.65 83.7084C105.784 83.4794 105.415 84.8184 106.28 85.0471Z" fill="#B3B3B3"/>
<path d="M110.26 108.144C110.337 108.213 110.409 108.289 110.473 108.371L110.365 108.23C110.434 108.321 110.492 108.419 110.539 108.523L110.469 108.358C110.516 108.471 110.549 108.589 110.567 108.71L110.542 108.526C110.558 108.657 110.558 108.789 110.542 108.92L110.567 108.735C110.546 108.878 110.508 109.017 110.453 109.151L110.523 108.985C110.479 109.089 110.423 109.188 110.356 109.279L110.465 109.138C110.401 109.22 110.327 109.292 110.245 109.355L110.386 109.247C110.29 109.318 110.185 109.378 110.074 109.424L110.24 109.354C110.11 109.407 109.974 109.443 109.835 109.463L110.02 109.438C109.862 109.458 109.703 109.458 109.546 109.438L109.731 109.463C109.597 109.445 109.467 109.41 109.342 109.36L109.508 109.43C109.414 109.39 109.326 109.339 109.244 109.279L109.384 109.387C109.289 109.312 109.202 109.226 109.127 109.13L109.235 109.271C109.166 109.181 109.108 109.082 109.063 108.977L109.133 109.143C109.098 109.053 109.073 108.96 109.058 108.864L109.083 109.049C109.069 108.937 109.069 108.823 109.083 108.711L109.058 108.896C109.079 108.755 109.118 108.617 109.174 108.485L109.104 108.651C109.175 108.491 109.265 108.341 109.372 108.203L109.263 108.343C109.324 108.265 109.394 108.194 109.471 108.131L109.33 108.239C109.418 108.173 109.514 108.117 109.615 108.073L109.449 108.143C109.582 108.087 109.723 108.05 109.866 108.031L109.681 108.055C109.818 108.038 109.956 108.038 110.093 108.055L109.908 108.031C110.024 108.047 110.138 108.078 110.247 108.121L110.08 108.051C110.179 108.093 110.272 108.147 110.357 108.212L110.216 108.104C110.232 108.116 110.247 108.128 110.262 108.141C110.395 108.267 110.571 108.34 110.754 108.344C110.892 108.344 111.027 108.303 111.141 108.227C111.256 108.151 111.345 108.043 111.398 107.916C111.451 107.788 111.465 107.649 111.438 107.514C111.411 107.379 111.344 107.255 111.247 107.158C110.878 106.838 110.407 106.659 109.918 106.652C109.491 106.642 109.069 106.757 108.707 106.983C108.335 107.236 108.046 107.591 107.873 108.005C107.701 108.419 107.652 108.874 107.734 109.315C107.856 109.795 108.151 110.213 108.563 110.489C108.814 110.648 109.094 110.756 109.387 110.806C109.68 110.856 109.98 110.848 110.27 110.782C110.559 110.716 110.833 110.593 111.075 110.421C111.317 110.249 111.523 110.031 111.68 109.78C111.877 109.411 111.968 108.994 111.941 108.576C111.898 108.032 111.649 107.526 111.245 107.159C111.115 107.031 110.938 106.959 110.755 106.96C110.571 106.961 110.396 107.034 110.266 107.163C110.136 107.292 110.063 107.468 110.062 107.651C110.062 107.834 110.133 108.01 110.262 108.14L110.26 108.144Z" fill="#868180"/>
<path d="M113.893 126.372C114.472 121.062 115.117 115.768 115.356 110.428C115.405 109.62 115.379 108.81 115.277 108.007C115.129 107.146 114.885 106.305 114.55 105.498C114.496 105.323 114.378 105.176 114.219 105.086C114.06 104.995 113.872 104.97 113.694 105.013C113.517 105.063 113.367 105.181 113.276 105.341C113.185 105.5 113.161 105.689 113.209 105.867C113.503 106.578 113.73 107.315 113.888 108.068C113.992 108.753 114.022 109.446 113.978 110.138C113.923 111.574 113.821 113.009 113.721 114.443C113.543 117.02 113.258 119.585 112.973 122.152C112.817 123.559 112.655 124.965 112.502 126.373C112.503 126.557 112.577 126.733 112.707 126.862C112.837 126.992 113.013 127.066 113.197 127.067C113.38 127.063 113.555 126.989 113.684 126.859C113.814 126.73 113.888 126.556 113.893 126.373V126.372Z" fill="#868180"/>
<path d="M124.841 80.1091C126.355 81.0685 127.933 81.923 129.564 82.6666C131.32 83.5169 133.076 84.3971 134.875 85.1532C135.616 85.4643 136.485 85.7719 137.011 86.4101C137.508 87.0931 137.878 87.8594 138.104 88.6726C138.434 89.6875 138.693 90.724 138.878 91.7748C139.382 94.4754 139.653 97.1352 139.909 99.9054C140.257 103.654 140.509 107.411 140.738 111.168C141.046 116.235 141.303 121.304 141.558 126.373C141.603 127.262 142.994 127.267 142.949 126.373C142.717 121.77 142.483 117.167 142.212 112.565C141.98 108.647 141.727 104.729 141.382 100.819C141.123 97.8843 140.832 94.9426 140.332 92.0376C140.173 91.05 139.96 90.0718 139.695 89.1072C139.205 87.3969 138.553 85.5091 136.919 84.5842C136.106 84.1244 135.212 83.8278 134.372 83.4238C133.48 82.995 132.583 82.5752 131.689 82.1516C129.943 81.3232 128.187 80.4957 126.517 79.5204C126.186 79.3273 125.86 79.1261 125.542 78.9132C124.796 78.4153 124.099 79.617 124.84 80.1117L124.841 80.1091Z" fill="#868180"/>
<path d="M122.193 77.8047C121.307 81.3825 120.136 84.8846 118.914 88.3583C117.697 91.817 116.441 95.2624 115.185 98.7069C114.485 100.627 113.788 102.547 113.094 104.469C113.047 104.646 113.071 104.835 113.162 104.995C113.253 105.154 113.403 105.272 113.579 105.322C113.757 105.368 113.945 105.342 114.105 105.252C114.264 105.162 114.382 105.013 114.435 104.838C116.925 97.9121 119.591 91.0357 121.845 84.0281C122.467 82.0938 123.045 80.145 123.533 78.1725C123.748 77.3051 122.408 76.9355 122.193 77.8035V77.8047Z" fill="#868180"/>
<path d="M118.74 103.445C120.489 100.951 122.178 98.4171 123.806 95.8424C124.63 94.539 125.437 93.2256 126.229 91.9023C127.002 90.6101 127.807 89.3203 128.506 87.9865C128.62 87.7995 128.685 87.5868 128.694 87.3682C128.703 87.1495 128.657 86.9321 128.559 86.7362C128.334 86.3917 128.058 86.0833 127.741 85.8214C127.125 85.2165 126.486 84.6359 125.844 84.0611L125.703 85.1512C126.277 84.8114 126.842 84.4572 127.427 84.1366C127.996 83.826 128.808 83.5658 128.599 82.7351C128.411 82.2096 128.132 81.7212 127.774 81.2926C127.448 80.8432 127.09 80.418 126.702 80.0204C125.636 78.9845 124.466 78.0601 123.212 77.2617C122.469 76.7595 121.772 77.9611 122.51 78.4599L123.35 79.0275C123.694 79.2523 124.025 79.4962 124.342 79.7581C124.946 80.2411 125.513 80.7694 126.036 81.3386C126.277 81.6031 126.501 81.8832 126.705 82.1771C126.801 82.3174 126.893 82.4604 126.981 82.6062C127.03 82.6877 127.077 82.7699 127.123 82.8528C127.14 82.8817 127.235 83.0945 127.235 83.0323L127.33 82.6822L127.282 82.7568L127.532 82.5078C127.139 82.7511 126.733 82.9717 126.315 83.1685C125.874 83.4236 125.44 83.6919 125.001 83.9515C124.91 84.0059 124.833 84.0801 124.775 84.1686C124.717 84.2571 124.68 84.3575 124.666 84.4624C124.653 84.5672 124.663 84.6738 124.697 84.7741C124.731 84.8743 124.786 84.9657 124.861 85.0413C125.385 85.5111 125.906 85.9836 126.415 86.4699C126.66 86.7045 126.902 86.9429 127.141 87.185C127.157 87.2009 127.289 87.3666 127.329 87.3781C127.305 87.3712 127.332 87.2364 127.329 87.2411C127.251 87.3932 127.161 87.5398 127.076 87.6881C126.361 88.946 125.63 90.1958 124.885 91.4374C123.416 93.8854 121.891 96.3 120.311 98.6812C119.405 100.047 118.48 101.401 117.538 102.743C117.447 102.903 117.422 103.091 117.468 103.269C117.515 103.446 117.63 103.599 117.788 103.693C117.948 103.782 118.136 103.806 118.314 103.759C118.491 103.713 118.643 103.6 118.739 103.444L118.74 103.445Z" fill="#868180"/>
<path d="M133.457 126.372C133.241 123.443 132.939 120.52 132.686 117.593C132.517 115.636 132.331 113.711 132.55 111.753C133.097 106.852 134.221 101.898 135.005 96.9775C135.276 95.2765 135.532 93.5732 135.816 91.8745C135.973 90.7279 136.204 89.5928 136.508 88.4762C136.769 87.6201 135.428 87.254 135.167 88.1073C134.901 89.0724 134.696 90.0534 134.553 91.0444C134.3 92.5216 134.074 94.0034 133.841 95.4838C133.428 98.1112 132.948 100.722 132.472 103.339C132.015 105.851 131.587 108.371 131.261 110.904C131.124 111.793 131.047 112.689 131.029 113.588C131.035 114.594 131.13 115.602 131.212 116.604C131.478 119.862 131.826 123.112 132.066 126.372C132.07 126.554 132.145 126.728 132.275 126.857C132.404 126.987 132.578 127.061 132.761 127.065C132.945 127.064 133.121 126.99 133.251 126.861C133.381 126.731 133.455 126.555 133.457 126.372V126.372Z" fill="#868180"/>
<path d="M90.8198 88.3063C90.7946 88.1201 90.8332 88.4081 90.8401 88.4613L90.8818 88.7793C90.9166 89.0476 90.9512 89.3161 90.9856 89.5846C91.0661 90.2126 91.1467 90.8405 91.2275 91.4683C91.4287 93.021 91.6383 94.5727 91.8561 96.1235C92.2426 98.8414 92.6963 101.545 93.1873 104.245C93.6138 106.583 94.0651 109.042 94.3586 111.325C94.4863 112.162 94.5483 113.009 94.5443 113.856C94.5153 114.881 94.4252 115.905 94.3398 116.927C94.0767 120.076 93.745 123.221 93.5124 126.373C93.514 126.556 93.5877 126.732 93.7178 126.862C93.8478 126.991 94.0237 127.065 94.2077 127.067C94.391 127.063 94.5658 126.989 94.6954 126.86C94.8251 126.73 94.8995 126.556 94.9029 126.373C95.1118 123.541 95.4004 120.716 95.6481 117.889C95.8173 115.954 96.0496 114.01 95.8384 112.071C95.288 107.026 94.1234 102.057 93.3829 97.038C92.9361 94.0096 92.57 90.9713 92.1606 87.9379C92.1107 87.761 91.9929 87.6109 91.8328 87.5201C91.6727 87.4293 91.4832 87.4052 91.3054 87.453C91.1303 87.5062 90.9823 87.6244 90.8919 87.7833C90.8016 87.9421 90.7758 88.1296 90.8198 88.3069V88.3063Z" fill="#868180"/>
<path d="M103.404 78.1505C105.83 85.355 108.282 92.5465 110.93 99.6736C111.696 101.738 112.465 103.801 113.21 105.873C113.263 106.048 113.381 106.196 113.541 106.286C113.7 106.376 113.888 106.402 114.065 106.358C114.242 106.307 114.392 106.19 114.483 106.03C114.574 105.87 114.598 105.681 114.551 105.504C113.223 101.812 111.822 98.1478 110.487 94.4589C109.197 90.8935 107.966 87.307 106.75 83.7171C106.078 81.7397 105.411 79.7613 104.746 77.7819C104.462 76.9396 103.119 77.3008 103.405 78.1508L103.404 78.1505Z" fill="#868180"/>
<path d="M109.401 102.897C106.107 98.2 103.03 93.361 100.17 88.3803C100.067 88.201 99.9647 88.0216 99.8624 87.8419C99.8169 87.7621 99.7714 87.6826 99.7265 87.6025C99.7085 87.5707 99.6054 87.3356 99.6161 87.4307C99.6182 87.449 99.6292 87.5175 99.6115 87.5322C99.7109 87.4455 99.8018 87.3359 99.8942 87.2431C100.021 87.1145 100.15 86.9871 100.28 86.8609C100.865 86.2907 101.471 85.7416 102.079 85.196C102.154 85.1204 102.209 85.029 102.243 84.9287C102.277 84.8285 102.287 84.7219 102.273 84.6171C102.26 84.5122 102.223 84.4118 102.165 84.3233C102.107 84.2348 102.03 84.1606 101.939 84.1062C101.5 83.846 101.066 83.5785 100.625 83.3229C100.207 83.1261 99.8011 82.9056 99.4084 82.6625L99.6578 82.9115L99.6106 82.8366L99.7056 83.187C99.7056 83.2391 99.7781 83.0783 99.7897 83.0569C99.8349 82.9729 99.8813 82.8894 99.929 82.8065C100.024 82.6417 100.125 82.4799 100.23 82.3211C100.43 82.0188 100.648 81.7291 100.884 81.4536C101.393 80.8654 101.952 80.3208 102.552 79.8255C102.866 79.5599 103.197 79.3143 103.542 79.0902L104.382 78.5226C105.119 78.0244 104.424 76.8216 103.68 77.3244C102.42 78.1206 101.256 79.06 100.212 80.1239C99.8309 80.5348 99.479 80.9716 99.1587 81.4311C98.8081 81.8687 98.5322 82.3609 98.342 82.8881C98.1302 83.6901 98.9011 83.9579 99.4551 84.2577C100.061 84.585 100.645 84.9531 101.237 85.3041L101.097 84.2144C100.522 84.7296 99.9499 85.248 99.3948 85.7844C98.8927 86.2698 98.1914 86.7923 98.2429 87.5626C98.308 87.9163 98.4512 88.2512 98.6621 88.5428C98.8667 88.9021 99.0723 89.2607 99.2789 89.6187C99.6459 90.2548 100.017 90.8892 100.394 91.5221C101.957 94.1556 103.584 96.7499 105.275 99.3052C106.23 100.75 107.206 102.18 108.201 103.598C108.297 103.753 108.45 103.866 108.627 103.912C108.804 103.958 108.992 103.935 109.152 103.847C109.31 103.753 109.425 103.601 109.471 103.423C109.518 103.246 109.493 103.057 109.402 102.897L109.401 102.897Z" fill="#868180"/>
<path d="M87.5999 106.368C86.2609 102.345 85.0794 98.2755 83.8916 94.2065C83.8416 94.0297 83.7237 93.8797 83.5637 93.789C83.4036 93.6983 83.2142 93.6742 83.0364 93.7219C81.327 94.404 79.5919 95.0171 77.8313 95.5611C76.1837 96.1133 74.4892 96.5149 72.7687 96.7607C72.6625 96.7634 72.5583 96.7898 72.4638 96.8381C72.3692 96.8863 72.2867 96.9551 72.2223 97.0394C72.1579 97.1237 72.1134 97.2214 72.0919 97.3252C72.0703 97.429 72.0725 97.5363 72.098 97.6391C72.6913 100.576 73.2511 103.521 73.9435 106.437C74.5869 109.146 75.2729 111.917 76.4387 114.458C77.3889 116.528 78.8401 118.468 80.9407 119.476C82.1941 120.078 83.5672 120.39 84.9582 120.39C86.3492 120.39 87.7223 120.078 88.9757 119.476C90.2472 118.863 91.3478 117.928 92.3757 116.975C93.3656 116.057 94.2924 115.075 95.2351 114.11C95.8602 113.47 94.8778 112.488 94.2518 113.127C92.6764 114.741 91.1334 116.51 89.2251 117.742C88.1656 118.424 86.9578 118.843 85.7028 118.964C84.4478 119.085 83.182 118.904 82.0115 118.436C80.0313 117.673 78.6984 115.938 77.7977 114.089C76.6661 111.765 76.0406 109.167 75.4305 106.669C74.6703 103.557 74.0744 100.409 73.4402 97.2693L72.7699 98.1477C74.577 97.9061 76.3581 97.4996 78.0909 96.9333C79.887 96.3842 81.6589 95.7601 83.4064 95.0612L82.5509 94.5766C83.7387 98.6459 84.9215 102.715 86.2591 106.738C86.5398 107.581 87.8832 107.22 87.5999 106.369V106.368Z" fill="#868180"/>
<path d="M85.4406 99.8661C86.7153 96.4692 87.5413 92.9386 88.7001 89.505C88.9883 88.5649 89.3323 87.6428 89.7303 86.7434C90.0655 86.042 90.5441 85.1913 91.2205 84.7649C91.908 84.3311 92.727 84.1097 93.4605 83.7647C94.3134 83.364 95.1892 83.0156 96.0679 82.6776C98.1248 81.8873 100.22 81.1627 102.17 80.1276C102.96 79.7081 102.258 78.5084 101.468 78.9291C99.7361 79.8486 97.8855 80.5058 96.0569 81.2021C95.0974 81.5675 94.1408 81.9428 93.2036 82.3621C92.8324 82.5284 92.4703 82.7128 92.0917 82.8612C91.6517 83.0186 91.2207 83.1999 90.8005 83.4042C89.0457 84.3207 88.3191 86.4211 87.6977 88.1605C87.078 89.8954 86.558 91.6591 86.0507 93.4292C85.4647 95.4735 84.847 97.5061 84.099 99.4971C84.0515 99.6745 84.0757 99.8635 84.1666 100.023C84.2574 100.183 84.4075 100.301 84.5845 100.351C84.7622 100.396 84.9505 100.37 85.1099 100.28C85.2693 100.19 85.3876 100.041 85.44 99.8661H85.4406Z" fill="#868180"/>
<path d="M81.1067 90.6633C81.4309 89.0577 81.6962 87.3987 81.5175 85.7584C81.3457 84.1817 80.7188 82.7603 80.0623 81.3316C79.7842 80.7265 79.4893 80.1294 79.1868 79.5361C78.8817 78.9381 78.6045 78.298 78.2458 77.7307C77.9309 77.2319 77.4321 76.7187 76.8367 76.5918C76.4553 76.5165 76.0598 76.5618 75.7053 76.7213C75.3508 76.8808 75.055 77.1466 74.8589 77.4817C74.402 78.1852 74.5336 79.0928 74.6118 79.8842C74.6998 80.8353 74.8886 81.7743 75.175 82.6857C75.4467 83.5331 76.7895 83.1708 76.5157 82.3167C76.3023 81.6585 76.1465 80.983 76.0499 80.2979C76.0084 79.9972 75.9818 79.6942 75.963 79.3915C75.9179 79.0795 75.9082 78.7634 75.934 78.4492C75.9919 78.121 76.3489 77.8061 76.6435 77.9993C77.0071 78.2378 77.1563 78.6322 77.3611 79.0263C77.8947 80.0525 78.4278 81.0792 78.9081 82.1323C79.4296 83.2726 79.9641 84.4382 80.1202 85.693C80.312 87.2315 80.0707 88.7868 79.7662 90.2944C79.7218 90.4717 79.7474 90.6592 79.8378 90.8181C79.9282 90.9771 80.0765 91.0952 80.2518 91.1479C80.4295 91.1952 80.6188 91.1708 80.7788 91.0802C80.9388 90.9896 81.0567 90.8399 81.1073 90.6633H81.1067Z" fill="#726A69"/>
<path d="M111.2 67.5257C112.037 67.9573 112.968 68.1723 113.909 68.1511C114.883 68.1926 115.844 67.9101 116.64 67.3479C116.769 67.2173 116.842 67.041 116.842 66.8572C116.842 66.6735 116.769 66.4972 116.64 66.3666C116.507 66.2407 116.331 66.1705 116.148 66.1705C115.965 66.1705 115.789 66.2407 115.657 66.3666C115.867 66.2032 115.702 66.3296 115.648 66.3643C115.594 66.399 115.537 66.4313 115.48 66.4611C115.432 66.486 115.227 66.5675 115.416 66.4976C115.339 66.5265 115.263 66.5554 115.184 66.5817C114.973 66.6484 114.756 66.6977 114.537 66.7292C114.638 66.7141 114.512 66.7309 114.473 66.7349C114.409 66.741 114.345 66.7465 114.282 66.7506C114.128 66.7604 113.975 66.7641 113.821 66.7633C113.684 66.7633 113.546 66.7578 113.409 66.7485C113.346 66.7442 113.283 66.7393 113.221 66.7329C113.215 66.7329 112.989 66.7011 113.127 66.7228C112.922 66.6916 112.72 66.6468 112.522 66.5886C112.437 66.5635 112.354 66.5331 112.271 66.5045C112.092 66.4435 112.37 66.5563 112.209 66.4805C112.106 66.4317 112.003 66.3806 111.902 66.3273C111.742 66.2383 111.554 66.2145 111.376 66.2609C111.199 66.3073 111.047 66.4203 110.951 66.5762C110.86 66.7356 110.835 66.9243 110.881 67.1017C110.928 67.2792 111.042 67.4314 111.2 67.5257H111.2Z" fill="#726A69"/>
<path d="M113.559 61.1534C113.684 61.6037 113.784 62.0604 113.858 62.5217L113.834 62.3372C113.843 62.3997 113.844 62.4631 113.839 62.526L113.864 62.3415C113.859 62.3704 113.852 62.3989 113.843 62.4265L113.913 62.2606C113.905 62.2797 113.895 62.298 113.884 62.3152L113.993 62.1747C113.98 62.1911 113.965 62.2059 113.948 62.2189L114.089 62.1105C114.054 62.1321 114.018 62.1514 113.98 62.1683L114.146 62.0984C114.088 62.1234 114.026 62.1412 113.963 62.1516L114.148 62.127C114.091 62.1336 114.033 62.1336 113.976 62.127L114.161 62.1516C114.096 62.1426 114.033 62.127 113.968 62.1183C113.878 62.0894 113.783 62.0851 113.691 62.1059C113.599 62.1097 113.51 62.1382 113.432 62.1883C113.273 62.2811 113.157 62.4333 113.111 62.6113C113.064 62.7894 113.09 62.9786 113.183 63.1375C113.227 63.2158 113.287 63.2843 113.358 63.339C113.429 63.3936 113.511 63.4333 113.598 63.4556C113.745 63.4752 113.888 63.5134 114.037 63.5192C114.261 63.5204 114.482 63.4679 114.682 63.3662C114.808 63.3091 114.92 63.2245 115.009 63.1186C115.099 63.0128 115.163 62.8883 115.198 62.7544C115.244 62.5365 115.241 62.3113 115.191 62.0943C115.117 61.6537 115.015 61.2168 114.901 60.7845C114.852 60.6071 114.735 60.4563 114.574 60.3654C114.414 60.2745 114.224 60.251 114.046 60.2999C113.868 60.3488 113.717 60.4662 113.626 60.6263C113.535 60.7864 113.512 60.976 113.561 61.1534H113.559Z" fill="#726A69"/>
<path d="M106.303 57.2789C106.074 58.0214 106.223 59.7296 107.633 59.8751C109.496 59.8638 109.595 57.7988 108.968 56.8278C108.454 56.033 106.946 55.7025 106.303 57.2789Z" fill="#726A69"/>
<path d="M121.222 57.2789C121.451 58.0214 121.301 59.7293 119.892 59.8748C118.029 59.8635 117.93 57.7985 118.557 56.8275C119.07 56.033 120.58 55.7025 121.222 57.2789Z" fill="#726A69"/>
</g>
</svg>
