<svg width="160" height="136" viewBox="0 0 160 136" fill="none" xmlns="http://www.w3.org/2000/svg">
<circle cx="80" cy="68" r="68" fill="#F5ECF0"/>
<circle cx="123" cy="43" r="37" fill="#DD99B5"/>
<path d="M106.572 54.224C105.433 54.224 104.379 54.0373 103.408 53.664C102.437 53.272 101.616 52.6747 100.944 51.872C100.291 51.0693 99.8706 50.0613 99.6839 48.848H103.604C103.809 49.408 104.211 49.8373 104.808 50.136C105.405 50.416 106.04 50.556 106.712 50.556C107.477 50.556 108.121 50.4067 108.644 50.108C109.185 49.7907 109.615 49.38 109.932 48.876C110.249 48.3533 110.483 47.784 110.632 47.168C110.781 46.5333 110.865 45.8893 110.884 45.236C110.884 45.1613 110.884 45.0867 110.884 45.012C110.884 44.9187 110.884 44.8347 110.884 44.76C110.473 45.3573 109.979 45.824 109.4 46.16C108.821 46.496 108.224 46.7293 107.608 46.86C106.992 46.9907 106.404 47.056 105.844 47.056C104.668 47.056 103.604 46.8133 102.652 46.328C101.7 45.824 100.944 45.1053 100.384 44.172C99.8426 43.2387 99.5719 42.1093 99.5719 40.784C99.5719 39.3093 99.9079 38.068 100.58 37.06C101.252 36.0333 102.139 35.2587 103.24 34.736C104.36 34.2133 105.583 33.952 106.908 33.952C108.364 33.952 109.587 34.2413 110.576 34.82C111.565 35.3987 112.349 36.1827 112.928 37.172C113.507 38.1613 113.917 39.2627 114.16 40.476C114.421 41.6893 114.552 42.9307 114.552 44.2C114.552 45.5813 114.403 46.8787 114.104 48.092C113.824 49.2867 113.367 50.3507 112.732 51.284C112.116 52.1987 111.295 52.9173 110.268 53.44C109.26 53.9627 108.028 54.224 106.572 54.224ZM106.74 43.696C107.468 43.696 108.065 43.5467 108.532 43.248C109.017 42.9493 109.381 42.576 109.624 42.128C109.885 41.6613 110.016 41.176 110.016 40.672C110.016 40.0373 109.867 39.496 109.568 39.048C109.288 38.5813 108.905 38.2267 108.42 37.984C107.953 37.7227 107.412 37.592 106.796 37.592C106.124 37.592 105.545 37.732 105.06 38.012C104.575 38.292 104.201 38.6653 103.94 39.132C103.679 39.5987 103.548 40.1027 103.548 40.644C103.548 41.5027 103.819 42.2307 104.36 42.828C104.92 43.4067 105.713 43.696 106.74 43.696ZM124.439 54.224C122.983 54.224 121.751 53.9627 120.743 53.44C119.735 52.9173 118.913 52.1987 118.279 51.284C117.644 50.3507 117.187 49.2773 116.907 48.064C116.627 46.832 116.487 45.5253 116.487 44.144C116.487 42.7253 116.627 41.4 116.907 40.168C117.205 38.936 117.672 37.8533 118.307 36.92C118.96 35.9867 119.791 35.2587 120.799 34.736C121.825 34.2133 123.057 33.952 124.495 33.952C125.988 33.952 127.239 34.2227 128.247 34.764C129.273 35.3053 130.095 36.0613 130.711 37.032C131.345 37.984 131.793 39.0667 132.055 40.28C132.335 41.4933 132.475 42.7627 132.475 44.088C132.475 45.4507 132.335 46.7387 132.055 47.952C131.775 49.1653 131.327 50.248 130.711 51.2C130.095 52.1333 129.273 52.8707 128.247 53.412C127.22 53.9533 125.951 54.224 124.439 54.224ZM124.439 50.528C125.353 50.528 126.072 50.3227 126.595 49.912C127.136 49.4827 127.537 48.932 127.799 48.26C128.079 47.588 128.256 46.888 128.331 46.16C128.424 45.4133 128.471 44.7227 128.471 44.088C128.471 43.4907 128.424 42.828 128.331 42.1C128.256 41.3533 128.088 40.6533 127.827 40C127.565 39.328 127.173 38.7773 126.651 38.348C126.128 37.9187 125.419 37.704 124.523 37.704C123.627 37.704 122.908 37.9187 122.367 38.348C121.825 38.7587 121.415 39.3 121.135 39.972C120.873 40.644 120.696 41.344 120.603 42.072C120.509 42.8 120.463 43.472 120.463 44.088C120.463 44.704 120.5 45.3853 120.575 46.132C120.668 46.8787 120.845 47.588 121.107 48.26C121.368 48.932 121.76 49.4827 122.283 49.912C122.824 50.3227 123.543 50.528 124.439 50.528ZM135.671 54L144.113 41.256H147.047L138.659 54H135.671ZM145.607 54.144C144.983 54.144 144.425 54.012 143.933 53.748C143.453 53.484 143.069 53.112 142.781 52.632C142.505 52.14 142.367 51.564 142.367 50.904C142.367 50.244 142.511 49.668 142.799 49.176C143.087 48.684 143.477 48.306 143.969 48.042C144.461 47.778 145.025 47.646 145.661 47.646C146.273 47.646 146.813 47.778 147.281 48.042C147.761 48.294 148.139 48.66 148.415 49.14C148.691 49.608 148.829 50.184 148.829 50.868C148.829 51.552 148.685 52.14 148.397 52.632C148.121 53.112 147.737 53.484 147.245 53.748C146.765 54.012 146.219 54.144 145.607 54.144ZM145.607 52.038C145.859 52.038 146.063 51.984 146.219 51.876C146.387 51.768 146.507 51.63 146.579 51.462C146.651 51.294 146.687 51.114 146.687 50.922C146.687 50.73 146.645 50.55 146.561 50.382C146.489 50.214 146.375 50.076 146.219 49.968C146.063 49.848 145.859 49.788 145.607 49.788C145.211 49.788 144.923 49.908 144.743 50.148C144.563 50.388 144.479 50.658 144.491 50.958C144.503 51.234 144.593 51.486 144.761 51.714C144.941 51.93 145.223 52.038 145.607 52.038ZM137.147 47.592C136.511 47.592 135.953 47.46 135.473 47.196C134.993 46.932 134.615 46.56 134.339 46.08C134.063 45.588 133.925 45.018 133.925 44.37C133.925 43.698 134.063 43.116 134.339 42.624C134.627 42.132 135.017 41.754 135.509 41.49C136.001 41.226 136.559 41.094 137.183 41.094C137.807 41.094 138.353 41.226 138.821 41.49C139.301 41.742 139.673 42.108 139.937 42.588C140.213 43.056 140.351 43.632 140.351 44.316C140.351 44.988 140.213 45.57 139.937 46.062C139.661 46.554 139.283 46.932 138.803 47.196C138.323 47.46 137.771 47.592 137.147 47.592ZM137.147 45.468C137.399 45.468 137.603 45.42 137.759 45.324C137.927 45.216 138.047 45.078 138.119 44.91C138.191 44.73 138.227 44.544 138.227 44.352C138.227 44.172 138.185 43.998 138.101 43.83C138.029 43.65 137.915 43.506 137.759 43.398C137.603 43.29 137.399 43.236 137.147 43.236C136.751 43.236 136.463 43.356 136.283 43.596C136.103 43.836 136.019 44.1 136.031 44.388C136.043 44.664 136.133 44.916 136.301 45.144C136.481 45.36 136.763 45.468 137.147 45.468Z" fill="white"/>
<mask id="mask0_923_22380" style="mask-type:alpha" maskUnits="userSpaceOnUse" x="43" y="52" width="55" height="58">
<path fill-rule="evenodd" clip-rule="evenodd" d="M97.1335 52H43.0004V106.889C43.0001 106.895 43 106.901 43 106.907C43 108.615 55.1181 110 70.0665 110C85.0149 110 97.133 108.615 97.133 106.907C97.133 106.907 97.133 106.906 97.133 106.906H97.1335V52Z" fill="#D9D9D9"/>
</mask>
<g mask="url(#mask0_923_22380)">
<path d="M58.9496 97.1111C56.1038 96.7461 53.2871 95.4822 51.7842 92.9302C50.7225 91.127 50.3866 88.7619 50.5307 86.6745C50.8034 82.721 52.6105 79.2683 53.0578 75.3453C53.2317 73.8205 53.3532 72.2915 53.4397 70.7591C53.6255 67.4804 54.2377 64.0643 55.6802 61.0931C57.6318 57.0732 60.7482 55.0439 64.8864 53.6543C70.9326 51.624 77.8897 52.8236 82.2564 57.5909C88.063 63.93 89.1944 73.5827 89.6996 81.7746C89.8652 84.4624 89.7096 87.6837 88.7503 90.2302C87.1889 94.3741 83.4693 96.5898 79.1892 96.7382L58.9493 97.1118L58.9496 97.1111Z" fill="#ECBB7A"/>
<path d="M57.9105 85.0737C57.5333 84.2578 57.2498 83.4681 57.0389 82.7417C56.3455 82.917 55.5975 82.6565 55.1024 82.2484C53.985 81.3268 53.5252 80.0464 53.2446 79.2092C52.8483 78.0272 52.8307 76.1191 53.4317 75.0862C53.6329 74.7402 54.1 74.151 55.1926 74.1168C55.6945 74.101 56.2805 74.2605 56.7141 74.6805C56.7141 74.6805 56.7626 74.7276 56.8111 74.7743L57.0051 74.6274C58.1814 73.7349 67.3276 65.1367 68.252 64.0757C68.3131 64.0689 68.3594 64.0628 68.3594 64.0628C74.8825 63.2045 78.9017 68.792 80.9352 73.1802C82.5002 76.5578 83.1796 80.2662 82.9066 83.9054C82.8063 84.1608 82.7172 84.3749 82.6457 84.5179C82.1916 85.733 79.7273 89.9466 76.6045 91.6762C76.6156 92.3283 76.5959 92.5643 76.6555 93.3846C76.6824 93.7532 76.7108 94.1513 76.8473 94.5109C77.0306 94.9837 77.2767 95.3933 77.673 95.7127C78.5119 96.3885 79.3745 96.7115 80.4365 97.111C80.4365 97.111 78.5787 102.333 69.2375 102.333C59.8962 102.333 59.1321 97.5364 59.1321 97.5364C59.5477 97.3729 60.2401 97.1114 60.2401 97.1114C61.3021 96.7118 62.1644 96.3888 63.0036 95.713C63.3999 95.3933 63.6464 94.9837 63.8293 94.5113C63.9658 94.1516 63.9942 93.7535 64.0211 93.3849C64.0764 92.6247 64.0635 92.3664 64.07 91.8142C62.6106 91.1118 61.3025 89.9933 60.0583 88.4923C59.1274 87.3695 58.43 86.1976 57.9109 85.0745L57.9105 85.0737Z" fill="white"/>
<path d="M57.2228 74.1722C56.3325 73.3717 55.0607 73.178 53.966 73.6717C53.1634 74.0335 52.6798 74.7797 52.4509 75.6071C51.908 77.5713 52.4114 79.8664 53.5305 81.546C54.2793 82.6691 55.4527 83.6722 56.8919 83.4911C57.2771 83.4426 57.6105 83.1954 57.6105 82.7726C57.6105 82.4219 57.2796 82.0051 56.8919 82.054C54.9281 82.3012 53.8334 79.4421 53.7041 77.8655C53.6365 77.0388 53.6387 75.9984 54.1503 75.2956C54.077 75.3962 54.22 75.2198 54.2243 75.2159C54.252 75.19 54.3206 75.1207 54.3407 75.1052C54.4905 74.9902 54.6651 74.9209 54.8476 74.8789C55.3262 74.7682 55.8357 74.8559 56.2061 75.1889C56.8919 75.8058 57.9116 74.7926 57.2221 74.1729L57.2228 74.1722Z" fill="#726A69"/>
<path d="M62.9137 76.0775C62.6906 76.8033 62.8361 78.4721 64.2107 78.6144C66.0275 78.6036 66.1242 76.5856 65.5127 75.6367C65.0119 74.8599 63.5392 74.537 62.9137 76.0775Z" fill="#726A69"/>
<path d="M77.4616 76.0774C77.685 76.8032 77.5395 78.472 76.1649 78.6139C74.348 78.6032 74.2514 76.5851 74.8629 75.6362C75.3637 74.8595 76.836 74.5365 77.4616 76.0774Z" fill="#726A69"/>
<path d="M59.3233 98.229C60.6167 97.7214 62.0178 97.3287 63.1499 96.4995C63.88 95.9649 64.4412 95.2363 64.6266 94.332C64.7796 93.5865 64.7828 92.8018 64.7872 92.043C64.7922 91.1182 63.3551 91.1171 63.35 92.043C63.3468 92.6563 63.3583 93.3019 63.2498 93.9026C63.1294 94.5684 62.7659 95.039 62.2065 95.4112C61.2059 96.0766 60.0616 96.4039 58.9413 96.8437C58.5803 96.9852 58.3288 97.3251 58.4394 97.7275C58.5339 98.0717 58.96 98.372 59.3233 98.2294V98.229Z" fill="#726A69"/>
<path d="M75.8896 92.0429C75.8965 93.3331 75.9011 94.6937 76.7275 95.7597C77.5678 96.8436 79.0089 97.3391 80.2455 97.804C80.6088 97.9405 81.0334 97.652 81.1294 97.3021C81.24 96.8989 80.9921 96.5555 80.6275 96.4182C80.3343 96.3079 80.0418 96.1966 79.7512 96.0801C79.6675 96.0467 79.7109 96.0643 79.661 96.0428C79.5996 96.0166 79.5388 95.9896 79.4781 95.9619C79.3581 95.9073 79.2388 95.8506 79.1214 95.7902C78.8612 95.6569 78.609 95.5085 78.3687 95.3415C78.1836 95.2129 77.9814 95.0443 77.8571 94.8877C77.8326 94.8572 77.7263 94.6897 77.6817 94.6096C77.6117 94.4835 77.5682 94.3955 77.5405 94.3193C77.4345 94.0287 77.4062 93.7998 77.3839 93.5127C77.3458 93.0227 77.3296 92.5337 77.3271 92.0422C77.325 91.6538 76.9984 91.3237 76.6086 91.3237C76.2187 91.3237 75.8879 91.6524 75.89 92.0422L75.8896 92.0429Z" fill="#726A69"/>
<path d="M75.1449 93.0103C76.9284 92.6032 78.4549 91.4136 79.697 90.117C80.8524 88.9109 81.8605 87.532 82.6793 86.0766C83.0688 85.3846 83.3436 84.7551 83.5973 84.0905C83.736 83.728 83.4439 83.3022 83.0954 83.2066C82.6905 83.0953 82.3506 83.3446 82.2115 83.7086C82.1174 83.9554 82.0111 84.1965 81.9083 84.4397C81.9945 84.2353 81.8214 84.6226 81.788 84.6908C81.632 85.0084 81.4606 85.3185 81.2817 85.6235C80.8132 86.4225 80.2916 87.1964 79.7124 87.9193C78.4384 89.5105 76.8184 91.1553 74.7623 91.6245C73.8608 91.8304 74.2424 93.2161 75.1442 93.0103H75.1449Z" fill="#726A69"/>
<path d="M56.083 81.8962C56.6869 84.6015 57.9458 87.1312 59.7501 89.2362C61.4865 91.2618 63.7194 92.8653 66.4029 93.2767C66.7859 93.3352 67.1757 93.1797 67.2867 92.7748C67.3801 92.4345 67.1706 91.9498 66.7848 91.8909C64.3151 91.5126 62.3635 90.0838 60.7662 88.2202C59.1217 86.302 58.0173 83.9739 57.4687 81.5146C57.2671 80.6125 55.8814 80.994 56.083 81.8965V81.8962Z" fill="#726A69"/>
<path d="M67.6681 86.1251C68.4981 86.5634 69.3916 86.7481 70.33 86.742C71.2904 86.7359 72.254 86.544 73.0225 85.9454C73.3203 85.7134 73.2844 85.1698 73.0225 84.9294C72.7063 84.6395 72.324 84.6819 72.0064 84.9294C72.2259 84.7584 72.0621 84.8845 72.0057 84.9208C71.9525 84.9549 71.8979 84.9862 71.8422 85.0156C71.8135 85.0307 71.7837 85.0444 71.7546 85.0591C71.6723 85.1015 71.6913 85.0433 71.7898 85.0469C71.7291 85.0447 71.6234 85.1098 71.5642 85.1288C71.3583 85.1949 71.1463 85.2406 70.9325 85.2729C71.0407 85.2564 70.9311 85.2722 70.8808 85.2768C70.819 85.2829 70.7569 85.288 70.6947 85.2923C70.5452 85.302 70.3954 85.3056 70.2456 85.3049C70.1116 85.3041 69.9776 85.2995 69.8436 85.2905C69.7821 85.2862 69.7207 85.2815 69.6596 85.275C69.646 85.2736 69.4236 85.2388 69.5791 85.2664C69.3801 85.2308 69.1832 85.1935 68.9892 85.1353C68.9066 85.1105 68.8261 85.081 68.7445 85.053C68.5635 84.9912 68.8581 85.1108 68.6942 85.0336C68.5929 84.9858 68.4934 84.9362 68.3942 84.8838C68.0619 84.7085 67.5977 84.7886 67.4113 85.1417C67.2359 85.4737 67.3142 85.9376 67.6692 86.1247L67.6681 86.1251Z" fill="#726A69"/>
<path d="M69.9507 79.8729C70.0661 80.3127 70.1767 80.7596 70.2428 81.2098L70.2173 81.0186C70.2252 81.0804 70.2284 81.1412 70.2223 81.2033L70.2478 81.0122C70.2435 81.0409 70.2371 81.0679 70.2277 81.0952L70.3003 80.9234C70.2917 80.9428 70.2827 80.9594 70.2708 80.977L70.3833 80.8315C70.3696 80.848 70.3564 80.8609 70.3395 80.8746L70.485 80.7621C70.4512 80.7837 70.4156 80.8013 70.379 80.8182L70.5507 80.7456C70.4925 80.77 70.4347 80.7876 70.3722 80.7977L70.5633 80.7722C70.5069 80.779 70.4519 80.7783 70.3959 80.7722L70.587 80.7977C70.5238 80.7887 70.462 80.7736 70.3987 80.765C70.3032 80.7352 70.2076 80.7309 70.112 80.7521C70.0165 80.7564 69.9274 80.7848 69.8447 80.8372C69.6956 80.9245 69.5534 81.0952 69.5146 81.2665C69.4725 81.4505 69.4819 81.6571 69.5871 81.8202C69.6805 81.965 69.8368 82.1263 70.0165 82.1504C70.1631 82.1701 70.3057 82.2075 70.4548 82.214C70.6851 82.224 70.8989 82.1532 71.1044 82.0587C71.3591 81.942 71.5581 81.711 71.626 81.4368C71.6835 81.2044 71.6591 81.0036 71.6196 80.7704C71.5466 80.3396 71.4471 79.9128 71.3365 79.4903C71.2908 79.3167 71.1604 79.1511 71.0063 79.0609C70.8522 78.9708 70.6251 78.9327 70.4526 78.9884C70.0783 79.1094 69.8487 79.4827 69.9507 79.8722V79.8729Z" fill="#726A69"/>
<path d="M66.2851 61.0489C66.487 61.5009 66.6921 61.9514 66.8926 62.4041C67.0155 62.6815 67.1369 62.9596 67.2558 63.2387C67.2731 63.2793 67.3313 63.4259 67.2486 63.2211C67.2616 63.2527 67.2749 63.284 67.2882 63.3152C67.3162 63.3821 67.3438 63.4489 67.3712 63.5161C67.4207 63.6371 67.4689 63.7589 67.5156 63.8811C67.5842 64.0607 67.6744 64.2102 67.8458 64.3104C67.9999 64.4006 68.227 64.4387 68.3994 64.383C68.7404 64.2727 69.045 63.875 68.9013 63.4992C68.4892 62.4221 67.9959 61.3766 67.526 60.3239C67.3722 59.9793 66.8444 59.8716 66.543 60.0659C66.1866 60.2955 66.1209 60.6807 66.2851 61.0489Z" fill="#D0903A"/>
<path d="M67.7559 63.5542C66.5958 64.8951 65.2061 66.0785 63.922 67.2961C62.0692 69.0533 60.2064 70.8009 58.3177 72.5197C57.9487 72.8556 57.5783 73.1904 57.2039 73.5206C57.0706 73.6381 56.9369 73.7552 56.8019 73.8698C56.7307 73.9302 56.3959 74.1957 56.6431 74.0063C56.3355 74.2417 56.172 74.625 56.3851 74.9893C56.5622 75.2922 57.058 75.4844 57.3681 75.2473C58.8465 74.1159 60.1816 72.7658 61.5425 71.5004C63.4259 69.7493 65.2999 67.9874 67.1469 66.1982C67.6948 65.6675 68.2722 65.1476 68.7719 64.5699C69.3744 63.8736 68.362 62.8529 67.7559 63.5539V63.5542Z" fill="#D0903A"/>
<path d="M68.36 64.7806C70.4816 64.5151 72.5366 64.9326 74.3557 66.0636C76.0454 67.1142 77.4085 68.6422 78.5046 70.2869C81.1392 74.2401 82.5163 78.9664 82.2012 83.7225C82.0061 86.6693 81.1334 89.545 79.6715 92.1095C79.2127 92.9143 80.4541 93.639 80.9125 92.8349C83.7091 87.9289 84.3767 82.04 82.9316 76.5955C81.7952 72.3133 79.3597 67.8676 75.7037 65.2402C73.5721 63.7082 70.968 63.0177 68.3597 63.3439C67.9745 63.392 67.6411 63.6396 67.6411 64.0624C67.6411 64.4135 67.972 64.8295 68.3597 64.781L68.36 64.7806Z" fill="#D0903A"/>
<path d="M58.9497 96.3926C57.2094 96.1605 55.4295 95.5576 54.047 94.4489C52.5567 93.2539 51.7415 91.5718 51.3984 89.7175C50.6134 85.4773 52.5603 81.4911 53.433 77.4367C53.9209 75.1707 54.028 72.8279 54.1728 70.5206C54.3089 68.3574 54.6359 66.2006 55.2693 64.124C55.8193 62.3211 56.6033 60.5513 57.7713 59.0592C58.7852 57.764 60.0657 56.7167 61.4923 55.9069C67.599 52.4406 75.8689 52.3846 81.1283 57.4619C86.4532 62.6024 87.9866 70.5834 88.6642 77.6461C89.0303 81.461 89.4428 85.4816 88.3344 89.2135C87.3704 92.4595 84.8853 94.843 81.6058 95.679C80.8122 95.8813 80.007 95.9866 79.1893 96.0189C78.2678 96.0552 78.2631 97.4927 79.1893 97.456C82.8187 97.3127 86.2833 95.7211 88.3272 92.6417C90.6309 89.1707 90.6197 84.6578 90.3456 80.6601C89.8171 72.9453 88.7095 64.6184 83.815 58.3285C81.4355 55.2706 78.1323 53.1556 74.3276 52.3666C70.4901 51.5708 66.5646 52.1094 62.9679 53.6068C61.3152 54.2948 59.7574 55.1621 58.3964 56.3338C57.0269 57.5125 55.9239 58.9913 55.1205 60.6066C54.0898 62.6793 53.4578 64.9306 53.0982 67.2116C52.7195 69.6141 52.6785 72.0482 52.4339 74.4651C52.1996 76.7781 51.5709 78.9625 50.9249 81.1872C50.3112 83.3012 49.7651 85.4719 49.7806 87.6887C49.795 89.7854 50.2487 92.009 51.4602 93.7565C52.5984 95.3981 54.273 96.5205 56.138 97.1869C57.0499 97.5128 57.9915 97.7025 58.9494 97.83C59.3349 97.8814 59.6679 97.4628 59.6679 97.1115C59.6679 96.6807 59.336 96.4443 58.9494 96.3929L58.9497 96.3926Z" fill="#D0903A"/>
<path d="M66.8102 110.308C65.5941 106.541 64.4738 102.618 63.5103 98.7247C65.6666 99.5238 67.989 99.8838 70.3153 99.8205C72.6413 99.8838 74.9597 99.5241 77.1204 98.7247C76.1576 102.618 75.0377 106.54 73.8212 110.308H66.8102Z" fill="#95D9FF"/>
<path d="M44.4917 110.308C46.4649 102.448 55.0333 96.8057 62.8422 95.895C63.9366 100.704 65.2997 105.626 66.8111 110.308H44.4917Z" fill="white"/>
<path d="M73.8218 110.308C75.325 105.652 76.6809 100.758 77.7738 95.9765C85.4107 97.1021 93.5871 102.653 95.5089 110.308H73.8218Z" fill="white"/>
<path d="M63.5873 99.514C65.7685 100.269 68.0169 100.543 70.3159 100.539C71.4426 100.536 72.5488 100.496 73.6661 100.335C74.2414 100.252 74.8122 100.143 75.3767 100.007C75.645 99.9415 75.912 99.87 76.1771 99.7924C76.3097 99.7536 76.4416 99.7134 76.5731 99.6713C76.6111 99.6591 76.969 99.5391 76.8569 99.5391C77.7817 99.5391 77.7831 98.102 76.8569 98.102C76.6302 98.102 76.4031 98.2181 76.1912 98.2856C75.9282 98.3693 75.663 98.4473 75.3964 98.5184C74.8625 98.6614 74.3215 98.7789 73.7764 98.8716C72.6878 99.057 71.5863 99.1155 70.4833 99.1051C69.404 99.0951 68.3359 99.0911 67.2645 98.9366C66.1425 98.7746 65.0406 98.4987 63.9699 98.1279C63.094 97.8246 62.7179 99.2125 63.588 99.5136L63.5873 99.514Z" fill="#64C7FF"/>
<path d="M45.1842 110.498C46.7255 104.472 52.0665 100.018 57.7104 97.8996C59.3211 97.2949 60.9939 96.862 62.6986 96.6292C63.0834 96.5767 63.2936 96.0838 63.2005 95.7454C63.0867 95.3304 62.7026 95.1906 62.3167 95.2434C55.9316 96.1151 49.5918 99.7567 46.0087 105.172C45.0085 106.683 44.2479 108.36 43.7984 110.116C43.5692 111.013 44.955 111.396 45.1842 110.498Z" fill="#726A69"/>
<path d="M96.2016 110.116C94.5514 103.663 88.9269 98.9356 82.9123 96.6054C81.228 95.9529 79.4736 95.4876 77.6833 95.2433C77.2993 95.1909 76.912 95.336 76.7995 95.7452C76.7075 96.0804 76.9145 96.5762 77.3014 96.6291C83.3129 97.4497 89.3628 100.777 92.7504 105.897C93.6877 107.313 94.3948 108.852 94.8159 110.498C95.0447 111.394 96.4312 111.014 96.2016 110.116Z" fill="#726A69"/>
<path d="M62.1243 95.996C63.2413 100.886 64.5793 105.725 66.1177 110.498C66.4001 111.375 67.7883 111 67.5034 110.116C65.9646 105.343 64.6267 100.504 63.51 95.6141C63.3042 94.7127 61.9184 95.0943 62.1243 95.996Z" fill="#726A69"/>
<path d="M74.5148 110.498C76.0532 105.725 77.3915 100.886 78.506 95.9961C78.7112 95.0957 77.3262 94.7113 77.1203 95.6142C76.0058 100.504 74.6679 105.343 73.1291 110.116C72.8445 110.999 74.2317 111.376 74.5148 110.498Z" fill="#726A69"/>
</g>
<mask id="mask1_923_22380" style="mask-type:alpha" maskUnits="userSpaceOnUse" x="86" y="62" width="55" height="58">
<path fill-rule="evenodd" clip-rule="evenodd" d="M140.133 62H86.0004V116.889C86.0001 116.895 86 116.9 86 116.906C86 118.615 98.1181 120 113.067 120C128.015 120 140.133 118.615 140.133 116.906H140.133V62Z" fill="#D9D9D9"/>
</mask>
<g mask="url(#mask1_923_22380)">
<path d="M100 107.724C95.8589 108.411 93.217 105.124 93.2364 102.757C93.2526 101.128 93.6341 98.4569 94.0803 96.853C94.7366 94.5085 95.2052 90.3859 95.2052 84.6694C94.9253 76.2346 97.1441 70.1176 100.642 66.7686C102.75 64.7501 107.502 61.9998 112.841 61.9998C116.097 61.9998 118.389 62.5919 120.59 63.4841L121.774 63.9642C122.37 64.3132 122.966 64.6619 122.966 64.6619C123.995 65.2645 124.363 65.781 125.422 66.796C128.083 69.3453 129.932 73.9319 130.226 78.0391C130.311 79.2241 130.478 82.0537 130.4 84.4407C130.455 88.5752 130.927 92.6085 132.102 96.5796C132.785 98.884 133.7 101.849 132.964 104.137C132.065 106.928 128.84 108.647 126.039 107.649" fill="#645D5C"/>
<path d="M114.754 77.22C116.604 76.1413 117.922 75.1453 119.704 73.6585C121.319 77.529 124.08 81.441 126.917 83.7397C127.284 83.5286 127.7 83.4483 128.07 83.4631C129.164 83.5059 129.627 84.0995 129.826 84.4478C130.42 85.4873 130.387 87.3985 129.981 88.5791C129.694 89.4155 129.223 90.6945 128.097 91.609C127.633 91.9858 126.951 92.2325 126.3 92.1201L126.129 92.0902C125.919 92.772 125.662 93.4395 125.505 93.7636C125.051 94.9814 122.582 99.2028 119.453 100.936C119.464 101.589 119.445 101.825 119.504 102.646C119.531 103.016 119.56 103.414 119.697 103.775C119.88 104.248 120.127 104.658 120.524 104.979C120.634 105.067 120.744 105.15 120.855 105.227C120.648 106.139 120.43 107.054 120.204 107.972C118.035 108.771 115.713 109.131 113.384 109.068C111.594 109.116 109.807 108.915 108.095 108.457C107.577 108.319 107.065 108.156 106.563 107.97C106.314 106.964 106.076 105.961 105.849 104.963C106.234 104.645 106.476 104.241 106.657 103.775C106.793 103.414 106.822 103.016 106.849 102.646C106.904 101.885 106.891 101.626 106.898 101.073C105.436 100.369 104.126 99.2489 102.879 97.7454C101.27 95.8033 100.357 93.715 99.8549 91.985C99.1605 92.1612 98.4113 91.9004 97.9153 91.4916C96.7962 90.5688 96.3356 89.2858 96.0546 88.4473C95.6577 87.2634 95.64 85.3519 96.2419 84.3171C96.4436 83.9702 96.9115 83.3806 98.0057 83.346C98.3688 83.3345 98.7754 83.4148 99.1374 83.6183C102.069 82.7049 105.82 81.6679 109.232 80.0471C111.661 78.8938 113.359 78.0333 114.754 77.22H114.754Z" fill="white"/>
<path d="M125.693 90.9078C125.49 91.8655 125.144 92.7721 124.77 93.6726C124.775 93.6617 124.813 93.5836 124.752 93.71C124.727 93.7626 124.703 93.8163 124.678 93.8688C124.615 94.0007 124.548 94.1311 124.479 94.2604C124.311 94.5802 124.129 94.8932 123.94 95.2015C122.969 96.7838 121.789 98.2746 120.35 99.4578C119.547 100.118 118.625 100.651 117.607 100.885C116.704 101.092 117.086 102.481 117.99 102.274C120.05 101.802 121.767 100.31 123.118 98.7512C124.239 97.4581 125.284 96.0008 125.996 94.4372C126.201 93.9877 126.265 93.8454 126.463 93.3279C126.716 92.6655 126.935 91.9855 127.081 91.291C127.273 90.3866 125.884 89.9998 125.692 90.9081L125.693 90.9078Z" fill="#726A69"/>
<path d="M98.8955 91.1387C99.5003 93.8487 100.762 96.3826 102.569 98.4911C104.308 100.52 106.545 102.126 109.234 102.539C109.617 102.597 110.008 102.441 110.12 102.035C110.213 101.694 110.003 101.208 109.616 101.149C107.143 100.77 105.188 99.3394 103.588 97.4725C101.941 95.5513 100.834 93.2191 100.285 90.7558C100.083 89.8514 98.6934 90.2339 98.8955 91.1387Z" fill="#726A69"/>
<path d="M100.039 83.4012C99.1474 82.5991 97.873 82.4053 96.7763 82.8995C95.972 83.2618 95.4875 84.0096 95.2584 84.8384C94.7146 86.806 95.2188 89.1051 96.3401 90.7875C97.09 91.9127 98.266 92.9177 99.7078 92.7361C100.094 92.6875 100.428 92.4397 100.428 92.0158C100.428 91.6642 100.096 91.2464 99.7078 91.2954C97.7412 91.5428 96.6444 88.6794 96.5151 87.1007C96.4474 86.2726 96.4496 85.2306 96.9621 84.5268C96.8886 84.628 97.0316 84.4512 97.0363 84.4468C97.0637 84.4213 97.1332 84.3507 97.1527 84.3359C97.3025 84.2207 97.4775 84.1515 97.6602 84.1094C98.1396 83.9988 98.6496 84.0863 99.0202 84.4198C99.7078 85.0383 100.73 84.0226 100.039 83.4012H100.039Z" fill="#726A69"/>
<path d="M127.051 84.5248C127.407 84.2093 127.894 84.1228 128.353 84.2168C128.556 84.2582 128.755 84.3321 128.92 84.4621C128.878 84.4286 129.056 84.5961 129.035 84.5752C129.054 84.5939 129.18 84.76 129.107 84.6566C129.611 85.3672 129.605 86.406 129.531 87.2348C129.389 88.816 128.266 91.6618 126.3 91.3989C125.914 91.3474 125.58 91.767 125.58 92.1192C125.58 92.5515 125.913 92.7877 126.3 92.8396C128.669 93.1562 130.113 90.5737 130.71 88.6673C131.239 86.9798 131.266 84.2892 129.608 83.1921C128.505 82.4627 126.997 82.6522 126.032 83.5062C125.337 84.1221 126.358 85.1378 127.051 84.5248Z" fill="#726A69"/>
<path d="M110.502 95.3749C111.333 95.814 112.228 95.9988 113.168 95.9926C114.13 95.9865 115.095 95.7942 115.865 95.1945C116.164 94.9618 116.128 94.4169 115.865 94.1759C115.548 93.8852 115.165 93.9277 114.847 94.1759C115.067 94.0044 114.903 94.1309 114.846 94.1672C114.793 94.2015 114.738 94.2328 114.682 94.2623C114.653 94.2775 114.623 94.2911 114.594 94.3059C114.513 94.3481 114.529 94.2908 114.63 94.2937C114.568 94.2919 114.464 94.3563 114.403 94.3758C114.197 94.4421 113.985 94.4878 113.771 94.5202C113.88 94.5037 113.77 94.5195 113.719 94.5242C113.657 94.5303 113.595 94.5353 113.532 94.5397C113.383 94.5494 113.233 94.553 113.083 94.5523C112.948 94.5516 112.814 94.5469 112.68 94.5379C112.618 94.5335 112.557 94.5289 112.495 94.5227C112.482 94.5213 112.259 94.4864 112.415 94.5141C112.215 94.4784 112.018 94.441 111.824 94.383C111.741 94.3581 111.66 94.3286 111.578 94.3005C111.397 94.2386 111.692 94.3585 111.528 94.2811C111.427 94.2332 111.327 94.1834 111.228 94.1312C110.895 93.9554 110.429 94.0358 110.243 94.3898C110.067 94.7226 110.145 95.1876 110.501 95.3753L110.502 95.3749Z" fill="#726A69"/>
<path d="M112.787 89.1117C112.903 89.5522 113.014 89.9999 113.08 90.4509L113.055 90.2592C113.063 90.3212 113.066 90.3821 113.06 90.444L113.085 90.2524C113.081 90.2812 113.074 90.3082 113.065 90.3356L113.138 90.1634C113.129 90.1829 113.12 90.1995 113.109 90.2168L113.221 90.0709C113.208 90.0874 113.194 90.1004 113.178 90.1141L113.324 90.0014C113.29 90.023 113.254 90.0406 113.218 90.0575L113.39 89.9848C113.332 90.0093 113.274 90.0269 113.211 90.037L113.403 90.0114C113.346 90.0183 113.292 90.0176 113.235 90.0114L113.427 90.037C113.363 90.0284 113.301 90.0129 113.238 90.0042C113.142 89.9743 113.046 89.97 112.951 89.9913C112.855 89.9956 112.765 90.0241 112.683 90.0766C112.533 90.1642 112.39 90.3353 112.352 90.5071C112.309 90.6915 112.319 90.8986 112.424 91.0621C112.518 91.2073 112.675 91.369 112.855 91.3931C113.002 91.4129 113.144 91.4504 113.294 91.4569C113.525 91.4669 113.739 91.396 113.945 91.3013C114.201 91.1842 114.4 90.9526 114.468 90.6778C114.526 90.4447 114.501 90.2434 114.461 90.01C114.389 89.5785 114.289 89.151 114.178 88.7278C114.132 88.5538 114.002 88.3877 113.847 88.2973C113.693 88.2069 113.465 88.1687 113.292 88.2246C112.917 88.346 112.687 88.7202 112.789 89.1106L112.787 89.1117Z" fill="#726A69"/>
<path d="M105.739 85.3103C105.515 86.0371 105.661 87.7091 107.038 87.8514C108.858 87.8406 108.955 85.8192 108.343 84.8687C107.841 84.0907 106.366 83.7669 105.739 85.3103H105.739Z" fill="#726A69"/>
<path d="M120.312 85.3102C120.536 86.0371 120.39 87.709 119.013 87.8513C117.193 87.8405 117.097 85.8192 117.709 84.8686C118.211 84.0906 119.686 83.7668 120.312 85.3106V85.3102Z" fill="#726A69"/>
<path d="M102.143 107.499C103.439 106.991 104.843 106.598 105.976 105.767C106.708 105.231 107.27 104.501 107.456 103.595C107.609 102.848 107.613 102.062 107.617 101.302C107.622 100.375 106.181 100.374 106.176 101.302C106.173 101.916 106.184 102.563 106.076 103.164C105.955 103.831 105.591 104.302 105.031 104.675C104.029 105.341 102.883 105.669 101.761 106.11C101.399 106.252 101.146 106.592 101.257 106.996C101.352 107.341 101.779 107.642 102.143 107.499V107.499Z" fill="#726A69"/>
<path d="M118.737 101.302C118.741 102.089 118.733 102.921 118.918 103.689C119.143 104.623 119.747 105.337 120.523 105.87C121.667 106.657 123.053 107.037 124.336 107.54C124.699 107.682 125.127 107.384 125.222 107.036C125.334 106.628 125.083 106.293 124.719 106.15C123.61 105.716 122.472 105.398 121.47 104.77C120.885 104.403 120.469 103.972 120.308 103.306C120.155 102.669 120.182 101.958 120.178 101.302C120.173 100.375 118.732 100.373 118.737 101.302L118.737 101.302Z" fill="#726A69"/>
<path d="M119.195 73.1487C117.526 74.5393 115.797 75.8104 113.901 76.8776C111.113 78.4473 108.189 79.8567 105.175 80.9337C103.412 81.564 101.618 82.1046 99.8278 82.6521C98.9435 82.9226 99.3206 84.3136 100.211 84.0413C103.596 83.0058 106.947 81.9375 110.147 80.4053C112.546 79.257 114.952 78.0785 117.139 76.5546C118.204 75.8126 119.217 74.9978 120.213 74.1669C120.926 73.5726 119.903 72.5587 119.195 73.1487Z" fill="#726A69"/>
<path d="M125.899 81.8322C123.57 79.4424 121.692 76.5404 120.399 73.467C120.248 73.1086 119.922 72.8511 119.512 72.9638C119.175 73.0567 118.857 73.4889 119.009 73.8498C120.403 77.1621 122.367 80.2716 124.88 82.8508C125.528 83.5161 126.547 82.4968 125.899 81.8322Z" fill="#726A69"/>
<path d="M109.87 119.581C108.651 115.805 107.528 111.872 106.562 107.969C108.723 108.77 111.052 109.131 113.384 109.067C115.716 109.131 118.04 108.77 120.206 107.969C119.241 111.871 118.118 115.804 116.898 119.581H109.87Z" fill="#ECBB7A"/>
<path d="M87.4935 119.581C89.4717 111.701 98.0617 106.045 105.89 105.132C106.987 109.953 108.354 114.888 109.869 119.581H87.4932H87.4935Z" fill="white"/>
<path d="M116.898 119.581C118.405 114.914 119.765 110.008 120.86 105.214C128.517 106.342 136.714 111.907 138.64 119.581H116.898Z" fill="white"/>
<path d="M106.639 108.76C108.826 109.517 111.08 109.792 113.384 109.787C114.514 109.785 115.623 109.744 116.743 109.583C117.32 109.5 117.892 109.391 118.458 109.254C118.727 109.189 118.995 109.117 119.26 109.039C119.393 109 119.526 108.96 119.657 108.918C119.696 108.906 120.054 108.785 119.942 108.785C120.869 108.785 120.87 107.345 119.942 107.345C119.715 107.345 119.487 107.461 119.274 107.529C119.011 107.613 118.745 107.691 118.478 107.762C117.942 107.906 117.4 108.023 116.854 108.116C115.762 108.302 114.658 108.361 113.552 108.35C112.47 108.34 111.399 108.336 110.325 108.181C109.2 108.019 108.096 107.742 107.022 107.371C106.144 107.067 105.767 108.458 106.64 108.76L106.639 108.76Z" fill="#D0903A"/>
<path d="M88.1882 119.773C89.7334 113.731 95.0879 109.266 100.746 107.142C102.361 106.536 104.038 106.102 105.747 105.868C106.133 105.816 106.343 105.322 106.25 104.982C106.136 104.566 105.751 104.426 105.364 104.479C98.9628 105.353 92.607 109.004 89.0149 114.433C88.0121 115.948 87.2496 117.628 86.799 119.39C86.5692 120.288 87.9584 120.672 88.1882 119.773Z" fill="#726A69"/>
<path d="M139.335 119.39C137.68 112.92 132.042 108.181 126.012 105.844C124.323 105.19 122.564 104.724 120.77 104.479C120.385 104.426 119.996 104.572 119.884 104.982C119.791 105.318 119.999 105.815 120.387 105.868C126.413 106.691 132.478 110.027 135.875 115.16C136.814 116.579 137.523 118.122 137.945 119.772C138.175 120.67 139.565 120.29 139.335 119.39Z" fill="#726A69"/>
<path d="M105.172 105.234C106.292 110.136 107.633 114.987 109.175 119.773C109.458 120.651 110.85 120.276 110.564 119.39C109.022 114.604 107.68 109.753 106.561 104.851C106.355 103.947 104.965 104.33 105.172 105.234Z" fill="#726A69"/>
<path d="M117.593 119.773C119.135 114.987 120.477 110.136 121.594 105.234C121.8 104.331 120.412 103.946 120.205 104.851C119.088 109.753 117.747 114.604 116.204 119.39C115.919 120.274 117.309 120.653 117.593 119.773Z" fill="#726A69"/>
</g>
<mask id="mask2_923_22380" style="mask-type:alpha" maskUnits="userSpaceOnUse" x="0" y="62" width="55" height="58">
<path fill-rule="evenodd" clip-rule="evenodd" d="M54.1331 62H7.05865e-05V116.9C2.35372e-05 116.902 0 116.904 0 116.907C0 118.615 12.1181 120 27.0665 120C42.015 120 54.133 118.615 54.133 116.907C54.133 116.907 54.133 116.906 54.133 116.906H54.1331V62Z" fill="#D9D9D9"/>
</mask>
<g mask="url(#mask2_923_22380)">
<path d="M19.8625 100.584C15.7656 100.584 10.4254 98.7256 8.81281 95.7304C7.40469 93.115 8.05564 90.2138 8.56726 87.2604C9.85585 80.1791 9.14693 72.1941 14.8169 66.7658C16.9238 64.7484 21.6721 62.0002 27.0068 62.0002C30.2886 62.0002 33.7828 62.6714 36.6307 64.3668C38.2228 65.3148 39.6198 66.6027 40.6124 68.1804C42.9322 70.6528 43.7692 73.5151 44.2373 76.7252C44.7576 80.2925 45.24 83.8692 45.9713 87.4012C46.6341 90.603 47.3171 93.573 45.2069 96.3709C42.6855 99.7135 37.8196 100.755 33.7608 100.755" fill="#645D5C"/>
<path d="M37.6259 78.5659C36.5217 76.742 35.2262 75.0386 33.8656 73.6514C30.7419 76.2581 29.0454 77.3544 23.4014 80.0353C19.9907 81.6555 16.2409 82.692 13.3105 83.6047C12.9519 83.406 12.5505 83.3278 12.1915 83.339C11.0977 83.3732 10.63 83.963 10.4284 84.3097C9.82638 85.3441 9.84438 87.2545 10.2411 88.4383C10.522 89.2765 10.9825 90.5589 12.1011 91.4813C12.5969 91.8904 13.3458 92.151 14.0403 91.9753C14.5418 93.7039 15.4542 95.7914 17.0632 97.7327C18.309 99.2356 19.6188 100.356 21.0798 101.059C21.0737 101.612 21.0867 101.87 21.0312 102.632C21.0042 103.001 20.9758 103.399 20.839 103.759C20.6557 104.233 20.4091 104.643 20.0123 104.963C19.2861 105.548 18.5423 105.869 17.667 106.204C19.2677 107.087 21.0122 108.049 21.0122 108.049C23.0968 108.782 25.3283 109.112 27.5635 109.051C29.7986 109.112 32.0262 108.782 34.1184 108.049C34.1184 108.049 35.5042 107.144 36.9818 106.179C36.1343 105.853 35.4091 105.534 34.7009 104.963C34.3042 104.643 34.0575 104.233 33.8743 103.759C33.7375 103.399 33.709 103.001 33.682 102.632C33.6222 101.811 33.6417 101.575 33.6309 100.922C36.7582 99.1895 39.2259 94.9698 39.6799 93.7525C39.8369 93.4285 40.0944 92.7609 40.3035 92.0797L40.4753 92.1096C41.1255 92.222 41.8071 91.9753 42.2712 91.5987C43.397 90.6849 43.8676 89.4061 44.1549 88.5701C44.5607 87.3895 44.5934 85.4795 43.9997 84.4404C43.8006 84.0922 43.3376 83.4989 42.2442 83.456C41.5727 83.4297 40.7485 83.7156 40.3374 84.5235C39.7466 82.5566 38.7928 80.494 37.6259 78.5659Z" fill="white"/>
<path d="M39.8674 90.8979C39.665 91.8553 39.319 92.7615 38.9457 93.6616C38.95 93.6508 38.9885 93.5727 38.9277 93.6991C38.9025 93.7516 38.8787 93.8053 38.8531 93.8578C38.7898 93.9896 38.7232 94.1199 38.6548 94.2492C38.4859 94.5689 38.3044 94.8818 38.1154 95.19C37.1451 96.7717 35.9653 98.2619 34.5273 99.4446C33.7247 100.105 32.803 100.638 31.7852 100.871C30.8822 101.078 31.2642 102.466 32.1679 102.259C34.2273 101.787 35.9437 100.296 37.2942 98.7382C38.4143 97.4457 39.4595 95.9889 40.1709 94.426C40.3754 93.9767 40.4391 93.8344 40.6372 93.3171C40.8906 92.6549 41.1092 91.9752 41.2557 91.281C41.4469 90.377 40.0589 89.9903 39.867 90.8983L39.8674 90.8979Z" fill="#726A69"/>
<path d="M13.0806 91.1287C13.6851 93.8376 14.9459 96.3705 16.7526 98.4782C18.4913 100.507 20.7271 102.112 23.4145 102.524C23.7983 102.583 24.1889 102.427 24.3002 102.021C24.3938 101.68 24.1839 101.194 23.7972 101.135C21.3244 100.756 19.3705 99.3261 17.7708 97.46C16.1244 95.5395 15.0187 93.2083 14.4692 90.7459C14.2673 89.8419 12.8786 90.2242 13.0806 91.1287Z" fill="#726A69"/>
<path d="M14.2242 83.3943C13.3327 82.5925 12.0589 82.3988 10.9626 82.8927C10.1586 83.2549 9.67436 84.0024 9.44537 84.8308C8.90171 86.7977 9.40576 89.0959 10.5266 90.7776C11.2762 91.9024 12.4517 92.9069 13.893 92.7255C14.2789 92.6769 14.613 92.4292 14.613 92.0054C14.613 91.654 14.2814 91.2363 13.893 91.2853C11.9271 91.5327 10.8308 88.6703 10.7016 87.0923C10.6339 86.2645 10.636 85.2229 11.1484 84.5194C11.0749 84.6206 11.2179 84.4438 11.2225 84.4395C11.2499 84.4139 11.3194 84.3433 11.3388 84.3286C11.4886 84.2134 11.6636 84.1442 11.8461 84.1021C12.3253 83.9916 12.8352 84.0791 13.2056 84.4125C13.893 85.0307 14.9151 84.0153 14.2242 83.3943Z" fill="#726A69"/>
<path d="M41.2254 84.5177C41.5819 84.2023 42.0686 84.1159 42.5273 84.2099C42.7304 84.2513 42.9295 84.3251 43.094 84.4551C43.0519 84.4216 43.2301 84.589 43.2085 84.5681C43.228 84.5868 43.354 84.7528 43.2809 84.6495C43.7846 85.3599 43.7792 86.3982 43.7047 87.2267C43.5628 88.8073 42.4398 91.6519 40.4755 91.3891C40.0891 91.3376 39.7554 91.7571 39.7554 92.1092C39.7554 92.5412 40.088 92.7774 40.4755 92.8293C42.8427 93.1458 44.2861 90.5643 44.8831 88.6586C45.4116 86.9718 45.4393 84.2822 43.7817 83.1856C42.6796 82.4565 41.1714 82.6459 40.2072 83.4995C39.512 84.1152 40.5334 85.1305 41.2254 84.5177Z" fill="#726A69"/>
<path d="M24.6825 95.3636C25.5135 95.8025 26.4082 95.9872 27.3479 95.9811C28.3096 95.9749 29.2745 95.7827 30.0443 95.1832C30.3427 94.9506 30.3067 94.4059 30.0443 94.165C29.7274 93.8745 29.3443 93.9169 29.0261 94.165C29.246 93.9936 29.0822 94.12 29.0253 94.1564C28.9721 94.1906 28.9173 94.2219 28.8615 94.2514C28.8327 94.2665 28.8028 94.2802 28.7737 94.295C28.6919 94.3371 28.7085 94.2799 28.809 94.2827C28.7478 94.2809 28.643 94.3454 28.5829 94.3648C28.3765 94.4311 28.1645 94.4768 27.9506 94.5092C28.0594 94.4926 27.9495 94.5085 27.8988 94.5132C27.8368 94.5193 27.7746 94.5243 27.7123 94.5286C27.5625 94.5384 27.4127 94.542 27.2626 94.5412C27.1283 94.5405 26.994 94.5358 26.8601 94.5268C26.7985 94.5225 26.7369 94.5178 26.6757 94.5117C26.662 94.5103 26.4392 94.4754 26.5951 94.5031C26.3956 94.4674 26.1987 94.43 26.0042 94.372C25.9214 94.3472 25.8408 94.3177 25.759 94.2896C25.5776 94.2277 25.8728 94.3475 25.709 94.2701C25.6078 94.2223 25.5077 94.1726 25.4087 94.1204C25.0757 93.9447 24.6105 94.0249 24.4237 94.3789C24.248 94.7115 24.3264 95.1764 24.6822 95.3639L24.6825 95.3636Z" fill="#726A69"/>
<path d="M26.9674 89.1026C27.0829 89.5429 27.1938 89.9905 27.2601 90.4413L27.2345 90.2497C27.2424 90.3116 27.2457 90.3725 27.2395 90.4344L27.2651 90.2429C27.2608 90.2717 27.2543 90.2987 27.2449 90.326L27.3177 90.1539C27.309 90.1734 27.3 90.1899 27.2885 90.2072L27.4012 90.0614C27.3875 90.078 27.3742 90.0909 27.3576 90.1046L27.5035 89.9919C27.4696 90.0135 27.434 90.0312 27.3976 90.0481L27.5697 89.9754C27.5114 89.9998 27.4534 90.0175 27.3911 90.0276L27.5827 90.002C27.5261 90.0088 27.4714 90.0081 27.4149 90.002L27.6064 90.0276C27.5431 90.0189 27.4811 90.0034 27.4178 89.9948C27.322 89.9649 27.2262 89.9606 27.1305 89.9818C27.0347 89.9862 26.9454 90.0146 26.8626 90.0672C26.7132 90.1547 26.5706 90.3257 26.5317 90.4974C26.4896 90.6818 26.4989 90.8888 26.6044 91.0522C26.698 91.1973 26.8547 91.359 27.0347 91.3831C27.1816 91.4029 27.3242 91.4404 27.4739 91.4468C27.7047 91.4569 27.9189 91.386 28.1249 91.2913C28.3802 91.1743 28.5796 90.9428 28.6473 90.6681C28.7049 90.4351 28.6804 90.2339 28.6408 90.0006C28.5681 89.5692 28.4684 89.1419 28.3575 88.7188C28.3117 88.5449 28.1811 88.3789 28.0266 88.2886C27.8721 88.1982 27.6446 88.16 27.4718 88.2158C27.0966 88.3372 26.8665 88.7113 26.9688 89.1015L26.9674 89.1026Z" fill="#726A69"/>
<path d="M19.9212 85.3027C19.6976 86.0292 19.8434 87.7006 21.2199 87.8428C23.0392 87.832 23.1356 85.8114 22.5236 84.8613C22.022 84.0836 20.548 83.7599 19.9216 85.3027H19.9212Z" fill="#726A69"/>
<path d="M34.4894 85.3026C34.7129 86.0292 34.5671 87.7005 33.1911 87.8427C31.3718 87.8319 31.2749 85.8114 31.8873 84.8612C32.3885 84.0835 33.8629 83.7595 34.4894 85.3026Z" fill="#726A69"/>
<path d="M33.3558 73.1418C31.6885 74.5315 29.9603 75.8018 28.0661 76.8678C25.2797 78.4362 22.3584 79.8447 19.3466 80.9212C17.5842 81.5509 15.7923 82.0913 14.0029 82.6386C13.119 82.909 13.4959 84.2995 14.3856 84.0273C17.7686 82.9925 21.1173 81.925 24.3148 80.3941C26.7116 79.2466 29.116 78.0689 31.3018 76.5463C32.3661 75.805 33.3778 74.9906 34.3737 74.1607C35.0862 73.5666 34.063 72.5527 33.3555 73.1425L33.3558 73.1418Z" fill="#726A69"/>
<path d="M33.3558 74.1606C35.6821 76.5487 37.5593 79.4485 38.8519 82.5197C39.0027 82.8779 39.3278 83.1353 39.7376 83.0226C40.0753 82.9297 40.3925 82.4977 40.2405 82.1369C38.8475 78.8271 36.8853 75.7199 34.374 73.1424C33.7263 72.4774 32.7081 73.4963 33.3558 74.1606Z" fill="#726A69"/>
<path d="M41.0549 91.6627C39.9736 91.6627 39.2266 92.4231 39.2266 93.3127C39.2266 94.3082 39.9899 94.9938 41.0549 94.9938C42.1609 94.9938 42.8831 94.3018 42.8831 93.3127C42.8831 92.4169 42.1321 91.6627 41.0549 91.6627Z" fill="white"/>
<path d="M41.0551 90.9426C39.9724 90.9556 38.9975 91.5561 38.6248 92.5912C38.2727 93.5684 38.6921 94.6723 39.5148 95.2599C40.3285 95.841 41.5206 95.8482 42.3908 95.396C43.3133 94.9167 43.7255 93.8654 43.5577 92.8706C43.3572 91.6803 42.1968 90.9563 41.0551 90.9426C40.6785 90.9379 40.3177 91.2767 40.335 91.6623C40.3527 92.0562 40.6515 92.3774 41.0551 92.3824C41.1102 92.3831 41.1645 92.3871 41.2196 92.3885C41.3568 92.3918 41.2045 92.3795 41.1872 92.3803C41.2661 92.3759 41.3629 92.4127 41.4385 92.4339C41.4868 92.4476 41.5332 92.4645 41.5808 92.48C41.7172 92.5239 41.5419 92.4641 41.544 92.4631C41.5739 92.4469 41.7615 92.5808 41.7928 92.6017L41.8313 92.628C41.881 92.6643 41.8814 92.6643 41.8321 92.6276L41.7953 92.5999C41.8187 92.6193 41.8418 92.6395 41.8641 92.6604C41.8799 92.6751 42.0052 92.8263 42.0186 92.8253C41.9714 92.8289 41.9311 92.6899 41.9988 92.8058C42.0175 92.8379 42.0391 92.8685 42.0574 92.9009C42.0751 92.9318 42.0881 92.9707 42.1089 92.9995C42.1323 93.0492 42.123 93.0258 42.0809 92.9297C42.0917 92.9574 42.1017 92.9855 42.1111 93.0136C42.1248 93.055 42.1399 93.2116 42.1655 93.231C42.1554 93.2235 42.1518 93.0449 42.1575 93.1745C42.1597 93.2206 42.1633 93.266 42.1637 93.3124C42.1637 93.3444 42.1629 93.3768 42.1615 93.4089L42.1586 93.4564C42.1507 93.5363 42.1543 93.5191 42.1691 93.4042C42.1327 93.4568 42.1341 93.5824 42.1147 93.6465C42.1082 93.6678 42.074 93.7322 42.0794 93.7509C42.06 93.6854 42.1503 93.612 42.0917 93.7182C42.0571 93.7808 42.0214 93.8417 41.9844 93.9029C41.9246 94.0015 41.9343 93.8982 42.0074 93.8762C41.997 93.8795 41.9624 93.9281 41.9509 93.94C41.9217 93.9713 41.8911 94.0012 41.8594 94.03C41.8436 94.0444 41.8274 94.0584 41.8105 94.0721C41.7687 94.1067 41.7889 94.0912 41.8709 94.026C41.8313 94.0253 41.7266 94.12 41.6841 94.1427C41.669 94.1506 41.5664 94.1891 41.562 94.2021C41.5667 94.1873 41.7295 94.1441 41.6052 94.1805C41.5285 94.2028 41.4537 94.2287 41.3755 94.246C41.3456 94.2525 41.2574 94.2842 41.229 94.2734L41.3194 94.2608C41.2848 94.2644 41.2502 94.2672 41.2157 94.2694C41.1271 94.2752 41.0382 94.2759 40.95 94.2723C40.9154 94.2708 40.8812 94.2669 40.8466 94.2654C40.6716 94.2586 41.0065 94.2993 40.838 94.2644C40.7584 94.2478 40.6796 94.2312 40.6018 94.2075C40.5716 94.1981 40.542 94.1866 40.5118 94.1776C40.4387 94.1495 40.4531 94.1563 40.5543 94.1977C40.5262 94.1851 40.4988 94.1722 40.4715 94.1581C40.4041 94.1236 40.3422 94.0825 40.2781 94.0429C40.1968 93.9925 40.308 94.0242 40.3177 94.0757C40.3141 94.0573 40.2346 94.003 40.2191 93.9882C40.1881 93.9583 40.0693 93.8035 40.1298 93.8985C40.1968 94.0037 40.1193 93.8802 40.1096 93.8654C40.0855 93.8287 40.0632 93.7909 40.0427 93.7524L40.0225 93.7131C39.9897 93.6436 39.9959 93.6606 40.0405 93.7635C40.043 93.7527 40.0149 93.6951 40.0095 93.6793C39.985 93.6062 39.9703 93.532 39.9519 93.4575C39.9134 93.2991 39.9566 93.6267 39.953 93.4607C39.9523 93.4283 39.9487 93.3959 39.948 93.3632C39.9469 93.316 39.9472 93.2692 39.9501 93.222C39.9512 93.1993 39.9534 93.1767 39.9559 93.154C39.9616 93.0975 39.9584 93.1237 39.9454 93.2336C39.976 93.2033 40.0009 93.0186 40.0142 92.9747C40.0509 92.8544 40.0049 93.0186 39.9922 93.0233C40.0135 93.0157 40.0614 92.8897 40.0754 92.8663C40.0909 92.8407 40.1082 92.8166 40.1237 92.7914C40.1939 92.6748 40.0121 92.903 40.1352 92.7781C40.1492 92.7641 40.3105 92.5988 40.3141 92.6035C40.3181 92.6085 40.1752 92.6996 40.3166 92.6049C40.3559 92.5786 40.3962 92.5538 40.4373 92.5308C40.4704 92.512 40.5129 92.4983 40.5435 92.4757C40.5924 92.453 40.5719 92.4609 40.4826 92.4994C40.5132 92.4872 40.5442 92.476 40.5752 92.4652C40.6724 92.4325 40.771 92.4112 40.8711 92.39C40.9514 92.3727 40.9071 92.3518 40.8369 92.3943C40.8816 92.3673 41.004 92.3842 41.0558 92.3835C41.4324 92.3788 41.7935 92.0555 41.7759 91.6634C41.7586 91.2771 41.4594 90.9383 41.0558 90.9433L41.0551 90.9426Z" fill="#726A69"/>
<path d="M16.3271 107.483C17.6222 106.975 19.0253 106.582 20.1587 105.751C20.8896 105.216 21.452 104.486 21.6378 103.58C21.7908 102.834 21.7944 102.048 21.7983 101.288C21.8034 100.361 20.3632 100.36 20.3582 101.288C20.3549 101.902 20.3664 102.549 20.2577 103.15C20.1371 103.816 19.7735 104.288 19.2136 104.66C18.212 105.326 17.0663 105.654 15.9444 106.094C15.5826 106.236 15.3305 106.577 15.4414 106.98C15.5361 107.325 15.9631 107.626 16.3271 107.483Z" fill="#726A69"/>
<path d="M32.9141 101.288C32.9184 102.075 32.9101 102.906 33.0955 103.674C33.3205 104.608 33.9243 105.321 34.6991 105.854C35.8434 106.641 37.2288 107.021 38.5113 107.523C38.8735 107.665 39.3016 107.367 39.397 107.02C39.5089 106.612 39.2576 106.277 38.894 106.135C37.7858 105.701 36.6477 105.382 35.6461 104.755C35.061 104.388 34.6451 103.957 34.4846 103.291C34.3312 102.655 34.3582 101.944 34.3546 101.288C34.3495 100.361 32.9094 100.359 32.9144 101.288L32.9141 101.288Z" fill="#726A69"/>
<path d="M24.3167 119.56C23.0508 115.639 21.8828 111.561 20.8726 107.509C23.0015 108.265 25.2805 108.608 27.5632 108.545C29.7296 108.603 31.8924 108.3 33.9305 107.625C32.9275 111.639 31.7696 115.677 30.5159 119.56H24.3167Z" fill="white"/>
<path d="M20.8724 108.271C23.0107 108.99 25.2271 109.278 27.4774 109.267C29.7277 109.255 31.9257 109.03 34.0835 108.332C34.9616 108.048 34.5861 106.657 33.7007 106.943C31.6564 107.604 29.615 107.816 27.4774 107.827C25.3398 107.838 23.2815 107.564 21.2552 106.882C20.3749 106.586 19.9972 107.976 20.8724 108.271Z" fill="#726A69"/>
<path d="M53.339 119.558C51.5723 112.52 44.5284 107.256 37.4655 105.564C36.6655 104.939 35.8226 104.371 35.1436 103.931C35.0043 103.839 34.812 103.916 34.7753 104.082C33.6019 109.244 32.1391 114.532 30.5156 119.56L53.339 119.558Z" fill="#95D9FF"/>
<path d="M24.3166 119.56C22.6931 114.532 21.2303 109.244 20.0569 104.082C20.0202 103.916 19.8279 103.84 19.6886 103.931C19.0092 104.372 18.1663 104.939 17.3663 105.564C10.3037 107.256 3.25989 112.52 1.49316 119.558L24.3166 119.56Z" fill="#95D9FF"/>
<path d="M2.18718 119.749C3.73176 113.71 9.08414 109.247 14.74 107.124C16.3541 106.518 18.0304 106.084 19.7388 105.851C20.1245 105.798 20.3351 105.304 20.2418 104.965C20.1277 104.549 19.7428 104.409 19.3561 104.462C12.9575 105.335 6.60417 108.985 3.01347 114.411C2.01112 115.926 1.24891 117.606 0.798498 119.367C0.568792 120.265 1.95747 120.648 2.18718 119.749Z" fill="#64C7FF"/>
<path d="M54.0334 119.367C52.3797 112.9 46.7433 108.162 40.7158 105.827C39.028 105.173 37.2699 104.707 35.4758 104.462C35.0909 104.41 34.7028 104.555 34.5901 104.965C34.4979 105.301 34.7053 105.798 35.0931 105.851C41.1173 106.673 47.18 110.007 50.5749 115.138C51.5142 116.558 52.2228 118.099 52.6447 119.749C52.8741 120.647 54.2635 120.266 54.0334 119.367Z" fill="#64C7FF"/>
<path d="M30.5156 119.56C32.1391 114.532 33.6019 109.244 34.7753 104.082C34.812 103.916 35.0043 103.84 35.1436 103.931C36.7353 104.963 39.2243 106.694 39.961 108.212C39.9952 108.286 40.0319 108.367 40.011 108.444C39.9901 108.533 39.9059 108.588 39.8267 108.633C39.1217 109.035 38.4164 109.438 37.7114 109.84C38.506 110.585 39.319 111.361 40.061 112.169C40.1691 112.285 40.2479 112.437 40.2529 112.6C40.2583 112.734 40.2083 112.863 40.1449 112.979C39.0504 115.123 37.8666 117.338 36.6482 119.559" fill="#95D9FF"/>
<path d="M24.3163 119.56C22.6929 114.532 21.2301 109.244 20.0567 104.082C20.02 103.916 19.8277 103.84 19.6884 103.931C18.0966 104.963 15.6077 106.694 14.871 108.212C14.8368 108.286 14.8001 108.367 14.821 108.444C14.8418 108.533 14.9261 108.588 15.0053 108.633C15.7103 109.035 16.4156 109.438 17.1205 109.84C16.3259 110.585 15.513 111.361 14.7709 112.169C14.6629 112.285 14.5841 112.437 14.579 112.6C14.5736 112.734 14.6237 112.863 14.687 112.979C15.7816 115.123 16.9654 117.338 18.1837 119.559" fill="#95D9FF"/>
<path d="M31.2096 119.751C32.0305 117.205 32.7974 114.642 33.5081 112.063C33.8613 110.78 34.2012 109.494 34.5263 108.204C34.688 107.563 34.8464 106.92 35.0008 106.277C35.0811 105.943 35.1603 105.608 35.2385 105.274C35.2709 105.135 35.3033 104.996 35.3353 104.857C35.349 104.798 35.4376 104.394 35.3893 104.44L35.0714 104.625C34.8464 104.581 34.8129 104.598 34.9706 104.678L35.0689 104.743C35.1708 104.81 35.2727 104.877 35.3738 104.945C35.5899 105.09 35.8044 105.236 36.0172 105.386C36.477 105.708 36.9289 106.042 37.3627 106.398C37.7768 106.739 38.1782 107.097 38.5465 107.488C38.697 107.647 38.845 107.811 38.9764 107.987C39.0427 108.075 39.1042 108.167 39.1622 108.26C39.1892 108.303 39.2936 108.544 39.29 108.443L39.3883 108.08C39.5096 107.978 39.4837 107.984 39.3113 108.097L39.0092 108.27L38.4803 108.572L37.3472 109.219C36.9541 109.443 36.864 110.033 37.2014 110.35C37.8452 110.954 38.4853 111.562 39.0977 112.198C39.1978 112.301 39.5222 112.541 39.5507 112.679C39.5197 112.529 39.3995 112.856 39.3689 112.916C39.1492 113.344 38.9278 113.772 38.7053 114.199C37.8308 115.875 36.9343 117.539 36.0259 119.196C35.5801 120.009 36.8234 120.737 37.2695 119.923C38.3147 118.017 39.344 116.101 40.3417 114.169C40.5584 113.75 40.8681 113.299 40.9476 112.828C41.0355 112.311 40.7925 111.908 40.4573 111.539C39.7534 110.764 38.9825 110.047 38.2196 109.332L38.0738 110.463L39.4337 109.686C39.8106 109.471 40.3568 109.275 40.5919 108.886C41.0269 108.167 40.2985 107.321 39.8535 106.793C38.8274 105.575 37.4657 104.619 36.153 103.737C35.8743 103.55 35.5747 103.291 35.2457 103.202C34.8064 103.083 34.3488 103.325 34.1526 103.719C33.9333 104.159 33.8836 104.748 33.7709 105.225C33.6525 105.728 33.5315 106.23 33.4084 106.732C32.9194 108.725 32.3956 110.709 31.8393 112.684C31.2082 114.925 30.5345 117.153 29.8206 119.369C29.5354 120.253 30.9255 120.632 31.2092 119.752L31.2096 119.751Z" fill="#64C7FF"/>
<path d="M25.0105 119.368C23.7464 115.446 22.6094 111.483 21.6096 107.486C21.3658 106.512 21.1303 105.535 20.9039 104.557C20.8002 104.109 20.7548 103.566 20.3145 103.309C19.9087 103.072 19.4986 103.196 19.1335 103.434C17.805 104.304 16.4638 105.233 15.3546 106.378C14.8602 106.887 13.995 107.759 14.1138 108.54C14.1981 109.093 14.7374 109.31 15.1706 109.557L16.7569 110.463L16.6111 109.332C15.8669 110.03 15.1274 110.734 14.43 111.479C14.0894 111.843 13.8323 112.214 13.8705 112.733C13.9075 113.235 14.2636 113.733 14.4894 114.17C15.4874 116.102 16.5164 118.017 17.5616 119.923C18.0073 120.736 19.2513 120.011 18.8052 119.197C17.8964 117.539 16.9999 115.875 16.1258 114.199C15.9162 113.797 15.7078 113.395 15.5007 112.991C15.4503 112.893 15.3884 112.794 15.347 112.691C15.3085 112.596 15.2966 112.607 15.2854 112.675C15.3023 112.573 15.5893 112.348 15.6761 112.257C16.3061 111.6 16.9661 110.973 17.63 110.35C17.9674 110.033 17.8774 109.443 17.4842 109.219L16.3511 108.572L15.8222 108.27L15.5202 108.098C15.3477 107.984 15.3221 107.978 15.4431 108.08L15.5414 108.444C15.5371 108.561 15.6199 108.34 15.6408 108.306C15.6973 108.212 15.7574 108.121 15.8215 108.032C15.9493 107.856 16.0937 107.693 16.2413 107.534C16.6208 107.125 17.0381 106.753 17.4684 106.398C17.8846 106.056 18.3181 105.735 18.7587 105.424C18.9722 105.274 19.1879 105.126 19.405 104.98C19.5073 104.911 19.6095 104.843 19.7121 104.775C19.7615 104.743 19.8111 104.71 19.8605 104.678C20.0185 104.598 19.9847 104.58 19.7597 104.625L19.4417 104.44C19.3679 104.37 19.4662 104.729 19.4763 104.773C19.5148 104.94 19.5537 105.107 19.5926 105.274C19.6707 105.608 19.7499 105.943 19.8302 106.277C19.9778 106.892 20.1291 107.507 20.2835 108.12C20.6151 109.438 20.9618 110.752 21.323 112.062C22.0337 114.641 22.8006 117.205 23.6215 119.751C23.9048 120.629 25.296 120.254 25.0105 119.368Z" fill="#64C7FF"/>
</g>
</svg>
