<svg width="160" height="136" viewBox="0 0 160 136" fill="none" xmlns="http://www.w3.org/2000/svg">
<circle cx="80" cy="68" r="68" fill="#F5ECF0"/>
<mask id="mask0_1154_35510" style="mask-type:alpha" maskUnits="userSpaceOnUse" x="47" y="29" width="92" height="90">
<path fill-rule="evenodd" clip-rule="evenodd" d="M80.4547 29H139V117.655H131.868C130.949 118.168 129.613 118.491 128.127 118.491C126.641 118.491 125.305 118.168 124.386 117.655H109.727L109.029 117.594C107.37 117.633 105.644 117.655 103.873 117.655C90.9393 117.655 80.4547 116.531 80.4547 115.145C80.4547 115.129 80.4561 115.114 80.4588 115.098L80.4547 115.097V29ZM80.4546 64.9637H47V115.146L74.6 118.491L80.4546 115.146V64.9637Z" fill="#D9D9D9"/>
</mask>
<g mask="url(#mask0_1154_35510)">
<path d="M119.375 79.7337L119.165 79.4021C117.272 78.6317 113.991 76.8722 113.656 77.0853C110.731 78.7822 105.031 80.2974 100.704 80.2804C96.1334 80.269 91.2916 78.8279 88.0971 77.1736C87.7463 76.9737 84.7526 78.4709 82.829 79.2811L82.5568 79.4033C80.6266 80.269 79.1133 81.4066 77.7878 82.8122C75.943 84.7781 73.1285 92.3176 71.9557 94.0317C71.9557 94.0317 71.7778 94.2918 71.4559 94.762C71.0335 92.813 70.6371 90.8854 70.263 88.8516C70.2133 88.5801 69.9712 88.3888 69.695 88.4011C67.4537 88.5029 60.9691 89.7278 59.1191 90.3078C58.8738 90.385 58.7155 90.6225 58.7403 90.8786C59.2339 95.9816 59.3953 101.708 60.5035 106.916C61.292 110.627 62.6857 114.225 66.1003 115.922C69.0245 117.372 71.9486 117.22 74.3885 116.122C76.4589 115.187 78.9547 113.062 80.6713 111.621L81.7351 110.728C81.8471 111.621 81.9157 112.375 81.9157 112.885C81.9157 113.796 81.773 115.619 81.5867 117.751H128.029V117.572C128.732 117.614 129.445 117.551 130.156 117.366C131.498 117.017 132.723 116.196 133.488 115.046C134.283 113.853 134.561 112.33 134.62 110.923C134.792 106.794 133.503 102.664 131.619 99.028C131.619 99.028 121.01 82.3102 119.375 79.7334L119.375 79.7337Z" fill="#F2D5E1"/>
<path d="M91.1822 76.3661C88.8225 76.9801 87.0782 77.5536 87.0782 77.5536C82.4915 78.5208 79.3808 75.3912 79.4069 72.5373C79.4227 70.7917 79.8319 67.9332 80.3155 66.2168C81.022 63.7088 81.5267 59.2945 81.5255 53.1745C81.2241 44.1452 83.614 37.5974 87.3812 34.0126C89.6522 31.8517 94.7697 28.9078 100.519 28.9078C104.026 28.9078 106.495 29.5415 108.865 30.4967L109.613 30.7981C110.372 31.2072 111.13 31.6163 111.13 31.6163C112.483 32.3463 112.844 32.9026 114.087 34.0944C116.962 36.8511 118.96 41.8109 119.278 46.2525C119.37 47.5338 119.581 50.8674 119.378 53.1748C119.48 60.7994 120.894 65.067 121.624 67.1677C122.21 68.8523 122.495 70.1984 122.511 71.9443C122.536 74.7982 118.968 78.4937 114.865 77.031C114.865 77.031 105.238 75.0228 100.365 74.9046C97.7103 74.8401 94.0058 75.6321 91.1826 76.3664L91.1822 76.3661Z" fill="#726A69"/>
<path d="M113.32 76.8913C113.179 76.8339 109.238 74.9701 109.146 74.9371C107.756 74.4382 107.811 73.5502 107.636 72.5568C107.481 71.6769 107.377 70.7939 107.341 69.9032C110.84 68.1985 113.628 63.4349 114.124 62.0968C114.215 61.8232 114.417 61.2644 114.57 60.623C115.191 60.5326 116.017 60.5329 116.488 60.1593C117.116 59.6549 117.568 58.9918 117.914 58.2995C118.625 56.8781 118.935 55.2886 118.799 53.729C118.761 53.3332 118.697 52.9278 118.495 52.5714C118.211 52.0636 117.645 51.6909 117.023 51.5986C116.402 51.5064 115.736 51.7008 115.288 52.1031C112.856 51.3657 109.922 47.499 108.984 45.7505C108.327 44.5279 107.614 41.8767 107.048 40.0061C104.359 43.4869 100.942 45.9529 96.6979 47.1577C95.6888 47.4561 96.6399 44.2742 96.819 42.7711C94.1364 45.3899 91.2042 48.154 88.4834 50.3667L86.1857 52.1028C85.7371 51.7005 85.0722 51.5058 84.4504 51.5983C83.8287 51.6906 83.2628 52.0633 82.9781 52.5711C82.777 52.9272 82.7121 53.3329 82.6749 53.7287C82.5389 55.2886 82.8481 56.8781 83.5595 58.2992C83.906 58.9918 84.3576 59.6546 84.9853 60.159C85.4674 60.5413 86.1487 60.9741 87.0139 60.7591C87.0139 60.7591 87.0713 60.7449 87.1756 60.7183C87.6574 62.5007 88.5017 64.5601 90.051 66.4032C91.4373 68.052 93.0207 69.3697 94.737 70.171C94.6942 71.0142 94.5949 71.741 94.4511 72.5568C94.2761 73.5502 94.331 74.4382 92.9413 74.9371C92.8494 74.9701 88.4539 77.0134 88.1863 77.1041C88.1863 77.1041 88.123 77.1254 88.0233 77.1594C88.0516 77.1615 88.0798 77.1637 88.0963 77.1733C91.2908 78.8276 96.1327 80.2687 100.703 80.2801C104.934 80.2968 110.47 78.8482 113.449 77.1976C113.504 77.1356 113.563 77.0751 113.616 77.0128C113.44 76.9412 113.319 76.8916 113.319 76.8916L113.32 76.8913Z" fill="white"/>
<path d="M114.022 59.2597C113.999 59.8907 113.849 60.5037 113.666 61.1062C113.601 61.3228 113.529 61.5376 113.456 61.752C113.436 61.8128 113.415 61.8732 113.394 61.9337C113.385 61.9575 113.375 61.98 113.366 62.0037C113.319 62.1398 113.423 61.8776 113.385 61.9618C113.106 62.5739 112.779 63.161 112.425 63.733C111.39 65.4025 110.135 66.9806 108.599 68.2227C107.756 68.9045 106.807 69.4441 105.755 69.686C104.821 69.9005 105.216 71.3286 106.151 71.1142C108.337 70.6119 110.157 69.0255 111.584 67.3755C112.768 66.0072 113.874 64.4664 114.624 62.8145C115.124 61.7137 115.469 60.4676 115.512 59.2603C115.545 58.3073 114.055 58.3085 114.022 59.2603V59.2597Z" fill="#726A69"/>
<path d="M86.7132 51.5796C85.8736 50.8716 84.7294 50.6278 83.6938 51.049C82.5313 51.5216 82.0405 52.5385 81.9313 53.7291C81.7255 55.9693 82.4227 58.5193 83.9577 60.2082C84.7973 61.1319 85.9428 61.7434 87.2133 61.4738C88.1505 61.2748 87.7541 59.8469 86.8172 60.0456C85.994 60.2202 85.2236 59.4776 84.7747 58.8763C84.1355 58.0204 83.7426 56.9751 83.5327 55.9373C83.4269 55.414 83.3843 54.883 83.3905 54.3496C83.3961 53.8834 83.3899 53.3068 83.6507 52.8986C84.071 52.2408 85.069 52.1291 85.6597 52.6271C85.9664 52.8856 86.4124 52.926 86.7132 52.6271C86.9799 52.3621 87.0215 51.8394 86.7132 51.5796Z" fill="#726A69"/>
<path d="M86.0803 59.2196C86.463 61.3302 87.1612 63.4044 88.2957 65.238C89.5728 67.3017 91.417 69.1547 93.5284 70.3758C94.6329 71.0145 95.8503 71.477 97.1162 71.6646C97.5136 71.7235 97.9171 71.5658 98.0326 71.1475C98.1291 70.7982 97.9128 70.2959 97.5123 70.2367C95.4127 69.926 93.5672 68.8446 92.0335 67.4168C90.3696 65.868 89.0851 64.0039 88.3165 61.8661C87.9614 60.8779 87.7044 59.8585 87.5172 58.8265C87.4458 58.4328 86.9634 58.2104 86.6009 58.3094C86.1837 58.4233 86.0089 58.8253 86.0806 59.2202L86.0803 59.2196Z" fill="#726A69"/>
<path d="M93.9802 70.4014C93.9364 71.0378 93.8535 71.6663 93.7455 72.2951C93.6797 72.677 93.6452 73.0695 93.5388 73.4434C93.5254 73.4897 93.4419 73.7047 93.4953 73.59C93.4612 73.6637 93.4205 73.7337 93.3764 73.8019C93.3122 73.901 93.4419 73.7313 93.3615 73.8232C93.337 73.8513 93.3112 73.8787 93.2845 73.905C93.1818 74.0062 93.1852 73.9988 93.0725 74.0642C92.8695 74.1817 92.6503 74.2592 92.4371 74.3554C91.3357 74.8531 90.2421 75.3674 89.1429 75.87C88.8589 75.9999 88.5752 76.1294 88.2902 76.2572C88.1887 76.3028 88.0869 76.3473 87.9854 76.3926C87.7967 76.4768 88.1574 76.3306 87.9894 76.3901C87.6107 76.5247 87.3568 76.8949 87.4692 77.3009C87.5698 77.665 88.005 77.9534 88.3855 77.818C88.8235 77.6622 89.2469 77.4441 89.6691 77.2515C90.3449 76.9433 91.0194 76.6326 91.6943 76.3217C92.1925 76.0921 92.6907 75.8632 93.1889 75.6339C93.2246 75.6176 93.2777 75.6043 93.309 75.58C93.3044 75.5837 93.0281 75.6916 93.1926 75.6312C93.2737 75.6016 93.3528 75.5673 93.4323 75.5337C93.5807 75.4704 93.7266 75.4047 93.8635 75.3193C94.3384 75.0228 94.6789 74.6133 94.885 74.0975C95.0471 73.6915 95.0868 73.2574 95.1579 72.8295C95.292 72.0227 95.4143 71.2171 95.4702 70.4007C95.4975 70.0012 95.1082 69.6603 94.7252 69.6603C94.2993 69.6603 94.0078 70.0003 93.9802 70.4007V70.4014Z" fill="#726A69"/>
<path d="M106.603 70.0355C106.664 71.2104 106.821 72.3923 107.046 73.5475C107.245 74.564 107.886 75.2338 108.842 75.6115C109.124 75.7226 108.652 75.5171 108.851 75.6127C108.924 75.6479 108.999 75.6809 109.072 75.7151C109.305 75.8234 109.537 75.9324 109.769 76.0413C110.397 76.3365 111.026 76.6324 111.654 76.928C112.083 77.1297 112.508 77.346 112.945 77.5311C113.315 77.6879 113.743 77.641 113.964 77.2655C114.148 76.9542 114.069 76.41 113.697 76.2523C112.771 75.8602 111.871 75.3967 110.961 74.9691C110.52 74.7615 110.08 74.5495 109.635 74.3484C109.41 74.2466 109.176 74.167 108.966 74.0337C108.726 73.8813 108.634 73.7252 108.559 73.47C108.433 73.0473 108.394 72.596 108.322 72.1622C108.204 71.4578 108.13 70.7485 108.093 70.0355C108.072 69.636 107.765 69.295 107.348 69.295C106.96 69.295 106.582 69.6341 106.603 70.0355H106.603Z" fill="#726A69"/>
<path d="M115.816 52.6258C116.389 52.1427 117.357 52.2343 117.796 52.8511C118.075 53.2444 118.075 53.8189 118.085 54.2798C118.096 54.8364 118.054 55.3915 117.943 55.9372C117.736 56.9606 117.352 57.9726 116.737 58.8253C116.316 59.4085 115.535 60.2026 114.73 60.0607C114.334 59.991 113.927 60.1671 113.814 60.5778C113.715 60.9357 113.936 61.4185 114.334 61.4885C116.668 61.9001 118.245 59.6189 118.972 57.7295C119.401 56.6172 119.607 55.401 119.573 54.2104C119.539 53.0436 119.269 51.9147 118.213 51.2591C117.117 50.5785 115.724 50.7676 114.762 51.5781C114.455 51.8369 114.494 52.359 114.762 52.6252C115.066 52.9276 115.508 52.8847 115.816 52.6252V52.6258Z" fill="#726A69"/>
<path d="M119.363 78.6881C117.809 78.0513 116.202 77.1458 114.574 76.5291C114.319 76.4325 114.042 76.3319 113.765 76.3279C113.377 76.3221 113.052 76.5809 112.721 76.7509C111.882 77.1828 111.004 77.5321 110.112 77.8394C105.721 79.3521 101.048 79.9667 96.4499 79.1482C94.1026 78.7301 91.7713 78.0544 89.5966 77.0758C89.1651 76.8817 88.7131 76.5639 88.2556 76.4455C87.9554 76.3677 87.6291 76.4513 87.342 76.5423C86.4995 76.8089 85.69 77.1989 84.8857 77.5602C82.953 78.4281 80.9704 79.1944 79.2727 80.4865C78.4771 81.0922 77.6772 81.7589 77.0455 82.5373C76.5979 83.0893 76.2241 83.6924 75.8771 84.3104C74.2874 87.1402 73.2109 90.2202 71.6635 93.0679C71.5542 93.2687 71.4406 93.4677 71.3124 93.6572C70.7763 94.4504 72.0664 95.1927 72.5991 94.4047C73.3059 93.3585 73.7839 92.1334 74.3048 90.9906C75.0259 89.4082 75.733 87.818 76.5212 86.2668C76.8645 85.5908 77.2218 84.9194 77.6257 84.2774C77.7076 84.1472 77.7914 84.0182 77.8783 83.8914C77.9218 83.8279 77.9662 83.7649 78.0115 83.7026C78.0413 83.6616 78.1534 83.5156 78.0627 83.6304C78.3204 83.3046 78.6205 83.0118 78.9204 82.7249C79.7123 81.9678 80.583 81.3081 81.5326 80.758C82.4061 80.2517 83.3361 79.8723 84.2561 79.461C85.1163 79.0766 85.9811 78.6696 86.8438 78.309C87.1654 78.1748 87.4913 78.0409 87.8263 77.943C87.8865 77.9255 87.9476 77.9122 88.0078 77.8949C88.1333 77.8594 88.0637 77.9073 87.9715 77.8962C88.1907 77.9233 87.6071 77.7129 87.7704 77.8372C87.8672 77.911 88.0072 77.9575 88.1168 78.0115C90.2196 79.046 92.4695 79.8044 94.7569 80.3153C97.1521 80.8503 99.6317 81.131 102.086 80.9777C104.334 80.8373 106.574 80.4224 108.74 79.8167C109.749 79.5344 110.747 79.2068 111.719 78.8168C112.18 78.632 112.637 78.437 113.085 78.2223C113.271 78.1328 113.457 78.0399 113.64 77.9424C113.733 77.8928 113.828 77.8446 113.918 77.7897C113.928 77.7835 114.026 77.7197 114.033 77.724C114.021 77.7166 113.78 77.8058 113.738 77.8073C113.812 77.8045 113.547 77.7518 113.689 77.7999C113.739 77.8169 113.793 77.8255 113.844 77.8403C113.979 77.8798 114.111 77.9301 114.242 77.981C114.517 78.0874 114.836 78.2312 115.184 78.3907C116.031 78.7785 116.869 79.1864 117.716 79.5727C118.129 79.7612 118.546 79.9429 118.967 80.1154C119.339 80.2678 119.786 79.9503 119.883 79.5983C120.001 79.1731 119.736 78.8406 119.363 78.6875L119.363 78.6881Z" fill="#726A69"/>
<path d="M131.137 70.444C131.068 71.4572 130.999 72.4701 130.929 73.4833C130.903 73.8705 131.291 74.2407 131.674 74.2237C132.101 74.2049 132.391 73.8982 132.419 73.4833C132.488 72.4701 132.557 71.4572 132.627 70.444C132.653 70.0568 132.265 69.6865 131.882 69.7035C131.455 69.7223 131.165 70.029 131.137 70.444Z" fill="#726A69"/>
<path d="M135.663 77.7419C136.647 77.4942 137.639 77.2628 138.643 77.1066C138.815 77.0798 139.004 76.9095 139.088 76.7663C139.181 76.6078 139.221 76.3736 139.163 76.1959C139.105 76.0166 138.993 75.8438 138.821 75.7534C138.632 75.6547 138.456 75.6464 138.247 75.6788C137.243 75.8349 136.251 76.066 135.267 76.314C134.889 76.4091 134.625 76.8496 134.747 77.2248C134.873 77.6129 135.259 77.844 135.663 77.7419Z" fill="#726A69"/>
<path d="M134.682 75.0513C135.366 74.2729 136.119 73.5516 136.901 72.8713C137.196 72.6152 137.184 72.0824 136.901 71.8242C136.588 71.5379 136.162 71.5511 135.848 71.8242C135.066 72.5045 134.313 73.2258 133.629 74.0042C133.498 74.1535 133.411 74.3245 133.411 74.5278C133.411 74.7095 133.492 74.9264 133.629 75.0513C133.91 75.3077 134.409 75.363 134.682 75.0513Z" fill="#726A69"/>
<path d="M130.977 99.4019C132.803 102.946 134.049 106.905 133.875 110.923C133.801 112.647 133.378 114.404 132.026 115.583C130.801 116.652 129.043 117.033 127.455 116.772C125.518 116.454 123.825 115.365 122.539 113.919C121.903 113.203 120.853 114.254 121.486 114.966C124.075 117.877 128.601 119.504 132.167 117.308C136.025 114.931 135.714 109.6 134.888 105.748C134.358 103.276 133.421 100.9 132.264 98.6543C131.826 97.8058 130.54 98.5543 130.977 99.4019Z" fill="#726A69"/>
<path d="M55.0822 66.0521C54.8031 65.9003 54.4968 65.8364 54.1081 65.8528C53.97 65.8586 53.5311 66.0774 53.374 66.1943C53.2033 66.3217 53.116 66.5599 53.0772 66.7685C52.985 67.2633 53.2185 68.1016 53.4994 68.5462C53.6046 68.7125 54.9773 71.2967 55.4094 71.9995C55.4873 72.126 57.2939 74.9487 58.1581 76.2214C56.8528 74.5554 54.3 71.363 53.6788 70.6278C52.8224 69.6143 52.2518 69.146 51.6353 69.1176C50.7863 69.0784 50.1075 69.6831 50.173 70.5254C50.2385 71.3677 51.0567 72.2396 51.5413 72.9337C53.1278 75.2057 53.9163 76.218 55.5354 78.4989C53.9004 77.2984 52.4477 76.2893 50.5731 75.0471C50.1838 74.7892 49.3665 74.6667 49.0114 74.9694C48.7984 75.1508 48.569 75.41 48.5638 75.6886C48.5532 76.2371 48.8326 76.6765 49.2042 77.1942C49.5757 77.7119 50.1931 78.2083 50.7659 78.767C52.0199 79.9906 52.9468 80.6219 54.2745 82.2336C56.2422 84.6222 58.2786 86.6431 59.149 87.6072C59.3514 88.2036 59.6236 89.26 59.7322 89.8983L59.7884 90.1195C61.8543 89.5864 66.1805 88.7697 68.644 88.4908L68.6424 88.4529C68.6111 87.7078 68.455 86.5903 68.455 85.8764L68.4314 85.5166C69.2897 84.7962 69.7196 83.9558 70.1731 82.8238C70.753 81.3753 71.2751 79.9067 71.5725 78.3786C71.8047 77.1852 71.962 76.1862 71.9741 75.3143C71.9791 74.9577 71.8115 74.4489 71.5026 74.2536C71.2782 74.1117 70.5968 74.1583 70.3612 74.2808C69.9465 74.4958 69.5815 75.2881 69.2086 76.1131C68.8523 76.902 68.572 77.5696 68.0021 78.2228C67.5759 78.7112 66.6303 78.9287 65.9614 78.3761C65.5678 78.0509 65.3669 77.3904 65.3076 76.885C65.2272 76.197 65.1856 75.667 65.4871 75.0425C65.7885 74.4181 66.4872 73.9824 67.0103 74.0614C67.4104 74.1219 68.2895 74.3897 68.694 74.373C69.6088 74.3351 70.0275 73.3867 69.8649 72.79C69.7413 72.3371 68.4183 71.624 67.8292 71.3387C67.1649 71.0166 66.5207 70.6081 65.7888 70.6655C64.9122 70.734 64.061 71.3032 63.4957 71.9696C62.9777 72.5805 62.6402 72.9146 62.1976 73.6822C62.0166 73.9778 61.8719 74.2629 61.691 74.5587C61.6335 74.6528 61.5727 74.7423 61.505 74.8046C61.4237 74.8793 61.2849 74.8787 61.203 74.8046C61.1744 74.7787 60.9894 74.518 60.9317 74.419C59.9483 72.8282 59.0946 71.3794 57.866 69.5582C57.4941 69.0071 56.1181 66.9974 55.659 66.5158C55.4674 66.3149 55.2815 66.1613 55.0819 66.0527L55.0822 66.0521Z" fill="white"/>
<path d="M59.6752 87.0841C58.8262 86.1474 57.9353 85.2484 57.0801 84.3172C55.9092 83.0424 54.8585 81.6479 53.6357 80.423C52.5912 79.3771 51.4538 78.4216 50.3882 77.3964C50.1268 77.145 49.8856 76.8873 49.6829 76.5868C49.5814 76.4366 49.4703 76.2783 49.3992 76.1114C49.3653 76.0324 49.3318 75.9423 49.3185 75.8566C49.311 75.8081 49.3377 75.6159 49.3014 75.7245C49.3383 75.6137 49.4861 75.5258 49.6745 75.5335C49.9883 75.5465 50.1929 75.6838 50.4496 75.8544C52.0433 76.9142 53.6146 78.0057 55.1577 79.1374C55.4818 79.375 55.9893 79.1908 56.1771 78.8718C56.3988 78.4954 56.2345 78.0968 55.9098 77.8586C54.3869 76.7414 52.8367 75.6637 51.2642 74.6169C50.5921 74.1695 49.7602 73.8659 48.9562 74.1655C48.0088 74.5188 47.6245 75.5696 47.9505 76.4804C48.2609 77.3483 48.9137 78.0548 49.5786 78.6725C50.1985 79.2482 50.8085 79.8338 51.438 80.3996C52.0452 80.9457 52.6408 81.5013 53.1881 82.1076C53.8434 82.8335 54.4496 83.603 55.0984 84.3354C56.2435 85.6282 57.4625 86.8515 58.622 88.1306C59.2651 88.8402 60.3162 87.7903 59.6755 87.0835L59.6752 87.0841Z" fill="#726A69"/>
<path d="M55.6984 77.4526C54.8352 76.2484 53.9548 75.0566 53.0943 73.8506C52.6324 73.203 52.1792 72.5502 51.7021 71.9137C51.392 71.4996 50.7553 70.7934 50.9419 70.2316C50.9863 70.0983 51.0953 69.9798 51.2371 69.9178C51.3504 69.8681 51.4619 69.8598 51.5823 69.8586C51.6161 69.8583 51.7906 69.8904 51.649 69.8604C51.7204 69.8755 51.7937 69.8953 51.8604 69.924C51.7692 69.8848 52.0215 70.0249 52.0417 70.0384C52.1379 70.1026 52.2236 70.176 52.3112 70.2553C52.6147 70.5309 52.8873 70.84 53.1515 71.1525C53.7841 71.901 54.3909 72.6717 55.0034 73.4365C55.8841 74.5358 56.7619 75.6376 57.6308 76.7461C57.8782 77.0617 58.4245 77.0043 58.6843 76.7461C58.9978 76.4345 58.9323 76.0155 58.6843 75.699C57.8155 74.5904 56.9376 73.4887 56.057 72.3894C55.3275 71.4786 54.6185 70.537 53.8288 69.6759C53.352 69.1564 52.7861 68.6198 52.0802 68.4409C51.3408 68.2536 50.4952 68.4801 49.9694 69.0336C48.5542 70.5244 50.1926 72.3033 51.0686 73.5529C52.164 75.1155 53.2998 76.6492 54.4117 78.2002C54.6449 78.5254 55.0614 78.6806 55.4312 78.4658C55.7546 78.2776 55.9331 77.7803 55.6984 77.4526Z" fill="#726A69"/>
<path d="M58.8007 75.8485C57.3669 73.7326 56.002 71.5933 54.7842 69.3485C54.5712 68.956 54.3617 68.5617 54.1419 68.1733C53.9638 67.8586 53.8334 67.505 53.8054 67.1422C53.7921 66.9669 53.789 66.8972 53.8725 66.7281C53.8014 66.8722 53.843 66.7701 53.951 66.7106C54.0348 66.6643 54.1093 66.6149 54.191 66.5946C54.3425 66.5569 54.6777 66.6501 54.8751 66.7976C55.0068 66.896 55.1207 67.0237 55.2281 67.1474C55.333 67.2681 55.414 67.3757 55.4522 67.426C55.9144 68.0351 56.3515 68.6632 56.7851 69.2923C58.0203 71.0842 59.1452 72.9428 60.2879 74.793C60.7886 75.6038 62.0781 74.8609 61.5746 74.0454C60.4462 72.2184 59.3361 70.3823 58.1181 68.612C57.6546 67.9385 57.1884 67.2647 56.6905 66.6152C56.1342 65.8896 55.5196 65.2534 54.5573 65.1358C53.4373 64.9992 52.3859 65.7526 52.3154 66.9006C52.2658 67.7074 52.601 68.454 52.9794 69.1427C53.5844 70.2441 54.1423 71.3823 54.8112 72.4473C55.6884 73.844 56.588 75.2305 57.5134 76.596C58.0464 77.3825 59.3377 76.642 58.8001 75.8485H58.8007Z" fill="#726A69"/>
<path d="M67.7095 85.8768C67.7123 86.7385 67.8591 87.5934 67.897 88.4533C67.914 88.8398 68.2276 89.2122 68.642 89.1937C69.0309 89.1764 69.4053 88.8676 69.387 88.4533C69.3491 87.5931 69.2023 86.7385 69.1995 85.8768C69.1982 85.4896 68.8577 85.1184 68.4545 85.1363C68.0512 85.1542 67.7082 85.4618 67.7095 85.8768Z" fill="#726A69"/>
<path d="M68.0541 86.6922C69.2862 85.9305 70.0989 84.8852 70.6623 83.5696C71.3716 81.9135 71.9781 80.1981 72.3183 78.4271C72.4766 77.6031 72.6204 76.7716 72.6874 75.9346C72.7458 75.2067 72.7172 74.4117 72.1709 73.8514C71.6879 73.3562 70.8473 73.326 70.2193 73.5413C69.4743 73.7968 69.0922 74.606 68.7818 75.2657C68.4378 75.996 68.1522 76.7694 67.6829 77.4331C67.4134 77.8141 66.8882 78.2133 66.4294 77.8067C66.0088 77.434 65.9849 76.5655 65.9945 76.0586C66.0048 75.5329 66.2807 74.8954 66.8593 74.7902C66.7758 74.8053 66.9922 74.7955 66.904 74.7899C66.8047 74.7834 67.0735 74.8257 67.0471 74.8202C67.1785 74.8482 67.3088 74.8803 67.4395 74.9106C67.8008 74.9948 68.1705 75.0852 68.5421 75.1086C69.2483 75.1531 69.9235 74.7875 70.3019 74.2C70.6315 73.6882 70.7874 72.9317 70.4909 72.3692C70.2159 71.8475 69.632 71.4964 69.1397 71.2021C68.4897 70.8136 67.7925 70.453 67.0906 70.1691C66.1727 69.798 65.2421 69.8915 64.3667 70.333C63.5835 70.7282 63.0179 71.3749 62.4645 72.032C62.1879 72.3606 61.925 72.7021 61.6977 73.0668C61.5717 73.2692 61.4528 73.4762 61.3355 73.6835C61.2765 73.7875 61.2191 73.8921 61.1592 73.9952C61.1228 74.0587 61.0856 74.1217 61.0474 74.184C60.9416 74.3268 60.9776 74.3139 61.1561 74.1451H61.5522C61.7828 74.3824 61.8545 74.4434 61.7679 74.3287C61.7437 74.296 61.7201 74.2627 61.6971 74.2293C61.6549 74.1686 61.6142 74.1072 61.5754 74.0442C61.075 73.2331 59.7856 73.9763 60.2888 74.7918C60.4309 75.0222 60.5927 75.2978 60.8273 75.4431C61.2275 75.6908 61.7365 75.6239 62.065 75.2922C62.3366 75.0179 62.5036 74.6363 62.6932 74.3068C62.8938 73.9584 63.0986 73.6089 63.3454 73.2902C64.1224 72.2872 65.225 70.9821 66.6352 71.5742C67.2185 71.8191 67.8005 72.1338 68.3453 72.4556C68.5604 72.5827 68.8227 72.7435 68.9876 72.8811C69.017 72.9058 69.2492 73.126 69.1505 73.0202C69.2365 73.1122 69.0962 73.0233 69.1465 72.9863C69.1421 72.9894 69.1558 73.0566 69.1539 73.0853C69.14 73.3312 68.9683 73.6638 68.5427 73.628C68.0377 73.5854 67.3759 73.2886 66.7954 73.3164C66.0417 73.3525 65.3461 73.86 64.9509 74.478C64.5148 75.1602 64.4604 75.9676 64.5467 76.7491C64.629 77.4941 64.8094 78.2766 65.3579 78.8298C65.911 79.3879 66.773 79.5603 67.5187 79.3515C69.0813 78.9143 69.5814 76.9629 70.224 75.6924C70.3391 75.465 70.5117 75.0981 70.6682 74.9605C70.7014 74.9315 70.801 74.9121 70.6846 74.9467C70.7361 74.9315 70.7951 74.9173 70.8491 74.9106C70.8451 74.9112 71.1505 74.9016 71.1062 74.9007C71.2794 74.9041 71.1434 74.9377 71.1223 74.8954C71.1062 74.8627 71.2011 75.3977 71.1692 75.0006C71.1751 75.0744 71.2173 75.1487 71.2263 75.2219C71.2691 75.5643 71.2015 75.9503 71.1642 76.2915C70.9547 78.2102 70.4335 80.0777 69.7475 81.878C69.4721 82.6002 69.1977 83.3339 68.7852 83.9923C68.4117 84.5884 67.8995 85.0444 67.3026 85.4134C66.4899 85.9157 67.2374 87.1976 68.0548 86.6922H68.0541Z" fill="#726A69"/>
<path d="M58.4305 87.8049C58.6817 88.5485 58.8807 89.3229 59.0138 90.096C59.0436 90.2685 59.21 90.4536 59.3562 90.5385C59.5158 90.6313 59.7514 90.6708 59.9302 90.6131C60.1105 90.5551 60.2844 90.4441 60.3753 90.2728C60.474 90.0871 60.4858 89.9088 60.4504 89.7024C60.3173 88.9292 60.1183 88.1548 59.8672 87.4112C59.7433 87.0447 59.3481 86.7661 58.9508 86.8942C58.5839 87.012 58.2977 87.4119 58.4305 87.8049Z" fill="#726A69"/>
<path d="M73.9093 102.319C73.285 99.5301 72.6415 96.745 72.0424 93.9501C71.7528 92.5984 71.4744 91.244 71.2136 89.8865C71.0941 89.2648 71.0932 88.4512 70.5912 87.9964C70.201 87.6429 69.7168 87.6506 69.2276 87.6925C67.3781 87.8508 65.5361 88.185 63.7133 88.5259C62.7632 88.7036 61.8151 88.893 60.8715 89.1025C60.2243 89.2463 59.5469 89.3703 58.9211 89.594C58.5638 89.7214 58.2863 89.9414 58.1212 90.2857C57.9644 90.6121 58.0017 90.9348 58.034 91.2829C58.0976 91.9675 58.155 92.6527 58.2096 93.3379C58.3242 94.7726 58.4269 96.2079 58.5437 97.6422C58.7796 100.535 59.0689 103.433 59.618 106.286C60.0628 108.597 60.6812 110.948 61.9232 112.975C63.2403 115.125 65.2424 116.633 67.6802 117.326C70.2693 118.063 73.0482 117.714 75.4074 116.442C77.5315 115.296 79.3872 113.668 81.223 112.123C81.431 111.949 81.639 111.773 81.8466 111.598C82.1536 111.339 82.1145 110.817 81.8466 110.551C81.5424 110.249 81.101 110.291 80.7931 110.551C77.7082 113.15 74.378 116.432 70.0303 116.227C67.6997 116.117 65.4433 115.058 63.9486 113.274C62.6232 111.691 61.9266 109.653 61.4417 107.681C60.1848 102.568 60.0448 97.251 59.5907 92.0298C59.5631 91.7133 59.5345 91.3967 59.5047 91.0802C59.5016 91.0487 59.4408 90.6319 59.3958 90.9894C59.3908 91.0292 59.3318 90.978 59.3846 91.0009C59.3989 91.007 59.4942 90.9682 59.5041 90.9654C59.7847 90.8879 60.0653 90.8127 60.3481 90.7436C61.1263 90.5535 61.9104 90.3872 62.6955 90.2283C64.4459 89.8747 66.3789 89.5246 68.0455 89.3052C68.395 89.2592 68.7455 89.2176 69.0966 89.1849C69.2316 89.1722 69.3666 89.1608 69.502 89.1522C69.5119 89.1516 69.6904 89.1528 69.6954 89.1414C69.6901 89.1534 69.5088 89.0565 69.5492 89.0383C69.5318 89.046 69.5706 89.1725 69.5703 89.1861C69.5669 89.4872 69.6935 89.8464 69.7503 90.1438C69.8105 90.4591 69.8717 90.7741 69.9341 91.0891C70.061 91.7336 70.192 92.3775 70.3258 93.0205C70.8576 95.5754 71.4374 98.1198 72.0117 100.665C72.1657 101.347 72.3193 102.03 72.4721 102.712C72.6803 103.642 74.1169 103.248 73.909 102.319L73.9093 102.319Z" fill="#726A69"/>
<path d="M105.344 93.1708C105.05 92.2144 105.007 91.1991 105.094 90.2044C105.175 89.2698 105.255 87.9648 105.724 87.1438C106.899 87.241 107.449 85.6308 107.95 84.8129C110.529 80.6021 113.807 78.8102 117.752 78.3598C121.869 77.8899 126.308 79.7145 128.94 83.3798C129.453 84.0943 130.32 85.6928 131.457 85.45C132.325 87.5477 133.098 89.8743 132.456 92.0543C132.089 93.298 131.28 94.3821 130.296 95.233C128.785 96.5393 126.876 97.3236 124.924 97.7688C122.879 98.2353 120.78 98.3297 118.697 98.4988C116.558 98.6725 114.391 98.6506 112.274 98.2794C109.539 97.7969 106.545 96.2802 105.483 93.5713C105.431 93.439 105.385 93.3054 105.344 93.1705L105.344 93.1708Z" fill="#DD99B5"/>
<path d="M117.753 78.36C113.808 78.8102 110.53 80.6021 107.951 84.8131C107.415 85.6893 106.821 87.4748 105.464 87.0962C104.911 86.9423 104.669 86.4699 104.529 85.9426C104.389 85.4154 104.539 84.4793 104.732 83.9678C106.84 78.3856 111.684 74.9684 117.708 74.7583C123.864 74.5436 128.657 76.3703 131.799 81.8519C132.064 82.3132 132.512 83.5917 132.468 84.119C132.424 84.6462 132.297 85.0575 131.808 85.3194C130.498 86.0226 129.505 84.1665 128.941 83.3803C126.309 79.7151 121.87 77.8901 117.753 78.3603V78.36Z" fill="white"/>
<path d="M116.6 70.5201C117.989 71.6132 117.585 73.2715 117.131 73.9163C116.374 74.9931 114.61 75.176 113.677 74.4723C112.368 73.4837 112.651 71.9883 113.399 70.9585C114.035 70.0823 115.633 69.7577 116.6 70.5201Z" fill="white"/>
<path d="M121.658 70.253C123.046 71.3461 122.642 73.0045 122.188 73.6493C121.431 74.726 119.667 74.909 118.734 74.2052C117.425 73.2167 117.708 71.7213 118.456 70.6914C119.092 69.8152 120.69 69.4907 121.658 70.253Z" fill="white"/>
<path d="M117.752 77.6194C115.387 77.897 113.107 78.6353 111.188 80.0706C110.169 80.8333 109.279 81.7234 108.498 82.7248C108.056 83.2916 107.635 83.8806 107.271 84.5001C107.035 84.9015 106.843 85.3269 106.596 85.7225C106.473 85.9181 106.4 86.027 106.238 86.1899C106.118 86.3099 106.027 86.3818 105.858 86.4105C105.981 86.3895 105.672 86.3895 105.752 86.4043C105.67 86.3892 105.602 86.3735 105.533 86.3219C105.35 86.1853 105.258 85.8702 105.227 85.6589C105.073 84.6022 105.722 83.4082 106.213 82.4934C107.277 80.5115 108.81 78.7964 110.723 77.5888C112.68 76.3525 114.947 75.6642 117.258 75.5201C119.569 75.3761 121.962 75.551 124.177 76.2819C126.241 76.9634 128.049 78.1932 129.472 79.8244C130.176 80.6309 130.941 81.6317 131.329 82.5885C131.43 82.8381 131.516 83.0951 131.59 83.3536C131.659 83.5946 131.727 83.8803 131.725 84.0231C131.723 84.1842 131.709 84.398 131.617 84.5319C131.511 84.6846 131.31 84.7346 131.22 84.7346C131.14 84.7346 131.152 84.7389 131.027 84.6904C131.074 84.7086 130.889 84.6102 130.84 84.5766C130.686 84.4695 130.493 84.2613 130.342 84.0811C130.08 83.7673 129.848 83.3804 129.602 83.0334C128.812 81.9174 127.854 80.952 126.76 80.1298C124.702 78.5832 122.161 77.6811 119.586 77.5598C118.973 77.5308 118.361 77.553 117.752 77.6194C117.352 77.6629 117.007 77.9285 117.007 78.3598C117.007 78.7263 117.349 79.1441 117.752 79.1003C120.403 78.8112 123.063 79.4646 125.296 80.9104C126.42 81.6385 127.435 82.5761 128.226 83.656C128.885 84.5565 129.449 85.6648 130.556 86.089C131.161 86.3213 131.847 86.2102 132.371 85.8369C132.962 85.4161 133.23 84.6997 133.214 83.9895C133.187 82.7973 132.561 81.6098 131.926 80.6349C130.556 78.5292 128.709 76.732 126.435 75.6142C124.182 74.5069 121.679 74.0602 119.18 74.0065C116.495 73.9485 113.85 74.3616 111.412 75.5171C109.142 76.5926 107.21 78.2848 105.787 80.3384C105.042 81.413 104.401 82.6156 103.982 83.8546C103.573 85.0638 103.541 86.9177 104.836 87.6319C106.095 88.3264 107.251 87.4962 107.905 86.4321C108.176 85.99 108.389 85.5154 108.662 85.0742C109.044 84.459 109.46 83.8621 109.925 83.3058C111.531 81.3852 113.604 80.0172 116.05 79.4116C116.61 79.273 117.178 79.1675 117.752 79.1003C118.151 79.0534 118.497 78.7936 118.497 78.3598C118.497 77.9961 118.154 77.5721 117.752 77.6194H117.752Z" fill="#726A69"/>
<path d="M116.073 71.0438C116.178 71.128 116.278 71.2165 116.37 71.3137C116.417 71.3631 116.46 71.4149 116.504 71.4661C116.402 71.3483 116.515 71.4865 116.549 71.5411C116.578 71.5861 116.605 71.6321 116.63 71.679C116.647 71.7099 116.732 71.8712 116.682 71.7771C116.631 71.6806 116.708 71.8506 116.717 71.8771C116.735 71.9317 116.751 71.9869 116.765 72.0428C116.778 72.0977 116.788 72.1532 116.8 72.2084C116.829 72.3454 116.79 72.0619 116.799 72.2001C116.806 72.3161 116.814 72.4306 116.81 72.5469C116.808 72.5993 116.804 72.6518 116.8 72.7042C116.797 72.7261 116.794 72.7484 116.792 72.7706C116.788 72.8508 116.806 72.6793 116.804 72.6823C116.768 72.7663 116.767 72.8823 116.743 72.9727C116.719 73.0631 116.689 73.1504 116.658 73.238C116.619 73.3509 116.634 73.2617 116.677 73.1994C116.651 73.2361 116.637 73.2861 116.616 73.3265C116.584 73.3882 116.55 73.4484 116.511 73.5064C116.499 73.5255 116.484 73.5437 116.472 73.5632C116.427 73.6354 116.512 73.5061 116.512 73.512C116.516 73.5385 116.397 73.6406 116.379 73.6582C116.344 73.6931 116.308 73.7267 116.271 73.7591C116.255 73.773 116.21 73.8189 116.195 73.822C116.188 73.8233 116.321 73.7387 116.246 73.7801C116.145 73.8356 116.052 73.9056 115.948 73.9581C115.926 73.9692 115.903 73.9797 115.881 73.9908C115.754 74.0559 115.921 73.9775 115.922 73.9757C115.908 73.9988 115.808 74.0186 115.781 74.0275C115.663 74.0676 115.542 74.0994 115.418 74.1235C115.394 74.1281 115.369 74.1321 115.344 74.137C115.272 74.1515 115.311 74.1182 115.344 74.1383L115.394 74.1315C115.369 74.1346 115.344 74.137 115.319 74.1389C115.294 74.1407 115.27 74.1432 115.245 74.1447C115.13 74.1522 115.014 74.1525 114.899 74.146C114.864 74.1441 114.688 74.1096 114.803 74.1407C114.925 74.1734 114.738 74.1281 114.712 74.1225C114.604 74.1003 114.497 74.071 114.394 74.034C114.372 74.0263 114.35 74.0167 114.328 74.0096C114.237 73.9797 114.462 74.079 114.38 74.0297C114.341 74.0065 114.298 73.9896 114.258 73.9673C114.212 73.9417 114.169 73.9121 114.124 73.885C114.109 73.8757 114.042 73.8362 114.12 73.8847C114.214 73.9427 114.063 73.8368 114.055 73.8297C113.957 73.7449 113.874 73.6496 113.784 73.5564C113.727 73.4972 113.809 73.5903 113.813 73.5965C113.798 73.574 113.781 73.5521 113.766 73.5295C113.726 73.4706 113.688 73.4098 113.654 73.3472C113.642 73.3244 113.631 73.3006 113.618 73.2775C113.548 73.1519 113.625 73.3093 113.63 73.3133C113.603 73.2898 113.589 73.2041 113.579 73.1701C113.561 73.1143 113.546 73.0578 113.533 73.001C113.528 72.9767 113.524 72.952 113.519 72.9279C113.487 72.7934 113.522 73.0452 113.521 72.9532C113.52 72.8459 113.508 72.74 113.512 72.6324C113.513 72.62 113.522 72.484 113.523 72.484C113.534 72.4852 113.494 72.6496 113.517 72.533C113.523 72.5003 113.528 72.4676 113.535 72.4349C113.558 72.3201 113.589 72.2066 113.626 72.0955C113.642 72.0474 113.661 72.0005 113.678 71.953C113.685 71.9342 113.719 71.8524 113.679 71.9477C113.633 72.056 113.693 71.9197 113.704 71.8971C113.751 71.7978 113.803 71.7009 113.86 71.6065C113.89 71.5559 113.922 71.5059 113.955 71.4566C113.975 71.426 114.06 71.2733 114.011 71.3699C113.966 71.46 114.002 71.3807 114.029 71.3532C114.051 71.3301 114.072 71.3063 114.094 71.2835C114.139 71.2378 114.194 71.1996 114.238 71.153C114.296 71.0903 114.183 71.2033 114.184 71.1934C114.187 71.1743 114.273 71.1329 114.287 71.1234C114.337 71.0916 114.388 71.0617 114.44 71.0339C114.493 71.0055 114.563 70.9555 114.624 70.945C114.625 70.945 114.484 70.9922 114.566 70.9716C114.607 70.9611 114.648 70.9419 114.689 70.929C114.815 70.8889 114.944 70.8679 115.072 70.8386C115.159 70.8188 115.001 70.8506 115.005 70.8475C115.02 70.834 115.113 70.8383 115.137 70.8367C115.208 70.8327 115.278 70.8315 115.349 70.8333C115.38 70.8343 115.513 70.8229 115.533 70.8451C115.515 70.825 115.383 70.8173 115.492 70.8401C115.526 70.8472 115.561 70.8528 115.595 70.8602C115.664 70.8753 115.731 70.8935 115.798 70.9151C115.822 70.9231 115.848 70.9352 115.872 70.941C115.962 70.9611 115.718 70.862 115.864 70.937C115.991 71.0024 116.11 71.0725 116.224 71.1591C116.534 71.3961 117.071 71.2165 117.243 70.8935C117.452 70.5011 117.307 70.1336 116.976 69.8803C115.88 69.0427 114.23 69.2574 113.204 70.0901C112.719 70.4832 112.398 71.0981 112.199 71.6775C111.997 72.2661 111.955 72.9403 112.136 73.5394C112.532 74.8519 113.817 75.68 115.171 75.6288C115.793 75.6053 116.439 75.4353 116.958 75.0858C117.474 74.7387 117.829 74.2876 118.061 73.7187C118.59 72.4235 118.225 70.8802 117.127 69.996C116.824 69.7526 116.365 69.6804 116.073 69.996C115.824 70.2663 115.75 70.7827 116.073 71.0431L116.073 71.0438Z" fill="#726A69"/>
<path d="M121.131 70.7767C121.235 70.8609 121.335 70.9494 121.428 71.0466C121.475 71.096 121.517 71.1478 121.562 71.199C121.46 71.0812 121.572 71.2194 121.607 71.274C121.635 71.3191 121.662 71.365 121.688 71.4119C121.705 71.4428 121.79 71.6041 121.74 71.51C121.689 71.4135 121.766 71.5835 121.774 71.61C121.792 71.6646 121.808 71.7198 121.822 71.7757C121.836 71.8306 121.846 71.8861 121.858 71.9413C121.887 72.0783 121.848 71.7948 121.857 71.933C121.864 72.049 121.871 72.1635 121.867 72.2798C121.865 72.3323 121.862 72.3847 121.857 72.4372C121.855 72.4591 121.851 72.4813 121.85 72.5035C121.846 72.5837 121.863 72.4122 121.862 72.4152C121.825 72.4992 121.825 72.6152 121.801 72.7056C121.777 72.796 121.747 72.8833 121.716 72.9709C121.676 73.0838 121.691 72.9947 121.735 72.9323C121.709 72.969 121.695 73.019 121.674 73.0594C121.642 73.1212 121.607 73.1813 121.569 73.2393C121.556 73.2584 121.542 73.2766 121.529 73.2961C121.484 73.3683 121.569 73.239 121.57 73.2449C121.573 73.2714 121.455 73.3735 121.437 73.3911C121.402 73.426 121.366 73.4596 121.328 73.492C121.312 73.5059 121.268 73.5519 121.252 73.5549C121.245 73.5562 121.379 73.4716 121.304 73.513C121.203 73.5685 121.11 73.6385 121.006 73.691C120.984 73.7021 120.961 73.7126 120.939 73.7237C120.812 73.7888 120.979 73.7104 120.98 73.7086C120.966 73.7317 120.865 73.7515 120.839 73.7604C120.721 73.8005 120.599 73.8323 120.476 73.8564C120.451 73.861 120.427 73.865 120.402 73.8699C120.329 73.8844 120.369 73.8511 120.402 73.8712L120.451 73.8644C120.427 73.8675 120.402 73.8699 120.377 73.8718C120.352 73.8736 120.327 73.8761 120.302 73.8777C120.187 73.8851 120.071 73.8854 119.956 73.8789C119.922 73.877 119.745 73.8425 119.861 73.8736C119.983 73.9063 119.796 73.861 119.77 73.8554C119.662 73.8332 119.555 73.8039 119.451 73.7669C119.429 73.7592 119.408 73.7496 119.386 73.7425C119.294 73.7126 119.519 73.8119 119.437 73.7626C119.399 73.7394 119.355 73.7225 119.316 73.7003C119.27 73.6746 119.227 73.645 119.182 73.6179C119.167 73.6086 119.099 73.5691 119.177 73.6176C119.271 73.6756 119.121 73.5697 119.113 73.5627C119.014 73.4778 118.932 73.3825 118.842 73.2893C118.785 73.2301 118.867 73.3232 118.871 73.3294C118.856 73.3069 118.839 73.285 118.824 73.2625C118.783 73.2035 118.746 73.1428 118.712 73.0801C118.699 73.0573 118.688 73.0335 118.675 73.0104C118.606 72.8848 118.683 73.0422 118.688 73.0462C118.661 73.0227 118.647 72.937 118.636 72.903C118.619 72.8472 118.604 72.7907 118.591 72.734C118.586 72.7096 118.582 72.6849 118.576 72.6608C118.544 72.5263 118.58 72.7781 118.579 72.6861C118.577 72.5788 118.565 72.4729 118.57 72.3653C118.571 72.3529 118.58 72.2169 118.581 72.2169C118.592 72.2181 118.552 72.3825 118.575 72.2659C118.581 72.2332 118.586 72.2005 118.593 72.1678C118.616 72.053 118.647 71.9395 118.684 71.8284C118.7 71.7803 118.718 71.7334 118.735 71.6859C118.742 71.6671 118.776 71.5853 118.736 71.6806C118.691 71.7889 118.75 71.6526 118.761 71.63C118.809 71.5307 118.861 71.4338 118.918 71.3394C118.948 71.2888 118.979 71.2388 119.012 71.1895C119.032 71.1589 119.118 71.0062 119.069 71.1028C119.024 71.1929 119.06 71.1136 119.086 71.0861C119.108 71.063 119.129 71.0392 119.152 71.0164C119.197 70.9707 119.252 70.9325 119.295 70.8859C119.354 70.8233 119.241 70.9362 119.242 70.9263C119.244 70.9072 119.33 70.8658 119.345 70.8563C119.395 70.8245 119.445 70.7946 119.497 70.7668C119.55 70.7384 119.621 70.6884 119.682 70.6779C119.683 70.6779 119.542 70.7251 119.623 70.7045C119.665 70.694 119.705 70.6749 119.746 70.6619C119.873 70.6218 120.001 70.6008 120.13 70.5715C120.217 70.5517 120.059 70.5835 120.063 70.5804C120.078 70.5669 120.17 70.5712 120.195 70.5696C120.265 70.5656 120.336 70.5644 120.406 70.5663C120.437 70.5672 120.571 70.5558 120.591 70.578C120.572 70.5579 120.441 70.5502 120.549 70.573C120.584 70.5801 120.618 70.5857 120.653 70.5931C120.721 70.6082 120.789 70.6264 120.856 70.648C120.88 70.656 120.905 70.6681 120.93 70.6739C121.019 70.694 120.776 70.5949 120.922 70.6699C121.048 70.7353 121.168 70.8054 121.281 70.8921C121.592 71.129 122.129 70.9494 122.301 70.6264C122.509 70.234 122.365 69.8665 122.034 69.6132C120.937 68.7756 119.287 68.9903 118.261 69.823C117.777 70.2161 117.455 70.831 117.256 71.4104C117.054 71.999 117.013 72.6732 117.194 73.2723C117.589 74.5848 118.874 75.4129 120.229 75.3617C120.851 75.3382 121.497 75.1682 122.016 74.8187C122.532 74.4716 122.886 74.0205 123.119 73.4516C123.648 72.1564 123.283 70.6131 122.184 69.7289C121.882 69.4855 121.422 69.4133 121.131 69.7289C120.881 69.9992 120.807 70.5157 121.131 70.7761L121.131 70.7767Z" fill="#726A69"/>
<path d="M105.069 86.7899C104.728 87.435 104.582 88.1314 104.486 88.8481C104.391 89.5648 104.315 90.2997 104.31 91.0247C104.3 92.5322 104.675 94.0436 105.575 95.2743C107.138 97.4133 109.724 98.6101 112.298 99.0316C114.017 99.3129 115.761 99.3935 117.501 99.3157C119.24 99.238 120.991 99.1022 122.716 98.8878C125.834 98.5 129.07 97.5852 131.328 95.283C132.568 94.0189 133.352 92.4202 133.431 90.6443C133.514 88.7882 132.883 86.9762 132.188 85.2827C132.036 84.9128 131.693 84.6506 131.272 84.7656C130.919 84.8619 130.598 85.304 130.751 85.6764C131.303 87.0191 131.844 88.4353 131.934 89.8964C132.018 91.2589 131.653 92.5325 130.818 93.6219C129.128 95.8272 126.277 96.825 123.626 97.2723C122.071 97.5349 120.491 97.6173 118.92 97.7413C117.325 97.8672 115.728 97.9138 114.131 97.7786C111.768 97.5787 109.287 96.9462 107.529 95.2672C106.531 94.3139 105.925 93.0872 105.821 91.7087C105.766 90.9658 105.83 90.2232 105.902 89.4836C105.966 88.8314 106.044 88.1255 106.355 87.5378C106.801 86.6949 105.516 85.9458 105.069 86.7902L105.069 86.7899Z" fill="#726A69"/>
<path d="M120.98 92.4789C121.061 92.5159 121.144 92.5598 121.23 92.6104C120.66 91.9532 120.469 91.1029 120.906 90.5599C121.195 90.2005 121.779 89.991 122.153 90.0178C122.763 90.0613 123.999 90.2332 124.537 90.5099C123.847 90.144 123.437 89.178 123.881 88.5387C124.057 88.2842 124.853 87.8948 125.607 88.0025C126.194 88.0864 126.78 88.2426 127.659 88.7667C128.82 89.4588 129.88 90.1921 130.875 91.1899C131.768 92.0856 132.54 92.7911 132.636 94.0487C132.689 94.746 132.575 95.4929 132.123 96.0294C131.942 96.2454 131.708 96.4243 131.58 96.6752C131.297 97.2259 131.61 97.8874 131.573 98.5044C131.527 99.2708 130.953 99.8894 130.407 100.432C129.296 101.537 128.153 102.632 126.81 103.442C126.702 103.507 126.592 103.571 126.482 103.631C126.527 103.747 126.556 103.822 126.556 103.822C126.789 104.261 127.248 105.103 127.263 105.855C127.266 106.053 126.944 106.815 126.505 107.529C126.146 108.114 125.086 109.762 124.474 110.452C123.827 111.181 122.925 111.86 121.956 111.736C121.08 111.624 120.496 110.973 120.12 110.18C119.34 108.535 119.039 107.264 118.67 105.467C118.597 105.11 118.612 104.508 118.623 104.144C118.651 103.279 119.505 101.577 120.162 101.011C120.162 101.011 120.297 100.858 120.476 100.653C120.003 99.9196 119.557 99.1668 119.096 98.3934C118.779 97.7467 118.395 96.8655 118.449 96.4271C118.498 96.0288 118.622 95.6185 118.916 95.343C119.209 95.0675 119.706 94.978 120.018 95.2322C119.651 94.9243 119.324 94.5433 119.19 94.0848C119.056 93.6263 119.003 93.0377 119.358 92.7153C119.781 92.3311 120.286 92.1596 120.98 92.4786L120.98 92.4789Z" fill="white"/>
<path d="M125.913 104.196C126.048 104.451 126.187 104.707 126.296 104.975C126.373 105.166 126.44 105.368 126.482 105.57C126.494 105.625 126.502 105.681 126.512 105.736C126.511 105.874 126.516 105.895 126.526 105.8C126.538 105.726 126.536 105.726 126.52 105.802C126.4 106.048 126.324 106.316 126.196 106.563C126.043 106.86 125.87 107.146 125.692 107.429C125.045 108.453 124.407 109.561 123.511 110.371C123.052 110.787 122.411 111.176 121.775 110.935C121.164 110.703 120.868 110.046 120.619 109.494C120.314 108.817 120.074 108.111 119.878 107.395C119.68 106.673 119.455 105.9 119.376 105.161C119.295 104.405 119.351 103.897 119.633 103.205C119.878 102.605 120.216 101.961 120.689 101.534C121.401 100.893 120.345 99.8483 119.636 100.487C119.062 101.004 118.659 101.741 118.353 102.438C118.027 103.18 117.865 103.878 117.869 104.688C117.874 105.617 118.121 106.541 118.348 107.437C118.576 108.333 118.88 109.208 119.251 110.058C119.608 110.875 120.057 111.675 120.859 112.135C121.741 112.642 122.785 112.561 123.658 112.083C125.067 111.312 125.963 109.76 126.802 108.453C127.25 107.756 127.75 107.005 127.957 106.195C128.192 105.275 127.617 104.235 127.199 103.448C126.751 102.605 125.465 103.352 125.912 104.195L125.913 104.196Z" fill="#726A69"/>
<path d="M123.385 104.986C124.353 105.082 125.251 105.043 126.149 104.643C127.192 104.178 128.143 103.481 129.012 102.751C129.903 102.003 130.834 101.185 131.559 100.273C131.925 99.8124 132.214 99.3138 132.294 98.7226C132.335 98.4107 132.308 98.1182 132.265 97.8072C132.235 97.5944 132.165 97.3306 132.211 97.1171C132.255 96.9165 132.437 96.79 132.57 96.6435C132.778 96.4136 132.955 96.1643 133.082 95.8817C133.323 95.3477 133.416 94.7556 133.388 94.1722C133.335 93.0371 132.806 92.1285 132.04 91.314C131.231 90.4529 130.352 89.6714 129.382 88.9921C128.47 88.3525 127.479 87.6901 126.387 87.4038C125.369 87.1366 123.889 87.185 123.237 88.1649C122.553 89.1938 123.172 90.5791 124.161 91.149L124.913 89.8701C124.355 89.6014 123.748 89.4801 123.138 89.3916C122.517 89.3012 121.904 89.1969 121.3 89.4295C120.629 89.6881 120.082 90.1919 119.958 90.9207C119.816 91.75 120.186 92.5074 120.703 93.1334L121.606 91.9706C121.062 91.667 120.445 91.4732 119.822 91.6293C119.311 91.7574 118.785 92.1103 118.54 92.5814C117.965 93.6832 118.641 95.0206 119.491 95.7556L120.394 94.5927C119.625 94.0614 118.606 94.4332 118.116 95.1493C117.625 95.8654 117.631 96.7419 117.915 97.529C118.226 98.3891 118.68 99.1555 119.152 99.9348C119.652 100.759 120.172 101.572 120.74 102.351C120.976 102.675 121.388 102.833 121.76 102.617C122.081 102.43 122.265 101.929 122.027 101.604C121.191 100.457 120.367 99.2274 119.715 97.9674C119.505 97.5638 119.193 96.9341 119.19 96.5395C119.188 96.3562 119.339 95.6618 119.642 95.8716C120.332 96.3488 121.183 95.2601 120.545 94.7087C120.194 94.4061 119.69 93.8677 119.837 93.3413C119.965 92.8869 120.563 93.0871 120.853 93.2494C121.627 93.6816 122.276 92.716 121.756 92.0866C121.563 91.8527 121.31 91.4319 121.436 91.115C121.528 90.8821 121.864 90.7655 122.069 90.7556C122.411 90.7392 122.784 90.8204 123.119 90.8802C123.314 90.9151 123.508 90.9546 123.701 91.0036C123.872 91.0471 124.069 91.1051 124.16 91.149C125.013 91.5602 125.752 90.3545 124.912 89.8701C124.681 89.7368 124.491 89.5169 124.447 89.2438C124.434 89.1584 124.439 89.0744 124.471 88.9887C124.47 88.9911 124.377 89.096 124.488 88.9732C124.432 89.0349 124.616 88.8998 124.659 88.8794C125.288 88.5848 126.015 88.7779 126.618 89.0516C128.347 89.8371 129.938 91.1579 131.18 92.5731C131.707 93.1732 131.978 93.8658 131.889 94.6698C131.852 95.0102 131.741 95.3341 131.516 95.596C131.125 96.0496 130.791 96.3942 130.728 97.0174C130.684 97.4571 130.814 97.8807 130.828 98.3179C130.841 98.7245 130.642 99.0633 130.388 99.3693C129.768 100.118 129.003 100.793 128.273 101.433C127.465 102.142 126.586 102.782 125.619 103.26C124.895 103.618 124.21 103.587 123.385 103.504C122.984 103.465 122.64 103.873 122.64 104.245C122.64 104.678 122.983 104.945 123.385 104.985L123.385 104.986Z" fill="#726A69"/>
<path d="M119.642 95.8717C119.679 95.8936 119.714 95.918 119.749 95.9418C119.891 96.0371 119.6 95.8196 119.75 95.9418C119.867 96.0371 119.981 96.1358 120.093 96.2367C120.383 96.4983 120.663 96.7717 120.939 97.0484C121.535 97.6473 122.117 98.264 122.659 98.9119C122.721 98.9866 122.783 99.0616 122.844 99.1375C122.863 99.1615 122.969 99.2961 122.878 99.1797C122.789 99.0659 122.883 99.1871 122.903 99.2146C122.98 99.3183 123.056 99.4241 123.118 99.5373C123.305 99.8779 123.806 100.015 124.137 99.803C124.485 99.5802 124.604 99.1541 124.405 98.7898C124.253 98.5136 124.04 98.2653 123.843 98.0222C123.585 97.705 123.313 97.3989 123.038 97.0972C122.455 96.4589 121.852 95.8338 121.213 95.25C120.958 95.0174 120.692 94.7694 120.395 94.5929C120.06 94.3942 119.562 94.5071 119.375 94.8585C119.185 95.2161 119.285 95.6595 119.643 95.8717H119.642Z" fill="#726A69"/>
<path d="M120.913 93.293C122 93.9307 123.072 94.6064 124.098 95.3379C124.138 95.3666 124.178 95.3956 124.217 95.4252C124.311 95.4943 124.081 95.3123 124.249 95.4505C124.344 95.5292 124.44 95.6066 124.534 95.6866C124.747 95.8683 124.955 96.0559 125.16 96.2475C125.599 96.6593 126.024 97.0879 126.422 97.5392C126.687 97.8401 127.204 97.8089 127.476 97.5392C127.776 97.2406 127.742 96.7935 127.476 96.4921C126.704 95.6171 125.843 94.7795 124.896 94.0924C123.862 93.3424 122.767 92.6608 121.665 92.0142C120.838 91.5286 120.087 92.8083 120.913 93.293Z" fill="#726A69"/>
<path d="M124.16 91.1494C124.503 91.3385 124.826 91.5653 125.144 91.7936C125.345 91.9383 125.543 92.0867 125.74 92.2363C125.6 92.1302 125.778 92.266 125.806 92.2872C125.863 92.3314 125.92 92.3761 125.976 92.4205C126.083 92.5048 126.19 92.5896 126.295 92.6751C127.086 93.3119 127.877 93.9721 128.563 94.7215C128.826 95.0091 129.353 95.0066 129.616 94.7215C129.9 94.4142 129.897 93.9811 129.616 93.6744C128.917 92.9095 128.107 92.2366 127.3 91.5884C126.544 90.981 125.767 90.3414 124.913 89.8706C124.572 89.6827 124.084 89.7774 123.893 90.1362C123.708 90.4845 123.796 90.9486 124.16 91.1494Z" fill="#726A69"/>
<path d="M98.3736 63.7542C99.2496 64.2139 100.193 64.4074 101.183 64.4009C102.195 64.3944 103.212 64.1945 104.022 63.5673C104.331 63.3282 104.294 62.7679 104.022 62.5201C103.694 62.2212 103.298 62.265 102.968 62.5201C103.195 62.3446 103.023 62.4763 102.964 62.5133C102.908 62.5491 102.85 62.5821 102.791 62.613C102.76 62.629 102.729 62.6432 102.698 62.659C102.592 62.7136 102.684 62.6278 102.732 62.6479C102.7 62.6346 102.53 62.7222 102.493 62.7342C102.275 62.804 102.05 62.8521 101.825 62.8857C101.936 62.8691 101.814 62.8857 101.766 62.8907C101.7 62.8971 101.634 62.9027 101.568 62.9067C101.41 62.9169 101.252 62.9209 101.093 62.92C100.951 62.9191 100.809 62.9144 100.668 62.9049C100.602 62.9005 100.538 62.8953 100.473 62.8888C100.461 62.8876 100.227 62.8521 100.383 62.8793C100.172 62.8425 99.9642 62.8024 99.7587 62.7413C99.6712 62.7154 99.5858 62.6843 99.4995 62.6546C99.3104 62.5905 99.6134 62.7126 99.4427 62.6327C99.3356 62.5824 99.2301 62.5303 99.1254 62.4754C98.7809 62.2946 98.2997 62.3773 98.106 62.741C97.9241 63.0832 98.0055 63.5611 98.3733 63.7542H98.3736Z" fill="#726A69"/>
<path d="M100.796 57.1868C100.918 57.6496 101.036 58.1195 101.105 58.5934L101.079 58.3965C101.087 58.4613 101.09 58.5255 101.084 58.5906L101.111 58.3938C101.106 58.424 101.099 58.4524 101.089 58.4811L101.164 58.3043C101.155 58.3246 101.146 58.3419 101.133 58.3604L101.25 58.2105C101.235 58.2281 101.221 58.2417 101.203 58.2558L101.354 58.1402C101.319 58.163 101.281 58.1815 101.242 58.1991L101.42 58.1244C101.358 58.15 101.297 58.1688 101.231 58.1793L101.429 58.1528C101.37 58.1599 101.311 58.1593 101.252 58.1525L101.45 58.179C101.383 58.1698 101.317 58.1537 101.251 58.1448C101.152 58.1139 101.053 58.1096 100.954 58.1315C100.855 58.1358 100.762 58.1651 100.677 58.2194C100.522 58.3092 100.375 58.4854 100.334 58.6619C100.291 58.8513 100.3 59.0642 100.409 59.2323C100.506 59.3817 100.669 59.5476 100.855 59.5726C101.009 59.5933 101.158 59.6322 101.314 59.639C101.555 59.6495 101.779 59.576 101.994 59.4779C102.26 59.3567 102.468 59.1176 102.539 58.8328C102.599 58.5915 102.574 58.3817 102.532 58.1402C102.455 57.6869 102.35 57.238 102.233 56.7934C102.134 56.4189 101.696 56.1542 101.316 56.2763C100.928 56.401 100.69 56.7854 100.796 57.1868Z" fill="#726A69"/>
<path d="M93.3328 53.198C93.0965 53.9613 93.2505 55.7171 94.7054 55.8668C96.6285 55.8554 96.7306 53.7324 96.0834 52.7343C95.5535 51.917 93.9949 51.5773 93.3328 53.198Z" fill="#726A69"/>
<path d="M108.732 53.1983C108.968 53.9616 108.814 55.7174 107.359 55.8667C105.436 55.8553 105.334 53.7324 105.981 52.7343C106.511 51.917 108.07 51.5773 108.732 53.1983Z" fill="#726A69"/>
<path d="M77.7471 90.4056C78.2872 94.4793 78.8953 98.5392 79.6375 102.582C80.2071 105.683 80.85 108.83 81.1188 111.907C81.288 113.843 81.0099 115.823 80.8419 117.75C80.8072 118.149 81.2092 118.491 81.5869 118.491C82.019 118.491 82.2972 118.15 82.3319 117.75C82.4878 115.964 82.7532 114.119 82.6405 112.322C82.5471 110.832 82.3031 109.348 82.0681 107.876C81.5559 104.67 80.9096 101.488 80.3847 98.2844C79.9554 95.6653 79.586 93.0364 79.2371 90.4056C79.1846 90.0091 78.9323 89.6651 78.4921 89.6651C78.1305 89.6651 77.694 90.0063 77.7471 90.4056Z" fill="#726A69"/>
</g>
<path d="M56.1895 54.0438C54.4653 54.0438 53.0064 53.7344 51.8128 53.1155C50.6191 52.4965 49.6465 51.6455 48.895 50.5624C48.1434 49.4571 47.6019 48.1861 47.2703 46.7493C46.9387 45.2904 46.7729 43.7431 46.7729 42.1074C46.7729 40.4274 46.9387 38.858 47.2703 37.3991C47.624 35.9402 48.1766 34.6581 48.9281 33.5529C49.7018 32.4477 50.6855 31.5856 51.8791 30.9667C53.0949 30.3477 54.5538 30.0383 56.2558 30.0383C58.0242 30.0383 59.5052 30.3588 60.6988 30.9998C61.9146 31.6409 62.8872 32.5361 63.6166 33.6855C64.3682 34.8129 64.8987 36.0949 65.2082 37.5317C65.5397 38.9685 65.7055 40.4716 65.7055 42.0411C65.7055 43.6547 65.5397 45.1799 65.2082 46.6167C64.8766 48.0535 64.3461 49.3356 63.6166 50.4629C62.8872 51.5681 61.9146 52.4413 60.6988 53.0823C59.4831 53.7233 57.98 54.0438 56.1895 54.0438ZM56.1895 49.6671C57.2726 49.6671 58.1237 49.424 58.7426 48.9377C59.3836 48.4293 59.8589 47.7772 60.1683 46.9814C60.4999 46.1857 60.7099 45.3567 60.7983 44.4947C60.9088 43.6105 60.9641 42.7926 60.9641 42.0411C60.9641 41.3337 60.9088 40.549 60.7983 39.6869C60.7099 38.8027 60.511 37.9738 60.2015 37.2002C59.892 36.4044 59.4278 35.7523 58.8089 35.2439C58.19 34.7355 57.35 34.4813 56.289 34.4813C55.228 34.4813 54.3769 34.7355 53.7359 35.2439C53.0949 35.7302 52.6086 36.3712 52.277 37.167C51.9675 37.9628 51.7575 38.7917 51.647 39.6538C51.5365 40.5158 51.4812 41.3116 51.4812 42.0411C51.4812 42.7705 51.5254 43.5773 51.6139 44.4615C51.7244 45.3457 51.9344 46.1857 52.2438 46.9814C52.5533 47.7772 53.0175 48.4293 53.6364 48.9377C54.2775 49.424 55.1285 49.6671 56.1895 49.6671Z" fill="#DD99B5"/>
<path d="M30.2278 53.7786V48.6725H23.7622V46.2188H30.2278V44.0968H23.7622V41.61H29.1336L21.3086 29.3088H27.0447L30.0952 35.2771C31.322 37.797 31.7199 38.6591 32.6151 40.4827H32.814C33.7424 38.6591 34.2066 37.6975 35.334 35.2771L38.3181 29.3088H43.9547L36.1629 41.61H41.5011V44.0968H35.1019V46.2188H41.5011V48.6725H35.1019V53.7786H30.2278Z" fill="#DD99B5"/>
<path fill-rule="evenodd" clip-rule="evenodd" d="M47.8199 51.3085L47.8129 51.2983C46.9613 50.0459 46.3595 48.622 45.9952 47.0436L45.9942 47.0394C45.6392 45.4769 45.4644 43.8317 45.4644 42.1074C45.4644 40.3415 45.6386 38.6739 45.9943 37.109L45.9986 37.0907C46.3847 35.4977 46.9959 34.0671 47.8461 32.8169L47.8561 32.8023C48.7505 31.5247 49.8951 30.5212 51.2769 29.8047L51.2855 29.8002L51.2855 29.8003C52.7252 29.0674 54.3976 28.7294 56.256 28.7294C58.1748 28.7294 59.8816 29.0763 61.314 29.8444C62.7231 30.5883 63.8628 31.635 64.714 32.9716C65.5582 34.2415 66.1455 35.6716 66.4859 37.2468C66.8396 38.7832 67.0146 40.3823 67.0146 42.041C67.0146 43.7445 66.8395 45.3691 66.4837 46.911C66.1213 48.4814 65.5355 49.907 64.7157 51.1739L64.7093 51.1839L64.7092 51.1838C63.8538 52.48 62.7124 53.5003 61.3095 54.24C59.8573 55.0058 58.1306 55.3527 56.1897 55.3527C54.3134 55.3527 52.6355 55.0162 51.2106 54.2774C49.8317 53.5624 48.6954 52.5702 47.8199 51.3085ZM65.2084 37.5317C64.8989 36.0949 64.3684 34.8128 63.6169 33.6855C62.8874 32.5361 61.9148 31.6408 60.6991 30.9998C59.5054 30.3588 58.0244 30.0383 56.256 30.0383C54.554 30.0383 53.0951 30.3477 51.8793 30.9666C50.6857 31.5856 49.702 32.4477 48.9284 33.5529C48.1768 34.6581 47.6242 35.9402 47.2705 37.3991C46.939 38.858 46.7732 40.4274 46.7732 42.1074C46.7732 43.7431 46.939 45.2904 47.2705 46.7493C47.6021 48.1861 48.1437 49.4571 48.8952 50.5624C49.6468 51.6455 50.6194 52.4965 51.813 53.1154C53.0067 53.7344 54.4656 54.0438 56.1897 54.0438C57.9802 54.0438 59.4833 53.7233 60.6991 53.0823C61.9148 52.4413 62.8874 51.5681 63.6169 50.4629C64.3463 49.3356 64.8768 48.0535 65.2084 46.6167C65.54 45.1799 65.7058 43.6547 65.7058 42.041C65.7058 40.4716 65.54 38.9685 65.2084 37.5317ZM58.9487 46.507C58.9525 46.4973 58.9564 46.4877 58.9604 46.478C59.2425 45.8009 59.4211 45.0967 59.4965 44.3611C59.4975 44.3515 59.4986 44.3419 59.4998 44.3323C59.6048 43.4924 59.6555 42.7295 59.6555 42.041C59.6555 41.4002 59.6053 40.6722 59.5003 39.8533C59.4997 39.8484 59.4991 39.8434 59.4985 39.8385C59.4977 39.8314 59.4969 39.8243 59.4962 39.8171C59.4192 39.047 59.2475 38.3386 58.9865 37.6862L58.9819 37.6745C58.7483 37.0739 58.4122 36.6116 57.9784 36.2552C57.6601 35.9938 57.1463 35.7901 56.2892 35.7901C55.435 35.7901 54.8982 35.9928 54.5494 36.2693C54.5421 36.2752 54.5346 36.2809 54.5272 36.2866C54.087 36.6205 53.74 37.0653 53.4912 37.6564C53.2242 38.3467 53.042 39.0671 52.9454 39.8202C52.8407 40.6372 52.7903 41.3766 52.7903 42.041C52.7903 42.7145 52.8309 43.4716 52.9148 44.3149C53.013 45.091 53.1969 45.8206 53.4639 46.507C53.6938 47.0981 54.0229 47.5552 54.4468 47.9092C54.7978 48.1678 55.3391 48.3583 56.1897 48.3583C57.0866 48.3583 57.6167 48.1571 57.9322 47.9101C58.3818 47.5528 58.7201 47.095 58.9487 46.507ZM53.6367 48.9377C53.0177 48.4293 52.5535 47.7772 52.2441 46.9814C51.9346 46.1857 51.7246 45.3457 51.6141 44.4615C51.5257 43.5773 51.4815 42.7705 51.4815 42.041C51.4815 41.3116 51.5367 40.5158 51.6472 39.6538C51.7578 38.7917 51.9678 37.9627 52.2772 37.167C52.6088 36.3712 53.0951 35.7302 53.7361 35.2439C54.3772 34.7355 55.2282 34.4813 56.2892 34.4813C57.3502 34.4813 58.1902 34.7355 58.8091 35.2439C59.4281 35.7523 59.8923 36.4044 60.2017 37.2001C60.5112 37.9738 60.7101 38.8027 60.7985 39.6869C60.9091 40.549 60.9643 41.3337 60.9643 42.041C60.9643 42.7926 60.9091 43.6105 60.7985 44.4947C60.7101 45.3567 60.5001 46.1857 60.1686 46.9814C59.8591 47.7772 59.3838 48.4293 58.7428 48.9377C58.1239 49.424 57.2729 49.6671 56.1897 49.6671C55.1287 49.6671 54.2777 49.424 53.6367 48.9377Z" fill="#A55676"/>
<path fill-rule="evenodd" clip-rule="evenodd" d="M30.228 55.0874C29.5052 55.0874 28.9192 54.5014 28.9192 53.7786V49.9813H23.7624C23.0396 49.9813 22.4536 49.3953 22.4536 48.6724V46.2188C22.4536 45.7822 22.6674 45.3956 22.9959 45.1578C22.6674 44.92 22.4536 44.5334 22.4536 44.0968V41.61C22.4536 40.8872 23.0396 40.3012 23.7624 40.3012H26.7501L20.2045 30.0113C19.9481 29.6083 19.9317 29.0976 20.1616 28.6789C20.3914 28.2602 20.8312 28 21.3088 28H27.045C27.5365 28 27.9867 28.2754 28.2104 28.7132L31.2608 34.6814L31.2722 34.7042C31.864 35.9199 32.2595 36.7424 32.6089 37.4691C32.6499 37.5544 32.6903 37.6384 32.7303 37.7216C33.127 36.9059 33.5398 36.0297 34.1477 34.7245C34.1529 34.7135 34.1581 34.7026 34.1635 34.6917L37.1477 28.7235C37.3694 28.2801 37.8226 28 38.3183 28H43.955C44.4322 28 44.8716 28.2597 45.1016 28.6778C45.3317 29.0959 45.316 29.606 45.0606 30.0092L38.5414 40.3012H41.5014C42.2242 40.3012 42.8102 40.8872 42.8102 41.61V44.0968C42.8102 44.5334 42.5964 44.92 42.2678 45.1578C42.5964 45.3956 42.8102 45.7822 42.8102 46.2188V48.6724C42.8102 49.3953 42.2242 49.9813 41.5014 49.9813H36.4109V53.7786C36.4109 54.5014 35.8249 55.0874 35.1021 55.0874H30.228ZM35.1021 48.6724H41.5014V46.2188H35.1021V44.0968H41.5014V41.61H36.1631L43.955 29.3088H38.3183L35.3342 35.2771C34.4945 37.0799 34.0227 38.0733 33.453 39.2165C33.2762 39.5712 33.09 39.9403 32.8805 40.3525C32.8587 40.3954 32.8366 40.4388 32.8143 40.4827H32.6153C32.5929 40.4371 32.5709 40.3921 32.5491 40.3477C32.3439 39.9292 32.1645 39.5604 31.9935 39.2071C31.802 38.8112 31.621 38.4348 31.4262 38.0297C31.075 37.2994 30.679 36.4758 30.0954 35.2771L27.045 29.3088H21.3088L29.1338 41.61H23.7624V44.0968H30.228V46.2188H23.7624V48.6724H30.228V53.7786H35.1021V48.6724Z" fill="#A55676"/>
</svg>
