<svg width="160" height="136" viewBox="0 0 160 136" fill="none" xmlns="http://www.w3.org/2000/svg">
<circle cx="80" cy="68" r="68" fill="#F5ECF0"/>
<mask id="mask0_1154_35510" style="mask-type:alpha" maskUnits="userSpaceOnUse" x="47" y="29" width="92" height="90">
<path fill-rule="evenodd" clip-rule="evenodd" d="M80.4547 29H139V117.655H131.868C130.949 118.168 129.613 118.491 128.127 118.491C126.641 118.491 125.305 118.168 124.386 117.655H109.727L109.029 117.594C107.37 117.633 105.644 117.655 103.873 117.655C90.9393 117.655 80.4547 116.531 80.4547 115.145C80.4547 115.129 80.4561 115.114 80.4588 115.098L80.4547 115.097V29ZM80.4546 64.9637H47V115.146L74.6 118.491L80.4546 115.146V64.9637Z" fill="#D9D9D9"/>
</mask>
<g mask="url(#mask0_1154_35510)">
<path d="M119.375 79.7337L119.164 79.402C117.271 78.6317 113.991 76.8721 113.656 77.0853C110.73 78.7822 105.03 80.2974 100.703 80.2804C96.133 80.269 91.2911 78.8279 88.0966 77.1736C87.7458 76.9736 84.7522 78.4709 82.8285 79.2811L82.5563 79.4033C80.6261 80.269 79.1128 81.4065 77.7873 82.8122C75.9425 84.7781 73.128 92.3175 71.9552 94.0317C71.9552 94.0317 71.7774 94.2918 71.4555 94.762C71.033 92.813 70.6366 90.8854 70.2625 88.8516C70.2129 88.5801 69.9707 88.3888 69.6945 88.4011C67.4533 88.5029 60.9687 89.7278 59.1186 90.3078C58.8733 90.3849 58.715 90.6225 58.7399 90.8786C59.2334 95.9816 59.3948 101.708 60.503 106.916C61.2915 110.627 62.6853 114.225 66.0998 115.922C69.024 117.372 71.9481 117.22 74.388 116.122C76.4584 115.187 78.9542 113.062 80.6708 111.621L81.7346 110.728C81.8467 111.621 81.9153 112.375 81.9153 112.885C81.9153 113.796 81.7725 115.619 81.5862 117.751H128.028V117.572C128.731 117.614 129.445 117.551 130.156 117.366C131.497 117.017 132.722 116.196 133.488 115.046C134.282 113.853 134.56 112.33 134.619 110.923C134.792 106.794 133.502 102.664 131.619 99.028C131.619 99.028 121.009 82.3102 119.374 79.7334L119.375 79.7337Z" fill="#F2D5E1"/>
<path d="M91.1818 76.3661C88.822 76.98 87.0777 77.5536 87.0777 77.5536C82.491 78.5208 79.3803 75.3911 79.4064 72.5373C79.4222 70.7916 79.8314 67.9331 80.315 66.2168C81.0215 63.7088 81.5262 59.2944 81.525 53.1745C81.2236 44.1452 83.6135 37.5974 87.3807 34.0126C89.6517 31.8517 94.7692 28.9077 100.519 28.9077C104.026 28.9077 106.495 29.5415 108.865 30.4967L109.613 30.7981C110.371 31.2072 111.129 31.6163 111.129 31.6163C112.482 32.3463 112.844 32.9025 114.086 34.0944C116.961 36.851 118.959 41.8109 119.278 46.2524C119.369 47.5337 119.581 50.8674 119.377 53.1748C119.479 60.7994 120.894 65.0669 121.624 67.1677C122.209 68.8522 122.494 70.1983 122.51 71.9443C122.536 74.7981 118.967 78.4937 114.865 77.0309C114.865 77.0309 105.237 75.0227 100.364 74.9046C97.7098 74.8401 94.0053 75.6321 91.1821 76.3664L91.1818 76.3661Z" fill="#726A69"/>
<path d="M113.32 76.8912C113.179 76.8339 109.238 74.9701 109.146 74.937C107.756 74.4382 107.811 73.5502 107.636 72.5568C107.481 71.6769 107.377 70.7939 107.341 69.9031C110.84 68.1985 113.628 63.4349 114.124 62.0968C114.215 61.8232 114.417 61.2644 114.57 60.623C115.191 60.5326 116.017 60.5329 116.488 60.1593C117.116 59.6548 117.568 58.9918 117.914 58.2995C118.625 56.8781 118.935 55.2886 118.799 53.729C118.761 53.3332 118.697 52.9278 118.495 52.5714C118.211 52.0636 117.645 51.6909 117.023 51.5986C116.402 51.5064 115.736 51.7007 115.288 52.1031C112.856 51.3657 109.922 47.4989 108.984 45.7505C108.327 44.5278 107.614 41.8767 107.048 40.0061C104.359 43.4869 100.942 45.9529 96.6979 47.1577C95.6888 47.4561 96.6399 44.2742 96.819 42.7711C94.1364 45.3899 91.2042 48.1539 88.4834 50.3667L86.1857 52.1028C85.7371 51.7004 85.0722 51.5058 84.4504 51.5983C83.8287 51.6906 83.2628 52.0633 82.9781 52.5711C82.777 52.9271 82.7121 53.3328 82.6749 53.7287C82.5389 55.2886 82.8481 56.8781 83.5595 58.2992C83.906 58.9918 84.3576 59.6545 84.9853 60.159C85.4674 60.5412 86.1487 60.9741 87.0139 60.7591C87.0139 60.7591 87.0713 60.7449 87.1756 60.7183C87.6574 62.5007 88.5017 64.5601 90.051 66.4032C91.4373 68.052 93.0207 69.3697 94.737 70.1709C94.6942 71.0141 94.5949 71.741 94.4511 72.5568C94.2761 73.5502 94.331 74.4382 92.9413 74.937C92.8494 74.9701 88.4539 77.0134 88.1863 77.1041C88.1863 77.1041 88.123 77.1254 88.0233 77.1594C88.0516 77.1615 88.0798 77.1637 88.0963 77.1732C91.2908 78.8275 96.1327 80.2687 100.703 80.2801C104.934 80.2967 110.47 78.8482 113.449 77.1976C113.504 77.1356 113.563 77.0751 113.616 77.0128C113.44 76.9412 113.319 76.8915 113.319 76.8915L113.32 76.8912Z" fill="white"/>
<path d="M114.022 59.2597C113.999 59.8907 113.849 60.5037 113.666 61.1063C113.601 61.3228 113.529 61.5376 113.456 61.752C113.436 61.8128 113.415 61.8733 113.394 61.9337C113.385 61.9575 113.375 61.98 113.366 62.0038C113.319 62.1398 113.423 61.8776 113.385 61.9618C113.106 62.5739 112.779 63.161 112.425 63.733C111.39 65.4025 110.135 66.9806 108.599 68.2227C107.756 68.9045 106.807 69.4442 105.755 69.686C104.821 69.9005 105.216 71.3286 106.151 71.1142C108.337 70.6119 110.157 69.0255 111.584 67.3755C112.768 66.0072 113.874 64.4664 114.624 62.8146C115.124 61.7137 115.469 60.4676 115.512 59.2603C115.545 58.3073 114.055 58.3085 114.022 59.2603V59.2597Z" fill="#726A69"/>
<path d="M86.7128 51.5796C85.8731 50.8715 84.7289 50.6278 83.6933 51.049C82.5308 51.5216 82.0401 52.5385 81.9308 53.7291C81.725 55.9693 82.4222 58.5193 83.9572 60.2081C84.7969 61.1319 85.9423 61.7434 87.2128 61.4737C88.15 61.2747 87.7536 59.8469 86.8167 60.0456C85.9935 60.2202 85.2231 59.4776 84.7742 58.8762C84.1351 58.0204 83.7421 56.9751 83.5322 55.9372C83.4264 55.414 83.3838 54.883 83.3901 54.3496C83.3956 53.8834 83.3894 53.3067 83.6502 52.8986C84.0705 52.2408 85.0685 52.1291 85.6592 52.6271C85.9659 52.8856 86.412 52.926 86.7128 52.6271C86.9794 52.362 87.021 51.8394 86.7128 51.5796Z" fill="#726A69"/>
<path d="M86.0798 59.2195C86.4625 61.3302 87.1607 63.4044 88.2952 65.238C89.5723 67.3017 91.4165 69.1547 93.5279 70.3758C94.6324 71.0145 95.8499 71.477 97.1157 71.6645C97.5131 71.7235 97.9166 71.5658 98.0321 71.1475C98.1286 70.7982 97.9123 70.2959 97.5118 70.2367C95.4122 69.926 93.5667 68.8446 92.033 67.4168C90.3691 65.868 89.0846 64.0039 88.316 61.8661C87.9609 60.8779 87.7039 59.8585 87.5167 58.8265C87.4453 58.4328 86.9629 58.2104 86.6004 58.3094C86.1832 58.4232 86.0084 58.8253 86.0801 59.2202L86.0798 59.2195Z" fill="#726A69"/>
<path d="M93.9802 70.4013C93.9364 71.0378 93.8535 71.6663 93.7455 72.2951C93.6797 72.677 93.6452 73.0695 93.5388 73.4434C93.5254 73.4897 93.4419 73.7047 93.4953 73.59C93.4612 73.6637 93.4205 73.7337 93.3764 73.8019C93.3122 73.9009 93.4419 73.7313 93.3615 73.8232C93.337 73.8513 93.3112 73.8787 93.2845 73.905C93.1818 74.0062 93.1852 73.9987 93.0725 74.0642C92.8695 74.1817 92.6503 74.2591 92.4371 74.3554C91.3357 74.8531 90.2421 75.3674 89.1429 75.87C88.8589 75.9998 88.5752 76.1294 88.2902 76.2572C88.1887 76.3028 88.0869 76.3472 87.9854 76.3926C87.7967 76.4768 88.1574 76.3306 87.9894 76.3901C87.6107 76.5246 87.3568 76.8949 87.4692 77.3009C87.5698 77.665 88.005 77.9534 88.3855 77.818C88.8235 77.6622 89.2469 77.4441 89.6691 77.2515C90.3449 76.9433 91.0194 76.6326 91.6943 76.3216C92.1925 76.0921 92.6907 75.8632 93.1889 75.6339C93.2246 75.6176 93.2777 75.6043 93.309 75.5799C93.3044 75.5836 93.0281 75.6916 93.1926 75.6312C93.2737 75.6015 93.3528 75.5673 93.4323 75.5337C93.5807 75.4704 93.7266 75.4047 93.8635 75.3192C94.3384 75.0227 94.6789 74.6133 94.885 74.0975C95.0471 73.6915 95.0868 73.2574 95.1579 72.8294C95.292 72.0226 95.4143 71.2171 95.4702 70.4007C95.4975 70.0012 95.1082 69.6603 94.7252 69.6603C94.2993 69.6603 94.0078 70.0003 93.9802 70.4007V70.4013Z" fill="#726A69"/>
<path d="M106.602 70.0355C106.664 71.2103 106.821 72.3923 107.046 73.5474C107.244 74.564 107.885 75.2338 108.842 75.6115C109.123 75.7225 108.651 75.517 108.85 75.6127C108.924 75.6479 108.998 75.6809 109.072 75.7151C109.304 75.8234 109.536 75.9323 109.768 76.0412C110.397 76.3365 111.025 76.6324 111.654 76.9279C112.083 77.1297 112.508 77.346 112.945 77.5311C113.314 77.6878 113.743 77.6409 113.964 77.2655C114.147 76.9542 114.069 76.4099 113.697 76.2523C112.771 75.8601 111.87 75.3967 110.961 74.9691C110.519 74.7615 110.079 74.5495 109.635 74.3484C109.409 74.2465 109.176 74.1669 108.966 74.0337C108.726 73.8812 108.633 73.7251 108.558 73.47C108.433 73.0473 108.394 72.5959 108.321 72.1621C108.203 71.4578 108.13 70.7485 108.092 70.0355C108.072 69.6359 107.765 69.295 107.347 69.295C106.96 69.295 106.581 69.6341 106.602 70.0355H106.602Z" fill="#726A69"/>
<path d="M115.815 52.6258C116.388 52.1427 117.356 52.2343 117.795 52.8511C118.074 53.2444 118.074 53.8189 118.084 54.2798C118.095 54.8364 118.053 55.3915 117.942 55.9372C117.735 56.9606 117.351 57.9726 116.736 58.8253C116.315 59.4085 115.534 60.2026 114.729 60.0607C114.333 59.991 113.926 60.1671 113.813 60.5778C113.714 60.9357 113.935 61.4185 114.333 61.4885C116.667 61.9001 118.244 59.6189 118.971 57.7295C119.4 56.6172 119.606 55.401 119.572 54.2104C119.538 53.0436 119.268 51.9147 118.212 51.2591C117.116 50.5785 115.723 50.7676 114.761 51.5781C114.454 51.8369 114.493 52.359 114.761 52.6252C115.065 52.9276 115.507 52.8847 115.815 52.6252V52.6258Z" fill="#726A69"/>
<path d="M119.363 78.6881C117.809 78.0513 116.202 77.1458 114.574 76.5291C114.319 76.4325 114.042 76.3319 113.765 76.3279C113.377 76.3221 113.052 76.5809 112.721 76.7509C111.882 77.1828 111.004 77.5321 110.112 77.8394C105.721 79.3521 101.048 79.9667 96.4499 79.1482C94.1026 78.7301 91.7713 78.0544 89.5966 77.0758C89.1651 76.8817 88.7131 76.5639 88.2556 76.4455C87.9554 76.3677 87.6291 76.4513 87.342 76.5423C86.4995 76.8089 85.69 77.1989 84.8857 77.5602C82.953 78.4281 80.9704 79.1944 79.2727 80.4865C78.4771 81.0922 77.6772 81.7589 77.0455 82.5373C76.5979 83.0893 76.2241 83.6924 75.8771 84.3104C74.2874 87.1402 73.2109 90.2202 71.6635 93.0679C71.5542 93.2687 71.4406 93.4677 71.3124 93.6572C70.7763 94.4504 72.0664 95.1927 72.5991 94.4047C73.3059 93.3585 73.7839 92.1334 74.3048 90.9906C75.0259 89.4082 75.733 87.818 76.5212 86.2668C76.8645 85.5908 77.2218 84.9194 77.6257 84.2774C77.7076 84.1472 77.7914 84.0182 77.8783 83.8914C77.9218 83.8279 77.9662 83.7649 78.0115 83.7026C78.0413 83.6616 78.1534 83.5156 78.0627 83.6304C78.3204 83.3046 78.6205 83.0118 78.9204 82.7249C79.7123 81.9678 80.583 81.3081 81.5326 80.758C82.4061 80.2517 83.3361 79.8723 84.2561 79.461C85.1163 79.0766 85.9811 78.6696 86.8438 78.309C87.1654 78.1748 87.4913 78.0409 87.8263 77.943C87.8865 77.9255 87.9476 77.9122 88.0078 77.8949C88.1333 77.8594 88.0637 77.9073 87.9715 77.8962C88.1907 77.9233 87.6071 77.7129 87.7704 77.8372C87.8672 77.911 88.0072 77.9575 88.1168 78.0115C90.2196 79.046 92.4695 79.8044 94.7569 80.3153C97.1521 80.8503 99.6317 81.131 102.086 80.9777C104.334 80.8373 106.574 80.4224 108.74 79.8167C109.749 79.5344 110.747 79.2068 111.719 78.8168C112.18 78.632 112.637 78.437 113.085 78.2223C113.271 78.1328 113.457 78.0399 113.64 77.9424C113.733 77.8928 113.828 77.8446 113.918 77.7897C113.928 77.7835 114.026 77.7197 114.033 77.724C114.021 77.7166 113.78 77.8058 113.738 77.8073C113.812 77.8045 113.547 77.7518 113.689 77.7999C113.739 77.8169 113.793 77.8255 113.844 77.8403C113.979 77.8798 114.111 77.9301 114.242 77.981C114.517 78.0874 114.836 78.2312 115.184 78.3907C116.031 78.7785 116.869 79.1864 117.716 79.5727C118.129 79.7612 118.546 79.9429 118.967 80.1154C119.339 80.2678 119.786 79.9503 119.883 79.5983C120.001 79.1731 119.736 78.8406 119.363 78.6875L119.363 78.6881Z" fill="#DDA7BD"/>
<path d="M131.136 70.444C131.067 71.4572 130.998 72.4701 130.929 73.4833C130.903 73.8705 131.291 74.2407 131.674 74.2237C132.1 74.2049 132.391 73.8982 132.419 73.4833C132.488 72.4701 132.557 71.4572 132.626 70.444C132.652 70.0568 132.264 69.6865 131.881 69.7035C131.455 69.7223 131.164 70.029 131.136 70.444Z" fill="#726A69"/>
<path d="M135.662 77.7419C136.646 77.4941 137.638 77.2627 138.642 77.1066C138.814 77.0798 139.003 76.9095 139.087 76.7663C139.18 76.6077 139.22 76.3736 139.162 76.1958C139.104 76.0166 138.992 75.8438 138.82 75.7534C138.631 75.6547 138.455 75.6464 138.246 75.6788C137.242 75.8349 136.25 76.066 135.266 76.314C134.888 76.409 134.624 76.8496 134.746 77.2248C134.872 77.6129 135.258 77.844 135.662 77.7419Z" fill="#726A69"/>
<path d="M134.682 75.0514C135.366 74.273 136.119 73.5516 136.901 72.8713C137.195 72.6152 137.184 72.0824 136.901 71.8242C136.587 71.5379 136.161 71.5511 135.847 71.8242C135.065 72.5045 134.313 73.2258 133.628 74.0042C133.497 74.1536 133.41 74.3245 133.41 74.5278C133.41 74.7095 133.491 74.9264 133.628 75.0514C133.909 75.3077 134.408 75.363 134.682 75.0514Z" fill="#726A69"/>
<path d="M130.976 99.4018C132.802 102.946 134.048 106.905 133.874 110.923C133.8 112.647 133.377 114.404 132.025 115.583C130.8 116.652 129.042 117.033 127.454 116.772C125.517 116.454 123.824 115.365 122.538 113.919C121.902 113.203 120.852 114.254 121.485 114.966C124.074 117.877 128.6 119.504 132.166 117.308C136.024 114.931 135.713 109.6 134.887 105.748C134.357 103.276 133.42 100.9 132.263 98.6543C131.825 97.8058 130.539 98.5543 130.976 99.4018Z" fill="#DDA7BD"/>
<path d="M55.0812 66.0521C54.8022 65.9003 54.4958 65.8364 54.1071 65.8528C53.969 65.8586 53.5301 66.0774 53.373 66.1943C53.2023 66.3217 53.115 66.5599 53.0762 66.7685C52.9841 67.2633 53.2175 68.1016 53.4984 68.5462C53.6036 68.7125 54.9763 71.2967 55.4084 71.9995C55.4863 72.126 57.2929 74.9487 58.1571 76.2214C56.8518 74.5553 54.299 71.363 53.6778 70.6278C52.8214 69.6143 52.2508 69.146 51.6344 69.1176C50.7854 69.0784 50.1065 69.6831 50.172 70.5254C50.2375 71.3676 51.0557 72.2395 51.5403 72.9337C53.1268 75.2057 53.9153 76.218 55.5344 78.4989C53.8995 77.2984 52.4467 76.2892 50.5721 75.0471C50.1829 74.7892 49.3655 74.6667 49.0104 74.9694C48.7975 75.1508 48.5681 75.41 48.5628 75.6885C48.5522 76.2371 48.8316 76.6764 49.2032 77.1942C49.5747 77.7119 50.1922 78.2083 50.7649 78.767C52.019 79.9906 52.9459 80.6219 54.2735 82.2336C56.2413 84.6222 58.2776 86.6431 59.148 87.6072C59.3504 88.2036 59.6226 89.26 59.7313 89.8983L59.7875 90.1195C61.8533 89.5864 66.1796 88.7697 68.643 88.4908L68.6415 88.4529C68.6101 87.7078 68.454 86.5903 68.454 85.8764L68.4304 85.5166C69.2887 84.7962 69.7186 83.9558 70.1721 82.8238C70.752 81.3753 71.2741 79.9067 71.5715 78.3786C71.8037 77.1852 71.9611 76.1862 71.9732 75.3143C71.9781 74.9577 71.8105 74.4489 71.5016 74.2536C71.2772 74.1117 70.5958 74.1583 70.3602 74.2807C69.9455 74.4958 69.5805 75.2881 69.2077 76.1131C68.8513 76.902 68.571 77.5696 68.0011 78.2228C67.5749 78.7112 66.6293 78.9287 65.9604 78.3761C65.5668 78.0509 65.366 77.3904 65.3067 76.885C65.2263 76.197 65.1847 75.667 65.4861 75.0425C65.7875 74.418 66.4862 73.9824 67.0093 74.0614C67.4094 74.1219 68.2885 74.3897 68.693 74.373C69.6078 74.335 70.0265 73.3866 69.8639 72.79C69.7403 72.337 68.4173 71.624 67.8282 71.3386C67.1639 71.0165 66.5198 70.6081 65.7878 70.6654C64.9112 70.7339 64.06 71.3032 63.4948 71.9696C62.9767 72.5805 62.6393 72.9146 62.1966 73.6822C62.0156 73.9778 61.871 74.2629 61.69 74.5587C61.6326 74.6528 61.5717 74.7423 61.5041 74.8046C61.4227 74.8793 61.284 74.8787 61.202 74.8046C61.1735 74.7787 60.9885 74.518 60.9307 74.419C59.9473 72.8282 59.0937 71.3794 57.865 69.5581C57.4932 69.0071 56.1171 66.9974 55.658 66.5158C55.4665 66.3149 55.2805 66.1613 55.0809 66.0527L55.0812 66.0521Z" fill="white"/>
<path d="M59.6747 87.0841C58.8257 86.1474 57.9348 85.2483 57.0796 84.3172C55.9087 83.0424 54.858 81.6478 53.6352 80.423C52.5907 79.3771 51.4533 78.4216 50.3877 77.3964C50.1263 77.1449 49.8851 76.8873 49.6824 76.5868C49.5809 76.4365 49.4698 76.2783 49.3987 76.1114C49.3648 76.0324 49.3313 75.9423 49.318 75.8565C49.3105 75.8081 49.3372 75.6159 49.3009 75.7245C49.3378 75.6137 49.4856 75.5258 49.674 75.5335C49.9879 75.5464 50.1924 75.6837 50.4491 75.8543C52.0428 76.9141 53.6141 78.0057 55.1572 79.1374C55.4813 79.3749 55.9888 79.1907 56.1766 78.8717C56.3983 78.4953 56.2341 78.0967 55.9094 77.8585C54.3865 76.7414 52.8362 75.6637 51.2637 74.6169C50.5916 74.1695 49.7597 73.8659 48.9557 74.1655C48.0083 74.5187 47.624 75.5696 47.95 76.4803C48.2604 77.3482 48.9132 78.0548 49.5781 78.6724C50.198 79.2481 50.808 79.8337 51.4375 80.3995C52.0447 80.9456 52.6404 81.5013 53.1876 82.1075C53.8429 82.8335 54.4492 83.603 55.0979 84.3354C56.2431 85.6281 57.4621 86.8514 58.6215 88.1306C59.2647 88.8402 60.3157 87.7903 59.675 87.0834L59.6747 87.0841Z" fill="#726A69"/>
<path d="M55.6984 77.4526C54.8352 76.2484 53.9548 75.0566 53.0943 73.8506C52.6324 73.203 52.1792 72.5502 51.7021 71.9137C51.392 71.4996 50.7553 70.7934 50.9419 70.2316C50.9863 70.0983 51.0953 69.9798 51.2371 69.9178C51.3504 69.8681 51.4619 69.8598 51.5823 69.8586C51.6161 69.8583 51.7906 69.8904 51.649 69.8604C51.7204 69.8755 51.7937 69.8953 51.8604 69.924C51.7692 69.8848 52.0215 70.0249 52.0417 70.0384C52.1379 70.1026 52.2236 70.176 52.3112 70.2553C52.6147 70.5309 52.8873 70.84 53.1515 71.1525C53.7841 71.901 54.3909 72.6717 55.0034 73.4365C55.8841 74.5358 56.7619 75.6376 57.6308 76.7461C57.8782 77.0617 58.4245 77.0043 58.6843 76.7461C58.9978 76.4345 58.9323 76.0155 58.6843 75.699C57.8155 74.5904 56.9376 73.4887 56.057 72.3894C55.3275 71.4786 54.6185 70.537 53.8288 69.6759C53.352 69.1564 52.7861 68.6198 52.0802 68.4409C51.3408 68.2536 50.4952 68.4801 49.9694 69.0336C48.5542 70.5244 50.1926 72.3033 51.0686 73.5529C52.164 75.1155 53.2998 76.6492 54.4117 78.2002C54.6449 78.5254 55.0614 78.6806 55.4312 78.4658C55.7546 78.2776 55.9331 77.7803 55.6984 77.4526Z" fill="#726A69"/>
<path d="M58.8007 75.8484C57.3669 73.7326 56.002 71.5932 54.7842 69.3484C54.5712 68.956 54.3617 68.5617 54.1419 68.1732C53.9638 67.8585 53.8334 67.505 53.8054 67.1421C53.7921 66.9669 53.789 66.8972 53.8725 66.7281C53.8014 66.8722 53.843 66.7701 53.951 66.7105C54.0348 66.6642 54.1093 66.6149 54.191 66.5945C54.3425 66.5569 54.6777 66.65 54.8751 66.7975C55.0068 66.8959 55.1207 67.0237 55.2281 67.1474C55.333 67.268 55.414 67.3757 55.4522 67.426C55.9144 68.035 56.3515 68.6632 56.7851 69.2923C58.0203 71.0842 59.1452 72.9427 60.2879 74.793C60.7886 75.6038 62.0781 74.8608 61.5746 74.0454C60.4462 72.2183 59.3361 70.3823 58.1181 68.612C57.6546 67.9384 57.1884 67.2646 56.6905 66.6152C56.1342 65.8895 55.5196 65.2533 54.5573 65.1358C53.4373 64.9991 52.3859 65.7525 52.3154 66.9006C52.2658 67.7074 52.601 68.454 52.9794 69.1426C53.5844 70.2441 54.1423 71.3822 54.8112 72.4472C55.6884 73.8439 56.588 75.2304 57.5134 76.596C58.0464 77.3824 59.3377 76.642 58.8001 75.8484H58.8007Z" fill="#726A69"/>
<path d="M67.709 85.8767C67.7118 86.7384 67.8586 87.5934 67.8965 88.4532C67.9136 88.8398 68.2271 89.2122 68.6415 89.1937C69.0304 89.1764 69.4048 88.8676 69.3865 88.4532C69.3486 87.593 69.2018 86.7384 69.199 85.8767C69.1977 85.4895 68.8572 85.1184 68.454 85.1363C68.0508 85.1542 67.7077 85.4618 67.709 85.8767Z" fill="#726A69"/>
<path d="M68.0536 86.6922C69.2857 85.9304 70.0984 84.8852 70.6618 83.5696C71.3711 81.9134 71.9776 80.198 72.3178 78.4271C72.4762 77.603 72.6199 76.7716 72.6869 75.9345C72.7453 75.2067 72.7167 74.4116 72.1704 73.8514C71.6874 73.3562 70.8468 73.3259 70.2188 73.5413C69.4738 73.7967 69.0917 74.606 68.7813 75.2656C68.4373 75.9959 68.1517 76.7694 67.6824 77.433C67.4129 77.8141 66.8877 78.2133 66.4289 77.8067C66.0083 77.434 65.9844 76.5655 65.994 76.0585C66.0043 75.5328 66.2802 74.8954 66.8589 74.7902C66.7754 74.8053 66.9917 74.7954 66.9036 74.7899C66.8042 74.7834 67.073 74.8257 67.0467 74.8201C67.178 74.8482 67.3083 74.8803 67.439 74.9105C67.8003 74.9948 68.1701 75.0852 68.5416 75.1086C69.2478 75.153 69.923 74.7874 70.3014 74.2C70.631 73.6881 70.7869 72.9316 70.4904 72.3692C70.2154 71.8475 69.6315 71.4964 69.1392 71.202C68.4892 70.8136 67.792 70.4529 67.0901 70.1691C66.1722 69.7979 65.2416 69.8914 64.3662 70.3329C63.583 70.7282 63.0174 71.3748 62.464 72.032C62.1874 72.3606 61.9245 72.7021 61.6972 73.0668C61.5712 73.2692 61.4523 73.4762 61.335 73.6835C61.276 73.7875 61.2186 73.8921 61.1587 73.9951C61.1224 74.0587 61.0851 74.1216 61.0469 74.1839C60.9411 74.3268 60.9771 74.3138 61.1556 74.1451H61.5517C61.7823 74.3823 61.854 74.4434 61.7674 74.3286C61.7432 74.2959 61.7196 74.2626 61.6966 74.2293C61.6544 74.1685 61.6137 74.1071 61.5749 74.0442C61.0746 73.2331 59.7851 73.9763 60.2883 74.7917C60.4304 75.0222 60.5922 75.2977 60.8268 75.443C61.227 75.6908 61.736 75.6238 62.0645 75.2922C62.3361 75.0179 62.5031 74.6362 62.6928 74.3067C62.8933 73.9584 63.0982 73.6089 63.3449 73.2902C64.1219 72.2871 65.2245 70.9821 66.6347 71.5741C67.218 71.8191 67.8 72.1338 68.3448 72.4556C68.5599 72.5827 68.8222 72.7434 68.9871 72.881C69.0166 72.9057 69.2488 73.126 69.15 73.0202C69.236 73.1121 69.0957 73.0233 69.146 72.9863C69.1417 72.9893 69.1553 73.0566 69.1535 73.0853C69.1395 73.3312 68.9678 73.6638 68.5422 73.628C68.0372 73.5854 67.3754 73.2886 66.7949 73.3164C66.0412 73.3525 65.3456 73.86 64.9504 74.478C64.5143 75.1601 64.46 75.9675 64.5463 76.749C64.6285 77.4941 64.8089 78.2765 65.3574 78.8297C65.9105 79.3878 66.7726 79.5603 67.5182 79.3514C69.0808 78.9143 69.5809 76.9628 70.2235 75.6923C70.3386 75.4649 70.5112 75.0981 70.6677 74.9605C70.7009 74.9315 70.8005 74.9121 70.6841 74.9466C70.7357 74.9315 70.7946 74.9173 70.8486 74.9105C70.8446 74.9111 71.1501 74.9016 71.1057 74.9007C71.2789 74.904 71.1429 74.9377 71.1218 74.8954C71.1057 74.8627 71.2007 75.3977 71.1687 75.0006C71.1746 75.0744 71.2168 75.1487 71.2258 75.2218C71.2686 75.5643 71.201 75.9503 71.1637 76.2915C70.9542 78.2102 70.433 80.0777 69.747 81.878C69.4716 82.6002 69.1972 83.3339 68.7847 83.9923C68.4112 84.5884 67.8991 85.0444 67.3021 85.4133C66.4895 85.9156 67.2369 87.1976 68.0543 86.6922H68.0536Z" fill="#726A69"/>
<path d="M58.4296 87.8049C58.6807 88.5485 58.8797 89.3229 59.0128 90.096C59.0426 90.2685 59.209 90.4536 59.3552 90.5384C59.5148 90.6313 59.7504 90.6708 59.9292 90.6131C60.1095 90.5551 60.2834 90.444 60.3743 90.2728C60.473 90.0871 60.4848 89.9087 60.4495 89.7023C60.3163 88.9292 60.1173 88.1548 59.8662 87.4112C59.7423 87.0447 59.3472 86.7661 58.9498 86.8941C58.5829 87.012 58.2967 87.4119 58.4296 87.8049Z" fill="#726A69"/>
<path d="M73.9088 102.319C73.2845 99.53 72.6411 96.745 72.0419 93.95C71.7523 92.5984 71.4739 91.244 71.2131 89.8864C71.0936 89.2648 71.0927 88.4512 70.5907 87.9964C70.2006 87.6428 69.7163 87.6506 69.2271 87.6925C67.3776 87.8508 65.5356 88.1849 63.7128 88.5258C62.7627 88.7036 61.8146 88.893 60.871 89.1025C60.2238 89.2462 59.5464 89.3703 58.9206 89.594C58.5633 89.7214 58.2858 89.9414 58.1207 90.2857C57.9639 90.6121 58.0012 90.9348 58.0335 91.2828C58.0971 91.9674 58.1545 92.6527 58.2092 93.3379C58.3237 94.7726 58.4265 96.2078 58.5432 97.6422C58.7791 100.535 59.0684 103.433 59.6175 106.286C60.0623 108.597 60.6807 110.948 61.9227 112.975C63.2398 115.125 65.242 116.633 67.6797 117.326C70.2688 118.063 73.0477 117.714 75.4069 116.442C77.531 115.296 79.3867 113.668 81.2225 112.123C81.4305 111.948 81.6385 111.773 81.8461 111.598C82.1531 111.339 82.114 110.817 81.8461 110.551C81.5419 110.249 81.1005 110.291 80.7926 110.551C77.7077 113.15 74.3775 116.432 70.0298 116.227C67.6992 116.117 65.4428 115.058 63.9481 113.274C62.6227 111.691 61.9261 109.653 61.4412 107.681C60.1843 102.568 60.0443 97.2509 59.5902 92.0298C59.5626 91.7132 59.534 91.3967 59.5042 91.0801C59.5011 91.0487 59.4403 90.6318 59.3953 90.9894C59.3903 91.0292 59.3313 90.978 59.3841 91.0008C59.3984 91.007 59.4937 90.9681 59.5036 90.9654C59.7842 90.8879 60.0648 90.8126 60.3476 90.7435C61.1258 90.5535 61.9099 90.3872 62.695 90.2283C64.4454 89.8747 66.3784 89.5245 68.045 89.3052C68.3946 89.2592 68.745 89.2176 69.0961 89.1849C69.2311 89.1722 69.3662 89.1608 69.5015 89.1521C69.5114 89.1515 69.6899 89.1528 69.6949 89.1414C69.6896 89.1534 69.5083 89.0565 69.5487 89.0383C69.5313 89.046 69.5701 89.1725 69.5698 89.1861C69.5664 89.4872 69.693 89.8463 69.7498 90.1437C69.8101 90.4591 69.8712 90.7741 69.9336 91.0891C70.0606 91.7336 70.1916 92.3775 70.3253 93.0204C70.8571 95.5753 71.4369 98.1198 72.0112 100.665C72.1652 101.347 72.3188 102.03 72.4716 102.712C72.6799 103.642 74.1165 103.248 73.9085 102.318L73.9088 102.319Z" fill="#DDA7BD"/>
<path d="M105.343 93.1708C105.049 92.2144 105.007 91.199 105.094 90.2044C105.175 89.2698 105.255 87.9648 105.723 87.1438C106.898 87.241 107.449 85.6308 107.95 84.8129C110.529 80.6021 113.807 78.8102 117.751 78.3598C121.869 77.8899 126.308 79.7145 128.939 83.3798C129.452 84.0943 130.319 85.6928 131.457 85.45C132.325 87.5476 133.098 89.8742 132.455 92.0543C132.089 93.2979 131.279 94.3821 130.295 95.233C128.785 96.5393 126.875 97.3236 124.924 97.7688C122.878 98.2353 120.78 98.3297 118.696 98.4988C116.558 98.6725 114.391 98.6505 112.273 98.2794C109.538 97.7969 106.544 96.2802 105.483 93.5713C105.431 93.4389 105.384 93.3053 105.343 93.1705L105.343 93.1708Z" fill="#DD99B5"/>
<path d="M117.752 78.36C113.807 78.8101 110.53 80.602 107.951 84.8131C107.414 85.6893 106.821 87.4748 105.463 87.0962C104.911 86.9422 104.668 86.4699 104.528 85.9426C104.389 85.4153 104.538 84.4793 104.731 83.9677C106.84 78.3856 111.683 74.9684 117.707 74.7583C123.864 74.5435 128.656 76.3703 131.799 81.8519C132.063 82.3131 132.512 83.5917 132.468 84.1189C132.424 84.6462 132.296 85.0575 131.808 85.3194C130.497 86.0225 129.505 84.1664 128.941 83.3803C126.309 79.715 121.87 77.8901 117.752 78.3603V78.36Z" fill="white"/>
<path d="M116.6 70.52C117.989 71.6131 117.585 73.2714 117.131 73.9163C116.374 74.993 114.61 75.176 113.677 74.4722C112.368 73.4837 112.651 71.9883 113.399 70.9584C114.035 70.0822 115.633 69.7576 116.6 70.52Z" fill="white"/>
<path d="M121.657 70.253C123.045 71.3461 122.641 73.0044 122.188 73.6492C121.43 74.726 119.666 74.9089 118.734 74.2052C117.424 73.2167 117.708 71.7213 118.455 70.6914C119.091 69.8152 120.689 69.4906 121.657 70.253Z" fill="white"/>
<path d="M116.072 71.0437C116.177 71.128 116.277 71.2165 116.37 71.3137C116.416 71.3631 116.459 71.4149 116.504 71.4661C116.402 71.3483 116.514 71.4865 116.549 71.5411C116.577 71.5861 116.604 71.6321 116.63 71.679C116.646 71.7098 116.731 71.8712 116.682 71.7771C116.631 71.6805 116.708 71.8505 116.716 71.8771C116.734 71.9317 116.75 71.9869 116.764 72.0427C116.778 72.0977 116.788 72.1532 116.799 72.2084C116.829 72.3454 116.79 72.0619 116.799 72.2001C116.806 72.3161 116.813 72.4306 116.809 72.5469C116.807 72.5993 116.804 72.6518 116.799 72.7042C116.797 72.7261 116.793 72.7483 116.792 72.7706C116.788 72.8508 116.805 72.6792 116.804 72.6823C116.767 72.7662 116.767 72.8822 116.743 72.9726C116.719 73.063 116.689 73.1504 116.658 73.238C116.618 73.3509 116.633 73.2617 116.677 73.1994C116.651 73.2361 116.636 73.2861 116.616 73.3265C116.584 73.3882 116.549 73.4484 116.511 73.5064C116.498 73.5255 116.483 73.5437 116.471 73.5632C116.426 73.6354 116.511 73.5061 116.512 73.5119C116.515 73.5385 116.397 73.6406 116.379 73.6582C116.344 73.693 116.308 73.7267 116.27 73.7591C116.254 73.773 116.21 73.8189 116.194 73.822C116.187 73.8232 116.321 73.7387 116.246 73.7801C116.144 73.8356 116.052 73.9056 115.948 73.9581C115.926 73.9692 115.903 73.9797 115.881 73.9908C115.754 74.0559 115.921 73.9775 115.922 73.9757C115.908 73.9988 115.807 74.0185 115.781 74.0275C115.662 74.0676 115.541 74.0994 115.418 74.1234C115.393 74.1281 115.368 74.1321 115.344 74.137C115.271 74.1515 115.311 74.1182 115.344 74.1383L115.393 74.1315C115.368 74.1346 115.344 74.137 115.319 74.1389C115.294 74.1407 115.269 74.1432 115.244 74.1447C115.129 74.1521 115.013 74.1524 114.898 74.146C114.864 74.1441 114.687 74.1096 114.803 74.1407C114.925 74.1734 114.738 74.1281 114.712 74.1225C114.604 74.1003 114.497 74.071 114.393 74.034C114.371 74.0263 114.35 74.0167 114.328 74.0096C114.236 73.9797 114.461 74.079 114.379 74.0297C114.341 74.0065 114.297 73.9895 114.258 73.9673C114.212 73.9417 114.169 73.9121 114.124 73.885C114.109 73.8757 114.041 73.8362 114.119 73.8846C114.213 73.9426 114.063 73.8368 114.054 73.8297C113.956 73.7449 113.873 73.6496 113.784 73.5564C113.727 73.4971 113.809 73.5903 113.813 73.5965C113.797 73.574 113.781 73.5521 113.765 73.5295C113.725 73.4706 113.688 73.4098 113.654 73.3472C113.641 73.3244 113.63 73.3006 113.617 73.2775C113.548 73.1519 113.625 73.3092 113.629 73.3133C113.603 73.2898 113.589 73.204 113.578 73.1701C113.561 73.1143 113.546 73.0578 113.533 73.001C113.528 72.9767 113.524 72.952 113.518 72.9279C113.486 72.7934 113.521 73.0451 113.521 72.9532C113.519 72.8458 113.507 72.74 113.512 72.6323C113.512 72.62 113.522 72.4839 113.523 72.4839C113.534 72.4852 113.494 72.6496 113.516 72.533C113.523 72.5003 113.528 72.4676 113.534 72.4349C113.558 72.3201 113.589 72.2066 113.626 72.0955C113.642 72.0474 113.66 72.0005 113.677 71.953C113.684 71.9341 113.718 71.8524 113.678 71.9477C113.633 72.056 113.692 71.9196 113.703 71.8971C113.751 71.7978 113.803 71.7009 113.859 71.6065C113.89 71.5559 113.921 71.5059 113.954 71.4566C113.974 71.426 114.059 71.2733 114.011 71.3699C113.966 71.4599 114.002 71.3807 114.028 71.3532C114.05 71.3301 114.071 71.3063 114.094 71.2835C114.139 71.2378 114.194 71.1995 114.237 71.153C114.296 71.0903 114.183 71.2032 114.184 71.1934C114.186 71.1742 114.272 71.1329 114.287 71.1233C114.337 71.0916 114.387 71.0616 114.439 71.0339C114.492 71.0055 114.563 70.9555 114.623 70.945C114.625 70.945 114.483 70.9922 114.565 70.9715C114.607 70.9611 114.647 70.9419 114.688 70.929C114.815 70.8889 114.943 70.8679 115.072 70.8386C115.159 70.8188 115.001 70.8506 115.005 70.8475C115.02 70.8339 115.112 70.8383 115.137 70.8367C115.207 70.8327 115.277 70.8315 115.348 70.8333C115.379 70.8343 115.512 70.8228 115.533 70.8451C115.514 70.825 115.382 70.8173 115.491 70.8401C115.526 70.8472 115.56 70.8528 115.595 70.8602C115.663 70.8753 115.731 70.8935 115.797 70.9151C115.822 70.9231 115.847 70.9351 115.872 70.941C115.961 70.9611 115.718 70.862 115.864 70.937C115.99 71.0024 116.11 71.0724 116.223 71.1591C116.534 71.3961 117.071 71.2165 117.243 70.8935C117.451 70.501 117.307 70.1336 116.975 69.8803C115.879 69.0426 114.229 69.2574 113.203 70.0901C112.719 70.4832 112.397 71.098 112.198 71.6775C111.996 72.2661 111.954 72.9402 112.135 73.5394C112.531 74.8519 113.816 75.68 115.171 75.6287C115.793 75.6053 116.438 75.4353 116.958 75.0857C117.474 74.7386 117.828 74.2876 118.061 73.7187C118.59 72.4235 118.225 70.8802 117.126 69.996C116.824 69.7526 116.364 69.6804 116.073 69.996C115.823 70.2663 115.749 70.7827 116.073 71.0431L116.072 71.0437Z" fill="#726A69"/>
<path d="M121.13 70.7767C121.235 70.8609 121.335 70.9494 121.427 71.0466C121.474 71.096 121.517 71.1478 121.561 71.199C121.459 71.0812 121.572 71.2194 121.606 71.274C121.635 71.319 121.662 71.365 121.687 71.4119C121.704 71.4428 121.789 71.6041 121.739 71.51C121.689 71.4134 121.765 71.5834 121.774 71.61C121.792 71.6646 121.808 71.7198 121.822 71.7757C121.835 71.8306 121.845 71.8861 121.857 71.9413C121.887 72.0783 121.847 71.7948 121.856 71.933C121.864 72.049 121.871 72.1635 121.867 72.2798C121.865 72.3322 121.861 72.3847 121.857 72.4371C121.855 72.459 121.851 72.4813 121.85 72.5035C121.846 72.5837 121.863 72.4121 121.861 72.4152C121.825 72.4991 121.824 72.6152 121.8 72.7056C121.776 72.796 121.747 72.8833 121.716 72.9709C121.676 73.0838 121.691 72.9946 121.734 72.9323C121.708 72.969 121.694 73.019 121.673 73.0594C121.641 73.1211 121.607 73.1813 121.568 73.2393C121.556 73.2584 121.541 73.2766 121.529 73.2961C121.484 73.3683 121.569 73.239 121.57 73.2449C121.573 73.2714 121.454 73.3735 121.436 73.3911C121.401 73.426 121.365 73.4596 121.328 73.492C121.312 73.5059 121.268 73.5518 121.252 73.5549C121.245 73.5562 121.378 73.4716 121.303 73.513C121.202 73.5685 121.11 73.6385 121.006 73.691C120.983 73.7021 120.961 73.7126 120.939 73.7237C120.811 73.7888 120.978 73.7104 120.979 73.7086C120.965 73.7317 120.865 73.7515 120.839 73.7604C120.72 73.8005 120.599 73.8323 120.475 73.8564C120.451 73.861 120.426 73.865 120.402 73.8699C120.329 73.8844 120.369 73.8511 120.402 73.8712L120.451 73.8644C120.426 73.8675 120.401 73.8699 120.376 73.8718C120.352 73.8736 120.327 73.8761 120.302 73.8776C120.187 73.885 120.071 73.8854 119.956 73.8789C119.922 73.877 119.745 73.8425 119.86 73.8736C119.982 73.9063 119.796 73.861 119.769 73.8554C119.661 73.8332 119.554 73.8039 119.451 73.7669C119.429 73.7592 119.408 73.7496 119.386 73.7425C119.294 73.7126 119.519 73.8119 119.437 73.7626C119.398 73.7394 119.355 73.7225 119.315 73.7002C119.269 73.6746 119.226 73.645 119.182 73.6179C119.166 73.6086 119.099 73.5691 119.177 73.6176C119.271 73.6756 119.12 73.5697 119.112 73.5626C119.014 73.4778 118.931 73.3825 118.841 73.2893C118.784 73.23 118.867 73.3232 118.871 73.3294C118.855 73.3069 118.839 73.285 118.823 73.2624C118.783 73.2035 118.745 73.1427 118.711 73.0801C118.699 73.0573 118.688 73.0335 118.675 73.0104C118.605 72.8848 118.682 73.0422 118.687 73.0462C118.66 73.0227 118.646 72.9369 118.636 72.903C118.618 72.8472 118.603 72.7907 118.591 72.7339C118.585 72.7096 118.581 72.6849 118.576 72.6608C118.544 72.5263 118.579 72.7781 118.578 72.6861C118.577 72.5787 118.565 72.4729 118.569 72.3653C118.57 72.3529 118.579 72.2168 118.581 72.2168C118.591 72.2181 118.551 72.3825 118.574 72.2659C118.58 72.2332 118.586 72.2005 118.592 72.1678C118.615 72.053 118.646 71.9395 118.683 71.8284C118.7 71.7803 118.718 71.7334 118.735 71.6859C118.742 71.6671 118.776 71.5853 118.736 71.6806C118.691 71.7889 118.75 71.6526 118.761 71.63C118.808 71.5307 118.861 71.4338 118.917 71.3394C118.948 71.2888 118.979 71.2388 119.012 71.1895C119.032 71.1589 119.117 71.0062 119.069 71.1028C119.024 71.1929 119.06 71.1136 119.086 71.0861C119.108 71.063 119.129 71.0392 119.151 71.0164C119.196 70.9707 119.251 70.9325 119.295 70.8859C119.354 70.8232 119.24 70.9362 119.242 70.9263C119.244 70.9072 119.33 70.8658 119.345 70.8563C119.394 70.8245 119.445 70.7945 119.497 70.7668C119.55 70.7384 119.62 70.6884 119.681 70.6779C119.682 70.6779 119.541 70.7251 119.623 70.7045C119.665 70.694 119.705 70.6748 119.746 70.6619C119.872 70.6218 120.001 70.6008 120.129 70.5715C120.217 70.5517 120.059 70.5835 120.062 70.5804C120.077 70.5669 120.17 70.5712 120.194 70.5696C120.265 70.5656 120.335 70.5644 120.406 70.5662C120.437 70.5672 120.57 70.5557 120.59 70.578C120.572 70.5579 120.44 70.5502 120.549 70.573C120.583 70.5801 120.618 70.5857 120.652 70.5931C120.721 70.6082 120.789 70.6264 120.855 70.648C120.879 70.656 120.905 70.668 120.93 70.6739C121.019 70.694 120.776 70.5949 120.921 70.6699C121.048 70.7353 121.167 70.8053 121.281 70.892C121.591 71.129 122.128 70.9494 122.3 70.6264C122.509 70.234 122.364 69.8665 122.033 69.6132C120.937 68.7756 119.287 68.9903 118.261 69.823C117.776 70.2161 117.455 70.831 117.256 71.4104C117.054 71.999 117.012 72.6732 117.193 73.2723C117.589 74.5848 118.874 75.4129 120.229 75.3616C120.85 75.3382 121.496 75.1682 122.015 74.8186C122.531 74.4716 122.886 74.0205 123.118 73.4516C123.647 72.1564 123.282 70.6131 122.184 69.7289C121.882 69.4855 121.422 69.4133 121.13 69.7289C120.881 69.9992 120.807 70.5156 121.13 70.776L121.13 70.7767Z" fill="#726A69"/>
<path d="M105.068 86.7899C104.727 87.435 104.581 88.1314 104.485 88.8481C104.39 89.5648 104.314 90.2997 104.309 91.0247C104.299 92.5322 104.674 94.0436 105.574 95.2743C107.137 97.4133 109.723 98.6101 112.297 99.0316C114.016 99.3129 115.76 99.3935 117.5 99.3157C119.24 99.238 120.99 99.1022 122.715 98.8878C125.833 98.5 129.069 97.5852 131.327 95.283C132.567 94.0189 133.351 92.4202 133.43 90.6443C133.513 88.7882 132.882 86.9762 132.187 85.2827C132.035 84.9128 131.692 84.6506 131.271 84.7656C130.918 84.8619 130.597 85.304 130.75 85.6764C131.302 87.0191 131.843 88.4353 131.933 89.8964C132.017 91.2589 131.652 92.5325 130.817 93.6219C129.127 95.8272 126.276 96.825 123.625 97.2723C122.07 97.5349 120.49 97.6173 118.919 97.7413C117.324 97.8672 115.727 97.9138 114.13 97.7786C111.767 97.5787 109.286 96.9462 107.528 95.2672C106.53 94.3139 105.924 93.0872 105.821 91.7087C105.765 90.9658 105.83 90.2232 105.901 89.4836C105.965 88.8314 106.043 88.1255 106.354 87.5378C106.801 86.6949 105.515 85.9458 105.068 86.7902L105.068 86.7899Z" fill="#A55676"/>
<path d="M117.752 77.6193C115.387 77.897 113.107 78.6353 111.188 80.0706C110.169 80.8332 109.279 81.7233 108.497 82.7248C108.055 83.2916 107.635 83.8806 107.27 84.5001C107.034 84.9015 106.842 85.3269 106.595 85.7224C106.473 85.9181 106.399 86.027 106.237 86.1899C106.118 86.3099 106.027 86.3818 105.857 86.4105C105.98 86.3895 105.672 86.3895 105.752 86.4043C105.67 86.3892 105.601 86.3734 105.532 86.3219C105.35 86.1852 105.257 85.8702 105.226 85.6589C105.072 84.6022 105.722 83.4082 106.213 82.4934C107.276 80.5114 108.81 78.7964 110.722 77.5888C112.68 76.3525 114.946 75.6642 117.257 75.5201C119.568 75.376 121.962 75.551 124.176 76.2819C126.241 76.9634 128.049 78.1932 129.471 79.8244C130.175 80.6309 130.941 81.6317 131.328 82.5884C131.43 82.838 131.515 83.095 131.589 83.3536C131.658 83.5945 131.726 83.8802 131.725 84.0231C131.723 84.1841 131.708 84.3979 131.616 84.5318C131.511 84.6846 131.309 84.7345 131.219 84.7345C131.14 84.7345 131.151 84.7389 131.027 84.6904C131.074 84.7086 130.888 84.6102 130.84 84.5766C130.686 84.4695 130.492 84.2613 130.342 84.0811C130.08 83.7673 129.848 83.3804 129.602 83.0333C128.811 81.9174 127.854 80.952 126.76 80.1298C124.702 78.5832 122.161 77.681 119.585 77.5598C118.973 77.5308 118.36 77.553 117.751 77.6193C117.351 77.6628 117.006 77.9285 117.006 78.3598C117.006 78.7263 117.348 79.1441 117.751 79.1003C120.402 78.8112 123.063 79.4646 125.295 80.9104C126.419 81.6385 127.435 82.5761 128.225 83.6559C128.885 84.5565 129.449 85.6648 130.555 86.089C131.161 86.3213 131.846 86.2102 132.371 85.8369C132.962 85.4161 133.23 84.6997 133.214 83.9895C133.187 82.7973 132.56 81.6098 131.926 80.6349C130.555 78.5292 128.709 76.732 126.434 75.6142C124.181 74.5069 121.678 74.0602 119.18 74.0065C116.494 73.9485 113.849 74.3616 111.411 75.517C109.142 76.5926 107.21 78.2848 105.786 80.3384C105.042 81.413 104.4 82.6156 103.981 83.8546C103.573 85.0637 103.54 86.9177 104.835 87.6319C106.094 88.3264 107.251 87.4962 107.904 86.4321C108.176 85.9899 108.388 85.5154 108.662 85.0742C109.044 84.459 109.459 83.862 109.925 83.3058C111.531 81.3852 113.604 80.0172 116.049 79.4116C116.609 79.273 117.178 79.1675 117.751 79.1003C118.151 79.0534 118.496 78.7936 118.496 78.3598C118.496 77.996 118.153 77.5721 117.751 77.6193H117.752Z" fill="#726A69"/>
<path d="M120.98 92.4789C121.06 92.5159 121.143 92.5597 121.229 92.6103C120.66 91.9531 120.469 91.1029 120.906 90.5598C121.195 90.2004 121.779 89.9909 122.153 90.0178C122.762 90.0613 123.998 90.2331 124.536 90.5099C123.847 90.144 123.437 89.178 123.88 88.5387C124.057 88.2842 124.853 87.8948 125.606 88.0025C126.193 88.0864 126.779 88.2425 127.659 88.7667C128.82 89.4587 129.88 90.1921 130.875 91.1899C131.768 92.0855 132.54 92.7911 132.635 94.0487C132.688 94.7459 132.574 95.4929 132.123 96.0294C131.941 96.2454 131.708 96.4243 131.579 96.6751C131.297 97.2258 131.61 97.8873 131.573 98.5044C131.527 99.2708 130.953 99.8894 130.407 100.432C129.296 101.537 128.153 102.632 126.809 103.442C126.702 103.507 126.592 103.571 126.481 103.631C126.526 103.747 126.555 103.822 126.555 103.822C126.788 104.261 127.248 105.103 127.262 105.855C127.266 106.053 126.943 106.815 126.505 107.529C126.145 108.114 125.085 109.762 124.473 110.452C123.827 111.181 122.925 111.86 121.955 111.736C121.079 111.624 120.496 110.973 120.119 110.18C119.339 108.535 119.039 107.264 118.67 105.467C118.597 105.11 118.611 104.508 118.623 104.144C118.65 103.279 119.504 101.577 120.162 101.011C120.162 101.011 120.296 100.858 120.476 100.653C120.003 99.9196 119.557 99.1668 119.096 98.3933C118.778 97.7466 118.394 96.8655 118.448 96.4271C118.498 96.0288 118.622 95.6184 118.915 95.3429C119.208 95.0674 119.705 94.9779 120.017 95.2322C119.65 94.9242 119.324 94.5432 119.19 94.0848C119.056 93.6263 119.003 93.0376 119.357 92.7152C119.78 92.3311 120.286 92.1596 120.979 92.4786L120.98 92.4789Z" fill="white"/>
<path d="M125.912 104.196C126.047 104.451 126.186 104.707 126.295 104.975C126.372 105.166 126.439 105.368 126.481 105.57C126.493 105.625 126.501 105.681 126.511 105.736C126.51 105.874 126.515 105.895 126.525 105.8C126.537 105.726 126.535 105.726 126.519 105.802C126.399 106.048 126.323 106.316 126.195 106.563C126.042 106.86 125.869 107.146 125.691 107.429C125.044 108.453 124.406 109.561 123.51 110.371C123.051 110.787 122.41 111.176 121.774 110.935C121.163 110.703 120.867 110.046 120.618 109.494C120.313 108.817 120.073 108.111 119.877 107.395C119.679 106.673 119.454 105.9 119.375 105.161C119.294 104.405 119.35 103.897 119.632 103.205C119.877 102.605 120.215 101.961 120.688 101.534C121.4 100.893 120.344 99.8483 119.635 100.487C119.061 101.004 118.658 101.741 118.352 102.438C118.026 103.18 117.864 103.878 117.868 104.688C117.873 105.617 118.12 106.541 118.348 107.437C118.575 108.333 118.879 109.208 119.25 110.058C119.607 110.875 120.056 111.675 120.858 112.135C121.74 112.642 122.784 112.561 123.657 112.083C125.066 111.312 125.962 109.76 126.801 108.453C127.249 107.756 127.749 107.005 127.956 106.195C128.191 105.275 127.616 104.235 127.198 103.448C126.751 102.605 125.464 103.352 125.911 104.195L125.912 104.196Z" fill="#726A69"/>
<path d="M123.384 104.986C124.353 105.082 125.251 105.043 126.149 104.643C127.192 104.178 128.142 103.481 129.012 102.751C129.903 102.003 130.834 101.185 131.559 100.273C131.925 99.8123 132.214 99.3137 132.293 98.7226C132.335 98.4107 132.307 98.1182 132.264 97.8072C132.235 97.5943 132.165 97.3305 132.211 97.117C132.254 96.9165 132.436 96.79 132.569 96.6435C132.778 96.4136 132.954 96.1643 133.082 95.8817C133.322 95.3477 133.416 94.7556 133.388 94.1722C133.335 93.0371 132.806 92.1285 132.04 91.314C131.23 90.4529 130.351 89.6714 129.382 88.992C128.47 88.3525 127.479 87.6901 126.387 87.4037C125.368 87.1366 123.889 87.185 123.237 88.1649C122.553 89.1938 123.172 90.5791 124.16 91.1489L124.912 89.8701C124.355 89.6014 123.747 89.4801 123.138 89.3916C122.517 89.3012 121.903 89.1969 121.299 89.4295C120.628 89.6881 120.082 90.1919 119.957 90.9206C119.815 91.7499 120.186 92.5074 120.702 93.1334L121.605 91.9705C121.062 91.6669 120.445 91.4732 119.821 91.6293C119.31 91.7573 118.785 92.1103 118.539 92.5814C117.965 93.6832 118.64 95.0206 119.491 95.7555L120.393 94.5927C119.625 94.0614 118.606 94.4332 118.115 95.1493C117.624 95.8654 117.631 96.7419 117.915 97.5289C118.225 98.3891 118.679 99.1555 119.152 99.9348C119.652 100.759 120.171 101.572 120.74 102.351C120.976 102.675 121.388 102.833 121.759 102.617C122.081 102.43 122.264 101.929 122.027 101.604C121.19 100.457 120.367 99.2274 119.714 97.9673C119.505 97.5638 119.193 96.9341 119.189 96.5395C119.188 96.3562 119.338 95.6617 119.641 95.8715C120.331 96.3488 121.183 95.26 120.544 94.7087C120.194 94.406 119.69 93.8677 119.837 93.3413C119.964 92.8869 120.562 93.0871 120.853 93.2494C121.627 93.6816 122.276 92.7159 121.756 92.0865C121.563 91.8527 121.31 91.4318 121.435 91.115C121.528 90.8821 121.864 90.7654 122.069 90.7556C122.41 90.7392 122.784 90.8204 123.118 90.8802C123.313 90.9151 123.508 90.9546 123.7 91.0036C123.871 91.0471 124.069 91.1051 124.16 91.1489C125.013 91.5602 125.751 90.3545 124.912 89.8701C124.681 89.7368 124.491 89.5168 124.447 89.2438C124.433 89.1583 124.439 89.0744 124.471 88.9886C124.47 88.9911 124.376 89.096 124.487 88.9732C124.431 89.0349 124.616 88.8998 124.659 88.8794C125.288 88.5848 126.015 88.7779 126.618 89.0516C128.347 89.8371 129.937 91.1579 131.18 92.5731C131.706 93.1732 131.978 93.8658 131.889 94.6698C131.851 95.0101 131.741 95.3341 131.515 95.596C131.125 96.0495 130.79 96.3942 130.728 97.0174C130.684 97.457 130.814 97.8806 130.828 98.3178C130.841 98.7245 130.641 99.0632 130.387 99.3693C129.767 100.118 129.002 100.793 128.272 101.433C127.465 102.142 126.586 102.782 125.619 103.26C124.894 103.618 124.209 103.587 123.384 103.504C122.983 103.465 122.639 103.873 122.639 104.245C122.639 104.678 122.982 104.945 123.384 104.985L123.384 104.986Z" fill="#726A69"/>
<path d="M119.642 95.8717C119.678 95.8936 119.713 95.918 119.749 95.9417C119.89 96.0371 119.6 95.8196 119.75 95.9417C119.866 96.0371 119.98 96.1358 120.092 96.2367C120.382 96.4983 120.662 96.7717 120.938 97.0484C121.534 97.6473 122.116 98.264 122.658 98.9119C122.721 98.9866 122.783 99.0616 122.843 99.1374C122.863 99.1615 122.968 99.296 122.878 99.1797C122.789 99.0659 122.883 99.1871 122.903 99.2146C122.98 99.3182 123.055 99.4241 123.118 99.5373C123.304 99.8779 123.806 100.015 124.137 99.8029C124.484 99.5802 124.604 99.1541 124.404 98.7897C124.253 98.5136 124.04 98.2652 123.842 98.0221C123.584 97.705 123.313 97.3989 123.037 97.0972C122.454 96.4588 121.851 95.8338 121.213 95.25C120.958 95.0174 120.692 94.7693 120.394 94.5929C120.059 94.3942 119.562 94.5071 119.375 94.8585C119.185 95.2161 119.285 95.6594 119.642 95.8717H119.642Z" fill="#726A69"/>
<path d="M120.912 93.293C121.999 93.9307 123.071 94.6064 124.097 95.3379C124.137 95.3666 124.177 95.3956 124.216 95.4252C124.31 95.4943 124.081 95.3123 124.248 95.4505C124.343 95.5292 124.439 95.6066 124.533 95.6865C124.746 95.8682 124.954 96.0558 125.159 96.2474C125.598 96.6593 126.023 97.0878 126.421 97.5392C126.686 97.84 127.203 97.8089 127.475 97.5392C127.775 97.2406 127.741 96.7935 127.475 96.4921C126.703 95.6171 125.842 94.7794 124.895 94.0924C123.861 93.3423 122.766 92.6608 121.664 92.0141C120.837 91.5285 120.086 92.8083 120.912 93.293Z" fill="#726A69"/>
<path d="M124.16 91.1494C124.503 91.3385 124.826 91.5652 125.143 91.7936C125.344 91.9383 125.542 92.0867 125.739 92.2363C125.599 92.1302 125.778 92.2659 125.805 92.2872C125.862 92.3313 125.919 92.3761 125.976 92.4205C126.083 92.5047 126.189 92.5896 126.295 92.675C127.085 93.3118 127.877 93.9721 128.562 94.7215C128.825 95.009 129.353 95.0065 129.616 94.7215C129.9 94.4142 129.896 93.981 129.616 93.6743C128.916 92.9095 128.107 92.2366 127.3 91.5884C126.543 90.9809 125.766 90.3413 124.912 89.8705C124.571 89.6826 124.084 89.7773 123.893 90.1362C123.708 90.4845 123.796 90.9485 124.16 91.1494Z" fill="#726A69"/>
<path d="M98.3736 63.7542C99.2496 64.2139 100.193 64.4074 101.183 64.4009C102.195 64.3944 103.212 64.1945 104.022 63.5673C104.331 63.3282 104.294 62.7679 104.022 62.5201C103.694 62.2212 103.298 62.265 102.968 62.5201C103.195 62.3446 103.023 62.4763 102.964 62.5133C102.908 62.5491 102.85 62.5821 102.791 62.613C102.76 62.629 102.729 62.6432 102.698 62.659C102.592 62.7136 102.684 62.6278 102.732 62.6479C102.7 62.6346 102.53 62.7222 102.493 62.7342C102.275 62.804 102.05 62.8521 101.825 62.8857C101.936 62.8691 101.814 62.8857 101.766 62.8907C101.7 62.8971 101.634 62.9027 101.568 62.9067C101.41 62.9169 101.252 62.9209 101.093 62.92C100.951 62.9191 100.809 62.9144 100.668 62.9049C100.602 62.9005 100.538 62.8953 100.473 62.8888C100.461 62.8876 100.227 62.8521 100.383 62.8793C100.172 62.8425 99.9642 62.8024 99.7587 62.7413C99.6712 62.7154 99.5858 62.6843 99.4995 62.6546C99.3104 62.5905 99.6134 62.7126 99.4427 62.6327C99.3356 62.5824 99.2301 62.5303 99.1254 62.4754C98.7809 62.2946 98.2997 62.3773 98.106 62.741C97.9241 63.0832 98.0055 63.5611 98.3733 63.7542H98.3736Z" fill="#726A69"/>
<path d="M100.796 57.1868C100.918 57.6496 101.035 58.1195 101.105 58.5934L101.078 58.3965C101.087 58.4613 101.09 58.5255 101.083 58.5906L101.11 58.3938C101.105 58.424 101.099 58.4524 101.089 58.4811L101.164 58.3043C101.155 58.3247 101.145 58.3419 101.133 58.3605L101.249 58.2105C101.235 58.2281 101.221 58.2417 101.203 58.2559L101.354 58.1402C101.318 58.163 101.28 58.1815 101.242 58.1991L101.42 58.1244C101.358 58.15 101.297 58.1689 101.231 58.1793L101.429 58.1528C101.369 58.1599 101.311 58.1593 101.251 58.1525L101.449 58.179C101.383 58.1698 101.317 58.1537 101.25 58.1448C101.151 58.1139 101.052 58.1096 100.953 58.1315C100.854 58.1358 100.762 58.1652 100.676 58.2195C100.522 58.3092 100.374 58.4854 100.334 58.6619C100.29 58.8513 100.3 59.0642 100.409 59.2323C100.506 59.3817 100.668 59.5477 100.854 59.5726C101.008 59.5933 101.157 59.6322 101.314 59.639C101.555 59.6495 101.778 59.576 101.994 59.4779C102.26 59.3567 102.468 59.1176 102.539 58.8328C102.599 58.5915 102.573 58.3817 102.532 58.1402C102.455 57.6869 102.349 57.238 102.232 56.7934C102.134 56.4189 101.696 56.1542 101.316 56.2764C100.928 56.401 100.69 56.7854 100.796 57.1868Z" fill="#726A69"/>
<path d="M93.3323 53.198C93.096 53.9613 93.25 55.7171 94.7049 55.8668C96.628 55.8554 96.7301 53.7324 96.0829 52.7343C95.553 51.917 93.9944 51.5773 93.3323 53.198Z" fill="#726A69"/>
<path d="M108.731 53.1983C108.967 53.9616 108.813 55.7174 107.359 55.8667C105.436 55.8553 105.333 53.7324 105.98 52.7343C106.51 51.917 108.069 51.5773 108.731 53.1983Z" fill="#726A69"/>
<path d="M77.7466 90.4055C78.2867 94.4793 78.8948 98.5392 79.637 102.581C80.2066 105.682 80.8495 108.83 81.1183 111.907C81.2875 113.843 81.0094 115.823 80.8415 117.75C80.8067 118.149 81.2087 118.491 81.5865 118.491C82.0186 118.491 82.2967 118.15 82.3315 117.75C82.4873 115.963 82.7527 114.118 82.64 112.322C82.5466 110.832 82.3026 109.348 82.0676 107.876C81.5554 104.67 80.9091 101.488 80.3842 98.2844C79.9549 95.6653 79.5855 93.0363 79.2366 90.4055C79.1841 90.0091 78.9318 89.6651 78.4916 89.6651C78.13 89.6651 77.6935 90.0063 77.7466 90.4055Z" fill="#DDA7BD"/>
</g>
<path d="M56.19 54.0439C54.4658 54.0439 53.0069 53.7344 51.8133 53.1155C50.6196 52.4965 49.647 51.6455 48.8955 50.5624C48.1439 49.4572 47.6024 48.1861 47.2708 46.7494C46.9392 45.2904 46.7734 43.7431 46.7734 42.1074C46.7734 40.4274 46.9392 38.858 47.2708 37.3991C47.6245 35.9402 48.1771 34.6581 48.9286 33.5529C49.7023 32.4477 50.686 31.5856 51.8796 30.9667C53.0953 30.3477 54.5543 30.0383 56.2563 30.0383C58.0247 30.0383 59.5057 30.3588 60.6993 30.9998C61.9151 31.6409 62.8877 32.5361 63.6171 33.6855C64.3687 34.8129 64.8992 36.0949 65.2087 37.5317C65.5402 38.9685 65.706 40.4716 65.706 42.0411C65.706 43.6547 65.5402 45.1799 65.2087 46.6167C64.8771 48.0535 64.3466 49.3356 63.6171 50.4629C62.8877 51.5682 61.9151 52.4413 60.6993 53.0823C59.4836 53.7233 57.9805 54.0439 56.19 54.0439ZM56.19 49.6672C57.2731 49.6672 58.1241 49.424 58.7431 48.9377C59.3841 48.4293 59.8594 47.7772 60.1688 46.9814C60.5004 46.1857 60.7104 45.3568 60.7988 44.4947C60.9093 43.6105 60.9646 42.7926 60.9646 42.0411C60.9646 41.3337 60.9093 40.549 60.7988 39.6869C60.7104 38.8028 60.5114 37.9738 60.202 37.2002C59.8925 36.4044 59.4283 35.7523 58.8094 35.2439C58.1905 34.7355 57.3505 34.4813 56.2895 34.4813C55.2284 34.4813 54.3774 34.7355 53.7364 35.2439C53.0954 35.7302 52.6091 36.3712 52.2775 37.167C51.968 37.9628 51.758 38.7917 51.6475 39.6538C51.537 40.5159 51.4817 41.3116 51.4817 42.0411C51.4817 42.7705 51.5259 43.5773 51.6143 44.4615C51.7249 45.3457 51.9349 46.1857 52.2443 46.9814C52.5538 47.7772 53.018 48.4293 53.6369 48.9377C54.2779 49.424 55.129 49.6672 56.19 49.6672Z" fill="#DD99B5"/>
<path d="M30.2278 53.7786V48.6725H23.7622V46.2188H30.2278V44.0968H23.7622V41.61H29.1336L21.3086 29.3088H27.0447L30.0952 35.2771C31.322 37.797 31.7199 38.6591 32.6151 40.4827H32.814C33.7424 38.6591 34.2066 37.6975 35.334 35.2771L38.3181 29.3088H43.9547L36.1629 41.61H41.5011V44.0968H35.1019V46.2188H41.5011V48.6725H35.1019V53.7786H30.2278Z" fill="#DD99B5"/>
<path fill-rule="evenodd" clip-rule="evenodd" d="M47.8204 51.3085L47.8134 51.2983C46.9618 50.0459 46.36 48.622 45.9957 47.0436L45.9947 47.0394C45.6396 45.4769 45.4648 43.8317 45.4648 42.1074C45.4648 40.3416 45.6391 38.6739 45.9947 37.109L45.999 37.0907C46.3852 35.4978 46.9964 34.0672 47.8466 32.8169L47.8566 32.8023C48.751 31.5247 49.8956 30.5212 51.2774 29.8047L51.286 29.8003L51.286 29.8003C52.7256 29.0674 54.3981 28.7294 56.2565 28.7294C58.1752 28.7294 59.8821 29.0763 61.3145 29.8444C62.7236 30.5884 63.8633 31.6351 64.7144 32.9717C65.5587 34.2415 66.146 35.6716 66.4864 37.2468C66.8401 38.7832 67.0151 40.3823 67.0151 42.0411C67.0151 43.7445 66.84 45.3691 66.4842 46.911C66.1218 48.4814 65.536 49.9071 64.7162 51.1739L64.7098 51.1839L64.7097 51.1839C63.8543 52.48 62.7129 53.5003 61.31 54.24C59.8578 55.0058 58.1311 55.3527 56.1902 55.3527C54.3139 55.3527 52.6359 55.0162 51.211 54.2774C49.8322 53.5624 48.6959 52.5702 47.8204 51.3085ZM65.2089 37.5317C64.8994 36.0949 64.3689 34.8129 63.6174 33.6855C62.8879 32.5361 61.9153 31.6409 60.6996 30.9998C59.5059 30.3588 58.0249 30.0383 56.2565 30.0383C54.5545 30.0383 53.0956 30.3477 51.8798 30.9667C50.6862 31.5856 49.7025 32.4477 48.9289 33.5529C48.1773 34.6581 47.6247 35.9402 47.271 37.3991C46.9395 38.858 46.7737 40.4274 46.7737 42.1074C46.7737 43.7431 46.9395 45.2904 47.271 46.7493C47.6026 48.1861 48.1442 49.4571 48.8957 50.5624C49.6473 51.6455 50.6199 52.4965 51.8135 53.1155C53.0072 53.7344 54.4661 54.0439 56.1902 54.0439C57.9807 54.0439 59.4838 53.7233 60.6996 53.0823C61.9153 52.4413 62.8879 51.5681 63.6174 50.4629C64.3468 49.3356 64.8773 48.0535 65.2089 46.6167C65.5405 45.1799 65.7062 43.6547 65.7062 42.0411C65.7062 40.4716 65.5405 38.9685 65.2089 37.5317ZM58.9492 46.5071C58.953 46.4973 58.9569 46.4877 58.9609 46.478C59.243 45.8009 59.4216 45.0967 59.497 44.3611C59.498 44.3515 59.4991 44.3419 59.5003 44.3323C59.6053 43.4924 59.656 42.7295 59.656 42.0411C59.656 41.4002 59.6058 40.6722 59.5008 39.8534C59.5002 39.8484 59.4996 39.8435 59.499 39.8385C59.4982 39.8314 59.4974 39.8243 59.4967 39.8172C59.4197 39.047 59.248 38.3386 58.987 37.6862L58.9824 37.6745C58.7488 37.0739 58.4127 36.6116 57.9789 36.2553C57.6606 35.9938 57.1467 35.7901 56.2897 35.7901C55.4355 35.7901 54.8987 35.9928 54.5499 36.2694C54.5426 36.2752 54.5351 36.281 54.5276 36.2866C54.0875 36.6205 53.7405 37.0653 53.4917 37.6564C53.2247 38.3467 53.0425 39.0671 52.9459 39.8202C52.8412 40.6372 52.7908 41.3766 52.7908 42.0411C52.7908 42.7145 52.8314 43.4716 52.9153 44.3149C53.0135 45.091 53.1974 45.8206 53.4644 46.5071C53.6942 47.0981 54.0234 47.5552 54.4473 47.9092C54.7983 48.1678 55.3396 48.3583 56.1902 48.3583C57.0871 48.3583 57.6172 48.1571 57.9327 47.9101C58.3823 47.5528 58.7206 47.095 58.9492 46.5071ZM53.6371 48.9377C53.0182 48.4293 52.554 47.7772 52.2446 46.9814C51.9351 46.1857 51.7251 45.3457 51.6146 44.4615C51.5262 43.5773 51.4819 42.7705 51.4819 42.0411C51.4819 41.3116 51.5372 40.5158 51.6477 39.6538C51.7583 38.7917 51.9682 37.9628 52.2777 37.167C52.6093 36.3712 53.0956 35.7302 53.7366 35.2439C54.3776 34.7355 55.2287 34.4813 56.2897 34.4813C57.3507 34.4813 58.1907 34.7355 58.8096 35.2439C59.4285 35.7523 59.8927 36.4044 60.2022 37.2002C60.5117 37.9738 60.7106 38.8027 60.799 39.6869C60.9096 40.549 60.9648 41.3337 60.9648 42.0411C60.9648 42.7926 60.9096 43.6105 60.799 44.4947C60.7106 45.3567 60.5006 46.1857 60.169 46.9814C59.8596 47.7772 59.3843 48.4293 58.7433 48.9377C58.1244 49.424 57.2733 49.6671 56.1902 49.6671C55.1292 49.6671 54.2782 49.424 53.6371 48.9377Z" fill="#A55676"/>
<path fill-rule="evenodd" clip-rule="evenodd" d="M30.228 55.0874C29.5052 55.0874 28.9192 54.5014 28.9192 53.7786V49.9813H23.7624C23.0396 49.9813 22.4536 49.3953 22.4536 48.6724V46.2188C22.4536 45.7822 22.6674 45.3956 22.9959 45.1578C22.6674 44.92 22.4536 44.5334 22.4536 44.0968V41.61C22.4536 40.8872 23.0396 40.3012 23.7624 40.3012H26.7501L20.2045 30.0113C19.9481 29.6083 19.9317 29.0976 20.1616 28.6789C20.3914 28.2602 20.8312 28 21.3088 28H27.045C27.5365 28 27.9867 28.2754 28.2104 28.7132L31.2608 34.6814L31.2722 34.7042C31.864 35.9199 32.2595 36.7424 32.6089 37.4691C32.6499 37.5544 32.6903 37.6384 32.7303 37.7216C33.127 36.9059 33.5398 36.0297 34.1477 34.7245C34.1529 34.7135 34.1581 34.7026 34.1635 34.6917L37.1477 28.7235C37.3694 28.2801 37.8226 28 38.3183 28H43.955C44.4322 28 44.8716 28.2597 45.1016 28.6778C45.3317 29.0959 45.316 29.606 45.0606 30.0092L38.5414 40.3012H41.5014C42.2242 40.3012 42.8102 40.8872 42.8102 41.61V44.0968C42.8102 44.5334 42.5964 44.92 42.2678 45.1578C42.5964 45.3956 42.8102 45.7822 42.8102 46.2188V48.6724C42.8102 49.3953 42.2242 49.9813 41.5014 49.9813H36.4109V53.7786C36.4109 54.5014 35.8249 55.0874 35.1021 55.0874H30.228ZM35.1021 48.6724H41.5014V46.2188H35.1021V44.0968H41.5014V41.61H36.1631L43.955 29.3088H38.3183L35.3342 35.2771C34.4945 37.0799 34.0227 38.0733 33.453 39.2165C33.2762 39.5712 33.09 39.9403 32.8805 40.3525C32.8587 40.3954 32.8366 40.4388 32.8143 40.4827H32.6153C32.5929 40.4371 32.5709 40.3921 32.5491 40.3477C32.3439 39.9292 32.1645 39.5604 31.9935 39.2071C31.802 38.8112 31.621 38.4348 31.4262 38.0297C31.075 37.2994 30.679 36.4758 30.0954 35.2771L27.045 29.3088H21.3088L29.1338 41.61H23.7624V44.0968H30.228V46.2188H23.7624V48.6724H30.228V53.7786H35.1021V48.6724Z" fill="#A55676"/>
</svg>
