<svg width="130" height="80" viewBox="0 0 130 80" fill="none" xmlns="http://www.w3.org/2000/svg">
<mask id="mask0_1621_24472" style="mask-type:alpha" maskUnits="userSpaceOnUse" x="0" y="0" width="130" height="80">
<rect width="130" height="80" fill="#D9D9D9"/>
</mask>
<g mask="url(#mask0_1621_24472)">
</g>
<g clip-path="url(#clip0_1621_24472)">
<path d="M63.9231 78.5428C63.4563 78.429 63.0064 78.2549 62.5848 78.0249C61.3636 77.294 60.1445 76.5754 60.1445 74.5471C60.1445 68.001 60.23 62.3175 60.23 55.5862C60.1947 54.6642 60.3455 53.7444 60.6733 52.8816C61.1764 51.7023 62.5964 50.9488 63.3791 49.9335C64.1617 48.9181 64.173 48.3685 64.173 47.0546L64.1654 46.6353C66.7791 47.3934 68.9153 47.5401 71.5452 47.5401C73.0538 47.5701 74.5629 47.5161 76.0655 47.3782C77.1693 47.2453 78.4842 47.1111 79.6025 46.6841C79.6025 46.7927 79.6047 46.8615 79.6047 46.8615C79.6047 48.1752 79.616 48.9176 80.3987 49.9325C81.1813 50.9474 82.6013 51.7014 83.1045 52.8806C83.4323 53.7434 83.583 54.6632 83.5478 55.5853C83.5478 62.3168 83.6332 68 83.6332 74.5461C83.6332 76.5749 82.4142 77.293 81.1929 78.0239C79.5256 79.0219 74.6689 79.3835 72.0124 79.413C69.8661 79.3899 66.1622 79.1523 63.9231 78.5428Z" fill="white"/>
<path d="M71.8609 39.2935C70.3288 39.2935 68.5983 39.2232 67.0702 39.3475C65.7895 39.4519 63.5305 39.5858 62.6991 40.7589C62.4294 41.1392 62.4282 41.6367 62.4282 42.1028C62.4282 43.057 62.2435 45.1922 62.6538 45.6651C63.022 46.0505 63.463 46.3594 63.9514 46.5741C66.6628 47.3848 68.8428 47.5401 71.5434 47.5401C73.0521 47.5702 74.5612 47.5161 76.0638 47.3782C77.5717 47.1966 79.4736 47.0129 80.7299 46.0827C80.9193 45.9548 81.0745 45.7826 81.182 45.5811C81.4692 44.9806 81.4596 41.6424 81.1271 40.9402C80.5114 39.6406 77.9936 39.5534 76.7784 39.4446C75.1442 39.2974 73.5011 39.2935 71.8609 39.2935Z" fill="white"/>
<path d="M61.4122 70.9281C61.0461 70.7392 60.6997 70.5147 60.3779 70.2577L60.1562 70.0791C60.1796 65.2898 60.2301 60.7456 60.2301 55.5859C60.2301 55.5122 60.2301 55.4384 60.2314 55.3647C61.149 56.404 62.6365 56.6339 63.9402 56.7685C64.4377 56.8199 68.4394 57.1297 72.1869 57.1297C75.8182 57.1297 79.6016 56.8742 80.634 56.685C81.6905 56.5204 82.6905 56.0998 83.5462 55.4601C83.5462 55.5021 83.5462 55.5441 83.5462 55.5861C83.5462 60.7453 83.5954 65.2903 83.6201 70.0793L83.3984 70.2579C82.469 71.0114 81.2162 71.4581 80.1449 71.7649C78.3242 72.2865 74.5622 72.6211 71.8894 72.6289C69.2131 72.6211 65.4257 72.2479 63.6287 71.7649C62.8617 71.5667 62.1186 71.2861 61.4122 70.9281Z" fill="white"/>
<path d="M39.5518 35.3849C41.0238 32.9012 42.3643 30.6385 43.3676 28.9423C43.4333 28.8315 43.5173 28.6979 43.6459 28.6878C44.3662 28.631 45.9889 29.0752 47.3624 29.4457C48.3248 30.5417 49.2153 31.4497 49.7266 32.2744C49.7928 32.3815 49.7019 32.5235 49.6374 32.6321C46.0618 38.6758 38.235 51.9423 35.4078 56.7208C36.3387 57.2681 37.2285 57.7919 37.8146 58.1371C38.4165 58.4913 38.5926 58.8439 38.3894 59.1869L37.6725 60.3968C37.4802 60.7218 36.9702 61.0058 36.2644 60.5904L33.2653 58.8247L33.1668 58.9684C32.7077 59.6335 30.0199 63.5002 29.7054 63.9557L29.5559 64.1724L31.4256 65.2733C31.96 65.5877 32.1152 65.9007 31.9359 66.2053L31.3005 67.2795C31.1298 67.5681 30.6769 67.8199 30.0504 67.4514L26.1421 65.1504L26.0928 65.1219L22.1372 62.7929C21.5105 62.4244 21.5129 61.9065 21.6836 61.6178L22.3192 60.5437C22.4995 60.2391 22.8494 60.2243 23.3838 60.5388L25.4249 61.7407L25.5402 61.5107C25.7882 61.0157 27.8746 56.7446 28.2364 56.0218C28.2364 56.0218 28.2586 55.9773 28.2977 55.899L25.1504 54.0461C24.4445 53.6314 24.4477 53.0484 24.6396 52.7224L25.3555 51.5126C25.5584 51.1687 25.9527 51.1527 26.5546 51.507L29.1198 53.0174L29.2429 52.7791C31.0899 49.6563 34.8121 43.38 38.1946 37.6732C38.6557 36.8973 39.1098 36.1313 39.5518 35.3849Z" fill="white"/>
<path d="M48.289 24.4739C48.2083 24.5422 48.1398 24.6236 48.0863 24.7146C47.6108 25.5182 46.3937 27.5876 45.9191 28.3917C45.8561 28.4988 45.778 28.6447 45.7142 28.7526C45.6305 28.8941 45.6724 28.9958 45.8273 29.0869C46.0696 29.2297 46.6471 29.58 46.8653 29.7085L47.184 29.8962C47.4022 30.0247 47.9888 30.3596 48.2314 30.5023C48.3855 30.5932 48.4949 30.5809 48.5784 30.4404C49.2903 29.2366 50.1937 27.7249 50.9699 26.4128C51.0752 26.2271 51.1063 26.0086 51.0571 25.801C51.0224 25.6045 50.9145 24.964 50.5911 24.7738L49.6536 24.2218C49.3849 24.0636 48.7838 24.2415 48.5912 24.3048C48.4805 24.3413 48.3779 24.3986 48.289 24.4739Z" fill="white"/>
<path d="M62.6041 73.2263C62.3853 72.5965 62.2409 71.9434 62.1738 71.2803C62.6487 71.4719 63.1352 71.6337 63.6303 71.7647C65.4281 72.2477 69.2147 72.6209 71.891 72.6288C74.5638 72.6209 78.3258 72.2863 80.1465 71.7647C80.6333 71.6283 81.1127 71.4666 81.5828 71.2805C81.5145 73.0587 80.7873 74.8077 79.6577 75.4445C78.2581 76.2334 74.5025 76.5928 72.0681 76.5928C69.6337 76.5928 65.6384 76.2948 64.2748 75.4445C63.3126 74.8448 62.94 74.1751 62.6041 73.2263Z" fill="#65B005"/>
<path d="M63.499 54.3907C63.6289 53.874 63.8824 53.3965 64.2378 52.9989C64.5104 52.7173 64.8393 52.496 65.2031 52.3494C65.567 52.2027 65.9577 52.134 66.3499 52.1477L77.8052 52.074C78.7001 52.074 79.1363 52.3948 79.7633 53.1717C80.3413 53.8878 80.5745 55.8599 81.0257 56.5104L81.0503 56.5991C80.9129 56.6318 80.775 56.6603 80.6366 56.6856C79.6035 56.8747 75.82 57.1303 72.1894 57.1303C68.4419 57.1303 64.4403 56.8205 63.9428 56.7691C63.5606 56.7296 63.1626 56.6819 62.7676 56.6082L62.7922 56.5099C63.067 55.8171 63.303 55.1096 63.499 54.3907Z" fill="#65B005"/>
<path d="M47.3884 29.4752L47.3638 29.4457C45.9903 29.0752 44.3677 28.631 43.6473 28.6878C43.5188 28.6979 43.4348 28.8315 43.369 28.9423C41.6247 31.8904 38.8623 36.5531 36.1602 41.1102C38.3153 42.3821 40.3497 43.5854 42.4384 44.8199C45.1338 40.2548 47.8926 35.5825 49.6381 32.6324C49.7024 32.5238 49.7935 32.3818 49.7273 32.2747C49.2202 31.4571 48.341 30.5581 47.3884 29.4752Z" fill="#65B005"/>
<path d="M68.2649 1.3832C67.8797 0.99779 67.3835 0.741934 66.8456 0.651326C65.8986 0.476234 64.9203 0.666717 64.1088 1.1842C63.2633 1.70004 62.5916 2.45603 62.1797 3.35525C61.6025 4.57749 61.4498 5.56904 61.3712 7.05489C61.3702 7.07485 61.375 7.09467 61.3849 7.11202C61.3949 7.12937 61.4096 7.14352 61.4273 7.1528C61.4451 7.16207 61.4651 7.16609 61.485 7.16437C61.505 7.16265 61.524 7.15526 61.5399 7.14309C61.9873 6.82831 62.4747 6.57427 62.9892 6.38763C63.6189 6.14975 64.2861 6.0262 64.9594 6.0228C65.8413 6.06255 66.7215 5.91353 67.5408 5.58575C68.4304 5.19266 68.9707 4.19743 69.0261 3.22725C69.0315 2.88441 68.9667 2.54407 68.8358 2.22702C68.705 1.90997 68.5107 1.62285 68.2649 1.3832Z" fill="#65B005"/>
<path d="M72.0217 10.5095C72.0217 10.4289 72.0217 10.3466 72.0166 10.2623C71.983 9.94132 71.8664 9.63453 71.6781 9.37202C71.4899 9.10952 71.2365 8.90032 70.9428 8.76493C70.4793 8.57301 69.9817 8.47647 69.4799 8.48112C68.9781 8.48576 68.4824 8.59149 68.0225 8.79196C67.1074 9.16735 66.6099 9.54446 65.8039 10.2783C65.7961 10.2855 65.7908 10.2948 65.7884 10.305C65.7861 10.3153 65.7869 10.326 65.7907 10.3358C65.7946 10.3455 65.8013 10.3539 65.81 10.3599C65.8187 10.3658 65.829 10.369 65.8396 10.369C67.015 10.3749 67.6561 11.0519 68.637 11.7086C68.9571 11.9231 69.5314 12.2983 69.9107 12.3661C70.4062 12.456 71.1174 12.145 71.4775 11.7951C71.6569 11.6336 71.7986 11.4347 71.8927 11.2126C71.9867 10.9904 72.0308 10.7504 72.0217 10.5095Z" fill="#65B005"/>
<path d="M93.6679 38.2598C93.8968 38.545 94.0099 38.9055 93.9851 39.27C93.9804 39.5254 93.8843 39.7707 93.7142 39.9616C93.4349 40.196 93.0576 40.1429 92.7264 40.0768C92.2642 39.9847 91.7778 39.8631 91.3086 39.9849C90.2974 40.2473 90.1019 41.2691 90.2381 42.1651C90.2994 42.5712 90.312 42.9122 90.0344 43.2522C89.7675 43.5782 89.4217 43.5657 89.0373 43.5097C88.7627 43.4488 88.4777 43.4523 88.2048 43.5198C87.9318 43.5874 87.6783 43.7172 87.4641 43.8991C87.2544 44.0853 87.1123 44.3353 87.0597 44.6104C87.0071 44.8855 87.047 45.1702 87.1732 45.4203C87.2534 45.5542 87.383 45.6513 87.5342 45.6909C87.6853 45.7304 87.8461 45.7092 87.9817 45.6318C88.1148 45.5508 88.2112 45.4216 88.2507 45.2712C88.2902 45.1208 88.2698 44.961 88.1938 44.8253C88.212 44.8621 88.3007 44.7235 88.3302 44.7051C88.4606 44.6436 88.6071 44.6246 88.7489 44.6511C89.266 44.7002 89.7093 44.7769 90.2063 44.5643C90.6632 44.3566 91.0302 43.9922 91.2407 43.5374C91.4589 43.0607 91.5166 42.5263 91.4049 42.0142C91.3675 41.7931 91.2909 41.3986 91.4542 41.2111C91.6512 40.9873 92.1233 41.1556 92.3641 41.2042C93.3044 41.3939 94.3223 41.3074 94.8618 40.4004C95.0907 39.9732 95.1956 39.4908 95.1648 39.0074C95.1339 38.524 94.9685 38.0588 94.6872 37.664C94.6054 37.532 94.4759 37.4364 94.3254 37.397C94.1749 37.3576 94.0149 37.3775 93.8787 37.4525C93.7444 37.5324 93.6469 37.6617 93.6073 37.8126C93.5676 37.9635 93.5889 38.1239 93.6667 38.2593L93.6679 38.2598Z" fill="#726A69"/>
<path d="M107.285 26.7698C107.096 26.559 106.56 26.2254 106.554 25.9051C106.588 25.747 106.646 25.5951 106.727 25.4547C106.809 25.206 106.86 24.9477 106.877 24.6863C106.975 23.7772 106.556 22.7879 105.672 22.4312C105.269 22.2688 104.733 22.3454 104.37 22.1118C104.155 21.9218 103.983 21.6876 103.867 21.4254C103.439 20.6734 102.887 19.9567 101.924 19.9901C101.42 20.0237 100.932 20.1878 100.511 20.4663C100.32 20.5854 100.141 20.7245 99.9512 20.8436C99.8396 20.937 99.7022 20.9946 99.5572 21.009C99.375 20.9896 99.1858 20.7827 99.0235 20.6979C98.8104 20.5875 98.5808 20.5124 98.3436 20.4754C97.9059 20.3894 97.4542 20.4074 97.0248 20.5279C96.6008 20.6755 96.2355 20.955 95.9828 21.3254C95.8602 21.5039 95.7623 21.6981 95.6917 21.9027C95.6166 22.1093 95.6134 22.3391 95.5344 22.5415C95.4233 22.8275 94.9795 22.8346 94.7121 22.8854C94.3291 22.9393 93.9584 23.0588 93.6161 23.2385C92.7865 23.7239 92.5247 24.6406 92.6852 25.5375C92.7833 25.8996 92.8573 26.2676 92.9069 26.6394C92.9241 27.0192 92.636 27.2855 92.4289 27.5835C91.8422 28.4318 92.0412 29.5045 92.7443 30.2218C93.0894 30.5516 93.4948 30.812 93.9385 30.9888C94.2431 31.1488 94.1717 31.5293 94.1683 31.8332C94.1503 32.285 94.2257 32.7356 94.3899 33.1569C94.7783 34.0839 95.6178 34.4495 96.5864 34.4042C96.9475 34.3875 97.4238 34.2799 97.7565 34.4627C98.0998 34.6511 98.3172 35.0573 98.6339 35.2916C99.4368 35.8854 100.597 35.6665 101.295 35.0093C101.568 34.7111 101.807 34.3827 102.006 34.0306C102.079 33.9098 102.171 33.8011 102.277 33.708C102.34 33.6663 102.41 33.6377 102.484 33.6237C102.558 33.6098 102.634 33.6109 102.707 33.6269C103.167 33.653 103.613 33.8001 104.075 33.8193C104.563 33.8413 105.047 33.7154 105.462 33.4581C105.858 33.2153 106.158 32.8431 106.309 32.4047C106.378 32.1736 106.407 31.9329 106.396 31.6922C106.36 31.4397 106.359 31.1835 106.392 30.9306C106.466 30.6505 106.741 30.4371 106.954 30.2462C107.265 29.9969 107.534 29.7005 107.753 29.3676C108.265 28.4883 107.921 27.4794 107.285 26.7698ZM98.7933 28.1555C98.9028 28.278 98.9675 28.4338 98.977 28.5977C98.9765 28.7635 98.9105 28.9224 98.7933 29.0399C98.6751 29.1563 98.516 29.2221 98.35 29.2234C98.2676 29.2234 98.1861 29.2071 98.11 29.1757C98.034 29.1442 97.9649 29.098 97.9067 29.0399C97.7023 28.7819 97.4925 28.5284 97.2812 28.2761L96.6202 28.9094C96.5629 28.9717 96.4937 29.0218 96.4165 29.0567C96.3393 29.0916 96.2559 29.1105 96.1712 29.1123C96.0865 29.1142 96.0024 29.0989 95.9238 29.0674C95.8451 29.0359 95.7737 28.9889 95.7139 28.9291C95.654 28.8694 95.6068 28.7981 95.5752 28.7197C95.5437 28.6413 95.5284 28.5573 95.5302 28.4729C95.5321 28.3884 95.551 28.3051 95.586 28.2282C95.6209 28.1512 95.6711 28.0821 95.7336 28.025L96.4694 27.3197C96.2889 27.1084 96.1082 26.8964 95.9276 26.6839C95.8142 26.5645 95.7509 26.4062 95.7509 26.2416C95.7509 26.0771 95.8142 25.9188 95.9276 25.7994C96.0456 25.6829 96.2049 25.6176 96.3709 25.6176C96.5369 25.6176 96.6962 25.6829 96.8142 25.7994C96.9993 26.0189 97.1851 26.2373 97.3718 26.4546L97.9949 25.8574C98.1141 25.7484 98.2708 25.6895 98.4325 25.693C98.5941 25.6966 98.7482 25.7622 98.8625 25.8762C98.9769 25.9903 99.0427 26.144 99.0462 26.3053C99.0497 26.4665 98.9907 26.6229 98.8814 26.7418L98.1835 27.4108C98.3896 27.6567 98.5938 27.9041 98.7933 28.1545V28.1555ZM104.175 28.1555C104.284 28.278 104.349 28.4338 104.358 28.5977C104.358 28.7635 104.292 28.9224 104.175 29.0399C104.056 29.1562 103.897 29.222 103.731 29.2234C103.649 29.2234 103.567 29.2071 103.491 29.1757C103.415 29.1442 103.346 29.098 103.288 29.0399C103.083 28.7819 102.874 28.5284 102.662 28.2761L102.001 28.9094C101.944 28.9717 101.875 29.0218 101.798 29.0567C101.721 29.0916 101.637 29.1105 101.553 29.1123C101.468 29.1142 101.384 29.0989 101.305 29.0674C101.226 29.0359 101.155 28.9889 101.095 28.9291C101.035 28.8694 100.988 28.7981 100.957 28.7197C100.925 28.6413 100.91 28.5573 100.911 28.4729C100.913 28.3884 100.932 28.3051 100.967 28.2282C101.002 28.1512 101.052 28.0821 101.115 28.025L101.851 27.3197C101.67 27.1084 101.49 26.8964 101.309 26.6839C101.195 26.5645 101.132 26.4062 101.132 26.2416C101.132 26.0771 101.195 25.9188 101.309 25.7994C101.427 25.6829 101.586 25.6176 101.752 25.6176C101.918 25.6176 102.078 25.6829 102.196 25.7994C102.381 26.0189 102.566 26.2373 102.753 26.4546L103.376 25.8574C103.495 25.7484 103.652 25.6895 103.814 25.693C103.975 25.6966 104.129 25.7622 104.244 25.8762C104.358 25.9903 104.424 26.144 104.427 26.3053C104.431 26.4665 104.372 26.6229 104.263 26.7418L103.565 27.4108C103.771 27.6567 103.975 27.9041 104.175 28.1545V28.1555Z" fill="#726A69"/>
<path d="M64.635 43.1378C65.4502 43.4913 66.3631 43.5901 67.2379 43.697C68.29 43.8257 69.3489 43.9043 70.4074 43.9532C72.1595 44.0344 73.9151 43.9902 75.6609 43.8208C76.839 43.7056 78.0497 43.5545 79.1427 43.0749C79.2773 42.9953 79.375 42.8659 79.4147 42.7149C79.4544 42.5639 79.4328 42.4034 79.3547 42.2681C79.273 42.136 79.1434 42.0404 78.9929 42.001C78.8423 41.9616 78.6824 41.9815 78.5462 42.0566C78.6363 42.017 78.5181 42.0684 78.4969 42.0765C78.4477 42.0949 78.4002 42.1131 78.3511 42.1303C78.2585 42.1627 78.165 42.1922 78.0706 42.2202C77.83 42.2912 77.5855 42.3489 77.3395 42.3993C76.8671 42.4961 76.3896 42.5644 75.9111 42.616C74.9014 42.7248 73.8838 42.7752 72.8677 42.7973C71.1855 42.8313 69.5029 42.7601 67.8297 42.584C67.2938 42.5288 66.8062 42.4691 66.2782 42.374C66.058 42.3344 65.8383 42.2902 65.6216 42.2345C65.5386 42.2131 65.4559 42.1902 65.3753 42.1644C65.333 42.1512 65.0682 42.0477 65.2335 42.1195C65.097 42.0455 64.9374 42.0263 64.7872 42.0656C64.637 42.1049 64.5075 42.1998 64.425 42.331C64.347 42.4663 64.3255 42.6268 64.3652 42.7778C64.4049 42.9287 64.5025 43.0581 64.637 43.1378H64.635Z" fill="#726A69"/>
<path d="M71.8608 38.7038C69.9352 38.7019 68.017 38.6414 66.098 38.8429C64.6578 38.994 62.5763 39.2979 61.9902 40.8614C61.8613 41.2996 61.8095 41.7567 61.837 42.2126C61.8331 42.5506 61.8178 42.8887 61.8082 43.2265C61.7535 43.9544 61.7886 44.6863 61.9129 45.4057C62.0685 46.0999 62.6847 46.5471 63.2674 46.8954C63.6884 47.1154 64.1385 47.2746 64.6044 47.3684C65.1158 47.502 65.6317 47.6172 66.152 47.7138C68.2029 48.0914 70.2763 48.1334 72.3558 48.1278C74.3043 48.1517 76.251 48.0002 78.1722 47.6752C79.086 47.5365 79.9657 47.2288 80.7662 46.7679C81.1814 46.5457 81.5186 46.2024 81.7328 45.7838C81.8202 45.551 81.8746 45.3072 81.8944 45.0595C82.0588 43.7906 82.0346 42.5045 81.8225 41.2427C81.5742 39.8408 80.1427 39.3043 78.8889 39.0864C77.1192 38.8189 75.3309 38.6931 73.5411 38.71C72.9808 38.7033 72.4206 38.7031 71.8603 38.7031C71.0998 38.7031 71.0983 39.8824 71.8603 39.8824C73.7359 39.8824 75.5999 39.9273 77.4689 40.0902C78.0787 40.1297 78.6836 40.2258 79.2755 40.3771C79.5494 40.4437 79.8133 40.546 80.0604 40.6813C80.1586 40.7354 80.2517 40.7983 80.3385 40.8692C80.4195 40.9346 80.4888 41.0133 80.5433 41.1019C80.5744 41.154 80.6419 41.3382 80.581 41.151C80.5919 41.1844 80.6057 41.2174 80.6145 41.2515C80.6379 41.3446 80.6608 41.437 80.6781 41.5313C80.6891 41.5913 80.6987 41.6517 80.7074 41.7122C80.6928 41.6112 80.712 41.7522 80.7155 41.7841C80.7319 41.9325 80.7454 42.0812 80.7559 42.23C80.7986 42.847 80.8087 43.4659 80.7859 44.0839C80.7763 44.3566 80.7591 44.6291 80.7313 44.9005C80.7268 44.9448 80.7103 45.0612 80.7263 44.9519C80.7197 44.9981 80.7125 45.0443 80.7042 45.0902C80.6789 45.1742 80.6584 45.2595 80.6426 45.3457C80.6426 45.3617 80.6076 45.4329 80.6524 45.3275C80.7037 45.2069 80.6372 45.3521 80.6256 45.3668C80.573 45.4358 80.5136 45.4992 80.4483 45.5563C80.3 45.674 80.1408 45.7773 79.9727 45.8648C79.6309 46.048 79.2698 46.1928 78.896 46.2965C77.2706 46.7719 75.4928 46.8883 73.8076 46.9306C71.9121 47.0063 70.0138 46.9659 68.1234 46.8095C67.1957 46.7168 66.2756 46.5609 65.3693 46.3427C64.9349 46.2539 64.5063 46.1384 64.0862 45.9968C63.7985 45.8614 63.5331 45.6831 63.2994 45.4678C63.2479 45.4229 63.1984 45.3762 63.1494 45.3288C63.1219 45.3028 63.096 45.2753 63.0718 45.2462C63.0777 45.2533 63.1292 45.3445 63.1112 45.289C63.0748 45.1787 63.1132 45.3135 63.1004 45.2678C63.0834 45.2089 63.0657 45.1506 63.0511 45.0907C63.0041 44.8287 62.9806 44.5631 62.981 44.2969C62.9637 43.6311 63.0041 42.9661 63.0162 42.3003C62.9833 41.9459 63.0124 41.5884 63.1021 41.2439C63.2174 41.0044 63.406 40.8076 63.6407 40.682C64.2192 40.3666 64.8539 40.1672 65.5092 40.0949C67.1287 39.8362 68.792 39.8492 70.4265 39.8683C70.904 39.8738 71.3818 39.8799 71.8593 39.8804C72.6215 39.8838 72.6228 38.7046 71.8608 38.7038Z" fill="#726A69"/>
<path d="M63.5814 47.054C63.5814 47.6579 63.6149 48.2332 63.3974 48.7816C63.1473 49.3153 62.7883 49.7911 62.3434 50.1785C61.8538 50.6387 61.3167 51.0512 60.8658 51.5511C60.364 52.1056 60.0136 52.7794 59.8479 53.5079C59.6784 54.3521 59.608 55.2131 59.6381 56.0735C59.6381 56.9871 59.6361 57.9008 59.6322 58.8145C59.6259 60.5289 59.6164 62.2433 59.6036 63.9578C59.5805 67.3688 59.5544 70.7795 59.5529 74.1905C59.5171 74.9195 59.6414 75.6476 59.9171 76.3237C60.1698 76.855 60.544 77.3198 61.0096 77.6806C61.8009 78.3286 62.7161 78.8091 63.6996 79.093C64.8837 79.3979 66.0907 79.6066 67.3087 79.7167C68.5504 79.8538 69.7988 79.9378 71.0476 79.9811C73.4962 80.0548 75.9461 79.8842 78.3607 79.472C79.3881 79.3001 80.4825 79.0902 81.4048 78.5824C82.3761 78.0478 83.3863 77.3629 83.8589 76.3237C84.1872 75.6016 84.2234 74.8536 84.2229 74.0723C84.2229 73.1987 84.221 72.3251 84.2173 71.4517C84.211 69.738 84.2015 68.0246 84.1887 66.3114C84.1641 62.8581 84.1394 59.4052 84.138 55.9519C84.138 54.339 84.0003 52.7213 82.8512 51.4867C82.0092 50.5822 80.7446 49.8898 80.3547 48.6489C80.2111 48.0644 80.1573 47.4615 80.1949 46.8609C80.1949 46.102 79.0128 46.1008 79.0128 46.8609C78.9831 47.5163 79.0368 48.1728 79.1726 48.8148C79.3577 49.4582 79.689 50.0504 80.1407 50.5453C80.9517 51.4789 82.2326 52.1245 82.6527 53.346C82.8843 54.1111 82.987 54.9093 82.9566 55.708C82.9576 56.5867 82.9591 57.4655 82.9613 58.3446C82.9665 60.0283 82.9752 61.7118 82.9874 63.3952C83.0095 66.7185 83.0366 70.042 83.0411 73.3655C83.0411 74.0954 83.1206 74.8658 82.8933 75.5712C82.7296 76.0392 82.4344 76.4503 82.0429 76.7556C81.6585 77.0635 81.2455 77.3342 80.8096 77.5641C80.4398 77.7558 80.0474 77.9007 79.6415 77.9953C77.3628 78.6146 74.918 78.7532 72.5669 78.8134C71.4749 78.8411 70.3802 78.7854 69.2915 78.7117C68.0628 78.638 66.8388 78.5021 65.624 78.3043C65.0822 78.2158 64.5453 78.0993 64.0156 77.9555C63.6349 77.865 63.268 77.7245 62.9243 77.5378C62.0609 77.0504 61.1541 76.4888 60.8613 75.4916C60.6508 74.7744 60.7367 73.9856 60.7382 73.2476C60.7397 72.4005 60.7423 71.5534 60.7461 70.7063C60.7533 69.0544 60.7631 67.4024 60.7756 65.7505C60.799 62.3621 60.8089 58.9735 60.8227 55.5849C60.7957 54.7898 60.911 53.9963 61.1632 53.2416C61.407 52.7001 61.7762 52.2241 62.2404 51.8528C63.1763 50.9969 64.2352 50.1684 64.6047 48.8951C64.7438 48.2913 64.7976 47.6711 64.7645 47.0525C64.7645 46.2936 63.5824 46.2924 63.5824 47.0525L63.5814 47.054Z" fill="#726A69"/>
<path d="M59.9608 70.6747C61.2232 71.6778 62.7929 72.2296 64.3636 72.534C65.9429 72.8233 67.5384 73.016 69.1413 73.111C72.3849 73.3423 75.6445 73.1874 78.8513 72.6494C80.606 72.3494 82.4114 71.7932 83.8203 70.6747C83.9303 70.5637 83.992 70.4139 83.992 70.2578C83.992 70.1017 83.9303 69.9519 83.8203 69.8408C83.7077 69.7336 83.5581 69.6738 83.4024 69.6738C83.2468 69.6738 83.0971 69.7336 82.9845 69.8408C81.846 70.7447 80.3041 71.1818 78.8964 71.4481C77.4177 71.71 75.9238 71.8787 74.4238 71.9532C71.389 72.1438 68.3423 71.9964 65.3401 71.5139C63.7681 71.2574 62.0691 70.8506 60.7983 69.8408C60.6853 69.7346 60.5358 69.6754 60.3804 69.6754C60.2251 69.6754 60.0756 69.7346 59.9625 69.8408C59.8526 69.9519 59.791 70.1017 59.791 70.2578C59.791 70.4138 59.8526 70.5636 59.9625 70.6747H59.9608Z" fill="#726A69"/>
<path d="M59.8805 55.8559C60.9747 56.9786 62.588 57.2385 64.0834 57.3714C65.3288 57.4822 66.5791 57.5495 67.8267 57.6078C71.5867 57.8 75.3554 57.7467 79.1084 57.4481C80.7717 57.3081 82.4452 57.0356 83.8102 55.9949C83.9418 55.9125 84.037 55.7833 84.0763 55.6334C84.1157 55.4835 84.0964 55.3243 84.0223 55.1881C83.9425 55.0538 83.8129 54.9564 83.6616 54.9168C83.5102 54.8772 83.3493 54.8987 83.2138 54.9766C82.5231 55.4903 81.7297 55.8499 80.8875 56.031C80.7215 56.0696 80.5543 56.1047 80.3861 56.1317C80.3452 56.1384 80.3043 56.144 80.2629 56.1504C80.1263 56.1718 80.3179 56.1448 80.2068 56.158C79.9517 56.1888 79.696 56.216 79.4399 56.2396C77.8047 56.3904 76.1605 56.4639 74.5191 56.5076C71.1744 56.5875 67.8278 56.4934 64.4929 56.2258C63.1892 56.1246 61.6763 56.0089 60.7146 55.022C60.1834 54.4769 59.3481 55.3112 59.8788 55.8559H59.8805Z" fill="#726A69"/>
<path d="M50.6356 24.8032C52.3076 21.9779 54.0081 19.17 55.6889 16.3504C56.2647 15.3841 56.8393 14.4177 57.4128 13.4514C57.8004 12.7964 56.7789 12.2024 56.392 12.8561C54.4657 16.1119 52.5167 19.3543 50.5746 22.6007C50.2541 23.1362 49.9344 23.6723 49.6156 24.2089C49.228 24.8638 50.2495 25.4579 50.6364 24.8041L50.6356 24.8032Z" fill="#726A69"/>
<path d="M47.9339 30.9718C48.1617 31.2263 48.3888 31.4818 48.6073 31.7444C48.7058 31.8641 48.8043 31.9842 48.8981 32.1088C48.9392 32.1636 49.1257 32.4967 49.1678 32.4962C48.9592 32.4989 49.299 32.1132 49.1126 32.3577C49.0856 32.3971 49.0609 32.4381 49.0387 32.4805L48.92 32.6812C48.8171 32.8555 48.7141 33.0296 48.6109 33.2035L47.2956 35.4294C46.2654 37.1728 45.2353 38.9166 44.2054 40.6605C42.0431 44.322 39.8809 47.9832 37.7186 51.6443C36.8235 53.1601 35.9278 54.6757 35.0315 56.191C34.6441 56.846 35.6657 57.44 36.0523 56.786C37.9194 53.6311 39.7843 50.4749 41.6471 47.3174C43.8517 43.5843 46.0565 39.8513 48.2615 36.1185L49.7586 33.5855C50.0381 33.1131 50.5297 32.5395 50.2363 31.9764C49.8839 31.2995 49.2744 30.7011 48.7698 30.1372C48.2622 29.5697 47.4286 30.4062 47.9339 30.9711V30.9718Z" fill="#726A69"/>
<path d="M29.7536 53.0764C31.5693 50.0083 33.3867 46.9413 35.2058 43.8753C37.3786 40.2096 39.5513 36.5437 41.7239 32.8775C42.2272 32.0277 42.7306 31.1777 43.234 30.3277L43.5805 29.7422C43.6972 29.5864 43.7963 29.4182 43.876 29.2408L43.9182 29.1717C43.6891 29.2463 43.6298 29.2801 43.7403 29.2732C43.8124 29.2853 43.8859 29.2873 43.9585 29.2791C44.0993 29.2885 44.2395 29.3055 44.3784 29.33C44.7826 29.398 45.1823 29.4909 45.5802 29.5879C46.3191 29.768 46.6343 28.631 45.8945 28.4509C45.2259 28.2597 44.5388 28.1401 43.8448 28.0942C43.6966 28.0795 43.5471 28.0984 43.4073 28.1494C43.2675 28.2005 43.1411 28.2824 43.0375 28.389C42.8878 28.5763 42.7579 28.7784 42.6496 28.9922C42.2178 29.7218 41.7859 30.4512 41.354 31.1804C40.3062 32.9493 39.258 34.7181 38.2096 36.487C35.9797 40.2514 33.7496 44.0149 31.5193 47.7773C30.5901 49.3449 29.6612 50.9129 28.7328 52.4813C28.3451 53.1361 29.3667 53.7301 29.7536 53.0764Z" fill="#726A69"/>
<path d="M68.6831 0.966342C67.3655 -0.343853 65.199 -0.221014 63.7172 0.734177C62.3086 1.64171 61.4481 3.11872 61.0683 4.72544C60.9802 5.11264 60.9144 5.50456 60.8713 5.89929C60.8467 6.10123 60.8292 6.30367 60.8139 6.50635C60.7678 6.75904 60.7678 7.01797 60.8139 7.27066C60.8506 7.38568 60.9171 7.489 61.0067 7.57018C61.0962 7.65137 61.2057 7.70754 61.324 7.73302C61.4475 7.75234 61.5739 7.74378 61.6937 7.70798C61.8136 7.67219 61.9239 7.61006 62.0165 7.52616C62.3982 7.27708 62.8083 7.07404 63.238 6.9213C64.8452 6.33635 66.7442 6.91344 68.2171 5.87742C68.5789 5.61398 68.8846 5.28136 69.1164 4.89893C69.3481 4.51651 69.5013 4.09191 69.5669 3.64987C69.6389 3.16459 69.5962 2.66925 69.4423 2.20333C69.2884 1.73742 69.0275 1.31383 68.6803 0.966342C68.1612 0.409393 67.3259 1.24469 67.8445 1.80017C68.1199 2.07527 68.3075 2.4255 68.3837 2.80676C68.46 3.18802 68.4215 3.58326 68.273 3.94272C67.996 4.67385 67.4357 5.06153 66.6988 5.25439C65.7972 5.49048 64.8681 5.37722 63.9546 5.52242C63.4991 5.59639 63.0537 5.72329 62.6277 5.90052C62.3787 6.00247 62.1305 6.1086 61.8914 6.23218C61.7943 6.28132 61.6983 6.33536 61.6042 6.39138C61.5281 6.43658 61.3868 6.5722 61.323 6.59603H61.6372L61.5816 6.58399L61.8424 6.73557L61.801 6.697L61.9529 6.95717C61.9468 6.73611 61.9664 6.51508 62.0113 6.29851C62.0268 6.12162 62.0441 5.94474 62.0682 5.76908C62.1228 5.37194 62.2086 4.97969 62.3248 4.59597C62.5318 3.845 62.8962 3.14644 63.3941 2.54654C64.4324 1.37171 66.5434 0.505452 67.8445 1.80017C68.3865 2.33673 69.2226 1.50315 68.6831 0.966342Z" fill="#726A69"/>
<path d="M72.6135 10.5095C72.6236 9.88552 72.3993 9.28037 71.9847 8.81307C71.5278 8.33954 70.9209 8.03811 70.2667 7.95984C68.9253 7.73234 67.5597 8.1834 66.4695 8.96515C66.2313 9.13712 66.0015 9.32039 65.7799 9.51153C65.4903 9.76089 65.1039 10.0331 65.2177 10.4726C65.3255 10.8883 65.6797 10.935 66.0424 10.9662C66.3004 10.9906 66.5517 11.0625 66.7835 11.1782C67.296 11.4712 67.7873 11.7996 68.2539 12.1609C68.7027 12.4673 69.2117 12.8284 69.7545 12.9355C70.0912 12.9815 70.4338 12.9584 70.7611 12.8674C71.0885 12.7764 71.3938 12.6196 71.6582 12.4066C71.9548 12.1865 72.1958 11.9003 72.3617 11.5707C72.5275 11.2411 72.6138 10.8773 72.6135 10.5085C72.6322 9.74935 71.4501 9.74959 71.4313 10.5085C71.4268 10.7604 71.3466 11.0051 71.201 11.211C71.0555 11.4169 70.8513 11.5744 70.615 11.6632C70.4254 11.7609 70.2117 11.8021 69.9993 11.7816C69.7239 11.6983 69.4655 11.5671 69.2358 11.3942C68.7187 11.0681 68.2434 10.677 67.7237 10.3537C67.1604 9.99404 66.5091 9.79514 65.8405 9.77858L66.1387 9.85916L66.1003 9.8427L66.3712 10.195L66.3569 10.1586L66.2973 10.6129C66.3825 10.5252 66.4764 10.4463 66.5776 10.3775C66.6849 10.2844 66.7933 10.1918 66.9049 10.1039C67.0916 9.95715 67.2882 9.82351 67.4935 9.7039C67.9953 9.39093 68.5552 9.18205 69.1398 9.0897C70.1522 8.96367 71.4289 9.30787 71.4301 10.5078C71.4326 11.2681 72.6147 11.2696 72.6135 10.5095Z" fill="#726A69"/>
<path d="M26.0515 61.8083C26.8082 60.2949 27.5414 58.7698 28.2876 57.2513C28.4405 56.9402 28.5927 56.6292 28.7476 56.3194C28.823 56.1835 28.843 56.0239 28.8035 55.8737C28.764 55.7234 28.6681 55.5941 28.5356 55.5126C28.3999 55.4352 28.2392 55.414 28.088 55.4536C27.9368 55.4931 27.8072 55.5903 27.7271 55.7241C26.9503 57.2766 26.1965 58.8408 25.4316 60.3991C25.2984 60.6694 25.1661 60.9426 25.0307 61.213C24.9554 61.349 24.9354 61.5086 24.9749 61.6588C25.0144 61.809 25.1103 61.9383 25.2427 62.0198C25.3784 62.0972 25.5392 62.1184 25.6904 62.0788C25.8416 62.0393 25.9712 61.9422 26.0515 61.8083Z" fill="#726A69"/>
<path d="M30.2148 64.2535C31.1703 62.8697 32.1294 61.4881 33.092 60.1089C33.2867 59.828 33.4814 59.547 33.6761 59.266C33.7538 59.1306 33.7751 58.9702 33.7354 58.8194C33.6958 58.6685 33.5983 58.5391 33.4641 58.4592C33.328 58.3834 33.1678 58.3631 33.0171 58.4025C32.8664 58.4419 32.7368 58.5381 32.6556 58.6707C31.6751 60.0907 30.691 61.5083 29.7035 62.9234C29.5336 63.1691 29.3637 63.414 29.194 63.6582C29.1164 63.7936 29.0951 63.954 29.1348 64.1048C29.1744 64.2557 29.2718 64.385 29.406 64.465C29.5421 64.5408 29.7023 64.5612 29.8531 64.5217C30.0039 64.4823 30.1335 64.3862 30.2148 64.2535Z" fill="#726A69"/>
<path d="M31.0604 56.8413L26.0103 53.8686C25.7257 53.7008 25.2651 53.5278 25.127 53.2104C25.159 53.2841 25.092 53.0861 25.1233 53.1984C25.1173 53.1592 25.1173 53.1194 25.1233 53.0802C25.1021 53.2031 25.139 53.033 25.1459 53.02C25.0814 53.1429 25.1775 52.9758 25.1816 52.9692C25.3612 52.6788 25.5296 52.3813 25.7032 52.0874C25.7649 51.9999 25.8195 51.9077 25.8665 51.8115C25.8567 51.8376 25.9214 51.8096 25.8682 51.8137C25.7328 51.8241 25.9111 51.8563 25.9443 51.8666C26.2084 51.9747 26.4597 52.1116 26.6938 52.2746L28.2024 53.163L34.255 56.7268L37.3667 58.5588C37.4821 58.6207 37.5937 58.6895 37.7009 58.7647C37.7555 58.8065 37.8016 58.8713 37.858 58.9079C37.7868 58.8617 37.959 59.0136 37.8811 58.9401C37.8686 58.9281 37.8866 58.8639 37.8888 58.8583C37.8289 59.016 37.9735 58.7561 37.8248 58.9811C37.7083 59.1573 37.608 59.3477 37.5004 59.5295C37.3915 59.7553 37.2581 59.9686 37.1027 60.1655C37.1327 60.1437 37.0288 60.2031 37.0103 60.2063C36.8459 60.2168 36.6829 60.1699 36.5493 60.0737C34.7062 59.0209 32.8897 57.9191 31.0604 56.842C30.4038 56.4556 29.8084 57.4744 30.4639 57.8604C32.2787 58.9288 34.0841 60.0137 35.9088 61.0662C36.5801 61.4534 37.4652 61.5509 38.024 60.9099C38.233 60.6357 38.4169 60.3432 38.5734 60.0361C38.7719 59.701 39.0386 59.3609 39.0588 58.9575C39.098 58.1763 38.3259 57.7537 37.7467 57.4132L36.0671 56.4244L29.3318 52.4582L27.534 51.4005C26.956 51.06 26.2931 50.5434 25.5828 50.6849C25.4131 50.7243 25.2541 50.8004 25.1172 50.9079C24.9802 51.0154 24.8686 51.1516 24.7903 51.3069C24.5881 51.6408 24.3928 51.9788 24.1941 52.3142C24.0096 52.5984 23.9263 52.9362 23.9576 53.2733C23.9889 53.6104 24.1329 53.9272 24.3665 54.1727C24.7322 54.5685 25.3023 54.8211 25.7638 55.0926L27.4303 56.0738L30.4629 57.8591C31.1205 58.2461 31.716 57.2272 31.0604 56.8413Z" fill="#726A69"/>
<path d="M26.4405 64.6412L22.8587 62.5325C22.6121 62.4242 22.3889 62.269 22.2017 62.0756C22.1652 62.0225 22.182 62.0608 22.1771 61.9886C22.1771 61.9817 22.1674 61.8903 22.1771 61.9505C22.1876 62.0176 22.212 61.8753 22.1798 61.9395C22.1581 61.9817 22.2509 61.8193 22.2625 61.7997L22.4448 61.4913C22.5917 61.3079 22.7119 61.1047 22.8018 60.8877C22.8334 60.728 22.8326 60.8995 22.7986 60.8695C22.7835 60.8788 22.7677 60.887 22.7514 60.8941C22.7487 60.899 22.7036 60.9027 22.7021 60.8904C22.7021 60.8936 22.8474 60.9282 22.8597 60.9327C23.2811 61.1287 23.6849 61.3606 24.0665 61.6257L29.048 64.5586L30.2811 65.2846C30.6609 65.5082 31.0283 65.7546 31.3987 65.9845C31.4233 65.9993 31.4618 66.0749 31.4199 65.9961C31.3884 65.9366 31.4901 65.8133 31.3706 66.0015C31.2372 66.2103 31.1175 66.4294 30.9911 66.6427C30.9419 66.7272 30.886 66.8105 30.8407 66.8972C30.836 66.9058 30.7641 67.0245 30.803 66.9694C30.8347 66.9247 30.7766 66.9989 30.7744 67.0014C30.8094 66.966 30.7385 67.0294 30.7239 67.0333C30.6672 67.0475 30.6078 67.0466 30.5515 67.0309C30.2449 66.9633 29.9139 66.6869 29.6455 66.5289L28.5373 65.8759L26.4408 64.6414C25.7842 64.255 25.1887 65.2738 25.844 65.6597L28.0142 66.9373L29.1421 67.6006C29.4807 67.8371 29.8493 68.0277 30.2383 68.1671C30.4859 68.2396 30.7487 68.2428 30.998 68.1762C31.2473 68.1096 31.4734 67.976 31.6516 67.7898C31.7896 67.6177 31.9104 67.4326 32.0122 67.237C32.1668 66.9756 32.3434 66.7179 32.4766 66.4449C33.0431 65.2875 31.531 64.6495 30.7505 64.1901L24.9341 60.7663C24.4588 60.4865 23.9886 60.1654 23.4909 59.9269C22.9932 59.6883 22.4044 59.6058 21.9773 60.0251C21.8001 60.2357 21.6501 60.4676 21.5308 60.7155C21.4077 60.9231 21.273 61.1277 21.1614 61.3417C21.0523 61.5457 20.9968 61.7739 21.0001 62.005C21.0035 62.2362 21.0655 62.4627 21.1804 62.6635C21.4321 63.0949 21.8741 63.3214 22.2886 63.5658L23.4934 64.2751L25.8428 65.6585C26.5006 66.0462 27.0958 65.0271 26.4405 64.6412Z" fill="#726A69"/>
<path d="M33.4921 45.8856C34.0797 46.2317 34.6658 46.5803 35.2536 46.9262C35.3207 46.9653 35.3948 46.9908 35.4717 47.0013C35.5486 47.0119 35.6268 47.0071 35.7019 46.9875C35.777 46.9678 35.8475 46.9336 35.9093 46.8868C35.9711 46.84 36.0231 46.7815 36.0623 46.7146C36.1014 46.6477 36.127 46.5738 36.1376 46.4971C36.1481 46.4204 36.1434 46.3423 36.1237 46.2674C36.104 46.1925 36.0697 46.1222 36.0227 46.0605C35.9758 45.9988 35.9171 45.947 35.8501 45.9079C35.2625 45.562 34.6764 45.2134 34.0888 44.8672C34.0218 44.8281 33.9477 44.8026 33.8708 44.7921C33.7938 44.7816 33.7156 44.7863 33.6405 44.8059C33.5654 44.8255 33.4949 44.8598 33.4331 44.9066C33.3712 44.9534 33.3192 45.0119 33.28 45.0788C33.2408 45.1456 33.2152 45.2195 33.2047 45.2963C33.1942 45.373 33.1989 45.4511 33.2185 45.526C33.2382 45.6009 33.2725 45.6712 33.3195 45.7329C33.3664 45.7946 33.425 45.8465 33.4921 45.8856Z" fill="#726A69"/>
<path d="M35.9742 41.6926C36.5618 42.0388 37.1479 42.3874 37.7355 42.7333C37.8709 42.8122 38.0322 42.8343 38.1838 42.7946C38.3355 42.7549 38.4652 42.6568 38.5443 42.5218C38.6234 42.3867 38.6455 42.2258 38.6058 42.0745C38.566 41.9232 38.4676 41.7939 38.3323 41.715C37.7447 41.369 37.1585 41.0204 36.5707 40.6745C36.5036 40.6348 36.4294 40.6087 36.3522 40.5977C36.275 40.5867 36.1964 40.5911 36.1209 40.6106C36.0454 40.63 35.9745 40.6642 35.9123 40.7111C35.8501 40.758 35.7978 40.8167 35.7585 40.8839C35.7192 40.9511 35.6935 41.0253 35.6831 41.1024C35.6726 41.1795 35.6776 41.2579 35.6976 41.333C35.7177 41.4082 35.7524 41.4787 35.7999 41.5404C35.8474 41.6021 35.9066 41.6538 35.9742 41.6926Z" fill="#726A69"/>
<path d="M40.9337 33.3067C41.5213 33.6529 42.1074 34.0015 42.695 34.3474C42.762 34.3865 42.8361 34.4121 42.913 34.4226C42.9899 34.4331 43.0682 34.4284 43.1432 34.4088C43.2183 34.3892 43.2888 34.355 43.3506 34.3082C43.4125 34.2614 43.4645 34.2029 43.5037 34.136C43.5428 34.0692 43.5684 33.9953 43.579 33.9186C43.5896 33.8418 43.5849 33.7638 43.5652 33.6889C43.5455 33.614 43.5112 33.5437 43.4643 33.482C43.4174 33.4203 43.3588 33.3684 43.2918 33.3293C42.7041 32.9832 42.118 32.6346 41.5302 32.2887C41.3949 32.2111 41.2344 32.19 41.0836 32.23C40.9328 32.2701 40.804 32.3679 40.7253 32.5023C40.6466 32.6367 40.6243 32.7967 40.6633 32.9474C40.7024 33.0981 40.7996 33.2272 40.9337 33.3067Z" fill="#726A69"/>
<path d="M31.0117 50.0786C31.5993 50.4247 32.1864 50.7716 32.773 51.1193C32.9084 51.1982 33.0696 51.2203 33.2213 51.1806C33.373 51.141 33.5026 51.0428 33.5818 50.9078C33.6609 50.7727 33.683 50.6119 33.6432 50.4606C33.6035 50.3093 33.5051 50.1799 33.3697 50.101C32.7821 49.7551 32.1957 49.4064 31.6081 49.0603C31.4728 48.9814 31.3115 48.9594 31.1599 48.999C31.0082 49.0387 30.8786 49.1369 30.7995 49.2719C30.7204 49.407 30.6983 49.5678 30.7381 49.7191C30.7779 49.8704 30.8763 49.9997 31.0117 50.0786Z" fill="#726A69"/>
<path d="M38.4529 37.4996C39.0243 37.8362 39.5951 38.1735 40.1655 38.5115C40.3008 38.5905 40.4621 38.6125 40.6138 38.5729C40.7654 38.5332 40.8951 38.435 40.9742 38.3C41.0534 38.165 41.0755 38.0041 41.0357 37.8528C40.9959 37.7015 40.8976 37.5721 40.7622 37.4932C40.1908 37.1569 39.621 36.8178 39.0496 36.4815C38.9143 36.4026 38.7531 36.3805 38.6014 36.4201C38.4498 36.4598 38.3201 36.5579 38.241 36.6929C38.1619 36.8279 38.1397 36.9888 38.1795 37.14C38.2192 37.2913 38.3176 37.4207 38.4529 37.4996Z" fill="#726A69"/>
<path d="M47.872 24.0568C47.4517 24.4551 47.1874 25.0764 46.8956 25.5719C46.5606 26.1403 46.226 26.7086 45.8915 27.2769L45.5162 27.9137C45.3468 28.2014 45.082 28.5363 45.082 28.8819C45.082 29.277 45.3776 29.5037 45.6859 29.6885C45.9501 29.8462 46.2129 30.0064 46.4774 30.1636C46.8658 30.3948 47.2578 30.6196 47.6492 30.8456C47.9504 31.0198 48.2516 31.2215 48.6168 31.1171C49.0482 30.9943 49.2423 30.4803 49.4516 30.128C49.9035 29.3664 50.3559 28.6048 50.8088 27.8432C51.0152 27.4961 51.2275 27.1514 51.4272 26.801C51.6399 26.4411 51.7094 26.0146 51.6218 25.6061C51.5763 25.2709 51.4628 24.9484 51.2881 24.6585C51.0381 24.2826 50.6086 24.0971 50.2306 23.8745C49.8762 23.6309 49.4414 23.5324 49.0162 23.5994C48.6495 23.6331 48.2972 23.7583 47.9917 23.9635C47.8602 24.0458 47.765 24.175 47.7257 24.3249C47.6863 24.4747 47.7056 24.6339 47.7797 24.77C47.8595 24.9043 47.9892 25.0018 48.1406 25.0414C48.2919 25.081 48.4529 25.0595 48.5885 24.9816C48.7839 24.8442 49.0136 24.7632 49.2522 24.7474C49.3022 24.743 49.3526 24.743 49.4026 24.7474C49.3583 24.7406 49.2696 24.6782 49.447 24.7831C49.6049 24.8764 49.763 24.9694 49.9213 25.0621C50.0154 25.1177 50.1092 25.1739 50.2037 25.2285C50.3353 25.3044 50.3045 25.2953 50.2673 25.253C50.3255 25.3284 50.3662 25.4158 50.3862 25.5088C50.4679 25.6944 50.4963 25.8991 50.4682 26.0999C50.3901 26.2683 50.2953 26.4286 50.1853 26.5782C50.0815 26.7531 49.9778 26.928 49.874 27.1027C49.6632 27.4578 49.4522 27.8128 49.2411 28.1677C49.0342 28.5156 48.8273 28.8635 48.6205 29.2114L48.3249 29.7094C48.2534 29.8544 48.1676 29.992 48.0688 30.1201L48.3296 29.9686C48.5074 29.9062 48.5946 30.0423 48.4321 29.9334C48.3737 29.8939 48.3067 29.8597 48.2456 29.8253L47.8558 29.6008C47.6781 29.4983 47.5009 29.3951 47.3241 29.2912C47.1599 29.1939 46.9952 29.0957 46.8301 28.9964L46.4099 28.7439C46.3489 28.7073 46.2888 28.6652 46.225 28.6333C46.061 28.5505 46.2127 28.5368 46.2432 28.7225V29.0389C46.3122 28.8783 46.3966 28.7247 46.4951 28.5802L46.7463 28.154L47.4278 26.9966L48.1154 25.8291C48.2707 25.4918 48.4699 25.1763 48.7079 24.8909C49.2608 24.3671 48.4239 23.5343 47.872 24.0568Z" fill="#726A69"/>
</g>
<defs>
<clipPath id="clip0_1621_24472">
<rect width="87" height="80" fill="white" transform="translate(21)"/>
</clipPath>
</defs>
</svg>
