<svg width="588" height="400" viewBox="0 0 588 400" fill="none" xmlns="http://www.w3.org/2000/svg">
<circle cx="123" cy="311" r="88" fill="#1492D9"/>
<circle cx="324" cy="215" r="174" fill="#F5F5F5"/>
<path fill-rule="evenodd" clip-rule="evenodd" d="M241.901 368.453C187.202 339.126 150 281.408 150 215C150 148.206 187.636 90.2021 242.859 61.0383L323.996 215L241.901 368.453Z" fill="#1492D9"/>
<path fill-rule="evenodd" clip-rule="evenodd" d="M258.715 91.1221L324.002 215L230.256 111.018C238.845 103.269 248.398 96.5702 258.715 91.1221Z" fill="#C9E3F2"/>
<path fill-rule="evenodd" clip-rule="evenodd" d="M257.936 338.463C213.929 314.866 184 268.428 184 215C184 173.703 201.88 136.583 230.322 110.958L323.987 215L257.936 338.463Z" fill="#E3EFF6"/>
<path fill-rule="evenodd" clip-rule="evenodd" d="M324 41V214.999L349.694 387.116C433.609 374.696 498 302.368 498 215C498 118.902 420.098 41 324 41Z" fill="#EEBBD0"/>
<path fill-rule="evenodd" clip-rule="evenodd" d="M241.864 368.433L323.998 215L349.724 387.111C341.33 388.355 332.739 389 323.999 389C294.294 389 266.328 381.557 241.864 368.433Z" fill="#F2D5E1"/>
<path d="M286.16 327.608H288.464V342.52H286.16V327.608ZM282.32 331.112H292.416V333.368H282.32V331.112ZM288.848 331.816C289.616 334.456 291.12 337.24 292.928 338.824C292.368 339.24 291.584 340.072 291.2 340.696C289.312 338.744 287.904 335.56 287.024 332.312L288.848 331.816ZM285.872 331.912L287.856 332.488C286.832 335.736 285.2 338.824 283.168 340.776C282.768 340.216 281.984 339.368 281.456 338.936C283.36 337.368 285.04 334.552 285.872 331.912ZM281.04 327.4L283.36 328.152C282.24 330.968 280.384 334.024 278.48 335.896C278.24 335.304 277.552 333.992 277.136 333.4C278.688 331.976 280.176 329.704 281.04 327.4ZM279.456 332.216L281.728 329.944L281.76 329.976V342.488H279.456V332.216ZM300.768 336.888H303.44V338.36H300.768V336.888ZM299.712 328.728H304.544V330.392H299.712V328.728ZM299.472 332.296H309.136V334.072H299.472V332.296ZM301.296 334.632H304.432V340.6H301.296V339.048H302.656V336.2H301.296V334.632ZM299.92 334.632H301.664V341.48H299.92V334.632ZM301.184 327.384H303.152V329.832H301.184V327.384ZM307.312 334.536L309.152 334.936C308.192 338.28 306.384 340.936 303.936 342.568C303.696 342.184 303.04 341.416 302.656 341.064C304.96 339.736 306.544 337.416 307.312 334.536ZM299.952 330.584L301.408 330.232C301.616 330.824 301.76 331.624 301.776 332.152L300.24 332.536C300.24 332.024 300.128 331.208 299.952 330.584ZM306.24 328.824L307.744 328.04C308.368 328.808 308.976 329.848 309.248 330.568L307.664 331.464C307.424 330.744 306.816 329.624 306.24 328.824ZM302.688 330.248L304.4 330.552C304.144 331.272 303.92 331.96 303.744 332.456L302.336 332.152C302.464 331.592 302.624 330.808 302.688 330.248ZM294.16 327.88H299.792V329.912H294.16V327.88ZM295.632 331.336H298.384V333.192H295.632V331.336ZM295.632 334.584H298.384V336.44H295.632V334.584ZM294.736 329H296.608V338.936H294.736V329ZM297.248 328.984H299.168V342.52H297.248V328.984ZM293.824 338.456C294.992 338.312 296.672 338.024 298.32 337.752L298.48 339.688C297.024 340.008 295.488 340.312 294.208 340.568L293.824 338.456ZM304.72 327.32H306.752C306.656 333.864 307.056 339.816 307.584 339.832C307.744 339.832 307.84 339.176 307.888 338.024C308.208 338.488 309.04 339.128 309.36 339.336C308.912 342.008 308.032 342.52 307.472 342.52C305.152 342.488 304.784 336.568 304.72 327.32ZM311.328 330.056H324.736V338.376H322.288V332.344H313.664V338.456H311.328V330.056ZM312.528 335.336H323.632V337.624H312.528V335.336ZM316.736 327.32H319.2V342.52H316.736V327.32Z" fill="#E5005A"/>
<path d="M270.144 68.584C270.72 68.632 271.232 68.648 271.808 68.648C272.48 68.648 275.312 68.504 276.32 68.392C276.928 68.328 277.328 68.248 277.568 68.168L279.088 69.96C278.688 70.216 277.984 70.68 277.6 71C276.48 71.864 275.328 72.84 274.336 73.608C276.32 73.416 278.848 73.272 280.592 73.272L280.608 75.56C279.088 75.464 277.44 75.448 276.448 75.576C275.04 75.768 273.984 76.648 273.984 77.848C273.984 78.92 274.8 79.384 276.224 79.528C277.088 79.608 278.128 79.608 278.736 79.56L278.224 82.12C274.016 82.296 271.488 81.048 271.488 78.264C271.488 77.496 271.792 76.6 272.256 76.024C270.928 76.12 269.344 76.36 267.904 76.616L267.68 74.264C268.528 74.184 269.664 74.04 270.512 73.944C271.76 73.16 273.6 71.576 274.576 70.696C273.952 70.744 272.448 70.824 271.808 70.888C271.424 70.92 270.848 70.984 270.256 71.048L270.144 68.584ZM291.435 70.008C291.195 71.624 290.891 73.48 290.283 75.48C289.339 78.68 287.899 80.824 286.011 80.824C284.027 80.824 282.523 78.68 282.523 75.944C282.523 72.136 285.803 68.904 290.075 68.904C294.155 68.904 296.731 71.72 296.731 75.352C296.731 78.728 294.747 81.192 290.587 81.896L289.115 79.592C289.787 79.512 290.219 79.416 290.683 79.304C292.715 78.808 294.075 77.384 294.075 75.272C294.075 72.792 292.619 71.176 290.027 71.176C286.699 71.176 285.035 73.88 285.035 75.688C285.035 77.08 285.515 77.8 286.075 77.8C286.715 77.8 287.195 76.824 287.771 74.968C288.251 73.464 288.603 71.608 288.763 69.928L291.435 70.008ZM307.6 67.416H309.776V78.584H307.6V67.416ZM302.288 73.512L311.728 69.816L312.608 71.832L303.2 75.56L302.288 73.512ZM304.208 69.224H306.512V79.08C306.512 80.072 306.64 80.184 307.648 80.184C308.096 80.184 309.92 80.184 310.384 80.184C311.296 80.184 311.472 79.832 311.632 78.04C312.144 78.408 313.072 78.792 313.712 78.936C313.424 81.432 312.752 82.264 310.608 82.264C310.016 82.264 307.968 82.264 307.424 82.264C304.896 82.264 304.208 81.56 304.208 79.08V69.224ZM310.944 70.168H310.832L311.2 69.928L311.6 69.64L313.184 70.232L313.104 70.584C313.088 73.32 313.072 75.048 313.008 75.736C312.96 76.584 312.688 77.08 312.128 77.368C311.632 77.64 310.832 77.672 310.208 77.656C310.176 77.016 309.984 76.024 309.728 75.528C310.016 75.544 310.4 75.56 310.576 75.56C310.752 75.56 310.848 75.512 310.896 75.256C310.928 74.984 310.944 73.672 310.944 70.168ZM301.648 67.384L303.792 68.072C302.784 70.776 301.104 73.752 299.376 75.592C299.168 75.048 298.544 73.768 298.176 73.192C299.552 71.8 300.88 69.592 301.648 67.384ZM300.08 71.976L302.368 69.688V69.704V82.504H300.08V71.976Z" fill="#837978"/>
<path d="M287.444 369.208C286.386 369.208 285.407 369.035 284.506 368.688C283.604 368.324 282.842 367.769 282.218 367.024C281.611 366.279 281.221 365.343 281.048 364.216H284.688C284.878 364.736 285.251 365.135 285.806 365.412C286.36 365.672 286.95 365.802 287.574 365.802C288.284 365.802 288.882 365.663 289.368 365.386C289.87 365.091 290.269 364.71 290.564 364.242C290.858 363.757 291.075 363.228 291.214 362.656C291.352 362.067 291.43 361.469 291.448 360.862C291.448 360.793 291.448 360.723 291.448 360.654C291.448 360.567 291.448 360.489 291.448 360.42C291.066 360.975 290.607 361.408 290.07 361.72C289.532 362.032 288.978 362.249 288.406 362.37C287.834 362.491 287.288 362.552 286.768 362.552C285.676 362.552 284.688 362.327 283.804 361.876C282.92 361.408 282.218 360.741 281.698 359.874C281.195 359.007 280.944 357.959 280.944 356.728C280.944 355.359 281.256 354.206 281.88 353.27C282.504 352.317 283.327 351.597 284.35 351.112C285.39 350.627 286.525 350.384 287.756 350.384C289.108 350.384 290.243 350.653 291.162 351.19C292.08 351.727 292.808 352.455 293.346 353.374C293.883 354.293 294.264 355.315 294.49 356.442C294.732 357.569 294.854 358.721 294.854 359.9C294.854 361.183 294.715 362.387 294.438 363.514C294.178 364.623 293.753 365.611 293.164 366.478C292.592 367.327 291.829 367.995 290.876 368.48C289.94 368.965 288.796 369.208 287.444 369.208ZM287.6 359.432C288.276 359.432 288.83 359.293 289.264 359.016C289.714 358.739 290.052 358.392 290.278 357.976C290.52 357.543 290.642 357.092 290.642 356.624C290.642 356.035 290.503 355.532 290.226 355.116C289.966 354.683 289.61 354.353 289.16 354.128C288.726 353.885 288.224 353.764 287.652 353.764C287.028 353.764 286.49 353.894 286.04 354.154C285.589 354.414 285.242 354.761 285 355.194C284.757 355.627 284.636 356.095 284.636 356.598C284.636 357.395 284.887 358.071 285.39 358.626C285.91 359.163 286.646 359.432 287.6 359.432Z" fill="#E5005A"/>
<path d="M304.896 369.128C304.363 369.128 303.867 369.064 303.408 368.936C302.949 368.797 302.539 368.589 302.176 368.312C301.824 368.035 301.525 367.683 301.28 367.256C301.045 366.829 300.885 366.323 300.8 365.736H303.056C303.12 365.949 303.237 366.152 303.408 366.344C303.579 366.536 303.792 366.691 304.048 366.808C304.315 366.925 304.613 366.984 304.944 366.984C305.349 366.984 305.691 366.915 305.968 366.776C306.245 366.627 306.459 366.424 306.608 366.168C306.757 365.912 306.832 365.608 306.832 365.256C306.832 364.723 306.661 364.296 306.32 363.976C305.989 363.645 305.52 363.48 304.912 363.48C304.56 363.48 304.229 363.544 303.92 363.672C303.621 363.789 303.333 363.955 303.056 364.168H301.104L301.312 357.672H308.768V359.768H303.472L303.344 362.072C303.664 361.848 304.032 361.693 304.448 361.608C304.875 361.512 305.296 361.469 305.712 361.48C306.448 361.501 307.072 361.661 307.584 361.96C308.096 362.259 308.485 362.675 308.752 363.208C309.029 363.741 309.168 364.365 309.168 365.08C309.168 365.944 308.976 366.68 308.592 367.288C308.219 367.896 307.707 368.355 307.056 368.664C306.416 368.973 305.696 369.128 304.896 369.128Z" fill="#E5005A"/>
<path d="M296.949 369.208C296.568 369.208 296.264 369.095 296.039 368.87C295.831 368.627 295.727 368.333 295.727 367.986C295.727 367.622 295.84 367.327 296.065 367.102C296.29 366.877 296.585 366.764 296.949 366.764C297.296 366.764 297.582 366.877 297.807 367.102C298.032 367.327 298.145 367.622 298.145 367.986C298.145 368.333 298.032 368.627 297.807 368.87C297.599 369.095 297.313 369.208 296.949 369.208Z" fill="#E5005A"/>
<path d="M312.654 369L320.014 357.672H322.318L314.99 369H312.654ZM321.118 369.112C320.574 369.112 320.094 369 319.678 368.776C319.273 368.541 318.953 368.216 318.718 367.8C318.494 367.384 318.382 366.893 318.382 366.328C318.382 365.763 318.499 365.272 318.734 364.856C318.969 364.44 319.294 364.12 319.71 363.896C320.126 363.661 320.606 363.544 321.15 363.544C321.683 363.544 322.153 363.656 322.558 363.88C322.963 364.104 323.278 364.424 323.502 364.84C323.726 365.245 323.838 365.736 323.838 366.312C323.838 366.877 323.721 367.373 323.486 367.8C323.262 368.216 322.942 368.541 322.526 368.776C322.121 369 321.651 369.112 321.118 369.112ZM321.118 367.432C321.353 367.432 321.545 367.384 321.694 367.288C321.843 367.181 321.95 367.043 322.014 366.872C322.089 366.701 322.126 366.525 322.126 366.344C322.126 366.163 322.089 365.992 322.014 365.832C321.95 365.661 321.843 365.523 321.694 365.416C321.545 365.309 321.353 365.256 321.118 365.256C320.745 365.256 320.478 365.373 320.318 365.608C320.158 365.832 320.078 366.083 320.078 366.36C320.089 366.637 320.174 366.888 320.334 367.112C320.494 367.325 320.755 367.432 321.118 367.432ZM313.902 363.112C313.347 363.112 312.867 363 312.462 362.776C312.057 362.541 311.737 362.216 311.502 361.8C311.278 361.384 311.166 360.899 311.166 360.344C311.166 359.768 311.278 359.272 311.502 358.856C311.737 358.44 312.062 358.12 312.478 357.896C312.894 357.661 313.374 357.544 313.918 357.544C314.462 357.544 314.931 357.656 315.326 357.88C315.731 358.104 316.046 358.424 316.27 358.84C316.494 359.245 316.606 359.736 316.606 360.312C316.606 360.877 316.494 361.373 316.27 361.8C316.046 362.216 315.726 362.541 315.31 362.776C314.905 363 314.435 363.112 313.902 363.112ZM313.902 361.416C314.137 361.416 314.329 361.368 314.478 361.272C314.627 361.165 314.734 361.032 314.798 360.872C314.862 360.701 314.894 360.52 314.894 360.328C314.894 360.147 314.857 359.976 314.782 359.816C314.718 359.645 314.611 359.507 314.462 359.4C314.323 359.293 314.137 359.24 313.902 359.24C313.529 359.24 313.257 359.357 313.086 359.592C312.926 359.816 312.851 360.072 312.862 360.36C312.862 360.637 312.942 360.883 313.102 361.096C313.273 361.309 313.539 361.416 313.902 361.416Z" fill="#E5005A"/>
<path d="M285.836 107.208C284.969 107.208 284.129 107.113 283.314 106.922C282.499 106.714 281.754 106.393 281.078 105.96C280.419 105.509 279.891 104.92 279.492 104.192C279.111 103.464 278.92 102.589 278.92 101.566C278.92 100.89 279.015 100.283 279.206 99.746C279.414 99.1913 279.709 98.706 280.09 98.29C280.489 97.8567 280.965 97.51 281.52 97.25C281.052 96.9553 280.671 96.6087 280.376 96.21C280.081 95.794 279.865 95.3433 279.726 94.858C279.587 94.3727 279.518 93.8787 279.518 93.376C279.518 92.4573 279.7 91.686 280.064 91.062C280.428 90.4207 280.913 89.9093 281.52 89.528C282.127 89.1293 282.811 88.8433 283.574 88.67C284.337 88.4793 285.108 88.384 285.888 88.384C286.685 88.384 287.457 88.4793 288.202 88.67C288.947 88.8433 289.623 89.138 290.23 89.554C290.837 89.9527 291.322 90.4813 291.686 91.14C292.05 91.7813 292.232 92.5613 292.232 93.48C292.232 93.948 292.154 94.4247 291.998 94.91C291.859 95.378 291.634 95.8113 291.322 96.21C291.027 96.6087 290.646 96.9467 290.178 97.224C290.733 97.4667 291.209 97.796 291.608 98.212C292.007 98.628 292.31 99.122 292.518 99.694C292.726 100.266 292.83 100.907 292.83 101.618C292.83 102.641 292.631 103.507 292.232 104.218C291.833 104.929 291.296 105.509 290.62 105.96C289.944 106.393 289.19 106.714 288.358 106.922C287.543 107.113 286.703 107.208 285.836 107.208ZM285.862 103.854C286.243 103.854 286.625 103.811 287.006 103.724C287.387 103.637 287.734 103.499 288.046 103.308C288.358 103.1 288.601 102.849 288.774 102.554C288.965 102.242 289.06 101.861 289.06 101.41C289.06 100.855 288.921 100.405 288.644 100.058C288.367 99.694 287.985 99.4253 287.5 99.252C287.032 99.0613 286.486 98.966 285.862 98.966C285.255 98.966 284.701 99.0613 284.198 99.252C283.713 99.4253 283.331 99.694 283.054 100.058C282.777 100.405 282.638 100.855 282.638 101.41C282.638 101.861 282.733 102.242 282.924 102.554C283.115 102.849 283.357 103.1 283.652 103.308C283.964 103.499 284.311 103.637 284.692 103.724C285.073 103.811 285.463 103.854 285.862 103.854ZM285.888 96.132C286.443 96.132 286.911 96.0453 287.292 95.872C287.691 95.6813 287.994 95.4213 288.202 95.092C288.427 94.7453 288.54 94.364 288.54 93.948C288.54 93.428 288.427 93.0033 288.202 92.674C287.977 92.3273 287.656 92.0673 287.24 91.894C286.841 91.7033 286.365 91.608 285.81 91.608C285.273 91.608 284.805 91.7033 284.406 91.894C284.025 92.0673 283.721 92.3187 283.496 92.648C283.288 92.9773 283.184 93.376 283.184 93.844C283.184 94.312 283.297 94.7193 283.522 95.066C283.747 95.4127 284.059 95.6813 284.458 95.872C284.874 96.0453 285.351 96.132 285.888 96.132Z" fill="#837978"/>
<path d="M296.654 107L304.014 95.672H306.318L298.99 107H296.654ZM305.118 107.112C304.574 107.112 304.094 107 303.678 106.776C303.273 106.541 302.953 106.216 302.718 105.8C302.494 105.384 302.382 104.893 302.382 104.328C302.382 103.763 302.499 103.272 302.734 102.856C302.969 102.44 303.294 102.12 303.71 101.896C304.126 101.661 304.606 101.544 305.15 101.544C305.683 101.544 306.153 101.656 306.558 101.88C306.963 102.104 307.278 102.424 307.502 102.84C307.726 103.245 307.838 103.736 307.838 104.312C307.838 104.877 307.721 105.373 307.486 105.8C307.262 106.216 306.942 106.541 306.526 106.776C306.121 107 305.651 107.112 305.118 107.112ZM305.118 105.432C305.353 105.432 305.545 105.384 305.694 105.288C305.843 105.181 305.95 105.043 306.014 104.872C306.089 104.701 306.126 104.525 306.126 104.344C306.126 104.163 306.089 103.992 306.014 103.832C305.95 103.661 305.843 103.523 305.694 103.416C305.545 103.309 305.353 103.256 305.118 103.256C304.745 103.256 304.478 103.373 304.318 103.608C304.158 103.832 304.078 104.083 304.078 104.36C304.089 104.637 304.174 104.888 304.334 105.112C304.494 105.325 304.755 105.432 305.118 105.432ZM297.902 101.112C297.347 101.112 296.867 101 296.462 100.776C296.057 100.541 295.737 100.216 295.502 99.8C295.278 99.384 295.166 98.8987 295.166 98.344C295.166 97.768 295.278 97.272 295.502 96.856C295.737 96.44 296.062 96.12 296.478 95.896C296.894 95.6613 297.374 95.544 297.918 95.544C298.462 95.544 298.931 95.656 299.326 95.88C299.731 96.104 300.046 96.424 300.27 96.84C300.494 97.2453 300.606 97.736 300.606 98.312C300.606 98.8773 300.494 99.3733 300.27 99.8C300.046 100.216 299.726 100.541 299.31 100.776C298.905 101 298.435 101.112 297.902 101.112ZM297.902 99.416C298.137 99.416 298.329 99.368 298.478 99.272C298.627 99.1653 298.734 99.032 298.798 98.872C298.862 98.7013 298.894 98.52 298.894 98.328C298.894 98.1467 298.857 97.976 298.782 97.816C298.718 97.6453 298.611 97.5067 298.462 97.4C298.323 97.2933 298.137 97.24 297.902 97.24C297.529 97.24 297.257 97.3573 297.086 97.592C296.926 97.816 296.851 98.072 296.862 98.36C296.862 98.6373 296.942 98.8827 297.102 99.096C297.273 99.3093 297.539 99.416 297.902 99.416Z" fill="#837978"/>
<rect y="137" width="150" height="2" fill="#1492D9"/>
<path d="M198 186L150 138" stroke="#1492D9" stroke-width="2"/>
<rect x="50" y="29" width="132" height="2" fill="#1492D9"/>
<path d="M250 108.5L182 30" stroke="#1492D9" stroke-width="2"/>
<path d="M12.254 108.498H15.488V113.25H12.254V108.498ZM6.688 111.622H20.966V114.592H6.688V111.622ZM12.32 112.898L15.378 113.91C13.574 117.32 10.582 120.356 7.502 122.204C7.084 121.522 6.05 120.114 5.434 119.476C8.272 118.09 10.912 115.648 12.32 112.898ZM6.71 125.724C9.02 125.35 12.474 124.69 15.686 124.03L15.994 126.89C13.112 127.572 9.988 128.254 7.59 128.76L6.71 125.724ZM19.206 115.934L21.582 118.2C19.998 119.454 18.282 120.862 16.918 121.72L15.136 119.85C16.412 118.904 18.172 117.232 19.206 115.934ZM15.972 113.58C16.698 118.992 18.304 123.832 21.912 126.142C21.164 126.758 20.152 128.012 19.646 128.892C15.598 125.922 14.014 120.642 13.068 113.998L15.972 113.58ZM5.082 108.234L8.074 109.202C6.622 112.92 4.246 116.99 1.782 119.476C1.496 118.706 0.66 116.924 0.132 116.11C2.09 114.24 3.982 111.226 5.082 108.234ZM3.058 114.548L6.094 111.512V111.534V129.024H3.058V114.548ZM8.954 119.608L11.99 116.572V116.594V126.78H8.954V119.608ZM23.518 110.346H32.934V113.14H23.518V110.346ZM26.884 108.234H29.7V115.758H26.884V108.234ZM26.114 116.572V118.112H30.492V116.572H26.114ZM23.826 114.218H32.934V120.488H23.826V114.218ZM26.884 119.014L28.82 119.982C27.808 122.49 26.114 125.68 24.266 127.396C24.024 126.538 23.386 125.24 22.946 124.448C24.486 123.128 26.136 120.774 26.884 119.014ZM29.568 119.498C30.272 120.07 32.582 122.446 33.11 123.018L31.284 125.482C30.558 124.162 28.974 121.984 28.072 120.862L29.568 119.498ZM27.104 115.582H29.48V119.542H29.7V129.068H26.884V119.542H27.104V115.582ZM33.198 108.96H44V111.666H33.198V108.96ZM36.784 118.31V119.234H40.348V118.31H36.784ZM36.784 121.412V122.336H40.348V121.412H36.784ZM36.784 115.23V116.154H40.348V115.23H36.784ZM33.924 112.898H43.362V124.668H33.924V112.898ZM36.938 110.5L40.436 110.874C39.974 112.282 39.446 113.646 39.072 114.57L36.432 114.086C36.652 113.03 36.872 111.578 36.938 110.5ZM35.662 124.426L38.17 126.076C36.96 127.22 34.936 128.496 33.264 129.156C32.758 128.584 31.856 127.682 31.196 127.154C32.824 126.56 34.716 125.35 35.662 124.426ZM38.698 126.076L41.03 124.646C42.152 125.46 43.736 126.692 44.528 127.528L42.042 129.134C41.36 128.32 39.842 126.978 38.698 126.076ZM55.66 108.828H64.724V117.804H55.44V115.142H61.622V111.49H55.66V108.828ZM53.724 108.828H56.826V122.886H53.724V108.828ZM55.528 112.15H62.568V114.416H55.528V112.15ZM52.426 122.094C54.296 121.83 57.09 121.302 59.752 120.796L59.994 123.524C57.574 124.096 55 124.646 52.91 125.108L52.426 122.094ZM60.588 116.748C61.468 119.586 63.294 121.654 66.594 122.49C65.912 123.128 65.01 124.382 64.592 125.24C60.83 123.942 59.004 121.236 57.882 117.232L60.588 116.748ZM63.976 117.188L66.396 119.19C65.01 120.026 63.58 120.862 62.48 121.368L60.676 119.718C61.71 119.102 63.14 118.002 63.976 117.188ZM51.612 116.704V124.998H48.488V119.652H46.222V116.704H51.612ZM51.612 123.612C52.426 124.976 53.922 125.526 56.078 125.614C58.762 125.724 63.778 125.658 66.946 125.372C66.594 126.142 66.088 127.682 65.934 128.628C63.14 128.782 58.762 128.826 56.012 128.694C53.394 128.584 51.656 128.034 50.204 126.34C49.302 127.132 48.378 127.924 47.19 128.87L45.65 125.526C46.618 124.976 47.718 124.316 48.686 123.612H51.612ZM46.134 110.61L48.51 108.696C49.764 109.598 51.37 110.962 52.118 111.974L49.566 114.086C48.928 113.074 47.388 111.6 46.134 110.61ZM77.946 121.346H81.62V123.37H77.946V121.346ZM76.494 110.126H83.138V112.414H76.494V110.126ZM76.164 115.032H89.452V117.474H76.164V115.032ZM78.672 118.244H82.984V126.45H78.672V124.316H80.542V120.4H78.672V118.244ZM76.78 118.244H79.178V127.66H76.78V118.244ZM78.518 108.278H81.224V111.644H78.518V108.278ZM86.944 118.112L89.474 118.662C88.154 123.26 85.668 126.912 82.302 129.156C81.972 128.628 81.07 127.572 80.542 127.088C83.71 125.262 85.888 122.072 86.944 118.112ZM76.824 112.678L78.826 112.194C79.112 113.008 79.31 114.108 79.332 114.834L77.22 115.362C77.22 114.658 77.066 113.536 76.824 112.678ZM85.47 110.258L87.538 109.18C88.396 110.236 89.232 111.666 89.606 112.656L87.428 113.888C87.098 112.898 86.262 111.358 85.47 110.258ZM80.586 112.216L82.94 112.634C82.588 113.624 82.28 114.57 82.038 115.252L80.102 114.834C80.278 114.064 80.498 112.986 80.586 112.216ZM68.86 108.96H76.604V111.754H68.86V108.96ZM70.884 113.712H74.668V116.264H70.884V113.712ZM70.884 118.178H74.668V120.73H70.884V118.178ZM69.652 110.5H72.226V124.162H69.652V110.5ZM73.106 110.478H75.746V129.09H73.106V110.478ZM68.398 123.502C70.004 123.304 72.314 122.908 74.58 122.534L74.8 125.196C72.798 125.636 70.686 126.054 68.926 126.406L68.398 123.502ZM83.38 108.19H86.174C86.042 117.188 86.592 125.372 87.318 125.394C87.538 125.394 87.67 124.492 87.736 122.908C88.176 123.546 89.32 124.426 89.76 124.712C89.144 128.386 87.934 129.09 87.164 129.09C83.974 129.046 83.468 120.906 83.38 108.19ZM97.8445 109.378C97.6905 110.412 97.5585 111.754 97.5145 112.722C97.4045 115.032 97.2505 119.784 97.2505 122.204C97.2505 124.316 98.4605 124.976 99.9565 124.976C103.366 124.976 105.676 122.974 107.282 120.51L109.702 123.48C108.338 125.592 105.06 128.628 99.9345 128.628C96.0845 128.628 93.6865 126.89 93.6865 123.04C93.6865 120.268 93.8845 114.372 93.8845 112.722C93.8845 111.534 93.7745 110.324 93.5545 109.334L97.8445 109.378ZM120.922 109.29C120.746 109.972 120.526 111.05 120.416 111.556C120.108 113.008 119.514 115.824 118.942 118.068C118.15 121.126 116.676 125.592 115.422 128.32L111.726 127.066C113.024 124.888 114.762 120.202 115.598 117.144C116.17 115.054 116.632 112.832 116.786 111.446C116.896 110.522 116.918 109.532 116.852 108.982L120.922 109.29ZM114.894 112.37C117.732 112.37 120.746 111.952 123.694 111.27V114.592C120.966 115.252 117.424 115.604 114.872 115.604C113.75 115.604 112.892 115.56 112.144 115.516L112.056 112.194C113.244 112.326 113.948 112.37 114.894 112.37ZM121.78 115.934C123.056 115.802 124.706 115.692 126.136 115.692C127.368 115.692 128.688 115.758 130.03 115.89L129.964 119.08C128.864 118.948 127.5 118.794 126.136 118.794C124.552 118.794 123.188 118.86 121.78 119.036V115.934ZM123.386 121.566C123.232 122.138 123.1 122.864 123.1 123.304C123.1 124.228 123.782 124.8 125.718 124.8C127.214 124.8 128.732 124.624 130.426 124.338L130.294 127.726C129.04 127.88 127.544 128.034 125.696 128.034C121.846 128.034 119.8 126.648 119.8 124.404C119.8 123.282 120.042 122.094 120.218 121.258L123.386 121.566Z" fill="#1492D9"/>
<path d="M53.168 5.888H59.13V8.198H53.168V5.888ZM53.168 9.408H59.13V11.63H53.168V9.408ZM53.168 13.016H59.13V15.326H53.168V13.016ZM62.804 10.662H71.032V13.324H62.804V10.662ZM54.224 2.28H57.612V4.656H54.224V2.28ZM61 1.312H68.942V3.908H61V1.312ZM61.176 14.93H71.494V17.658H61.176V14.93ZM64.96 8.836H67.996V21.024H64.96V8.836ZM55.368 7.12H57.436V13.852H55.368V7.12ZM68.128 1.312H70.944C70.944 1.312 70.922 1.95 70.9 2.28C70.812 5.734 70.636 7.318 70.152 7.934C69.756 8.44 69.294 8.638 68.722 8.748C68.216 8.836 67.402 8.858 66.522 8.836C66.478 8.044 66.214 6.966 65.818 6.284C66.412 6.35 66.874 6.372 67.16 6.372C67.402 6.372 67.578 6.328 67.732 6.13C67.952 5.844 68.062 4.722 68.128 1.686V1.312ZM62.056 8.968L64.608 9.474C64.256 11.476 63.552 13.522 62.738 14.798C62.21 14.424 61.066 13.852 60.45 13.588C61.242 12.444 61.792 10.662 62.056 8.968ZM53.432 0.167999L56.248 0.783998C55.456 3.842 54.092 6.878 52.508 8.748C52.024 8.264 50.902 7.296 50.264 6.878C51.738 5.294 52.86 2.742 53.432 0.167999ZM52.024 5.888H54.554V11.718C54.554 14.6 54.268 18.626 52.618 21.134C52.156 20.716 51.012 19.99 50.418 19.726C51.914 17.46 52.024 14.182 52.024 11.696V5.888ZM58.272 5.888H60.868V18.142C60.868 19.308 60.67 20.1 59.944 20.562C59.196 21.002 58.294 21.068 57.04 21.068C56.952 20.32 56.534 19.088 56.16 18.384C56.886 18.428 57.678 18.428 57.942 18.428C58.184 18.428 58.272 18.34 58.272 18.076V5.888ZM63.376 2.192H66.214C65.994 5.492 65.356 7.956 61.99 9.452C61.682 8.77 60.956 7.736 60.34 7.252C62.936 6.196 63.222 4.502 63.376 2.192ZM56.864 2.28H57.458L57.854 2.17L59.658 3.27C59.152 4.678 58.294 6.482 57.59 7.626C57.084 7.252 56.226 6.724 55.676 6.438C56.138 5.404 56.644 3.754 56.864 2.764V2.28ZM75.542 4.348H78.732V8.704C78.732 12.18 78.27 17.482 75.762 20.716C75.19 20.166 73.804 19.176 73.056 18.846C75.366 15.92 75.542 11.652 75.542 8.682V4.348ZM77.39 4.348H92.504V9.65H77.39V7.384H89.358V6.614H77.39V4.348ZM74.09 1.114H93.318V3.776H74.09V1.114ZM81.768 13.324H92.372V15.216H81.768V13.324ZM81.768 15.788H92.372V17.68H81.768V15.788ZM81.416 18.296H93.516V20.474H81.416V18.296ZM82.472 10.64H92.922V12.752H82.472V21.068H79.436V13.632L82.45 10.64H82.472ZM85.046 11.806H88.038V19.242H85.046V11.806ZM81.042 8.748L84.078 9.716C82.912 12.004 80.976 14.292 79.04 15.656C78.622 15.018 77.566 13.676 76.95 13.06C78.6 12.07 80.184 10.442 81.042 8.748ZM86.08 8.748L89.358 9.496C88.544 10.64 87.708 11.762 87.092 12.488L84.782 11.762C85.266 10.882 85.794 9.65 86.08 8.748ZM105.115 3.38C104.939 2.852 104.653 1.994 104.345 1.18L107.931 0.761999C108.327 2.698 108.855 4.348 109.383 5.756C110.065 7.56 111.055 9.364 111.649 10.222C112.067 10.838 112.507 11.366 112.947 11.872L111.341 14.248C109.999 14.006 107.161 13.698 105.159 13.522L105.423 10.706C106.413 10.794 107.777 10.904 108.393 10.948C107.667 9.716 106.831 8.044 106.171 6.328C105.709 5.14 105.379 4.128 105.115 3.38ZM97.1293 4.018C101.485 4.546 104.763 4.502 107.469 4.194C109.559 3.952 111.363 3.578 113.101 3.072L113.519 6.416C112.133 6.812 110.351 7.12 108.503 7.34C105.489 7.692 102.035 7.824 97.1733 7.428L97.1293 4.018ZM102.123 11.784C101.375 12.818 101.023 13.808 101.023 14.71C101.023 16.426 102.519 17.13 105.401 17.13C107.887 17.13 109.845 16.888 111.407 16.602L111.209 19.968C110.021 20.188 107.975 20.496 105.181 20.496C100.495 20.496 97.5693 18.626 97.5693 15.348C97.5693 13.94 97.9653 12.62 98.7793 11.014L102.123 11.784ZM136.917 18.142C135.971 18.956 134.673 19.682 132.715 19.682C130.955 19.682 129.789 18.362 129.789 16.052C129.789 13.698 130.559 10.684 130.559 8.748C130.559 7.78 130.053 7.252 129.217 7.252C127.171 7.252 123.849 10.772 122.265 12.884L122.221 8.814C123.541 7.45 127.237 4.062 130.251 4.062C132.803 4.062 133.925 5.602 133.925 7.494C133.925 9.804 133.243 12.73 133.243 15.04C133.243 15.524 133.507 15.81 133.925 15.81C134.607 15.81 135.575 15.282 136.499 14.38L136.917 18.142ZM121.473 7.692C120.329 7.802 118.415 8.066 117.051 8.242L116.721 4.854C117.425 4.876 117.975 4.876 118.899 4.832C120.395 4.744 123.277 4.304 124.245 3.974L125.257 5.316C124.883 5.8 124.157 6.944 123.783 7.494L122.155 12.268C121.209 13.588 119.317 16.536 118.261 17.944L116.193 15.018C117.601 13.28 120.065 10.112 121.297 8.242L121.319 7.978L121.473 7.692ZM121.187 3.116C121.187 2.412 121.209 1.708 121.077 0.959999L124.927 1.07C124.509 3.006 123.761 8.484 123.761 12.444C123.761 14.116 123.761 16.272 123.915 18.384C123.937 18.78 124.025 19.726 124.091 20.276H120.439C120.483 19.704 120.505 18.802 120.505 18.45C120.549 16.316 120.571 14.644 120.659 11.696C120.725 9.716 121.187 4.018 121.187 3.116ZM148.219 1.29C148.043 1.972 147.823 3.05 147.713 3.556C147.405 5.008 146.811 7.824 146.239 10.068C145.447 13.126 143.973 17.592 142.719 20.32L139.023 19.066C140.321 16.888 142.059 12.202 142.895 9.144C143.467 7.054 143.929 4.832 144.083 3.446C144.193 2.522 144.215 1.532 144.149 0.981999L148.219 1.29ZM142.191 4.37C145.029 4.37 148.043 3.952 150.991 3.27V6.592C148.263 7.252 144.721 7.604 142.169 7.604C141.047 7.604 140.189 7.56 139.441 7.516L139.353 4.194C140.541 4.326 141.245 4.37 142.191 4.37ZM149.077 7.934C150.353 7.802 152.003 7.692 153.433 7.692C154.665 7.692 155.985 7.758 157.327 7.89L157.261 11.08C156.161 10.948 154.797 10.794 153.433 10.794C151.849 10.794 150.485 10.86 149.077 11.036V7.934ZM150.683 13.566C150.529 14.138 150.397 14.864 150.397 15.304C150.397 16.228 151.079 16.8 153.015 16.8C154.511 16.8 156.029 16.624 157.723 16.338L157.591 19.726C156.337 19.88 154.841 20.034 152.993 20.034C149.143 20.034 147.097 18.648 147.097 16.404C147.097 15.282 147.339 14.094 147.515 13.258L150.683 13.566Z" fill="#1492D9"/>
<path d="M10.7497 171.245C9.55969 171.245 8.41635 171.105 7.31969 170.825C6.22302 170.545 5.21969 170.102 4.30969 169.495C3.39969 168.888 2.64135 168.118 2.03469 167.185C1.42802 166.228 1.05469 165.085 0.914688 163.755H5.88469C6.04802 164.408 6.36302 164.957 6.82969 165.4C7.31969 165.82 7.90302 166.123 8.57969 166.31C9.27969 166.497 10.0147 166.59 10.7847 166.59C11.298 166.59 11.7997 166.543 12.2897 166.45C12.803 166.357 13.258 166.193 13.6547 165.96C14.0747 165.727 14.4014 165.412 14.6347 165.015C14.868 164.618 14.9847 164.117 14.9847 163.51C14.9847 162.95 14.8797 162.483 14.6697 162.11C14.4597 161.737 14.1797 161.433 13.8297 161.2C13.4797 160.967 13.0597 160.803 12.5697 160.71C12.103 160.617 11.6014 160.57 11.0647 160.57H8.19469V156.3H10.1197C10.7264 156.3 11.2747 156.242 11.7647 156.125C12.2547 155.985 12.663 155.798 12.9897 155.565C13.3397 155.308 13.608 155.005 13.7947 154.655C13.9814 154.282 14.0747 153.862 14.0747 153.395C14.0747 152.695 13.923 152.147 13.6197 151.75C13.3164 151.33 12.8964 151.027 12.3597 150.84C11.823 150.653 11.2047 150.56 10.5047 150.56C9.85135 150.56 9.23302 150.665 8.64969 150.875C8.08969 151.062 7.62302 151.342 7.24969 151.715C6.87635 152.088 6.63135 152.543 6.51469 153.08H1.64969C1.78969 151.82 2.12802 150.747 2.66469 149.86C3.20135 148.95 3.88969 148.203 4.72969 147.62C5.56969 147.037 6.50302 146.617 7.52969 146.36C8.57969 146.08 9.66469 145.94 10.7847 145.94C11.858 145.94 12.8847 146.057 13.8647 146.29C14.8447 146.523 15.7197 146.908 16.4897 147.445C17.283 147.958 17.913 148.647 18.3797 149.51C18.8464 150.373 19.0797 151.412 19.0797 152.625C19.0797 153.372 18.9514 154.072 18.6947 154.725C18.4614 155.378 18.1114 155.962 17.6447 156.475C17.2014 156.965 16.6764 157.373 16.0697 157.7C16.9797 157.957 17.7264 158.377 18.3097 158.96C18.893 159.543 19.3247 160.232 19.6047 161.025C19.908 161.818 20.0597 162.67 20.0597 163.58C20.0597 165.073 19.7797 166.322 19.2197 167.325C18.683 168.305 17.9597 169.087 17.0497 169.67C16.1397 170.23 15.1364 170.638 14.0397 170.895C12.943 171.128 11.8464 171.245 10.7497 171.245ZM31.4095 171.28C29.5895 171.28 28.0495 170.953 26.7895 170.3C25.5295 169.647 24.5029 168.748 23.7095 167.605C22.9162 166.438 22.3445 165.097 21.9945 163.58C21.6445 162.04 21.4695 160.407 21.4695 158.68C21.4695 156.907 21.6445 155.25 21.9945 153.71C22.3679 152.17 22.9512 150.817 23.7445 149.65C24.5612 148.483 25.5995 147.573 26.8595 146.92C28.1429 146.267 29.6829 145.94 31.4795 145.94C33.3462 145.94 34.9095 146.278 36.1695 146.955C37.4529 147.632 38.4795 148.577 39.2495 149.79C40.0429 150.98 40.6029 152.333 40.9295 153.85C41.2795 155.367 41.4545 156.953 41.4545 158.61C41.4545 160.313 41.2795 161.923 40.9295 163.44C40.5795 164.957 40.0195 166.31 39.2495 167.5C38.4795 168.667 37.4529 169.588 36.1695 170.265C34.8862 170.942 33.2995 171.28 31.4095 171.28ZM31.4095 166.66C32.5529 166.66 33.4512 166.403 34.1045 165.89C34.7812 165.353 35.2829 164.665 35.6095 163.825C35.9595 162.985 36.1812 162.11 36.2745 161.2C36.3912 160.267 36.4495 159.403 36.4495 158.61C36.4495 157.863 36.3912 157.035 36.2745 156.125C36.1812 155.192 35.9712 154.317 35.6445 153.5C35.3179 152.66 34.8279 151.972 34.1745 151.435C33.5212 150.898 32.6345 150.63 31.5145 150.63C30.3945 150.63 29.4962 150.898 28.8195 151.435C28.1429 151.948 27.6295 152.625 27.2795 153.465C26.9529 154.305 26.7312 155.18 26.6145 156.09C26.4979 157 26.4395 157.84 26.4395 158.61C26.4395 159.38 26.4862 160.232 26.5795 161.165C26.6962 162.098 26.9179 162.985 27.2445 163.825C27.5712 164.665 28.0612 165.353 28.7145 165.89C29.3912 166.403 30.2895 166.66 31.4095 166.66Z" fill="#1492D9"/>
<path d="M44.0113 171.28C43.498 171.28 43.0897 171.128 42.7863 170.825C42.5063 170.498 42.3663 170.102 42.3663 169.635C42.3663 169.145 42.518 168.748 42.8213 168.445C43.1247 168.142 43.5213 167.99 44.0113 167.99C44.478 167.99 44.863 168.142 45.1663 168.445C45.4697 168.748 45.6213 169.145 45.6213 169.635C45.6213 170.102 45.4697 170.498 45.1663 170.825C44.8863 171.128 44.5013 171.28 44.0113 171.28Z" fill="#1492D9"/>
<path d="M53.466 171.168C52.766 171.168 52.115 171.084 51.513 170.916C50.911 170.734 50.372 170.461 49.896 170.097C49.434 169.733 49.042 169.271 48.72 168.711C48.412 168.151 48.202 167.486 48.09 166.716H51.051C51.135 166.996 51.289 167.262 51.513 167.514C51.737 167.766 52.017 167.969 52.353 168.123C52.703 168.277 53.095 168.354 53.529 168.354C54.061 168.354 54.509 168.263 54.873 168.081C55.237 167.885 55.517 167.619 55.713 167.283C55.909 166.947 56.007 166.548 56.007 166.086C56.007 165.386 55.783 164.826 55.335 164.406C54.901 163.972 54.285 163.755 53.487 163.755C53.025 163.755 52.591 163.839 52.185 164.007C51.793 164.161 51.415 164.378 51.051 164.658H48.489L48.762 156.132H58.548V158.883H51.597L51.429 161.907C51.849 161.613 52.332 161.41 52.878 161.298C53.438 161.172 53.991 161.116 54.537 161.13C55.503 161.158 56.322 161.368 56.994 161.76C57.666 162.152 58.177 162.698 58.527 163.398C58.891 164.098 59.073 164.917 59.073 165.855C59.073 166.989 58.821 167.955 58.317 168.753C57.827 169.551 57.155 170.153 56.301 170.559C55.461 170.965 54.516 171.168 53.466 171.168Z" fill="#1492D9"/>
<path d="M63.1397 171L72.7997 156.132H75.8237L66.2057 171H63.1397ZM74.2487 171.147C73.5347 171.147 72.9047 171 72.3587 170.706C71.8267 170.398 71.4067 169.971 71.0987 169.425C70.8047 168.879 70.6577 168.235 70.6577 167.493C70.6577 166.751 70.8117 166.107 71.1197 165.561C71.4277 165.015 71.8547 164.595 72.4007 164.301C72.9467 163.993 73.5767 163.839 74.2907 163.839C74.9907 163.839 75.6067 163.986 76.1387 164.28C76.6707 164.574 77.0837 164.994 77.3777 165.54C77.6717 166.072 77.8187 166.716 77.8187 167.472C77.8187 168.214 77.6647 168.865 77.3567 169.425C77.0627 169.971 76.6427 170.398 76.0967 170.706C75.5647 171 74.9487 171.147 74.2487 171.147ZM74.2487 168.942C74.5567 168.942 74.8087 168.879 75.0047 168.753C75.2007 168.613 75.3407 168.431 75.4247 168.207C75.5227 167.983 75.5717 167.752 75.5717 167.514C75.5717 167.276 75.5227 167.052 75.4247 166.842C75.3407 166.618 75.2007 166.436 75.0047 166.296C74.8087 166.156 74.5567 166.086 74.2487 166.086C73.7587 166.086 73.4087 166.24 73.1987 166.548C72.9887 166.842 72.8837 167.171 72.8837 167.535C72.8977 167.899 73.0097 168.228 73.2197 168.522C73.4297 168.802 73.7727 168.942 74.2487 168.942ZM64.7777 163.272C64.0497 163.272 63.4197 163.125 62.8877 162.831C62.3557 162.523 61.9357 162.096 61.6277 161.55C61.3337 161.004 61.1867 160.367 61.1867 159.639C61.1867 158.883 61.3337 158.232 61.6277 157.686C61.9357 157.14 62.3627 156.72 62.9087 156.426C63.4547 156.118 64.0847 155.964 64.7987 155.964C65.5127 155.964 66.1287 156.111 66.6467 156.405C67.1787 156.699 67.5917 157.119 67.8857 157.665C68.1797 158.197 68.3267 158.841 68.3267 159.597C68.3267 160.339 68.1797 160.99 67.8857 161.55C67.5917 162.096 67.1717 162.523 66.6257 162.831C66.0937 163.125 65.4777 163.272 64.7777 163.272ZM64.7777 161.046C65.0857 161.046 65.3377 160.983 65.5337 160.857C65.7297 160.717 65.8697 160.542 65.9537 160.332C66.0377 160.108 66.0797 159.87 66.0797 159.618C66.0797 159.38 66.0307 159.156 65.9327 158.946C65.8487 158.722 65.7087 158.54 65.5127 158.4C65.3307 158.26 65.0857 158.19 64.7777 158.19C64.2877 158.19 63.9307 158.344 63.7067 158.652C63.4967 158.946 63.3987 159.282 63.4127 159.66C63.4127 160.024 63.5177 160.346 63.7277 160.626C63.9517 160.906 64.3017 161.046 64.7777 161.046Z" fill="#1492D9"/>
<path d="M64.3298 62V57.45H51.7648V53.635L63.2798 37.22H69.3348V52.9H72.1348V57.45H69.3348V62H64.3298ZM57.5048 52.9H64.3298V42.75L57.5048 52.9Z" fill="#1492D9"/>
<path d="M75.0113 62.28C74.498 62.28 74.0897 62.1283 73.7863 61.825C73.5063 61.4983 73.3663 61.1017 73.3663 60.635C73.3663 60.145 73.518 59.7483 73.8213 59.445C74.1247 59.1417 74.5213 58.99 75.0113 58.99C75.478 58.99 75.863 59.1417 76.1663 59.445C76.4697 59.7483 76.6213 60.145 76.6213 60.635C76.6213 61.1017 76.4697 61.4983 76.1663 61.825C75.8863 62.1283 75.5013 62.28 75.0113 62.28Z" fill="#1492D9"/>
<path d="M80.6007 62V51.101H77.6817V48.833C78.2557 48.819 78.7737 48.77 79.2357 48.686C79.6977 48.588 80.1107 48.42 80.4747 48.182C80.8387 47.93 81.1537 47.58 81.4197 47.132H83.6037V62H80.6007Z" fill="#1492D9"/>
<path d="M89.1397 62L98.7997 47.132H101.824L92.2057 62H89.1397ZM100.249 62.147C99.5347 62.147 98.9047 62 98.3587 61.706C97.8267 61.398 97.4067 60.971 97.0987 60.425C96.8047 59.879 96.6577 59.235 96.6577 58.493C96.6577 57.751 96.8117 57.107 97.1197 56.561C97.4277 56.015 97.8547 55.595 98.4007 55.301C98.9467 54.993 99.5767 54.839 100.291 54.839C100.991 54.839 101.607 54.986 102.139 55.28C102.671 55.574 103.084 55.994 103.378 56.54C103.672 57.072 103.819 57.716 103.819 58.472C103.819 59.214 103.665 59.865 103.357 60.425C103.063 60.971 102.643 61.398 102.097 61.706C101.565 62 100.949 62.147 100.249 62.147ZM100.249 59.942C100.557 59.942 100.809 59.879 101.005 59.753C101.201 59.613 101.341 59.431 101.425 59.207C101.523 58.983 101.572 58.752 101.572 58.514C101.572 58.276 101.523 58.052 101.425 57.842C101.341 57.618 101.201 57.436 101.005 57.296C100.809 57.156 100.557 57.086 100.249 57.086C99.7587 57.086 99.4087 57.24 99.1987 57.548C98.9887 57.842 98.8837 58.171 98.8837 58.535C98.8977 58.899 99.0097 59.228 99.2197 59.522C99.4297 59.802 99.7727 59.942 100.249 59.942ZM90.7777 54.272C90.0497 54.272 89.4197 54.125 88.8877 53.831C88.3557 53.523 87.9357 53.096 87.6277 52.55C87.3337 52.004 87.1867 51.367 87.1867 50.639C87.1867 49.883 87.3337 49.232 87.6277 48.686C87.9357 48.14 88.3627 47.72 88.9087 47.426C89.4547 47.118 90.0847 46.964 90.7987 46.964C91.5127 46.964 92.1287 47.111 92.6467 47.405C93.1787 47.699 93.5917 48.119 93.8857 48.665C94.1797 49.197 94.3267 49.841 94.3267 50.597C94.3267 51.339 94.1797 51.99 93.8857 52.55C93.5917 53.096 93.1717 53.523 92.6257 53.831C92.0937 54.125 91.4777 54.272 90.7777 54.272ZM90.7777 52.046C91.0857 52.046 91.3377 51.983 91.5337 51.857C91.7297 51.717 91.8697 51.542 91.9537 51.332C92.0377 51.108 92.0797 50.87 92.0797 50.618C92.0797 50.38 92.0307 50.156 91.9327 49.946C91.8487 49.722 91.7087 49.54 91.5127 49.4C91.3307 49.26 91.0857 49.19 90.7777 49.19C90.2877 49.19 89.9307 49.344 89.7067 49.652C89.4967 49.946 89.3987 50.282 89.4127 50.66C89.4127 51.024 89.5177 51.346 89.7277 51.626C89.9517 51.906 90.3017 52.046 90.7777 52.046Z" fill="#1492D9"/>
<path d="M99.87 326.798H113.104V329.736H99.87V326.798ZM104.602 324.77H108.268V328.176H104.602V324.77ZM103.51 343.412C104.94 343.36 106.786 343.256 108.788 343.152L108.814 345.336C107.02 345.518 105.33 345.648 103.744 345.778L103.51 343.412ZM109.49 338.68H112.61V346.454C112.61 347.78 112.376 348.56 111.466 349.028C110.582 349.47 109.464 349.496 107.956 349.496C107.826 348.664 107.41 347.468 107.046 346.714C107.826 346.766 108.814 346.74 109.1 346.74C109.386 346.74 109.49 346.662 109.49 346.402V338.68ZM107.046 342.32L108.944 341.852C109.386 343.074 109.776 344.66 109.88 345.622L107.852 346.22C107.774 345.206 107.436 343.568 107.046 342.32ZM103.614 332.024L105.018 330.438C106.474 331.166 108.424 332.336 109.386 333.168L107.904 334.962C106.994 334.104 105.096 332.856 103.614 332.024ZM105.018 336.912L108.008 337.302C107.54 339.954 106.942 343.048 106.422 344.946L104.03 344.53C104.472 342.502 104.888 339.226 105.018 336.912ZM100.442 338.68H110.66V341.358H103.432V349.522H100.442V338.68ZM100.988 330.178H103.536V335.196H109.438V330.178H112.09V337.666H100.988V330.178ZM106.89 329.84L109.23 330.438C108.346 332.388 106.89 334.286 105.408 335.482C104.992 335.066 104.03 334.338 103.484 334C104.94 332.96 106.188 331.452 106.89 329.84ZM115.314 334.728H123.998V337.874H115.314V334.728ZM115.314 339.798H123.998V342.944H115.314V339.798ZM115.418 344.946H124.57V348.352H115.418V344.946ZM115.444 324.77L118.798 325.576C117.628 329.71 115.73 334.052 113.702 336.756C113.13 336.132 111.778 334.962 110.998 334.416C112.922 332.128 114.534 328.41 115.444 324.77ZM120.072 325.056L123.582 325.81C122.828 327.89 122.022 330.022 121.346 331.452L118.382 330.698C119.032 329.164 119.734 326.824 120.072 325.056ZM117.264 329.554H124.31V332.908H117.264V349.496H113.884V332.44L116.562 329.554H117.264ZM118.876 331.166H122.022V346.61H118.876V331.166ZM138.558 340.318H142.9V342.71H138.558V340.318ZM136.842 327.058H144.694V329.762H136.842V327.058ZM136.452 332.856H152.156V335.742H136.452V332.856ZM139.416 336.652H144.512V346.35H139.416V343.828H141.626V339.2H139.416V336.652ZM137.18 336.652H140.014V347.78H137.18V336.652ZM139.234 324.874H142.432V328.852H139.234V324.874ZM149.192 336.496L152.182 337.146C150.622 342.58 147.684 346.896 143.706 349.548C143.316 348.924 142.25 347.676 141.626 347.104C145.37 344.946 147.944 341.176 149.192 336.496ZM137.232 330.074L139.598 329.502C139.936 330.464 140.17 331.764 140.196 332.622L137.7 333.246C137.7 332.414 137.518 331.088 137.232 330.074ZM147.45 327.214L149.894 325.94C150.908 327.188 151.896 328.878 152.338 330.048L149.764 331.504C149.374 330.334 148.386 328.514 147.45 327.214ZM141.678 329.528L144.46 330.022C144.044 331.192 143.68 332.31 143.394 333.116L141.106 332.622C141.314 331.712 141.574 330.438 141.678 329.528ZM127.82 325.68H136.972V328.982H127.82V325.68ZM130.212 331.296H134.684V334.312H130.212V331.296ZM130.212 336.574H134.684V339.59H130.212V336.574ZM128.756 327.5H131.798V343.646H128.756V327.5ZM132.838 327.474H135.958V349.47H132.838V327.474ZM127.274 342.866C129.172 342.632 131.902 342.164 134.58 341.722L134.84 344.868C132.474 345.388 129.978 345.882 127.898 346.298L127.274 342.866ZM144.98 324.77H148.282C148.126 335.404 148.776 345.076 149.634 345.102C149.894 345.102 150.05 344.036 150.128 342.164C150.648 342.918 152 343.958 152.52 344.296C151.792 348.638 150.362 349.47 149.452 349.47C145.682 349.418 145.084 339.798 144.98 324.77Z" fill="white"/>
<path d="M92.96 296.3H96.32C96.14 299.8 95.88 309.44 87.78 314.74C87.26 313.98 86.32 313.08 85.3 312.4C93.26 307.78 92.82 298.92 92.96 296.3ZM96.22 296.9C96.28 298.74 96.62 308.36 104.8 312.24C103.86 312.94 103 313.92 102.56 314.72C93.86 310.32 93.58 299.38 93.4 297.2L96.22 296.9ZM113.982 298.74C116.602 299.06 120.562 298.96 122.802 298.72V301.84C120.182 302.06 116.682 302.08 114.002 301.84L113.982 298.74ZM116.042 307.5C115.902 308.14 115.842 308.58 115.842 309.1C115.842 309.98 116.682 310.32 118.322 310.32C120.102 310.32 121.542 310.16 123.362 309.78L123.422 313.06C122.102 313.3 120.522 313.44 118.162 313.44C114.662 313.44 112.922 312.14 112.922 310C112.922 309.14 113.042 308.3 113.282 307.26L116.042 307.5ZM111.322 297.52C111.142 297.98 110.842 299.2 110.762 299.56C110.542 300.6 109.802 304.84 109.802 306.7C109.802 306.76 109.802 307.08 109.822 307.16C110.102 306.6 110.342 306.2 110.602 305.62L112.062 306.78C111.462 308.6 110.842 310.8 110.622 311.92C110.562 312.22 110.502 312.7 110.502 312.88C110.502 313.1 110.502 313.46 110.522 313.78L107.722 313.96C107.322 312.62 106.922 310.1 106.922 307.38C106.922 304.32 107.502 300.98 107.702 299.5C107.782 298.9 107.922 298 107.942 297.24L111.322 297.52Z" fill="white"/>
<path d="M151.96 296.3H155.32C155.14 299.8 154.88 309.44 146.78 314.74C146.26 313.98 145.32 313.08 144.3 312.4C152.26 307.78 151.82 298.92 151.96 296.3ZM155.22 296.9C155.28 298.74 155.62 308.36 163.8 312.24C162.86 312.94 162 313.92 161.56 314.72C152.86 310.32 152.58 299.38 152.4 297.2L155.22 296.9ZM173.699 297.28C173.559 297.88 173.399 298.64 173.279 299.2C173.059 300.22 172.819 301.22 172.639 302.12C171.999 304.96 170.279 311.06 168.279 314.28L165.119 313.02C167.539 309.74 168.999 304.48 169.559 301.94C169.939 300.02 170.139 298.36 170.099 296.9L173.699 297.28ZM180.599 299.12C181.819 300.92 183.459 304.68 184.039 306.62L180.939 308.04C180.459 305.72 179.119 302.18 177.679 300.34L180.599 299.12ZM165.079 301.22C165.859 301.28 166.619 301.24 167.419 301.22C169.079 301.18 172.719 300.76 174.279 300.76C176.579 300.76 178.099 301.84 178.099 304.84C178.099 307.18 177.839 310.46 176.979 312.22C176.299 313.66 175.119 314.16 173.499 314.16C172.719 314.16 171.779 314.04 171.059 313.88L170.539 310.7C171.279 310.9 172.479 311.12 172.979 311.12C173.619 311.12 174.079 310.9 174.339 310.36C174.839 309.36 175.079 307.02 175.079 305.16C175.079 303.7 174.479 303.52 173.239 303.52C172.139 303.52 168.859 303.94 167.819 304.1C167.179 304.2 166.019 304.36 165.359 304.48L165.079 301.22ZM179.899 296.42C180.399 297.16 181.099 298.46 181.459 299.16L179.559 299.96C179.139 299.14 178.559 297.96 178.019 297.18L179.899 296.42ZM182.359 295.46C182.879 296.22 183.599 297.5 183.939 298.18L182.059 298.98C181.659 298.16 181.019 296.98 180.479 296.22L182.359 295.46Z" fill="white"/>
<path d="M133.019 315V293.202H127.181V288.666C128.329 288.638 129.365 288.54 130.289 288.372C131.213 288.176 132.039 287.84 132.767 287.364C133.495 286.86 134.125 286.16 134.657 285.264H139.025V315H133.019Z" fill="white"/>
<path d="M71.9262 315.294C70.4982 315.294 69.1262 315.126 67.8102 314.79C66.4942 314.454 65.2902 313.922 64.1982 313.194C63.1062 312.466 62.1962 311.542 61.4682 310.422C60.7402 309.274 60.2922 307.902 60.1242 306.306H66.0882C66.2842 307.09 66.6622 307.748 67.2222 308.28C67.8102 308.784 68.5102 309.148 69.3222 309.372C70.1622 309.596 71.0442 309.708 71.9682 309.708C72.5842 309.708 73.1862 309.652 73.7742 309.54C74.3902 309.428 74.9362 309.232 75.4122 308.952C75.9162 308.672 76.3082 308.294 76.5882 307.818C76.8682 307.342 77.0082 306.74 77.0082 306.012C77.0082 305.34 76.8822 304.78 76.6302 304.332C76.3782 303.884 76.0422 303.52 75.6222 303.24C75.2022 302.96 74.6982 302.764 74.1102 302.652C73.5502 302.54 72.9482 302.484 72.3042 302.484H68.8602V297.36H71.1702C71.8982 297.36 72.5562 297.29 73.1442 297.15C73.7322 296.982 74.2222 296.758 74.6142 296.478C75.0342 296.17 75.3562 295.806 75.5802 295.386C75.8042 294.938 75.9162 294.434 75.9162 293.874C75.9162 293.034 75.7342 292.376 75.3702 291.9C75.0062 291.396 74.5022 291.032 73.8582 290.808C73.2142 290.584 72.4722 290.472 71.6322 290.472C70.8482 290.472 70.1062 290.598 69.4062 290.85C68.7342 291.074 68.1742 291.41 67.7262 291.858C67.2782 292.306 66.9842 292.852 66.8442 293.496H61.0062C61.1742 291.984 61.5802 290.696 62.2242 289.632C62.8682 288.54 63.6942 287.644 64.7022 286.944C65.7102 286.244 66.8302 285.74 68.0622 285.432C69.3222 285.096 70.6242 284.928 71.9682 284.928C73.2562 284.928 74.4882 285.068 75.6642 285.348C76.8402 285.628 77.8902 286.09 78.8142 286.734C79.7662 287.35 80.5222 288.176 81.0822 289.212C81.6422 290.248 81.9222 291.494 81.9222 292.95C81.9222 293.846 81.7682 294.686 81.4602 295.47C81.1802 296.254 80.7602 296.954 80.2002 297.57C79.6682 298.158 79.0382 298.648 78.3102 299.04C79.4022 299.348 80.2982 299.852 80.9982 300.552C81.6982 301.252 82.2162 302.078 82.5522 303.03C82.9162 303.982 83.0982 305.004 83.0982 306.096C83.0982 307.888 82.7622 309.386 82.0902 310.59C81.4462 311.766 80.5782 312.704 79.4862 313.404C78.3942 314.076 77.1902 314.566 75.8742 314.874C74.5582 315.154 73.2422 315.294 71.9262 315.294Z" fill="white"/>
<path d="M391.955 235V231.62H382.621V228.786L391.175 216.592H395.673V228.24H397.753V231.62H395.673V235H391.955ZM386.885 228.24H391.955V220.7L386.885 228.24ZM401.463 235L408.483 220.05H399.695V216.592H412.721V219.374L405.597 235H401.463Z" fill="#E5005A"/>
<path d="M420.672 235.128C420.021 235.128 419.419 235.021 418.864 234.808C418.309 234.584 417.84 234.243 417.456 233.784C417.083 233.325 416.843 232.749 416.736 232.056H418.976C419.093 232.376 419.323 232.621 419.664 232.792C420.005 232.952 420.368 233.032 420.752 233.032C421.189 233.032 421.557 232.947 421.856 232.776C422.165 232.595 422.411 232.36 422.592 232.072C422.773 231.773 422.907 231.448 422.992 231.096C423.077 230.733 423.125 230.365 423.136 229.992C423.136 229.949 423.136 229.907 423.136 229.864C423.136 229.811 423.136 229.763 423.136 229.72C422.901 230.061 422.619 230.328 422.288 230.52C421.957 230.712 421.616 230.845 421.264 230.92C420.912 230.995 420.576 231.032 420.256 231.032C419.584 231.032 418.976 230.893 418.432 230.616C417.888 230.328 417.456 229.917 417.136 229.384C416.827 228.851 416.672 228.205 416.672 227.448C416.672 226.605 416.864 225.896 417.248 225.32C417.632 224.733 418.139 224.291 418.768 223.992C419.408 223.693 420.107 223.544 420.864 223.544C421.696 223.544 422.395 223.709 422.96 224.04C423.525 224.371 423.973 224.819 424.304 225.384C424.635 225.949 424.869 226.579 425.008 227.272C425.157 227.965 425.232 228.675 425.232 229.4C425.232 230.189 425.147 230.931 424.976 231.624C424.816 232.307 424.555 232.915 424.192 233.448C423.84 233.971 423.371 234.381 422.784 234.68C422.208 234.979 421.504 235.128 420.672 235.128ZM420.768 229.112C421.184 229.112 421.525 229.027 421.792 228.856C422.069 228.685 422.277 228.472 422.416 228.216C422.565 227.949 422.64 227.672 422.64 227.384C422.64 227.021 422.555 226.712 422.384 226.456C422.224 226.189 422.005 225.987 421.728 225.848C421.461 225.699 421.152 225.624 420.8 225.624C420.416 225.624 420.085 225.704 419.808 225.864C419.531 226.024 419.317 226.237 419.168 226.504C419.019 226.771 418.944 227.059 418.944 227.368C418.944 227.859 419.099 228.275 419.408 228.616C419.728 228.947 420.181 229.112 420.768 229.112Z" fill="#E5005A"/>
<path d="M412.949 235.208C412.568 235.208 412.264 235.095 412.039 234.87C411.831 234.627 411.727 234.333 411.727 233.986C411.727 233.622 411.84 233.327 412.065 233.102C412.29 232.877 412.585 232.764 412.949 232.764C413.296 232.764 413.582 232.877 413.807 233.102C414.032 233.327 414.145 233.622 414.145 233.986C414.145 234.333 414.032 234.627 413.807 234.87C413.599 235.095 413.313 235.208 412.949 235.208Z" fill="#E5005A"/>
<path d="M428.654 235L436.014 223.672H438.318L430.99 235H428.654ZM437.118 235.112C436.574 235.112 436.094 235 435.678 234.776C435.273 234.541 434.953 234.216 434.718 233.8C434.494 233.384 434.382 232.893 434.382 232.328C434.382 231.763 434.499 231.272 434.734 230.856C434.969 230.44 435.294 230.12 435.71 229.896C436.126 229.661 436.606 229.544 437.15 229.544C437.683 229.544 438.153 229.656 438.558 229.88C438.963 230.104 439.278 230.424 439.502 230.84C439.726 231.245 439.838 231.736 439.838 232.312C439.838 232.877 439.721 233.373 439.486 233.8C439.262 234.216 438.942 234.541 438.526 234.776C438.121 235 437.651 235.112 437.118 235.112ZM437.118 233.432C437.353 233.432 437.545 233.384 437.694 233.288C437.843 233.181 437.95 233.043 438.014 232.872C438.089 232.701 438.126 232.525 438.126 232.344C438.126 232.163 438.089 231.992 438.014 231.832C437.95 231.661 437.843 231.523 437.694 231.416C437.545 231.309 437.353 231.256 437.118 231.256C436.745 231.256 436.478 231.373 436.318 231.608C436.158 231.832 436.078 232.083 436.078 232.36C436.089 232.637 436.174 232.888 436.334 233.112C436.494 233.325 436.755 233.432 437.118 233.432ZM429.902 229.112C429.347 229.112 428.867 229 428.462 228.776C428.057 228.541 427.737 228.216 427.502 227.8C427.278 227.384 427.166 226.899 427.166 226.344C427.166 225.768 427.278 225.272 427.502 224.856C427.737 224.44 428.062 224.12 428.478 223.896C428.894 223.661 429.374 223.544 429.918 223.544C430.462 223.544 430.931 223.656 431.326 223.88C431.731 224.104 432.046 224.424 432.27 224.84C432.494 225.245 432.606 225.736 432.606 226.312C432.606 226.877 432.494 227.373 432.27 227.8C432.046 228.216 431.726 228.541 431.31 228.776C430.905 229 430.435 229.112 429.902 229.112ZM429.902 227.416C430.137 227.416 430.329 227.368 430.478 227.272C430.627 227.165 430.734 227.032 430.798 226.872C430.862 226.701 430.894 226.52 430.894 226.328C430.894 226.147 430.857 225.976 430.782 225.816C430.718 225.645 430.611 225.507 430.462 225.4C430.323 225.293 430.137 225.24 429.902 225.24C429.529 225.24 429.257 225.357 429.086 225.592C428.926 225.816 428.851 226.072 428.862 226.36C428.862 226.637 428.942 226.883 429.102 227.096C429.273 227.309 429.539 227.416 429.902 227.416Z" fill="#E5005A"/>
<path d="M341.299 192.168H346.995V194.312H341.299V192.168ZM341.411 196.76H346.819V198.888H341.411V196.76ZM340.867 202.232C342.451 201.896 344.835 201.272 347.059 200.664L347.363 202.696C345.347 203.304 343.155 203.928 341.443 204.424L340.867 202.232ZM349.715 196.12V196.76H353.331V196.12H349.715ZM349.715 198.504V199.128H353.331V198.504H349.715ZM349.715 193.752V194.392H353.331V193.752H349.715ZM347.555 191.88H355.603V201.016H347.555V191.88ZM351.507 200.184H353.731V203.912C353.731 204.424 353.763 204.472 353.955 204.472C354.019 204.472 354.211 204.472 354.291 204.472C354.515 204.472 354.579 204.216 354.611 202.632C355.043 202.984 355.971 203.336 356.547 203.48C356.355 205.8 355.827 206.456 354.547 206.456C354.227 206.456 353.827 206.456 353.523 206.456C351.859 206.456 351.507 205.8 351.507 203.928V200.184ZM348.611 200.776H350.883C350.659 203.544 350.051 205.528 346.323 206.632C346.099 206.056 345.523 205.16 345.059 204.712C348.147 203.976 348.435 202.696 348.611 200.776ZM343.075 193.016H345.315V202.408L343.075 202.728V193.016ZM358.003 193.4H372.419V195.624H358.003V193.4ZM363.363 198.648H371.731V200.792H363.363V198.648ZM362.755 203.96H372.339V206.104H362.755V203.96ZM366.435 196.232H368.787V205.096H366.435V196.232ZM362.931 191.304L365.363 191.88C364.131 195.848 362.083 199.816 358.531 202.184C358.291 201.528 357.779 200.488 357.427 199.912C360.323 198.104 362.131 194.504 362.931 191.304ZM359.715 198.072H362.067V206.504H359.715V198.072ZM381.286 192.04C381.126 192.712 381.046 193.192 380.966 193.64C380.774 194.776 380.006 200.264 380.006 201.816C380.006 203.016 380.774 203.592 382.198 203.592C384.326 203.592 385.366 202.584 385.366 201.464C385.366 200.376 384.758 199.432 383.782 198.456L386.502 197.88C387.542 199.288 388.006 200.424 388.006 201.784C388.006 204.216 385.814 206.12 382.118 206.12C379.398 206.12 377.606 204.952 377.606 202.232C377.606 200.632 378.374 195.72 378.534 193.48C378.598 192.632 378.598 192.296 378.566 191.896L381.286 192.04ZM375.254 193.944C376.678 194.424 378.694 194.632 380.438 194.632C381.686 194.632 382.838 194.536 383.558 194.408L383.478 196.712C382.566 196.808 381.718 196.872 380.358 196.872C378.63 196.872 376.662 196.6 375.142 196.168L375.254 193.944ZM374.934 197.912C376.758 198.52 378.598 198.648 380.294 198.648C381.206 198.648 382.438 198.568 383.43 198.456L383.366 200.744C382.582 200.824 381.67 200.888 380.71 200.888C378.358 200.888 376.262 200.632 374.806 200.248L374.934 197.912ZM398.258 194.904H403.314V197.048H398.258V194.904ZM402.658 194.904H404.818C404.818 194.904 404.802 195.608 404.802 195.864C404.674 202.376 404.562 204.776 404.082 205.496C403.698 206.072 403.346 206.264 402.818 206.392C402.354 206.504 401.698 206.504 400.978 206.488C400.946 205.864 400.706 204.952 400.37 204.344C400.898 204.408 401.346 204.408 401.634 204.408C401.858 204.408 402.002 204.344 402.146 204.104C402.45 203.656 402.562 201.48 402.658 195.384V194.904ZM399.506 191.496H401.65C401.634 198.824 401.634 203.672 398.53 206.552C398.226 206.008 397.506 205.192 396.994 204.856C399.698 202.344 399.49 198.328 399.506 191.496ZM390.578 201.752H397.858V203.336H390.578V201.752ZM390.338 199.592H398.05V201.24H390.338V199.592ZM390.162 192.344H398.242V194.024H390.162V192.344ZM393.074 195.816H395.202V204.824H393.074V195.816ZM391.394 191.336H393.49V194.936H391.394V191.336ZM394.706 191.336H396.834V194.936H394.706V191.336ZM389.986 204.168C392.066 204.056 395.202 203.816 398.098 203.576L398.114 205.368C395.33 205.64 392.338 205.896 390.21 206.072L389.986 204.168ZM392.45 196.696V197.576H395.826V196.696H392.45ZM390.482 195.176H397.922V199.096H390.482V195.176ZM406.818 192.008H411.938V193.944H406.818V192.008ZM413.33 200.28H419.602V202.184H413.33V200.28ZM406.562 196.936H412.482V198.952H406.562V196.936ZM409.058 197.768H411.25V204.072C411.25 205.08 411.106 205.688 410.466 206.056C409.842 206.408 409.058 206.456 408.05 206.456C407.986 205.816 407.682 204.856 407.394 204.232C407.938 204.264 408.594 204.264 408.802 204.264C408.994 204.248 409.058 204.216 409.058 204.024V197.768ZM418.866 200.28H421.202C421.202 200.28 421.17 200.84 421.138 201.128C420.898 203.768 420.626 205.032 420.162 205.544C419.778 205.976 419.394 206.12 418.898 206.2C418.482 206.264 417.826 206.28 417.09 206.264C417.058 205.608 416.818 204.712 416.466 204.136C416.978 204.184 417.458 204.2 417.714 204.2C417.938 204.2 418.066 204.168 418.226 204.008C418.482 203.752 418.706 202.824 418.866 200.568V200.28ZM415.554 198.936H417.858C417.618 202.248 417.01 204.968 413.122 206.536C412.866 205.976 412.274 205.16 411.794 204.728C415.106 203.528 415.362 201.464 415.554 198.936ZM407.074 195.72L408.53 194.232C409.794 194.648 411.602 195.416 412.562 196.008L410.994 197.656C410.162 197.064 408.386 196.216 407.074 195.72ZM411.938 196.936H412.226L412.53 196.84L413.922 197.288C413.698 198.808 413.33 200.52 412.93 201.672L411.394 200.952C411.618 199.992 411.842 198.472 411.938 197.24V196.936ZM418.338 193.864L420.77 194.216C419.666 197.224 417.314 198.744 414.098 199.592C413.826 199.08 413.106 198.12 412.658 197.672C415.618 197.16 417.682 196.04 418.338 193.864ZM415.266 191.304L417.426 191.912C416.61 193.64 415.282 195.336 414.082 196.392C413.634 196.024 412.722 195.4 412.194 195.112C413.442 194.216 414.626 192.76 415.266 191.304ZM415.778 194.312C416.85 195.96 419.01 197.144 421.778 197.624C421.282 198.088 420.626 199 420.322 199.592C417.346 198.856 415.218 197.272 413.842 194.92L415.778 194.312ZM408.866 197.64L410.338 198.216C409.714 200.344 408.69 202.728 407.266 203.96C407.074 203.288 406.578 202.328 406.226 201.688C407.394 200.744 408.386 199.112 408.866 197.64ZM415.394 192.904H421.314V194.808H414.482L415.394 192.904ZM411.378 192.008H411.874L412.226 191.928L413.698 192.84C412.994 194.04 411.714 195.368 410.546 196.2C410.146 195.848 409.49 195.368 409.042 195.096C410.018 194.376 410.994 193.192 411.378 192.408V192.008ZM427.706 192.184C427.594 192.936 427.498 193.912 427.466 194.616C427.386 196.296 427.274 199.752 427.274 201.512C427.274 203.048 428.154 203.528 429.242 203.528C431.722 203.528 433.402 202.072 434.57 200.28L436.33 202.44C435.338 203.976 432.954 206.184 429.226 206.184C426.426 206.184 424.682 204.92 424.682 202.12C424.682 200.104 424.826 195.816 424.826 194.616C424.826 193.752 424.746 192.872 424.586 192.152L427.706 192.184ZM436.814 193.784C437.454 193.768 438.158 193.736 438.462 193.704C439.966 193.576 442.382 193.384 445.31 193.128C446.91 193 448.798 192.888 449.966 192.84L449.982 195.336C449.15 195.352 447.79 195.352 446.91 195.528C445.182 195.912 443.694 197.784 443.694 199.688C443.694 202.04 445.902 202.968 448.67 203.128L447.758 205.816C444.19 205.544 441.134 203.608 441.134 200.2C441.134 198.008 442.302 196.312 443.166 195.528C441.79 195.672 438.974 195.992 437.054 196.424L436.814 193.784ZM455.359 193.416C455.231 194.088 455.135 195.128 455.135 195.592C455.135 196.648 455.135 197.688 455.231 198.76C455.423 200.856 455.743 202.328 456.671 202.328C457.407 202.328 457.967 200.328 458.207 199.24L460.159 201.64C459.039 204.472 458.015 205.464 456.623 205.464C454.719 205.464 453.151 203.848 452.703 199.48C452.543 197.96 452.527 196.12 452.527 195.112C452.527 194.632 452.495 193.944 452.383 193.384L455.359 193.416ZM463.183 193.72C464.751 195.56 466.015 199.896 466.159 202.2L463.583 203.192C463.359 200.776 462.575 196.568 460.703 194.52L463.183 193.72ZM470.126 192.584C470.622 192.648 471.23 192.68 471.758 192.68C472.622 192.68 475.822 192.632 476.766 192.552C477.534 192.488 477.982 192.424 478.19 192.36L479.39 194.072C478.974 194.328 478.558 194.568 478.158 194.856C477.262 195.464 475.854 196.616 474.974 197.288C475.39 197.208 475.71 197.192 476.094 197.192C478.846 197.192 481.006 198.952 481.006 201.368C481.006 203.864 479.198 206.056 475.054 206.056C472.798 206.056 470.926 205 470.926 203.24C470.926 201.832 472.206 200.52 474.03 200.52C476.254 200.52 477.566 201.992 477.566 203.816L475.294 204.088C475.294 203.048 474.782 202.36 474.046 202.36C473.518 202.36 473.214 202.68 473.214 203C473.214 203.496 473.742 203.848 474.558 203.848C477.246 203.848 478.446 202.888 478.446 201.336C478.446 199.96 477.038 199.096 475.278 199.096C472.942 199.096 471.262 200.504 469.726 202.376L467.966 200.552C468.99 199.752 470.862 198.168 471.806 197.384C472.702 196.648 474.19 195.496 474.958 194.808C474.158 194.824 472.51 194.888 471.646 194.952C471.166 194.984 470.59 195.032 470.206 195.096L470.126 192.584Z" fill="#E5005A"/>
</svg>
