<svg width="498" height="399" viewBox="0 0 498 399" fill="none" xmlns="http://www.w3.org/2000/svg">
<path d="M211 311C211 359.601 171.601 399 123 399C74.3989 399 35 359.601 35 311C35 262.399 74.3989 223 123 223C171.601 223 211 262.399 211 311Z" fill="#1492D9"/>
<path d="M498 215C498 311.098 420.098 389 324 389C227.902 389 150 311.098 150 215C150 118.902 227.902 41 324 41C420.098 41 498 118.902 498 215Z" fill="#F5F5F5"/>
<path fill-rule="evenodd" clip-rule="evenodd" d="M241.901 368.452C187.202 339.126 150 281.407 150 215C150 148.206 187.636 90.2018 242.859 61.0381L323.996 215L241.901 368.452Z" fill="#1492D9"/>
<path fill-rule="evenodd" clip-rule="evenodd" d="M258.715 91.1221L324.002 215L230.256 111.018C238.845 103.269 248.398 96.5702 258.715 91.1221Z" fill="#C9E3F2"/>
<path fill-rule="evenodd" clip-rule="evenodd" d="M257.936 338.463C213.929 314.866 184 268.428 184 215C184 173.703 201.88 136.583 230.322 110.958L323.987 215L257.936 338.463Z" fill="#E3EFF6"/>
<path fill-rule="evenodd" clip-rule="evenodd" d="M324 41V214.999L349.694 387.116C433.609 374.696 498 302.368 498 215C498 118.902 420.098 41 324 41Z" fill="#EFCAD9"/>
<path fill-rule="evenodd" clip-rule="evenodd" d="M241.864 368.433L323.998 215L349.725 387.111C341.33 388.355 332.739 389 323.999 389C294.294 389 266.328 381.557 241.864 368.433Z" fill="#F5ECF0"/>
<path d="M310.194 328.74H322.764V336.54H320.469V330.885H312.384V336.615H310.194V328.74ZM311.319 333.69H321.729V335.835H311.319V333.69ZM315.264 326.175H317.574V340.425H315.264V326.175Z" fill="#E5005A"/>
<path d="M300.295 335.145H302.8V336.525H300.295V335.145ZM299.305 327.495H303.835V329.055H299.305V327.495ZM299.08 330.84H308.14V332.505H299.08V330.84ZM300.79 333.03H303.73V338.625H300.79V337.17H302.065V334.5H300.79V333.03ZM299.5 333.03H301.135V339.45H299.5V333.03ZM300.685 326.235H302.53V328.53H300.685V326.235ZM306.43 332.94L308.155 333.315C307.255 336.45 305.56 338.94 303.265 340.47C303.04 340.11 302.425 339.39 302.065 339.06C304.225 337.815 305.71 335.64 306.43 332.94ZM299.53 329.235L300.895 328.905C301.09 329.46 301.225 330.21 301.24 330.705L299.8 331.065C299.8 330.585 299.695 329.82 299.53 329.235ZM305.425 327.585L306.835 326.85C307.42 327.57 307.99 328.545 308.245 329.22L306.76 330.06C306.535 329.385 305.965 328.335 305.425 327.585ZM302.095 328.92L303.7 329.205C303.46 329.88 303.25 330.525 303.085 330.99L301.765 330.705C301.885 330.18 302.035 329.445 302.095 328.92ZM294.1 326.7H299.38V328.605H294.1V326.7ZM295.48 329.94H298.06V331.68H295.48V329.94ZM295.48 332.985H298.06V334.725H295.48V332.985ZM294.64 327.75H296.395V337.065H294.64V327.75ZM296.995 327.735H298.795V340.425H296.995V327.735ZM293.785 336.615C294.88 336.48 296.455 336.21 298 335.955L298.15 337.77C296.785 338.07 295.345 338.355 294.145 338.595L293.785 336.615ZM304 326.175H305.905C305.815 332.31 306.19 337.89 306.685 337.905C306.835 337.905 306.925 337.29 306.97 336.21C307.27 336.645 308.05 337.245 308.35 337.44C307.93 339.945 307.105 340.425 306.58 340.425C304.405 340.395 304.06 334.845 304 326.175Z" fill="#E5005A"/>
<path d="M286.6 326.445H288.76V340.425H286.6V326.445ZM283 329.73H292.465V331.845H283V329.73ZM289.12 330.39C289.84 332.865 291.25 335.475 292.945 336.96C292.42 337.35 291.685 338.13 291.325 338.715C289.555 336.885 288.235 333.9 287.41 330.855L289.12 330.39ZM286.33 330.48L288.19 331.02C287.23 334.065 285.7 336.96 283.795 338.79C283.42 338.265 282.685 337.47 282.19 337.065C283.975 335.595 285.55 332.955 286.33 330.48ZM281.8 326.25L283.975 326.955C282.925 329.595 281.185 332.46 279.4 334.215C279.175 333.66 278.53 332.43 278.14 331.875C279.595 330.54 280.99 328.41 281.8 326.25ZM280.315 330.765L282.445 328.635L282.475 328.665V340.395H280.315V330.765Z" fill="#E5005A"/>
<path d="M306.972 69.1139H308.876V78.8859H306.972V69.1139ZM302.324 74.4479L310.584 71.2139L311.354 72.9779L303.122 76.2399L302.324 74.4479ZM304.004 70.6959H306.02V79.3199C306.02 80.1879 306.132 80.2859 307.014 80.2859C307.406 80.2859 309.002 80.2859 309.408 80.2859C310.206 80.2859 310.36 79.9779 310.5 78.4099C310.948 78.7319 311.76 79.0679 312.32 79.1939C312.068 81.3779 311.48 82.1059 309.604 82.1059C309.086 82.1059 307.294 82.1059 306.818 82.1059C304.606 82.1059 304.004 81.4899 304.004 79.3199V70.6959ZM309.898 71.5219H309.8L310.122 71.3119L310.472 71.0599L311.858 71.5779L311.788 71.8859C311.774 74.2799 311.76 75.7919 311.704 76.3939C311.662 77.1359 311.424 77.5699 310.934 77.8219C310.5 78.0599 309.8 78.0879 309.254 78.0739C309.226 77.5139 309.058 76.6459 308.834 76.2119C309.086 76.2259 309.422 76.2399 309.576 76.2399C309.73 76.2399 309.814 76.1979 309.856 75.9739C309.884 75.7359 309.898 74.5879 309.898 71.5219ZM301.764 69.0859L303.64 69.6879C302.758 72.0539 301.288 74.6579 299.776 76.2679C299.594 75.7919 299.048 74.6719 298.726 74.1679C299.93 72.9499 301.092 71.0179 301.764 69.0859ZM300.392 73.1039L302.394 71.1019V71.1159V82.3159H300.392V73.1039Z" fill="#837978"/>
<path d="M292.827 71.382C292.617 72.796 292.351 74.42 291.819 76.17C290.993 78.97 289.733 80.846 288.081 80.846C286.345 80.846 285.029 78.97 285.029 76.576C285.029 73.244 287.899 70.416 291.637 70.416C295.207 70.416 297.461 72.88 297.461 76.058C297.461 79.012 295.725 81.168 292.085 81.784L290.797 79.768C291.385 79.698 291.763 79.614 292.169 79.516C293.947 79.082 295.137 77.836 295.137 75.988C295.137 73.818 293.863 72.404 291.595 72.404C288.683 72.404 287.227 74.77 287.227 76.352C287.227 77.57 287.647 78.2 288.137 78.2C288.697 78.2 289.117 77.346 289.621 75.722C290.041 74.406 290.349 72.782 290.489 71.312L292.827 71.382Z" fill="#837978"/>
<path d="M274.198 70.1355C274.702 70.1775 275.15 70.1915 275.654 70.1915C276.242 70.1915 278.72 70.0655 279.602 69.9675C280.134 69.9115 280.484 69.8415 280.694 69.7715L282.024 71.3395C281.674 71.5635 281.058 71.9695 280.722 72.2495C279.742 73.0055 278.734 73.8595 277.866 74.5315C279.602 74.3635 281.814 74.2375 283.34 74.2375L283.354 76.2395C282.024 76.1555 280.582 76.1415 279.714 76.2535C278.482 76.4215 277.558 77.1915 277.558 78.2415C277.558 79.1795 278.272 79.5855 279.518 79.7115C280.274 79.7815 281.184 79.7815 281.716 79.7395L281.268 81.9795C277.586 82.1335 275.374 81.0415 275.374 78.6055C275.374 77.9335 275.64 77.1495 276.046 76.6455C274.884 76.7295 273.498 76.9395 272.238 77.1635L272.042 75.1055C272.784 75.0355 273.778 74.9095 274.52 74.8255C275.612 74.1395 277.222 72.7535 278.076 71.9835C277.53 72.0255 276.214 72.0955 275.654 72.1515C275.318 72.1795 274.814 72.2355 274.296 72.2915L274.198 70.1355Z" fill="#837978"/>
<path d="M287.443 365.208C286.386 365.208 285.407 365.034 284.505 364.688C283.604 364.324 282.841 363.769 282.217 363.024C281.611 362.278 281.221 361.342 281.047 360.216H284.687C284.878 360.736 285.251 361.134 285.805 361.412C286.36 361.672 286.949 361.802 287.573 361.802C288.284 361.802 288.882 361.663 289.367 361.386C289.87 361.091 290.269 360.71 290.563 360.242C290.858 359.756 291.075 359.228 291.213 358.656C291.352 358.066 291.43 357.468 291.447 356.862C291.447 356.792 291.447 356.723 291.447 356.654C291.447 356.567 291.447 356.489 291.447 356.42C291.066 356.974 290.607 357.408 290.069 357.72C289.532 358.032 288.977 358.248 288.405 358.37C287.833 358.491 287.287 358.552 286.767 358.552C285.675 358.552 284.687 358.326 283.803 357.876C282.919 357.408 282.217 356.74 281.697 355.874C281.195 355.007 280.943 353.958 280.943 352.728C280.943 351.358 281.255 350.206 281.879 349.27C282.503 348.316 283.327 347.597 284.349 347.112C285.389 346.626 286.525 346.384 287.755 346.384C289.107 346.384 290.243 346.652 291.161 347.19C292.08 347.727 292.808 348.455 293.345 349.374C293.883 350.292 294.264 351.315 294.489 352.442C294.732 353.568 294.853 354.721 294.853 355.9C294.853 357.182 294.715 358.387 294.437 359.514C294.177 360.623 293.753 361.611 293.163 362.478C292.591 363.327 291.829 363.994 290.875 364.48C289.939 364.965 288.795 365.208 287.443 365.208ZM287.599 355.432C288.275 355.432 288.83 355.293 289.263 355.016C289.714 354.738 290.052 354.392 290.277 353.976C290.52 353.542 290.641 353.092 290.641 352.624C290.641 352.034 290.503 351.532 290.225 351.116C289.965 350.682 289.61 350.353 289.159 350.128C288.726 349.885 288.223 349.764 287.651 349.764C287.027 349.764 286.49 349.894 286.039 350.154C285.589 350.414 285.242 350.76 284.999 351.194C284.757 351.627 284.635 352.095 284.635 352.598C284.635 353.395 284.887 354.071 285.389 354.626C285.909 355.163 286.646 355.432 287.599 355.432Z" fill="#E5005A"/>
<path d="M304.896 365.128C304.362 365.128 303.866 365.064 303.408 364.936C302.949 364.797 302.538 364.589 302.176 364.312C301.824 364.035 301.525 363.683 301.28 363.256C301.045 362.829 300.885 362.323 300.8 361.736H303.056C303.12 361.949 303.237 362.152 303.408 362.344C303.578 362.536 303.792 362.691 304.048 362.808C304.314 362.925 304.613 362.984 304.944 362.984C305.349 362.984 305.69 362.915 305.968 362.776C306.245 362.627 306.458 362.424 306.608 362.168C306.757 361.912 306.832 361.608 306.832 361.256C306.832 360.723 306.661 360.296 306.32 359.976C305.989 359.645 305.52 359.48 304.912 359.48C304.56 359.48 304.229 359.544 303.92 359.672C303.621 359.789 303.333 359.955 303.056 360.168H301.104L301.312 353.672H308.768V355.768H303.472L303.344 358.072C303.664 357.848 304.032 357.693 304.448 357.608C304.874 357.512 305.296 357.469 305.712 357.48C306.448 357.501 307.072 357.661 307.584 357.96C308.096 358.259 308.485 358.675 308.752 359.208C309.029 359.741 309.168 360.365 309.168 361.08C309.168 361.944 308.976 362.68 308.592 363.288C308.218 363.896 307.706 364.355 307.056 364.664C306.416 364.973 305.696 365.128 304.896 365.128Z" fill="#E5005A"/>
<path d="M296.949 365.208C296.567 365.208 296.264 365.095 296.039 364.87C295.831 364.627 295.727 364.332 295.727 363.986C295.727 363.622 295.839 363.327 296.065 363.102C296.29 362.876 296.585 362.764 296.949 362.764C297.295 362.764 297.581 362.876 297.807 363.102C298.032 363.327 298.145 363.622 298.145 363.986C298.145 364.332 298.032 364.627 297.807 364.87C297.599 365.095 297.313 365.208 296.949 365.208Z" fill="#E5005A"/>
<path d="M312.654 365L320.014 353.672H322.318L314.99 365H312.654ZM321.118 365.112C320.574 365.112 320.094 365 319.678 364.776C319.273 364.541 318.953 364.216 318.718 363.8C318.494 363.384 318.382 362.893 318.382 362.328C318.382 361.763 318.499 361.272 318.734 360.856C318.969 360.44 319.294 360.12 319.71 359.896C320.126 359.661 320.606 359.544 321.15 359.544C321.683 359.544 322.153 359.656 322.558 359.88C322.963 360.104 323.278 360.424 323.502 360.84C323.726 361.245 323.838 361.736 323.838 362.312C323.838 362.877 323.721 363.373 323.486 363.8C323.262 364.216 322.942 364.541 322.526 364.776C322.121 365 321.651 365.112 321.118 365.112ZM321.118 363.432C321.353 363.432 321.545 363.384 321.694 363.288C321.843 363.181 321.95 363.043 322.014 362.872C322.089 362.701 322.126 362.525 322.126 362.344C322.126 362.163 322.089 361.992 322.014 361.832C321.95 361.661 321.843 361.523 321.694 361.416C321.545 361.309 321.353 361.256 321.118 361.256C320.745 361.256 320.478 361.373 320.318 361.608C320.158 361.832 320.078 362.083 320.078 362.36C320.089 362.637 320.174 362.888 320.334 363.112C320.494 363.325 320.755 363.432 321.118 363.432ZM313.902 359.112C313.347 359.112 312.867 359 312.462 358.776C312.057 358.541 311.737 358.216 311.502 357.8C311.278 357.384 311.166 356.899 311.166 356.344C311.166 355.768 311.278 355.272 311.502 354.856C311.737 354.44 312.062 354.12 312.478 353.896C312.894 353.661 313.374 353.544 313.918 353.544C314.462 353.544 314.931 353.656 315.326 353.88C315.731 354.104 316.046 354.424 316.27 354.84C316.494 355.245 316.606 355.736 316.606 356.312C316.606 356.877 316.494 357.373 316.27 357.8C316.046 358.216 315.726 358.541 315.31 358.776C314.905 359 314.435 359.112 313.902 359.112ZM313.902 357.416C314.137 357.416 314.329 357.368 314.478 357.272C314.627 357.165 314.734 357.032 314.798 356.872C314.862 356.701 314.894 356.52 314.894 356.328C314.894 356.147 314.857 355.976 314.782 355.816C314.718 355.645 314.611 355.507 314.462 355.4C314.323 355.293 314.137 355.24 313.902 355.24C313.529 355.24 313.257 355.357 313.086 355.592C312.926 355.816 312.851 356.072 312.862 356.36C312.862 356.637 312.942 356.883 313.102 357.096C313.273 357.309 313.539 357.416 313.902 357.416Z" fill="#E5005A"/>
<path d="M281.778 103.184C281.011 103.184 280.268 103.1 279.547 102.931C278.826 102.747 278.167 102.464 277.569 102.08C276.986 101.682 276.519 101.16 276.166 100.516C275.829 99.8722 275.66 99.0979 275.66 98.1932C275.66 97.5952 275.744 97.0586 275.913 96.5832C276.097 96.0926 276.358 95.6632 276.695 95.2952C277.048 94.9119 277.469 94.6052 277.96 94.3752C277.546 94.1146 277.209 93.8079 276.948 93.4552C276.687 93.0872 276.496 92.6886 276.373 92.2592C276.25 91.8299 276.189 91.3929 276.189 90.9482C276.189 90.1356 276.35 89.4532 276.672 88.9012C276.994 88.3339 277.423 87.8816 277.96 87.5442C278.497 87.1916 279.102 86.9386 279.777 86.7852C280.452 86.6166 281.134 86.5322 281.824 86.5322C282.529 86.5322 283.212 86.6166 283.871 86.7852C284.53 86.9386 285.128 87.1992 285.665 87.5672C286.202 87.9199 286.631 88.3876 286.953 88.9702C287.275 89.5376 287.436 90.2276 287.436 91.0402C287.436 91.4542 287.367 91.8759 287.229 92.3052C287.106 92.7192 286.907 93.1026 286.631 93.4552C286.37 93.8079 286.033 94.1069 285.619 94.3522C286.11 94.5669 286.531 94.8582 286.884 95.2262C287.237 95.5942 287.505 96.0312 287.689 96.5372C287.873 97.0432 287.965 97.6106 287.965 98.2392C287.965 99.1439 287.789 99.9106 287.436 100.539C287.083 101.168 286.608 101.682 286.01 102.08C285.412 102.464 284.745 102.747 284.009 102.931C283.288 103.1 282.545 103.184 281.778 103.184ZM281.801 100.217C282.138 100.217 282.476 100.179 282.813 100.102C283.15 100.026 283.457 99.9029 283.733 99.7342C284.009 99.5502 284.224 99.3279 284.377 99.0672C284.546 98.7912 284.63 98.4539 284.63 98.0552C284.63 97.5646 284.507 97.1659 284.262 96.8592C284.017 96.5372 283.679 96.2996 283.25 96.1462C282.836 95.9776 282.353 95.8932 281.801 95.8932C281.264 95.8932 280.774 95.9776 280.329 96.1462C279.9 96.2996 279.562 96.5372 279.317 96.8592C279.072 97.1659 278.949 97.5646 278.949 98.0552C278.949 98.4539 279.033 98.7912 279.202 99.0672C279.371 99.3279 279.585 99.5502 279.846 99.7342C280.122 99.9029 280.429 100.026 280.766 100.102C281.103 100.179 281.448 100.217 281.801 100.217ZM281.824 93.3862C282.315 93.3862 282.729 93.3096 283.066 93.1562C283.419 92.9876 283.687 92.7576 283.871 92.4662C284.07 92.1596 284.17 91.8222 284.17 91.4542C284.17 90.9942 284.07 90.6186 283.871 90.3272C283.672 90.0206 283.388 89.7906 283.02 89.6372C282.667 89.4686 282.246 89.3842 281.755 89.3842C281.28 89.3842 280.866 89.4686 280.513 89.6372C280.176 89.7906 279.907 90.0129 279.708 90.3042C279.524 90.5956 279.432 90.9482 279.432 91.3622C279.432 91.7762 279.532 92.1366 279.731 92.4432C279.93 92.7499 280.206 92.9876 280.559 93.1562C280.927 93.3096 281.349 93.3862 281.824 93.3862Z" fill="#837978"/>
<path d="M300.063 103L306.043 93.7964H307.915L301.961 103H300.063ZM306.94 103.091C306.498 103.091 306.108 103 305.77 102.818C305.44 102.628 305.18 102.363 304.99 102.025C304.808 101.687 304.717 101.289 304.717 100.829C304.717 100.37 304.812 99.9714 305.003 99.6334C305.193 99.2954 305.458 99.0354 305.796 98.8534C306.134 98.6627 306.524 98.5674 306.966 98.5674C307.399 98.5674 307.78 98.6584 308.11 98.8404C308.439 99.0224 308.695 99.2824 308.877 99.6204C309.059 99.9497 309.15 100.348 309.15 100.816C309.15 101.276 309.054 101.679 308.864 102.025C308.682 102.363 308.422 102.628 308.084 102.818C307.754 103 307.373 103.091 306.94 103.091ZM306.94 101.726C307.13 101.726 307.286 101.687 307.408 101.609C307.529 101.523 307.616 101.41 307.668 101.271C307.728 101.133 307.759 100.99 307.759 100.842C307.759 100.695 307.728 100.556 307.668 100.426C307.616 100.288 307.529 100.175 307.408 100.088C307.286 100.002 307.13 99.9584 306.94 99.9584C306.636 99.9584 306.42 100.054 306.29 100.244C306.16 100.426 306.095 100.63 306.095 100.855C306.103 101.081 306.173 101.284 306.303 101.466C306.433 101.64 306.645 101.726 306.94 101.726ZM301.077 98.2164C300.626 98.2164 300.236 98.1254 299.907 97.9434C299.577 97.7527 299.317 97.4884 299.127 97.1504C298.945 96.8124 298.854 96.418 298.854 95.9674C298.854 95.4994 298.945 95.0964 299.127 94.7584C299.317 94.4204 299.582 94.1604 299.92 93.9784C300.258 93.7877 300.648 93.6924 301.09 93.6924C301.532 93.6924 301.913 93.7834 302.234 93.9654C302.563 94.1474 302.819 94.4074 303.001 94.7454C303.183 95.0747 303.274 95.4734 303.274 95.9414C303.274 96.4007 303.183 96.8037 303.001 97.1504C302.819 97.4884 302.559 97.7527 302.221 97.9434C301.891 98.1254 301.51 98.2164 301.077 98.2164ZM301.077 96.8384C301.267 96.8384 301.423 96.7994 301.545 96.7214C301.666 96.6347 301.753 96.5264 301.805 96.3964C301.857 96.2577 301.883 96.1104 301.883 95.9544C301.883 95.807 301.852 95.6684 301.792 95.5384C301.74 95.3997 301.653 95.287 301.532 95.2004C301.419 95.1137 301.267 95.0704 301.077 95.0704C300.773 95.0704 300.552 95.1657 300.414 95.3564C300.284 95.5384 300.223 95.7464 300.232 95.9804C300.232 96.2057 300.297 96.405 300.427 96.5784C300.565 96.7517 300.782 96.8384 301.077 96.8384Z" fill="#837978"/>
<path d="M290.008 103.184C289.67 103.184 289.402 103.085 289.203 102.885C289.019 102.671 288.927 102.41 288.927 102.103C288.927 101.781 289.026 101.521 289.226 101.321C289.425 101.122 289.686 101.022 290.008 101.022C290.314 101.022 290.567 101.122 290.767 101.321C290.966 101.521 291.066 101.781 291.066 102.103C291.066 102.41 290.966 102.671 290.767 102.885C290.583 103.085 290.33 103.184 290.008 103.184Z" fill="#837978"/>
<path d="M294.401 103V95.7339H292.455V94.2219C292.838 94.2126 293.183 94.1799 293.491 94.1239C293.799 94.0586 294.074 93.9466 294.317 93.7879C294.56 93.6199 294.77 93.3866 294.947 93.0879H296.403V103H294.401Z" fill="#837978"/>
<path d="M0 137H150V139H0V137Z" fill="#1492D9"/>
<path fill-rule="evenodd" clip-rule="evenodd" d="M149.293 138.707L197.293 186.707L198.707 185.293L150.707 137.293L149.293 138.707Z" fill="#1492D9"/>
<path d="M50 29H182V31H50V29Z" fill="#1492D9"/>
<path fill-rule="evenodd" clip-rule="evenodd" d="M181.244 30.6543L249.244 109.154L250.756 107.845L182.756 29.3448L181.244 30.6543Z" fill="#1492D9"/>
<path d="M120.923 109.29C120.747 109.972 120.527 111.05 120.417 111.556C120.109 113.008 119.515 115.824 118.943 118.068C118.151 121.126 116.677 125.592 115.423 128.32L111.727 127.066C113.025 124.888 114.763 120.202 115.599 117.144C116.171 115.054 116.633 112.832 116.787 111.446C116.897 110.522 116.919 109.532 116.853 108.982L120.923 109.29ZM114.895 112.37C117.733 112.37 120.747 111.952 123.695 111.27V114.592C120.967 115.252 117.425 115.604 114.873 115.604C113.751 115.604 112.893 115.56 112.145 115.516L112.057 112.194C113.245 112.326 113.949 112.37 114.895 112.37ZM121.781 115.934C123.057 115.802 124.707 115.692 126.137 115.692C127.369 115.692 128.689 115.758 130.031 115.89L129.965 119.08C128.865 118.948 127.501 118.794 126.137 118.794C124.553 118.794 123.189 118.86 121.781 119.036V115.934ZM123.387 121.566C123.233 122.138 123.101 122.864 123.101 123.304C123.101 124.228 123.783 124.8 125.719 124.8C127.215 124.8 128.733 124.624 130.427 124.338L130.295 127.726C129.041 127.88 127.545 128.034 125.697 128.034C121.847 128.034 119.801 126.648 119.801 124.404C119.801 123.282 120.043 122.094 120.219 121.258L123.387 121.566Z" fill="#1492D9"/>
<path d="M97.8447 109.378C97.6907 110.412 97.5587 111.754 97.5147 112.722C97.4047 115.032 97.2507 119.784 97.2507 122.204C97.2507 124.316 98.4607 124.976 99.9567 124.976C103.367 124.976 105.677 122.974 107.283 120.51L109.703 123.48C108.339 125.592 105.061 128.628 99.9347 128.628C96.0847 128.628 93.6867 126.89 93.6867 123.04C93.6867 120.268 93.8847 114.372 93.8847 112.722C93.8847 111.534 93.7747 110.324 93.5547 109.334L97.8447 109.378Z" fill="#1492D9"/>
<path d="M77.9455 121.346H81.6195V123.37H77.9455V121.346ZM76.4935 110.126H83.1375V112.414H76.4935V110.126ZM76.1635 115.032H89.4515V117.474H76.1635V115.032ZM78.6715 118.244H82.9835V126.45H78.6715V124.316H80.5415V120.4H78.6715V118.244ZM76.7795 118.244H79.1775V127.66H76.7795V118.244ZM78.5175 108.278H81.2235V111.644H78.5175V108.278ZM86.9435 118.112L89.4735 118.662C88.1535 123.26 85.6675 126.912 82.3015 129.156C81.9715 128.628 81.0695 127.572 80.5415 127.088C83.7095 125.262 85.8875 122.072 86.9435 118.112ZM76.8235 112.678L78.8255 112.194C79.1115 113.008 79.3095 114.108 79.3315 114.834L77.2195 115.362C77.2195 114.658 77.0655 113.536 76.8235 112.678ZM85.4695 110.258L87.5375 109.18C88.3955 110.236 89.2315 111.666 89.6055 112.656L87.4275 113.888C87.0975 112.898 86.2615 111.358 85.4695 110.258ZM80.5855 112.216L82.9395 112.634C82.5875 113.624 82.2795 114.57 82.0375 115.252L80.1015 114.834C80.2775 114.064 80.4975 112.986 80.5855 112.216ZM68.8595 108.96H76.6035V111.754H68.8595V108.96ZM70.8835 113.712H74.6675V116.264H70.8835V113.712ZM70.8835 118.178H74.6675V120.73H70.8835V118.178ZM69.6515 110.5H72.2255V124.162H69.6515V110.5ZM73.1055 110.478H75.7455V129.09H73.1055V110.478ZM68.3975 123.502C70.0035 123.304 72.3135 122.908 74.5795 122.534L74.7995 125.196C72.7975 125.636 70.6855 126.054 68.9255 126.406L68.3975 123.502ZM83.3795 108.19H86.1735C86.0415 117.188 86.5915 125.372 87.3175 125.394C87.5375 125.394 87.6695 124.492 87.7355 122.908C88.1755 123.546 89.3195 124.426 89.7595 124.712C89.1435 128.386 87.9335 129.09 87.1635 129.09C83.9735 129.046 83.4675 120.906 83.3795 108.19Z" fill="#1492D9"/>
<path d="M55.6594 108.828H64.7234V117.804H55.4394V115.142H61.6214V111.49H55.6594V108.828ZM53.7234 108.828H56.8254V122.886H53.7234V108.828ZM55.5274 112.15H62.5674V114.416H55.5274V112.15ZM52.4254 122.094C54.2954 121.83 57.0894 121.302 59.7514 120.796L59.9934 123.524C57.5734 124.096 54.9994 124.646 52.9094 125.108L52.4254 122.094ZM60.5874 116.748C61.4674 119.586 63.2934 121.654 66.5934 122.49C65.9114 123.128 65.0094 124.382 64.5914 125.24C60.8294 123.942 59.0034 121.236 57.8814 117.232L60.5874 116.748ZM63.9754 117.188L66.3954 119.19C65.0094 120.026 63.5794 120.862 62.4794 121.368L60.6754 119.718C61.7094 119.102 63.1394 118.002 63.9754 117.188ZM51.6114 116.704V124.998H48.4874V119.652H46.2214V116.704H51.6114ZM51.6114 123.612C52.4254 124.976 53.9214 125.526 56.0774 125.614C58.7614 125.724 63.7774 125.658 66.9454 125.372C66.5934 126.142 66.0874 127.682 65.9334 128.628C63.1394 128.782 58.7614 128.826 56.0114 128.694C53.3934 128.584 51.6554 128.034 50.2034 126.34C49.3014 127.132 48.3774 127.924 47.1894 128.87L45.6494 125.526C46.6174 124.976 47.7174 124.316 48.6854 123.612H51.6114ZM46.1334 110.61L48.5094 108.696C49.7634 109.598 51.3694 110.962 52.1174 111.974L49.5654 114.086C48.9274 113.074 47.3874 111.6 46.1334 110.61Z" fill="#1492D9"/>
<path d="M23.5183 110.346H32.9343V113.14H23.5183V110.346ZM26.8843 108.234H29.7003V115.758H26.8843V108.234ZM26.1143 116.572V118.112H30.4923V116.572H26.1143ZM23.8263 114.218H32.9343V120.488H23.8263V114.218ZM26.8843 119.014L28.8203 119.982C27.8083 122.49 26.1143 125.68 24.2663 127.396C24.0243 126.538 23.3863 125.24 22.9463 124.448C24.4863 123.128 26.1363 120.774 26.8843 119.014ZM29.5683 119.498C30.2723 120.07 32.5823 122.446 33.1103 123.018L31.2843 125.482C30.5583 124.162 28.9743 121.984 28.0723 120.862L29.5683 119.498ZM27.1043 115.582H29.4803V119.542H29.7003V129.068H26.8843V119.542H27.1043V115.582ZM33.1983 108.96H44.0003V111.666H33.1983V108.96ZM36.7843 118.31V119.234H40.3483V118.31H36.7843ZM36.7843 121.412V122.336H40.3483V121.412H36.7843ZM36.7843 115.23V116.154H40.3483V115.23H36.7843ZM33.9243 112.898H43.3623V124.668H33.9243V112.898ZM36.9383 110.5L40.4363 110.874C39.9743 112.282 39.4463 113.646 39.0723 114.57L36.4323 114.086C36.6523 113.03 36.8723 111.578 36.9383 110.5ZM35.6623 124.426L38.1703 126.076C36.9603 127.22 34.9363 128.496 33.2643 129.156C32.7583 128.584 31.8563 127.682 31.1963 127.154C32.8243 126.56 34.7163 125.35 35.6623 124.426ZM38.6983 126.076L41.0303 124.646C42.1523 125.46 43.7363 126.692 44.5283 127.528L42.0423 129.134C41.3603 128.32 39.8423 126.978 38.6983 126.076Z" fill="#1492D9"/>
<path d="M12.2538 108.498H15.4878V113.25H12.2538V108.498ZM6.68784 111.622H20.9658V114.592H6.68784V111.622ZM12.3198 112.898L15.3778 113.91C13.5738 117.32 10.5818 120.356 7.50184 122.204C7.08384 121.522 6.04984 120.114 5.43384 119.476C8.27184 118.09 10.9118 115.648 12.3198 112.898ZM6.70984 125.724C9.01984 125.35 12.4738 124.69 15.6858 124.03L15.9938 126.89C13.1118 127.572 9.98784 128.254 7.58984 128.76L6.70984 125.724ZM19.2058 115.934L21.5818 118.2C19.9978 119.454 18.2818 120.862 16.9178 121.72L15.1358 119.85C16.4118 118.904 18.1718 117.232 19.2058 115.934ZM15.9718 113.58C16.6978 118.992 18.3038 123.832 21.9118 126.142C21.1638 126.758 20.1518 128.012 19.6458 128.892C15.5978 125.922 14.0138 120.642 13.0678 113.998L15.9718 113.58ZM5.08184 108.234L8.07384 109.202C6.62184 112.92 4.24584 116.99 1.78184 119.476C1.49584 118.706 0.659836 116.924 0.131836 116.11C2.08984 114.24 3.98184 111.226 5.08184 108.234ZM3.05784 114.548L6.09384 111.512V111.534V129.024H3.05784V114.548ZM8.95384 119.608L11.9898 116.572V116.594V126.78H8.95384V119.608Z" fill="#1492D9"/>
<path d="M148.219 1.29042C148.043 1.97242 147.823 3.05042 147.713 3.55642C147.405 5.00842 146.811 7.82442 146.239 10.0684C145.447 13.1264 143.973 17.5924 142.719 20.3204L139.023 19.0664C140.321 16.8884 142.059 12.2024 142.895 9.14442C143.467 7.05442 143.929 4.83242 144.083 3.44642C144.193 2.52242 144.215 1.53242 144.149 0.982422L148.219 1.29042ZM142.191 4.37042C145.029 4.37042 148.043 3.95242 150.991 3.27042V6.59242C148.263 7.25242 144.721 7.60442 142.169 7.60442C141.047 7.60442 140.189 7.56042 139.441 7.51642L139.353 4.19442C140.541 4.32642 141.245 4.37042 142.191 4.37042ZM149.077 7.93442C150.353 7.80242 152.003 7.69242 153.433 7.69242C154.665 7.69242 155.985 7.75842 157.327 7.89042L157.261 11.0804C156.161 10.9484 154.797 10.7944 153.433 10.7944C151.849 10.7944 150.485 10.8604 149.077 11.0364V7.93442ZM150.683 13.5664C150.529 14.1384 150.397 14.8644 150.397 15.3044C150.397 16.2284 151.079 16.8004 153.015 16.8004C154.511 16.8004 156.029 16.6244 157.723 16.3384L157.591 19.7264C156.337 19.8804 154.841 20.0344 152.993 20.0344C149.143 20.0344 147.097 18.6484 147.097 16.4044C147.097 15.2824 147.339 14.0944 147.515 13.2584L150.683 13.5664Z" fill="#1492D9"/>
<path d="M136.916 18.142C135.97 18.956 134.672 19.682 132.714 19.682C130.954 19.682 129.788 18.362 129.788 16.052C129.788 13.698 130.558 10.684 130.558 8.74796C130.558 7.77996 130.052 7.25196 129.216 7.25196C127.17 7.25196 123.848 10.772 122.264 12.884L122.22 8.81396C123.54 7.44996 127.236 4.06196 130.25 4.06196C132.802 4.06196 133.924 5.60196 133.924 7.49396C133.924 9.80396 133.242 12.73 133.242 15.04C133.242 15.524 133.506 15.81 133.924 15.81C134.606 15.81 135.574 15.282 136.498 14.38L136.916 18.142ZM121.472 7.69196C120.328 7.80196 118.414 8.06596 117.05 8.24196L116.72 4.85396C117.424 4.87596 117.974 4.87596 118.898 4.83196C120.394 4.74396 123.276 4.30396 124.244 3.97396L125.256 5.31596C124.882 5.79996 124.156 6.94396 123.782 7.49396L122.154 12.268C121.208 13.588 119.316 16.536 118.26 17.944L116.192 15.018C117.6 13.28 120.064 10.112 121.296 8.24196L121.318 7.97796L121.472 7.69196ZM121.186 3.11596C121.186 2.41196 121.208 1.70796 121.076 0.959961L124.926 1.06996C124.508 3.00596 123.76 8.48396 123.76 12.444C123.76 14.116 123.76 16.272 123.914 18.384C123.936 18.78 124.024 19.726 124.09 20.276H120.438C120.482 19.704 120.504 18.802 120.504 18.45C120.548 16.316 120.57 14.644 120.658 11.696C120.724 9.71596 121.186 4.01796 121.186 3.11596Z" fill="#1492D9"/>
<path d="M105.115 3.37972C104.939 2.85172 104.653 1.99372 104.345 1.17972L107.931 0.761719C108.327 2.69772 108.855 4.34772 109.383 5.75572C110.065 7.55972 111.055 9.36372 111.649 10.2217C112.067 10.8377 112.507 11.3657 112.947 11.8717L111.341 14.2477C109.999 14.0057 107.161 13.6977 105.159 13.5217L105.423 10.7057C106.413 10.7937 107.777 10.9037 108.393 10.9477C107.667 9.71572 106.831 8.04372 106.171 6.32772C105.709 5.13972 105.379 4.12772 105.115 3.37972ZM97.1289 4.01772C101.485 4.54572 104.763 4.50172 107.469 4.19372C109.559 3.95172 111.363 3.57772 113.101 3.07172L113.519 6.41572C112.133 6.81172 110.351 7.11972 108.503 7.33972C105.489 7.69172 102.035 7.82372 97.1729 7.42772L97.1289 4.01772ZM102.123 11.7837C101.375 12.8177 101.023 13.8077 101.023 14.7097C101.023 16.4257 102.519 17.1297 105.401 17.1297C107.887 17.1297 109.845 16.8877 111.407 16.6017L111.209 19.9677C110.021 20.1877 107.975 20.4957 105.181 20.4957C100.495 20.4957 97.5689 18.6257 97.5689 15.3477C97.5689 13.9397 97.9649 12.6197 98.7789 11.0137L102.123 11.7837Z" fill="#1492D9"/>
<path d="M75.5417 4.34826H78.7317V8.70426C78.7317 12.1803 78.2697 17.4823 75.7617 20.7163C75.1897 20.1663 73.8037 19.1763 73.0557 18.8463C75.3657 15.9203 75.5417 11.6523 75.5417 8.68226V4.34826ZM77.3897 4.34826H92.5037V9.65026H77.3897V7.38426H89.3577V6.61426H77.3897V4.34826ZM74.0897 1.11426H93.3177V3.77626H74.0897V1.11426ZM81.7677 13.3243H92.3717V15.2163H81.7677V13.3243ZM81.7677 15.7883H92.3717V17.6803H81.7677V15.7883ZM81.4157 18.2963H93.5157V20.4743H81.4157V18.2963ZM82.4717 10.6403H92.9217V12.7523H82.4717V21.0683H79.4357V13.6323L82.4497 10.6403H82.4717ZM85.0457 11.8063H88.0377V19.2423H85.0457V11.8063ZM81.0417 8.74826L84.0777 9.71626C82.9117 12.0043 80.9757 14.2923 79.0397 15.6563C78.6217 15.0183 77.5657 13.6763 76.9497 13.0603C78.5997 12.0703 80.1837 10.4423 81.0417 8.74826ZM86.0797 8.74826L89.3577 9.49626C88.5437 10.6403 87.7077 11.7623 87.0917 12.4883L84.7817 11.7623C85.2657 10.8823 85.7937 9.65026 86.0797 8.74826Z" fill="#1492D9"/>
<path d="M53.1677 5.88797H59.1297V8.19797H53.1677V5.88797ZM53.1677 9.40797H59.1297V11.63H53.1677V9.40797ZM53.1677 13.016H59.1297V15.326H53.1677V13.016ZM62.8037 10.662H71.0317V13.324H62.8037V10.662ZM54.2237 2.27997H57.6117V4.65597H54.2237V2.27997ZM60.9997 1.31197H68.9417V3.90797H60.9997V1.31197ZM61.1757 14.93H71.4937V17.658H61.1757V14.93ZM64.9597 8.83597H67.9957V21.024H64.9597V8.83597ZM55.3677 7.11997H57.4357V13.852H55.3677V7.11997ZM68.1277 1.31197H70.9437C70.9437 1.31197 70.9217 1.94997 70.8997 2.27997C70.8117 5.73397 70.6357 7.31797 70.1517 7.93397C69.7557 8.43997 69.2937 8.63797 68.7217 8.74797C68.2157 8.83597 67.4017 8.85797 66.5217 8.83597C66.4777 8.04397 66.2137 6.96597 65.8177 6.28397C66.4117 6.34997 66.8737 6.37197 67.1597 6.37197C67.4017 6.37197 67.5777 6.32797 67.7317 6.12997C67.9517 5.84397 68.0617 4.72197 68.1277 1.68597V1.31197ZM62.0557 8.96797L64.6077 9.47397C64.2557 11.476 63.5517 13.522 62.7377 14.798C62.2097 14.424 61.0657 13.852 60.4497 13.588C61.2417 12.444 61.7917 10.662 62.0557 8.96797ZM53.4317 0.167969L56.2477 0.783969C55.4557 3.84197 54.0917 6.87797 52.5077 8.74797C52.0237 8.26397 50.9017 7.29597 50.2637 6.87797C51.7377 5.29397 52.8597 2.74197 53.4317 0.167969ZM52.0237 5.88797H54.5537V11.718C54.5537 14.6 54.2677 18.626 52.6177 21.134C52.1557 20.716 51.0117 19.99 50.4177 19.726C51.9137 17.46 52.0237 14.182 52.0237 11.696V5.88797ZM58.2717 5.88797H60.8677V18.142C60.8677 19.308 60.6697 20.1 59.9437 20.562C59.1957 21.002 58.2937 21.068 57.0397 21.068C56.9517 20.32 56.5337 19.088 56.1597 18.384C56.8857 18.428 57.6777 18.428 57.9417 18.428C58.1837 18.428 58.2717 18.34 58.2717 18.076V5.88797ZM63.3757 2.19197H66.2137C65.9937 5.49197 65.3557 7.95597 61.9897 9.45197C61.6817 8.76997 60.9557 7.73597 60.3397 7.25197C62.9357 6.19597 63.2217 4.50197 63.3757 2.19197ZM56.8637 2.27997H57.4577L57.8537 2.16997L59.6577 3.26997C59.1517 4.67797 58.2937 6.48197 57.5897 7.62597C57.0837 7.25197 56.2257 6.72397 55.6757 6.43797C56.1377 5.40397 56.6437 3.75397 56.8637 2.76397V2.27997Z" fill="#1492D9"/>
<path d="M31.4097 171.28C29.5897 171.28 28.0497 170.954 26.7897 170.3C25.5297 169.647 24.5031 168.749 23.7097 167.605C22.9164 166.439 22.3447 165.097 21.9947 163.58C21.6447 162.04 21.4697 160.407 21.4697 158.68C21.4697 156.907 21.6447 155.25 21.9947 153.71C22.3681 152.17 22.9514 150.817 23.7447 149.65C24.5614 148.484 25.5997 147.574 26.8597 146.92C28.1431 146.267 29.6831 145.94 31.4797 145.94C33.3464 145.94 34.9097 146.279 36.1697 146.955C37.4531 147.632 38.4797 148.577 39.2497 149.79C40.0431 150.98 40.6031 152.334 40.9297 153.85C41.2797 155.367 41.4547 156.954 41.4547 158.61C41.4547 160.314 41.2797 161.924 40.9297 163.44C40.5797 164.957 40.0197 166.31 39.2497 167.5C38.4797 168.667 37.4531 169.589 36.1697 170.265C34.8864 170.942 33.2997 171.28 31.4097 171.28ZM31.4097 166.66C32.5531 166.66 33.4514 166.404 34.1047 165.89C34.7814 165.354 35.2831 164.665 35.6097 163.825C35.9597 162.985 36.1814 162.11 36.2747 161.2C36.3914 160.267 36.4497 159.404 36.4497 158.61C36.4497 157.864 36.3914 157.035 36.2747 156.125C36.1814 155.192 35.9714 154.317 35.6447 153.5C35.3181 152.66 34.8281 151.972 34.1747 151.435C33.5214 150.899 32.6347 150.63 31.5147 150.63C30.3947 150.63 29.4964 150.899 28.8197 151.435C28.1431 151.949 27.6297 152.625 27.2797 153.465C26.9531 154.305 26.7314 155.18 26.6147 156.09C26.4981 157 26.4397 157.84 26.4397 158.61C26.4397 159.38 26.4864 160.232 26.5797 161.165C26.6964 162.099 26.9181 162.985 27.2447 163.825C27.5714 164.665 28.0614 165.354 28.7147 165.89C29.3914 166.404 30.2897 166.66 31.4097 166.66Z" fill="#1492D9"/>
<path d="M10.75 171.245C9.56004 171.245 8.41671 171.105 7.32004 170.825C6.22337 170.545 5.22004 170.102 4.31004 169.495C3.40004 168.889 2.64171 168.119 2.03504 167.185C1.42837 166.229 1.05504 165.085 0.915039 163.755H5.88504C6.04837 164.409 6.36337 164.957 6.83004 165.4C7.32004 165.82 7.90337 166.124 8.58004 166.31C9.28004 166.497 10.015 166.59 10.785 166.59C11.2984 166.59 11.8 166.544 12.29 166.45C12.8034 166.357 13.2584 166.194 13.655 165.96C14.075 165.727 14.4017 165.412 14.635 165.015C14.8684 164.619 14.985 164.117 14.985 163.51C14.985 162.95 14.88 162.484 14.67 162.11C14.46 161.737 14.18 161.434 13.83 161.2C13.48 160.967 13.06 160.804 12.57 160.71C12.1034 160.617 11.6017 160.57 11.065 160.57H8.19504V156.3H10.12C10.7267 156.3 11.275 156.242 11.765 156.125C12.255 155.985 12.6634 155.799 12.99 155.565C13.34 155.309 13.6084 155.005 13.795 154.655C13.9817 154.282 14.075 153.862 14.075 153.395C14.075 152.695 13.9234 152.147 13.62 151.75C13.3167 151.33 12.8967 151.027 12.36 150.84C11.8234 150.654 11.205 150.56 10.505 150.56C9.85171 150.56 9.23337 150.665 8.65004 150.875C8.09004 151.062 7.62337 151.342 7.25004 151.715C6.87671 152.089 6.63171 152.544 6.51504 153.08H1.65004C1.79004 151.82 2.12837 150.747 2.66504 149.86C3.20171 148.95 3.89004 148.204 4.73004 147.62C5.57004 147.037 6.50337 146.617 7.53004 146.36C8.58004 146.08 9.66504 145.94 10.785 145.94C11.8584 145.94 12.885 146.057 13.865 146.29C14.845 146.524 15.72 146.909 16.49 147.445C17.2834 147.959 17.9134 148.647 18.38 149.51C18.8467 150.374 19.08 151.412 19.08 152.625C19.08 153.372 18.9517 154.072 18.695 154.725C18.4617 155.379 18.1117 155.962 17.645 156.475C17.2017 156.965 16.6767 157.374 16.07 157.7C16.98 157.957 17.7267 158.377 18.31 158.96C18.8934 159.544 19.325 160.232 19.605 161.025C19.9084 161.819 20.06 162.67 20.06 163.58C20.06 165.074 19.78 166.322 19.22 167.325C18.6834 168.305 17.96 169.087 17.05 169.67C16.14 170.23 15.1367 170.639 14.04 170.895C12.9434 171.129 11.8467 171.245 10.75 171.245Z" fill="#1492D9"/>
<path d="M44.0122 171.28C43.4989 171.28 43.0905 171.129 42.7872 170.825C42.5072 170.499 42.3672 170.102 42.3672 169.635C42.3672 169.145 42.5189 168.749 42.8222 168.445C43.1255 168.142 43.5222 167.99 44.0122 167.99C44.4789 167.99 44.8639 168.142 45.1672 168.445C45.4705 168.749 45.6222 169.145 45.6222 169.635C45.6222 170.102 45.4705 170.499 45.1672 170.825C44.8872 171.129 44.5022 171.28 44.0122 171.28Z" fill="#1492D9"/>
<path d="M53.4668 171.169C52.7668 171.169 52.1158 171.085 51.5138 170.917C50.9118 170.735 50.3728 170.462 49.8968 170.098C49.4348 169.734 49.0428 169.272 48.7208 168.712C48.4128 168.152 48.2028 167.487 48.0908 166.717H51.0518C51.1358 166.997 51.2898 167.263 51.5138 167.515C51.7378 167.767 52.0178 167.97 52.3538 168.124C52.7038 168.278 53.0958 168.355 53.5298 168.355C54.0618 168.355 54.5098 168.264 54.8738 168.082C55.2378 167.886 55.5178 167.62 55.7138 167.284C55.9098 166.948 56.0078 166.549 56.0078 166.087C56.0078 165.387 55.7838 164.827 55.3358 164.407C54.9018 163.973 54.2858 163.756 53.4878 163.756C53.0258 163.756 52.5918 163.84 52.1858 164.008C51.7938 164.162 51.4158 164.379 51.0518 164.659H48.4898L48.7628 156.133H58.5488V158.884H51.5978L51.4298 161.908C51.8498 161.614 52.3328 161.411 52.8788 161.299C53.4388 161.173 53.9918 161.117 54.5378 161.131C55.5038 161.159 56.3228 161.369 56.9948 161.761C57.6668 162.153 58.1778 162.699 58.5278 163.399C58.8918 164.099 59.0738 164.918 59.0738 165.856C59.0738 166.99 58.8218 167.956 58.3178 168.754C57.8278 169.552 57.1558 170.154 56.3018 170.56C55.4618 170.966 54.5168 171.169 53.4668 171.169Z" fill="#1492D9"/>
<path d="M63.1405 171.001L72.8005 156.133H75.8245L66.2065 171.001H63.1405ZM74.2495 171.148C73.5355 171.148 72.9055 171.001 72.3595 170.707C71.8275 170.399 71.4075 169.972 71.0995 169.426C70.8055 168.88 70.6585 168.236 70.6585 167.494C70.6585 166.752 70.8125 166.108 71.1205 165.562C71.4285 165.016 71.8555 164.596 72.4015 164.302C72.9475 163.994 73.5775 163.84 74.2915 163.84C74.9915 163.84 75.6075 163.987 76.1395 164.281C76.6715 164.575 77.0845 164.995 77.3785 165.541C77.6725 166.073 77.8195 166.717 77.8195 167.473C77.8195 168.215 77.6655 168.866 77.3575 169.426C77.0635 169.972 76.6435 170.399 76.0975 170.707C75.5655 171.001 74.9495 171.148 74.2495 171.148ZM74.2495 168.943C74.5575 168.943 74.8095 168.88 75.0055 168.754C75.2015 168.614 75.3415 168.432 75.4255 168.208C75.5235 167.984 75.5725 167.753 75.5725 167.515C75.5725 167.277 75.5235 167.053 75.4255 166.843C75.3415 166.619 75.2015 166.437 75.0055 166.297C74.8095 166.157 74.5575 166.087 74.2495 166.087C73.7595 166.087 73.4095 166.241 73.1995 166.549C72.9895 166.843 72.8845 167.172 72.8845 167.536C72.8985 167.9 73.0105 168.229 73.2205 168.523C73.4305 168.803 73.7735 168.943 74.2495 168.943ZM64.7785 163.273C64.0505 163.273 63.4205 163.126 62.8885 162.832C62.3565 162.524 61.9365 162.097 61.6285 161.551C61.3345 161.005 61.1875 160.368 61.1875 159.64C61.1875 158.884 61.3345 158.233 61.6285 157.687C61.9365 157.141 62.3635 156.721 62.9095 156.427C63.4555 156.119 64.0855 155.965 64.7995 155.965C65.5135 155.965 66.1295 156.112 66.6475 156.406C67.1795 156.7 67.5925 157.12 67.8865 157.666C68.1805 158.198 68.3275 158.842 68.3275 159.598C68.3275 160.34 68.1805 160.991 67.8865 161.551C67.5925 162.097 67.1725 162.524 66.6265 162.832C66.0945 163.126 65.4785 163.273 64.7785 163.273ZM64.7785 161.047C65.0865 161.047 65.3385 160.984 65.5345 160.858C65.7305 160.718 65.8705 160.543 65.9545 160.333C66.0385 160.109 66.0805 159.871 66.0805 159.619C66.0805 159.381 66.0315 159.157 65.9335 158.947C65.8495 158.723 65.7095 158.541 65.5135 158.401C65.3315 158.261 65.0865 158.191 64.7785 158.191C64.2885 158.191 63.9315 158.345 63.7075 158.653C63.4975 158.947 63.3995 159.283 63.4135 159.661C63.4135 160.025 63.5185 160.347 63.7285 160.627C63.9525 160.907 64.3025 161.047 64.7785 161.047Z" fill="#1492D9"/>
<path d="M64.3296 61.9997V57.4497H51.7646V53.6347L63.2796 37.2197H69.3347V52.8997H72.1347V57.4497H69.3347V61.9997H64.3296ZM57.5046 52.8997H64.3296V42.7497L57.5046 52.8997Z" fill="#1492D9"/>
<path d="M75.0112 62.2793C74.4979 62.2793 74.0895 62.1276 73.7862 61.8243C73.5062 61.4976 73.3662 61.1009 73.3662 60.6343C73.3662 60.1443 73.5179 59.7476 73.8212 59.4443C74.1245 59.1409 74.5212 58.9893 75.0112 58.9893C75.4779 58.9893 75.8629 59.1409 76.1662 59.4443C76.4695 59.7476 76.6212 60.1443 76.6212 60.6343C76.6212 61.1009 76.4695 61.4976 76.1662 61.8243C75.8862 62.1276 75.5012 62.2793 75.0112 62.2793Z" fill="#1492D9"/>
<path d="M80.6006 61.9998V51.1008H77.6816V48.8328C78.2556 48.8188 78.7736 48.7698 79.2356 48.6858C79.6976 48.5878 80.1106 48.4198 80.4746 48.1818C80.8386 47.9298 81.1536 47.5798 81.4196 47.1318H83.6036V61.9998H80.6006Z" fill="#1492D9"/>
<path d="M89.1395 61.9999L98.7995 47.1319H101.824L92.2055 61.9999H89.1395ZM100.249 62.1469C99.5345 62.1469 98.9045 61.9999 98.3585 61.7059C97.8265 61.3979 97.4065 60.9709 97.0985 60.4249C96.8045 59.8789 96.6575 59.2349 96.6575 58.4929C96.6575 57.7509 96.8115 57.1069 97.1195 56.5609C97.4275 56.0149 97.8545 55.5949 98.4005 55.3009C98.9465 54.9929 99.5765 54.8389 100.291 54.8389C100.991 54.8389 101.607 54.9859 102.139 55.2799C102.671 55.5739 103.084 55.9939 103.378 56.5399C103.672 57.0719 103.819 57.7159 103.819 58.4719C103.819 59.2139 103.665 59.8649 103.357 60.4249C103.063 60.9709 102.643 61.3979 102.097 61.7059C101.565 61.9999 100.949 62.1469 100.249 62.1469ZM100.249 59.9419C100.557 59.9419 100.809 59.8789 101.005 59.7529C101.201 59.6129 101.341 59.4309 101.425 59.2069C101.523 58.9829 101.572 58.7519 101.572 58.5139C101.572 58.2759 101.523 58.0519 101.425 57.8419C101.341 57.6179 101.201 57.4359 101.005 57.2959C100.809 57.1559 100.557 57.0859 100.249 57.0859C99.7585 57.0859 99.4085 57.2399 99.1985 57.5479C98.9885 57.8419 98.8835 58.1709 98.8835 58.5349C98.8975 58.8989 99.0095 59.2279 99.2195 59.5219C99.4295 59.8019 99.7725 59.9419 100.249 59.9419ZM90.7775 54.2719C90.0495 54.2719 89.4195 54.1249 88.8875 53.8309C88.3555 53.5229 87.9355 53.0959 87.6275 52.5499C87.3335 52.0039 87.1865 51.3669 87.1865 50.6389C87.1865 49.8829 87.3335 49.2319 87.6275 48.6859C87.9355 48.1399 88.3625 47.7199 88.9085 47.4259C89.4545 47.1179 90.0845 46.9639 90.7985 46.9639C91.5125 46.9639 92.1285 47.1109 92.6465 47.4049C93.1785 47.6989 93.5915 48.1189 93.8855 48.6649C94.1795 49.1969 94.3265 49.8409 94.3265 50.5969C94.3265 51.3389 94.1795 51.9899 93.8855 52.5499C93.5915 53.0959 93.1715 53.5229 92.6255 53.8309C92.0935 54.1249 91.4775 54.2719 90.7775 54.2719ZM90.7775 52.0459C91.0855 52.0459 91.3375 51.9829 91.5335 51.8569C91.7295 51.7169 91.8695 51.5419 91.9535 51.3319C92.0375 51.1079 92.0795 50.8699 92.0795 50.6179C92.0795 50.3799 92.0305 50.1559 91.9325 49.9459C91.8485 49.7219 91.7085 49.5399 91.5125 49.3999C91.3305 49.2599 91.0855 49.1899 90.7775 49.1899C90.2875 49.1899 89.9305 49.3439 89.7065 49.6519C89.4965 49.9459 89.3985 50.2819 89.4125 50.6599C89.4125 51.0239 89.5175 51.3459 89.7275 51.6259C89.9515 51.9059 90.3015 52.0459 90.7775 52.0459Z" fill="#1492D9"/>
<path d="M138.558 340.318H142.9V342.71H138.558V340.318ZM136.842 327.058H144.694V329.762H136.842V327.058ZM136.452 332.856H152.156V335.742H136.452V332.856ZM139.416 336.652H144.512V346.35H139.416V343.828H141.626V339.2H139.416V336.652ZM137.18 336.652H140.014V347.78H137.18V336.652ZM139.234 324.874H142.432V328.852H139.234V324.874ZM149.192 336.496L152.182 337.146C150.622 342.58 147.684 346.896 143.706 349.548C143.316 348.924 142.25 347.676 141.626 347.104C145.37 344.946 147.944 341.176 149.192 336.496ZM137.232 330.074L139.598 329.502C139.936 330.464 140.17 331.764 140.196 332.622L137.7 333.246C137.7 332.414 137.518 331.088 137.232 330.074ZM147.45 327.214L149.894 325.94C150.908 327.188 151.896 328.878 152.338 330.048L149.764 331.504C149.374 330.334 148.386 328.514 147.45 327.214ZM141.678 329.528L144.46 330.022C144.044 331.192 143.68 332.31 143.394 333.116L141.106 332.622C141.314 331.712 141.574 330.438 141.678 329.528ZM127.82 325.68H136.972V328.982H127.82V325.68ZM130.212 331.296H134.684V334.312H130.212V331.296ZM130.212 336.574H134.684V339.59H130.212V336.574ZM128.756 327.5H131.798V343.646H128.756V327.5ZM132.838 327.474H135.958V349.47H132.838V327.474ZM127.274 342.866C129.172 342.632 131.902 342.164 134.58 341.722L134.84 344.868C132.474 345.388 129.978 345.882 127.898 346.298L127.274 342.866ZM144.98 324.77H148.282C148.126 335.404 148.776 345.076 149.634 345.102C149.894 345.102 150.05 344.036 150.128 342.164C150.648 342.918 152 343.958 152.52 344.296C151.792 348.638 150.362 349.47 149.452 349.47C145.682 349.418 145.084 339.798 144.98 324.77Z" fill="white"/>
<path d="M99.8701 326.798H113.104V329.736H99.8701V326.798ZM104.602 324.77H108.268V328.176H104.602V324.77ZM103.51 343.412C104.94 343.36 106.786 343.256 108.788 343.152L108.814 345.336C107.02 345.518 105.33 345.648 103.744 345.778L103.51 343.412ZM109.49 338.68H112.61V346.454C112.61 347.78 112.376 348.56 111.466 349.028C110.582 349.47 109.464 349.496 107.956 349.496C107.826 348.664 107.41 347.468 107.046 346.714C107.826 346.766 108.814 346.74 109.1 346.74C109.386 346.74 109.49 346.662 109.49 346.402V338.68ZM107.046 342.32L108.944 341.852C109.386 343.074 109.776 344.66 109.88 345.622L107.852 346.22C107.774 345.206 107.436 343.568 107.046 342.32ZM103.614 332.024L105.018 330.438C106.474 331.166 108.424 332.336 109.386 333.168L107.904 334.962C106.994 334.104 105.096 332.856 103.614 332.024ZM105.018 336.912L108.008 337.302C107.54 339.954 106.942 343.048 106.422 344.946L104.03 344.53C104.472 342.502 104.888 339.226 105.018 336.912ZM100.442 338.68H110.66V341.358H103.432V349.522H100.442V338.68ZM100.988 330.178H103.536V335.196H109.438V330.178H112.09V337.666H100.988V330.178ZM106.89 329.84L109.23 330.438C108.346 332.388 106.89 334.286 105.408 335.482C104.992 335.066 104.03 334.338 103.484 334C104.94 332.96 106.188 331.452 106.89 329.84ZM115.314 334.728H123.998V337.874H115.314V334.728ZM115.314 339.798H123.998V342.944H115.314V339.798ZM115.418 344.946H124.57V348.352H115.418V344.946ZM115.444 324.77L118.798 325.576C117.628 329.71 115.73 334.052 113.702 336.756C113.13 336.132 111.778 334.962 110.998 334.416C112.922 332.128 114.534 328.41 115.444 324.77ZM120.072 325.056L123.582 325.81C122.828 327.89 122.022 330.022 121.346 331.452L118.382 330.698C119.032 329.164 119.734 326.824 120.072 325.056ZM117.264 329.554H124.31V332.908H117.264V349.496H113.884V332.44L116.562 329.554H117.264ZM118.876 331.166H122.022V346.61H118.876V331.166Z" fill="white"/>
<path d="M113.982 298.74C116.602 299.06 120.562 298.96 122.802 298.72V301.84C120.182 302.06 116.682 302.08 114.002 301.84L113.982 298.74ZM116.042 307.5C115.902 308.14 115.842 308.58 115.842 309.1C115.842 309.98 116.682 310.32 118.322 310.32C120.102 310.32 121.542 310.16 123.362 309.78L123.422 313.06C122.102 313.3 120.522 313.44 118.162 313.44C114.662 313.44 112.922 312.14 112.922 310C112.922 309.14 113.042 308.3 113.282 307.26L116.042 307.5ZM111.322 297.52C111.142 297.98 110.842 299.2 110.762 299.56C110.542 300.6 109.802 304.84 109.802 306.7C109.802 306.76 109.802 307.08 109.822 307.16C110.102 306.6 110.342 306.2 110.602 305.62L112.062 306.78C111.462 308.6 110.842 310.8 110.622 311.92C110.562 312.22 110.502 312.7 110.502 312.88C110.502 313.1 110.502 313.46 110.522 313.78L107.722 313.96C107.322 312.62 106.922 310.1 106.922 307.38C106.922 304.32 107.502 300.98 107.702 299.5C107.782 298.9 107.922 298 107.942 297.24L111.322 297.52Z" fill="white"/>
<path d="M92.9598 296.3H96.3198C96.1398 299.8 95.8798 309.44 87.7798 314.74C87.2598 313.98 86.3198 313.08 85.2998 312.4C93.2598 307.78 92.8198 298.92 92.9598 296.3ZM96.2198 296.9C96.2798 298.74 96.6198 308.36 104.8 312.24C103.86 312.94 103 313.92 102.56 314.72C93.8598 310.32 93.5798 299.38 93.3998 297.2L96.2198 296.9Z" fill="white"/>
<path d="M173.698 297.28C173.558 297.88 173.398 298.64 173.278 299.2C173.058 300.22 172.818 301.22 172.638 302.12C171.998 304.96 170.278 311.06 168.278 314.28L165.118 313.02C167.538 309.74 168.998 304.48 169.558 301.94C169.938 300.02 170.138 298.36 170.098 296.9L173.698 297.28ZM180.598 299.12C181.818 300.92 183.458 304.68 184.038 306.62L180.938 308.04C180.458 305.72 179.118 302.18 177.678 300.34L180.598 299.12ZM165.078 301.22C165.858 301.28 166.618 301.24 167.418 301.22C169.078 301.18 172.718 300.76 174.278 300.76C176.578 300.76 178.098 301.84 178.098 304.84C178.098 307.18 177.838 310.46 176.978 312.22C176.298 313.66 175.118 314.16 173.498 314.16C172.718 314.16 171.778 314.04 171.058 313.88L170.538 310.7C171.278 310.9 172.478 311.12 172.978 311.12C173.618 311.12 174.078 310.9 174.338 310.36C174.838 309.36 175.078 307.02 175.078 305.16C175.078 303.7 174.478 303.52 173.238 303.52C172.138 303.52 168.858 303.94 167.818 304.1C167.178 304.2 166.018 304.36 165.358 304.48L165.078 301.22ZM179.898 296.42C180.398 297.16 181.098 298.46 181.458 299.16L179.558 299.96C179.138 299.14 178.558 297.96 178.018 297.18L179.898 296.42ZM182.358 295.46C182.878 296.22 183.598 297.5 183.938 298.18L182.058 298.98C181.658 298.16 181.018 296.98 180.478 296.22L182.358 295.46Z" fill="white"/>
<path d="M151.96 296.3H155.32C155.14 299.8 154.88 309.44 146.78 314.74C146.26 313.98 145.32 313.08 144.3 312.4C152.26 307.78 151.82 298.92 151.96 296.3ZM155.22 296.9C155.28 298.74 155.62 308.36 163.8 312.24C162.86 312.94 162 313.92 161.56 314.72C152.86 310.32 152.58 299.38 152.4 297.2L155.22 296.9Z" fill="white"/>
<path d="M133.019 315V293.202H127.181V288.666C128.329 288.638 129.365 288.54 130.289 288.372C131.213 288.176 132.039 287.84 132.767 287.364C133.495 286.86 134.125 286.16 134.657 285.264H139.025V315H133.019Z" fill="white"/>
<path d="M71.926 315.294C70.498 315.294 69.126 315.126 67.81 314.79C66.494 314.454 65.29 313.922 64.198 313.194C63.106 312.466 62.196 311.542 61.468 310.422C60.74 309.274 60.292 307.902 60.124 306.306H66.088C66.284 307.09 66.662 307.748 67.222 308.28C67.81 308.784 68.51 309.148 69.322 309.372C70.162 309.596 71.044 309.708 71.968 309.708C72.584 309.708 73.186 309.652 73.774 309.54C74.39 309.428 74.936 309.232 75.412 308.952C75.916 308.672 76.308 308.294 76.588 307.818C76.868 307.342 77.008 306.74 77.008 306.012C77.008 305.34 76.882 304.78 76.63 304.332C76.378 303.884 76.042 303.52 75.622 303.24C75.202 302.96 74.698 302.764 74.11 302.652C73.55 302.54 72.948 302.484 72.304 302.484H68.86V297.36H71.17C71.898 297.36 72.556 297.29 73.144 297.15C73.732 296.982 74.222 296.758 74.614 296.478C75.034 296.17 75.356 295.806 75.58 295.386C75.804 294.938 75.916 294.434 75.916 293.874C75.916 293.034 75.734 292.376 75.37 291.9C75.006 291.396 74.502 291.032 73.858 290.808C73.214 290.584 72.472 290.472 71.632 290.472C70.848 290.472 70.106 290.598 69.406 290.85C68.734 291.074 68.174 291.41 67.726 291.858C67.278 292.306 66.984 292.852 66.844 293.496H61.006C61.174 291.984 61.58 290.696 62.224 289.632C62.868 288.54 63.694 287.644 64.702 286.944C65.71 286.244 66.83 285.74 68.062 285.432C69.322 285.096 70.624 284.928 71.968 284.928C73.256 284.928 74.488 285.068 75.664 285.348C76.84 285.628 77.89 286.09 78.814 286.734C79.766 287.35 80.522 288.176 81.082 289.212C81.642 290.248 81.922 291.494 81.922 292.95C81.922 293.846 81.768 294.686 81.46 295.47C81.18 296.254 80.76 296.954 80.2 297.57C79.668 298.158 79.038 298.648 78.31 299.04C79.402 299.348 80.298 299.852 80.998 300.552C81.698 301.252 82.216 302.078 82.552 303.03C82.916 303.982 83.098 305.004 83.098 306.096C83.098 307.888 82.762 309.386 82.09 310.59C81.446 311.766 80.578 312.704 79.486 313.404C78.394 314.076 77.19 314.566 75.874 314.874C74.558 315.154 73.242 315.294 71.926 315.294Z" fill="white"/>
<path d="M398.463 248L405.483 233.05H396.695V229.592H409.721V232.374L402.597 248H398.463Z" fill="#E5005A"/>
<path d="M388.955 248V244.62H379.621V241.786L388.175 229.592H392.673V241.24H394.753V244.62H392.673V248H388.955ZM383.885 241.24H388.955V233.7L383.885 241.24Z" fill="#E5005A"/>
<path d="M417.673 248.128C417.022 248.128 416.42 248.021 415.865 247.808C415.31 247.584 414.841 247.243 414.457 246.784C414.084 246.325 413.844 245.749 413.737 245.056H415.977C416.094 245.376 416.324 245.621 416.665 245.792C417.006 245.952 417.369 246.032 417.753 246.032C418.19 246.032 418.558 245.947 418.857 245.776C419.166 245.595 419.412 245.36 419.593 245.072C419.774 244.773 419.908 244.448 419.993 244.096C420.078 243.733 420.126 243.365 420.137 242.992C420.137 242.949 420.137 242.907 420.137 242.864C420.137 242.811 420.137 242.763 420.137 242.72C419.902 243.061 419.62 243.328 419.289 243.52C418.958 243.712 418.617 243.845 418.265 243.92C417.913 243.995 417.577 244.032 417.257 244.032C416.585 244.032 415.977 243.893 415.433 243.616C414.889 243.328 414.457 242.917 414.137 242.384C413.828 241.851 413.673 241.205 413.673 240.448C413.673 239.605 413.865 238.896 414.249 238.32C414.633 237.733 415.14 237.291 415.769 236.992C416.409 236.693 417.108 236.544 417.865 236.544C418.697 236.544 419.396 236.709 419.961 237.04C420.526 237.371 420.974 237.819 421.305 238.384C421.636 238.949 421.87 239.579 422.009 240.272C422.158 240.965 422.233 241.675 422.233 242.4C422.233 243.189 422.148 243.931 421.977 244.624C421.817 245.307 421.556 245.915 421.193 246.448C420.841 246.971 420.372 247.381 419.785 247.68C419.209 247.979 418.505 248.128 417.673 248.128ZM417.769 242.112C418.185 242.112 418.526 242.027 418.793 241.856C419.07 241.685 419.278 241.472 419.417 241.216C419.566 240.949 419.641 240.672 419.641 240.384C419.641 240.021 419.556 239.712 419.385 239.456C419.225 239.189 419.006 238.987 418.729 238.848C418.462 238.699 418.153 238.624 417.801 238.624C417.417 238.624 417.086 238.704 416.809 238.864C416.532 239.024 416.318 239.237 416.169 239.504C416.02 239.771 415.945 240.059 415.945 240.368C415.945 240.859 416.1 241.275 416.409 241.616C416.729 241.947 417.182 242.112 417.769 242.112Z" fill="#E5005A"/>
<path d="M409.95 248.208C409.568 248.208 409.265 248.095 409.04 247.87C408.832 247.627 408.728 247.332 408.728 246.986C408.728 246.622 408.84 246.327 409.066 246.102C409.291 245.876 409.586 245.764 409.95 245.764C410.296 245.764 410.582 245.876 410.808 246.102C411.033 246.327 411.146 246.622 411.146 246.986C411.146 247.332 411.033 247.627 410.808 247.87C410.6 248.095 410.314 248.208 409.95 248.208Z" fill="#E5005A"/>
<path d="M425.655 248L433.015 236.672H435.319L427.991 248H425.655ZM434.119 248.112C433.575 248.112 433.095 248 432.679 247.776C432.274 247.541 431.954 247.216 431.719 246.8C431.495 246.384 431.383 245.893 431.383 245.328C431.383 244.763 431.5 244.272 431.735 243.856C431.97 243.44 432.295 243.12 432.711 242.896C433.127 242.661 433.607 242.544 434.151 242.544C434.684 242.544 435.154 242.656 435.559 242.88C435.964 243.104 436.279 243.424 436.503 243.84C436.727 244.245 436.839 244.736 436.839 245.312C436.839 245.877 436.722 246.373 436.487 246.8C436.263 247.216 435.943 247.541 435.527 247.776C435.122 248 434.652 248.112 434.119 248.112ZM434.119 246.432C434.354 246.432 434.546 246.384 434.695 246.288C434.844 246.181 434.951 246.043 435.015 245.872C435.09 245.701 435.127 245.525 435.127 245.344C435.127 245.163 435.09 244.992 435.015 244.832C434.951 244.661 434.844 244.523 434.695 244.416C434.546 244.309 434.354 244.256 434.119 244.256C433.746 244.256 433.479 244.373 433.319 244.608C433.159 244.832 433.079 245.083 433.079 245.36C433.09 245.637 433.175 245.888 433.335 246.112C433.495 246.325 433.756 246.432 434.119 246.432ZM426.903 242.112C426.348 242.112 425.868 242 425.463 241.776C425.058 241.541 424.738 241.216 424.503 240.8C424.279 240.384 424.167 239.899 424.167 239.344C424.167 238.768 424.279 238.272 424.503 237.856C424.738 237.44 425.063 237.12 425.479 236.896C425.895 236.661 426.375 236.544 426.919 236.544C427.463 236.544 427.932 236.656 428.327 236.88C428.732 237.104 429.047 237.424 429.271 237.84C429.495 238.245 429.607 238.736 429.607 239.312C429.607 239.877 429.495 240.373 429.271 240.8C429.047 241.216 428.727 241.541 428.311 241.776C427.906 242 427.436 242.112 426.903 242.112ZM426.903 240.416C427.138 240.416 427.33 240.368 427.479 240.272C427.628 240.165 427.735 240.032 427.799 239.872C427.863 239.701 427.895 239.52 427.895 239.328C427.895 239.147 427.858 238.976 427.783 238.816C427.719 238.645 427.612 238.507 427.463 238.4C427.324 238.293 427.138 238.24 426.903 238.24C426.53 238.24 426.258 238.357 426.087 238.592C425.927 238.816 425.852 239.072 425.863 239.36C425.863 239.637 425.943 239.883 426.103 240.096C426.274 240.309 426.54 240.416 426.903 240.416Z" fill="#E5005A"/>
<path d="M441.873 205.583C442.369 205.647 442.977 205.679 443.505 205.679C444.369 205.679 447.569 205.631 448.513 205.551C449.281 205.487 449.729 205.423 449.937 205.359L451.137 207.071C450.721 207.327 450.305 207.567 449.905 207.855C449.009 208.463 447.601 209.615 446.721 210.287C447.137 210.207 447.457 210.191 447.841 210.191C450.593 210.191 452.753 211.951 452.753 214.367C452.753 216.863 450.945 219.055 446.801 219.055C444.545 219.055 442.673 217.999 442.673 216.239C442.673 214.831 443.953 213.519 445.777 213.519C448.001 213.519 449.313 214.991 449.313 216.815L447.041 217.087C447.041 216.047 446.529 215.359 445.793 215.359C445.265 215.359 444.961 215.679 444.961 215.999C444.961 216.495 445.489 216.847 446.305 216.847C448.993 216.847 450.193 215.887 450.193 214.335C450.193 212.959 448.785 212.095 447.025 212.095C444.689 212.095 443.009 213.503 441.473 215.375L439.713 213.551C440.737 212.751 442.609 211.167 443.553 210.383C444.449 209.647 445.937 208.495 446.705 207.807C445.905 207.823 444.257 207.887 443.393 207.951C442.913 207.983 442.337 208.031 441.953 208.095L441.873 205.583Z" fill="#E5005A"/>
<path d="M427.107 206.416C426.979 207.088 426.883 208.128 426.883 208.592C426.883 209.648 426.883 210.688 426.979 211.76C427.171 213.856 427.491 215.328 428.419 215.328C429.155 215.328 429.715 213.328 429.955 212.24L431.907 214.64C430.787 217.472 429.763 218.464 428.371 218.464C426.467 218.464 424.899 216.848 424.451 212.48C424.291 210.96 424.275 209.12 424.275 208.112C424.275 207.632 424.243 206.944 424.131 206.384L427.107 206.416ZM434.931 206.72C436.499 208.56 437.763 212.896 437.907 215.2L435.331 216.192C435.107 213.776 434.323 209.568 432.451 207.52L434.931 206.72Z" fill="#E5005A"/>
<path d="M408.562 206.784C409.202 206.768 409.906 206.736 410.21 206.704C411.714 206.576 414.13 206.384 417.058 206.128C418.658 206 420.546 205.888 421.714 205.84L421.73 208.336C420.898 208.352 419.538 208.352 418.658 208.528C416.93 208.912 415.442 210.784 415.442 212.688C415.442 215.04 417.65 215.968 420.418 216.128L419.506 218.816C415.938 218.544 412.882 216.608 412.882 213.2C412.882 211.008 414.05 209.312 414.914 208.528C413.538 208.672 410.722 208.992 408.802 209.424L408.562 206.784Z" fill="#E5005A"/>
<path d="M399.453 205.183C399.341 205.935 399.245 206.911 399.213 207.615C399.133 209.295 399.021 212.751 399.021 214.511C399.021 216.047 399.901 216.527 400.989 216.527C403.469 216.527 405.149 215.071 406.317 213.279L408.077 215.439C407.085 216.975 404.701 219.183 400.973 219.183C398.173 219.183 396.429 217.919 396.429 215.119C396.429 213.103 396.573 208.815 396.573 207.615C396.573 206.751 396.493 205.871 396.333 205.151L399.453 205.183Z" fill="#E5005A"/>
<path d="M378.566 205.008H383.686V206.944H378.566V205.008ZM385.078 213.28H391.35V215.184H385.078V213.28ZM378.31 209.936H384.23V211.952H378.31V209.936ZM380.806 210.768H382.998V217.072C382.998 218.08 382.854 218.688 382.214 219.056C381.59 219.408 380.806 219.456 379.798 219.456C379.734 218.816 379.43 217.856 379.142 217.232C379.686 217.264 380.342 217.264 380.55 217.264C380.742 217.248 380.806 217.216 380.806 217.024V210.768ZM390.614 213.28H392.95C392.95 213.28 392.918 213.84 392.886 214.128C392.646 216.768 392.374 218.032 391.91 218.544C391.526 218.976 391.142 219.12 390.646 219.2C390.23 219.264 389.574 219.28 388.838 219.264C388.806 218.608 388.566 217.712 388.214 217.136C388.726 217.184 389.206 217.2 389.462 217.2C389.686 217.2 389.814 217.168 389.974 217.008C390.23 216.752 390.454 215.824 390.614 213.568V213.28ZM387.302 211.936H389.606C389.366 215.248 388.758 217.968 384.87 219.536C384.614 218.976 384.022 218.16 383.542 217.728C386.854 216.528 387.11 214.464 387.302 211.936ZM378.822 208.72L380.278 207.232C381.542 207.648 383.35 208.416 384.31 209.008L382.742 210.656C381.91 210.064 380.134 209.216 378.822 208.72ZM383.686 209.936H383.974L384.278 209.84L385.67 210.288C385.446 211.808 385.078 213.52 384.678 214.672L383.142 213.952C383.366 212.992 383.59 211.472 383.686 210.24V209.936ZM390.086 206.864L392.518 207.216C391.414 210.224 389.062 211.744 385.846 212.592C385.574 212.08 384.854 211.12 384.406 210.672C387.366 210.16 389.43 209.04 390.086 206.864ZM387.014 204.304L389.174 204.912C388.358 206.64 387.03 208.336 385.83 209.392C385.382 209.024 384.47 208.4 383.942 208.112C385.19 207.216 386.374 205.76 387.014 204.304ZM387.526 207.312C388.598 208.96 390.758 210.144 393.526 210.624C393.03 211.088 392.374 212 392.07 212.592C389.094 211.856 386.966 210.272 385.59 207.92L387.526 207.312ZM380.614 210.64L382.086 211.216C381.462 213.344 380.438 215.728 379.014 216.96C378.822 216.288 378.326 215.328 377.974 214.688C379.142 213.744 380.134 212.112 380.614 210.64ZM387.142 205.904H393.062V207.808H386.23L387.142 205.904ZM383.126 205.008H383.622L383.974 204.928L385.446 205.84C384.742 207.04 383.462 208.368 382.294 209.2C381.894 208.848 381.238 208.368 380.79 208.096C381.766 207.376 382.742 206.192 383.126 205.408V205.008Z" fill="#E5005A"/>
<path d="M370.005 207.904H375.061V210.048H370.005V207.904ZM374.405 207.904H376.565C376.565 207.904 376.549 208.608 376.549 208.864C376.421 215.376 376.309 217.776 375.829 218.496C375.445 219.072 375.093 219.264 374.565 219.392C374.101 219.504 373.445 219.504 372.725 219.488C372.693 218.864 372.453 217.952 372.117 217.344C372.645 217.408 373.093 217.408 373.381 217.408C373.605 217.408 373.749 217.344 373.893 217.104C374.197 216.656 374.309 214.48 374.405 208.384V207.904ZM371.253 204.496H373.397C373.381 211.824 373.381 216.672 370.277 219.552C369.973 219.008 369.253 218.192 368.741 217.856C371.445 215.344 371.237 211.328 371.253 204.496ZM362.325 214.752H369.605V216.336H362.325V214.752ZM362.085 212.592H369.797V214.24H362.085V212.592ZM361.909 205.344H369.989V207.024H361.909V205.344ZM364.821 208.816H366.949V217.824H364.821V208.816ZM363.141 204.336H365.237V207.936H363.141V204.336ZM366.453 204.336H368.581V207.936H366.453V204.336ZM361.733 217.168C363.813 217.056 366.949 216.816 369.845 216.576L369.861 218.368C367.077 218.64 364.085 218.896 361.957 219.072L361.733 217.168ZM364.197 209.696V210.576H367.573V209.696H364.197ZM362.229 208.176H369.669V212.096H362.229V208.176Z" fill="#E5005A"/>
<path d="M423.919 185.04C423.759 185.712 423.679 186.192 423.599 186.64C423.407 187.776 422.639 193.264 422.639 194.816C422.639 196.016 423.407 196.592 424.831 196.592C426.959 196.592 427.999 195.584 427.999 194.464C427.999 193.376 427.391 192.432 426.415 191.456L429.135 190.88C430.175 192.288 430.639 193.424 430.639 194.784C430.639 197.216 428.447 199.12 424.751 199.12C422.031 199.12 420.239 197.952 420.239 195.232C420.239 193.632 421.007 188.72 421.167 186.48C421.231 185.632 421.231 185.296 421.199 184.896L423.919 185.04ZM417.887 186.944C419.311 187.424 421.327 187.632 423.071 187.632C424.319 187.632 425.471 187.536 426.191 187.408L426.111 189.712C425.199 189.808 424.351 189.872 422.991 189.872C421.263 189.872 419.295 189.6 417.775 189.168L417.887 186.944ZM417.567 190.912C419.391 191.52 421.231 191.648 422.927 191.648C423.839 191.648 425.071 191.568 426.063 191.456L425.999 193.744C425.215 193.824 424.303 193.888 423.343 193.888C420.991 193.888 418.895 193.632 417.439 193.248L417.567 190.912Z" fill="#E5005A"/>
<path d="M400.637 186.4H415.053V188.624H400.637V186.4ZM405.997 191.648H414.365V193.792H405.997V191.648ZM405.389 196.96H414.973V199.104H405.389V196.96ZM409.069 189.232H411.421V198.096H409.069V189.232ZM405.565 184.304L407.997 184.88C406.765 188.848 404.717 192.816 401.165 195.184C400.925 194.528 400.413 193.488 400.061 192.912C402.957 191.104 404.765 187.504 405.565 184.304ZM402.349 191.072H404.701V199.504H402.349V191.072Z" fill="#E5005A"/>
<path d="M383.933 185.168H389.629V187.312H383.933V185.168ZM384.045 189.76H389.453V191.888H384.045V189.76ZM383.501 195.232C385.085 194.896 387.469 194.272 389.693 193.664L389.997 195.696C387.981 196.304 385.789 196.928 384.077 197.424L383.501 195.232ZM392.349 189.12V189.76H395.965V189.12H392.349ZM392.349 191.504V192.128H395.965V191.504H392.349ZM392.349 186.752V187.392H395.965V186.752H392.349ZM390.189 184.88H398.237V194.016H390.189V184.88ZM394.141 193.184H396.365V196.912C396.365 197.424 396.397 197.472 396.589 197.472C396.653 197.472 396.845 197.472 396.925 197.472C397.149 197.472 397.213 197.216 397.245 195.632C397.677 195.984 398.605 196.336 399.181 196.48C398.989 198.8 398.461 199.456 397.181 199.456C396.861 199.456 396.461 199.456 396.157 199.456C394.493 199.456 394.141 198.8 394.141 196.928V193.184ZM391.245 193.776H393.517C393.293 196.544 392.685 198.528 388.957 199.632C388.733 199.056 388.157 198.16 387.693 197.712C390.781 196.976 391.069 195.696 391.245 193.776ZM385.709 186.016H387.949V195.408L385.709 195.728V186.016Z" fill="#E5005A"/>
</svg>
