<svg width="588" height="400" viewBox="0 0 588 400" fill="none" xmlns="http://www.w3.org/2000/svg">
<path d="M211 311C211 359.601 171.601 399 123 399C74.3989 399 35 359.601 35 311C35 262.399 74.3989 223 123 223C171.601 223 211 262.399 211 311Z" fill="#1492D9"/>
<path d="M498 215C498 311.098 420.098 389 324 389C227.902 389 150 311.098 150 215C150 118.902 227.902 41 324 41C420.098 41 498 118.902 498 215Z" fill="#F5F5F5"/>
<path fill-rule="evenodd" clip-rule="evenodd" d="M241.901 368.452C187.202 339.126 150 281.408 150 215C150 148.206 187.636 90.202 242.859 61.0382L323.996 215L241.901 368.452Z" fill="#1492D9"/>
<path fill-rule="evenodd" clip-rule="evenodd" d="M258.715 91.1221L324.002 215L230.256 111.018C238.845 103.269 248.398 96.5702 258.715 91.1221Z" fill="#C9E3F2"/>
<path fill-rule="evenodd" clip-rule="evenodd" d="M257.936 338.463C213.929 314.866 184 268.428 184 215C184 173.703 201.88 136.583 230.322 110.958L323.987 215L257.936 338.463Z" fill="#E3EFF6"/>
<path fill-rule="evenodd" clip-rule="evenodd" d="M324 41V214.999L349.694 387.116C433.609 374.696 498 302.368 498 215C498 118.902 420.098 41 324 41Z" fill="#EEBBD0"/>
<path fill-rule="evenodd" clip-rule="evenodd" d="M241.864 368.433L323.998 215L349.725 387.111C341.33 388.355 332.739 389 323.999 389C294.294 389 266.328 381.557 241.864 368.433Z" fill="#F2D5E1"/>
<path d="M311.328 330.056H324.736V338.376H322.288V332.344H313.664V338.456H311.328V330.056ZM312.528 335.336H323.632V337.624H312.528V335.336ZM316.736 327.32H319.2V342.52H316.736V327.32Z" fill="#E5005A"/>
<path d="M300.768 336.888H303.44V338.36H300.768V336.888ZM299.712 328.728H304.544V330.392H299.712V328.728ZM299.472 332.296H309.136V334.072H299.472V332.296ZM301.296 334.632H304.432V340.6H301.296V339.048H302.656V336.2H301.296V334.632ZM299.92 334.632H301.664V341.48H299.92V334.632ZM301.184 327.384H303.152V329.832H301.184V327.384ZM307.312 334.536L309.152 334.936C308.192 338.28 306.384 340.936 303.936 342.568C303.696 342.184 303.04 341.416 302.656 341.064C304.96 339.736 306.544 337.416 307.312 334.536ZM299.952 330.584L301.408 330.232C301.616 330.824 301.76 331.624 301.776 332.152L300.24 332.536C300.24 332.024 300.128 331.208 299.952 330.584ZM306.24 328.824L307.744 328.04C308.368 328.808 308.976 329.848 309.248 330.568L307.664 331.464C307.424 330.744 306.816 329.624 306.24 328.824ZM302.688 330.248L304.4 330.552C304.144 331.272 303.92 331.96 303.744 332.456L302.336 332.152C302.464 331.592 302.624 330.808 302.688 330.248ZM294.16 327.88H299.792V329.912H294.16V327.88ZM295.632 331.336H298.384V333.192H295.632V331.336ZM295.632 334.584H298.384V336.44H295.632V334.584ZM294.736 329H296.608V338.936H294.736V329ZM297.248 328.984H299.168V342.52H297.248V328.984ZM293.824 338.456C294.992 338.312 296.672 338.024 298.32 337.752L298.48 339.688C297.024 340.008 295.488 340.312 294.208 340.568L293.824 338.456ZM304.72 327.32H306.752C306.656 333.864 307.056 339.816 307.584 339.832C307.744 339.832 307.84 339.176 307.888 338.024C308.208 338.488 309.04 339.128 309.36 339.336C308.912 342.008 308.032 342.52 307.472 342.52C305.152 342.488 304.784 336.568 304.72 327.32Z" fill="#E5005A"/>
<path d="M286.16 327.608H288.464V342.52H286.16V327.608ZM282.32 331.112H292.416V333.368H282.32V331.112ZM288.848 331.816C289.616 334.456 291.12 337.24 292.928 338.824C292.368 339.24 291.584 340.072 291.2 340.696C289.312 338.744 287.904 335.56 287.024 332.312L288.848 331.816ZM285.872 331.912L287.856 332.488C286.832 335.736 285.2 338.824 283.168 340.776C282.768 340.216 281.984 339.368 281.456 338.936C283.36 337.368 285.04 334.552 285.872 331.912ZM281.04 327.4L283.36 328.152C282.24 330.968 280.384 334.024 278.48 335.896C278.24 335.304 277.552 333.992 277.136 333.4C278.688 331.976 280.176 329.704 281.04 327.4ZM279.456 332.216L281.728 329.944L281.76 329.976V342.488H279.456V332.216Z" fill="#E5005A"/>
<path d="M307.6 67.416H309.776V78.584H307.6V67.416ZM302.288 73.512L311.728 69.816L312.608 71.832L303.2 75.56L302.288 73.512ZM304.208 69.224H306.512V79.08C306.512 80.072 306.64 80.184 307.648 80.184C308.096 80.184 309.92 80.184 310.384 80.184C311.296 80.184 311.472 79.832 311.632 78.04C312.144 78.408 313.072 78.792 313.712 78.936C313.424 81.432 312.752 82.264 310.608 82.264C310.016 82.264 307.968 82.264 307.424 82.264C304.896 82.264 304.208 81.56 304.208 79.08V69.224ZM310.944 70.168H310.832L311.2 69.928L311.6 69.64L313.184 70.232L313.104 70.584C313.088 73.32 313.072 75.048 313.008 75.736C312.96 76.584 312.688 77.08 312.128 77.368C311.632 77.64 310.832 77.672 310.208 77.656C310.176 77.016 309.984 76.024 309.728 75.528C310.016 75.544 310.4 75.56 310.576 75.56C310.752 75.56 310.848 75.512 310.896 75.256C310.928 74.984 310.944 73.672 310.944 70.168ZM301.648 67.384L303.792 68.072C302.784 70.776 301.104 73.752 299.376 75.592C299.168 75.048 298.544 73.768 298.176 73.192C299.552 71.8 300.88 69.592 301.648 67.384ZM300.08 71.976L302.368 69.688V69.704V82.504H300.08V71.976Z" fill="#837978"/>
<path d="M291.434 70.0081C291.194 71.6241 290.89 73.4801 290.282 75.4801C289.338 78.6801 287.898 80.8241 286.01 80.8241C284.026 80.8241 282.522 78.6801 282.522 75.9441C282.522 72.1361 285.802 68.9041 290.074 68.9041C294.154 68.9041 296.73 71.7201 296.73 75.3521C296.73 78.7281 294.746 81.1921 290.586 81.8961L289.114 79.5921C289.786 79.5121 290.218 79.4161 290.682 79.3041C292.714 78.8081 294.074 77.3841 294.074 75.2721C294.074 72.7921 292.618 71.1761 290.026 71.1761C286.698 71.1761 285.034 73.8801 285.034 75.6881C285.034 77.0801 285.514 77.8001 286.074 77.8001C286.714 77.8001 287.194 76.8241 287.77 74.9681C288.25 73.4641 288.602 71.6081 288.762 69.9281L291.434 70.0081Z" fill="#837978"/>
<path d="M270.144 68.584C270.72 68.632 271.232 68.648 271.808 68.648C272.48 68.648 275.312 68.504 276.32 68.392C276.928 68.328 277.328 68.248 277.568 68.168L279.088 69.96C278.688 70.216 277.984 70.68 277.6 71C276.48 71.864 275.328 72.84 274.336 73.608C276.32 73.416 278.848 73.272 280.592 73.272L280.608 75.56C279.088 75.464 277.44 75.448 276.448 75.576C275.04 75.768 273.984 76.648 273.984 77.848C273.984 78.92 274.8 79.384 276.224 79.528C277.088 79.608 278.128 79.608 278.736 79.56L278.224 82.12C274.016 82.296 271.488 81.048 271.488 78.264C271.488 77.496 271.792 76.6 272.256 76.024C270.928 76.12 269.344 76.36 267.904 76.616L267.68 74.264C268.528 74.184 269.664 74.04 270.512 73.944C271.76 73.16 273.6 71.576 274.576 70.696C273.952 70.744 272.448 70.824 271.808 70.888C271.424 70.92 270.848 70.984 270.256 71.048L270.144 68.584Z" fill="#837978"/>
<path d="M287.443 369.208C286.386 369.208 285.407 369.035 284.505 368.688C283.604 368.324 282.841 367.769 282.217 367.024C281.611 366.279 281.221 365.343 281.047 364.216H284.687C284.878 364.736 285.251 365.135 285.805 365.412C286.36 365.672 286.949 365.802 287.573 365.802C288.284 365.802 288.882 365.663 289.367 365.386C289.87 365.091 290.269 364.71 290.563 364.242C290.858 363.757 291.075 363.228 291.213 362.656C291.352 362.067 291.43 361.469 291.447 360.862C291.447 360.793 291.447 360.723 291.447 360.654C291.447 360.567 291.447 360.489 291.447 360.42C291.066 360.975 290.607 361.408 290.069 361.72C289.532 362.032 288.977 362.249 288.405 362.37C287.833 362.491 287.287 362.552 286.767 362.552C285.675 362.552 284.687 362.327 283.803 361.876C282.919 361.408 282.217 360.741 281.697 359.874C281.195 359.007 280.943 357.959 280.943 356.728C280.943 355.359 281.255 354.206 281.879 353.27C282.503 352.317 283.327 351.597 284.349 351.112C285.389 350.627 286.525 350.384 287.755 350.384C289.107 350.384 290.243 350.653 291.161 351.19C292.08 351.727 292.808 352.455 293.345 353.374C293.883 354.293 294.264 355.315 294.489 356.442C294.732 357.569 294.853 358.721 294.853 359.9C294.853 361.183 294.715 362.387 294.437 363.514C294.177 364.623 293.753 365.611 293.163 366.478C292.591 367.327 291.829 367.995 290.875 368.48C289.939 368.965 288.795 369.208 287.443 369.208ZM287.599 359.432C288.275 359.432 288.83 359.293 289.263 359.016C289.714 358.739 290.052 358.392 290.277 357.976C290.52 357.543 290.641 357.092 290.641 356.624C290.641 356.035 290.503 355.532 290.225 355.116C289.965 354.683 289.61 354.353 289.159 354.128C288.726 353.885 288.223 353.764 287.651 353.764C287.027 353.764 286.49 353.894 286.039 354.154C285.589 354.414 285.242 354.761 284.999 355.194C284.757 355.627 284.635 356.095 284.635 356.598C284.635 357.395 284.887 358.071 285.389 358.626C285.909 359.163 286.646 359.432 287.599 359.432Z" fill="#E5005A"/>
<path d="M304.896 369.128C304.362 369.128 303.866 369.064 303.408 368.936C302.949 368.797 302.538 368.589 302.176 368.312C301.824 368.035 301.525 367.683 301.28 367.256C301.045 366.829 300.885 366.323 300.8 365.736H303.056C303.12 365.949 303.237 366.152 303.408 366.344C303.578 366.536 303.792 366.691 304.048 366.808C304.314 366.925 304.613 366.984 304.944 366.984C305.349 366.984 305.69 366.915 305.968 366.776C306.245 366.627 306.458 366.424 306.608 366.168C306.757 365.912 306.832 365.608 306.832 365.256C306.832 364.723 306.661 364.296 306.32 363.976C305.989 363.645 305.52 363.48 304.912 363.48C304.56 363.48 304.229 363.544 303.92 363.672C303.621 363.789 303.333 363.955 303.056 364.168H301.104L301.312 357.672H308.768V359.768H303.472L303.344 362.072C303.664 361.848 304.032 361.693 304.448 361.608C304.874 361.512 305.296 361.469 305.712 361.48C306.448 361.501 307.072 361.661 307.584 361.96C308.096 362.259 308.485 362.675 308.752 363.208C309.029 363.741 309.168 364.365 309.168 365.08C309.168 365.944 308.976 366.68 308.592 367.288C308.218 367.896 307.706 368.355 307.056 368.664C306.416 368.973 305.696 369.128 304.896 369.128Z" fill="#E5005A"/>
<path d="M296.949 369.208C296.567 369.208 296.264 369.095 296.039 368.87C295.831 368.627 295.727 368.333 295.727 367.986C295.727 367.622 295.839 367.327 296.065 367.102C296.29 366.877 296.585 366.764 296.949 366.764C297.295 366.764 297.581 366.877 297.807 367.102C298.032 367.327 298.145 367.622 298.145 367.986C298.145 368.333 298.032 368.627 297.807 368.87C297.599 369.095 297.313 369.208 296.949 369.208Z" fill="#E5005A"/>
<path d="M312.654 369L320.014 357.672H322.318L314.99 369H312.654ZM321.118 369.112C320.574 369.112 320.094 369 319.678 368.776C319.273 368.541 318.953 368.216 318.718 367.8C318.494 367.384 318.382 366.893 318.382 366.328C318.382 365.763 318.499 365.272 318.734 364.856C318.969 364.44 319.294 364.12 319.71 363.896C320.126 363.661 320.606 363.544 321.15 363.544C321.683 363.544 322.153 363.656 322.558 363.88C322.963 364.104 323.278 364.424 323.502 364.84C323.726 365.245 323.838 365.736 323.838 366.312C323.838 366.877 323.721 367.373 323.486 367.8C323.262 368.216 322.942 368.541 322.526 368.776C322.121 369 321.651 369.112 321.118 369.112ZM321.118 367.432C321.353 367.432 321.545 367.384 321.694 367.288C321.843 367.181 321.95 367.043 322.014 366.872C322.089 366.701 322.126 366.525 322.126 366.344C322.126 366.163 322.089 365.992 322.014 365.832C321.95 365.661 321.843 365.523 321.694 365.416C321.545 365.309 321.353 365.256 321.118 365.256C320.745 365.256 320.478 365.373 320.318 365.608C320.158 365.832 320.078 366.083 320.078 366.36C320.089 366.637 320.174 366.888 320.334 367.112C320.494 367.325 320.755 367.432 321.118 367.432ZM313.902 363.112C313.347 363.112 312.867 363 312.462 362.776C312.057 362.541 311.737 362.216 311.502 361.8C311.278 361.384 311.166 360.899 311.166 360.344C311.166 359.768 311.278 359.272 311.502 358.856C311.737 358.44 312.062 358.12 312.478 357.896C312.894 357.661 313.374 357.544 313.918 357.544C314.462 357.544 314.931 357.656 315.326 357.88C315.731 358.104 316.046 358.424 316.27 358.84C316.494 359.245 316.606 359.736 316.606 360.312C316.606 360.877 316.494 361.373 316.27 361.8C316.046 362.216 315.726 362.541 315.31 362.776C314.905 363 314.435 363.112 313.902 363.112ZM313.902 361.416C314.137 361.416 314.329 361.368 314.478 361.272C314.627 361.165 314.734 361.032 314.798 360.872C314.862 360.701 314.894 360.52 314.894 360.328C314.894 360.147 314.857 359.976 314.782 359.816C314.718 359.645 314.611 359.507 314.462 359.4C314.323 359.293 314.137 359.24 313.902 359.24C313.529 359.24 313.257 359.357 313.086 359.592C312.926 359.816 312.851 360.072 312.862 360.36C312.862 360.637 312.942 360.883 313.102 361.096C313.273 361.309 313.539 361.416 313.902 361.416Z" fill="#E5005A"/>
<path d="M285.836 107.208C284.969 107.208 284.129 107.113 283.314 106.922C282.499 106.714 281.754 106.393 281.078 105.96C280.419 105.509 279.891 104.92 279.492 104.192C279.111 103.464 278.92 102.589 278.92 101.566C278.92 100.89 279.015 100.283 279.206 99.746C279.414 99.1914 279.709 98.706 280.09 98.29C280.489 97.8567 280.965 97.51 281.52 97.25C281.052 96.9554 280.671 96.6087 280.376 96.21C280.081 95.794 279.865 95.3434 279.726 94.858C279.587 94.3727 279.518 93.8787 279.518 93.376C279.518 92.4574 279.7 91.686 280.064 91.062C280.428 90.4207 280.913 89.9094 281.52 89.528C282.127 89.1294 282.811 88.8434 283.574 88.67C284.337 88.4794 285.108 88.384 285.888 88.384C286.685 88.384 287.457 88.4794 288.202 88.67C288.947 88.8434 289.623 89.138 290.23 89.554C290.837 89.9527 291.322 90.4814 291.686 91.14C292.05 91.7814 292.232 92.5614 292.232 93.48C292.232 93.948 292.154 94.4247 291.998 94.91C291.859 95.378 291.634 95.8114 291.322 96.21C291.027 96.6087 290.646 96.9467 290.178 97.224C290.733 97.4667 291.209 97.796 291.608 98.212C292.007 98.628 292.31 99.122 292.518 99.694C292.726 100.266 292.83 100.907 292.83 101.618C292.83 102.641 292.631 103.507 292.232 104.218C291.833 104.929 291.296 105.509 290.62 105.96C289.944 106.393 289.19 106.714 288.358 106.922C287.543 107.113 286.703 107.208 285.836 107.208ZM285.862 103.854C286.243 103.854 286.625 103.811 287.006 103.724C287.387 103.637 287.734 103.499 288.046 103.308C288.358 103.1 288.601 102.849 288.774 102.554C288.965 102.242 289.06 101.861 289.06 101.41C289.06 100.855 288.921 100.405 288.644 100.058C288.367 99.694 287.985 99.4254 287.5 99.252C287.032 99.0614 286.486 98.966 285.862 98.966C285.255 98.966 284.701 99.0614 284.198 99.252C283.713 99.4254 283.331 99.694 283.054 100.058C282.777 100.405 282.638 100.855 282.638 101.41C282.638 101.861 282.733 102.242 282.924 102.554C283.115 102.849 283.357 103.1 283.652 103.308C283.964 103.499 284.311 103.637 284.692 103.724C285.073 103.811 285.463 103.854 285.862 103.854ZM285.888 96.132C286.443 96.132 286.911 96.0454 287.292 95.872C287.691 95.6814 287.994 95.4214 288.202 95.092C288.427 94.7454 288.54 94.364 288.54 93.948C288.54 93.428 288.427 93.0034 288.202 92.674C287.977 92.3274 287.656 92.0674 287.24 91.894C286.841 91.7034 286.365 91.608 285.81 91.608C285.273 91.608 284.805 91.7034 284.406 91.894C284.025 92.0674 283.721 92.3187 283.496 92.648C283.288 92.9774 283.184 93.376 283.184 93.844C283.184 94.312 283.297 94.7194 283.522 95.066C283.747 95.4127 284.059 95.6814 284.458 95.872C284.874 96.0454 285.351 96.132 285.888 96.132Z" fill="#837978"/>
<path d="M296.654 107L304.014 95.6721H306.318L298.99 107H296.654ZM305.118 107.112C304.574 107.112 304.094 107 303.678 106.776C303.273 106.541 302.953 106.216 302.718 105.8C302.494 105.384 302.382 104.893 302.382 104.328C302.382 103.763 302.499 103.272 302.734 102.856C302.969 102.44 303.294 102.12 303.71 101.896C304.126 101.661 304.606 101.544 305.15 101.544C305.683 101.544 306.153 101.656 306.558 101.88C306.963 102.104 307.278 102.424 307.502 102.84C307.726 103.245 307.838 103.736 307.838 104.312C307.838 104.877 307.721 105.373 307.486 105.8C307.262 106.216 306.942 106.541 306.526 106.776C306.121 107 305.651 107.112 305.118 107.112ZM305.118 105.432C305.353 105.432 305.545 105.384 305.694 105.288C305.843 105.181 305.95 105.043 306.014 104.872C306.089 104.701 306.126 104.525 306.126 104.344C306.126 104.163 306.089 103.992 306.014 103.832C305.95 103.661 305.843 103.523 305.694 103.416C305.545 103.309 305.353 103.256 305.118 103.256C304.745 103.256 304.478 103.373 304.318 103.608C304.158 103.832 304.078 104.083 304.078 104.36C304.089 104.637 304.174 104.888 304.334 105.112C304.494 105.325 304.755 105.432 305.118 105.432ZM297.902 101.112C297.347 101.112 296.867 101 296.462 100.776C296.057 100.541 295.737 100.216 295.502 99.8001C295.278 99.3841 295.166 98.8987 295.166 98.3441C295.166 97.7681 295.278 97.2721 295.502 96.8561C295.737 96.4401 296.062 96.1201 296.478 95.8961C296.894 95.6614 297.374 95.5441 297.918 95.5441C298.462 95.5441 298.931 95.6561 299.326 95.8801C299.731 96.1041 300.046 96.4241 300.27 96.8401C300.494 97.2454 300.606 97.7361 300.606 98.3121C300.606 98.8774 300.494 99.3734 300.27 99.8001C300.046 100.216 299.726 100.541 299.31 100.776C298.905 101 298.435 101.112 297.902 101.112ZM297.902 99.4161C298.137 99.4161 298.329 99.3681 298.478 99.2721C298.627 99.1654 298.734 99.0321 298.798 98.8721C298.862 98.7014 298.894 98.5201 298.894 98.3281C298.894 98.1467 298.857 97.9761 298.782 97.8161C298.718 97.6454 298.611 97.5067 298.462 97.4001C298.323 97.2934 298.137 97.2401 297.902 97.2401C297.529 97.2401 297.257 97.3574 297.086 97.5921C296.926 97.8161 296.851 98.0721 296.862 98.3601C296.862 98.6374 296.942 98.8827 297.102 99.0961C297.273 99.3094 297.539 99.4161 297.902 99.4161Z" fill="#837978"/>
<path d="M0 137H150V139H0V137Z" fill="#1492D9"/>
<path fill-rule="evenodd" clip-rule="evenodd" d="M149.293 138.707L197.293 186.707L198.707 185.293L150.707 137.293L149.293 138.707Z" fill="#1492D9"/>
<path d="M50 29H182V31H50V29Z" fill="#1492D9"/>
<path fill-rule="evenodd" clip-rule="evenodd" d="M181.244 30.6548L249.244 109.155L250.756 107.845L182.756 29.3453L181.244 30.6548Z" fill="#1492D9"/>
<path d="M120.923 109.29C120.747 109.972 120.527 111.05 120.417 111.556C120.109 113.008 119.515 115.824 118.943 118.068C118.151 121.126 116.677 125.592 115.423 128.32L111.727 127.066C113.025 124.888 114.763 120.202 115.599 117.144C116.171 115.054 116.633 112.832 116.787 111.446C116.897 110.522 116.919 109.532 116.853 108.982L120.923 109.29ZM114.895 112.37C117.733 112.37 120.747 111.952 123.695 111.27V114.592C120.967 115.252 117.425 115.604 114.873 115.604C113.751 115.604 112.893 115.56 112.145 115.516L112.057 112.194C113.245 112.326 113.949 112.37 114.895 112.37ZM121.781 115.934C123.057 115.802 124.707 115.692 126.137 115.692C127.369 115.692 128.689 115.758 130.031 115.89L129.965 119.08C128.865 118.948 127.501 118.794 126.137 118.794C124.553 118.794 123.189 118.86 121.781 119.036V115.934ZM123.387 121.566C123.233 122.138 123.101 122.864 123.101 123.304C123.101 124.228 123.783 124.8 125.719 124.8C127.215 124.8 128.733 124.624 130.427 124.338L130.295 127.726C129.041 127.88 127.545 128.034 125.697 128.034C121.847 128.034 119.801 126.648 119.801 124.404C119.801 123.282 120.043 122.094 120.219 121.258L123.387 121.566Z" fill="#1492D9"/>
<path d="M97.8447 109.378C97.6907 110.412 97.5587 111.754 97.5147 112.722C97.4047 115.032 97.2507 119.784 97.2507 122.204C97.2507 124.316 98.4607 124.976 99.9567 124.976C103.367 124.976 105.677 122.974 107.283 120.51L109.703 123.48C108.339 125.592 105.061 128.628 99.9347 128.628C96.0847 128.628 93.6867 126.89 93.6867 123.04C93.6867 120.268 93.8847 114.372 93.8847 112.722C93.8847 111.534 93.7747 110.324 93.5547 109.334L97.8447 109.378Z" fill="#1492D9"/>
<path d="M77.9455 121.346H81.6195V123.37H77.9455V121.346ZM76.4935 110.126H83.1375V112.414H76.4935V110.126ZM76.1635 115.032H89.4515V117.474H76.1635V115.032ZM78.6715 118.244H82.9835V126.45H78.6715V124.316H80.5415V120.4H78.6715V118.244ZM76.7795 118.244H79.1775V127.66H76.7795V118.244ZM78.5175 108.278H81.2235V111.644H78.5175V108.278ZM86.9435 118.112L89.4735 118.662C88.1535 123.26 85.6675 126.912 82.3015 129.156C81.9715 128.628 81.0695 127.572 80.5415 127.088C83.7095 125.262 85.8875 122.072 86.9435 118.112ZM76.8235 112.678L78.8255 112.194C79.1115 113.008 79.3095 114.108 79.3315 114.834L77.2195 115.362C77.2195 114.658 77.0655 113.536 76.8235 112.678ZM85.4695 110.258L87.5375 109.18C88.3955 110.236 89.2315 111.666 89.6055 112.656L87.4275 113.888C87.0975 112.898 86.2615 111.358 85.4695 110.258ZM80.5855 112.216L82.9395 112.634C82.5875 113.624 82.2795 114.57 82.0375 115.252L80.1015 114.834C80.2775 114.064 80.4975 112.986 80.5855 112.216ZM68.8595 108.96H76.6035V111.754H68.8595V108.96ZM70.8835 113.712H74.6675V116.264H70.8835V113.712ZM70.8835 118.178H74.6675V120.73H70.8835V118.178ZM69.6515 110.5H72.2255V124.162H69.6515V110.5ZM73.1055 110.478H75.7455V129.09H73.1055V110.478ZM68.3975 123.502C70.0035 123.304 72.3135 122.908 74.5795 122.534L74.7995 125.196C72.7975 125.636 70.6855 126.054 68.9255 126.406L68.3975 123.502ZM83.3795 108.19H86.1735C86.0415 117.188 86.5915 125.372 87.3175 125.394C87.5375 125.394 87.6695 124.492 87.7355 122.908C88.1755 123.546 89.3195 124.426 89.7595 124.712C89.1435 128.386 87.9335 129.09 87.1635 129.09C83.9735 129.046 83.4675 120.906 83.3795 108.19Z" fill="#1492D9"/>
<path d="M55.6594 108.828H64.7234V117.804H55.4394V115.142H61.6214V111.49H55.6594V108.828ZM53.7234 108.828H56.8254V122.886H53.7234V108.828ZM55.5274 112.15H62.5674V114.416H55.5274V112.15ZM52.4254 122.094C54.2954 121.83 57.0894 121.302 59.7514 120.796L59.9934 123.524C57.5734 124.096 54.9994 124.646 52.9094 125.108L52.4254 122.094ZM60.5874 116.748C61.4674 119.586 63.2934 121.654 66.5934 122.49C65.9114 123.128 65.0094 124.382 64.5914 125.24C60.8294 123.942 59.0034 121.236 57.8814 117.232L60.5874 116.748ZM63.9754 117.188L66.3954 119.19C65.0094 120.026 63.5794 120.862 62.4794 121.368L60.6754 119.718C61.7094 119.102 63.1394 118.002 63.9754 117.188ZM51.6114 116.704V124.998H48.4874V119.652H46.2214V116.704H51.6114ZM51.6114 123.612C52.4254 124.976 53.9214 125.526 56.0774 125.614C58.7614 125.724 63.7774 125.658 66.9454 125.372C66.5934 126.142 66.0874 127.682 65.9334 128.628C63.1394 128.782 58.7614 128.826 56.0114 128.694C53.3934 128.584 51.6554 128.034 50.2034 126.34C49.3014 127.132 48.3774 127.924 47.1894 128.87L45.6494 125.526C46.6174 124.976 47.7174 124.316 48.6854 123.612H51.6114ZM46.1334 110.61L48.5094 108.696C49.7634 109.598 51.3694 110.962 52.1174 111.974L49.5654 114.086C48.9274 113.074 47.3874 111.6 46.1334 110.61Z" fill="#1492D9"/>
<path d="M23.5183 110.346H32.9343V113.14H23.5183V110.346ZM26.8843 108.234H29.7003V115.758H26.8843V108.234ZM26.1143 116.572V118.112H30.4923V116.572H26.1143ZM23.8263 114.218H32.9343V120.488H23.8263V114.218ZM26.8843 119.014L28.8203 119.982C27.8083 122.49 26.1143 125.68 24.2663 127.396C24.0243 126.538 23.3863 125.24 22.9463 124.448C24.4863 123.128 26.1363 120.774 26.8843 119.014ZM29.5683 119.498C30.2723 120.07 32.5823 122.446 33.1103 123.018L31.2843 125.482C30.5583 124.162 28.9743 121.984 28.0723 120.862L29.5683 119.498ZM27.1043 115.582H29.4803V119.542H29.7003V129.068H26.8843V119.542H27.1043V115.582ZM33.1983 108.96H44.0003V111.666H33.1983V108.96ZM36.7843 118.31V119.234H40.3483V118.31H36.7843ZM36.7843 121.412V122.336H40.3483V121.412H36.7843ZM36.7843 115.23V116.154H40.3483V115.23H36.7843ZM33.9243 112.898H43.3623V124.668H33.9243V112.898ZM36.9383 110.5L40.4363 110.874C39.9743 112.282 39.4463 113.646 39.0723 114.57L36.4323 114.086C36.6523 113.03 36.8723 111.578 36.9383 110.5ZM35.6623 124.426L38.1703 126.076C36.9603 127.22 34.9363 128.496 33.2643 129.156C32.7583 128.584 31.8563 127.682 31.1963 127.154C32.8243 126.56 34.7163 125.35 35.6623 124.426ZM38.6983 126.076L41.0303 124.646C42.1523 125.46 43.7363 126.692 44.5283 127.528L42.0423 129.134C41.3603 128.32 39.8423 126.978 38.6983 126.076Z" fill="#1492D9"/>
<path d="M12.2538 108.498H15.4878V113.25H12.2538V108.498ZM6.68784 111.622H20.9658V114.592H6.68784V111.622ZM12.3198 112.898L15.3778 113.91C13.5738 117.32 10.5818 120.356 7.50184 122.204C7.08384 121.522 6.04984 120.114 5.43384 119.476C8.27184 118.09 10.9118 115.648 12.3198 112.898ZM6.70984 125.724C9.01984 125.35 12.4738 124.69 15.6858 124.03L15.9938 126.89C13.1118 127.572 9.98784 128.254 7.58984 128.76L6.70984 125.724ZM19.2058 115.934L21.5818 118.2C19.9978 119.454 18.2818 120.862 16.9178 121.72L15.1358 119.85C16.4118 118.904 18.1718 117.232 19.2058 115.934ZM15.9718 113.58C16.6978 118.992 18.3038 123.832 21.9118 126.142C21.1638 126.758 20.1518 128.012 19.6458 128.892C15.5978 125.922 14.0138 120.642 13.0678 113.998L15.9718 113.58ZM5.08184 108.234L8.07384 109.202C6.62184 112.92 4.24584 116.99 1.78184 119.476C1.49584 118.706 0.659836 116.924 0.131836 116.11C2.08984 114.24 3.98184 111.226 5.08184 108.234ZM3.05784 114.548L6.09384 111.512V111.534V129.024H3.05784V114.548ZM8.95384 119.608L11.9898 116.572V116.594V126.78H8.95384V119.608Z" fill="#1492D9"/>
<path d="M148.219 1.28993C148.043 1.97193 147.823 3.04993 147.713 3.55593C147.405 5.00793 146.811 7.82394 146.239 10.0679C145.447 13.1259 143.973 17.5919 142.719 20.3199L139.023 19.0659C140.321 16.8879 142.059 12.2019 142.895 9.14393C143.467 7.05393 143.929 4.83193 144.083 3.44593C144.193 2.52193 144.215 1.53193 144.149 0.981934L148.219 1.28993ZM142.191 4.36993C145.029 4.36993 148.043 3.95193 150.991 3.26993V6.59194C148.263 7.25193 144.721 7.60394 142.169 7.60394C141.047 7.60394 140.189 7.55993 139.441 7.51593L139.353 4.19393C140.541 4.32593 141.245 4.36993 142.191 4.36993ZM149.077 7.93393C150.353 7.80194 152.003 7.69194 153.433 7.69194C154.665 7.69194 155.985 7.75793 157.327 7.88994L157.261 11.0799C156.161 10.9479 154.797 10.7939 153.433 10.7939C151.849 10.7939 150.485 10.8599 149.077 11.0359V7.93393ZM150.683 13.5659C150.529 14.1379 150.397 14.8639 150.397 15.3039C150.397 16.2279 151.079 16.7999 153.015 16.7999C154.511 16.7999 156.029 16.6239 157.723 16.3379L157.591 19.7259C156.337 19.8799 154.841 20.0339 152.993 20.0339C149.143 20.0339 147.097 18.6479 147.097 16.4039C147.097 15.2819 147.339 14.0939 147.515 13.2579L150.683 13.5659Z" fill="#1492D9"/>
<path d="M136.916 18.142C135.97 18.956 134.672 19.682 132.714 19.682C130.954 19.682 129.788 18.362 129.788 16.052C129.788 13.698 130.558 10.684 130.558 8.74796C130.558 7.77996 130.052 7.25196 129.216 7.25196C127.17 7.25196 123.848 10.772 122.264 12.884L122.22 8.81396C123.54 7.44996 127.236 4.06196 130.25 4.06196C132.802 4.06196 133.924 5.60196 133.924 7.49396C133.924 9.80396 133.242 12.73 133.242 15.04C133.242 15.524 133.506 15.81 133.924 15.81C134.606 15.81 135.574 15.282 136.498 14.38L136.916 18.142ZM121.472 7.69196C120.328 7.80196 118.414 8.06596 117.05 8.24196L116.72 4.85396C117.424 4.87596 117.974 4.87596 118.898 4.83196C120.394 4.74396 123.276 4.30396 124.244 3.97396L125.256 5.31596C124.882 5.79996 124.156 6.94396 123.782 7.49396L122.154 12.268C121.208 13.588 119.316 16.536 118.26 17.944L116.192 15.018C117.6 13.28 120.064 10.112 121.296 8.24196L121.318 7.97796L121.472 7.69196ZM121.186 3.11596C121.186 2.41196 121.208 1.70796 121.076 0.959961L124.926 1.06996C124.508 3.00596 123.76 8.48396 123.76 12.444C123.76 14.116 123.76 16.272 123.914 18.384C123.936 18.78 124.024 19.726 124.09 20.276H120.438C120.482 19.704 120.504 18.802 120.504 18.45C120.548 16.316 120.57 14.644 120.658 11.696C120.724 9.71596 121.186 4.01796 121.186 3.11596Z" fill="#1492D9"/>
<path d="M105.115 3.37996C104.939 2.85196 104.653 1.99396 104.345 1.17996L107.931 0.761963C108.327 2.69796 108.855 4.34796 109.383 5.75596C110.065 7.55996 111.055 9.36396 111.649 10.222C112.067 10.838 112.507 11.366 112.947 11.872L111.341 14.248C109.999 14.006 107.161 13.698 105.159 13.522L105.423 10.706C106.413 10.794 107.777 10.904 108.393 10.948C107.667 9.71596 106.831 8.04396 106.171 6.32796C105.709 5.13996 105.379 4.12796 105.115 3.37996ZM97.1289 4.01796C101.485 4.54596 104.763 4.50196 107.469 4.19396C109.559 3.95196 111.363 3.57796 113.101 3.07196L113.519 6.41596C112.133 6.81196 110.351 7.11996 108.503 7.33996C105.489 7.69196 102.035 7.82396 97.1729 7.42796L97.1289 4.01796ZM102.123 11.784C101.375 12.818 101.023 13.808 101.023 14.71C101.023 16.426 102.519 17.13 105.401 17.13C107.887 17.13 109.845 16.888 111.407 16.602L111.209 19.968C110.021 20.188 107.975 20.496 105.181 20.496C100.495 20.496 97.5689 18.626 97.5689 15.348C97.5689 13.94 97.9649 12.62 98.7789 11.014L102.123 11.784Z" fill="#1492D9"/>
<path d="M75.5417 4.34801H78.7317V8.70401C78.7317 12.18 78.2697 17.482 75.7617 20.716C75.1897 20.166 73.8037 19.176 73.0557 18.846C75.3657 15.92 75.5417 11.652 75.5417 8.68201V4.34801ZM77.3897 4.34801H92.5037V9.65001H77.3897V7.38401H89.3577V6.61401H77.3897V4.34801ZM74.0897 1.11401H93.3177V3.77601H74.0897V1.11401ZM81.7677 13.324H92.3717V15.216H81.7677V13.324ZM81.7677 15.788H92.3717V17.68H81.7677V15.788ZM81.4157 18.296H93.5157V20.474H81.4157V18.296ZM82.4717 10.64H92.9217V12.752H82.4717V21.068H79.4357V13.632L82.4497 10.64H82.4717ZM85.0457 11.806H88.0377V19.242H85.0457V11.806ZM81.0417 8.74801L84.0777 9.71601C82.9117 12.004 80.9757 14.292 79.0397 15.656C78.6217 15.018 77.5657 13.676 76.9497 13.06C78.5997 12.07 80.1837 10.442 81.0417 8.74801ZM86.0797 8.74801L89.3577 9.49601C88.5437 10.64 87.7077 11.762 87.0917 12.488L84.7817 11.762C85.2657 10.882 85.7937 9.65001 86.0797 8.74801Z" fill="#1492D9"/>
<path d="M53.1677 5.88797H59.1297V8.19797H53.1677V5.88797ZM53.1677 9.40797H59.1297V11.63H53.1677V9.40797ZM53.1677 13.016H59.1297V15.326H53.1677V13.016ZM62.8037 10.662H71.0317V13.324H62.8037V10.662ZM54.2237 2.27997H57.6117V4.65597H54.2237V2.27997ZM60.9997 1.31197H68.9417V3.90797H60.9997V1.31197ZM61.1757 14.93H71.4937V17.658H61.1757V14.93ZM64.9597 8.83597H67.9957V21.024H64.9597V8.83597ZM55.3677 7.11997H57.4357V13.852H55.3677V7.11997ZM68.1277 1.31197H70.9437C70.9437 1.31197 70.9217 1.94997 70.8997 2.27997C70.8117 5.73397 70.6357 7.31797 70.1517 7.93397C69.7557 8.43997 69.2937 8.63797 68.7217 8.74797C68.2157 8.83597 67.4017 8.85797 66.5217 8.83597C66.4777 8.04397 66.2137 6.96597 65.8177 6.28397C66.4117 6.34997 66.8737 6.37197 67.1597 6.37197C67.4017 6.37197 67.5777 6.32797 67.7317 6.12997C67.9517 5.84397 68.0617 4.72197 68.1277 1.68597V1.31197ZM62.0557 8.96797L64.6077 9.47397C64.2557 11.476 63.5517 13.522 62.7377 14.798C62.2097 14.424 61.0657 13.852 60.4497 13.588C61.2417 12.444 61.7917 10.662 62.0557 8.96797ZM53.4317 0.167969L56.2477 0.783969C55.4557 3.84197 54.0917 6.87797 52.5077 8.74797C52.0237 8.26397 50.9017 7.29597 50.2637 6.87797C51.7377 5.29397 52.8597 2.74197 53.4317 0.167969ZM52.0237 5.88797H54.5537V11.718C54.5537 14.6 54.2677 18.626 52.6177 21.134C52.1557 20.716 51.0117 19.99 50.4177 19.726C51.9137 17.46 52.0237 14.182 52.0237 11.696V5.88797ZM58.2717 5.88797H60.8677V18.142C60.8677 19.308 60.6697 20.1 59.9437 20.562C59.1957 21.002 58.2937 21.068 57.0397 21.068C56.9517 20.32 56.5337 19.088 56.1597 18.384C56.8857 18.428 57.6777 18.428 57.9417 18.428C58.1837 18.428 58.2717 18.34 58.2717 18.076V5.88797ZM63.3757 2.19197H66.2137C65.9937 5.49197 65.3557 7.95597 61.9897 9.45197C61.6817 8.76997 60.9557 7.73597 60.3397 7.25197C62.9357 6.19597 63.2217 4.50197 63.3757 2.19197ZM56.8637 2.27997H57.4577L57.8537 2.16997L59.6577 3.26997C59.1517 4.67797 58.2937 6.48197 57.5897 7.62597C57.0837 7.25197 56.2257 6.72397 55.6757 6.43797C56.1377 5.40397 56.6437 3.75397 56.8637 2.76397V2.27997Z" fill="#1492D9"/>
<path d="M31.4097 171.28C29.5897 171.28 28.0497 170.953 26.7897 170.3C25.5297 169.647 24.5031 168.748 23.7097 167.605C22.9164 166.438 22.3447 165.097 21.9947 163.58C21.6447 162.04 21.4697 160.407 21.4697 158.68C21.4697 156.907 21.6447 155.25 21.9947 153.71C22.3681 152.17 22.9514 150.817 23.7447 149.65C24.5614 148.483 25.5997 147.573 26.8597 146.92C28.1431 146.267 29.6831 145.94 31.4797 145.94C33.3464 145.94 34.9097 146.278 36.1697 146.955C37.4531 147.632 38.4797 148.577 39.2497 149.79C40.0431 150.98 40.6031 152.333 40.9297 153.85C41.2797 155.367 41.4547 156.953 41.4547 158.61C41.4547 160.313 41.2797 161.923 40.9297 163.44C40.5797 164.957 40.0197 166.31 39.2497 167.5C38.4797 168.667 37.4531 169.588 36.1697 170.265C34.8864 170.942 33.2997 171.28 31.4097 171.28ZM31.4097 166.66C32.5531 166.66 33.4514 166.403 34.1047 165.89C34.7814 165.353 35.2831 164.665 35.6097 163.825C35.9597 162.985 36.1814 162.11 36.2747 161.2C36.3914 160.267 36.4497 159.403 36.4497 158.61C36.4497 157.863 36.3914 157.035 36.2747 156.125C36.1814 155.192 35.9714 154.317 35.6447 153.5C35.3181 152.66 34.8281 151.972 34.1747 151.435C33.5214 150.898 32.6347 150.63 31.5147 150.63C30.3947 150.63 29.4964 150.898 28.8197 151.435C28.1431 151.948 27.6297 152.625 27.2797 153.465C26.9531 154.305 26.7314 155.18 26.6147 156.09C26.4981 157 26.4397 157.84 26.4397 158.61C26.4397 159.38 26.4864 160.232 26.5797 161.165C26.6964 162.098 26.9181 162.985 27.2447 163.825C27.5714 164.665 28.0614 165.353 28.7147 165.89C29.3914 166.403 30.2897 166.66 31.4097 166.66Z" fill="#1492D9"/>
<path d="M10.75 171.245C9.56004 171.245 8.41671 171.105 7.32004 170.825C6.22337 170.545 5.22004 170.102 4.31004 169.495C3.40004 168.888 2.64171 168.118 2.03504 167.185C1.42837 166.228 1.05504 165.085 0.915039 163.755H5.88504C6.04837 164.408 6.36337 164.957 6.83004 165.4C7.32004 165.82 7.90337 166.123 8.58004 166.31C9.28004 166.497 10.015 166.59 10.785 166.59C11.2984 166.59 11.8 166.543 12.29 166.45C12.8034 166.357 13.2584 166.193 13.655 165.96C14.075 165.727 14.4017 165.412 14.635 165.015C14.8684 164.618 14.985 164.117 14.985 163.51C14.985 162.95 14.88 162.483 14.67 162.11C14.46 161.737 14.18 161.433 13.83 161.2C13.48 160.967 13.06 160.803 12.57 160.71C12.1034 160.617 11.6017 160.57 11.065 160.57H8.19504V156.3H10.12C10.7267 156.3 11.275 156.242 11.765 156.125C12.255 155.985 12.6634 155.798 12.99 155.565C13.34 155.308 13.6084 155.005 13.795 154.655C13.9817 154.282 14.075 153.862 14.075 153.395C14.075 152.695 13.9234 152.147 13.62 151.75C13.3167 151.33 12.8967 151.027 12.36 150.84C11.8234 150.653 11.205 150.56 10.505 150.56C9.85171 150.56 9.23337 150.665 8.65004 150.875C8.09004 151.062 7.62337 151.342 7.25004 151.715C6.87671 152.088 6.63171 152.543 6.51504 153.08H1.65004C1.79004 151.82 2.12837 150.747 2.66504 149.86C3.20171 148.95 3.89004 148.203 4.73004 147.62C5.57004 147.037 6.50337 146.617 7.53004 146.36C8.58004 146.08 9.66504 145.94 10.785 145.94C11.8584 145.94 12.885 146.057 13.865 146.29C14.845 146.523 15.72 146.908 16.49 147.445C17.2834 147.958 17.9134 148.647 18.38 149.51C18.8467 150.373 19.08 151.412 19.08 152.625C19.08 153.372 18.9517 154.072 18.695 154.725C18.4617 155.378 18.1117 155.962 17.645 156.475C17.2017 156.965 16.6767 157.373 16.07 157.7C16.98 157.957 17.7267 158.377 18.31 158.96C18.8934 159.543 19.325 160.232 19.605 161.025C19.9084 161.818 20.06 162.67 20.06 163.58C20.06 165.073 19.78 166.322 19.22 167.325C18.6834 168.305 17.96 169.087 17.05 169.67C16.14 170.23 15.1367 170.638 14.04 170.895C12.9434 171.128 11.8467 171.245 10.75 171.245Z" fill="#1492D9"/>
<path d="M44.0122 171.28C43.4989 171.28 43.0905 171.128 42.7872 170.825C42.5072 170.498 42.3672 170.102 42.3672 169.635C42.3672 169.145 42.5189 168.748 42.8222 168.445C43.1255 168.142 43.5222 167.99 44.0122 167.99C44.4789 167.99 44.8639 168.142 45.1672 168.445C45.4705 168.748 45.6222 169.145 45.6222 169.635C45.6222 170.102 45.4705 170.498 45.1672 170.825C44.8872 171.128 44.5022 171.28 44.0122 171.28Z" fill="#1492D9"/>
<path d="M53.4668 171.168C52.7668 171.168 52.1158 171.084 51.5138 170.916C50.9118 170.734 50.3728 170.461 49.8968 170.097C49.4348 169.733 49.0428 169.271 48.7208 168.711C48.4128 168.151 48.2028 167.486 48.0908 166.716H51.0518C51.1358 166.996 51.2898 167.262 51.5138 167.514C51.7378 167.766 52.0178 167.969 52.3538 168.123C52.7038 168.277 53.0958 168.354 53.5298 168.354C54.0618 168.354 54.5098 168.263 54.8738 168.081C55.2378 167.885 55.5178 167.619 55.7138 167.283C55.9098 166.947 56.0078 166.548 56.0078 166.086C56.0078 165.386 55.7838 164.826 55.3358 164.406C54.9018 163.972 54.2858 163.755 53.4878 163.755C53.0258 163.755 52.5918 163.839 52.1858 164.007C51.7938 164.161 51.4158 164.378 51.0518 164.658H48.4898L48.7628 156.132H58.5488V158.883H51.5978L51.4298 161.907C51.8498 161.613 52.3328 161.41 52.8788 161.298C53.4388 161.172 53.9918 161.116 54.5378 161.13C55.5038 161.158 56.3228 161.368 56.9948 161.76C57.6668 162.152 58.1778 162.698 58.5278 163.398C58.8918 164.098 59.0738 164.917 59.0738 165.855C59.0738 166.989 58.8218 167.955 58.3178 168.753C57.8278 169.551 57.1558 170.153 56.3018 170.559C55.4618 170.965 54.5168 171.168 53.4668 171.168Z" fill="#1492D9"/>
<path d="M63.1405 171L72.8005 156.132H75.8245L66.2065 171H63.1405ZM74.2495 171.147C73.5355 171.147 72.9055 171 72.3595 170.706C71.8275 170.398 71.4075 169.971 71.0995 169.425C70.8055 168.879 70.6585 168.235 70.6585 167.493C70.6585 166.751 70.8125 166.107 71.1205 165.561C71.4285 165.015 71.8555 164.595 72.4015 164.301C72.9475 163.993 73.5775 163.839 74.2915 163.839C74.9915 163.839 75.6075 163.986 76.1395 164.28C76.6715 164.574 77.0845 164.994 77.3785 165.54C77.6725 166.072 77.8195 166.716 77.8195 167.472C77.8195 168.214 77.6655 168.865 77.3575 169.425C77.0635 169.971 76.6435 170.398 76.0975 170.706C75.5655 171 74.9495 171.147 74.2495 171.147ZM74.2495 168.942C74.5575 168.942 74.8095 168.879 75.0055 168.753C75.2015 168.613 75.3415 168.431 75.4255 168.207C75.5235 167.983 75.5725 167.752 75.5725 167.514C75.5725 167.276 75.5235 167.052 75.4255 166.842C75.3415 166.618 75.2015 166.436 75.0055 166.296C74.8095 166.156 74.5575 166.086 74.2495 166.086C73.7595 166.086 73.4095 166.24 73.1995 166.548C72.9895 166.842 72.8845 167.171 72.8845 167.535C72.8985 167.899 73.0105 168.228 73.2205 168.522C73.4305 168.802 73.7735 168.942 74.2495 168.942ZM64.7785 163.272C64.0505 163.272 63.4205 163.125 62.8885 162.831C62.3565 162.523 61.9365 162.096 61.6285 161.55C61.3345 161.004 61.1875 160.367 61.1875 159.639C61.1875 158.883 61.3345 158.232 61.6285 157.686C61.9365 157.14 62.3635 156.72 62.9095 156.426C63.4555 156.118 64.0855 155.964 64.7995 155.964C65.5135 155.964 66.1295 156.111 66.6475 156.405C67.1795 156.699 67.5925 157.119 67.8865 157.665C68.1805 158.197 68.3275 158.841 68.3275 159.597C68.3275 160.339 68.1805 160.99 67.8865 161.55C67.5925 162.096 67.1725 162.523 66.6265 162.831C66.0945 163.125 65.4785 163.272 64.7785 163.272ZM64.7785 161.046C65.0865 161.046 65.3385 160.983 65.5345 160.857C65.7305 160.717 65.8705 160.542 65.9545 160.332C66.0385 160.108 66.0805 159.87 66.0805 159.618C66.0805 159.38 66.0315 159.156 65.9335 158.946C65.8495 158.722 65.7095 158.54 65.5135 158.4C65.3315 158.26 65.0865 158.19 64.7785 158.19C64.2885 158.19 63.9315 158.344 63.7075 158.652C63.4975 158.946 63.3995 159.282 63.4135 159.66C63.4135 160.024 63.5185 160.346 63.7285 160.626C63.9525 160.906 64.3025 161.046 64.7785 161.046Z" fill="#1492D9"/>
<path d="M64.3296 62V57.45H51.7646V53.635L63.2796 37.22H69.3347V52.9H72.1347V57.45H69.3347V62H64.3296ZM57.5046 52.9H64.3296V42.75L57.5046 52.9Z" fill="#1492D9"/>
<path d="M75.0112 62.28C74.4979 62.28 74.0895 62.1283 73.7862 61.825C73.5062 61.4983 73.3662 61.1017 73.3662 60.635C73.3662 60.145 73.5179 59.7483 73.8212 59.445C74.1245 59.1417 74.5212 58.99 75.0112 58.99C75.4779 58.99 75.8629 59.1417 76.1662 59.445C76.4695 59.7483 76.6212 60.145 76.6212 60.635C76.6212 61.1017 76.4695 61.4983 76.1662 61.825C75.8862 62.1283 75.5012 62.28 75.0112 62.28Z" fill="#1492D9"/>
<path d="M80.6006 62V51.101H77.6816V48.833C78.2556 48.819 78.7736 48.77 79.2356 48.686C79.6976 48.588 80.1106 48.42 80.4746 48.182C80.8386 47.93 81.1536 47.58 81.4196 47.132H83.6036V62H80.6006Z" fill="#1492D9"/>
<path d="M89.1395 62L98.7995 47.132H101.824L92.2055 62H89.1395ZM100.249 62.147C99.5345 62.147 98.9045 62 98.3585 61.706C97.8265 61.398 97.4065 60.971 97.0985 60.425C96.8045 59.879 96.6575 59.235 96.6575 58.493C96.6575 57.751 96.8115 57.107 97.1195 56.561C97.4275 56.015 97.8545 55.595 98.4005 55.301C98.9465 54.993 99.5765 54.839 100.291 54.839C100.991 54.839 101.607 54.986 102.139 55.28C102.671 55.574 103.084 55.994 103.378 56.54C103.672 57.072 103.819 57.716 103.819 58.472C103.819 59.214 103.665 59.865 103.357 60.425C103.063 60.971 102.643 61.398 102.097 61.706C101.565 62 100.949 62.147 100.249 62.147ZM100.249 59.942C100.557 59.942 100.809 59.879 101.005 59.753C101.201 59.613 101.341 59.431 101.425 59.207C101.523 58.983 101.572 58.752 101.572 58.514C101.572 58.276 101.523 58.052 101.425 57.842C101.341 57.618 101.201 57.436 101.005 57.296C100.809 57.156 100.557 57.086 100.249 57.086C99.7585 57.086 99.4085 57.24 99.1985 57.548C98.9885 57.842 98.8835 58.171 98.8835 58.535C98.8975 58.899 99.0095 59.228 99.2195 59.522C99.4295 59.802 99.7725 59.942 100.249 59.942ZM90.7775 54.272C90.0495 54.272 89.4195 54.125 88.8875 53.831C88.3555 53.523 87.9355 53.096 87.6275 52.55C87.3335 52.004 87.1865 51.367 87.1865 50.639C87.1865 49.883 87.3335 49.232 87.6275 48.686C87.9355 48.14 88.3625 47.72 88.9085 47.426C89.4545 47.118 90.0845 46.964 90.7985 46.964C91.5125 46.964 92.1285 47.111 92.6465 47.405C93.1785 47.699 93.5915 48.119 93.8855 48.665C94.1795 49.197 94.3265 49.841 94.3265 50.597C94.3265 51.339 94.1795 51.99 93.8855 52.55C93.5915 53.096 93.1715 53.523 92.6255 53.831C92.0935 54.125 91.4775 54.272 90.7775 54.272ZM90.7775 52.046C91.0855 52.046 91.3375 51.983 91.5335 51.857C91.7295 51.717 91.8695 51.542 91.9535 51.332C92.0375 51.108 92.0795 50.87 92.0795 50.618C92.0795 50.38 92.0305 50.156 91.9325 49.946C91.8485 49.722 91.7085 49.54 91.5125 49.4C91.3305 49.26 91.0855 49.19 90.7775 49.19C90.2875 49.19 89.9305 49.344 89.7065 49.652C89.4965 49.946 89.3985 50.282 89.4125 50.66C89.4125 51.024 89.5175 51.346 89.7275 51.626C89.9515 51.906 90.3015 52.046 90.7775 52.046Z" fill="#1492D9"/>
<path d="M138.558 340.318H142.9V342.71H138.558V340.318ZM136.842 327.058H144.694V329.762H136.842V327.058ZM136.452 332.856H152.156V335.742H136.452V332.856ZM139.416 336.652H144.512V346.35H139.416V343.828H141.626V339.2H139.416V336.652ZM137.18 336.652H140.014V347.78H137.18V336.652ZM139.234 324.874H142.432V328.852H139.234V324.874ZM149.192 336.496L152.182 337.146C150.622 342.58 147.684 346.896 143.706 349.548C143.316 348.924 142.25 347.676 141.626 347.104C145.37 344.946 147.944 341.176 149.192 336.496ZM137.232 330.074L139.598 329.502C139.936 330.464 140.17 331.764 140.196 332.622L137.7 333.246C137.7 332.414 137.518 331.088 137.232 330.074ZM147.45 327.214L149.894 325.94C150.908 327.188 151.896 328.878 152.338 330.048L149.764 331.504C149.374 330.334 148.386 328.514 147.45 327.214ZM141.678 329.528L144.46 330.022C144.044 331.192 143.68 332.31 143.394 333.116L141.106 332.622C141.314 331.712 141.574 330.438 141.678 329.528ZM127.82 325.68H136.972V328.982H127.82V325.68ZM130.212 331.296H134.684V334.312H130.212V331.296ZM130.212 336.574H134.684V339.59H130.212V336.574ZM128.756 327.5H131.798V343.646H128.756V327.5ZM132.838 327.474H135.958V349.47H132.838V327.474ZM127.274 342.866C129.172 342.632 131.902 342.164 134.58 341.722L134.84 344.868C132.474 345.388 129.978 345.882 127.898 346.298L127.274 342.866ZM144.98 324.77H148.282C148.126 335.404 148.776 345.076 149.634 345.102C149.894 345.102 150.05 344.036 150.128 342.164C150.648 342.918 152 343.958 152.52 344.296C151.792 348.638 150.362 349.47 149.452 349.47C145.682 349.418 145.084 339.798 144.98 324.77Z" fill="white"/>
<path d="M99.8701 326.798H113.104V329.736H99.8701V326.798ZM104.602 324.77H108.268V328.176H104.602V324.77ZM103.51 343.412C104.94 343.36 106.786 343.256 108.788 343.152L108.814 345.336C107.02 345.518 105.33 345.648 103.744 345.778L103.51 343.412ZM109.49 338.68H112.61V346.454C112.61 347.78 112.376 348.56 111.466 349.028C110.582 349.47 109.464 349.496 107.956 349.496C107.826 348.664 107.41 347.468 107.046 346.714C107.826 346.766 108.814 346.74 109.1 346.74C109.386 346.74 109.49 346.662 109.49 346.402V338.68ZM107.046 342.32L108.944 341.852C109.386 343.074 109.776 344.66 109.88 345.622L107.852 346.22C107.774 345.206 107.436 343.568 107.046 342.32ZM103.614 332.024L105.018 330.438C106.474 331.166 108.424 332.336 109.386 333.168L107.904 334.962C106.994 334.104 105.096 332.856 103.614 332.024ZM105.018 336.912L108.008 337.302C107.54 339.954 106.942 343.048 106.422 344.946L104.03 344.53C104.472 342.502 104.888 339.226 105.018 336.912ZM100.442 338.68H110.66V341.358H103.432V349.522H100.442V338.68ZM100.988 330.178H103.536V335.196H109.438V330.178H112.09V337.666H100.988V330.178ZM106.89 329.84L109.23 330.438C108.346 332.388 106.89 334.286 105.408 335.482C104.992 335.066 104.03 334.338 103.484 334C104.94 332.96 106.188 331.452 106.89 329.84ZM115.314 334.728H123.998V337.874H115.314V334.728ZM115.314 339.798H123.998V342.944H115.314V339.798ZM115.418 344.946H124.57V348.352H115.418V344.946ZM115.444 324.77L118.798 325.576C117.628 329.71 115.73 334.052 113.702 336.756C113.13 336.132 111.778 334.962 110.998 334.416C112.922 332.128 114.534 328.41 115.444 324.77ZM120.072 325.056L123.582 325.81C122.828 327.89 122.022 330.022 121.346 331.452L118.382 330.698C119.032 329.164 119.734 326.824 120.072 325.056ZM117.264 329.554H124.31V332.908H117.264V349.496H113.884V332.44L116.562 329.554H117.264ZM118.876 331.166H122.022V346.61H118.876V331.166Z" fill="white"/>
<path d="M113.982 298.74C116.602 299.06 120.562 298.96 122.802 298.72V301.84C120.182 302.06 116.682 302.08 114.002 301.84L113.982 298.74ZM116.042 307.5C115.902 308.14 115.842 308.58 115.842 309.1C115.842 309.98 116.682 310.32 118.322 310.32C120.102 310.32 121.542 310.16 123.362 309.78L123.422 313.06C122.102 313.3 120.522 313.44 118.162 313.44C114.662 313.44 112.922 312.14 112.922 310C112.922 309.14 113.042 308.3 113.282 307.26L116.042 307.5ZM111.322 297.52C111.142 297.98 110.842 299.2 110.762 299.56C110.542 300.6 109.802 304.84 109.802 306.7C109.802 306.76 109.802 307.08 109.822 307.16C110.102 306.6 110.342 306.2 110.602 305.62L112.062 306.78C111.462 308.6 110.842 310.8 110.622 311.92C110.562 312.22 110.502 312.7 110.502 312.88C110.502 313.1 110.502 313.46 110.522 313.78L107.722 313.96C107.322 312.62 106.922 310.1 106.922 307.38C106.922 304.32 107.502 300.98 107.702 299.5C107.782 298.9 107.922 298 107.942 297.24L111.322 297.52Z" fill="white"/>
<path d="M92.9598 296.3H96.3198C96.1398 299.8 95.8798 309.44 87.7798 314.74C87.2598 313.98 86.3198 313.08 85.2998 312.4C93.2598 307.78 92.8198 298.92 92.9598 296.3ZM96.2198 296.9C96.2798 298.74 96.6198 308.36 104.8 312.24C103.86 312.94 103 313.92 102.56 314.72C93.8598 310.32 93.5798 299.38 93.3998 297.2L96.2198 296.9Z" fill="white"/>
<path d="M173.698 297.28C173.558 297.88 173.398 298.64 173.278 299.2C173.058 300.22 172.818 301.22 172.638 302.12C171.998 304.96 170.278 311.06 168.278 314.28L165.118 313.02C167.538 309.74 168.998 304.48 169.558 301.94C169.938 300.02 170.138 298.36 170.098 296.9L173.698 297.28ZM180.598 299.12C181.818 300.92 183.458 304.68 184.038 306.62L180.938 308.04C180.458 305.72 179.118 302.18 177.678 300.34L180.598 299.12ZM165.078 301.22C165.858 301.28 166.618 301.24 167.418 301.22C169.078 301.18 172.718 300.76 174.278 300.76C176.578 300.76 178.098 301.84 178.098 304.84C178.098 307.18 177.838 310.46 176.978 312.22C176.298 313.66 175.118 314.16 173.498 314.16C172.718 314.16 171.778 314.04 171.058 313.88L170.538 310.7C171.278 310.9 172.478 311.12 172.978 311.12C173.618 311.12 174.078 310.9 174.338 310.36C174.838 309.36 175.078 307.02 175.078 305.16C175.078 303.7 174.478 303.52 173.238 303.52C172.138 303.52 168.858 303.94 167.818 304.1C167.178 304.2 166.018 304.36 165.358 304.48L165.078 301.22ZM179.898 296.42C180.398 297.16 181.098 298.46 181.458 299.16L179.558 299.96C179.138 299.14 178.558 297.96 178.018 297.18L179.898 296.42ZM182.358 295.46C182.878 296.22 183.598 297.5 183.938 298.18L182.058 298.98C181.658 298.16 181.018 296.98 180.478 296.22L182.358 295.46Z" fill="white"/>
<path d="M151.96 296.3H155.32C155.14 299.8 154.88 309.44 146.78 314.74C146.26 313.98 145.32 313.08 144.3 312.4C152.26 307.78 151.82 298.92 151.96 296.3ZM155.22 296.9C155.28 298.74 155.62 308.36 163.8 312.24C162.86 312.94 162 313.92 161.56 314.72C152.86 310.32 152.58 299.38 152.4 297.2L155.22 296.9Z" fill="white"/>
<path d="M133.019 315V293.202H127.181V288.666C128.329 288.638 129.365 288.54 130.289 288.372C131.213 288.176 132.039 287.84 132.767 287.364C133.495 286.86 134.125 286.16 134.657 285.264H139.025V315H133.019Z" fill="white"/>
<path d="M71.926 315.294C70.498 315.294 69.126 315.126 67.81 314.79C66.494 314.454 65.29 313.922 64.198 313.194C63.106 312.466 62.196 311.542 61.468 310.422C60.74 309.274 60.292 307.902 60.124 306.306H66.088C66.284 307.09 66.662 307.748 67.222 308.28C67.81 308.784 68.51 309.148 69.322 309.372C70.162 309.596 71.044 309.708 71.968 309.708C72.584 309.708 73.186 309.652 73.774 309.54C74.39 309.428 74.936 309.232 75.412 308.952C75.916 308.672 76.308 308.294 76.588 307.818C76.868 307.342 77.008 306.74 77.008 306.012C77.008 305.34 76.882 304.78 76.63 304.332C76.378 303.884 76.042 303.52 75.622 303.24C75.202 302.96 74.698 302.764 74.11 302.652C73.55 302.54 72.948 302.484 72.304 302.484H68.86V297.36H71.17C71.898 297.36 72.556 297.29 73.144 297.15C73.732 296.982 74.222 296.758 74.614 296.478C75.034 296.17 75.356 295.806 75.58 295.386C75.804 294.938 75.916 294.434 75.916 293.874C75.916 293.034 75.734 292.376 75.37 291.9C75.006 291.396 74.502 291.032 73.858 290.808C73.214 290.584 72.472 290.472 71.632 290.472C70.848 290.472 70.106 290.598 69.406 290.85C68.734 291.074 68.174 291.41 67.726 291.858C67.278 292.306 66.984 292.852 66.844 293.496H61.006C61.174 291.984 61.58 290.696 62.224 289.632C62.868 288.54 63.694 287.644 64.702 286.944C65.71 286.244 66.83 285.74 68.062 285.432C69.322 285.096 70.624 284.928 71.968 284.928C73.256 284.928 74.488 285.068 75.664 285.348C76.84 285.628 77.89 286.09 78.814 286.734C79.766 287.35 80.522 288.176 81.082 289.212C81.642 290.248 81.922 291.494 81.922 292.95C81.922 293.846 81.768 294.686 81.46 295.47C81.18 296.254 80.76 296.954 80.2 297.57C79.668 298.158 79.038 298.648 78.31 299.04C79.402 299.348 80.298 299.852 80.998 300.552C81.698 301.252 82.216 302.078 82.552 303.03C82.916 303.982 83.098 305.004 83.098 306.096C83.098 307.888 82.762 309.386 82.09 310.59C81.446 311.766 80.578 312.704 79.486 313.404C78.394 314.076 77.19 314.566 75.874 314.874C74.558 315.154 73.242 315.294 71.926 315.294Z" fill="white"/>
<path d="M401.463 235L408.483 220.05H399.695V216.592H412.721V219.374L405.597 235H401.463Z" fill="#E5005A"/>
<path d="M391.955 235V231.62H382.621V228.786L391.175 216.592H395.673V228.24H397.753V231.62H395.673V235H391.955ZM386.885 228.24H391.955V220.7L386.885 228.24Z" fill="#E5005A"/>
<path d="M420.673 235.128C420.022 235.128 419.42 235.021 418.865 234.808C418.31 234.584 417.841 234.243 417.457 233.784C417.084 233.325 416.844 232.749 416.737 232.056H418.977C419.094 232.376 419.324 232.621 419.665 232.792C420.006 232.952 420.369 233.032 420.753 233.032C421.19 233.032 421.558 232.947 421.857 232.776C422.166 232.595 422.412 232.36 422.593 232.072C422.774 231.773 422.908 231.448 422.993 231.096C423.078 230.733 423.126 230.365 423.137 229.992C423.137 229.949 423.137 229.907 423.137 229.864C423.137 229.811 423.137 229.763 423.137 229.72C422.902 230.061 422.62 230.328 422.289 230.52C421.958 230.712 421.617 230.845 421.265 230.92C420.913 230.995 420.577 231.032 420.257 231.032C419.585 231.032 418.977 230.893 418.433 230.616C417.889 230.328 417.457 229.917 417.137 229.384C416.828 228.851 416.673 228.205 416.673 227.448C416.673 226.605 416.865 225.896 417.249 225.32C417.633 224.733 418.14 224.291 418.769 223.992C419.409 223.693 420.108 223.544 420.865 223.544C421.697 223.544 422.396 223.709 422.961 224.04C423.526 224.371 423.974 224.819 424.305 225.384C424.636 225.949 424.87 226.579 425.009 227.272C425.158 227.965 425.233 228.675 425.233 229.4C425.233 230.189 425.148 230.931 424.977 231.624C424.817 232.307 424.556 232.915 424.193 233.448C423.841 233.971 423.372 234.381 422.785 234.68C422.209 234.979 421.505 235.128 420.673 235.128ZM420.769 229.112C421.185 229.112 421.526 229.027 421.793 228.856C422.07 228.685 422.278 228.472 422.417 228.216C422.566 227.949 422.641 227.672 422.641 227.384C422.641 227.021 422.556 226.712 422.385 226.456C422.225 226.189 422.006 225.987 421.729 225.848C421.462 225.699 421.153 225.624 420.801 225.624C420.417 225.624 420.086 225.704 419.809 225.864C419.532 226.024 419.318 226.237 419.169 226.504C419.02 226.771 418.945 227.059 418.945 227.368C418.945 227.859 419.1 228.275 419.409 228.616C419.729 228.947 420.182 229.112 420.769 229.112Z" fill="#E5005A"/>
<path d="M412.95 235.208C412.568 235.208 412.265 235.095 412.04 234.87C411.832 234.627 411.728 234.333 411.728 233.986C411.728 233.622 411.84 233.327 412.066 233.102C412.291 232.877 412.586 232.764 412.95 232.764C413.296 232.764 413.582 232.877 413.808 233.102C414.033 233.327 414.146 233.622 414.146 233.986C414.146 234.333 414.033 234.627 413.808 234.87C413.6 235.095 413.314 235.208 412.95 235.208Z" fill="#E5005A"/>
<path d="M428.655 235L436.015 223.672H438.319L430.991 235H428.655ZM437.119 235.112C436.575 235.112 436.095 235 435.679 234.776C435.274 234.541 434.954 234.216 434.719 233.8C434.495 233.384 434.383 232.893 434.383 232.328C434.383 231.763 434.5 231.272 434.735 230.856C434.97 230.44 435.295 230.12 435.711 229.896C436.127 229.661 436.607 229.544 437.151 229.544C437.684 229.544 438.154 229.656 438.559 229.88C438.964 230.104 439.279 230.424 439.503 230.84C439.727 231.245 439.839 231.736 439.839 232.312C439.839 232.877 439.722 233.373 439.487 233.8C439.263 234.216 438.943 234.541 438.527 234.776C438.122 235 437.652 235.112 437.119 235.112ZM437.119 233.432C437.354 233.432 437.546 233.384 437.695 233.288C437.844 233.181 437.951 233.043 438.015 232.872C438.09 232.701 438.127 232.525 438.127 232.344C438.127 232.163 438.09 231.992 438.015 231.832C437.951 231.661 437.844 231.523 437.695 231.416C437.546 231.309 437.354 231.256 437.119 231.256C436.746 231.256 436.479 231.373 436.319 231.608C436.159 231.832 436.079 232.083 436.079 232.36C436.09 232.637 436.175 232.888 436.335 233.112C436.495 233.325 436.756 233.432 437.119 233.432ZM429.903 229.112C429.348 229.112 428.868 229 428.463 228.776C428.058 228.541 427.738 228.216 427.503 227.8C427.279 227.384 427.167 226.899 427.167 226.344C427.167 225.768 427.279 225.272 427.503 224.856C427.738 224.44 428.063 224.12 428.479 223.896C428.895 223.661 429.375 223.544 429.919 223.544C430.463 223.544 430.932 223.656 431.327 223.88C431.732 224.104 432.047 224.424 432.271 224.84C432.495 225.245 432.607 225.736 432.607 226.312C432.607 226.877 432.495 227.373 432.271 227.8C432.047 228.216 431.727 228.541 431.311 228.776C430.906 229 430.436 229.112 429.903 229.112ZM429.903 227.416C430.138 227.416 430.33 227.368 430.479 227.272C430.628 227.165 430.735 227.032 430.799 226.872C430.863 226.701 430.895 226.52 430.895 226.328C430.895 226.147 430.858 225.976 430.783 225.816C430.719 225.645 430.612 225.507 430.463 225.4C430.324 225.293 430.138 225.24 429.903 225.24C429.53 225.24 429.258 225.357 429.087 225.592C428.927 225.816 428.852 226.072 428.863 226.36C428.863 226.637 428.943 226.883 429.103 227.096C429.274 227.309 429.54 227.416 429.903 227.416Z" fill="#E5005A"/>
<path d="M470.126 192.584C470.622 192.648 471.23 192.68 471.758 192.68C472.622 192.68 475.822 192.632 476.766 192.552C477.534 192.488 477.982 192.424 478.19 192.36L479.39 194.072C478.974 194.328 478.558 194.568 478.158 194.856C477.262 195.464 475.854 196.616 474.974 197.288C475.39 197.208 475.71 197.192 476.094 197.192C478.846 197.192 481.006 198.952 481.006 201.368C481.006 203.864 479.198 206.056 475.054 206.056C472.798 206.056 470.926 205 470.926 203.24C470.926 201.832 472.206 200.52 474.03 200.52C476.254 200.52 477.566 201.992 477.566 203.816L475.294 204.088C475.294 203.048 474.782 202.36 474.046 202.36C473.518 202.36 473.214 202.68 473.214 203C473.214 203.496 473.742 203.848 474.558 203.848C477.246 203.848 478.446 202.888 478.446 201.336C478.446 199.96 477.038 199.096 475.278 199.096C472.942 199.096 471.262 200.504 469.726 202.376L467.966 200.552C468.99 199.752 470.862 198.168 471.806 197.384C472.702 196.648 474.19 195.496 474.958 194.808C474.158 194.824 472.51 194.888 471.646 194.952C471.166 194.984 470.59 195.032 470.206 195.096L470.126 192.584Z" fill="#E5005A"/>
<path d="M455.36 193.416C455.232 194.088 455.136 195.128 455.136 195.592C455.136 196.648 455.136 197.688 455.232 198.76C455.424 200.856 455.744 202.328 456.672 202.328C457.408 202.328 457.968 200.328 458.208 199.24L460.16 201.64C459.04 204.472 458.016 205.464 456.624 205.464C454.72 205.464 453.152 203.848 452.704 199.48C452.544 197.96 452.528 196.12 452.528 195.112C452.528 194.632 452.496 193.944 452.384 193.384L455.36 193.416ZM463.184 193.72C464.752 195.56 466.016 199.896 466.16 202.2L463.584 203.192C463.36 200.776 462.576 196.568 460.704 194.52L463.184 193.72Z" fill="#E5005A"/>
<path d="M436.814 193.784C437.454 193.768 438.158 193.736 438.462 193.704C439.966 193.576 442.382 193.384 445.31 193.128C446.91 193 448.798 192.888 449.966 192.84L449.982 195.336C449.15 195.352 447.79 195.352 446.91 195.528C445.182 195.912 443.694 197.784 443.694 199.688C443.694 202.04 445.902 202.968 448.67 203.128L447.758 205.816C444.19 205.544 441.134 203.608 441.134 200.2C441.134 198.008 442.302 196.312 443.166 195.528C441.79 195.672 438.974 195.992 437.054 196.424L436.814 193.784Z" fill="#E5005A"/>
<path d="M427.706 192.184C427.594 192.936 427.498 193.912 427.466 194.616C427.386 196.296 427.274 199.752 427.274 201.512C427.274 203.048 428.154 203.528 429.242 203.528C431.722 203.528 433.402 202.072 434.57 200.28L436.33 202.44C435.338 203.976 432.954 206.184 429.226 206.184C426.426 206.184 424.682 204.92 424.682 202.12C424.682 200.104 424.826 195.816 424.826 194.616C424.826 193.752 424.746 192.872 424.586 192.152L427.706 192.184Z" fill="#E5005A"/>
<path d="M406.819 192.008H411.939V193.944H406.819V192.008ZM413.331 200.28H419.603V202.184H413.331V200.28ZM406.563 196.936H412.483V198.952H406.563V196.936ZM409.059 197.768H411.251V204.072C411.251 205.08 411.107 205.688 410.467 206.056C409.843 206.408 409.059 206.456 408.051 206.456C407.987 205.816 407.683 204.856 407.395 204.232C407.939 204.264 408.595 204.264 408.803 204.264C408.995 204.248 409.059 204.216 409.059 204.024V197.768ZM418.867 200.28H421.203C421.203 200.28 421.171 200.84 421.139 201.128C420.899 203.768 420.627 205.032 420.163 205.544C419.779 205.976 419.395 206.12 418.899 206.2C418.483 206.264 417.827 206.28 417.091 206.264C417.059 205.608 416.819 204.712 416.467 204.136C416.979 204.184 417.459 204.2 417.715 204.2C417.939 204.2 418.067 204.168 418.227 204.008C418.483 203.752 418.707 202.824 418.867 200.568V200.28ZM415.555 198.936H417.859C417.619 202.248 417.011 204.968 413.123 206.536C412.867 205.976 412.275 205.16 411.795 204.728C415.107 203.528 415.363 201.464 415.555 198.936ZM407.075 195.72L408.531 194.232C409.795 194.648 411.603 195.416 412.563 196.008L410.995 197.656C410.163 197.064 408.387 196.216 407.075 195.72ZM411.939 196.936H412.227L412.531 196.84L413.923 197.288C413.699 198.808 413.331 200.52 412.931 201.672L411.395 200.952C411.619 199.992 411.843 198.472 411.939 197.24V196.936ZM418.339 193.864L420.771 194.216C419.667 197.224 417.315 198.744 414.099 199.592C413.827 199.08 413.107 198.12 412.659 197.672C415.619 197.16 417.683 196.04 418.339 193.864ZM415.267 191.304L417.427 191.912C416.611 193.64 415.283 195.336 414.083 196.392C413.635 196.024 412.723 195.4 412.195 195.112C413.443 194.216 414.627 192.76 415.267 191.304ZM415.779 194.312C416.851 195.96 419.011 197.144 421.779 197.624C421.283 198.088 420.627 199 420.323 199.592C417.347 198.856 415.219 197.272 413.843 194.92L415.779 194.312ZM408.867 197.64L410.339 198.216C409.715 200.344 408.691 202.728 407.267 203.96C407.075 203.288 406.579 202.328 406.227 201.688C407.395 200.744 408.387 199.112 408.867 197.64ZM415.395 192.904H421.315V194.808H414.483L415.395 192.904ZM411.379 192.008H411.875L412.227 191.928L413.699 192.84C412.995 194.04 411.715 195.368 410.547 196.2C410.147 195.848 409.491 195.368 409.043 195.096C410.019 194.376 410.995 193.192 411.379 192.408V192.008Z" fill="#E5005A"/>
<path d="M398.258 194.904H403.314V197.048H398.258V194.904ZM402.658 194.904H404.818C404.818 194.904 404.802 195.608 404.802 195.864C404.674 202.376 404.562 204.776 404.082 205.496C403.698 206.072 403.346 206.264 402.818 206.392C402.354 206.504 401.698 206.504 400.978 206.488C400.946 205.864 400.706 204.952 400.37 204.344C400.898 204.408 401.346 204.408 401.634 204.408C401.858 204.408 402.002 204.344 402.146 204.104C402.45 203.656 402.562 201.48 402.658 195.384V194.904ZM399.506 191.496H401.65C401.634 198.824 401.634 203.672 398.53 206.552C398.226 206.008 397.506 205.192 396.994 204.856C399.698 202.344 399.49 198.328 399.506 191.496ZM390.578 201.752H397.858V203.336H390.578V201.752ZM390.338 199.592H398.05V201.24H390.338V199.592ZM390.162 192.344H398.242V194.024H390.162V192.344ZM393.074 195.816H395.202V204.824H393.074V195.816ZM391.394 191.336H393.49V194.936H391.394V191.336ZM394.706 191.336H396.834V194.936H394.706V191.336ZM389.986 204.168C392.066 204.056 395.202 203.816 398.098 203.576L398.114 205.368C395.33 205.64 392.338 205.896 390.21 206.072L389.986 204.168ZM392.45 196.696V197.576H395.826V196.696H392.45ZM390.482 195.176H397.922V199.096H390.482V195.176Z" fill="#E5005A"/>
<path d="M381.287 192.04C381.127 192.712 381.047 193.192 380.967 193.64C380.775 194.776 380.007 200.264 380.007 201.816C380.007 203.016 380.775 203.592 382.199 203.592C384.327 203.592 385.367 202.584 385.367 201.464C385.367 200.376 384.759 199.432 383.783 198.456L386.503 197.88C387.543 199.288 388.007 200.424 388.007 201.784C388.007 204.216 385.815 206.12 382.119 206.12C379.399 206.12 377.607 204.952 377.607 202.232C377.607 200.632 378.375 195.72 378.535 193.48C378.599 192.632 378.599 192.296 378.567 191.896L381.287 192.04ZM375.255 193.944C376.679 194.424 378.695 194.632 380.439 194.632C381.687 194.632 382.839 194.536 383.559 194.408L383.479 196.712C382.567 196.808 381.719 196.872 380.359 196.872C378.631 196.872 376.663 196.6 375.143 196.168L375.255 193.944ZM374.935 197.912C376.759 198.52 378.599 198.648 380.295 198.648C381.207 198.648 382.439 198.568 383.431 198.456L383.367 200.744C382.583 200.824 381.671 200.888 380.711 200.888C378.359 200.888 376.263 200.632 374.807 200.248L374.935 197.912Z" fill="#E5005A"/>
<path d="M358.003 193.4H372.419V195.624H358.003V193.4ZM363.363 198.648H371.731V200.792H363.363V198.648ZM362.755 203.96H372.339V206.104H362.755V203.96ZM366.435 196.232H368.787V205.096H366.435V196.232ZM362.931 191.304L365.363 191.88C364.131 195.848 362.083 199.816 358.531 202.184C358.291 201.528 357.779 200.488 357.427 199.912C360.323 198.104 362.131 194.504 362.931 191.304ZM359.715 198.072H362.067V206.504H359.715V198.072Z" fill="#E5005A"/>
<path d="M341.299 192.168H346.995V194.312H341.299V192.168ZM341.411 196.76H346.819V198.888H341.411V196.76ZM340.867 202.232C342.451 201.896 344.835 201.272 347.059 200.664L347.363 202.696C345.347 203.304 343.155 203.928 341.443 204.424L340.867 202.232ZM349.715 196.12V196.76H353.331V196.12H349.715ZM349.715 198.504V199.128H353.331V198.504H349.715ZM349.715 193.752V194.392H353.331V193.752H349.715ZM347.555 191.88H355.603V201.016H347.555V191.88ZM351.507 200.184H353.731V203.912C353.731 204.424 353.763 204.472 353.955 204.472C354.019 204.472 354.211 204.472 354.291 204.472C354.515 204.472 354.579 204.216 354.611 202.632C355.043 202.984 355.971 203.336 356.547 203.48C356.355 205.8 355.827 206.456 354.547 206.456C354.227 206.456 353.827 206.456 353.523 206.456C351.859 206.456 351.507 205.8 351.507 203.928V200.184ZM348.611 200.776H350.883C350.659 203.544 350.051 205.528 346.323 206.632C346.099 206.056 345.523 205.16 345.059 204.712C348.147 203.976 348.435 202.696 348.611 200.776ZM343.075 193.016H345.315V202.408L343.075 202.728V193.016Z" fill="#E5005A"/>
</svg>
