<svg width="130" height="80" viewBox="0 0 130 80" fill="none" xmlns="http://www.w3.org/2000/svg">
<mask id="mask0_1509_25150" style="mask-type:alpha" maskUnits="userSpaceOnUse" x="0" y="0" width="130" height="80">
<rect width="130" height="80" fill="#D9D9D9"/>
</mask>
<g mask="url(#mask0_1509_25150)">
</g>
<g clip-path="url(#clip0_1509_25150)">
<path d="M30.5678 37.8953C30.6508 38.4235 30.7316 38.9215 30.8046 39.3517C30.4059 38.8146 29.6766 38.5636 29.0539 38.7749C28.3908 38.9998 28.092 39.5137 28.124 39.9094C28.124 39.9094 28.1535 40.2732 28.1855 40.666C27.7993 40.3607 27.181 40.3278 26.7004 40.5267C26.124 40.7632 25.4929 41.4895 25.7058 42.0804C25.7997 42.3387 25.9239 42.6394 26.0644 42.9436L25.8892 42.7684C25.2507 42.1298 24.0072 42.36 23.7347 43.0996C23.5253 43.6672 23.7108 44.3801 23.9828 44.9456C24.0203 45.0233 24.0607 45.1075 24.1038 45.1955C24.1255 45.2935 24.1374 45.348 24.1374 45.348C24.4466 46.7689 25.1048 48.9552 26.2553 50.5828C26.7896 51.3389 27.418 52.0971 27.8907 52.8974C28.294 53.5795 28.393 54.2959 28.524 55.0643L28.5435 55.1793C30.4008 54.6986 34.3678 53.9525 36.484 53.7309C36.458 53.5182 36.4428 53.3846 36.4428 53.3846C36.3305 52.4062 36.2261 51.1381 36.4439 50.3402C36.452 50.1799 37.3826 48.1228 37.6334 47.7473C37.9985 47.2059 38.2499 46.0755 38.2442 45.5402C38.2358 44.6581 38.1341 43.3876 37.5732 42.4126C37.4479 42.1972 37.2776 42.0213 37.0796 41.8717C36.2939 41.2776 35.2413 41.1848 34.2601 41.1532L34.224 40.7683C34.1177 39.6357 32.846 32.2021 32.2621 31.286C31.9008 30.7197 31.4482 30.2641 30.5006 30.5596C29.6867 30.8134 29.7238 31.7243 29.7954 32.4801C29.8529 33.095 30.2299 35.7462 30.5678 37.8955V37.8953Z" fill="white"/>
<path d="M70.5416 40.0337C70.4019 39.2399 70.3086 38.4433 70.2755 37.6395C73.4281 36.1015 75.9408 31.8036 76.3875 30.5965C76.4692 30.3495 76.6509 29.8456 76.7892 29.2669C77.3484 29.1853 78.0932 29.1856 78.5176 28.8485C79.0834 28.3931 79.4902 27.7952 79.8023 27.1704C80.4432 25.888 80.722 24.4539 80.5994 23.0465C80.5661 22.6894 80.5075 22.3234 80.3263 22.0022C80.07 21.5439 79.5599 21.2078 78.9998 21.1244C78.4398 21.041 77.8407 21.2168 77.4366 21.5795C75.2452 20.9142 72.6014 17.4255 71.7561 15.848C71.1648 14.7449 70.522 12.3528 70.0124 10.665C67.5894 13.8056 64.5104 16.0305 60.6863 17.1175C59.7769 17.3866 60.634 14.516 60.7953 13.1599C58.3783 15.5228 55.7362 18.0166 53.2847 20.0129L51.2145 21.5793C50.8104 21.2162 50.2113 21.0408 49.6513 21.1242C49.0912 21.2076 48.5811 21.5436 48.3248 22.002C48.1436 22.3232 48.085 22.6892 48.0517 23.0463C47.9291 24.4536 48.2076 25.8877 48.8488 27.1701C49.1609 27.795 49.5677 28.3929 50.1335 28.8482C50.568 29.1932 51.1817 29.5835 51.9612 29.3897C51.9612 29.3897 52.013 29.3767 52.1071 29.353C52.5413 30.9611 53.302 32.8193 54.698 34.482C55.9469 35.9698 57.374 37.1585 58.9202 37.8814C58.8817 38.6423 58.7922 39.2979 58.6625 40.034C58.5047 40.9304 58.554 41.7315 57.3019 42.1814C57.2341 42.2057 54.5648 43.4471 53.4691 43.9403C56.2601 45.349 60.3931 46.5582 64.3024 46.5682C68.0125 46.5828 72.8721 45.306 75.4681 43.8552C74.702 43.4981 71.9747 42.2076 71.902 42.1814C70.6498 41.7315 70.6991 40.9301 70.5416 40.034V40.0337Z" fill="white"/>
<path d="M93.5389 69.519L80.4318 45.7992C78.7777 45.1252 75.9115 43.5859 75.6192 43.7724C73.063 45.2569 68.083 46.5825 64.3023 46.5677C60.3093 46.5577 56.0789 45.2969 53.2879 43.8496C52.9814 43.6747 50.3659 44.9846 48.6852 45.6934L48.4473 45.8003C46.7609 46.5577 45.4388 47.5529 44.2807 48.7826C42.6689 50.5026 40.2099 57.0986 39.1852 58.5983L38.7488 59.2372C38.3797 57.5321 38.0331 55.8456 37.7063 54.0663C37.6629 53.8288 37.4514 53.6615 37.21 53.6722C35.2518 53.7613 29.5862 54.8329 27.9698 55.3404C27.7556 55.4078 27.6173 55.6157 27.639 55.8397C28.0702 60.3042 28.2112 65.3139 29.1794 69.8702C29.8683 73.1173 31.086 76.2646 34.0694 77.7491C36.6242 79.0178 39.179 78.8855 41.3107 77.9246C43.1197 77.1067 45.3002 75.247 46.8 73.9864L47.4021 73.4803C47.4802 74.1427 47.5269 74.7023 47.5269 75.0958C47.5269 75.8921 47.4021 77.4873 47.2394 79.3524H87.7021V79.2739C89.663 79.0229 91.4622 77.8957 92.4898 75.7083C93.3705 73.8337 93.6075 71.5704 93.5386 69.5193" fill="white"/>
<path d="M98.9927 50.4951C99.1671 49.2454 99.6362 45.9148 99.7925 44.7939C99.8773 44.1857 99.4526 43.6265 98.8419 43.5409C95.0791 43.0151 84.2605 41.5033 80.6108 40.9934C79.9979 40.9078 79.4337 41.3321 79.3494 41.9424C78.7248 46.4625 76.7151 61.1777 76.0965 65.6565C76.0124 66.2652 76.4401 66.8247 77.0517 66.9087C80.7665 67.4188 91.4226 68.8694 95.2304 69.393C95.8415 69.477 96.4034 69.0535 96.4888 68.4453C96.6019 67.6391 97.6352 61.0547 97.7624 60.1466" fill="white"/>
<path d="M78.5156 47.4165C77.9613 46.8648 76.9239 46.8394 76.0764 47.4165C75.2649 47.969 75.2928 48.9969 75.7439 49.8809C76.4154 51.1978 76.8526 52.3086 77.6288 53.4673" fill="white"/>
<path d="M97.4216 59.4227C97.3804 59.3879 97.3416 59.3501 97.3064 59.3093C96.9324 58.8796 96.8597 58.2701 96.9698 57.825C97.1835 56.931 97.6573 56.3046 97.9974 55.9218C97.9974 55.9218 98.0424 55.8711 98.1192 55.7858C97.7208 55.7466 97.3769 55.5237 97.2036 55.3512C96.9427 55.0918 96.8179 54.4696 96.8784 54.1077C96.9828 53.4828 97.346 52.9171 97.7248 52.408C98.117 51.8811 98.3459 51.6768 98.8832 51.063C99.3689 50.5253 99.718 50.2157 100.342 50.1285C100.445 50.1142 100.557 50.1058 100.677 50.1037C101.161 50.095 101.742 50.4138 102.042 50.7917C102.342 51.1696 102.453 51.6895 102.332 52.1559C102.215 52.6118 101.901 52.9889 101.582 53.3371C101.04 53.9306 100.637 54.3476 100.283 54.6659C100.988 54.6178 101.523 54.7801 101.79 55.3272C101.979 55.7121 101.908 56.009 101.869 56.4395C101.851 56.636 101.702 56.9764 101.633 57.1572C101.433 57.6793 100.967 58.0191 100.532 58.4645C100.32 58.6809 100.006 58.9473 99.6217 59.2059L99.5373 59.2626C99.8395 59.5279 100.142 59.7935 100.142 59.7935C100.495 60.1037 100.681 60.8638 100.64 61.158C100.591 61.5208 100.37 61.9022 100.059 62.2331C99.8565 62.4477 98.8002 63.2315 98.3942 63.4448C97.9882 63.658 97.5409 63.7865 97.1187 63.6075C96.7349 63.445 96.4854 63.414 96.2652 62.7557C96.1697 62.4701 96.2174 62.1467 96.3086 61.8614C96.3731 61.6587 96.4854 61.4719 96.6224 61.3089C97.2163 60.6011 97.3275 60.3863 98.286 59.7298C97.9678 59.7204 97.6521 59.6176 97.4208 59.4224L97.4216 59.4227Z" fill="white"/>
<path d="M77.0562 44.0699C77.7315 44.3109 78.3903 44.3951 79.0168 44.3587C79.1491 43.3953 79.2631 42.5683 79.3496 41.9421C79.4339 41.3321 79.9983 40.9075 80.611 40.993C81.3183 41.0918 82.2971 41.2287 83.4397 41.3882C83.7684 40.7582 83.9507 40.0977 83.945 39.4804C83.9306 37.9054 83.6738 36.6908 83.1463 35.1709C82.4886 33.2757 81.2141 29.4253 81.1222 22.5462C81.3053 20.4643 81.1152 17.4565 81.0324 16.3005C80.7458 12.2932 78.9455 7.81823 76.3551 5.33119C75.235 4.25583 74.9098 3.75405 73.6908 3.09544C73.6908 3.09544 73.0076 2.72619 72.3241 2.35721C71.9873 2.22117 71.6504 2.0854 71.6504 2.0854C69.5147 1.22382 67.2902 0.651855 64.1303 0.651855C58.9496 0.651855 54.3385 3.30814 52.2925 5.25777C48.898 8.49222 46.7446 14.4 47.0163 22.5464C47.0174 28.0679 46.5626 32.0506 45.9261 34.3136C45.4905 35.8621 45.1217 38.4412 45.1076 40.0162C45.0864 42.3604 47.408 44.9098 50.9429 44.6893C52.0891 44.1757 53.1058 43.7449 53.2897 43.8499C53.3483 43.8804 53.4112 43.9101 53.4709 43.9403C54.5666 43.4471 57.2358 42.2061 57.3037 42.1815C58.5558 41.7315 58.5065 40.9301 58.6643 40.034C58.794 39.2979 58.8835 38.6423 58.922 37.8814C57.3758 37.1588 55.9487 35.9698 54.6998 34.482C53.3038 32.8193 52.5431 30.9609 52.1089 29.353C52.0148 29.377 51.963 29.3897 51.963 29.3897C51.1835 29.5838 50.5698 29.1932 50.1353 28.8482C49.5695 28.3929 49.1627 27.795 48.8505 27.1702C48.2097 25.8878 47.9309 24.4537 48.0535 23.0463C48.0868 22.6892 48.1454 22.3232 48.3266 22.002C48.5829 21.5437 49.093 21.2076 49.6531 21.1242C50.2131 21.0408 50.8125 21.2165 51.2163 21.5793L53.2865 20.013C55.7379 18.0166 58.3801 15.5228 60.7971 13.16C60.6357 14.516 59.7787 17.3869 60.6881 17.1175C64.5122 16.0303 67.5912 13.8056 70.0142 10.6651C70.5236 12.3529 71.1666 14.7449 71.7578 15.8481C72.6032 17.4255 75.2467 20.9142 77.4384 21.5796C77.8425 21.2165 78.4416 21.0411 79.0016 21.1245C79.5617 21.2079 80.0718 21.5439 80.3281 22.0023C80.5093 22.3235 80.5679 22.6895 80.6012 23.0466C80.7238 24.4539 80.4453 25.888 79.8041 27.1704C79.492 27.7953 79.0851 28.3932 78.5194 28.8485C78.095 29.1856 77.3502 29.1854 76.791 29.2669C76.6527 29.8456 76.4709 30.3498 76.3893 30.5965C75.9423 31.8036 73.4299 36.1015 70.2773 37.6395C70.3104 38.4434 70.4034 39.2399 70.5434 40.0337C70.7012 40.9301 70.6518 41.7313 71.9037 42.1812C71.9762 42.2074 74.7037 43.4976 75.4699 43.855C75.5193 43.8275 75.5732 43.8005 75.621 43.7727C75.72 43.7095 76.1167 43.8464 76.6578 44.0777L77.0568 44.0701L77.0562 44.0699Z" fill="#65B005"/>
<path d="M95.1668 50.862C94.7117 50.7975 82.5862 49.1002 82.1547 49.0395C81.8485 48.9963 81.6358 48.7159 81.6795 48.4111C81.7283 48.0724 82.1376 45.1645 82.1823 44.8277C82.223 44.5208 82.5075 44.3062 82.8153 44.3499C83.2477 44.4112 95.3746 46.109 95.8308 46.1735C96.1361 46.2167 96.3477 46.4977 96.3048 46.8016L95.7982 50.3885C95.7551 50.6933 95.4728 50.9054 95.1666 50.8623L95.1668 50.862Z" fill="#65B005"/>
<path d="M77.8977 22.0376C78.4387 21.5806 79.3592 21.6807 79.7414 22.2891C79.9629 22.6419 79.967 23.1278 79.9759 23.5297C79.9873 24.0371 79.9496 24.5448 79.849 25.0423C79.6589 25.9819 79.3042 26.9253 78.7273 27.7005C78.5044 28.0001 78.2218 28.3507 77.8507 28.4584C77.4399 28.5777 76.9978 28.5864 76.5761 28.6463C76.2278 28.696 76.0369 29.1365 76.1215 29.4431C76.2243 29.8156 76.5728 29.9451 76.9221 29.8955C77.3311 29.8374 77.748 29.825 78.1493 29.72C78.634 29.5932 79.0121 29.3176 79.3546 28.9597C80.0457 28.2379 80.5111 27.3196 80.833 26.3833C81.172 25.3975 81.325 24.3281 81.2683 23.2876C81.2146 22.3045 80.9461 21.3873 80.0654 20.8367C79.0853 20.224 77.8375 20.3948 76.9769 21.1212C76.7087 21.3476 76.7426 21.8041 76.9769 22.0373C77.2427 22.3018 77.6286 22.2643 77.8974 22.0373L77.8977 22.0376Z" fill="#4A3E42"/>
<path d="M76.3161 28.0359C76.2966 28.6027 76.1626 29.1536 75.999 29.6951C75.9413 29.8867 75.8781 30.0765 75.8141 30.2662C75.7932 30.3286 75.772 30.3907 75.7501 30.4528C75.7428 30.4735 75.7333 30.4932 75.7259 30.514C75.685 30.6331 75.7753 30.4034 75.7422 30.4771C75.493 31.0304 75.1968 31.5605 74.8776 32.0766C73.943 33.5882 72.8077 35.0179 71.4188 36.1413C70.6589 36.7559 69.8011 37.2442 68.8526 37.462C68.0366 37.6496 68.3821 38.8991 69.1987 38.7115C71.1693 38.2589 72.8088 36.8237 74.0938 35.3343C75.158 34.1007 76.1528 32.712 76.826 31.2228C77.2721 30.2357 77.581 29.118 77.6182 28.0362C77.6469 27.2021 76.3451 27.2035 76.3164 28.0362L76.3161 28.0359Z" fill="#4A3E42"/>
<path d="M51.6767 21.1215C50.8804 20.4492 49.8083 20.267 48.8485 20.7007C47.8825 21.1375 47.4938 22.0484 47.4027 23.0463C47.2183 25.0629 47.8429 27.3578 49.2225 28.8777C49.9732 29.7047 50.999 30.2581 52.1362 30.0143C52.9547 29.8389 52.6083 28.5897 51.7901 28.7649C51.038 28.926 50.3356 28.2496 49.9269 27.7006C49.3381 26.91 48.9795 25.9423 48.7937 24.9827C48.7013 24.5044 48.6671 24.0164 48.6782 23.5295C48.6874 23.1265 48.6904 22.6428 48.9128 22.2889C49.2952 21.6803 50.2152 21.5804 50.7565 22.0374C51.0245 22.2636 51.4142 22.2989 51.677 22.0374C51.91 21.8055 51.9463 21.3485 51.677 21.1213L51.6767 21.1215Z" fill="#4A3E42"/>
<path d="M50.9135 26.4508C51.1552 28.4179 51.5896 30.3355 52.4396 32.1385C53.5125 34.4142 55.2968 36.427 57.4193 37.7906C58.5223 38.4992 59.7664 39.0158 61.0685 39.2085C61.4156 39.2598 61.7682 39.1222 61.8691 38.7561C61.9534 38.4506 61.7644 38.0109 61.4145 37.9593C59.2196 37.6346 57.3548 36.3755 55.8517 34.7994C54.2933 33.165 53.2584 31.2005 52.6937 29.0247C52.5668 28.5359 52.4619 28.0414 52.3756 27.5439C52.3404 27.341 52.3084 27.1374 52.2788 26.9336C52.2723 26.8891 52.266 26.8446 52.2598 26.8C52.2495 26.7258 52.2682 26.8659 52.2528 26.7479C52.2397 26.6489 52.2275 26.5501 52.2153 26.451C52.1727 26.1039 51.9466 25.8032 51.5644 25.8032C51.2458 25.8032 50.8707 26.1012 50.9135 26.4508Z" fill="#4A3E42"/>
<path d="M69.4325 10.9913C69.7414 12.0254 70.033 13.0651 70.3696 14.0908C70.6424 14.9225 70.9386 15.7568 71.3869 16.5128C72.2857 18.029 73.4473 19.4725 74.7645 20.6475C75.4982 21.3017 76.3161 21.9042 77.2648 22.2041C78.0652 22.457 78.4077 21.2065 77.6109 20.9546C76.1702 20.4993 74.9018 19.0598 73.9395 17.8827C73.4516 17.2859 72.9984 16.6572 72.5962 16.0002C72.2086 15.367 71.9445 14.6965 71.7077 13.995C71.3345 12.8894 71.0218 11.7644 70.688 10.6467C70.4498 9.84931 69.1931 10.1889 69.4325 10.9911V10.9913Z" fill="#4A3E42"/>
<path d="M69.5473 10.2192C68.1568 12.0077 66.4981 13.58 64.5478 14.7509C63.595 15.3229 62.588 15.8012 61.5382 16.1688C61.2683 16.2633 60.9963 16.3513 60.7224 16.4325C60.6814 16.4447 60.5569 16.4644 60.5146 16.493C60.4701 16.523 60.3928 16.4636 60.5759 16.4876C60.7386 16.5089 60.8574 16.5964 60.9255 16.6749C60.9976 16.7581 60.9122 16.7492 60.9285 16.6423C60.9412 16.558 60.9369 16.7648 60.9331 16.6693C60.9317 16.6331 60.9288 16.5966 60.9277 16.5605C60.9228 16.3764 60.9383 16.1915 60.9586 16.0088C61.0557 15.1288 61.3299 14.1066 61.4476 13.1603C61.5203 12.5756 60.7034 12.3435 60.3364 12.7022C57.9134 15.0697 55.453 17.4113 52.8258 19.5552C52.5538 19.7771 52.5944 20.2411 52.8258 20.4714C53.0948 20.7391 53.4737 20.6938 53.7463 20.4714C56.3735 18.3274 58.8339 15.9858 61.2569 13.6183L60.1458 13.1603C60.1211 13.3579 60.1574 13.0874 60.1382 13.2127C60.1311 13.2585 60.1238 13.3044 60.1165 13.3503C60.0983 13.4607 60.0788 13.5711 60.0584 13.681C60.0142 13.9215 59.9665 14.1612 59.9201 14.4011C59.819 14.9223 59.7216 15.4446 59.6608 15.9726C59.5722 16.7454 59.695 17.9813 60.8024 17.7557C61.4047 17.6329 62.0093 17.3856 62.5788 17.1586C63.1814 16.9184 63.7735 16.6528 64.3479 16.3516C65.4656 15.7656 66.5108 15.0516 67.4812 14.2475C68.5924 13.3266 69.5836 12.2731 70.4681 11.1359C70.6829 10.8595 70.7387 10.4892 70.4681 10.2198C70.244 9.99683 69.764 9.9415 69.5476 10.2198L69.5473 10.2192Z" fill="#4A3E42"/>
<path d="M81.7735 22.5463C81.8977 21.0788 81.8597 19.5974 81.7919 18.128C81.7333 16.8561 81.6566 15.5845 81.4364 14.3286C80.91 11.3244 79.7044 8.33744 77.7875 5.94244C77.2676 5.29301 76.6617 4.72915 76.0762 4.14019C75.5297 3.59063 74.962 3.08831 74.2927 2.68963C73.5721 2.26019 72.9168 3.38009 73.6355 3.80845C74.1834 4.13479 74.6368 4.53643 75.0854 4.98611C75.5782 5.48007 76.0943 5.9554 76.5527 6.48174C77.4677 7.53281 78.1791 8.76203 78.756 10.0244C79.37 11.3686 79.8134 12.7981 80.1012 14.2457C80.3377 15.4355 80.4158 16.6388 80.4766 17.8478C80.5552 19.4098 80.604 20.9859 80.4717 22.5463C80.4421 22.8953 80.792 23.1941 81.1226 23.1941C81.4993 23.1941 81.7439 22.8964 81.7735 22.5463Z" fill="#4A3E42"/>
<path d="M46.3654 22.5458C46.3641 24.6884 46.302 26.8329 46.1208 28.9685C45.9947 30.452 45.8214 31.9179 45.4908 33.3723C45.3335 34.0641 45.1319 34.7429 44.9931 35.4396C44.8016 36.4018 44.6595 37.376 44.5594 38.352C44.4759 39.1672 44.3899 40.0039 44.5274 40.8172C44.6511 41.5484 44.9706 42.2621 45.4105 42.8589C46.6402 44.5264 48.6162 45.3805 50.675 45.3478C51.5119 45.3346 51.5144 44.0387 50.675 44.0522C49.1063 44.0773 47.5395 43.4975 46.5585 42.2367C46.1569 41.7206 45.9011 41.1527 45.7891 40.51C45.7509 40.2906 45.7552 39.8935 45.7677 39.595C45.7861 39.1629 45.8216 38.7313 45.8667 38.301C45.9583 37.4238 46.0923 36.5506 46.2681 35.686C46.4028 35.0228 46.5959 34.3758 46.7459 33.7167C47.0676 32.302 47.2482 30.8534 47.383 29.4106C47.5962 27.1295 47.6656 24.836 47.6672 22.5458C47.6678 21.712 46.366 21.7106 46.3654 22.5458Z" fill="#4A3E42"/>
<path d="M76.8819 44.6942C77.561 44.9331 78.2957 45.0467 79.0158 45.0089C79.3553 44.9911 79.683 44.7236 79.6667 44.3611C79.6515 44.0253 79.38 43.6941 79.0158 43.7133C78.712 43.7292 78.4088 43.7173 78.1072 43.6782L78.2803 43.7014C77.9209 43.6523 77.5697 43.5651 77.228 43.445C77.0755 43.3913 76.8621 43.4312 76.7265 43.5103C76.5914 43.5889 76.4626 43.743 76.4273 43.8974C76.3444 44.2602 76.5377 44.5733 76.8819 44.6942Z" fill="#4A3E42"/>
<path d="M80.4727 22.5463C80.5142 25.3985 80.7534 28.2591 81.3268 31.0574C81.6696 32.7306 82.2085 34.3188 82.7178 35.9438C83.2158 37.5328 83.6703 39.5 82.8803 41.0598C82.5041 41.8026 83.6269 42.4594 84.0045 41.7138C85.2867 39.1812 84.1938 36.3899 83.4021 33.8832C82.794 31.9578 82.3788 29.9715 82.1301 27.9692C81.9064 26.1702 81.8009 24.3585 81.7746 22.5465C81.7624 21.7136 80.4605 21.7109 80.4727 22.5463Z" fill="#4A3E42"/>
<path d="M53.7962 44.5024C54.8734 44.0151 55.945 43.515 57.0187 43.0197C57.1806 42.9449 57.3422 42.8701 57.5044 42.7965C57.541 42.78 57.5809 42.7657 57.6159 42.7463C57.6343 42.736 57.4735 42.8048 57.4757 42.8051C57.5101 42.8091 57.614 42.7517 57.6541 42.7352C57.7735 42.6866 57.8928 42.6364 58.0064 42.5754C58.6419 42.2345 59.0316 41.6452 59.1716 40.9499C59.3606 40.0106 59.4943 39.0435 59.5594 38.0882C59.5833 37.7387 59.2432 37.4404 58.9085 37.4404C58.5364 37.4404 58.2814 37.7379 58.2576 38.0882C58.2044 38.8715 58.0778 39.6441 57.9497 40.4182C57.9294 40.5421 57.9066 40.6657 57.8749 40.7872C57.8594 40.8463 57.8413 40.9043 57.822 40.9623C57.8125 40.9907 57.8025 41.0201 57.7903 41.0474C57.8179 40.9845 57.8028 41.0169 57.7789 41.0571C57.7474 41.11 57.7184 41.1645 57.6807 41.2136C57.7377 41.1394 57.6316 41.2585 57.6124 41.2776C57.5492 41.3402 57.4122 41.4293 57.2739 41.4952C56.4733 41.876 55.6545 42.228 54.8487 42.5997C54.2797 42.8623 53.7107 43.1252 53.1395 43.3835C52.8195 43.5282 52.7414 43.99 52.906 44.2699C53.0983 44.5974 53.4753 44.6476 53.7967 44.5024H53.7962Z" fill="#4A3E42"/>
<path d="M75.471 43.2084H75.4683L75.7967 43.2969C74.662 42.7641 73.5313 42.2229 72.3941 41.6955C72.172 41.5924 71.9352 41.5171 71.7294 41.3832C71.4742 41.2172 71.3988 41.0631 71.3201 40.7384C71.0869 39.7753 70.983 38.7455 70.9337 37.759C70.8922 36.9293 69.5901 36.9241 69.6318 37.759C69.6798 38.7237 69.835 39.6698 69.9804 40.6231C70.0899 41.3406 70.3348 41.9695 70.9423 42.4121C71.1053 42.5309 71.2789 42.62 71.4641 42.6988C71.52 42.7226 71.5762 42.7466 71.6326 42.769C71.8723 42.8637 71.6147 42.7655 71.5848 42.7447C71.5984 42.7541 71.6171 42.7587 71.632 42.766C71.7787 42.8381 71.9287 42.9039 72.0765 42.9733C72.6108 43.2238 73.1446 43.4756 73.6783 43.7275C73.9875 43.8732 74.2967 44.0192 74.6061 44.165C74.8578 44.2835 75.1919 44.5046 75.471 44.5046C76.3088 44.5046 76.3101 43.2089 75.471 43.2089V43.2084Z" fill="#4A3E42"/>
<path d="M71.8223 1.46062C69.1731 0.397402 66.3283 -0.104649 63.4698 0.0181647C60.5315 0.144487 57.642 1.04818 55.0818 2.47201C53.1735 3.53333 51.5132 4.89211 50.2233 6.65442C48.8762 8.49528 47.9679 10.6471 47.3693 12.8359C46.5074 15.9872 46.2604 19.2915 46.364 22.5462C46.3905 23.3779 47.6924 23.3816 47.6658 22.5462C47.5082 17.6045 48.1184 12.2636 50.8628 8.01347C51.9045 6.39989 53.2798 5.09536 54.9275 4.06832C57.1926 2.65663 59.7998 1.67304 62.4649 1.38882C65.5351 1.06141 68.6239 1.56481 71.4762 2.70981C71.8025 2.84072 72.1914 2.56729 72.2768 2.25742C72.3791 1.88763 72.1496 1.5918 71.8223 1.46062Z" fill="#4A3E42"/>
<path d="M62.2071 32.0739C62.9931 32.4869 63.8395 32.6604 64.7283 32.6545C65.6336 32.6485 66.5465 32.4704 67.2717 31.9084C67.5491 31.6933 67.4987 31.2182 67.2717 30.9923C66.9978 30.7197 66.6295 30.7767 66.3512 30.9923C66.5484 30.8395 66.3943 30.957 66.3436 30.9893C66.2929 31.0217 66.2408 31.0514 66.1877 31.0792C66.16 31.0935 66.1318 31.1065 66.1041 31.1205C66.0049 31.1713 66.1226 31.1321 66.1294 31.1124C66.1193 31.141 65.9441 31.1807 65.914 31.1902C65.7177 31.2531 65.5156 31.2971 65.3117 31.327C65.4071 31.313 65.2908 31.3284 65.2531 31.3321C65.194 31.3381 65.1348 31.3429 65.0757 31.3467C64.933 31.3559 64.7904 31.3594 64.6475 31.3586C64.5194 31.3578 64.3917 31.3535 64.2642 31.3448C64.2057 31.3408 64.1471 31.3362 64.0888 31.3303C64.0831 31.3297 63.8723 31.3003 64.0028 31.3211C63.8127 31.2911 63.6245 31.2517 63.44 31.1966C63.3611 31.1732 63.2844 31.1451 63.2065 31.1186C63.0397 31.062 63.3009 31.1675 63.1504 31.0968C63.0538 31.0514 62.9586 31.0042 62.8645 30.9548C62.5537 30.7915 62.1567 30.8763 61.9739 31.1872C61.8019 31.4798 61.8955 31.9095 62.2074 32.0736L62.2071 32.0739Z" fill="#4A3E42"/>
<path d="M64.3998 26.1604C64.5099 26.5779 64.6154 27.002 64.6786 27.4292L64.6553 27.257C64.6629 27.3156 64.6661 27.3734 64.6602 27.4322L64.6835 27.26C64.6794 27.2873 64.6735 27.3126 64.6642 27.3388L64.7299 27.1842C64.7217 27.2025 64.7133 27.2182 64.7019 27.2349L64.8036 27.1037C64.7906 27.1196 64.7782 27.1318 64.7619 27.1445L64.8937 27.0433C64.8614 27.0638 64.8275 27.0805 64.7928 27.0964L64.9482 27.0311C64.8926 27.0543 64.8376 27.0711 64.7779 27.0805L64.9509 27.0573C64.8972 27.0635 64.8449 27.0632 64.7912 27.057L64.9642 27.0802C64.904 27.0719 64.8449 27.0573 64.7847 27.0492C64.6982 27.0222 64.6116 27.0184 64.5251 27.0376C64.4386 27.0414 64.3578 27.067 64.2832 27.1145C64.1481 27.1931 64.0193 27.3472 63.9841 27.5016C63.9461 27.6673 63.9542 27.8536 64.0497 28.0007C64.1343 28.1313 64.2761 28.2765 64.4386 28.2984C64.5756 28.3167 64.7082 28.3513 64.8476 28.3575C65.061 28.3667 65.2593 28.3019 65.4499 28.215C65.6854 28.1078 65.869 27.8973 65.9316 27.6449C65.9845 27.4314 65.9617 27.2446 65.9254 27.0306C65.8559 26.6216 65.761 26.2165 65.6553 25.8157C65.569 25.488 65.1863 25.2564 64.8546 25.3633C64.5156 25.4723 64.3073 25.8089 64.4001 26.1601L64.3998 26.1604Z" fill="#4A3E42"/>
<path d="M57.6534 22.5671C57.4405 23.2557 57.5794 24.8401 58.8902 24.9748C60.6229 24.9646 60.7151 23.0492 60.1318 22.1485C59.6542 21.4111 58.2501 21.1044 57.6534 22.5671Z" fill="#4A3E42"/>
<path d="M71.5298 22.5671C71.7427 23.2557 71.6041 24.8401 70.2931 24.9748C68.5603 24.9646 68.4681 23.0489 69.0515 22.1485C69.5291 21.4111 70.9331 21.1044 71.5298 22.5671Z" fill="#4A3E42"/>
<path d="M39.7481 58.9262C40.2645 58.1607 40.626 57.2762 41.0092 56.4408C41.5641 55.231 42.1036 54.0142 42.6791 52.8138C43.1835 51.7614 43.6994 50.6925 44.3611 49.7268C44.4148 49.6482 44.4704 49.5713 44.5266 49.4944C44.6331 49.3489 44.4444 49.5924 44.554 49.4582C44.5854 49.4199 44.6166 49.3815 44.6489 49.344C44.8892 49.0665 45.1579 48.8088 45.427 48.5591C46.0494 47.9817 46.7261 47.4754 47.4573 47.0421C48.7667 46.2661 50.2296 45.7077 51.6206 45.0925C52.1099 44.8763 52.6019 44.6391 53.1237 44.5036C53.1627 44.4933 53.2126 44.4892 53.2498 44.4739C53.3694 44.4245 53.0987 44.4787 53.2067 44.4822C53.1462 44.4803 52.8256 44.3338 53.0453 44.4536C53.1302 44.5 53.2186 44.5413 53.3054 44.5843C53.6715 44.7646 54.0434 44.9327 54.419 45.0922C57.7809 46.5201 61.541 47.3704 65.2086 47.1957C67.1453 47.1034 69.0798 46.7622 70.9512 46.264C72.6162 45.8208 74.2868 45.2526 75.7966 44.4153L75.4682 44.5038C75.5883 44.5038 75.8745 44.4415 75.9485 44.3316C75.9002 44.4029 75.6814 44.4242 75.6315 44.3948C75.6572 44.4099 75.7004 44.4077 75.7291 44.4183C75.9594 44.5019 76.1902 44.5759 76.4155 44.6736C77.1465 44.9905 77.863 45.34 78.5839 45.6785C78.9017 45.8275 79.286 45.7668 79.4745 45.4461C79.64 45.1646 79.5605 44.7098 79.241 44.5597C78.4485 44.1877 77.6615 43.802 76.8544 43.4619C76.2694 43.2152 75.7427 42.9642 75.1422 43.2965L75.4706 43.2079C75.1411 43.2079 74.7701 43.4984 74.4777 43.6395C74.1721 43.7872 73.8615 43.9246 73.5464 44.0509C72.7886 44.3543 72.013 44.614 71.2289 44.8412C69.5724 45.3214 67.867 45.675 66.148 45.8337C62.4899 46.1717 58.76 45.4469 55.3655 44.0911C55.0127 43.9502 54.6647 43.7985 54.3208 43.6376C54.0271 43.5003 53.7214 43.2859 53.4046 43.2109C52.9238 43.0967 52.354 43.3864 51.9219 43.5637C50.5374 44.1319 49.1488 44.7395 47.8006 45.3881C46.287 46.1163 44.83 47.155 43.7278 48.4276C43.0129 49.2531 42.5022 50.2555 42.0141 51.2232C41.3344 52.5696 40.722 53.9486 40.0974 55.3206C39.6475 56.309 39.2339 57.3671 38.6234 58.2719C38.155 58.9661 39.2824 59.6153 39.7475 58.9259L39.7481 58.9262Z" fill="#4A3E42"/>
<path d="M40.8932 65.8487C40.3606 63.4661 39.8122 61.0871 39.2993 58.7002C39.0542 57.5581 38.8177 56.4142 38.595 55.2673C38.5413 54.9901 38.4881 54.7126 38.4361 54.4352C38.3824 54.1488 38.3601 53.8319 38.208 53.576C37.9381 53.122 37.4575 53.0035 36.9656 53.0391C35.4422 53.1495 33.922 53.427 32.4214 53.7007C30.9672 53.9658 29.4997 54.2354 28.0753 54.6341C27.637 54.7566 27.2353 54.9391 27.0666 55.398C26.8762 55.9159 27.0618 56.6064 27.1076 57.1462C27.2077 58.3293 27.2934 59.5134 27.3848 60.6973C27.576 63.1722 27.7932 65.6482 28.1916 68.0999C28.8225 71.9821 29.9759 76.5027 33.8624 78.3668C36.0022 79.3933 38.4572 79.623 40.7191 78.8516C42.7687 78.1528 44.5039 76.7327 46.1499 75.3742C46.5225 75.0665 46.8922 74.7553 47.2618 74.4443C47.5306 74.2184 47.4956 73.7609 47.2618 73.5282C46.9958 73.2634 46.6106 73.3018 46.3413 73.5282C44.8608 74.7728 43.3754 76.0652 41.6776 77.0126C39.9234 77.9916 37.8649 78.288 35.9163 77.7616C34.0791 77.2655 32.5682 76.1721 31.5706 74.5582C30.6125 73.0084 30.1221 71.2258 29.7587 69.4576C28.8493 65.0328 28.733 60.5003 28.3085 56.0161C28.3072 56.0015 28.3004 55.8422 28.2917 55.8395C28.2871 55.8382 28.2152 55.9024 28.2133 55.9367C28.2114 55.9683 28.1905 55.9373 28.2651 55.9284C28.3815 55.9143 28.507 55.8595 28.6204 55.8296C28.8892 55.7583 29.1593 55.6933 29.4302 55.6304C30.1362 55.4662 30.8462 55.3191 31.5574 55.1793C33.0205 54.8919 34.6272 54.6039 36.0177 54.4322C36.2976 54.3976 36.5777 54.3663 36.8587 54.3434C36.8918 54.3407 37.2034 54.3401 37.2121 54.3202C37.2059 54.3345 37.0727 54.2422 37.0808 54.2387C37.0643 54.2457 37.1592 54.6608 37.1701 54.7199C37.3721 55.7974 37.5869 56.8725 37.8115 57.9457C38.2671 60.124 38.761 62.2939 39.2502 64.4648C39.3802 65.0409 39.5095 65.6169 39.6384 66.1931C39.8203 67.0067 41.0755 66.6623 40.8938 65.8487H40.8932Z" fill="#4A3E42"/>
<path d="M92.8889 69.519C92.9748 72.3205 92.5631 75.9248 90.107 77.6657C88.3328 78.9236 86.0066 78.9479 84.055 78.0928C82.8497 77.5645 81.7814 76.7488 80.9949 75.6972C80.7853 75.417 80.4316 75.2742 80.1042 75.4648C79.8268 75.6265 79.6595 76.0689 79.8707 76.3512C81.488 78.513 84.0411 79.9525 86.7801 79.9757C89.5348 79.9992 91.9684 78.4253 93.1012 75.9307C94.0098 73.9298 94.2574 71.6962 94.1907 69.5193C94.1652 68.6874 92.8631 68.6839 92.8889 69.5193V69.519Z" fill="#4A3E42"/>
<path d="M31.4305 39.1775C31.1433 37.4727 30.8895 35.7619 30.6494 34.0498C30.5732 33.5056 30.5079 33.0919 30.4496 32.5069C30.4157 32.169 30.3742 31.7568 30.4539 31.4661C30.4851 31.3525 30.5225 31.2632 30.5993 31.2167C30.7167 31.1457 30.9467 31.0998 31.1034 31.1152C31.3459 31.1393 31.5271 31.336 31.6787 31.579C31.7123 31.6327 31.7365 31.6956 31.7714 31.7477C31.7777 31.7568 31.7134 31.5889 31.7581 31.718C31.7736 31.7622 31.7912 31.8057 31.8067 31.85C31.9716 32.3188 32.0879 32.8057 32.2021 33.2884C32.5265 34.6582 32.789 36.0432 33.038 37.4281C33.1668 38.1456 33.2902 38.8644 33.4047 39.5842C33.4475 39.8542 33.4893 40.1246 33.5281 40.3951C33.5324 40.4259 33.5571 40.6032 33.5405 40.4828C33.524 40.3624 33.546 40.5233 33.549 40.5487C33.5579 40.6216 33.5669 40.6944 33.5739 40.7676C33.6075 41.1158 33.8489 41.4154 34.2248 41.4154C34.5508 41.4154 34.9096 41.1179 34.8757 40.7676C34.767 39.6434 34.5484 38.5224 34.3517 37.4111C34.0838 35.8958 33.8006 34.3799 33.4429 32.8824C33.1725 31.7498 32.8555 30.2145 31.5241 29.8774C30.9944 29.7432 30.3283 29.8372 29.8735 30.1462C29.4428 30.4391 29.2185 30.8966 29.1477 31.4C29.0563 32.0494 29.1662 32.7088 29.2519 33.354C29.5258 35.414 29.8298 37.4721 30.1751 39.5216C30.2334 39.8669 30.6619 40.0598 30.9757 39.974C31.3435 39.8733 31.4886 39.5235 31.4303 39.1772L31.4305 39.1775Z" fill="#4A3E42"/>
<path d="M23.5096 45.52C23.8709 47.1616 24.4211 48.8087 25.2774 50.2636C25.7628 51.0884 26.3904 51.8178 26.9312 52.6057C27.1889 52.9811 27.446 53.3639 27.5889 53.799C27.7421 54.2654 27.8145 54.7537 27.8962 55.2363C27.9548 55.5815 28.3827 55.7748 28.6968 55.6887C29.0643 55.5883 29.2102 55.2379 29.1513 54.8919C28.9867 53.9207 28.7719 53.0446 28.2265 52.2078C27.6887 51.3824 27.0332 50.6374 26.5154 49.799C25.6454 48.3901 25.1187 46.7838 24.765 45.1758C24.586 44.3618 23.3306 44.7062 23.5096 45.5203V45.52Z" fill="#4A3E42"/>
<path d="M34.6858 46.066C34.6638 45.5761 34.557 45.0984 34.4889 44.6141C34.4159 44.0953 34.2136 43.664 33.777 43.3506C33.4482 43.1147 33.0436 43.0162 32.655 42.9231C32.5684 42.9023 32.4814 42.8837 32.3957 42.8602C32.3789 42.8556 32.2009 42.8362 32.2663 42.827C32.2294 42.8321 32.1725 42.7741 32.2479 42.8521C32.179 42.7806 32.1364 42.641 32.118 42.5446C32.0748 42.3187 32.1925 42.0016 32.3761 41.8561C32.3121 41.9068 32.3157 41.8742 32.4052 41.8639C32.493 41.8539 32.5809 41.8196 32.6696 41.8078C32.8982 41.777 33.1369 41.781 33.3674 41.7813C34.1949 41.7821 35.0693 41.7716 35.8712 41.9989C36.2322 42.1012 36.5965 42.2623 36.859 42.5374C37.1272 42.8181 37.2577 43.2316 37.3588 43.5973C37.5519 44.2943 37.6553 45.0894 37.581 45.8131C37.4676 46.9144 36.7972 47.8896 36.3407 48.8991C36.2008 49.2087 36.0635 49.5202 35.9358 49.8349C35.9008 49.9207 35.862 50.0074 35.836 50.0965C35.8303 50.1164 35.8241 50.1356 35.8194 50.1558C35.715 50.6045 35.8479 50.093 35.7774 50.3389C35.6423 50.8104 35.6581 51.3643 35.6719 51.8499C35.6865 52.363 35.7359 52.8742 35.7937 53.3841C35.833 53.7317 36.0646 54.0319 36.4446 54.0319C36.766 54.0319 37.1351 53.7339 37.0955 53.3841C36.9949 52.4939 36.8617 51.527 37.0423 50.6398C37.051 50.5969 37.0654 50.5548 37.0733 50.5119L37.0849 50.4258C37.0996 50.3156 37.1004 50.3111 37.0874 50.412C37.0594 50.4347 37.0591 50.4995 37.1006 50.4134C37.144 50.3235 37.1736 50.2228 37.2113 50.1302C37.255 50.0228 37.1877 50.1828 37.2381 50.066C37.2645 50.0047 37.291 49.9434 37.3179 49.8824C37.3862 49.7264 37.4562 49.5712 37.527 49.4163C37.7515 48.9253 37.9851 48.4435 38.2568 47.9773C38.6574 47.2904 38.8771 46.3926 38.8963 45.6012C38.9183 44.7024 38.803 43.7334 38.4979 42.8856C38.3216 42.3962 38.0946 41.906 37.7041 41.5478C37.3352 41.2093 36.891 40.9737 36.4188 40.812C35.5078 40.4997 34.4967 40.5008 33.544 40.4873C33.0588 40.4803 32.5288 40.4744 32.0594 40.6147C31.597 40.7529 31.2916 41.0641 31.0654 41.4817C30.5438 42.445 30.8587 43.7488 31.9718 44.0875C32.31 44.1903 32.9091 44.1882 33.1258 44.5005C33.2435 44.6703 33.2277 44.9405 33.2598 45.1367C33.3105 45.4471 33.3699 45.7508 33.384 46.0655C33.4209 46.896 34.7229 46.9006 34.6858 46.0655V46.066Z" fill="#4A3E42"/>
<path d="M26.7962 45.757C26.791 45.7276 26.7997 45.6148 26.7861 45.7203C26.7837 45.7387 26.772 45.8145 26.7888 45.7284C26.8075 45.6321 26.759 45.8083 26.7522 45.8348C26.7818 45.7214 26.775 45.7897 26.7538 45.8248C26.7351 45.8561 26.7194 45.8888 26.7004 45.9198C26.686 45.9435 26.67 45.9662 26.6551 45.9894C26.6028 46.0715 26.753 45.8855 26.638 46.0137C26.5946 46.0623 26.551 46.1098 26.5035 46.1546C26.4677 46.1884 26.3419 46.2731 26.4485 46.2059C26.4026 46.2348 26.3384 46.2596 26.2988 46.2953C26.241 46.3471 26.3996 46.2788 26.3272 46.2823C26.3042 46.2834 26.2611 46.2966 26.2394 46.3044C26.1553 46.3349 26.3446 46.3063 26.2518 46.302C26.2244 46.3007 26.1957 46.3052 26.168 46.3055C26.1358 46.3058 25.915 46.2847 26.0511 46.3066C25.9817 46.2955 25.9131 46.2807 25.8453 46.2623C25.816 46.2545 25.7867 46.2461 25.758 46.237C25.7436 46.2324 25.595 46.1762 25.6652 46.2059C25.7284 46.2326 25.6381 46.1919 25.6329 46.1892C25.5977 46.1706 25.5624 46.1527 25.5282 46.1328C25.4943 46.1131 25.4623 46.0912 25.4293 46.0701C25.4377 46.0753 25.5033 46.1325 25.4472 46.085C25.3986 46.044 25.353 46 25.3102 45.9533C25.285 45.9257 25.2611 45.8971 25.237 45.8688C25.2804 45.9195 25.2611 45.9022 25.2313 45.8596C25.0477 45.5986 24.8939 45.3198 24.7501 45.0355C24.5988 44.7359 24.4914 44.5275 24.4068 44.2587C24.3821 44.1804 24.3604 44.1013 24.3417 44.0217C24.3357 43.9961 24.2983 43.7896 24.3108 43.8859C24.3005 43.8074 24.2969 43.7272 24.2969 43.6481C24.2969 43.6147 24.2983 43.5812 24.2991 43.5475C24.3037 43.351 24.2826 43.5974 24.3035 43.4905C24.3181 43.4149 24.3452 43.345 24.3637 43.2713C24.3249 43.426 24.3699 43.2964 24.3878 43.2492C24.4149 43.1774 24.3032 43.3197 24.3661 43.2751C24.3824 43.2635 24.397 43.2408 24.4114 43.2263C24.4326 43.2049 24.4559 43.1866 24.4773 43.1658C24.4239 43.2171 24.3987 43.2165 24.474 43.1734C24.5055 43.1555 24.6579 43.0708 24.582 43.1094C24.5071 43.1474 24.5741 43.1124 24.5923 43.107C24.6305 43.0953 24.6682 43.0821 24.707 43.0719C24.7377 43.0638 24.7721 43.0616 24.8014 43.0503C24.8752 43.0214 24.6511 43.0573 24.7973 43.0495C24.863 43.046 24.9281 43.0422 24.994 43.0449C25.0268 43.0462 25.0596 43.0505 25.0924 43.0519C25.0447 43.05 24.9864 43.0306 25.0658 43.0514C25.1285 43.0678 25.1928 43.091 25.2559 43.1043C25.1439 43.0808 25.1944 43.0727 25.237 43.0964C25.273 43.1164 25.3094 43.1366 25.3454 43.1566C25.3674 43.1688 25.3867 43.1847 25.4078 43.1976C25.2861 43.1234 25.4019 43.199 25.4303 43.2263C25.6836 43.4689 26.0989 43.477 26.3508 43.2263C26.5965 42.9817 26.605 42.5536 26.3508 42.3102C25.7468 41.7314 24.8432 41.6043 24.0802 41.925C23.7225 42.0751 23.4063 42.3277 23.2192 42.6713C22.971 43.1269 22.9656 43.6625 23.0467 44.1613C23.1204 44.6153 23.3068 45.0353 23.5064 45.4466C23.6843 45.8132 23.8682 46.1827 24.1074 46.5142C24.368 46.875 24.6707 47.1782 25.0859 47.3585C25.5388 47.5552 26.0153 47.6454 26.507 47.5671C27.4522 47.4168 28.2157 46.3368 28.0516 45.4129C27.9922 45.0785 27.5637 44.8598 27.251 44.9605C26.8895 45.0768 26.7327 45.3988 26.7964 45.7573L26.7962 45.757Z" fill="#4A3E42"/>
<path d="M29.6334 44.971C29.6575 45.1138 29.6477 45.2447 29.6133 45.3692C29.5932 45.442 29.5826 45.4628 29.5666 45.4936C29.5509 45.5241 29.4503 45.6685 29.4891 45.6218C29.3326 45.8099 29.217 45.8753 28.9708 45.8682C28.8439 45.8645 28.6928 45.8326 28.5667 45.7832C28.5122 45.7619 28.4498 45.7236 28.3928 45.6928C28.3172 45.6518 28.3836 45.695 28.3999 45.7082C28.3776 45.6901 28.3568 45.6693 28.337 45.6488C28.3063 45.617 28.2391 45.5365 28.3036 45.6188C28.2586 45.5616 28.2182 45.5001 28.178 45.4396C28.0923 45.3106 28.0129 45.1775 27.9356 45.0434C27.6375 44.5265 27.3625 43.9969 27.0661 43.4792C26.8534 43.1078 26.6631 42.7207 26.4968 42.3264C26.435 42.1798 26.3626 42.0267 26.323 41.8726C26.3162 41.8467 26.3099 41.8311 26.3148 41.8008C26.3189 41.7773 26.3601 41.675 26.3805 41.6378C26.6823 41.0845 27.4761 40.8269 27.8708 41.2656C28.4305 41.8883 29.3489 40.9695 28.7912 40.3495C27.9963 39.4652 26.5915 39.6536 25.7629 40.3689C25.3585 40.7182 25.0279 41.244 25.0141 41.7892C25.0003 42.3345 25.3317 42.9124 25.5592 43.3931C25.9294 44.1758 26.3786 44.9465 26.8117 45.6974C27.0004 46.0251 27.206 46.3854 27.4946 46.6362C27.9041 46.9919 28.5135 47.179 29.0532 47.1641C29.5986 47.149 30.1055 46.9047 30.4535 46.4858C30.9018 45.946 31.0035 45.3047 30.8888 44.6269C30.8302 44.2817 30.4022 44.0884 30.0882 44.1745C29.7207 44.2749 29.5748 44.625 29.6336 44.9713L29.6334 44.971Z" fill="#4A3E42"/>
<path d="M31.8785 43.7699C31.8625 44.0862 31.7277 44.3267 31.5151 44.4482C31.3561 44.5389 31.1514 44.5953 30.9797 44.4833C30.7288 44.3194 30.5647 43.9845 30.4345 43.7199C30.1981 43.2397 29.9626 42.7596 29.7188 42.2829C29.3562 41.5735 28.8526 40.7187 28.7802 39.9489C28.7772 39.9162 28.7796 39.768 28.7753 39.8104C28.7666 39.893 28.8122 39.7238 28.7842 39.7821C28.7601 39.832 28.8122 39.7267 28.81 39.731C28.8688 39.6234 28.9735 39.5259 29.11 39.4538C29.4227 39.2887 29.7904 39.3275 30.0763 39.5324C30.3684 39.7418 30.5598 40.1348 30.7505 40.4442C30.9781 40.8134 31.1988 41.1894 31.3914 41.5781C31.5468 41.8918 31.9937 41.9781 32.282 41.8105C32.6034 41.6235 32.6718 41.2391 32.5156 40.9241C32.2956 40.4803 32.0409 40.052 31.7768 39.6331C31.4725 39.1507 31.1595 38.6589 30.6531 38.3636C29.5678 37.7309 27.9193 38.1434 27.5367 39.4247C27.3848 39.933 27.5388 40.5057 27.7078 40.9913C27.9172 41.5932 28.2038 42.1682 28.4921 42.7355C28.7894 43.3202 29.0676 43.9172 29.3733 44.4973C29.6196 44.9651 29.9748 45.4409 30.4644 45.6747C31.025 45.9422 31.7152 45.8585 32.234 45.5292C32.8521 45.137 33.1445 44.4811 33.1803 43.7699C33.2221 42.9363 31.9202 42.9388 31.8785 43.7699Z" fill="#4A3E42"/>
<path d="M43.8847 55.4291C44.3566 58.9931 44.8879 62.545 45.5364 66.0815C46.0341 68.7944 46.5957 71.5479 46.8306 74.2398C46.9784 75.9338 46.7354 77.6659 46.5887 79.3521C46.5583 79.7011 46.9095 79.9999 47.2396 79.9999C47.6171 79.9999 47.8601 79.7022 47.8905 79.3521C48.0266 77.789 48.2585 76.1749 48.1601 74.6028C48.0784 73.2999 47.8653 72.0013 47.66 70.7136C47.2125 67.9088 46.6478 65.1249 46.1892 62.322C45.8141 60.0307 45.4914 57.7307 45.1865 55.4291C45.1407 55.0822 44.9202 54.7812 44.5356 54.7812C44.2197 54.7812 43.8383 55.0798 43.8847 55.4291Z" fill="#4A3E42"/>
<path d="M78.9756 46.9587C78.2937 46.32 77.2924 46.2005 76.4289 46.5176C75.5005 46.8585 74.8494 47.5592 74.7824 48.5644C74.7186 49.5248 75.2744 50.3786 75.6733 51.2096C76.0975 52.0939 76.523 52.9749 77.0662 53.7944C77.2596 54.0862 77.6418 54.2103 77.9569 54.0268C78.2482 53.8573 78.3849 53.4338 78.1904 53.1404C77.7551 52.4837 77.3917 51.7881 77.0492 51.0798C76.8693 50.7079 76.6931 50.334 76.5105 49.9634C76.3622 49.6625 76.2032 49.3774 76.1238 49.0495C76.0031 48.5504 76.1021 48.1388 76.5764 47.8686C77.0416 47.6038 77.6832 47.5266 78.0551 47.8748C78.6648 48.4459 79.5871 47.5314 78.9756 46.9587Z" fill="#4A3E42"/>
<path d="M95.3402 50.2374C93.1111 49.9224 90.881 49.6125 88.6514 49.3005C87.1952 49.0967 85.7388 48.8926 84.2827 48.6888C83.8116 48.623 83.3408 48.5569 82.8697 48.491C82.7333 48.4718 82.5966 48.454 82.4604 48.4335C82.4254 48.4284 82.3902 48.4216 82.3549 48.4187C82.346 48.4179 82.3373 48.4154 82.3283 48.4149C82.1843 48.4071 82.3083 48.3714 82.3034 48.4295C82.3045 48.4168 82.3514 48.5515 82.3102 48.5663C82.3685 48.545 82.4035 47.9074 82.4132 47.8373C82.4694 47.4394 82.5252 47.0415 82.5811 46.6437C82.6353 46.2577 82.6896 45.8717 82.7433 45.4857C82.7596 45.3688 82.7758 45.252 82.7918 45.1351C82.7973 45.0957 82.8027 45.0563 82.8078 45.0169L82.8195 44.9308C82.8309 44.8225 82.8341 44.8158 82.8295 44.9108C82.788 44.9372 82.8027 44.9583 82.762 44.9812C82.7159 45.0071 82.5928 44.9737 82.7107 44.9842C82.7593 44.9885 82.8078 44.998 82.8561 45.0047C83.0077 45.026 83.1596 45.0474 83.3112 45.0687C83.8189 45.1399 84.3266 45.2109 84.8346 45.2822C87.7691 45.6933 90.7033 46.1041 93.6378 46.5152C94.123 46.5832 94.6082 46.6512 95.0937 46.7192C95.2339 46.7389 95.3741 46.7586 95.5143 46.7784C95.5499 46.7832 95.5854 46.79 95.6209 46.7935C95.6315 46.7945 95.6418 46.7972 95.6524 46.7978C95.7679 46.8053 95.7164 46.8116 95.6594 46.712C95.6386 46.675 95.6803 46.5905 95.6616 46.7406C95.6491 46.8399 95.6337 46.9387 95.6196 47.0378L95.4796 48.0281L95.2006 50.0042C95.1919 50.0663 95.1794 50.1291 95.174 50.1918C95.1726 50.209 95.1588 50.2538 95.1604 50.2614C95.177 50.3321 95.0999 50.313 95.1824 50.2428C95.2204 50.2107 95.3549 50.2266 95.1664 50.2152C94.3297 50.1648 94.3327 51.4604 95.1664 51.5109C95.7696 51.5473 96.3095 51.13 96.4283 50.5419C96.4701 50.3351 96.4877 50.1205 96.5173 49.9116C96.6236 49.1582 96.7302 48.4049 96.8365 47.6515C96.8671 47.4345 96.8983 47.2175 96.9284 47.0002C97.0109 46.4053 96.7728 45.8215 96.1739 45.6026C95.8989 45.5019 95.5816 45.4906 95.2928 45.4501C92.3187 45.0331 89.3443 44.6168 86.3702 44.2003C85.3073 44.0516 84.2447 43.9029 83.1818 43.7536C83.0164 43.7304 82.8445 43.6951 82.679 43.7021C82.3424 43.7167 82.0362 43.8719 81.8179 44.124C81.6959 44.2651 81.6099 44.4319 81.5635 44.612C81.5391 44.7073 81.5155 45.0044 81.5489 44.694C81.5459 44.721 81.5416 44.748 81.5378 44.775C81.4317 45.5378 81.3246 46.3009 81.2172 47.0634C81.1046 47.8618 80.7445 48.9752 81.5793 49.5027C81.8833 49.6948 82.2687 49.7056 82.6164 49.7542C83.8962 49.9335 85.1763 50.1127 86.4562 50.2919C89.2223 50.6792 91.9886 51.066 94.7544 51.4542C94.8339 51.4653 94.9133 51.4763 94.9928 51.4877C95.3405 51.5368 95.692 51.4029 95.7934 51.0353C95.8772 50.7316 95.689 50.2879 95.3389 50.2385L95.3402 50.2374Z" fill="#4A3E42"/>
<path d="M96.5971 63.4747C96.3549 65.0422 96.1176 66.6101 95.8756 68.1776C95.8412 68.4011 95.8032 68.603 95.5843 68.7117C95.3807 68.8127 95.2836 68.7522 95.0509 68.7204C94.5668 68.654 94.0824 68.5876 93.5983 68.5212C90.8864 68.1498 88.1743 67.7797 85.4622 67.4094C82.9391 67.065 80.4163 66.7205 77.8935 66.3748C77.4588 66.3151 76.842 66.3632 76.7333 65.8395C76.7051 65.7037 76.73 65.8222 76.7422 65.7032C76.7512 65.6152 76.7664 65.5275 76.7786 65.44C76.8079 65.2284 76.8369 65.0168 76.8659 64.8049C77.0034 63.8054 77.1406 62.8056 77.2776 61.8061C78.0028 56.5184 78.7253 51.2304 79.4506 45.9429C79.5878 44.9418 79.7253 43.9406 79.8631 42.9395C79.9073 42.618 79.8867 42.0172 80.1131 41.7788C80.3889 41.4887 80.8495 41.6749 81.2511 41.7311C83.7644 42.0822 86.278 42.4334 88.7913 42.7848C91.4736 43.1597 94.1561 43.5347 96.8384 43.9096C97.325 43.9776 97.8115 44.0456 98.2981 44.1136C98.5007 44.142 98.7534 44.1398 98.9303 44.2467C99.15 44.3795 99.1611 44.6316 99.1448 44.7658C98.9872 46.0541 98.783 47.3384 98.6027 48.6235C98.5232 49.1895 98.4437 49.7552 98.3651 50.3213C98.3171 50.6673 98.4494 51.0169 98.8196 51.1181C99.1237 51.2012 99.572 51.0144 99.6202 50.6657C99.8095 49.3037 100.002 47.9419 100.193 46.5799C100.279 45.9731 100.402 45.3583 100.448 44.7474C100.514 43.8705 99.8551 43.0577 98.9902 42.9125C96.513 42.4963 94.0045 42.2153 91.5167 41.8676C88.6704 41.4698 85.824 41.0722 82.9776 40.6743C82.4531 40.6009 81.9286 40.5278 81.4041 40.4543C80.7274 40.3599 80.0556 40.2236 79.4524 40.6479C78.8593 41.0649 78.7362 41.6601 78.6445 42.3246C78.5813 42.7827 78.5184 43.2407 78.4555 43.6985C78.1034 46.2611 77.7525 48.8243 77.4016 51.3872C77.008 54.261 76.6148 57.1349 76.221 60.0084C76.0612 61.1745 75.9012 62.3405 75.7412 63.5066C75.678 63.966 75.6148 64.4254 75.5516 64.8848C75.4643 65.5197 75.3317 66.1548 75.7016 66.7354C76.1157 67.3854 76.7585 67.5155 77.4639 67.6121C77.9966 67.6852 78.5293 67.7581 79.0619 67.831C80.4093 68.0153 81.7569 68.1994 83.1046 68.3835C86.0676 68.7881 89.0305 69.1925 91.9932 69.5979C92.5869 69.6791 93.1806 69.7604 93.7746 69.8416C94.2833 69.9113 94.809 70.0265 95.3221 70.0497C96.1965 70.0891 96.9892 69.4276 97.1232 68.5738C97.22 67.957 97.3087 67.3389 97.4036 66.7219C97.5525 65.7542 97.7022 64.7866 97.8519 63.8189C97.9054 63.4734 97.7641 63.1222 97.3974 63.0221C97.089 62.9379 96.6505 63.1265 96.5968 63.4745L96.5971 63.4747Z" fill="#4A3E42"/>
<path d="M93.7958 55.36C93.4416 55.3098 93.0876 55.2596 92.7334 55.2094C92.6559 55.1983 92.5786 55.1875 92.501 55.1765C92.459 55.1705 92.4161 55.1665 92.3746 55.1576L92.3394 55.1492C92.2743 55.1279 92.293 55.137 92.3952 55.1767C92.3909 55.1713 92.3342 55.1419 92.3347 55.1419L92.4115 55.2016C92.3941 55.1867 92.3776 55.1708 92.3621 55.1538C92.4223 55.1756 92.447 55.2763 92.3936 55.1883C92.3155 55.0601 92.4375 55.3152 92.4009 55.2002C92.3616 55.0771 92.4091 55.364 92.408 55.2329C92.4077 55.1908 92.4251 55.1179 92.3963 55.2914C92.4082 55.2199 92.4169 55.1476 92.427 55.0758C92.4527 54.8936 92.4779 54.7114 92.5026 54.5292C92.5184 54.4134 92.5341 54.2973 92.5496 54.1813L92.5552 54.1389C92.565 54.0655 92.5628 54.0833 92.549 54.1923C92.5536 54.1875 92.5677 54.1224 92.5677 54.1224L92.5292 54.2118C92.5395 54.1907 92.5512 54.1705 92.5639 54.151C92.5596 54.2174 92.4698 54.2549 92.5273 54.2012C92.6193 54.1151 92.3898 54.2722 92.5029 54.2163C92.5224 54.2042 92.5428 54.1934 92.5639 54.1837C92.4663 54.2217 92.4419 54.2336 92.4901 54.219C92.5848 54.184 92.5219 54.2601 92.4392 54.2217L92.4752 54.2209C92.5422 54.225 92.5241 54.2212 92.4205 54.2099C92.4975 54.2215 92.5745 54.2317 92.6515 54.2428C92.8286 54.2679 93.0057 54.2933 93.1831 54.3184C93.3605 54.3435 93.5389 54.368 93.7166 54.3942C93.744 54.3983 93.7727 54.4012 93.8001 54.4072L93.8354 54.4158C93.9005 54.4371 93.8817 54.4282 93.7792 54.3886L93.8099 54.405C93.8663 54.4415 93.8505 54.4277 93.7624 54.3637L93.7876 54.3869C93.8329 54.4358 93.8213 54.418 93.7524 54.3338L93.7713 54.3624C93.8036 54.4215 93.7968 54.4004 93.7516 54.2995C93.7526 54.3138 93.7665 54.3491 93.7724 54.3653C93.8164 54.4855 93.7624 54.2026 93.7657 54.3327C93.7686 54.4555 93.7849 54.2231 93.783 54.2361C93.7776 54.2744 93.7722 54.313 93.7667 54.3513L93.6943 54.8642C93.6729 55.0164 93.6528 55.1689 93.6298 55.3209C93.6271 55.3395 93.6246 55.3576 93.6208 55.3762L93.6124 55.4113C93.591 55.4761 93.6002 55.4574 93.6401 55.3557C93.6325 55.3713 93.6238 55.3864 93.6143 55.401C93.5875 55.4429 93.6046 55.4224 93.665 55.3395L93.6417 55.3649C93.5926 55.4102 93.6105 55.3986 93.6951 55.33C93.6737 55.3362 93.6244 55.3651 93.6059 55.3813L93.6968 55.3408C93.6745 55.3478 93.652 55.3535 93.629 55.3576C93.744 55.3452 93.7662 55.3406 93.6957 55.3433C93.6713 55.343 93.6469 55.3411 93.6227 55.3376C93.4676 55.3206 93.2683 55.4221 93.1625 55.5273C93.0497 55.6396 92.9645 55.824 92.9718 55.9854C92.9889 56.3679 93.2588 56.5935 93.6227 56.6332C94.1763 56.6934 94.6696 56.3042 94.8502 55.8059C94.8996 55.6693 94.9064 55.5122 94.9264 55.3697L95.0168 54.7308C95.0238 54.6806 95.0311 54.6304 95.0382 54.5799C95.0748 54.3181 95.0648 54.0908 94.9606 53.8457C94.8597 53.6079 94.6794 53.4044 94.4513 53.2781C94.243 53.1626 94.0279 53.1402 93.7977 53.1075C93.5785 53.0765 93.3594 53.0452 93.1402 53.0141C92.9138 52.982 92.6664 52.9175 92.4392 52.9267C91.9076 52.948 91.4094 53.3197 91.2938 53.8487C91.2746 53.9372 91.2683 54.0293 91.2564 54.1189C91.2537 54.14 91.2507 54.161 91.248 54.1821C91.248 54.1837 91.2667 54.0436 91.2567 54.1186C91.2423 54.2244 91.2279 54.3303 91.2133 54.4361C91.1837 54.649 91.1525 54.8617 91.1238 55.0747C91.0441 55.6647 91.4251 56.2785 92.0288 56.4076C92.2561 56.4561 92.4942 56.4745 92.7245 56.5072C92.9664 56.5414 93.2083 56.5757 93.4502 56.61C93.6311 56.6356 93.7874 56.6405 93.9517 56.5447C94.0868 56.4661 94.2156 56.312 94.2509 56.1576C94.3208 55.8515 94.1567 55.4118 93.7963 55.3608L93.7958 55.36Z" fill="#4A3E42"/>
<path d="M92.4325 65.0241C92.0783 64.9739 91.7243 64.9236 91.3701 64.8734C91.2926 64.8624 91.2153 64.8516 91.1377 64.8405C91.0957 64.8346 91.0528 64.8305 91.0113 64.8216L90.9761 64.8133C90.911 64.7919 90.9297 64.8011 91.0319 64.8408C91.0276 64.8354 90.9709 64.806 90.9715 64.806L91.0482 64.8656C91.0309 64.8508 91.0143 64.8348 90.9989 64.8178C91.0591 64.8397 91.0837 64.9404 91.0303 64.8524C90.9522 64.7242 91.0743 64.9793 91.0376 64.8643C90.9983 64.7412 91.0458 65.0281 91.0447 64.8969C91.0444 64.8548 91.0618 64.7819 91.033 64.9555C91.045 64.884 91.0536 64.8116 91.0637 64.7398C91.0894 64.5576 91.1147 64.3754 91.1393 64.1932C91.1551 64.0775 91.1708 63.9614 91.1863 63.8453L91.192 63.8029C91.2017 63.7295 91.1996 63.7473 91.1857 63.8564C91.1903 63.8515 91.2044 63.7865 91.2044 63.7865L91.1659 63.8758C91.1762 63.8548 91.1879 63.8345 91.2006 63.8151C91.1963 63.8815 91.1065 63.919 91.164 63.8653C91.256 63.7792 91.0265 63.9363 91.1396 63.8804C91.1591 63.8683 91.1795 63.8575 91.2006 63.8477C91.103 63.8858 91.0786 63.8977 91.1269 63.8831C91.2215 63.848 91.1586 63.9241 91.0759 63.8858L91.112 63.885C91.1789 63.889 91.1608 63.8853 91.0572 63.8739C91.1342 63.8855 91.2112 63.8958 91.2882 63.9069C91.4653 63.932 91.6424 63.9573 91.8198 63.9824C91.9972 64.0075 92.1756 64.0321 92.3533 64.0583C92.3807 64.0623 92.4094 64.0653 92.4368 64.0712L92.4721 64.0799C92.5372 64.1012 92.5185 64.0923 92.4159 64.0526L92.4466 64.0691C92.503 64.1055 92.4873 64.0918 92.3991 64.0278L92.4243 64.051C92.4696 64.0999 92.458 64.082 92.3891 63.9978L92.4081 64.0264C92.4403 64.0855 92.4336 64.0645 92.3883 63.9635C92.3894 63.9779 92.4032 64.0132 92.4092 64.0294C92.4531 64.1495 92.3991 63.8666 92.4024 63.9967C92.4054 64.1196 92.4216 63.8872 92.4197 63.9001C92.4143 63.9384 92.4089 63.977 92.4035 64.0154L92.331 64.5282C92.3096 64.6805 92.2896 64.833 92.2665 64.9849C92.2638 65.0035 92.2613 65.0216 92.2575 65.0403L92.2491 65.0753C92.2277 65.1401 92.2369 65.1215 92.2768 65.0197C92.2692 65.0354 92.2605 65.0505 92.251 65.0651C92.2242 65.1069 92.2413 65.0864 92.3018 65.0035L92.2784 65.0289C92.2293 65.0743 92.2472 65.0627 92.3319 64.9941C92.3104 65.0003 92.2611 65.0292 92.2426 65.0454L92.3335 65.0049C92.3112 65.0119 92.2887 65.0176 92.2657 65.0216C92.3807 65.0092 92.4029 65.0046 92.3324 65.0073C92.308 65.0071 92.2836 65.0052 92.2594 65.0017C92.1043 64.9847 91.905 65.0861 91.7992 65.1914C91.6864 65.3037 91.6012 65.4881 91.6085 65.6495C91.6256 66.0319 91.8955 66.2576 92.2594 66.2973C92.813 66.3575 93.3063 65.9682 93.4869 65.47C93.5363 65.3334 93.5431 65.1763 93.5632 65.0338L93.6535 64.3949C93.6605 64.3447 93.6678 64.2945 93.6749 64.244C93.7115 63.9822 93.7015 63.7549 93.5973 63.5098C93.4964 63.272 93.3161 63.0685 93.088 62.9422C92.8797 62.8266 92.6646 62.8042 92.4344 62.7716C92.2152 62.7405 91.9961 62.7092 91.777 62.6782C91.5505 62.6461 91.3032 62.5816 91.0759 62.5907C90.5443 62.6121 90.0461 62.9837 89.9306 63.5128C89.9113 63.6013 89.9051 63.6934 89.8931 63.783C89.8904 63.804 89.8874 63.8251 89.8847 63.8461C89.8847 63.8477 89.9034 63.7077 89.8934 63.7827C89.879 63.8885 89.8647 63.9943 89.85 64.1001C89.8204 64.3131 89.7893 64.5258 89.7605 64.7388C89.6808 65.3288 90.0618 65.9426 90.6655 66.0716C90.8928 66.1202 91.1309 66.1386 91.3612 66.1712C91.6031 66.2055 91.845 66.2398 92.087 66.2741C92.2679 66.2997 92.4241 66.3046 92.5884 66.2087C92.7235 66.1302 92.8523 65.9761 92.8876 65.8217C92.9575 65.5156 92.7935 65.0759 92.433 65.0249L92.4325 65.0241Z" fill="#4A3E42"/>
<path d="M82.3778 63.6183C82.0236 63.5681 81.6697 63.5179 81.3155 63.4677C81.2379 63.4566 81.1606 63.4458 81.083 63.4348C81.041 63.4288 80.9981 63.4248 80.9566 63.4159L80.9214 63.4075C80.8563 63.3862 80.875 63.3953 80.9773 63.435C80.9729 63.4296 80.9162 63.4002 80.9168 63.4002L80.9935 63.4599C80.9762 63.445 80.9596 63.4291 80.9442 63.4121C81.0044 63.4339 81.0291 63.5346 80.9756 63.4466C80.8975 63.3184 81.0196 63.5735 80.983 63.4585C80.9436 63.3354 80.9911 63.6223 80.99 63.4912C80.9897 63.4491 81.0071 63.3762 80.9783 63.5497C80.9903 63.4782 80.999 63.4059 81.009 63.3341C81.0348 63.1519 81.06 62.9697 81.0847 62.7875C81.1004 62.6717 81.1161 62.5556 81.1316 62.4396L81.1373 62.3972C81.147 62.3238 81.1449 62.3416 81.131 62.4506C81.1356 62.4458 81.1497 62.3807 81.1497 62.3807L81.1112 62.4701C81.1215 62.449 81.1332 62.4288 81.146 62.4093C81.1416 62.4757 81.0518 62.5132 81.1093 62.4595C81.2013 62.3734 80.9718 62.5305 81.0849 62.4746C81.1045 62.4625 81.1248 62.4517 81.146 62.442C81.0483 62.48 81.0239 62.4919 81.0722 62.4773C81.1668 62.4423 81.1039 62.5184 81.0212 62.48L81.0573 62.4792C81.1243 62.4833 81.1061 62.4795 81.0025 62.4682C81.0795 62.4798 81.1565 62.49 81.2336 62.5011C81.4107 62.5262 81.5878 62.5516 81.7651 62.5767C81.9425 62.6018 82.121 62.6263 82.2986 62.6525C82.326 62.6566 82.3547 62.6595 82.3821 62.6655L82.4174 62.6741C82.4825 62.6954 82.4638 62.6865 82.3612 62.6469L82.3919 62.6633C82.4483 62.6998 82.4326 62.686 82.3444 62.622L82.3697 62.6452C82.4149 62.6941 82.4033 62.6763 82.3344 62.5921L82.3534 62.6207C82.3857 62.6798 82.3789 62.6587 82.3336 62.5578C82.3347 62.5721 82.3485 62.6074 82.3545 62.6236C82.3984 62.7438 82.3444 62.4609 82.3477 62.591C82.3507 62.7138 82.3669 62.4814 82.365 62.4944C82.3596 62.5327 82.3542 62.5713 82.3488 62.6096L82.2764 63.1225C82.2549 63.2747 82.2349 63.4272 82.2118 63.5792C82.2091 63.5978 82.2067 63.6159 82.2029 63.6345L82.1945 63.6696C82.173 63.7344 82.1822 63.7157 82.2221 63.614C82.2145 63.6296 82.2058 63.6448 82.1964 63.6593C82.1695 63.7012 82.1866 63.6807 82.2471 63.5978L82.2237 63.6232C82.1747 63.6685 82.1926 63.6569 82.2772 63.5883C82.2557 63.5945 82.2064 63.6234 82.1879 63.6396L82.2788 63.5991C82.2566 63.6062 82.234 63.6118 82.211 63.6159C82.326 63.6035 82.3482 63.5989 82.2777 63.6016C82.2533 63.6013 82.2289 63.5994 82.2048 63.5959C82.0496 63.5789 81.8503 63.6804 81.7445 63.7856C81.6317 63.8979 81.5465 64.0823 81.5539 64.2437C81.5709 64.6262 81.8408 64.8518 82.2048 64.8915C82.7583 64.9517 83.2516 64.5625 83.4323 64.0642C83.4816 63.9276 83.4884 63.7705 83.5085 63.628L83.5988 62.9891C83.6058 62.9389 83.6132 62.8887 83.6202 62.8382C83.6568 62.5764 83.6468 62.3491 83.5426 62.104C83.4418 61.8662 83.2614 61.6627 83.0333 61.5364C82.825 61.4209 82.6099 61.3985 82.3797 61.3658C82.1606 61.3348 81.9414 61.3035 81.7223 61.2724C81.4958 61.2403 81.2485 61.1758 81.0212 61.185C80.4896 61.2063 79.9914 61.578 79.8759 62.107C79.8566 62.1955 79.8504 62.2876 79.8384 62.3772C79.8357 62.3983 79.8327 62.4193 79.83 62.4404C79.83 62.442 79.8488 62.3019 79.8387 62.3769C79.8243 62.4827 79.81 62.5886 79.7953 62.6944C79.7658 62.9073 79.7346 63.12 79.7058 63.333C79.6261 63.923 80.0071 64.5368 80.6109 64.6659C80.8381 64.7144 81.0763 64.7328 81.3065 64.7655C81.5484 64.7997 81.7903 64.834 82.0323 64.8683C82.2132 64.8939 82.3694 64.8988 82.5337 64.803C82.6688 64.7244 82.7976 64.5703 82.8329 64.4159C82.9029 64.1098 82.7388 63.6701 82.3783 63.6191L82.3778 63.6183Z" fill="#4A3E42"/>
<path d="M87.4051 64.3214C87.0509 64.2712 86.697 64.221 86.3428 64.1708C86.2652 64.1597 86.1879 64.1489 86.1104 64.1379C86.0683 64.1319 86.0255 64.1279 85.984 64.119L85.9487 64.1106C85.8836 64.0893 85.9024 64.0985 86.0046 64.1381C86.0003 64.1327 85.9436 64.1033 85.9441 64.1033L86.0209 64.163C86.0035 64.1481 85.987 64.1322 85.9715 64.1152C86.0317 64.1371 86.0564 64.2377 86.003 64.1498C85.9249 64.0215 86.0469 64.2766 86.0103 64.1616C85.971 64.0385 86.0184 64.3255 86.0173 64.1943C86.0171 64.1522 86.0344 64.0793 86.0057 64.2529C86.0176 64.1813 86.0263 64.109 86.0363 64.0372C86.0621 63.855 86.0873 63.6728 86.112 63.4906C86.1277 63.3748 86.1435 63.2587 86.1589 63.1427L86.1646 63.1003C86.1744 63.0269 86.1722 63.0447 86.1584 63.1537C86.163 63.1489 86.1771 63.0838 86.1771 63.0838L86.1386 63.1732C86.1489 63.1521 86.1605 63.1319 86.1733 63.1124C86.169 63.1788 86.0792 63.2164 86.1367 63.1627C86.2286 63.0766 85.9992 63.2336 86.1123 63.1778C86.1318 63.1656 86.1521 63.1548 86.1733 63.1451C86.0757 63.1832 86.0512 63.195 86.0995 63.1805C86.1942 63.1454 86.1313 63.2215 86.0485 63.1832L86.0846 63.1824C86.1516 63.1864 86.1334 63.1826 86.0298 63.1713C86.1068 63.1829 86.1839 63.1932 86.2609 63.2042C86.438 63.2293 86.6151 63.2547 86.7925 63.2798C86.9698 63.3049 87.1483 63.3295 87.3259 63.3556C87.3533 63.3597 87.3821 63.3627 87.4095 63.3686L87.4447 63.3772C87.5098 63.3986 87.4911 63.3897 87.3886 63.35L87.4192 63.3664C87.4756 63.4029 87.4599 63.3891 87.3718 63.3251L87.397 63.3484C87.4423 63.3972 87.4306 63.3794 87.3617 63.2952L87.3807 63.3238C87.413 63.3829 87.4062 63.3619 87.3609 63.2609C87.362 63.2752 87.3758 63.3106 87.3818 63.3268C87.4257 63.4469 87.3718 63.164 87.375 63.2941C87.378 63.4169 87.3943 63.1845 87.3924 63.1975C87.387 63.2358 87.3815 63.2744 87.3761 63.3127L87.3037 63.8256C87.2823 63.9778 87.2622 64.1303 87.2392 64.2823C87.2364 64.3009 87.234 64.319 87.2302 64.3376L87.2218 64.3727C87.2004 64.4375 87.2096 64.4189 87.2495 64.3171C87.2419 64.3328 87.2332 64.3479 87.2237 64.3625C87.1968 64.4043 87.2139 64.3838 87.2744 64.3009L87.2511 64.3263C87.202 64.3716 87.2199 64.36 87.3045 64.2915C87.2831 64.2977 87.2337 64.3266 87.2153 64.3427L87.3061 64.3023C87.2839 64.3093 87.2614 64.3149 87.2383 64.319C87.3533 64.3066 87.3756 64.302 87.3051 64.3047C87.2806 64.3044 87.2562 64.3025 87.2321 64.299C87.077 64.282 86.8776 64.3835 86.7719 64.4888C86.659 64.6011 86.5739 64.7854 86.5812 64.9468C86.5983 65.3293 86.8681 65.555 87.2321 65.5946C87.7856 65.6548 88.279 65.2656 88.4596 64.7673C88.509 64.6308 88.5157 64.4737 88.5358 64.3311L88.6261 63.6922C88.6332 63.642 88.6405 63.5918 88.6476 63.5414C88.6842 63.2795 88.6741 63.0523 88.57 62.8072C88.4691 62.5694 88.2887 62.3659 88.0607 62.2395C87.8524 62.124 87.6373 62.1016 87.407 62.0689C87.1879 62.0379 86.9688 62.0066 86.7496 61.9755C86.5232 61.9434 86.2758 61.8789 86.0485 61.8881C85.517 61.9094 85.0187 62.2811 84.9032 62.8101C84.884 62.8987 84.8777 62.9907 84.8658 63.0803C84.8631 63.1014 84.8601 63.1224 84.8574 63.1435C84.8574 63.1451 84.8761 63.005 84.8661 63.0801C84.8517 63.1859 84.8373 63.2917 84.8227 63.3975C84.7931 63.6105 84.7619 63.8232 84.7332 64.0361C84.6534 64.6262 85.0345 65.24 85.6382 65.369C85.8655 65.4176 86.1036 65.4359 86.3338 65.4686C86.5758 65.5029 86.8177 65.5371 87.0596 65.5714C87.2405 65.5971 87.3967 65.6019 87.5611 65.5061C87.6961 65.4276 87.825 65.2734 87.8602 65.119C87.9302 64.8129 87.7661 64.3732 87.4057 64.3222L87.4051 64.3214Z" fill="#4A3E42"/>
<path d="M93.1141 60.1925C92.7599 60.1423 92.406 60.0921 92.0518 60.0419C91.9742 60.0308 91.8969 60.02 91.8194 60.009C91.7773 60.003 91.7345 59.999 91.693 59.9901L91.6577 59.9817C91.5926 59.9604 91.6113 59.9696 91.7136 60.0092C91.7092 60.0038 91.6526 59.9744 91.6531 59.9744L91.7299 60.0341C91.7125 60.0192 91.696 60.0033 91.6805 59.9863C91.7407 60.0082 91.7654 60.1088 91.712 60.0208C91.6338 59.8926 91.7559 60.1477 91.7193 60.0327C91.68 59.9096 91.7274 60.1966 91.7263 60.0654C91.7261 60.0233 91.7434 59.9504 91.7147 60.124C91.7266 60.0524 91.7353 59.9801 91.7453 59.9083C91.7711 59.7261 91.7963 59.5439 91.821 59.3617C91.8367 59.2459 91.8524 59.1298 91.8679 59.0138L91.8736 58.9714C91.8834 58.898 91.8812 58.9158 91.8674 59.0248C91.872 59.02 91.8861 58.9549 91.8861 58.9549L91.8476 59.0443C91.8579 59.0232 91.8695 59.003 91.8823 58.9835C91.8779 59.0499 91.7882 59.0875 91.8457 59.0337C91.9376 58.9476 91.7082 59.1047 91.8213 59.0489C91.8408 59.0367 91.8611 59.0259 91.8823 59.0162C91.7846 59.0543 91.7602 59.0661 91.8085 59.0516C91.9032 59.0165 91.8402 59.0926 91.7575 59.0543L91.7936 59.0535C91.8606 59.0575 91.8424 59.0537 91.7388 59.0424C91.8158 59.054 91.8929 59.0642 91.9699 59.0753C92.147 59.1004 92.3241 59.1258 92.5015 59.1509C92.6788 59.176 92.8573 59.2006 93.0349 59.2267C93.0623 59.2308 93.0911 59.2338 93.1185 59.2397L93.1537 59.2483C93.2188 59.2697 93.2001 59.2608 93.0976 59.2211L93.1282 59.2375C93.1846 59.274 93.1689 59.2602 93.0808 59.1962L93.106 59.2195C93.1513 59.2683 93.1396 59.2505 93.0707 59.1663L93.0897 59.1949C93.122 59.254 93.1152 59.2329 93.0699 59.132C93.071 59.1463 93.0848 59.1817 93.0908 59.1979C93.1347 59.318 93.0808 59.0351 93.084 59.1652C93.087 59.288 93.1033 59.0556 93.1014 59.0686C93.0959 59.1069 93.0905 59.1455 93.0851 59.1838L93.0127 59.6967C92.9913 59.8489 92.9712 60.0014 92.9481 60.1534C92.9454 60.172 92.943 60.1901 92.9392 60.2087L92.9308 60.2438C92.9094 60.3086 92.9186 60.29 92.9584 60.1882C92.9508 60.2039 92.9422 60.219 92.9327 60.2335C92.9058 60.2754 92.9229 60.2549 92.9834 60.172L92.9601 60.1974C92.911 60.2427 92.9289 60.2311 93.0135 60.1626C92.9921 60.1688 92.9427 60.1976 92.9243 60.2138L93.0151 60.1734C92.9929 60.1804 92.9704 60.186 92.9473 60.1901C93.0623 60.1777 93.0846 60.1731 93.014 60.1758C92.9896 60.1755 92.9652 60.1736 92.9411 60.1701C92.786 60.1531 92.5866 60.2546 92.4808 60.3599C92.368 60.4722 92.2829 60.6565 92.2902 60.8179C92.3073 61.2004 92.5771 61.426 92.9411 61.4657C93.4946 61.5259 93.988 61.1367 94.1686 60.6384C94.2179 60.5018 94.2247 60.3447 94.2448 60.2022L94.3351 59.5633C94.3422 59.5131 94.3495 59.4629 94.3565 59.4124C94.3931 59.1506 94.3831 58.9234 94.279 58.6783C94.1781 58.4405 93.9977 58.2369 93.7696 58.1106C93.5613 57.9951 93.3463 57.9727 93.116 57.94C92.8969 57.909 92.6777 57.8777 92.4586 57.8466C92.2321 57.8145 91.9848 57.75 91.7575 57.7592C91.2259 57.7805 90.7277 58.1522 90.6122 58.6812C90.5929 58.7698 90.5867 58.8618 90.5748 58.9514C90.5721 58.9725 90.5691 58.9935 90.5664 59.0146C90.5664 59.0162 90.5851 58.8761 90.575 58.9512C90.5607 59.057 90.5463 59.1628 90.5316 59.2686C90.5021 59.4815 90.4709 59.6942 90.4421 59.9072C90.3624 60.4973 90.7435 61.1111 91.3472 61.2401C91.5745 61.2887 91.8126 61.307 92.0428 61.3397C92.2848 61.374 92.5267 61.4082 92.7686 61.4425C92.9495 61.4682 93.1057 61.473 93.2701 61.3772C93.4051 61.2986 93.534 61.1445 93.5692 60.9901C93.6392 60.684 93.4751 60.2443 93.1147 60.1933L93.1141 60.1925Z" fill="#4A3E42"/>
<path d="M83.0614 58.7858C82.7072 58.7356 82.3533 58.6854 81.9991 58.6352C81.9215 58.6241 81.8442 58.6133 81.7666 58.6022C81.7246 58.5963 81.6817 58.5922 81.6402 58.5833L81.605 58.575C81.5399 58.5536 81.5586 58.5628 81.6609 58.6025C81.6565 58.5971 81.5998 58.5677 81.6004 58.5677L81.6771 58.6273C81.6598 58.6125 81.6432 58.5966 81.6278 58.5796C81.688 58.6014 81.7127 58.7021 81.6592 58.6141C81.5811 58.4859 81.7032 58.741 81.6665 58.626C81.6272 58.5029 81.6747 58.7898 81.6736 58.6586C81.6733 58.6165 81.6907 58.5437 81.6619 58.7172C81.6739 58.6457 81.6825 58.5734 81.6926 58.5016C81.7183 58.3194 81.7436 58.1372 81.7683 57.955C81.784 57.8392 81.7997 57.7231 81.8152 57.607L81.8209 57.5647C81.8306 57.4912 81.8285 57.5091 81.8146 57.6181C81.8192 57.6132 81.8333 57.5482 81.8333 57.5482L81.7948 57.6375C81.8051 57.6165 81.8168 57.5962 81.8295 57.5768C81.8252 57.6432 81.7354 57.6807 81.7929 57.627C81.8849 57.5409 81.6554 57.698 81.7685 57.6421C81.788 57.63 81.8084 57.6192 81.8295 57.6095C81.7319 57.6475 81.7075 57.6594 81.7558 57.6448C81.8504 57.6097 81.7875 57.6859 81.7048 57.6475L81.7409 57.6467C81.8078 57.6508 81.7897 57.647 81.6861 57.6357C81.7631 57.6473 81.8401 57.6575 81.9171 57.6686C82.0942 57.6937 82.2713 57.7191 82.4487 57.7442C82.6261 57.7693 82.8045 57.7938 82.9822 57.82C83.0096 57.8241 83.0383 57.827 83.0657 57.833L83.101 57.8416C83.1661 57.8629 83.1474 57.854 83.0448 57.8143L83.0755 57.8308C83.1319 57.8672 83.1162 57.8535 83.028 57.7895L83.0532 57.8127C83.0985 57.8616 83.0869 57.8438 83.018 57.7595L83.037 57.7882C83.0692 57.8473 83.0625 57.8262 83.0172 57.7253C83.0183 57.7396 83.0321 57.7749 83.0381 57.7911C83.082 57.9112 83.028 57.6284 83.0313 57.7585C83.0343 57.8813 83.0505 57.6489 83.0486 57.6618C83.0432 57.7002 83.0378 57.7388 83.0324 57.7771L82.96 58.2899C82.9385 58.4422 82.9185 58.5947 82.8954 58.7466C82.8927 58.7653 82.8903 58.7834 82.8865 58.802L82.878 58.8371C82.8566 58.9018 82.8658 58.8832 82.9057 58.7815C82.8981 58.7971 82.8894 58.8122 82.8799 58.8268C82.8531 58.8686 82.8702 58.8481 82.9307 58.7653L82.9073 58.7906C82.8582 58.836 82.8761 58.8244 82.9608 58.7558C82.9393 58.762 82.89 58.7909 82.8715 58.8071L82.9624 58.7666C82.9402 58.7736 82.9176 58.7793 82.8946 58.7834C83.0096 58.7709 83.0318 58.7663 82.9613 58.769C82.9369 58.7688 82.9125 58.7669 82.8884 58.7634C82.7332 58.7464 82.5339 58.8479 82.4281 58.9531C82.3153 59.0654 82.2301 59.2498 82.2374 59.4112C82.2545 59.7937 82.5244 60.0193 82.8884 60.059C83.4419 60.1192 83.9352 59.73 84.1159 59.2317C84.1652 59.0951 84.172 58.938 84.1921 58.7955L84.2824 58.1566C84.2894 58.1064 84.2968 58.0562 84.3038 58.0057C84.3404 57.7439 84.3304 57.5166 84.2262 57.2715C84.1253 57.0337 83.945 56.8302 83.7169 56.7039C83.5086 56.5884 83.2935 56.566 83.0633 56.5333C82.8441 56.5023 82.625 56.4709 82.4059 56.4399C82.1794 56.4078 81.9321 56.3433 81.7048 56.3524C81.1732 56.3738 80.675 56.7455 80.5595 57.2745C80.5402 57.363 80.534 57.4551 80.522 57.5447C80.5193 57.5657 80.5163 57.5868 80.5136 57.6078C80.5136 57.6095 80.5323 57.4694 80.5223 57.5444C80.5079 57.6502 80.4936 57.756 80.4789 57.8618C80.4494 58.0748 80.4182 58.2875 80.3894 58.5005C80.3097 59.0905 80.6907 59.7043 81.2944 59.8333C81.5217 59.8819 81.7598 59.9003 81.9901 59.9329C82.232 59.9672 82.4739 60.0015 82.7159 60.0358C82.8968 60.0614 83.053 60.0663 83.2173 59.9705C83.3524 59.8919 83.4812 59.7378 83.5165 59.5834C83.5864 59.2773 83.4224 58.8376 83.0619 58.7866L83.0614 58.7858Z" fill="#4A3E42"/>
<path d="M88.0868 59.4889C87.7326 59.4387 87.3786 59.3885 87.0244 59.3383C86.9469 59.3272 86.8696 59.3164 86.792 59.3054C86.75 59.2994 86.7071 59.2954 86.6656 59.2865L86.6304 59.2781C86.5653 59.2568 86.584 59.2659 86.6862 59.3056C86.6819 59.3002 86.6252 59.2708 86.6258 59.2708L86.7025 59.3305C86.6852 59.3156 86.6686 59.2997 86.6532 59.2827C86.7134 59.3045 86.738 59.4052 86.6846 59.3172C86.6065 59.189 86.7286 59.4441 86.6919 59.3291C86.6526 59.206 86.7001 59.4929 86.699 59.3618C86.6987 59.3197 86.7161 59.2468 86.6873 59.4203C86.6993 59.3488 86.7079 59.2765 86.718 59.2047C86.7437 59.0225 86.769 58.8403 86.7936 58.6581C86.8094 58.5423 86.8251 58.4262 86.8406 58.3102L86.8463 58.2678C86.856 58.1944 86.8538 58.2122 86.84 58.3212C86.8446 58.3164 86.8587 58.2513 86.8587 58.2513L86.8202 58.3407C86.8305 58.3196 86.8422 58.2994 86.8549 58.2799C86.8506 58.3463 86.7608 58.3838 86.8183 58.3301C86.9103 58.244 86.6808 58.4011 86.7939 58.3453C86.8134 58.3331 86.8338 58.3223 86.8549 58.3126C86.7573 58.3506 86.7329 58.3625 86.7812 58.3479C86.8758 58.3129 86.8129 58.389 86.7302 58.3506L86.7662 58.3498C86.8332 58.3539 86.8151 58.3501 86.7115 58.3388C86.7885 58.3504 86.8655 58.3606 86.9425 58.3717C87.1196 58.3968 87.2967 58.4222 87.4741 58.4473C87.6515 58.4724 87.8299 58.4969 88.0076 58.5231C88.035 58.5272 88.0637 58.5301 88.0911 58.5361L88.1264 58.5447C88.1915 58.566 88.1727 58.5571 88.0702 58.5175L88.1009 58.5339C88.1573 58.5704 88.1416 58.5566 88.0534 58.4926L88.0786 58.5158C88.1239 58.5647 88.1123 58.5469 88.0434 58.4627L88.0624 58.4913C88.0946 58.5504 88.0879 58.5293 88.0426 58.4284C88.0437 58.4427 88.0575 58.4781 88.0634 58.4942C88.1074 58.6144 88.0534 58.3315 88.0567 58.4616C88.0597 58.5844 88.0759 58.352 88.074 58.365C88.0686 58.4033 88.0632 58.4419 88.0578 58.4802L87.9853 58.9931C87.9639 59.1453 87.9438 59.2978 87.9208 59.4498C87.9181 59.4684 87.9156 59.4865 87.9118 59.5051L87.9034 59.5402C87.882 59.605 87.8912 59.5863 87.9311 59.4846C87.9235 59.5002 87.9148 59.5154 87.9053 59.5299C87.8785 59.5718 87.8956 59.5513 87.9561 59.4684L87.9327 59.4938C87.8836 59.5391 87.9015 59.5275 87.9862 59.4589C87.9647 59.4651 87.9154 59.494 87.8969 59.5102L87.9878 59.4697C87.9655 59.4768 87.943 59.4824 87.92 59.4865C88.035 59.4741 88.0572 59.4695 87.9867 59.4722C87.9623 59.4719 87.9379 59.47 87.9137 59.4665C87.7586 59.4495 87.5593 59.551 87.4535 59.6563C87.3407 59.7685 87.2555 59.9529 87.2628 60.1143C87.2799 60.4968 87.5498 60.7224 87.9137 60.7621C88.4673 60.8223 88.9606 60.4331 89.1412 59.9348C89.1906 59.7982 89.1974 59.6411 89.2175 59.4986L89.3078 58.8597C89.3148 58.8095 89.3221 58.7593 89.3292 58.7088C89.3658 58.447 89.3558 58.2197 89.2516 57.9746C89.1507 57.7369 88.9704 57.5333 88.7423 57.407C88.534 57.2915 88.3189 57.2691 88.0887 57.2364C87.8695 57.2054 87.6504 57.1741 87.4313 57.143C87.2048 57.1109 86.9575 57.0464 86.7302 57.0556C86.1986 57.0769 85.7004 57.4486 85.5849 57.9776C85.5656 58.0662 85.5594 58.1582 85.5474 58.2478C85.5447 58.2689 85.5417 58.2899 85.539 58.311C85.539 58.3126 85.5577 58.1725 85.5477 58.2475C85.5333 58.3533 85.5189 58.4592 85.5043 58.565C85.4747 58.7779 85.4436 58.9906 85.4148 59.2036C85.3351 59.7936 85.7161 60.4074 86.3198 60.5365C86.5471 60.585 86.7852 60.6034 87.0155 60.6361C87.2574 60.6703 87.4993 60.7046 87.7412 60.7389C87.9221 60.7645 88.0784 60.7694 88.2427 60.6736C88.3778 60.595 88.5066 60.4409 88.5419 60.2865C88.6118 59.9804 88.4478 59.5407 88.0873 59.4897L88.0868 59.4889Z" fill="#4A3E42"/>
<path d="M83.743 53.9537C83.3888 53.9035 83.0349 53.8533 82.6807 53.8031C82.6031 53.7921 82.5258 53.7813 82.4483 53.7702C82.4062 53.7643 82.3634 53.7602 82.3219 53.7513L82.2866 53.7429C82.2215 53.7216 82.2402 53.7308 82.3425 53.7705C82.3382 53.7651 82.2815 53.7357 82.282 53.7357L82.3588 53.7953C82.3414 53.7805 82.3249 53.7645 82.3094 53.7475C82.3696 53.7694 82.3943 53.8701 82.3409 53.7821C82.2628 53.6539 82.3848 53.9089 82.3482 53.794C82.3089 53.6709 82.3563 53.9578 82.3552 53.8266C82.355 53.7845 82.3723 53.7116 82.3436 53.8852C82.3555 53.8137 82.3642 53.7413 82.3742 53.6695C82.4 53.4873 82.4252 53.3051 82.4499 53.1229C82.4656 53.0071 82.4814 52.8911 82.4968 52.775L82.5025 52.7326C82.5123 52.6592 82.5101 52.677 82.4963 52.7861C82.5009 52.7812 82.515 52.7162 82.515 52.7162L82.4765 52.8055C82.4868 52.7845 82.4984 52.7642 82.5112 52.7448C82.5068 52.8112 82.4171 52.8487 82.4746 52.795C82.5665 52.7089 82.3371 52.866 82.4502 52.8101C82.4697 52.7979 82.49 52.7872 82.5112 52.7774C82.4136 52.8155 82.3891 52.8274 82.4374 52.8128C82.5321 52.7777 82.4691 52.8538 82.3864 52.8155L82.4225 52.8147C82.4895 52.8187 82.4713 52.815 82.3677 52.8036C82.4447 52.8152 82.5218 52.8255 82.5988 52.8365C82.7759 52.8616 82.953 52.887 83.1304 52.9121C83.3077 52.9372 83.4862 52.9618 83.6638 52.988C83.6912 52.992 83.72 52.995 83.7474 53.0009L83.7826 53.0096C83.8477 53.0309 83.829 53.022 83.7265 52.9823L83.7571 52.9988C83.8135 53.0352 83.7978 53.0214 83.7097 52.9575L83.7349 52.9807C83.7802 53.0295 83.7685 53.0117 83.6996 52.9275L83.7186 52.9561C83.7509 53.0152 83.7441 52.9942 83.6988 52.8932C83.6999 52.9075 83.7137 52.9429 83.7197 52.9591C83.7636 53.0792 83.7097 52.7963 83.7129 52.9264C83.7159 53.0492 83.7322 52.8168 83.7303 52.8298C83.7249 52.8681 83.7194 52.9067 83.714 52.9451L83.6416 53.4579C83.6202 53.6101 83.6001 53.7626 83.577 53.9146C83.5743 53.9332 83.5719 53.9513 83.5681 53.9699L83.5597 54.005C83.5383 54.0698 83.5475 54.0512 83.5874 53.9494C83.5798 53.9651 83.5711 53.9802 83.5616 53.9948C83.5347 54.0366 83.5518 54.0161 83.6123 53.9332L83.589 53.9586C83.5399 54.004 83.5578 53.9923 83.6424 53.9238C83.621 53.93 83.5716 53.9589 83.5532 53.9751L83.644 53.9346C83.6218 53.9416 83.5993 53.9473 83.5762 53.9513C83.6912 53.9389 83.7135 53.9343 83.6429 53.937C83.6185 53.9367 83.5941 53.9348 83.57 53.9313C83.4149 53.9143 83.2155 54.0158 83.1098 54.1211C82.9969 54.2334 82.9118 54.4177 82.9191 54.5792C82.9362 54.9616 83.206 55.1873 83.57 55.227C84.1235 55.2871 84.6169 54.8979 84.7975 54.3997C84.8469 54.2631 84.8536 54.106 84.8737 53.9635L84.964 53.3246C84.9711 53.2744 84.9784 53.2242 84.9854 53.1737C85.0221 52.9119 85.012 52.6846 84.9079 52.4395C84.807 52.2017 84.6266 51.9982 84.3985 51.8719C84.1903 51.7563 83.9752 51.7339 83.7449 51.7013C83.5258 51.6702 83.3067 51.6389 83.0875 51.6079C82.8611 51.5758 82.6137 51.5112 82.3864 51.5204C81.8549 51.5417 81.3566 51.9134 81.2411 52.4425C81.2218 52.531 81.2156 52.623 81.2037 52.7127C81.201 52.7337 81.198 52.7548 81.1953 52.7758C81.1953 52.7774 81.214 52.6373 81.2039 52.7124C81.1896 52.8182 81.1752 52.924 81.1606 53.0298C81.131 53.2428 81.0998 53.4555 81.0711 53.6684C80.9913 54.2585 81.3724 54.8723 81.9761 55.0013C82.2034 55.0499 82.4415 55.0682 82.6717 55.1009C82.9137 55.1352 83.1556 55.1695 83.3975 55.2037C83.5784 55.2294 83.7346 55.2342 83.899 55.1384C84.034 55.0599 84.1629 54.9058 84.1981 54.7514C84.2681 54.4453 84.104 54.0056 83.7436 53.9546L83.743 53.9537Z" fill="#4A3E42"/>
<path d="M88.7704 54.6569C88.4162 54.6067 88.0622 54.5565 87.708 54.5063C87.6305 54.4952 87.5532 54.4844 87.4756 54.4733C87.4336 54.4674 87.3907 54.4633 87.3492 54.4544L87.314 54.4461C87.2489 54.4247 87.2676 54.4339 87.3698 54.4736C87.3655 54.4682 87.3088 54.4388 87.3094 54.4388L87.3861 54.4984C87.3688 54.4836 87.3522 54.4677 87.3367 54.4507C87.397 54.4725 87.4216 54.5732 87.3682 54.4852C87.2901 54.357 87.4121 54.6121 87.3755 54.4971C87.3362 54.374 87.3837 54.6609 87.3826 54.5297C87.3823 54.4876 87.3997 54.4148 87.3709 54.5883C87.3829 54.5168 87.3915 54.4444 87.4016 54.3726C87.4273 54.1905 87.4526 54.0083 87.4772 53.8261C87.493 53.7103 87.5087 53.5942 87.5242 53.4781L87.5299 53.4358C87.5396 53.3623 87.5374 53.3802 87.5236 53.4892C87.5282 53.4843 87.5423 53.4193 87.5423 53.4193L87.5038 53.5086C87.5141 53.4876 87.5258 53.4673 87.5385 53.4479C87.5342 53.5143 87.4444 53.5518 87.5019 53.4981C87.5939 53.412 87.3644 53.5691 87.4775 53.5132C87.497 53.5011 87.5174 53.4903 87.5385 53.4806C87.4409 53.5186 87.4165 53.5305 87.4648 53.5159C87.5594 53.4808 87.4965 53.5569 87.4138 53.5186L87.4498 53.5178C87.5168 53.5219 87.4987 53.5181 87.3951 53.5067C87.4721 53.5183 87.5491 53.5286 87.6261 53.5397C87.8032 53.5648 87.9803 53.5901 88.1577 53.6153C88.3351 53.6404 88.5135 53.6649 88.6912 53.6911C88.7186 53.6951 88.7473 53.6981 88.7747 53.7041L88.81 53.7127C88.8751 53.734 88.8563 53.7251 88.7538 53.6854L88.7845 53.7019C88.8409 53.7383 88.8252 53.7246 88.737 53.6606L88.7622 53.6838C88.8075 53.7327 88.7959 53.7148 88.727 53.6306L88.746 53.6592C88.7782 53.7184 88.7715 53.6973 88.7262 53.5964C88.7272 53.6107 88.7411 53.646 88.747 53.6622C88.791 53.7823 88.737 53.4995 88.7403 53.6296C88.7432 53.7524 88.7595 53.52 88.7576 53.5329C88.7522 53.5713 88.7468 53.6099 88.7413 53.6482L88.6689 54.161C88.6475 54.3133 88.6274 54.4658 88.6044 54.6177C88.6017 54.6364 88.5992 54.6544 88.5954 54.6731L88.587 54.7082C88.5656 54.7729 88.5748 54.7543 88.6147 54.6526C88.6071 54.6682 88.5984 54.6833 88.5889 54.6979C88.5621 54.7397 88.5792 54.7192 88.6396 54.6364L88.6163 54.6617C88.5672 54.7071 88.5851 54.6955 88.6698 54.6269C88.6483 54.6331 88.599 54.662 88.5805 54.6782L88.6714 54.6377C88.6491 54.6447 88.6266 54.6504 88.6036 54.6544C88.7186 54.642 88.7408 54.6374 88.6703 54.6401C88.6459 54.6399 88.6215 54.638 88.5973 54.6345C88.4422 54.6175 88.2429 54.719 88.1371 54.8242C88.0243 54.9365 87.9391 55.1209 87.9464 55.2823C87.9635 55.6648 88.2334 55.8904 88.5973 55.9301C89.1509 55.9903 89.6442 55.6011 89.8248 55.1028C89.8742 54.9662 89.881 54.8091 89.901 54.6666L89.9914 54.0277C89.9984 53.9775 90.0057 53.9273 90.0128 53.8768C90.0494 53.615 90.0394 53.3877 89.9352 53.1426C89.8343 52.9048 89.654 52.7013 89.4259 52.575C89.2176 52.4595 89.0025 52.437 88.7723 52.4044C88.5531 52.3733 88.334 52.342 88.1149 52.311C87.8884 52.2789 87.641 52.2144 87.4138 52.2235C86.8822 52.2449 86.384 52.6165 86.2684 53.1456C86.2492 53.2341 86.243 53.3262 86.231 53.4158C86.2283 53.4368 86.2253 53.4579 86.2226 53.4789C86.2226 53.4806 86.2413 53.3405 86.2313 53.4155C86.2169 53.5213 86.2025 53.6271 86.1879 53.7329C86.1583 53.9459 86.1271 54.1586 86.0984 54.3716C86.0187 54.9616 86.3997 55.5754 87.0034 55.7044C87.2307 55.753 87.4688 55.7714 87.6991 55.804C87.941 55.8383 88.1829 55.8726 88.4248 55.9069C88.6057 55.9325 88.762 55.9374 88.9263 55.8416C89.0614 55.763 89.1902 55.6089 89.2255 55.4545C89.2954 55.1484 89.1314 54.7087 88.7709 54.6577L88.7704 54.6569Z" fill="#4A3E42"/>
<path d="M100.17 49.5038C99.4921 49.6107 98.9708 50.0129 98.5168 50.5028C98.0758 50.9789 97.6348 51.4615 97.2413 51.9776C96.7873 52.5731 96.3582 53.2416 96.2433 53.9942C96.1486 54.6158 96.3032 55.4029 96.7838 55.8466C97.3175 56.3395 98.129 56.5916 98.832 56.3384C99.2786 56.1773 99.7172 55.9198 100.1 55.6423C100.542 55.3219 100.94 54.9548 101.321 54.5651C101.832 54.0409 102.43 53.4913 102.763 52.8319C103.177 52.0124 103.095 51.0461 102.503 50.3338C101.983 49.7092 101.145 49.3829 100.342 49.4811C99.9936 49.5238 99.6914 49.7483 99.6914 50.1289C99.6914 50.4458 99.9911 50.8197 100.342 50.7767C100.784 50.7228 101.221 50.8024 101.533 51.1908C101.793 51.5152 101.778 51.9458 101.572 52.3012C101.291 52.7849 100.846 53.189 100.459 53.5885C100.16 53.8981 99.8509 54.1988 99.5151 54.4698C99.4278 54.5405 99.6342 54.384 99.4883 54.4906C99.4585 54.5124 99.4284 54.5343 99.3982 54.5559C99.3315 54.6031 99.2635 54.649 99.1946 54.6933C99.0476 54.7875 98.8957 54.8741 98.7408 54.9554C98.3533 55.1589 98.0772 55.2067 97.7211 54.947C97.8157 55.0161 97.6036 54.8245 97.6885 54.9311C97.6129 54.8361 97.5969 54.7691 97.5784 54.7049C97.5646 54.6563 97.5516 54.608 97.5402 54.5589C97.5396 54.5564 97.5158 54.4342 97.5263 54.5089C97.5196 54.4622 97.5171 54.4126 97.5158 54.3651C97.515 54.3373 97.5182 54.1564 97.5065 54.2798C97.5597 53.7113 97.957 53.1763 98.2874 52.735C98.6025 52.3139 98.9871 51.9174 99.3437 51.5212C99.7305 51.0915 99.9892 50.8364 100.515 50.7535C100.863 50.6987 101.055 50.2671 100.97 49.9567C100.868 49.5883 100.518 49.4493 100.169 49.5043L100.17 49.5038Z" fill="#4A3E42"/>
<path d="M97.5384 55.4642C96.9102 56.1768 96.3852 57.0562 96.2854 58.0157C96.1774 59.0544 96.8094 60.1219 97.8744 60.3297C98.9771 60.5449 99.9402 59.8601 100.731 59.1707C101.079 58.8668 101.433 58.5337 101.736 58.185C102.071 57.8001 102.276 57.3595 102.434 56.8785C102.606 56.3525 102.637 55.6688 102.421 55.1543C102.179 54.5759 101.683 54.1818 101.064 54.0633C100.719 53.9972 100.362 54.1596 100.264 54.5157C100.176 54.8328 100.371 55.2461 100.718 55.3125C100.799 55.3279 100.878 55.3457 100.956 55.3721C101.063 55.408 100.885 55.3395 100.984 55.3851C101.014 55.3986 101.042 55.4167 101.069 55.4339C100.974 55.3727 101.182 55.5473 101.121 55.4723C101.16 55.5211 101.21 55.6107 101.226 55.6499C101.314 55.8647 101.256 56.2872 101.189 56.5012C101.094 56.8059 100.985 57.0726 100.815 57.2686C100.57 57.552 100.282 57.8044 100.014 58.0662C99.7544 58.3188 99.5445 58.4821 99.2521 58.6757C99.0843 58.7869 98.9118 58.8921 98.7344 58.9872C98.7303 58.9893 98.5861 59.0573 98.6544 59.0295C98.7114 59.0066 98.6094 59.042 98.6088 59.0422C98.5657 59.0528 98.5231 59.0646 98.4797 59.0746L98.4138 59.0865C98.4643 59.0784 98.4659 59.0765 98.419 59.0806C98.3398 59.0819 98.2606 59.0851 98.1817 59.0757C98.2847 59.0881 98.0851 59.0492 98.0572 59.0409C97.9726 59.0155 97.8557 58.955 97.8117 58.8986C97.7377 58.8039 97.6648 58.69 97.6303 58.5785C97.6227 58.5537 97.5736 58.3507 97.5866 58.4306C97.5715 58.3377 97.578 58.2435 97.5766 58.1504C97.575 58.0298 97.5782 58.0854 97.5733 58.1229C97.5807 58.0667 97.5956 58.0111 97.6092 57.9561C97.636 57.8481 97.6675 57.7418 97.7033 57.6365C97.764 57.4578 97.8288 57.3142 97.93 57.1307C98.0157 56.9749 98.1112 56.8246 98.2148 56.6802C98.2384 56.6472 98.2625 56.6148 98.2869 56.5824C98.2332 56.6537 98.2785 56.5932 98.3089 56.5565C98.3582 56.4972 98.4081 56.4383 98.4591 56.3803C98.6907 56.1174 98.7192 55.723 98.4591 55.4642C98.2226 55.2288 97.7713 55.2002 97.5386 55.4642H97.5384Z" fill="#4A3E42"/>
<path d="M99.6845 60.2516C99.7076 60.2732 99.7306 60.3018 99.7553 60.3218C99.6775 60.2578 99.7249 60.274 99.7504 60.3161C99.7892 60.3809 99.8258 60.4451 99.8616 60.5115C99.8733 60.5329 99.9069 60.6246 99.8657 60.5167C99.8795 60.5528 99.8928 60.5893 99.9053 60.6262C99.9294 60.6978 99.95 60.7707 99.9677 60.8441C99.981 60.8997 100.002 61.0786 99.9894 60.9234C99.9937 60.9782 99.991 61.0365 99.998 61.0905C100.009 61.1755 99.9997 61.0719 100.006 61.0497C99.9942 61.0927 99.9866 61.1359 99.9744 61.179C99.9403 61.297 99.9416 61.2846 99.889 61.3804C99.7607 61.6139 99.6189 61.7734 99.412 61.9451C99.3678 61.9818 99.3233 62.0174 99.2782 62.053C99.2533 62.0727 99.2281 62.0919 99.2034 62.1119C99.1321 62.1694 99.2921 62.0466 99.2151 62.103C99.0911 62.1939 98.9691 62.2873 98.844 62.3772C98.6309 62.5305 98.415 62.683 98.1891 62.8175C98.0922 62.8749 97.9778 62.9357 97.8951 62.967C97.7093 63.0372 97.575 63.0682 97.4454 63.0337C97.3649 63.0121 97.2892 62.9799 97.2122 62.9486C97.1859 62.9378 97.1595 62.9273 97.1332 62.9168C97.1457 62.9219 97.2724 62.9851 97.1774 62.9349C97.1379 62.9141 97.0977 62.8933 97.0578 62.8733C97.0356 62.8623 96.964 62.8104 97.0443 62.8698C97.149 62.947 97.0193 62.8412 97.0199 62.8412C96.9909 62.8485 96.9881 62.7888 97.037 62.8685C97.0193 62.8396 97.0001 62.8123 96.983 62.7832C96.9643 62.7505 96.9472 62.7168 96.9309 62.6828C96.9445 62.7108 96.967 62.7872 96.9209 62.6544C96.8645 62.4914 96.8517 62.3815 96.8897 62.2166C96.8981 62.1796 96.9073 62.1427 96.9179 62.1059C96.9171 62.1092 96.9862 61.9205 96.9537 61.9915C96.989 61.9143 97.0649 61.795 97.0931 61.7577C97.1799 61.6433 97.3442 61.4541 97.4625 61.3132C97.7025 61.0271 97.9631 60.7717 98.2582 60.5415C98.5351 60.3253 98.4858 59.8518 98.2582 59.6254C97.9848 59.3533 97.6152 59.4086 97.3377 59.6254C97.0177 59.8753 96.7422 60.156 96.4834 60.4675C96.1406 60.8802 95.7943 61.2678 95.6527 61.7982C95.5024 62.3616 95.5662 62.9295 95.8591 63.4372C96.0766 63.8145 96.3974 64.0067 96.7872 64.1665C97.29 64.3725 97.8042 64.3873 98.3155 64.1884C98.6664 64.0518 98.9712 63.8664 99.2788 63.6534C99.8912 63.2294 100.53 62.7991 100.937 62.1626C101.24 61.6881 101.351 61.1798 101.25 60.6303C101.164 60.1639 100.958 59.6659 100.606 59.336C100.35 59.0963 99.9389 59.0834 99.6851 59.336C99.4418 59.5781 99.4282 60.0116 99.6851 60.2521L99.6845 60.2516Z" fill="#4A3E42"/>
<path d="M99.8155 37.2987C99.7537 38.2078 99.6919 39.1171 99.63 40.0262C99.607 40.365 99.946 40.6889 100.281 40.674C100.653 40.6576 100.907 40.3893 100.932 40.0262C100.994 39.1171 101.056 38.2078 101.117 37.2987C101.14 36.9599 100.801 36.636 100.466 36.6509C100.094 36.6673 99.8402 36.9356 99.8155 37.2987Z" fill="#4A3E42"/>
<path d="M103.85 43.8321C104.732 43.6097 105.621 43.4021 106.521 43.262C106.672 43.2386 106.836 43.0896 106.91 42.9643C106.991 42.8256 107.026 42.6207 106.975 42.4652C106.857 42.1 106.536 41.9564 106.175 42.0129C105.275 42.1529 104.386 42.3605 103.504 42.5829C103.174 42.6661 102.943 43.0515 103.05 43.3797C103.16 43.7193 103.497 43.9215 103.85 43.8321Z" fill="#4A3E42"/>
<path d="M102.965 41.4215C103.578 40.723 104.252 40.0757 104.953 39.4649C105.21 39.2408 105.201 38.7747 104.953 38.5488C104.679 38.2983 104.307 38.3099 104.033 38.5488C103.332 39.1593 102.657 39.8066 102.044 40.5054C101.93 40.6361 101.854 40.7856 101.854 40.9635C101.854 41.1225 101.924 41.3122 102.044 41.4215C102.29 41.6458 102.725 41.6941 102.965 41.4215Z" fill="#4A3E42"/>
</g>
<defs>
<clipPath id="clip0_1509_25150">
<rect width="84" height="80" fill="white" transform="translate(23)"/>
</clipPath>
</defs>
</svg>
