<svg width="100" height="80" viewBox="0 0 100 80" fill="none" xmlns="http://www.w3.org/2000/svg">
<mask id="mask0_1592_28512" style="mask-type:alpha" maskUnits="userSpaceOnUse" x="0" y="0" width="100" height="80">
<rect width="100" height="80" fill="#D9D9D9"/>
</mask>
<g mask="url(#mask0_1592_28512)">
<path d="M78.441 26.7916C72.0142 26.7916 64.1998 26.7916 64.1998 26.7916C64.0294 26.7916 63.8911 26.6533 63.8911 26.483V11.9614C63.8911 11.7911 63.7527 11.6528 63.5823 11.6528H36.4104C36.24 11.6528 36.1016 11.7892 36.1016 11.9596C36.1016 13.4252 36.1016 19.9155 36.1016 26.4827C36.1016 26.653 35.9633 26.7916 35.7929 26.7916H13.2541C13.0836 26.7916 12.9453 26.9298 12.9453 27.1002V68.074C28.5528 68.0746 57.0289 68.0746 87.0505 68.074V27.1002C87.0505 26.9298 86.9122 26.7916 86.7417 26.7916C86.7417 26.7916 82.9296 26.7916 78.441 26.7916Z" fill="white"/>
<path d="M85.7324 68.0751C85.7324 68.0751 85.7324 66.262 85.7324 64.4492C86.3645 64.5717 87.0601 64.6353 87.5023 64.6353C87.8172 64.6353 88.4734 64.5788 89.107 64.469C89.107 66.2719 89.107 68.0751 89.107 68.0751H85.7324Z" fill="white"/>
<path d="M88.4687 52.9744C87.8962 52.5344 87.106 52.5347 86.5339 52.9747C85.1954 54.0049 84.1628 55.4198 83.532 56.9882C83.34 57.4659 83.1834 57.9591 83.0902 58.4652C83.0012 58.9469 82.9704 59.437 82.9392 59.9258C82.8845 60.7874 82.8345 61.6812 83.1457 62.4866C83.4153 63.1844 83.9541 63.772 84.6204 64.1133C85.2864 64.4543 86.7556 64.6352 87.5019 64.6352C88.0648 64.6352 89.717 64.4543 90.3833 64.1133C91.0494 63.7723 91.5885 63.1847 91.858 62.4866C92.1693 61.6812 92.1193 60.7878 92.0646 59.9258C92.0337 59.437 92.0025 58.9469 91.9136 58.4652C91.8204 57.9591 91.6638 57.4659 91.4718 56.9882C90.8409 55.4195 89.8084 54.0043 88.4687 52.9744Z" fill="#65B005"/>
<path d="M10.7266 68.0751C10.7266 68.0751 10.7266 66.262 10.7266 64.4492C11.3586 64.5717 12.0543 64.6353 12.4964 64.6353C12.8114 64.6353 13.4675 64.5788 14.1011 64.469C14.1011 66.2719 14.1011 68.0751 14.1011 68.0751H10.7266Z" fill="white"/>
<path d="M13.4628 52.9739C12.8903 52.5339 12.1002 52.5342 11.528 52.9743C10.1895 54.0044 9.15697 55.4194 8.52615 56.9877C8.33409 57.4654 8.17755 57.9586 8.0843 58.4647C7.99537 58.9464 7.96449 59.4365 7.93331 59.9253C7.87865 60.787 7.82863 61.6807 8.13988 62.4862C8.40943 63.1839 8.94824 63.7715 9.61457 64.1128C10.2806 64.4538 11.7497 64.6347 12.496 64.6347C13.0589 64.6347 14.7112 64.4538 15.3775 64.1128C16.0435 63.7718 16.5826 63.1842 16.8522 62.4862C17.1634 61.6807 17.1134 60.7873 17.0587 59.9253C17.0279 59.4365 16.9967 58.9464 16.9078 58.4647C16.8145 57.9586 16.658 57.4654 16.4659 56.9877C15.8351 55.419 14.8025 54.0038 13.4628 52.9739Z" fill="#65B005"/>
<path d="M16.4655 56.9877C16.6575 57.4654 16.8141 57.9585 16.9073 58.4647C16.9962 58.9464 17.0271 59.4365 17.0583 59.9253C17.0994 60.5715 17.1377 61.236 17.0231 61.8674H36.1046C36.1046 61.8674 36.1046 58.4619 36.1049 53.1245H13.6445C14.8941 54.1401 15.864 55.4921 16.4655 56.9877Z" fill="#E3EFF6"/>
<path d="M82.9408 59.9253C82.9717 59.4365 83.0029 58.9464 83.0918 58.4647C83.185 57.9585 83.3416 57.4654 83.5336 56.9877C84.1348 55.4925 85.105 54.1404 86.354 53.1245H63.8945V61.8674H82.976C82.8614 61.236 82.8997 60.5715 82.9408 59.9253Z" fill="#E3EFF6"/>
<path d="M60.5269 53.709C60.5269 53.5143 60.5269 53.3192 60.5269 53.1245H39.3945V68.0741C42.5357 68.0741 51.3863 68.0741 60.5269 68.0741C60.5269 63.2839 60.5269 58.4964 60.5269 53.7093V53.709Z" fill="#E3EFF6"/>
<path d="M73.1372 33.5098C52.875 33.5098 33.3983 33.5098 12.9453 33.5098V43.1414C49.4915 43.1414 87.0505 43.1414 87.0505 43.1414C87.0505 40.0485 87.0505 36.8085 87.0505 33.5098C82.3587 33.5098 77.7278 33.5098 73.1372 33.5098Z" fill="#E3EFF6"/>
<path d="M36.7234 68.074V53.125C36.7234 52.3307 35.4883 52.3294 35.4883 53.125V68.074C35.4883 68.8683 36.7234 68.8696 36.7234 68.074Z" fill="#4A3E42"/>
<path d="M40.0202 68.074V53.125C40.0202 52.3307 38.7852 52.3294 38.7852 53.125V68.074C38.7852 68.8683 40.0202 68.8696 40.0202 68.074Z" fill="#4A3E42"/>
<path d="M64.5066 68.074V53.125C64.5066 52.3307 63.2715 52.3294 63.2715 53.125V68.074C63.2715 68.8683 64.5066 68.8696 64.5066 68.074Z" fill="#4A3E42"/>
<path d="M61.1472 68.074V53.125C61.1472 52.3307 59.9121 52.3294 59.9121 53.125V68.074C59.9121 68.8683 61.1472 68.8696 61.1472 68.074Z" fill="#4A3E42"/>
<path d="M55.2803 21.6179C55.2803 20.7707 55.2803 19.9239 55.2803 19.0768C55.2803 18.9064 55.142 18.7682 54.9715 18.7682H51.5797C51.5797 17.6726 51.5797 16.528 51.58 15.3787C51.58 15.2084 51.4416 15.0698 51.2712 15.0698H48.7281C48.5577 15.0698 48.4194 15.2081 48.4194 15.3784V18.7682H45.0275C44.8571 18.7682 44.7188 18.9064 44.7188 19.0768V21.6185C44.7188 21.7888 44.8574 21.9271 45.0278 21.9271C46.178 21.9271 47.3229 21.9268 48.4194 21.9268V25.3171C48.4194 25.4875 48.5577 25.6257 48.7281 25.6257C49.5757 25.6257 50.423 25.6257 51.2706 25.6257C51.441 25.6257 51.5793 25.49 51.5793 25.3196C51.5793 24.507 51.5793 23.3245 51.5793 21.9268C52.9778 21.9268 54.161 21.9268 54.9743 21.9268C55.1447 21.9268 55.2806 21.7885 55.2806 21.6182L55.2803 21.6179Z" fill="#4A3E42"/>
<path d="M13.5654 52.7112V27.7948C13.5654 27.597 13.6043 27.3541 13.5654 27.1594C13.5154 26.9085 13.784 27.6097 13.2622 27.4085C13.3002 27.423 13.3746 27.4085 13.4141 27.4085H35.3502C35.4962 27.4085 35.6463 27.418 35.7923 27.4085C36.0576 27.3912 36.2984 27.3007 36.4803 27.1011C36.7866 26.7641 36.7202 26.2873 36.7202 25.8673V12.9959C36.7202 12.7138 36.7829 12.3462 36.7202 12.071C36.6689 11.8454 36.4019 12.2605 36.4238 12.2682C36.4401 12.274 36.463 12.2651 36.4803 12.2682C36.5532 12.2814 36.6418 12.2682 36.7156 12.2682H62.9812C63.1504 12.2682 63.3761 12.308 63.5416 12.2682C63.7365 12.2213 63.3141 11.8762 63.2776 11.979C63.2542 12.045 63.2776 12.1626 63.2776 12.2318V26.3138C63.2776 26.89 63.5839 27.3696 64.2114 27.4085C64.3821 27.4189 64.5572 27.4085 64.7283 27.4085H85.8214C86.0841 27.4085 86.3592 27.4322 86.6211 27.4085C86.6547 27.4054 86.7116 27.4217 86.7427 27.4085C85.8325 27.7924 86.4908 26.9449 86.4355 27.1171C86.4293 27.1366 86.4389 27.1622 86.4355 27.1822C86.4006 27.3921 86.4355 27.6384 86.4355 27.8504V52.7109C86.4355 53.5052 87.6706 53.5065 87.6706 52.7109V28.8703C87.6706 28.2929 87.6996 27.7072 87.6706 27.1304C87.6187 26.0953 86.697 26.174 85.9643 26.174H64.7804C64.6217 26.174 64.3713 26.1253 64.2179 26.174C64.2197 26.1734 64.4707 26.6505 64.5127 26.4126C64.5322 26.3018 64.5127 26.1688 64.5127 26.0564V12.9443C64.5127 12.1592 64.6563 11.0806 63.5342 11.0337C61.7236 10.9578 59.8935 11.0337 58.0816 11.0337H36.6316C36.2444 11.0337 35.8578 11.097 35.629 11.4661C35.4289 11.7889 35.4848 12.22 35.4848 12.5854V25.5602C35.4848 25.7253 35.4215 26.0969 35.4848 26.2518V26.3286C35.8056 26.2256 35.9081 26.1737 35.7926 26.174C35.7914 26.1734 35.7893 26.1746 35.788 26.174C35.7825 26.1719 35.7741 26.1756 35.7683 26.174C35.596 26.128 35.3474 26.174 35.1708 26.174H13.9501C13.2276 26.174 12.3729 26.1422 12.3303 27.1474C12.2507 29.0246 12.3303 30.9226 12.3303 32.8011V52.7112C12.3303 53.5055 13.5654 53.5068 13.5654 52.7112Z" fill="#4A3E42"/>
<path d="M21.7976 43.1398V33.5103C21.7976 32.7159 20.5625 32.7147 20.5625 33.5103V43.1398C20.5625 43.9341 21.7976 43.9354 21.7976 43.1398Z" fill="#4A3E42"/>
<path d="M30.0261 43.1414V33.5098C30.0261 32.7154 28.791 32.7142 28.791 33.5098V43.1414C28.791 43.9358 30.0261 43.937 30.0261 43.1414Z" fill="#4A3E42"/>
<path d="M38.2605 43.1441V33.6436C38.2605 32.8492 37.0254 32.848 37.0254 33.6436V43.1441C37.0254 43.9384 38.2605 43.9397 38.2605 43.1441Z" fill="#4A3E42"/>
<path d="M46.4968 43.1444V33.5103C46.4968 32.7159 45.2617 32.7147 45.2617 33.5103V43.1444C45.2617 43.9388 46.4968 43.94 46.4968 43.1444Z" fill="#4A3E42"/>
<path d="M54.7312 43.1398V33.5103C54.7312 32.7159 53.4961 32.7147 53.4961 33.5103V43.1398C53.4961 43.9341 54.7312 43.9354 54.7312 43.1398Z" fill="#4A3E42"/>
<path d="M62.9675 43.1398V33.5103C62.9675 32.7159 61.7324 32.7147 61.7324 33.5103V43.1398C61.7324 43.9341 62.9675 43.9354 62.9675 43.1398Z" fill="#4A3E42"/>
<path d="M71.1999 43.1398V33.5103C71.1999 32.7159 69.9648 32.7147 69.9648 33.5103V43.1398C69.9648 43.9341 71.1999 43.9354 71.1999 43.1398Z" fill="#4A3E42"/>
<path d="M79.4363 43.1398V33.5103C79.4363 32.7159 78.2012 32.7147 78.2012 33.5103V43.1398C78.2012 43.9341 79.4363 43.9354 79.4363 43.1398Z" fill="#4A3E42"/>
<path d="M12.9442 34.127H87.0151C87.8099 34.127 87.8111 32.8926 87.0151 32.8926H12.9442C12.1494 32.8926 12.1482 34.127 12.9442 34.127Z" fill="#4A3E42"/>
<path d="M87.0494 42.5249H12.9442C12.1494 42.5249 12.1482 43.7593 12.9442 43.7593H87.0494C87.8441 43.7593 87.8454 42.5249 87.0494 42.5249Z" fill="#4A3E42"/>
<path d="M21.7976 61.8679V53.125C21.7976 52.3307 20.5625 52.3294 20.5625 53.125V61.8679C20.5625 62.6622 21.7976 62.6635 21.7976 61.8679Z" fill="#4A3E42"/>
<path d="M30.0261 61.8679V53.125C30.0261 52.3307 28.791 52.3294 28.791 53.125V61.8679C28.791 62.6622 30.0261 62.6635 30.0261 61.8679Z" fill="#4A3E42"/>
<path d="M13.6493 53.7427H36.1032C36.8979 53.7427 36.8992 52.5083 36.1032 52.5083H13.6493C12.8545 52.5083 12.8533 53.7427 13.6493 53.7427Z" fill="#4A3E42"/>
<path d="M36.1072 61.25H17.1005C16.3057 61.25 16.3044 62.4844 17.1005 62.4844H36.1072C36.902 62.4844 36.9032 61.25 36.1072 61.25Z" fill="#4A3E42"/>
<path d="M71.1999 61.8669V53.1241C71.1999 52.3297 69.9648 52.3285 69.9648 53.1241V61.8669C69.9648 62.6613 71.1999 62.6625 71.1999 61.8669Z" fill="#4A3E42"/>
<path d="M79.4363 61.7296V53.1241C79.4363 52.3297 78.2012 52.3285 78.2012 53.1241V61.7296C78.2012 62.5239 79.4363 62.5252 79.4363 61.7296Z" fill="#4A3E42"/>
<path d="M86.3482 52.5083H64.0301C63.2354 52.5083 63.2341 53.7427 64.0301 53.7427H86.3482C87.1429 53.7427 87.1442 52.5083 86.3482 52.5083Z" fill="#4A3E42"/>
<path d="M82.9735 61.25H63.8915C63.0967 61.25 63.0955 62.4844 63.8915 62.4844H82.9735C83.7683 62.4844 83.7696 61.25 82.9735 61.25Z" fill="#4A3E42"/>
<path d="M88.4922 64.4703V68.0748C88.4922 68.3976 88.7763 68.7068 89.1097 68.692C89.4432 68.6772 89.7273 68.4208 89.7273 68.0748V64.4703C89.7273 64.1475 89.4432 63.8382 89.1097 63.8531C88.7763 63.8679 88.4922 64.1243 88.4922 64.4703Z" fill="#4A3E42"/>
<path d="M85.1172 64.4493V68.0751C85.1172 68.3979 85.4013 68.7071 85.7347 68.6923C86.0682 68.6775 86.3523 68.421 86.3523 68.0751V64.4493C86.3523 64.1265 86.0682 63.8172 85.7347 63.8321C85.4013 63.8469 85.1172 64.1033 85.1172 64.4493Z" fill="#4A3E42"/>
<path d="M88.7832 52.4411C88.27 52.0761 87.6166 51.9437 87.0012 52.0856C86.3858 52.2276 85.8915 52.6763 85.4416 53.0979C84.5493 53.9345 83.8095 54.9535 83.2771 56.0537C82.9931 56.641 82.747 57.2557 82.5876 57.889C82.4092 58.5988 82.3601 59.3333 82.3162 60.0613C82.236 61.4003 82.3237 62.7125 83.2234 63.78C83.9589 64.6527 84.9973 64.9737 86.0876 65.1292C87.0525 65.2669 87.9538 65.2576 88.9169 65.1193C89.9747 64.9675 90.964 64.6876 91.7085 63.8689C92.6419 62.8424 92.7765 61.5284 92.7015 60.198C92.6555 59.3777 92.6033 58.5491 92.3862 57.7532C92.1945 57.0505 91.9055 56.3651 91.5643 55.7219C90.9124 54.4934 90.0053 53.3929 88.9079 52.5371C88.6451 52.3322 88.2907 52.281 88.0347 52.5371C87.8213 52.7504 87.7704 53.2037 88.0347 53.4099C89.6885 54.7001 90.9739 56.6132 91.3333 58.7006C91.4333 59.2817 91.4559 59.8838 91.4803 60.4723C91.5034 61.03 91.5003 61.5917 91.3317 62.1289C91.0659 62.9751 90.3684 63.543 89.5461 63.7482C88.8508 63.9216 88.1054 64.03 87.3872 64.0155C86.614 63.9997 85.7223 63.9201 85.0044 63.6127C84.0716 63.2134 83.5859 62.2666 83.5294 61.2945C83.4633 60.1554 83.5519 58.9028 83.8934 57.8121C84.2433 56.6944 84.8337 55.6244 85.592 54.7313C86.1984 54.0169 87.155 52.7914 88.1601 53.5064C88.4318 53.6999 88.8474 53.5546 89.0049 53.2849C89.1861 52.975 89.0558 52.6349 88.7832 52.4411Z" fill="#4A3E42"/>
<path d="M13.4805 64.4703V68.0748C13.4805 68.3976 13.7645 68.7068 14.098 68.692C14.4315 68.6772 14.7156 68.4208 14.7156 68.0748V64.4703C14.7156 64.1475 14.4315 63.8382 14.098 63.8531C13.7645 63.8679 13.4805 64.1243 13.4805 64.4703Z" fill="#4A3E42"/>
<path d="M10.1055 64.4493V68.0751C10.1055 68.3979 10.3895 68.7071 10.723 68.6923C11.0565 68.6775 11.3406 68.421 11.3406 68.0751V64.4493C11.3406 64.1265 11.0565 63.8172 10.723 63.8321C10.3895 63.8469 10.1055 64.1033 10.1055 64.4493Z" fill="#4A3E42"/>
<path d="M13.7714 52.4411C13.2583 52.0761 12.6049 51.9437 11.9895 52.0856C11.3741 52.2276 10.8798 52.6763 10.4299 53.0979C9.53756 53.9345 8.79774 54.9535 8.26542 56.0537C7.98135 56.641 7.73526 57.2557 7.57593 57.889C7.39746 58.5988 7.34837 59.3333 7.30452 60.0613C7.22424 61.4003 7.31193 62.7125 8.21169 63.78C8.94719 64.6527 9.98559 64.9737 11.0759 65.1292C12.0408 65.2669 12.9421 65.2576 13.9051 65.1193C14.963 64.9675 15.9523 64.6876 16.6967 63.8689C17.6302 62.8424 17.7648 61.5284 17.6897 60.198C17.6437 59.3777 17.5916 58.5491 17.3745 57.7532C17.1827 57.0505 16.8937 56.3651 16.5525 55.7219C15.9007 54.4934 14.9936 53.3929 13.8962 52.5371C13.6334 52.3322 13.2789 52.281 13.023 52.5371C12.8096 52.7504 12.7587 53.2037 13.023 53.4099C14.6768 54.7001 15.9622 56.6132 16.3216 58.7006C16.4216 59.2817 16.4442 59.8838 16.4686 60.4723C16.4917 61.03 16.4886 61.5917 16.32 62.1289C16.0542 62.9751 15.3567 63.543 14.5344 63.7482C13.8391 63.9216 13.0937 64.03 12.3755 64.0155C11.6023 63.9997 10.7106 63.9201 9.99269 63.6127C9.05989 63.2134 8.57419 62.2666 8.51768 61.2945C8.45161 60.1554 8.54022 58.9028 8.88173 57.8121C9.23156 56.6944 9.82194 55.6244 10.5803 54.7313C11.1867 54.0169 12.1433 52.7914 13.1483 53.5064C13.4201 53.6999 13.8357 53.5546 13.9931 53.2849C14.1744 52.975 14.0441 52.6343 13.7714 52.4405V52.4411Z" fill="#4A3E42"/>
<path d="M0.596547 68.6915H99.4035C100.198 68.6915 100.199 67.457 99.4035 67.457H0.596547C-0.198231 67.457 -0.199466 68.6915 0.596547 68.6915Z" fill="#4A3E42"/>
<path d="M35.7974 53.7425C44.908 53.7425 54.0189 53.7425 63.1296 53.7425C63.6072 53.7425 64.2788 53.8641 64.6984 53.5987C64.9874 53.416 65.115 53.1111 65.1307 52.7806C65.1486 52.4041 65.1307 52.0224 65.1307 51.6459V50.0247C65.1307 49.5905 65.1829 49.131 64.8235 48.8048C64.5264 48.5351 64.163 48.5644 63.799 48.5644H35.9669C35.3 48.5644 34.8711 48.9804 34.8711 49.664V52.5189C34.8711 53.0513 34.9998 53.6188 35.6331 53.7209C35.962 53.774 36.2976 53.6358 36.3927 53.2898C36.4736 52.9957 36.2927 52.584 35.9614 52.5306C36.3625 52.5951 36.0704 52.9454 36.1059 52.7612C36.1164 52.7068 36.1059 52.6399 36.1059 52.5843V49.7887C36.1059 49.7152 36.1358 49.5665 36.1059 49.4961C36.2933 49.9346 35.559 49.7674 35.9172 49.7988C36.7602 49.8732 37.6442 49.7988 38.4896 49.7988H64.021C64.0664 49.7988 64.155 49.8164 64.1985 49.7988C63.6798 50.0081 63.9515 49.2554 63.8953 49.5976C63.8703 49.7495 63.8953 49.9306 63.8953 50.084V51.6459C63.8953 51.9971 63.8329 52.4143 63.8953 52.7609C63.9401 53.0087 63.6325 52.1242 64.0506 52.5084C63.9651 52.4297 63.3892 52.5084 63.283 52.5084C62.7201 52.5084 62.1569 52.5084 61.594 52.5084C60.5192 52.5084 59.4444 52.5084 58.3695 52.5084C56.2199 52.5084 54.0699 52.5084 51.9202 52.5084C47.6206 52.5084 43.3212 52.5084 39.0216 52.5084C37.9468 52.5084 36.8719 52.5084 35.7971 52.5084C35.0023 52.5084 35.0011 53.7428 35.7971 53.7428L35.7974 53.7425Z" fill="#4A3E42"/>
</g>
</svg>
