<svg width="130" height="80" viewBox="0 0 130 80" fill="none" xmlns="http://www.w3.org/2000/svg">
<mask id="mask0_1509_24630" style="mask-type:alpha" maskUnits="userSpaceOnUse" x="0" y="0" width="130" height="80">
<rect width="130" height="80" fill="#D9D9D9"/>
</mask>
<g mask="url(#mask0_1509_24630)">
</g>
<g clip-path="url(#clip0_1509_24630)">
<path d="M43.18 38.4841C44.3947 36.2652 45.9383 34.0559 48.1405 32.7036L58.1658 33.043C61.5799 34.0507 65.2069 34.0812 68.6373 33.131L80.752 33.9156C82.2009 36.7648 86.5908 42.9017 88.4203 46.9471C89.5808 49.5131 90.6869 51.9015 89.8351 54.5864C89.3463 56.1265 84.7084 59.1117 83.5384 59.9498C82.3124 58.6089 79.0248 56.4471 77.2974 55.0334C78.4155 54.1226 79.7966 52.9468 80.8225 51.5716C80.8827 51.4889 80.9197 51.3915 80.9295 51.2895C80.9393 51.1876 80.9215 51.0848 80.8781 50.9921C80.336 49.7982 79.0537 47.751 78.1888 46.9606L78.1472 46.9224C77.9716 48.6868 77.7753 50.8757 77.4965 52.9025C77.352 53.9509 77.2274 54.9492 77.1203 55.7288C76.917 55.7288 76.7944 55.7288 76.7944 55.7288C72.0022 55.7288 56.0279 55.7394 51.4587 55.7394C51.4587 55.7394 51.385 55.7394 51.2566 55.7394C51.1495 54.958 51.0244 53.9557 50.8804 52.9025C50.5683 50.6326 50.3594 48.1593 50.1675 46.3065C50.079 46.4573 50.0296 46.5416 50.0296 46.5416C49.2712 47.8536 48.6696 49.2506 48.2372 50.7038C47.8471 51.9329 50.1996 54.6691 50.884 55.4804C49.5594 55.3479 48.2248 55.6 47.0391 56.2067C46.337 56.5443 44.2638 59.0599 44.253 59.6145C42.003 58.9038 38.3941 54.3853 38.3463 51.9887C38.3034 49.8312 40.7813 42.951 43.0441 38.734C43.0891 38.6509 43.1344 38.5676 43.18 38.4841Z" fill="white"/>
<path d="M61.7269 38.689C60.6333 37.003 59.3475 34.9682 58.1699 33.0435C61.5843 34.0512 65.2118 34.081 68.6422 33.1294C67.171 35.7775 65.5107 38.5645 64.344 40.4241L62.923 40.5078C62.5661 39.9764 62.1612 39.3604 61.7269 38.689Z" fill="white"/>
<path d="M48.2326 65.3871C46.6934 70.4861 44.9908 76.7254 44.8672 77.0454C45.3161 76.8675 45.7785 76.7257 46.2498 76.6213L46.2233 76.6914C46.0375 77.25 45.6846 78.3675 45.4725 79.0483C48.9352 78.051 58.2409 77.604 64.3703 79.5034C68.3267 78.3303 77.0196 78.3303 82.4695 79.1665C82.3995 78.7165 82.2343 77.8162 82.146 77.2968L82.1117 77.0479C82.4504 77.1294 82.7739 77.2174 83.0798 77.3114C82.6495 75.1599 79.735 60.0991 79.3785 58.9816C76.8047 58.6257 70.1966 58.502 64.4714 59.5126C62.7431 59.0231 60.9659 58.7275 59.1725 58.6312C56.7201 58.4995 52.8858 58.723 50.4334 58.9912C49.9989 59.7452 49.1443 62.366 48.2326 65.3871Z" fill="white"/>
<path d="M60.4568 14.3522C60.5286 14.3121 60.6113 14.2962 60.6928 14.3067C61.1333 14.4324 64.7224 13.5974 65.1562 13.4491C66.2961 13.0594 67.1971 12.2469 68.0236 11.3818L69.4418 11.7182C70.8857 12.1886 73.2234 14.505 73.5083 17.4547L74.1668 16.8584C74.3425 16.7056 74.549 16.5926 74.7722 16.5272C74.9954 16.4617 75.2301 16.4453 75.4602 16.479C75.686 16.511 75.9018 16.5933 76.0916 16.7199C76.2815 16.8465 76.4407 17.0142 76.5575 17.2106C76.6925 17.4816 76.7694 17.778 76.7832 18.0807C76.8817 19.2652 76.6535 20.4541 76.1237 21.5174C75.8739 22.0547 75.5114 22.5317 75.061 22.9157C74.6848 23.2174 74.0053 23.1947 73.5334 23.2787C73.4421 23.5992 73.3483 23.8645 73.2989 24.0151C72.6934 25.3627 71.8859 26.6095 70.9045 27.7124L71.0524 28.4918C70.4451 29.7943 69.5812 31.4332 68.6397 33.1286C65.2096 34.0801 61.5825 34.0504 58.1684 33.0429C57.1195 31.3291 56.1566 29.7035 55.4919 28.4925C55.4919 28.4925 55.6303 28.1818 55.8116 27.7733C55.6566 27.6057 55.5045 27.4321 55.3552 27.2526C54.3398 26.0009 53.6086 24.5425 53.2123 22.9788L53.0914 23.0089C52.4467 23.1706 51.9379 22.8453 51.5794 22.5579C51.1295 22.1738 50.7676 21.697 50.5182 21.1599C49.9883 20.097 49.7599 18.9084 49.8582 17.7242C49.8717 17.4215 49.9486 17.1251 50.0839 16.8541C50.2006 16.6577 50.3598 16.4901 50.5497 16.3635C50.7396 16.2369 50.9554 16.1545 51.1812 16.1225C51.4112 16.0887 51.6457 16.105 51.8688 16.1704C52.0919 16.2357 52.2984 16.3485 52.4741 16.5011L53.6323 17.2023C53.9212 16.8405 54.1371 16.3224 54.5571 16.114C54.8807 15.9992 55.2279 15.9677 55.5669 16.0225C58.0335 16.1431 59.7637 14.6498 60.4568 14.3522Z" fill="white"/>
<path d="M51.2359 37.1384C50.0207 36.4873 45.5137 33.5526 45.619 33.3978C45.9951 32.8475 49.9229 31.195 52.6652 29.9377C54.1697 29.2479 55.2266 28.6164 55.4924 28.4927C57.2006 31.6065 60.8784 37.4539 62.9215 40.508C60.5236 40.16 56.5391 39.9798 51.2359 37.1384Z" fill="white"/>
<path d="M75.3107 37.1384C76.5199 36.4772 81.0329 33.5526 80.9276 33.3978C80.5515 32.8475 76.6237 31.195 73.8814 29.9377C72.3769 29.2479 71.32 28.6164 71.0542 28.4927C69.4982 31.83 66.2575 37.3745 64.3438 40.4242C67.5504 40.0182 70.1154 39.9798 75.3107 37.1384Z" fill="white"/>
<path d="M50.4401 55.3154C52.1392 55.2231 53.7595 55.4008 55.0655 56.7358C55.8363 57.5234 57.3014 58.7787 57.4095 60.0324C57.4526 60.5317 57.1289 61.3043 56.5803 61.5436L55.0685 64.848C55.4539 65.2754 55.491 65.5899 55.2691 65.8494C55.1351 66.0111 54.9606 66.1341 54.7634 66.2057C54.5663 66.2772 54.3536 66.2947 54.1475 66.2564C53.7295 66.2056 53.338 66.0246 53.0281 65.739C53.1562 66.0719 52.2347 66.4661 52 66.505C51.1289 66.6496 50.5511 66.2257 49.9716 65.6591C50.161 66.449 48.9636 67.2499 48.1359 66.6197C47.2881 65.9741 46.6815 65.461 46.2269 64.5833C45.7863 63.7323 45.6311 62.8235 45.3723 62.2023C44.9676 61.1572 44.0448 60.4291 44.1988 59.7815C44.452 58.5778 45.7535 57.1312 46.4877 56.4731C47.434 55.6238 49.2226 55.3802 50.4411 55.3141" fill="white"/>
<path d="M53.5229 59.1406C54.0317 60.0708 55.3369 61.6277 55.8454 62.5569C55.9884 62.8179 56.4375 63.5822 56.4585 63.8791C56.4816 64.2059 55.9533 65.0275 54.9262 64.6752C55.3334 65.1361 55.525 65.5524 55.2697 65.8493C55.1358 66.011 54.9612 66.134 54.764 66.2056C54.5669 66.2771 54.3542 66.2946 54.1481 66.2563C53.7302 66.2055 53.3387 66.0245 53.0287 65.7389C53.0641 66.147 52.4349 66.3599 52.2012 66.3989C51.3301 66.5434 50.627 66.1751 49.9733 65.659C49.4831 66.5723 48.9652 67.2499 48.1375 66.6196C47.2897 65.974 46.6831 65.4609 46.2285 64.5832" fill="white"/>
<path d="M79.9286 64.7829C80.1402 64.6001 80.3439 64.4199 80.5304 64.2517C81.4918 63.3811 82.5537 62.7827 82.897 61.5136C83.1759 60.5767 83.1306 59.5728 82.7684 58.665C82.5708 58.1177 82.1217 57.2275 81.7375 56.877C81.2305 56.4147 80.4645 55.7709 79.713 55.6107C78.8915 55.4111 76.8526 55.9182 75.9609 55.8714C74.6821 55.8048 73.7824 56.2578 72.5805 56.784C71.4652 57.2722 70.3513 57.6687 69.237 58.2273C69.1421 58.2885 69.0621 58.3701 69.0027 58.4662C68.9434 58.5623 68.9061 58.6705 68.8936 58.7829C68.8812 58.8952 68.8939 59.0089 68.9308 59.1158C68.9677 59.2226 69.0279 59.3198 69.1071 59.4004C69.6357 59.8753 70.8345 59.5401 71.6146 59.5401L72.2217 59.6138C71.2437 60.3288 70.0288 61.2228 69.6457 61.6072C69.1532 62.1022 68.5742 62.5338 68.6241 63.0598C68.7196 64.0654 69.6457 63.9724 69.9987 63.7861L70.0298 63.7695L69.8129 64.046C69.3661 64.6167 69.2558 65.3123 69.7658 65.617C70.0857 65.7537 70.4356 65.8047 70.7811 65.765C71.1266 65.7253 71.4559 65.5964 71.7367 65.3908C71.3892 65.8579 71.4333 66.4049 71.8408 66.6395C72.2772 66.8372 72.7715 66.8641 73.2267 66.7149C73.7215 66.5107 74.1949 66.2581 74.6402 65.9607C75.0798 65.7133 76.9639 64.586 77.906 63.908L77.8 64.0086C77.2892 64.4928 76.5083 65.1713 76.2202 65.6286C76.1591 65.7131 76.121 65.812 76.1095 65.9157C76.0981 66.0194 76.1138 66.1243 76.155 66.2201C76.1962 66.3159 76.2616 66.3993 76.3447 66.4621C76.4278 66.5249 76.5257 66.565 76.6289 66.5784C76.9725 66.6901 77.3462 66.6616 77.6691 66.4992C78.1357 66.2697 79.0933 65.5052 79.9286 64.7829Z" fill="white"/>
<path d="M47.2672 24.8831C47.5411 24.0907 47.989 23.3701 48.5777 22.7745C49.1665 22.1788 49.8811 21.7232 50.6689 21.4414C50.8999 21.8681 51.2095 22.2471 51.5811 22.5584C51.9625 22.8633 52.5109 23.212 53.2125 22.9737C53.36 23.5289 53.5448 24.0734 53.7657 24.6035C53.7156 24.7835 53.6639 24.9666 53.6138 25.1493C53.1148 26.9594 51.6779 28.0933 49.9778 28.6413C49.4011 28.8274 47.8539 28.7469 47.2271 28.307C46.6202 27.8796 46.9362 25.9337 47.1794 25.1493C47.2065 25.0597 47.2357 24.9709 47.2672 24.8831Z" fill="#65B005"/>
<path d="M76.1406 21.481C77.0671 21.7272 77.9144 22.2093 78.6002 22.8806C79.2861 23.552 79.7872 24.3896 80.0549 25.3123C80.2981 26.0967 80.6141 28.0426 80.0047 28.4699C79.3779 28.9099 77.8332 28.9903 77.2565 28.8043C75.5564 28.2562 74.1195 27.1224 73.618 25.3123C73.4896 24.8855 73.383 24.4524 73.2988 24.0146C73.349 23.8637 73.442 23.599 73.5335 23.2785C74.0047 23.1943 74.6847 23.2161 75.0609 22.9152C75.5113 22.5312 75.8738 22.0542 76.1236 21.5169" fill="#65B005"/>
<path d="M59.0116 1.09361C56.8596 1.7382 55.148 2.8132 54.1352 3.79694C51.3741 6.4789 50.1983 10.8153 50.9406 14.5441C50.9406 14.5441 51.1412 15.4095 51.3766 16.0938C51.5776 16.081 51.779 16.1106 51.9679 16.1807C52.1567 16.2507 52.3289 16.3597 52.4732 16.5006L53.5444 17.3028C53.8801 16.9443 54.096 16.3409 54.5562 16.1134C54.8798 15.9986 55.227 15.9671 55.566 16.0219C58.3915 16.1599 60.2508 14.1799 60.6914 14.3061C61.1319 14.4323 64.721 13.5969 65.1548 13.4485C66.2977 13.0578 67.2004 12.2418 68.0289 11.3742L68.1137 11.2852L69.4404 11.7176C70.8843 12.188 73.222 14.5044 73.5069 17.4541C73.8389 17.1524 74.1654 16.8578 74.1654 16.8578C74.3411 16.705 74.5476 16.592 74.7708 16.5266C74.994 16.4611 75.2287 16.4447 75.4588 16.4784C75.5158 16.4869 75.5722 16.4988 75.6278 16.5141C75.9471 15.2702 76.0856 13.9865 76.039 12.7029C75.8179 9.54978 74.5696 6.01732 72.5706 4.06041C69.9773 1.52124 67.8444 0.506836 62.9918 0.506836C61.6437 0.507996 60.3029 0.705654 59.0116 1.09361Z" fill="#65B005"/>
<path d="M62.6484 42.9683C62.0679 43.2146 59.9222 44.5018 59.7981 45.57C59.7209 46.2365 60.1589 48.7045 60.3585 49.9769C61.6173 49.1703 62.7932 48.2405 63.8691 47.2014" fill="#65B005"/>
<path d="M63.0833 43.5288C62.7857 44.1857 61.8734 47.5975 62.0123 48.2315C62.1746 48.9711 65.0181 51.9452 65.7676 52.622C66.0685 51.9432 67.7125 48.0942 67.4399 47.2018C67.1327 46.1962 65.5073 43.9084 65.133 43.2593" fill="#65B005"/>
<path d="M61.5781 40.5615C61.6481 41.1976 61.87 42.2859 61.9573 42.9089C62.5494 43.1449 63.1682 43.307 63.7998 43.3916C64.3684 43.3112 64.9201 43.1387 65.4335 42.8807C65.6194 42.1192 65.7419 41.3434 65.7996 40.5615C65.6644 40.5263 61.9181 40.5615 61.5781 40.5615Z" fill="#65B005"/>
<path d="M61.8631 48.2931C61.2995 48.7408 60.7122 49.1576 60.1038 49.5418L60.8405 49.8435C60.6349 48.5277 60.3199 47.1842 60.2913 45.849C60.2768 45.758 60.2804 45.665 60.3019 45.5754C60.3234 45.4859 60.3624 45.4014 60.4167 45.3271C60.5907 45.057 60.8055 44.8158 61.0534 44.6118C61.5469 44.1821 62.0906 43.8138 62.6725 43.5152C63.245 43.2155 62.7384 42.3474 62.1662 42.6469C61.4976 42.9953 60.8749 43.426 60.3126 43.929C59.7948 44.3959 59.3121 44.9794 59.2891 45.7074C59.3006 46.3992 59.3726 47.0886 59.5042 47.7677C59.6191 48.55 59.7525 49.3296 59.8746 50.111C59.8956 50.1849 59.9331 50.2531 59.9842 50.3103C60.0354 50.3675 60.0989 50.4123 60.1699 50.4413C60.2409 50.4702 60.3175 50.4826 60.394 50.4774C60.4705 50.4722 60.5448 50.4497 60.6113 50.4114C61.2901 49.9786 61.9451 49.5093 62.5734 49.0056C62.6668 48.9109 62.7192 48.7831 62.7192 48.65C62.7192 48.5168 62.6668 48.3891 62.5734 48.2944C62.4779 48.2031 62.3509 48.1521 62.2189 48.1521C62.0869 48.1521 61.9599 48.2031 61.8643 48.2944L61.8631 48.2931Z" fill="#4A3E42"/>
<path d="M62.6505 43.2745C62.3856 43.9286 62.174 44.603 62.0176 45.2913C61.7887 46.102 61.621 46.9289 61.5161 47.7648C61.4549 48.3549 61.675 48.7704 62.0176 49.2363C62.54 49.9282 63.1 50.5909 63.6951 51.2211C64.2485 51.8225 64.8097 52.4278 65.415 52.9769C65.6302 53.1722 66.064 53.1878 66.2026 52.8751C66.7721 51.6256 67.2613 50.3408 67.667 49.0286C67.8401 48.4479 68.0683 47.7508 67.9429 47.1393C67.7949 46.4274 67.2952 45.7245 66.9201 45.1176C66.4805 44.4069 65.9903 43.7253 65.5682 43.004C65.2423 42.4462 64.3744 42.9517 64.7021 43.5116C65.0419 44.0923 65.4333 44.6442 65.7944 45.2121C66.2293 45.835 66.6032 46.4986 66.9108 47.1936C66.9313 47.2492 66.9469 47.306 66.9664 47.3616C66.9928 47.4357 66.9684 47.2567 66.9689 47.3737C66.9714 47.4934 66.9657 47.6132 66.9519 47.7322C66.9642 47.6366 66.9323 47.8367 66.9293 47.8536C66.917 47.9186 66.9035 47.9836 66.889 48.0484C66.8506 48.2224 66.8055 48.3948 66.7573 48.5663C66.5494 49.3047 66.2849 50.0272 66.0076 50.7414C65.7734 51.3448 65.5775 51.8247 65.3373 52.3665L66.1249 52.2647C65.025 51.2548 64.007 50.1586 63.0808 48.9866C62.9022 48.7698 62.7393 48.5404 62.5933 48.3003C62.5645 48.25 62.5384 48.1998 62.5118 48.1495C62.4634 48.0572 62.5048 48.2153 62.5063 48.1316C62.5088 47.9949 62.4983 48.2005 62.502 48.1226C62.505 48.0625 62.502 48.0019 62.504 47.9416C62.5766 47.2431 62.7104 46.5524 62.904 45.8776C63.0133 45.4389 63.1309 45.0022 63.2598 44.5688C63.3122 44.3928 63.3664 44.2168 63.425 44.0423C63.4459 43.9805 63.4679 43.9191 63.4895 43.8578C63.4995 43.8286 63.5116 43.8002 63.5218 43.7713C63.5557 43.677 63.4795 43.8666 63.5173 43.7811C63.5805 43.665 63.597 43.5291 63.5635 43.4012C63.53 43.2733 63.4491 43.1631 63.3373 43.093C63.2222 43.0267 63.0857 43.0085 62.9573 43.0423C62.829 43.0761 62.719 43.1591 62.6512 43.2735L62.6505 43.2745Z" fill="#4A3E42"/>
<path d="M63.4702 43.5253C63.6959 44.3645 63.9035 45.2218 64.0469 46.0798C64.0826 46.2083 64.1675 46.3174 64.2831 46.3833C64.3987 46.4493 64.5357 46.4667 64.664 46.4318C64.7904 46.3933 64.8972 46.3078 64.9625 46.1927C65.0278 46.0777 65.0466 45.9419 65.0151 45.8133C64.8716 44.9556 64.664 44.0983 64.4383 43.2588C64.403 43.1303 64.3181 43.021 64.2024 42.9552C64.0867 42.8893 63.9496 42.8723 63.8214 42.9078C63.6931 42.9432 63.5842 43.0283 63.5185 43.1443C63.4528 43.2603 63.4358 43.3977 63.4712 43.5263L63.4702 43.5253Z" fill="#4A3E42"/>
<path d="M61.0781 40.561C61.1488 41.1817 61.2669 41.7956 61.3733 42.4108C61.4319 42.7497 61.4124 43.2002 61.7654 43.3676C62.0827 43.5087 62.4128 43.6186 62.7512 43.6959C63.1313 43.8284 63.5325 43.8894 63.9347 43.8759C64.2638 43.8251 64.5881 43.7475 64.9046 43.6439C65.1684 43.5643 65.4232 43.4577 65.6652 43.3256C65.9475 43.1597 65.9784 42.7901 66.037 42.496C66.1741 41.8589 66.2629 41.2123 66.3026 40.5617C66.302 40.4518 66.2657 40.345 66.1993 40.2575C66.1328 40.17 66.0398 40.1066 65.9342 40.0768C65.7509 40.048 65.5652 40.0376 65.3798 40.0456C65.0676 40.0426 64.7554 40.0428 64.4435 40.0433C63.7093 40.0433 62.9753 40.0496 62.2414 40.0546C62.021 40.0561 61.8003 40.0587 61.5796 40.0589C60.9344 40.0589 60.9332 41.0645 61.5796 41.0645C62.7965 41.0645 64.0119 41.0424 65.2301 41.0499C65.3555 41.0499 65.4834 41.0517 65.61 41.0547C65.6491 41.0547 65.688 41.0577 65.7271 41.0582C65.8389 41.0597 65.7201 41.0582 65.6677 41.0464L65.2996 40.5617C65.2649 41.3009 65.1481 42.0339 64.9515 42.7471L65.182 42.4467C64.9915 42.5478 64.7916 42.6299 64.5852 42.6921C64.2845 42.7838 63.9782 42.8556 63.6682 42.907H63.9337C63.3016 42.8243 62.6825 42.6621 62.0909 42.4241L62.442 42.7761C62.3878 42.3957 62.3166 42.0178 62.2517 41.6395C62.2165 41.4383 62.1817 41.2372 62.1493 41.0361C62.117 40.835 62.0992 40.7163 62.0809 40.5615C62.0772 40.4293 62.0231 40.3036 61.9299 40.2101C61.8366 40.1166 61.7112 40.0624 61.5794 40.0586C61.4467 40.0595 61.3198 40.1127 61.226 40.2067C61.1322 40.3007 61.079 40.428 61.0781 40.561Z" fill="#4A3E42"/>
<path d="M51.0568 54.9083C50.6365 54.4083 50.226 53.9005 49.8479 53.3672C49.4085 52.8031 49.0545 52.1771 48.7972 51.5094C48.7651 51.4118 48.71 51.2022 48.7052 51.1637C48.6995 51.1092 48.6966 51.0545 48.6964 50.9998C48.6964 50.9651 48.6982 50.9307 48.7014 50.8962C48.6949 50.9465 48.6972 50.9427 48.7087 50.8836C48.844 50.4045 49.005 49.933 49.1909 49.4713C49.5384 48.5446 49.9642 47.6495 50.4637 46.7956C50.7897 46.236 49.9241 45.7294 49.5976 46.288C49.0398 47.2502 48.5675 48.2597 48.1861 49.3048C47.89 50.1066 47.5485 50.8603 47.81 51.7138C48.2614 53.184 49.3762 54.4641 50.3476 55.6193C50.7641 56.1148 51.4705 55.4003 51.0568 54.9083Z" fill="#4A3E42"/>
<path d="M44.3871 59.1298C43.7303 58.8667 43.1293 58.4812 42.6157 57.9937C41.9212 57.3764 41.2894 56.6915 40.7298 55.9491C40.1644 55.2179 39.6809 54.4267 39.288 53.5896C38.9972 53.021 38.8476 52.3904 38.8519 51.7514C38.8645 51.4755 38.8999 51.2011 38.9577 50.9311C39.0244 50.5701 39.1069 50.2118 39.1967 49.8561C39.4261 48.9467 39.7047 48.0497 40.0044 47.1615C40.6989 45.0986 41.5069 43.0759 42.4249 41.1027C43.5473 38.6931 44.8354 36.2655 46.7675 34.4054C47.2339 33.9561 46.524 33.2457 46.0583 33.6942C44.2394 35.4454 42.9623 37.6817 41.8707 39.9382C40.8676 42.0212 39.9845 44.1601 39.2258 46.3445C38.6458 48.0057 38.0445 49.7434 37.8682 51.5053C37.705 53.1361 38.6455 54.7383 39.5468 56.0217C40.1915 56.9519 40.9358 57.8086 41.7662 58.5767C42.4535 59.2052 43.2273 59.8061 44.1218 60.0987C44.7369 60.2998 44.9994 59.3292 44.3883 59.129L44.3871 59.1298Z" fill="#4A3E42"/>
<path d="M80.3215 34.1699C81.165 35.8226 82.2056 37.3788 83.1961 38.9447C84.404 40.8541 85.6194 42.7623 86.7235 44.7348C87.2343 45.6471 87.7082 46.5756 88.138 47.5291C88.7147 48.808 89.2942 50.111 89.5389 51.5013C89.6537 52.1379 89.6706 52.7885 89.5891 53.4303C89.5338 53.7759 89.4551 54.1174 89.3534 54.4522C89.322 54.5669 89.3649 54.4457 89.3311 54.5131C89.2942 54.5857 89.2558 54.6564 89.2122 54.7255C88.8561 55.2932 88.2257 55.84 87.6691 56.3114C86.2844 57.4837 84.7603 58.4619 83.2874 59.514L83.8952 59.5927C83.7174 59.4013 83.5296 59.2223 83.336 59.0471C82.8581 58.6145 82.1465 59.3237 82.6269 59.7583C82.8202 59.9343 83.0083 60.1123 83.1861 60.3039C83.2647 60.382 83.3668 60.432 83.4766 60.4462C83.5864 60.4604 83.6978 60.4379 83.7937 60.3823C85.1517 59.4124 86.5447 58.4988 87.8504 57.456C88.543 56.9351 89.1782 56.3418 89.7453 55.6859C90.4141 54.863 90.6157 53.8348 90.6387 52.7854C90.6698 51.357 90.2471 49.9667 89.7142 48.6574C89.2478 47.5113 88.7363 46.3777 88.1625 45.2816C87.0913 43.2384 85.8586 41.282 84.6287 39.3324C83.4526 37.4685 82.1913 35.6277 81.1878 33.6618C80.8937 33.0856 80.0278 33.5936 80.3217 34.1694L80.3215 34.1699Z" fill="#4A3E42"/>
<path d="M77.8338 47.3173C78.344 47.8234 78.7926 48.3883 79.1703 49.0002C79.5968 49.6368 79.9821 50.3002 80.3237 50.9863C80.3754 51.0919 80.4491 51.1874 80.4055 51.3005C80.2919 51.4916 80.1518 51.6655 79.9895 51.8172C79.6813 52.1797 79.3536 52.5249 79.0143 52.858C78.3578 53.5023 77.6555 54.0966 76.9438 54.6781C76.8972 54.7248 76.8603 54.7803 76.8351 54.8413C76.8099 54.9023 76.7969 54.9677 76.7969 55.0337C76.7969 55.0998 76.8099 55.1652 76.8351 55.2262C76.8603 55.2872 76.8972 55.3427 76.9438 55.3893C77.2381 55.6272 77.5359 55.8603 77.8375 56.0887C77.9526 56.1553 78.0891 56.1736 78.2176 56.1399C78.3461 56.1062 78.4561 56.023 78.5238 55.9085C78.5877 55.7926 78.6046 55.6564 78.5711 55.5283C78.5376 55.4002 78.4562 55.29 78.3438 55.2204C78.1109 55.0431 77.8807 54.8623 77.653 54.6781V55.3893C78.4569 54.7479 79.2254 54.0631 79.9551 53.3379C80.3162 52.9731 80.6576 52.5894 80.978 52.1882C81.3403 51.7314 81.5655 51.3113 81.3122 50.7374C80.9635 49.9831 80.5542 49.2584 80.0883 48.5706C79.6536 47.8559 79.1348 47.1962 78.5431 46.6056C78.0702 46.1661 77.3593 46.8756 77.834 47.3168L77.8338 47.3173Z" fill="#4A3E42"/>
<path d="M56.7891 59.0992C58.789 59.0467 60.7886 59.216 62.7515 59.6041C63.2475 59.7084 63.7339 59.8429 64.2254 59.9648C64.7043 60.0837 65.2989 59.8773 65.7846 59.8059C66.8154 59.6538 67.8521 59.5415 68.8904 59.454C69.5289 59.4002 69.5346 58.3941 68.8904 58.4484C67.3651 58.5773 65.8445 58.7641 64.3362 59.0266H64.6028C62.0573 58.3365 59.425 58.0221 56.7891 58.0934C56.1441 58.1019 56.1424 59.1078 56.7891 59.099V59.0992Z" fill="#4A3E42"/>
<path d="M53.5943 58.2325H53.5896L53.723 58.2144C53.7104 58.2158 53.6977 58.2164 53.6851 58.2161C53.6179 58.213 53.5512 58.228 53.4918 58.2596C53.4022 58.2989 53.3257 58.363 53.2711 58.4444C53.2165 58.5257 53.1862 58.6209 53.1836 58.7189L53.2014 58.8527C53.2245 58.9366 53.269 59.0131 53.3305 59.0747L53.4308 59.1531C53.5076 59.1982 53.5951 59.2219 53.6841 59.2217H53.7059H53.7162H53.722L53.8551 59.2039H53.8566H53.8599C53.9839 59.1642 54.0903 59.0825 54.1608 58.9728C54.223 58.8538 54.2408 58.7164 54.2109 58.5854L54.1608 58.4653C54.1172 58.3906 54.0552 58.3285 53.9807 58.2847L53.8609 58.2345C53.7737 58.2104 53.6816 58.2104 53.5943 58.2345V58.2325Z" fill="#4A3E42"/>
<path d="M80.0229 64.4065C80.7887 68.2132 81.5329 72.024 82.2796 75.835C82.3846 76.3713 82.49 76.9076 82.5958 77.444L83.2127 76.8255C80.6665 76.0487 77.9386 75.8068 75.2906 75.704C72.5963 75.5672 69.8951 75.6986 67.2266 76.0962C66.1904 76.2244 65.1799 76.5111 64.2304 76.9464H64.7364C63.7918 76.509 62.79 76.2085 61.761 76.0542C60.3614 75.8064 58.9487 75.6397 57.53 75.5549C54.5093 75.3302 51.4742 75.3912 48.465 75.7369C47.2112 75.8921 45.912 76.0786 44.7335 76.559L45.3504 77.1775C45.6317 76.4215 45.8055 75.6097 46.0244 74.8344C46.4943 73.1706 46.9677 71.5077 47.4447 69.8456C47.7589 68.7562 48.0772 67.6679 48.3995 66.5809C48.5843 65.9594 47.6167 65.6939 47.4324 66.3136C46.474 69.5379 45.57 72.7777 44.649 76.0127C44.564 76.3106 44.4925 76.6194 44.3842 76.9102C44.3614 76.9958 44.3615 77.0859 44.3844 77.1715C44.4074 77.2571 44.4523 77.3351 44.5148 77.3977C44.5773 77.4604 44.6551 77.5055 44.7405 77.5284C44.8258 77.5514 44.9157 77.5515 45.0011 77.5287C45.9154 77.1855 46.8668 76.951 47.8356 76.8298C49.0953 76.6482 50.3639 76.5349 51.6358 76.4904C54.4124 76.3593 57.195 76.4588 59.9553 76.7878C61.0394 76.908 62.1119 77.1167 63.1622 77.4118C63.366 77.4719 63.5681 77.5375 63.7672 77.6129C63.9192 77.6696 64.0682 77.7344 64.2133 77.807C64.3072 77.8519 64.4107 77.8729 64.5146 77.8681C64.6185 77.8634 64.7197 77.8331 64.8091 77.7798L64.9225 77.7265C64.9475 77.7145 64.9751 77.7029 65.0014 77.6916C64.9553 77.7114 64.9636 77.7074 65.0052 77.6916C65.2028 77.6137 65.4034 77.5448 65.607 77.4832C66.7053 77.1744 67.8304 76.9716 68.9671 76.8773C70.4304 76.7342 71.9001 76.6659 73.3704 76.6727C76.2711 76.6759 79.2393 76.8549 82.0645 77.5526C82.3607 77.6258 82.6548 77.7068 82.9466 77.7957C83.0319 77.8175 83.1214 77.8168 83.2063 77.7934C83.2912 77.7701 83.3686 77.725 83.4308 77.6626C83.4931 77.6002 83.538 77.5227 83.5613 77.4375C83.5846 77.3524 83.5853 77.2627 83.5635 77.1772C82.9266 73.9751 82.3097 70.7692 81.6746 67.5666C81.4482 66.4241 81.2203 65.2817 80.9908 64.1395C80.8634 63.5055 79.8965 63.7737 80.0236 64.4067L80.0229 64.4065Z" fill="#4A3E42"/>
<path d="M64.0417 61.5139C63.9359 65.4245 64.0068 69.3448 64.0181 73.2564C64.0199 73.8301 64.0229 74.4041 64.0229 74.9778C64.0229 75.6249 65.0259 75.6261 65.0259 74.9778C65.0259 71.3194 65.0008 67.6619 65.0174 64.0025C65.0211 63.1729 65.0224 62.3433 65.0447 61.5137C65.0622 60.8663 64.0592 60.8668 64.0417 61.5137V61.5139Z" fill="#4A3E42"/>
<path d="M51.4877 36.7049C50.6196 36.2371 49.7896 35.6898 48.9613 35.1555C48.0697 34.5798 47.1732 34.0021 46.3217 33.3678L46.2251 33.2952C46.1958 33.273 46.2906 33.3487 46.2138 33.2864C46.1637 33.2454 46.1135 33.2029 46.0649 33.1607C46.0512 33.1462 46.0367 33.1324 46.0215 33.1194C45.9618 33.0812 46.0511 33.0976 46.027 33.1323C46.0584 33.0868 46.0669 33.2021 46.0544 33.1659C46.0636 33.1931 45.9791 33.719 46.0067 33.7105C46.0343 33.7019 46.0483 33.6557 46.0749 33.6446C46.1419 33.6172 45.9939 33.6982 46.095 33.6283C46.1288 33.6049 46.1619 33.5813 46.1953 33.5586C46.2833 33.5001 46.3741 33.4455 46.4653 33.3922C46.7021 33.2537 46.9455 33.1265 47.19 33.0023C48.5614 32.3051 49.9769 31.695 51.3801 31.0665C52.2756 30.6642 53.174 30.269 54.0496 29.8256C54.6191 29.5372 55.1683 29.2018 55.744 28.9271L55.0579 28.7468C56.8684 32.0414 58.8945 35.2264 60.9301 38.3848C61.4433 39.1813 61.9623 39.9737 62.487 40.7621L63.055 40.0234C61.892 39.856 60.7455 39.7399 59.5906 39.5337C57.941 39.2419 56.3221 38.7965 54.755 38.2033C53.6355 37.7734 52.5442 37.273 51.4877 36.7049C50.918 36.4012 50.4094 37.2688 50.9814 37.5733C52.7776 38.5422 54.6712 39.3175 56.6304 39.8862C58.0725 40.285 59.5414 40.579 61.0256 40.7661C61.6209 40.846 62.2744 40.9212 62.7877 40.9951C63.1761 41.0509 63.6249 40.662 63.3539 40.2565C61.2521 37.1111 59.2369 33.9077 57.3084 30.6461C56.8363 29.8499 56.3706 29.0495 55.9248 28.2382C55.8555 28.1254 55.7455 28.0436 55.6177 28.01C55.4899 27.9764 55.3541 27.9935 55.2385 28.0577C54.7237 28.3033 54.2324 28.6035 53.7249 28.8642C52.8917 29.2916 52.0376 29.6752 51.1835 30.0586C49.679 30.7346 48.1564 31.3853 46.6845 32.1334C46.1328 32.413 44.5052 33.1109 45.3806 33.8933C46.1616 34.5324 46.9884 35.1131 47.8543 35.6309C48.8766 36.3014 49.9034 36.99 50.9802 37.5705C51.5499 37.8792 52.0572 37.0114 51.4877 36.7049Z" fill="#4A3E42"/>
<path d="M75.5636 37.5723C76.4914 37.0625 77.3801 36.4767 78.2677 35.9018C79.1923 35.3029 80.1326 34.7081 81.0009 34.0271C81.2785 33.8091 81.5834 33.5082 81.3487 33.1273C81.1278 32.7683 80.6353 32.5448 80.2798 32.3525C78.8893 31.6008 77.4237 30.9823 75.9823 30.3372C75.0475 29.9187 74.1075 29.5076 73.1905 29.0518C72.556 28.7356 71.9465 28.3635 71.3073 28.0583C71.192 27.9929 71.0557 27.9752 70.9276 28.0089C70.7994 28.0426 70.6894 28.1251 70.621 28.2388C69.0761 31.543 67.214 34.7116 65.3396 37.8361C64.8704 38.6184 64.3939 39.3965 63.9103 40.1703C63.7247 40.466 63.9605 40.9748 64.3434 40.9268C65.5984 40.7687 66.8599 40.6503 68.1047 40.4182C69.5731 40.1376 71.0077 39.7011 72.384 39.1162C73.4696 38.6559 74.5311 38.1406 75.5646 37.5723C76.1318 37.2631 75.626 36.3945 75.0583 36.704C73.4797 37.5937 71.8178 38.3258 70.0964 38.8897C68.8847 39.2582 67.6434 39.5209 66.3865 39.6748C65.7062 39.7623 65.0244 39.8355 64.3439 39.9212L64.7769 40.6777C66.7077 37.5972 68.5462 34.4459 70.2433 31.2287C70.6751 30.4101 71.0959 29.585 71.4878 28.7464L70.8018 28.9266C71.2727 29.1514 71.7223 29.4257 72.1857 29.666C72.9756 30.0755 73.784 30.4453 74.5949 30.8099C76.0385 31.4595 77.4929 32.089 78.9159 32.7834C79.4037 33.0075 79.8767 33.2624 80.3322 33.5466C80.3726 33.573 80.4119 33.6009 80.4515 33.6284C80.5333 33.6849 80.4445 33.6266 80.4598 33.6346C80.4751 33.6427 80.5065 33.692 80.5228 33.6925C80.5323 33.6925 80.5388 33.7176 80.5478 33.7194C80.5428 33.7194 80.4977 33.1411 80.4874 33.1738C80.5177 33.0803 80.5754 33.0821 80.4899 33.1529C80.4413 33.1932 80.3939 33.2347 80.3452 33.2746C80.2755 33.3319 80.4152 33.2221 80.3362 33.2817C80.3046 33.3055 80.273 33.3297 80.2412 33.3533C80.1623 33.4121 80.0826 33.4701 80.0022 33.5273C79.8068 33.6673 79.6093 33.8038 79.4109 33.9401C78.9358 34.2652 78.4566 34.5842 77.9733 34.8969C77.0175 35.5194 76.0588 36.1539 75.0588 36.704C74.4904 37.0152 74.9966 37.8838 75.5636 37.5723Z" fill="#4A3E42"/>
<path d="M68.3678 38.274C69.9642 37.7769 71.507 37.1206 72.9729 36.3151C74.4022 35.5618 75.7827 34.7189 77.1061 33.7913C77.6304 33.4222 77.1299 32.5498 76.5998 32.9229C75.3053 33.8305 73.9561 34.6569 72.5599 35.3975C71.1422 36.1827 69.6487 36.8215 68.1022 37.3041C67.4841 37.4856 67.7472 38.4565 68.3688 38.2738L68.3678 38.274Z" fill="#4A3E42"/>
<path d="M59.08 37.6025C57.4321 36.9413 55.822 36.1889 54.2573 35.3487C52.826 34.6144 51.4486 33.779 50.1356 32.8487C50.0205 32.7824 49.884 32.7641 49.7556 32.7978C49.6272 32.8315 49.5171 32.9146 49.4493 33.029C49.3851 33.1449 49.368 33.2811 49.4016 33.4093C49.4351 33.5375 49.5167 33.6477 49.6293 33.7171C50.9706 34.667 52.3784 35.5185 53.842 36.265C55.4559 37.1243 57.1155 37.8945 58.8132 38.5722C58.9415 38.6067 59.0783 38.5891 59.1938 38.5232C59.3092 38.4573 59.3941 38.3485 59.4301 38.2202C59.4623 38.0916 59.4437 37.9556 59.3783 37.8403C59.3129 37.7251 59.2057 37.6397 59.079 37.6018L59.08 37.6025Z" fill="#4A3E42"/>
<path d="M79.8367 38.9135C79.4241 39.7044 79.0801 40.5295 78.8086 41.3795C78.4959 42.1897 78.2367 43.0196 78.0327 43.8639C77.8585 44.8042 77.7367 45.7536 77.6679 46.7075C77.5345 48.0331 77.4129 49.36 77.2667 50.6844C77.0892 52.2967 76.8667 53.9046 76.6491 55.5114C76.6183 55.6399 76.6375 55.7753 76.7027 55.8901C76.7679 56.005 76.8742 56.0907 77.0001 56.1298C77.1285 56.1644 77.2653 56.1468 77.3808 56.0809C77.4963 56.015 77.5813 55.9061 77.6172 55.7778C77.9934 52.9981 78.3269 50.2188 78.6 47.427C78.6982 46.4232 78.777 45.4103 78.9467 44.4152C79.1064 43.6283 79.3297 42.8558 79.6145 42.1053C79.8948 41.1785 80.2593 40.2794 80.7035 39.4193C81.0245 38.8567 80.1581 38.3494 79.8377 38.912L79.8367 38.9135Z" fill="#4A3E42"/>
<path d="M47.8142 39.6447C48.1889 40.3707 48.4943 41.1307 48.7262 41.9144C49.0054 42.6793 49.2317 43.4627 49.4032 44.259C49.5679 45.1278 49.6381 46.0168 49.7257 46.8957C49.851 48.159 49.9686 49.423 50.1076 50.6848C50.2753 52.2063 50.4882 53.7225 50.6888 55.24C50.693 55.372 50.7471 55.4975 50.8403 55.5909C50.9335 55.6843 51.0586 55.7386 51.1903 55.7428C51.4335 55.7428 51.7277 55.511 51.6918 55.24C51.3373 52.5573 51.0257 49.8719 50.757 47.1838C50.6602 46.1995 50.5715 45.2105 50.4125 44.2341C50.2668 43.461 50.0612 42.7004 49.7976 41.9594C49.5189 40.9838 49.1446 40.0382 48.6803 39.1364C48.3603 38.5745 47.4935 39.0806 47.8142 39.644V39.6447Z" fill="#4A3E42"/>
<path d="M76.1652 16.4325C76.5612 14.7801 76.6393 13.0671 76.3951 11.3853C76.1568 9.73428 75.6693 8.12922 74.9493 6.62527C74.3004 5.28449 73.3936 4.08553 72.281 3.09735C71.3844 2.25726 70.3603 1.56555 69.2469 1.04816C68.0239 0.532724 66.7269 0.215843 65.4046 0.109428C63.6845 -0.0845775 61.9456 -0.0292884 60.2413 0.273594C57.3729 0.829445 54.567 2.24484 52.7633 4.59419C51.6978 6.02029 50.9421 7.65431 50.5448 9.39102C50.1475 11.1277 50.1173 12.9286 50.4564 14.6777C50.58 15.3122 51.5469 15.0437 51.4235 14.4105C50.8787 11.4885 51.4532 8.46794 53.0324 5.95202C54.4867 3.65646 56.8215 2.22347 59.4015 1.50396C60.9856 1.09082 62.6251 0.932723 64.2586 1.03559C65.5699 1.06429 66.8703 1.2811 68.1202 1.67944C69.1426 2.03941 70.0945 2.57538 70.9332 3.26327C71.9581 4.05195 72.8366 5.01516 73.5287 6.10889C74.4042 7.60586 75.007 9.24702 75.3091 10.9557C75.6411 12.6807 75.6032 14.4568 75.1978 16.166C75.0503 16.7945 76.0172 17.0643 76.1649 16.4335L76.1652 16.4325Z" fill="#4A3E42"/>
<path d="M89.2773 56.2225C92.4303 56.2225 95.5834 56.2191 98.7365 56.2122C99.3291 56.2122 99.9218 56.2117 100.515 56.2107C101.16 56.2107 101.161 55.2051 100.515 55.2051C97.6518 55.2051 94.789 55.2085 91.926 55.2154C91.0432 55.2154 90.1603 55.2159 89.2773 55.2169C88.6321 55.2169 88.6309 56.2225 89.2773 56.2225Z" fill="#4A3E42"/>
<path d="M28.4845 56.2225C31.5293 56.2225 34.5741 56.2191 37.6189 56.2122C38.1962 56.2122 38.7733 56.2117 39.3504 56.2107C39.9958 56.2107 39.9968 55.2051 39.3504 55.2051C36.5959 55.2051 33.8413 55.2085 31.0865 55.2154C30.2193 55.2154 29.3519 55.2159 28.4845 55.2169C27.839 55.2169 27.838 56.2225 28.4845 56.2225Z" fill="#4A3E42"/>
<path d="M54.2109 56.2413C56.9817 56.2413 59.7525 56.2401 62.5234 56.2377C65.8731 56.2357 69.223 56.2339 72.5731 56.2322C73.9811 56.2322 75.3892 56.2317 76.7973 56.2307C77.4425 56.2307 77.4437 55.2251 76.7973 55.2251C73.9733 55.2251 71.1493 55.2263 68.3253 55.2286C64.9903 55.2306 61.6552 55.2325 58.3202 55.2341C56.9503 55.2341 55.5806 55.2347 54.2111 55.2357C53.5657 55.2357 53.5642 56.2413 54.2109 56.2413Z" fill="#4A3E42"/>
<path d="M43.8936 51.343C43.724 51.4184 43.8391 51.3656 43.884 51.351C43.9189 51.3399 43.9542 51.3304 43.9898 51.3221C44.0325 51.3123 44.0756 51.3045 44.1187 51.2969C44.1568 51.2904 44.2263 51.2919 44.0731 51.3025C44.0949 51.301 44.1165 51.2974 44.1383 51.2952C44.3309 51.277 44.5246 51.2734 44.7178 51.2846C44.8146 51.2897 44.9111 51.2992 45.0077 51.3098C45.0969 51.3191 44.9106 51.2944 44.9733 51.305C44.9964 51.3088 45.0194 51.3118 45.0425 51.3156C45.0876 51.3228 45.1325 51.3311 45.1772 51.3407C45.2637 51.3585 45.3499 51.3794 45.4342 51.4058C45.4703 51.4171 45.5056 51.4309 45.5413 51.443C45.6205 51.4719 45.5024 51.4221 45.4891 51.4206C45.5079 51.4264 45.5257 51.4349 45.542 51.4458C45.5989 51.4791 45.6617 51.5008 45.727 51.5098C45.7922 51.5188 45.8586 51.5147 45.9223 51.498C45.986 51.4812 46.0458 51.452 46.0983 51.4121C46.1507 51.3722 46.1948 51.3223 46.2281 51.2653C46.2613 51.2083 46.283 51.1452 46.2919 51.0798C46.3009 51.0144 46.2969 50.9478 46.2801 50.884C46.2634 50.8201 46.2343 50.7602 46.1945 50.7076C46.1547 50.655 46.1049 50.6107 46.048 50.5774C45.6304 50.3869 45.1778 50.2855 44.719 50.2795C44.2663 50.238 43.8103 50.3051 43.3885 50.4751C43.274 50.5427 43.1908 50.653 43.1571 50.7818C43.1234 50.9107 43.1419 51.0477 43.2085 51.1629C43.2783 51.2752 43.3882 51.3565 43.5158 51.39C43.6435 51.4236 43.7791 51.4069 43.8948 51.3435L43.8936 51.343Z" fill="#4A3E42"/>
<path d="M81.2575 51.6966C81.3216 51.6534 81.388 51.6137 81.4565 51.5779C81.4913 51.5595 81.5266 51.5421 81.5624 51.5257C81.5827 51.5161 81.6035 51.5073 81.6238 51.4977C81.6802 51.4714 81.521 51.5392 81.5799 51.5161C81.7484 51.4491 81.9205 51.3917 82.0955 51.3441C82.2627 51.2991 82.432 51.2657 82.603 51.2376C82.6727 51.226 82.5586 51.2423 82.5476 51.2446C82.5676 51.2403 82.59 51.2393 82.6108 51.237C82.6474 51.233 82.684 51.2295 82.7206 51.2267C82.7938 51.2215 82.8673 51.2189 82.9408 51.2205C83.0734 51.2192 83.2002 51.1658 83.294 51.0718C83.3878 50.9778 83.441 50.8506 83.4423 50.7176C83.4397 50.5851 83.386 50.4587 83.2925 50.365C83.199 50.2712 83.073 50.2174 82.9408 50.2148C82.5645 50.216 82.1902 50.2696 81.8287 50.3742C81.4469 50.4655 81.0827 50.6189 80.7504 50.8283C80.6356 50.8956 80.5521 51.0059 80.5184 51.1349C80.4846 51.2639 80.5034 51.4011 80.5705 51.5162C80.6376 51.6314 80.7477 51.7151 80.8763 51.7489C81.005 51.7827 81.1418 51.7639 81.2567 51.6966H81.2575Z" fill="#4A3E42"/>
<path d="M81.6608 77.4303C81.7676 78.0538 81.8865 78.6755 81.9843 79.3002L82.6014 78.6818C80.1085 78.3184 77.5944 78.1196 75.0755 78.0867C72.5691 78.0164 70.0608 78.1194 67.5685 78.3949C66.4428 78.5102 65.3285 78.7188 64.2372 79.0186H64.504C61.8485 78.2021 59.0436 77.8725 56.2773 77.742C53.6821 77.6084 51.0803 77.6906 48.4986 77.9876C47.432 78.0959 46.3755 78.2884 45.3391 78.5633L45.9562 79.182C46.2015 78.3949 46.4474 77.6078 46.7067 76.8251C46.9108 76.2095 45.9424 75.9452 45.7396 76.5579C45.4803 77.3403 45.2343 78.1274 44.9891 78.9146C44.9668 79.0001 44.9672 79.09 44.9903 79.1754C45.0134 79.2607 45.0584 79.3385 45.1207 79.401C45.1831 79.4635 45.2607 79.5086 45.3458 79.5318C45.4309 79.5549 45.5206 79.5553 45.6059 79.533C47.4753 78.9998 49.4675 78.8497 51.4006 78.7537C54.042 78.6141 56.6904 78.6943 59.3186 78.9932C60.6126 79.1395 61.8955 79.3708 63.1592 79.6856C63.4389 79.7565 63.717 79.8328 63.9935 79.9144C64.1543 79.9829 64.3302 80.0083 64.5037 79.988C64.6211 79.9629 64.7379 79.9209 64.8548 79.8902C65.3142 79.7698 65.7803 79.6743 66.2482 79.5931C68.6894 79.212 71.1584 79.04 73.6287 79.0787C76.5416 79.0486 79.4526 79.24 82.3366 79.6512C82.4218 79.672 82.5108 79.6704 82.5952 79.6467C82.6796 79.623 82.7565 79.5779 82.8184 79.5158C82.8804 79.4537 82.9254 79.3766 82.949 79.292C82.9727 79.2074 82.9742 79.1181 82.9535 79.0327C82.8552 78.4077 82.7368 77.7863 82.6302 77.1628C82.5941 77.0346 82.5091 76.9259 82.3936 76.86C82.2782 76.7941 82.1415 76.7765 82.0131 76.8108C81.8864 76.8487 81.7791 76.9341 81.7137 77.0494C81.6483 77.1646 81.6298 77.3007 81.6621 77.4293L81.6608 77.4303Z" fill="#4A3E42"/>
<path d="M68.6376 32.628C68.4405 32.6508 68.2469 32.6974 68.0609 32.7668C67.8392 32.8241 67.6166 32.877 67.3931 32.9254C66.9675 33.0179 66.5388 33.0943 66.107 33.1547C65.2229 33.2739 64.3313 33.3288 63.4392 33.3188C61.6989 33.3048 59.9689 33.0487 58.2988 32.5578C57.6782 32.3756 57.4129 33.3457 58.032 33.5278C59.7524 34.0306 61.5328 34.2981 63.3246 34.3229C64.2389 34.3363 65.1528 34.2842 66.0596 34.1668C66.5014 34.1098 66.9418 34.0411 67.3788 33.9534C67.6033 33.9086 67.8268 33.8594 68.0494 33.8058C68.1605 33.779 68.2714 33.751 68.3819 33.7218C68.4692 33.6997 68.5545 33.6702 68.6369 33.6336C69.2823 33.6336 69.2833 32.628 68.6369 32.628H68.6376Z" fill="#4A3E42"/>
<path d="M74.5201 17.2137C75.0063 16.804 75.8603 16.9093 76.1462 17.5094C76.2788 17.8676 76.3326 18.2504 76.3039 18.6314C76.3045 19.0284 76.2643 19.4243 76.1838 19.813C76.0342 20.5899 75.7216 21.3261 75.2668 21.9728C75.0958 22.2537 74.8458 22.4778 74.5481 22.6166C74.1916 22.7035 73.8283 22.7589 73.4621 22.7823C73.3341 22.8183 73.2255 22.9035 73.1598 23.0193C73.094 23.1352 73.0765 23.2723 73.1111 23.401C73.1492 23.5279 73.2345 23.6352 73.3493 23.7007C73.4641 23.7662 73.5997 23.7849 73.7279 23.753C74.1933 23.6868 74.6645 23.6798 75.0978 23.4764C75.5485 23.2156 75.9252 22.8435 76.1918 22.3954C76.78 21.4967 77.1455 20.4701 77.2578 19.4012C77.3699 18.4521 77.395 17.2112 76.6334 16.5101C76.2448 16.1634 75.7431 15.9713 75.223 15.9697C74.7028 15.9682 74.2001 16.1574 73.8094 16.5018C73.3147 16.9188 74.0273 17.627 74.5186 17.2127L74.5201 17.2137Z" fill="#4A3E42"/>
<path d="M73.275 21.8814C73.2472 22.3516 73.1597 22.8162 73.0145 23.2641C72.9643 23.4303 72.9101 23.5952 72.8552 23.7599C72.8384 23.8102 72.8216 23.8592 72.8051 23.9087C72.7885 23.9582 72.7512 24.0379 72.7935 23.9406C72.5865 24.4005 72.3476 24.8452 72.0786 25.2716C71.3199 26.5532 70.3526 27.6985 69.2168 28.66C68.5961 29.1896 67.8631 29.5705 67.0736 29.7734C66.4452 29.9195 66.7113 30.8894 67.3404 30.7431C68.9643 30.366 70.3126 29.1764 71.3723 27.9395C72.2822 26.9116 73.0421 25.7594 73.6291 24.5174C74.0101 23.6882 74.2304 22.794 74.2785 21.8824C74.3016 21.2353 73.2986 21.2363 73.2755 21.8824L73.275 21.8814Z" fill="#4A3E42"/>
<path d="M52.8287 16.1451C52.4381 15.8006 51.9353 15.6113 51.4151 15.6128C50.8949 15.6143 50.3932 15.8065 50.0045 16.1531C49.2021 16.8925 49.2675 18.2312 49.4027 19.2202C49.5397 20.3189 49.9539 21.3645 50.6063 22.2579C51.2332 23.0813 52.1507 23.7216 53.2244 23.4938C53.8556 23.3601 53.5885 22.3904 52.9576 22.5242C52.3157 22.6602 51.7201 22.0927 51.3713 21.6158C50.9069 20.9529 50.5905 20.1974 50.4436 19.4007C50.3669 19.0117 50.3304 18.6157 50.3347 18.2191C50.311 17.8563 50.3646 17.4926 50.4919 17.1522C50.7781 16.5518 51.6319 16.4468 52.1181 16.8565C52.6091 17.2706 53.3217 16.5627 52.8275 16.1456L52.8287 16.1451Z" fill="#4A3E42"/>
<path d="M52.2613 20.5599C52.4271 22.1903 52.8515 23.7837 53.5183 25.28C54.4286 27.1958 55.8499 28.8217 57.6249 29.9777C58.5333 30.5797 59.559 30.9812 60.6339 31.1555C60.7621 31.1867 60.8974 31.1677 61.012 31.1022C61.1267 31.0368 61.2121 30.93 61.2508 30.8036C61.2851 30.6749 61.2675 30.5379 61.2018 30.4221C61.1361 30.3064 61.0276 30.2212 60.8997 30.1851C59.0765 29.9118 57.5291 28.859 56.2799 27.5401C55.008 26.183 54.1057 24.5208 53.6595 22.7132C53.4815 22.0048 53.349 21.2858 53.2628 20.5604C53.2588 20.4283 53.2047 20.3027 53.1115 20.2093C53.0183 20.1158 52.893 20.0616 52.7613 20.0576C52.6285 20.0584 52.5014 20.1116 52.4075 20.2058C52.3136 20.2999 52.2606 20.4273 52.2598 20.5604L52.2613 20.5599Z" fill="#4A3E42"/>
<path d="M69.307 12.2024C69.6902 12.3496 70.048 12.556 70.3675 12.8141C70.8284 13.1792 71.2419 13.6008 71.5984 14.0689C72.4239 15.1153 72.9204 16.3841 73.0247 17.7142C73.0646 18.357 74.0678 18.3615 74.0277 17.7142C73.9151 16.1474 73.333 14.6512 72.3577 13.4217C71.642 12.4976 70.701 11.6116 69.5743 11.2328C68.961 11.0261 68.6967 11.997 69.3078 12.2024H69.307Z" fill="#4A3E42"/>
<path d="M76.0063 21.9658C78.2466 22.532 79.6478 24.5892 79.8336 26.8287C79.8642 27.198 79.9113 27.7604 79.7293 28.0407C79.6917 28.0985 79.7293 28.0548 79.647 28.1005C79.5636 28.1461 79.4758 28.1831 79.385 28.2111C79.1465 28.287 78.9009 28.3384 78.652 28.3647C78.2026 28.4361 77.7431 28.4111 77.304 28.2913C76.761 28.1116 76.2469 27.854 75.7776 27.5266C74.5394 26.661 74.0447 25.3286 73.7796 23.8888C73.6625 23.2532 72.6959 23.5225 72.8125 24.1563C73.0938 25.6845 73.6555 27.1155 74.8937 28.1098C75.892 28.9118 77.1096 29.4686 78.4043 29.3907C79.0139 29.354 79.7401 29.265 80.2561 28.904C80.7268 28.5757 80.8348 27.9834 80.8542 27.4439C80.8875 26.2004 80.5865 24.9709 79.9828 23.8842C79.5901 23.177 79.059 22.5566 78.4213 22.0603C77.7835 21.5639 77.0524 21.2019 76.2716 20.9959C75.6447 20.8377 75.3784 21.8074 76.0051 21.9658H76.0063Z" fill="#4A3E42"/>
<path d="M50.5349 20.9559C47.9797 21.8496 46.4589 24.3267 46.3762 26.9782C46.3609 27.4737 46.3922 28.049 46.6909 28.4655C47.0201 28.9243 47.6708 29.0764 48.1976 29.1579C48.7799 29.2661 49.3769 29.2681 49.9599 29.1639C51.2943 28.8109 52.4732 28.022 53.3103 26.9219C53.7545 26.2569 54.0726 25.5154 54.2486 24.7347C54.4226 24.1105 53.4552 23.844 53.2814 24.4672C53.1498 25.0489 52.9335 25.608 52.6395 26.1265C52.3612 26.5643 52.007 26.9486 51.5936 27.2613C51.1618 27.5869 50.6854 27.8484 50.1791 28.0376C49.7742 28.1943 49.3395 28.2584 48.9068 28.2252C48.4491 28.2293 47.9964 28.1306 47.5818 27.9363C47.5005 27.8908 47.487 27.8936 47.4441 27.7432C47.393 27.5431 47.3703 27.3368 47.3767 27.1303C47.3734 26.17 47.5998 25.2229 48.0369 24.3684C48.6185 23.2338 49.6058 22.3611 50.8015 21.9248C51.407 21.7129 51.1465 20.7409 50.5349 20.9549V20.9559Z" fill="#4A3E42"/>
<path d="M62.3663 66.7391C62.0186 66.4972 61.623 66.3334 61.2064 66.2588C60.7898 66.1842 60.362 66.2006 59.9523 66.3069C59.8241 66.3423 59.7151 66.4274 59.6494 66.5434C59.5837 66.6594 59.5667 66.7968 59.602 66.9254C59.6374 67.0539 59.7222 67.1632 59.8379 67.2291C59.9536 67.2949 60.0906 67.312 60.2189 67.2766C60.2612 67.2658 60.3036 67.2555 60.3465 67.2467C60.3756 67.2406 60.4536 67.2416 60.4756 67.224C60.3964 67.2343 60.3845 67.2362 60.44 67.2298C60.4616 67.2275 60.4834 67.2255 60.5052 67.224C60.5489 67.2208 60.5925 67.2185 60.6361 67.2177C60.7127 67.2161 60.7891 67.218 60.8653 67.2235C60.9081 67.2336 60.952 67.238 60.996 67.2366C60.9167 67.2257 60.9047 67.2245 60.9598 67.2331C60.9814 67.2366 61.003 67.2406 61.0245 67.2446C61.1103 67.2615 61.1952 67.2828 61.2788 67.3085C61.3164 67.3201 61.4842 67.3553 61.4947 67.3864C61.4252 67.3568 61.4155 67.353 61.4649 67.3751C61.4847 67.3844 61.5045 67.3937 61.524 67.4035C61.5632 67.4228 61.6018 67.4433 61.6399 67.4651C61.7157 67.5086 61.7892 67.5561 61.8601 67.6074C61.975 67.6742 62.1117 67.6927 62.2402 67.659C62.3688 67.6252 62.4788 67.5419 62.5464 67.4272C62.61 67.3112 62.6268 67.1751 62.5933 67.0471C62.5598 66.9191 62.4785 66.8088 62.3663 66.7391Z" fill="#4A3E42"/>
<path d="M61.659 72.2892C58.2262 71.477 54.4709 71.2836 51.0296 72.1469C50.4027 72.3038 50.6687 73.274 51.2961 73.1166C54.5617 72.297 58.1354 72.4881 61.3925 73.2589C62.0194 73.4075 62.2882 72.4381 61.659 72.2892Z" fill="#4A3E42"/>
<path d="M61.7909 69.6555C60.5141 69.027 58.98 68.903 57.5815 68.8276C55.851 68.7233 54.1142 68.8182 52.4052 69.1104C52.2774 69.1467 52.169 69.232 52.1033 69.3477C52.0376 69.4635 52.02 69.6005 52.0542 69.7291C52.0919 69.8563 52.1772 69.9638 52.2922 70.0294C52.4072 70.095 52.543 70.1135 52.6713 70.0811C54.2616 69.8161 55.8765 69.7313 57.4857 69.8284C58.7194 69.8903 60.2052 69.9939 61.2827 70.5238C61.8594 70.8077 62.3692 69.9408 61.7889 69.6555H61.7909Z" fill="#4A3E42"/>
<path d="M67.6744 11.0185C66.785 11.9465 65.8308 12.769 64.565 13.0896C63.5846 13.3375 62.5924 13.5582 61.5949 13.7269C61.4843 13.7455 61.3734 13.7633 61.2624 13.7794C61.2277 13.7845 61.1814 13.7915 61.0683 13.8023C61.0068 13.8081 60.9454 13.8139 60.8837 13.8151C60.7751 13.8176 60.712 13.8026 60.8265 13.8214C60.4735 13.7942 60.1227 13.8977 59.8406 14.1123C58.8376 14.7043 57.8569 15.2687 56.6891 15.4623C56.2839 15.5227 55.8734 15.5395 55.4647 15.5126C54.9963 15.4897 54.5241 15.501 54.1302 15.7891C53.8588 16.0108 53.6294 16.2796 53.4531 16.5828C53.3528 16.7359 53.1883 17.0605 52.9947 17.0773C52.3561 17.1306 52.3506 18.1367 52.9947 18.0829C53.7352 18.0211 54.0562 17.4635 54.4413 16.9064C54.501 16.7938 54.5879 16.698 54.6942 16.628C54.8005 16.558 54.9227 16.516 55.0494 16.5059C55.4679 16.4772 55.8882 16.5449 56.3095 16.5114C57.6635 16.4041 58.8827 15.8623 60.0334 15.1677C60.1886 15.0742 60.3423 14.9776 60.5011 14.8899C60.5648 14.853 60.6303 14.8195 60.6974 14.7893C60.5811 14.8396 60.8183 14.7974 60.659 14.8014C60.4401 14.8072 60.6841 14.8137 60.7711 14.8182C60.8315 14.8207 60.8919 14.8198 60.9522 14.8155C61.1806 14.8021 61.409 14.7652 61.6352 14.7312C62.6633 14.5731 63.6829 14.3416 64.6914 14.0922C65.2013 13.9757 65.694 13.7937 66.1573 13.5507C66.9888 13.0614 67.7401 12.4465 68.3848 11.7277C68.8321 11.2611 68.124 10.5489 67.6754 11.0165L67.6744 11.0185Z" fill="#4A3E42"/>
<path d="M57.017 13.312C56.9821 13.244 56.9649 13.1682 56.967 13.0918C56.9691 13.0153 56.9904 12.9406 57.029 12.8746C57.0944 12.8067 57.1769 12.7577 57.2677 12.7331L58.1955 12.3896C58.9025 13.2385 59.4937 14.1778 59.9536 15.183C59.4014 15.5744 58.785 15.8655 58.1323 16.043L57.0493 13.3965C57.0383 13.3694 57.027 13.341 57.017 13.312Z" fill="#4A3E42"/>
<path d="M57.5018 13.1786C57.4915 13.1504 57.4827 13.1217 57.4755 13.0926C57.4677 13.0574 57.466 13.0539 57.4702 13.0823C57.4702 13.0823 57.3684 13.2316 57.3674 13.2369C57.3732 13.2065 57.573 13.155 57.6347 13.1323L58.3308 12.8749L57.8428 12.7457C58.5171 13.5653 59.0818 14.4696 59.5229 15.4357L59.7027 14.7478C59.1866 15.1142 58.611 15.388 58.0016 15.5571L58.6184 15.9091C58.2465 15.0008 57.8428 14.099 57.5023 13.1781C57.4641 13.0513 57.3788 12.9441 57.264 12.8786C57.1492 12.8131 57.0137 12.7943 56.8855 12.8261C56.7576 12.8623 56.6492 12.9475 56.5835 13.0632C56.5178 13.1789 56.5002 13.3159 56.5344 13.4446C56.8749 14.3655 57.2786 15.2672 57.6505 16.1756C57.6885 16.3024 57.7738 16.4098 57.8887 16.4753C58.0035 16.5409 58.1391 16.5595 58.2674 16.5275C58.9612 16.3367 59.6175 16.0287 60.2082 15.6169C60.3196 15.5465 60.4002 15.4363 60.4336 15.3085C60.467 15.1808 60.4508 15.0451 60.3882 14.9289C59.9046 13.8878 59.2872 12.9146 58.552 12.034C58.4902 11.9697 58.412 11.9237 58.326 11.9009C58.24 11.8782 58.1493 11.8795 58.064 11.9047C57.6904 12.0428 57.2967 12.1592 56.9369 12.3301C56.7415 12.4304 56.5913 12.6013 56.5166 12.8083C56.4419 13.0152 56.4483 13.2429 56.5344 13.4453C56.572 13.5725 56.6573 13.6801 56.7722 13.7457C56.8872 13.8113 57.023 13.8298 57.1513 13.7973C57.2789 13.7608 57.3871 13.6755 57.4527 13.5598C57.5182 13.4441 57.5359 13.3072 57.5018 13.1786Z" fill="#4A3E42"/>
<path d="M54.1857 59.7333C54.373 60.1265 57.3918 65.4089 57.9535 66.3645L58.3815 66.1938C57.6232 64.3186 52.6478 53.3426 51.474 50.9827C51.411 50.8562 51.3034 50.7575 51.1721 50.7057C51.0408 50.654 50.895 50.6528 50.7629 50.7024C50.6926 50.7275 50.6217 50.756 50.551 50.7831C50.4814 50.8097 50.418 50.8502 50.3647 50.9022C50.3113 50.9542 50.2691 51.0166 50.2407 51.0856C50.2122 51.1545 50.1981 51.2286 50.1993 51.3032C50.2004 51.3778 50.2168 51.4514 50.2473 51.5195C50.8351 52.8245 51.6034 54.5901 52.3469 55.9102C52.9738 57.0229 53.6638 58.564 54.1857 59.7333Z" fill="#4A3E42"/>
<path d="M53.7532 59.9864C54.1093 60.7215 54.5499 61.4242 54.9526 62.1342C55.5785 63.2371 56.2073 64.3384 56.839 65.4378C57.0647 65.8315 57.2904 66.2257 57.5211 66.6174C57.5775 66.7126 57.6633 66.7867 57.7656 66.8284C57.8678 66.8701 57.9809 66.8771 58.0875 66.8485L58.5156 66.678C58.744 66.5868 58.9767 66.3328 58.8666 66.0593C57.6881 63.1539 56.3368 60.3112 55.0379 57.4591C54.2904 55.8178 53.5362 54.1795 52.7751 52.5442C52.5243 52.0094 52.2735 51.475 52.0148 50.9445C51.7979 50.5 51.4656 50.1513 50.9308 50.1634C50.2394 50.1792 49.5784 50.7668 49.7206 51.4926C49.8229 51.8394 49.9627 52.174 50.1376 52.4904C50.2978 52.8479 50.4592 53.2049 50.6218 53.5613C50.9696 54.3196 51.3265 55.0745 51.7209 55.8094C52.4553 57.1775 53.1208 58.5678 53.754 59.9864C53.8218 60.1009 53.9319 60.1839 54.0603 60.2176C54.1887 60.2514 54.3252 60.2331 54.4403 60.1667C54.5527 60.0972 54.6341 59.9869 54.6676 59.8589C54.701 59.7308 54.684 59.5947 54.6201 59.4789C54.083 58.2751 53.5484 57.0654 52.9197 55.9064C52.2911 54.7475 51.7161 53.5684 51.175 52.3642C51.0491 52.0848 50.9237 51.8054 50.7989 51.526C50.7693 51.4604 50.6757 51.3344 50.7114 51.256C50.6968 51.2879 50.8869 51.1665 50.9305 51.169C51.085 51.178 51.1918 51.5408 51.2565 51.6718C51.5098 52.1967 51.758 52.7242 52.0037 53.2521C53.4887 56.4322 54.9442 59.6261 56.3704 62.8338C56.6979 63.5664 57.0232 64.3002 57.3463 65.0351C57.4648 65.3058 57.5827 65.577 57.6999 65.8489C57.7248 65.9069 57.7498 65.9649 57.7751 66.0231C57.7914 66.0608 57.8586 66.2217 57.7964 66.0734C57.8317 66.1572 57.8666 66.2417 57.9012 66.3271L58.2523 65.7084L57.8242 65.8791L58.3907 66.1101C57.2743 64.2095 56.1891 62.2888 55.1106 60.3668C54.9458 60.0734 54.7698 59.7823 54.6229 59.4791C54.341 58.8971 53.4757 59.4062 53.7568 59.9867L53.7532 59.9864Z" fill="#4A3E42"/>
<path d="M50.4404 55.8182C51.3124 55.7402 52.1912 55.8193 53.0354 56.0517C53.8827 56.319 54.4755 56.8633 55.0949 57.4729C55.6897 58.0584 56.3198 58.659 56.7042 59.4117C56.9986 59.988 56.9891 60.7877 56.3281 61.1095C55.7473 61.3918 56.2554 62.2594 56.8341 61.9778C57.1607 61.7936 57.4328 61.5259 57.6227 61.202C57.8126 60.8781 57.9135 60.5095 57.9151 60.1338C57.9206 59.3338 57.4387 58.6002 56.9622 58.0004C56.4801 57.4313 55.9659 56.8905 55.4221 56.3803C54.8199 55.7713 54.077 55.3206 53.2593 55.0685C52.342 54.8209 51.3889 54.7343 50.4421 54.8126C49.7999 54.8455 49.7959 55.8511 50.4421 55.8182H50.4404Z" fill="#4A3E42"/>
<path d="M48.0286 64.2727C48.4799 64.9204 49.014 65.5061 49.6171 66.0146C49.7134 66.1055 49.8395 66.1578 49.9717 66.1619C50.0709 66.1619 50.1678 66.1324 50.2503 66.0772C50.3327 66.0219 50.397 65.9434 50.4349 65.8515C50.4729 65.7597 50.4828 65.6586 50.4635 65.5611C50.4441 65.4636 50.3964 65.374 50.3263 65.3037C49.8425 64.9022 49.4064 64.4463 49.0266 63.9448L49.1048 64.0454C49.0335 63.9525 48.9634 63.8588 48.8947 63.7641C48.8252 63.6535 48.7184 63.5715 48.5938 63.533C48.4634 63.4981 48.3246 63.5162 48.2074 63.5833C48.0936 63.6516 48.0111 63.7619 47.9775 63.8904C47.9439 64.019 47.9619 64.1557 48.0276 64.2711L48.0286 64.2727Z" fill="#4A3E42"/>
<path d="M49.4717 62.5042C50.4312 63.7936 51.5032 64.9948 52.6751 66.0937C52.7704 66.1856 52.8975 66.2369 53.0298 66.2369C53.162 66.2369 53.2891 66.1856 53.3844 66.0937C53.4771 65.9987 53.529 65.8711 53.529 65.7383C53.529 65.6054 53.4771 65.4778 53.3844 65.3828C52.2711 64.3462 51.2516 63.2129 50.3378 61.9959C50.2678 61.8839 50.1578 61.8029 50.0303 61.7694C49.9027 61.7359 49.7673 61.7524 49.6515 61.8156C49.5373 61.8835 49.4544 61.9938 49.4208 62.1225C49.3871 62.2513 49.4054 62.3881 49.4717 62.5035V62.5042Z" fill="#4A3E42"/>
<path d="M51.315 60.8929C52.3412 62.4113 53.4771 63.8521 54.7137 65.2037C54.8083 65.2953 54.935 65.346 55.0665 65.3448C55.198 65.3437 55.3238 65.2908 55.4167 65.1976C55.5097 65.1044 55.5625 64.9783 55.5636 64.8464C55.5648 64.7146 55.5142 64.5876 55.4229 64.4927C54.243 63.2054 53.1594 61.8326 52.1811 60.3853C52.1117 60.2727 52.0017 60.1911 51.8739 60.1575C51.7462 60.1239 51.6104 60.1409 51.4948 60.2048C51.3809 60.273 51.2982 60.3833 51.2646 60.512C51.2309 60.6407 51.2491 60.7775 51.315 60.8929Z" fill="#4A3E42"/>
<path d="M50.44 54.8125C49.0917 54.8879 47.5443 55.0679 46.4204 55.888C45.9165 56.2794 45.4631 56.7319 45.0704 57.2353C44.5866 57.7936 44.1893 58.4217 43.8918 59.0984C43.7642 59.3671 43.692 59.6589 43.6797 59.9562C43.7021 60.2667 43.8023 60.5665 43.9711 60.8278C44.3123 61.4136 44.7484 61.9242 44.9771 62.5728C45.2504 63.3489 45.4264 64.1486 45.8156 64.8814C46.1719 65.5214 46.6508 66.0845 47.2248 66.5384C47.8678 67.0691 48.527 67.5727 49.3979 67.2396C50.1103 66.9671 50.6015 66.3039 50.4543 65.5253L49.616 66.0145C50.3006 66.6769 51.1532 67.2172 52.1487 66.9864C52.7464 66.8479 53.7016 66.3549 53.5105 65.6052L52.6735 66.0937C53.3911 66.6629 54.4368 67.0784 55.2848 66.5007C55.4653 66.3967 55.6168 66.2489 55.7255 66.0709C55.8343 65.8929 55.8967 65.6905 55.9072 65.482C55.8962 64.9968 55.5441 64.5966 55.2146 64.2796L54.7267 65.12C55.4054 65.3772 56.26 65.4136 56.7984 64.8435C56.9878 64.6482 57.1106 64.3977 57.149 64.128C57.1874 63.8584 57.1394 63.5834 57.012 63.3428C56.5178 62.3857 55.77 61.5629 55.2094 60.6435C54.7839 59.9043 54.4027 59.1404 54.0677 58.3558C53.9999 58.2414 53.8899 58.1583 53.7615 58.1245C53.6332 58.0908 53.4967 58.109 53.3816 58.1753C53.2691 58.2447 53.1875 58.355 53.154 58.4831C53.1205 58.6113 53.1375 58.7475 53.2016 58.8633C53.5265 59.6231 53.8936 60.3641 54.3011 61.0827C54.6166 61.6074 54.9739 62.1002 55.3242 62.6017C55.5178 62.8782 55.7106 63.1565 55.8949 63.4401C55.9641 63.5462 56.0333 63.6526 56.0955 63.7624C56.1206 63.8067 56.1474 63.8507 56.1687 63.8969C56.183 63.9278 56.1399 63.8766 56.1665 63.8929C56.1447 63.8796 56.165 64.0088 56.175 63.9273C56.1722 63.9495 56.1168 64.1126 56.1467 64.042C56.1188 64.1167 56.0641 64.1783 55.9932 64.2147C55.7048 64.3907 55.3009 64.2682 54.9927 64.1513C54.513 63.9696 54.1607 64.6607 54.5047 64.9918C54.6719 65.1271 54.8078 65.2972 54.9029 65.4903C54.9195 65.5436 54.8839 65.5406 54.914 65.4943C54.8466 65.5881 54.7561 65.6628 54.6514 65.711C54.2251 65.9049 53.7129 65.6464 53.3821 65.3842C53.0077 65.0871 52.4102 65.349 52.5438 65.8734C52.5329 65.8422 52.5298 65.8088 52.5348 65.7761C52.5398 65.7433 52.5528 65.7124 52.5727 65.6859C52.6073 65.6331 52.6098 65.6243 52.5797 65.6608C52.5557 65.6798 52.5335 65.7011 52.5135 65.7244C52.4159 65.7898 52.314 65.8486 52.2086 65.9004C52.0651 65.9745 51.908 66.0185 51.7469 66.0296C51.1614 66.0577 50.7239 65.6899 50.3257 65.3048C50.2463 65.2297 50.1449 65.1824 50.0366 65.1699C49.9282 65.1574 49.8187 65.1803 49.7244 65.2353C49.6302 65.2903 49.5562 65.3744 49.5135 65.4751C49.4708 65.5757 49.4617 65.6875 49.4877 65.7938C49.5531 66.1387 49.0112 66.372 48.7399 66.3431C48.5207 66.289 48.321 66.1747 48.1632 66.013C47.9148 65.821 47.677 65.6156 47.451 65.3975C47.0035 64.9566 46.6573 64.4231 46.4365 63.8343C46.2151 63.2561 46.0854 62.6462 45.8552 62.071C45.6016 61.5155 45.2955 60.9856 44.941 60.4887C44.6556 60.0422 44.6351 59.8896 44.8437 59.4076C45.3204 58.3855 46.0244 57.4864 46.9016 56.7795C47.8412 56.016 49.2793 55.8857 50.4403 55.8199C51.0822 55.7834 51.0862 54.7776 50.4403 54.8143L50.44 54.8125Z" fill="#4A3E42"/>
<path d="M71.615 59.0374C71.119 59.044 70.629 59.138 70.1333 59.1508C69.9189 59.1561 69.381 59.192 69.388 58.8665C69.392 58.6782 69.5004 58.6558 69.6576 58.5791C69.9695 58.4283 70.286 58.2845 70.6047 58.1475C71.2331 57.878 71.8702 57.6296 72.4994 57.3623C73.5418 56.9196 74.5781 56.3605 75.7396 56.368C76.6202 56.3384 77.4982 56.2569 78.3693 56.1242C78.7363 56.0714 79.1076 56.055 79.4778 56.0754C80.0005 56.1889 80.4841 56.4381 80.8803 56.7982C81.2568 57.0772 81.5759 57.4266 81.8199 57.8272C82.0834 58.272 82.2882 58.7492 82.429 59.2469C82.7081 60.2603 82.611 61.4818 81.925 62.3187C81.594 62.6935 81.2276 63.0352 80.8309 63.3392C80.4204 63.6781 80.027 64.0353 79.625 64.384C79.1912 64.7611 78.7512 65.1322 78.2935 65.4794C77.9821 65.7154 77.5764 66.0915 77.1709 66.1403C77.0588 66.1536 76.6506 66.1458 76.6107 66.0103C76.5766 65.8944 76.7878 65.7024 76.8575 65.6234C77.2572 65.1727 77.7173 64.778 78.1549 64.3664C78.6258 63.9219 77.9157 63.212 77.4455 63.6554C76.9712 64.072 76.5192 64.5134 76.0914 64.9778C75.6769 65.462 75.3838 66.1137 75.8572 66.6743C76.2499 67.1391 77.0325 67.2477 77.5904 67.073C78.0711 66.8829 78.5152 66.6107 78.9031 66.2685C79.9004 65.502 80.8277 64.651 81.7903 63.8422C82.273 63.4655 82.6891 63.01 83.0213 62.495C83.3492 61.9022 83.5363 61.2416 83.5679 60.5645C83.6624 59.2748 83.1416 57.8614 82.3663 56.8397C81.9529 56.3363 81.4541 55.9101 80.8929 55.5807C80.4024 55.2574 79.8318 55.0777 79.2451 55.0618C78.1983 55.0517 77.1742 55.3619 76.1293 55.3717C75.4964 55.3517 74.8639 55.421 74.2504 55.5776C73.5747 55.8015 72.9136 56.0677 72.2712 56.3746C71.4399 56.7359 70.5911 57.0564 69.7636 57.4257C69.0966 57.7234 68.3812 58.0198 68.3868 58.8725C68.3975 60.5901 70.5623 60.0571 71.6142 60.0433C72.2591 60.0347 72.2609 59.0291 71.6142 59.0377L71.615 59.0374Z" fill="#4A3E42"/>
<path d="M74.3643 60.0699C74.4774 59.9821 74.2575 60.1501 74.2206 60.1777C74.1302 60.2448 74.0393 60.3118 73.9481 60.3789C73.7474 60.5258 73.5458 60.6718 73.3432 60.8168C72.8994 61.1352 72.4542 61.4519 72.0077 61.7669C71.1202 62.3572 70.2684 62.9997 69.4568 63.6911C68.9761 64.125 69.6872 64.8345 70.1659 64.402C70.9433 63.7432 71.7589 63.131 72.6083 62.5686C73.4358 61.9823 74.2723 61.4033 75.0737 60.7809C75.1671 60.6862 75.2195 60.5585 75.2195 60.4254C75.2195 60.2922 75.1671 60.1645 75.0737 60.0699C74.978 59.9786 74.851 59.9277 74.719 59.9277C74.5869 59.9277 74.46 59.9786 74.3643 60.0699Z" fill="#4A3E42"/>
<path d="M77.8727 63.3095C77.7601 63.4013 77.5112 63.5775 77.3211 63.7067C77.0498 63.8913 76.7742 64.0698 76.4974 64.246C75.9688 64.5824 75.4352 64.9104 74.8965 65.2302C74.3779 65.5748 73.8377 65.8855 73.2792 66.1604C72.9473 66.3184 72.57 66.3526 72.2152 66.2567C71.8905 66.1476 72.0129 65.8741 72.1701 65.6458C72.4482 65.2415 71.8885 64.6653 71.4838 64.9577C71.2793 65.1168 71.038 65.2215 70.7823 65.262C70.5266 65.3026 70.2649 65.2776 70.0214 65.1895C70.0806 65.2169 70.0269 65.1968 70.0053 65.1737C69.9767 65.1494 69.9533 65.1197 69.9364 65.0862C69.9201 65.0104 69.9242 64.9316 69.9484 64.8579C70.0359 64.5831 70.1853 64.3321 70.385 64.1243C70.724 63.6911 70.312 63.0526 69.7771 63.3347C69.6593 63.397 69.8055 63.3374 69.7145 63.3623C69.6967 63.3673 69.5189 63.4061 69.6106 63.3937C69.515 63.4174 69.4144 63.4114 69.3223 63.3764C69.2894 63.3673 69.2591 63.3506 69.2338 63.3276C69.2086 63.3047 69.1891 63.2761 69.1768 63.2442C69.1437 63.1816 69.1264 63.1119 69.1264 63.041C69.1264 62.9702 69.1437 62.9004 69.1768 62.8379C69.3609 62.4741 69.7869 62.1591 70.0796 61.8866C70.2681 61.7119 70.4705 61.5517 70.6726 61.3931C71.6969 60.5886 72.7832 59.8648 73.807 59.0581C73.9003 58.9633 73.9526 58.8356 73.9526 58.7024C73.9526 58.5693 73.9003 58.4416 73.807 58.3468C73.7114 58.2555 73.5844 58.2046 73.4523 58.2046C73.3203 58.2046 73.1933 58.2555 73.0976 58.3468C73.0374 58.3944 73.1789 58.286 73.0743 58.3649L72.9707 58.4434C72.8644 58.523 72.7577 58.6021 72.6505 58.6807C72.4048 58.8614 72.1587 59.0415 71.9123 59.2212C71.3546 59.6292 70.797 60.0375 70.2498 60.4599C69.2764 61.2113 67.306 62.6091 68.467 63.9662C68.9156 64.4909 69.7077 64.5074 70.2847 64.203L69.6768 63.4133C69.3426 63.7708 69.0982 64.2032 68.9642 64.6744C68.9027 64.919 68.9157 65.1765 69.0015 65.4137C69.0873 65.6509 69.242 65.8568 69.4457 66.0051C70.1678 66.5048 71.3213 66.309 71.9913 65.8261L71.3052 65.1382C71.146 65.3462 71.0467 65.594 71.0184 65.8547C70.9901 66.1153 71.0338 66.3788 71.1448 66.6162C71.2751 66.8207 71.4536 66.9899 71.6646 67.1088C71.8755 67.2278 72.1124 67.293 72.3544 67.2985C73.3712 67.4074 74.1867 66.8053 75.0219 66.3226C76.2673 65.6499 77.4578 64.88 78.5826 64.02C78.6759 63.9252 78.7281 63.7975 78.7281 63.6644C78.7281 63.5313 78.6759 63.4035 78.5826 63.3088C78.4871 63.2173 78.36 63.1662 78.2279 63.1662C78.0958 63.1662 77.9688 63.2173 77.8732 63.3088L77.8727 63.3095Z" fill="#4A3E42"/>
<path d="M76.1901 61.6387C75.325 62.1784 74.4692 62.7335 73.6384 63.3256C72.8748 63.8243 72.1422 64.3694 71.4448 64.9577C70.9684 65.3956 71.6788 66.1053 72.1542 65.6687C72.4331 65.4228 72.7281 65.196 73.0374 64.9899C73.4346 64.7133 73.8222 64.4227 74.2159 64.1426C75.0238 63.5697 75.8551 63.0314 76.6951 62.5085C77.242 62.1674 76.739 61.297 76.1888 61.6402L76.1901 61.6387Z" fill="#4A3E42"/>
<path d="M61.1284 27.3101C61.7405 27.911 62.7097 28.0857 63.5312 28.0852C64.3526 28.0847 65.322 27.9113 65.9344 27.3101C66.3965 26.8576 65.6871 26.1459 65.2252 26.5992C65.2049 26.619 65.1016 26.707 65.1661 26.6557C65.2305 26.6045 65.1626 26.658 65.146 26.6686C65.1184 26.6864 65.0916 26.7053 65.0635 26.7224C65.0104 26.7551 64.9557 26.7852 64.9 26.8134C64.8627 26.8322 64.8248 26.8501 64.7862 26.8669C64.8544 26.8368 64.7937 26.8634 64.7578 26.8762C64.3643 27.0167 63.9489 27.0856 63.5312 27.0796C63.1211 27.0877 62.7129 27.0217 62.3263 26.8845C62.3178 26.8815 62.1758 26.8229 62.2761 26.8669C62.244 26.8528 62.2122 26.8378 62.1806 26.8224C62.1187 26.7918 62.058 26.7588 61.9993 26.7219C61.9547 26.6942 61.9133 26.6593 61.8682 26.6329C61.9965 26.7083 61.8752 26.6354 61.8378 26.5987C61.3764 26.1462 60.6665 26.8561 61.1287 27.3096L61.1284 27.3101Z" fill="#4A3E42"/>
<path d="M63.3993 22.7867C63.4955 23.1346 63.5724 23.4876 63.6298 23.8441L63.612 23.7106C63.6187 23.7589 63.62 23.8078 63.6157 23.8564L63.6338 23.7229C63.6304 23.7452 63.6251 23.7672 63.6177 23.7885L63.6679 23.6683C63.6615 23.6831 63.6537 23.6973 63.6446 23.7106L63.723 23.61C63.7129 23.6226 63.7014 23.6341 63.6887 23.6442L63.7902 23.5655C63.7634 23.5821 63.7354 23.5969 63.7065 23.6098L63.8264 23.5595C63.7812 23.5787 63.734 23.5925 63.6857 23.6007L63.8188 23.5826C63.7749 23.5879 63.7306 23.5879 63.6867 23.5826L63.8201 23.6007C63.7699 23.5937 63.7213 23.5816 63.6714 23.5756C63.5408 23.545 63.4035 23.5629 63.285 23.6258C63.1706 23.6931 63.0875 23.8029 63.0537 23.9315C63.0199 24.06 63.0382 24.1967 63.1047 24.3117C63.1366 24.3687 63.1797 24.4185 63.2314 24.4582C63.2831 24.498 63.3424 24.5267 63.4056 24.5427C63.5154 24.5575 63.6222 24.5857 63.7341 24.5907C63.9007 24.5917 64.0651 24.5527 64.2135 24.4768C64.3068 24.4348 64.3896 24.3724 64.4556 24.294C64.5217 24.2157 64.5693 24.1236 64.5952 24.0243C64.6288 23.8618 64.627 23.6939 64.5902 23.5321C64.5327 23.1914 64.454 22.8533 64.3667 22.5197C64.3492 22.456 64.3194 22.3964 64.2789 22.3443C64.2384 22.2922 64.1881 22.2486 64.1309 22.216C64.0736 22.1834 64.0104 22.1624 63.9451 22.1542C63.8797 22.1461 63.8134 22.1509 63.7499 22.1685C63.6864 22.186 63.6269 22.2159 63.575 22.2565C63.523 22.2971 63.4795 22.3475 63.447 22.405C63.4144 22.4624 63.3935 22.5257 63.3854 22.5912C63.3772 22.6567 63.3821 22.7232 63.3996 22.7869L63.3993 22.7867Z" fill="#4A3E42"/>
<path d="M57.815 19.9257C57.6395 20.4997 57.7535 21.8198 58.8381 21.9322C60.2714 21.9236 60.3476 20.3275 59.8661 19.577C59.4712 18.9626 58.3095 18.7069 57.815 19.9257Z" fill="#4A3E42"/>
<path d="M69.0478 19.9257C69.2234 20.4997 69.1093 21.8198 68.025 21.9322C66.5917 21.9236 66.5152 20.3275 66.9969 19.577C67.3929 18.9626 68.5536 18.7069 69.0478 19.9257Z" fill="#4A3E42"/>
</g>
<defs>
<clipPath id="clip0_1509_24630">
<rect width="73" height="80" fill="white" transform="translate(28)"/>
</clipPath>
</defs>
</svg>
