<svg width="100" height="80" viewBox="0 0 100 80" fill="none" xmlns="http://www.w3.org/2000/svg">
<mask id="mask0_1592_28826" style="mask-type:alpha" maskUnits="userSpaceOnUse" x="0" y="0" width="100" height="80">
<rect width="100" height="80" fill="#D9D9D9"/>
</mask>
<g mask="url(#mask0_1592_28826)">
<path d="M31.2828 38.6776C32.3457 36.7361 33.6964 34.8029 35.6233 33.6196L44.3956 33.9166C47.383 34.7983 50.5567 34.825 53.5583 33.9936L64.1588 34.6802C65.4266 37.1732 69.2679 42.5431 70.8687 46.0828C71.8842 48.3282 72.852 50.418 72.1066 52.7674C71.679 54.115 67.6207 56.727 66.597 57.4605C65.5242 56.2871 62.6475 54.3955 61.136 53.1585C62.1143 52.3615 63.3229 51.3327 64.2205 50.1294C64.2732 50.057 64.3055 49.9718 64.3141 49.8825C64.3227 49.7933 64.3072 49.7035 64.2692 49.6223C63.7948 48.5776 62.6728 46.7863 61.916 46.0947L61.8796 46.0613C61.726 47.6051 61.5542 49.5205 61.3102 51.294C61.1838 52.2113 61.0748 53.0848 60.9811 53.767C60.8031 53.767 60.6958 53.767 60.6958 53.767C56.5026 53.767 42.5249 53.7762 38.5268 53.7762C38.5268 53.7762 38.4623 53.7762 38.3499 53.7762C38.2562 53.0925 38.1467 52.2155 38.0208 51.294C37.7476 49.3078 37.5649 47.1436 37.397 45.5223C37.3196 45.6543 37.2763 45.728 37.2763 45.728C36.6127 46.876 36.0863 48.0985 35.708 49.37C35.3666 50.4455 37.4251 52.8398 38.0239 53.5496C36.8649 53.4337 35.6971 53.6543 34.6596 54.1852C34.0453 54.4806 32.2311 56.6817 32.2217 57.167C30.2529 56.5451 27.0951 52.5914 27.0532 50.4943C27.0157 48.6065 29.1839 42.5863 31.1639 38.8963C31.2033 38.8236 31.2429 38.7507 31.2828 38.6776Z" fill="white"/>
<path d="M47.5108 38.8569C46.554 37.3817 45.4288 35.6012 44.3984 33.917C47.3861 34.7988 50.5602 34.8248 53.5618 33.9922C52.2745 36.3093 50.8218 38.748 49.8008 40.3752L48.5574 40.4484C48.2452 39.9834 47.8908 39.4444 47.5108 38.8569Z" fill="white"/>
<path d="M35.7045 62.218C34.3578 66.6797 32.8679 72.1392 32.7598 72.4192C33.1526 72.2635 33.5571 72.1394 33.9696 72.0481L33.9464 72.1095C33.7838 72.5983 33.4751 73.5761 33.2894 74.1718C36.3193 73.2991 44.4619 72.908 49.8253 74.57C53.2872 73.5435 60.8936 73.5435 65.6623 74.2752C65.6011 73.8814 65.4565 73.0937 65.3793 72.6392L65.3492 72.4214C65.6456 72.4927 65.9287 72.5697 66.1964 72.6519C65.8199 70.7693 63.2696 57.591 62.9576 56.6132C60.7055 56.3017 54.9234 56.1934 49.9137 57.0778C48.4014 56.6494 46.8463 56.3908 45.2771 56.3065C43.1312 56.1912 39.7762 56.3868 37.6303 56.6215C37.2501 57.2812 36.5023 59.5745 35.7045 62.218Z" fill="white"/>
<path d="M46.4008 17.562C46.4636 17.5269 46.536 17.513 46.6073 17.5221C46.9928 17.6321 50.1333 16.9016 50.5129 16.7718C51.5103 16.4308 52.2987 15.7198 53.0218 14.9629L54.2628 15.2572C55.5262 15.6688 57.5718 17.6957 57.8211 20.2767L58.3973 19.7549C58.551 19.6213 58.7317 19.5224 58.927 19.4651C59.1223 19.4078 59.3276 19.3935 59.529 19.423C59.7266 19.451 59.9154 19.523 60.0815 19.6338C60.2477 19.7446 60.387 19.8913 60.4891 20.0631C60.6073 20.3003 60.6746 20.5597 60.6866 20.8245C60.7728 21.861 60.5732 22.9012 60.1096 23.8316C59.891 24.3018 59.5738 24.7192 59.1797 25.0552C58.8506 25.3191 58.256 25.2993 57.843 25.3728C57.7631 25.6533 57.6811 25.8854 57.6379 26.0171C57.108 27.1963 56.4015 28.2873 55.5427 29.2524L55.6721 29.9343C55.1407 31.074 54.3848 32.5081 53.5609 33.9916C50.5596 34.8242 47.3858 34.7982 44.3985 33.9166C43.4807 32.417 42.6381 30.9946 42.0565 29.935C42.0565 29.935 42.1776 29.6631 42.3362 29.3056C42.2006 29.159 42.0675 29.0071 41.9369 28.85C41.0484 27.7548 40.4085 26.4787 40.0618 25.1104L39.956 25.1368C39.3919 25.2782 38.9467 24.9936 38.6329 24.7421C38.2393 24.406 37.9226 23.9888 37.7044 23.5188C37.2407 22.5887 37.0409 21.5488 37.1269 20.5126C37.1387 20.2477 37.206 19.9883 37.3244 19.7512C37.4265 19.5794 37.5658 19.4327 37.732 19.3219C37.8981 19.2111 38.0869 19.1391 38.2845 19.1111C38.4858 19.0815 38.691 19.0958 38.8862 19.1529C39.0815 19.2101 39.2621 19.3088 39.4158 19.4424L40.4293 20.0559C40.682 19.7393 40.871 19.2859 41.2385 19.1036C41.5217 19.0031 41.8255 18.9756 42.1221 19.0235C44.2804 19.1291 45.7944 17.8224 46.4008 17.562Z" fill="white"/>
<path d="M38.3325 37.5002C37.2692 36.9304 33.3255 34.3626 33.4176 34.2271C33.7467 33.7456 37.1836 32.2996 39.5831 31.1995C40.8996 30.5959 41.8244 30.0433 42.057 29.9351C43.5516 32.6597 46.7698 37.7763 48.5576 40.4486C46.4593 40.1441 42.9728 39.9864 38.3325 37.5002Z" fill="white"/>
<path d="M59.397 37.5002C60.455 36.9216 64.404 34.3626 64.3119 34.2271C63.9828 33.7456 60.5459 32.2996 58.1464 31.1995C56.8299 30.5959 55.9051 30.0433 55.6725 29.9351C54.311 32.8553 51.4753 37.7068 49.8008 40.3753C52.6066 40.0201 54.851 39.9864 59.397 37.5002Z" fill="white"/>
<path d="M37.6344 53.4051C39.1211 53.3244 40.539 53.4799 41.6817 54.648C42.3562 55.3372 43.6382 56.4355 43.7328 57.5326C43.7705 57.9695 43.4872 58.6455 43.0072 58.8549L41.6843 61.7463C42.0216 62.1203 42.054 62.3955 41.8599 62.6225C41.7427 62.764 41.5899 62.8716 41.4174 62.9343C41.2449 62.9969 41.0588 63.0122 40.8784 62.9786C40.5127 62.9342 40.1702 62.7758 39.899 62.5259C40.0111 62.8172 39.2047 63.1621 38.9994 63.1962C38.2371 63.3227 37.7316 62.9518 37.2245 62.456C37.3902 63.1472 36.3425 63.848 35.6182 63.2965C34.8764 62.7316 34.3456 62.2826 33.9478 61.5147C33.5623 60.77 33.4265 59.9748 33.2001 59.4312C32.8459 58.5168 32.0385 57.8797 32.1732 57.3131C32.3948 56.2598 33.5336 54.994 34.176 54.4181C35.0041 53.675 36.5692 53.4619 37.6353 53.404" fill="white"/>
<path d="M40.3339 56.7524C40.7791 57.5664 41.9211 58.9287 42.3661 59.7418C42.4912 59.9701 42.8841 60.6388 42.9026 60.8986C42.9228 61.1846 42.4605 61.9035 41.5617 61.5953C41.9181 61.9985 42.0857 62.3628 41.8623 62.6226C41.7451 62.7642 41.5924 62.8718 41.4199 62.9344C41.2474 62.997 41.0613 63.0123 40.8809 62.9788C40.5152 62.9343 40.1727 62.776 39.9014 62.5261C39.9324 62.8831 39.3819 63.0694 39.1774 63.1035C38.4151 63.23 37.7999 62.9077 37.2279 62.4561C36.7989 63.2553 36.3458 63.8481 35.6216 63.2966C34.8797 62.7317 34.349 62.2828 33.9512 61.5148" fill="white"/>
<path d="M63.4391 61.6892C63.6243 61.5293 63.8025 61.3716 63.9657 61.2244C64.807 60.4626 65.7362 59.9391 66.0366 58.8286C66.2806 58.0088 66.2409 57.1304 65.924 56.336C65.7511 55.8571 65.3581 55.0782 65.022 54.7715C64.5783 54.367 63.908 53.8036 63.2505 53.6635C62.5317 53.4888 60.7476 53.9325 59.9674 53.8916C58.8484 53.8333 58.0611 54.2297 57.0095 54.6901C56.0335 55.1173 55.0589 55.4642 54.0838 55.953C54.0008 56.0066 53.9308 56.078 53.8789 56.1621C53.8269 56.2462 53.7943 56.3408 53.7834 56.4391C53.7725 56.5374 53.7836 56.637 53.8159 56.7304C53.8482 56.8239 53.9009 56.909 53.9702 56.9795C54.4327 57.395 55.4817 57.1018 56.1643 57.1018L56.6955 57.1662C55.8398 57.7918 54.7767 58.5741 54.4415 58.9104C54.0105 59.3436 53.5039 59.7213 53.5476 60.1815C53.6312 61.0614 54.4415 60.98 54.7504 60.817L54.7776 60.8025L54.5878 61.0445C54.1968 61.5438 54.1003 62.1525 54.5466 62.4191C54.8265 62.5387 55.1326 62.5833 55.4349 62.5486C55.7373 62.5139 56.0254 62.4011 56.2711 62.2212C55.967 62.6299 56.0056 63.1086 56.3622 63.3138C56.744 63.4868 57.1766 63.5103 57.5749 63.3798C58.0078 63.2011 58.4221 62.9801 58.8117 62.7198C59.1964 62.5034 60.845 61.517 61.6694 60.9237L61.5765 61.0117C61.1296 61.4354 60.4464 62.0291 60.1942 62.4293C60.1408 62.5032 60.1074 62.5897 60.0974 62.6805C60.0874 62.7712 60.1011 62.863 60.1372 62.9468C60.1733 63.0306 60.2305 63.1036 60.3032 63.1586C60.3759 63.2136 60.4616 63.2486 60.5519 63.2603C60.8526 63.3581 61.1795 63.3332 61.462 63.191C61.8703 62.9902 62.7083 62.3212 63.4391 61.6892Z" fill="white"/>
<path d="M34.859 26.7767C35.0987 26.0833 35.4906 25.4528 36.0058 24.9316C36.5209 24.4104 37.1463 24.0117 37.8356 23.7651C38.0377 24.1385 38.3086 24.4701 38.6338 24.7425C38.9675 25.0093 39.4474 25.3145 40.0613 25.1059C40.1903 25.5917 40.352 26.0682 40.5453 26.5321C40.5015 26.6896 40.4563 26.8497 40.4124 27.0096C39.9757 28.5935 38.7185 29.5856 37.2309 30.0652C36.7262 30.2279 35.3725 30.1576 34.8239 29.7726C34.2929 29.3986 34.5694 27.696 34.7822 27.0096C34.8059 26.9312 34.8315 26.8535 34.859 26.7767Z" fill="#65B005"/>
<path d="M60.1233 23.7993C60.934 24.0148 61.6754 24.4367 62.2755 25.0241C62.8756 25.6115 63.3141 26.3444 63.5484 27.1518C63.7612 27.8382 64.0377 29.5408 63.5045 29.9148C62.956 30.2997 61.6044 30.3701 61.0997 30.2073C59.6121 29.7278 58.3549 28.7357 57.916 27.1518C57.8036 26.7783 57.7104 26.3993 57.6367 26.0163C57.6806 25.8843 57.762 25.6527 57.8421 25.3722C58.2544 25.2985 58.8494 25.3176 59.1785 25.0543C59.5727 24.7183 59.8899 24.301 60.1084 23.8308" fill="#65B005"/>
<path d="M45.1357 5.96021C43.2527 6.52424 41.755 7.46488 40.8688 8.32566C38.4528 10.6724 37.424 14.4669 38.0735 17.7296C38.0735 17.7296 38.249 18.4868 38.455 19.0856C38.6309 19.0744 38.8071 19.1003 38.9724 19.1616C39.1377 19.2229 39.2883 19.3183 39.4145 19.4415L40.3519 20.1435C40.6457 19.8298 40.8346 19.3018 41.2372 19.1027C41.5204 19.0023 41.8242 18.9747 42.1208 19.0227C44.5931 19.1434 46.2201 17.4109 46.6056 17.5213C46.9911 17.6317 50.1315 16.9007 50.5111 16.7709C51.5112 16.4291 52.3011 15.715 53.026 14.9559L53.1002 14.878L54.2611 15.2564C55.5245 15.668 57.5701 17.6949 57.8193 20.2759C58.1098 20.0119 58.3955 19.7541 58.3955 19.7541C58.5493 19.6204 58.7299 19.5216 58.9253 19.4643C59.1206 19.407 59.3259 19.3926 59.5273 19.4221C59.5771 19.4296 59.6265 19.44 59.6751 19.4534C59.9546 18.3649 60.0758 17.2417 60.035 16.1185C59.8415 13.3595 58.7492 10.2685 57.0001 8.5562C54.7309 6.3344 52.8646 5.44678 48.6185 5.44678C47.4389 5.44779 46.2657 5.62075 45.1357 5.96021Z" fill="#65B005"/>
<path d="M48.3184 42.6011C47.8104 42.8167 45.9329 43.943 45.8243 44.8777C45.7567 45.4608 46.14 47.6204 46.3147 48.7337C47.4161 48.0279 48.4451 47.2144 49.3865 46.3051" fill="#65B005"/>
<path d="M48.6977 43.0918C48.4372 43.6666 47.639 46.6519 47.7606 47.2067C47.9025 47.8539 50.3907 50.4563 51.0465 51.0485C51.3098 50.4545 52.7483 47.0866 52.5098 46.3057C52.241 45.4258 50.8187 43.4239 50.4912 42.856" fill="#65B005"/>
<path d="M47.3809 40.4951C47.4421 41.0517 47.6363 42.004 47.7126 42.5491C48.2307 42.7556 48.7722 42.8974 49.3249 42.9715C49.8224 42.9011 50.3052 42.7502 50.7543 42.5245C50.917 41.8581 51.0242 41.1793 51.0747 40.4951C50.9564 40.4643 47.6784 40.4951 47.3809 40.4951Z" fill="#65B005"/>
<path d="M47.6312 47.2603C47.138 47.6521 46.6242 48.0168 46.0918 48.353L46.7364 48.617C46.5565 47.4656 46.2809 46.29 46.2559 45.1217C46.2432 45.0421 46.2463 44.9607 46.2651 44.8823C46.284 44.8039 46.3181 44.7301 46.3656 44.665C46.5179 44.4287 46.7058 44.2176 46.9227 44.0392C47.3545 43.6631 47.8303 43.3409 48.3394 43.0796C48.8404 42.8174 48.3972 42.0578 47.8965 42.3198C47.3114 42.6247 46.7666 43.0016 46.2746 43.4417C45.8215 43.8502 45.3991 44.3608 45.3789 44.9978C45.389 45.6031 45.452 46.2063 45.5672 46.8006C45.6677 47.4852 45.7844 48.1673 45.8912 48.851C45.9096 48.9157 45.9424 48.9753 45.9872 49.0254C46.0319 49.0755 46.0875 49.1147 46.1496 49.14C46.2118 49.1653 46.2788 49.1762 46.3458 49.1716C46.4127 49.1671 46.4777 49.1474 46.5359 49.1139C47.1298 48.7351 47.703 48.3245 48.2528 47.8838C48.3345 47.8009 48.3803 47.6891 48.3803 47.5726C48.3803 47.4561 48.3345 47.3443 48.2528 47.2614C48.1691 47.1816 48.0581 47.137 47.9425 47.137C47.827 47.137 47.7159 47.1816 47.6323 47.2614L47.6312 47.2603Z" fill="#4A3E42"/>
<path d="M48.3199 42.8691C48.0882 43.4414 47.903 44.0316 47.7661 44.6338C47.5658 45.3432 47.4191 46.0667 47.3273 46.7982C47.2737 47.3145 47.4664 47.6781 47.7661 48.0858C48.2233 48.6912 48.7133 49.271 49.234 49.8225C49.7182 50.3487 50.2093 50.8784 50.7389 51.3588C50.9272 51.5298 51.3068 51.5434 51.4281 51.2698C51.9264 50.1764 52.3544 49.0522 52.7095 47.904C52.8609 47.3959 53.0605 46.7859 52.9508 46.2509C52.8214 45.6279 52.3841 45.0128 52.0559 44.4818C51.6712 43.8599 51.2423 43.2636 50.873 42.6324C50.5878 42.1443 49.8284 42.5867 50.1151 43.0766C50.4124 43.5847 50.755 44.0676 51.0709 44.5645C51.4515 45.1096 51.7786 45.6903 52.0477 46.2984C52.0657 46.347 52.0793 46.3967 52.0964 46.4454C52.1195 46.5103 52.0982 46.3536 52.0986 46.4559C52.1008 46.5607 52.0958 46.6655 52.0837 46.7696C52.0945 46.686 52.0666 46.8611 52.064 46.8759C52.0531 46.9328 52.0414 46.9896 52.0286 47.0463C51.9951 47.1986 51.9556 47.3495 51.9135 47.4995C51.7316 48.1456 51.5001 48.7778 51.2574 49.4028C51.0525 49.9307 50.8811 50.3507 50.6709 50.8247L51.3601 50.7356C50.3976 49.852 49.5069 48.8928 48.6964 47.8673C48.5402 47.6775 48.3977 47.4768 48.2699 47.2668C48.2446 47.2228 48.2218 47.1788 48.1986 47.1348C48.1562 47.054 48.1924 47.1924 48.1937 47.1192C48.1959 46.9995 48.1867 47.1794 48.19 47.1112C48.1926 47.0587 48.19 47.0056 48.1918 46.9529C48.2552 46.3417 48.3723 45.7373 48.5417 45.1468C48.6374 44.7629 48.7403 44.3808 48.8531 44.0016C48.8989 43.8476 48.9463 43.6936 48.9977 43.541C49.0159 43.4868 49.0352 43.4332 49.0541 43.3795C49.0628 43.354 49.0734 43.3291 49.0824 43.3038C49.112 43.2213 49.0453 43.3872 49.0784 43.3124C49.1337 43.2108 49.1481 43.0919 49.1188 42.98C49.0895 42.8681 49.0187 42.7716 48.9209 42.7103C48.8202 42.6523 48.7008 42.6364 48.5884 42.6659C48.4761 42.6955 48.3799 42.7682 48.3206 42.8683L48.3199 42.8691Z" fill="#4A3E42"/>
<path d="M49.0364 43.0885C49.2339 43.8228 49.4156 44.5729 49.5411 45.3237C49.5723 45.4361 49.6466 45.5315 49.7477 45.5892C49.8489 45.6469 49.9687 45.6622 50.081 45.6317C50.1916 45.598 50.2851 45.5231 50.3422 45.4225C50.3994 45.3218 50.4158 45.203 50.3882 45.0905C50.2627 44.3399 50.081 43.5898 49.8836 42.8553C49.8526 42.7428 49.7783 42.6472 49.6771 42.5896C49.5758 42.532 49.4559 42.517 49.3437 42.5481C49.2315 42.5791 49.1361 42.6536 49.0787 42.7551C49.0212 42.8566 49.0063 42.9768 49.0373 43.0893L49.0364 43.0885Z" fill="#4A3E42"/>
<path d="M46.9434 40.4947C47.0052 41.0379 47.1086 41.5751 47.2016 42.1134C47.253 42.4099 47.2358 42.8041 47.5448 42.9506C47.8224 43.074 48.1112 43.1703 48.4073 43.2379C48.7399 43.3538 49.091 43.4072 49.4429 43.3954C49.7308 43.351 50.0147 43.2831 50.2916 43.1924C50.5224 43.1227 50.7454 43.0294 50.9571 42.9139C51.2041 42.7687 51.2311 42.4453 51.2825 42.1879C51.4024 41.6305 51.4801 41.0647 51.5148 40.4954C51.5143 40.3992 51.4826 40.3058 51.4244 40.2292C51.3663 40.1527 51.2849 40.0972 51.1925 40.0711C51.0321 40.0459 50.8696 40.0368 50.7074 40.0438C50.4342 40.0411 50.1611 40.0414 49.8881 40.0418C49.2457 40.0418 48.6034 40.0473 47.9612 40.0517C47.7684 40.053 47.5753 40.0552 47.3822 40.0554C46.8176 40.0554 46.8165 40.9354 47.3822 40.9354C48.447 40.9354 49.5105 40.916 50.5764 40.9226C50.6861 40.9226 50.798 40.9241 50.9088 40.9268C50.943 40.9268 50.9771 40.9294 51.0113 40.9299C51.1091 40.9312 51.0051 40.9299 50.9593 40.9195L50.6372 40.4954C50.6068 41.1422 50.5047 41.7836 50.3326 42.4077L50.5343 42.1448C50.3676 42.2332 50.1927 42.3051 50.0121 42.3595C49.749 42.4398 49.481 42.5026 49.2097 42.5476H49.442C48.889 42.4752 48.3472 42.3333 47.8296 42.125L48.1367 42.433C48.0894 42.1002 48.027 41.7695 47.9702 41.4385C47.9395 41.2625 47.909 41.0865 47.8807 40.9105C47.8524 40.7345 47.8368 40.6307 47.8208 40.4952C47.8175 40.3795 47.7703 40.2695 47.6887 40.1877C47.6071 40.1059 47.4973 40.0585 47.382 40.0552C47.2659 40.056 47.1548 40.1025 47.0727 40.1848C46.9906 40.267 46.9442 40.3784 46.9434 40.4947Z" fill="#4A3E42"/>
<path d="M38.1745 53.0491C37.8067 52.6116 37.4476 52.1672 37.1167 51.7006C36.7322 51.207 36.4224 50.6592 36.1973 50.075C36.1693 49.9896 36.121 49.8062 36.1168 49.7725C36.1118 49.7249 36.1093 49.677 36.1091 49.6291C36.1091 49.5987 36.1107 49.5686 36.1135 49.5385C36.1078 49.5825 36.1098 49.5792 36.1199 49.5275C36.2383 49.1082 36.3791 48.6957 36.5418 48.2916C36.8459 47.4808 37.2185 46.6975 37.6556 45.9504C37.9408 45.4607 37.1834 45.0174 36.8977 45.5062C36.4096 46.3481 35.9964 47.2315 35.6626 48.146C35.4035 48.8475 35.1047 49.507 35.3335 50.2538C35.7285 51.5403 36.704 52.6604 37.554 53.6712C37.9184 54.1048 38.5365 53.4796 38.1745 53.0491Z" fill="#4A3E42"/>
<path d="M32.3395 56.7429C31.7649 56.5127 31.2389 56.1754 30.7896 55.7488C30.1818 55.2087 29.629 54.6093 29.1394 53.9597C28.6446 53.3199 28.2216 52.6276 27.8777 51.8952C27.6233 51.3976 27.4924 50.8458 27.4962 50.2867C27.5072 50.0453 27.5382 49.8052 27.5888 49.5689C27.6471 49.253 27.7193 48.9395 27.7979 48.6283C27.9986 47.8326 28.2424 47.0477 28.5046 46.2705C29.1123 44.4654 29.8194 42.6955 30.6226 40.969C31.6047 38.8605 32.7318 36.7363 34.4224 35.1087C34.8305 34.7156 34.2093 34.0939 33.8019 34.4864C32.2103 36.0188 31.0928 37.9755 30.1377 39.95C29.2599 41.7726 28.4872 43.6442 27.8233 45.5556C27.3158 47.0092 26.7897 48.5297 26.6354 50.0713C26.4926 51.4983 27.3156 52.9003 28.1042 54.0233C28.6684 54.8372 29.3196 55.5869 30.0462 56.2589C30.6476 56.8089 31.3247 57.3346 32.1074 57.5907C32.6456 57.7667 32.8753 56.9173 32.3406 56.7422L32.3395 56.7429Z" fill="#4A3E42"/>
<path d="M63.7827 34.9023C64.5209 36.3484 65.4314 37.7101 66.2981 39.0804C67.355 40.7511 68.4185 42.4208 69.3846 44.1468C69.8315 44.9451 70.2462 45.7575 70.6223 46.5918C71.1269 47.7109 71.634 48.851 71.8482 50.0675C71.9486 50.6246 71.9634 51.1939 71.892 51.7554C71.8437 52.0579 71.7748 52.3566 71.6858 52.6497C71.6584 52.75 71.6959 52.6439 71.6663 52.7029C71.634 52.7665 71.6004 52.8283 71.5623 52.8888C71.2507 53.3855 70.6991 53.864 70.212 54.2764C69.0004 55.3022 67.6668 56.1581 66.378 57.0788L66.9098 57.1476C66.7543 56.9802 66.5899 56.8236 66.4205 56.6702C66.0023 56.2917 65.3796 56.9122 65.8 57.2926C65.9692 57.4466 66.1338 57.6023 66.2893 57.7699C66.3581 57.8383 66.4475 57.8821 66.5436 57.8945C66.6396 57.9069 66.7371 57.8872 66.821 57.8386C68.0093 56.9899 69.2281 56.1905 70.3706 55.278C70.9767 54.8222 71.5325 54.303 72.0287 53.7291C72.6139 53.0091 72.7903 52.1094 72.8105 51.1912C72.8377 49.9413 72.4678 48.7248 72.0015 47.5791C71.5934 46.5762 71.1458 45.5843 70.6438 44.6252C69.7065 42.8374 68.6278 41.1255 67.5516 39.4196C66.5226 37.7887 65.4189 36.178 64.5408 34.4577C64.2834 33.9535 63.5258 34.3981 63.783 34.9019L63.7827 34.9023Z" fill="#4A3E42"/>
<path d="M61.6046 46.4069C62.051 46.8497 62.4436 47.344 62.774 47.8794C63.1472 48.4364 63.4844 49.0169 63.7833 49.6173C63.8285 49.7097 63.893 49.7933 63.8549 49.8922C63.7554 50.0594 63.6329 50.2116 63.4909 50.3443C63.2212 50.6615 62.9344 50.9636 62.6376 51.255C62.0631 51.8188 61.4486 52.3389 60.8259 52.8477C60.7851 52.8885 60.7527 52.9371 60.7307 52.9904C60.7086 53.0438 60.6973 53.1011 60.6973 53.1588C60.6973 53.2166 60.7086 53.2739 60.7307 53.3273C60.7527 53.3806 60.7851 53.4292 60.8259 53.47C61.0833 53.6781 61.344 53.8821 61.6078 54.082C61.7085 54.1402 61.828 54.1563 61.9404 54.1268C62.0528 54.0972 62.1491 54.0245 62.2084 53.9243C62.2643 53.8228 62.2791 53.7037 62.2498 53.5916C62.2204 53.4795 62.1492 53.3831 62.0508 53.3222C61.8471 53.167 61.6456 53.0089 61.4464 52.8477V53.47C62.1498 52.9087 62.8223 52.3095 63.4608 51.675C63.7767 51.3558 64.0755 51.02 64.3558 50.669C64.6728 50.2693 64.8699 49.9017 64.6483 49.3995C64.3431 48.7394 63.9849 48.1053 63.5773 47.5035C63.1969 46.8782 62.743 46.3009 62.2253 45.7841C61.8115 45.3996 61.1894 46.0204 61.6048 46.4064L61.6046 46.4069Z" fill="#4A3E42"/>
<path d="M43.1914 56.7159C44.9414 56.67 46.6911 56.8181 48.4086 57.1577C48.8426 57.2489 49.2683 57.3666 49.6983 57.4733C50.1174 57.5774 50.6376 57.3968 51.0626 57.3343C51.9646 57.2012 52.8717 57.1029 53.7803 57.0263C54.3389 56.9793 54.344 56.0989 53.7803 56.1464C52.4456 56.2593 51.1151 56.4227 49.7953 56.6524H50.0285C47.8012 56.0485 45.4979 55.7735 43.1914 55.8358C42.6271 55.8433 42.6255 56.7234 43.1914 56.7157V56.7159Z" fill="#4A3E42"/>
<path d="M40.3946 55.9577H40.3904L40.5071 55.9419C40.4961 55.9432 40.485 55.9437 40.474 55.9434C40.4152 55.9407 40.3568 55.9539 40.3048 55.9815C40.2265 56.0159 40.1595 56.072 40.1117 56.1432C40.064 56.2143 40.0374 56.2977 40.0352 56.3834L40.0507 56.5004C40.071 56.5739 40.1099 56.6408 40.1637 56.6947L40.2515 56.7633C40.3187 56.8028 40.3952 56.8235 40.4731 56.8234H40.4922H40.5012H40.5062L40.6227 56.8077H40.6241H40.6269C40.7354 56.7731 40.8285 56.7016 40.8902 56.6056C40.9446 56.5014 40.9602 56.3812 40.9341 56.2666L40.8902 56.1614C40.8521 56.0961 40.7978 56.0417 40.7327 56.0035L40.6278 55.9595C40.5515 55.9384 40.4709 55.9384 40.3946 55.9595V55.9577Z" fill="#4A3E42"/>
<path d="M63.5215 61.3601C64.1916 64.691 64.8428 68.0255 65.4962 71.3602C65.5881 71.8295 65.6803 72.2988 65.7729 72.768L66.3126 72.2269C64.0847 71.5472 61.6977 71.3355 59.3807 71.2456C57.0231 71.1259 54.6595 71.2408 52.3246 71.5887C51.4179 71.7009 50.5337 71.9518 49.7028 72.3327H50.1456C49.3191 71.9499 48.4425 71.687 47.542 71.552C46.3174 71.3352 45.0813 71.1893 43.8399 71.1151C41.1968 70.9185 38.541 70.9718 35.9079 71.2744C34.8108 71.4101 33.674 71.5733 32.6428 71.9937L33.1826 72.5349C33.4287 71.8734 33.5808 71.1631 33.7723 70.4846C34.1835 69.0288 34.5978 67.5737 35.0151 66.1194C35.2901 65.1661 35.5686 64.2139 35.8506 63.2627C36.0123 62.7189 35.1656 62.4866 35.0043 63.0288C34.1657 65.8501 33.3748 68.685 32.5689 71.5157C32.4945 71.7764 32.4319 72.0465 32.3372 72.301C32.3172 72.3759 32.3173 72.4548 32.3374 72.5296C32.3574 72.6045 32.3968 72.6728 32.4514 72.7276C32.5061 72.7824 32.5742 72.8219 32.6489 72.842C32.7236 72.8621 32.8022 72.8622 32.8769 72.8422C33.677 72.5419 34.5094 72.3367 35.3572 72.2306C36.4594 72.0717 37.5694 71.9726 38.6824 71.9337C41.1119 71.819 43.5468 71.906 45.9621 72.1939C46.9107 72.2991 47.8491 72.4817 48.7681 72.7399C48.9465 72.7925 49.1234 72.8499 49.2976 72.9159C49.4306 72.9655 49.5609 73.0222 49.6879 73.0857C49.7701 73.125 49.8606 73.1434 49.9515 73.1392C50.0425 73.1351 50.131 73.1085 50.2092 73.0619L50.3084 73.0153C50.3304 73.0047 50.3545 72.9946 50.3775 72.9847C50.3372 73.0021 50.3444 72.9986 50.3808 72.9847C50.5537 72.9165 50.7292 72.8563 50.9074 72.8024C51.8684 72.5322 52.8529 72.3547 53.8475 72.2722C55.128 72.147 56.4139 72.0872 57.7004 72.0931C60.2386 72.096 62.8358 72.2526 65.3079 72.8631C65.5671 72.9272 65.8244 72.9981 66.0798 73.0758C66.1544 73.0949 66.2327 73.0943 66.307 73.0739C66.3813 73.0534 66.449 73.014 66.5035 72.9594C66.5579 72.9048 66.5973 72.8369 66.6176 72.7624C66.638 72.688 66.6387 72.6095 66.6196 72.5346C66.0623 69.7328 65.5225 66.9276 64.9667 64.1252C64.7687 63.1255 64.5692 62.1259 64.3684 61.1265C64.2569 60.5717 63.4109 60.8064 63.5221 61.3603L63.5215 61.3601Z" fill="#4A3E42"/>
<path d="M49.5365 58.8287C49.4439 62.2505 49.506 65.6809 49.5158 69.1036C49.5174 69.6055 49.52 70.1078 49.52 70.6098C49.52 71.176 50.3977 71.1771 50.3977 70.6098C50.3977 67.4086 50.3757 64.2083 50.3902 61.0063C50.3935 60.2804 50.3946 59.5544 50.4141 58.8285C50.4295 58.262 49.5518 58.2625 49.5365 58.8285V58.8287Z" fill="#4A3E42"/>
<path d="M38.5521 37.121C37.7925 36.7116 37.0662 36.2327 36.3415 35.7652C35.5612 35.2615 34.7768 34.756 34.0317 34.2009L33.9472 34.1374C33.9216 34.118 34.0045 34.1842 33.9374 34.1297C33.8935 34.0938 33.8496 34.0566 33.807 34.0197C33.795 34.007 33.7824 33.9949 33.7691 33.9836C33.7169 33.9502 33.795 33.9645 33.7739 33.9948C33.8013 33.955 33.8088 34.056 33.7978 34.0243C33.8059 34.0481 33.732 34.5083 33.7561 34.5008C33.7803 34.4933 33.7926 34.4528 33.8158 34.4431C33.8744 34.4192 33.7449 34.49 33.8334 34.4288C33.863 34.4084 33.8919 34.3877 33.9211 34.3679C33.9981 34.3167 34.0776 34.2689 34.1574 34.2223C34.3646 34.1011 34.5776 33.9898 34.7915 33.8811C35.9915 33.2711 37.2301 32.7372 38.4579 32.1872C39.2415 31.8353 40.0276 31.4895 40.7938 31.1014C41.2921 30.8491 41.7726 30.5556 42.2764 30.3152L41.6761 30.1575C43.2602 33.0403 45.0331 35.8273 46.8143 38.5909C47.2634 39.2878 47.7175 39.9812 48.1766 40.671L48.6736 40.0247C47.656 39.8782 46.6528 39.7766 45.6422 39.5962C44.1988 39.3409 42.7822 38.9511 41.411 38.4321C40.4314 38.0559 39.4765 37.618 38.5521 37.121C38.0536 36.8552 37.6086 37.6144 38.1091 37.8808C39.6808 38.7286 41.3377 39.407 43.052 39.9046C44.3139 40.2535 45.5991 40.5109 46.8979 40.6745C47.4188 40.7445 47.9906 40.8103 48.4397 40.8749C48.7796 40.9238 49.1723 40.5835 48.9351 40.2286C47.096 37.4764 45.3327 34.6733 43.6453 31.8194C43.2321 31.1228 42.8247 30.4223 42.4346 29.7125C42.374 29.6137 42.2777 29.5422 42.1659 29.5128C42.054 29.4834 41.9352 29.4983 41.834 29.5545C41.3836 29.7694 40.9538 30.0321 40.5097 30.2602C39.7806 30.6342 39.0332 30.9699 38.2859 31.3053C36.9694 31.8969 35.6372 32.4662 34.3492 33.1208C33.8665 33.3655 32.4423 33.9761 33.2083 34.6607C33.8917 35.2199 34.6151 35.7281 35.3728 36.1812C36.2673 36.7679 37.1658 37.3704 38.108 37.8784C38.6065 38.1485 39.0503 37.3891 38.5521 37.121Z" fill="#4A3E42"/>
<path d="M59.6185 37.8798C60.4304 37.4337 61.208 36.9212 61.9847 36.4181C62.7937 35.8941 63.6165 35.3736 64.3763 34.7777C64.6192 34.587 64.886 34.3236 64.6806 33.9904C64.4873 33.6762 64.0564 33.4807 63.7453 33.3124C62.5286 32.6546 61.2462 32.1135 59.985 31.549C59.167 31.1828 58.3444 30.8231 57.542 30.4243C56.9869 30.1475 56.4535 29.822 55.8942 29.5549C55.7933 29.4977 55.6741 29.4822 55.562 29.5117C55.4499 29.5412 55.3536 29.6133 55.2937 29.7128C53.9419 32.6041 52.3125 35.3767 50.6724 38.1106C50.2618 38.7952 49.8449 39.476 49.4218 40.1531C49.2594 40.4118 49.4656 40.8571 49.8007 40.815C50.8988 40.6767 52.0027 40.5731 53.0919 40.37C54.3768 40.1245 55.632 39.7426 56.8364 39.2307C57.7863 38.8279 58.7151 38.3771 59.6194 37.8798C60.1157 37.6093 59.6732 36.8492 59.1764 37.12C57.7951 37.8986 56.3409 38.5391 54.8347 39.0325C53.7744 39.355 52.6883 39.5849 51.5885 39.7195C50.9932 39.7961 50.3966 39.8601 49.8011 39.9351L50.18 40.597C51.8695 37.9016 53.4783 35.1442 54.9633 32.3291C55.3411 31.6128 55.7093 30.8908 56.0522 30.157L55.4519 30.3147C55.8639 30.5114 56.2574 30.7514 56.6628 30.9617C57.354 31.32 58.0614 31.6436 58.771 31.9626C60.0341 32.531 61.3067 33.0818 62.5519 33.6894C62.9787 33.8855 63.3926 34.1086 63.7911 34.3573C63.8265 34.3804 63.8609 34.4048 63.8956 34.4288C63.9671 34.4783 63.8894 34.4273 63.9028 34.4343C63.9162 34.4413 63.9436 34.4844 63.9579 34.4849C63.9662 34.4849 63.9719 34.5069 63.9798 34.5084C63.9754 34.5084 63.9359 34.0025 63.9269 34.0311C63.9535 33.9492 64.004 33.9508 63.9291 34.0128C63.8866 34.048 63.8451 34.0843 63.8025 34.1193C63.7415 34.1694 63.8638 34.0733 63.7946 34.1254C63.767 34.1463 63.7393 34.1675 63.7115 34.1881C63.6424 34.2396 63.5727 34.2903 63.5024 34.3404C63.3315 34.4629 63.1586 34.5823 62.985 34.7016C62.5693 34.9861 62.15 35.2652 61.7271 35.5388C60.8907 36.0835 60.0519 36.6387 59.1769 37.12C58.6795 37.3924 59.1225 38.1524 59.6185 37.8798Z" fill="#4A3E42"/>
<path d="M53.3218 38.4937C54.7187 38.0587 56.0686 37.4845 57.3513 36.7797C58.602 36.1205 59.8099 35.3829 60.9679 34.5713C61.4267 34.2483 60.9888 33.485 60.5249 33.8115C59.3923 34.6056 58.2117 35.3287 56.99 35.9767C55.7495 36.6638 54.4426 37.2228 53.0895 37.6451C52.5486 37.8039 52.7788 38.6534 53.3227 38.4935L53.3218 38.4937Z" fill="#4A3E42"/>
<path d="M45.1964 37.9062C43.7544 37.3276 42.3456 36.6692 40.9764 35.934C39.724 35.2916 38.5188 34.5605 37.3699 33.7466C37.2692 33.6885 37.1498 33.6725 37.0374 33.702C36.925 33.7315 36.8287 33.8042 36.7694 33.9043C36.7132 34.0057 36.6982 34.1249 36.7276 34.237C36.7569 34.3492 36.8283 34.4457 36.9269 34.5064C38.1005 35.3375 39.3324 36.0826 40.613 36.7359C42.0252 37.4877 43.4774 38.1617 44.9629 38.7546C45.0752 38.7849 45.1948 38.7695 45.2959 38.7118C45.3969 38.6542 45.4712 38.5589 45.5027 38.4467C45.5308 38.3342 45.5146 38.2151 45.4574 38.1143C45.4002 38.0135 45.3064 37.9387 45.1955 37.9055L45.1964 37.9062Z" fill="#4A3E42"/>
<path d="M63.3584 39.0531C62.9973 39.7452 62.6963 40.4671 62.4588 41.2109C62.1852 41.9198 61.9584 42.646 61.7799 43.3848C61.6274 44.2076 61.5208 45.0382 61.4606 45.873C61.3439 47.0329 61.2375 48.194 61.1096 49.3528C60.9542 50.7636 60.7596 52.1706 60.5692 53.5765C60.5423 53.6889 60.559 53.8074 60.6161 53.9079C60.6731 54.0084 60.7662 54.0834 60.8763 54.1176C60.9887 54.1478 61.1083 54.1325 61.2094 54.0748C61.3105 54.0172 61.3848 53.9219 61.4163 53.8096C61.7454 51.3773 62.0373 48.9454 62.2762 46.5025C62.3622 45.6242 62.4311 44.7379 62.5797 43.8672C62.7193 43.1787 62.9148 42.5027 63.164 41.846C63.4092 41.035 63.7282 40.2483 64.1169 39.4957C64.3977 39.0034 63.6396 38.5595 63.3592 39.0518L63.3584 39.0531Z" fill="#4A3E42"/>
<path d="M35.3386 39.6932C35.6665 40.3284 35.9337 40.9934 36.1366 41.6791C36.381 42.3485 36.5789 43.034 36.729 43.7307C36.8732 44.4909 36.9346 45.2688 37.0112 46.0378C37.1209 47.1432 37.2238 48.2493 37.3454 49.3534C37.4922 50.6847 37.6784 52.0114 37.854 53.3392C37.8576 53.4547 37.905 53.5646 37.9865 53.6463C38.068 53.728 38.1776 53.7755 38.2928 53.7792C38.5056 53.7792 38.763 53.5764 38.7316 53.3392C38.4214 50.9919 38.1487 48.6421 37.9136 46.2899C37.829 45.4287 37.7513 44.5633 37.6122 43.7089C37.4847 43.0324 37.3048 42.367 37.0742 41.7185C36.8302 40.8649 36.5027 40.0374 36.0965 39.2484C35.8165 38.7567 35.058 39.1995 35.3386 39.6925V39.6932Z" fill="#4A3E42"/>
<path d="M60.1454 19.3821C60.4919 17.9362 60.5602 16.4373 60.3466 14.9657C60.1381 13.5211 59.7115 12.1166 59.0814 10.8006C58.5137 9.62742 57.7202 8.57831 56.7467 7.71364C55.9622 6.97855 55.066 6.37329 54.0918 5.92058C53.0217 5.46956 51.8868 5.19228 50.7297 5.09917C49.2246 4.92941 47.7031 4.97779 46.2118 5.24282C43.7019 5.72919 41.2467 6.96768 39.6684 9.0234C38.7361 10.2713 38.0749 11.701 37.7272 13.2207C37.3795 14.7403 37.3532 16.3161 37.6498 17.8466C37.758 18.4018 38.604 18.1669 38.4961 17.6128C38.0194 15.056 38.5221 12.413 39.9038 10.2115C41.1764 8.20288 43.2194 6.94899 45.4769 6.3194C46.863 5.9579 48.2976 5.81956 49.727 5.90958C50.8744 5.93468 52.0122 6.1244 53.1059 6.47295C54.0005 6.78793 54.8335 7.25691 55.5673 7.85883C56.4641 8.54893 57.2328 9.39175 57.8385 10.3488C58.6045 11.6587 59.132 13.0947 59.3963 14.5898C59.6868 16.0992 59.6536 17.6533 59.2989 19.1489C59.1699 19.6988 60.0159 19.9349 60.1452 19.3829L60.1454 19.3821Z" fill="#4A3E42"/>
<path d="M71.6191 54.1989C74.378 54.1989 77.137 54.1958 79.8961 54.1898C80.4146 54.1898 80.9332 54.1894 81.4519 54.1885C82.0165 54.1885 82.0176 53.3086 81.4519 53.3086C78.947 53.3086 76.4419 53.3116 73.9368 53.3176C73.1643 53.3176 72.3918 53.3181 71.6191 53.3189C71.0546 53.3189 71.0535 54.1989 71.6191 54.1989Z" fill="#4A3E42"/>
<path d="M18.4239 54.1989C21.0882 54.1989 23.7524 54.1958 26.4167 54.1898C26.9218 54.1898 27.4268 54.1894 27.9317 54.1885C28.4965 54.1885 28.4974 53.3086 27.9317 53.3086C25.5216 53.3086 23.1112 53.3116 20.7008 53.3176C19.9419 53.3176 19.1829 53.3181 18.4239 53.3189C17.8591 53.3189 17.8583 54.1989 18.4239 54.1989Z" fill="#4A3E42"/>
<path d="M40.9355 54.2153C43.36 54.2153 45.7845 54.2143 48.209 54.2123C51.1401 54.2105 54.0713 54.2089 57.0027 54.2074C58.2348 54.2074 59.4668 54.207 60.6989 54.2061C61.2635 54.2061 61.2646 53.3262 60.6989 53.3262C58.2279 53.3262 55.7569 53.3272 53.2858 53.3293C50.3676 53.331 47.4494 53.3326 44.5312 53.3341C43.3325 53.3341 42.134 53.3345 40.9357 53.3354C40.3709 53.3354 40.3696 54.2153 40.9355 54.2153Z" fill="#4A3E42"/>
<path d="M31.9069 49.9292C31.7585 49.9952 31.8593 49.949 31.8985 49.9363C31.929 49.9266 31.96 49.9183 31.9911 49.911C32.0284 49.9024 32.0662 49.8956 32.1039 49.889C32.1373 49.8833 32.198 49.8846 32.064 49.8938C32.0831 49.8925 32.1019 49.8894 32.121 49.8875C32.2896 49.8715 32.4591 49.8684 32.6281 49.8782C32.7128 49.8826 32.7972 49.891 32.8817 49.9002C32.9598 49.9084 32.7968 49.8868 32.8517 49.896C32.8718 49.8993 32.892 49.902 32.9122 49.9053C32.9517 49.9116 32.991 49.9189 33.03 49.9273C33.1057 49.9429 33.1812 49.9611 33.2549 49.9842C33.2865 49.9941 33.3175 50.0062 33.3486 50.0168C33.418 50.0421 33.3146 49.9985 33.303 49.9972C33.3194 50.0023 33.335 50.0097 33.3493 50.0192C33.3991 50.0484 33.4541 50.0674 33.5112 50.0752C33.5683 50.0831 33.6263 50.0796 33.6821 50.0649C33.7378 50.0502 33.7901 50.0247 33.836 49.9898C33.8819 49.9548 33.9205 49.9112 33.9496 49.8613C33.9787 49.8114 33.9977 49.7562 34.0055 49.699C34.0133 49.6418 34.0098 49.5835 33.9952 49.5276C33.9805 49.4717 33.9551 49.4193 33.9202 49.3733C33.8854 49.3272 33.8418 49.2886 33.7921 49.2594C33.4266 49.0927 33.0306 49.0039 32.6292 48.9987C32.2331 48.9624 31.834 49.0211 31.465 49.1699C31.3648 49.229 31.292 49.3255 31.2625 49.4383C31.233 49.551 31.2491 49.6709 31.3074 49.7717C31.3685 49.87 31.4647 49.9411 31.5764 49.9704C31.688 49.9998 31.8067 49.9852 31.908 49.9297L31.9069 49.9292Z" fill="#4A3E42"/>
<path d="M64.6005 50.2385C64.6566 50.2006 64.7148 50.166 64.7747 50.1346C64.8052 50.1185 64.836 50.1032 64.8673 50.0889C64.8851 50.0805 64.9033 50.0728 64.9211 50.0645C64.9705 50.0414 64.8311 50.1008 64.8827 50.0805C65.0301 50.0219 65.1807 49.9716 65.3338 49.93C65.4802 49.8907 65.6283 49.8614 65.7779 49.8368C65.8389 49.8267 65.7391 49.841 65.7294 49.8429C65.747 49.8392 65.7665 49.8383 65.7847 49.8363C65.8167 49.8328 65.8488 49.8297 65.8808 49.8273C65.9449 49.8227 66.0092 49.8205 66.0734 49.8218C66.1895 49.8207 66.3005 49.774 66.3825 49.6918C66.4646 49.6095 66.5112 49.4982 66.5123 49.3819C66.51 49.2659 66.4631 49.1553 66.3813 49.0732C66.2994 48.9912 66.1891 48.9441 66.0734 48.9419C65.7442 48.9429 65.4167 48.9898 65.1003 49.0814C64.7663 49.1613 64.4476 49.2955 64.1569 49.4786C64.0564 49.5375 63.9833 49.6341 63.9538 49.7469C63.9243 49.8598 63.9407 49.9799 63.9994 50.0806C64.0582 50.1814 64.1544 50.2546 64.267 50.2842C64.3797 50.3138 64.4994 50.2974 64.5999 50.2385H64.6005Z" fill="#4A3E42"/>
<path d="M64.9542 72.7558C65.0477 73.3013 65.1517 73.8453 65.2373 74.392L65.7772 73.8508C63.5959 73.5329 61.3961 73.359 59.192 73.3301C56.9988 73.2686 54.804 73.3588 52.6232 73.5998C51.6382 73.7007 50.6632 73.8833 49.7083 74.1456H49.9418C47.6182 73.4311 45.1638 73.1427 42.7432 73.0286C40.4724 72.9117 38.1958 72.9835 35.9368 73.2435C35.0035 73.3382 34.0791 73.5067 33.1722 73.7472L33.7122 74.2886C33.9268 73.5998 34.142 72.9111 34.3689 72.2263C34.5475 71.6876 33.7001 71.4564 33.5226 71.9924C33.2957 72.677 33.0805 73.3658 32.8659 74.0545C32.8464 74.1294 32.8468 74.2081 32.867 74.2827C32.8872 74.3574 32.9266 74.4255 32.9811 74.4802C33.0357 74.5349 33.1036 74.5744 33.1781 74.5946C33.2525 74.6149 33.331 74.6152 33.4057 74.5957C35.0414 74.1291 36.7846 73.9978 38.4761 73.9138C40.7874 73.7917 43.1048 73.8618 45.4045 74.1234C46.5367 74.2514 47.6593 74.4538 48.765 74.7292C49.0098 74.7913 49.2531 74.858 49.495 74.9294C49.6358 74.9894 49.7896 75.0116 49.9415 74.9939C50.0442 74.9719 50.1465 74.9351 50.2487 74.9083C50.6507 74.8029 51.0586 74.7193 51.468 74.6483C53.604 74.3149 55.7645 74.1643 57.926 74.1982C60.4748 74.1718 63.022 74.3393 65.5455 74.6991C65.6201 74.7173 65.698 74.7159 65.7718 74.6952C65.8457 74.6744 65.9129 74.635 65.9671 74.5806C66.0214 74.5263 66.0607 74.4588 66.0814 74.3848C66.1021 74.3108 66.1034 74.2326 66.0853 74.1579C65.9993 73.6111 65.8957 73.0673 65.8025 72.5217C65.7708 72.4096 65.6965 72.3144 65.5954 72.2568C65.4944 72.1991 65.3748 72.1837 65.2625 72.2137C65.1516 72.2469 65.0577 72.3216 65.0005 72.4225C64.9433 72.5233 64.9271 72.6424 64.9553 72.7549L64.9542 72.7558Z" fill="#4A3E42"/>
<path d="M53.559 33.5534C53.3866 33.5733 53.2171 33.6141 53.0544 33.6748C52.8604 33.725 52.6657 33.7713 52.4701 33.8136C52.0977 33.8946 51.7226 33.9615 51.3447 34.0143C50.5711 34.1186 49.7909 34.1666 49.0104 34.1579C47.4876 34.1456 45.9738 33.9215 44.5124 33.492C43.9694 33.3325 43.7372 34.1814 44.279 34.3407C45.7844 34.7807 47.3422 35.0147 48.9101 35.0365C49.7101 35.0482 50.5098 35.0026 51.3033 34.8999C51.6899 34.85 52.0752 34.7899 52.4576 34.7131C52.654 34.674 52.8496 34.6309 53.0443 34.584C53.1416 34.5605 53.2386 34.5361 53.3352 34.5105C53.4117 34.4911 53.4863 34.4653 53.5584 34.4333C54.1232 34.4333 54.124 33.5534 53.5584 33.5534H53.559Z" fill="#4A3E42"/>
<path d="M58.7051 20.0656C59.1305 19.707 59.8778 19.7992 60.128 20.3243C60.244 20.6377 60.2911 20.9726 60.266 21.3061C60.2665 21.6534 60.2313 21.9999 60.1609 22.34C60.0299 23.0198 59.7564 23.6639 59.3585 24.2298C59.2089 24.4757 58.9901 24.6717 58.7296 24.7932C58.4177 24.8692 58.0997 24.9177 57.7794 24.9382C57.6674 24.9697 57.5723 25.0442 57.5148 25.1455C57.4573 25.2469 57.442 25.3669 57.4722 25.4795C57.5055 25.5905 57.5801 25.6844 57.6806 25.7417C57.7811 25.7991 57.8997 25.8155 58.012 25.7875C58.4192 25.7296 58.8315 25.7235 59.2106 25.5455C59.605 25.3173 59.9346 24.9917 60.1679 24.5996C60.6826 23.8133 61.0024 22.915 61.1006 21.9796C61.1987 21.1492 61.2206 20.0634 60.5543 19.4499C60.2142 19.1466 59.7753 18.9784 59.3201 18.9771C58.865 18.9757 58.4251 19.1413 58.0833 19.4426C57.6504 19.8075 58.2739 20.4272 58.7038 20.0647L58.7051 20.0656Z" fill="#4A3E42"/>
<path d="M57.6172 24.15C57.5929 24.5614 57.5163 24.968 57.3892 25.3599C57.3453 25.5053 57.2979 25.6496 57.2499 25.7937C57.2352 25.8377 57.2205 25.8806 57.206 25.9239C57.1915 25.9673 57.1588 26.037 57.1959 25.9519C57.0147 26.3542 56.8057 26.7434 56.5704 27.1165C55.9065 28.2379 55.0601 29.2401 54.0662 30.0814C53.5231 30.5448 52.8817 30.878 52.1909 31.0557C51.641 31.1835 51.8738 32.0321 52.4243 31.9041C53.8452 31.5741 55.025 30.5332 55.9523 29.4509C56.7485 28.5515 57.4134 27.5433 57.927 26.4565C58.2604 25.731 58.4532 24.9486 58.4953 24.1509C58.5154 23.5847 57.6378 23.5856 57.6176 24.1509L57.6172 24.15Z" fill="#4A3E42"/>
<path d="M39.7262 19.1308C39.3843 18.8294 38.9444 18.6637 38.4892 18.665C38.034 18.6663 37.595 18.8345 37.2549 19.1378C36.5528 19.7848 36.6101 20.9562 36.7283 21.8216C36.8482 22.783 37.2107 23.6978 37.7815 24.4796C38.33 25.2001 39.1329 25.7603 40.0724 25.561C40.6247 25.444 40.391 24.5955 39.8389 24.7126C39.2772 24.8316 38.7561 24.3351 38.4509 23.9178C38.0446 23.3377 37.7677 22.6766 37.6391 21.9795C37.572 21.6391 37.5401 21.2926 37.5439 20.9456C37.5231 20.6282 37.57 20.3099 37.6814 20.012C37.9318 19.4867 38.6789 19.3948 39.1043 19.7533C39.534 20.1156 40.1575 19.4962 39.7251 19.1312L39.7262 19.1308Z" fill="#4A3E42"/>
<path d="M39.2298 22.9937C39.3749 24.4203 39.7463 25.8146 40.3297 27.1239C41.1263 28.8002 42.3699 30.2229 43.9231 31.2344C44.718 31.7612 45.6155 32.1125 46.556 32.265C46.6682 32.2923 46.7865 32.2756 46.8869 32.2184C46.9872 32.1612 47.0619 32.0677 47.0958 31.957C47.1258 31.8445 47.1104 31.7246 47.0529 31.6233C46.9954 31.522 46.9005 31.4475 46.7886 31.4159C45.1933 31.1768 43.8393 30.2555 42.7461 29.1015C41.6333 27.914 40.8437 26.4595 40.4533 24.8779C40.2976 24.258 40.1816 23.6288 40.1062 22.9942C40.1027 22.8786 40.0554 22.7687 39.9738 22.6869C39.8922 22.6051 39.7826 22.5577 39.6673 22.5542C39.5512 22.5549 39.44 22.6015 39.3578 22.6838C39.2757 22.7662 39.2292 22.8777 39.2285 22.9942L39.2298 22.9937Z" fill="#4A3E42"/>
<path d="M54.1446 15.6807C54.4799 15.8095 54.793 15.9901 55.0725 16.2159C55.4758 16.5354 55.8377 16.9042 56.1496 17.3138C56.8719 18.2294 57.3064 19.3397 57.3976 20.5035C57.4325 21.066 58.3104 21.07 58.2753 20.5035C58.1768 19.1325 57.6674 17.8234 56.814 16.7476C56.1878 15.9389 55.3643 15.1637 54.3785 14.8322C53.8418 14.6514 53.6106 15.501 54.1453 15.6807H54.1446Z" fill="#4A3E42"/>
<path d="M60.0063 24.2237C61.9665 24.7191 63.1926 26.5192 63.3552 28.4788C63.382 28.802 63.4232 29.2941 63.2639 29.5394C63.231 29.59 63.2639 29.5517 63.192 29.5917C63.119 29.6316 63.0421 29.664 62.9627 29.6885C62.754 29.7549 62.5391 29.7999 62.3213 29.8229C61.928 29.8853 61.526 29.8634 61.1418 29.7587C60.6667 29.6014 60.2168 29.376 59.8062 29.0895C58.7227 28.3321 58.2898 27.1662 58.0579 25.9064C57.9555 25.3503 57.1096 25.5859 57.2116 26.1404C57.4578 27.4777 57.9493 28.7298 59.0328 29.5998C59.9063 30.3016 60.9717 30.7888 62.1046 30.7206C62.638 30.6885 63.2734 30.6107 63.7249 30.2948C64.1368 30.0075 64.2313 29.4892 64.2482 29.0171C64.2774 27.9291 64.0141 26.8533 63.4858 25.9024C63.1422 25.2836 62.6774 24.7407 62.1194 24.3064C61.5614 23.8721 60.9216 23.5553 60.2385 23.3751C59.6899 23.2367 59.4569 24.0852 60.0052 24.2237H60.0063Z" fill="#4A3E42"/>
<path d="M37.7179 23.3401C35.482 24.1222 34.1513 26.2896 34.0789 28.6098C34.0655 29.0433 34.0929 29.5467 34.3543 29.9112C34.6424 30.3126 35.2117 30.4457 35.6727 30.517C36.1822 30.6117 36.7046 30.6135 37.2148 30.5223C38.3823 30.2134 39.4139 29.523 40.1463 28.5605C40.535 27.9786 40.8133 27.3298 40.9674 26.6467C41.1197 26.1004 40.2732 25.8673 40.1211 26.4126C40.0059 26.9216 39.8167 27.4107 39.5594 27.8645C39.3159 28.2475 39.0059 28.5838 38.6442 28.8575C38.2664 29.1423 37.8495 29.3711 37.4065 29.5368C37.0522 29.6739 36.6719 29.7299 36.2932 29.7009C35.8928 29.7045 35.4966 29.6181 35.1338 29.4481C35.0627 29.4083 35.0509 29.4107 35.0134 29.2792C34.9686 29.1041 34.9487 28.9235 34.9544 28.7428C34.9515 27.9026 35.1496 27.0738 35.5321 26.3261C36.041 25.3333 36.9049 24.5697 37.9511 24.1879C38.481 24.0025 38.253 23.152 37.7179 23.3392V23.3401Z" fill="#4A3E42"/>
<path d="M48.0713 63.4008C47.7671 63.1892 47.4209 63.0459 47.0563 62.9806C46.6918 62.9154 46.3175 62.9297 45.959 63.0227C45.8468 63.0537 45.7515 63.1281 45.694 63.2296C45.6365 63.3311 45.6216 63.4513 45.6525 63.5639C45.6834 63.6764 45.7577 63.772 45.8589 63.8296C45.9601 63.8872 46.08 63.9022 46.1923 63.8712C46.2293 63.8617 46.2664 63.8527 46.3039 63.845C46.3294 63.8397 46.3976 63.8406 46.4169 63.8252C46.3476 63.8341 46.3372 63.8358 46.3858 63.8303C46.4046 63.8283 46.4237 63.8265 46.4428 63.8252C46.481 63.8223 46.5192 63.8204 46.5574 63.8197C46.6244 63.8182 46.6912 63.8199 46.7579 63.8248C46.7953 63.8336 46.8338 63.8374 46.8722 63.8362C46.8029 63.8267 46.7923 63.8256 46.8406 63.8331C46.8595 63.8362 46.8784 63.8397 46.8972 63.8432C46.9723 63.858 47.0466 63.8766 47.1197 63.8991C47.1526 63.9092 47.2994 63.94 47.3086 63.9673C47.2478 63.9413 47.2393 63.938 47.2825 63.9574C47.2999 63.9655 47.3172 63.9737 47.3343 63.9823C47.3685 63.9991 47.4023 64.0171 47.4357 64.0362C47.502 64.0742 47.5663 64.1158 47.6283 64.1607C47.7289 64.2191 47.8485 64.2353 47.961 64.2058C48.0734 64.1762 48.1697 64.1033 48.2288 64.0029C48.2845 63.9014 48.2992 63.7824 48.2699 63.6704C48.2406 63.5583 48.1695 63.4619 48.0713 63.4008Z" fill="#4A3E42"/>
<path d="M47.4518 68.2577C44.448 67.5469 41.1621 67.3777 38.1509 68.1332C37.6023 68.2704 37.8351 69.1193 38.3841 68.9816C41.2415 68.2645 44.3686 68.4317 47.2186 69.1061C47.7671 69.2361 48.0023 68.3879 47.4518 68.2577Z" fill="#4A3E42"/>
<path d="M47.5679 65.9531C46.4507 65.4032 45.1083 65.2947 43.8846 65.2287C42.3704 65.1375 40.8507 65.2205 39.3553 65.4762C39.2435 65.508 39.1486 65.5825 39.0911 65.6838C39.0337 65.7851 39.0182 65.905 39.0481 66.0176C39.0812 66.1288 39.1558 66.223 39.2564 66.2803C39.357 66.3377 39.4758 66.3539 39.5881 66.3256C40.9796 66.0936 42.3928 66.0195 43.8008 66.1045C44.8803 66.1586 46.1804 66.2492 47.1232 66.7129C47.6278 66.9613 48.0739 66.2028 47.5662 65.9531H47.5679Z" fill="#4A3E42"/>
<path d="M52.7151 14.6447C51.9368 15.4566 51.1019 16.1764 49.9943 16.4569C49.1364 16.6738 48.2682 16.8669 47.3954 17.0145C47.2986 17.0308 47.2016 17.0464 47.1044 17.0605C47.0742 17.0649 47.0336 17.0711 46.9346 17.0805C46.8809 17.0856 46.8271 17.0907 46.7731 17.0918C46.6781 17.094 46.6228 17.0808 46.7231 17.0973C46.4141 17.0734 46.1072 17.164 45.8604 17.3518C44.9827 17.8698 44.1246 18.3637 43.1028 18.5331C42.7482 18.5859 42.3891 18.6006 42.0314 18.5771C41.6215 18.5571 41.2084 18.567 40.8637 18.819C40.6262 19.013 40.4255 19.2482 40.2713 19.5135C40.1835 19.6475 40.0396 19.9315 39.8702 19.9462C39.3113 19.9929 39.3065 20.8732 39.8702 20.8262C40.5181 20.772 40.7989 20.2841 41.136 19.7966C41.1881 19.6981 41.2642 19.6143 41.3572 19.5531C41.4502 19.4918 41.5571 19.4551 41.668 19.4462C42.0342 19.4211 42.402 19.4803 42.7706 19.4511C43.9554 19.3571 45.0222 18.8831 46.0291 18.2753C46.1649 18.1934 46.2994 18.109 46.4383 18.0322C46.494 17.9999 46.5514 17.9706 46.6101 17.9442C46.5083 17.9882 46.7159 17.9512 46.5765 17.9547C46.385 17.9598 46.5985 17.9655 46.6746 17.9695C46.7274 17.9716 46.7803 17.9708 46.833 17.9671C47.0329 17.9554 47.2328 17.9231 47.4307 17.8934C48.3303 17.755 49.2224 17.5524 50.1049 17.3342C50.551 17.2322 50.9822 17.073 51.3876 16.8603C52.1152 16.4322 52.7726 15.8942 53.3367 15.2653C53.7281 14.857 53.1085 14.2338 52.7159 14.6429L52.7151 14.6447Z" fill="#4A3E42"/>
<path d="M43.3896 16.6518C43.3591 16.5923 43.344 16.526 43.3459 16.4591C43.3477 16.3922 43.3664 16.3268 43.4001 16.2691C43.4573 16.2096 43.5295 16.1668 43.609 16.1452L44.4209 15.8447C45.0394 16.5875 45.5567 17.4094 45.9592 18.2889C45.476 18.6315 44.9366 18.8862 44.3656 19.0415L43.4179 16.7257C43.4083 16.702 43.3984 16.6771 43.3896 16.6518Z" fill="#4A3E42"/>
<path d="M43.8136 16.5349C43.8046 16.5103 43.7969 16.4852 43.7906 16.4597C43.7838 16.4289 43.7822 16.4258 43.786 16.4507C43.786 16.4507 43.6969 16.5814 43.696 16.586C43.701 16.5594 43.8759 16.5143 43.9299 16.4945L44.539 16.2692L44.112 16.1561C44.702 16.8734 45.1961 17.6646 45.5821 18.5099L45.7394 17.9081C45.2878 18.2286 44.7842 18.4682 44.2509 18.6162L44.7907 18.9242C44.4653 18.1294 44.112 17.3403 43.814 16.5345C43.7806 16.4236 43.706 16.3297 43.6055 16.2724C43.5051 16.2151 43.3865 16.1987 43.2743 16.2265C43.1625 16.2582 43.0675 16.3327 43.01 16.434C42.9526 16.5352 42.9371 16.6551 42.9671 16.7677C43.2651 17.5735 43.6183 18.3625 43.9437 19.1573C43.977 19.2684 44.0516 19.3623 44.1521 19.4196C44.2526 19.477 44.3713 19.4933 44.4835 19.4653C45.0906 19.2983 45.6649 19.0289 46.1817 18.6685C46.2792 18.6069 46.3497 18.5104 46.379 18.3987C46.4082 18.2869 46.394 18.1681 46.3393 18.0665C45.916 17.1555 45.3759 16.3039 44.7325 15.5334C44.6785 15.4772 44.6101 15.4369 44.5348 15.417C44.4595 15.397 44.3802 15.3982 44.3055 15.4203C43.9786 15.5411 43.6341 15.6429 43.3193 15.7925C43.1483 15.8803 43.0169 16.0298 42.9515 16.2109C42.8862 16.392 42.8917 16.5912 42.9671 16.7683C43.0001 16.8796 43.0746 16.9738 43.1752 17.0312C43.2758 17.0886 43.3946 17.1047 43.5069 17.0763C43.6185 17.0444 43.7133 16.9697 43.7706 16.8685C43.828 16.7673 43.8434 16.6475 43.8136 16.5349Z" fill="#4A3E42"/>
<path d="M40.912 57.2709C41.0759 57.6149 43.7174 62.2372 44.2089 63.0733L44.5835 62.924C43.9199 61.2831 39.5663 51.679 38.5393 49.614C38.4841 49.5033 38.39 49.4169 38.2751 49.3716C38.1602 49.3264 38.0326 49.3253 37.917 49.3688C37.8556 49.3908 37.7935 49.4156 37.7316 49.4394C37.6708 49.4626 37.6153 49.4981 37.5686 49.5436C37.5219 49.5891 37.485 49.6437 37.4601 49.704C37.4352 49.7644 37.4229 49.8292 37.4239 49.8945C37.4249 49.9598 37.4392 50.0241 37.4659 50.0837C37.9802 51.2256 38.6525 52.7705 39.3031 53.9257C39.8516 54.8993 40.4554 56.2478 40.912 57.2709Z" fill="#4A3E42"/>
<path d="M40.5339 57.4925C40.8455 58.1358 41.231 58.7506 41.5834 59.3718C42.131 60.337 42.6812 61.3005 43.234 62.2626C43.4315 62.6071 43.6289 62.952 43.8308 63.2947C43.8801 63.378 43.9553 63.4428 44.0447 63.4793C44.1342 63.5158 44.2332 63.522 44.3265 63.4969L44.701 63.3478C44.9009 63.2679 45.1045 63.0457 45.0082 62.8064C43.9769 60.2641 42.7945 57.7768 41.658 55.2811C41.004 53.8449 40.344 52.4114 39.678 50.9805C39.4586 50.5126 39.2391 50.0449 39.0127 49.5807C38.8229 49.1918 38.5322 48.8867 38.0642 48.8972C37.4593 48.9111 36.8809 49.4252 37.0053 50.0603C37.0948 50.3638 37.2171 50.6566 37.3702 50.9334C37.5103 51.2462 37.6515 51.5586 37.7939 51.8705C38.0982 52.534 38.4104 53.1946 38.7556 53.8376C39.3982 55.0347 39.9805 56.2512 40.5346 57.4925C40.5939 57.5927 40.6902 57.6653 40.8026 57.6948C40.915 57.7244 41.0344 57.7084 41.1351 57.6503C41.2334 57.5894 41.3047 57.493 41.3339 57.3809C41.3632 57.2688 41.3484 57.1498 41.2924 57.0484C40.8224 55.9951 40.3546 54.9366 39.8046 53.9225C39.2545 52.9084 38.7514 51.8767 38.2779 50.8229C38.1678 50.5785 38.058 50.334 37.9488 50.0895C37.9229 50.0321 37.841 49.9219 37.8722 49.8533C37.8595 49.8812 38.0258 49.775 38.064 49.7772C38.1991 49.7851 38.2926 50.1025 38.3492 50.2171C38.5708 50.6764 38.788 51.138 39.0031 51.5999C40.3024 54.3825 41.576 57.1772 42.8239 59.984C43.1105 60.6251 43.3951 61.2671 43.6779 61.9102C43.7816 62.147 43.8847 62.3844 43.9872 62.6223C44.009 62.673 44.031 62.7238 44.0531 62.7747C44.0673 62.8077 44.1261 62.9485 44.0717 62.8187C44.1026 62.892 44.1332 62.966 44.1634 63.0407L44.4706 62.4993L44.0961 62.6487L44.5917 62.8508C43.6149 61.1878 42.6653 59.5071 41.7216 57.8254C41.5774 57.5687 41.4234 57.3139 41.2948 57.0486C41.0482 56.5394 40.291 56.9848 40.537 57.4928L40.5339 57.4925Z" fill="#4A3E42"/>
<path d="M37.6361 53.8453C38.3991 53.7771 39.1681 53.8463 39.9068 54.0496C40.6482 54.2835 41.1669 54.7597 41.7088 55.2932C42.2293 55.8055 42.7806 56.3311 43.117 56.9897C43.3746 57.4939 43.3663 58.1936 42.7879 58.4752C42.2797 58.7222 42.7243 59.4814 43.2307 59.235C43.5165 59.0738 43.7545 58.8396 43.9207 58.5562C44.0869 58.2727 44.1751 57.9502 44.1766 57.6215C44.1814 56.9215 43.7597 56.2796 43.3428 55.7547C42.9209 55.2568 42.471 54.7835 41.9951 54.3371C41.4682 53.8042 40.8181 53.4099 40.1027 53.1893C39.3 52.9726 38.466 52.8969 37.6376 52.9653C37.0757 52.9942 37.0722 53.8741 37.6376 53.8453H37.6361Z" fill="#4A3E42"/>
<path d="M35.526 61.243C35.9209 61.8098 36.3882 62.3222 36.916 62.7672C37.0003 62.8467 37.1106 62.8925 37.2262 62.8961C37.313 62.8961 37.3978 62.8703 37.47 62.822C37.5421 62.7736 37.5984 62.7049 37.6316 62.6245C37.6648 62.5441 37.6735 62.4557 37.6566 62.3704C37.6396 62.285 37.5978 62.2066 37.5365 62.1451C37.1132 61.7939 36.7316 61.3949 36.3993 60.9561L36.4677 61.0441C36.4053 60.9629 36.344 60.8808 36.2839 60.798C36.223 60.7012 36.1296 60.6295 36.0206 60.5958C35.9065 60.5652 35.785 60.581 35.6825 60.6398C35.5829 60.6995 35.5107 60.796 35.4813 60.9085C35.4519 61.0211 35.4676 61.1406 35.5251 61.2417L35.526 61.243Z" fill="#4A3E42"/>
<path d="M36.7875 59.6954C37.6271 60.8236 38.5651 61.8747 39.5905 62.8363C39.6739 62.9166 39.7851 62.9615 39.9008 62.9615C40.0165 62.9615 40.1278 62.9166 40.2112 62.8363C40.2923 62.7532 40.3377 62.6415 40.3377 62.5252C40.3377 62.409 40.2923 62.2973 40.2112 62.2142C39.237 61.3072 38.3449 60.3155 37.5453 59.2506C37.4841 59.1526 37.3878 59.0817 37.2762 59.0524C37.1647 59.0231 37.0461 59.0376 36.9448 59.0929C36.8449 59.1523 36.7724 59.2488 36.7429 59.3614C36.7135 59.4741 36.7295 59.5938 36.7875 59.6947V59.6954Z" fill="#4A3E42"/>
<path d="M38.4004 58.2857C39.2983 59.6143 40.2923 60.875 41.3743 62.0577C41.4571 62.1379 41.5679 62.1822 41.683 62.1812C41.798 62.1802 41.9081 62.1339 41.9895 62.0523C42.0708 61.9708 42.117 61.8604 42.118 61.7451C42.119 61.6297 42.0747 61.5186 41.9948 61.4356C40.9624 60.3092 40.0143 59.1079 39.1582 57.8416C39.0975 57.743 39.0013 57.6716 38.8895 57.6422C38.7777 57.6128 38.6589 57.6276 38.5577 57.6836C38.458 57.7433 38.3857 57.8398 38.3563 57.9524C38.3268 58.065 38.3427 58.1847 38.4004 58.2857Z" fill="#4A3E42"/>
<path d="M37.6361 52.9653C36.4563 53.0313 35.1023 53.1888 34.1189 53.9064C33.678 54.2488 33.2812 54.6448 32.9376 55.0853C32.5143 55.5738 32.1666 56.1234 31.9063 56.7156C31.7946 56.9506 31.7315 57.206 31.7207 57.4661C31.7403 57.7378 31.828 58.0002 31.9757 58.2288C32.2743 58.7414 32.6558 59.1881 32.8559 59.7557C33.0951 60.4348 33.2491 61.1345 33.5897 61.7758C33.9014 62.3358 34.3205 62.8285 34.8228 63.2257C35.3853 63.69 35.9622 64.1307 36.7242 63.8392C37.3476 63.6007 37.7774 63.0204 37.6486 62.3391L36.9151 62.7672C37.5141 63.3469 38.2601 63.8196 39.1312 63.6177C39.6542 63.4965 40.49 63.0651 40.3228 62.4091L39.5904 62.8365C40.2184 63.3346 41.1333 63.6982 41.8754 63.1927C42.0333 63.1016 42.1659 62.9723 42.261 62.8166C42.3561 62.6609 42.4108 62.4837 42.4199 62.3013C42.4103 61.8767 42.1022 61.5265 41.8139 61.2491L41.387 61.9845C41.9809 62.2096 42.7287 62.2415 43.1997 61.7426C43.3655 61.5717 43.473 61.3525 43.5065 61.1166C43.5401 60.8806 43.4982 60.64 43.3867 60.4295C42.9542 59.592 42.2999 58.872 41.8093 58.0676C41.4371 57.4207 41.1035 56.7523 40.8103 56.0657C40.751 55.9656 40.6548 55.893 40.5425 55.8634C40.4301 55.8339 40.3107 55.8498 40.21 55.9078C40.1115 55.9686 40.0402 56.065 40.0109 56.1772C39.9815 56.2893 39.9964 56.4085 40.0525 56.5099C40.3368 57.1747 40.658 57.8231 41.0146 58.4519C41.2906 58.911 41.6033 59.3421 41.9098 59.781C42.0792 60.023 42.2479 60.2665 42.4092 60.5146C42.4698 60.6075 42.5303 60.7005 42.5847 60.7966C42.6067 60.8354 42.6301 60.8739 42.6488 60.9143C42.6613 60.9414 42.6236 60.8965 42.6468 60.9108C42.6277 60.8992 42.6455 61.0122 42.6543 60.9409C42.6519 60.9603 42.6034 61.1031 42.6295 61.0413C42.6051 61.1067 42.5572 61.1606 42.4952 61.1924C42.2429 61.3464 41.8894 61.2392 41.6197 61.1369C41.2 60.9779 40.8917 61.5826 41.1928 61.8723C41.3391 61.9907 41.458 62.1396 41.5412 62.3086C41.5557 62.3552 41.5245 62.3526 41.5509 62.3121C41.4919 62.3941 41.4128 62.4595 41.3211 62.5017C40.9481 62.6713 40.4999 62.4452 40.2105 62.2157C39.8829 61.9557 39.36 62.1849 39.477 62.6438C39.4674 62.6165 39.4647 62.5872 39.4691 62.5586C39.4735 62.53 39.4848 62.5029 39.5022 62.4797C39.5325 62.4335 39.5347 62.4258 39.5083 62.4577C39.4873 62.4744 39.4679 62.493 39.4504 62.5134C39.365 62.5706 39.2759 62.6221 39.1836 62.6674C39.058 62.7322 38.9206 62.7707 38.7797 62.7804C38.2673 62.8051 37.8845 62.4832 37.536 62.1462C37.4666 62.0805 37.3779 62.0391 37.2831 62.0282C37.1882 62.0172 37.0924 62.0373 37.0099 62.0855C36.9274 62.1336 36.8627 62.2072 36.8254 62.2952C36.788 62.3833 36.7801 62.4811 36.8028 62.5741C36.86 62.8759 36.3859 63.08 36.1485 63.0547C35.9567 63.0075 35.7819 62.9074 35.6438 62.7659C35.4265 62.5979 35.2184 62.4182 35.0207 62.2274C34.6291 61.8416 34.3261 61.3748 34.1329 60.8596C33.9392 60.3536 33.8258 59.8199 33.6243 59.3166C33.4024 58.8305 33.1345 58.3669 32.8244 57.9321C32.5747 57.5414 32.5567 57.4078 32.7392 56.9861C33.1563 56.0917 33.7723 55.305 34.5399 54.6865C35.3621 54.0184 36.6204 53.9044 37.6363 53.8468C38.198 53.8149 38.2015 52.9348 37.6363 52.9669L37.6361 52.9653Z" fill="#4A3E42"/>
<path d="M56.1646 56.6621C55.7306 56.6678 55.3019 56.7501 54.8681 56.7613C54.6805 56.7659 54.2098 56.7974 54.216 56.5125C54.2195 56.3477 54.3143 56.3282 54.4519 56.2611C54.7248 56.1291 55.0017 56.0032 55.2806 55.8834C55.8304 55.6475 56.388 55.4302 56.9385 55.1964C57.8506 54.809 58.7574 54.3197 59.7737 54.3263C60.5442 54.3004 61.3125 54.2291 62.0747 54.113C62.3959 54.0667 62.7208 54.0524 63.0447 54.0703C63.502 54.1695 63.9253 54.3877 64.2719 54.7027C64.6013 54.9468 64.8805 55.2526 65.0941 55.6031C65.3246 55.9923 65.5038 56.4098 65.627 56.8453C65.8712 57.7321 65.7863 58.801 65.186 59.5333C64.8964 59.8612 64.5758 60.1602 64.2287 60.4262C63.8695 60.7227 63.5253 61.0353 63.1735 61.3404C62.7939 61.6704 62.4089 61.9951 62.0084 62.2989C61.7359 62.5054 61.3809 62.8345 61.0261 62.8772C60.9281 62.8889 60.5709 62.882 60.536 62.7635C60.5061 62.6621 60.6909 62.494 60.7519 62.4249C61.1016 62.0305 61.5042 61.6851 61.8871 61.325C62.2992 60.9361 61.6778 60.3149 61.2664 60.7029C60.8514 61.0674 60.4559 61.4536 60.0816 61.86C59.7189 62.2837 59.4624 62.8539 59.8766 63.3444C60.2202 63.7512 60.905 63.8462 61.3932 63.6933C61.8138 63.527 62.2024 63.2888 62.5418 62.9894C63.4144 62.3187 64.2258 61.574 65.0682 60.8664C65.4905 60.5367 65.8546 60.1382 66.1453 59.6875C66.4323 59.1688 66.596 58.5907 66.6236 57.9982C66.7063 56.8697 66.2506 55.633 65.5722 54.739C65.2104 54.2986 64.774 53.9256 64.2829 53.6374C63.8538 53.3545 63.3545 53.1973 62.8411 53.1833C61.9251 53.1745 61.029 53.446 60.1147 53.4546C59.561 53.437 59.0075 53.4976 58.4706 53.6347C57.8794 53.8306 57.301 54.0635 56.7388 54.3321C56.0114 54.6482 55.2687 54.9286 54.5447 55.2518C53.961 55.5122 53.335 55.7716 53.3399 56.5178C53.3493 58.0207 55.2435 57.5543 56.1639 57.5422C56.7283 57.5347 56.7298 56.6548 56.1639 56.6623L56.1646 56.6621Z" fill="#4A3E42"/>
<path d="M58.5688 57.5653C58.6678 57.4885 58.4754 57.6355 58.4431 57.6597C58.364 57.7183 58.2845 57.777 58.2046 57.8357C58.0291 57.9643 57.8527 58.092 57.6754 58.2189C57.287 58.4975 56.8975 58.7746 56.5068 59.0502C55.7302 59.5667 54.9849 60.1289 54.2747 60.7339C53.8541 61.1136 54.4763 61.7344 54.8952 61.356C55.5754 60.7795 56.289 60.2438 57.0323 59.7517C57.7563 59.2387 58.4883 58.7321 59.1896 58.1874C59.2713 58.1046 59.3171 57.9928 59.3171 57.8764C59.3171 57.7599 59.2713 57.6481 59.1896 57.5653C59.1059 57.4855 58.9947 57.4409 58.8792 57.4409C58.7637 57.4409 58.6525 57.4855 58.5688 57.5653Z" fill="#4A3E42"/>
<path d="M61.639 60.4C61.5405 60.4803 61.3226 60.6345 61.1563 60.7476C60.9189 60.909 60.6778 61.0652 60.4355 61.2194C59.973 61.5137 59.5061 61.8008 59.0348 62.0806C58.581 62.3821 58.1083 62.654 57.6196 62.8946C57.3292 63.0328 56.9991 63.0627 56.6886 62.9788C56.4045 62.8833 56.5116 62.644 56.6491 62.4443C56.8925 62.0905 56.4027 61.5863 56.0486 61.8422C55.8697 61.9814 55.6585 62.073 55.4348 62.1085C55.2111 62.1439 54.982 62.1221 54.769 62.045C54.8208 62.069 54.7738 62.0514 54.7549 62.0311C54.7299 62.0099 54.7094 61.9839 54.6946 61.9546C54.6803 61.8883 54.6839 61.8193 54.7051 61.7548C54.7817 61.5144 54.9124 61.2947 55.0871 61.1129C55.3838 60.7339 55.0233 60.1752 54.5553 60.422C54.4521 60.4765 54.5801 60.4244 54.5004 60.4462C54.4848 60.4506 54.3293 60.4845 54.4096 60.4737C54.3259 60.4944 54.2379 60.4891 54.1573 60.4585C54.1285 60.4506 54.102 60.4359 54.0799 60.4159C54.0578 60.3958 54.0407 60.3707 54.03 60.3428C54.001 60.2881 53.9858 60.227 53.9858 60.165C53.9858 60.1031 54.001 60.042 54.03 59.9873C54.191 59.669 54.5638 59.3934 54.8199 59.1549C54.9849 59.002 55.1619 58.8619 55.3388 58.7231C56.2351 58.0191 57.1856 57.3858 58.0815 56.6799C58.1631 56.597 58.2089 56.4852 58.2089 56.3687C58.2089 56.2522 58.1631 56.1405 58.0815 56.0576C57.9978 55.9777 57.8867 55.9331 57.7711 55.9331C57.6555 55.9331 57.5444 55.9777 57.4607 56.0576C57.4081 56.0991 57.5318 56.0043 57.4403 56.0734L57.3497 56.142C57.2567 56.2117 57.1633 56.2809 57.0695 56.3497C56.8545 56.5078 56.6392 56.6655 56.4236 56.8227C55.9356 57.1797 55.4476 57.5369 54.9689 57.9065C54.1171 58.564 52.393 59.7871 53.4088 60.9746C53.8014 61.4337 54.4945 61.4482 54.9994 61.1818L54.4675 60.4908C54.175 60.8036 53.9612 61.1819 53.8439 61.5943C53.7901 61.8083 53.8015 62.0336 53.8766 62.2412C53.9517 62.4487 54.087 62.6289 54.2652 62.7586C54.8971 63.1959 55.9064 63.0246 56.4927 62.602L55.8924 62.0001C55.753 62.1821 55.6662 62.399 55.6414 62.627C55.6167 62.8551 55.6549 63.0856 55.752 63.2934C55.866 63.4723 56.0222 63.6203 56.2068 63.7245C56.3914 63.8286 56.5987 63.8856 56.8104 63.8904C57.7001 63.9857 58.4137 63.4588 59.1445 63.0365C60.2342 62.4479 61.276 61.7742 62.2602 61.0217C62.3418 60.9387 62.3875 60.827 62.3875 60.7105C62.3875 60.594 62.3418 60.4822 62.2602 60.3993C62.1766 60.3193 62.0654 60.2746 61.9498 60.2746C61.8342 60.2746 61.7231 60.3193 61.6395 60.3993L61.639 60.4Z" fill="#4A3E42"/>
<path d="M60.1671 58.9381C59.4102 59.4104 58.6613 59.8961 57.9344 60.4142C57.2662 60.8506 56.6252 61.3275 56.015 61.8423C55.5981 62.2255 56.2197 62.8465 56.6357 62.4644C56.8797 62.2492 57.1378 62.0508 57.4085 61.8705C57.756 61.6285 58.0952 61.3742 58.4397 61.1291C59.1466 60.6278 59.874 60.1568 60.609 59.6992C61.0876 59.4007 60.6474 58.6392 60.166 58.9394L60.1671 58.9381Z" fill="#4A3E42"/>
<path d="M46.9886 28.9004C47.5242 29.4261 48.3722 29.579 49.091 29.5786C49.8098 29.5781 50.6581 29.4263 51.1939 28.9004C51.5983 28.5044 50.9775 27.8816 50.5734 28.2783C50.5556 28.2956 50.4652 28.3726 50.5216 28.3277C50.578 28.2829 50.5185 28.3297 50.504 28.339C50.4799 28.3546 50.4564 28.3711 50.4318 28.386C50.3853 28.4146 50.3375 28.441 50.2888 28.4657C50.2561 28.4822 50.223 28.4978 50.1892 28.5125C50.2489 28.4861 50.1958 28.5095 50.1644 28.5207C49.82 28.6436 49.4565 28.7039 49.091 28.6986C48.7322 28.7058 48.3751 28.6479 48.0367 28.5279C48.0293 28.5253 47.9051 28.474 47.9929 28.5125C47.9648 28.5002 47.9369 28.487 47.9093 28.4736C47.8551 28.4468 47.802 28.4179 47.7506 28.3856C47.7116 28.3614 47.6754 28.3308 47.6359 28.3077C47.7482 28.3737 47.642 28.3099 47.6093 28.2778C47.2056 27.8818 46.5844 28.5031 46.9888 28.8999L46.9886 28.9004Z" fill="#4A3E42"/>
<path d="M48.9751 24.942C49.0593 25.2465 49.1266 25.5553 49.1768 25.8672L49.1612 25.7504C49.1671 25.7927 49.1682 25.8355 49.1645 25.878L49.1803 25.7612C49.1774 25.7807 49.1727 25.8 49.1663 25.8186L49.2101 25.7135C49.2046 25.7264 49.1977 25.7388 49.1897 25.7504L49.2584 25.6624C49.2495 25.6735 49.2394 25.6835 49.2283 25.6924L49.3172 25.6235C49.2937 25.638 49.2692 25.651 49.2439 25.6622L49.3488 25.6182C49.3093 25.635 49.268 25.6472 49.2257 25.6543L49.3422 25.6385C49.3038 25.6431 49.265 25.6431 49.2266 25.6385L49.3433 25.6543C49.2994 25.6481 49.2569 25.6376 49.2132 25.6323C49.0989 25.6056 48.9788 25.6212 48.8751 25.6763C48.775 25.7351 48.7023 25.8313 48.6727 25.9437C48.6431 26.0562 48.6592 26.1758 48.7173 26.2764C48.7452 26.3263 48.783 26.3699 48.8282 26.4047C48.8735 26.4394 48.9253 26.4646 48.9806 26.4786C49.0767 26.4915 49.1702 26.5162 49.2681 26.5206C49.4138 26.5215 49.5577 26.4873 49.6876 26.4209C49.7692 26.3842 49.8416 26.3295 49.8994 26.261C49.9572 26.1925 49.9989 26.1118 50.0215 26.025C50.0509 25.8827 50.0494 25.7358 50.0171 25.5942C49.9669 25.2962 49.898 25.0003 49.8216 24.7084C49.8063 24.6527 49.7802 24.6005 49.7448 24.5549C49.7094 24.5093 49.6654 24.4712 49.6152 24.4427C49.5651 24.4141 49.5099 24.3958 49.4527 24.3886C49.3955 24.3815 49.3375 24.3857 49.2819 24.4011C49.2263 24.4164 49.1743 24.4426 49.1288 24.4781C49.0834 24.5136 49.0453 24.5577 49.0168 24.608C48.9884 24.6583 48.9701 24.7136 48.9629 24.771C48.9558 24.8283 48.96 24.8865 48.9754 24.9422L48.9751 24.942Z" fill="#4A3E42"/>
<path d="M44.0879 22.4386C43.9343 22.9408 44.0341 24.0959 44.9831 24.1942C46.2372 24.1867 46.3039 22.7901 45.8827 22.1335C45.5371 21.5958 44.5205 21.3721 44.0879 22.4386Z" fill="#4A3E42"/>
<path d="M53.9184 22.4386C54.0719 22.9408 53.9721 24.0959 53.0234 24.1942C51.7692 24.1867 51.7023 22.7901 52.1238 22.1335C52.4702 21.5958 53.4859 21.3721 53.9184 22.4386Z" fill="#4A3E42"/>
</g>
</svg>
