<svg width="99" height="90" viewBox="0 0 99 90" fill="none" xmlns="http://www.w3.org/2000/svg">
<path fill-rule="evenodd" clip-rule="evenodd" d="M76.725 0C78.2619 0 79.7777 0.361451 81.1524 1.05573C82.5271 1.75001 83.7228 2.75804 84.645 4L97.9506 21.92C98.6185 22.8038 98.974 23.8882 98.9604 25H99V30C99.0049 34.8726 97.2441 39.5786 94.05 43.23V80C94.05 82.6522 93.007 85.1957 91.1503 87.0711C89.2937 88.9464 86.7756 90 84.15 90H14.85C12.2244 90 9.70627 88.9464 7.84966 87.0711C5.99305 85.1957 4.95002 82.6522 4.95002 80V43.23C1.75389 39.5798 -0.00714421 34.873 2.1784e-05 30V25H0.0396213C0.0260233 23.8882 0.381538 22.8038 1.04942 21.92L14.355 4C15.2772 2.75804 16.4729 1.75001 17.8476 1.05573C19.2223 0.361451 20.7381 0 22.275 0H76.725ZM89.1 30H69.3C69.2885 32.5949 70.2761 35.0927 72.0541 36.9658C73.8321 38.8388 76.2613 39.9403 78.8284 40.0377C81.3956 40.1351 83.8997 39.2206 85.8118 37.4875C87.7238 35.7545 88.8941 33.3385 89.0752 30.75L89.1 30ZM59.4 30H39.6C39.5885 32.5949 40.5761 35.0927 42.3541 36.9658C44.1321 38.8388 46.5613 39.9403 49.1285 40.0377C51.6956 40.1351 54.1998 39.2206 56.1118 37.4875C58.0239 35.7545 59.1941 33.3385 59.3753 30.75L59.4 30ZM29.7 30H9.90002C9.88852 32.5949 10.8761 35.0927 12.6541 36.9658C14.4321 38.8388 16.8613 39.9403 19.4285 40.0377C21.9956 40.1351 24.4998 39.2206 26.4118 37.4875C28.3239 35.7545 29.4941 33.3385 29.6753 30.75L29.7 30Z" fill="#D20754"/>
</svg>
