<svg width="100" height="103" viewBox="0 0 100 103" fill="none" xmlns="http://www.w3.org/2000/svg">
<path fill-rule="evenodd" clip-rule="evenodd" d="M73.1028 102.565C65.9358 102.293 45.6241 99.3961 24.3518 77.4473C3.08454 55.4933 0.282412 34.5359 0.0136473 27.134C-0.384523 15.8539 7.98701 4.89749 17.6576 0.618677C18.8221 0.0997072 20.0974 -0.0978805 21.3582 0.045303C22.6191 0.188487 23.8222 0.667521 24.8495 1.4354C32.8129 7.42471 38.3077 16.4857 43.026 23.6102C44.0642 25.1755 44.508 27.0803 44.2731 28.9616C44.0381 30.8429 43.1407 32.5692 41.7519 33.8116L32.0415 41.2546C31.5724 41.6042 31.2421 42.1177 31.1121 42.6996C30.9822 43.2816 31.0613 43.8924 31.3347 44.4187C33.5346 48.5435 37.4467 54.6869 41.9261 59.3098C46.4105 63.9328 52.6418 68.2373 56.9172 70.7645C57.4533 71.0751 58.0842 71.1619 58.6804 71.0071C59.2765 70.8524 59.7926 70.4678 60.1225 69.9324L66.4434 60.0033C67.6055 58.4101 69.3198 57.3429 71.2273 57.025C73.1348 56.7071 75.0875 57.1632 76.6764 58.2979C83.6792 63.301 91.8517 68.8742 97.8342 76.7795C98.6386 77.8475 99.1503 79.1188 99.3158 80.4606C99.4813 81.8025 99.2945 83.1656 98.7749 84.4074C94.609 94.4393 84.0674 102.981 73.1028 102.565Z" fill="#D20754"/>
</svg>
