<svg width="126" height="106" viewBox="0 0 126 106" fill="none" xmlns="http://www.w3.org/2000/svg">
<circle opacity="0.6" cx="63" cy="53" r="43" fill="#F2D5E1"/>
<path d="M93.1005 39L98.2156 36.1582C99.0318 35.7048 99.7048 35.0319 100.158 34.2157L103 29.1005L105.842 34.2157C106.295 35.0319 106.968 35.7048 107.784 36.1582L112.899 39L107.784 41.8418C106.968 42.2952 106.295 42.9681 105.842 43.7843L103 48.8995L100.158 43.7843C99.7048 42.9681 99.0318 42.2952 98.2156 41.8418L93.1005 39Z" fill="#F2D5E1"/>
<path d="M108 24.6567L110.923 23.0329C111.389 22.7738 111.774 22.3892 112.033 21.9228L113.657 18.9999L115.281 21.9228C115.54 22.3892 115.924 22.7738 116.391 23.0329L119.314 24.6567L116.391 26.2806C115.924 26.5397 115.54 26.9242 115.281 27.3906L113.657 30.3136L112.033 27.3906C111.774 26.9242 111.389 26.5397 110.923 26.2806L108 24.6567Z" fill="#F2D5E1"/>
<path d="M58.101 44.8028C58.2473 46.3124 58.4524 47.8211 58.6978 49.3026C61.8688 50.3363 65.2476 50.5625 68.528 49.9607C70.9925 49.6695 73.3828 48.9294 75.5806 47.777C76.3198 45.6958 76.9506 43.5777 77.4704 41.4312L77.7432 40.249L57.7815 41.235L58.101 44.8028Z" fill="white"/>
<path d="M65.6547 72.2164C64.6706 70.1608 63.7936 68.0556 63.0272 65.9093C61.1366 60.4999 59.6886 54.946 58.6974 49.3022C61.8683 50.3366 65.2473 50.5631 68.5279 49.961C70.9928 49.6699 73.3835 48.9295 75.5814 47.7766C75.2479 48.7539 74.9159 49.7115 74.6047 50.6613C72.4114 57.3567 67.7675 68.6374 66.2231 72.0726L65.6547 72.2164Z" fill="#64C7FF"/>
<path d="M53.9041 85.727C51.7248 88.369 48.1496 88.6466 45.1611 87.2951C42.9885 86.312 41.6357 83.9037 41.2897 82.2704C40.5964 79.0001 40.6012 76.178 41.2313 71.2584C41.8725 66.2493 43.3185 59.5834 44.1614 57.1948C44.9173 55.0526 45.7831 51.5717 47.9927 49.0796C50.0375 46.7735 55.0581 44.9872 58.0607 44.3485C58.8566 53.328 61.8029 62.371 63.0272 65.91C63.7937 68.0563 64.6707 70.1615 65.6548 72.2172L66.2232 72.0734C67.766 68.6382 72.4115 57.3574 74.6048 50.6621C75.5952 47.6413 76.7946 44.5418 77.5736 40.9734L78.5388 41.4322L82.0002 43.0773C87.5159 44.6878 92.0937 46.7195 95.2302 51.2477C98.0759 55.3558 99.8756 62.6837 100.681 65.6637C101.512 68.7344 102.374 71.8456 102.986 75.4013C103.32 77.2483 103.942 81.002 103.982 82.3912C104.014 83.5034 103.822 85.9938 103.509 87.0009C102.906 89.1368 101.636 91.0243 99.8855 92.3885C96.742 94.9125 91.6796 97.0171 88.9243 97.9902L86.4063 96.8033L53.9041 85.727Z" fill="#BDBDBD"/>
<path d="M48.61 65.3013C48.0044 65.3125 47.4176 65.514 46.9328 65.8772C46.448 66.2404 46.0897 66.7469 45.9087 67.325C45.7947 67.8884 45.5296 68.4102 45.1419 68.8346C44.4288 69.6435 43.8639 71.0835 43.6671 72.3966C43.2732 75.0484 43.9282 77.8919 44.6598 78.9242C44.9572 79.331 45.3281 79.6786 45.7534 79.9489C47.1081 80.6562 47.7889 80.46 49.1858 80.2147L50.8753 79.791L52.0743 79.4904C51.6002 77.9923 51.1925 76.6961 50.8877 75.7187C52.5708 75.319 54.9262 74.7603 57.5115 74.1478C57.6393 72.2893 57.8086 69.8432 57.8086 69.8432C58.0713 67.7665 56.4348 64.6623 54.0581 65.5597L48.61 65.3013Z" fill="white"/>
<path d="M44.9189 59.7542L45.9272 58.597C45.9778 58.5394 46.0398 58.4931 46.1093 58.4608C46.1788 58.4284 46.2542 58.4109 46.3308 58.4093C46.4074 58.4077 46.4835 58.422 46.5543 58.4513C46.6251 58.4807 46.689 58.5244 46.742 58.5797C50.9708 62.9814 54.4977 66.5751 59.1908 71.2196L61.3982 73.2283C60.3074 73.4858 59.2192 73.7433 58.1623 73.9951C57.153 73.0615 56.1428 72.1289 56.1428 72.1289C52.5005 68.493 48.4244 64.2712 44.9285 60.4941C44.836 60.3936 44.7839 60.2625 44.7822 60.126C44.7804 59.9894 44.8291 59.8571 44.9189 59.7542Z" fill="#726A69"/>
<path d="M55.2989 74.3722C55.5069 74.1214 55.7143 73.8693 55.9379 73.6336C56.051 73.515 56.1686 73.4006 56.2916 73.2926C56.3267 73.2607 56.4347 73.1383 56.4811 73.1348L56.4172 73.1827C56.4398 73.1652 56.4628 73.1479 56.4862 73.1307C56.5216 73.1045 56.5574 73.0786 56.5935 73.0533C56.6696 73.0003 56.7468 72.9491 56.8252 72.8997C56.9009 72.864 56.9722 72.8196 57.0376 72.7674C56.8405 72.9856 56.3619 72.4096 56.3769 72.4658C56.3731 72.4517 56.3414 72.1754 56.406 72.1782C56.3929 72.2004 56.3785 72.2217 56.3628 72.2421L56.4143 72.1747C56.3851 72.2195 56.3513 72.2611 56.3136 72.299L55.4743 73.3345C55.368 73.4458 55.3046 73.5912 55.2955 73.7449C55.2864 73.8985 55.3321 74.0504 55.4245 74.1735C55.519 74.2956 55.6544 74.3795 55.8059 74.4098C55.9573 74.44 56.1146 74.4145 56.2488 74.338C56.4782 74.2079 56.7083 74.0796 56.9392 73.953C57.0031 73.9234 56.996 73.9255 56.9178 73.9591C56.9475 73.9476 56.9776 73.9368 57.0079 73.9272C57.0383 73.9176 57.2526 73.8521 57.076 73.8991C57.1405 73.8903 57.2058 73.888 57.2709 73.892C57.3437 73.8978 57.3348 73.8949 57.2463 73.8834C57.2782 73.8885 57.3101 73.8946 57.3421 73.9022C57.5055 73.9473 57.6801 73.9256 57.8275 73.8419C57.9749 73.7582 58.083 73.6193 58.1281 73.4559C58.1731 73.2925 58.1514 73.1179 58.0677 72.9705C57.984 72.8231 57.8451 72.715 57.6817 72.67C57.3003 72.5777 56.8999 72.6039 56.5338 72.745C56.2137 72.8884 55.9031 73.0518 55.6037 73.2345L56.3782 74.238L56.9153 73.5754C57.099 73.3486 57.2986 73.1281 57.4664 72.8872C57.5847 72.7251 57.6443 72.5276 57.6354 72.3272C57.6266 72.1267 57.5497 71.9353 57.4175 71.7843C57.2741 71.6433 57.0853 71.5579 56.8847 71.5433C56.6842 71.5286 56.4849 71.5858 56.3226 71.7044C55.9234 71.9464 55.5508 72.2297 55.2111 72.5498C54.9214 72.8402 54.6484 73.1467 54.3932 73.4677C54.2773 73.5902 54.2107 73.751 54.2059 73.9195C54.2059 74.0459 54.2433 74.1694 54.3135 74.2746C54.3837 74.3797 54.4835 74.4616 54.6003 74.51C54.717 74.5584 54.8455 74.5711 54.9695 74.5464C55.0934 74.5218 55.2073 74.4609 55.2967 74.3716L55.2989 74.3722Z" fill="#726A69"/>
<path d="M79.642 85.8809C78.6011 83.1719 75.0921 73.8576 73.7841 70.325C69.6728 71.2636 56.5166 74.3809 50.8865 75.7187C52.5479 81.051 57.2847 95.8747 59.0726 101.236C59.9384 100.989 70.0719 98.107 72.57 97.321" fill="white"/>
<path d="M81.4337 83.0186C81.1379 82.8991 80.8336 82.8014 80.5235 82.7266L78.9627 82.5349L78.3419 82.4573C78.9276 84.0052 79.4142 85.2851 79.6908 86.0037C78.8471 86.6682 78.3419 87.0219 76.7655 87.0344C75.1189 87.0472 71.0677 87.1941 69.4229 87.2861C69.1417 87.2818 68.8633 87.3421 68.6091 87.4625C68.3549 87.5829 68.1318 87.7601 67.9571 87.9804C67.8024 88.2494 67.7264 88.5565 67.7377 88.8666C67.749 89.1767 67.8471 89.4774 68.021 89.7344C68.166 89.9083 68.3465 90.0493 68.5503 90.1479C68.7542 90.2465 68.9767 90.3005 69.2031 90.3063C67.9277 90.8785 68.051 92.5652 68.7609 93.1364C69.1939 93.4354 69.7161 93.5773 70.2408 93.5383C69.983 93.9235 69.8505 94.3789 69.8613 94.8422C69.8813 95.127 69.986 95.3993 70.162 95.6242C70.3379 95.849 70.5771 96.0161 70.8488 96.1039C71.5964 96.3841 72.4463 96.217 73.2089 96.2288C72.6396 96.8678 73.0696 97.7806 73.7284 98.164C74.3191 98.4456 74.9686 98.5818 75.6227 98.5611C78.3685 98.6889 81.1797 98.8122 83.8063 98.001C84.3475 97.8336 84.8763 97.6282 85.4037 97.4228C87.3143 96.6378 88.592 94.0476 88.2939 91.8504C88.177 91.1185 87.9832 90.401 87.7156 89.7098C87.1138 88.3871 86.2824 87.1815 85.26 86.1487C84.5251 85.3979 83.5289 84.2506 82.1267 83.3483C81.9023 83.2251 81.6709 83.115 81.4337 83.0186Z" fill="white"/>
<path d="M51.775 40.339C49.3184 39.594 47.5551 38.3409 46.4395 36.3936C45.0225 33.9015 45.0615 31.0663 45.5541 28.2401C46.1311 24.9611 46.8641 21.0124 47.6008 17.7606C48.7369 12.7934 49.7414 10.1566 52.2016 7.50801C54.4051 5.38209 59.0209 2.79577 64.6181 2.76638C67.4048 2.70826 70.1736 3.22408 72.7525 4.28175L73.1716 4.51562L75.0992 5.59232C78.1238 6.94794 80.1025 9.91892 81.0597 11.8452C82.3376 14.4219 82.6789 18.2456 83.3313 21.2271C84.1073 24.7662 84.9128 27.1873 85.4748 30.1692C85.8719 32.4274 85.4408 34.753 84.2607 36.7188C82.499 39.6713 79.4072 41.3899 75.1094 41.2279L51.775 40.339Z" fill="#726A69"/>
<path d="M68.5525 42.7642C67.1078 43.441 65.5938 43.9586 64.0371 44.308C63.4929 44.4117 62.9439 44.4881 62.392 44.5368C58.86 44.8518 55.9312 43.9268 53.1695 41.6706C50.5352 39.5178 49.387 36.1216 48.9716 32.3649C48.7198 30.0889 48.5026 27.6045 48.163 25.1328C50.9105 24.1468 53.5805 22.9564 56.1503 21.5717C60.5552 19.196 62.4764 17.4713 65.1183 14.1997C67.3391 16.6643 70.7059 21.1967 72.5523 25.0031L73.0561 26.0508C73.1831 26.3149 73.3895 26.5327 73.6463 26.6738C73.9032 26.8149 74.1977 26.8722 74.4888 26.8377L77.9495 26.4271C78.4539 26.0848 79.0703 25.9487 79.6719 26.0466C80.8541 26.2249 81.2867 26.8952 81.4611 27.2786C81.9822 28.4256 81.7237 30.3933 81.1442 31.5636C80.6522 32.7041 79.8313 33.6719 78.7863 34.3433C78.0313 34.7398 77.18 34.9158 76.3297 34.8513C76.2185 35.0819 76.1476 35.2299 76.1476 35.2299C75.8779 35.7938 75.2396 36.781 75.2396 36.781C74.5837 37.7717 73.8408 38.7019 73.0197 39.5606C71.6913 40.8364 70.187 41.9152 68.5525 42.7642Z" fill="white"/>
<path d="M63.3627 29.2266C63.155 28.4598 63.3665 26.7195 64.809 26.6201C66.7084 26.6962 66.7378 28.8099 66.0647 29.7802C65.5132 30.5748 63.9621 30.8601 63.3627 29.2266Z" fill="#726A69"/>
<path d="M52.0709 29.1972C51.8792 28.4282 52.075 26.6821 53.3958 26.5818C55.1355 26.6578 55.1617 28.7783 54.546 29.7518C54.0399 30.5493 52.6194 30.8359 52.0709 29.1972Z" fill="#726A69"/>
<path d="M57.9228 30.9575C57.6771 31.3728 57.4413 31.7933 57.2327 32.2272C57.1125 32.4462 57.039 32.6877 57.0167 32.9365C57.0106 33.0885 57.0385 33.24 57.0984 33.3799C57.1584 33.5198 57.2487 33.6446 57.363 33.7451C57.5458 33.9177 57.7675 34.0437 58.0094 34.1125C58.1669 34.1442 58.3264 34.1656 58.4867 34.1764L58.2829 34.1489L58.3014 34.1515C58.5011 34.1988 58.7113 34.1713 58.8921 34.0742C59.0677 33.9716 59.1953 33.8034 59.2469 33.6067C59.2985 33.41 59.2698 33.2008 59.1672 33.0253C59.1184 32.9389 59.0527 32.8633 58.9739 32.8029C58.8952 32.7425 58.8051 32.6986 58.7091 32.6738C58.5739 32.654 58.4388 32.6419 58.3039 32.6253L58.5078 32.6524C58.4435 32.6432 58.3805 32.6264 58.3202 32.6023L58.5036 32.6796C58.4485 32.6544 58.3961 32.6236 58.3474 32.5876L58.5023 32.7074C58.4553 32.6714 58.4117 32.6309 58.3723 32.5866L58.4921 32.7419C58.4814 32.7277 58.4723 32.7122 58.4653 32.6959L58.5426 32.8789C58.5331 32.8543 58.5265 32.8287 58.5228 32.8026L58.5503 33.0064C58.548 32.9789 58.548 32.9512 58.5503 32.9237L58.5228 33.1275C58.5343 33.0585 58.5541 32.9911 58.5819 32.9269L58.5046 33.1099C58.7239 32.6365 58.9714 32.1767 59.2458 31.7329C59.3485 31.5573 59.3772 31.3481 59.3256 31.1513C59.274 30.9546 59.1463 30.7863 58.9707 30.6837C58.7951 30.581 58.5859 30.5523 58.3891 30.6039C58.1924 30.6555 58.0242 30.7832 57.9215 30.9588L57.9228 30.9575Z" fill="#726A69"/>
<path d="M78.3365 27.0898C78.6726 26.8699 79.0723 26.7681 79.4727 26.8003C79.8731 26.8325 80.2513 26.997 80.548 27.2677C80.5749 27.2946 80.6002 27.3228 80.6241 27.3524C80.6157 27.3422 80.5634 27.2681 80.6116 27.3371C80.6477 27.3888 80.6816 27.4425 80.7129 27.4968C80.7765 27.611 80.8253 27.7329 80.8579 27.8594C80.9666 28.288 81.0031 28.7317 80.9659 29.1723C80.8701 30.8905 79.9196 32.795 78.3991 33.681C78.2675 33.7641 78.1248 33.828 77.9751 33.8708C77.744 33.949 77.5075 34.0104 77.2674 34.0545C76.8096 34.1593 76.331 34.1267 75.8917 33.9605C75.7147 33.8638 75.5075 33.8383 75.3124 33.8895C75.1173 33.9406 74.9492 34.0645 74.8425 34.2356C74.7415 34.4116 74.7138 34.6203 74.7653 34.8165C74.8167 35.0128 74.9432 35.181 75.1176 35.2848C75.6985 35.524 76.3228 35.6399 76.9509 35.6254C77.579 35.6109 78.1972 35.4662 78.7665 35.2005C79.8988 34.7213 80.7995 33.7273 81.4142 32.6854C82.0333 31.6539 82.4023 30.4918 82.4918 29.2921C82.5707 28.2211 82.4126 27.0304 81.6592 26.2109C81.1276 25.684 80.4331 25.353 79.6891 25.2718C78.945 25.1905 78.1954 25.3639 77.5627 25.7636C76.7467 26.3099 77.5134 27.639 78.3365 27.0879V27.0898Z" fill="#726A69"/>
<path d="M68.9398 43.4263C70.6082 42.57 72.142 41.4737 73.4923 40.1723C74.2217 39.4317 74.8863 38.63 75.4789 37.7761C75.9813 37.0943 76.4265 36.3721 76.8099 35.6169C76.9075 35.4401 76.9334 35.2326 76.8822 35.0373C76.831 34.842 76.7066 34.6739 76.5349 34.5677C76.3588 34.4669 76.1502 34.4392 75.954 34.4906C75.7577 34.5421 75.5896 34.6685 75.4856 34.8428C73.9278 38.0227 71.275 40.478 68.1657 42.1017C67.2906 42.5586 68.065 43.8826 68.9398 43.4257V43.4263Z" fill="#726A69"/>
<path d="M47.4448 25.4919C47.7885 28.1022 47.9617 30.7342 48.3288 33.3419C48.5796 35.4769 49.2428 37.5428 50.2816 39.4248C52.4861 43.1949 56.9031 45.4023 61.2083 45.3646C63.9205 45.3406 66.4944 44.5534 68.9401 43.4278C69.1144 43.324 69.241 43.1559 69.2925 42.9597C69.3439 42.7634 69.3162 42.5548 69.2152 42.3789C69.1093 42.2068 68.9412 42.0821 68.7458 42.0309C68.5503 41.9796 68.3426 42.0057 68.166 42.1038C64.4502 43.8131 60.0639 44.6224 56.2427 42.7549C54.4688 41.9395 52.9499 40.6572 51.8484 39.0453C50.786 37.3944 50.2279 35.4874 49.9068 33.5656C49.4595 30.8978 49.3317 28.1725 48.9803 25.4907C48.9739 25.2893 48.8911 25.0979 48.7487 24.9555C48.6062 24.813 48.4148 24.7302 48.2135 24.7239C47.8413 24.7239 47.392 25.0769 47.4467 25.4907L47.4448 25.4919Z" fill="#726A69"/>
<path d="M64.5748 13.6577C63.1954 15.4484 61.5887 17.0518 59.7952 18.4274C57.5163 20.0329 55.0828 21.4068 52.5308 22.5285C51.1471 23.163 49.7307 23.7192 48.3093 24.2608C48.1163 24.3197 47.9533 24.4502 47.8537 24.6257C47.7541 24.8011 47.7255 25.0081 47.7738 25.2039C47.8291 25.3992 47.9591 25.5649 48.1356 25.6652C48.312 25.7655 48.5209 25.7922 48.717 25.7397C51.4868 24.7101 54.1834 23.4932 56.7881 22.0975C59.0344 20.931 61.1133 19.4672 62.9687 17.7456C63.9259 16.8003 64.8244 15.7974 65.6592 14.7424C65.7976 14.5958 65.8747 14.4018 65.8747 14.2002C65.8747 13.9986 65.7976 13.8046 65.6592 13.658C65.5147 13.5156 65.3199 13.4358 65.117 13.4358C64.9141 13.4358 64.7194 13.5156 64.5748 13.658V13.6577Z" fill="#726A69"/>
<path d="M64.5749 14.742C65.9285 16.2644 67.1897 17.8666 68.3517 19.5399C69.6842 21.3934 70.8674 23.3499 71.8901 25.3908C71.9941 25.5649 72.1623 25.6913 72.3585 25.7427C72.5547 25.7941 72.7632 25.7666 72.9393 25.6659C73.1117 25.5603 73.2366 25.3922 73.2879 25.1966C73.3392 25.0011 73.3128 24.7932 73.2144 24.6167C72.1714 22.5366 70.9628 20.5437 69.6002 18.6574C68.3853 16.915 67.0689 15.2456 65.658 13.6577C64.9966 12.9228 63.9148 14.0091 64.5736 14.742H64.5749Z" fill="#726A69"/>
<path d="M76.9682 34.8664C76.7799 34.8643 76.593 34.9001 76.4188 34.9717C76.2446 35.0432 76.0865 35.1491 75.954 35.2829C75.8215 35.4168 75.7172 35.5759 75.6473 35.7508C75.5775 35.9257 75.5435 36.1129 75.5474 36.3012C75.5934 37.1162 76.2503 37.6431 77.1216 37.5932C78.0267 37.5424 78.5861 36.9428 78.5408 36.1332C78.5236 35.9456 78.4689 35.7634 78.3799 35.5974C78.2909 35.4313 78.1694 35.2849 78.0228 35.1667C77.8761 35.0486 77.7071 34.9611 77.526 34.9095C77.3448 34.8579 77.1552 34.8432 76.9682 34.8664Z" fill="white"/>
<path d="M76.9682 34.0998C76.4987 34.1103 76.044 34.2659 75.6665 34.5451C75.2889 34.8244 75.007 35.2137 74.8595 35.6595C74.7377 36.0968 74.7587 36.5615 74.9197 36.9859C75.0806 37.4103 75.373 37.7722 75.7541 38.0187C76.1385 38.245 76.5761 38.3653 77.0221 38.3675C77.4682 38.3697 77.9069 38.2537 78.2935 38.0312C78.6761 37.7971 78.9748 37.448 79.1469 37.0338C79.3191 36.6197 79.3559 36.1617 79.252 35.7254C79.1176 35.2323 78.8167 34.8011 78.4004 34.5047C77.9841 34.2084 77.478 34.0653 76.9682 34.0998C76.7649 34.0998 76.5698 34.1805 76.426 34.3243C76.2822 34.4681 76.2014 34.6632 76.2014 34.8666C76.2014 35.0699 76.2822 35.2649 76.426 35.4088C76.5698 35.5526 76.7649 35.6333 76.9682 35.6333C77.0427 35.6293 77.1174 35.6293 77.1919 35.6333C77.2644 35.6385 77.3689 35.6832 77.1577 35.626C77.1842 35.633 77.213 35.6359 77.2395 35.642C77.3059 35.6567 77.3695 35.6784 77.4344 35.6985C77.5775 35.7423 77.2666 35.611 77.3963 35.6822C77.4302 35.7011 77.465 35.7174 77.4983 35.7372C77.5257 35.7531 77.5516 35.7717 77.5788 35.7883C77.6449 35.8289 77.6427 35.8819 77.5286 35.7477C77.5679 35.7934 77.6216 35.8305 77.6628 35.8755C77.7948 36.0202 77.5714 35.7305 77.6769 35.8944C77.6935 35.9199 77.7088 35.9461 77.7235 35.973C77.7628 36.0445 77.7682 36.1477 77.7162 35.9385C77.7309 35.9976 77.7567 36.0541 77.7708 36.1139C77.7744 36.1384 77.7793 36.1627 77.7855 36.1867C77.7216 36.0011 77.7698 36.0433 77.7753 36.1324C77.7794 36.1972 77.7794 36.2622 77.7753 36.327C77.7753 36.3519 77.7689 36.3774 77.7682 36.402C77.7743 36.1634 77.7842 36.2877 77.7663 36.3615C77.7571 36.4001 77.6842 36.5976 77.7446 36.4573C77.805 36.3171 77.7168 36.5056 77.6973 36.5385C77.6823 36.5634 77.6654 36.587 77.6497 36.6116C77.5858 36.7116 77.7056 36.5324 77.7063 36.5394C77.7085 36.5765 77.5874 36.6618 77.558 36.6896C77.4561 36.7854 77.7178 36.5832 77.5992 36.6576C77.5788 36.6701 77.559 36.6845 77.5382 36.6973C77.4852 36.7292 77.4261 36.7519 77.373 36.7838C77.5523 36.6759 77.4832 36.7388 77.412 36.7624C77.3871 36.7711 77.3615 36.7787 77.336 36.7861C77.297 36.7969 77.2574 36.8065 77.2174 36.8152C77.1491 36.8295 77.036 36.8132 77.2548 36.8152C77.1829 36.8152 77.1094 36.8289 77.0372 36.8295C76.965 36.8302 76.8954 36.8152 76.828 36.8209C76.9877 36.8075 76.982 36.8465 76.9113 36.8321C76.8727 36.8241 76.8337 36.8174 76.7954 36.8078C76.7701 36.8017 76.7452 36.7947 76.7203 36.7874C76.6465 36.7653 76.5216 36.6822 76.7254 36.7992C76.672 36.7688 76.6145 36.7461 76.5618 36.7139C76.5411 36.7011 76.5212 36.687 76.5008 36.6743C76.381 36.6001 76.6433 36.8021 76.5417 36.7062C76.5027 36.6691 76.465 36.6311 76.4267 36.5934C76.3775 36.5449 76.3676 36.4768 76.4676 36.6519C76.4497 36.6199 76.426 36.5928 76.4072 36.5621C76.3883 36.5314 76.3727 36.4982 76.3545 36.4663C76.2941 36.3618 76.3887 36.5509 76.3864 36.5487C76.3562 36.4932 76.3368 36.4325 76.3292 36.3698C76.32 36.3327 76.3171 36.2921 76.3062 36.2557C76.3605 36.434 76.3216 36.4072 76.319 36.341C76.3161 36.2647 76.3158 36.1905 76.319 36.1142C76.3254 35.9746 76.2794 36.2826 76.3094 36.1905C76.3225 36.1506 76.3276 36.1068 76.3398 36.0663C76.3468 36.0429 76.3554 36.0202 76.3625 35.9969C76.3998 35.8749 76.2666 36.1854 76.3589 36.0139C76.3704 35.9921 76.3823 35.971 76.395 35.95C76.4078 35.9289 76.5085 35.7902 76.4184 35.9065C76.3315 36.018 76.411 35.9183 76.4289 35.8982C76.4541 35.8704 76.4803 35.8436 76.5078 35.818C76.5353 35.7924 76.5673 35.7701 76.5938 35.7436C76.4506 35.8857 76.5024 35.8132 76.5641 35.7739C76.6257 35.7346 76.8676 35.6461 76.628 35.7241C76.7075 35.6976 76.7845 35.6678 76.8666 35.6487C76.8947 35.6423 76.9228 35.6372 76.951 35.6311C77.0328 35.618 77.0085 35.6209 76.8788 35.6397C76.9088 35.6365 76.9388 35.6343 76.9692 35.6324C77.1725 35.6324 77.3676 35.5516 77.5114 35.4078C77.6552 35.264 77.736 35.069 77.736 34.8656C77.736 34.6622 77.6552 34.4672 77.5114 34.3234C77.3676 34.1796 77.1725 34.0988 76.9692 34.0988L76.9682 34.0998Z" fill="#726A69"/>
<path d="M54.8252 44.4489C52.7107 45.1613 50.5484 46.0409 48.7496 47.386C47.0352 48.6681 45.8943 50.4883 45.0563 52.434C43.7357 55.6276 42.7238 58.9402 42.0345 62.3266C41.0933 66.6439 40.3012 71.0545 40.0514 75.4719C39.9339 77.3637 40.0181 79.2626 40.3025 81.1365C40.4058 81.963 40.6024 82.7751 40.8885 83.5574C41.2509 84.4641 41.7519 85.3091 42.3735 86.0622C44.9195 89.1495 50.0771 89.8246 53.2775 87.3792C53.7069 87.0535 54.099 86.6814 54.4466 86.2696C54.5854 86.1232 54.6628 85.9291 54.6628 85.7274C54.6628 85.5256 54.5854 85.3316 54.4466 85.1852C54.3018 85.0424 54.1067 84.9624 53.9034 84.9624C53.7001 84.9624 53.505 85.0424 53.3603 85.1852C52.795 85.8646 52.0852 86.4091 51.2826 86.7792C50.48 87.1492 49.6049 87.3353 48.7212 87.3239C46.9796 87.3223 45.1576 86.7379 43.9157 85.4862C42.7304 84.2912 42.1444 82.8174 41.8565 81.1886C41.5756 79.5184 41.4734 77.8229 41.5517 76.131C41.7115 71.9721 42.4463 67.818 43.2949 63.7509C43.9331 60.6362 44.7871 57.5698 45.8509 54.5737C46.5538 52.6072 47.4752 50.518 49.0586 49.0956C50.7653 47.562 53.0865 46.6502 55.2309 45.9275C56.1613 45.6141 55.7622 44.1323 54.8233 44.4489H54.8252Z" fill="#90898C"/>
<path d="M84.2501 85.4742C85.9817 84.7393 87.6457 83.8844 89.3367 83.0652C89.5109 82.9612 89.6373 82.793 89.6888 82.5968C89.7402 82.4006 89.7126 82.192 89.6118 82.016C89.5062 81.8436 89.3381 81.7187 89.1425 81.6675C88.947 81.6162 88.7392 81.6425 88.5626 81.7409C86.8715 82.5601 85.2079 83.416 83.4762 84.1502C83.3015 84.2536 83.1746 84.4217 83.1231 84.6181C83.0716 84.8145 83.0997 85.0233 83.2012 85.1991C83.3073 85.3708 83.4754 85.4951 83.6706 85.5463C83.8659 85.5975 84.0733 85.5716 84.2501 85.4742Z" fill="#90898C"/>
<path d="M85.4814 69.6281L88.053 79.0421C88.313 79.9929 89.7929 79.5894 89.5319 78.6344L86.9603 69.2214C86.7005 68.2706 85.2206 68.6744 85.4814 69.6291V69.6281Z" fill="#90898C"/>
<path d="M81.2091 46.0618C81.5684 46.5806 81.8807 47.1304 82.1423 47.7046C82.3294 48.0543 82.4661 48.4288 82.5481 48.8168V48.4091C82.7572 48.118 82.8114 48.0198 82.7107 48.1146C82.834 48.0221 82.863 47.999 82.7976 48.0452C82.7482 48.071 82.7008 48.1004 82.6557 48.1331C82.5353 48.2047 82.4116 48.2705 82.2883 48.336C81.9001 48.5417 81.5056 48.7357 81.111 48.9286C80.325 49.312 79.5333 49.6849 78.7467 50.0664C78.6466 50.1266 78.5615 50.2087 78.4976 50.3065C78.4338 50.4043 78.3928 50.5152 78.3779 50.6311C78.363 50.7469 78.3744 50.8646 78.4114 50.9754C78.4484 51.0862 78.5099 51.1872 78.5914 51.2708C79.178 51.9047 79.7697 52.5338 80.3487 53.1747C80.6451 53.5032 80.9499 53.829 81.2285 54.1725C81.3224 54.2525 81.3886 54.3601 81.4179 54.4799C81.4472 54.5997 81.4381 54.7256 81.3918 54.8399C81.1551 55.3124 80.8928 55.7717 80.6062 56.2157C80.2911 56.7563 79.9717 57.2945 79.6477 57.8304C78.0502 60.4863 76.3946 63.1061 74.6808 65.69C73.6542 67.2436 72.6058 68.7824 71.5357 70.3064C71.4347 70.4824 71.4069 70.691 71.4584 70.8873C71.5098 71.0836 71.6364 71.2518 71.8108 71.3556C71.9873 71.4541 72.1951 71.4804 72.3906 71.4291C72.5861 71.3778 72.7542 71.2529 72.8597 71.0805C74.8473 68.2616 76.7463 65.3798 78.5886 62.4641C79.4161 61.1543 80.2295 59.8359 81.0289 58.5087C81.365 57.9494 81.697 57.3876 82.0251 56.8234C82.3731 56.3157 82.6636 55.7709 82.8912 55.199C83.228 54.0914 82.4979 53.2901 81.8187 52.5226C81.1177 51.7309 80.3921 50.9616 79.6739 50.1858L79.5186 51.39C80.8001 50.7686 82.1247 50.2047 83.3609 49.4954C83.5913 49.3875 83.7903 49.2226 83.9391 49.0162C84.1407 48.6781 84.0158 48.2864 83.8925 47.9449C83.5587 47.002 83.101 46.1077 82.5315 45.2854C82.4251 45.1139 82.2571 44.9898 82.0619 44.9386C81.8667 44.8874 81.6593 44.9131 81.4825 45.0103C81.3082 45.1141 81.1816 45.2823 81.1301 45.4786C81.0787 45.6749 81.1065 45.8836 81.2075 46.0596L81.2091 46.0618Z" fill="#90898C"/>
<path d="M57.3341 44.8027C57.8004 49.2431 58.6231 53.6388 59.7942 57.9474C60.5773 60.9072 61.4633 63.8526 62.5071 66.7316C63.2317 68.7303 64.1026 70.6735 64.9924 72.6033C65.0962 72.7776 65.2644 72.9042 65.4607 72.9557C65.657 73.0071 65.8656 72.9794 66.0416 72.8783C66.2138 72.7725 66.3384 72.6044 66.3897 72.4089C66.4409 72.2135 66.4148 72.0058 66.3167 71.8291C65.0015 68.9966 63.8616 66.086 62.9036 63.1136C61.7592 59.5694 60.803 55.9672 60.039 52.322C59.5158 49.838 59.1248 47.3281 58.8677 44.8027C58.8624 44.601 58.7799 44.409 58.6372 44.2664C58.4945 44.1237 58.3026 44.0412 58.1009 44.0359C57.898 44.0373 57.7038 44.1186 57.5603 44.2621C57.4168 44.4055 57.3355 44.5998 57.3341 44.8027Z" fill="#90898C"/>
<path d="M89.1281 98.7284C91.625 97.8541 94.0516 96.7907 96.3867 95.5475C98.9916 94.1471 101.622 92.4356 103.136 89.8164C103.738 88.8039 104.166 87.6982 104.404 86.5448C104.626 85.3163 104.742 84.071 104.751 82.8226C104.732 81.7906 104.636 80.7615 104.462 79.744C104.285 78.4823 104.081 77.2248 103.862 75.9698C103.307 72.7812 102.554 69.6521 101.71 66.529C101.119 64.3411 100.555 62.1455 99.8811 59.9793C99.1237 57.3727 98.1111 54.8471 96.858 52.4393C95.5662 50.0773 93.7565 48.0383 91.5646 46.4752C89.3201 44.8672 86.7351 43.7892 84.1248 42.9288C83.7893 42.8187 83.4526 42.7122 83.1146 42.6093C82.9535 42.5597 82.7924 42.5109 82.6312 42.463C82.5296 42.4327 82.428 42.4036 82.3267 42.3726C82.3206 42.3707 82.4178 42.4234 82.3746 42.4081C82.1558 42.3298 81.9439 42.2033 81.7356 42.1036L79.4148 41.0007L78.9269 40.769C78.7501 40.6719 78.5427 40.6462 78.3475 40.6974C78.1523 40.7486 77.9842 40.8727 77.8777 41.0441C77.7768 41.2201 77.7491 41.4287 77.8006 41.6249C77.852 41.8211 77.9785 41.9892 78.1528 42.093C79.296 42.6362 80.4321 43.1982 81.5835 43.7225C82.1264 43.9325 82.6812 44.1104 83.2449 44.2554C83.9069 44.4662 84.5651 44.6896 85.2165 44.9314C86.4394 45.3777 87.6278 45.9131 88.7722 46.5334C91.0378 47.7403 92.9967 49.4505 94.4982 51.5325C95.9612 53.614 96.9264 56.0262 97.7571 58.417C98.5136 60.6008 99.1334 62.826 99.7274 65.059C100.486 67.9086 101.287 70.746 101.877 73.6378C102.385 76.1203 102.825 78.6417 103.113 81.1597C103.22 82.1264 103.237 83.101 103.164 84.0709C103.124 85.1575 102.939 86.2338 102.614 87.2716C102.221 88.4458 101.602 89.5322 100.793 90.4701C99.8184 91.5225 98.6955 92.4273 97.4599 93.1561C95.1535 94.5621 92.7207 95.7494 90.1933 96.7025C89.7058 96.8923 89.2159 97.0745 88.7236 97.2491C88.5303 97.3075 88.3668 97.4381 88.267 97.6137C88.1673 97.7893 88.1389 97.9966 88.1878 98.1926C88.2435 98.3877 88.3736 98.5532 88.55 98.6533C88.7265 98.7535 88.9353 98.7803 89.1313 98.7281L89.1281 98.7284Z" fill="#90898C"/>
<path d="M60.7787 50.6471C63.41 51.1271 66.1047 51.1451 68.7421 50.7002C71.2597 50.3584 73.7016 49.5944 75.965 48.4404C76.8394 47.9819 76.065 46.6576 75.1908 47.1161C73.1308 48.1841 70.9002 48.8842 68.5993 49.1848C67.3728 49.3784 66.1346 49.4899 64.8932 49.5183C63.6494 49.5223 62.4081 49.4051 61.187 49.1685C60.9911 49.1196 60.7839 49.1479 60.6084 49.2476C60.4328 49.3473 60.3023 49.5107 60.2439 49.704C60.1916 49.9 60.2185 50.1087 60.3186 50.2851C60.4188 50.4615 60.5842 50.5915 60.7794 50.6471H60.7787Z" fill="#119EED"/>
<path d="M62.355 36.5909C62.2949 36.6251 62.2333 36.6548 62.1719 36.6868C62.0163 36.7683 62.279 36.6488 62.1812 36.6868C62.146 36.6999 62.1115 36.7143 62.0764 36.727C61.9196 36.7836 61.7596 36.8309 61.5972 36.8686C61.5179 36.8874 61.4374 36.904 61.3575 36.9187C61.3166 36.9261 61.2761 36.9325 61.2352 36.9395C61.0368 36.9737 61.339 36.9315 61.2224 36.9417C61.0447 36.9577 60.8687 36.9737 60.6904 36.9778C60.5268 36.9807 60.3626 36.9756 60.1994 36.9622C60.1754 36.96 60.0045 36.9472 60.124 36.9568C60.231 36.9651 60.1029 36.9532 60.0815 36.9494C60.0067 36.9373 59.9329 36.9226 59.8578 36.9053C59.5002 36.8098 59.1503 36.6873 58.8112 36.5389C58.6151 36.4853 58.4058 36.5116 58.229 36.6119C58.0523 36.7123 57.9225 36.8785 57.868 37.0743C57.8199 37.2702 57.8486 37.477 57.9482 37.6524C58.0477 37.8278 58.2106 37.9584 58.4035 38.0175C58.7591 38.1748 59.1274 38.3015 59.5045 38.3964C59.9137 38.4841 60.3321 38.5222 60.7505 38.5098C61.5785 38.5057 62.3933 38.3021 63.1259 37.9162C63.2129 37.8654 63.289 37.7979 63.3499 37.7177C63.4108 37.6374 63.4552 37.546 63.4808 37.4486C63.5063 37.3511 63.5124 37.2496 63.4987 37.1498C63.4851 37.0501 63.4519 36.9539 63.401 36.867C63.3502 36.78 63.2827 36.7039 63.2025 36.643C63.1223 36.5822 63.0308 36.5377 62.9334 36.5121C62.836 36.4866 62.7344 36.4805 62.6347 36.4942C62.5349 36.5079 62.4388 36.5411 62.3518 36.5919L62.355 36.5909Z" fill="#726A69"/>
<path d="M76.7311 41.2272C76.0921 43.9707 75.1591 46.6235 74.2563 49.2875C73.5872 51.2607 72.9243 53.2329 72.2029 55.1879C70.7051 59.2471 69.1037 63.2711 67.4472 67.2668C66.8248 68.7684 66.2392 70.1742 65.5621 71.6851C65.4656 71.8621 65.4403 72.0692 65.4914 72.2643C65.5426 72.4593 65.6663 72.6274 65.8372 72.7343C66.0132 72.8354 66.2219 72.8632 66.4182 72.8117C66.6145 72.7603 66.7827 72.6336 66.8864 72.4592C68.3146 69.2761 69.6194 66.0335 70.9121 62.7932C72.5073 58.7896 74.0598 54.7639 75.4109 50.6706C76.4013 47.6734 77.4959 44.7142 78.2122 41.6349C78.4359 40.6764 76.9576 40.2649 76.7336 41.2272H76.7311Z" fill="#90898C"/>
<path d="M54.2607 66.2992C54.3613 66.2614 54.464 66.2294 54.5683 66.2033C54.6185 66.1912 54.6687 66.1826 54.7188 66.1714C54.8466 66.1449 54.5591 66.1791 54.7364 66.1714C54.8322 66.1662 54.9282 66.1662 55.0239 66.1714C55.0473 66.1714 55.0706 66.1755 55.0939 66.1768C55.1866 66.1829 55.1041 66.2174 55.0281 66.1679C55.079 66.1851 55.132 66.1958 55.1856 66.1998C55.2751 66.2219 55.3594 66.2554 55.447 66.2829C55.5224 66.3069 55.3693 66.2509 55.3693 66.2509C55.3799 66.2634 55.4169 66.2723 55.4332 66.28C55.4808 66.3049 55.5291 66.3286 55.5754 66.3554C55.6565 66.4017 55.7326 66.4541 55.8096 66.5069C55.9233 66.5845 55.6994 66.411 55.8032 66.5027C55.8447 66.5398 55.8875 66.5749 55.9284 66.6129C55.9994 66.6787 56.0674 66.7481 56.1323 66.82C56.1642 66.8564 56.1962 66.8938 56.2281 66.9312C56.3409 67.0618 56.1722 66.8478 56.2463 66.9516C56.375 67.1301 56.4918 67.3169 56.5959 67.5107C56.6441 67.6021 56.6876 67.6957 56.7316 67.789C56.7936 67.92 56.6834 67.6612 56.7355 67.7967C56.7572 67.8532 56.7796 67.9094 56.7994 67.9666C56.8724 68.1693 56.9328 68.3763 56.9802 68.5865C56.9932 68.6446 57.0052 68.703 57.0163 68.7615C57.0211 68.7868 57.0256 68.8117 57.0297 68.8366C57.0364 68.8746 57.0275 69.0024 57.0393 68.8845C57.0511 68.7667 57.0451 68.9385 57.0492 68.9804C57.0547 69.0376 57.0591 69.0951 57.0623 69.1526C57.0755 69.3822 57.0686 69.6124 57.0416 69.8408C57.0416 70.0442 57.1223 70.2392 57.2661 70.383C57.4099 70.5268 57.605 70.6076 57.8083 70.6076C58.0099 70.6018 58.2016 70.5191 58.3441 70.3766C58.4867 70.234 58.5693 70.0423 58.5751 69.8408C58.6661 68.7985 58.4546 67.7522 57.9662 66.827C57.7466 66.3475 57.4333 65.9168 57.0448 65.5601C56.6563 65.2035 56.2003 64.9281 55.7038 64.7503C55.0961 64.5727 54.4473 64.5961 53.854 64.817C53.7569 64.8438 53.666 64.8894 53.5865 64.9513C53.5071 65.0132 53.4406 65.0901 53.3909 65.1777C53.3412 65.2653 53.3092 65.3618 53.2968 65.4618C53.2843 65.5617 53.2917 65.6631 53.3185 65.7602C53.3452 65.8573 53.3909 65.9482 53.4528 66.0276C53.5146 66.1071 53.5916 66.1735 53.6792 66.2233C53.7667 66.273 53.8632 66.305 53.9632 66.3174C54.0631 66.3298 54.1645 66.3224 54.2616 66.2957L54.2607 66.2992Z" fill="#726A69"/>
<path d="M72.2786 96.3146C71.7722 97.7374 73.0818 98.955 74.3723 99.2003C75.1084 99.311 75.8516 99.3678 76.596 99.3703C77.3739 99.4023 78.1522 99.4259 78.9305 99.4185C80.4712 99.4291 82.0073 99.2489 83.5038 98.8821C84.8079 98.5393 86.2013 98.0875 87.1863 97.1268C87.9561 96.3469 88.5186 95.3869 88.8227 94.3341C89.1269 93.2813 89.1629 92.1691 88.9275 91.0989C88.3975 88.5749 86.8188 86.6419 85.0639 84.8368C83.9737 83.7153 82.7833 82.6517 81.2785 82.1441C80.5212 81.9405 79.7454 81.8136 78.9628 81.7651C78.7597 81.7661 78.5653 81.8473 78.4217 81.9908C78.2781 82.1344 78.197 82.3289 78.196 82.5319C78.2008 82.7338 78.2831 82.9261 78.4259 83.0688C78.5687 83.2116 78.7609 83.2939 78.9628 83.2987C79.4717 83.332 79.9783 83.3944 80.4801 83.4856C80.5871 83.5121 80.3487 83.4486 80.528 83.5176C80.6603 83.569 80.804 83.599 80.9385 83.6454C81.2383 83.7466 81.5262 83.8802 81.797 84.0438C82.2887 84.3618 82.7494 84.7255 83.1728 85.1301C84.7185 86.5518 86.3712 88.2311 87.1067 90.2382C87.2601 90.6792 87.3803 91.131 87.4665 91.5899C87.4933 91.7213 87.5192 91.8532 87.5412 91.9855C87.5451 92.0078 87.5578 92.1005 87.5451 92.0005C87.5265 91.8606 87.5511 92.088 87.5534 92.1193C87.5591 92.1926 87.5631 92.2659 87.5652 92.3392C87.5874 93.2988 87.3399 94.2455 86.8508 95.0715C86.4059 95.8724 85.6933 96.4912 84.838 96.8194C83.5684 97.324 82.2352 97.6507 80.8762 97.7904C79.3765 97.9048 77.8707 97.9166 76.3694 97.8255C75.7851 97.8 73.3422 97.8846 73.7566 96.7207C73.8087 96.5247 73.7818 96.316 73.6816 96.1396C73.5815 95.9631 73.4162 95.833 73.2211 95.7773C73.0251 95.7274 72.8174 95.7553 72.6415 95.8552C72.4656 95.9551 72.3352 96.1191 72.2777 96.313L72.2786 96.3146Z" fill="#726A69"/>
<path d="M79.2618 85.3699C78.8319 85.7611 78.3132 86.0417 77.7506 86.1875C77.117 86.2776 76.4765 86.3097 75.8371 86.2833C74.3272 86.3153 72.8172 86.3705 71.3083 86.4325C69.9447 86.4884 67.9906 86.2922 67.2312 87.7031C67.0117 88.1284 66.9249 88.6097 66.9818 89.0848C67.0388 89.5599 67.237 90.007 67.5507 90.3684C68.2149 91.0713 69.183 91.1032 70.0836 91.0831C72.6151 91.0237 75.1457 90.9396 77.6755 90.831C78.6586 90.7872 78.664 89.2536 77.6755 89.2974C75.6141 89.3894 73.5521 89.4618 71.4894 89.5144C71.0208 89.5269 70.5522 89.5386 70.0836 89.5495C69.6889 89.5974 69.2886 89.5693 68.9044 89.4668C68.8059 89.434 68.7183 89.3746 68.6515 89.2952C68.5847 89.2157 68.5411 89.1193 68.5258 89.0166C68.4947 88.892 68.4891 88.7625 68.5095 88.6357C68.5209 88.5816 68.536 88.5282 68.5545 88.476C68.6184 88.2843 68.5469 88.4361 68.6395 88.3456C68.9967 87.998 69.6664 88.038 70.1731 88.0143C70.8334 87.9834 71.4937 87.9558 72.154 87.9313C73.4959 87.8805 74.8355 87.8335 76.1771 87.8089C76.935 87.8403 77.6936 87.7689 78.4324 87.5967C79.1379 87.3432 79.7874 86.9551 80.3449 86.4539C80.4876 86.3095 80.5676 86.1147 80.5676 85.9117C80.5676 85.7087 80.4876 85.5139 80.3449 85.3695C80.1987 85.2303 80.0046 85.1526 79.8027 85.1526C79.6008 85.1526 79.4067 85.2303 79.2605 85.3695L79.2618 85.3699Z" fill="#726A69"/>
<path d="M68.5246 89.8076C68.1143 90.1054 67.8013 90.518 67.6251 90.9933C67.4488 91.4687 67.4172 91.9856 67.5341 92.4789C67.7702 93.5789 68.6958 94.1696 69.7652 94.2805C70.3615 94.3156 70.9597 94.3043 71.5543 94.2466L73.6119 94.1393L77.727 93.9239C78.7088 93.8725 78.7152 92.3386 77.727 92.3904L71.0796 92.738C70.6426 92.7881 70.2015 92.7911 69.7639 92.7469C69.6434 92.7356 69.5263 92.7006 69.4193 92.644C69.3124 92.5873 69.2176 92.5102 69.1405 92.4169C68.953 92.0907 68.8824 91.4485 69.3003 91.1322C69.4711 91.0252 69.5946 90.857 69.6457 90.6621C69.6969 90.4671 69.6717 90.26 69.5754 90.083C69.4718 89.9083 69.3036 89.7816 69.1072 89.7301C68.9108 89.6786 68.7021 89.7065 68.5262 89.8079L68.5246 89.8076Z" fill="#726A69"/>
<path d="M78.2781 95.1889C76.5449 95.2741 74.8119 95.362 73.0789 95.4525C72.4329 95.4845 71.4971 95.6762 70.9246 95.2877C70.4415 94.9605 70.6191 94.3413 70.899 93.9247L70.237 94.3046H70.2405C71.2271 94.3046 71.2291 92.771 70.2405 92.771C69.2031 92.771 68.9459 94.6269 69.1658 95.3762C69.4734 96.4257 70.5217 96.9289 71.5351 97.018C72.6253 97.1139 73.7716 96.9503 74.8636 96.8947C76.0017 96.8366 77.1398 96.7792 78.2781 96.7225C79.2602 96.6736 79.2663 95.1397 78.2781 95.1889Z" fill="#726A69"/>
<path d="M80.3815 85.6755C78.7809 81.5083 77.2169 77.3267 75.653 73.1465C75.2754 72.1381 74.8992 71.1292 74.5245 70.1196C74.4657 69.9265 74.335 69.7634 74.1595 69.6638C73.984 69.5642 73.777 69.5356 73.5811 69.5841C67.4867 70.9787 61.4086 72.4359 55.3264 73.8775C53.7781 74.2447 52.2302 74.612 50.6825 74.9794C50.4876 75.0353 50.3223 75.1653 50.2222 75.3417C50.1221 75.518 50.0951 75.7265 50.147 75.9226C51.1324 79.0834 52.1315 82.2396 53.1445 85.3911C54.351 89.172 55.565 92.9503 56.7868 96.7259C57.298 98.2987 57.8092 99.8713 58.3319 101.44C58.389 101.634 58.5193 101.798 58.6953 101.898C58.8712 101.998 59.0791 102.026 59.275 101.975C62.9064 100.941 66.5381 99.9064 70.1615 98.8444C71.0331 98.5888 71.9056 98.3332 72.7724 98.062C73.7108 97.7674 73.3101 96.2862 72.3648 96.5831C68.4803 97.8026 64.5467 98.8777 60.6319 99.9949L58.8686 100.497L59.8111 101.032C58.7594 97.8767 57.7424 94.7092 56.7239 91.5433C55.5098 87.7694 54.3037 83.9932 53.1056 80.2147C52.6093 78.6491 52.1158 77.0826 51.625 75.5152L51.0889 76.4583C57.4324 74.951 63.778 73.4517 70.1257 71.9605C71.4122 71.6595 72.6992 71.3613 73.9865 71.0659L73.0434 70.5301C74.6451 74.8552 76.2673 79.1726 77.9099 83.4821C78.239 84.3505 78.5691 85.2185 78.9004 86.086C78.9593 86.2789 79.0899 86.442 79.2653 86.5416C79.4407 86.6411 79.6476 86.6698 79.8435 86.6215C80.0388 86.5662 80.2045 86.4363 80.3048 86.2598C80.405 86.0833 80.4318 85.8744 80.3793 85.6783L80.3815 85.6755Z" fill="#726A69"/>
<path d="M48.61 64.5344C47.6857 64.5529 46.8016 64.9162 46.1314 65.553C45.8227 65.8431 45.5701 66.1875 45.386 66.569C45.1908 66.9811 45.1364 67.4434 44.9141 67.8406C44.6962 68.1691 44.4616 68.4862 44.2112 68.7907C43.9403 69.1919 43.7133 69.621 43.5342 70.0706C43.1534 70.9945 42.9164 71.9712 42.8313 72.9669C42.6335 74.8462 42.8901 76.7456 43.5795 78.505C43.8952 79.2814 44.4291 79.9496 45.1166 80.429C45.8041 80.9083 46.6158 81.1782 47.4534 81.206C48.671 81.2284 49.9072 80.8242 51.0787 80.5306C52.0353 80.2907 51.6302 78.8114 50.6711 79.0517C49.8752 79.251 49.0867 79.4644 48.2774 79.5999C47.6484 79.733 46.9936 79.669 46.4023 79.4165C45.8577 79.168 45.41 78.7472 45.1281 78.2191C44.478 76.9989 44.3051 75.3608 44.3153 73.9663C44.3272 72.4167 44.6438 70.6537 45.6496 69.417C45.9479 69.0791 46.1979 68.7015 46.3924 68.2949C46.5159 67.8859 46.6653 67.4852 46.8397 67.0952C47.0246 66.7894 47.2836 66.5352 47.5926 66.3558C47.9016 66.1764 48.2509 66.0776 48.6081 66.0686C49.5934 66.0492 49.5985 64.5156 48.6081 64.5351L48.61 64.5344Z" fill="#726A69"/>
<path d="M48.453 65.5051C48.6409 66.8297 49.6307 67.97 50.5355 68.8882C51.4739 69.8403 52.5416 70.6403 53.5193 71.5477C53.6027 71.6253 53.6873 71.7027 53.7627 71.788C53.6317 71.6397 53.8212 71.8857 53.8298 71.9052C53.8708 71.9826 53.8936 72.0683 53.8965 72.1558C53.8994 72.2433 53.8824 72.3304 53.8468 72.4103C53.7285 72.6889 53.249 72.7813 52.8899 72.7215C52.2509 72.6148 51.7026 72.2068 51.1802 71.8493C50.5278 71.402 49.8995 70.9245 49.2952 70.4167C49.1489 70.2777 48.9548 70.2002 48.753 70.2002C48.5512 70.2002 48.3572 70.2777 48.2109 70.4167C48.0686 70.5613 47.9889 70.756 47.9889 70.9589C47.9889 71.1617 48.0686 71.3564 48.2109 71.5011C48.7612 71.9637 49.3284 72.4058 49.9125 72.8273C50.4298 73.2309 50.9847 73.5839 51.5694 73.8816C52.6502 74.3771 54.0771 74.5113 54.9308 73.5152C55.269 73.0962 55.4386 72.5661 55.4063 72.0286C55.374 71.4912 55.1423 70.9851 54.7564 70.6097C53.918 69.7579 52.9253 69.056 52.0576 68.2326C51.1691 67.3891 50.1122 66.3719 49.9313 65.0974C49.8762 64.902 49.7463 64.7362 49.5697 64.636C49.3932 64.5358 49.1842 64.5092 48.9882 64.5619C48.795 64.6205 48.6317 64.751 48.532 64.9265C48.4324 65.1021 48.404 65.3092 48.4527 65.5051H48.453Z" fill="#726A69"/>
<path d="M47.4946 73.7899C47.5696 74.123 47.757 74.42 48.0253 74.6312C48.3161 74.8793 48.6207 75.1108 48.9378 75.3245C49.5389 75.7414 50.1966 76.0703 50.8908 76.3012C51.0869 76.3534 51.2956 76.3266 51.4721 76.2265C51.6486 76.1263 51.7787 75.9608 51.8343 75.7657C51.8839 75.5698 51.8558 75.3623 51.7561 75.1865C51.6563 75.0108 51.4925 74.8804 51.2988 74.8226C51.1621 74.7791 51.0311 74.7181 50.8953 74.6749C50.9535 74.6935 51.0445 74.7388 50.9333 74.6893C50.8982 74.6736 50.8634 74.6576 50.8289 74.6414C50.7581 74.6082 50.6882 74.5739 50.6189 74.5385C50.3343 74.3923 50.058 74.2302 49.7915 74.0532C49.6602 73.9667 49.5314 73.8768 49.4049 73.7836L49.3311 73.7289C49.1981 73.6302 49.471 73.8404 49.3435 73.7388C49.2924 73.6979 49.241 73.657 49.1908 73.6152C49.116 73.5532 49.0384 73.4915 48.9691 73.4235C48.8413 73.2976 49.0585 73.5657 48.9819 73.4423C48.9125 73.3302 48.9914 73.4979 49.0052 73.5088C48.9831 73.4915 48.978 73.4059 48.9732 73.381C48.9182 73.1855 48.7883 73.0196 48.6117 72.9194C48.4351 72.8191 48.2261 72.7926 48.0301 72.8455C47.8366 72.904 47.673 73.0347 47.5733 73.2105C47.4736 73.3864 47.4454 73.5939 47.4946 73.7899Z" fill="#726A69"/>
<path d="M47.8743 77.3798C48.2235 77.6982 48.6163 77.9652 49.0408 78.1728C49.5265 78.3949 50.0476 78.5294 50.5801 78.57C50.7836 78.57 50.9788 78.4896 51.1232 78.3463C51.267 78.2025 51.3478 78.0075 51.3478 77.8041C51.3478 77.6008 51.267 77.4057 51.1232 77.2619C50.9741 77.1258 50.7818 77.0467 50.5801 77.0383C50.5089 77.0322 50.4383 77.0249 50.3673 77.0153L50.5712 77.0428C50.2736 77.0016 49.9827 76.9219 49.7056 76.8057L49.8887 76.883C49.5876 76.7497 49.3042 76.5796 49.0449 76.3766L49.2002 76.4964C49.118 76.4325 49.0375 76.3662 48.9587 76.2974C48.8117 76.1579 48.6181 76.0782 48.4155 76.0737C48.2636 76.0734 48.115 76.1181 47.9885 76.2024C47.8621 76.2866 47.7635 76.4065 47.7053 76.5468C47.6471 76.6872 47.6319 76.8416 47.6617 76.9906C47.6914 77.1396 47.7648 77.2764 47.8724 77.3837L47.8743 77.3798Z" fill="#726A69"/>
<path d="M59.7329 70.6774C55.8749 66.8583 52.0623 62.9951 48.295 59.0877C48.0607 58.8436 47.8264 58.5995 47.5921 58.3554C47.3763 58.0797 47.0959 57.8613 46.7758 57.7196C46.5256 57.6357 46.2563 57.6274 46.0015 57.6955C45.7466 57.7637 45.5174 57.9054 45.3425 58.103C45.1304 58.3324 44.931 58.5755 44.7256 58.8113C44.473 59.0521 44.2647 59.3354 44.1102 59.6484C43.8262 60.4043 44.2821 60.9241 44.7662 61.4455C45.2348 61.9505 45.7052 62.4542 46.1774 62.9564C47.1333 63.9743 48.0946 64.987 49.0611 65.9945C51.2169 68.2429 53.3963 70.4687 55.5993 72.672C56.2984 73.3701 57.383 72.286 56.6837 71.5857C53.0874 67.9941 49.5563 64.3385 46.0902 60.6187C46.0211 60.5446 45.6007 59.9944 45.5199 60.0116C45.6477 59.9851 45.3157 60.4458 45.5553 60.1877C45.7662 59.9605 45.9636 59.7193 46.1672 59.4848C46.2622 59.4008 46.3459 59.3048 46.416 59.1992C46.4205 59.1883 46.4668 59.1544 46.4646 59.1429C46.4755 59.1988 46.2349 59.1429 46.2359 59.1429L46.1985 59.1212L46.3007 59.2276C46.3646 59.3004 46.4368 59.3691 46.5042 59.4391C46.6052 59.5456 46.7063 59.6508 46.8074 59.7548C47.0417 59.9969 47.2751 60.239 47.5074 60.481C49.1758 62.2107 50.8531 63.9321 52.5392 65.645C54.5616 67.6972 56.5976 69.7359 58.6473 71.7611C59.3502 72.456 60.4342 71.3723 59.7317 70.6767L59.7329 70.6774Z" fill="#726A69"/>
</svg>
