<svg width="126" height="106" viewBox="0 0 126 106" fill="none" xmlns="http://www.w3.org/2000/svg">
<circle opacity="0.6" cx="63" cy="53" r="43" fill="#F2D5E1"/>
<mask id="mask0_807_574502" style="mask-type:alpha" maskUnits="userSpaceOnUse" x="21" y="2" width="87" height="97">
<path fill-rule="evenodd" clip-rule="evenodd" d="M107.4 2H21V93L21.0229 93.0003C21.0077 93.0666 21 93.1333 21 93.2003C21 95 33.0346 98.0003 47.88 98.0003C61.7426 98.0003 73.1543 96.1264 74.6045 93.7197L107.4 94.16V2Z" fill="#D9D9D9"/>
</mask>
<g mask="url(#mask0_807_574502)">
<path d="M64.7343 26.8582C64.9644 26.657 65.2348 26.5081 65.5272 26.4218C65.8196 26.3355 66.127 26.3137 66.4285 26.358C66.7244 26.4001 67.0072 26.5085 67.256 26.6751C67.5049 26.8418 67.7135 27.0625 67.8665 27.321C68.0437 27.6779 68.1446 28.0682 68.1627 28.4668C68.2918 30.0264 67.9929 31.5916 67.2987 32.9917C66.9713 33.6991 66.4962 34.3271 65.9059 34.8328C65.4264 35.2244 64.8542 35.4842 64.2453 35.5866L63.9611 35.631C63.825 36.1448 63.6716 36.5776 63.5965 36.808C63.0985 38.1695 60.2432 42.9821 56.6935 44.5172C56.6874 45.4811 56.6663 46.5922 57.0028 47.4261C57.257 48.0587 58.4488 48.9973 59.7019 49.8506C59.7019 49.8506 59.0125 59.2411 50.1845 59.2411C41.3565 59.2411 41.4015 49.7888 41.4015 49.7888C42.7393 48.9532 43.9808 48.044 44.2291 47.4261C44.5565 46.6075 44.5416 45.5294 44.5358 44.5787C42.7987 43.7788 41.2734 42.5777 40.0835 41.0728C38.7897 39.4732 37.8486 37.6146 37.3228 35.6204C36.5248 35.6249 35.7505 35.3468 35.1352 34.8348C34.545 34.3292 34.07 33.7012 33.7428 32.9937C33.0484 31.5938 32.7495 30.0284 32.8787 28.4689C32.8966 28.0703 32.9974 27.6799 33.1746 27.3231C33.3276 27.0642 33.5363 26.8432 33.7852 26.6763C34.0342 26.5094 34.3171 26.4008 34.6132 26.3586C34.9147 26.3143 35.2222 26.336 35.5146 26.4224C35.8069 26.5087 36.0774 26.6576 36.3075 26.8588C36.3075 26.8588 36.9209 13.3824 50.9419 13.3824C65.353 13.3813 64.7343 26.8582 64.7343 26.8582Z" fill="white"/>
<path d="M68.1632 28.4674C68.1451 28.0688 68.0442 27.6785 67.867 27.3216C67.714 27.0631 67.5053 26.8424 67.2565 26.6757C67.0076 26.5091 66.7249 26.4007 66.429 26.3585C66.1275 26.3143 65.8201 26.3361 65.5277 26.4224C65.2353 26.5087 64.9649 26.6576 64.7348 26.8588C62.6921 25.8383 61.2316 24.0402 60.2256 22.6016C58.156 19.6427 57.5642 17.5816 57.1798 15.5024C55.3617 17.741 51.3163 20.2512 47.7156 21.4267C47.2547 21.5747 46.7867 21.6991 46.3134 21.7995C45.6932 21.9567 45.0633 22.0727 44.4279 22.1467C43.2857 23.0305 42.0895 23.8411 40.8464 24.5737C40.0855 25.0268 37.2281 26.3515 36.2019 26.7731C35.9779 26.6009 35.7219 26.4754 35.4491 26.4042C35.1763 26.333 34.8921 26.3175 34.6132 26.3585C34.3173 26.4007 34.0345 26.5091 33.7857 26.6758C33.5369 26.8424 33.3282 27.0631 33.1751 27.3216C32.9979 27.6784 32.8971 28.0688 32.8792 28.4674L31.9877 27.4322C31.6956 18.5938 34.0047 12.1843 37.6432 8.67542C39.8366 6.5604 44.7784 3.67859 50.3325 3.67859C53.721 3.67859 55.5142 4.03874 57.4444 4.78788L58.5343 5.21101L60.5805 6.32913C61.887 7.04355 62.2358 7.5882 63.4364 8.75487C66.2114 11.4531 68.1425 16.3081 68.4501 20.6555C68.5377 21.9096 68.7422 25.1727 68.5462 27.4316L68.1632 28.4674Z" fill="#D0903A"/>
<path d="M30.514 42.4872C30.0328 44.0161 29.7732 45.607 29.7435 47.2107C29.7181 48.6068 29.9576 50.1754 31.0658 51.014C31.5552 51.6511 32.1709 52.1786 32.8737 52.563C33.5765 52.9474 34.351 53.1803 35.148 53.2467L41.402 49.7882C42.7398 48.9526 43.9813 48.0434 44.2296 47.4254C44.5567 46.6075 44.5421 45.5305 44.5363 44.5801C42.7995 43.7788 41.2744 42.5771 40.084 41.0722C38.8012 39.4872 37.8655 37.647 37.3382 35.6722L36.7966 35.5881C36.1877 35.4856 35.6156 35.2259 35.136 34.8342C34.5457 34.3286 34.0708 33.7006 33.7436 32.9931C33.0492 31.5931 32.7503 30.0278 32.8795 28.4683L31.9877 27.4316C31.9906 33.8726 31.5028 38.5187 30.8193 41.1581C30.7112 41.5788 30.6061 42.0673 30.5067 42.591" fill="#D0903A"/>
<path d="M68.5474 27.4309C68.6438 35.4579 70.0109 39.948 70.7149 42.1578C71.271 43.7757 71.5611 45.4743 71.5736 47.1864C71.5912 49.402 69.8444 51.9325 67.3381 52.4828L65.6018 52.8638L59.7013 49.8493C58.4482 48.996 57.2564 48.0573 57.0023 47.4247C56.6658 46.5911 56.6868 45.4801 56.6932 44.5155C60.2426 42.9822 63.0979 38.1696 63.596 36.8081C63.671 36.5783 63.8241 36.1455 63.9605 35.6312L64.2447 35.5864C64.8537 35.484 65.4258 35.2243 65.9053 34.8326C66.4956 34.3269 66.9707 33.6989 67.2981 32.9915C67.9923 31.5915 68.2912 30.0262 68.1621 28.4666L68.5474 27.4309Z" fill="#D0903A"/>
<path d="M22.2737 87.2425C22.9631 74.7501 23.736 64.6181 25.0131 60.3298C25.4837 58.75 26.0764 57.3533 26.8604 56.7215C27.6444 56.0898 28.9486 55.6699 29.8548 55.2288C32.6271 53.88 36.3199 52.2137 38.5128 50.8231C38.8703 50.4962 39.2518 50.1784 39.6546 49.866L40.9959 48.9506L41.0196 48.9344C42.755 54.1351 44.7545 60.1409 46.6219 65.3846C47.9151 69.0165 49.3677 72.8613 50.6822 76.5182C52.1217 72.4679 53.1803 69.5999 54.5978 65.6191C56.4714 60.3587 58.7063 54.2984 60.0097 48.9061L61.3242 49.8036C61.5196 49.9554 61.7109 50.1069 61.8967 50.2599C64.7257 51.9351 68.4527 52.9208 71.4754 54.3929C72.343 54.8136 73.3624 55.0137 74.0196 55.7229C74.692 56.4497 75.2125 57.3053 75.5503 58.2386C77.4577 63.2525 77.8287 66.1803 79.6631 71.0944C80.1822 69.3372 80.682 67.5909 81.2262 65.7098C84.1931 66.9082 88.8887 68.5065 91.7642 68.8261C90.8294 73.4945 89.9239 78.5067 88.4158 83.2408C87.3677 86.5304 85.7909 89.6594 82.5821 90.8796C81.3823 91.3581 80.0898 91.5541 78.8033 91.4528C77.5168 91.3514 76.2702 90.9553 75.1589 90.2946C72.9973 89.0256 70.4268 86.0699 69.1169 84.7776C68.9764 86.077 69.818 93.7341 70.1469 98.2554H21.7021C21.8931 94.4488 22.0801 90.7525 22.2737 87.2425Z" fill="#B3B3B3"/>
<path d="M50.3457 56.4995H50.2213C47.9343 56.4369 45.6622 56.108 43.4503 55.5194L43.2011 55.4538C44.3316 58.8123 45.5006 62.2355 46.622 65.3842C47.9151 69.0161 49.3677 72.8609 50.6822 76.5178C52.1217 72.4675 53.1803 69.5995 54.5979 65.6187C55.7725 62.3209 57.089 58.7087 58.2296 55.1437L57.5631 55.3158C55.4932 56.145 52.4974 56.4916 50.3457 56.4995Z" fill="white"/>
<path d="M84.3411 54.3395C85.1511 52.3589 85.7703 51.1911 86.8052 49.1788C86.8692 49.0546 87.3173 48.4252 87.7426 48.3013C87.9327 48.2445 88.1346 48.2407 88.3266 48.2905C88.5186 48.3403 88.6936 48.4418 88.8328 48.5841C88.971 48.7152 89.0817 48.8731 89.1581 49.0483C89.2345 49.2235 89.275 49.4123 89.2773 49.6037C89.2739 50.9374 89.0732 52.2632 88.6817 53.5374C90.9453 53.2314 95.4784 51.064 97.8959 49.7767C98.4766 49.4677 99.0544 49.1137 99.707 49.0208C100.379 48.9216 101.571 49.3903 101.806 50.0415C102.724 49.5942 103.225 49.6031 103.797 49.822C104.476 50.083 104.675 50.3557 104.809 50.7427C104.891 50.9569 104.927 51.1859 104.917 51.4152C104.907 51.6446 104.849 51.8692 104.748 52.075C104.716 52.1321 104.696 52.1955 104.69 52.261C104.695 52.3277 104.718 52.3919 104.755 52.4472C104.94 52.8475 104.993 53.2967 104.907 53.7296C104.821 54.1624 104.599 54.5562 104.275 54.8535C104.399 55.0615 104.454 55.3037 104.433 55.5452C104.411 55.7868 104.314 56.0151 104.155 56.1973C102.405 58.1982 96.1512 61.8745 92.5781 63.2621C92.3781 63.3231 92.1919 63.423 92.0301 63.5564C91.864 63.7385 91.7425 63.9574 91.6755 64.1954C91.4281 64.8781 91.2496 65.3368 91.0414 65.988C89.5452 65.5781 85.652 64.4926 83.51 63.6958C83.6854 63.1106 83.8171 62.513 83.9041 61.908C83.9041 61.908 83.9333 61.5752 83.9537 61.3178C83.5284 59.088 83.3301 56.8697 84.1737 54.7579C84.23 54.6133 84.2857 54.4739 84.3411 54.3395Z" fill="white"/>
<path d="M105.057 54.9103C104.95 54.1373 104.046 53.7698 103.362 53.8433C102.939 53.9238 102.533 54.0803 102.165 54.3053C101.786 54.4951 101.41 54.6878 101.033 54.8805C99.5567 55.6347 98.0708 56.4132 96.4759 56.8832C95.6116 57.1377 95.9793 58.5015 96.8486 58.2449C98.2157 57.8058 99.5416 57.2459 100.811 56.5716C101.444 56.2544 102.073 55.928 102.705 55.6088C102.942 55.4562 103.196 55.3334 103.462 55.2433C103.557 55.2285 103.654 55.243 103.74 55.2848C103.7 55.2657 103.683 55.1377 103.703 55.2848C103.754 55.4648 103.873 55.6176 104.034 55.7099C104.196 55.8022 104.387 55.8267 104.566 55.778C104.743 55.7241 104.892 55.6039 104.983 55.4422C105.074 55.2805 105.1 55.0898 105.056 54.9094L105.057 54.9103Z" fill="#726A69"/>
<path d="M105.055 51.6781C104.893 51.517 104.7 51.3906 104.488 51.3067C104.276 51.2228 104.049 51.1831 103.822 51.19C103.414 51.2025 103.015 51.3113 102.656 51.5075C101.763 51.9117 100.895 52.3699 99.9982 52.7648C98.5593 53.398 97.0348 54.1256 95.6505 54.6953C95.4744 54.75 95.3256 54.8703 95.2346 55.0318C95.1435 55.1932 95.1171 55.3835 95.1606 55.5639C95.2111 55.7439 95.3299 55.8965 95.4914 55.9888C95.6529 56.0812 95.8439 56.1057 96.0232 56.057C97.4379 55.475 98.8201 54.8153 100.219 54.1971C101.008 53.8485 101.786 53.4804 102.563 53.1055C102.888 52.9487 103.212 52.7845 103.545 52.6459C103.659 52.5911 103.788 52.5775 103.911 52.6073C103.848 52.5982 104.083 52.6594 104.065 52.6521C104.026 52.6353 103.982 52.5812 104.065 52.6768C104.197 52.8077 104.375 52.8811 104.561 52.8811C104.746 52.8811 104.924 52.8077 105.056 52.6768C105.184 52.5426 105.256 52.3636 105.256 52.1774C105.256 51.9913 105.184 51.8123 105.056 51.6781H105.055Z" fill="#726A69"/>
<path d="M103.704 55.2861C103.813 55.6937 103.418 55.9649 103.151 56.2124C102.828 56.5114 102.465 56.8074 102.153 57.0445C101.202 57.7678 100.2 58.4254 99.1842 59.0521C97.1133 60.3665 94.9391 61.508 92.6834 62.4654C92.3598 62.5696 92.0482 62.7089 91.7542 62.8805C91.4011 63.152 91.1426 63.5294 91.0161 63.9584C90.724 64.7337 90.4459 65.5134 90.2078 66.307C89.9449 67.1788 91.2988 67.5514 91.5597 66.6825C91.7691 65.9842 92.0148 65.2995 92.2651 64.6166C92.3551 64.3703 92.4018 64.1069 92.6519 63.9878C92.8929 63.873 93.1531 63.7886 93.3994 63.6847C94.5409 63.2027 95.6544 62.6549 96.7489 62.074C99.0248 60.901 101.195 59.53 103.234 57.9767C104.194 57.2243 105.428 56.3057 105.057 54.911C104.824 54.0338 103.471 54.406 103.705 55.2864L103.704 55.2861Z" fill="#726A69"/>
<path d="M89.5761 54.082C91.7693 53.547 93.875 52.5519 95.9025 51.5741C96.8794 51.1033 97.8339 50.594 98.7944 50.0932C99.2293 49.8666 99.7212 49.6442 100.188 49.7472C100.411 49.7941 100.624 49.8768 100.82 49.992C100.899 50.0367 100.973 50.0902 101.04 50.1515C101.056 50.1659 101.157 50.2962 101.128 50.2294C101.159 50.3319 101.213 50.4261 101.285 50.5052C101.356 50.5843 101.445 50.6463 101.543 50.6867C101.642 50.7271 101.748 50.7449 101.854 50.7388C101.961 50.7327 102.064 50.7028 102.158 50.6514C102.356 50.5322 102.575 50.4539 102.803 50.421C103.031 50.3881 103.264 50.4013 103.487 50.4598C103.674 50.5225 103.85 50.6154 104.008 50.7349C104.108 50.8211 104.051 50.7617 104.106 50.8741C104.157 50.978 104.076 50.7858 104.119 50.8971C104.155 50.9887 104.183 51.0837 104.201 51.1807C104.254 51.4938 104.113 51.6921 104.03 51.9784C103.927 52.33 104.072 52.5837 104.181 52.8879C104.254 53.1164 104.267 53.36 104.219 53.595C104.17 53.83 104.062 54.0483 103.905 54.2285C103.31 54.9079 104.298 55.9107 104.896 55.2271C105.307 54.7695 105.564 54.1928 105.63 53.5794C105.657 53.3164 105.646 53.0509 105.599 52.7908C105.556 52.5372 105.413 52.3127 105.362 52.0732V52.4489C105.471 52.1319 105.555 51.8067 105.612 51.4764C105.627 51.1638 105.583 50.8511 105.483 50.5549C105.338 50.0967 105.037 49.7047 104.634 49.4479C103.6 48.7785 102.511 48.9292 101.45 49.4314L102.479 49.8537C102.09 48.9206 101.116 48.4248 100.15 48.3195C99.1075 48.2053 98.1605 48.8415 97.2769 49.3058C95.5871 50.1938 93.8593 51.0271 92.0906 51.7418C91.1519 52.1371 90.1862 52.4639 89.2011 52.7199C88.3247 52.9338 88.6957 54.2959 89.5738 54.0817L89.5761 54.082Z" fill="#726A69"/>
<path d="M101.452 49.4317C100.291 49.9799 99.1763 50.6266 98.0201 51.186C96.689 51.8298 95.3979 52.5545 94.0878 53.2401C93.2869 53.6591 93.9952 54.8784 94.7956 54.4594C96.1054 53.7741 97.3968 53.0494 98.7276 52.4056C99.8838 51.8465 100.999 51.1992 102.159 50.6513C102.319 50.5557 102.434 50.4008 102.481 50.2201C102.529 50.0393 102.503 49.8471 102.411 49.685C102.314 49.5265 102.16 49.4116 101.982 49.3644C101.803 49.3172 101.613 49.3413 101.452 49.4317Z" fill="#726A69"/>
<path d="M93.051 54.674C94.3108 55.7297 95.5172 56.8452 96.6705 58.0204C96.8023 58.1511 96.9801 58.224 97.165 58.2232C97.3499 58.2224 97.5271 58.1481 97.6579 58.0164C97.7886 57.8846 97.8624 57.7062 97.8632 57.5199C97.8639 57.3336 97.7916 57.1546 97.6619 57.0218C96.5102 55.8477 95.3037 54.7323 94.0424 53.6753C93.909 53.5467 93.7314 53.4749 93.5467 53.4749C93.362 53.4749 93.1844 53.5467 93.051 53.6753C92.9216 53.8088 92.8491 53.9881 92.8491 54.1747C92.8491 54.3613 92.9216 54.5405 93.051 54.674Z" fill="#726A69"/>
<path d="M96.2821 56.9643C95.5346 56.9799 94.788 57.0167 94.0428 57.0788C93.3173 57.1037 92.5973 57.2145 91.8976 57.4089C91.3156 57.6021 90.7773 57.9093 90.3137 58.3128C89.85 58.7163 89.4701 59.2082 89.1959 59.7602C89.1068 59.923 89.0832 60.1141 89.13 60.294C89.1768 60.4738 89.2904 60.6287 89.4474 60.7265C89.6084 60.8193 89.7991 60.8447 89.9784 60.7973C90.1578 60.75 90.3116 60.6336 90.4067 60.4731C90.6047 60.0486 90.8908 59.6718 91.2457 59.3681C91.6005 59.0644 92.0158 58.8408 92.4637 58.7124C93.0452 58.5774 93.6381 58.4981 94.2344 58.4755C94.916 58.423 95.5986 58.39 96.2821 58.3767C97.1829 58.3581 97.1876 56.9455 96.2821 56.9643Z" fill="#726A69"/>
<path d="M83.2014 61.9079C83.1955 61.9727 83.1648 62.1463 83.2075 61.8847C83.2002 61.9306 83.1938 61.9765 83.1862 62.0224C83.1678 62.1301 83.1464 62.2378 83.1237 62.3446C83.0702 62.595 83.0068 62.8433 82.944 63.0911C82.8231 63.5542 82.6899 64.0138 82.5643 64.4758C82.5149 64.6564 82.5387 64.8494 82.6305 65.0123C82.7224 65.1753 82.8747 65.2948 83.054 65.3446C83.2333 65.3943 83.4249 65.3703 83.5866 65.2778C83.7484 65.1853 83.867 65.0319 83.9164 64.8513C84.1793 63.885 84.5132 62.9092 84.6032 61.9088C84.6026 61.7217 84.5285 61.5425 84.3972 61.4102C84.2658 61.2779 84.0879 61.2033 83.9021 61.2026C83.7177 61.2073 83.542 61.2832 83.4116 61.4147C83.2811 61.5461 83.2057 61.723 83.2011 61.9088L83.2014 61.9079Z" fill="#726A69"/>
<path d="M91.4796 66.1089C90.4573 65.8305 85.1994 64.3958 83.0027 63.4995C82.8047 64.0056 82.4051 65.242 82.1527 65.9085L82.0943 66.0512C84.7297 67.0696 88.2869 68.2495 90.8767 68.6967L90.8922 68.6458C91.1414 67.8317 91.4998 66.3802 91.5836 66.1371L91.4796 66.1089Z" fill="white"/>
<path d="M31.2863 27.4308C31.2863 31.1992 31.1844 35.0676 30.5917 38.7591C30.4944 39.3656 30.3817 39.9699 30.2412 40.5681C30.148 40.9654 30.0437 41.3597 29.9587 41.7589C29.8387 42.3245 29.6599 42.8715 29.5246 43.4338C29.2501 44.5807 29.0908 45.7526 29.0494 46.9317C28.9866 47.8689 29.0938 48.8097 29.3657 49.7082C30.0712 51.7679 32.4951 53.2162 34.6143 53.1891C35.5157 53.1776 35.5181 51.7653 34.6143 51.7767C33.6921 51.7563 32.7987 51.4493 32.0563 50.8978C31.4209 50.5208 30.9359 49.9322 30.6852 49.2336C30.4576 48.3939 30.3825 47.5197 30.4635 46.6531C30.5216 45.5548 30.6946 44.4658 30.9796 43.4041C31.3767 41.985 31.7007 40.5462 31.9503 39.0934C32.1992 37.5301 32.3592 35.9524 32.4691 34.3734C32.6309 32.063 32.6882 29.7459 32.6884 27.4293C32.6884 26.5204 31.2863 26.5189 31.2863 27.4293V27.4308Z" fill="#B47119"/>
<path d="M67.8464 27.4309C67.853 31.3046 68.272 35.1663 69.0963 38.95C69.337 39.9969 69.6247 41.0314 69.9469 42.0557C70.2429 42.9463 70.4821 43.855 70.6631 44.7763C70.8799 45.7624 70.9373 46.7774 70.8331 47.782C70.6745 48.7401 70.2418 49.6308 69.588 50.3449C68.9343 51.0589 68.0879 51.5653 67.1526 51.8019C66.2734 52.0052 66.6455 53.3673 67.5253 53.1637C68.4839 52.9183 69.3717 52.4492 70.117 51.7944C70.8624 51.1396 71.4444 50.3174 71.8161 49.3941C72.6462 47.4015 72.2446 45.0176 71.6969 42.9982C71.3756 41.8147 70.9698 40.6586 70.6663 39.4696C70.2884 37.9755 69.9921 36.4616 69.7789 34.9347C69.4426 32.4477 69.2658 29.9415 69.2493 27.4315C69.2374 26.5235 67.8352 26.5208 67.8472 27.4315L67.8464 27.4309Z" fill="#B47119"/>
<path d="M63.5232 33.9994C63.4885 34.6019 63.3778 35.1976 63.1937 35.7719C63.1271 35.9988 63.0535 36.2236 62.9787 36.4486C62.9559 36.5172 62.9325 36.5852 62.9092 36.6546C62.8621 36.7926 62.8814 36.7238 62.8995 36.684C62.6231 37.2856 62.3072 37.8679 61.954 38.4271C60.9607 40.0841 59.6924 41.5571 58.2045 42.7819C57.3966 43.4501 56.4526 43.9309 55.4394 44.1902C54.5605 44.3944 54.9326 45.7564 55.8122 45.5519C57.9463 45.0561 59.734 43.5093 61.1408 41.886C62.32 40.5724 63.3052 39.0945 64.0659 37.4979C64.572 36.3991 64.8638 35.2126 64.9253 34.0029C64.9545 33.094 63.5524 33.0952 63.5232 34.0029V33.9994Z" fill="#726A69"/>
<path d="M36.3497 34.5751C37.2464 38.8463 39.7495 43.0093 43.7449 44.9854C44.8133 45.5143 45.9668 45.8472 47.1511 45.9685C47.3367 45.9672 47.5143 45.8924 47.6455 45.7603C47.7767 45.6281 47.851 45.4492 47.8522 45.2623C47.8482 45.0763 47.773 44.899 47.6424 44.7674C47.5118 44.6358 47.3358 44.5601 47.1511 44.5561C43.2191 44.1441 40.0027 40.7192 38.5887 37.1847C38.2072 36.2176 37.9103 35.2188 37.7015 34.1996C37.5149 33.311 36.163 33.687 36.3497 34.5751Z" fill="#726A69"/>
<path d="M57.631 4.10802C55.0748 3.12142 52.2825 2.86308 49.5616 2.98989C46.4041 3.17307 43.332 4.09262 40.5875 5.67604C38.5701 6.78074 36.8142 8.31259 35.4406 10.1662C34.0267 12.1899 32.9886 14.4548 32.3764 16.8514C31.4417 20.2834 31.175 23.8859 31.2866 27.4324C31.3158 28.3389 32.7179 28.3428 32.6887 27.4324C32.5201 22.0771 33.1724 16.2911 36.1063 11.6827C37.2157 9.95539 38.6924 8.49808 40.4295 7.41619C42.8458 5.85698 45.5765 4.85947 48.4232 4.49612C50.1662 4.31262 51.9242 4.33068 53.663 4.54997C54.8946 4.70464 56.1022 5.01332 57.258 5.46889C57.4372 5.51726 57.6281 5.49264 57.7895 5.40036C57.9508 5.30808 58.0696 5.15555 58.1203 4.97574C58.1653 4.79547 58.1396 4.60463 58.0485 4.44298C57.9573 4.28134 57.8078 4.16135 57.631 4.10802Z" fill="#B47119"/>
<path d="M69.2473 27.4323C69.3577 25.8195 69.3634 24.2011 69.2646 22.5876C69.2231 21.145 69.0827 19.707 68.8445 18.284C68.2375 15.0105 66.9067 11.7365 64.7729 9.16802C64.2114 8.49127 63.5668 7.88924 62.9487 7.26751C62.3532 6.65789 61.6745 6.13685 60.9331 5.72009C60.1421 5.28137 59.4341 6.50071 60.2254 6.93943C60.8088 7.25969 61.3452 7.66017 61.8191 8.12935C62.3642 8.66752 62.923 9.20274 63.4371 9.77093C64.448 10.9273 65.2808 12.23 65.9077 13.6355C66.5776 15.0929 67.0784 16.6233 67.4001 18.1963C67.6524 19.5294 67.801 20.8804 67.8444 22.2368C67.9606 23.9669 67.9606 25.7028 67.8444 27.4329C67.8458 27.6197 67.9201 27.7985 68.0513 27.9306C68.1825 28.0627 68.3599 28.1376 68.5454 28.139C68.7302 28.1354 68.9064 28.0598 69.0371 27.9281C69.1678 27.7965 69.2428 27.619 69.2465 27.4329L69.2473 27.4323Z" fill="#B47119"/>
<path d="M55.9927 44.5177C55.9743 45.1399 55.9947 45.7627 56.054 46.3823C56.0839 46.9699 56.2532 47.5417 56.5477 48.0498C57.2403 49.0576 58.3588 49.7823 59.3484 50.459C59.4279 50.5058 59.5157 50.5364 59.607 50.549C59.6982 50.5617 59.791 50.556 59.88 50.5325C59.9691 50.509 60.0527 50.4681 60.126 50.412C60.1994 50.356 60.2611 50.2859 60.3075 50.2058C60.354 50.1258 60.3844 50.0373 60.3969 49.9454C60.4094 49.8535 60.4038 49.76 60.3805 49.6703C60.3572 49.5806 60.3165 49.4964 60.2609 49.4225C60.2052 49.3486 60.1357 49.2865 60.0562 49.2397C59.5847 48.9175 59.1162 48.5882 58.6751 48.2246C58.482 48.0654 58.293 47.9009 58.1137 47.7243C58.0357 47.6478 57.9589 47.5696 57.8858 47.4889C57.8487 47.4478 57.8128 47.4057 57.7775 47.363C57.7059 47.2765 57.8549 47.4901 57.7582 47.3362C57.7158 47.2686 57.6735 47.2038 57.6375 47.1323C57.599 47.0558 57.6758 47.2465 57.6358 47.1211C57.6148 47.0546 57.5914 46.9893 57.5721 46.9222C57.5096 46.7014 57.4657 46.4756 57.441 46.2472C57.3942 45.6718 57.3788 45.0942 57.3948 44.5171C57.4006 43.6082 55.9985 43.607 55.9927 44.5171V44.5177Z" fill="#726A69"/>
<path d="M43.8353 44.5792C43.8507 45.1443 43.8346 45.7099 43.7871 46.2732C43.7598 46.5084 43.7127 46.741 43.6463 46.9682C43.6267 47.0335 43.6048 47.0974 43.5823 47.1618C43.5981 47.1171 43.6218 47.0935 43.5873 47.1486C43.5625 47.1877 43.4269 47.3895 43.5251 47.2642C42.886 48.0795 41.9156 48.6339 41.048 49.1768C40.9685 49.2236 40.899 49.2857 40.8434 49.3596C40.7877 49.4335 40.747 49.5177 40.7237 49.6074C40.7004 49.6971 40.6948 49.7906 40.7073 49.8825C40.7198 49.9744 40.7502 50.0629 40.7967 50.1429C40.8431 50.223 40.9048 50.293 40.9782 50.3491C41.0515 50.4051 41.1351 50.4461 41.2242 50.4696C41.3132 50.4931 41.406 50.4987 41.4972 50.4861C41.5885 50.4735 41.6763 50.4429 41.7558 50.3961C42.3222 50.0413 42.881 49.6726 43.4115 49.2645C43.8825 48.9303 44.3035 48.5297 44.6617 48.0751C44.9508 47.6134 45.1215 47.0865 45.1582 46.5418C45.2306 45.8903 45.2577 45.2345 45.2394 44.5792C45.2336 43.6706 43.8315 43.6688 43.8373 44.5792H43.8353Z" fill="#726A69"/>
<path d="M48.2978 17.0455C47.0504 18.8994 45.4905 20.5192 43.6886 21.8313C42.1238 23.0159 40.444 24.0379 38.6749 24.8818C38.193 25.1113 37.7088 25.3369 37.2226 25.5585C37.0084 25.6552 36.7942 25.7511 36.5799 25.8463C36.4855 25.8885 36.391 25.93 36.2963 25.971L36.1979 26.0137C35.9934 26.102 36.3147 25.9652 36.1278 26.0431C35.952 26.0984 35.8037 26.2189 35.713 26.3803C35.6223 26.5417 35.596 26.7318 35.6394 26.912C35.6898 27.092 35.8086 27.2448 35.9701 27.3371C36.1316 27.4294 36.3227 27.4539 36.502 27.4052C38.0829 26.7721 39.6251 26.045 41.1204 25.2278C43.2492 24.0275 45.2164 22.5573 46.9739 20.853C47.9283 19.9177 48.7782 18.88 49.5085 17.7584C50.0022 16.9934 48.7888 16.2872 48.2978 17.0455Z" fill="#B47119"/>
<path d="M47.5274 20.7454C46.9867 20.9169 46.4385 21.0473 45.8858 21.1726C45.6384 21.2288 45.391 21.2847 45.1415 21.3318C45.0149 21.3558 44.8884 21.3773 44.7618 21.3966C44.725 21.4021 44.4936 21.4413 44.6858 21.4083C44.6084 21.4216 44.5296 21.428 44.4521 21.4377C44.2676 21.4422 44.0919 21.5181 43.9614 21.6495C43.8308 21.781 43.7555 21.958 43.7511 22.1439C43.7663 22.49 44.0619 22.896 44.4521 22.8501C45.6223 22.7121 46.777 22.4637 47.901 22.108C47.9898 22.0834 48.0729 22.0414 48.1456 21.9844C48.2182 21.9274 48.279 21.8565 48.3245 21.7758C48.37 21.6952 48.3992 21.6062 48.4106 21.5142C48.422 21.4221 48.4152 21.3287 48.3908 21.2393C48.3663 21.1498 48.3246 21.0661 48.268 20.993C48.2114 20.9198 48.141 20.8585 48.061 20.8127C47.9809 20.7669 47.8926 20.7374 47.8012 20.726C47.7098 20.7145 47.6171 20.7213 47.5283 20.746L47.5274 20.7454Z" fill="#B47119"/>
<path d="M56.6351 15.0616C55.5058 16.336 54.1834 17.4224 52.7171 18.2806C51.0896 19.3051 49.3477 20.1323 47.5276 20.7452C46.6737 21.0268 47.0392 22.3909 47.9003 22.1072C49.8372 21.46 51.6915 20.5848 53.4249 19.5C54.9505 18.5519 56.4648 17.4485 57.6268 16.0603C57.7538 15.9255 57.8246 15.7467 57.8246 15.5609C57.8246 15.3751 57.7538 15.1964 57.6268 15.0616C57.4946 14.9305 57.3166 14.8571 57.1311 14.8571C56.9456 14.8571 56.7673 14.9305 56.6351 15.0616Z" fill="#B47119"/>
<path d="M65.088 26.2481C62.9848 25.178 61.4659 23.2889 60.2157 21.3254C59.099 19.5919 58.3183 17.661 57.915 15.6348C57.8906 15.5454 57.8488 15.4617 57.7923 15.3885C57.7357 15.3153 57.6653 15.254 57.5852 15.2082C57.5051 15.1624 57.4169 15.1329 57.3255 15.1215C57.2341 15.11 57.1414 15.1168 57.0526 15.1415C56.9638 15.1661 56.8807 15.2082 56.8081 15.2652C56.7354 15.3222 56.6746 15.393 56.6291 15.4737C56.5836 15.5544 56.5544 15.6433 56.543 15.7353C56.5317 15.8274 56.5384 15.9208 56.5629 16.0102C56.8749 17.6134 57.4168 19.1622 58.1718 20.6081C59.0768 22.3594 60.23 23.9688 61.595 25.3857C62.4072 26.2251 63.3476 26.928 64.3805 27.4678C65.1838 27.8768 65.8945 26.6586 65.088 26.2481Z" fill="#B47119"/>
<path d="M65.2299 27.3576C65.374 27.2393 65.5402 27.1512 65.7187 27.0988C65.8971 27.0463 66.0842 27.0305 66.2689 27.0523C66.4536 27.074 66.632 27.1329 66.7936 27.2255C66.9552 27.318 67.0968 27.4423 67.2098 27.591C67.4153 27.9784 67.5109 28.4153 67.4862 28.8539C67.5101 29.3717 67.4807 29.8907 67.3985 30.4025C67.0848 32.2694 66.1217 34.5442 64.0583 34.9062C63.8799 34.9573 63.7286 35.077 63.637 35.2395C63.5454 35.402 63.5209 35.5942 63.5687 35.7748C63.6217 35.9531 63.7409 36.1039 63.9015 36.1958C64.0622 36.2878 64.2519 36.3137 64.431 36.2682C67.2677 35.7703 68.6233 32.529 68.8585 29.9496C68.9721 28.7015 68.9405 27.1402 67.8945 26.2792C67.3737 25.8559 66.721 25.6316 66.0518 25.6462C65.3827 25.6607 64.7402 25.9131 64.2379 26.3587C64.1079 26.4919 64.035 26.6712 64.035 26.858C64.035 27.0448 64.1079 27.2242 64.2379 27.3574C64.3712 27.4863 64.5489 27.5583 64.7336 27.5583C64.9184 27.5583 65.0961 27.4863 65.2294 27.3574L65.2299 27.3576Z" fill="#726A69"/>
<path d="M36.804 26.3589C36.3018 25.9133 35.6593 25.661 34.9902 25.6464C34.3211 25.6319 33.6685 25.8561 33.1477 26.2795C32.1011 27.1404 32.0689 28.7017 32.1829 29.9498C32.4165 32.5292 33.7734 35.7706 36.61 36.2684C36.7891 36.3129 36.9783 36.2865 37.1387 36.1947C37.2991 36.1029 37.4185 35.9527 37.4723 35.775C37.5202 35.5944 37.4957 35.4022 37.4041 35.2397C37.3125 35.0772 37.1612 34.9575 36.9827 34.9064C34.9196 34.5444 33.9562 32.2697 33.6428 30.4027C33.5608 29.8909 33.5314 29.3719 33.5552 28.8541C33.5326 28.4156 33.628 27.9792 33.8315 27.5909C33.9444 27.442 34.0859 27.3175 34.2475 27.2248C34.4091 27.1322 34.5876 27.0732 34.7723 27.0514C34.9571 27.0296 35.1443 27.0455 35.3228 27.0981C35.5013 27.1507 35.6674 27.2389 35.8114 27.3576C35.9452 27.4856 36.1226 27.5569 36.3071 27.5569C36.4916 27.5569 36.669 27.4856 36.8028 27.3576C36.9329 27.2244 37.0057 27.045 37.0057 26.8582C37.0057 26.6714 36.9329 26.4921 36.8028 26.3589H36.804Z" fill="#726A69"/>
<path d="M91.5682 68.8336C91.8192 68.0048 91.9877 67.1467 92.2597 66.3249C92.307 66.1444 92.2822 65.9523 92.1906 65.79C92.099 65.6276 91.948 65.5078 91.7698 65.4563C90.5368 65.1197 89.3059 64.7763 88.079 64.4171C86.4374 63.9363 84.7768 63.4622 83.1892 62.8187C82.813 62.6663 82.4508 62.9903 82.3266 63.3119C82.0205 64.1063 81.7757 64.9237 81.4769 65.7208C81.4289 65.9014 81.4533 66.0937 81.5449 66.2562C81.6365 66.4188 81.7879 66.5385 81.9665 66.5894C82.1456 66.6352 82.3353 66.6094 82.496 66.5175C82.6567 66.4256 82.7759 66.2747 82.8287 66.0963C83.1279 65.2992 83.3726 64.4818 83.6788 63.6873L82.8165 64.1808C84.4041 64.824 86.0647 65.2989 87.7063 65.7788C88.9332 66.1381 90.1641 66.4818 91.3971 66.8181L90.9075 65.9495C90.6358 66.7713 90.467 67.6293 90.2161 68.4582C89.9532 69.3294 91.3054 69.702 91.5682 68.8336Z" fill="#726A69"/>
<path d="M43.2639 56.1997C45.6604 56.8694 48.1364 57.2067 50.6235 57.2022C53.003 57.1631 55.5203 56.875 57.7485 55.9958C57.9248 55.9413 58.0737 55.821 58.1647 55.6595C58.2557 55.498 58.282 55.3076 58.2381 55.1272C58.1875 54.9473 58.0687 54.7948 57.9073 54.7025C57.746 54.6102 57.555 54.5856 57.3758 54.634C55.2536 55.4709 52.8893 55.7522 50.6235 55.7892C48.2623 55.7944 45.9116 55.4741 43.6366 54.8374C42.7635 54.6043 42.3911 55.9664 43.2639 56.1991V56.1997Z" fill="#726A69"/>
<path d="M47.2768 79.7039C47.3553 79.7745 47.4274 79.8519 47.4924 79.9352L47.3829 79.7922C47.4521 79.8847 47.5109 79.9847 47.5581 80.0903L47.4874 79.9217C47.5354 80.0366 47.5686 80.1573 47.5862 80.2807L47.561 80.0929C47.5778 80.226 47.5778 80.3606 47.561 80.4937L47.5862 80.306C47.5656 80.4512 47.5271 80.5932 47.4714 80.7288L47.5421 80.5602C47.4981 80.6664 47.4416 80.7669 47.3738 80.8594L47.4836 80.7164C47.4192 80.7989 47.3448 80.8729 47.2622 80.9368L47.4039 80.8265C47.3067 80.8993 47.2012 80.96 47.0896 81.0074L47.257 80.9362C47.1255 80.9894 46.9882 81.0264 46.848 81.0466L47.0347 81.0216C46.8761 81.042 46.7156 81.042 46.5571 81.0216L46.7434 81.0469C46.609 81.0282 46.4773 80.9929 46.3514 80.9418L46.5191 81.013C46.4244 80.9726 46.3348 80.9209 46.2521 80.8591L46.3941 80.9695C46.2977 80.8928 46.2104 80.8052 46.1341 80.7082L46.2437 80.8512C46.1734 80.7593 46.1151 80.6587 46.0701 80.552L46.1408 80.7206C46.1051 80.6294 46.0798 80.5344 46.0655 80.4375L46.0903 80.6252C46.0763 80.5112 46.0763 80.3959 46.0903 80.2818L46.0652 80.4696C46.0859 80.326 46.1246 80.1857 46.1806 80.052L46.1099 80.2206C46.1809 80.0581 46.2715 79.905 46.3798 79.7648L46.2702 79.9079C46.3314 79.828 46.4015 79.7554 46.4791 79.6916L46.3374 79.8019C46.4262 79.7343 46.5226 79.6775 46.6246 79.6327L46.4572 79.7039C46.5919 79.6474 46.7334 79.6089 46.8781 79.5895L46.6917 79.6148C46.8295 79.5976 46.9688 79.5976 47.1065 79.6148L46.9202 79.5895C47.0372 79.6065 47.1518 79.6374 47.2616 79.6816L47.094 79.6104C47.1935 79.6528 47.2873 79.7079 47.3729 79.7743L47.2313 79.6639C47.2467 79.6763 47.2619 79.6889 47.2768 79.7022C47.4112 79.8305 47.5882 79.904 47.7734 79.9081C47.9123 79.9085 48.0482 79.8673 48.1638 79.7897C48.2794 79.7121 48.3695 79.6017 48.4227 79.4724C48.4759 79.3432 48.4898 79.2009 48.4626 79.0637C48.4354 78.9265 48.3684 78.8005 48.27 78.7018C47.8981 78.3759 47.4235 78.1934 46.9307 78.1868C46.4995 78.1762 46.0747 78.2933 45.7091 78.5237C45.3349 78.7809 45.0429 79.1421 44.8688 79.5634C44.6946 79.9846 44.6458 80.4478 44.7282 80.8965C44.8513 81.3851 45.1491 81.8107 45.5645 82.0917C45.8176 82.2531 46.0999 82.3625 46.3952 82.4136C46.6904 82.4647 46.9928 82.4564 47.2849 82.3893C47.577 82.3222 47.853 82.1976 48.097 82.0226C48.3411 81.8476 48.5484 81.6257 48.707 81.3697C48.906 80.9938 48.997 80.5695 48.9699 80.1444C48.9269 79.5915 48.6761 79.0758 48.2688 78.7026C48.137 78.572 47.9592 78.4991 47.7743 78.4999C47.5894 78.5006 47.4122 78.575 47.2814 78.7067C47.1507 78.8384 47.0769 79.0169 47.0761 79.2032C47.0754 79.3894 47.1477 79.5685 47.2774 79.7013L47.2768 79.7039Z" fill="#90898C"/>
<path d="M50.9396 98.2541C51.5224 92.85 52.175 87.4624 52.4154 82.0283C52.4647 81.2064 52.4381 80.3816 52.3359 79.5646C52.1861 78.6888 51.94 77.8325 51.6021 77.0115C51.5483 76.8338 51.4289 76.6836 51.2685 76.5919C51.1081 76.5001 50.9189 76.4738 50.7398 76.5184C50.5613 76.5693 50.4099 76.689 50.3182 76.8515C50.2266 77.0141 50.2021 77.2064 50.25 77.387C50.5469 78.1105 50.7763 78.8603 50.9353 79.6267C51.0396 80.3236 51.0699 81.0296 51.0255 81.7329C50.9703 83.1947 50.8675 84.6553 50.7673 86.1145C50.5871 88.7365 50.2999 91.347 50.0128 93.959C49.8548 95.3908 49.6915 96.822 49.5375 98.255C49.5388 98.4419 49.613 98.6208 49.7442 98.7529C49.8754 98.8851 50.053 98.9599 50.2386 98.9611C50.4232 98.957 50.5992 98.8813 50.7298 98.7498C50.8604 98.6182 50.9355 98.441 50.9396 98.255V98.2541Z" fill="#90898C"/>
<path d="M38.5528 49.9551C37.0086 50.9419 35.3988 51.8206 33.7348 52.5847C31.9667 53.448 30.2004 54.3349 28.3893 55.1064C27.5647 55.458 26.6679 55.8311 26.0571 56.5188C25.4415 57.2804 24.9747 58.1528 24.6816 59.0896C24.2952 60.1916 23.9974 61.3232 23.7913 62.4734C23.259 65.2754 22.9634 68.1258 22.6979 70.9637C22.3363 74.8322 22.0763 78.71 21.8412 82.5863C21.5616 87.2021 21.325 91.8188 21.0931 96.4352C21.0627 97.0417 21.032 97.648 21.0011 98.2542C20.9558 99.1625 22.3579 99.1602 22.4032 98.2542C22.8305 89.6876 23.2211 81.1107 23.9554 72.5638C24.2084 69.6252 24.4876 66.714 24.9623 63.8631C25.121 62.8493 25.3314 61.8444 25.5924 60.8524C25.8005 60.0341 26.0871 59.2381 26.4483 58.4758C26.7503 57.7862 27.2739 57.2191 27.9348 56.8657C28.861 56.3655 29.8627 56.0035 30.8097 55.5472C31.8172 55.0623 32.8281 54.5853 33.8347 54.0989C35.677 53.2085 37.5567 52.3217 39.2591 51.1747C40.0055 50.6719 39.3044 49.4481 38.5516 49.9551H38.5528Z" fill="#90898C"/>
<path d="M59.3087 48.8294C58.4155 52.4704 57.2348 56.0343 56.0027 59.5693C54.7758 63.089 53.5096 66.5952 52.2433 70.1005C51.5376 72.0541 50.8347 74.0087 50.1346 75.9642C50.0869 76.1447 50.1115 76.3369 50.203 76.4994C50.2946 76.6618 50.4458 76.7816 50.6242 76.8328C50.8033 76.8788 50.9931 76.8531 51.1539 76.7612C51.3146 76.6692 51.4338 76.5182 51.4864 76.3397C53.9971 69.2917 56.6859 62.294 58.9585 55.1627C59.5854 53.1942 60.1684 51.211 60.6609 49.2037C60.8773 48.321 59.5255 47.9449 59.3087 48.8283V48.8294Z" fill="#90898C"/>
<path d="M55.8277 74.9225C57.5908 72.3849 59.2935 69.8061 60.9357 67.1859C61.7663 65.8595 62.5806 64.5229 63.3786 63.1763C64.1579 61.8613 64.97 60.5487 65.6748 59.1914C65.7897 59.0011 65.8548 58.7846 65.8641 58.5621C65.8734 58.3396 65.8266 58.1184 65.728 57.9191C65.5014 57.5684 65.2231 57.2545 64.9028 56.9881C64.2824 56.3725 63.6377 55.7817 62.9904 55.1967L62.8484 56.306C63.4268 55.9603 63.9964 55.5998 64.5864 55.2735C65.1601 54.9575 65.9786 54.6927 65.768 53.8473C65.5786 53.3126 65.2971 52.8156 64.9364 52.3793C64.6077 51.922 64.2465 51.4893 63.8556 51.0847C62.7805 50.0304 61.6012 49.0897 60.336 48.2773C59.5871 47.7662 58.8848 48.9891 59.6285 49.4966L60.4756 50.0742C60.8225 50.3032 61.1564 50.5514 61.4758 50.8178C62.0849 51.3093 62.6559 51.847 63.1838 52.4261C63.4269 52.6953 63.6521 52.9803 63.8579 53.2794C63.9553 53.4222 64.048 53.5678 64.136 53.7161C64.1853 53.7991 64.2332 53.8827 64.2797 53.9671C64.2964 53.9965 64.3928 54.2131 64.3922 54.1498L64.488 53.7935L64.4404 53.8694L64.6919 53.616C64.296 53.8635 63.8864 54.088 63.4651 54.2884C63.0202 54.5479 62.5829 54.821 62.1407 55.0852C62.0491 55.1406 61.9711 55.2161 61.9126 55.3061C61.8542 55.3962 61.8167 55.4984 61.8031 55.6051C61.7895 55.7118 61.8 55.8203 61.8339 55.9223C61.8679 56.0243 61.9243 56.1173 61.999 56.1942C62.5271 56.6723 63.0532 57.1531 63.5658 57.6481C63.8135 57.8868 64.0575 58.1293 64.2979 58.3757C64.3139 58.3919 64.4471 58.5605 64.4871 58.5723C64.4632 58.5652 64.4906 58.4281 64.4871 58.4328C64.4091 58.5876 64.318 58.7368 64.233 58.8877C63.5111 60.1679 62.7747 61.4397 62.0238 62.7031C60.5423 65.1944 59.0048 67.6516 57.4115 70.0748C56.4974 71.4648 55.5655 72.8428 54.6157 74.2086C54.5235 74.3707 54.4982 74.5628 54.5453 74.7435C54.5923 74.9242 54.7079 75.079 54.8672 75.1746C55.0286 75.2655 55.2187 75.2898 55.3975 75.2426C55.5764 75.1954 55.7301 75.0802 55.8265 74.9213L55.8277 74.9225Z" fill="#90898C"/>
<path d="M31.9746 98.2546C32.1928 95.2733 32.4966 92.2988 32.7519 89.3208C32.8521 88.1488 32.9564 86.9751 33.0052 85.7996C33.0278 84.9652 32.9862 84.1303 32.8807 83.3024C32.3035 78.1699 31.1781 73.1216 30.3724 68.0238C30.0984 66.2898 29.8396 64.5517 29.5545 62.8213C29.3953 61.6383 29.1597 60.4671 28.8491 59.3151C28.5862 58.4483 27.2323 58.8178 27.4969 59.6905C27.7656 60.6727 27.9723 61.671 28.1159 62.6795C28.3715 64.1828 28.5991 65.6907 28.8336 67.1973C29.2461 69.8455 29.7248 72.4789 30.2007 75.1165C30.6447 77.577 31.0831 80.1328 31.3901 82.5553C31.5269 83.4534 31.6035 84.3597 31.6194 85.2682C31.6112 86.2998 31.5149 87.3335 31.4313 88.361C31.1634 91.6603 30.8156 94.952 30.574 98.2546C30.574 98.3474 30.5921 98.4392 30.6273 98.5249C30.6626 98.6105 30.7142 98.6884 30.7793 98.754C30.8444 98.8195 30.9217 98.8716 31.0068 98.907C31.0918 98.9425 31.183 98.9608 31.275 98.9608C31.3671 98.9608 31.4583 98.9425 31.5433 98.907C31.6284 98.8716 31.7057 98.8195 31.7708 98.754C31.8359 98.6884 31.8875 98.6105 31.9227 98.5249C31.958 98.4392 31.9761 98.3474 31.9761 98.2546H31.9746Z" fill="#90898C"/>
<path d="M72.211 59.141C71.4863 64.5622 70.7966 69.9759 69.8239 75.36C69.3711 77.8652 68.9216 80.3745 68.5971 82.9006C68.4679 83.7489 68.4032 84.606 68.4037 85.4643C68.4294 86.5089 68.5205 87.5534 68.6082 88.5942C68.8737 91.8152 69.2105 95.0304 69.4462 98.2541C69.4506 98.4401 69.5259 98.6171 69.6564 98.7486C69.7869 98.8801 69.9627 98.9559 70.1473 98.9603C70.3327 98.9588 70.5102 98.8839 70.6413 98.7518C70.7724 98.6197 70.8468 98.441 70.8483 98.2541C70.6377 95.3729 70.3468 92.4979 70.097 89.6202C69.9264 87.6511 69.6922 85.6729 69.9051 83.7C70.1566 81.3687 70.6041 78.93 71.0288 76.5552C71.4962 73.9459 71.9572 71.3386 72.3401 68.7145C72.6056 66.8949 72.8501 65.0724 73.0858 63.2487C73.1799 62.5207 73.2729 61.7926 73.3648 61.0645C73.4038 60.7549 73.4427 60.4455 73.4816 60.1361L73.5334 59.7363C73.5418 59.6724 73.5868 59.3326 73.5626 59.5165C73.6056 59.3361 73.5789 59.1459 73.488 58.9846C73.397 58.8232 73.2486 58.7028 73.0727 58.6476C72.8934 58.5991 72.7024 58.6238 72.5411 58.7161C72.3797 58.8085 72.2609 58.9611 72.2104 59.141H72.211Z" fill="#90898C"/>
<path d="M40.3633 49.1819C42.81 56.5136 45.2824 63.832 47.9519 71.0848C48.7248 73.1854 49.5001 75.2851 50.2511 77.3936C50.3045 77.5716 50.4239 77.722 50.5844 77.8138C50.7449 77.9056 50.9343 77.9318 51.1134 77.8868C51.2918 77.8356 51.443 77.7159 51.5346 77.5534C51.6262 77.3909 51.6507 77.1987 51.603 77.0182C50.2642 73.2613 48.851 69.5321 47.5053 65.7781C46.2049 62.1498 44.964 58.5 43.7371 54.8467C43.0604 52.8344 42.387 50.8211 41.7169 48.8068C41.431 47.9496 40.0762 48.3171 40.3648 49.1822L40.3633 49.1819Z" fill="#90898C"/>
<path d="M46.4105 74.3651C43.0892 69.5842 39.9869 64.6599 37.1034 59.592C36.9998 59.4096 36.8964 59.227 36.7932 59.0441C36.7476 58.9629 36.7015 58.882 36.6562 58.8005C36.6381 58.7681 36.5341 58.5289 36.5449 58.6257C36.5469 58.6443 36.558 58.714 36.5402 58.729C36.6404 58.6407 36.7321 58.5292 36.8253 58.4348C36.9538 58.3039 37.0834 58.1743 37.2141 58.0458C37.8045 57.4655 38.415 56.9068 39.0287 56.3515C39.1034 56.2746 39.1598 56.1816 39.1937 56.0796C39.2276 55.9776 39.2381 55.8691 39.2244 55.7624C39.2108 55.6557 39.1733 55.5535 39.1148 55.4634C39.0563 55.3734 38.9783 55.2979 38.8867 55.2425C38.4445 54.9777 38.0072 54.7055 37.5623 54.4454C37.141 54.2451 36.7314 54.0208 36.3355 53.7734L36.587 54.0267L36.5393 53.9505L36.6349 54.3071C36.6349 54.3601 36.7079 54.1965 36.7196 54.1747C36.7651 54.0892 36.812 54.0043 36.8601 53.9199C36.9561 53.7522 37.0573 53.5875 37.1636 53.4259C37.3651 53.1183 37.5853 52.8235 37.8229 52.5431C38.3369 51.9446 38.8997 51.3904 39.5054 50.8863C39.8219 50.6159 40.1551 50.366 40.5029 50.138L41.35 49.5604C42.0929 49.0534 41.3921 47.8294 40.6423 48.3411C39.371 49.1513 38.1974 50.1073 37.1449 51.1899C36.7609 51.6082 36.4062 52.0527 36.0831 52.5202C35.7298 52.9657 35.4516 53.4666 35.2596 54.0029C35.0461 54.8191 35.8234 55.0916 36.3819 55.3967C36.9933 55.7298 37.5816 56.1044 38.1789 56.4616L38.0373 55.3526C37.4577 55.8769 36.8808 56.4045 36.3214 56.9503C35.8149 57.4444 35.1077 57.976 35.16 58.7599C35.2254 59.12 35.3698 59.4608 35.5827 59.7574C35.7887 60.123 35.996 60.488 36.2046 60.8523C36.5746 61.4996 36.9492 62.1453 37.3283 62.7893C38.9045 65.4692 40.545 68.1094 42.2497 70.7097C43.2135 72.1795 44.1969 73.6358 45.2 75.0783C45.2972 75.2363 45.4509 75.3507 45.6294 75.3979C45.8079 75.445 45.9976 75.4213 46.1593 75.3317C46.3187 75.2361 46.4344 75.0812 46.4814 74.9004C46.5285 74.7196 46.5031 74.5275 46.4108 74.3654L46.4105 74.3651Z" fill="#90898C"/>
<path d="M78.1621 78.2724C79.5122 74.1786 80.7034 70.0377 81.901 65.8966L81.0387 66.3897C82.7974 67.0984 84.5838 67.7335 86.398 68.2949C88.1451 68.8712 89.941 69.2849 91.7631 69.5307L91.0872 68.6368C90.5211 71.4657 89.9853 74.3016 89.3374 77.1131C88.7264 79.7663 88.0884 82.4919 87.0298 85.007C86.2145 86.9467 85.0216 88.8166 83.1404 89.8465C82.0299 90.4394 80.7941 90.7546 79.5373 90.7655C78.2805 90.7764 77.0395 90.4827 75.919 89.9091C74.7942 89.2757 73.7625 88.4875 72.8536 87.5673C71.904 86.6683 71.0096 85.7135 70.1005 84.7746C69.4696 84.1226 68.4788 85.1218 69.1091 85.775C70.8162 87.5405 72.4976 89.4595 74.5899 90.7748C75.7817 91.516 77.1245 91.9761 78.5177 92.1205C79.911 92.265 81.3187 92.0901 82.6354 91.609C87.6958 89.7697 89.1347 83.8115 90.3002 79.1219C91.131 75.7784 91.764 72.3902 92.4402 69.0129C92.466 68.9082 92.4681 68.799 92.4464 68.6934C92.4247 68.5878 92.3798 68.4884 92.3149 68.4026C92.25 68.3168 92.1668 68.2468 92.0714 68.1977C91.9761 68.1486 91.871 68.1217 91.764 68.119C90.0293 67.8689 88.3208 67.4603 86.6597 66.8982C84.8876 66.3477 83.1385 65.7243 81.4123 65.0279C81.2331 64.9801 81.0424 65.005 80.8811 65.0972C80.7198 65.1894 80.6009 65.3416 80.5497 65.5211C79.3521 69.662 78.1597 73.8032 76.8108 77.897C76.5257 78.7614 77.8793 79.1328 78.1629 78.2724H78.1621Z" fill="#90898C"/>
<path d="M80.339 70.9052C79.0245 67.3684 78.1812 63.688 76.9702 60.1177C76.3567 58.3122 75.7433 56.1651 74.1881 54.9284C73.4579 54.3479 72.5471 54.1231 71.719 53.7285C70.8298 53.3051 69.9199 52.9273 69.0024 52.5671C66.9246 51.7512 64.7993 51.0321 62.8252 49.9742C62.029 49.5476 61.3197 50.7664 62.1178 51.1939C63.8768 52.0803 65.6896 52.854 67.5454 53.5105C68.4433 53.8535 69.3427 54.1969 70.2225 54.5856C70.6262 54.7642 71.0206 54.9643 71.426 55.1394C71.8384 55.3174 72.2684 55.4578 72.6747 55.6493C74.3447 56.4376 74.9301 58.5067 75.4898 60.1218C76.0713 61.799 76.5632 63.5056 77.0484 65.2122C77.6294 67.2569 78.2461 69.2875 78.986 71.2798C79.0397 71.4576 79.159 71.6079 79.3195 71.6996C79.4799 71.7914 79.6692 71.8176 79.8483 71.7729C80.0267 71.7219 80.1781 71.6022 80.2697 71.4397C80.3613 71.2772 80.3858 71.0849 80.3378 70.9043L80.339 70.9052Z" fill="#90898C"/>
<path d="M84.7092 61.5397C84.3979 60.18 84.2624 58.7855 84.3061 57.3908C84.3841 56.0597 84.8611 54.8604 85.3884 53.6522C85.8543 52.5894 86.3736 51.5528 86.9038 50.5212C87.1223 50.0957 87.8093 48.327 88.4458 49.2144C88.578 49.4601 88.6204 49.7446 88.5659 50.0186C88.5524 50.3717 88.5282 50.7248 88.4908 51.074C88.4015 51.8718 88.2324 52.6584 87.986 53.4218C87.7103 54.2895 89.0636 54.6612 89.3379 53.7973C89.5892 52.9936 89.7652 52.168 89.8637 51.3312C89.9513 50.6212 90.1146 49.7173 89.8964 49.0214C89.7909 48.6476 89.5811 48.3122 89.2919 48.0549C89.0027 47.7977 88.6463 47.6294 88.265 47.5702C87.5347 47.4837 86.945 47.8615 86.4972 48.4135C86.1055 48.9665 85.7721 49.5592 85.5026 50.1819C85.2002 50.7736 84.902 51.3677 84.6192 51.9691C83.9766 53.3371 83.2732 54.7677 83.0308 56.2721C82.7261 58.1624 82.9855 60.0549 83.3579 61.9157C83.4074 62.0963 83.526 62.2498 83.6877 62.3423C83.8495 62.4348 84.0411 62.4588 84.2204 62.409C84.3997 62.3592 84.552 62.2397 84.6438 62.0768C84.7357 61.9139 84.7595 61.7209 84.7101 61.5403L84.7092 61.5397Z" fill="#726A69"/>
<path d="M48.2254 38.3692C49.0684 38.8083 50.0075 39.0272 50.9563 39.0056C51.9388 39.0479 52.9075 38.7604 53.7103 38.1882C53.8407 38.0553 53.9139 37.8759 53.9139 37.6889C53.9139 37.5019 53.8407 37.3225 53.7103 37.1896C53.5764 37.061 53.3986 36.9893 53.2137 36.9893C53.0288 36.9893 52.8509 37.061 52.7171 37.1896C52.9292 37.0233 52.7624 37.1519 52.7081 37.1872C52.6537 37.2225 52.5965 37.2555 52.5389 37.2858C52.491 37.3111 52.2836 37.3941 52.4744 37.3229C52.3967 37.3523 52.3201 37.3817 52.2407 37.4085C52.0274 37.4764 51.809 37.5266 51.5875 37.5585C51.6901 37.5432 51.5627 37.5603 51.523 37.5644C51.459 37.5706 51.3947 37.5762 51.3305 37.5803C51.176 37.5903 51.0211 37.5942 50.8663 37.5933C50.7276 37.5933 50.5891 37.5877 50.4507 37.5783C50.3873 37.5738 50.3239 37.5688 50.2605 37.5624C50.255 37.5624 50.0268 37.53 50.1659 37.5521C49.9598 37.5203 49.756 37.4747 49.5559 37.4155C49.4706 37.3899 49.3871 37.3591 49.303 37.3299C49.123 37.2678 49.4035 37.3826 49.2411 37.3055C49.1365 37.2559 49.0332 37.2039 48.9311 37.1496C48.7697 37.059 48.5797 37.0348 48.401 37.0821C48.2222 37.1293 48.0685 37.2442 47.9719 37.4029C47.88 37.5651 47.855 37.7571 47.902 37.9377C47.949 38.1183 48.0643 38.2732 48.2234 38.3692H48.2254Z" fill="#726A69"/>
<path d="M50.6043 31.8846C50.7303 32.3428 50.8311 32.8076 50.9064 33.277L50.8815 33.0893C50.8905 33.1529 50.8922 33.2174 50.8865 33.2814L50.9116 33.0937C50.9074 33.1231 50.9004 33.1521 50.8906 33.1802L50.9613 33.0113C50.9532 33.0307 50.9434 33.0493 50.9321 33.0669L51.0416 32.9239C51.0282 32.9406 51.013 32.9557 50.9963 32.9689L51.1383 32.8586C51.1031 32.8806 51.0665 32.9002 51.0288 32.9174L51.1964 32.8462C51.1373 32.8717 51.0753 32.8898 51.0118 32.9004L51.1982 32.8753C51.1406 32.8821 51.0825 32.8821 51.025 32.8753L51.2113 32.9004C51.1459 32.8912 51.0819 32.8753 51.0165 32.8665C50.9261 32.8371 50.8296 32.8327 50.7369 32.8539C50.6442 32.8578 50.5542 32.8868 50.4764 32.9377C50.3159 33.0322 50.1992 33.1871 50.152 33.3683C50.1049 33.5494 50.1311 33.742 50.2249 33.9037C50.2694 33.9834 50.3294 34.0531 50.4014 34.1087C50.4734 34.1644 50.5559 34.2047 50.6438 34.2274C50.7919 34.2474 50.9359 34.2862 51.086 34.2921C51.3121 34.2933 51.5351 34.24 51.7365 34.1365C51.8638 34.0783 51.9765 33.9922 52.0665 33.8845C52.1565 33.7768 52.2214 33.6501 52.2565 33.5139C52.3025 33.2921 52.3003 33.0629 52.25 32.8421C52.1747 32.3937 52.0719 31.9491 51.9579 31.5092C51.9335 31.4197 51.8917 31.336 51.8352 31.2629C51.7786 31.1897 51.7082 31.1284 51.6281 31.0826C51.5481 31.0368 51.4598 31.0073 51.3684 30.9959C51.277 30.9844 51.1843 30.9912 51.0955 31.0159C51.0067 31.0405 50.9236 31.0826 50.851 31.1396C50.7783 31.1966 50.7175 31.2674 50.672 31.3481C50.6265 31.4288 50.5973 31.5177 50.5859 31.6097C50.5746 31.7018 50.5813 31.7952 50.6058 31.8846H50.6043Z" fill="#726A69"/>
<path d="M43.2887 27.942C43.0579 28.6976 43.2084 30.436 44.6294 30.584C46.508 30.5725 46.6079 28.4711 45.9755 27.483C45.457 26.6741 43.9348 26.3378 43.2887 27.942Z" fill="#726A69"/>
<path d="M58.3294 27.9421C58.5602 28.6977 58.4097 30.4358 56.9886 30.5838C55.1104 30.5723 55.0102 28.4708 55.6426 27.4827C56.1602 26.6742 57.6824 26.3378 58.3294 27.9421Z" fill="#726A69"/>
</g>
<mask id="path-51-inside-1_807_574502" fill="white">
<path fill-rule="evenodd" clip-rule="evenodd" d="M88.5 18C83.2533 18 79 22.2533 79 27.5C79 32.5767 82.9822 36.7234 87.9934 36.9867L89.5528 40.1056C89.737 40.4741 90.263 40.4741 90.4472 40.1056L92 37H106.5C111.747 37 116 32.7467 116 27.5C116 22.2533 111.747 18 106.5 18H88.5Z"/>
</mask>
<path fill-rule="evenodd" clip-rule="evenodd" d="M88.5 18C83.2533 18 79 22.2533 79 27.5C79 32.5767 82.9822 36.7234 87.9934 36.9867L89.5528 40.1056C89.737 40.4741 90.263 40.4741 90.4472 40.1056L92 37H106.5C111.747 37 116 32.7467 116 27.5C116 22.2533 111.747 18 106.5 18H88.5Z" fill="white"/>
<path d="M87.9934 36.9867L89.335 36.3159C89.0936 35.833 88.6112 35.5171 88.0721 35.4888L87.9934 36.9867ZM89.5528 40.1056L90.8944 39.4348L90.8944 39.4348L89.5528 40.1056ZM90.4472 40.1056L91.7889 40.7764L91.7889 40.7764L90.4472 40.1056ZM92 37V35.5C91.4318 35.5 90.9124 35.821 90.6584 36.3292L92 37ZM80.5 27.5C80.5 23.0817 84.0817 19.5 88.5 19.5V16.5C82.4249 16.5 77.5 21.4249 77.5 27.5H80.5ZM88.0721 35.4888C83.8534 35.2671 80.5 31.7747 80.5 27.5H77.5C77.5 33.3788 82.111 38.1797 87.9146 38.4847L88.0721 35.4888ZM90.8944 39.4348L89.335 36.3159L86.6517 37.6575L88.2111 40.7764L90.8944 39.4348ZM89.1056 39.4347C89.4741 38.6977 90.5259 38.6977 90.8944 39.4348L88.2111 40.7764C88.9482 42.2505 91.0518 42.2505 91.7889 40.7764L89.1056 39.4347ZM90.6584 36.3292L89.1056 39.4348L91.7889 40.7764L93.3416 37.6708L90.6584 36.3292ZM106.5 35.5H92V38.5H106.5V35.5ZM114.5 27.5C114.5 31.9183 110.918 35.5 106.5 35.5V38.5C112.575 38.5 117.5 33.5751 117.5 27.5H114.5ZM106.5 19.5C110.918 19.5 114.5 23.0817 114.5 27.5H117.5C117.5 21.4249 112.575 16.5 106.5 16.5V19.5ZM88.5 19.5H106.5V16.5H88.5V19.5Z" fill="#DAA1B8" mask="url(#path-51-inside-1_807_574502)"/>
<circle cx="90.5" cy="27.5" r="1.5" fill="#DAA1B8"/>
<circle cx="97.5" cy="27.5" r="1.5" fill="#DAA1B8"/>
<circle cx="104.5" cy="27.5" r="1.5" fill="#DAA1B8"/>
</svg>
