<svg width="126" height="106" viewBox="0 0 126 106" fill="none" xmlns="http://www.w3.org/2000/svg">
<circle opacity="0.6" cx="63" cy="53" r="43" fill="#F2D5E1"/>
<mask id="mask0_807_574504" style="mask-type:alpha" maskUnits="userSpaceOnUse" x="2" y="18" width="115" height="69">
<path fill-rule="evenodd" clip-rule="evenodd" d="M116.841 18H2.15859V80.4634L2.15857 80.4696C2.15857 83.0443 14.2644 85.1315 29.1976 85.1315C44.1157 89.3272 56.2367 85.5976 56.2367 80.4696C56.2367 83.0443 60.2024 85.1315 65.0943 85.1315C69.9862 85.1315 73.9519 83.0443 73.9519 80.4696C73.9519 83.0443 83.5531 85.1315 95.3967 85.1315C107.24 85.1315 116.841 83.0443 116.841 80.4696V18Z" fill="#D9D9D9"/>
</mask>
<g mask="url(#mask0_807_574504)">
<path d="M73.347 71.7359C73.4635 70.9885 73.5731 70.2732 73.6662 69.6349L70.8869 69.7914C69.9953 69.816 68.1685 68.9288 67.5829 68.4957C67.3107 68.3139 66.9955 68.2067 66.6689 68.1849C66.1461 68.1643 65.6294 68.3028 65.1868 68.5819C64.4959 68.959 64.0162 69.2289 63.5057 69.572L61.873 69.2871C61.7394 69.3097 61.6118 69.3595 61.4981 69.4334C60.9633 69.7313 59.1005 70.9971 59.0222 71.0495C58.9269 71.1018 58.8195 71.1284 58.7108 71.1265C58.3037 71.1542 57.8965 71.1782 57.489 71.1983L54.9839 71.3973C54.9888 71.4152 54.9937 71.4349 54.999 71.4546L56.3082 77.6158L56.7987 79.9232C57.1816 79.6225 57.4148 79.4395 57.4148 79.4395C57.4273 79.4297 57.4403 79.4201 57.4536 79.4109C57.8865 79.1175 58.376 78.9181 58.8907 78.8256C59.0428 78.8076 59.197 78.8217 59.3434 78.8668C59.4898 78.912 59.6251 78.9873 59.7407 79.0878C59.8562 79.1883 59.9495 79.3119 60.0145 79.4507C60.0795 79.5894 60.1147 79.7401 60.118 79.8933C60.1016 80.0811 60.0418 80.2626 59.9433 80.4234C59.8449 80.5842 59.7104 80.7199 59.5506 80.8199L59.5198 80.9407C59.5324 80.9305 59.5453 80.921 59.5583 80.9117C59.9913 80.6184 60.4809 80.419 60.9957 80.3264C61.1478 80.3084 61.3019 80.3224 61.4483 80.3676C61.5947 80.4127 61.73 80.4879 61.8455 80.5885C61.9611 80.689 62.0543 80.8126 62.1193 80.9513C62.1842 81.09 62.2194 81.2407 62.2227 81.3938C62.2105 81.5555 62.1651 81.7128 62.0891 81.856C62.0131 81.9991 61.9083 82.125 61.7812 82.2256L61.8974 82.1467C62.3302 81.8534 62.8198 81.654 63.3345 81.5614C63.4866 81.5434 63.6407 81.5575 63.7871 81.6026C63.9335 81.6477 64.0687 81.723 64.1843 81.8235C64.2998 81.924 64.3931 82.0476 64.4581 82.1863C64.523 82.325 64.5582 82.4757 64.5615 82.6289C64.5587 82.7346 64.5366 82.839 64.4965 82.9369C64.8246 83.119 65.1622 83.2856 65.5014 83.4489C65.9111 83.6348 66.3755 83.661 66.8035 83.5222C67.1873 83.4236 67.5183 83.1809 67.7277 82.8445C67.8119 82.6861 67.8573 82.5099 67.8602 82.3305C67.863 82.1511 67.8232 81.9735 67.744 81.8125C67.744 81.8125 67.732 81.7777 67.7105 81.7201C67.9504 81.8433 68.2089 81.9702 68.4908 82.1064C68.8155 82.2632 69.9722 82.3608 70.4128 81.5876C70.5343 81.3503 70.5824 81.0822 70.5511 80.8175L71.9192 80.6286C72.1059 80.609 72.2858 80.5478 72.4457 80.4495C72.6057 80.3512 72.7415 80.2183 72.8434 80.0606C73.1366 79.5504 72.8283 78.5911 72.3505 78.1977C72.4478 77.5406 72.5134 77.0952 72.5134 77.0952C72.7389 75.5589 73.0633 73.5537 73.347 71.7359Z" fill="white"/>
<path d="M40.3542 35.8609C40.2991 35.2645 40.2772 34.6755 40.2566 34.1404C40.3278 32.6916 40.1793 31.2405 39.816 29.8362H37.0798C36.2127 31.2242 35.1618 32.4884 33.9555 33.5945C31.8203 35.6086 30.2348 36.5654 28.9005 36.9909L26.2786 37.8257C25.9815 37.5307 25.6094 37.3225 25.2026 37.2235C24.9254 37.1438 24.6339 37.1267 24.3493 37.1733C24.0646 37.22 23.7939 37.3293 23.5566 37.4933C22.8891 37.9896 22.5899 39.0176 22.6395 39.8608C22.6717 41.1185 23.1822 42.3167 24.0671 43.2112C24.0384 43.2984 24.0209 43.3489 24.0209 43.3489C23.402 45.1357 21.0216 47.9523 19.006 49.1614L18.8184 49.2979C19.1464 49.7698 19.3564 50.3136 19.4308 50.8835C19.438 51.0866 19.4283 51.29 19.4018 51.4916C19.9027 51.1675 20.619 51.145 21.2363 51.1977C21.6523 51.2449 22.063 51.3303 22.4633 51.4527C24.8286 52.1246 26.8609 53.1129 28.9461 54.2253C29.7795 54.659 30.5562 55.1937 31.2587 55.8173C31.536 54.8275 31.7208 54.1757 31.7208 54.1757C31.9403 53.4548 32.2096 52.7501 32.527 52.0667C32.588 51.9129 32.7031 51.7867 32.8505 51.7116C32.998 51.6366 33.1677 51.6179 33.328 51.6591C34.7025 52.0187 36.8195 51.7987 38.3629 51.2192C39.3066 50.8535 40.0714 50.1356 40.4959 49.2169C40.7955 48.5866 41.0137 47.9207 41.1453 47.2354C41.3509 46.2634 41.4815 45.2771 41.5359 44.2851C41.6575 43.7905 41.8977 43.333 42.2358 42.9521C42.7746 42.3613 43.6477 41.8973 43.1908 40.8832C43.0028 40.5059 42.6949 40.2017 42.3153 40.0182C40.9275 39.2804 40.5095 37.5423 40.3542 35.8609Z" fill="white"/>
<path d="M87.0255 30.6789C86.171 30.036 85.3434 29.3592 84.5429 28.6484C84.208 30.1754 84.1291 31.7473 84.3093 33.3001C84.363 35.3454 84.4455 38.1823 82.6344 39.2987C82.2675 39.5062 81.9797 39.8296 81.8162 40.2182C81.4262 41.2598 82.3273 41.6661 82.9031 42.2206C83.265 42.5789 83.5342 43.0199 83.6874 43.5056C83.8058 44.492 83.9998 45.4679 84.2675 46.4247C84.443 47.1001 84.7037 47.7504 85.0435 48.36C85.5267 49.2488 86.336 49.9154 87.3009 50.2194C88.8785 50.6981 91.005 50.781 92.3531 50.3337C92.5101 50.2822 92.6805 50.2899 92.8323 50.3553C92.984 50.4206 93.1067 50.5392 93.1772 50.6886C93.538 51.3502 93.8523 52.0361 94.1177 52.7415L94.1771 52.8891C96.0036 51.9791 98.619 50.8682 100.813 49.9933C101.242 49.1049 101.266 48.0051 101.247 47.071C101.214 45.4017 100.626 43.7748 100.063 42.1775C100.769 41.7091 101.341 41.0665 101.726 40.3119C102.11 39.5573 102.293 38.7163 102.258 37.8702C102.253 37.0258 101.888 36.0194 101.19 35.5672C100.942 35.4188 100.665 35.3271 100.378 35.2989C100.091 35.2707 99.8012 35.3065 99.5297 35.4039C99.1038 35.5379 98.726 35.7924 98.4419 36.1368C97.3477 36.2908 96.3163 35.9026 95.3305 35.4818C92.3793 34.2203 89.5908 32.6077 87.0255 30.6789Z" fill="white"/>
<path d="M103.91 48.8219C101.67 49.6072 96.3059 51.7596 93.5682 53.2047C93.2476 53.3751 92.9836 53.6349 92.808 53.9526C92.6325 54.2703 92.5532 54.6322 92.5796 54.9942C92.6042 55.3451 92.6295 55.7376 92.6859 56.3312L90.8927 57.2757C90.7942 57.9098 90.7513 58.5513 90.7645 59.1928C90.7513 61.4509 90.7315 63.7148 90.7143 65.9596C91.3661 64.1992 92.1526 62.4917 93.0669 60.8523C93.5867 59.9102 94.1802 59.0107 94.842 58.1623C97.5338 55.1458 101.121 53.0766 104.344 51.0643L104.021 48.7847L103.91 48.8219Z" fill="#64C7FF"/>
<path d="M106.229 52.0512C108.83 54.0683 109.67 54.7861 111.436 58.1224C112.694 60.5009 113.656 63.9706 114.567 67.9853C115.621 74.2457 115.874 77.6833 116.276 82.8337H84.7059C81.9025 82.2792 77.6482 81.4706 74.832 80.6773L72.109 79.8228L72.512 77.0952C72.8647 74.709 73.4522 71.1931 73.7562 69C73.7728 68.8844 73.8134 68.7735 73.8753 68.6744C73.9373 68.5754 74.0193 68.4903 74.116 68.4248C74.2127 68.3593 74.3221 68.3147 74.437 68.2939C74.552 68.2731 74.67 68.2766 74.7836 68.3041C76.9828 68.8041 86.72 70.7877 88.6281 71.015L89.3675 71.1025C89.7941 67.6214 91.6382 63.3779 93.0666 60.8527C93.5864 59.9106 94.1799 59.0112 94.8417 58.1628C97.629 55.0387 101.376 52.9313 104.686 50.8503C105.264 51.3038 105.774 51.6975 106.229 52.0512Z" fill="white"/>
<path d="M106.246 52.9945C107.565 54.0292 108.763 55.1038 109.658 56.5048C110.75 58.2306 111.614 60.0897 112.231 62.0363C113.022 64.4278 113.629 66.8759 114.049 69.3595C114.401 71.544 114.705 73.7358 114.939 75.9363C115.183 78.2317 115.358 80.5335 115.537 82.8344C115.542 83.029 115.621 83.2143 115.759 83.352C115.896 83.4896 116.082 83.569 116.276 83.5737C116.472 83.5722 116.659 83.4938 116.798 83.3555C116.936 83.2172 117.014 83.03 117.016 82.8344C116.677 78.4975 116.287 74.1779 115.619 69.8762C115.214 67.314 114.627 64.7838 113.863 62.305C113.249 60.2283 112.389 58.2323 111.302 56.3594C110.797 55.4796 110.199 54.6568 109.518 53.9051C108.827 53.1959 108.083 52.5419 107.29 51.9489C107.149 51.8158 106.962 51.7417 106.767 51.7417C106.573 51.7417 106.386 51.8158 106.244 51.9489C106.107 52.0882 106.03 52.276 106.03 52.4717C106.03 52.6674 106.107 52.8552 106.244 52.9945H106.246Z" fill="#726A69"/>
<path d="M38.7985 27.1124C38.4436 26.3881 36.3596 23.1298 31.7862 21.5023C31.7052 21.4738 31.6238 21.4454 31.5419 21.4173C29.3408 20.6353 26.9923 20.3569 24.6694 20.6025C22.2467 20.831 19.9381 21.74 18.01 23.2247L17.1866 22.3313C14.0964 18.6407 9.352 20.5384 8.69768 23.5916C8.26454 25.6155 8.11945 26.8684 7.14998 28.685C6.22888 30.4102 5.47106 30.7312 4.03611 31.3575C3.98962 31.3779 3.94833 31.4085 3.91527 31.4471C3.88222 31.4857 3.85825 31.5311 3.84515 31.5802C3.83205 31.6293 3.83014 31.6807 3.83957 31.7306C3.84901 31.7805 3.86954 31.8276 3.89964 31.8685C4.45129 32.6851 5.17884 33.3677 6.02884 33.8662C6.87885 34.3648 7.82973 34.6666 8.81166 34.7495C9.74348 34.816 10.68 34.7648 11.599 34.597L11.8285 34.5446C11.8174 34.7014 11.8079 34.8579 11.8023 35.0147C11.6209 40.3263 14.212 44.1623 15.995 46.132C16.7978 47.0183 18.0652 48.123 18.8184 49.2973L19.006 49.1609C21.0216 47.9517 23.402 45.1364 24.0209 43.3484C24.0209 43.3484 24.0385 43.2979 24.0671 43.2107C23.1822 42.3162 22.6717 41.118 22.6395 39.8602C22.59 39.0171 22.8891 37.9891 23.5566 37.4928C23.7939 37.3288 24.0646 37.2195 24.3493 37.1728C24.6339 37.1261 24.9254 37.1432 25.2026 37.2229C25.6094 37.3219 25.9815 37.5302 26.2787 37.8252L28.9006 36.9903C30.2348 36.5649 31.8204 35.6081 33.9555 33.594C35.1618 32.4879 36.2128 31.2236 37.0799 29.8356H39.8216C39.5926 28.8897 39.249 27.9752 38.7985 27.1124Z" fill="#D0903A"/>
<path d="M100.243 66.6569C101.061 70.8413 101.862 75.0284 102.613 79.2257C102.856 80.5855 103.097 81.9457 103.336 83.3063C103.389 83.4945 103.515 83.6541 103.685 83.7507C103.855 83.8472 104.056 83.8731 104.245 83.8226C104.432 83.7668 104.59 83.641 104.686 83.4716C104.782 83.3021 104.81 83.1021 104.762 82.9132C104.022 78.7143 103.266 74.5189 102.46 70.3323C102.198 68.9769 101.935 67.6214 101.669 66.266C101.615 66.0779 101.49 65.9185 101.32 65.8219C101.15 65.7254 100.949 65.6994 100.76 65.7496C100.573 65.8051 100.415 65.9308 100.318 66.1003C100.222 66.2699 100.195 66.4701 100.243 66.659V66.6569Z" fill="#726A69"/>
<path d="M73.225 77.2921C73.5362 75.1902 73.884 73.0939 74.2047 70.9938C74.279 70.5081 74.3509 70.0221 74.4203 69.5358C74.4536 69.302 74.3954 69.0192 74.6563 69.0333C75.1089 69.097 75.5562 69.194 75.9945 69.3235C78.9724 69.9555 81.9573 70.5557 84.9492 71.1241C86.1694 71.3555 87.393 71.6044 88.6268 71.7532C88.8226 71.7521 89.01 71.6739 89.1484 71.5355C89.2869 71.3971 89.3651 71.2096 89.3661 71.0139C89.3615 70.8192 89.2822 70.6338 89.1445 70.4962C89.0068 70.3585 88.8214 70.2791 88.6268 70.2745C88.4213 70.2499 88.7759 70.2979 88.5677 70.2671C88.4608 70.2511 88.3542 70.2363 88.2476 70.2184C88.0061 70.1806 87.7648 70.1396 87.5243 70.098C86.8773 69.9856 86.2304 69.8657 85.5835 69.744C83.9508 69.436 82.3204 69.1163 80.6924 68.785C79.2353 68.4912 77.7794 68.1909 76.3247 67.8843C75.8762 67.7891 75.4292 67.6788 74.9788 67.5913C74.691 67.5236 74.3901 67.5356 74.1086 67.6262C73.8271 67.7167 73.5756 67.8823 73.3812 68.1052C73.0303 68.5217 73.0116 69.037 72.9352 69.5515C72.5756 72.0037 72.161 74.4472 71.7978 76.899C71.752 77.0879 71.78 77.287 71.8759 77.456C71.9718 77.6249 72.1285 77.751 72.3141 77.8084C72.5032 77.8592 72.7046 77.8334 72.8748 77.7368C73.0451 77.6402 73.1704 77.4804 73.2238 77.2921H73.225Z" fill="#726A69"/>
<path d="M74.6354 81.3905C78.2575 82.4055 81.9804 83.0275 85.6639 83.7782C85.8528 83.8256 86.0527 83.7983 86.222 83.7022C86.3913 83.606 86.5171 83.4484 86.5733 83.2619C86.6235 83.0729 86.5976 82.8718 86.501 82.7017C86.4045 82.5316 86.245 82.4063 86.057 82.3525C82.3748 81.6015 78.6519 80.9795 75.0284 79.9645C74.1104 79.7072 73.7189 81.1351 74.6354 81.3905Z" fill="#726A69"/>
<path d="M86.5998 36.0925C86.4011 36.6935 86.4674 38.0933 87.5548 38.247C88.9978 38.284 89.1339 36.5989 88.6765 35.7896C88.3003 35.1273 87.142 34.8196 86.5998 36.0925Z" fill="#726A69"/>
<path d="M83.9367 45.4984C84.883 45.4994 85.814 45.2592 86.6417 44.8004C86.8111 44.7014 86.9341 44.5392 86.9839 44.3495C87.0336 44.1597 87.006 43.958 86.907 43.7887C86.808 43.6194 86.6458 43.4963 86.4561 43.4465C86.2664 43.3968 86.0646 43.4245 85.8953 43.5234C85.7531 43.6103 85.6049 43.6868 85.4517 43.7523L85.6285 43.6778C85.2475 43.8324 84.848 43.9367 84.44 43.988L84.6366 43.9615C84.404 43.9923 84.1708 44.0105 83.9367 44.0197C83.7406 44.0197 83.5525 44.0976 83.4139 44.2363C83.2752 44.3749 83.1973 44.563 83.1973 44.7591C83.1973 44.9552 83.2752 45.1432 83.4139 45.2819C83.5525 45.4205 83.7406 45.4984 83.9367 45.4984Z" fill="#726A69"/>
<path d="M94.8311 52.5476C94.6186 51.9679 94.3723 51.4013 94.0933 50.8505C93.9617 50.53 93.7797 50.2325 93.5542 49.9694C93.0813 49.5033 92.5047 49.5357 91.9138 49.6959C91.4422 49.8164 90.9579 49.8807 90.4712 49.8872C89.386 49.9457 88.2999 49.7916 87.2738 49.4337C86.3764 49.0838 85.7489 48.2631 85.3777 47.4005C84.9252 46.257 84.6202 45.0605 84.4698 43.84C84.4099 43.3087 84.2319 42.7976 83.9489 42.344C83.6455 41.9212 83.2823 41.5446 82.8707 41.2261C82.7481 41.1262 82.6357 41.0146 82.5349 40.8927C82.4974 40.852 82.4721 40.8014 82.4619 40.747C82.4518 40.6925 82.4571 40.6363 82.4773 40.5847C82.5697 40.1174 83.098 39.9042 83.4295 39.6319C84.1315 39.0035 84.6125 38.1658 84.8013 37.2429C85.3811 34.8495 84.781 32.3992 85.0518 29.9837C85.0505 29.788 84.9723 29.6007 84.8339 29.4623C84.6955 29.3239 84.5081 29.2456 84.3124 29.2444C84.1177 29.2488 83.9322 29.3281 83.7945 29.4658C83.6568 29.6035 83.5775 29.789 83.5731 29.9837C83.3337 32.118 83.8374 34.2802 83.4671 36.4034C83.3294 37.1942 83.0774 38.0506 82.4197 38.557C81.9884 38.8904 81.5507 39.1457 81.2734 39.6417C81.1278 39.8852 81.0355 40.1568 81.0027 40.4386C80.9699 40.7203 80.9973 41.0059 81.083 41.2763C81.4271 42.2171 82.4674 42.576 82.8836 43.4743C83.0765 43.8902 83.0743 44.4687 83.1609 44.9391C83.2734 45.5531 83.4174 46.1608 83.5922 46.7601C83.9406 47.9393 84.4547 49.1186 85.3835 49.9586C86.1875 50.6362 87.1711 51.0653 88.2146 51.1937C89.4992 51.4387 90.8192 51.4317 92.1011 51.173C92.18 51.1552 92.525 51.0316 92.5429 51.0418C92.5856 51.12 92.6229 51.2011 92.6544 51.2845C92.9415 51.8193 93.192 52.3729 93.4042 52.9416C93.4606 53.1279 93.5864 53.2854 93.7557 53.3815C93.925 53.4776 94.1247 53.505 94.3136 53.4579C94.5017 53.4044 94.6613 53.279 94.7579 53.1089C94.8545 52.9388 94.8804 52.7375 94.8299 52.5485L94.8311 52.5476Z" fill="#726A69"/>
<path d="M84.4061 31.8474C84.4494 29.7331 84.9875 27.6585 85.9772 25.7897C86.9227 24.0915 88.2556 22.6404 89.8676 21.5545C93.2341 19.3109 97.7007 19.0367 101.543 20.0086C103.451 20.4963 105.238 21.3684 106.797 22.5714C106.967 22.6692 107.168 22.6963 107.357 22.6467C107.546 22.5971 107.708 22.4748 107.808 22.3064C107.902 22.1361 107.927 21.936 107.878 21.7477C107.829 21.5593 107.709 21.3973 107.543 21.2951C106.045 20.1486 104.35 19.2857 102.541 18.749C100.308 18.0782 97.9636 17.8548 95.6435 18.0916C93.5647 18.3285 91.4957 18.8543 89.6819 19.9251C87.8056 21.0471 86.2206 22.596 85.0557 24.4459C83.6695 26.6374 83.0226 29.2717 82.9274 31.8474C82.8926 32.799 84.3712 32.7977 84.4061 31.8474Z" fill="#726A69"/>
<path d="M93.4246 56.3305C93.3451 55.4781 93.0361 54.3472 93.9409 53.8423C94.7005 53.4184 95.5064 53.0629 96.2981 52.7025C98.1197 51.8759 99.9699 51.111 101.833 50.3843C102.623 50.0762 103.416 49.7737 104.217 49.4952C104.403 49.4391 104.561 49.3133 104.657 49.1439C104.753 48.9746 104.78 48.7747 104.733 48.5858C104.679 48.3978 104.554 48.2383 104.384 48.1417C104.214 48.0452 104.012 48.0192 103.823 48.0695C102.084 48.674 100.373 49.3671 98.6727 50.075C97.6253 50.5109 96.584 50.9573 95.5517 51.4255C94.67 51.7722 93.8185 52.1913 93.0059 52.6784C92.7172 52.8703 92.4695 53.1177 92.2772 53.4062C92.0849 53.6947 91.9519 54.0185 91.8858 54.3589C91.8195 55.0159 91.8402 55.6789 91.9474 56.3305C91.9525 56.5249 92.0321 56.71 92.1696 56.8476C92.3072 56.9851 92.4923 57.0647 92.6868 57.0698C92.8824 57.0684 93.0697 56.9901 93.208 56.8518C93.3464 56.7134 93.4247 56.5261 93.4261 56.3305H93.4246Z" fill="#119EED"/>
<path d="M107.17 21.9329C104.691 20.0266 101.639 18.8067 97.2698 18.7429C95.6237 18.7615 93.989 19.0191 92.4169 19.5078C89.2251 20.5029 86.5638 23.0031 85.1215 25.8231C84.7235 26.6252 84.4112 27.467 84.1899 28.3347C87.48 31.3219 91.2454 33.7392 95.3312 35.4869C96.317 35.9077 97.3487 36.2956 98.4426 36.1418C98.7267 35.7975 99.1045 35.5429 99.5303 35.409C99.8019 35.3116 100.092 35.2758 100.379 35.304C100.666 35.3322 100.943 35.4238 101.19 35.5722C101.889 36.0245 102.254 37.0309 102.258 37.8753C102.294 38.7214 102.111 39.5624 101.727 40.317C101.342 41.0716 100.769 41.7142 100.064 42.1826C100.626 43.7793 101.215 45.4067 101.248 47.0761C101.273 48.3524 101.219 49.9374 100.163 50.8745L99.6563 51.324L99.7155 51.3705C100.371 51.8877 102.303 52.4016 103.188 52.5802C107.126 53.3747 110.204 52.0873 112.149 49.7569C113.442 48.2368 114.094 46.2743 113.969 44.2829C113.763 41.6644 113.102 39.6383 112.757 36.5174C112.468 33.8881 112.498 30.3528 111.72 27.9514C111.158 26.2168 109.996 23.9944 107.17 21.9344" fill="#726A69"/>
<path d="M91.4672 64.1488C91.4672 63.0324 91.485 61.9157 91.4927 60.7993C91.5004 59.7038 91.4151 58.5541 91.6049 57.4722C91.6514 57.2834 91.6238 57.0839 91.5278 56.9147C91.4317 56.7456 91.2746 56.6197 91.0886 56.5628C90.8995 56.5124 90.6983 56.5382 90.5281 56.6348C90.358 56.7314 90.2327 56.891 90.1792 57.0791C89.9718 58.2606 90.0233 59.4715 90.015 60.6662C90.0069 61.8273 89.9885 62.9887 89.9885 64.1497C89.9885 65.101 91.4672 65.1026 91.4672 64.1497V64.1488Z" fill="#119EED"/>
<path d="M103.97 50.4251C101.076 52.2303 98.1077 53.9798 95.605 56.3241C95.0088 56.8626 94.46 57.4513 93.9646 58.0837C93.4804 58.7398 93.0343 59.4232 92.6285 60.1305C91.8978 61.3901 91.2495 62.6957 90.6877 64.0391C89.5612 66.6943 88.6321 69.4995 88.5313 72.4042C88.4602 74.4574 88.4882 76.5156 88.5045 78.5694C88.5172 80.159 88.5366 81.7487 88.5624 83.3385C88.5784 84.2888 90.0571 84.2919 90.0411 83.3385C89.9838 79.9548 89.9265 76.5661 89.99 73.1824C89.9899 72.2843 90.0596 71.3876 90.1985 70.5004C90.4914 68.9398 90.93 67.4102 91.5087 65.9316C92.0296 64.5551 92.6367 63.2128 93.3263 61.9126C94.004 60.6332 94.7584 59.3147 95.7184 58.296C98.2913 55.5656 101.559 53.6695 104.714 51.7035C105.52 51.2007 104.778 49.9211 103.967 50.4266L103.97 50.4251Z" fill="#726A69"/>
<path d="M106.797 22.5715C108.864 24.0927 110.489 26.1675 111.145 28.6166C111.925 31.52 111.746 34.6123 112.151 37.5759C112.354 39.0589 112.668 40.5209 112.927 41.9944C113.154 43.2882 113.395 44.6542 113.149 45.9606C112.894 47.2439 112.31 48.4389 111.455 49.429C110.6 50.419 109.502 51.17 108.269 51.6086C106.823 52.0944 105.278 52.2078 103.776 51.9385C103.116 51.8226 102.464 51.6657 101.823 51.4688C101.207 51.3252 100.62 51.0755 100.089 50.731C99.9193 50.6332 99.718 50.6062 99.5287 50.6558C99.3394 50.7055 99.1773 50.8278 99.0775 50.9962C98.983 51.1666 98.9579 51.3668 99.0073 51.5552C99.0567 51.7436 99.1768 51.9058 99.3427 52.0079C99.872 52.356 100.454 52.6169 101.066 52.7805C101.675 52.9802 102.294 53.146 102.922 53.2774C104.452 53.6154 106.035 53.6351 107.573 53.3353C109.012 53.0294 110.355 52.381 111.489 51.4451C112.623 50.5091 113.515 49.3134 114.088 47.9593C114.66 46.522 114.845 44.9597 114.625 43.4284C114.444 41.9023 114.118 40.4023 113.849 38.8907C113.575 37.2712 113.39 35.6378 113.296 33.9981C113.223 32.3813 113.053 30.7705 112.787 29.1741C112.166 25.897 110.201 23.2495 107.544 21.2949C107.374 21.1972 107.173 21.1702 106.984 21.2199C106.794 21.2695 106.632 21.3918 106.533 21.5601C106.438 21.7304 106.413 21.9306 106.462 22.1191C106.512 22.3075 106.632 22.4696 106.798 22.5715H106.797Z" fill="#726A69"/>
<path d="M98.844 36.803C99.3369 36.2072 100.315 35.6484 100.977 36.3502C101.545 36.9515 101.581 37.88 101.476 38.6529C101.247 40.3402 100.073 41.464 98.5785 42.1833C98.4105 42.2835 98.2886 42.4457 98.239 42.6349C98.1894 42.8241 98.2161 43.0252 98.3132 43.195C98.415 43.3612 98.5772 43.4815 98.7657 43.531C98.9543 43.5804 99.1546 43.555 99.3249 43.4602C100.905 42.6993 102.225 41.4652 102.744 39.7521C103.272 38.0085 103.064 35.4158 101.071 34.698C99.8803 34.2689 98.5714 34.8265 97.8 35.7575C97.6663 35.8987 97.5917 36.0858 97.5917 36.2802C97.5917 36.4747 97.6663 36.6618 97.8 36.803C97.9394 36.9402 98.1272 37.0172 98.3228 37.0172C98.5184 37.0172 98.7061 36.9402 98.8455 36.803H98.844Z" fill="#726A69"/>
<path d="M84.229 29.3572C86.191 31.0724 88.3111 32.5979 90.5608 33.9134C91.6684 34.5587 92.8052 35.1496 93.9714 35.6863C95.1937 36.2485 96.4414 36.8381 97.8049 36.9117C98.7558 36.9632 98.7531 35.4845 97.8049 35.433C96.6392 35.3714 95.5129 34.7827 94.4729 34.296C93.3528 33.7715 92.2587 33.1956 91.1908 32.5684C89.0913 31.3361 87.1112 29.9109 85.2761 28.3113C84.5617 27.6887 83.5115 28.7303 84.2305 29.3587L84.229 29.3572Z" fill="#726A69"/>
<path d="M99.4083 42.5407C99.9373 44.0406 100.484 45.5686 100.511 47.1761C100.529 48.2774 100.506 49.5481 99.6403 50.3491C98.9404 50.996 99.9881 52.041 100.686 51.3946C101.795 50.3688 101.999 48.8156 101.992 47.3809C101.983 45.5563 101.435 43.8499 100.834 42.1464C100.778 41.96 100.652 41.8024 100.483 41.7062C100.314 41.6101 100.114 41.5828 99.9249 41.6301C99.7368 41.6836 99.5772 41.8089 99.4805 41.979C99.3839 42.1491 99.358 42.3504 99.4083 42.5395V42.5407Z" fill="#726A69"/>
<path d="M99.3843 43.1506C99.2091 43.1355 99.0326 43.1557 98.8653 43.2101C98.698 43.2644 98.5434 43.3518 98.4105 43.467C98.2777 43.5823 98.1693 43.723 98.0918 43.8809C98.0143 44.0388 97.9693 44.2106 97.9595 44.3862C97.9444 45.1484 98.5183 45.685 99.3335 45.701C100.18 45.718 100.744 45.1992 100.759 44.442C100.756 44.2661 100.718 44.0925 100.647 43.9316C100.576 43.7707 100.473 43.6257 100.345 43.5052C100.217 43.3848 100.066 43.2913 99.9007 43.2304C99.7356 43.1695 99.56 43.1423 99.3843 43.1506Z" fill="white"/>
<path d="M99.3844 42.4114C98.9409 42.3978 98.5042 42.5228 98.1351 42.7691C97.766 43.0154 97.4829 43.3706 97.3253 43.7854C97.191 44.1758 97.1823 44.5985 97.3003 44.9942C97.4313 45.4209 97.7003 45.7922 98.0649 46.0496C98.4157 46.2814 98.8216 46.4162 99.2413 46.4402C99.6611 46.4643 100.08 46.3767 100.455 46.1864C100.827 45.9836 101.125 45.6676 101.306 45.2841C101.487 44.9007 101.541 44.4696 101.46 44.0534C101.303 43.0543 100.338 42.4419 99.3844 42.4114C99.1888 42.413 99.0017 42.4914 98.8634 42.6297C98.7251 42.768 98.6466 42.9552 98.645 43.1508C98.6488 43.3457 98.7279 43.5315 98.8658 43.6694C99.0036 43.8072 99.1895 43.8863 99.3844 43.8901C99.4266 43.8901 99.4682 43.895 99.5104 43.8972C99.6364 43.904 99.4383 43.8864 99.4352 43.8867C99.5013 43.89 99.5662 43.9053 99.6268 43.9317C99.6622 43.9425 99.6989 43.9625 99.7349 43.969C99.5741 43.9338 99.6056 43.9095 99.6613 43.9382C99.726 43.973 99.7873 44.0087 99.8495 44.0481C99.9614 44.119 99.7362 43.9422 99.7984 44.0081C99.8181 44.0293 99.8425 44.0469 99.8634 44.0669C99.8844 44.087 99.9028 44.1094 99.9235 44.1285C99.97 44.1744 99.9851 44.2431 99.8844 44.0722C99.913 44.1215 99.9487 44.1646 99.9768 44.2163C99.99 44.2413 100.038 44.3485 99.9839 44.2203C99.9278 44.0845 99.9857 44.2311 99.9943 44.2598C100.003 44.2884 100.048 44.4021 100.033 44.427C100.027 44.4357 100.017 44.2133 100.018 44.3346C100.018 44.3697 100.021 44.4049 100.02 44.4403C100.02 44.4649 100.02 44.4896 100.017 44.5139C100.012 44.5943 99.9663 44.6529 100.027 44.46C100.008 44.5216 100.001 44.5832 99.9814 44.6448C99.9728 44.6713 99.9607 44.6975 99.953 44.724C100.013 44.5229 100.012 44.598 99.9789 44.6532C99.9515 44.7 99.9207 44.7456 99.8939 44.793C99.8502 44.87 100.026 44.6421 99.9392 44.733C99.9241 44.7487 99.9102 44.7656 99.8951 44.781C99.8723 44.8047 99.8474 44.8257 99.8237 44.8485C99.7331 44.9369 99.9777 44.7468 99.869 44.814C99.8209 44.8448 99.7747 44.8756 99.7242 44.9005C99.6558 44.9353 99.5849 44.9276 99.7741 44.8827C99.7519 44.8879 99.7282 44.8996 99.7072 44.9064C99.6492 44.9257 99.5901 44.9413 99.5301 44.9532C99.4531 44.9689 99.3788 44.9424 99.5757 44.9501C99.5372 44.9501 99.4959 44.9572 99.4571 44.9591C99.3892 44.962 99.3212 44.9613 99.2534 44.9569C99.2273 44.9533 99.201 44.9512 99.1746 44.9504C99.3683 44.9412 99.2978 44.9692 99.2183 44.9532C99.1575 44.9411 99.0974 44.9253 99.0384 44.9061C99.0161 44.8967 98.9933 44.8886 98.97 44.8817C99.0908 44.9343 99.1169 44.9446 99.0483 44.9126C99.0277 44.9027 99.0072 44.8924 98.9867 44.8817C98.9559 44.8648 98.8514 44.8232 98.8403 44.7893C98.8385 44.7835 98.9944 44.9203 98.91 44.842C98.8853 44.8189 98.8597 44.7976 98.8357 44.7736C98.82 44.7579 98.8049 44.7407 98.7898 44.7249C98.7002 44.6344 98.8785 44.8599 98.8323 44.7835C98.8015 44.7308 98.7639 44.6818 98.7359 44.6267C98.6983 44.553 98.7177 44.4988 98.7556 44.679C98.751 44.6581 98.7396 44.635 98.7331 44.614C98.7156 44.558 98.7097 44.4988 98.6925 44.4431C98.7519 44.6362 98.7076 44.5755 98.7029 44.4951C98.7029 44.4705 98.7005 44.4455 98.7005 44.4206C98.7005 44.3845 98.7033 44.3488 98.7042 44.3124C98.7073 44.1794 98.6638 44.4997 98.6965 44.3719C98.7134 44.306 98.7374 44.2404 98.7532 44.1747C98.711 44.3497 98.6897 44.3121 98.719 44.2576C98.7405 44.2176 98.7609 44.1772 98.7852 44.1387C98.7969 44.1202 98.8138 44.1011 98.8234 44.082C98.7412 44.1847 98.7237 44.2075 98.7707 44.1504C98.7818 44.1371 98.7932 44.1241 98.8049 44.1116C98.8487 44.0642 98.9001 44.026 98.9448 43.9807C98.8037 44.1239 98.8502 44.0518 98.9103 44.0133C98.9411 43.9939 98.9719 43.9754 99.0027 43.9585C99.0261 43.9459 99.1398 43.8969 99.0138 43.948C98.8804 44.0032 99.039 43.9406 99.0658 43.9323C99.1384 43.9026 99.2153 43.8846 99.2935 43.879C99.2886 43.879 99.0936 43.8944 99.2177 43.8913C99.2738 43.8913 99.3292 43.8861 99.3853 43.8864C99.5814 43.8864 99.7694 43.8085 99.9081 43.6699C100.047 43.5312 100.125 43.3431 100.125 43.1471C100.125 42.951 100.047 42.7629 99.9081 42.6243C99.7694 42.4856 99.5814 42.4077 99.3853 42.4077L99.3844 42.4114Z" fill="#726A69"/>
<path d="M26.9887 37.4937C26.6302 37.0874 26.1732 36.7803 25.6616 36.6019C25.1499 36.4235 24.601 36.3799 24.0676 36.4753C23.0045 36.686 22.3021 37.6065 22.0344 38.6095C21.5708 40.3541 22.2411 42.3891 23.4743 43.6642C24.2127 44.3841 25.0944 44.9404 26.062 45.2969C26.251 45.3477 26.4525 45.322 26.6227 45.2254C26.7929 45.1287 26.9182 44.9689 26.9714 44.7806C27.0189 44.5916 26.9917 44.3916 26.8956 44.2221C26.7994 44.0527 26.6417 43.9268 26.4551 43.8706C24.9456 43.2606 23.8058 42.1704 23.4712 40.5703C23.3172 39.8292 23.2929 38.9213 23.7873 38.2907C24.3818 37.5323 25.404 37.966 25.9437 38.5371C26.598 39.2306 27.6424 38.1835 26.9893 37.4913L26.9887 37.4937Z" fill="#726A69"/>
<path d="M38.1508 37.0722C38.3877 37.6593 38.4117 39.0604 37.3369 39.2841C35.8995 39.4141 35.6546 37.741 36.0591 36.9043C36.3902 36.2189 37.5276 35.8372 38.1508 37.0722Z" fill="#726A69"/>
<path d="M41.3886 44.7641C41.0349 44.7758 40.6808 44.7604 40.3295 44.7182L40.526 44.7444C40.1632 44.6994 39.8079 44.6071 39.4691 44.4699L39.6456 44.5444C39.5606 44.5079 39.477 44.4682 39.3948 44.4255C39.2256 44.3283 39.0248 44.3018 38.8362 44.352C38.6476 44.4022 38.4865 44.5249 38.388 44.6934C38.2895 44.8619 38.2617 45.0625 38.3105 45.2515C38.3593 45.4405 38.4809 45.6024 38.6487 45.7021C39.5009 46.1133 40.4441 46.2994 41.3886 46.2428C41.5847 46.2428 41.7727 46.1649 41.9114 46.0262C42.05 45.8876 42.1279 45.6995 42.1279 45.5034C42.1279 45.3073 42.05 45.1193 41.9114 44.9806C41.7727 44.842 41.5847 44.7641 41.3886 44.7641Z" fill="#726A69"/>
<path d="M32.4345 54.3706C32.5898 53.8394 32.7785 53.3187 32.9995 52.8115C33.0501 52.6947 33.1089 52.5804 33.1554 52.4618C33.1711 52.4221 33.2044 52.3808 33.217 52.3435C33.1939 52.4128 33.0534 52.3327 33.2281 52.3944C33.7596 52.5394 34.3107 52.5991 34.8608 52.5712C35.4656 52.5678 36.0692 52.5163 36.6658 52.4171C37.6845 52.257 38.7871 51.9859 39.6327 51.3697C40.5869 50.629 41.2764 49.5998 41.5984 48.4355C41.9537 47.2216 42.172 45.9719 42.2493 44.7095C42.2761 44.2369 42.4674 43.7885 42.79 43.4421C43.1259 43.1347 43.4385 42.8027 43.7253 42.4489C44.4206 41.4407 43.9033 40.2134 42.9825 39.5609C42.6142 39.3592 42.2795 39.1016 41.9903 38.7972C41.7658 38.4948 41.5924 38.1578 41.4767 37.7994C41.1837 36.8107 41.0308 35.7857 41.0223 34.7545C40.9586 33.3655 40.9995 32.0097 40.754 30.6311C40.7005 30.443 40.5752 30.2834 40.405 30.1868C40.2349 30.0902 40.0336 30.0644 39.8446 30.1148C39.6579 30.1706 39.4999 30.2963 39.4037 30.4658C39.3074 30.6352 39.2803 30.8353 39.328 31.0242C39.7051 33.1418 39.3875 35.3063 39.8419 37.422C40.0115 38.3532 40.4227 39.2236 41.0344 39.946C41.3678 40.2663 41.7397 40.5441 42.1415 40.7728C42.3043 40.8746 42.4361 41.0191 42.5226 41.1905C42.5497 41.256 42.5684 41.3246 42.5783 41.3948C42.5806 41.4378 42.5744 41.481 42.5602 41.5217C42.4138 41.8344 42.0365 42.0901 41.7734 42.3648C41.3606 42.804 41.0537 43.3317 40.876 43.9076C40.7675 44.42 40.7068 44.9413 40.6949 45.4649C40.6223 46.0868 40.5136 46.7039 40.3693 47.3132C40.1228 48.3501 39.7356 49.4484 38.8517 50.1166C38.0952 50.6899 37.0191 50.8959 36.0937 51.0155C35.4723 51.0983 34.8439 51.1144 34.2191 51.0635C33.6381 51.0133 33.0839 50.7589 32.522 51.0515C32.1405 51.2799 31.8556 51.64 31.7211 52.0638C31.4425 52.6854 31.204 53.3242 31.007 53.9762C30.7408 54.8918 32.1672 55.2827 32.433 54.3693L32.4345 54.3706Z" fill="#726A69"/>
<path d="M36.4414 29.4624C35.3793 31.0784 34.0969 32.5384 32.6313 33.8001C31.9539 34.4055 31.227 34.9532 30.4583 35.4375C29.9105 35.7888 29.3212 36.0708 28.7039 36.2769C27.8025 36.5696 28.1882 37.9978 29.097 37.703C30.7855 37.1549 32.2447 36.0866 33.574 34.9369C35.1721 33.5653 36.5674 31.9739 37.7183 30.2103C38.2387 29.4094 36.959 28.6682 36.4414 29.4639V29.4624Z" fill="#B47119"/>
<path d="M17.7093 21.8081C16.3153 20.172 14.2735 19.2851 12.1297 19.6572C11.247 19.8079 10.4174 20.1816 9.71965 20.743C9.02193 21.3043 8.47925 22.0347 8.14311 22.8647C7.7491 23.8983 7.67701 25.0606 7.38251 26.1274C7.10094 27.2354 6.6173 28.282 5.95588 29.2145C5.43834 29.9073 4.75014 30.2409 3.94795 30.5933C3.32567 30.8706 2.8531 31.4608 3.21908 32.1623C3.51246 32.653 3.87989 33.0955 4.30838 33.474C6.33819 35.4203 9.11412 35.8054 11.7942 35.3097C11.9823 35.2561 12.1418 35.1307 12.2384 34.9606C12.3349 34.7906 12.3609 34.5894 12.3105 34.4004C12.2549 34.2136 12.1292 34.0555 11.9597 33.9593C11.7902 33.8631 11.5901 33.8361 11.4012 33.884C9.49364 34.2365 7.42163 34.0689 5.83944 32.8536C5.45503 32.5515 5.10493 32.2081 4.79542 31.8296C4.73844 31.743 4.67413 31.6615 4.60319 31.5859C4.48274 31.4935 4.58471 31.3108 4.47288 31.7455C4.37338 32.134 4.35305 31.9901 4.50554 31.9534C4.72185 31.8804 4.93073 31.7869 5.12936 31.6743C5.86706 31.3468 6.51773 30.8509 7.02916 30.2264C8.39325 28.5013 8.87752 26.3594 9.31158 24.2572C9.35995 24.0237 9.40184 23.7871 9.46777 23.5579C9.5035 23.4148 9.55517 23.2763 9.6218 23.1448C9.75974 22.8515 9.94129 22.5808 10.1603 22.342C10.6617 21.8011 11.3006 21.4067 12.0089 21.2009C12.7171 20.9951 13.4679 20.9858 14.1811 21.1738C15.1618 21.4654 16.029 22.0519 16.6647 22.8536C16.8041 22.9907 16.9919 23.0675 17.1874 23.0675C17.383 23.0675 17.5707 22.9907 17.7102 22.8536C17.8452 22.7131 17.9206 22.5258 17.9206 22.3309C17.9206 22.136 17.8452 21.9487 17.7102 21.8081H17.7093Z" fill="#B47119"/>
<path d="M23.3079 43.1518C23.2876 43.2088 23.2657 43.2655 23.2463 43.3222C23.1758 43.5144 23.3119 43.1897 23.2213 43.3816C23.1625 43.5048 23.1046 43.6299 23.0408 43.7513C22.9127 43.9977 22.7716 44.2343 22.6228 44.4675C22.2821 44.9998 21.9023 45.5061 21.4867 45.9822C20.6733 46.9724 19.7103 47.8295 18.6325 48.5225C17.8201 49.0154 18.5626 50.2948 19.3789 49.7994C20.5922 49.0288 21.6755 48.0706 22.5886 46.9606C23.5048 45.9616 24.2317 44.8041 24.7336 43.5449C24.7594 43.4513 24.7665 43.3535 24.7546 43.2571C24.7426 43.1608 24.7117 43.0677 24.6638 42.9833C24.6159 42.8988 24.5518 42.8246 24.4751 42.765C24.3985 42.7053 24.3109 42.6613 24.2173 42.6355C24.1237 42.6097 24.0259 42.6026 23.9296 42.6145C23.8332 42.6265 23.7401 42.6574 23.6557 42.7053C23.5712 42.7532 23.4971 42.8173 23.4374 42.894C23.3777 42.9706 23.3337 43.0582 23.3079 43.1518Z" fill="#726A69"/>
<path d="M40.8283 31.9857C40.7702 30.0154 40.2231 28.0905 39.2362 26.3842C38.4478 25.1353 37.443 24.0371 36.269 23.141C34.403 21.7181 32.2534 20.7123 29.9653 20.1915C27.6773 19.6707 25.3041 19.647 23.0061 20.122C18.855 20.9879 15.4183 23.8966 13.2957 27.5046C11.9205 29.826 11.1513 32.456 11.0589 35.1525C11.0083 37.5822 11.5089 39.9918 12.5231 42.2003C13.276 43.844 14.2825 45.3591 15.5058 46.6903C16.2577 47.5128 17.0963 48.2559 17.7934 49.1283C18.1042 49.4977 18.3584 49.9112 18.5479 50.3553C18.6882 50.733 18.7263 51.1411 18.6581 51.5382C18.6045 52.0061 18.5211 52.47 18.4086 52.9273C18.1837 53.8515 19.61 54.2461 19.8346 53.3204C20.0543 52.4181 20.2939 51.3707 20.1119 50.4443C19.8981 49.3661 19.1701 48.4342 18.4579 47.6314C17.7832 46.8717 17.0273 46.1888 16.3566 45.4254C15.8597 44.8635 15.4066 44.2645 15.0012 43.6334C13.8983 41.9552 13.1377 40.0757 12.7631 38.1028C12.3187 35.6267 12.5434 33.0767 13.414 30.7165C14.8203 26.8152 18.0297 23.2235 21.975 21.9284C22.6381 21.7126 23.3166 21.5478 24.0048 21.4355C24.1422 21.4127 24.2799 21.3924 24.4176 21.3739C24.5307 21.3576 24.2944 21.3896 24.4044 21.3755L24.4946 21.3638C24.6012 21.3508 24.7081 21.3376 24.8153 21.3262C25.4803 21.2554 26.1494 21.2321 26.8177 21.2566C29.2972 21.3466 31.717 22.0417 33.8661 23.2814C34.68 23.7552 35.4392 24.3173 36.1298 24.9576C36.4236 25.2311 36.7058 25.518 36.9729 25.818C37.0783 25.9357 37.181 26.0555 37.281 26.1775C37.3312 26.2391 37.3805 26.3007 37.4298 26.3623C37.4359 26.3697 37.5025 26.4548 37.4513 26.3891C37.3937 26.3146 37.4957 26.4483 37.5062 26.4625C38.333 27.607 38.8991 28.9188 39.1648 30.3055C39.2662 30.8605 39.328 31.4219 39.3496 31.9857C39.398 32.9326 40.877 32.9382 40.8283 31.9857Z" fill="#B47119"/>
<path d="M30.1462 54.9456C29.7591 54.6834 29.358 54.4425 28.9448 54.2238C26.8595 53.1123 24.8272 52.1241 22.4619 51.4513C22.0616 51.3288 21.6509 51.2434 21.2349 51.1962C20.3967 51.1247 19.3755 51.1916 18.9553 51.9663C18.634 52.5606 18.394 53.2294 18.0533 53.9829L17.3139 55.6122C17.2995 55.6273 17.2862 55.643 17.273 55.6593C16.4843 56.6113 16.0078 57.8115 15.453 59.198C13.5408 63.9764 11.2633 73.0182 9.93591 85.0329H33.558C35.183 85.4897 36.9488 85.5101 38.6483 85.4642C43.9725 85.3181 51.3265 83.5933 57.1966 81.7828L56.311 77.6163L55.0017 71.4551C54.8169 70.7324 54.6425 70.3301 53.9167 70.5001C50.0814 71.4034 46.6055 72.0404 43.0028 72.5888C41.017 72.8171 39.681 71.6606 38.9013 70.5008C36.8453 67.4417 36.8003 66.1879 35.2822 62.295C34.9602 61.511 34.6556 60.743 34.2828 59.9608C33.0379 57.6374 31.9015 56.1412 30.1462 54.9456Z" fill="#BDBDBD"/>
<path d="M10.6787 85.0326C11.1682 80.6249 11.8345 76.2344 12.7489 71.8941C13.374 68.785 14.193 65.718 15.201 62.7112C15.4382 62.0254 15.6964 61.3483 15.9678 60.6752C16.3843 59.642 16.8303 58.6066 17.5894 57.7745C18.2296 57.0724 17.1868 56.0238 16.5439 56.729C15.2857 58.1091 14.6413 59.9263 14.0104 61.6554C13.5316 62.969 13.1188 64.3048 12.7421 65.6522C11.7268 69.3586 10.9153 73.1179 10.3112 76.913C9.86819 79.6086 9.5016 82.3164 9.20001 85.0326C9.20114 85.2283 9.2794 85.4157 9.41781 85.5541C9.55622 85.6925 9.74362 85.7708 9.93936 85.7719C10.134 85.7675 10.3195 85.6881 10.4572 85.5504C10.5949 85.4127 10.6742 85.2273 10.6787 85.0326Z" fill="#90898C"/>
<path d="M22.4108 71.8821C23.5097 74.1821 24.5654 76.5138 25.8466 78.7211C27.1032 80.8846 28.6022 83.0222 30.6705 84.4818C32.8251 86.0021 35.4871 86.2556 38.0504 86.2171C40.5681 86.1513 43.0764 85.8841 45.5514 85.418C48.6012 84.8779 51.6177 84.1512 54.6 83.3176C55.5153 83.0619 55.1265 81.635 54.207 81.8919C49.3362 83.2535 44.2874 84.4679 39.218 84.7042C36.8487 84.8145 34.2339 84.8545 32.1086 83.6457C30.0754 82.488 28.6312 80.4758 27.4421 78.5122C26.0124 76.1515 24.8756 73.6239 23.6878 71.1372C23.5876 70.9692 23.4254 70.8472 23.2362 70.7976C23.047 70.748 22.8458 70.7747 22.6761 70.872C22.51 70.9738 22.3896 71.1359 22.3402 71.3244C22.2908 71.5128 22.3161 71.7131 22.4108 71.8834V71.8821Z" fill="#90898C"/>
<path d="M57.4906 71.9377C57.8689 71.9186 58.2472 71.8977 58.6252 71.8718C58.908 71.8733 59.1864 71.8015 59.4332 71.6636C59.6726 71.5095 59.9046 71.3453 60.1418 71.1876C60.4976 70.9495 60.8543 70.7126 61.2141 70.4791C61.3654 70.3814 61.5173 70.2844 61.671 70.1904C61.7237 70.1596 61.7767 70.1264 61.8303 70.0955C61.8645 70.0758 61.8996 70.0577 61.9335 70.0379C62.0114 69.9994 62.0142 69.9964 61.9418 70.0281C61.9841 70.0135 62.0279 70.0038 62.0724 69.9991C62.2611 69.9464 62.4213 69.8211 62.5181 69.6507C62.6148 69.4803 62.6402 69.2785 62.5887 69.0894C62.5319 68.9034 62.406 68.7462 62.2368 68.6502C62.0677 68.5542 61.8682 68.5266 61.6793 68.5731C61.2746 68.6883 60.8961 68.8809 60.5647 69.1403C60.2117 69.3664 59.8624 69.5977 59.5136 69.8306C59.2569 70.0019 59.0009 70.174 58.7457 70.3469C58.7293 70.3577 58.6742 70.3833 58.6652 70.4011C58.6538 70.4236 58.5633 70.4011 58.7111 70.3864C58.859 70.3716 58.6702 70.3888 58.6264 70.3919C58.2484 70.4178 57.8701 70.4387 57.4918 70.4578C57.2958 70.4578 57.1077 70.5357 56.9691 70.6744C56.8304 70.813 56.7525 71.0011 56.7525 71.1972C56.7525 71.3933 56.8304 71.5813 56.9691 71.72C57.1077 71.8586 57.2958 71.9365 57.4918 71.9365L57.4906 71.9377Z" fill="#726A69"/>
<path d="M70.8869 69.0523C70.6938 69.0533 70.5018 69.0221 70.3189 68.9599C70.0271 68.879 69.7407 68.7797 69.4615 68.6626C68.9896 68.4714 68.5365 68.2368 68.1079 67.9617C67.521 67.5478 66.7981 67.3738 66.0871 67.4753C65.3311 67.5915 64.6496 68.0221 63.9969 68.3995C63.4218 68.7323 62.8691 69.1022 62.3423 69.507C61.7474 69.9106 61.2647 70.4586 60.9394 71.0996C60.635 71.7798 60.6051 72.6341 61.1593 73.2028C61.6239 73.68 62.3537 73.7986 62.9926 73.7708C63.5533 73.7234 64.1053 73.6021 64.6342 73.4101C65.2628 73.2228 65.8736 72.9803 66.4595 72.6855C67.3005 72.2398 66.5544 70.9632 65.7131 71.4086C64.9365 71.8003 64.1107 72.0852 63.2578 72.2558C63.2153 72.2647 62.9347 72.2995 63.1346 72.2835C63.0548 72.29 62.9744 72.2937 62.8943 72.2946C62.6959 72.3109 62.4962 72.2877 62.3068 72.2262C62.2058 72.1806 62.1836 72.1588 62.1923 71.9927C62.2286 71.7727 62.3232 71.5665 62.4661 71.3954C62.8104 70.9808 63.2212 70.6264 63.6817 70.3464C64.1223 70.0426 64.578 69.7613 65.047 69.5036C65.5329 69.2322 66.0815 68.8465 66.6677 68.9254C67.0842 68.9817 67.4089 69.2839 67.7675 69.4799C68.6877 69.9863 69.8115 70.5331 70.8857 70.5307C71.837 70.5288 71.8388 69.0501 70.8857 69.052L70.8869 69.0523Z" fill="#726A69"/>
<path d="M66.4588 74.4322C67.2376 75.194 68.0075 75.9583 68.8577 76.6422C69.7268 77.3438 70.6372 77.9925 71.584 78.5848C71.7222 78.6488 71.8481 78.7366 71.9559 78.8442C71.9075 78.7897 72.036 78.965 72.0535 78.9946C72.0899 79.0497 72.1186 79.1095 72.1389 79.1723C72.1742 79.2669 72.1999 79.3649 72.2156 79.4647C72.2226 79.5084 72.2235 79.5529 72.218 79.5968C72.214 79.6849 72.2236 79.6122 72.2263 79.5934C72.219 79.6433 72.1977 79.6859 72.1891 79.7358C72.2076 79.6295 72.2488 79.6578 72.1512 79.7456C72.097 79.7983 72.0346 79.8418 71.9663 79.8744C71.9814 79.8676 71.8345 79.9003 71.9186 79.8898C71.691 79.9026 71.4628 79.8782 71.243 79.8177C70.7989 79.7161 70.3723 79.5492 69.9772 79.3223C69.5269 79.0652 69.0971 78.7738 68.6914 78.4508C68.2153 78.117 67.7823 77.7256 67.4021 77.2858C67.263 77.1481 67.0751 77.0709 66.8793 77.0709C66.6836 77.0709 66.4957 77.1481 66.3566 77.2858C66.222 77.4269 66.147 77.6145 66.147 77.8095C66.147 78.0045 66.222 78.192 66.3566 78.3332C66.7498 78.7858 67.1972 79.1883 67.6886 79.5318C68.147 79.904 68.6308 80.2437 69.1365 80.5484C69.6535 80.8569 70.2129 81.088 70.7969 81.2342C71.3949 81.374 72.0563 81.4661 72.6284 81.1947C73.7556 80.6599 73.8914 79.4409 73.4068 78.404C73.154 77.9231 72.7605 77.5308 72.2787 77.2796C71.7482 76.9471 71.2301 76.5964 70.7242 76.2276C69.5829 75.3609 68.5062 74.4124 67.5026 73.3894C66.8217 72.7237 65.775 73.7683 66.457 74.435L66.4588 74.4322Z" fill="#726A69"/>
<path d="M64.7468 80.851C65.308 81.2191 65.8779 81.5728 66.4654 81.8984C66.8351 82.1023 67.2072 82.2967 67.584 82.4837C67.8879 82.6633 68.2142 82.8021 68.5544 82.8965C68.8997 82.9757 69.2578 82.9813 69.6055 82.9128C69.9531 82.8443 70.2824 82.7034 70.5719 82.4991C70.9269 82.223 71.1713 81.8287 71.2606 81.3879C71.35 80.9471 71.2784 80.4888 71.0589 80.0962C71.0099 80.0124 70.9448 79.939 70.8675 79.8803C70.7901 79.8216 70.7019 79.7787 70.608 79.7541C70.5141 79.7295 70.4162 79.7236 70.32 79.7368C70.2238 79.75 70.1311 79.782 70.0472 79.831C69.9634 79.88 69.89 79.945 69.8313 80.0224C69.7726 80.0998 69.7297 80.1879 69.7051 80.2819C69.6805 80.3758 69.6746 80.4737 69.6878 80.5699C69.701 80.6661 69.733 80.7588 69.782 80.8427C69.8257 80.9201 69.8336 80.9277 69.8057 80.8655L69.8251 80.9372C69.8251 80.7995 69.8211 81.0102 69.8208 81.0377C69.8233 80.903 69.8119 81.0876 69.8029 81.1227C69.7823 81.2015 69.7315 81.2863 69.7968 81.1714C69.7706 81.2169 69.7044 81.3165 69.7792 81.224C69.7395 81.2718 69.6958 81.3161 69.6486 81.3565C69.7687 81.2493 69.6307 81.3565 69.599 81.3781C69.4709 81.4705 69.6954 81.3596 69.5568 81.4009C69.4995 81.4178 69.4434 81.4369 69.3852 81.4505C69.3063 81.4689 69.2219 81.4742 69.3504 81.4631C69.2398 81.4738 69.1287 81.4771 69.0177 81.4729C68.9669 81.4705 68.9167 81.4646 68.8658 81.4603C69.0778 81.4776 68.9364 81.4717 68.884 81.4569C68.8478 81.4445 68.8108 81.4342 68.7734 81.4261C68.7005 81.3998 68.7306 81.4134 68.8637 81.4668C68.8175 81.4443 68.7712 81.4221 68.725 81.3993C67.6098 80.8596 66.5303 80.249 65.4932 79.5713C65.4093 79.5223 65.3167 79.4903 65.2204 79.4771C65.1242 79.4639 65.0264 79.4698 64.9324 79.4944C64.8385 79.519 64.7503 79.5619 64.6729 79.6206C64.5956 79.6793 64.5305 79.7527 64.4815 79.8365C64.4325 79.9204 64.4005 80.0131 64.3873 80.1093C64.3741 80.2055 64.38 80.3034 64.4046 80.3973C64.4292 80.4912 64.4721 80.5794 64.5308 80.6568C64.5895 80.7341 64.6629 80.7992 64.7468 80.8482V80.851Z" fill="#726A69"/>
<path d="M62.8921 82.7528C63.4155 83.1582 63.9765 83.5126 64.5673 83.8113C65.1683 84.1194 65.7687 84.4145 66.4634 84.3369C67.1041 84.2926 67.7034 84.0044 68.138 83.5316C68.3778 83.2447 68.5286 82.8941 68.572 82.5228C68.6154 82.1514 68.5495 81.7755 68.3823 81.4411C68.3333 81.3572 68.2683 81.2838 68.1909 81.2251C68.1136 81.1664 68.0254 81.1235 67.9314 81.0989C67.8375 81.0742 67.7396 81.0684 67.6434 81.0816C67.5472 81.0948 67.4545 81.1268 67.3707 81.1759C67.2059 81.2789 67.0867 81.4409 67.0374 81.6289C66.9881 81.8169 67.0124 82.0166 67.1054 82.1872C67.0635 82.0893 67.0842 82.1426 67.1033 82.2128C67.1073 82.2282 67.1341 82.3607 67.1211 82.2744C67.1067 82.1764 67.1211 82.3563 67.1211 82.3767C67.1211 82.446 67.1027 82.454 67.1211 82.3847C67.0688 82.5803 67.1621 82.3372 67.1073 82.4411C67.0808 82.4911 67.0505 82.5391 67.0167 82.5846C67.0589 82.5279 67.0583 82.5369 67.0099 82.5806C66.9961 82.5932 66.8713 82.7091 66.9483 82.6441C67.0253 82.5791 66.8802 82.6869 66.8756 82.6897C66.8414 82.7103 66.8057 82.7279 66.7709 82.7479C66.651 82.8172 66.8356 82.7313 66.7539 82.7593C66.7151 82.7728 66.6772 82.7882 66.6381 82.8009C66.5403 82.835 66.4395 82.8598 66.3371 82.8751C66.4754 82.8569 66.3149 82.8702 66.2875 82.8708C66.2284 82.8708 66.1698 82.8708 66.1107 82.8671C66.0515 82.8634 66.0238 82.8474 66.0971 82.8671C66.0405 82.8526 65.9832 82.8422 65.9271 82.8252C65.9142 82.8215 65.7848 82.775 65.8519 82.8024C65.9329 82.8357 65.7512 82.7522 65.7355 82.7445C65.5242 82.6419 65.3137 82.5375 65.1061 82.4275C64.8874 82.312 64.6717 82.1909 64.4613 82.0606C64.3621 81.999 64.2636 81.9358 64.1668 81.8699C64.124 81.8391 64.0812 81.8108 64.039 81.7806C64.043 81.7834 63.8597 81.6475 63.9383 81.7085C63.7971 81.5746 63.61 81.5 63.4155 81.5C63.221 81.5 63.0338 81.5746 62.8927 81.7085C62.6493 81.9734 62.5665 82.5005 62.8927 82.754L62.8921 82.7528Z" fill="#726A69"/>
<path d="M57.4154 79.4393C56.6619 80.0326 56.8997 81.7103 58.0451 81.5073C58.5916 81.3921 59.1059 81.1575 59.5512 80.8203C59.711 80.7203 59.8455 80.5846 59.944 80.4238C60.0424 80.263 60.1022 80.0815 60.1186 79.8937C60.1154 79.7405 60.0801 79.5897 60.0151 79.451C59.9501 79.3123 59.8568 79.1887 59.7413 79.0882C59.6257 78.9876 59.4904 78.9124 59.344 78.8672C59.1977 78.822 59.0435 78.808 58.8913 78.8259C58.3767 78.9185 57.8871 79.1179 57.4542 79.4112C57.4411 79.4201 57.4281 79.4294 57.4154 79.4393Z" fill="white"/>
<path d="M59.521 80.941C58.7672 81.534 59.005 83.2117 60.1504 83.0087C60.697 82.8936 61.2114 82.659 61.6568 82.3217C61.8166 82.2217 61.951 82.086 62.0494 81.9252C62.1478 81.7644 62.2076 81.5829 62.2239 81.3951C62.2207 81.242 62.1855 81.0912 62.1205 80.9525C62.0555 80.8138 61.9623 80.6903 61.8467 80.5897C61.7312 80.4892 61.5959 80.414 61.4495 80.3688C61.3032 80.3237 61.149 80.3097 60.9969 80.3277C60.4821 80.4202 59.9925 80.6196 59.5595 80.913C59.5466 80.9213 59.5336 80.9302 59.521 80.941Z" fill="white"/>
<path d="M61.8598 82.1761C61.1063 82.7691 61.3441 84.4468 62.4892 84.2441C63.0359 84.1289 63.5503 83.8942 63.9956 83.5569C64.1555 83.4569 64.29 83.3212 64.3884 83.1604C64.4868 82.9996 64.5465 82.8181 64.5627 82.6302C64.5595 82.4771 64.5243 82.3263 64.4593 82.1876C64.3944 82.0489 64.3011 81.9254 64.1856 81.8248C64.07 81.7243 63.9347 81.6491 63.7884 81.6039C63.642 81.5588 63.4878 81.5448 63.3357 81.5628C62.8211 81.6553 62.3315 81.8547 61.8986 82.1481C61.8854 82.1564 61.8725 82.166 61.8598 82.1761Z" fill="white"/>
<path d="M56.8927 78.9167C56.3299 79.3723 56.1795 80.1625 56.2821 80.8421C56.338 81.1771 56.4848 81.4903 56.7066 81.7475C56.97 82.0453 57.3398 82.2278 57.7365 82.2554C58.1947 82.2706 58.6492 82.168 59.0565 81.9575C59.4911 81.7716 59.8932 81.5175 60.2478 81.205C60.4363 81.0337 60.5877 80.8256 60.6926 80.5935C60.7976 80.3615 60.8537 80.1103 60.8577 79.8557C60.8516 79.605 60.7929 79.3583 60.6854 79.1317C60.578 78.9052 60.4242 78.7036 60.2339 78.5402C60.0118 78.3438 59.7468 78.202 59.4601 78.1262C59.1547 78.0609 58.8383 78.0673 58.5359 78.145C58.25 78.2136 57.9714 78.3099 57.7041 78.4324C57.4704 78.53 57.2486 78.654 57.043 78.8021C56.8814 78.9046 56.7613 79.0611 56.7042 79.2438C56.653 79.4362 56.6798 79.641 56.7787 79.8138C56.8791 79.9815 57.0413 80.1032 57.2304 80.1528C57.4196 80.2024 57.6206 80.1759 57.7904 80.079C57.9436 79.9679 58.1068 79.8712 58.2777 79.79C58.3064 79.7759 58.335 79.7623 58.364 79.7491L58.4074 79.7294C58.4807 79.6973 58.4659 79.7035 58.3628 79.7478C58.3628 79.7478 58.6505 79.6456 58.6776 79.6372C58.7531 79.6148 58.8292 79.5944 58.9062 79.5756C58.9518 79.5652 58.9986 79.5571 59.0436 79.547C59.2068 79.5112 58.8587 79.5488 59.006 79.5534C59.0368 79.5534 59.0676 79.5534 59.0984 79.5534C59.1939 79.5534 58.8972 79.5097 59.0313 79.5433C59.0676 79.5522 59.1036 79.5593 59.1394 79.5704C59.3218 79.6271 59.0291 79.5039 59.1351 79.5667C59.1877 79.5975 59.2407 79.6369 59.2943 79.6656C59.1301 79.5775 59.2044 79.5941 59.2595 79.6468C59.2866 79.673 59.311 79.7013 59.3368 79.7287C59.4342 79.8319 59.2386 79.5778 59.3116 79.6979C59.3245 79.7195 59.3381 79.7401 59.3504 79.762C59.3917 79.8359 59.3738 79.8929 59.3396 79.7204C59.3489 79.7669 59.3704 79.8175 59.3834 79.8634C59.4243 80.0001 59.3744 79.6717 59.3781 79.8153C59.3781 79.8409 59.3803 79.8658 59.38 79.8914C59.3778 79.9795 59.3328 79.9998 59.3929 79.8261C59.3818 79.8569 59.3784 79.8945 59.3689 79.9271C59.347 80.0014 59.2922 80.046 59.3929 79.8865C59.3732 79.9173 59.36 79.9555 59.3415 79.9878C59.3285 80.0106 59.315 80.0328 59.3008 80.0547C59.2866 80.0765 59.27 80.0987 59.2549 80.12C59.3299 80.0251 59.3423 80.0071 59.2922 80.0661C59.2614 80.0969 59.234 80.1277 59.2028 80.1569L59.1705 80.1859C59.111 80.2355 59.1264 80.2244 59.2161 80.1551C59.1834 80.1486 59.0528 80.2626 59.0223 80.282C58.8649 80.3827 58.7053 80.4807 58.5402 80.5682C58.4524 80.5988 58.3683 80.6395 58.2898 80.6893L58.3822 80.6501C58.3609 80.6588 58.3393 80.6671 58.3178 80.6748C58.2817 80.688 58.2457 80.7007 58.209 80.7121C58.1215 80.7403 58.0322 80.7627 57.9416 80.7792C57.9013 80.7866 57.8606 80.7918 57.8203 80.7986C58.0704 80.7561 57.9626 80.7811 57.9001 80.7832C57.8723 80.7832 57.8449 80.7832 57.8172 80.7832C57.7288 80.7808 57.7285 80.7336 57.9096 80.7983C57.8699 80.7859 57.8296 80.7756 57.7888 80.7675C57.6795 80.7429 57.9718 80.8627 57.8763 80.8054C57.856 80.7934 57.8344 80.7838 57.8147 80.7715C57.795 80.7592 57.7765 80.7432 57.7565 80.7321C57.9435 80.8365 57.884 80.8353 57.8261 80.7792C57.8123 80.7657 57.799 80.7512 57.7855 80.737C57.7325 80.6816 57.7457 80.6317 57.8418 80.8128C57.8197 80.7706 57.7885 80.7327 57.766 80.6896C57.7587 80.6751 57.7522 80.6588 57.7445 80.6458C57.6893 80.5457 57.8138 80.8411 57.7808 80.7312C57.7639 80.6745 57.7439 80.6196 57.7312 80.5614C57.7272 80.5448 57.7245 80.5278 57.7211 80.5112C57.686 80.3522 57.734 80.696 57.7297 80.5796C57.7275 80.518 57.7223 80.4582 57.7238 80.3966C57.7238 80.3791 57.7238 80.3615 57.7263 80.3442C57.7312 80.2657 57.7756 80.1637 57.714 80.4099C57.7288 80.3504 57.7356 80.2894 57.7525 80.2303C57.7759 80.1468 57.8665 80.0057 57.7389 80.2352C57.7661 80.1865 57.7864 80.1348 57.8157 80.087C57.8267 80.0688 57.8391 80.0513 57.8502 80.0334C57.9078 79.9391 57.7035 80.1961 57.8126 80.0827C57.8529 80.039 57.8959 79.9978 57.9413 79.9595C58.0099 79.8906 58.0643 79.809 58.1013 79.7191C58.1383 79.6292 58.1572 79.533 58.157 79.4358C58.156 79.2398 58.0786 79.0519 57.9413 78.9121C57.802 78.7741 57.6138 78.6966 57.4176 78.6964C57.2226 78.7074 57.0372 78.7852 56.8927 78.9167Z" fill="#726A69"/>
<path d="M58.9983 80.4183C58.4352 80.8736 58.2851 81.6641 58.3874 82.3437C58.4435 82.6785 58.5903 82.9916 58.8119 83.2487C59.0752 83.5467 59.4451 83.7291 59.8418 83.7567C60.3 83.7719 60.7544 83.6695 61.1618 83.4592C61.5964 83.2732 61.9986 83.019 62.3531 82.7063C62.5416 82.5351 62.693 82.327 62.798 82.095C62.903 81.863 62.9592 81.6119 62.9633 81.3573C62.9572 81.1066 62.8984 80.86 62.791 80.6334C62.6835 80.4068 62.5297 80.2053 62.3395 80.0418C62.1172 79.8454 61.8521 79.7037 61.5654 79.6278C61.26 79.5624 60.9437 79.5687 60.6412 79.6463C60.3553 79.7151 60.0768 79.8114 59.8094 79.9337C59.5758 80.0313 59.354 80.1553 59.1486 80.3034C58.9867 80.4058 58.8666 80.5625 58.8098 80.7455C58.7707 80.8872 58.7747 81.0374 58.8214 81.1768C58.8681 81.3162 58.9553 81.4386 59.0719 81.5282C59.1884 81.6178 59.3291 81.6706 59.4758 81.6799C59.6226 81.6892 59.7687 81.6545 59.8957 81.5803C60.049 81.4692 60.2123 81.3725 60.3833 81.2913C60.4117 81.2775 60.4406 81.2636 60.4693 81.2504L60.513 81.2306C60.5861 81.1986 60.5713 81.2049 60.4684 81.2494C60.4684 81.2494 60.7558 81.1469 60.7829 81.1388C60.8584 81.1161 60.9348 81.0957 61.0115 81.0772C61.0571 81.0668 61.1039 81.0588 61.1492 81.0486C61.3121 81.0129 60.9643 81.0507 61.1113 81.0551C61.1421 81.0551 61.1729 81.0551 61.2037 81.0551C61.2989 81.0551 61.0022 81.0113 61.1362 81.0449C61.1726 81.0538 61.2086 81.0612 61.2444 81.0723C61.427 81.129 61.1344 81.0055 61.2404 81.0683C61.2927 81.0991 61.346 81.1385 61.3993 81.1672C61.2351 81.0791 61.3097 81.0957 61.3645 81.1487C61.3919 81.1749 61.4163 81.2032 61.4421 81.2306C61.5395 81.3335 61.3436 81.0797 61.4166 81.1998C61.4295 81.2214 61.4431 81.242 61.4554 81.2639C61.497 81.3382 61.4788 81.3948 61.4446 81.2223C61.4538 81.2688 61.4754 81.3197 61.4883 81.3653C61.5293 81.5024 61.4794 81.1737 61.4834 81.3175C61.4834 81.3428 61.4856 81.368 61.4834 81.3933C61.4816 81.4817 61.4363 81.502 61.4967 81.328C61.4856 81.3588 61.4822 81.3964 61.4726 81.429C61.4508 81.5036 61.3956 81.5479 61.4967 81.3884C61.4766 81.4192 61.4634 81.4574 61.4449 81.4897C61.4323 81.5125 61.4184 81.5347 61.4043 81.5566C61.3901 81.5784 61.3734 81.6006 61.3583 81.6222C61.4335 81.5271 61.4459 81.509 61.3956 81.568C61.3648 81.5988 61.3377 81.6296 61.3063 81.6588L61.2739 81.6881C61.2148 81.7374 61.23 81.7265 61.3195 81.6555C61.2869 81.649 61.1563 81.763 61.1258 81.7827C60.9683 81.8831 60.8091 81.9811 60.6436 82.0686C60.5559 82.0993 60.4718 82.14 60.3932 82.1896L60.4856 82.1505C60.464 82.1591 60.4428 82.1675 60.4209 82.1752C60.3852 82.1884 60.3488 82.201 60.3125 82.2127C60.2249 82.2407 60.1355 82.263 60.0451 82.2796C60.0044 82.287 59.9638 82.2922 59.9219 82.299C60.1723 82.2565 60.0645 82.2814 60.002 82.2839C59.9742 82.2839 59.9468 82.2839 59.9191 82.2839C59.8307 82.2814 59.8301 82.2343 60.0115 82.299C59.9718 82.2864 59.9314 82.2761 59.8904 82.2682C59.7811 82.2432 60.0734 82.3631 59.9779 82.3061C59.9579 82.2938 59.936 82.2842 59.9163 82.2719C59.8966 82.2596 59.8781 82.2439 59.8581 82.2325C60.0451 82.3369 59.9853 82.3357 59.9277 82.2796C59.9135 82.266 59.9006 82.2516 59.8871 82.2374C59.8341 82.1822 59.847 82.132 59.9431 82.3135C59.9209 82.2713 59.8898 82.2334 59.8673 82.1903C59.8599 82.1758 59.8535 82.1594 59.8458 82.1465C59.7906 82.0464 59.9151 82.3418 59.8821 82.2318C59.8652 82.1752 59.8455 82.1203 59.8325 82.0624C59.8288 82.0458 59.8261 82.0288 59.8224 82.0122C59.7872 81.8529 59.8353 82.197 59.8313 82.0806C59.8288 82.019 59.8236 81.9574 59.8254 81.8973C59.8254 81.88 59.8254 81.8625 59.8279 81.8449C59.8328 81.7664 59.8769 81.6644 59.8153 81.9105C59.8301 81.8511 59.8371 81.7901 59.8538 81.7309C59.8775 81.6478 59.9681 81.5064 59.8402 81.7359C59.8673 81.6872 59.8877 81.6354 59.9169 81.5877C59.928 81.5695 59.9403 81.5523 59.9514 81.5341C60.009 81.4398 59.8048 81.6967 59.9139 81.5837C59.9541 81.5399 59.9972 81.4988 60.0426 81.4605C60.1809 81.3213 60.2585 81.133 60.2583 80.9368C60.2573 80.7408 60.18 80.5529 60.0426 80.4131C59.9034 80.2749 59.7151 80.1973 59.5189 80.1974C59.3252 80.2093 59.1415 80.2873 58.9983 80.4183Z" fill="#726A69"/>
<path d="M61.3371 81.6533C60.7743 82.1086 60.6239 82.8991 60.7265 83.5787C60.7825 83.9136 60.9293 84.2268 61.151 84.484C61.4144 84.7819 61.7843 84.9642 62.1809 84.9917C62.6391 85.0069 63.0935 84.9044 63.5009 84.6941C63.9355 84.5081 64.3376 84.2539 64.6922 83.9412C64.8807 83.7701 65.0322 83.5621 65.1371 83.33C65.242 83.098 65.2982 82.8469 65.3021 82.5923C65.2959 82.3416 65.2372 82.095 65.1297 81.8684C65.0223 81.6418 64.8685 81.4403 64.6783 81.2768C64.4562 81.0804 64.1912 80.9386 63.9045 80.8628C63.5991 80.7975 63.2828 80.8038 62.9803 80.8813C62.6944 80.9501 62.4159 81.0464 62.1485 81.1687C61.9149 81.2663 61.6932 81.3904 61.4877 81.5384C61.3259 81.6409 61.2058 81.7975 61.1489 81.9804C61.0977 82.1727 61.1245 82.3774 61.2234 82.55C61.3238 82.7178 61.486 82.8395 61.6751 82.8891C61.8643 82.9387 62.0653 82.9122 62.2351 82.8153C62.3883 82.7042 62.5515 82.6075 62.7224 82.5263C62.7511 82.5125 62.7797 82.4986 62.8087 82.4854L62.8521 82.4656C62.9255 82.4338 62.9106 82.4401 62.8075 82.4844C62.8075 82.4844 63.0952 82.3818 63.1223 82.3738C63.1979 82.351 63.2741 82.3305 63.3509 82.3122C63.3965 82.3018 63.4433 82.2937 63.4883 82.2836C63.6516 82.2478 63.3034 82.2857 63.4507 82.29C63.4815 82.29 63.5123 82.29 63.5431 82.29C63.6386 82.29 63.342 82.2463 63.476 82.2799C63.512 82.2888 63.5484 82.2962 63.5841 82.3073C63.7665 82.364 63.4738 82.2404 63.5798 82.3033C63.6325 82.3341 63.6854 82.3735 63.739 82.4022C63.5745 82.3144 63.6491 82.3307 63.7042 82.3837C63.7313 82.4099 63.7557 82.4382 63.7816 82.4656C63.8789 82.5685 63.6833 82.3147 63.7563 82.4348C63.7689 82.4564 63.7828 82.477 63.7951 82.4989C63.8364 82.5732 63.8185 82.6301 63.7843 82.4573C63.7936 82.5038 63.8151 82.5547 63.8278 82.6003C63.869 82.7373 63.8191 82.4086 63.8228 82.5525C63.8228 82.5778 63.825 82.603 63.8244 82.6283C63.8225 82.7167 63.7775 82.737 63.8376 82.563C63.8265 82.5938 63.8231 82.6314 63.8136 82.664C63.7917 82.7386 63.7369 82.7833 63.8376 82.6234C63.8179 82.6542 63.8047 82.6924 63.7862 82.725C63.7732 82.7476 63.7597 82.7698 63.7455 82.7916C63.7307 82.8141 63.7147 82.8359 63.6996 82.8572C63.7744 82.7621 63.7868 82.744 63.7369 82.803C63.7061 82.8338 63.6787 82.8646 63.6475 82.8954L63.6167 82.9246C63.5573 82.9739 63.5727 82.9632 63.662 82.892C63.6312 82.8855 63.4991 82.9995 63.4686 83.0192C63.3108 83.1196 63.1516 83.2176 62.9864 83.3051C62.8987 83.3359 62.8146 83.3765 62.736 83.4262L62.8284 83.3874L62.764 83.412C62.728 83.4252 62.6919 83.4376 62.6553 83.4493C62.5676 83.4772 62.4783 83.4997 62.3879 83.5164C62.3475 83.5235 62.3069 83.5288 62.2647 83.5355C62.5151 83.4933 62.4073 83.518 62.3448 83.5204C62.317 83.5204 62.2896 83.5204 62.2619 83.5204C62.1735 83.518 62.1732 83.4708 62.3543 83.5355C62.3146 83.5229 62.2742 83.5126 62.2332 83.5047C62.1242 83.4801 62.4165 83.5996 62.321 83.5426C62.3007 83.5303 62.2791 83.5207 62.2594 83.5084C62.2397 83.4961 62.2212 83.4804 62.2012 83.469C62.3882 83.5737 62.3287 83.5722 62.2708 83.5164C62.257 83.5026 62.2437 83.4881 62.2302 83.4739C62.1772 83.4188 62.1904 83.3686 62.2865 83.55C62.2641 83.5078 62.2332 83.4699 62.2108 83.4268C62.2031 83.4126 62.1969 83.396 62.1889 83.383C62.1337 83.2832 62.2585 83.5784 62.2255 83.4684C62.2083 83.4117 62.1886 83.3569 62.1756 83.2989C62.1719 83.2823 62.1692 83.2654 62.1655 83.2487C62.1307 83.0895 62.1784 83.4336 62.1744 83.3171C62.1723 83.2555 62.167 83.1939 62.1686 83.1341C62.1686 83.1166 62.1686 83.099 62.171 83.0815C62.1759 83.0029 62.2203 82.9012 62.1587 83.1471C62.1735 83.0876 62.1803 83.0266 62.1972 82.9675C62.2206 82.8843 62.3112 82.7429 62.1833 82.9727C62.2104 82.9237 62.2311 82.872 62.26 82.8242C62.2711 82.806 62.2838 82.7888 62.2949 82.7706C62.3525 82.6764 62.1482 82.9333 62.2573 82.8202C62.2974 82.7764 62.3403 82.7352 62.3857 82.697C62.4543 82.6282 62.5087 82.5465 62.5457 82.4566C62.5827 82.3667 62.6016 82.2705 62.6014 82.1733C62.6006 81.9773 62.5232 81.7893 62.3857 81.6496C62.2465 81.5114 62.0582 81.4338 61.862 81.4339C61.667 81.4445 61.4816 81.5219 61.3371 81.6533Z" fill="#726A69"/>
<path d="M62.8041 59.7445V62.2967C62.8041 62.4928 62.882 62.6809 63.0206 62.8195C63.1593 62.9582 63.3473 63.0361 63.5434 63.0361C63.7395 63.0361 63.9276 62.9582 64.0662 62.8195C64.2049 62.6809 64.2828 62.4928 64.2828 62.2967V59.7445C64.2828 59.5484 64.2049 59.3603 64.0662 59.2217C63.9276 59.083 63.7395 59.0051 63.5434 59.0051C63.3473 59.0051 63.1593 59.083 63.0206 59.2217C62.882 59.3603 62.8041 59.5484 62.8041 59.7445Z" fill="#DAA1B8"/>
<path d="M58.188 61.1872L59.1266 63.5608C59.1834 63.7438 59.3035 63.9005 59.4655 64.0028C59.6382 64.1017 59.8428 64.1285 60.0351 64.0774C60.2205 64.0255 60.3788 63.9042 60.4769 63.7385C60.5278 63.6538 60.5607 63.5594 60.5735 63.4613C60.5864 63.3633 60.5788 63.2636 60.5514 63.1686L59.6128 60.7965C59.5558 60.6137 59.4357 60.4571 59.2739 60.3548C59.1012 60.2559 58.8966 60.2291 58.7043 60.2802C58.5189 60.3321 58.3606 60.4535 58.2625 60.6191C58.2116 60.7038 58.1787 60.7981 58.1659 60.8961C58.153 60.9941 58.1606 61.0937 58.188 61.1887V61.1872Z" fill="#DAA1B8"/>
<path d="M67.5987 60.6397L66.5568 62.9705C66.4626 63.1446 66.436 63.3475 66.4823 63.5401C66.5348 63.7252 66.656 63.8834 66.8212 63.9821C66.9065 64.0315 67.0008 64.0635 67.0985 64.0763C67.1963 64.089 67.2956 64.0822 67.3908 64.0564C67.4833 64.0322 67.5701 63.9898 67.646 63.9316C67.7219 63.8734 67.7854 63.8006 67.8328 63.7175L68.8753 61.3876C68.9695 61.2135 68.9961 61.0106 68.9498 60.818C68.8974 60.6329 68.7762 60.4747 68.611 60.376C68.5257 60.3265 68.4314 60.2945 68.3336 60.2817C68.2359 60.2689 68.1365 60.2756 68.0414 60.3014C67.9489 60.3257 67.8621 60.3681 67.7862 60.4263C67.7103 60.4845 67.6468 60.5572 67.5993 60.6403L67.5987 60.6397Z" fill="#DAA1B8"/>
<path d="M26.1206 58.9724C24.8806 59.4237 23.6447 60.0056 22.6882 60.9366C21.7961 61.8331 21.2107 62.989 21.016 64.2387C20.9902 64.3323 20.9831 64.4301 20.9951 64.5265C21.0071 64.6229 21.0379 64.716 21.0859 64.8004C21.1338 64.8849 21.198 64.9591 21.2746 65.0187C21.3512 65.0784 21.4389 65.1224 21.5325 65.1482C21.6261 65.174 21.7239 65.1812 21.8203 65.1692C21.9167 65.1572 22.0098 65.1263 22.0942 65.0784C22.1787 65.0304 22.2529 64.9663 22.3126 64.8897C22.3722 64.813 22.4162 64.7254 22.442 64.6318C22.4886 64.3788 22.5379 64.1259 22.6047 63.8773C22.6392 63.7489 22.678 63.6216 22.7227 63.4963C22.7416 63.4437 22.7614 63.3915 22.7821 63.3398C22.8129 63.2655 22.7421 63.4183 22.8031 63.2969C22.9257 63.0474 23.0665 62.8072 23.2242 62.5782C23.373 62.3624 23.5437 62.1627 23.7337 61.9821C23.903 61.815 24.0856 61.6619 24.2796 61.5244C24.5119 61.3611 24.7531 61.2108 25.002 61.0743C25.4858 60.8064 25.9915 60.5803 26.5137 60.3984C26.7028 60.3463 26.8634 60.2212 26.9603 60.0506C27.0571 59.88 27.0823 59.678 27.0301 59.4889C26.978 59.2998 26.8529 59.1391 26.6823 59.0423C26.5118 58.9454 26.3097 58.9203 26.1206 58.9724Z" fill="#90898C"/>
<path d="M18.6942 54.3557C18.9295 53.832 19.1372 53.2929 19.3805 52.7713C19.5546 52.3983 19.675 52.1059 20.0872 51.9904C21.069 51.7153 22.1611 52.1136 23.0883 52.4146C24.231 52.7915 25.3472 53.2444 26.4296 53.77C27.4428 54.2352 28.4294 54.7564 29.3848 55.3313C32.8905 57.5228 34.306 61.6157 35.6042 65.3285C36.1157 66.9101 36.7916 68.4338 37.6208 69.8745C38.0748 70.7124 38.6569 71.4742 39.3459 72.1326C40.1204 72.8184 41.0921 73.2412 42.1218 73.3405C42.7178 73.3663 43.3146 73.3175 43.8984 73.1951C44.5262 73.0971 45.1533 72.9955 45.7797 72.8901C46.9931 72.6858 48.2037 72.4655 49.4115 72.2293C50.6609 71.9841 51.9065 71.7202 53.1482 71.4376C53.4695 71.3646 53.7893 71.2793 54.1121 71.2143C54.1781 71.201 54.1938 71.1671 54.1688 71.1896C54.1938 71.1668 54.2662 71.2512 54.2116 71.201C54.2116 71.201 54.1131 71.1526 54.1242 71.1486C54.1171 71.1511 54.1473 71.1887 54.158 71.2164C54.1981 71.3243 54.2321 71.4344 54.26 71.546C54.2723 71.5932 54.2843 71.6403 54.2951 71.688C54.7511 73.6565 55.1361 75.6442 55.556 77.621L55.597 77.8129C55.7948 78.7432 57.2205 78.3495 57.0227 77.4198L55.767 71.5112C55.7062 71.0023 55.5042 70.5205 55.1839 70.1203C54.9976 69.9469 54.7698 69.8243 54.5225 69.7643C54.2751 69.7043 54.0165 69.7089 53.7714 69.7778C53.1128 69.9038 52.4603 70.0803 51.8048 70.2241C49.2858 70.7787 46.7498 71.2506 44.2034 71.6588C43.156 71.8267 42.0978 72.066 41.104 71.5568C40.3366 71.1183 39.7012 70.4816 39.2643 69.7134C38.3575 68.2773 37.6294 66.7358 37.0961 65.1233C35.6982 61.1345 34.2047 56.8476 30.5717 54.3412C29.6433 53.7358 28.6727 53.1976 27.6673 52.731C26.5455 52.1679 25.3923 51.6695 24.2134 51.2384C23.0834 50.8315 21.8808 50.411 20.6648 50.4356C20.1385 50.4313 19.6184 50.5499 19.1461 50.7822C18.6848 51.0536 18.3271 51.4711 18.1295 51.9685C17.8747 52.507 17.6606 53.0646 17.417 53.608C17.3239 53.7787 17.2995 53.9784 17.3488 54.1665C17.3981 54.3545 17.5174 54.5166 17.6822 54.6197C17.8519 54.7172 18.0531 54.7441 18.2424 54.6945C18.4317 54.6448 18.5939 54.5227 18.6939 54.3544L18.6942 54.3557Z" fill="#90898C"/>
<path d="M17.9463 54.6869C19.3017 54.9983 20.6347 55.4145 21.951 55.8575C23.2094 56.2428 24.4321 56.7364 25.6052 57.3328C26.441 57.7884 27.1881 56.5121 26.3514 56.0559C25.0983 55.4168 23.7932 54.8856 22.4501 54.4678C21.1014 53.9961 19.7296 53.5933 18.34 53.2609C17.4139 53.048 17.0184 54.4731 17.9469 54.6869H17.9463Z" fill="#90898C"/>
</g>
</svg>
