<svg width="126" height="106" viewBox="0 0 126 106" fill="none" xmlns="http://www.w3.org/2000/svg">
<circle opacity="0.6" cx="63" cy="53" r="43" fill="#F2D5E1"/>
<path d="M104.18 55.3648C104.158 55.392 104.13 55.4139 104.099 55.429C104.068 55.444 104.034 55.4518 104 55.4518C103.966 55.4518 103.932 55.444 103.901 55.429C103.87 55.4139 103.842 55.392 103.82 55.3648C103.338 54.7676 102.631 54.3359 101.799 54.1008C101.236 53.9418 100.321 53.9739 99.8567 54.1803C99.0347 54.5458 98.3873 55.2276 98.1434 56.1996C97.9194 57.1776 97.9584 58.2003 98.2563 59.1569C98.5354 60.0291 98.9922 60.829 99.596 61.5025C100.6 62.6681 101.832 63.3882 103.167 63.8583C103.705 64.0472 104.287 64.0472 104.824 63.8583C106.162 63.3882 107.4 62.6681 108.404 61.5022C109.008 60.8286 109.465 60.0287 109.744 59.1566C110.042 58.2 110.081 57.1772 109.857 56.1992C109.613 55.2277 108.965 54.5457 108.143 54.18C107.679 53.9736 106.764 53.9415 106.201 54.1005C105.369 54.3359 104.662 54.7673 104.18 55.3648Z" fill="#F2D5E1"/>
<path d="M119.15 39.0918C119.132 39.1136 119.109 39.1312 119.083 39.1432C119.057 39.1552 119.029 39.1615 119 39.1615C118.971 39.1615 118.943 39.1552 118.917 39.1432C118.891 39.1312 118.868 39.1136 118.85 39.0918C118.448 38.6141 117.859 38.2687 117.166 38.0807C116.697 37.9535 115.934 37.9791 115.547 38.1443C114.862 38.4366 114.323 38.9821 114.12 39.7597C113.933 40.542 113.965 41.3603 114.214 42.1256C114.446 42.8233 114.827 43.4632 115.33 44.002C116.167 44.9345 117.193 45.5105 118.306 45.8867C118.754 46.0378 119.239 46.0378 119.687 45.8867C120.802 45.5106 121.833 44.9345 122.67 44.0017C123.173 43.4629 123.554 42.823 123.786 42.1253C124.035 41.36 124.067 40.5418 123.88 39.7594C123.677 38.9822 123.138 38.4365 122.453 38.144C122.066 37.9788 121.303 37.9532 120.834 38.0804C120.141 38.2687 119.552 38.6138 119.15 39.0918Z" fill="#F2D5E1"/>
<path d="M108.635 26.9554C108.618 26.9744 108.598 26.9898 108.574 27.0003C108.551 27.0108 108.526 27.0163 108.5 27.0163C108.474 27.0163 108.449 27.0108 108.426 27.0003C108.402 26.9898 108.382 26.9744 108.365 26.9554C108.003 26.5373 107.473 26.2351 106.849 26.0706C106.427 25.9593 105.741 25.9817 105.393 26.1262C104.776 26.382 104.29 26.8593 104.108 27.5397C103.94 28.2243 103.969 28.9402 104.192 29.6099C104.402 30.2203 104.744 30.7803 105.197 31.2518C105.95 32.0676 106.874 32.5717 107.876 32.9008C108.278 33.0331 108.715 33.0331 109.118 32.9008C110.122 32.5718 111.05 32.0676 111.803 31.2515C112.256 30.78 112.598 30.2201 112.808 29.6096C113.031 28.94 113.06 28.224 112.892 27.5395C112.71 26.8594 112.224 26.382 111.607 26.126C111.259 25.9815 110.573 25.959 110.151 26.0703C109.527 26.2351 108.997 26.5371 108.635 26.9554Z" fill="#F2D5E1"/>
<path d="M86.1983 97.3773C87.947 98.0059 89.9603 97.9806 91.0649 97.6196C94.0665 96.6379 95.987 93.5557 96.511 90.4413C97.0349 87.327 96.4185 84.1457 95.8037 81.0494C94.922 76.6064 93.9783 72.412 93.1648 69.6439C92.4556 66.8056 90.8564 62.0092 88.8123 59.8136C87.3233 58.199 85.5223 56.9033 83.5181 56.0047C81.4163 55.1443 77.7747 53.1793 77.4032 53.4173C74.1554 55.3125 67.8286 57.0048 63.0246 56.9858C57.9839 56.9733 52.6454 55.384 49.1019 53.5452C48.4323 53.4019 45.2717 55.0637 42.9728 56.0044C40.9686 56.903 39.1675 58.1987 37.6783 59.8132C35.6345 62.0101 34.0387 66.8053 33.3278 69.6435C32.5143 72.4116 31.5713 76.6061 30.6895 81.0491C30.0747 84.1467 29.459 87.3273 29.9836 90.4413C30.5082 93.5553 32.4284 96.6385 35.4299 97.6196C36.5343 97.9803 38.5476 98.0059 40.2966 97.3773L49.8472 94.201H76.6093L86.1983 97.3773Z" fill="#F2D5E1"/>
<path d="M42.7306 27.8067C42.4109 18.1265 44.9557 11.1066 48.9688 7.26336C51.3883 4.94678 56.8416 1.79079 62.9699 1.79079C66.0199 1.74324 69.047 2.32362 71.8631 3.49584L73.1111 4.00179L74.5987 4.87858C75.7841 5.577 76.2054 6.17573 77.4268 7.35255C80.49 10.3079 82.6191 15.6254 82.9581 20.3871C83.0565 21.7606 83.2808 25.3343 83.0643 27.8083C83.1732 35.9824 84.6802 40.5575 85.458 42.8095C86.0696 44.4482 86.3893 46.1813 86.4026 47.9303C86.4302 50.9899 82.6276 54.9518 78.2561 53.3838L47.0585 54.1324C43.0542 54.2288 40.4494 51.2827 40.4717 48.5664C40.5493 46.2788 40.874 44.0063 41.44 41.7885C42.1941 39.0997 42.7312 34.3669 42.7312 27.806" fill="#D0903A"/>
<path d="M55.0948 20.4154C56.287 19.294 57.4678 18.151 58.6065 17.0322C58.4147 18.6543 57.3933 22.0874 58.4754 21.7657C63.0298 20.4646 66.6964 17.8015 69.5835 14.0444C70.1498 16.2203 70.9489 18.9301 71.6515 20.2472C72.6834 22.1818 75.9663 26.5202 78.6114 27.156C78.8446 26.9276 79.1223 26.7498 79.4272 26.6335C79.7321 26.5172 80.0577 26.4651 80.3837 26.4802C80.7878 26.467 81.1879 26.5637 81.5413 26.76C81.8947 26.9563 82.1882 27.245 82.3904 27.595C83.0725 28.7774 83.0436 30.9566 82.5872 32.3049C82.2632 33.2594 81.732 34.7202 80.4519 35.7675C80.1702 36.0019 79.8429 36.1754 79.4907 36.277C79.1386 36.3786 78.7692 36.4061 78.4058 36.3577L78.2091 36.3249C78.0164 36.9766 77.7814 37.6149 77.5054 38.2359C76.9851 39.6478 74.1101 44.5997 70.4727 46.5317C70.5269 47.2298 70.6173 47.9203 70.739 48.6151C70.9292 49.7037 70.8702 50.6743 72.385 51.2219C72.4834 51.2579 76.7756 53.3007 76.9297 53.363L77.2645 53.4981C73.9786 55.3609 67.7607 57.0066 63.0243 56.9869C58.0953 56.9745 52.8818 55.455 49.3402 53.6686L49.5586 53.5958C49.8537 53.4975 54.641 51.2579 54.7393 51.2219C56.2542 50.6743 56.1886 49.7037 56.3854 48.6151C56.4939 47.9842 56.5792 47.4019 56.631 46.7937C54.8367 46.0113 53.2409 44.6902 51.726 42.8769C50.1332 40.9524 48.9511 38.7222 48.2526 36.3236C47.8656 36.4052 47.4652 36.3975 47.0816 36.3014C46.698 36.2052 46.3413 36.023 46.0386 35.7685C44.7598 34.7212 44.2273 33.2604 43.9034 32.3059C43.4443 30.9576 43.4168 28.7784 44.1001 27.596C44.3023 27.2459 44.5958 26.9573 44.9492 26.761C45.3027 26.5646 45.7028 26.4679 46.1068 26.4812C46.4246 26.467 46.742 26.5161 47.0407 26.6254C47.3394 26.7348 47.6135 26.9023 47.847 27.1183L49.6668 25.2296C51.4296 23.7869 53.2753 22.1264 55.0948 20.4154Z" fill="white"/>
<path d="M49.7681 54.3536C50.2272 54.1933 50.6676 53.9628 51.1073 53.7615C51.8199 53.4351 52.5313 53.1072 53.2415 52.7778C53.799 52.5191 54.3564 52.259 54.9164 52.002C54.9741 51.9754 55.0328 51.9502 55.0902 51.9226C55.1266 51.9049 55.2086 51.8672 55.0381 51.9436C54.8226 52.0403 55.0561 51.94 55.1122 51.9177C55.2263 51.8718 55.3417 51.8252 55.4519 51.7718C55.9655 51.5345 56.3922 51.1426 56.6723 50.651C56.898 50.1779 57.0399 49.6693 57.0917 49.1476C57.2127 48.3643 57.3474 47.5859 57.4196 46.796C57.4181 46.5877 57.3347 46.3884 57.1875 46.2411C57.0402 46.0939 56.8409 46.0105 56.6326 46.009C56.4252 46.0132 56.2275 46.0975 56.0808 46.2442C55.9341 46.3908 55.8499 46.5886 55.8457 46.796C55.7896 47.419 55.685 48.0318 55.5873 48.6492C55.548 49.0444 55.4653 49.434 55.3407 49.811C55.2945 49.9271 55.3912 49.7143 55.3309 49.8241C55.3073 49.8678 55.283 49.9108 55.2581 49.953C55.2492 49.9684 55.1597 50.092 55.2099 50.0277C55.2568 49.9687 55.1719 50.0661 55.1709 50.0671C55.0217 50.2163 54.8449 50.3352 54.6505 50.4173C54.4823 50.495 54.3065 50.5586 54.1373 50.6363C52.9487 51.1822 51.764 51.738 50.5754 52.284C50.2669 52.4256 49.9586 52.5673 49.6491 52.7063C49.5507 52.7506 49.4524 52.7938 49.354 52.8375C49.1448 52.9303 49.5219 52.7775 49.3504 52.8375C49.152 52.8974 48.9842 53.0314 48.8819 53.2116C48.7796 53.3919 48.7506 53.6046 48.8008 53.8057C48.858 54.0059 48.9914 54.1757 49.1724 54.2785C49.3535 54.3812 49.5676 54.4088 49.7688 54.3553L49.7681 54.3536Z" fill="#726A69"/>
<path d="M69.6999 46.7066C69.7655 47.4421 69.873 48.1713 69.9934 48.8999C70.0397 49.2957 70.1128 49.6879 70.2121 50.0738C70.3437 50.5342 70.5968 50.9508 70.9449 51.2798C71.1437 51.4613 71.3656 51.6157 71.605 51.7388C71.7568 51.8152 71.9148 51.8815 72.0732 51.9428C72.405 52.0713 71.904 51.8579 72.028 51.9198C73.0907 52.4504 74.1789 52.9347 75.2525 53.4426C75.7397 53.6721 76.2237 53.9144 76.7208 54.123C76.922 54.1772 77.1365 54.15 77.3178 54.0471C77.4991 53.9442 77.6325 53.774 77.6891 53.5734C77.7392 53.3723 77.71 53.1596 77.6077 52.9793C77.5053 52.7991 77.3376 52.6651 77.1392 52.6051C77.5409 52.7733 77.0736 52.5681 76.9795 52.5235C76.7495 52.4155 76.52 52.3073 76.2909 52.1989C75.6694 51.9053 75.0484 51.6114 74.4278 51.3172C73.9475 51.0896 73.4674 50.8614 72.9851 50.6368C72.8211 50.56 72.6513 50.4974 72.487 50.4227C72.3874 50.3763 72.2905 50.3243 72.1968 50.2669C72.1857 50.2603 72.0388 50.1603 72.1021 50.2076C72.1542 50.2469 72.0548 50.1666 72.0568 50.1682C72.0325 50.1466 71.8427 49.9357 71.9329 50.0544C71.8721 49.97 71.8187 49.8806 71.7732 49.7872C71.7322 49.7072 71.7797 49.8069 71.7843 49.82C71.7597 49.756 71.7381 49.6908 71.7187 49.6252C71.6925 49.536 71.6709 49.4455 71.6532 49.3547C71.6082 49.1412 71.5794 48.9245 71.5466 48.7087C71.4459 48.0418 71.3351 47.3814 71.2741 46.7086C71.2689 46.5015 71.1843 46.3044 71.0378 46.1579C70.8914 46.0115 70.6942 45.9269 70.4872 45.9216C70.2789 45.9232 70.0797 46.0066 69.9324 46.1538C69.7852 46.3011 69.7018 46.5003 69.7002 46.7086L69.6999 46.7066Z" fill="#726A69"/>
<path d="M72.0719 2.7359C68.9121 1.4537 65.5124 0.869819 62.1058 1.02428C58.6526 1.2253 55.2919 2.21809 52.2837 3.92583C50.0372 5.13583 48.0805 6.81964 46.5492 8.86066C44.9726 11.0916 43.8169 13.5919 43.1391 16.2383C42.1127 19.9914 41.8196 23.9298 41.9426 27.8074C41.9754 28.8177 43.5493 28.8223 43.5165 27.8074C43.3299 21.9253 44.0539 15.5648 47.3171 10.5126C48.5481 8.62696 50.1826 7.0383 52.1024 5.8614C54.7838 4.15392 57.8138 3.06921 60.9697 2.68704C64.6051 2.3214 68.2746 2.85923 71.6522 4.25274C71.8534 4.30682 72.0678 4.27946 72.2489 4.1766C72.4301 4.07375 72.5635 3.90366 72.6201 3.70319C72.6704 3.5024 72.6415 3.28999 72.5394 3.10993C72.4374 2.92987 72.27 2.79595 72.0719 2.7359Z" fill="#B47119"/>
<path d="M83.8509 27.8065C83.9707 26.0726 83.9786 24.3328 83.8745 22.5979C83.8307 21.0573 83.6872 19.5212 83.4449 17.9991C82.8121 14.4133 81.3726 10.8432 79.0767 7.99604C78.4566 7.27217 77.7999 6.5804 77.1093 5.92341C76.481 5.26093 75.7711 4.68084 74.9967 4.19704C74.1255 3.67569 73.3333 5.0358 74.2025 5.55617C74.8144 5.93565 75.3757 6.39124 75.8728 6.91202C76.4604 7.50223 77.0759 8.07211 77.6235 8.70101C78.6962 9.9756 79.5796 11.3981 80.2466 12.9246C80.9628 14.5175 81.4946 16.1871 81.8317 17.9008C82.0849 19.3034 82.2343 20.7228 82.2786 22.1474C82.4058 24.0314 82.4058 25.9218 82.2786 27.8058C82.2802 28.0141 82.3637 28.2133 82.5109 28.3605C82.6581 28.5077 82.8573 28.5912 83.0655 28.5928C83.2729 28.5886 83.4707 28.5043 83.6174 28.3577C83.764 28.211 83.8483 28.0132 83.8525 27.8058L83.8509 27.8065Z" fill="#B47119"/>
<path d="M41.9442 27.8062C41.9413 32.0715 41.8547 36.4705 40.9159 40.642C40.729 41.4719 40.4877 42.2861 40.3221 43.1212C40.0926 44.2827 39.9218 45.4585 39.8037 46.6366C39.6646 47.5982 39.6547 48.574 39.7742 49.5382C39.9346 50.4202 40.2969 51.2531 40.8327 51.9718C41.5587 52.9253 42.5031 53.6906 43.5865 54.2032C44.6698 54.7158 45.8604 54.9608 47.0581 54.9176C48.0696 54.9016 48.0729 53.3277 47.0581 53.3437C45.216 53.3729 43.3804 52.6928 42.221 51.2163C41.7473 50.6206 41.4304 49.9157 41.2993 49.166C41.1681 48.4446 41.2993 47.3954 41.3839 46.5756C41.4924 45.5175 41.6527 44.4637 41.8639 43.4213C42.0249 42.6268 42.2574 41.852 42.4334 41.0621C42.7923 39.3785 43.0426 37.6737 43.1827 35.958C43.4342 33.2496 43.5162 30.5271 43.5181 27.8079C43.5181 26.7953 41.9442 26.7937 41.9442 27.8079V27.8062Z" fill="#B47119"/>
<path d="M82.277 27.8064C82.3396 32.1471 82.7774 36.5284 83.967 40.7166C84.3955 42.225 85.0008 43.6861 85.331 45.2203C85.4654 45.8459 85.5514 46.4809 85.5884 47.1198C85.6058 47.4168 85.6212 47.7159 85.615 48.0136C85.6161 48.1914 85.5989 48.3689 85.5635 48.5432C85.3877 49.3788 85.0109 50.159 84.4657 50.8161C83.7962 51.6532 82.9103 52.291 81.9042 52.6606C80.7874 53.0428 79.5731 53.0296 78.4649 52.6232C77.5061 52.29 77.094 53.8098 78.0465 54.1407C79.1659 54.5182 80.3644 54.5974 81.5238 54.3707C82.6832 54.1439 83.7635 53.6189 84.6582 52.8475C85.4597 52.1861 86.1109 51.3615 86.5685 50.4286C87.0307 49.466 87.2389 48.4013 87.1735 47.3355C87.1035 45.9197 86.8459 44.5194 86.4075 43.1713C86.2045 42.5355 85.9763 41.9085 85.7766 41.2718C85.2861 39.6998 84.8968 38.098 84.611 36.4763C84.1246 33.6119 83.8709 30.7128 83.8522 27.8074C83.8375 26.7955 82.2636 26.7925 82.2783 27.8074L82.277 27.8064Z" fill="#B47119"/>
<path d="M32.569 69.4349C31.928 71.6268 31.4122 73.8533 30.9223 76.082C30.3321 78.7707 29.7288 81.4729 29.3219 84.1951C28.9313 86.8074 28.773 89.5444 29.5704 92.1003C30.1834 94.2075 31.4643 96.0585 33.2202 97.3748C35.3305 98.8874 38.1032 98.9733 40.5044 98.1365C40.7029 98.0767 40.8707 97.9427 40.973 97.7624C41.0754 97.5821 41.1043 97.3694 41.054 97.1683C40.9968 96.9681 40.8633 96.7984 40.6823 96.6957C40.5013 96.5929 40.2872 96.5653 40.086 96.6187C38.2003 97.2745 36.0778 97.3355 34.3508 96.2429C32.753 95.2324 31.6702 93.5139 31.1046 91.739C30.3833 89.4719 30.4839 87.0173 30.8262 84.6922C31.2092 82.0913 31.784 79.5098 32.3421 76.9424C32.8589 74.5654 33.4019 72.1879 34.0852 69.8533C34.3701 68.8791 32.852 68.4633 32.5677 69.4349H32.569Z" fill="#DAA1B8"/>
<path d="M92.4067 69.8532C93.0061 71.9009 93.4936 73.9817 93.9566 76.0638C94.5236 78.6139 95.0761 81.176 95.5154 83.7513C96.2224 87.8966 96.2945 93.0183 92.6427 95.8933C90.8436 97.3098 88.5093 97.3515 86.4075 96.6186C86.3078 96.5911 86.2037 96.5836 86.1011 96.5963C85.9986 96.6091 85.8995 96.6419 85.8096 96.693C85.7197 96.744 85.6407 96.8123 85.5772 96.8938C85.5137 96.9754 85.4668 97.0687 85.4394 97.1683C85.4119 97.268 85.4043 97.3721 85.4171 97.4747C85.4298 97.5773 85.4627 97.6763 85.5137 97.7662C85.5648 97.8561 85.633 97.9351 85.7146 97.9986C85.7962 98.0621 85.8894 98.109 85.9891 98.1364C88.1329 98.8837 90.6272 98.9132 92.6378 97.7803C94.5311 96.714 95.8512 94.8795 96.6421 92.8921C97.593 90.5093 97.6281 87.8615 97.3271 85.3462C96.9929 82.5552 96.3696 79.7913 95.7801 77.0452C95.2321 74.4935 94.6577 71.9405 93.9245 69.4348C93.6405 68.4645 92.1211 68.8773 92.4067 69.8532Z" fill="#DAA1B8"/>
<path d="M34.0866 69.8529C34.6425 67.5248 35.4449 65.2626 36.4802 63.1045C36.9516 62.0746 37.5738 61.1207 38.3263 60.2741C39.2576 59.2815 40.3138 58.414 41.4685 57.6933C42.6552 57.0201 43.8839 56.4239 45.1472 55.9085C46.1964 55.4337 47.2332 54.9157 48.3163 54.5238C48.491 54.4605 48.6674 54.3999 48.8478 54.3543C48.8873 54.3472 48.9263 54.338 48.9648 54.3268C49.0757 54.2858 48.9609 54.3858 48.9091 54.3294C48.9383 54.3293 48.9674 54.3274 48.9963 54.3235C49.1344 54.3409 48.8075 54.274 48.8084 54.2776C48.8225 54.3353 49.1724 54.4602 49.2288 54.4881C49.3735 54.5585 49.5188 54.6277 49.6646 54.6956C49.9665 54.836 50.271 54.971 50.5781 55.1006C51.911 55.6672 53.2787 56.1482 54.6729 56.5407C57.6199 57.4033 60.6804 57.8154 63.7506 57.7631C66.5315 57.652 69.2884 57.202 71.9602 56.423C73.2181 56.0723 74.4531 55.6441 75.6582 55.1409C76.1828 54.9199 76.7025 54.6861 77.2078 54.4232C77.3241 54.3628 77.4396 54.3009 77.5544 54.2372C77.6596 54.1789 77.9807 54.0621 77.6495 54.1618C77.6734 54.1546 77.4252 54.1881 77.5042 54.1844C77.6101 54.1802 77.479 54.1867 77.4832 54.1789C77.4629 54.2156 77.3688 54.1415 77.4786 54.1838C77.5157 54.1979 77.5583 54.2041 77.5967 54.2149C78.4441 54.5025 79.2666 54.8589 80.0559 55.2806C81.1052 55.7777 82.1669 56.2482 83.2244 56.7289C85.4921 57.7598 87.7546 59.3819 89.115 61.5041C90.4495 63.5855 91.2991 65.9841 91.9923 68.344C92.1392 68.8443 92.2763 69.3471 92.4038 69.8523C92.6504 70.834 94.1689 70.4179 93.9213 69.4339C93.3268 66.975 92.4715 64.5866 91.3699 62.3094C90.8516 61.2018 90.1781 60.1738 89.3698 59.2563C88.3991 58.2097 87.3017 57.2882 86.1029 56.5132C84.9568 55.8263 83.7623 55.2236 82.5289 54.7097C81.4662 54.2179 80.4169 53.6959 79.3457 53.2227C78.6876 52.9319 77.7337 52.3702 77.0071 52.7355C75.9963 53.2695 74.9543 53.7424 73.8869 54.1517C71.2465 55.1145 68.4989 55.7531 65.7046 56.0535C62.7114 56.3432 59.691 56.1383 56.7645 55.4468C55.2816 55.1101 53.823 54.6746 52.3982 54.1431C51.7608 53.9048 51.1322 53.646 50.5145 53.3604C50.0305 53.1368 49.4803 52.7191 48.9317 52.7519C47.9376 52.8116 46.9273 53.3844 46.039 53.7821C44.8006 54.3369 43.5438 54.8642 42.3164 55.4436C39.8608 56.5997 37.4964 58.4035 36.0172 60.7079C34.623 62.8812 33.7243 65.4077 32.9967 67.8718C32.8436 68.3892 32.7016 68.9096 32.5704 69.4329C32.3232 70.4166 33.8407 70.8347 34.0879 69.8513L34.0866 69.8529Z" fill="#DAA1B8"/>
<path d="M48.4025 26.5608C47.8996 26.1123 47.275 25.823 46.6076 25.7296C45.9403 25.6363 45.2603 25.7429 44.6536 26.0362C44.2228 26.2688 43.8493 26.5947 43.5604 26.99C43.2715 27.3854 43.0745 27.8401 42.9836 28.3213C42.7368 29.4684 42.7271 30.6538 42.955 31.8048C43.1829 32.9558 43.6437 34.0481 44.309 35.0146C45.2471 36.3757 46.5764 37.3525 48.2942 37.1181C48.4948 37.0614 48.6649 36.928 48.7678 36.7467C48.8707 36.5655 48.898 36.351 48.8438 36.1498C48.7836 35.9516 48.6496 35.7841 48.4695 35.6818C48.2894 35.5796 48.0769 35.5504 47.8759 35.6002C46.6984 35.7609 45.7757 34.4969 45.2924 33.6053C44.7896 32.7063 44.4795 31.7125 44.3818 30.687C44.328 30.1118 44.3516 29.5319 44.452 28.963C44.4938 28.7234 44.5578 28.4883 44.6431 28.2606C44.6893 28.1515 44.7441 28.0462 44.8071 27.9458C44.8189 27.9268 44.9418 27.7491 44.8881 27.8189C45.135 27.5327 45.4768 27.345 45.8508 27.29C46.1042 27.2416 46.3653 27.2511 46.6146 27.3176C46.8639 27.3841 47.0949 27.5061 47.2906 27.6743C48.0401 28.3524 49.1566 27.2425 48.4034 26.5615L48.4025 26.5608Z" fill="#726A69"/>
<path d="M79.2007 27.6737C79.5474 27.3816 79.9942 27.2361 80.4464 27.2679C80.8986 27.2996 81.3207 27.5062 81.6232 27.8438C81.5166 27.7127 81.6668 27.917 81.6839 27.9452C81.7467 28.0456 81.8015 28.1509 81.8478 28.2599C81.9265 28.4695 81.9866 28.6855 82.0275 28.9056C82.1376 29.4925 82.1651 30.0919 82.1091 30.6864C82.0131 31.6921 81.7125 32.6675 81.2258 33.5528C80.7435 34.4601 79.8116 35.7625 78.6151 35.5992C78.4141 35.5508 78.2023 35.5807 78.0225 35.6828C77.8428 35.7848 77.7086 35.9514 77.6471 36.1488C77.5932 36.35 77.6205 36.5644 77.7234 36.7456C77.8262 36.9268 77.9962 37.0602 78.1967 37.1171C80.9963 37.499 82.6233 34.771 83.362 32.4652C83.723 31.2694 83.8035 30.0064 83.5971 28.7744C83.5455 28.2746 83.392 27.7906 83.1462 27.3523C82.9004 26.914 82.5674 26.5307 82.1678 26.226C81.5452 25.827 80.8087 25.6437 80.0716 25.7042C79.3346 25.7647 78.6378 26.0656 78.0885 26.5608C77.3343 27.2415 78.4515 28.3521 79.2014 27.6737H79.2007Z" fill="#726A69"/>
<path d="M77.7415 34.9853C77.5999 35.6443 77.4137 36.293 77.1841 36.9268C77.1061 37.1481 76.9815 37.4842 76.9192 37.6311C76.8631 37.7639 76.8005 37.8934 76.746 38.0265C76.7332 38.0593 76.6582 38.2495 76.7106 38.1223C76.7631 37.995 76.688 38.1728 76.6742 38.2023C76.6444 38.2678 76.6149 38.3318 76.5841 38.3961C76.508 38.5548 76.4286 38.7117 76.346 38.8669C76.1493 39.2394 75.9384 39.6047 75.7181 39.9641C74.6249 41.8098 73.2308 43.4597 71.5935 44.8458C70.7115 45.5984 69.6681 46.1378 68.5441 46.4223C67.5577 46.6518 67.9752 48.168 68.9624 47.9401C71.3046 47.3991 73.2536 45.6871 74.7816 43.909C76.0849 42.4387 77.1758 40.793 78.0225 39.02C78.1032 38.842 78.1743 38.6594 78.2521 38.48C78.1478 38.7269 78.3868 38.1724 78.3934 38.1567C78.4517 38.0155 78.508 37.8734 78.5622 37.7304C78.8563 36.9742 79.0895 36.1957 79.2597 35.4024C79.3101 35.2013 79.2812 34.9885 79.1789 34.8082C79.0765 34.6278 78.9087 34.4939 78.7101 34.4341C78.5089 34.3807 78.2948 34.4083 78.1137 34.5112C77.9327 34.614 77.7993 34.7838 77.7422 34.984L77.7415 34.9853Z" fill="#726A69"/>
<path d="M47.1875 35.3492C47.6976 37.6191 48.6134 39.7782 49.8907 41.7228C51.2803 43.8213 53.1109 45.7838 55.3246 47.0219C56.4629 47.6609 57.708 48.0874 58.999 48.2807C59.2 48.3294 59.412 48.2996 59.5918 48.1975C59.7717 48.0953 59.9058 47.9284 59.9669 47.7308C60.0208 47.5296 59.9934 47.3153 59.8906 47.1342C59.7877 46.9531 59.6177 46.8197 59.4174 46.7629C54.8495 46.0877 51.4318 42.1264 49.7038 38.0641C49.278 37.0521 48.9439 36.0038 48.7053 34.9321C48.4814 33.9445 46.9636 34.3625 47.1875 35.3505V35.3492Z" fill="#726A69"/>
<path d="M60.3854 40.1252C61.3185 40.6078 62.3579 40.8485 63.4083 40.8252C64.4969 40.8714 65.5701 40.5548 66.4593 39.9251C66.6059 39.777 66.6881 39.5771 66.6881 39.3687C66.6881 39.1603 66.6059 38.9604 66.4593 38.8123C66.3093 38.6693 66.1101 38.5896 65.9029 38.5896C65.6957 38.5896 65.4965 38.6693 65.3465 38.8123C65.5852 38.626 65.4002 38.7683 65.3389 38.8077C65.2776 38.847 65.2156 38.8824 65.152 38.9159C65.1192 38.9329 65.0864 38.9487 65.0517 38.9657C64.9241 39.0313 65.0845 38.9516 65.0845 38.9552C65.0014 38.9938 64.9152 39.0251 64.8267 39.0487C64.5912 39.1229 64.3499 39.1777 64.1054 39.2126C64.2218 39.1952 64.0847 39.2126 64.0372 39.2185C63.9663 39.2253 63.8955 39.2311 63.8247 39.2359C63.6539 39.247 63.483 39.2513 63.3119 39.2503C63.1587 39.2503 63.0056 39.2441 62.8528 39.2336C62.7826 39.229 62.7125 39.2234 62.6426 39.2162C62.6344 39.2162 62.3803 39.1798 62.5416 39.2054C62.314 39.1705 62.0888 39.1204 61.8678 39.0556C61.7734 39.0274 61.6812 38.9936 61.5881 38.9618C61.3871 38.8929 61.7042 39.0218 61.5225 38.9362C61.4068 38.8818 61.293 38.825 61.1799 38.7654C60.9987 38.6644 60.7855 38.6374 60.5849 38.6901C60.3843 38.7427 60.2117 38.8708 60.1034 39.0477C60.0003 39.2284 59.9721 39.4423 60.0249 39.6435C60.0776 39.8448 60.2072 40.0173 60.3857 40.1242L60.3854 40.1252Z" fill="#726A69"/>
<path d="M63.0075 33.0046C63.1467 33.5071 63.2581 34.0168 63.3413 34.5316L63.3131 34.3224C63.323 34.3922 63.3249 34.4629 63.3187 34.5332L63.3469 34.324C63.3423 34.3563 63.3345 34.388 63.3236 34.4188L63.403 34.2309C63.394 34.2522 63.383 34.2726 63.3702 34.2919L63.4935 34.1325C63.4786 34.1507 63.4618 34.1672 63.4433 34.1817L63.6027 34.0587C63.5638 34.0833 63.5234 34.1052 63.4817 34.1243L63.6699 34.045C63.6046 34.073 63.5361 34.0929 63.4659 34.1043L63.6751 34.0764C63.6115 34.0838 63.5473 34.0838 63.4837 34.0764L63.6928 34.1043C63.6207 34.0945 63.5499 34.0768 63.4778 34.0673C63.3763 34.0345 63.2679 34.0296 63.164 34.0532C63.0598 34.0576 62.9588 34.0898 62.8715 34.1466C62.6913 34.2519 62.5603 34.4245 62.5074 34.6264C62.4544 34.8283 62.4838 35.0429 62.5892 35.2231C62.6391 35.3118 62.7065 35.3896 62.7873 35.4516C62.8682 35.5135 62.9607 35.5585 63.0594 35.5838C63.2233 35.6061 63.3836 35.6494 63.5512 35.6553C63.8032 35.6566 64.0518 35.5975 64.2762 35.4828C64.4182 35.4183 64.5441 35.3228 64.6445 35.2034C64.7449 35.084 64.8174 34.9436 64.8565 34.7926C64.9078 34.5472 64.9053 34.2935 64.849 34.0492C64.7661 33.5574 64.6523 33.0698 64.5257 32.5871C64.4702 32.3859 64.3371 32.215 64.1555 32.1119C63.974 32.0088 63.759 31.9821 63.5578 32.0376C63.3565 32.0931 63.1856 32.2262 63.0825 32.4077C62.9794 32.5893 62.9527 32.8043 63.0082 33.0055L63.0075 33.0046Z" fill="#726A69"/>
<path d="M54.9364 28.6792C54.6813 29.5078 54.8476 31.4142 56.4175 31.5765C58.4924 31.564 58.6029 29.2593 57.9042 28.1756C57.3333 27.2883 55.6519 26.9194 54.9364 28.6792Z" fill="#726A69"/>
<path d="M71.5535 28.6792C71.8086 29.5078 71.6423 31.4142 70.0724 31.5765C67.9974 31.5637 67.8869 29.2593 68.5854 28.1756C69.1572 27.2883 70.8393 26.9194 71.5535 28.6792Z" fill="#726A69"/>
<path d="M68.8739 14.4417C69.2146 15.7313 69.5776 17.017 70.0081 18.2801C70.3199 19.2696 70.7353 20.2235 71.2472 21.1259C72.3305 22.9486 73.6806 24.5989 75.2528 26.0217C76.0967 26.8347 77.1022 27.4611 78.2038 27.8605C79.1714 28.1681 79.5856 26.6473 78.6222 26.343C76.9172 25.801 75.4187 24.095 74.2786 22.6978C73.1378 21.3541 72.2417 19.8207 71.6308 18.1673C71.1511 16.8072 70.7583 15.4166 70.3901 14.023C70.1317 13.0446 68.6132 13.4597 68.8726 14.4414L68.8739 14.4417Z" fill="#B47119"/>
<path d="M69.014 13.5065C67.3776 15.6716 65.3528 17.5134 63.043 18.9381C61.9055 19.6246 60.7005 20.1923 59.447 20.6324C59.1409 20.7395 58.8317 20.8397 58.5193 20.933C58.4331 20.9488 58.3487 20.9734 58.2675 21.0065C58.1741 21.0672 58.2911 20.9931 58.3419 20.9996C58.506 21.0217 58.6569 21.101 58.7682 21.2236C58.8666 21.3308 58.7456 21.3039 58.7738 21.1803C58.7895 21.1117 58.7817 21.2236 58.7833 21.2426C58.78 21.1996 58.7757 21.155 58.7761 21.1114C58.7767 20.8882 58.7889 20.6651 58.8125 20.4432C58.9249 19.4001 59.2548 18.162 59.3948 17.0331C59.483 16.3228 58.4954 16.0408 58.0504 16.4756C55.165 19.307 52.2378 22.1076 49.1107 24.673C48.9645 24.8213 48.8825 25.0212 48.8825 25.2295C48.8825 25.4377 48.9645 25.6376 49.1107 25.7859C49.2605 25.9293 49.4598 26.0093 49.6671 26.0093C49.8745 26.0093 50.0738 25.9293 50.2236 25.7859C53.3507 23.2218 56.2795 20.4215 59.1633 17.5885L57.8189 17.0311C57.7993 17.1911 57.8088 17.0839 57.816 17.0537C57.7996 17.1213 57.7947 17.1937 57.7832 17.2623C57.7612 17.3967 57.7373 17.5308 57.7127 17.6646C57.6589 17.9571 57.6012 18.2486 57.5452 18.5404C57.4261 19.1568 57.3124 19.7746 57.2409 20.3986C57.1343 21.3314 57.291 22.8093 58.6148 22.5388C59.3107 22.3705 59.9909 22.1425 60.6477 21.8574C61.3806 21.57 62.0977 21.2439 62.7961 20.8806C64.1312 20.1743 65.3883 19.3293 66.5465 18.3597C67.8728 17.2473 69.0729 15.9927 70.1255 14.6184C70.267 14.4677 70.3457 14.2687 70.3457 14.062C70.3457 13.8553 70.267 13.6563 70.1255 13.5056C69.9773 13.3592 69.7774 13.2771 69.5691 13.2771C69.3608 13.2771 69.1609 13.3592 69.0126 13.5056L69.014 13.5065Z" fill="#B47119"/>
<path d="M63.9315 69.307C63.8477 69.4072 63.743 69.4878 63.6246 69.5431C63.5063 69.5984 63.3772 69.6271 63.2466 69.6271C63.1159 69.6271 62.9869 69.5984 62.8685 69.5431C62.7502 69.4878 62.6454 69.4072 62.5616 69.307C60.7254 67.1101 58.0337 65.5217 54.8675 64.6571C52.7257 64.0721 49.2408 64.1901 47.4745 64.9495C44.345 66.2939 41.8806 68.8023 40.9523 72.378C40.0995 75.9758 40.2481 79.7384 41.3822 83.2576C42.4444 86.466 44.1836 89.4087 46.4819 91.8865C50.3039 96.1744 54.9921 98.8235 60.0774 100.553C62.1223 101.248 64.3394 101.248 66.3842 100.553C71.478 98.8238 76.1883 96.1744 80.0112 91.8852C82.3096 89.4074 84.0487 86.4647 85.111 83.2563C86.2451 79.7371 86.3938 75.9744 85.5408 72.3767C84.6126 68.8027 82.1481 66.2936 79.019 64.9482C77.2523 64.1888 73.7674 64.0708 71.6256 64.6558C68.4594 65.5217 65.7684 67.1087 63.9315 69.307Z" fill="#E5005A"/>
<path d="M63.3751 68.7505C63.1456 68.9954 62.9466 68.5452 62.7583 68.34C62.3994 67.9489 62.0161 67.5809 61.6107 67.2382C58.9591 65.0165 55.6616 63.709 52.208 63.51C50.1157 63.4386 48.048 63.7166 46.1809 64.6977C44.2869 65.6827 42.69 67.1552 41.555 68.9633C40.35 70.911 39.8443 73.1699 39.6751 75.4317C39.4819 77.9171 39.7335 80.4171 40.4182 82.8142C41.7625 87.413 44.5824 91.4677 48.1257 94.6513C49.916 96.2557 51.89 97.6425 54.0065 98.7828C55.0508 99.3467 56.1253 99.8481 57.2199 100.307C58.3117 100.795 59.4376 101.202 60.5887 101.526C61.8971 101.862 63.2577 101.943 64.5968 101.766C65.8378 101.565 67.0503 101.217 68.2086 100.728C70.4345 99.8853 72.5685 98.8176 74.5773 97.5413C78.5419 94.9838 82.0593 91.4317 84.2693 87.2385C86.5626 82.8877 87.461 77.866 86.4944 73.0151C86.0821 70.8404 85.075 68.8225 83.5849 67.1858C82.2038 65.659 80.4358 64.5339 78.4678 63.9294C74.1632 62.7438 69.3284 63.9327 65.7783 66.5375C64.8932 67.1775 64.0873 67.9204 63.3774 68.7505C63.2348 68.9007 63.1554 69.0998 63.1554 69.3069C63.1554 69.514 63.2348 69.7132 63.3774 69.8634C63.5258 70.0093 63.7257 70.0911 63.9338 70.0911C64.142 70.0911 64.3419 70.0093 64.4903 69.8634C65.8618 68.3002 67.5633 67.061 69.4719 66.2353C71.3804 65.4096 73.4486 65.0179 75.5269 65.0885C76.4626 65.1102 77.3915 65.2542 78.2898 65.5171C79.1544 65.8159 79.9709 66.2389 80.7139 66.7726C82.3066 67.8573 83.554 69.377 84.3073 71.1507C85.1461 73.1508 85.3543 75.4169 85.2956 77.5653C85.2261 79.8958 84.7451 82.1956 83.8748 84.3586C82.2353 88.4937 79.2472 92.092 75.7479 94.8001C73.9899 96.144 72.0912 97.2931 70.0852 98.2273C69.093 98.6962 68.0784 99.1126 67.0472 99.4887C65.9245 99.9422 64.7358 100.211 63.5273 100.285C61.1946 100.355 58.9485 99.3995 56.8615 98.4486C54.8118 97.5242 52.8672 96.3826 51.061 95.0434C47.5404 92.4121 44.5231 88.8574 42.798 84.7954C41.8779 82.6589 41.3431 80.3764 41.2186 78.0535C41.11 75.8829 41.2812 73.625 42.0265 71.5687C42.691 69.7638 43.8647 68.1902 45.4055 67.0389C46.1555 66.468 46.977 65.9977 47.8489 65.6397C48.6938 65.3336 49.58 65.1567 50.4777 65.1151C51.4813 65.0356 52.4905 65.0575 53.4897 65.1807C54.5136 65.3381 55.5152 65.6165 56.4736 66.0099C58.4583 66.7522 60.2431 67.946 61.6871 69.4968C62.0688 69.9171 62.3947 70.2955 62.9911 70.3863C63.2646 70.4279 63.5441 70.4018 63.8052 70.3104C64.0662 70.2189 64.3009 70.0649 64.4886 69.8617C65.1828 69.1269 64.0719 68.0121 63.3751 68.7505Z" fill="#D20754"/>
<path d="M83.2102 86.0384C82.3461 85.2773 80.9906 84.1395 79.8614 82.985C79.5472 82.6634 79.4898 81.8512 79.8709 81.297C80.2279 80.7776 81.1054 80.7675 81.4615 80.9167C83.2743 81.7321 84.9199 82.8773 86.3143 84.294C88.7775 86.9968 86.9327 90.8778 84.6804 93.9249C83.5174 95.4988 81.7723 97.4488 80.2329 97.5856C79.4644 97.6594 78.6928 97.4828 78.033 97.082C77.3732 96.6812 76.8608 96.0778 76.5722 95.3618L76.627 94.5292C75.6289 93.4006 74.3494 91.8802 73.9992 91.1316C73.9158 90.8869 73.8917 90.6258 73.9289 90.37C73.9662 90.1141 74.0636 89.8708 74.2134 89.66C74.6229 89.1354 75.2036 89.1842 75.6584 89.239C75.2557 88.8901 74.8613 88.5212 74.478 88.1241C74.32 87.9339 74.2065 87.7107 74.1458 87.471C74.0851 87.2312 74.0787 86.981 74.1271 86.7384C74.2344 86.3838 74.4554 86.0743 74.756 85.8577C74.9914 85.7101 75.2568 85.6168 75.5328 85.5846C75.8088 85.5524 76.0885 85.5822 76.3516 85.6718L76.2991 85.6311C75.7286 85.1885 75.2518 84.6445 75.2439 83.9225C75.2433 83.7155 75.2869 83.5107 75.3718 83.3218C75.4566 83.133 75.5808 82.9644 75.7359 82.8274C75.8911 82.6904 76.0737 82.588 76.2716 82.5271C76.4695 82.4663 76.678 82.4483 76.8834 82.4745C77.7359 82.5729 78.5885 83.1683 79.2829 83.6703C80.2289 84.353 82.2917 85.6102 83.5938 86.4492L83.2102 86.0384Z" fill="white"/>
<path d="M86.8715 83.7374C86.105 82.979 85.2765 82.2861 84.3946 81.6658C83.9374 81.3423 83.4623 81.045 82.9715 80.7752C82.5164 80.4928 82.0274 80.2692 81.516 80.1099C81.0156 79.9682 80.4807 80.015 80.0126 80.2415C79.5444 80.4679 79.1756 80.8583 78.9761 81.3385C78.7852 81.8356 78.7673 82.3826 78.9253 82.8911C79.1073 83.4387 79.5663 83.8092 79.971 84.1968C80.8392 85.0257 81.7537 85.8035 82.6548 86.5947C82.8047 86.7378 83.004 86.8177 83.2112 86.8177C83.4185 86.8177 83.6178 86.7378 83.7677 86.5947C83.9135 86.4462 83.9952 86.2464 83.9952 86.0382C83.9952 85.8301 83.9135 85.6303 83.7677 85.4818C83.1151 84.908 82.4561 84.3437 81.8111 83.7594C81.4504 83.4315 81.0943 83.0993 80.7471 82.7576C80.6641 82.676 80.5831 82.5914 80.5002 82.5107C80.5002 82.5107 80.3608 82.3812 80.4392 82.4557C80.5002 82.5137 80.4248 82.4461 80.4238 82.4229C80.4297 82.5383 80.4094 82.3648 80.3995 82.3192C80.4189 82.4078 80.393 82.1855 80.3946 82.1389C80.4073 82.0285 80.4351 81.9204 80.4772 81.8176C80.4985 81.7747 80.5234 81.7336 80.5517 81.6949C80.5313 81.7218 80.5008 81.7461 80.5562 81.7087C80.6372 81.6539 80.5562 81.7123 80.5507 81.7156C80.5913 81.6966 80.6513 81.6677 80.5733 81.694C80.6598 81.6637 80.7485 81.6399 80.8386 81.6228C80.933 81.6057 80.8366 81.6254 80.8215 81.6261C80.8589 81.6241 80.8966 81.6208 80.9343 81.6218C80.972 81.6228 81.1665 81.6339 81.0753 81.6218C80.9842 81.6097 81.1707 81.6474 81.2065 81.6582C81.1081 81.6287 81.3396 81.7162 81.3734 81.7317C81.4757 81.7782 81.5772 81.8262 81.678 81.8756C81.8966 81.9832 82.1122 82.0968 82.3249 82.2166C82.7318 82.4461 83.127 82.6953 83.5106 82.9613C84.3137 83.5247 85.0663 84.1569 85.76 84.8506C86.4813 85.5638 87.5942 84.4516 86.8728 83.7377L86.8715 83.7374Z" fill="#726A69"/>
<path d="M83.9919 85.7713C82.9522 85.0938 81.8914 84.4499 80.8487 83.777C79.7994 83.0999 78.8079 82.2192 77.6025 81.8316C76.2909 81.4093 74.7564 82.0421 74.4983 83.495C74.2141 85.0955 75.5355 86.0293 76.6415 86.8874L81.1412 90.3795C81.2919 90.521 81.4909 90.5998 81.6976 90.5998C81.9044 90.5998 82.1033 90.521 82.2541 90.3795C82.4004 90.2313 82.4825 90.0314 82.4825 89.8231C82.4825 89.6148 82.4004 89.4148 82.2541 89.2666L78.8472 86.6225L77.175 85.3257C76.7782 85.0178 76.2785 84.6977 76.0837 84.2108C76.019 84.0631 76.0076 83.8975 76.0515 83.7424C76.0954 83.5872 76.1919 83.4522 76.3244 83.3603C76.6805 83.1307 77.1504 83.3094 77.4976 83.474C78.4256 83.9134 79.2407 84.6125 80.1027 85.1676C81.1294 85.8283 82.1731 86.4625 83.1958 87.1294C84.0467 87.6842 84.8353 86.3218 83.9903 85.7703L83.9919 85.7713Z" fill="#726A69"/>
<path d="M76.2733 84.8565C75.1584 84.7014 74.0764 85.0444 73.5367 86.1054C73.2836 86.6214 73.2378 87.2146 73.4088 87.7633C73.5997 88.2967 73.9318 88.7683 74.3699 89.1276C76.0323 90.7222 77.9711 91.978 79.8936 93.2303C80.7461 93.7847 81.5331 92.4223 80.6881 91.8712C79.163 90.932 77.7009 89.8943 76.311 88.7647C75.9643 88.468 75.6281 88.1596 75.3024 87.8393C75.066 87.6065 74.9171 87.4951 74.8827 87.1449C74.869 87.0229 74.8894 86.8996 74.9415 86.7885C74.9935 86.6774 75.0753 86.5828 75.1778 86.5153C75.0899 86.5832 75.2985 86.456 75.3201 86.4461C75.3702 86.4314 75.4196 86.4143 75.468 86.3946C75.5942 86.3612 75.7259 86.3542 75.8549 86.374C76.0559 86.4225 76.2678 86.3927 76.4476 86.2907C76.6274 86.1886 76.7615 86.0219 76.8228 85.8244C76.8768 85.6232 76.8494 85.4089 76.7466 85.2277C76.6437 85.0466 76.4737 84.9132 76.2733 84.8565Z" fill="#726A69"/>
<path d="M75.5892 88.4429C74.4482 88.3226 73.4369 88.9111 73.1864 90.0761C73.0614 90.5916 73.123 91.1347 73.3602 91.6091C73.5079 91.8827 73.6762 92.1447 73.8638 92.3927C74.8282 93.684 75.8672 94.9178 76.9756 96.0878C77.6622 96.8354 78.7728 95.7202 78.0884 94.9749C77.6832 94.534 77.2834 94.0878 76.889 93.6364C76.4231 93.1023 75.8919 92.4754 75.5017 91.972C75.3741 91.8081 75.1456 91.4979 74.9911 91.2661C74.9216 91.1612 74.8538 91.0552 74.7911 90.9457C74.7672 90.9044 74.7465 90.8539 74.7193 90.8146C74.6865 90.749 74.6908 90.7601 74.7295 90.85C74.7154 90.8122 74.7045 90.7734 74.6967 90.7339C74.6781 90.5095 74.7399 90.2857 74.8711 90.1027C74.8797 90.0942 75.0141 90.0092 74.9318 90.0427C74.9584 90.0319 75.18 89.9797 75.0416 90.0011C75.2241 89.9831 75.4081 89.9882 75.5892 90.0165C75.7975 90.0152 75.997 89.9318 76.1443 89.7845C76.2916 89.6372 76.3749 89.4378 76.3762 89.2295C76.3716 89.0223 76.2872 88.8247 76.1406 88.6781C75.994 88.5315 75.7965 88.4472 75.5892 88.4426V88.4429Z" fill="#726A69"/>
<path d="M85.7585 84.8499C87.7239 87.0629 86.2022 90.2051 84.847 92.3066C84.0552 93.5865 83.0958 94.7548 81.9943 95.7803C81.2522 96.4433 80.5214 96.8775 79.5475 96.7883C79.5118 96.785 79.3977 96.766 79.5619 96.7915C79.4928 96.7807 79.4239 96.7686 79.3554 96.7545C79.2461 96.7326 79.1368 96.7053 79.0275 96.6725C78.8112 96.617 78.6054 96.5269 78.4179 96.4056C77.8867 96.0597 77.4784 95.5547 77.2513 94.9629C77.145 94.7836 76.9724 94.6534 76.7708 94.6006C76.5693 94.5477 76.355 94.5765 76.1745 94.6806C75.9983 94.7895 75.8707 94.962 75.8182 95.1624C75.7656 95.3627 75.7921 95.5756 75.8921 95.757C76.16 96.3898 76.5764 96.9486 77.1062 97.3862C77.6359 97.8238 78.2634 98.1272 78.9353 98.2707C79.4971 98.397 80.0793 98.4028 80.6436 98.2877C81.2078 98.1726 81.7412 97.9393 82.2087 97.6031C83.678 96.5866 84.8237 95.1216 85.829 93.6631C86.8002 92.2531 87.6774 90.6887 88.0679 89.0089C88.5109 87.1042 88.1882 85.2198 86.8704 83.7357C86.1962 82.977 85.0863 84.0931 85.7575 84.8486L85.7585 84.8499Z" fill="#726A69"/>
<path d="M46.7814 82.4935C46.8616 82.2975 46.8891 82.084 46.8612 81.8741C46.8333 81.6642 46.751 81.4652 46.6223 81.297C46.2653 80.7776 45.3878 80.7675 45.0317 80.9167C43.2188 81.732 41.5732 82.8772 40.1789 84.294C37.7154 86.9968 39.5601 90.8778 41.8124 93.9249C42.9755 95.4988 44.7205 97.4488 46.26 97.5856C47.0283 97.6592 47.7998 97.4824 48.4594 97.0815C49.1189 96.6807 49.6312 96.0773 49.9197 95.3614L49.8649 94.5289C50.863 93.4003 52.1425 91.8798 52.4927 91.1313C52.5761 90.8869 52.6004 90.6262 52.5636 90.3706C52.5267 90.115 52.4297 89.8718 52.2805 89.661C51.871 89.1363 51.2903 89.1852 50.8355 89.24C51.2381 88.8911 51.6326 88.5222 52.0159 88.1251C52.1739 87.9349 52.2874 87.7117 52.3481 87.472C52.4088 87.2322 52.4152 86.9819 52.3667 86.7394C52.2595 86.3848 52.0385 86.0753 51.7378 85.8587C51.5024 85.711 51.2371 85.6177 50.9611 85.5856C50.685 85.5534 50.4053 85.5832 50.1423 85.6728L50.1948 85.6321C50.7653 85.1895 51.2421 84.6455 51.2499 83.9235C51.2505 83.7164 51.2069 83.5117 51.1221 83.3228C51.0373 83.134 50.9131 82.9654 50.7579 82.8284C50.6028 82.6913 50.4201 82.589 50.2223 82.5281C50.0244 82.4673 49.8158 82.4493 49.6104 82.4755C48.7579 82.5738 47.9054 83.1693 47.2106 83.6713C46.2646 84.354 44.2018 85.6111 42.8997 86.4502L43.284 86.0381C44.0307 85.2698 45.5111 83.7953 46.6712 82.6522C46.7165 82.6058 46.7537 82.5522 46.7814 82.4935Z" fill="white"/>
<path d="M40.7349 84.8502C42.0304 83.5684 43.566 82.3487 45.272 81.664C45.3861 81.6181 45.3097 81.6512 45.2881 81.6578C45.315 81.6496 45.3415 81.6424 45.3684 81.6348C45.3953 81.6273 45.4278 81.622 45.4576 81.6158C45.4442 81.6188 45.3212 81.6253 45.4153 81.6247C45.4884 81.6247 45.5619 81.6247 45.635 81.6247C45.7242 81.6247 45.635 81.6184 45.6173 81.6161C45.6692 81.6238 45.7206 81.6347 45.7711 81.6489C45.8219 81.6621 45.8694 81.6788 45.9209 81.6955C45.9029 81.6893 45.8334 81.6558 45.9098 81.6981C45.9229 81.7057 45.9449 81.7044 45.9544 81.7165C46.022 81.8199 46.0667 81.9367 46.0855 82.0588C46.1045 82.207 46.0547 82.0378 46.0685 82.1673C46.0652 82.1362 46.0685 82.0942 46.079 82.1375C46.0895 82.1808 46.0685 82.147 46.1118 82.0985C45.9514 82.2762 45.7681 82.4375 45.5979 82.6057C45.2786 82.9214 44.9596 83.2384 44.6411 83.5566C43.9988 84.196 43.3568 84.8354 42.7246 85.4856C42.018 86.2123 43.1299 87.3261 43.8394 86.5985C44.4952 85.9231 45.1641 85.2581 45.8321 84.5931C46.2118 84.2158 46.5921 83.839 46.9731 83.4625C47.1821 83.2922 47.3519 83.0786 47.4707 82.8366C47.5896 82.5945 47.6547 82.3297 47.6617 82.0601C47.6584 81.7862 47.5999 81.5157 47.4897 81.2649C47.3795 81.0141 47.2198 80.7881 47.0202 80.6005C46.8206 80.4128 46.5852 80.2674 46.3281 80.1728C46.071 80.0782 45.7975 80.0365 45.5238 80.0501C45.009 80.0864 44.5093 80.2405 44.0634 80.5003C43.549 80.7519 43.0508 81.0355 42.5718 81.3492C41.5107 82.0449 40.5227 82.8462 39.623 83.7409C38.9017 84.4544 40.0165 85.5673 40.7359 84.8538L40.7349 84.8502Z" fill="#726A69"/>
<path d="M43.2961 87.1304C44.1994 86.5401 45.1188 85.9781 46.0284 85.3994C46.8846 84.8544 47.6948 84.2226 48.567 83.7068C49.0661 83.4117 50.4652 82.8192 50.4632 83.9239C50.4632 84.3796 50.0622 84.7308 49.7382 84.9967C49.2028 85.4364 48.6431 85.8493 48.0958 86.2732L44.2384 89.2676C44.0918 89.4157 44.0096 89.6156 44.0096 89.824C44.0096 90.0324 44.0918 90.2324 44.2384 90.3805C44.3885 90.5233 44.5877 90.603 44.7949 90.603C45.0021 90.603 45.2013 90.5233 45.3513 90.3805L49.2726 87.3373C50.3875 86.4716 51.9155 85.6191 52.0306 84.0504C52.0459 83.7138 51.9857 83.3779 51.8545 83.0675C51.7232 82.7571 51.5243 82.48 51.2721 82.2564C51.0199 82.0328 50.721 81.8684 50.3971 81.7753C50.0732 81.6822 49.7326 81.6626 49.4002 81.7181C48.1243 81.9093 47.12 82.808 46.0789 83.4953C44.8985 84.2737 43.6853 85.0003 42.5016 85.7722C41.6559 86.3234 42.4439 87.6865 43.2957 87.1313L43.2961 87.1304Z" fill="#726A69"/>
<path d="M50.6383 86.374C50.8789 86.3356 51.1252 86.3904 51.3269 86.5271C51.4148 86.5931 51.4861 86.6785 51.5354 86.7767C51.5847 86.8749 51.6105 86.9832 51.6108 87.0931C51.5921 87.4741 51.4377 87.5947 51.1898 87.8394C50.8645 88.1598 50.5282 88.4683 50.1809 88.7647C48.7914 89.8947 47.3294 90.9324 45.8041 91.8712C44.9585 92.422 45.7464 93.7851 46.5983 93.2303C48.5211 91.9781 50.4596 90.7222 52.122 89.1277C52.5608 88.769 52.8932 88.2972 53.0831 87.7633C53.2535 87.2146 53.2078 86.6216 52.9555 86.1055C52.4168 85.0441 51.3325 84.7014 50.2186 84.8565C50.0182 84.9134 49.8484 85.0469 49.7457 85.2281C49.6431 85.4093 49.616 85.6237 49.6704 85.8248C49.7304 86.023 49.8644 86.1906 50.0445 86.2929C50.2247 86.3952 50.4373 86.4244 50.6383 86.3743V86.374Z" fill="#726A69"/>
<path d="M50.9033 90.0167C51.0845 89.9886 51.2684 89.9835 51.4509 90.0013C51.3145 89.9803 51.5555 90.0406 51.5607 90.0429C51.4535 89.997 51.6371 90.1229 51.587 90.0682C51.6823 90.1581 51.7458 90.2765 51.768 90.4056C51.8224 90.6112 51.7814 90.3449 51.7962 90.5561C51.7962 90.5607 51.787 90.821 51.8047 90.6941C51.7951 90.7472 51.7812 90.7994 51.763 90.8502C51.8017 90.7604 51.8054 90.7486 51.7732 90.8148C51.7453 90.8548 51.7257 90.9033 51.7014 90.946C51.6444 91.0463 51.5824 91.1427 51.5188 91.2411C51.3594 91.4827 51.1253 91.7985 50.9909 91.9733C50.2341 92.9497 49.2888 94.0131 48.4044 94.9761C47.7201 95.7211 48.8307 96.8369 49.5173 96.089C50.6255 94.919 51.6644 93.6852 52.6287 92.3939C52.8163 92.1459 52.9847 91.884 53.1323 91.6103C53.3695 91.1359 53.4311 90.5928 53.3061 90.0774C53.0556 88.9124 52.0447 88.3238 50.9033 88.4441C50.6965 88.45 50.4997 88.5348 50.3533 88.6811C50.207 88.8274 50.1222 89.0242 50.1164 89.2311C50.1177 89.4393 50.2011 89.6387 50.3484 89.786C50.4957 89.9333 50.695 90.0166 50.9033 90.018V90.0167Z" fill="#726A69"/>
<path d="M39.6236 83.7372C39.065 84.3673 38.6567 85.116 38.4295 85.9268C38.2023 86.7377 38.1622 87.5896 38.3121 88.4182C38.5665 90.0993 39.3754 91.6857 40.2873 93.1012C41.2405 94.58 42.353 96.0723 43.7302 97.1845C44.7109 97.9773 45.7986 98.503 47.0764 98.3469C47.8405 98.2674 48.5697 97.9859 49.189 97.5312C49.8083 97.0765 50.2953 96.4651 50.5999 95.7598C50.6986 95.5781 50.7243 95.3656 50.6719 95.1656C50.6194 94.9657 50.4928 94.7932 50.3176 94.6833C50.1371 94.5794 49.9228 94.5507 49.7213 94.6036C49.5198 94.6564 49.3472 94.7865 49.2408 94.9656C49.0725 95.4258 48.7866 95.8338 48.4116 96.1491C48.0365 96.4644 47.5855 96.676 47.1033 96.7628C47.0462 96.774 46.9892 96.7838 46.9318 96.793C46.9597 96.7884 47.0938 96.7759 46.9462 96.7897C46.8669 96.7969 46.7878 96.8038 46.7085 96.8071C46.5702 96.8163 46.4314 96.8146 46.2934 96.8022C45.7717 96.6897 45.286 96.4496 44.8798 96.1034C43.7514 95.1624 42.7748 94.053 41.9845 92.8143C41.1025 91.6084 40.4321 90.2612 40.002 88.8304C39.6292 87.4283 39.7397 85.9711 40.7355 84.85C41.4061 84.0959 40.2968 82.9781 39.6227 83.7372H39.6236Z" fill="#726A69"/>
</svg>
