<svg width="126" height="106" viewBox="0 0 126 106" fill="none" xmlns="http://www.w3.org/2000/svg">
<circle opacity="0.6" cx="63" cy="53" r="43" fill="#F2D5E1"/>
<mask id="mask0_807_574505" style="mask-type:alpha" maskUnits="userSpaceOnUse" x="26" y="6" width="88" height="90">
<path fill-rule="evenodd" clip-rule="evenodd" d="M114 6H26V91H39C39 93.7614 55.7893 96 76.5 96C97.2107 96 114 93.7614 114 91V6Z" fill="#D9D9D9"/>
</mask>
<g mask="url(#mask0_807_574505)">
<path d="M90.4513 48.2628C94.8641 49.7461 100.179 48.7632 103.061 44.8985C105.589 41.5081 104.969 37.647 104.387 33.7503C104.087 31.746 103.645 29.795 103.486 27.6707C103.252 24.5479 102.811 20.6466 101.631 17.9415C100.748 15.919 98.8699 12.7745 95.8385 11.2329L93.9175 10.0321L93.5012 9.76943C90.9118 8.55558 88.1004 7.88745 85.2418 7.80659C79.5039 7.55575 74.6431 9.97313 72.2781 12.0408C69.6257 14.6302 68.4616 17.2816 67.0465 22.3154C66.2413 25.2032 65.414 28.0873 64.7959 31.0225C64.1789 33.9517 63.7909 37.0893 64.6341 40.0182C65.4604 42.8885 67.4338 44.6793 70.1844 45.6638L90.4513 48.2628Z" fill="#726A69"/>
<path d="M100.748 34.2214C100.605 33.817 100.225 33.0981 99.0434 32.811C98.4419 32.6574 97.8044 32.7399 97.2619 33.0418C97.0058 33.0794 96.7474 33.0987 96.4886 33.0994C96.0706 33.1106 95.4562 33.1512 94.833 33.1156L94.6681 32.7375C92.6443 28.15 88.0561 22.6072 85.0633 20.0791C83.5979 21.4605 82.0574 22.7598 80.4487 23.9712C78.8777 25.098 77.2009 26.0694 75.4419 26.8717C74.1341 27.4689 72.7846 27.9701 71.4041 28.3715C70.0149 28.746 68.5956 28.9984 67.1624 29.1256C67.2827 31.6376 67.2804 34.1493 67.3305 36.4572C67.3829 38.8719 67.7405 41.1706 68.6126 43.1437C69.1179 44.3152 69.8442 45.3784 70.7518 46.275C72.339 47.8958 74.3378 49.0535 76.5336 49.6235V51.5023C76.5517 52.5999 75.3763 53.2163 74.4491 53.5347C74.4745 54.7767 74.6225 57.021 74.8397 59.7229C77.1775 60.4698 79.635 60.7699 82.0839 60.6075C84.5593 60.5925 87.0092 60.1058 89.3024 59.1734C90.2537 56.9399 91.1462 54.7994 91.9469 52.8416C91.3494 52.4878 90.8648 51.9716 90.5493 51.353C90.3255 50.7885 90.1727 50.1984 90.0945 49.5962C89.9827 48.8274 89.9189 48.0524 89.9033 47.2757V46.8172L91.0774 45.922C91.9875 45.1249 92.8248 44.2482 93.5791 43.3022C93.5791 43.3022 94.3155 42.3582 94.6398 41.8104C94.6398 41.8104 94.7252 41.6664 94.8587 41.4426C95.7155 41.5846 96.595 41.4827 97.3967 41.1486C98.5169 40.5613 99.4367 39.6535 100.039 38.541C100.734 37.4045 101.173 35.4318 100.748 34.2214Z" fill="white"/>
<path d="M58.9685 62.7927C59.8791 61.3142 61.0259 59.9951 62.3635 58.8878C64.3082 57.304 66.7025 56.3366 69.0411 55.4635C70.4538 54.9031 73.1283 54.1173 74.4513 53.5332C74.5463 58.1897 76.367 76.9357 77.0882 81.0641H79.114C83.4366 72.9082 88.5436 61.169 91.9798 52.7695C98.6099 55.8227 106.731 58.1069 110.327 65.1076C112.5 69.3372 112.665 74.9448 112.566 79.7615C112.453 85.2722 112.007 90.7711 111.231 96.2282H43.6052C42.5316 90.8313 41.1497 85.5003 39.4663 80.2615L51.7724 76.4571C51.8745 76.3923 51.9915 76.3547 52.1122 76.3478C52.2329 76.3408 52.3534 76.3648 52.4623 76.4174C52.5712 76.47 52.6649 76.5495 52.7345 76.6483C52.8041 76.7472 52.8473 76.8623 52.8601 76.9825L54.3338 81.0318C54.9462 76.5979 55.2897 72.0396 56.6859 67.758C57.2416 66.0161 58.0081 64.3486 58.9685 62.7927Z" fill="#64C7FF"/>
<path d="M75.7434 51.5011C75.7429 51.6061 75.7207 51.71 75.6782 51.8061C75.6356 51.9022 75.5737 51.9884 75.4962 52.0594C75.2764 52.2675 75.0237 52.4378 74.7483 52.5634C74.1909 52.8226 73.6185 53.0484 73.0343 53.2398C71.6384 53.7408 70.2105 54.1577 68.8298 54.7006C68.6309 54.7617 68.4628 54.8965 68.3601 55.0775C68.2574 55.2584 68.2278 55.4718 68.2774 55.6739C68.3345 55.8754 68.4686 56.0462 68.6506 56.1496C68.8327 56.253 69.0481 56.2805 69.2504 56.2264C70.788 55.6215 72.3817 55.1752 73.9282 54.5915C74.0985 54.5273 74.2679 54.4607 74.4365 54.3918C74.6455 54.3057 74.7483 54.2635 74.8752 54.2184C75.2601 54.0852 75.6283 53.9082 75.9728 53.691C76.3646 53.4699 76.694 53.1532 76.9303 52.7705C77.1666 52.3877 77.3021 51.9513 77.3242 51.502C77.3407 50.4835 75.7586 50.4832 75.7421 51.502L75.7434 51.5011Z" fill="#119EED"/>
<path d="M76.8412 79.4241C76.2634 75.1437 75.358 66.143 74.8418 59.7245L74.9209 59.7495C77.2346 60.4791 79.6642 60.7697 82.0847 60.6065C84.5609 60.5921 87.0116 60.1047 89.3048 59.1704C86.1801 66.5007 82.416 74.8303 79.1122 81.0655H77.0865C77.0146 80.6529 76.9319 80.0968 76.8412 79.4241Z" fill="white"/>
<path d="M74.7166 60.513C77.1798 61.2873 79.6717 61.4672 82.2367 61.3954C84.7274 61.3499 87.1895 60.8564 89.5053 59.9385C89.704 59.8771 89.8718 59.7423 89.9744 59.5615C90.0771 59.3807 90.1069 59.1675 90.0577 58.9655C90.0008 58.7639 89.8667 58.593 89.6846 58.4896C89.5025 58.3862 89.287 58.3587 89.0847 58.413C86.905 59.2883 84.5851 59.7627 82.2367 59.8132C81.0525 59.8698 79.8659 59.8466 78.6848 59.7437C77.4801 59.6091 76.2917 59.3552 75.1372 58.9856C74.1635 58.6797 73.7469 60.2051 74.7166 60.5113V60.513Z" fill="#726A69"/>
<path d="M91.1251 52.7785C88.0725 60.2277 84.8624 67.6212 81.3544 74.8668C80.411 76.8151 79.4426 78.7512 78.4294 80.6643L79.1123 80.2724H77.0866L77.8493 80.8532C77.757 80.3212 77.6822 79.7865 77.6093 79.2516C77.5938 79.1379 77.6288 79.3989 77.6133 79.2845C77.608 79.2437 77.6024 79.2031 77.5971 79.1623C77.5862 79.0785 77.575 78.9948 77.5642 78.9111C77.5398 78.7232 77.5158 78.5354 77.4923 78.3478C77.4407 77.9351 77.3902 77.5222 77.341 77.1091C77.107 75.14 76.8954 73.1683 76.6927 71.1955C76.2516 66.9053 75.8466 62.6098 75.5212 58.3077C75.4012 56.719 75.275 55.126 75.2411 53.5326C75.2193 52.5158 73.6372 52.5108 73.6589 53.5326C73.7311 56.9345 74.0874 60.3424 74.392 63.7292C74.777 68.0234 75.1989 72.3156 75.6989 76.5982C75.8812 78.1583 76.0549 79.7256 76.3251 81.2738C76.3717 81.4402 76.4712 81.5869 76.6086 81.6918C76.746 81.7967 76.9137 81.8541 77.0866 81.8552H79.1123C79.2506 81.8555 79.3865 81.8194 79.5064 81.7506C79.6263 81.6819 79.7261 81.5828 79.7956 81.4633C83.6208 74.2379 86.939 66.7369 90.1372 59.2171C90.988 57.2175 91.8259 55.2117 92.6508 53.1997C92.7054 52.9974 92.678 52.7818 92.5746 52.5996C92.4711 52.4173 92.3001 52.2833 92.0984 52.2264C91.8962 52.1758 91.6823 52.205 91.5011 52.308C91.3199 52.4109 91.1852 52.5796 91.1251 52.7791V52.7785Z" fill="#119EED"/>
<path d="M69.0529 57.338C68.7431 57.7394 68.4405 58.1465 68.1495 58.5621C67.8419 59.0019 67.4032 59.492 67.3821 60.0533C67.3647 60.5164 67.6406 60.8506 67.8934 61.204C68.1502 61.5628 68.4062 61.9223 68.6614 62.2825C68.7805 62.4497 68.8996 62.6164 69.0187 62.7825C69.073 62.858 69.2461 63.1955 69.3321 63.2146L69.3601 63.2532C69.3382 63.1885 69.3359 63.1188 69.3535 63.0528C69.3711 62.9868 69.4078 62.9275 69.459 62.8824C69.459 62.8824 69.4429 62.9025 69.4402 62.9041C69.4027 62.9242 69.3634 62.9918 69.3351 63.0248L68.4122 64.0828L67.458 65.1788C67.2561 65.3648 67.1053 65.5993 67.0199 65.8601C66.9345 66.121 66.9174 66.3993 66.9701 66.6686C67.2707 68.1341 67.6551 69.5873 67.9962 71.0436C68.466 73.047 68.9354 75.0504 69.4043 77.054C69.635 78.0449 71.1621 77.6253 70.9298 76.6335C70.1686 73.3813 69.4066 70.13 68.6439 66.8796L68.5523 66.4887C68.4402 66.0104 68.5905 66.4761 68.3792 66.5246C68.4329 66.5121 68.544 66.3351 68.577 66.2975L69.5055 65.2322C70.107 64.54 71.3203 63.5676 70.7804 62.5481C70.5642 62.1956 70.3252 61.8575 70.0652 61.5359C69.7967 61.1595 69.5284 60.7826 69.2603 60.4053C69.2056 60.3292 69.1512 60.2531 69.0955 60.1772L69.0035 60.0497C68.9138 59.8904 68.8881 59.9543 68.9264 60.2415C68.9369 60.2468 69.2978 59.6766 69.3423 59.6113C69.6855 59.1083 70.0471 58.6185 70.4189 58.1363C70.5236 57.9549 70.5525 57.7395 70.4994 57.5369C70.4462 57.3343 70.3153 57.1608 70.1351 57.0542C69.9527 56.9535 69.7386 56.9268 69.5371 56.9797C69.3356 57.0325 69.1625 57.1608 69.0529 57.338Z" fill="#119EED"/>
<path d="M94.9914 57.5368C95.4439 58.2755 95.8283 59.0537 96.1401 59.8619C96.2911 60.2624 96.4249 60.6691 96.5357 61.0815C96.566 61.1686 96.5891 61.2582 96.6049 61.3491C96.6049 61.3471 96.0815 61.5947 96.6234 61.2502C96.5208 61.3028 96.4141 61.3469 96.3043 61.3821C95.9028 61.532 95.5007 61.6804 95.1012 61.8356C94.6846 61.9971 94.147 62.1323 93.8296 62.4619C93.6854 62.6151 93.5818 62.8019 93.5282 63.0053C93.4745 63.2087 93.4725 63.4223 93.5224 63.6267C93.6374 64.0691 94.0069 64.3888 94.295 64.726C94.5666 65.044 94.8339 65.3654 95.1038 65.6845C95.244 65.8502 95.385 66.015 95.5267 66.1789C95.5877 66.2488 95.6487 66.3187 95.7103 66.3882L95.8006 66.4897C95.9424 66.6904 95.9701 66.6019 95.8837 66.2244C95.7782 66.2132 95.267 67.1091 95.1836 67.229C94.9118 67.6228 94.6414 68.0177 94.3724 68.4137C93.3648 69.8969 92.377 71.394 91.3875 72.8898C90.2279 74.642 89.0637 76.3909 87.8705 78.1204C87.7666 78.3021 87.7381 78.5172 87.7911 78.7197C87.8442 78.9221 87.9746 79.0956 88.1543 79.2029C88.3365 79.3045 88.5509 79.3318 88.7526 79.2788C88.9544 79.2259 89.1279 79.097 89.2367 78.9191C91.4059 75.7749 93.4693 72.5605 95.6121 69.3986C96.1454 68.6118 96.7783 67.8467 97.2499 67.023C97.7889 66.081 96.9256 65.3918 96.3649 64.7329C96.0778 64.3957 95.7947 64.0552 95.5079 63.7177C95.4361 63.6327 95.149 63.1986 95.0425 63.1778L95.0294 63.1653C94.9375 63.0716 94.9333 63.1822 95.0168 63.4969C94.8659 63.6122 94.8481 63.6413 94.9634 63.5842C95.0324 63.5559 95.1013 63.5278 95.1701 63.5001C95.5927 63.3304 96.0192 63.1705 96.4457 63.0127C96.8903 62.8478 97.4016 62.7256 97.7457 62.3775C98.5038 61.6095 98.0509 60.5089 97.7394 59.6447C97.3744 58.6325 96.9107 57.6586 96.355 56.7372C95.83 55.8663 94.4614 56.6607 94.9888 57.5358L94.9914 57.5368Z" fill="#119EED"/>
<path d="M82.2124 34.5683C82.0706 33.7719 82.4431 32.0253 83.9142 32.0543C85.8342 32.3022 85.674 34.4493 84.903 35.3732C84.2721 36.1296 82.6735 36.2796 82.2124 34.5683Z" fill="#726A69"/>
<path d="M70.76 33.5227C70.6364 32.7254 70.9908 30.9715 72.3395 30.9887C74.0973 31.222 73.9335 33.3757 73.2202 34.3078C72.6368 35.0712 71.1691 35.2344 70.76 33.5227Z" fill="#726A69"/>
<path d="M76.4934 35.8878C76.2089 36.2833 75.933 36.6861 75.6842 37.1047C75.5739 37.271 75.4956 37.4565 75.4534 37.6515C75.4133 37.8371 75.4203 38.0297 75.4739 38.2119C75.5374 38.3953 75.6439 38.561 75.7844 38.6951C75.9628 38.8707 76.1799 39.002 76.4182 39.0787C76.5098 39.1094 76.6064 39.118 76.7 39.1404C76.9059 39.1926 77.124 39.164 77.3095 39.0606C77.444 38.9821 77.5523 38.8657 77.6209 38.726C77.6895 38.5862 77.7154 38.4293 77.6952 38.2749C77.6751 38.1205 77.6098 37.9755 77.5076 37.858C77.4053 37.7406 77.2707 37.6559 77.1206 37.6146C77.0099 37.5963 76.9006 37.57 76.7936 37.5362L76.9828 37.6159C76.9241 37.5897 76.8688 37.5565 76.818 37.517L76.9782 37.6406C76.9235 37.5955 76.8732 37.5452 76.8279 37.4907L76.9519 37.6509C76.9393 37.6357 76.9288 37.6189 76.9205 37.6011L77.0003 37.79C76.99 37.7637 76.9829 37.7362 76.9792 37.7082L77.0076 37.9185C77.0059 37.8993 77.0059 37.88 77.0076 37.8608L76.9792 38.0711C76.9868 38.0197 77.0003 37.9694 77.0194 37.9211L76.9397 38.1103C77.0699 37.8452 77.2233 37.5922 77.3981 37.3542C77.5488 37.1288 77.702 36.9053 77.8596 36.6854C77.9126 36.5942 77.9469 36.4933 77.9606 36.3887C77.9743 36.2841 77.9671 36.1778 77.9394 36.076C77.8832 35.8778 77.7535 35.7086 77.5768 35.603C77.4855 35.5501 77.3847 35.5158 77.28 35.5021C77.1754 35.4884 77.0692 35.4956 76.9673 35.5232C76.7732 35.5871 76.6065 35.7149 76.4943 35.8858L76.4934 35.8878Z" fill="#726A69"/>
<path d="M93.9591 41.4098C93.6484 41.9014 93.312 42.3764 92.9515 42.8327C93.17 42.5423 92.9093 42.8795 92.8565 42.9434C92.7271 43.0997 92.5959 43.2545 92.463 43.4079C92.1665 43.7496 91.8589 44.0817 91.5401 44.4043C91.3832 44.5627 91.2234 44.7185 91.0608 44.8717C90.9725 44.9547 90.8838 45.0365 90.7938 45.1176C90.7487 45.1584 90.7032 45.1993 90.6574 45.2395C90.5591 45.3215 90.5656 45.3215 90.6768 45.2395C90.6508 45.3127 90.3963 45.4225 90.3347 45.4627L89.3992 46.0728C89.3095 46.1252 89.231 46.1948 89.1682 46.2775C89.1054 46.3603 89.0595 46.4546 89.0331 46.5551C89.0067 46.6556 89.0004 46.7603 89.0145 46.8633C89.0286 46.9662 89.0629 47.0654 89.1153 47.1551C89.1677 47.2448 89.2373 47.3233 89.32 47.3861C89.4028 47.4489 89.4971 47.4948 89.5976 47.5212C89.6981 47.5476 89.8028 47.5539 89.9057 47.5398C90.0087 47.5257 90.1078 47.4914 90.1975 47.439L91.1693 46.8052C91.7101 46.4325 92.2094 46.003 92.6588 45.524C93.6743 44.5278 94.5688 43.4152 95.3237 42.2094C95.3761 42.1197 95.4104 42.0205 95.4245 41.9176C95.4386 41.8146 95.4323 41.7099 95.406 41.6094C95.3796 41.5089 95.3337 41.4145 95.2709 41.3318C95.2081 41.249 95.1296 41.1794 95.0399 41.127C94.9502 41.0745 94.851 41.0403 94.7481 41.0261C94.6451 41.012 94.5404 41.0183 94.4399 41.0447C94.3394 41.071 94.245 41.1169 94.1622 41.1797C94.0795 41.2425 94.0099 41.321 93.9574 41.4107L93.9591 41.4098Z" fill="#726A69"/>
<path d="M86.0494 48.0055C83.9852 48.7965 81.7949 49.2077 79.5843 49.2192C77.6182 49.2124 75.686 48.7069 73.9684 47.7501C72.253 46.8094 70.8171 45.4316 69.8064 43.7565C68.8008 41.9967 68.3561 39.9561 68.1969 37.9517C67.9695 35.119 68.0901 32.2557 67.9695 29.4147C67.9263 28.4005 66.3442 28.3953 66.3873 29.4147C66.5014 32.0998 66.4203 34.7966 66.5818 37.4787C66.7176 39.7286 67.1422 41.9852 68.1534 44.0162C70.1097 47.9416 74.3804 50.4255 78.673 50.7578C81.3359 50.9638 83.9702 50.4216 86.4699 49.5296C86.6694 49.4693 86.838 49.3346 86.9408 49.1534C87.0436 48.9722 87.0728 48.7584 87.0224 48.5563C86.965 48.3551 86.8308 48.1844 86.6488 48.0811C86.4669 47.9778 86.2516 47.9501 86.0494 48.0039V48.0055Z" fill="#726A69"/>
<path d="M97.6613 33.7241C97.8705 33.6154 98.0998 33.5507 98.335 33.5341C98.5703 33.5175 98.8064 33.5493 99.0288 33.6276C99.2208 33.6837 99.4021 33.7716 99.5651 33.8876C99.6228 33.9307 99.6766 33.9787 99.726 34.031C99.7636 34.0671 99.7979 34.1064 99.8285 34.1487C99.8674 34.2067 99.9023 34.267 99.9366 34.328C99.9521 34.3563 100.027 34.5307 99.986 34.4269C99.9448 34.323 100.019 34.5416 100.03 34.5755C100.065 34.6921 100.091 34.8114 100.107 34.9322C100.15 35.355 100.131 35.7819 100.051 36.1992C99.7342 37.9369 98.6171 39.762 96.9453 40.4901C97.0914 40.4265 96.8755 40.5089 96.8267 40.523C96.7123 40.559 96.596 40.589 96.4793 40.6163C96.2734 40.664 96.0639 40.6944 95.853 40.7073C95.3679 40.7632 94.877 40.6743 94.4423 40.4518C93.5579 39.9439 92.7613 41.3088 93.644 41.8181C94.7109 42.4312 96.0953 42.4114 97.246 42.0488C98.4655 41.6628 99.4544 40.7426 100.198 39.7323C100.914 38.7802 101.393 37.6716 101.596 36.4978C101.772 35.423 101.799 34.1806 101.127 33.2577C100.637 32.6292 99.9398 32.1942 99.1596 32.0296C98.3793 31.865 97.566 31.9814 96.8633 32.3582C95.969 32.8457 96.7667 34.2123 97.6619 33.7241H97.6613Z" fill="#726A69"/>
<path d="M76.2257 43.2589C77.3567 43.8727 78.6634 44.082 79.9295 43.8522C80.359 43.7412 80.7781 43.5932 81.182 43.4099C81.3818 43.3502 81.5509 43.2157 81.6538 43.0344C81.7568 42.8531 81.7858 42.639 81.7348 42.4369C81.6769 42.2358 81.5427 42.0654 81.3608 41.9621C81.1789 41.8588 80.9638 41.8308 80.7615 41.8841C80.3915 42.0495 80.0106 42.1896 79.6217 42.3034C79.5824 42.3123 79.4163 42.3189 79.3942 42.3462C79.412 42.3241 79.5514 42.3294 79.4272 42.3406C79.3764 42.3449 79.3257 42.3499 79.2746 42.3535C79.0954 42.3651 78.9157 42.3666 78.7363 42.3581C78.65 42.3545 78.5636 42.3482 78.4776 42.3403C78.4344 42.3363 78.3912 42.3301 78.348 42.3264C78.414 42.3321 78.4558 42.3436 78.3648 42.3288C78.1852 42.2994 78.0069 42.2648 77.8305 42.2187C77.663 42.1742 77.498 42.1208 77.3361 42.0588C77.2372 42.0212 77.319 42.068 77.3641 42.0707C77.3188 42.0577 77.2759 42.0372 77.2372 42.01C77.1654 41.9734 77.0952 41.9336 77.0263 41.891C76.8451 41.7852 76.6293 41.7556 76.4263 41.8089C76.2234 41.8621 76.0499 41.9938 75.944 42.175C75.8381 42.3562 75.8086 42.572 75.8618 42.7749C75.9151 42.9779 76.0468 43.1514 76.228 43.2573L76.2257 43.2589Z" fill="#726A69"/>
<path d="M95.4196 41.5074C95.2268 41.4946 95.0334 41.5206 94.8508 41.5839C94.6683 41.6472 94.5003 41.7465 94.3569 41.876C94.2135 42.0054 94.0975 42.1624 94.0158 42.3375C93.9342 42.5126 93.8885 42.7023 93.8816 42.8954C93.8816 43.7329 94.5237 44.3094 95.4196 44.3094C96.3501 44.3094 96.9575 43.7273 96.9575 42.8954C96.9507 42.7023 96.9052 42.5125 96.8236 42.3373C96.742 42.1621 96.626 42.0051 96.4825 41.8757C96.3391 41.7462 96.171 41.6469 95.9884 41.5836C95.8058 41.5203 95.6124 41.4944 95.4196 41.5074Z" fill="white"/>
<path d="M95.4196 40.7164C94.937 40.7085 94.4638 40.8509 94.0656 41.1237C93.6674 41.3965 93.3638 41.7863 93.1967 42.2392C93.054 42.6836 93.058 43.1621 93.2081 43.604C93.3582 44.046 93.6465 44.4279 94.0303 44.6935C94.416 44.9409 94.8604 45.0819 95.3182 45.102C95.776 45.122 96.231 45.0206 96.6369 44.8078C97.0388 44.5819 97.3585 44.2342 97.5502 43.8149C97.7419 43.3956 97.7956 42.9263 97.7035 42.4745C97.5186 41.3931 96.4579 40.7276 95.4196 40.7164C95.2098 40.7164 95.0086 40.7997 94.8603 40.9481C94.7119 41.0964 94.6286 41.2976 94.6286 41.5074C94.6286 41.7172 94.7119 41.9185 94.8603 42.0668C95.0086 42.2152 95.2098 42.2985 95.4196 42.2985C95.4658 42.2985 95.5119 42.3028 95.5581 42.3035C95.6873 42.3054 95.4958 42.2946 95.4813 42.2899C95.5472 42.3117 95.624 42.3156 95.6929 42.3351C95.7334 42.3466 95.7727 42.3611 95.8125 42.374C95.9355 42.4126 95.7394 42.341 95.7374 42.341C95.8137 42.3668 95.8846 42.4064 95.9467 42.4577C95.9691 42.4725 96.0785 42.5533 95.9612 42.465C95.8438 42.3766 95.9487 42.459 95.9691 42.4781C96.0156 42.5217 96.0535 42.5734 96.099 42.6169C95.9533 42.4781 96.0166 42.5002 96.0535 42.5632C96.0693 42.5902 96.0864 42.6156 96.1029 42.643C96.1194 42.6703 96.1296 42.7 96.1461 42.726C96.1738 42.7702 96.0726 42.5217 96.1293 42.6931C96.1398 42.726 96.1916 42.8513 96.1751 42.876C96.1708 42.8823 96.1567 42.6499 96.1616 42.7791C96.1616 42.818 96.1665 42.8562 96.1665 42.8951C96.1665 42.9818 96.1138 43.1825 96.1774 42.9228C96.1609 42.9887 96.1524 43.0593 96.1319 43.1265C96.123 43.1555 96.1089 43.1848 96.1023 43.2142C96.1445 43.0237 96.1682 43.0738 96.1313 43.1423C96.1019 43.1951 96.0723 43.2461 96.041 43.2979C96.0007 43.3638 95.945 43.3674 96.0894 43.2376C96.0726 43.2527 96.0564 43.2745 96.0419 43.2913C96.0172 43.3177 95.9915 43.343 95.9651 43.3671C95.9028 43.4231 95.8409 43.4271 96.0123 43.3341C95.9582 43.3632 95.9094 43.403 95.8551 43.433C95.8233 43.4543 95.7888 43.4712 95.7525 43.4831C95.7525 43.4831 95.9536 43.4113 95.833 43.4462C95.767 43.4647 95.7054 43.4868 95.6398 43.5013C95.5997 43.5133 95.5583 43.5211 95.5165 43.5243L95.6418 43.5069C95.6128 43.5102 95.5838 43.5125 95.5548 43.5144C95.4803 43.5192 95.4056 43.5199 95.331 43.5168C95.302 43.5168 95.273 43.5121 95.244 43.5108C95.0821 43.5039 95.4417 43.5487 95.2861 43.5168C95.2202 43.5032 95.1543 43.4887 95.0884 43.4686C95.063 43.461 95.0383 43.4515 95.0129 43.4436C94.8834 43.404 95.2041 43.5385 95.0231 43.4459C94.9664 43.4172 94.914 43.3826 94.8603 43.349C94.8066 43.3154 94.798 43.2662 94.9312 43.4057C94.9061 43.3793 94.8745 43.3572 94.8484 43.3318C94.8224 43.3065 94.6955 43.1552 94.7878 43.2755C94.8801 43.3958 94.801 43.2903 94.7851 43.2662C94.765 43.2353 94.7462 43.2033 94.7288 43.171C94.6922 43.1028 94.6879 43.0138 94.7456 43.2247C94.739 43.201 94.7275 43.1773 94.7195 43.1539C94.6991 43.0925 94.6866 43.0299 94.6711 42.967C94.6358 42.818 94.6833 43.1746 94.6787 43.019C94.6787 42.9917 94.675 42.9643 94.6744 42.937C94.6744 42.8974 94.6744 42.8579 94.6744 42.8183C94.68 42.7257 94.7245 42.6934 94.6638 42.8776C94.6869 42.8078 94.7001 42.731 94.7215 42.6598C94.7578 42.5395 94.6849 42.7514 94.6843 42.7451C94.6806 42.7145 94.7387 42.639 94.7545 42.6133C94.7703 42.5876 94.7818 42.5714 94.795 42.55C94.8672 42.432 94.6543 42.6996 94.7756 42.5764C94.823 42.5279 94.8837 42.4814 94.9262 42.4294C94.8125 42.5691 94.8138 42.5111 94.8906 42.4594C94.9236 42.4373 94.9565 42.4165 94.9921 42.3971C95.0208 42.3809 95.0538 42.3687 95.0815 42.3509C95.1372 42.3249 95.1052 42.3377 94.9862 42.3898C95.0119 42.3796 95.0379 42.3697 95.064 42.3608C95.1457 42.335 95.2287 42.3138 95.3128 42.2975C95.3939 42.2804 95.3649 42.3305 95.2351 42.3077C95.2965 42.3097 95.358 42.3067 95.419 42.2988C95.5229 42.2988 95.6257 42.2784 95.7217 42.2386C95.8177 42.1989 95.9049 42.1406 95.9784 42.0671C96.0518 41.9937 96.1101 41.9065 96.1498 41.8105C96.1896 41.7145 96.21 41.6117 96.21 41.5078C96.21 41.4039 96.1896 41.301 96.1498 41.205C96.1101 41.1091 96.0518 41.0219 95.9784 40.9484C95.9049 40.8749 95.8177 40.8167 95.7217 40.7769C95.6257 40.7372 95.5229 40.7167 95.419 40.7167L95.4196 40.7164Z" fill="#726A69"/>
<path d="M84.542 19.4872C82.6184 21.22 80.7093 22.9445 78.5081 24.3243C76.3434 25.6844 74.0083 26.7522 71.5635 27.5001C70.1338 27.9121 68.669 28.191 67.1879 28.3334C66.98 28.3393 66.7822 28.4245 66.6351 28.5716C66.488 28.7187 66.4027 28.9165 66.3969 29.1244C66.3982 29.3338 66.482 29.5342 66.6301 29.6823C66.7781 29.8303 66.9785 29.9141 67.1879 29.9155C68.5796 29.7878 69.9597 29.555 71.3163 29.219C72.6694 28.8441 73.9938 28.372 75.2789 27.8063C77.7479 26.7349 80.0629 25.3387 82.1625 23.6549C83.3725 22.6888 84.5127 21.6399 85.6623 20.6043C86.4205 19.9213 85.2998 18.8053 84.5436 19.4856L84.542 19.4872Z" fill="#726A69"/>
<path d="M84.5421 20.6695C85.9578 21.9084 87.2703 23.2605 88.4668 24.7122C89.8818 26.3773 91.1688 28.147 92.317 30.0061C92.9406 31.0121 93.4972 32.0582 93.9832 33.1374C94.0902 33.3174 94.2637 33.448 94.4662 33.5011C94.6688 33.5542 94.8841 33.5255 95.0656 33.4212C95.2429 33.3118 95.3713 33.1384 95.4242 32.9368C95.477 32.7353 95.4502 32.5211 95.3494 32.3388C94.4412 30.3684 93.334 28.496 92.045 26.7509C90.7714 24.9675 89.3781 23.2727 87.8748 21.6781C87.1747 20.9309 86.4357 20.2212 85.6608 19.5518C85.5099 19.4084 85.3096 19.3284 85.1014 19.3284C84.8932 19.3284 84.693 19.4084 84.5421 19.5518C84.3954 19.7011 84.3132 19.9019 84.3132 20.1112C84.3132 20.3204 84.3954 20.5213 84.5421 20.6705V20.6695Z" fill="#726A69"/>
<path d="M89.1138 47.274C89.1267 48.409 89.2542 49.5397 89.4945 50.6489C89.6081 51.2224 89.8352 51.7674 90.1626 52.2518C90.5528 52.7516 91.0237 53.1828 91.5559 53.5274C91.737 53.6333 91.9528 53.6629 92.1558 53.6096C92.3588 53.5564 92.5323 53.4247 92.6381 53.2435C92.744 53.0623 92.7736 52.8465 92.7203 52.6435C92.6671 52.4406 92.5354 52.2671 92.3542 52.1612C92.1734 52.0422 92.0022 51.9093 91.842 51.7637C91.7556 51.6849 91.6719 51.6028 91.5928 51.5165C91.5545 51.4753 91.5173 51.4331 91.4817 51.3899C91.5325 51.4515 91.4735 51.3797 91.457 51.3569C91.2125 50.9508 91.0489 50.5012 90.9751 50.0329C90.9194 49.7751 90.8762 49.5154 90.8403 49.2543C90.8208 49.111 90.8521 49.3499 90.8353 49.2128C90.8287 49.1591 90.8218 49.1054 90.8156 49.0513C90.8035 48.9465 90.7925 48.8415 90.7826 48.7362C90.7355 48.2507 90.7137 47.7632 90.6966 47.2757C90.6966 47.0659 90.6132 46.8647 90.4649 46.7163C90.3165 46.568 90.1153 46.4846 89.9055 46.4846C89.6957 46.4846 89.4945 46.568 89.3461 46.7163C89.1978 46.8647 89.1144 47.0659 89.1144 47.2757L89.1138 47.274Z" fill="#726A69"/>
<path d="M82.5532 95.562C83.906 93.0422 84.9854 90.3849 85.7729 87.6354C85.802 87.5222 85.7927 87.4024 85.7463 87.295C85.7 87.1876 85.6192 87.0986 85.5168 87.0421C84.7857 86.6315 83.633 85.8677 83.3792 85.3562C82.3591 83.3001 80.9852 82.565 79.1272 81.1741C78.212 80.4941 77.2612 79.8636 76.2787 79.2851C75.66 78.908 74.5766 78.08 73.832 78.0164C73.0874 77.9528 72.6883 77.9739 72.2657 78.5965C72.1278 78.7685 72.0368 78.9732 72.0015 79.1908C71.9663 79.4084 71.9879 79.6314 72.0643 79.8381C72.3227 80.3342 72.6642 80.7824 73.0739 81.1632C73.5087 81.6131 74.038 82.0927 74.4952 82.5769C72.8276 82.4095 71.1525 82.3263 69.4765 82.3277C69.0327 82.3079 68.5929 82.419 68.2118 82.6471C67.9008 82.8674 67.6512 83.1634 67.4866 83.5071C67.3919 83.7249 67.343 83.96 67.343 84.1976C67.343 84.4352 67.3919 84.6702 67.4866 84.8881C67.736 85.4308 68.1107 85.9064 68.58 86.2758C68.1825 87.4729 67.8878 88.0788 68.281 89.295C68.7263 90.6695 68.9785 92.3901 69.8724 93.6604C70.1223 94.0397 70.4459 94.3649 70.824 94.6166C71.184 94.8086 71.5723 94.9421 71.9743 95.0122C74.3195 95.3543 77.5214 95.207 79.742 95.4641C80.4126 95.6353 81.0657 95.8688 81.6929 96.1615C81.8145 96.2112 81.9502 96.2141 82.0738 96.1697C82.1974 96.1252 82.3002 96.0366 82.3624 95.9209C82.427 95.8007 82.4906 95.6811 82.5532 95.562Z" fill="white"/>
<path d="M100.219 75.3026C100.43 74.1628 100.612 73.1737 100.739 72.465C100.78 72.2344 100.732 71.9968 100.605 71.7999C100.479 71.6029 100.282 71.461 100.056 71.4026C95.1407 70.1445 82.3883 67.3369 78.1588 66.3846C77.9188 66.3314 77.6675 66.3753 77.4599 66.5068C77.2522 66.6383 77.1051 66.8467 77.0506 67.0864L74.6273 77.9306L74.5643 78.2428C75.1542 78.5586 75.7264 78.9064 76.2783 79.2847C77.2608 79.8632 78.2116 80.4937 79.1268 81.1737C80.9855 82.5646 82.3593 83.2997 83.3788 85.3558C83.6326 85.8673 84.7853 86.6311 85.5163 87.0418L86.1294 86.4514C87.618 86.9396 97.1055 88.5425 97.8125 88.436L97.8831 88.0006L98.1504 86.3502C98.6247 83.7839 99.5661 78.8242 100.219 75.3026Z" fill="white"/>
<path d="M75.4385 82.4462C74.8403 81.7362 74.1339 81.1304 73.4961 80.4576C73.0758 80.0146 72.4001 79.3258 73.1006 78.829C73.1085 78.8238 73.2449 78.7809 73.1892 78.7891C73.3629 78.7701 73.5382 78.7723 73.7113 78.7957C74.0065 78.8527 74.2888 78.9632 74.5443 79.1217C75.2173 79.5001 75.8571 79.9481 76.5134 80.3555C77.8038 81.1571 79.027 82.0569 80.2456 82.9624C80.7933 83.3568 81.2983 83.8075 81.7522 84.3072C82.244 84.8649 82.4948 85.5742 82.9698 86.1326C83.4897 86.6822 84.0924 87.1472 84.756 87.5107C84.8255 87.5532 85.046 87.7414 85.1185 87.7233C84.9392 87.7671 85.0793 87.1771 84.9626 87.601C84.9352 87.7008 84.9072 87.8004 84.8786 87.9C84.759 88.3153 84.6299 88.7275 84.4913 89.1367C83.8919 90.8833 83.174 92.5869 82.3425 94.2358C82.2786 94.3646 81.7634 95.5338 81.6804 95.5212L81.8122 95.4224C81.9172 95.4147 81.9338 95.4009 81.862 95.3812C81.8412 95.3449 81.6721 95.302 81.6352 95.2866C81.4608 95.214 81.2868 95.1415 81.1114 95.0717C80.4291 94.8021 79.708 94.6433 78.9756 94.6013C77.2415 94.4727 75.5001 94.4991 73.7647 94.3936C72.9506 94.3445 71.9472 94.3686 71.2244 93.9322C70.4887 93.4882 70.0793 92.5205 69.8147 91.7449C69.516 90.8701 69.3156 89.965 69.0453 89.0816C68.9059 88.6946 68.8624 88.2795 68.9188 87.8719C69.0259 87.399 69.1681 86.9347 69.3443 86.483C69.3841 86.3483 69.3861 86.2054 69.3503 86.0697C69.3144 85.934 69.242 85.8107 69.1409 85.7133C68.7124 85.3804 68.1244 84.7878 68.1359 84.1997C68.1491 83.9381 68.2529 83.6891 68.4294 83.4956C68.606 83.302 68.8443 83.1758 69.1037 83.1387C69.8745 83.0688 70.6502 83.0732 71.4202 83.1519C72.2838 83.1844 73.1459 83.2393 74.0067 83.3167C74.216 83.3151 74.4162 83.2312 74.5642 83.0832C74.7122 82.9352 74.7961 82.7349 74.7977 82.5256C74.7936 82.3171 74.7089 82.1183 74.5615 81.9708C74.414 81.8234 74.2152 81.7387 74.0067 81.7346C72.9299 81.6401 71.852 81.5783 70.7728 81.5493C69.8278 81.5256 68.6996 81.3947 67.8604 81.9297C67.4401 82.1871 67.0975 82.5538 66.8694 82.9907C66.6412 83.4276 66.536 83.9183 66.565 84.4103C66.7151 85.3772 67.2383 86.2466 68.0222 86.832L67.8185 86.0624C67.4975 87.0215 67.1975 87.9158 67.3775 88.9392C67.4606 89.4129 67.6376 89.8737 67.7638 90.3374C67.8901 90.8012 68.0077 91.265 68.1471 91.7241C68.4127 92.6997 68.8608 93.6162 69.4676 94.425C69.8072 94.8331 70.2257 95.1686 70.6981 95.4112C71.1704 95.6537 71.6869 95.7985 72.2165 95.8367C74.1837 96.0862 76.1745 96.04 78.1519 96.1333C78.9218 96.1226 79.6878 96.2431 80.4173 96.4896C80.7736 96.6245 81.1213 96.8044 81.4836 96.9231C81.7551 97.0093 82.0471 97.0063 82.3168 96.9146C82.5865 96.8228 82.8197 96.6471 82.9823 96.4132C83.2841 95.9251 83.5504 95.4159 83.7793 94.8897C84.0316 94.3788 84.275 93.8637 84.5094 93.3445C84.9567 92.353 85.3743 91.347 85.7468 90.3252C85.9149 89.8638 86.0728 89.3983 86.2204 88.9287C86.4032 88.4754 86.5251 87.9999 86.583 87.5146C86.6143 86.4648 85.3634 86.0802 84.6713 85.5495C84.4479 85.3906 84.2493 85.1996 84.0819 84.9826C83.8619 84.5707 83.619 84.1715 83.3545 83.7867C82.8445 83.1106 82.2444 82.5074 81.5709 81.994C80.1866 80.9035 78.7447 79.8883 77.2514 78.9526C76.3944 78.4223 75.5638 77.7884 74.6247 77.4124C73.7812 77.0748 72.6375 77.0682 71.9519 77.7374C71.5094 78.1576 71.2379 78.7266 71.1898 79.335C71.2069 79.9482 71.4454 80.5346 71.8612 80.9857C72.5972 81.9214 73.5515 82.6558 74.3178 83.5649C74.4671 83.7116 74.6679 83.7937 74.8772 83.7937C75.0864 83.7937 75.2873 83.7116 75.4365 83.5649C75.5809 83.4145 75.6615 83.214 75.6615 83.0055C75.6615 82.797 75.5809 82.5966 75.4365 82.4462H75.4385Z" fill="#726A69"/>
<path d="M75.3901 78.1395L76.9897 70.983L77.7623 67.5244C77.7734 67.4483 77.7903 67.3731 77.8127 67.2996C77.905 67.0688 78.0701 67.1747 78.2844 67.2228C79.0152 67.3869 79.7462 67.5504 80.4773 67.7132C84.6917 68.654 88.9071 69.592 93.1156 70.5611C95.0092 70.9968 96.9029 71.4359 98.7899 71.9006C99.1507 71.9464 99.5047 72.035 99.8446 72.1643C99.9613 72.2302 99.9485 72.2243 99.96 72.3535C99.9531 72.2761 99.9379 72.4629 99.9294 72.5114L99.8789 72.7906C99.7121 73.71 99.5426 74.6288 99.3703 75.5471C98.634 79.5025 97.8231 83.4469 97.1801 87.4175L97.0482 88.2234L97.8113 87.6426C97.3845 87.6581 96.9575 87.6215 96.5396 87.5335C96.4813 87.5259 96.2631 87.4962 96.4407 87.5206C96.3419 87.5071 96.2413 87.4933 96.1414 87.4791C95.9371 87.4503 95.7327 87.4207 95.5284 87.3904C95.0691 87.3225 94.6105 87.2518 94.1526 87.1782C92.1924 86.8654 90.2345 86.5282 88.2881 86.1369C87.6303 86.0236 86.9795 85.873 86.3388 85.686C85.3674 85.3729 84.9515 86.9 85.9179 87.2118C87.3398 87.6703 88.8801 87.8674 90.3459 88.1297C92.2524 88.4712 94.1644 88.7949 96.0841 89.055C96.6506 89.1826 97.2307 89.2396 97.8113 89.2247C97.9835 89.221 98.15 89.1627 98.2871 89.0584C98.4241 88.954 98.5246 88.8089 98.574 88.6439C99.2003 84.775 99.9679 80.931 100.688 77.0769C100.883 76.0355 101.076 74.9943 101.268 73.9531C101.461 72.9017 101.863 71.6679 100.829 70.9144C100.42 70.6748 99.9689 70.5157 99.5002 70.4457C99.0915 70.3442 98.6824 70.2442 98.273 70.1458C97.3051 69.912 96.3358 69.6827 95.3652 69.4579C90.9201 68.4222 86.4657 67.4291 82.0107 66.435C81.1629 66.2458 80.3151 66.0565 79.4674 65.8671C79.1378 65.7932 78.8081 65.7158 78.4785 65.6453C78.1332 65.5471 77.7662 65.5556 77.4257 65.6698C77.0853 65.784 76.7874 65.9984 76.5711 66.285C76.3602 66.6239 76.224 67.0038 76.1716 67.3994L75.7935 69.0904L73.9085 77.5264L73.8656 77.718C73.6438 78.7098 75.1689 79.1333 75.3911 78.1385L75.3901 78.1395Z" fill="#726A69"/>
<path d="M95.2215 55.0398C100.275 57.18 105.88 59.4797 108.953 64.3062C110.602 66.8956 111.296 69.9528 111.588 72.975C111.91 76.306 111.816 79.675 111.668 83.013C111.482 87.2202 111.101 91.4133 110.526 95.5923C110.478 95.7943 110.508 96.0073 110.61 96.188C110.713 96.3687 110.88 96.5036 111.079 96.5653C111.281 96.6196 111.497 96.592 111.679 96.4887C111.861 96.3853 111.995 96.2144 112.052 96.0129C112.586 92.1564 112.97 88.2818 113.182 84.3944C113.426 80.8944 113.448 77.3825 113.248 73.8798C113.012 70.6535 112.433 67.3627 110.891 64.4825C109.485 61.8558 107.324 59.7532 104.87 58.1006C102.125 56.2524 99.0562 54.9587 96.0212 53.6732C95.8384 53.5743 95.6249 53.5485 95.4239 53.6012C95.2228 53.6539 95.0494 53.7811 94.9387 53.957C94.8343 54.1386 94.8056 54.3539 94.8587 54.5564C94.9118 54.759 95.0425 54.9325 95.2225 55.0395L95.2215 55.0398Z" fill="#119EED"/>
<path d="M59.2161 78.6702C59.4785 84.336 59.6949 90.0037 59.8655 95.6733C59.8961 96.6888 61.4782 96.6931 61.4476 95.6733C61.2769 90.0039 61.0604 84.3363 60.7983 78.6702C60.7511 77.6563 59.169 77.6507 59.2161 78.6702Z" fill="#119EED"/>
<path d="M55.4888 78.2297C55.972 74.3594 56.4736 70.4367 57.8738 66.7707C59.0604 63.6631 60.9844 60.6867 63.7887 58.8152C65.474 57.6902 67.3611 56.9328 69.2501 56.2264C69.4492 56.1658 69.6176 56.0311 69.7204 55.8501C69.8233 55.6691 69.8528 55.4555 69.8028 55.2534C69.7456 55.0519 69.6115 54.881 69.4294 54.7776C69.2473 54.6742 69.0318 54.6466 68.8295 54.7006C67.0134 55.3272 65.259 56.1201 63.5886 57.0692C61.9949 58.0348 60.5908 59.2832 59.4454 60.753C57.0722 63.7854 55.7478 67.4484 54.9739 71.1865C54.4923 73.5129 54.2006 75.8736 53.9066 78.2297C53.9077 78.4391 53.9914 78.6397 54.1396 78.7878C54.2877 78.9359 54.4882 79.0196 54.6977 79.0207C54.9059 79.0156 55.1041 78.9307 55.2514 78.7834C55.3987 78.6361 55.4837 78.4379 55.4888 78.2297Z" fill="#119EED"/>
<path d="M57.3848 87.104L53.793 77.2357C53.5128 76.4648 53.2267 75.6206 52.2613 75.5791C51.888 75.5965 51.5203 75.6763 51.1736 75.8154L49.8495 76.2248L44.8645 77.7657L39.2564 79.4988C39.0564 79.5582 38.8871 79.6928 38.7841 79.8742C38.6812 80.0557 38.6524 80.27 38.704 80.4722C40.0406 85.8053 41.4368 91.1236 42.8429 96.4389C43.1033 97.4222 44.6298 97.0052 44.3687 96.0183C42.9623 90.703 41.567 85.3847 40.2294 80.0516L39.6757 81.024L48.8666 78.183L51.2035 77.4609C51.5523 77.3886 51.8942 77.2863 52.2253 77.155C52.2161 77.1962 52.0421 77.064 52.0391 77.0663C52.0361 77.0686 52.0935 77.1734 52.0955 77.1804C52.1607 77.3938 52.2366 77.6038 52.3229 77.8096L53.9786 82.3582L55.8573 87.5239C55.9177 87.7232 56.0524 87.8917 56.2335 87.9946C56.4145 88.0975 56.6282 88.1269 56.8304 88.0767C57.0318 88.0194 57.2026 87.8853 57.306 87.7032C57.4094 87.5211 57.4371 87.3056 57.3831 87.1033L57.3848 87.104Z" fill="#119EED"/>
<path d="M28.1167 65.8918C28.6488 65.7586 29.2044 65.75 29.7404 65.8664C30.0634 65.9705 30.3785 66.0688 30.6563 66.1581C30.6768 66.0193 30.6929 65.9109 30.6929 65.9109C30.7072 65.7279 30.7633 65.5507 30.8568 65.3929C30.9504 65.2351 31.0789 65.1008 31.2325 65.0005C31.7909 64.5753 32.6307 64.7905 33.0843 64.9161C34.6948 65.3624 41.2408 67.8615 43.4041 69.1872C44.1487 69.6434 45.4912 69.6793 46.7909 68.8576C46.8969 67.9578 47.054 67.0647 47.2615 66.1828C47.3204 65.8125 47.4714 65.463 47.7008 65.1664C47.9302 64.8698 48.2305 64.6357 48.5741 64.4856C48.8102 64.4021 49.0621 64.3727 49.3111 64.3995C49.5601 64.4264 49.7999 64.5089 50.0128 64.6409C50.4232 64.9065 50.6519 65.5789 50.7663 66.0542C51.5363 69.2538 51.8178 69.5382 52.1197 72.6297L52.1454 72.896L51.9242 74.997C51.733 76.7582 50.9387 78.3992 49.6759 79.6418C48.4208 80.8683 46.7384 81.8687 43.8382 81.8394C40.8242 81.312 37.9994 79.7018 36.4275 78.7641C35.2762 78.0772 34.2521 77.3514 32.5889 76.1621C31.7619 75.5711 28.9786 73.3347 28.7489 73.0994C28.3603 72.7015 27.9713 71.949 28.239 71.2842C28.031 71.1345 27.8336 70.9707 27.648 70.7941C27.4356 70.5627 27.2851 70.2815 27.2102 69.9765C27.1353 69.6715 27.1385 69.3525 27.2195 69.0491C27.2353 69.0095 27.2524 68.9713 27.2706 68.9337C26.882 68.2745 26.5939 67.8638 26.9512 66.9172C27.0474 66.6643 27.2038 66.4388 27.4069 66.2601C27.61 66.0814 27.8537 65.955 28.1167 65.8918Z" fill="white"/>
<path d="M47.556 69.0535C47.6621 68.3172 47.7663 67.5851 47.9235 66.8577C48.0688 66.1849 48.3055 65.0896 49.2261 65.1816C49.6286 65.2218 49.7644 65.504 49.8853 65.855C50.0531 66.4039 50.1908 66.9615 50.2977 67.5255C50.5548 68.656 50.7944 69.7912 50.9915 70.9336C51.1573 71.7481 51.2548 72.575 51.2829 73.4057C51.2685 74.0008 51.2104 74.5939 51.1089 75.1804C50.9644 76.0982 50.6403 76.9784 50.1551 77.7707C49.6698 78.563 49.033 79.2518 48.2811 79.7976C47.6267 80.2639 46.8916 80.605 46.1129 80.8036C45.6495 80.9216 45.1761 80.9963 44.6989 81.0267C44.0959 81.0625 43.4913 80.9956 42.9107 80.8289C40.9401 80.2661 39.0551 79.4381 37.3073 78.3677C34.5906 76.7412 32.0194 74.8831 29.6224 72.8141C29.2747 72.5224 28.6099 71.7939 29.071 71.4211C29.4843 71.0869 30.6917 71.7936 31.2065 72.0652C33.2655 73.1625 35.2315 74.426 37.0849 75.8432C37.2663 75.9479 37.4817 75.9768 37.6844 75.9236C37.887 75.8705 38.0605 75.7396 38.1673 75.5594C38.2681 75.3771 38.2949 75.1629 38.2421 74.9614C38.1892 74.7599 38.0608 74.5864 37.8835 74.477C36.0427 73.0711 34.0917 71.8157 32.0494 70.723C31.1924 70.2685 30.1894 69.7065 29.1897 69.7784C28.8881 69.8038 28.5962 69.8972 28.3358 70.0514C28.0754 70.2056 27.8533 70.4168 27.6861 70.669C27.5189 70.9213 27.4109 71.2081 27.3702 71.508C27.3296 71.8079 27.3573 72.1131 27.4513 72.4008C27.6708 73.1767 28.1899 73.6773 28.7836 74.1658C29.4257 74.6932 30.0739 75.2137 30.7283 75.7272C32.2547 76.9403 33.8439 78.0722 35.4895 79.1179C37.3739 80.3402 39.3993 81.33 41.5214 82.0656C42.1405 82.2718 42.7723 82.438 43.4127 82.563C44.0596 82.6588 44.7175 82.6517 45.3621 82.5419C46.4331 82.4187 47.4707 82.0922 48.4192 81.5798C50.369 80.4741 51.8099 78.6507 52.4349 76.4982C52.6298 75.7134 52.7551 74.913 52.8093 74.1062C52.8757 73.1286 52.8147 72.1466 52.6277 71.1848C52.4372 69.9442 52.1837 68.7127 51.9105 67.4885C51.659 66.3596 51.5189 64.7495 50.4931 64.0174C49.9806 63.681 49.3616 63.5463 48.7556 63.6393C48.1496 63.7324 47.5995 64.0466 47.2115 64.5214C46.5675 65.2989 46.3941 66.3161 46.2306 67.2858C46.1551 67.7334 46.0964 68.1837 46.0328 68.633C45.9839 68.835 46.0139 69.048 46.1165 69.2288C46.2191 69.4095 46.3867 69.5444 46.5853 69.606C46.7875 69.6603 47.003 69.6328 47.1851 69.5294C47.3673 69.426 47.5013 69.2551 47.5583 69.0535H47.556Z" fill="#726A69"/>
<path d="M28.6386 70.6021C28.2661 70.3177 27.8448 69.9261 27.9464 69.398C27.9879 69.2293 28.0833 69.0787 28.2182 68.9691C28.353 68.8595 28.5199 68.7968 28.6936 68.7906C29.304 68.7078 29.9616 69.0157 30.5193 69.2375C32.3239 69.969 34.0873 70.7982 35.8017 71.7215C36.7404 72.2016 37.6436 72.748 38.5045 73.3567C38.686 73.4611 38.9014 73.4898 39.1039 73.4367C39.3065 73.3836 39.48 73.2529 39.5869 73.0729C39.688 72.8907 39.7149 72.6765 39.662 72.4749C39.6092 72.2734 39.4806 72.1 39.3032 71.9908C37.4547 70.6324 35.2967 69.638 33.2179 68.6907C32.3071 68.2754 31.3878 67.8667 30.4491 67.5222C29.4649 67.1616 28.2961 67.0054 27.3814 67.6363C27.0414 67.863 26.7684 68.1768 26.591 68.5449C26.4136 68.9131 26.3383 69.3221 26.3728 69.7293C26.4684 70.7491 27.0719 71.3797 27.8429 71.9684C28.0243 72.073 28.2396 72.1019 28.4422 72.0487C28.6448 71.9956 28.8183 71.8648 28.925 71.6846C29.0259 71.5022 29.0527 71.2881 28.9999 71.0865C28.947 70.8849 28.8186 70.7115 28.6412 70.6021H28.6386Z" fill="#726A69"/>
<path d="M39.5161 69.2738C37.3398 68.0945 35.0905 67.0554 32.7818 66.1629C31.016 65.4345 28.4161 64.1174 26.7499 65.7895C26.2948 66.2772 26.0288 66.9115 26 67.578C26.0072 68.1817 26.1969 68.7691 26.5442 69.2629C27.0617 70.139 28.4299 69.344 27.9104 68.4643C27.6579 68.0374 27.4925 67.7668 27.6606 67.2757C27.7138 67.1071 27.8135 66.957 27.9484 66.8427C28.0832 66.7284 28.2476 66.6545 28.4226 66.6297C29.4421 66.3805 30.5701 66.951 31.521 67.3426C33.9582 68.3473 36.425 69.3295 38.7178 70.6387C39.6031 71.1447 40.4011 69.7784 39.5164 69.2725L39.5161 69.2738Z" fill="#726A69"/>
<path d="M31.4841 65.9109C31.5299 65.4739 32.2119 65.523 32.5217 65.5899C32.8449 65.6652 33.1639 65.7572 33.4776 65.8654C34.3567 66.1539 35.2246 66.4769 36.0891 66.8058C38.1551 67.5579 40.1782 68.4231 42.149 69.3976C42.6095 69.6764 43.0893 69.9218 43.5848 70.1319C44.4835 70.3963 45.4458 70.3425 46.3094 69.9797C46.5084 69.9188 46.6765 69.784 46.7793 69.6031C46.882 69.4221 46.9115 69.2087 46.8618 69.0067C46.8048 68.8052 46.6707 68.6342 46.4887 68.5308C46.3066 68.4273 46.0911 68.3997 45.8888 68.4539C45.2296 68.7093 44.4514 68.8725 43.8027 68.5043C43.4362 68.2963 43.071 68.091 42.6932 67.9031C41.6269 67.3721 40.5306 66.9027 39.4321 66.4442C37.4954 65.6018 35.5173 64.8582 33.5053 64.2161C32.8769 63.985 32.2003 63.917 31.5385 64.0183C31.0995 64.1188 30.7041 64.3568 30.4098 64.6977C30.1155 65.0385 29.9376 65.4643 29.902 65.9132C29.9034 66.1226 29.9871 66.323 30.1352 66.4711C30.2833 66.6191 30.4837 66.7029 30.693 66.7043C30.9014 66.6998 31.1 66.615 31.2474 66.4676C31.3948 66.3202 31.4796 66.1216 31.4841 65.9132V65.9109Z" fill="#726A69"/>
<path d="M38.1622 75.716L41.9392 72.2837C42.0862 72.1346 42.1686 71.9337 42.1686 71.7244C42.1686 71.515 42.0862 71.3141 41.9392 71.165C41.7886 71.0209 41.5883 70.9404 41.3798 70.9404C41.1714 70.9404 40.9711 71.0209 40.8205 71.165L37.0435 74.5989C36.8965 74.748 36.8141 74.9489 36.8141 75.1583C36.8141 75.3676 36.8965 75.5685 37.0435 75.7176C37.194 75.8617 37.3944 75.9422 37.6028 75.9422C37.8112 75.9422 38.0116 75.8617 38.1622 75.7176V75.716Z" fill="#726A69"/>
</g>
<path d="M16.0607 35L24 27.0607L31.9393 35L24 42.9393L16.0607 35Z" fill="#64C7FF" stroke="#119EED" stroke-width="1.5"/>
<circle cx="38" cy="18" r="7.25" fill="#FDD000" stroke="#D9B200" stroke-width="1.5"/>
<path d="M36.9558 40.933L44 36.866L51.0442 40.933V49.067L44 53.134L36.9558 49.067V40.933Z" fill="#E99A00" stroke="#D08A00" stroke-width="1.5"/>
</svg>
