<svg width="100" height="80" viewBox="0 0 100 80" fill="none" xmlns="http://www.w3.org/2000/svg">
<mask id="mask0_1621_25719" style="mask-type:alpha" maskUnits="userSpaceOnUse" x="0" y="0" width="100" height="80">
<path d="M0 0H100V80H0V0Z" fill="#D9D9D9"/>
</mask>
<g mask="url(#mask0_1621_25719)">
<path d="M54.9284 44.0359C54.1025 46.5103 53.1359 48.9358 52.0334 51.3006C51.8136 51.7184 51.6508 52.1637 51.5494 52.6246C51.4576 53.1648 51.5427 53.7174 51.6282 54.2588L53.5692 66.615C54.3242 66.4161 56.5065 65.7808 57.2971 65.5817C57.2036 63.8115 56.8536 59.9927 56.5498 57.8486C56.4321 57.017 56.2511 56.0181 56.4097 55.1932C56.5341 54.4293 56.8014 53.6957 57.1978 53.0305C59.032 49.886 61.5337 46.6443 63.3678 43.5002" fill="white"/>
<path d="M40.0821 12.87C40.1374 13.3345 40.2434 13.7915 40.3985 14.233C40.6165 15.0678 40.9213 16.226 40.2821 16.8572C40.1507 16.9774 40.0632 17.1379 40.0334 17.3132C39.9726 17.7784 40.3819 17.8597 40.6724 18.0327C40.8559 18.1452 41.0089 18.3008 41.1182 18.4859C41.2732 18.9262 41.6968 19.8953 42.1403 20.3505C42.4244 20.6694 42.8215 20.8659 43.2479 20.8987C43.9435 20.9448 44.8766 20.6744 45.606 20.5278C46.0264 20.458 46.3722 20.4274 46.7519 20.5818C46.8502 20.6219 46.9435 20.6731 47.0301 20.7343C47.4092 21.0003 47.6666 21.4368 47.8983 21.8506C48.2017 22.3918 48.5483 22.9455 48.8517 23.4867L48.8796 23.5364C48.9111 23.4408 48.9439 23.3457 48.9767 23.2509C49.3824 22.0816 50.285 20.2272 51.0212 18.8947C50.983 18.7815 50.9783 18.6762 50.9436 18.552C50.734 17.813 51.199 16.9813 51.4859 16.2989C51.9609 14.9286 52.0701 13.4586 51.8027 12.0334C51.2337 9.21117 49.4951 7.96908 48.2484 7.58073C46.52 7.02373 44.6413 7.16775 43.0186 7.98166C41.57 8.68603 39.7858 10.2331 40.0821 12.8714" fill="white"/>
<path d="M51.4324 18.1748C50.6619 19.4675 49.4622 21.8497 48.9771 23.2498C48.8132 23.6588 48.7085 24.089 48.6661 24.5274C48.664 24.9251 48.7131 25.3214 48.8123 25.7066L49.7161 29.9625C50.0897 31.5697 51.771 34.7012 52.0921 35.5246C52.0399 35.8025 52.8876 37.5044 53.6654 37.9128C57.2779 38.9933 61.5109 40.0428 65.282 40.0763C66.3093 40.1234 66.1225 38.9117 65.819 37.6772C65.6555 36.5824 64.8565 34.444 64.7331 34.1833L63.998 33.0657C63.2625 31.4934 63.0725 30.8603 62.0996 28.7321C60.1382 24.4407 56.8615 20.5505 51.4324 18.1748Z" fill="#E3EFF6"/>
<path d="M54.2114 66.6463C54.312 67.6579 53.4725 68.7081 52.6654 69.0955C51.8582 69.4829 50.9563 69.7372 50.3118 70.3578C49.8725 70.7807 49.6151 71.5563 50.0673 71.9657C50.4018 72.2684 50.9211 72.1888 51.362 72.0905C53.1794 71.6849 54.8082 71.4374 56.6265 71.0319C57.0678 70.9334 57.7591 70.629 57.9406 70.2156C58.111 69.7383 58.0942 69.2144 57.8933 68.749C57.607 68.1407 57.459 67.0601 57.283 66.1313" fill="white"/>
<path d="M48.6773 24.9194C48.669 24.8309 48.6641 24.7421 48.6639 24.6531C48.307 25.5094 48.0518 26.4045 47.9036 27.3201C47.7914 28.0644 47.6563 28.8178 47.3221 29.4928C47.0316 30.0801 46.602 30.5851 46.1873 31.0923C45.2406 32.2495 44.3501 33.4496 43.5156 34.6928C44.1975 35.3319 44.6599 35.7034 45.2337 36.4405C45.2512 36.4229 45.2685 36.4054 45.2857 36.3878L46.2724 35.3833C46.8556 33.9588 48.1028 32.5919 49.1765 31.2797C49.3958 31.0124 49.6191 30.7451 49.8227 30.4654L48.8124 25.7071C48.7522 25.4474 48.7071 25.1844 48.6773 24.9194Z" fill="white"/>
<path d="M43.0967 34.9996C43.2205 34.8783 43.3597 34.7737 43.5107 34.6885C44.2673 35.398 44.7537 35.7773 45.42 36.6878C45.2676 36.8276 45.0885 36.9353 44.8934 37.0044C44.4264 37.1552 43.9229 36.9804 43.4321 36.9705C42.9041 36.9743 42.3889 37.1328 41.9505 37.4264C41.4653 37.1749 40.9053 36.8801 40.4742 36.8447C40.1894 36.8228 39.904 36.8771 39.6472 37.0019C39.598 36.2532 40.2391 36.0428 40.7896 36.0299C41.1884 36.0203 41.6018 36.0784 41.9755 35.9398C42.4361 35.7681 42.7372 35.3385 43.0967 34.9996Z" fill="white"/>
<path d="M49.9987 53.8554C50.1283 54.5045 49.8884 55.2051 49.4961 55.7656C49.8383 56.031 50.4946 55.9975 50.9194 55.9316C51.5923 55.8272 52.9585 55.62 53.2643 54.4081C53.1093 54.0166 52.9727 53.6186 52.8545 53.2141" fill="white"/>
<path d="M47.547 60.1403C47.7 60.125 47.851 60.0947 47.9981 60.05C49.8895 59.4294 51.31 58.9527 53.3344 58.2924C53.5681 58.2072 53.7796 58.0706 53.9531 57.8927C54.1266 57.7148 54.2576 57.5001 54.3364 57.2647C54.4748 56.841 54.2321 56.3981 54.0166 56.0069C53.7314 55.4904 53.4795 54.9561 53.2627 54.4075C52.9571 55.6195 51.5907 55.8267 50.9178 55.9311C50.493 55.997 49.8367 56.0305 49.4947 55.7653C49.2605 56.1076 48.9591 56.3988 48.6087 56.6214C47.7907 57.1174 46.8576 57.4817 46.237 58.2094C45.814 58.7051 45.6212 59.5569 46.1451 59.9453C46.4314 60.1579 47.0554 60.1956 47.547 60.1403Z" fill="white"/>
<path d="M64.543 40.1C65.1145 41.6976 63.8568 43.4804 62.2767 44.1064C60.6966 44.7325 58.9242 44.5171 57.2376 44.2918C54.8929 43.9774 53.2437 44.35 50.899 44.0362C51.5471 45.7507 51.9645 47.1964 52.1689 47.8909C52.6446 49.6018 53.0027 51.343 53.2407 53.1025C52.5403 53.3819 50.5363 54.0584 49.3666 54.145C47.7956 50.767 46.2319 46.8625 44.6601 43.4827C44.1441 42.3732 43.6707 40.9357 44.5063 40.0395C44.9675 39.5455 45.6853 39.4066 46.3525 39.2939L53.9559 38.0095" fill="white"/>
<path d="M46.6387 35.0085L45.2844 36.3873C45.0388 36.6373 44.78 36.896 44.4456 37.0039C43.9785 37.1547 43.4751 36.9798 42.9843 36.9699C42.3053 36.9563 41.2992 37.363 40.7748 37.7933C40.3415 38.1729 39.9848 38.6314 39.7239 39.1444C39.6275 39.3125 39.438 40.0354 40.0333 40.1459C40.1208 40.1551 40.2091 40.1417 40.2898 40.107C40.3706 40.0723 40.4411 40.0176 40.4945 39.948C40.4115 40.0659 40.1793 40.8442 40.7515 41.0718C40.882 41.1197 41.0258 41.1169 41.1544 41.0641C41.283 41.0113 41.3871 40.9123 41.4461 40.7866C41.3586 41.0893 41.4049 41.6916 42.0007 41.7771C42.0765 41.7826 42.1524 41.7701 42.2224 41.7408C42.2923 41.7115 42.3544 41.6661 42.4035 41.6083C42.6254 41.3557 42.8228 41.0828 42.9931 40.7931C42.8969 40.935 42.8602 41.1089 42.8908 41.2775C42.9213 41.4461 43.0167 41.5961 43.1566 41.6955C43.2428 41.7672 43.5676 41.7781 43.8104 41.5792C44.0513 41.3753 44.2616 41.138 44.435 40.8745C44.5375 40.6548 44.6944 40.4647 44.8909 40.3222C45.0874 40.1797 45.317 40.0895 45.5582 40.0601C45.7549 40.0336 45.9467 39.9793 46.128 39.8988C46.4432 39.751 46.6018 39.403 46.7731 39.0996C47.2098 38.311 47.7541 37.5867 48.3905 36.9475" fill="white"/>
<path d="M53.3638 22.6648C52.4781 23.0179 51.8507 23.8402 51.499 24.7245C51.1474 25.6087 51.0336 26.5659 50.8917 27.5074C50.7795 28.2517 50.6444 29.0051 50.3104 29.6801C50.0198 30.2673 49.5901 30.7723 49.1755 31.2795C48.2289 32.4367 47.1148 33.939 46.5039 34.88C47.1148 35.5467 47.8854 36.3153 48.656 37.1189C49.1529 37.1471 50.9659 36.1943 51.964 35.4157C52.3908 35.0828 52.9898 34.6231 53.2935 34.1757C54.8646 31.8608 56.246 29.4234 57.4244 26.8871" fill="#E3EFF6"/>
<path d="M48.2421 5.68552C47.9474 5.70785 47.6884 5.72703 47.484 5.74134L46.1671 5.98834C45.2363 6.16286 44.2892 6.34288 43.4521 6.78469C42.6186 7.22492 41.938 7.901 41.2944 8.58855C40.173 9.78708 39.1102 10.9699 38.8463 12.5708C38.8246 12.7195 38.8579 12.8709 38.9399 12.9969C39.0219 13.1229 39.1471 13.2149 39.2921 13.2557C39.4159 13.2825 39.5422 13.2961 39.6689 13.2962C40.5673 13.3145 41.4658 13.3137 42.3642 13.2939C46.754 13.3457 47.38 12.5503 51.2591 10.6367C51.691 10.4237 52.0084 9.47892 51.9154 8.75882C51.8544 8.28714 53.1173 6.62385 53.4235 5.84369C53.4439 5.79199 53.4513 5.7361 53.445 5.6809C53.4387 5.62571 53.4189 5.57289 53.3874 5.52708C53.3559 5.48126 53.3137 5.44385 53.2643 5.4181C53.215 5.39236 53.16 5.37907 53.1044 5.3794C52.1654 5.3838 49.7397 5.57279 48.2421 5.68552Z" fill="white"/>
<path d="M57.0879 63.4695C57.0879 56.9931 62.2803 54.4146 66.6238 54.4146C70.9673 54.4146 76.1598 57.1391 76.1598 63.4695C76.1598 69.7999 70.9673 72.5245 66.6238 72.5245C62.2803 72.5245 57.0879 69.946 57.0879 63.4695Z" fill="white"/>
<path d="M23.5898 63.4695C23.5898 56.9931 28.7823 54.4146 33.1258 54.4146C37.4693 54.4146 42.6617 57.1391 42.6617 63.4695C42.6617 69.7999 37.4693 72.5245 33.1258 72.5245C28.7823 72.5245 23.5898 69.946 23.5898 63.4695Z" fill="white"/>
<path d="M58.8761 49.8752C59.2057 48.825 59.5278 47.7917 59.8336 46.807L57.1593 46.3825C56.9842 46.9416 56.6165 48.1645 56.4413 48.7234C53.0543 47.7469 43.5008 45.0492 40.3722 44.1796C40.9554 42.2892 41.4344 40.7154 41.7219 39.7428L39.6414 39.1079C38.4151 43.2571 33.7579 58.1537 32.3594 62.1744L34.4399 62.8093C35.3125 60.3 37.4268 53.6422 39.2 47.9549C40.7105 50.4345 46.2216 58.9997 49.5871 63.9116L54.3917 63.2609C55.0625 61.3319 56.4781 56.9147 57.8979 52.4049C60.1255 55.869 63.1857 60.4965 65.2212 63.4679L67.0426 62.2799C64.9602 59.1653 61.3349 53.6723 58.8761 49.8752ZM51.9579 62.6175L50.7524 61.8604C47.8238 57.4815 42.4716 49.2781 40.8886 46.7196C43.8761 47.5415 52.8224 50.032 55.7029 50.8642C54.3105 55.3014 52.6128 60.7361 51.9585 62.6175H51.9579Z" fill="white"/>
<path d="M40.7744 39.1489C40.2423 39.0756 39.6922 38.9962 39.2365 38.7121C38.7808 38.428 38.4445 37.88 38.5786 37.3612C38.7285 36.7802 39.4067 36.4689 40.006 36.5177C40.6053 36.5664 41.4537 37.1186 42.0057 37.3563C43.3434 37.9322 44.0863 38.2189 45.3707 38.7159C45.69 38.8397 45.9838 39.0209 46.2376 39.2504C46.3331 39.375 46.3886 39.5254 46.3969 39.6819C46.4052 39.8385 46.3658 39.9939 46.284 40.1277C46.1861 40.2492 46.0568 40.3415 45.91 40.3948C45.7632 40.448 45.6046 40.4601 45.4514 40.4298C43.8554 40.1507 42.2893 39.7219 40.7741 39.1492" fill="white"/>
<path d="M63.8968 42.8062C61.2135 42.8437 58.537 43.0854 55.8907 43.5294C55.3894 43.6134 54.8094 43.7663 54.6195 44.2369C54.4753 44.594 54.6302 45.0171 54.9022 45.2903C55.1917 45.5471 55.534 45.7376 55.905 45.8486C58.1664 46.6728 60.5865 46.9714 62.981 46.7214C63.2702 46.6911 63.5768 46.6448 63.797 46.4554C64.0659 46.2244 64.1371 45.8422 64.1696 45.4895C64.2447 44.674 64.2027 43.852 64.0448 43.0483" fill="white"/>
<path d="M52.8857 73.5015C52.8216 73.2067 52.689 72.5914 52.6197 72.2771C52.6144 72.2537 52.6138 72.2295 52.618 72.2059C52.6221 72.1822 52.6309 72.1596 52.6438 72.1394C52.6567 72.1191 52.6734 72.1016 52.6931 72.0878C52.7128 72.074 52.735 72.0643 52.7585 72.0591C53.3427 71.9279 56.4353 71.2277 57.0372 71.0921C57.0608 71.0868 57.0852 71.0862 57.109 71.0904C57.1328 71.0945 57.1556 71.1033 57.1759 71.1162C57.1963 71.1292 57.2139 71.146 57.2277 71.1658C57.2416 71.1856 57.2513 71.2079 57.2565 71.2314C57.323 71.5281 57.4573 72.1314 57.5191 72.4092C57.5299 72.4561 57.5216 72.5054 57.4962 72.5462C57.4708 72.5871 57.4301 72.6163 57.3832 72.6274C56.7874 72.7689 53.6919 73.5011 53.1083 73.6404C53.0845 73.6462 53.0598 73.6472 53.0356 73.6433C53.0115 73.6394 52.9883 73.6307 52.9676 73.6178C52.9469 73.6048 52.9289 73.5879 52.9149 73.5679C52.9008 73.5479 52.8909 73.5253 52.8857 73.5015Z" fill="white"/>
<path d="M48.8496 66.0162C48.8496 63.7334 50.6797 62.8245 52.2105 62.8245C53.7413 62.8245 55.5714 63.7848 55.5714 66.0162C55.5714 68.2475 53.7413 69.2079 52.2105 69.2079C50.6797 69.2079 48.8496 68.2989 48.8496 66.0162Z" fill="white"/>
<path d="M52.7676 68.4844C53.3192 69.9358 54.4043 72.7478 54.4752 72.8885C54.6704 73.2753 55.0849 73.5165 55.4881 73.3729C56.0514 73.1725 55.9687 72.6192 55.8785 72.3676C55.7469 72.0002 54.4259 68.6547 53.9899 67.5686" fill="white"/>
<path d="M51.2962 60.8826C51.6981 61.9816 52.7274 65.0915 52.8488 65.4626C52.9307 65.7173 52.9969 66.2723 52.4279 66.4562C52.0197 66.5867 51.613 66.3336 51.4302 65.9405C51.364 65.8006 50.3174 62.8196 49.7988 61.3259" fill="white"/>
<path d="M47.9271 60.424C48.0216 60.7162 48.2193 61.3258 48.3191 61.6381C48.3339 61.685 48.3667 61.7241 48.4104 61.7469C48.4541 61.7697 48.5051 61.7743 48.5522 61.7596C49.134 61.5777 52.2173 60.6205 52.8172 60.4335C52.8407 60.4262 52.8624 60.4143 52.8813 60.3985C52.9001 60.3827 52.9157 60.3634 52.927 60.3416C52.9383 60.3198 52.9452 60.296 52.9473 60.2716C52.9493 60.2471 52.9465 60.2225 52.939 60.1991C52.8459 59.9038 52.6553 59.304 52.5678 59.0278C52.5534 58.981 52.5209 58.9417 52.4776 58.9186C52.4342 58.8956 52.3835 58.8905 52.3365 58.9045C51.7391 59.0831 48.637 60.0137 48.0514 60.1881C48.0276 60.1952 48.0054 60.2069 47.9861 60.2227C47.9669 60.2385 47.951 60.2579 47.9394 60.2799C47.9278 60.3019 47.9208 60.3259 47.9186 60.3507C47.9165 60.3754 47.9194 60.4003 47.9271 60.424Z" fill="white"/>
<path d="M51.8535 14.7687C51.998 13.8605 51.9805 12.934 51.8016 12.032C51.2342 9.21041 49.495 7.96832 48.2481 7.58044C46.5196 7.02282 44.6404 7.16686 43.0175 7.98137C41.6429 8.64911 39.9649 10.0769 40.0521 12.4768C40.9954 12.3889 41.9667 12.2974 41.9667 12.2974C43.0596 12.2323 43.8985 12.5406 44.6678 12.9577C45.3895 13.3488 45.87 14.3971 46.3896 14.3398C46.4302 13.9747 46.6035 13.6372 46.8768 13.3911C46.9685 13.3162 47.0763 13.2635 47.1918 13.2372C47.3073 13.2108 47.4273 13.2116 47.5425 13.2393C47.8859 13.337 48.0803 13.7019 48.1597 14.0491C48.2363 14.3374 48.2544 14.6381 48.213 14.9335C48.1715 15.2289 48.0714 15.5131 47.9184 15.7694C48.6592 16.4273 49.737 17.3653 50.9289 17.7888C51.025 17.2731 51.2949 16.7519 51.4853 16.298C51.6511 15.7995 51.7742 15.2879 51.8535 14.7687Z" fill="#1492D9"/>
<path d="M48.2421 5.68552C47.9474 5.70785 47.6884 5.72703 47.484 5.74134L46.1671 5.98834C45.2363 6.16286 44.2892 6.34288 43.4521 6.78469C42.6186 7.22492 41.938 7.901 41.2944 8.58855C40.173 9.78708 39.1102 10.9699 38.8463 12.5708C38.8246 12.7195 38.8579 12.8709 38.9399 12.9969C39.0219 13.1229 39.1471 13.2149 39.2921 13.2557C39.4159 13.2825 39.5422 13.2961 39.6689 13.2962C40.5673 13.3145 41.4658 13.3137 42.3642 13.2939C46.754 13.3457 47.38 12.5503 51.2591 10.6367C51.691 10.4237 52.0084 9.47892 51.9154 8.75882C51.8544 8.28714 53.1173 6.62385 53.4235 5.84369C53.4439 5.79199 53.4513 5.7361 53.445 5.6809C53.4387 5.62571 53.4189 5.57289 53.3874 5.52708C53.3559 5.48126 53.3137 5.44385 53.2643 5.4181C53.215 5.39236 53.16 5.37907 53.1044 5.3794C52.1654 5.3838 49.7397 5.57279 48.2421 5.68552Z" fill="#1492D9"/>
<path d="M66.624 52.3152C64.7572 52.3128 62.9099 52.6945 61.1977 53.4364C61.5898 54.0351 61.9892 54.6436 62.3891 55.2519C63.7316 54.6976 65.1705 54.4129 66.6234 54.4139C70.9664 54.4139 76.1593 57.1384 76.1593 63.4688C76.1593 69.7992 70.9669 72.5238 66.6234 72.5238C62.2799 72.5238 57.0874 69.9453 57.0874 63.4688C57.0874 60.0973 58.4959 57.7843 60.4578 56.3392C60.2564 56.0323 60.0563 55.7271 59.8576 55.4234L59.8522 55.4152C59.6543 55.1124 59.4586 54.8125 59.2651 54.5154C57.927 55.4339 56.8359 56.6666 56.088 58.1049C56.0411 58.2507 55.9948 58.3948 55.9491 58.5371L55.9371 58.5744L55.8215 58.9335L55.7909 59.0278C55.7543 59.141 55.7181 59.2531 55.6823 59.364L55.6637 59.4217C55.534 59.8228 55.4091 60.2067 55.2903 60.5705L55.2699 60.6334C55.2362 60.7369 55.203 60.8386 55.1702 60.9386L55.1557 60.9829C55.1195 61.0928 55.0841 61.2006 55.0493 61.3065L55.0453 61.3181C54.9314 62.0298 54.8751 62.7494 54.877 63.4701C54.877 63.649 54.8814 63.8246 54.8877 63.9988C55.3495 64.5684 55.5917 65.284 55.5707 66.0162C55.5741 66.3942 55.5148 66.7701 55.3951 67.1287C57.0211 72.4354 62.1825 74.6245 66.6234 74.6245C71.9733 74.6245 78.3696 71.268 78.3696 63.4701C78.3696 55.6721 71.9747 52.3152 66.624 52.3152Z" fill="#1492D9"/>
<path d="M37.5885 53.0888C37.3717 53.775 37.1567 54.4537 36.9461 55.1171C40.0285 56.2871 42.6593 58.9647 42.6593 63.4703C42.6593 69.8007 37.4669 72.5253 33.1233 72.5253C28.7798 72.5253 23.5874 69.9468 23.5874 63.4703C23.5874 56.9939 28.7798 54.4154 33.1233 54.4154C33.6989 54.4162 34.2734 54.4631 34.8414 54.5556C35.0518 53.8935 35.267 53.2156 35.4835 52.5296C34.7047 52.3884 33.9148 52.3169 33.1232 52.3159C27.7733 52.3159 21.377 55.4919 21.377 63.4703C21.377 71.4488 27.7733 74.6248 33.1232 74.6248C38.4731 74.6248 44.8694 71.2683 44.8694 63.4703C44.8701 57.8011 41.4891 54.48 37.5885 53.0888Z" fill="#1492D9"/>
<path d="M76.7305 26.3996C75.3541 23.4681 73.4835 19.6142 71.8771 16.2176C71.8509 16.1623 71.8363 16.1022 71.834 16.0411C71.8317 15.98 71.8418 15.919 71.8638 15.8619C71.8857 15.8048 71.9189 15.7527 71.9616 15.7087C72.0042 15.6647 72.0553 15.6298 72.1118 15.606C72.1683 15.582 72.2194 15.5469 72.2619 15.5028C72.3045 15.4586 72.3376 15.4063 72.3594 15.349C72.3812 15.2917 72.391 15.2306 72.3885 15.1694C72.386 15.1082 72.371 15.0481 72.3446 14.9928C71.8402 13.9394 71.3316 12.8781 70.8396 11.8442C70.7896 11.7386 70.7005 11.6564 70.591 11.6149C70.4815 11.5734 70.3602 11.5758 70.2525 11.6217C68.4374 12.3907 58.4763 16.6972 55.3936 17.9965C55.338 18.0198 55.2877 18.0542 55.2456 18.0974C55.2036 18.1406 55.1708 18.1918 55.1491 18.248C55.1274 18.3042 55.1173 18.3642 55.1194 18.4243C55.1215 18.4845 55.1357 18.5436 55.1613 18.5982C57.3783 23.3516 60.4338 29.5856 62.1715 33.3742C62.2202 33.4801 62.3083 33.5629 62.4172 33.6052C62.526 33.6474 62.6471 33.6457 62.7547 33.6004C65.7739 32.3361 73.635 28.9055 76.7645 27.581C76.8206 27.5574 76.8714 27.5227 76.9138 27.4791C76.9561 27.4354 76.9892 27.3837 77.0111 27.327C77.033 27.2703 77.0432 27.2098 77.041 27.1491C77.0389 27.0883 77.0245 27.0287 76.9987 26.9736C76.9118 26.7865 76.8224 26.5952 76.7305 26.3996Z" fill="#1492D9"/>
<path d="M47.9275 16.2796C48.7572 17.0021 49.6365 17.6769 50.6652 18.091C50.7619 18.117 50.865 18.1039 50.9521 18.0546C51.0392 18.0052 51.1033 17.9237 51.1305 17.8275C51.1547 17.7311 51.1407 17.6291 51.0915 17.5427C51.0423 17.4562 50.9617 17.392 50.8663 17.3634C50.4044 17.1642 49.9657 16.9152 49.5581 16.6208C49.1778 16.3486 48.8122 16.0566 48.4628 15.746C48.3907 15.6774 48.2949 15.6392 48.1953 15.6392C48.0957 15.6392 47.9999 15.6774 47.9278 15.746C47.8577 15.8172 47.8184 15.913 47.8184 16.0128C47.8184 16.1126 47.8577 16.2084 47.9278 16.2796H47.9275Z" fill="#0A7BBB"/>
<path d="M46.85 14.0681C46.9416 13.8261 47.1692 13.545 47.4201 13.5964C47.4717 13.6106 47.5197 13.6355 47.561 13.6696C47.6023 13.7036 47.6358 13.746 47.6595 13.7939C47.7392 13.9346 47.7927 14.0886 47.8171 14.2484C47.9522 14.9393 47.7048 15.535 47.2303 16.0671C47.1615 16.1389 47.1231 16.2345 47.1231 16.3339C47.1231 16.4333 47.1615 16.5288 47.2303 16.6007C47.3017 16.6706 47.3978 16.7098 47.4978 16.7098C47.5979 16.7098 47.6939 16.6706 47.7653 16.6007C48.1282 16.2225 48.3929 15.7614 48.5362 15.2578C48.6546 14.7693 48.6345 14.2577 48.4784 13.7799C48.3099 13.2841 47.925 12.8287 47.358 12.8365C46.737 12.8447 46.3237 13.3294 46.1204 13.8665C46.0945 13.963 46.1077 14.0658 46.1571 14.1526C46.2065 14.2395 46.2882 14.3035 46.3845 14.3308C46.4812 14.3552 46.5836 14.3414 46.6703 14.2923C46.757 14.2432 46.8213 14.1626 46.8498 14.0673L46.85 14.0681Z" fill="#726A69"/>
<path d="M39.7834 13.4033C39.941 14.2077 40.3021 14.9811 40.2864 15.8148C40.2868 15.9744 40.2607 16.1329 40.2091 16.2838C40.1429 16.431 40.05 16.5647 39.935 16.6782C39.6389 17.0333 39.5266 17.5522 39.8393 17.9343C40.0488 18.1902 40.3846 18.2405 40.6161 18.4603C40.8476 18.6801 40.9198 19.024 41.0574 19.3211C41.4129 20.0898 41.8912 20.8811 42.7335 21.1781C43.1869 21.338 43.6859 21.2824 44.1505 21.2126C44.6749 21.134 45.1881 20.997 45.7073 20.8914C45.7552 20.8782 45.8001 20.8557 45.8393 20.8253C45.8785 20.7948 45.9113 20.757 45.9358 20.7139C45.9603 20.6708 45.9761 20.6233 45.9822 20.5741C45.9884 20.5249 45.9847 20.475 45.9715 20.4272C45.9583 20.3795 45.9358 20.3347 45.9053 20.2956C45.8747 20.2565 45.8368 20.2238 45.7936 20.1994C45.7504 20.1749 45.7028 20.1591 45.6535 20.153C45.6041 20.1469 45.5541 20.1505 45.5062 20.1637C45.0745 20.2515 44.6474 20.3604 44.2137 20.4401C43.8657 20.5043 43.4681 20.5788 43.1169 20.5022C42.3789 20.3415 41.9978 19.5631 41.7104 18.9402C41.5698 18.6361 41.4846 18.3154 41.2682 18.0537C41.1448 17.9051 40.9952 17.7803 40.8268 17.6854C40.695 17.6263 40.5675 17.558 40.4452 17.481C40.4627 17.4943 40.391 17.3924 40.4154 17.4577C40.3985 17.4056 40.4016 17.349 40.4243 17.2991C40.4787 17.1439 40.65 17.0249 40.742 16.8903C40.9398 16.5763 41.0437 16.2126 41.0415 15.8419C41.0683 14.9264 40.6853 14.0838 40.5122 13.2025C40.4847 13.1066 40.4205 13.0252 40.3335 12.976C40.2465 12.9267 40.1436 12.9134 40.0469 12.939C39.9513 12.9673 39.8704 13.0315 39.8212 13.118C39.7719 13.2045 39.7581 13.3067 39.7828 13.4031L39.7834 13.4033Z" fill="#726A69"/>
<path d="M50.9941 10.6751C51.5489 12.0005 51.7099 13.4569 51.4582 14.871C51.3926 15.2443 51.3043 15.6133 51.1937 15.9758C51.0903 16.3158 50.9257 16.6323 50.7919 16.9617C50.6602 17.2732 50.5717 17.6011 50.5287 17.9365C50.5028 18.294 50.5469 18.6532 50.6584 18.994C50.7917 19.4601 51.522 19.2612 51.3879 18.7933C51.2829 18.49 51.2536 18.1656 51.3026 17.8484C51.3737 17.5389 51.4775 17.2377 51.6123 16.95C51.7713 16.6042 51.9036 16.2468 52.0079 15.8809C52.1055 15.5186 52.1809 15.1507 52.2338 14.7794C52.4578 13.3247 52.2815 11.8367 51.7236 10.4743C51.6941 10.3797 51.6296 10.2998 51.5432 10.2508C51.4567 10.2019 51.3549 10.1876 51.2583 10.2108C51.1619 10.2379 51.0801 10.3019 51.0306 10.3888C50.9812 10.4756 50.968 10.5786 50.9941 10.6751Z" fill="#0A7BBB"/>
<path d="M52.2464 68.874C51.2179 69.33 49.8979 69.7473 49.5231 70.9386C49.3539 71.476 49.4947 72.0942 50.0092 72.3874C50.5477 72.6943 51.1946 72.5104 51.7576 72.3884C52.5199 72.223 53.2865 72.0766 54.0526 71.9315C54.1488 71.9041 54.2304 71.8401 54.2799 71.7533C54.3293 71.6665 54.3425 71.5638 54.3167 71.4673C54.2883 71.372 54.2239 71.2913 54.1372 71.2422C54.0505 71.1931 53.9481 71.1794 53.8514 71.2038C53.1097 71.3441 52.3681 71.4859 51.6301 71.6441C51.2945 71.7162 50.4399 72.0271 50.2409 71.5812C50.0473 71.1469 50.5161 70.6351 50.8444 70.4004C51.3853 70.0138 52.0251 69.7932 52.6282 69.5254C52.7143 69.4744 52.7768 69.3917 52.8022 69.295C52.8276 69.1984 52.8138 69.0957 52.7639 69.0091C52.7116 68.9245 52.6287 68.8633 52.5323 68.8381C52.436 68.8129 52.3336 68.8256 52.2464 68.8737V68.874Z" fill="#726A69"/>
<path d="M55.5567 71.6422C56.24 71.5046 56.9518 71.4046 57.5715 71.0682C57.6575 71.017 57.7199 70.9342 57.7453 70.8377C57.7706 70.7411 57.757 70.6385 57.7072 70.5518C57.6552 70.467 57.5723 70.4055 57.4758 70.3803C57.3794 70.355 57.2769 70.368 57.1898 70.4165C57.1189 70.455 57.0467 70.4902 56.9732 70.5235C56.9326 70.5411 56.9313 70.5418 56.9691 70.5256C56.9482 70.5339 56.9272 70.5422 56.9061 70.5501C56.8752 70.5619 56.8441 70.5732 56.8128 70.5839C56.6693 70.6314 56.523 70.6703 56.3749 70.7004C56.0357 70.7748 55.6959 70.8462 55.3554 70.9145C55.259 70.9416 55.1772 71.0056 55.1277 71.0925C55.0783 71.1794 55.0652 71.2822 55.0912 71.3787C55.12 71.4738 55.1844 71.5543 55.271 71.6034C55.3576 71.6524 55.4599 71.6663 55.5565 71.6422H55.5567Z" fill="#726A69"/>
<path d="M60.9411 46.6173C60.1984 47.7232 59.4427 48.8204 58.706 49.9301C58.6809 49.9729 58.6646 50.0201 58.6578 50.0692C58.6511 50.1183 58.6541 50.1683 58.6667 50.2162C58.6792 50.2642 58.7012 50.3092 58.7312 50.3486C58.7612 50.3881 58.7988 50.4213 58.8417 50.4463C58.8845 50.4713 58.932 50.4877 58.9812 50.4944C59.0304 50.5012 59.0805 50.4982 59.1285 50.4856C59.1766 50.473 59.2217 50.4512 59.2613 50.4212C59.3008 50.3912 59.3341 50.3538 59.3592 50.311C60.0961 49.2012 60.8517 48.104 61.5942 46.9983C61.6449 46.9119 61.659 46.8089 61.6336 46.7121C61.6082 46.6153 61.5452 46.5325 61.4586 46.482C61.372 46.4315 61.2688 46.4174 61.1717 46.4427C61.0747 46.4681 60.9917 46.5309 60.9411 46.6173Z" fill="#726A69"/>
<path d="M56.8113 57.0271V57.0255C56.8086 56.9263 56.7679 56.8319 56.6975 56.7617C56.6271 56.6915 56.5325 56.6509 56.433 56.6482L56.3324 56.6617C56.2693 56.6791 56.2118 56.7125 56.1655 56.7587L56.1064 56.8351C56.0724 56.8928 56.0545 56.9586 56.0547 57.0255V57.0271C56.0572 57.1264 56.0979 57.2209 56.1683 57.2911C56.2387 57.3613 56.3335 57.4019 56.433 57.4045L56.5335 57.3909C56.5967 57.3736 56.6542 57.3402 56.7005 57.2939L56.7596 57.2177C56.7935 57.1599 56.8113 57.0941 56.8113 57.0271Z" fill="#726A69"/>
<path d="M54.2596 44.8893C54.2596 44.7735 54.2047 44.9857 54.1965 45.0104C54.1772 45.0652 54.1577 45.1201 54.1382 45.175C54.0927 45.303 54.0468 45.4308 54.0006 45.5583C53.9114 45.8045 53.8208 46.0502 53.7287 46.2953C53.5415 46.7943 53.3485 47.2911 53.1498 47.7858C53.1238 47.8822 53.1369 47.985 53.1864 48.0719C53.2358 48.1588 53.3176 48.2227 53.4139 48.2499C53.5106 48.2742 53.6129 48.2603 53.6996 48.2112C53.7862 48.1621 53.8506 48.0816 53.8792 47.9864C54.085 47.4737 54.2846 46.9587 54.4782 46.4415C54.5734 46.1873 54.6671 45.9324 54.7594 45.6769C54.8054 45.5492 54.8511 45.4213 54.8965 45.2933C54.9578 45.1659 54.9982 45.0295 55.0161 44.8893C55.0161 44.4038 54.2596 44.403 54.2596 44.8893Z" fill="#726A69"/>
<path d="M48.3007 24.5538C48.0232 25.2337 47.8033 25.9357 47.6434 26.6523C47.4935 27.3598 47.433 28.0813 47.2087 28.773C46.9866 29.4571 46.5725 30.0289 46.1211 30.5811C45.6398 31.1704 45.165 31.7642 44.7068 32.3716C44.1814 33.0678 43.6757 33.778 43.1897 34.5023C43.148 34.5744 43.1311 34.6583 43.1418 34.7409C43.1525 34.8235 43.1901 34.9003 43.2488 34.9595C43.8487 35.5205 44.4582 36.0588 44.9669 36.7072C45.0381 36.7775 45.1342 36.8169 45.2344 36.8169C45.3345 36.8169 45.4306 36.7775 45.5018 36.7072C45.5705 36.6353 45.6089 36.5398 45.6089 36.4404C45.6089 36.3411 45.5705 36.2455 45.5018 36.1736C44.9932 35.5252 44.3835 34.9869 43.7838 34.4259L43.8429 34.8831C44.7055 33.6002 45.6284 32.3623 46.6115 31.1693C47.0865 30.5893 47.5348 30.0041 47.8176 29.3044C48.0948 28.6183 48.1826 27.8923 48.3108 27.1699C48.4688 26.3429 48.7096 25.5338 49.0295 24.7547C49.0555 24.6582 49.0424 24.5554 48.9929 24.4685C48.9435 24.3816 48.8617 24.3177 48.7653 24.2904C48.6687 24.2662 48.5664 24.2801 48.4797 24.3292C48.393 24.3783 48.3287 24.4589 48.3 24.5541L48.3007 24.5538Z" fill="#726A69"/>
<path d="M43.4254 34.3106C43.0991 34.4819 42.8088 34.7141 42.5702 34.9945C42.3418 35.2348 42.1057 35.5134 41.774 35.6068C41.346 35.7266 40.8789 35.6187 40.4401 35.6854C40.2348 35.708 40.037 35.7754 39.8608 35.8828C39.6845 35.9901 39.5341 36.1349 39.4202 36.3067C39.1629 36.7207 39.8172 37.1001 40.0733 36.6877C40.231 36.4352 40.59 36.4078 40.8592 36.4055C41.3321 36.4014 41.796 36.4369 42.2384 36.2351C42.8704 35.9458 43.1811 35.2478 43.8073 34.9626C43.8934 34.9116 43.9558 34.8288 43.9812 34.7322C44.0066 34.6356 43.9929 34.5329 43.943 34.4463C43.8908 34.3616 43.8078 34.3003 43.7114 34.2751C43.615 34.2499 43.5126 34.2627 43.4254 34.3109V34.3106Z" fill="#726A69"/>
<path d="M62.4889 55.6143C63.6924 55.1151 64.9768 54.8381 66.2796 54.7968C67.0948 54.7692 67.9104 54.8385 68.7091 55.0032C70.2881 55.3073 71.7635 56.0072 72.9964 57.0371C74.3282 58.1899 75.2392 59.7507 75.5867 61.4751C75.982 63.3738 75.8277 65.4971 75.0007 67.2658C74.2811 68.7806 73.1057 70.0337 71.6383 70.8505C70.255 71.6231 68.7102 72.0634 67.1265 72.1363C65.5764 72.2159 64.0278 71.9533 62.5912 71.3673C61.1021 70.7763 59.8171 69.7667 58.8923 68.4612C57.7852 66.8397 57.3913 64.8754 57.4797 62.9362C57.5713 60.9289 58.2713 58.9708 59.685 57.5119C59.983 57.2031 60.3058 56.9191 60.6502 56.6629C60.7346 56.6103 60.7957 56.5276 60.8209 56.4316C60.8461 56.3356 60.8336 56.2336 60.7859 56.1466C60.7349 56.0607 60.6519 55.9983 60.5551 55.973C60.4582 55.9476 60.3553 55.9614 60.2685 56.0112C58.5972 57.2402 57.4267 59.0294 56.972 61.0503C56.4858 63.2029 56.641 65.574 57.5447 67.5981C58.2924 69.2286 59.5354 70.5831 61.0976 71.47C62.5702 72.2918 64.2091 72.7731 65.8932 72.8783C67.5773 72.9834 69.2636 72.7099 70.8275 72.0777C72.5024 71.4126 73.9479 70.277 74.9887 68.8088C76.1636 67.1071 76.6196 65.0075 76.527 62.9625C76.4358 60.946 75.7724 58.999 74.4636 57.4438C73.3318 56.0995 71.7821 55.1483 70.1209 54.598C68.216 53.9781 66.1806 53.8712 64.2209 54.2881C63.5595 54.4268 62.9125 54.6268 62.2884 54.8856C62.1934 54.9149 62.1132 54.9793 62.0642 55.0655C62.0151 55.1517 62.0008 55.2534 62.0242 55.3497C62.0514 55.4459 62.1155 55.5275 62.2026 55.5768C62.2897 55.6262 62.3928 55.6393 62.4895 55.6132L62.4889 55.6143Z" fill="#0A7BBB"/>
<path d="M67.8947 61.4088C68.6277 59.892 69.3903 58.3901 70.1826 56.903C70.411 56.4743 69.7583 56.0925 69.5294 56.5221C68.7371 58.0088 67.9745 59.5108 67.2416 61.028C67.1935 61.115 67.1808 61.2171 67.2061 61.3132C67.2313 61.4092 67.2926 61.4919 67.3773 61.5442C67.4641 61.5939 67.567 61.6075 67.6638 61.5822C67.7606 61.5569 67.8435 61.4946 67.8947 61.4088Z" fill="#726A69"/>
<path d="M67.4908 65.9493C68.4537 67.3789 69.3483 68.8663 70.227 70.3486C70.4747 70.7664 71.1289 70.3871 70.8802 69.9676C70.0016 68.4853 69.107 66.9981 68.1439 65.5683C67.8739 65.1672 67.2183 65.5446 67.4908 65.9493Z" fill="#726A69"/>
<path d="M69.075 64.7439C70.4677 65.2701 71.8398 65.8701 73.1994 66.4754C73.2867 66.5229 73.3889 66.5354 73.4851 66.5102C73.5814 66.485 73.6643 66.4242 73.717 66.34C73.7669 66.2534 73.7806 66.1507 73.7552 66.0541C73.7298 65.9575 73.6674 65.8748 73.5813 65.8237C72.1627 65.192 70.7298 64.5659 69.2761 64.0156C69.1794 63.9898 69.0764 64.003 68.9893 64.0523C68.9023 64.1016 68.8382 64.1831 68.8108 64.2791C68.7861 64.3756 68.7999 64.4779 68.8491 64.5645C68.8984 64.6512 68.9793 64.7154 69.075 64.7439Z" fill="#726A69"/>
<path d="M61.3879 53.7626C63.3941 52.8993 65.5846 52.5488 67.7609 52.7429C69.2518 52.8758 70.7081 53.2665 72.0647 53.8976C73.4796 54.5531 74.7323 55.5116 75.7337 56.7049C76.799 58.0225 77.5105 59.589 77.801 61.2567C78.1554 63.1679 78.0447 65.1359 77.4784 66.9955C76.9914 68.5531 76.117 69.9624 74.9366 71.0919C73.8229 72.1374 72.5056 72.9433 71.0665 73.4596C69.4181 74.0582 67.6659 74.3203 65.9141 74.2301C64.1622 74.1399 62.4464 73.6994 60.8685 72.9347C59.6495 72.3627 58.5647 71.5413 57.6846 70.5239C56.8045 69.5065 56.1487 68.3158 55.7599 67.0292C55.6168 66.5664 54.8862 66.7639 55.0305 67.2298C55.7175 69.4643 57.1356 71.4046 59.0583 72.7404C60.8452 73.9872 62.9792 74.6873 65.1365 74.9211C66.8167 75.1016 68.5158 74.9718 70.1488 74.5381C71.7283 74.1295 73.2121 73.4155 74.5158 72.4366C75.8906 71.4003 76.9885 70.0423 77.7126 68.4826C78.5211 66.6453 78.868 64.639 78.7231 62.6377C78.6326 60.7304 78.0597 58.8769 77.0577 57.25C76.143 55.8308 74.9091 54.6439 73.4539 53.7838C72.0613 52.9602 70.5274 52.4022 68.9303 52.1381C66.8959 51.7954 64.8108 51.9043 62.8235 52.4571C62.2032 52.6323 61.596 52.8508 61.0064 53.1109C60.9203 53.1618 60.8577 53.2446 60.8323 53.3412C60.8069 53.4379 60.8207 53.5406 60.8707 53.6272C60.923 53.7117 61.006 53.7729 61.1023 53.7981C61.1986 53.8233 61.301 53.8106 61.3882 53.7626H61.3879Z" fill="#0A7BBB"/>
<path d="M56.4148 58.2949C57.1362 56.917 58.1796 55.7325 59.4567 54.8416C59.5414 54.7893 59.6027 54.7066 59.6279 54.6105C59.6532 54.5144 59.6405 54.4123 59.5924 54.3253C59.5412 54.2395 59.4583 54.1772 59.3614 54.1518C59.2646 54.1265 59.1617 54.1402 59.0749 54.1899C57.6867 55.1482 56.5503 56.4258 55.7616 57.9147C55.5359 58.3446 56.1886 58.7265 56.4148 58.2957V58.2949Z" fill="#0A7BBB"/>
<path d="M54.6691 61.3168C54.6691 61.1827 54.6581 61.3743 54.6534 61.4031C54.6464 61.4503 54.64 61.4965 54.6335 61.5432C54.6159 61.6712 54.5992 61.7992 54.5846 61.9275C54.5599 62.1457 54.5407 62.3644 54.5273 62.5837C54.4973 63.0544 54.492 63.5263 54.5115 63.9975C54.5115 64.0976 54.5514 64.1936 54.6223 64.2643C54.6933 64.3351 54.7895 64.3748 54.8898 64.3748C54.9901 64.3748 55.0863 64.3351 55.1573 64.2643C55.2282 64.1936 55.2681 64.0976 55.2681 63.9975C55.2486 63.5263 55.2539 63.0544 55.2838 62.5837C55.2976 62.3645 55.3167 62.1458 55.3412 61.9275C55.3521 61.8312 55.3645 61.7287 55.3761 61.6503C55.4003 61.5404 55.4167 61.429 55.4252 61.3168C55.4252 61.2167 55.3854 61.1207 55.3144 61.05C55.2435 60.9792 55.1473 60.9395 55.0469 60.9395C54.9466 60.9395 54.8504 60.9792 54.7795 61.05C54.7085 61.1207 54.6687 61.2167 54.6687 61.3168H54.6691Z" fill="#726A69"/>
<path d="M36.8469 55.479C38.4927 56.1079 39.9928 57.2085 40.9623 58.7022C42.1129 60.4746 42.453 62.6486 42.2097 64.7239C42.0108 66.5348 41.2016 68.2246 39.9146 69.517C38.7176 70.6645 37.2324 71.4684 35.6155 71.8439C34.0896 72.214 32.5005 72.2433 30.9618 71.9299C29.377 71.604 27.8615 70.9367 26.654 69.8742C25.3204 68.6843 24.4294 67.0796 24.1257 65.3208C23.7643 63.3638 23.9539 61.1867 24.8535 59.3933C25.6153 57.9019 26.8311 56.6894 28.3264 55.9298C30.3062 54.9306 32.5504 54.5765 34.7426 54.9174C34.8393 54.941 34.9413 54.9269 35.0278 54.8779C35.1143 54.8289 35.1787 54.7488 35.2079 54.6539C35.2338 54.5574 35.2206 54.4547 35.1712 54.3679C35.1217 54.281 35.0401 54.2171 34.9438 54.1898C32.9989 53.8723 31.0048 54.0624 29.1554 54.7413C27.454 55.3514 25.9694 56.446 24.8856 57.8895C23.6415 59.5903 23.157 61.723 23.2157 63.8032C23.2737 65.867 23.9008 67.8811 25.2261 69.4871C26.3516 70.8509 27.9146 71.8042 29.5879 72.3477C31.2081 72.8704 32.9253 73.0241 34.6129 72.7974C36.3719 72.5777 38.0464 71.9166 39.4796 70.8759C41.0274 69.7312 42.1503 68.1062 42.6721 66.256C43.2909 64.0371 43.1484 61.6756 42.2672 59.5468C41.4674 57.7381 40.0784 56.2521 38.3256 55.3297C37.9124 55.1096 37.4854 54.9162 37.0473 54.7508C36.9506 54.7249 36.8476 54.7381 36.7605 54.7874C36.6735 54.8367 36.6094 54.9182 36.5821 55.0143C36.5576 55.1107 36.5714 55.2128 36.6207 55.2993C36.6699 55.3858 36.7507 55.4499 36.8462 55.4784L36.8469 55.479Z" fill="#0A7BBB"/>
<path d="M35.2546 64.8521C36.8911 65.6382 38.5116 66.4568 40.1159 67.308C40.5457 67.5359 40.9284 66.8847 40.4978 66.6564C38.8938 65.8058 37.2733 64.9871 35.6364 64.2004C35.5492 64.1525 35.4469 64.1398 35.3506 64.165C35.2543 64.1902 35.1713 64.2513 35.1189 64.3357C35.0691 64.4224 35.0555 64.525 35.0808 64.6216C35.1062 64.7182 35.1686 64.801 35.2546 64.8521Z" fill="#726A69"/>
<path d="M30.7015 64.4481C29.2682 65.4086 27.7772 66.301 26.2911 67.1776C25.8723 67.4246 26.2525 68.0772 26.673 67.8293C28.1591 66.9527 29.65 66.0603 31.0834 65.0998C31.4855 64.8303 31.1072 64.1763 30.7015 64.4481Z" fill="#726A69"/>
<path d="M31.9105 66.0279C31.3829 67.4172 30.7814 68.7858 30.1746 70.1421C30.127 70.2292 30.1145 70.3311 30.1397 70.4271C30.1649 70.5231 30.226 70.6058 30.3103 70.6584C30.3971 70.7082 30.5001 70.7219 30.5969 70.6966C30.6938 70.6713 30.7768 70.6089 30.8279 70.523C31.4612 69.108 32.0889 67.6787 32.6405 66.2286C32.6664 66.1321 32.6532 66.0294 32.6038 65.9425C32.5543 65.8557 32.4727 65.7917 32.3764 65.7644C32.2797 65.7401 32.1774 65.7539 32.0907 65.803C32.004 65.8521 31.9396 65.9327 31.9111 66.0279H31.9105Z" fill="#726A69"/>
<path d="M37.4887 53.4527C39.551 54.1917 41.4492 55.5045 42.7048 57.3271C44.1977 59.4943 44.6826 62.1744 44.4317 64.7639C44.2339 67.0613 43.2517 69.2214 41.6492 70.8833C40.1956 72.356 38.3189 73.334 36.3217 73.8434C34.4224 74.322 32.4401 74.3729 30.5186 73.9925C28.5366 73.5973 26.6343 72.7689 25.1183 71.4454C23.4385 69.9564 22.3193 67.9395 21.9464 65.729C21.505 63.2885 21.7508 60.5856 22.8842 58.3569C23.8488 56.4991 25.3802 54.9951 27.2573 54.0618C29.7712 52.8151 32.6196 52.4054 35.3842 52.893C35.4808 52.9168 35.5829 52.9027 35.6694 52.8537C35.756 52.8047 35.8204 52.7244 35.8495 52.6295C35.8753 52.533 35.8621 52.4303 35.8126 52.3435C35.7632 52.2566 35.6816 52.1927 35.5853 52.1654C33.1559 51.7273 30.6535 51.9379 28.332 52.7759C26.2514 53.5395 24.3887 54.8247 23.0691 56.616C21.5358 58.6987 20.9368 61.3107 21.0052 63.8655C21.0735 66.394 21.8395 68.8686 23.4674 70.8341C24.8614 72.5164 26.7971 73.6889 28.8695 74.3475C30.8785 74.9805 33.0046 75.154 35.0901 74.855C37.2399 74.5649 39.2801 73.7324 41.0175 72.4364C42.9034 71.0039 44.2538 68.9824 44.8531 66.6946C45.5544 64.0069 45.369 60.9925 44.2135 58.4568C43.2104 56.2556 41.409 54.4947 39.261 53.3999C38.7522 53.1418 38.2275 52.9164 37.69 52.7251C37.5933 52.6994 37.4903 52.7126 37.4033 52.7619C37.3163 52.8112 37.2521 52.8926 37.2247 52.9886C37.2 53.085 37.2138 53.1872 37.263 53.2737C37.3123 53.3603 37.3931 53.4244 37.4887 53.4527Z" fill="#0A7BBB"/>
<path d="M65.6757 63.47C65.6757 63.4301 65.679 63.3904 65.6801 63.3505C65.6834 63.2351 65.6628 63.4107 65.6856 63.3019C65.7003 63.2338 65.7184 63.1664 65.7399 63.1C65.7446 63.0843 65.7698 63.0354 65.7399 63.0988C65.7537 63.0699 65.7681 63.0412 65.784 63.0134C65.7999 62.9856 65.8174 62.9607 65.834 62.9348C65.8592 62.9002 65.8579 62.9013 65.8305 62.9378C65.8433 62.9221 65.8565 62.9071 65.8702 62.8922C65.9043 62.8554 65.9415 62.8229 65.9787 62.7894C65.9118 62.8494 65.982 62.7873 65.9968 62.7774C66.0211 62.7609 66.0461 62.746 66.0715 62.7302C66.1139 62.7057 66.1577 62.6842 66.2023 62.6639C66.1152 62.7034 66.2044 62.665 66.2206 62.6595C66.2572 62.6467 66.2939 62.6355 66.3309 62.6258C66.3782 62.6137 66.4242 62.6053 66.4715 62.5963C66.5661 62.5782 66.388 62.5999 66.4835 62.5963C66.5114 62.595 66.5392 62.592 66.5672 62.5909C66.6138 62.5894 66.6602 62.5899 66.7065 62.5925C66.7351 62.5941 66.7634 62.5972 66.7918 62.5997C66.6853 62.5898 66.8128 62.6051 66.8342 62.6097C66.8821 62.6198 66.9294 62.6323 66.9761 62.6472C67.0044 62.6562 67.032 62.6669 67.0601 62.6766C66.9723 62.6452 67.0632 62.6785 67.079 62.6862C67.1329 62.7124 67.185 62.7423 67.2349 62.7755C67.2516 62.7867 67.268 62.7983 67.2841 62.8101C67.2092 62.7552 67.3104 62.8364 67.3233 62.8488C67.3455 62.87 67.3652 62.8934 67.3871 62.9148C67.4563 62.9829 67.3512 62.8537 67.4051 62.9357C67.4344 62.9802 67.46 63.0263 67.4875 63.0719C67.5394 63.1579 67.4694 63.0055 67.5025 63.1033C67.5137 63.1359 67.5251 63.168 67.534 63.2011C67.5421 63.2296 67.5487 63.2584 67.5547 63.2875C67.5585 63.3052 67.5616 63.3231 67.5645 63.3411C67.5594 63.3022 67.5593 63.3063 67.5645 63.353C67.5673 63.4327 67.5673 63.5102 67.5645 63.5903C67.5601 63.7088 67.5733 63.554 67.5615 63.6203C67.5563 63.6499 67.5504 63.6793 67.5432 63.7084C67.5349 63.742 67.5251 63.7753 67.5139 63.8082C67.5099 63.8201 67.4639 63.9164 67.5019 63.8417C67.4727 63.8986 67.4404 63.9538 67.4051 64.0071C67.3512 64.089 67.4563 63.9599 67.3871 64.0278C67.3652 64.0494 67.3455 64.0728 67.3233 64.094C67.3011 64.1153 67.2782 64.1346 67.2552 64.1544C67.312 64.1055 67.2748 64.1404 67.2596 64.1503C67.2099 64.1839 67.1585 64.2149 67.1056 64.2432C67.0792 64.2569 67.052 64.2697 67.0248 64.2816C67.1112 64.2439 67.009 64.2847 66.9901 64.291C66.9388 64.3078 66.8867 64.3219 66.8339 64.3332C66.8055 64.3391 66.7768 64.3437 66.7482 64.3489C66.8486 64.3313 66.7546 64.347 66.7346 64.3489C66.6873 64.3525 66.6413 64.3538 66.5945 64.353C66.5667 64.353 66.539 64.3517 66.5113 64.3492C66.4925 64.3479 66.4737 64.3462 66.4551 64.3442C66.5087 64.352 66.5141 64.3528 66.4709 64.3462C66.4142 64.3354 66.3581 64.3247 66.3023 64.309C66.2744 64.3011 66.2467 64.2924 66.2192 64.283C66.2007 64.2767 66.1825 64.27 66.1645 64.2629C66.2097 64.2826 66.2129 64.2838 66.1741 64.2665C66.1218 64.2396 66.0696 64.2135 66.02 64.1816C65.9951 64.1658 65.9708 64.149 65.9471 64.1311C66.0233 64.1885 65.9237 64.1061 65.9107 64.0936C65.8978 64.081 65.8824 64.0653 65.8688 64.0505C65.8552 64.0357 65.8418 64.0204 65.8291 64.0049C65.8565 64.0415 65.8578 64.0425 65.8325 64.008C65.816 63.9815 65.7982 63.956 65.7826 63.9294C65.7767 63.9193 65.7273 63.8194 65.7446 63.859C65.767 63.9104 65.7271 63.8088 65.7279 63.8109C65.7133 63.7667 65.7012 63.7218 65.6916 63.6763C65.6904 63.67 65.6749 63.5541 65.6827 63.6305C65.6773 63.578 65.6754 63.5255 65.6748 63.4733C65.6748 63.3732 65.6349 63.2772 65.564 63.2065C65.493 63.1357 65.3968 63.096 65.2965 63.096C65.1962 63.096 65.0999 63.1357 65.029 63.2065C64.9581 63.2772 64.9182 63.3732 64.9182 63.4733C64.9142 63.8617 65.0472 64.2391 65.294 64.5396C65.5077 64.7816 65.7886 64.955 66.1011 65.0379C66.407 65.1262 66.7306 65.134 67.0404 65.0605C67.3502 64.987 67.6357 64.8347 67.869 64.6185C68.1297 64.3441 68.2895 63.9895 68.3222 63.6128C68.3548 63.2361 68.2585 62.8594 68.0488 62.5444C67.8486 62.2807 67.5789 62.0777 67.2697 61.9581C66.9605 61.8385 66.6241 61.807 66.298 61.8671C65.9461 61.9193 65.6197 62.0808 65.3652 62.3288C65.0715 62.6371 64.911 63.0481 64.9182 63.4733C64.9182 63.5734 64.9581 63.6694 65.029 63.7401C65.0999 63.8109 65.1962 63.8506 65.2965 63.8506C65.3968 63.8506 65.493 63.8109 65.564 63.7401C65.6349 63.6694 65.6748 63.5734 65.6748 63.4733L65.6757 63.47Z" fill="#726A69"/>
<path d="M67.3703 62.0895C65.2124 58.8625 63.0728 55.6231 60.9517 52.3712C60.3673 51.477 59.7846 50.5816 59.2037 49.685L59.2419 49.9759C59.5627 48.9536 59.8818 47.9308 60.1994 46.9076C60.3438 46.4427 59.6137 46.2438 59.4699 46.707C59.2526 47.4069 59.0346 48.1065 58.816 48.8058L58.6532 49.3262C58.597 49.505 58.4798 49.7377 58.5056 49.9257C58.5463 50.0693 58.617 50.2027 58.713 50.3171L58.9397 50.6666C59.5727 51.6414 60.2079 52.6152 60.8453 53.5882C62.1671 55.6064 63.4946 57.6209 64.8279 59.6316C65.4558 60.5789 66.0856 61.5252 66.7171 62.4705C66.986 62.8725 67.6415 62.4952 67.3703 62.0895Z" fill="#726A69"/>
<path d="M32.1793 63.4699C32.1793 63.4299 32.1825 63.3903 32.1836 63.3504C32.1869 63.235 32.1662 63.4106 32.1891 63.3018C32.2036 63.2329 32.2222 63.1671 32.2433 63.0999C32.248 63.0842 32.2734 63.0353 32.2433 63.0987C32.2572 63.0697 32.2715 63.0411 32.2874 63.0133C32.3034 62.9855 32.3209 62.9606 32.3376 62.9347C32.3626 62.9001 32.3614 62.9012 32.3339 62.9377C32.3467 62.9219 32.3601 62.907 32.3737 62.8921C32.4077 62.8553 32.4449 62.8227 32.4821 62.7892C32.4153 62.8493 32.4854 62.7872 32.5002 62.7773C32.5245 62.7608 32.5496 62.7459 32.5751 62.7301C32.6173 62.7056 32.6612 62.6841 32.7058 62.6638C32.6186 62.7032 32.7078 62.6649 32.724 62.6594C32.7606 62.6466 32.7974 62.6354 32.8344 62.6257C32.8817 62.6136 32.9278 62.6051 32.975 62.5962C33.0695 62.5781 32.8914 62.5998 32.987 62.5962C33.0149 62.5949 33.0428 62.5919 33.0707 62.5908C33.1171 62.5893 33.1635 62.5898 33.21 62.5924C33.2385 62.594 33.2669 62.5971 33.2953 62.5996C33.1887 62.5897 33.3162 62.605 33.3378 62.6095C33.3851 62.6198 33.4324 62.6322 33.4797 62.6471C33.508 62.6561 33.5356 62.6668 33.5637 62.6765C33.4759 62.6451 33.5668 62.6784 33.5826 62.6861C33.6365 62.7123 33.6886 62.7421 33.7385 62.7754C33.7552 62.7866 33.7716 62.7982 33.7878 62.81C33.7128 62.7551 33.8141 62.8363 33.8271 62.8487C33.8491 62.8699 33.8688 62.8933 33.8901 62.9147C33.9593 62.9828 33.8542 62.8536 33.9081 62.9356C33.9374 62.9801 33.9629 63.0262 33.9905 63.0718C34.0424 63.1578 33.9724 63.0054 34.0055 63.1032C34.0167 63.1358 34.028 63.1678 34.037 63.201C34.0451 63.2295 34.0517 63.2583 34.0577 63.2873C34.0614 63.3051 34.0648 63.323 34.0674 63.341C34.0624 63.3021 34.0624 63.3062 34.0674 63.3529C34.0703 63.4326 34.0703 63.5101 34.0674 63.5902C34.0632 63.7087 34.0764 63.5538 34.0644 63.6202C34.0592 63.6497 34.0534 63.6791 34.0462 63.7082C34.0378 63.7419 34.0282 63.7752 34.017 63.8081C34.0129 63.82 33.9669 63.9162 34.0049 63.8416C33.9758 63.8985 33.9435 63.9537 33.9081 64.007C33.8542 64.0889 33.9593 63.9598 33.8901 64.0277C33.8682 64.0493 33.8485 64.0727 33.8271 64.0939C33.8056 64.1151 33.7818 64.1345 33.7588 64.1543C33.8156 64.1054 33.7784 64.1403 33.7634 64.1502C33.7136 64.1837 33.6622 64.2148 33.6092 64.2431C33.5828 64.2567 33.5558 64.2695 33.5284 64.2815C33.6149 64.2437 33.5126 64.2846 33.4939 64.2909C33.4426 64.3077 33.3904 64.3218 33.3377 64.3331C33.3091 64.339 33.2804 64.3436 33.2518 64.3488C33.3522 64.3312 33.2582 64.3469 33.2382 64.3488C33.1909 64.3524 33.1449 64.3536 33.0981 64.3529C33.0703 64.3529 33.0426 64.3516 33.0149 64.3491C32.9961 64.3478 32.9773 64.3461 32.9587 64.3441C33.0125 64.3519 33.0178 64.3527 32.9745 64.3461C32.9179 64.3353 32.8616 64.3246 32.806 64.3088C32.778 64.301 32.7502 64.2923 32.7228 64.2829C32.7043 64.2766 32.6862 64.2698 32.6681 64.2628C32.7134 64.2825 32.7166 64.2837 32.6779 64.2664C32.6254 64.2395 32.5732 64.2134 32.5236 64.1815C32.4987 64.1657 32.4744 64.1488 32.4509 64.131C32.5269 64.1884 32.4274 64.106 32.4143 64.0934C32.4012 64.0809 32.3861 64.0651 32.3724 64.0504C32.3587 64.0356 32.3454 64.0203 32.3327 64.0048C32.3601 64.0414 32.3614 64.0423 32.3363 64.0079C32.3196 63.9813 32.3018 63.9559 32.2862 63.9293C32.2805 63.9192 32.2309 63.8192 32.2482 63.8589C32.2706 63.9103 32.2309 63.8087 32.2315 63.8107C32.2169 63.7666 32.2048 63.7217 32.1952 63.6762C32.194 63.6699 32.1795 63.554 32.1863 63.6304C32.1811 63.5779 32.1792 63.5254 32.1785 63.4732C32.1785 63.3731 32.1387 63.2771 32.0677 63.2064C31.9968 63.1356 31.9006 63.0958 31.8002 63.0958C31.6999 63.0958 31.6037 63.1356 31.5328 63.2064C31.4618 63.2771 31.422 63.3731 31.422 63.4732C31.4186 63.8605 31.5517 64.2367 31.7979 64.5362C32.0116 64.7783 32.2925 64.9517 32.605 65.0344C32.9109 65.1227 33.2345 65.1305 33.5443 65.057C33.854 64.9835 34.1395 64.8313 34.3727 64.6151C34.6335 64.3407 34.7933 63.9861 34.826 63.6094C34.8586 63.2327 34.7623 62.8561 34.5527 62.541C34.3525 62.2773 34.0827 62.0743 33.7735 61.9547C33.4643 61.8351 33.1279 61.8036 32.8018 61.8637C32.4499 61.9158 32.1234 62.0774 31.869 62.3254C31.5753 62.6337 31.4148 63.0447 31.4221 63.4699C31.4221 63.57 31.462 63.6659 31.5329 63.7367C31.6039 63.8075 31.7001 63.8472 31.8004 63.8472C31.9007 63.8472 31.9969 63.8075 32.0679 63.7367C32.1388 63.6659 32.1787 63.57 32.1787 63.4699H32.1793Z" fill="#726A69"/>
<path d="M39.2769 39.0075C38.9309 40.1777 38.573 41.3445 38.2145 42.5111C37.7046 44.1706 37.1906 45.8289 36.6727 47.4862C36.0976 49.3292 35.5189 51.1706 34.9367 53.0104C34.4017 54.7004 33.8624 56.389 33.3186 58.076C32.9207 59.3068 32.522 60.5377 32.103 61.7616C32.0674 61.8659 32.0315 61.97 31.9954 62.074C31.8355 62.5339 32.5661 62.7315 32.7248 62.2746C33.1219 61.1324 33.4951 59.9818 33.8684 58.8314C34.4025 57.1857 34.9303 55.5377 35.4518 53.8874C36.0353 52.0478 36.6148 50.207 37.1903 48.365C37.7208 46.6683 38.2479 44.9705 38.7717 43.2718C39.1555 42.0256 39.5384 40.7789 39.911 39.5298C39.9425 39.4228 39.9744 39.3156 40.0065 39.2082C40.1444 38.7414 39.4146 38.5421 39.2769 39.0076V39.0075Z" fill="#726A69"/>
<path d="M53.0054 58.1789C52.8315 58.7229 52.6576 59.2669 52.4837 59.8109C52.4578 59.9074 52.471 60.0101 52.5204 60.0969C52.5698 60.1838 52.6515 60.2477 52.7478 60.275C52.8445 60.2995 52.9469 60.2857 53.0336 60.2366C53.1203 60.1875 53.1846 60.1068 53.2131 60.0115C53.3871 59.4675 53.561 58.9235 53.7348 58.3795C53.7607 58.283 53.7474 58.1803 53.698 58.0935C53.6486 58.0067 53.5669 57.9427 53.4707 57.9154C53.374 57.8909 53.2716 57.9047 53.1849 57.9538C53.0982 58.0029 53.0339 58.0836 53.0054 58.1789Z" fill="#726A69"/>
<path d="M52.5929 50.3724C53.5963 50.6554 54.6002 50.9384 55.6018 51.2277L55.3377 50.7635C54.7905 52.5051 54.2436 54.2466 53.6969 55.9882C53.5503 56.4526 54.28 56.6512 54.4263 56.1888C54.9755 54.448 55.5224 52.7064 56.0671 50.9642C56.0924 50.8677 56.0789 50.7653 56.0295 50.6786C55.9802 50.5919 55.8989 50.5278 55.803 50.5C54.8013 50.2106 53.7974 49.9282 52.794 49.6447C52.3248 49.5122 52.1244 50.2401 52.5929 50.3724Z" fill="#726A69"/>
<path d="M49.7031 59.601C49.6682 59.5473 49.6323 59.4943 49.5975 59.4407C49.5607 59.3757 49.5049 59.3236 49.4375 59.2913C49.3701 59.2591 49.2943 59.2483 49.2206 59.2605C49.1706 59.2627 49.122 59.2781 49.08 59.3053L49.0034 59.3642C48.9571 59.4104 48.9236 59.4678 48.9061 59.5307L48.8926 59.6311C48.8924 59.698 48.9103 59.7639 48.9443 59.8216C48.9791 59.8752 49.0149 59.9282 49.0499 59.982C49.0866 60.0469 49.1425 60.099 49.2099 60.1312C49.2773 60.1634 49.353 60.1742 49.4268 60.162C49.4768 60.1599 49.5253 60.1445 49.5673 60.1174L49.644 60.0582C49.6903 60.0121 49.7238 59.9547 49.7412 59.8917L49.7548 59.7914C49.7549 59.7245 49.737 59.6588 49.7031 59.601Z" fill="#726A69"/>
<path d="M46.9212 48.0024C44.9443 47.4512 42.9667 46.9025 40.9884 46.3563C40.9162 46.3383 40.8403 46.3418 40.77 46.3663C40.6998 46.3907 40.6382 46.4351 40.5929 46.494C40.5475 46.5528 40.5204 46.6236 40.5148 46.6976C40.5091 46.7716 40.5253 46.8456 40.5612 46.9106C42.1672 49.5057 43.8503 52.0549 45.5187 54.6102C46.1164 55.5254 46.7153 56.4399 47.3155 57.3536C47.5813 57.7582 48.2366 57.3805 47.9687 56.9727C46.0311 54.022 44.0984 51.0677 42.1998 48.0917C41.8688 47.5729 41.5386 47.0531 41.2146 46.5297L40.7874 47.0839C42.7666 47.6266 44.7442 48.1754 46.7202 48.7301C47.1899 48.861 47.3902 48.1326 46.9213 48.0024H46.9212Z" fill="#726A69"/>
<path d="M52.3226 62.7171C52.569 62.0085 52.7996 61.2944 53.0303 60.5804C53.0562 60.4839 53.043 60.3812 52.9936 60.2944C52.9441 60.2075 52.8625 60.1436 52.7662 60.1163C52.6695 60.0919 52.5671 60.1057 52.4804 60.1548C52.3937 60.2039 52.3294 60.2845 52.3009 60.3798C52.0701 61.0937 51.8395 61.8079 51.5932 62.5165C51.5671 62.613 51.5803 62.7158 51.6297 62.8027C51.6792 62.8895 51.7609 62.9535 51.8573 62.9806C51.954 63.0048 52.0563 62.9909 52.1429 62.9419C52.2296 62.8928 52.2939 62.8123 52.3226 62.7171Z" fill="#726A69"/>
<path d="M51.9423 47.8304C53.4091 48.2476 54.8755 48.6664 56.3415 49.0866C56.4381 49.1114 56.5407 49.0978 56.6275 49.0487C56.7143 48.9995 56.7786 48.9186 56.8068 48.8231C57.0503 48.0447 57.2796 47.262 57.5239 46.4836C57.6694 46.019 56.9392 45.8201 56.7945 46.2829C56.5508 47.0614 56.3216 47.844 56.0773 48.6225L56.5426 48.359C55.077 47.9372 53.6107 47.5184 52.1434 47.1027C51.6744 46.9694 51.4742 47.6973 51.9423 47.8304Z" fill="#726A69"/>
<path d="M41.0123 40.7895C40.6806 41.887 40.3454 42.9834 40.0066 44.0786C39.9813 44.1751 39.9948 44.2776 40.0441 44.3643C40.0935 44.451 40.1748 44.515 40.2708 44.5428C42.0281 45.0328 43.7845 45.526 45.54 46.0223C46.0092 46.1548 46.2096 45.4269 45.7411 45.2946C43.9854 44.7992 42.229 44.306 40.4719 43.8151L40.7361 44.2793C41.074 43.1837 41.4092 42.0873 41.7417 40.9901C41.8825 40.5241 41.1525 40.3249 41.0123 40.7895Z" fill="#726A69"/>
<path d="M54.7565 63.3609C55.6659 60.7436 56.4916 58.0961 57.33 55.4554C57.6421 54.4722 57.953 53.4887 58.2628 52.5049L57.5713 52.595C59.4864 55.5729 61.4326 58.5307 63.41 61.4684C63.9021 62.2001 64.3969 62.93 64.8946 63.6581C65.1676 64.0568 65.8234 63.6796 65.5479 63.2773C63.5977 60.4296 61.694 57.5497 59.8087 54.6589C59.2782 53.8455 58.7501 53.0306 58.2246 52.2142C58.1857 52.1521 58.1297 52.1024 58.0632 52.0711C57.9968 52.0397 57.9227 52.0282 57.8499 52.0376C57.777 52.0471 57.7084 52.0773 57.6523 52.1246C57.5961 52.1719 57.5548 52.2343 57.5332 52.3043C56.5621 55.3886 55.5889 58.4736 54.5724 61.5428C54.3937 62.083 54.2134 62.6228 54.0266 63.1603C53.8668 63.6202 54.5975 63.8178 54.7562 63.3609H54.7565Z" fill="#726A69"/>
<path d="M34.8049 62.9087C36.0897 59.2139 37.2376 55.4683 38.4125 51.7375C38.7989 50.5102 39.1836 49.2824 39.5666 48.054L38.8753 48.1442C40.4672 50.757 42.1435 53.3206 43.8107 55.8858C44.4317 56.8414 45.0552 57.7952 45.6813 58.7473C45.9472 59.1517 46.6026 58.774 46.3345 58.3663C44.3556 55.3568 42.4026 52.33 40.4754 49.286C40.1569 48.7802 39.8395 48.2738 39.5285 47.7633C39.4896 47.701 39.4337 47.6512 39.3672 47.6198C39.3008 47.5884 39.2266 47.5767 39.1537 47.5862C39.0808 47.5957 39.0122 47.626 38.956 47.6733C38.8999 47.7207 38.8586 47.7832 38.8372 47.8534C37.5258 52.0541 36.2103 56.2544 34.8376 60.4357C34.5884 61.1948 34.3378 61.9536 34.0755 62.7081C33.9155 63.168 34.6462 63.3655 34.8049 62.9087Z" fill="#726A69"/>
<path d="M49.915 63.7202C49.0639 62.4775 48.2237 61.2276 47.3947 59.9704C47.1275 59.567 46.472 59.9445 46.7415 60.3514C47.573 61.607 48.4131 62.8569 49.2618 64.1012C49.3141 64.1857 49.3971 64.247 49.4934 64.2722C49.5897 64.2974 49.6921 64.2846 49.7793 64.2366C49.8652 64.1854 49.9276 64.1027 49.953 64.0061C49.9784 63.9095 49.9647 63.8069 49.915 63.7202Z" fill="#726A69"/>
<path d="M44.8838 39.9509H44.8822C44.7826 39.9548 44.6877 39.9938 44.6142 40.061C44.547 40.1343 44.5079 40.229 44.5039 40.3283L44.5175 40.4286C44.5348 40.4916 44.5683 40.549 44.6147 40.5951L44.6913 40.6542C44.7492 40.688 44.8151 40.7058 44.8822 40.7056H44.8838C44.9833 40.703 45.0779 40.6623 45.1483 40.5921C45.2187 40.5219 45.2594 40.4275 45.2621 40.3283L45.2485 40.228C45.231 40.165 45.1975 40.1077 45.1512 40.0615L45.0746 40.0025C45.0167 39.9687 44.9509 39.9509 44.8838 39.9509Z" fill="#726A69"/>
<path d="M39.9296 38.6041C39.5271 38.482 39.1258 38.2527 38.9783 37.8526C38.9446 37.7695 38.928 37.6806 38.9292 37.591C38.9279 37.5472 38.9332 37.5036 38.945 37.4614C38.9475 37.4517 38.9813 37.3487 38.9619 37.3963C39.0234 37.2467 39.1361 37.1237 39.2799 37.0492C39.4316 36.9618 39.6006 36.9089 39.7751 36.894C39.9496 36.8791 40.1252 36.9028 40.2895 36.9632C40.7306 37.1315 41.1581 37.333 41.5686 37.566C41.6557 37.6141 41.7581 37.6268 41.8545 37.6016C41.9508 37.5764 42.0337 37.5152 42.086 37.4306C42.1357 37.344 42.1494 37.2413 42.124 37.1448C42.0986 37.0482 42.0362 36.9654 41.9503 36.9143C41.1446 36.5134 40.298 35.9488 39.3586 36.205C39.1463 36.2569 38.9465 36.3504 38.7709 36.4802C38.5953 36.61 38.4474 36.7735 38.336 36.961C38.2245 37.1786 38.1703 37.4209 38.1786 37.6651C38.1868 37.9093 38.2573 38.1474 38.3832 38.357C38.672 38.8666 39.18 39.1656 39.7274 39.3318C40.1943 39.4733 40.3938 38.7453 39.9285 38.6041H39.9296Z" fill="#726A69"/>
<path d="M63.6801 43.1487C63.765 43.5901 63.8134 44.0378 63.8247 44.4871C63.8502 44.9077 63.8265 45.3298 63.754 45.7449C63.734 45.8942 63.6711 46.0345 63.5729 46.1489C63.4376 46.2567 63.272 46.3198 63.0991 46.3297C62.6758 46.3857 62.2495 46.4167 61.8224 46.4227C60.0611 46.4766 58.3034 46.2309 56.6248 45.6962C56.1909 45.558 55.7207 45.4256 55.3407 45.1662C55.096 44.9992 54.8349 44.6544 54.9825 44.3475C55.0306 44.2605 55.0433 44.1584 55.0181 44.0623C54.9928 43.9662 54.9315 43.8835 54.8468 43.8312C54.76 43.7815 54.6571 43.7679 54.5603 43.7932C54.4635 43.8185 54.3806 43.8808 54.3294 43.9666C54.2265 44.1779 54.1815 44.4127 54.199 44.647C54.2165 44.8813 54.2958 45.1069 54.4288 45.3008C54.6988 45.7067 55.1224 45.9415 55.5637 46.1202C56.5121 46.4938 57.4973 46.7665 58.503 46.9339C59.5266 47.1146 60.565 47.1979 61.6044 47.1826C62.1234 47.177 62.6416 47.142 63.1565 47.0777C63.6402 47.0149 64.1022 46.8307 64.3336 46.3713C64.5785 45.8849 64.5814 45.2799 64.5842 44.7473C64.5847 44.1434 64.5263 43.5409 64.4099 42.9482C64.3824 42.8522 64.3183 42.7708 64.2313 42.7215C64.1442 42.6722 64.0413 42.659 63.9446 42.6847C63.849 42.713 63.7681 42.7772 63.7189 42.8637C63.6696 42.9502 63.6559 43.0524 63.6804 43.1488L63.6801 43.1487Z" fill="#726A69"/>
<path d="M55.6203 71.7991C55.9776 71.7188 56.3351 71.6381 56.6929 71.557L57.0544 71.4752C57.073 71.4711 57.0919 71.4675 57.1105 71.4626C57.2 71.4392 57.0181 71.4626 56.9741 71.4351C56.9488 71.4185 56.9273 71.3968 56.9111 71.3713C56.9038 71.3595 56.8915 71.3029 56.8966 71.3505C56.9013 71.3793 56.9077 71.4077 56.9158 71.4357C56.9795 71.7175 57.0425 71.9994 57.105 72.2815C57.1176 72.3383 57.1302 72.3951 57.1429 72.452C57.1448 72.4651 57.1476 72.4781 57.1515 72.4907C57.1742 72.5492 57.1546 72.3932 57.1562 72.3871C57.1683 72.3399 57.2468 72.2604 57.2774 72.2648C57.2356 72.2685 57.1945 72.2782 57.1556 72.2937L56.9822 72.3348L55.8043 72.6138C55.708 72.6412 55.6264 72.7052 55.577 72.792C55.5276 72.8788 55.5143 72.9815 55.5401 73.078C55.5685 73.1733 55.6328 73.2541 55.7196 73.3032C55.8063 73.3523 55.9087 73.366 56.0054 73.3415L57.1953 73.0597C57.3393 73.0379 57.4799 72.9973 57.6133 72.939C57.7403 72.8678 57.8353 72.751 57.8789 72.6123C57.9092 72.49 57.9063 72.3618 57.8704 72.241C57.7992 71.9212 57.7278 71.6016 57.6562 71.282C57.6022 71.0428 57.5058 70.8082 57.2429 70.7351C57.0701 70.705 56.8924 70.7192 56.7267 70.7765C56.291 70.875 55.8554 70.9734 55.4197 71.0718C55.3234 71.099 55.2417 71.163 55.1923 71.2498C55.1429 71.3367 55.1297 71.4394 55.1555 71.5359C55.1841 71.6312 55.2484 71.7118 55.3351 71.7609C55.4218 71.81 55.5242 71.8238 55.6208 71.7994L55.6203 71.7991Z" fill="#726A69"/>
<path d="M53.9331 71.4083C53.5566 71.4933 53.1801 71.5782 52.8035 71.6631C52.7047 71.6742 52.6095 71.7066 52.5246 71.7582C52.4397 71.8098 52.3671 71.8793 52.312 71.9619C52.1899 72.1693 52.2606 72.3949 52.3078 72.6115C52.3766 72.928 52.4413 73.2456 52.5127 73.5615C52.5419 73.7091 52.6286 73.8391 52.7537 73.9231C52.8789 74.007 53.0323 74.0381 53.1803 74.0094C53.2976 73.9891 53.4136 73.9566 53.5295 73.9291C53.9769 73.8228 54.4244 73.7164 54.8719 73.6098C54.9682 73.5824 55.0498 73.5184 55.0992 73.4316C55.1486 73.3448 55.1619 73.2421 55.1361 73.1456C55.1076 73.0503 55.0433 72.9696 54.9566 72.9205C54.8699 72.8714 54.7675 72.8576 54.6708 72.8821L53.5865 73.14L53.1966 73.2326L53.0618 73.264C53.0525 73.2661 53.013 73.2695 53.0095 73.2763C53.0194 73.2574 53.1419 73.2812 53.1595 73.292C53.1722 73.3 53.2633 73.3768 53.251 73.4011C53.2625 73.3782 53.2224 73.2683 53.2171 73.243C53.2023 73.1744 53.1875 73.1059 53.1729 73.0375C53.1414 72.8907 53.1099 72.7443 53.0784 72.5982C53.0505 72.4692 53.03 72.3358 52.9937 72.2089C52.9668 72.1145 53.0011 72.2856 52.9721 72.3298C52.9608 72.3474 52.8891 72.4329 52.861 72.4241C52.8657 72.4257 52.8785 72.4197 52.8836 72.4191C52.9308 72.413 52.9799 72.3971 53.0268 72.3864C53.396 72.3025 53.7652 72.2192 54.1346 72.1364C54.2309 72.1092 54.3126 72.0452 54.362 71.9583C54.4115 71.8715 54.4247 71.7687 54.3987 71.6723C54.3702 71.577 54.3059 71.4964 54.2192 71.4473C54.1325 71.3982 54.0301 71.3844 53.9335 71.4088L53.9331 71.4083Z" fill="#726A69"/>
<path d="M54.0061 68.6207C54.5081 69.8881 55.0407 71.1491 55.5014 72.4322C55.532 72.5112 55.554 72.5933 55.567 72.677C55.5582 72.6078 55.5654 72.7704 55.5634 72.7946C55.569 72.7298 55.5608 72.8094 55.5555 72.8261C55.534 72.894 55.558 72.8517 55.5271 72.8995C55.4962 72.9391 55.4572 72.9717 55.4128 72.9953C55.3683 73.0189 55.3194 73.0329 55.2692 73.0364C55.1899 73.0346 55.1122 73.0137 55.0428 72.9753C54.9734 72.937 54.9144 72.8824 54.8708 72.8163C54.8476 72.7849 54.829 72.7108 54.7976 72.6861C54.7532 72.6512 54.8374 72.7846 54.8062 72.7064C54.7726 72.622 54.7381 72.5379 54.7046 72.4534C54.5947 72.1764 54.486 71.8989 54.3785 71.6209C54.0418 70.755 53.7073 69.8882 53.3753 69.0206C53.3462 68.9256 53.2818 68.8454 53.1952 68.7964C53.1087 68.7474 53.0066 68.7333 52.91 68.757C52.8137 68.7843 52.7319 68.8482 52.6825 68.9351C52.633 69.0219 52.6199 69.1247 52.6458 69.2212C52.9721 70.0726 53.3002 70.9233 53.6302 71.7733C53.7518 72.0862 53.8735 72.399 53.9977 72.711C54.0735 72.9415 54.1878 73.1575 54.3358 73.3499C54.4996 73.5506 54.7254 73.6916 54.9779 73.7509C55.2304 73.8101 55.4955 73.7844 55.7319 73.6776C55.913 73.5926 56.0654 73.4567 56.1702 73.2865C56.2751 73.1164 56.3279 72.9194 56.3221 72.7198C56.3104 72.4896 56.2566 72.2635 56.1634 72.0525C56.0554 71.7695 55.9451 71.489 55.8349 71.2076C55.4706 70.2775 55.1042 69.3483 54.7355 68.42C54.7064 68.3251 54.6419 68.2449 54.5554 68.1959C54.4689 68.1469 54.3669 68.1328 54.2703 68.1564C54.1739 68.1837 54.0922 68.2476 54.0427 68.3345C53.9933 68.4213 53.9801 68.5241 54.0061 68.6206V68.6207Z" fill="#726A69"/>
<path d="M51.9734 63.2095C52.9993 63.1545 54.123 63.5196 54.7271 64.4068C55.3909 65.3816 55.3698 66.8866 54.6042 67.7881C53.9214 68.5923 52.86 68.9099 51.8377 68.8126C51.3418 68.7614 50.8634 68.6016 50.4366 68.3446C49.995 68.0745 49.6486 67.674 49.4455 67.1987C49.1606 66.4788 49.1449 65.6808 49.4014 64.9504C49.6283 64.3444 50.078 63.8472 50.659 63.5598C51.0899 63.3331 50.708 62.6816 50.2772 62.9081C49.6357 63.2357 49.1199 63.7646 48.8093 64.4133C48.4706 65.1809 48.3818 66.0351 48.5553 66.8558C48.8283 68.2169 49.9406 69.193 51.2742 69.4815C52.5211 69.7509 53.8894 69.4703 54.8534 68.6133C55.9958 67.5976 56.2404 65.8244 55.6246 64.4625C55.0006 63.0817 53.4369 62.3759 51.9734 62.4544C51.489 62.4803 51.486 63.2352 51.9734 63.2091V63.2095Z" fill="#726A69"/>
<path d="M50.9411 61.0032C51.4652 62.4449 51.9385 63.9064 52.4197 65.3628C52.4432 65.4335 52.4684 65.5043 52.4897 65.5756C52.4993 65.6085 52.5078 65.6415 52.5152 65.675C52.5209 65.7 52.5267 65.7715 52.5219 65.7082C52.5252 65.7509 52.5255 65.7929 52.525 65.8357C52.525 65.8545 52.5238 65.8732 52.5214 65.8918C52.5305 65.8289 52.514 65.9121 52.5096 65.9233C52.4828 65.9874 52.5105 65.9514 52.4761 65.9948C52.497 65.9685 52.4378 66.0369 52.4257 66.0462C52.3538 66.0947 52.2679 66.1181 52.1812 66.1127C52.0941 66.1025 52.0119 66.0669 51.9448 66.0105C51.9123 65.9826 51.8827 65.9515 51.8565 65.9176C51.8275 65.8811 51.7949 65.7715 51.759 65.7505C51.7905 65.7686 51.8031 65.8632 51.7713 65.7761C51.7574 65.7385 51.7431 65.7013 51.7292 65.6637C51.6851 65.5437 51.6419 65.4234 51.5987 65.3032C51.4678 64.9382 51.338 64.5728 51.2095 64.2071C50.864 63.2279 50.5208 62.2479 50.18 61.267C50.0223 60.8111 49.2904 61.007 49.4505 61.4676C49.7777 62.4095 50.1071 63.3507 50.4388 64.2911C50.5814 64.6956 50.7248 65.0999 50.8691 65.5039C50.9374 65.7165 51.0164 65.9256 51.1057 66.1303C51.1706 66.2772 51.2643 66.4098 51.3811 66.5202C51.498 66.6307 51.6357 66.7168 51.7862 66.7737C51.9368 66.8306 52.0971 66.857 52.258 66.8514C52.4189 66.8459 52.5771 66.8084 52.7233 66.7413C53.2078 66.5055 53.349 65.9668 53.2452 65.4738C53.1874 65.2506 53.1173 65.0308 53.0351 64.8155C52.9046 64.422 52.7735 64.0289 52.642 63.6363C52.3251 62.6896 52.0115 61.7409 51.6709 60.8026C51.642 60.7075 51.5776 60.6271 51.491 60.5781C51.4044 60.529 51.3022 60.5151 51.2056 60.5391C51.1093 60.5664 51.0277 60.6303 50.9782 60.7172C50.9288 60.804 50.9156 60.9067 50.9414 61.0032H50.9411Z" fill="#726A69"/>
<path d="M47.5611 60.5242C47.6519 60.8053 47.7429 61.0864 47.834 61.3674C47.9408 61.6985 48.0285 62.115 48.4544 62.1408C48.6169 62.1351 48.7771 62.1001 48.9272 62.0375C49.1082 61.9811 49.2891 61.9248 49.4701 61.8687C50.4083 61.5768 51.3466 61.2852 52.285 60.9938C52.6347 60.8852 53.2051 60.8108 53.307 60.3964C53.3776 60.1098 53.1925 59.7494 53.1066 59.4787C53.0188 59.2016 52.963 58.7905 52.7058 58.6193C52.3778 58.4009 51.8986 58.6405 51.5576 58.7427L50.1773 59.1563L48.6038 59.628L48.0721 59.7871C47.7123 59.8945 47.4897 60.1266 47.5605 60.5236C47.5879 60.6196 47.6521 60.7011 47.7391 60.7504C47.8262 60.7997 47.9292 60.8129 48.0259 60.7871C48.1215 60.7586 48.2022 60.6944 48.2515 60.6079C48.3007 60.5215 48.3145 60.4194 48.2901 60.323C48.303 60.3956 48.0792 60.5406 48.2066 60.5347C48.2295 60.5305 48.2518 60.5238 48.2732 60.5148L48.4517 60.4615L48.9105 60.3241C49.3105 60.2044 49.7105 60.0846 50.1105 59.9646C50.8371 59.7467 51.5638 59.529 52.2905 59.3114C52.3162 59.3037 52.404 59.2933 52.421 59.2722C52.4453 59.2423 52.6904 59.3886 52.3245 59.2148C52.1441 59.1293 52.223 59.1408 52.2314 59.2197C52.2446 59.2806 52.2635 59.3402 52.2878 59.3977C52.3659 59.6439 52.4439 59.8902 52.5219 60.1367C52.5297 60.1867 52.545 60.2352 52.5673 60.2807C52.654 60.375 52.6205 60.0304 52.7004 60.0741C52.6891 60.0763 52.678 60.0797 52.6673 60.0843C52.6133 60.094 52.5607 60.1105 52.5107 60.1332L52.0838 60.2657L49.6611 61.0187C49.3055 61.1292 48.95 61.2398 48.5945 61.3504C48.5445 61.3581 48.496 61.3732 48.4506 61.3952C48.7609 61.1368 48.6758 61.6286 48.6564 61.457C48.6496 61.4263 48.6399 61.3962 48.6276 61.3673L48.5543 61.1398C48.4663 60.8672 48.3783 60.5951 48.2901 60.3233C48.1421 59.8631 47.4114 60.0599 47.5611 60.5242Z" fill="#726A69"/>
<path d="M49.6477 54.0542C49.6687 54.6997 49.4325 55.3272 48.9907 55.7994C48.521 56.3324 47.8559 56.6013 47.2506 56.9492C46.6265 57.3085 45.9519 57.7681 45.6447 58.4443C45.3676 59.0543 45.3477 59.8486 45.9545 60.2706C46.2579 60.4816 46.6717 60.5258 47.0309 60.5365C47.4175 60.5526 47.804 60.5024 48.1736 60.3881C48.8987 60.1522 49.6228 59.9111 50.3469 59.6714C51.0546 59.4372 51.7626 59.2035 52.4708 58.9705C52.8507 58.8459 53.248 58.7438 53.6145 58.5838C53.9216 58.4449 54.1879 58.2299 54.3881 57.9593C54.5195 57.8013 54.6182 57.619 54.6786 57.4228C54.7389 57.2265 54.7596 57.0203 54.7396 56.8161C54.6805 56.3802 54.4411 56.0027 54.238 55.6211C53.8187 54.8311 53.4802 54.0009 53.2279 53.1431C53.0904 52.6783 52.36 52.8758 52.4984 53.3437C52.7118 54.0631 52.9809 54.7648 53.3034 55.4425C53.4533 55.7586 53.6232 56.0626 53.7861 56.3717C53.9239 56.633 54.0711 56.9301 53.9507 57.2247C53.6963 57.8467 53.0903 57.9736 52.512 58.163C51.8582 58.3774 51.2046 58.5927 50.5513 58.8091C49.9075 59.0222 49.2636 59.2349 48.6196 59.4474C47.9557 59.6658 47.2889 59.9084 46.5812 59.7257C46.0343 59.5842 46.1906 58.9591 46.4223 58.5937C46.7667 58.0497 47.4153 57.7165 47.9634 57.4167C48.3146 57.2422 48.6541 57.045 48.9796 56.8264C49.2563 56.6223 49.5024 56.3798 49.7103 56.1062C50.1559 55.527 50.4569 54.7937 50.4038 54.0538C50.4015 53.9544 50.3609 53.8598 50.2904 53.7895C50.22 53.7192 50.1251 53.6787 50.0255 53.6764C49.9254 53.6772 49.8297 53.7173 49.7589 53.7878C49.6882 53.8584 49.6481 53.9539 49.6472 54.0538L49.6477 54.0542Z" fill="#726A69"/>
<path d="M49.3455 56.1204C49.7777 56.3887 50.3374 56.3845 50.8257 56.3227C51.1663 56.2841 51.5035 56.22 51.8345 56.1309C52.6683 55.8951 53.3977 55.3787 53.6299 54.5085C53.756 54.0387 53.0258 53.8382 52.9004 54.3079C52.7291 54.9495 52.1942 55.25 51.5955 55.4138C51.3403 55.4811 51.0813 55.5325 50.8197 55.5679C50.4875 55.615 50.0351 55.6594 49.7279 55.4687C49.3134 55.2113 48.933 55.8639 49.346 56.1204H49.3455Z" fill="#726A69"/>
<path d="M53.8538 37.6453C51.4347 38.0554 49.0152 38.4642 46.5955 38.8716C46.4992 38.8989 46.4175 38.9629 46.3681 39.0497C46.3186 39.1365 46.3054 39.2393 46.3313 39.3358C46.3599 39.431 46.4242 39.5116 46.5109 39.5607C46.5976 39.6098 46.6999 39.6236 46.7966 39.5993C49.216 39.1905 51.6355 38.7817 54.055 38.3729C54.1513 38.3457 54.233 38.2817 54.2824 38.1949C54.3318 38.108 54.345 38.0052 54.3191 37.9088C54.2905 37.8135 54.2262 37.733 54.1395 37.6839C54.0528 37.6348 53.9505 37.621 53.8538 37.6453Z" fill="#726A69"/>
<path d="M64.1775 40.2005C64.4612 41.026 64.2109 41.8739 63.7011 42.5561C63.1227 43.2983 62.2951 43.8073 61.3704 43.9892C60.272 44.2359 59.1217 44.1453 58.0141 44.014C57.4329 43.945 56.8548 43.8568 56.2705 43.8178C55.7239 43.781 55.176 43.7748 54.6283 43.7793C53.3806 43.7898 52.1395 43.8213 50.8987 43.6582C50.8405 43.6585 50.7832 43.6721 50.7311 43.698C50.6791 43.7239 50.6337 43.7613 50.5984 43.8075C50.5632 43.8537 50.539 43.9073 50.5279 43.9642C50.5167 44.0212 50.5188 44.0799 50.534 44.1359C51.3376 46.2405 51.9732 48.4052 52.4347 50.6097C52.6033 51.4353 52.7499 52.2662 52.8626 53.1013L53.1403 52.7374C52.5729 52.9624 51.9908 53.1519 51.4065 53.3239C50.7436 53.5402 50.0603 53.689 49.3673 53.7679L49.6939 53.9548C48.1746 50.6845 46.8312 47.3377 45.3387 44.0559C44.9486 43.198 44.4615 42.3165 44.4306 41.3533C44.4149 40.8689 43.6583 40.8667 43.6741 41.3533C43.7034 42.2699 44.0732 43.1061 44.4513 43.9255C44.8308 44.7485 45.1992 45.5764 45.5627 46.4064C46.3099 48.1133 47.0359 49.8291 47.7829 51.5361C48.1927 52.4733 48.6094 53.4079 49.0407 54.3358C49.0731 54.3935 49.1206 54.4414 49.1781 54.4742C49.2356 54.5071 49.301 54.5238 49.3673 54.5226C50.1096 54.4455 50.842 54.2931 51.5533 54.0676C52.1566 53.8918 52.7578 53.6971 53.3421 53.4651C53.481 53.4101 53.643 53.2742 53.6198 53.1013C53.3046 50.7851 52.7877 48.5006 52.0752 46.2739C51.8242 45.4869 51.5534 44.7074 51.2628 43.9353L50.8981 44.4129C52.0723 44.5673 53.2482 44.5502 54.4287 44.5362C55.0067 44.5293 55.585 44.5309 56.1625 44.5658C56.7831 44.6033 57.3962 44.6955 58.0131 44.7687C60.2031 45.0283 62.7362 44.9903 64.226 43.1032C64.9148 42.2308 65.2795 41.0851 64.906 39.9999C64.7484 39.5439 64.0178 39.7394 64.1765 40.2005H64.1775Z" fill="#726A69"/>
<path d="M46.2172 42.4553L48.8753 43.297C48.9232 43.3101 48.9732 43.3138 49.0225 43.3077C49.0719 43.3015 49.1195 43.2858 49.1627 43.2613C49.2059 43.2369 49.2438 43.2041 49.2744 43.165C49.3049 43.1259 49.3274 43.0812 49.3406 43.0334C49.3538 42.9857 49.3575 42.9358 49.3513 42.8866C49.3452 42.8374 49.3294 42.7899 49.3049 42.7468C49.2804 42.7037 49.2476 42.6659 49.2084 42.6354C49.1692 42.6049 49.1243 42.5825 49.0764 42.5693L46.4184 41.7277C46.3705 41.7145 46.3204 41.7109 46.2711 41.717C46.2218 41.7231 46.1742 41.7388 46.131 41.7633C46.0878 41.7878 46.0498 41.8205 46.0193 41.8596C45.9888 41.8987 45.9663 41.9434 45.9531 41.9912C45.9399 42.039 45.9362 42.0889 45.9423 42.1381C45.9485 42.1872 45.9642 42.2347 45.9888 42.2778C46.0133 42.3209 46.0461 42.3588 46.0853 42.3892C46.1245 42.4197 46.1693 42.4422 46.2172 42.4553Z" fill="#726A69"/>
<path d="M40.6409 40.2905C40.7801 40.1818 40.8951 40.0454 40.9787 39.89C41.089 39.7229 41.1993 39.5551 41.3187 39.3932C41.3721 39.3204 41.2714 39.4504 41.316 39.3966C41.3284 39.3819 41.3404 39.3668 41.3529 39.352C41.3789 39.3216 41.4058 39.2921 41.4347 39.2644C41.5365 39.1666 41.6448 39.0745 41.7521 38.983C41.8027 38.9399 41.8538 38.8971 41.9055 38.8553C41.937 38.8302 41.9685 38.8055 41.9988 38.7808C42.0618 38.7313 41.9461 38.8193 42.0146 38.7682C42.1222 38.6887 42.2308 38.611 42.3433 38.5385C42.4253 38.4859 42.4838 38.4039 42.5066 38.3094C42.5294 38.2148 42.5147 38.1152 42.4657 38.0312C42.4167 37.9472 42.337 37.8853 42.2434 37.8585C42.1497 37.8316 42.0493 37.8418 41.963 37.887C41.7239 38.0433 41.4948 38.2144 41.2771 38.3992C41.0896 38.5438 40.9174 38.7072 40.7631 38.8866C40.6244 39.0614 40.5002 39.2459 40.3772 39.4319C40.3299 39.5028 40.2837 39.5734 40.2346 39.6435C40.2259 39.6559 40.2166 39.6679 40.2081 39.6803C40.1739 39.7303 40.2806 39.5977 40.2287 39.6537C40.2218 39.6607 40.2152 39.668 40.209 39.6757C40.1726 39.7248 40.2911 39.619 40.2596 39.6389C40.2167 39.6639 40.1792 39.6971 40.1492 39.7366C40.1192 39.7761 40.0972 39.8211 40.0846 39.869C40.072 39.917 40.069 39.9669 40.0758 40.016C40.0825 40.0651 40.0989 40.1124 40.124 40.1552C40.1491 40.198 40.1823 40.2354 40.2219 40.2654C40.2615 40.2953 40.3066 40.3172 40.3547 40.3298C40.4027 40.3423 40.4528 40.3453 40.502 40.3386C40.5512 40.3318 40.5986 40.3155 40.6415 40.2905H40.6409Z" fill="#726A69"/>
<path d="M46.3722 34.7418L45.3431 35.7896C45.0761 36.0616 44.8154 36.388 44.4799 36.579C44.1166 36.7861 43.6565 36.6551 43.2663 36.6128C42.903 36.5765 42.5361 36.6069 42.1837 36.7024C41.433 36.8823 40.7469 37.2662 40.2017 37.8116C39.9394 38.0964 39.7102 38.4098 39.5184 38.7459C39.3787 38.9595 39.2872 39.201 39.2505 39.4534C39.2237 39.6082 39.2351 39.7672 39.2837 39.9167C39.3322 40.0661 39.4165 40.2015 39.5293 40.3112C39.9154 40.6499 40.4162 40.5471 40.7617 40.2141L40.1676 39.7569C40.0569 39.9505 39.997 40.1689 39.9932 40.3918C39.9895 40.6148 40.0422 40.835 40.1464 41.0323C40.5265 41.6668 41.4198 41.5863 41.7725 40.9763L41.081 40.6854C40.9468 41.1871 41.1031 41.7944 41.5957 42.0398C41.7608 42.1301 41.9502 42.1661 42.137 42.1427C42.3238 42.1192 42.4984 42.0375 42.636 41.9093C42.9046 41.632 43.1348 41.32 43.3202 40.9816L42.6668 40.6007C42.5764 40.7488 42.5234 40.9165 42.5124 41.0896C42.5014 41.2627 42.5328 41.4358 42.6038 41.594C42.6571 41.723 42.7412 41.837 42.8488 41.9262C42.9563 42.0154 43.084 42.077 43.2209 42.1058C43.88 42.1992 44.4177 41.6052 44.7387 41.0996C44.8376 40.8966 44.9855 40.7214 45.1692 40.5897C45.3991 40.4812 45.6446 40.4094 45.8968 40.3768C46.2181 40.3125 46.5085 40.1425 46.7214 39.894C46.9077 39.6359 47.0747 39.3645 47.2211 39.082C47.619 38.401 48.1022 37.7734 48.659 37.2142C49.0047 36.8711 48.4699 36.3375 48.1241 36.6806C47.6922 37.1129 47.3017 37.5846 46.9577 38.0895C46.7884 38.3361 46.6296 38.5894 46.4812 38.8495C46.3811 39.0727 46.25 39.2807 46.0919 39.4676C45.9251 39.6271 45.6756 39.6534 45.4586 39.6962C45.2225 39.7384 44.9955 39.8208 44.7875 39.9399C44.3461 40.2034 44.1779 40.657 43.8469 41.0206C43.7593 41.1285 43.6579 41.2245 43.5453 41.3062C43.5016 41.335 43.4522 41.3543 43.4006 41.3628C43.4136 41.3607 43.3462 41.368 43.355 41.3654C43.2962 41.3821 43.3356 41.3516 43.3359 41.3654C43.3359 41.3687 43.4231 41.4478 43.3438 41.3519C43.3171 41.3241 43.295 41.2923 43.2782 41.2576C43.2634 41.2116 43.2595 41.1627 43.2668 41.115C43.2742 41.0672 43.2927 41.0218 43.3208 40.9824C43.5508 40.5546 42.9205 40.1848 42.6675 40.6015C42.5481 40.8043 42.4155 40.9991 42.2706 41.1846C42.161 41.3209 42.0972 41.4437 41.9396 41.3683C41.8734 41.3368 41.8835 41.3335 41.8553 41.2944C41.808 41.2288 41.8237 41.2434 41.8009 41.1518C41.7949 41.1287 41.7903 41.0667 41.7949 41.1211C41.7917 41.0843 41.793 41.0483 41.7924 41.011C41.7924 40.998 41.8072 40.89 41.7924 40.9754C41.7977 40.9452 41.8047 40.9156 41.8127 40.8861C41.923 40.4755 41.338 40.2204 41.1212 40.5952C41.0702 40.6835 40.9951 40.7488 40.9029 40.724C40.8619 40.7144 40.8258 40.6899 40.8017 40.6554C40.8306 40.6911 40.7745 40.6019 40.7734 40.5994C40.7928 40.6449 40.7712 40.5768 40.7669 40.5606C40.7636 40.548 40.7548 40.4678 40.7598 40.5262C40.7573 40.4941 40.7566 40.4619 40.7576 40.4298C40.7576 40.3983 40.7601 40.3669 40.7636 40.3354C40.7578 40.3892 40.7636 40.3387 40.7691 40.3125C40.7808 40.2628 40.7975 40.2139 40.8087 40.1642C40.8265 40.0847 40.7699 40.22 40.823 40.1375C41.0594 39.7701 40.5327 39.3871 40.2288 39.6801C40.1596 39.7469 40.1066 39.7825 40.0554 39.7611C40.0173 39.7454 40.0212 39.7248 40.0285 39.7454C40.0225 39.7282 40.0108 39.6861 40.0206 39.74C40.0163 39.7169 40.0048 39.6952 40.0009 39.6718C39.9889 39.5946 39.998 39.6507 39.9993 39.6655C39.9972 39.6416 39.9965 39.6176 39.9973 39.5937C39.9982 39.5734 40.0159 39.4416 40.001 39.5198C40.0089 39.4779 40.0181 39.4366 40.03 39.3959C40.0486 39.333 40.0712 39.3033 40.0398 39.3578C40.3393 38.8357 40.6616 38.3085 41.1739 37.966C41.666 37.6224 42.2382 37.4102 42.8358 37.3494C43.1938 37.3279 43.5451 37.42 43.9005 37.4378C44.2866 37.4655 44.6709 37.3633 44.9919 37.1474C45.3224 36.8918 45.6284 36.6063 45.9061 36.2944L46.9082 35.2742C47.2491 34.927 46.7147 34.3937 46.3723 34.7405L46.3722 34.7418Z" fill="#726A69"/>
<path d="M41.7454 41.0238C41.8525 40.8404 41.9516 40.6527 42.0607 40.4703C42.086 40.4276 42.1121 40.3851 42.1395 40.3435C42.1681 40.3081 42.194 40.2706 42.2172 40.2315C42.2093 40.2491 42.1715 40.2854 42.2046 40.2497C42.2191 40.234 42.2329 40.2183 42.2476 40.2026C42.2869 40.1604 42.3264 40.1188 42.3661 40.0768C42.5003 39.9353 42.6358 39.7952 42.7777 39.6614C42.8445 39.5985 42.9128 39.5372 42.9826 39.4774C43.02 39.446 43.0577 39.4146 43.0958 39.3831C43.1115 39.3705 43.1273 39.3583 43.143 39.3458C43.2228 39.283 43.08 39.393 43.1635 39.3301C43.2463 39.2778 43.3078 39.1978 43.3369 39.1045C43.3631 39.0064 43.3494 38.9019 43.2988 38.8138C43.2475 38.7281 43.1645 38.666 43.0678 38.6406C42.971 38.6153 42.8681 38.6289 42.7813 38.6784C42.4409 38.9394 42.1231 39.2283 41.8312 39.5422C41.6801 39.6966 41.5461 39.8666 41.4313 40.0494C41.3129 40.2438 41.2076 40.4458 41.0927 40.6422C41.0677 40.685 41.0513 40.7323 41.0445 40.7814C41.0378 40.8305 41.0408 40.8804 41.0534 40.9284C41.066 40.9763 41.0879 41.0213 41.118 41.0608C41.148 41.1003 41.1855 41.1335 41.2284 41.1585C41.2713 41.1835 41.3188 41.1999 41.368 41.2066C41.4172 41.2133 41.4673 41.2103 41.5154 41.1978C41.5634 41.1852 41.6085 41.1633 41.6481 41.1333C41.6877 41.1034 41.721 41.0659 41.7461 41.0231L41.7454 41.0238Z" fill="#726A69"/>
<path d="M43.2624 41.0584C43.3234 40.9616 43.3903 40.8687 43.4602 40.7781L43.4011 40.8545C43.6093 40.5909 43.8358 40.3421 44.0788 40.11C44.114 40.075 44.1419 40.0334 44.161 39.9876C44.1801 39.9418 44.1899 39.8927 44.19 39.8431C44.19 39.7935 44.1802 39.7444 44.1613 39.6985C44.1423 39.6527 44.1144 39.611 44.0793 39.5759C44.0442 39.5408 44.0025 39.513 43.9565 39.494C43.9106 39.4749 43.8614 39.4651 43.8117 39.4651C43.762 39.465 43.7127 39.4748 43.6668 39.4937C43.6208 39.5126 43.5791 39.5404 43.5439 39.5755C43.1898 39.9043 42.876 40.2737 42.609 40.6761C42.5593 40.7627 42.5457 40.8653 42.5711 40.9618C42.5965 41.0584 42.6588 41.1411 42.7447 41.1922C42.8318 41.2407 42.9344 41.2537 43.0309 41.2285C43.1273 41.2032 43.2103 41.1417 43.2624 41.0569V41.0584Z" fill="#726A69"/>
<path d="M51.7109 35.5456C51.7315 35.7777 51.7978 36.0034 51.9062 36.2099C52.0235 36.4769 52.1602 36.735 52.3152 36.9821C52.4956 37.2792 52.7056 37.5574 52.9419 37.8125C53.1704 38.0654 53.4652 38.2497 53.7931 38.3444C55.5792 38.8741 57.3816 39.3545 59.2073 39.729C61.0273 40.1214 62.8773 40.3598 64.7375 40.4418C65.1018 40.454 65.5073 40.507 65.8475 40.3465C65.9812 40.2784 66.0982 40.1819 66.1903 40.0637C66.2823 39.9454 66.3472 39.8084 66.3802 39.6624C66.5624 38.9593 66.3058 38.2264 66.1785 37.5389C66.0385 36.8364 65.8489 36.1448 65.611 35.469C65.4549 34.9672 65.2712 34.4743 65.0609 33.9925C65.0098 33.9067 64.9268 33.8444 64.83 33.8191C64.7332 33.7938 64.6303 33.8074 64.5435 33.8571C64.4585 33.9092 64.397 33.9919 64.3717 34.0881C64.3464 34.1843 64.3594 34.2865 64.4078 34.3734C64.4142 34.3873 64.4458 34.459 64.4163 34.3911C64.3848 34.3192 64.4291 34.4236 64.436 34.4406C64.4707 34.5272 64.5039 34.6135 64.537 34.7016C64.6261 34.9375 64.7118 35.1748 64.7939 35.4135C64.9963 35.9971 65.187 36.5872 65.3344 37.1872C65.4019 37.4618 65.4488 37.7403 65.5124 38.0156C65.5932 38.3314 65.6477 38.6534 65.6755 38.9781C65.6805 39.0591 65.6829 39.1404 65.6807 39.2215C65.6798 39.253 65.6725 39.363 65.6755 39.3418C65.6688 39.4424 65.6363 39.5396 65.5809 39.624C65.5565 39.6529 65.5233 39.6732 65.4864 39.6816C65.3293 39.705 65.17 39.7094 65.0119 39.6946C61.5768 39.6207 58.1777 38.8154 54.8889 37.8768C54.6673 37.8139 54.446 37.7498 54.225 37.6845C54.0441 37.6511 53.8703 37.5873 53.711 37.4958C53.6572 37.4567 53.7425 37.5222 53.6892 37.4788C53.6553 37.4515 53.6232 37.4219 53.5913 37.3922C53.5352 37.3397 53.4818 37.2845 53.4301 37.2276C53.3244 37.1103 53.2265 36.9863 53.1371 36.8564C52.952 36.59 52.7881 36.3095 52.6469 36.0176C52.6169 35.9556 52.5876 35.893 52.5607 35.8297C52.5837 35.8839 52.5545 35.814 52.5495 35.7996C52.5394 35.7734 52.5293 35.7473 52.5198 35.721C52.5023 35.6717 52.4883 35.6218 52.4738 35.5718C52.4388 35.4563 52.4694 35.6237 52.4688 35.5465C52.4642 35.0612 51.7076 35.0601 51.7122 35.5465L51.7109 35.5456Z" fill="#AFD1E4"/>
<path d="M54.0261 19.0775C53.2499 18.6212 52.4473 18.2111 51.6224 17.8495C51.5352 17.8017 51.4329 17.789 51.3366 17.8142C51.2403 17.8394 51.1574 17.9005 51.105 17.9849C51.0554 18.0716 51.0418 18.1742 51.0672 18.2707C51.0926 18.3672 51.1548 18.45 51.2407 18.5012C52.0655 18.8628 52.8682 19.2729 53.6444 19.7292C53.731 19.7797 53.8342 19.7938 53.9313 19.7684C54.0283 19.743 54.1113 19.6802 54.1619 19.5937C54.2125 19.5073 54.2267 19.4044 54.2012 19.3076C54.1757 19.2107 54.1128 19.128 54.0261 19.0775Z" fill="#AFD1E4"/>
<path d="M57.1547 48.2117C57.2759 48.2384 57.3971 48.2659 57.5172 48.2951C57.566 48.3108 57.6181 48.3131 57.668 48.3017C57.7181 48.2996 57.7666 48.2842 57.8086 48.2571C57.8907 48.204 57.9519 48.1243 57.982 48.0315L57.9956 47.9312C57.9956 47.8642 57.9777 47.7985 57.9439 47.7408L57.8848 47.6643C57.8385 47.6182 57.781 47.5848 57.7179 47.5673C57.5971 47.5382 57.4763 47.5104 57.3553 47.484C57.3066 47.4683 57.2545 47.466 57.2045 47.4772C57.1544 47.4794 57.1059 47.4948 57.0639 47.5221C56.9816 47.5749 56.9204 47.6546 56.8905 47.7475L56.877 47.8478C56.8768 47.9148 56.8947 47.9805 56.9287 48.0382L56.9878 48.1146C57.034 48.1609 57.0915 48.1944 57.1547 48.2117Z" fill="#726A69"/>
<path d="M45.7081 20.8912C46.0246 20.8396 46.3618 20.8071 46.6599 20.9513C46.9412 21.1103 47.1729 21.3438 47.3294 21.6261C47.5299 21.9405 47.7036 22.2721 47.8931 22.5932C48.1055 22.9534 48.3216 23.3115 48.5267 23.676C48.765 24.0996 49.4188 23.7195 49.18 23.295C48.9548 22.8949 48.7165 22.5024 48.484 22.1066C48.2854 21.735 48.0677 21.3738 47.8319 21.0245C47.5906 20.6674 47.2514 20.3872 46.8547 20.2173C46.4174 20.0444 45.9602 20.0898 45.5077 20.1635C45.4113 20.1908 45.3296 20.2547 45.2801 20.3416C45.2307 20.4284 45.2175 20.5312 45.2435 20.6277C45.2722 20.7229 45.3365 20.8034 45.4232 20.8525C45.5098 20.9016 45.6121 20.9154 45.7088 20.8912H45.7081Z" fill="#726A69"/>
<path d="M41.5642 19.3762C41.83 19.3366 42.0852 19.2449 42.3153 19.1064C42.4794 19.0096 42.6198 18.8775 42.7262 18.7197C42.7759 18.6331 42.7896 18.5305 42.7642 18.434C42.7388 18.3374 42.6764 18.2547 42.5905 18.2036C42.5033 18.1551 42.4008 18.1422 42.3043 18.1674C42.2079 18.1926 42.1249 18.2541 42.0728 18.3389C42.0643 18.3523 42.055 18.365 42.0453 18.3776L42.1045 18.3012C42.0606 18.3554 42.0103 18.404 41.9546 18.4462L42.0312 18.3872C41.938 18.4573 41.8363 18.5154 41.7286 18.5602L41.8189 18.5221C41.6725 18.5823 41.5195 18.6249 41.3631 18.649C41.268 18.6751 41.1869 18.7371 41.1371 18.8219C41.0865 18.9101 41.0728 19.0145 41.0989 19.1127C41.1254 19.2073 41.1875 19.288 41.2723 19.3381L41.3626 19.3762C41.4284 19.3943 41.4979 19.3943 41.5637 19.3762H41.5642Z" fill="#726A69"/>
<path d="M41.54 15.2597C41.5243 15.5216 41.7017 16.0749 42.1547 16.02C42.7379 15.8803 42.6118 15.191 42.3409 14.9161C42.1193 14.691 41.6209 14.6921 41.54 15.2597Z" fill="#726A69"/>
<path d="M50.5158 25.6339C50.5201 25.6968 50.5243 25.7597 50.5284 25.8226L51.1747 25.5553C50.74 24.9979 50.782 24.1527 50.84 23.4906C50.9125 22.7578 51.139 22.0485 51.5047 21.4089C51.5798 21.2754 51.6635 21.1468 51.7552 21.024C51.7906 20.9761 51.717 21.0673 51.7842 20.9885C51.8133 20.9544 51.8419 20.92 51.8718 20.8863C51.9391 20.8108 52.0097 20.7384 52.0838 20.669C52.4061 20.3732 52.7815 20.1407 53.1903 19.9837C53.9226 19.7226 54.699 19.6069 55.4758 19.6431C55.9628 19.654 55.9627 18.8993 55.4758 18.8884C54.1065 18.8581 52.6755 19.1364 51.6245 20.0676C50.7122 20.8755 50.2386 22.1455 50.101 23.325C49.9906 24.2752 50.0307 25.3074 50.6405 26.0896C50.8408 26.3466 51.3075 26.1317 51.2867 25.8223C51.2825 25.7594 51.2783 25.6965 51.2741 25.6336C51.2718 25.5342 51.2312 25.4396 51.1608 25.3693C51.0903 25.2991 50.9954 25.2586 50.8958 25.2563C50.7958 25.2571 50.7001 25.2971 50.6293 25.3677C50.5586 25.4383 50.5184 25.5338 50.5176 25.6336L50.5158 25.6339Z" fill="#726A69"/>
<path d="M53.1123 23.2109C53.0678 23.2461 53.1782 23.1673 53.1911 23.1587C53.2395 23.128 53.2893 23.0992 53.3397 23.072C53.4387 23.0183 53.5406 22.97 53.6449 22.9274C53.9119 22.8205 54.1873 22.7355 54.4683 22.6735C54.7181 22.6133 54.9736 22.58 55.2305 22.5741C55.4487 22.5712 55.6654 22.6115 55.8679 22.6926C56.3222 22.8455 56.5457 23.1066 56.7608 23.5505C57.0907 24.2316 57.2733 24.9737 57.5972 25.6582C57.957 26.4188 58.508 27.069 59.0865 27.6729C59.4235 28.0248 59.958 27.4907 59.6215 27.1393C59.0665 26.5967 58.6034 25.9679 58.2502 25.2774C57.9111 24.5595 57.73 23.7762 57.364 23.0695C57.115 22.5625 56.6751 22.1744 56.1403 21.9897C55.5787 21.8015 54.975 21.7764 54.3997 21.9174C53.7602 22.0457 53.0926 22.2686 52.5767 22.6772C52.5063 22.7483 52.4668 22.8442 52.4668 22.944C52.4668 23.0439 52.5063 23.1398 52.5767 23.2109C52.6487 23.2795 52.7445 23.3177 52.8442 23.3177C52.9438 23.3177 53.0396 23.2795 53.1116 23.2109H53.1123Z" fill="#726A69"/>
<path d="M56.8403 28.2922C57.7152 28.9733 58.916 29.1255 59.9938 29.1244C60.4805 29.1244 60.4814 28.3697 59.9938 28.3697C59.467 28.3779 58.9413 28.3219 58.4281 28.2029C58.3165 28.1755 58.206 28.1441 58.0964 28.1085C58.0438 28.0917 57.9921 28.0737 57.9411 28.0548C57.9205 28.0471 57.8078 28.0019 57.8483 28.0194C57.7516 27.9776 57.6575 27.9304 57.5663 27.8779C57.5259 27.8548 57.4863 27.8306 57.4473 27.8051C57.4265 27.7916 57.318 27.713 57.3752 27.7579C57.3028 27.6901 57.2071 27.6523 57.1078 27.6523C57.0084 27.6523 56.9128 27.6901 56.8403 27.7579C56.7699 27.829 56.7305 27.9249 56.7305 28.0247C56.7305 28.1246 56.7699 28.2205 56.8403 28.2916V28.2922Z" fill="#726A69"/>
<path d="M56.0487 30.1279C57.5684 30.5978 59.1599 30.7939 60.7486 30.7071C60.8482 30.7048 60.9431 30.6643 61.0135 30.5941C61.084 30.5238 61.1246 30.4291 61.1269 30.3298C61.126 30.23 61.0859 30.1345 61.0151 30.0639C60.9444 29.9933 60.8486 29.9533 60.7486 29.9524C59.228 30.0374 57.7044 29.8503 56.2498 29.3999C55.782 29.2617 55.5821 29.9898 56.0487 30.1276V30.1279Z" fill="#726A69"/>
<path d="M55.4767 19.2676C52.6574 19.1937 51.5657 20.5044 51.1634 21.2476C50.7302 22.0064 50.4842 22.8572 50.4458 23.7296C50.4048 24.5629 50.4592 25.479 51.1283 26.0494C51.2115 25.5973 51.3364 25.1537 51.5014 24.7245C51.7647 24.0124 52.2319 23.3931 52.8449 22.9434C53.415 22.4796 54.9693 22.0528 55.6802 22.2421C56.4624 22.4504 56.7717 22.6812 57.1145 23.4128C57.4573 24.1443 57.6463 24.9429 58.0208 25.6591C58.3803 26.3006 58.8291 26.8881 59.3536 27.4043C58.064 24.7091 56.6702 21.8125 55.4767 19.2676Z" fill="#726A69"/>
<path d="M59.9931 28.7449C58.7586 28.75 57.6918 28.4869 57.1077 28.0256L56.1484 29.7642C57.6341 30.2313 59.1929 30.4227 60.7478 30.329C60.5045 29.817 60.2529 29.2889 59.9931 28.7449Z" fill="#726A69"/>
<path d="M77.0589 26.2082C75.7995 23.5262 74.5085 20.8594 73.2321 18.1854C72.9041 17.4982 72.5578 16.816 72.2496 16.1196C72.2153 16.0421 72.194 16.0163 72.2512 15.9569C72.2895 15.9328 72.3298 15.912 72.3716 15.8948C72.4474 15.8473 72.5152 15.7882 72.5724 15.7196C72.8246 15.4178 72.7967 15.0662 72.6394 14.7305C72.2769 13.9557 71.8999 13.187 71.5315 12.4147C71.4486 12.2412 71.3659 12.0675 71.2833 11.8939C71.2163 11.7122 71.1109 11.5471 70.9743 11.4096C70.8451 11.3031 70.6875 11.2366 70.521 11.2181C70.3544 11.1997 70.186 11.2301 70.0365 11.3057C68.7984 11.8302 67.5649 12.3655 66.3299 12.8971C64.4326 13.7139 62.5353 14.5302 60.638 15.3461C59.0103 16.0457 57.3816 16.7428 55.7518 17.4372C55.3568 17.6048 54.9015 17.7277 54.7706 18.1936C54.672 18.545 54.8703 18.8599 55.0137 19.1665C55.1524 19.463 55.2915 19.7594 55.4311 20.0555C56.0309 21.3286 56.6351 22.5996 57.2437 23.8684C58.434 26.3576 59.6332 28.8425 60.81 31.3382C61.0622 31.8728 61.3124 32.4073 61.5607 32.9419C61.6548 33.1889 61.7696 33.4276 61.904 33.6552C62.0081 33.8027 62.1574 33.9124 62.3295 33.9678C62.5016 34.0231 62.6871 34.0211 62.8579 33.962C63.233 33.8283 63.5987 33.6504 63.9649 33.4946C64.3788 33.3185 64.7924 33.1418 65.2056 32.9647C67.2843 32.0738 69.3609 31.1783 71.4354 30.2783C73.2458 29.4961 75.0549 28.7109 76.8707 27.9415C77.0199 27.8855 77.1504 27.7888 77.2471 27.6624C77.3438 27.536 77.4029 27.3851 77.4176 27.2267C77.4468 26.8716 77.2049 26.517 77.0591 26.2063C77.0079 26.1205 76.9249 26.0582 76.8281 26.0329C76.7313 26.0076 76.6284 26.0213 76.5416 26.071C76.4566 26.123 76.3951 26.2057 76.3698 26.3019C76.3445 26.3981 76.3574 26.5004 76.4059 26.5873C76.4809 26.7472 76.5607 26.9057 76.6308 27.0678C76.6641 27.1447 76.6885 27.1739 76.625 27.2288C76.5546 27.2719 76.4787 27.3053 76.3993 27.3278L76.1329 27.441C75.7555 27.6017 75.3783 27.763 75.0014 27.925C74.083 28.3188 73.1652 28.714 72.2481 29.1108C70.1978 29.996 68.1474 30.8811 66.0971 31.7662C65.2421 32.1341 64.3863 32.5005 63.5298 32.8653C63.3573 32.9387 63.1846 33.0121 63.0116 33.0855L62.8872 33.138L62.8426 33.1567C62.7668 33.2017 62.6847 33.2352 62.5989 33.2562C62.4599 33.2582 62.3608 32.8789 62.3083 32.765C62.1977 32.5257 62.0865 32.2866 61.9749 32.0476C60.8874 29.7169 59.7706 27.3995 58.6594 25.0798C58.0633 23.8356 57.4687 22.5908 56.8756 21.3454C56.5889 20.7419 56.3032 20.138 56.0185 19.5336C55.8841 19.2481 55.75 18.9624 55.6163 18.6764C55.587 18.6136 55.4795 18.4563 55.4999 18.3934C55.5204 18.3305 55.5945 18.3169 55.6546 18.2912C57.0928 17.6722 58.5355 17.0636 59.9744 16.4459C61.8291 15.6493 63.6832 14.8516 65.5368 14.0529C66.9642 13.4384 68.3918 12.8246 69.8195 12.2113C70.0097 12.1299 70.1989 12.0454 70.3905 11.9676C70.4269 11.9528 70.4389 11.9656 70.4074 11.9637C70.4271 11.9648 70.4547 11.9512 70.4704 11.969C70.5584 12.0949 70.6288 12.2321 70.6798 12.3769C70.8514 12.7375 71.0233 13.098 71.1956 13.4583C71.3693 13.8212 71.5431 14.1843 71.717 14.5474C71.8012 14.7231 71.8881 14.8977 71.9692 15.0745C72.0079 15.1583 72.0439 15.197 71.9725 15.2561C71.8975 15.319 71.7884 15.3494 71.7117 15.4234C71.5787 15.5533 71.493 15.7238 71.4682 15.9078C71.4185 16.2654 71.6415 16.5946 71.7889 16.9056C73.0499 19.5627 74.3289 22.2093 75.5913 24.8649C75.8638 25.4384 76.1352 26.0126 76.4056 26.5874C76.4568 26.6732 76.5397 26.7355 76.6365 26.7608C76.7333 26.7861 76.8362 26.7725 76.923 26.7228C77.0076 26.6708 77.0688 26.5884 77.0941 26.4926C77.1194 26.3968 77.1068 26.295 77.0589 26.2082Z" fill="#0A7BBB"/>
<path d="M58.3054 21.9791C59.8343 21.3436 61.3533 20.6803 62.8735 20.0228C64.7418 19.2147 66.6098 18.4063 68.4774 17.5974C68.8815 17.4231 69.286 17.2491 69.691 17.0754C69.8546 17.0053 70.0183 16.9354 70.182 16.8657L70.3935 16.7757L70.4905 16.7347C70.5173 16.7234 70.6363 16.6732 70.5193 16.7226C70.6142 16.6931 70.6943 16.6287 70.7434 16.5425C70.7924 16.4563 70.8068 16.3547 70.7835 16.2583C70.7563 16.1621 70.6922 16.0805 70.6051 16.0312C70.518 15.9818 70.4149 15.9688 70.3182 15.9948C68.8221 16.6237 67.3348 17.2743 65.8454 17.9192C63.9693 18.7318 62.0928 19.5431 60.2158 20.3533C59.8021 20.5314 59.388 20.7087 58.9737 20.885C58.8041 20.9571 58.6344 21.0291 58.4646 21.1009L58.4134 21.1224C58.3686 21.1413 58.4823 21.0935 58.4167 21.121L58.3101 21.1658L58.1052 21.2513C58.0103 21.2807 57.9301 21.345 57.881 21.4312C57.8319 21.5174 57.8177 21.6191 57.8411 21.7155C57.8682 21.8116 57.9323 21.8933 58.0194 21.9426C58.1065 21.992 58.2087 22.0051 58.3054 21.9791Z" fill="#0A7BBB"/>
<path d="M60.1809 20.0758C60.4005 20.5571 60.6162 21.0368 60.8744 21.4994C60.9257 21.585 61.0087 21.6472 61.1054 21.6725C61.2022 21.6978 61.305 21.6843 61.3919 21.6347C61.477 21.5829 61.5387 21.5001 61.564 21.4038C61.5894 21.3076 61.5763 21.2053 61.5276 21.1184C61.2696 20.6558 61.0538 20.1761 60.8341 19.6949C60.784 19.6102 60.7029 19.5481 60.6079 19.5219C60.5353 19.5019 60.4585 19.504 60.3871 19.5278C60.3157 19.5516 60.2531 19.5962 60.2073 19.6557C60.1614 19.7152 60.1344 19.787 60.1297 19.862C60.1249 19.9369 60.1427 20.0115 60.1807 20.0763L60.1809 20.0758Z" fill="#0A7BBB"/>
<path d="M67.3057 17.0736C67.514 17.5296 67.7187 17.9855 67.9636 18.4244C67.9885 18.4675 68.0217 18.5053 68.0613 18.5356C68.1009 18.5659 68.1461 18.5881 68.1943 18.6009C68.2426 18.6137 68.2928 18.6169 68.3423 18.6102C68.3917 18.6036 68.4394 18.5872 68.4825 18.5621C68.5256 18.537 68.5632 18.5036 68.5933 18.4639C68.6234 18.4242 68.6454 18.3789 68.6578 18.3307C68.6703 18.2825 68.6731 18.2323 68.6661 18.183C68.6591 18.1338 68.6423 18.0864 68.6168 18.0436C68.372 17.6046 68.1673 17.1494 67.9589 16.6927C67.9089 16.6079 67.8279 16.5459 67.7329 16.5197C67.6603 16.4997 67.5835 16.5018 67.5121 16.5256C67.4407 16.5495 67.3781 16.594 67.3323 16.6535C67.2864 16.713 67.2594 16.7848 67.2547 16.8598C67.2499 16.9347 67.2677 17.0093 67.3057 17.0741V17.0736Z" fill="#0A7BBB"/>
<path d="M45.2787 20.1657C45.7043 17.9064 45.8073 15.3211 45.1368 13.1592C45.5238 13.1069 45.9071 13.0302 46.2845 12.9297C46.6769 15.2466 46.5099 19.5239 45.6745 20.9029L45.1055 20.9973C45.1675 20.7262 45.2252 20.449 45.2787 20.1657Z" fill="#726A69"/>
<path d="M45.9196 13.0308C46.0771 14.093 46.1387 15.1673 46.1035 16.2405C46.1015 17.3399 45.9888 18.4363 45.767 19.5132C45.7154 19.7487 45.6511 19.9812 45.5744 20.2097C45.5564 20.2619 45.5373 20.3138 45.5179 20.3654C45.5096 20.3875 45.5008 20.4094 45.4919 20.4312C45.5119 20.3817 45.4946 20.4261 45.4831 20.4509C45.4424 20.5407 45.397 20.6284 45.3471 20.7135L45.5731 20.5405L45.0041 20.6349L45.4694 21.099C46.0641 18.4983 46.2929 15.6456 45.5009 13.0606C45.3591 12.5974 44.6285 12.7951 44.7715 13.2613C45.5242 15.7184 45.3052 18.4258 44.7399 20.8984C44.7239 20.9625 44.7248 21.0296 44.7425 21.0933C44.7602 21.157 44.7941 21.215 44.8409 21.2617C44.8878 21.3085 44.9459 21.3423 45.0098 21.36C45.0736 21.3776 45.1409 21.3785 45.2052 21.3625C45.384 21.3329 45.5695 21.3153 45.7454 21.273C46.0121 21.2086 46.1139 20.8929 46.2082 20.6644C46.4007 20.1655 46.5362 19.6465 46.612 19.1173C46.8285 17.7473 46.908 16.3592 46.8495 14.9734C46.8291 14.2554 46.7617 13.5394 46.6477 12.8301C46.6204 12.7341 46.5563 12.6526 46.4692 12.6033C46.3822 12.554 46.2792 12.5408 46.1825 12.5666C46.0872 12.5955 46.0068 12.6598 45.9578 12.7462C45.9089 12.8326 45.8952 12.9345 45.9196 13.0308Z" fill="#726A69"/>
<path d="M48.2435 5.30816C47.8579 5.32829 47.4738 5.36976 47.0928 5.43237C46.7048 5.50511 46.3167 5.57786 45.9287 5.6506C45.1354 5.77646 44.3589 5.99101 43.6137 6.2902C42.2558 6.88105 41.2132 8.06685 40.2623 9.16304C39.7831 9.69273 39.3675 10.2764 39.0239 10.9021C38.8592 11.2151 38.7241 11.5427 38.6202 11.8807C38.5209 12.209 38.4047 12.5906 38.5007 12.931C38.7433 13.7915 39.7388 13.6783 40.4404 13.6839C41.2673 13.6907 42.094 13.6772 42.9207 13.6724C44.0826 13.6658 45.2623 13.5952 46.3883 13.292C47.3284 13.0115 48.2365 12.6333 49.0974 12.1637C49.6609 11.8758 50.2208 11.582 50.7852 11.2953C51.0724 11.1501 51.4102 11.0336 51.6534 10.8186C51.8735 10.6018 52.0375 10.3348 52.1311 10.0407C52.2448 9.72794 52.3054 9.39848 52.3103 9.06587C52.3226 8.94728 52.3167 8.82752 52.2929 8.7107C52.3004 8.73255 52.2722 8.78082 52.2973 8.69639C52.3094 8.65488 52.3212 8.614 52.3354 8.57328C52.3612 8.50308 52.392 8.43478 52.4275 8.36889C52.4822 8.25883 52.5409 8.15176 52.6008 8.04516C52.7342 7.80932 52.8757 7.57882 53.017 7.34786C53.3034 6.9216 53.5533 6.47202 53.7641 6.00389C53.8311 5.8449 53.8393 5.66736 53.7873 5.50287C53.7354 5.33838 53.6266 5.19762 53.4804 5.10565C53.2589 4.96776 52.9824 5.00125 52.7336 5.00974C51.5257 5.05062 50.319 5.15125 49.114 5.2415L48.2427 5.30722C48.1431 5.30957 48.0482 5.35008 47.9778 5.42035C47.9074 5.49061 47.8668 5.58522 47.8644 5.68456C47.8652 5.7844 47.9053 5.87992 47.9761 5.95052C48.0468 6.02112 48.1426 6.06112 48.2427 6.0619C49.4057 5.97433 50.5687 5.88298 51.733 5.8138C51.9888 5.79808 52.2448 5.78456 52.5008 5.77339C52.6045 5.76899 52.7083 5.7649 52.8122 5.76192C52.8726 5.76003 53.0387 5.78754 53.0898 5.75641C53.0977 5.75185 53.1114 5.75201 53.0925 5.75767C52.9969 5.78597 53.1593 5.60815 53.0597 5.74305C53.057 5.74651 53.0378 5.79745 53.0535 5.75877C53.071 5.71538 53.0419 5.78377 53.0378 5.79305C53.0125 5.84446 52.9881 5.89619 52.9618 5.94713C52.8579 6.14838 52.7425 6.34365 52.6259 6.53783C52.3658 6.97067 52.09 7.39518 51.8512 7.84045C51.7478 8.02427 51.6608 8.21683 51.5913 8.4159C51.5457 8.6005 51.5332 8.79171 51.5544 8.98065C51.5581 9.25554 51.5131 9.52892 51.4214 9.78817C51.3834 9.89874 51.3332 10.0047 51.2716 10.1042C51.2559 10.1301 51.2127 10.1913 51.2086 10.1965C51.1902 10.2181 51.1707 10.2387 51.15 10.2581C51.0634 10.3396 51.1708 10.2501 51.1184 10.2841C50.8315 10.4481 50.5363 10.5973 50.234 10.7311C49.9617 10.8697 49.6898 11.0096 49.4185 11.1507C48.5831 11.5831 47.7372 12.0389 46.8851 12.3456C46.0098 12.6505 45.0954 12.8297 44.1695 12.878C43.5168 12.9201 42.865 12.9069 42.2119 12.9198C41.4162 12.9354 40.6204 12.9361 39.8244 12.9218C39.6217 12.9182 39.2786 12.969 39.2239 12.7055C39.2172 12.5868 39.2348 12.468 39.2757 12.3563C39.3143 12.1931 39.3617 12.0322 39.4176 11.8741C39.6378 11.2931 39.9465 10.7495 40.3329 10.2625C40.7395 9.74641 41.1732 9.25213 41.6321 8.78176C42.0809 8.27722 42.5824 7.82194 43.1281 7.42364C44.3467 6.58735 45.8741 6.42604 47.293 6.16017C47.6077 6.11025 47.9249 6.07776 48.2431 6.06285C48.3427 6.06049 48.4376 6.01998 48.508 5.94972C48.5785 5.87946 48.6191 5.78484 48.6214 5.6855C48.6207 5.58572 48.5806 5.49024 48.5099 5.41965C48.4392 5.34907 48.3435 5.30902 48.2435 5.30816Z" fill="#0A7BBB"/>
<path d="M42.4951 10.3681C42.7998 10.0238 43.1357 9.70843 43.4987 9.426C43.545 9.38837 43.5918 9.35111 43.6388 9.31421C43.6472 9.30761 43.7236 9.24786 43.6817 9.28041C43.6398 9.31296 43.7276 9.24566 43.7356 9.23953C43.8235 9.17318 43.9123 9.10825 44.0021 9.04473C44.1512 8.9371 44.3066 8.83829 44.4673 8.74883C44.5532 8.69769 44.6156 8.61492 44.641 8.51835C44.6664 8.42178 44.6527 8.31913 44.603 8.2325C44.5509 8.14764 44.468 8.08617 44.3715 8.06094C44.275 8.03571 44.1725 8.04867 44.0854 8.09712C43.6965 8.3222 43.3288 8.58207 42.9871 8.87351C42.6153 9.16096 42.2715 9.48271 41.9602 9.83448C41.8902 9.90544 41.8512 10.0011 41.8516 10.1007C41.852 10.2002 41.8918 10.2955 41.9624 10.3659C42.0329 10.4363 42.1285 10.4761 42.2283 10.4765C42.3281 10.4769 42.424 10.4379 42.4951 10.3681Z" fill="#0A7BBB"/>
<path d="M45.6957 8.25831C45.8879 8.1925 46.0861 8.14569 46.2874 8.11854L46.1868 8.13206C46.2508 8.12368 46.3149 8.11728 46.379 8.11288C46.4789 8.11066 46.5744 8.07143 46.6469 8.00282C46.7179 7.93206 46.7577 7.83608 46.7577 7.73601C46.7577 7.63594 46.7179 7.53996 46.6469 7.4692C46.6118 7.43405 46.57 7.40622 46.524 7.38733C46.478 7.36843 46.4287 7.35885 46.379 7.35914C46.0779 7.37823 45.7806 7.43636 45.4946 7.53209C45.4006 7.56034 45.3203 7.62184 45.2686 7.70504C45.2435 7.74782 45.2271 7.79512 45.2203 7.84423C45.2136 7.89334 45.2166 7.9433 45.2292 7.99125C45.2418 8.0392 45.2637 8.0842 45.2938 8.12368C45.3238 8.16317 45.3614 8.19636 45.4043 8.22137C45.4478 8.24685 45.496 8.26335 45.5461 8.26989C45.5962 8.27642 45.647 8.27286 45.6957 8.25942V8.25831Z" fill="#0A7BBB"/>
<path d="M51.1053 17.9845C50.3727 19.2257 49.717 20.5105 49.1417 21.8316C48.8219 22.5032 48.5652 23.2029 48.3747 23.9217C48.1525 24.8864 48.4567 25.8518 48.6568 26.7948L49.3504 30.0628C49.4512 30.5376 50.1807 30.3366 50.08 29.8621L49.4828 27.0501C49.3834 26.5815 49.2838 26.1128 49.1842 25.6441C49.0931 25.2145 48.9971 24.7782 49.0611 24.3374C49.1604 23.655 49.4656 22.9719 49.7389 22.3415C50.027 21.675 50.341 21.0197 50.6688 20.3718C51.0123 19.6927 51.3699 19.0197 51.7589 18.3653C52.0078 17.9466 51.354 17.5666 51.1056 17.9845H51.1053Z" fill="#AFD1E4"/>
<path d="M53.2643 22.3003C52.4301 22.6609 51.7537 23.3087 51.3584 24.1254C50.8821 25.0569 50.7221 26.0934 50.5703 27.1164C50.4229 28.1155 50.2672 29.1121 49.7045 29.9742C49.426 30.3758 49.127 30.7629 48.8086 31.1339C48.5039 31.5092 48.205 31.8891 47.9121 32.2735C47.3093 33.0596 46.718 33.8583 46.177 34.6885C46.1359 34.7608 46.1195 34.8445 46.1301 34.9269C46.1408 35.0093 46.178 35.0861 46.2361 35.1457C46.6519 35.5983 47.0813 36.0384 47.5101 36.4788C47.7496 36.7245 47.9886 36.9705 48.227 37.217C48.3517 37.3462 48.4611 37.4869 48.6557 37.4951C48.7352 37.4957 48.8144 37.4878 48.8922 37.4715C49.2552 37.3881 49.6057 37.2573 49.9345 37.0825C50.3781 36.8713 50.8096 36.6356 51.227 36.3764C51.648 36.1136 52.0535 35.8269 52.4416 35.5177C52.9088 35.1784 53.3205 34.769 53.662 34.304C54.3926 33.2292 55.0787 32.1233 55.7241 30.9957C56.4551 29.7187 57.1308 28.4125 57.7514 27.077C57.7993 26.9899 57.8119 26.8879 57.7867 26.7919C57.7614 26.6959 57.7002 26.6132 57.6157 26.5608C57.5289 26.5111 57.426 26.4974 57.3292 26.5228C57.2324 26.5481 57.1494 26.6104 57.0983 26.6962C56.2191 28.5862 55.2277 30.4223 54.1292 32.1945C53.8578 32.632 53.5798 33.0656 53.2952 33.4951C53.1684 33.6869 53.0475 33.8896 52.9043 34.0699C52.7467 34.2594 52.5723 34.4343 52.3831 34.5926C51.7858 35.1109 51.1385 35.5687 50.4505 35.9595C50.0811 36.1752 49.6996 36.3697 49.308 36.5422C49.1742 36.5998 49.0374 36.6503 48.8981 36.6933C48.843 36.709 48.7861 36.7201 48.7309 36.7363C48.7027 36.7445 48.6409 36.7421 48.7413 36.7373C48.7126 36.7387 48.6849 36.7414 48.656 36.7404L48.924 36.8505C48.2073 36.1038 47.4722 35.3738 46.7719 34.6116L46.831 35.0688C47.2863 34.3702 47.779 33.6954 48.2811 33.0294C48.8485 32.2765 49.4607 31.56 50.0327 30.8113C50.3419 30.4167 50.5975 29.9833 50.7929 29.522C50.9728 29.0615 51.1023 28.5829 51.1792 28.0947C51.3576 27.0806 51.4368 26.0426 51.7763 25.0634C52.0649 24.2301 52.6186 23.3763 53.4658 23.027C53.5607 22.9977 53.6409 22.9333 53.69 22.8471C53.7392 22.7609 53.7535 22.6592 53.7301 22.5628C53.7029 22.4667 53.6388 22.385 53.5517 22.3357C53.4645 22.2863 53.3614 22.2732 53.2647 22.2992L53.2643 22.3003Z" fill="#726A69"/>
</g>
</svg>
