<svg width="100" height="80" viewBox="0 0 100 80" fill="none" xmlns="http://www.w3.org/2000/svg">
<mask id="mask0_1621_25442" style="mask-type:alpha" maskUnits="userSpaceOnUse" x="0" y="0" width="100" height="80">
<path d="M0 0H100V80H0V0Z" fill="#D9D9D9"/>
</mask>
<g mask="url(#mask0_1621_25442)">
<path d="M53.9231 78.5428C53.4563 78.429 53.0064 78.2549 52.5848 78.0249C51.3636 77.294 50.1445 76.5754 50.1445 74.5471C50.1445 68.001 50.23 62.3175 50.23 55.5862C50.1947 54.6642 50.3455 53.7444 50.6733 52.8816C51.1764 51.7023 52.5964 50.9488 53.3791 49.9335C54.1617 48.9181 54.173 48.3685 54.173 47.0546L54.1654 46.6353C56.7791 47.3934 58.9153 47.5401 61.5452 47.5401C63.0538 47.5701 64.5629 47.5161 66.0655 47.3782C67.1693 47.2453 68.4842 47.1111 69.6025 46.6841C69.6025 46.7927 69.6047 46.8615 69.6047 46.8615C69.6047 48.1752 69.616 48.9176 70.3987 49.9325C71.1813 50.9474 72.6013 51.7014 73.1045 52.8806C73.4323 53.7434 73.583 54.6632 73.5478 55.5853C73.5478 62.3168 73.6332 68 73.6332 74.5461C73.6332 76.5749 72.4142 77.293 71.1929 78.0239C69.5256 79.0219 64.6689 79.3835 62.0124 79.413C59.8661 79.3899 56.1622 79.1523 53.9231 78.5428Z" fill="white"/>
<path d="M61.8609 39.2932C60.3288 39.2932 58.5983 39.223 57.0702 39.3473C55.7895 39.4517 53.5305 39.5856 52.6991 40.7587C52.4294 41.139 52.4282 41.6365 52.4282 42.1025C52.4282 43.0567 52.2435 45.1919 52.6538 45.6648C53.022 46.0502 53.463 46.3592 53.9514 46.5739C56.6628 47.3846 58.8428 47.5399 61.5434 47.5399C63.0521 47.5699 64.5612 47.5159 66.0638 47.378C67.5717 47.1964 69.4736 47.0126 70.7299 46.0825C70.9193 45.9545 71.0746 45.7823 71.182 45.5808C71.4692 44.9804 71.4596 41.6421 71.1271 40.94C70.5114 39.6404 67.9936 39.5531 66.7784 39.4443C65.1442 39.2971 63.5011 39.2932 61.8609 39.2932Z" fill="white"/>
<path d="M51.4122 70.9281C51.0461 70.7392 50.6997 70.5147 50.3779 70.2577L50.1562 70.0791C50.1796 65.2898 50.2301 60.7456 50.2301 55.5859C50.2301 55.5122 50.2301 55.4384 50.2314 55.3647C51.149 56.404 52.6365 56.6339 53.9402 56.7685C54.4377 56.8199 58.4394 57.1297 62.1869 57.1297C65.8182 57.1297 69.6016 56.8742 70.634 56.685C71.6906 56.5204 72.6905 56.0998 73.5462 55.4601C73.5462 55.5021 73.5462 55.5441 73.5462 55.5861C73.5462 60.7453 73.5954 65.2903 73.6201 70.0793L73.3984 70.2579C72.469 71.0114 71.2162 71.4581 70.1449 71.7649C68.3242 72.2865 64.5622 72.6211 61.8894 72.6289C59.2131 72.6211 55.4257 72.2479 53.6287 71.7649C52.8617 71.5667 52.1186 71.2861 51.4122 70.9281Z" fill="#E5EFD9"/>
<path d="M29.5518 35.3847C31.0238 32.9009 32.3643 30.6382 33.3676 28.9421C33.4333 28.8313 33.5173 28.6976 33.6459 28.6875C34.3662 28.6308 35.9889 29.075 37.3624 29.4455C38.3248 30.5414 39.2153 31.4495 39.7266 32.2742C39.7928 32.3813 39.7019 32.5233 39.6374 32.6319C36.0618 38.6755 28.235 51.9421 25.4078 56.7205C26.3387 57.2679 27.2285 57.7917 27.8146 58.1368C28.4165 58.4911 28.5926 58.8436 28.3894 59.1866L27.6725 60.3966C27.4802 60.7216 26.9702 61.0056 26.2644 60.5902L23.2653 58.8245L23.1668 58.9682C22.7077 59.6333 20.0199 63.5 19.7054 63.9554L19.5559 64.1721L21.4256 65.273C21.96 65.5875 22.1152 65.9005 21.9359 66.2051L21.3005 67.2792C21.1298 67.5679 20.6769 67.8197 20.0504 67.4512L16.1421 65.1502L16.0928 65.1217L12.1372 62.7927C11.5105 62.4241 11.5129 61.9063 11.6836 61.6176L12.3192 60.5435C12.4995 60.2388 12.8494 60.2241 13.3838 60.5386L15.4249 61.7404L15.5402 61.5105C15.7882 61.0154 17.8746 56.7443 18.2364 56.0216C18.2364 56.0216 18.2586 55.9771 18.2977 55.8987L15.1504 54.0458C14.4445 53.6311 14.4477 53.0481 14.6396 52.7221L15.3555 51.5124C15.5584 51.1685 15.9527 51.1525 16.5546 51.5068L19.1198 53.0172L19.2429 52.7789C21.0899 49.6561 24.8121 43.3798 28.1946 37.6729C28.6557 36.8971 29.1098 36.1311 29.5518 35.3847Z" fill="white"/>
<path d="M38.289 24.4741C38.2083 24.5424 38.1398 24.6238 38.0863 24.7149C37.6108 25.5185 36.3937 27.5878 35.9191 28.3919C35.8561 28.499 35.778 28.645 35.7142 28.7528C35.6305 28.8943 35.6724 28.996 35.8273 29.0872C36.0696 29.2299 36.6471 29.5803 36.8653 29.7088L37.184 29.8964C37.4022 30.0249 37.9888 30.3598 38.2314 30.5025C38.3855 30.5934 38.4949 30.5811 38.5784 30.4406C39.2903 29.2368 40.1937 27.7252 40.9699 26.413C41.0752 26.2273 41.1063 26.0088 41.0571 25.8013C41.0224 25.6047 40.9145 24.9642 40.5911 24.7741L39.6536 24.2221C39.3849 24.0638 38.7838 24.2417 38.5912 24.3051C38.4805 24.3415 38.3779 24.3989 38.289 24.4741Z" fill="white"/>
<path d="M52.6041 73.2263C52.3853 72.5965 52.2409 71.9434 52.1738 71.2803C52.6487 71.4719 53.1352 71.6337 53.6303 71.7647C55.4281 72.2477 59.2147 72.6209 61.891 72.6288C64.5638 72.6209 68.3258 72.2863 70.1465 71.7647C70.6333 71.6283 71.1127 71.4666 71.5828 71.2805C71.5145 73.0587 70.7873 74.8077 69.6577 75.4445C68.2581 76.2334 64.5024 76.5928 62.0681 76.5928C59.6337 76.5928 55.6384 76.2948 54.2748 75.4445C53.3126 74.8448 52.94 74.1751 52.6041 73.2263Z" fill="#65B005"/>
<path d="M53.499 54.391C53.6289 53.8743 53.8824 53.3967 54.2378 52.9992C54.5104 52.7176 54.8393 52.4963 55.2031 52.3496C55.567 52.203 55.9577 52.1342 56.3499 52.1479L67.8052 52.0742C68.7001 52.0742 69.1363 52.3951 69.7633 53.1719C70.3413 53.8881 70.5745 55.8601 71.0257 56.5107L71.0503 56.5993C70.9129 56.632 70.775 56.6605 70.6366 56.6858C69.6035 56.875 65.82 57.1305 62.1894 57.1305C58.4419 57.1305 54.4403 56.8207 53.9428 56.7694C53.5606 56.7298 53.1626 56.6821 52.7676 56.6084L52.7922 56.5102C53.067 55.8174 53.303 55.1099 53.499 54.391Z" fill="#65B005"/>
<path d="M37.3884 29.4749L37.3638 29.4455C35.9903 29.075 34.3677 28.6308 33.6473 28.6875C33.5188 28.6976 33.4348 28.8313 33.369 28.9421C31.6247 31.8902 28.8623 36.5529 26.1602 41.11C28.3153 42.3818 30.3497 43.5851 32.4384 44.8197C35.1338 40.2545 37.8926 35.5822 39.6381 32.6321C39.7024 32.5235 39.7935 32.3815 39.7273 32.2744C39.2202 31.4568 38.341 30.5579 37.3884 29.4749Z" fill="#65B005"/>
<path d="M58.2649 1.3832C57.8797 0.99779 57.3835 0.741934 56.8456 0.651326C55.8986 0.476234 54.9203 0.666717 54.1088 1.1842C53.2633 1.70004 52.5916 2.45603 52.1797 3.35525C51.6025 4.57749 51.4498 5.56904 51.3712 7.05489C51.3702 7.07485 51.375 7.09467 51.3849 7.11202C51.3949 7.12937 51.4096 7.14352 51.4273 7.1528C51.4451 7.16207 51.4651 7.16609 51.485 7.16437C51.505 7.16265 51.524 7.15526 51.5399 7.14309C51.9873 6.82831 52.4747 6.57427 52.9892 6.38763C53.6189 6.14975 54.2861 6.0262 54.9594 6.0228C55.8413 6.06255 56.7215 5.91353 57.5408 5.58575C58.4304 5.19266 58.9707 4.19743 59.0261 3.22725C59.0315 2.88441 58.9667 2.54407 58.8358 2.22702C58.705 1.90997 58.5107 1.62285 58.2649 1.3832Z" fill="#65B005"/>
<path d="M62.0217 10.5095C62.0217 10.4289 62.0217 10.3466 62.0166 10.2623C61.983 9.94132 61.8664 9.63453 61.6781 9.37202C61.4899 9.10952 61.2365 8.90032 60.9428 8.76493C60.4793 8.57301 59.9817 8.47647 59.4799 8.48112C58.9781 8.48576 58.4824 8.59149 58.0225 8.79196C57.1074 9.16735 56.6099 9.54446 55.8039 10.2783C55.7961 10.2855 55.7908 10.2948 55.7884 10.305C55.7861 10.3153 55.7869 10.326 55.7907 10.3358C55.7946 10.3455 55.8013 10.3539 55.81 10.3599C55.8187 10.3658 55.829 10.369 55.8396 10.369C57.015 10.3749 57.6561 11.0519 58.637 11.7086C58.9571 11.9231 59.5314 12.2983 59.9107 12.3661C60.4062 12.456 61.1174 12.145 61.4775 11.7951C61.6569 11.6336 61.7986 11.4347 61.8927 11.2126C61.9867 10.9904 62.0308 10.7504 62.0217 10.5095Z" fill="#65B005"/>
<path d="M83.6679 38.2595C83.8968 38.5448 84.0099 38.9053 83.9851 39.2698C83.9804 39.5251 83.8843 39.7704 83.7142 39.9613C83.4349 40.1957 83.0576 40.1427 82.7264 40.0766C82.2642 39.9844 81.7778 39.8628 81.3086 39.9847C80.2974 40.2471 80.1019 41.2688 80.2381 42.1648C80.2994 42.5709 80.312 42.9119 80.0344 43.2519C79.7675 43.578 79.4217 43.5654 79.0373 43.5094C78.7627 43.4485 78.4777 43.452 78.2048 43.5196C77.9318 43.5872 77.6783 43.717 77.4641 43.8988C77.2544 44.085 77.1123 44.3351 77.0597 44.6102C77.0071 44.8852 77.047 45.1699 77.1732 45.42C77.2534 45.5539 77.383 45.6511 77.5342 45.6906C77.6853 45.7302 77.8461 45.709 77.9817 45.6316C78.1148 45.5506 78.2112 45.4213 78.2507 45.2709C78.2902 45.1205 78.2698 44.9607 78.1938 44.825C78.212 44.8619 78.3007 44.7233 78.3302 44.7049C78.4606 44.6433 78.6071 44.6244 78.7489 44.6508C79.266 44.7 79.7093 44.7766 80.2063 44.5641C80.6632 44.3564 81.0302 43.992 81.2407 43.5372C81.4589 43.0605 81.5166 42.5261 81.4049 42.014C81.3675 41.7929 81.2909 41.3983 81.4542 41.2109C81.6512 40.987 82.1233 41.1553 82.3641 41.204C83.3044 41.3936 84.3223 41.3072 84.8618 40.4001C85.0907 39.9729 85.1956 39.4906 85.1648 39.0072C85.1339 38.5238 84.9685 38.0586 84.6872 37.6638C84.6054 37.5317 84.4759 37.4361 84.3254 37.3967C84.1749 37.3574 84.0149 37.3772 83.8787 37.4523C83.7444 37.5322 83.6469 37.6615 83.6073 37.8124C83.5676 37.9633 83.5889 38.1237 83.6667 38.2591L83.6679 38.2595Z" fill="#726A69"/>
<path d="M97.2847 26.7701C97.0956 26.5593 96.5597 26.2257 96.5543 25.9053C96.5883 25.7473 96.6464 25.5954 96.7267 25.455C96.8092 25.2062 96.8596 24.948 96.8767 24.6865C96.9752 23.7775 96.5565 22.7882 95.6724 22.4314C95.2695 22.269 94.7333 22.3457 94.3698 22.112C94.1548 21.922 93.9834 21.6879 93.8675 21.4256C93.4394 20.6736 92.887 19.957 91.9241 19.9904C91.4196 20.024 90.9325 20.1881 90.5108 20.4665C90.3199 20.5857 90.1414 20.7247 89.9512 20.8439C89.8396 20.9373 89.7022 20.9949 89.5572 21.0092C89.375 20.9898 89.1858 20.7829 89.0235 20.6982C88.8104 20.5878 88.5808 20.5126 88.3436 20.4756C87.9059 20.3896 87.4542 20.4076 87.0248 20.5282C86.6008 20.6757 86.2355 20.9553 85.9828 21.3256C85.8602 21.5042 85.7623 21.6983 85.6917 21.903C85.6166 22.1096 85.6134 22.3393 85.5344 22.5417C85.4233 22.8277 84.9795 22.8348 84.7121 22.8857C84.3291 22.9396 83.9584 23.059 83.6161 23.2387C82.7865 23.7242 82.5247 24.6408 82.6852 25.5378C82.7833 25.8998 82.8573 26.2679 82.9069 26.6396C82.9241 27.0194 82.636 27.2858 82.4289 27.5838C81.8422 28.4321 82.0412 29.5047 82.7443 30.2221C83.0894 30.5518 83.4948 30.8122 83.9385 30.9891C84.2431 31.149 84.1717 31.5296 84.1683 31.8335C84.1503 32.2852 84.2257 32.7358 84.3899 33.1572C84.7783 34.0841 85.6178 34.4497 86.5864 34.4045C86.9475 34.3878 87.4238 34.2802 87.7565 34.463C88.0998 34.6514 88.3172 35.0575 88.6339 35.2919C89.4368 35.8857 90.5972 35.6668 91.2949 35.0096C91.5685 34.7114 91.8071 34.383 92.0061 34.0308C92.0793 33.9101 92.1707 33.8013 92.277 33.7082C92.3396 33.6666 92.4099 33.6379 92.4837 33.624C92.5576 33.6101 92.6336 33.6111 92.707 33.6272C93.1671 33.6532 93.6128 33.8004 94.0753 33.8195C94.5634 33.8415 95.0468 33.7156 95.4618 33.4584C95.858 33.2156 96.1576 32.8433 96.3095 32.4049C96.3776 32.1738 96.4069 31.9331 96.3962 31.6925C96.3604 31.4399 96.3589 31.1838 96.3917 30.9309C96.4656 30.6508 96.7407 30.4373 96.954 30.2464C97.2648 29.9972 97.5344 29.7007 97.7529 29.3679C98.2651 28.4886 97.9208 27.4796 97.2847 26.7701ZM88.7933 28.1557C88.9028 28.2782 88.9675 28.4341 88.977 28.5979C88.9765 28.7637 88.9105 28.9226 88.7933 29.0401C88.6751 29.1565 88.516 29.2223 88.35 29.2237C88.2676 29.2236 88.1861 29.2074 88.11 29.1759C88.034 29.1444 87.9649 29.0983 87.9067 29.0401C87.7023 28.7822 87.4925 28.5286 87.2812 28.2763L86.6202 28.9097C86.5629 28.972 86.4937 29.0221 86.4165 29.0569C86.3393 29.0918 86.2559 29.1107 86.1712 29.1126C86.0865 29.1144 86.0024 29.0991 85.9238 29.0676C85.8451 29.0362 85.7737 28.9891 85.7139 28.9294C85.654 28.8696 85.6068 28.7984 85.5752 28.72C85.5437 28.6416 85.5284 28.5576 85.5302 28.4731C85.5321 28.3886 85.551 28.3054 85.586 28.2284C85.6209 28.1515 85.6711 28.0823 85.7336 28.0252L86.4694 27.3199C86.2889 27.1086 86.1082 26.8967 85.9276 26.6841C85.8142 26.5647 85.7509 26.4064 85.7509 26.2419C85.7509 26.0773 85.8142 25.9191 85.9276 25.7997C86.0456 25.6832 86.2049 25.6178 86.3709 25.6178C86.5369 25.6178 86.6962 25.6832 86.8142 25.7997C86.9993 26.0191 87.1851 26.2375 87.3718 26.4549L87.9949 25.8576C88.1141 25.7487 88.2708 25.6898 88.4325 25.6933C88.5941 25.6968 88.7482 25.7624 88.8625 25.8765C88.9769 25.9905 89.0427 26.1442 89.0462 26.3055C89.0497 26.4668 88.9907 26.6232 88.8814 26.7421L88.1835 27.4111C88.3896 27.657 88.5938 27.9044 88.7933 28.1547V28.1557ZM94.1746 28.1557C94.284 28.2783 94.3487 28.4341 94.3583 28.5979C94.3578 28.7637 94.2918 28.9226 94.1746 29.0401C94.0563 29.1565 93.8973 29.2223 93.7313 29.2237C93.6489 29.2236 93.5674 29.2074 93.4913 29.1759C93.4153 29.1444 93.3462 29.0983 93.288 29.0401C93.0833 28.7822 92.8738 28.5286 92.6624 28.2763L92.0015 28.9097C91.9442 28.972 91.8749 29.0221 91.7978 29.0569C91.7206 29.0918 91.6372 29.1107 91.5525 29.1126C91.4678 29.1144 91.3836 29.0991 91.305 29.0676C91.2264 29.0362 91.155 28.9891 91.0951 28.9294C91.0352 28.8696 90.9881 28.7984 90.9565 28.72C90.925 28.6416 90.9097 28.5576 90.9115 28.4731C90.9133 28.3886 90.9323 28.3054 90.9673 28.2284C91.0022 28.1515 91.0524 28.0823 91.1149 28.0252L91.8507 27.3199C91.6701 27.1086 91.4895 26.8967 91.3089 26.6841C91.1954 26.5647 91.1322 26.4064 91.1322 26.2419C91.1322 26.0773 91.1954 25.9191 91.3089 25.7997C91.4269 25.6832 91.5862 25.6178 91.7522 25.6178C91.9182 25.6178 92.0775 25.6832 92.1955 25.7997C92.3806 26.0191 92.5664 26.2375 92.7531 26.4549L93.3761 25.8576C93.4954 25.7487 93.6521 25.6898 93.8138 25.6933C93.9754 25.6968 94.1295 25.7624 94.2438 25.8765C94.3582 25.9905 94.424 26.1442 94.4275 26.3055C94.431 26.4668 94.372 26.6232 94.2627 26.7421L93.5648 27.4111C93.7709 27.657 93.9751 27.9044 94.1746 28.1547V28.1557Z" fill="#726A69"/>
<path d="M54.635 43.138C55.4502 43.4916 56.3631 43.5903 57.2379 43.6972C58.29 43.8259 59.3489 43.9046 60.4074 43.9535C62.1595 44.0347 63.9151 43.9904 65.6609 43.821C66.839 43.7058 68.0497 43.5547 69.1427 43.0752C69.2773 42.9955 69.375 42.8662 69.4147 42.7152C69.4544 42.5642 69.4328 42.4036 69.3547 42.2684C69.273 42.1363 69.1434 42.0406 68.9929 42.0012C68.8423 41.9618 68.6824 41.9817 68.5462 42.0568C68.6363 42.0173 68.5181 42.0686 68.4969 42.0767C68.4477 42.0952 68.4002 42.1133 68.3511 42.1305C68.2585 42.163 68.165 42.1924 68.0706 42.2204C67.83 42.2914 67.5855 42.3492 67.3395 42.3995C66.8671 42.4963 66.3896 42.5646 65.9111 42.6162C64.9014 42.7251 63.8838 42.7754 62.8677 42.7975C61.1855 42.8315 59.5029 42.7603 57.8297 42.5843C57.2938 42.529 56.8062 42.4693 56.2782 42.3742C56.058 42.3347 55.8383 42.2905 55.6216 42.2347C55.5386 42.2133 55.4559 42.1905 55.3753 42.1647C55.333 42.1514 55.0682 42.048 55.2335 42.1197C55.097 42.0458 54.9374 42.0265 54.7872 42.0658C54.637 42.1051 54.5075 42.2 54.425 42.3312C54.347 42.4666 54.3255 42.627 54.3652 42.778C54.4049 42.929 54.5025 43.0583 54.637 43.138H54.635Z" fill="#726A69"/>
<path d="M61.8608 38.7038C59.9352 38.7019 58.017 38.6414 56.098 38.8429C54.6578 38.994 52.5763 39.2979 51.9902 40.8614C51.8613 41.2996 51.8095 41.7567 51.837 42.2126C51.8331 42.5506 51.8178 42.8887 51.8082 43.2265C51.7535 43.9544 51.7886 44.6863 51.9129 45.4057C52.0685 46.0999 52.6847 46.5471 53.2674 46.8954C53.6884 47.1154 54.1385 47.2746 54.6044 47.3684C55.1158 47.502 55.6317 47.6172 56.152 47.7138C58.2029 48.0914 60.2763 48.1334 62.3558 48.1278C64.3043 48.1517 66.251 48.0002 68.1722 47.6752C69.086 47.5365 69.9657 47.2288 70.7662 46.7679C71.1814 46.5457 71.5186 46.2024 71.7328 45.7838C71.8202 45.551 71.8746 45.3072 71.8944 45.0595C72.0588 43.7906 72.0346 42.5045 71.8225 41.2427C71.5742 39.8408 70.1427 39.3043 68.8889 39.0864C67.1192 38.8189 65.3309 38.6931 63.5411 38.71C62.9808 38.7033 62.4206 38.7031 61.8603 38.7031C61.0998 38.7031 61.0983 39.8824 61.8603 39.8824C63.7359 39.8824 65.5999 39.9273 67.4689 40.0902C68.0787 40.1297 68.6836 40.2258 69.2755 40.3771C69.5494 40.4437 69.8133 40.546 70.0604 40.6813C70.1586 40.7354 70.2517 40.7983 70.3384 40.8692C70.4195 40.9346 70.4888 41.0133 70.5433 41.1019C70.5744 41.154 70.6419 41.3382 70.581 41.151C70.5919 41.1844 70.6057 41.2174 70.6145 41.2515C70.6379 41.3446 70.6608 41.437 70.6781 41.5313C70.6891 41.5913 70.6987 41.6517 70.7074 41.7122C70.6928 41.6112 70.712 41.7522 70.7155 41.7841C70.7319 41.9325 70.7454 42.0812 70.7559 42.23C70.7986 42.847 70.8087 43.4659 70.7859 44.0839C70.7763 44.3566 70.7591 44.6291 70.7313 44.9005C70.7268 44.9448 70.7103 45.0612 70.7263 44.9519C70.7197 44.9981 70.7125 45.0443 70.7042 45.0902C70.6789 45.1742 70.6584 45.2595 70.6426 45.3457C70.6426 45.3617 70.6076 45.4329 70.6524 45.3275C70.7037 45.2069 70.6372 45.3521 70.6256 45.3668C70.573 45.4358 70.5136 45.4992 70.4483 45.5563C70.3 45.674 70.1408 45.7773 69.9727 45.8648C69.6309 46.048 69.2698 46.1928 68.896 46.2965C67.2706 46.7719 65.4928 46.8883 63.8076 46.9306C61.9121 47.0063 60.0138 46.9659 58.1234 46.8095C57.1957 46.7168 56.2756 46.5609 55.3693 46.3427C54.9349 46.2539 54.5063 46.1384 54.0862 45.9968C53.7985 45.8614 53.5331 45.6831 53.2994 45.4678C53.2479 45.4229 53.1984 45.3762 53.1494 45.3288C53.1219 45.3028 53.096 45.2753 53.0718 45.2462C53.0777 45.2533 53.1292 45.3445 53.1112 45.289C53.0748 45.1787 53.1132 45.3135 53.1004 45.2678C53.0834 45.2089 53.0657 45.1506 53.0511 45.0907C53.0041 44.8287 52.9806 44.5631 52.981 44.2969C52.9637 43.6311 53.0041 42.9661 53.0162 42.3003C52.9833 41.9459 53.0124 41.5884 53.1021 41.2439C53.2174 41.0044 53.406 40.8076 53.6407 40.682C54.2192 40.3666 54.8539 40.1672 55.5092 40.0949C57.1287 39.8362 58.792 39.8492 60.4265 39.8683C60.904 39.8738 61.3818 39.8799 61.8593 39.8804C62.6215 39.8838 62.6228 38.7046 61.8608 38.7038Z" fill="#726A69"/>
<path d="M49.9608 70.6747C51.2232 71.6778 52.7929 72.2296 54.3636 72.534C55.9429 72.8233 57.5384 73.016 59.1413 73.111C62.3849 73.3423 65.6445 73.1874 68.8513 72.6494C70.606 72.3494 72.4114 71.7932 73.8203 70.6747C73.9303 70.5637 73.992 70.4139 73.992 70.2578C73.992 70.1017 73.9303 69.9519 73.8203 69.8408C73.7077 69.7336 73.5581 69.6738 73.4024 69.6738C73.2468 69.6738 73.0971 69.7336 72.9845 69.8408C71.846 70.7447 70.3041 71.1818 68.8964 71.4481C67.4177 71.71 65.9238 71.8787 64.4238 71.9532C61.389 72.1438 58.3423 71.9964 55.3401 71.5139C53.7681 71.2574 52.0691 70.8506 50.7983 69.8408C50.6853 69.7346 50.5358 69.6754 50.3804 69.6754C50.2251 69.6754 50.0756 69.7346 49.9625 69.8408C49.8526 69.9519 49.791 70.1017 49.791 70.2578C49.791 70.4138 49.8526 70.5636 49.9625 70.6747H49.9608Z" fill="#BADA95"/>
<path d="M49.8805 55.8561C50.9747 56.9788 52.588 57.2388 54.0834 57.3717C55.3288 57.4825 56.5791 57.5498 57.8267 57.608C61.5867 57.8003 65.3554 57.7469 69.1084 57.4483C70.7717 57.3083 72.4452 57.0358 73.8103 55.9952C73.9418 55.9128 74.037 55.7835 74.0763 55.6336C74.1157 55.4837 74.0964 55.3245 74.0223 55.1883C73.9425 55.0541 73.8129 54.9566 73.6616 54.917C73.5102 54.8774 73.3493 54.8989 73.2138 54.9768C72.5231 55.4906 71.7297 55.8502 70.8875 56.0313C70.7215 56.0698 70.5543 56.105 70.3861 56.132C70.3452 56.1386 70.3043 56.1443 70.2629 56.1507C70.1263 56.172 70.3179 56.145 70.2068 56.1583C69.9517 56.1891 69.696 56.2163 69.4399 56.2398C67.8047 56.3907 66.1605 56.4641 64.5191 56.5079C61.1744 56.5877 57.8278 56.4936 54.4929 56.2261C53.1892 56.1249 51.6763 56.0092 50.7146 55.0223C50.1834 54.4771 49.3481 55.3114 49.8788 55.8561H49.8805Z" fill="#BADA95"/>
<path d="M53.5814 47.0537C53.5814 47.6576 53.6149 48.233 53.3974 48.7813C53.1473 49.3151 52.7883 49.7908 52.3434 50.1783C51.8538 50.6384 51.3167 51.0509 50.8658 51.5509C50.364 52.1054 50.0136 52.7792 49.8479 53.5077C49.6784 54.3519 49.608 55.2129 49.6381 56.0733C49.6381 56.9869 49.6361 57.9005 49.6322 58.8143C49.6259 60.5286 49.6164 62.243 49.6036 63.9575C49.5805 67.3685 49.5544 70.7793 49.5529 74.1902C49.5171 74.9193 49.6414 75.6473 49.9171 76.3234C50.1698 76.8548 50.544 77.3195 51.0096 77.6803C51.8009 78.3283 52.7161 78.8089 53.6996 79.0927C54.8837 79.3977 56.0907 79.6063 57.3087 79.7165C58.5504 79.8536 59.7988 79.9376 61.0476 79.9808C63.4962 80.0545 65.9461 79.884 68.3607 79.4718C69.3881 79.2998 70.4825 79.09 71.4048 78.5822C72.3761 78.0476 73.3863 77.3627 73.8589 76.3234C74.1872 75.6014 74.2234 74.8533 74.2229 74.0721C74.2229 73.1984 74.221 72.3249 74.2173 71.4514C74.211 69.7377 74.2015 68.0243 74.1887 66.3111C74.1641 62.8579 74.1394 59.4049 74.138 55.9517C74.138 54.3388 74.0003 52.721 72.8512 51.4865C72.0092 50.5819 70.7446 49.8896 70.3547 48.6487C70.2111 48.0642 70.1573 47.4613 70.1949 46.8606C70.1949 46.1018 69.0128 46.1005 69.0128 46.8606C68.9831 47.5161 69.0368 48.1726 69.1726 48.8145C69.3577 49.4579 69.689 50.0501 70.1407 50.5451C70.9517 51.4786 72.2326 52.1243 72.6527 53.3458C72.8843 54.1109 72.987 54.9091 72.9566 55.7077C72.9576 56.5864 72.9591 57.4653 72.9613 58.3443C72.9665 60.028 72.9752 61.7116 72.9874 63.3949C73.0095 66.7182 73.0366 70.0417 73.0411 73.3652C73.0411 74.0952 73.1206 74.8656 72.8933 75.5709C72.7296 76.0389 72.4344 76.4501 72.0429 76.7553C71.6585 77.0633 71.2455 77.334 70.8096 77.5639C70.4398 77.7556 70.0474 77.9004 69.6415 77.995C67.3628 78.6144 64.918 78.7529 62.5669 78.8131C61.4749 78.8409 60.3802 78.7851 59.2915 78.7114C58.0628 78.6378 56.8388 78.5018 55.624 78.3041C55.0822 78.2155 54.5453 78.0991 54.0156 77.9552C53.6349 77.8647 53.268 77.7243 52.9243 77.5376C52.0609 77.0502 51.1541 76.4885 50.8613 75.4913C50.6508 74.7742 50.7367 73.9853 50.7382 73.2473C50.7397 72.4002 50.7423 71.5531 50.7461 70.706C50.7533 69.0541 50.7631 67.4022 50.7756 65.7502C50.799 62.3619 50.8089 58.9733 50.8227 55.5846C50.7957 54.7896 50.911 53.9961 51.1632 53.2414C51.407 52.6999 51.7762 52.2239 52.2404 51.8526C53.1763 50.9966 54.2352 50.1682 54.6047 48.8949C54.7438 48.2911 54.7976 47.6709 54.7645 47.0523C54.7645 46.2934 53.5824 46.2922 53.5824 47.0523L53.5814 47.0537Z" fill="#726A69"/>
<path d="M40.6356 24.8029C42.3076 21.9776 44.0081 19.1698 45.6889 16.3502C46.2647 15.3838 46.8393 14.4175 47.4128 13.4512C47.8004 12.7962 46.7789 12.2022 46.392 12.8559C44.4657 16.1116 42.5167 19.354 40.5746 22.6004C40.2541 23.136 39.9344 23.6721 39.6156 24.2086C39.228 24.8636 40.2495 25.4576 40.6364 24.8039L40.6356 24.8029Z" fill="#726A69"/>
<path d="M37.9339 30.9715C38.1617 31.2261 38.3888 31.4816 38.6073 31.7442C38.7058 31.8638 38.8043 31.984 38.8981 32.1085C38.9392 32.1633 39.1257 32.4965 39.1678 32.496C38.9592 32.4987 39.299 32.113 39.1126 32.3574C39.0856 32.3969 39.0609 32.4379 39.0387 32.4802L38.92 32.681C38.8171 32.8552 38.7141 33.0293 38.6109 33.2033L37.2956 35.4291C36.2654 37.1726 35.2353 38.9163 34.2054 40.6603C32.0431 44.3217 29.8809 47.983 27.7186 51.644C26.8235 53.1599 25.9278 54.6754 25.0315 56.1908C24.6441 56.8457 25.6657 57.4398 26.0523 56.7858C27.9194 53.6308 29.7843 50.4746 31.6471 47.3172C33.8517 43.584 36.0565 39.851 38.2615 36.1182L39.7586 33.5853C40.0381 33.1129 40.5297 32.5392 40.2363 31.9761C39.8839 31.2993 39.2744 30.7008 38.7698 30.137C38.2622 29.5695 37.4286 30.406 37.9339 30.9708V30.9715Z" fill="#726A69"/>
<path d="M19.7536 53.0763C21.5693 50.0083 23.3867 46.9413 25.2058 43.8753C27.3786 40.2096 29.5513 36.5437 31.7239 32.8775C32.2272 32.0277 32.7306 31.1777 33.234 30.3277L33.5805 29.7422C33.6972 29.5864 33.7963 29.4182 33.876 29.2408L33.9182 29.1717C33.6891 29.2463 33.6298 29.2801 33.7403 29.2732C33.8124 29.2853 33.8859 29.2873 33.9585 29.2791C34.0993 29.2885 34.2395 29.3055 34.3784 29.33C34.7826 29.398 35.1823 29.4909 35.5802 29.5879C36.3191 29.768 36.6343 28.631 35.8945 28.4509C35.2259 28.2597 34.5388 28.1401 33.8448 28.0942C33.6966 28.0795 33.5471 28.0984 33.4073 28.1494C33.2675 28.2005 33.1411 28.2824 33.0375 28.389C32.8878 28.5763 32.7579 28.7784 32.6496 28.9922C32.2178 29.7218 31.7859 30.4512 31.354 31.1804C30.3062 32.9493 29.258 34.7181 28.2096 36.487C25.9797 40.2514 23.7496 44.0149 21.5193 47.7773C20.5901 49.3449 19.6612 50.9129 18.7328 52.4813C18.3451 53.136 19.3667 53.7301 19.7536 53.0763Z" fill="#726A69"/>
<path d="M58.6831 0.966098C57.3655 -0.344097 55.199 -0.221258 53.7172 0.733933C52.3086 1.64146 51.4481 3.11847 51.0683 4.7252C50.9802 5.11239 50.9144 5.50432 50.8713 5.89904C50.8467 6.10099 50.8292 6.30343 50.8139 6.50611C50.7678 6.7588 50.7678 7.01773 50.8139 7.27041C50.8506 7.38544 50.9171 7.48876 51.0067 7.56994C51.0962 7.65112 51.2057 7.70729 51.324 7.73278C51.4475 7.75209 51.5739 7.74354 51.6937 7.70774C51.8136 7.67194 51.9239 7.60981 52.0165 7.52592C52.3982 7.27683 52.8083 7.0738 53.238 6.92106C54.8452 6.3361 56.7442 6.9132 58.2171 5.87718C58.5789 5.61373 58.8846 5.28112 59.1164 4.89869C59.3481 4.51626 59.5013 4.09167 59.5669 3.64963C59.6389 3.16435 59.5962 2.669 59.4423 2.20309C59.2884 1.73718 59.0275 1.31359 58.6803 0.966098C58.1612 0.409149 57.3259 1.24445 57.8445 1.79993C58.1199 2.07503 58.3075 2.42526 58.3837 2.80651C58.46 3.18777 58.4215 3.58301 58.273 3.94247C57.996 4.67361 57.4357 5.06129 56.6988 5.25414C55.7972 5.49024 54.8681 5.37698 53.9546 5.52218C53.4991 5.59615 53.0537 5.72305 52.6277 5.90027C52.3787 6.00223 52.1305 6.10836 51.8914 6.23194C51.7943 6.28107 51.6983 6.33512 51.6042 6.39113C51.5281 6.43634 51.3868 6.57195 51.323 6.59578H51.6372L51.5816 6.58375L51.8424 6.73533L51.801 6.69676L51.9529 6.95693C51.9468 6.73586 51.9664 6.51483 52.0113 6.29827C52.0268 6.12138 52.0441 5.94449 52.0682 5.76884C52.1228 5.37169 52.2086 4.97945 52.3248 4.59573C52.5318 3.84476 52.8962 3.1462 53.3941 2.54629C54.4324 1.37146 56.5434 0.505208 57.8445 1.79993C58.3865 2.33648 59.2226 1.5029 58.6831 0.966098Z" fill="#4F8D00"/>
<path d="M62.6135 10.5095C62.6236 9.88552 62.3993 9.28037 61.9847 8.81307C61.5278 8.33954 60.9209 8.03811 60.2667 7.95984C58.9253 7.73234 57.5597 8.1834 56.4695 8.96515C56.2313 9.13712 56.0015 9.32039 55.7799 9.51153C55.4903 9.76089 55.1039 10.0331 55.2177 10.4726C55.3255 10.8883 55.6797 10.935 56.0424 10.9662C56.3004 10.9906 56.5517 11.0625 56.7835 11.1782C57.296 11.4712 57.7873 11.7996 58.2539 12.1609C58.7027 12.4673 59.2117 12.8284 59.7545 12.9355C60.0912 12.9815 60.4338 12.9584 60.7611 12.8674C61.0885 12.7764 61.3938 12.6196 61.6582 12.4066C61.9548 12.1865 62.1958 11.9003 62.3617 11.5707C62.5275 11.2411 62.6138 10.8773 62.6135 10.5085C62.6322 9.74935 61.4501 9.74959 61.4313 10.5085C61.4268 10.7604 61.3466 11.0051 61.201 11.211C61.0555 11.4169 60.8513 11.5744 60.615 11.6632C60.4254 11.7609 60.2116 11.8021 59.9993 11.7816C59.7239 11.6983 59.4655 11.5671 59.2358 11.3942C58.7187 11.0681 58.2434 10.677 57.7237 10.3537C57.1604 9.99404 56.5091 9.79514 55.8405 9.77858L56.1387 9.85916L56.1003 9.8427L56.3712 10.195L56.3569 10.1586L56.2973 10.6129C56.3825 10.5252 56.4764 10.4463 56.5776 10.3775C56.6849 10.2844 56.7933 10.1918 56.9049 10.1039C57.0916 9.95715 57.2882 9.82351 57.4935 9.7039C57.9953 9.39093 58.5552 9.18205 59.1398 9.0897C60.1522 8.96367 61.4289 9.30787 61.4301 10.5078C61.4326 11.2681 62.6147 11.2696 62.6135 10.5095Z" fill="#4F8D00"/>
<path d="M16.0515 61.8083C16.8082 60.2949 17.5414 58.7698 18.2876 57.2513C18.4405 56.9402 18.5927 56.6292 18.7476 56.3194C18.823 56.1835 18.843 56.0239 18.8035 55.8737C18.764 55.7234 18.6681 55.5941 18.5356 55.5126C18.3999 55.4352 18.2392 55.414 18.088 55.4536C17.9368 55.4931 17.8072 55.5903 17.7271 55.7241C16.9503 57.2766 16.1965 58.8408 15.4316 60.3991C15.2984 60.6694 15.1661 60.9426 15.0307 61.213C14.9554 61.349 14.9354 61.5086 14.9749 61.6588C15.0144 61.809 15.1103 61.9383 15.2427 62.0198C15.3784 62.0972 15.5392 62.1184 15.6904 62.0788C15.8416 62.0393 15.9712 61.9422 16.0515 61.8083Z" fill="#726A69"/>
<path d="M20.2148 64.2535C21.1703 62.8697 22.1294 61.4881 23.092 60.1089C23.2867 59.828 23.4814 59.547 23.6761 59.266C23.7538 59.1306 23.7751 58.9702 23.7354 58.8194C23.6958 58.6685 23.5983 58.5391 23.4641 58.4592C23.328 58.3834 23.1678 58.3631 23.0171 58.4025C22.8664 58.4419 22.7368 58.5381 22.6556 58.6707C21.6751 60.0907 20.691 61.5083 19.7035 62.9234C19.5336 63.1691 19.3637 63.414 19.194 63.6582C19.1164 63.7936 19.0951 63.954 19.1348 64.1048C19.1744 64.2557 19.2718 64.385 19.406 64.465C19.5421 64.5408 19.7023 64.5612 19.8531 64.5217C20.0039 64.4823 20.1335 64.3862 20.2148 64.2535Z" fill="#726A69"/>
<path d="M21.0604 56.841L16.0103 53.8683C15.7257 53.7006 15.2651 53.5276 15.127 53.2102C15.159 53.2839 15.092 53.0859 15.1233 53.1981C15.1173 53.159 15.1173 53.1191 15.1233 53.08C15.1021 53.2028 15.139 53.0328 15.1459 53.0198C15.0814 53.1426 15.1775 52.9756 15.1816 52.9689C15.3612 52.6785 15.5296 52.381 15.7032 52.0872C15.7649 51.9997 15.8195 51.9074 15.8665 51.8113C15.8567 51.8373 15.9214 51.8093 15.8682 51.8135C15.7328 51.8238 15.9111 51.856 15.9443 51.8663C16.2084 51.9745 16.4597 52.1113 16.6938 52.2744L18.2024 53.1628L24.255 56.7266L27.3667 58.5586C27.4821 58.6205 27.5937 58.6892 27.7009 58.7644C27.7555 58.8062 27.8016 58.8711 27.858 58.9077C27.7868 58.8615 27.959 59.0133 27.8811 58.9399C27.8686 58.9278 27.8866 58.8637 27.8888 58.858C27.8289 59.0158 27.9735 58.7558 27.8247 58.9809C27.7083 59.157 27.608 59.3474 27.5004 59.5292C27.3915 59.7551 27.2581 59.9684 27.1027 60.1653C27.1327 60.1434 27.0288 60.2029 27.0103 60.2061C26.8459 60.2166 26.6829 60.1697 26.5493 60.0734C24.7062 59.0207 22.8897 57.9188 21.0604 56.8418C20.4038 56.4553 19.8084 57.4741 20.4639 57.8601C22.2787 58.9286 24.0841 60.0135 25.9088 61.0659C26.5801 61.4531 27.4652 61.5507 28.024 60.9097C28.233 60.6354 28.4169 60.343 28.5734 60.0358C28.7719 59.7007 29.0386 59.3607 29.0588 58.9573C29.098 58.176 28.3259 57.7535 27.7467 57.413L26.0671 56.4241L19.3318 52.4579L17.534 51.4003C16.956 51.0598 16.2931 50.5431 15.5828 50.6846C15.4131 50.724 15.2541 50.8002 15.1172 50.9077C14.9802 51.0152 14.8686 51.1514 14.7903 51.3067C14.5881 51.6406 14.3928 51.9786 14.1941 52.3139C14.0096 52.5981 13.9263 52.9359 13.9576 53.273C13.9889 53.6101 14.1329 53.9269 14.3665 54.1725C14.7322 54.5683 15.3023 54.8208 15.7638 55.0923L17.4303 56.0735L20.4629 57.8589C21.1205 58.2458 21.716 57.227 21.0604 56.841Z" fill="#726A69"/>
<path d="M16.4405 64.6414L12.8587 62.5328C12.6121 62.4244 12.3889 62.2692 12.2017 62.0758C12.1652 62.0227 12.182 62.0611 12.1771 61.9888C12.1771 61.982 12.1674 61.8906 12.1771 61.9508C12.1876 62.0178 12.212 61.8756 12.1798 61.9397C12.1581 61.982 12.2509 61.8196 12.2625 61.7999L12.4448 61.4916C12.5917 61.3081 12.7119 61.1049 12.8018 60.888C12.8334 60.7283 12.8326 60.8997 12.7986 60.8698C12.7835 60.879 12.7677 60.8873 12.7514 60.8943C12.7487 60.8993 12.7036 60.9029 12.7021 60.8907C12.7021 60.8939 12.8474 60.9285 12.8597 60.9329C13.2811 61.129 13.6849 61.3608 14.0665 61.626L19.048 64.5589L20.2811 65.2848C20.6609 65.5084 21.0283 65.7548 21.3987 65.9848C21.4233 65.9995 21.4618 66.0752 21.4199 65.9963C21.3884 65.9369 21.4901 65.8135 21.3706 66.0017C21.2372 66.2105 21.1175 66.4297 20.9911 66.6429C20.9419 66.7274 20.886 66.8107 20.8407 66.8975C20.836 66.9061 20.7641 67.0247 20.803 66.9697C20.8347 66.925 20.7766 66.9992 20.7744 67.0016C20.8094 66.9662 20.7385 67.0296 20.7239 67.0336C20.6672 67.0477 20.6078 67.0469 20.5515 67.0311C20.2449 66.9635 19.9139 66.6872 19.6455 66.5292L18.5373 65.8762L16.4408 64.6417C15.7842 64.2552 15.1887 65.274 15.844 65.66L18.0142 66.9375L19.1421 67.6008C19.4807 67.8374 19.8493 68.0279 20.2383 68.1674C20.4859 68.2399 20.7487 68.243 20.998 68.1764C21.2473 68.1099 21.4734 67.9762 21.6516 67.79C21.7896 67.6179 21.9104 67.4328 22.0122 67.2372C22.1668 66.9758 22.3434 66.7181 22.4766 66.4452C23.0431 65.2878 21.531 64.6498 20.7505 64.1903L14.9341 60.7666C14.4588 60.4868 13.9886 60.1657 13.4909 59.9271C12.9932 59.6886 12.4044 59.606 11.9773 60.0254C11.8001 60.236 11.6501 60.4679 11.5308 60.7157C11.4077 60.9233 11.273 61.128 11.1614 61.342C11.0523 61.5459 10.9968 61.7741 11.0001 62.0053C11.0035 62.2364 11.0655 62.463 11.1804 62.6637C11.4321 63.0951 11.8741 63.3216 12.2886 63.5661L13.4934 64.2753L15.8428 65.6588C16.5006 66.0464 17.0958 65.0274 16.4405 64.6414Z" fill="#726A69"/>
<path d="M23.4921 45.8856C24.0797 46.2317 24.6658 46.5803 25.2536 46.9262C25.3207 46.9653 25.3948 46.9908 25.4717 47.0013C25.5486 47.0119 25.6268 47.0071 25.7019 46.9875C25.777 46.9678 25.8475 46.9336 25.9093 46.8868C25.9711 46.84 26.0231 46.7815 26.0623 46.7146C26.1014 46.6477 26.127 46.5738 26.1376 46.4971C26.1481 46.4204 26.1434 46.3423 26.1237 46.2674C26.104 46.1925 26.0697 46.1222 26.0227 46.0605C25.9758 45.9988 25.9171 45.947 25.8501 45.9079C25.2625 45.562 24.6764 45.2134 24.0888 44.8672C24.0218 44.8281 23.9477 44.8026 23.8708 44.7921C23.7938 44.7816 23.7156 44.7863 23.6405 44.8059C23.5654 44.8255 23.4949 44.8598 23.4331 44.9066C23.3712 44.9534 23.3192 45.0119 23.28 45.0788C23.2408 45.1456 23.2152 45.2195 23.2047 45.2963C23.1942 45.373 23.1989 45.4511 23.2185 45.526C23.2382 45.6009 23.2725 45.6712 23.3195 45.7329C23.3664 45.7946 23.425 45.8465 23.4921 45.8856Z" fill="#726A69"/>
<path d="M25.9742 41.6926C26.5618 42.0388 27.1479 42.3874 27.7355 42.7333C27.8709 42.8122 28.0322 42.8343 28.1838 42.7946C28.3355 42.7549 28.4652 42.6568 28.5443 42.5218C28.6234 42.3867 28.6455 42.2258 28.6058 42.0745C28.566 41.9232 28.4676 41.7939 28.3323 41.715C27.7447 41.369 27.1585 41.0204 26.5707 40.6745C26.5036 40.6348 26.4294 40.6087 26.3522 40.5977C26.275 40.5867 26.1964 40.5911 26.1209 40.6106C26.0454 40.63 25.9745 40.6642 25.9123 40.7111C25.8501 40.758 25.7978 40.8167 25.7585 40.8839C25.7192 40.9511 25.6935 41.0253 25.6831 41.1024C25.6726 41.1795 25.6776 41.2579 25.6976 41.333C25.7177 41.4082 25.7524 41.4787 25.7999 41.5404C25.8474 41.6021 25.9066 41.6538 25.9742 41.6926Z" fill="#726A69"/>
<path d="M30.9337 33.3065C31.5213 33.6527 32.1074 34.0013 32.695 34.3472C32.762 34.3863 32.8361 34.4118 32.913 34.4223C32.9899 34.4329 33.0682 34.4282 33.1432 34.4086C33.2183 34.3889 33.2888 34.3547 33.3506 34.3079C33.4125 34.2611 33.4645 34.2026 33.5037 34.1358C33.5428 34.0689 33.5684 33.995 33.579 33.9183C33.5896 33.8416 33.5849 33.7636 33.5652 33.6887C33.5455 33.6138 33.5112 33.5434 33.4643 33.4818C33.4174 33.4201 33.3588 33.3682 33.2918 33.3291C32.7041 32.9829 32.118 32.6343 31.5302 32.2884C31.3949 32.2108 31.2344 32.1898 31.0836 32.2298C30.9328 32.2698 30.804 32.3677 30.7253 32.5021C30.6466 32.6364 30.6243 32.7964 30.6633 32.9471C30.7024 33.0978 30.7996 33.227 30.9337 33.3065Z" fill="#726A69"/>
<path d="M21.0117 50.0784C21.5993 50.4245 22.1864 50.7713 22.773 51.1191C22.9084 51.198 23.0696 51.2201 23.2213 51.1804C23.373 51.1407 23.5026 51.0426 23.5818 50.9075C23.6609 50.7725 23.683 50.6116 23.6432 50.4603C23.6035 50.309 23.5051 50.1797 23.3697 50.1007C22.7821 49.7548 22.1957 49.4062 21.6081 49.06C21.4728 48.9811 21.3115 48.9591 21.1599 48.9988C21.0082 49.0385 20.8786 49.1367 20.7995 49.2717C20.7204 49.4067 20.6983 49.5676 20.7381 49.7189C20.7779 49.8701 20.8763 49.9995 21.0117 50.0784Z" fill="#726A69"/>
<path d="M28.4529 37.4996C29.0243 37.8362 29.5951 38.1735 30.1655 38.5115C30.3008 38.5905 30.4621 38.6125 30.6138 38.5729C30.7654 38.5332 30.8951 38.435 30.9742 38.3C31.0534 38.165 31.0755 38.0041 31.0357 37.8528C30.9959 37.7015 30.8976 37.5721 30.7622 37.4932C30.1908 37.1569 29.621 36.8178 29.0496 36.4815C28.9143 36.4026 28.7531 36.3805 28.6014 36.4201C28.4498 36.4598 28.3201 36.5579 28.241 36.6929C28.1619 36.8279 28.1397 36.9888 28.1795 37.14C28.2192 37.2913 28.3176 37.4207 28.4529 37.4996Z" fill="#726A69"/>
<path d="M37.872 24.0571C37.4517 24.4553 37.1874 25.0766 36.8956 25.5722C36.5606 26.1405 36.226 26.7088 35.8915 27.2772L35.5162 27.914C35.3468 28.2016 35.082 28.5365 35.082 28.8822C35.082 29.2772 35.3776 29.504 35.6859 29.6887C35.9501 29.8465 36.2129 30.0066 36.4774 30.1639C36.8658 30.3951 37.2578 30.6198 37.6492 30.8459C37.9504 31.0201 38.2516 31.2218 38.6168 31.1173C39.0482 30.9945 39.2423 30.4805 39.4516 30.1282C39.9035 29.3666 40.3559 28.605 40.8088 27.8435C41.0152 27.4963 41.2275 27.1516 41.4272 26.8013C41.6399 26.4414 41.7094 26.0149 41.6218 25.6063C41.5763 25.2711 41.4628 24.9487 41.2881 24.6587C41.0381 24.2829 40.6086 24.0974 40.2306 23.8748C39.8762 23.6311 39.4414 23.5326 39.0162 23.5996C38.6495 23.6333 38.2972 23.7585 37.9917 23.9637C37.8602 24.046 37.765 24.1753 37.7257 24.3251C37.6863 24.475 37.7056 24.6342 37.7797 24.7703C37.8595 24.9046 37.9892 25.002 38.1406 25.0416C38.2919 25.0812 38.4529 25.0597 38.5885 24.9818C38.7839 24.8444 39.0136 24.7634 39.2522 24.7477C39.3022 24.7433 39.3526 24.7433 39.4026 24.7477C39.3583 24.7408 39.2696 24.6784 39.447 24.7833C39.6049 24.8767 39.763 24.9697 39.9213 25.0624C40.0154 25.1179 40.1092 25.1742 40.2038 25.2287C40.3353 25.3046 40.3045 25.2955 40.2673 25.2533C40.3255 25.3286 40.3662 25.416 40.3862 25.509C40.4679 25.6947 40.4963 25.8993 40.4682 26.1001C40.3901 26.2686 40.2953 26.4288 40.1853 26.5785C40.0815 26.7534 39.9778 26.9282 39.874 27.103C39.6632 27.4581 39.4522 27.8131 39.2411 28.168C39.0342 28.5159 38.8273 28.8637 38.6205 29.2116L38.3249 29.7096C38.2534 29.8546 38.1676 29.9922 38.0688 30.1204L38.3296 29.9688C38.5074 29.9064 38.5946 30.0425 38.4321 29.9337C38.3737 29.8941 38.3067 29.86 38.2456 29.8256L37.8558 29.601C37.6781 29.4985 37.5009 29.3953 37.3241 29.2915C37.1599 29.1942 36.9952 29.0959 36.8301 28.9967L36.4099 28.7441C36.3489 28.7075 36.2888 28.6655 36.225 28.6335C36.061 28.5508 36.2127 28.537 36.2432 28.7227V29.0392C36.3122 28.8785 36.3966 28.7249 36.4951 28.5805L36.7463 28.1542L37.4278 26.9968L38.1154 25.8294C38.2707 25.492 38.4699 25.1766 38.7079 24.8912C39.2608 24.3674 38.4239 23.5345 37.872 24.0571Z" fill="#726A69"/>
</g>
</svg>
