<svg width="130" height="80" viewBox="0 0 130 80" fill="none" xmlns="http://www.w3.org/2000/svg">
<mask id="mask0_1621_24695" style="mask-type:alpha" maskUnits="userSpaceOnUse" x="0" y="0" width="130" height="80">
<path d="M0 0H130V80H0V0Z" fill="#D9D9D9"/>
</mask>
<g mask="url(#mask0_1621_24695)">
<path d="M107.186 56.6004C108.583 56.2758 109.903 55.6734 111.067 54.8285C112.088 54.0789 112.716 53.0194 113.448 51.026C114.418 48.3872 114.697 45.2166 114.116 41.8382C113.998 41.1517 113.848 40.3387 113.65 39.3783C113.329 37.8264 112.894 35.9147 112.266 34.4602C111.338 32.3098 110.13 30.5892 108.667 28.766C105.788 25.1778 103.979 23.5609 100.389 21.1984C94.6039 18.1342 90.9024 17.1886 84.3851 16.1039C77.8678 15.0192 64.8906 15.8547 58.5622 17.7652C51.4785 19.9029 45.8154 23.8561 39.1117 30.058C38.3706 30.7341 37.4577 31.1893 36.4748 31.3729C31.4682 32.3435 29.4072 32.5593 25.2055 33.5353C22.9591 34.0573 20.701 34.8978 19.0032 36.4696C15.998 39.2532 15.6892 43.8277 15.6375 47.9608C15.6097 49.3838 15.792 50.803 16.1785 52.172C17.0438 55.1529 18.4284 56.8503 22.1069 57.107L40.8332 57.2545C53.375 57.2545 77.0954 57.033 89.6956 57.1797L107.186 56.6004Z" fill="white"/>
<path d="M89.6816 53.2024C87.6695 53.2024 84.6989 53.2056 84.6989 53.2056C83.0506 53.2056 51.7332 53.3165 45.9346 53.2851H41.3184C41.6163 54.1979 41.7676 55.1529 41.7666 56.1138C41.7666 56.5058 41.7478 56.8863 41.7147 57.2566L89.2539 57.1848C89.2239 56.8359 89.2074 56.4804 89.2074 56.1133C89.2063 55.1259 89.3665 54.1451 89.6816 53.2101V53.2024Z" fill="white"/>
<path d="M16.2935 41.3767C16.767 39.4986 17.5848 37.7853 19.0043 36.4708C19.9839 35.5918 21.1131 34.8982 22.3373 34.4236C23.3295 34.5761 24.5096 34.7712 25.5228 34.9912C25.7908 35.0271 26.0533 35.0972 26.3038 35.1998C26.5454 35.3224 26.8742 35.5828 26.7241 36.0395C26.2528 37.5391 25.5918 38.9712 24.7573 40.3005C24.3963 40.921 23.8103 41.3759 23.1228 41.5693C20.6778 42.2254 18.0237 42.1312 16.1152 42.1753C16.168 41.906 16.2274 41.6398 16.2935 41.3767Z" fill="#E3EFF6"/>
<path d="M109.14 35.2032C110.203 35.0635 111.249 34.8156 112.263 34.4634C112.899 36.0264 113.36 37.6562 113.637 39.3224C113.505 39.3299 113.417 39.3353 113.417 39.3353C112.321 39.4694 111.219 39.5408 110.115 39.5491C109.984 39.5564 109.854 39.5238 109.741 39.4554C109.641 39.3616 109.573 39.2371 109.55 39.1011C109.241 37.9526 108.955 36.7553 108.622 35.6761C108.606 35.6285 108.602 35.5781 108.608 35.5285C108.615 35.4789 108.632 35.4313 108.659 35.3891C108.685 35.347 108.721 35.3112 108.763 35.2845C108.805 35.2578 108.852 35.2408 108.901 35.2346C108.977 35.2256 109.057 35.2149 109.14 35.2032Z" fill="white"/>
<path d="M48.6913 30.4588C48.6726 30.0098 48.7987 29.5667 49.0508 29.196C49.4396 28.7514 49.9705 28.458 50.5515 28.3665L51.2606 28.3416C51.4718 28.3613 51.6736 28.4393 51.8437 28.5671C52.0138 28.6948 52.1457 28.8673 52.2248 29.0657C52.3801 29.6532 52.299 30.9906 52.3139 31.2512C52.3529 32.1248 52.3306 33 52.2471 33.8704C52.2063 34.2282 51.9633 34.6077 51.3442 34.4784C50.7251 34.349 49.8259 34.2314 49.5428 33.8873C49.2526 33.4689 49.0608 32.9894 48.982 32.4852C48.8385 31.8174 48.7413 31.1403 48.6913 30.4588Z" fill="white"/>
<path d="M33.0558 53.0993C32.6529 53.0912 32.2525 53.1649 31.8785 53.316C31.5045 53.467 31.1644 53.6924 30.8786 53.9787C30.5928 54.265 30.367 54.6063 30.2148 54.9823C30.0626 55.3583 29.9869 55.7614 29.9925 56.1674C29.9925 58.0826 31.1775 59.2934 33.0558 59.2934C34.9781 59.2934 36.1191 58.0826 36.1191 56.1674C36.125 55.7613 36.0497 55.358 35.8976 54.9818C35.7455 54.6057 35.5197 54.2642 35.2338 53.9778C34.9479 53.6915 34.6077 53.4661 34.2335 53.3152C33.8593 53.1642 33.4588 53.0908 33.0558 53.0993Z" fill="white"/>
<path d="M97.9196 53.0993C97.5167 53.0911 97.1163 53.1647 96.7423 53.3157C96.3682 53.4667 96.0281 53.692 95.7422 53.9782C95.4564 54.2644 95.2306 54.6056 95.0783 54.9816C94.926 55.3576 94.8503 55.7606 94.8557 56.1667C94.8557 58.0819 96.0405 59.2926 97.9191 59.2926C99.8411 59.2926 100.982 58.0819 100.982 56.1667C100.988 55.7606 100.913 55.3575 100.761 54.9815C100.608 54.6054 100.383 54.2641 100.097 53.9778C99.8111 53.6916 99.471 53.4663 99.0969 53.3153C98.7228 53.1644 98.3224 53.0909 97.9196 53.0993Z" fill="white"/>
<path d="M72.5684 32.2796C72.8156 30.3079 73.182 27.9083 73.5422 25.5303C73.8785 23.3126 74.2098 21.1126 74.4323 19.2979C76.4495 19.3209 78.4619 19.4366 80.4697 19.645C83.4613 19.9539 86.4455 20.4697 89.2913 21.4515C93.6759 22.9645 99.7546 25.6699 102.549 29.3964C102.578 29.4355 102.597 29.4814 102.603 29.5298C102.61 29.5782 102.604 29.6274 102.587 29.673C102.569 29.7186 102.541 29.7589 102.503 29.7902C102.466 29.8216 102.422 29.8429 102.374 29.8521C96.755 30.9405 80.9523 31.8097 74.7658 32.161L72.5684 32.2796Z" fill="#1492D9"/>
<path d="M62.4851 20.4548C57.7326 21.6175 53.0795 23.6979 49.546 26.0751C46.6473 28.0259 44.9806 30.1442 43.0682 32.1927C43.0105 32.2554 42.972 32.3337 42.9576 32.418C42.9431 32.5023 42.9533 32.589 42.9868 32.6676C43.0203 32.7462 43.0757 32.8133 43.1464 32.8608C43.217 32.9083 43.2998 32.934 43.3847 32.935C44.8768 32.9559 46.857 32.9489 49.096 32.9228C49.053 32.7718 49.0174 32.6238 48.9894 32.485C48.8456 31.817 48.7482 31.1397 48.6979 30.4581C48.6793 30.0091 48.8054 29.5661 49.0574 29.1953C49.4463 28.7507 49.9772 28.4573 50.5582 28.3658L51.2673 28.3408C51.4785 28.3606 51.6802 28.4386 51.8503 28.5664C52.0204 28.6941 52.1523 28.8666 52.2315 29.065C52.3868 29.6525 52.3057 30.9899 52.3205 31.2505C52.3353 31.5112 52.3512 32.168 52.3247 32.8742C53.4324 32.8547 54.5719 32.8323 55.724 32.8069C60.7562 32.6968 66.0093 32.5385 69.7164 32.3965C70.3385 27.6185 71.5322 21.386 71.8368 19.3193C68.6807 19.2236 65.5283 19.6064 62.4851 20.4548Z" fill="#1492D9"/>
<path d="M26.1294 35.8823C25.8104 36.9046 25.3941 37.8935 24.8863 38.8351C24.4388 39.6693 24.0039 40.6636 23.032 40.9678C20.947 41.6204 18.6585 41.5409 16.5008 41.5713C15.7378 41.582 15.7356 42.7781 16.5008 42.7674C18.3522 42.741 20.2038 42.733 22.0343 42.4146C22.9491 42.2553 23.8427 42.059 24.5639 41.4328C25.2514 40.8348 25.6735 39.9085 26.0842 39.1094C26.5643 38.1766 26.9624 37.2031 27.2739 36.2003C27.5026 35.4639 26.3571 35.149 26.1294 35.8823Z" fill="#AFD1E4"/>
<path d="M21.7075 37.3525C21.5881 37.957 21.5651 38.6056 21.327 39.1802L21.3868 39.0372C21.3727 39.0701 21.3576 39.1022 21.3408 39.1339C21.2614 39.2708 21.2393 39.434 21.2792 39.5874C21.3191 39.7408 21.4179 39.872 21.5538 39.952C21.6897 40.0321 21.8516 40.0544 22.0039 40.0141C22.1561 39.9739 22.2862 39.8743 22.3656 39.7374C22.7002 39.1097 22.7165 38.3557 22.852 37.6692C22.8901 37.5134 22.8688 37.3488 22.7921 37.2082C22.7333 37.1065 22.6459 37.0246 22.5411 36.9728C22.4362 36.9209 22.3185 36.9014 22.2027 36.9167C22.0869 36.9319 21.9781 36.9813 21.89 37.0586C21.8019 37.1359 21.7384 37.2377 21.7075 37.3512V37.3525Z" fill="#AFD1E4"/>
<path d="M41.7118 57.8563C44.5012 57.8541 47.2905 57.8458 50.0797 57.8313C53.328 57.8179 56.5763 57.8029 59.8248 57.7865C63.2331 57.7707 66.6414 57.7569 70.0497 57.7451C73.3192 57.7347 76.5887 57.7298 79.858 57.7304C82.6776 57.7324 85.4972 57.7444 88.3169 57.7663C88.6284 57.7693 88.94 57.7725 89.2515 57.7758C90.0155 57.784 90.016 56.5879 89.2515 56.5797C86.4938 56.5498 83.7359 56.5351 80.978 56.5356C77.7458 56.5308 74.5137 56.534 71.2817 56.5453C67.8742 56.5548 64.4667 56.568 61.0593 56.5849C57.7756 56.5999 54.4919 56.6151 51.2082 56.6305C48.3589 56.6428 45.5098 56.6521 42.6608 56.6582H41.7118C40.9484 56.6582 40.9469 57.8543 41.7118 57.8543V57.8563Z" fill="#726A69"/>
<path d="M52.317 33.4686C57.4651 33.3758 62.6123 33.2405 67.7587 33.0627C68.301 33.072 68.8433 33.0476 69.3826 32.9897C70.0321 32.8845 70.3051 32.3648 70.3876 31.7662C70.5498 30.5908 70.7301 29.4179 70.9185 28.2463C71.2624 26.1076 71.6379 23.9744 72.0081 21.8404C72.0786 21.4347 72.1483 21.0289 72.2172 20.6229C72.2954 20.1589 72.4118 19.6977 72.1507 19.2661C71.7885 18.6681 71.1388 18.6955 70.5268 18.7015C69.8939 18.7076 69.2616 18.7342 68.63 18.7812C65.9879 19.01 63.3757 19.5084 60.8335 20.2688C56.1435 21.6069 51.5068 23.7092 47.6308 26.7161C45.9384 28.0626 44.3869 29.5797 43.0004 31.2439C42.6295 31.676 42.2908 32.1161 42.4913 32.7186C42.6839 33.2992 43.1992 33.5279 43.7676 33.5337C44.8906 33.5454 46.0135 33.5426 47.1365 33.5351C47.7869 33.5307 48.4374 33.5246 49.088 33.517C49.8512 33.508 49.8545 32.3119 49.088 32.3209C47.8978 32.3345 46.7076 32.3428 45.5176 32.3458C45.0219 32.3458 44.5264 32.3441 44.0309 32.3406C43.9146 32.3325 43.798 32.3314 43.6816 32.3373C43.6366 32.3423 43.5827 32.365 43.6252 32.3518C43.6287 32.3518 43.6163 32.3346 43.6153 32.3371C43.5777 32.4213 43.6346 32.3276 43.64 32.3226C44.3254 31.6177 44.9296 30.8298 45.6143 30.1209C46.301 29.4078 47.0274 28.7347 47.79 28.1048C51.2467 25.2566 55.4461 23.2485 59.6739 21.8723C61.9981 21.0913 64.3867 20.5203 66.8113 20.1659C67.9862 20.0068 69.1694 19.9178 70.3548 19.8995C70.5066 19.8974 70.6585 19.8962 70.8104 19.896C70.8715 19.896 71.1177 19.8587 71.1511 19.8988C71.1294 19.8724 71.1323 19.9401 71.1237 19.9955C71.0683 20.3403 71.0075 20.6844 70.9481 21.0286C70.6178 22.9455 70.2781 24.8607 69.9607 26.7796C69.7818 27.8586 69.6109 28.9384 69.4479 30.019C69.367 30.5612 69.2953 31.1049 69.215 31.6471C69.2067 31.7111 69.1926 31.7741 69.1729 31.8355C69.1925 31.7797 69.2736 31.821 69.1292 31.8166C68.8678 31.8083 68.5993 31.836 68.338 31.8455C63.6203 32.0144 58.9015 32.1447 54.1817 32.2364C53.5598 32.2485 52.9379 32.2603 52.316 32.2718C51.5533 32.2855 51.5508 33.4816 52.316 33.4679L52.317 33.4686Z" fill="#0A7BBB"/>
<path d="M89.9966 22.2772C90.8193 23.647 91.5562 25.0674 92.203 26.5299C92.8874 27.9814 93.5458 29.4454 94.1901 30.9155C94.2703 31.0517 94.4004 31.1505 94.5524 31.1907C94.7043 31.2308 94.8659 31.209 95.002 31.1301C95.135 31.0473 95.2312 30.9162 95.2709 30.7638C95.3105 30.6115 95.2905 30.4496 95.2149 30.3118C94.5706 28.8416 93.9122 27.3779 93.2278 25.9262C92.5811 24.4634 91.8441 23.043 91.0212 21.6731C90.6108 21.0268 89.5832 21.6263 89.9966 22.2772Z" fill="#0A7BBB"/>
<path d="M73.1624 32.2799C73.5365 29.3079 74.0223 26.3507 74.4609 23.3879C74.572 22.6387 74.6799 21.8889 74.7845 21.1383C74.834 20.779 74.8824 20.4195 74.9297 20.0599C74.9388 19.9901 74.9497 19.9201 74.9571 19.8503C74.99 19.5396 74.9717 19.7933 74.9571 19.791L74.7811 19.9011L75.0236 19.9056C75.1451 19.9081 75.2664 19.911 75.3876 19.9141C76.9239 19.9541 78.4576 20.0478 79.9885 20.1952C82.971 20.481 85.9497 20.9711 88.8022 21.9145C91.0131 22.6422 93.1661 23.5379 95.2426 24.594C97.3214 25.6567 99.3695 26.9029 101.034 28.5656C101.223 28.7545 101.406 28.9491 101.583 29.1495C101.665 29.2423 101.746 29.3366 101.825 29.4323C101.86 29.4743 101.894 29.5167 101.928 29.5594C102.062 29.7261 102.007 29.7587 102.126 29.4846C102.251 29.2005 102.222 29.275 102.04 29.3102C101.963 29.3246 101.885 29.3387 101.808 29.3523C101.643 29.3815 101.478 29.4094 101.313 29.436C100.967 29.4922 100.621 29.5442 100.275 29.592C99.9755 29.6341 99.6052 29.6825 99.2098 29.731C95.1995 30.2257 91.1638 30.5224 87.1345 30.804C83.3411 31.0689 79.5442 31.2934 75.7488 31.5084L74.7648 31.5643C74.0055 31.6074 74.0005 32.8037 74.7648 32.7603C78.5523 32.5453 82.3395 32.327 86.1243 32.0696C90.3823 31.7801 94.6465 31.4743 98.8854 30.9665C99.7233 30.8668 100.56 30.7569 101.394 30.6266C101.73 30.574 102.065 30.518 102.399 30.4552C102.534 30.4376 102.663 30.3912 102.778 30.319C102.893 30.2468 102.992 30.1506 103.067 30.0368C103.31 29.6446 103.172 29.2394 102.915 28.9063C101.447 27.0015 99.4135 25.5673 97.3525 24.3819C95.1481 23.139 92.843 22.087 90.4619 21.2373C87.6437 20.2263 84.7208 19.5408 81.7493 19.194C80.1388 18.9926 78.5221 18.8533 76.8992 18.7761C76.5155 18.7572 76.1317 18.7416 75.7478 18.7295C75.3522 18.7168 74.8824 18.6378 74.4987 18.7467C73.6878 18.9772 73.7528 19.9789 73.6601 20.6557C73.2279 23.8083 72.7107 26.9482 72.2656 30.0996C72.1631 30.8265 72.0655 31.5539 71.9727 32.2817C71.9735 32.44 72.0363 32.5916 72.1474 32.7036C72.2585 32.8156 72.4089 32.8788 72.566 32.8797C72.7222 32.876 72.871 32.8117 72.9815 32.7004C73.092 32.589 73.1557 32.4391 73.1594 32.2817L73.1624 32.2799Z" fill="#0A7BBB"/>
<path d="M70.878 34.2224C70.606 36.1505 70.3588 38.0737 70.2762 40.0208C70.1791 42.302 70.1311 44.5848 70.116 46.8678C70.1076 48.1446 70.1042 49.4213 70.1059 50.6979C70.1059 51.4676 71.2926 51.4689 71.2926 50.6979C71.2926 48.4276 71.2926 46.1569 71.3399 43.8868C71.3804 41.9113 71.414 39.9226 71.596 37.9538C71.7018 36.8119 71.8618 35.6756 72.0222 34.5401C72.0589 34.3873 72.0365 34.2262 71.9595 34.0895C71.8825 33.9528 71.7568 33.8508 71.6079 33.8043C71.4561 33.7632 71.2945 33.7841 71.1579 33.8623C71.0213 33.9405 70.9207 34.07 70.878 34.2224Z" fill="#726A69"/>
<path d="M43.9189 35.5509C43.3134 37.3728 42.9625 39.2708 42.8763 41.1901C42.8173 43.2129 42.873 45.2374 43.0432 47.2537C43.1329 48.3837 43.2563 49.511 43.4217 50.6323C43.4644 50.7847 43.565 50.9139 43.7016 50.9921C43.8382 51.0703 43.9999 51.091 44.1516 51.0499C44.3012 51.0045 44.4277 50.9027 44.5049 50.7658C44.5821 50.6288 44.604 50.4672 44.5662 50.3144C44.294 48.3912 44.1295 46.4541 44.0737 44.5122C44.0111 42.6932 43.9607 40.8303 44.2796 39.0322C44.4694 37.9611 44.7312 36.9043 45.0631 35.8689C45.299 35.1351 44.1535 34.8206 43.9189 35.5509Z" fill="#726A69"/>
<path d="M45.9391 53.8849C47.9146 53.8956 49.8903 53.8911 51.8658 53.8889C54.9466 53.8856 58.0275 53.8798 61.1084 53.8717C64.5124 53.8637 67.9161 53.8547 71.3195 53.8445L79.9144 53.8196C81.4552 53.815 82.9959 53.8106 84.5366 53.8064H84.7027C85.4662 53.8064 85.4674 52.6104 84.7027 52.6104C83.3807 52.6104 82.0585 52.6173 80.7365 52.6213C77.9899 52.6295 75.2432 52.6378 72.4961 52.6462C69.1114 52.6562 65.7267 52.6654 62.3419 52.6739C59.1812 52.6817 56.0203 52.688 52.8594 52.6928C50.7037 52.6958 48.5478 52.6998 46.3921 52.6928C46.2408 52.6928 46.0896 52.6922 45.9384 52.6908C45.1747 52.6868 45.1737 53.8829 45.9384 53.8869L45.9391 53.8849Z" fill="#726A69"/>
<path d="M95.1173 33.687C95.592 34.9063 95.9982 36.1516 96.334 37.417C96.7353 38.7997 97.1222 40.1898 97.4444 41.5937C97.4975 41.8262 97.5499 42.0592 97.5915 42.2939C97.5996 42.3395 97.6038 42.3869 97.6145 42.4317C97.6328 42.51 97.6095 42.2618 97.6075 42.3819C97.6075 42.4048 97.6204 42.4402 97.6125 42.4621C97.64 42.3318 97.6952 42.209 97.7744 42.1023L98.1947 41.9279C97.1776 41.9379 96.1616 42.0002 95.1507 42.1145C94.047 42.2571 92.9701 42.5626 91.9546 43.0213C90.3143 43.7332 88.9797 45.0115 88.1908 46.6264C88.1155 46.7643 88.0955 46.926 88.1352 47.0783C88.1748 47.2305 88.2709 47.3616 88.4037 47.4445C88.5399 47.5231 88.7014 47.5447 88.8532 47.5046C89.0051 47.4644 89.1352 47.3658 89.2157 47.2299C89.5759 46.4533 90.0877 45.7577 90.7206 45.1849C91.3064 44.6911 91.9646 44.2918 92.6719 44.0013C93.6295 43.5964 94.6431 43.3421 95.6773 43.2473C96.154 43.1992 96.6327 43.1725 97.1113 43.1563C97.3425 43.1481 97.5739 43.1419 97.8051 43.1354C98.0823 43.1274 98.4005 43.1628 98.6141 42.9488C98.889 42.6732 98.7901 42.2665 98.7278 41.9291C98.6509 41.512 98.55 41.0991 98.4489 40.6875C98.1416 39.4371 97.7989 38.1957 97.4382 36.9592C97.1125 35.7414 96.7198 34.5427 96.2621 33.3688C96.2159 33.2187 96.1147 33.092 95.9791 33.0144C95.8436 32.9368 95.6837 32.9142 95.5322 32.9512C95.3808 32.994 95.2523 33.0953 95.1746 33.2331C95.097 33.3709 95.0764 33.534 95.1173 33.687Z" fill="#726A69"/>
<path d="M111.998 33.9264C111.253 34.1875 110.486 34.3823 109.707 34.5084C109.536 34.5397 109.365 34.5686 109.193 34.5952C109.103 34.6091 109.012 34.6225 108.921 34.6353C108.947 34.6315 109.011 34.6226 108.89 34.639C108.814 34.6455 108.739 34.6577 108.665 34.6756C108.088 34.8466 107.919 35.4421 108.079 35.9694C108.366 36.9185 108.602 37.8826 108.855 38.8417C108.985 39.34 109.095 39.882 109.639 40.0741C110.013 40.1675 110.402 40.1928 110.785 40.1489C111.661 40.1192 112.534 40.023 113.406 39.9371C113.562 39.9329 113.71 39.8686 113.821 39.7573C113.931 39.646 113.995 39.4963 113.999 39.339C113.998 39.1808 113.935 39.0293 113.824 38.9174C113.713 38.8055 113.563 38.7421 113.406 38.741C112.751 38.8058 112.095 38.8741 111.439 38.9184C111.114 38.9404 110.789 38.9573 110.463 38.9598C110.318 38.9382 110.171 38.9351 110.025 38.9506C110.048 38.9306 109.877 38.7943 110.09 39.0031C110.229 39.1404 110.119 39.0296 110.119 38.9989C110.119 39.0405 110.114 38.9575 110.111 38.9458C110.093 38.884 110.077 38.8212 110.061 38.7592C109.842 37.9337 109.637 37.1039 109.406 36.2814C109.351 36.086 109.295 35.8911 109.237 35.6968C109.228 35.6514 109.215 35.6071 109.197 35.5647C109.142 35.4775 109.197 35.5896 109.181 35.6395C109.155 35.7289 109.055 35.7641 109.008 35.8139C108.942 35.8296 108.933 35.8333 108.983 35.8251C109.02 35.8204 109.057 35.8154 109.093 35.8102C109.429 35.7648 109.764 35.7115 110.098 35.6502C110.851 35.5251 111.592 35.335 112.312 35.0821C112.462 35.0364 112.588 34.9345 112.665 34.7977C112.742 34.6608 112.764 34.4992 112.727 34.3465C112.684 34.1942 112.583 34.0651 112.447 33.9869C112.31 33.9087 112.149 33.8878 111.997 33.9286L111.998 33.9264Z" fill="#726A69"/>
<path d="M68.7935 37.1194C68.7831 36.6111 68.8548 36.039 68.4916 35.631C68.3818 35.5118 68.2485 35.4168 68.1003 35.3522C67.9521 35.2876 67.7922 35.2548 67.6307 35.2558C67.3115 35.2461 66.9906 35.2558 66.6714 35.2558H63.7443C63.6613 35.2558 63.5774 35.2525 63.4944 35.2558C63.26 35.2584 63.0321 35.3338 62.8419 35.4717C62.6516 35.6096 62.5082 35.8034 62.4312 36.0265C62.3744 36.2544 62.3577 36.4905 62.3818 36.7242C62.3679 36.9869 62.3943 37.2503 62.4602 37.5049C62.5396 37.723 62.683 37.9116 62.8712 38.0457C63.0594 38.1798 63.2836 38.2531 63.5141 38.2559C64.3083 38.2866 65.1094 38.2559 65.904 38.2559H67.4221C67.5059 38.2559 67.5907 38.2596 67.6745 38.2559C67.9704 38.2492 68.2522 38.1271 68.4606 37.9152C68.669 37.7034 68.7878 37.4184 68.792 37.1201C68.792 36.9615 68.7295 36.8094 68.6182 36.6973C68.5069 36.5851 68.356 36.5221 68.1986 36.5221C68.0413 36.5221 67.8903 36.5851 67.7791 36.6973C67.6678 36.8094 67.6053 36.9615 67.6053 37.1201C67.6095 37.0324 67.7195 37.0845 67.628 37.0598C67.5262 37.0479 67.4234 37.0479 67.3217 37.0598H63.7367C63.71 37.0598 63.5337 37.0389 63.5174 37.0598C63.5174 37.0584 63.55 37.0823 63.5695 37.0945C63.5992 37.1132 63.5579 37.1979 63.5784 37.1002C63.5877 36.9748 63.5841 36.8488 63.5676 36.7242C63.5661 36.6729 63.5814 36.3305 63.5327 36.4369C63.5174 36.47 63.4832 36.4324 63.502 36.4526C63.5243 36.4775 63.7087 36.4526 63.7419 36.4526H67.4312C67.5056 36.4621 67.5808 36.4621 67.6552 36.4526C67.6376 36.479 67.5652 36.3793 67.5887 36.3714C67.5766 36.6206 67.5818 36.8704 67.6043 37.1189C67.6223 37.8879 68.8091 37.8906 68.7935 37.1194Z" fill="#726A69"/>
<path d="M93.7681 37.1194C93.7577 36.6111 93.8294 36.039 93.4662 35.631C93.3564 35.5118 93.2231 35.4168 93.0749 35.3522C92.9267 35.2876 92.7668 35.2548 92.6053 35.2558C92.2861 35.2461 91.9652 35.2558 91.646 35.2558H88.7189C88.6359 35.2558 88.5521 35.2525 88.469 35.2558C88.2346 35.2584 88.0068 35.3338 87.8165 35.4717C87.6262 35.6096 87.4828 35.8034 87.4058 36.0265C87.349 36.2544 87.3323 36.4905 87.3564 36.7242C87.343 36.9868 87.3698 37.2498 87.436 37.5041C87.5155 37.7222 87.6588 37.9108 87.847 38.045C88.0353 38.1791 88.2595 38.2524 88.49 38.2552C89.2841 38.2858 90.0852 38.2552 90.8798 38.2552H92.3979C92.4817 38.2552 92.5665 38.2589 92.6503 38.2552C92.9462 38.2484 93.228 38.1263 93.4364 37.9145C93.6449 37.7027 93.7636 37.4177 93.7679 37.1194C93.7679 36.9608 93.7053 36.8087 93.5941 36.6965C93.4828 36.5844 93.3319 36.5214 93.1745 36.5214C93.0171 36.5214 92.8662 36.5844 92.7549 36.6965C92.6436 36.8087 92.5811 36.9608 92.5811 37.1194C92.5853 37.0317 92.6953 37.0838 92.6039 37.0591C92.5021 37.0471 92.3993 37.0471 92.2975 37.0591H88.7125C88.6858 37.0591 88.5095 37.0382 88.4932 37.0591C88.4932 37.0576 88.5258 37.0815 88.5454 37.0937C88.575 37.1124 88.5338 37.1971 88.5543 37.0995C88.5636 36.9741 88.5599 36.8481 88.5434 36.7235C88.5419 36.6721 88.5572 36.3297 88.5085 36.4361C88.4932 36.4693 88.4591 36.4317 88.4779 36.4518C88.5001 36.4768 88.6846 36.4518 88.7177 36.4518H92.407C92.4814 36.4613 92.5567 36.4613 92.631 36.4518C92.6135 36.4783 92.541 36.3786 92.5648 36.3706C92.5524 36.6198 92.5576 36.8696 92.5801 37.1182C92.5969 37.8879 93.7837 37.8906 93.7681 37.1194Z" fill="#726A69"/>
<path d="M49.601 33.9808C49.3886 34.1679 49.1923 34.3727 49.0141 34.5931C48.8953 34.735 48.7851 34.8841 48.684 35.0393C48.5538 35.2194 48.4753 35.432 48.4571 35.6541C48.456 35.7753 48.4865 35.8947 48.5455 36.0004C48.6046 36.106 48.6901 36.1942 48.7936 36.2561C48.9384 36.3296 49.0971 36.3713 49.2591 36.3784C49.4211 36.3991 49.5835 36.4131 49.7464 36.4215C49.9279 36.4313 50.1096 36.4343 50.2904 36.4338C50.4067 36.4368 50.523 36.4322 50.6387 36.4198C50.7493 36.408 50.8555 36.37 50.9486 36.3088C51.0417 36.2477 51.1192 36.1651 51.1745 36.068C51.2599 35.8467 51.3145 35.6146 51.3367 35.3782C51.3795 35.1749 51.4314 34.9738 51.4922 34.775C51.5325 34.622 51.5116 34.4592 51.4341 34.3216C51.3566 34.184 51.2286 34.0826 51.0776 34.0391C50.9259 34.0003 50.7652 34.0221 50.6292 34.1C50.4931 34.1779 50.3923 34.3058 50.3477 34.457C50.2906 34.6451 50.2404 34.8355 50.1994 35.0279C50.1793 35.1216 50.161 35.2155 50.1445 35.3097C50.1343 35.4101 50.1163 35.5095 50.0906 35.607L50.1504 35.4642L50.1361 35.4891L50.2288 35.368L50.2122 35.3837L50.3321 35.2903L50.3091 35.3032L50.4508 35.2429C50.4358 35.2502 50.4195 35.2546 50.4029 35.2556L50.5606 35.2342C50.116 35.2488 49.671 35.2301 49.2292 35.1784L49.3869 35.1996C49.3513 35.1961 49.3161 35.1894 49.2816 35.1796L49.4233 35.2399C49.4086 35.2343 49.395 35.2264 49.3827 35.2165L49.5029 35.31L49.4868 35.2935L49.5798 35.4146L49.5682 35.3947L49.628 35.5377L49.6213 35.5095L49.6426 35.6685L49.6443 35.6391L49.6231 35.7981C49.6296 35.7721 49.6378 35.7467 49.6478 35.7218L49.5879 35.8646C49.665 35.7002 49.7615 35.5458 49.8755 35.4049L49.7828 35.5257C49.9788 35.2719 50.1985 35.0377 50.439 34.8263C50.5496 34.7138 50.6116 34.5618 50.6116 34.4034C50.6116 34.2451 50.5496 34.0931 50.439 33.9806C50.3259 33.8719 50.1756 33.8113 50.0194 33.8113C49.8631 33.8113 49.7129 33.8719 49.5998 33.9806L49.601 33.9808Z" fill="#726A69"/>
<path d="M50.9207 34.6139C50.8134 34.9671 50.733 35.328 50.6804 35.6936C50.6782 35.7276 50.6674 35.7605 50.649 35.789C50.6259 35.8134 50.5946 35.8282 50.5613 35.8304C50.0967 35.8475 49.6316 35.826 49.1705 35.7664C49.1471 35.7649 49.1244 35.7576 49.1045 35.7451C49.0845 35.7327 49.068 35.7154 49.0563 35.6949C49.0457 35.6562 49.0505 35.6149 49.0696 35.5797C49.3109 35.1305 49.6336 34.7309 50.021 34.4016L50.9207 34.6139Z" fill="#726A69"/>
<path d="M49.2831 30.4556C49.293 29.9727 49.4188 29.5683 49.7702 29.3184C49.9649 29.1771 50.1813 29.069 50.4108 28.9982C50.5234 28.96 50.6424 28.9447 50.7609 28.9531C51.0996 28.9414 51.3473 28.8614 51.5824 29.1275C51.6614 29.2282 51.7022 29.354 51.6974 29.4823C51.7209 29.7465 51.7273 30.0116 51.7281 30.2767C51.7308 31.171 51.7585 32.0708 51.7202 32.9641C51.7088 33.2295 51.6954 33.5123 51.6655 33.767C51.6606 33.8073 51.6448 33.8462 51.6361 33.8856C51.6581 33.7877 51.5975 33.9459 51.6282 33.8983C51.6588 33.8507 51.7085 33.8933 51.6057 33.909C51.6645 33.9 51.529 33.901 51.536 33.901C51.2941 33.8782 51.055 33.8321 50.8219 33.7632C50.5706 33.7241 50.325 33.6539 50.0906 33.5544C49.9786 33.4984 50.0065 33.5168 49.9472 33.4341C49.8582 33.3034 49.788 33.1608 49.7385 33.0105C49.6399 32.7152 49.5638 32.4127 49.5108 32.1057C49.3861 31.5635 49.3099 31.0111 49.2831 30.4551C49.2769 29.6859 48.0902 29.6842 48.0963 30.4551C48.1278 31.1181 48.2183 31.7769 48.3666 32.4237C48.5023 33.1361 48.7068 34.0316 49.3256 34.4819C49.8624 34.8726 50.6481 34.9678 51.2853 35.0687C51.4542 35.1068 51.6291 35.1097 51.7992 35.0773C51.9693 35.045 52.1311 34.9779 52.2746 34.8803C52.4181 34.7827 52.5403 34.6566 52.6338 34.5097C52.7273 34.3628 52.79 34.1983 52.8182 34.0261C53.0224 32.8181 52.9151 31.5403 52.9146 30.3178C52.9146 29.663 52.9423 28.9057 52.5039 28.3767C52.3157 28.1554 52.0775 27.9829 51.8093 27.8739C51.541 27.765 51.2507 27.7226 50.9629 27.7505C50.3261 27.746 49.7024 27.932 49.1706 28.285C48.4289 28.7916 48.1139 29.5673 48.0958 30.4551C48.081 31.2256 49.2678 31.2256 49.2831 30.4556Z" fill="#726A69"/>
<path d="M27.2799 36.2005C27.3513 35.9695 27.353 35.7223 27.2848 35.4904C27.2165 35.2584 27.0814 35.052 26.8967 34.8976C26.5065 34.5716 26.0385 34.4959 25.5573 34.3932C24.5985 34.1889 23.6308 34.0282 22.6624 33.8777C22.5108 33.8404 22.3509 33.8629 22.2152 33.9405C22.0796 34.0181 21.9784 34.1451 21.9325 34.2953C21.8918 34.4482 21.9125 34.6111 21.99 34.7488C22.0676 34.8864 22.1958 34.9878 22.3469 35.0309C23.1673 35.1585 23.9864 35.2943 24.8008 35.456C25.1937 35.5079 25.5818 35.5921 25.9611 35.7077C26.0031 35.7252 26.0437 35.7462 26.0825 35.7702C26.0951 35.7774 26.1735 35.8362 26.1171 35.7904C26.0607 35.7445 26.1376 35.8141 26.1473 35.8233C26.1698 35.8482 26.17 35.8467 26.1487 35.8193C26.1275 35.7919 26.1277 35.7901 26.1463 35.8193C26.1648 35.8484 26.1641 35.8475 26.1507 35.8153C26.1393 35.7819 26.1374 35.7832 26.1507 35.8153C26.1621 35.8487 26.1609 35.8487 26.1557 35.8153C26.1505 35.7819 26.152 35.7817 26.1529 35.8193C26.1354 35.9259 26.1967 35.671 26.1366 35.8821C26.1159 35.9578 26.1102 36.0369 26.1198 36.1148C26.1294 36.1928 26.1542 36.2681 26.1927 36.3364C26.2311 36.4047 26.2826 36.4647 26.3441 36.5129C26.4056 36.5612 26.4759 36.5968 26.551 36.6177C26.6261 36.6385 26.7046 36.6443 26.782 36.6346C26.8593 36.6249 26.934 36.6 27.0018 36.5612C27.0695 36.5224 27.1291 36.4706 27.1769 36.4086C27.2248 36.3466 27.2601 36.2758 27.2809 36.2L27.2799 36.2005Z" fill="#AFD1E4"/>
<path d="M33.057 47.3892C27.9072 47.3892 24.3477 51.4089 24.3477 56.1127C24.3477 61.558 27.7166 65 33.0572 65C38.5213 65 41.7668 61.558 41.7668 56.1127C41.7668 51.377 38.1888 47.3892 33.057 47.3892ZM33.057 59.2917C31.178 59.2917 29.9937 58.081 29.9937 56.1658C29.9937 55.347 30.3164 54.5617 30.8909 53.9827C31.4654 53.4037 32.2446 53.0784 33.057 53.0784C33.8694 53.0784 34.6486 53.4037 35.2231 53.9827C35.7976 54.5617 36.1203 55.347 36.1203 56.1658C36.1206 58.082 34.9793 59.2917 33.057 59.2917Z" fill="#726A69"/>
<path d="M97.9181 47.3892C92.7685 47.3892 89.209 51.4089 89.209 56.1127C89.209 61.558 92.5777 65 97.9186 65C103.383 65 106.628 61.558 106.628 56.1127C106.628 51.377 103.05 47.3892 97.9181 47.3892ZM97.9181 59.2917C96.039 59.2917 94.8548 58.081 94.8548 56.1658C94.8548 55.347 95.1775 54.5617 95.752 53.9827C96.3265 53.4037 97.1056 53.0784 97.9181 53.0784C98.7305 53.0784 99.5097 53.4037 100.084 53.9827C100.659 54.5617 100.981 55.347 100.981 56.1658C100.982 58.082 99.8406 59.2917 97.9186 59.2917H97.9181Z" fill="#726A69"/>
<path d="M22.0981 56.5131C20.1395 56.3636 18.4169 55.6761 17.4562 53.8671C16.2152 51.531 16.1609 48.8075 16.2649 46.2265C16.3638 43.7785 16.6309 41.1958 17.8035 39.0043C19.1097 36.5623 21.5047 35.2095 24.0736 34.451C26.3559 33.7782 28.7341 33.3773 31.074 32.9631C32.2719 32.7513 33.4705 32.543 34.6672 32.3225C36.0604 32.0658 37.5043 31.9006 38.7197 31.1085C39.3027 30.6889 39.8515 30.223 40.3609 29.7153C40.9276 29.2004 41.4997 28.6916 42.0772 28.1891C43.1705 27.239 44.2849 26.3113 45.4323 25.4282C47.5327 23.79 49.7651 22.3314 52.1064 21.0675C54.3018 19.8943 56.6119 18.9534 58.9997 18.2598C60.9366 17.7275 62.9074 17.3293 64.8982 17.0679C69.5936 16.3923 74.3375 16.1195 79.0787 16.2524C81.1507 16.3075 83.2162 16.5104 85.2598 16.8596C87.7493 17.2559 90.2108 17.8135 92.6291 18.5291C95.0665 19.3092 97.4299 20.3073 99.691 21.5113C100.791 22.1278 101.836 22.8402 102.813 23.6403C103.68 24.3127 104.503 25.0403 105.278 25.8186C107.164 27.6912 108.842 29.7652 110.282 32.0038C111.056 33.1944 111.679 34.4779 112.136 35.8245C112.553 37.1672 112.89 38.5334 113.148 39.916C113.724 42.7791 114.084 45.6554 113.514 48.5541C113.063 50.8413 112.234 53.4415 110.16 54.7165C109.119 55.3518 107.983 55.814 106.796 56.0855C106.052 56.2577 106.367 57.4112 107.112 57.239C109.411 56.7067 111.834 55.5585 113.035 53.4188C114.429 50.935 115.026 47.9705 115.003 45.1376C114.966 43.6247 114.795 42.1181 114.493 40.6356C114.218 39.1577 113.917 37.6774 113.502 36.2321C112.684 33.3813 111.121 30.9199 109.299 28.6182C107.72 26.626 106.037 24.7178 104.06 23.1175C103.085 22.3291 102.063 21.6033 101.021 20.9091C99.831 20.1157 98.4472 19.5318 97.1397 18.9577C94.8329 17.9447 92.4383 17.1484 89.9863 16.5788C87.5478 15.9873 85.0746 15.5514 82.5816 15.2739C77.8492 14.7914 73.0104 15.0035 68.2846 15.468C63.6419 15.9242 59.0536 16.6907 54.7274 18.51C49.5046 20.7062 44.9297 24.0819 40.6929 27.8198C39.5744 28.8066 38.5113 30.1008 37.0679 30.5959C36.3427 30.8088 35.6033 30.9689 34.8553 31.0749C34.1728 31.2021 33.4896 31.3267 32.8059 31.4486C30.446 31.8682 28.0853 32.2737 25.7457 32.7999C22.9934 33.4191 20.1466 34.3329 18.1588 36.4644C16.3757 38.3756 15.6258 40.9429 15.297 43.4887C14.9326 46.3147 14.7887 49.3878 15.547 52.1557C16.0756 54.0856 17.0086 55.9946 18.8684 56.92C19.8845 57.3903 20.9812 57.6582 22.0981 57.7092C22.8601 57.767 22.8564 56.5707 22.0981 56.5131Z" fill="#726A69"/>
</g>
</svg>
