<svg width="100" height="80" viewBox="0 0 100 80" fill="none" xmlns="http://www.w3.org/2000/svg">
<mask id="mask0_1621_25665" style="mask-type:alpha" maskUnits="userSpaceOnUse" x="0" y="0" width="100" height="80">
<path d="M0 0H100V80H0V0Z" fill="#D9D9D9"/>
</mask>
<g mask="url(#mask0_1621_25665)">
<path d="M83.7484 53.2805C84.8668 53.0208 85.9225 52.5389 86.8538 51.8629C87.6702 51.2633 88.1724 50.4157 88.7585 48.8209C89.5343 46.7099 89.7574 44.1734 89.2925 41.4707C89.1982 40.9215 89.0787 40.2711 88.9201 39.5028C88.663 38.2613 88.3153 36.7319 87.8125 35.5683C87.0703 33.848 86.1037 32.4715 84.9334 31.0129C82.6301 28.1424 81.1828 26.8488 78.3111 24.9589C73.6831 22.5075 70.7219 21.751 65.5081 20.8833C60.2943 20.0155 49.9125 20.6839 44.8497 22.2123C39.1828 23.9225 34.6523 27.0851 29.2893 32.0465C28.6965 32.5874 27.9662 32.9516 27.1799 33.0985C23.1745 33.8749 21.5257 34.0475 18.1644 34.8284C16.3673 35.246 14.5608 35.9184 13.2026 37.1759C10.7984 39.4027 10.5514 43.0623 10.51 46.3688C10.4878 47.5072 10.6336 48.6426 10.9428 49.7377C11.6351 52.1225 12.7427 53.4804 15.6855 53.6857L30.6666 53.8037C40.7 53.8037 59.6763 53.6265 69.7565 53.7439L83.7484 53.2805Z" fill="white"/>
<path d="M69.7453 50.5618C68.1356 50.5618 65.7591 50.5644 65.7591 50.5644C64.4404 50.5644 39.3865 50.6531 34.7477 50.6279H31.0547C31.2931 51.3582 31.4141 52.1222 31.4133 52.8909C31.4133 53.2045 31.3983 53.5089 31.3717 53.8051L69.4031 53.7477C69.3792 53.4686 69.3659 53.1841 69.3659 52.8905C69.365 52.1006 69.4932 51.3159 69.7453 50.5679V50.5618Z" fill="white"/>
<path d="M11.0352 41.1016C11.414 39.5991 12.0683 38.2284 13.2038 37.1769C13.9875 36.4736 14.8909 35.9188 15.8702 35.5391C16.664 35.6611 17.6081 35.8171 18.4186 35.9932C18.6331 36.0219 18.843 36.078 19.0434 36.16C19.2367 36.2581 19.4998 36.4664 19.3797 36.8318C19.0026 38.0315 18.4738 39.1771 17.8063 40.2406C17.5174 40.737 17.0486 41.101 16.4986 41.2556C14.5427 41.7805 12.4193 41.7052 10.8926 41.7405C10.9348 41.525 10.9823 41.3121 11.0352 41.1016Z" fill="#E3EFF6"/>
<path d="M85.312 36.1629C86.1627 36.0511 86.9999 35.8528 87.8109 35.571C88.3199 36.8214 88.6884 38.1253 88.9097 39.4583C88.8046 39.4642 88.734 39.4686 88.734 39.4686C87.8575 39.5759 86.9756 39.633 86.0927 39.6397C85.9877 39.6455 85.8834 39.6194 85.7932 39.5647C85.7128 39.4897 85.6591 39.3901 85.6403 39.2812C85.3929 38.3625 85.1645 37.4046 84.8976 36.5413C84.8855 36.5031 84.8819 36.4628 84.887 36.4231C84.8921 36.3834 84.9059 36.3454 84.9273 36.3116C84.9486 36.2779 84.9771 36.2493 85.0107 36.228C85.0443 36.2066 85.0821 36.193 85.1215 36.188C85.1821 36.1808 85.2457 36.1723 85.312 36.1629Z" fill="white"/>
<path d="M36.9526 32.3669C36.9377 32.0077 37.0386 31.6533 37.2402 31.3566C37.5513 31.001 37.976 30.7662 38.4408 30.693L39.0081 30.6731C39.1771 30.6889 39.3385 30.7513 39.4745 30.8535C39.6106 30.9557 39.7161 31.0937 39.7795 31.2524C39.9037 31.7224 39.8388 32.7923 39.8507 33.0008C39.882 33.6997 39.8641 34.3998 39.7973 35.0961C39.7647 35.3824 39.5702 35.686 39.0749 35.5825C38.5797 35.4791 37.8603 35.385 37.6338 35.1097C37.4017 34.775 37.2482 34.3914 37.1852 33.988C37.0704 33.4537 36.9927 32.9121 36.9526 32.3669Z" fill="white"/>
<path d="M24.445 50.4798C24.1227 50.4733 23.8024 50.5323 23.5032 50.6531C23.204 50.774 22.9319 50.9543 22.7033 51.1833C22.4746 51.4123 22.294 51.6854 22.1722 51.9862C22.0504 52.287 21.99 52.6094 21.9944 52.9343C21.9944 54.4665 22.9424 55.4351 24.445 55.4351C25.9829 55.4351 26.8957 54.4665 26.8957 52.9343C26.9004 52.6094 26.8401 52.2868 26.7184 51.9858C26.5968 51.6849 26.4162 51.4117 26.1875 51.1826C25.9587 50.9535 25.6866 50.7732 25.3872 50.6525C25.0878 50.5317 24.7674 50.473 24.445 50.4798Z" fill="white"/>
<path d="M76.336 50.4798C76.0138 50.4732 75.6934 50.5321 75.3942 50.6529C75.0949 50.7737 74.8229 50.9539 74.5942 51.1829C74.3655 51.4118 74.1848 51.6848 74.063 51.9856C73.9412 52.2864 73.8806 52.6088 73.885 52.9337C73.885 54.4658 74.8328 55.4345 76.3357 55.4345C77.8733 55.4345 78.7863 54.4658 78.7863 52.9337C78.7909 52.6088 78.7306 52.2864 78.6089 51.9855C78.4872 51.6847 78.3066 51.4116 78.0779 51.1826C77.8493 50.9536 77.5772 50.7734 77.2779 50.6526C76.9787 50.5318 76.6583 50.4731 76.336 50.4798Z" fill="white"/>
<path d="M56.0547 33.8241C56.2525 32.2467 56.5456 30.3271 56.8338 28.4247C57.1028 26.6506 57.3678 24.8905 57.5459 23.4387C59.1596 23.4572 60.7696 23.5498 62.3758 23.7164C64.7691 23.9636 67.1564 24.3762 69.433 25.1617C72.9407 26.3721 77.8037 28.5363 80.0391 31.5175C80.0623 31.5488 80.0773 31.5855 80.0826 31.6243C80.0879 31.663 80.0833 31.7024 80.0693 31.7388C80.0553 31.7753 80.0324 31.8076 80.0027 31.8326C79.9729 31.8577 79.9374 31.8747 79.8993 31.8821C75.404 32.7529 62.7619 33.4482 57.8127 33.7293L56.0547 33.8241Z" fill="#1492D9"/>
<path d="M47.9885 24.364C44.1865 25.2941 40.464 26.9584 37.6372 28.8602C35.3182 30.4209 33.9849 32.1155 32.455 33.7543C32.4088 33.8045 32.378 33.8671 32.3665 33.9345C32.3549 34.002 32.363 34.0713 32.3898 34.1342C32.4166 34.1971 32.461 34.2508 32.5175 34.2888C32.574 34.3268 32.6402 34.3474 32.7081 34.3481C33.9018 34.3649 35.486 34.3593 37.2772 34.3384C37.2428 34.2176 37.2143 34.0991 37.1919 33.9881C37.0769 33.4537 36.999 32.9119 36.9587 32.3666C36.9438 32.0074 37.0447 31.653 37.2463 31.3564C37.5574 31.0007 37.9821 30.766 38.4469 30.6928L39.0142 30.6728C39.1832 30.6886 39.3446 30.7511 39.4806 30.8532C39.6167 30.9554 39.7222 31.0934 39.7856 31.2521C39.9098 31.7222 39.8449 32.792 39.8568 33.0006C39.8687 33.2091 39.8813 33.7345 39.8602 34.2995C40.7463 34.2839 41.6579 34.266 42.5796 34.2457C46.6053 34.1576 50.8078 34.031 53.7735 33.9173C54.2712 30.0949 55.2261 25.1089 55.4698 23.4556C52.945 23.3791 50.4231 23.6853 47.9885 24.364Z" fill="#1492D9"/>
<path d="M18.9035 36.7059C18.6483 37.5238 18.3153 38.3148 17.909 39.0681C17.551 39.7355 17.2031 40.5309 16.4256 40.7743C14.7576 41.2964 12.9268 41.2328 11.2006 41.2571C10.5903 41.2657 10.5885 42.2225 11.2006 42.214C12.6817 42.1928 14.163 42.1865 15.6275 41.9317C16.3593 41.8043 17.0741 41.6472 17.6511 41.1463C18.2012 40.6678 18.5388 39.9269 18.8673 39.2876C19.2514 38.5413 19.5699 37.7626 19.8191 36.9603C20.0021 36.3712 19.0857 36.1192 18.9035 36.7059Z" fill="#AFD1E4"/>
<path d="M15.366 37.882C15.2705 38.3656 15.2521 38.8845 15.0616 39.3442L15.1095 39.2297C15.0982 39.256 15.0861 39.2818 15.0727 39.3071C15.0091 39.4167 14.9914 39.5472 15.0234 39.6699C15.0553 39.7927 15.1343 39.8976 15.2431 39.9616C15.3518 40.0257 15.4813 40.0435 15.6031 40.0113C15.7249 39.9791 15.829 39.8995 15.8925 39.7899C16.1601 39.2877 16.1732 38.6845 16.2816 38.1353C16.3121 38.0107 16.295 37.8791 16.2337 37.7665C16.1866 37.6852 16.1167 37.6197 16.0329 37.5782C15.949 37.5367 15.8548 37.5211 15.7621 37.5333C15.6695 37.5456 15.5825 37.5851 15.512 37.6469C15.4415 37.7087 15.3907 37.7902 15.366 37.881V37.882Z" fill="#AFD1E4"/>
<path d="M31.3706 54.2848C33.6022 54.2831 35.8336 54.2764 38.065 54.2649C40.6636 54.2541 43.2623 54.2422 45.861 54.229C48.5876 54.2164 51.3143 54.2053 54.0409 54.1959C56.6566 54.1875 59.2721 54.1836 61.8876 54.1841C64.1432 54.1857 66.3989 54.1953 68.6547 54.2128C68.9039 54.2152 69.1531 54.2178 69.4024 54.2204C70.0135 54.227 70.0139 53.2702 69.4024 53.2636C67.1962 53.2397 64.9899 53.2279 62.7836 53.2283C60.1978 53.2244 57.6121 53.227 55.0265 53.2361C52.3006 53.2436 49.5746 53.2542 46.8486 53.2678C44.2216 53.2797 41.5947 53.2919 38.9677 53.3042C36.6883 53.3141 34.409 53.3214 32.1298 53.3264H31.3706C30.7599 53.3264 30.7587 54.2832 31.3706 54.2832V54.2848Z" fill="#726A69"/>
<path d="M39.8536 34.775C43.972 34.7008 48.0898 34.5925 52.207 34.4503C52.6408 34.4577 53.0746 34.4382 53.5061 34.3919C54.0257 34.3078 54.244 33.8919 54.3101 33.4131C54.4399 32.4728 54.5841 31.5345 54.7348 30.5972C55.0099 28.8862 55.3104 27.1796 55.6065 25.4725C55.6629 25.1479 55.7187 24.8233 55.7738 24.4985C55.8363 24.1273 55.9294 23.7583 55.7206 23.413C55.4308 22.9346 54.911 22.9565 54.4215 22.9613C53.9151 22.9662 53.4093 22.9875 52.904 23.0251C50.7903 23.2081 48.7006 23.6069 46.6668 24.2152C42.9148 25.2857 39.2054 26.9675 36.1046 29.373C34.7507 30.4502 33.5095 31.6639 32.4003 32.9953C32.1036 33.341 31.8327 33.693 31.9931 34.175C32.1472 34.6395 32.5594 34.8225 33.0141 34.8271C33.9125 34.8364 34.8108 34.8342 35.7092 34.8283C36.2295 34.8247 36.7499 34.8198 37.2704 34.8137C37.881 34.8065 37.8836 33.8497 37.2704 33.8569C36.3182 33.8678 35.3661 33.8744 34.4141 33.8768C34.0176 33.8768 33.6211 33.8754 33.2247 33.8726C33.1317 33.8662 33.0384 33.8653 32.9453 33.87C32.9093 33.874 32.8661 33.8921 32.9002 33.8816C32.9029 33.8816 32.893 33.8678 32.8922 33.8698C32.8622 33.9372 32.9077 33.8622 32.912 33.8583C33.4603 33.2943 33.9437 32.664 34.4914 32.0969C35.0408 31.5264 35.6219 30.9879 36.232 30.484C38.9973 28.2055 42.3569 26.5989 45.7391 25.498C47.5985 24.8732 49.5093 24.4164 51.449 24.1329C52.389 24.0056 53.3355 23.9344 54.2838 23.9198C54.4052 23.918 54.5268 23.9171 54.6483 23.917C54.6972 23.917 54.8942 23.8871 54.9209 23.9192C54.9035 23.898 54.9059 23.9523 54.8989 23.9965C54.8546 24.2724 54.806 24.5477 54.7585 24.823C54.4943 26.3565 54.2225 27.8887 53.9685 29.4239C53.8255 30.287 53.6887 31.1508 53.5583 32.0153C53.4936 32.4491 53.4363 32.8841 53.372 33.3178C53.3654 33.369 53.3541 33.4194 53.3384 33.4685C53.354 33.4239 53.4189 33.457 53.3033 33.4534C53.0943 33.4468 52.8795 33.4689 52.6704 33.4765C48.8962 33.6117 45.1212 33.7159 41.3453 33.7893C40.8478 33.799 40.3503 33.8084 39.8528 33.8176C39.2426 33.8286 39.2406 34.7854 39.8528 34.7744L39.8536 34.775Z" fill="#0A7BBB"/>
<path d="M69.9969 25.8213C70.6551 26.9172 71.2446 28.0535 71.762 29.2235C72.3095 30.3847 72.8362 31.5559 73.3517 32.732C73.4158 32.8409 73.5199 32.92 73.6415 32.9521C73.7631 32.9842 73.8923 32.9668 74.0012 32.9036C74.1076 32.8374 74.1846 32.7325 74.2163 32.6106C74.248 32.4887 74.232 32.3593 74.1715 32.249C73.6561 31.0728 73.1293 29.9019 72.5819 28.7405C72.0645 27.5703 71.4749 26.434 70.8165 25.3381C70.4882 24.821 69.6662 25.3004 69.9969 25.8211V25.8213Z" fill="#0A7BBB"/>
<path d="M56.5299 33.8239C56.8292 31.4463 57.2178 29.0805 57.5687 26.7103C57.6576 26.1109 57.7439 25.511 57.8276 24.9106C57.8672 24.6232 57.9059 24.3356 57.9437 24.0479C57.9511 23.992 57.9598 23.936 57.9657 23.8802C57.992 23.6316 57.9774 23.8346 57.9657 23.8328L57.8249 23.9209L58.0189 23.9245C58.1161 23.9265 58.2131 23.9287 58.31 23.9312C59.5391 23.9633 60.766 24.0382 61.9908 24.1561C64.3768 24.3847 66.7598 24.7769 69.0417 25.5316C70.8105 26.1137 72.5329 26.8303 74.1941 27.6751C75.8571 28.5253 77.4956 29.5222 78.8272 30.8525C78.9783 31.0036 79.1247 31.1592 79.2665 31.3195C79.3324 31.3938 79.3969 31.4692 79.4599 31.5458C79.4877 31.5794 79.5153 31.6133 79.5426 31.6474C79.6494 31.7808 79.6057 31.8069 79.7008 31.5876C79.8009 31.3604 79.7776 31.42 79.6318 31.4481C79.5701 31.4597 79.5082 31.4709 79.4463 31.4818C79.3144 31.5052 79.1825 31.5275 79.0507 31.5488C78.7738 31.5937 78.4969 31.6353 78.2199 31.6736C77.9804 31.7072 77.6841 31.7459 77.3678 31.7848C74.1596 32.1805 70.9311 32.4179 67.7076 32.6432C64.6729 32.8551 61.6354 33.0347 58.599 33.2067L57.8118 33.2514C57.2044 33.2858 57.2004 34.2429 57.8118 34.2082C60.8418 34.0362 63.8716 33.8616 66.8994 33.6556C70.3058 33.424 73.7172 33.1794 77.1083 32.7731C77.7787 32.6934 78.4484 32.6055 79.1156 32.5012C79.3842 32.4592 79.6522 32.4143 79.9194 32.3641C80.027 32.35 80.1303 32.3129 80.2225 32.2552C80.3146 32.1974 80.3933 32.1204 80.4534 32.0294C80.6479 31.7156 80.5379 31.3915 80.3324 31.125C79.1577 29.6012 77.5308 28.4538 75.882 27.5055C74.1185 26.5111 72.2744 25.6695 70.3695 24.9898C68.115 24.181 65.7767 23.6326 63.3995 23.3551C62.111 23.1941 60.8177 23.0826 59.5194 23.0208C59.2124 23.0057 58.9053 22.9933 58.5982 22.9836C58.2818 22.9734 57.906 22.9102 57.599 22.9973C56.9502 23.1817 57.0022 23.9831 56.9281 24.5245C56.5823 27.0466 56.1685 29.5585 55.8125 32.0796C55.7305 32.6612 55.6524 33.2431 55.5781 33.8253C55.5788 33.9519 55.629 34.0732 55.7179 34.1628C55.8068 34.2524 55.9271 34.303 56.0528 34.3037C56.1778 34.3007 56.2968 34.2493 56.3852 34.1603C56.4736 34.0712 56.5246 33.9512 56.5275 33.8253L56.5299 33.8239Z" fill="#0A7BBB"/>
<path d="M54.702 35.3776C54.4844 36.9201 54.2867 38.4586 54.2206 40.0163C54.1429 41.8413 54.1045 43.6675 54.0924 45.4939C54.0857 46.5153 54.083 47.5367 54.0843 48.558C54.0843 49.1738 55.0337 49.1748 55.0337 48.558C55.0337 46.7418 55.0337 44.9251 55.0715 43.1091C55.1039 41.5287 55.1308 39.9378 55.2764 38.3627C55.3611 37.4491 55.489 36.5401 55.6174 35.6317C55.6467 35.5095 55.6288 35.3806 55.5672 35.2713C55.5056 35.1619 55.4051 35.0803 55.2859 35.0431C55.1645 35.0102 55.0352 35.0269 54.9259 35.0895C54.8166 35.1521 54.7362 35.2557 54.702 35.3776Z" fill="#726A69"/>
<path d="M33.1355 36.4401C32.6511 37.8976 32.3704 39.416 32.3014 40.9515C32.2542 42.5697 32.2988 44.1893 32.4349 45.8023C32.5067 46.7063 32.6054 47.6082 32.7377 48.5052C32.7719 48.6271 32.8524 48.7305 32.9617 48.793C33.0709 48.8556 33.2003 48.8722 33.3216 48.8393C33.4413 48.8029 33.5425 48.7215 33.6043 48.612C33.666 48.5024 33.6836 48.3731 33.6533 48.2509C33.4356 46.7123 33.304 45.1626 33.2593 43.6091C33.2093 42.1539 33.1689 40.6636 33.4241 39.2252C33.5759 38.3683 33.7854 37.5228 34.0509 36.6945C34.2396 36.1074 33.3232 35.8558 33.1355 36.4401Z" fill="#726A69"/>
<path d="M34.7501 51.1083C36.3305 51.1168 37.9111 51.1133 39.4915 51.1115C41.9561 51.1088 44.4208 51.1042 46.8856 51.0977C49.6088 51.0913 52.3317 51.0841 55.0544 51.076L61.9303 51.056C63.163 51.0523 64.3956 51.0488 65.6281 51.0455H65.761C66.3718 51.0455 66.3728 50.0886 65.761 50.0886C64.7034 50.0886 63.6456 50.0942 62.588 50.0974C60.3908 50.1039 58.1934 50.1106 55.9957 50.1173C53.2879 50.1253 50.5802 50.1327 47.8724 50.1395C45.3438 50.1457 42.8151 50.1508 40.2864 50.1546C38.5618 50.157 36.8371 50.1602 35.1125 50.1546C34.9915 50.1546 34.8705 50.1541 34.7496 50.153C34.1386 50.1498 34.1378 51.1067 34.7496 51.1099L34.7501 51.1083Z" fill="#726A69"/>
<path d="M74.0939 34.9495C74.4736 35.9249 74.7985 36.9212 75.0672 37.9334C75.3882 39.0396 75.6978 40.1517 75.9555 41.2748C75.998 41.4608 76.0399 41.6472 76.0732 41.835C76.0797 41.8715 76.0831 41.9093 76.0916 41.9452C76.1062 42.0078 76.0876 41.8093 76.086 41.9054C76.086 41.9237 76.0963 41.952 76.09 41.9695C76.112 41.8653 76.1562 41.767 76.2195 41.6817L76.5558 41.5422C75.7421 41.5502 74.9293 41.6 74.1206 41.6915C73.2376 41.8055 72.3761 42.05 71.5637 42.4169C70.2514 42.9864 69.1838 44.0091 68.5527 45.301C68.4924 45.4113 68.4764 45.5407 68.5081 45.6625C68.5398 45.7843 68.6167 45.8892 68.723 45.9554C68.832 46.0183 68.9611 46.0356 69.0826 46.0035C69.2041 45.9714 69.3082 45.8925 69.3725 45.7838C69.6607 45.1625 70.0702 44.606 70.5765 44.1478C71.0451 43.7527 71.5717 43.4333 72.1375 43.2009C72.9036 42.877 73.7145 42.6736 74.5419 42.5977C74.9232 42.5592 75.3061 42.5379 75.6891 42.5249C75.874 42.5183 76.0591 42.5134 76.2441 42.5082C76.4658 42.5018 76.7204 42.5301 76.8913 42.3589C77.1112 42.1384 77.0321 41.8131 76.9822 41.5432C76.9207 41.2095 76.84 40.8791 76.7591 40.5498C76.5133 39.5495 76.2391 38.5564 75.9505 37.5672C75.69 36.593 75.3759 35.634 75.0096 34.6949C74.9727 34.5748 74.8918 34.4734 74.7833 34.4114C74.6748 34.3493 74.547 34.3312 74.4258 34.3608C74.3047 34.3951 74.2019 34.4761 74.1397 34.5863C74.0776 34.6966 74.0611 34.8271 74.0939 34.9495Z" fill="#726A69"/>
<path d="M87.5973 35.1407C87.001 35.3497 86.3878 35.5055 85.7645 35.6064C85.6276 35.6314 85.4905 35.6545 85.3531 35.6758C85.2808 35.6869 85.2083 35.6976 85.1355 35.7079C85.1567 35.7049 85.2073 35.6977 85.111 35.7109C85.0504 35.716 84.9902 35.7258 84.931 35.7402C84.4696 35.8769 84.3339 36.3534 84.4616 36.7752C84.6917 37.5345 84.8806 38.3057 85.0825 39.073C85.1871 39.4717 85.2752 39.9053 85.7097 40.059C86.0095 40.1337 86.3201 40.1539 86.6269 40.1188C87.3277 40.095 88.0259 40.0181 88.7235 39.9493C88.8484 39.946 88.9672 39.8945 89.0555 39.8055C89.1438 39.7165 89.1949 39.5967 89.1982 39.4709C89.1973 39.3443 89.147 39.2231 89.0582 39.1336C88.9694 39.044 88.8491 38.9934 88.7235 38.9925C88.1993 39.0443 87.6752 39.0989 87.1499 39.1344C86.89 39.1519 86.6297 39.1655 86.3694 39.1675C86.2533 39.1502 86.1355 39.1478 86.0189 39.1601C86.0371 39.1442 85.9002 39.0351 86.0705 39.2022C86.1822 39.312 86.0944 39.2233 86.0942 39.1988C86.0942 39.2321 86.0901 39.1657 86.0875 39.1563C86.0735 39.1069 86.0608 39.0567 86.0479 39.007C85.8721 38.3466 85.7083 37.6828 85.5238 37.0247C85.4799 36.8685 85.4347 36.7126 85.3881 36.5571C85.3814 36.5208 85.3706 36.4853 85.3561 36.4514C85.3127 36.3817 85.3561 36.4714 85.3434 36.5112C85.3224 36.5828 85.2425 36.6109 85.2049 36.6508C85.1521 36.6633 85.1456 36.6663 85.1852 36.6597C85.2146 36.656 85.2445 36.652 85.2734 36.6478C85.5424 36.6115 85.8103 36.5688 86.077 36.5198C86.6794 36.4197 87.2721 36.2677 87.8487 36.0653C87.9682 36.0287 88.0693 35.9473 88.131 35.8378C88.1927 35.7283 88.2103 35.5991 88.1802 35.4768C88.1458 35.355 88.0654 35.2517 87.9561 35.1892C87.8469 35.1266 87.7177 35.1099 87.5963 35.1425L87.5973 35.1407Z" fill="#726A69"/>
<path d="M53.0344 37.6955C53.0261 37.2889 53.0835 36.8312 52.7929 36.5048C52.705 36.4094 52.5984 36.3335 52.4799 36.2818C52.3613 36.2301 52.2334 36.2038 52.1042 36.2046C51.8488 36.1969 51.5921 36.2046 51.3367 36.2046H48.9951C48.9286 36.2046 48.8616 36.202 48.7951 36.2046C48.6076 36.2067 48.4253 36.267 48.2731 36.3774C48.1209 36.4877 48.0062 36.6427 47.9446 36.8212C47.8991 37.0035 47.8858 37.1924 47.905 37.3794C47.8939 37.5896 47.9151 37.8002 47.9677 38.0039C48.0313 38.1784 48.146 38.3293 48.2966 38.4366C48.4471 38.5439 48.6265 38.6025 48.8109 38.6047C49.4462 38.6292 50.0871 38.6047 50.7228 38.6047H51.9372C52.0043 38.6047 52.0721 38.6077 52.1392 38.6047C52.3759 38.5993 52.6014 38.5016 52.7681 38.3322C52.9348 38.1627 53.0299 37.9347 53.0332 37.6961C53.0332 37.5692 52.9832 37.4475 52.8942 37.3578C52.8052 37.2681 52.6844 37.2177 52.5585 37.2177C52.4326 37.2177 52.3119 37.2681 52.2229 37.3578C52.1338 37.4475 52.0838 37.5692 52.0838 37.6961C52.0872 37.6259 52.1752 37.6676 52.102 37.6479C52.0206 37.6383 51.9384 37.6383 51.8569 37.6479H48.9889C48.9676 37.6479 48.8266 37.6311 48.8135 37.6479C48.8135 37.6467 48.8396 37.6658 48.8552 37.6756C48.879 37.6905 48.8459 37.7583 48.8624 37.6802C48.8698 37.5799 48.8669 37.4791 48.8537 37.3794C48.8525 37.3383 48.8647 37.0644 48.8258 37.1495C48.8135 37.176 48.7862 37.1459 48.8012 37.1621C48.819 37.182 48.9666 37.1621 48.9931 37.1621H51.9446C52.0041 37.1697 52.0643 37.1697 52.1238 37.1621C52.1097 37.1832 52.0518 37.1035 52.0706 37.0971C52.0609 37.2965 52.065 37.4963 52.083 37.6951C52.0975 38.3103 53.0469 38.3125 53.0344 37.6955Z" fill="#726A69"/>
<path d="M73.0149 37.6955C73.0066 37.2889 73.0639 36.8312 72.7734 36.5048C72.6855 36.4094 72.5789 36.3335 72.4603 36.2818C72.3418 36.2301 72.2138 36.2038 72.0847 36.2046C71.8293 36.1969 71.5726 36.2046 71.3172 36.2046H68.9755C68.9091 36.2046 68.842 36.202 68.7756 36.2046C68.5881 36.2067 68.4058 36.267 68.2536 36.3774C68.1014 36.4877 67.9866 36.6427 67.9251 36.8212C67.8796 37.0035 67.8662 37.1924 67.8855 37.3794C67.8748 37.5894 67.8963 37.7999 67.9492 38.0033C68.0128 38.1778 68.1274 38.3287 68.278 38.436C68.4286 38.5433 68.608 38.6019 68.7924 38.6041C69.4277 38.6286 70.0685 38.6041 70.7043 38.6041H71.9187C71.9858 38.6041 72.0536 38.6071 72.1207 38.6041C72.3574 38.5987 72.5828 38.501 72.7495 38.3316C72.9163 38.1621 73.0113 37.9341 73.0147 37.6955C73.0147 37.5686 72.9647 37.4469 72.8756 37.3572C72.7866 37.2675 72.6659 37.2171 72.54 37.2171C72.4141 37.2171 72.2933 37.2675 72.2043 37.3572C72.1153 37.4469 72.0653 37.5686 72.0653 37.6955C72.0686 37.6254 72.1567 37.667 72.0835 37.6473C72.0021 37.6377 71.9198 37.6377 71.8384 37.6473H68.9704C68.949 37.6473 68.808 37.6305 68.795 37.6473C68.795 37.6461 68.8211 37.6652 68.8367 37.675C68.8604 37.6899 68.8274 37.7577 68.8438 37.6796C68.8512 37.5793 68.8483 37.4785 68.8351 37.3788C68.8339 37.3377 68.8462 37.0638 68.8072 37.1489C68.795 37.1754 68.7677 37.1453 68.7827 37.1615C68.8005 37.1814 68.948 37.1615 68.9746 37.1615H71.926C71.9855 37.1691 72.0457 37.1691 72.1052 37.1615C72.0912 37.1826 72.0332 37.1029 72.0522 37.0965C72.0423 37.2959 72.0464 37.4957 72.0645 37.6945C72.0779 38.3103 73.0273 38.3125 73.0149 37.6955Z" fill="#726A69"/>
<path d="M37.6808 35.1852C37.5109 35.3348 37.3538 35.4987 37.2113 35.675C37.1162 35.7886 37.0281 35.9078 36.9472 36.032C36.843 36.176 36.7802 36.3462 36.7656 36.5238C36.7648 36.6208 36.7892 36.7163 36.8364 36.8008C36.8837 36.8853 36.9521 36.9559 37.0348 37.0054C37.1507 37.0642 37.2777 37.0976 37.4073 37.1033C37.5368 37.1198 37.6668 37.131 37.7971 37.1378C37.9423 37.1455 38.0877 37.1479 38.2323 37.1475C38.3253 37.15 38.4184 37.1463 38.511 37.1364C38.5994 37.127 38.6844 37.0965 38.7589 37.0476C38.8334 36.9987 38.8953 36.9326 38.9396 36.8549C39.0079 36.6779 39.0516 36.4922 39.0693 36.3031C39.1036 36.1405 39.1451 35.9796 39.1938 35.8205C39.226 35.6982 39.2093 35.5679 39.1473 35.4579C39.0853 35.3478 38.9828 35.2666 38.8621 35.2318C38.7407 35.2008 38.6122 35.2182 38.5033 35.2805C38.3945 35.3429 38.3138 35.4452 38.2782 35.5661C38.2325 35.7167 38.1923 35.869 38.1595 36.0228C38.1434 36.0978 38.1288 36.1729 38.1156 36.2483C38.1075 36.3286 38.0931 36.4081 38.0725 36.4861L38.1203 36.3719L38.1089 36.3918L38.183 36.2949L38.1698 36.3075L38.2657 36.2328L38.2473 36.2431L38.3607 36.1949C38.3486 36.2007 38.3356 36.2042 38.3223 36.205L38.4485 36.1879C38.0928 36.1996 37.7368 36.1846 37.3834 36.1432L37.5095 36.1602C37.481 36.1574 37.4529 36.1521 37.4253 36.1442L37.5386 36.1925C37.5269 36.188 37.516 36.1817 37.5062 36.1737L37.6023 36.2485L37.5895 36.2353L37.6638 36.3322L37.6545 36.3163L37.7024 36.4307L37.6971 36.4082L37.7141 36.5354L37.7155 36.5118L37.6984 36.639C37.7036 36.6182 37.7103 36.5979 37.7182 36.578L37.6704 36.6922C37.732 36.5607 37.8092 36.4372 37.9004 36.3245L37.8262 36.4211C37.983 36.2181 38.1588 36.0307 38.3512 35.8616C38.4396 35.7716 38.4893 35.65 38.4893 35.5233C38.4893 35.3966 38.4396 35.275 38.3512 35.185C38.2607 35.0981 38.1405 35.0496 38.0155 35.0496C37.8905 35.0496 37.7703 35.0981 37.6799 35.185L37.6808 35.1852Z" fill="#726A69"/>
<path d="M38.7362 35.6913C38.6503 35.9739 38.586 36.2626 38.544 36.5551C38.5422 36.5823 38.5335 36.6086 38.5188 36.6314C38.5004 36.6509 38.4753 36.6627 38.4486 36.6645C38.077 36.6782 37.7049 36.661 37.336 36.6133C37.3173 36.6121 37.2991 36.6063 37.2832 36.5963C37.2672 36.5863 37.254 36.5725 37.2446 36.5561C37.2362 36.5252 37.24 36.4921 37.2553 36.464C37.4483 36.1046 37.7065 35.7849 38.0164 35.5215L38.7362 35.6913Z" fill="#726A69"/>
<path d="M37.4265 32.3648C37.4344 31.9785 37.5351 31.655 37.8161 31.455C37.9719 31.342 38.1451 31.2555 38.3286 31.1989C38.4187 31.1684 38.5139 31.1561 38.6087 31.1628C38.8797 31.1534 39.0779 31.0894 39.266 31.3023C39.3291 31.3829 39.3617 31.4836 39.3579 31.5862C39.3767 31.7975 39.3819 32.0096 39.3825 32.2217C39.3846 32.9372 39.4068 33.657 39.3761 34.3716C39.367 34.5839 39.3563 34.8102 39.3324 35.0139C39.3285 35.0462 39.3158 35.0773 39.3089 35.1088C39.3265 35.0305 39.278 35.1571 39.3025 35.119C39.3271 35.0809 39.3668 35.115 39.2845 35.1276C39.3316 35.1204 39.2232 35.1212 39.2288 35.1212C39.0353 35.1029 38.844 35.066 38.6575 35.0109C38.4565 34.9796 38.26 34.9235 38.0725 34.8439C37.9829 34.799 38.0052 34.8138 37.9577 34.7476C37.8866 34.6431 37.8304 34.529 37.7908 34.4087C37.7119 34.1725 37.651 33.9305 37.6086 33.6849C37.5089 33.2511 37.4479 32.8092 37.4265 32.3644C37.4215 31.7491 36.4721 31.7477 36.4771 32.3644C36.5023 32.8948 36.5746 33.4219 36.6933 33.9393C36.8018 34.5092 36.9654 35.2256 37.4605 35.5858C37.8899 35.8984 38.5185 35.9746 39.0282 36.0553C39.1634 36.0858 39.3033 36.0881 39.4394 36.0622C39.5755 36.0363 39.7049 35.9827 39.8197 35.9046C39.9345 35.8265 40.0323 35.7256 40.107 35.6081C40.1818 35.4906 40.232 35.359 40.2545 35.2212C40.4179 34.2548 40.3321 33.2326 40.3317 32.2546C40.3317 31.7307 40.3538 31.1249 40.0031 30.7017C39.8526 30.5246 39.662 30.3867 39.4474 30.2995C39.2328 30.2123 39.0006 30.1784 38.7703 30.2008C38.2609 30.1971 37.7619 30.346 37.3365 30.6284C36.7431 31.0336 36.4911 31.6542 36.4767 32.3644C36.4648 32.9808 37.4142 32.9808 37.4265 32.3648Z" fill="#726A69"/>
<path d="M19.8235 36.961C19.8806 36.7762 19.882 36.5784 19.8274 36.3928C19.7728 36.2072 19.6648 36.0422 19.5169 35.9186C19.2048 35.6579 18.8304 35.5973 18.4455 35.5151C17.6784 35.3517 16.9043 35.2231 16.1295 35.1027C16.0083 35.0729 15.8803 35.0909 15.7718 35.153C15.6633 35.2151 15.5824 35.3166 15.5456 35.4368C15.5131 35.5591 15.5296 35.6894 15.5916 35.7995C15.6537 35.9097 15.7562 35.9908 15.8771 36.0252C16.5334 36.1273 17.1887 36.236 17.8402 36.3653C18.1546 36.4069 18.465 36.4742 18.7685 36.5667C18.8021 36.5807 18.8346 36.5975 18.8656 36.6167C18.8757 36.6225 18.9384 36.6695 18.8933 36.6328C18.8482 36.5962 18.9097 36.6518 18.9174 36.6592C18.9354 36.6791 18.9356 36.6779 18.9186 36.656C18.9016 36.634 18.9018 36.6326 18.9166 36.656C18.9315 36.6793 18.9309 36.6785 18.9202 36.6528C18.9111 36.6261 18.9095 36.6271 18.9202 36.6528C18.9293 36.6795 18.9283 36.6795 18.9241 36.6528C18.92 36.6261 18.9212 36.6259 18.922 36.656C18.9079 36.7413 18.957 36.5374 18.9089 36.7062C18.8923 36.7668 18.8878 36.8301 18.8955 36.8924C18.9032 36.9548 18.923 37.015 18.9537 37.0696C18.9845 37.1243 19.0257 37.1723 19.0749 37.2109C19.1241 37.2495 19.1803 37.278 19.2404 37.2947C19.3005 37.3114 19.3633 37.316 19.4252 37.3082C19.487 37.3005 19.5468 37.2805 19.601 37.2495C19.6552 37.2185 19.7029 37.177 19.7412 37.1274C19.7795 37.0778 19.8077 37.0211 19.8243 36.9606L19.8235 36.961Z" fill="#AFD1E4"/>
<path d="M24.446 45.9114C20.3261 45.9114 17.4785 49.1272 17.4785 52.8902C17.4785 57.2465 20.1736 60 24.4462 60C28.8174 60 31.4139 57.2465 31.4139 52.8902C31.4139 49.1017 28.5514 45.9114 24.446 45.9114ZM24.446 55.4334C22.9428 55.4334 21.9953 54.4648 21.9953 52.9327C21.9953 52.2776 22.2535 51.6494 22.7131 51.1862C23.1727 50.723 23.796 50.4628 24.446 50.4628C25.0959 50.4628 25.7193 50.723 26.1789 51.1862C26.6385 51.6494 26.8967 52.2776 26.8967 52.9327C26.8968 54.4656 25.9838 55.4334 24.446 55.4334Z" fill="#726A69"/>
<path d="M76.3345 45.9114C72.2148 45.9114 69.3672 49.1272 69.3672 52.8902C69.3672 57.2465 72.0621 60 76.3349 60C80.7061 60 83.3025 57.2465 83.3025 52.8902C83.3025 49.1017 80.4399 45.9114 76.3345 45.9114ZM76.3345 55.4334C74.8312 55.4334 73.8838 54.4648 73.8838 52.9327C73.8838 52.2776 74.142 51.6494 74.6016 51.1862C75.0612 50.723 75.6845 50.4628 76.3345 50.4628C76.9844 50.4628 77.6078 50.723 78.0673 51.1862C78.5269 51.6494 78.7851 52.2776 78.7851 52.9327C78.7855 54.4656 77.8725 55.4334 76.3349 55.4334H76.3345Z" fill="#726A69"/>
<path d="M15.6785 53.2105C14.1116 53.0909 12.7335 52.5409 11.9649 51.0937C10.9722 49.2248 10.9287 47.046 11.012 44.9812C11.0911 43.0228 11.3047 40.9566 12.2428 39.2034C13.2878 37.2498 15.2038 36.1676 17.2589 35.5608C19.0847 35.0226 20.9873 34.7018 22.8592 34.3705C23.8175 34.2011 24.7764 34.0344 25.7337 33.858C26.8483 33.6527 28.0034 33.5205 28.9758 32.8868C29.4421 32.5511 29.8812 32.1784 30.2887 31.7723C30.7421 31.3603 31.1997 30.9533 31.6618 30.5513C32.5364 29.7912 33.4279 29.049 34.3458 28.3425C36.0262 27.032 37.8121 25.8651 39.6851 24.854C41.4415 23.9155 43.2895 23.1627 45.1998 22.6078C46.7493 22.182 48.3259 21.8635 49.9185 21.6544C53.6749 21.1138 57.47 20.8956 61.263 21.0019C62.9206 21.046 64.573 21.2084 66.2078 21.4877C68.1994 21.8047 70.1686 22.2508 72.1032 22.8233C74.0532 23.4474 75.9439 24.2458 77.7528 25.2091C78.633 25.7022 79.4686 26.2722 80.2502 26.9123C80.9439 27.4502 81.6028 28.0322 82.2228 28.6549C83.7312 30.153 85.0734 31.8121 86.2255 33.603C86.8446 34.5555 87.3429 35.5823 87.709 36.6596C88.042 37.7337 88.3122 38.8267 88.5181 39.9328C88.9794 42.2233 89.2676 44.5243 88.8109 46.8433C88.4505 48.673 87.7869 50.7532 86.1284 51.7732C85.2954 52.2814 84.3866 52.6512 83.437 52.8684C82.8419 53.0062 83.0936 53.9289 83.6894 53.7912C85.5289 53.3654 87.4672 52.4468 88.4277 50.7351C89.5435 48.748 90.021 46.3764 90.0022 44.1101C89.9727 42.8997 89.8363 41.6945 89.5947 40.5085C89.3742 39.3262 89.1337 38.1419 88.8018 36.9857C88.1469 34.705 86.897 32.7359 85.4393 30.8945C84.1758 29.3008 82.8298 27.7742 81.2476 26.494C80.4679 25.8633 79.6507 25.2826 78.8171 24.7272C77.8648 24.0925 76.7577 23.6255 75.7118 23.1662C73.8663 22.3558 71.9506 21.7187 69.989 21.263C68.0382 20.7898 66.0597 20.4411 64.0653 20.2191C60.2794 19.8332 56.4083 20.0028 52.6277 20.3744C48.9135 20.7394 45.2429 21.3526 41.7819 22.808C37.6037 24.565 33.9437 27.2655 30.5543 30.2559C29.6595 31.0453 28.809 32.0806 27.6543 32.4767C27.0742 32.6471 26.4826 32.7751 25.8842 32.8599C25.3382 32.9617 24.7917 33.0614 24.2447 33.1589C22.3568 33.4946 20.4683 33.8189 18.5965 34.2399C16.3947 34.7353 14.1173 35.4663 12.5271 37.1715C11.1006 38.7005 10.5007 40.7543 10.2376 42.791C9.94604 45.0518 9.83093 47.5103 10.4376 49.7246C10.8604 51.2685 11.6069 52.7957 13.0947 53.536C13.9076 53.9122 14.7849 54.1266 15.6785 54.1674C16.2881 54.2136 16.2851 53.2566 15.6785 53.2105Z" fill="#726A69"/>
</g>
</svg>
