<svg width="130" height="80" viewBox="0 0 130 80" fill="none" xmlns="http://www.w3.org/2000/svg">
<mask id="mask0_1621_24508" style="mask-type:alpha" maskUnits="userSpaceOnUse" x="0" y="0" width="130" height="80">
<path d="M0 0H130V80H0V0Z" fill="#D9D9D9"/>
</mask>
<g mask="url(#mask0_1621_24508)">
<path d="M21.5409 54.8154C19.2548 54.8176 16.9399 54.8527 14.6607 55.0396C13.9754 55.096 13.9695 56.1704 14.6607 56.1135C16.9399 55.9256 19.2548 55.8915 21.5409 55.8893C22.2332 55.8893 22.2343 54.8154 21.5409 54.8154Z" fill="#726A69"/>
<path d="M11.999 68.7923C11.6682 69.1864 11.3371 69.5848 10.9931 69.9953C10.6661 70.3857 10.3589 70.9887 10.6545 71.5664C10.9716 72.186 11.6765 72.0532 12.0945 71.7178C12.1168 71.8225 12.1319 71.8907 12.1319 71.8907C12.3877 73.058 13.7623 72.68 14.2206 72.0663L14.4185 71.8008L14.5226 72.1324C14.9965 73.6441 16.6428 72.4389 17.287 71.9348C17.9642 71.4051 19.1484 70.8088 20.0198 71.0472C21.015 71.3189 21.6408 72.1525 22.7027 72.2513C23.2622 72.2944 23.823 72.1873 24.3272 71.9412C24.7618 71.7364 25.1004 71.4021 25.5404 71.2512C26.0389 71.1019 26.5537 71.0137 27.0735 70.9887H28.6789C28.5092 69.3193 28.3526 67.0153 28.2695 65.361L28.1684 65.3672C27.0565 65.4351 25.5974 65.67 24.4853 65.7379C23.6026 65.7916 22.8027 65.4289 21.9391 65.2815C21.317 65.1879 20.689 65.1396 20.0599 65.1371C18.7286 65.0935 17.396 65.1729 16.0793 65.3741C14.9156 65.5833 14.2728 66.1986 13.5044 67.0515C12.9751 67.6387 12.4872 68.2108 11.999 68.7923Z" fill="white"/>
<path d="M78.8667 50.4349C78.0275 49.7584 76.7465 47.5215 76.3315 46.2379C75.2495 45.3101 74.7446 46.1816 74.0168 46.2307C73.1973 45.9501 72.526 45.6623 71.249 45.0913C69.8063 44.447 67.9742 43.6187 66.6832 42.8128C65.6343 41.6261 62.3702 37.3322 61.5085 35.9485L61.2506 35.5332C60.8885 35.912 60.3474 36.2801 59.7194 36.8318C58.2839 38.011 56.7804 39.1054 55.2168 40.1093C55.422 40.454 55.5546 40.6782 55.5546 40.6782C56.3346 41.9996 60.6212 46.9808 61.8966 47.6947C61.5942 47.5035 61.3122 47.282 61.0548 47.0337C61.5617 47.4313 61.8966 47.6947 61.8966 47.6947C63.2551 48.7618 71.8932 50.32 73.239 50.6747C74.4286 50.8019 74.7452 51.8592 75.4482 51.9046L75.85 51.9314C76.7943 51.2957 77.7292 50.4379 78.8244 50.4446" fill="white"/>
<path d="M113.932 83.4877C112.874 83.4877 23.3878 83.5317 11.4531 83.5317L11.5725 69.6338C14.1408 69.6338 112.874 69.666 113.932 69.666V83.4877Z" fill="white"/>
<path d="M79.5874 70.1708C81.0195 70.1708 82.4516 70.1719 83.8837 70.1741L92.0392 70.1816L101.469 70.191L109.563 70.199C110.975 70.2004 112.391 70.2288 113.804 70.2028C113.846 70.2028 113.889 70.2028 113.931 70.2028C114.623 70.2028 114.625 69.1289 113.931 69.1289C112.737 69.1289 111.542 69.1278 110.347 69.1257L102.558 69.1179L93.1489 69.1085L84.7306 69.1007C83.0936 69.0991 81.4565 69.0978 79.8195 69.0967H79.586C78.8937 69.0967 78.8927 70.1706 79.586 70.1706L79.5874 70.1708Z" fill="#726A69"/>
<path d="M79.4516 40.4729C79.5819 40.2523 79.6743 40.0114 79.7248 39.7603C79.8477 39.1412 79.7337 38.3713 80.5928 38.1855C80.9205 38.1281 81.2581 38.181 81.5524 38.3361C83.0677 39.061 84.9192 37.7992 86.2551 36.8907C86.9363 36.3408 87.6759 35.8671 88.4605 35.4782C89.2796 35.0618 90.1384 34.728 91.024 34.4819L90.961 34.6108C90.2553 36.0565 90.6047 38.9885 91.3018 40.3137L91.5802 40.8431C90.8615 42.7473 90.6517 45.1324 90.8319 47.6727C90.9851 47.7366 91.1297 47.8195 91.2623 47.9194C91.4364 48.0513 91.5825 48.2166 91.6918 48.4057C91.801 48.5947 91.8714 48.8036 91.8986 49.0202C91.9154 49.3325 91.8474 49.6437 91.7019 49.9207C91.5564 50.1978 91.3387 50.4305 91.0718 50.5945C90.2456 51.144 89.2568 51.3966 88.2677 51.3108L87.3936 53.0429C86.679 54.367 86.7623 56.3451 87.5469 58.2958C86.8611 58.727 86.2121 59.2138 85.6064 59.7512C83.0801 57.6278 80.2001 55.9635 77.0974 54.8339C75.4948 54.2368 73.8466 53.7695 72.1688 53.4365C71.5806 53.3197 71.0222 53.2019 70.4824 53.0768C72.1768 52.7892 73.3167 52.9632 74.769 52.4971C76.1289 52.0611 77.3465 50.3939 78.8819 50.4457C78.0089 49.7544 76.6453 47.3428 76.2876 46.086C76.0777 45.3164 76.175 44.4955 76.559 43.796C77.0831 42.7304 78.5256 41.3779 79.2058 40.8283C79.2962 40.716 79.3784 40.5972 79.4516 40.4729Z" fill="white"/>
<path d="M103.642 41.0795C104.735 43.5967 105.013 46.3094 104.015 48.1363C103.974 51.6841 101.372 54.7506 98.1438 56.4645C96.5903 57.4724 94.1573 58.1588 92.4419 57.9709C90.8806 57.8002 89.8702 57.4267 89.0733 57.591C88.5272 57.7355 88.0105 57.9738 87.5464 58.2952C86.7621 56.3459 86.6787 54.367 87.3934 53.0429L88.2675 51.3107C89.2566 51.3966 90.2456 51.144 91.0719 50.5944C91.3388 50.4305 91.5565 50.1977 91.702 49.9207C91.8475 49.6436 91.9154 49.3325 91.8986 49.0201C91.8714 48.8036 91.8011 48.5946 91.6918 48.4056C91.5825 48.2166 91.4365 48.0513 91.2623 47.9194C91.1298 47.8195 90.9852 47.7366 90.832 47.6726C90.6518 45.1324 90.8615 42.7473 91.5802 40.843L91.3018 40.3136C90.6047 38.9884 90.2553 36.0565 90.9611 34.6107L91.024 34.4819C93.6528 33.7683 95.83 34.1847 98.0058 35.0392C100.432 35.9923 102.49 38.4276 103.642 41.0795Z" fill="white"/>
<path d="M50.8147 9.16309L50.6757 9.29732C50.4841 9.64145 50.2541 9.9628 49.9901 10.2552C49.7106 10.557 48.9457 11.3347 48.6343 11.6021C47.6317 12.4207 46.5047 13.0744 45.2957 13.5386C45.1196 13.4383 44.921 13.3837 44.7183 13.38C44.5465 13.376 44.3761 13.4106 44.2195 13.4811C44.0628 13.5515 43.924 13.6562 43.8132 13.7872C43.6406 14.0212 43.5075 14.2817 43.4192 14.5585C43.1898 15.2635 43.2023 16.0246 43.455 16.7216C43.627 17.2526 43.8889 17.7502 44.2293 18.1928C44.5083 18.5049 44.8206 18.7856 45.1607 19.0299L45.6591 19.333L45.7153 19.4742C45.7669 19.6034 45.8258 19.7381 45.8885 19.8753C45.5765 20.3086 45.2261 20.7129 44.8415 21.0835C44.7091 23.5048 47.0063 28.2312 50.0226 28.4522L50.2012 28.5013C51.6396 27.5681 52.1253 27.4564 52.8824 26.3288C52.8824 26.3288 52.9179 26.1997 52.9602 25.9702C55.6678 26.6285 58.6454 25.7116 60.6362 23.7215C62.9931 21.3651 63.9546 17.4631 64.0519 14.7008C60.538 14.217 53.787 11.3071 50.8147 9.16309Z" fill="white"/>
<path d="M31.2277 33.9661C30.2325 36.8581 29.5287 39.9082 28.7673 42.846C27.9799 45.7783 27.4374 48.7706 27.1455 51.7923C27.0764 52.6714 27.0562 53.5537 27.0849 54.4351C31.0943 54.4808 35.4799 54.6955 39.7528 54.4083C41.3988 54.5184 42.7167 54.0915 44.1341 54.0915L47.7443 47.0669C48.791 43.9019 50.9648 42.7924 52.1966 40.6416C52.4955 40.0981 52.7183 39.5161 52.8587 38.9121C52.93 39.0504 52.9693 39.1253 52.9693 39.1253C53.193 39.5757 53.4485 40.0097 53.7339 40.4239C53.7997 40.5133 53.8934 40.5784 54.0003 40.6088C54.1071 40.6393 54.2211 40.6335 54.3243 40.5922C55.4367 40.1487 58.903 37.5499 59.7206 36.8336C61.2889 35.4567 62.3147 35.2228 61.3699 33.1081C60.7351 31.6879 60.1805 30.2051 59.3371 28.9113C58.7158 27.958 57.9778 27.1303 57.5528 25.9429L52.884 26.33C52.1269 27.4576 51.6412 27.5693 50.2031 28.5025L50.0242 28.4533C46.9581 28.2289 44.6343 23.3475 44.8516 20.9673C43.15 22.0186 41.2837 22.6944 39.9141 23.8015C38.6907 24.7903 37.3647 25.8384 36.191 26.8758C34.2171 28.6209 32.2559 31.061 31.3517 33.6144C31.3097 33.7307 31.2684 33.848 31.2277 33.9661Z" fill="white"/>
<path d="M114.036 89.4445C114.036 84.364 113.977 57.9175 113.975 52.1408C113.975 52.0863 113.985 52.0323 114.006 51.982C114.027 51.9317 114.058 51.886 114.097 51.8476C114.135 51.8091 114.181 51.7787 114.232 51.758C114.282 51.7373 114.336 51.7268 114.391 51.7271H119.232C119.287 51.7268 119.341 51.7374 119.391 51.758C119.442 51.7787 119.488 51.8091 119.526 51.8475C119.565 51.8858 119.596 51.9314 119.617 51.9817C119.638 52.0319 119.648 52.0858 119.649 52.1402C119.655 57.8358 119.712 84.7057 119.712 89.4813L114.036 89.4445Z" fill="white"/>
<path d="M39.275 43.9263C40.9522 43.1458 42.61 42.2617 44.0893 41.4775C44.1221 41.5224 44.1407 41.546 44.1407 41.546C44.7412 42.3093 45.7544 44.057 46.4346 45.1081C47.0292 46.0249 48.8893 49.1488 50.08 50.8533C50.6257 50.9197 58.2536 54.8221 61.5435 55.2973C62.6279 54.7652 64.8645 54.3617 66.0619 54.2941C66.8537 54.2492 67.4909 54.7158 67.556 55.0697C67.6786 55.7349 66.7639 56.0955 65.3823 56.3747C66.8863 56.7396 69.4884 57.4427 71.1729 57.8878C71.7036 58.0282 72.4324 58.4487 72.2619 59.169C72.2285 59.3484 72.1364 59.5117 72.0002 59.6334C71.864 59.7551 71.6912 59.8284 71.5088 59.8417L71.6702 59.9913C71.9211 60.2238 71.9276 60.6947 71.791 61.074C71.7091 61.27 71.5725 61.4383 71.3974 61.5589C71.2224 61.6795 71.0162 61.7472 70.8036 61.7541C70.8851 61.8838 70.9304 62.0328 70.9348 62.1859C70.9392 62.3389 70.9025 62.4903 70.8286 62.6244C70.7032 62.8776 70.4984 63.0831 70.2453 63.2096C69.9923 63.3361 69.7049 63.3767 69.4266 63.3254C69.1829 63.2835 68.855 63.2226 68.4852 63.1501C68.5186 63.2817 68.5417 63.3724 68.5417 63.3724C68.6469 63.7593 68.0745 64.3389 67.5151 64.3966C66.1499 64.5397 64.1862 63.8522 63.282 63.5029C62.2686 63.1115 61.3116 62.2948 60.5553 61.5908C59.9762 61.0569 59.357 60.568 58.703 60.1285L58.6307 60.0909C57.77 59.6458 55.9368 59.1435 54.9605 58.8178C52.8199 58.1039 47.5879 56.5143 46.4346 55.7086C44.3394 53.875 43.4556 53.2371 41.6768 51.044C41.0358 50.2536 37.6045 46.0405 37.0039 45.0651L36.9219 44.9322C37.7 44.6345 38.4896 44.2919 39.275 43.9263Z" fill="white"/>
<path d="M108.219 62.074C107.727 60.6581 106.674 59.49 104.534 59.3131C101.925 59.0983 93.4755 59.8793 92.1003 60.2688C89.4188 61.0283 88.7088 64.5322 89.025 67.0681C89.1006 67.7088 89.4069 68.3003 89.8869 68.7324C90.3668 69.1645 90.9877 69.4078 91.6339 69.417C93.9833 69.4403 97.7107 69.3684 101.176 69.3684C102.959 69.3684 106.69 69.1415 107.509 68.73C109.131 67.9144 109.234 64.9993 108.219 62.074Z" fill="white"/>
<path d="M77.0953 54.8339C75.4927 54.2368 73.8445 53.7694 72.1667 53.4365C70.6466 53.1528 69.1463 52.7719 67.6751 52.296C65.5633 51.7392 63.258 51.0189 61.0408 51.282C58.6656 51.4072 56.3172 51.8434 54.056 52.5795L54.0181 52.5854C56.5629 53.7181 59.7199 55.0347 61.5432 55.297C62.6276 54.7649 64.8643 54.3614 66.0616 54.2937C66.8535 54.2489 67.4906 54.7155 67.5557 55.0693C67.6783 55.7346 66.7636 56.0951 65.382 56.3743C66.886 56.7392 69.4882 57.4423 71.1726 57.8875C71.7033 58.0279 72.4321 58.4483 72.2616 59.1686C72.2282 59.348 72.1362 59.5113 71.9999 59.6331C71.8637 59.7548 71.6909 59.828 71.5085 59.8414L71.6699 59.9909C71.9209 60.2231 71.9273 60.6943 71.7907 61.0737C71.7088 61.2696 71.5722 61.4379 71.3971 61.5585C71.2221 61.6791 71.0159 61.7469 70.8033 61.7537C70.8848 61.8834 70.9301 62.0325 70.9345 62.1855C70.9389 62.3385 70.9023 62.4899 70.8284 62.6241C70.7029 62.8773 70.4981 63.0827 70.2451 63.2093C69.992 63.3358 69.7046 63.3764 69.4263 63.3251C69.1826 63.2832 68.8548 63.2222 68.4849 63.1497C68.5183 63.2813 68.5414 63.372 68.5414 63.372C68.6466 63.7589 68.0742 64.3385 67.5148 64.3963C66.1499 64.5394 64.1859 63.8518 63.2817 63.5025C62.2683 63.1111 61.3113 62.2944 60.555 61.5905C59.9759 61.0565 59.3567 60.5676 58.7027 60.1281L58.6304 60.0905C57.7697 59.6454 55.9365 59.1431 54.9602 58.8174C52.8196 58.1036 47.5876 56.514 46.4343 55.7083C45.6635 55.0336 45.057 54.5211 44.5091 54.033L44.1326 54.0902C42.7152 54.0902 41.3973 54.5171 39.7513 54.407C33.646 54.8178 27.3094 54.203 22.1696 54.5224C21.6855 56.2594 21.7393 63.5431 21.9813 65.1807L21.9964 65.2905C22.8382 65.4428 23.6222 65.7888 24.4853 65.7359C25.5975 65.668 27.0565 65.4331 28.1684 65.3652C28.1684 65.3652 28.2036 65.363 28.2698 65.3579C28.4064 68.0829 28.7421 72.5674 29.0086 73.0869L29.0447 73.1575L29.2453 73.175C32.3383 73.4435 53.6025 72.8759 57.1277 72.4359C62.8361 71.7236 78.0315 71.2409 82.0968 68.4625C84.1799 67.0383 84.0919 64.6739 84.7183 62.5435C85.1376 61.7167 85.8703 60.4922 86.0279 60.1217C83.4069 57.8183 80.3772 56.0249 77.0953 54.8339Z" fill="#E5EFD9"/>
<path d="M85.9705 60.1443C86.5692 59.6078 87.2153 59.1266 87.9011 58.7066C88.4024 58.3997 88.9412 58.0851 89.5267 58.0875C90.2873 58.0905 91.0474 58.3176 91.7969 58.4255C92.6636 58.5565 93.5454 58.5536 94.4112 58.4169C96.1226 58.1458 97.6561 57.4206 99.1211 56.5255C100.554 55.6615 101.803 54.5247 102.797 53.1799C103.886 51.7179 104.499 49.9573 104.552 48.1364L104.479 48.4073C105.189 47.0832 105.27 45.5486 105.066 44.0868C104.813 42.4258 104.242 40.8288 103.386 39.3826C102.542 37.8887 101.398 36.5851 100.025 35.5537C98.5902 34.5595 96.9366 33.9242 95.2041 33.7012C92.7488 33.3444 90.3898 33.9249 88.1878 35.0138C87.5676 35.3204 88.112 36.2471 88.7308 35.9411C90.415 35.1088 92.2396 34.5719 94.1328 34.6656C95.6607 34.7444 97.1533 35.1527 98.5079 35.8624C101.007 37.2064 102.774 39.8648 103.608 42.5189C104.032 43.7461 104.178 45.0523 104.034 46.3427C103.99 46.6363 103.923 46.9257 103.831 47.208C103.742 47.4843 103.574 47.709 103.496 47.9927C103.461 48.2179 103.446 48.4457 103.451 48.6736C103.434 48.868 103.409 49.0599 103.373 49.2516C103.297 49.6623 103.188 50.0663 103.048 50.4597C102.439 52.0369 101.428 53.4276 100.114 54.4938C99.4462 55.0491 98.7255 55.5376 97.9622 55.9524C97.2074 56.4018 96.4059 56.7679 95.5717 57.0442C94.7362 57.3151 93.8641 57.4568 92.9857 57.4644C92.0941 57.4566 91.2249 57.2249 90.3478 57.0939C89.6601 56.9556 88.9469 57.0216 88.2965 57.2837C87.5453 57.6301 86.8388 58.0658 86.1924 58.5815C85.8554 58.8373 85.5257 59.1021 85.2107 59.3845C84.6949 59.8473 85.4576 60.605 85.9716 60.1437L85.9705 60.1443Z" fill="#726A69"/>
<path d="M60.456 2.87854C58.6367 1.4282 56.3919 0.612031 54.0643 0.554654C52.7626 0.492571 51.4601 0.659136 50.2161 1.04676C49.6504 1.22824 49.1008 1.45642 48.573 1.72895C47.9063 2.06899 47.2712 2.46763 46.6753 2.92015C46.4461 3.10969 46.1083 3.423 45.8856 3.6375C44.7585 4.71894 43.8938 6.04306 43.3574 7.50885C43.3475 7.5357 43.3402 7.56255 43.3305 7.58939H43.3265C42.7958 7.48714 42.2467 7.54316 41.7477 7.75048C40.4567 8.31722 39.4516 9.98174 39.2077 11.635C39.0555 12.6885 39.1469 13.8096 39.0251 14.8698C38.9032 15.93 38.2688 17.0597 37.2163 17.2366C36.4684 18.0826 42.6977 20.64 44.3929 18.5443C44.3929 18.5443 44.4184 18.5065 44.4628 18.4332C44.3754 18.3465 44.295 18.263 44.2313 18.1916C43.8909 17.7489 43.629 17.2513 43.4569 16.7204C43.3381 16.3732 43.2712 16.0104 43.2584 15.6438C43.2584 15.6078 43.2609 15.5713 43.2619 15.5351C43.2619 15.4889 43.2619 15.4432 43.2668 15.3963C43.2716 15.3493 43.277 15.3058 43.2826 15.262C43.2875 15.2215 43.2904 15.1815 43.2972 15.1404C43.3055 15.0867 43.3179 15.0271 43.3289 14.9694C43.3359 14.9339 43.341 14.9007 43.3488 14.8636C43.3695 14.7672 43.3937 14.6663 43.4212 14.5586C43.4387 14.4946 43.4605 14.4318 43.4865 14.3707C43.5476 14.2259 43.6196 14.0859 43.7017 13.9519C43.7365 13.8944 43.7747 13.839 43.816 13.786C43.9268 13.6549 44.0656 13.5503 44.2222 13.4798C44.3788 13.4093 44.5493 13.3748 44.721 13.3787C44.9238 13.3825 45.1223 13.437 45.2985 13.5374C45.317 13.5315 45.3391 13.5221 45.3582 13.5156C45.4289 13.4917 45.5029 13.4649 45.5793 13.4351C45.6043 13.4254 45.6285 13.4163 45.6538 13.4058C45.7544 13.365 45.859 13.3194 45.9663 13.27C45.9722 13.267 45.9779 13.2651 45.9838 13.2622C46.932 12.8174 47.8229 12.2599 48.637 11.6017C48.9485 11.3332 49.7129 10.5565 49.9928 10.2548C50.2569 9.96235 50.4869 9.64099 50.6784 9.29687L50.7688 9.128L50.8175 9.1629C53.8408 11.344 60.7739 14.3175 64.2333 14.7227C64.4422 13.677 64.5664 12.6163 64.6047 11.5507C64.6262 9.88432 64.2632 8.23538 63.5438 6.73154C62.8244 5.22771 61.7679 3.90934 60.456 2.87854Z" fill="#65B005"/>
<path d="M44.8364 21.3193C44.8579 23.8005 47.1043 28.2378 50.0246 28.4518L50.3032 28.5283L50.172 28.6894C49.2984 29.276 47.6169 30.537 46.5994 30.7972C45.771 30.7547 44.7377 29.476 44.1673 28.3484C43.3604 26.7529 42.1046 21.3381 44.8364 21.3199" fill="#65B005"/>
<path d="M52.8845 26.3286C52.2603 27.2583 51.8205 27.4973 50.8789 28.0756C51.2933 28.6103 51.8142 29.0537 52.4087 29.3776C53.2506 29.7578 53.0392 29.8609 53.6728 29.2109C54.3452 28.5218 54.7019 26.6414 53.6908 26.3882L52.8845 26.3286Z" fill="#65B005"/>
<path d="M73.3502 57.4672C77.2872 58.8688 80.8987 61.0953 84.3169 63.4656C84.8868 63.8608 85.4253 62.9303 84.8599 62.5383C81.3605 60.1119 77.6656 57.8669 73.6361 56.4317C72.9828 56.1992 72.7015 57.2371 73.3502 57.4672Z" fill="#BADA95"/>
<path d="M78.8258 49.9058C77.3966 49.9278 76.3995 50.988 75.2506 51.6777C73.9652 52.4484 72.3372 52.2895 70.9031 52.4756C70.7619 52.48 70.6276 52.538 70.5277 52.6377C70.4278 52.7375 70.3697 52.8715 70.3652 53.0125C70.3661 53.1546 70.423 53.2907 70.5237 53.3912C70.6244 53.4918 70.7607 53.5486 70.9031 53.5494C72.4217 53.3524 74.072 53.4799 75.4786 52.7789C76.566 52.2369 77.5353 51 78.8258 50.9802C79.5173 50.9697 79.5194 49.8958 78.8258 49.9063V49.9058Z" fill="#726A69"/>
<path d="M114.574 89.4442C114.574 87.4988 114.572 85.5535 114.567 83.6082C114.562 80.5207 114.557 77.4333 114.551 74.3459C114.545 70.9562 114.538 67.5663 114.532 64.1762C114.526 61.324 114.522 58.4716 114.517 55.619C114.515 54.6541 114.514 53.689 114.513 52.7238C114.534 52.5498 114.534 52.374 114.513 52.2C114.476 52.0725 114.456 52.2975 114.406 52.2639C114.428 52.2792 114.515 52.2639 114.54 52.2639H118.897C119.007 52.2745 119.117 52.2745 119.227 52.2639C119.198 52.3254 119.093 52.1533 119.11 52.1401C119.106 52.1789 119.106 52.2179 119.11 52.2567C119.105 52.3391 119.11 52.4237 119.11 52.5063V53.0701C119.11 53.5258 119.111 53.9813 119.112 54.4366C119.117 57.0711 119.122 59.7057 119.127 62.3404L119.145 72.3171C119.151 75.507 119.157 78.6971 119.162 81.8873C119.166 84.1156 119.169 86.3439 119.172 88.5722C119.172 88.8752 119.172 89.1783 119.172 89.4815C119.172 90.1725 120.248 90.1736 120.248 89.4815C120.248 87.5608 120.245 85.6402 120.241 83.7196C120.236 80.6069 120.23 77.4944 120.224 74.3822C120.218 70.9663 120.212 67.5506 120.205 64.1349C120.2 61.2624 120.195 58.3898 120.189 55.517C120.188 54.5634 120.186 53.6096 120.185 52.6556C120.185 52.4892 120.193 52.3203 120.185 52.1538C120.182 51.9003 120.08 51.658 119.901 51.478C119.722 51.2981 119.48 51.1946 119.226 51.1895C118.857 51.1696 118.481 51.1895 118.111 51.1895C116.909 51.1895 115.706 51.1761 114.504 51.1895C114.228 51.1721 113.955 51.2627 113.745 51.4421C113.626 51.5699 113.537 51.722 113.484 51.8877C113.43 52.0534 113.413 52.2288 113.435 52.4016C113.435 52.8092 113.435 53.2165 113.435 53.6237C113.438 56.1846 113.442 58.7455 113.447 61.3066C113.453 64.6893 113.459 68.0727 113.466 71.4569C113.472 74.7609 113.478 78.0649 113.484 81.3691C113.488 83.7316 113.491 86.0942 113.494 88.4567C113.494 88.7857 113.494 89.1145 113.494 89.4431C113.494 90.1339 114.57 90.1352 114.57 89.4431L114.574 89.4442Z" fill="#726A69"/>
<path d="M27.0734 70.4517C26.5542 70.4816 26.0391 70.5613 25.5352 70.6898C25.0148 70.8452 24.6267 71.1814 24.155 71.4281C23.6938 71.6768 23.1658 71.7739 22.6461 71.7057C22.2141 71.6011 21.807 71.4126 21.4479 71.151C21.0532 70.8809 20.6203 70.6713 20.1634 70.5292C19.673 70.4173 19.1613 70.4422 18.6841 70.6012C17.8326 70.8595 17.1842 71.3859 16.5263 71.8305C16.2302 72.0553 15.893 72.2202 15.5336 72.3159C15.4383 72.3408 15.3378 72.3372 15.2444 72.3057C15.1469 72.2227 15.0762 72.1126 15.0414 71.9895C14.8198 71.339 13.7802 71.6182 14.004 72.2751C14.3079 73.1662 15.0694 73.5963 15.9841 73.3074C16.7207 73.0746 17.2638 72.571 17.895 72.1586C18.3215 71.8599 18.8056 71.6531 19.3164 71.5513C19.7639 71.5052 20.213 71.6225 20.5805 71.8815C20.9997 72.1563 21.4397 72.398 21.8965 72.6045C22.4281 72.8014 23.0034 72.8495 23.5603 72.7436C24.1998 72.602 24.804 72.3329 25.3368 71.9524C25.8596 71.6278 26.472 71.5835 27.0715 71.5255C27.213 71.5218 27.3477 71.464 27.4477 71.3641C27.5478 71.2642 27.6057 71.1298 27.6094 70.9886C27.6084 70.8465 27.5514 70.7106 27.4507 70.6101C27.3501 70.5096 27.2139 70.4527 27.0715 70.4517H27.0734Z" fill="#726A69"/>
<path d="M11.6138 72.033C11.6652 72.2896 11.7855 72.5274 11.962 72.7209C12.1384 72.9143 12.3643 73.0562 12.6154 73.1313C13.0897 73.2387 13.5872 73.165 14.0099 72.9249C14.2002 72.8256 14.3728 72.6958 14.5209 72.5407C14.7108 72.3377 14.9176 72.0875 15.143 71.8341C15.6101 71.2876 16.1179 70.7771 16.6621 70.307C16.762 70.2058 16.8181 70.0694 16.8181 69.9273C16.8181 69.7851 16.762 69.6487 16.6621 69.5475C16.5598 69.4496 16.4235 69.395 16.2818 69.395C16.1401 69.395 16.0038 69.4496 15.9015 69.5475C15.4427 69.9393 15.0123 70.3633 14.6137 70.816C14.4061 71.0458 14.202 71.2792 13.9951 71.5108C13.9435 71.5691 13.8892 71.626 13.8394 71.6859C13.7424 71.8128 13.7277 71.8312 13.7953 71.7412L13.7716 71.768C13.7447 71.7917 13.7178 71.8217 13.6934 71.8467C13.6748 71.8636 13.6557 71.8802 13.6361 71.8964C13.6899 71.8566 13.7006 71.8484 13.6683 71.8717C13.6032 71.9178 13.5352 71.9599 13.4647 71.9976C13.4505 72.0051 13.327 72.0623 13.4002 72.0311C13.4734 72 13.3464 72.0497 13.3308 72.0548C13.2921 72.0674 13.2531 72.0787 13.2135 72.0883C13.1971 72.0923 13.061 72.1197 13.1468 72.1055C13.2326 72.0913 13.0979 72.109 13.0801 72.1098C13.0409 72.1114 13.0021 72.1098 12.9631 72.1098C12.8456 72.1098 12.9836 72.1254 12.9545 72.1098C12.92 72.0941 12.8831 72.0841 12.8453 72.0803C12.8073 72.0668 12.8212 72.0733 12.887 72.0996C12.8698 72.0915 12.8531 72.0829 12.8367 72.0727C12.8203 72.0625 12.7211 71.9876 12.7816 72.0397C12.8421 72.0918 12.7477 71.9989 12.7367 71.986C12.7118 71.957 12.7188 71.966 12.7577 72.0129C12.7454 71.9956 12.734 71.9776 12.7235 71.9592C12.7119 71.9401 12.7014 71.9205 12.6918 71.9004C12.7109 71.9509 12.7138 71.9576 12.6998 71.9203C12.6799 71.8637 12.6633 71.8061 12.6501 71.7476C12.6079 71.6154 12.5161 71.5046 12.3938 71.4385C12.2716 71.3724 12.1285 71.356 11.9945 71.3929C11.8604 71.4298 11.7459 71.5171 11.675 71.6364C11.604 71.7558 11.5821 71.8979 11.6138 72.033Z" fill="#726A69"/>
<path d="M16.4611 67.7168C16.5367 67.7576 16.6086 67.8045 16.6763 67.8572L16.5687 67.7732C16.8619 68.0423 17.1264 68.341 17.3578 68.6645C17.4589 68.7649 17.5956 68.8214 17.7381 68.8218C17.8807 68.8208 18.0172 68.7644 18.1187 68.6645C18.2192 68.5636 18.2758 68.4272 18.2761 68.2849L18.257 68.1421C18.2323 68.0525 18.1846 67.9709 18.1187 67.9053C17.9598 67.7174 17.8159 67.5152 17.6537 67.3289C17.4716 67.1115 17.2516 66.9288 17.0044 66.7895C16.8782 66.7193 16.7297 66.7001 16.5897 66.7358C16.4544 66.7738 16.3389 66.8621 16.267 66.9825C16.2313 67.0434 16.208 67.1108 16.1984 67.1807C16.1887 67.2506 16.193 67.3217 16.211 67.3899C16.2289 67.4581 16.2601 67.5222 16.3029 67.5784C16.3456 67.6346 16.399 67.6818 16.4601 67.7174L16.4611 67.7168Z" fill="#726A69"/>
<path d="M61.7896 55.7727C62.376 55.513 62.9902 55.3212 63.6204 55.2012C64.3027 55.0438 64.9945 54.93 65.6913 54.8605C66.0181 54.8006 66.3547 54.8229 66.6706 54.9254C66.7806 54.9692 66.8816 55.0329 66.9683 55.1134C67.0353 55.1783 66.9928 55.1335 67.0369 55.1985C67.0154 55.1671 67.0369 55.1918 67.0275 55.2028C67.0259 55.2044 67.0248 55.2103 67.0216 55.2141C67.0184 55.2178 67.0184 55.2183 66.9794 55.2565C66.8982 55.3265 66.8077 55.3849 66.7104 55.4302C66.3615 55.5883 65.9949 55.7043 65.6184 55.7757C64.9461 55.9341 65.2301 56.9698 65.9043 56.8112C66.6647 56.6324 67.8371 56.3548 68.0665 55.4688C68.3233 54.4798 67.2389 53.8626 66.4092 53.7699C66.0035 53.7457 65.5963 53.7694 65.1962 53.8406C64.7193 53.9018 64.2449 53.9769 63.7734 54.0709C62.901 54.2196 62.0513 54.4795 61.2452 54.8441C60.6234 55.1475 61.168 56.074 61.7882 55.7711L61.7896 55.7727Z" fill="#726A69"/>
<path d="M65.2218 56.8889C67.1374 57.3552 69.041 57.8723 70.9458 58.3845C71.2099 58.4557 71.6526 58.5816 71.7379 58.8855C71.8336 59.2256 71.5074 59.3234 71.247 59.3223C70.8809 59.2995 70.5182 59.2383 70.165 59.1397C69.747 59.0479 69.3297 58.9532 68.913 58.8554C68.0357 58.6506 67.1546 58.4492 66.2899 58.1961C65.6242 58.0012 65.3399 59.0372 66.0037 59.2316C66.8977 59.4933 67.8092 59.7008 68.7161 59.9116C69.1734 60.019 69.6333 60.1226 70.0932 60.2217C70.5725 60.3573 71.0718 60.4081 71.5687 60.3717C71.8389 60.3367 72.0934 60.2249 72.3018 60.0496C72.5101 59.8742 72.6636 59.6428 72.7439 59.3828C72.8242 59.1228 72.8279 58.8453 72.7545 58.5833C72.6812 58.3213 72.534 58.0858 72.3304 57.905C71.9208 57.5831 71.4393 57.3646 70.9269 57.2682C70.358 57.1173 69.7894 56.9661 69.221 56.8145C67.9854 56.4864 66.7501 56.1557 65.5077 55.8534C64.8354 55.6899 64.5484 56.7251 65.2218 56.8889Z" fill="#726A69"/>
<path d="M70.3165 61.9903C70.5943 62.4021 70.025 62.8582 69.6116 62.818C69.1222 62.75 68.6366 62.6569 68.1568 62.539C67.5597 62.4169 66.964 62.2877 66.3725 62.1411C66.1117 62.0764 65.851 62.009 65.5926 61.9323C65.4966 61.9038 65.4008 61.874 65.3061 61.8418C65.2618 61.8265 65.2182 61.8096 65.1738 61.7945C65.0393 61.7489 65.2254 61.82 65.1399 61.7814C65.0158 61.7137 64.8704 61.696 64.7336 61.7319C64.5968 61.7677 64.4789 61.8544 64.404 61.9741C64.3331 62.0974 64.3136 62.2435 64.3498 62.3809C64.3859 62.5184 64.4748 62.6361 64.5972 62.7087C65.1481 62.9359 65.7194 63.1104 66.3034 63.2298C67.0127 63.3997 67.7267 63.5498 68.4427 63.6889C69.1587 63.8279 69.9088 64.0526 70.5779 63.6427C71.3065 63.1965 71.7683 62.2254 71.2444 61.4482C70.8598 60.878 69.9265 61.4149 70.3154 61.9903H70.3165Z" fill="#726A69"/>
<path d="M58.1983 60.4561C59.7281 61.2956 60.7953 62.7649 62.3106 63.6308C63.021 64.0068 63.7721 64.3005 64.5494 64.506C65.4048 64.7884 66.2983 64.939 67.1992 64.9527C68.1198 64.9358 69.2476 64.2976 69.059 63.2305C69.0202 63.0936 68.9291 62.9775 68.8052 62.9071C68.6814 62.8368 68.5348 62.8179 68.3971 62.8546C68.2611 62.8949 68.1459 62.9861 68.0757 63.1092C68.0055 63.2323 67.9858 63.3777 68.0206 63.515C67.9937 63.3679 68.0114 63.4836 67.9496 63.5714C67.8946 63.6399 67.8282 63.6983 67.7532 63.7441C67.6007 63.8381 67.4235 63.8844 67.2444 63.8769C66.7981 63.8836 66.3526 63.8386 65.9168 63.7427C65.0636 63.5678 64.2285 63.3139 63.4225 62.9843C61.5957 62.2385 60.4511 60.466 58.7402 59.5272C58.1332 59.194 57.5896 60.121 58.1972 60.4545L58.1983 60.4561Z" fill="#726A69"/>
<path d="M65.459 61.0941C66.7438 61.4968 68.0947 61.7287 69.4102 62.0088C70.1192 62.1596 70.8991 62.467 71.5799 62.0791C72.4136 61.6039 72.7364 60.3483 72.0516 59.6124C71.5799 59.1047 70.8203 59.8653 71.291 60.3716C71.4346 60.5263 71.3195 60.8919 71.1996 61.0262C71.1028 61.131 70.9729 61.1994 70.8316 61.22C70.9295 61.2036 70.8472 61.22 70.7873 61.2052C70.7335 61.1923 70.6781 61.1819 70.6237 61.1703C70.0589 61.0498 69.4917 60.9303 68.9264 60.8084C67.8661 60.58 66.7812 60.3829 65.7449 60.0586C65.0827 59.8513 64.7995 60.8879 65.459 61.0941Z" fill="#726A69"/>
<path d="M52.6687 35.6363C52.6738 37.4441 52.4594 39.3495 51.4137 40.8768C50.584 42.0884 49.4503 43.0611 48.5897 44.2512C48.0028 45.0686 47.543 45.9698 47.2261 46.9244C47.0047 47.5808 48.0434 47.8624 48.2634 47.2098C48.8013 45.6172 49.8011 44.3739 50.9178 43.1491C51.4223 42.6158 51.8904 42.0493 52.319 41.4535C52.8021 40.7449 53.1549 39.9561 53.3607 39.124C53.6352 37.9822 53.7643 36.8103 53.745 35.6363C53.7429 34.9455 52.667 34.9441 52.6692 35.6363H52.6687Z" fill="#726A69"/>
<path d="M44.3346 20.6503C43.2448 21.2912 42.088 21.8048 40.9917 22.4343C39.8911 23.0647 38.9334 23.8991 37.9525 24.6957C35.9929 26.2864 34.1277 27.9286 32.6646 30.0023C31.9553 30.995 31.3724 32.0718 30.9292 33.2081C30.4545 34.4473 30.0845 35.733 29.7276 37.0102C29.003 39.6038 28.3217 42.2244 27.7265 44.8508C27.0574 47.804 26.5162 50.8509 26.5377 53.8862C26.5423 54.577 27.6181 54.5786 27.6136 53.8862C27.5955 51.2646 28.017 48.6492 28.5549 46.0898C29.0974 43.5125 29.7824 40.9561 30.4605 38.4116C31.1011 36.0071 31.7194 33.5082 33.0424 31.3739C34.324 29.3067 36.0547 27.6478 37.9162 26.107C38.9708 25.2339 40.0173 24.2814 41.1888 23.5654C42.3817 22.8378 43.6721 22.2861 44.8762 21.5787C45.4725 21.2284 44.9319 20.2997 44.3335 20.6514L44.3346 20.6503Z" fill="#726A69"/>
<path d="M45.106 21.594C45.5242 21.1156 46.0204 20.693 46.3548 20.1443C46.3904 20.0834 46.4137 20.0161 46.4232 19.9462C46.4328 19.8764 46.4285 19.8053 46.4106 19.7371C46.3927 19.6689 46.3615 19.6049 46.3187 19.5487C46.276 19.4926 46.2226 19.4453 46.1616 19.4098C46.1006 19.3742 46.0332 19.351 45.9632 19.3414C45.8932 19.3318 45.822 19.3361 45.7537 19.354C45.6854 19.3719 45.6213 19.4031 45.565 19.4457C45.5087 19.4883 45.4614 19.5416 45.4258 19.6025C45.3735 19.6874 45.3168 19.7696 45.2561 19.8487L45.3402 19.74C45.0382 20.1301 44.6695 20.4624 44.3451 20.8335C44.2471 20.936 44.1909 21.0714 44.1875 21.2131C44.1885 21.3553 44.2451 21.4915 44.3451 21.5927C44.4461 21.6931 44.5828 21.7497 44.7254 21.75C44.7961 21.7502 44.8661 21.7363 44.9313 21.7093C44.9966 21.6823 45.0559 21.6427 45.1057 21.5927L45.106 21.594Z" fill="#726A69"/>
<path d="M22.4992 65.0399C22.489 64.9688 22.5116 65.1656 22.4971 65.0174C22.492 64.9661 22.4855 64.9151 22.4804 64.8638C22.4686 64.7438 22.4586 64.6238 22.4498 64.5038C22.4282 64.213 22.4126 63.922 22.3995 63.6307C22.3656 62.8712 22.3494 62.1109 22.3419 61.3506C22.326 59.707 22.3419 58.0578 22.4573 56.4177C22.4828 56.0553 22.514 55.6929 22.5598 55.3331C22.563 55.2971 22.5681 55.2612 22.5751 55.2257C22.5861 55.1578 22.5966 55.0899 22.609 55.0222C22.6305 54.9027 22.6558 54.7841 22.6875 54.6668L22.169 55.0609C27.9383 54.71 33.722 55.324 39.4943 54.9621C39.9123 54.9352 40.3313 54.9723 40.7506 54.9524C41.1401 54.9342 41.5276 54.8917 41.9141 54.8429C42.6485 54.7276 43.3891 54.6559 44.1319 54.6281C44.824 54.6227 44.8256 53.5488 44.1319 53.5542C42.7697 53.5647 41.437 53.9231 40.0707 53.8858C39.323 53.8654 38.571 53.9422 37.8228 53.9687C37.0745 53.9953 36.3198 54.0095 35.5684 54.0152C32.622 54.0372 29.6782 53.9204 26.7313 53.8946C25.2098 53.8815 23.6875 53.8946 22.1684 53.9865C22.0513 53.9891 21.9381 54.0286 21.8449 54.0994C21.7517 54.1702 21.6833 54.2686 21.6496 54.3806C21.5188 54.9317 21.4378 55.4935 21.4075 56.0591C21.3411 56.8462 21.3088 57.6366 21.2876 58.4262C21.2427 60.096 21.2462 61.7697 21.3145 63.4388C21.3311 64.0697 21.3799 64.6994 21.4608 65.3253C21.4994 65.4623 21.5905 65.5786 21.7144 65.6489C21.8383 65.7193 21.985 65.7381 22.1227 65.7012C22.2585 65.6605 22.3733 65.5692 22.4434 65.4462C22.5135 65.3232 22.5335 65.178 22.4992 65.0407V65.0399Z" fill="#BADA95"/>
<path d="M52.4189 26.0573C52.3472 26.1622 52.2738 26.2654 52.1989 26.3669C52.2766 26.263 52.1653 26.4074 52.1502 26.4257C52.116 26.4667 52.0813 26.5062 52.0456 26.5473C51.9144 26.6938 51.7719 26.8298 51.6193 26.954C51.5015 27.0499 51.6623 26.9256 51.5862 26.9809C51.5464 27.0093 51.5074 27.0386 51.4673 27.0665C51.3837 27.1253 51.2984 27.1817 51.2123 27.237C51.0125 27.3653 50.8089 27.488 50.6064 27.6128C50.5368 27.6556 50.4777 27.7133 50.4334 27.7818C50.3891 27.8503 50.3606 27.9278 50.3502 28.0086C50.3398 28.0895 50.3476 28.1717 50.373 28.2492C50.3985 28.3266 50.441 28.3974 50.4975 28.4564C50.9188 29.0082 51.4499 29.467 52.0574 29.8041C52.3083 29.9414 52.5675 30.0633 52.8333 30.1689C52.9484 30.211 53.0717 30.2251 53.1933 30.2103C53.3149 30.1954 53.4312 30.152 53.5326 30.0836C53.7479 29.9242 53.9417 29.7377 54.109 29.5286C54.2776 29.3362 54.4169 29.12 54.5224 28.887C54.7628 28.3909 54.8762 27.8431 54.8524 27.2926C54.8026 26.6533 54.4944 26.0485 53.8331 25.8697C53.6955 25.8318 53.5485 25.85 53.4244 25.9203C53.3003 25.9906 53.2092 26.1073 53.1713 26.2446C53.1333 26.3819 53.1516 26.5286 53.222 26.6525C53.2925 26.7764 53.4093 26.8673 53.5469 26.9052C53.5698 26.9133 53.5932 26.9203 53.6168 26.9261C53.68 26.9352 53.5138 26.8689 53.5663 26.9038C53.5695 26.9062 53.6711 26.965 53.6711 26.965C53.634 26.9948 53.5765 26.8745 53.6243 26.9304C53.6363 26.9432 53.649 26.9554 53.6623 26.9669C53.6773 26.9806 53.7287 27.0504 53.672 26.9725C53.6152 26.8947 53.672 26.9766 53.6835 26.9943C53.6989 27.0324 53.7182 27.0688 53.7411 27.103C53.7325 27.0958 53.6978 26.9736 53.7185 27.0528C53.7231 27.0711 53.7309 27.0891 53.7365 27.1065C53.7493 27.1488 53.76 27.1917 53.7685 27.2351C53.7717 27.2501 53.7723 27.3009 53.7817 27.31C53.7634 27.292 53.7696 27.1715 53.7752 27.2754C53.7801 27.3675 53.7841 27.4585 53.7801 27.5508C53.7777 27.6069 53.7717 27.6628 53.7666 27.7186C53.7607 27.7841 53.7397 27.7269 53.7725 27.6778C53.7619 27.7108 53.7561 27.7452 53.7553 27.7798C53.7373 27.877 53.7142 27.9731 53.6867 28.0679C53.6725 28.1181 53.6566 28.1678 53.6397 28.2172C53.63 28.244 53.5698 28.3514 53.5792 28.3782C53.5692 28.3498 53.6252 28.2765 53.5934 28.3433C53.5837 28.3638 53.5749 28.3842 53.5665 28.4043C53.5429 28.4537 53.5177 28.5023 53.4909 28.5501C53.4556 28.6373 53.404 28.7171 53.339 28.7853C53.4156 28.7364 53.4027 28.7093 53.3592 28.7568C53.3462 28.7708 53.3341 28.7853 53.3215 28.7992C53.2798 28.8449 53.2357 28.8881 53.1929 28.9334C53.1163 29.014 53.0413 29.0945 52.9606 29.17C52.9234 29.2046 52.8148 29.2757 52.9737 29.1659C52.8931 29.2218 52.9772 29.1676 53.0275 29.1512C52.9417 29.178 53.1351 29.1474 53.1523 29.1512C53.2766 29.1702 53.1574 29.1415 53.1292 29.1361C53.0698 29.1249 53.2672 29.2033 53.1851 29.1592C53.1701 29.1512 53.1534 29.1442 53.1378 29.1367C53.101 29.1187 53.0644 29.0999 53.0275 29.0814C52.8998 29.0169 52.7696 28.9579 52.6408 28.8956C52.5006 28.8267 52.3664 28.7464 52.2395 28.6556C52.2126 28.6365 52.1857 28.6166 52.1588 28.5976C52.2438 28.6585 52.1158 28.563 52.1107 28.5587C52.0459 28.505 51.9824 28.4503 51.92 28.3946C51.6815 28.1797 51.4603 27.9463 51.2586 27.6966L51.1505 28.5385C51.5784 28.2907 51.9894 28.0149 52.381 27.713C52.7567 27.391 53.083 27.0156 53.3492 26.5988C53.4203 26.4756 53.4398 26.3295 53.4037 26.192C53.3675 26.0545 53.2786 25.9368 53.1561 25.8643C53.0322 25.7958 52.8866 25.7775 52.7495 25.8134C52.6125 25.8492 52.4946 25.9364 52.4202 26.0568L52.4189 26.0573Z" fill="#4F8D00"/>
<path d="M57.0336 26.0842C57.6339 27.7101 58.8647 28.9837 59.6328 30.5285C60.043 31.3527 60.3904 32.2059 60.7595 33.0489C60.9859 33.5668 61.3243 34.2374 61.1416 34.7585C61.0716 34.9192 60.9696 35.0639 60.8418 35.184C60.6236 35.3969 60.3929 35.5966 60.1508 35.7819C59.7369 36.1146 59.338 36.4649 58.9241 36.7975C58.0252 37.5197 57.0912 38.2022 56.1426 38.8578C55.6283 39.213 55.1084 39.5652 54.5635 39.8726C54.4715 39.9244 54.379 39.9752 54.2843 40.0224C54.2437 40.0428 54.2036 40.0622 54.162 40.0812C54.1049 40.1064 54.1114 40.1043 54.1805 40.0745C54.1348 40.0914 54.1227 40.0962 54.1442 40.0887C53.8641 39.7033 53.6257 39.2894 53.4331 38.8538C53.1117 38.2414 52.1827 38.7837 52.5041 39.3958C52.8893 40.1293 53.407 41.4445 54.4675 41.1095C54.9445 40.9221 55.3953 40.6741 55.8088 40.3717C56.9384 39.6468 58.0226 38.8468 59.0849 38.0271C59.4709 37.7297 59.8498 37.4258 60.2194 37.1087C60.7369 36.6646 61.3407 36.2794 61.7764 35.7492C62.8759 34.4116 61.7879 32.7286 61.2116 31.4034C60.7866 30.3615 60.2648 29.3617 59.653 28.417C59.0787 27.5718 58.4284 26.7669 58.0707 25.7983C57.8332 25.1553 56.7929 25.4332 57.0333 26.0837L57.0336 26.0842Z" fill="#726A69"/>
<path d="M42.216 34.6618C42.851 35.7808 43.478 36.9049 44.0847 38.0395C44.3841 38.5992 44.6788 39.1617 44.9618 39.7308C45.0457 39.8989 45.2125 40.1115 45.0963 40.3C44.9744 40.4989 44.5659 40.6205 44.3642 40.7266C41.8373 42.0555 39.3247 43.4548 36.6478 44.4659C36.3388 44.5824 36.0526 44.7845 35.7788 44.5332C35.5337 44.3019 35.3116 44.0475 35.1156 43.7735C34.6592 43.1449 34.2968 42.4534 34.0397 41.7207C33.8098 41.074 32.77 41.3527 33.0024 42.0061C33.2613 42.7605 33.6175 43.478 34.0618 44.1407C34.4453 44.6994 34.9792 45.5054 35.6702 45.6963C36.0414 45.7727 36.4275 45.7256 36.7694 45.562C37.1728 45.4122 37.5763 45.2522 37.9732 45.0852C38.7599 44.7555 39.5359 44.402 40.3035 44.0304C41.7451 43.3324 43.1574 42.5766 44.5731 41.8289C45.202 41.4971 45.9838 41.2364 46.1748 40.4697C46.3491 39.7687 45.8265 39.0554 45.5188 38.4612C44.7606 36.9965 43.9572 35.555 43.1431 34.1206C42.8021 33.5192 41.8723 34.0599 42.2141 34.6626L42.216 34.6618Z" fill="#726A69"/>
<path d="M55.0912 40.9496C55.7441 41.9523 56.4778 42.9003 57.2848 43.7841C58.2515 44.9224 59.2482 46.0465 60.324 47.0836C60.713 47.493 61.1504 47.8536 61.6266 48.1575C61.7497 48.2285 61.896 48.248 62.0334 48.2116C62.1709 48.1753 62.2883 48.0861 62.3601 47.9636C62.4318 47.8411 62.4521 47.6952 62.4164 47.5578C62.3807 47.4204 62.292 47.3028 62.1696 47.2305C61.9064 47.0632 61.6608 46.8699 61.4365 46.6535L60.6758 47.4128C61.047 47.7406 61.4426 48.0398 61.8592 48.3076C62.2058 48.4908 62.5673 48.6443 62.9399 48.7664C63.9907 49.1208 65.059 49.4213 66.1405 49.6669C68.2677 50.182 70.4169 50.596 72.5535 51.0629C72.9805 51.1129 73.3965 51.2317 73.7853 51.4149C74.3741 51.7762 74.7067 52.3599 75.4496 52.4383C75.592 52.4373 75.7282 52.3804 75.8289 52.2799C75.9295 52.1794 75.9865 52.0434 75.9875 51.9013C75.9844 51.7599 75.9268 51.6251 75.8266 51.5251C75.7263 51.425 75.5913 51.3675 75.4496 51.3644C75.5497 51.3749 75.3619 51.3284 75.4475 51.3644C75.3945 51.3402 75.3439 51.3112 75.2963 51.2777C75.214 51.2159 75.1357 51.149 75.0618 51.0774C74.8365 50.8579 74.5909 50.6602 74.3283 50.4868C73.9223 50.2695 73.4803 50.1274 73.0236 50.0671C72.1899 49.8792 71.3515 49.7138 70.5153 49.5383C68.2381 49.0609 65.9353 48.5986 63.7159 47.8928C63.4681 47.8139 63.2218 47.7317 62.9789 47.6388C62.825 47.5866 62.6754 47.5223 62.5316 47.4466C62.4579 47.4096 62.3845 47.3712 62.3143 47.3277C62.2654 47.2973 62.0906 47.1695 62.274 47.3086C61.9916 47.0938 61.7156 46.8702 61.4365 46.6514C61.3335 46.5547 61.1975 46.5008 61.0561 46.5008C60.9148 46.5008 60.7788 46.5547 60.6758 46.6514C60.5762 46.7527 60.5204 46.889 60.5204 47.031C60.5204 47.173 60.5762 47.3093 60.6758 47.4106C60.967 47.69 61.2855 47.9395 61.6266 48.1554L62.1696 47.2283C62.0997 47.1883 62.0338 47.1435 61.9676 47.0981C61.9343 47.075 61.902 47.0503 61.8695 47.0259C61.965 47.0981 61.8254 46.9889 61.8009 46.9687C61.6013 46.8044 61.4101 46.6299 61.2221 46.4525C60.7264 45.9837 60.2539 45.4903 59.7899 44.9904C58.7918 43.9141 57.8284 42.8013 56.9185 41.6495C56.593 41.254 56.293 40.8382 56.0205 40.4046C55.666 39.8116 54.7354 40.3509 55.0915 40.9467L55.0912 40.9496Z" fill="#726A69"/>
<path d="M28.1683 64.83C27.1678 64.895 26.1751 65.0448 25.1778 65.1439C24.6849 65.217 24.1839 65.217 23.691 65.1439C23.1888 65.0456 22.702 64.8816 22.1994 64.7855C21.156 64.6178 20.0985 64.5553 19.0426 64.5989C17.9658 64.5884 16.8905 64.6814 15.8315 64.8767C14.993 65.072 14.2298 65.5075 13.6358 66.1297C12.8999 66.8564 12.2421 67.6702 11.578 68.4616C10.9575 69.2015 9.99116 70.033 9.99923 71.0787C9.99034 71.294 10.0316 71.5085 10.1199 71.7052C10.2081 71.9019 10.3409 72.0755 10.5077 72.2123C10.6746 72.3491 10.871 72.4454 11.0814 72.4936C11.2919 72.5418 11.5106 72.5406 11.7206 72.49C12.5589 72.2967 13.0355 71.4341 13.5495 70.8212C14.1344 70.1248 14.7272 69.4335 15.3407 68.762C15.8065 68.2519 15.0478 67.4908 14.5801 68.0028C14.1027 68.525 13.6387 69.0606 13.1815 69.5989C12.945 69.8765 12.7103 70.1557 12.4774 70.4365C12.2668 70.691 12.0444 71.0177 11.8338 71.2293C11.7682 71.3062 11.6859 71.3671 11.5931 71.4074C11.5004 71.4477 11.3996 71.4663 11.2986 71.4618C11.0724 71.4135 11.0492 71.061 11.1103 70.8534C11.2216 70.4776 11.536 70.1823 11.7827 69.8869C12.1264 69.4754 12.4699 69.0635 12.8171 68.6549C13.3613 67.977 13.9461 67.3326 14.5683 66.7252C15.1248 66.223 15.8271 65.9108 16.5733 65.8336C17.493 65.7132 18.4201 65.6583 19.3476 65.6693C20.2856 65.6304 21.225 65.6974 22.148 65.8687C22.6458 65.9815 23.1321 66.1399 23.6375 66.2177C24.1308 66.2821 24.6304 66.2833 25.124 66.2212C26.1404 66.1232 27.1508 65.9681 28.1702 65.902C28.8576 65.8575 28.8627 64.7833 28.1702 64.8281L28.1683 64.83Z" fill="#726A69"/>
<path d="M54.1978 53.0972C55.9159 52.5084 57.6971 52.1222 59.5051 51.9466C60.6711 51.7805 61.8513 51.7363 63.0265 51.8147C64.2093 51.9617 65.3779 52.2056 66.5206 52.5439C67.584 52.8285 68.6292 53.1737 69.6975 53.4411C70.8209 53.7222 71.9613 53.9212 73.0882 54.1853C75.3176 54.7025 77.4826 55.4654 79.5431 56.4601C81.7555 57.5197 83.8102 58.8802 85.6485 60.5027L85.5643 59.8519C85.3115 60.4249 84.9653 60.9623 84.663 61.5098C84.4671 61.8199 84.3034 62.1491 84.1743 62.4924C84.074 62.8215 84.0024 63.1608 83.9301 63.4967C83.6525 64.787 83.4729 66.2351 82.6015 67.2872C81.9982 67.9426 81.2399 68.4365 80.396 68.7238C79.4809 69.0621 78.543 69.3351 77.5892 69.5408C72.7143 70.652 67.6599 70.976 62.689 71.3857C59.4952 71.6488 56.3164 72.019 53.1142 72.1758C48.7662 72.389 44.4132 72.5133 40.0615 72.6086C37.9787 72.6542 35.8956 72.6908 33.8123 72.705C32.4435 72.7141 31.0689 72.7318 29.7026 72.6687C29.4831 72.6588 29.2647 72.6419 29.0458 72.6231L29.5103 72.8889C29.4121 72.6975 29.5267 73.0164 29.4791 72.8083C29.4576 72.7152 29.4345 72.6228 29.4167 72.5289C29.396 72.4215 29.3788 72.3117 29.3629 72.2027C29.3536 72.1397 29.3446 72.0763 29.336 72.0126C29.3236 71.9229 29.3535 72.1468 29.3339 71.9965C29.3279 71.9484 29.3218 71.9006 29.3156 71.8526C29.2188 71.074 29.1494 70.2925 29.0851 69.5112C28.949 67.8575 28.8387 66.1999 28.7731 64.5419C28.7615 64.2503 28.7505 63.9587 28.7483 63.6669C28.7483 63.5794 28.7513 63.4916 28.7508 63.4041C28.7508 63.2231 28.7322 63.4916 28.694 63.5445L28.2295 63.8103C31.0678 63.5023 33.9346 63.3829 36.7823 63.185C40.0367 62.959 43.3051 62.7785 46.5503 62.4301C47.5253 62.3254 48.4905 62.1482 49.4625 62.0198C51.2804 61.7798 53.105 61.594 54.9264 61.3841C55.0678 61.38 55.2022 61.3221 55.3022 61.2223C55.4022 61.1225 55.4602 60.9883 55.4643 60.8472C55.4634 60.705 55.4064 60.569 55.3057 60.4685C55.2051 60.368 55.0688 60.3111 54.9264 60.3102C53.3205 60.4952 51.7124 60.6619 50.1083 60.863C49.3074 60.9634 48.5072 61.0713 47.7092 61.1932C47.4857 61.2273 47.2619 61.2617 47.039 61.2985C46.9949 61.3057 46.8564 61.3218 47.0484 61.2985C47.0024 61.3044 46.9561 61.3105 46.9099 61.3162C45.6891 61.4657 44.4589 61.5508 43.233 61.6459C39.5962 61.9283 35.9558 62.1664 32.3171 62.422C31.0848 62.5085 29.8516 62.5895 28.6211 62.6993C28.3699 62.7219 28.0348 62.7098 27.8498 62.8945C27.7199 63.0505 27.6567 63.2511 27.6739 63.4532C27.6585 63.9346 27.6913 64.4197 27.7131 64.9013C27.7874 66.5519 27.8957 68.2008 28.038 69.8479C28.1002 70.5728 28.1674 71.2977 28.2618 72.0204C28.2799 72.4801 28.3764 72.9333 28.5472 73.3606C28.782 73.806 29.5324 73.7383 29.9936 73.7539C30.4933 73.7705 30.9936 73.7767 31.4936 73.7807C32.9513 73.7915 34.4093 73.7773 35.8668 73.7579C39.624 73.7076 43.3804 73.6181 47.1361 73.4895C50.1285 73.3901 53.1284 73.3031 56.1141 73.0728C57.2561 72.9847 58.3924 72.8312 59.5333 72.7283C61.462 72.5538 63.3931 72.4062 65.3226 72.24C69.5046 71.8786 73.741 71.5151 77.8412 70.5857C79.2987 70.2552 80.8376 69.8608 82.1297 69.0822C83.0931 68.4934 83.8367 67.6057 84.2469 66.5551C84.6888 65.4769 84.8284 64.3104 85.106 63.1866C85.3564 62.1729 86.0766 61.3425 86.4954 60.3945C86.5524 60.2912 86.575 60.1725 86.5598 60.0555C86.5447 59.9386 86.4926 59.8295 86.4112 59.744C82.9925 56.6934 78.7874 54.5851 74.3719 53.4001C73.1885 53.0827 71.9857 52.8698 70.7929 52.5984C69.7074 52.3514 68.658 52.0032 67.5845 51.717C66.413 51.4045 65.2446 51.0727 64.0451 50.8759C62.8372 50.6972 61.6118 50.668 60.3967 50.7889C58.1891 50.925 56.0094 51.3535 53.9149 52.0631C53.2694 52.2969 53.5477 53.3351 54.2007 53.0986L54.1978 53.0972Z" fill="#BADA95"/>
<path d="M60.7847 35.8048C62.0017 37.6868 63.3174 39.5033 64.7262 41.2467C65.0603 41.6763 65.397 42.1037 65.7408 42.5255C65.8639 42.6766 65.9877 42.827 66.1138 42.9757C66.2988 43.1855 66.52 43.3605 66.7668 43.4925C68.2769 44.3339 69.8331 45.0899 71.4281 45.7571C72.1223 46.065 72.8194 46.3702 73.5335 46.6296C73.71 46.7136 73.9028 46.7579 74.0983 46.7593C74.2855 46.7403 74.4684 46.6912 74.64 46.614C74.9845 46.472 75.2642 46.28 75.6426 46.4108C76.2981 46.6376 76.5797 45.6005 75.9285 45.3753C75.5716 45.2507 75.1828 45.2507 74.8258 45.3753C74.6741 45.429 74.5284 45.4982 74.3818 45.5632C74.3188 45.5901 74.2634 45.6188 74.1983 45.6419C74.1618 45.6548 73.967 45.676 74.0822 45.6883C73.8097 45.6231 73.5462 45.5251 73.2973 45.3965C72.9872 45.2735 72.6806 45.1423 72.3751 45.0088C70.8603 44.346 69.3383 43.6775 67.8835 42.8879C67.5793 42.7531 67.2907 42.5854 67.0229 42.388C66.8897 42.2512 66.7664 42.1051 66.6539 41.9509C66.3411 41.5719 66.0353 41.1869 65.7321 40.8C64.988 39.8514 64.2589 38.8911 63.5447 37.9191C62.9062 37.0519 62.2822 36.178 61.7158 35.2628C61.3519 34.6765 60.4208 35.215 60.7868 35.8048H60.7847Z" fill="#726A69"/>
<path d="M88.1218 58.2974C87.4986 56.7918 87.0524 54.8422 87.8558 53.3138C88.1772 52.7022 87.249 52.1594 86.9268 52.7718C85.9854 54.5657 86.3405 56.7859 87.0844 58.5828C87.126 58.7178 87.2176 58.8318 87.3406 58.9017C87.4635 58.9715 87.6085 58.9919 87.746 58.9587C87.8832 58.9202 87.9997 58.8293 88.0702 58.7057C88.1407 58.582 88.1595 58.4356 88.1226 58.2982L88.1218 58.2974Z" fill="#726A69"/>
<path d="M88.1882 35.0144C86.5537 35.823 85.2366 37.2486 83.4889 37.8349C83.1348 37.9662 82.758 38.0258 82.3806 38.0102C81.9503 37.9796 81.592 37.723 81.1703 37.6543C80.7728 37.565 80.3561 37.6359 80.0107 37.8516C79.6653 38.0673 79.4192 38.4104 79.3258 38.8063C79.2556 39.1096 79.2569 39.4251 79.1808 39.7274C79.0851 40.0963 78.8712 40.4238 78.5716 40.6601C77.9859 41.1601 77.4421 41.707 76.9455 42.2953C76.36 42.9331 75.9402 43.7045 75.7228 44.5419C75.5749 45.2887 75.6547 46.0627 75.952 46.7637C76.2693 47.5616 76.6574 48.3295 77.1117 49.0584C77.4737 49.7132 77.9381 50.3062 78.4874 50.815C79.0162 51.2536 79.7811 50.4982 79.2481 50.0555C78.809 49.6548 78.4348 49.1887 78.1389 48.6736C77.7496 48.0635 77.4057 47.4257 77.1098 46.7653C76.8206 46.2206 76.689 45.6062 76.7298 44.991C76.8765 44.2348 77.2374 43.5366 77.7699 42.9791C78.234 42.439 78.7374 41.9339 79.276 41.4679C79.8685 40.961 80.2383 40.2424 80.3061 39.4664C80.3015 39.2438 80.3559 39.0238 80.4637 38.8288C80.6593 38.6012 81.049 38.7093 81.28 38.7995C82.0407 39.1212 82.8923 39.1576 83.6778 38.9021C85.5779 38.3115 86.9762 36.8096 88.7309 35.9417C89.3514 35.6345 88.807 34.7081 88.1879 35.0144H88.1882Z" fill="#726A69"/>
<path d="M92.1359 38.6599C90.3444 41.1062 90.1074 44.4409 90.272 47.3645C90.3107 48.0518 91.3868 48.0561 91.3478 47.3645C91.1927 44.6119 91.3764 41.5079 93.0649 39.203C93.1358 39.0798 93.1554 38.9337 93.1192 38.7962C93.0831 38.6588 92.9942 38.541 92.8718 38.4685C92.7478 38.3998 92.6021 38.3815 92.465 38.4174C92.3279 38.4533 92.21 38.5407 92.1359 38.6613V38.6599Z" fill="#726A69"/>
<path d="M90.4956 34.3398C90.0346 35.3149 89.9822 36.4478 90.0666 37.5077C90.119 38.5739 90.3805 39.6194 90.8364 40.585C91.1529 41.1998 92.0814 40.6572 91.7651 40.0429C91.4008 39.2441 91.1896 38.3842 91.1425 37.5077C91.0744 36.658 91.0731 35.6255 91.4246 34.8821C91.4927 34.7583 91.5107 34.6131 91.4748 34.4765C91.4389 34.3398 91.3519 34.2221 91.2318 34.1476C91.1083 34.0768 90.9619 34.0573 90.8242 34.0934C90.6865 34.1294 90.5685 34.2177 90.4956 34.3398Z" fill="#726A69"/>
<path d="M90.1868 48.1049C90.4729 48.0936 90.7529 48.1898 90.9714 48.3746C91.1898 48.5594 91.3309 48.8192 91.3667 49.1028C91.4108 49.7238 90.8557 50.1396 90.3624 50.3915C89.7717 50.6699 89.1239 50.8065 88.4709 50.7903C87.8178 50.7742 87.1776 50.6058 86.6013 50.2986C85.9889 49.9777 85.4448 50.9042 86.0583 51.2259C87.6721 52.0713 89.8116 52.1282 91.343 51.057C92.123 50.5112 92.648 49.5898 92.3651 48.6238C92.2238 48.1586 91.935 47.7516 91.5421 47.4642C91.1493 47.1768 90.6736 47.0244 90.1865 47.0299C89.4948 47.0391 89.4926 48.1129 90.1865 48.1038L90.1868 48.1049Z" fill="#726A69"/>
<path d="M84.1426 40.5658C84.1977 40.6109 84.2473 40.6623 84.2903 40.7191L84.2061 40.6103C84.3076 40.7471 84.3919 40.8957 84.457 41.053L84.4033 40.925C84.4734 41.0857 84.5231 41.2547 84.5512 41.4278L84.5318 41.285C84.5431 41.3579 84.545 41.432 84.5372 41.5054L84.5563 41.3626C84.5522 41.3918 84.5449 41.4204 84.5345 41.4479C84.5156 41.517 84.5107 41.5892 84.5199 41.6602C84.5291 41.7312 84.5524 41.7997 84.5883 41.8617C84.6603 41.9846 84.7783 42.0739 84.9163 42.11C85.0543 42.1461 85.201 42.126 85.3242 42.0542C85.4406 41.9782 85.5278 41.8651 85.5716 41.7333C85.6236 41.5651 85.6329 41.3866 85.5985 41.2138C85.5769 41.0468 85.5357 40.8828 85.4759 40.7252C85.4104 40.5445 85.3281 40.3703 85.23 40.2049C85.1448 40.0547 85.0348 39.9199 84.9046 39.8062C84.8012 39.7095 84.666 39.6535 84.5243 39.6489C84.3818 39.65 84.2452 39.7064 84.1437 39.8062C84.0433 39.9072 83.9868 40.0436 83.9864 40.1859C83.9854 40.2565 83.9989 40.3266 84.0259 40.392C84.053 40.4573 84.0931 40.5164 84.1437 40.5658H84.1426Z" fill="#726A69"/>
<path d="M78.0279 42.0358C78.2525 42.464 78.5591 42.8441 78.9303 43.1545C79.1781 43.3726 79.4718 43.5325 79.7896 43.6225C79.9296 43.6579 80.0778 43.6387 80.2041 43.5688C80.2954 43.5155 80.369 43.4364 80.4156 43.3416C80.4622 43.2468 80.4798 43.1403 80.4661 43.0355C80.4523 42.9308 80.408 42.8324 80.3385 42.7527C80.269 42.673 80.1775 42.6156 80.0755 42.5875C80.0136 42.5727 79.953 42.5526 79.8945 42.5274L80.0231 42.5811C79.8758 42.5159 79.7372 42.4328 79.6105 42.3335L79.7181 42.4173C79.529 42.2675 79.359 42.0953 79.2116 41.9045L79.2955 42.0119C79.1686 41.8481 79.0549 41.6745 78.9556 41.4927C78.8827 41.3707 78.7647 41.2822 78.6271 41.2462C78.4895 41.2102 78.3432 41.2296 78.2197 41.3002C78.0987 41.374 78.011 41.4917 77.975 41.6286C77.939 41.7656 77.9575 41.9111 78.0266 42.0347L78.0279 42.0358Z" fill="#726A69"/>
<path d="M81.3352 44.0364C81.3195 44.1354 81.2916 44.2322 81.2521 44.3244L81.3059 44.1961C81.2496 44.3257 81.1773 44.4478 81.0907 44.5596L81.1749 44.4509C81.1094 44.5365 81.0341 44.6141 80.9506 44.6823C80.855 44.7864 80.7992 44.9208 80.793 45.0619C80.7939 45.2041 80.8505 45.3403 80.9506 45.4415C81.0516 45.5419 81.1883 45.5985 81.3309 45.5989L81.474 45.5798C81.5638 45.555 81.6456 45.5074 81.7115 45.4415C81.7736 45.3913 81.8311 45.3355 81.8831 45.2748C81.971 45.1737 82.051 45.066 82.1224 44.9526C82.1908 44.8364 82.2493 44.7146 82.2972 44.5886C82.3327 44.5024 82.3577 44.4123 82.3717 44.3201C82.3943 44.2507 82.3977 44.1765 82.3814 44.1054C82.3783 44.0344 82.3563 43.9655 82.3177 43.9059C82.282 43.845 82.2347 43.7916 82.1784 43.749C82.1222 43.7063 82.058 43.6751 81.9896 43.6572C81.9213 43.6393 81.85 43.635 81.78 43.6446C81.71 43.6542 81.6426 43.6775 81.5816 43.7131C81.5209 43.7473 81.4678 43.7934 81.4253 43.8485C81.3829 43.9036 81.3519 43.9667 81.3344 44.0339L81.3352 44.0364Z" fill="#726A69"/>
<path d="M63.4808 15.3067C63.2301 18.4518 62.1064 22.0026 59.5123 24.0008C58.1636 25.0426 56.5132 25.6206 54.808 25.6484C53.067 25.6637 51.3538 24.9807 49.913 24.0376C48.2554 22.9503 46.973 21.1556 46.2345 19.3327C46.193 19.1976 46.1014 19.0835 45.9784 19.0136C45.8554 18.9438 45.7104 18.9234 45.5728 18.9568C45.4356 18.9952 45.3191 19.0861 45.2486 19.2098C45.1781 19.3334 45.1593 19.4799 45.1963 19.6172C45.9289 21.4256 47.0978 23.2177 48.6416 24.4357C50.1933 25.6836 52.068 26.4662 54.0477 26.6924C55.9177 26.8371 57.7851 26.3815 59.3776 25.3923C60.9684 24.376 62.2323 22.9237 63.0179 21.2093C63.8886 19.3525 64.4102 17.3519 64.5566 15.307C64.6104 14.6181 63.5346 14.6213 63.4808 15.3067Z" fill="#726A69"/>
<path d="M50.5455 9.6268C52.0917 10.6878 53.7351 11.6003 55.4537 12.352C57.3603 13.2488 59.3287 14.0085 61.3438 14.6252C62.2575 14.9068 63.1922 15.1154 64.1391 15.2491C64.2816 15.2485 64.418 15.1917 64.5187 15.0911C64.6195 14.9906 64.6764 14.8544 64.677 14.7122C64.6735 14.5709 64.6156 14.4364 64.5155 14.3364C64.4154 14.2365 64.2806 14.1788 64.1391 14.1752C62.4681 13.9551 60.6841 13.329 59.0652 12.7153C57.1654 11.9993 55.3157 11.1573 53.5285 10.1949C52.6845 9.7484 51.8696 9.24922 51.0885 8.70031C50.9651 8.62953 50.8187 8.61007 50.681 8.64614C50.5433 8.68221 50.4254 8.77091 50.3527 8.89307C50.2837 9.01669 50.2652 9.16215 50.3012 9.29903C50.3371 9.43592 50.4246 9.55365 50.5455 9.6276V9.6268Z" fill="#4F8D00"/>
<path d="M50.2118 9.02635C49.9572 9.4651 49.6438 9.86705 49.2801 10.221C48.948 10.5625 48.6155 10.9107 48.2546 11.2224C47.8266 11.5773 47.3689 11.8947 46.8864 12.1712C46.4054 12.4707 45.8997 12.7289 45.3749 12.9431C45.2394 12.9842 45.1249 13.0756 45.0549 13.1985C44.9849 13.3213 44.9646 13.4662 44.9984 13.6035C45.0371 13.7404 45.1282 13.8566 45.2521 13.9269C45.3759 13.9973 45.5226 14.0161 45.6603 13.9794C46.8621 13.5117 47.9791 12.8509 48.9671 12.023C49.3474 11.7025 49.6933 11.3373 50.0402 10.9811C50.4689 10.5621 50.8388 10.0872 51.14 9.5692C51.4727 8.96273 50.544 8.42015 50.211 9.02716L50.2118 9.02635Z" fill="#4F8D00"/>
<path d="M43.6514 15.1928C43.2325 13.8939 43.0692 12.5265 43.1705 11.1657C43.225 9.78695 43.5303 8.42957 44.0715 7.15989C44.6392 5.8963 45.4569 4.76024 46.4754 3.81993C47.4939 2.87962 48.6922 2.15445 49.9985 1.68795C51.3625 1.20559 52.8096 1.00136 54.2541 1.08736C55.6986 1.17337 57.1111 1.54786 58.408 2.18865C60.3013 3.16918 61.8538 4.69776 62.8619 6.57409C64.1852 9.04079 64.2605 11.8211 63.7226 14.5146C63.5881 15.1895 64.6246 15.4784 64.7599 14.8C65.0367 13.5411 65.1592 12.2533 65.1249 10.9649C65.0617 9.55334 64.7452 8.16456 64.1905 6.86458C63.2451 4.71108 61.6652 2.89594 59.661 1.66057C56.9772 0.0673975 53.7727 -0.406466 50.7414 0.34158C49.2642 0.708876 47.8752 1.36657 46.6557 2.27617C45.4363 3.18578 44.4108 4.32902 43.6393 5.63901C42.773 7.18165 42.2571 8.89559 42.1283 10.6594C41.9531 12.2819 42.1185 13.923 42.6141 15.4781C42.8408 16.1262 43.8806 15.8476 43.6514 15.1928Z" fill="#4F8D00"/>
<path d="M53.6815 12.093L56.3751 10.3523C56.4361 10.3167 56.4895 10.2694 56.5322 10.2133C56.5749 10.1571 56.6061 10.093 56.624 10.0248C56.6419 9.9566 56.6462 9.88552 56.6366 9.81565C56.627 9.74578 56.6037 9.67848 56.5681 9.61759C56.5324 9.5567 56.4851 9.50342 56.4288 9.46079C56.3725 9.41816 56.3084 9.38701 56.24 9.36912C56.1717 9.35123 56.1005 9.34696 56.0305 9.35654C55.9605 9.36612 55.8931 9.38937 55.8321 9.42496L53.1396 11.1657C53.0164 11.2376 52.9268 11.3554 52.8906 11.4932C52.8545 11.6309 52.8746 11.7774 52.9466 11.9004C53.0186 12.0234 53.1366 12.1127 53.2746 12.1489C53.4126 12.185 53.5594 12.1649 53.6826 12.093H53.6815Z" fill="#4F8D00"/>
<path d="M44.0121 18.1651C43.7184 18.5078 43.3025 18.7228 42.8526 18.7646C42.3129 18.8389 41.7651 18.8317 41.2276 18.7431C40.1078 18.5968 39.0308 18.2197 38.0649 17.6356C38.013 17.6024 37.9627 17.5675 37.9119 17.5323C37.8422 17.4842 37.9608 17.5817 37.8557 17.4891C37.7897 17.4309 37.7268 17.3692 37.6674 17.3044C37.6596 17.2958 37.7212 17.4002 37.676 17.3076C37.6222 17.1937 37.6991 17.3849 37.6822 17.325C37.6916 17.377 37.6887 17.4305 37.6736 17.4811C37.6586 17.5317 37.6319 17.5781 37.5956 17.6166L37.3584 17.7546C38.3804 17.5543 39.063 16.6807 39.3809 15.7381C39.7545 14.6328 39.599 13.396 39.6805 12.2499C39.8059 10.4879 40.9756 7.73471 43.1823 8.10815C43.3199 8.14182 43.4651 8.12162 43.5882 8.05172C43.7113 7.98182 43.8029 7.86752 43.8442 7.73229C43.881 7.59491 43.8621 7.44861 43.7916 7.32502C43.7211 7.20144 43.6048 7.1105 43.4677 7.07186C42.9692 6.97887 42.4561 6.99848 41.9662 7.12926C41.4763 7.26003 41.0219 7.49865 40.6364 7.8276C39.8907 8.48634 39.3288 9.32678 39.0054 10.2669C38.6163 11.3073 38.584 12.404 38.5601 13.5012C38.5396 14.4255 38.5582 15.4704 37.9207 16.2179C37.7995 16.365 37.6518 16.4882 37.4853 16.5814C37.297 16.6847 37.0604 16.6839 36.8885 16.8144C36.7801 16.9039 36.6989 17.0219 36.6542 17.155C36.6096 17.2881 36.6031 17.4311 36.6357 17.5677C36.7698 17.9574 37.0435 18.284 37.4041 18.4845C38.4335 19.144 39.5917 19.5772 40.8018 19.7552C42.1033 19.9783 43.8351 20.0444 44.7713 18.923C45.2119 18.3957 44.4548 17.6322 44.0107 18.1637L44.0121 18.1651Z" fill="#4F8D00"/>
<path d="M108.736 61.9317C108.469 61.1022 107.975 60.3636 107.31 59.7995C106.496 59.1796 105.511 58.8216 104.488 58.7732C103.085 58.7036 101.679 58.73 100.279 58.8524C98.5648 58.9555 96.8536 59.1 95.1451 59.286C94.448 59.3619 93.7514 59.4452 93.0575 59.5472C92.6156 59.5957 92.1792 59.6855 91.7541 59.8156C89.9726 60.4331 88.9839 62.1513 88.6187 63.9136C88.2566 65.6613 88.1243 68.0314 89.6759 69.2578C90.5299 69.9327 91.4833 69.9587 92.5242 69.9601C93.6769 69.9601 94.8294 69.9504 95.9819 69.9399C98.2812 69.9193 100.589 69.9689 102.886 69.861C103.837 69.8165 104.789 69.7509 105.734 69.6368C106.408 69.5563 107.157 69.5002 107.776 69.1952C109.666 68.2639 109.546 65.5062 109.229 63.7834C109.11 63.1553 108.945 62.5368 108.735 61.9328C108.513 61.2826 107.473 61.5618 107.698 62.2182C108.088 63.2876 108.303 64.4126 108.336 65.5502C108.343 66.318 108.255 67.2072 107.766 67.8359C107.676 67.9517 107.57 68.0541 107.451 68.1399C107.381 68.187 107.308 68.2298 107.233 68.2679C107.156 68.3098 107.251 68.262 107.263 68.2572C107.231 68.2698 107.198 68.2819 107.165 68.2923C106.896 68.3716 106.623 68.433 106.347 68.476C105.532 68.6118 104.704 68.6754 103.88 68.7308C101.878 68.865 99.8729 68.8328 97.8654 68.8494C96.7029 68.8591 95.5402 68.8714 94.3775 68.8795C93.4115 68.8862 92.4082 68.96 91.4459 68.8733C91.0534 68.831 90.6804 68.6807 90.3684 68.4393C90.0564 68.1979 89.8176 67.8748 89.6786 67.506C89.4097 66.7758 89.4594 65.8705 89.5245 65.1077C89.6493 63.6387 90.1713 61.9108 91.5129 61.1043C91.927 60.8727 92.3816 60.7222 92.8523 60.6611C93.4303 60.562 93.8442 60.5118 94.4174 60.4436C95.9582 60.2605 97.5047 60.1214 99.052 60.0089C100.521 59.9016 101.996 59.81 103.469 59.8148C104.86 59.8194 106.353 60.0076 107.206 61.2469C107.412 61.5478 107.577 61.8744 107.698 62.2182C107.927 62.8641 108.968 62.5855 108.736 61.9317Z" fill="#726A69"/>
<path d="M53.7789 22.3005C54.1396 22.6554 54.5987 22.8942 55.0968 22.9859C55.4968 23.0839 55.9116 23.1061 56.3197 23.0512C56.5745 23.0016 56.8196 22.9117 57.0459 22.7848C57.1684 22.7123 57.2573 22.5946 57.2934 22.4571C57.3295 22.3196 57.3098 22.1735 57.2388 22.0503C57.1645 21.9299 57.0466 21.8426 56.9095 21.8067C56.7725 21.7708 56.6269 21.789 56.5029 21.8575C56.4636 21.8777 56.4246 21.8978 56.3851 21.9171C56.3665 21.926 56.3474 21.9343 56.3292 21.944C56.2412 21.9886 56.4585 21.8965 56.3628 21.9303C56.3146 21.9472 56.267 21.9647 56.2178 21.9784C56.1609 21.9845 56.1048 21.9964 56.0503 22.0138C56.0874 21.9928 56.1672 22.0009 56.0718 22.0082C56.0403 22.0108 56.0086 22.0124 55.9771 22.0133C55.8983 22.0151 55.8195 22.0133 55.741 22.0065C55.7006 22.0036 55.6603 21.9993 55.6205 21.995C55.4618 21.9781 55.7256 22.0154 55.5755 21.988C55.4975 21.9738 55.4196 21.9598 55.3424 21.9418C55.2158 21.9129 55.0913 21.8754 54.9699 21.8296C54.9136 21.8079 54.883 21.7657 54.9803 21.835C54.9587 21.8227 54.9361 21.8122 54.9128 21.8036C54.8677 21.7816 54.8234 21.7579 54.78 21.7327C54.745 21.7123 54.7106 21.6906 54.6772 21.6677C54.6595 21.6556 54.6423 21.6409 54.6234 21.6296C54.7482 21.697 54.7098 21.6994 54.6689 21.6637C54.6239 21.6254 54.5811 21.5848 54.5406 21.5418C54.4392 21.4421 54.3025 21.3862 54.1602 21.3862C54.0178 21.3862 53.8812 21.4421 53.7797 21.5418C53.6817 21.644 53.627 21.78 53.627 21.9214C53.627 22.0629 53.6817 22.1989 53.7797 22.3011L53.7789 22.3005Z" fill="#726A69"/>
<path d="M46.0137 13.4386C45.8415 13.2441 45.6277 13.0907 45.3881 12.9898C45.1485 12.8888 44.8892 12.843 44.6295 12.8556C44.3697 12.8681 44.1161 12.9388 43.8874 13.0624C43.6587 13.186 43.4608 13.3594 43.3083 13.5696C42.7853 14.3804 42.6005 15.3631 42.7932 16.308C42.9545 17.2004 43.3628 18.0299 43.972 18.7025C44.414 19.1282 44.8872 19.5205 45.3876 19.876C45.511 19.9472 45.6575 19.9668 45.7953 19.9307C45.9332 19.8946 46.0512 19.8057 46.1237 19.6832C46.1922 19.5595 46.2103 19.4142 46.1744 19.2774C46.1384 19.1406 46.0511 19.0229 45.9306 18.9487C45.617 18.7071 45.2905 18.4797 45.0019 18.2085C44.5481 17.7887 44.2061 17.2629 44.0067 16.6783C43.7584 16.0235 43.7408 15.3039 43.957 14.6379C44.0227 14.3596 44.1963 14.1188 44.4398 13.9683C44.5819 13.9126 44.7383 13.9049 44.8852 13.9463C45.0321 13.9877 45.1614 14.076 45.2534 14.1976C45.7106 14.7192 46.4682 13.956 46.0142 13.4383L46.0137 13.4386Z" fill="#726A69"/>
<path d="M55.8581 18.562C55.8608 18.5808 55.8632 18.5996 55.8659 18.6184L55.8465 18.4758C55.8659 18.619 55.8827 18.7622 55.8968 18.9054C55.9181 19.042 55.925 19.1805 55.9173 19.3186L55.9364 19.1757C55.9333 19.1969 55.9281 19.2176 55.921 19.2378L55.9748 19.1094C55.9685 19.124 55.9605 19.1379 55.9511 19.1508L56.0353 19.0434C56.0305 19.0495 56.025 19.0551 56.0189 19.06L56.1265 18.9763C56.117 18.9837 56.1066 18.99 56.0956 18.9951L56.2241 18.9414C56.1861 18.9572 56.1464 18.9689 56.1058 18.9763L56.2486 18.9572C56.2129 18.9619 56.1767 18.9619 56.141 18.9572L56.2841 18.9763C56.2319 18.9679 56.1833 18.9494 56.1324 18.9355C55.9924 18.8995 55.8439 18.9188 55.7177 18.9892C55.6263 19.0425 55.5527 19.1215 55.5061 19.2163C55.4595 19.3112 55.442 19.4176 55.4557 19.5224C55.4694 19.6271 55.5138 19.7255 55.5833 19.8052C55.6527 19.8849 55.7442 19.9424 55.8463 19.9704C55.8974 19.9836 55.946 20.0024 55.9982 20.0112C56.1557 20.0453 56.3194 20.038 56.4732 19.99C56.5905 19.956 56.6979 19.8946 56.7865 19.8107C56.8648 19.7296 56.9229 19.6313 56.9562 19.5237C56.9894 19.4165 57.0017 19.3039 56.9923 19.1921C56.9756 18.8858 56.9363 18.5808 56.8933 18.2772C56.856 18.1421 56.7673 18.027 56.6461 17.9563C56.5851 17.9207 56.5177 17.8974 56.4477 17.8878C56.3777 17.8782 56.3065 17.8825 56.2381 17.9003C56.1697 17.9182 56.1056 17.9494 56.0493 17.992C55.993 18.0346 55.9457 18.0879 55.91 18.1488L55.8562 18.2772C55.8304 18.3706 55.8304 18.4694 55.8562 18.5628L55.8581 18.562Z" fill="#726A69"/>
<path d="M51.4056 15.6801C51.205 16.1365 51.1735 17.2351 52.0602 17.4316C53.2474 17.5621 53.4637 16.2538 53.1361 15.5891C52.8682 15.0449 51.9301 14.723 51.4056 15.6801Z" fill="#726A69"/>
<path d="M58.8627 16.2479C58.6567 16.6847 58.569 17.7513 59.3587 17.9683C60.4232 18.1294 60.6889 16.8675 60.4294 16.2117C60.2158 15.6753 59.3885 15.3343 58.8627 16.2479Z" fill="#726A69"/>
<path d="M44.2975 21.3191C44.3678 22.6878 44.7525 24.0221 45.4218 25.2187C46.0818 26.4821 47.022 27.7208 48.2783 28.4403C48.5996 28.6269 48.9437 28.7713 49.302 28.8699C49.5048 28.9236 49.7081 28.9424 49.9141 28.9773C50.0034 28.9923 49.9106 28.9773 49.8966 28.9727C49.9281 28.9797 49.9601 28.9891 49.9911 28.9996C50.0467 29.0165 50.1037 29.0304 50.16 29.046L49.9225 28.1485C49.9001 28.1754 49.7568 28.3402 49.8434 28.2634C49.7429 28.341 49.638 28.4127 49.5293 28.4782C49.2549 28.6683 48.9814 28.8592 48.7049 29.046C48.1777 29.4162 47.626 29.7503 47.0535 30.0461C46.9459 30.0984 46.8405 30.1486 46.7308 30.1905C46.6737 30.2122 46.6157 30.2329 46.557 30.2496C46.4895 30.2686 46.6799 30.3239 46.5379 30.2437C46.2869 30.1211 46.0538 29.9649 45.8451 29.7795C45.3478 29.2836 44.9378 28.7075 44.6326 28.0755C44.6012 28.0124 44.5716 27.9488 44.542 27.8846C44.5183 27.8406 44.4991 27.7944 44.4847 27.7466C44.4148 27.5649 44.3483 27.3823 44.2881 27.197C44.1504 26.7724 44.0347 26.3409 43.9414 25.9044C43.7226 25.0174 43.6554 24.0999 43.7427 23.1907C43.7746 22.823 43.9017 22.4699 44.1114 22.1659C44.0549 22.24 44.1921 22.0854 44.2211 22.0585C44.3287 21.9549 44.1375 22.1071 44.2626 22.0239C44.3032 21.997 44.3446 21.9729 44.3871 21.9493C44.5216 21.8746 44.3303 21.9664 44.4169 21.9329C44.4735 21.9123 44.5311 21.8949 44.5896 21.8805C44.6696 21.8554 44.7539 21.8468 44.8373 21.8553C45.5285 21.8405 45.5309 20.7666 44.8373 20.7814C42.343 20.8351 42.5065 23.9835 42.8099 25.7086C42.9654 26.6667 43.2446 27.6006 43.6405 28.4871C43.9696 29.1884 44.4091 29.8326 44.9422 30.3953C45.386 30.8625 46.11 31.4794 46.809 31.2955C47.5656 31.0966 48.2759 30.6158 48.9209 30.1924C49.263 29.9679 49.5992 29.736 49.9354 29.5016C50.2119 29.3397 50.4641 29.1395 50.6844 28.9069C50.7489 28.8396 50.7949 28.7569 50.8182 28.6668C50.8415 28.5766 50.8412 28.482 50.8174 28.3919C50.7936 28.3019 50.747 28.2195 50.6821 28.1526C50.6173 28.0857 50.5363 28.0365 50.4469 28.0097C50.1626 27.9316 49.8735 27.9106 49.589 27.8347C49.2465 27.7388 48.9212 27.5897 48.625 27.393C47.9593 26.9382 47.3907 26.356 46.9521 25.6802C46.0958 24.4246 45.3997 22.8502 45.3752 21.3183C45.3639 20.6281 44.2881 20.626 44.2994 21.3183L44.2975 21.3191Z" fill="#4F8D00"/>
<path d="M61.2437 54.7018C59.4955 54.3337 57.81 53.6295 56.1704 52.9393C54.5986 52.2775 53.0524 51.5583 51.4968 50.8592C51.1038 50.6825 50.6539 50.4006 50.2227 50.3362L50.5455 50.5829C48.9164 48.2427 47.464 45.766 45.966 43.3404C45.5239 42.5903 45.042 41.8644 44.5222 41.1658C44.4209 41.0658 44.2842 41.0098 44.1418 41.0098C43.9993 41.0098 43.8626 41.0658 43.7613 41.1658C43.6638 41.2682 43.6094 41.4041 43.6094 41.5454C43.6094 41.6867 43.6638 41.8226 43.7613 41.925C44.2884 42.6528 44.777 43.4076 45.225 44.1864C45.6163 44.8207 46.0203 45.4482 46.4127 46.0809C47.354 47.6021 48.2776 49.137 49.2744 50.6235C49.4737 50.9204 49.6394 51.2611 49.9906 51.3827C50.1022 51.4214 50.212 51.4633 50.3214 51.5065C50.3884 51.5333 50.2246 51.4641 50.3599 51.5229C50.4037 51.5419 50.4478 51.5607 50.4917 51.58C50.5993 51.6267 50.7068 51.6743 50.8125 51.7218C51.0745 51.8388 51.3359 51.957 51.5968 52.0762C53.0438 52.7342 54.4916 53.3901 55.9579 54.0043C57.5755 54.6819 59.2363 55.3735 60.9589 55.7365C61.6343 55.8788 61.9229 54.8438 61.2448 54.701L61.2437 54.7018Z" fill="#726A69"/>
<path d="M58.9217 59.7081C57.939 59.2491 56.923 58.8647 55.8825 58.5582C55.0935 58.2978 54.3035 58.0395 53.5124 57.7834C51.6685 57.188 49.8102 56.6083 48.012 55.884C47.7129 55.7635 47.4082 55.6338 47.108 55.4797C46.7796 55.2908 46.4759 55.0622 46.2038 54.7988C45.3969 54.1008 44.5774 53.4098 43.8225 52.6527C42.6763 51.4422 41.5957 50.1714 40.5853 48.8458C39.9481 48.053 39.3137 47.258 38.6894 46.4564C38.254 45.9243 37.8464 45.3701 37.4681 44.7961C37.1034 44.2103 36.1723 44.7489 36.5391 45.3382C36.8619 45.8561 37.2502 46.3374 37.6222 46.8199C38.1881 47.5537 38.7613 48.2817 39.3419 49.0039C40.3696 50.2896 41.379 51.6113 42.4954 52.8221C43.2059 53.5758 43.9582 54.2892 44.7487 54.9588C45.4389 55.5573 46.0712 56.1909 46.9087 56.5732C48.6508 57.3684 50.5041 57.9365 52.3225 58.5276C53.2246 58.8208 54.1275 59.1105 55.0283 59.4079C56.1493 59.7779 57.323 60.1003 58.3786 60.6365C58.9943 60.9492 59.5395 60.023 58.9217 59.7092V59.7081Z" fill="#726A69"/>
</g>
</svg>
