<svg width="130" height="80" viewBox="0 0 130 80" fill="none" xmlns="http://www.w3.org/2000/svg">
<mask id="mask0_1621_24727" style="mask-type:alpha" maskUnits="userSpaceOnUse" x="0" y="0" width="130" height="80">
<path d="M0 0H130V80H0V0Z" fill="#D9D9D9"/>
</mask>
<g mask="url(#mask0_1621_24727)">
</g>
<g clip-path="url(#clip0_1621_24727)">
<path d="M78.0585 12.7211C77.7852 13.5207 77.6464 14.3602 77.6479 15.2053C77.5976 17.1502 78.2952 19.0401 79.5963 20.4842H77.2514C76.6399 20.4721 76.0322 20.5833 75.4645 20.8113C74.8968 21.0393 74.3807 21.3795 73.9469 21.8115C73.5131 22.2435 73.1705 22.7585 72.9394 23.3259C72.7084 23.8933 72.5936 24.5015 72.602 25.1142C72.602 27.9072 74.5432 29.8309 77.2518 29.8309H89.2801C91.2986 29.8309 92.8077 28.829 93.5036 27.2409C94.3695 27.5465 95.2814 27.701 96.1995 27.6975C100.64 27.6975 103.54 24.6323 103.54 20.2511C103.537 19.8674 103.506 19.4845 103.446 19.1055C106.981 18.4326 109.202 15.5885 109.202 11.7356C109.217 10.7577 109.034 9.78681 108.666 8.88103C108.297 7.97525 107.751 7.1531 107.058 6.46363C106.366 5.77417 105.542 5.23153 104.636 4.86809C103.729 4.50465 102.759 4.32785 101.783 4.34826C101.396 4.35089 101.009 4.38147 100.627 4.43979C99.7991 3.06278 98.5499 1.99032 97.065 1.38206C95.58 0.773788 93.9387 0.662229 92.3854 1.06399C90.8321 1.46574 89.4498 2.35933 88.4443 3.61175C87.4387 4.86416 86.8637 6.40843 86.8048 8.0147C86.2347 7.88652 85.6522 7.82146 85.0679 7.82068C83.532 7.78741 82.0254 8.24439 80.7659 9.12556C79.5064 10.0067 78.5591 11.2664 78.0612 12.7225" fill="#E3EFF6"/>
<path d="M32.1738 18.9368V79.1725C55.4313 79.1725 77.7674 79.1725 87.2086 79.1725V17.092C87.2086 16.8477 87.1118 16.6134 86.9394 16.4407C86.767 16.2679 86.5331 16.1709 86.2893 16.1709H33.0931C32.8493 16.1709 32.6155 16.2679 32.4431 16.4407C32.2707 16.6134 32.1738 16.8477 32.1738 17.092V18.9368Z" fill="white"/>
<path d="M93.3176 58.7192C91.0254 58.4035 89.1539 59.3835 88.2658 60.49L87.209 62.4555V70.2649C89.2761 70.8774 90.9039 71.1064 92.1075 70.3204C92.9286 69.7836 93.3025 69.2526 93.3624 68.1136C93.4678 66.1042 91.6949 64.5486 91.7886 62.8491C91.8776 61.2352 92.309 59.8644 93.606 58.7651C93.5088 58.7483 93.413 58.7329 93.3176 58.7192Z" fill="white"/>
<path d="M32.1738 58.6506V79.1732H47.0428C47.0411 73.3993 47.0411 63.9854 47.0411 58.0281C47.041 57.968 47.0292 57.9085 47.0061 57.853C46.9831 57.7975 46.9493 57.7471 46.9068 57.7046C46.8643 57.6622 46.8138 57.6286 46.7583 57.6058C46.7028 57.583 46.6433 57.5713 46.5833 57.5715H32.1738V58.6506Z" fill="white"/>
<path d="M22.7073 49.7016C21.1404 51.6579 20.2044 55.302 21.293 57.44C22.1483 59.1196 23.2431 60.5017 23.5144 62.3682C23.7299 63.8604 23.1819 65.3686 23.2842 66.8728C23.3146 67.2933 23.3889 67.7096 23.5059 68.1147C23.8764 69.3312 24.6306 70.3946 25.6552 71.1454C26.6799 71.8962 27.9198 72.294 29.1892 72.2792C29.1892 72.2792 30.6018 72.2792 32.1725 72.2771V43.7022C32.5923 42.0297 30.2197 40.1314 28.0917 38.7688C27.1542 38.1686 23.9701 36.7501 22.4891 36.6394C24.2558 39.0996 26.3345 42.8075 24.3201 46.4348L22.7073 49.7016Z" fill="#1492D9"/>
<path d="M103.571 58.2471C104.617 56.0876 104.224 53.5091 103.441 51.2402L101.356 54.4491L95.6735 53.9164C98.1963 53.4567 98.9863 51.5673 99.1498 50.5608C99.4102 48.9583 98.8036 47.4466 98.0964 45.8383C97.0177 43.3846 97.1659 40.777 97.9288 38.188C96.4382 38.4307 94.5976 39.0611 93.8668 39.9266C92.6984 41.3108 92.1685 42.8677 92.461 44.6389C92.6013 45.4886 93.2137 46.9698 93.1688 47.8268C93.0686 49.7176 90.4216 50.7806 87.2074 50.9091V62.4555L88.2642 60.49C89.1537 59.3831 91.0241 58.4034 93.316 58.7191C93.4114 58.7322 93.5072 58.7476 93.604 58.7651C92.307 59.8644 91.8756 61.2352 91.7867 62.8487C91.6933 64.5492 93.4662 66.1051 93.3604 68.1135C93.3006 69.2526 92.9263 69.7836 92.1055 70.3204C90.903 71.1064 89.2741 70.8774 87.207 70.2648V75.4937L91.9283 75.4958C94.7573 75.1766 96.9575 74.5983 98.5415 73.1034C100.07 71.6607 101.377 69.9944 101.48 67.816C101.552 66.3101 100.972 64.8135 101.157 63.3173C101.387 61.4463 102.749 59.9439 103.571 58.2471Z" fill="#1492D9"/>
<path d="M79.621 32.894H62.1078C62.0477 32.894 61.9881 32.9058 61.9326 32.9289C61.877 32.952 61.8265 32.9858 61.784 33.0284C61.7415 33.0711 61.7079 33.1217 61.6849 33.1774C61.662 33.2331 61.6503 33.2928 61.6504 33.353V40.8223C61.6505 40.9385 61.6966 41.0498 61.7786 41.1319C61.8606 41.214 61.9717 41.2601 62.0876 41.2601H79.621C79.7423 41.2601 79.8586 41.2118 79.9444 41.126C80.0301 41.0401 80.0784 40.9236 80.0785 40.8021V33.353C80.0785 33.2928 80.0668 33.2331 80.0438 33.1774C80.0209 33.1218 79.9872 33.0711 79.9447 33.0285C79.9022 32.9859 79.8518 32.9521 79.7962 32.929C79.7407 32.9059 79.6812 32.894 79.621 32.894Z" fill="#1492D9"/>
<path d="M78.5222 16.1693C78.3758 15.0765 78.4963 13.9646 78.8733 12.9288C79.2504 11.893 79.8727 10.9644 80.6868 10.2226C81.4936 9.54612 82.4458 9.06604 83.4689 8.82001C84.4919 8.57397 85.5578 8.56867 86.5832 8.80452C86.705 8.83566 86.8323 8.8388 86.9554 8.81371C87.0786 8.78861 87.1945 8.73593 87.2945 8.6596C87.3944 8.58327 87.4759 8.48528 87.5327 8.37296C87.5895 8.26063 87.6203 8.13688 87.6226 8.01097C87.6454 6.96701 87.9166 5.94359 88.4137 5.02583C88.9108 4.10807 89.6195 3.3225 90.4807 2.73447C91.4629 2.1035 92.5881 1.73102 93.7522 1.65151C94.9162 1.572 96.0815 1.78802 97.1401 2.2796C98.3005 2.84067 99.2675 3.73579 99.9174 4.85049C99.9885 4.97575 100.092 5.07961 100.216 5.15125C100.341 5.22288 100.483 5.25965 100.627 5.25772C103.46 4.88065 106.254 6.01184 107.625 8.60947C108.843 10.914 108.611 14.1057 106.969 16.1528C106.017 17.2947 104.691 18.0594 103.227 18.3096C103.02 18.3723 102.845 18.5123 102.739 18.7006C102.632 18.889 102.601 19.1113 102.654 19.3215C102.962 21.5544 102.255 23.9368 100.553 25.4108C98.7395 26.9807 95.9574 27.2224 93.722 26.4439C93.5475 26.3955 93.362 26.4063 93.1942 26.4745C93.0265 26.5427 92.886 26.6645 92.7945 26.821C92.5214 27.4483 92.0768 27.9853 91.5121 28.3702C90.9473 28.7551 90.2854 28.972 89.6028 28.996C88.8077 29.0395 88.0044 29.0049 87.208 29.0049C86.1511 29.0049 86.1494 30.6502 87.208 30.6502C88.1891 30.694 89.172 30.6724 90.1502 30.5855C91.0205 30.4833 91.8504 30.1602 92.5613 29.6467C93.2721 29.1333 93.8404 28.4466 94.2122 27.6516L93.2851 28.0286C94.4259 28.4239 95.6342 28.5858 96.8386 28.5047C98.043 28.4236 99.2188 28.101 100.297 27.5563C101.183 27.076 101.965 26.4236 102.598 25.6371C103.23 24.8507 103.7 23.9459 103.979 22.9756C104.359 21.6467 104.448 20.2513 104.239 18.8848L103.666 19.8971C105.244 19.5907 106.689 18.8022 107.802 17.64C108.915 16.4777 109.642 14.9987 109.882 13.4061C110.41 10.0656 109.191 6.65697 106.283 4.79496C104.594 3.74945 102.593 3.33114 100.628 3.61303L101.337 4.0206C100.607 2.81501 99.5845 1.81422 98.3643 1.11151C97.1441 0.408802 95.7662 0.0270454 94.359 0.00182462C92.9519 -0.0233961 91.5612 0.30874 90.3167 0.967276C89.0723 1.62581 88.0144 2.58931 87.2418 3.76797C86.4533 5.04508 86.0186 6.50965 85.9825 8.01097L87.0218 7.21776C85.7346 6.91988 84.396 6.92436 83.1108 7.23084C81.8256 7.53733 80.6285 8.13752 79.6132 8.98448C78.6151 9.87396 77.8458 10.9914 77.3703 12.2421C76.8949 13.4928 76.7274 14.8399 76.882 16.1693C76.8881 16.3855 76.9765 16.5913 77.1292 16.7443C77.2819 16.8973 77.4873 16.9859 77.7031 16.992C77.9204 16.9905 78.1285 16.9034 78.2821 16.7494C78.4358 16.5954 78.5228 16.387 78.5242 16.1693H78.5222Z" fill="#AFD1E4"/>
<path d="M87.5718 51.7133C89.0299 51.6607 90.4641 51.3261 91.7953 50.7278C92.7744 50.2479 93.7197 49.4211 93.9329 48.3002C94.1764 47.0171 93.5298 45.7879 93.2801 44.5573C93.1662 43.8968 93.192 43.2198 93.3556 42.5699C93.5193 41.9201 93.8172 41.3118 94.2302 40.7846C95.0985 39.5999 96.7773 39.2129 98.1488 38.9815L97.1389 37.9693C96.3612 40.6523 96.2128 43.495 97.326 46.106C97.8351 47.3002 98.4119 48.5415 98.3907 49.8681C98.3869 50.2254 98.3283 50.5799 98.2169 50.9194C98.1947 50.9879 98.1697 51.0565 98.1444 51.1223C98.1102 51.2094 98.1495 51.1131 98.155 51.1C98.1345 51.1473 98.1126 51.1953 98.0896 51.2416C98.0105 51.4023 97.9217 51.5581 97.8238 51.7081C97.2519 52.474 96.4013 52.9826 95.457 53.1231C95.2481 53.1829 95.071 53.3224 94.9638 53.5116C94.8565 53.7009 94.8277 53.9247 94.8836 54.1351C94.9453 54.343 95.0848 54.519 95.2731 54.6261C95.4614 54.7332 95.6837 54.7631 95.8936 54.7096C96.8367 54.549 97.7141 54.1205 98.4214 53.4751C99.1287 52.8297 99.6362 51.9944 99.8837 51.0685C100.145 49.7828 100.027 48.4487 99.5437 47.2293C99.0623 45.8602 98.3654 44.6042 98.2025 43.1378C98.0624 41.5421 98.239 39.9343 98.7222 38.4074C98.7574 38.2675 98.7558 38.1209 98.7176 37.9819C98.6793 37.8429 98.6057 37.7162 98.5039 37.6142C98.4021 37.5122 98.2757 37.4384 98.1369 37.4001C97.9982 37.3618 97.8518 37.3602 97.7123 37.3955C96.3695 37.6224 94.9199 38.0371 93.8189 38.8694C92.6727 39.8147 91.907 41.144 91.6636 42.6113C91.536 43.37 91.5414 44.1453 91.6796 44.9021C91.7895 45.5089 92.0023 46.095 92.1617 46.6894C92.2329 46.936 92.29 47.1864 92.3328 47.4394C92.3493 47.5677 92.3545 47.6972 92.3485 47.8264C92.3485 47.8473 92.328 47.9872 92.3485 47.8607C92.3372 47.9293 92.3163 47.9978 92.2996 48.0647C92.1782 48.3938 91.9612 48.6789 91.6766 48.8832C90.5431 49.7447 88.9481 49.9729 87.5711 50.0658C87.3549 50.0707 87.1488 50.159 86.9959 50.3122C86.8429 50.4654 86.7549 50.6719 86.75 50.8885C86.7519 51.1061 86.839 51.3143 86.9926 51.4682C87.1461 51.6221 87.3539 51.7093 87.5711 51.7112L87.5718 51.7133Z" fill="#0A7BBB"/>
<path d="M25.0297 46.8502C25.9903 45.0618 26.2138 42.9676 25.6523 41.016C25.1234 39.2862 24.2929 37.6639 23.1993 36.2242L22.4904 37.462C22.5041 37.462 22.7398 37.4942 22.579 37.4699C22.6639 37.4829 22.7501 37.4997 22.8332 37.5172C23.0043 37.5515 23.1754 37.5954 23.3433 37.642C23.7258 37.7469 24.1025 37.872 24.4751 38.0064C25.219 38.2753 25.9482 38.5836 26.6595 38.9298C27.3187 39.2563 27.951 39.6345 28.5504 40.061C29.4385 40.6315 30.2316 41.3381 30.9008 42.1551C31.0153 42.3385 31.1953 42.4711 31.4042 42.526C31.613 42.5808 31.8348 42.5537 32.0243 42.4502C32.2112 42.339 32.3468 42.1585 32.402 41.9479C32.4571 41.7372 32.4273 41.5133 32.3189 41.3245C31.0256 39.6948 29.372 38.3886 27.4885 37.509C25.9448 36.7583 24.2202 35.9664 22.4904 35.8167C22.3463 35.8179 22.2051 35.8569 22.0807 35.9298C21.9563 36.0026 21.8531 36.1069 21.7814 36.2321C21.7096 36.3574 21.6719 36.4992 21.6719 36.6436C21.6718 36.788 21.7095 36.9299 21.7812 37.0551C23.6287 39.6391 25.2852 42.9233 23.6126 46.02C23.1093 46.9514 24.5267 47.783 25.0307 46.8506L25.0297 46.8502Z" fill="#0A7BBB"/>
<path d="M29.6005 60.3433C29.6969 61.0321 29.9826 61.6805 30.4257 62.2159C30.8366 62.6791 31.366 63.0209 31.9567 63.2045C32.1667 63.2625 32.3911 63.2345 32.5805 63.1268C32.77 63.019 32.9089 62.8402 32.9668 62.6298C33.0247 62.4194 32.9968 62.1946 32.8892 62.0048C32.7817 61.815 32.6032 61.6757 32.3932 61.6177C32.3228 61.5937 32.2536 61.5674 32.1852 61.5389L32.3813 61.6219C32.1722 61.5339 31.9749 61.4202 31.7938 61.2835L31.9601 61.4121C31.8014 61.2885 31.6585 61.1457 31.5349 60.987L31.6631 61.1536C31.5328 60.9814 31.424 60.7939 31.3392 60.5952L31.4216 60.792C31.3053 60.5079 31.2255 60.2101 31.1842 59.9059C31.1274 59.6991 30.9924 59.5228 30.8078 59.4143C30.7147 59.3598 30.6118 59.3241 30.5049 59.3094C30.3981 59.2947 30.2894 59.3012 30.185 59.3287C30.0807 59.3561 29.9828 59.4038 29.8969 59.4691C29.8109 59.5345 29.7387 59.6161 29.6843 59.7095L29.6015 59.9059C29.5625 60.049 29.5625 60.2001 29.6015 60.3433H29.6005Z" fill="#0A7BBB"/>
<path d="M102.069 54.8645C102.762 53.7939 103.456 52.7247 104.152 51.6568L102.651 51.46C103.145 52.779 103.392 54.178 103.379 55.5868C103.328 56.9579 102.778 58.0771 102.079 59.2262C101.395 60.3515 100.648 61.5112 100.407 62.8288C100.13 64.3391 100.596 65.7723 100.657 67.2734C100.689 68.5264 100.3 69.7537 99.5504 70.7575C98.8997 71.7145 98.0713 72.5372 97.1104 73.1806C96.1075 73.7739 95.005 74.1791 93.8571 74.3763C93.0016 74.5633 92.1295 74.6637 91.2539 74.6758H87.209C86.1525 74.6758 86.1508 76.3212 87.209 76.3212H91.0192C93.1979 76.3549 95.3552 75.8858 97.3238 74.9501C98.443 74.3431 99.432 73.5215 100.235 72.5321C101.157 71.5248 101.815 70.3031 102.149 68.9774C102.486 67.415 102.064 65.9561 101.96 64.4015C101.863 62.9581 102.442 61.7964 103.171 60.5932C103.601 59.928 103.992 59.2383 104.342 58.5276C104.699 57.735 104.919 56.8873 104.992 56.0208C105.091 54.3197 104.833 52.6168 104.233 51.0223C104.186 50.8697 104.096 50.734 103.974 50.6311C103.852 50.5282 103.703 50.4625 103.545 50.4418C103.387 50.4212 103.227 50.4464 103.083 50.5144C102.938 50.5825 102.817 50.6906 102.732 50.8258C102.034 51.8928 101.34 52.9621 100.65 54.0336C100.073 54.9249 101.494 55.7507 102.068 54.8642L102.069 54.8645Z" fill="#0A7BBB"/>
<path d="M88.8465 61.0724C89.9317 59.7558 91.7442 59.2783 93.3875 59.5594L93.0251 58.1841C92.147 58.945 91.5193 59.9545 91.2246 61.0796C90.8977 62.127 90.8922 63.2486 91.2088 64.2991C91.5639 65.2983 92.188 66.1919 92.4507 67.2244C92.669 68.0814 92.5571 68.9695 91.8872 69.4796C90.8971 70.2337 89.6128 70.0212 88.4842 69.7576C87.4578 69.5176 87.0171 71.1034 88.0476 71.344C89.3039 71.6374 90.6837 71.8407 91.9136 71.3371C92.4323 71.1484 92.8984 70.8379 93.2729 70.4318C93.6474 70.0256 93.9194 69.5355 94.0662 69.0024C94.3581 67.7341 94.0344 66.5416 93.499 65.3898C93.0542 64.4362 92.538 63.5984 92.6317 62.5258C92.6661 61.9191 92.8213 61.3253 93.0881 60.7795C93.3549 60.2337 93.728 59.7468 94.1853 59.3475C94.2856 59.2452 94.3576 59.1185 94.3943 58.9799C94.4309 58.8413 94.431 58.6955 94.3945 58.5568C94.3579 58.4182 94.286 58.2914 94.1859 58.189C94.0857 58.0866 93.9606 58.012 93.823 57.9726C91.6375 57.599 89.1534 58.1262 87.6843 59.909C87.5358 60.0662 87.4531 60.2743 87.4531 60.4907C87.4531 60.7071 87.5358 60.9153 87.6843 61.0724C87.839 61.2252 88.0476 61.3108 88.2649 61.3108C88.4821 61.3108 88.6907 61.2252 88.8454 61.0724H88.8465Z" fill="#0A7BBB"/>
<path d="M22.1301 49.1213C20.7438 50.886 19.9932 53.0682 20 55.314C20.0273 56.416 20.3356 57.4926 20.8957 58.4413C21.4773 59.4905 22.167 60.5086 22.5157 61.6679C22.9142 62.9924 22.6272 64.2858 22.4962 65.6274C22.3513 66.9492 22.5842 68.285 23.1678 69.4793C23.6826 70.4593 24.4297 71.2976 25.3435 71.9207C26.2572 72.5439 27.3096 72.9327 28.4084 73.0532C29.6431 73.2054 30.9319 73.1039 32.1734 73.1039C33.2303 73.1039 33.232 71.4586 32.1734 71.4586C31.1888 71.4586 30.2042 71.4661 29.2196 71.4586C28.5215 71.4797 27.8269 71.3535 27.1807 71.0882C26.5345 70.8228 25.9512 70.4243 25.4688 69.9184C24.9863 69.4125 24.6154 68.8107 24.3802 68.1518C24.145 67.493 24.0507 66.792 24.1035 66.0943C24.1681 64.8459 24.4918 63.6232 24.3344 62.3679C24.1386 61.1475 23.707 59.9772 23.0638 58.9225C22.5755 58.0522 21.9491 57.2021 21.7373 56.2234C21.5587 55.1852 21.629 54.1193 21.9426 53.1137C22.201 52.0902 22.6594 51.1282 23.2913 50.2833C23.4391 50.1258 23.5214 49.9178 23.5214 49.7016C23.5214 49.4854 23.4391 49.2774 23.2913 49.1199C23.1365 48.967 22.928 48.8813 22.7107 48.8813C22.4934 48.8813 22.2848 48.967 22.1301 49.1199V49.1213Z" fill="#0A7BBB"/>
<path d="M79.6198 32.0713H62.7683C62.0957 32.0713 61.3707 32.0216 60.9865 32.7353C60.8448 33.0651 60.7902 33.426 60.8281 33.7832V40.2183C60.8042 40.5249 60.8292 40.8334 60.902 41.1322C61.2003 42.0426 62.0361 42.082 62.8114 42.082H78.5582C78.9103 42.082 79.2671 42.0988 79.6188 42.082C79.7937 42.0765 79.9657 42.0363 80.1249 41.9637C80.2842 41.8911 80.4274 41.7875 80.5464 41.659C80.6654 41.5305 80.7577 41.3796 80.8181 41.2151C80.8784 41.0506 80.9056 40.8757 80.898 40.7006C80.9072 40.3835 80.898 40.0644 80.898 39.7473C80.898 37.6515 80.9548 35.5475 80.898 33.4527C80.9101 33.1 80.7824 32.7568 80.5429 32.498C80.3034 32.2392 79.9718 32.0858 79.6198 32.0713C79.4024 32.0725 79.1939 32.1595 79.0402 32.3136C78.8865 32.4676 78.7996 32.6762 78.7984 32.894C78.8034 33.1106 78.8915 33.317 79.0444 33.4702C79.1973 33.6234 79.4033 33.7117 79.6195 33.7167C79.0495 33.6509 79.2917 33.1339 79.2558 33.4767C79.2492 33.6064 79.2492 33.7364 79.2558 33.8661V40.1179C79.2259 40.3411 79.2259 40.5674 79.2558 40.7907C79.3109 40.9566 79.7817 40.4915 79.5979 40.4377C79.5498 40.433 79.5014 40.433 79.4532 40.4377C79.2517 40.4233 79.0427 40.4377 78.8415 40.4377H62.7142C62.5666 40.4185 62.4171 40.4185 62.2695 40.4377C62.1668 40.4702 62.2671 40.3544 62.3037 40.4754C62.3057 40.4819 62.68 40.5964 62.4689 40.6927C62.4689 40.6927 62.4689 40.6745 62.4689 40.6732C62.4816 40.6588 62.4669 40.5871 62.4689 40.5686C62.4847 40.2546 62.4847 39.94 62.4689 39.626V33.5309C62.477 33.4733 62.477 33.415 62.4689 33.3574C62.551 33.595 61.9249 33.6611 62.1401 33.7167C62.2834 33.7328 62.428 33.7328 62.5712 33.7167H79.6185C80.6763 33.7167 80.6784 32.0713 79.6198 32.0713Z" fill="#0A7BBB"/>
<path d="M32.9942 79.1714V18.473C32.9605 18.0341 32.9605 17.5932 32.9942 17.1543C33.0325 16.9185 33.2901 16.9935 33.5173 16.9935H85.9136C86.0343 16.9779 86.1564 16.9779 86.277 16.9935C86.4107 17.0354 86.3724 17.0672 86.3868 17.1742C86.4166 17.63 86.4166 18.0872 86.3868 18.5429V79.1714C86.3868 80.2303 88.029 80.232 88.029 79.1714V20.9709C88.029 19.6882 88.0731 18.3966 88.029 17.1145C88.0249 16.6497 87.8397 16.2049 87.5129 15.8749C87.1861 15.5449 86.7436 15.3559 86.2797 15.3482C86.1579 15.3437 86.0351 15.3482 85.9136 15.3482H33.4212C33.3131 15.3482 33.2043 15.3441 33.0962 15.3482C32.6309 15.3571 32.1876 15.5484 31.8614 15.881C31.5353 16.2136 31.3521 16.661 31.3513 17.1272C31.3387 17.5341 31.3513 17.9437 31.3513 18.3506V79.1714C31.3513 80.2303 32.9935 80.232 32.9935 79.1714H32.9942Z" fill="#726A69"/>
<path d="M36.9532 22.6527H82.4249C83.4814 22.6527 83.4831 21.0073 82.4249 21.0073H36.9532C35.8967 21.0073 35.895 22.6527 36.9532 22.6527Z" fill="#726A69"/>
<path d="M32.1722 58.3942H45.5556C45.8416 58.4382 46.1325 58.4382 46.4185 58.3942C46.5437 58.3401 46.089 58.2492 46.218 58.1618C46.2108 58.2173 46.2108 58.2736 46.218 58.3291V72.6729C46.218 74.804 46.1608 76.9437 46.218 79.0741C46.218 79.1084 46.218 79.1427 46.218 79.177C46.218 80.2358 47.8602 80.2375 47.8602 79.177V59.6142C47.9152 59.0149 47.9014 58.4113 47.8191 57.8152C47.4989 56.5109 45.9942 56.7488 44.986 56.7488H40.4652C37.7546 56.7488 35.0395 56.7053 32.3289 56.7488C32.2765 56.7488 32.2242 56.7488 32.1722 56.7488C31.1153 56.7488 31.1136 58.3942 32.1722 58.3942Z" fill="#726A69"/>
<path d="M91.9284 78.3547H26.7931C25.7367 78.3547 25.7346 80.0001 26.7931 80.0001H91.9284C92.9852 80.0001 92.9869 78.3547 91.9284 78.3547Z" fill="#726A69"/>
</g>
<defs>
<clipPath id="clip0_1621_24727">
<rect width="90" height="80" fill="white" transform="translate(20)"/>
</clipPath>
</defs>
</svg>
