<svg width="100" height="80" viewBox="0 0 100 80" fill="none" xmlns="http://www.w3.org/2000/svg">
<mask id="mask0_1621_25697" style="mask-type:alpha" maskUnits="userSpaceOnUse" x="0" y="0" width="100" height="80">
<path d="M0 0H100V80H0V0Z" fill="#D9D9D9"/>
</mask>
<g mask="url(#mask0_1621_25697)">
<path d="M60.8965 17.4948C60.6711 18.1544 60.5566 18.847 60.5578 19.5442C60.5163 21.1488 61.0918 22.7079 62.1653 23.8994H60.2307C59.7262 23.8893 59.2249 23.9811 58.7565 24.1692C58.2881 24.3573 57.8623 24.6379 57.5044 24.9943C57.1465 25.3507 56.8639 25.7756 56.6733 26.2438C56.4826 26.7119 56.388 27.2136 56.3949 27.7191C56.3949 30.0234 57.9964 31.6105 60.231 31.6105H70.1544C71.8197 31.6105 73.0648 30.7839 73.6389 29.4736C74.3533 29.7258 75.1056 29.8532 75.863 29.8503C79.5264 29.8503 81.9188 27.3215 81.9188 23.707C81.9166 23.3905 81.8908 23.0746 81.8414 22.7619C84.7577 22.2068 86.5903 19.8604 86.5903 16.6817C86.6022 15.8749 86.4516 15.0739 86.1477 14.3266C85.8438 13.5794 85.3928 12.9011 84.8216 12.3323C84.2503 11.7635 83.5706 11.3158 82.8229 11.0159C82.0752 10.7161 81.2749 10.5702 80.4697 10.5871C80.1502 10.5892 79.8313 10.6145 79.5154 10.6626C78.8327 9.52654 77.8021 8.64176 76.577 8.13993C75.3519 7.63811 73.9979 7.54607 72.7164 7.87752C71.4349 8.20897 70.2945 8.94619 69.4649 9.97944C68.6353 11.0127 68.1609 12.2867 68.1123 13.6119C67.642 13.5062 67.1614 13.4525 66.6793 13.4518C65.4123 13.4244 64.1693 13.8014 63.1302 14.5284C62.091 15.2554 61.3096 16.2946 60.8988 17.4959" fill="#E3EFF6"/>
<path d="M23.043 22.6227V72.3176C42.2305 72.3176 60.658 72.3176 68.4471 72.3176V21.1007C68.4471 20.8992 68.3672 20.7059 68.2249 20.5634C68.0827 20.4209 67.8898 20.3408 67.6887 20.3408H23.8014C23.6002 20.3408 23.4073 20.4209 23.2651 20.5634C23.1229 20.7059 23.043 20.8992 23.043 21.1007V22.6227Z" fill="white"/>
<path d="M73.4888 55.4431C71.5978 55.1826 70.0538 55.9911 69.3211 56.904L68.4492 58.5256V64.9683C70.1546 65.4737 71.4976 65.6626 72.4905 65.0142C73.1679 64.5713 73.4764 64.1332 73.5258 63.1935C73.6128 61.5357 72.1501 60.2524 72.2275 58.8502C72.3008 57.5188 72.6568 56.3879 73.7268 55.481C73.6466 55.4671 73.5676 55.4544 73.4888 55.4431Z" fill="white"/>
<path d="M23.043 55.3868V72.3181H35.31C35.3086 67.5546 35.3086 59.7881 35.3086 54.8733C35.3085 54.8237 35.2987 54.7746 35.2797 54.7288C35.2607 54.683 35.2329 54.6414 35.1978 54.6064C35.1627 54.5714 35.1211 54.5437 35.0753 54.5248C35.0295 54.506 34.9804 54.4964 34.9309 54.4966H23.043V55.3868Z" fill="white"/>
<path d="M15.2349 48.0039C13.9422 49.6179 13.1699 52.6243 14.0681 54.3882C14.7737 55.7739 15.6769 56.9141 15.9007 58.454C16.0785 59.685 15.6264 60.9293 15.7108 62.1703C15.7359 62.5173 15.7972 62.8607 15.8937 63.1949C16.1994 64.1985 16.8216 65.0758 17.6669 65.6952C18.5123 66.3147 19.5352 66.6429 20.5825 66.6306C20.5825 66.6306 21.7479 66.6306 23.0437 66.6289V43.0544C23.39 41.6746 21.4326 40.1084 19.677 38.9843C18.9036 38.4891 16.2767 37.3189 15.0548 37.2275C16.5124 39.2572 18.2273 42.3163 16.5654 45.3089L15.2349 48.0039Z" fill="#1492D9"/>
<path d="M81.9474 55.0538C82.8106 53.2722 82.4863 51.1449 81.8402 49.2731L80.1204 51.9204L75.4322 51.4809C77.5135 51.1017 78.1652 49.5429 78.3002 48.7126C78.515 47.3905 78.0145 46.1433 77.4311 44.8164C76.5412 42.7921 76.6634 40.6409 77.2928 38.5049C76.063 38.7051 74.5445 39.2252 73.9416 39.9392C72.9777 41.0812 72.5405 42.3657 72.7818 43.8269C72.8976 44.528 73.4028 45.75 73.3658 46.457C73.2831 48.0169 71.0993 48.8939 68.4475 48.9999V58.5258L69.3194 56.9042C70.0533 55.991 71.5964 55.1828 73.4872 55.4432C73.5659 55.454 73.645 55.4667 73.7248 55.4811C72.6548 56.3881 72.2989 57.519 72.2255 58.8501C72.1485 60.2531 73.6111 61.5367 73.5239 63.1937C73.4745 64.1334 73.1657 64.5715 72.4886 65.0143C71.4964 65.6628 70.1526 65.4739 68.4473 64.9685V69.2824L72.3424 69.2841C74.6763 69.0208 76.4915 68.5437 77.7983 67.3104C79.0597 66.1201 80.1376 64.7454 80.2226 62.9482C80.2816 61.7059 79.8037 60.4711 79.9559 59.2367C80.1458 57.6932 81.2697 56.4537 81.9474 55.0538Z" fill="#1492D9"/>
<path d="M68.7483 49.6633C69.9512 49.6199 71.1344 49.3439 72.2327 48.8502C73.0405 48.4543 73.8204 47.7722 73.9962 46.8474C74.1972 45.7889 73.6637 44.7748 73.4577 43.7595C73.3637 43.2147 73.385 42.6561 73.52 42.12C73.655 41.5838 73.9008 41.082 74.2415 40.647C74.9579 39.6697 76.3429 39.3504 77.4744 39.1595L76.6412 38.3244C75.9997 40.5379 75.8772 42.8831 76.7956 45.0372C77.2156 46.0225 77.6915 47.0465 77.674 48.141C77.6709 48.4357 77.6225 48.7283 77.5306 49.0083C77.5122 49.0649 77.4916 49.1214 77.4708 49.1757C77.4425 49.2476 77.475 49.1681 77.4795 49.1574C77.4626 49.1964 77.4445 49.236 77.4256 49.2741C77.3603 49.4068 77.2871 49.5353 77.2063 49.659C76.7345 50.2909 76.0327 50.7105 75.2537 50.8264C75.0813 50.8757 74.9352 50.9908 74.8467 51.1469C74.7583 51.3031 74.7345 51.4878 74.7806 51.6613C74.8315 51.8328 74.9466 51.978 75.1019 52.0664C75.2573 52.1547 75.4407 52.1794 75.6138 52.1352C76.3919 52.0028 77.1158 51.6493 77.6993 51.1168C78.2828 50.5843 78.7016 49.8952 78.9057 49.1313C79.1213 48.0707 79.0238 46.97 78.6252 45.964C78.228 44.8345 77.6531 43.7983 77.5187 42.5885C77.4031 41.272 77.5488 39.9456 77.9475 38.6858C77.9765 38.5704 77.9752 38.4495 77.9437 38.3348C77.9121 38.2201 77.8513 38.1156 77.7674 38.0314C77.6834 37.9473 77.5791 37.8864 77.4646 37.8548C77.3501 37.8232 77.2294 37.8219 77.1143 37.851C76.0064 38.0382 74.8105 38.3804 73.9022 39.067C72.9566 39.8469 72.3249 40.9435 72.124 42.1541C72.0188 42.78 72.0233 43.4196 72.1373 44.044C72.2279 44.5446 72.4035 45.0282 72.535 45.5186C72.5937 45.722 72.6408 45.9286 72.6761 46.1373C72.6898 46.2432 72.6941 46.35 72.6891 46.4566C72.6891 46.4739 72.6722 46.5892 72.6891 46.4849C72.6798 46.5414 72.6626 46.598 72.6487 46.6532C72.5486 46.9247 72.3696 47.1599 72.1348 47.3285C71.1997 48.0392 69.8838 48.2275 68.7477 48.3041C68.5693 48.3082 68.3994 48.381 68.2732 48.5074C68.147 48.6338 68.0743 48.8041 68.0703 48.9829C68.0719 49.1624 68.1437 49.3341 68.2704 49.4611C68.3971 49.588 68.5685 49.66 68.7477 49.6616L68.7483 49.6633Z" fill="#0A7BBB"/>
<path d="M69.796 57.3849C70.6913 56.2987 72.1867 55.9047 73.5423 56.1366L73.2434 55.002C72.519 55.6298 72.0011 56.4626 71.7579 57.3909C71.4883 58.2549 71.4838 59.1802 71.745 60.0469C72.0379 60.8713 72.5528 61.6086 72.7695 62.4604C72.9496 63.1674 72.8573 63.9001 72.3047 64.3209C71.4878 64.9431 70.4282 64.7677 69.4971 64.5502C68.6503 64.3523 68.2868 65.6605 69.1369 65.8591C70.1734 66.1011 71.3117 66.2688 72.3264 65.8534C72.7544 65.6977 73.1389 65.4415 73.4479 65.1064C73.7568 64.7713 73.9812 64.367 74.1023 63.9272C74.3431 62.8809 74.0761 61.897 73.6344 60.9468C73.2674 60.16 72.8415 59.4689 72.9189 58.584C72.9473 58.0834 73.0753 57.5935 73.2954 57.1432C73.5155 56.6929 73.8233 56.2913 74.2006 55.9619C74.2833 55.8775 74.3427 55.7729 74.373 55.6586C74.4032 55.5442 74.4033 55.4239 74.3731 55.3095C74.343 55.1951 74.2837 55.0906 74.201 55.0061C74.1184 54.9216 74.0152 54.86 73.9017 54.8276C72.0986 54.5193 70.0492 54.9543 68.8372 56.4251C68.7147 56.5548 68.6465 56.7265 68.6465 56.905C68.6465 57.0835 68.7147 57.2553 68.8372 57.3849C68.9649 57.511 69.1369 57.5816 69.3162 57.5816C69.4954 57.5816 69.6675 57.511 69.7952 57.3849H69.796Z" fill="#0A7BBB"/>
<path d="M80.7088 52.2632C81.2801 51.3799 81.8528 50.4978 82.4269 49.6168L81.1886 49.4544C81.5964 50.5426 81.8002 51.6968 81.7899 52.8591C81.7472 53.9903 81.2939 54.9136 80.7173 55.8616C80.1528 56.79 79.5366 57.7467 79.3373 58.8338C79.109 60.0798 79.4932 61.2622 79.544 62.5006C79.5706 63.5343 79.2489 64.5469 78.6309 65.375C78.0941 66.1646 77.4106 66.8433 76.6178 67.3741C75.7905 67.8636 74.8809 68.1979 73.9339 68.3605C73.2281 68.5148 72.5086 68.5976 71.7862 68.6077H68.4491C67.5776 68.6077 67.5761 69.9651 68.4491 69.9651H71.5926C73.3901 69.9929 75.1698 69.6059 76.794 68.8339C77.7173 68.3332 78.5332 67.6554 79.1954 66.839C79.9566 66.008 80.4993 65.0001 80.7746 63.9064C81.0526 62.6174 80.7043 61.4138 80.6185 60.1313C80.5389 58.9404 81.0168 57.982 81.6177 56.9894C81.9725 56.4406 82.2952 55.8715 82.5841 55.2852C82.8787 54.6313 83.06 53.932 83.1204 53.2171C83.2021 51.8137 82.9888 50.4088 82.4941 49.0933C82.4552 48.9675 82.381 48.8555 82.2805 48.7706C82.1799 48.6857 82.0572 48.6315 81.9268 48.6144C81.7964 48.5974 81.6639 48.6182 81.545 48.6743C81.426 48.7305 81.3257 48.8196 81.2558 48.9312C80.6802 49.8115 80.1075 50.6937 79.5378 51.5777C79.0622 52.313 80.2346 52.9942 80.7077 52.2629L80.7088 52.2632Z" fill="#0A7BBB"/>
<path d="M14.7573 47.5253C13.6136 48.9812 12.9944 50.7816 13 52.6344C13.0225 53.5435 13.2769 54.4317 13.739 55.2144C14.2188 56.0801 14.7878 56.92 15.0754 57.8764C15.4043 58.9691 15.1675 60.0362 15.0594 61.143C14.9398 62.2335 15.132 63.3356 15.6134 64.3209C16.0382 65.1293 16.6546 65.821 17.4084 66.3351C18.1622 66.8492 19.0305 67.17 19.937 67.2694C20.9556 67.3949 22.0189 67.3112 23.0432 67.3112C23.9151 67.3112 23.9165 65.9538 23.0432 65.9538C22.2308 65.9538 21.4185 65.96 20.6062 65.9538C20.0303 65.9712 19.4572 65.8671 18.9241 65.6482C18.391 65.4293 17.9098 65.1005 17.5118 64.6831C17.1137 64.2658 16.8078 63.7692 16.6137 63.2257C16.4197 62.6822 16.3419 62.1038 16.3854 61.5282C16.4387 60.4983 16.7057 59.4895 16.5759 58.4539C16.4144 57.4471 16.0583 56.4816 15.5276 55.6115C15.1248 54.8934 14.608 54.1921 14.4333 53.3847C14.2859 52.5281 14.344 51.6488 14.6027 50.8191C14.8159 49.9747 15.194 49.1811 15.7153 48.484C15.8373 48.3541 15.9052 48.1825 15.9052 48.0041C15.9052 47.8258 15.8373 47.6541 15.7153 47.5242C15.5877 47.3981 15.4156 47.3274 15.2363 47.3274C15.0571 47.3274 14.885 47.3981 14.7573 47.5242V47.5253Z" fill="#0A7BBB"/>
<path d="M62.1853 34.1375H47.7368C47.6871 34.1374 47.638 34.1472 47.5922 34.1662C47.5463 34.1852 47.5047 34.2131 47.4696 34.2483C47.4346 34.2835 47.4068 34.3253 47.3879 34.3712C47.3689 34.4172 47.3593 34.4664 47.3594 34.5161V40.6783C47.3595 40.7742 47.3975 40.866 47.4651 40.9337C47.5328 41.0014 47.6245 41.0395 47.7201 41.0395H62.1853C62.2853 41.0395 62.3813 40.9997 62.452 40.9288C62.5228 40.858 62.5626 40.7619 62.5627 40.6617V34.5161C62.5627 34.4664 62.553 34.4172 62.5341 34.3713C62.5152 34.3253 62.4874 34.2836 62.4523 34.2484C62.4173 34.2132 62.3757 34.1853 62.3298 34.1663C62.284 34.1473 62.2349 34.1375 62.1853 34.1375Z" fill="#1492D9"/>
<path d="M61.2781 20.3394C61.1574 19.4379 61.2568 18.5205 61.5678 17.6659C61.8789 16.8114 62.3923 16.0453 63.0639 15.4333C63.7296 14.8752 64.5152 14.4791 65.3592 14.2762C66.2032 14.0732 67.0826 14.0688 67.9286 14.2634C68.029 14.2891 68.134 14.2917 68.2356 14.271C68.3372 14.2503 68.4329 14.2068 68.5153 14.1438C68.5978 14.0809 68.665 14 68.7119 13.9073C68.7588 13.8147 68.7841 13.7126 68.786 13.6087C68.8048 12.7474 69.0286 11.9031 69.4387 11.1459C69.8488 10.3888 70.4335 9.74068 71.144 9.25556C71.9543 8.735 72.8826 8.4277 73.843 8.3621C74.8034 8.29651 75.7647 8.47473 76.638 8.88028C77.5954 9.34317 78.3932 10.0817 78.9294 11.0013C78.988 11.1046 79.0732 11.1903 79.1761 11.2494C79.279 11.3085 79.3959 11.3388 79.5145 11.3373C81.8521 11.0262 84.1567 11.9594 85.2885 14.1025C86.2931 16.0037 86.1014 18.6369 84.7466 20.3258C83.9618 21.2679 82.8675 21.8988 81.6602 22.1052C81.4894 22.1569 81.345 22.2724 81.2569 22.4278C81.1688 22.5832 81.1437 22.7666 81.1868 22.94C81.4409 24.7822 80.858 26.7476 79.4535 27.9637C77.9576 29.2589 75.6623 29.4583 73.8181 28.816C73.6741 28.7761 73.5211 28.785 73.3827 28.8412C73.2443 28.8975 73.1284 28.998 73.0529 29.1271C72.8276 29.6446 72.4608 30.0877 71.9949 30.4052C71.5289 30.7227 70.9829 30.9017 70.4197 30.9215C69.7638 30.9574 69.101 30.9288 68.444 30.9288C67.5721 30.9288 67.5707 32.2863 68.444 32.2863C69.2534 32.3224 70.0643 32.3045 70.8713 32.2328C71.5894 32.1485 72.274 31.882 72.8605 31.4584C73.4469 31.0348 73.9157 30.4682 74.2225 29.8123L73.4576 30.1234C74.3988 30.4496 75.3957 30.5831 76.3893 30.5162C77.3829 30.4493 78.353 30.1832 79.2421 29.7337C79.9736 29.3375 80.619 28.7993 81.1406 28.1504C81.6623 27.5016 82.0497 26.7551 82.2803 25.9547C82.5937 24.8583 82.6669 23.707 82.4948 22.5797L82.0218 23.4148C83.3238 23.162 84.5159 22.5116 85.4342 21.5527C86.3525 20.5938 86.952 19.3737 87.1503 18.0597C87.5858 15.3038 86.5801 12.4916 84.1807 10.9555C82.7878 10.0929 81.1368 9.74782 79.5159 9.98038L80.1007 10.3166C79.4985 9.322 78.6547 8.49634 77.648 7.9166C76.6413 7.33686 75.5046 7.02191 74.3436 7.0011C73.1827 6.9803 72.0354 7.25431 71.0087 7.79761C69.982 8.3409 69.1093 9.1358 68.4719 10.1082C67.8213 11.1618 67.4627 12.3701 67.4329 13.6087L68.2904 12.9543C67.2284 12.7086 66.1241 12.7122 65.0638 12.9651C64.0034 13.218 63.0158 13.7131 62.1782 14.4119C61.3548 15.1457 60.7201 16.0676 60.3279 17.0994C59.9356 18.1313 59.7974 19.2426 59.925 20.3394C59.93 20.5178 60.0029 20.6875 60.1289 20.8138C60.2549 20.94 60.4243 21.0131 60.6024 21.0181C60.7817 21.0169 60.9533 20.945 61.0801 20.818C61.2069 20.691 61.2786 20.519 61.2798 20.3394H61.2781Z" fill="#AFD1E4"/>
<path d="M17.1472 45.6511C17.9397 44.1756 18.1241 42.4479 17.6609 40.8379C17.2244 39.4107 16.5393 38.0723 15.6371 36.8846L15.0523 37.9058C15.0636 37.9058 15.258 37.9324 15.1254 37.9123C15.1954 37.923 15.2665 37.9369 15.3351 37.9513C15.4762 37.9796 15.6173 38.0158 15.7559 38.0543C16.0715 38.1408 16.3822 38.244 16.6896 38.3549C17.3033 38.5768 17.9049 38.8311 18.4918 39.1167C19.0356 39.386 19.5572 39.6981 20.0518 40.05C20.7845 40.5206 21.4388 41.1036 21.9909 41.7776C22.0854 41.9289 22.2339 42.0383 22.4062 42.0836C22.5784 42.1288 22.7614 42.1065 22.9178 42.0211C23.072 41.9293 23.1839 41.7804 23.2294 41.6067C23.2748 41.4329 23.2502 41.2481 23.1608 41.0924C22.0939 39.7479 20.7296 38.6702 19.1757 37.9445C17.9022 37.3252 16.4793 36.6719 15.0523 36.5483C14.9334 36.5493 14.8168 36.5815 14.7142 36.6417C14.6116 36.7018 14.5265 36.7878 14.4673 36.8911C14.4081 36.9944 14.377 37.1115 14.377 37.2306C14.3769 37.3497 14.408 37.4668 14.4672 37.5701C15.9913 39.7019 17.358 42.4114 15.9781 44.9662C15.5629 45.7346 16.7322 46.4206 17.148 45.6514L17.1472 45.6511Z" fill="#0A7BBB"/>
<path d="M20.9217 56.7833C21.0012 57.3516 21.2369 57.8865 21.6025 58.3283C21.9415 58.7104 22.3783 58.9924 22.8656 59.1439C23.0389 59.1917 23.224 59.1686 23.3803 59.0797C23.5366 58.9908 23.6512 58.8433 23.699 58.6697C23.7467 58.4961 23.7237 58.3107 23.635 58.1541C23.5462 57.9975 23.399 57.8826 23.2258 57.8348C23.1676 57.815 23.1106 57.7932 23.0541 57.7697L23.2159 57.8382C23.0434 57.7656 22.8806 57.6718 22.7313 57.559L22.8684 57.6651C22.7375 57.5632 22.6196 57.4454 22.5176 57.3144L22.6234 57.4519C22.5159 57.3098 22.4262 57.1551 22.3561 56.9912L22.4242 57.1535C22.3282 56.9191 22.2624 56.6735 22.2283 56.4225C22.1815 56.2519 22.0701 56.1064 21.9178 56.0169C21.841 55.9719 21.7561 55.9425 21.6679 55.9304C21.5797 55.9183 21.4901 55.9237 21.404 55.9463C21.3179 55.9689 21.2371 56.0083 21.1662 56.0622C21.0954 56.1161 21.0358 56.1834 20.9909 56.2604L20.9226 56.4225C20.8904 56.5406 20.8904 56.6652 20.9226 56.7833H20.9217Z" fill="#0A7BBB"/>
<path d="M62.1888 33.4586H48.2861C47.7312 33.4586 47.1331 33.4176 46.8161 34.0064C46.6992 34.2786 46.6542 34.5763 46.6854 34.8709V40.1799C46.6657 40.4329 46.6863 40.6874 46.7464 40.9339C46.9925 41.685 47.6821 41.7175 48.3217 41.7175H61.3129C61.6034 41.7175 61.8978 41.7314 62.1879 41.7175C62.3322 41.713 62.4741 41.6798 62.6055 41.6199C62.7368 41.56 62.855 41.4746 62.9532 41.3686C63.0513 41.2625 63.1275 41.1381 63.1773 41.0023C63.2271 40.8666 63.2495 40.7223 63.2433 40.5778C63.2509 40.3163 63.2433 40.053 63.2433 39.7914C63.2433 38.0623 63.2901 36.3265 63.2433 34.5983C63.2532 34.3073 63.1479 34.0242 62.9503 33.8107C62.7527 33.5972 62.4791 33.4706 62.1888 33.4586C62.0094 33.4596 61.8374 33.5314 61.7105 33.6585C61.5837 33.7856 61.512 33.9576 61.5111 34.1373C61.5152 34.3161 61.5878 34.4863 61.714 34.6127C61.8402 34.7391 62.0101 34.812 62.1885 34.8161C61.7182 34.7618 61.9181 34.3353 61.8884 34.6181C61.8829 34.7251 61.8829 34.8323 61.8884 34.9394V40.0971C61.8637 40.2813 61.8637 40.468 61.8884 40.6522C61.9339 40.7891 62.3223 40.4053 62.1707 40.3609C62.131 40.3571 62.091 40.3571 62.0513 40.3609C61.885 40.3491 61.7126 40.3609 61.5466 40.3609H48.2415C48.1197 40.3451 47.9964 40.3451 47.8746 40.3609C47.7899 40.3878 47.8726 40.2922 47.9028 40.392C47.9045 40.3974 48.2133 40.4919 48.0391 40.5713C48.0391 40.5713 48.0391 40.5564 48.0391 40.5552C48.0496 40.5433 48.0374 40.4842 48.0391 40.469C48.0521 40.2099 48.0521 39.9503 48.0391 39.6913V34.6628C48.0458 34.6153 48.0458 34.5672 48.0391 34.5197C48.1069 34.7157 47.5903 34.7703 47.7679 34.8161C47.886 34.8294 48.0053 34.8294 48.1235 34.8161H62.1876C63.0604 34.8161 63.062 33.4586 62.1888 33.4586Z" fill="#0A7BBB"/>
<path d="M23.7174 72.3165V22.2398C23.6896 21.8777 23.6896 21.514 23.7174 21.1519C23.7491 20.9573 23.9616 21.0192 24.149 21.0192H67.3764C67.4759 21.0064 67.5766 21.0064 67.6761 21.0192C67.7865 21.0537 67.7549 21.08 67.7667 21.1683C67.7913 21.5443 67.7913 21.9215 67.7667 22.2975V72.3165C67.7667 73.19 69.1216 73.1914 69.1216 72.3165V24.3006C69.1216 23.2423 69.158 22.1767 69.1216 21.1191C69.1182 20.7356 68.9654 20.3686 68.6958 20.0964C68.4262 19.8241 68.0611 19.6682 67.6784 19.6618C67.5779 19.6581 67.4766 19.6618 67.3764 19.6618H24.0697C23.9805 19.6618 23.8907 19.6584 23.8016 19.6618C23.4177 19.6692 23.052 19.827 22.7829 20.1014C22.5138 20.3757 22.3627 20.7448 22.3621 21.1295C22.3516 21.4652 22.3621 21.8032 22.3621 22.1388V72.3165C22.3621 73.19 23.7169 73.1914 23.7169 72.3165H23.7174Z" fill="#726A69"/>
<path d="M26.9902 25.688H64.5047C65.3763 25.688 65.3777 24.3306 64.5047 24.3306H26.9902C26.1186 24.3306 26.1172 25.688 26.9902 25.688Z" fill="#726A69"/>
<path d="M23.0412 55.1754H34.0826C34.3185 55.2117 34.5586 55.2117 34.7945 55.1754C34.8978 55.1307 34.5227 55.0558 34.6291 54.9837C34.6231 55.0295 34.6231 55.0759 34.6291 55.1217V66.9555C34.6291 68.7136 34.5819 70.4789 34.6291 72.2365C34.6291 72.2648 34.6291 72.2931 34.6291 72.3213C34.6291 73.1949 35.9839 73.1963 35.9839 72.3213V56.1819C36.0293 55.6875 36.0179 55.1895 35.95 54.6978C35.6858 53.6217 34.4445 53.818 33.6127 53.818H29.883C27.6467 53.818 25.4067 53.782 23.1704 53.818C23.1272 53.818 23.0841 53.818 23.0412 53.818C22.1693 53.818 22.1679 55.1754 23.0412 55.1754Z" fill="#726A69"/>
<path d="M72.3445 71.6423H18.6075C17.7359 71.6423 17.7342 72.9998 18.6075 72.9998H72.3445C73.2164 72.9998 73.2178 71.6423 72.3445 71.6423Z" fill="#726A69"/>
</g>
</svg>
