<svg width="130" height="80" viewBox="0 0 130 80" fill="none" xmlns="http://www.w3.org/2000/svg">
<mask id="mask0_1621_24405" style="mask-type:alpha" maskUnits="userSpaceOnUse" x="0" y="0" width="130" height="80">
<path d="M0 0H130V80H0V0Z" fill="#D9D9D9"/>
</mask>
<g mask="url(#mask0_1621_24405)">
</g>
<g clip-path="url(#clip0_1621_24405)">
<path d="M41.1195 33.3886C41.1319 33.1647 41.1353 33.0018 41.1372 32.8425C39.8206 32.2315 38.6062 31.2135 37.5448 29.9363C36.2963 28.4338 35.5628 26.8204 35.1429 25.4568C34.5892 25.5855 33.9967 25.3766 33.6008 25.0508C32.6873 24.2991 32.3081 23.2508 32.0768 22.5657C31.7502 21.5981 31.7294 20.0343 32.2161 19.1857C32.3793 18.9014 32.7579 18.4173 33.6485 18.3856C34.144 18.368 34.7407 18.5605 35.0972 19.0891C35.2025 19.0548 35.2631 19.0348 35.2631 19.0348L36.5044 18.6268C38.7029 17.9102 40.409 17.3718 42.843 16.1403C47.309 13.8805 48.6514 12.9564 51.1233 10.7593C52.9219 13.0235 54.7917 15.9941 55.9074 18.287C55.9074 18.287 56.1526 18.8239 56.2819 19.1075C56.6365 18.5647 57.2409 18.3678 57.7417 18.3853C58.6323 18.4168 59.0109 18.9011 59.1741 19.1854C59.6608 20.0341 59.6403 21.5979 59.3134 22.5654C59.0821 23.2505 58.7032 24.2988 57.7894 25.0505C57.4129 25.3602 56.8589 25.5643 56.329 25.4744L56.2285 25.4574C56.0553 25.9648 55.839 26.416 55.7662 26.6388C55.3947 27.6523 53.3252 31.2325 50.7175 32.5743C50.7175 32.9113 50.717 33.1397 50.7533 33.6674C50.7763 33.966 50.7993 34.2879 50.9095 34.5787C51.0555 34.9597 51.2552 35.292 51.5726 35.5518C51.9807 35.8821 52.3973 36.1066 52.851 36.3068C52.5543 37.6077 52.2369 38.9172 51.9012 40.2276C50.0212 41.1592 47.9118 41.5811 45.7977 41.5241C43.5942 41.5837 41.3962 41.1227 39.4575 40.1062C39.1489 38.8958 38.8555 37.6863 38.5794 36.4837C39.2082 36.2336 39.7467 35.9807 40.2815 35.5524C40.6001 35.2906 40.7995 34.9591 40.9463 34.5776C41.0571 34.2879 41.0793 33.9649 41.1015 33.6669C41.1089 33.5635 41.1148 33.4719 41.1195 33.3884V33.3886Z" fill="white"/>
<path d="M56.9164 25.0728C56.0453 25.0728 55.4434 25.6888 55.4434 26.4096C55.4434 27.2161 56.0583 27.7715 56.9167 27.7715C57.8081 27.7715 58.3901 27.2108 58.3901 26.4096C58.3901 25.6838 57.7848 25.0728 56.9167 25.0728H56.9164Z" fill="white"/>
<path d="M27.5533 70.6477C25.9614 70.6477 24.5919 70.2313 23.7387 69.7799C22.8249 69.2964 22.1371 68.4756 21.5368 67.6159C20.6718 66.3765 20.4496 64.7024 20.6684 63.1916C21.5072 57.4042 23.2526 51.8904 24.909 46.2938C25.1888 45.3486 25.475 44.6284 25.9935 43.7973L26.0381 43.704C28.1037 40.4644 31.9307 38.9093 36.3921 37.1263C37.155 36.4863 37.9516 35.9148 38.5535 35.5271C39.6269 40.3193 41.0294 45.4438 42.5385 50.1035C43.6567 53.5558 44.0249 54.7275 45.455 58.2765H45.9165C47.3469 54.7275 47.7151 53.5558 48.833 50.1035C50.3421 45.4438 51.7446 40.3193 52.818 35.5271C53.3811 35.8897 54.1143 36.413 54.8312 37.0032C59.4247 38.8385 63.3808 40.3901 65.4938 43.7037L65.5384 43.797C66.0566 44.6281 66.3428 45.3483 66.6228 46.2935C68.2796 51.8898 70.025 57.4039 70.8634 63.1913C71.0823 64.7019 70.8604 66.3763 69.995 67.6156C69.3948 68.4754 68.7067 69.2964 67.7932 69.7796C66.9397 70.2311 65.5702 70.6474 63.9786 70.6474L27.5533 70.6477Z" fill="white"/>
<path d="M45.8217 51.4304C37.9067 51.4881 30.0302 51.5343 27.2333 51.5438C26.7884 51.5452 26.43 51.9083 26.4316 52.3559C26.448 56.9245 26.6671 72.7355 26.8339 78.5471C26.8466 78.9907 27.2114 79.3397 27.6529 79.333C30.1806 79.2937 38.0086 79.318 45.8217 79.345C53.6345 79.3182 61.4628 79.294 63.9904 79.333C64.432 79.34 64.7968 78.9907 64.8095 78.5471C64.9766 72.7355 65.1957 56.9245 65.2117 52.3559C65.2134 51.9086 64.8552 51.5454 64.4101 51.5438C61.6132 51.5343 53.7367 51.4881 45.8217 51.4304Z" fill="#E5EFD9"/>
<path d="M80.297 64.1548H116.129C116.129 67.9266 116.129 73.231 116.129 77.1153H77.829C77.829 73.2329 77.829 68.0371 77.8281 64.1548C78.2148 64.1548 78.8032 64.1548 80.2973 64.1548H80.297Z" fill="white"/>
<path d="M75.5039 50.7561C75.5061 50.9597 75.5061 57.0375 75.5061 59.6009C76.2942 59.6009 78.0232 59.6009 80.2968 59.6009C80.7547 59.6009 103.816 59.6009 113.806 59.6009C113.806 59.263 113.806 59.0753 113.806 59.0753C113.806 56.3891 113.806 53.4155 113.806 50.7561C99.1193 50.7561 76.2945 50.7561 75.5042 50.7561H75.5039Z" fill="white"/>
<path d="M80.6298 43.2821C79.0231 43.2821 77.3551 43.2821 76.4343 43.2821V40.6265C76.0966 40.6265 75.8321 40.6265 75.6504 40.6265V37.7075C76.6465 37.7075 77.5814 37.7075 77.5814 37.7075C77.5814 37.7075 98.9121 37.7075 113.951 37.7075V40.6265C114.186 40.6265 114.447 40.6265 114.735 40.6265C114.735 40.6265 114.735 41.9004 114.735 43.2821C107.763 43.2821 91.9821 43.2821 80.6298 43.2821Z" fill="white"/>
<path d="M80.6309 43.282C80.6309 45.444 80.6309 50.3504 80.6309 50.7562H118.292V43.282H80.6309ZM115.374 48.6173H103.068V48.5674C103.068 48.5674 103.068 45.9498 103.065 45.4209C104.152 45.4209 109.797 45.4209 115.374 45.4209V48.6173Z" fill="white"/>
<path d="M61.6878 23.1616V23.0747C61.2518 20.6436 60.6191 18.6685 60.0144 15.7823C59.5061 13.3513 59.2499 10.2356 58.2408 8.13124C57.4849 6.55796 55.9176 4.12884 53.5082 3.01232C52.5953 2.48455 51.9778 2.12779 51.9778 2.12779L51.6432 1.9345C49.8014 1.17251 47.8832 0.666748 45.1583 0.666748C40.6909 0.666748 36.994 2.75414 35.2295 4.47809C33.2537 6.62425 32.4415 8.76623 31.5152 12.8087C30.91 15.4509 30.3111 18.6651 29.8372 21.3352C29.4294 23.7478 29.387 26.1728 30.5092 28.3095C31.7942 30.7564 34.1958 31.9273 37.8175 32.3615H39.7596L40.2723 32.3706C39.287 31.7607 38.3696 30.928 37.5453 29.936C36.2968 28.4334 35.5633 26.82 35.1434 25.4565C34.5897 25.5851 33.9972 25.3763 33.601 25.0504C32.6875 24.2987 32.3083 23.2504 32.077 22.5653C31.7504 21.5978 31.7296 20.034 32.2163 19.1854C32.3795 18.901 32.7581 18.4167 33.6487 18.3852C34.1442 18.3677 34.7409 18.5601 35.0974 19.0887C35.2027 19.0545 35.2633 19.0344 35.2633 19.0344L36.5046 18.6264C38.7031 17.9098 40.4092 17.3715 42.8432 16.1402C47.3092 13.8804 48.6516 12.9563 51.1235 10.7592C52.9221 13.0235 54.7919 15.994 55.9076 18.2869C55.9076 18.2869 56.1528 18.8239 56.2821 19.1074C56.6367 18.5646 57.2411 18.3677 57.7419 18.3852C58.6325 18.4167 59.0111 18.901 59.1743 19.1854C59.661 20.034 59.6405 21.5978 59.3136 22.5653C59.0823 23.2504 58.7034 24.2987 57.7896 25.0504C57.7211 25.1067 57.6453 25.1579 57.5666 25.2058C58.0707 25.4228 58.3904 25.8843 58.3904 26.4095C58.3904 27.2108 57.8084 27.7714 56.917 27.7714C56.3068 27.7714 55.8245 27.4871 55.5941 27.035C54.9597 28.3682 53.0698 31.3474 50.7432 32.5595L51.4399 32.572H53.3686C56.7982 32.7299 59.2729 31.2742 60.6911 28.7568C61.7388 26.8975 61.9723 24.834 61.6878 23.1616Z" fill="#65B005"/>
<path d="M42.9752 51.4507C43.9176 51.4443 44.869 51.4373 45.8214 51.4303C46.6828 51.4367 47.5435 51.4426 48.3978 51.4487C48.5315 51.0368 48.6742 50.5957 48.8332 50.1049C49.842 46.9885 50.8038 43.6631 51.65 40.369L51.5511 40.3428C49.7312 41.1936 47.7114 41.5777 45.684 41.5231C43.6591 41.5777 41.6389 41.1936 39.8193 40.3428L39.7227 40.369C40.5689 43.6634 41.5281 46.9885 42.5395 50.1049C42.6987 50.5965 42.8411 51.0382 42.9752 51.4507Z" fill="#65B005"/>
<path d="M80.2969 64.1547V59.6008C80.8775 59.6008 117.813 59.6008 118.336 59.6008C118.336 59.7175 118.336 62.7145 118.336 64.1547H80.2969Z" fill="#65B005"/>
<path d="M77.582 32.8604C92.5589 32.8604 115.243 32.8604 115.243 32.8604V37.7075C100.167 37.7075 77.582 37.7075 77.582 37.7075C77.582 37.3017 77.582 35.0224 77.582 32.8604Z" fill="#65B005"/>
<path d="M115.373 45.4209V48.6173H103.067C103.067 48.5925 103.067 48.5674 103.067 48.5674C103.067 48.5674 103.068 45.9495 103.064 45.4209C104.151 45.4209 109.796 45.4209 115.373 45.4209Z" fill="#65B005"/>
<path d="M21.6115 67.0515H10.6423C9.78661 67.0515 9.78522 68.3883 10.6423 68.3883H21.6115C22.4671 68.3883 22.4685 67.0515 21.6115 67.0515Z" fill="#726A69"/>
<path d="M69.9216 68.3883H77.8299C78.6856 68.3883 78.687 67.0515 77.8299 67.0515H69.9216C69.0659 67.0515 69.0645 68.3883 69.9216 68.3883Z" fill="#726A69"/>
<path d="M43.6267 28.8583C44.307 29.2195 45.0394 29.3735 45.8089 29.3685C46.6067 29.3632 47.3964 29.1984 48.0333 28.6993C48.3089 28.4834 48.2757 27.9777 48.0333 27.754C47.741 27.4842 47.3873 27.5237 47.0931 27.754C47.318 27.5777 47.0524 27.771 46.979 27.8097C46.9203 27.8406 46.7632 27.8838 46.9577 27.8264C46.8964 27.8445 46.8374 27.8729 46.7765 27.8927C46.6106 27.9465 46.441 27.9807 46.2693 28.0091C46.3654 27.9933 46.3214 28.0022 46.251 28.0091C46.2012 28.0142 46.1513 28.0183 46.1014 28.0214C45.9815 28.0292 45.861 28.0323 45.7408 28.0314C45.633 28.0309 45.5255 28.027 45.4181 28.0197C45.3688 28.0164 45.3195 28.0125 45.2702 28.0075C45.2422 28.0047 45.0616 27.971 45.2286 28.0038C45.069 27.9727 44.9109 27.9451 44.7546 27.898C44.6882 27.878 44.6236 27.854 44.558 27.8315C44.399 27.7769 44.6823 27.893 44.5386 27.8248C44.4574 27.7863 44.3771 27.746 44.2976 27.7039C43.9901 27.5407 43.5608 27.6153 43.3879 27.9437C43.2256 28.2526 43.2984 28.684 43.6267 28.8583Z" fill="#726A69"/>
<path d="M45.4211 23.7566C45.5139 24.112 45.6028 24.4726 45.6557 24.8363L45.6319 24.6587C45.6383 24.7085 45.6411 24.7575 45.6361 24.8077L45.6599 24.63C45.6563 24.6531 45.6513 24.6748 45.6436 24.6971L45.7106 24.5375C45.7037 24.5531 45.6965 24.5665 45.687 24.5807L45.7909 24.4453C45.7798 24.4587 45.7693 24.4693 45.7557 24.4801L45.8904 24.3757C45.8632 24.3932 45.8347 24.4074 45.8053 24.4211L45.964 24.3537C45.9172 24.3735 45.8707 24.3877 45.8206 24.3957L45.9973 24.3718C45.9521 24.3771 45.9078 24.3768 45.8627 24.3718L46.0394 24.3957C45.9887 24.3885 45.9388 24.3763 45.8881 24.3693C45.7998 24.3414 45.7114 24.3375 45.6231 24.3573C45.5347 24.3612 45.4521 24.3877 45.376 24.4367C45.238 24.5177 45.1065 24.6768 45.0704 24.8361C45.0317 25.0071 45.04 25.1992 45.1375 25.351C45.2239 25.4858 45.3688 25.6356 45.5347 25.6582C45.6602 25.6752 45.7823 25.7069 45.91 25.7128C46.1114 25.7217 46.2967 25.6588 46.4762 25.5755C46.7003 25.4716 46.8759 25.2627 46.9355 25.0204C46.9862 24.8143 46.9651 24.6422 46.9302 24.4356C46.8718 24.0877 46.7917 23.7429 46.7028 23.4018C46.6607 23.2405 46.5399 23.0862 46.3973 23.0024C46.2546 22.9186 46.0447 22.8829 45.8851 22.935C45.5389 23.0475 45.3261 23.3948 45.4208 23.7571L45.4211 23.7566Z" fill="#726A69"/>
<path d="M39.8515 20.6684C39.6723 21.2543 39.7892 22.6023 40.8931 22.717C42.3523 22.7081 42.4299 21.0786 41.9387 20.3125C41.5365 19.685 40.354 19.4241 39.8515 20.6684Z" fill="#726A69"/>
<path d="M51.5369 20.6685C51.7164 21.2545 51.5995 22.6024 50.4954 22.7169C49.0362 22.708 48.9583 21.0784 49.4497 20.3123C49.8519 19.6851 51.0344 19.4241 51.5369 20.6685Z" fill="#726A69"/>
<path d="M29.1964 21.1574C28.6897 24.2014 28.7579 27.5034 30.8371 29.9762C32.5052 31.96 35.1267 32.683 37.5906 33.0013C38.3008 33.0932 39.0443 33.0297 39.7598 33.0297C40.6154 33.0297 40.6168 31.6929 39.7598 31.6929C39.1471 31.6929 38.533 31.7066 37.9205 31.6929C37.4546 31.6826 36.9798 31.5765 36.5242 31.4854C35.922 31.3651 35.3256 31.2111 34.7458 31.0067C32.6392 30.2634 31.1179 28.7263 30.5299 26.5381C30.0903 24.9019 30.203 23.1668 30.4781 21.5124C30.5373 21.1568 30.385 20.7928 30.0138 20.6903C29.6953 20.6023 29.2557 20.7992 29.1961 21.1571L29.1964 21.1574Z" fill="#4F8D00"/>
<path d="M52.3122 1.55071C51.4555 1.05553 50.4608 0.752513 49.5057 0.509657C48.2558 0.191604 46.9625 0.03592 45.6747 0.00472746C43.0003 -0.0601642 40.3552 0.543913 37.9691 1.76042C37.0193 2.24446 36.1215 2.8296 35.3027 3.51473C34.572 4.12632 33.9673 4.88386 33.4391 5.67592C32.2161 7.50988 31.5851 9.66913 31.0704 11.7933C30.3209 14.8864 29.7516 18.0246 29.1951 21.1575C29.132 21.5126 29.291 21.878 29.6594 21.9796C29.981 22.0684 30.4137 21.8702 30.4771 21.5128C30.9533 18.8322 31.448 16.153 32.0402 13.4955C32.5172 11.3558 33.0111 9.13691 34.0726 7.20018C34.5064 6.40895 35.0249 5.67397 35.6385 5.01642C36.2384 4.37336 36.9611 3.88235 37.714 3.42839C39.7325 2.21104 42.0604 1.47523 44.4133 1.35436C45.8462 1.28084 47.3038 1.3811 48.706 1.69219C49.3048 1.82504 49.8948 1.99604 50.4741 2.19879C50.7475 2.2946 51.0178 2.39903 51.287 2.5057C51.4749 2.58006 51.3538 2.53717 51.3181 2.51796C51.3613 2.54163 51.4037 2.56725 51.446 2.59204L51.6411 2.70483C52.3842 3.13429 53.0546 1.97988 52.3122 1.55071Z" fill="#4F8D00"/>
<path d="M61.0458 23.3394C61.4292 25.6924 60.64 28.2742 58.9597 29.9644C58.26 30.6682 57.4032 31.2018 56.4634 31.5149C55.439 31.856 54.4108 31.922 53.3396 31.9037C52.7064 31.8928 52.0724 31.9037 51.4391 31.9037C50.5835 31.9037 50.5821 33.2405 51.4391 33.2405C53.2053 33.2405 55.0205 33.3784 56.7273 32.8333C59.1589 32.0568 60.9563 30.1686 61.8649 27.7993C62.4516 26.2698 62.5912 24.5965 62.3283 22.984C62.2701 22.6275 61.8303 22.4289 61.5106 22.5172C61.1339 22.6214 60.9879 22.9818 61.0463 23.3394H61.0458Z" fill="#4F8D00"/>
<path d="M53.9239 3.99363C55.9748 5.28032 57.5036 7.55292 58.1793 9.86619C58.5848 11.2554 58.7998 12.6941 59.0383 14.1192C59.2881 15.6117 59.6089 17.0856 59.9701 18.555C60.3538 20.1154 60.7604 21.6698 61.0471 23.2523C61.1114 23.6076 61.5408 23.8087 61.8648 23.719C62.2366 23.6163 62.3937 23.2531 62.3291 22.8969C61.7901 19.9199 60.8734 17.0291 60.3673 14.0438C60.1191 12.5791 59.907 11.1011 59.5061 9.66845C59.1618 8.43746 58.6247 7.28639 57.9247 6.22028C57.0477 4.88485 55.9519 3.69062 54.5948 2.83923C53.8668 2.38248 53.1987 3.53855 53.9239 3.99363Z" fill="#4F8D00"/>
<path d="M49.7572 33.6402C51.3782 33.2615 52.7394 32.0968 53.8133 30.8686C54.731 29.8192 55.5604 28.6402 56.1653 27.3786C56.3213 27.0536 56.254 26.6565 55.9268 26.464C55.6357 26.2927 55.174 26.3771 55.0172 26.7038C54.4682 27.849 53.7347 28.9268 52.9267 29.8615C51.9671 30.9713 50.8109 32.0221 49.4035 32.351C48.5703 32.5457 48.9229 33.8349 49.7569 33.6402H49.7572Z" fill="#726A69"/>
<path d="M55.7857 24.5489C55.7843 24.5603 55.7829 24.5717 55.7813 24.5834L55.8051 24.4058C55.7779 24.6071 55.7331 24.8057 55.6766 25.0006C55.6489 25.0895 55.645 25.1783 55.6646 25.2672C55.6685 25.356 55.6948 25.439 55.7436 25.5156C55.7854 25.5936 55.8425 25.656 55.9148 25.703C55.979 25.7621 56.0544 25.8019 56.1408 25.8228L56.3175 25.8467C56.4375 25.8465 56.5494 25.8158 56.653 25.7554L56.7876 25.651C56.8699 25.5677 56.9269 25.4694 56.9585 25.356C57.0355 25.0906 57.0815 24.8232 57.1153 24.5489C57.1186 24.457 57.0998 24.3709 57.058 24.2913C57.0311 24.2083 56.9854 24.1367 56.9206 24.0763C56.8605 24.0111 56.789 23.9652 56.7067 23.9381C56.6275 23.8964 56.5422 23.8772 56.4505 23.8805L56.2738 23.9044C56.161 23.9362 56.0632 23.9936 55.9804 24.0763L55.8765 24.2116C55.8164 24.3158 55.7862 24.4283 55.7857 24.5489Z" fill="#726A69"/>
<path d="M34.2465 24.6836C34.7556 26.8818 35.7919 28.9344 37.2672 30.6361C38.7151 32.3066 40.6397 33.7261 42.8643 34.0617C43.2188 34.1152 43.5789 33.9723 43.682 33.5949C43.7681 33.2794 43.5748 32.8265 43.2177 32.7728C41.192 32.4673 39.5256 31.2115 38.2073 29.6908C36.8813 28.161 35.985 26.2989 35.5287 24.3282C35.3348 23.4908 34.0523 23.8453 34.2465 24.6836Z" fill="#726A69"/>
<path d="M35.3611 18.37C34.5963 17.6837 33.4988 17.5239 32.57 17.9728C31.898 18.2975 31.4991 18.9562 31.3241 19.665C30.9249 21.2809 31.3257 23.1285 32.2393 24.5051C32.8661 25.4496 33.8573 26.2998 35.0617 26.1428C35.4176 26.0962 35.7265 25.8687 35.7265 25.4743C35.7265 25.1493 35.4201 24.7591 35.0617 24.8059C34.1736 24.9218 33.5742 24.2024 33.1808 23.4886C32.849 22.8865 32.5922 22.1866 32.5296 21.4984C32.467 20.8102 32.4745 20.0187 32.8556 19.4191C32.8814 19.382 32.8745 19.3893 32.8351 19.4411C32.8545 19.4169 32.8747 19.3932 32.8961 19.3706C32.913 19.3539 33.047 19.2283 32.9958 19.2679C33.1141 19.1768 33.2456 19.1228 33.3891 19.0882C33.7492 19.0013 34.1406 19.0637 34.4212 19.3152C35.0581 19.8864 36.0012 18.9442 35.3611 18.37Z" fill="#726A69"/>
<path d="M56.9692 19.3148C57.211 19.0968 57.5354 19.0244 57.8534 19.0603C58.1478 19.0937 58.3193 19.1965 58.4849 19.3608C58.5838 19.4588 58.4464 19.2887 58.5226 19.4023C58.5489 19.4416 58.5744 19.4811 58.5982 19.5223C58.6653 19.6385 58.7021 19.7365 58.742 19.8696C58.8461 20.2164 58.8822 20.5698 58.8849 20.931C58.8899 21.6223 58.7423 22.2609 58.488 22.9003C58.2337 23.5398 57.832 24.2569 57.2329 24.6265C56.5047 25.0757 57.172 26.2324 57.9041 25.7809C58.8182 25.2172 59.3877 24.2327 59.7702 23.256C60.1215 22.3592 60.2854 21.3978 60.1885 20.4339C60.099 19.5429 59.8337 18.642 59.0644 18.1137C58.137 17.4764 56.8437 17.6357 56.0291 18.3702C55.3906 18.9458 56.3335 19.8886 56.9692 19.3154V19.3148Z" fill="#726A69"/>
<path d="M38.9603 37.0462C39.8345 36.6805 40.7608 36.2335 41.2832 35.3999C41.7624 34.6354 41.7912 33.7172 41.8028 32.8396C41.8076 32.4898 41.4937 32.1551 41.138 32.1712C40.7738 32.1876 40.4782 32.4648 40.4732 32.8396C40.4691 33.156 40.4533 33.4718 40.4281 33.7871C40.4239 33.8381 40.4198 33.889 40.4148 33.94C40.4095 33.9918 40.3962 34.0759 40.412 33.9782C40.3954 34.0806 40.3755 34.1826 40.3455 34.282C40.3336 34.3216 40.3195 34.3605 40.3057 34.3995C40.2455 34.5691 40.3417 34.3369 40.2946 34.4263C40.2505 34.5101 40.2126 34.5956 40.1641 34.6772C40.145 34.7092 40.1253 34.741 40.1046 34.7722C40.0721 34.8212 40.0345 34.8674 40.0932 34.7953C40.0336 34.8688 39.9691 34.9384 39.8999 35.0028C39.8713 35.0292 39.8414 35.0537 39.812 35.0794C39.896 35.0061 39.7921 35.0938 39.7738 35.1069C39.6927 35.1663 39.6098 35.2231 39.5253 35.2774C39.3691 35.3779 39.2071 35.4693 39.0417 35.5537C38.9544 35.5979 38.8664 35.6403 38.7774 35.6809C38.7414 35.6974 38.7054 35.7135 38.6694 35.7297C38.6592 35.7341 38.4791 35.8104 38.6071 35.757C38.2874 35.8907 38.0226 36.2056 38.1428 36.5791C38.2423 36.8883 38.6168 37.1899 38.9605 37.0459L38.9603 37.0462Z" fill="#726A69"/>
<path d="M50.0527 32.583C50.0527 33.4322 50.0563 34.3181 50.4134 35.1018C50.7995 35.9499 51.6111 36.4701 52.428 36.8442C52.7438 36.9887 53.1582 36.9455 53.3377 36.6044C53.4917 36.3111 53.4371 35.8446 53.0992 35.6898C52.7466 35.5282 52.4053 35.3441 52.0912 35.1146C52.0646 35.0952 51.9757 35.0219 52.043 35.0787C52.0061 35.0475 51.9696 35.0161 51.9347 34.9826C51.8732 34.9241 51.8158 34.8615 51.7624 34.7955C51.8211 34.8679 51.7837 34.8219 51.7513 34.7726C51.7308 34.7414 51.7109 34.71 51.692 34.6777C51.6435 34.5961 51.6056 34.5108 51.5618 34.427C51.5167 34.3404 51.5923 34.5217 51.5618 34.4276C51.5452 34.376 51.5244 34.3262 51.5092 34.2741C51.481 34.1778 51.4632 34.0794 51.4458 33.9809C51.4383 33.9327 51.4388 33.9368 51.4477 33.9934L51.4408 33.9274C51.4375 33.8837 51.4328 33.8399 51.4292 33.7962C51.42 33.687 51.4128 33.5779 51.4062 33.4684C51.3887 33.1732 51.3832 32.8785 51.3832 32.583C51.3832 32.2335 51.0774 31.8985 50.7184 31.9146C50.3594 31.9308 50.0536 32.2084 50.0536 32.583H50.0527Z" fill="#726A69"/>
<path d="M39.5955 40.9189C41.5711 41.831 43.6341 42.1881 45.797 42.1923C47.9598 42.1964 50.0273 41.8291 51.9985 40.9189C52.3248 40.7683 52.4054 40.2943 52.237 40.0043C52.0411 39.6676 51.655 39.6133 51.3273 39.7645C49.5755 40.5736 47.7099 40.8591 45.797 40.8554C43.884 40.8518 42.022 40.5753 40.2667 39.7645C39.9406 39.6139 39.5509 39.6715 39.357 40.0043C39.1894 40.2923 39.2678 40.7674 39.5955 40.9189Z" fill="#4F8D00"/>
<path d="M56.916 24.4042C56.0036 24.4153 55.1898 24.9272 54.8762 25.8023C54.5793 26.6314 54.9396 27.5638 55.6321 28.0604C56.313 28.5486 57.308 28.5503 58.0351 28.1707C58.8132 27.7641 59.1567 26.8709 59.0143 26.0287C58.8451 25.0277 57.8717 24.4159 56.916 24.4042C56.5681 24.4 56.2352 24.7144 56.2512 25.0723C56.2676 25.438 56.5432 25.7363 56.916 25.7407C56.9603 25.7413 57.0044 25.7449 57.0484 25.7454C57.1645 25.7474 57.0146 25.7457 56.9997 25.7357C57.0446 25.7658 57.147 25.7636 57.2022 25.7791C57.2409 25.79 57.2783 25.8042 57.3168 25.8165C57.4227 25.8502 57.2753 25.8045 57.2673 25.7942C57.3016 25.8365 57.4185 25.8736 57.4678 25.9064C57.4836 25.917 57.59 25.9861 57.4908 25.9209C57.3961 25.8585 57.4905 25.9245 57.508 25.941C57.5506 25.9808 57.5875 26.039 57.6323 26.0746C57.5232 25.9877 57.5673 25.9797 57.6033 26.0418C57.6182 26.0677 57.6357 26.0925 57.6504 26.1186C57.6648 26.1443 57.6756 26.1743 57.6916 26.1986C57.7135 26.2454 57.7033 26.2197 57.6606 26.1214C57.6695 26.144 57.6775 26.1665 57.685 26.1894C57.7022 26.242 57.7035 26.3192 57.729 26.3657C57.724 26.3568 57.7152 26.1888 57.7196 26.2974C57.721 26.3348 57.7243 26.3718 57.7243 26.4091C57.7243 26.435 57.7238 26.4612 57.7224 26.4871C57.7191 26.5548 57.68 26.6342 57.7312 26.4606C57.7124 26.5244 57.7069 26.5927 57.6875 26.6567C57.6794 26.6835 57.6625 26.7141 57.6592 26.7411C57.6761 26.608 57.7146 26.6272 57.6775 26.6943C57.6495 26.745 57.6207 26.7943 57.5908 26.8442C57.552 26.9085 57.5155 26.8865 57.6227 26.8052C57.6071 26.8169 57.5914 26.8416 57.5772 26.857C57.5537 26.8823 57.529 26.9065 57.5035 26.9299C57.4423 26.9856 57.4091 26.9664 57.5299 26.9135C57.4781 26.9361 57.4301 26.9806 57.3792 27.0079C57.3487 27.0243 57.3091 27.0363 57.2808 27.0561C57.2916 27.0486 57.4373 27.0004 57.3357 27.0299C57.2739 27.048 57.2135 27.0689 57.1506 27.0831C57.1171 27.0906 57.0628 27.0903 57.0326 27.1051L57.1279 27.0917C57.1002 27.0948 57.0723 27.097 57.0443 27.0987C56.9731 27.1032 56.9013 27.104 56.8302 27.1009C56.8025 27.0998 56.7748 27.0965 56.7468 27.0954C56.5991 27.0892 56.9049 27.1271 56.7623 27.0976C56.698 27.0845 56.6346 27.0706 56.572 27.0514C56.5476 27.0438 56.5238 27.0344 56.4994 27.0271C56.3883 26.9934 56.6471 27.1023 56.4872 27.0199C56.4329 26.992 56.3828 26.9586 56.3313 26.9266C56.2803 26.8946 56.2991 26.8659 56.3803 26.9664C56.3595 26.9405 56.3252 26.9191 56.3008 26.8954C56.2753 26.8706 56.1654 26.7353 56.2354 26.8313C56.3066 26.9288 56.2371 26.8305 56.2257 26.813C56.2064 26.7832 56.1883 26.7525 56.1717 26.7213C56.1374 26.657 56.1465 26.5932 56.1784 26.7509C56.1739 26.7291 56.1606 26.7041 56.1534 26.6826C56.1338 26.6236 56.1216 26.5631 56.1072 26.5027C56.0748 26.3671 56.1147 26.6695 56.1111 26.5278C56.1105 26.5016 56.1077 26.4751 56.1069 26.449C56.1061 26.4108 56.1064 26.3726 56.1086 26.3348C56.1138 26.2423 56.1529 26.2476 56.1016 26.3668C56.128 26.3058 56.1377 26.2214 56.157 26.1571C56.1872 26.0568 56.1382 26.2083 56.1307 26.2167C56.1587 26.1847 56.1753 26.1267 56.1978 26.0894C56.2102 26.0688 56.2241 26.0493 56.2365 26.0287C56.2997 25.9242 56.1244 26.1454 56.2327 26.0351C56.2723 25.9944 56.3504 25.9421 56.377 25.8936L56.3008 25.9515C56.3208 25.9365 56.3413 25.9217 56.362 25.9078C56.3936 25.8867 56.426 25.8666 56.4593 25.8479C56.4867 25.8326 56.5194 25.8212 56.5448 25.8034C56.5908 25.7817 56.5678 25.7911 56.4756 25.8312C56.5002 25.8215 56.5252 25.812 56.5504 25.8037C56.6285 25.7769 56.7083 25.7599 56.7889 25.7427C56.8861 25.7218 56.757 25.7716 56.739 25.7491C56.7476 25.7597 56.8953 25.7407 56.9152 25.7404C57.2628 25.7363 57.5963 25.436 57.58 25.072C57.5639 24.7136 57.2878 24.3992 56.9152 24.4036L56.916 24.4042Z" fill="#726A69"/>
<path d="M38.6045 51.2012C37.6325 49.4469 36.6746 47.6848 35.7408 45.9096C35.5129 45.4762 35.2865 45.0423 35.0619 44.6073C34.9608 44.4118 34.8602 44.2162 34.76 44.0202C34.7046 43.9121 34.6514 43.7684 34.581 43.6698C34.5159 43.5787 34.5453 43.5116 34.4927 43.6448C34.5572 43.4824 34.8237 43.2891 34.9456 43.1629C35.1148 42.9875 35.2865 42.8143 35.46 42.6427C35.8212 42.2851 36.1896 41.935 36.5591 41.5866C36.8699 41.2936 36.7882 40.7441 36.4245 40.5369C36.0948 40.3489 35.7652 40.1604 35.4361 39.9713C35.2813 39.8824 35.1264 39.7933 34.9716 39.7042C34.8943 39.6596 34.817 39.6151 34.7397 39.5705C34.7012 39.5482 34.6625 39.5259 34.624 39.5037C34.5389 39.448 34.5447 39.4619 34.6411 39.5457L34.732 39.883C34.727 40.032 34.7938 39.8089 34.8289 39.7501C34.8843 39.6574 34.9442 39.5674 35.0062 39.4789C35.1278 39.3056 35.2647 39.1447 35.4054 38.987C35.7602 38.5891 36.1475 38.2209 36.5477 37.8697C37.2834 37.2241 38.0693 36.6353 38.8903 36.104L37.9136 35.7046C39.1285 41.1118 40.6257 46.4532 42.365 51.713C42.6337 52.5254 43.9182 52.1773 43.6473 51.3577C41.908 46.0978 40.4108 40.7564 39.1959 35.3492C39.1036 34.939 38.5696 34.7228 38.2192 34.9498C36.933 35.7823 35.6771 36.744 34.6265 37.8658C34.3691 38.1404 34.1284 38.4306 33.9071 38.7355C33.6938 39.0296 33.4243 39.4048 33.4057 39.7777C33.3752 40.3932 33.9032 40.6294 34.3586 40.8917C34.8231 41.1591 35.2879 41.4256 35.7536 41.691L35.619 40.6414C35.217 41.0204 34.8165 41.4011 34.4254 41.7913C34.0672 42.1486 33.6121 42.5224 33.3572 42.9644C33.0304 43.5308 33.2849 44.0547 33.5525 44.578C33.7938 45.0498 34.0373 45.5208 34.2824 45.9906C35.3137 47.9669 36.3768 49.9262 37.4571 51.8757C37.8737 52.6274 39.0225 51.954 38.6053 51.2009L38.6045 51.2012Z" fill="#726A69"/>
<path d="M49.012 51.7137C50.7244 46.4421 52.2449 41.116 53.4606 35.7052L52.4839 36.1046C53.3052 36.6362 54.0916 37.2247 54.8279 37.8703C55.2284 38.2215 55.6162 38.5897 55.9711 38.9876C56.1118 39.1453 56.2489 39.3063 56.3705 39.4795C56.4326 39.5678 56.4921 39.658 56.5478 39.7508C56.5821 39.8081 56.6514 40.0337 56.6447 39.8836L56.7356 39.5463C56.7918 39.4377 56.8242 39.4725 56.6943 39.5377C56.6148 39.5775 56.5387 39.6271 56.4617 39.6714C56.2871 39.7716 56.1129 39.8716 55.9384 39.9719C55.6096 40.1607 55.2808 40.3493 54.952 40.5375C54.5883 40.7459 54.5069 41.2934 54.8174 41.5872C55.17 41.9209 55.5215 42.2553 55.8669 42.5965C56.0403 42.7678 56.2124 42.9407 56.3822 43.1159C56.5193 43.2574 56.8049 43.4635 56.881 43.6454C56.8373 43.5412 56.8891 43.5217 56.7927 43.6704C56.7342 43.7607 56.6924 43.8668 56.6436 43.9623C56.5334 44.1776 56.4229 44.3929 56.3118 44.6079C56.0871 45.0429 55.8608 45.4768 55.6331 45.9102C54.7008 47.6848 53.7437 49.4461 52.7717 51.199C52.3546 51.9512 53.5025 52.626 53.9199 51.8738C55.0005 49.9257 56.0619 47.9669 57.0921 45.9915C57.3373 45.5217 57.5805 45.0507 57.8217 44.5789C58.0813 44.0715 58.3336 43.5702 58.0444 43.0118C57.8137 42.5662 57.3458 42.1896 56.996 41.839C56.5905 41.4326 56.1747 41.0366 55.7578 40.642L55.6232 41.6917C56.0877 41.4257 56.5522 41.1589 57.0165 40.8923C57.4716 40.6308 58.0048 40.3955 57.9699 39.7783C57.9494 39.4165 57.6993 39.0584 57.494 38.7704C57.2672 38.4524 57.0168 38.151 56.7497 37.8664C55.6982 36.7448 54.4415 35.7832 53.1548 34.9504C52.8044 34.7237 52.2704 34.9396 52.1781 35.3498C50.9624 40.7606 49.4419 46.0867 47.7295 51.3583C47.4633 52.1779 48.7469 52.5291 49.012 51.7137Z" fill="#726A69"/>
<path d="M26.6666 69.934C25.45 69.8101 24.1462 69.4505 23.2282 68.5991C22.2944 67.7335 21.5848 66.6485 21.3482 65.3844C21.0884 63.9949 21.4175 62.5603 21.6682 61.1945C21.9521 59.6469 22.2944 58.1106 22.6748 56.5842C23.4365 53.5284 24.3487 50.5136 25.247 47.4963C25.6187 46.2486 25.9661 45.0178 26.6902 43.9211C27.2818 43.0246 28.0555 42.2417 28.9062 41.5917C31.1812 39.8538 33.9348 38.8244 36.5661 37.7734C36.8996 37.6402 37.1331 37.3264 37.0303 36.9512C36.9431 36.6323 36.5481 36.3502 36.2126 36.4845C33.6628 37.5029 31.0247 38.4939 28.7494 40.0655C27.7455 40.7589 26.8148 41.5644 26.0617 42.5308C25.2257 43.6033 24.6592 44.8145 24.2692 46.1171C23.3149 49.304 22.3446 52.4896 21.5224 55.7141C21.1119 57.3239 20.7413 58.9445 20.4344 60.5774C20.1491 62.0966 19.7915 63.6752 19.9881 65.2264C20.1978 66.8813 21.0133 68.3198 22.2072 69.4686C23.413 70.6292 25.0398 71.1054 26.6663 71.2711C27.024 71.3076 27.3312 70.9377 27.3312 70.6027C27.3312 70.2108 27.0251 69.9708 26.6663 69.9343L26.6666 69.934Z" fill="#726A69"/>
<path d="M64.9763 71.2597C66.4236 71.0932 67.8768 70.6929 69.0177 69.7441C70.1282 68.8206 71.0501 67.4837 71.3966 66.0714C71.7786 64.5143 71.5229 62.9811 71.2534 61.4301C70.965 59.77 70.6072 58.1226 70.2044 56.487C69.3986 53.2131 68.4155 49.9878 67.4552 46.7574C67.0585 45.4233 66.6153 44.1149 65.8015 42.9719C65.0757 41.9532 64.1868 41.099 63.1869 40.3559C62.0185 39.4878 60.7229 38.8069 59.4055 38.1995C58.6759 37.863 57.9363 37.5489 57.194 37.242C56.799 37.0788 56.4031 36.9184 56.0067 36.7591C55.6613 36.6201 55.2045 36.3354 54.8298 36.3354C53.9741 36.3354 53.9727 37.6723 54.8298 37.6723C54.6655 37.6723 54.8627 37.7266 54.8793 37.7377C54.9558 37.7892 55.071 37.8143 55.1572 37.8488C55.3225 37.9151 55.4879 37.9814 55.6533 38.048C55.9785 38.1789 56.3034 38.31 56.6275 38.4432C57.2344 38.6922 57.8383 38.9475 58.4363 39.2174C59.5612 39.7251 60.6698 40.2805 61.7085 40.9514C63.6259 42.1899 65.1464 43.8668 65.8596 46.0717C66.8294 49.0695 67.6909 52.1231 68.4953 55.1696C68.8909 56.668 69.2562 58.1747 69.5715 59.6923C69.7341 60.4749 69.8831 61.2603 70.0166 62.0484C70.1374 62.762 70.2712 63.4785 70.2786 64.2043C70.2864 64.939 70.1789 65.6709 69.9169 66.3594C69.662 67.0287 69.2072 67.6299 68.7344 68.1594C67.7518 69.2589 66.4164 69.7572 64.9763 69.9229C64.6195 69.9638 64.3115 70.2008 64.3115 70.5913C64.3115 70.9208 64.6173 71.3009 64.9763 71.2597Z" fill="#726A69"/>
<path d="M27.233 50.8754C26.7236 50.9066 26.253 51.1339 25.9809 51.584C25.7895 51.9006 25.766 52.2479 25.7677 52.6072C25.7696 53.0453 25.7729 53.4834 25.7762 53.9214C25.7857 55.1015 25.7981 56.2812 25.8117 57.461C25.8463 60.4933 25.8882 63.5254 25.935 66.5575C25.9807 69.5091 26.03 72.461 26.0929 75.4123C26.1053 76.001 26.1186 76.5898 26.133 77.1783C26.146 77.7102 26.0981 78.2945 26.2006 78.8178C26.3488 79.5745 27.0239 80.002 27.754 79.9995C27.9169 79.999 28.0798 79.9965 28.2427 79.9954C29.5814 79.9864 30.9201 79.9845 32.2589 79.982C34.4056 79.9778 36.5527 79.9756 38.6994 79.9739C41.2229 79.972 43.7467 79.9714 46.2701 79.9714C48.7814 79.9714 51.2927 79.9725 53.8037 79.9745C55.8676 79.9761 57.9316 79.9784 59.9955 79.9831C61.2185 79.9859 62.4417 79.9867 63.6647 79.9973C63.9417 79.9998 64.2095 80.0085 64.4788 79.9185C64.953 79.7597 65.317 79.3495 65.433 78.863C65.4981 78.59 65.4812 78.2898 65.4887 78.0102C65.5197 76.8444 65.5449 75.6785 65.5685 74.5127C65.6303 71.4756 65.6798 68.4382 65.7253 65.4009C65.7696 62.4395 65.8095 59.4779 65.8416 56.5163C65.8532 55.4262 65.8643 54.3359 65.8715 53.2455C65.8751 52.7125 65.9541 52.1023 65.6834 51.6227C65.3765 51.0782 64.8192 50.876 64.2281 50.8746C63.0827 50.8718 61.9373 50.8718 60.7919 50.871C58.7662 50.8699 56.7402 50.8693 54.7145 50.8688C52.2265 50.8682 49.7385 50.8679 47.2504 50.8679C44.6896 50.8679 42.1287 50.8679 39.5678 50.8682C37.3219 50.8685 35.076 50.869 32.8298 50.8699C31.319 50.8704 29.8085 50.871 28.2978 50.8729C27.9429 50.8735 27.5878 50.8738 27.233 50.8749C26.3776 50.8777 26.3759 52.2145 27.233 52.2117C28.2169 52.2084 29.2011 52.2086 30.185 52.2081C32.0583 52.2067 33.932 52.2061 35.8053 52.2059C38.1812 52.2053 40.5573 52.205 42.9331 52.2047C45.4618 52.2047 47.9906 52.2047 50.5196 52.2047C52.8159 52.2047 55.1123 52.2053 57.4083 52.2061C59.0975 52.2067 60.7866 52.2073 62.4758 52.2089C62.9738 52.2095 63.4719 52.2098 63.9699 52.2106C64.1065 52.2106 64.2691 52.1864 64.4034 52.2117C64.6574 52.2593 64.5441 52.8771 64.5428 53.0951C64.5278 55.4825 64.4982 57.8695 64.4674 60.2566C64.4278 63.3335 64.3826 66.4102 64.3311 69.4868C64.2868 72.1329 64.24 74.7792 64.1741 77.425C64.168 77.6662 64.1619 77.9074 64.1552 78.1486C64.1516 78.2795 64.1995 78.5597 64.0846 78.6418C63.9982 78.7037 63.7536 78.6608 63.6453 78.6599C63.1727 78.656 62.6999 78.6541 62.2273 78.6524C60.5864 78.6463 58.9454 78.6435 57.3044 78.6413C55.0322 78.6382 52.7597 78.6363 50.4875 78.6354C47.9756 78.6343 45.4638 78.634 42.9519 78.6349C40.5864 78.6354 38.221 78.6368 35.8555 78.6396C34.0223 78.6416 32.1891 78.6441 30.3559 78.6496C29.7617 78.6513 29.1676 78.6533 28.5737 78.6566C28.3751 78.6577 28.1767 78.6588 27.9781 78.6605C27.8693 78.6613 27.6377 78.7009 27.5549 78.6371C27.4355 78.5455 27.4898 78.2363 27.4859 78.0937C27.4792 77.8506 27.4731 77.6075 27.4671 77.3643C27.4529 76.7981 27.4402 76.2316 27.428 75.6654C27.3989 74.3267 27.3734 72.9879 27.3493 71.6491C27.2939 68.5739 27.2466 65.4983 27.2042 62.4231C27.1676 59.767 27.1338 57.1109 27.1103 54.4545C27.1064 54.0097 27.1028 53.5652 27.1 53.1205C27.0989 52.9361 26.9892 52.2273 27.233 52.2123C28.0831 52.1602 28.0889 50.8231 27.233 50.8754Z" fill="#BADA95"/>
<path d="M30.2161 76.6411C34.0334 76.6174 37.8513 76.6375 41.6687 76.6492C46.2946 76.6634 50.9202 76.6422 55.5464 76.635C57.3713 76.6322 59.1964 76.6297 61.0216 76.6411C61.8773 76.6464 61.8784 75.3096 61.0216 75.3043C57.2885 75.2809 53.5548 75.3009 49.8214 75.3129C45.15 75.3277 40.4792 75.3051 35.8079 75.2984C33.944 75.2956 32.08 75.2929 30.2164 75.3046C29.361 75.3098 29.3593 76.6467 30.2164 76.6414L30.2161 76.6411Z" fill="#BADA95"/>
<path d="M43.3023 63.3744C43.3012 63.8977 43.3006 64.421 43.3017 64.9443C43.3028 65.5345 43.2222 66.1829 43.6779 66.6382C44.12 67.0799 44.7272 67.0072 45.2964 67.0067C45.8089 67.0061 46.3213 67.0064 46.834 67.0075C47.1351 67.0083 47.4257 66.9964 47.6963 66.8443C47.9877 66.6803 48.2276 66.3767 48.3008 66.0469C48.3625 65.7684 48.3412 65.4693 48.342 65.1855C48.3429 64.9098 48.3431 64.6344 48.3431 64.3587C48.3431 64.1069 48.3431 63.8551 48.3426 63.6031C48.342 63.2881 48.326 62.9817 48.1523 62.7063C47.9559 62.3949 47.6332 62.1757 47.2692 62.1264C47.0302 62.0941 46.7878 62.1058 46.5471 62.1058C45.9753 62.1058 45.4033 62.1058 44.8316 62.1058C44.4984 62.1058 44.1696 62.1153 43.8815 62.3102C43.5172 62.5567 43.3222 62.9366 43.3028 63.3744C43.2873 63.7242 43.6197 64.0584 43.9676 64.0428C44.341 64.0261 44.6158 63.749 44.6324 63.3744C44.6399 63.2045 44.5931 63.5098 44.6427 63.3527L44.6158 63.4226C44.6551 63.3608 44.6488 63.3663 44.5967 63.4399C44.6405 63.412 44.6704 63.405 44.5723 63.4504C44.7097 63.3867 44.4371 63.4527 44.592 63.4382C44.4042 63.4557 44.6604 63.4429 44.7069 63.4429C44.81 63.4429 44.913 63.4429 45.0161 63.4429C45.4418 63.4429 45.8673 63.4429 46.2931 63.4429C46.4917 63.4429 46.6905 63.4429 46.8892 63.4429C46.9457 63.4429 47.0792 63.4212 47.1307 63.4452L47.0534 63.4382C47.1243 63.4613 47.1169 63.4569 47.0313 63.4254C47.1675 63.4816 46.9365 63.3686 47.0487 63.4401L47.0044 63.3811C47.0398 63.4454 47.0393 63.436 47.0024 63.353C47.0504 63.5048 47.0163 63.2098 47.0127 63.3747C47.0108 63.4596 47.013 63.5449 47.0133 63.6301C47.0135 63.8426 47.0138 64.0548 47.0138 64.2673C47.0138 64.7065 47.0135 65.1457 47.011 65.5846C47.011 65.6047 47.0235 65.7303 47.0099 65.7425L47.0243 65.6673C47.0185 65.7002 47.0099 65.7325 46.9986 65.764C47.0277 65.7359 47.0177 65.6348 46.9997 65.7353L47.0434 65.676C46.9903 65.7258 46.9983 65.7222 47.0673 65.6651C46.9149 65.7052 47.1728 65.6476 47.0711 65.6696C46.9736 65.6905 47.2385 65.676 47.0731 65.6715C46.9767 65.669 46.88 65.671 46.7836 65.6707C46.3651 65.6699 45.9465 65.6696 45.528 65.6699C45.323 65.6699 45.118 65.6701 44.9133 65.6707C44.8302 65.6707 44.7471 65.671 44.664 65.6712C44.631 65.6712 44.5491 65.6846 44.5202 65.6696C44.6047 65.6827 44.6227 65.6827 44.5737 65.6696C44.5263 65.6545 44.5416 65.6615 44.6191 65.6902C44.4696 65.6267 44.7335 65.7659 44.6011 65.6763C44.6529 65.7498 44.659 65.7556 44.6197 65.6938L44.6463 65.764L44.6316 65.7164C44.6155 65.6423 44.6169 65.6509 44.6352 65.7425C44.6153 65.7244 44.6341 65.5601 44.6338 65.53C44.6327 65.2942 44.6322 65.058 44.6316 64.8221C44.631 64.3397 44.6316 63.8573 44.6324 63.375C44.6333 63.0254 44.3261 62.6904 43.9676 62.7066C43.6067 62.7227 43.3037 63.0001 43.3028 63.375L43.3023 63.3744Z" fill="#BADA95"/>
<path d="M50.6522 10.2869C49.0932 11.6711 47.5307 12.8394 45.6983 13.8757C43.1648 15.3086 40.561 16.5747 37.8007 17.4985C36.8974 17.8007 35.9905 18.0925 35.0856 18.39C34.2759 18.6562 34.6224 19.9474 35.439 19.6792C37.5811 18.9751 39.7353 18.3089 41.7948 17.3801C43.2219 16.7365 44.616 16.0021 45.9861 15.2443C46.9514 14.7104 47.8996 14.1433 48.7988 13.5025C49.7766 12.8054 50.6946 12.0292 51.5923 11.2321C52.235 10.6615 51.2918 9.71901 50.6522 10.2869Z" fill="#4F8D00"/>
<path d="M50.6537 11.2321C52.6883 13.8025 54.424 16.6318 55.7862 19.6157C55.9361 19.9438 56.4078 20.0248 56.6959 19.8555C57.0311 19.6583 57.0848 19.2703 56.9344 18.9409C55.5223 15.8478 53.7015 12.9494 51.5938 10.2866C51.37 10.0039 50.8872 10.0515 50.6537 10.2866C50.3759 10.5659 50.4293 10.9486 50.6537 11.2318V11.2321Z" fill="#4F8D00"/>
<path d="M113.141 51.1064C113.141 53.7628 113.141 56.4192 113.141 59.0756C113.141 59.9359 114.47 59.9373 114.47 59.0756C114.47 56.4192 114.47 53.7628 114.47 51.1064C114.47 50.2461 113.141 50.2447 113.141 51.1064Z" fill="#726A69"/>
<path d="M78.6696 54.402C80.033 54.402 81.3961 54.402 82.7595 54.402C85.1747 54.402 87.5901 54.402 90.0053 54.402C92.7853 54.402 95.5655 54.402 98.3455 54.402H105.841C107.372 54.402 108.902 54.402 110.432 54.402H110.699C111.554 54.402 111.556 53.0652 110.699 53.0652C109.335 53.0652 107.972 53.0652 106.609 53.0652H99.3629C96.583 53.0652 93.8027 53.0652 91.0227 53.0652C88.5242 53.0652 86.0256 53.0652 83.5268 53.0652C81.9967 53.0652 80.4665 53.0652 78.9364 53.0652H78.6696C77.8139 53.0652 77.8126 54.402 78.6696 54.402Z" fill="#726A69"/>
<path d="M78.6696 57.2919C80.033 57.2919 81.3961 57.2919 82.7595 57.2919H90.0053C92.7853 57.2919 95.5655 57.2919 98.3455 57.2919C100.844 57.2919 103.343 57.2919 105.841 57.2919C107.372 57.2919 108.902 57.2919 110.432 57.2919H110.699C111.554 57.2919 111.556 55.9551 110.699 55.9551C109.335 55.9551 107.972 55.9551 106.609 55.9551H99.3629C96.583 55.9551 93.8027 55.9551 91.0227 55.9551H83.5268C81.9967 55.9551 80.4665 55.9551 78.9364 55.9551H78.6696C77.8139 55.9551 77.8126 57.2919 78.6696 57.2919Z" fill="#726A69"/>
<path d="M80.2976 58.9324C78.7007 58.9324 77.1038 58.9324 75.5069 58.9324L76.1717 59.6008C76.1717 56.9517 76.1722 54.3023 76.1706 51.6531C76.1706 51.354 76.172 51.0552 76.1695 50.7561L75.5047 51.4245C77.1024 51.4245 78.7001 51.4245 80.2976 51.4245C81.1533 51.4245 81.1546 50.0876 80.2976 50.0876C78.6999 50.0876 77.1021 50.0876 75.5047 50.0876C75.1476 50.0876 74.8368 50.394 74.8399 50.7561C74.8593 52.9983 74.8421 55.2414 74.8421 57.4836C74.8421 58.1894 74.8421 58.8951 74.8421 59.6008C74.8421 59.962 75.1468 60.2692 75.5069 60.2692C77.1038 60.2692 78.7007 60.2692 80.2976 60.2692C81.1533 60.2692 81.1546 58.9324 80.2976 58.9324Z" fill="#726A69"/>
<path d="M115.463 64.5926C115.463 68.7668 115.463 72.941 115.463 77.1153L116.128 76.4468H79.3911C78.8975 76.4468 78.3862 76.4081 77.8934 76.4468C77.8718 76.4485 77.8493 76.4468 77.8277 76.4468L78.4925 77.1153C78.4925 72.7951 78.4925 68.4749 78.4917 64.1547L77.8269 64.8232C78.6499 64.8232 79.4731 64.8232 80.2961 64.8232C81.1517 64.8232 81.1531 63.4863 80.2961 63.4863C79.4731 63.4863 78.6499 63.4863 77.8269 63.4863C77.4676 63.4863 77.1621 63.7927 77.1621 64.1547C77.1632 68.4749 77.1629 72.7951 77.1629 77.1153C77.1629 77.4765 77.4676 77.7837 77.8277 77.7837H81.6354C84.6835 77.7837 87.7319 77.7837 90.78 77.7837H111.411C112.958 77.7837 114.515 77.8346 116.062 77.7837C116.084 77.7828 116.106 77.7837 116.128 77.7837C116.487 77.7837 116.793 77.4773 116.793 77.1153C116.793 72.941 116.793 68.7668 116.793 64.5926C116.793 63.7322 115.463 63.7309 115.463 64.5926Z" fill="#726A69"/>
<path d="M80.9621 64.1547V59.6009L80.2973 60.2693C81.6178 60.2693 82.938 60.2693 84.2584 60.2693C87.2689 60.2693 90.2793 60.2693 93.2898 60.2693C96.8935 60.2693 100.497 60.2693 104.101 60.2693C107.239 60.2693 110.376 60.2693 113.514 60.2693C114.562 60.2693 115.61 60.2693 116.658 60.2693C117.182 60.2693 117.715 60.2994 118.238 60.2693C118.271 60.2674 118.304 60.2693 118.336 60.2693L117.671 59.6009C117.671 61.1187 117.671 62.6366 117.671 64.1547L118.336 63.4863C116.072 63.4863 113.808 63.4863 111.544 63.4863C108.367 63.4863 105.19 63.4863 102.013 63.4863H84.0798C82.8399 63.4863 81.5901 63.4398 80.3508 63.4863C80.3331 63.4869 80.3151 63.4863 80.2973 63.4863C79.4417 63.4863 79.4403 64.8231 80.2973 64.8231H118.336C118.695 64.8231 119.001 64.5168 119.001 64.1547C119.001 62.6369 119.001 61.119 119.001 59.6009C119.001 59.2397 118.696 58.9325 118.336 58.9325C117.025 58.9325 115.714 58.9325 114.402 58.9325C111.397 58.9325 108.391 58.9325 105.385 58.9325C101.782 58.9325 98.1783 58.9325 94.5748 58.9325C91.433 58.9325 88.2913 58.9325 85.1496 58.9325C83.5676 58.9325 81.9809 58.896 80.3993 58.9325C80.3655 58.9333 80.3314 58.9325 80.2976 58.9325C79.9383 58.9325 79.6328 59.2388 79.6328 59.6009V64.1547C79.6328 65.015 80.9624 65.0164 80.9624 64.1547H80.9621Z" fill="#4F8D00"/>
<path d="M80.7028 71.3034C82.1645 71.3034 83.6266 71.3034 85.0883 71.3034C87.4929 71.3034 89.8976 71.3034 92.3022 71.3034C95.0617 71.3034 97.8214 71.3034 100.581 71.3034H108.023C109.638 71.3034 111.253 71.3034 112.868 71.3034H113.196C114.052 71.3034 114.053 69.9666 113.196 69.9666C111.735 69.9666 110.273 69.9666 108.811 69.9666H101.597C98.8375 69.9666 96.0777 69.9666 93.3182 69.9666C90.8374 69.9666 88.3566 69.9666 85.8758 69.9666C84.2609 69.9666 82.646 69.9666 81.0313 69.9666H80.7028C79.8472 69.9666 79.8458 71.3034 80.7028 71.3034Z" fill="#726A69"/>
<path d="M80.7028 68.1508C82.1645 68.1508 83.6266 68.1508 85.0883 68.1508C87.4929 68.1508 89.8976 68.1508 92.3022 68.1508C95.0617 68.1508 97.8214 68.1508 100.581 68.1508H108.023C109.638 68.1508 111.253 68.1508 112.868 68.1508H113.196C114.052 68.1508 114.053 66.814 113.196 66.814C111.735 66.814 110.273 66.814 108.811 66.814H101.597C98.8375 66.814 96.0777 66.814 93.3182 66.814C90.8374 66.814 88.3566 66.814 85.8758 66.814C84.2609 66.814 82.646 66.814 81.0313 66.814H80.7028C79.8472 66.814 79.8458 68.1508 80.7028 68.1508Z" fill="#726A69"/>
<path d="M80.7028 74.4269C82.044 74.4269 83.3853 74.4269 84.7265 74.4269C87.0428 74.4269 89.3588 74.4269 91.6751 74.4269C94.3276 74.4269 96.9802 74.4269 99.6328 74.4269H106.818C108.316 74.4269 109.814 74.4269 111.311 74.4269H111.6C112.455 74.4269 112.457 73.0901 111.6 73.0901C110.258 73.0901 108.917 73.0901 107.576 73.0901H100.627C97.9749 73.0901 95.3223 73.0901 92.6698 73.0901C90.2748 73.0901 87.8799 73.0901 85.4849 73.0901C83.9869 73.0901 82.4889 73.0901 80.9912 73.0901H80.7028C79.8472 73.0901 79.8458 74.4269 80.7028 74.4269Z" fill="#726A69"/>
<path d="M115.401 42.9324V40.6264C115.401 40.2652 115.096 39.958 114.736 39.958C113.759 39.958 112.781 39.958 111.804 39.958C111.456 39.958 111.123 40.2655 111.139 40.6264C111.155 40.9874 111.431 41.2948 111.804 41.2948C112.781 41.2948 113.759 41.2948 114.736 41.2948L114.071 40.6264V42.9324C114.071 43.282 114.377 43.617 114.736 43.6008C115.095 43.5847 115.401 43.307 115.401 42.9324Z" fill="#726A69"/>
<path d="M113.287 37.7073V40.6263C113.287 40.9758 113.593 41.3109 113.952 41.2947C114.311 41.2786 114.617 41.0009 114.617 40.6263V37.7073C114.617 37.3578 114.311 37.0227 113.952 37.0389C113.593 37.055 113.287 37.3327 113.287 37.7073Z" fill="#726A69"/>
<path d="M75.7695 40.6262V43.2818C75.7695 43.643 76.0742 43.9502 76.4343 43.9502C77.8329 43.9502 79.2312 43.9502 80.6298 43.9502C80.9774 43.9502 81.3106 43.6427 81.2946 43.2818C81.2785 42.9209 81.0023 42.6134 80.6298 42.6134C79.2312 42.6134 77.8329 42.6134 76.4343 42.6134L77.0991 43.2818V40.6262C77.0991 40.2767 76.7933 39.9417 76.4343 39.9578C76.0753 39.974 75.7695 40.2517 75.7695 40.6262Z" fill="#726A69"/>
<path d="M79.5131 37.0388C78.2259 37.0388 76.9386 37.0388 75.6511 37.0388C75.2919 37.0388 74.9863 37.3452 74.9863 37.7072V40.6262C74.9863 40.9875 75.291 41.2947 75.6511 41.2947C77.0284 41.2947 78.4056 41.2947 79.7829 41.2947C82.2529 41.2947 84.7232 41.2947 87.1932 41.2947C90.043 41.2947 92.893 41.2947 95.7428 41.2947C98.2998 41.2947 100.857 41.2947 103.414 41.2947C104.966 41.2947 106.517 41.2947 108.069 41.2947C108.157 41.2947 108.244 41.2947 108.332 41.2947C109.188 41.2947 109.19 39.9578 108.332 39.9578C106.955 39.9578 105.578 39.9578 104.201 39.9578C101.731 39.9578 99.2604 39.9578 96.7904 39.9578C93.9406 39.9578 91.0906 39.9578 88.2408 39.9578C85.6838 39.9578 83.1265 39.9578 80.5696 39.9578C79.0181 39.9578 77.4666 39.9578 75.9151 39.9578C75.827 39.9578 75.7392 39.9578 75.6511 39.9578L76.3159 40.6262V37.7072L75.6511 38.3756C76.9384 38.3756 78.2256 38.3756 79.5131 38.3756C80.3687 38.3756 80.3701 37.0388 79.5131 37.0388Z" fill="#726A69"/>
<path d="M77.583 33.5287C83.9992 33.5287 90.4157 33.5287 96.8318 33.5287C101.983 33.5287 107.135 33.5287 112.286 33.5287C113.272 33.5287 114.258 33.5287 115.243 33.5287L114.579 32.8603V37.7074L115.243 37.039C108.803 37.039 102.364 37.039 95.9235 37.039C90.791 37.039 85.6584 37.039 80.5262 37.039C79.545 37.039 78.5639 37.039 77.5828 37.039L78.2476 37.7074C78.2476 36.0918 78.2476 34.4762 78.2476 32.8603C78.2476 32 76.918 31.9986 76.918 32.8603C76.918 34.4759 76.918 36.0915 76.918 37.7074C76.918 38.0686 77.2227 38.3758 77.5828 38.3758C80.4337 38.3758 83.2843 38.3758 86.1352 38.3758C92.2752 38.3758 98.4149 38.3758 104.555 38.3758C108.118 38.3758 111.681 38.3758 115.243 38.3758C115.603 38.3758 115.908 38.0695 115.908 37.7074V32.8603C115.908 32.4991 115.604 32.1919 115.243 32.1919C112.391 32.1925 109.538 32.1919 106.686 32.1919C100.537 32.1919 94.3876 32.1919 88.2381 32.1919C84.6864 32.1919 81.1345 32.1919 77.5828 32.1919C76.7271 32.1919 76.7257 33.5287 77.5828 33.5287H77.583Z" fill="#4F8D00"/>
<path d="M80.6299 43.9506C87.0461 43.9506 93.4625 43.9506 99.8787 43.9506C105.03 43.9506 110.181 43.9506 115.333 43.9506C116.319 43.9506 117.305 43.9506 118.29 43.9506L117.626 43.2822V50.7564L118.29 50.088C111.85 50.088 105.41 50.088 98.9704 50.088C93.8379 50.088 88.7053 50.088 83.5731 50.088C82.5919 50.088 81.6108 50.088 80.6296 50.088L81.2945 50.7564C81.2945 48.2649 81.2945 45.7737 81.2945 43.2822C81.2945 42.4219 79.9648 42.4205 79.9648 43.2822C79.9648 45.7737 79.9648 48.2649 79.9648 50.7564C79.9648 51.1176 80.2695 51.4248 80.6296 51.4248C83.4805 51.4248 86.3311 51.4248 89.182 51.4248C95.322 51.4248 101.462 51.4248 107.602 51.4248C111.165 51.4248 114.728 51.4248 118.29 51.4248C118.65 51.4248 118.955 51.1185 118.955 50.7564V43.2822C118.955 42.921 118.65 42.6138 118.29 42.6138C115.438 42.6143 112.585 42.6138 109.733 42.6138C103.584 42.6138 97.4344 42.6138 91.285 42.6138C87.7333 42.6138 84.1813 42.6138 80.6296 42.6138C79.774 42.6138 79.7729 43.9506 80.6299 43.9506Z" fill="#726A69"/>
<path d="M86.625 43.2822V50.7565C86.625 51.6168 87.9546 51.6182 87.9546 50.7565V50.4707C87.9546 49.6104 86.625 49.609 86.625 50.4707V50.7565C86.625 51.6168 87.9546 51.6182 87.9546 50.7565V43.2822C87.9546 42.4219 86.625 42.4205 86.625 43.2822Z" fill="#726A69"/>
<path d="M83.7715 43.3459V50.6926C83.7715 51.5529 85.1011 51.5543 85.1011 50.6926V43.3459C85.1011 42.4856 83.7715 42.4842 83.7715 43.3459Z" fill="#726A69"/>
<path d="M114.709 45.4209V48.6173L115.374 47.9488H103.068L103.733 48.6173C103.733 47.5517 103.736 46.4864 103.73 45.4209L103.065 46.0893C107.168 46.0893 111.271 46.0893 115.374 46.0893C116.23 46.0893 116.231 44.7524 115.374 44.7524C111.271 44.7524 107.168 44.7524 103.065 44.7524C102.707 44.7524 102.398 45.0588 102.4 45.4209C102.406 46.4864 102.403 47.5517 102.403 48.6173C102.403 48.9785 102.708 49.2857 103.068 49.2857H115.374C115.733 49.2857 116.039 48.9793 116.039 48.6173V45.4209C116.039 44.5605 114.709 44.5592 114.709 45.4209Z" fill="#4F8D00"/>
</g>
<defs>
<clipPath id="clip0_1621_24405">
<rect width="109" height="80" fill="white" transform="translate(10)"/>
</clipPath>
</defs>
</svg>
