<svg width="130" height="80" viewBox="0 0 130 80" fill="none" xmlns="http://www.w3.org/2000/svg">
<mask id="mask0_1621_24623" style="mask-type:alpha" maskUnits="userSpaceOnUse" x="0" y="0" width="130" height="80">
<path d="M0 0H130V80H0V0Z" fill="#D9D9D9"/>
</mask>
<g mask="url(#mask0_1621_24623)">
</g>
<g clip-path="url(#clip0_1621_24623)">
<path d="M43.18 38.4841C44.3947 36.2652 45.9383 34.0559 48.1405 32.7036L58.1658 33.043C61.5799 34.0507 65.2069 34.0812 68.6373 33.131L80.752 33.9156C82.2009 36.7648 86.5908 42.9017 88.4203 46.9471C89.5808 49.5131 90.6869 51.9015 89.8351 54.5864C89.3463 56.1265 84.7084 59.1117 83.5384 59.9498C82.3125 58.6089 79.0248 56.4471 77.2974 55.0334C78.4155 54.1226 79.7966 52.9468 80.8225 51.5716C80.8827 51.4889 80.9197 51.3915 80.9295 51.2895C80.9393 51.1876 80.9215 51.0848 80.8781 50.9921C80.336 49.7982 79.0536 47.751 78.1888 46.9606L78.1472 46.9224C77.9716 48.6868 77.7753 50.8757 77.4965 52.9025C77.352 53.9509 77.2274 54.9492 77.1203 55.7288C76.917 55.7288 76.7944 55.7288 76.7944 55.7288C72.0022 55.7288 56.0279 55.7394 51.4587 55.7394C51.4587 55.7394 51.385 55.7394 51.2566 55.7394C51.1495 54.958 51.0244 53.9557 50.8804 52.9025C50.5683 50.6326 50.3594 48.1593 50.1675 46.3065C50.079 46.4573 50.0296 46.5416 50.0296 46.5416C49.2712 47.8536 48.6696 49.2506 48.2372 50.7038C47.8471 51.9329 50.1996 54.6691 50.884 55.4804C49.5594 55.3479 48.2248 55.6 47.0391 56.2067C46.337 56.5444 44.2638 59.0599 44.253 59.6145C42.003 58.9038 38.3941 54.3853 38.3463 51.9887C38.3034 49.8312 40.7813 42.951 43.0441 38.734C43.0891 38.6509 43.1344 38.5676 43.18 38.4841Z" fill="white"/>
<path d="M61.7269 38.689C60.6333 37.003 59.3475 34.9682 58.1699 33.0435C61.5843 34.0512 65.2118 34.081 68.6422 33.1294C67.171 35.7775 65.5107 38.5645 64.344 40.4241L62.923 40.5078C62.5661 39.9764 62.1612 39.3604 61.7269 38.689Z" fill="white"/>
<path d="M48.2326 65.3869C46.6934 70.4858 44.9908 76.7251 44.8672 77.0452C45.3161 76.8672 45.7785 76.7254 46.2498 76.621L46.2233 76.6912C46.0375 77.2498 45.6846 78.3673 45.4725 79.0481C48.9352 78.0508 58.2409 77.6038 64.3703 79.5031C68.3267 78.3301 77.0196 78.3301 82.4695 79.1662C82.3995 78.7162 82.2343 77.816 82.146 77.2966L82.1117 77.0477C82.4504 77.1291 82.7739 77.2171 83.0798 77.3111C82.6495 75.1596 79.735 60.0989 79.3785 58.9814C76.8047 58.6254 70.1966 58.5017 64.4714 59.5124C62.7431 59.0229 60.9659 58.7272 59.1725 58.6309C56.7201 58.4992 52.8858 58.7227 50.4334 58.991C49.9989 59.7449 49.1443 62.3658 48.2326 65.3869Z" fill="#E5EFD9"/>
<path d="M60.4568 14.3519C60.5286 14.3119 60.6113 14.2959 60.6928 14.3064C61.1333 14.4321 64.7224 13.5972 65.1562 13.4489C66.2961 13.0592 67.1971 12.2467 68.0236 11.3816L69.4418 11.718C70.8857 12.1883 73.2234 14.5048 73.5083 17.4545L74.1668 16.8581C74.3425 16.7054 74.549 16.5924 74.7722 16.5269C74.9954 16.4615 75.2301 16.445 75.4602 16.4788C75.686 16.5108 75.9018 16.5931 76.0916 16.7197C76.2815 16.8463 76.4407 17.014 76.5575 17.2104C76.6925 17.4814 76.7694 17.7778 76.7832 18.0805C76.8817 19.265 76.6535 20.4538 76.1237 21.5171C75.8739 22.0545 75.5114 22.5314 75.061 22.9154C74.6848 23.2171 74.0053 23.1945 73.5334 23.2785C73.4421 23.599 73.3483 23.8642 73.2989 24.0148C72.6934 25.3624 71.8859 26.6093 70.9045 27.7122L71.0524 28.4915C70.4451 29.7941 69.5812 31.4329 68.6397 33.1284C65.2096 34.0799 61.5825 34.0502 58.1684 33.0427C57.1195 31.3289 56.1566 29.7033 55.4919 28.4923C55.4919 28.4923 55.6303 28.1816 55.8116 27.773C55.6566 27.6054 55.5045 27.4319 55.3552 27.2524C54.3398 26.0007 53.6086 24.5423 53.2123 22.9785L53.0914 23.0087C52.4467 23.1704 51.9379 22.845 51.5794 22.5577C51.1295 22.1736 50.7676 21.6967 50.5182 21.1596C49.9883 20.0967 49.7599 18.9082 49.8582 17.724C49.8717 17.4213 49.9486 17.1248 50.0839 16.8539C50.2006 16.6575 50.3598 16.4898 50.5497 16.3632C50.7396 16.2366 50.9554 16.1543 51.1812 16.1223C51.4112 16.0885 51.6457 16.1048 51.8688 16.1701C52.0919 16.2355 52.2984 16.3483 52.4741 16.5009L53.6323 17.2021C53.9212 16.8403 54.1371 16.3222 54.5571 16.1137C54.8807 15.9989 55.2279 15.9675 55.5669 16.0222C58.0335 16.1429 59.7637 14.6496 60.4568 14.3519Z" fill="white"/>
<path d="M51.2359 37.1384C50.0207 36.4873 45.5137 33.5526 45.619 33.3978C45.9951 32.8475 49.9229 31.195 52.6652 29.9377C54.1697 29.2479 55.2266 28.6164 55.4924 28.4927C57.2006 31.6065 60.8784 37.4539 62.9215 40.508C60.5236 40.16 56.5391 39.9798 51.2359 37.1384Z" fill="white"/>
<path d="M75.3107 37.1384C76.5199 36.4772 81.0329 33.5526 80.9276 33.3978C80.5515 32.8475 76.6237 31.195 73.8814 29.9377C72.3769 29.2479 71.32 28.6164 71.0542 28.4927C69.4982 31.83 66.2575 37.3745 64.3438 40.4242C67.5504 40.0182 70.1154 39.9798 75.3107 37.1384Z" fill="white"/>
<path d="M50.4401 55.3154C52.1392 55.2231 53.7595 55.4008 55.0655 56.7358C55.8363 57.5234 57.3014 58.7787 57.4095 60.0324C57.4526 60.5317 57.1289 61.3043 56.5803 61.5436L55.0685 64.848C55.4539 65.2754 55.491 65.5899 55.2691 65.8494C55.1351 66.0111 54.9606 66.1341 54.7634 66.2057C54.5663 66.2772 54.3536 66.2947 54.1475 66.2564C53.7295 66.2056 53.338 66.0246 53.0281 65.739C53.1562 66.0719 52.2347 66.4661 52 66.505C51.1289 66.6496 50.5511 66.2257 49.9716 65.6591C50.161 66.449 48.9636 67.2499 48.1359 66.6197C47.2881 65.9741 46.6815 65.461 46.2269 64.5833C45.7863 63.7323 45.6311 62.8235 45.3723 62.2023C44.9676 61.1572 44.0448 60.4291 44.1988 59.7815C44.452 58.5778 45.7535 57.1312 46.4877 56.4731C47.434 55.6238 49.2226 55.3802 50.4411 55.3141" fill="white"/>
<path d="M53.5229 59.1406C54.0317 60.0708 55.3369 61.6277 55.8454 62.5569C55.9884 62.8179 56.4375 63.5822 56.4585 63.8791C56.4816 64.2059 55.9533 65.0275 54.9262 64.6752C55.3334 65.1361 55.525 65.5524 55.2697 65.8493C55.1358 66.011 54.9612 66.134 54.764 66.2056C54.5669 66.2771 54.3542 66.2946 54.1481 66.2563C53.7302 66.2055 53.3387 66.0245 53.0287 65.7389C53.0641 66.147 52.4349 66.3599 52.2012 66.3989C51.3301 66.5434 50.627 66.1751 49.9733 65.659C49.4831 66.5723 48.9652 67.2499 48.1375 66.6196C47.2897 65.974 46.6831 65.4609 46.2285 64.5832" fill="white"/>
<path d="M79.9286 64.7829C80.1402 64.6001 80.3439 64.4199 80.5304 64.2517C81.4918 63.3811 82.5537 62.7827 82.897 61.5136C83.1759 60.5767 83.1306 59.5728 82.7684 58.665C82.5708 58.1177 82.1217 57.2275 81.7375 56.877C81.2305 56.4147 80.4645 55.7709 79.713 55.6107C78.8915 55.4111 76.8526 55.9182 75.9609 55.8714C74.6821 55.8048 73.7824 56.2578 72.5805 56.784C71.4652 57.2722 70.3513 57.6687 69.237 58.2273C69.1421 58.2885 69.0621 58.3701 69.0027 58.4662C68.9434 58.5623 68.9061 58.6705 68.8936 58.7829C68.8812 58.8952 68.8939 59.0089 68.9308 59.1158C68.9677 59.2226 69.0279 59.3198 69.1071 59.4004C69.6357 59.8753 70.8345 59.5401 71.6146 59.5401L72.2217 59.6138C71.2437 60.3288 70.0288 61.2228 69.6457 61.6072C69.1532 62.1022 68.5742 62.5338 68.6241 63.0598C68.7196 64.0654 69.6457 63.9724 69.9987 63.7861L70.0298 63.7695L69.8129 64.046C69.3661 64.6167 69.2558 65.3123 69.7658 65.617C70.0857 65.7537 70.4356 65.8047 70.7811 65.765C71.1266 65.7253 71.4559 65.5964 71.7367 65.3908C71.3892 65.8579 71.4333 66.4049 71.8408 66.6395C72.2772 66.8372 72.7715 66.8641 73.2267 66.7149C73.7215 66.5107 74.1949 66.2581 74.6402 65.9607C75.0798 65.7133 76.9639 64.586 77.906 63.908L77.8 64.0086C77.2892 64.4928 76.5083 65.1713 76.2202 65.6286C76.1591 65.7131 76.121 65.812 76.1095 65.9157C76.0981 66.0194 76.1138 66.1243 76.155 66.2201C76.1962 66.3159 76.2616 66.3993 76.3447 66.4621C76.4278 66.5249 76.5257 66.565 76.6289 66.5784C76.9725 66.6901 77.3462 66.6616 77.6691 66.4992C78.1357 66.2697 79.0933 65.5052 79.9286 64.7829Z" fill="white"/>
<path d="M47.2672 24.8829C47.5411 24.0905 47.989 23.3699 48.5777 22.7742C49.1665 22.1786 49.8811 21.723 50.6689 21.4412C50.8999 21.8679 51.2095 22.2469 51.5811 22.5581C51.9625 22.8631 52.5109 23.2118 53.2126 22.9735C53.36 23.5287 53.5448 24.0732 53.7657 24.6033C53.7156 24.7833 53.6639 24.9663 53.6138 25.1491C53.1148 26.9592 51.6779 28.093 49.9778 28.6411C49.4011 28.8271 47.8539 28.7467 47.2271 28.3067C46.6202 27.8793 46.9362 25.9335 47.1794 25.1491C47.2065 25.0594 47.2357 24.9707 47.2672 24.8829Z" fill="#65B005"/>
<path d="M76.1406 21.481C77.0671 21.7272 77.9144 22.2093 78.6002 22.8806C79.2861 23.552 79.7872 24.3896 80.0549 25.3123C80.2981 26.0967 80.6141 28.0426 80.0047 28.4699C79.3779 28.9099 77.8332 28.9903 77.2565 28.8043C75.5564 28.2562 74.1195 27.1224 73.618 25.3123C73.4896 24.8855 73.383 24.4524 73.2988 24.0146C73.349 23.8637 73.442 23.599 73.5335 23.2785C74.0047 23.1943 74.6847 23.2161 75.0609 22.9152C75.5113 22.5312 75.8738 22.0542 76.1236 21.5169" fill="#65B005"/>
<path d="M59.0116 1.09385C56.8596 1.73845 55.148 2.81345 54.1352 3.79718C51.3741 6.47914 50.1983 10.8156 50.9406 14.5444C50.9406 14.5444 51.1412 15.4097 51.3766 16.094C51.5776 16.0813 51.779 16.1109 51.9679 16.1809C52.1567 16.251 52.3289 16.36 52.4732 16.5008L53.5444 17.303C53.8801 16.9445 54.096 16.3412 54.5562 16.1136C54.8798 15.9988 55.227 15.9674 55.566 16.0221C58.3915 16.1601 60.2508 14.1801 60.6914 14.3063C61.1319 14.4325 64.721 13.5971 65.1548 13.4488C66.2977 13.0581 67.2004 12.242 68.0289 11.3745L68.1137 11.2855L69.4404 11.7179C70.8843 12.1882 73.222 14.5047 73.5069 17.4544C73.8389 17.1527 74.1654 16.858 74.1654 16.858C74.3411 16.7053 74.5476 16.5923 74.7708 16.5268C74.994 16.4613 75.2287 16.4449 75.4588 16.4787C75.5158 16.4872 75.5722 16.4991 75.6278 16.5144C75.9471 15.2704 76.0856 13.9868 76.039 12.7031C75.8179 9.55002 74.5696 6.01757 72.5706 4.06065C69.9773 1.52149 67.8444 0.50708 62.9918 0.50708C61.6437 0.50824 60.3029 0.705898 59.0116 1.09385Z" fill="#65B005"/>
<path d="M62.6484 42.9685C62.0679 43.2149 59.9222 44.5021 59.7981 45.5703C59.7209 46.2367 60.1589 48.7048 60.3585 49.9771C61.6173 49.1705 62.7932 48.2408 63.8691 47.2016" fill="#65B005"/>
<path d="M63.0833 43.5285C62.7857 44.1855 61.8734 47.5972 62.0123 48.2313C62.1746 48.9709 65.0181 51.945 65.7676 52.6218C66.0685 51.943 67.7125 48.094 67.4399 47.2015C67.1327 46.1959 65.5073 43.9082 65.133 43.259" fill="#65B005"/>
<path d="M61.5781 40.5613C61.6481 41.1973 61.87 42.2857 61.9573 42.9086C62.5494 43.1446 63.1682 43.3067 63.7998 43.3913C64.3684 43.311 64.9201 43.1384 65.4335 42.8805C65.6194 42.1189 65.7419 41.3432 65.7996 40.5613C65.6644 40.5261 61.9181 40.5613 61.5781 40.5613Z" fill="#65B005"/>
<path d="M61.8631 48.2929C61.2995 48.7405 60.7122 49.1574 60.1038 49.5416L60.8405 49.8433C60.6349 48.5274 60.3199 47.1839 60.2913 45.8487C60.2768 45.7577 60.2804 45.6648 60.3019 45.5752C60.3234 45.4856 60.3624 45.4012 60.4167 45.3268C60.5907 45.0568 60.8055 44.8155 61.0534 44.6116C61.5469 44.1818 62.0906 43.8136 62.6725 43.515C63.245 43.2153 62.7384 42.3472 62.1662 42.6466C61.4976 42.9951 60.8749 43.4258 60.3126 43.9288C59.7948 44.3956 59.3121 44.9791 59.2891 45.7072C59.3006 46.3989 59.3726 47.0883 59.5042 47.7674C59.6191 48.5498 59.7525 49.3294 59.8746 50.1108C59.8956 50.1847 59.9331 50.2528 59.9842 50.3101C60.0354 50.3673 60.0989 50.4121 60.1699 50.441C60.2409 50.47 60.3175 50.4823 60.394 50.4772C60.4705 50.472 60.5448 50.4494 60.6113 50.4112C61.2901 49.9783 61.9451 49.509 62.5734 49.0053C62.6668 48.9107 62.7192 48.7829 62.7192 48.6497C62.7192 48.5166 62.6668 48.3888 62.5734 48.2941C62.4779 48.2028 62.3509 48.1519 62.2189 48.1519C62.0869 48.1519 61.9599 48.2028 61.8643 48.2941L61.8631 48.2929Z" fill="#4F8D00"/>
<path d="M62.6505 43.2748C62.3856 43.9288 62.174 44.6033 62.0176 45.2915C61.7887 46.1023 61.621 46.9291 61.5161 47.7651C61.4549 48.3551 61.675 48.7707 62.0176 49.2365C62.54 49.9285 63.1 50.5911 63.6951 51.2214C64.2485 51.8227 64.8097 52.4281 65.415 52.9772C65.6302 53.1725 66.064 53.1881 66.2026 52.8753C66.7721 51.6258 67.2613 50.341 67.667 49.0289C67.8401 48.4481 68.0683 47.751 67.9429 47.1396C67.7949 46.4276 67.2952 45.7247 66.9201 45.1178C66.4805 44.4071 65.9903 43.7255 65.5682 43.0043C65.2423 42.4464 64.3744 42.952 64.7021 43.5119C65.0419 44.0926 65.4333 44.6444 65.7944 45.2123C66.2293 45.8353 66.6032 46.4989 66.9108 47.1939C66.9313 47.2495 66.9469 47.3063 66.9664 47.3618C66.9928 47.436 66.9684 47.257 66.9689 47.3739C66.9714 47.4936 66.9657 47.6134 66.9519 47.7324C66.9642 47.6369 66.9323 47.837 66.9293 47.8538C66.917 47.9189 66.9035 47.9838 66.889 48.0487C66.8506 48.2226 66.8055 48.3951 66.7573 48.5665C66.5494 49.3049 66.2849 50.0274 66.0076 50.7417C65.7734 51.345 65.5775 51.825 65.3373 52.3667L66.1249 52.2649C65.025 51.255 64.007 50.1589 63.0808 48.9869C62.9022 48.77 62.7393 48.5406 62.5933 48.3006C62.5645 48.2503 62.5384 48.2 62.5118 48.1497C62.4634 48.0575 62.5048 48.2156 62.5063 48.1319C62.5088 47.9951 62.4983 48.2008 62.502 48.1228C62.505 48.0627 62.502 48.0021 62.504 47.9418C62.5766 47.2434 62.7104 46.5527 62.904 45.8778C63.0133 45.4391 63.1309 45.0024 63.2598 44.569C63.3122 44.393 63.3664 44.217 63.425 44.0426C63.4459 43.9807 63.4679 43.9194 63.4895 43.858C63.4995 43.8289 63.5116 43.8005 63.5218 43.7716C63.5557 43.6773 63.4795 43.8668 63.5173 43.7814C63.5805 43.6653 63.597 43.5294 63.5635 43.4015C63.53 43.2736 63.4491 43.1633 63.3373 43.0933C63.2222 43.027 63.0857 43.0088 62.9573 43.0425C62.829 43.0763 62.719 43.1594 62.6512 43.2738L62.6505 43.2748Z" fill="#4F8D00"/>
<path d="M63.4702 43.5251C63.6959 44.3643 63.9035 45.2215 64.0469 46.0796C64.0826 46.208 64.1675 46.3171 64.2831 46.3831C64.3987 46.449 64.5357 46.4664 64.664 46.4315C64.7904 46.3931 64.8972 46.3075 64.9625 46.1925C65.0278 46.0774 65.0466 45.9416 65.0151 45.8131C64.8716 44.9553 64.664 44.098 64.4383 43.2586C64.403 43.13 64.3181 43.0208 64.2024 42.9549C64.0867 42.8891 63.9496 42.872 63.8214 42.9075C63.6931 42.943 63.5842 43.0281 63.5185 43.1441C63.4528 43.2601 63.4358 43.3975 63.4712 43.5261L63.4702 43.5251Z" fill="#4F8D00"/>
<path d="M61.0781 40.5612C61.1488 41.1819 61.2669 41.7958 61.3733 42.411C61.4319 42.7499 61.4124 43.2004 61.7654 43.3679C62.0827 43.5089 62.4128 43.6189 62.7512 43.6962C63.1313 43.8286 63.5325 43.8896 63.9347 43.8762C64.2638 43.8254 64.5881 43.7478 64.9046 43.6441C65.1684 43.5646 65.4232 43.4579 65.6652 43.3259C65.9475 43.1599 65.9784 42.7904 66.037 42.4962C66.1741 41.8591 66.2629 41.2125 66.3026 40.562C66.302 40.452 66.2657 40.3452 66.1993 40.2577C66.1328 40.1703 66.0398 40.1068 65.9342 40.077C65.7509 40.0483 65.5652 40.0378 65.3798 40.0458C65.0676 40.0428 64.7554 40.0431 64.4435 40.0436C63.7093 40.0436 62.9753 40.0498 62.2414 40.0549C62.021 40.0564 61.8003 40.0589 61.5796 40.0591C60.9344 40.0591 60.9332 41.0648 61.5796 41.0648C62.7965 41.0648 64.0119 41.0426 65.2301 41.0502C65.3555 41.0502 65.4834 41.0519 65.61 41.055C65.6491 41.055 65.688 41.058 65.7271 41.0585C65.8389 41.06 65.7201 41.0585 65.6677 41.0467L65.2996 40.562C65.2649 41.3011 65.1481 42.0341 64.9515 42.7474L65.182 42.447C64.9915 42.548 64.7916 42.6302 64.5852 42.6923C64.2845 42.784 63.9782 42.8558 63.6682 42.9073H63.9337C63.3016 42.8246 62.6825 42.6623 62.0909 42.4243L62.442 42.7763C62.3878 42.3959 62.3166 42.0181 62.2517 41.6397C62.2165 41.4386 62.1817 41.2375 62.1493 41.0363C62.117 40.8352 62.0992 40.7166 62.0809 40.5617C62.0772 40.4295 62.0231 40.3038 61.9299 40.2103C61.8366 40.1168 61.7112 40.0626 61.5794 40.0589C61.4467 40.0597 61.3198 40.1129 61.226 40.2069C61.1322 40.301 61.079 40.4282 61.0781 40.5612Z" fill="#4F8D00"/>
<path d="M51.0568 54.9083C50.6365 54.4083 50.226 53.9005 49.8479 53.3672C49.4085 52.8031 49.0545 52.1771 48.7972 51.5094C48.7651 51.4118 48.71 51.2022 48.7052 51.1637C48.6995 51.1092 48.6966 51.0545 48.6964 50.9998C48.6964 50.9651 48.6982 50.9306 48.7014 50.8962C48.6949 50.9465 48.6972 50.9427 48.7087 50.8836C48.844 50.4045 49.005 49.933 49.1909 49.4713C49.5384 48.5446 49.9642 47.6495 50.4637 46.7956C50.7897 46.236 49.9241 45.7294 49.5976 46.288C49.0398 47.2502 48.5675 48.2597 48.1861 49.3048C47.89 50.1066 47.5485 50.8603 47.81 51.7138C48.2614 53.184 49.3762 54.4641 50.3476 55.6193C50.7641 56.1148 51.4705 55.4003 51.0568 54.9083Z" fill="#726A69"/>
<path d="M44.3871 59.1298C43.7303 58.8667 43.1293 58.4812 42.6157 57.9937C41.9212 57.3764 41.2894 56.6915 40.7298 55.9491C40.1644 55.2179 39.6809 54.4267 39.288 53.5896C38.9972 53.021 38.8476 52.3904 38.8519 51.7514C38.8645 51.4755 38.8999 51.2011 38.9577 50.9311C39.0244 50.5701 39.1069 50.2118 39.1967 49.8561C39.4261 48.9467 39.7047 48.0497 40.0044 47.1615C40.6989 45.0986 41.5069 43.0759 42.4249 41.1027C43.5473 38.6931 44.8354 36.2655 46.7675 34.4054C47.2339 33.9561 46.524 33.2457 46.0583 33.6942C44.2394 35.4454 42.9623 37.6817 41.8707 39.9382C40.8676 42.0212 39.9845 44.1601 39.2258 46.3445C38.6458 48.0057 38.0445 49.7434 37.8682 51.5053C37.705 53.1361 38.6455 54.7383 39.5468 56.0217C40.1915 56.9519 40.9358 57.8086 41.7662 58.5767C42.4535 59.2052 43.2273 59.8061 44.1218 60.0987C44.7369 60.2998 44.9994 59.3292 44.3883 59.129L44.3871 59.1298Z" fill="#726A69"/>
<path d="M80.3215 34.1701C81.165 35.8228 82.2056 37.379 83.1961 38.945C84.404 40.8544 85.6194 42.7625 86.7235 44.735C87.2343 45.6474 87.7082 46.5758 88.138 47.5294C88.7147 48.8083 89.2942 50.1113 89.5389 51.5015C89.6537 52.1382 89.6706 52.7887 89.5891 53.4305C89.5338 53.7762 89.4551 54.1176 89.3534 54.4525C89.322 54.5671 89.3649 54.4459 89.3311 54.5133C89.2942 54.586 89.2558 54.6566 89.2122 54.7258C88.8561 55.2934 88.2257 55.8402 87.6691 56.3116C86.2844 57.4839 84.7603 58.4621 83.2874 59.5142L83.8952 59.5929C83.7174 59.4016 83.5296 59.2226 83.336 59.0474C82.8581 58.6147 82.1465 59.3239 82.6269 59.7586C82.8202 59.9346 83.0083 60.1126 83.1861 60.3041C83.2647 60.3823 83.3668 60.4323 83.4766 60.4464C83.5864 60.4606 83.6978 60.4382 83.7937 60.3826C85.1517 59.4127 86.5447 58.4991 87.8504 57.4562C88.543 56.9354 89.1782 56.342 89.7453 55.6861C90.4141 54.8633 90.6157 53.835 90.6387 52.7857C90.6698 51.3572 90.2471 49.967 89.7142 48.6577C89.2478 47.5115 88.7363 46.3779 88.1625 45.2818C87.0913 43.2387 85.8586 41.2823 84.6287 39.3326C83.4526 37.4687 82.1913 35.628 81.1878 33.662C80.8937 33.0858 80.0278 33.5939 80.3217 34.1696L80.3215 34.1701Z" fill="#726A69"/>
<path d="M77.8338 47.3173C78.344 47.8234 78.7926 48.3883 79.1703 49.0002C79.5968 49.6368 79.9821 50.3002 80.3237 50.9863C80.3754 51.0919 80.4491 51.1874 80.4055 51.3005C80.2919 51.4916 80.1518 51.6655 79.9895 51.8172C79.6813 52.1797 79.3536 52.5249 79.0143 52.858C78.3578 53.5023 77.6555 54.0966 76.9438 54.6781C76.8972 54.7248 76.8603 54.7803 76.8351 54.8413C76.8099 54.9023 76.7969 54.9677 76.7969 55.0337C76.7969 55.0998 76.8099 55.1652 76.8351 55.2262C76.8603 55.2872 76.8972 55.3426 76.9438 55.3893C77.2381 55.6272 77.5359 55.8603 77.8375 56.0887C77.9526 56.1553 78.0891 56.1736 78.2176 56.1399C78.3461 56.1062 78.4561 56.023 78.5238 55.9085C78.5877 55.7926 78.6046 55.6564 78.5711 55.5283C78.5376 55.4002 78.4562 55.29 78.3438 55.2204C78.1109 55.0431 77.8807 54.8623 77.653 54.6781V55.3893C78.4569 54.7479 79.2254 54.0631 79.9551 53.3379C80.3162 52.9731 80.6576 52.5894 80.978 52.1882C81.3403 51.7314 81.5655 51.3113 81.3122 50.7374C80.9635 49.9831 80.5542 49.2584 80.0883 48.5706C79.6536 47.8559 79.1348 47.1962 78.5431 46.6056C78.0702 46.1661 77.3593 46.8756 77.834 47.3168L77.8338 47.3173Z" fill="#726A69"/>
<path d="M56.7891 59.0992C58.789 59.0467 60.7886 59.216 62.7515 59.6041C63.2475 59.7084 63.7339 59.8429 64.2254 59.9648C64.7044 60.0837 65.2989 59.8773 65.7846 59.8059C66.8154 59.6538 67.8521 59.5415 68.8904 59.454C69.5289 59.4002 69.5346 58.3941 68.8904 58.4484C67.3651 58.5773 65.8445 58.7641 64.3362 59.0266H64.6028C62.0573 58.3365 59.425 58.0221 56.7891 58.0934C56.1441 58.1019 56.1424 59.1078 56.7891 59.099V59.0992Z" fill="#C3DFA2"/>
<path d="M53.5943 58.2322H53.5896L53.723 58.2141C53.7104 58.2156 53.6977 58.2162 53.6851 58.2159C53.6179 58.2128 53.5512 58.2278 53.4918 58.2594C53.4022 58.2987 53.3257 58.3628 53.2711 58.4441C53.2165 58.5255 53.1862 58.6207 53.1836 58.7187L53.2014 58.8524C53.2245 58.9364 53.269 59.0129 53.3305 59.0744L53.4308 59.1529C53.5076 59.198 53.5951 59.2216 53.6841 59.2215H53.7059H53.7162H53.722L53.8551 59.2036H53.8566H53.8599C53.9839 59.164 54.0903 59.0823 54.1608 58.9726C54.223 58.8536 54.2408 58.7162 54.2109 58.5852L54.1608 58.465C54.1172 58.3904 54.0552 58.3282 53.9807 58.2845L53.8609 58.2342C53.7737 58.2101 53.6816 58.2101 53.5943 58.2342V58.2322Z" fill="#726A69"/>
<path d="M80.0229 64.4067C80.7887 68.2135 81.5329 72.0242 82.2796 75.8352C82.3846 76.3715 82.49 76.9079 82.5958 77.4442L83.2127 76.8257C80.6665 76.0489 77.9386 75.8071 75.2906 75.7042C72.5963 75.5675 69.8951 75.6988 67.2266 76.0964C66.1904 76.2246 65.1799 76.5114 64.2304 76.9467H64.7364C63.7918 76.5092 62.79 76.2088 61.761 76.0544C60.3614 75.8067 58.9487 75.64 57.53 75.5552C54.5093 75.3305 51.4742 75.3914 48.465 75.7372C47.2112 75.8923 45.912 76.0788 44.7335 76.5593L45.3504 77.1777C45.6317 76.4218 45.8055 75.61 46.0244 74.8346C46.4943 73.1709 46.9677 71.5079 47.4447 69.8458C47.7589 68.7564 48.0772 67.6682 48.3995 66.5811C48.5843 65.9596 47.6167 65.6942 47.4324 66.3139C46.474 69.5381 45.57 72.7779 44.649 76.013C44.564 76.3109 44.4925 76.6196 44.3842 76.9105C44.3614 76.9961 44.3615 77.0862 44.3844 77.1717C44.4074 77.2573 44.4523 77.3353 44.5148 77.398C44.5773 77.4606 44.6551 77.5057 44.7405 77.5287C44.8258 77.5517 44.9157 77.5517 45.0011 77.5289C45.9154 77.1858 46.8668 76.9512 47.8356 76.83C49.0953 76.6484 50.3639 76.5351 51.6358 76.4906C54.4124 76.3596 57.195 76.459 59.9553 76.788C61.0394 76.9083 62.1119 77.1169 63.1622 77.412C63.366 77.4721 63.5681 77.5377 63.7672 77.6131C63.9192 77.6699 64.0682 77.7347 64.2133 77.8072C64.3072 77.8521 64.4107 77.8731 64.5146 77.8684C64.6185 77.8636 64.7197 77.8333 64.8091 77.7801L64.9225 77.7268C64.9475 77.7147 64.9751 77.7031 65.0014 77.6918C64.9553 77.7117 64.9636 77.7077 65.0052 77.6918C65.2028 77.6139 65.4034 77.545 65.607 77.4834C66.7053 77.1747 67.8304 76.9718 68.9671 76.8775C70.4304 76.7344 71.9001 76.6661 73.3704 76.6729C76.2711 76.6762 79.2393 76.8552 82.0645 77.5528C82.3607 77.626 82.6548 77.7071 82.9466 77.7959C83.0319 77.8178 83.1214 77.817 83.2063 77.7937C83.2912 77.7704 83.3686 77.7253 83.4308 77.6629C83.4931 77.6005 83.538 77.5229 83.5613 77.4378C83.5846 77.3527 83.5853 77.263 83.5635 77.1775C82.9266 73.9754 82.3097 70.7695 81.6746 67.5669C81.4482 66.4243 81.2203 65.2819 80.9908 64.1397C80.8634 63.5057 79.8965 63.7739 80.0236 64.407L80.0229 64.4067Z" fill="#C3DFA2"/>
<path d="M64.0417 61.5141C63.9359 65.4247 64.0068 69.3451 64.0181 73.2567C64.0199 73.8304 64.0229 74.4043 64.0229 74.978C64.0229 75.6251 65.0259 75.6264 65.0259 74.978C65.0259 71.3196 65.0008 67.6622 65.0174 64.0028C65.0211 63.1732 65.0224 62.3435 65.0447 61.5139C65.0622 60.8665 64.0592 60.867 64.0417 61.5139V61.5141Z" fill="#C3DFA2"/>
<path d="M51.4877 36.7047C50.6196 36.2368 49.7896 35.6895 48.9613 35.1553C48.0697 34.5796 47.1732 34.0019 46.3217 33.3676L46.2251 33.2949C46.1958 33.2728 46.2906 33.3485 46.2138 33.2861C46.1637 33.2451 46.1135 33.2027 46.0649 33.1604C46.0512 33.1459 46.0367 33.1321 46.0215 33.1192C45.9618 33.081 46.0511 33.0973 46.027 33.132C46.0584 33.0865 46.0669 33.2019 46.0544 33.1657C46.0636 33.1929 45.9791 33.7188 46.0067 33.7102C46.0343 33.7017 46.0483 33.6554 46.0749 33.6444C46.1419 33.617 45.9939 33.6979 46.095 33.628C46.1288 33.6046 46.1619 33.581 46.1953 33.5584C46.2833 33.4998 46.3741 33.4453 46.4653 33.392C46.7021 33.2534 46.9455 33.1262 47.19 33.002C48.5614 32.3049 49.9769 31.6947 51.3801 31.0662C52.2756 30.664 53.174 30.2688 54.0496 29.8253C54.6191 29.537 55.1683 29.2016 55.744 28.9268L55.0579 28.7466C56.8684 32.0412 58.8945 35.2262 60.9301 38.3846C61.4433 39.181 61.9623 39.9734 62.487 40.7618L63.055 40.0232C61.892 39.8558 60.7455 39.7396 59.5906 39.5335C57.941 39.2417 56.3221 38.7963 54.755 38.2031C53.6355 37.7732 52.5442 37.2727 51.4877 36.7047C50.918 36.401 50.4094 37.2686 50.9814 37.573C52.7776 38.5419 54.6712 39.3172 56.6304 39.8859C58.0725 40.2847 59.5414 40.5788 61.0256 40.7658C61.6209 40.8458 62.2744 40.921 62.7877 40.9949C63.1761 41.0507 63.6249 40.6618 63.3539 40.2563C61.2521 37.1109 59.2369 33.9074 57.3084 30.6459C56.8363 29.8497 56.3706 29.0492 55.9248 28.238C55.8555 28.1251 55.7455 28.0434 55.6177 28.0098C55.4899 27.9762 55.3541 27.9932 55.2385 28.0575C54.7237 28.3031 54.2324 28.6033 53.7249 28.864C52.8917 29.2913 52.0376 29.675 51.1835 30.0584C49.679 30.7344 48.1564 31.385 46.6845 32.1332C46.1328 32.4128 44.5052 33.1106 45.3806 33.893C46.1616 34.5321 46.9884 35.1129 47.8543 35.6307C48.8766 36.3012 49.9034 36.9898 50.9802 37.5703C51.5499 37.879 52.0572 37.0112 51.4877 36.7047Z" fill="#726A69"/>
<path d="M75.5636 37.5726C76.4914 37.0627 77.38 36.477 78.2677 35.902C79.1922 35.3032 80.1326 34.7084 81.0009 34.0273C81.2785 33.8094 81.5834 33.5084 81.3487 33.1275C81.1278 32.7685 80.6353 32.545 80.2798 32.3527C78.8893 31.601 77.4237 30.9826 75.9823 30.3375C75.0475 29.9189 74.1075 29.5079 73.1905 29.0521C72.556 28.7358 71.9465 28.3637 71.3073 28.0585C71.192 27.9931 71.0557 27.9754 70.9276 28.0091C70.7994 28.0428 70.6894 28.1253 70.621 28.239C69.0761 31.5432 67.214 34.7119 65.3396 37.8363C64.8704 38.6187 64.3939 39.3968 63.9103 40.1706C63.7247 40.4662 63.9605 40.9751 64.3434 40.9271C65.5984 40.7689 66.8599 40.6505 68.1047 40.4185C69.5731 40.1378 71.0077 39.7014 72.384 39.1165C73.4696 38.6561 74.5311 38.1408 75.5646 37.5726C76.1318 37.2634 75.626 36.3948 75.0583 36.7043C73.4797 37.594 71.8178 38.3261 70.0964 38.8899C68.8847 39.2585 67.6434 39.5212 66.3865 39.6751C65.7062 39.7626 65.0244 39.8357 64.3439 39.9214L64.7769 40.6779C66.7077 37.5975 68.5462 34.4462 70.2433 31.229C70.6751 30.4104 71.0959 29.5853 71.4878 28.7466L70.8018 28.9269C71.2727 29.1516 71.7223 29.4259 72.1857 29.6662C72.9756 30.0758 73.784 30.4456 74.5949 30.8101C76.0385 31.4597 77.4929 32.0893 78.9159 32.7836C79.4037 33.0077 79.8767 33.2626 80.3322 33.5469C80.3725 33.5733 80.4119 33.6012 80.4515 33.6286C80.5333 33.6852 80.4445 33.6268 80.4598 33.6349C80.4751 33.6429 80.5065 33.6922 80.5227 33.6927C80.5323 33.6927 80.5388 33.7178 80.5478 33.7196C80.5428 33.7196 80.4977 33.1414 80.4874 33.1741C80.5177 33.0805 80.5754 33.0823 80.4899 33.1532C80.4413 33.1934 80.3939 33.2349 80.3452 33.2749C80.2755 33.3322 80.4152 33.2223 80.3362 33.2819C80.3046 33.3058 80.273 33.3299 80.2412 33.3536C80.1622 33.4124 80.0826 33.4704 80.0022 33.5275C79.8068 33.6676 79.6093 33.8041 79.4109 33.9403C78.9358 34.2655 78.4566 34.5844 77.9733 34.8972C77.0175 35.5196 76.0588 36.1542 75.0588 36.7043C74.4904 37.0155 74.9966 37.8841 75.5636 37.5726Z" fill="#726A69"/>
<path d="M68.3678 38.274C69.9642 37.7769 71.507 37.1206 72.9729 36.3151C74.4022 35.5618 75.7827 34.7189 77.1061 33.7913C77.6304 33.4222 77.1299 32.5498 76.5998 32.9229C75.3053 33.8305 73.9561 34.6569 72.5599 35.3975C71.1422 36.1827 69.6487 36.8215 68.1022 37.3041C67.4841 37.4856 67.7472 38.4565 68.3688 38.2738L68.3678 38.274Z" fill="#726A69"/>
<path d="M59.08 37.6023C57.4321 36.9411 55.822 36.1886 54.2573 35.3484C52.826 34.6142 51.4486 33.7788 50.1356 32.8485C50.0205 32.7821 49.884 32.7638 49.7556 32.7975C49.6272 32.8313 49.5171 32.9143 49.4493 33.0288C49.3851 33.1446 49.368 33.2808 49.4016 33.409C49.4351 33.5372 49.5167 33.6475 49.6293 33.7168C50.9706 34.6667 52.3784 35.5183 53.842 36.2648C55.4559 37.1241 57.1155 37.8943 58.8132 38.5719C58.9415 38.6065 59.0783 38.5889 59.1938 38.523C59.3092 38.4571 59.3942 38.3482 59.4301 38.22C59.4623 38.0914 59.4437 37.9553 59.3783 37.8401C59.3129 37.7249 59.2057 37.6394 59.079 37.6015L59.08 37.6023Z" fill="#726A69"/>
<path d="M79.8367 38.9135C79.4241 39.7044 79.0801 40.5295 78.8086 41.3795C78.4959 42.1897 78.2367 43.0196 78.0327 43.8639C77.8585 44.8042 77.7367 45.7536 77.6679 46.7075C77.5345 48.0331 77.4129 49.36 77.2667 50.6844C77.0892 52.2967 76.8667 53.9046 76.6491 55.5114C76.6183 55.6399 76.6375 55.7753 76.7027 55.8901C76.7679 56.005 76.8742 56.0907 77.0001 56.1298C77.1285 56.1644 77.2653 56.1468 77.3808 56.0809C77.4963 56.015 77.5813 55.9061 77.6172 55.7778C77.9934 52.9981 78.3269 50.2188 78.6 47.427C78.6982 46.4232 78.777 45.4103 78.9467 44.4152C79.1064 43.6283 79.3297 42.8558 79.6145 42.1053C79.8948 41.1785 80.2593 40.2794 80.7035 39.4193C81.0245 38.8567 80.1581 38.3494 79.8377 38.912L79.8367 38.9135Z" fill="#726A69"/>
<path d="M47.8142 39.6445C48.1889 40.3705 48.4943 41.1304 48.7262 41.9141C49.0054 42.6791 49.2317 43.4625 49.4032 44.2587C49.5679 45.1276 49.6381 46.0165 49.7257 46.8954C49.851 48.1587 49.9686 49.4228 50.1076 50.6846C50.2753 52.206 50.4882 53.7222 50.6888 55.2397C50.693 55.3717 50.7471 55.4972 50.8403 55.5906C50.9335 55.6841 51.0586 55.7384 51.1903 55.7425C51.4335 55.7425 51.7277 55.5107 51.6918 55.2397C51.3373 52.5571 51.0257 49.8717 50.757 47.1835C50.6602 46.1993 50.5715 45.2103 50.4125 44.2338C50.2668 43.4607 50.0612 42.7002 49.7976 41.9591C49.5189 40.9835 49.1446 40.0379 48.6803 39.1361C48.3603 38.5743 47.4935 39.0803 47.8142 39.6437V39.6445Z" fill="#726A69"/>
<path d="M76.1652 16.4327C76.5612 14.7803 76.6393 13.0673 76.3951 11.3856C76.1568 9.73453 75.6693 8.12947 74.9493 6.62552C74.3004 5.28473 73.3936 4.08577 72.281 3.09759C71.3844 2.2575 70.3603 1.56579 69.2469 1.04841C68.0239 0.532968 66.7269 0.216087 65.4046 0.109672C63.6845 -0.0843334 61.9456 -0.0290443 60.2413 0.273838C57.3729 0.829689 54.567 2.24508 52.7633 4.59444C51.6978 6.02054 50.9421 7.65455 50.5448 9.39126C50.1475 11.128 50.1173 12.9289 50.4564 14.6779C50.58 15.3125 51.5469 15.044 51.4235 14.4107C50.8787 11.4887 51.4532 8.46818 53.0324 5.95226C54.4867 3.65671 56.8215 2.22371 59.4015 1.5042C60.9856 1.09106 62.6251 0.932967 64.2586 1.03584C65.5699 1.06453 66.8703 1.28135 68.1202 1.67968C69.1426 2.03965 70.0945 2.57563 70.9332 3.26351C71.9581 4.05219 72.8366 5.0154 73.5287 6.10914C74.4042 7.6061 75.007 9.24726 75.3091 10.9559C75.6411 12.6809 75.6032 14.4571 75.1978 16.1662C75.0503 16.7947 76.0172 17.0645 76.1649 16.4337L76.1652 16.4327Z" fill="#4F8D00"/>
<path d="M89.2773 56.2225C92.4303 56.2225 95.5834 56.2191 98.7365 56.2122C99.3291 56.2122 99.9218 56.2117 100.515 56.2107C101.16 56.2107 101.161 55.2051 100.515 55.2051C97.6518 55.2051 94.789 55.2085 91.926 55.2154C91.0432 55.2154 90.1603 55.2159 89.2773 55.2169C88.6321 55.2169 88.6309 56.2225 89.2773 56.2225Z" fill="#726A69"/>
<path d="M28.4845 56.2225C31.5293 56.2225 34.5741 56.2191 37.6189 56.2122C38.1962 56.2122 38.7733 56.2117 39.3504 56.2107C39.9958 56.2107 39.9968 55.2051 39.3504 55.2051C36.5959 55.2051 33.8413 55.2085 31.0865 55.2154C30.2193 55.2154 29.3519 55.2159 28.4845 55.2169C27.839 55.2169 27.838 56.2225 28.4845 56.2225Z" fill="#726A69"/>
<path d="M54.211 56.2413C56.9818 56.2413 59.7526 56.2401 62.5234 56.2377C65.8732 56.2357 69.223 56.2339 72.5731 56.2322C73.9812 56.2322 75.3892 56.2317 76.7973 56.2307C77.4425 56.2307 77.4437 55.2251 76.7973 55.2251C73.9733 55.2251 71.1493 55.2263 68.3254 55.2286C64.9903 55.2306 61.6553 55.2325 58.3203 55.2341C56.9504 55.2341 55.5807 55.2347 54.2112 55.2357C53.5658 55.2357 53.5643 56.2413 54.211 56.2413Z" fill="#726A69"/>
<path d="M43.8936 51.343C43.724 51.4184 43.8391 51.3656 43.884 51.351C43.9189 51.3399 43.9542 51.3304 43.9898 51.3221C44.0325 51.3123 44.0756 51.3045 44.1187 51.2969C44.1568 51.2904 44.2263 51.2919 44.0731 51.3025C44.0949 51.301 44.1165 51.2974 44.1383 51.2952C44.3309 51.277 44.5246 51.2734 44.7178 51.2846C44.8146 51.2897 44.9111 51.2992 45.0077 51.3098C45.0969 51.3191 44.9106 51.2944 44.9733 51.305C44.9964 51.3088 45.0194 51.3118 45.0425 51.3156C45.0876 51.3228 45.1325 51.3311 45.1772 51.3407C45.2637 51.3585 45.3499 51.3794 45.4342 51.4058C45.4703 51.4171 45.5056 51.4309 45.5413 51.443C45.6205 51.4719 45.5024 51.4221 45.4891 51.4206C45.5079 51.4264 45.5257 51.4349 45.542 51.4458C45.5989 51.4791 45.6617 51.5008 45.727 51.5098C45.7922 51.5188 45.8586 51.5147 45.9223 51.498C45.986 51.4812 46.0458 51.452 46.0983 51.4121C46.1507 51.3722 46.1948 51.3223 46.2281 51.2653C46.2613 51.2083 46.283 51.1452 46.2919 51.0798C46.3009 51.0144 46.2969 50.9478 46.2801 50.884C46.2634 50.8201 46.2343 50.7602 46.1945 50.7076C46.1547 50.655 46.1049 50.6107 46.048 50.5774C45.6304 50.3869 45.1778 50.2855 44.719 50.2795C44.2663 50.238 43.8103 50.3051 43.3885 50.4751C43.274 50.5427 43.1908 50.653 43.1571 50.7818C43.1234 50.9107 43.1419 51.0477 43.2085 51.1629C43.2783 51.2752 43.3882 51.3565 43.5158 51.39C43.6435 51.4236 43.7791 51.4069 43.8948 51.3435L43.8936 51.343Z" fill="#726A69"/>
<path d="M81.2575 51.6966C81.3216 51.6534 81.388 51.6137 81.4565 51.5779C81.4913 51.5595 81.5266 51.5421 81.5624 51.5257C81.5827 51.5161 81.6035 51.5073 81.6238 51.4977C81.6802 51.4714 81.521 51.5392 81.5799 51.5161C81.7484 51.4491 81.9205 51.3917 82.0955 51.3441C82.2627 51.2991 82.432 51.2657 82.603 51.2376C82.6727 51.226 82.5586 51.2423 82.5476 51.2446C82.5676 51.2403 82.59 51.2393 82.6108 51.237C82.6474 51.233 82.684 51.2295 82.7206 51.2267C82.7938 51.2215 82.8673 51.2189 82.9408 51.2205C83.0734 51.2192 83.2002 51.1658 83.294 51.0718C83.3878 50.9778 83.441 50.8506 83.4423 50.7176C83.4397 50.5851 83.386 50.4587 83.2925 50.365C83.199 50.2712 83.073 50.2174 82.9408 50.2148C82.5645 50.216 82.1902 50.2696 81.8287 50.3742C81.4469 50.4655 81.0827 50.6189 80.7504 50.8283C80.6356 50.8956 80.5521 51.0059 80.5184 51.1349C80.4846 51.2639 80.5034 51.4011 80.5705 51.5162C80.6376 51.6314 80.7477 51.7151 80.8763 51.7489C81.005 51.7827 81.1418 51.7639 81.2567 51.6966H81.2575Z" fill="#726A69"/>
<path d="M81.6608 77.4303C81.7676 78.0538 81.8865 78.6755 81.9843 79.3002L82.6014 78.6818C80.1085 78.3184 77.5944 78.1196 75.0755 78.0867C72.5691 78.0164 70.0608 78.1194 67.5685 78.3949C66.4428 78.5102 65.3285 78.7188 64.2372 79.0186H64.504C61.8485 78.2021 59.0436 77.8725 56.2773 77.742C53.6821 77.6084 51.0803 77.6906 48.4986 77.9876C47.432 78.0959 46.3755 78.2884 45.3391 78.5633L45.9562 79.182C46.2015 78.3949 46.4474 77.6078 46.7067 76.8251C46.9108 76.2095 45.9424 75.9452 45.7396 76.5579C45.4803 77.3403 45.2343 78.1274 44.9891 78.9146C44.9668 79.0001 44.9672 79.09 44.9903 79.1754C45.0134 79.2607 45.0584 79.3385 45.1207 79.401C45.1831 79.4635 45.2607 79.5086 45.3458 79.5318C45.4309 79.5549 45.5206 79.5553 45.6059 79.533C47.4753 78.9998 49.4675 78.8497 51.4006 78.7537C54.042 78.6141 56.6904 78.6943 59.3186 78.9932C60.6126 79.1395 61.8955 79.3708 63.1592 79.6856C63.4389 79.7565 63.717 79.8328 63.9935 79.9144C64.1543 79.9829 64.3301 80.0083 64.5037 79.988C64.6211 79.9629 64.7379 79.9209 64.8548 79.8902C65.3142 79.7698 65.7803 79.6743 66.2482 79.5931C68.6894 79.212 71.1584 79.04 73.6287 79.0787C76.5416 79.0486 79.4526 79.24 82.3366 79.6512C82.4218 79.672 82.5108 79.6704 82.5952 79.6467C82.6796 79.623 82.7565 79.5779 82.8184 79.5158C82.8804 79.4537 82.9254 79.3766 82.949 79.292C82.9727 79.2074 82.9742 79.1181 82.9535 79.0327C82.8552 78.4077 82.7368 77.7863 82.6302 77.1628C82.5941 77.0346 82.5091 76.9259 82.3936 76.86C82.2782 76.7941 82.1415 76.7765 82.0131 76.8108C81.8864 76.8487 81.7791 76.9341 81.7137 77.0494C81.6483 77.1646 81.6298 77.3007 81.6621 77.4293L81.6608 77.4303Z" fill="#C3DFA2"/>
<path d="M68.6376 32.6282C68.4405 32.651 68.2469 32.6976 68.0609 32.767C67.8392 32.8243 67.6166 32.8772 67.3931 32.9256C66.9675 33.0182 66.5388 33.0946 66.107 33.1549C65.2229 33.2742 64.3313 33.3291 63.4392 33.3191C61.6989 33.3051 59.9689 33.049 58.2988 32.5581C57.6782 32.3758 57.4129 33.346 58.032 33.528C59.7524 34.0308 61.5328 34.2983 63.3246 34.3232C64.2389 34.3366 65.1528 34.2844 66.0596 34.1671C66.5014 34.11 66.9418 34.0414 67.3788 33.9536C67.6033 33.9089 67.8268 33.8597 68.0494 33.8061C68.1605 33.7792 68.2714 33.7512 68.3819 33.7221C68.4692 33.6999 68.5545 33.6704 68.6369 33.6338C69.2823 33.6338 69.2833 32.6282 68.6369 32.6282H68.6376Z" fill="#726A69"/>
<path d="M73.275 21.8814C73.2472 22.3516 73.1597 22.8162 73.0145 23.2641C72.9643 23.4303 72.9101 23.5952 72.8552 23.7599C72.8384 23.8102 72.8216 23.8592 72.8051 23.9087C72.7885 23.9582 72.7512 24.0379 72.7935 23.9406C72.5865 24.4005 72.3476 24.8452 72.0786 25.2716C71.3199 26.5532 70.3526 27.6985 69.2168 28.66C68.5961 29.1896 67.8631 29.5705 67.0736 29.7734C66.4452 29.9195 66.7113 30.8894 67.3404 30.7431C68.9643 30.366 70.3126 29.1764 71.3723 27.9395C72.2822 26.9116 73.0421 25.7594 73.6291 24.5174C74.0101 23.6882 74.2304 22.794 74.2785 21.8824C74.3016 21.2353 73.2986 21.2363 73.2755 21.8824L73.275 21.8814Z" fill="#726A69"/>
<path d="M52.2613 20.5602C52.4271 22.1906 52.8515 23.784 53.5183 25.2802C54.4286 27.1961 55.8499 28.822 57.6249 29.9779C58.5333 30.5799 59.559 30.9814 60.6339 31.1558C60.7621 31.187 60.8974 31.1679 61.012 31.1025C61.1267 31.0371 61.2121 30.9302 61.2508 30.8038C61.2851 30.6751 61.2675 30.5381 61.2018 30.4224C61.1361 30.3066 61.0276 30.2215 60.8997 30.1854C59.0765 29.9121 57.5291 28.8592 56.2799 27.5403C55.008 26.1833 54.1057 24.521 53.6595 22.7134C53.4815 22.0051 53.349 21.286 53.2628 20.5607C53.2588 20.4286 53.2047 20.303 53.1115 20.2095C53.0183 20.1161 52.893 20.0618 52.7613 20.0579C52.6285 20.0587 52.5014 20.1119 52.4075 20.206C52.3136 20.3001 52.2606 20.4276 52.2598 20.5607L52.2613 20.5602Z" fill="#726A69"/>
<path d="M69.307 12.2027C69.6902 12.3499 70.048 12.5562 70.3675 12.8143C70.8284 13.1795 71.2419 13.601 71.5984 14.0691C72.4239 15.1155 72.9204 16.3844 73.0247 17.7144C73.0646 18.3573 74.0678 18.3618 74.0277 17.7144C73.9151 16.1476 73.333 14.6514 72.3577 13.422C71.642 12.4978 70.701 11.6119 69.5743 11.233C68.961 11.0264 68.6967 11.9973 69.3078 12.2027H69.307Z" fill="#4F8D00"/>
<path d="M76.0063 21.966C78.2466 22.5322 79.6478 24.5894 79.8336 26.8289C79.8642 27.1982 79.9113 27.7606 79.7293 28.0409C79.6917 28.0987 79.7293 28.055 79.647 28.1008C79.5636 28.1463 79.4758 28.1834 79.385 28.2114C79.1465 28.2872 78.9009 28.3387 78.652 28.365C78.2026 28.4363 77.7431 28.4113 77.304 28.2916C76.761 28.1119 76.2469 27.8543 75.7776 27.5268C74.5394 26.6612 74.0447 25.3288 73.7796 23.889C73.6625 23.2535 72.6959 23.5227 72.8125 24.1565C73.0938 25.6848 73.6555 27.1158 74.8937 28.1101C75.892 28.912 77.1096 29.4689 78.4043 29.391C79.0139 29.3542 79.7401 29.2653 80.2561 28.9042C80.7268 28.5759 80.8348 27.9836 80.8542 27.4441C80.8875 26.2007 80.5865 24.9711 79.9828 23.8845C79.5901 23.1773 79.059 22.5568 78.4213 22.0605C77.7835 21.5642 77.0524 21.2021 76.2716 20.9961C75.6447 20.838 75.3784 21.8077 76.0051 21.966H76.0063Z" fill="#4F8D00"/>
<path d="M50.5349 20.9559C47.9797 21.8496 46.4589 24.3267 46.3762 26.9782C46.3609 27.4737 46.3922 28.049 46.6909 28.4655C47.0201 28.9243 47.6708 29.0764 48.1976 29.1579C48.7799 29.2661 49.3769 29.2681 49.9599 29.1639C51.2943 28.8109 52.4732 28.022 53.3103 26.9219C53.7545 26.2569 54.0726 25.5154 54.2486 24.7347C54.4226 24.1105 53.4552 23.844 53.2814 24.4672C53.1498 25.0489 52.9335 25.608 52.6395 26.1265C52.3612 26.5643 52.007 26.9486 51.5936 27.2613C51.1618 27.5869 50.6854 27.8484 50.1791 28.0376C49.7742 28.1943 49.3395 28.2584 48.9068 28.2252C48.4491 28.2293 47.9964 28.1306 47.5818 27.9363C47.5005 27.8908 47.487 27.8936 47.4441 27.7432C47.393 27.5431 47.3703 27.3368 47.3767 27.1303C47.3734 26.17 47.5998 25.2229 48.0369 24.3684C48.6185 23.2338 49.6058 22.3611 50.8015 21.9248C51.407 21.7129 51.1465 20.7409 50.5349 20.9549V20.9559Z" fill="#4F8D00"/>
<path d="M62.3663 66.7391C62.0186 66.4972 61.623 66.3334 61.2064 66.2588C60.7898 66.1842 60.362 66.2006 59.9523 66.3069C59.8241 66.3423 59.7151 66.4274 59.6494 66.5434C59.5837 66.6594 59.5667 66.7968 59.602 66.9254C59.6374 67.0539 59.7222 67.1632 59.8379 67.2291C59.9536 67.2949 60.0906 67.312 60.2189 67.2766C60.2612 67.2658 60.3036 67.2555 60.3465 67.2467C60.3756 67.2406 60.4536 67.2416 60.4756 67.224C60.3964 67.2343 60.3845 67.2362 60.44 67.2298C60.4616 67.2275 60.4834 67.2255 60.5052 67.224C60.5489 67.2208 60.5925 67.2185 60.6361 67.2177C60.7127 67.2161 60.7891 67.218 60.8653 67.2235C60.9081 67.2336 60.952 67.238 60.996 67.2366C60.9167 67.2257 60.9047 67.2245 60.9598 67.2331C60.9814 67.2366 61.003 67.2406 61.0245 67.2446C61.1103 67.2615 61.1952 67.2828 61.2788 67.3085C61.3164 67.3201 61.4842 67.3553 61.4947 67.3864C61.4252 67.3568 61.4155 67.353 61.4649 67.3751C61.4847 67.3844 61.5045 67.3937 61.524 67.4035C61.5632 67.4228 61.6018 67.4433 61.6399 67.4651C61.7157 67.5086 61.7892 67.5561 61.8601 67.6074C61.975 67.6742 62.1117 67.6927 62.2402 67.659C62.3688 67.6252 62.4788 67.5419 62.5464 67.4272C62.61 67.3112 62.6268 67.1751 62.5933 67.0471C62.5598 66.9191 62.4785 66.8088 62.3663 66.7391Z" fill="#C3DFA2"/>
<path d="M61.659 72.2892C58.2262 71.477 54.4709 71.2836 51.0296 72.1469C50.4027 72.3038 50.6687 73.274 51.2961 73.1166C54.5617 72.297 58.1354 72.4881 61.3925 73.2589C62.0194 73.4075 62.2882 72.4381 61.659 72.2892Z" fill="#C3DFA2"/>
<path d="M61.7909 69.6555C60.5141 69.027 58.98 68.903 57.5815 68.8276C55.851 68.7233 54.1142 68.8182 52.4052 69.1104C52.2774 69.1467 52.169 69.232 52.1033 69.3477C52.0376 69.4635 52.02 69.6005 52.0542 69.7291C52.0919 69.8563 52.1772 69.9638 52.2922 70.0294C52.4072 70.095 52.543 70.1135 52.6713 70.0811C54.2616 69.8161 55.8765 69.7313 57.4857 69.8284C58.7194 69.8903 60.2052 69.9939 61.2827 70.5238C61.8594 70.8077 62.3692 69.9408 61.7889 69.6555H61.7909Z" fill="#C3DFA2"/>
<path d="M67.6744 11.0188C66.785 11.9467 65.8308 12.7693 64.565 13.0898C63.5846 13.3377 62.5924 13.5584 61.5949 13.7271C61.4843 13.7457 61.3734 13.7636 61.2624 13.7797C61.2277 13.7847 61.1814 13.7917 61.0683 13.8026C61.0068 13.8083 60.9454 13.8141 60.8837 13.8154C60.7751 13.8179 60.712 13.8028 60.8265 13.8217C60.4735 13.7944 60.1227 13.8979 59.8406 14.1125C58.8376 14.7046 57.8569 15.269 56.6891 15.4626C56.2839 15.5229 55.8734 15.5398 55.4647 15.5128C54.9963 15.49 54.5241 15.5013 54.1302 15.7894C53.8588 16.011 53.6294 16.2799 53.4531 16.5831C53.3528 16.7362 53.1883 17.0607 52.9947 17.0776C52.3561 17.1309 52.3506 18.137 52.9947 18.0832C53.7352 18.0213 54.0562 17.4637 54.4413 16.9066C54.501 16.794 54.5879 16.6983 54.6942 16.6283C54.8005 16.5583 54.9227 16.5163 55.0494 16.5061C55.4679 16.4775 55.8882 16.5451 56.3095 16.5117C57.6635 16.4043 58.8827 15.8625 60.0334 15.1679C60.1886 15.0744 60.3423 14.9779 60.5011 14.8901C60.5648 14.8533 60.6303 14.8197 60.6974 14.7896C60.5811 14.8398 60.8183 14.7976 60.659 14.8016C60.4401 14.8074 60.6841 14.8139 60.7711 14.8185C60.8315 14.8209 60.8919 14.82 60.9522 14.8157C61.1806 14.8024 61.409 14.7654 61.6352 14.7315C62.6633 14.5734 63.6829 14.3418 64.6914 14.0924C65.2013 13.9759 65.694 13.7939 66.1573 13.5509C66.9888 13.0616 67.7401 12.4468 68.3848 11.728C68.8321 11.2614 68.124 10.5492 67.6754 11.0168L67.6744 11.0188Z" fill="#4F8D00"/>
<path d="M57.017 13.312C56.9821 13.244 56.9649 13.1682 56.967 13.0918C56.9691 13.0153 56.9904 12.9406 57.029 12.8746C57.0944 12.8067 57.1769 12.7577 57.2677 12.7331L58.1955 12.3896C58.9025 13.2385 59.4937 14.1778 59.9536 15.183C59.4014 15.5744 58.785 15.8655 58.1323 16.043L57.0493 13.3965C57.0383 13.3694 57.027 13.341 57.017 13.312Z" fill="#4F8D00"/>
<path d="M57.5018 13.1783C57.4915 13.1502 57.4827 13.1215 57.4755 13.0924C57.4677 13.0572 57.466 13.0537 57.4702 13.0821C57.4702 13.0821 57.3684 13.2314 57.3674 13.2367C57.3732 13.2063 57.573 13.1547 57.6347 13.1321L58.3308 12.8747L57.8428 12.7454C58.5171 13.5651 59.0818 14.4694 59.5229 15.4354L59.7027 14.7476C59.1866 15.1139 58.611 15.3877 58.0016 15.5569L58.6184 15.9088C58.2465 15.0005 57.8428 14.0987 57.5023 13.1778C57.4641 13.0511 57.3788 12.9438 57.264 12.8783C57.1492 12.8128 57.0137 12.794 56.8855 12.8259C56.7576 12.8621 56.6492 12.9472 56.5835 13.063C56.5178 13.1787 56.5002 13.3157 56.5344 13.4443C56.8749 14.3652 57.2786 15.267 57.6505 16.1753C57.6885 16.3022 57.7738 16.4095 57.8887 16.4751C58.0035 16.5406 58.1391 16.5593 58.2674 16.5273C58.9612 16.3364 59.6175 16.0285 60.2082 15.6167C60.3196 15.5463 60.4002 15.436 60.4336 15.3083C60.467 15.1805 60.4508 15.0448 60.3882 14.9286C59.9046 13.8876 59.2872 12.9144 58.552 12.0337C58.4902 11.9695 58.412 11.9235 58.326 11.9007C58.24 11.8779 58.1493 11.8792 58.064 11.9045C57.6904 12.0425 57.2967 12.1589 56.9369 12.3299C56.7415 12.4302 56.5913 12.6011 56.5166 12.808C56.4419 13.015 56.4483 13.2426 56.5344 13.4451C56.572 13.5722 56.6573 13.6798 56.7722 13.7454C56.8872 13.811 57.023 13.8295 57.1513 13.797C57.2789 13.7605 57.3871 13.6752 57.4527 13.5595C57.5182 13.4438 57.5359 13.307 57.5018 13.1783Z" fill="#4F8D00"/>
<path d="M54.1857 59.7333C54.373 60.1265 57.3918 65.4089 57.9535 66.3645L58.3815 66.1938C57.6232 64.3186 52.6478 53.3426 51.474 50.9827C51.411 50.8562 51.3034 50.7575 51.1721 50.7057C51.0408 50.654 50.895 50.6528 50.7629 50.7024C50.6926 50.7275 50.6217 50.756 50.551 50.7831C50.4814 50.8097 50.418 50.8502 50.3647 50.9022C50.3113 50.9542 50.2691 51.0166 50.2407 51.0856C50.2122 51.1545 50.1981 51.2286 50.1993 51.3032C50.2004 51.3778 50.2168 51.4514 50.2473 51.5195C50.8351 52.8245 51.6034 54.5901 52.3469 55.9102C52.9738 57.0229 53.6638 58.564 54.1857 59.7333Z" fill="#726A69"/>
<path d="M53.7532 59.9864C54.1093 60.7215 54.5499 61.4242 54.9526 62.1342C55.5785 63.2372 56.2073 64.3384 56.839 65.4378C57.0647 65.8315 57.2904 66.2257 57.5211 66.6174C57.5775 66.7126 57.6633 66.7867 57.7656 66.8284C57.8678 66.8701 57.9809 66.8771 58.0875 66.8485L58.5156 66.678C58.744 66.5868 58.9767 66.3328 58.8666 66.0593C57.6881 63.1539 56.3368 60.3112 55.0379 57.4591C54.2904 55.8178 53.5362 54.1795 52.7751 52.5442C52.5243 52.0094 52.2735 51.475 52.0148 50.9445C51.7979 50.5 51.4656 50.1513 50.9308 50.1634C50.2394 50.1792 49.5784 50.7668 49.7206 51.4926C49.8229 51.8394 49.9627 52.174 50.1376 52.4904C50.2978 52.8479 50.4592 53.2049 50.6218 53.5613C50.9696 54.3196 51.3265 55.0745 51.7209 55.8094C52.4553 57.1775 53.1208 58.5678 53.754 59.9864C53.8218 60.1009 53.9319 60.1839 54.0603 60.2176C54.1887 60.2514 54.3252 60.2331 54.4403 60.1667C54.5527 60.0972 54.6341 59.9869 54.6676 59.8589C54.701 59.7308 54.684 59.5947 54.6201 59.4789C54.083 58.2751 53.5484 57.0654 52.9197 55.9064C52.2911 54.7475 51.7161 53.5684 51.175 52.3642C51.0491 52.0848 50.9237 51.8054 50.7989 51.526C50.7693 51.4604 50.6757 51.3344 50.7114 51.256C50.6968 51.2879 50.8869 51.1665 50.9305 51.169C51.085 51.178 51.1918 51.5408 51.2565 51.6718C51.5098 52.1967 51.758 52.7242 52.0037 53.2521C53.4887 56.4322 54.9442 59.6261 56.3704 62.8338C56.6979 63.5664 57.0232 64.3002 57.3463 65.0351C57.4648 65.3058 57.5827 65.577 57.6999 65.8489C57.7248 65.9069 57.7498 65.9649 57.7751 66.0231C57.7914 66.0608 57.8586 66.2217 57.7964 66.0734C57.8317 66.1572 57.8666 66.2417 57.9012 66.3271L58.2523 65.7084L57.8242 65.8791L58.3907 66.1101C57.2743 64.2095 56.1891 62.2888 55.1106 60.3668C54.9458 60.0734 54.7698 59.7823 54.6229 59.4791C54.341 58.8971 53.4757 59.4062 53.7568 59.9867L53.7532 59.9864Z" fill="#726A69"/>
<path d="M50.4404 55.8182C51.3124 55.7402 52.1912 55.8193 53.0354 56.0517C53.8827 56.319 54.4755 56.8633 55.0949 57.4729C55.6897 58.0584 56.3198 58.659 56.7042 59.4117C56.9986 59.988 56.9891 60.7877 56.3281 61.1095C55.7473 61.3918 56.2554 62.2594 56.8341 61.9778C57.1607 61.7936 57.4328 61.5259 57.6227 61.202C57.8126 60.8781 57.9135 60.5095 57.9151 60.1338C57.9206 59.3338 57.4387 58.6002 56.9622 58.0004C56.4801 57.4313 55.9659 56.8905 55.4221 56.3803C54.8199 55.7713 54.077 55.3206 53.2593 55.0685C52.342 54.8209 51.3889 54.7343 50.4421 54.8126C49.7999 54.8455 49.7959 55.8511 50.4421 55.8182H50.4404Z" fill="#726A69"/>
<path d="M48.0286 64.2724C48.4799 64.9202 49.014 65.5058 49.6171 66.0144C49.7134 66.1052 49.8395 66.1576 49.9717 66.1617C50.0709 66.1617 50.1678 66.1322 50.2503 66.0769C50.3327 66.0217 50.397 65.9432 50.4349 65.8513C50.4729 65.7594 50.4828 65.6584 50.4635 65.5608C50.4441 65.4633 50.3964 65.3737 50.3263 65.3034C49.8425 64.902 49.4064 64.446 49.0266 63.9446L49.1048 64.0451C49.0335 63.9523 48.9634 63.8585 48.8947 63.7638C48.8252 63.6533 48.7184 63.5713 48.5938 63.5328C48.4634 63.4979 48.3246 63.5159 48.2074 63.5831C48.0936 63.6513 48.0111 63.7616 47.9775 63.8902C47.9439 64.0188 47.9619 64.1555 48.0276 64.2709L48.0286 64.2724Z" fill="#726A69"/>
<path d="M49.4717 62.5042C50.4312 63.7936 51.5032 64.9948 52.6751 66.0937C52.7704 66.1856 52.8975 66.2369 53.0298 66.2369C53.162 66.2369 53.2891 66.1856 53.3844 66.0937C53.4771 65.9987 53.529 65.8711 53.529 65.7383C53.529 65.6054 53.4771 65.4778 53.3844 65.3828C52.2711 64.3462 51.2516 63.2129 50.3378 61.9959C50.2678 61.8839 50.1578 61.8029 50.0303 61.7694C49.9027 61.7359 49.7673 61.7524 49.6515 61.8156C49.5373 61.8835 49.4544 61.9938 49.4208 62.1225C49.3871 62.2513 49.4054 62.3881 49.4717 62.5035V62.5042Z" fill="#726A69"/>
<path d="M51.315 60.8927C52.3412 62.4111 53.4771 63.8519 54.7137 65.2035C54.8083 65.2951 54.935 65.3457 55.0665 65.3446C55.198 65.3434 55.3238 65.2906 55.4167 65.1973C55.5097 65.1041 55.5625 64.978 55.5636 64.8462C55.5648 64.7143 55.5142 64.5873 55.4229 64.4925C54.243 63.2052 53.1594 61.8323 52.1811 60.3851C52.1117 60.2724 52.0017 60.1909 51.8739 60.1573C51.7462 60.1237 51.6104 60.1406 51.4948 60.2046C51.3809 60.2728 51.2982 60.3831 51.2646 60.5118C51.2309 60.6405 51.2491 60.7772 51.315 60.8927Z" fill="#726A69"/>
<path d="M50.44 54.8125C49.0917 54.8879 47.5443 55.0679 46.4204 55.888C45.9165 56.2794 45.4631 56.7319 45.0704 57.2353C44.5866 57.7936 44.1893 58.4217 43.8918 59.0984C43.7642 59.3671 43.692 59.6589 43.6797 59.9562C43.7021 60.2667 43.8023 60.5665 43.9711 60.8278C44.3123 61.4136 44.7484 61.9242 44.9771 62.5728C45.2504 63.3489 45.4264 64.1486 45.8156 64.8814C46.1719 65.5214 46.6508 66.0845 47.2248 66.5384C47.8678 67.0691 48.527 67.5727 49.3979 67.2396C50.1103 66.9671 50.6015 66.3039 50.4543 65.5253L49.616 66.0145C50.3006 66.6769 51.1532 67.2172 52.1487 66.9864C52.7465 66.8479 53.7016 66.3549 53.5105 65.6052L52.6735 66.0937C53.3911 66.6629 54.4368 67.0784 55.2848 66.5007C55.4653 66.3967 55.6168 66.2489 55.7256 66.0709C55.8343 65.8929 55.8967 65.6905 55.9072 65.482C55.8962 64.9968 55.5441 64.5966 55.2146 64.2796L54.7267 65.12C55.4054 65.3772 56.26 65.4136 56.7984 64.8435C56.9878 64.6482 57.1106 64.3977 57.149 64.128C57.1874 63.8584 57.1394 63.5834 57.012 63.3428C56.5178 62.3857 55.77 61.5629 55.2094 60.6435C54.7839 59.9043 54.4027 59.1404 54.0677 58.3558C53.9999 58.2414 53.8899 58.1583 53.7615 58.1245C53.6332 58.0908 53.4967 58.109 53.3816 58.1753C53.2691 58.2447 53.1875 58.355 53.154 58.4831C53.1205 58.6113 53.1375 58.7475 53.2016 58.8633C53.5265 59.6231 53.8936 60.3641 54.3011 61.0827C54.6166 61.6074 54.9739 62.1002 55.3242 62.6017C55.5178 62.8782 55.7106 63.1565 55.8949 63.4401C55.9641 63.5462 56.0333 63.6526 56.0955 63.7624C56.1206 63.8067 56.1474 63.8507 56.1687 63.8969C56.183 63.9278 56.1399 63.8766 56.1665 63.8929C56.1447 63.8796 56.165 64.0088 56.175 63.9273C56.1723 63.9495 56.1168 64.1126 56.1467 64.042C56.1188 64.1167 56.0641 64.1783 55.9932 64.2147C55.7048 64.3907 55.3009 64.2682 54.9927 64.1513C54.513 63.9696 54.1607 64.6607 54.5047 64.9918C54.6719 65.1271 54.8078 65.2972 54.9029 65.4903C54.9195 65.5436 54.8839 65.5406 54.914 65.4943C54.8466 65.5881 54.7561 65.6628 54.6514 65.711C54.2251 65.9049 53.7129 65.6464 53.3821 65.3842C53.0077 65.0871 52.4102 65.349 52.5438 65.8734C52.5329 65.8422 52.5298 65.8088 52.5348 65.7761C52.5398 65.7433 52.5528 65.7124 52.5727 65.6859C52.6073 65.6331 52.6098 65.6243 52.5797 65.6608C52.5557 65.6798 52.5335 65.7011 52.5135 65.7244C52.4159 65.7898 52.314 65.8486 52.2086 65.9004C52.0651 65.9745 51.908 66.0185 51.7469 66.0296C51.1614 66.0577 50.7239 65.6899 50.3257 65.3048C50.2463 65.2297 50.1449 65.1824 50.0366 65.1699C49.9282 65.1574 49.8187 65.1803 49.7244 65.2353C49.6302 65.2903 49.5562 65.3744 49.5135 65.4751C49.4708 65.5757 49.4617 65.6875 49.4877 65.7938C49.5531 66.1387 49.0112 66.372 48.7399 66.3431C48.5207 66.289 48.321 66.1747 48.1632 66.013C47.9148 65.821 47.677 65.6156 47.451 65.3975C47.0035 64.9566 46.6573 64.4231 46.4365 63.8343C46.2151 63.2561 46.0854 62.6462 45.8552 62.071C45.6016 61.5155 45.2955 60.9856 44.941 60.4887C44.6556 60.0422 44.6351 59.8896 44.8437 59.4076C45.3204 58.3855 46.0244 57.4864 46.9016 56.7795C47.8412 56.016 49.2793 55.8857 50.4403 55.8199C51.0822 55.7834 51.0862 54.7776 50.4403 54.8143L50.44 54.8125Z" fill="#726A69"/>
<path d="M71.615 59.0374C71.119 59.044 70.629 59.138 70.1333 59.1508C69.9189 59.1561 69.381 59.192 69.388 58.8665C69.392 58.6782 69.5004 58.6558 69.6576 58.5791C69.9695 58.4283 70.286 58.2845 70.6047 58.1475C71.2331 57.878 71.8702 57.6296 72.4994 57.3623C73.5418 56.9196 74.5781 56.3605 75.7396 56.368C76.6202 56.3384 77.4982 56.2569 78.3693 56.1242C78.7363 56.0714 79.1076 56.055 79.4779 56.0754C80.0005 56.1889 80.4841 56.4381 80.8803 56.7982C81.2568 57.0772 81.5759 57.4266 81.8199 57.8272C82.0834 58.272 82.2882 58.7492 82.429 59.2469C82.7081 60.2603 82.611 61.4818 81.925 62.3187C81.594 62.6935 81.2276 63.0352 80.8309 63.3392C80.4204 63.6781 80.027 64.0353 79.625 64.384C79.1912 64.7611 78.7512 65.1322 78.2935 65.4794C77.9821 65.7154 77.5764 66.0915 77.1709 66.1403C77.0588 66.1536 76.6506 66.1458 76.6107 66.0103C76.5766 65.8944 76.7878 65.7024 76.8575 65.6234C77.2572 65.1727 77.7173 64.778 78.1549 64.3664C78.6258 63.9219 77.9157 63.212 77.4455 63.6554C76.9712 64.072 76.5192 64.5134 76.0914 64.9778C75.6769 65.462 75.3838 66.1137 75.8572 66.6743C76.2499 67.1391 77.0325 67.2477 77.5904 67.073C78.0711 66.8829 78.5152 66.6107 78.9031 66.2685C79.9004 65.502 80.8277 64.651 81.7903 63.8422C82.273 63.4655 82.6891 63.01 83.0213 62.495C83.3493 61.9022 83.5363 61.2416 83.5679 60.5645C83.6624 59.2748 83.1416 57.8614 82.3663 56.8397C81.9529 56.3363 81.4541 55.9101 80.8929 55.5807C80.4024 55.2574 79.8318 55.0777 79.2451 55.0618C78.1983 55.0517 77.1742 55.3619 76.1293 55.3717C75.4964 55.3517 74.8639 55.421 74.2504 55.5776C73.5747 55.8015 72.9136 56.0677 72.2712 56.3746C71.4399 56.7359 70.5911 57.0564 69.7636 57.4257C69.0966 57.7234 68.3812 58.0198 68.3868 58.8725C68.3975 60.5901 70.5623 60.0571 71.6142 60.0433C72.2591 60.0348 72.2609 59.0291 71.6142 59.0377L71.615 59.0374Z" fill="#726A69"/>
<path d="M74.3643 60.0701C74.4774 59.9824 74.2575 60.1503 74.2206 60.178C74.1302 60.245 74.0393 60.3121 73.9481 60.3791C73.7474 60.5261 73.5458 60.6721 73.3432 60.817C72.8994 61.1355 72.4542 61.4522 72.0077 61.7671C71.1202 62.3574 70.2684 63 69.4568 63.6913C68.9761 64.1252 69.6872 64.8347 70.1659 64.4023C70.9433 63.7435 71.7589 63.1312 72.6083 62.5688C73.4358 61.9825 74.2723 61.4036 75.0737 60.7811C75.1671 60.6865 75.2195 60.5587 75.2195 60.4256C75.2195 60.2925 75.1671 60.1647 75.0737 60.0701C74.978 59.9789 74.851 59.928 74.719 59.928C74.5869 59.928 74.46 59.9789 74.3643 60.0701Z" fill="#726A69"/>
<path d="M77.8727 63.3095C77.7602 63.4013 77.5112 63.5775 77.3211 63.7067C77.0498 63.8913 76.7742 64.0698 76.4974 64.246C75.9688 64.5824 75.4352 64.9104 74.8965 65.2302C74.3779 65.5748 73.8377 65.8855 73.2792 66.1604C72.9473 66.3184 72.57 66.3526 72.2152 66.2567C71.8905 66.1476 72.0129 65.8741 72.1701 65.6458C72.4482 65.2415 71.8885 64.6653 71.4838 64.9577C71.2793 65.1168 71.038 65.2215 70.7823 65.262C70.5266 65.3026 70.2649 65.2776 70.0214 65.1895C70.0806 65.2169 70.0269 65.1968 70.0053 65.1737C69.9767 65.1494 69.9533 65.1197 69.9364 65.0862C69.9201 65.0104 69.9242 64.9316 69.9484 64.8579C70.0359 64.5831 70.1853 64.3321 70.385 64.1243C70.724 63.6911 70.312 63.0526 69.7771 63.3347C69.6593 63.397 69.8055 63.3374 69.7145 63.3623C69.6967 63.3673 69.5189 63.4061 69.6106 63.3937C69.515 63.4174 69.4144 63.4114 69.3223 63.3764C69.2894 63.3673 69.2591 63.3506 69.2338 63.3276C69.2086 63.3047 69.1891 63.2761 69.1768 63.2442C69.1437 63.1816 69.1264 63.1119 69.1264 63.041C69.1264 62.9702 69.1437 62.9004 69.1768 62.8379C69.3609 62.4741 69.7869 62.1591 70.0796 61.8866C70.2681 61.7119 70.4705 61.5517 70.6726 61.3931C71.6969 60.5886 72.7832 59.8648 73.807 59.0581C73.9003 58.9633 73.9526 58.8356 73.9526 58.7024C73.9526 58.5693 73.9003 58.4416 73.807 58.3468C73.7114 58.2555 73.5844 58.2046 73.4523 58.2046C73.3203 58.2046 73.1933 58.2555 73.0976 58.3468C73.0374 58.3944 73.1789 58.286 73.0743 58.3649L72.9707 58.4434C72.8644 58.523 72.7577 58.6021 72.6505 58.6807C72.4048 58.8614 72.1587 59.0415 71.9123 59.2212C71.3546 59.6292 70.797 60.0375 70.2498 60.4599C69.2764 61.2113 67.306 62.6091 68.467 63.9662C68.9156 64.4909 69.7077 64.5074 70.2847 64.203L69.6768 63.4133C69.3426 63.7708 69.0982 64.2032 68.9642 64.6744C68.9027 64.919 68.9157 65.1765 69.0015 65.4137C69.0873 65.6509 69.242 65.8568 69.4457 66.0051C70.1678 66.5048 71.3213 66.309 71.9913 65.8261L71.3052 65.1382C71.146 65.3462 71.0467 65.594 71.0184 65.8547C70.9901 66.1153 71.0338 66.3788 71.1448 66.6162C71.2751 66.8207 71.4536 66.9899 71.6646 67.1088C71.8755 67.2278 72.1124 67.293 72.3544 67.2985C73.3712 67.4074 74.1867 66.8053 75.0219 66.3226C76.2673 65.6499 77.4578 64.88 78.5826 64.02C78.6759 63.9252 78.7281 63.7975 78.7281 63.6644C78.7281 63.5313 78.6759 63.4035 78.5826 63.3088C78.4871 63.2173 78.36 63.1662 78.2279 63.1662C78.0958 63.1662 77.9688 63.2173 77.8732 63.3088L77.8727 63.3095Z" fill="#726A69"/>
<path d="M76.1901 61.6387C75.325 62.1784 74.4692 62.7335 73.6384 63.3256C72.8748 63.8243 72.1422 64.3694 71.4448 64.9577C70.9684 65.3956 71.6788 66.1053 72.1542 65.6687C72.4331 65.4228 72.7281 65.196 73.0374 64.9899C73.4346 64.7133 73.8222 64.4227 74.2159 64.1426C75.0238 63.5697 75.8551 63.0314 76.6951 62.5085C77.242 62.1674 76.739 61.297 76.1888 61.6402L76.1901 61.6387Z" fill="#726A69"/>
<path d="M61.1284 27.3104C61.7405 27.9112 62.7097 28.086 63.5312 28.0855C64.3526 28.085 65.322 27.9115 65.9344 27.3104C66.3965 26.8579 65.6871 26.1461 65.2252 26.5994C65.2049 26.6193 65.1016 26.7073 65.1661 26.656C65.2305 26.6047 65.1626 26.6583 65.146 26.6688C65.1184 26.6867 65.0916 26.7055 65.0635 26.7226C65.0104 26.7553 64.9557 26.7855 64.9 26.8136C64.8627 26.8325 64.8248 26.8503 64.7862 26.8672C64.8544 26.837 64.7937 26.8636 64.7578 26.8765C64.3643 27.0169 63.9489 27.0858 63.5312 27.0799C63.1211 27.088 62.7129 27.0219 62.3263 26.8848C62.3178 26.8818 62.1758 26.8232 62.2761 26.8672C62.244 26.8531 62.2122 26.838 62.1806 26.8227C62.1187 26.792 62.058 26.7591 61.9993 26.7221C61.9547 26.6945 61.9133 26.6595 61.8682 26.6331C61.9965 26.7085 61.8752 26.6356 61.8378 26.5989C61.3764 26.1464 60.6665 26.8564 61.1287 27.3099L61.1284 27.3104Z" fill="#726A69"/>
<path d="M63.3993 22.7869C63.4955 23.1349 63.5724 23.4879 63.6298 23.8443L63.612 23.7108C63.6187 23.7591 63.62 23.808 63.6157 23.8566L63.6338 23.7231C63.6304 23.7455 63.6251 23.7674 63.6177 23.7887L63.6679 23.6686C63.6615 23.6834 63.6537 23.6975 63.6446 23.7108L63.723 23.6103C63.7129 23.6229 63.7014 23.6343 63.6887 23.6444L63.7902 23.5658C63.7634 23.5824 63.7354 23.5972 63.7065 23.61L63.8264 23.5597C63.7812 23.5789 63.734 23.5928 63.6857 23.6009L63.8188 23.5828C63.7749 23.5881 63.7306 23.5881 63.6867 23.5828L63.8201 23.6009C63.7699 23.5939 63.7213 23.5818 63.6714 23.5758C63.5408 23.5453 63.4035 23.5631 63.285 23.6261C63.1706 23.6933 63.0875 23.8032 63.0537 23.9317C63.0199 24.0602 63.0382 24.1969 63.1047 24.3119C63.1366 24.3689 63.1797 24.4188 63.2314 24.4585C63.2831 24.4982 63.3424 24.527 63.4056 24.543C63.5154 24.5578 63.6222 24.5859 63.7341 24.591C63.9007 24.592 64.0651 24.5529 64.2135 24.4771C64.3068 24.4351 64.3896 24.3726 64.4556 24.2943C64.5217 24.216 64.5693 24.1238 64.5952 24.0246C64.6288 23.862 64.627 23.6941 64.5902 23.5323C64.5327 23.1917 64.454 22.8535 64.3667 22.5199C64.3492 22.4563 64.3194 22.3967 64.2789 22.3446C64.2384 22.2924 64.1881 22.2488 64.1309 22.2162C64.0736 22.1836 64.0104 22.1626 63.9451 22.1545C63.8797 22.1463 63.8134 22.1512 63.7499 22.1687C63.6864 22.1863 63.6269 22.2162 63.575 22.2568C63.523 22.2973 63.4795 22.3478 63.447 22.4052C63.4144 22.4626 63.3935 22.5259 63.3854 22.5915C63.3772 22.657 63.3821 22.7235 63.3996 22.7872L63.3993 22.7869Z" fill="#726A69"/>
<path d="M57.815 19.9257C57.6395 20.4997 57.7535 21.8198 58.8381 21.9322C60.2714 21.9236 60.3476 20.3275 59.8661 19.577C59.4712 18.9626 58.3095 18.7069 57.815 19.9257Z" fill="#726A69"/>
<path d="M69.0478 19.9257C69.2234 20.4997 69.1093 21.8198 68.025 21.9322C66.5917 21.9236 66.5152 20.3275 66.9969 19.577C67.3929 18.9626 68.5536 18.7069 69.0478 19.9257Z" fill="#726A69"/>
<path d="M74.5201 17.2135C75.0063 16.8037 75.8603 16.909 76.1462 17.5091C76.2788 17.8674 76.3326 18.2501 76.3039 18.6312C76.3045 19.0281 76.2643 19.4241 76.1838 19.8127C76.0342 20.5897 75.7216 21.3258 75.2668 21.9725C75.0958 22.2535 74.8458 22.4775 74.5481 22.6164C74.1916 22.7032 73.8283 22.7587 73.4621 22.7821C73.3341 22.8181 73.2255 22.9032 73.1598 23.0191C73.094 23.1349 73.0765 23.2721 73.1111 23.4008C73.1492 23.5276 73.2345 23.6349 73.3493 23.7004C73.4641 23.766 73.5997 23.7847 73.7279 23.7527C74.1933 23.6866 74.6645 23.6796 75.0978 23.4762C75.5485 23.2154 75.9252 22.8432 76.1918 22.3952C76.78 21.4965 77.1455 20.4699 77.2578 19.4009C77.3699 18.4519 77.395 17.211 76.6334 16.5098C76.2448 16.1632 75.7431 15.971 75.223 15.9695C74.7028 15.968 74.2001 16.1572 73.8094 16.5015C73.3147 16.9186 74.0273 17.6268 74.5186 17.2125L74.5201 17.2135Z" fill="#726A69"/>
<path d="M52.8287 16.1453C52.4381 15.8009 51.9353 15.6116 51.4151 15.613C50.8949 15.6145 50.3932 15.8067 50.0045 16.1534C49.2021 16.8927 49.2675 18.2315 49.4027 19.2205C49.5397 20.3192 49.9539 21.3647 50.6063 22.2582C51.2332 23.0815 52.1507 23.7218 53.2244 23.4941C53.8556 23.3603 53.5885 22.3907 52.9576 22.5244C52.3157 22.6604 51.7201 22.093 51.3713 21.6161C50.9069 20.9531 50.5905 20.1976 50.4436 19.401C50.3669 19.0119 50.3304 18.616 50.3347 18.2194C50.311 17.8566 50.3646 17.4929 50.4919 17.1524C50.7781 16.5521 51.6319 16.447 52.1181 16.8568C52.6091 17.2708 53.3217 16.5629 52.8275 16.1458L52.8287 16.1453Z" fill="#726A69"/>
</g>
<defs>
<clipPath id="clip0_1621_24623">
<rect width="73" height="80" fill="white" transform="translate(28)"/>
</clipPath>
</defs>
</svg>
