<svg width="130" height="80" viewBox="0 0 130 80" fill="none" xmlns="http://www.w3.org/2000/svg">
<mask id="mask0_1621_25073" style="mask-type:alpha" maskUnits="userSpaceOnUse" x="0" y="0" width="130" height="80">
<path d="M0 0H130V80H0V0Z" fill="#D9D9D9"/>
</mask>
<g mask="url(#mask0_1621_25073)">
<path d="M2.74987 1.05871H0.527344C0.527344 2.95634 0.527344 57.0274 0.527344 58.8439C8.8523 58.8439 85.8098 58.7715 97.1776 58.7601C97.1871 39.3027 97.1995 2.25509 97.1998 1.05054C86.6766 1.05083 18.2663 1.05754 2.74987 1.05871Z" fill="white"/>
<path d="M59.2088 23.7588C59.2088 22.5879 59.207 21.8545 59.207 21.783H68.7947V46.0211C65.7087 46.0282 62.4853 46.0358 59.2293 46.044C59.2301 44.508 59.2142 29.276 59.2088 23.7588Z" fill="#65B005"/>
<path d="M70.1629 13.1478C70.1366 13.0502 70.0838 12.9621 70.0106 12.8935C69.9374 12.8249 69.8467 12.7785 69.7488 12.7595C69.0308 12.5616 68.2738 12.5616 67.5558 12.7595C66.6204 12.9935 65.7735 13.5016 65.1205 14.2208C64.7599 14.6537 64.4893 15.1562 64.3247 15.698C64.1602 16.2398 64.1051 16.8098 64.1628 17.3738C64.1667 17.4074 64.1808 17.4389 64.2033 17.464C64.2257 17.489 64.2553 17.5063 64.2879 17.5133C64.7886 17.6491 66.8468 18.0863 68.4834 16.9576C69.2423 16.4598 69.8227 15.7263 70.1381 14.8665C70.2856 14.3044 70.2941 13.714 70.1629 13.1478Z" fill="#65B005"/>
<path d="M57.8599 13.1478C57.8863 13.0502 57.9391 12.9621 58.0123 12.8935C58.0855 12.8249 58.1762 12.7785 58.274 12.7595C58.9921 12.5616 59.7491 12.5616 60.4671 12.7595C61.4026 12.9934 62.2496 13.5016 62.9027 14.2208C63.2631 14.6538 63.5336 15.1563 63.6982 15.6981C63.8627 16.2399 63.9179 16.8098 63.8603 17.3738C63.8564 17.4074 63.8422 17.439 63.8198 17.464C63.7973 17.4891 63.7676 17.5063 63.735 17.5133C63.2345 17.6491 61.1763 18.0863 59.5398 16.9576C58.7808 16.4597 58.2003 15.7263 57.8848 14.8665C57.7374 14.3044 57.7289 13.7141 57.8599 13.1478Z" fill="#65B005"/>
<path d="M74.966 59.1385H74.9695V57.9656C74.2475 57.9723 73.5256 57.967 72.8036 57.9679L75.5473 57.9741L66.783 57.9832L61.9787 57.9943L49.9748 58.0063C45.8367 58.0108 41.6987 58.0149 37.5608 58.0186L25.6816 58.0301L15.126 58.04L6.73475 58.0471C4.93427 58.0485 3.1336 58.0496 1.33274 58.0506H0.57757L1.15514 58.6371V52.3499C1.15514 47.8144 1.15514 43.2796 1.15514 38.7454V0.594502L0.57757 1.18099H5.08261H12.6664H22.6055H34.2164H46.663H59.254H71.3047H81.973H90.5788H96.4024H97.3017L96.7241 0.594502C96.7241 3.82489 96.7221 18.0553 96.7181 21.2857C96.7241 24.8479 96.697 24.66 96.697 24.66C96.697 25.4146 97.8521 25.416 97.8521 24.66C97.8659 4.35929 97.8667 20.3375 97.877 4.28265C97.877 3.05336 97.8777 1.82398 97.8793 0.594502C97.877 0.439663 97.8155 0.291803 97.7076 0.182303C97.5998 0.0728037 97.4542 0.0102835 97.3017 0.00801168H92.2711H84.2775H74.0421H62.2467L49.7287 0.00390625H37.181H25.2872H14.8883H6.66573L1.33967 0.00801168H0.57757C0.425062 0.0102097 0.27941 0.0727062 0.17156 0.182222C0.0637105 0.291737 0.0021646 0.439639 0 0.594502V36.7883C0 41.516 0 46.2439 0 50.972V58.6374C0.0021646 58.7922 0.0637105 58.9402 0.17156 59.0497C0.27941 59.1592 0.425062 59.2217 0.57757 59.2239C2.09138 59.2239 3.60538 59.223 5.11958 59.2212L12.859 59.2148L22.9665 59.2057L34.6016 59.1946L46.9246 59.1825L59.144 59.1702L66.3168 59.1588L73.6538 59.1491L71.686 59.1421C72.7349 59.1421 73.7875 59.1667 74.8358 59.1385C74.8805 59.1385 74.925 59.1385 74.9695 59.1385C75.1227 59.1385 75.2699 59.0768 75.3782 58.9668C75.4865 58.8568 75.5473 58.7076 75.5473 58.5521C75.5473 58.3965 75.4865 58.2473 75.3782 58.1373C75.2699 58.0274 75.1227 57.9656 74.9695 57.9656H74.9663C74.223 57.9656 74.2215 59.1385 74.966 59.1385Z" fill="#726A69"/>
<path d="M27 34H37V46H27V34Z" fill="#E5EFD9"/>
<path d="M27.7547 46.118C27.7547 42.5759 27.7414 39.0335 27.7342 35.4914C27.7342 34.9788 27.7332 34.4664 27.7313 33.9542L27.1537 34.5407H36.7414L36.1638 33.9542V46.098C36.1638 46.8528 37.319 46.854 37.319 46.098V33.9542C37.3169 33.7993 37.2554 33.6513 37.1475 33.5418C37.0396 33.4323 36.8939 33.3698 36.7414 33.3677H27.1537C27.0012 33.3699 26.8556 33.4324 26.7477 33.5419C26.6399 33.6514 26.5783 33.7993 26.5762 33.9542C26.5762 37.3617 26.5903 40.7695 26.5967 44.1773C26.5978 44.8242 26.5988 45.4711 26.5996 46.118C26.5996 46.8728 27.7547 46.874 27.7547 46.118Z" fill="#BADA95"/>
<path d="M43.7805 46.0847C43.7805 43.8525 43.7783 41.6203 43.7739 39.3882C43.7704 36.2974 43.7669 33.2067 43.7632 30.116C43.7632 29.3671 43.7623 28.6182 43.7606 27.8692L43.183 28.4557H52.7707L52.1931 27.8692V46.0645C52.1931 46.8193 53.3483 46.8205 53.3483 46.0645V27.8692C53.3461 27.7143 53.2846 27.5664 53.1767 27.4569C53.0689 27.3474 52.9232 27.2849 52.7707 27.2827H43.183C43.0305 27.2849 42.8849 27.3474 42.777 27.4569C42.6692 27.5664 42.6076 27.7143 42.6055 27.8692C42.6055 29.8525 42.6078 31.8359 42.6124 33.8194C42.6159 36.98 42.6194 40.1405 42.6231 43.3009C42.6231 44.2288 42.6239 45.1567 42.6254 46.0847C42.6254 46.8395 43.7805 46.8407 43.7805 46.0847Z" fill="#726A69"/>
<path d="M59.8071 46.0465C59.8071 43.0835 59.8045 40.1204 59.7993 37.157C59.7953 33.0158 59.7911 28.8745 59.7866 24.7331C59.7866 23.7496 59.7858 22.7661 59.784 21.7828L59.2065 22.3693H68.7941L68.2166 21.7828V46.023C68.2166 46.7775 69.3717 46.779 69.3717 46.023V21.7828C69.3695 21.6279 69.3079 21.4801 69.2001 21.3706C69.0922 21.2611 68.9466 21.1986 68.7941 21.1963H59.2065C59.0539 21.1984 58.9083 21.2609 58.8004 21.3704C58.6925 21.48 58.631 21.6279 58.6289 21.7828C58.6289 24.4046 58.6315 27.0266 58.6367 29.6488C58.6411 33.8856 58.6453 38.1225 58.6491 42.3595C58.6503 43.5886 58.6512 44.8176 58.652 46.0465C58.652 46.8013 59.8071 46.8025 59.8071 46.0465Z" fill="#4F8D00"/>
<path d="M75.7783 45.3848C73.4873 45.3848 71.1969 45.3898 68.9072 45.4C64.9318 45.4112 60.9562 45.4233 56.9804 45.4364L42.9544 45.4801C38.6034 45.4936 34.2524 45.5063 29.9014 45.5182C26.8947 45.526 23.8882 45.5322 20.8818 45.5367H20.1809C19.4378 45.5367 19.4364 46.7096 20.1809 46.7096C22.9711 46.7096 25.7612 46.7046 28.551 46.6944C32.7819 46.6836 37.0127 46.6715 41.2434 46.658C45.9336 46.644 50.6238 46.6293 55.3139 46.614C59.4381 46.6011 63.5622 46.5885 67.6863 46.5762C70.2256 46.5688 72.765 46.5626 75.3044 46.5577H75.7783C76.5216 46.5577 76.5228 45.3848 75.7783 45.3848Z" fill="#726A69"/>
<path d="M70.7206 12.9903C70.4694 12.1073 69.3512 12.005 68.5873 12.0258C67.6982 12.0532 66.8286 12.297 66.0515 12.7366C65.2416 13.1631 64.5741 13.8234 64.133 14.6344C63.6919 15.4453 63.4969 16.3707 63.5726 17.2939C63.6402 18.0174 64.2336 18.1288 64.8164 18.2132C66.2239 18.4168 67.7201 18.2344 68.9007 17.3743C69.4787 16.9681 69.967 16.4441 70.3345 15.8356C70.8115 14.9707 70.9494 13.9548 70.7206 12.9911C70.6788 12.8418 70.581 12.7151 70.4481 12.6383C70.3152 12.5615 70.158 12.5408 70.0102 12.5806C69.864 12.6244 69.7403 12.7241 69.6649 12.8586C69.5895 12.9931 69.5684 13.152 69.6059 13.302C69.7501 13.9005 69.6851 14.5313 69.4222 15.0867C69.1783 15.5372 68.8491 15.9343 68.4536 16.2552C68.4248 16.2793 68.3959 16.3025 68.367 16.325C68.4649 16.2479 68.3471 16.3385 68.3321 16.3491C68.285 16.3825 68.2382 16.4171 68.1903 16.4497C67.9267 16.6331 67.6401 16.7798 67.3381 16.8857C66.8055 17.0622 66.2463 17.1416 65.6865 17.1203C65.3087 17.1035 64.933 17.0557 64.5628 16.9772C64.5362 16.9687 64.5091 16.9619 64.4817 16.957C64.3327 16.9543 64.6879 17.4505 64.7228 17.2614C64.7255 17.1942 64.7221 17.127 64.7124 17.0605C64.7062 16.8469 64.7163 16.6332 64.7427 16.4212C64.8755 15.5075 65.353 14.6821 66.0743 14.1195C66.5622 13.7472 67.1181 13.4773 67.7097 13.3254C68.1099 13.2229 68.523 13.1825 68.935 13.2055C69.1005 13.2154 69.2648 13.2401 69.426 13.2794C69.4837 13.2932 69.5398 13.314 69.5966 13.3254C69.741 13.3548 69.6365 13.4058 69.6076 13.304C69.8115 14.0272 70.9265 13.7193 70.7206 12.9903Z" fill="#4F8D00"/>
<path d="M58.418 13.3037C58.3862 13.4146 58.2802 13.3407 58.418 13.3257C58.4507 13.3207 58.4828 13.3125 58.5139 13.3011C58.6397 13.2633 58.7685 13.2366 58.8988 13.2213C59.2573 13.1769 59.6203 13.1868 59.976 13.2506C60.6026 13.3593 61.1998 13.6006 61.7286 13.9588C62.4874 14.4624 63.0254 15.2442 63.2303 16.1409C63.2755 16.3376 63.3013 16.5385 63.3071 16.7405C63.294 16.914 63.2915 17.0881 63.2996 17.2619C63.3343 17.4514 63.6898 16.9549 63.541 16.9575C63.5136 16.9625 63.4865 16.9693 63.4599 16.9778C63.39 16.9892 63.321 17.0094 63.2517 17.0232C63.0694 17.0624 62.8846 17.0884 62.6987 17.1009C61.6397 17.2235 60.5725 16.9569 59.6904 16.3493C59.6904 16.3493 59.5749 16.2614 59.637 16.3103C59.6852 16.3476 59.5408 16.2312 59.5252 16.218C59.4251 16.1327 59.3288 16.0433 59.2364 15.9497C59.045 15.7601 58.876 15.5484 58.7331 15.3189C58.3701 14.7152 58.2571 13.9903 58.4186 13.3022C58.4552 13.1523 58.4337 12.9938 58.3584 12.8595C58.2832 12.7252 58.1599 12.6255 58.0143 12.5809C57.8665 12.5409 57.7092 12.5615 57.5762 12.6383C57.4433 12.7152 57.3455 12.842 57.3039 12.9914C57.1032 13.8502 57.1874 14.7522 57.5436 15.5573C57.8418 16.1669 58.2699 16.7015 58.7969 17.1223C59.9015 18.0052 61.3003 18.4185 62.6989 18.2754C63.1214 18.2399 63.8653 18.2276 64.1951 17.9C64.5821 17.5156 64.4839 16.7687 64.4181 16.2737C64.3281 15.6161 64.102 14.9854 63.7546 14.423C63.4072 13.8606 62.9464 13.3793 62.4026 13.0108C61.6295 12.4744 60.7355 12.1448 59.8036 12.0524C58.9745 11.9624 57.5883 11.9979 57.3056 12.9908C57.0971 13.7184 58.2115 14.0286 58.418 13.3037Z" fill="#4F8D00"/>
<path d="M63.4297 17.7603C63.4297 19.0377 63.4219 20.3154 63.4219 21.5927C63.4219 21.7483 63.4827 21.8975 63.591 22.0074C63.6994 22.1174 63.8463 22.1792 63.9994 22.1792C64.1526 22.1792 64.2995 22.1174 64.4078 22.0074C64.5162 21.8975 64.577 21.7483 64.577 21.5927C64.577 20.3154 64.5845 19.0377 64.5848 17.7603C64.5848 17.6048 64.524 17.4556 64.4156 17.3456C64.3073 17.2356 64.1604 17.1738 64.0072 17.1738C63.8541 17.1738 63.7072 17.2356 63.5988 17.3456C63.4905 17.4556 63.4297 17.6048 63.4297 17.7603Z" fill="#4F8D00"/>
<path d="M104.22 54.8307C105.076 55.3586 106.916 55.9228 109.226 55.9228C112.221 55.9228 113.333 55.0539 114.488 54.4046L114.517 51.7886C113.813 51.3053 113.143 50.7737 113.001 50.4153C112.844 49.8815 112.785 49.323 112.827 48.7676C114.822 47.899 116.426 45.173 116.706 44.4018C116.747 44.2762 116.828 44.0434 116.903 43.7654L117.134 43.7293C117.477 43.6711 117.8 43.5234 118.07 43.3006C118.403 43.0132 118.671 42.6562 118.856 42.254C119.247 41.4582 119.416 40.5685 119.343 39.682C119.332 39.4554 119.276 39.2335 119.176 39.0307C119.089 38.8837 118.972 38.7583 118.831 38.6635C118.691 38.5688 118.532 38.5072 118.365 38.4832C118.195 38.4579 118.021 38.4702 117.857 38.5192C117.692 38.5682 117.539 38.6527 117.409 38.767L116.921 39.2151C116.509 37.7981 115.868 36.4604 115.024 35.2563C114.536 34.5709 113.865 34.0406 113.091 33.7273C112.317 33.4141 111.471 33.3307 110.652 33.4869L110.612 33.4951C106.954 34.4871 102.879 36.7442 101.567 39.0022C101.447 38.8117 101.275 38.661 101.072 38.5686C100.869 38.4762 100.644 38.4462 100.424 38.4823C100.257 38.5063 100.098 38.5679 99.9575 38.6626C99.8172 38.7574 99.6995 38.8828 99.6132 39.0298C99.5133 39.2327 99.4565 39.4545 99.4463 39.6811C99.3733 40.5676 99.5419 41.4574 99.9335 42.2531C100.118 42.6553 100.386 43.0123 100.719 43.2997C101.065 43.5899 101.5 43.7483 101.949 43.7478C102.245 44.8698 102.772 45.9153 103.494 46.8157C104.163 47.6682 105.02 48.3489 105.996 48.8028C106.036 49.3466 105.977 49.8932 105.823 50.4156C105.683 50.7658 104.985 51.2807 104.235 51.754C104.235 51.7537 104.22 54.0982 104.22 54.8307Z" fill="white"/>
<path d="M114.643 80.3599C114.421 79.7322 114.244 79.0889 114.115 78.4351C113.98 77.5899 113.848 76.697 113.734 75.7305C111.564 75.7478 105.937 75.8618 104.713 75.8618H104.399C104.287 76.7779 104.16 77.6283 104.032 78.4351C103.902 79.0888 103.726 79.7322 103.504 80.3599H114.643Z" fill="white"/>
<path d="M119.951 67.6768C120.169 66.7322 120.39 65.5595 120.602 64.2839H126.013C124.887 61.3004 124.69 59.5891 123.565 56.6056C123.37 56.0635 123.071 55.5667 122.683 55.1446C122.304 54.7323 121.717 54.6168 121.217 54.3719C119.744 53.6494 117.319 52.9151 115.701 52.1433C115.359 51.7201 114.998 51.2929 114.6 50.8424L113.647 50.6213C114.002 53.7728 113.822 56.9584 113.642 60.1251C113.574 61.3274 113.435 63.7027 113.371 66.395C113.351 67.265 113.338 68.1677 113.338 69.0741C113.335 72.2119 113.595 75.3443 114.115 78.4374C114.245 79.0912 114.421 79.7345 114.643 80.3623H120.297C119.814 76.9046 119.392 72.6499 119.392 71.8875C119.419 70.4668 119.606 69.054 119.951 67.6768Z" fill="white"/>
<path d="M104.034 78.4354C104.554 75.3423 104.814 72.21 104.811 69.0721C104.811 65.3617 104.598 61.7117 104.508 60.1232C104.327 56.9561 104.147 53.7709 104.502 50.6194L103.772 50.8405C103.43 51.2285 103.114 51.5994 102.817 51.9668C101.216 52.8035 98.5298 53.5941 96.945 54.3715C96.4451 54.6169 95.858 54.7319 95.4791 55.1442C95.0917 55.5661 94.7918 56.063 94.5975 56.6051C93.9075 58.4341 93.5665 59.7851 93.1463 61.2442C92.8723 62.1958 92.5647 63.1934 92.105 64.3996C91.4598 62.8653 90.8955 61.4419 90.2567 59.8446C88.6372 60.7102 86.0587 61.9099 84.4395 62.2674C85.2481 64.889 86.0566 67.7115 87.1927 70.336C87.9831 72.1606 88.8299 74.0309 90.7659 74.3491C91.4219 74.4235 92.086 74.3597 92.7166 74.1616C93.3472 73.9635 93.9308 73.6354 94.4308 73.1978C95.5587 72.0973 96.6082 70.9169 97.5717 69.6657L97.8316 69.3199L98.3904 68.578C98.6211 69.6651 98.744 70.773 98.7574 71.8849C98.7574 72.6491 98.3349 76.9027 97.8524 80.3597H103.507C103.728 79.7321 103.905 79.089 104.034 78.4354Z" fill="white"/>
<path d="M87.9246 53.4C87.6749 53.1202 87.4991 52.7807 87.4137 52.4132C87.2771 51.7792 86.9453 50.947 86.282 50.9071C86.1318 50.8969 85.9833 50.9442 85.8657 51.0396C85.7481 51.135 85.67 51.2717 85.6466 51.4227C85.6466 51.4227 85.6039 51.5693 85.5352 51.8068C85.3792 51.7477 85.2183 51.7031 85.0543 51.6737C83.9038 51.4596 82.647 51.7182 82.606 52.322C82.5535 52.6223 82.6297 52.8892 82.8627 53.3628C82.6583 53.5704 82.5101 54.1665 82.6661 54.2938C82.6661 54.2938 82.7126 54.4366 82.766 54.5991C82.6313 54.5654 82.4901 54.5695 82.3575 54.6108C82.2249 54.6521 82.1058 54.7291 82.0129 54.8337C81.7769 55.0976 81.597 55.6627 81.8817 55.8694C82.0071 55.9603 82.118 56.0518 82.2251 56.141L82.2078 56.1383C81.7299 55.97 81.0656 56.3984 81.1052 56.8421C81.1759 57.1994 81.3805 57.5149 81.6758 57.7218L81.7151 57.7532L81.9112 58.0834C82.3892 58.8884 83.0072 59.5984 83.7352 60.179C83.9414 60.3432 84.1562 60.4968 84.3555 60.6695C84.6847 60.955 84.969 61.29 85.1984 61.6628L85.3333 61.9018C86.2311 61.5639 88.4343 60.7232 89.5767 60.1622C89.5551 59.9795 89.54 59.8452 89.54 59.8452C89.3645 57.487 89.2801 55.1938 88.8669 54.544C88.5792 54.1409 88.2644 53.7587 87.9246 53.4Z" fill="white"/>
<path d="M78.4465 37.4677C78.4815 37.5557 78.6622 38.0067 78.96 38.7498C79.0354 38.9384 79.1811 39.089 79.3655 39.1689C79.5499 39.2488 79.7579 39.2514 79.9441 39.1761L80.7987 38.8283C80.9845 38.7525 81.1331 38.605 81.2122 38.4182C81.2912 38.2314 81.2943 38.0204 81.2206 37.8313C80.9318 37.0868 80.8362 36.8478 80.7184 36.5501C80.455 35.8856 79.5863 35.293 79.0226 35.4815C78.5366 35.6443 78.1378 36.695 78.4465 37.4677Z" fill="white"/>
<path d="M107.725 65.4293C107.513 65.6328 107.316 65.8524 107.137 66.0862C107.453 66.4226 107.79 66.7386 108.145 67.0325L108.244 67.107C108.801 66.3323 109.574 65.7461 110.464 65.4252C111.79 64.8809 113.212 64.6213 114.641 64.6628C116.053 64.71 117.611 65.1613 118.663 66.1801C119.524 65.178 121.129 64.4006 122.369 64.0863C123.598 63.8048 124.865 63.7364 126.117 63.8839C126.87 63.9538 127.604 64.1664 128.281 64.5106L128.31 64.4813C128.529 64.2699 128.967 63.8244 129.34 63.4236C127.992 62.3881 127.236 62.2336 125.644 62.0764C124.433 61.9567 123.059 61.9166 121.875 62.2166C120.692 62.5165 119.175 63.0177 118.334 63.9675C117.232 63.2499 115.951 62.8659 114.641 62.8605C113.212 62.819 111.79 63.0786 110.464 63.623C109.855 63.8551 109.278 64.1672 108.748 64.5514C108.391 64.8242 108.049 65.1173 107.725 65.4293Z" fill="white"/>
<path d="M124.851 69.7074C125.764 68.8811 128.652 66.1278 129.427 65.3404C128.517 64.4888 127.35 63.9757 126.116 63.8851C124.864 63.7375 123.597 63.8059 122.368 64.0874C121.128 64.4018 119.523 65.1791 118.662 66.1812C117.61 65.1615 116.052 64.7111 114.64 64.6639C113.211 64.6224 111.789 64.882 110.463 65.4263C109.365 65.8133 108.453 66.6112 107.914 67.6574C108.741 68.3905 111.807 70.7848 112.668 71.4783L124.851 69.7074Z" fill="white"/>
<path d="M120.893 67.4487C120.837 67.403 120.78 67.3578 120.724 67.3132C119.998 66.7438 119.471 66.6549 118.726 67.0786L118.326 67.4305C118.021 67.1021 117.762 66.8297 117.652 66.7323C117.492 66.5862 117.299 66.4843 117.089 66.4366C116.88 66.3888 116.662 66.3967 116.456 66.4596C115.985 66.6379 115.787 66.8995 115.787 67.3003L115.743 67.6411C115.493 67.3725 115.268 67.1426 115.096 66.9848C114.951 66.8526 114.242 66.498 113.771 66.8575C113.68 66.9119 113.601 66.9847 113.539 67.0715C113.477 67.1582 113.434 67.257 113.411 67.3617C113.389 67.4663 113.388 67.5745 113.409 67.6795C113.429 67.7845 113.471 67.8841 113.531 67.9719C113.559 68.0144 113.578 68.0598 113.6 68.1053L113.495 68.0493C113.361 67.9743 113.213 67.9291 113.061 67.9168C112.909 67.9045 112.756 67.9253 112.612 67.9779C112.468 68.0305 112.337 68.1136 112.228 68.2217C112.118 68.3298 112.033 68.4604 111.977 68.6047C111.903 68.95 111.945 69.3107 112.098 69.6281C112.404 70.2278 113.738 71.7319 114.459 72.5046C116.109 73.6901 118.743 72.8644 120.853 72.3664C121.149 72.2922 121.432 72.1688 121.688 72.0013C122.478 71.4442 122.884 70.7618 123.528 70.0387C123.802 69.7707 124.045 69.4718 124.252 69.1478C124.498 68.7557 124.593 68.2851 124.518 67.8264C124.47 67.5894 124.339 67.3782 124.149 67.2323C123.836 67.022 123.415 67.1223 123.067 67.2666C122.547 67.4823 122.064 67.7791 121.634 68.1463C121.405 67.8952 121.157 67.662 120.893 67.4487Z" fill="white"/>
<path d="M112.667 71.4775C111.806 70.7843 108.739 68.3911 107.913 67.6568C108.017 67.4559 108.136 67.2628 108.268 67.0791C108.26 67.0897 108.25 67.0964 108.242 67.1085L108.143 67.034C107.788 66.7397 107.451 66.4233 107.135 66.0865C107.314 65.8526 107.51 65.6329 107.722 65.4293C108.047 65.1167 108.389 64.823 108.746 64.5496C109.276 64.1655 109.853 63.8533 110.462 63.6212C111.431 63.2261 112.453 62.9799 113.494 62.8907C113.548 61.7251 113.604 60.7577 113.639 60.1225C113.746 58.2313 113.854 56.3335 113.847 54.44L113.501 54.5344C112.65 54.7592 111.786 54.9266 110.914 55.0353C110.365 55.1072 109.813 55.1464 109.259 55.1526C107.774 55.1564 105.6 54.8945 104.292 54.24C104.278 56.1995 104.389 58.1642 104.501 60.1219C104.591 61.7116 104.805 65.3604 104.805 69.0709C104.81 71.3411 104.673 73.6094 104.395 75.8621C104.863 75.8621 105.19 75.8621 105.19 75.8621C106.374 75.8621 111.725 75.7284 113.216 75.7284C113.216 75.7284 113.398 75.7284 113.727 75.7305C113.57 74.4323 113.444 72.9971 113.38 71.3731L112.667 71.4775Z" fill="#65B005"/>
<path d="M99.4203 53.3592C100.576 52.9585 101.71 52.4932 102.816 51.9654C103.113 51.598 103.428 51.227 103.771 50.8391L104.501 50.618C104.462 50.9593 104.433 51.3015 104.406 51.6443C105.091 51.2021 105.697 50.7382 105.826 50.4148C105.98 49.8923 106.038 49.3458 105.999 48.8019C105.023 48.348 104.166 47.6673 103.497 46.8149C102.775 45.9145 102.248 44.8689 101.951 43.7469C101.503 43.7475 101.068 43.589 100.722 43.2989C100.389 43.0115 100.121 42.6545 99.9363 42.2523C99.5447 41.4565 99.3762 40.5667 99.4492 39.6802C99.4593 39.4537 99.5162 39.2318 99.6161 39.0289C99.7023 38.8819 99.8199 38.7563 99.9602 38.6616C100.101 38.5668 100.26 38.5053 100.427 38.4814C100.647 38.4454 100.872 38.4753 101.075 38.5677C101.278 38.66 101.45 38.8107 101.57 39.0011C102.882 36.7431 106.956 34.4851 110.615 33.4942L110.655 33.486C111.474 33.3298 112.32 33.4132 113.094 33.7265C113.868 34.0398 114.538 34.57 115.027 35.2554C115.871 36.4594 116.512 37.7972 116.924 39.2143L117.412 38.7662C117.542 38.6518 117.694 38.5673 117.859 38.5183C118.024 38.4693 118.198 38.457 118.368 38.4823C118.535 38.5061 118.694 38.5677 118.834 38.6625C118.975 38.7572 119.092 38.8828 119.179 39.0298C119.279 39.2327 119.335 39.4545 119.346 39.6811C119.418 40.5676 119.25 41.4573 118.858 42.2532C118.674 42.6554 118.406 43.0124 118.073 43.2997C117.803 43.5225 117.48 43.6703 117.137 43.7285L116.906 43.7645C116.831 44.0425 116.749 44.2754 116.709 44.4009C116.429 45.1721 114.825 47.8981 112.83 48.7667C112.788 49.3221 112.847 49.8806 113.004 50.4145C113.179 50.7171 113.417 50.9778 113.701 51.1787C113.683 50.9919 113.67 50.8048 113.649 50.6183L114.602 50.8394C115 51.2898 115.361 51.7171 115.703 52.1402C116.574 52.5566 117.679 52.9613 118.743 53.3595C119.439 53.2153 120.067 52.837 120.525 52.2857C120.983 51.7344 121.245 51.0424 121.268 50.3215C121.262 49.3487 121.099 48.3834 120.785 47.4641C120.388 46.2073 119.618 43.6543 119.562 39.0926C119.629 37.8089 119.611 36.522 119.508 35.2408C119.334 32.7696 118.246 30.0099 116.68 28.4759C115.725 27.4885 114.573 26.7196 113.302 26.2206C112.213 25.7948 111.201 25.5901 109.291 25.5901C106.65 25.6451 104.114 26.6518 102.136 28.4305C100.084 30.4245 98.7826 34.0687 98.9467 39.0926C98.9467 42.754 98.6726 45.3947 98.2877 46.8952C97.997 48.1359 97.8312 49.4034 97.793 50.6781C97.8076 51.2309 97.9659 51.77 98.2516 52.2408C98.5374 52.7116 98.9405 53.0975 99.4203 53.3592Z" fill="#65B005"/>
<path d="M117.82 39.1827C117.882 39.1337 117.953 39.0977 118.029 39.0767C118.106 39.0558 118.185 39.0504 118.263 39.0609C118.341 39.0713 118.416 39.0974 118.485 39.1376C118.553 39.1778 118.612 39.2313 118.66 39.295C118.758 39.5037 118.801 39.7348 118.783 39.9654C118.793 40.2433 118.774 40.5215 118.728 40.7956C118.551 41.7814 118.064 42.9676 116.982 43.1644C116.835 43.2067 116.711 43.3061 116.635 43.441C116.559 43.576 116.539 43.7357 116.578 43.8858C116.622 44.0341 116.72 44.1596 116.852 44.2361C116.985 44.3126 117.141 44.3342 117.289 44.2963C118.985 43.9875 119.795 42.0457 119.923 40.4841C119.989 39.6724 119.916 38.7581 119.226 38.2344C118.897 37.9948 118.498 37.8761 118.094 37.8978C117.689 37.9195 117.305 38.0803 117.002 38.3537C116.895 38.4643 116.835 38.6133 116.835 38.7685C116.835 38.9237 116.895 39.0727 117.002 39.1833C117.112 39.2902 117.259 39.3499 117.411 39.3499C117.563 39.3499 117.709 39.2902 117.819 39.1833L117.82 39.1827Z" fill="#726A69"/>
<path d="M101.787 38.3526C101.485 38.0792 101.1 37.9185 100.696 37.8968C100.292 37.8751 99.8926 37.9938 99.5637 38.2332C98.8727 38.7552 98.801 39.6731 98.8672 40.483C98.9948 42.0442 99.8049 43.9861 101.501 44.2952C101.649 44.3322 101.805 44.3102 101.937 44.2338C102.069 44.1574 102.167 44.0325 102.212 43.8846C102.251 43.7346 102.231 43.5748 102.155 43.4399C102.079 43.3049 101.954 43.2056 101.807 43.1633C100.727 42.9665 100.239 41.7803 100.062 40.7944C100.018 40.5359 99.9994 40.2737 100.006 40.0115C99.9886 39.778 100.024 39.5436 100.11 39.3264C100.155 39.2568 100.214 39.1974 100.282 39.1519C100.351 39.1064 100.428 39.0759 100.509 39.0623C100.59 39.0487 100.672 39.0523 100.752 39.0728C100.831 39.0933 100.905 39.1304 100.97 39.1816C101.08 39.2877 101.226 39.3468 101.378 39.3468C101.53 39.3468 101.676 39.2877 101.787 39.1816C101.894 39.0709 101.954 38.922 101.954 38.7668C101.954 38.6116 101.894 38.4626 101.787 38.352L101.787 38.3526Z" fill="#726A69"/>
<path d="M99.7044 52.8562C99.2205 52.5832 98.8308 52.1658 98.588 51.6607C98.3964 51.2024 98.3257 50.7013 98.3829 50.2068C98.4452 49.102 98.6086 48.0055 98.871 46.9315C99.3651 44.8847 99.4572 42.7167 99.504 40.6191C99.5352 39.2168 99.4653 37.8145 99.5774 36.4149C99.6652 35.2489 99.8753 34.0958 100.204 32.9751C100.718 31.2514 101.59 29.5831 102.995 28.443C106.432 25.6542 111.946 25.2384 115.439 28.1383C116.23 28.7722 116.903 29.5431 117.429 30.4154C118.044 31.4836 118.483 32.6468 118.728 33.8589C119.214 36.1791 118.905 38.5726 119.044 40.9185C119.14 42.875 119.443 44.8152 119.949 46.7057C120.428 48.4274 121.376 50.6317 119.897 52.1123C119.542 52.4691 119.088 52.7079 118.596 52.797C117.866 52.9386 118.175 54.0694 118.903 53.9283C119.473 53.8047 120.008 53.5458 120.461 53.1726C120.915 52.7995 121.275 52.3227 121.513 51.7812C122.044 50.5789 121.851 49.1804 121.522 47.9429C121.329 47.216 121.081 46.506 120.9 45.7755C120.67 44.8429 120.496 43.8968 120.38 42.9425C120.184 41.5639 120.11 40.1704 120.158 38.7784C120.206 37.6188 120.181 36.4573 120.085 35.3008C119.909 32.7716 118.993 30.0517 117.226 28.2043C115.67 26.5372 113.605 25.4516 111.366 25.1232C108.711 24.7407 106.006 25.2547 103.667 26.5862C101.944 27.5604 100.573 29.0687 99.7544 30.8907C98.7064 33.1977 98.3451 35.7744 98.3503 38.2981C98.3555 40.8217 98.3656 43.3797 97.9134 45.8708C97.7228 46.9215 97.4626 47.9441 97.3358 49.0086C97.1914 50.2191 97.0759 51.4469 97.7427 52.5304C98.0868 53.0851 98.5605 53.545 99.1216 53.8691C99.7671 54.2462 100.349 53.2331 99.7044 52.8562Z" fill="#4F8D00"/>
<path d="M110.46 32.9305C108.566 33.4488 106.745 34.2106 105.041 35.1973C103.601 36.0351 102.168 37.0667 101.215 38.4713C100.793 39.0945 101.793 39.6816 102.213 39.0634C103.07 37.7998 104.434 36.8934 105.727 36.1503C107.315 35.2431 109.008 34.5414 110.767 34.0615C111.484 33.8648 111.18 32.7331 110.46 32.9305Z" fill="#4F8D00"/>
<path d="M110.307 32.2804C113.441 33.4739 115.456 36.2952 116.394 39.4649C116.608 40.186 117.723 39.879 117.508 39.1532C117.036 37.4936 116.263 35.9378 115.23 34.5651C114.033 33.0143 112.435 31.8316 110.615 31.1491C110.467 31.1091 110.31 31.1298 110.177 31.2066C110.044 31.2834 109.946 31.4102 109.905 31.5596C109.867 31.7096 109.889 31.8685 109.964 32.0031C110.039 32.1376 110.163 32.2373 110.309 32.2813L110.307 32.2804Z" fill="#4F8D00"/>
<path d="M116.483 42.811C116.452 43.2269 116.364 43.6364 116.223 44.0279C116.199 44.1007 116.172 44.1725 116.151 44.2461C116.139 44.2851 116.093 44.3819 116.163 44.2224C116.125 44.3086 116.086 44.3936 116.044 44.4778C115.79 44.9803 115.496 45.4608 115.165 45.9147C114.404 46.9733 113.369 48.0938 112.075 48.402C111.353 48.5744 111.657 49.7058 112.382 49.533C113.963 49.1565 115.188 47.8451 116.118 46.5663C116.921 45.4634 117.581 44.213 117.637 42.8127C117.666 42.0579 116.511 42.0591 116.482 42.8127L116.483 42.811Z" fill="#726A69"/>
<path d="M101.22 43.1861C101.878 46.3256 104.133 49.4132 107.466 49.7765C107.619 49.7755 107.765 49.7133 107.873 49.6036C107.981 49.4938 108.043 49.3453 108.044 49.19C108.04 49.0356 107.979 48.8883 107.871 48.7791C107.763 48.6698 107.618 48.6069 107.466 48.6036C106.127 48.4569 104.987 47.6358 104.109 46.6429C103.202 45.5669 102.589 44.2671 102.334 42.8744C102.179 42.1363 101.065 42.4486 101.22 43.1861Z" fill="#726A69"/>
<path d="M114.285 51.1874C114.285 50.815 113.918 50.6232 113.691 50.3851C113.653 50.3464 113.619 50.3059 113.583 50.2654C113.531 50.2068 113.604 50.2895 113.612 50.308C113.599 50.2867 113.585 50.2663 113.57 50.2467C113.549 50.2135 113.534 50.1739 113.512 50.1423C113.527 50.1637 113.559 50.2725 113.535 50.1901C113.526 50.1608 113.515 50.1314 113.506 50.0995C113.477 49.996 113.475 49.8696 113.436 49.7716C113.457 49.825 113.448 49.8784 113.438 49.786C113.435 49.7584 113.432 49.7311 113.43 49.7036C113.424 49.6414 113.42 49.579 113.417 49.5162C113.404 49.2672 113.407 49.0177 113.408 48.7681C113.408 48.6126 113.347 48.4634 113.239 48.3534C113.131 48.2434 112.984 48.1816 112.831 48.1816C112.677 48.1816 112.531 48.2434 112.422 48.3534C112.314 48.4634 112.253 48.6126 112.253 48.7681C112.224 49.3069 112.267 49.8473 112.382 50.3742C112.549 50.8718 112.87 51.3013 113.297 51.5991L113.128 51.1845V51.1874C113.128 51.343 113.189 51.4921 113.297 51.6021C113.406 51.7121 113.552 51.7739 113.706 51.7739C113.859 51.7739 114.006 51.7121 114.114 51.6021C114.222 51.4921 114.283 51.343 114.283 51.1874H114.285Z" fill="#726A69"/>
<path d="M105.42 48.8028C105.428 49.106 105.421 49.4094 105.399 49.7119C105.397 49.7524 105.393 49.7928 105.387 49.833C105.402 49.7538 105.394 49.7781 105.383 49.8426C105.372 49.9072 105.357 49.9799 105.339 50.0479C105.329 50.0846 105.319 50.1206 105.307 50.1567C105.301 50.1767 105.262 50.2708 105.303 50.1813C105.343 50.0919 105.274 50.2233 105.26 50.2456C105.205 50.3233 105.249 50.2629 105.26 50.2456C105.32 50.1632 105.26 50.2435 105.243 50.2611C105.207 50.3019 105.17 50.3409 105.131 50.3784C105.035 50.4722 104.932 50.5567 104.829 50.6423C104.867 50.6104 104.885 50.5998 104.835 50.6373L104.738 50.7101C104.678 50.7552 104.616 50.798 104.555 50.8426C104.41 50.9444 104.263 51.042 104.114 51.1379C103.982 51.2164 103.886 51.3451 103.847 51.4956C103.808 51.6461 103.83 51.8061 103.907 51.9404C103.984 52.0747 104.111 52.1723 104.259 52.2118C104.408 52.2512 104.565 52.2293 104.697 52.1508C105.025 51.9411 105.341 51.7145 105.646 51.4719C105.88 51.2932 106.086 51.0793 106.258 50.8376C106.428 50.5301 106.526 50.1862 106.542 49.8336C106.575 49.4915 106.586 49.1477 106.575 48.8043C106.575 48.6487 106.514 48.4995 106.406 48.3896C106.298 48.2796 106.151 48.2178 105.998 48.2178C105.845 48.2178 105.698 48.2796 105.589 48.3896C105.481 48.4995 105.42 48.6487 105.42 48.8043V48.8028Z" fill="#726A69"/>
<path d="M114.643 80.3599C114.421 79.7322 114.244 79.0889 114.115 78.4351C113.98 77.5899 113.848 76.697 113.734 75.7305C111.564 75.7478 105.937 75.8618 104.713 75.8618H104.399C104.287 76.7779 104.16 77.6283 104.032 78.4351C103.902 79.0888 103.726 79.7322 103.504 80.3599H114.643Z" fill="white"/>
<path d="M82.9782 57.3963C82.995 57.4197 83.0406 57.5156 82.997 57.4142C82.9424 57.2875 83.001 57.5083 82.984 57.3693C82.9698 57.252 82.9817 57.3772 82.9811 57.4054C82.9811 57.42 82.9785 57.4347 82.9791 57.45C82.9814 57.5194 83.0094 57.3033 82.9857 57.3995C82.9785 57.4288 82.9727 57.4599 82.9644 57.4895C82.9583 57.5115 82.9115 57.6362 82.9528 57.5344C82.9941 57.4327 82.9424 57.5497 82.9306 57.5699C82.9221 57.581 82.9147 57.5929 82.9083 57.6054C82.8936 57.6514 82.9851 57.5218 82.9511 57.5505C82.9382 57.5609 82.9268 57.5729 82.917 57.5863C82.8936 57.6212 82.9782 57.5373 82.9825 57.5365C82.9482 57.5519 82.9159 57.5716 82.8864 57.5951C82.8379 57.6268 82.9482 57.5708 82.9482 57.5708C82.9318 57.5758 82.9157 57.5816 82.8999 57.5884C82.8558 57.6036 82.8108 57.6159 82.7651 57.6253C82.6346 57.6523 82.8598 57.6253 82.7608 57.6253C82.7255 57.6253 82.6909 57.6282 82.6556 57.6253C82.6337 57.6253 82.6077 57.6189 82.5866 57.6206C82.5866 57.6206 82.7131 57.6467 82.6571 57.6282C82.6123 57.6136 82.5644 57.5989 82.5193 57.5866C82.4584 57.569 82.5589 57.6004 82.5615 57.6063C82.5575 57.5977 82.5144 57.5837 82.5055 57.579C82.4619 57.5573 82.4188 57.5338 82.3775 57.5089C82.2937 57.458 82.2125 57.4029 82.1341 57.3438C82.113 57.3251 82.0905 57.308 82.0668 57.2928C82.0691 57.2928 82.1514 57.3614 82.1012 57.3192C82.0662 57.2898 82.031 57.262 81.9969 57.2312C81.9282 57.1699 81.8673 57.1025 81.8043 57.0353C81.731 56.957 81.8574 57.1183 81.7982 57.0294C81.7731 56.9919 81.7483 56.9544 81.726 56.9148C81.7168 56.8981 81.7084 56.8808 81.6992 56.864C81.6507 56.7761 81.7128 56.8852 81.7125 56.9004C81.7058 56.8513 81.6924 56.8033 81.6726 56.7579C81.6755 56.7623 81.6758 56.8717 81.6827 56.8283C81.684 56.8153 81.684 56.8022 81.6827 56.7893C81.6761 56.699 81.6622 56.9532 81.681 56.8294C81.6836 56.8165 81.6878 56.8039 81.6934 56.7919C81.7093 56.7884 81.6253 56.9171 81.6628 56.8705C81.6758 56.8541 81.752 56.7353 81.6859 56.8242C81.6232 56.908 81.7076 56.8089 81.7286 56.7863C81.7376 56.7767 81.7552 56.7676 81.7621 56.757C81.7454 56.7863 81.6466 56.8362 81.7298 56.784C81.7604 56.7649 81.7902 56.745 81.8222 56.7277C81.8415 56.7197 81.8601 56.7098 81.8777 56.6984C81.8644 56.711 81.7512 56.7441 81.8263 56.7218C81.8661 56.7101 81.9048 56.696 81.9455 56.6869C81.9602 56.6837 81.9764 56.6822 81.9909 56.6781C82.0486 56.662 81.8398 56.6825 81.9438 56.6869C81.9782 56.6887 82.0145 56.6896 82.0492 56.6896C82.1194 56.6896 81.9221 56.652 81.9842 56.6822C82.0076 56.6907 82.0315 56.6976 82.0558 56.7028C82.2036 56.7427 82.3609 56.722 82.4938 56.6452C82.6267 56.5684 82.7246 56.4416 82.7662 56.2922C82.8036 56.1422 82.7823 55.9834 82.707 55.849C82.6316 55.7145 82.508 55.6149 82.3619 55.5708C82.1051 55.5015 81.8348 55.5018 81.5781 55.5717C81.3213 55.6416 81.0872 55.7788 80.899 55.9694C80.6884 56.1723 80.5575 56.4459 80.5305 56.7394C80.5185 57.03 80.5978 57.3169 80.7569 57.5587C80.9024 57.7903 81.0859 57.9949 81.2995 58.1634C81.5119 58.3473 81.7459 58.5036 81.9963 58.6288C82.2791 58.7674 82.5952 58.8204 82.9069 58.7813C83.2049 58.7503 83.4868 58.6286 83.7155 58.432C84.1134 58.071 84.3046 57.2676 83.9754 56.8048C83.8958 56.676 83.7733 56.5804 83.6303 56.5353C83.5195 56.5042 83.4021 56.5074 83.2932 56.5444C83.1842 56.5814 83.0886 56.6506 83.0185 56.7431C82.9485 56.8356 82.9072 56.9472 82.9 57.0637C82.8927 57.1802 82.9199 57.2962 82.9779 57.3969L82.9782 57.3963Z" fill="#726A69"/>
<path d="M83.4048 54.2258C83.0527 54.0209 82.6391 53.9531 82.2413 54.0352C81.905 54.1287 81.6154 54.3467 81.4295 54.6463C81.2454 54.923 81.1508 55.2509 81.1587 55.5847C81.1638 55.768 81.2177 55.9464 81.3146 56.1011C81.3871 56.2104 81.4801 56.3039 81.5884 56.3765C81.6173 56.3985 81.6461 56.4199 81.6765 56.4422C81.5861 56.3735 81.727 56.4838 81.744 56.4976C82.1417 56.8248 82.5624 57.1201 82.9742 57.4286C83.1379 57.5599 83.3139 57.6746 83.4995 57.7711C83.8147 57.9163 84.1713 57.9391 84.5019 57.8354C84.7036 57.7811 84.8896 57.6788 85.0446 57.5371C85.1996 57.3953 85.3192 57.2181 85.3934 57.0201C85.4711 56.808 85.4961 56.5796 85.4662 56.3553C85.4363 56.131 85.3525 55.9176 85.2222 55.734C85.1426 55.6022 85.016 55.5067 84.8687 55.4676C84.7215 55.4284 84.565 55.4485 84.432 55.5237C84.3011 55.6034 84.2061 55.732 84.1673 55.882C84.1286 56.0319 84.1492 56.1913 84.2247 56.326C84.2665 56.383 84.3026 56.4441 84.3324 56.5084C84.3203 56.4809 84.3035 56.4099 84.3217 56.5029C84.3399 56.5958 84.3116 56.4902 84.3235 56.4779C84.3082 56.4938 84.3483 56.6682 84.3295 56.5659C84.3165 56.4949 84.3321 56.5463 84.3223 56.5847C84.3197 56.5949 84.2934 56.6741 84.2934 56.675C84.2819 56.6636 84.3636 56.5492 84.3061 56.6334C84.2954 56.647 84.2864 56.662 84.2793 56.6779C84.2599 56.7445 84.3598 56.59 84.3102 56.6398C84.2605 56.6897 84.27 56.6507 84.3041 56.6551L84.3347 56.6325C84.3197 56.6436 84.3044 56.6539 84.2882 56.6636C84.272 56.6732 84.255 56.682 84.2391 56.6929C84.1525 56.7463 84.2547 56.677 84.2703 56.6812C84.2378 56.6875 84.2061 56.6974 84.1756 56.7105C84.1499 56.7172 84.1233 56.7213 84.0979 56.7284C84.0214 56.7495 84.2134 56.7225 84.1343 56.724C84.0901 56.724 84.0453 56.724 84.0012 56.7269C83.8831 56.7307 84.1222 56.738 84.0139 56.7269C84.0009 56.7269 83.9885 56.7143 83.9758 56.7131C83.9968 56.7152 84.1202 56.7858 84.0384 56.7375C83.8973 56.655 83.7603 56.5654 83.6281 56.4688C83.3624 56.2735 83.0958 56.0803 82.8296 55.8865C82.816 55.8768 82.7334 55.8149 82.7909 55.8586C82.8483 55.9023 82.7666 55.839 82.7536 55.8293C82.7086 55.7926 82.6641 55.7554 82.6193 55.7184C82.5665 55.6747 82.5136 55.6305 82.4602 55.5885C82.4068 55.5466 82.3548 55.5047 82.302 55.4639C82.2855 55.4513 82.1827 55.3522 82.2399 55.4179C82.31 55.4982 82.1841 55.3372 82.2687 55.4507C82.3216 55.5222 82.2901 55.4777 82.2803 55.4595C82.3424 55.5739 82.3202 55.5586 82.3063 55.5117C82.2794 55.4205 82.3196 55.5604 82.3129 55.5703C82.3147 55.5473 82.3147 55.5242 82.3129 55.5011C82.31 55.422 82.3461 55.5178 82.3046 55.5495C82.3233 55.5351 82.3334 55.4284 82.3409 55.4029C82.3392 55.4085 82.3643 55.3308 82.3667 55.3311C82.3768 55.3331 82.3089 55.4466 82.3632 55.3504C82.3779 55.3246 82.4481 55.2372 82.4478 55.2105C82.4478 55.2255 82.3539 55.3126 82.4204 55.2504C82.4421 55.2313 82.4627 55.2109 82.4819 55.1891C82.5255 55.1355 82.3828 55.2399 82.4466 55.2161C82.4727 55.2033 82.4976 55.1883 82.5211 55.1712C82.5925 55.1267 82.5032 55.2102 82.4801 55.188C82.5036 55.1829 82.5267 55.1762 82.5492 55.1677C82.6393 55.1366 82.5246 55.1765 82.5056 55.1704C82.5381 55.1728 82.5708 55.1719 82.6032 55.1677C82.6274 55.1677 82.7089 55.1865 82.6292 55.1677C82.5379 55.1457 82.6632 55.1789 82.6814 55.1841C82.712 55.1926 82.7415 55.2035 82.7715 55.2135C82.6733 55.1809 82.788 55.2223 82.8226 55.2404C82.9549 55.319 83.1125 55.3409 83.2607 55.3014C83.4089 55.262 83.5356 55.1643 83.6129 55.03C83.6902 54.8957 83.7118 54.7357 83.673 54.5852C83.6341 54.4347 83.538 54.3061 83.4057 54.2276L83.4048 54.2258Z" fill="#726A69"/>
<path d="M84.7557 55.3084C84.3073 54.9392 83.8715 54.5548 83.4305 54.1765C83.3479 54.1053 83.2646 54.0349 83.1807 53.9651C83.1565 53.9448 83.1328 53.9214 83.1068 53.9038C83.0562 53.8701 83.064 53.8272 83.1403 53.9674C83.2206 54.114 83.1819 54.0888 83.172 54.0419C83.2081 54.2161 83.181 54.1393 83.181 54.0818C83.1844 54.0596 83.1855 54.0371 83.1842 54.0146C83.2131 54.0891 83.1591 54.134 83.1824 54.044C83.1972 53.9874 83.209 53.9308 83.2278 53.875C83.2344 53.8498 83.2433 53.8253 83.2544 53.8017C83.2619 53.7997 83.1966 53.9161 83.2425 53.8381C83.2599 53.8141 83.2746 53.7881 83.2861 53.7607C83.3106 53.7226 83.2962 53.7399 83.2431 53.8126C83.2537 53.799 83.2653 53.7861 83.2777 53.7742C83.2956 53.7575 83.3644 53.7132 83.2994 53.7504C83.2128 53.7991 83.3494 53.729 83.3473 53.7284C83.3453 53.7278 83.2102 53.7707 83.3263 53.7393L83.4083 53.7173C83.5264 53.685 83.3794 53.7217 83.3817 53.7205C83.3921 53.7079 83.4712 53.7187 83.4891 53.7205H83.5108C83.5766 53.7268 83.5684 53.7256 83.486 53.717C83.5294 53.7205 83.5718 53.7324 83.611 53.7519C83.607 53.7463 83.4738 53.68 83.6023 53.7519C83.6338 53.7695 83.6662 53.7856 83.6979 53.8029C83.7667 53.8407 83.8345 53.8797 83.9001 53.9202C84.0328 54.0016 84.1613 54.0896 84.2853 54.1841C84.1851 54.1082 84.3243 54.2181 84.3517 54.2428C84.411 54.2938 84.4688 54.3463 84.525 54.4002C84.6284 54.4991 84.7271 54.6023 84.8233 54.7099C84.8493 54.7392 84.875 54.7686 84.8998 54.7994C84.9247 54.8301 84.9795 54.9126 84.9059 54.8049C84.9385 54.8527 84.9717 54.8999 85.0015 54.9495C85.0355 55.006 85.0666 55.0643 85.0948 55.124C85.1026 55.1407 85.1407 55.2301 85.1121 55.1598C85.0812 55.0841 85.1361 55.2307 85.141 55.2448C85.1846 55.3621 85.1208 55.2243 85.1453 55.2219C85.1478 55.2616 85.1471 55.3014 85.143 55.341C85.1289 55.3465 85.1855 55.1879 85.143 55.3052L85.1317 55.3451C85.1104 55.4058 85.115 55.3979 85.1453 55.3219C85.1357 55.3484 85.1228 55.3735 85.1069 55.3967C85.0965 55.4149 85.0855 55.4328 85.0737 55.4501C85.0497 55.4858 85.0595 55.4741 85.1026 55.4155C85.0994 55.4295 85.0532 55.4709 85.0474 55.4768C85.033 55.4914 85.0185 55.5061 85.0026 55.5184C84.9699 55.5467 84.9826 55.537 85.0408 55.4891C85.0408 55.4838 84.983 55.5319 84.9738 55.5287C85.0489 55.4993 85.0546 55.4943 84.9911 55.5137L85.0584 55.5023C84.931 55.5225 85.0925 55.5023 85.0832 55.5096C85.0543 55.5281 84.9432 55.453 85.0543 55.5096C84.9809 55.4724 84.9103 55.4295 84.8432 55.3814C84.8271 55.3697 84.7505 55.3128 84.8167 55.3627C84.888 55.4166 84.7673 55.3219 84.7552 55.3117C84.6451 55.205 84.4988 55.1455 84.3467 55.1455C84.1945 55.1455 84.0483 55.205 83.9382 55.3117C83.8314 55.4225 83.7717 55.5713 83.7717 55.7263C83.7717 55.8813 83.8314 56.0302 83.9382 56.141C84.2735 56.4169 84.6437 56.7016 85.1017 56.6732C85.3318 56.6482 85.5512 56.5613 85.7372 56.4215C85.9231 56.2816 86.0689 56.0939 86.1595 55.8776C86.2575 55.6743 86.3062 55.4502 86.3016 55.224C86.2781 54.9743 86.2037 54.7324 86.0833 54.5134C85.9006 54.1716 85.6615 53.8641 85.3763 53.6044C84.7866 53.0305 83.9613 52.4021 83.1004 52.5883C82.8839 52.6411 82.6838 52.7482 82.5185 52.8998C82.3533 53.0515 82.2282 53.2428 82.1547 53.4563C82.0718 53.628 82.0276 53.8163 82.0255 54.0075C82.0233 54.1987 82.0632 54.388 82.1422 54.5615C82.2574 54.7155 82.3966 54.8492 82.5543 54.9574C82.6863 55.07 82.8174 55.1844 82.9482 55.2982C83.2751 55.5826 83.6038 55.8647 83.9382 56.1398C84.0483 56.2464 84.1945 56.3059 84.3467 56.3059C84.4988 56.3059 84.6451 56.2464 84.7552 56.1398C84.8625 56.0289 84.9227 55.8797 84.9228 55.7242C84.923 55.5687 84.863 55.4194 84.7557 55.3084Z" fill="#726A69"/>
<path d="M86.2017 51.5785C86.209 51.5548 86.2142 51.4905 86.237 51.4882C86.3274 51.4788 86.4152 51.5721 86.4695 51.6322C86.67 51.9091 86.8019 52.231 86.8541 52.5706C87.095 53.5183 87.8331 54.0089 88.3321 54.7896C88.4549 54.9984 88.5336 55.2309 88.5631 55.4722C88.6343 55.8493 88.6864 56.2299 88.7191 56.6124C88.8242 57.688 88.8814 58.7683 88.9608 59.8463C89.0159 60.5943 90.1717 60.6005 90.1159 59.8463C90.0218 58.5686 89.9675 57.2839 89.8078 56.0127C89.7686 55.5648 89.6847 55.122 89.5574 54.6913C89.3879 54.2565 89.1339 53.8608 88.8106 53.5277C88.4996 53.1738 88.1282 52.8406 87.9954 52.37C87.8945 51.8792 87.7045 51.4119 87.4351 50.9917C86.766 50.0827 85.4489 50.1058 85.0882 51.2683C84.8641 51.9899 85.9791 52.2987 86.202 51.58L86.2017 51.5785Z" fill="#726A69"/>
<path d="M84.8032 53.3548C84.901 53.9698 85.0592 54.5734 85.2754 55.1565C85.3716 55.4308 85.4415 55.7139 85.4842 56.0019C85.4732 55.9107 85.4882 56.082 85.4893 56.0993C85.4942 56.1835 85.4949 56.2678 85.4914 56.3521C85.4914 56.3521 85.4723 56.5374 85.4859 56.4477C85.4721 56.5319 85.4528 56.615 85.4281 56.6966C85.408 56.7709 85.4024 56.8485 85.4118 56.9249C85.4212 57.0014 85.4453 57.0752 85.4827 57.1422C85.5202 57.2091 85.5703 57.268 85.6301 57.3153C85.69 57.3626 85.7584 57.3975 85.8316 57.418C85.9047 57.4385 85.9811 57.4441 86.0564 57.4346C86.1317 57.4251 86.2044 57.4006 86.2703 57.3626C86.3363 57.3245 86.3942 57.2737 86.4408 57.2129C86.4875 57.1521 86.5218 57.0826 86.542 57.0083C86.7 56.3536 86.6672 55.6663 86.4475 55.0301C86.3609 54.7395 86.2572 54.4545 86.1642 54.1659C86.1183 54.0225 86.0747 53.8782 86.0375 53.7322C86.019 53.6598 86.0019 53.5856 85.9872 53.5137C85.9788 53.4721 85.971 53.4302 85.9641 53.3882C85.9529 53.3155 85.9508 53.3044 85.9589 53.3548C85.9552 53.2004 85.8931 53.0535 85.7856 52.9443C85.6781 52.8351 85.5334 52.7721 85.3813 52.7683C85.0989 52.7812 84.7657 53.0287 84.8038 53.3548H84.8032Z" fill="#726A69"/>
<path d="M84.4887 53.7756C85.113 53.8762 85.9055 53.9431 86.4218 53.4909C86.5469 53.3746 86.6465 53.2329 86.7143 53.0751C86.7821 52.9173 86.8165 52.7468 86.8154 52.5746C86.8143 52.4024 86.7776 52.2324 86.7078 52.0755C86.638 51.9186 86.5365 51.7783 86.41 51.6637C85.865 51.1728 85.0859 51.037 84.3804 51.0156C83.7832 50.9974 83.0661 51.0663 82.5611 51.4261C82.4091 51.5276 82.2794 51.66 82.1804 51.815C82.1329 51.8928 82.0959 51.9767 82.0704 52.0645C82.0493 52.1387 82.0179 52.4091 82.0436 52.2111C81.9967 52.6607 82.0843 53.1141 82.2951 53.5123C82.3728 53.6461 82.4995 53.7433 82.6475 53.7827C82.7954 53.8221 82.9528 53.8006 83.0852 53.7228C83.2143 53.6413 83.3077 53.5127 83.3463 53.3634C83.3848 53.2142 83.3656 53.0555 83.2925 52.9202C83.2755 52.8892 83.2613 52.8567 83.2501 52.8232C83.2279 52.7645 83.2074 52.7035 83.1909 52.6419C83.1845 52.6185 83.1594 52.4774 83.1684 52.5554C83.1773 52.6334 83.1704 52.4821 83.1701 52.4551C83.1701 52.4416 83.1701 52.3639 83.1701 52.4449C83.1666 52.5935 83.1635 52.1921 83.1799 52.3707C83.1903 52.4801 83.2065 52.3059 83.1733 52.4029C83.1317 52.5237 83.2328 52.3296 83.162 52.4264C83.097 52.5144 83.2622 52.3677 83.1762 52.4138C83.0959 52.4578 83.2033 52.3982 83.2232 52.3862C83.257 52.366 83.2949 52.351 83.3281 52.3299C83.3798 52.2971 83.2914 52.3452 83.2862 52.3469C83.3151 52.3375 83.3411 52.3258 83.3685 52.3176C83.4196 52.3 83.4716 52.2845 83.5239 52.2707C83.6206 52.2449 83.7185 52.2276 83.817 52.21C83.9065 52.1941 83.728 52.2153 83.821 52.21C83.8479 52.21 83.875 52.2044 83.9019 52.2021C83.9662 52.1968 84.0308 52.193 84.0957 52.1906C84.2201 52.1859 84.3449 52.1871 84.4693 52.1933C84.5271 52.1962 84.5857 52.2003 84.6452 52.2056L84.7336 52.2144C84.8326 52.2241 84.6579 52.2021 84.7567 52.2164C84.8885 52.2353 85.0191 52.2621 85.1477 52.2968C85.2033 52.312 85.2585 52.3291 85.3132 52.3481C85.3389 52.3569 85.3643 52.3677 85.39 52.3774C85.4553 52.3997 85.3242 52.3402 85.4169 52.3912C85.4584 52.4141 85.5006 52.4352 85.5407 52.4601C85.5921 52.4921 85.6372 52.5369 85.5641 52.4689C85.5952 52.5021 85.628 52.5334 85.6626 52.5628C85.7181 52.6032 85.6147 52.515 85.6288 52.5141C85.6437 52.5317 85.6561 52.5515 85.6655 52.5727C85.6655 52.5839 85.7105 52.6478 85.6655 52.5663C85.6254 52.4924 85.656 52.5557 85.6655 52.5718C85.7157 52.673 85.6329 52.4792 85.6698 52.5821C85.7134 52.7032 85.6655 52.5308 85.6814 52.5501C85.6796 52.5709 85.6749 52.5912 85.6672 52.6105C85.6317 52.6601 85.6874 52.5713 85.6895 52.5677C85.6745 52.5913 85.6608 52.6157 85.6485 52.6408C85.6485 52.6408 85.7045 52.5478 85.6719 52.6056C85.658 52.6299 85.5656 52.6935 85.6678 52.6129C85.6615 52.6176 85.591 52.6589 85.6513 52.627C85.7117 52.595 85.634 52.6322 85.6193 52.6358C85.5959 52.6416 85.5725 52.6475 85.5488 52.6525C85.535 52.6554 85.5199 52.6575 85.5072 52.6601C85.3917 52.6842 85.5407 52.6572 85.541 52.6566C85.4319 52.6733 85.3215 52.6796 85.2112 52.6754C85.0728 52.6757 84.9346 52.6665 84.7974 52.6478C84.6497 52.6104 84.4936 52.6322 84.3613 52.7087C84.229 52.7851 84.1308 52.9103 84.087 53.0583C84.0481 53.2084 84.0686 53.3679 84.1442 53.5028C84.2198 53.6376 84.3444 53.737 84.4913 53.7797L84.4887 53.7756Z" fill="#726A69"/>
<path d="M81.4158 58.3793C81.8409 59.0953 82.3693 59.7426 82.9833 60.2997C83.2983 60.583 83.6671 60.839 83.9504 61.0845C84.2453 61.3335 84.4993 61.6286 84.703 61.9586C84.7413 62.0251 84.7921 62.0833 84.8525 62.1299C84.913 62.1765 84.9818 62.2105 85.0552 62.23C85.1286 62.2496 85.205 62.2542 85.2802 62.2438C85.3554 62.2333 85.4278 62.2079 85.4933 62.169C85.5588 62.1301 85.6161 62.0786 85.6619 62.0172C85.7078 61.9558 85.7413 61.8859 85.7605 61.8114C85.7798 61.7369 85.7844 61.6592 85.7741 61.5829C85.7638 61.5066 85.7387 61.4331 85.7005 61.3666C85.4665 60.9872 85.1835 60.6415 84.8589 60.3387C84.5335 60.0396 84.1962 59.8185 83.8901 59.552C83.3048 59.0512 82.8054 58.4552 82.4124 57.7884C82.335 57.6541 82.2083 57.5564 82.0601 57.517C81.9119 57.4775 81.7544 57.4995 81.6221 57.578C81.4898 57.6565 81.3937 57.7851 81.3548 57.9356C81.316 58.0861 81.3376 58.2461 81.4149 58.3804L81.4158 58.3793Z" fill="#726A69"/>
<path d="M79.5688 38.4994C80.7704 41.813 81.9397 45.1358 83.1644 48.4404C83.5318 49.4314 83.9052 50.4198 84.2849 51.4057C84.3293 51.5533 84.4277 51.6781 84.5598 51.7545C84.692 51.8308 84.8479 51.8529 84.9956 51.8162C85.1428 51.7741 85.2678 51.6748 85.3435 51.5398C85.4192 51.4047 85.4394 51.2449 85.3999 51.0948C84.0322 47.5618 82.7644 43.9892 81.4866 40.4207C81.2197 39.6763 80.952 38.932 80.6835 38.1879C80.4288 37.4842 79.3117 37.7894 79.5696 38.5L79.5688 38.4994Z" fill="#726A69"/>
<path d="M77.8908 37.6232C77.9896 37.8701 78.0884 38.1169 78.1874 38.3636C78.3875 38.8639 78.5414 39.407 79.0537 39.6654C79.3182 39.8 79.6186 39.8439 79.9097 39.7906C80.1564 39.728 80.396 39.6396 80.6247 39.5267C80.9098 39.438 81.1773 39.2991 81.4149 39.1161C81.6048 38.941 81.7411 38.7139 81.8073 38.4622C81.9378 37.9484 81.7106 37.5006 81.5286 37.0358C81.4154 36.7467 81.3129 36.4452 81.1789 36.1652C80.8021 35.3781 79.7572 34.635 78.8686 34.9154C78.6318 35.0143 78.4207 35.1676 78.2518 35.363C78.0828 35.5585 77.9607 35.791 77.8949 36.0423C77.714 36.553 77.7121 37.1113 77.8894 37.6232C77.9329 37.7714 78.0311 37.8968 78.1634 37.9732C78.2958 38.0497 78.4521 38.0714 78.5998 38.0337C78.7467 37.9911 78.8713 37.8917 78.9469 37.7568C79.0224 37.622 79.043 37.4624 79.0041 37.3124C78.9745 37.2309 78.9497 37.1476 78.9299 37.0631C78.903 36.9552 78.9235 37.0373 78.9264 37.0631C78.9215 37.0197 78.9189 36.9751 78.9174 36.9326C78.9156 36.8544 78.9176 36.7761 78.9235 36.698C78.9339 36.5364 78.9024 36.7672 78.927 36.6737C78.94 36.6244 78.9469 36.5731 78.9593 36.5235C78.9781 36.4505 79.0023 36.3804 79.0266 36.3092C78.9876 36.4238 79.0185 36.3256 79.0344 36.2954C79.0503 36.2652 79.0688 36.2271 79.0878 36.1936C79.1026 36.1681 79.1199 36.1438 79.1343 36.1183C79.1978 36.0054 79.0745 36.1628 79.1317 36.1183C79.1561 36.0962 79.1785 36.0719 79.1987 36.0458C79.2701 35.9614 79.1017 36.1095 79.1953 36.0458C79.2131 36.0323 79.2325 36.021 79.253 36.0121C79.2345 36.0045 79.1153 36.0511 79.2328 36.0303C79.3142 36.0159 79.0864 36.0244 79.2195 36.0323C79.2467 36.0341 79.2773 36.0323 79.3035 36.0323C79.4058 36.0323 79.2998 36.0323 79.279 36.0277C79.3232 36.0388 79.3674 36.0473 79.411 36.0605C79.4399 36.0696 79.4687 36.0822 79.4996 36.0898C79.3809 36.0549 79.5126 36.0972 79.5386 36.1106C79.6137 36.1499 79.683 36.1969 79.7541 36.2423C79.7714 36.2535 79.8407 36.3095 79.7607 36.2444C79.7873 36.2664 79.8138 36.2889 79.8392 36.3124C79.9039 36.371 79.9617 36.4338 80.0206 36.498C80.0939 36.5781 80.0411 36.5203 80.0258 36.4998C80.0547 36.5402 80.0836 36.5822 80.1095 36.6256C80.1355 36.669 80.1563 36.7136 80.18 36.7552C80.2037 36.7968 80.2404 36.8177 80.1711 36.7303C80.1916 36.768 80.2075 36.8082 80.2184 36.8499C80.2569 36.9477 80.2954 37.0454 80.3339 37.1432C80.4564 37.4546 80.5797 37.7657 80.6932 38.0815C80.7094 38.1261 80.686 38.1695 80.6932 38.0701C80.6932 38.0733 80.6862 38.2305 80.6969 38.1349C80.7076 38.0393 80.6793 38.1895 80.6779 38.1953C80.6834 38.1722 80.7356 38.0942 80.6813 38.1851C80.6773 38.1918 80.5915 38.3024 80.6478 38.2437C80.7088 38.1798 80.5961 38.2874 80.5959 38.2877C80.6193 38.2675 80.6825 38.2358 80.5959 38.2792C80.448 38.3522 80.7198 38.2337 80.5141 38.3164C80.316 38.3959 80.1188 38.4774 79.9213 38.5578C79.8326 38.5951 79.7417 38.6269 79.6492 38.6531C79.7532 38.6238 79.6983 38.6437 79.6605 38.6452C79.5933 38.6411 79.5979 38.6434 79.6744 38.6522L79.629 38.6419C79.491 38.5736 79.7243 38.7182 79.5944 38.6323C79.5629 38.6117 79.4757 38.5264 79.5591 38.6144C79.5372 38.5912 79.5149 38.5698 79.4936 38.5455C79.5739 38.637 79.4915 38.5255 79.4786 38.5003C79.5198 38.5804 79.4589 38.4504 79.4497 38.4308L79.3763 38.2475L79.2573 37.9511L79.0018 37.3124C78.9579 37.1644 78.8597 37.0392 78.7274 36.9628C78.5952 36.8864 78.439 36.8645 78.2914 36.9018C78.145 36.9451 78.0212 37.0448 77.9463 37.1796C77.8715 37.3144 77.8515 37.4737 77.8908 37.6232Z" fill="#726A69"/>
<path d="M113.353 53.9698C110.618 54.7014 107.506 54.8991 104.82 53.8413C104.672 53.8012 104.515 53.8218 104.382 53.8986C104.249 53.9755 104.151 54.1024 104.11 54.2519C104.072 54.4019 104.094 54.5607 104.169 54.6951C104.244 54.8295 104.368 54.9292 104.514 54.9733C105.96 55.4931 107.485 55.7524 109.019 55.7395C110.588 55.7409 112.15 55.5264 113.662 55.1017C114.38 54.9096 114.075 53.7777 113.355 53.9707L113.353 53.9698Z" fill="#4F8D00"/>
<path d="M92.7039 64.4391C93.5362 62.2219 94.0491 59.9064 94.8236 57.671C94.9965 57.0795 95.2415 56.5122 95.5528 55.9822C95.8528 55.5468 96.2883 55.2266 96.7894 55.0732C97.7623 54.6776 98.7147 54.2474 99.7003 53.8791C100.861 53.4789 101.997 53.0098 103.103 52.4741C103.768 52.1319 103.182 51.1196 102.52 51.4613C101.521 51.9442 100.495 52.3671 99.4473 52.7278C98.4265 53.109 97.4371 53.5489 96.4301 53.963C95.8525 54.1999 95.3264 54.4104 94.9146 54.9081C94.5267 55.3892 94.2222 55.9336 94.0138 56.5183C93.5737 57.6842 93.2133 58.8766 92.8749 60.0759C92.4891 61.4422 92.0888 62.7993 91.5901 64.128C91.5505 64.2781 91.5708 64.438 91.6465 64.573C91.7221 64.7081 91.8471 64.8075 91.9944 64.8497C92.1421 64.8875 92.2984 64.8659 92.4308 64.7894C92.5632 64.7129 92.6614 64.5874 92.7048 64.4391H92.7039Z" fill="#726A69"/>
<path d="M93.6085 66.4268C92.6212 64.2043 91.717 61.9472 90.8128 59.6889C90.7874 59.6036 90.7435 59.525 90.6844 59.4591C90.6253 59.3932 90.5523 59.3416 90.471 59.308C90.3897 59.2744 90.3019 59.2597 90.2143 59.265C90.1266 59.2702 90.0412 59.2954 89.9644 59.3385C88.1759 60.2915 86.2679 61.2516 84.2851 61.7023C84.1381 61.7447 84.0133 61.8441 83.9376 61.979C83.862 62.114 83.8416 62.2737 83.8808 62.4237C84.4494 64.2712 84.9944 66.1251 85.6404 67.9455C86.2113 69.5552 86.814 71.2501 87.7127 72.707C88.5187 74.0142 89.7215 74.9649 91.2936 74.9796C92.9074 74.9934 94.3117 74.1858 95.4181 73.0524C96.4593 71.971 97.4316 70.8232 98.329 69.6161C98.4055 69.4817 98.4266 69.322 98.3879 69.1718C98.3491 69.0216 98.2535 68.8929 98.122 68.8138C97.9889 68.7392 97.8326 68.7194 97.6855 68.7585C97.5384 68.7977 97.4118 68.8928 97.3318 69.0241L97.1799 69.2258C97.1511 69.2645 97.1222 69.3038 97.0933 69.3431C97.0327 69.4214 97.2256 69.1766 97.0699 69.3704C96.8822 69.605 96.6959 69.8396 96.5053 70.0698C96.0496 70.6234 95.583 71.1683 95.0992 71.697C94.6991 72.1749 94.2505 72.6086 93.7607 72.9908C93.1766 73.4088 92.5027 73.6794 91.795 73.7802C90.4351 73.9579 89.4102 73.2497 88.7108 72.1158C87.9102 70.8176 87.3639 69.3241 86.8472 67.893C86.1608 65.9902 85.591 64.0471 84.9955 62.1135L84.5912 62.8349C85.6182 62.5745 86.6199 62.2207 87.5842 61.7777C88.5903 61.3449 89.5777 60.8699 90.5463 60.3528L89.6978 60.0024C90.6395 62.3545 91.5816 64.7058 92.6099 67.0203C92.688 67.1538 92.8146 67.2507 92.9625 67.2901C93.1103 67.3295 93.2675 67.3082 93.4 67.2309C93.5296 67.1498 93.6234 67.0212 93.6621 66.8718C93.7007 66.7223 93.6811 66.5635 93.6074 66.4283L93.6085 66.4268Z" fill="#726A69"/>
<path d="M95.7441 54.8508C96.0667 58.3058 96.5166 61.7597 97.1138 65.1768C97.424 66.9519 97.9279 68.7075 98.1061 70.5025C98.1907 71.7387 98.1454 72.9805 97.971 74.207C97.7553 76.2089 97.5141 78.2081 97.2473 80.2045C97.2118 80.3544 97.2338 80.5124 97.3089 80.6464C97.384 80.7803 97.5065 80.8803 97.6516 80.9259C97.7994 80.9661 97.9568 80.9456 98.0898 80.8688C98.2228 80.7919 98.3206 80.6649 98.362 80.5153C98.6059 78.6776 98.8319 76.8382 99.04 74.997C99.1737 73.8062 99.3701 72.5895 99.3239 71.3875C99.2503 69.4714 98.742 67.6316 98.3906 65.7589C98.0613 64.0059 97.7957 62.24 97.5545 60.4726C97.2995 58.6035 97.0754 56.7287 96.9001 54.8499C96.8961 54.6957 96.834 54.5488 96.7265 54.4397C96.6191 54.3306 96.4745 54.2675 96.3226 54.2634C96.1697 54.2645 96.0234 54.3266 95.9153 54.4364C95.8073 54.5462 95.7461 54.6947 95.745 54.8499L95.7441 54.8508Z" fill="#726A69"/>
<path d="M125.809 61.8868C125.228 59.9758 124.782 58.0046 124.006 56.16C123.815 55.7063 123.559 55.284 123.245 54.9073C122.906 54.5227 122.475 54.2329 121.993 54.0657C121.047 53.6815 120.12 53.2572 119.163 52.8951C118.545 52.6605 117.924 52.4347 117.308 52.1939C117.029 52.0848 116.751 51.974 116.476 51.8552C116.237 51.708 115.973 51.6067 115.699 51.5564C114.955 51.5564 114.954 52.7294 115.699 52.7294H115.701L115.41 52.6493C116.614 53.2156 117.872 53.6502 119.113 54.1235C119.69 54.344 120.268 54.5671 120.827 54.8305C121.315 55.0604 121.937 55.1935 122.312 55.6044C122.68 56.0402 122.958 56.5464 123.131 57.0932C123.349 57.6904 123.551 58.2932 123.737 58.9016C124.073 59.9954 124.362 61.1036 124.694 62.1988C124.913 62.9179 126.028 62.6112 125.808 61.8868H125.809Z" fill="#726A69"/>
<path d="M117.362 63.378C117.77 62.1569 118.271 60.9376 118.48 59.6605C118.605 59.1481 118.547 58.6071 118.316 58.1342C117.961 57.5527 117.527 57.0251 117.026 56.5671V57.3964C117.471 56.9704 117.878 56.5059 118.243 56.0081C118.345 55.8956 118.421 55.762 118.467 55.6166C118.513 55.4712 118.527 55.3175 118.509 55.1659C118.424 54.8598 118.273 54.5772 118.065 54.3396C117.701 53.8241 117.33 53.314 116.952 52.8094C116.759 52.5537 116.564 52.2996 116.366 52.047C116.185 51.8183 116.024 51.5558 115.699 51.5558L116.108 51.7276C115.751 51.2846 115.383 50.852 115.007 50.4256C114.511 49.8614 113.696 50.6934 114.191 51.2549C114.44 51.5385 114.687 51.8241 114.929 52.1144C115.138 52.3657 115.336 52.7288 115.702 52.7288L115.294 52.5569C115.67 53.0261 116.036 53.5027 116.391 53.9865C116.564 54.2238 116.736 54.4624 116.907 54.702C117.061 54.9196 117.356 55.214 117.396 55.4771V55.1651C117.342 55.4093 117.046 55.6733 116.887 55.8577C116.673 56.1052 116.446 56.3398 116.211 56.5662C116.104 56.6772 116.045 56.826 116.045 56.9808C116.045 57.1357 116.104 57.2845 116.211 57.3955C116.596 57.7969 117.075 58.2113 117.32 58.7254C117.471 59.0424 117.366 59.3863 117.299 59.7168C117.016 60.8536 116.666 61.9717 116.25 63.0651C116.011 63.7818 117.126 64.0891 117.364 63.3771L117.362 63.378Z" fill="#726A69"/>
<path d="M103.361 50.427C102.42 51.497 101.539 52.6169 100.705 53.7761C100.323 54.3084 99.5986 55.0127 99.942 55.7218C100.247 56.3511 100.847 56.9209 101.343 57.3974V56.5681C100.768 57.1675 99.9922 57.8543 99.8412 58.7205C99.7286 59.3624 99.9492 60.1439 100.134 60.7571C100.763 62.8471 101.52 64.9065 102.211 66.9763C102.449 67.6871 103.565 67.3821 103.325 66.6645L101.386 60.8653C101.173 60.3005 101.035 59.7097 100.973 59.1082C100.983 58.8284 101.095 58.5621 101.286 58.3601C101.558 58.0218 101.85 57.7004 102.161 57.3974C102.267 57.2865 102.327 57.1377 102.327 56.9828C102.327 56.8278 102.267 56.679 102.161 56.5681C101.925 56.3417 101.699 56.1071 101.485 55.8596C101.326 55.6758 101.029 55.4113 100.977 55.1679V55.4799C101.04 55.2825 101.147 55.1021 101.288 54.952C101.426 54.7565 101.564 54.5616 101.703 54.3673C101.953 54.0192 102.207 53.6735 102.467 53.333C103.012 52.6193 103.586 51.929 104.178 51.2554C104.672 50.6941 103.858 49.8619 103.361 50.4261V50.427Z" fill="#726A69"/>
<path d="M104.716 76.4485C107.713 76.4462 110.708 76.3166 113.705 76.3148C114.448 76.3148 114.449 75.1418 113.705 75.1418C110.708 75.1436 107.713 75.2732 104.716 75.2756C103.973 75.2756 103.971 76.4485 104.716 76.4485Z" fill="#4F8D00"/>
<path d="M104.314 79.7203C104.704 78.1251 104.964 76.4997 105.09 74.8609C105.289 72.9384 105.388 71.0064 105.385 69.0732C105.387 65.4106 105.15 61.7618 104.971 58.1059C104.809 55.6112 104.843 53.1073 105.075 50.6182C105.074 50.463 105.013 50.3143 104.904 50.2045C104.796 50.0947 104.65 50.0327 104.497 50.0317C104.345 50.0352 104.2 50.0982 104.093 50.2074C103.985 50.3166 103.923 50.4638 103.92 50.6182C103.497 54.489 103.849 58.3798 104.042 62.2547C104.238 66.1906 104.366 70.152 104.011 74.0824C103.85 75.8571 103.675 77.6893 103.2 79.4083C102.998 80.1364 104.113 80.4472 104.314 79.7203Z" fill="#726A69"/>
<path d="M118.873 72.7078C119.109 75.2347 119.441 77.7549 119.771 80.2706C119.776 80.4246 119.838 80.571 119.946 80.68C120.053 80.7889 120.197 80.8523 120.349 80.8571C120.629 80.8571 120.968 80.5867 120.926 80.2706C120.596 77.7549 120.264 75.2347 120.028 72.7078C120.024 72.5536 119.962 72.4068 119.854 72.2977C119.747 72.1886 119.603 72.1255 119.451 72.1213C119.298 72.1224 119.151 72.1846 119.043 72.2943C118.935 72.4041 118.874 72.5526 118.873 72.7078Z" fill="#726A69"/>
<path d="M121.44 62.6591C121.829 60.0668 122.162 57.4631 122.405 54.8524C122.404 54.6972 122.342 54.5487 122.234 54.4389C122.126 54.3292 121.98 54.267 121.827 54.2659C121.675 54.2691 121.53 54.3319 121.422 54.4412C121.315 54.5505 121.253 54.6978 121.25 54.8524C121.016 57.3587 120.699 59.8583 120.325 62.3471C120.29 62.4971 120.311 62.6553 120.387 62.7894C120.462 62.9235 120.584 63.0235 120.73 63.0688C120.878 63.1088 121.035 63.0882 121.168 63.0114C121.301 62.9346 121.399 62.8077 121.44 62.6583L121.44 62.6591Z" fill="#726A69"/>
<path d="M112.807 71.3061C112.834 72.7485 112.946 74.188 113.142 75.6169C113.265 76.9812 113.49 78.334 113.815 79.6636C114.015 80.3894 115.13 80.0812 114.929 79.3516C114.617 78.0877 114.401 76.8012 114.284 75.5037C114.096 74.1119 113.988 72.7101 113.962 71.3056C113.962 70.5508 112.807 70.5496 112.807 71.3056V71.3061Z" fill="#726A69"/>
<path d="M114.076 62.89C114.26 58.8002 114.657 54.7053 114.223 50.6177C114.219 50.4636 114.157 50.3169 114.049 50.2079C113.942 50.0988 113.797 50.0356 113.646 50.0312C113.493 50.0322 113.346 50.0943 113.238 50.204C113.13 50.3138 113.069 50.4625 113.068 50.6177C113.501 54.7053 113.105 58.7993 112.921 62.89C112.887 63.6446 114.042 63.6431 114.076 62.89Z" fill="#726A69"/>
<path d="M121.398 71.4959C120.948 71.745 120.457 71.9103 119.95 71.9842C119.335 72.1349 118.719 72.2841 118.096 72.3929C117.037 72.5777 115.838 72.6736 114.88 72.088C114.242 71.6974 113.66 72.7111 114.297 73.1008C115.469 73.8175 116.871 73.7668 118.176 73.5615C118.858 73.4545 119.531 73.2929 120.202 73.1287C120.808 72.98 121.453 72.8703 121.981 72.5088C122.594 72.0888 122.016 71.0719 121.398 71.4959Z" fill="#726A69"/>
<path d="M122.44 68.2322C121.957 67.5636 121.352 66.9953 120.657 66.5583C120.333 66.3526 119.961 66.2384 119.579 66.2275C119.175 66.2423 118.78 66.3607 118.433 66.5718C118.301 66.6514 118.206 66.78 118.167 66.9301C118.129 67.0802 118.15 67.2398 118.226 67.3744C118.305 67.5063 118.432 67.6019 118.579 67.6411C118.726 67.6802 118.883 67.66 119.016 67.5847C119.049 67.5662 119.082 67.5477 119.116 67.5301C119.128 67.524 119.259 67.4606 119.193 67.4905C119.137 67.5163 119.231 67.4762 119.242 67.4721C119.272 67.4612 119.303 67.4507 119.334 67.4413C119.358 67.4342 119.523 67.3765 119.536 67.3947C119.536 67.3947 119.416 67.402 119.514 67.402C119.543 67.402 119.572 67.4002 119.601 67.402C119.62 67.402 119.745 67.4073 119.654 67.402C119.572 67.3973 119.666 67.4058 119.684 67.4096C119.743 67.4225 119.801 67.4392 119.858 67.4595C119.912 67.4785 119.942 67.4988 119.873 67.4636C119.902 67.4785 119.933 67.4929 119.962 67.5081C120.032 67.5454 120.101 67.587 120.167 67.6307C120.234 67.6744 120.295 67.7187 120.357 67.765C120.438 67.8237 120.306 67.7234 120.38 67.7817C120.416 67.8105 120.452 67.8398 120.488 67.8697C120.61 67.9696 120.729 68.0732 120.845 68.1806C120.96 68.2876 121.072 68.3987 121.179 68.5146C121.229 68.5691 121.278 68.6247 121.326 68.6814C121.355 68.7169 121.384 68.7544 121.415 68.7893C121.481 68.8647 121.339 68.6846 121.443 68.8257C121.523 68.957 121.65 69.0521 121.797 69.0913C121.944 69.1305 122.101 69.1108 122.234 69.0362C122.365 68.9566 122.46 68.828 122.499 68.678C122.537 68.528 122.517 68.3686 122.441 68.2339L122.44 68.2322Z" fill="#726A69"/>
<path d="M120.295 68.7025C119.791 68.2198 119.338 67.6726 118.864 67.1594C118.629 66.9049 118.395 66.6465 118.148 66.4037C117.935 66.1844 117.674 66.0196 117.386 65.9228C117.098 65.8259 116.791 65.7998 116.491 65.8465C116.143 65.8966 115.823 66.0699 115.588 66.336C115.353 66.6021 115.218 66.9438 115.207 67.301C115.207 67.4566 115.268 67.6058 115.376 67.7157C115.485 67.8257 115.631 67.8875 115.785 67.8875C115.938 67.8875 116.085 67.8257 116.193 67.7157C116.301 67.6058 116.362 67.4566 116.362 67.301C116.362 67.267 116.362 67.2333 116.367 67.1996C116.356 67.2752 116.357 67.2802 116.37 67.2145C116.391 67.1514 116.387 67.1555 116.358 67.2268C116.371 67.1999 116.386 67.1737 116.402 67.1485C116.34 67.2623 116.428 67.1248 116.466 67.0937C116.369 67.1723 116.553 67.0524 116.574 67.0409C116.635 67.0114 116.646 67.0064 116.607 67.026C116.642 67.0127 116.678 67.0017 116.714 66.9931C116.783 66.979 116.788 66.9778 116.731 66.9893C116.77 66.9873 116.809 66.987 116.848 66.9893C116.919 66.9949 116.928 66.9955 116.875 66.9908C116.915 66.999 116.955 67.009 116.994 67.0201C117.09 67.0424 117.008 67.0122 117.09 67.0565C117.37 67.2537 117.62 67.4907 117.834 67.7603C118.383 68.3467 118.899 68.9787 119.48 69.5332C119.589 69.64 119.735 69.6992 119.886 69.6978C120.038 69.6965 120.182 69.6348 120.29 69.5261C120.397 69.4173 120.457 69.2702 120.459 69.1165C120.46 68.9627 120.402 68.8145 120.297 68.7039L120.295 68.7025Z" fill="#726A69"/>
<path d="M125.26 70.1225C126.818 68.7085 128.355 67.2546 129.835 65.7561C129.941 65.645 130 65.4962 130 65.3414C130 65.1866 129.941 65.0379 129.835 64.9268C128.373 63.4312 126.148 63.1459 124.17 63.2418C122.055 63.3444 119.709 64.1265 118.255 65.7655H119.072C117.332 64.1233 114.803 63.8541 112.549 64.2259C110.508 64.5626 108.436 65.4282 107.416 67.3593C107.353 67.4717 107.328 67.6017 107.345 67.7298C107.361 67.8579 107.418 67.9772 107.507 68.0698C109.027 69.4187 110.677 70.621 112.26 71.8908C112.37 71.9965 112.516 72.0553 112.668 72.0553C112.82 72.0553 112.966 71.9965 113.077 71.8908C113.184 71.7803 113.244 71.6313 113.244 71.4761C113.244 71.3209 113.184 71.172 113.077 71.0615C111.494 69.7903 109.844 68.5883 108.323 67.2405L108.414 67.951C109.274 66.3218 111.017 65.6845 112.725 65.3796C114.586 65.0473 116.809 65.2306 118.255 66.5948C118.364 66.703 118.511 66.7635 118.663 66.7635C118.816 66.7635 118.963 66.703 119.072 66.5948C120.323 65.1843 122.347 64.5033 124.17 64.4148C125.835 64.3339 127.775 64.4837 129.018 65.7561V64.9268C127.539 66.425 126.001 67.8789 124.444 69.2932C123.888 69.7973 124.707 70.6245 125.26 70.1225Z" fill="#726A69"/>
<path d="M128.714 64.8971C129.067 64.5549 129.407 64.2003 129.745 63.8414C129.806 63.7771 129.851 63.6999 129.879 63.6154C129.906 63.5309 129.915 63.4412 129.904 63.3529C129.893 63.2646 129.862 63.1799 129.815 63.1051C129.768 63.0302 129.704 62.9671 129.63 62.9203C128.921 62.3479 128.099 61.9369 127.221 61.7154C126.207 61.5053 125.175 61.4008 124.141 61.4037C122.982 61.3915 121.83 61.5718 120.729 61.9374C119.705 62.2734 118.67 62.7432 117.924 63.5546L118.624 63.4628C116.756 62.1725 114.274 62.0552 112.122 62.5019C110.067 62.9291 108.038 63.9681 106.728 65.6718C106.625 65.7847 106.568 65.9328 106.568 66.0865C106.568 66.2402 106.625 66.3882 106.728 66.5011C107.063 66.8898 107.44 67.2384 107.853 67.5401C107.985 67.6177 108.142 67.6392 108.29 67.5998C108.438 67.5603 108.565 67.4632 108.643 67.3296C108.716 67.1944 108.736 67.0356 108.697 66.8863C108.659 66.7369 108.565 66.6084 108.436 66.5272C108.533 66.6029 108.328 66.4293 108.294 66.3991C108.187 66.3037 108.082 66.2069 107.978 66.1088C107.823 65.9735 107.679 65.8275 107.544 65.6718V66.5011C108.722 64.9698 110.459 64.0672 112.301 63.6602C114.2 63.2402 116.391 63.3376 118.041 64.4757C118.151 64.5405 118.279 64.5667 118.406 64.5501C118.532 64.5335 118.65 64.4751 118.741 64.3839C119.383 63.6851 120.28 63.3065 121.163 63.0276C122.169 62.7061 123.219 62.5544 124.273 62.5787C125.175 62.5786 126.075 62.6717 126.958 62.8567C127.722 63.0606 128.434 63.4276 129.047 63.9332L128.932 63.0121C128.595 63.3707 128.254 63.7256 127.901 64.0678C127.362 64.5901 128.18 65.4188 128.718 64.8971H128.714Z" fill="#726A69"/>
<path d="M113.786 67.5428C113.505 67.3861 113.186 67.3148 112.867 67.3373C112.547 67.3599 112.241 67.4754 111.984 67.67C111.778 67.8211 111.614 68.0227 111.505 68.2559C111.397 68.4892 111.348 68.7466 111.364 69.004C111.4 69.5208 111.594 70.0134 111.918 70.4133C112.232 70.8412 112.57 71.2503 112.915 71.6523C113.283 72.0795 113.658 72.4993 114.042 72.9118C114.15 73.0218 114.297 73.0836 114.45 73.0836C114.603 73.0836 114.75 73.0218 114.859 72.9118C114.967 72.8018 115.028 72.6526 115.028 72.497C115.028 72.3414 114.967 72.1922 114.859 72.0822C114.504 71.701 114.156 71.3134 113.814 70.9195C113.623 70.6984 113.435 70.4748 113.25 70.2488C113.165 70.1444 113.081 70.0386 112.998 69.9327C112.921 69.8356 113.036 69.9867 112.959 69.882C112.925 69.8356 112.891 69.7896 112.857 69.7427C112.758 69.615 112.67 69.4787 112.594 69.3354C112.538 69.2111 112.511 69.0752 112.517 68.9386C112.517 68.9143 112.529 68.738 112.513 68.858C112.515 68.8383 112.558 68.6638 112.523 68.7744C112.49 68.8791 112.548 68.7418 112.558 68.7201C112.603 68.6201 112.483 68.7888 112.569 68.7055C112.614 68.6618 112.655 68.6152 112.703 68.5756C112.623 68.6401 112.72 68.5756 112.751 68.5533C112.845 68.4858 112.698 68.5556 112.804 68.526C112.839 68.5142 112.874 68.5044 112.909 68.4967C112.848 68.5014 112.852 68.5014 112.924 68.4967C113.02 68.485 113.118 68.5056 113.202 68.5553C113.335 68.6299 113.491 68.6497 113.638 68.6105C113.785 68.5714 113.912 68.4764 113.992 68.3451C114.068 68.2104 114.088 68.0509 114.05 67.9008C114.011 67.7507 113.916 67.622 113.785 67.5425L113.786 67.5428Z" fill="#726A69"/>
<path d="M118.054 69.3464C117.579 68.8238 117.116 68.2907 116.644 67.7655C116.411 67.5063 116.176 67.2482 115.935 66.9963C115.75 66.7814 115.541 66.5889 115.312 66.4227C114.556 65.9365 113.503 66.0242 113.01 66.8424C112.45 67.7722 113.243 68.6018 113.793 69.286C114.372 70.0194 114.99 70.7206 115.643 71.3868C116.173 71.9173 116.991 71.0885 116.46 70.5575C115.946 70.0428 115.462 69.5018 115 68.9382C114.765 68.6514 114.534 68.3614 114.301 68.0728C114.199 67.95 114.108 67.8173 114.031 67.6766C114.016 67.6508 114 67.6259 113.986 67.5998C113.941 67.5159 114.006 67.6705 113.98 67.5828C113.976 67.5667 113.948 67.4552 113.966 67.5283C113.98 67.5869 113.982 67.4459 113.962 67.5505C113.969 67.5149 113.979 67.4799 113.991 67.4461C113.954 67.5379 113.997 67.4461 114.007 67.4344C113.952 67.4916 114.023 67.4142 114.029 67.408C114.059 67.3756 114.091 67.345 114.125 67.3165C114.096 67.3403 114.11 67.325 114.163 67.2998C114.137 67.3121 114.081 67.323 114.186 67.2963C114.207 67.2907 114.295 67.2831 114.199 67.2901C114.245 67.2876 114.292 67.2876 114.339 67.2901C114.433 67.2934 114.259 67.2714 114.349 67.2901C114.376 67.296 114.403 67.3013 114.429 67.3077C114.495 67.3254 114.561 67.3467 114.625 67.3717C114.505 67.3262 114.651 67.3881 114.684 67.4068C114.703 67.418 114.723 67.4332 114.742 67.4432C114.828 67.4869 114.652 67.3523 114.7 67.4107C114.854 67.5983 115.057 67.7602 115.224 67.9385C115.434 68.1617 115.641 68.3892 115.846 68.6174C116.312 69.1349 116.768 69.6607 117.236 70.176C117.29 70.2304 117.353 70.2736 117.424 70.3031C117.494 70.3325 117.569 70.3477 117.645 70.3477C117.72 70.3477 117.796 70.3325 117.866 70.303C117.936 70.2735 117.999 70.2303 118.053 70.1758C118.107 70.1213 118.149 70.0567 118.178 69.9855C118.207 69.9144 118.222 69.8381 118.222 69.7611C118.222 69.684 118.207 69.6078 118.178 69.5366C118.149 69.4655 118.106 69.4008 118.053 69.3464H118.054Z" fill="#726A69"/>
<path d="M122.27 68.3834C122.542 68.1886 122.831 68.0182 123.132 67.8744C123.333 67.7491 123.568 67.6898 123.803 67.7046C123.892 67.7339 123.964 67.9222 123.979 68.0808C123.976 68.3761 123.887 68.664 123.724 68.9086C123.583 69.1242 123.419 69.3228 123.233 69.5007C123.029 69.7221 122.837 69.9538 122.647 70.1884C122.29 70.6785 121.87 71.1179 121.398 71.4951C121.269 71.5764 121.175 71.705 121.137 71.8542C121.098 72.0035 121.117 72.1621 121.191 72.2974C121.269 72.4308 121.395 72.5276 121.543 72.567C121.691 72.6064 121.848 72.5852 121.981 72.5079C122.615 72.005 123.181 71.4206 123.667 70.7696C123.895 70.4948 124.146 70.2417 124.376 69.9687C124.662 69.6329 124.879 69.2433 125.017 68.8221C125.292 67.9914 125.039 66.836 124.104 66.5759C123.279 66.346 122.336 66.9081 121.686 67.3709C121.557 67.4521 121.463 67.5807 121.425 67.73C121.386 67.8793 121.406 68.038 121.479 68.1732C121.557 68.3065 121.684 68.4033 121.832 68.4426C121.979 68.482 122.137 68.4607 122.269 68.3834H122.27Z" fill="#726A69"/>
<path d="M107.849 45.4715C108.352 45.7372 108.913 45.8703 109.481 45.8585C110.083 45.8816 110.675 45.6989 111.162 45.3398C111.271 45.2298 111.332 45.0807 111.332 44.9251C111.331 44.7698 111.27 44.621 111.162 44.5105C111.052 44.4047 110.906 44.3457 110.754 44.3457C110.602 44.3457 110.456 44.4047 110.346 44.5105C110.546 44.3518 110.346 44.5026 110.282 44.5363C110.233 44.5621 110.105 44.6032 110.289 44.5386C110.245 44.5539 110.203 44.5727 110.157 44.587C110.037 44.6263 109.909 44.6348 109.789 44.6724C109.85 44.6533 109.889 44.6603 109.801 44.6691C109.765 44.6727 109.729 44.6759 109.693 44.6782C109.606 44.6839 109.518 44.6863 109.431 44.6856C109.353 44.6856 109.275 44.6827 109.197 44.677C109.161 44.6747 109.125 44.6718 109.09 44.668C109.069 44.6659 109.049 44.6639 109.028 44.6612C108.983 44.6556 109.001 44.658 109.085 44.6688C109.027 44.6515 108.968 44.6403 108.908 44.6354C108.851 44.6228 108.796 44.6081 108.741 44.5911C108.692 44.5765 108.645 44.5592 108.598 44.5424C108.47 44.4982 108.722 44.6011 108.607 44.5471C108.549 44.5178 108.489 44.4885 108.432 44.4592C108.299 44.3807 108.142 44.3587 107.994 44.3982C107.845 44.4376 107.719 44.5353 107.641 44.6696C107.564 44.8039 107.543 44.9639 107.581 45.1144C107.62 45.2649 107.716 45.3935 107.849 45.472V45.4715Z" fill="#726A69"/>
<path d="M109.108 41.6729C109.179 41.9335 109.235 42.1978 109.278 42.4646L109.257 42.3086C109.262 42.3449 109.263 42.3816 109.26 42.418L109.281 42.262C109.278 42.2788 109.274 42.2952 109.269 42.3113L109.327 42.1711C109.322 42.1822 109.316 42.1928 109.31 42.2028L109.4 42.084C109.393 42.0934 109.384 42.102 109.375 42.1095L109.49 42.0177C109.471 42.0302 109.45 42.0413 109.429 42.0509L109.567 41.9922C109.533 42.0067 109.498 42.017 109.463 42.023L109.616 42.0019C109.584 42.0059 109.551 42.0059 109.519 42.0019L109.672 42.0227C109.635 42.0177 109.599 42.0086 109.562 42.0034C109.488 41.9789 109.408 41.9754 109.331 41.9931C109.255 41.9964 109.181 42.0204 109.116 42.0626C109.051 42.1015 108.994 42.153 108.948 42.2144C108.902 42.2757 108.868 42.3456 108.849 42.4201C108.83 42.4947 108.825 42.5723 108.835 42.6486C108.846 42.7249 108.871 42.7984 108.909 42.8649L108.999 42.9822C109.07 43.054 109.158 43.106 109.254 43.1329C109.354 43.1467 109.45 43.1719 109.552 43.1763C109.712 43.1769 109.869 43.1378 110.011 43.0626C110.103 43.0178 110.185 42.953 110.25 42.8728C110.315 42.7925 110.362 42.6988 110.388 42.5981C110.422 42.4398 110.421 42.2758 110.384 42.118C110.342 41.8629 110.284 41.6104 110.219 41.3603C110.178 41.2132 110.083 41.0875 109.954 41.0084C109.819 40.9301 109.659 40.909 109.508 40.9497C109.364 40.9911 109.24 41.0876 109.163 41.2192C109.088 41.3568 109.067 41.5185 109.106 41.6711L109.108 41.6729Z" fill="#726A69"/>
<path d="M105.155 39.3835C105.025 39.8131 105.11 40.8014 105.911 40.8855C106.97 40.8791 107.027 39.6832 106.67 39.1225C106.378 38.6627 105.52 38.4715 105.155 39.3835Z" fill="#726A69"/>
<path d="M113.638 39.3838C113.769 39.8131 113.684 40.8013 112.882 40.8855C111.823 40.8788 111.767 39.6832 112.123 39.1225C112.415 38.6627 113.273 38.4715 113.638 39.3838Z" fill="#726A69"/>
</g>
</svg>
