<svg width="130" height="80" viewBox="0 0 130 80" fill="none" xmlns="http://www.w3.org/2000/svg">
<mask id="mask0_1621_24358" style="mask-type:alpha" maskUnits="userSpaceOnUse" x="0" y="0" width="130" height="80">
<path d="M0 0H130V80H0V0Z" fill="#D9D9D9"/>
</mask>
<g mask="url(#mask0_1621_24358)">
</g>
<g clip-path="url(#clip0_1621_24358)">
<path d="M48.0559 26.9588C47.9389 26.6519 47.7146 26.3971 47.424 26.241C47.2815 26.1817 47.1235 26.1646 46.9808 26.1053C46.8594 26.0499 46.7465 25.9777 46.6456 25.8907C46.245 25.5635 45.4684 24.4723 45.3413 23.9745C45.3413 23.9745 45.3266 23.9163 45.3022 23.8246C45.2567 23.7801 45.2056 23.7295 45.1388 23.6649C44.9141 23.4469 44.5547 23.0442 44.4864 22.7386C44.4556 22.6016 44.4612 22.4589 44.5027 22.3246C44.5442 22.1903 44.6201 22.0691 44.723 21.9728C44.826 21.8765 44.9523 21.8085 45.0897 21.7754C45.2271 21.7423 45.3708 21.7453 45.5066 21.784C45.4807 21.6567 45.4928 21.5247 45.5413 21.404C45.5899 21.2834 45.6728 21.1795 45.78 21.1051C45.8947 21.0224 46.0305 20.9732 46.1718 20.9629C46.3132 20.9526 46.4547 20.9817 46.5804 21.0469C46.5486 20.9263 46.5571 20.7987 46.6045 20.6832C46.652 20.5678 46.7359 20.4708 46.8436 20.4068C46.9727 20.3066 47.1295 20.248 47.293 20.2386C47.4565 20.2291 47.6191 20.2694 47.759 20.354C47.7166 19.9373 47.897 19.6112 48.3113 19.5344C48.5202 19.5024 48.7338 19.5461 48.913 19.6575C49.0922 19.7689 49.2251 19.9407 49.2875 20.1414L49.3597 20.4729C49.3968 20.4535 49.4339 20.4341 49.47 20.417C49.9073 20.2081 50.4922 20.1131 50.8756 20.4081C51.0224 20.5388 51.1393 20.6992 51.2185 20.8785C51.4988 21.4083 51.7876 21.9786 51.7235 22.5736C51.6743 23.03 51.4229 23.4362 51.2562 23.8643C51.0894 24.2925 51.0193 24.8158 51.3009 25.1799C51.3009 25.1799 51.9031 26.0542 50.3413 26.9452C48.5448 27.9712 48.0559 26.9588 48.0559 26.9588Z" fill="white"/>
<path d="M88.5745 61.8386C88.7685 61.0185 88.3597 60.4032 87.6483 59.8584C86.9096 59.2928 85.7517 59.1004 84.8433 58.891C84.5772 58.8297 84.1699 58.9205 84.0612 59.1694C84.0221 59.2694 84.0148 59.379 84.0403 59.4833C84.1555 60.034 83.9731 60.8957 83.8618 61.4619C83.7505 62.0282 83.3388 63.0433 82.8181 63.2974C82.3644 63.5187 81.9228 63.3903 81.8242 63.8831C82.2209 64.8509 82.3227 65.9131 82.1171 66.9379C82.0175 67.3656 81.9502 67.8 81.9158 68.2376C81.8831 68.6801 82.0254 69.1178 82.3123 69.4578C82.8382 70.0114 83.6422 69.9181 84.299 69.5259C85.106 69.0436 86.0769 67.1445 86.852 65.1197C87.286 63.9853 88.3242 62.8964 88.5745 61.8386Z" fill="white"/>
<path d="M51.0457 79.5989C51.9047 79.7325 52.5064 79.2702 53.0126 78.504C53.5378 77.7087 53.6463 76.5174 53.7914 75.5777C53.8337 75.3025 53.7088 74.8955 53.4441 74.8043C53.3381 74.7724 53.2248 74.7734 53.1194 74.8072C52.5614 74.9671 51.6599 74.8486 51.0695 74.7791C50.4791 74.7097 49.4007 74.37 49.0988 73.8606C48.8357 73.4164 48.9339 72.9578 48.4188 72.8955C47.4532 73.3739 46.3674 73.5598 45.2963 73.4303C44.8485 73.3623 44.3961 73.3275 43.943 73.3264C43.4849 73.3274 43.0452 73.5059 42.7174 73.8239C42.1881 74.4014 42.3464 75.2115 42.8013 75.8485C43.3602 76.6317 45.3908 77.4714 47.5356 78.1025C48.7357 78.4555 49.9371 79.4262 51.0457 79.5989Z" fill="white"/>
<path d="M81.2488 62.636C81.196 62.7384 81.1424 62.8404 81.0879 62.9419C81.4942 63.0445 81.8946 63.1691 82.2872 63.3152L82.5181 63.4034C82.6214 63.3781 82.7217 63.3423 82.8176 63.2967C83.3383 63.0426 83.7498 62.0267 83.8613 61.4612C83.9728 60.8958 84.1542 60.0339 84.0398 59.4826C84.0338 59.4548 84.0297 59.4266 84.0275 59.3982L83.8262 59.2774C83.4719 59.0561 83.1088 58.8496 82.7368 58.658C82.6956 58.8758 82.6523 59.0942 82.5945 59.2981C82.2579 60.4522 81.8072 61.5703 81.2488 62.636Z" fill="white"/>
<path d="M49.4254 72.3196C49.3108 72.6543 49.0986 73.1514 49.0181 73.4374C49.0181 73.4374 48.9986 73.4903 48.9688 73.5732C49.0027 73.6729 49.0464 73.7691 49.0992 73.8605C49.401 74.3699 50.4789 74.7097 51.0698 74.779C51.6387 74.8459 52.495 74.9584 53.0567 74.8238C53.0819 74.7462 53.0981 74.6993 53.0981 74.6993C53.1945 74.4808 53.2984 74.171 53.3778 73.946C53.3778 73.946 53.4436 73.7604 53.518 73.5522C52.1216 73.2584 50.7684 72.7898 49.4908 72.1575L49.4441 72.2636C49.4383 72.2818 49.432 72.3005 49.4254 72.3196Z" fill="white"/>
<path d="M59.8492 15.6521C60.0793 16.1374 60.2645 16.6424 60.4025 17.161C60.4025 17.161 61.481 18.4973 63.2163 18.023C64.9517 17.5487 65.1524 16.1466 65.1524 16.1466C64.1005 14.9085 63.3984 13.4149 63.1181 11.8186C63.4581 11.559 63.7347 11.2265 63.9274 10.8459C64.12 10.4652 64.2238 10.0464 64.231 9.62038C64.2321 9.22639 64.1138 8.78488 63.7667 8.594C63.6491 8.53546 63.5194 8.50478 63.3878 8.50437C63.2563 8.50397 63.1264 8.53385 63.0084 8.59167C62.8615 8.66194 62.7299 8.76021 62.6211 8.88091L62.271 8.81961C61.7793 8.73328 59.9673 7.34319 59.762 6.85822L59.7282 6.76123C58.2292 6.68519 56.8511 6.59402 55.8154 6.50439C55.8339 7.17093 55.8464 7.63416 55.8464 7.63416C55.87 8.50225 55.905 9.67663 55.2693 10.2737C54.9935 10.5333 54.5821 10.781 54.638 11.1544C54.6805 11.4388 54.979 11.5971 55.1877 11.7965C55.3581 11.9632 55.4847 12.1689 55.5565 12.3955C55.6133 12.909 55.8281 14.0582 56.1935 14.6591C56.4208 15.0736 56.8008 15.3843 57.2538 15.5261C58.0519 15.7662 59.1487 15.7928 59.7662 15.5261" fill="white"/>
<path d="M77.9256 26.5134C77.3027 25.8699 76.6392 25.2663 75.9393 24.7062C75.1803 24.0886 74.3888 23.5016 73.6723 22.9912C72.2174 21.8848 70.6687 20.9056 69.0436 20.0647C68.6194 19.489 68.22 18.8764 67.6882 18.3903C67.4929 18.2118 67.2089 18.0799 67.0306 17.8083C66.7151 17.2229 66.361 16.419 66.1392 16.2605C66.0025 16.1576 65.8407 16.0928 65.6703 16.0729C65.5 16.0531 65.3274 16.0788 65.1705 16.1474C63.5792 16.7942 61.8987 17.1984 60.1859 17.3464C60.1607 17.3495 60.137 17.3599 60.1179 17.3764C60.0987 17.3929 60.0849 17.4147 60.0783 17.439C59.9732 17.844 59.895 18.2554 59.844 18.6706C58.8948 18.6993 58.2041 19.5416 57.6504 20.3078C56.0271 22.553 54.6983 24.3464 52.6705 26.4443C52.2812 26.0272 51.9527 25.558 51.6943 25.0504C50.8808 25.3522 47.9172 26.8825 47.6896 27.1305C47.5125 27.3231 47.5399 27.4408 47.592 27.5409C48.4125 29.1352 49.3896 30.645 50.5089 32.0484C50.9427 32.6086 51.8136 32.6908 52.0924 32.6519C53.5455 32.4487 55.2181 31.5006 56.686 30.9031C56.916 32.429 57.298 33.6557 57.4195 35.1232C57.5756 37.0049 57.309 38.7156 57.6508 38.9447C59.69 39.2896 63.5548 39.1884 66.3157 38.7364C67.1239 38.6295 67.9084 38.3891 68.6368 38.025C68.8182 37.9218 68.9739 37.7794 69.0924 37.6084C69.1051 37.5886 69.1163 37.568 69.126 37.5467C70.2543 38.2491 72.1089 39.2062 73.2682 39.5663C73.3614 39.5932 73.4611 39.5874 73.5505 39.5498C73.6399 39.5123 73.7135 39.4453 73.759 39.36C75.404 36.0998 76.9456 32.7906 78.3838 29.4323C78.6304 28.8544 78.7231 27.3561 77.9256 26.5134ZM72.1066 30.2012C71.077 32.3591 70.1822 34.196 69.3105 36.349C69.454 33.8156 68.7516 32.3291 69.2867 30.0073C69.4917 29.1174 69.6783 28.7894 69.97 27.8243C70.2113 27.9691 70.4481 28.1116 70.6982 28.2525C71.0698 28.4635 71.4531 28.6536 71.8462 28.8218C72.5019 29.1015 72.2036 29.9978 72.1066 30.2012Z" fill="white"/>
<path d="M72.7254 39.9332C72.4366 40.5077 72.1887 41.1017 71.9835 41.7107C71.8374 42.125 71.6443 42.5215 71.4078 42.8924C71.0878 43.422 70.8318 43.6759 70.2508 43.6662C69.7389 43.6575 69.1872 43.7244 68.8409 43.3679C68.3585 43.4517 67.8089 43.3873 67.5288 42.9605C67.1346 43.1064 66.8454 42.9103 66.4677 42.673C66.3436 42.5815 66.2479 42.4572 66.1916 42.3141C66.1493 42.1102 66.164 41.8986 66.2342 41.7023C66.3395 41.3767 66.5015 41.0721 66.7129 40.8022C65.989 40.8467 66.2793 39.6168 66.6998 39.0855C66.9461 38.8027 67.2376 38.5622 67.5625 38.3735C68.1996 37.9778 68.9795 38.2971 69.6372 37.9363C69.6372 37.9363 70.5585 37.0034 71.7299 37.6502C72.9013 38.2969 72.7254 39.9332 72.7254 39.9332Z" fill="white"/>
<path d="M56.7635 4.12296C57.0094 2.59047 58.0155 1.56623 59.474 0.925307C60.9326 0.28438 62.8888 0.255477 64.4491 0.584281C65.3616 0.775938 66.5413 1.2803 67.2336 1.90105C68.3281 2.88009 68.9636 5.04361 68.8503 6.1986C68.8428 6.37473 68.7729 6.54256 68.6528 6.67236C68.5328 6.80216 68.3704 6.88556 68.1944 6.9078C64.1461 7.07405 56.2072 6.63215 54.3377 6.3437C53.9725 6.28725 53.6935 6.2273 53.6253 5.88861C53.5875 5.69928 53.8118 5.43546 53.9617 5.34972C54.5356 5.02602 55.1708 4.82416 55.8271 4.7569" fill="#E5EFD9"/>
<path d="M74.9776 53.9176C72.5552 52.7515 70.9212 52.2868 70.4946 51.5611C70.0957 50.066 69.5319 48.0028 69.1252 45.829C69.3884 45.55 69.6019 45.2286 69.7566 44.8785C69.965 44.4966 70.1205 44.0884 70.2189 43.6651C69.7166 43.6597 69.1813 43.7161 68.8427 43.3669C68.3601 43.4507 67.8106 43.3863 67.5304 42.9596C67.1362 43.1054 66.8471 42.9093 66.4693 42.6721C66.3452 42.5806 66.2495 42.4563 66.1933 42.3132C66.1509 42.1092 66.1656 41.8976 66.2358 41.7014C66.3411 41.3758 66.5031 41.0711 66.7145 40.8013C65.9906 40.8457 66.2809 39.6159 66.7015 39.0845C66.8848 38.8679 67.0984 38.6784 67.3358 38.522C66.9594 38.6211 66.6033 38.6869 66.3151 38.734C63.6221 39.1747 59.8788 39.282 57.8041 38.9668C57.8578 39.4347 57.9392 39.8991 58.0479 40.3575C58.2027 41.0009 58.404 41.6324 58.6502 42.2471L58.6758 42.3163C57.0288 45.4922 54.6482 50.7993 54.0293 52.8732C53.6822 53.8646 53.1838 55.3519 52.8946 56.4726C52.5754 57.7092 52.2004 59.0017 51.8277 60.2838C50.7465 64.0037 49.9303 68.1126 48.9609 71.8622C50.4142 72.7365 53.0174 73.5865 54.4057 73.6726C55.1295 72.3433 55.7689 70.9702 56.3201 69.5615C57.9905 65.2936 59.3232 60.9027 60.3061 56.4287C60.3647 55.9566 60.6905 55.4683 60.9424 55.0637C61.8445 53.9219 62.3974 53.0608 62.9548 52.2509L63.1618 52.4765C63.6528 53.4901 64.5793 55.8675 65.3073 56.7422C65.9041 57.4423 66.9906 58.0481 67.8188 58.4541C70.8807 59.9546 78.1128 62.8725 80.8439 63.3813C81.586 62.0913 82.1736 60.7194 82.5947 59.2937C82.6986 58.9267 82.7564 58.5123 82.837 58.1403C80.2303 56.5063 77.9389 55.344 74.9776 53.9176Z" fill="#65B005"/>
<path d="M64.2045 14.801C63.6703 13.8775 63.303 12.8682 63.1193 11.8189C63.4592 11.5592 63.7358 11.2267 63.9285 10.8461C64.1212 10.4655 64.2249 10.0466 64.2321 9.62062C64.2332 9.22664 64.1149 8.78513 63.7678 8.59425C63.6502 8.5357 63.5205 8.50502 63.389 8.50462C63.2574 8.50421 63.1275 8.53409 63.0095 8.59192C62.8626 8.66223 62.7309 8.76049 62.622 8.88115L62.2722 8.81985C61.7804 8.73353 59.9685 7.34343 59.7631 6.85847C59.7631 6.85847 59.7478 6.82122 59.7227 6.76147C62.6273 6.90871 65.9876 6.99872 68.1931 6.90813C68.3104 6.90293 68.4236 6.86353 68.5185 6.79484C68.5863 7.26597 68.617 7.74165 68.6101 8.21753C68.5691 9.04196 69.0103 11.6317 69.2465 12.4231C69.6878 13.9071 70.4824 15.4706 70.1524 17.0749C69.979 17.9245 69.4658 18.9014 68.2159 18.9565C68.0538 18.7556 67.8771 18.5666 67.6874 18.3911C67.4922 18.2126 67.2082 18.0807 67.0299 17.8091C66.7144 17.2237 66.3603 16.4198 66.1385 16.2613C65.9999 16.1571 65.8356 16.0921 65.6629 16.0731C65.4902 16.0541 65.3156 16.0819 65.1575 16.1535C64.7991 15.7323 64.4802 15.2797 64.2045 14.801Z" fill="#65B005"/>
<path d="M51.6385 24.9853C51.2336 24.4127 51.8086 23.6577 51.9987 23.1075C52.2691 22.3254 52.0183 21.5803 51.6559 20.8748C51.5233 20.5425 51.3025 20.2522 51.0171 20.0346C50.7043 19.8554 50.3372 19.7935 49.9824 19.86C49.4045 19.944 48.5559 20.3072 48.4342 20.9475C48.3983 21.1261 48.4157 21.3112 48.4843 21.48C48.5528 21.6489 48.6695 21.7942 48.82 21.8981C48.9743 21.9774 49.1407 22.0311 49.3126 22.0569C49.3506 22.0712 49.3905 22.08 49.4311 22.0833C49.5383 22.0616 49.3842 22.056 49.4116 22.0319C49.4084 22.0346 49.476 22.3322 49.4789 22.3535C49.5069 22.4525 49.5731 22.5365 49.663 22.5874C49.7529 22.6382 49.8594 22.6518 49.9594 22.6251C50.0578 22.5956 50.1411 22.5296 50.192 22.4408C50.2429 22.352 50.2575 22.2471 50.2327 22.1479C50.2154 21.9509 50.1555 21.7599 50.057 21.5881C50.0034 21.5146 49.9347 21.4533 49.8554 21.4082C49.7762 21.363 49.6883 21.3351 49.5974 21.3262C49.4651 21.316 49.3355 21.2832 49.2144 21.2292C49.2841 21.2814 49.1982 21.2016 49.1993 21.1692C49.2017 21.0975 49.1884 21.1143 49.2189 21.0595C49.3485 20.8195 49.801 20.682 50.0484 20.6327C50.1926 20.5866 50.3485 20.5929 50.4884 20.6504C50.6284 20.708 50.7431 20.8131 50.8123 20.9469C51.0344 21.3021 51.2016 21.6883 51.3082 22.0928C51.3719 22.4524 51.3162 22.8228 51.1493 23.1481C50.8465 23.8464 50.4625 24.6676 50.965 25.3789C51.2518 25.7845 51.9292 25.3972 51.6393 24.9875L51.6385 24.9853Z" fill="#726A69"/>
<path d="M49.6651 20.0387C49.5742 19.7462 49.3803 19.496 49.1189 19.334C48.8576 19.1719 48.5462 19.1088 48.2418 19.1563C47.9699 19.2073 47.7279 19.36 47.5657 19.5828C47.4035 19.8057 47.3335 20.0819 47.3699 20.3545L47.9574 20.0195C47.7652 19.91 47.5468 19.8544 47.3253 19.8584C47.1038 19.8624 46.8876 19.926 46.6995 20.0424C46.5214 20.1377 46.3771 20.2853 46.2863 20.4649C46.1955 20.6446 46.1625 20.8477 46.1919 21.0466L46.7794 20.7116C45.9245 20.325 44.977 20.925 45.1309 21.887L45.6111 21.4098C45.3006 21.328 44.9702 21.3709 44.6913 21.5292C44.4123 21.6875 44.2073 21.9485 44.1203 22.2557C43.9534 22.8876 44.3611 23.4249 44.7794 23.855C45.1428 24.2288 45.6244 24.8018 46.1828 24.8194C46.8856 24.8416 47.3606 24.1874 47.2944 23.5293L46.8001 23.9033C47.6306 24.1421 48.3758 23.5386 48.4525 22.7182L47.9582 23.0922C48.3447 23.2127 48.8644 23.1981 49.1893 22.9318C49.3604 22.7838 49.4735 22.5805 49.5087 22.3577C49.5438 22.135 49.4987 21.9071 49.3814 21.7141C49.1454 21.273 48.471 21.6645 48.7071 22.1058C48.8888 22.4457 48.3502 22.4014 48.1659 22.344C48.108 22.3292 48.0474 22.3276 47.9888 22.3394C47.9302 22.3512 47.875 22.376 47.8274 22.412C47.7799 22.448 47.7411 22.4943 47.7141 22.5473C47.6871 22.6004 47.6726 22.6588 47.6716 22.7182C47.6647 22.7938 47.6407 22.867 47.6016 22.9322C47.5624 22.9974 47.509 23.053 47.4452 23.095C47.3815 23.1369 47.3091 23.1641 47.2334 23.1745C47.1577 23.1849 47.0806 23.1782 47.0078 23.1551C46.9498 23.1397 46.8891 23.1378 46.8303 23.1493C46.7715 23.1609 46.7161 23.1857 46.6684 23.2218C46.6207 23.2579 46.5819 23.3044 46.5551 23.3577C46.5282 23.411 46.514 23.4697 46.5135 23.5293C46.5373 23.7665 46.4293 24.158 46.1142 24.0101C45.8438 23.8835 45.584 23.5603 45.3747 23.3506C45.1871 23.162 44.8833 22.881 44.8597 22.6008C44.8551 22.5326 44.8669 22.4643 44.8942 22.4016C44.9216 22.3389 44.9636 22.2836 45.0168 22.2403C45.0701 22.197 45.1329 22.167 45.2002 22.1527C45.2675 22.1385 45.3372 22.1404 45.4036 22.1584C45.4699 22.1748 45.5394 22.1739 45.6053 22.1558C45.6712 22.1376 45.7313 22.1028 45.7796 22.0548C45.828 22.0068 45.863 21.9471 45.8813 21.8816C45.8995 21.8161 45.9004 21.7471 45.8839 21.6812C45.8419 21.4189 46.1853 21.2916 46.3854 21.382C46.6183 21.4874 47.0148 21.3708 46.9728 21.047C46.9516 20.8821 46.9471 20.7968 47.0943 20.7128C47.1618 20.6639 47.2422 20.6356 47.3256 20.6315C47.409 20.6275 47.4918 20.6478 47.5638 20.6899C47.6233 20.7233 47.6905 20.7407 47.7589 20.7405C47.8272 20.7402 47.8943 20.7224 47.9536 20.6886C48.0129 20.6548 48.0623 20.6062 48.097 20.5477C48.1316 20.4892 48.1504 20.4228 48.1514 20.3549C48.1362 20.151 48.1528 19.9588 48.3857 19.9165C48.4985 19.9018 48.6129 19.9267 48.7091 19.9869C48.8054 20.0472 48.8774 20.1389 48.9128 20.2463C49.0665 20.7194 49.8209 20.5178 49.6658 20.0399L49.6651 20.0387Z" fill="#726A69"/>
<path d="M82.6292 59.0402C82.9695 59.2187 83.3025 59.4095 83.6284 59.6128C83.7181 59.6638 83.8243 59.6778 83.9243 59.6518C84.0242 59.6257 84.1098 59.5617 84.1628 59.4736C84.2129 59.3842 84.2263 59.2791 84.2001 59.1802C84.174 59.0812 84.1104 58.9962 84.0226 58.9428C83.6972 58.7395 83.3641 58.5486 83.0234 58.3702C82.9317 58.3197 82.8242 58.3058 82.7226 58.3314C82.6484 58.3516 82.582 58.3931 82.5315 58.4507C82.481 58.5083 82.4488 58.5795 82.4388 58.6552C82.4289 58.7309 82.4416 58.8079 82.4755 58.8764C82.5094 58.945 82.5628 59.0021 82.6292 59.0406V59.0402Z" fill="#726A69"/>
<path d="M80.9821 63.3154C81.3888 63.4178 81.7895 63.5425 82.1824 63.689C82.2326 63.7027 82.2851 63.7063 82.3367 63.6996C82.3883 63.693 82.4381 63.6762 82.4832 63.6502C82.5275 63.6245 82.5663 63.5904 82.5973 63.5498C82.6283 63.5092 82.651 63.4629 82.664 63.4136C82.677 63.3643 82.6802 63.313 82.6732 63.2625C82.6662 63.2119 82.6493 63.1633 82.6234 63.1193C82.5681 63.0354 82.4859 62.9726 82.3901 62.941C81.9972 62.7945 81.5964 62.6698 81.1896 62.5674C81.0898 62.5401 80.9831 62.5533 80.893 62.6041C80.8029 62.6549 80.7369 62.7392 80.7094 62.8384C80.6818 62.9376 80.6951 63.0436 80.7463 63.1331C80.7974 63.2226 80.8822 63.2881 80.9821 63.3154Z" fill="#726A69"/>
<path d="M53.0014 73.843C52.9173 74.0816 52.838 74.3224 52.7392 74.5557L52.7783 74.463L52.7607 74.5037C52.7325 74.5468 52.7165 74.5966 52.7142 74.6479C52.7026 74.6993 52.7051 74.7529 52.7213 74.8031C52.7348 74.8522 52.758 74.8983 52.7895 74.9386C52.821 74.9788 52.8601 75.0126 52.9047 75.0378C52.9493 75.063 52.9985 75.0792 53.0494 75.0856C53.1004 75.0919 53.1521 75.0882 53.2015 75.0746C53.2506 75.062 53.2967 75.0397 53.3369 75.009C53.3772 74.9784 53.4108 74.94 53.4358 74.8962C53.5572 74.6197 53.6545 74.3348 53.7548 74.0502C53.7755 73.9758 53.7733 73.897 53.7487 73.8238C53.724 73.7507 53.6779 73.6865 53.6163 73.6394C53.5548 73.5924 53.4805 73.5647 53.403 73.5599C53.3255 73.555 53.2483 73.5732 53.1812 73.6122C53.096 73.6663 53.0325 73.7483 53.0018 73.844L53.0014 73.843Z" fill="#726A69"/>
<path d="M49.0668 72.1607C48.937 72.5559 48.7544 72.9339 48.641 73.3343C48.6274 73.3835 48.6236 73.4348 48.6299 73.4853C48.6363 73.5359 48.6526 73.5847 48.6779 73.6291C48.7032 73.6734 48.7371 73.7123 48.7775 73.7436C48.818 73.7749 48.8643 73.798 48.9137 73.8115C48.9632 73.8251 49.0148 73.8288 49.0657 73.8225C49.1166 73.8162 49.1657 73.8 49.2103 73.7749C49.2549 73.7497 49.2941 73.7161 49.3256 73.6758C49.3571 73.6356 49.3804 73.5897 49.394 73.5405C49.5078 73.1403 49.69 72.7621 49.8198 72.3669C49.8465 72.2676 49.8328 72.1619 49.7817 72.0726C49.7305 71.9833 49.646 71.9176 49.5465 71.8897C49.4466 71.8647 49.3409 71.879 49.2514 71.9296C49.1619 71.9802 49.0956 72.0632 49.0662 72.1613L49.0668 72.1607Z" fill="#726A69"/>
<path d="M45.2128 22.0504C45.6013 22.6169 46.0211 23.1615 46.4702 23.6818C46.5437 23.7542 46.643 23.7947 46.7464 23.7947C46.8498 23.7947 46.9491 23.7542 47.0225 23.6818C47.0934 23.6079 47.1329 23.5097 47.1329 23.4075C47.1329 23.3054 47.0934 23.2072 47.0225 23.1333C46.9054 22.9975 46.7902 22.8592 46.6778 22.7191C46.6517 22.6861 46.6257 22.653 46.5997 22.6198L46.5526 22.5598C46.5444 22.5494 46.4981 22.4902 46.5364 22.5393C46.5747 22.5883 46.5286 22.5292 46.5206 22.5187L46.4749 22.4593C46.4473 22.4234 46.4199 22.3874 46.3927 22.3515C46.2201 22.1238 46.0503 21.8937 45.8879 21.6588C45.862 21.6148 45.8276 21.5763 45.7868 21.5455C45.7459 21.5147 45.6994 21.4922 45.6497 21.4792C45.6001 21.4663 45.5484 21.4632 45.4976 21.4702C45.4468 21.4771 45.3979 21.4939 45.3536 21.5196C45.2642 21.5715 45.1992 21.6566 45.1729 21.7562C45.1599 21.8055 45.1568 21.8568 45.1638 21.9073C45.1707 21.9578 45.1877 22.0064 45.2135 22.0504H45.2128Z" fill="#726A69"/>
<path d="M46.3288 21.3384C46.7595 21.8622 47.2228 22.3576 47.6535 22.8808C47.7269 22.9533 47.8261 22.994 47.9296 22.994C48.0331 22.994 48.1324 22.9533 48.2058 22.8808C48.2764 22.8067 48.3158 22.7085 48.3158 22.6065C48.3158 22.5044 48.2764 22.4063 48.2058 22.3322C47.7749 21.8084 47.3116 21.3128 46.881 20.7896C46.8076 20.7172 46.7083 20.6765 46.6049 20.6765C46.5015 20.6765 46.4022 20.7172 46.3288 20.7896C46.2582 20.8637 46.2188 20.9619 46.2188 21.064C46.2188 21.1661 46.2582 21.2643 46.3288 21.3384Z" fill="#726A69"/>
<path d="M47.5859 20.6937C47.4572 20.5967 47.5503 20.6667 47.5798 20.6917C47.6043 20.7124 47.6283 20.7336 47.6519 20.7553C47.7028 20.8019 47.7526 20.85 47.8014 20.8989C47.9186 21.0153 48.03 21.1373 48.1384 21.2618C48.1964 21.3282 48.2532 21.3955 48.3086 21.4638C48.3328 21.4936 48.3561 21.5241 48.3805 21.5538C48.2918 21.4451 48.3887 21.5652 48.4096 21.5926C48.496 21.7055 48.5736 21.8247 48.6419 21.9493C48.6947 22.0376 48.7804 22.1016 48.8804 22.1276C48.9803 22.1537 49.0866 22.1396 49.1762 22.0884C49.2639 22.0349 49.3274 21.9498 49.3534 21.851C49.3795 21.7521 49.3662 21.647 49.3162 21.5577C49.1408 21.2533 48.9312 20.9697 48.6915 20.7123C48.4789 20.4589 48.2408 20.2279 47.9808 20.0229C47.9358 19.9967 47.886 19.9799 47.8343 19.9732C47.7826 19.9665 47.73 19.9702 47.6798 19.9841C47.5816 20.0115 47.4977 20.0753 47.4455 20.1623C47.4194 20.2071 47.4026 20.2566 47.3959 20.3079C47.3892 20.3592 47.3928 20.4113 47.4065 20.4613C47.4389 20.5563 47.5019 20.6382 47.5859 20.694V20.6937Z" fill="#726A69"/>
<path d="M44.9632 24.0779C45.0568 24.3739 45.1931 24.6549 45.3679 24.912C45.5636 25.2242 45.781 25.5224 46.0186 25.8044C46.2427 26.0972 46.5375 26.3292 46.8759 26.4787C46.9735 26.5163 47.0726 26.5388 47.1724 26.5667C47.218 26.5769 47.2621 26.5926 47.3038 26.6135C47.3026 26.6135 47.3991 26.6759 47.3651 26.6496C47.5065 26.7715 47.6168 26.9251 47.6868 27.0977C47.7391 27.1865 47.8248 27.2511 47.925 27.2772C48.0251 27.3033 48.1317 27.2888 48.2211 27.2368C48.3105 27.1849 48.3755 27.0998 48.4018 27.0003C48.428 26.9007 48.4134 26.7949 48.3612 26.706C48.271 26.497 48.1367 26.3096 47.9674 26.1565C47.7982 26.0034 47.5978 25.8882 47.3799 25.8185C47.2062 25.7835 47.0428 25.7094 46.9022 25.602C46.8075 25.5196 46.7192 25.43 46.6383 25.3341C46.5877 25.2759 46.5385 25.2178 46.4903 25.1578C46.4274 25.0802 46.4419 25.0981 46.3763 25.0094C46.2741 24.8717 46.1765 24.7307 46.0834 24.5865C45.9971 24.4521 45.9147 24.3149 45.8407 24.1729C45.8212 24.1342 45.8017 24.0954 45.7822 24.0566C45.7724 24.0372 45.7369 23.9485 45.773 24.0399C45.7506 23.985 45.7313 23.9288 45.7154 23.8717C45.5854 23.39 44.8318 23.5943 44.9624 24.0781L44.9632 24.0779Z" fill="#726A69"/>
<path d="M69.3799 44.7763C69.3189 44.9076 69.2471 45.0338 69.1651 45.1534C69.0452 45.325 68.9138 45.4885 68.772 45.6428C68.4075 46.0502 68.0092 46.4257 67.6086 46.797C66.6324 47.7021 65.6141 48.5677 64.6817 49.519C63.2091 51.0218 62.1716 52.8323 60.9011 54.4922C60.5286 54.9789 60.1438 55.5058 59.9767 56.1046C59.849 56.5624 59.7764 57.0427 59.6684 57.5063C59.4341 58.5099 59.1803 59.5085 58.907 60.5022C58.3018 62.7127 57.6222 64.9042 56.8512 67.0628C56.0684 69.2548 55.208 71.4432 54.0694 73.4796L54.4066 73.2874C53.5202 73.1973 52.6486 72.9971 51.8123 72.6915C50.8879 72.4016 49.9982 72.0121 49.159 71.5299L49.3378 71.9685C49.9869 69.4525 50.5398 66.9136 51.1534 64.3891C51.7762 61.825 52.5591 59.3081 53.2258 56.756C54.1328 53.2821 55.4889 49.9559 56.9857 46.6973C57.7985 44.927 58.6343 43.159 59.5805 41.4547C59.8234 41.017 59.1493 40.625 58.9062 41.063C58.0706 42.5693 57.3248 44.1262 56.5976 45.6864C55.8081 47.3805 55.0459 49.0901 54.356 50.827C53.7209 52.4251 53.1727 54.0732 52.6965 55.7238C52.3395 56.9622 52.0226 58.2123 51.6644 59.4508C51.303 60.6995 50.9553 61.9503 50.6396 63.2112C49.927 66.0545 49.3173 68.9229 48.5848 71.7617C48.5635 71.8442 48.5695 71.9313 48.6018 72.0102C48.6341 72.0891 48.691 72.1556 48.7642 72.1999C49.6628 72.7145 50.6151 73.1303 51.6042 73.4399C52.5081 73.7637 53.4494 73.9732 54.406 74.0635C54.4743 74.0642 54.5415 74.0467 54.6008 74.013C54.66 73.9792 54.7092 73.9304 54.7431 73.8715C55.7345 72.033 56.583 70.1219 57.2811 68.155C58.0837 65.9967 58.7863 63.8012 59.4148 61.587C59.7088 60.5513 59.9843 59.5107 60.2414 58.4652C60.3559 57.9954 60.4658 57.5245 60.5709 57.0526C60.6201 56.8313 60.6592 56.6064 60.7097 56.3861C60.7971 56.0805 60.9337 55.791 61.1143 55.5289C61.4294 55.0158 61.8315 54.5531 62.1822 54.0625C62.475 53.6552 62.7558 53.2389 63.0379 52.8237C63.5715 52.013 64.1633 51.2415 64.8086 50.5153C65.8103 49.4203 66.951 48.4591 68.042 47.4542C68.8094 46.7475 69.7424 45.977 70.1331 44.9819C70.1598 44.8826 70.1461 44.7769 70.095 44.6876C70.0438 44.5983 69.9593 44.5326 69.8598 44.5047C69.7599 44.4798 69.6543 44.4941 69.5648 44.5447C69.4753 44.5953 69.4089 44.6782 69.3795 44.7763H69.3799Z" fill="#4F8D00"/>
<path d="M58.3134 23.495C57.9385 24.4124 57.5062 25.3056 57.019 26.1693C56.6028 26.9189 56.1796 27.6473 56.0558 28.5101C55.932 29.373 56.0778 30.1825 56.2573 31.0253C56.4482 31.9227 56.6756 32.8123 56.8381 33.7157C57.0085 34.7023 57.0899 35.7021 57.0815 36.7031C57.0815 37.1289 57.0692 37.5547 57.0743 37.9805C57.0784 38.3246 57.0638 38.7448 57.2408 39.0546C57.423 39.3735 57.8111 39.362 58.1375 39.4018C58.48 39.4435 58.8239 39.4716 59.1681 39.4922C59.9752 39.5403 60.785 39.5469 61.5933 39.5295C62.567 39.5085 63.539 39.4508 64.5094 39.3562C65.4941 39.2792 66.4714 39.127 67.4326 38.9008C67.9187 38.7754 67.7126 38.0278 67.2251 38.1526C65.9468 38.4464 64.6439 38.6218 63.333 38.6763C62.049 38.7671 60.7609 38.7857 59.4748 38.732C58.8982 38.7116 58.3233 38.6572 57.7531 38.569L57.9253 38.6687C57.8995 38.6478 57.9224 38.6914 57.9034 38.6171C57.8892 38.5579 57.8794 38.4978 57.874 38.4371C57.8536 38.1809 57.8471 37.9237 57.8544 37.6668C57.8572 37.1572 57.8677 36.6478 57.8574 36.1382C57.8256 34.9985 57.6864 33.8642 57.4415 32.7503C57.2268 31.7394 56.9589 30.7381 56.8049 29.7154C56.6988 28.8238 56.8928 27.9225 57.3566 27.1521C58.0078 26.0426 58.5791 24.8887 59.0662 23.6991C59.093 23.5998 59.0794 23.4941 59.0282 23.4047C58.9771 23.3154 58.8925 23.2497 58.7929 23.2219C58.6931 23.197 58.5874 23.2113 58.4979 23.2619C58.4084 23.3125 58.3421 23.3955 58.3126 23.4935L58.3134 23.495Z" fill="#726A69"/>
<path d="M69.7133 36.0443C69.7524 34.6915 69.4997 33.3631 69.4742 32.0145C69.4586 31.3438 69.5289 30.6739 69.6834 30.0209C69.8383 29.3753 70.0835 28.76 70.2851 28.1282C70.4374 27.651 69.6836 27.4469 69.5321 27.9218C69.3305 28.5532 69.0856 29.1691 68.9304 29.8145C68.7633 30.5104 68.6833 31.2241 68.6921 31.9394C68.7087 33.313 68.9718 34.6667 68.9324 36.0443C68.9181 36.5438 69.6991 36.5435 69.7133 36.0443Z" fill="#726A69"/>
<path d="M68.5758 38.488C68.6662 38.4469 68.7556 38.4031 68.8421 38.3542C68.9435 38.2945 69.0389 38.2253 69.1269 38.1474C69.1956 38.0888 69.2585 38.0239 69.3147 37.9534C69.3596 37.9005 69.4008 37.8447 69.4379 37.7862C69.474 37.7204 69.5036 37.6514 69.5264 37.58C69.5471 37.5056 69.5449 37.4267 69.5203 37.3535C69.4957 37.2803 69.4496 37.2161 69.388 37.169C69.3264 37.122 69.2521 37.0942 69.1746 37.0894C69.097 37.0845 69.0198 37.1028 68.9528 37.1418C68.8674 37.1956 68.8038 37.2777 68.7734 37.3736C68.7661 37.3943 68.7585 37.4147 68.7501 37.4349L68.7892 37.3423C68.7657 37.3927 68.7362 37.44 68.7011 37.4832L68.7622 37.4056C68.6905 37.4953 68.6083 37.5763 68.5174 37.6467L68.5965 37.586C68.4674 37.679 68.3281 37.7571 68.1812 37.8188C68.0934 37.8699 68.029 37.9531 68.0018 38.0506C67.9747 38.1515 67.9887 38.259 68.0408 38.3497C68.0928 38.437 68.1768 38.5009 68.2751 38.528L68.3788 38.5418C68.4481 38.5419 68.5162 38.5236 68.576 38.4888L68.5758 38.488Z" fill="#726A69"/>
<path d="M56.2903 30.6497C55.0117 31.1928 53.7685 31.8962 52.4019 32.2015C52.0054 32.3107 51.5829 32.2781 51.2081 32.1094C50.976 31.9844 50.7795 31.8031 50.637 31.5823C50.4205 31.2989 50.2077 31.0127 49.9986 30.724C49.6242 30.2043 49.2659 29.6731 48.9298 29.128C48.7563 28.8464 48.5884 28.5613 48.4261 28.2728C48.3416 28.1225 48.2586 27.9714 48.1769 27.8194C48.1349 27.7418 48.0934 27.6637 48.0524 27.5851C48.0247 27.5321 47.997 27.4789 47.9694 27.4256C47.9249 27.3369 47.9146 27.3175 47.9386 27.3674C47.7369 27.3636 47.987 27.5015 47.9511 27.4241C47.953 27.4283 47.9751 27.3853 47.9817 27.3884C47.9784 27.3866 48.1135 27.2957 47.953 27.4091C47.9704 27.3967 47.9874 27.3837 48.0053 27.3723C48.1225 27.2984 48.2396 27.2247 48.3591 27.155C48.7148 26.9484 49.0783 26.7543 49.4428 26.5632C49.8922 26.3273 50.3452 26.0983 50.8016 25.8761C51.0047 25.7775 51.2083 25.6804 51.4139 25.5872C51.4972 25.5495 51.5808 25.5125 51.6647 25.4763C51.7703 25.4313 51.595 25.5034 51.6934 25.4646C51.7282 25.4511 51.7627 25.4373 51.7977 25.4241L51.3568 25.2458C51.6217 25.7881 51.9716 26.2851 52.3935 26.7182C52.4672 26.79 52.5663 26.8302 52.6696 26.8302C52.7728 26.8302 52.8719 26.79 52.9456 26.7182C53.9482 25.678 54.8967 24.5878 55.7876 23.4517C56.219 22.9019 56.6415 22.3454 57.0548 21.782C57.4619 21.2299 57.8447 20.6546 58.2752 20.1202C58.6686 19.6319 59.1717 19.0932 59.8425 19.0581C60.3425 19.0319 60.3456 18.2558 59.8425 18.2822C58.3978 18.3578 57.5872 19.737 56.8282 20.7793C55.9795 21.9446 55.1135 23.0972 54.1805 24.1977C53.6066 24.8743 53.011 25.5316 52.3935 26.1694H52.9456C52.5721 25.7823 52.2633 25.3382 52.031 24.8542C51.9875 24.7803 51.9208 24.7228 51.8411 24.6906C51.7613 24.6583 51.6731 24.6532 51.5901 24.6759C50.7709 25.0076 49.9724 25.3879 49.199 25.8146C48.789 26.028 48.3815 26.2439 47.9823 26.4751C47.709 26.6334 47.404 26.7898 47.2494 27.078C47.0737 27.4058 47.2221 27.6794 47.3783 27.9764C47.5579 28.3188 47.7449 28.6573 47.9393 28.9919C48.3042 29.6182 48.6978 30.2276 49.1148 30.8208C49.3252 31.1196 49.5404 31.415 49.7606 31.7069C49.954 32.0063 50.181 32.2829 50.4373 32.5313C50.8784 32.8833 51.432 33.0664 51.9974 33.0471C52.7553 33.0173 53.5303 32.6968 54.2207 32.4114C55.051 32.0681 55.8571 31.6708 56.6839 31.3199C56.7728 31.2675 56.8374 31.1825 56.8637 31.0831C56.8899 30.9838 56.8757 30.8781 56.8241 30.7891C56.77 30.7024 56.6845 30.6395 56.5852 30.6136C56.4859 30.5876 56.3803 30.6005 56.2903 30.6497Z" fill="#726A69"/>
<path d="M59.5127 15.8485C59.5388 15.9015 59.5643 15.9549 59.5895 16.0086C59.6008 16.0334 59.6121 16.0582 59.623 16.0832C59.6277 16.0941 59.6326 16.105 59.6373 16.116C59.6537 16.1548 59.65 16.1455 59.6265 16.0902C59.6465 16.1545 59.6717 16.217 59.7019 16.2772C59.7242 16.3346 59.7458 16.3923 59.7667 16.4501C59.8643 16.718 59.9495 16.9901 60.0266 17.2648C60.0541 17.364 60.1202 17.4483 60.2103 17.4991C60.3004 17.5499 60.4071 17.5631 60.5069 17.5357C60.6068 17.5083 60.6916 17.4427 60.7427 17.3532C60.7939 17.2636 60.8071 17.1576 60.7796 17.0584C60.6332 16.5073 60.4348 15.9712 60.1871 15.4571C60.1344 15.3687 60.0488 15.3045 59.9488 15.2784C59.8488 15.2523 59.7425 15.2665 59.6529 15.3178C59.5654 15.3715 59.5021 15.4565 59.476 15.5553C59.4499 15.6541 59.4631 15.7591 59.5127 15.8485Z" fill="#726A69"/>
<path d="M62.7781 9.31123C62.9481 9.05905 63.3364 8.73257 63.6254 8.96206C63.8747 9.15992 63.8698 9.61132 63.8233 9.92733C63.7631 10.311 63.6127 10.6752 63.3844 10.9903C63.1561 11.3055 62.8563 11.5627 62.5093 11.7413C62.0626 11.9708 62.4571 12.6406 62.9034 12.4113C63.4154 12.1416 63.8452 11.7403 64.1478 11.2492C64.4504 10.7582 64.6148 10.1954 64.6238 9.61967C64.6238 9.0445 64.4003 8.41929 63.8233 8.19426C63.1352 7.92618 62.4763 8.36613 62.1044 8.91957C62.0557 9.00814 62.0437 9.11205 62.0709 9.20926C62.0981 9.30647 62.1623 9.38933 62.2499 9.44028C62.3376 9.49123 62.4417 9.50625 62.5403 9.48216C62.6389 9.45807 62.7242 9.39675 62.7781 9.31123Z" fill="#726A69"/>
<path d="M62.8248 52.6763C63.4581 53.991 63.9326 55.4102 64.7437 56.6336C65.586 57.9032 67.1265 58.575 68.4693 59.1962C71.2054 60.4621 74.0169 61.5948 76.8599 62.601C78.1258 63.0489 79.4174 63.511 80.7405 63.7612C80.8235 63.7818 80.9109 63.7756 80.9902 63.7436C81.0694 63.7115 81.1363 63.6553 81.1813 63.5829C81.6655 62.7253 82.0909 61.8363 82.4548 60.9218C82.6305 60.4786 82.7867 60.0284 82.9233 59.5715C83.052 59.1368 83.1211 58.6916 83.2146 58.2489C83.2351 58.1664 83.2287 58.0796 83.1965 58.001C83.1643 57.9223 83.1078 57.8558 83.0352 57.8109C80.6579 56.349 78.2013 55.0183 75.6766 53.8251C74.498 53.2546 73.2889 52.7559 72.1039 52.2016C71.9067 52.1095 71.7109 52.0141 71.5205 51.9087C71.4385 51.8635 71.3575 51.8166 71.2785 51.7665C71.2421 51.7434 71.2058 51.7198 71.1703 51.6953C71.1586 51.6874 71.0426 51.5997 71.0885 51.6371C71.032 51.5919 70.9785 51.5431 70.9282 51.4911C70.9052 51.4668 70.8827 51.4422 70.8618 51.4162C70.9188 51.4872 70.8521 51.4051 70.8486 51.3921C70.7851 51.1576 70.7183 50.8837 70.652 50.6342C70.2312 49.0519 69.8347 47.463 69.5267 45.8548C69.4328 45.3648 68.68 45.5722 68.7737 46.061C69.0552 47.5309 69.4097 48.9852 69.7908 50.4323C69.8701 50.7327 69.9499 51.0329 70.0304 51.333C70.0738 51.5677 70.1732 51.7886 70.3201 51.9774C70.5752 52.2471 70.8784 52.4673 71.2144 52.6271C72.295 53.2028 73.4584 53.6259 74.565 54.15C75.8941 54.7797 77.2114 55.4345 78.517 56.1145C79.9216 56.8517 81.2964 57.6405 82.6414 58.4811L82.462 58.0429C82.3683 58.4856 82.2994 58.9306 82.1707 59.3653C82.044 59.7932 81.8974 60.2155 81.7359 60.6316C81.3872 61.5126 80.977 62.3682 80.5081 63.1922L80.9492 63.014C79.8289 62.7737 78.7274 62.4534 77.6535 62.0557C76.207 61.5591 74.7774 61.014 73.3584 60.4456C72.0174 59.9087 70.6838 59.35 69.3683 58.7552C68.8283 58.5112 68.2889 58.2639 67.7612 57.9946C66.9867 57.5995 66.1484 57.1475 65.5842 56.4709C65.125 55.9201 64.7929 55.1374 64.4837 54.4687C64.1485 53.7438 63.8465 53.0034 63.4997 52.2837C63.2828 51.8336 62.6093 52.2267 62.8254 52.6754L62.8248 52.6763Z" fill="#4F8D00"/>
<path d="M55.4565 7.6342C55.476 8.33779 55.565 9.26562 55.1142 9.86697C54.8897 10.1667 54.5309 10.3325 54.3499 10.6736C54.1207 11.1054 54.303 11.5494 54.6511 11.8495C54.8139 11.9668 54.9564 12.1095 55.073 12.2722C55.1581 12.4308 55.2078 12.6058 55.2187 12.7853C55.276 13.1622 55.3583 13.535 55.4648 13.9013C55.7073 14.724 56.1421 15.5059 56.9804 15.8411C57.4553 16.0121 57.9562 16.1007 58.4612 16.103C58.9398 16.1336 59.4196 16.0649 59.87 15.9015C59.9682 15.8715 60.0512 15.8054 60.102 15.7166C60.1528 15.6279 60.1676 15.5233 60.1433 15.4241C60.1155 15.325 60.0494 15.241 59.9594 15.1901C59.8695 15.1392 59.763 15.1257 59.6631 15.1525C58.9602 15.44 58.071 15.3723 57.3584 15.1525C56.6493 14.9337 56.3586 14.2118 56.1806 13.5604C55.9865 12.8503 56.0296 12.0668 55.465 11.5221C55.3442 11.4057 55.1458 11.3061 55.0584 11.1616C54.9973 11.0608 55.0515 11.0047 55.1291 10.9222C55.3844 10.6507 55.6841 10.4606 55.8725 10.1269C56.2934 9.38162 56.2606 8.46058 56.2382 7.63401C56.2247 7.13566 55.4438 7.13372 55.4572 7.63401L55.4565 7.6342Z" fill="#726A69"/>
<path d="M69.4413 37.6019C69.0749 37.7936 68.6538 37.7344 68.2469 37.7765C67.9979 37.7968 67.7538 37.8575 67.5246 37.9563C67.3082 38.0634 67.1051 38.1952 66.9194 38.349C66.6117 38.5707 66.3585 38.8588 66.1787 39.1915C65.9989 39.5242 65.8971 39.8931 65.8809 40.2704C65.8764 40.6648 66.0596 41.0725 66.478 41.1697C66.5274 41.1832 66.579 41.187 66.6299 41.1807C66.6808 41.1744 66.73 41.1582 66.7746 41.133C66.8192 41.1079 66.8583 41.0742 66.8898 41.034C66.9214 40.9938 66.9446 40.9478 66.9582 40.8987C66.9718 40.8496 66.9756 40.7983 66.9693 40.7477C66.9629 40.6971 66.9466 40.6483 66.9213 40.604C66.896 40.5597 66.8621 40.5207 66.8217 40.4894C66.7812 40.4581 66.7349 40.435 66.6855 40.4215C66.5773 40.3965 66.7144 40.4409 66.6591 40.4147C66.7046 40.4535 66.7122 40.458 66.6816 40.4306C66.6539 40.4004 66.6589 40.4077 66.6966 40.4531C66.6816 40.4132 66.6785 40.3827 66.6904 40.4552C66.6849 40.4211 66.6708 40.3833 66.6619 40.3493C66.6878 40.4512 66.6619 40.3313 66.6619 40.3022C66.6619 40.2698 66.6619 40.2372 66.6642 40.2052C66.6658 40.1827 66.6677 40.1602 66.6701 40.1379C66.6633 40.1837 66.6633 40.1837 66.6701 40.1379C66.6771 40.1026 66.6833 40.0671 66.6913 40.032C66.7135 39.9353 66.7419 39.8402 66.7763 39.7472C66.7774 39.7443 66.8218 39.6335 66.7927 39.7012C66.8122 39.6564 66.8333 39.6124 66.8555 39.5689C66.8923 39.4969 66.9337 39.4273 66.9793 39.3604C66.9916 39.3426 67.0041 39.3251 67.0172 39.3078C66.9936 39.3393 66.9986 39.3344 67.0318 39.2937C67.0695 39.2549 67.1052 39.2139 67.1441 39.1759C67.4449 38.8436 67.8503 38.6225 68.294 38.549C68.827 38.502 69.3451 38.5296 69.8336 38.2731C69.8778 38.2474 69.9166 38.2133 69.9476 38.1727C69.9786 38.1321 70.0012 38.0858 70.0142 38.0365C70.0273 37.9872 70.0304 37.9359 70.0234 37.8854C70.0164 37.8349 69.9995 37.7863 69.9736 37.7423C69.9478 37.6983 69.9134 37.6598 69.8726 37.629C69.8317 37.5982 69.7851 37.5757 69.7355 37.5627C69.6859 37.5498 69.6342 37.5467 69.5834 37.5536C69.5326 37.5606 69.4837 37.5774 69.4394 37.6031L69.4413 37.6019Z" fill="#726A69"/>
<path d="M67.3345 39.7596C66.9866 39.9909 66.671 40.2669 66.3958 40.5804C66.1518 40.8945 65.9666 41.2497 65.8492 41.629C65.7622 41.856 65.7479 42.1041 65.8082 42.3395C65.8685 42.5748 66.0005 42.7859 66.1862 42.9439C66.5907 43.2696 67.1162 43.5 67.6338 43.3351L67.193 43.1569C67.6088 43.7402 68.2726 43.8488 68.9459 43.7421L68.566 43.6422C69.0279 44.0799 69.6546 44.0591 70.252 44.0542C70.5048 44.0599 70.755 44.0028 70.98 43.8882C71.205 43.7735 71.3976 43.6049 71.5405 43.3976C72.2728 42.4157 72.4971 41.1953 73.0633 40.129C73.2976 39.6878 72.624 39.2948 72.389 39.7373C72.0874 40.3304 71.8301 40.9447 71.6192 41.5753C71.5162 41.8668 71.3878 42.1489 71.2354 42.4182C71.1139 42.6768 70.9516 42.9144 70.7545 43.122C70.6794 43.182 70.5931 43.2267 70.5005 43.2533C70.4079 43.28 70.3109 43.2881 70.2151 43.2771C69.9263 43.3015 69.6354 43.2846 69.3514 43.2271C69.2064 43.1833 69.1271 43.069 68.9924 43.0125C68.8322 42.98 68.6671 42.9794 68.5067 43.0108C68.3879 43.0238 68.2678 43.0082 68.1565 42.9653C68.0451 42.9224 67.9458 42.8535 67.8669 42.7644C67.822 42.692 67.7551 42.6357 67.6758 42.6036C67.5966 42.5715 67.5091 42.5654 67.4261 42.5862C67.2774 42.6122 67.1244 42.5984 66.9828 42.5462C66.8413 42.4939 66.7164 42.405 66.6209 42.2888C66.4585 42.0948 66.6178 41.7716 66.7039 41.5747C66.9229 41.0731 67.2921 40.7493 67.7285 40.4302C67.8156 40.3763 67.8787 40.2912 67.9047 40.1925C67.9308 40.0938 67.9179 39.989 67.8686 39.8995C67.8159 39.8112 67.7302 39.7471 67.6303 39.7211C67.5304 39.695 67.4241 39.7091 67.3345 39.7602V39.7596Z" fill="#726A69"/>
<path d="M59.4265 7.05402C59.5139 7.22056 59.6287 7.37138 59.7662 7.50018C59.9316 7.67072 60.1062 7.83222 60.2892 7.98398C60.6969 8.33601 61.1332 8.65393 61.5936 8.93451C61.7693 9.05276 61.9638 9.14071 62.1689 9.19464C62.2688 9.22199 62.3755 9.2088 62.4655 9.15797C62.5556 9.10715 62.6217 9.02286 62.6492 8.92364C62.6767 8.82443 62.6634 8.71841 62.6123 8.62892C62.5611 8.53942 62.4763 8.47379 62.3764 8.44644C62.35 8.44126 62.3239 8.43433 62.2983 8.42568C62.2843 8.42103 62.2704 8.41521 62.2566 8.41036C62.1865 8.3865 62.3337 8.4476 62.2812 8.42064C62.2031 8.38068 62.125 8.34305 62.0481 8.29959C61.8507 8.18669 61.6615 8.05963 61.4764 7.92792C61.3723 7.85382 61.2694 7.7779 61.1678 7.70018C61.2297 7.74751 61.1648 7.69746 61.1404 7.67826C61.116 7.65906 61.0934 7.64121 61.07 7.62259C61.0197 7.58263 60.9698 7.54215 60.9202 7.50115C60.7351 7.3481 60.5538 7.18922 60.3841 7.0191C60.3103 6.9448 60.2424 6.86682 60.1733 6.78826C60.1342 6.74325 60.2277 6.86585 60.1854 6.80339C60.1748 6.78787 60.1633 6.77293 60.1532 6.75722C60.1333 6.7274 60.1159 6.69599 60.1012 6.66333C60.0484 6.57504 59.9628 6.51096 59.8628 6.48493C59.7628 6.4589 59.6565 6.47302 59.5669 6.52424C59.4794 6.57792 59.4161 6.66297 59.39 6.76179C59.364 6.8606 59.3772 6.96559 59.4269 7.05499L59.4265 7.05402Z" fill="#4F8D00"/>
<path d="M55.7971 13.4373C56.0937 13.462 56.3922 13.4283 56.6756 13.338C56.8733 13.2775 57.055 13.1743 57.2076 13.0357C57.2439 12.9997 57.2727 12.9569 57.2923 12.9098C57.3119 12.8628 57.322 12.8123 57.322 12.7613C57.322 12.7104 57.3119 12.6599 57.2923 12.6128C57.2727 12.5658 57.2439 12.523 57.2076 12.4869C57.1714 12.4509 57.1283 12.4223 57.0809 12.4028C57.0336 12.3833 56.9828 12.3733 56.9315 12.3733C56.8802 12.3733 56.8294 12.3833 56.782 12.4028C56.7346 12.4223 56.6916 12.4509 56.6553 12.4869C56.6392 12.5025 56.6223 12.5173 56.6046 12.531L56.6827 12.4703C56.6155 12.52 56.5425 12.5614 56.4652 12.5934L56.5585 12.5546C56.4281 12.6078 56.2914 12.6439 56.1516 12.6619L56.2555 12.6481C56.1034 12.6678 55.9497 12.6722 55.7967 12.6611C55.6932 12.6611 55.5938 12.702 55.5206 12.7748C55.4474 12.8475 55.4062 12.9462 55.4062 13.0491C55.4087 13.1513 55.4506 13.2485 55.5233 13.3208C55.596 13.393 55.6939 13.4347 55.7967 13.4371L55.7971 13.4373Z" fill="#726A69"/>
<path d="M56.8227 9.02428C56.7403 9.30284 56.7926 9.94319 57.2963 9.99673C57.9622 9.99149 57.9991 9.21729 57.7754 8.85357C57.5923 8.55581 57.0525 8.43282 56.8227 9.02428Z" fill="#726A69"/>
<path d="M88.95 61.9418C89.1798 60.8818 88.5855 60.0234 87.7306 59.4413C87.2788 59.1573 86.7831 58.949 86.2633 58.8248C85.781 58.675 85.2875 58.564 84.7873 58.4929C84.2879 58.4407 83.705 58.6999 83.6456 59.2448C83.647 59.4669 83.6601 59.6888 83.6847 59.9096C83.6809 60.1632 83.657 60.4162 83.6132 60.6661C83.5539 61.1092 83.4499 61.5452 83.3028 61.9676C83.1798 62.2909 82.9992 62.7047 82.7052 62.9121C82.3569 63.1571 81.8927 63.0514 81.6074 63.4261C81.5249 63.5265 81.4721 63.6478 81.4552 63.7764C81.4382 63.9049 81.4577 64.0356 81.5114 64.1538C81.6222 64.4519 81.7062 64.7592 81.7624 65.0721C81.8552 65.6412 81.85 66.2217 81.747 66.7891C81.6494 67.3621 81.477 67.9431 81.5348 68.5299C81.5481 68.7864 81.6134 69.0377 81.7269 69.2686C81.8403 69.4994 81.9996 69.7051 82.1951 69.8732C82.4017 70.0301 82.6408 70.1396 82.895 70.1939C83.1493 70.2482 83.4125 70.2459 83.6657 70.1873C84.573 70.0115 85.1512 69.3425 85.6213 68.6036C86.3216 67.5021 86.7595 66.2905 87.2759 65.1018C87.7509 64.0085 88.6537 63.115 88.9492 61.9414C89.0712 61.4564 88.3184 61.2502 88.1962 61.735C87.9397 62.7536 87.1656 63.5728 86.7017 64.4991C86.4411 65.0195 86.2605 65.5784 86.028 66.1115C85.8021 66.6292 85.5595 67.1396 85.2861 67.6356C84.9006 68.3351 84.4576 69.1462 83.6626 69.3879C83.2632 69.5093 82.8104 69.4806 82.5377 69.1272C82.2378 68.7392 82.2796 68.1827 82.3587 67.7305C82.5081 67.0709 82.5908 66.3981 82.6056 65.7221C82.5853 65.0558 82.4479 64.3982 82.1997 63.7788V63.985C82.2283 63.8706 82.2503 63.8713 82.3704 63.8387C82.5349 63.8016 82.6972 63.7553 82.8565 63.6999C83.1878 63.5553 83.465 63.311 83.6491 63.0015C84.0147 62.3954 84.2504 61.7208 84.3416 61.0199C84.4248 60.6196 84.4662 60.2118 84.4652 59.8031C84.4613 59.702 84.4516 59.6012 84.4361 59.5012C84.4293 59.4547 84.3924 59.3594 84.4195 59.3193C84.4644 59.2529 84.6614 59.2533 84.7293 59.2611C85.1015 59.3217 85.4693 59.406 85.8306 59.5133C86.2323 59.603 86.6228 59.7365 86.995 59.9113C87.6765 60.2551 88.376 60.9088 88.197 61.7348C88.0916 62.2223 88.8442 62.4304 88.95 61.9418Z" fill="#726A69"/>
<path d="M50.9421 79.9728C51.4291 80.059 51.9311 79.9708 52.3589 79.7239C52.7822 79.4476 53.1345 79.0767 53.3878 78.6409C53.9354 77.7563 54.0756 76.5922 54.1822 75.5777C54.2323 75.1001 53.983 74.5158 53.4686 74.4113C53.2148 74.3598 52.9832 74.4619 52.7351 74.4857C52.4751 74.5057 52.214 74.5044 51.9542 74.4821C51.5228 74.4634 51.0942 74.405 50.6737 74.3075C50.2573 74.2278 49.8669 74.0479 49.5367 73.7837C49.2464 73.5075 49.2895 73.0398 48.9992 72.7527C48.9117 72.6634 48.8041 72.596 48.6854 72.5559C48.5666 72.5158 48.44 72.5042 48.3159 72.522C48.1794 72.5734 48.046 72.6328 47.9166 72.6999C47.7605 72.7639 47.6002 72.8194 47.4387 72.8677C46.8858 73.0295 46.3097 73.0988 45.734 73.073C45.1128 73.0493 44.4917 72.8935 43.8686 72.9438C43.3199 72.9601 42.7991 73.1877 42.4162 73.5785C42.2426 73.7796 42.1177 74.0176 42.0512 74.2742C41.9846 74.5308 41.9783 74.7992 42.0326 75.0586C42.2083 76.0145 42.932 76.6126 43.744 77.0531C44.9304 77.6972 46.226 78.0912 47.5071 78.4989C48.695 78.877 49.6956 79.7598 50.9431 79.9732C51.0429 79.9975 51.1483 79.9829 51.2376 79.9324C51.327 79.8819 51.3934 79.7993 51.4234 79.7016C51.45 79.6023 51.4363 79.4966 51.3852 79.4073C51.334 79.318 51.2496 79.2523 51.15 79.2244C50.0739 79.0413 49.1587 78.3286 48.165 77.9175C47.5918 77.6803 46.9817 77.534 46.395 77.3325C45.8455 77.1435 45.3002 76.9391 44.7717 76.6974C44.0193 76.3532 43.1653 75.9525 42.8725 75.1711C42.7114 74.7412 42.7436 74.2553 43.1407 73.9643C43.5835 73.64 44.1979 73.6939 44.711 73.7509C45.368 73.848 46.0343 73.8672 46.6959 73.8082C47.3637 73.7219 48.0126 73.5268 48.6163 73.2305L48.3155 73.2693C48.4365 73.2887 48.4506 73.2828 48.4963 73.3872C48.5744 73.5655 48.6144 73.7573 48.6985 73.9348C48.8605 74.242 49.1144 74.4917 49.4252 74.6495C50.0804 75.018 50.8049 75.1436 51.5426 75.221C51.9608 75.2764 52.3837 75.2876 52.8042 75.2543C52.9044 75.2436 53.0051 75.2307 53.1039 75.2103C53.1461 75.2014 53.2622 75.147 53.2991 75.1612C53.3979 75.2 53.412 75.4056 53.409 75.491C53.3787 75.8811 53.3208 76.2687 53.2359 76.6508C53.1716 77.0767 53.0591 77.4939 52.9005 77.8946C52.6066 78.5763 51.979 79.3383 51.1504 79.2242C51.0506 79.2004 50.9454 79.2152 50.8562 79.2656C50.767 79.3161 50.7005 79.3984 50.6702 79.4958C50.6433 79.5949 50.6568 79.7004 50.7077 79.7897C50.7586 79.879 50.8428 79.9447 50.9421 79.9728Z" fill="#726A69"/>
<path d="M57.6707 40.4634C57.8197 41.1084 58.021 41.7403 58.2728 42.353C58.3003 42.4522 58.3664 42.5365 58.4564 42.5873C58.5465 42.6382 58.6532 42.6513 58.7531 42.624C58.8529 42.5967 58.9377 42.531 58.9889 42.4415C59.04 42.352 59.0533 42.246 59.0258 42.1468C58.7741 41.5341 58.5727 40.9022 58.4237 40.2572C58.3958 40.1582 58.3297 40.0741 58.2398 40.0232C58.1499 39.9724 58.0434 39.9589 57.9434 39.9856C57.8449 40.015 57.7615 40.081 57.7106 40.1698C57.6597 40.2587 57.6452 40.3636 57.6701 40.4628L57.6707 40.4634Z" fill="#4F8D00"/>
<path d="M68.1211 19.3458C68.5396 19.3482 68.9509 19.2386 69.312 19.0285C69.6731 18.8184 69.9707 18.5156 70.1734 18.1518C70.6275 17.3425 70.6872 16.3802 70.5548 15.4803C70.3938 14.3862 69.9323 13.3744 69.6242 12.3195C69.4552 11.6931 69.3243 11.0571 69.232 10.4151C69.0814 9.69188 69.0042 8.95545 69.0016 8.2169C69.0223 7.71758 68.2414 7.71855 68.2207 8.2169C68.2209 8.83633 68.2784 9.45444 68.3923 10.0634C68.4926 10.7519 68.61 11.4407 68.7665 12.1197C69.157 13.8089 70.2429 15.5249 69.6927 17.3028C69.4621 18.0471 68.9284 18.5544 68.1211 18.5708C67.6194 18.5811 67.6176 19.3561 68.1211 19.3458Z" fill="#4F8D00"/>
<path d="M62.7691 12.066C63.0886 13.672 63.8142 15.1707 64.8776 16.4211C64.9512 16.4932 65.0503 16.5335 65.1536 16.5335C65.257 16.5335 65.3561 16.4932 65.4297 16.4211C65.501 16.3473 65.5408 16.249 65.5408 16.1468C65.5408 16.0445 65.501 15.9462 65.4297 15.8724C64.4614 14.7172 63.8049 13.3363 63.5217 11.8596C63.4934 11.7608 63.4273 11.677 63.3375 11.6262C63.2477 11.5755 63.1414 11.5617 63.0415 11.588C62.9426 11.617 62.859 11.683 62.808 11.772C62.757 11.861 62.7428 11.9662 62.7681 12.0654L62.7691 12.066Z" fill="#726A69"/>
<path d="M60.2008 18.9695C60.229 18.6694 60.278 18.3718 60.3336 18.0758C60.357 17.9511 60.3812 17.8262 60.4105 17.7026C60.4185 17.6683 60.43 17.6337 60.4363 17.599C60.4517 17.509 60.449 17.6039 60.414 17.6341L60.2418 17.7338C60.4179 17.7005 60.5964 17.6815 60.7756 17.677C60.9708 17.6545 61.1661 17.6286 61.3613 17.5994C61.6973 17.5497 62.0314 17.4888 62.3634 17.4165C63.0108 17.2738 63.6495 17.0951 64.2767 16.8811C64.5644 16.7838 64.8503 16.6814 65.1343 16.5738C65.3869 16.4785 65.6809 16.3686 65.9131 16.5773C66.0495 16.7463 66.1617 16.9333 66.2465 17.1329C66.3978 17.4219 66.5394 17.7148 66.6938 18.0033C66.9296 18.4444 67.604 18.0527 67.3681 17.6116C67.203 17.3026 67.0513 16.987 66.8873 16.6776C66.7747 16.4255 66.6193 16.1945 66.4279 15.9948C65.7698 15.4074 64.9863 15.8143 64.2864 16.0584C63.5893 16.3046 62.8778 16.5083 62.1557 16.6683C61.7578 16.7546 61.3562 16.8269 60.9525 16.8793C60.7436 16.9065 60.5339 16.9282 60.3242 16.9462C60.2271 16.9401 60.1298 16.9552 60.0392 16.9907C59.9486 17.0261 59.867 17.0809 59.8002 17.1513C59.6769 17.3611 59.6038 17.5962 59.5865 17.8386C59.5152 18.2126 59.4555 18.5901 59.4199 18.9693C59.4207 19.072 59.4621 19.1702 59.5351 19.2428C59.6082 19.3154 59.7071 19.3565 59.8104 19.3573C59.9133 19.3552 60.0113 19.3136 60.0841 19.2413C60.1569 19.169 60.1987 19.0717 60.2008 18.9695Z" fill="#726A69"/>
<path d="M66.694 18.0035C66.8356 18.2021 67.0115 18.3742 67.2137 18.5117C67.251 18.5391 67.2889 18.5658 67.3262 18.5932C67.3568 18.6155 67.3837 18.6595 67.3332 18.5972C67.3457 18.6094 67.3593 18.6205 67.3738 18.6304C67.462 18.7067 67.546 18.7875 67.6256 18.8725C67.7067 18.9567 67.7848 19.0433 67.8599 19.1325C67.8978 19.1768 67.9351 19.2218 67.972 19.2673C67.9905 19.29 68.0087 19.3127 68.0268 19.3356C68.0323 19.3423 68.0899 19.4161 68.0614 19.3792C68.0329 19.3423 68.0965 19.4252 68.0952 19.4234C68.113 19.4467 68.1306 19.4701 68.1481 19.4935C68.1832 19.5401 68.2181 19.5872 68.2527 19.6345C68.3253 19.7335 68.3974 19.8331 68.4688 19.933C68.5227 20.0201 68.6084 20.0832 68.7079 20.1092C68.8074 20.1351 68.9132 20.1219 69.0032 20.0723C69.0917 20.0195 69.1559 19.9344 69.182 19.8352C69.2082 19.736 69.1942 19.6305 69.1432 19.5414C68.8627 19.1333 68.5563 18.7436 68.2256 18.3746C68.0683 18.2054 67.8952 18.0515 67.7086 17.915C67.6711 17.8877 67.6333 17.8607 67.5958 17.8333C67.5552 17.8089 67.5583 17.806 67.5958 17.8333C67.576 17.8195 67.5572 17.8043 67.5395 17.7877C67.5018 17.7562 67.4658 17.7227 67.4316 17.6875C67.4142 17.6694 67.398 17.6504 67.3812 17.6318C67.4255 17.6807 67.3886 17.6415 67.3683 17.6124C67.3424 17.5684 67.3081 17.5299 67.2672 17.4991C67.2264 17.4683 67.1798 17.4458 67.1302 17.4329C67.0806 17.4199 67.0289 17.4168 66.9781 17.4238C66.9273 17.4307 66.8784 17.4475 66.8341 17.4732C66.7898 17.4989 66.7511 17.533 66.7201 17.5736C66.6891 17.6142 66.6664 17.6605 66.6534 17.7098C66.6404 17.7591 66.6373 17.8104 66.6442 17.8609C66.6512 17.9114 66.6681 17.96 66.694 18.004V18.0035Z" fill="#726A69"/>
<path d="M67.8069 19.8812C69.7835 20.8126 71.6567 21.9468 73.396 23.2653C74.2333 23.9076 75.0974 24.5084 75.9097 25.1836C76.3119 25.5179 76.7059 25.8626 77.0846 26.2228C77.4072 26.5299 77.7613 26.8343 77.9493 27.2455C78.2225 27.8777 78.2547 28.5871 78.0399 29.2412C77.8642 29.7401 77.6196 30.2243 77.4068 30.7091C77.1662 31.2565 76.923 31.8028 76.677 32.3479C75.7057 34.4994 74.6909 36.6309 73.6328 38.7424C73.5847 38.8932 73.5131 39.0355 73.4206 39.1641C73.3829 39.1954 73.4169 39.1911 73.3706 39.1921C73.1717 39.155 72.9803 39.0853 72.8044 38.9859C72.3653 38.8068 71.9384 38.5954 71.5175 38.3779C70.6651 37.9376 69.8305 37.4578 69.0261 36.9358L69.2056 37.3738C69.9135 35.531 70.7898 33.7636 71.6655 31.9944C71.8875 31.5456 72.1075 31.0958 72.3255 30.6451C72.4591 30.3976 72.5569 30.1325 72.616 29.8579C72.6908 29.5344 72.6493 29.195 72.4989 28.8986C72.2767 28.5206 71.8496 28.4096 71.4778 28.2255C70.5325 27.7568 69.6659 27.1501 68.7188 26.6833C68.2698 26.462 67.8741 27.131 68.3247 27.3534C69.1136 27.7413 69.8451 28.2251 70.6139 28.6492C70.7936 28.7484 70.9758 28.843 71.1606 28.933C71.369 29.0049 71.5693 29.0985 71.758 29.2121C71.911 29.3361 71.8831 29.5793 71.8474 29.7415C71.8266 29.8351 71.7995 29.9272 71.7662 30.0172C71.7467 30.0709 71.7953 29.9528 71.7759 29.9956C71.7566 30.0385 71.7334 30.0851 71.7119 30.1297C71.653 30.2527 71.5938 30.3755 71.5345 30.4982C71.3306 30.9188 71.1246 31.3383 70.9164 31.7566C70.5128 32.5714 70.1067 33.3861 69.7204 34.2086C69.2643 35.1803 68.8387 36.1657 68.4541 37.1676C68.432 37.2501 68.4375 37.3375 68.4699 37.4166C68.5023 37.4956 68.5597 37.562 68.6335 37.6057C69.3865 38.0943 70.1663 38.5447 70.9611 38.9636C71.38 39.1837 71.8046 39.3948 72.2388 39.5843C72.6047 39.7436 73.1084 40.032 73.5194 39.9606C74.081 39.8636 74.2575 39.2406 74.4783 38.7967C74.7516 38.2472 75.0226 37.6964 75.2913 37.1442C75.8343 36.0257 76.3652 34.9014 76.8841 33.7714C77.4096 32.6272 77.9226 31.4776 78.4231 30.3225C78.6279 29.9253 78.7843 29.5053 78.889 29.0713C78.9606 28.6552 78.9672 28.2306 78.9085 27.8125C78.8562 27.3718 78.7056 26.9483 78.4676 26.5728C78.1564 26.1575 77.7972 25.7799 77.3976 25.4476C76.5563 24.6869 75.6756 23.9704 74.7591 23.301C73.747 22.5487 72.7347 21.7951 71.6668 21.1218C70.5512 20.4179 69.3949 19.7799 68.2038 19.211C67.7529 18.9959 67.3563 19.6648 67.8097 19.8811L67.8069 19.8812Z" fill="#726A69"/>
<path d="M57.1398 4.2261C57.2298 3.68732 57.4389 3.17509 57.7522 2.72632C58.0655 2.27756 58.475 1.90345 58.9514 1.63097C60.09 0.944653 61.4197 0.730105 62.7357 0.77026C64.0715 0.779139 65.3794 1.15127 66.5175 1.84629C67.4778 2.46452 67.9907 3.53396 68.2773 4.6036C68.4197 5.08229 68.4842 5.58052 68.4684 6.07944C68.4575 6.25635 68.3954 6.4773 68.1941 6.51959C67.97 6.54621 67.7439 6.55341 67.5184 6.54112C66.4691 6.56556 65.4189 6.558 64.3698 6.5384C62.1082 6.49586 59.8482 6.39951 57.5896 6.24937C56.7615 6.19466 55.9329 6.13492 55.1073 6.04956C54.9614 6.03469 54.8156 6.01839 54.6698 6.00068L54.5817 5.98962C54.5007 5.97953 54.5966 5.99195 54.5763 5.98962C54.4982 5.97837 54.4201 5.96731 54.342 5.95354C54.2389 5.94621 54.1382 5.91935 54.0453 5.87439C53.9933 5.84025 54.0062 5.85131 54.0423 5.80417C54.2147 5.5774 54.5694 5.46896 54.8314 5.3774C55.1528 5.26079 55.4871 5.18265 55.8271 5.14462C55.9298 5.14188 56.0275 5.10012 56.1002 5.02795C56.1728 4.95578 56.2148 4.85868 56.2176 4.75665C56.2169 4.65398 56.1755 4.55571 56.1024 4.4831C56.0293 4.4105 55.9304 4.36939 55.8271 4.36868C55.4308 4.40603 55.0402 4.48863 54.663 4.61485C54.2877 4.71997 53.9346 4.89148 53.6206 5.12115C53.4778 5.22623 53.3683 5.36978 53.305 5.53481C53.2418 5.69983 53.2274 5.87941 53.2637 6.05228C53.3138 6.20503 53.4035 6.34197 53.5238 6.44925C53.6441 6.55654 53.7908 6.63039 53.949 6.66333C54.3002 6.74211 54.6571 6.79335 55.0163 6.81658C55.4199 6.85964 55.8242 6.89417 56.2287 6.92715C58.6136 7.11842 61.0069 7.22919 63.3985 7.29281C64.6136 7.32501 65.8297 7.34344 67.0452 7.32637C67.3095 7.32275 67.5738 7.31693 67.8378 7.30891C68.1339 7.33201 68.4307 7.27503 68.6969 7.14403C69.2687 6.79136 69.2915 6.08331 69.2314 5.48972C69.1035 4.22765 68.6365 2.90604 67.8045 1.93029C67.3356 1.42012 66.7614 1.01649 66.1212 0.746982C65.4569 0.439321 64.752 0.226985 64.0275 0.116337C61.3355 -0.291032 57.804 0.30295 56.643 3.11205C56.5236 3.40416 56.4377 3.70869 56.3868 4.0199C56.3624 4.11908 56.3771 4.22381 56.4279 4.31256C56.4787 4.40132 56.5618 4.46735 56.6602 4.4971C56.7601 4.52354 56.8664 4.50988 56.9563 4.45907C57.0461 4.40826 57.1123 4.32437 57.1404 4.22552L57.1398 4.2261Z" fill="#BADA95"/>
</g>
<defs>
<clipPath id="clip0_1621_24358">
<rect width="47" height="80" fill="white" transform="translate(42)"/>
</clipPath>
</defs>
</svg>
