<svg width="100" height="80" viewBox="0 0 100 80" fill="none" xmlns="http://www.w3.org/2000/svg">
<mask id="mask0_1621_25329" style="mask-type:alpha" maskUnits="userSpaceOnUse" x="0" y="0" width="100" height="80">
<path d="M0 0H100V80H0V0Z" fill="#D9D9D9"/>
</mask>
<g mask="url(#mask0_1621_25329)">
<path d="M32.0598 26.9588C31.9428 26.6519 31.7185 26.3971 31.4279 26.241C31.2854 26.1817 31.1274 26.1646 30.9847 26.1053C30.8633 26.0499 30.7504 25.9777 30.6495 25.8907C30.2489 25.5635 29.4723 24.4723 29.3452 23.9745C29.3452 23.9745 29.3305 23.9163 29.3061 23.8246C29.2606 23.7801 29.2095 23.7295 29.1427 23.6649C28.918 23.4469 28.5586 23.0442 28.4903 22.7386C28.4595 22.6016 28.4651 22.4589 28.5066 22.3246C28.5481 22.1903 28.624 22.0691 28.727 21.9728C28.8299 21.8765 28.9562 21.8085 29.0936 21.7754C29.231 21.7423 29.3747 21.7453 29.5105 21.784C29.4846 21.6567 29.4967 21.5247 29.5452 21.404C29.5938 21.2834 29.6767 21.1795 29.7839 21.1051C29.8987 21.0224 30.0344 20.9732 30.1758 20.9629C30.3171 20.9526 30.4586 20.9817 30.5843 21.0469C30.5525 20.9263 30.561 20.7987 30.6084 20.6832C30.6559 20.5678 30.7398 20.4708 30.8475 20.4068C30.9766 20.3066 31.1334 20.248 31.2969 20.2386C31.4604 20.2291 31.623 20.2694 31.7629 20.354C31.7205 19.9373 31.9009 19.6112 32.3152 19.5344C32.5241 19.5024 32.7377 19.5461 32.9169 19.6575C33.0961 19.7689 33.229 19.9407 33.2914 20.1414L33.3636 20.4729C33.4007 20.4535 33.4378 20.4341 33.4739 20.417C33.9112 20.2081 34.4961 20.1131 34.8796 20.4081C35.0263 20.5388 35.1432 20.6992 35.2224 20.8785C35.5027 21.4083 35.7915 21.9786 35.7274 22.5736C35.6782 23.03 35.4268 23.4362 35.2601 23.8643C35.0933 24.2925 35.0232 24.8158 35.3048 25.1799C35.3048 25.1799 35.907 26.0542 34.3452 26.9452C32.5487 27.9712 32.0598 26.9588 32.0598 26.9588Z" fill="white"/>
<path d="M72.5784 61.8386C72.7724 61.0185 72.3636 60.4032 71.6522 59.8584C70.9135 59.2928 69.7556 59.1004 68.8472 58.891C68.5811 58.8297 68.1738 58.9205 68.0651 59.1694C68.026 59.2694 68.0187 59.379 68.0442 59.4833C68.1594 60.034 67.977 60.8957 67.8657 61.4619C67.7545 62.0282 67.3427 63.0433 66.822 63.2974C66.3683 63.5187 65.9267 63.3903 65.8281 63.8831C66.2248 64.8509 66.3266 65.9131 66.121 66.9379C66.0214 67.3656 65.9541 67.8 65.9197 68.2376C65.887 68.6801 66.0293 69.1178 66.3162 69.4578C66.8421 70.0114 67.6461 69.9181 68.3029 69.5259C69.1099 69.0436 70.0808 67.1445 70.8559 65.1197C71.2899 63.9853 72.3281 62.8964 72.5784 61.8386Z" fill="white"/>
<path d="M35.0496 79.5989C35.9086 79.7325 36.5103 79.2702 37.0165 78.504C37.5417 77.7087 37.6502 76.5174 37.7953 75.5777C37.8376 75.3025 37.7127 74.8955 37.448 74.8043C37.342 74.7724 37.2287 74.7734 37.1233 74.8072C36.5653 74.9671 35.6638 74.8486 35.0734 74.7791C34.483 74.7097 33.4046 74.37 33.1027 73.8606C32.8396 73.4164 32.9378 72.9578 32.4227 72.8955C31.4571 73.3739 30.3713 73.5598 29.3002 73.4303C28.8524 73.3623 28.4 73.3275 27.9469 73.3264C27.4888 73.3274 27.0491 73.5059 26.7213 73.8239C26.192 74.4014 26.3503 75.2115 26.8052 75.8485C27.3642 76.6317 29.3947 77.4714 31.5395 78.1025C32.7396 78.4555 33.9411 79.4262 35.0496 79.5989Z" fill="white"/>
<path d="M65.2527 62.636C65.2 62.7384 65.1463 62.8404 65.0918 62.9419C65.4981 63.0445 65.8985 63.1691 66.2911 63.3152L66.522 63.4034C66.6253 63.3781 66.7256 63.3423 66.8215 63.2967C67.3422 63.0426 67.7538 62.0267 67.8652 61.4612C67.9767 60.8958 68.1581 60.0339 68.0437 59.4826C68.0377 59.4548 68.0336 59.4266 68.0314 59.3982L67.8301 59.2774C67.4758 59.0561 67.1127 58.8496 66.7407 58.658C66.6995 58.8758 66.6562 59.0942 66.5984 59.2981C66.2618 60.4522 65.8111 61.5703 65.2527 62.636Z" fill="white"/>
<path d="M33.4293 72.3196C33.3147 72.6543 33.1025 73.1514 33.022 73.4374C33.022 73.4374 33.0025 73.4903 32.9727 73.5732C33.0066 73.6729 33.0503 73.7691 33.1031 73.8605C33.4049 74.3699 34.4828 74.7097 35.0737 74.779C35.6426 74.8459 36.4989 74.9584 37.0606 74.8238C37.0858 74.7462 37.102 74.6993 37.102 74.6993C37.1984 74.4808 37.3023 74.171 37.3817 73.946C37.3817 73.946 37.4475 73.7604 37.5219 73.5522C36.1255 73.2584 34.7723 72.7898 33.4947 72.1575L33.448 72.2636C33.4422 72.2818 33.4359 72.3005 33.4293 72.3196Z" fill="white"/>
<path d="M43.8531 15.6521C44.0832 16.1374 44.2684 16.6424 44.4064 17.161C44.4064 17.161 45.4849 18.4973 47.2203 18.023C48.9557 17.5487 49.1563 16.1466 49.1563 16.1466C48.1044 14.9085 47.4023 13.4149 47.1221 11.8186C47.462 11.559 47.7386 11.2265 47.9313 10.8459C48.1239 10.4652 48.2277 10.0464 48.2349 9.62038C48.236 9.22639 48.1177 8.78488 47.7706 8.594C47.653 8.53546 47.5233 8.50478 47.3917 8.50437C47.2602 8.50397 47.1303 8.53385 47.0123 8.59167C46.8654 8.66194 46.7338 8.76021 46.625 8.88091L46.275 8.81961C45.7832 8.73328 43.9712 7.34319 43.7659 6.85822L43.7321 6.76123C42.2331 6.68519 40.855 6.59402 39.8193 6.50439C39.8378 7.17093 39.8503 7.63416 39.8503 7.63416C39.874 8.50225 39.9089 9.67663 39.2732 10.2737C38.9974 10.5333 38.586 10.781 38.6419 11.1544C38.6844 11.4388 38.9829 11.5971 39.1916 11.7965C39.362 11.9632 39.4886 12.1689 39.5604 12.3955C39.6172 12.909 39.832 14.0582 40.1975 14.6591C40.4247 15.0736 40.8047 15.3843 41.2577 15.5261C42.0558 15.7662 43.1526 15.7928 43.7702 15.5261" fill="white"/>
<path d="M61.9295 26.5134C61.3066 25.8699 60.6431 25.2663 59.9433 24.7062C59.1842 24.0886 58.3927 23.5016 57.6762 22.9912C56.2213 21.8848 54.6726 20.9056 53.0475 20.0647C52.6233 19.489 52.2239 18.8764 51.6921 18.3903C51.4968 18.2118 51.2128 18.0799 51.0345 17.8083C50.719 17.2229 50.3649 16.419 50.1431 16.2605C50.0064 16.1576 49.8446 16.0928 49.6742 16.0729C49.5039 16.0531 49.3313 16.0788 49.1744 16.1474C47.5831 16.7942 45.9026 17.1984 44.1898 17.3464C44.1646 17.3495 44.1409 17.3599 44.1218 17.3764C44.1026 17.3929 44.0888 17.4147 44.0822 17.439C43.9771 17.844 43.8989 18.2554 43.8479 18.6706C42.8987 18.6993 42.208 19.5416 41.6543 20.3078C40.031 22.553 38.7023 24.3464 36.6744 26.4443C36.2851 26.0272 35.9566 25.558 35.6983 25.0504C34.8847 25.3522 31.9211 26.8825 31.6935 27.1305C31.5164 27.3231 31.5438 27.4408 31.5959 27.5409C32.4164 29.1352 33.3935 30.645 34.5128 32.0484C34.9466 32.6086 35.8175 32.6908 36.0963 32.6519C37.5494 32.4488 39.222 31.5006 40.6899 30.9031C40.9199 32.429 41.3019 33.6557 41.4234 35.1232C41.5796 37.0049 41.3129 38.7156 41.6547 38.9447C43.6939 39.2896 47.5587 39.1884 50.3196 38.7364C51.1278 38.6295 51.9123 38.3891 52.6407 38.025C52.8221 37.9218 52.9778 37.7794 53.0964 37.6084C53.109 37.5886 53.1202 37.568 53.1299 37.5467C54.2582 38.2491 56.1128 39.2062 57.2721 39.5663C57.3653 39.5932 57.465 39.5874 57.5544 39.5498C57.6438 39.5123 57.7175 39.4453 57.7629 39.36C59.4079 36.0998 60.9495 32.7906 62.3877 29.4323C62.6343 28.8544 62.727 27.3561 61.9295 26.5134ZM56.1105 30.2012C55.0809 32.3591 54.1861 34.196 53.3144 36.349C53.4579 33.8156 52.7555 32.3291 53.2906 30.0073C53.4956 29.1174 53.6822 28.7894 53.9739 27.8243C54.2152 27.9691 54.452 28.1116 54.7021 28.2525C55.0737 28.4635 55.457 28.6536 55.8501 28.8218C56.5058 29.1015 56.2075 29.9978 56.1105 30.2012Z" fill="white"/>
<path d="M56.7293 39.9332C56.4405 40.5077 56.1926 41.1017 55.9874 41.7107C55.8413 42.125 55.6482 42.5215 55.4117 42.8924C55.0917 43.422 54.8358 43.6759 54.2547 43.6662C53.7429 43.6575 53.1911 43.7244 52.8448 43.3679C52.3624 43.4517 51.8128 43.3873 51.5327 42.9605C51.1385 43.1064 50.8494 42.9103 50.4716 42.673C50.3475 42.5815 50.2518 42.4572 50.1955 42.3141C50.1532 42.1102 50.1679 41.8986 50.2381 41.7023C50.3434 41.3767 50.5054 41.0721 50.7168 40.8022C49.9929 40.8467 50.2832 39.6168 50.7037 39.0855C50.95 38.8027 51.2415 38.5622 51.5664 38.3735C52.2035 37.9778 52.9834 38.2971 53.6411 37.9363C53.6411 37.9363 54.5624 37.0034 55.7338 37.6502C56.9052 38.2969 56.7293 39.9332 56.7293 39.9332Z" fill="white"/>
<path d="M40.7674 4.12296C41.0134 2.59047 42.0194 1.56623 43.4779 0.925307C44.9365 0.28438 46.8927 0.255477 48.453 0.584281C49.3655 0.775938 50.5453 1.2803 51.2375 1.90105C52.332 2.88009 52.9675 5.04361 52.8542 6.1986C52.8468 6.37473 52.7768 6.54256 52.6567 6.67236C52.5367 6.80216 52.3743 6.88556 52.1983 6.9078C48.15 7.07405 40.2112 6.63215 38.3416 6.3437C37.9764 6.28725 37.6974 6.2273 37.6292 5.88861C37.5914 5.69928 37.8157 5.43546 37.9656 5.34972C38.5395 5.02602 39.1747 4.82416 39.831 4.7569" fill="#E5EFD9"/>
<path d="M58.9816 53.9176C56.5591 52.7515 54.9251 52.2868 54.4985 51.5611C54.0996 50.066 53.5358 48.0028 53.1292 45.829C53.3923 45.55 53.6058 45.2286 53.7605 44.8785C53.9689 44.4966 54.1244 44.0884 54.2228 43.6651C53.7205 43.6597 53.1852 43.7161 52.8467 43.3669C52.364 43.4507 51.8145 43.3863 51.5343 42.9596C51.1401 43.1054 50.851 42.9093 50.4732 42.6721C50.3491 42.5806 50.2534 42.4563 50.1972 42.3132C50.1548 42.1092 50.1696 41.8976 50.2397 41.7014C50.345 41.3758 50.507 41.0711 50.7185 40.8013C49.9945 40.8457 50.2848 39.6159 50.7054 39.0845C50.8887 38.8679 51.1023 38.6784 51.3397 38.522C50.9633 38.6211 50.6072 38.6869 50.319 38.734C47.626 39.1747 43.8827 39.282 41.808 38.9668C41.8617 39.4347 41.9431 39.8991 42.0518 40.3575C42.2066 41.0009 42.4079 41.6324 42.6541 42.2471L42.6797 42.3163C41.0327 45.4922 38.6521 50.7993 38.0332 52.8732C37.6861 53.8646 37.1877 55.3519 36.8985 56.4726C36.5793 57.7092 36.2043 59.0017 35.8316 60.2838C34.7504 64.0037 33.9342 68.1126 32.9648 71.8622C34.4181 72.7365 37.0213 73.5865 38.4096 73.6726C39.1334 72.3433 39.7728 70.9702 40.324 69.5615C41.9944 65.2936 43.3271 60.9027 44.31 56.4287C44.3686 55.9566 44.6944 55.4683 44.9463 55.0637C45.8484 53.9219 46.4013 53.0608 46.9587 52.2509L47.1657 52.4765C47.6567 53.4901 48.5832 55.8675 49.3112 56.7422C49.9081 57.4423 50.9945 58.0481 51.8227 58.4541C54.8847 59.9546 62.1167 62.8725 64.8478 63.3813C65.5899 62.0913 66.1775 60.7194 66.5986 59.2937C66.7025 58.9267 66.7603 58.5123 66.8409 58.1403C64.2342 56.5063 61.9428 55.344 58.9816 53.9176Z" fill="#65B005"/>
<path d="M48.2085 14.801C47.6743 13.8775 47.3069 12.8682 47.1232 11.8189C47.4631 11.5592 47.7397 11.2267 47.9324 10.8461C48.1251 10.4655 48.2288 10.0466 48.236 9.62062C48.2372 9.22664 48.1188 8.78513 47.7717 8.59425C47.6541 8.5357 47.5244 8.50502 47.3929 8.50462C47.2613 8.50421 47.1314 8.53409 47.0135 8.59192C46.8665 8.66223 46.7348 8.76049 46.6259 8.88115L46.2761 8.81985C45.7843 8.73353 43.9724 7.34343 43.767 6.85847C43.767 6.85847 43.7517 6.82122 43.7266 6.76147C46.6312 6.90871 49.9915 6.99872 52.197 6.90813C52.3143 6.90293 52.4275 6.86353 52.5224 6.79484C52.5902 7.26597 52.6209 7.74165 52.614 8.21753C52.573 9.04196 53.0142 11.6317 53.2505 12.4231C53.6917 13.9071 54.4863 15.4706 54.1563 17.0749C53.983 17.9245 53.4697 18.9014 52.2198 18.9565C52.0577 18.7556 51.881 18.5666 51.6914 18.3911C51.4961 18.2126 51.2121 18.0807 51.0338 17.8091C50.7183 17.2237 50.3642 16.4198 50.1424 16.2613C50.0039 16.1571 49.8395 16.0921 49.6668 16.0731C49.4941 16.0541 49.3195 16.0819 49.1614 16.1535C48.803 15.7323 48.4841 15.2797 48.2085 14.801Z" fill="#65B005"/>
<path d="M35.6424 24.9853C35.2375 24.4127 35.8125 23.6577 36.0026 23.1075C36.273 22.3254 36.0222 21.5803 35.6598 20.8748C35.5272 20.5425 35.3064 20.2522 35.021 20.0346C34.7082 19.8554 34.3411 19.7935 33.9863 19.86C33.4084 19.944 32.5598 20.3072 32.4381 20.9475C32.4022 21.1261 32.4196 21.3112 32.4882 21.48C32.5567 21.6489 32.6734 21.7942 32.8239 21.8981C32.9782 21.9774 33.1446 22.0311 33.3165 22.0569C33.3546 22.0712 33.3944 22.08 33.435 22.0833C33.5422 22.0616 33.3881 22.056 33.4155 22.0319C33.4123 22.0346 33.4799 22.3322 33.4828 22.3535C33.5108 22.4525 33.577 22.5365 33.6669 22.5874C33.7569 22.6382 33.8633 22.6518 33.9633 22.6251C34.0618 22.5956 34.1451 22.5296 34.1959 22.4408C34.2468 22.352 34.2614 22.2471 34.2366 22.1479C34.2193 21.9509 34.1594 21.7599 34.0609 21.5881C34.0073 21.5146 33.9386 21.4533 33.8594 21.4082C33.7801 21.363 33.6922 21.3351 33.6013 21.3262C33.469 21.316 33.3394 21.2832 33.2183 21.2292C33.288 21.2814 33.2021 21.2016 33.2032 21.1692C33.2056 21.0975 33.1923 21.1143 33.2228 21.0595C33.3524 20.8195 33.8049 20.682 34.0523 20.6327C34.1965 20.5866 34.3524 20.5929 34.4923 20.6504C34.6323 20.708 34.7471 20.8131 34.8162 20.9469C35.0383 21.3021 35.2055 21.6883 35.3121 22.0928C35.3758 22.4524 35.3201 22.8228 35.1532 23.1481C34.8504 23.8464 34.4664 24.6676 34.9689 25.3789C35.2557 25.7845 35.9331 25.3972 35.6432 24.9875L35.6424 24.9853Z" fill="#726A69"/>
<path d="M33.669 20.0387C33.5781 19.7462 33.3842 19.496 33.1228 19.334C32.8615 19.1719 32.5501 19.1088 32.2457 19.1563C31.9738 19.2073 31.7318 19.36 31.5696 19.5828C31.4074 19.8057 31.3374 20.0819 31.3739 20.3545L31.9613 20.0195C31.7691 19.91 31.5507 19.8544 31.3292 19.8584C31.1077 19.8624 30.8915 19.926 30.7034 20.0424C30.5253 20.1377 30.381 20.2853 30.2902 20.4649C30.1994 20.6446 30.1664 20.8477 30.1958 21.0466L30.7833 20.7116C29.9284 20.325 28.9809 20.925 29.1348 21.887L29.615 21.4098C29.3045 21.328 28.9741 21.3709 28.6952 21.5292C28.4162 21.6875 28.2112 21.9485 28.1243 22.2557C27.9573 22.8876 28.365 23.4249 28.7833 23.855C29.1467 24.2288 29.6283 24.8018 30.1867 24.8194C30.8895 24.8416 31.3645 24.1874 31.2983 23.5293L30.804 23.9033C31.6345 24.1421 32.3797 23.5386 32.4564 22.7182L31.9621 23.0922C32.3486 23.2127 32.8683 23.1981 33.1932 22.9318C33.3643 22.7838 33.4774 22.5805 33.5126 22.3577C33.5477 22.135 33.5026 21.9071 33.3853 21.7141C33.1493 21.273 32.4749 21.6645 32.711 22.1058C32.8927 22.4457 32.3541 22.4014 32.1698 22.344C32.1119 22.3292 32.0513 22.3276 31.9927 22.3394C31.9341 22.3512 31.8789 22.376 31.8313 22.412C31.7838 22.448 31.745 22.4943 31.718 22.5473C31.691 22.6004 31.6765 22.6588 31.6755 22.7182C31.6686 22.7938 31.6446 22.867 31.6055 22.9322C31.5663 22.9974 31.5129 23.053 31.4491 23.095C31.3854 23.1369 31.313 23.1641 31.2373 23.1745C31.1616 23.1849 31.0845 23.1782 31.0117 23.1551C30.9537 23.1397 30.893 23.1378 30.8342 23.1493C30.7754 23.1609 30.72 23.1857 30.6723 23.2218C30.6246 23.2579 30.5858 23.3044 30.559 23.3577C30.5321 23.411 30.5179 23.4697 30.5174 23.5293C30.5412 23.7665 30.4332 24.158 30.1181 24.0101C29.8477 23.8835 29.5879 23.5603 29.3786 23.3506C29.191 23.162 28.8872 22.881 28.8636 22.6008C28.859 22.5326 28.8708 22.4643 28.8981 22.4016C28.9255 22.3389 28.9675 22.2836 29.0207 22.2403C29.074 22.197 29.1368 22.167 29.2041 22.1527C29.2714 22.1385 29.3411 22.1404 29.4075 22.1584C29.4738 22.1748 29.5433 22.1739 29.6092 22.1558C29.6751 22.1376 29.7352 22.1028 29.7835 22.0548C29.8319 22.0068 29.8669 21.9471 29.8852 21.8816C29.9034 21.8161 29.9043 21.7471 29.8878 21.6812C29.8458 21.4189 30.1892 21.2916 30.3893 21.382C30.6222 21.4874 31.0187 21.3708 30.9768 21.047C30.9555 20.8821 30.951 20.7968 31.0982 20.7128C31.1657 20.6639 31.2461 20.6356 31.3295 20.6315C31.4129 20.6275 31.4957 20.6478 31.5677 20.6899C31.6272 20.7233 31.6944 20.7407 31.7628 20.7405C31.8311 20.7402 31.8982 20.7224 31.9575 20.6886C32.0168 20.6548 32.0662 20.6062 32.1009 20.5477C32.1356 20.4892 32.1543 20.4228 32.1554 20.3549C32.1401 20.151 32.1567 19.9588 32.3896 19.9165C32.5024 19.9018 32.6168 19.9267 32.713 19.9869C32.8093 20.0472 32.8813 20.1389 32.9168 20.2463C33.0704 20.7194 33.8248 20.5178 33.6698 20.0399L33.669 20.0387Z" fill="#726A69"/>
<path d="M66.6331 59.0402C66.9734 59.2187 67.3064 59.4095 67.6323 59.6128C67.722 59.6638 67.8282 59.6778 67.9282 59.6518C68.0281 59.6257 68.1137 59.5617 68.1667 59.4736C68.2168 59.3842 68.2302 59.2791 68.204 59.1802C68.1779 59.0812 68.1143 58.9962 68.0265 58.9428C67.7011 58.7395 67.3681 58.5486 67.0273 58.3702C66.9356 58.3197 66.8281 58.3058 66.7265 58.3314C66.6523 58.3516 66.5859 58.3931 66.5354 58.4507C66.485 58.5083 66.4527 58.5795 66.4427 58.6552C66.4328 58.7309 66.4455 58.8079 66.4794 58.8764C66.5133 58.945 66.5668 59.0021 66.6331 59.0406V59.0402Z" fill="#726A69"/>
<path d="M64.986 63.3154C65.3927 63.4178 65.7934 63.5425 66.1863 63.689C66.2365 63.7027 66.289 63.7063 66.3406 63.6996C66.3923 63.693 66.4421 63.6762 66.4871 63.6502C66.5314 63.6245 66.5702 63.5904 66.6012 63.5498C66.6322 63.5092 66.6549 63.4629 66.6679 63.4136C66.681 63.3643 66.6841 63.313 66.6771 63.2625C66.6701 63.2119 66.6532 63.1633 66.6273 63.1193C66.572 63.0354 66.4898 62.9726 66.394 62.941C66.0011 62.7945 65.6003 62.6698 65.1935 62.5674C65.0937 62.5401 64.987 62.5533 64.8969 62.6041C64.8068 62.6549 64.7408 62.7392 64.7133 62.8384C64.6857 62.9376 64.699 63.0436 64.7502 63.1331C64.8013 63.2226 64.8861 63.2881 64.986 63.3154Z" fill="#726A69"/>
<path d="M37.0053 73.843C36.9212 74.0816 36.8419 74.3224 36.7431 74.5557L36.7822 74.463L36.7646 74.5037C36.7364 74.5468 36.7204 74.5966 36.7182 74.6479C36.7065 74.6993 36.709 74.7529 36.7252 74.8031C36.7387 74.8522 36.7619 74.8983 36.7934 74.9386C36.8249 74.9788 36.864 75.0126 36.9086 75.0378C36.9533 75.063 37.0024 75.0792 37.0534 75.0856C37.1043 75.0919 37.156 75.0882 37.2054 75.0746C37.2545 75.062 37.3006 75.0397 37.3408 75.009C37.3811 74.9784 37.4147 74.94 37.4397 74.8962C37.5612 74.6197 37.6584 74.3348 37.7587 74.0502C37.7794 73.9758 37.7772 73.897 37.7526 73.8238C37.7279 73.7507 37.6818 73.6865 37.6203 73.6394C37.5587 73.5924 37.4844 73.5647 37.4069 73.5599C37.3294 73.555 37.2522 73.5732 37.1851 73.6122C37.0999 73.6663 37.0364 73.7483 37.0057 73.844L37.0053 73.843Z" fill="#726A69"/>
<path d="M33.0707 72.1607C32.9409 72.5559 32.7583 72.9339 32.6449 73.3343C32.6313 73.3835 32.6275 73.4348 32.6338 73.4853C32.6402 73.5359 32.6565 73.5847 32.6818 73.6291C32.7071 73.6734 32.741 73.7123 32.7815 73.7436C32.8219 73.7749 32.8682 73.798 32.9176 73.8115C32.9671 73.8251 33.0187 73.8288 33.0696 73.8225C33.1205 73.8162 33.1697 73.8 33.2143 73.7749C33.2588 73.7497 33.298 73.7161 33.3295 73.6758C33.361 73.6356 33.3843 73.5897 33.3979 73.5405C33.5117 73.1403 33.6939 72.7621 33.8237 72.3669C33.8504 72.2676 33.8367 72.1619 33.7856 72.0726C33.7344 71.9833 33.6499 71.9176 33.5504 71.8897C33.4505 71.8647 33.3448 71.879 33.2553 71.9296C33.1658 71.9802 33.0995 72.0632 33.0701 72.1613L33.0707 72.1607Z" fill="#726A69"/>
<path d="M29.2167 22.0504C29.6052 22.6169 30.025 23.1615 30.4741 23.6818C30.5476 23.7542 30.6469 23.7947 30.7503 23.7947C30.8537 23.7947 30.953 23.7542 31.0264 23.6818C31.0973 23.6079 31.1368 23.5097 31.1368 23.4075C31.1368 23.3054 31.0973 23.2072 31.0264 23.1333C30.9093 22.9975 30.7941 22.8592 30.6817 22.7191C30.6556 22.6861 30.6296 22.653 30.6036 22.6198L30.5565 22.5598C30.5483 22.5494 30.5021 22.4902 30.5403 22.5393C30.5786 22.5883 30.5325 22.5292 30.5245 22.5187L30.4788 22.4593C30.4512 22.4234 30.4238 22.3874 30.3966 22.3515C30.224 22.1238 30.0542 21.8937 29.8918 21.6588C29.8659 21.6148 29.8315 21.5763 29.7907 21.5455C29.7498 21.5147 29.7033 21.4922 29.6537 21.4792C29.604 21.4663 29.5524 21.4632 29.5015 21.4702C29.4507 21.4771 29.4018 21.4939 29.3575 21.5196C29.2681 21.5715 29.2031 21.6566 29.1768 21.7562C29.1638 21.8055 29.1607 21.8568 29.1677 21.9073C29.1747 21.9578 29.1916 22.0064 29.2174 22.0504H29.2167Z" fill="#726A69"/>
<path d="M30.3327 21.3384C30.7634 21.8622 31.2267 22.3576 31.6574 22.8808C31.7308 22.9533 31.83 22.994 31.9335 22.994C32.037 22.994 32.1363 22.9533 32.2097 22.8808C32.2803 22.8067 32.3197 22.7085 32.3197 22.6065C32.3197 22.5044 32.2803 22.4063 32.2097 22.3322C31.7788 21.8084 31.3155 21.3128 30.8849 20.7896C30.8115 20.7172 30.7122 20.6765 30.6088 20.6765C30.5054 20.6765 30.4061 20.7172 30.3327 20.7896C30.2621 20.8637 30.2227 20.9619 30.2227 21.064C30.2227 21.1661 30.2621 21.2643 30.3327 21.3384Z" fill="#726A69"/>
<path d="M31.5898 20.6937C31.4611 20.5967 31.5543 20.6667 31.5837 20.6917C31.6082 20.7124 31.6322 20.7336 31.6558 20.7553C31.7067 20.8019 31.7565 20.85 31.8053 20.8989C31.9225 21.0153 32.0339 21.1373 32.1423 21.2618C32.2003 21.3282 32.2571 21.3955 32.3125 21.4638C32.3367 21.4936 32.36 21.5241 32.3844 21.5538C32.2957 21.4451 32.3926 21.5652 32.4135 21.5926C32.4999 21.7055 32.5775 21.8247 32.6458 21.9493C32.6986 22.0376 32.7843 22.1016 32.8843 22.1276C32.9843 22.1537 33.0905 22.1396 33.1801 22.0884C33.2678 22.0349 33.3313 21.9498 33.3574 21.851C33.3834 21.7521 33.3701 21.647 33.3201 21.5577C33.1447 21.2533 32.9351 20.9697 32.6954 20.7123C32.4828 20.4589 32.2447 20.2279 31.9847 20.0229C31.9397 19.9967 31.8899 19.9799 31.8382 19.9732C31.7865 19.9665 31.7339 19.9702 31.6837 19.9841C31.5855 20.0115 31.5016 20.0753 31.4494 20.1623C31.4233 20.2071 31.4065 20.2566 31.3998 20.3079C31.3931 20.3592 31.3967 20.4113 31.4104 20.4613C31.4428 20.5563 31.5059 20.6382 31.5898 20.694V20.6937Z" fill="#726A69"/>
<path d="M28.9671 24.0779C29.0607 24.3739 29.197 24.6549 29.3718 24.912C29.5675 25.2242 29.7849 25.5224 30.0225 25.8044C30.2466 26.0972 30.5414 26.3292 30.8798 26.4787C30.9774 26.5163 31.0766 26.5388 31.1763 26.5667C31.2219 26.5769 31.266 26.5926 31.3077 26.6135C31.3065 26.6135 31.403 26.6759 31.369 26.6496C31.5105 26.7715 31.6207 26.9251 31.6907 27.0977C31.743 27.1865 31.8287 27.2511 31.9289 27.2772C32.029 27.3033 32.1356 27.2888 32.225 27.2368C32.3144 27.1849 32.3794 27.0998 32.4057 27.0003C32.4319 26.9007 32.4173 26.7949 32.3651 26.706C32.2749 26.497 32.1406 26.3096 31.9713 26.1565C31.8021 26.0034 31.6017 25.8882 31.3838 25.8185C31.2101 25.7835 31.0467 25.7094 30.9061 25.602C30.8114 25.5196 30.7231 25.43 30.6422 25.3341C30.5916 25.2759 30.5424 25.2178 30.4942 25.1578C30.4313 25.0802 30.4458 25.0981 30.3802 25.0094C30.278 24.8717 30.1804 24.7307 30.0873 24.5865C30.001 24.4521 29.9186 24.3149 29.8447 24.1729C29.8251 24.1342 29.8056 24.0954 29.7861 24.0566C29.7763 24.0372 29.7408 23.9485 29.7769 24.0399C29.7545 23.985 29.7353 23.9288 29.7193 23.8717C29.5893 23.39 28.8357 23.5943 28.9663 24.0781L28.9671 24.0779Z" fill="#726A69"/>
<path d="M53.3838 44.7763C53.3228 44.9076 53.251 45.0338 53.1691 45.1534C53.0491 45.325 52.9177 45.4885 52.7759 45.6428C52.4114 46.0502 52.0131 46.4257 51.6125 46.797C50.6363 47.7021 49.618 48.5677 48.6856 49.519C47.213 51.0218 46.1755 52.8323 44.905 54.4922C44.5325 54.9789 44.1477 55.5058 43.9806 56.1046C43.8529 56.5624 43.7803 57.0427 43.6723 57.5063C43.438 58.5099 43.1842 59.5085 42.9109 60.5022C42.3057 62.7127 41.6261 64.9042 40.8551 67.0628C40.0723 69.2548 39.2119 71.4432 38.0733 73.4796L38.4105 73.2874C37.5241 73.1973 36.6525 72.9971 35.8162 72.6915C34.8918 72.4016 34.0021 72.0121 33.1629 71.5299L33.3417 71.9685C33.9909 69.4525 34.5437 66.9136 35.1573 64.3891C35.7801 61.825 36.563 59.3081 37.2297 56.756C38.1368 53.2821 39.4928 49.9559 40.9896 46.6973C41.8024 44.927 42.6382 43.159 43.5844 41.4547C43.8273 41.017 43.1532 40.625 42.9101 41.063C42.0745 42.5693 41.3288 44.1262 40.6015 45.6864C39.812 47.3805 39.0498 49.0901 38.3599 50.827C37.7248 52.4251 37.1766 54.0732 36.7004 55.7238C36.3434 56.9622 36.0265 58.2123 35.6683 59.4508C35.3069 60.6995 34.9592 61.9503 34.6435 63.2112C33.9309 66.0545 33.3212 68.9229 32.5887 71.7617C32.5674 71.8442 32.5734 71.9313 32.6057 72.0102C32.638 72.0891 32.6949 72.1556 32.7681 72.1999C33.6667 72.7145 34.619 73.1303 35.6081 73.4399C36.512 73.7637 37.4533 73.9732 38.4099 74.0635C38.4782 74.0642 38.5454 74.0467 38.6047 74.013C38.6639 73.9792 38.7131 73.9304 38.747 73.8715C39.7384 72.033 40.5869 70.1219 41.285 68.155C42.0876 65.9967 42.7902 63.8012 43.4187 61.587C43.7127 60.5513 43.9882 59.5107 44.2453 58.4652C44.3598 57.9954 44.4697 57.5245 44.5748 57.0526C44.624 56.8313 44.6631 56.6064 44.7136 56.3861C44.801 56.0805 44.9376 55.791 45.1182 55.5289C45.4333 55.0158 45.8354 54.5531 46.1861 54.0625C46.4789 53.6552 46.7597 53.2389 47.0418 52.8237C47.5754 52.013 48.1672 51.2415 48.8125 50.5153C49.8142 49.4203 50.955 48.4591 52.0459 47.4542C52.8133 46.7475 53.7463 45.977 54.137 44.9819C54.1637 44.8826 54.15 44.7769 54.0989 44.6876C54.0477 44.5983 53.9632 44.5326 53.8637 44.5047C53.7638 44.4798 53.6582 44.4941 53.5687 44.5447C53.4792 44.5953 53.4132 44.6782 53.3838 44.7763Z" fill="#4F8D00"/>
<path d="M42.3173 23.495C41.9424 24.4124 41.5101 25.3056 41.023 26.1693C40.6067 26.9189 40.1835 27.6473 40.0597 28.5101C39.9359 29.373 40.0817 30.1825 40.2612 31.0253C40.4521 31.9227 40.6795 32.8123 40.842 33.7157C41.0124 34.7023 41.0938 35.7021 41.0854 36.7031C41.0854 37.1289 41.0731 37.5547 41.0782 37.9805C41.0823 38.3246 41.0677 38.7448 41.2447 39.0546C41.4269 39.3735 41.815 39.3621 42.1414 39.4018C42.4839 39.4435 42.8279 39.4717 43.172 39.4922C43.9791 39.5403 44.7889 39.5469 45.5972 39.5295C46.5709 39.5085 47.5429 39.4508 48.5133 39.3562C49.4981 39.2792 50.4753 39.127 51.4365 38.9008C51.9226 38.7754 51.7165 38.0278 51.229 38.1526C49.9507 38.4464 48.6478 38.6218 47.3369 38.6763C46.0529 38.7671 44.7648 38.7857 43.4787 38.732C42.9021 38.7116 42.3272 38.6572 41.757 38.569L41.9292 38.6687C41.9034 38.6478 41.9263 38.6914 41.9073 38.6171C41.8931 38.5579 41.8833 38.4978 41.8779 38.4371C41.8575 38.1809 41.851 37.9237 41.8583 37.6668C41.8611 37.1572 41.8716 36.6478 41.8613 36.1382C41.8295 34.9985 41.6903 33.8642 41.4454 32.7503C41.2307 31.7394 40.9628 30.7381 40.8088 29.7154C40.7027 28.8238 40.8967 27.9225 41.3605 27.1521C42.0117 26.0426 42.583 24.8887 43.0701 23.6991C43.097 23.5998 43.0833 23.4941 43.0321 23.4047C42.981 23.3154 42.8964 23.2497 42.7968 23.2219C42.697 23.197 42.5913 23.2113 42.5018 23.2619C42.4124 23.3125 42.346 23.3955 42.3165 23.4935L42.3173 23.495Z" fill="#726A69"/>
<path d="M53.7172 36.0443C53.7563 34.6915 53.5036 33.3631 53.4781 32.0145C53.4625 31.3438 53.5328 30.6739 53.6873 30.0209C53.8422 29.3753 54.0874 28.76 54.289 28.1282C54.4413 27.651 53.6875 27.4469 53.536 27.9218C53.3344 28.5532 53.0895 29.1691 52.9343 29.8145C52.7672 30.5104 52.6872 31.2241 52.696 31.9394C52.7126 33.313 52.9757 34.6667 52.9363 36.0443C52.922 36.5439 53.703 36.5435 53.7172 36.0443Z" fill="#726A69"/>
<path d="M52.5797 38.488C52.6701 38.4469 52.7595 38.4031 52.846 38.3542C52.9474 38.2945 53.0428 38.2253 53.1308 38.1474C53.1995 38.0888 53.2624 38.0239 53.3186 37.9534C53.3635 37.9005 53.4047 37.8447 53.4418 37.7862C53.4779 37.7204 53.5075 37.6514 53.5303 37.58C53.551 37.5056 53.5489 37.4267 53.5242 37.3535C53.4996 37.2803 53.4535 37.2161 53.3919 37.169C53.3303 37.122 53.256 37.0942 53.1785 37.0894C53.1009 37.0845 53.0237 37.1028 52.9567 37.1418C52.8713 37.1956 52.8077 37.2777 52.7773 37.3736C52.77 37.3943 52.7624 37.4147 52.754 37.4349L52.7931 37.3423C52.7696 37.3927 52.7401 37.44 52.705 37.4832L52.7661 37.4056C52.6944 37.4953 52.6122 37.5763 52.5213 37.6467L52.6004 37.586C52.4713 37.679 52.332 37.7571 52.1851 37.8188C52.0973 37.8699 52.0329 37.9531 52.0057 38.0506C51.9786 38.1515 51.9926 38.259 52.0448 38.3497C52.0967 38.437 52.1807 38.5009 52.279 38.528L52.3827 38.5418C52.452 38.5419 52.5201 38.5236 52.5799 38.4888L52.5797 38.488Z" fill="#726A69"/>
<path d="M40.2942 30.6497C39.0156 31.1928 37.7724 31.8962 36.4058 32.2015C36.0093 32.3107 35.5868 32.2781 35.212 32.1094C34.9799 31.9844 34.7834 31.8031 34.6409 31.5823C34.4244 31.2989 34.2116 31.0127 34.0025 30.724C33.6281 30.2043 33.2698 29.6731 32.9337 29.128C32.7602 28.8464 32.5923 28.5613 32.43 28.2728C32.3455 28.1225 32.2625 27.9714 32.1809 27.8194C32.1388 27.7418 32.0973 27.6637 32.0563 27.5851C32.0286 27.5321 32.0009 27.4789 31.9733 27.4256C31.9288 27.3369 31.9185 27.3175 31.9425 27.3674C31.7408 27.3636 31.9909 27.5015 31.955 27.4241C31.9569 27.4283 31.979 27.3853 31.9856 27.3884C31.9823 27.3866 32.1174 27.2957 31.9569 27.4091C31.9743 27.3967 31.9913 27.3837 32.0092 27.3723C32.1264 27.2984 32.2435 27.2247 32.363 27.155C32.7187 26.9484 33.0822 26.7543 33.4467 26.5632C33.8961 26.3273 34.3491 26.0983 34.8055 25.8761C35.0086 25.7775 35.2122 25.6804 35.4178 25.5872C35.5011 25.5495 35.5847 25.5125 35.6686 25.4763C35.7742 25.4313 35.5989 25.5034 35.6973 25.4646C35.7321 25.4511 35.7666 25.4373 35.8016 25.4241L35.3608 25.2458C35.6256 25.7881 35.9755 26.2851 36.3974 26.7182C36.4711 26.79 36.5703 26.8302 36.6735 26.8302C36.7767 26.8302 36.8758 26.79 36.9495 26.7182C37.9521 25.678 38.9006 24.5878 39.7915 23.4517C40.223 22.9019 40.6454 22.3454 41.0587 21.782C41.4658 21.2299 41.8486 20.6546 42.2791 20.1202C42.6725 19.6319 43.1756 19.0932 43.8464 19.0581C44.3464 19.0319 44.3495 18.2558 43.8464 18.2822C42.4017 18.3578 41.5911 19.737 40.8321 20.7793C39.9834 21.9446 39.1174 23.0972 38.1844 24.1977C37.6105 24.8743 37.0149 25.5316 36.3974 26.1694H36.9495C36.576 25.7823 36.2672 25.3382 36.0349 24.8542C35.9915 24.7803 35.9247 24.7228 35.845 24.6906C35.7652 24.6583 35.677 24.6532 35.5941 24.6759C34.7748 25.0076 33.9763 25.3879 33.2029 25.8146C32.7929 26.028 32.3855 26.2439 31.9862 26.4751C31.7129 26.6334 31.4079 26.7898 31.2533 27.078C31.0776 27.4058 31.226 27.6794 31.3822 27.9764C31.5618 28.3188 31.7488 28.6573 31.9433 28.9919C32.3081 29.6182 32.7017 30.2276 33.1187 30.8208C33.3291 31.1196 33.5443 31.415 33.7646 31.7069C33.9579 32.0063 34.1849 32.2829 34.4412 32.5313C34.8823 32.8833 35.4359 33.0664 36.0013 33.0471C36.7592 33.0173 37.5342 32.6968 38.2246 32.4114C39.0549 32.0681 39.861 31.6708 40.6878 31.3199C40.7767 31.2675 40.8413 31.1825 40.8676 31.0831C40.8938 30.9838 40.8796 30.8781 40.828 30.7891C40.7739 30.7024 40.6884 30.6395 40.5891 30.6136C40.4898 30.5876 40.3842 30.6005 40.2942 30.6497Z" fill="#726A69"/>
<path d="M43.5166 15.8485C43.5427 15.9015 43.5682 15.9549 43.5934 16.0086C43.6047 16.0334 43.616 16.0582 43.6269 16.0832C43.6316 16.0941 43.6365 16.105 43.6412 16.116C43.6576 16.1548 43.6539 16.1455 43.6305 16.0902C43.6504 16.1545 43.6756 16.217 43.7058 16.2772C43.7281 16.3346 43.7497 16.3923 43.7706 16.4501C43.8682 16.718 43.9534 16.9901 44.0305 17.2648C44.058 17.364 44.1241 17.4483 44.2142 17.4991C44.3043 17.5499 44.411 17.5631 44.5108 17.5357C44.6107 17.5083 44.6955 17.4427 44.7467 17.3532C44.7978 17.2636 44.811 17.1576 44.7835 17.0584C44.6371 16.5073 44.4387 15.9712 44.191 15.4571C44.1383 15.3687 44.0527 15.3045 43.9527 15.2784C43.8527 15.2523 43.7464 15.2665 43.6568 15.3178C43.5693 15.3715 43.506 15.4565 43.4799 15.5553C43.4538 15.6541 43.467 15.7591 43.5166 15.8485Z" fill="#726A69"/>
<path d="M46.782 9.31123C46.952 9.05905 47.3404 8.73257 47.6293 8.96206C47.8786 9.15992 47.8737 9.61132 47.8273 9.92733C47.767 10.311 47.6166 10.6752 47.3883 10.9903C47.16 11.3055 46.8602 11.5627 46.5132 11.7413C46.0665 11.9708 46.461 12.6406 46.9073 12.4113C47.4193 12.1416 47.8491 11.7403 48.1517 11.2492C48.4543 10.7582 48.6187 10.1954 48.6277 9.61967C48.6277 9.0445 48.4042 8.41929 47.8273 8.19426C47.1391 7.92618 46.4802 8.36613 46.1083 8.91957C46.0596 9.00814 46.0476 9.11205 46.0748 9.20926C46.102 9.30647 46.1662 9.38933 46.2538 9.44028C46.3415 9.49123 46.4456 9.50625 46.5442 9.48216C46.6429 9.45807 46.7281 9.39675 46.782 9.31123Z" fill="#726A69"/>
<path d="M46.8287 52.6763C47.462 53.991 47.9365 55.4102 48.7476 56.6336C49.5899 57.9032 51.1304 58.575 52.4732 59.1962C55.2093 60.4621 58.0209 61.5948 60.8638 62.601C62.1297 63.0489 63.4213 63.511 64.7444 63.7612C64.8274 63.7818 64.9148 63.7756 64.9941 63.7436C65.0733 63.7115 65.1402 63.6553 65.1852 63.5829C65.6694 62.7253 66.0948 61.8363 66.4587 60.9218C66.6344 60.4786 66.7906 60.0284 66.9272 59.5715C67.0559 59.1368 67.125 58.6916 67.2185 58.2489C67.239 58.1664 67.2326 58.0796 67.2004 58.001C67.1682 57.9223 67.1117 57.8558 67.0391 57.8109C64.6618 56.349 62.2052 55.0183 59.6805 53.8251C58.5019 53.2546 57.2928 52.7559 56.1078 52.2016C55.9106 52.1095 55.7148 52.0141 55.5245 51.9087C55.4425 51.8635 55.3614 51.8166 55.2824 51.7665C55.2461 51.7434 55.2097 51.7198 55.1742 51.6953C55.1625 51.6874 55.0465 51.5997 55.0924 51.6371C55.0359 51.5919 54.9824 51.5431 54.9321 51.4911C54.9091 51.4668 54.8866 51.4422 54.8657 51.4162C54.9228 51.4872 54.856 51.4051 54.8525 51.3921C54.789 51.1576 54.7223 50.8837 54.6559 50.6342C54.2352 49.0519 53.8386 47.463 53.5306 45.8548C53.4367 45.3648 52.6839 45.5722 52.7776 46.061C53.0591 47.5309 53.4136 48.9852 53.7947 50.4323C53.874 50.7327 53.9538 51.0329 54.0343 51.333C54.0777 51.5677 54.1771 51.7886 54.324 51.9774C54.5791 52.2471 54.8823 52.4673 55.2183 52.6271C56.2989 53.2028 57.4623 53.6259 58.5689 54.15C59.898 54.7797 61.2153 55.4345 62.5209 56.1145C63.9255 56.8517 65.3003 57.6405 66.6453 58.4811L66.4659 58.0429C66.3722 58.4856 66.3033 58.9306 66.1746 59.3653C66.0479 59.7932 65.9013 60.2155 65.7398 60.6316C65.3911 61.5126 64.9809 62.3682 64.512 63.1922L64.9531 63.014C63.8328 62.7737 62.7313 62.4534 61.6574 62.0557C60.2109 61.5591 58.7813 61.014 57.3623 60.4456C56.0213 59.9087 54.6877 59.35 53.3722 58.7552C52.8322 58.5112 52.2928 58.2639 51.7651 57.9946C50.9906 57.5995 50.1523 57.1475 49.5881 56.4709C49.1289 55.9201 48.7968 55.1374 48.4876 54.4687C48.1524 53.7438 47.8504 53.0034 47.5036 52.2837C47.2867 51.8336 46.6132 52.2267 46.8293 52.6754L46.8287 52.6763Z" fill="#4F8D00"/>
<path d="M39.4604 7.6342C39.4799 8.33779 39.5689 9.26562 39.1181 9.86697C38.8936 10.1667 38.5348 10.3325 38.3538 10.6736C38.1246 11.1054 38.3069 11.5494 38.655 11.8495C38.8178 11.9668 38.9603 12.1095 39.0769 12.2722C39.162 12.4308 39.2117 12.6058 39.2226 12.7853C39.2799 13.1622 39.3622 13.535 39.4688 13.9013C39.7112 14.724 40.146 15.5059 40.9843 15.8411C41.4592 16.0121 41.9601 16.1007 42.4651 16.103C42.9437 16.1336 43.4235 16.0649 43.8739 15.9015C43.9721 15.8715 44.0551 15.8054 44.1059 15.7166C44.1567 15.6279 44.1715 15.5233 44.1472 15.4241C44.1194 15.325 44.0533 15.241 43.9633 15.1901C43.8734 15.1392 43.7669 15.1257 43.667 15.1525C42.9641 15.44 42.0749 15.3723 41.3623 15.1525C40.6532 14.9337 40.3625 14.2118 40.1845 13.5604C39.9904 12.8503 40.0336 12.0668 39.4689 11.5221C39.3481 11.4057 39.1497 11.3061 39.0623 11.1616C39.0012 11.0608 39.0555 11.0047 39.133 10.9222C39.3883 10.6507 39.688 10.4606 39.8764 10.1269C40.2973 9.38162 40.2645 8.46058 40.2421 7.63401C40.2286 7.13566 39.4477 7.13372 39.4611 7.63401L39.4604 7.6342Z" fill="#726A69"/>
<path d="M53.4453 37.6019C53.0788 37.7936 52.6577 37.7344 52.2508 37.7765C52.0018 37.7968 51.7577 37.8575 51.5285 37.9563C51.3121 38.0634 51.109 38.1952 50.9233 38.349C50.6156 38.5707 50.3624 38.8588 50.1826 39.1915C50.0028 39.5242 49.901 39.8931 49.8848 40.2704C49.8804 40.6648 50.0635 41.0725 50.4819 41.1697C50.5313 41.1832 50.5829 41.187 50.6338 41.1807C50.6847 41.1744 50.7339 41.1582 50.7785 41.133C50.8231 41.1079 50.8622 41.0742 50.8938 41.034C50.9253 40.9938 50.9485 40.9478 50.9621 40.8987C50.9758 40.8496 50.9795 40.7983 50.9732 40.7477C50.9668 40.6971 50.9505 40.6483 50.9252 40.604C50.8999 40.5597 50.866 40.5207 50.8256 40.4894C50.7851 40.4581 50.7388 40.435 50.6894 40.4215C50.5812 40.3965 50.7183 40.4409 50.663 40.4147C50.7085 40.4535 50.7161 40.458 50.6855 40.4306C50.6578 40.4004 50.6628 40.4077 50.7005 40.4531C50.6855 40.4132 50.6824 40.3827 50.6943 40.4552C50.6888 40.4211 50.6747 40.3833 50.6658 40.3493C50.6917 40.4512 50.6658 40.3313 50.6658 40.3022C50.6658 40.2698 50.6658 40.2372 50.6681 40.2052C50.6697 40.1827 50.6716 40.1602 50.674 40.1379C50.6672 40.1837 50.6672 40.1837 50.674 40.1379C50.681 40.1026 50.6872 40.0671 50.6952 40.032C50.7174 39.9353 50.7458 39.8402 50.7802 39.7472C50.7813 39.7443 50.8257 39.6335 50.7966 39.7012C50.8161 39.6564 50.8372 39.6124 50.8594 39.5689C50.8962 39.4969 50.9376 39.4273 50.9832 39.3604C50.9955 39.3426 51.008 39.3251 51.0211 39.3078C50.9975 39.3393 51.0025 39.3344 51.0357 39.2937C51.0734 39.2549 51.1091 39.2139 51.148 39.1759C51.4488 38.8436 51.8542 38.6225 52.2979 38.549C52.8309 38.502 53.349 38.5296 53.8375 38.2731C53.8817 38.2474 53.9205 38.2133 53.9515 38.1727C53.9825 38.1321 54.0051 38.0858 54.0182 38.0365C54.0312 37.9872 54.0343 37.9359 54.0273 37.8854C54.0203 37.8349 54.0034 37.7863 53.9775 37.7423C53.9517 37.6983 53.9173 37.6598 53.8765 37.629C53.8356 37.5982 53.789 37.5757 53.7394 37.5627C53.6898 37.5498 53.6381 37.5467 53.5873 37.5536C53.5365 37.5606 53.4876 37.5774 53.4433 37.6031L53.4453 37.6019Z" fill="#726A69"/>
<path d="M51.3384 39.7596C50.9905 39.9909 50.6749 40.2669 50.3997 40.5804C50.1557 40.8945 49.9705 41.2497 49.8531 41.629C49.7661 41.856 49.7518 42.1041 49.8121 42.3395C49.8724 42.5748 50.0044 42.7859 50.1901 42.9439C50.5946 43.2696 51.1201 43.5 51.6377 43.3351L51.1969 43.1569C51.6127 43.7402 52.2765 43.8488 52.9498 43.7421L52.5699 43.6422C53.0318 44.0799 53.6585 44.0591 54.2559 44.0542C54.5087 44.0599 54.7589 44.0028 54.9839 43.8882C55.2089 43.7735 55.4016 43.6049 55.5444 43.3976C56.2767 42.4157 56.5011 41.1953 57.0672 40.129C57.3015 39.6878 56.628 39.2948 56.3929 39.7373C56.0913 40.3304 55.834 40.9447 55.6231 41.5753C55.5201 41.8668 55.3917 42.1489 55.2393 42.4182C55.1178 42.6768 54.9555 42.9144 54.7584 43.122C54.6834 43.182 54.597 43.2267 54.5044 43.2533C54.4118 43.28 54.3148 43.2881 54.219 43.2771C53.9302 43.3015 53.6393 43.2846 53.3553 43.2271C53.2103 43.1833 53.131 43.069 52.9963 43.0125C52.8361 42.98 52.671 42.9794 52.5106 43.0108C52.3918 43.0238 52.2717 43.0082 52.1604 42.9653C52.049 42.9224 51.9497 42.8535 51.8708 42.7644C51.8259 42.692 51.759 42.6357 51.6797 42.6036C51.6005 42.5715 51.513 42.5654 51.43 42.5862C51.2813 42.6122 51.1283 42.5984 50.9867 42.5462C50.8452 42.4939 50.7203 42.405 50.6248 42.2888C50.4624 42.0948 50.6217 41.7716 50.7078 41.5747C50.9269 41.0731 51.296 40.7493 51.7324 40.4302C51.8195 40.3763 51.8826 40.2912 51.9086 40.1925C51.9347 40.0938 51.9218 39.989 51.8725 39.8995C51.8198 39.8112 51.7342 39.7471 51.6342 39.7211C51.5343 39.695 51.428 39.7091 51.3384 39.7602V39.7596Z" fill="#726A69"/>
<path d="M43.4304 7.05402C43.5178 7.22056 43.6326 7.37138 43.7701 7.50018C43.9355 7.67072 44.1101 7.83222 44.2931 7.98398C44.7008 8.33601 45.1371 8.65393 45.5975 8.93451C45.7732 9.05276 45.9677 9.14071 46.1728 9.19464C46.2727 9.22199 46.3794 9.2088 46.4694 9.15797C46.5595 9.10715 46.6256 9.02286 46.6531 8.92364C46.6806 8.82443 46.6673 8.71841 46.6162 8.62892C46.565 8.53942 46.4802 8.47379 46.3803 8.44644C46.3539 8.44126 46.3278 8.43433 46.3023 8.42568C46.2882 8.42103 46.2743 8.41521 46.2605 8.41036C46.1904 8.3865 46.3376 8.4476 46.2851 8.42064C46.207 8.38068 46.1289 8.34305 46.052 8.29959C45.8546 8.18669 45.6654 8.05963 45.4803 7.92792C45.3762 7.85382 45.2733 7.7779 45.1717 7.70018C45.2336 7.74751 45.1688 7.69746 45.1443 7.67826C45.1199 7.65906 45.0973 7.64121 45.0739 7.62259C45.0236 7.58263 44.9737 7.54215 44.9241 7.50115C44.7391 7.3481 44.5577 7.18922 44.388 7.0191C44.3142 6.9448 44.2463 6.86682 44.1772 6.78826C44.1381 6.74325 44.2316 6.86585 44.1893 6.80339C44.1787 6.78787 44.1672 6.77293 44.1571 6.75722C44.1372 6.7274 44.1198 6.69599 44.1051 6.66333C44.0523 6.57504 43.9667 6.51096 43.8667 6.48493C43.7667 6.4589 43.6604 6.47302 43.5708 6.52424C43.4833 6.57792 43.42 6.66297 43.3939 6.76179C43.3679 6.8606 43.3811 6.96559 43.4308 7.05499L43.4304 7.05402Z" fill="#4F8D00"/>
<path d="M39.801 13.4373C40.0976 13.462 40.3961 13.4283 40.6795 13.338C40.8772 13.2775 41.0589 13.1743 41.2115 13.0357C41.2478 12.9997 41.2766 12.9569 41.2962 12.9098C41.3158 12.8628 41.3259 12.8123 41.3259 12.7613C41.3259 12.7104 41.3158 12.6599 41.2962 12.6128C41.2766 12.5658 41.2478 12.523 41.2115 12.4869C41.1753 12.4509 41.1322 12.4223 41.0848 12.4028C41.0375 12.3833 40.9867 12.3733 40.9354 12.3733C40.8841 12.3733 40.8333 12.3833 40.7859 12.4028C40.7386 12.4223 40.6955 12.4509 40.6592 12.4869C40.6432 12.5025 40.6262 12.5173 40.6085 12.531L40.6866 12.4703C40.6194 12.52 40.5464 12.5614 40.4691 12.5934L40.5624 12.5546C40.432 12.6078 40.2953 12.6439 40.1555 12.6619L40.2594 12.6481C40.1073 12.6678 39.9536 12.6722 39.8006 12.6611C39.6971 12.6611 39.5977 12.702 39.5245 12.7748C39.4513 12.8475 39.4102 12.9462 39.4102 13.0491C39.4126 13.1513 39.4545 13.2485 39.5272 13.3208C39.5999 13.393 39.6978 13.4347 39.8006 13.4371L39.801 13.4373Z" fill="#726A69"/>
<path d="M40.8266 9.02428C40.7442 9.30284 40.7965 9.94319 41.3002 9.99673C41.9661 9.99149 42.003 9.21729 41.7793 8.85357C41.5962 8.55581 41.0564 8.43282 40.8266 9.02428Z" fill="#726A69"/>
<path d="M72.9539 61.9418C73.1837 60.8818 72.5894 60.0234 71.7345 59.4413C71.2827 59.1573 70.787 58.949 70.2672 58.8248C69.785 58.675 69.2914 58.564 68.7912 58.4929C68.2918 58.4407 67.7089 58.6999 67.6495 59.2448C67.6509 59.4669 67.664 59.6888 67.6886 59.9096C67.6848 60.1632 67.6609 60.4162 67.6171 60.6661C67.5578 61.1092 67.4538 61.5452 67.3067 61.9676C67.1837 62.2909 67.0031 62.7047 66.7091 62.9121C66.3608 63.1571 65.8966 63.0514 65.6113 63.4261C65.5288 63.5265 65.476 63.6478 65.4591 63.7764C65.4421 63.9049 65.4616 64.0356 65.5153 64.1538C65.6261 64.4519 65.7101 64.7592 65.7663 65.0721C65.8591 65.6412 65.8539 66.2217 65.7509 66.7891C65.6533 67.3621 65.4809 67.9431 65.5387 68.5299C65.552 68.7864 65.6173 69.0377 65.7308 69.2686C65.8442 69.4994 66.0035 69.7051 66.199 69.8732C66.4056 70.0301 66.6447 70.1396 66.8989 70.1939C67.1532 70.2482 67.4164 70.2459 67.6696 70.1873C68.5769 70.0115 69.1551 69.3425 69.6253 68.6036C70.3255 67.5021 70.7634 66.2905 71.2798 65.1018C71.7548 64.0085 72.6576 63.115 72.9531 61.9414C73.0752 61.4564 72.3224 61.2502 72.2001 61.735C71.9436 62.7536 71.1695 63.5728 70.7057 64.4991C70.445 65.0195 70.2644 65.5784 70.0319 66.1115C69.806 66.6292 69.5634 67.1396 69.29 67.6356C68.9045 68.3351 68.4615 69.1462 67.6665 69.3879C67.2671 69.5093 66.8143 69.4806 66.5416 69.1272C66.2417 68.7392 66.2835 68.1827 66.3626 67.7305C66.512 67.0709 66.5947 66.3981 66.6095 65.7221C66.5892 65.0558 66.4518 64.3982 66.2037 63.7788V63.985C66.2322 63.8706 66.2542 63.8713 66.3743 63.8387C66.5388 63.8016 66.7011 63.7553 66.8604 63.6999C67.1917 63.5553 67.4689 63.311 67.653 63.0015C68.0186 62.3954 68.2543 61.7208 68.3455 61.0199C68.4287 60.6196 68.4701 60.2118 68.4691 59.8031C68.4652 59.702 68.4555 59.6012 68.44 59.5012C68.4332 59.4547 68.3963 59.3594 68.4234 59.3193C68.4683 59.2529 68.6653 59.2533 68.7332 59.2611C69.1054 59.3217 69.4732 59.406 69.8345 59.5133C70.2362 59.603 70.6267 59.7365 70.9989 59.9113C71.6804 60.2551 72.3799 60.9088 72.2009 61.7348C72.0955 62.2223 72.8481 62.4304 72.9539 61.9418Z" fill="#726A69"/>
<path d="M34.946 79.9728C35.433 80.059 35.935 79.9708 36.3628 79.7239C36.7861 79.4476 37.1384 79.0767 37.3917 78.6409C37.9393 77.7563 38.0795 76.5922 38.1861 75.5777C38.2362 75.1001 37.9869 74.5158 37.4725 74.4113C37.2187 74.3598 36.9872 74.4619 36.739 74.4857C36.479 74.5057 36.2179 74.5044 35.9581 74.4821C35.5267 74.4634 35.0981 74.405 34.6776 74.3075C34.2612 74.2278 33.8708 74.0479 33.5406 73.7837C33.2503 73.5075 33.2934 73.0398 33.0031 72.7527C32.9156 72.6634 32.8081 72.596 32.6893 72.5559C32.5705 72.5158 32.4439 72.5042 32.3198 72.522C32.1833 72.5734 32.05 72.6328 31.9205 72.6999C31.7644 72.7639 31.6041 72.8194 31.4426 72.8677C30.8897 73.0295 30.3136 73.0988 29.7379 73.073C29.1167 73.0493 28.4956 72.8935 27.8725 72.9438C27.3238 72.9601 26.803 73.1877 26.4201 73.5785C26.2465 73.7796 26.1216 74.0176 26.0551 74.2742C25.9885 74.5308 25.9822 74.7992 26.0365 75.0586C26.2122 76.0145 26.9359 76.6126 27.7479 77.0531C28.9343 77.6972 30.2299 78.0912 31.511 78.4989C32.6989 78.877 33.6995 79.7598 34.947 79.9732C35.0468 79.9975 35.1522 79.9829 35.2415 79.9324C35.3309 79.8819 35.3973 79.7993 35.4273 79.7016C35.4539 79.6023 35.4402 79.4966 35.3891 79.4073C35.3379 79.318 35.2535 79.2523 35.1539 79.2244C34.0778 79.0413 33.1626 78.3286 32.1689 77.9175C31.5957 77.6803 30.9856 77.534 30.3989 77.3325C29.8494 77.1435 29.3041 76.9391 28.7756 76.6974C28.0232 76.3532 27.1692 75.9525 26.8764 75.1711C26.7153 74.7412 26.7475 74.2553 27.1446 73.9643C27.5874 73.64 28.2018 73.6939 28.7149 73.7509C29.3719 73.848 30.0382 73.8672 30.6998 73.8082C31.3676 73.7219 32.0165 73.5268 32.6203 73.2305L32.3194 73.2693C32.4404 73.2887 32.4545 73.2828 32.5002 73.3872C32.5783 73.5655 32.6183 73.7573 32.7024 73.9348C32.8645 74.242 33.1183 74.4917 33.4291 74.6495C34.0843 75.018 34.8088 75.1436 35.5466 75.221C35.9647 75.2764 36.3876 75.2876 36.8081 75.2543C36.9083 75.2436 37.009 75.2307 37.1078 75.2103C37.15 75.2014 37.2661 75.147 37.303 75.1612C37.4018 75.2 37.4159 75.4056 37.4129 75.491C37.3826 75.8811 37.3247 76.2687 37.2398 76.6508C37.1756 77.0767 37.063 77.4939 36.9044 77.8946C36.6106 78.5763 35.9829 79.3383 35.1543 79.2242C35.0545 79.2004 34.9494 79.2152 34.8602 79.2656C34.7709 79.3161 34.7044 79.3984 34.6741 79.4958C34.6473 79.5949 34.6607 79.7004 34.7116 79.7897C34.7625 79.879 34.8467 79.9447 34.946 79.9728Z" fill="#726A69"/>
<path d="M41.6746 40.4634C41.8236 41.1084 42.0249 41.7403 42.2767 42.353C42.3042 42.4522 42.3703 42.5365 42.4603 42.5873C42.5504 42.6382 42.6571 42.6513 42.757 42.624C42.8568 42.5967 42.9416 42.531 42.9928 42.4415C43.0439 42.352 43.0572 42.246 43.0297 42.1468C42.778 41.5341 42.5766 40.9022 42.4276 40.2572C42.3997 40.1582 42.3336 40.0741 42.2437 40.0232C42.1538 39.9724 42.0473 39.9589 41.9473 39.9856C41.8488 40.015 41.7654 40.081 41.7145 40.1698C41.6636 40.2587 41.6491 40.3636 41.674 40.4628L41.6746 40.4634Z" fill="#4F8D00"/>
<path d="M52.125 19.3458C52.5435 19.3482 52.9548 19.2386 53.3159 19.0285C53.677 18.8184 53.9746 18.5156 54.1773 18.1518C54.6314 17.3425 54.6911 16.3802 54.5587 15.4803C54.3977 14.3862 53.9362 13.3744 53.6281 12.3195C53.4591 11.6931 53.3282 11.0571 53.2359 10.4151C53.0853 9.69188 53.0081 8.95545 53.0055 8.2169C53.0262 7.71758 52.2453 7.71855 52.2246 8.2169C52.2248 8.83633 52.2823 9.45444 52.3962 10.0634C52.4965 10.7519 52.6139 11.4407 52.7704 12.1197C53.1609 13.8089 54.2468 15.5249 53.6966 17.3028C53.466 18.0471 52.9323 18.5544 52.125 18.5708C51.6233 18.5811 51.6215 19.3561 52.125 19.3458Z" fill="#4F8D00"/>
<path d="M46.773 12.066C47.0925 13.672 47.8181 15.1707 48.8815 16.4211C48.9551 16.4932 49.0543 16.5335 49.1576 16.5335C49.2609 16.5335 49.36 16.4932 49.4336 16.4211C49.5049 16.3473 49.5447 16.249 49.5447 16.1468C49.5447 16.0445 49.5049 15.9462 49.4336 15.8724C48.4653 14.7172 47.8088 13.3363 47.5256 11.8596C47.4974 11.7608 47.4312 11.677 47.3414 11.6262C47.2516 11.5755 47.1453 11.5617 47.0454 11.588C46.9465 11.617 46.8629 11.683 46.8119 11.772C46.761 11.861 46.7467 11.9662 46.772 12.0654L46.773 12.066Z" fill="#726A69"/>
<path d="M44.2047 18.9695C44.2329 18.6694 44.2819 18.3718 44.3375 18.0758C44.3609 17.9511 44.3851 17.8262 44.4144 17.7026C44.4224 17.6683 44.4339 17.6337 44.4402 17.599C44.4556 17.509 44.4529 17.6039 44.4179 17.6341L44.2457 17.7338C44.4218 17.7005 44.6003 17.6815 44.7795 17.677C44.9747 17.6545 45.17 17.6286 45.3652 17.5994C45.7012 17.5497 46.0353 17.4888 46.3673 17.4165C47.0147 17.2738 47.6534 17.0951 48.2806 16.8811C48.5683 16.7838 48.8542 16.6814 49.1382 16.5738C49.3908 16.4785 49.6848 16.3686 49.917 16.5773C50.0534 16.7463 50.1656 16.9333 50.2504 17.1329C50.4017 17.4219 50.5433 17.7148 50.6977 18.0033C50.9335 18.4444 51.6079 18.0527 51.372 17.6116C51.2069 17.3026 51.0552 16.987 50.8912 16.6776C50.7786 16.4255 50.6232 16.1945 50.4318 15.9948C49.7737 15.4074 48.9902 15.8143 48.2903 16.0584C47.5932 16.3046 46.8817 16.5083 46.1596 16.6683C45.7617 16.7546 45.3601 16.8269 44.9564 16.8793C44.7475 16.9065 44.5378 16.9282 44.3281 16.9462C44.231 16.9401 44.1337 16.9552 44.0431 16.9907C43.9525 17.0261 43.8709 17.0809 43.8041 17.1513C43.6808 17.3611 43.6077 17.5962 43.5904 17.8386C43.5191 18.2126 43.4594 18.5901 43.4238 18.9693C43.4246 19.072 43.466 19.1702 43.539 19.2428C43.6121 19.3154 43.711 19.3565 43.8143 19.3573C43.9172 19.3552 44.0152 19.3136 44.088 19.2413C44.1608 19.169 44.2026 19.0717 44.2047 18.9695Z" fill="#726A69"/>
<path d="M50.6979 18.0035C50.8395 18.2021 51.0154 18.3742 51.2176 18.5117C51.2549 18.5391 51.2928 18.5658 51.3301 18.5932C51.3607 18.6155 51.3877 18.6595 51.3371 18.5972C51.3496 18.6094 51.3632 18.6205 51.3777 18.6304C51.4659 18.7067 51.5499 18.7875 51.6295 18.8725C51.7106 18.9567 51.7887 19.0433 51.8638 19.1325C51.9017 19.1768 51.939 19.2218 51.9759 19.2673C51.9944 19.29 52.0126 19.3127 52.0307 19.3356C52.0362 19.3423 52.0938 19.4161 52.0653 19.3792C52.0368 19.3423 52.1004 19.4252 52.0991 19.4234C52.1169 19.4467 52.1345 19.4701 52.152 19.4935C52.1871 19.5401 52.222 19.5872 52.2566 19.6345C52.3292 19.7335 52.4013 19.8331 52.4727 19.933C52.5266 20.0201 52.6123 20.0832 52.7118 20.1092C52.8113 20.1351 52.9171 20.1219 53.0071 20.0723C53.0956 20.0195 53.1598 19.9344 53.186 19.8352C53.2121 19.736 53.1982 19.6305 53.1471 19.5414C52.8667 19.1333 52.5602 18.7436 52.2295 18.3746C52.0723 18.2054 51.8992 18.0515 51.7125 17.915C51.675 17.8877 51.6372 17.8607 51.5997 17.8333C51.5622 17.806 51.5591 17.8089 51.5997 17.8333C51.5799 17.8195 51.5611 17.8043 51.5434 17.7877C51.5057 17.7562 51.4697 17.7227 51.4355 17.6875C51.4181 17.6694 51.4019 17.6504 51.3851 17.6318C51.4294 17.6807 51.3925 17.6415 51.3722 17.6124C51.3464 17.5684 51.312 17.5299 51.2711 17.4991C51.2303 17.4683 51.1837 17.4458 51.1341 17.4329C51.0845 17.4199 51.0328 17.4168 50.982 17.4238C50.9312 17.4307 50.8823 17.4475 50.838 17.4732C50.7937 17.4989 50.755 17.533 50.724 17.5736C50.693 17.6142 50.6703 17.6605 50.6573 17.7098C50.6443 17.7591 50.6412 17.8104 50.6482 17.8609C50.6551 17.9114 50.672 17.96 50.6979 18.004V18.0035Z" fill="#726A69"/>
<path d="M51.8108 19.8812C53.7875 20.8126 55.6606 21.9468 57.3999 23.2653C58.2372 23.9076 59.1013 24.5084 59.9136 25.1836C60.3158 25.5179 60.7098 25.8626 61.0885 26.2228C61.4111 26.5299 61.7652 26.8343 61.9532 27.2455C62.2264 27.8777 62.2586 28.5871 62.0438 29.2412C61.8681 29.7402 61.6235 30.2243 61.4107 30.7091C61.1701 31.2565 60.9269 31.8028 60.6809 32.3479C59.7096 34.4994 58.6948 36.6309 57.6367 38.7424C57.5886 38.8932 57.517 39.0355 57.4245 39.1641C57.3868 39.1954 57.4208 39.1911 57.3745 39.1921C57.1756 39.155 56.9842 39.0853 56.8083 38.9859C56.3693 38.8068 55.9423 38.5954 55.5214 38.3779C54.669 37.9376 53.8344 37.4578 53.03 36.9358L53.2095 37.3738C53.9174 35.531 54.7938 33.7636 55.6694 31.9945C55.8914 31.5456 56.1114 31.0958 56.3294 30.6451C56.463 30.3976 56.5608 30.1325 56.6199 29.8579C56.6947 29.5344 56.6532 29.195 56.5028 28.8986C56.2806 28.5206 55.8535 28.4096 55.4817 28.2255C54.5364 27.7568 53.6698 27.1501 52.7228 26.6833C52.2737 26.462 51.878 27.131 52.3286 27.3534C53.1175 27.7413 53.849 28.2251 54.6178 28.6492C54.7975 28.7484 54.9797 28.843 55.1645 28.933C55.3729 29.0049 55.5732 29.0985 55.7619 29.2121C55.915 29.3361 55.887 29.5793 55.8513 29.7415C55.8305 29.8351 55.8034 29.9272 55.7701 30.0172C55.7506 30.0709 55.7992 29.9528 55.7799 29.9956C55.7605 30.0385 55.7373 30.0851 55.7158 30.1297C55.6569 30.2527 55.5977 30.3755 55.5384 30.4982C55.3345 30.9188 55.1285 31.3383 54.9203 31.7566C54.5167 32.5714 54.1106 33.3861 53.7243 34.2086C53.2682 35.1803 52.8426 36.1657 52.458 37.1676C52.4359 37.2501 52.4414 37.3375 52.4738 37.4166C52.5062 37.4956 52.5636 37.562 52.6374 37.6057C53.3904 38.0943 54.1702 38.5447 54.965 38.9636C55.3839 39.1837 55.8086 39.3948 56.2427 39.5843C56.6086 39.7436 57.1123 40.032 57.5233 39.9606C58.0849 39.8636 58.2614 39.2406 58.4822 38.7967C58.7555 38.2472 59.0265 37.6964 59.2952 37.1442C59.8382 36.0257 60.3691 34.9014 60.888 33.7714C61.4135 32.6272 61.9265 31.4776 62.427 30.3225C62.6318 29.9253 62.7882 29.5053 62.8929 29.0713C62.9645 28.6552 62.9711 28.2306 62.9124 27.8125C62.8601 27.3718 62.7095 26.9483 62.4716 26.5728C62.1603 26.1575 61.8011 25.7799 61.4015 25.4476C60.5602 24.6869 59.6795 23.9704 58.763 23.301C57.7509 22.5487 56.7386 21.7951 55.6707 21.1218C54.5551 20.4179 53.3988 19.7799 52.2077 19.211C51.7568 18.9959 51.3602 19.6648 51.8136 19.8811L51.8108 19.8812Z" fill="#726A69"/>
<path d="M41.1437 4.2261C41.2337 3.68732 41.4428 3.17509 41.7561 2.72632C42.0694 2.27756 42.4789 1.90345 42.9553 1.63097C44.0939 0.944653 45.4236 0.730105 46.7396 0.77026C48.0754 0.779139 49.3833 1.15127 50.5214 1.84629C51.4817 2.46452 51.9946 3.53396 52.2812 4.6036C52.4236 5.08229 52.4881 5.58052 52.4723 6.07944C52.4614 6.25635 52.3993 6.4773 52.198 6.51959C51.9739 6.54621 51.7478 6.55341 51.5224 6.54112C50.473 6.56556 49.4229 6.558 48.3737 6.5384C46.1121 6.49586 43.8521 6.39951 41.5936 6.24937C40.7654 6.19466 39.9368 6.13492 39.1112 6.04956C38.9653 6.03469 38.8195 6.01839 38.6737 6.00068L38.5856 5.98962C38.5046 5.97953 38.6005 5.99195 38.5802 5.98962C38.5021 5.97837 38.424 5.96731 38.3459 5.95354C38.2428 5.94621 38.1421 5.91935 38.0492 5.87439C37.9972 5.84025 38.0101 5.85131 38.0462 5.80417C38.2186 5.5774 38.5733 5.46896 38.8353 5.3774C39.1568 5.26079 39.491 5.18265 39.831 5.14462C39.9337 5.14188 40.0314 5.10012 40.1041 5.02795C40.1767 4.95578 40.2187 4.85868 40.2215 4.75665C40.2208 4.65398 40.1794 4.55571 40.1063 4.4831C40.0333 4.4105 39.9344 4.36939 39.831 4.36868C39.4347 4.40603 39.0441 4.48863 38.6669 4.61485C38.2916 4.71997 37.9385 4.89148 37.6245 5.12115C37.4817 5.22623 37.3722 5.36978 37.3089 5.53481C37.2457 5.69983 37.2313 5.87941 37.2677 6.05228C37.3177 6.20503 37.4074 6.34197 37.5277 6.44925C37.648 6.55654 37.7947 6.63039 37.9529 6.66333C38.3041 6.74211 38.661 6.79335 39.0202 6.81658C39.4238 6.85964 39.8281 6.89417 40.2326 6.92715C42.6175 7.11842 45.0109 7.22919 47.4024 7.29281C48.6175 7.32501 49.8336 7.34344 51.0491 7.32637C51.3135 7.32275 51.5777 7.31693 51.8417 7.30891C52.1378 7.33201 52.4347 7.27503 52.7008 7.14403C53.2726 6.79136 53.2954 6.08331 53.2353 5.48972C53.1074 4.22765 52.6404 2.90604 51.8084 1.93029C51.3395 1.42012 50.7653 1.01649 50.1251 0.746982C49.4608 0.439321 48.7559 0.226985 48.0314 0.116337C45.3394 -0.291032 41.8079 0.30295 40.6469 3.11205C40.5275 3.40416 40.4416 3.70869 40.3907 4.0199C40.3663 4.11908 40.381 4.22381 40.4318 4.31256C40.4826 4.40132 40.5657 4.46735 40.6641 4.4971C40.764 4.52354 40.8703 4.50988 40.9602 4.45907C41.05 4.40826 41.1162 4.32437 41.1443 4.22552L41.1437 4.2261Z" fill="#BADA95"/>
</g>
</svg>
