<svg width="100" height="80" viewBox="0 0 100 80" fill="none" xmlns="http://www.w3.org/2000/svg">
<mask id="mask0_1621_25544" style="mask-type:alpha" maskUnits="userSpaceOnUse" x="0" y="0" width="100" height="80">
<path d="M0 0H100V80H0V0Z" fill="#D9D9D9"/>
</mask>
<g mask="url(#mask0_1621_25544)">
<path d="M50.047 10.4907C32.6027 10.4907 20.5449 23.9591 20.5449 39.719C20.5449 57.3524 32.8621 69.4956 50.0483 69.4956C67.8965 69.4956 79.5514 57.239 79.5514 39.719C79.5514 23.8517 67.4301 10.4907 50.047 10.4907Z" fill="white"/>
<path d="M38.0722 54.6313C36.1811 53.817 34.1203 54.2841 32.9785 54.4091C33.3078 55.4855 33.9135 56.2349 35.1437 56.9143C37.661 58.3043 40.2849 56.5999 40.5002 56.1927L40.5399 56.117L40.9351 56.1918C41.1786 56.2378 41.5829 54.4732 40.9595 52.5533C40.6378 51.6335 40.093 50.8072 39.3735 50.1479C38.6496 51.018 38.4902 51.7472 38.6047 52.8364C38.6613 53.6054 38.7775 54.3689 38.9524 55.12C38.6842 54.9155 38.3877 54.751 38.0722 54.6313Z" fill="#65B005"/>
<path d="M36.0381 52.0644C35.6812 51.6288 35.3197 51.1676 34.9672 50.686L34.9406 50.5582C34.6765 49.2978 35.8843 47.0258 36.6894 46.311C37.0629 46.597 37.3664 46.9638 37.5769 47.3838C37.7875 47.8038 37.8996 48.2659 37.9049 48.7354C37.908 51.5424 36.4017 51.6906 36.2048 51.9063L35.8543 52.2902L34.9528 51.1474C33.8912 49.8036 32.5826 49.7277 32.5826 49.7277C31.8357 49.5416 31.068 49.4516 30.2982 49.4597C30.2595 49.7042 30.5463 51.5474 32.3152 52.3916C34.0802 53.234 35.2427 52.6502 35.6566 52.5153L36.2528 52.3226C36.2189 52.2838 36.186 52.2442 36.1533 52.2046C36.1151 52.1582 36.0767 52.1114 36.0381 52.0644Z" fill="#65B005"/>
<path d="M64.5288 52.0644C64.8858 51.6288 65.2473 51.1676 65.5997 50.686L65.6264 50.5582C65.8905 49.2978 64.6827 47.0258 63.8776 46.311C63.5041 46.597 63.2006 46.9638 62.99 47.3838C62.7795 47.8038 62.6674 48.2659 62.6621 48.7354C62.659 51.5424 64.1653 51.6906 64.3621 51.9063L64.7127 52.2902L65.6152 51.1466C66.6758 49.8027 67.9843 49.7263 67.9843 49.7263C68.7312 49.5402 69.499 49.4501 70.2688 49.4582C70.3075 49.7027 70.0206 51.5459 68.2517 52.3902C66.4868 53.2326 65.3243 52.6487 64.9104 52.5139L64.3142 52.3211C64.3481 52.2824 64.381 52.2428 64.4136 52.2032C64.452 52.1577 64.4904 52.1114 64.5288 52.0644Z" fill="#65B005"/>
<path d="M32.9623 47.3472C32.9947 47.418 33.0278 47.4885 33.0615 47.5589C30.9952 47.7004 30.4104 47.2084 29.5837 46.3906C29.2031 45.9774 28.9187 45.4856 28.7507 44.9503C28.5826 44.4149 28.5352 43.8492 28.6117 43.2935C29.2282 43.3582 30.1095 43.7606 30.8935 44.3688C31.5403 44.8471 32.0634 45.4722 32.4196 46.1922" fill="#65B005"/>
<path d="M31.3964 37.7129C30.9517 37.2493 30.4471 36.8468 29.8959 36.5159C29.0248 38.345 28.9642 39.5994 29.4515 41.0566C29.8517 42.2534 32.9984 43.9384 32.1066 42.4837C33.486 42.3031 34.1954 41.3611 34.5497 40.8197C34.74 40.553 34.8675 40.2469 34.9226 39.9242C34.9777 39.6015 34.959 39.2706 34.868 38.9561C34.4135 38.8907 33.9498 38.9638 33.5377 39.1658L32.6484 39.7812C32.6484 39.7812 32.5541 39.8464 32.4065 39.9498C32.3949 39.7835 32.3748 39.6121 32.3444 39.4332C32.203 38.78 31.8735 38.1822 31.3964 37.7129Z" fill="#65B005"/>
<path d="M50.0489 54.9344C49.8047 54.9725 49.5546 54.9416 49.3271 54.8451C48.2351 54.3808 45.4349 53.6578 44.8618 53.6514C44.348 53.6456 44.1975 54.2231 44.1973 54.4493C44.1962 55.4789 44.4002 57.6476 44.7437 58.9063C44.7763 59.0512 44.8631 59.1782 44.9865 59.2614C45.1098 59.3447 45.2603 59.378 45.4073 59.3545C46.6983 59.2836 48.0753 58.7121 49.4839 58.2032C49.8528 58.096 50.2448 58.096 50.6137 58.2032C52.0217 58.7121 53.3631 59.6102 54.6539 59.6813C54.8422 59.6787 55.0267 59.6284 55.1902 59.5353C55.3536 59.4421 55.4907 59.3091 55.5885 59.1487C55.932 57.8911 55.9814 55.6164 55.9802 54.6402C55.9802 54.4134 55.7498 53.885 55.2357 53.8906C54.1615 53.9971 53.0968 54.1839 52.0507 54.4495C51.8356 54.5027 51.629 54.5579 51.4383 54.6144C51.2113 54.6789 50.988 54.756 50.7697 54.8453C50.5425 54.9415 50.2928 54.9724 50.0489 54.9344Z" fill="#65B005"/>
<path d="M45.3327 33.6056C45.3782 29.3654 45.2279 23.1921 45.1243 22.0566C44.5752 22.0153 42.19 22.0733 41.6216 22.2042C41.2992 23.4022 39.7334 24.472 38.5781 24.9226C38.611 25.7005 38.6549 27.4442 38.6594 27.6765C39.4716 27.6765 40.5873 27.5638 41.7091 27.5638C41.7091 29.3318 41.7989 32.8003 41.7989 34.2055C41.7989 36.1877 41.9292 40.3353 41.9292 43.5801H45.4256C45.4537 41.8543 45.3154 35.3301 45.3327 33.6056Z" fill="#65B005"/>
<path d="M60.1192 25.889C59.7635 25.1795 59.3283 24.5124 58.8221 23.9006C57.8345 22.7244 56.5934 21.8831 55.2009 21.8831C52.6571 21.8831 50.8706 23.8754 50.2597 24.9755C49.1377 26.9959 48.5723 29.5397 48.5723 32.1984C48.5723 34.5163 48.6083 35.892 48.9669 37.9503C49.2589 39.6272 50.1503 41.5421 50.8441 42.1507C51.7086 42.9087 53.0496 43.7917 54.8771 43.7917C56.6383 43.7917 58.2837 42.6852 59.2291 41.3872C59.8038 40.5983 60.5695 38.7343 60.9564 37.3811C61.1878 36.5723 61.466 34.4014 61.466 32.4361C61.4662 30.159 61.2673 28.1506 60.1192 25.889ZM57.9766 35.558C57.8196 36.3567 57.5369 37.1256 57.1392 37.8363C56.6842 38.583 55.8112 39.2838 54.9637 39.2838C54.0841 39.2838 53.6279 38.7436 53.2118 38.3076C52.8778 37.9571 52.4195 36.8937 52.3084 35.9235C52.1724 34.8153 52.1179 33.6986 52.1454 32.5825C52.1901 31.2527 52.3905 29.5574 52.9313 28.3953C53.2254 27.7628 54.0849 26.5846 55.3097 26.5846C56.1231 26.5846 57.0559 27.783 57.5665 28.9853C58.1189 30.2864 58.1114 31.5069 58.1869 32.7839C58.1653 33.7115 58.0951 34.6373 57.9766 35.5576V35.558Z" fill="#65B005"/>
<path d="M62.4633 54.6313C64.3542 53.817 66.4152 54.2841 67.557 54.4091C67.2277 55.4855 66.6218 56.2349 65.3916 56.9143C62.8743 58.3043 60.2504 56.5999 60.0363 56.1927L59.9966 56.117L59.6014 56.1918C59.358 56.2378 58.9537 54.4732 59.577 52.5533C59.8987 51.6335 60.4436 50.8072 61.1631 50.1479C61.8869 51.018 62.0464 51.7472 61.9318 52.8364C61.8752 53.6054 61.759 54.3689 61.5841 55.12C61.852 54.9156 62.1481 54.751 62.4633 54.6313Z" fill="#65B005"/>
<path d="M67.5719 47.3472C67.5395 47.418 67.5064 47.4885 67.4727 47.5589C69.539 47.7004 70.1236 47.2084 70.9503 46.3906C71.3309 45.9774 71.6154 45.4856 71.7834 44.9503C71.9514 44.4149 71.9989 43.8492 71.9223 43.2935C71.3056 43.3582 70.4243 43.7606 69.6403 44.3688C68.9936 44.8472 68.4705 45.4722 68.1144 46.1922" fill="#65B005"/>
<path d="M67.1026 48.0923C66.678 47.9667 65.8565 47.2394 65.3709 45.6551C65.1413 44.8696 65.2161 44.0266 65.5807 43.2935C66.3945 43.5172 67.2284 44.3326 67.4937 46.371" fill="#65B005"/>
<path d="M69.1354 37.7134C69.58 37.2498 70.0846 36.8472 70.6358 36.5164C71.5067 38.3455 71.5665 39.5998 71.0801 41.0571C70.6799 42.2539 67.5334 43.9389 68.425 42.4842C67.0455 42.3036 66.3361 41.3616 65.9818 40.8202C65.7915 40.5534 65.6641 40.2473 65.609 39.9246C65.554 39.602 65.5727 39.2711 65.6638 38.9566C66.1182 38.8912 66.5819 38.9643 66.994 39.1663L67.8833 39.7817C67.8833 39.7817 67.9776 39.8468 68.1251 39.9503C68.1369 39.784 68.1567 39.6126 68.1871 39.4337C68.3286 38.7805 68.6582 38.1827 69.1354 37.7134Z" fill="#65B005"/>
<path d="M33.4309 48.0923C33.8557 47.9667 34.6769 47.2394 35.1625 45.6551C35.3927 44.8697 35.3183 44.0267 34.9541 43.2935C34.1402 43.5172 33.3062 44.3326 33.041 46.371" fill="#65B005"/>
<path d="M49.999 10.0002C46.6222 9.98966 43.2653 10.5161 40.0549 11.5596C34.1182 13.5064 28.9744 17.3189 25.3945 22.4256C23.6412 24.9281 22.2869 27.6861 21.3798 30.6015C20.4469 33.6101 19.9818 36.7433 20.0005 39.8922C19.9998 43.1445 20.461 46.3804 21.3703 49.5037C22.2147 52.3812 23.4982 55.112 25.1757 57.6003C26.8026 59.9971 28.8005 62.1216 31.0948 63.8947C33.4452 65.6985 36.0636 67.1256 38.8556 68.1243C41.8128 69.1721 44.9076 69.7842 48.0421 69.9412C51.3097 70.1278 54.5874 69.8651 57.7831 69.1607C60.703 68.5177 63.5073 67.4342 66.0992 65.9476C68.5732 64.5176 70.8002 62.7001 72.695 60.5647C74.5939 58.4108 76.1442 55.9748 77.29 53.3445C78.5066 50.5255 79.3169 47.549 79.6968 44.5037C80.1264 41.3028 80.0994 38.0573 79.6165 34.8639C79.1384 31.8123 78.1908 28.8524 76.8071 26.0889C75.4483 23.3766 73.6717 20.8932 71.542 18.7289C69.3869 16.5425 66.8942 14.7147 64.1587 13.315C61.2822 11.8508 58.1874 10.8593 54.9938 10.3789C53.3407 10.1286 51.6711 10.002 49.999 10.0002C49.3601 10.0002 49.3591 10.9897 49.999 10.9897C53.2728 10.9806 56.5273 11.4898 59.6408 12.4984C62.5209 13.4455 65.2292 14.8487 67.6617 16.6542C70.0094 18.4028 72.0635 20.512 73.7473 22.903C75.456 25.3301 76.7762 28.0069 77.6609 30.8378C78.5666 33.7551 79.02 36.7933 79.0052 39.8471C79.011 42.9334 78.6028 46.0066 77.7914 48.985C77.0369 51.7361 75.8719 54.3586 74.3353 56.7644C72.8521 59.0663 71.011 61.1183 68.8809 62.8435C66.714 64.5855 64.2842 65.9747 61.6816 66.9595C58.8344 68.0302 55.8466 68.6839 52.8113 68.9003C49.6544 69.1543 46.4775 68.9718 43.3708 68.3579C40.5035 67.7861 37.7396 66.7847 35.1732 65.3879C32.7009 64.0316 30.4609 62.2919 28.5371 60.2339C26.6083 58.1548 25.0191 55.7867 23.8275 53.2161C22.5704 50.4799 21.7256 47.5737 21.3204 44.5915C20.8651 41.4717 20.8697 38.3022 21.3341 35.1837C21.7862 32.2301 22.6901 29.363 24.0142 26.6826C25.3204 24.0477 27.0306 21.6319 29.0833 19.5222C31.1744 17.3816 33.5975 15.5905 36.2598 14.2178C39.0534 12.7895 42.0604 11.8209 45.1643 11.3495C46.7643 11.1069 48.3806 10.9866 49.999 10.9897C50.6377 10.9897 50.6389 10.0002 49.999 10.0002Z" fill="#726A69"/>
<path d="M67.9454 20.2371C67.0071 19.3919 66.0085 18.6156 64.9576 17.9142C64.8437 17.8488 64.7086 17.8307 64.5815 17.8639C64.4544 17.8972 64.3455 17.979 64.2786 18.0917C64.2152 18.2057 64.1983 18.3397 64.2315 18.4658C64.2646 18.5918 64.3453 18.7003 64.4566 18.7686C64.704 18.9335 64.9486 19.1029 65.1904 19.2766C65.3145 19.3658 65.4378 19.4562 65.5602 19.5477C65.6748 19.6333 65.7931 19.7236 65.8665 19.7809C66.3393 20.1495 66.7983 20.5348 67.2435 20.9369C67.3368 21.0284 67.4627 21.0795 67.5936 21.079C67.7246 21.0784 67.85 21.0263 67.9426 20.934C68.0352 20.8417 68.0874 20.7167 68.088 20.5862C68.0885 20.4556 68.0373 20.3302 67.9454 20.2371Z" fill="#726A69"/>
<path d="M68.8158 22.3966C69.4544 22.3966 69.4555 21.407 68.8158 21.407C68.1761 21.407 68.1759 22.3966 68.8158 22.3966Z" fill="#726A69"/>
<path d="M62.85 16.6559C59.9797 15.1442 56.8591 14.1616 53.6384 13.7554C50.6628 13.3726 47.6457 13.4523 44.6946 13.9915C42.1509 14.4551 39.6893 15.2886 37.3887 16.4654C35.201 17.589 33.188 19.0225 31.4125 20.7212C29.6544 22.4061 28.145 24.3309 26.9291 26.4383C25.702 28.568 24.7787 30.8578 24.1859 33.2417C23.5806 35.7099 23.3153 38.2488 23.3973 40.7884C23.4624 43.3801 23.8618 45.9526 24.5857 48.4426C25.2623 50.7543 26.2572 52.9612 27.5419 55.0004C28.7794 56.9555 30.2911 58.7239 32.0311 60.252C33.7906 61.7912 35.7614 63.0723 37.884 64.0565C40.0952 65.0778 42.4349 65.7962 44.8394 66.1922C47.4377 66.6189 50.0793 66.7209 52.703 66.4959C55.1956 66.2995 57.652 65.7804 60.0102 64.9517C62.2122 64.1732 64.2921 63.0869 66.1876 61.7253C68.0436 60.3798 69.695 58.7741 71.0904 56.958C72.487 55.125 73.622 53.1079 74.4627 50.9642C75.3571 48.6738 75.9542 46.2789 76.2395 43.8376C76.6087 40.9487 76.555 38.0217 76.08 35.1483C75.3162 30.5975 73.3535 26.3306 70.3926 22.7841C70.299 22.6922 70.173 22.6406 70.0416 22.6406C69.9102 22.6406 69.7842 22.6922 69.6906 22.7841C69.6002 22.8782 69.5496 23.0036 69.5496 23.134C69.5496 23.2643 69.6002 23.3897 69.6906 23.4838C71.587 25.7735 73.0584 28.3822 74.0356 31.1871C75.0359 34.0814 75.5266 37.1263 75.4858 40.1873C75.4707 42.6446 75.1582 45.0912 74.5552 47.4739C73.9958 49.6781 73.143 51.7978 72.0194 53.7765C69.8414 57.6088 66.5864 60.7224 62.6554 62.7336C60.5925 63.785 58.3956 64.5512 56.1252 65.0111C53.6494 65.5135 51.1209 65.709 48.5971 65.5931C46.166 65.4973 43.7579 65.0861 41.4336 64.3697C39.2518 63.6939 37.1752 62.7182 35.2638 61.4706C33.4036 60.2492 31.7287 58.7682 30.2901 57.0728C28.8323 55.3439 27.6268 53.4183 26.7093 51.3532C25.7388 49.1529 25.0684 46.8327 24.7162 44.4548C24.3299 41.9613 24.2686 39.4284 24.5338 36.9192C24.7945 34.545 25.3831 32.2181 26.283 30.0045C27.6096 26.7134 29.6359 23.748 32.2224 21.3124C34.8089 18.8768 37.8942 17.029 41.2658 15.896C43.7164 15.0771 46.2729 14.6161 48.856 14.5275C52.0439 14.3982 55.23 14.8242 58.2711 15.7863C59.679 16.2393 61.0437 16.816 62.3493 17.5096C62.9131 17.8088 63.4152 16.9549 62.8504 16.6553L62.85 16.6559Z" fill="#726A69"/>
<path d="M32.992 46.3745C32.9534 46.673 32.9267 46.9978 32.9141 47.3507Z" fill="#C4B7AE"/>
<path d="M32.494 46.3746C32.4526 46.6984 32.4278 47.0244 32.416 47.3508C32.416 47.482 32.4683 47.6079 32.5614 47.7007C32.6545 47.7934 32.7807 47.8456 32.9124 47.8456C33.044 47.8456 33.1703 47.7934 33.2634 47.7007C33.3564 47.6079 33.4087 47.482 33.4087 47.3508C33.4205 47.0244 33.4449 46.6984 33.4867 46.3746C33.4871 46.3095 33.4745 46.245 33.4496 46.1848C33.4248 46.1246 33.3882 46.07 33.3419 46.0241C33.2488 45.9313 33.1226 45.8792 32.991 45.8792C32.8593 45.8792 32.7331 45.9313 32.64 46.0241L32.5624 46.1241C32.518 46.1999 32.4946 46.2861 32.4946 46.3739L32.494 46.3746Z" fill="#726A69"/>
<path d="M40.8848 56.6904C41.3605 56.7205 41.5487 56.1543 41.6254 55.7886C41.7499 55.1585 41.7722 54.5126 41.6916 53.8755C41.6128 53.0843 41.3932 52.3134 41.0433 51.599C40.69 50.9284 40.2273 50.3212 39.6741 49.802C39.5806 49.7102 39.4545 49.6587 39.3232 49.6587C39.1918 49.6587 39.0658 49.7102 38.9722 49.802C38.6029 50.2234 38.3247 50.7162 38.1549 51.2495C38.0228 51.769 37.9899 52.3087 38.0579 52.8403C38.0614 52.9705 38.1149 53.0943 38.2072 53.1863C38.2995 53.2783 38.4237 53.3316 38.5542 53.3352C38.6856 53.3342 38.8113 53.2818 38.9042 53.1892C38.9971 53.0966 39.0497 52.9713 39.0506 52.8403C38.9909 52.4204 39.0057 51.9932 39.0944 51.5784C39.2069 51.1819 39.4045 50.8145 39.6735 50.5017H38.9722C39.8672 51.3353 40.4621 52.4394 40.6648 53.6436C40.7538 54.1735 40.77 54.7131 40.7132 55.2474C40.6956 55.4126 40.663 55.5758 40.616 55.7352C40.6044 55.7733 40.5918 55.8111 40.5777 55.8486C40.6007 55.7867 40.6129 55.8148 40.5881 55.8214C40.5819 55.8337 40.5752 55.8459 40.5674 55.8577C40.5463 55.8919 40.561 55.8745 40.6114 55.8055C40.562 55.8438 40.8158 55.6964 40.8844 55.7008C40.2464 55.6606 40.2489 56.6504 40.8844 56.6904H40.8848Z" fill="#4F8D00"/>
<path d="M33.5139 48.341C34.2752 48.1006 34.8195 47.3198 35.1589 46.6444C35.4681 46.0657 35.6628 45.4331 35.7324 44.781C35.7729 44.1022 35.6351 43.4247 35.3326 42.8152C35.277 42.7215 35.192 42.6486 35.0908 42.6076C34.9895 42.5666 34.8776 42.5599 34.7722 42.5884C32.9905 43.0946 32.5373 45.2123 32.4316 46.8069C32.4316 46.9381 32.4839 47.064 32.577 47.1568C32.6701 47.2495 32.7964 47.3017 32.928 47.3017C33.0596 47.3017 33.1859 47.2495 33.279 47.1568C33.3721 47.064 33.4244 46.9381 33.4244 46.8069C33.4808 45.9548 33.6272 45.0565 34.0545 44.3508C34.0959 44.2829 34.1395 44.2172 34.1854 44.1524C34.2074 44.1211 34.2212 44.1044 34.1896 44.1446C34.2165 44.1104 34.2448 44.077 34.2735 44.0446C34.3591 43.9484 34.4522 43.8593 34.5521 43.778C34.5993 43.7395 34.4804 43.8256 34.5581 43.7751C34.584 43.7584 34.6092 43.7403 34.6353 43.7238C34.6857 43.6916 34.7387 43.6619 34.791 43.6343C34.8171 43.6211 34.8435 43.6092 34.8698 43.5962C34.9525 43.5549 34.8042 43.6195 34.8617 43.5997C34.9192 43.5799 34.9769 43.5595 35.0361 43.5426L34.4754 43.3158C34.9304 44.2811 34.7453 45.2919 34.2686 46.2094C34.1141 46.5258 33.9123 46.8169 33.6701 47.0728C33.6173 47.1266 33.5625 47.1774 33.5061 47.227C33.4959 47.2361 33.4057 47.3072 33.462 47.2646C33.5183 47.2219 33.4237 47.2905 33.4206 47.292C33.3793 47.319 33.3363 47.3441 33.2928 47.3691C33.1588 47.4456 33.3549 47.3542 33.2486 47.3876C32.6418 47.5792 32.9009 48.535 33.5125 48.342L33.5139 48.341Z" fill="#4F8D00"/>
<path d="M39.2658 54.7756C38.2345 54.064 37.0113 53.6802 35.757 53.6746C34.8079 53.6478 33.7796 53.8227 32.9298 53.9179C32.8539 53.9193 32.7792 53.9378 32.7114 53.9721C32.6437 54.0063 32.5846 54.0554 32.5385 54.1157C32.4925 54.1759 32.4607 54.2458 32.4456 54.32C32.4305 54.3942 32.4324 54.4709 32.4513 54.5443C32.9081 56.0027 34.0135 57.0428 35.4203 57.6139C36.8184 58.1815 38.416 57.9807 39.7428 57.3177C40.1398 57.1191 40.6505 56.8468 40.8802 56.4458C41.1965 55.8914 40.339 55.392 40.023 55.9462C39.9883 56.0081 40.1134 55.8638 40.0096 55.9613C39.9589 56.0087 39.9082 56.0549 39.8542 56.099C39.8408 56.1097 39.9057 56.0646 39.828 56.1165C39.7909 56.1413 39.7552 56.1672 39.7182 56.1916C39.6199 56.2559 39.519 56.3153 39.416 56.3724C38.9593 56.6208 38.466 56.7955 37.9544 56.8901C37.312 57.0015 36.6523 56.9619 36.028 56.7742C35.4037 56.5865 34.832 56.256 34.3585 55.8091C33.9103 55.3941 33.5822 54.8666 33.4086 54.2818L32.9298 54.9082C33.8255 54.8078 34.6776 54.6521 35.6102 54.662C36.7378 54.6459 37.8417 54.985 38.7647 55.631C38.8787 55.696 39.0137 55.7137 39.1407 55.6803C39.2677 55.6469 39.3763 55.5651 39.4433 55.4524C39.5068 55.3385 39.5237 55.2045 39.4906 55.0784C39.4574 54.9523 39.3767 54.8438 39.2652 54.7756H39.2658Z" fill="#4F8D00"/>
<path d="M36.5073 52.261C36.542 52.2256 36.3733 52.3291 36.4787 52.286C36.5114 52.2728 36.5435 52.2522 36.5753 52.2363C36.664 52.1917 36.754 52.1499 36.8405 52.1008C37.1213 51.9436 37.3698 51.735 37.573 51.4858C37.8793 51.0966 38.0945 50.644 38.2028 50.1612C38.3801 49.4584 38.4036 48.7259 38.2718 48.0133C38.098 47.2029 37.6453 46.4786 36.9921 45.966C36.8969 45.8771 36.7715 45.8276 36.6411 45.8276C36.5107 45.8276 36.3852 45.8771 36.2901 45.966C35.6796 46.5194 35.2374 47.3061 34.9078 48.0498C34.5444 48.8705 34.2397 49.7886 34.4135 50.6937C34.4496 50.8196 34.5338 50.9263 34.648 50.9909C34.7622 51.0555 34.8973 51.0729 35.0242 51.0393C35.1496 51.002 35.2557 50.9179 35.3203 50.8044C35.3849 50.691 35.403 50.5571 35.3708 50.4306C35.3529 50.2912 35.3483 50.1504 35.357 50.01C35.3678 49.855 35.3924 49.7012 35.4304 49.5505C35.5222 49.1609 35.6538 48.7816 35.8233 48.4188C36.0936 47.764 36.4904 47.1685 36.9912 46.6664H36.2901C36.6047 46.8998 36.8636 47.1996 37.0484 47.5444C37.2331 47.8892 37.3392 48.2704 37.3589 48.6609C37.3733 49.0331 37.3446 49.4057 37.2733 49.7713C37.2255 50.0281 37.1445 50.2776 37.0322 50.5135C36.9766 50.6202 36.9135 50.7228 36.8434 50.8205C36.7813 50.9061 36.8944 50.7665 36.8204 50.8485C36.7863 50.8863 36.7532 50.9248 36.717 50.9611C36.6808 50.9974 36.6481 51.0273 36.6136 51.0597C36.5912 51.0803 36.4669 51.1735 36.585 51.0871C36.5282 51.1283 36.4705 51.1683 36.4103 51.205C36.1948 51.299 35.9916 51.4187 35.8051 51.5617C35.3582 52.0173 36.0595 52.7177 36.5071 52.2614L36.5073 52.261Z" fill="#4F8D00"/>
<path d="M32.6681 49.2531C31.8762 49.066 31.0654 48.9699 30.2516 48.9666C30.1211 48.97 29.9968 49.0232 29.9045 49.1153C29.8121 49.2073 29.7587 49.3312 29.7553 49.4614C29.7449 49.7527 29.7935 50.0431 29.8982 50.3153C30.0571 50.8215 30.3074 51.2944 30.6367 51.7109C31.0847 52.2534 31.6551 52.6825 32.3014 52.963C32.9476 53.2436 33.6513 53.3676 34.3549 53.325C34.8288 53.2733 35.2943 53.1625 35.7405 52.9951C36.3438 52.7951 36.0853 51.8391 35.4766 52.041C35.3019 52.0987 35.1313 52.1671 34.9544 52.2185C34.7195 52.2908 34.4762 52.3323 34.2306 52.3422C33.4215 52.3644 32.6278 52.1191 31.9732 51.6447C31.7328 51.4671 31.5205 51.2546 31.3434 51.0142C31.2531 50.889 31.1709 50.7582 31.0973 50.6225C31.0627 50.5593 31.03 50.495 30.9993 50.4297C30.9844 50.3986 30.9701 50.3679 30.9561 50.3353C30.9697 50.3683 30.9701 50.3693 30.9573 50.338C30.8746 50.1361 30.8111 49.927 30.7674 49.7133C30.7592 49.6721 30.7528 49.6308 30.7453 49.5896C30.7738 49.7498 30.7486 49.6308 30.748 49.5931C30.7448 49.5499 30.7448 49.5066 30.748 49.4634L30.2516 49.9582C30.9764 49.9593 31.6987 50.0436 32.4042 50.2093C33.023 50.3693 33.2869 49.4152 32.6681 49.2552V49.2531Z" fill="#4F8D00"/>
<path d="M31.0963 43.9451C30.361 43.3816 29.4959 42.9123 28.5638 42.8022C28.455 42.8019 28.3492 42.8372 28.2627 42.9029C28.1761 42.9686 28.1138 43.0609 28.0852 43.1655C27.9795 43.8348 28.0354 44.5195 28.2481 45.1629C28.4609 45.8064 28.8244 46.39 29.3085 46.8655C29.6487 47.2224 30.049 47.5172 30.4911 47.7365C31.1017 47.9878 31.7593 48.1054 32.4195 48.0813C33.0581 48.0792 33.0594 47.0896 32.4195 47.0916C32.1319 47.0971 31.8444 47.0787 31.5599 47.0366C31.4362 47.0147 31.3138 46.9857 31.1935 46.9498C31.1456 46.936 31.0983 46.9204 31.0514 46.903C31.0348 46.8972 30.9132 46.8475 30.992 46.8824C30.7992 46.7965 30.6169 46.6888 30.4487 46.5614C30.5279 46.6203 30.4241 46.5407 30.4073 46.528C30.3604 46.4892 30.3145 46.4494 30.269 46.409C30.1927 46.3412 30.1182 46.2709 30.0446 46.1999C29.3207 45.5014 28.8804 44.3951 29.0419 43.429L28.564 43.7919C28.4922 43.7834 28.6767 43.8143 28.7156 43.8232C28.8004 43.8438 28.8844 43.8665 28.9673 43.8931C29.134 43.9465 29.2968 44.0116 29.4543 44.0879C29.8581 44.2857 30.2405 44.5242 30.5956 44.7996C30.7094 44.8652 30.8445 44.8833 30.9717 44.8501C31.0988 44.8168 31.2076 44.7349 31.2745 44.6221C31.3377 44.508 31.3544 44.3741 31.3213 44.2481C31.2881 44.1221 31.2074 44.0136 31.0963 43.9451Z" fill="#4F8D00"/>
<path d="M32.8004 45.9463C32.4266 45.1874 31.8769 44.5281 31.1968 44.023C31.101 43.934 30.976 43.8828 30.8452 43.8787C30.7136 43.8793 30.5874 43.931 30.4936 44.023C30.33 44.2007 30.2752 44.5524 30.4936 44.7227C30.8116 44.9682 31.1044 45.2444 31.3678 45.5474C31.3981 45.5827 31.428 45.6184 31.4573 45.6544C31.4737 45.675 31.4894 45.6946 31.5057 45.7146C31.545 45.7633 31.4309 45.6146 31.4937 45.7C31.5512 45.7777 31.6077 45.8563 31.6606 45.9371C31.7671 46.0996 31.8611 46.2699 31.9419 46.4465C32.0075 46.5576 32.1138 46.639 32.2385 46.6733C32.3337 46.6996 32.4346 46.6969 32.5283 46.6657C32.6219 46.6345 32.7042 46.5761 32.7644 46.498C32.8246 46.42 32.86 46.3258 32.8662 46.2275C32.8724 46.1292 32.8491 46.0313 32.7992 45.9463H32.8004Z" fill="#4F8D00"/>
<path d="M33.7392 39.5971C33.8867 39.5308 34.0418 39.4823 34.201 39.4528C34.3613 39.424 34.5249 39.4184 34.6868 39.4361L34.3402 39.0906C34.4442 39.4471 34.427 39.828 34.2911 40.1738C34.2138 40.349 34.1184 40.5158 34.0066 40.6715C33.97 40.7255 33.9325 40.7789 33.8939 40.8317C33.8767 40.8552 33.8587 40.8781 33.8415 40.9018C33.8208 40.93 33.899 40.8325 33.8285 40.9166C33.7342 41.0292 33.6376 41.1391 33.5328 41.242C33.4764 41.2969 33.418 41.3505 33.3578 41.4026C33.3237 41.4316 33.2891 41.4603 33.2544 41.4879C33.3315 41.4275 33.213 41.5172 33.2072 41.5203C32.9073 41.7406 32.5621 41.892 32.1965 41.9636C32.1337 41.9808 32.0748 42.0103 32.0234 42.0502C31.972 42.0901 31.9289 42.1398 31.8968 42.1963C31.8646 42.2528 31.8439 42.3151 31.8358 42.3796C31.8278 42.4441 31.8326 42.5095 31.8499 42.5722C31.8672 42.6348 31.8968 42.6935 31.9368 42.7447C31.9769 42.796 32.0267 42.8389 32.0834 42.871C32.1401 42.9031 32.2025 42.9237 32.2672 42.9317C32.3319 42.9398 32.3976 42.935 32.4604 42.9177C33.3012 42.7195 34.0484 42.2397 34.5772 41.5584C34.8569 41.2235 35.0822 40.847 35.2452 40.4426C35.4276 39.9222 35.446 39.3586 35.2977 38.8275C35.2762 38.7443 35.2326 38.6684 35.1717 38.6076C35.1107 38.5468 35.0346 38.5035 34.9511 38.482C34.367 38.3935 33.7697 38.4841 33.2385 38.7417C33.1257 38.8088 33.0439 38.9173 33.0106 39.0439C32.9773 39.1705 32.9952 39.305 33.0604 39.4186C33.1287 39.5299 33.2376 39.6105 33.3642 39.6436C33.4907 39.6766 33.6253 39.6596 33.7396 39.5961L33.7392 39.5971Z" fill="#4F8D00"/>
<path d="M32.4744 43.1818C32.6866 41.8293 33.1155 40.3789 32.7098 39.0184C32.3278 37.7374 31.2021 36.7711 30.0991 36.0926C29.9853 36.0272 29.8502 36.0092 29.7231 36.0424C29.596 36.0756 29.4872 36.1575 29.4202 36.2701C28.991 37.113 28.7191 38.0266 28.6177 38.9664C28.5617 39.7372 28.672 40.5111 28.9414 41.2357C29.1848 41.8868 29.7525 42.3734 30.2995 42.7736C30.7862 43.1294 31.3789 43.5003 31.9954 43.5451C32.1267 43.5439 32.2523 43.4914 32.3452 43.3989C32.438 43.3063 32.4907 43.1811 32.4918 43.0502C32.4894 42.9198 32.4363 42.7953 32.3437 42.7031C32.2512 42.6108 32.1263 42.5579 31.9954 42.5554C31.9305 42.5507 32.0848 42.5888 31.9497 42.5437C31.9084 42.5299 31.866 42.5187 31.8256 42.5058C31.7333 42.4758 31.6442 42.4367 31.5597 42.3891C31.2943 42.2537 31.0407 42.0964 30.8015 41.919C30.5872 41.7612 30.3879 41.5842 30.2061 41.3902C30.126 41.3084 30.0539 41.2192 29.9908 41.1238C29.9296 41.044 29.885 40.9529 29.8594 40.8558C29.6515 40.249 29.5671 39.6069 29.6113 38.9672C29.7 38.2011 29.9259 37.457 30.278 36.7703L29.5991 36.9478C30.4939 37.4977 31.4916 38.2937 31.7733 39.3536C32.0835 40.5176 31.6987 41.7677 31.5179 42.9204C31.487 43.0467 31.5057 43.1801 31.5701 43.2932C31.6345 43.4063 31.7398 43.4906 31.8645 43.529C31.9914 43.5629 32.1266 43.5456 32.2409 43.481C32.3552 43.4163 32.4394 43.3094 32.4752 43.1834L32.4744 43.1818Z" fill="#4F8D00"/>
<path d="M50.0004 54.4431C49.5001 54.5031 48.9828 54.199 48.5113 54.0471C47.9852 53.8772 47.4528 53.7261 46.9188 53.5861C46.4454 53.4624 45.9691 53.3442 45.4883 53.2529C45.066 53.1725 44.6196 53.0789 44.2315 53.3259C43.7765 53.6156 43.6445 54.1555 43.6549 54.6588C43.6666 55.2282 43.7123 55.7975 43.7715 56.3636C43.84 57.0192 43.9266 57.6751 44.0524 58.3222C44.134 58.7416 44.1911 59.25 44.5191 59.5609C45.0397 60.0557 45.9218 59.8207 46.5412 59.6823C47.316 59.4916 48.0773 59.2497 48.8199 58.9583C49.1424 58.805 49.4828 58.6924 49.8333 58.623C50.1903 58.6094 50.5449 58.6875 50.863 58.8498C51.5662 59.1428 52.241 59.4955 52.949 59.7764C53.558 60.018 54.3613 60.3124 55.0206 60.1301C55.2693 60.0662 55.4966 59.938 55.6797 59.7586C55.8629 59.5792 55.9953 59.3549 56.0638 59.1082C56.3434 57.9264 56.391 56.6772 56.4191 55.4678C56.4313 54.9445 56.5052 54.3827 56.1815 53.9314C55.7838 53.3772 55.2152 53.3748 54.6051 53.4562C53.8548 53.5558 53.109 53.6931 52.3703 53.858C51.9651 53.9483 51.561 54.0469 51.1639 54.1673C50.7724 54.2871 50.4194 54.4916 50.001 54.4413C49.8696 54.442 49.7437 54.4943 49.6508 54.587C49.5579 54.6796 49.5053 54.8051 49.5046 54.9361C49.5077 55.0663 49.561 55.1904 49.6535 55.2825C49.7459 55.3747 49.8703 55.4278 50.001 55.4309C50.3425 55.4607 50.6859 55.404 50.9995 55.266C51.3414 55.1411 51.6901 55.0361 52.0441 54.9513C52.678 54.7905 53.32 54.66 53.9644 54.5483C54.357 54.4579 54.7572 54.4042 55.1598 54.3879C55.3017 54.3895 55.346 54.44 55.4097 54.565C55.4858 54.7118 55.371 54.4881 55.4303 54.6252C55.4791 54.7373 55.4326 54.5687 55.4351 54.6252C55.4396 54.7283 55.4351 54.8313 55.4351 54.9344C55.4397 55.975 55.3784 57.0148 55.2514 58.0476C55.2179 58.295 55.1755 58.5408 55.1207 58.7838C55.1073 58.8432 55.0887 58.9028 55.0775 58.9626C55.0514 59.1009 55.0827 58.9544 55.0998 58.9263C55.0841 58.9519 55.0289 59.0098 55.1029 58.9263C55.0616 58.9754 55.0163 59.0212 54.9675 59.063C54.6391 59.3325 54.0126 59.1042 53.6192 58.9717C52.9847 58.7344 52.3625 58.4657 51.755 58.1664C51.123 57.8814 50.5038 57.578 49.7919 57.6361C49.4626 57.6794 49.141 57.7682 48.8362 57.9C48.4664 58.0361 48.0971 58.1734 47.7246 58.3018C47.0716 58.5466 46.3953 58.7242 45.7061 58.8319C45.5669 58.8578 45.4252 58.8684 45.2837 58.8636C45.1965 58.8546 45.2264 58.8667 45.1907 58.8298C45.2099 58.8504 45.2527 58.8779 45.1973 58.8358C45.1613 58.8086 45.1611 58.6973 45.1944 58.8422C45.1801 58.7803 45.1588 58.7185 45.1429 58.6566C45.0137 58.1311 44.9151 57.5986 44.8474 57.0617C44.77 56.4894 44.7136 55.9146 44.6782 55.3373C44.6651 55.1295 44.6548 54.9212 44.6494 54.7132C44.6469 54.6157 44.6436 54.518 44.6469 54.4204C44.6509 54.3046 44.6153 54.5279 44.6519 54.3957C44.6628 54.3495 44.6762 54.304 44.692 54.2592C44.6589 54.3417 44.7311 54.1943 44.7315 54.1935C44.7121 54.2258 44.7506 54.1677 44.7559 54.165C44.7909 54.1473 44.8103 54.1516 44.884 54.1522C44.9125 54.1522 44.9415 54.1582 44.9698 54.1609C44.8902 54.1533 44.9028 54.1504 44.975 54.1623C45.0662 54.1772 45.1574 54.193 45.2482 54.2106C45.7431 54.3058 46.2332 54.4279 46.7203 54.5563C47.253 54.6969 47.7835 54.8485 48.3072 55.0192C48.8596 55.1994 49.4048 55.5033 50.0012 55.4315C50.1316 55.4276 50.2556 55.3742 50.3479 55.2823C50.4401 55.1903 50.4937 55.0667 50.4976 54.9367C50.4965 54.8058 50.4437 54.6806 50.3506 54.5882C50.2576 54.4958 50.1317 54.4437 50.0004 54.4431Z" fill="#4F8D00"/>
<path d="M45.7805 33.6084C45.8157 30.2354 45.7706 26.8613 45.6453 23.4858C45.6277 23.0102 45.6143 22.5329 45.5721 22.0588C45.5682 21.9288 45.5146 21.8052 45.4224 21.7132C45.3301 21.6212 45.2061 21.5679 45.0757 21.564C44.484 21.537 43.8913 21.5406 43.3 21.5747C42.6769 21.5712 42.0548 21.623 41.4409 21.7293C41.358 21.7521 41.2825 21.7959 41.2218 21.8565C41.161 21.9171 41.1171 21.9924 41.0943 22.0751C40.9264 22.6591 40.4718 23.1189 40.0126 23.4959C39.5261 23.8934 38.9814 24.2143 38.3976 24.4478C38.2941 24.4791 38.2031 24.5422 38.1376 24.6281C38.0722 24.7139 38.0357 24.8182 38.0332 24.9261C38.0713 25.8435 38.0952 26.7619 38.1143 27.68C38.1162 27.8106 38.1692 27.9353 38.2618 28.0277C38.3545 28.12 38.4796 28.1728 38.6106 28.1748C39.6282 28.1707 40.6426 28.0651 41.6605 28.0622L41.1642 27.5674C41.1642 29.5503 41.2262 31.533 41.2492 33.5156C41.2713 35.4776 41.3006 37.4394 41.3373 39.4011C41.3625 40.7952 41.3836 42.1895 41.384 43.5838C41.386 43.7144 41.4389 43.8391 41.5315 43.9315C41.6242 44.0239 41.7494 44.0766 41.8804 44.0785H45.3772C45.5082 44.0765 45.6333 44.0237 45.7259 43.9313C45.8186 43.839 45.8715 43.7143 45.8736 43.5838C45.915 40.8418 45.8167 38.0951 45.788 35.3531C45.782 34.772 45.7745 34.1896 45.7805 33.6084C45.7869 32.9713 44.7944 32.9718 44.788 33.6092C44.7603 36.3512 44.854 39.0973 44.8784 41.84C44.8836 42.4212 44.8898 43.0026 44.8809 43.5838L45.3772 43.089H41.8804L42.3768 43.5838C42.3768 41.1636 42.3147 38.7443 42.2717 36.325C42.2396 34.5205 42.2318 32.7157 42.1997 30.9114C42.1801 29.7969 42.1584 28.6821 42.1569 27.5674C42.1551 27.4368 42.1022 27.312 42.0095 27.2196C41.9168 27.1272 41.7916 27.0744 41.6605 27.0726C40.6426 27.0755 39.6282 27.1811 38.6106 27.1852L39.107 27.68C39.0888 26.7619 39.064 25.8435 39.0259 24.9261L38.6615 25.4033C40.0348 24.8578 41.6204 23.8392 42.0516 22.3394L41.7048 22.6849C41.7484 22.6754 41.7923 22.6686 41.8363 22.6606C41.9027 22.6484 41.7391 22.6721 41.814 22.663C41.8411 22.6597 41.8684 22.6562 41.8957 22.6533C42.0334 22.6385 42.1716 22.6265 42.3093 22.6166C42.6609 22.5911 43.0113 22.5754 43.3626 22.5632C43.933 22.5316 44.5046 22.5287 45.0753 22.5548L44.5789 22.06C44.6737 23.1217 44.6792 24.1958 44.7067 25.2607C44.7525 27.0308 44.7807 28.8014 44.7913 30.5724C44.7975 31.5847 44.7986 32.597 44.788 33.6092C44.7818 34.2446 45.7739 34.2458 45.7805 33.6084Z" fill="#4F8D00"/>
<path d="M58.4229 24.2546C61.0642 27.4332 61.1984 31.7636 60.7157 35.6733C60.5053 37.2255 60.0377 38.7322 59.3321 40.1317C59.0112 40.8233 58.5585 41.4461 57.9992 41.9653C57.3538 42.5632 56.5666 42.9878 55.7116 43.1994C54.0885 43.58 52.4087 42.9032 51.1916 41.8441C50.6659 41.3867 50.3308 40.6746 50.0541 40.0221C49.6948 39.149 49.4452 38.2349 49.311 37.3007C49.0499 35.4556 48.9547 33.591 49.0266 31.729C49.0761 29.7673 49.4353 27.7632 50.2632 25.9723C50.8375 24.7296 51.6456 23.7105 52.8676 23.0118C53.5607 22.6054 54.3489 22.3883 55.153 22.3822C55.9906 22.413 56.7932 22.7254 57.43 23.2687C57.7917 23.5649 58.1241 23.895 58.4227 24.2544C58.5163 24.3462 58.6424 24.3977 58.7737 24.3977C58.905 24.3977 59.0311 24.3462 59.1246 24.2544C59.2153 24.1603 59.2659 24.0349 59.2659 23.9045C59.2659 23.7741 59.2153 23.6487 59.1246 23.5546C58.4817 22.7578 57.657 22.1257 56.7192 21.7111C55.8086 21.3545 54.8073 21.2982 53.8622 21.5505C52.302 21.9334 50.9482 23.0083 50.0448 24.3115C49.5617 25.0535 49.1792 25.8559 48.9073 26.698C48.5542 27.7271 48.3096 28.79 48.1775 29.8696C48.0521 30.9753 48.0031 32.0882 48.031 33.2006C48.0391 34.1561 48.0668 35.1119 48.1603 36.0633C48.3545 38.0384 48.7439 40.06 49.8401 41.7557C50.2728 42.3861 50.8392 42.914 51.4993 43.3019C52.3146 43.8207 53.2379 44.147 54.1989 44.256C56.234 44.4828 58.2068 43.4435 59.4411 41.8633C59.9471 41.1607 60.3559 40.3934 60.6565 39.5821C61.0031 38.7991 61.2771 37.9862 61.4751 37.1535C61.8694 35.1622 62.0069 33.1289 61.8842 31.1029C61.8113 28.9271 61.1983 26.8033 60.1 24.9217C59.8099 24.4423 59.4838 23.9855 59.1244 23.5553C59.0309 23.4634 58.9048 23.4119 58.7735 23.4119C58.6421 23.4119 58.5161 23.4634 58.4225 23.5553C58.3321 23.6494 58.2816 23.7748 58.2816 23.9051C58.2816 24.0355 58.3321 24.1608 58.4225 24.255L58.4229 24.2546Z" fill="#4F8D00"/>
<path d="M54.9121 38.793C54.5126 38.7802 54.1343 38.6103 53.8601 38.3204C53.5858 38.0816 53.3643 37.7885 53.2096 37.4599C52.7242 36.4521 52.6638 35.3099 52.608 34.2119C52.5437 33.1072 52.5835 31.9989 52.7269 30.9016C52.851 30.0095 53.0297 29.0366 53.5203 28.264C53.8867 27.6868 54.5088 27.0767 55.2575 27.0827C55.3968 27.0998 55.5298 27.1505 55.6451 27.2303C55.8229 27.3504 55.9834 27.4942 56.122 27.6577C56.4715 28.0604 56.7599 28.5119 56.9782 28.9978C57.4663 30.0326 57.5538 31.1626 57.6121 32.2877C57.6406 32.9974 57.6198 33.7083 57.5501 34.4151C57.5321 34.6272 57.5124 34.8392 57.4907 35.051C57.4824 35.1301 57.474 35.2095 57.4647 35.2887C57.4615 35.3159 57.458 35.3433 57.4549 35.3712C57.4413 35.4922 57.4702 35.28 57.4549 35.3765C57.3652 35.8936 57.2158 36.3987 57.0097 36.8816C56.6531 37.7411 55.9534 38.7676 54.9123 38.7928C54.2747 38.808 54.2722 39.7979 54.9123 39.7824C56.0947 39.7539 57.1321 38.8573 57.6514 37.8464C58.0951 36.9907 58.3757 36.0602 58.4787 35.1023C58.5792 34.3518 58.631 33.5957 58.634 32.8386C58.6026 31.5879 58.5318 30.2693 58.0857 29.0885C57.8601 28.4768 57.5492 27.8998 57.1623 27.3744C56.8534 26.9137 56.4376 26.534 55.9501 26.2675C54.9705 25.8065 53.8648 26.3603 53.1834 27.0907C52.4899 27.834 52.1393 28.7727 51.9269 29.7522C51.6735 30.9753 51.5607 32.2232 51.5907 33.4717C51.6138 34.9355 51.685 36.4672 52.2893 37.8219C52.7517 38.8583 53.7314 39.7581 54.9125 39.7824C55.5514 39.7958 55.5514 38.8062 54.9121 38.793Z" fill="#4F8D00"/>
<path d="M53.6997 60.8879C53.3446 60.7683 52.9916 60.6427 52.6418 60.5081C52.4801 60.4463 52.313 60.3875 52.1562 60.3135C52.2787 60.3712 52.1837 60.3248 52.1544 60.3123C52.1156 60.2956 52.0771 60.2787 52.0388 60.2615C51.9664 60.2295 51.8945 60.1965 51.8231 60.1626C51.7094 60.0964 51.574 60.0779 51.4466 60.1112C51.3193 60.1445 51.2104 60.2269 51.144 60.3402C51.0776 60.4535 51.059 60.5885 51.0924 60.7155C51.1258 60.8424 51.2085 60.9509 51.3222 61.0171C52.0098 61.3332 52.7156 61.6086 53.4358 61.8418C53.5627 61.8758 53.698 61.8586 53.8123 61.7939C53.9265 61.7292 54.0107 61.6223 54.0465 61.4963C54.0784 61.3698 54.0601 61.236 53.9955 61.1227C53.9309 61.0093 53.825 60.9251 53.6997 60.8877V60.8879Z" fill="#726A69"/>
<path d="M46.5328 61.8418C47.2095 61.6134 47.8651 61.3313 48.528 61.0668C48.6507 61.0286 48.7558 60.9483 48.8245 60.84C48.8744 60.7551 48.8978 60.6572 48.8916 60.559C48.8854 60.4607 48.8499 60.3665 48.7897 60.2885C48.7296 60.2104 48.6474 60.1521 48.5538 60.1208C48.4601 60.0896 48.3592 60.0869 48.2641 60.1131C47.6023 60.3776 46.9456 60.6596 46.2687 60.8883C46.1418 60.9232 46.034 61.0069 45.969 61.1211C45.904 61.2352 45.8872 61.3705 45.9222 61.497C45.9572 61.6235 46.0412 61.731 46.1557 61.7958C46.2702 61.8606 46.4059 61.8773 46.5328 61.8424V61.8418Z" fill="#726A69"/>
<path d="M31.5221 43.0502C31.3198 45.6018 32.5355 48.0695 33.9245 50.1322C34.636 51.1755 35.4084 52.1764 36.2375 53.1295C37.0141 54.0612 37.88 54.9152 38.8227 55.6794C39.8917 56.559 41.143 57.1916 42.4865 57.5317C43.1082 57.676 43.3735 56.7212 42.7504 56.5773C40.4801 56.0532 38.7143 54.4422 37.2156 52.7456C35.6475 50.9705 34.1429 49.015 33.2188 46.8203C32.6858 45.6376 32.4447 44.3449 32.5157 43.0502C32.5146 42.9193 32.4619 42.7941 32.3691 42.7015C32.2762 42.609 32.1506 42.5565 32.0193 42.5554C31.8885 42.558 31.7637 42.611 31.6712 42.7032C31.5787 42.7954 31.5255 42.9198 31.5229 43.0502H31.5221Z" fill="#4F8D00"/>
<path d="M59.5532 55.7008C59.6248 55.6983 59.6949 55.7223 59.7499 55.7682C59.8389 55.8306 59.8644 55.843 59.8262 55.8055C59.8469 55.8197 59.9089 55.9061 59.8568 55.834C59.8396 55.8101 59.8189 55.7342 59.8603 55.8486C59.8491 55.8177 59.8371 55.7868 59.8283 55.7552C59.7838 55.5993 59.7504 55.4405 59.7284 55.28C59.6658 54.7351 59.6809 54.1842 59.7734 53.6436C59.9756 52.4392 60.5705 51.3349 61.466 50.5018H60.7629C61.0319 50.8146 61.2294 51.1819 61.3419 51.5784C61.4306 51.9933 61.4453 52.4204 61.3856 52.8404C61.3864 52.9713 61.439 53.0967 61.5319 53.1893C61.6248 53.2819 61.7506 53.3343 61.8819 53.3352C62.0127 53.3323 62.1373 53.2793 62.2298 53.1871C62.3222 53.0949 62.3754 52.9707 62.3783 52.8404C62.4463 52.3087 62.4134 51.7691 62.2813 51.2496C62.1115 50.7163 61.8333 50.2235 61.4642 49.802C61.3703 49.7102 61.2441 49.6587 61.1126 49.6587C60.9811 49.6587 60.8548 49.7102 60.761 49.802C60.2187 50.3118 59.763 50.9059 59.4115 51.5611C59.0492 52.2855 58.8229 53.0699 58.7437 53.8756C58.6656 54.504 58.6861 55.1407 58.8043 55.7628C58.879 56.134 59.0655 56.7211 59.5503 56.6906C59.681 56.6877 59.8056 56.6347 59.8981 56.5425C59.9905 56.4503 60.0438 56.3261 60.0467 56.1958C60.0455 56.0649 59.9929 55.9397 59.9 55.8472C59.8072 55.7546 59.6816 55.7021 59.5503 55.701L59.5532 55.7008Z" fill="#4F8D00"/>
<path d="M67.1861 47.6186C67.0755 47.5837 67.2661 47.6746 67.1555 47.607C67.1085 47.5786 67.0606 47.552 67.014 47.5229C66.9094 47.4578 67.0266 47.5435 66.9452 47.4716C66.8897 47.4219 66.8345 47.3732 66.782 47.3204C66.5319 47.061 66.3243 46.764 66.1667 46.4403C65.691 45.5228 65.5049 44.5122 65.9599 43.5467L65.3994 43.7735C65.4528 43.7887 65.5049 43.8075 65.5576 43.8246C65.6641 43.859 65.4902 43.792 65.5498 43.8201C65.576 43.8324 65.6025 43.8442 65.6286 43.8572C65.6819 43.8847 65.734 43.9139 65.7847 43.9448C65.8159 43.9644 65.957 44.0667 65.8674 43.9968C65.9735 44.0807 66.0718 44.174 66.1611 44.2755C66.2461 44.3685 66.3196 44.4713 66.3801 44.5817C66.8072 45.2872 66.9538 46.1859 67.0103 47.0378C67.0133 47.1681 67.0666 47.2922 67.159 47.3844C67.2514 47.4765 67.376 47.5296 67.5067 47.5326C67.638 47.5315 67.7635 47.479 67.8564 47.3864C67.9492 47.2939 68.0019 47.1687 68.003 47.0378C67.8973 45.4433 67.4446 43.3255 65.6627 42.8193C65.5572 42.7911 65.4454 42.798 65.3442 42.8389C65.243 42.8799 65.158 42.9526 65.102 43.0461C64.7995 43.6556 64.6617 44.3332 64.7022 45.0119C64.7721 45.6639 64.9667 46.2965 65.2757 46.8753C65.6143 47.5509 66.1599 48.3317 66.9208 48.5719C67.5313 48.7645 67.7925 47.8091 67.1847 47.6175L67.1861 47.6186Z" fill="#4F8D00"/>
<path d="M61.6723 55.6303C62.5953 54.9843 63.6992 54.6452 64.8268 54.6613C65.7602 54.6514 66.61 54.8069 67.5072 54.9075L67.0284 54.2811C66.8423 54.8339 66.5337 55.3377 66.1256 55.7553C65.7174 56.1729 65.2202 56.4935 64.6707 56.6933C64.1074 56.8981 63.5074 56.9834 62.9091 56.9438C62.3109 56.9043 61.7275 56.7407 61.1962 56.4636C60.9807 56.3558 60.7738 56.2318 60.5772 56.0925C60.53 56.0593 60.5946 56.1072 60.5991 56.1107C60.5803 56.0958 60.5609 56.0812 60.5429 56.0653C60.5151 56.0406 60.4864 56.0171 60.4601 55.9911C60.4401 55.9676 60.4186 55.9454 60.3956 55.9247C60.342 55.8857 60.4626 56.0278 60.4163 55.9466C60.1005 55.393 59.2426 55.8911 59.5592 56.4461C59.7547 56.7888 60.1648 57.0288 60.4984 57.2141C61.0566 57.5264 61.6631 57.7439 62.2929 57.8578C63.0947 57.9956 63.9177 57.9454 64.6966 57.7113C65.4756 57.4771 66.1892 57.0653 66.7808 56.5086C67.3503 55.9721 67.7663 55.2943 67.9862 54.5446C68.005 54.4712 68.0069 54.3946 67.9918 54.3203C67.9767 54.2461 67.9449 54.1763 67.8989 54.116C67.8529 54.0558 67.7937 54.0067 67.726 53.9724C67.6582 53.9382 67.5836 53.9197 67.5076 53.9183C67.1184 53.8748 66.6973 53.8071 66.2392 53.7548C65.7222 53.6914 65.2013 53.6647 64.6804 53.675C63.4262 53.6806 62.2029 54.0644 61.1716 54.7759C61.0608 54.8447 60.9806 54.9532 60.9475 55.079C60.9143 55.2049 60.9308 55.3387 60.9935 55.4528C61.0606 55.5654 61.1695 55.6471 61.2966 55.6804C61.4237 55.7136 61.5588 55.6956 61.6727 55.6303H61.6723Z" fill="#4F8D00"/>
<path d="M64.6291 51.561C64.4426 51.4181 64.2394 51.2983 64.0239 51.2044C63.9638 51.1677 63.9061 51.1281 63.8492 51.0864C63.9673 51.1726 63.8432 51.0796 63.8206 51.059C63.7857 51.0266 63.7503 50.9945 63.7172 50.9605C63.6841 50.9264 63.6482 50.886 63.6138 50.8479C63.5276 50.75 63.6697 50.9304 63.5909 50.8199C63.5206 50.7218 63.4575 50.6189 63.402 50.5118C63.2898 50.2759 63.2087 50.0264 63.1609 49.7696C63.0896 49.404 63.0609 49.0314 63.0753 48.6592C63.0951 48.2688 63.2011 47.8875 63.3859 47.5428C63.5707 47.198 63.8296 46.8981 64.1441 46.6647H63.4422C63.9431 47.1667 64.34 47.7622 64.6101 48.4171C64.7751 48.77 64.9044 49.1383 64.9962 49.5167C65.0724 49.8144 65.0952 50.1233 65.0634 50.429C65.032 50.5554 65.0504 50.689 65.115 50.8023C65.1795 50.9155 65.2852 50.9998 65.4102 51.0376C65.5371 51.0712 65.6722 51.0538 65.7863 50.9892C65.9005 50.9246 65.9847 50.8179 66.0208 50.692C66.1945 49.7869 65.8898 48.8689 65.5265 48.0481C65.1968 47.3036 64.7548 46.5177 64.1441 45.9643C64.0489 45.8757 63.9234 45.8264 63.7931 45.8264C63.6628 45.8264 63.5374 45.8757 63.4422 45.9643C62.8661 46.4187 62.4438 47.0385 62.2325 47.7399C62.0469 48.4456 62.0284 49.1846 62.1785 49.8987C62.327 50.7636 62.7479 51.5782 63.5104 52.0501C63.6113 52.1119 63.7172 52.1649 63.8237 52.2175C63.8612 52.2358 63.8982 52.2558 63.9358 52.2736C63.9493 52.2798 63.9702 52.3006 63.9846 52.302C64.0221 52.3057 63.8812 52.2132 63.9269 52.2593C64.3743 52.7154 65.076 52.0154 64.6289 51.5596L64.6291 51.561Z" fill="#4F8D00"/>
<path d="M68.0327 50.2078C68.7382 50.042 69.4605 49.9578 70.1853 49.9567L69.6889 49.4619C69.6921 49.5051 69.6921 49.5484 69.6889 49.5916C69.6889 49.6299 69.6631 49.7483 69.6916 49.5881C69.6842 49.6293 69.6778 49.6705 69.6695 49.7118C69.6274 49.9174 69.5669 50.1188 69.4887 50.3136C69.4668 50.3676 69.4642 50.3745 69.4809 50.3342C69.4668 50.3659 69.4525 50.3975 69.4376 50.4286C69.4068 50.4938 69.3741 50.558 69.3396 50.6214C69.2661 50.7571 69.1839 50.8879 69.0935 51.0131C68.9165 51.2539 68.7042 51.4669 68.4637 51.6448C67.8179 52.113 67.0364 52.3584 66.238 52.3437C65.7993 52.3047 65.3685 52.203 64.9588 52.0417C64.3512 51.8403 64.0902 52.7957 64.6949 52.9959C65.0436 53.1265 65.4036 53.2247 65.7704 53.2894C66.7567 53.4162 67.757 53.2089 68.6109 52.7008C69.4649 52.1928 70.1228 51.4135 70.4792 50.488C70.6214 50.165 70.6902 49.8147 70.6806 49.4621C70.6778 49.3318 70.6245 49.2075 70.5321 49.1154C70.4396 49.0232 70.315 48.9701 70.1842 48.9673C69.3704 48.9706 68.5597 49.0667 67.7678 49.2539C67.1498 49.4136 67.4119 50.3684 68.0317 50.208L68.0327 50.2078Z" fill="#4F8D00"/>
<path d="M69.8405 44.8001C70.1955 44.5246 70.5779 44.2862 70.9817 44.0884C71.13 44.0164 71.2831 43.9544 71.4398 43.9028C71.5225 43.8754 71.6079 43.8505 71.6935 43.8298C71.7378 43.8191 71.7823 43.8103 71.8269 43.801C71.842 43.7979 71.9554 43.7822 71.872 43.7921L71.3935 43.4288C71.5546 44.3945 71.1151 45.5015 70.3906 46.1998C70.317 46.2707 70.2425 46.341 70.1662 46.4088C70.1265 46.4443 70.0862 46.4791 70.0452 46.5132C70.0301 46.5259 69.9071 46.6212 69.9873 46.5612C69.8249 46.6833 69.6499 46.7877 69.4651 46.8725C69.4335 46.8867 69.437 46.8855 69.4752 46.869C69.4452 46.881 69.4151 46.8925 69.3846 46.9032C69.3378 46.9201 69.2904 46.9357 69.2426 46.95C69.1222 46.986 68.9998 47.015 68.8761 47.0368C68.5917 47.0793 68.3041 47.0977 68.0166 47.0919C67.3777 47.0898 67.3769 48.0794 68.0166 48.0815C68.6767 48.1056 69.3343 47.9881 69.9449 47.7368C70.3871 47.5175 70.7873 47.2226 71.1275 46.8657C71.6116 46.3903 71.9751 45.8066 72.1878 45.1632C72.4005 44.5197 72.4563 43.835 72.3506 43.1658C72.322 43.0612 72.2596 42.9689 72.1731 42.9032C72.0866 42.8376 71.9808 42.8022 71.872 42.8025C70.9399 42.9126 70.0748 43.3818 69.3396 43.9453C69.2291 44.0145 69.1492 44.1229 69.1162 44.2487C69.0831 44.3745 69.0993 44.5081 69.1615 44.6224C69.2285 44.7351 69.3373 44.8169 69.4644 44.8502C69.5915 44.8834 69.7266 44.8653 69.8405 44.7999V44.8001Z" fill="#4F8D00"/>
<path d="M68.4929 46.4456C68.5716 46.2736 68.6628 46.1075 68.7659 45.9489C68.8214 45.8635 68.8805 45.7809 68.9411 45.699C68.9798 45.6464 68.9345 45.7085 68.9204 45.7258C68.9372 45.7064 68.9525 45.6846 68.9686 45.6654C69.0012 45.6251 69.0342 45.5855 69.0679 45.5464C69.3313 45.2434 69.6241 44.9672 69.9421 44.7218C69.9881 44.6757 70.0246 44.621 70.0495 44.5609C70.0743 44.5007 70.087 44.4363 70.0869 44.3713C70.0862 44.2401 70.0343 44.1144 69.9421 44.0208C69.8486 43.9283 69.7222 43.8764 69.5905 43.8765C69.4604 43.8838 69.3365 43.9346 69.2389 44.0208C68.5588 44.5259 68.0091 45.1852 67.6353 45.9441C67.572 46.0608 67.5542 46.1966 67.5852 46.3256C67.6111 46.4195 67.6643 46.5037 67.738 46.5676C67.8117 46.6315 67.9026 46.6724 67.9995 46.685C68.0964 46.6976 68.1948 46.6814 68.2825 46.6385C68.3702 46.5956 68.4433 46.5278 68.4925 46.4437L68.4929 46.4456Z" fill="#5A9410"/>
<path d="M67.196 38.7432C66.6648 38.4855 66.0675 38.3949 65.4834 38.4834C65.3999 38.5049 65.3238 38.5483 65.2628 38.6091C65.2019 38.6698 65.1583 38.7458 65.1368 38.829C64.9879 39.36 65.0062 39.9238 65.1893 40.4441C65.3528 40.8482 65.5782 41.2246 65.8573 41.5599C66.3861 42.2411 67.1333 42.7209 67.9741 42.9192C68.1009 42.9514 68.2353 42.9335 68.3492 42.8692C68.4631 42.805 68.5477 42.6993 68.5852 42.5743C68.6188 42.4478 68.6013 42.3132 68.5365 42.1994C68.4717 42.0857 68.3647 42.0017 68.2386 41.9656C67.873 41.894 67.5279 41.7426 67.2279 41.5224C67.219 41.5162 67.1212 41.4442 67.1658 41.4791C67.2043 41.5082 67.105 41.429 67.0933 41.4189C67.0325 41.3675 66.9734 41.3141 66.9162 41.2587C66.8068 41.1509 66.7033 41.0374 66.606 40.9187C66.5682 40.8734 66.5646 40.868 66.6039 40.9187C66.5827 40.8912 66.5616 40.8631 66.5406 40.8344C66.5051 40.7859 66.4705 40.7367 66.4372 40.6872C66.322 40.5275 66.2237 40.3563 66.1438 40.1765C66.0077 39.8308 65.9904 39.4498 66.0947 39.0933L65.7481 39.4388C65.91 39.4217 66.0736 39.4273 66.2339 39.4555C66.3929 39.4858 66.5479 39.5342 66.6958 39.5998C66.8102 39.6627 66.9445 39.6794 67.0709 39.6464C67.1973 39.6133 67.3062 39.5331 67.3749 39.4223C67.4402 39.3088 67.4581 39.1742 67.4248 39.0476C67.3915 38.921 67.3096 38.8125 67.1969 38.7455L67.196 38.7432Z" fill="#4F8D00"/>
<path d="M68.9203 42.9188C68.7392 41.7643 68.3582 40.519 68.6649 39.3521C68.9437 38.2926 69.9461 37.4951 70.8394 36.9463L70.1602 36.7688C70.5122 37.4556 70.738 38.1996 70.827 38.9657C70.8713 39.6054 70.7869 40.2475 70.5788 40.8543C70.5065 41.0454 70.3957 41.2198 70.2533 41.3666C70.0662 41.57 69.86 41.7551 69.6374 41.9191C69.3982 42.0966 69.1446 42.2538 68.8792 42.3892C68.7944 42.4364 68.7054 42.4755 68.6132 42.5059C68.5719 42.5191 68.5295 42.5306 68.4891 42.5438C68.3522 42.5871 68.5098 42.5508 68.4434 42.5556C68.3128 42.5587 68.1883 42.6118 68.0959 42.7039C68.0035 42.7961 67.9502 42.9201 67.9471 43.0504C67.9481 43.1813 68.0007 43.3066 68.0936 43.3991C68.1864 43.4917 68.3121 43.5442 68.4434 43.5452C69.0601 43.5005 69.6531 43.1296 70.1393 42.7737C70.6865 42.3735 71.2541 41.8872 71.4975 41.2359C71.7668 40.5112 71.8772 39.7374 71.8211 38.9666C71.7197 38.0268 71.4479 37.1132 71.0189 36.2703C70.9517 36.1578 70.8428 36.0761 70.7158 36.0429C70.5887 36.0097 70.4537 36.0276 70.3397 36.0927C69.2392 36.7686 68.1061 37.738 67.7293 39.0185C67.327 40.3819 67.7518 41.827 67.9644 43.1819C68.0002 43.308 68.0844 43.4149 68.1987 43.4796C68.313 43.5443 68.4482 43.5615 68.5752 43.5275C68.7003 43.4899 68.8062 43.4057 68.8707 43.2923C68.9353 43.179 68.9536 43.0453 68.9218 42.9188H68.9203Z" fill="#4F8D00"/>
<path d="M67.9215 43.0502C68.1108 45.4391 66.953 47.7045 65.6546 49.6326C64.9909 50.6065 64.2704 51.5406 63.4967 52.4302C62.7461 53.329 61.9137 54.1566 61.0102 54.9026C60.0432 55.7032 58.9073 56.2757 57.6872 56.5773C57.0651 56.7216 57.3284 57.6754 57.9511 57.5317C60.3818 56.9705 62.3164 55.2652 63.924 53.4454C65.6004 51.5476 67.1786 49.4712 68.1594 47.1233C68.695 45.8405 69.0249 44.446 68.9142 43.0502C68.911 42.92 68.8577 42.796 68.7653 42.7039C68.6729 42.6118 68.5485 42.5586 68.4179 42.5554C68.2866 42.5564 68.1609 42.6089 68.068 42.7015C67.9752 42.7941 67.9226 42.9193 67.9215 43.0502Z" fill="#4F8D00"/>
</g>
</svg>
