<svg width="130" height="80" viewBox="0 0 130 80" fill="none" xmlns="http://www.w3.org/2000/svg">
<mask id="mask0_1621_24309" style="mask-type:alpha" maskUnits="userSpaceOnUse" x="0" y="0" width="130" height="80">
<path d="M0 0H130V80H0V0Z" fill="#D9D9D9"/>
</mask>
<g mask="url(#mask0_1621_24309)">
<path d="M97.0173 25.5179C89.8879 25.5179 81.2192 25.5179 81.2192 25.5179C81.0301 25.5179 80.8767 25.3645 80.8767 25.1755V9.06647C80.8767 8.87749 80.7232 8.72412 80.5341 8.72412H50.3917C50.2026 8.72412 50.0492 8.87544 50.0492 9.06441C50.0492 10.6902 50.0492 17.8901 50.0492 25.1752C50.0492 25.3642 49.8957 25.5179 49.7067 25.5179H24.7039C24.5148 25.5179 24.3613 25.6713 24.3613 25.8602V71.3134C41.6751 71.3141 73.2643 71.3141 106.568 71.3134V25.8602C106.568 25.6713 106.415 25.5179 106.225 25.5179C106.225 25.5179 101.997 25.5179 97.0173 25.5179Z" fill="white"/>
<path d="M105.105 71.3147C105.105 71.3147 105.105 69.3034 105.105 67.2925C105.807 67.4284 106.578 67.4989 107.069 67.4989C107.418 67.4989 108.146 67.4363 108.849 67.3144C108.849 69.3144 108.849 71.3147 108.849 71.3147H105.105Z" fill="white"/>
<path d="M108.14 54.5635C107.505 54.0753 106.629 54.0756 105.994 54.5638C104.509 55.7066 103.364 57.2762 102.664 59.016C102.451 59.546 102.277 60.093 102.174 60.6545C102.075 61.1889 102.041 61.7325 102.006 62.2748C101.945 63.2306 101.89 64.2221 102.235 65.1156C102.534 65.8896 103.132 66.5415 103.871 66.9201C104.61 67.2984 106.24 67.499 107.068 67.499C107.692 67.499 109.525 67.2984 110.264 66.9201C111.003 66.5418 111.601 65.89 111.9 65.1156C112.245 64.2221 112.19 63.231 112.129 62.2748C112.095 61.7325 112.06 61.1889 111.962 60.6545C111.858 60.093 111.685 59.546 111.472 59.016C110.772 57.2759 109.626 55.7059 108.14 54.5635Z" fill="#65B005"/>
<path d="M21.9004 71.3147C21.9004 71.3147 21.9004 69.3034 21.9004 67.2925C22.6015 67.4284 23.3733 67.4989 23.8638 67.4989C24.2131 67.4989 24.941 67.4363 25.6439 67.3144C25.6439 69.3144 25.6439 71.3147 25.6439 71.3147H21.9004Z" fill="white"/>
<path d="M24.935 54.563C24.3 54.0748 23.4235 54.0751 22.7887 54.5633C21.3039 55.7061 20.1585 57.2757 19.4587 59.0155C19.2456 59.5455 19.072 60.0926 18.9685 60.654C18.8699 61.1884 18.8356 61.732 18.801 62.2743C18.7404 63.2302 18.6849 64.2216 19.0302 65.1151C19.3292 65.8891 19.9269 66.541 20.6661 66.9196C21.4049 67.2979 23.0347 67.4985 23.8626 67.4985C24.487 67.4985 26.3199 67.2979 27.059 66.9196C27.7979 66.5413 28.3959 65.8895 28.695 65.1151C29.0402 64.2216 28.9847 63.2305 28.9241 62.2743C28.8898 61.732 28.8553 61.1884 28.7566 60.654C28.6532 60.0926 28.4795 59.5455 28.2664 59.0155C27.5667 57.2754 26.4213 55.7054 24.935 54.563Z" fill="#65B005"/>
<path d="M28.2641 59.0155C28.4771 59.5454 28.6508 60.0925 28.7543 60.6539C28.8529 61.1883 28.8872 61.732 28.9218 62.2743C28.9673 62.9911 29.0098 63.7282 28.8827 64.4286H50.0502C50.0502 64.4286 50.0502 60.6508 50.0506 54.73H25.1348C26.521 55.8566 27.5969 57.3565 28.2641 59.0155Z" fill="#E3EFF6"/>
<path d="M102.007 62.2743C102.042 61.732 102.076 61.1883 102.175 60.6539C102.278 60.0925 102.452 59.5454 102.665 59.0155C103.332 57.3568 104.408 55.857 105.794 54.73H80.8789V64.4286H102.046C101.919 63.7282 101.962 62.9911 102.007 62.2743Z" fill="#E3EFF6"/>
<path d="M77.1438 55.3784C77.1438 55.1624 77.1438 54.946 77.1438 54.73H53.7012V71.3139C57.1857 71.3139 67.0039 71.3139 77.1438 71.3139C77.1438 66 77.1438 60.6892 77.1438 55.3787V55.3784Z" fill="#E3EFF6"/>
<path d="M91.1317 32.9705C68.6544 32.9705 47.0484 32.9705 24.3594 32.9705V43.6551C64.9009 43.6551 106.566 43.6551 106.566 43.6551C106.566 40.2241 106.566 36.6298 106.566 32.9705C101.361 32.9705 96.2241 32.9705 91.1317 32.9705Z" fill="#E3EFF6"/>
<path d="M50.7373 71.3137V54.7305C50.7373 53.8493 49.3672 53.8479 49.3672 54.7305V71.3137C49.3672 72.1949 50.7373 72.1963 50.7373 71.3137Z" fill="#726A69"/>
<path d="M54.3955 71.3137V54.7305C54.3955 53.8493 53.0254 53.8479 53.0254 54.7305V71.3137C53.0254 72.1949 54.3955 72.1963 54.3955 71.3137Z" fill="#726A69"/>
<path d="M81.5596 71.3137V54.7305C81.5596 53.8493 80.1895 53.8479 80.1895 54.7305V71.3137C80.1895 72.1949 81.5596 72.1963 81.5596 71.3137Z" fill="#726A69"/>
<path d="M77.831 71.3137V54.7305C77.831 53.8493 76.4609 53.8479 76.4609 54.7305V71.3137C76.4609 72.1949 77.831 72.1963 77.831 71.3137Z" fill="#726A69"/>
<path d="M71.3236 19.7783C71.3236 18.8386 71.3236 17.8992 71.3236 16.9594C71.3236 16.7704 71.1701 16.6171 70.9811 16.6171H67.2184C67.2184 15.4017 67.2184 14.132 67.2187 12.8571C67.2187 12.6681 67.0653 12.5144 66.8762 12.5144H64.0551C63.8661 12.5144 63.7126 12.6678 63.7126 12.8567V16.6171H59.9499C59.7609 16.6171 59.6074 16.7704 59.6074 16.9594V19.779C59.6074 19.968 59.7612 20.1213 59.9503 20.1213C61.2262 20.1213 62.4963 20.121 63.7126 20.121V23.882C63.7126 24.071 63.8661 24.2243 64.0551 24.2243C64.9954 24.2243 65.9353 24.2243 66.8755 24.2243C67.0646 24.2243 67.218 24.0737 67.218 23.8847C67.218 22.9833 67.218 21.6715 67.218 20.121C68.7693 20.121 70.0819 20.121 70.9841 20.121C71.1732 20.121 71.3239 19.9676 71.3239 19.7786L71.3236 19.7783Z" fill="#726A69"/>
<path d="M25.0481 54.2712V26.6309C25.0481 26.4115 25.0912 26.142 25.0481 25.926C24.9926 25.6477 25.2906 26.4255 24.7117 26.2023C24.7538 26.2184 24.8364 26.2023 24.8802 26.2023H49.2144C49.3764 26.2023 49.5429 26.2129 49.7049 26.2023C49.9991 26.1831 50.2663 26.0828 50.4681 25.8613C50.8079 25.4875 50.7342 24.9585 50.7342 24.4926V10.2141C50.7342 9.90116 50.8037 9.49343 50.7342 9.18805C50.6773 8.9378 50.3811 9.39825 50.4054 9.40681C50.4235 9.41332 50.4489 9.40339 50.4681 9.40681C50.5489 9.42153 50.6472 9.40681 50.7291 9.40681H79.8662C80.0539 9.40681 80.3043 9.45097 80.4879 9.40681C80.704 9.35478 80.2354 8.97203 80.195 9.08603C80.169 9.1593 80.195 9.28973 80.195 9.36642V24.988C80.195 25.6271 80.5348 26.1591 81.2308 26.2023C81.4202 26.2139 81.6144 26.2023 81.8042 26.2023H105.203C105.495 26.2023 105.8 26.2286 106.09 26.2023C106.128 26.1989 106.191 26.217 106.225 26.2023C105.216 26.6282 105.946 25.6881 105.885 25.8791C105.878 25.9007 105.888 25.9291 105.885 25.9513C105.846 26.1841 105.885 26.4573 105.885 26.6925V54.2709C105.885 55.152 107.255 55.1534 107.255 54.2709V27.824C107.255 27.1834 107.287 26.5337 107.255 25.8938C107.197 24.7456 106.175 24.8329 105.362 24.8329H81.8621C81.686 24.8329 81.4082 24.7788 81.238 24.8329C81.2401 24.8322 81.5185 25.3615 81.5651 25.0975C81.5867 24.9746 81.5651 24.8271 81.5651 24.7025V10.1569C81.5651 9.28596 81.7244 8.08947 80.4796 8.03743C78.4711 7.95321 76.4409 8.03743 74.431 8.03743H50.6359C50.2064 8.03743 49.7775 8.10761 49.5237 8.51706C49.3018 8.87515 49.3638 9.35341 49.3638 9.75874V24.152C49.3638 24.3351 49.2935 24.7473 49.3638 24.9192V25.0044C49.7196 24.8901 49.8334 24.8326 49.7053 24.8329C49.7039 24.8322 49.7015 24.8336 49.7001 24.8329C49.694 24.8305 49.6847 24.8346 49.6782 24.8329C49.4871 24.7819 49.2113 24.8329 49.0154 24.8329H25.4748C24.6733 24.8329 23.7252 24.7976 23.6779 25.9127C23.5896 27.9951 23.6779 30.1006 23.6779 32.1844V54.2712C23.6779 55.1524 25.0481 55.1538 25.0481 54.2712Z" fill="#726A69"/>
<path d="M34.1807 43.6532V32.971C34.1807 32.0898 32.8105 32.0884 32.8105 32.971V43.6532C32.8105 44.5344 34.1807 44.5358 34.1807 43.6532Z" fill="#726A69"/>
<path d="M43.3096 43.6551V32.9705C43.3096 32.0893 41.9395 32.0879 41.9395 32.9705V43.6551C41.9395 44.5363 43.3096 44.5377 43.3096 43.6551Z" fill="#726A69"/>
<path d="M52.4443 43.658V33.1189C52.4443 32.2377 51.0742 32.2364 51.0742 33.1189V43.658C51.0742 44.5392 52.4443 44.5406 52.4443 43.658Z" fill="#726A69"/>
<path d="M61.5791 43.6583V32.971C61.5791 32.0898 60.209 32.0884 60.209 32.971V43.6583C60.209 44.5395 61.5791 44.5409 61.5791 43.6583Z" fill="#726A69"/>
<path d="M70.7139 43.6537V32.9715C70.7139 32.0903 69.3438 32.0889 69.3438 32.9715V43.6537C69.3438 44.5349 70.7139 44.5362 70.7139 43.6537Z" fill="#726A69"/>
<path d="M79.8506 43.6532V32.971C79.8506 32.0898 78.4805 32.0884 78.4805 32.971V43.6532C78.4805 44.5344 79.8506 44.5358 79.8506 43.6532Z" fill="#726A69"/>
<path d="M88.9834 43.6532V32.971C88.9834 32.0898 87.6133 32.0884 87.6133 32.971V43.6532C87.6133 44.5344 88.9834 44.5358 88.9834 43.6532Z" fill="#726A69"/>
<path d="M98.1201 43.6532V32.971C98.1201 32.0898 96.75 32.0884 96.75 32.971V43.6532C96.75 44.5344 98.1201 44.5358 98.1201 43.6532Z" fill="#726A69"/>
<path d="M24.359 33.6553H106.528C107.409 33.6553 107.411 32.2859 106.528 32.2859H24.359C23.4774 32.2859 23.476 33.6553 24.359 33.6553Z" fill="#726A69"/>
<path d="M106.566 42.9709H24.359C23.4774 42.9709 23.476 44.3403 24.359 44.3403H106.566C107.447 44.3403 107.449 42.9709 106.566 42.9709Z" fill="#726A69"/>
<path d="M34.1807 64.4292V54.7305C34.1807 53.8493 32.8105 53.8479 32.8105 54.7305V64.4292C32.8105 65.3104 34.1807 65.3117 34.1807 64.4292Z" fill="#726A69"/>
<path d="M43.3096 64.4292V54.7305C43.3096 53.8493 41.9395 53.8479 41.9395 54.7305V64.4292C41.9395 65.3104 43.3096 65.3117 43.3096 64.4292Z" fill="#726A69"/>
<path d="M25.1422 55.4158H50.0508C50.9325 55.4158 50.9339 54.0464 50.0508 54.0464H25.1422C24.2606 54.0464 24.2592 55.4158 25.1422 55.4158Z" fill="#726A69"/>
<path d="M50.055 63.7437H28.9704C28.0887 63.7437 28.0873 65.113 28.9704 65.113H50.055C50.9367 65.113 50.938 63.7437 50.055 63.7437Z" fill="#726A69"/>
<path d="M88.9834 64.4282V54.7295C88.9834 53.8483 87.6133 53.847 87.6133 54.7295V64.4282C87.6133 65.3094 88.9834 65.3107 88.9834 64.4282Z" fill="#726A69"/>
<path d="M98.1201 64.2758V54.7295C98.1201 53.8483 96.75 53.847 96.75 54.7295V64.2758C96.75 65.157 98.1201 65.1584 98.1201 64.2758Z" fill="#726A69"/>
<path d="M105.789 54.0464H81.0309C80.1492 54.0464 80.1479 55.4158 81.0309 55.4158H105.789C106.67 55.4158 106.672 54.0464 105.789 54.0464Z" fill="#726A69"/>
<path d="M102.045 63.7437H80.8766C79.9949 63.7437 79.9936 65.113 80.8766 65.113H102.045C102.926 65.113 102.928 63.7437 102.045 63.7437Z" fill="#726A69"/>
<path d="M108.166 67.3159V71.3145C108.166 71.6726 108.481 72.0156 108.851 71.9992C109.221 71.9827 109.536 71.6982 109.536 71.3145V67.3159C109.536 66.9578 109.221 66.6148 108.851 66.6312C108.481 66.6476 108.166 66.9321 108.166 67.3159Z" fill="#726A69"/>
<path d="M104.422 67.2927V71.3149C104.422 71.673 104.737 72.016 105.107 71.9996C105.477 71.9832 105.792 71.6987 105.792 71.3149V67.2927C105.792 66.9346 105.477 66.5916 105.107 66.608C104.737 66.6244 104.422 66.9089 104.422 67.2927Z" fill="#726A69"/>
<path d="M108.489 53.9715C107.919 53.5665 107.195 53.4196 106.512 53.5771C105.829 53.7346 105.281 54.2323 104.782 54.7C103.792 55.6281 102.971 56.7585 102.381 57.979C102.066 58.6304 101.793 59.3124 101.616 60.0149C101.418 60.8023 101.364 61.6171 101.315 62.4247C101.226 63.9101 101.323 65.3657 102.321 66.5499C103.137 67.5181 104.289 67.8741 105.499 68.0466C106.569 68.1993 107.569 68.1891 108.637 68.0357C109.811 67.8673 110.908 67.5568 111.734 66.6485C112.769 65.5099 112.919 64.0522 112.835 62.5763C112.784 61.6664 112.727 60.7472 112.486 59.8642C112.273 59.0847 111.952 58.3244 111.574 57.6109C110.851 56.2481 109.845 55.0273 108.627 54.0779C108.336 53.8506 107.942 53.7938 107.658 54.0779C107.422 54.3145 107.365 54.8174 107.658 55.0461C109.493 56.4774 110.919 58.5996 111.318 60.9153C111.429 61.5599 111.454 62.2278 111.481 62.8807C111.506 63.4993 111.503 64.1223 111.316 64.7184C111.021 65.6571 110.247 66.287 109.335 66.5147C108.564 66.7071 107.737 66.8272 106.94 66.8111C106.083 66.7937 105.093 66.7053 104.297 66.3644C103.262 65.9214 102.723 64.8711 102.661 63.7927C102.587 62.5291 102.686 61.1395 103.065 59.9296C103.453 58.6897 104.108 57.5028 104.949 56.512C105.621 55.7195 106.683 54.36 107.798 55.1532C108.099 55.3679 108.56 55.2066 108.735 54.9074C108.936 54.5637 108.791 54.1864 108.489 53.9715Z" fill="#4F8D00"/>
<path d="M24.9551 67.3159V71.3145C24.9551 71.6726 25.2702 72.0156 25.6401 71.9992C26.0101 71.9827 26.3252 71.6982 26.3252 71.3145V67.3159C26.3252 66.9578 26.0101 66.6148 25.6401 66.6312C25.2702 66.6476 24.9551 66.9321 24.9551 67.3159Z" fill="#726A69"/>
<path d="M21.2109 67.2927V71.3149C21.2109 71.673 21.5261 72.016 21.896 71.9996C22.2659 71.9832 22.581 71.6987 22.581 71.3149V67.2927C22.581 66.9346 22.2659 66.5916 21.896 66.608C21.5261 66.6244 21.2109 66.9089 21.2109 67.2927Z" fill="#726A69"/>
<path d="M25.2778 53.9715C24.7086 53.5665 23.9838 53.4196 23.3011 53.5771C22.6185 53.7346 22.0701 54.2323 21.571 54.7C20.5811 55.6281 19.7604 56.7585 19.1699 57.979C18.8548 58.6304 18.5818 59.3124 18.405 60.0149C18.207 60.8023 18.1526 61.6171 18.1039 62.4247C18.0149 63.9101 18.1122 65.3657 19.1103 66.5499C19.9262 67.5181 21.0781 67.8741 22.2876 68.0467C23.358 68.1993 24.3578 68.1891 25.4262 68.0357C26.5997 67.8673 27.6971 67.5568 28.5229 66.6485C29.5584 65.5099 29.7077 64.0522 29.6245 62.5763C29.5735 61.6664 29.5156 60.7472 29.2748 59.8642C29.0621 59.0847 28.7415 58.3244 28.363 57.6109C27.6399 56.2481 26.6336 55.0273 25.4162 54.0779C25.1247 53.8506 24.7315 53.7938 24.4476 54.0779C24.2109 54.3145 24.1543 54.8174 24.4476 55.0461C26.2821 56.4774 27.7081 58.5996 28.1068 60.9153C28.2178 61.5599 28.2428 62.2278 28.2698 62.8807C28.2955 63.4993 28.2921 64.1223 28.1051 64.7184C27.8101 65.6571 27.0364 66.287 26.1242 66.5147C25.3529 66.7071 24.526 66.8272 23.7293 66.8111C22.8716 66.7937 21.8824 66.7053 21.086 66.3644C20.0512 65.9214 19.5124 64.8711 19.4497 63.7927C19.3764 62.5291 19.4747 61.1395 19.8536 59.9296C20.2417 58.6897 20.8966 57.5028 21.7378 56.512C22.4105 55.7195 23.4717 54.36 24.5866 55.1532C24.888 55.3679 25.3491 55.2066 25.5238 54.9074C25.7248 54.5637 25.5803 54.1858 25.2778 53.9708V53.9715Z" fill="#4F8D00"/>
<path d="M10.6618 71.999H120.271C121.152 71.999 121.154 70.6296 120.271 70.6296H10.6618C9.7801 70.6296 9.77873 71.999 10.6618 71.999Z" fill="#726A69"/>
<path d="M49.7112 55.4152C59.8178 55.4152 69.9248 55.4152 80.0314 55.4152C80.5613 55.4152 81.3063 55.5501 81.7718 55.2556C82.0924 55.053 82.2338 54.7147 82.2513 54.3481C82.2712 53.9304 82.2513 53.5069 82.2513 53.0893V51.2909C82.2513 50.8093 82.3092 50.2995 81.9105 49.9376C81.581 49.6384 81.1778 49.671 80.774 49.671H49.8992C49.1594 49.671 48.6836 50.1324 48.6836 50.8907V54.0578C48.6836 54.6483 48.8264 55.2779 49.529 55.3912C49.8937 55.4501 50.2661 55.2967 50.3716 54.913C50.4613 54.5867 50.2606 54.13 49.8931 54.0708C50.338 54.1423 50.014 54.5309 50.0534 54.3265C50.065 54.2663 50.0534 54.192 50.0534 54.1304V51.029C50.0534 50.9476 50.0866 50.7826 50.0534 50.7045C50.2613 51.191 49.4467 51.0054 49.8441 51.0403C50.7792 51.1228 51.7598 51.0403 52.6977 51.0403H81.0203C81.0706 51.0403 81.1689 51.0599 81.2172 51.0403C80.6418 51.2725 80.9432 50.4375 80.8808 50.8171C80.8531 50.9856 80.8808 51.1865 80.8808 51.3567V53.0893C80.8808 53.4789 80.8117 53.9417 80.8808 54.3262C80.9305 54.6011 80.5894 53.6199 81.0531 54.0461C80.9583 53.9588 80.3194 54.0461 80.2016 54.0461C79.5772 54.0461 78.9524 54.0461 78.328 54.0461C77.1357 54.0461 75.9433 54.0461 74.751 54.0461C72.3663 54.0461 69.9813 54.0461 67.5966 54.0461C62.8269 54.0461 58.0575 54.0461 53.2879 54.0461C52.0955 54.0461 50.9032 54.0461 49.7108 54.0461C48.8292 54.0461 48.8278 55.4155 49.7108 55.4155L49.7112 55.4152Z" fill="#726A69"/>
</g>
</svg>
