<svg width="130" height="80" viewBox="0 0 130 80" fill="none" xmlns="http://www.w3.org/2000/svg">
<mask id="mask0_1621_25145" style="mask-type:alpha" maskUnits="userSpaceOnUse" x="0" y="0" width="130" height="80">
<path d="M0 0H130V80H0V0Z" fill="#D9D9D9"/>
</mask>
<g mask="url(#mask0_1621_25145)">
</g>
<g clip-path="url(#clip0_1621_25145)">
<path d="M30.5678 37.8953C30.6508 38.4235 30.7316 38.9215 30.8046 39.3517C30.4059 38.8146 29.6766 38.5636 29.0539 38.7749C28.3908 38.9998 28.092 39.5137 28.124 39.9094C28.124 39.9094 28.1535 40.2732 28.1855 40.666C27.7993 40.3607 27.181 40.3278 26.7004 40.5267C26.124 40.7632 25.4929 41.4895 25.7058 42.0804C25.7997 42.3387 25.9239 42.6394 26.0644 42.9436L25.8892 42.7684C25.2507 42.1298 24.0072 42.36 23.7347 43.0996C23.5253 43.6672 23.7108 44.3801 23.9828 44.9456C24.0203 45.0233 24.0607 45.1075 24.1038 45.1955C24.1255 45.2935 24.1374 45.348 24.1374 45.348C24.4466 46.7689 25.1048 48.9552 26.2553 50.5828C26.7896 51.3389 27.418 52.0971 27.8907 52.8974C28.294 53.5795 28.393 54.2959 28.524 55.0643L28.5435 55.1793C30.4008 54.6986 34.3678 53.9525 36.484 53.7309C36.458 53.5182 36.4428 53.3846 36.4428 53.3846C36.3305 52.4062 36.2261 51.1381 36.4439 50.3402C36.452 50.1799 37.3826 48.1228 37.6334 47.7473C37.9985 47.2059 38.2499 46.0755 38.2442 45.5402C38.2358 44.6581 38.1341 43.3876 37.5732 42.4126C37.4479 42.1972 37.2776 42.0213 37.0796 41.8717C36.2939 41.2776 35.2413 41.1848 34.2601 41.1532L34.224 40.7683C34.1177 39.6357 32.846 32.2021 32.2621 31.286C31.9008 30.7197 31.4482 30.2641 30.5006 30.5596C29.6867 30.8134 29.7238 31.7243 29.7954 32.4801C29.8529 33.095 30.2299 35.7462 30.5678 37.8955V37.8953Z" fill="white"/>
<path d="M70.5416 40.0335C70.4019 39.2396 70.3086 38.4431 70.2755 37.6393C73.4281 36.1013 75.9408 31.8033 76.3875 30.5962C76.4692 30.3493 76.6509 29.8453 76.7892 29.2666C77.3484 29.1851 78.0932 29.1854 78.5176 28.8482C79.0834 28.3929 79.4902 27.795 79.8023 27.1701C80.4432 25.8877 80.722 24.4537 80.5994 23.0463C80.5661 22.6892 80.5075 22.3232 80.3263 22.002C80.07 21.5437 79.5599 21.2076 78.9998 21.1242C78.4398 21.0408 77.8407 21.2165 77.4366 21.5793C75.2452 20.9139 72.6014 17.4252 71.7561 15.8478C71.1648 14.7446 70.522 12.3526 70.0124 10.6648C67.5894 13.8053 64.5104 16.0303 60.6863 17.1172C59.7769 17.3863 60.634 14.5157 60.7953 13.1597C58.3783 15.5225 55.7362 18.0163 53.2847 20.0127L51.2145 21.579C50.8104 21.216 50.2113 21.0405 49.6513 21.1239C49.0912 21.2073 48.5811 21.5434 48.3248 22.0017C48.1436 22.3229 48.085 22.6889 48.0517 23.046C47.9291 24.4534 48.2076 25.8875 48.8488 27.1699C49.1609 27.7947 49.5677 28.3926 50.1335 28.848C50.568 29.1929 51.1817 29.5832 51.9612 29.3894C51.9612 29.3894 52.013 29.3765 52.1071 29.3527C52.5413 30.9609 53.302 32.819 54.698 34.4817C55.9469 35.9695 57.374 37.1583 58.9202 37.8811C58.8817 38.642 58.7922 39.2976 58.6625 40.0337C58.5047 40.9301 58.554 41.7312 57.3019 42.1812C57.2341 42.2055 54.5648 43.4469 53.4691 43.94C56.2601 45.3487 60.3931 46.558 64.3024 46.5679C68.0125 46.5825 72.8721 45.3058 75.4681 43.855C74.7019 43.4979 71.9747 42.2074 71.902 42.1812C70.6498 41.7312 70.6991 40.9299 70.5416 40.0337V40.0335Z" fill="white"/>
<path d="M93.5389 69.519L80.4318 45.7992C78.7777 45.1252 75.9115 43.5859 75.6192 43.7724C73.063 45.2569 68.083 46.5825 64.3023 46.5677C60.3093 46.5577 56.0789 45.2969 53.2879 43.8496C52.9814 43.6747 50.3659 44.9846 48.6852 45.6934L48.4473 45.8003C46.761 46.5577 45.4388 47.5529 44.2807 48.7826C42.6689 50.5026 40.2098 57.0986 39.1852 58.5983L38.7488 59.2372C38.3797 57.5321 38.0331 55.8456 37.7063 54.0663C37.6629 53.8288 37.4514 53.6615 37.21 53.6722C35.2518 53.7613 29.5862 54.8329 27.9698 55.3404C27.7556 55.4078 27.6173 55.6157 27.639 55.8397C28.0702 60.3042 28.2112 65.3139 29.1794 69.8702C29.8683 73.1173 31.086 76.2646 34.0694 77.7491C36.6242 79.0178 39.179 78.8855 41.3107 77.9246C43.1197 77.1067 45.3002 75.247 46.8 73.9864L47.4021 73.4803C47.4802 74.1427 47.5268 74.7023 47.5268 75.0958C47.5268 75.8921 47.4021 77.4873 47.2394 79.3524H87.7021V79.2739C89.663 79.0229 91.4622 77.8957 92.4898 75.7083C93.3705 73.8337 93.6075 71.5704 93.5386 69.5193" fill="#E5EFD9"/>
<path d="M98.9927 50.4949C99.1671 49.2451 99.6362 45.9146 99.7925 44.7936C99.8773 44.1855 99.4526 43.6262 98.8419 43.5407C95.0791 43.0148 84.2605 41.503 80.6108 40.9931C79.9979 40.9076 79.4337 41.3319 79.3494 41.9422C78.7248 46.4623 76.7151 61.1775 76.0965 65.6563C76.0124 66.265 76.4401 66.8245 77.0517 66.9084C80.7665 67.4186 91.4226 68.8691 95.2304 69.3928C95.8415 69.4767 96.4034 69.0532 96.4888 68.4451C96.6019 67.6388 97.6352 61.0544 97.7624 60.1464" fill="white"/>
<path d="M78.5156 47.4163C77.9613 46.8646 76.9239 46.8392 76.0764 47.4163C75.2649 47.9688 75.2928 48.9967 75.7439 49.8806C76.4154 51.1976 76.8526 52.3083 77.6288 53.4671" fill="white"/>
<path d="M97.4216 59.4224C97.3804 59.3876 97.3416 59.3498 97.3064 59.3091C96.9324 58.8794 96.8597 58.2699 96.9698 57.8248C97.1835 56.9308 97.6573 56.3043 97.9974 55.9216C97.9974 55.9216 98.0424 55.8708 98.1192 55.7855C97.7208 55.7464 97.3769 55.5234 97.2036 55.351C96.9427 55.0916 96.8179 54.4694 96.8784 54.1074C96.9828 53.4826 97.346 52.9168 97.7248 52.4078C98.117 51.8809 98.3459 51.6765 98.8832 51.0627C99.3689 50.5251 99.718 50.2155 100.342 50.1283C100.445 50.114 100.557 50.1056 100.677 50.1034C101.161 50.0948 101.742 50.4136 102.042 50.7915C102.342 51.1694 102.453 51.6892 102.332 52.1556C102.215 52.6115 101.901 52.9886 101.582 53.3368C101.04 53.9304 100.637 54.3474 100.283 54.6656C100.988 54.6176 101.523 54.7798 101.79 55.3269C101.979 55.7118 101.908 56.0088 101.869 56.4393C101.851 56.6358 101.702 56.9761 101.633 57.157C101.433 57.679 100.967 58.0189 100.532 58.4642C100.32 58.6807 100.006 58.9471 99.6217 59.2057L99.5373 59.2624C99.8395 59.5277 100.142 59.7933 100.142 59.7933C100.495 60.1034 100.681 60.8635 100.64 61.1577C100.591 61.5205 100.37 61.9019 100.059 62.2328C99.8565 62.4474 98.8002 63.2313 98.3942 63.4445C97.9882 63.6577 97.5409 63.7862 97.1187 63.6073C96.7349 63.4448 96.4854 63.4137 96.2652 62.7554C96.1697 62.4698 96.2174 62.1465 96.3086 61.8612C96.3731 61.6585 96.4854 61.4717 96.6224 61.3086C97.2163 60.6009 97.3275 60.386 98.286 59.7296C97.9678 59.7202 97.6521 59.6173 97.4208 59.4222L97.4216 59.4224Z" fill="white"/>
<path d="M77.0562 44.0699C77.7315 44.3109 78.3903 44.3951 79.0168 44.3587C79.1491 43.3953 79.2631 42.5683 79.3496 41.9421C79.4339 41.332 79.9983 40.9075 80.611 40.993C81.3183 41.0918 82.2971 41.2287 83.4397 41.3882C83.7684 40.7582 83.9507 40.0977 83.945 39.4804C83.9306 37.9054 83.6738 36.6908 83.1463 35.1709C82.4886 33.2757 81.2141 29.4253 81.1222 22.5462C81.3053 20.4643 81.1152 17.4565 81.0324 16.3005C80.7458 12.2932 78.9455 7.81823 76.3551 5.33119C75.235 4.25583 74.9098 3.75405 73.6908 3.09544C73.6908 3.09544 73.0076 2.72619 72.3241 2.35721C71.9873 2.22117 71.6504 2.0854 71.6504 2.0854C69.5147 1.22382 67.2902 0.651855 64.1303 0.651855C58.9496 0.651855 54.3385 3.30814 52.2925 5.25777C48.898 8.49222 46.7446 14.4 47.0163 22.5464C47.0174 28.0679 46.5626 32.0506 45.9261 34.3136C45.4905 35.8621 45.1217 38.4412 45.1076 40.0162C45.0864 42.3604 47.408 44.9098 50.9429 44.6893C52.0891 44.1757 53.1058 43.7449 53.2897 43.8499C53.3483 43.8804 53.4112 43.9101 53.4709 43.9403C54.5666 43.4471 57.2358 42.2061 57.3037 42.1815C58.5558 41.7315 58.5065 40.9301 58.6643 40.034C58.794 39.2979 58.8835 38.6423 58.922 37.8814C57.3758 37.1588 55.9487 35.9698 54.6998 34.482C53.3038 32.8193 52.5431 30.9609 52.1089 29.353C52.0148 29.377 51.963 29.3897 51.963 29.3897C51.1835 29.5838 50.5698 29.1932 50.1353 28.8482C49.5695 28.3929 49.1627 27.795 48.8505 27.1702C48.2097 25.8878 47.9309 24.4537 48.0535 23.0463C48.0868 22.6892 48.1454 22.3232 48.3266 22.002C48.5829 21.5437 49.093 21.2076 49.6531 21.1242C50.2131 21.0408 50.8125 21.2165 51.2163 21.5793L53.2865 20.013C55.7379 18.0166 58.3801 15.5228 60.7971 13.16C60.6357 14.516 59.7787 17.3869 60.6881 17.1175C64.5122 16.0303 67.5912 13.8056 70.0142 10.6651C70.5236 12.3529 71.1666 14.7449 71.7578 15.8481C72.6032 17.4255 75.2467 20.9142 77.4384 21.5796C77.8425 21.2165 78.4416 21.0411 79.0016 21.1245C79.5617 21.2079 80.0718 21.5439 80.3281 22.0023C80.5093 22.3235 80.5679 22.6895 80.6012 23.0466C80.7238 24.4539 80.4453 25.888 79.8041 27.1704C79.492 27.7953 79.0851 28.3932 78.5194 28.8485C78.095 29.1856 77.3502 29.1854 76.791 29.2669C76.6527 29.8456 76.4709 30.3498 76.3893 30.5965C75.9423 31.8036 73.4299 36.1015 70.2773 37.6395C70.3104 38.4434 70.4034 39.2399 70.5434 40.0337C70.7012 40.9301 70.6518 41.7313 71.9037 42.1812C71.9762 42.2074 74.7037 43.4976 75.4699 43.855C75.5193 43.8275 75.5732 43.8005 75.621 43.7727C75.72 43.7095 76.1167 43.8464 76.6578 44.0777L77.0568 44.0701L77.0562 44.0699Z" fill="#65B005"/>
<path d="M95.1668 50.8622C94.7117 50.7977 82.5862 49.1005 82.1547 49.0397C81.8485 48.9965 81.6358 48.7161 81.6795 48.4114C81.7283 48.0726 82.1376 45.1648 82.1823 44.8279C82.223 44.521 82.5075 44.3064 82.8153 44.3501C83.2477 44.4114 95.3746 46.1092 95.8308 46.1737C96.1361 46.2169 96.3477 46.4979 96.3048 46.8018L95.7982 50.3888C95.7551 50.6935 95.4728 50.9057 95.1666 50.8625L95.1668 50.8622Z" fill="#65B005"/>
<path d="M77.8977 22.0376C78.4387 21.5806 79.3592 21.6807 79.7414 22.2891C79.9629 22.6419 79.967 23.1278 79.9759 23.5297C79.9873 24.0371 79.9496 24.5448 79.849 25.0423C79.6589 25.9819 79.3042 26.9253 78.7273 27.7005C78.5044 28.0001 78.2218 28.3507 77.8507 28.4584C77.4399 28.5777 76.9978 28.5864 76.5761 28.6463C76.2278 28.696 76.0369 29.1365 76.1215 29.4431C76.2243 29.8156 76.5728 29.9451 76.9221 29.8955C77.3311 29.8374 77.748 29.825 78.1493 29.72C78.634 29.5932 79.0121 29.3176 79.3546 28.9597C80.0457 28.2379 80.5111 27.3196 80.833 26.3833C81.172 25.3975 81.325 24.3281 81.2683 23.2876C81.2146 22.3045 80.9461 21.3873 80.0654 20.8367C79.0853 20.224 77.8375 20.3948 76.9769 21.1212C76.7087 21.3476 76.7426 21.8041 76.9769 22.0373C77.2427 22.3018 77.6286 22.2643 77.8974 22.0373L77.8977 22.0376Z" fill="#726A69"/>
<path d="M76.3161 28.0361C76.2966 28.603 76.1626 29.1539 75.9991 29.6953C75.9413 29.887 75.8781 30.0767 75.8141 30.2665C75.7932 30.3288 75.772 30.3909 75.7501 30.453C75.7428 30.4738 75.7333 30.4935 75.7259 30.5143C75.685 30.6333 75.7753 30.4036 75.7422 30.4773C75.493 31.0306 75.1968 31.5608 74.8776 32.0768C73.943 33.5884 72.8077 35.0182 71.4188 36.1416C70.6589 36.7562 69.8011 37.2445 68.8526 37.4623C68.0366 37.6499 68.3821 38.8993 69.1987 38.7118C71.1693 38.2591 72.8088 36.8239 74.0938 35.3345C75.158 34.101 76.1528 32.7122 76.826 31.2231C77.2721 30.236 77.581 29.1183 77.6182 28.0364C77.6469 27.2024 76.3451 27.2037 76.3164 28.0364L76.3161 28.0361Z" fill="#726A69"/>
<path d="M51.6767 21.1213C50.8804 20.4489 49.8083 20.2667 48.8485 20.7005C47.8825 21.1372 47.4938 22.0482 47.4027 23.0461C47.2183 25.0627 47.8429 27.3575 49.2225 28.8774C49.9732 29.7045 50.999 30.2578 52.1362 30.0141C52.9547 29.8386 52.6083 28.5894 51.7901 28.7646C51.038 28.9258 50.3356 28.2493 49.9269 27.7003C49.3381 26.9097 48.9795 25.9421 48.7937 24.9825C48.7013 24.5042 48.6671 24.0162 48.6782 23.5292C48.6874 23.1263 48.6904 22.6426 48.9128 22.2887C49.2952 21.68 50.2152 21.5801 50.7565 22.0371C51.0245 22.2633 51.4142 22.2987 51.677 22.0371C51.91 21.8053 51.9463 21.3483 51.677 21.121L51.6767 21.1213Z" fill="#726A69"/>
<path d="M50.9135 26.4508C51.1552 28.4179 51.5896 30.3355 52.4396 32.1385C53.5125 34.4142 55.2968 36.427 57.4193 37.7906C58.5223 38.4992 59.7664 39.0158 61.0685 39.2085C61.4156 39.2598 61.7682 39.1222 61.8691 38.7561C61.9534 38.4506 61.7644 38.0109 61.4145 37.9593C59.2196 37.6346 57.3548 36.3755 55.8517 34.7994C54.2933 33.165 53.2584 31.2005 52.6937 29.0247C52.5668 28.5359 52.4619 28.0414 52.3756 27.5439C52.3404 27.341 52.3084 27.1374 52.2788 26.9336C52.2723 26.8891 52.266 26.8446 52.2598 26.8C52.2495 26.7258 52.2682 26.8659 52.2528 26.7479C52.2397 26.6489 52.2275 26.5501 52.2153 26.451C52.1727 26.1039 51.9466 25.8032 51.5644 25.8032C51.2458 25.8032 50.8707 26.1012 50.9135 26.4508Z" fill="#726A69"/>
<path d="M69.4325 10.9911C69.7414 12.0252 70.033 13.0649 70.3696 14.0906C70.6424 14.9222 70.9386 15.7565 71.3869 16.5126C72.2857 18.0287 73.4473 19.4723 74.7645 20.6472C75.4982 21.3015 76.3161 21.904 77.2648 22.2038C78.0652 22.4568 78.4077 21.2062 77.6109 20.9544C76.1702 20.499 74.9018 19.0595 73.9395 17.8824C73.4516 17.2856 72.9984 16.657 72.5962 16C72.2086 15.3668 71.9445 14.6963 71.7077 13.9948C71.3345 12.8892 71.0218 11.7641 70.688 10.6464C70.4498 9.84906 69.1931 10.1886 69.4325 10.9908V10.9911Z" fill="#4F8D00"/>
<path d="M69.5473 10.2192C68.1568 12.0077 66.4981 13.58 64.5478 14.7509C63.595 15.3229 62.588 15.8012 61.5382 16.1688C61.2683 16.2633 60.9963 16.3513 60.7224 16.4325C60.6814 16.4447 60.5569 16.4644 60.5146 16.493C60.4701 16.523 60.3928 16.4636 60.5759 16.4876C60.7386 16.5089 60.8574 16.5964 60.9255 16.6749C60.9976 16.7581 60.9122 16.7492 60.9285 16.6423C60.9412 16.558 60.9369 16.7648 60.9331 16.6693C60.9317 16.6331 60.9288 16.5966 60.9277 16.5605C60.9228 16.3764 60.9383 16.1915 60.9586 16.0088C61.0557 15.1288 61.3299 14.1066 61.4476 13.1603C61.5203 12.5756 60.7034 12.3435 60.3364 12.7022C57.9134 15.0697 55.453 17.4113 52.8258 19.5552C52.5538 19.7771 52.5944 20.2411 52.8258 20.4714C53.0948 20.7391 53.4737 20.6938 53.7463 20.4714C56.3735 18.3274 58.8339 15.9858 61.2569 13.6183L60.1458 13.1603C60.1211 13.3579 60.1574 13.0874 60.1382 13.2127C60.1311 13.2585 60.1238 13.3044 60.1165 13.3503C60.0983 13.4607 60.0788 13.5711 60.0584 13.681C60.0142 13.9215 59.9665 14.1612 59.9201 14.4011C59.819 14.9223 59.7216 15.4446 59.6608 15.9726C59.5722 16.7454 59.695 17.9813 60.8024 17.7557C61.4047 17.6329 62.0093 17.3856 62.5788 17.1586C63.1814 16.9184 63.7735 16.6528 64.3479 16.3516C65.4656 15.7656 66.5108 15.0516 67.4812 14.2475C68.5924 13.3266 69.5836 12.2731 70.4681 11.1359C70.6829 10.8595 70.7387 10.4892 70.4681 10.2198C70.244 9.99683 69.764 9.9415 69.5476 10.2198L69.5473 10.2192Z" fill="#4F8D00"/>
<path d="M81.7735 22.5463C81.8977 21.0788 81.8597 19.5974 81.7919 18.128C81.7333 16.8561 81.6566 15.5845 81.4364 14.3286C80.91 11.3244 79.7044 8.33744 77.7875 5.94244C77.2676 5.29301 76.6617 4.72915 76.0762 4.14018C75.5297 3.59063 74.962 3.08831 74.2927 2.68963C73.5721 2.26019 72.9168 3.38009 73.6355 3.80845C74.1834 4.13479 74.6368 4.53643 75.0854 4.98611C75.5782 5.48007 76.0943 5.9554 76.5527 6.48174C77.4677 7.53281 78.1791 8.76203 78.756 10.0244C79.37 11.3686 79.8134 12.7981 80.1012 14.2457C80.3377 15.4355 80.4158 16.6388 80.4766 17.8478C80.5552 19.4098 80.604 20.9859 80.4717 22.5463C80.4421 22.8953 80.792 23.1941 81.1226 23.1941C81.4993 23.1941 81.7439 22.8964 81.7735 22.5463Z" fill="#4F8D00"/>
<path d="M46.3654 22.546C46.3641 24.6886 46.302 26.8332 46.1208 28.9688C45.9947 30.4522 45.8214 31.9182 45.4908 33.3725C45.3335 34.0643 45.1319 34.7432 44.9931 35.4398C44.8016 36.4021 44.6595 37.3762 44.5594 38.3523C44.4759 39.1674 44.3899 40.0042 44.5274 40.8174C44.6511 41.5487 44.9706 42.2623 45.4105 42.8591C46.6402 44.5267 48.6162 45.3807 50.675 45.3481C51.5119 45.3348 51.5144 44.0389 50.675 44.0524C49.1063 44.0775 47.5395 43.4978 46.5585 42.237C46.1569 41.7209 45.9011 41.153 45.7891 40.5103C45.7509 40.2908 45.7552 39.8938 45.7677 39.5952C45.7861 39.1631 45.8216 38.7315 45.8667 38.3012C45.9583 37.424 46.0923 36.5508 46.2681 35.6863C46.4028 35.0231 46.5959 34.3761 46.7459 33.7169C47.0676 32.3023 47.2482 30.8536 47.383 29.4109C47.5962 27.1298 47.6656 24.8363 47.6672 22.546C47.6678 21.7122 46.366 21.7109 46.3654 22.546Z" fill="#4F8D00"/>
<path d="M76.8819 44.6942C77.561 44.9331 78.2957 45.0467 79.0158 45.0089C79.3553 44.9911 79.683 44.7236 79.6667 44.3611C79.6515 44.0253 79.38 43.6941 79.0158 43.7133C78.712 43.7292 78.4088 43.7173 78.1072 43.6782L78.2803 43.7014C77.9209 43.6523 77.5697 43.5651 77.228 43.445C77.0755 43.3913 76.8621 43.4312 76.7265 43.5103C76.5914 43.5889 76.4626 43.743 76.4273 43.8974C76.3444 44.2602 76.5377 44.5733 76.8819 44.6942Z" fill="#726A69"/>
<path d="M80.4727 22.5462C80.5142 25.3984 80.7534 28.259 81.3268 31.0572C81.6696 32.7304 82.2085 34.3186 82.7178 35.9435C83.2158 37.5326 83.6703 39.4997 82.8803 41.0596C82.5041 41.8024 83.6269 42.4591 84.0045 41.7136C85.2867 39.1809 84.1938 36.3897 83.4021 33.883C82.794 31.9577 82.3788 29.9713 82.1301 27.9691C81.9064 26.1701 81.8009 24.3584 81.7746 22.5464C81.7624 21.7135 80.4605 21.7108 80.4727 22.5462Z" fill="#4F8D00"/>
<path d="M53.7962 44.5021C54.8734 44.0149 55.945 43.5147 57.0187 43.0194C57.1806 42.9447 57.3422 42.8699 57.5044 42.7962C57.541 42.7797 57.5809 42.7654 57.6159 42.746C57.6343 42.7358 57.4735 42.8046 57.4757 42.8048C57.5101 42.8089 57.614 42.7514 57.6541 42.7349C57.7735 42.6864 57.8928 42.6361 58.0064 42.5751C58.6419 42.2342 59.0316 41.645 59.1716 40.9497C59.3606 40.0104 59.4943 39.0432 59.5594 38.088C59.5833 37.7384 59.2431 37.4402 58.9085 37.4402C58.5364 37.4402 58.2814 37.7376 58.2576 38.088C58.2044 38.8713 58.0778 39.6438 57.9497 40.4179C57.9294 40.5418 57.9066 40.6655 57.8749 40.7869C57.8594 40.846 57.8413 40.9041 57.822 40.9621C57.8125 40.9904 57.8025 41.0199 57.7903 41.0471C57.8179 40.9842 57.8028 41.0166 57.7789 41.0568C57.7474 41.1097 57.7184 41.1643 57.6807 41.2134C57.7377 41.1392 57.6316 41.2582 57.6124 41.2774C57.5492 41.34 57.4122 41.4291 57.2739 41.4949C56.4733 41.8758 55.6545 42.2278 54.8487 42.5994C54.2797 42.8621 53.7107 43.125 53.1395 43.3833C52.8195 43.528 52.7414 43.9898 52.906 44.2697C53.0983 44.5971 53.4753 44.6473 53.7967 44.5021H53.7962Z" fill="#726A69"/>
<path d="M23.5096 45.52C23.8709 47.1616 24.4211 48.8087 25.2774 50.2636C25.7628 51.0884 26.3904 51.8178 26.9312 52.6057C27.1889 52.9811 27.446 53.3639 27.5889 53.799C27.7421 54.2654 27.8145 54.7537 27.8962 55.2363C27.9548 55.5815 28.3827 55.7748 28.6968 55.6887C29.0643 55.5883 29.2102 55.2379 29.1513 54.8919C28.9867 53.9207 28.7719 53.0446 28.2265 52.2078C27.6887 51.3824 27.0332 50.6374 26.5154 49.799C25.6454 48.3901 25.1187 46.7838 24.765 45.1758C24.586 44.3618 23.3306 44.7062 23.5096 45.5203V45.52Z" fill="#726A69"/>
<path d="M34.6858 46.066C34.6638 45.5761 34.557 45.0984 34.4889 44.6141C34.4159 44.0953 34.2136 43.664 33.777 43.3506C33.4482 43.1147 33.0436 43.0162 32.655 42.9231C32.5684 42.9023 32.4814 42.8837 32.3957 42.8602C32.3789 42.8556 32.2009 42.8362 32.2663 42.827C32.2294 42.8321 32.1725 42.7741 32.2479 42.8521C32.179 42.7806 32.1364 42.641 32.118 42.5446C32.0748 42.3187 32.1925 42.0016 32.3761 41.8561C32.3121 41.9068 32.3157 41.8742 32.4052 41.8639C32.493 41.8539 32.5809 41.8196 32.6696 41.8078C32.8982 41.777 33.1369 41.781 33.3674 41.7813C34.1949 41.7821 35.0693 41.7716 35.8712 41.9989C36.2322 42.1012 36.5965 42.2623 36.859 42.5374C37.1272 42.8181 37.2577 43.2316 37.3588 43.5973C37.5519 44.2943 37.6553 45.0894 37.581 45.8131C37.4676 46.9144 36.7972 47.8896 36.3407 48.8991C36.2008 49.2087 36.0635 49.5202 35.9358 49.8349C35.9008 49.9207 35.862 50.0074 35.836 50.0965C35.8303 50.1164 35.8241 50.1356 35.8194 50.1558C35.715 50.6045 35.8479 50.093 35.7774 50.3389C35.6423 50.8104 35.6581 51.3643 35.6719 51.8499C35.6865 52.363 35.7359 52.8742 35.7937 53.3841C35.833 53.7317 36.0646 54.0319 36.4446 54.0319C36.766 54.0319 37.1351 53.7339 37.0955 53.3841C36.9949 52.4939 36.8617 51.527 37.0423 50.6398C37.051 50.5969 37.0654 50.5548 37.0732 50.5119L37.0849 50.4258C37.0996 50.3156 37.1004 50.3111 37.0874 50.412C37.0594 50.4347 37.0591 50.4995 37.1006 50.4134C37.144 50.3235 37.1736 50.2228 37.2113 50.1302C37.255 50.0228 37.1877 50.1828 37.2381 50.066C37.2645 50.0047 37.291 49.9434 37.3179 49.8824C37.3862 49.7264 37.4562 49.5712 37.527 49.4163C37.7515 48.9253 37.9851 48.4435 38.2568 47.9773C38.6574 47.2904 38.8771 46.3926 38.8963 45.6012C38.9183 44.7024 38.803 43.7334 38.4979 42.8856C38.3216 42.3962 38.0946 41.906 37.7041 41.5478C37.3352 41.2093 36.891 40.9737 36.4188 40.812C35.5078 40.4997 34.4967 40.5008 33.544 40.4873C33.0588 40.4803 32.5288 40.4744 32.0594 40.6147C31.597 40.7529 31.2916 41.0641 31.0654 41.4817C30.5438 42.445 30.8587 43.7488 31.9718 44.0875C32.31 44.1903 32.9091 44.1882 33.1258 44.5005C33.2435 44.6703 33.2277 44.9405 33.2598 45.1367C33.3105 45.4471 33.3699 45.7508 33.384 46.0655C33.4209 46.896 34.7229 46.9006 34.6858 46.0655V46.066Z" fill="#726A69"/>
<path d="M75.471 43.2084H75.4683L75.7967 43.2969C74.662 42.7641 73.5313 42.2229 72.3941 41.6955C72.172 41.5924 71.9352 41.5171 71.7294 41.3832C71.4742 41.2172 71.3988 41.0631 71.3201 40.7384C71.0869 39.7753 70.983 38.7455 70.9337 37.759C70.8922 36.9293 69.5901 36.9241 69.6318 37.759C69.6798 38.7237 69.835 39.6698 69.9804 40.6231C70.0899 41.3406 70.3348 41.9695 70.9423 42.4121C71.1053 42.5309 71.2789 42.62 71.4641 42.6988C71.52 42.7226 71.5762 42.7466 71.6326 42.769C71.8723 42.8637 71.6147 42.7655 71.5848 42.7447C71.5984 42.7541 71.6171 42.7587 71.632 42.766C71.7787 42.8381 71.9287 42.9039 72.0765 42.9733C72.6108 43.2238 73.1446 43.4756 73.6783 43.7275C73.9875 43.8732 74.2967 44.0192 74.6061 44.165C74.8578 44.2835 75.1919 44.5046 75.471 44.5046C76.3088 44.5046 76.3101 43.2089 75.471 43.2089V43.2084Z" fill="#726A69"/>
<path d="M71.8223 1.46062C69.1731 0.397402 66.3283 -0.104649 63.4698 0.0181647C60.5315 0.144487 57.642 1.04818 55.0818 2.47201C53.1735 3.53333 51.5132 4.89211 50.2233 6.65442C48.8762 8.49528 47.9679 10.6471 47.3693 12.8359C46.5074 15.9872 46.2604 19.2915 46.364 22.5462C46.3905 23.3779 47.6924 23.3816 47.6658 22.5462C47.5082 17.6045 48.1184 12.2636 50.8628 8.01347C51.9045 6.39989 53.2798 5.09536 54.9275 4.06832C57.1926 2.65663 59.7998 1.67304 62.4649 1.38882C65.5351 1.06141 68.6239 1.56481 71.4762 2.70981C71.8025 2.84072 72.1914 2.56729 72.2768 2.25742C72.3791 1.88763 72.1496 1.5918 71.8223 1.46062Z" fill="#4F8D00"/>
<path d="M62.2071 32.0741C62.9931 32.4871 63.8395 32.6607 64.7283 32.6547C65.6336 32.6488 66.5465 32.4706 67.2717 31.9087C67.5491 31.6935 67.4987 31.2185 67.2717 30.9926C66.9978 30.7199 66.6295 30.7769 66.3512 30.9926C66.5484 30.8398 66.3943 30.9572 66.3436 30.9896C66.2929 31.022 66.2408 31.0517 66.1877 31.0795C66.16 31.0938 66.1318 31.1067 66.1041 31.1208C66.0049 31.1715 66.1226 31.1324 66.1294 31.1127C66.1193 31.1413 65.9441 31.181 65.914 31.1904C65.7177 31.2533 65.5156 31.2973 65.3117 31.3273C65.4071 31.3132 65.2908 31.3286 65.2531 31.3324C65.194 31.3383 65.1348 31.3432 65.0757 31.347C64.933 31.3561 64.7904 31.3597 64.6475 31.3588C64.5194 31.358 64.3917 31.3537 64.2642 31.3451C64.2057 31.341 64.1471 31.3364 64.0888 31.3305C64.0831 31.33 63.8723 31.3005 64.0028 31.3213C63.8127 31.2914 63.6245 31.252 63.44 31.1969C63.3611 31.1734 63.2844 31.1453 63.2065 31.1189C63.0397 31.0622 63.3009 31.1677 63.1504 31.097C63.0538 31.0517 62.9586 31.0044 62.8645 30.955C62.5537 30.7917 62.1567 30.8765 61.9739 31.1874C61.8019 31.48 61.8955 31.9098 62.2074 32.0739L62.2071 32.0741Z" fill="#726A69"/>
<path d="M64.3998 26.1601C64.5099 26.5777 64.6154 27.0017 64.6786 27.429L64.6553 27.2568C64.6629 27.3154 64.6661 27.3731 64.6602 27.432L64.6835 27.2598C64.6794 27.287 64.6735 27.3124 64.6642 27.3386L64.7299 27.1839C64.7217 27.2023 64.7133 27.2179 64.7019 27.2347L64.8036 27.1035C64.7906 27.1194 64.7782 27.1315 64.7619 27.1442L64.8937 27.043C64.8614 27.0635 64.8275 27.0803 64.7928 27.0962L64.9482 27.0309C64.8926 27.0541 64.8376 27.0708 64.7779 27.0803L64.9509 27.057C64.8972 27.0633 64.8449 27.063 64.7912 27.0568L64.9642 27.08C64.904 27.0716 64.8449 27.0571 64.7847 27.049C64.6982 27.022 64.6116 27.0182 64.5251 27.0373C64.4386 27.0411 64.3578 27.0668 64.2832 27.1143C64.1481 27.1928 64.0193 27.3469 63.9841 27.5013C63.9461 27.6671 63.9542 27.8533 64.0497 28.0004C64.1343 28.1311 64.2761 28.2763 64.4386 28.2981C64.5756 28.3165 64.7082 28.351 64.8476 28.3573C65.061 28.3664 65.2593 28.3017 65.4499 28.2147C65.6854 28.1076 65.869 27.897 65.9316 27.6447C65.9845 27.4312 65.9617 27.2444 65.9254 27.0303C65.8559 26.6214 65.761 26.2162 65.6553 25.8154C65.569 25.4877 65.1863 25.2561 64.8546 25.363C64.5156 25.4721 64.3073 25.8087 64.4001 26.1598L64.3998 26.1601Z" fill="#726A69"/>
<path d="M57.6534 22.5674C57.4405 23.2559 57.5794 24.8404 58.8902 24.9751C60.6229 24.9648 60.7151 23.0495 60.1318 22.1487C59.6542 21.4113 58.2501 21.1047 57.6534 22.5674Z" fill="#726A69"/>
<path d="M71.5298 22.5674C71.7427 23.2559 71.6041 24.8404 70.2931 24.9751C68.5603 24.9648 68.4681 23.0492 69.0515 22.1487C69.5291 21.4113 70.9331 21.1047 71.5298 22.5674Z" fill="#726A69"/>
<path d="M39.7481 58.9264C40.2645 58.1609 40.626 57.2764 41.0092 56.441C41.5641 55.2312 42.1036 54.0144 42.6791 52.8141C43.1835 51.7617 43.6994 50.6928 44.3611 49.727C44.4148 49.6485 44.4704 49.5715 44.5266 49.4946C44.6331 49.3491 44.4444 49.5926 44.554 49.4584C44.5854 49.4201 44.6166 49.3818 44.6489 49.3443C44.8892 49.0668 45.1579 48.809 45.427 48.5593C46.0494 47.982 46.7261 47.4756 47.4573 47.0424C48.7667 46.2664 50.2296 45.7079 51.6206 45.0928C52.1099 44.8766 52.6019 44.6393 53.1237 44.5038C53.1627 44.4935 53.2126 44.4895 53.2498 44.4741C53.3694 44.4247 53.0987 44.479 53.2067 44.4825C53.1462 44.4806 52.8256 44.334 53.0453 44.4539C53.1302 44.5003 53.2186 44.5416 53.3054 44.5845C53.6715 44.7648 54.0434 44.933 54.419 45.0925C57.7809 46.5204 61.541 47.3706 65.2086 47.196C67.1453 47.1037 69.0798 46.7625 70.9512 46.2642C72.6162 45.821 74.2868 45.2528 75.7966 44.4155L75.4682 44.5041C75.5883 44.5041 75.8745 44.4417 75.9485 44.3319C75.9002 44.4031 75.6814 44.4244 75.6315 44.395C75.6572 44.4101 75.7004 44.408 75.7291 44.4185C75.9594 44.5022 76.1902 44.5761 76.4155 44.6738C77.1465 44.9907 77.863 45.3403 78.5839 45.6788C78.9017 45.8278 79.286 45.767 79.4745 45.4464C79.64 45.1648 79.5605 44.71 79.241 44.5599C78.4485 44.188 77.6615 43.8023 76.8544 43.4622C76.2694 43.2155 75.7427 42.9644 75.1422 43.2967L75.4706 43.2082C75.1411 43.2082 74.7701 43.4986 74.4777 43.6398C74.1721 43.7874 73.8615 43.9248 73.5464 44.0511C72.7886 44.3545 72.013 44.6142 71.2289 44.8415C69.5724 45.3217 67.867 45.6752 66.148 45.834C62.4899 46.1719 58.76 45.4472 55.3655 44.0914C55.0127 43.9505 54.6647 43.7988 54.3208 43.6379C54.0271 43.5005 53.7214 43.2862 53.4046 43.2111C52.9238 43.097 52.354 43.3866 51.9219 43.5639C50.5374 44.1321 49.1488 44.7397 47.8006 45.3883C46.287 46.1166 44.83 47.1552 43.7278 48.4279C43.0129 49.2533 42.5022 50.2558 42.0141 51.2235C41.3344 52.5698 40.722 53.9488 40.0974 55.3208C39.6475 56.3093 39.2339 57.3674 38.6234 58.2722C38.155 58.9664 39.2824 59.6155 39.7475 58.9262L39.7481 58.9264Z" fill="#BADA95"/>
<path d="M40.8932 65.8487C40.3606 63.4661 39.8122 61.0871 39.2993 58.7002C39.0542 57.5581 38.8177 56.4142 38.595 55.2673C38.5413 54.9901 38.4881 54.7126 38.4361 54.4352C38.3824 54.1488 38.3601 53.8319 38.208 53.576C37.9381 53.122 37.4575 53.0035 36.9656 53.0391C35.4422 53.1495 33.922 53.427 32.4214 53.7007C30.9672 53.9658 29.4997 54.2354 28.0753 54.6341C27.637 54.7566 27.2353 54.9391 27.0666 55.398C26.8762 55.9159 27.0618 56.6064 27.1076 57.1462C27.2077 58.3293 27.2934 59.5134 27.3848 60.6973C27.576 63.1722 27.7932 65.6482 28.1916 68.0999C28.8225 71.9821 29.9759 76.5027 33.8624 78.3668C36.0022 79.3933 38.4572 79.623 40.7191 78.8516C42.7687 78.1528 44.5039 76.7327 46.1499 75.3742C46.5225 75.0665 46.8922 74.7553 47.2618 74.4443C47.5306 74.2184 47.4956 73.7609 47.2618 73.5282C46.9958 73.2634 46.6106 73.3018 46.3413 73.5282C44.8608 74.7728 43.3754 76.0652 41.6776 77.0126C39.9234 77.9916 37.8649 78.288 35.9163 77.7617C34.0791 77.2655 32.5682 76.1721 31.5706 74.5582C30.6125 73.0084 30.1221 71.2258 29.7587 69.4576C28.8493 65.0328 28.733 60.5003 28.3085 56.0161C28.3072 56.0015 28.3004 55.8422 28.2917 55.8395C28.2871 55.8382 28.2152 55.9024 28.2133 55.9367C28.2114 55.9683 28.1905 55.9373 28.2651 55.9284C28.3815 55.9143 28.507 55.8595 28.6204 55.8296C28.8892 55.7583 29.1593 55.6933 29.4302 55.6304C30.1362 55.4662 30.8462 55.3191 31.5573 55.1793C33.0205 54.8919 34.6272 54.6039 36.0177 54.4322C36.2976 54.3976 36.5777 54.3663 36.8587 54.3434C36.8918 54.3407 37.2034 54.3401 37.2121 54.3202C37.2059 54.3345 37.0727 54.2422 37.0808 54.2387C37.0643 54.2457 37.1592 54.6608 37.1701 54.7199C37.3721 55.7974 37.5869 56.8725 37.8115 57.9457C38.2671 60.124 38.761 62.2939 39.2502 64.4648C39.3802 65.0409 39.5095 65.6169 39.6383 66.1931C39.8203 67.0067 41.0755 66.6623 40.8938 65.8487H40.8932Z" fill="#BADA95"/>
<path d="M92.8889 69.519C92.9748 72.3205 92.5631 75.9248 90.107 77.6657C88.3328 78.9236 86.0066 78.9479 84.055 78.0928C82.8497 77.5645 81.7814 76.7488 80.9949 75.6972C80.7853 75.417 80.4316 75.2742 80.1042 75.4648C79.8268 75.6265 79.6595 76.0689 79.8707 76.3512C81.488 78.513 84.0411 79.9525 86.7801 79.9757C89.5348 79.9992 91.9684 78.4253 93.1012 75.9307C94.0098 73.9298 94.2574 71.6962 94.1907 69.5193C94.1652 68.6874 92.8631 68.6839 92.8889 69.5193V69.519Z" fill="#BADA95"/>
<path d="M31.4305 39.1775C31.1433 37.4727 30.8895 35.7619 30.6494 34.0498C30.5732 33.5056 30.5079 33.0919 30.4496 32.5069C30.4157 32.169 30.3742 31.7568 30.4539 31.4661C30.4851 31.3525 30.5225 31.2632 30.5993 31.2167C30.7167 31.1457 30.9467 31.0998 31.1034 31.1152C31.3459 31.1393 31.5271 31.336 31.6787 31.579C31.7123 31.6327 31.7365 31.6956 31.7714 31.7477C31.7777 31.7568 31.7134 31.5889 31.7581 31.718C31.7736 31.7622 31.7912 31.8057 31.8067 31.85C31.9716 32.3188 32.0879 32.8057 32.2021 33.2884C32.5265 34.6582 32.789 36.0432 33.038 37.4281C33.1668 38.1456 33.2902 38.8644 33.4047 39.5842C33.4475 39.8542 33.4893 40.1246 33.5281 40.3951C33.5324 40.4259 33.5571 40.6032 33.5405 40.4828C33.524 40.3624 33.546 40.5233 33.549 40.5487C33.5579 40.6216 33.5669 40.6944 33.5739 40.7676C33.6075 41.1158 33.8489 41.4154 34.2248 41.4154C34.5508 41.4154 34.9096 41.1179 34.8757 40.7676C34.767 39.6434 34.5484 38.5224 34.3517 37.4111C34.0838 35.8958 33.8006 34.3799 33.4429 32.8824C33.1725 31.7498 32.8555 30.2145 31.5241 29.8774C30.9944 29.7432 30.3283 29.8372 29.8735 30.1462C29.4428 30.4391 29.2185 30.8966 29.1477 31.4C29.0563 32.0494 29.1662 32.7088 29.2519 33.354C29.5258 35.414 29.8298 37.4721 30.1751 39.5216C30.2334 39.8669 30.6619 40.0598 30.9757 39.974C31.3435 39.8733 31.4886 39.5235 31.4303 39.1772L31.4305 39.1775Z" fill="#726A69"/>
<path d="M26.7962 45.757C26.791 45.7276 26.7997 45.6148 26.7861 45.7203C26.7837 45.7387 26.772 45.8145 26.7888 45.7284C26.8075 45.6321 26.759 45.8083 26.7522 45.8348C26.7818 45.7214 26.775 45.7897 26.7538 45.8248C26.7351 45.8561 26.7194 45.8888 26.7004 45.9198C26.686 45.9435 26.67 45.9662 26.6551 45.9894C26.6028 46.0715 26.753 45.8855 26.638 46.0137C26.5946 46.0623 26.551 46.1098 26.5035 46.1546C26.4677 46.1884 26.3419 46.2731 26.4485 46.2059C26.4026 46.2348 26.3384 46.2596 26.2988 46.2953C26.241 46.3471 26.3996 46.2788 26.3272 46.2823C26.3042 46.2834 26.2611 46.2966 26.2394 46.3044C26.1553 46.3349 26.3446 46.3063 26.2518 46.302C26.2244 46.3007 26.1957 46.3052 26.168 46.3055C26.1358 46.3058 25.915 46.2847 26.0511 46.3066C25.9817 46.2955 25.9131 46.2807 25.8453 46.2623C25.816 46.2545 25.7867 46.2461 25.758 46.237C25.7436 46.2324 25.595 46.1762 25.6652 46.2059C25.7284 46.2326 25.6381 46.1919 25.6329 46.1892C25.5977 46.1706 25.5624 46.1527 25.5282 46.1328C25.4943 46.1131 25.4623 46.0912 25.4293 46.0701C25.4377 46.0753 25.5033 46.1325 25.4472 46.085C25.3986 46.044 25.353 46 25.3102 45.9533C25.285 45.9257 25.2611 45.8971 25.237 45.8688C25.2804 45.9195 25.2611 45.9022 25.2313 45.8596C25.0477 45.5986 24.8939 45.3198 24.7501 45.0355C24.5988 44.7359 24.4914 44.5275 24.4068 44.2587C24.3821 44.1804 24.3604 44.1013 24.3417 44.0217C24.3357 43.9961 24.2983 43.7896 24.3108 43.8859C24.3005 43.8074 24.2969 43.7272 24.2969 43.6481C24.2969 43.6147 24.2983 43.5812 24.2991 43.5475C24.3037 43.351 24.2826 43.5974 24.3035 43.4905C24.3181 43.4149 24.3452 43.345 24.3637 43.2713C24.3249 43.426 24.3699 43.2964 24.3878 43.2492C24.4149 43.1774 24.3032 43.3197 24.3661 43.2751C24.3824 43.2635 24.397 43.2408 24.4114 43.2263C24.4326 43.2049 24.4559 43.1866 24.4773 43.1658C24.4239 43.2171 24.3987 43.2165 24.474 43.1734C24.5055 43.1555 24.6579 43.0708 24.582 43.1094C24.5071 43.1474 24.5741 43.1124 24.5923 43.107C24.6305 43.0953 24.6682 43.0821 24.707 43.0719C24.7377 43.0638 24.7721 43.0616 24.8014 43.0503C24.8752 43.0214 24.6511 43.0573 24.7973 43.0495C24.863 43.046 24.9281 43.0422 24.994 43.0449C25.0268 43.0462 25.0596 43.0505 25.0924 43.0519C25.0447 43.05 24.9864 43.0306 25.0658 43.0514C25.1285 43.0678 25.1928 43.091 25.2559 43.1043C25.1439 43.0808 25.1944 43.0727 25.237 43.0964C25.273 43.1164 25.3094 43.1366 25.3454 43.1566C25.3674 43.1688 25.3867 43.1847 25.4078 43.1976C25.2861 43.1234 25.4019 43.199 25.4303 43.2263C25.6836 43.4689 26.0989 43.477 26.3508 43.2263C26.5965 42.9817 26.605 42.5536 26.3508 42.3102C25.7468 41.7314 24.8432 41.6043 24.0802 41.925C23.7225 42.0751 23.4063 42.3277 23.2192 42.6713C22.971 43.1269 22.9656 43.6625 23.0467 44.1613C23.1204 44.6153 23.3068 45.0353 23.5064 45.4466C23.6843 45.8132 23.8682 46.1827 24.1074 46.5142C24.368 46.875 24.6707 47.1782 25.0859 47.3585C25.5388 47.5552 26.0153 47.6454 26.507 47.5671C27.4522 47.4168 28.2157 46.3368 28.0516 45.4129C27.9922 45.0785 27.5637 44.8598 27.251 44.9605C26.8895 45.0768 26.7327 45.3988 26.7964 45.7573L26.7962 45.757Z" fill="#726A69"/>
<path d="M29.6334 44.9708C29.6575 45.1136 29.6477 45.2445 29.6133 45.3689C29.5932 45.4418 29.5826 45.4626 29.5666 45.4934C29.5509 45.5239 29.4503 45.6683 29.4891 45.6216C29.3326 45.8097 29.217 45.875 28.9708 45.868C28.8439 45.8642 28.6928 45.8324 28.5667 45.783C28.5122 45.7617 28.4498 45.7233 28.3928 45.6926C28.3172 45.6515 28.3836 45.6947 28.3999 45.7079C28.3776 45.6899 28.3568 45.6691 28.337 45.6486C28.3063 45.6167 28.2391 45.5363 28.3036 45.6186C28.2586 45.5614 28.2182 45.4998 28.178 45.4394C28.0923 45.3104 28.0129 45.1773 27.9356 45.0431C27.6375 44.5262 27.3625 43.9966 27.0661 43.4789C26.8534 43.1075 26.6631 42.7205 26.4968 42.3261C26.435 42.1795 26.3626 42.0265 26.323 41.8724C26.3162 41.8465 26.3099 41.8308 26.3148 41.8006C26.3189 41.7771 26.3601 41.6748 26.3805 41.6375C26.6823 41.0842 27.4761 40.8267 27.8708 41.2653C28.4305 41.888 29.3489 40.9692 28.7912 40.3492C27.9963 39.465 26.5915 39.6534 25.7629 40.3687C25.3585 40.7179 25.0279 41.2437 25.0141 41.789C25.0003 42.3342 25.3317 42.9121 25.5592 43.3928C25.9294 44.1756 26.3786 44.9462 26.8117 45.6971C27.0004 46.0248 27.206 46.3852 27.4946 46.6359C27.9041 46.9917 28.5135 47.1787 29.0532 47.1639C29.5986 47.1488 30.1055 46.9045 30.4535 46.4856C30.9018 45.9457 31.0035 45.3044 30.8888 44.6266C30.8302 44.2814 30.4022 44.0882 30.0882 44.1743C29.7207 44.2747 29.5748 44.6248 29.6336 44.9711L29.6334 44.9708Z" fill="#726A69"/>
<path d="M31.8785 43.7696C31.8625 44.086 31.7277 44.3265 31.5151 44.4479C31.3561 44.5386 31.1514 44.595 30.9797 44.483C30.7288 44.3192 30.5647 43.9842 30.4345 43.7197C30.1981 43.2395 29.9626 42.7593 29.7188 42.2826C29.3562 41.5733 28.8526 40.7184 28.7802 39.9486C28.7772 39.916 28.7796 39.7678 28.7753 39.8102C28.7666 39.8928 28.8122 39.7235 28.7842 39.7818C28.7601 39.8318 28.8122 39.7265 28.81 39.7308C28.8688 39.6231 28.9735 39.5257 29.11 39.4536C29.4227 39.2884 29.7904 39.3273 30.0763 39.5321C30.3684 39.7416 30.5598 40.1346 30.7505 40.4439C30.9781 40.8132 31.1988 41.1892 31.3914 41.5779C31.5468 41.8915 31.9937 41.9779 32.282 41.8103C32.6034 41.6232 32.6718 41.2388 32.5156 40.9239C32.2956 40.4801 32.0409 40.0517 31.7768 39.6328C31.4725 39.1505 31.1595 38.6587 30.6531 38.3634C29.5678 37.7307 27.9193 38.1431 27.5367 39.4244C27.3848 39.9327 27.5388 40.5055 27.7078 40.9911C27.9172 41.593 28.2038 42.1679 28.4921 42.7353C28.7894 43.3199 29.0676 43.917 29.3733 44.4971C29.6196 44.9648 29.9748 45.4407 30.4644 45.6744C31.025 45.9419 31.7152 45.8583 32.234 45.529C32.8521 45.1368 33.1445 44.4809 33.1803 43.7696C33.2221 42.9361 31.9202 42.9385 31.8785 43.7696Z" fill="#726A69"/>
<path d="M43.8847 55.4293C44.3566 58.9933 44.8879 62.5452 45.5364 66.0817C46.0341 68.7947 46.5957 71.5481 46.8306 74.24C46.9784 75.9341 46.7354 77.6661 46.5887 79.3523C46.5583 79.7013 46.9095 80.0001 47.2396 80.0001C47.6171 80.0001 47.8601 79.7024 47.8905 79.3523C48.0266 77.7892 48.2585 76.1751 48.1601 74.6031C48.0784 73.3002 47.8653 72.0016 47.66 70.7138C47.2125 67.9091 46.6478 65.1251 46.1892 62.3223C45.8141 60.0309 45.4914 57.7309 45.1865 55.4293C45.1407 55.0825 44.9202 54.7815 44.5356 54.7815C44.2197 54.7815 43.8383 55.08 43.8847 55.4293Z" fill="#BADA95"/>
<path d="M78.9756 46.9584C78.2937 46.3198 77.2924 46.2002 76.4289 46.5174C75.5005 46.8583 74.8494 47.559 74.7824 48.5642C74.7186 49.5246 75.2744 50.3783 75.6733 51.2094C76.0975 52.0937 76.523 52.9747 77.0662 53.7942C77.2596 54.0859 77.6418 54.2101 77.9569 54.0266C78.2482 53.857 78.3849 53.4335 78.1904 53.1401C77.7551 52.4834 77.3917 51.7878 77.0492 51.0796C76.8693 50.7076 76.6931 50.3338 76.5105 49.9632C76.3622 49.6622 76.2032 49.3772 76.1238 49.0492C76.0031 48.5501 76.1021 48.1385 76.5764 47.8683C77.0416 47.6035 77.6832 47.5263 78.0551 47.8745C78.6648 48.4457 79.5871 47.5312 78.9756 46.9584Z" fill="#726A69"/>
<path d="M95.3402 50.2376C93.1111 49.9226 90.881 49.6128 88.6514 49.3007C87.1952 49.0969 85.7388 48.8929 84.2827 48.6891C83.8116 48.6232 83.3408 48.5571 82.8697 48.4912C82.7333 48.4721 82.5966 48.4543 82.4604 48.4337C82.4254 48.4286 82.3902 48.4219 82.3549 48.4189C82.346 48.4181 82.3373 48.4157 82.3283 48.4151C82.1843 48.4073 82.3083 48.3717 82.3034 48.4297C82.3045 48.417 82.3514 48.5517 82.3102 48.5666C82.3685 48.5452 82.4035 47.9077 82.4132 47.8375C82.4694 47.4396 82.5252 47.0418 82.5811 46.6439C82.6353 46.2579 82.6896 45.8719 82.7433 45.486C82.7596 45.3691 82.7758 45.2522 82.7918 45.1353C82.7973 45.0959 82.8027 45.0565 82.8078 45.0171L82.8195 44.931C82.8309 44.8228 82.8341 44.816 82.8295 44.911C82.788 44.9375 82.8027 44.9585 82.762 44.9815C82.7159 45.0074 82.5928 44.9739 82.7107 44.9844C82.7593 44.9888 82.8078 44.9982 82.8561 45.005C83.0077 45.0263 83.1596 45.0476 83.3112 45.0689C83.8189 45.1402 84.3266 45.2112 84.8346 45.2824C87.7691 45.6935 90.7033 46.1043 93.6378 46.5154C94.123 46.5834 94.6082 46.6515 95.0937 46.7195C95.2339 46.7392 95.3741 46.7589 95.5143 46.7786C95.5499 46.7835 95.5854 46.7902 95.6209 46.7937C95.6315 46.7948 95.6418 46.7975 95.6524 46.798C95.7679 46.8056 95.7164 46.8118 95.6594 46.7122C95.6386 46.6752 95.6803 46.5907 95.6616 46.7408C95.6491 46.8401 95.6337 46.9389 95.6196 47.038L95.4796 48.0283L95.2006 50.0044C95.1919 50.0665 95.1794 50.1294 95.174 50.192C95.1726 50.2093 95.1588 50.2541 95.1604 50.2616C95.177 50.3324 95.0999 50.3132 95.1824 50.243C95.2204 50.2109 95.3549 50.2268 95.1664 50.2155C94.3297 50.165 94.3327 51.4606 95.1664 51.5111C95.7696 51.5475 96.3095 51.1303 96.4283 50.5421C96.4701 50.3353 96.4877 50.1207 96.5173 49.9118C96.6236 49.1585 96.7302 48.4051 96.8365 47.6518C96.8671 47.4348 96.8983 47.2178 96.9284 47.0005C97.0109 46.4056 96.7728 45.8217 96.1739 45.6028C95.8989 45.5021 95.5816 45.4908 95.2928 45.4503C92.3187 45.0333 89.3443 44.6171 86.3702 44.2006C85.3073 44.0519 84.2447 43.9031 83.1818 43.7539C83.0164 43.7307 82.8445 43.6953 82.679 43.7023C82.3424 43.7169 82.0362 43.8721 81.8179 44.1242C81.6959 44.2654 81.6099 44.4322 81.5635 44.6122C81.5391 44.7075 81.5155 45.0047 81.5489 44.6943C81.5459 44.7213 81.5416 44.7483 81.5378 44.7753C81.4317 45.538 81.3246 46.3011 81.2172 47.0636C81.1046 47.8621 80.7445 48.9755 81.5793 49.5029C81.8833 49.6951 82.2687 49.7059 82.6164 49.7545C83.8962 49.9337 85.1763 50.1129 86.4562 50.2922C89.2223 50.6795 91.9886 51.0663 94.7544 51.4544C94.8339 51.4655 94.9133 51.4766 94.9928 51.4879C95.3405 51.537 95.692 51.4031 95.7934 51.0355C95.8772 50.7319 95.689 50.2881 95.3389 50.2387L95.3402 50.2376Z" fill="#4F8D00"/>
<path d="M96.5971 63.4745C96.3549 65.0419 96.1175 66.6099 95.8756 68.1773C95.8412 68.4008 95.8032 68.6027 95.5843 68.7115C95.3807 68.8124 95.2836 68.752 95.0509 68.7201C94.5668 68.6537 94.0824 68.5873 93.5983 68.5209C90.8864 68.1495 88.1743 67.7795 85.4622 67.4091C82.9391 67.0647 80.4163 66.7203 77.8935 66.3745C77.4588 66.3149 76.842 66.3629 76.7333 65.8393C76.7051 65.7035 76.73 65.822 76.7422 65.703C76.7512 65.615 76.7664 65.5272 76.7786 65.4398C76.8079 65.2282 76.8369 65.0166 76.8659 64.8047C77.0034 63.8052 77.1406 62.8054 77.2776 61.8059C78.0028 56.5181 78.7253 51.2301 79.4506 45.9427C79.5878 44.9415 79.7253 43.9404 79.8631 42.9392C79.9073 42.6178 79.8867 42.0169 80.1131 41.7786C80.3889 41.4884 80.8495 41.6747 81.2511 41.7308C83.7644 42.082 86.278 42.4331 88.7913 42.7846C91.4736 43.1595 94.1561 43.5344 96.8384 43.9093C97.325 43.9774 97.8115 44.0454 98.2981 44.1134C98.5007 44.1417 98.7535 44.1396 98.9303 44.2465C99.15 44.3793 99.1611 44.6314 99.1448 44.7655C98.9872 46.0539 98.783 47.3381 98.6027 48.6232C98.5232 49.1893 98.4437 49.755 98.3651 50.321C98.3171 50.6671 98.4494 51.0166 98.8196 51.1178C99.1237 51.201 99.572 51.0142 99.6202 50.6654C99.8095 49.3034 100.002 47.9417 100.193 46.5797C100.279 45.9729 100.402 45.358 100.448 44.7472C100.514 43.8702 99.8551 43.0575 98.9902 42.9123C96.513 42.496 94.0045 42.2151 91.5167 41.8674C88.6704 41.4695 85.824 41.0719 82.9776 40.6741C82.4531 40.6007 81.9286 40.5275 81.4041 40.4541C80.7274 40.3596 80.0556 40.2233 79.4524 40.6476C78.8593 41.0647 78.7362 41.6598 78.6445 42.3244C78.5813 42.7824 78.5184 43.2405 78.4555 43.6983C78.1034 46.2609 77.7525 48.8241 77.4016 51.3869C77.008 54.2608 76.6148 57.1346 76.221 60.0082C76.0612 61.1742 75.9012 62.3403 75.7412 63.5064C75.678 63.9658 75.6148 64.4252 75.5516 64.8846C75.4643 65.5194 75.3317 66.1545 75.7016 66.7351C76.1157 67.3851 76.7585 67.5152 77.4639 67.6118C77.9966 67.685 78.5292 67.7579 79.0619 67.8307C80.4093 68.0151 81.7569 68.1992 83.1046 68.3833C86.0676 68.7879 89.0305 69.1922 91.9932 69.5976C92.5869 69.6789 93.1806 69.7601 93.7746 69.8414C94.2833 69.911 94.809 70.0263 95.3221 70.0495C96.1965 70.0889 96.9892 69.4273 97.1232 68.5736C97.22 67.9568 97.3087 67.3387 97.4036 66.7216C97.5525 65.754 97.7022 64.7863 97.8519 63.8186C97.9054 63.4732 97.7641 63.122 97.3974 63.0218C97.089 62.9376 96.6505 63.1263 96.5968 63.4742L96.5971 63.4745Z" fill="#726A69"/>
<path d="M93.7958 55.3602C93.4416 55.31 93.0876 55.2598 92.7334 55.2096C92.6559 55.1986 92.5786 55.1878 92.501 55.1767C92.459 55.1708 92.4161 55.1667 92.3746 55.1578L92.3394 55.1494C92.2743 55.1281 92.293 55.1373 92.3952 55.177C92.3909 55.1716 92.3342 55.1421 92.3347 55.1421L92.4115 55.2018C92.3941 55.187 92.3776 55.171 92.3621 55.154C92.4223 55.1759 92.447 55.2766 92.3936 55.1886C92.3155 55.0604 92.4375 55.3154 92.4009 55.2004C92.3616 55.0774 92.4091 55.3643 92.408 55.2331C92.4077 55.191 92.4251 55.1181 92.3963 55.2917C92.4082 55.2202 92.4169 55.1478 92.427 55.076C92.4527 54.8938 92.4779 54.7116 92.5026 54.5294C92.5184 54.4136 92.5341 54.2976 92.5496 54.1815L92.5552 54.1391C92.565 54.0657 92.5628 54.0835 92.549 54.1926C92.5536 54.1877 92.5677 54.1227 92.5677 54.1227L92.5292 54.212C92.5395 54.1909 92.5512 54.1707 92.5639 54.1513C92.5596 54.2177 92.4698 54.2552 92.5273 54.2015C92.6193 54.1154 92.3898 54.2725 92.5029 54.2166C92.5224 54.2044 92.5428 54.1936 92.5639 54.1839C92.4663 54.222 92.4419 54.2339 92.4901 54.2193C92.5848 54.1842 92.5219 54.2603 92.4392 54.222L92.4752 54.2212C92.5422 54.2252 92.5241 54.2215 92.4205 54.2101C92.4975 54.2217 92.5745 54.232 92.6515 54.243C92.8286 54.2681 93.0057 54.2935 93.1831 54.3186C93.3605 54.3437 93.5389 54.3683 93.7166 54.3945C93.744 54.3985 93.7727 54.4015 93.8001 54.4074L93.8354 54.4161C93.9005 54.4374 93.8817 54.4285 93.7792 54.3888L93.8099 54.4053C93.8663 54.4417 93.8505 54.4279 93.7624 54.364L93.7876 54.3872C93.8329 54.436 93.8213 54.4182 93.7524 54.334L93.7713 54.3626C93.8036 54.4217 93.7968 54.4007 93.7516 54.2997C93.7526 54.314 93.7665 54.3494 93.7724 54.3656C93.8164 54.4857 93.7624 54.2028 93.7657 54.3329C93.7686 54.4557 93.7849 54.2233 93.783 54.2363C93.7776 54.2746 93.7722 54.3132 93.7667 54.3515L93.6943 54.8644C93.6729 55.0166 93.6528 55.1691 93.6298 55.3211C93.6271 55.3397 93.6246 55.3578 93.6208 55.3764L93.6124 55.4115C93.591 55.4763 93.6002 55.4577 93.6401 55.3559C93.6325 55.3716 93.6238 55.3867 93.6143 55.4013C93.5875 55.4431 93.6046 55.4226 93.665 55.3397L93.6417 55.3651C93.5926 55.4104 93.6105 55.3988 93.6951 55.3303C93.6737 55.3365 93.6244 55.3654 93.6059 55.3816L93.6968 55.3411C93.6745 55.3481 93.652 55.3538 93.629 55.3578C93.744 55.3454 93.7662 55.3408 93.6957 55.3435C93.6713 55.3432 93.6469 55.3413 93.6227 55.3378C93.4676 55.3208 93.2683 55.4223 93.1625 55.5276C93.0497 55.6399 92.9645 55.8242 92.9718 55.9856C92.9889 56.3681 93.2588 56.5938 93.6227 56.6335C94.1763 56.6936 94.6696 56.3044 94.8502 55.8061C94.8996 55.6696 94.9064 55.5125 94.9264 55.37L95.0168 54.7311C95.0238 54.6809 95.0311 54.6306 95.0382 54.5802C95.0748 54.3183 95.0648 54.0911 94.9606 53.846C94.8597 53.6082 94.6794 53.4047 94.4513 53.2783C94.243 53.1628 94.0279 53.1404 93.7977 53.1078C93.5785 53.0767 93.3594 53.0454 93.1402 53.0144C92.9138 52.9822 92.6664 52.9177 92.4392 52.9269C91.9076 52.9482 91.4094 53.3199 91.2938 53.849C91.2746 53.9375 91.2683 54.0295 91.2564 54.1191C91.2537 54.1402 91.2507 54.1613 91.248 54.1823C91.248 54.1839 91.2667 54.0438 91.2567 54.1189C91.2423 54.2247 91.2279 54.3305 91.2133 54.4363C91.1837 54.6493 91.1525 54.862 91.1238 55.0749C91.0441 55.665 91.4251 56.2788 92.0288 56.4078C92.2561 56.4564 92.4942 56.4747 92.7245 56.5074C92.9664 56.5417 93.2083 56.576 93.4502 56.6102C93.6311 56.6359 93.7874 56.6407 93.9517 56.5449C94.0868 56.4664 94.2156 56.3122 94.2509 56.1579C94.3208 55.8518 94.1567 55.4121 93.7963 55.3611L93.7958 55.3602Z" fill="#726A69"/>
<path d="M92.4325 65.0243C92.0783 64.9741 91.7243 64.9239 91.3701 64.8737C91.2926 64.8626 91.2153 64.8518 91.1377 64.8408C91.0957 64.8348 91.0528 64.8308 91.0113 64.8219L90.9761 64.8135C90.911 64.7922 90.9297 64.8014 91.0319 64.841C91.0276 64.8356 90.9709 64.8062 90.9715 64.8062L91.0482 64.8659C91.0309 64.851 91.0143 64.8351 90.9989 64.8181C91.0591 64.8399 91.0837 64.9406 91.0303 64.8526C90.9522 64.7244 91.0743 64.9795 91.0376 64.8645C90.9983 64.7414 91.0458 65.0284 91.0447 64.8972C91.0444 64.8551 91.0618 64.7822 91.033 64.9557C91.045 64.8842 91.0536 64.8119 91.0637 64.7401C91.0894 64.5579 91.1147 64.3757 91.1393 64.1935C91.1551 64.0777 91.1708 63.9616 91.1863 63.8456L91.192 63.8032C91.2017 63.7298 91.1996 63.7476 91.1857 63.8566C91.1903 63.8518 91.2044 63.7867 91.2044 63.7867L91.1659 63.8761C91.1762 63.855 91.1879 63.8348 91.2006 63.8153C91.1963 63.8817 91.1065 63.9192 91.164 63.8655C91.256 63.7794 91.0265 63.9365 91.1396 63.8807C91.1591 63.8685 91.1795 63.8577 91.2006 63.848C91.103 63.8861 91.0786 63.8979 91.1269 63.8834C91.2215 63.8483 91.1586 63.9244 91.0759 63.8861L91.112 63.8852C91.1789 63.8893 91.1608 63.8855 91.0572 63.8742C91.1342 63.8858 91.2112 63.896 91.2882 63.9071C91.4653 63.9322 91.6424 63.9576 91.8198 63.9827C91.9972 64.0078 92.1756 64.0323 92.3533 64.0585C92.3807 64.0626 92.4094 64.0655 92.4368 64.0715L92.4721 64.0801C92.5372 64.1014 92.5185 64.0925 92.4159 64.0529L92.4466 64.0693C92.503 64.1058 92.4873 64.092 92.3991 64.028L92.4243 64.0512C92.4696 64.1001 92.458 64.0823 92.3891 63.9981L92.4081 64.0267C92.4403 64.0858 92.4336 64.0647 92.3883 63.9638C92.3894 63.9781 92.4032 64.0135 92.4092 64.0296C92.4531 64.1498 92.3991 63.8669 92.4024 63.997C92.4054 64.1198 92.4216 63.8874 92.4197 63.9004C92.4143 63.9387 92.4089 63.9773 92.4035 64.0156L92.331 64.5285C92.3096 64.6807 92.2896 64.8332 92.2665 64.9852C92.2638 65.0038 92.2613 65.0219 92.2575 65.0405L92.2491 65.0756C92.2277 65.1404 92.2369 65.1217 92.2768 65.02C92.2692 65.0356 92.2605 65.0508 92.251 65.0653C92.2242 65.1072 92.2413 65.0867 92.3018 65.0038L92.2784 65.0292C92.2293 65.0745 92.2472 65.0629 92.3319 64.9943C92.3104 65.0006 92.2611 65.0294 92.2426 65.0456L92.3335 65.0051C92.3112 65.0122 92.2887 65.0178 92.2657 65.0219C92.3807 65.0095 92.4029 65.0049 92.3324 65.0076C92.308 65.0073 92.2836 65.0054 92.2594 65.0019C92.1043 64.9849 91.905 65.0864 91.7992 65.1917C91.6864 65.3039 91.6012 65.4883 91.6085 65.6497C91.6256 66.0322 91.8955 66.2578 92.2594 66.2975C92.813 66.3577 93.3063 65.9685 93.4869 65.4702C93.5363 65.3336 93.5431 65.1765 93.5632 65.034L93.6535 64.3951C93.6605 64.3449 93.6678 64.2947 93.6749 64.2442C93.7115 63.9824 93.7015 63.7551 93.5973 63.5101C93.4964 63.2723 93.3161 63.0687 93.088 62.9424C92.8797 62.8269 92.6646 62.8045 92.4344 62.7718C92.2152 62.7408 91.9961 62.7095 91.777 62.6784C91.5505 62.6463 91.3032 62.5818 91.0759 62.591C90.5443 62.6123 90.0461 62.984 89.9306 63.513C89.9113 63.6016 89.9051 63.6936 89.8931 63.7832C89.8904 63.8043 89.8874 63.8253 89.8847 63.8464C89.8847 63.848 89.9034 63.7079 89.8934 63.7829C89.879 63.8887 89.8647 63.9946 89.85 64.1004C89.8204 64.3133 89.7893 64.526 89.7605 64.739C89.6808 65.329 90.0618 65.9428 90.6655 66.0719C90.8928 66.1205 91.1309 66.1388 91.3612 66.1715C91.6031 66.2057 91.845 66.24 92.087 66.2743C92.2679 66.2999 92.4241 66.3048 92.5884 66.209C92.7235 66.1304 92.8523 65.9763 92.8876 65.8219C92.9575 65.5158 92.7935 65.0761 92.433 65.0251L92.4325 65.0243Z" fill="#726A69"/>
<path d="M82.3778 63.6183C82.0236 63.5681 81.6697 63.5179 81.3155 63.4677C81.2379 63.4566 81.1606 63.4458 81.083 63.4348C81.041 63.4288 80.9981 63.4248 80.9566 63.4159L80.9214 63.4075C80.8563 63.3862 80.875 63.3953 80.9773 63.435C80.9729 63.4296 80.9162 63.4002 80.9168 63.4002L80.9935 63.4599C80.9762 63.445 80.9596 63.4291 80.9442 63.4121C81.0044 63.4339 81.0291 63.5346 80.9756 63.4466C80.8975 63.3184 81.0196 63.5735 80.983 63.4585C80.9436 63.3354 80.9911 63.6223 80.99 63.4912C80.9897 63.4491 81.0071 63.3762 80.9783 63.5497C80.9903 63.4782 80.999 63.4059 81.009 63.3341C81.0348 63.1519 81.06 62.9697 81.0847 62.7875C81.1004 62.6717 81.1161 62.5556 81.1316 62.4396L81.1373 62.3972C81.147 62.3238 81.1449 62.3416 81.131 62.4506C81.1356 62.4458 81.1497 62.3807 81.1497 62.3807L81.1112 62.4701C81.1215 62.449 81.1332 62.4288 81.146 62.4093C81.1416 62.4757 81.0518 62.5132 81.1093 62.4595C81.2013 62.3734 80.9718 62.5305 81.0849 62.4746C81.1045 62.4625 81.1248 62.4517 81.146 62.442C81.0483 62.48 81.0239 62.4919 81.0722 62.4773C81.1668 62.4423 81.1039 62.5184 81.0212 62.48L81.0573 62.4792C81.1243 62.4833 81.1061 62.4795 81.0025 62.4682C81.0795 62.4798 81.1565 62.49 81.2336 62.5011C81.4107 62.5262 81.5878 62.5516 81.7651 62.5767C81.9425 62.6018 82.121 62.6263 82.2986 62.6525C82.326 62.6566 82.3547 62.6595 82.3821 62.6655L82.4174 62.6741C82.4825 62.6954 82.4638 62.6865 82.3612 62.6469L82.3919 62.6633C82.4483 62.6998 82.4326 62.686 82.3444 62.622L82.3697 62.6452C82.4149 62.6941 82.4033 62.6763 82.3344 62.5921L82.3534 62.6207C82.3857 62.6798 82.3789 62.6587 82.3336 62.5578C82.3347 62.5721 82.3485 62.6074 82.3545 62.6236C82.3984 62.7438 82.3444 62.4609 82.3477 62.591C82.3507 62.7138 82.3669 62.4814 82.365 62.4944C82.3596 62.5327 82.3542 62.5713 82.3488 62.6096L82.2764 63.1225C82.2549 63.2747 82.2349 63.4272 82.2118 63.5792C82.2091 63.5978 82.2067 63.6159 82.2029 63.6345L82.1945 63.6696C82.173 63.7344 82.1822 63.7157 82.2221 63.614C82.2145 63.6296 82.2058 63.6448 82.1964 63.6593C82.1695 63.7012 82.1866 63.6807 82.2471 63.5978L82.2237 63.6232C82.1747 63.6685 82.1926 63.6569 82.2772 63.5883C82.2557 63.5945 82.2064 63.6234 82.1879 63.6396L82.2788 63.5991C82.2566 63.6062 82.234 63.6118 82.211 63.6159C82.326 63.6035 82.3482 63.5989 82.2777 63.6016C82.2533 63.6013 82.2289 63.5994 82.2048 63.5959C82.0496 63.5789 81.8503 63.6804 81.7445 63.7856C81.6317 63.8979 81.5465 64.0823 81.5539 64.2437C81.5709 64.6262 81.8408 64.8518 82.2048 64.8915C82.7583 64.9517 83.2516 64.5625 83.4323 64.0642C83.4816 63.9276 83.4884 63.7705 83.5085 63.628L83.5988 62.9891C83.6058 62.9389 83.6132 62.8887 83.6202 62.8382C83.6568 62.5764 83.6468 62.3491 83.5426 62.104C83.4418 61.8662 83.2614 61.6627 83.0333 61.5364C82.825 61.4209 82.61 61.3985 82.3797 61.3658C82.1606 61.3348 81.9414 61.3035 81.7223 61.2724C81.4958 61.2403 81.2485 61.1758 81.0212 61.185C80.4896 61.2063 79.9914 61.578 79.8759 62.107C79.8566 62.1955 79.8504 62.2876 79.8384 62.3772C79.8357 62.3983 79.8327 62.4193 79.83 62.4404C79.83 62.442 79.8488 62.3019 79.8387 62.3769C79.8243 62.4827 79.81 62.5886 79.7953 62.6944C79.7658 62.9073 79.7346 63.12 79.7058 63.333C79.6261 63.923 80.0071 64.5368 80.6109 64.6659C80.8381 64.7144 81.0763 64.7328 81.3065 64.7655C81.5484 64.7997 81.7903 64.834 82.0323 64.8683C82.2132 64.8939 82.3694 64.8988 82.5337 64.803C82.6688 64.7244 82.7976 64.5703 82.8329 64.4159C82.9029 64.1098 82.7388 63.6701 82.3783 63.6191L82.3778 63.6183Z" fill="#726A69"/>
<path d="M87.4051 64.3212C87.0509 64.271 86.697 64.2208 86.3428 64.1706C86.2652 64.1595 86.1879 64.1487 86.1104 64.1376C86.0683 64.1317 86.0255 64.1276 85.984 64.1187L85.9487 64.1104C85.8836 64.089 85.9024 64.0982 86.0046 64.1379C86.0003 64.1325 85.9436 64.1031 85.9441 64.1031L86.0209 64.1627C86.0035 64.1479 85.987 64.132 85.9715 64.115C86.0317 64.1368 86.0564 64.2375 86.003 64.1495C85.9249 64.0213 86.0469 64.2764 86.0103 64.1614C85.971 64.0383 86.0184 64.3252 86.0173 64.194C86.0171 64.1519 86.0344 64.0791 86.0057 64.2526C86.0176 64.1811 86.0263 64.1088 86.0363 64.037C86.0621 63.8548 86.0873 63.6726 86.112 63.4904C86.1277 63.3746 86.1435 63.2585 86.1589 63.1424L86.1646 63.1001C86.1744 63.0266 86.1722 63.0445 86.1584 63.1535C86.163 63.1486 86.1771 63.0836 86.1771 63.0836L86.1386 63.1729C86.1489 63.1519 86.1605 63.1316 86.1733 63.1122C86.169 63.1786 86.0792 63.2161 86.1367 63.1624C86.2286 63.0763 85.9992 63.2334 86.1123 63.1775C86.1318 63.1654 86.1521 63.1546 86.1733 63.1449C86.0757 63.1829 86.0512 63.1948 86.0995 63.1802C86.1942 63.1451 86.1313 63.2213 86.0485 63.1829L86.0846 63.1821C86.1516 63.1862 86.1334 63.1824 86.0298 63.171C86.1068 63.1827 86.1839 63.1929 86.2609 63.204C86.438 63.2291 86.6151 63.2545 86.7925 63.2796C86.9698 63.3047 87.1483 63.3292 87.3259 63.3554C87.3533 63.3595 87.3821 63.3624 87.4095 63.3684L87.4447 63.377C87.5098 63.3983 87.4911 63.3894 87.3886 63.3497L87.4192 63.3662C87.4756 63.4026 87.4599 63.3889 87.3718 63.3249L87.397 63.3481C87.4423 63.397 87.4306 63.3792 87.3617 63.2949L87.3807 63.3236C87.413 63.3827 87.4062 63.3616 87.3609 63.2607C87.362 63.275 87.3758 63.3103 87.3818 63.3265C87.4257 63.4466 87.3718 63.1638 87.375 63.2939C87.378 63.4167 87.3943 63.1843 87.3924 63.1972C87.387 63.2356 87.3815 63.2742 87.3761 63.3125L87.3037 63.8253C87.2823 63.9776 87.2622 64.1301 87.2392 64.282C87.2364 64.3007 87.234 64.3187 87.2302 64.3374L87.2218 64.3725C87.2004 64.4372 87.2096 64.4186 87.2495 64.3169C87.2419 64.3325 87.2332 64.3476 87.2237 64.3622C87.1968 64.404 87.2139 64.3835 87.2744 64.3007L87.2511 64.326C87.202 64.3714 87.2199 64.3598 87.3045 64.2912C87.2831 64.2974 87.2337 64.3263 87.2153 64.3425L87.3061 64.302C87.2839 64.309 87.2614 64.3147 87.2383 64.3187C87.3533 64.3063 87.3756 64.3017 87.3051 64.3044C87.2806 64.3042 87.2562 64.3023 87.2321 64.2988C87.077 64.2818 86.8776 64.3833 86.7719 64.4885C86.659 64.6008 86.5739 64.7852 86.5812 64.9466C86.5983 65.3291 86.8681 65.5547 87.2321 65.5944C87.7856 65.6546 88.279 65.2654 88.4596 64.7671C88.509 64.6305 88.5157 64.4734 88.5358 64.3309L88.6261 63.692C88.6332 63.6418 88.6405 63.5916 88.6476 63.5411C88.6842 63.2793 88.6741 63.052 88.57 62.8069C88.4691 62.5691 88.2887 62.3656 88.0607 62.2393C87.8524 62.1238 87.6373 62.1014 87.407 62.0687C87.1879 62.0377 86.9688 62.0063 86.7496 61.9753C86.5232 61.9432 86.2758 61.8787 86.0485 61.8878C85.517 61.9092 85.0187 62.2809 84.9032 62.8099C84.884 62.8984 84.8777 62.9905 84.8658 63.0801C84.8631 63.1011 84.8601 63.1222 84.8574 63.1432C84.8574 63.1449 84.8761 63.0048 84.8661 63.0798C84.8517 63.1856 84.8373 63.2914 84.8227 63.3972C84.7931 63.6102 84.7619 63.8229 84.7332 64.0359C84.6534 64.6259 85.0345 65.2397 85.6382 65.3687C85.8655 65.4173 86.1036 65.4357 86.3338 65.4683C86.5758 65.5026 86.8177 65.5369 87.0596 65.5712C87.2405 65.5968 87.3967 65.6017 87.5611 65.5059C87.6961 65.4273 87.825 65.2732 87.8602 65.1188C87.9302 64.8127 87.7661 64.373 87.4057 64.322L87.4051 64.3212Z" fill="#726A69"/>
<path d="M93.1141 60.1923C92.7599 60.1421 92.406 60.0919 92.0518 60.0417C91.9742 60.0306 91.8969 60.0198 91.8194 60.0087C91.7773 60.0028 91.7345 59.9987 91.693 59.9898L91.6577 59.9815C91.5926 59.9601 91.6113 59.9693 91.7136 60.009C91.7092 60.0036 91.6526 59.9742 91.6531 59.9742L91.7299 60.0338C91.7125 60.019 91.696 60.0031 91.6805 59.986C91.7407 60.0079 91.7654 60.1086 91.712 60.0206C91.6338 59.8924 91.7559 60.1475 91.7193 60.0325C91.68 59.9094 91.7274 60.1963 91.7263 60.0651C91.7261 60.023 91.7434 59.9502 91.7147 60.1237C91.7266 60.0522 91.7353 59.9798 91.7453 59.908C91.7711 59.7259 91.7963 59.5437 91.821 59.3615C91.8367 59.2457 91.8524 59.1296 91.8679 59.0135L91.8736 58.9712C91.8834 58.8977 91.8812 58.9155 91.8674 59.0246C91.872 59.0197 91.8861 58.9547 91.8861 58.9547L91.8476 59.044C91.8579 59.023 91.8695 59.0027 91.8823 58.9833C91.8779 59.0497 91.7882 59.0872 91.8457 59.0335C91.9376 58.9474 91.7082 59.1045 91.8213 59.0486C91.8408 59.0365 91.8611 59.0257 91.8823 59.016C91.7846 59.054 91.7602 59.0659 91.8085 59.0513C91.9032 59.0162 91.8402 59.0923 91.7575 59.054L91.7936 59.0532C91.8606 59.0573 91.8424 59.0535 91.7388 59.0421C91.8158 59.0537 91.8929 59.064 91.9699 59.0751C92.147 59.1002 92.3241 59.1255 92.5015 59.1507C92.6788 59.1758 92.8573 59.2003 93.0349 59.2265C93.0623 59.2305 93.0911 59.2335 93.1185 59.2395L93.1537 59.2481C93.2188 59.2694 93.2001 59.2605 93.0976 59.2208L93.1282 59.2373C93.1846 59.2737 93.1689 59.26 93.0808 59.196L93.106 59.2192C93.1513 59.2681 93.1396 59.2502 93.0707 59.166L93.0897 59.1946C93.122 59.2538 93.1152 59.2327 93.0699 59.1318C93.071 59.1461 93.0848 59.1814 93.0908 59.1976C93.1347 59.3177 93.0808 59.0349 93.084 59.165C93.087 59.2878 93.1033 59.0554 93.1014 59.0683C93.0959 59.1067 93.0905 59.1453 93.0851 59.1836L93.0127 59.6964C92.9913 59.8487 92.9712 60.0012 92.9481 60.1531C92.9454 60.1718 92.943 60.1898 92.9392 60.2085L92.9308 60.2436C92.9094 60.3083 92.9186 60.2897 92.9584 60.188C92.9508 60.2036 92.9422 60.2187 92.9327 60.2333C92.9058 60.2751 92.9229 60.2546 92.9834 60.1718L92.9601 60.1971C92.911 60.2425 92.9289 60.2309 93.0135 60.1623C92.9921 60.1685 92.9427 60.1974 92.9243 60.2136L93.0151 60.1731C92.9929 60.1801 92.9704 60.1858 92.9473 60.1898C93.0623 60.1774 93.0846 60.1728 93.014 60.1755C92.9896 60.1753 92.9652 60.1734 92.9411 60.1699C92.786 60.1529 92.5866 60.2544 92.4808 60.3596C92.368 60.4719 92.2829 60.6563 92.2902 60.8177C92.3073 61.2002 92.5771 61.4258 92.9411 61.4655C93.4946 61.5257 93.988 61.1364 94.1686 60.6382C94.2179 60.5016 94.2247 60.3445 94.2448 60.202L94.3351 59.5631C94.3422 59.5129 94.3495 59.4627 94.3565 59.4122C94.3931 59.1504 94.3831 58.9231 94.279 58.678C94.1781 58.4402 93.9977 58.2367 93.7696 58.1104C93.5613 57.9949 93.3463 57.9724 93.116 57.9398C92.8969 57.9087 92.6777 57.8774 92.4586 57.8464C92.2321 57.8143 91.9848 57.7498 91.7575 57.7589C91.2259 57.7803 90.7277 58.1519 90.6122 58.681C90.5929 58.7695 90.5867 58.8616 90.5748 58.9512C90.5721 58.9722 90.5691 58.9933 90.5664 59.0143C90.5664 59.016 90.5851 58.8759 90.575 58.9509C90.5607 59.0567 90.5463 59.1625 90.5316 59.2683C90.5021 59.4813 90.4709 59.694 90.4421 59.907C90.3624 60.497 90.7435 61.1108 91.3472 61.2398C91.5745 61.2884 91.8126 61.3068 92.0428 61.3394C92.2848 61.3737 92.5267 61.408 92.7686 61.4423C92.9495 61.4679 93.1057 61.4728 93.2701 61.377C93.4051 61.2984 93.534 61.1443 93.5692 60.9899C93.6392 60.6838 93.4751 60.2441 93.1147 60.1931L93.1141 60.1923Z" fill="#726A69"/>
<path d="M83.0614 58.786C82.7072 58.7358 82.3533 58.6856 81.9991 58.6354C81.9215 58.6243 81.8442 58.6135 81.7666 58.6025C81.7246 58.5965 81.6817 58.5925 81.6402 58.5836L81.605 58.5752C81.5399 58.5539 81.5586 58.5631 81.6609 58.6027C81.6565 58.5973 81.5998 58.5679 81.6004 58.5679L81.6771 58.6276C81.6598 58.6127 81.6432 58.5968 81.6278 58.5798C81.688 58.6017 81.7127 58.7023 81.6592 58.6144C81.5811 58.4861 81.7032 58.7412 81.6665 58.6262C81.6272 58.5031 81.6747 58.7901 81.6736 58.6589C81.6733 58.6168 81.6907 58.5439 81.6619 58.7175C81.6739 58.6459 81.6825 58.5736 81.6926 58.5018C81.7183 58.3196 81.7436 58.1374 81.7683 57.9552C81.784 57.8394 81.7997 57.7233 81.8152 57.6073L81.8209 57.5649C81.8306 57.4915 81.8285 57.5093 81.8146 57.6183C81.8192 57.6135 81.8333 57.5484 81.8333 57.5484L81.7948 57.6378C81.8051 57.6167 81.8168 57.5965 81.8295 57.5771C81.8252 57.6435 81.7354 57.681 81.7929 57.6273C81.8849 57.5411 81.6554 57.6982 81.7685 57.6424C81.788 57.6302 81.8084 57.6194 81.8295 57.6097C81.7319 57.6478 81.7075 57.6596 81.7558 57.6451C81.8504 57.61 81.7875 57.6861 81.7048 57.6478L81.7409 57.647C81.8078 57.651 81.7897 57.6472 81.6861 57.6359C81.7631 57.6475 81.8401 57.6578 81.9171 57.6688C82.0942 57.6939 82.2713 57.7193 82.4487 57.7444C82.6261 57.7695 82.8045 57.7941 82.9822 57.8203C83.0096 57.8243 83.0383 57.8273 83.0657 57.8332L83.101 57.8418C83.1661 57.8632 83.1474 57.8543 83.0448 57.8146L83.0755 57.831C83.1319 57.8675 83.1162 57.8537 83.028 57.7897L83.0532 57.813C83.0985 57.8618 83.0869 57.844 83.018 57.7598L83.037 57.7884C83.0692 57.8475 83.0625 57.8265 83.0172 57.7255C83.0183 57.7398 83.0321 57.7752 83.0381 57.7914C83.082 57.9115 83.028 57.6286 83.0313 57.7587C83.0343 57.8815 83.0505 57.6491 83.0486 57.6621C83.0432 57.7004 83.0378 57.739 83.0324 57.7773L82.96 58.2902C82.9385 58.4424 82.9185 58.5949 82.8954 58.7469C82.8927 58.7655 82.8903 58.7836 82.8865 58.8022L82.878 58.8373C82.8566 58.9021 82.8658 58.8835 82.9057 58.7817C82.8981 58.7974 82.8894 58.8125 82.8799 58.8271C82.8531 58.8689 82.8702 58.8484 82.9307 58.7655L82.9073 58.7909C82.8582 58.8362 82.8761 58.8246 82.9608 58.7561C82.9393 58.7623 82.89 58.7912 82.8715 58.8073L82.9624 58.7669C82.9402 58.7739 82.9176 58.7795 82.8946 58.7836C83.0096 58.7712 83.0318 58.7666 82.9613 58.7693C82.9369 58.769 82.9125 58.7671 82.8884 58.7636C82.7332 58.7466 82.5339 58.8481 82.4281 58.9534C82.3153 59.0657 82.2301 59.25 82.2374 59.4114C82.2545 59.7939 82.5244 60.0196 82.8884 60.0592C83.4419 60.1194 83.9352 59.7302 84.1159 59.2319C84.1652 59.0954 84.172 58.9383 84.1921 58.7957L84.2824 58.1568C84.2894 58.1066 84.2968 58.0564 84.3038 58.006C84.3404 57.7441 84.3304 57.5169 84.2262 57.2718C84.1253 57.034 83.945 56.8305 83.7169 56.7041C83.5086 56.5886 83.2935 56.5662 83.0633 56.5335C82.8441 56.5025 82.625 56.4712 82.4059 56.4401C82.1794 56.408 81.9321 56.3435 81.7048 56.3527C81.1732 56.374 80.675 56.7457 80.5595 57.2747C80.5402 57.3633 80.534 57.4553 80.522 57.5449C80.5193 57.566 80.5163 57.587 80.5136 57.6081C80.5136 57.6097 80.5323 57.4696 80.5223 57.5447C80.5079 57.6505 80.4936 57.7563 80.4789 57.8621C80.4494 58.0751 80.4182 58.2878 80.3894 58.5007C80.3097 59.0908 80.6907 59.7046 81.2944 59.8336C81.5217 59.8822 81.7598 59.9005 81.9901 59.9332C82.232 59.9675 82.4739 60.0017 82.7159 60.036C82.8968 60.0617 83.053 60.0665 83.2173 59.9707C83.3524 59.8922 83.4812 59.738 83.5165 59.5836C83.5864 59.2775 83.4224 58.8378 83.0619 58.7868L83.0614 58.786Z" fill="#726A69"/>
<path d="M88.0868 59.4891C87.7326 59.4389 87.3786 59.3887 87.0244 59.3385C86.9469 59.3275 86.8696 59.3167 86.792 59.3056C86.75 59.2997 86.7071 59.2956 86.6656 59.2867L86.6304 59.2783C86.5653 59.257 86.584 59.2662 86.6862 59.3059C86.6819 59.3005 86.6252 59.2711 86.6258 59.2711L86.7025 59.3307C86.6852 59.3159 86.6686 59.2999 86.6532 59.2829C86.7134 59.3048 86.738 59.4055 86.6846 59.3175C86.6065 59.1893 86.7286 59.4443 86.6919 59.3294C86.6526 59.2063 86.7001 59.4932 86.699 59.362C86.6987 59.3199 86.7161 59.247 86.6873 59.4206C86.6993 59.3491 86.7079 59.2767 86.718 59.2049C86.7437 59.0227 86.769 58.8405 86.7936 58.6583C86.8094 58.5425 86.8251 58.4265 86.8406 58.3104L86.8463 58.268C86.856 58.1946 86.8538 58.2124 86.84 58.3215C86.8446 58.3166 86.8587 58.2516 86.8587 58.2516L86.8202 58.3409C86.8305 58.3199 86.8422 58.2996 86.8549 58.2802C86.8506 58.3466 86.7608 58.3841 86.8183 58.3304C86.9103 58.2443 86.6808 58.4014 86.7939 58.3455C86.8134 58.3333 86.8338 58.3226 86.8549 58.3128C86.7573 58.3509 86.7329 58.3628 86.7812 58.3482C86.8758 58.3131 86.8129 58.3892 86.7302 58.3509L86.7662 58.3501C86.8332 58.3541 86.8151 58.3504 86.7115 58.339C86.7885 58.3506 86.8655 58.3609 86.9425 58.3719C87.1196 58.397 87.2967 58.4224 87.4741 58.4475C87.6515 58.4726 87.8299 58.4972 88.0076 58.5234C88.035 58.5274 88.0637 58.5304 88.0911 58.5363L88.1264 58.545C88.1915 58.5663 88.1727 58.5574 88.0702 58.5177L88.1009 58.5342C88.1573 58.5706 88.1416 58.5568 88.0534 58.4929L88.0786 58.5161C88.1239 58.5649 88.1123 58.5471 88.0434 58.4629L88.0624 58.4915C88.0946 58.5506 88.0879 58.5296 88.0426 58.4286C88.0437 58.4429 88.0575 58.4783 88.0634 58.4945C88.1074 58.6146 88.0534 58.3317 88.0567 58.4618C88.0597 58.5846 88.0759 58.3522 88.074 58.3652C88.0686 58.4035 88.0632 58.4421 88.0578 58.4805L87.9853 58.9933C87.9639 59.1455 87.9438 59.298 87.9208 59.45C87.9181 59.4686 87.9156 59.4867 87.9118 59.5053L87.9034 59.5404C87.882 59.6052 87.8912 59.5866 87.9311 59.4848C87.9235 59.5005 87.9148 59.5156 87.9053 59.5302C87.8785 59.572 87.8956 59.5515 87.9561 59.4686L87.9327 59.494C87.8836 59.5393 87.9015 59.5277 87.9862 59.4592C87.9647 59.4654 87.9154 59.4943 87.8969 59.5105L87.9878 59.47C87.9655 59.477 87.943 59.4827 87.92 59.4867C88.035 59.4743 88.0572 59.4697 87.9867 59.4724C87.9623 59.4721 87.9379 59.4702 87.9137 59.4667C87.7586 59.4497 87.5593 59.5512 87.4535 59.6565C87.3407 59.7688 87.2555 59.9531 87.2628 60.1146C87.2799 60.497 87.5498 60.7227 87.9137 60.7624C88.4673 60.8226 88.9606 60.4333 89.1412 59.9351C89.1906 59.7985 89.1974 59.6414 89.2175 59.4989L89.3078 58.86C89.3148 58.8098 89.3221 58.7596 89.3292 58.7091C89.3658 58.4473 89.3558 58.22 89.2516 57.9749C89.1507 57.7371 88.9704 57.5336 88.7423 57.4073C88.534 57.2917 88.3189 57.2693 88.0887 57.2367C87.8695 57.2056 87.6504 57.1743 87.4313 57.1433C87.2048 57.1111 86.9575 57.0466 86.7302 57.0558C86.1986 57.0771 85.7004 57.4488 85.5849 57.9779C85.5656 58.0664 85.5594 58.1584 85.5474 58.2481C85.5447 58.2691 85.5417 58.2902 85.539 58.3112C85.539 58.3128 85.5577 58.1727 85.5477 58.2478C85.5333 58.3536 85.5189 58.4594 85.5043 58.5652C85.4747 58.7782 85.4436 58.9909 85.4148 59.2038C85.3351 59.7939 85.7161 60.4077 86.3198 60.5367C86.5471 60.5853 86.7852 60.6036 87.0155 60.6363C87.2574 60.6706 87.4993 60.7049 87.7412 60.7391C87.9221 60.7648 88.0784 60.7696 88.2427 60.6738C88.3778 60.5953 88.5066 60.4412 88.5419 60.2868C88.6118 59.9807 88.4478 59.541 88.0873 59.49L88.0868 59.4891Z" fill="#726A69"/>
<path d="M83.743 53.954C83.3888 53.9038 83.0349 53.8536 82.6807 53.8034C82.6031 53.7923 82.5258 53.7815 82.4483 53.7704C82.4062 53.7645 82.3634 53.7605 82.3219 53.7515L82.2866 53.7432C82.2215 53.7219 82.2402 53.731 82.3425 53.7707C82.3382 53.7653 82.2815 53.7359 82.282 53.7359L82.3588 53.7955C82.3414 53.7807 82.3249 53.7648 82.3094 53.7478C82.3696 53.7696 82.3943 53.8703 82.3409 53.7823C82.2628 53.6541 82.3848 53.9092 82.3482 53.7942C82.3089 53.6711 82.3563 53.958 82.3552 53.8269C82.355 53.7848 82.3723 53.7119 82.3436 53.8854C82.3555 53.8139 82.3642 53.7416 82.3742 53.6698C82.4 53.4876 82.4252 53.3054 82.4499 53.1232C82.4656 53.0074 82.4814 52.8913 82.4968 52.7752L82.5025 52.7329C82.5123 52.6595 82.5101 52.6773 82.4963 52.7863C82.5009 52.7815 82.515 52.7164 82.515 52.7164L82.4765 52.8058C82.4868 52.7847 82.4984 52.7645 82.5112 52.745C82.5068 52.8114 82.4171 52.8489 82.4746 52.7952C82.5665 52.7091 82.3371 52.8662 82.4502 52.8103C82.4697 52.7982 82.49 52.7874 82.5112 52.7777C82.4136 52.8157 82.3891 52.8276 82.4374 52.813C82.5321 52.7779 82.4691 52.8541 82.3864 52.8157L82.4225 52.8149C82.4895 52.819 82.4713 52.8152 82.3677 52.8039C82.4447 52.8155 82.5218 52.8257 82.5988 52.8368C82.7759 52.8619 82.953 52.8873 83.1304 52.9124C83.3077 52.9375 83.4862 52.962 83.6638 52.9882C83.6912 52.9923 83.72 52.9952 83.7474 53.0012L83.7826 53.0098C83.8477 53.0311 83.829 53.0222 83.7265 52.9825L83.7571 52.999C83.8135 53.0355 83.7978 53.0217 83.7097 52.9577L83.7349 52.9809C83.7802 53.0298 83.7685 53.012 83.6996 52.9278L83.7186 52.9564C83.7509 53.0155 83.7441 52.9944 83.6988 52.8935C83.6999 52.9078 83.7137 52.9431 83.7197 52.9593C83.7636 53.0794 83.7097 52.7966 83.7129 52.9267C83.7159 53.0495 83.7322 52.8171 83.7303 52.83C83.7249 52.8684 83.7194 52.907 83.714 52.9453L83.6416 53.4581C83.6202 53.6104 83.6001 53.7629 83.577 53.9149C83.5743 53.9335 83.5719 53.9516 83.5681 53.9702L83.5597 54.0053C83.5383 54.0701 83.5475 54.0514 83.5874 53.9497C83.5798 53.9653 83.5711 53.9804 83.5616 53.995C83.5347 54.0369 83.5518 54.0163 83.6123 53.9335L83.589 53.9588C83.5399 54.0042 83.5578 53.9926 83.6424 53.924C83.621 53.9302 83.5716 53.9591 83.5532 53.9753L83.644 53.9348C83.6218 53.9418 83.5993 53.9475 83.5762 53.9516C83.6912 53.9391 83.7135 53.9346 83.6429 53.9373C83.6185 53.937 83.5941 53.9351 83.57 53.9316C83.4149 53.9146 83.2155 54.0161 83.1098 54.1213C82.9969 54.2336 82.9118 54.418 82.9191 54.5794C82.9362 54.9619 83.206 55.1875 83.57 55.2272C84.1235 55.2874 84.6169 54.8982 84.7975 54.3999C84.8469 54.2633 84.8536 54.1062 84.8737 53.9637L84.964 53.3248C84.9711 53.2746 84.9784 53.2244 84.9854 53.1739C85.0221 52.9121 85.012 52.6848 84.9079 52.4397C84.807 52.2019 84.6266 51.9984 84.3985 51.8721C84.1903 51.7566 83.9752 51.7342 83.7449 51.7015C83.5258 51.6705 83.3067 51.6392 83.0875 51.6081C82.8611 51.576 82.6137 51.5115 82.3864 51.5207C81.8549 51.542 81.3566 51.9137 81.2411 52.4427C81.2218 52.5312 81.2156 52.6233 81.2037 52.7129C81.201 52.7339 81.198 52.755 81.1953 52.7761C81.1953 52.7777 81.214 52.6376 81.2039 52.7126C81.1896 52.8184 81.1752 52.9242 81.1606 53.0301C81.131 53.243 81.0998 53.4557 81.0711 53.6687C80.9913 54.2587 81.3724 54.8725 81.9761 55.0015C82.2034 55.0501 82.4415 55.0685 82.6717 55.1012C82.9137 55.1354 83.1556 55.1697 83.3975 55.204C83.5784 55.2296 83.7346 55.2345 83.899 55.1387C84.034 55.0601 84.1629 54.906 84.1981 54.7516C84.2681 54.4455 84.104 54.0058 83.7436 53.9548L83.743 53.954Z" fill="#726A69"/>
<path d="M88.7704 54.6571C88.4162 54.6069 88.0622 54.5567 87.708 54.5065C87.6305 54.4954 87.5532 54.4846 87.4756 54.4736C87.4336 54.4676 87.3907 54.4636 87.3492 54.4547L87.314 54.4463C87.2489 54.425 87.2676 54.4342 87.3698 54.4738C87.3655 54.4684 87.3088 54.439 87.3094 54.439L87.3861 54.4987C87.3688 54.4838 87.3522 54.4679 87.3367 54.4509C87.397 54.4728 87.4216 54.5734 87.3682 54.4854C87.2901 54.3572 87.4121 54.6123 87.3755 54.4973C87.3362 54.3742 87.3837 54.6612 87.3826 54.53C87.3823 54.4879 87.3997 54.415 87.3709 54.5886C87.3829 54.517 87.3915 54.4447 87.4016 54.3729C87.4273 54.1907 87.4526 54.0085 87.4772 53.8263C87.493 53.7105 87.5087 53.5944 87.5242 53.4784L87.5299 53.436C87.5396 53.3626 87.5374 53.3804 87.5236 53.4894C87.5282 53.4846 87.5423 53.4195 87.5423 53.4195L87.5038 53.5089C87.5141 53.4878 87.5258 53.4676 87.5385 53.4481C87.5342 53.5145 87.4444 53.5521 87.5019 53.4983C87.5939 53.4122 87.3644 53.5693 87.4775 53.5135C87.497 53.5013 87.5174 53.4905 87.5385 53.4808C87.4409 53.5189 87.4165 53.5307 87.4648 53.5162C87.5594 53.4811 87.4965 53.5572 87.4138 53.5189L87.4498 53.5181C87.5168 53.5221 87.4987 53.5183 87.3951 53.507C87.4721 53.5186 87.5491 53.5289 87.6261 53.5399C87.8032 53.565 87.9803 53.5904 88.1577 53.6155C88.3351 53.6406 88.5135 53.6652 88.6912 53.6913C88.7186 53.6954 88.7473 53.6984 88.7747 53.7043L88.81 53.7129C88.8751 53.7343 88.8563 53.7254 88.7538 53.6857L88.7845 53.7021C88.8409 53.7386 88.8252 53.7248 88.737 53.6608L88.7622 53.6841C88.8075 53.7329 88.7959 53.7151 88.727 53.6309L88.746 53.6595C88.7782 53.7186 88.7715 53.6975 88.7262 53.5966C88.7272 53.6109 88.7411 53.6463 88.747 53.6625C88.791 53.7826 88.737 53.4997 88.7403 53.6298C88.7432 53.7526 88.7595 53.5202 88.7576 53.5332C88.7522 53.5715 88.7468 53.6101 88.7413 53.6484L88.6689 54.1613C88.6475 54.3135 88.6274 54.466 88.6044 54.618C88.6017 54.6366 88.5992 54.6547 88.5954 54.6733L88.587 54.7084C88.5656 54.7732 88.5748 54.7546 88.6147 54.6528C88.6071 54.6685 88.5984 54.6836 88.5889 54.6981C88.5621 54.74 88.5792 54.7195 88.6396 54.6366L88.6163 54.662C88.5672 54.7073 88.5851 54.6957 88.6698 54.6272C88.6483 54.6334 88.599 54.6622 88.5805 54.6784L88.6714 54.638C88.6491 54.645 88.6266 54.6506 88.6036 54.6547C88.7186 54.6423 88.7408 54.6377 88.6703 54.6404C88.6459 54.6401 88.6215 54.6382 88.5973 54.6347C88.4422 54.6177 88.2429 54.7192 88.1371 54.8245C88.0243 54.9368 87.9391 55.1211 87.9464 55.2825C87.9635 55.665 88.2334 55.8907 88.5973 55.9303C89.1509 55.9905 89.6442 55.6013 89.8248 55.103C89.8742 54.9664 89.881 54.8094 89.901 54.6668L89.9914 54.0279C89.9984 53.9777 90.0057 53.9275 90.0128 53.877C90.0494 53.6152 90.0394 53.388 89.9352 53.1429C89.8343 52.9051 89.654 52.7015 89.4259 52.5752C89.2176 52.4597 89.0025 52.4373 88.7723 52.4046C88.5531 52.3736 88.334 52.3423 88.1149 52.3112C87.8884 52.2791 87.641 52.2146 87.4138 52.2238C86.8822 52.2451 86.384 52.6168 86.2684 53.1458C86.2492 53.2344 86.243 53.3264 86.231 53.416C86.2283 53.4371 86.2253 53.4581 86.2226 53.4792C86.2226 53.4808 86.2413 53.3407 86.2313 53.4158C86.2169 53.5216 86.2025 53.6274 86.1879 53.7332C86.1583 53.9461 86.1271 54.1588 86.0984 54.3718C86.0187 54.9619 86.3997 55.5757 87.0034 55.7047C87.2307 55.7533 87.4688 55.7716 87.6991 55.8043C87.941 55.8386 88.1829 55.8728 88.4248 55.9071C88.6057 55.9328 88.762 55.9376 88.9263 55.8418C89.0614 55.7632 89.1902 55.6091 89.2255 55.4547C89.2954 55.1486 89.1314 54.7089 88.7709 54.6579L88.7704 54.6571Z" fill="#726A69"/>
<path d="M100.17 49.504C99.4921 49.6109 98.9708 50.0131 98.5168 50.503C98.0758 50.9792 97.6348 51.4618 97.2413 51.9779C96.7873 52.5733 96.3582 53.2419 96.2433 53.9944C96.1486 54.6161 96.3032 55.4031 96.7838 55.8469C97.3175 56.3398 98.129 56.5919 98.832 56.3387C99.2786 56.1775 99.7172 55.92 100.1 55.6426C100.542 55.3222 100.94 54.9551 101.321 54.5653C101.832 54.0411 102.43 53.4916 102.763 52.8322C103.177 52.0127 103.095 51.0464 102.503 50.334C101.983 49.7094 101.145 49.3831 100.342 49.4814C99.9936 49.524 99.6914 49.7486 99.6914 50.1292C99.6914 50.4461 99.9911 50.8199 100.342 50.777C100.784 50.723 101.221 50.8026 101.533 51.191C101.793 51.5155 101.778 51.946 101.572 52.3015C101.291 52.7852 100.846 53.1893 100.459 53.5887C100.16 53.8983 99.8509 54.199 99.5151 54.47C99.4278 54.5407 99.6342 54.3842 99.4883 54.4908C99.4585 54.5127 99.4284 54.5345 99.3982 54.5561C99.3315 54.6034 99.2635 54.6493 99.1946 54.6935C99.0476 54.7877 98.8957 54.8744 98.7408 54.9556C98.3533 55.1591 98.0772 55.2069 97.7211 54.9472C97.8157 55.0163 97.6036 54.8247 97.6885 54.9313C97.6129 54.8363 97.5969 54.7694 97.5784 54.7051C97.5646 54.6565 97.5516 54.6082 97.5402 54.5591C97.5396 54.5567 97.5158 54.4344 97.5263 54.5092C97.5196 54.4625 97.5171 54.4128 97.5158 54.3653C97.515 54.3375 97.5182 54.1567 97.5065 54.28C97.5597 53.7116 97.957 53.1766 98.2874 52.7353C98.6025 52.3142 98.9871 51.9177 99.3437 51.5214C99.7305 51.0917 99.9892 50.8366 100.515 50.7538C100.863 50.699 101.055 50.2674 100.97 49.957C100.868 49.5885 100.518 49.4495 100.169 49.5046L100.17 49.504Z" fill="#726A69"/>
<path d="M97.5384 55.4639C96.9102 56.1765 96.3852 57.0559 96.2854 58.0155C96.1774 59.0541 96.8094 60.1217 97.8744 60.3295C98.9771 60.5446 99.9402 59.8598 100.731 59.1705C101.079 58.8665 101.433 58.5335 101.736 58.1847C102.071 57.7998 102.276 57.3593 102.434 56.8783C102.606 56.3522 102.637 55.6685 102.421 55.1541C102.179 54.5756 101.683 54.1815 101.064 54.063C100.719 53.9969 100.362 54.1594 100.264 54.5154C100.176 54.8326 100.371 55.2458 100.718 55.3122C100.799 55.3276 100.878 55.3454 100.956 55.3719C101.063 55.4078 100.885 55.3392 100.984 55.3848C101.014 55.3983 101.042 55.4164 101.069 55.4337C100.974 55.3724 101.182 55.5471 101.121 55.472C101.16 55.5209 101.21 55.6105 101.226 55.6496C101.314 55.8645 101.256 56.2869 101.189 56.501C101.094 56.8057 100.985 57.0724 100.815 57.2683C100.57 57.5518 100.282 57.8041 100.014 58.0659C99.7544 58.3186 99.5445 58.4819 99.2521 58.6754C99.0843 58.7866 98.9118 58.8919 98.7344 58.9869C98.7303 58.9891 98.5861 59.0571 98.6544 59.0293C98.7114 59.0064 98.6094 59.0417 98.6088 59.042C98.5657 59.0525 98.5231 59.0644 98.4797 59.0744L98.4138 59.0862C98.4643 59.0781 98.4659 59.0763 98.419 59.0803C98.3398 59.0817 98.2606 59.0849 98.1817 59.0755C98.2847 59.0879 98.0851 59.049 98.0572 59.0406C97.9726 59.0153 97.8557 58.9548 97.8117 58.8984C97.7377 58.8036 97.6648 58.6897 97.6303 58.5783C97.6227 58.5534 97.5736 58.3504 97.5866 58.4303C97.5715 58.3375 97.578 58.2433 97.5766 58.1502C97.575 58.0295 97.5782 58.0851 97.5733 58.1226C97.5807 58.0665 97.5956 58.0109 97.6092 57.9558C97.636 57.8479 97.6675 57.7415 97.7033 57.6362C97.764 57.4576 97.8288 57.314 97.93 57.1304C98.0157 56.9747 98.1112 56.8243 98.2148 56.6799C98.2384 56.647 98.2625 56.6146 98.2869 56.5822C98.2332 56.6535 98.2785 56.593 98.3089 56.5563C98.3582 56.4969 98.4081 56.4381 98.4591 56.38C98.6907 56.1171 98.7192 55.7228 98.4591 55.4639C98.2226 55.2286 97.7713 55.1999 97.5386 55.4639H97.5384Z" fill="#726A69"/>
<path d="M99.6845 60.2518C99.7076 60.2734 99.7306 60.302 99.7553 60.322C99.6775 60.258 99.7249 60.2742 99.7504 60.3164C99.7892 60.3811 99.8258 60.4454 99.8616 60.5118C99.8733 60.5331 99.9069 60.6249 99.8657 60.5169C99.8795 60.5531 99.8928 60.5895 99.9053 60.6265C99.9294 60.698 99.95 60.7709 99.9677 60.8443C99.981 60.8999 100.002 61.0789 99.9894 60.9237C99.9937 60.9785 99.991 61.0368 99.998 61.0907C100.009 61.1758 99.9997 61.0721 100.006 61.05C99.9942 61.0929 99.9866 61.1361 99.9744 61.1793C99.9403 61.2972 99.9416 61.2848 99.889 61.3806C99.7607 61.6141 99.6189 61.7736 99.412 61.9453C99.3678 61.982 99.3233 62.0177 99.2782 62.0533C99.2533 62.073 99.2281 62.0922 99.2034 62.1121C99.1321 62.1696 99.2921 62.0468 99.2151 62.1032C99.0911 62.1942 98.9691 62.2876 98.844 62.3775C98.6309 62.5308 98.415 62.6833 98.1891 62.8177C98.0922 62.8752 97.9778 62.9359 97.8951 62.9672C97.7093 63.0374 97.575 63.0685 97.4454 63.0339C97.3649 63.0123 97.2892 62.9802 97.2122 62.9489C97.1859 62.9381 97.1595 62.9276 97.1332 62.917C97.1457 62.9222 97.2724 62.9853 97.1774 62.9351C97.1379 62.9143 97.0977 62.8935 97.0578 62.8736C97.0356 62.8625 96.964 62.8107 97.0443 62.8701C97.149 62.9473 97.0193 62.8415 97.0199 62.8415C96.9909 62.8487 96.9881 62.7891 97.037 62.8687C97.0193 62.8398 97.0001 62.8126 96.983 62.7834C96.9643 62.7508 96.9472 62.717 96.9309 62.683C96.9445 62.7111 96.967 62.7875 96.9209 62.6547C96.8645 62.4916 96.8517 62.3818 96.8897 62.2169C96.8981 62.1799 96.9073 62.1429 96.9179 62.1062C96.9171 62.1094 96.9862 61.9208 96.9537 61.9917C96.989 61.9145 97.0649 61.7952 97.0931 61.758C97.1799 61.6435 97.3442 61.4543 97.4625 61.3134C97.7025 61.0273 97.9632 60.772 98.2582 60.5417C98.5351 60.3255 98.4858 59.8521 98.2582 59.6256C97.9848 59.3535 97.6152 59.4089 97.3377 59.6256C97.0177 59.8756 96.7422 60.1563 96.4834 60.4678C96.1406 60.8805 95.7943 61.2681 95.6527 61.7985C95.5024 62.3618 95.5662 62.9297 95.8591 63.4374C96.0766 63.8148 96.3974 64.007 96.7872 64.1668C97.29 64.3727 97.8042 64.3876 98.3155 64.1886C98.6664 64.052 98.9712 63.8666 99.2788 63.6536C99.8912 63.2296 100.53 62.7993 100.937 62.1629C101.24 61.6884 101.351 61.1801 101.25 60.6305C101.164 60.1641 100.958 59.6661 100.606 59.3363C100.35 59.0966 99.9389 59.0836 99.6851 59.3363C99.4418 59.5784 99.4282 60.0119 99.6851 60.2524L99.6845 60.2518Z" fill="#726A69"/>
<path d="M99.8155 37.2989C99.7537 38.208 99.6919 39.1174 99.63 40.0265C99.607 40.3652 99.946 40.6891 100.281 40.6743C100.653 40.6578 100.907 40.3895 100.932 40.0265C100.994 39.1174 101.056 38.208 101.117 37.2989C101.14 36.9602 100.801 36.6363 100.466 36.6511C100.094 36.6676 99.8402 36.9359 99.8155 37.2989Z" fill="#726A69"/>
<path d="M103.85 43.8324C104.732 43.6099 105.621 43.4024 106.521 43.2623C106.672 43.2388 106.836 43.0898 106.91 42.9646C106.991 42.8258 107.026 42.621 106.975 42.4655C106.857 42.1003 106.536 41.9567 106.175 42.0131C105.275 42.1532 104.386 42.3608 103.504 42.5832C103.174 42.6663 102.943 43.0517 103.05 43.38C103.16 43.7195 103.497 43.9217 103.85 43.8324Z" fill="#726A69"/>
<path d="M102.965 41.4215C103.578 40.723 104.252 40.0757 104.953 39.4649C105.21 39.2408 105.201 38.7747 104.953 38.5488C104.679 38.2983 104.307 38.3099 104.033 38.5488C103.332 39.1593 102.657 39.8066 102.044 40.5054C101.93 40.6361 101.854 40.7856 101.854 40.9635C101.854 41.1225 101.924 41.3122 102.044 41.4215C102.29 41.6458 102.725 41.6941 102.965 41.4215Z" fill="#726A69"/>
</g>
<defs>
<clipPath id="clip0_1621_25145">
<rect width="84" height="80" fill="white" transform="translate(23)"/>
</clipPath>
</defs>
</svg>
