<svg width="307" height="48" viewBox="0 0 307 48" fill="none" xmlns="http://www.w3.org/2000/svg">
<path d="M301.435 0.961758C302.111 1.94976 303.073 3.61376 303.489 4.52376L301.409 5.40777C300.863 4.34176 300.083 2.85976 299.381 1.79376L301.435 0.961758ZM304.711 0.0517578C305.387 1.01376 306.349 2.67776 306.817 3.58776L304.737 4.47176C304.191 3.37976 303.333 1.87176 302.657 0.883758L304.711 0.0517578ZM302.605 5.58977C302.397 5.87577 301.929 6.65577 301.695 7.20177C300.629 9.67177 298.705 13.2078 296.469 15.8078C293.557 19.1618 289.631 22.3858 285.601 24.3098L282.897 21.5018C287.109 19.9158 291.113 16.7698 293.557 14.0398C295.273 12.0898 296.859 9.51577 297.457 7.66977C296.365 7.66977 289.735 7.66977 288.617 7.66977C287.551 7.66977 286.121 7.79977 285.549 7.85177V4.13376C286.251 4.23776 287.863 4.34176 288.617 4.34176C289.995 4.34176 296.651 4.34176 297.795 4.34176C298.939 4.34176 299.953 4.18576 300.499 4.00376L302.605 5.58977ZM296.807 13.6498C299.485 15.8338 303.177 19.7078 304.867 21.7878L301.903 24.3618C299.979 21.6838 297.145 18.5898 294.363 16.0678L296.807 13.6498Z" fill="#4A3E42"/>
<path d="M259.127 10.5298C260.089 10.6078 261.961 10.7118 263.313 10.7118C266.381 10.7118 274.961 10.7118 277.275 10.7118C278.497 10.7118 279.641 10.5818 280.343 10.5298V14.6378C279.719 14.6118 278.393 14.4818 277.301 14.4818C274.935 14.4818 266.381 14.4818 263.313 14.4818C261.857 14.4818 260.115 14.5598 259.127 14.6378V10.5298Z" fill="#4A3E42"/>
<path d="M242.67 5.04397C242.67 4.18595 242.566 2.83395 242.332 2.00195H246.44C246.31 2.83395 246.232 4.26395 246.232 5.06997C246.232 6.52597 246.232 8.47597 246.232 10.218C246.232 15.86 244.776 20.488 238.822 24.05L235.572 21.658C241.058 19.136 242.67 15.054 242.67 10.218C242.67 8.47597 242.67 6.49997 242.67 5.04397ZM232.998 7.72197C233.804 7.82597 234.87 7.90397 235.91 7.90397C237.392 7.90397 250.496 7.90397 252.082 7.90397C253.278 7.90397 254.395 7.82597 254.942 7.74797V11.31C254.395 11.258 253.096 11.206 252.056 11.206C250.496 11.206 237.392 11.206 235.988 11.206C234.87 11.206 233.83 11.258 232.998 11.336V7.72197Z" fill="#4A3E42"/>
<path d="M206.882 12.4798C211.536 11.2838 215.332 9.59377 218.244 7.79977C220.896 6.16177 223.86 3.56181 225.55 1.50781L228.358 4.15981C225.992 6.55177 222.82 8.99577 219.752 10.8418C216.814 12.5838 212.602 14.5338 208.494 15.7558L206.882 12.4798ZM217.698 9.48977L221.39 8.60577V20.3318C221.39 21.4758 221.442 23.0878 221.624 23.7378H217.49C217.594 23.1138 217.698 21.4758 217.698 20.3318V9.48977Z" fill="#4A3E42"/>
<path d="M200.512 2.36618C201.006 3.38018 201.578 4.88817 201.864 5.90217L200.07 6.50017C199.706 5.38217 199.264 3.97818 198.744 2.91218L200.512 2.36618ZM203.19 1.53418C203.684 2.54818 204.282 4.08218 204.594 5.07017L202.826 5.64217C202.436 4.49818 201.942 3.12018 201.422 2.08018L203.19 1.53418ZM198.276 11.4922C198.276 17.9142 196.716 21.8662 190.45 24.6222L187.642 21.9962C192.686 20.2542 194.87 17.9922 194.87 11.6222V4.70617C194.87 3.64018 194.818 2.78218 194.74 2.28818H198.432C198.38 2.80818 198.276 3.64018 198.276 4.70617V11.4922ZM188.864 2.52218C188.812 2.99018 188.708 3.82218 188.708 4.86217V14.1702C188.708 15.3142 188.786 16.3802 188.838 16.8742H185.198C185.25 16.3802 185.328 15.3402 185.328 14.1702V4.86217C185.328 4.10818 185.276 3.30218 185.172 2.52218H188.864ZM180.31 7.20217C180.778 7.28017 181.844 7.43617 183.144 7.43617H200.174C201.552 7.43617 202.332 7.38417 203.06 7.25417V10.7122C202.488 10.6342 201.552 10.6342 200.2 10.6342H183.144C181.818 10.6342 180.908 10.6862 180.31 10.7382V7.20217Z" fill="#4A3E42"/>
<path d="M158.132 2.964C158.964 3.068 160.056 3.146 160.914 3.146C162.552 3.146 167.908 3.146 169.442 3.146C170.326 3.146 171.34 3.068 172.224 2.964V6.31797C171.34 6.26597 170.326 6.21397 169.442 6.21397C167.908 6.21397 162.552 6.21397 160.94 6.21397C160.03 6.21397 158.938 6.26597 158.132 6.31797V2.964ZM155.142 9.59397C155.896 9.69797 156.806 9.77597 157.612 9.77597C159.25 9.77597 173.108 9.77597 174.642 9.77597C175.188 9.77597 176.332 9.72397 177.034 9.59397V13C176.384 12.948 175.37 12.922 174.642 12.922C173.108 12.922 159.25 12.922 157.612 12.922C156.858 12.922 155.844 12.948 155.142 13V9.59397ZM168.428 11.414C168.428 14.82 167.83 17.42 166.738 19.604C165.828 21.398 163.826 23.426 161.512 24.596L158.444 22.386C160.29 21.658 162.136 20.176 163.176 18.642C164.476 16.692 164.814 14.222 164.814 11.44L168.428 11.414ZM173.784 1.17C174.434 2.106 175.37 3.77 175.838 4.73197L173.758 5.61597C173.238 4.55 172.432 3.016 171.73 2.002L173.784 1.17ZM176.852 0C177.528 0.962 178.49 2.626 178.958 3.536L176.904 4.42C176.358 3.328 175.526 1.82 174.798 0.832L176.852 0Z" fill="#4A3E42"/>
<path d="M150.384 5.27777C150.124 5.77177 149.942 6.52577 149.812 7.07177C149.214 9.61977 148.07 13.6498 145.886 16.5618C143.546 19.6558 140.088 22.2558 135.434 23.7378L132.6 20.6178C137.774 19.4218 140.686 17.1598 142.792 14.5338C144.534 12.3498 145.496 9.41177 145.86 7.17577C144.274 7.17577 135.694 7.17577 133.744 7.17577C132.548 7.17577 131.326 7.25377 130.65 7.27977V3.61377C131.43 3.71777 132.886 3.82177 133.744 3.82177C135.694 3.82177 144.326 3.82177 145.782 3.82177C146.276 3.82177 147.108 3.79577 147.81 3.63977L150.384 5.27777Z" fill="#4A3E42"/>
<path d="M102.882 12.4798C107.536 11.2838 111.332 9.59377 114.244 7.79977C116.896 6.16177 119.86 3.56181 121.55 1.50781L124.358 4.15981C121.992 6.55177 118.82 8.99577 115.752 10.8418C112.814 12.5838 108.602 14.5338 104.494 15.7558L102.882 12.4798ZM113.698 9.48977L117.39 8.60577V20.3318C117.39 21.4758 117.442 23.0878 117.624 23.7378H113.49C113.594 23.1138 113.698 21.4758 113.698 20.3318V9.48977Z" fill="#4A3E42"/>
<path d="M81.0684 2.62598C81.7704 2.72998 82.8884 2.78197 83.7724 2.78197C85.4104 2.78197 92.2484 2.78197 93.7564 2.78197C94.5884 2.78197 95.8624 2.72998 96.5644 2.62598V6.00597C95.8884 5.95397 94.6664 5.90197 93.7044 5.90197C92.2744 5.90197 85.3064 5.90197 83.7724 5.90197C82.9144 5.90197 81.8224 5.92797 81.0684 6.00597V2.62598ZM98.7745 10.192C98.5925 10.53 98.3585 10.998 98.2805 11.258C97.4745 13.78 96.3564 16.328 94.4324 18.46C91.8064 21.398 88.4784 23.14 85.1504 24.102L82.5504 21.164C86.4764 20.332 89.5704 18.642 91.5724 16.588C92.9504 15.184 93.7824 13.546 94.2244 12.116C92.9244 12.116 84.0064 12.116 81.6924 12.116C81.0424 12.116 79.7424 12.142 78.6504 12.22V8.83997C79.7684 8.94397 80.8604 9.02197 81.6924 9.02197C83.4604 9.02197 92.7684 9.02197 94.5364 9.02197C95.3944 9.02197 96.0964 8.91797 96.4604 8.73597L98.7745 10.192Z" fill="#4A3E42"/>
<path d="M54.8083 2.91197C55.5103 2.96397 56.4203 3.01597 56.9663 3.01597C58.4743 3.01597 61.2303 2.91197 62.4263 2.80797C63.0763 2.75597 63.7523 2.59997 64.2203 2.41797L66.2743 4.05597C65.9363 4.44597 65.6243 4.78397 65.4163 5.12197C64.5323 6.60397 63.1283 9.95797 61.9583 12.662C60.9183 15.054 59.6703 18.148 58.6043 19.786C57.5643 21.372 56.3423 22.074 54.5483 22.074C52.2863 22.074 50.5703 20.514 50.5703 17.862C50.5703 13.702 54.5483 10.504 60.1123 10.504C66.1703 10.504 71.4743 13.728 74.2043 15.6L72.6963 19.214C69.4983 16.38 64.9223 13.416 59.5663 13.416C55.7703 13.416 53.5863 15.47 53.5863 17.368C53.5863 18.226 54.0803 18.668 54.7043 18.668C55.2243 18.668 55.5623 18.434 56.0563 17.784C56.9143 16.51 57.8503 14.118 58.7863 12.064C59.6963 10.01 60.7623 7.46197 61.5423 5.84997C60.5023 5.87597 58.2403 5.95397 57.0703 6.03197C56.5243 6.05797 55.6143 6.16197 54.9383 6.23997L54.8083 2.91197ZM71.9163 9.04797C71.5523 16.432 70.0963 21.216 63.8823 24.44L61.1003 22.178C67.5223 19.422 68.3023 14.56 68.5363 11.518C68.5883 10.504 68.6143 9.46397 68.5103 8.65797L71.9163 9.04797Z" fill="#4A3E42"/>
<path d="M39.4683 2.00177C39.4163 2.41777 39.3123 3.82177 39.2863 4.23777C39.2343 5.92777 39.2863 11.2318 39.3123 13.3378L36.0883 12.2198C36.0883 10.6078 36.0623 5.64177 35.9843 4.23777C35.8803 3.19777 35.8023 2.31377 35.7243 2.00177H39.4683ZM24.7783 5.22577C28.6783 5.22577 35.5163 5.01777 38.7663 5.01777C41.4443 5.01777 45.3703 4.99177 46.8263 5.01777L46.7743 8.11177C45.1363 8.03377 42.5103 7.95577 38.6883 7.95577C33.9563 7.95577 28.7823 8.16377 24.8823 8.37177L24.7783 5.22577ZM38.8703 12.9218C38.8703 17.1598 37.3103 19.2658 34.3203 19.2658C32.2923 19.2658 29.8223 17.6798 29.8223 14.5078C29.8223 11.5698 32.1883 9.64577 35.0223 9.64577C38.4543 9.64577 40.2483 12.1678 40.2483 15.4178C40.2483 18.8238 38.2463 23.1138 31.9023 24.8818L29.1463 22.1258C33.5663 21.1898 37.0243 19.4218 37.0243 14.8718C37.0243 13.2078 36.1143 12.3758 34.9443 12.3758C33.9563 12.3758 32.9423 13.0778 32.9423 14.4558C32.9423 15.6258 33.9303 16.4058 34.9443 16.4058C36.1923 16.4058 37.2583 15.3398 36.4523 12.2718L38.8703 12.9218ZM42.8483 1.22177C43.4723 2.15777 44.2003 3.35377 44.6683 4.28977L42.4583 5.19977C41.9383 4.15977 41.3663 3.06777 40.6903 2.10577L42.8483 1.22177ZM46.3323 0.467773C46.9563 1.42977 47.6843 2.57377 48.1523 3.50977L45.9943 4.44577C45.4483 3.37977 44.8503 2.28777 44.1483 1.37777L46.3323 0.467773Z" fill="#4A3E42"/>
<path d="M4.004 4.00415C3.822 4.91417 3.692 6.44817 3.692 7.17617C3.692 8.86617 3.692 10.7902 3.848 12.6882C4.212 16.4322 4.992 19.0062 6.63 19.0062C7.87803 19.0062 8.89203 15.9382 9.38603 13.8842L12.012 17.0302C10.27 21.5802 8.65803 23.1402 6.578 23.1402C3.692 23.1402 1.222 20.5922 0.494 13.6242C0.234 11.2322 0.208 8.16417 0.208 6.57817C0.208 5.87617 0.182 4.75817 0 3.95215L4.004 4.00415ZM17.004 4.57617C19.474 7.56617 21.476 14.0662 21.762 18.0442L18.33 19.3962C17.94 15.1842 16.536 8.89217 13.702 5.66817L17.004 4.57617Z" fill="#4A3E42"/>
<path d="M248.676 43.8022C248.676 43.5574 248.752 43.3517 248.903 43.185C249.059 43.0131 249.283 42.9272 249.575 42.9272C249.866 42.9272 250.088 43.0131 250.239 43.185C250.395 43.3517 250.473 43.5574 250.473 43.8022C250.473 44.0418 250.395 44.2449 250.239 44.4116C250.088 44.5782 249.866 44.6616 249.575 44.6616C249.283 44.6616 249.059 44.5782 248.903 44.4116C248.752 44.2449 248.676 44.0418 248.676 43.8022Z" fill="#4A3E42"/>
<path d="M244.95 42.9273V32.5679H246.403V44.5679H245.075L244.95 42.9273ZM239.262 40.4351V40.271C239.262 39.6252 239.34 39.0393 239.497 38.5132C239.658 37.982 239.885 37.5262 240.176 37.146C240.473 36.7658 240.825 36.4741 241.231 36.271C241.642 36.0627 242.101 35.9585 242.606 35.9585C243.137 35.9585 243.601 36.0523 243.997 36.2398C244.398 36.4221 244.736 36.6903 245.012 37.0445C245.293 37.3934 245.515 37.8153 245.676 38.3101C245.838 38.8049 245.95 39.3648 246.012 39.9898V40.7085C245.955 41.3283 245.843 41.8856 245.676 42.3804C245.515 42.8752 245.293 43.2971 245.012 43.646C244.736 43.995 244.398 44.2632 243.997 44.4507C243.596 44.633 243.127 44.7241 242.59 44.7241C242.096 44.7241 241.642 44.6174 241.231 44.4038C240.825 44.1903 240.473 43.8908 240.176 43.5054C239.885 43.12 239.658 42.6669 239.497 42.146C239.34 41.62 239.262 41.0497 239.262 40.4351ZM240.715 40.271V40.4351C240.715 40.857 240.757 41.2528 240.84 41.6226C240.929 41.9924 241.064 42.3179 241.247 42.5991C241.429 42.8804 241.661 43.1018 241.942 43.2632C242.223 43.4195 242.559 43.4976 242.95 43.4976C243.429 43.4976 243.822 43.396 244.129 43.1929C244.442 42.9898 244.692 42.7215 244.879 42.3882C245.067 42.0549 245.213 41.6929 245.317 41.3023V39.4195C245.254 39.133 245.163 38.857 245.043 38.5913C244.929 38.3205 244.778 38.0809 244.59 37.8726C244.408 37.659 244.181 37.4898 243.911 37.3648C243.645 37.2398 243.33 37.1773 242.965 37.1773C242.569 37.1773 242.228 37.2606 241.942 37.4273C241.661 37.5887 241.429 37.8127 241.247 38.0991C241.064 38.3804 240.929 38.7085 240.84 39.0835C240.757 39.4533 240.715 39.8491 240.715 40.271Z" fill="#4A3E42"/>
<path d="M237.925 36.1148V37.2241H233.355V36.1148H237.925ZM234.902 34.0601H236.347V42.4741C236.347 42.7606 236.391 42.9768 236.48 43.1226C236.568 43.2684 236.683 43.3648 236.824 43.4117C236.964 43.4585 237.115 43.482 237.277 43.482C237.397 43.482 237.522 43.4715 237.652 43.4507C237.787 43.4247 237.889 43.4038 237.957 43.3882L237.964 44.5679C237.85 44.6044 237.699 44.6382 237.511 44.6695C237.329 44.7059 237.108 44.7241 236.847 44.7241C236.493 44.7241 236.167 44.6538 235.871 44.5132C235.574 44.3726 235.337 44.1382 235.16 43.8101C234.988 43.4768 234.902 43.0288 234.902 42.4663V34.0601Z" fill="#4A3E42"/>
<path d="M232.878 43.3413V44.5679H227.191V43.3413H232.878ZM227.488 33.1929V44.5679H225.98V33.1929H227.488Z" fill="#4A3E42"/>
<path d="M223.917 42.8491V44.0132C223.917 44.4872 223.798 44.9872 223.558 45.5132C223.318 46.0445 222.983 46.4872 222.55 46.8413L221.73 46.271C221.897 46.0419 222.037 45.8075 222.152 45.5679C222.266 45.3335 222.352 45.0887 222.41 44.8335C222.472 44.5835 222.503 44.3179 222.503 44.0367V42.8491H223.917Z" fill="#4A3E42"/>
<path d="M218.41 43.8022C218.41 43.5574 218.485 43.3517 218.636 43.185C218.792 43.0131 219.016 42.9272 219.308 42.9272C219.6 42.9272 219.821 43.0131 219.972 43.185C220.128 43.3517 220.207 43.5574 220.207 43.8022C220.207 44.0418 220.128 44.2449 219.972 44.4116C219.821 44.5782 219.6 44.6616 219.308 44.6616C219.016 44.6616 218.792 44.5782 218.636 44.4116C218.485 44.2449 218.41 44.0418 218.41 43.8022Z" fill="#4A3E42"/>
<path d="M208.879 40.4351V40.2554C208.879 39.646 208.968 39.0809 209.145 38.5601C209.322 38.034 209.577 37.5783 209.911 37.1929C210.244 36.8023 210.648 36.5002 211.122 36.2867C211.596 36.0679 212.127 35.9585 212.715 35.9585C213.309 35.9585 213.843 36.0679 214.317 36.2867C214.796 36.5002 215.202 36.8023 215.536 37.1929C215.874 37.5783 216.132 38.034 216.309 38.5601C216.486 39.0809 216.575 39.646 216.575 40.2554V40.4351C216.575 41.0445 216.486 41.6096 216.309 42.1304C216.132 42.6512 215.874 43.107 215.536 43.4976C215.202 43.883 214.799 44.1851 214.325 44.4038C213.856 44.6174 213.325 44.7241 212.731 44.7241C212.137 44.7241 211.603 44.6174 211.129 44.4038C210.655 44.1851 210.249 43.883 209.911 43.4976C209.577 43.107 209.322 42.6512 209.145 42.1304C208.968 41.6096 208.879 41.0445 208.879 40.4351ZM210.325 40.2554V40.4351C210.325 40.857 210.374 41.2554 210.473 41.6304C210.572 42.0002 210.721 42.3283 210.918 42.6148C211.122 42.9012 211.374 43.1278 211.676 43.2945C211.978 43.4559 212.33 43.5367 212.731 43.5367C213.127 43.5367 213.473 43.4559 213.77 43.2945C214.072 43.1278 214.322 42.9012 214.52 42.6148C214.718 42.3283 214.866 42.0002 214.965 41.6304C215.069 41.2554 215.122 40.857 215.122 40.4351V40.2554C215.122 39.8387 215.069 39.4455 214.965 39.0757C214.866 38.7007 214.715 38.37 214.512 38.0835C214.314 37.7919 214.064 37.5627 213.762 37.396C213.465 37.2294 213.116 37.146 212.715 37.146C212.319 37.146 211.971 37.2294 211.668 37.396C211.372 37.5627 211.122 37.7919 210.918 38.0835C210.721 38.37 210.572 38.7007 210.473 39.0757C210.374 39.4455 210.325 39.8387 210.325 40.2554Z" fill="#4A3E42"/>
<path d="M205.926 40.9506H207.426C207.348 41.6694 207.142 42.3126 206.809 42.8803C206.476 43.448 206.004 43.8985 205.395 44.2319C204.786 44.56 204.025 44.724 203.114 44.724C202.447 44.724 201.84 44.599 201.293 44.349C200.752 44.099 200.286 43.7449 199.895 43.2866C199.504 42.823 199.202 42.2683 198.989 41.6225C198.78 40.9714 198.676 40.2475 198.676 39.4506V38.3178C198.676 37.5209 198.78 36.7996 198.989 36.1537C199.202 35.5027 199.507 34.9454 199.903 34.4819C200.304 34.0183 200.786 33.6616 201.348 33.4116C201.911 33.1616 202.543 33.0366 203.247 33.0366C204.106 33.0366 204.832 33.198 205.426 33.5209C206.02 33.8438 206.481 34.2918 206.809 34.8647C207.142 35.4324 207.348 36.0912 207.426 36.8412H205.926C205.853 36.31 205.718 35.8543 205.52 35.474C205.322 35.0886 205.041 34.7918 204.676 34.5834C204.312 34.3751 203.835 34.2709 203.247 34.2709C202.741 34.2709 202.296 34.3673 201.911 34.56C201.53 34.7527 201.21 35.0261 200.95 35.3803C200.694 35.7345 200.502 36.1589 200.372 36.6537C200.241 37.1485 200.176 37.698 200.176 38.3022V39.4506C200.176 40.0079 200.234 40.5313 200.348 41.0209C200.468 41.5105 200.648 41.9402 200.887 42.31C201.127 42.6798 201.431 42.9714 201.801 43.185C202.171 43.3933 202.609 43.4975 203.114 43.4975C203.754 43.4975 204.265 43.3959 204.645 43.1928C205.025 42.9897 205.312 42.698 205.504 42.3178C205.702 41.9376 205.843 41.4819 205.926 40.9506Z" fill="#4A3E42"/>
<path d="M191.527 42.3257C191.527 42.1174 191.48 41.9247 191.386 41.7476C191.298 41.5653 191.113 41.4012 190.831 41.2554C190.555 41.1044 190.139 40.9741 189.581 40.8648C189.113 40.7658 188.688 40.6486 188.308 40.5132C187.933 40.3778 187.613 40.2137 187.347 40.021C187.087 39.8283 186.886 39.6018 186.746 39.3413C186.605 39.0809 186.535 38.7762 186.535 38.4273C186.535 38.0939 186.608 37.7788 186.753 37.482C186.904 37.1851 187.115 36.9221 187.386 36.6929C187.662 36.4637 187.993 36.284 188.378 36.1538C188.764 36.0236 189.193 35.9585 189.667 35.9585C190.345 35.9585 190.923 36.0783 191.402 36.3179C191.881 36.5575 192.248 36.8778 192.503 37.2788C192.759 37.6747 192.886 38.1148 192.886 38.5991H191.441C191.441 38.3648 191.371 38.1382 191.23 37.9195C191.095 37.6955 190.894 37.5106 190.628 37.3648C190.368 37.2189 190.048 37.146 189.667 37.146C189.266 37.146 188.941 37.2085 188.691 37.3335C188.446 37.4533 188.266 37.607 188.152 37.7945C188.042 37.982 187.988 38.1799 187.988 38.3882C187.988 38.5445 188.014 38.6851 188.066 38.8101C188.123 38.9299 188.222 39.0419 188.363 39.146C188.503 39.245 188.701 39.3387 188.957 39.4273C189.212 39.5158 189.537 39.6044 189.933 39.6929C190.626 39.8491 191.196 40.0367 191.644 40.2554C192.092 40.4741 192.425 40.7424 192.644 41.0601C192.863 41.3778 192.972 41.7632 192.972 42.2163C192.972 42.5861 192.894 42.9247 192.738 43.232C192.587 43.5393 192.365 43.8049 192.074 44.0288C191.787 44.2476 191.443 44.4195 191.042 44.5445C190.647 44.6643 190.201 44.7241 189.707 44.7241C188.962 44.7241 188.331 44.5913 187.816 44.3257C187.3 44.0601 186.91 43.7163 186.644 43.2945C186.378 42.8726 186.246 42.4273 186.246 41.9585H187.699C187.72 42.3544 187.834 42.6695 188.042 42.9038C188.251 43.133 188.506 43.2971 188.808 43.396C189.11 43.4898 189.41 43.5367 189.707 43.5367C190.102 43.5367 190.433 43.4846 190.699 43.3804C190.97 43.2762 191.175 43.133 191.316 42.9507C191.457 42.7684 191.527 42.5601 191.527 42.3257Z" fill="#4A3E42"/>
<path d="M182.629 37.4429V44.5679H181.184V36.1148H182.59L182.629 37.4429ZM185.27 36.0679L185.262 37.4117C185.142 37.3856 185.028 37.37 184.918 37.3648C184.814 37.3544 184.694 37.3491 184.559 37.3491C184.226 37.3491 183.931 37.4012 183.676 37.5054C183.421 37.6096 183.205 37.7554 183.028 37.9429C182.851 38.1304 182.71 38.3544 182.606 38.6148C182.507 38.87 182.442 39.1512 182.411 39.4585L182.004 39.6929C182.004 39.1825 182.054 38.7033 182.153 38.2554C182.257 37.8075 182.416 37.4117 182.629 37.0679C182.843 36.7189 183.114 36.4481 183.442 36.2554C183.775 36.0575 184.171 35.9585 184.629 35.9585C184.734 35.9585 184.853 35.9715 184.989 35.9976C185.124 36.0184 185.218 36.0419 185.27 36.0679Z" fill="#4A3E42"/>
<path d="M176.207 44.7241C175.618 44.7241 175.084 44.6252 174.605 44.4273C174.131 44.2241 173.722 43.9403 173.378 43.5757C173.04 43.2111 172.779 42.7788 172.597 42.2788C172.415 41.7788 172.324 41.232 172.324 40.6382V40.3101C172.324 39.6226 172.425 39.0106 172.628 38.4741C172.831 37.9325 173.108 37.4741 173.457 37.0991C173.805 36.7241 174.201 36.4403 174.644 36.2476C175.087 36.0549 175.545 35.9585 176.019 35.9585C176.623 35.9585 177.144 36.0627 177.581 36.271C178.024 36.4794 178.386 36.771 178.667 37.146C178.949 37.5158 179.157 37.9533 179.292 38.4585C179.428 38.9585 179.496 39.5054 179.496 40.0991V40.7476H173.183V39.5679H178.05V39.4585C178.029 39.0835 177.951 38.7189 177.816 38.3648C177.686 38.0106 177.477 37.7189 177.191 37.4898C176.904 37.2606 176.514 37.146 176.019 37.146C175.691 37.146 175.389 37.2163 175.113 37.357C174.837 37.4924 174.6 37.6955 174.402 37.9663C174.204 38.2372 174.05 38.5679 173.941 38.9585C173.831 39.3491 173.777 39.7997 173.777 40.3101V40.6382C173.777 41.0393 173.831 41.4169 173.941 41.771C174.055 42.12 174.22 42.4273 174.433 42.6929C174.652 42.9585 174.915 43.1669 175.222 43.3179C175.535 43.4689 175.889 43.5445 176.285 43.5445C176.795 43.5445 177.227 43.4403 177.581 43.232C177.936 43.0236 178.246 42.745 178.511 42.396L179.386 43.0913C179.204 43.3674 178.972 43.6304 178.691 43.8804C178.41 44.1304 178.063 44.3335 177.652 44.4898C177.246 44.646 176.764 44.7241 176.207 44.7241Z" fill="#4A3E42"/>
<path d="M165.3 37.9195V44.5679H163.855V36.1148H165.222L165.3 37.9195ZM164.957 40.021L164.355 39.9976C164.36 39.4195 164.446 38.8856 164.613 38.396C164.779 37.9012 165.014 37.4715 165.316 37.107C165.618 36.7424 165.977 36.4611 166.394 36.2632C166.816 36.0601 167.282 35.9585 167.792 35.9585C168.209 35.9585 168.584 36.0158 168.917 36.1304C169.251 36.2398 169.535 36.4169 169.769 36.6617C170.009 36.9064 170.191 37.2241 170.316 37.6148C170.441 38.0002 170.503 38.4715 170.503 39.0288V44.5679H169.05V39.0132C169.05 38.5705 168.985 38.2163 168.855 37.9507C168.725 37.6799 168.535 37.4846 168.285 37.3648C168.035 37.2398 167.727 37.1773 167.363 37.1773C167.003 37.1773 166.675 37.2528 166.378 37.4038C166.087 37.5549 165.834 37.7632 165.621 38.0288C165.412 38.2945 165.248 38.5991 165.128 38.9429C165.014 39.2814 164.957 39.6408 164.957 40.021Z" fill="#4A3E42"/>
<path d="M160.347 36.1148H161.66V44.3882C161.66 45.133 161.509 45.7684 161.207 46.2945C160.904 46.8205 160.483 47.2189 159.941 47.4898C159.404 47.7658 158.785 47.9038 158.081 47.9038C157.79 47.9038 157.446 47.857 157.05 47.7632C156.66 47.6747 156.274 47.521 155.894 47.3023C155.519 47.0887 155.204 46.7997 154.949 46.4351L155.707 45.5757C156.061 46.0028 156.43 46.2997 156.816 46.4663C157.207 46.633 157.592 46.7163 157.972 46.7163C158.43 46.7163 158.826 46.6304 159.16 46.4585C159.493 46.2867 159.751 46.0314 159.933 45.6929C160.121 45.3596 160.214 44.9481 160.214 44.4585V37.9741L160.347 36.1148ZM154.527 40.4351V40.271C154.527 39.6252 154.602 39.0393 154.753 38.5132C154.91 37.982 155.131 37.5262 155.417 37.146C155.709 36.7658 156.061 36.4741 156.472 36.271C156.884 36.0627 157.347 35.9585 157.863 35.9585C158.394 35.9585 158.858 36.0523 159.253 36.2398C159.654 36.4221 159.993 36.6903 160.269 37.0445C160.55 37.3934 160.772 37.8153 160.933 38.3101C161.095 38.8049 161.207 39.3648 161.269 39.9898V40.7085C161.212 41.3283 161.1 41.8856 160.933 42.3804C160.772 42.8752 160.55 43.2971 160.269 43.646C159.993 43.995 159.654 44.2632 159.253 44.4507C158.852 44.633 158.384 44.7241 157.847 44.7241C157.342 44.7241 156.884 44.6174 156.472 44.4038C156.066 44.1903 155.717 43.8908 155.425 43.5054C155.134 43.12 154.91 42.6669 154.753 42.146C154.602 41.62 154.527 41.0497 154.527 40.4351ZM155.972 40.271V40.4351C155.972 40.857 156.014 41.2528 156.097 41.6226C156.186 41.9924 156.318 42.3179 156.496 42.5991C156.678 42.8804 156.91 43.1018 157.191 43.2632C157.472 43.4195 157.808 43.4976 158.199 43.4976C158.678 43.4976 159.074 43.396 159.386 43.1929C159.699 42.9898 159.946 42.7215 160.128 42.3882C160.316 42.0549 160.462 41.6929 160.566 41.3023V39.4195C160.509 39.133 160.42 38.857 160.3 38.5913C160.186 38.3205 160.035 38.0809 159.847 37.8726C159.665 37.659 159.438 37.4898 159.167 37.3648C158.897 37.2398 158.579 37.1773 158.214 37.1773C157.818 37.1773 157.477 37.2606 157.191 37.4273C156.91 37.5887 156.678 37.8127 156.496 38.0991C156.318 38.3804 156.186 38.7085 156.097 39.0835C156.014 39.4533 155.972 39.8491 155.972 40.271Z" fill="#4A3E42"/>
<path d="M152.55 36.1147V44.5678H151.097V36.1147H152.55ZM150.988 33.8725C150.988 33.6381 151.058 33.4402 151.199 33.2787C151.345 33.1173 151.558 33.0366 151.839 33.0366C152.115 33.0366 152.326 33.1173 152.472 33.2787C152.623 33.4402 152.699 33.6381 152.699 33.8725C152.699 34.0964 152.623 34.2892 152.472 34.4506C152.326 34.6069 152.115 34.685 151.839 34.685C151.558 34.685 151.345 34.6069 151.199 34.4506C151.058 34.2892 150.988 34.0964 150.988 33.8725Z" fill="#4A3E42"/>
<path d="M147.636 42.3257C147.636 42.1174 147.589 41.9247 147.496 41.7476C147.407 41.5653 147.222 41.4012 146.941 41.2554C146.665 41.1044 146.248 40.9741 145.691 40.8648C145.222 40.7658 144.798 40.6486 144.417 40.5132C144.042 40.3778 143.722 40.2137 143.457 40.021C143.196 39.8283 142.996 39.6018 142.855 39.3413C142.714 39.0809 142.644 38.7762 142.644 38.4273C142.644 38.0939 142.717 37.7788 142.863 37.482C143.014 37.1851 143.225 36.9221 143.496 36.6929C143.772 36.4637 144.102 36.284 144.488 36.1538C144.873 36.0236 145.303 35.9585 145.777 35.9585C146.454 35.9585 147.032 36.0783 147.511 36.3179C147.99 36.5575 148.358 36.8778 148.613 37.2788C148.868 37.6747 148.996 38.1148 148.996 38.5991H147.55C147.55 38.3648 147.48 38.1382 147.339 37.9195C147.204 37.6955 147.003 37.5106 146.738 37.3648C146.477 37.2189 146.157 37.146 145.777 37.146C145.376 37.146 145.05 37.2085 144.8 37.3335C144.555 37.4533 144.376 37.607 144.261 37.7945C144.152 37.982 144.097 38.1799 144.097 38.3882C144.097 38.5445 144.123 38.6851 144.175 38.8101C144.233 38.9299 144.331 39.0419 144.472 39.146C144.613 39.245 144.811 39.3387 145.066 39.4273C145.321 39.5158 145.647 39.6044 146.042 39.6929C146.735 39.8491 147.305 40.0367 147.753 40.2554C148.201 40.4741 148.535 40.7424 148.753 41.0601C148.972 41.3778 149.081 41.7632 149.081 42.2163C149.081 42.5861 149.003 42.9247 148.847 43.232C148.696 43.5393 148.475 43.8049 148.183 44.0288C147.897 44.2476 147.553 44.4195 147.152 44.5445C146.756 44.6643 146.311 44.7241 145.816 44.7241C145.071 44.7241 144.441 44.5913 143.925 44.3257C143.41 44.0601 143.019 43.7163 142.753 43.2945C142.488 42.8726 142.355 42.4273 142.355 41.9585H143.808C143.829 42.3544 143.943 42.6695 144.152 42.9038C144.36 43.133 144.615 43.2971 144.917 43.396C145.22 43.4898 145.519 43.5367 145.816 43.5367C146.212 43.5367 146.542 43.4846 146.808 43.3804C147.079 43.2762 147.285 43.133 147.425 42.9507C147.566 42.7684 147.636 42.5601 147.636 42.3257Z" fill="#4A3E42"/>
<path d="M137.738 44.7241C137.149 44.7241 136.615 44.6252 136.136 44.4273C135.662 44.2241 135.253 43.9403 134.91 43.5757C134.571 43.2111 134.311 42.7788 134.128 42.2788C133.946 41.7788 133.855 41.232 133.855 40.6382V40.3101C133.855 39.6226 133.957 39.0106 134.16 38.4741C134.363 37.9325 134.639 37.4741 134.988 37.0991C135.337 36.7241 135.733 36.4403 136.175 36.2476C136.618 36.0549 137.076 35.9585 137.55 35.9585C138.154 35.9585 138.675 36.0627 139.113 36.271C139.555 36.4794 139.917 36.771 140.199 37.146C140.48 37.5158 140.688 37.9533 140.824 38.4585C140.959 38.9585 141.027 39.5054 141.027 40.0991V40.7476H134.714V39.5679H139.581V39.4585C139.561 39.0835 139.483 38.7189 139.347 38.3648C139.217 38.0106 139.009 37.7189 138.722 37.4898C138.436 37.2606 138.045 37.146 137.55 37.146C137.222 37.146 136.92 37.2163 136.644 37.357C136.368 37.4924 136.131 37.6955 135.933 37.9663C135.735 38.2372 135.581 38.5679 135.472 38.9585C135.363 39.3491 135.308 39.7997 135.308 40.3101V40.6382C135.308 41.0393 135.363 41.4169 135.472 41.771C135.587 42.12 135.751 42.4273 135.964 42.6929C136.183 42.9585 136.446 43.1669 136.753 43.3179C137.066 43.4689 137.42 43.5445 137.816 43.5445C138.326 43.5445 138.759 43.4403 139.113 43.232C139.467 43.0236 139.777 42.745 140.042 42.396L140.917 43.0913C140.735 43.3674 140.503 43.6304 140.222 43.8804C139.941 44.1304 139.595 44.3335 139.183 44.4898C138.777 44.646 138.295 44.7241 137.738 44.7241Z" fill="#4A3E42"/>
<path d="M127.027 44.5679H124.652L124.667 43.3413H127.027C127.839 43.3413 128.516 43.1721 129.058 42.8335C129.6 42.4898 130.006 42.0106 130.277 41.396C130.553 40.7762 130.691 40.0523 130.691 39.2241V38.5288C130.691 37.8778 130.613 37.2997 130.457 36.7945C130.3 36.284 130.071 35.8544 129.769 35.5054C129.467 35.1512 129.097 34.883 128.66 34.7007C128.227 34.5184 127.73 34.4273 127.167 34.4273H124.605V33.1929H127.167C127.912 33.1929 128.592 33.3179 129.207 33.5679C129.821 33.8127 130.35 34.1695 130.792 34.6382C131.24 35.1018 131.584 35.6643 131.824 36.3257C132.063 36.982 132.183 37.7215 132.183 38.5445V39.2241C132.183 40.0471 132.063 40.7893 131.824 41.4507C131.584 42.107 131.238 42.6669 130.785 43.1304C130.337 43.5939 129.795 43.9507 129.16 44.2007C128.529 44.4455 127.818 44.5679 127.027 44.5679ZM125.457 33.1929V44.5679H123.949V33.1929H125.457Z" fill="#4A3E42"/>
<path d="M114.785 44.7241C114.196 44.7241 113.662 44.6252 113.183 44.4273C112.709 44.2241 112.3 43.9403 111.957 43.5757C111.618 43.2111 111.358 42.7788 111.175 42.2788C110.993 41.7788 110.902 41.232 110.902 40.6382V40.3101C110.902 39.6226 111.003 39.0106 111.207 38.4741C111.41 37.9325 111.686 37.4741 112.035 37.0991C112.384 36.7241 112.779 36.4403 113.222 36.2476C113.665 36.0549 114.123 35.9585 114.597 35.9585C115.201 35.9585 115.722 36.0627 116.16 36.271C116.602 36.4794 116.964 36.771 117.246 37.146C117.527 37.5158 117.735 37.9533 117.871 38.4585C118.006 38.9585 118.074 39.5054 118.074 40.0991V40.7476H111.761V39.5679H116.628V39.4585C116.608 39.0835 116.529 38.7189 116.394 38.3648C116.264 38.0106 116.055 37.7189 115.769 37.4898C115.483 37.2606 115.092 37.146 114.597 37.146C114.269 37.146 113.967 37.2163 113.691 37.357C113.415 37.4924 113.178 37.6955 112.98 37.9663C112.782 38.2372 112.628 38.5679 112.519 38.9585C112.41 39.3491 112.355 39.7997 112.355 40.3101V40.6382C112.355 41.0393 112.41 41.4169 112.519 41.771C112.634 42.12 112.798 42.4273 113.011 42.6929C113.23 42.9585 113.493 43.1669 113.8 43.3179C114.113 43.4689 114.467 43.5445 114.863 43.5445C115.373 43.5445 115.805 43.4403 116.16 43.232C116.514 43.0236 116.824 42.745 117.089 42.396L117.964 43.0913C117.782 43.3674 117.55 43.6304 117.269 43.8804C116.988 44.1304 116.641 44.3335 116.23 44.4898C115.824 44.646 115.342 44.7241 114.785 44.7241Z" fill="#4A3E42"/>
<path d="M108.058 44.5679H106.613V35.2241C106.613 34.6148 106.722 34.1018 106.941 33.6851C107.165 33.2632 107.485 32.9455 107.902 32.732C108.318 32.5132 108.813 32.4038 109.386 32.4038C109.553 32.4038 109.72 32.4143 109.886 32.4351C110.058 32.4559 110.225 32.4872 110.386 32.5288L110.308 33.7085C110.199 33.6825 110.074 33.6643 109.933 33.6538C109.798 33.6434 109.662 33.6382 109.527 33.6382C109.22 33.6382 108.954 33.7007 108.73 33.8257C108.511 33.9455 108.345 34.1226 108.23 34.357C108.115 34.5913 108.058 34.8804 108.058 35.2241V44.5679ZM109.855 36.1148V37.2241H105.277V36.1148H109.855Z" fill="#4A3E42"/>
<path d="M103.582 36.1147V44.5678H102.129V36.1147H103.582ZM102.02 33.8725C102.02 33.6381 102.09 33.4402 102.231 33.2787C102.377 33.1173 102.59 33.0366 102.872 33.0366C103.148 33.0366 103.359 33.1173 103.504 33.2787C103.655 33.4402 103.731 33.6381 103.731 33.8725C103.731 34.0964 103.655 34.2892 103.504 34.4506C103.359 34.6069 103.148 34.685 102.872 34.685C102.59 34.685 102.377 34.6069 102.231 34.4506C102.09 34.2892 102.02 34.0964 102.02 33.8725Z" fill="#4A3E42"/>
<path d="M100.504 43.3413V44.5679H94.8165V43.3413H100.504ZM95.1134 33.1929V44.5679H93.6055V33.1929H95.1134Z" fill="#4A3E42"/>
<path d="M87.0977 36.1147V44.5678H85.6446V36.1147H87.0977ZM85.5352 33.8725C85.5352 33.6381 85.6055 33.4402 85.7462 33.2787C85.892 33.1173 86.1055 33.0366 86.3868 33.0366C86.6628 33.0366 86.8738 33.1173 87.0196 33.2787C87.1706 33.4402 87.2462 33.6381 87.2462 33.8725C87.2462 34.0964 87.1706 34.2892 87.0196 34.4506C86.8738 34.6069 86.6628 34.685 86.3868 34.685C86.1055 34.685 85.892 34.6069 85.7462 34.4506C85.6055 34.2892 85.5352 34.0964 85.5352 33.8725Z" fill="#4A3E42"/>
<path d="M72.9337 37.7945V44.5679H71.4805V36.1148H72.8555L72.9337 37.7945ZM72.6368 40.021L71.9649 39.9976C71.9701 39.4195 72.0456 38.8856 72.1915 38.396C72.3373 37.9012 72.5535 37.4715 72.8399 37.107C73.1264 36.7424 73.4831 36.4611 73.9102 36.2632C74.3373 36.0601 74.8321 35.9585 75.3946 35.9585C75.7904 35.9585 76.155 36.0158 76.4884 36.1304C76.8217 36.2398 77.1107 36.4143 77.3555 36.6538C77.6003 36.8934 77.7904 37.2007 77.9258 37.5757C78.0613 37.9507 78.129 38.4038 78.129 38.9351V44.5679H76.6837V39.0054C76.6837 38.5627 76.6081 38.2085 76.4571 37.9429C76.3113 37.6773 76.1029 37.4846 75.8321 37.3648C75.5613 37.2398 75.2436 37.1773 74.879 37.1773C74.4519 37.1773 74.0951 37.2528 73.8087 37.4038C73.5222 37.5549 73.293 37.7632 73.1212 38.0288C72.9493 38.2945 72.8243 38.5991 72.7462 38.9429C72.6732 39.2814 72.6368 39.6408 72.6368 40.021ZM78.1134 39.2241L77.1446 39.521C77.1498 39.0575 77.2253 38.6122 77.3712 38.1851C77.5222 37.758 77.7384 37.3778 78.0196 37.0445C78.3061 36.7111 78.6576 36.4481 79.0743 36.2554C79.491 36.0575 79.9675 35.9585 80.504 35.9585C80.9571 35.9585 81.3581 36.0184 81.7071 36.1382C82.0613 36.258 82.3581 36.4429 82.5977 36.6929C82.8425 36.9377 83.0274 37.2528 83.1524 37.6382C83.2774 38.0236 83.3399 38.482 83.3399 39.0132V44.5679H81.8868V38.9976C81.8868 38.5236 81.8113 38.1564 81.6602 37.896C81.5144 37.6304 81.3061 37.4455 81.0352 37.3413C80.7696 37.232 80.4519 37.1773 80.0821 37.1773C79.7644 37.1773 79.4831 37.232 79.2384 37.3413C78.9936 37.4507 78.7878 37.6018 78.6212 37.7945C78.4545 37.982 78.3269 38.1981 78.2384 38.4429C78.155 38.6877 78.1134 38.9481 78.1134 39.2241Z" fill="#4A3E42"/>
<path d="M67.8398 42.6147V36.1147H69.2929V44.5678H67.9101L67.8398 42.6147ZM68.1133 40.8334L68.7148 40.8178C68.7148 41.3803 68.6549 41.9011 68.5351 42.3803C68.4205 42.8543 68.233 43.2657 67.9726 43.6147C67.7122 43.9636 67.3711 44.2371 66.9492 44.435C66.5273 44.6277 66.0143 44.724 65.4101 44.724C64.9987 44.724 64.6211 44.6642 64.2773 44.5444C63.9388 44.4246 63.6471 44.2397 63.4023 43.9897C63.1575 43.7397 62.9674 43.4142 62.832 43.0131C62.7018 42.6121 62.6367 42.1303 62.6367 41.5678V36.1147H64.082V41.5834C64.082 41.9636 64.1237 42.2787 64.207 42.5287C64.2955 42.7735 64.4127 42.9688 64.5586 43.1147C64.7096 43.2553 64.8763 43.3543 65.0586 43.4116C65.2461 43.4688 65.4388 43.4975 65.6367 43.4975C66.2513 43.4975 66.7383 43.3803 67.0976 43.1459C67.457 42.9063 67.7148 42.586 67.8711 42.185C68.0325 41.7787 68.1133 41.3282 68.1133 40.8334Z" fill="#4A3E42"/>
<path d="M61.0273 43.3803V44.5678H54.8789V43.3803H61.0273ZM60.8007 37.1381L55.207 44.5678H54.3242V43.5053L59.8789 36.1147H60.8007V37.1381ZM60.1601 36.1147V37.31H54.3867V36.1147H60.1601Z" fill="#4A3E42"/>
<path d="M52.207 33.1929V44.5679H50.6992V33.1929H52.207Z" fill="#4A3E42"/>
</svg>
