<svg width="107" height="30" viewBox="0 0 107 30" fill="none" xmlns="http://www.w3.org/2000/svg">
<path d="M101.158 9.38232C99.4116 12.5059 97.667 15.627 95.9224 18.7501C94.187 15.627 92.4497 12.5059 90.7115 9.38232H85.4834C88.1021 14.0859 90.7203 18.7924 93.339 23.496C92.6331 24.8308 91.4868 25.7631 89.8219 25.7631H88.4762V29.9996H90.763C92.1464 29.9996 93.4234 29.555 94.4703 28.8063C94.5744 28.7334 94.6761 28.6561 94.7784 28.5765C94.7981 28.5612 94.8201 28.5434 94.8403 28.5278C96.4894 27.1861 97.7043 24.9618 97.7043 24.9618C100.604 19.7687 103.505 14.5756 106.402 9.38247H101.158L101.158 9.38232Z" fill="#8B0025"/>
<path d="M58.9089 9.38232H53.0014C49.4748 9.38232 46.6172 12.24 46.6172 15.7665V18.3274C46.6172 21.8534 49.4748 24.7114 53.0014 24.7114H58.9089C62.4357 24.7114 65.2931 21.8534 65.2931 18.3274V15.7665C65.2931 12.24 62.4357 9.38232 58.9089 9.38232ZM60.7264 18.2325C60.7264 19.4075 59.7743 20.3596 58.5995 20.3596H53.3086C52.1356 20.3596 51.184 19.4075 51.184 18.2325V15.8614C51.184 14.6859 52.1355 13.7343 53.3086 13.7343H58.5995C59.7743 13.7343 60.7264 14.6858 60.7264 15.8614V18.2325Z" fill="#8B0025"/>
<path d="M19.1276 9.38232H15.1458C13.9307 9.38232 12.7017 9.56797 11.6108 10.0089V9.38232H7.0459V24.7114H11.6057V15.6492C11.6057 14.5908 12.4628 13.7343 13.5208 13.7343H19.0368C20.0948 13.7343 20.9519 14.5908 20.9519 15.6492V24.7114H25.5141V15.3833C25.5141 11.8573 22.6538 9.38232 19.1275 9.38232" fill="#8B0025"/>
<path d="M80.376 0V9.6469C79.7979 9.47408 79.1892 9.37895 78.5562 9.37895H72.9425C69.4186 9.37895 66.5605 12.2367 66.5605 15.7631V18.324C66.5605 21.85 69.4186 24.708 72.9425 24.708H78.5562C79.1892 24.708 79.7979 24.6127 80.376 24.4401V24.708H84.9405V0H80.376ZM80.376 18.2291C80.376 19.4041 79.4217 20.3562 78.246 20.3562H73.2524C72.0766 20.3562 71.125 19.4041 71.125 18.2291V15.858C71.125 14.6825 72.0765 13.7309 73.2524 13.7309H78.246C79.4217 13.7309 80.376 14.6824 80.376 15.858V18.2291Z" fill="#8B0025"/>
<path d="M5.55273 0H0.988281V24.708H5.55273V0Z" fill="#8B0025"/>
<path d="M45.4416 16.4822C45.4266 16.2167 45.3733 15.7162 45.2207 15.1208C44.9259 13.9787 44.2571 12.4824 42.7368 11.5879C42.6597 11.5437 42.5818 11.4974 42.5021 11.4576C42.5021 11.4576 43.4477 10.8489 44.0449 9.40564C44.3196 8.73941 44.5234 7.8607 44.5234 6.81364V6.38614C44.5207 6.31576 44.5188 6.24478 44.5161 6.17395C44.3994 2.70055 41.5904 0 38.1394 0H27.0605V24.708H39.0694C42.5933 24.708 45.4531 21.9501 45.4531 18.5496C45.4531 18.0098 45.4481 16.5751 45.4416 16.482M31.6184 4.34555H37.3316C37.3491 4.34301 37.3646 4.34093 37.3798 4.33839V4.34555C38.77 4.34555 39.8966 5.47179 39.8966 6.86225C39.8966 8.25271 38.781 9.36776 37.3999 9.37895H31.6184V4.34555ZM40.8396 17.1731C40.8396 18.9306 39.4164 20.3564 37.6589 20.3564H31.6186V13.753H37.6589C39.4164 13.753 40.8396 15.1765 40.8396 16.9338V17.1731Z" fill="#8B0025"/>
</svg>
