<svg width="76" height="76" viewBox="0 0 76 76" fill="none" xmlns="http://www.w3.org/2000/svg">
<g clip-path="url(#clip0_1393_62977)">
<mask id="mask0_1393_62977" style="mask-type:luminance" maskUnits="userSpaceOnUse" x="0" y="0" width="76" height="76">
<path d="M76 0H0V76H76V0Z" fill="white"/>
</mask>
<g mask="url(#mask0_1393_62977)">
<path d="M76 38C76 45.5157 73.7714 52.8626 69.5959 59.1117C65.4204 65.3607 59.4856 70.2313 52.542 73.1074C45.5984 75.9836 37.9579 76.7361 30.5866 75.2698C23.2153 73.8036 16.4444 70.1844 11.13 64.8701C5.81556 59.5557 2.19641 52.7847 0.730176 45.4134C-0.736062 38.0421 0.0164648 30.4016 2.89259 23.458C5.76872 16.5144 10.6393 10.5796 16.8883 6.40415C23.1374 2.22866 30.4843 0 38 0C48.0782 0 57.7437 4.00356 64.8701 11.1299C71.9965 18.2563 76 27.9218 76 38Z" fill="#00993E"/>
<path d="M27.9016 19.461C27.9031 19.3262 27.8778 19.1925 27.8272 19.0677C27.7765 18.9428 27.7016 18.8292 27.6067 18.7335C27.5118 18.6378 27.3989 18.562 27.2744 18.5103C27.15 18.4586 27.0165 18.4322 26.8818 18.4325H21.574C21.3057 18.4331 21.0484 18.5395 20.8579 18.7286C20.6675 18.9177 20.5592 19.1742 20.5566 19.4426C20.4144 28.8298 18.284 36.5671 13.7142 40.019C13.5842 40.1143 13.4782 40.2386 13.4046 40.382C13.331 40.5254 13.2917 40.684 13.29 40.8452V48.4721C13.2904 48.6608 13.3431 48.8457 13.4422 49.0063C13.5413 49.1669 13.683 49.2969 13.8515 49.3818C14.02 49.4668 14.2087 49.5034 14.3967 49.4875C14.5848 49.4717 14.7647 49.4041 14.9167 49.2922C15.8621 48.6044 16.7628 47.8572 17.6135 47.0551C17.7576 46.917 17.9391 46.8242 18.1355 46.7884C18.3319 46.7526 18.5345 46.7753 18.7181 46.8536C18.9017 46.932 19.0583 47.0626 19.1683 47.2291C19.2783 47.3957 19.337 47.591 19.3369 47.7906V64.4616C19.3369 64.5953 19.3633 64.7278 19.4145 64.8514C19.4657 64.975 19.5407 65.0872 19.6353 65.1818C19.7299 65.2764 19.8422 65.3515 19.9658 65.4027C20.0894 65.4538 20.2218 65.4802 20.3556 65.4802H25.6609C25.7946 65.4802 25.9271 65.4538 26.0507 65.4027C26.1743 65.3515 26.2866 65.2764 26.3812 65.1818C26.4758 65.0872 26.5508 64.975 26.602 64.8514C26.6532 64.7278 26.6795 64.5953 26.6795 64.4616V39.2332C26.6795 38.9631 26.5722 38.704 26.3812 38.5129C26.1901 38.3219 25.931 38.2146 25.6609 38.2146H25.602C25.4342 38.2147 25.2689 38.1731 25.121 38.0937C24.9731 38.0142 24.8473 37.8993 24.7547 37.7592C24.6622 37.6192 24.6058 37.4583 24.5907 37.2912C24.5755 37.124 24.6021 36.9556 24.668 36.8012C26.8543 31.284 27.9504 25.3953 27.8955 19.461M57.8297 39.6426H49.113C48.8445 39.6426 48.5869 39.536 48.397 39.3461C48.2072 39.1562 48.1005 38.8987 48.1005 38.6301V37.2916C51.4929 36.3903 54.4411 34.2845 56.3939 31.3677C58.3467 28.451 59.1706 24.9229 58.7115 21.4429C58.2524 17.963 56.5417 14.7693 53.8993 12.4588C51.2568 10.1483 47.8634 8.8791 44.3533 8.88848C40.8432 8.89786 37.4566 10.1851 34.8265 12.5097C32.1965 14.8343 30.5029 18.0371 30.0624 21.5195C29.6219 25.0018 30.4646 28.5255 32.433 31.4317C34.4013 34.338 37.3607 36.428 40.7579 37.3112V38.6301C40.7581 38.763 40.732 38.8947 40.6813 39.0175C40.6305 39.1403 40.5561 39.252 40.4621 39.346C40.3682 39.4401 40.2567 39.5147 40.1339 39.5655C40.0111 39.6164 39.8795 39.6426 39.7466 39.6426H30.9613C30.6927 39.6426 30.4352 39.7493 30.2453 39.9392C30.0554 40.1291 29.9487 40.3866 29.9487 40.6552V45.9678C29.9487 46.2363 30.0554 46.4939 30.2453 46.6838C30.4352 46.8736 30.6927 46.9803 30.9613 46.9803H37.9128C38.0713 46.98 38.2276 47.0168 38.3692 47.0878C38.5108 47.1589 38.6338 47.2621 38.7282 47.3894C38.8226 47.5166 38.8859 47.6642 38.9129 47.8203C38.9399 47.9764 38.9299 48.1367 38.8837 48.2883C37.8454 51.631 35.0162 54.4577 30.607 56.1837C30.4144 56.2571 30.2486 56.3869 30.1311 56.5562C30.0136 56.7255 29.9501 56.9264 29.9487 57.1325V64.0337C29.949 64.1976 29.9889 64.3591 30.0651 64.5042C30.1413 64.6493 30.2515 64.7738 30.3863 64.867C30.5211 64.9603 30.6765 65.0195 30.8392 65.0396C31.0019 65.0597 31.167 65.0401 31.3204 64.9825C34.1891 63.9714 36.8217 62.3865 39.0577 60.3245C39.2012 60.1895 39.381 60.0994 39.575 60.0654C39.7691 60.0315 39.9688 60.055 40.1496 60.1332C40.3304 60.2114 40.4844 60.3409 40.5924 60.5056C40.7005 60.6702 40.7581 60.8629 40.7579 61.0599V64.4554C40.7579 64.5884 40.7841 64.7201 40.835 64.8429C40.8859 64.9657 40.9604 65.0774 41.0545 65.1714C41.1485 65.2654 41.2601 65.34 41.383 65.3909C41.5058 65.4417 41.6375 65.4679 41.7704 65.4679H47.088C47.2209 65.4679 47.3526 65.4417 47.4754 65.3909C47.5983 65.34 47.7099 65.2654 47.8039 65.1714C47.8979 65.0774 47.9725 64.9657 48.0234 64.8429C48.0743 64.7201 48.1005 64.5884 48.1005 64.4554V61.0599C48.1007 60.863 48.1584 60.6703 48.2667 60.5057C48.3749 60.3412 48.529 60.2118 48.7098 60.1337C48.8906 60.0555 49.0903 60.0319 49.2844 60.0658C49.4784 60.0997 49.6583 60.1896 49.8019 60.3245C52.0188 62.3735 54.6256 63.9552 57.4669 64.9752C57.6198 65.0326 57.7844 65.0522 57.9466 65.0324C58.1088 65.0126 58.2638 64.954 58.3985 64.8614C58.5331 64.7689 58.6435 64.6452 58.7201 64.5009C58.7967 64.3566 58.8373 64.1959 58.8386 64.0325V57.1312C58.8372 56.9268 58.7742 56.7275 58.6579 56.5593C58.5415 56.3912 58.3773 56.262 58.1864 56.1886C53.8275 54.4626 50.9542 51.6372 49.9061 48.2956C49.8594 48.144 49.849 47.9836 49.8758 47.8272C49.9025 47.6709 49.9655 47.523 50.0599 47.3955C50.1542 47.268 50.2772 47.1644 50.4189 47.0932C50.5606 47.0219 50.7171 46.9849 50.8757 46.9852H57.826C57.9594 46.9852 58.0915 46.9589 58.2146 46.9077C58.3378 46.8565 58.4496 46.7815 58.5437 46.6869C58.6378 46.5924 58.7123 46.4802 58.7629 46.3568C58.8135 46.2334 58.8392 46.1012 58.8386 45.9678V40.6552C58.8386 40.3866 58.7319 40.1291 58.542 39.9392C58.3521 39.7493 58.0946 39.6426 57.826 39.6426" fill="white"/>
<path fill-rule="evenodd" clip-rule="evenodd" d="M52.5672 22.816C52.6567 22.6125 52.9264 22.5953 52.9509 22.3134C52.6751 22.3403 52.6579 22.1822 52.6493 22.018C52.6408 21.8537 52.6628 21.6502 52.6555 21.4749C52.7094 21.253 52.968 21.1807 52.9349 20.8914C52.6714 20.9723 52.6187 20.8191 52.5758 20.6549C52.5525 20.5666 52.5464 20.4734 52.5231 20.384C52.7915 20.384 52.8124 20.2087 52.7682 20.0321C52.7486 19.9378 52.7094 19.8458 52.6861 19.7527C52.6726 19.4928 52.4777 19.532 52.2914 19.586C52.2271 19.4123 52.1539 19.2421 52.072 19.076C52.0714 18.9423 52.0259 18.8126 51.9428 18.7079C51.8596 18.6032 51.7437 18.5295 51.6135 18.4987C51.4211 18.4288 51.2139 18.4116 51.0754 18.1211C51.3034 17.9985 51.4897 18.1334 51.7471 17.9409C51.5718 17.7089 51.3814 17.4885 51.1771 17.2814C51.0227 17.5107 50.8842 17.4236 50.7518 17.3219C50.9724 17.1589 50.8744 17.0179 50.7518 16.8941C50.5331 16.7108 50.3034 16.5409 50.0641 16.3854C49.8925 16.204 49.7699 16.3547 49.6571 16.508C49.5039 16.4131 49.3455 16.3268 49.1828 16.2493C48.7341 16.0814 48.815 15.645 48.2793 15.5383C47.7988 15.3545 47.6125 15.7541 47.1308 15.5972C47.0597 15.2993 46.9775 14.9978 46.6674 14.8911C46.5877 14.9953 46.7017 15.4562 46.6061 15.5298C46.5485 15.5751 46.4051 15.4758 46.3426 15.5114C46.1146 15.5592 46.0974 15.3729 46.09 15.1767C45.9062 15.1608 45.7223 15.1767 45.5421 15.1767C44.9964 15.1873 44.4527 15.2443 43.9167 15.3471C43.712 15.455 43.7193 15.7149 43.4631 15.7749C43.2425 15.7688 43.1248 15.5298 42.8637 15.6131C42.9863 15.8583 42.8515 15.9269 42.7068 15.998C42.518 16.1304 42.4322 15.9649 42.3501 15.786C41.8745 15.9085 41.9738 16.3609 41.492 16.4957C41.416 16.2285 41.2665 16.2701 41.1108 16.3302C40.9453 16.4847 41.0238 16.7323 40.8007 16.8659C40.7416 16.7905 40.668 16.7276 40.5843 16.681C40.5006 16.6344 40.4085 16.605 40.3132 16.5945C40.218 16.584 40.1217 16.5926 40.0298 16.6199C39.938 16.6471 39.8525 16.6924 39.7784 16.7531C39.9126 16.8976 39.9975 17.081 40.0208 17.2768C40.0442 17.4727 40.0048 17.6708 39.9083 17.8429C39.6521 17.4665 39.3984 17.0853 39.1128 17.241C39.1753 17.3715 39.2077 17.5143 39.2077 17.659C39.2077 17.8037 39.1753 17.9465 39.1128 18.077C38.8406 17.7877 38.6445 17.9164 38.5305 18.1493C38.4474 18.3545 38.3889 18.5689 38.3564 18.788C38.0438 18.9596 37.6638 18.7046 37.3439 18.9522C37.5787 19.3149 37.6733 19.7507 37.6099 20.178C37.415 19.9819 37.3035 20.0885 37.198 20.2136C37.1233 20.4342 36.9529 20.3619 36.7813 20.2724C36.6349 20.5129 36.5011 20.7609 36.3804 21.0152C36.2272 21.2138 36.3866 21.3119 36.5618 21.4001C36.8328 21.4614 36.8009 21.611 36.7629 21.7679C36.537 21.7459 36.3094 21.7865 36.105 21.8853C35.9007 21.9841 35.7275 22.1373 35.6045 22.3281C35.7013 22.4249 36.1659 22.3452 36.2321 22.4507C36.2726 22.5156 36.1512 22.6578 36.1806 22.7277C36.0323 23.6821 36.1974 24.6589 36.6513 25.5115C36.8193 25.6929 36.6771 25.8069 36.5189 25.9246C36.6219 26.094 36.734 26.2577 36.8548 26.4149C37.0804 26.5596 37.1723 26.98 37.4346 27.0683C37.5695 27.1112 37.6283 26.8538 37.8588 27.0278C38.1407 27.2301 37.7913 27.2914 37.8588 27.4532C37.9262 27.615 38.1983 27.6787 38.3111 27.7903C38.2424 27.718 38.6089 27.6076 38.7168 27.6836C38.7291 27.691 38.5391 27.9288 38.5428 27.9533C38.5673 28.093 38.9718 28.1114 39.0331 28.2414C39.1226 27.9729 39.266 28.0367 39.4266 28.0845C39.5982 28.2303 39.5393 28.4914 39.8017 28.6067C39.8544 28.3394 40.0149 28.3615 40.1768 28.3995C40.2638 28.4228 40.3471 28.462 40.4329 28.4853C40.6185 28.5364 40.7843 28.6424 40.9086 28.7893C40.9729 28.8687 41.0542 28.9327 41.1464 28.9766C41.2387 29.0205 41.3396 29.0432 41.4418 29.043C41.6239 28.6557 41.932 28.3415 42.3158 28.1519C42.7963 28.1703 42.6431 29.0443 43.3638 28.7648C44.1582 28.9205 43.9694 28.223 44.5897 28.207C44.9178 28.1184 45.2403 28.0103 45.5556 27.8834C45.7664 27.8601 45.916 28.0832 46.1599 27.9778C46.1346 27.8967 46.1013 27.8183 46.0606 27.7437C46.1288 27.7178 46.1925 27.6814 46.2494 27.6358C46.3904 27.5255 46.6012 27.5132 46.7189 27.3796C46.8635 27.2019 46.9113 26.9408 47.094 26.8489C47.2159 26.8052 47.3351 26.754 47.4507 26.6956C47.5537 26.6196 47.6701 26.5571 47.7669 26.4725C47.8184 26.421 47.9214 26.3316 47.9165 26.2274C47.9165 26.1489 47.8356 26.0852 47.8969 26.046C47.9129 26.0594 47.9318 26.069 47.952 26.0741C48.0636 26.0987 48.1384 25.7223 47.9312 25.677C47.8491 25.6561 47.7878 25.8682 47.8527 25.9932C47.7792 26.0202 47.7302 26.0925 47.6493 26.1048C47.6039 26.1134 47.5365 26.068 47.4887 26.0803C47.4409 26.0925 47.4262 26.133 47.3992 26.1514C47.2497 26.2568 47.1185 26.4321 46.8942 26.3634C46.6698 26.2948 46.7091 26.5118 46.5816 26.6025C46.5336 26.6262 46.4809 26.6392 46.4273 26.6404C46.3738 26.6417 46.3206 26.6313 46.2715 26.6098C46.1403 26.5743 45.9957 26.4738 45.9748 26.6527C45.965 26.725 46.0055 26.8489 45.9405 26.8611C45.8755 26.8734 45.7836 26.7385 45.7235 26.7275C45.6181 26.7054 45.6206 26.8133 45.5752 26.882C45.5298 26.9506 45.4624 26.9592 45.3987 26.9861C45.3422 26.8633 45.3011 26.7341 45.2761 26.6012C44.9084 26.7177 44.9868 27.1467 44.5517 27.2141C44.51 26.9347 44.3849 26.9567 44.2501 26.969C44.3617 27.224 44.2501 27.2828 44.1153 27.3367C44.0405 27.3367 43.9694 27.3894 43.8958 27.3907C43.7034 27.3747 43.6176 27.0965 43.4055 27.1455C43.4828 27.4029 43.3638 27.4728 43.2278 27.4973C43.1542 27.5047 43.0782 27.4973 43.0047 27.512L43.028 27.832C43.028 28.0293 43.0169 28.2144 42.8037 28.169C42.9029 27.8577 42.6002 27.946 42.5585 27.8503C42.5493 27.7439 42.5493 27.6369 42.5585 27.5304C42.6431 27.4348 42.9042 27.5966 43.0047 27.512C42.963 27.1443 42.7411 27.1565 42.4764 27.1688C42.2281 27.2401 41.9637 27.2324 41.72 27.1467C41.5521 27.0707 41.5043 27.2374 41.454 27.4323L41.0226 27.3355C40.846 27.2877 40.6744 27.2215 40.4991 27.1663C40.3238 27.1112 40.1633 27.0168 39.9941 26.9457C39.8507 26.8231 39.7489 26.9543 39.646 27.1259L39.2439 26.8881C39.4266 26.6821 39.3334 26.5902 39.2378 26.4921L38.8811 26.2286C39.087 26.0398 39.0122 25.9418 38.9326 25.8437C38.9049 25.7456 38.8432 25.6606 38.7585 25.604C38.6738 25.5473 38.5716 25.5228 38.4704 25.5348C38.2939 25.5348 38.1027 25.5348 38.0034 25.2798C37.8538 25.1572 38.0034 25.0445 38.1664 24.9354C38.1043 24.8259 38.0487 24.713 37.9997 24.597C37.7668 24.7441 37.6896 24.651 37.6258 24.5407C37.6516 24.3482 37.3807 24.1496 37.4653 23.9523C37.5118 23.8554 37.8073 23.9167 37.7631 23.7169C37.7631 23.7083 37.4616 23.7586 37.4408 23.75C37.4142 23.4771 37.4048 23.2028 37.4126 22.9287C37.4191 22.5579 37.5393 22.1981 37.757 21.8978C37.8489 21.8365 38.0843 22.0621 38.137 21.8341C38.137 21.8218 37.8563 21.7115 37.844 21.698C37.8134 21.6416 37.9764 21.557 37.9421 21.4994C37.8624 21.3474 37.5989 21.3474 37.7693 21.1476C37.7791 21.1354 38.0242 21.307 38.0488 21.3045C38.1015 21.3045 38.1039 21.106 38.1615 21.1121C38.2191 21.1182 38.4067 21.291 38.4386 21.28C38.5415 21.231 38.6053 21.0103 38.6727 20.9221C38.8394 20.7076 38.5293 20.7039 38.5391 20.5543C38.5918 20.075 39.1606 20.2087 39.3689 20.0763C39.4266 20.0272 39.8593 19.6754 39.8421 19.597C39.836 19.5553 39.6117 19.3947 39.619 19.3616C39.6362 19.2746 40.2393 18.7205 40.3189 18.7585C40.3533 18.7732 40.4942 19.0172 40.5188 19.0123C40.6646 18.9841 40.7308 18.7794 40.8742 18.7426L41.242 18.4974C41.0581 18.2915 41.1488 18.1898 41.2604 18.1052C41.4001 17.9556 41.5055 18.1052 41.622 18.267C41.7477 18.1892 41.8774 18.118 42.0106 18.0537C42.1429 17.9213 42.0608 17.6541 42.2741 17.5634C42.3513 17.8306 42.48 17.8085 42.6112 17.7693C43.0084 17.5965 42.556 16.8365 43.2486 16.85C43.3381 16.9456 43.3418 17.4016 43.4386 17.4629C43.495 17.5009 43.5906 17.3758 43.6495 17.4016C43.5367 17.1564 43.6495 17.0816 43.7831 17.0338C43.9792 17.0547 44.076 17.3023 44.2893 17.2532C44.4328 17.225 44.5774 17.2079 44.7208 17.1846C44.912 17.2128 44.9108 17.0338 44.9022 16.834L45.3546 16.7936C45.5421 16.8512 45.5887 17.1147 45.8057 17.1098C45.7664 16.8389 45.8951 16.7985 46.0349 16.7911C46.1097 16.8034 46.1857 16.7972 46.2617 16.8046C46.4504 16.8316 46.47 16.8867 46.4566 17.1417C46.8317 17.2336 46.9738 16.8021 47.3722 16.959C47.2717 17.2177 47.382 17.279 47.4948 17.3268C47.5524 17.2998 47.6419 17.4187 47.6958 17.3856C47.7902 17.3243 47.8025 16.8647 47.8908 16.7727C47.9275 16.8316 48.0857 16.7838 48.1126 16.8487C48.1531 16.9517 47.8809 17.3268 47.8944 17.4543C48.1566 17.5499 48.4118 17.6638 48.6581 17.795C48.7807 17.936 48.8898 17.7852 49.0013 17.621C49.1325 17.6921 49.2465 17.7791 49.3691 17.8661C49.1766 18.0709 49.2661 18.1567 49.3482 18.2523C49.4855 18.0071 49.5934 18.0647 49.716 18.1297C49.5088 18.3172 49.5848 18.4129 49.6596 18.5146C49.7172 18.5514 49.7503 18.6176 49.8091 18.6531C49.9538 18.7475 50.1646 18.593 50.3313 18.7438C50.5152 18.9461 50.1965 18.9706 50.2087 19.1116C50.2198 19.2096 50.3755 19.3653 50.4343 19.4401C50.4417 19.4487 50.6868 19.2709 50.7101 19.2709C50.9246 19.2709 51.0668 19.6656 51.1575 20.1229C51.1992 20.5918 51.27 21.0577 51.3696 21.5178C51.4321 21.7041 51.247 21.725 51.0472 21.7336C51.0472 21.8721 51.0386 22.0118 51.0264 22.1516C51.001 22.4373 50.9572 22.721 50.8952 23.001C50.9148 23.1874 51.1637 23.2916 51.1024 23.5147C50.9675 23.9584 50.1891 23.538 50.2137 24.1766C50.4846 24.2318 50.4698 24.3641 50.4355 24.5014C50.1904 24.3641 50.1242 24.4745 50.0518 24.5946C50.3804 24.8324 50.5422 25.118 50.3718 25.4858C50.1548 25.3374 50.1695 25.1389 49.8753 25.0114C49.4108 25.4735 50.2627 25.6954 50.0653 26.1232C49.8398 25.9601 49.7503 26.0643 49.6669 26.1783C49.6326 26.372 49.8422 26.5363 49.7295 26.7459C49.5113 26.573 49.4181 26.6723 49.3286 26.7827L49.0908 27.1774L49.6363 27.5218C49.5701 27.5451 49.5738 27.7106 49.5027 27.7216C49.3887 27.74 49.0945 27.3833 48.9646 27.3686C48.9854 27.4838 48.6557 27.642 48.7084 27.751C48.7402 27.8209 48.929 27.8736 48.9744 27.9374C48.902 28.1335 48.739 28.0428 48.5723 27.9374C48.4093 28.06 48.5441 28.1825 48.6949 28.3161C48.6029 28.4387 48.5086 28.5687 48.4068 28.6839C48.2242 28.4829 48.1053 28.5613 48.0097 28.6594C47.9569 28.7145 47.9165 28.782 47.8638 28.8371L47.5573 29.1767C47.3845 29.2796 47.5046 29.4218 47.6382 29.5689L47.3073 29.8999C47.1295 29.9918 46.9175 29.8288 46.7483 29.9808C46.8709 30.2603 46.9849 30.5496 46.8243 30.7751C46.6809 30.5385 46.5571 30.6023 46.4357 30.6783C46.3144 30.7543 46.1979 30.8781 46.068 30.9663C46.2666 31.1588 46.1734 31.2605 46.068 31.3623C45.9454 31.1281 45.8057 31.1563 45.6917 31.2397C45.5299 31.3537 45.5519 31.4236 45.6757 31.6344C45.8375 31.5547 45.9013 31.5425 46.0569 31.7668C46.1673 31.9274 46.2359 32.1112 46.0312 32.1725L45.6757 31.6344C45.5691 31.9188 45.3742 31.4885 45.308 31.4934C45.1572 31.4934 45.0628 31.719 44.9108 31.7325C45.0849 31.9482 44.9807 32.0389 44.863 32.1272C44.7453 32.2154 44.5529 32.0242 44.4193 32.0144C44.2354 32.0034 44.2097 32.273 44.0981 32.403C44.038 32.4729 43.9375 32.4496 43.8726 32.5072C43.8076 32.5648 43.7794 32.6383 43.6997 32.6653C43.6421 32.6874 43.5024 32.718 43.5612 32.881C43.62 33.0441 43.7451 32.962 43.8064 32.946C43.9044 32.9215 44.016 32.946 44.1165 32.9203C44.1619 32.8997 44.2113 32.889 44.2611 32.889C44.311 32.889 44.3603 32.8997 44.4058 32.9203C44.5811 33.0122 44.7208 32.9203 44.8544 32.8553C45.042 32.7707 45.2148 32.6604 45.395 32.5636C45.4511 32.6388 45.5216 32.7021 45.6024 32.7499C45.6833 32.7976 45.7728 32.8287 45.8658 32.8415C45.9587 32.8543 46.0533 32.8484 46.144 32.8243C46.2347 32.8001 46.3197 32.7582 46.394 32.7009C46.204 32.501 46.3095 32.392 46.4308 32.2914C46.4982 32.235 46.5742 32.1946 46.6404 32.1394C46.4468 31.9482 46.5375 31.8281 46.6564 31.7312C46.8807 31.54 47.0327 31.4861 47.2546 31.6687C47.6444 31.4101 47.4066 31.0178 47.8098 30.7592C47.9547 30.8783 48.1406 30.9357 48.3274 30.9192C48.5142 30.9027 48.6871 30.8136 48.8089 30.6709C48.9498 30.454 49.2073 30.3142 49.336 30.0887C49.4438 29.8778 49.2649 29.499 49.5811 29.2845C49.814 28.8898 50.2296 29.0884 50.4392 28.6336C50.6378 28.348 50.8217 28.0538 50.9969 27.7547C51.0778 27.4041 50.7064 27.121 50.8106 26.7741C51.2029 27.0058 51.5939 27.2411 51.7913 26.9923C51.5902 26.7569 51.3794 26.5277 51.4431 26.2409C51.1747 26.1649 51.2102 26.0227 51.2605 25.8731C51.3978 25.7138 51.654 25.7738 51.7508 25.5385C51.817 25.3803 51.8857 25.2271 51.9457 25.0665C52.1811 25.2075 52.2657 25.0812 52.3368 24.9354C52.3171 24.8655 52.4593 24.754 52.425 24.6902C52.3711 24.5823 51.904 24.5799 51.8121 24.4818C51.8697 24.4414 51.8268 24.2747 51.8918 24.2428C51.9997 24.1889 52.3735 24.4647 52.5047 24.4389C52.4593 24.3261 52.74 24.0258 52.6567 23.9253C52.6052 23.8677 52.4115 23.8947 52.3478 23.842C52.3478 23.614 52.5304 23.6348 52.7241 23.6654C52.767 23.4901 52.805 23.3124 52.8393 23.1334C52.5635 23.1334 52.5586 22.9741 52.5697 22.8123" fill="#E50012"/>
</g>
</g>
<defs>
<clipPath id="clip0_1393_62977">
<rect width="76" height="76" fill="white"/>
</clipPath>
</defs>
</svg>
