<svg width="289" height="47" viewBox="0 0 289 47" fill="none" xmlns="http://www.w3.org/2000/svg">
<path d="M100.08 45.8944C100.396 46.0798 100.875 46.3157 101.281 46.4796C102.512 46.9721 103.701 46.5264 104.229 45.5395C105.123 43.858 108.636 37.0306 112.504 29.4954C112.831 29.0413 113.339 28.62 114.239 28.5535C115.222 28.5488 116.291 28.5535 117.053 28.6143C118.864 28.7548 119.438 29.8324 119.722 31.0019C119.975 32.0393 119.818 35.3996 119.832 36.8255C119.899 43.0734 124.019 46.0695 128.62 46.3017C129.235 46.3373 130.837 46.327 131.339 46.3017C136.425 46.0695 139.706 43.4292 140.186 38.3508C140.308 37.084 140.281 31.4653 140.258 30.7397C140.22 29.6527 139.463 28.7791 138.094 28.6143C137.697 28.5713 137.195 28.5731 136.794 28.6143C135.523 28.7314 134.734 29.6021 134.711 30.7397C134.697 31.9419 134.677 35.4876 134.63 36.495C134.58 37.509 134.529 38.5492 133.988 39.3975C133.553 40.0932 132.405 40.7355 131.557 40.7804C130.703 40.8263 129.938 40.8488 128.943 40.7804C127.946 40.7139 127.115 40.4415 126.355 39.5792C125.867 39.0342 125.517 37.4838 125.554 36.1158C125.592 34.7573 125.607 32.0795 125.607 30.8127C125.607 29.1284 125.337 27.3485 123.683 25.4347C122.111 23.6062 119.63 23.094 118.481 23.0491C118.249 23.0378 117.814 23.0004 117.399 22.977C116.981 22.947 116.059 22.3497 116.569 21.5117C117.042 20.729 124.119 6.72683 124.598 5.68661C125.05 4.69509 124.746 3.57061 123.556 2.81784C123.214 2.59688 122.747 2.38809 122.358 2.23828C121.143 1.78137 119.941 2.16338 119.41 3.18299C117.278 7.24553 101.003 38.9387 99.0425 43.034C98.549 44.0602 98.9347 45.2437 100.08 45.8944Z" fill="#E5005A"/>
<path d="M1.45358 34.8578C2.97062 38.2185 5.69139 41.5192 8.49883 44.2838C9.74926 45.5113 10.8025 46.1389 11.7815 45.8513C12.8176 45.5523 13.669 44.7124 14.1899 43.7134C14.7137 42.7106 14.1899 41.9002 13.0005 40.6136C11.513 39.0099 8.43026 36.0463 7.23796 33.6188C6.58371 32.2789 5.93804 30.0486 5.93804 28.1496C5.93804 21.5301 5.97614 8.08809 5.90947 4.19978C5.88947 3.04462 5.03524 2.13991 3.74771 2.04182C3.3944 2.01992 2.65635 2.01421 2.23352 2.04182C0.94218 2.13991 0.106044 3.07033 0.074618 4.19978C-0.0148971 8.00334 -0.0177541 21.5767 0.0336711 27.4811C0.0479559 28.8629 0.359361 32.4265 1.45358 34.8578Z" fill="#E5005A"/>
<path d="M29.5852 39.5672C29.2586 40.0634 28.491 40.8043 27.1568 40.8043C25.8226 40.8043 25.1217 40.531 24.4941 39.7567C23.8513 38.9749 23.7332 36.2369 24.1608 34.8085C24.5865 33.3848 25.8398 32.9905 26.8235 32.8334C27.2778 32.7591 28.2015 32.7353 28.991 32.9057C29.6595 33.0457 29.99 33.3343 30.1052 34.3342C30.2928 35.8665 30.349 38.4282 29.5852 39.5672ZM41.4673 27.1775C40.7635 27.1661 39.2732 27.1575 37.4904 27.1547C36.4372 27.1442 35.901 26.7138 35.8724 25.0767C35.8896 24.1358 35.8953 23.0778 35.9039 21.9522C35.9324 20.4094 36.4305 19.9742 37.4266 19.9437C37.8752 19.9304 38.278 19.9266 38.6161 19.9123C39.7188 19.8761 40.6102 19.119 40.775 17.7534C40.8216 17.3572 40.8131 16.8573 40.775 16.4563C40.6502 15.1898 39.7731 14.3127 38.6161 14.2974C38.2285 14.286 37.8552 14.286 37.4723 14.2784C36.4971 14.267 35.9848 13.8784 35.901 12.5071C35.8953 11.4691 35.8896 10.5186 35.8753 9.71583C35.9096 8.19593 36.4048 7.74358 37.36 7.69216C37.8809 7.68358 38.3123 7.67311 38.6161 7.66454C39.7188 7.62549 40.6102 6.87316 40.775 5.50278C40.8216 5.11042 40.8131 4.61236 40.775 4.20191C40.6502 2.9439 39.7731 2.06586 38.6161 2.04396C33.9678 1.96777 24.3027 1.96777 19.7011 2.04396C18.5431 2.06586 17.6403 2.91818 17.5479 4.20191C17.5193 4.56188 17.5127 5.07995 17.5479 5.50278C17.6403 6.79507 18.5669 7.63502 19.7011 7.66454C21.7448 7.7112 25.1712 7.73406 28.5786 7.74072C29.5252 7.7912 30.1385 8.29688 30.1966 9.7644C30.188 10.4558 30.1795 11.1995 30.1795 11.9833L30.168 11.9852C30.168 13.7118 29.5167 14.2355 28.4339 14.2489C27.3454 14.2651 26.2483 14.2765 25.1312 14.2984C23.9732 14.3146 23.0676 15.1698 22.9695 16.4573C22.9466 16.8116 22.9438 17.3344 22.9695 17.7544C23.0676 19.0552 23.997 19.8828 25.1312 19.9133C25.7502 19.9304 27.4177 19.9656 28.6596 20.0352C29.8633 20.0932 30.1185 21.016 30.1738 22.0569C30.229 23.1045 30.1852 24.1044 30.1938 25.0034C30.1766 26.6823 29.4529 27.1375 28.4339 27.2071C28.1215 27.2299 27.3397 27.229 26.9921 27.2433C22.1095 27.4318 18.225 30.6687 18.225 36.7836C18.225 42.8984 22.1524 46.422 26.9921 46.422C31.8022 46.422 35.1163 43.426 35.8172 38.3349C35.9096 37.6445 35.9334 36.2712 35.9334 34.7847C35.9648 33.1438 36.4286 32.8772 37.4352 32.8524C39.2589 32.8391 40.7378 32.8229 41.4673 32.7943C42.5701 32.7581 43.4643 32.001 43.6291 30.6354C43.6786 30.2421 43.6691 29.744 43.6291 29.3355C43.51 28.0775 42.6272 27.1975 41.4673 27.1794V27.1775Z" fill="#E5005A"/>
<path d="M55.7881 34.8585C57.3051 38.2192 60.0231 41.52 62.8333 44.2845C64.0837 45.5121 65.1341 46.1397 66.116 45.8521C67.1493 45.553 68.0006 44.7131 68.5244 43.7141C69.0482 42.7113 68.5244 41.9009 67.335 40.6143C65.8474 39.0106 62.7619 36.047 61.5753 33.6195C60.9211 32.2796 60.2726 30.0493 60.2726 28.1504C60.2726 21.5308 60.3107 8.08883 60.2411 4.20051C60.224 3.04535 59.3698 2.14065 58.0851 2.04256C57.7261 2.02065 56.988 2.01494 56.568 2.04256C55.2738 2.14065 54.4349 3.07106 54.4091 4.20051C54.3196 8.00407 54.3139 21.5775 54.3691 27.4818C54.3834 28.8636 54.6958 32.4272 55.79 34.8585" fill="#E5005A"/>
<path d="M95.3696 5.72795C94.603 5.71748 92.9555 5.70605 91.8183 5.69653C91.0393 5.61558 90.6022 5.2118 90.5127 4.04806C90.507 3.42334 90.4955 2.88909 90.487 2.49388C90.4612 1.35776 89.6213 0.429254 88.3281 0.334974C87.9081 0.301643 87.1672 0.3045 86.811 0.334974C85.5254 0.429254 84.6721 1.33396 84.6521 2.49388C84.6464 2.84148 84.6407 3.2824 84.6407 3.80522C84.5454 5.14132 83.9722 5.61558 83.0627 5.66796C78.9582 5.66796 74.9499 5.687 72.7643 5.7289C71.6092 5.7489 70.6978 6.60027 70.6054 7.88971C70.5768 8.24302 70.5768 8.76585 70.6054 9.18773C70.6978 10.48 71.6273 11.3152 72.7643 11.3466C74.8251 11.3971 78.9001 11.4161 83.016 11.4161C83.9969 11.4838 84.634 12.3856 84.614 13.6693C84.594 14.9502 84.6226 25.1543 84.6226 28.6493C84.6226 30.5492 83.9769 32.7757 83.3198 34.1185C82.1332 36.5421 79.0477 39.5076 77.563 41.1132C76.3707 42.3998 75.8498 43.2093 76.3707 44.2102C76.8974 45.2063 77.7488 46.0491 78.7763 46.3481C79.76 46.6367 80.8143 46.0082 82.0618 44.7806C84.8692 42.0208 87.59 38.7134 89.1071 35.3574C90.2013 32.9281 90.5136 29.3616 90.5251 27.9808C90.5565 24.8591 90.5593 14.7616 90.5593 13.5474C90.5593 12.3332 90.9993 11.4704 91.9021 11.3895C93.2021 11.3733 94.8572 11.3609 95.3696 11.3466C96.4695 11.3057 97.3609 10.5505 97.5285 9.18773C97.578 8.78966 97.5685 8.29064 97.5285 7.88971C97.4095 6.62789 96.5295 5.74795 95.3696 5.72795Z" fill="#E5005A"/>
<path d="M186.719 2.42846C182.082 2.34514 154.208 2.34514 149.624 2.42846C148.467 2.4474 147.567 3.29581 147.473 4.57789C147.447 4.92351 147.441 4.92918 147.473 5.34865C147.567 6.63642 148.494 7.46968 149.624 7.49809C150.772 7.52365 155.773 7.54827 156.806 7.55679C157.833 7.55868 157.608 8.84361 157.152 9.39848C156.694 9.95809 153.821 13.364 152.806 15.6167C151.713 18.0312 151.427 21.5707 151.39 22.9465C151.332 24.9984 151.223 31.0102 151.349 37.3287C151.474 43.653 155.506 46.6745 160.083 46.915C163.625 47.0978 176.598 46.9311 177.265 46.915C182.321 46.7824 185.47 43.9929 186.062 38.8636C186.35 36.3108 186.258 26.1394 186.125 23.044C185.9 18.0019 183.206 14.7503 178.058 14.2712C176.777 14.1528 168.265 14.1765 167.53 14.2039C166.436 14.2399 165.545 14.9908 165.381 16.3505C165.332 16.7435 165.34 17.2415 165.381 17.6402C165.5 18.8938 166.374 19.7688 167.53 19.7858C168.75 19.8085 175.329 19.7356 176.353 19.7858C177.374 19.836 178.42 19.8994 179.289 20.4202C179.799 20.7223 180.523 21.5054 180.523 22.8367C180.523 22.8367 180.523 23.5232 180.526 24.6007C180.523 26.3146 179.874 26.8401 178.795 26.8486V26.8505C173.831 26.8231 165.83 26.842 162.496 26.8969C161.342 26.9187 160.437 27.7633 160.345 29.0435C160.316 29.3957 160.316 29.9156 160.345 30.3313C160.437 31.6219 161.363 32.4542 162.496 32.4807C165.643 32.5574 174.03 32.5659 178.775 32.5441C179.851 32.5555 180.512 33.0782 180.515 34.7873H180.543C180.543 36.095 180.54 37.0115 180.529 37.1678C180.483 38.1904 180.42 39.2329 179.9 40.1003C179.591 40.6097 178.812 41.299 177.483 41.3293C173.687 41.4259 164.281 41.3795 160.399 41.3293C159.441 41.3208 158.371 41.0576 157.746 40.2906C157.276 39.7196 156.975 38.8239 156.904 37.2615C156.834 35.6992 156.912 28.9763 156.912 28.9763C156.912 26.4538 156.909 24.1102 156.909 22.2818C156.909 20.3966 157.596 18.1799 158.245 16.8457C159.185 14.9444 162.758 11.083 165.181 8.60026C165.727 8.13818 166.738 7.64012 168.091 7.57005C176.295 7.57005 185.403 7.5407 186.718 7.49903C187.812 7.46494 188.697 6.70743 188.864 5.3496C188.913 4.95664 188.902 4.97843 188.864 4.57884C188.743 3.31948 187.869 2.4474 186.718 2.42941" fill="#E5005A"/>
<path d="M238.234 41.2028C237.268 41.1618 228.251 41.1523 225.928 41.1199C224.967 41.1142 224.064 40.7152 223.433 39.9476C222.964 39.3705 222.492 38.6049 222.419 37.0288C222.347 35.4584 222.448 24.9762 222.373 21.3841C222.347 20.2232 221.498 19.3214 220.214 19.2223C219.86 19.2023 219.38 19.1947 218.955 19.2223C217.663 19.3223 216.842 20.248 216.799 21.3841C216.701 23.9953 216.657 32.2891 216.755 37.0992C216.885 43.4541 220.929 46.5005 225.525 46.7434C227.513 46.8462 237.044 46.8767 238.234 46.8234C239.334 46.7681 240.229 46.0272 240.393 44.6616C240.44 44.2635 240.428 43.7683 240.393 43.3607C240.271 42.1008 239.394 41.2552 238.234 41.2028Z" fill="#E5005A"/>
<path d="M231.711 4.32022C231.697 3.5898 231.691 2.86603 231.68 2.12323C231.662 0.994729 230.828 0.111924 229.572 0.017644C229.227 -0.00140233 228.721 -0.0099732 228.307 0.017644C227.046 0.111924 226.232 1.01949 226.203 2.12323C226.183 2.87175 226.171 3.66408 226.156 4.48116C226.104 5.2354 225.763 5.96868 224.104 5.9963C223.792 6.00201 222.914 6.00297 222.31 6.01535C221.184 6.03725 220.301 6.86767 220.205 8.12283C220.179 8.46852 220.174 8.67232 220.205 9.08372C220.3 10.3484 221.204 11.1664 222.31 11.1941C222.998 11.2112 223.731 11.2198 224.48 11.2331C225.843 11.3274 226.089 11.9578 226.15 12.6254C226.165 13.612 226.179 14.7672 226.203 15.3852C226.24 16.4537 226.975 17.327 228.307 17.4879C228.695 17.5403 229.182 17.5298 229.572 17.4879C230.808 17.3737 231.661 16.5137 231.68 15.3852C231.691 14.6424 231.697 13.6053 231.711 12.873C231.742 12.1407 231.861 11.3683 233.326 11.2417C234.22 11.2274 234.994 11.2112 235.569 11.1941C236.643 11.1598 237.511 10.4189 237.673 9.08372C237.726 8.7047 237.712 8.51614 237.673 8.12283C237.557 6.88862 236.701 6.03725 235.569 6.01535C234.958 6.00392 234.232 5.98773 233.775 5.97535C231.917 5.93916 231.742 5.12493 231.711 4.32022Z" fill="#E5005A"/>
<path d="M209.111 4.32022C209.108 3.5898 209.1 2.86603 209.086 2.12323C209.066 0.994729 208.234 0.111924 206.978 0.017644C206.633 -0.00140233 206.124 -0.0099732 205.711 0.017644C204.452 0.111924 203.635 1.01949 203.609 2.12323C203.589 2.87175 203.58 3.66408 203.562 4.48116C203.507 5.2354 203.166 5.96868 201.51 5.9963C201.197 6.00201 200.32 6.00297 199.713 6.01535C198.587 6.03725 197.704 6.86767 197.612 8.12283C197.582 8.46852 197.582 8.67232 197.612 9.08372C197.704 10.3484 198.607 11.1664 199.713 11.1941C200.404 11.2112 201.139 11.2198 201.89 11.2331C203.247 11.3274 203.499 11.9578 203.557 12.6254C203.572 13.612 203.586 14.7672 203.61 15.3852C203.648 16.4537 204.383 17.327 205.711 17.4879C206.099 17.5403 206.589 17.5298 206.979 17.4879C208.215 17.3737 209.066 16.5137 209.086 15.3852C209.101 14.6424 209.109 13.6053 209.112 12.873C209.147 12.1407 209.271 11.3683 210.733 11.2417C211.624 11.2274 212.398 11.2112 212.979 11.1941C214.05 11.1598 214.918 10.4189 215.08 9.08372C215.13 8.7047 215.118 8.51614 215.08 8.12283C214.964 6.88862 214.105 6.03725 212.979 6.01535C212.368 6.00392 211.642 5.98773 211.182 5.97535C209.324 5.93916 209.155 5.12589 209.112 4.32118" fill="#E5005A"/>
<path d="M211.522 20.0177C210.62 19.0854 209.369 19.0397 208.484 19.7511C204.869 22.6385 198.732 27.8915 196.796 29.6323C195.971 30.3675 195.777 31.5227 196.529 32.6769C196.743 33.0036 197.076 33.3845 197.362 33.6683C198.265 34.5597 199.501 34.6673 200.401 33.9349C201.05 33.4092 202.072 32.5322 202.439 32.2617C202.815 31.9912 203.455 32.2808 203.47 33.075C203.484 33.8626 203.481 42.9753 203.539 44.6876C203.577 45.7875 204.332 46.6769 205.692 46.8465C206.091 46.8931 206.592 46.8846 206.995 46.8465C208.26 46.7246 209.137 45.8418 209.157 44.6876C209.232 40.3936 209.18 28.5105 209.174 27.9029C209.163 27.2954 209.536 26.2659 209.871 25.9669C210.207 25.6774 211.391 24.6555 212.088 24.048C212.965 23.2928 213.113 22.0576 212.358 21.0101C212.152 20.7196 211.818 20.3196 211.522 20.0177Z" fill="#E5005A"/>
<path d="M239.384 20.1019C238.478 19.1753 237.228 19.1277 236.342 19.8353C232.727 22.7256 227.225 27.3481 225.289 29.087C224.467 29.8194 224.27 30.9726 225.023 32.1287C225.237 32.4602 225.567 32.8363 225.856 33.1258C226.756 34.0134 227.995 34.1172 228.898 33.3906C232.51 30.4612 236.479 27.1557 239.952 24.1369C240.823 23.3798 240.973 22.1418 240.218 21.0952C240.01 20.8085 239.68 20.4048 239.385 20.101" fill="#E5005A"/>
<path d="M274.302 10.1703C274.44 6.46543 271.5 3.64136 268.04 3.64136C264.581 3.64136 261.713 6.41839 261.786 10.1703C261.786 13.7304 264.583 20.5655 268.04 20.5655C271.497 20.5655 274.165 13.6806 274.302 10.1703Z" fill="#FDD000"/>
<path d="M263.487 23.3769C264.555 20.0917 258.831 15.4212 255.531 14.2139C252.052 12.9347 248.459 14.8604 247.391 18.1549C246.323 21.4419 248.073 25.0241 251.666 26.1189C255.05 27.2173 262.416 26.6658 263.487 23.3769Z" fill="#FDD000"/>
<path d="M264.751 28.5792C261.954 26.5483 255.751 30.5483 253.581 33.3106C251.288 36.226 252.008 40.2389 254.805 42.2698C257.597 44.3062 261.553 43.7501 263.706 40.6724C265.791 37.7911 267.549 30.6157 264.751 28.5792Z" fill="#FDD000"/>
<path d="M270.091 28.984C267.294 31.0131 269.18 38.1517 271.14 41.0726C273.197 44.1549 277.243 44.7046 280.04 42.6746C282.832 40.6437 283.527 36.711 281.265 33.7145C279.171 30.836 272.886 26.9504 270.091 28.984Z" fill="#FDD000"/>
<path d="M288.22 18.803C287.154 15.515 283.623 13.6436 280.08 14.8657C276.69 15.965 271.056 20.7435 272.124 24.0296C273.189 27.3176 280.565 27.7271 283.942 26.7734C287.513 25.7617 289.285 22.0882 288.22 18.803Z" fill="#FDD000"/>
</svg>
