<svg width="180" height="65" viewBox="0 0 180 65" fill="none" xmlns="http://www.w3.org/2000/svg">
<path d="M3.27255 3.79401L1.89304 3.86744C1.74619 3.87745 1.12875 3.9086 1.12875 3.21885C1.12875 2.5914 1.65274 2.57026 1.84075 2.56025L3.31482 2.49795C3.33596 2.06852 3.36711 1.32648 3.39826 1.20077C3.47057 0.887046 3.76427 0.782471 4.05686 0.782471C4.66429 0.782471 4.74661 1.12735 4.74661 1.4522C4.74661 1.71364 4.65316 3.02083 4.64204 3.31341C5.91696 2.29881 6.83923 2.27879 7.28756 2.27879C8.96077 2.27879 10.3725 3.3034 10.3725 5.55177C10.3725 8.37529 8.82393 9.14848 7.83158 9.46221C7.29869 9.62908 6.57668 9.74478 6.03266 9.74478C5.77234 9.74478 5.20719 9.74478 5.20719 9.08618C5.20719 8.48988 5.64663 8.45873 6.45096 8.40644C7.34096 8.34303 8.9819 7.91472 8.9819 5.76092C8.9819 5.14348 8.82393 3.5437 7.09955 3.5437C6.2941 3.5437 5.53092 3.87856 4.57862 4.75633C4.55749 5.56178 4.54859 6.3561 4.54859 7.15043C4.54859 7.48529 4.56972 8.95936 4.56972 9.26196C4.56972 9.6391 4.56972 10.1508 3.9 10.1508C3.19912 10.1508 3.19912 9.73255 3.19912 9.07395C3.19912 8.36306 3.21025 7.10816 3.22026 6.45957C2.81308 7.07589 2.51938 7.52534 2.31135 7.81904C2.09218 8.11163 1.95645 8.21621 1.72617 8.21621C1.38018 8.21621 0.994141 7.93363 0.994141 7.53647C0.994141 7.27503 1.07758 7.18158 1.47585 6.73102C2.14558 5.97785 2.76191 5.18353 3.26365 4.31578L3.27366 3.7929L3.27255 3.79401Z" fill="#E5005A"/>
<path d="M15.6155 1.14834C15.6367 1.08604 15.7735 0.793457 16.2118 0.793457C16.3898 0.793457 16.965 0.824607 16.965 1.35861C16.965 1.57777 16.7659 2.38322 16.6936 2.6658C17.6236 2.65467 18.1465 2.65467 18.6482 3.01067C18.8474 3.1464 19.6217 3.76384 19.6217 5.66621C19.6217 8.54203 19.0977 10.0472 17.3099 10.0472C16.7458 10.0472 16.1807 9.92153 15.6789 9.67122C15.4598 9.56664 15.2495 9.41979 15.2495 9.07492C15.2495 8.82349 15.4075 8.39518 15.8036 8.39518C15.9615 8.39518 16.0027 8.40519 16.4421 8.58319C16.6613 8.67664 16.965 8.73004 17.1953 8.73004C17.7182 8.73004 17.9062 8.49976 18.063 7.83003C18.1876 7.28602 18.2722 6.49169 18.2722 5.55051C18.2722 4.42133 18.0942 3.90846 16.9227 3.90846C16.7347 3.90846 16.6101 3.90846 16.3687 3.9296C15.9092 5.61281 15.3752 7.1603 14.8312 8.46861C14.3406 9.66009 14.1526 9.92153 13.7343 9.92153C13.3471 9.92153 12.9389 9.60781 12.9389 9.26293C12.9389 9.02263 13.0223 8.88691 13.2415 8.49976C13.6186 7.83003 14.1303 6.58625 14.3918 5.83309C14.5909 5.27906 14.8412 4.37015 14.9458 4.03529C14.7266 4.05643 13.7643 4.17101 13.5663 4.17101C13.3471 4.17101 13.148 4.1076 13.0434 3.94073C12.9377 3.78386 12.9277 3.59585 12.9277 3.51241C12.9277 2.95839 13.2826 2.89497 13.4395 2.86382C13.6698 2.82155 13.8889 2.81154 15.2707 2.72699C15.3229 2.48669 15.5532 1.31522 15.6155 1.14834ZM19.8297 1.5978C20.5417 1.5978 21.2837 2.66469 21.3249 2.737C22.2349 4.02305 22.2872 5.79081 22.2872 6.24027C22.2872 6.41827 22.2872 6.9823 21.5229 6.9823C20.9589 6.9823 20.8966 6.60628 20.8754 6.30257C20.802 5.40255 20.7597 4.79624 20.426 3.9385C20.2168 3.39449 20.0711 3.24875 19.4637 2.65245C19.3391 2.53786 19.2034 2.40102 19.2034 2.17185C19.2034 1.93155 19.3702 1.77469 19.4437 1.7224C19.6005 1.60781 19.7463 1.59668 19.8308 1.59668L19.8297 1.5978Z" fill="#E5005A"/>
<path d="M30.6029 3.97216C32.789 3.97216 33.7502 5.32051 33.7502 6.84797C33.7502 7.67345 33.4376 9.03293 31.8367 9.70265C31.1047 10.0053 30.3104 10.0998 29.526 10.0998C28.2823 10.0998 27.686 9.84839 27.2777 9.59808C26.8171 9.31661 26.5457 8.82489 26.5457 8.30201C26.5457 7.03598 27.6849 6.51422 28.7618 6.51422C29.2535 6.51422 30.8321 6.59766 30.8321 8.28087C30.8321 8.49002 30.811 8.5946 30.7487 8.7726C31.9825 8.51116 32.3062 7.62227 32.3062 6.96367C32.3062 6.43078 32.097 5.86563 31.6476 5.55191C31.1659 5.21704 30.5284 5.15475 30.0478 5.15475C28.5526 5.15475 27.4334 5.83448 26.5345 6.64995C25.8648 7.25626 25.8236 7.28741 25.5934 7.28741C25.2062 7.28741 24.8613 6.96367 24.8613 6.56651C24.8613 6.27392 24.9348 6.21162 25.7613 5.58306C27.0263 4.64188 29.2746 2.95867 29.9443 2.32009C29.6929 2.34123 26.9539 2.49809 26.5356 2.49809C26.3265 2.49809 25.8248 2.48697 25.8248 1.82837C25.8248 1.20091 26.3154 1.17977 26.5668 1.16976C27.142 1.15975 29.7029 1.11747 30.2269 1.09634C30.3426 1.08632 30.969 1.06519 31.335 1.06519C31.711 1.06519 32.2239 1.13861 32.2239 1.73492C32.2239 2.21663 32.1082 2.29005 30.9278 3.05323C30.0801 3.59724 29.6518 3.96326 29.3592 4.20356C29.6417 4.09898 29.9443 3.97216 30.6029 3.97216ZM29.7352 8.44775C29.7352 7.66344 29.0877 7.59001 28.7417 7.59001C28.1977 7.59001 27.7694 7.86257 27.7694 8.26975C27.7694 8.75035 28.4391 8.98064 29.16 8.98064C29.3269 8.98064 29.4426 8.97062 29.6306 8.93836C29.694 8.76036 29.7352 8.64689 29.7352 8.44775Z" fill="#E5005A"/>
<path d="M40.5408 8.8025C40.5408 9.2831 40.1437 9.68026 39.6631 9.68026C39.1825 9.68026 38.7842 9.2831 38.7842 8.8025C38.7842 8.31077 39.1813 7.92362 39.6631 7.92362C40.1448 7.92362 40.5408 8.31077 40.5408 8.8025ZM40.1225 6.58528C40.0914 6.87898 39.9979 7.10816 39.6731 7.10816C39.3482 7.10816 39.2336 6.94128 39.2025 6.59641L38.9088 3.69945V1.49336C38.9088 1.12735 39.0668 0.782471 39.6519 0.782471C40.1848 0.782471 40.4151 1.04391 40.4151 1.49336V3.69945L40.1225 6.58528Z" fill="#E5005A"/>
<path d="M53.5332 3.30243C53.5332 2.91527 53.6689 2.58152 54.2452 2.58152C54.8926 2.58152 55.0083 2.94754 55.0083 3.57499C55.0083 4.03556 54.9038 5.24819 54.8837 5.42619C55.8561 5.84449 56.2009 6.05364 56.2009 6.47194C56.2009 6.80681 55.9295 7.23512 55.5635 7.23512C55.3643 7.23512 55.3032 7.20397 54.6434 6.85909C54.0483 9.05517 52.5631 10.1009 51.7788 10.1009C51.4239 10.1009 51.1001 9.75605 51.1001 9.40116C51.1001 9.0663 51.2359 8.98286 52.1247 8.45998C53.1182 7.87481 53.3162 6.65105 53.3796 6.29617C52.9402 6.12929 51.8733 5.77329 51.1413 5.65759C50.9221 6.5042 50.6284 7.32078 50.2735 8.11511C49.8864 9.00399 49.4058 9.50573 48.6738 9.50573C47.8372 9.50573 46.7402 8.78483 46.7402 7.30966C46.7402 6.34734 47.2308 5.13472 48.7583 4.62185C49.3646 4.4127 49.9075 4.39156 50.1589 4.37043C50.1901 4.20355 50.4104 3.41924 50.4315 3.31355C50.4616 3.17783 50.5461 2.74951 50.5461 2.63381C50.5461 2.4458 50.4415 2.36236 50.15 2.36236C50.0866 2.36236 48.5391 2.45581 48.2265 2.45581C48.0063 2.45581 47.5045 2.45581 47.5045 1.79721C47.5045 1.12748 47.9762 1.12748 48.3834 1.12748C49.0631 1.12748 50.1512 1.0752 50.8298 1.0752C51.0601 1.0752 51.969 1.0752 51.969 1.95407C51.969 2.3301 51.8333 2.94754 51.8021 3.09328C51.761 3.30243 51.4995 4.2436 51.4572 4.43161C51.7287 4.47389 52.3461 4.58848 53.5176 4.93335C53.5387 4.38934 53.5387 4.28476 53.5387 3.30243H53.5332ZM49.0998 5.72879C48.2944 6.02138 47.9184 6.6288 47.9184 7.31856C47.9184 8.01943 48.3667 8.19743 48.5447 8.19743C48.8162 8.19743 49.0264 7.90484 49.2868 7.25626C49.5382 6.64994 49.6839 6.19048 49.8408 5.57304C49.4125 5.63645 49.2867 5.65648 49.0987 5.7299L49.0998 5.72879Z" fill="#E5005A"/>
<path d="M60.9956 8.1339C61.1002 8.1339 61.4773 8.17507 61.6019 8.18619C61.9268 8.21734 62.2505 8.22847 62.4808 8.22847C63.3063 8.22847 66.5904 8.22847 66.5904 5.39493C66.5904 4.45375 66.2967 3.93087 65.8784 3.586C65.5435 3.31344 65.0207 3.02085 64.0383 3.02085C62.5531 3.02085 61.2459 3.46029 59.803 3.94089C59.6673 3.98316 59.5004 4.03545 59.3536 4.03545C58.7884 4.03545 58.6738 3.51257 58.6738 3.24001C58.6738 2.66485 58.9987 2.58141 60.0233 2.29883C61.4862 1.89055 63.0871 1.6814 64.164 1.6814C67.0187 1.6814 68.0856 3.39687 68.0856 5.34153C68.0856 5.87441 68.0544 7.6622 66.2655 8.78138C65.0318 9.54456 63.0348 9.60797 62.2405 9.60797C61.9991 9.60797 61.1425 9.59684 60.7553 9.49227C60.337 9.37657 60.2847 9.01056 60.2847 8.84368C60.2847 8.56222 60.337 8.13279 60.9956 8.13279V8.1339Z" fill="#E5005A"/>
<path d="M73.2963 1.14834C73.3186 1.08604 73.4543 0.793457 73.8926 0.793457C74.0695 0.793457 74.6458 0.824607 74.6458 1.35861C74.6458 1.57777 74.4467 2.38322 74.3744 2.6658C75.3044 2.65467 75.8284 2.65467 76.3301 3.01067C76.5282 3.1464 77.3025 3.76384 77.3025 5.66621C77.3025 8.54203 76.7785 10.0472 74.9918 10.0472C74.4266 10.0472 73.8615 9.92153 73.3597 9.67122C73.1406 9.56664 72.9303 9.41979 72.9303 9.07492C72.9303 8.82349 73.0883 8.39518 73.4855 8.39518C73.6423 8.39518 73.6835 8.40519 74.1229 8.58319C74.3421 8.67664 74.6458 8.73004 74.8761 8.73004C75.399 8.73004 75.587 8.49976 75.7427 7.83003C75.8684 7.28602 75.9519 6.49169 75.9519 5.55051C75.9519 4.42133 75.7739 3.90846 74.6024 3.90846C74.4144 3.90846 74.2898 3.90846 74.0484 3.9296C73.5889 5.61281 73.0549 7.1603 72.5109 8.46861C72.0203 9.66009 71.8323 9.92153 71.414 9.92153C71.0268 9.92153 70.6185 9.60781 70.6185 9.26293C70.6185 9.02263 70.702 8.88691 70.9211 8.49976C71.2983 7.83003 71.8112 6.58625 72.0715 5.83309C72.2706 5.27906 72.5209 4.37015 72.6255 4.03529C72.4063 4.05643 71.444 4.17101 71.246 4.17101C71.0268 4.17101 70.8277 4.1076 70.722 3.94073C70.6174 3.78386 70.6074 3.59585 70.6074 3.51241C70.6074 2.95839 70.9623 2.89497 71.1192 2.86382C71.3495 2.82155 71.5686 2.81154 72.9503 2.72699C73.0026 2.48669 73.2329 1.31522 73.2963 1.14834ZM77.5116 1.5978C78.2236 1.5978 78.9656 2.66469 79.0079 2.737C79.9168 4.02305 79.9691 5.79081 79.9691 6.24027C79.9691 6.41827 79.9691 6.9823 79.2048 6.9823C78.6408 6.9823 78.5785 6.60628 78.5574 6.30257C78.4839 5.40255 78.4417 4.79624 78.1079 3.9385C77.8988 3.39449 77.7519 3.24875 77.1456 2.65245C77.021 2.53786 76.8853 2.40102 76.8853 2.17185C76.8853 1.93155 77.0521 1.77469 77.1256 1.7224C77.2824 1.60781 77.4282 1.59668 77.5127 1.59668L77.5116 1.5978Z" fill="#E5005A"/>
<path d="M88.2826 3.97216C90.4687 3.97216 91.4299 5.32051 91.4299 6.84797C91.4299 7.67345 91.1173 9.03293 89.5164 9.70265C88.7844 10.0053 87.99 10.0998 87.2057 10.0998C85.962 10.0998 85.3657 9.84839 84.9574 9.59808C84.4968 9.31661 84.2253 8.82489 84.2253 8.30201C84.2253 7.03598 85.3645 6.51422 86.4414 6.51422C86.9332 6.51422 88.5118 6.59766 88.5118 8.28087C88.5118 8.49002 88.4907 8.5946 88.4284 8.7726C89.6621 8.51116 89.9859 7.62227 89.9859 6.96367C89.9859 6.43078 89.7767 5.86563 89.3273 5.55191C88.8456 5.21704 88.2081 5.15475 87.7275 5.15475C86.2323 5.15475 85.1131 5.83448 84.2142 6.64995C83.5445 7.25626 83.5033 7.28741 83.273 7.28741C82.8859 7.28741 82.541 6.96367 82.541 6.56651C82.541 6.27392 82.6144 6.21162 83.441 5.58306C84.7059 4.64188 86.9543 2.95867 87.624 2.32009C87.3726 2.34123 84.6336 2.49809 84.2153 2.49809C84.0062 2.49809 83.5044 2.48697 83.5044 1.82837C83.5044 1.20091 83.9951 1.17977 84.2465 1.16976C84.8216 1.15975 87.3826 1.11747 87.9066 1.09634C88.0223 1.08632 88.6486 1.06519 89.0147 1.06519C89.3907 1.06519 89.9036 1.13861 89.9036 1.73492C89.9036 2.21663 89.7879 2.29005 88.6075 3.05323C87.7598 3.59724 87.3314 3.96326 87.0389 4.20356C87.3214 4.09898 87.624 3.97216 88.2826 3.97216ZM87.4149 8.44775C87.4149 7.66344 86.7674 7.59001 86.4214 7.59001C85.8774 7.59001 85.4491 7.86257 85.4491 8.26975C85.4491 8.75035 86.1188 8.98064 86.8397 8.98064C87.0066 8.98064 87.1223 8.97062 87.3103 8.93836C87.3737 8.76036 87.4149 8.64689 87.4149 8.44775Z" fill="#E5005A"/>
<path d="M98.2205 8.8025C98.2205 9.2831 97.8233 9.68026 97.3416 9.68026C96.8599 9.68026 96.4639 9.2831 96.4639 8.8025C96.4639 8.31077 96.861 7.92362 97.3416 7.92362C97.8222 7.92362 98.2205 8.31077 98.2205 8.8025ZM97.8022 6.58528C97.7711 6.87898 97.6765 7.10816 97.3528 7.10816C97.029 7.10816 96.9133 6.94128 96.8822 6.59641L96.5896 3.69945V1.49336C96.5896 1.12735 96.7464 0.782471 97.3316 0.782471C97.8645 0.782471 98.0959 1.04391 98.0959 1.49336V3.69945L97.8022 6.58528Z" fill="#E5005A"/>
<path d="M107.057 1.05386C107.088 0.949287 107.214 0.698975 107.663 0.698975C108.124 0.698975 108.407 0.86585 108.384 1.34756C108.374 1.51444 108.363 1.76587 108.363 1.88046C108.917 1.87044 110.068 1.84931 110.884 1.80703C111.031 1.79702 112.369 1.72359 112.61 1.72359C112.787 1.72359 113.311 1.72359 113.311 2.37218C113.311 2.64363 113.206 2.92621 112.819 2.98851C112.192 3.08307 108.866 3.14537 108.301 3.15538C108.301 3.30223 108.291 3.36453 108.28 3.90855C108.74 3.83623 109.2 3.79396 109.66 3.79396C112.306 3.79396 113.592 5.18458 113.592 6.97237C113.592 7.96584 113.215 9.01159 112.012 9.60789C111.03 10.0885 109.901 10.0885 109.868 10.0885C109.68 10.0885 109.126 10.0885 109.126 9.4399C109.126 8.87475 109.481 8.8436 109.837 8.82246C110.789 8.74904 112.201 8.51986 112.201 6.90896C112.201 5.68521 111.365 5.27803 110.643 5.0789C110.361 5.77977 109.67 7.18152 108.77 8.185C108.886 8.39415 108.948 8.53989 108.948 8.71789C108.948 9.04163 108.635 9.37649 108.238 9.37649C107.965 9.37649 107.84 9.21963 107.777 9.13619C107.318 9.51221 106.752 9.78478 106.146 9.78478C105.131 9.78478 104.419 8.91703 104.419 7.71441C104.419 5.9155 105.832 4.78631 106.929 4.31572C106.94 3.9397 106.94 3.42683 106.951 3.17652C106.69 3.18653 105.299 3.18653 105.184 3.17652C104.985 3.15538 104.651 3.06082 104.651 2.53906C104.651 1.90048 105.121 1.90048 105.654 1.90048H106.993C107.015 1.22074 107.016 1.17958 107.057 1.05386ZM106.921 5.62402C106.639 5.81203 106.461 5.93775 106.221 6.22032C105.75 6.78436 105.667 7.38066 105.667 7.68437C105.667 8.49984 106.168 8.57326 106.325 8.57326C106.671 8.57326 107.078 8.21837 107.276 8.04037C107.036 7.25606 106.953 6.49177 106.921 5.62402ZM109.379 4.90201C109.065 4.90201 108.783 4.91202 108.249 5.03885C108.228 5.63515 108.228 6.04232 108.332 6.8055C108.876 6.07347 109.16 5.44602 109.379 4.90201Z" fill="#E5005A"/>
<path d="M118.802 7.73563C118.635 8.02822 118.478 8.22736 118.112 8.22736C117.683 8.22736 117.37 7.92365 117.37 7.62105C117.37 7.36962 117.422 7.27617 118.133 6.04241C118.563 5.31038 118.886 4.37922 119.148 3.57377C118.845 3.58489 117.914 3.5949 117.735 3.55263C117.537 3.50034 117.348 3.31233 117.348 2.93519C117.348 2.39118 117.725 2.32888 117.861 2.30774C117.944 2.29773 119.325 2.26546 119.523 2.26546C119.565 2.09859 119.701 1.32429 119.753 1.16743C119.826 0.916002 120.035 0.770264 120.37 0.770264C120.517 0.770264 121.123 0.791401 121.123 1.32429C121.123 1.55458 121.051 1.8149 120.945 2.21318C121.04 2.21318 121.929 2.1709 121.949 2.1709C122.138 2.1709 122.619 2.18091 122.619 2.81949C122.619 3.4258 122.159 3.45807 121.918 3.46808C121.625 3.47809 121.081 3.49923 120.558 3.53149C120.213 4.62953 119.712 6.14587 118.802 7.73452V7.73563ZM123.026 4.44152C123.005 4.15894 123.078 3.77179 123.696 3.77179C124.092 3.77179 124.354 3.93867 124.374 4.3781L124.49 6.51077C125.075 6.79334 125.62 7.14823 126.1 7.57655C126.361 7.81685 126.477 8.01598 126.477 8.24627C126.477 8.58113 126.225 8.95716 125.797 8.95716C125.578 8.95716 125.473 8.84146 125.044 8.48657C124.637 8.15171 124.573 8.13168 124.406 7.98483C124.406 8.36086 124.396 8.68571 124.23 9.02057C123.717 10.0563 122.514 10.0663 122.159 10.0663C120.308 10.0663 119.607 9.05172 119.607 8.0794C119.607 7.20052 120.235 6.01904 122.337 6.01904C122.682 6.01904 122.921 6.05019 123.152 6.08134L123.027 4.43929L123.026 4.44152ZM122.232 7.14045C121.72 7.14045 120.82 7.27617 120.82 8.05047C120.82 8.90821 121.876 8.90821 122.064 8.90821C123.194 8.90821 123.214 8.18731 123.203 7.31845C123.005 7.23501 122.754 7.14045 122.232 7.14045ZM123.643 1.33653C124.039 1.33653 125.222 1.97399 126.1 2.66485C126.413 2.91628 126.56 3.13544 126.56 3.39688C126.56 3.79404 126.194 4.08774 125.871 4.08774C125.629 4.08774 125.483 3.96203 125.253 3.76289C124.605 3.19885 124.48 3.13544 123.33 2.50799C123.225 2.44569 122.964 2.29884 122.964 1.98511C122.964 1.83938 123.036 1.70365 123.068 1.65025C123.132 1.5568 123.318 1.33653 123.643 1.33653Z" fill="#E5005A"/>
<path d="M131.302 2.19438C131.333 2.19438 132.264 2.18325 132.357 2.18325C132.4 1.9741 132.514 1.27433 132.557 1.1375C132.681 0.792622 133.016 0.771484 133.153 0.771484C133.633 0.771484 133.884 0.96951 133.884 1.36779C133.884 1.58695 133.821 1.93183 133.779 2.1521C134.532 2.13096 135.525 2.11094 136.583 2.06866C136.718 2.05865 137.284 2.0275 137.397 2.0275C137.575 2.0275 138.077 2.03751 138.077 2.67609C138.077 3.2824 137.627 3.31355 137.376 3.32468C136.101 3.38809 134.794 3.42925 133.517 3.46151C133.256 4.653 133.193 4.95672 132.618 6.84908C132.399 7.59112 131.833 9.29547 131.603 9.70376C131.572 9.76606 131.426 10.0386 131.049 10.0386C130.819 10.0386 130.276 9.91291 130.276 9.41117C130.276 9.29547 130.286 9.18088 130.516 8.67915C130.768 8.13625 131.594 6.08591 132.126 3.48265C131.843 3.49266 130.913 3.50379 130.694 3.4515C130.527 3.40923 130.338 3.23123 130.338 2.84519C130.338 2.40575 130.527 2.16545 131.029 2.18659L131.3 2.19771L131.302 2.19438ZM138.987 9.84839C138.485 9.98522 137.524 9.98522 137.199 9.98522C134.72 9.98522 133.655 9.56692 133.655 8.26975C133.655 7.96715 133.77 7.05712 134.575 7.05712C134.826 7.05712 135.212 7.17171 135.212 7.51769C135.212 7.64341 135.17 7.73686 135.149 7.78915C135.065 7.98828 135.054 8.01943 135.054 8.12401C135.054 8.40658 135.263 8.54231 135.63 8.61573C135.902 8.67803 136.3 8.70918 136.727 8.70918C137.407 8.70918 137.878 8.6569 138.526 8.59348C138.651 8.58347 138.714 8.57235 138.809 8.57235C139.248 8.57235 139.435 8.81265 139.435 9.18978C139.435 9.52465 139.3 9.76495 138.987 9.84839ZM138.914 5.67651C138.779 5.76996 138.643 5.78108 138.475 5.78108C138.402 5.78108 137.993 5.74993 137.754 5.73881C137.607 5.72879 137.482 5.72879 137.252 5.72879C136.562 5.72879 136.028 5.77107 135.872 5.78108C135.056 5.85451 134.931 5.86452 134.836 5.86452C134.261 5.86452 134.261 5.3205 134.261 5.22705C134.261 4.9022 134.418 4.68304 134.867 4.58959C135.547 4.44274 136.707 4.40158 137.429 4.40158C139.134 4.40158 139.134 4.67414 139.134 5.18589C139.134 5.32162 139.07 5.5608 138.914 5.67651Z" fill="#E5005A"/>
<path d="M146.151 7.83036C145.639 8.65695 145.085 9.09528 144.311 9.09528C142.952 9.09528 142.209 7.70465 142.209 6.04257C142.209 2.85303 144.584 1.15869 147.218 1.15869C150.407 1.15869 151.684 3.23907 151.684 5.51858C151.684 6.04146 151.684 7.85039 149.78 9.10529C148.703 9.82619 147.417 9.92075 147.25 9.92075C146.56 9.92075 146.549 9.28329 146.549 9.19985C146.549 8.65584 146.936 8.59354 147.323 8.54125C148.159 8.41554 150.241 8.0918 150.241 5.42513C150.241 3.70966 149.309 2.57046 147.679 2.46588C147.333 5.18483 146.664 6.98375 146.151 7.83036ZM145.126 2.96762C143.924 3.70966 143.548 5.03798 143.548 6.0626C143.548 7.06607 143.955 7.63122 144.373 7.63122C144.813 7.63122 145.126 7.04605 145.409 6.29288C145.984 4.76542 146.162 3.63623 146.318 2.49703C146.078 2.55933 145.628 2.66391 145.126 2.96762Z" fill="#E5005A"/>
<path d="M172.255 3.86754C172.098 3.86754 171.805 3.86754 171.722 3.52155C171.22 3.86754 171.052 3.89758 170.938 3.89758C170.707 3.89758 170.426 3.70957 170.32 3.32242C170.258 3.47928 169.996 4.18015 169.996 4.26359C169.996 4.33702 170.017 4.37929 170.112 4.51502C170.635 5.26818 170.791 6.28167 170.791 6.87908C170.791 8.33201 169.924 8.33201 169.495 8.33201C168.909 8.33201 168.783 8.05055 168.783 7.62112C168.783 7.22396 168.919 7.08823 169.129 7.06709C169.338 7.05708 169.589 7.03594 169.589 6.49193C169.589 5.93791 169.411 5.34161 169.181 4.93443C168.951 4.50612 168.929 4.46384 168.929 4.33813C168.929 4.19128 168.993 4.0244 169.191 3.44924C169.274 3.20894 169.557 2.34008 169.557 2.18321C169.557 2.00521 169.358 2.00521 169.315 2.00521H169.023C168.876 2.00521 168.771 2.06751 168.771 2.24551V9.79495C168.771 10.2444 168.583 10.4324 168.144 10.4324C167.569 10.4324 167.569 9.95181 167.569 9.79495V1.95404C167.569 0.970588 167.799 0.782575 168.75 0.782575H169.545C170.298 0.782575 170.695 0.88715 170.695 1.6926C170.695 1.80719 170.695 2.13204 170.548 2.6538C170.6 2.61264 170.998 2.39236 171.238 2.26665C171.908 1.90064 172.419 1.35774 172.828 0.928313C173.016 0.729175 173.236 0.5 173.748 0.5C174.302 0.5 174.501 0.719163 174.679 0.908288C175.305 1.59804 175.64 1.94403 176.79 2.5915C176.948 2.68495 177.178 2.81067 177.178 3.14553C177.178 3.52155 176.906 3.87755 176.551 3.87755C176.415 3.87755 176.28 3.8464 175.725 3.46927C175.662 3.85642 175.37 3.86643 175.182 3.86643H174.334V4.4516H175.495C176.457 4.4516 176.667 4.66075 176.667 5.62307V6.36511C176.667 7.33743 176.458 7.53657 175.495 7.53657H174.711C175.265 8.48776 176.049 8.83375 176.739 9.12634C176.927 9.19976 177.158 9.30433 177.146 9.68036C177.146 10.0364 176.906 10.3812 176.54 10.3812C176.153 10.3812 174.668 9.75379 173.77 8.17515C172.996 9.66034 171.428 10.3924 170.956 10.3924C170.633 10.3924 170.339 10.0886 170.339 9.68036C170.339 9.27207 170.622 9.16861 170.811 9.09518C171.688 8.78146 172.317 8.45772 172.786 7.53768H172.012C171.04 7.53768 170.831 7.31852 170.831 6.36622V5.62418C170.831 4.66187 171.05 4.45272 172.012 4.45272H173.142V3.86754H172.255ZM173.144 5.50848H172.192C172.026 5.50848 171.941 5.59192 171.941 5.75991V6.23049C171.941 6.40849 172.046 6.48192 172.192 6.48192H173.102C173.144 6.15707 173.144 5.90676 173.144 5.69761V5.50848ZM174.838 2.80065C174.442 2.44576 174.179 2.13093 173.929 1.83834C173.866 1.77604 173.834 1.74489 173.772 1.74489C173.699 1.74489 173.688 1.7549 173.594 1.88061C173.531 1.95404 173.176 2.39236 172.674 2.80065H174.838ZM174.335 5.69649C174.335 5.91566 174.335 6.15707 174.294 6.48081H175.307C175.465 6.48081 175.559 6.40738 175.559 6.22938V5.75879C175.559 5.59192 175.475 5.50737 175.307 5.50737H174.335V5.69649Z" fill="#E5005A"/>
<path d="M156.591 9.79612C156.591 9.95299 156.591 10.4447 155.974 10.4447C155.397 10.4447 155.346 10.0364 155.346 9.79612V5.60311C155.23 5.71881 155.075 5.87567 154.834 5.87567C154.437 5.87567 154.144 5.46738 154.144 5.09136C154.144 4.81879 154.269 4.6419 154.468 4.37045C155.565 2.85412 155.922 1.39007 155.964 1.21207C156.047 0.836042 156.122 0.553467 156.591 0.553467C156.674 0.553467 157.27 0.563479 157.27 1.09748C157.27 1.42233 156.987 2.44694 156.591 3.36698V9.79724V9.79612ZM157.636 6.38742C157.469 6.38742 156.998 6.38742 156.998 5.79112C156.998 5.28938 157.333 5.19482 157.636 5.19482H159.946V4.38937H158.838C158.002 4.38937 157.636 4.07564 157.636 3.17674V2.05756C157.636 1.12752 158.033 0.854954 158.838 0.854954H162.31C163.084 0.854954 163.512 1.10638 163.512 2.05756V3.17674C163.512 4.09678 163.125 4.38937 162.31 4.38937H161.17V5.19482H163.461C163.628 5.19482 164.098 5.20594 164.098 5.79112C164.098 6.32401 163.722 6.38742 163.461 6.38742H161.663C162.322 7.36976 163.085 8.05061 163.23 8.17521C164.057 8.84494 164.088 8.86607 164.088 9.10637C164.088 9.4824 163.742 9.8384 163.408 9.8384C163.199 9.8384 163.001 9.72381 162.583 9.28437C161.871 8.55235 161.402 7.83033 161.17 7.47545V9.78611C161.17 9.94297 161.17 10.4236 160.585 10.4236C160.114 10.4236 159.947 10.2144 159.947 9.78611V7.5689C159.237 8.55235 157.982 9.84841 157.469 9.84841C157.145 9.84841 156.842 9.4824 156.842 9.15866C156.842 8.85606 157.072 8.69808 157.25 8.57348C157.887 8.13405 158.661 7.60116 159.488 6.38853H157.637L157.636 6.38742ZM162.226 2.29898C162.226 2.06869 162.111 1.94409 161.871 1.94409H159.268C159.016 1.94409 158.912 2.06869 158.912 2.29898V2.95758C158.912 3.19788 159.027 3.31247 159.268 3.31247H161.871C162.112 3.31247 162.226 3.19788 162.226 2.95758V2.29898Z" fill="#E5005A"/>
<path d="M2.04714 55.7121C2.04714 55.8538 1.9835 56.4301 1.9727 56.549C1.95108 56.8419 1.86704 57.7869 1.86704 58.7114C1.86704 59.6455 1.9727 61.264 2.39293 62.0132C2.49859 62.1981 2.71952 62.3939 3.01488 62.3939C3.57319 62.3939 3.92139 61.7419 4.15312 60.9915C4.32121 60.4704 4.37404 60.2651 4.79548 60.2651C5.1953 60.2651 5.5423 60.504 5.5423 60.917C5.5423 61.3841 5.26855 62.0024 4.96357 62.568C4.61658 63.2091 4.01624 64.0244 2.94044 64.0244C0.49707 64.0244 0.49707 59.6899 0.49707 58.5265C0.49707 57.6356 0.581117 55.8322 0.655559 55.5392C0.780429 55.0721 1.09741 55.0505 1.41438 55.0505C1.83582 55.0505 2.04594 55.3003 2.04594 55.7133L2.04714 55.7121ZM8.2186 62.4383C8.2186 60.6457 8.2186 59.158 7.72392 57.973C7.38773 57.1901 6.82942 57.1145 6.4284 57.0593C6.15464 57.0269 5.78604 56.9836 5.78604 56.3641C5.78604 56.1576 5.86048 55.6473 6.52325 55.6473C6.94469 55.6473 8.16697 55.831 8.87177 57.0256C9.50452 58.1015 9.70383 60.2086 9.70383 62.2077C9.70383 62.664 9.70383 63.2511 8.96662 63.2511C8.2186 63.2511 8.2186 62.7192 8.2186 62.4359V62.4383Z" fill="#E5005A"/>
<path d="M12.7816 62.2644C12.8872 62.2644 13.2654 62.3076 13.3927 62.3184C13.7193 62.3509 14.0459 62.3617 14.2776 62.3617C15.1085 62.3617 18.4175 62.3617 18.4175 59.4176C18.4175 58.4403 18.1222 57.8964 17.7007 57.5386C17.3633 57.2564 16.8362 56.9526 15.8457 56.9526C14.3508 56.9526 13.0337 57.4089 11.5796 57.9084C11.4428 57.9516 11.2735 58.0056 11.1258 58.0056C10.5567 58.0056 10.4414 57.4629 10.4414 57.1796C10.4414 56.5828 10.768 56.4952 11.8006 56.2022C13.2762 55.7784 14.8875 55.5623 15.9729 55.5623C18.8498 55.5623 19.9232 57.3428 19.9232 59.3648C19.9232 59.9183 19.8919 61.7769 18.0909 62.9392C16.8482 63.7316 14.8359 63.7977 14.0351 63.7977C13.7925 63.7977 12.9292 63.7869 12.539 63.6776C12.1176 63.5575 12.0648 63.1781 12.0648 63.004C12.0648 62.7099 12.1176 62.2656 12.7816 62.2656V62.2644Z" fill="#E5005A"/>
<path d="M26.2784 58.0475C26.6674 58.0367 28.406 57.9935 28.7638 57.9827C28.8899 57.9719 28.9859 57.9719 29.028 57.9719C29.2273 57.9719 29.6499 58.0031 29.6499 58.5914C29.6499 59.1798 29.2705 59.1882 28.7434 59.2002C28.3544 59.211 26.647 59.265 26.3 59.2746L26.3216 60.5473C27.6064 60.9808 28.8286 61.8825 29.3233 62.2955C29.7556 62.6545 29.7556 62.8934 29.7556 63.0027C29.7556 63.4265 29.4182 63.818 29.0496 63.818C28.7746 63.818 28.6173 63.6871 28.3015 63.3833C28.017 63.1108 27.5223 62.7313 27.0168 62.3952C26.7323 62.2103 26.5209 62.0902 26.3324 61.9929C26.2796 63.0687 26.0479 64.2418 23.9719 64.2418C22.255 64.2418 21.0015 63.5358 21.0015 62.2102C21.0015 61.0588 22.0124 60.1571 23.9287 60.1571C24.4042 60.1571 24.7295 60.2111 24.9301 60.2328L24.9084 59.2986C24.0968 59.3094 22.8121 59.331 22.0004 59.331C21.3785 59.331 20.9786 59.331 20.9786 58.7115C20.9786 58.2228 21.2944 58.1028 21.6102 58.1028C22.5263 58.1028 23.9803 58.0799 24.8868 58.0799L24.8652 57.0918C24.0428 57.1026 22.7376 57.1242 21.9152 57.1242C21.2836 57.1242 20.8838 57.1242 20.8838 56.4938C20.8838 55.8863 21.3677 55.8863 21.621 55.8863H22.1901C22.6116 55.8863 24.4666 55.8635 24.8448 55.8635L24.834 55.2439C24.8232 54.7216 25.1918 54.6028 25.5292 54.6028C25.929 54.6028 26.2136 54.7445 26.2244 55.2439L26.2352 55.8299C26.6458 55.8191 28.4684 55.7758 28.8479 55.7542C28.9739 55.7542 29.0796 55.7434 29.112 55.7434C29.2693 55.7434 29.7436 55.7542 29.7436 56.363C29.7436 56.9609 29.3533 56.9825 28.8683 56.9933C27.6988 57.0365 27.5619 57.0245 26.2556 57.069L26.2772 58.0451L26.2784 58.0475ZM23.8651 61.2749C23.4124 61.2749 22.3066 61.3614 22.3066 62.1766C22.3066 62.7638 23.0018 63.0243 23.7906 63.0243C24.5494 63.0243 24.8448 62.7746 24.9084 62.3399C24.9397 62.1454 24.9397 62.0254 24.9397 61.4502C24.7391 61.3842 24.4234 61.2749 23.8639 61.2749H23.8651Z" fill="#E5005A"/>
<path d="M32.3242 56.8958C32.1981 56.9078 31.6398 56.9619 31.5233 56.9619C30.9122 56.9619 30.8281 56.5164 30.8281 56.2126C30.8281 55.7444 31.007 55.5174 31.5125 55.4622C32.06 55.4082 37.9493 55.2017 39.0767 55.2017C39.6771 55.2017 40.161 55.2017 40.161 55.8968C40.161 56.6245 39.6771 56.6245 39.0972 56.6245C38.2543 56.6353 37.6119 56.8082 36.5481 57.4829C35.8217 57.9392 34.4301 59.1122 34.4301 60.7103C34.4301 62.198 35.6524 62.611 37.6011 62.611C38.444 62.611 38.5389 62.6002 38.6961 62.6434C39.0443 62.7299 39.15 62.9904 39.15 63.2846C39.15 64.1203 38.5184 64.1203 37.8749 64.1203C36.3788 64.1203 35.2094 63.8045 34.4938 63.4683C33.4396 62.9688 32.9869 61.8822 32.9869 60.84C32.9869 60.0464 33.1766 59.0138 34.3353 57.8095C34.9356 57.1888 35.3571 56.9294 35.8109 56.6569C34.6511 56.7325 33.4828 56.8094 32.3242 56.8958ZM37.4534 58.2105C37.4222 58.1457 37.4006 58.0701 37.4006 58.004C37.4006 57.7975 37.6323 57.6786 37.78 57.6786C37.9493 57.6786 38.0322 57.7663 38.2639 58.1673C38.39 58.3858 38.6541 58.9286 38.6541 59.1014C38.6541 59.374 38.3792 59.4496 38.2531 59.4496C38.127 59.4496 38.031 59.3404 37.9697 59.2215C37.8953 59.081 37.8004 58.8625 37.7272 58.722C37.6852 58.6464 37.4967 58.2874 37.4534 58.2105ZM38.5821 57.7003C38.5401 57.6138 38.5292 57.5478 38.5292 57.4829C38.5292 57.2872 38.7502 57.1672 38.8979 57.1672C39.0876 57.1672 39.162 57.2968 39.3625 57.6342C39.4358 57.7543 39.7731 58.3186 39.7731 58.5791C39.7731 58.8073 39.551 58.9165 39.3829 58.9165C39.2472 58.9165 39.1416 58.7965 39.1092 58.7412C39.0671 58.6548 38.887 58.2742 38.8558 58.2093C38.8138 58.1229 38.6145 57.7771 38.5821 57.7003Z" fill="#E5005A"/>
<path d="M45.2639 58.9288C46.6231 58.906 46.6435 58.906 47.0229 58.8856C47.149 58.8856 47.7073 58.8424 47.8238 58.8424C47.9715 58.8424 48.4986 58.8532 48.4986 59.4943C48.4986 60.0599 48.0879 60.1235 47.9823 60.1343C47.6869 60.1787 45.7694 60.2436 45.2964 60.2436H45.1487C45.1175 60.743 45.1066 61.1129 45.1066 61.2209C45.1066 62.1226 45.2856 62.8718 47.1394 62.8718C48.6991 62.8718 49.4891 62.3952 49.4891 60.9171C49.4891 60.3948 49.3414 59.9062 49.2466 59.6012C49.1517 59.3299 49.1301 59.2542 49.1301 59.1245C49.1301 58.7439 49.5419 58.5806 49.8361 58.5806C50.2467 58.5806 50.4472 58.8316 50.6057 59.1353C50.7954 59.5268 50.9527 60.2111 50.9527 60.9928C50.9527 63.7531 49.1517 64.2526 47.1502 64.2526C44.5904 64.2526 43.6947 63.2308 43.6947 61.2113C43.6947 60.9928 43.7259 60.4933 43.7367 60.2436C43.3897 60.2436 42.3883 60.2327 42.1566 60.1787C41.9153 60.1127 41.7676 59.8846 41.7676 59.57C41.7676 58.9288 42.2935 58.918 42.4628 58.918C42.8518 58.918 43.4641 58.9396 43.8423 58.9396L43.9684 57.4844C43.631 57.4844 42.6093 57.4952 42.3667 57.4292C42.1554 57.3752 41.9885 57.147 41.9885 56.8096C41.9885 56.2009 42.4724 56.1577 42.6945 56.1577C42.9046 56.1577 43.8844 56.1805 44.0741 56.1901L44.1485 55.3424C44.1785 55.0062 44.2109 54.604 44.8737 54.604C45.306 54.604 45.6854 54.7793 45.6217 55.376L45.5377 56.1805C46.2857 56.1697 47.1922 56.1697 48.3401 56.1144C48.4661 56.1036 49.0665 56.0712 49.1829 56.0712C49.3522 56.0712 49.8781 56.082 49.8781 56.7232C49.8781 57.3427 49.4363 57.3644 49.0244 57.386C47.8238 57.4412 46.6123 57.4724 45.4116 57.4844L45.2639 58.9288Z" fill="#E5005A"/>
<path d="M53.2822 60.0583C52.8079 60.1015 52.3985 60.1327 52.2712 60.1327C51.7129 60.1327 51.7129 59.6008 51.7129 59.536C51.7129 58.9813 52.0911 58.9705 52.4597 58.9609C52.7347 58.5586 52.7767 58.483 53.0084 58.1348C52.8187 57.8959 52.7443 57.8094 52.0599 57.0914C51.8282 56.8525 51.7441 56.7444 51.7441 56.5919C51.7441 56.3098 51.9963 55.9508 52.3444 55.9508C52.4393 55.9508 52.5017 55.9832 52.5546 56.006C52.629 55.8535 52.7659 55.6038 52.9664 55.1355C53.2293 54.5064 53.2822 54.3755 53.5667 54.3755C53.9029 54.3755 54.2619 54.6144 54.2619 54.941C54.2619 55.0923 54.1779 55.2772 53.987 55.6578C53.8177 55.9736 53.5559 56.4623 53.3758 56.7768C53.407 56.8201 53.6076 57.0494 53.6508 57.0926C53.7672 56.9089 54.3039 55.9628 54.43 55.7455C54.5129 55.605 54.6185 55.4525 54.8406 55.4525C54.9355 55.4525 55.2405 55.4849 55.441 55.8319C55.4302 55.2664 55.8408 55.2232 56.0725 55.2232H57.8519V54.887C57.8519 54.5172 58.0524 54.3767 58.5159 54.3767C59.0226 54.3767 59.0958 54.6696 59.0958 54.887V55.2232H61.0229C61.3171 55.2232 61.6653 55.3108 61.6653 55.7983C61.6653 56.3638 61.1814 56.3638 61.0229 56.3638H59.0958V57.0482H60.7708C60.9929 57.0482 61.3183 57.0914 61.3183 57.5705C61.3183 58.0928 60.9185 58.0928 60.7708 58.0928H56.2935C56.0401 58.0928 55.746 58.0375 55.746 57.5705C55.746 57.071 56.1146 57.0482 56.2935 57.0482H57.8519V56.3638H56.0725C55.872 56.3638 55.6415 56.3422 55.4938 56.0817C55.4722 56.2341 55.3245 56.4947 55.2092 56.6904C54.7674 57.4408 54.3039 58.1792 53.8081 58.9068C53.9245 58.896 54.4828 58.8636 54.6089 58.8528C54.5249 58.537 54.4828 58.3965 54.4828 58.2993C54.4828 57.9943 54.789 57.9187 54.9367 57.9187C55.1576 57.9187 55.2309 57.9187 55.6847 59.2983C55.8012 58.6895 56.2214 58.6463 56.8218 58.6463H60.2773C61.2558 58.6463 61.4564 58.8744 61.4564 59.8638V60.4065C61.4564 60.8627 61.245 61.0476 60.8344 61.0476C60.2653 61.0476 60.2557 60.5698 60.2557 60.4065V59.9394C60.2557 59.7545 60.1608 59.6777 60.0023 59.6777H57.0319C56.8842 59.6777 56.7785 59.7437 56.7785 59.9394V60.3957C56.7785 60.5361 56.7677 61.0476 56.1998 61.0476C55.6415 61.0476 55.6415 60.5253 55.6415 60.4065V60.1675C55.5779 60.2108 55.4938 60.2768 55.3041 60.2768C55.0099 60.2768 54.9463 60.0811 54.8935 59.8746C54.5453 59.9286 54.4516 59.9406 54.346 59.9502V64.0685C54.346 64.3063 54.3147 64.6436 53.8081 64.6436C53.2918 64.6436 53.2822 64.263 53.2822 64.0685V60.0583ZM53.0192 61.1113C53.0192 61.72 52.8932 62.7514 52.8187 63.1968C52.7239 63.7083 52.6926 63.892 52.3553 63.892C52.2604 63.892 51.7657 63.8608 51.7657 63.4466C51.7657 63.2953 51.9122 62.6541 51.9338 62.5233C52.0503 61.7956 52.0599 61.4691 52.0815 61.1221C52.0923 60.8063 52.1343 60.6106 52.545 60.6106C53.0204 60.6106 53.0204 60.9468 53.0204 61.1101L53.0192 61.1113ZM55.4842 61.1113C55.6007 61.7752 55.6739 62.372 55.6739 62.6974C55.6739 62.8715 55.6319 63.1752 55.2092 63.1752C54.7986 63.1752 54.7878 62.9795 54.7566 62.426C54.735 62.0778 54.7038 61.7848 54.6617 61.5351C54.6305 61.3286 54.5981 61.1101 54.5981 60.9912C54.5981 60.7102 54.8094 60.5902 55.094 60.5902C55.3882 60.5902 55.4314 60.8075 55.4842 61.1113ZM58.0332 60.7859C58.0332 61.5579 57.8639 62.731 57.4641 63.3937C57.1591 63.9052 56.4327 64.6004 56.0209 64.6004C55.5995 64.6004 55.3149 64.2306 55.3149 63.8824C55.3149 63.6099 55.4842 63.4922 55.6943 63.3505C56.6104 62.731 56.8109 62.3083 56.8734 60.7751C56.8842 60.5253 56.937 60.1663 57.4737 60.1663C58.032 60.1663 58.0332 60.655 58.0332 60.7859ZM59.8042 62.9591C59.8042 63.2521 59.8667 63.2845 60.2041 63.2845C60.4886 63.2845 60.5619 63.2617 60.5727 62.7622C60.5835 62.2735 60.5835 61.9806 61.0793 61.9806C61.616 61.9806 61.616 62.3384 61.616 62.6001C61.616 63.1536 61.616 63.9785 61.2895 64.2943C61.0589 64.5128 60.8584 64.5128 59.9831 64.5128C58.9193 64.5128 58.6132 64.4251 58.6132 63.2857V60.8183C58.6132 60.4593 58.7188 60.1663 59.1727 60.1663C59.5509 60.1663 59.8042 60.2528 59.8042 60.8183V62.9591Z" fill="#E5005A"/>
<path d="M63.4534 58.3738C66.5295 56.5488 67.6149 55.898 68.6583 55.0059C68.8793 54.8222 69.069 54.6589 69.3631 54.6589C69.7425 54.6589 70.1748 54.8967 70.1748 55.3757C70.1748 55.6915 70.0175 55.8752 69.4688 56.2883C68.0568 57.3316 66.5199 58.1577 64.9711 58.9718C64.5292 59.1999 64.4128 59.308 64.4128 59.4712C64.4128 59.6345 64.5184 59.733 64.887 59.8963C66.3939 60.5915 67.5417 61.1126 69.3127 62.21C70.5446 62.9712 70.7031 63.1777 70.7031 63.5679C70.7031 63.9053 70.3861 64.3508 69.9334 64.3508C69.6381 64.3508 69.4268 64.2091 69.1638 64.0134C68.1204 63.2317 67.1623 62.5029 65.1392 61.4608C64.875 61.3191 63.6539 60.7548 63.421 60.6239C63.116 60.4606 62.6514 60.1796 62.6514 59.5277C62.6514 58.8529 63.1364 58.5599 63.4522 58.375L63.4534 58.3738Z" fill="#E5005A"/>
<path d="M72.2547 59.4943C72.1287 59.4943 71.6016 59.4943 71.6016 58.8964C71.6016 58.4293 71.8225 58.2336 72.2547 58.2336H74.4976C74.6345 57.9406 74.8242 57.4616 74.9623 57.1686C75.0355 57.0053 75.1508 56.7556 75.5518 56.7556C75.9528 56.7556 76.3826 56.9825 76.3826 57.3415C76.3826 57.548 76.3202 57.6897 76.0669 58.2324H80.8816C81.0509 58.2324 81.5347 58.2432 81.5347 58.8615C81.5347 59.3838 81.2081 59.4919 80.8816 59.4919H79.8586C79.7325 59.9049 79.3747 61.0132 78.4886 62.0445C79.4684 62.4792 79.5644 62.5332 80.4589 63.0123C80.7543 63.1756 80.9656 63.316 80.9656 63.675C80.9656 64.1745 80.5754 64.4903 80.2596 64.4903C80.0171 64.4903 79.9426 64.4471 79.0277 63.8924C78.3529 63.4793 77.7202 63.1864 77.3948 63.0339C76.8581 63.4361 76.247 63.7291 75.6154 63.9584C74.3403 64.4147 72.8875 64.5564 72.6017 64.5564C72.4648 64.5564 71.9269 64.5564 71.9269 63.8059C71.9269 63.1972 72.3376 63.154 72.6437 63.1323C73.3497 63.0771 74.6237 62.9691 75.8459 62.3819C75.2564 62.1646 75.1195 62.1214 73.8336 61.7083C73.5178 61.6111 73.1072 61.4802 73.1072 61.0132C73.1072 60.7742 73.2129 60.5677 73.3497 60.3396C73.5923 59.9482 73.6139 59.9049 73.8552 59.4919H72.2547V59.4943ZM80.0711 55.2451C80.8612 55.2451 81.2934 55.5057 81.2934 56.5058V57.2334C81.2934 57.5696 81.219 57.9286 80.6714 57.9286C80.1972 57.9286 79.945 57.7978 79.945 57.2539V56.7652C79.945 56.5695 79.861 56.4494 79.6401 56.4494H73.4986C73.2873 56.4494 73.1925 56.5587 73.1925 56.7652V57.2539C73.1925 57.4712 73.1708 57.9286 72.5609 57.9286C72.0134 57.9286 71.8345 57.7221 71.8345 57.2539V56.5046C71.8345 55.5369 72.2355 55.2439 73.0568 55.2439H75.8808V54.8957C75.8808 54.5259 76.0921 54.353 76.5027 54.353C76.9782 54.353 77.2399 54.4623 77.2399 54.8957V55.2439H80.0735L80.0711 55.2451ZM75.4257 59.4943C75.2252 59.8533 75.1195 60.037 74.9514 60.3096C74.8566 60.4729 74.8146 60.5269 74.8146 60.6025C74.8146 60.7766 74.9731 60.8198 75.0667 60.8523C75.7511 61.0588 76.6372 61.3193 77.1211 61.5042C77.8583 60.743 78.2281 59.8749 78.3962 59.4943H75.4257Z" fill="#E5005A"/>
<path d="M84.3084 58.2765C84.3084 58.5695 84.1607 60.6227 83.6024 62.3612C83.3923 63.0348 83.2662 63.2954 82.8544 63.2954C82.5074 63.2954 82.0439 63.0228 82.0439 62.5449C82.0439 62.3937 82.0752 62.2952 82.3597 61.4487C82.7908 60.1556 82.8964 58.9177 82.9385 58.3414C82.9805 57.7975 83.1077 57.6342 83.6757 57.6342C83.7069 57.6342 84.3072 57.6342 84.3072 58.2753L84.3084 58.2765ZM88.8494 57.0591C88.7233 57.0591 88.5648 57.005 88.3115 56.8958C87.1108 56.3747 86.5633 56.1357 84.9724 55.7983C84.7419 55.7551 84.3829 55.6795 84.3829 55.1908C84.3829 55.0383 84.4573 54.4524 85.0144 54.4524C85.3938 54.4524 87.0688 54.8426 88.4916 55.4081C89.2612 55.7119 89.4509 55.832 89.4509 56.2234C89.4509 56.5392 89.2492 57.0591 88.8494 57.0591ZM86.3315 62.6878C86.3315 63.0672 86.5321 63.0672 86.9955 63.0672C88.1962 63.0672 88.1962 63.0564 88.3019 62.7959C88.3763 62.6326 88.3859 62.5341 88.4712 61.5688C88.4928 61.3611 88.5348 60.9384 89.0931 60.9384C89.7883 60.9384 89.7883 61.5039 89.7883 61.6564C89.7883 62.2652 89.6622 63.4046 89.314 63.8825C88.9238 64.4144 88.5024 64.4372 87.1432 64.4372C86.2583 64.4372 85.9533 64.4372 85.6676 64.3712C84.9616 64.2079 84.9616 63.4154 84.9616 63.1657V57.591C84.9616 57.3304 85.0036 56.9282 85.6256 56.9282C86.2895 56.9282 86.3315 57.3196 86.3315 57.591V62.6866V62.6878ZM91.1246 58.8313C91.7034 60.4822 92.0311 62.2087 92.0311 62.6446C92.0311 63.2965 91.3996 63.3182 91.2303 63.3182C90.7044 63.3182 90.6192 62.9484 90.5663 62.6446C90.2289 60.5794 90.0921 60.2 89.4821 58.5059C89.4509 58.4182 89.3657 58.1805 89.3657 58.0052C89.3657 57.669 89.6706 57.4085 90.1353 57.4085C90.5351 57.4085 90.6408 57.4733 91.1246 58.8325V58.8313Z" fill="#E5005A"/>
<path d="M96.4577 61.9483C95.9414 62.8068 95.3831 63.263 94.6038 63.263C93.2339 63.263 92.4858 61.8186 92.4858 60.0897C92.4858 56.7758 94.8776 55.0156 97.5323 55.0156C100.745 55.0156 102.03 57.178 102.03 59.5458C102.03 60.0885 102.03 61.9687 100.112 63.2727C99.0282 64.0231 97.7315 64.1203 97.5634 64.1203C96.8682 64.1203 96.8575 63.4576 96.8575 63.3711C96.8575 62.8056 97.2465 62.7407 97.6367 62.6867C98.4784 62.557 100.575 62.2185 100.575 59.4497C100.575 57.6679 99.6381 56.4828 97.9944 56.3748C97.6474 59.2 96.974 61.067 96.4577 61.9483ZM95.4262 56.8959C94.2147 57.6679 93.8354 59.0475 93.8354 60.1125C93.8354 61.1547 94.2472 61.7418 94.6675 61.7418C95.1093 61.7418 95.4262 61.1331 95.7107 60.3514C96.2895 58.7653 96.4684 57.5911 96.6268 56.4072C96.3843 56.4732 95.9317 56.5825 95.4262 56.8959Z" fill="#E5005A"/>
<path d="M103.623 56.5392C103.476 56.5392 102.928 56.5272 102.928 55.8549C102.928 55.3326 103.234 55.1597 103.623 55.1597H110.902C111.376 55.1597 111.978 55.2677 111.978 56.0614C111.978 56.4408 111.693 57.5058 110.987 58.4303C110.292 59.3428 109.175 60.0812 108.807 60.0812C108.396 60.0812 108.08 59.679 108.08 59.3092C108.08 59.027 108.206 58.9514 108.733 58.6356C109.746 58.0269 110.314 57.0159 110.314 56.7025C110.314 56.5392 110.188 56.5392 109.988 56.5392H103.623ZM107.9 58.2766C107.9 59.0042 107.858 60.8845 106.446 62.6218C105.72 63.5127 104.697 64.2307 104.16 64.2307C103.782 64.2307 103.465 63.8393 103.465 63.4371C103.465 63.1225 103.56 63.0673 104.319 62.6218C105.33 62.0359 106.426 61.0802 106.489 58.7653C106.521 57.7339 106.521 57.6679 106.678 57.5046C106.784 57.3965 106.953 57.3305 107.216 57.3305C107.9 57.3305 107.9 57.854 107.9 58.2766Z" fill="#E5005A"/>
<path d="M120.14 55.4192C121.246 55.4192 121.288 56.0819 121.288 56.4734C121.288 56.603 121.182 59.3418 119.381 61.4814C117.748 63.4373 115.209 64.0676 114.694 64.0676C114.052 64.0676 113.988 63.3928 113.988 63.274C113.988 62.8177 114.357 62.7205 114.789 62.6004C117.359 61.9052 118.675 60.384 119.202 59.0908C119.582 58.1783 119.718 57.3307 119.718 57.1349C119.718 56.842 119.53 56.842 119.382 56.842H113.579C113.42 56.842 112.873 56.842 112.873 56.136C112.873 55.4732 113.314 55.418 113.579 55.418H120.141L120.14 55.4192Z" fill="#E5005A"/>
<path d="M125.86 57.2344C125.218 58.1133 123.681 59.7546 122.995 59.7546C122.625 59.7546 122.32 59.3416 122.32 59.027C122.32 58.7665 122.478 58.614 122.751 58.4183C124.353 57.2788 124.932 56.1706 125.342 55.3878C125.659 54.7802 125.743 54.6169 126.154 54.6169C126.429 54.6169 126.933 54.7682 126.933 55.2029C126.933 55.4526 126.733 55.8224 126.691 55.9089H129.81C130.432 55.9089 130.863 56.1586 130.863 56.8214C130.863 57.2668 130.41 60.3525 128.039 62.3084C126.26 63.7745 123.93 64.2523 123.658 64.2523C123.162 64.2523 122.973 63.8189 122.973 63.5031C122.973 63.0349 123.226 62.9712 123.69 62.8404C124.965 62.4922 126.186 62.1656 127.367 61.1126C126.64 60.4834 126.461 60.3742 125.354 59.6898C125.018 59.4833 124.871 59.3092 124.871 59.069C124.871 58.8289 125.135 58.4171 125.535 58.4171C125.799 58.4171 126.051 58.5155 126.651 58.8745C127.695 59.4941 128.116 59.8735 128.284 60.026C128.979 58.9502 129.337 57.6787 129.337 57.4505C129.337 57.2332 129.201 57.2332 128.948 57.2332H125.861L125.86 57.2344Z" fill="#E5005A"/>
<path d="M132.05 60.2432C131.818 60.2432 131.271 60.2433 131.271 59.5048C131.271 58.7988 131.745 58.7556 132.05 58.7556H139.887C140.109 58.7556 140.666 58.7556 140.666 59.494C140.666 60.2216 140.171 60.2432 139.887 60.2432H132.05Z" fill="#E5005A"/>
<path d="M147.102 55.43C147.102 55.1154 147.197 54.7468 147.797 54.7468C148.25 54.7468 148.503 54.9305 148.503 55.43V56.7772H149.609C149.746 56.7772 150.304 56.7772 150.304 57.4519C150.304 57.9622 149.999 58.1363 149.609 58.1363H148.503V59.4078C148.503 60.9495 148.197 62.58 146.165 63.5574C145.112 64.0689 144.068 64.2321 143.742 64.2321C143.057 64.2321 143.015 63.5574 143.015 63.4385C143.015 62.939 143.309 62.885 144.099 62.7649C145.29 62.58 146.427 62.0037 146.838 61.048C147.102 60.45 147.102 59.5051 147.102 59.3742V58.1363H143.878V60.2867C143.878 60.755 143.656 60.9615 143.194 60.9615C142.835 60.9615 142.499 60.8522 142.499 60.2867V58.1363H141.413C141.277 58.1363 140.718 58.1363 140.718 57.4615C140.718 56.9392 141.045 56.7772 141.413 56.7772H142.499V55.4516C142.499 55.1695 142.573 54.778 143.183 54.778C143.647 54.778 143.878 54.9725 143.878 55.4516V56.7772H147.102V55.43Z" fill="#E5005A"/>
<path d="M150.945 60.2432C150.713 60.2432 150.166 60.2433 150.166 59.5048C150.166 58.7988 150.64 58.7556 150.945 58.7556H158.782C159.004 58.7556 159.561 58.7556 159.561 59.494C159.561 60.2216 159.066 60.2432 158.782 60.2432H150.945Z" fill="#E5005A"/>
<path d="M162.049 61.7323C162.049 62.4815 162.123 62.5031 163.925 62.5031C164.841 62.5031 165.937 62.4923 166.674 62.4599C166.863 62.4491 167.664 62.3951 167.833 62.3951C168.002 62.3951 168.486 62.3951 168.486 63.0782C168.486 63.699 168.044 63.8179 167.455 63.8611C166.822 63.9151 164.799 63.9043 163.999 63.9043C163.472 63.9043 162.45 63.9043 161.987 63.8383C160.88 63.6858 160.607 62.9474 160.607 62.1321V55.5044C160.607 55.1682 160.691 54.8308 161.324 54.8308C161.85 54.8308 162.051 55.0481 162.051 55.5044V58.1555C163.451 57.7965 164.83 57.3078 166.137 56.6787C166.76 56.3749 166.948 56.2872 167.202 56.2872C167.549 56.2872 167.886 56.6895 167.886 57.0917C167.886 57.3642 167.791 57.5696 166.81 57.9826C166.305 58.1999 165.357 58.5685 164.334 58.9059C163.112 59.3201 162.449 59.4714 162.049 59.5579V61.7323ZM167 54.8332C166.969 54.7576 166.958 54.6699 166.958 54.5943C166.958 54.3446 167.222 54.2905 167.337 54.2905C167.537 54.2905 167.621 54.431 167.779 54.8224C167.885 55.083 168.032 55.5608 168.032 55.7121C168.032 56.0603 167.673 56.0603 167.653 56.0603C167.558 56.0603 167.422 56.0279 167.348 55.8322C167.284 55.6809 167.222 55.43 167.169 55.2787C167.138 55.1922 167.053 54.9737 167 54.8332ZM168.242 54.7132C168.232 54.6471 168.211 54.5835 168.211 54.5174C168.211 54.2677 168.475 54.2017 168.591 54.2017C168.813 54.2017 168.874 54.3542 169.033 54.7336C169.211 55.1586 169.297 55.4732 169.297 55.6137C169.297 55.9294 168.98 55.9606 168.917 55.9606C168.676 55.9606 168.644 55.8634 168.423 55.1898C168.401 55.1142 168.264 54.7984 168.244 54.712L168.242 54.7132Z" fill="#E5005A"/>
<path d="M170.591 56.5392C170.37 56.5392 169.896 56.484 169.896 55.8549C169.896 55.3434 170.192 55.1597 170.591 55.1597H175.828C176.311 55.1597 176.975 55.2461 176.975 56.0938C176.975 56.8538 176.175 58.5924 175.257 59.8843C175.848 60.3418 176.637 60.9601 177.891 62.1656C178.47 62.7203 178.566 62.904 178.566 63.1874C178.566 63.6436 178.165 64.0026 177.755 64.0026C177.417 64.0026 177.279 63.8393 176.912 63.4047C176.08 62.4285 174.899 61.3191 174.436 60.9385C172.951 62.6651 170.854 64.0675 170.232 64.0675C169.873 64.0675 169.558 63.6868 169.558 63.263C169.558 62.9268 169.663 62.8716 170.411 62.4706C173.677 60.7104 175.288 57.1792 175.288 56.7121C175.288 56.5488 175.173 56.538 174.994 56.538H170.59L170.591 56.5392Z" fill="#E5005A"/>
<path d="M62.4359 45.755C62.633 45.8707 62.932 46.0179 63.1851 46.1201C63.9528 46.4273 64.6948 46.1493 65.0242 45.5336C65.5816 44.4846 67.7738 40.2252 70.1864 35.5243C70.3907 35.241 70.7075 34.9782 71.2691 34.9367C71.8825 34.9338 72.5489 34.9367 73.0248 34.9747C74.1545 35.0623 74.5125 35.7346 74.6899 36.4642C74.8471 37.1114 74.7495 39.2077 74.7584 40.0973C74.8001 43.9951 77.3705 45.8642 80.241 46.0091C80.6246 46.0313 81.6239 46.0249 81.9372 46.0091C85.1102 45.8642 87.1571 44.217 87.4561 41.0488C87.5323 40.2585 87.5157 36.7533 87.5014 36.3006C87.4775 35.6225 87.0053 35.0775 86.1513 34.9747C85.9035 34.9478 85.5903 34.949 85.3401 34.9747C84.5474 35.0477 84.0549 35.5909 84.0406 36.3006C84.0317 37.0506 84.0192 39.2626 83.99 39.8911C83.959 40.5237 83.9269 41.1727 83.5898 41.7019C83.3182 42.1359 82.6018 42.5366 82.0729 42.5646C81.5405 42.5932 81.0629 42.6072 80.4423 42.5646C79.82 42.5231 79.3019 42.3532 78.8278 41.8152C78.5235 41.4752 78.3049 40.508 78.3281 39.6546C78.3519 38.807 78.3609 37.1365 78.3609 36.3462C78.3609 35.2954 78.1923 34.185 77.1609 32.9911C76.18 31.8503 74.6322 31.5308 73.9157 31.5027C73.771 31.4957 73.4994 31.4724 73.2404 31.4578C72.9795 31.4391 72.4042 31.0664 72.7228 30.5436C73.0176 30.0553 77.4324 21.32 77.7314 20.671C78.0137 20.0524 77.8237 19.3509 77.0816 18.8813C76.8678 18.7435 76.5766 18.6132 76.3342 18.5197C75.5761 18.2347 74.8263 18.473 74.4952 19.1091C73.1647 21.6436 63.0118 41.4157 61.7886 43.9706C61.4807 44.6107 61.7213 45.3491 62.4359 45.755Z" fill="#E5005A"/>
<path d="M0.906826 38.8696C1.85325 40.9663 3.55063 43.0255 5.30207 44.7502C6.08216 45.516 6.73925 45.9075 7.35 45.7281C7.99639 45.5415 8.52753 45.0175 8.85251 44.3943C9.17927 43.7687 8.85251 43.2631 8.11046 42.4605C7.18246 41.46 5.25929 39.6111 4.51547 38.0967C4.10731 37.2608 3.7045 35.8694 3.7045 34.6847C3.7045 30.555 3.72827 22.1691 3.68668 19.7434C3.6742 19.0227 3.14128 18.4583 2.33804 18.3971C2.11763 18.3835 1.65719 18.3799 1.3934 18.3971C0.587788 18.4583 0.0661568 19.0388 0.0465511 19.7434C-0.00929371 22.1163 -0.011076 30.5841 0.021006 34.2676C0.0299177 35.1297 0.224191 37.3529 0.906826 38.8696Z" fill="#E5005A"/>
<path d="M18.4572 41.8077C18.2534 42.1172 17.7745 42.5794 16.9422 42.5794C16.1098 42.5794 15.6726 42.4089 15.281 41.9259C14.88 41.4381 14.8063 39.73 15.0731 38.8389C15.3387 37.9507 16.1205 37.7047 16.7342 37.6067C17.0176 37.5604 17.5939 37.5455 18.0864 37.6518C18.5035 37.7392 18.7097 37.9192 18.7816 38.543C18.8986 39.4989 18.9336 41.0971 18.4572 41.8077ZM25.8699 34.0783C25.4309 34.0711 24.5011 34.0658 23.3889 34.064C22.7318 34.0575 22.3973 33.7889 22.3795 32.7676C22.3902 32.1807 22.3938 31.5206 22.3991 30.8184C22.4169 29.8559 22.7276 29.5844 23.3491 29.5654C23.6289 29.5571 23.8802 29.5547 24.0911 29.5458C24.7791 29.5232 25.3352 29.0509 25.438 28.1989C25.4671 27.9518 25.4618 27.6399 25.438 27.3897C25.3602 26.5996 24.813 26.0524 24.0911 26.0429C23.8493 26.0358 23.6164 26.0358 23.3776 26.031C22.7692 26.0239 22.4496 25.7815 22.3973 24.926C22.3938 24.2784 22.3902 23.6854 22.3813 23.1846C22.4027 22.2364 22.7116 21.9542 23.3075 21.9221C23.6325 21.9168 23.9016 21.9102 24.0911 21.9049C24.7791 21.8805 25.3352 21.4112 25.438 20.5563C25.4671 20.3115 25.4618 20.0008 25.438 19.7447C25.3602 18.9599 24.813 18.4121 24.0911 18.3984C21.1913 18.3509 15.1616 18.3509 12.2909 18.3984C11.5684 18.4121 11.0052 18.9438 10.9476 19.7447C10.9298 19.9693 10.9256 20.2925 10.9476 20.5563C11.0052 21.3625 11.5833 21.8865 12.2909 21.9049C13.5658 21.934 15.7035 21.9483 17.8292 21.9524C18.4197 21.9839 18.8023 22.2994 18.8386 23.2149C18.8332 23.6462 18.8279 24.1102 18.8279 24.5992L18.8208 24.6004C18.8208 25.6775 18.4144 26.0043 17.7389 26.0126C17.0598 26.0227 16.3754 26.0298 15.6785 26.0435C14.9561 26.0536 14.3911 26.5871 14.3299 27.3903C14.3156 27.6113 14.3138 27.9375 14.3299 28.1995C14.3911 29.0111 14.9709 29.5274 15.6785 29.5464C16.0647 29.5571 17.105 29.579 17.8797 29.6224C18.6306 29.6587 18.7899 30.2343 18.8243 30.8837C18.8588 31.5372 18.8315 32.1611 18.8368 32.7219C18.8261 33.7693 18.3746 34.0533 17.7389 34.0967C17.544 34.1109 17.0562 34.1103 16.8394 34.1192C13.7934 34.2369 11.37 36.2563 11.37 40.0711C11.37 43.8859 13.8201 46.0841 16.8394 46.0841C19.8403 46.0841 21.9078 44.215 22.345 41.0389C22.4027 40.6081 22.4175 39.7514 22.4175 38.824C22.4371 37.8004 22.7265 37.634 23.3544 37.6186C24.4922 37.6103 25.4148 37.6002 25.8699 37.5823C26.5579 37.5598 27.1158 37.0874 27.2185 36.2355C27.2494 35.9901 27.2435 35.6794 27.2185 35.4245C27.1443 34.6397 26.5935 34.0907 25.8699 34.0794V34.0783Z" fill="#E5005A"/>
<path d="M34.804 38.8701C35.7504 40.9668 37.446 43.0259 39.1992 44.7507C39.9793 45.5165 40.6346 45.908 41.2471 45.7286C41.8917 45.542 42.4229 45.018 42.7496 44.3948C43.0764 43.7692 42.7496 43.2636 42.0076 42.4609C41.0796 41.4605 39.1546 39.6116 38.4144 38.0972C38.0062 37.2613 37.6016 35.8699 37.6016 34.6852C37.6016 30.5555 37.6254 22.1696 37.582 19.7439C37.5713 19.0232 37.0384 18.4588 36.237 18.3976C36.013 18.3839 35.5525 18.3804 35.2905 18.3976C34.4831 18.4588 33.9597 19.0393 33.9437 19.7439C33.8878 22.1168 33.8843 30.5846 33.9187 34.2681C33.9276 35.1302 34.1225 37.3534 34.8051 38.8701" fill="#E5005A"/>
<path d="M59.4969 20.6968C59.0186 20.6902 57.9908 20.6831 57.2814 20.6772C56.7954 20.6267 56.5227 20.3748 56.4669 19.6488C56.4633 19.259 56.4562 18.9257 56.4508 18.6792C56.4348 17.9704 55.9108 17.3911 55.104 17.3323C54.842 17.3115 54.3798 17.3133 54.1576 17.3323C53.3555 17.3911 52.8232 17.9555 52.8107 18.6792C52.8071 18.896 52.8036 19.1711 52.8036 19.4973C52.7442 20.3308 52.3865 20.6267 51.8191 20.6593C49.2585 20.6593 46.7579 20.6712 45.3944 20.6974C44.6737 20.7098 44.1052 21.241 44.0475 22.0454C44.0297 22.2658 44.0297 22.592 44.0475 22.8552C44.1052 23.6614 44.685 24.1824 45.3944 24.202C46.6801 24.2335 49.2223 24.2454 51.79 24.2454C52.402 24.2876 52.7994 24.8502 52.7869 25.6511C52.7745 26.4502 52.7923 32.8161 52.7923 34.9965C52.7923 36.1817 52.3895 37.5708 51.9795 38.4085C51.2393 39.9205 49.3144 41.7705 48.3881 42.7722C47.6443 43.5749 47.3193 44.0799 47.6443 44.7043C47.9728 45.3257 48.504 45.8515 49.145 46.038C49.7588 46.2181 50.4164 45.826 51.1947 45.0601C52.9462 43.3384 54.6435 41.2751 55.59 39.1814C56.2726 37.6658 56.4675 35.4409 56.4746 34.5794C56.4942 32.6319 56.496 26.3325 56.496 25.575C56.496 24.8175 56.7705 24.2793 57.3337 24.2288C58.1447 24.2187 59.1773 24.211 59.4969 24.202C60.1831 24.1765 60.7392 23.7054 60.8438 22.8552C60.8747 22.6068 60.8687 22.2955 60.8438 22.0454C60.7695 21.2582 60.2205 20.7093 59.4969 20.6968Z" fill="#E5005A"/>
<path d="M116.487 18.6384C113.593 18.5864 96.2038 18.5864 93.3443 18.6384C92.6226 18.6502 92.0613 19.1795 92.0021 19.9793C91.9861 20.1949 91.9826 20.1985 92.0021 20.4601C92.0613 21.2635 92.6392 21.7834 93.3443 21.8011C94.0606 21.817 97.1807 21.8324 97.8248 21.8377C98.4655 21.8389 98.3251 22.6405 98.041 22.9867C97.755 23.3358 95.9629 25.4606 95.3294 26.8659C94.6474 28.3723 94.4692 30.5804 94.4461 31.4387C94.41 32.7188 94.3419 36.4693 94.4206 40.4112C94.4982 44.3567 97.0138 46.2416 99.8692 46.3917C102.079 46.5057 110.172 46.4017 110.588 46.3917C113.742 46.309 115.707 44.5687 116.076 41.3688C116.256 39.7762 116.199 33.4306 116.116 31.4996C115.976 28.354 114.295 26.3254 111.083 26.0265C110.284 25.9527 104.974 25.9675 104.515 25.9846C103.833 26.007 103.277 26.4755 103.175 27.3238C103.144 27.5689 103.149 27.8796 103.175 28.1283C103.249 28.9104 103.794 29.4563 104.515 29.4669C105.276 29.4811 109.38 29.4356 110.019 29.4669C110.656 29.4982 111.309 29.5378 111.851 29.8627C112.169 30.0511 112.621 30.5396 112.621 31.3702C112.621 31.3702 112.621 31.7985 112.623 32.4707C112.621 33.5399 112.216 33.8678 111.543 33.8731V33.8743C108.446 33.8571 103.455 33.869 101.375 33.9032C100.655 33.9168 100.09 34.4437 100.033 35.2424C100.015 35.4621 100.015 35.7864 100.033 36.0458C100.09 36.8509 100.668 37.3702 101.375 37.3867C103.338 37.4346 108.57 37.4399 111.531 37.4263C112.202 37.4334 112.614 37.7595 112.616 38.8257H112.634C112.634 39.6415 112.632 40.2133 112.625 40.3108C112.596 40.9488 112.557 41.5992 112.232 42.1403C112.04 42.4581 111.554 42.8881 110.724 42.907C108.356 42.9673 102.488 42.9383 100.066 42.907C99.469 42.9017 98.8011 42.7375 98.411 42.259C98.1179 41.9028 97.9302 41.344 97.8858 40.3693C97.8426 39.3946 97.8912 35.2004 97.8912 35.2004C97.8912 33.6268 97.8894 32.1647 97.8894 31.024C97.8894 29.8479 98.3174 28.465 98.7224 27.6327C99.3091 26.4465 101.538 24.0376 103.05 22.4887C103.39 22.2004 104.021 21.8897 104.865 21.846C109.983 21.846 115.665 21.8277 116.486 21.8017C117.168 21.7804 117.72 21.3078 117.825 20.4607C117.855 20.2156 117.848 20.2292 117.825 19.9799C117.749 19.1942 117.204 18.6502 116.486 18.6389" fill="#E5005A"/>
<path d="M148.625 42.8279C148.022 42.8024 142.397 42.7964 140.947 42.7762C140.347 42.7727 139.784 42.5237 139.39 42.0449C139.098 41.6849 138.803 41.2072 138.758 40.2239C138.713 39.2442 138.776 32.7048 138.729 30.4639C138.713 29.7396 138.184 29.177 137.382 29.1152C137.162 29.1027 136.862 29.098 136.597 29.1152C135.791 29.1776 135.278 29.7551 135.252 30.4639C135.191 32.0929 135.163 37.267 135.224 40.2679C135.306 44.2324 137.828 46.133 140.696 46.2845C141.936 46.3486 147.882 46.3676 148.625 46.3344C149.311 46.2999 149.869 45.8377 149.971 44.9857C150.001 44.7374 149.993 44.4285 149.971 44.1742C149.895 43.3882 149.348 42.8606 148.625 42.8279Z" fill="#E5005A"/>
<path d="M144.555 19.8185C144.546 19.3628 144.543 18.9113 144.536 18.4479C144.525 17.7439 144.004 17.1931 143.221 17.1343C143.006 17.1224 142.69 17.1171 142.432 17.1343C141.645 17.1931 141.137 17.7593 141.119 18.4479C141.106 18.9149 141.099 19.4092 141.09 19.9189C141.057 20.3894 140.844 20.8469 139.809 20.8641C139.615 20.8677 139.067 20.8683 138.69 20.876C137.988 20.8897 137.437 21.4078 137.377 22.1908C137.361 22.4065 137.358 22.5336 137.377 22.7903C137.437 23.5792 138 24.0896 138.69 24.1068C139.12 24.1175 139.577 24.1228 140.044 24.1312C140.894 24.19 141.048 24.5833 141.086 24.9998C141.095 25.6153 141.104 26.3359 141.119 26.7215C141.142 27.3881 141.601 27.9329 142.432 28.0333C142.674 28.066 142.977 28.0594 143.221 28.0333C143.992 27.962 144.524 27.4255 144.536 26.7215C144.543 26.2581 144.546 25.6111 144.555 25.1542C144.575 24.6974 144.649 24.2155 145.563 24.1365C146.121 24.1276 146.603 24.1175 146.962 24.1068C147.632 24.0854 148.173 23.6232 148.275 22.7903C148.308 22.5538 148.299 22.4362 148.275 22.1908C148.202 21.4208 147.668 20.8897 146.962 20.876C146.581 20.8689 146.128 20.8588 145.843 20.8511C144.684 20.8285 144.575 20.3205 144.555 19.8185Z" fill="#E5005A"/>
<path d="M130.456 19.8185C130.454 19.3628 130.449 18.9113 130.44 18.4479C130.427 17.7439 129.909 17.1931 129.125 17.1343C128.91 17.1224 128.592 17.1171 128.334 17.1343C127.549 17.1931 127.04 17.7593 127.023 18.4479C127.011 18.9149 127.005 19.4092 126.994 19.9189C126.959 20.3894 126.747 20.8469 125.714 20.8641C125.519 20.8677 124.972 20.8683 124.592 20.876C123.89 20.8897 123.34 21.4078 123.282 22.1908C123.263 22.4065 123.263 22.5336 123.282 22.7903C123.34 23.5792 123.903 24.0896 124.592 24.1068C125.024 24.1175 125.482 24.1228 125.951 24.1312C126.797 24.19 126.955 24.5833 126.991 24.9998C127 25.6153 127.009 26.3359 127.024 26.7215C127.047 27.3881 127.506 27.9329 128.335 28.0333C128.577 28.066 128.882 28.0594 129.126 28.0333C129.897 27.962 130.427 27.4255 130.44 26.7215C130.449 26.2581 130.455 25.6111 130.456 25.1542C130.478 24.6974 130.556 24.2155 131.468 24.1365C132.024 24.1276 132.506 24.1175 132.868 24.1068C133.537 24.0854 134.078 23.6232 134.18 22.7903C134.211 22.5538 134.203 22.4362 134.18 22.1908C134.107 21.4208 133.571 20.8897 132.868 20.876C132.488 20.8689 132.034 20.8588 131.747 20.8511C130.588 20.8285 130.483 20.3211 130.456 19.8191" fill="#E5005A"/>
<path d="M131.96 29.6116C131.397 29.0299 130.617 29.0014 130.064 29.4452C127.809 31.2466 123.981 34.5237 122.773 35.6097C122.258 36.0684 122.137 36.7891 122.607 37.5091C122.74 37.7129 122.948 37.9505 123.126 38.1276C123.69 38.6837 124.461 38.7508 125.022 38.2939C125.427 37.966 126.064 37.4188 126.294 37.2501C126.528 37.0814 126.928 37.262 126.936 37.7575C126.945 38.2488 126.944 43.9338 126.98 45.0021C127.004 45.6883 127.475 46.2432 128.323 46.3489C128.572 46.378 128.885 46.3727 129.136 46.3489C129.925 46.2729 130.472 45.7221 130.484 45.0021C130.531 42.3232 130.499 34.9099 130.495 34.5308C130.488 34.1518 130.721 33.5095 130.93 33.323C131.14 33.1424 131.878 32.5049 132.313 32.1259C132.86 31.6547 132.952 30.8842 132.481 30.2306C132.353 30.0494 132.144 29.7999 131.96 29.6116Z" fill="#E5005A"/>
<path d="M149.342 29.6641C148.777 29.086 147.997 29.0563 147.444 29.4977C145.189 31.3009 141.756 34.1847 140.549 35.2695C140.036 35.7264 139.913 36.4459 140.383 37.1671C140.517 37.3739 140.722 37.6086 140.903 37.7892C141.464 38.3429 142.237 38.4077 142.8 37.9543C145.054 36.1269 147.529 34.0647 149.696 32.1814C150.24 31.709 150.334 30.9367 149.862 30.2838C149.732 30.1049 149.527 29.853 149.343 29.6635" fill="#E5005A"/>
<path d="M171.126 23.4682C171.212 21.1568 169.378 19.395 167.219 19.395C165.061 19.395 163.272 21.1275 163.318 23.4682C163.318 25.6891 165.063 29.9533 167.219 29.9533C169.376 29.9533 171.041 25.6581 171.126 23.4682Z" fill="#FDD000"/>
<path d="M164.379 31.7073C165.045 29.6577 161.474 26.744 159.416 25.9908C157.245 25.1928 155.004 26.3942 154.337 28.4494C153.671 30.5001 154.763 32.7349 157.004 33.4179C159.115 34.1032 163.711 33.7591 164.379 31.7073Z" fill="#FDD000"/>
<path d="M165.168 34.9528C163.423 33.6858 159.553 36.1812 158.199 37.9045C156.769 39.7232 157.218 42.2267 158.963 43.4937C160.705 44.7642 163.173 44.4172 164.515 42.4972C165.816 40.6997 166.913 36.2232 165.168 34.9528Z" fill="#FDD000"/>
<path d="M168.499 35.2053C166.754 36.4711 167.931 40.9246 169.153 42.7468C170.437 44.6698 172.961 45.0127 174.706 43.7463C176.448 42.4793 176.881 40.0259 175.47 38.1564C174.164 36.3607 170.243 33.9366 168.499 35.2053Z" fill="#FDD000"/>
<path d="M179.808 28.8538C179.144 26.8026 176.941 25.6351 174.73 26.3975C172.616 27.0834 169.1 30.0644 169.767 32.1145C170.431 34.1658 175.033 34.4212 177.14 33.8263C179.368 33.1951 180.473 30.9033 179.808 28.8538Z" fill="#FDD000"/>
</svg>
