<svg width="612" height="204" viewBox="0 0 612 204" fill="none" xmlns="http://www.w3.org/2000/svg">
<path d="M33.6188 196.726C33.4388 197.374 33.3128 197.95 33.3128 198.544C33.3128 199.714 34.4108 200.524 37.0028 200.524C39.4328 200.524 41.7368 200.254 43.3208 199.822L43.3388 202.342C41.7728 202.72 39.6128 202.972 37.0928 202.972C32.9708 202.972 30.9008 201.586 30.9008 199.102C30.9008 198.058 31.1168 197.194 31.2428 196.51L33.6188 196.726ZM42.6908 187.24C43.1408 187.888 43.7888 189.04 44.1308 189.706L42.6728 190.336C42.5468 190.066 42.3848 189.76 42.2228 189.454V191.47C40.9628 191.56 38.7308 191.686 37.0208 191.686C35.1308 191.686 33.5648 191.596 32.1068 191.488V189.094C33.4388 189.256 35.1128 189.328 37.0028 189.328C38.7128 189.328 40.6568 189.22 42.0428 189.094C41.7908 188.626 41.5208 188.176 41.2688 187.816L42.6908 187.24ZM44.8328 186.43C45.3008 187.096 45.9668 188.248 46.2908 188.878L44.8508 189.49C44.4728 188.734 43.8968 187.69 43.3928 187.006L44.8328 186.43ZM46.8118 195.844L46.6498 194.08C47.5138 194.008 48.5578 193.9 49.7098 193.792V192.298H47.2438V190.696H49.7098V189.58H46.9378V187.978H49.7098V186.754H51.6898V187.978H54.2098V189.58H51.6898V190.696H53.9758V192.298H51.6898V193.576C52.5358 193.486 53.3998 193.396 54.2458 193.306L54.2638 194.26C56.0998 193.18 56.5318 191.524 56.6758 189.256H54.6238V187.456H62.7058C62.7058 187.456 62.7058 188.032 62.6878 188.266C62.5258 192.586 62.3458 194.314 61.8778 194.908C61.5178 195.376 61.1398 195.538 60.6178 195.61C60.1678 195.682 59.4118 195.682 58.6198 195.682C58.6018 195.088 58.3678 194.26 58.0618 193.774C58.7098 193.828 59.2858 193.828 59.5558 193.828C59.8078 193.828 59.9518 193.792 60.1138 193.612C60.3658 193.306 60.5098 192.154 60.6358 189.256H58.6738C58.4578 192.298 57.7918 194.53 55.1818 195.934C55.0018 195.574 54.6418 195.07 54.2818 194.692V194.944C51.6358 195.286 48.8458 195.61 46.8118 195.844ZM62.8498 198.922H56.7118C57.8818 200.578 59.9698 201.334 63.3358 201.532C62.8678 202.036 62.3278 202.954 62.0398 203.584C58.6018 203.17 56.5498 202.162 55.1818 200.164C54.2998 201.622 52.2298 202.954 47.6398 203.602C47.3698 203.08 46.8298 202.288 46.4158 201.802C51.0238 201.172 52.7518 200.056 53.3458 198.922H46.8658V197.122H53.6158V196.06H55.7758V197.122H62.8498V198.922ZM65.8378 197.284L67.6018 197.59C67.4218 199.282 67.0438 201.082 66.5218 202.234C66.1438 202 65.3518 201.622 64.8838 201.46C65.4058 200.398 65.6938 198.796 65.8378 197.284ZM69.8518 197.68L71.4358 197.176C71.9218 198.238 72.3898 199.642 72.6058 200.56L70.9138 201.154C70.7698 200.236 70.3018 198.778 69.8518 197.68ZM75.4678 189.796H81.6058C81.6058 189.796 81.6058 190.516 81.5878 190.786C81.3538 198.67 81.1018 201.514 80.3458 202.468C79.8418 203.152 79.3738 203.35 78.6178 203.458C77.9698 203.566 76.8538 203.548 75.8098 203.512C75.7738 202.9 75.4858 201.964 75.0898 201.352C76.2238 201.46 77.2498 201.46 77.7358 201.46C78.0778 201.46 78.2758 201.388 78.4918 201.154C79.0318 200.596 79.3018 197.968 79.4998 191.83H74.5318C74.0458 192.712 73.5418 193.504 73.0018 194.152C72.6418 193.828 71.8498 193.288 71.3098 192.964C71.9398 194.098 72.5158 195.43 72.7138 196.33L71.0938 197.086C71.0398 196.798 70.9498 196.474 70.8418 196.114L69.8158 196.186V203.584H67.9258V196.33L65.2618 196.51L65.0818 194.638L66.4138 194.584C66.6838 194.242 66.9718 193.864 67.2418 193.468C66.7198 192.694 65.8378 191.722 65.0818 191.002L66.0898 189.526C66.2338 189.652 66.3778 189.778 66.5218 189.904C67.0258 188.914 67.5298 187.708 67.8358 186.772L69.7258 187.438C69.0778 188.68 68.3398 190.066 67.6918 191.074C67.9258 191.326 68.1418 191.596 68.3218 191.83C68.9698 190.822 69.5458 189.778 69.9778 188.878L71.7958 189.634C70.7878 191.218 69.5278 193.054 68.3578 194.512L70.1758 194.44C69.9778 194.008 69.7618 193.576 69.5458 193.198L71.0578 192.532L71.1838 192.748C72.5158 191.326 73.5778 189.022 74.1538 186.754L76.3498 187.222C76.1158 188.104 75.8098 188.968 75.4678 189.796ZM77.5018 198.022L75.6478 199.012C75.3058 197.878 74.3698 196.15 73.4518 194.854L75.1618 193.99C76.0978 195.232 77.1238 196.888 77.5018 198.022Z" fill="#E5005A"/>
<path d="M340.948 186.79L342.928 187.438C342.46 188.608 341.902 189.832 341.254 190.984V203.53H339.22V194.116C338.77 194.692 338.32 195.232 337.852 195.718C337.654 195.196 337.06 194.044 336.7 193.522C338.374 191.902 340.012 189.346 340.948 186.79ZM345.322 189.418V191.83H350.596V189.418H345.322ZM353.62 197.284H350.02C351.082 198.85 352.63 200.326 354.142 201.208C353.656 201.622 352.972 202.378 352.63 202.918C351.316 201.982 350.002 200.524 348.976 198.922V203.566H346.816V199.012C345.718 200.596 344.35 201.964 342.928 202.882C342.604 202.36 341.938 201.586 341.452 201.172C343.072 200.326 344.674 198.868 345.79 197.284H342.1V195.34H346.816V193.72H343.288V187.528H352.738V193.72H348.976V195.34H353.62V197.284ZM364.186 196.996H365.95C365.968 196.834 365.968 196.672 365.968 196.51V195.376H364.186V196.996ZM369.784 195.376H367.894V196.564C367.894 196.708 367.894 196.852 367.894 196.996H369.784V195.376ZM364.798 190.894H369.154C368.272 190.174 367.462 189.364 366.904 188.59C366.4 189.346 365.662 190.156 364.798 190.894ZM371.71 198.634H368.488C369.55 200.614 370.9 201.298 372.682 201.856C372.196 202.306 371.692 203.008 371.458 203.638C369.658 202.954 368.236 202.036 367.138 200.074C366.364 201.514 364.906 202.81 362.206 203.656C362.008 203.224 361.414 202.414 361.072 202.072C363.97 201.19 365.176 199.966 365.662 198.634H362.332V193.756H365.968V192.658H363.682V191.74C363.16 192.1 362.62 192.424 362.08 192.694C361.882 192.226 361.522 191.578 361.198 191.11C360.946 191.848 360.694 192.586 360.46 193.198C361.612 194.566 361.846 195.754 361.846 196.798C361.846 197.932 361.612 198.688 361.018 199.102C360.73 199.3 360.37 199.408 359.974 199.462C359.632 199.516 359.2 199.534 358.75 199.516C358.75 198.994 358.588 198.166 358.282 197.644C358.624 197.68 358.894 197.68 359.11 197.662C359.308 197.662 359.506 197.626 359.632 197.536C359.848 197.374 359.938 197.032 359.938 196.51C359.938 195.7 359.668 194.62 358.624 193.432C359.002 192.28 359.398 190.678 359.704 189.436H358.246V203.566H356.392V187.528H360.37L360.676 187.438L362.098 188.266C361.864 189.058 361.576 189.958 361.288 190.84C363.196 189.958 364.996 188.248 365.878 186.772H367.822C369.064 188.482 370.936 189.976 372.808 190.66C372.412 191.164 371.998 191.956 371.71 192.532C371.26 192.316 370.774 192.028 370.306 191.722V192.658H367.894V193.756H371.71V198.634ZM386.722 189.904L385.624 191.506C385.066 190.804 383.824 189.832 382.834 189.166L383.86 187.726C384.868 188.32 386.146 189.238 386.722 189.904ZM382.006 193.684L383.014 192.154C384.058 192.712 385.39 193.576 386.038 194.224L384.958 195.934C384.364 195.268 383.05 194.314 382.006 193.684ZM380.386 187.744L382.186 188.14C381.718 189.58 381.196 191.29 380.746 192.334L379.396 191.956C379.756 190.822 380.188 189.004 380.386 187.744ZM376.894 191.956L375.292 192.388C375.256 191.272 374.896 189.526 374.482 188.23L375.976 187.834C376.444 189.13 376.804 190.84 376.894 191.956ZM381.808 197.878L380.494 199.534C380.224 198.958 379.72 198.022 379.198 197.194V203.512H377.218V197.158C376.642 198.832 375.922 200.506 375.148 201.586C374.968 200.938 374.5 199.966 374.176 199.372C375.076 198.274 375.994 196.348 376.552 194.71H374.5V192.712H377.218V186.826H379.198V192.712H381.862V194.71H379.198V194.836C379.72 195.358 381.43 197.374 381.808 197.878ZM391.33 198.292L389.17 198.688V203.548H387.154V199.048L382.132 199.948L381.808 197.95L387.154 196.996V186.736H389.17V196.636L391.006 196.294L391.33 198.292ZM400.42 196.33L397.9 196.906V201.208C397.9 202.306 397.684 202.828 397.054 203.17C396.424 203.494 395.47 203.566 394.102 203.566C394.03 203.008 393.76 202.126 393.49 201.55C394.3 201.586 395.182 201.586 395.434 201.586C395.704 201.568 395.812 201.478 395.812 201.19V197.374C394.966 197.554 394.174 197.734 393.454 197.878L393.004 195.772C393.796 195.664 394.75 195.484 395.812 195.304V192.154H393.274V190.174H395.812V186.754H397.9V190.174H400.204V192.154H397.9V194.908C398.692 194.746 399.484 194.602 400.276 194.44L400.42 196.33ZM410.104 202.756L407.98 203.548C407.89 203.08 407.746 202.54 407.584 201.964C404.47 202.432 401.212 202.846 398.836 203.188L398.368 200.956C398.926 200.902 399.556 200.848 400.258 200.776C401.32 197.032 402.418 191.578 402.904 187.222L405.244 187.6C404.578 191.92 403.516 196.888 402.472 200.524C403.894 200.38 405.406 200.2 406.918 200.02C406.342 198.49 405.622 196.888 404.92 195.502L406.81 194.836C408.178 197.356 409.6 200.614 410.104 202.756ZM421.138 191.236L421.84 191.344C421.768 190.75 421.696 190.138 421.642 189.526H418.51V187.51H423.46C423.73 192.604 424.81 196.942 428.554 198.814C428.05 199.174 427.276 199.93 426.88 200.452C424.666 199.138 423.352 197.068 422.56 194.548C421.66 197.122 420.292 199.102 418.33 200.47C418.006 200.056 417.178 199.228 416.674 198.85C419.194 197.356 420.58 194.674 421.138 191.236ZM416.674 189.886L414.982 191.308C414.424 190.444 413.146 189.256 412.084 188.464L413.668 187.168C414.748 187.924 416.062 189.04 416.674 189.886ZM416.224 193.738V199.39C416.962 200.596 418.312 201.082 420.184 201.154C422.29 201.244 426.34 201.19 428.734 201.01C428.5 201.514 428.176 202.558 428.068 203.17C425.908 203.278 422.29 203.314 420.148 203.224C417.934 203.134 416.458 202.63 415.288 201.226C414.496 201.928 413.704 202.63 412.714 203.386L411.67 201.154C412.444 200.704 413.344 200.11 414.136 199.498V195.7H412.066V193.738H416.224ZM432.802 203.35L430.894 202.09C431.722 200.704 432.874 198.436 433.792 196.33L435.484 197.608C434.674 199.534 433.738 201.604 432.802 203.35ZM434.836 193.36L433.648 195.16C432.982 194.584 431.56 193.846 430.444 193.396L431.578 191.776C432.676 192.118 434.116 192.784 434.836 193.36ZM431.308 188.446L432.568 186.898C433.63 187.384 434.98 188.194 435.664 188.806L434.332 190.498C433.72 189.868 432.388 188.968 431.308 188.446ZM439.966 190.084V191.416H442.378V190.084H439.966ZM447.292 193.288H442.162V194.368H446.896V201.514C446.896 202.45 446.716 202.936 446.104 203.224C445.492 203.512 444.628 203.53 443.404 203.53C443.368 203.008 443.152 202.252 442.918 201.748C443.584 201.784 444.358 201.784 444.592 201.784C444.826 201.766 444.898 201.694 444.898 201.496V196.222H441.928V199.084H442.81V196.96H444.052V201.226H442.81V200.632H439.552V201.676H438.274V196.96H439.552V199.084H440.362V196.222H437.536V203.548H435.646V194.368H440.11V193.288H435.106V191.416H437.968V190.084H435.664V188.23H437.968V186.772H439.966V188.23H442.378V186.772H444.448V188.23H446.788V190.084H444.448V191.416H447.292V193.288ZM463.312 187.87L464.986 189.112C463.402 191.056 461.08 193.306 458.902 194.674V201.064C458.902 202.306 458.596 202.882 457.714 203.206C456.814 203.53 455.536 203.566 453.808 203.566C453.682 202.918 453.286 201.964 452.962 201.37C454.222 201.442 455.698 201.442 456.112 201.424C456.508 201.424 456.634 201.334 456.634 201.028V192.874H457.84C458.938 192.1 460.054 191.092 460.954 190.12H450.514V188.014H462.79L463.312 187.87Z" fill="#E5005A"/>
<path d="M56 170L62 179H50L56 170Z" fill="#E5005A"/>
<path d="M401 170L407 179H395L401 170Z" fill="#E5005A"/>
<path fill-rule="evenodd" clip-rule="evenodd" d="M476 160L556 80L476 -3.49691e-06L56 0V160H476Z" fill="#F5ECF0"/>
<mask id="mask0_974_19676" style="mask-type:alpha" maskUnits="userSpaceOnUse" x="56" y="0" width="500" height="160">
<path fill-rule="evenodd" clip-rule="evenodd" d="M476 160L556 80L476 0L56 3.49691e-06V160H476Z" fill="#F5ECF0"/>
</mask>
<g mask="url(#mask0_974_19676)">
<path d="M56 160L497 21" stroke="#E5005A" stroke-width="3" stroke-dasharray="0.1 6"/>
</g>
<path d="M364.576 86.696H371.08V89.216H364.576V86.696ZM364.576 90.536H371.08V92.96H364.576V90.536ZM364.576 94.472H371.08V96.992H364.576V94.472ZM375.088 91.904H384.064V94.808H375.088V91.904ZM365.728 82.76H369.424V85.352H365.728V82.76ZM373.12 81.704H381.784V84.536H373.12V81.704ZM373.312 96.56H384.568V99.536H373.312V96.56ZM377.44 89.912H380.752V103.208H377.44V89.912ZM366.976 88.04H369.232V95.384H366.976V88.04ZM380.896 81.704H383.968C383.968 81.704 383.944 82.4 383.92 82.76C383.824 86.528 383.632 88.256 383.104 88.928C382.672 89.48 382.168 89.696 381.544 89.816C380.992 89.912 380.104 89.936 379.144 89.912C379.096 89.048 378.808 87.872 378.376 87.128C379.024 87.2 379.528 87.224 379.84 87.224C380.104 87.224 380.296 87.176 380.464 86.96C380.704 86.648 380.824 85.424 380.896 82.112V81.704ZM374.272 90.056L377.056 90.608C376.672 92.792 375.904 95.024 375.016 96.416C374.44 96.008 373.192 95.384 372.52 95.096C373.384 93.848 373.984 91.904 374.272 90.056ZM364.864 80.456L367.936 81.128C367.072 84.464 365.584 87.776 363.856 89.816C363.328 89.288 362.104 88.232 361.408 87.776C363.016 86.048 364.24 83.264 364.864 80.456ZM363.328 86.696H366.088V93.056C366.088 96.2 365.776 100.592 363.976 103.328C363.472 102.872 362.224 102.08 361.576 101.792C363.208 99.32 363.328 95.744 363.328 93.032V86.696ZM370.144 86.696H372.976V100.064C372.976 101.336 372.76 102.2 371.968 102.704C371.152 103.184 370.168 103.256 368.8 103.256C368.704 102.44 368.248 101.096 367.84 100.328C368.632 100.376 369.496 100.376 369.784 100.376C370.048 100.376 370.144 100.28 370.144 99.992V86.696ZM375.712 82.664H378.808C378.568 86.264 377.872 88.952 374.2 90.584C373.864 89.84 373.072 88.712 372.4 88.184C375.232 87.032 375.544 85.184 375.712 82.664ZM368.608 82.76H369.256L369.688 82.64L371.656 83.84C371.104 85.376 370.168 87.344 369.4 88.592C368.848 88.184 367.912 87.608 367.312 87.296C367.816 86.168 368.368 84.368 368.608 83.288V82.76ZM398.152 91.664L400.936 90.272C402.136 91.904 403.456 94.088 403.936 95.624L400.912 97.184C400.504 95.696 399.304 93.392 398.152 91.664ZM399.328 84.416H407.656V87.704H399.328V84.416ZM406.144 84.416H409.504C409.504 84.416 409.504 85.544 409.48 85.976C409.168 96.392 408.88 100.256 407.872 101.576C407.128 102.608 406.408 102.92 405.328 103.112C404.416 103.28 402.952 103.28 401.536 103.232C401.488 102.248 401.008 100.712 400.36 99.728C401.824 99.848 403.168 99.848 403.816 99.848C404.296 99.848 404.56 99.752 404.848 99.416C405.616 98.624 405.904 94.52 406.144 85.088V84.416ZM399.04 80.456L402.664 81.248C401.68 84.872 400 88.472 398.176 90.68C397.504 90.08 395.944 89.024 395.08 88.544C396.88 86.696 398.32 83.576 399.04 80.456ZM390.688 80.504L393.76 81.56C392.728 83.48 391.624 85.616 390.688 86.96L388.36 86.024C389.2 84.536 390.184 82.232 390.688 80.504ZM393.544 83.408L396.472 84.608C394.648 87.392 392.296 90.68 390.424 92.696L388.336 91.64C390.184 89.456 392.32 86 393.544 83.408ZM387.04 86.552L388.648 84.128C389.896 85.208 391.384 86.72 391.984 87.8L390.232 90.536C389.68 89.384 388.24 87.728 387.04 86.552ZM393.064 89.312L395.488 88.256C396.424 89.888 397.336 92 397.624 93.416L395.008 94.616C394.768 93.224 393.928 90.992 393.064 89.312ZM387.04 90.968C389.32 90.896 392.68 90.752 395.944 90.584L395.92 93.32C392.92 93.584 389.752 93.8 387.328 93.968L387.04 90.968ZM393.376 95.48L395.92 94.64C396.52 96.08 397.144 97.928 397.432 99.152L394.744 100.136C394.528 98.888 393.904 96.944 393.376 95.48ZM387.904 94.808L390.76 95.312C390.568 97.616 390.064 100.064 389.416 101.6C388.816 101.216 387.52 100.616 386.8 100.352C387.424 98.96 387.76 96.8 387.904 94.808ZM390.712 92.576H393.784V103.28H390.712V92.576ZM418.864 89.768V98.816H415.456V92.984H412.984V89.768H418.864ZM418.864 97.304C419.752 98.792 421.384 99.392 423.736 99.488C426.664 99.608 432.136 99.536 435.592 99.224C435.208 100.064 434.656 101.744 434.488 102.776C431.44 102.944 426.664 102.992 423.664 102.848C420.808 102.728 418.912 102.128 417.328 100.28C416.344 101.144 415.336 102.008 414.04 103.04L412.36 99.392C413.416 98.792 414.616 98.072 415.672 97.304H418.864ZM412.888 83.12L415.48 81.032C416.848 82.016 418.6 83.504 419.416 84.608L416.632 86.912C415.936 85.808 414.256 84.2 412.888 83.12ZM422.68 81.296H434.464V84.512H422.68V81.296ZM423.136 86.144H431.368V89.216H423.136V86.144ZM421 81.296H424.36V86.96C424.36 90.488 423.952 95.6 421.528 98.744C420.928 98.192 419.416 97.256 418.6 96.896C420.832 94.088 421 89.936 421 86.912V81.296ZM430.552 86.144H431.2L431.824 86.048L434.056 86.744C432.832 93.368 429.64 97.112 424.48 99.176C424.072 98.288 423.208 96.92 422.512 96.224C426.856 94.832 429.688 91.424 430.552 86.672V86.144ZM426.784 88.4C428.104 92.216 430.864 95 435.496 96.152C434.728 96.848 433.744 98.24 433.264 99.176C428.176 97.568 425.44 94.16 423.712 89.12L426.784 88.4ZM442.552 93.824H459.856V96.8H442.552V93.824ZM452.8 95.72C453.952 98.384 456.4 99.752 460.888 100.088C460.144 100.832 459.232 102.272 458.824 103.232C453.616 102.464 451.24 100.328 449.656 96.176L452.8 95.72ZM449.224 91.136H452.824C452.584 97.544 451.888 101.384 444.208 103.304C443.896 102.44 443.032 101.096 442.336 100.424C448.888 98.984 449.056 96.32 449.224 91.136ZM440.704 85.616H444.208V90.008C444.208 93.824 443.704 99.536 440.896 103.088C440.248 102.512 438.688 101.576 437.8 101.216C440.488 98 440.704 93.224 440.704 89.96V85.616ZM442.408 85.616H458.824V92.096H442.408V89.504H455.392V88.208H442.408V85.616ZM439.312 81.68H459.856V84.8H439.312V81.68ZM474.784 83.792C472.816 86.552 469.24 89.6 465.376 91.664C464.944 90.848 463.936 89.552 463.192 88.832C467.296 86.864 471.088 83.24 472.816 80.384H476.464C479.08 84.128 482.8 87.056 486.64 88.544C485.776 89.432 484.984 90.608 484.336 91.688C480.688 89.744 476.776 86.528 474.784 83.792ZM468.736 87.608H480.856V90.632H468.736V87.608ZM466 92.552H483.52V95.528H466V92.552ZM464.728 99.68H485.056V102.656H464.728V99.68ZM472.864 88.832H476.584V101.144H472.864V88.832ZM467.224 96.272L470.032 95.096C470.896 96.248 471.856 97.832 472.216 98.912L469.216 100.232C468.904 99.176 468.04 97.496 467.224 96.272ZM479.224 95.168L482.56 96.368C481.552 97.808 480.52 99.272 479.704 100.232L477.088 99.152C477.832 98.072 478.744 96.416 479.224 95.168Z" fill="#E5005A"/>
</svg>
