<svg width="612" height="204" viewBox="0 0 612 204" fill="none" xmlns="http://www.w3.org/2000/svg">
<path d="M65.8378 197.284L67.6018 197.59C67.4218 199.282 67.0438 201.082 66.5218 202.234C66.1438 202 65.3518 201.622 64.8838 201.46C65.4058 200.398 65.6938 198.796 65.8378 197.284ZM69.8518 197.68L71.4358 197.176C71.9218 198.238 72.3898 199.642 72.6058 200.56L70.9138 201.154C70.7698 200.236 70.3018 198.778 69.8518 197.68ZM75.4678 189.796H81.6058C81.6058 189.796 81.6058 190.516 81.5878 190.786C81.3538 198.67 81.1018 201.514 80.3458 202.468C79.8418 203.152 79.3738 203.35 78.6178 203.458C77.9698 203.566 76.8538 203.548 75.8098 203.512C75.7738 202.9 75.4858 201.964 75.0898 201.352C76.2238 201.46 77.2498 201.46 77.7358 201.46C78.0778 201.46 78.2758 201.388 78.4918 201.154C79.0318 200.596 79.3018 197.968 79.4998 191.83H74.5318C74.0458 192.712 73.5418 193.504 73.0018 194.152C72.6418 193.828 71.8498 193.288 71.3098 192.964C71.9398 194.098 72.5158 195.43 72.7138 196.33L71.0938 197.086C71.0398 196.798 70.9498 196.474 70.8418 196.114L69.8158 196.186V203.584H67.9258V196.33L65.2618 196.51L65.0818 194.638L66.4138 194.584C66.6838 194.242 66.9718 193.864 67.2418 193.468C66.7198 192.694 65.8378 191.722 65.0818 191.002L66.0898 189.526C66.2338 189.652 66.3778 189.778 66.5218 189.904C67.0258 188.914 67.5298 187.708 67.8358 186.772L69.7258 187.438C69.0778 188.68 68.3398 190.066 67.6918 191.074C67.9258 191.326 68.1418 191.596 68.3218 191.83C68.9698 190.822 69.5458 189.778 69.9778 188.878L71.7958 189.634C70.7878 191.218 69.5278 193.054 68.3578 194.512L70.1758 194.44C69.9778 194.008 69.7618 193.576 69.5458 193.198L71.0578 192.532L71.1838 192.748C72.5158 191.326 73.5778 189.022 74.1538 186.754L76.3498 187.222C76.1158 188.104 75.8098 188.968 75.4678 189.796ZM77.5018 198.022L75.6478 199.012C75.3058 197.878 74.3698 196.15 73.4518 194.854L75.1618 193.99C76.0978 195.232 77.1238 196.888 77.5018 198.022Z" fill="#E5005A"/>
<path d="M46.811 195.844L46.649 194.08C47.513 194.008 48.557 193.9 49.709 193.792V192.298H47.243V190.696H49.709V189.58H46.937V187.978H49.709V186.754H51.689V187.978H54.209V189.58H51.689V190.696H53.975V192.298H51.689V193.576C52.535 193.486 53.399 193.396 54.245 193.306L54.263 194.26C56.099 193.18 56.531 191.524 56.675 189.256H54.623V187.456H62.705C62.705 187.456 62.705 188.032 62.687 188.266C62.525 192.586 62.345 194.314 61.877 194.908C61.517 195.376 61.139 195.538 60.617 195.61C60.167 195.682 59.411 195.682 58.619 195.682C58.601 195.088 58.367 194.26 58.061 193.774C58.709 193.828 59.285 193.828 59.555 193.828C59.807 193.828 59.951 193.792 60.113 193.612C60.365 193.306 60.509 192.154 60.635 189.256H58.673C58.457 192.298 57.791 194.53 55.181 195.934C55.001 195.574 54.641 195.07 54.281 194.692V194.944C51.635 195.286 48.845 195.61 46.811 195.844ZM62.849 198.922H56.711C57.881 200.578 59.969 201.334 63.335 201.532C62.867 202.036 62.327 202.954 62.039 203.584C58.601 203.17 56.549 202.162 55.181 200.164C54.299 201.622 52.229 202.954 47.639 203.602C47.369 203.08 46.829 202.288 46.415 201.802C51.023 201.172 52.751 200.056 53.345 198.922H46.865V197.122H53.615V196.06H55.775V197.122H62.849V198.922Z" fill="#E5005A"/>
<path d="M33.6184 196.726C33.4384 197.374 33.3124 197.95 33.3124 198.544C33.3124 199.714 34.4104 200.524 37.0024 200.524C39.4324 200.524 41.7364 200.254 43.3204 199.822L43.3384 202.342C41.7724 202.72 39.6124 202.972 37.0924 202.972C32.9704 202.972 30.9004 201.586 30.9004 199.102C30.9004 198.058 31.1164 197.194 31.2424 196.51L33.6184 196.726ZM42.6904 187.24C43.1404 187.888 43.7884 189.04 44.1304 189.706L42.6724 190.336C42.5464 190.066 42.3844 189.76 42.2224 189.454V191.47C40.9624 191.56 38.7304 191.686 37.0204 191.686C35.1304 191.686 33.5644 191.596 32.1064 191.488V189.094C33.4384 189.256 35.1124 189.328 37.0024 189.328C38.7124 189.328 40.6564 189.22 42.0424 189.094C41.7904 188.626 41.5204 188.176 41.2684 187.816L42.6904 187.24ZM44.8324 186.43C45.3004 187.096 45.9664 188.248 46.2904 188.878L44.8504 189.49C44.4724 188.734 43.8964 187.69 43.3924 187.006L44.8324 186.43Z" fill="#E5005A"/>
<path d="M463.312 187.87L464.986 189.112C463.402 191.056 461.08 193.306 458.902 194.674V201.064C458.902 202.306 458.596 202.882 457.714 203.206C456.814 203.53 455.536 203.566 453.808 203.566C453.682 202.918 453.286 201.964 452.962 201.37C454.222 201.442 455.698 201.442 456.112 201.424C456.508 201.424 456.634 201.334 456.634 201.028V192.874H457.84C458.938 192.1 460.054 191.092 460.954 190.12H450.514V188.014H462.79L463.312 187.87Z" fill="#E5005A"/>
<path d="M432.801 203.35L430.893 202.09C431.721 200.704 432.873 198.436 433.791 196.33L435.483 197.608C434.673 199.534 433.737 201.604 432.801 203.35ZM434.835 193.36L433.647 195.16C432.981 194.584 431.559 193.846 430.443 193.396L431.577 191.776C432.675 192.118 434.115 192.784 434.835 193.36ZM431.307 188.446L432.567 186.898C433.629 187.384 434.979 188.194 435.663 188.806L434.331 190.498C433.719 189.868 432.387 188.968 431.307 188.446ZM439.965 190.084V191.416H442.377V190.084H439.965ZM447.291 193.288H442.161V194.368H446.895V201.514C446.895 202.45 446.715 202.936 446.103 203.224C445.491 203.512 444.627 203.53 443.403 203.53C443.367 203.008 443.151 202.252 442.917 201.748C443.583 201.784 444.357 201.784 444.591 201.784C444.825 201.766 444.897 201.694 444.897 201.496V196.222H441.927V199.084H442.809V196.96H444.051V201.226H442.809V200.632H439.551V201.676H438.273V196.96H439.551V199.084H440.361V196.222H437.535V203.548H435.645V194.368H440.109V193.288H435.105V191.416H437.967V190.084H435.663V188.23H437.967V186.772H439.965V188.23H442.377V186.772H444.447V188.23H446.787V190.084H444.447V191.416H447.291V193.288Z" fill="#E5005A"/>
<path d="M421.137 191.236L421.839 191.344C421.767 190.75 421.695 190.138 421.641 189.526H418.509V187.51H423.459C423.729 192.604 424.809 196.942 428.553 198.814C428.049 199.174 427.275 199.93 426.879 200.452C424.665 199.138 423.351 197.068 422.559 194.548C421.659 197.122 420.291 199.102 418.329 200.47C418.005 200.056 417.177 199.228 416.673 198.85C419.193 197.356 420.579 194.674 421.137 191.236ZM416.673 189.886L414.981 191.308C414.423 190.444 413.145 189.256 412.083 188.464L413.667 187.168C414.747 187.924 416.061 189.04 416.673 189.886ZM416.223 193.738V199.39C416.961 200.596 418.311 201.082 420.183 201.154C422.289 201.244 426.339 201.19 428.733 201.01C428.499 201.514 428.175 202.558 428.067 203.17C425.907 203.278 422.289 203.314 420.147 203.224C417.933 203.134 416.457 202.63 415.287 201.226C414.495 201.928 413.703 202.63 412.713 203.386L411.669 201.154C412.443 200.704 413.343 200.11 414.135 199.498V195.7H412.065V193.738H416.223Z" fill="#E5005A"/>
<path d="M400.419 196.33L397.899 196.906V201.208C397.899 202.306 397.683 202.828 397.053 203.17C396.423 203.494 395.469 203.566 394.101 203.566C394.029 203.008 393.759 202.126 393.489 201.55C394.299 201.586 395.181 201.586 395.433 201.586C395.703 201.568 395.811 201.478 395.811 201.19V197.374C394.965 197.554 394.173 197.734 393.453 197.878L393.003 195.772C393.795 195.664 394.749 195.484 395.811 195.304V192.154H393.273V190.174H395.811V186.754H397.899V190.174H400.203V192.154H397.899V194.908C398.691 194.746 399.483 194.602 400.275 194.44L400.419 196.33ZM410.103 202.756L407.979 203.548C407.889 203.08 407.745 202.54 407.583 201.964C404.469 202.432 401.211 202.846 398.835 203.188L398.367 200.956C398.925 200.902 399.555 200.848 400.257 200.776C401.319 197.032 402.417 191.578 402.903 187.222L405.243 187.6C404.577 191.92 403.515 196.888 402.471 200.524C403.893 200.38 405.405 200.2 406.917 200.02C406.341 198.49 405.621 196.888 404.919 195.502L406.809 194.836C408.177 197.356 409.599 200.614 410.103 202.756Z" fill="#E5005A"/>
<path d="M386.721 189.904L385.623 191.506C385.065 190.804 383.823 189.832 382.833 189.166L383.859 187.726C384.867 188.32 386.145 189.238 386.721 189.904ZM382.005 193.684L383.013 192.154C384.057 192.712 385.389 193.576 386.037 194.224L384.957 195.934C384.363 195.268 383.049 194.314 382.005 193.684ZM380.385 187.744L382.185 188.14C381.717 189.58 381.195 191.29 380.745 192.334L379.395 191.956C379.755 190.822 380.187 189.004 380.385 187.744ZM376.893 191.956L375.291 192.388C375.255 191.272 374.895 189.526 374.481 188.23L375.975 187.834C376.443 189.13 376.803 190.84 376.893 191.956ZM381.807 197.878L380.493 199.534C380.223 198.958 379.719 198.022 379.197 197.194V203.512H377.217V197.158C376.641 198.832 375.921 200.506 375.147 201.586C374.967 200.938 374.499 199.966 374.175 199.372C375.075 198.274 375.993 196.348 376.551 194.71H374.499V192.712H377.217V186.826H379.197V192.712H381.861V194.71H379.197V194.836C379.719 195.358 381.429 197.374 381.807 197.878ZM391.329 198.292L389.169 198.688V203.548H387.153V199.048L382.131 199.948L381.807 197.95L387.153 196.996V186.736H389.169V196.636L391.005 196.294L391.329 198.292Z" fill="#E5005A"/>
<path d="M364.186 196.996H365.95C365.968 196.834 365.968 196.672 365.968 196.51V195.376H364.186V196.996ZM369.784 195.376H367.894V196.564C367.894 196.708 367.894 196.852 367.894 196.996H369.784V195.376ZM364.798 190.894H369.154C368.272 190.174 367.462 189.364 366.904 188.59C366.4 189.346 365.662 190.156 364.798 190.894ZM371.71 198.634H368.488C369.55 200.614 370.9 201.298 372.682 201.856C372.196 202.306 371.692 203.008 371.458 203.638C369.658 202.954 368.236 202.036 367.138 200.074C366.364 201.514 364.906 202.81 362.206 203.656C362.008 203.224 361.414 202.414 361.072 202.072C363.97 201.19 365.176 199.966 365.662 198.634H362.332V193.756H365.968V192.658H363.682V191.74C363.16 192.1 362.62 192.424 362.08 192.694C361.882 192.226 361.522 191.578 361.198 191.11C360.946 191.848 360.694 192.586 360.46 193.198C361.612 194.566 361.846 195.754 361.846 196.798C361.846 197.932 361.612 198.688 361.018 199.102C360.73 199.3 360.37 199.408 359.974 199.462C359.632 199.516 359.2 199.534 358.75 199.516C358.75 198.994 358.588 198.166 358.282 197.644C358.624 197.68 358.894 197.68 359.11 197.662C359.308 197.662 359.506 197.626 359.632 197.536C359.848 197.374 359.938 197.032 359.938 196.51C359.938 195.7 359.668 194.62 358.624 193.432C359.002 192.28 359.398 190.678 359.704 189.436H358.246V203.566H356.392V187.528H360.37L360.676 187.438L362.098 188.266C361.864 189.058 361.576 189.958 361.288 190.84C363.196 189.958 364.996 188.248 365.878 186.772H367.822C369.064 188.482 370.936 189.976 372.808 190.66C372.412 191.164 371.998 191.956 371.71 192.532C371.26 192.316 370.774 192.028 370.306 191.722V192.658H367.894V193.756H371.71V198.634Z" fill="#E5005A"/>
<path d="M340.947 186.79L342.927 187.438C342.459 188.608 341.901 189.832 341.253 190.984V203.53H339.219V194.116C338.769 194.692 338.319 195.232 337.851 195.718C337.653 195.196 337.059 194.044 336.699 193.522C338.373 191.902 340.011 189.346 340.947 186.79ZM345.321 189.418V191.83H350.595V189.418H345.321ZM353.619 197.284H350.019C351.081 198.85 352.629 200.326 354.141 201.208C353.655 201.622 352.971 202.378 352.629 202.918C351.315 201.982 350.001 200.524 348.975 198.922V203.566H346.815V199.012C345.717 200.596 344.349 201.964 342.927 202.882C342.603 202.36 341.937 201.586 341.451 201.172C343.071 200.326 344.673 198.868 345.789 197.284H342.099V195.34H346.815V193.72H343.287V187.528H352.737V193.72H348.975V195.34H353.619V197.284Z" fill="#E5005A"/>
<path d="M56 170L62 179H50L56 170Z" fill="#E5005A"/>
<path d="M401 170L407 179H395L401 170Z" fill="#E5005A"/>
<path fill-rule="evenodd" clip-rule="evenodd" d="M476 160L556 80L476 0L56 3.49691e-06V160H476Z" fill="#F5ECF0"/>
<mask id="mask0_1830_26130" style="mask-type:alpha" maskUnits="userSpaceOnUse" x="56" y="0" width="500" height="160">
<path fill-rule="evenodd" clip-rule="evenodd" d="M476 160L556 80L476 0L56 3.49691e-06V160H476Z" fill="#F5ECF0"/>
</mask>
<g mask="url(#mask0_1830_26130)">
<path fill-rule="evenodd" clip-rule="evenodd" d="M497.451 22.4306L497.403 22.4456C496.613 22.6947 495.77 22.256 495.521 21.4659C495.272 20.6758 495.711 19.8334 496.501 19.5844L496.549 19.5693L497.451 22.4306ZM492.675 22.363C492.924 23.1532 492.486 23.9955 491.695 24.2446L491.6 24.2746C490.81 24.5236 489.968 24.085 489.719 23.2949C489.47 22.5048 489.908 21.6624 490.698 21.4133L490.794 21.3833C491.584 21.1343 492.426 21.5729 492.675 22.363ZM486.872 24.192C487.122 24.9821 486.683 25.8245 485.893 26.0735L485.798 26.1035C485.008 26.3526 484.165 25.9139 483.916 25.1238C483.667 24.3337 484.106 23.4913 484.896 23.2423L484.991 23.2123C485.781 22.9633 486.623 23.4019 486.872 24.192ZM481.07 26.0209C481.319 26.8111 480.88 27.6534 480.09 27.9025L479.995 27.9325C479.205 28.1815 478.363 27.7429 478.113 26.9528C477.864 26.1627 478.303 25.3203 479.093 25.0712L479.188 25.0412C479.978 24.7922 480.821 25.2308 481.07 26.0209ZM475.267 27.8499C475.516 28.64 475.078 29.4824 474.288 29.7314L474.192 29.7614C473.402 30.0105 472.56 29.5718 472.311 28.7817C472.062 27.9916 472.5 27.1492 473.291 26.9002L473.386 26.8702C474.176 26.6212 475.018 27.0598 475.267 27.8499ZM469.465 29.6788C469.714 30.4689 469.275 31.3113 468.485 31.5604L468.39 31.5904C467.6 31.8394 466.757 31.4008 466.508 30.6107C466.259 29.8206 466.698 28.9782 467.488 28.7291L467.583 28.6991C468.373 28.4501 469.216 28.8887 469.465 29.6788ZM463.662 31.5078C463.911 32.2979 463.472 33.1403 462.682 33.3893L462.587 33.4193C461.797 33.6683 460.955 33.2297 460.706 32.4396C460.457 31.6495 460.895 30.8071 461.685 30.5581L461.78 30.5281C462.571 30.2791 463.413 30.7177 463.662 31.5078ZM457.859 33.3367C458.108 34.1268 457.67 34.9692 456.88 35.2183L456.785 35.2483C455.994 35.4973 455.152 35.0587 454.903 34.2686C454.654 33.4784 455.093 32.6361 455.883 32.387L455.978 32.357C456.768 32.108 457.61 32.5466 457.859 33.3367ZM452.057 35.1657C452.306 35.9558 451.867 36.7982 451.077 37.0472L450.982 37.0772C450.192 37.3262 449.349 36.8876 449.1 36.0975C448.851 35.3074 449.29 34.465 450.08 34.216L450.175 34.186C450.965 33.937 451.808 34.3756 452.057 35.1657ZM446.254 36.9946C446.503 37.7847 446.064 38.6271 445.274 38.8762L445.179 38.9061C444.389 39.1552 443.547 38.7166 443.298 37.9265C443.049 37.1363 443.487 36.2939 444.277 36.0449L444.372 36.0149C445.163 35.7659 446.005 36.2045 446.254 36.9946ZM440.451 38.8236C440.7 39.6137 440.262 40.4561 439.472 40.7051L439.377 40.7351C438.586 40.9841 437.744 40.5455 437.495 39.7554C437.246 38.9653 437.685 38.1229 438.475 37.8739L438.57 37.8439C439.36 37.5948 440.202 38.0335 440.451 38.8236ZM434.649 40.6525C434.898 41.4426 434.459 42.285 433.669 42.5341L433.574 42.564C432.784 42.8131 431.941 42.3745 431.692 41.5843C431.443 40.7942 431.882 39.9518 432.672 39.7028L432.767 39.6728C433.557 39.4238 434.4 39.8624 434.649 40.6525ZM428.846 42.4815C429.095 43.2716 428.657 44.114 427.866 44.363L427.771 44.393C426.981 44.642 426.139 44.2034 425.89 43.4133C425.641 42.6232 426.079 41.7808 426.87 41.5318L426.965 41.5018C427.755 41.2527 428.597 41.6914 428.846 42.4815ZM423.044 44.3104C423.293 45.1005 422.854 45.9429 422.064 46.192L421.969 46.2219C421.179 46.471 420.336 46.0324 420.087 45.2422C419.838 44.4521 420.277 43.6097 421.067 43.3607L421.162 43.3307C421.952 43.0817 422.794 43.5203 423.044 44.3104ZM417.241 46.1394C417.49 46.9295 417.051 47.7719 416.261 48.0209L416.166 48.0509C415.376 48.2999 414.534 47.8613 414.285 47.0712C414.035 46.2811 414.474 45.4387 415.264 45.1897L415.359 45.1597C416.149 44.9106 416.992 45.3493 417.241 46.1394ZM411.438 47.9683C411.687 48.7584 411.249 49.6008 410.459 49.8499L410.363 49.8798C409.573 50.1289 408.731 49.6903 408.482 48.9001C408.233 48.11 408.671 47.2676 409.462 47.0186L409.557 46.9886C410.347 46.7396 411.189 47.1782 411.438 47.9683ZM405.636 49.7973C405.885 50.5874 405.446 51.4298 404.656 51.6788L404.561 51.7088C403.771 51.9578 402.928 51.5192 402.679 50.7291C402.43 49.939 402.869 49.0966 403.659 48.8476L403.754 48.8176C404.544 48.5685 405.387 49.0072 405.636 49.7973ZM399.833 51.6262C400.082 52.4163 399.643 53.2587 398.853 53.5078L398.758 53.5377C397.968 53.7868 397.126 53.3481 396.877 52.558C396.628 51.7679 397.066 50.9255 397.856 50.6765L397.951 50.6465C398.742 50.3975 399.584 50.8361 399.833 51.6262ZM394.03 53.4552C394.279 54.2453 393.841 55.0877 393.051 55.3367L392.956 55.3667C392.165 55.6157 391.323 55.1771 391.074 54.387C390.825 53.5969 391.264 52.7545 392.054 52.5054L392.149 52.4755C392.939 52.2264 393.781 52.6651 394.03 53.4552ZM388.228 55.2841C388.477 56.0742 388.038 56.9166 387.248 57.1657L387.153 57.1956C386.363 57.4447 385.52 57.006 385.271 56.2159C385.022 55.4258 385.461 54.5834 386.251 54.3344L386.346 54.3044C387.136 54.0554 387.979 54.494 388.228 55.2841ZM382.425 57.1131C382.674 57.9032 382.236 58.7456 381.445 58.9946L381.35 59.0246C380.56 59.2736 379.718 58.835 379.469 58.0449C379.22 57.2548 379.658 56.4124 380.448 56.1633L380.544 56.1334C381.334 55.8843 382.176 56.323 382.425 57.1131ZM376.622 58.942C376.871 59.7321 376.433 60.5745 375.643 60.8235L375.548 60.8535C374.758 61.1026 373.915 60.6639 373.666 59.8738C373.417 59.0837 373.856 58.2413 374.646 57.9923L374.741 57.9623C375.531 57.7133 376.373 58.1519 376.622 58.942ZM370.82 60.771C371.069 61.5611 370.63 62.4035 369.84 62.6525L369.745 62.6825C368.955 62.9315 368.113 62.4929 367.863 61.7028C367.614 60.9127 368.053 60.0703 368.843 59.8212L368.938 59.7913C369.728 59.5422 370.571 59.9808 370.82 60.771ZM365.017 62.5999C365.266 63.39 364.828 64.2324 364.038 64.4814L363.942 64.5114C363.152 64.7605 362.31 64.3218 362.061 63.5317C361.812 62.7416 362.25 61.8992 363.041 61.6502L363.136 61.6202C363.926 61.3712 364.768 61.8098 365.017 62.5999ZM359.215 64.4288C359.464 65.219 359.025 66.0614 358.235 66.3104L358.14 66.3404C357.35 66.5894 356.507 66.1508 356.258 65.3607C356.009 64.5706 356.448 63.7282 357.238 63.4791L357.333 63.4492C358.123 63.2001 358.966 63.6387 359.215 64.4288ZM353.412 66.2578C353.661 67.0479 353.222 67.8903 352.432 68.1393L352.337 68.1693C351.547 68.4184 350.705 67.9797 350.456 67.1896C350.207 66.3995 350.645 65.5571 351.435 65.3081L351.53 65.2781C352.32 65.0291 353.163 65.4677 353.412 66.2578ZM347.609 68.0867C347.858 68.8769 347.42 69.7192 346.63 69.9683L346.534 69.9983C345.744 70.2473 344.902 69.8087 344.653 69.0186C344.404 68.2285 344.843 67.3861 345.633 67.137L345.728 67.107C346.518 66.858 347.36 67.2966 347.609 68.0867ZM341.807 69.9157C342.056 70.7058 341.617 71.5482 340.827 71.7972L340.732 71.8272C339.942 72.0763 339.099 71.6376 338.85 70.8475C338.601 70.0574 339.04 69.215 339.83 68.966L339.925 68.936C340.715 68.687 341.558 69.1256 341.807 69.9157ZM336.004 71.7446C336.253 72.5348 335.814 73.3771 335.024 73.6262L334.929 73.6562C334.139 73.9052 333.297 73.4666 333.048 72.6765C332.799 71.8864 333.237 71.044 334.027 70.7949L334.122 70.7649C334.913 70.5159 335.755 70.9545 336.004 71.7446ZM330.201 73.5736C330.45 74.3637 330.012 75.2061 329.222 75.4551L329.127 75.4851C328.336 75.7341 327.494 75.2955 327.245 74.5054C326.996 73.7153 327.435 72.8729 328.225 72.6239L328.32 72.5939C329.11 72.3449 329.952 72.7835 330.201 73.5736ZM324.399 75.4025C324.648 76.1926 324.209 77.035 323.419 77.2841L323.324 77.3141C322.534 77.5631 321.691 77.1245 321.442 76.3344C321.193 75.5442 321.632 74.7019 322.422 74.4528L322.517 74.4228C323.307 74.1738 324.15 74.6124 324.399 75.4025ZM318.596 77.2315C318.845 78.0216 318.407 78.864 317.616 79.113L317.521 79.143C316.731 79.392 315.889 78.9534 315.64 78.1633C315.391 77.3732 315.829 76.5308 316.619 76.2818L316.715 76.2518C317.505 76.0028 318.347 76.4414 318.596 77.2315ZM312.793 79.0604C313.043 79.8505 312.604 80.6929 311.814 80.942L311.719 80.972C310.929 81.221 310.086 80.7824 309.837 79.9923C309.588 79.2021 310.027 78.3597 310.817 78.1107L310.912 78.0807C311.702 77.8317 312.544 78.2703 312.793 79.0604ZM306.991 80.8894C307.24 81.6795 306.801 82.5219 306.011 82.7709L305.916 82.8009C305.126 83.0499 304.284 82.6113 304.035 81.8212C303.785 81.0311 304.224 80.1887 305.014 79.9397L305.109 79.9097C305.899 79.6607 306.742 80.0993 306.991 80.8894ZM301.188 82.7183C301.437 83.5084 300.999 84.3508 300.209 84.5999L300.113 84.6299C299.323 84.8789 298.481 84.4403 298.232 83.6502C297.983 82.86 298.421 82.0176 299.212 81.7686L299.307 81.7386C300.097 81.4896 300.939 81.9282 301.188 82.7183ZM295.386 84.5473C295.635 85.3374 295.196 86.1798 294.406 86.4288L294.311 86.4588C293.521 86.7078 292.678 86.2692 292.429 85.4791C292.18 84.689 292.619 83.8466 293.409 83.5976L293.504 83.5676C294.294 83.3185 295.137 83.7572 295.386 84.5473ZM289.583 86.3762C289.832 87.1663 289.393 88.0087 288.603 88.2578L288.508 88.2877C287.718 88.5368 286.876 88.0981 286.627 87.308C286.378 86.5179 286.816 85.6755 287.606 85.4265L287.701 85.3965C288.492 85.1475 289.334 85.5861 289.583 86.3762ZM283.78 88.2052C284.029 88.9953 283.591 89.8377 282.801 90.0867L282.706 90.1167C281.915 90.3657 281.073 89.9271 280.824 89.137C280.575 88.3469 281.014 87.5045 281.804 87.2554L281.899 87.2255C282.689 86.9764 283.531 87.415 283.78 88.2052ZM277.978 90.0341C278.227 90.8242 277.788 91.6666 276.998 91.9156L276.903 91.9456C276.113 92.1947 275.27 91.756 275.021 90.9659C274.772 90.1758 275.211 89.3334 276.001 89.0844L276.096 89.0544C276.886 88.8054 277.729 89.244 277.978 90.0341ZM272.175 91.863C272.424 92.6532 271.986 93.4955 271.195 93.7446L271.1 93.7746C270.31 94.0236 269.468 93.585 269.219 92.7949C268.97 92.0048 269.408 91.1624 270.198 90.9133L270.294 90.8833C271.084 90.6343 271.926 91.0729 272.175 91.863ZM266.373 93.692C266.622 94.4821 266.183 95.3245 265.393 95.5735L265.298 95.6035C264.508 95.8525 263.665 95.4139 263.416 94.6238C263.167 93.8337 263.606 92.9913 264.396 92.7423L264.491 92.7123C265.281 92.4632 266.123 92.9019 266.373 93.692ZM260.57 95.5209C260.819 96.311 260.38 97.1534 259.59 97.4025L259.495 97.4324C258.705 97.6815 257.863 97.2429 257.614 96.4528C257.365 95.6626 257.803 94.8202 258.593 94.5712L258.688 94.5412C259.478 94.2922 260.321 94.7308 260.57 95.5209ZM254.767 97.3499C255.016 98.14 254.578 98.9824 253.788 99.2314L253.692 99.2614C252.902 99.5104 252.06 99.0718 251.811 98.2817C251.562 97.4916 252.001 96.6492 252.791 96.4002L252.886 96.3702C253.676 96.1211 254.518 96.5598 254.767 97.3499ZM248.965 99.1788C249.214 99.9689 248.775 100.811 247.985 101.06L247.89 101.09C247.1 101.339 246.257 100.901 246.008 100.111C245.759 99.3205 246.198 98.4781 246.988 98.2291L247.083 98.1991C247.873 97.9501 248.716 98.3887 248.965 99.1788ZM243.162 101.008C243.411 101.798 242.972 102.64 242.182 102.889L242.087 102.919C241.297 103.168 240.455 102.73 240.206 101.94C239.957 101.149 240.395 100.307 241.185 100.058L241.281 100.028C242.071 99.779 242.913 100.218 243.162 101.008ZM237.359 102.837C237.608 103.627 237.17 104.469 236.38 104.718L236.285 104.748C235.495 104.997 234.652 104.559 234.403 103.769C234.154 102.978 234.593 102.136 235.383 101.887L235.478 101.857C236.268 101.608 237.11 102.047 237.359 102.837ZM231.557 104.666C231.806 105.456 231.367 106.298 230.577 106.547L230.482 106.577C229.692 106.826 228.849 106.388 228.6 105.597C228.351 104.807 228.79 103.965 229.58 103.716L229.675 103.686C230.465 103.437 231.308 103.876 231.557 104.666ZM225.754 106.495C226.003 107.285 225.565 108.127 224.774 108.376L224.679 108.406C223.889 108.655 223.047 108.217 222.798 107.426C222.549 106.636 222.987 105.794 223.778 105.545L223.873 105.515C224.663 105.266 225.505 105.704 225.754 106.495ZM219.952 108.324C220.201 109.114 219.762 109.956 218.972 110.205L218.877 110.235C218.087 110.484 217.244 110.045 216.995 109.255C216.746 108.465 217.185 107.623 217.975 107.374L218.07 107.344C218.86 107.095 219.703 107.533 219.952 108.324ZM214.149 110.152C214.398 110.943 213.959 111.785 213.169 112.034L213.074 112.064C212.284 112.313 211.442 111.874 211.193 111.084C210.944 110.294 211.382 109.452 212.172 109.203L212.267 109.173C213.058 108.924 213.9 109.362 214.149 110.152ZM208.346 111.981C208.595 112.772 208.157 113.614 207.367 113.863L207.272 113.893C206.481 114.142 205.639 113.703 205.39 112.913C205.141 112.123 205.58 111.281 206.37 111.032L206.465 111.002C207.255 110.753 208.097 111.191 208.346 111.981ZM202.544 113.81C202.793 114.6 202.354 115.443 201.564 115.692L201.469 115.722C200.679 115.971 199.836 115.532 199.587 114.742C199.338 113.952 199.777 113.11 200.567 112.861L200.662 112.831C201.452 112.582 202.295 113.02 202.544 113.81ZM196.741 115.639C196.99 116.429 196.551 117.272 195.761 117.521L195.666 117.551C194.876 117.8 194.034 117.361 193.785 116.571C193.536 115.781 193.974 114.939 194.764 114.69L194.86 114.66C195.65 114.411 196.492 114.849 196.741 115.639ZM190.938 117.468C191.188 118.258 190.749 119.101 189.959 119.35L189.864 119.38C189.074 119.629 188.231 119.19 187.982 118.4C187.733 117.61 188.172 116.768 188.962 116.519L189.057 116.489C189.847 116.24 190.689 116.678 190.938 117.468ZM185.136 119.297C185.385 120.087 184.946 120.93 184.156 121.179L184.061 121.209C183.271 121.458 182.429 121.019 182.179 120.229C181.93 119.439 182.369 118.597 183.159 118.347L183.254 118.317C184.044 118.068 184.887 118.507 185.136 119.297ZM179.333 121.126C179.582 121.916 179.144 122.759 178.354 123.008L178.258 123.038C177.468 123.287 176.626 122.848 176.377 122.058C176.128 121.268 176.566 120.425 177.357 120.176L177.452 120.146C178.242 119.897 179.084 120.336 179.333 121.126ZM173.531 122.955C173.78 123.745 173.341 124.588 172.551 124.837L172.456 124.867C171.666 125.116 170.823 124.677 170.574 123.887C170.325 123.097 170.764 122.254 171.554 122.005L171.649 121.975C172.439 121.726 173.282 122.165 173.531 122.955ZM167.728 124.784C167.977 125.574 167.538 126.417 166.748 126.666L166.653 126.696C165.863 126.945 165.021 126.506 164.772 125.716C164.523 124.926 164.961 124.083 165.751 123.834L165.846 123.804C166.637 123.555 167.479 123.994 167.728 124.784ZM161.925 126.613C162.174 127.403 161.736 128.245 160.946 128.495L160.85 128.525C160.06 128.774 159.218 128.335 158.969 127.545C158.72 126.755 159.159 125.912 159.949 125.663L160.044 125.633C160.834 125.384 161.676 125.823 161.925 126.613ZM156.123 128.442C156.372 129.232 155.933 130.074 155.143 130.323L155.048 130.353C154.258 130.602 153.415 130.164 153.166 129.374C152.917 128.584 153.356 127.741 154.146 127.492L154.241 127.462C155.031 127.213 155.874 127.652 156.123 128.442ZM150.32 130.271C150.569 131.061 150.13 131.903 149.34 132.152L149.245 132.182C148.455 132.431 147.613 131.993 147.364 131.203C147.115 130.413 147.553 129.57 148.343 129.321L148.439 129.291C149.229 129.042 150.071 129.481 150.32 130.271ZM144.517 132.1C144.766 132.89 144.328 133.732 143.538 133.981L143.443 134.011C142.652 134.26 141.81 133.822 141.561 133.032C141.312 132.242 141.751 131.399 142.541 131.15L142.636 131.12C143.426 130.871 144.268 131.31 144.517 132.1ZM138.715 133.929C138.964 134.719 138.525 135.561 137.735 135.81L137.64 135.84C136.85 136.089 136.007 135.651 135.758 134.861C135.509 134.07 135.948 133.228 136.738 132.979L136.833 132.949C137.623 132.7 138.466 133.139 138.715 133.929ZM132.912 135.758C133.161 136.548 132.723 137.39 131.932 137.639L131.837 137.669C131.047 137.918 130.205 137.48 129.956 136.69C129.707 135.899 130.145 135.057 130.935 134.808L131.031 134.778C131.821 134.529 132.663 134.968 132.912 135.758ZM127.11 137.587C127.359 138.377 126.92 139.219 126.13 139.468L126.035 139.498C125.245 139.747 124.402 139.309 124.153 138.518C123.904 137.728 124.343 136.886 125.133 136.637L125.228 136.607C126.018 136.358 126.86 136.797 127.11 137.587ZM121.307 139.416C121.556 140.206 121.117 141.048 120.327 141.297L120.232 141.327C119.442 141.576 118.6 141.138 118.351 140.347C118.101 139.557 118.54 138.715 119.33 138.466L119.425 138.436C120.215 138.187 121.058 138.626 121.307 139.416ZM115.504 141.245C115.753 142.035 115.315 142.877 114.525 143.126L114.429 143.156C113.639 143.405 112.797 142.966 112.548 142.176C112.299 141.386 112.737 140.544 113.528 140.295L113.623 140.265C114.413 140.016 115.255 140.454 115.504 141.245ZM109.702 143.074C109.951 143.864 109.512 144.706 108.722 144.955L108.627 144.985C107.837 145.234 106.994 144.795 106.745 144.005C106.496 143.215 106.935 142.373 107.725 142.124L107.82 142.094C108.61 141.845 109.453 142.283 109.702 143.074ZM103.899 144.902C104.148 145.693 103.709 146.535 102.919 146.784L102.824 146.814C102.034 147.063 101.192 146.624 100.943 145.834C100.694 145.044 101.132 144.202 101.922 143.953L102.017 143.923C102.808 143.674 103.65 144.112 103.899 144.902ZM98.0964 146.731C98.3454 147.522 97.9068 148.364 97.1167 148.613L97.0215 148.643C96.2314 148.892 95.389 148.453 95.14 147.663C94.891 146.873 95.3296 146.031 96.1197 145.782L96.2148 145.752C97.0049 145.503 97.8473 145.941 98.0964 146.731ZM92.2937 148.56C92.5428 149.35 92.1041 150.193 91.314 150.442L91.2189 150.472C90.4288 150.721 89.5864 150.282 89.3374 149.492C89.0883 148.702 89.5269 147.86 90.3171 147.611L90.4122 147.581C91.2023 147.332 92.0447 147.77 92.2937 148.56ZM86.4911 150.389C86.7401 151.179 86.3015 152.022 85.5114 152.271L85.4163 152.301C84.6262 152.55 83.7838 152.111 83.5347 151.321C83.2857 150.531 83.7243 149.689 84.5144 149.44L84.6096 149.41C85.3997 149.161 86.2421 149.599 86.4911 150.389ZM80.6885 152.218C80.9375 153.008 80.4989 153.851 79.7088 154.1L79.6136 154.13C78.8235 154.379 77.9811 153.94 77.7321 153.15C77.4831 152.36 77.9217 151.518 78.7118 151.269L78.8069 151.239C79.597 150.99 80.4394 151.428 80.6885 152.218ZM74.8858 154.047C75.1349 154.837 74.6962 155.68 73.9061 155.929L73.811 155.959C73.0209 156.208 72.1785 155.769 71.9295 154.979C71.6804 154.189 72.1191 153.347 72.9092 153.097L73.0043 153.068C73.7944 152.818 74.6368 153.257 74.8858 154.047ZM69.0832 155.876C69.3322 156.666 68.8936 157.509 68.1035 157.758L68.0084 157.788C67.2183 158.037 66.3759 157.598 66.1268 156.808C65.8778 156.018 66.3164 155.175 67.1065 154.926L67.2017 154.896C67.9918 154.647 68.8342 155.086 69.0832 155.876ZM63.2806 157.705C63.5296 158.495 63.091 159.338 62.3009 159.587L62.2057 159.617C61.4156 159.866 60.5732 159.427 60.3242 158.637C60.0752 157.847 60.5138 157.004 61.3039 156.755L61.399 156.725C62.1891 156.476 63.0315 156.915 63.2806 157.705ZM57.4779 159.534C57.727 160.324 57.2883 161.167 56.4982 161.416L56.4507 161.431L55.5488 158.569L55.5964 158.554C56.3865 158.305 57.2289 158.744 57.4779 159.534Z" fill="#E5005A"/>
</g>
<path d="M474.783 83.792C472.815 86.552 469.239 89.6 465.375 91.664C464.943 90.848 463.935 89.552 463.191 88.832C467.295 86.864 471.087 83.24 472.815 80.384H476.463C479.079 84.128 482.799 87.056 486.639 88.544C485.775 89.432 484.983 90.608 484.335 91.688C480.687 89.744 476.775 86.528 474.783 83.792ZM468.735 87.608H480.855V90.632H468.735V87.608ZM465.999 92.552H483.519V95.528H465.999V92.552ZM464.727 99.68H485.055V102.656H464.727V99.68ZM472.863 88.832H476.583V101.144H472.863V88.832ZM467.223 96.272L470.031 95.096C470.895 96.248 471.855 97.832 472.215 98.912L469.215 100.232C468.903 99.176 468.039 97.496 467.223 96.272ZM479.223 95.168L482.559 96.368C481.551 97.808 480.519 99.272 479.703 100.232L477.087 99.152C477.831 98.072 478.743 96.416 479.223 95.168Z" fill="#E5005A"/>
<path d="M442.551 93.8239H459.855V96.7999H442.551V93.8239ZM452.799 95.7199C453.951 98.3839 456.399 99.7519 460.887 100.088C460.143 100.832 459.231 102.272 458.823 103.232C453.615 102.464 451.239 100.328 449.655 96.1759L452.799 95.7199ZM449.223 91.1359H452.823C452.583 97.5439 451.887 101.384 444.207 103.304C443.895 102.44 443.031 101.096 442.335 100.424C448.887 98.9839 449.055 96.3199 449.223 91.1359ZM440.703 85.6159H444.207V90.0079C444.207 93.8239 443.703 99.5359 440.895 103.088C440.247 102.512 438.687 101.576 437.799 101.216C440.487 97.9999 440.703 93.2239 440.703 89.9599V85.6159ZM442.407 85.6159H458.823V92.0959H442.407V89.5039H455.391V88.2079H442.407V85.6159ZM439.311 81.6799H459.855V84.7999H439.311V81.6799Z" fill="#E5005A"/>
<path d="M418.863 89.768V98.816H415.455V92.984H412.983V89.768H418.863ZM418.863 97.304C419.751 98.792 421.383 99.392 423.735 99.488C426.663 99.608 432.135 99.536 435.591 99.224C435.207 100.064 434.655 101.744 434.487 102.776C431.439 102.944 426.663 102.992 423.663 102.848C420.807 102.728 418.911 102.128 417.327 100.28C416.343 101.144 415.335 102.008 414.039 103.04L412.359 99.392C413.415 98.792 414.615 98.072 415.671 97.304H418.863ZM412.887 83.12L415.479 81.032C416.847 82.016 418.599 83.504 419.415 84.608L416.631 86.912C415.935 85.808 414.255 84.2 412.887 83.12ZM422.679 81.296H434.463V84.512H422.679V81.296ZM423.135 86.144H431.367V89.216H423.135V86.144ZM420.999 81.296H424.359V86.96C424.359 90.488 423.951 95.6 421.527 98.744C420.927 98.192 419.415 97.256 418.599 96.896C420.831 94.088 420.999 89.936 420.999 86.912V81.296ZM430.551 86.144H431.199L431.823 86.048L434.055 86.744C432.831 93.368 429.639 97.112 424.479 99.176C424.071 98.288 423.207 96.92 422.511 96.224C426.855 94.832 429.687 91.424 430.551 86.672V86.144ZM426.783 88.4C428.103 92.216 430.863 95 435.495 96.152C434.727 96.848 433.743 98.24 433.263 99.176C428.175 97.568 425.439 94.16 423.711 89.12L426.783 88.4Z" fill="#E5005A"/>
<path d="M398.151 91.6641L400.935 90.2721C402.135 91.9041 403.455 94.0881 403.935 95.6241L400.911 97.1841C400.503 95.6961 399.303 93.3921 398.151 91.6641ZM399.327 84.4161H407.655V87.7041H399.327V84.4161ZM406.143 84.4161H409.503C409.503 84.4161 409.503 85.5441 409.479 85.9761C409.167 96.3921 408.879 100.256 407.871 101.576C407.127 102.608 406.407 102.92 405.327 103.112C404.415 103.28 402.951 103.28 401.535 103.232C401.487 102.248 401.007 100.712 400.359 99.7281C401.823 99.8481 403.167 99.8481 403.815 99.8481C404.295 99.8481 404.559 99.7521 404.847 99.4161C405.615 98.6241 405.903 94.5201 406.143 85.0881V84.4161ZM399.039 80.4561L402.663 81.2481C401.679 84.8721 399.999 88.4721 398.175 90.6801C397.503 90.0801 395.943 89.0241 395.079 88.5441C396.879 86.6961 398.319 83.5761 399.039 80.4561ZM390.687 80.5041L393.759 81.5601C392.727 83.4801 391.623 85.6161 390.687 86.9601L388.359 86.0241C389.199 84.5361 390.183 82.2321 390.687 80.5041ZM393.543 83.4081L396.471 84.6081C394.647 87.3921 392.295 90.6801 390.423 92.6961L388.335 91.6401C390.183 89.4561 392.319 86.0001 393.543 83.4081ZM387.039 86.5521L388.647 84.1281C389.895 85.2081 391.383 86.7201 391.983 87.8001L390.231 90.5361C389.679 89.3841 388.239 87.7281 387.039 86.5521ZM393.063 89.3121L395.487 88.2561C396.423 89.8881 397.335 92.0001 397.623 93.4161L395.007 94.6161C394.767 93.2241 393.927 90.9921 393.063 89.3121ZM387.039 90.9681C389.319 90.8961 392.679 90.7521 395.943 90.5841L395.919 93.3201C392.919 93.5841 389.751 93.8001 387.327 93.9681L387.039 90.9681ZM393.375 95.4801L395.919 94.6401C396.519 96.0801 397.143 97.9281 397.431 99.1521L394.743 100.136C394.527 98.8881 393.903 96.9441 393.375 95.4801ZM387.903 94.8081L390.759 95.3121C390.567 97.6161 390.063 100.064 389.415 101.6C388.815 101.216 387.519 100.616 386.799 100.352C387.423 98.9601 387.759 96.8001 387.903 94.8081ZM390.711 92.5761H393.783V103.28H390.711V92.5761Z" fill="#E5005A"/>
<path d="M364.575 86.6961H371.079V89.2161H364.575V86.6961ZM364.575 90.5361H371.079V92.9601H364.575V90.5361ZM364.575 94.4721H371.079V96.9921H364.575V94.4721ZM375.087 91.9041H384.063V94.8081H375.087V91.9041ZM365.727 82.7601H369.423V85.3521H365.727V82.7601ZM373.119 81.7041H381.783V84.5361H373.119V81.7041ZM373.311 96.5601H384.567V99.5361H373.311V96.5601ZM377.439 89.9121H380.751V103.208H377.439V89.9121ZM366.975 88.0401H369.231V95.3841H366.975V88.0401ZM380.895 81.7041H383.967C383.967 81.7041 383.943 82.4001 383.919 82.7601C383.823 86.5281 383.631 88.2561 383.103 88.9281C382.671 89.4801 382.167 89.6961 381.543 89.8161C380.991 89.9121 380.103 89.9361 379.143 89.9121C379.095 89.0481 378.807 87.8721 378.375 87.1281C379.023 87.2001 379.527 87.2241 379.839 87.2241C380.103 87.2241 380.295 87.1761 380.463 86.9601C380.703 86.6481 380.823 85.4241 380.895 82.1121V81.7041ZM374.271 90.0561L377.055 90.6081C376.671 92.7921 375.903 95.0241 375.015 96.4161C374.439 96.0081 373.191 95.3841 372.519 95.0961C373.383 93.8481 373.983 91.9041 374.271 90.0561ZM364.863 80.4561L367.935 81.1281C367.071 84.4641 365.583 87.7761 363.855 89.8161C363.327 89.2881 362.103 88.2321 361.407 87.7761C363.015 86.0481 364.239 83.2641 364.863 80.4561ZM363.327 86.6961H366.087V93.0561C366.087 96.2001 365.775 100.592 363.975 103.328C363.471 102.872 362.223 102.08 361.575 101.792C363.207 99.3201 363.327 95.7441 363.327 93.0321V86.6961ZM370.143 86.6961H372.975V100.064C372.975 101.336 372.759 102.2 371.967 102.704C371.151 103.184 370.167 103.256 368.799 103.256C368.703 102.44 368.247 101.096 367.839 100.328C368.631 100.376 369.495 100.376 369.783 100.376C370.047 100.376 370.143 100.28 370.143 99.9921V86.6961ZM375.711 82.6641H378.807C378.567 86.2641 377.871 88.9521 374.199 90.5841C373.863 89.8401 373.071 88.7121 372.399 88.1841C375.231 87.0321 375.543 85.1841 375.711 82.6641ZM368.607 82.7601H369.255L369.687 82.6401L371.655 83.8401C371.103 85.3761 370.167 87.3441 369.399 88.5921C368.847 88.1841 367.911 87.6081 367.311 87.2961C367.815 86.1681 368.367 84.3681 368.607 83.2881V82.7601Z" fill="#E5005A"/>
</svg>
