<svg width="612" height="204" viewBox="0 0 612 204" fill="none" xmlns="http://www.w3.org/2000/svg">
<rect x="56" width="500" height="160" fill="#E3EFF6"/>
<mask id="mask0_974_19673" style="mask-type:alpha" maskUnits="userSpaceOnUse" x="56" y="0" width="500" height="160">
<rect x="56" width="500" height="160" fill="#E3EFF6"/>
</mask>
<g mask="url(#mask0_974_19673)">
<path d="M56 160C158.902 151 380.802 134.046 445.182 138.846C509.562 143.646 545.886 155 556 160" stroke="#1492D9" stroke-width="3" stroke-dasharray="0.1 6"/>
</g>
<path d="M246.576 107.696H253.08V110.216H246.576V107.696ZM246.576 111.536H253.08V113.96H246.576V111.536ZM246.576 115.472H253.08V117.992H246.576V115.472ZM257.088 112.904H266.064V115.808H257.088V112.904ZM247.728 103.76H251.424V106.352H247.728V103.76ZM255.12 102.704H263.784V105.536H255.12V102.704ZM255.312 117.56H266.568V120.536H255.312V117.56ZM259.44 110.912H262.752V124.208H259.44V110.912ZM248.976 109.04H251.232V116.384H248.976V109.04ZM262.896 102.704H265.968C265.968 102.704 265.944 103.4 265.92 103.76C265.824 107.528 265.632 109.256 265.104 109.928C264.672 110.48 264.168 110.696 263.544 110.816C262.992 110.912 262.104 110.936 261.144 110.912C261.096 110.048 260.808 108.872 260.376 108.128C261.024 108.2 261.528 108.224 261.84 108.224C262.104 108.224 262.296 108.176 262.464 107.96C262.704 107.648 262.824 106.424 262.896 103.112V102.704ZM256.272 111.056L259.056 111.608C258.672 113.792 257.904 116.024 257.016 117.416C256.44 117.008 255.192 116.384 254.52 116.096C255.384 114.848 255.984 112.904 256.272 111.056ZM246.864 101.456L249.936 102.128C249.072 105.464 247.584 108.776 245.856 110.816C245.328 110.288 244.104 109.232 243.408 108.776C245.016 107.048 246.24 104.264 246.864 101.456ZM245.328 107.696H248.088V114.056C248.088 117.2 247.776 121.592 245.976 124.328C245.472 123.872 244.224 123.08 243.576 122.792C245.208 120.32 245.328 116.744 245.328 114.032V107.696ZM252.144 107.696H254.976V121.064C254.976 122.336 254.76 123.2 253.968 123.704C253.152 124.184 252.168 124.256 250.8 124.256C250.704 123.44 250.248 122.096 249.84 121.328C250.632 121.376 251.496 121.376 251.784 121.376C252.048 121.376 252.144 121.28 252.144 120.992V107.696ZM257.712 103.664H260.808C260.568 107.264 259.872 109.952 256.2 111.584C255.864 110.84 255.072 109.712 254.4 109.184C257.232 108.032 257.544 106.184 257.712 103.664ZM250.608 103.76H251.256L251.688 103.64L253.656 104.84C253.104 106.376 252.168 108.344 251.4 109.592C250.848 109.184 249.912 108.608 249.312 108.296C249.816 107.168 250.368 105.368 250.608 104.288V103.76ZM280.152 112.664L282.936 111.272C284.136 112.904 285.456 115.088 285.936 116.624L282.912 118.184C282.504 116.696 281.304 114.392 280.152 112.664ZM281.328 105.416H289.656V108.704H281.328V105.416ZM288.144 105.416H291.504C291.504 105.416 291.504 106.544 291.48 106.976C291.168 117.392 290.88 121.256 289.872 122.576C289.128 123.608 288.408 123.92 287.328 124.112C286.416 124.28 284.952 124.28 283.536 124.232C283.488 123.248 283.008 121.712 282.36 120.728C283.824 120.848 285.168 120.848 285.816 120.848C286.296 120.848 286.56 120.752 286.848 120.416C287.616 119.624 287.904 115.52 288.144 106.088V105.416ZM281.04 101.456L284.664 102.248C283.68 105.872 282 109.472 280.176 111.68C279.504 111.08 277.944 110.024 277.08 109.544C278.88 107.696 280.32 104.576 281.04 101.456ZM272.688 101.504L275.76 102.56C274.728 104.48 273.624 106.616 272.688 107.96L270.36 107.024C271.2 105.536 272.184 103.232 272.688 101.504ZM275.544 104.408L278.472 105.608C276.648 108.392 274.296 111.68 272.424 113.696L270.336 112.64C272.184 110.456 274.32 107 275.544 104.408ZM269.04 107.552L270.648 105.128C271.896 106.208 273.384 107.72 273.984 108.8L272.232 111.536C271.68 110.384 270.24 108.728 269.04 107.552ZM275.064 110.312L277.488 109.256C278.424 110.888 279.336 113 279.624 114.416L277.008 115.616C276.768 114.224 275.928 111.992 275.064 110.312ZM269.04 111.968C271.32 111.896 274.68 111.752 277.944 111.584L277.92 114.32C274.92 114.584 271.752 114.8 269.328 114.968L269.04 111.968ZM275.376 116.48L277.92 115.64C278.52 117.08 279.144 118.928 279.432 120.152L276.744 121.136C276.528 119.888 275.904 117.944 275.376 116.48ZM269.904 115.808L272.76 116.312C272.568 118.616 272.064 121.064 271.416 122.6C270.816 122.216 269.52 121.616 268.8 121.352C269.424 119.96 269.76 117.8 269.904 115.808ZM272.712 113.576H275.784V124.28H272.712V113.576ZM300.864 110.768V119.816H297.456V113.984H294.984V110.768H300.864ZM300.864 118.304C301.752 119.792 303.384 120.392 305.736 120.488C308.664 120.608 314.136 120.536 317.592 120.224C317.208 121.064 316.656 122.744 316.488 123.776C313.44 123.944 308.664 123.992 305.664 123.848C302.808 123.728 300.912 123.128 299.328 121.28C298.344 122.144 297.336 123.008 296.04 124.04L294.36 120.392C295.416 119.792 296.616 119.072 297.672 118.304H300.864ZM294.888 104.12L297.48 102.032C298.848 103.016 300.6 104.504 301.416 105.608L298.632 107.912C297.936 106.808 296.256 105.2 294.888 104.12ZM304.68 102.296H316.464V105.512H304.68V102.296ZM305.136 107.144H313.368V110.216H305.136V107.144ZM303 102.296H306.36V107.96C306.36 111.488 305.952 116.6 303.528 119.744C302.928 119.192 301.416 118.256 300.6 117.896C302.832 115.088 303 110.936 303 107.912V102.296ZM312.552 107.144H313.2L313.824 107.048L316.056 107.744C314.832 114.368 311.64 118.112 306.48 120.176C306.072 119.288 305.208 117.92 304.512 117.224C308.856 115.832 311.688 112.424 312.552 107.672V107.144ZM308.784 109.4C310.104 113.216 312.864 116 317.496 117.152C316.728 117.848 315.744 119.24 315.264 120.176C310.176 118.568 307.44 115.16 305.712 110.12L308.784 109.4ZM324.552 114.824H341.856V117.8H324.552V114.824ZM334.8 116.72C335.952 119.384 338.4 120.752 342.888 121.088C342.144 121.832 341.232 123.272 340.824 124.232C335.616 123.464 333.24 121.328 331.656 117.176L334.8 116.72ZM331.224 112.136H334.824C334.584 118.544 333.888 122.384 326.208 124.304C325.896 123.44 325.032 122.096 324.336 121.424C330.888 119.984 331.056 117.32 331.224 112.136ZM322.704 106.616H326.208V111.008C326.208 114.824 325.704 120.536 322.896 124.088C322.248 123.512 320.688 122.576 319.8 122.216C322.488 119 322.704 114.224 322.704 110.96V106.616ZM324.408 106.616H340.824V113.096H324.408V110.504H337.392V109.208H324.408V106.616ZM321.312 102.68H341.856V105.8H321.312V102.68ZM356.784 104.792C354.816 107.552 351.24 110.6 347.376 112.664C346.944 111.848 345.936 110.552 345.192 109.832C349.296 107.864 353.088 104.24 354.816 101.384H358.464C361.08 105.128 364.8 108.056 368.64 109.544C367.776 110.432 366.984 111.608 366.336 112.688C362.688 110.744 358.776 107.528 356.784 104.792ZM350.736 108.608H362.856V111.632H350.736V108.608ZM348 113.552H365.52V116.528H348V113.552ZM346.728 120.68H367.056V123.656H346.728V120.68ZM354.864 109.832H358.584V122.144H354.864V109.832ZM349.224 117.272L352.032 116.096C352.896 117.248 353.856 118.832 354.216 119.912L351.216 121.232C350.904 120.176 350.04 118.496 349.224 117.272ZM361.224 116.168L364.56 117.368C363.552 118.808 362.52 120.272 361.704 121.232L359.088 120.152C359.832 119.072 360.744 117.416 361.224 116.168Z" fill="#108CD2"/>
<path d="M33.6188 196.726C33.4388 197.374 33.3128 197.95 33.3128 198.544C33.3128 199.714 34.4108 200.524 37.0028 200.524C39.4328 200.524 41.7368 200.254 43.3208 199.822L43.3388 202.342C41.7728 202.72 39.6128 202.972 37.0928 202.972C32.9708 202.972 30.9008 201.586 30.9008 199.102C30.9008 198.058 31.1168 197.194 31.2428 196.51L33.6188 196.726ZM42.6908 187.24C43.1408 187.888 43.7888 189.04 44.1308 189.706L42.6728 190.336C42.5468 190.066 42.3848 189.76 42.2228 189.454V191.47C40.9628 191.56 38.7308 191.686 37.0208 191.686C35.1308 191.686 33.5648 191.596 32.1068 191.488V189.094C33.4388 189.256 35.1128 189.328 37.0028 189.328C38.7128 189.328 40.6568 189.22 42.0428 189.094C41.7908 188.626 41.5208 188.176 41.2688 187.816L42.6908 187.24ZM44.8328 186.43C45.3008 187.096 45.9668 188.248 46.2908 188.878L44.8508 189.49C44.4728 188.734 43.8968 187.69 43.3928 187.006L44.8328 186.43ZM46.8118 195.844L46.6498 194.08C47.5138 194.008 48.5578 193.9 49.7098 193.792V192.298H47.2438V190.696H49.7098V189.58H46.9378V187.978H49.7098V186.754H51.6898V187.978H54.2098V189.58H51.6898V190.696H53.9758V192.298H51.6898V193.576C52.5358 193.486 53.3998 193.396 54.2458 193.306L54.2638 194.26C56.0998 193.18 56.5318 191.524 56.6758 189.256H54.6238V187.456H62.7058C62.7058 187.456 62.7058 188.032 62.6878 188.266C62.5258 192.586 62.3458 194.314 61.8778 194.908C61.5178 195.376 61.1398 195.538 60.6178 195.61C60.1678 195.682 59.4118 195.682 58.6198 195.682C58.6018 195.088 58.3678 194.26 58.0618 193.774C58.7098 193.828 59.2858 193.828 59.5558 193.828C59.8078 193.828 59.9518 193.792 60.1138 193.612C60.3658 193.306 60.5098 192.154 60.6358 189.256H58.6738C58.4578 192.298 57.7918 194.53 55.1818 195.934C55.0018 195.574 54.6418 195.07 54.2818 194.692V194.944C51.6358 195.286 48.8458 195.61 46.8118 195.844ZM62.8498 198.922H56.7118C57.8818 200.578 59.9698 201.334 63.3358 201.532C62.8678 202.036 62.3278 202.954 62.0398 203.584C58.6018 203.17 56.5498 202.162 55.1818 200.164C54.2998 201.622 52.2298 202.954 47.6398 203.602C47.3698 203.08 46.8298 202.288 46.4158 201.802C51.0238 201.172 52.7518 200.056 53.3458 198.922H46.8658V197.122H53.6158V196.06H55.7758V197.122H62.8498V198.922ZM65.8378 197.284L67.6018 197.59C67.4218 199.282 67.0438 201.082 66.5218 202.234C66.1438 202 65.3518 201.622 64.8838 201.46C65.4058 200.398 65.6938 198.796 65.8378 197.284ZM69.8518 197.68L71.4358 197.176C71.9218 198.238 72.3898 199.642 72.6058 200.56L70.9138 201.154C70.7698 200.236 70.3018 198.778 69.8518 197.68ZM75.4678 189.796H81.6058C81.6058 189.796 81.6058 190.516 81.5878 190.786C81.3538 198.67 81.1018 201.514 80.3458 202.468C79.8418 203.152 79.3738 203.35 78.6178 203.458C77.9698 203.566 76.8538 203.548 75.8098 203.512C75.7738 202.9 75.4858 201.964 75.0898 201.352C76.2238 201.46 77.2498 201.46 77.7358 201.46C78.0778 201.46 78.2758 201.388 78.4918 201.154C79.0318 200.596 79.3018 197.968 79.4998 191.83H74.5318C74.0458 192.712 73.5418 193.504 73.0018 194.152C72.6418 193.828 71.8498 193.288 71.3098 192.964C71.9398 194.098 72.5158 195.43 72.7138 196.33L71.0938 197.086C71.0398 196.798 70.9498 196.474 70.8418 196.114L69.8158 196.186V203.584H67.9258V196.33L65.2618 196.51L65.0818 194.638L66.4138 194.584C66.6838 194.242 66.9718 193.864 67.2418 193.468C66.7198 192.694 65.8378 191.722 65.0818 191.002L66.0898 189.526C66.2338 189.652 66.3778 189.778 66.5218 189.904C67.0258 188.914 67.5298 187.708 67.8358 186.772L69.7258 187.438C69.0778 188.68 68.3398 190.066 67.6918 191.074C67.9258 191.326 68.1418 191.596 68.3218 191.83C68.9698 190.822 69.5458 189.778 69.9778 188.878L71.7958 189.634C70.7878 191.218 69.5278 193.054 68.3578 194.512L70.1758 194.44C69.9778 194.008 69.7618 193.576 69.5458 193.198L71.0578 192.532L71.1838 192.748C72.5158 191.326 73.5778 189.022 74.1538 186.754L76.3498 187.222C76.1158 188.104 75.8098 188.968 75.4678 189.796ZM77.5018 198.022L75.6478 199.012C75.3058 197.878 74.3698 196.15 73.4518 194.854L75.1618 193.99C76.0978 195.232 77.1238 196.888 77.5018 198.022Z" fill="#1492D9"/>
<path d="M504.808 186.79L506.788 187.438C506.32 188.608 505.762 189.832 505.114 190.984V203.53H503.08V194.116C502.63 194.692 502.18 195.232 501.712 195.718C501.514 195.196 500.92 194.044 500.56 193.522C502.234 191.902 503.872 189.346 504.808 186.79ZM509.182 189.418V191.83H514.456V189.418H509.182ZM517.48 197.284H513.88C514.942 198.85 516.49 200.326 518.002 201.208C517.516 201.622 516.832 202.378 516.49 202.918C515.176 201.982 513.862 200.524 512.836 198.922V203.566H510.676V199.012C509.578 200.596 508.21 201.964 506.788 202.882C506.464 202.36 505.798 201.586 505.312 201.172C506.932 200.326 508.534 198.868 509.65 197.284H505.96V195.34H510.676V193.72H507.148V187.528H516.598V193.72H512.836V195.34H517.48V197.284ZM528.046 196.996H529.81C529.828 196.834 529.828 196.672 529.828 196.51V195.376H528.046V196.996ZM533.644 195.376H531.754V196.564C531.754 196.708 531.754 196.852 531.754 196.996H533.644V195.376ZM528.658 190.894H533.014C532.132 190.174 531.322 189.364 530.764 188.59C530.26 189.346 529.522 190.156 528.658 190.894ZM535.57 198.634H532.348C533.41 200.614 534.76 201.298 536.542 201.856C536.056 202.306 535.552 203.008 535.318 203.638C533.518 202.954 532.096 202.036 530.998 200.074C530.224 201.514 528.766 202.81 526.066 203.656C525.868 203.224 525.274 202.414 524.932 202.072C527.83 201.19 529.036 199.966 529.522 198.634H526.192V193.756H529.828V192.658H527.542V191.74C527.02 192.1 526.48 192.424 525.94 192.694C525.742 192.226 525.382 191.578 525.058 191.11C524.806 191.848 524.554 192.586 524.32 193.198C525.472 194.566 525.706 195.754 525.706 196.798C525.706 197.932 525.472 198.688 524.878 199.102C524.59 199.3 524.23 199.408 523.834 199.462C523.492 199.516 523.06 199.534 522.61 199.516C522.61 198.994 522.448 198.166 522.142 197.644C522.484 197.68 522.754 197.68 522.97 197.662C523.168 197.662 523.366 197.626 523.492 197.536C523.708 197.374 523.798 197.032 523.798 196.51C523.798 195.7 523.528 194.62 522.484 193.432C522.862 192.28 523.258 190.678 523.564 189.436H522.106V203.566H520.252V187.528H524.23L524.536 187.438L525.958 188.266C525.724 189.058 525.436 189.958 525.148 190.84C527.056 189.958 528.856 188.248 529.738 186.772H531.682C532.924 188.482 534.796 189.976 536.668 190.66C536.272 191.164 535.858 191.956 535.57 192.532C535.12 192.316 534.634 192.028 534.166 191.722V192.658H531.754V193.756H535.57V198.634ZM541.78 196.204V197.428H544.012V196.204H541.78ZM544.012 190.75H541.78V191.794H544.012V190.75ZM541.78 193.432V194.566H544.012V193.432H541.78ZM547.072 197.428V199.3H538.234V197.428H539.854V190.75H538.45V188.878H539.854V186.97H541.78V188.878H544.012V186.97H545.974V188.878H547.198V190.75H545.974V197.428H547.072ZM540.466 199.426L542.464 200.02C541.834 201.334 540.772 202.738 539.8 203.62C539.404 203.242 538.576 202.63 538.09 202.342C539.026 201.64 539.962 200.506 540.466 199.426ZM549.79 195.7H552.4V193.486H549.808V194.152C549.808 194.62 549.808 195.142 549.79 195.7ZM552.4 189.49H549.808V191.596H552.4V189.49ZM554.47 187.546V201.19C554.47 202.252 554.272 202.81 553.642 203.152C553.012 203.494 552.094 203.548 550.762 203.53C550.69 202.972 550.42 202.036 550.15 201.496C550.924 201.55 551.788 201.532 552.04 201.532C552.31 201.532 552.4 201.442 552.4 201.154V197.608H549.664C549.466 199.732 549.016 201.982 548.044 203.602C547.702 203.224 546.82 202.576 546.352 202.396C546.406 202.288 546.478 202.198 546.532 202.09L545.038 202.936C544.678 202.234 543.814 201.046 543.112 200.218L544.732 199.336C545.38 200.056 546.226 201.046 546.676 201.784C547.72 199.534 547.81 196.492 547.81 194.152V187.546H554.47ZM562.714 188.986H559.942V189.94H562.714V188.986ZM559.942 192.406H562.714V191.38H559.942V192.406ZM564.712 193.936H559.942V203.566H557.818V187.438H564.712V193.936ZM567.988 192.442H570.85V191.38H567.988V192.442ZM570.85 188.986H567.988V189.94H570.85V188.986ZM563.83 200.326H566.8V199.21H563.83V200.326ZM566.8 197.68V196.6H563.83V197.68H566.8ZM573.01 187.438V201.028C573.01 202.18 572.776 202.81 572.056 203.152C571.354 203.512 570.31 203.566 568.762 203.566C568.708 203.116 568.51 202.45 568.294 201.892H563.83V202.81H561.886V195.034H562.768V195.016L568.816 195.034V201.406C569.518 201.424 570.184 201.424 570.418 201.406C570.742 201.406 570.85 201.298 570.85 201.01V193.972H565.954V187.438H573.01ZM577.942 203.35L576.034 202.09C576.862 200.704 578.014 198.436 578.932 196.33L580.624 197.608C579.814 199.534 578.878 201.604 577.942 203.35ZM579.976 193.36L578.788 195.16C578.122 194.584 576.7 193.846 575.584 193.396L576.718 191.776C577.816 192.118 579.256 192.784 579.976 193.36ZM576.448 188.446L577.708 186.898C578.77 187.384 580.12 188.194 580.804 188.806L579.472 190.498C578.86 189.868 577.528 188.968 576.448 188.446ZM585.106 190.084V191.416H587.518V190.084H585.106ZM592.432 193.288H587.302V194.368H592.036V201.514C592.036 202.45 591.856 202.936 591.244 203.224C590.632 203.512 589.768 203.53 588.544 203.53C588.508 203.008 588.292 202.252 588.058 201.748C588.724 201.784 589.498 201.784 589.732 201.784C589.966 201.766 590.038 201.694 590.038 201.496V196.222H587.068V199.084H587.95V196.96H589.192V201.226H587.95V200.632H584.692V201.676H583.414V196.96H584.692V199.084H585.502V196.222H582.676V203.548H580.786V194.368H585.25V193.288H580.246V191.416H583.108V190.084H580.804V188.23H583.108V186.772H585.106V188.23H587.518V186.772H589.588V188.23H591.928V190.084H589.588V191.416H592.432V193.288ZM608.452 187.87L610.126 189.112C608.542 191.056 606.22 193.306 604.042 194.674V201.064C604.042 202.306 603.736 202.882 602.854 203.206C601.954 203.53 600.676 203.566 598.948 203.566C598.822 202.918 598.426 201.964 598.102 201.37C599.362 201.442 600.838 201.442 601.252 201.424C601.648 201.424 601.774 201.334 601.774 201.028V192.874H602.98C604.078 192.1 605.194 191.092 606.094 190.12H595.654V188.014H607.93L608.452 187.87Z" fill="#1492D9"/>
<path d="M56 170L62 179H50L56 170Z" fill="#1492D9"/>
<path d="M556 170L562 179H550L556 170Z" fill="#1492D9"/>
</svg>
