<svg width="312" height="302" viewBox="0 0 312 302" fill="none" xmlns="http://www.w3.org/2000/svg">
<rect opacity="0.7" width="312" height="302" rx="8" fill="white"/>
<path d="M229.03 213.74H237.04V214.52H229.03V213.74ZM228.48 216.34H237.53V217.12H228.48V216.34ZM231.54 214.07H232.42V216.77H231.54V214.07ZM233.46 214.07H234.36V216.77H233.46V214.07ZM229.5 214.86L230.27 214.57C230.62 215.03 230.94 215.66 231.06 216.1L230.24 216.42C230.13 215.99 229.83 215.34 229.5 214.86ZM230.24 212.85L231.07 212.54C231.38 212.85 231.67 213.29 231.8 213.61L230.93 213.98C230.82 213.66 230.52 213.18 230.24 212.85ZM235.66 214.53L236.52 214.8C236.22 215.36 235.86 215.96 235.57 216.35L234.83 216.11C235.11 215.68 235.47 215.01 235.66 214.53ZM234.78 212.54L235.72 212.82C235.45 213.23 235.16 213.62 234.93 213.88L234.08 213.61C234.32 213.32 234.62 212.86 234.78 212.54ZM229.93 217.66H236.11V221.8H235.1V218.39H230.89V221.84H229.93V217.66ZM230.47 219.21H235.54V219.93H230.47V219.21ZM230.48 220.77H235.55V221.51H230.48V220.77ZM240.65 216.49V220.09H239.75V217.37H238.37V216.49H240.65ZM240.65 219.71C241.1 220.43 241.89 220.74 243 220.78C244.14 220.83 246.48 220.8 247.76 220.71C247.65 220.93 247.51 221.36 247.46 221.64C246.29 221.69 244.16 221.71 242.99 221.66C241.73 221.61 240.87 221.29 240.26 220.5C239.77 220.92 239.26 221.33 238.69 221.76L238.24 220.82C238.73 220.53 239.32 220.12 239.83 219.71H240.65ZM238.53 213.38L239.18 212.78C239.82 213.22 240.58 213.88 240.92 214.37L240.21 215.04C239.89 214.55 239.15 213.85 238.53 213.38ZM242.55 214.36L243.15 213.84C244.07 214.16 245.33 214.7 246 215.1L245.36 215.68C244.74 215.29 243.5 214.72 242.55 214.36ZM241.62 215.07H246.75V215.78H242.51V220.25H241.62V215.07ZM246.31 215.07H247.21V219.38C247.21 219.8 247.13 220.01 246.84 220.14C246.56 220.28 246.13 220.28 245.49 220.28C245.45 220.05 245.34 219.73 245.24 219.52C245.64 219.54 246.03 219.53 246.15 219.53C246.27 219.53 246.31 219.49 246.31 219.37V215.07ZM241.66 212.94H246.55V213.68H241.66V212.94ZM242.11 216.51H246.64V217.19H242.11V216.51ZM242.11 217.95H246.64V218.66H242.11V217.95ZM243.96 215.39H244.81V220.21H243.96V215.39ZM246.22 212.94H246.44L246.63 212.89L247.2 213.35C246.51 213.99 245.51 214.65 244.59 215.06C244.48 214.9 244.25 214.65 244.11 214.52C244.9 214.18 245.8 213.58 246.22 213.11V212.94Z" fill="#4A3E42"/>
<path d="M269.295 221V219.856L271.882 217.646C272.099 217.464 272.337 217.26 272.597 217.035C272.866 216.81 273.122 216.567 273.364 216.307C273.616 216.047 273.819 215.77 273.975 215.475C274.14 215.18 274.222 214.873 274.222 214.552C274.222 214.058 274.071 213.672 273.767 213.395C273.473 213.118 273.07 212.979 272.558 212.979C272.125 212.979 271.757 213.07 271.453 213.252C271.159 213.434 270.964 213.69 270.868 214.019H269.464C269.542 213.49 269.737 213.057 270.049 212.719C270.361 212.381 270.743 212.13 271.193 211.965C271.644 211.792 272.116 211.705 272.61 211.705C273.182 211.705 273.694 211.809 274.144 212.017C274.595 212.225 274.95 212.533 275.21 212.94C275.47 213.339 275.6 213.828 275.6 214.409C275.6 214.955 275.496 215.44 275.288 215.865C275.08 216.29 274.803 216.675 274.456 217.022C274.118 217.369 273.75 217.707 273.351 218.036L271.31 219.739H275.665V221H269.295ZM278.201 221.13C277.941 221.13 277.725 221.048 277.551 220.883C277.387 220.718 277.304 220.502 277.304 220.233C277.304 219.964 277.391 219.748 277.564 219.583C277.738 219.41 277.95 219.323 278.201 219.323C278.453 219.323 278.661 219.41 278.825 219.583C278.999 219.748 279.085 219.964 279.085 220.233C279.085 220.502 278.999 220.718 278.825 220.883C278.661 221.048 278.453 221.13 278.201 221.13ZM283.943 221.104C283.519 221.104 283.107 221.056 282.708 220.961C282.31 220.866 281.95 220.714 281.629 220.506C281.317 220.289 281.066 220.008 280.875 219.661C280.685 219.314 280.589 218.89 280.589 218.387C280.589 218.04 280.646 217.728 280.758 217.451C280.871 217.165 281.036 216.918 281.252 216.71C281.478 216.502 281.738 216.337 282.032 216.216C281.729 216.051 281.491 215.856 281.317 215.631C281.144 215.397 281.027 215.15 280.966 214.89C280.906 214.63 280.875 214.383 280.875 214.149C280.875 213.707 280.962 213.334 281.135 213.031C281.309 212.719 281.543 212.468 281.837 212.277C282.132 212.078 282.461 211.935 282.825 211.848C283.189 211.753 283.566 211.705 283.956 211.705C284.338 211.705 284.71 211.753 285.074 211.848C285.438 211.935 285.768 212.078 286.062 212.277C286.357 212.476 286.591 212.732 286.764 213.044C286.938 213.356 287.024 213.733 287.024 214.175C287.024 214.4 286.99 214.639 286.92 214.89C286.86 215.141 286.743 215.38 286.569 215.605C286.396 215.83 286.153 216.021 285.841 216.177C286.153 216.298 286.418 216.467 286.634 216.684C286.86 216.901 287.029 217.152 287.141 217.438C287.254 217.724 287.31 218.045 287.31 218.4C287.31 218.894 287.215 219.314 287.024 219.661C286.834 220.008 286.574 220.289 286.244 220.506C285.924 220.714 285.564 220.866 285.165 220.961C284.775 221.056 284.368 221.104 283.943 221.104ZM283.943 219.856C284.151 219.856 284.368 219.834 284.593 219.791C284.819 219.748 285.031 219.674 285.23 219.57C285.43 219.457 285.59 219.306 285.711 219.115C285.841 218.916 285.906 218.669 285.906 218.374C285.906 218.01 285.815 217.724 285.633 217.516C285.451 217.299 285.209 217.143 284.905 217.048C284.611 216.944 284.29 216.892 283.943 216.892C283.605 216.892 283.285 216.944 282.981 217.048C282.687 217.143 282.444 217.299 282.253 217.516C282.071 217.724 281.98 218.01 281.98 218.374C281.98 218.669 282.041 218.916 282.162 219.115C282.292 219.306 282.457 219.457 282.656 219.57C282.864 219.674 283.081 219.748 283.306 219.791C283.532 219.834 283.744 219.856 283.943 219.856ZM283.956 215.748C284.268 215.748 284.546 215.696 284.788 215.592C285.04 215.488 285.243 215.336 285.399 215.137C285.555 214.929 285.633 214.678 285.633 214.383C285.642 214.036 285.568 213.759 285.412 213.551C285.256 213.334 285.048 213.178 284.788 213.083C284.537 212.979 284.255 212.927 283.943 212.927C283.623 212.927 283.332 212.979 283.072 213.083C282.821 213.178 282.622 213.33 282.474 213.538C282.336 213.746 282.266 214.01 282.266 214.331C282.266 214.652 282.344 214.92 282.5 215.137C282.656 215.345 282.86 215.501 283.111 215.605C283.371 215.7 283.653 215.748 283.956 215.748Z" fill="#4A3E42"/>
<path d="M288.973 221L292.081 216.051H292.823L289.729 221H288.973ZM292.368 221.042C292.139 221.042 291.943 220.993 291.78 220.895C291.621 220.797 291.498 220.664 291.409 220.496C291.325 220.323 291.283 220.127 291.283 219.908C291.283 219.679 291.325 219.481 291.409 219.313C291.498 219.145 291.624 219.014 291.787 218.921C291.95 218.823 292.144 218.774 292.368 218.774C292.592 218.774 292.783 218.821 292.942 218.914C293.101 219.007 293.222 219.14 293.306 219.313C293.39 219.481 293.432 219.677 293.432 219.901C293.432 220.12 293.388 220.316 293.299 220.489C293.215 220.662 293.094 220.797 292.935 220.895C292.776 220.993 292.587 221.042 292.368 221.042ZM292.361 220.468C292.478 220.468 292.571 220.442 292.641 220.391C292.711 220.34 292.76 220.27 292.788 220.181C292.821 220.092 292.837 220.001 292.837 219.908C292.837 219.815 292.821 219.726 292.788 219.642C292.76 219.553 292.711 219.483 292.641 219.432C292.571 219.381 292.478 219.355 292.361 219.355C292.184 219.355 292.058 219.413 291.983 219.53C291.908 219.642 291.871 219.768 291.871 219.908C291.871 220.057 291.908 220.188 291.983 220.3C292.062 220.412 292.188 220.468 292.361 220.468ZM289.463 218.263C289.234 218.263 289.038 218.214 288.875 218.116C288.716 218.018 288.595 217.885 288.511 217.717C288.427 217.544 288.385 217.348 288.385 217.129C288.385 216.9 288.427 216.702 288.511 216.534C288.595 216.366 288.719 216.235 288.882 216.142C289.045 216.044 289.241 215.995 289.47 215.995C289.694 215.995 289.885 216.042 290.044 216.135C290.203 216.228 290.324 216.361 290.408 216.534C290.492 216.702 290.534 216.898 290.534 217.122C290.534 217.341 290.492 217.537 290.408 217.71C290.324 217.883 290.2 218.018 290.037 218.116C289.878 218.214 289.687 218.263 289.463 218.263ZM289.463 217.689C289.58 217.689 289.671 217.663 289.736 217.612C289.806 217.556 289.857 217.486 289.89 217.402C289.923 217.313 289.939 217.222 289.939 217.129C289.939 217.031 289.923 216.94 289.89 216.856C289.857 216.772 289.806 216.704 289.736 216.653C289.671 216.597 289.58 216.569 289.463 216.569C289.286 216.569 289.157 216.627 289.078 216.744C289.003 216.856 288.966 216.984 288.966 217.129C288.966 217.278 289.003 217.409 289.078 217.521C289.157 217.633 289.286 217.689 289.463 217.689Z" fill="#4A3E42"/>
<path d="M252 217L264 217" stroke="#4A3E42" stroke-dasharray="1 3"/>
<path d="M189.374 231.03C189.324 231.19 189.284 231.37 189.244 231.51C189.074 232.39 188.904 233.91 188.904 235.23C188.904 236.64 189.184 237.81 189.504 238.78L188.594 239.06C188.294 238.16 188.014 236.71 188.014 235.36C188.014 234.01 188.214 232.46 188.314 231.54C188.324 231.35 188.344 231.15 188.334 231L189.374 231.03ZM187.684 232.21C189.504 232.21 191.144 232.09 192.594 231.75L192.604 232.67C191.194 232.92 189.164 233.07 187.664 233.07C187.194 233.07 186.414 233.03 185.974 233.01L185.954 232.08C186.304 232.14 187.174 232.21 187.684 232.21ZM191.914 233.51C191.854 233.67 191.734 234.02 191.674 234.2C191.084 236.03 190.074 237.4 189.074 238.16C188.424 238.65 187.594 239.05 186.814 239.05C186.124 239.05 185.564 238.63 185.564 237.71C185.564 236.32 186.834 234.88 188.364 234.31C189.024 234.06 189.834 233.91 190.534 233.91C192.414 233.91 193.684 235 193.684 236.47C193.684 237.9 192.784 239.2 190.404 239.57L189.874 238.73C191.734 238.53 192.704 237.58 192.704 236.42C192.704 235.5 191.924 234.71 190.494 234.71C189.624 234.71 188.894 234.96 188.394 235.18C187.324 235.67 186.504 236.71 186.504 237.52C186.504 237.89 186.674 238.08 187.024 238.08C187.514 238.08 188.174 237.78 188.804 237.21C189.624 236.49 190.374 235.49 190.814 233.97C190.864 233.79 190.924 233.46 190.934 233.27L191.914 233.51ZM200.144 231C200.114 231.19 200.094 231.41 200.084 231.69C200.064 232.14 200.064 233.51 200.064 234.35C200.064 235.58 200.214 237.36 200.214 238.08C200.214 238.84 199.674 239.53 198.364 239.53C196.854 239.53 196.044 238.98 196.044 237.97C196.044 237.02 196.944 236.36 198.424 236.36C200.574 236.36 202.214 237.48 203.014 238.14L202.444 239.03C201.514 238.17 200.054 237.18 198.304 237.18C197.454 237.18 196.994 237.51 196.994 237.92C196.994 238.35 197.374 238.64 198.234 238.64C198.784 238.64 199.214 238.48 199.214 237.83C199.214 237.14 199.114 235.28 199.114 234.35C199.114 233.43 199.124 232.28 199.124 231.64C199.124 231.46 199.104 231.16 199.074 231H200.144ZM196.174 232.02C196.854 232.14 198.054 232.24 198.694 232.24C200.004 232.24 201.334 232.16 202.704 231.94L202.694 232.85C201.614 232.98 200.114 233.11 198.704 233.11C198.034 233.11 196.834 233.02 196.194 232.94L196.174 232.02ZM196.124 234.16C196.814 234.28 197.994 234.35 198.594 234.35C200.214 234.35 201.534 234.24 202.804 234.06L202.794 235C201.424 235.17 200.264 235.23 198.584 235.23C197.944 235.23 196.824 235.18 196.134 235.1L196.124 234.16ZM206.891 231.05C206.711 231.68 206.511 232.89 206.451 233.53C206.891 232.61 207.861 231.54 209.071 231.54C210.421 231.54 211.431 232.89 211.431 235.03C211.431 237.83 209.691 239.11 207.141 239.57L206.541 238.66C208.741 238.33 210.381 237.51 210.381 235.04C210.381 233.48 209.851 232.46 208.891 232.46C207.671 232.46 206.571 234.26 206.481 235.57C206.441 235.91 206.451 236.24 206.511 236.73L205.541 236.8C205.481 236.41 205.421 235.83 205.421 235.17C205.421 234.23 205.591 232.86 205.721 231.95C205.761 231.62 205.791 231.28 205.801 231.01L206.891 231.05ZM217.5 231.08C217.46 231.33 217.43 231.81 217.42 232.15C217.41 232.62 217.42 233.26 217.42 233.89C217.42 234.99 217.59 237.06 217.59 237.92C217.59 238.77 217.11 239.53 215.63 239.53C214.22 239.53 213.14 239.08 213.14 237.84C213.14 236.88 213.97 236.1 215.75 236.1C217.77 236.1 219.59 237.13 220.61 238.06L220 239.01C219.01 238.01 217.39 236.98 215.61 236.98C214.69 236.98 214.15 237.3 214.15 237.8C214.15 238.32 214.69 238.58 215.54 238.58C216.23 238.58 216.53 238.26 216.53 237.58C216.53 236.86 216.41 234.88 216.41 233.89C216.41 233.3 216.41 232.58 216.4 232.15C216.39 231.73 216.36 231.29 216.31 231.08H217.5ZM216.88 233.05C217.52 233.05 219.2 233.01 220.31 232.88L220.34 233.82C219.24 233.92 217.55 233.98 216.88 233.98V233.05ZM227.26 231.7C227 231.9 226.68 232.16 226.49 232.32C225.82 232.89 224.43 233.97 223.72 234.57C223.15 235.06 223.15 235.2 223.75 235.71C224.59 236.4 226.42 237.86 227.46 238.89L226.55 239.73C226.31 239.45 226.05 239.18 225.78 238.91C225.12 238.23 223.62 236.95 222.7 236.18C221.73 235.36 221.83 234.89 222.77 234.09C223.54 233.46 225 232.3 225.67 231.63C225.91 231.39 226.19 231.09 226.33 230.88L227.26 231.7ZM229.452 232.59C229.852 232.64 230.322 232.66 230.722 232.66C231.872 232.66 233.172 232.49 234.242 232.14L234.272 233.07C233.342 233.32 231.972 233.56 230.732 233.55C230.342 233.55 229.922 233.54 229.522 233.52L229.452 232.59ZM233.152 231.02C233.022 231.52 232.792 232.48 232.542 233.25C232.072 234.69 231.162 236.53 230.322 237.68L229.362 237.18C230.252 236.11 231.172 234.35 231.572 233.21C231.802 232.54 232.022 231.64 232.052 230.91L233.152 231.02ZM235.502 234.12C235.472 234.53 235.482 234.89 235.492 235.28C235.512 235.91 235.602 237.41 235.602 238.03C235.602 238.89 235.092 239.57 233.772 239.57C232.612 239.57 231.682 239.08 231.682 238.04C231.682 237.09 232.532 236.44 233.772 236.44C235.482 236.44 236.802 237.29 237.632 238.02L237.102 238.87C236.352 238.19 235.212 237.23 233.722 237.23C233.052 237.23 232.612 237.54 232.612 237.95C232.612 238.37 232.962 238.66 233.642 238.66C234.412 238.66 234.662 238.25 234.662 237.7C234.662 237.01 234.552 235.2 234.512 234.12H235.502ZM237.382 234.5C236.822 234.04 235.712 233.41 235.042 233.1L235.552 232.33C236.272 232.64 237.452 233.3 237.942 233.67L237.382 234.5ZM240.781 231.95C240.721 232.24 240.681 232.76 240.681 233.03C240.671 233.67 240.681 234.51 240.741 235.29C240.901 236.86 241.301 237.92 241.981 237.92C242.471 237.92 242.911 236.82 243.141 235.91L243.931 236.84C243.301 238.56 242.691 239.15 241.961 239.15C240.941 239.15 240.021 238.19 239.741 235.56C239.651 234.67 239.631 233.47 239.631 232.88C239.631 232.63 239.621 232.2 239.561 231.93L240.781 231.95ZM245.891 232.21C246.811 233.36 247.551 235.65 247.681 237.27L246.661 237.68C246.491 235.96 245.921 233.74 244.901 232.54L245.891 232.21Z" fill="#4A3E42"/>
<path d="M274.85 239.104C274.192 239.104 273.633 238.987 273.173 238.753C272.714 238.51 272.341 238.177 272.055 237.752C271.769 237.319 271.557 236.82 271.418 236.257C271.288 235.685 271.223 235.07 271.223 234.411C271.223 233.752 271.288 233.141 271.418 232.578C271.548 232.006 271.756 231.508 272.042 231.083C272.337 230.65 272.714 230.312 273.173 230.069C273.641 229.826 274.2 229.705 274.85 229.705C275.544 229.705 276.12 229.835 276.579 230.095C277.047 230.355 277.42 230.71 277.697 231.161C277.983 231.603 278.183 232.106 278.295 232.669C278.417 233.232 278.477 233.813 278.477 234.411C278.477 235.009 278.417 235.59 278.295 236.153C278.174 236.716 277.975 237.219 277.697 237.661C277.42 238.103 277.047 238.454 276.579 238.714C276.111 238.974 275.535 239.104 274.85 239.104ZM274.85 237.843C275.327 237.843 275.713 237.739 276.007 237.531C276.302 237.314 276.527 237.033 276.683 236.686C276.839 236.339 276.943 235.967 276.995 235.568C277.056 235.169 277.086 234.784 277.086 234.411C277.086 234.047 277.056 233.666 276.995 233.267C276.943 232.86 276.839 232.483 276.683 232.136C276.527 231.789 276.302 231.508 276.007 231.291C275.721 231.074 275.34 230.966 274.863 230.966C274.378 230.966 273.984 231.074 273.68 231.291C273.386 231.508 273.16 231.789 273.004 232.136C272.848 232.483 272.744 232.855 272.692 233.254C272.64 233.653 272.614 234.038 272.614 234.411C272.614 234.784 272.64 235.169 272.692 235.568C272.744 235.967 272.844 236.339 272.991 236.686C273.147 237.033 273.373 237.314 273.667 237.531C273.971 237.739 274.365 237.843 274.85 237.843ZM280.667 239.13C280.407 239.13 280.191 239.048 280.017 238.883C279.853 238.718 279.77 238.502 279.77 238.233C279.77 237.964 279.857 237.748 280.03 237.583C280.204 237.41 280.416 237.323 280.667 237.323C280.919 237.323 281.127 237.41 281.291 237.583C281.465 237.748 281.551 237.964 281.551 238.233C281.551 238.502 281.465 238.718 281.291 238.883C281.127 239.048 280.919 239.13 280.667 239.13ZM284.282 239V231.837H282.436V230.862C282.783 230.836 283.095 230.797 283.372 230.745C283.649 230.684 283.896 230.585 284.113 230.446C284.33 230.299 284.52 230.086 284.685 229.809H285.66V239H284.282Z" fill="#4A3E42"/>
<path d="M288.973 239L292.081 234.051H292.823L289.729 239H288.973ZM292.368 239.042C292.139 239.042 291.943 238.993 291.78 238.895C291.621 238.797 291.498 238.664 291.409 238.496C291.325 238.323 291.283 238.127 291.283 237.908C291.283 237.679 291.325 237.481 291.409 237.313C291.498 237.145 291.624 237.014 291.787 236.921C291.95 236.823 292.144 236.774 292.368 236.774C292.592 236.774 292.783 236.821 292.942 236.914C293.101 237.007 293.222 237.14 293.306 237.313C293.39 237.481 293.432 237.677 293.432 237.901C293.432 238.12 293.388 238.316 293.299 238.489C293.215 238.662 293.094 238.797 292.935 238.895C292.776 238.993 292.587 239.042 292.368 239.042ZM292.361 238.468C292.478 238.468 292.571 238.442 292.641 238.391C292.711 238.34 292.76 238.27 292.788 238.181C292.821 238.092 292.837 238.001 292.837 237.908C292.837 237.815 292.821 237.726 292.788 237.642C292.76 237.553 292.711 237.483 292.641 237.432C292.571 237.381 292.478 237.355 292.361 237.355C292.184 237.355 292.058 237.413 291.983 237.53C291.908 237.642 291.871 237.768 291.871 237.908C291.871 238.057 291.908 238.188 291.983 238.3C292.062 238.412 292.188 238.468 292.361 238.468ZM289.463 236.263C289.234 236.263 289.038 236.214 288.875 236.116C288.716 236.018 288.595 235.885 288.511 235.717C288.427 235.544 288.385 235.348 288.385 235.129C288.385 234.9 288.427 234.702 288.511 234.534C288.595 234.366 288.719 234.235 288.882 234.142C289.045 234.044 289.241 233.995 289.47 233.995C289.694 233.995 289.885 234.042 290.044 234.135C290.203 234.228 290.324 234.361 290.408 234.534C290.492 234.702 290.534 234.898 290.534 235.122C290.534 235.341 290.492 235.537 290.408 235.71C290.324 235.883 290.2 236.018 290.037 236.116C289.878 236.214 289.687 236.263 289.463 236.263ZM289.463 235.689C289.58 235.689 289.671 235.663 289.736 235.612C289.806 235.556 289.857 235.486 289.89 235.402C289.923 235.313 289.939 235.222 289.939 235.129C289.939 235.031 289.923 234.94 289.89 234.856C289.857 234.772 289.806 234.704 289.736 234.653C289.671 234.597 289.58 234.569 289.463 234.569C289.286 234.569 289.157 234.627 289.078 234.744C289.003 234.856 288.966 234.984 288.966 235.129C288.966 235.278 289.003 235.409 289.078 235.521C289.157 235.633 289.286 235.689 289.463 235.689Z" fill="#4A3E42"/>
<path d="M252 235H264" stroke="#4A3E42" stroke-dasharray="1 3"/>
<path d="M240.652 69.252H252.3V71.215H240.652V69.252ZM247.516 70.045C248.257 72.931 249.843 75.31 252.625 76.389C252.157 76.805 251.52 77.637 251.221 78.183C248.14 76.766 246.606 74.101 245.605 70.487L247.516 70.045ZM245.358 65.885H247.438C247.373 70.162 247.347 75.44 241.822 78.183C241.523 77.663 240.951 76.987 240.392 76.571C245.605 74.205 245.306 69.629 245.358 65.885ZM254.185 66.912H265.833V68.641H254.185V66.912ZM259.008 65.885H260.958V67.64H259.008V65.885ZM260.737 67.614H262.57V70.695C262.57 71.462 262.466 71.904 261.946 72.164C261.452 72.424 260.854 72.437 260.113 72.437C260.048 71.943 259.814 71.254 259.593 70.786C259.944 70.799 260.412 70.799 260.555 70.799C260.698 70.799 260.737 70.773 260.737 70.643V67.614ZM258.15 67.367H259.905V68.563C259.905 69.954 259.671 71.735 257.825 72.918C257.539 72.528 256.876 71.917 256.447 71.631C257.955 70.734 258.15 69.499 258.15 68.511V67.367ZM262.765 69.733L264.221 68.901C264.91 69.616 265.768 70.604 266.158 71.306L264.585 72.242C264.26 71.553 263.441 70.5 262.765 69.733ZM255.68 68.94L257.435 69.408C256.902 70.461 256.083 71.527 255.199 72.164C254.861 71.826 254.263 71.332 253.899 71.085C254.679 70.578 255.368 69.694 255.68 68.94ZM258.189 73.685C259.502 75.544 262.232 76.298 266.288 76.428C265.898 76.87 265.417 77.689 265.183 78.209C260.867 77.91 258.267 76.831 256.499 74.205L258.189 73.685ZM258.267 71.865L260.23 72.242C259.125 73.854 257.656 75.037 255.316 75.947C255.082 75.505 254.536 74.829 254.146 74.543C256.278 73.893 257.578 72.931 258.267 71.865ZM258.449 72.801H262.908V74.27H257.136L258.449 72.801ZM262.388 72.801H262.778L263.09 72.736L264.325 73.542C262.622 76.623 258.865 77.832 254.601 78.261C254.458 77.793 254.042 76.961 253.717 76.558C257.825 76.324 261.205 75.414 262.388 73.087V72.801ZM274.291 66.457C274.226 66.886 274.187 67.536 274.161 68.108C274.135 68.745 274.161 69.408 274.161 70.071C274.161 71.514 274.421 74.426 274.421 75.492C274.421 76.701 273.862 77.897 271.431 77.897C269.533 77.897 267.895 77.26 267.895 75.349C267.895 73.88 269.143 72.749 271.6 72.749C274.408 72.749 276.904 74.14 278.217 75.388L277.008 77.26C275.721 75.973 273.706 74.491 271.301 74.491C270.469 74.491 269.949 74.764 269.949 75.245C269.949 75.83 270.56 75.973 271.275 75.973C272.042 75.973 272.263 75.648 272.263 74.803C272.263 73.932 272.107 71.254 272.107 70.071C272.107 69.265 272.094 68.667 272.081 68.108C272.055 67.367 272.016 66.821 271.925 66.457H274.291ZM273.108 68.862C273.81 68.862 276.176 68.823 277.658 68.667L277.736 70.539C276.228 70.669 273.849 70.721 273.121 70.721L273.108 68.862ZM282.742 67.588C282.638 68.134 282.56 68.979 282.56 69.356C282.56 70.214 282.56 71.059 282.638 71.93C282.794 73.633 283.054 74.829 283.808 74.829C284.406 74.829 284.861 73.204 285.056 72.32L286.642 74.27C285.732 76.571 284.9 77.377 283.769 77.377C282.222 77.377 280.948 76.064 280.584 72.515C280.454 71.28 280.441 69.785 280.441 68.966C280.441 68.576 280.415 68.017 280.324 67.562L282.742 67.588ZM289.099 67.835C290.373 69.33 291.4 72.853 291.517 74.725L289.424 75.531C289.242 73.568 288.605 70.149 287.084 68.485L289.099 67.835Z" fill="#119EED"/>
<g opacity="0.8">
<rect width="66" height="2" transform="matrix(-1 0 0 1 292 57)" fill="#119EED"/>
<path d="M226 58L208 76" stroke="#119EED" stroke-width="2"/>
</g>
<path d="M243.517 51.232C242.067 51.232 240.83 50.9613 239.805 50.42C238.781 49.8787 237.94 49.1343 237.282 48.187C236.625 47.2397 236.142 46.1667 235.832 44.968C235.542 43.75 235.397 42.474 235.397 41.14C235.397 39.6707 235.562 38.2883 235.89 36.993C236.219 35.6783 236.731 34.5183 237.427 33.513C238.123 32.4883 239.003 31.686 240.066 31.106C241.149 30.526 242.444 30.236 243.952 30.236C245.112 30.236 246.166 30.439 247.113 30.845C248.08 31.251 248.892 31.8697 249.549 32.701C250.207 33.513 250.632 34.557 250.825 35.833H246.881C246.649 35.2723 246.253 34.8277 245.692 34.499C245.151 34.1703 244.513 34.006 243.778 34.006C243.102 34.006 242.512 34.1317 242.009 34.383C241.507 34.615 241.072 34.9437 240.704 35.369C240.356 35.775 240.066 36.239 239.834 36.761C239.602 37.283 239.438 37.834 239.341 38.414C239.245 38.9747 239.196 39.5353 239.196 40.096C239.66 39.458 240.192 38.9553 240.791 38.588C241.41 38.2207 242.029 37.9693 242.647 37.834C243.266 37.6793 243.827 37.602 244.329 37.602C245.702 37.602 246.881 37.8727 247.867 38.414C248.853 38.9553 249.607 39.719 250.129 40.705C250.671 41.6717 250.941 42.822 250.941 44.156C250.941 45.5867 250.622 46.8337 249.984 47.897C249.346 48.9603 248.467 49.782 247.345 50.362C246.243 50.942 244.967 51.232 243.517 51.232ZM243.546 47.433C244.242 47.433 244.822 47.288 245.286 46.998C245.77 46.708 246.137 46.331 246.388 45.867C246.64 45.3837 246.765 44.8713 246.765 44.33C246.765 43.75 246.64 43.228 246.388 42.764C246.137 42.2807 245.779 41.894 245.315 41.604C244.851 41.314 244.281 41.169 243.604 41.169C242.966 41.169 242.377 41.314 241.835 41.604C241.313 41.8747 240.907 42.2517 240.617 42.735C240.327 43.199 240.182 43.7307 240.182 44.33C240.182 44.8713 240.318 45.3837 240.588 45.867C240.859 46.331 241.246 46.708 241.748 46.998C242.251 47.288 242.85 47.433 243.546 47.433ZM254.132 51L261.962 34.325H252.16V30.468H266.689V33.571L258.743 51H254.132Z" fill="#119EED"/>
<path d="M266.009 51.224C265.598 51.224 265.272 51.1027 265.029 50.86C264.805 50.5987 264.693 50.2813 264.693 49.908C264.693 49.516 264.814 49.1987 265.057 48.956C265.3 48.7133 265.617 48.592 266.009 48.592C266.382 48.592 266.69 48.7133 266.933 48.956C267.176 49.1987 267.297 49.516 267.297 49.908C267.297 50.2813 267.176 50.5987 266.933 50.86C266.709 51.1027 266.401 51.224 266.009 51.224Z" fill="#119EED"/>
<path d="M271.182 51L275.232 42.375H270.162V40.38H277.677V41.985L273.567 51H271.182Z" fill="#119EED"/>
<path d="M280.457 51L287.357 40.38H289.517L282.647 51H280.457ZM288.392 51.105C287.882 51.105 287.432 51 287.042 50.79C286.662 50.57 286.362 50.265 286.142 49.875C285.932 49.485 285.827 49.025 285.827 48.495C285.827 47.965 285.937 47.505 286.157 47.115C286.377 46.725 286.682 46.425 287.072 46.215C287.462 45.995 287.912 45.885 288.422 45.885C288.922 45.885 289.362 45.99 289.742 46.2C290.122 46.41 290.417 46.71 290.627 47.1C290.837 47.48 290.942 47.94 290.942 48.48C290.942 49.01 290.832 49.475 290.612 49.875C290.402 50.265 290.102 50.57 289.712 50.79C289.332 51 288.892 51.105 288.392 51.105ZM288.392 49.53C288.612 49.53 288.792 49.485 288.932 49.395C289.072 49.295 289.172 49.165 289.232 49.005C289.302 48.845 289.337 48.68 289.337 48.51C289.337 48.34 289.302 48.18 289.232 48.03C289.172 47.87 289.072 47.74 288.932 47.64C288.792 47.54 288.612 47.49 288.392 47.49C288.042 47.49 287.792 47.6 287.642 47.82C287.492 48.03 287.417 48.265 287.417 48.525C287.427 48.785 287.507 49.02 287.657 49.23C287.807 49.43 288.052 49.53 288.392 49.53ZM281.627 45.48C281.107 45.48 280.657 45.375 280.277 45.165C279.897 44.945 279.597 44.64 279.377 44.25C279.167 43.86 279.062 43.405 279.062 42.885C279.062 42.345 279.167 41.88 279.377 41.49C279.597 41.1 279.902 40.8 280.292 40.59C280.682 40.37 281.132 40.26 281.642 40.26C282.152 40.26 282.592 40.365 282.962 40.575C283.342 40.785 283.637 41.085 283.847 41.475C284.057 41.855 284.162 42.315 284.162 42.855C284.162 43.385 284.057 43.85 283.847 44.25C283.637 44.64 283.337 44.945 282.947 45.165C282.567 45.375 282.127 45.48 281.627 45.48ZM281.627 43.89C281.847 43.89 282.027 43.845 282.167 43.755C282.307 43.655 282.407 43.53 282.467 43.38C282.527 43.22 282.557 43.05 282.557 42.87C282.557 42.7 282.522 42.54 282.452 42.39C282.392 42.23 282.292 42.1 282.152 42C282.022 41.9 281.847 41.85 281.627 41.85C281.277 41.85 281.022 41.96 280.862 42.18C280.712 42.39 280.642 42.63 280.652 42.9C280.652 43.16 280.727 43.39 280.877 43.59C281.037 43.79 281.287 43.89 281.627 43.89Z" fill="#119EED"/>
<path d="M27.2879 85.457C27.2229 85.886 27.1839 86.536 27.1579 87.108C27.1319 87.745 27.1579 88.408 27.1579 89.071C27.1579 90.514 27.4179 93.426 27.4179 94.492C27.4179 95.701 26.8589 96.897 24.4279 96.897C22.5299 96.897 20.8919 96.26 20.8919 94.349C20.8919 92.88 22.1399 91.749 24.5969 91.749C27.4049 91.749 29.9009 93.14 31.2139 94.388L30.0049 96.26C28.7179 94.973 26.7029 93.491 24.2979 93.491C23.4659 93.491 22.9459 93.764 22.9459 94.245C22.9459 94.83 23.5569 94.973 24.2719 94.973C25.0389 94.973 25.2599 94.648 25.2599 93.803C25.2599 92.932 25.1039 90.254 25.1039 89.071C25.1039 88.265 25.0909 87.667 25.0779 87.108C25.0519 86.367 25.0129 85.821 24.9219 85.457H27.2879ZM26.1049 87.862C26.8069 87.862 29.1729 87.823 30.6549 87.667L30.7329 89.539C29.2249 89.669 26.8459 89.721 26.1179 89.721L26.1049 87.862ZM35.7381 86.588C35.6341 87.134 35.5561 87.979 35.5561 88.356C35.5561 89.214 35.5561 90.059 35.6341 90.93C35.7901 92.633 36.0501 93.829 36.8041 93.829C37.4021 93.829 37.8571 92.204 38.0521 91.32L39.6381 93.27C38.7281 95.571 37.8961 96.377 36.7651 96.377C35.2181 96.377 33.9441 95.064 33.5801 91.515C33.4501 90.28 33.4371 88.785 33.4371 87.966C33.4371 87.576 33.4111 87.017 33.3201 86.562L35.7381 86.588ZM42.0951 86.835C43.3691 88.33 44.3961 91.853 44.5131 93.725L42.4201 94.531C42.2381 92.568 41.6011 89.149 40.0801 87.485L42.0951 86.835Z" fill="#119EED"/>
<path d="M20.984 70V67.05L25.884 62.975C26.234 62.675 26.634 62.3417 27.084 61.975C27.5507 61.5917 27.9923 61.1833 28.409 60.75C28.8423 60.3167 29.1923 59.8583 29.459 59.375C29.7423 58.8917 29.884 58.3917 29.884 57.875C29.884 57.1583 29.659 56.575 29.209 56.125C28.7757 55.675 28.134 55.45 27.284 55.45C26.484 55.45 25.8507 55.6333 25.384 56C24.934 56.35 24.6507 56.8 24.534 57.35H21.084C21.184 56.1667 21.534 55.1917 22.134 54.425C22.7507 53.6417 23.5257 53.0583 24.459 52.675C25.3923 52.2917 26.3757 52.1 27.409 52.1C28.5257 52.1 29.5423 52.3083 30.459 52.725C31.3757 53.1417 32.1007 53.75 32.634 54.55C33.1673 55.3333 33.434 56.3083 33.434 57.475C33.434 58.475 33.2423 59.3833 32.859 60.2C32.4923 61 31.984 61.75 31.334 62.45C30.684 63.1333 29.9507 63.7917 29.134 64.425L26.334 66.7H33.409V70H20.984ZM41.7727 70.2C40.756 70.2 39.8143 70.0333 38.9477 69.7C38.081 69.35 37.3477 68.8167 36.7477 68.1C36.1643 67.3833 35.7893 66.4833 35.6227 65.4H39.1227C39.306 65.9 39.6643 66.2833 40.1977 66.55C40.731 66.8 41.2977 66.925 41.8977 66.925C42.581 66.925 43.156 66.7917 43.6227 66.525C44.106 66.2417 44.4893 65.875 44.7727 65.425C45.056 64.9583 45.2643 64.45 45.3977 63.9C45.531 63.3333 45.606 62.7583 45.6227 62.175C45.6227 62.1083 45.6227 62.0417 45.6227 61.975C45.6227 61.8917 45.6227 61.8167 45.6227 61.75C45.256 62.2833 44.8143 62.7 44.2977 63C43.781 63.3 43.2477 63.5083 42.6977 63.625C42.1477 63.7417 41.6227 63.8 41.1227 63.8C40.0727 63.8 39.1227 63.5833 38.2727 63.15C37.4227 62.7 36.7477 62.0583 36.2477 61.225C35.7643 60.3917 35.5227 59.3833 35.5227 58.2C35.5227 56.8833 35.8227 55.775 36.4227 54.875C37.0227 53.9583 37.8143 53.2667 38.7977 52.8C39.7977 52.3333 40.8893 52.1 42.0727 52.1C43.3727 52.1 44.4643 52.3583 45.3477 52.875C46.231 53.3917 46.931 54.0917 47.4477 54.975C47.9643 55.8583 48.331 56.8417 48.5477 57.925C48.781 59.0083 48.8977 60.1167 48.8977 61.25C48.8977 62.4833 48.7643 63.6417 48.4977 64.725C48.2477 65.7917 47.8393 66.7417 47.2727 67.575C46.7227 68.3917 45.9893 69.0333 45.0727 69.5C44.1727 69.9667 43.0727 70.2 41.7727 70.2ZM41.9227 60.8C42.5727 60.8 43.106 60.6667 43.5227 60.4C43.956 60.1333 44.281 59.8 44.4977 59.4C44.731 58.9833 44.8477 58.55 44.8477 58.1C44.8477 57.5333 44.7143 57.05 44.4477 56.65C44.1977 56.2333 43.856 55.9167 43.4227 55.7C43.006 55.4667 42.5227 55.35 41.9727 55.35C41.3727 55.35 40.856 55.475 40.4227 55.725C39.9893 55.975 39.656 56.3083 39.4227 56.725C39.1893 57.1417 39.0727 57.5917 39.0727 58.075C39.0727 58.8417 39.3143 59.4917 39.7977 60.025C40.2977 60.5417 41.006 60.8 41.9227 60.8Z" fill="#119EED"/>
<path d="M51.0081 70.2C50.6414 70.2 50.3498 70.0917 50.1331 69.875C49.9331 69.6417 49.8331 69.3583 49.8331 69.025C49.8331 68.675 49.9414 68.3917 50.1581 68.175C50.3748 67.9583 50.6581 67.85 51.0081 67.85C51.3414 67.85 51.6164 67.9583 51.8331 68.175C52.0498 68.3917 52.1581 68.675 52.1581 69.025C52.1581 69.3583 52.0498 69.6417 51.8331 69.875C51.6331 70.0917 51.3581 70.2 51.0081 70.2Z" fill="#119EED"/>
<path d="M56.979 70.104C56.5456 70.104 56.1426 70.052 55.77 69.948C55.3973 69.8353 55.0636 69.6663 54.769 69.441C54.483 69.2157 54.2403 68.9297 54.041 68.583C53.8503 68.2363 53.7203 67.8247 53.651 67.348H55.484C55.536 67.5213 55.6313 67.686 55.77 67.842C55.9086 67.998 56.082 68.1237 56.29 68.219C56.5066 68.3143 56.7493 68.362 57.018 68.362C57.3473 68.362 57.6246 68.3057 57.85 68.193C58.0753 68.0717 58.2486 67.907 58.37 67.699C58.4913 67.491 58.552 67.244 58.552 66.958C58.552 66.5247 58.4133 66.178 58.136 65.918C57.8673 65.6493 57.486 65.515 56.992 65.515C56.706 65.515 56.4373 65.567 56.186 65.671C55.9433 65.7663 55.7093 65.9007 55.484 66.074H53.898L54.067 60.796H60.125V62.499H55.822L55.718 64.371C55.978 64.189 56.277 64.0633 56.615 63.994C56.9616 63.916 57.304 63.8813 57.642 63.89C58.24 63.9073 58.747 64.0373 59.163 64.28C59.579 64.5227 59.8953 64.8607 60.112 65.294C60.3373 65.7273 60.45 66.2343 60.45 66.815C60.45 67.517 60.294 68.115 59.982 68.609C59.6786 69.103 59.2626 69.4757 58.734 69.727C58.214 69.9783 57.629 70.104 56.979 70.104Z" fill="#119EED"/>
<path d="M63.0627 70L69.0427 60.796H70.9147L64.9607 70H63.0627ZM69.9397 70.091C69.4977 70.091 69.1077 70 68.7697 69.818C68.4403 69.6273 68.1803 69.363 67.9897 69.025C67.8077 68.687 67.7167 68.2883 67.7167 67.829C67.7167 67.3697 67.812 66.971 68.0027 66.633C68.1933 66.295 68.4577 66.035 68.7957 65.853C69.1337 65.6623 69.5237 65.567 69.9657 65.567C70.399 65.567 70.7803 65.658 71.1097 65.84C71.439 66.022 71.6947 66.282 71.8767 66.62C72.0587 66.9493 72.1497 67.348 72.1497 67.816C72.1497 68.2753 72.0543 68.6783 71.8637 69.025C71.6817 69.363 71.4217 69.6273 71.0837 69.818C70.7543 70 70.373 70.091 69.9397 70.091ZM69.9397 68.726C70.1303 68.726 70.2863 68.687 70.4077 68.609C70.529 68.5223 70.6157 68.4097 70.6677 68.271C70.7283 68.1323 70.7587 67.9893 70.7587 67.842C70.7587 67.6947 70.7283 67.556 70.6677 67.426C70.6157 67.2873 70.529 67.1747 70.4077 67.088C70.2863 67.0013 70.1303 66.958 69.9397 66.958C69.6363 66.958 69.4197 67.0533 69.2897 67.244C69.1597 67.426 69.0947 67.6297 69.0947 67.855C69.1033 68.0803 69.1727 68.284 69.3027 68.466C69.4327 68.6393 69.645 68.726 69.9397 68.726ZM64.0767 65.216C63.626 65.216 63.236 65.125 62.9067 64.943C62.5773 64.7523 62.3173 64.488 62.1267 64.15C61.9447 63.812 61.8537 63.4177 61.8537 62.967C61.8537 62.499 61.9447 62.096 62.1267 61.758C62.3173 61.42 62.5817 61.16 62.9197 60.978C63.2577 60.7873 63.6477 60.692 64.0897 60.692C64.5317 60.692 64.913 60.783 65.2337 60.965C65.563 61.147 65.8187 61.407 66.0007 61.745C66.1827 62.0743 66.2737 62.473 66.2737 62.941C66.2737 63.4003 66.1827 63.8033 66.0007 64.15C65.8187 64.488 65.5587 64.7523 65.2207 64.943C64.8913 65.125 64.51 65.216 64.0767 65.216ZM64.0767 63.838C64.2673 63.838 64.4233 63.799 64.5447 63.721C64.666 63.6343 64.7527 63.526 64.8047 63.396C64.8567 63.2573 64.8827 63.11 64.8827 62.954C64.8827 62.8067 64.8523 62.668 64.7917 62.538C64.7397 62.3993 64.653 62.2867 64.5317 62.2C64.419 62.1133 64.2673 62.07 64.0767 62.07C63.7733 62.07 63.5523 62.1653 63.4137 62.356C63.2837 62.538 63.223 62.746 63.2317 62.98C63.2317 63.2053 63.2967 63.4047 63.4267 63.578C63.5653 63.7513 63.782 63.838 64.0767 63.838Z" fill="#119EED"/>
<g opacity="0.8">
<rect x="20" y="76" width="56" height="2" fill="#119EED"/>
<path d="M76 77L94 95" stroke="#119EED" stroke-width="2"/>
</g>
<ellipse cx="156" cy="143" rx="90" ry="87" fill="white"/>
<path fill-rule="evenodd" clip-rule="evenodd" d="M101.124 153.523L67.6902 159.874C75.8176 199.847 112.265 230 155.999 230C205.704 230 245.999 191.049 245.999 143C245.999 94.9513 205.704 56.0001 155.999 56V90C188.022 90.0001 211.999 114.806 211.999 143C211.999 171.194 188.022 196 155.999 196C128.037 196 106.211 177.088 101.124 153.523Z" fill="#64C7FF"/>
<path fill-rule="evenodd" clip-rule="evenodd" d="M150.884 90.2139C121.456 92.6897 100 116.329 100 143C100 146.577 100.386 150.099 101.125 153.522L67.6915 159.874C66.5817 154.415 66 148.773 66 143C66 97.6858 101.839 60.4629 147.611 56.3732L150.884 90.2139Z" fill="#95D9FF"/>
<mask id="path-27-inside-1_1132_21201" fill="white">
<path fill-rule="evenodd" clip-rule="evenodd" d="M150.887 90.2135C121.458 92.6882 100 116.328 100 143C100 171.194 123.976 196 156 196C188.024 196 212 171.194 212 143C212 114.807 188.024 90.0006 156.001 90V56C205.706 56.0007 246 94.9516 246 143C246 191.049 205.706 230 156 230C106.294 230 66 191.049 66 143C66 97.6848 101.84 60.4614 147.614 56.3727L150.887 90.2135Z"/>
</mask>
<path d="M150.887 90.2135L151.096 92.7047L153.619 92.4926L153.375 89.9728L150.887 90.2135ZM156.001 90H153.501V92.5L156.001 92.5L156.001 90ZM156.001 56L156.001 53.5L153.501 53.5V56H156.001ZM147.614 56.3727L150.102 56.132L149.863 53.6618L147.391 53.8826L147.614 56.3727ZM150.677 87.7223C120.019 90.3003 97.5 114.963 97.5 143H102.5C102.5 117.693 122.896 95.076 151.096 92.7047L150.677 87.7223ZM97.5 143C97.5 172.639 122.661 198.5 156 198.5V193.5C125.292 193.5 102.5 169.749 102.5 143H97.5ZM156 198.5C189.339 198.5 214.5 172.639 214.5 143H209.5C209.5 169.749 186.708 193.5 156 193.5V198.5ZM214.5 143C214.5 113.361 189.34 87.5007 156.001 87.5L156.001 92.5C186.709 92.5006 209.5 116.252 209.5 143H214.5ZM158.501 90V56H153.501V90H158.501ZM248.5 143C248.5 93.4917 207.006 53.5007 156.001 53.5L156.001 58.5C204.406 58.5006 243.5 96.4115 243.5 143H248.5ZM156 232.5C207.006 232.5 248.5 192.509 248.5 143H243.5C243.5 189.589 204.405 227.5 156 227.5V232.5ZM63.5 143C63.5 192.509 104.994 232.5 156 232.5V227.5C107.595 227.5 68.5 189.589 68.5 143H63.5ZM147.391 53.8826C100.41 58.0792 63.5 96.3096 63.5 143H68.5C68.5 99.06 103.27 62.8436 147.836 58.8628L147.391 53.8826ZM145.125 56.6134L148.398 90.4542L153.375 89.9728L150.102 56.132L145.125 56.6134Z" fill="#119EED" mask="url(#path-27-inside-1_1132_21201)"/>
<path fill-rule="evenodd" clip-rule="evenodd" d="M156.001 90V56C156.001 56 156.001 56 156 56C153.172 56 150.375 56.1261 147.614 56.3727L150.887 90.2135C152.566 90.0723 154.271 90 156 90C156.001 90 156.001 90 156.001 90Z" fill="white"/>
<path d="M139.48 119.228H145.168V120.344H139.48V119.228ZM140.464 117.416L141.76 117.8C140.932 119.036 139.456 119.984 138.004 120.548C137.824 120.284 137.38 119.732 137.116 119.492C138.484 119.072 139.816 118.34 140.464 117.416ZM144.94 117.464C145.648 118.328 147.064 119.06 148.528 119.408C148.216 119.684 147.796 120.224 147.592 120.584C146.032 120.104 144.592 119.108 143.716 117.92L144.94 117.464ZM144.748 119.228H146.164C146.164 119.228 146.14 119.588 146.116 119.756C145.936 121.508 145.72 122.312 145.384 122.648C145.108 122.924 144.796 123.02 144.4 123.044C144.064 123.092 143.464 123.08 142.828 123.068C142.804 122.696 142.66 122.192 142.444 121.844C142.996 121.904 143.536 121.916 143.776 121.916C143.98 121.916 144.1 121.904 144.208 121.796C144.424 121.604 144.604 120.932 144.748 119.408V119.228ZM141.364 119.576L142.768 119.72C142.132 121.664 140.56 122.6 138.412 123.128C138.268 122.84 137.884 122.276 137.644 122.024C139.564 121.712 140.956 121.016 141.364 119.576ZM138.304 112.208H147.208V113.324H138.304V112.208ZM139.168 115.172H141.58V116.012H139.168V115.172ZM138.928 116.432H141.604V117.284H138.928V116.432ZM143.884 116.432H146.632V117.284H143.884V116.432ZM143.884 115.172H146.368V116.012H143.884V115.172ZM142.036 112.808H143.44V117.584H142.036V112.808ZM137.488 113.756H148.084V116.276H146.752V114.776H138.76V116.252H137.488V113.756ZM152.38 115.268H158.644V116.408H152.38V115.268ZM152.296 117.464H158.692V118.64H152.296V117.464ZM156.196 114.044H157.444V120.824H156.196V114.044ZM153.652 114.044H154.864V117.104C154.864 118.7 154.648 120.14 153.172 121.088C152.992 120.812 152.56 120.368 152.284 120.164C153.484 119.396 153.652 118.292 153.652 117.08V114.044ZM150.376 112.328H160.648V123.116H159.148V113.66H151.804V123.116H150.376V112.328ZM151.204 121.256H159.712V122.588H151.204V121.256ZM165.196 112.964H173.38V114.164H165.196V112.964ZM165.328 114.728H172.288V115.892H165.328V114.728ZM163.9 116.492H170.836V117.704H163.9V116.492ZM165.052 111.752L166.564 112.088C165.988 114.008 164.968 115.736 163.804 116.804C163.516 116.552 162.856 116.096 162.484 115.892C163.684 114.98 164.596 113.432 165.052 111.752ZM168.028 117.764L169.432 118.22C168.208 120.476 166.168 122.216 163.972 123.272C163.756 122.972 163.228 122.408 162.904 122.156C165.112 121.28 167.008 119.72 168.028 117.764ZM170.356 116.492H171.844C171.808 119.384 171.964 121.664 172.66 121.664C172.852 121.664 172.9 121.016 172.912 120.044C173.2 120.38 173.56 120.74 173.86 120.956C173.752 122.456 173.488 123.092 172.564 123.104C170.584 123.092 170.38 120.164 170.356 116.492ZM163.924 119.096L164.956 118.148C166.684 119.048 168.952 120.512 170.056 121.616L168.904 122.72C167.908 121.616 165.7 120.08 163.924 119.096ZM155.5 126.42C156.064 126.42 156.52 126.876 156.52 127.44C156.52 128.004 156.064 128.46 155.5 128.46C154.936 128.46 154.48 128.004 154.48 127.44C154.48 126.876 154.936 126.42 155.5 126.42ZM117.826 132.484H121.222V133.948H117.826V132.484ZM120.514 132.484H122.002C122.002 134.764 122.326 139.18 126.778 141.784C126.442 142.048 125.866 142.684 125.614 143.044C121.042 140.296 120.514 134.932 120.514 132.484ZM119.998 135.112L121.654 135.412C120.814 138.976 119.218 141.556 116.71 143.068C116.446 142.756 115.774 142.156 115.402 141.892C117.91 140.62 119.35 138.292 119.998 135.112ZM130.994 132.364C130.826 132.952 130.574 134.188 130.502 134.86C131.078 133.936 132.134 132.916 133.478 132.916C135.146 132.916 136.442 134.56 136.442 137.2C136.442 140.596 134.366 142.204 131.186 142.792L130.274 141.4C132.95 140.992 134.822 140.104 134.822 137.2C134.822 135.352 134.198 134.32 133.202 134.32C131.786 134.32 130.538 136.456 130.49 138.028C130.466 138.364 130.478 138.748 130.538 139.3L129.062 139.408C128.99 138.94 128.918 138.208 128.918 137.404C128.918 136.276 129.074 134.8 129.254 133.552C129.302 133.108 129.338 132.628 129.35 132.304L130.994 132.364ZM143.983 134.368C143.563 133.936 142.735 133.132 142.267 132.772L143.371 132.004C143.791 132.34 144.691 133.108 145.111 133.552L143.983 134.368ZM140.719 133.084C140.815 133.312 141.055 133.804 141.187 134.032C141.679 134.956 142.219 136.144 142.651 137.152C143.215 138.46 144.151 141.016 144.547 142.372L142.891 142.792C142.519 141.28 141.895 139.252 141.283 137.812C140.803 136.696 140.359 135.604 139.867 134.74C139.687 134.452 139.399 133.996 139.159 133.696L140.719 133.084ZM138.127 136.6C138.595 136.492 139.111 136.3 139.315 136.216C141.499 135.364 143.959 133.96 145.891 133.96C147.739 133.96 148.867 135.088 148.867 136.48C148.867 138.16 147.715 139.216 145.879 139.216C145.219 139.216 144.475 139.048 144.019 138.88L144.067 137.38C144.607 137.608 145.207 137.776 145.723 137.776C146.623 137.776 147.283 137.284 147.283 136.42C147.283 135.82 146.755 135.316 145.855 135.316C143.911 135.316 140.311 137.464 138.823 138.136L138.127 136.6ZM157.231 132.328C157.195 132.532 157.159 133.168 157.147 133.36C157.111 134.152 157.135 136.6 157.147 137.56L155.647 137.056C155.647 136.312 155.647 134.008 155.599 133.372C155.563 132.892 155.515 132.484 155.491 132.328H157.231ZM150.439 133.828C152.227 133.828 155.395 133.732 156.895 133.732C158.119 133.732 159.943 133.72 160.615 133.732L160.591 135.148C159.847 135.112 158.623 135.076 156.859 135.076C154.675 135.076 152.287 135.172 150.475 135.268L150.439 133.828ZM156.943 137.38C156.943 139.336 156.223 140.308 154.843 140.308C153.919 140.308 152.767 139.576 152.767 138.112C152.767 136.756 153.871 135.868 155.167 135.868C156.751 135.868 157.579 137.032 157.579 138.52C157.579 140.092 156.655 142.072 153.727 142.9L152.455 141.628C154.495 141.184 156.091 140.38 156.091 138.28C156.091 137.5 155.671 137.128 155.143 137.128C154.675 137.128 154.207 137.452 154.207 138.088C154.207 138.628 154.651 138.976 155.143 138.976C155.707 138.976 156.199 138.496 155.815 137.068L156.943 137.38ZM166.956 133.492C166.872 133.216 166.728 132.784 166.584 132.388L168.204 132.196C168.384 133.12 168.672 134.068 168.96 134.836C169.332 135.844 169.896 136.876 170.292 137.428C170.496 137.728 170.712 137.98 170.928 138.232L170.196 139.3C169.524 139.168 168 139.012 166.992 138.928L167.112 137.656C167.7 137.716 168.492 137.776 168.864 137.812C168.432 137.104 167.904 136.096 167.532 135.1C167.268 134.44 167.1 133.888 166.956 133.492ZM162.588 134.056C164.832 134.32 166.656 134.308 168.096 134.152C169.164 134.02 170.22 133.816 171.168 133.528L171.348 135.028C170.556 135.256 169.524 135.436 168.564 135.544C166.968 135.736 165.072 135.784 162.612 135.58L162.588 134.056ZM165 138.136C164.604 138.712 164.412 139.24 164.412 139.756C164.412 140.776 165.312 141.196 166.956 141.208C168.264 141.208 169.32 141.076 170.16 140.908L170.076 142.432C169.392 142.552 168.312 142.708 166.86 142.708C164.4 142.708 162.864 141.76 162.864 140.02C162.864 139.288 163.092 138.604 163.5 137.788L165 138.136ZM173.721 134.14C174.237 134.2 174.885 134.224 175.317 134.224C176.805 134.224 178.425 133.972 179.589 133.6L179.625 134.992C178.593 135.28 176.865 135.592 175.329 135.58C174.849 135.58 174.345 135.568 173.829 135.544L173.721 134.14ZM178.389 132.34C178.233 132.976 177.945 134.152 177.621 135.172C177.069 136.9 175.989 139.132 174.969 140.548L173.517 139.804C174.597 138.484 175.677 136.384 176.145 135.088C176.433 134.224 176.697 133.108 176.733 132.184L178.389 132.34ZM181.209 136.084C181.173 136.588 181.185 137.092 181.197 137.62C181.221 138.328 181.329 140.116 181.329 140.788C181.329 141.904 180.729 142.78 179.013 142.78C177.525 142.78 176.349 142.108 176.349 140.788C176.349 139.624 177.333 138.712 179.001 138.712C181.101 138.712 182.757 139.768 183.753 140.668L182.961 141.964C182.097 141.16 180.729 139.924 178.917 139.924C178.221 139.924 177.765 140.224 177.765 140.644C177.765 141.088 178.149 141.4 178.809 141.4C179.625 141.4 179.889 140.944 179.889 140.272C179.889 139.552 179.757 137.344 179.697 136.084H181.209ZM183.273 136.72C182.577 136.156 181.209 135.376 180.381 135.004L181.161 133.828C182.025 134.2 183.501 135.004 184.125 135.448L183.273 136.72ZM194.018 135.364C193.646 135.58 193.262 135.784 192.83 136C192.074 136.384 190.946 136.9 189.854 137.62C188.858 138.268 188.186 138.964 188.186 139.792C188.186 140.656 189.014 141.124 190.682 141.124C191.918 141.124 193.538 140.932 194.606 140.68L194.582 142.408C193.562 142.588 192.29 142.708 190.73 142.708C188.33 142.708 186.53 142.036 186.53 139.972C186.53 138.448 187.634 137.38 189.05 136.444C190.19 135.7 191.414 135.1 192.158 134.68C192.602 134.416 192.95 134.212 193.262 133.948L194.018 135.364ZM188.354 132.616C188.942 134.212 189.686 135.664 190.25 136.648L188.882 137.452C188.234 136.36 187.514 134.788 186.842 133.24L188.354 132.616ZM194.162 132.436C194.462 132.88 194.882 133.636 195.11 134.08L194.15 134.5C193.898 134.008 193.538 133.288 193.202 132.832L194.162 132.436ZM195.578 131.896C195.89 132.34 196.334 133.108 196.55 133.528L195.602 133.936C195.35 133.444 194.966 132.736 194.63 132.28L195.578 131.896ZM117.477 149.79C117.407 150.122 117.337 150.875 117.319 151.312C117.232 152.695 117.179 154.585 117.179 156.212C117.179 158.12 117.284 161.147 117.284 162.162C117.284 164.315 116.514 164.91 115.359 164.91C113.662 164.91 111.247 163.44 111.247 161.585C111.247 159.887 113.434 158.102 115.867 157.245C117.424 156.685 119.192 156.405 120.522 156.405C123.217 156.405 125.352 157.805 125.352 160.22C125.352 162.302 124.267 163.86 121.484 164.543C120.679 164.718 119.892 164.77 119.174 164.84L118.387 162.565C119.157 162.565 119.927 162.565 120.522 162.442C121.939 162.197 123.077 161.48 123.077 160.22C123.077 159.012 122.027 158.33 120.504 158.33C119.017 158.33 117.477 158.645 116.112 159.187C114.537 159.782 113.417 160.727 113.417 161.48C113.417 162.04 114.239 162.512 114.694 162.512C115.009 162.512 115.237 162.372 115.237 161.76C115.237 160.85 115.149 158.417 115.149 156.3C115.149 154.305 115.167 152.135 115.167 151.33C115.167 150.98 115.114 150.105 115.062 149.79H117.477ZM122.464 151.697C123.794 152.345 125.824 153.482 126.769 154.147L125.702 155.932C124.862 155.232 122.587 153.92 121.502 153.395L122.464 151.697ZM111.719 152.66C112.752 152.782 113.504 152.782 114.134 152.782C115.954 152.782 118.684 152.45 120.487 151.925L120.539 154.095C118.562 154.55 115.744 154.865 114.204 154.865C113.049 154.865 112.367 154.847 111.772 154.777L111.719 152.66ZM137.96 155.092H144.575V156.947H137.96V155.092ZM134.215 163.09H142.44V164.945H134.215V163.09ZM136.963 153.447H139.098V159.94H136.963V153.447ZM133.113 158.855H143.56V165.558H141.408V160.71H135.16V165.575H133.113V158.855ZM136.245 149.142H138.433V152.327H136.245V149.142ZM130.995 151.19H144.82V153.185H130.995V151.19ZM129.963 151.19H132.063V155.617C132.063 158.452 131.8 162.792 130.208 165.54C129.823 165.19 128.895 164.577 128.388 164.368C129.858 161.847 129.963 158.155 129.963 155.617V151.19ZM156.913 152.012C156.668 153.797 156.318 155.845 155.706 157.91C154.656 161.445 153.151 163.615 151.243 163.615C149.283 163.615 147.673 161.462 147.673 158.505C147.673 154.48 151.191 151.015 155.723 151.015C160.046 151.015 162.793 154.025 162.793 157.857C162.793 161.532 160.536 164.14 156.126 164.823L154.796 162.757C155.478 162.67 155.968 162.582 156.441 162.477C158.663 161.935 160.413 160.342 160.413 157.77C160.413 155.022 158.698 153.062 155.671 153.062C151.961 153.062 149.931 156.09 149.931 158.295C149.931 160.062 150.631 160.92 151.296 160.92C152.048 160.92 152.713 159.8 153.448 157.437C153.956 155.792 154.341 153.78 154.516 151.942L156.913 152.012ZM169.063 151.697H173.351V153.675H169.063V151.697ZM176.396 149.177H178.583V165.54H176.396V149.177ZM167.138 156.877L168.188 155.302C169.501 156.02 171.198 157.157 171.986 157.98L170.866 159.765C170.113 158.89 168.451 157.665 167.138 156.877ZM169.291 149.125L171.373 149.562C170.446 153.08 168.871 156.317 166.911 158.347C166.543 157.98 165.651 157.297 165.161 156.982C167.086 155.232 168.521 152.292 169.291 149.125ZM175.311 153.395C176.676 155.967 179.388 158.487 182.241 159.747C181.733 160.185 181.068 161.025 180.718 161.585C177.778 160.027 175.153 157.175 173.526 154.042L175.311 153.395ZM172.773 151.697H173.158L173.526 151.627L174.908 152.082C173.876 158.855 171.111 163.282 167.331 165.435C166.981 164.963 166.176 164.175 165.668 163.86C169.396 161.9 171.951 158.085 172.773 152.17V151.697ZM186.353 158.592H191.831V159.905H186.353V158.592ZM186.353 160.727H191.848V162.04H186.353V160.727ZM184.183 153.377H192.198V155.005H184.183V153.377ZM186.248 162.95H192.076V164.455H186.248V162.95ZM188.418 157.052H190.186V163.44H188.418V157.052ZM187.281 156.352H192.093V157.735H187.281V165.208H185.443V157.857L186.861 156.352H187.281ZM189.083 155.04L190.973 155.355C190.588 156.02 190.203 156.667 189.923 157.105L188.471 156.772C188.716 156.247 188.961 155.53 189.083 155.04ZM185.828 149.09L187.683 149.527C187.211 151.067 186.388 152.607 185.531 153.605C185.198 153.29 184.428 152.73 183.991 152.467C184.796 151.627 185.461 150.35 185.828 149.09ZM187.613 151.47L189.416 151.925C188.488 154.882 186.896 157.665 184.971 159.397C184.743 158.995 184.131 158.155 183.781 157.77C185.496 156.335 186.878 154.007 187.613 151.47ZM186.406 150.56H192.058V152.187H185.601L186.406 150.56ZM194.473 154.427V155.6H197.693V154.427H194.473ZM194.473 157.245V158.417H197.693V157.245H194.473ZM194.473 151.627V152.782H197.693V151.627H194.473ZM192.636 149.79H199.636V160.255H192.636V149.79ZM196.136 158.942H197.973V163.037C197.973 163.492 197.991 163.562 198.201 163.562C198.271 163.562 198.586 163.562 198.673 163.562C198.918 163.562 198.971 163.317 199.023 161.497C199.373 161.812 200.161 162.092 200.651 162.232C200.476 164.648 200.021 165.26 198.901 165.26C198.603 165.26 198.131 165.26 197.868 165.26C196.433 165.26 196.136 164.718 196.136 163.055V158.942ZM193.703 159.503H195.453C195.243 162.18 194.631 164.315 191.971 165.558C191.761 165.12 191.253 164.403 190.851 164.07C193.108 163.142 193.511 161.532 193.703 159.503Z" fill="#4A3E42"/>
<path d="M174.291 257.359H188.574V259.751H174.291V257.359ZM173.578 261.453H189.241V263.868H173.578V261.453ZM178.431 271.297H184.296V273.298H178.431V271.297ZM177.235 255.473H179.811V263.5H177.235V255.473ZM182.893 255.473H185.561V263.5H182.893V255.473ZM177.649 268.583H179.282V274.655H177.649V268.583ZM183.468 268.583H185.055V274.08H183.468V268.583ZM186.113 265.248H188.689V274.448C188.689 275.621 188.482 276.265 187.7 276.656C186.918 277.001 185.791 277.024 184.25 277.024C184.158 276.357 183.882 275.391 183.583 274.724C184.48 274.77 185.446 274.77 185.745 274.77C186.021 274.77 186.113 274.678 186.113 274.402V265.248ZM174.245 265.248H187.079V267.64H176.683V277.047H174.245V265.248ZM168.679 257.658L170.312 255.68C171.669 256.278 173.417 257.313 174.291 258.118L172.566 260.303C171.784 259.475 170.059 258.325 168.679 257.658ZM167.575 264.006L169.047 261.913C170.427 262.373 172.29 263.224 173.233 263.96L171.669 266.283C170.818 265.547 169.001 264.581 167.575 264.006ZM168.15 275.161C169.208 273.39 170.703 270.492 171.876 267.778L174.038 269.434C173.026 271.895 171.807 274.563 170.634 276.817L168.15 275.161ZM180.018 263.132H182.64V267.065H182.341V272.677H180.317V267.065H180.018V263.132ZM201.96 267.686H211.091V270.262H201.96V267.686ZM197.222 268.997C198.901 273.39 202.696 274.218 207.135 274.218C208.147 274.241 211.551 274.218 212.839 274.172C212.448 274.816 212.034 276.081 211.896 276.863H206.974C201.362 276.863 197.268 275.621 194.968 269.848L197.222 268.997ZM200.718 264.19H203.57V275.529L200.718 274.632V264.19ZM196.808 259.084V262.235H207.434V259.084H196.808ZM194.071 256.462H210.355V264.857H194.071V256.462ZM195.06 266.237L197.958 266.582C197.314 270.4 196.026 274.701 193.197 277.001C192.737 276.449 191.817 275.552 191.242 275.138C193.703 273.16 194.738 269.411 195.06 266.237Z" fill="#4A3E42"/>
<path d="M218.54 270.15L218.115 260.15L218.04 257.15H220.94L220.865 260.15L220.465 270.15H218.54ZM219.49 276.35C218.415 276.35 217.565 275.5 217.565 274.325C217.565 273.125 218.415 272.3 219.49 272.3C220.59 272.3 221.415 273.125 221.415 274.325C221.415 275.5 220.59 276.35 219.49 276.35Z" fill="#4A3E42"/>
<rect x="88" y="266" width="62" height="14" fill="#FFED9A"/>
<path d="M157.81 264.27C157.72 264.66 157.63 265.14 157.555 265.515C157.405 266.19 157.225 267.12 157.06 267.885C156.565 270 155.365 274.275 153.79 276.81L151.825 276.03C153.61 273.63 154.735 269.67 155.155 267.78C155.44 266.43 155.605 265.155 155.59 264.03L157.81 264.27ZM162.985 265.77C163.9 267.075 165.16 269.865 165.625 271.29L163.72 272.175C163.33 270.51 162.265 267.87 161.185 266.535L162.985 265.77ZM151.735 267.345C152.275 267.375 152.785 267.36 153.34 267.345C154.54 267.315 157.39 266.985 158.5 266.985C160.09 266.985 161.215 267.69 161.215 269.865C161.215 271.635 160.99 274.065 160.36 275.355C159.865 276.405 159.025 276.735 157.9 276.735C157.315 276.735 156.61 276.645 156.1 276.525L155.77 274.545C156.355 274.71 157.21 274.86 157.6 274.86C158.11 274.86 158.5 274.71 158.725 274.215C159.145 273.375 159.34 271.545 159.34 270.075C159.34 268.875 158.83 268.695 157.885 268.695C157 268.695 154.405 269.025 153.58 269.13C153.145 269.19 152.365 269.295 151.915 269.37L151.735 267.345ZM162.715 263.7C163.09 264.24 163.615 265.2 163.9 265.755L162.7 266.265C162.385 265.65 161.92 264.765 161.515 264.18L162.715 263.7ZM164.485 263.01C164.875 263.58 165.43 264.54 165.7 265.065L164.5 265.575C164.2 264.945 163.705 264.075 163.3 263.505L164.485 263.01Z" fill="#4A3E42"/>
<path d="M135.745 276.5L144.485 263.048H147.221L138.519 276.5H135.745ZM145.796 276.633C145.15 276.633 144.58 276.5 144.086 276.234C143.605 275.955 143.225 275.569 142.946 275.075C142.68 274.581 142.547 273.998 142.547 273.327C142.547 272.656 142.687 272.073 142.965 271.579C143.244 271.085 143.63 270.705 144.124 270.439C144.618 270.16 145.188 270.021 145.834 270.021C146.468 270.021 147.025 270.154 147.506 270.42C147.988 270.686 148.361 271.066 148.627 271.56C148.893 272.041 149.026 272.624 149.026 273.308C149.026 273.979 148.887 274.568 148.608 275.075C148.342 275.569 147.962 275.955 147.468 276.234C146.987 276.5 146.43 276.633 145.796 276.633ZM145.796 274.638C146.075 274.638 146.303 274.581 146.48 274.467C146.658 274.34 146.784 274.176 146.86 273.973C146.949 273.77 146.993 273.561 146.993 273.346C146.993 273.131 146.949 272.928 146.86 272.738C146.784 272.535 146.658 272.371 146.48 272.244C146.303 272.117 146.075 272.054 145.796 272.054C145.353 272.054 145.036 272.193 144.846 272.472C144.656 272.738 144.561 273.036 144.561 273.365C144.574 273.694 144.675 273.992 144.865 274.258C145.055 274.511 145.366 274.638 145.796 274.638ZM137.227 269.508C136.569 269.508 135.999 269.375 135.517 269.109C135.036 268.83 134.656 268.444 134.377 267.95C134.111 267.456 133.978 266.88 133.978 266.221C133.978 265.537 134.111 264.948 134.377 264.454C134.656 263.96 135.042 263.58 135.536 263.314C136.03 263.035 136.6 262.896 137.246 262.896C137.892 262.896 138.45 263.029 138.918 263.295C139.4 263.561 139.773 263.941 140.039 264.435C140.305 264.916 140.438 265.499 140.438 266.183C140.438 266.854 140.305 267.443 140.039 267.95C139.773 268.444 139.393 268.83 138.899 269.109C138.418 269.375 137.861 269.508 137.227 269.508ZM137.227 267.494C137.506 267.494 137.734 267.437 137.911 267.323C138.089 267.196 138.215 267.038 138.291 266.848C138.367 266.645 138.405 266.43 138.405 266.202C138.405 265.987 138.361 265.784 138.272 265.594C138.196 265.391 138.07 265.227 137.892 265.1C137.728 264.973 137.506 264.91 137.227 264.91C136.784 264.91 136.461 265.049 136.258 265.328C136.068 265.594 135.98 265.898 135.992 266.24C135.992 266.569 136.087 266.861 136.277 267.114C136.48 267.367 136.797 267.494 137.227 267.494Z" fill="#119EED"/>
<path d="M100.949 277.32C99.3221 277.32 97.8154 277.053 96.4287 276.52C95.0421 275.96 93.8687 275.107 92.9087 273.96C91.9754 272.813 91.3754 271.373 91.1087 269.64H96.7087C97.0021 270.44 97.5754 271.053 98.4287 271.48C99.2821 271.88 100.189 272.08 101.149 272.08C102.242 272.08 103.162 271.867 103.909 271.44C104.682 270.987 105.295 270.4 105.749 269.68C106.202 268.933 106.535 268.12 106.749 267.24C106.962 266.333 107.082 265.413 107.109 264.48C107.109 264.373 107.109 264.267 107.109 264.16C107.109 264.027 107.109 263.907 107.109 263.8C106.522 264.653 105.815 265.32 104.989 265.8C104.162 266.28 103.309 266.613 102.429 266.8C101.549 266.987 100.709 267.08 99.9087 267.08C98.2287 267.08 96.7087 266.733 95.3487 266.04C93.9887 265.32 92.9087 264.293 92.1087 262.96C91.3354 261.627 90.9487 260.013 90.9487 258.12C90.9487 256.013 91.4287 254.24 92.3887 252.8C93.3487 251.333 94.6154 250.227 96.1887 249.48C97.7887 248.733 99.5354 248.36 101.429 248.36C103.509 248.36 105.255 248.773 106.669 249.6C108.082 250.427 109.202 251.547 110.029 252.96C110.855 254.373 111.442 255.947 111.789 257.68C112.162 259.413 112.349 261.187 112.349 263C112.349 264.973 112.135 266.827 111.709 268.56C111.309 270.267 110.655 271.787 109.749 273.12C108.869 274.427 107.695 275.453 106.229 276.2C104.789 276.947 103.029 277.32 100.949 277.32ZM101.189 262.28C102.229 262.28 103.082 262.067 103.749 261.64C104.442 261.213 104.962 260.68 105.309 260.04C105.682 259.373 105.869 258.68 105.869 257.96C105.869 257.053 105.655 256.28 105.229 255.64C104.829 254.973 104.282 254.467 103.589 254.12C102.922 253.747 102.149 253.56 101.269 253.56C100.309 253.56 99.4821 253.76 98.7887 254.16C98.0954 254.56 97.5621 255.093 97.1887 255.76C96.8154 256.427 96.6287 257.147 96.6287 257.92C96.6287 259.147 97.0154 260.187 97.7887 261.04C98.5887 261.867 99.7221 262.28 101.189 262.28ZM115.251 277L126.051 254H112.531V248.68H132.571V252.96L121.611 277H115.251Z" fill="#119EED"/>
</svg>
