<svg width="312" height="302" viewBox="0 0 312 302" fill="none" xmlns="http://www.w3.org/2000/svg">
<g clip-path="url(#clip0_2355_22670)">
<path opacity="0.7" d="M304 0H8C3.58172 0 0 3.58172 0 8V294C0 298.418 3.58172 302 8 302H304C308.418 302 312 298.418 312 294V8C312 3.58172 308.418 0 304 0Z" fill="white"/>
<path d="M240.652 69.252H252.3V71.215H240.652V69.252ZM247.516 70.045C248.257 72.931 249.843 75.31 252.625 76.389C252.157 76.805 251.52 77.637 251.221 78.183C248.14 76.766 246.606 74.101 245.605 70.487L247.516 70.045ZM245.358 65.885H247.438C247.373 70.162 247.347 75.44 241.822 78.183C241.523 77.663 240.951 76.987 240.392 76.571C245.605 74.205 245.306 69.629 245.358 65.885ZM254.185 66.912H265.833V68.641H254.185V66.912ZM259.008 65.885H260.958V67.64H259.008V65.885ZM260.737 67.614H262.57V70.695C262.57 71.462 262.466 71.904 261.946 72.164C261.452 72.424 260.854 72.437 260.113 72.437C260.048 71.943 259.814 71.254 259.593 70.786C259.944 70.799 260.412 70.799 260.555 70.799C260.698 70.799 260.737 70.773 260.737 70.643V67.614ZM258.15 67.367H259.905V68.563C259.905 69.954 259.671 71.735 257.825 72.918C257.539 72.528 256.876 71.917 256.447 71.631C257.955 70.734 258.15 69.499 258.15 68.511V67.367ZM262.765 69.733L264.221 68.901C264.91 69.616 265.768 70.604 266.158 71.306L264.585 72.242C264.26 71.553 263.441 70.5 262.765 69.733ZM255.68 68.94L257.435 69.408C256.902 70.461 256.083 71.527 255.199 72.164C254.861 71.826 254.263 71.332 253.899 71.085C254.679 70.578 255.368 69.694 255.68 68.94ZM258.189 73.685C259.502 75.544 262.232 76.298 266.288 76.428C265.898 76.87 265.417 77.689 265.183 78.209C260.867 77.91 258.267 76.831 256.499 74.205L258.189 73.685ZM258.267 71.865L260.23 72.242C259.125 73.854 257.656 75.037 255.316 75.947C255.082 75.505 254.536 74.829 254.146 74.543C256.278 73.893 257.578 72.931 258.267 71.865ZM258.449 72.801H262.908V74.27H257.136L258.449 72.801ZM262.388 72.801H262.778L263.09 72.736L264.325 73.542C262.622 76.623 258.865 77.832 254.601 78.261C254.458 77.793 254.042 76.961 253.717 76.558C257.825 76.324 261.205 75.414 262.388 73.087V72.801ZM274.291 66.457C274.226 66.886 274.187 67.536 274.161 68.108C274.135 68.745 274.161 69.408 274.161 70.071C274.161 71.514 274.421 74.426 274.421 75.492C274.421 76.701 273.862 77.897 271.431 77.897C269.533 77.897 267.895 77.26 267.895 75.349C267.895 73.88 269.143 72.749 271.6 72.749C274.408 72.749 276.904 74.14 278.217 75.388L277.008 77.26C275.721 75.973 273.706 74.491 271.301 74.491C270.469 74.491 269.949 74.764 269.949 75.245C269.949 75.83 270.56 75.973 271.275 75.973C272.042 75.973 272.263 75.648 272.263 74.803C272.263 73.932 272.107 71.254 272.107 70.071C272.107 69.265 272.094 68.667 272.081 68.108C272.055 67.367 272.016 66.821 271.925 66.457H274.291ZM273.108 68.862C273.81 68.862 276.176 68.823 277.658 68.667L277.736 70.539C276.228 70.669 273.849 70.721 273.121 70.721L273.108 68.862ZM282.742 67.588C282.638 68.134 282.56 68.979 282.56 69.356C282.56 70.214 282.56 71.059 282.638 71.93C282.794 73.633 283.054 74.829 283.808 74.829C284.406 74.829 284.861 73.204 285.056 72.32L286.642 74.27C285.732 76.571 284.9 77.377 283.769 77.377C282.222 77.377 280.948 76.064 280.584 72.515C280.454 71.28 280.441 69.785 280.441 68.966C280.441 68.576 280.415 68.017 280.324 67.562L282.742 67.588ZM289.099 67.835C290.373 69.33 291.4 72.853 291.517 74.725L289.424 75.531C289.242 73.568 288.605 70.149 287.084 68.485L289.099 67.835Z" fill="#119EED"/>
<g opacity="0.8">
<path d="M226 57H292V59H226V57Z" fill="#119EED"/>
<path d="M226 58L208 76" stroke="#119EED" stroke-width="2"/>
<path fill-rule="evenodd" clip-rule="evenodd" d="M225.586 57H227V59H226.414L225.707 59.7071L224.293 58.2929L225.586 57Z" fill="#119EED"/>
</g>
<path d="M235.892 51.232C234.712 51.232 233.62 51.0387 232.615 50.652C231.609 50.246 230.759 49.6273 230.063 48.796C229.386 47.9647 228.951 46.9207 228.758 45.664H232.818C233.03 46.244 233.446 46.6887 234.065 46.998C234.683 47.288 235.341 47.433 236.037 47.433C236.829 47.433 237.496 47.2783 238.038 46.969C238.598 46.6403 239.043 46.215 239.372 45.693C239.7 45.1517 239.942 44.562 240.097 43.924C240.251 43.2667 240.338 42.5997 240.358 41.923C240.358 41.8457 240.358 41.7683 240.358 41.691C240.358 41.5943 240.358 41.5073 240.358 41.43C239.932 42.0487 239.42 42.532 238.821 42.88C238.221 43.228 237.603 43.4697 236.965 43.605C236.327 43.7403 235.718 43.808 235.138 43.808C233.92 43.808 232.818 43.5567 231.832 43.054C230.846 42.532 230.063 41.7877 229.483 40.821C228.922 39.8543 228.642 38.6847 228.642 37.312C228.642 35.7847 228.99 34.499 229.686 33.455C230.382 32.3917 231.3 31.5893 232.441 31.048C233.601 30.5067 234.867 30.236 236.24 30.236C237.748 30.236 239.014 30.5357 240.039 31.135C241.063 31.7343 241.875 32.5463 242.475 33.571C243.074 34.5957 243.499 35.7363 243.751 36.993C244.021 38.2497 244.157 39.5353 244.157 40.85C244.157 42.2807 244.002 43.6243 243.693 44.881C243.403 46.1183 242.929 47.2203 242.272 48.187C241.634 49.1343 240.783 49.8787 239.72 50.42C238.676 50.9613 237.4 51.232 235.892 51.232ZM236.066 40.328C236.82 40.328 237.438 40.1733 237.922 39.864C238.424 39.5547 238.801 39.168 239.053 38.704C239.323 38.2207 239.459 37.718 239.459 37.196C239.459 36.5387 239.304 35.978 238.995 35.514C238.705 35.0307 238.308 34.6633 237.806 34.412C237.322 34.1413 236.762 34.006 236.124 34.006C235.428 34.006 234.828 34.151 234.326 34.441C233.823 34.731 233.436 35.1177 233.166 35.601C232.895 36.0843 232.76 36.6063 232.76 37.167C232.76 38.0563 233.04 38.8103 233.601 39.429C234.181 40.0283 235.002 40.328 236.066 40.328ZM254.396 51.232C252.888 51.232 251.612 50.9613 250.568 50.42C249.524 49.8787 248.674 49.1343 248.016 48.187C247.359 47.2203 246.885 46.1087 246.595 44.852C246.305 43.576 246.16 42.2227 246.16 40.792C246.16 39.3227 246.305 37.95 246.595 36.674C246.905 35.398 247.388 34.2767 248.045 33.31C248.722 32.3433 249.582 31.5893 250.626 31.048C251.69 30.5067 252.966 30.236 254.454 30.236C256.001 30.236 257.296 30.5163 258.34 31.077C259.404 31.6377 260.254 32.4207 260.892 33.426C261.55 34.412 262.014 35.5333 262.284 36.79C262.574 38.0467 262.719 39.3613 262.719 40.734C262.719 42.1453 262.574 43.4793 262.284 44.736C261.994 45.9927 261.53 47.114 260.892 48.1C260.254 49.0667 259.404 49.8303 258.34 50.391C257.277 50.9517 255.962 51.232 254.396 51.232ZM254.396 47.404C255.344 47.404 256.088 47.1913 256.629 46.766C257.19 46.3213 257.606 45.751 257.876 45.055C258.166 44.359 258.35 43.634 258.427 42.88C258.524 42.1067 258.572 41.3913 258.572 40.734C258.572 40.1153 258.524 39.429 258.427 38.675C258.35 37.9017 258.176 37.1767 257.905 36.5C257.635 35.804 257.229 35.2337 256.687 34.789C256.146 34.3443 255.411 34.122 254.483 34.122C253.555 34.122 252.811 34.3443 252.25 34.789C251.69 35.2143 251.264 35.775 250.974 36.471C250.704 37.167 250.52 37.892 250.423 38.646C250.327 39.4 250.278 40.096 250.278 40.734C250.278 41.372 250.317 42.0777 250.394 42.851C250.491 43.6243 250.675 44.359 250.945 45.055C251.216 45.751 251.622 46.3213 252.163 46.766C252.724 47.1913 253.468 47.404 254.396 47.404Z" fill="#119EED"/>
<path d="M265.009 51.224C264.598 51.224 264.272 51.1027 264.029 50.86C263.805 50.5987 263.693 50.2813 263.693 49.908C263.693 49.516 263.814 49.1987 264.057 48.956C264.3 48.7133 264.617 48.592 265.009 48.592C265.382 48.592 265.69 48.7133 265.933 48.956C266.176 49.1987 266.297 49.516 266.297 49.908C266.297 50.2813 266.176 50.5987 265.933 50.86C265.709 51.1027 265.401 51.224 265.009 51.224Z" fill="#119EED"/>
<path d="M272.984 51.12C272.204 51.12 271.544 50.98 271.004 50.7C270.464 50.42 270.024 50.035 269.684 49.545C269.344 49.045 269.099 48.47 268.949 47.82C268.799 47.16 268.724 46.46 268.724 45.72C268.724 44.96 268.799 44.25 268.949 43.59C269.109 42.93 269.359 42.35 269.699 41.85C270.049 41.35 270.494 40.96 271.034 40.68C271.584 40.4 272.244 40.26 273.014 40.26C273.814 40.26 274.484 40.405 275.024 40.695C275.574 40.985 276.014 41.39 276.344 41.91C276.684 42.42 276.924 43 277.064 43.65C277.214 44.3 277.289 44.98 277.289 45.69C277.289 46.42 277.214 47.11 277.064 47.76C276.914 48.41 276.674 48.99 276.344 49.5C276.014 50 275.574 50.395 275.024 50.685C274.474 50.975 273.794 51.12 272.984 51.12ZM272.984 49.14C273.474 49.14 273.859 49.03 274.139 48.81C274.429 48.58 274.644 48.285 274.784 47.925C274.934 47.565 275.029 47.19 275.069 46.8C275.119 46.4 275.144 46.03 275.144 45.69C275.144 45.37 275.119 45.015 275.069 44.625C275.029 44.225 274.939 43.85 274.799 43.5C274.659 43.14 274.449 42.845 274.169 42.615C273.889 42.385 273.509 42.27 273.029 42.27C272.549 42.27 272.164 42.385 271.874 42.615C271.584 42.835 271.364 43.125 271.214 43.485C271.074 43.845 270.979 44.22 270.929 44.61C270.879 45 270.854 45.36 270.854 45.69C270.854 46.02 270.874 46.385 270.914 46.785C270.964 47.185 271.059 47.565 271.199 47.925C271.339 48.285 271.549 48.58 271.829 48.81C272.119 49.03 272.504 49.14 272.984 49.14Z" fill="#119EED"/>
<path d="M280.457 51L287.357 40.38H289.517L282.647 51H280.457ZM288.392 51.105C287.882 51.105 287.432 51 287.042 50.79C286.662 50.57 286.362 50.265 286.142 49.875C285.932 49.485 285.827 49.025 285.827 48.495C285.827 47.965 285.938 47.505 286.158 47.115C286.378 46.725 286.682 46.425 287.072 46.215C287.462 45.995 287.912 45.885 288.422 45.885C288.922 45.885 289.362 45.99 289.742 46.2C290.122 46.41 290.418 46.71 290.628 47.1C290.838 47.48 290.942 47.94 290.942 48.48C290.942 49.01 290.832 49.475 290.612 49.875C290.402 50.265 290.102 50.57 289.712 50.79C289.332 51 288.892 51.105 288.392 51.105ZM288.392 49.53C288.612 49.53 288.792 49.485 288.932 49.395C289.072 49.295 289.172 49.165 289.232 49.005C289.302 48.845 289.337 48.68 289.337 48.51C289.337 48.34 289.302 48.18 289.232 48.03C289.172 47.87 289.072 47.74 288.932 47.64C288.792 47.54 288.612 47.49 288.392 47.49C288.042 47.49 287.792 47.6 287.642 47.82C287.492 48.03 287.417 48.265 287.417 48.525C287.427 48.785 287.508 49.02 287.658 49.23C287.808 49.43 288.052 49.53 288.392 49.53ZM281.628 45.48C281.108 45.48 280.657 45.375 280.277 45.165C279.897 44.945 279.598 44.64 279.378 44.25C279.168 43.86 279.062 43.405 279.062 42.885C279.062 42.345 279.168 41.88 279.378 41.49C279.598 41.1 279.902 40.8 280.292 40.59C280.682 40.37 281.132 40.26 281.642 40.26C282.152 40.26 282.592 40.365 282.962 40.575C283.342 40.785 283.637 41.085 283.847 41.475C284.057 41.855 284.162 42.315 284.162 42.855C284.162 43.385 284.057 43.85 283.847 44.25C283.637 44.64 283.337 44.945 282.947 45.165C282.567 45.375 282.128 45.48 281.628 45.48ZM281.628 43.89C281.848 43.89 282.027 43.845 282.167 43.755C282.307 43.655 282.407 43.53 282.467 43.38C282.527 43.22 282.557 43.05 282.557 42.87C282.557 42.7 282.522 42.54 282.452 42.39C282.392 42.23 282.292 42.1 282.152 42C282.022 41.9 281.848 41.85 281.628 41.85C281.278 41.85 281.022 41.96 280.862 42.18C280.712 42.39 280.642 42.63 280.652 42.9C280.652 43.16 280.728 43.39 280.878 43.59C281.038 43.79 281.288 43.89 281.628 43.89Z" fill="#119EED"/>
<path d="M37.2876 65.457C37.2226 65.886 37.1836 66.536 37.1576 67.108C37.1316 67.745 37.1576 68.408 37.1576 69.071C37.1576 70.514 37.4176 73.426 37.4176 74.492C37.4176 75.701 36.8586 76.897 34.4276 76.897C32.5296 76.897 30.8916 76.26 30.8916 74.349C30.8916 72.88 32.1396 71.749 34.5966 71.749C37.4046 71.749 39.9006 73.14 41.2136 74.388L40.0046 76.26C38.7176 74.973 36.7026 73.491 34.2976 73.491C33.4656 73.491 32.9456 73.764 32.9456 74.245C32.9456 74.83 33.5566 74.973 34.2716 74.973C35.0386 74.973 35.2596 74.648 35.2596 73.803C35.2596 72.932 35.1036 70.254 35.1036 69.071C35.1036 68.265 35.0906 67.667 35.0776 67.108C35.0516 66.367 35.0126 65.821 34.9216 65.457H37.2876ZM36.1046 67.862C36.8066 67.862 39.1726 67.823 40.6546 67.667L40.7326 69.539C39.2246 69.669 36.8456 69.721 36.1176 69.721L36.1046 67.862ZM45.7378 66.588C45.6338 67.134 45.5558 67.979 45.5558 68.356C45.5558 69.214 45.5558 70.059 45.6338 70.93C45.7898 72.633 46.0498 73.829 46.8038 73.829C47.4018 73.829 47.8568 72.204 48.0518 71.32L49.6378 73.27C48.7278 75.571 47.8958 76.377 46.7648 76.377C45.2178 76.377 43.9438 75.064 43.5798 71.515C43.4498 70.28 43.4368 68.785 43.4368 67.966C43.4368 67.576 43.4108 67.017 43.3198 66.562L45.7378 66.588ZM52.0948 66.835C53.3688 68.33 54.3958 71.853 54.5128 73.725L52.4198 74.531C52.2378 72.568 51.6008 69.149 50.0798 67.485L52.0948 66.835Z" fill="#119EED"/>
<path d="M34.5551 50V37.025H31.0801V34.325C31.7634 34.3083 32.3801 34.25 32.9301 34.15C33.4801 34.0333 33.9717 33.8333 34.4051 33.55C34.8384 33.25 35.2134 32.8333 35.5301 32.3H38.1301V50H34.5551ZM47.7213 50.2C46.4213 50.2 45.3213 49.9667 44.4213 49.5C43.5213 49.0333 42.788 48.3917 42.2213 47.575C41.6546 46.7417 41.2463 45.7833 40.9963 44.7C40.7463 43.6 40.6213 42.4333 40.6213 41.2C40.6213 39.9333 40.7463 38.75 40.9963 37.65C41.263 36.55 41.6796 35.5833 42.2463 34.75C42.8296 33.9167 43.5713 33.2667 44.4713 32.8C45.388 32.3333 46.488 32.1 47.7713 32.1C49.1046 32.1 50.2213 32.3417 51.1213 32.825C52.038 33.3083 52.7713 33.9833 53.3213 34.85C53.888 35.7 54.288 36.6667 54.5213 37.75C54.7713 38.8333 54.8963 39.9667 54.8963 41.15C54.8963 42.3667 54.7713 43.5167 54.5213 44.6C54.2713 45.6833 53.8713 46.65 53.3213 47.5C52.7713 48.3333 52.038 48.9917 51.1213 49.475C50.2046 49.9583 49.0713 50.2 47.7213 50.2ZM47.7213 46.9C48.538 46.9 49.1796 46.7167 49.6463 46.35C50.1296 45.9667 50.488 45.475 50.7213 44.875C50.9713 44.275 51.1296 43.65 51.1963 43C51.2796 42.3333 51.3213 41.7167 51.3213 41.15C51.3213 40.6167 51.2796 40.025 51.1963 39.375C51.1296 38.7083 50.9796 38.0833 50.7463 37.5C50.513 36.9 50.163 36.4083 49.6963 36.025C49.2296 35.6417 48.5963 35.45 47.7963 35.45C46.9963 35.45 46.3546 35.6417 45.8713 36.025C45.388 36.3917 45.0213 36.875 44.7713 37.475C44.538 38.075 44.3796 38.7 44.2963 39.35C44.213 40 44.1713 40.6 44.1713 41.15C44.1713 41.7 44.2046 42.3083 44.2713 42.975C44.3546 43.6417 44.513 44.275 44.7463 44.875C44.9796 45.475 45.3296 45.9667 45.7963 46.35C46.2796 46.7167 46.9213 46.9 47.7213 46.9Z" fill="#119EED"/>
<path d="M57.008 50.2C56.6413 50.2 56.3497 50.0917 56.133 49.875C55.933 49.6417 55.833 49.3583 55.833 49.025C55.833 48.675 55.9413 48.3917 56.158 48.175C56.3747 47.9583 56.658 47.85 57.008 47.85C57.3413 47.85 57.6163 47.9583 57.833 48.175C58.0497 48.3917 58.158 48.675 58.158 49.025C58.158 49.3583 58.0497 49.6417 57.833 49.875C57.633 50.0917 57.358 50.2 57.008 50.2Z" fill="#119EED"/>
<path d="M64.4859 50.104C63.8099 50.104 63.2379 49.9827 62.7699 49.74C62.3019 49.4973 61.9206 49.1637 61.6259 48.739C61.3312 48.3057 61.1189 47.8073 60.9889 47.244C60.8589 46.672 60.7939 46.0653 60.7939 45.424C60.7939 44.7653 60.8589 44.15 60.9889 43.578C61.1276 43.006 61.3442 42.5033 61.6389 42.07C61.9422 41.6367 62.3279 41.2987 62.7959 41.056C63.2726 40.8133 63.8446 40.692 64.5119 40.692C65.2052 40.692 65.7859 40.8177 66.2539 41.069C66.7306 41.3203 67.1119 41.6713 67.3979 42.122C67.6926 42.564 67.9006 43.0667 68.0219 43.63C68.1519 44.1933 68.2169 44.7827 68.2169 45.398C68.2169 46.0307 68.1519 46.6287 68.0219 47.192C67.8919 47.7553 67.6839 48.258 67.3979 48.7C67.1119 49.1333 66.7306 49.4757 66.2539 49.727C65.7772 49.9783 65.1879 50.104 64.4859 50.104ZM64.4859 48.388C64.9106 48.388 65.2442 48.2927 65.4869 48.102C65.7382 47.9027 65.9246 47.647 66.0459 47.335C66.1759 47.023 66.2582 46.698 66.2929 46.36C66.3362 46.0133 66.3579 45.6927 66.3579 45.398C66.3579 45.1207 66.3362 44.813 66.2929 44.475C66.2582 44.1283 66.1802 43.8033 66.0589 43.5C65.9376 43.188 65.7556 42.9323 65.5129 42.733C65.2702 42.5337 64.9409 42.434 64.5249 42.434C64.1089 42.434 63.7752 42.5337 63.5239 42.733C63.2726 42.9237 63.0819 43.175 62.9519 43.487C62.8306 43.799 62.7482 44.124 62.7049 44.462C62.6616 44.8 62.6399 45.112 62.6399 45.398C62.6399 45.684 62.6572 46.0003 62.6919 46.347C62.7352 46.6937 62.8176 47.023 62.9389 47.335C63.0602 47.647 63.2422 47.9027 63.4849 48.102C63.7362 48.2927 64.0699 48.388 64.4859 48.388Z" fill="#119EED"/>
<path d="M71.0625 50L77.0425 40.796H78.9145L72.9605 50H71.0625ZM77.9395 50.091C77.4975 50.091 77.1075 50 76.7695 49.818C76.4401 49.6273 76.1801 49.363 75.9895 49.025C75.8075 48.687 75.7165 48.2883 75.7165 47.829C75.7165 47.3697 75.8118 46.971 76.0025 46.633C76.1931 46.295 76.4575 46.035 76.7955 45.853C77.1335 45.6623 77.5235 45.567 77.9655 45.567C78.3988 45.567 78.7801 45.658 79.1095 45.84C79.4388 46.022 79.6945 46.282 79.8765 46.62C80.0585 46.9493 80.1495 47.348 80.1495 47.816C80.1495 48.2753 80.0541 48.6783 79.8635 49.025C79.6815 49.363 79.4215 49.6273 79.0835 49.818C78.7541 50 78.3728 50.091 77.9395 50.091ZM77.9395 48.726C78.1301 48.726 78.2861 48.687 78.4075 48.609C78.5288 48.5223 78.6155 48.4097 78.6675 48.271C78.7281 48.1323 78.7585 47.9893 78.7585 47.842C78.7585 47.6947 78.7281 47.556 78.6675 47.426C78.6155 47.2873 78.5288 47.1747 78.4075 47.088C78.2861 47.0013 78.1301 46.958 77.9395 46.958C77.6361 46.958 77.4195 47.0533 77.2895 47.244C77.1595 47.426 77.0945 47.6297 77.0945 47.855C77.1031 48.0803 77.1725 48.284 77.3025 48.466C77.4325 48.6393 77.6448 48.726 77.9395 48.726ZM72.0765 45.216C71.6258 45.216 71.2358 45.125 70.9065 44.943C70.5771 44.7523 70.3171 44.488 70.1265 44.15C69.9445 43.812 69.8535 43.4177 69.8535 42.967C69.8535 42.499 69.9445 42.096 70.1265 41.758C70.3171 41.42 70.5815 41.16 70.9195 40.978C71.2575 40.7873 71.6475 40.692 72.0895 40.692C72.5315 40.692 72.9128 40.783 73.2335 40.965C73.5628 41.147 73.8185 41.407 74.0005 41.745C74.1825 42.0743 74.2735 42.473 74.2735 42.941C74.2735 43.4003 74.1825 43.8033 74.0005 44.15C73.8185 44.488 73.5585 44.7523 73.2205 44.943C72.8911 45.125 72.5098 45.216 72.0765 45.216ZM72.0765 43.838C72.2671 43.838 72.4231 43.799 72.5445 43.721C72.6658 43.6343 72.7525 43.526 72.8045 43.396C72.8565 43.2573 72.8825 43.11 72.8825 42.954C72.8825 42.8067 72.8521 42.668 72.7915 42.538C72.7395 42.3993 72.6528 42.2867 72.5315 42.2C72.4188 42.1133 72.2671 42.07 72.0765 42.07C71.7731 42.07 71.5521 42.1653 71.4135 42.356C71.2835 42.538 71.2228 42.746 71.2315 42.98C71.2315 43.2053 71.2965 43.4047 71.4265 43.578C71.5651 43.7513 71.7818 43.838 72.0765 43.838Z" fill="#119EED"/>
<g opacity="0.8">
<path d="M108 56H30V58H108V56Z" fill="#119EED"/>
<path d="M108 57L126 75" stroke="#119EED" stroke-width="2"/>
<path fill-rule="evenodd" clip-rule="evenodd" d="M107.586 58L108.293 58.7071L109.707 57.2929L108.414 56H107V58H107.586Z" fill="#119EED"/>
</g>
<path d="M156 230C205.706 230 246 191.049 246 143C246 94.9512 205.706 56 156 56C106.294 56 66 94.9512 66 143C66 191.049 106.294 230 156 230Z" fill="white"/>
<path fill-rule="evenodd" clip-rule="evenodd" d="M126.669 97.81C110.408 107.319 100 124.424 100 143C100 171.194 123.976 196 156 196C188.024 196 212 171.194 212 143C212 114.806 188.024 90.0001 156 90.0001H155.999V56.0001H156C205.706 56.0001 246 94.9513 246 143C246 191.049 205.706 230 156 230C106.294 230 66 191.049 66 143C66 111.978 82.7964 84.7486 108.078 69.3456L126.669 97.81Z" fill="#64C7FF"/>
<path fill-rule="evenodd" clip-rule="evenodd" d="M156.001 90V56C138.387 56.0002 121.955 60.8915 108.08 69.3454L126.671 97.8098C135.09 92.8868 145.077 90.0002 156.001 90Z" fill="#95D9FF"/>
<path d="M156 197.25C188.681 197.25 213.25 171.916 213.25 143C213.25 114.084 188.681 88.75 156 88.75C123.319 88.75 98.75 114.084 98.75 143C98.75 171.916 123.319 197.25 156 197.25ZM244.75 143C244.75 190.319 205.056 228.75 156 228.75C106.944 228.75 67.25 190.319 67.25 143C67.25 95.6812 106.944 57.25 156 57.25C205.056 57.25 244.75 95.6812 244.75 143Z" stroke="#119EED" stroke-width="2.5"/>
<path d="M127.576 122.85H129.875V125.434H127.576V122.85ZM123.32 124.674H134.15V126.593H123.32V124.674ZM122.731 129.006H134.625V130.944H122.731V129.006ZM125.049 126.65L127.006 126.27C127.348 127.144 127.652 128.265 127.709 128.987L125.638 129.443C125.619 128.721 125.372 127.543 125.049 126.65ZM130.407 126.289L132.611 126.517C132.231 127.6 131.851 128.645 131.509 129.386L129.59 129.12C129.894 128.322 130.236 127.125 130.407 126.289ZM122.883 132.293H134.587V134.212H122.883V132.293ZM126.816 130.469L129.096 130.906C128.07 133.167 126.74 135.846 125.733 137.632L123.776 137.005C124.726 135.314 125.999 132.578 126.816 130.469ZM125.125 137.024L126.455 135.523C129.096 136.302 132.592 137.765 134.397 139.019L132.934 140.71C131.281 139.475 127.823 137.898 125.125 137.024ZM130.407 133.699L132.592 133.927C131.604 138.411 129.077 139.969 123.13 140.748C122.959 140.121 122.617 139.342 122.294 138.905C127.5 138.487 129.609 137.233 130.407 133.699ZM116.67 132.578C118.266 132.255 120.641 131.666 122.902 131.096L123.168 133.11C121.097 133.718 118.893 134.326 117.145 134.801L116.67 132.578ZM117.05 126.479H122.921V128.569H117.05V126.479ZM119.292 122.888H121.477V138.145C121.477 139.266 121.287 139.874 120.66 140.235C120.033 140.615 119.121 140.691 117.829 140.691C117.753 140.083 117.468 139.095 117.183 138.468C117.924 138.506 118.703 138.506 118.95 138.506C119.197 138.506 119.292 138.411 119.292 138.145V122.888ZM143.498 126.441L145.93 126.916C144.486 128.968 142.548 130.678 139.622 132.027C139.318 131.495 138.615 130.697 138.121 130.336C140.8 129.31 142.548 127.866 143.498 126.441ZM144.03 127.714H149.711V129.424H142.472L144.03 127.714ZM149.027 127.714H149.464L149.844 127.619L151.383 128.531C148.875 132.73 143.498 135.01 138.026 136.074C137.817 135.485 137.342 134.554 136.943 134.06C142.035 133.281 147.127 131.229 149.027 128.037V127.714ZM143.118 129.006C145.322 131.476 149.749 132.996 154.879 133.49C154.366 134.022 153.739 135.048 153.416 135.694C148.191 134.972 143.859 133.11 141.142 129.88L143.118 129.006ZM140.553 134.763H151.478V140.672H149.141V136.625H142.776V140.71H140.553V134.763ZM141.674 138.259H150.281V140.121H141.674V138.259ZM144.695 122.888H147.051V125.586H144.695V122.888ZM137.741 124.427H154.119V128.626H151.782V126.479H139.964V128.626H137.741V124.427ZM165.861 127.106H174.924V129.291H165.861V127.106ZM157.444 125.795H166.488V127.904H157.444V125.795ZM170.63 122.869H172.891V137.879C172.891 139.171 172.644 139.817 171.922 140.216C171.2 140.615 170.079 140.691 168.483 140.691C168.407 140.026 168.084 138.943 167.761 138.24C168.825 138.297 169.851 138.297 170.193 138.297C170.516 138.278 170.63 138.183 170.63 137.86V122.869ZM165.652 131.685L167.495 130.792C168.388 132.046 169.3 133.699 169.604 134.839L167.628 135.846C167.343 134.725 166.526 132.977 165.652 131.685ZM157.805 130.583L159.401 129.291C161.681 131.704 164.379 134.972 165.481 137.233L163.657 138.791C162.65 136.511 160.047 133.091 157.805 130.583ZM160.769 122.888H162.954V127.087H160.769V122.888ZM162.84 128.284L165.044 128.607C164.075 134.117 162.118 138.126 158.451 140.577C158.166 140.121 157.368 139.19 156.912 138.791C160.351 136.777 162.08 133.148 162.84 128.284ZM184.842 130.906H187.084V137.537C187.084 138.24 187.198 138.316 187.73 138.316C187.977 138.316 188.965 138.316 189.269 138.316C189.839 138.316 189.934 137.86 190.01 135.257C190.485 135.637 191.435 136.017 192.024 136.169C191.815 139.437 191.264 140.368 189.478 140.368C189.079 140.368 187.749 140.368 187.369 140.368C185.336 140.368 184.842 139.665 184.842 137.537V130.906ZM182.125 132.369L184.177 132.825C183.987 135.01 183.626 137.518 182.771 139.057L180.738 138.164C181.536 136.701 181.954 134.497 182.125 132.369ZM184.975 128.797L186.495 127.296C188.015 128.018 190.086 129.177 191.131 130.07L189.478 131.761C188.547 130.887 186.533 129.595 184.975 128.797ZM190.77 132.654L192.803 131.856C193.943 133.832 195.064 136.378 195.368 138.126L193.126 139.038C192.879 137.328 191.872 134.687 190.77 132.654ZM185.621 122.869H187.996V126.327H185.621V122.869ZM179.883 125.092H194.893V127.258H179.883V125.092ZM178.8 125.092H181.08V129.899C181.08 132.977 180.795 137.689 179.066 140.672C178.648 140.292 177.641 139.627 177.09 139.399C178.686 136.663 178.8 132.654 178.8 129.899V125.092ZM156 146.165C156.893 146.165 157.615 146.887 157.615 147.78C157.615 148.673 156.893 149.395 156 149.395C155.107 149.395 154.385 148.673 154.385 147.78C154.385 146.887 155.107 146.165 156 146.165ZM145.19 158.03C144.924 158.334 144.696 158.6 144.544 158.828C143.062 161.279 140.25 164.699 137.305 166.865L135.405 165.117C137.913 163.369 140.041 160.785 141.029 159.037C139.357 159.037 132.441 159.037 130.997 159.037C130.218 159.037 129.192 159.132 128.793 159.189V156.51C129.306 156.605 130.332 156.7 130.997 156.7C132.194 156.7 139.49 156.7 141.523 156.7C142.264 156.7 142.891 156.624 143.309 156.491L145.19 158.03ZM135.177 167.15C134.056 166.029 132.118 164.3 130.997 163.502L132.992 161.868C134.018 162.647 135.918 164.186 137.362 165.573C138.616 166.789 140.117 168.366 141.029 169.468L138.787 171.254C138.008 170.19 136.412 168.404 135.177 167.15ZM155.016 157.194C155.016 156.567 154.94 155.579 154.769 154.971H157.771C157.676 155.579 157.619 156.624 157.619 157.213C157.619 158.277 157.619 159.702 157.619 160.975C157.619 165.098 156.555 168.48 152.204 171.083L149.829 169.335C153.838 167.492 155.016 164.509 155.016 160.975C155.016 159.702 155.016 158.258 155.016 157.194ZM147.948 159.151C148.537 159.227 149.316 159.284 150.076 159.284C151.159 159.284 160.735 159.284 161.894 159.284C162.768 159.284 163.585 159.227 163.984 159.17V161.773C163.585 161.735 162.635 161.697 161.875 161.697C160.735 161.697 151.159 161.697 150.133 161.697C149.316 161.697 148.556 161.735 147.948 161.792V159.151ZM166.996 161.203C167.699 161.26 169.067 161.336 170.055 161.336C172.297 161.336 178.567 161.336 180.258 161.336C181.151 161.336 181.987 161.241 182.5 161.203V164.205C182.044 164.186 181.075 164.091 180.277 164.091C178.548 164.091 172.297 164.091 170.055 164.091C168.991 164.091 167.718 164.148 166.996 164.205V161.203Z" fill="#4A3E42"/>
<path d="M185.291 257.359H199.574V259.751H185.291V257.359ZM184.578 261.453H200.241V263.868H184.578V261.453ZM189.431 271.297H195.296V273.298H189.431V271.297ZM188.235 255.473H190.811V263.5H188.235V255.473ZM193.893 255.473H196.561V263.5H193.893V255.473ZM188.649 268.583H190.282V274.655H188.649V268.583ZM194.468 268.583H196.055V274.08H194.468V268.583ZM197.113 265.248H199.689V274.448C199.689 275.621 199.482 276.265 198.7 276.656C197.918 277.001 196.791 277.024 195.25 277.024C195.158 276.357 194.882 275.391 194.583 274.724C195.48 274.77 196.446 274.77 196.745 274.77C197.021 274.77 197.113 274.678 197.113 274.402V265.248ZM185.245 265.248H198.079V267.64H187.683V277.047H185.245V265.248ZM179.679 257.658L181.312 255.68C182.669 256.278 184.417 257.313 185.291 258.118L183.566 260.303C182.784 259.475 181.059 258.325 179.679 257.658ZM178.575 264.006L180.047 261.913C181.427 262.373 183.29 263.224 184.233 263.96L182.669 266.283C181.818 265.547 180.001 264.581 178.575 264.006ZM179.15 275.161C180.208 273.39 181.703 270.492 182.876 267.778L185.038 269.434C184.026 271.895 182.807 274.563 181.634 276.817L179.15 275.161ZM191.018 263.132H193.64V267.065H193.341V272.677H191.317V267.065H191.018V263.132ZM212.96 267.686H222.091V270.262H212.96V267.686ZM208.222 268.997C209.901 273.39 213.696 274.218 218.135 274.218C219.147 274.241 222.551 274.218 223.839 274.172C223.448 274.816 223.034 276.081 222.896 276.863H217.974C212.362 276.863 208.268 275.621 205.968 269.848L208.222 268.997ZM211.718 264.19H214.57V275.529L211.718 274.632V264.19ZM207.808 259.084V262.235H218.434V259.084H207.808ZM205.071 256.462H221.355V264.857H205.071V256.462ZM206.06 266.237L208.958 266.582C208.314 270.4 207.026 274.701 204.197 277.001C203.737 276.449 202.817 275.552 202.242 275.138C204.703 273.16 205.738 269.411 206.06 266.237Z" fill="#4A3E42"/>
<path d="M229.54 270.15L229.115 260.15L229.04 257.15H231.94L231.865 260.15L231.465 270.15H229.54ZM230.49 276.35C229.415 276.35 228.565 275.5 228.565 274.325C228.565 273.125 229.415 272.3 230.49 272.3C231.59 272.3 232.415 273.125 232.415 274.325C232.415 275.5 231.59 276.35 230.49 276.35Z" fill="#4A3E42"/>
<path d="M161 266H77V280H161V266Z" fill="#FFED9A"/>
<path d="M168.81 264.27C168.72 264.66 168.63 265.14 168.555 265.515C168.405 266.19 168.225 267.12 168.06 267.885C167.565 270 166.365 274.275 164.79 276.81L162.825 276.03C164.61 273.63 165.735 269.67 166.155 267.78C166.44 266.43 166.605 265.155 166.59 264.03L168.81 264.27ZM173.985 265.77C174.9 267.075 176.16 269.865 176.625 271.29L174.72 272.175C174.33 270.51 173.265 267.87 172.185 266.535L173.985 265.77ZM162.735 267.345C163.275 267.375 163.785 267.36 164.34 267.345C165.54 267.315 168.39 266.985 169.5 266.985C171.09 266.985 172.215 267.69 172.215 269.865C172.215 271.635 171.99 274.065 171.36 275.355C170.865 276.405 170.025 276.735 168.9 276.735C168.315 276.735 167.61 276.645 167.1 276.525L166.77 274.545C167.355 274.71 168.21 274.86 168.6 274.86C169.11 274.86 169.5 274.71 169.725 274.215C170.145 273.375 170.34 271.545 170.34 270.075C170.34 268.875 169.83 268.695 168.885 268.695C168 268.695 165.405 269.025 164.58 269.13C164.145 269.19 163.365 269.295 162.915 269.37L162.735 267.345ZM173.715 263.7C174.09 264.24 174.615 265.2 174.9 265.755L173.7 266.265C173.385 265.65 172.92 264.765 172.515 264.18L173.715 263.7ZM175.485 263.01C175.875 263.58 176.43 264.54 176.7 265.065L175.5 265.575C175.2 264.945 174.705 264.075 174.3 263.505L175.485 263.01Z" fill="#4A3E42"/>
<path d="M146.745 276.5L155.485 263.048H158.221L149.519 276.5H146.745ZM156.796 276.633C156.15 276.633 155.58 276.5 155.086 276.234C154.605 275.955 154.225 275.569 153.946 275.075C153.68 274.581 153.547 273.998 153.547 273.327C153.547 272.656 153.687 272.073 153.965 271.579C154.244 271.085 154.63 270.705 155.124 270.439C155.618 270.16 156.188 270.021 156.834 270.021C157.468 270.021 158.025 270.154 158.506 270.42C158.988 270.686 159.361 271.066 159.627 271.56C159.893 272.041 160.026 272.624 160.026 273.308C160.026 273.979 159.887 274.568 159.608 275.075C159.342 275.569 158.962 275.955 158.468 276.234C157.987 276.5 157.43 276.633 156.796 276.633ZM156.796 274.638C157.075 274.638 157.303 274.581 157.48 274.467C157.658 274.34 157.784 274.176 157.86 273.973C157.949 273.77 157.993 273.561 157.993 273.346C157.993 273.131 157.949 272.928 157.86 272.738C157.784 272.535 157.658 272.371 157.48 272.244C157.303 272.117 157.075 272.054 156.796 272.054C156.353 272.054 156.036 272.193 155.846 272.472C155.656 272.738 155.561 273.036 155.561 273.365C155.574 273.694 155.675 273.992 155.865 274.258C156.055 274.511 156.366 274.638 156.796 274.638ZM148.227 269.508C147.569 269.508 146.999 269.375 146.517 269.109C146.036 268.83 145.656 268.444 145.377 267.95C145.111 267.456 144.978 266.88 144.978 266.221C144.978 265.537 145.111 264.948 145.377 264.454C145.656 263.96 146.042 263.58 146.536 263.314C147.03 263.035 147.6 262.896 148.246 262.896C148.892 262.896 149.45 263.029 149.918 263.295C150.4 263.561 150.773 263.941 151.039 264.435C151.305 264.916 151.438 265.499 151.438 266.183C151.438 266.854 151.305 267.443 151.039 267.95C150.773 268.444 150.393 268.83 149.899 269.109C149.418 269.375 148.861 269.508 148.227 269.508ZM148.227 267.494C148.506 267.494 148.734 267.437 148.911 267.323C149.089 267.196 149.215 267.038 149.291 266.848C149.367 266.645 149.405 266.43 149.405 266.202C149.405 265.987 149.361 265.784 149.272 265.594C149.196 265.391 149.07 265.227 148.892 265.1C148.728 264.973 148.506 264.91 148.227 264.91C147.784 264.91 147.461 265.049 147.258 265.328C147.068 265.594 146.98 265.898 146.992 266.24C146.992 266.569 147.087 266.861 147.277 267.114C147.48 267.367 147.797 267.494 148.227 267.494Z" fill="#119EED"/>
<path d="M84.0815 277V256.24H78.5215V251.92C79.6148 251.893 80.6015 251.8 81.4815 251.64C82.3615 251.453 83.1481 251.133 83.8415 250.68C84.5348 250.2 85.1348 249.533 85.6415 248.68H89.8015V277H84.0815ZM105.548 277.32C103.468 277.32 101.708 276.947 100.268 276.2C98.8274 275.453 97.6541 274.427 96.7474 273.12C95.8407 271.787 95.1874 270.253 94.7874 268.52C94.3874 266.76 94.1874 264.893 94.1874 262.92C94.1874 260.893 94.3874 259 94.7874 257.24C95.2141 255.48 95.8807 253.933 96.7874 252.6C97.7207 251.267 98.9074 250.227 100.348 249.48C101.814 248.733 103.574 248.36 105.628 248.36C107.761 248.36 109.548 248.747 110.988 249.52C112.454 250.293 113.628 251.373 114.508 252.76C115.414 254.12 116.054 255.667 116.428 257.4C116.828 259.133 117.028 260.947 117.028 262.84C117.028 264.787 116.828 266.627 116.428 268.36C116.028 270.093 115.388 271.64 114.508 273C113.628 274.333 112.454 275.387 110.988 276.16C109.521 276.933 107.708 277.32 105.548 277.32ZM105.548 272.04C106.854 272.04 107.881 271.747 108.628 271.16C109.401 270.547 109.974 269.76 110.348 268.8C110.748 267.84 111.001 266.84 111.108 265.8C111.241 264.733 111.308 263.747 111.308 262.84C111.308 261.987 111.241 261.04 111.108 260C111.001 258.933 110.761 257.933 110.388 257C110.014 256.04 109.454 255.253 108.708 254.64C107.961 254.027 106.948 253.72 105.668 253.72C104.388 253.72 103.361 254.027 102.588 254.64C101.814 255.227 101.228 256 100.828 256.96C100.454 257.92 100.201 258.92 100.068 259.96C99.9341 261 99.8674 261.96 99.8674 262.84C99.8674 263.72 99.9207 264.693 100.028 265.76C100.161 266.827 100.414 267.84 100.788 268.8C101.161 269.76 101.721 270.547 102.468 271.16C103.241 271.747 104.268 272.04 105.548 272.04ZM130.754 277.32C128.674 277.32 126.914 276.947 125.474 276.2C124.034 275.453 122.86 274.427 121.954 273.12C121.047 271.787 120.394 270.253 119.994 268.52C119.594 266.76 119.394 264.893 119.394 262.92C119.394 260.893 119.594 259 119.994 257.24C120.42 255.48 121.087 253.933 121.994 252.6C122.927 251.267 124.114 250.227 125.554 249.48C127.02 248.733 128.78 248.36 130.834 248.36C132.967 248.36 134.754 248.747 136.194 249.52C137.66 250.293 138.834 251.373 139.714 252.76C140.62 254.12 141.26 255.667 141.634 257.4C142.034 259.133 142.234 260.947 142.234 262.84C142.234 264.787 142.034 266.627 141.634 268.36C141.234 270.093 140.594 271.64 139.714 273C138.834 274.333 137.66 275.387 136.194 276.16C134.727 276.933 132.914 277.32 130.754 277.32ZM130.754 272.04C132.06 272.04 133.087 271.747 133.834 271.16C134.607 270.547 135.18 269.76 135.554 268.8C135.954 267.84 136.207 266.84 136.314 265.8C136.447 264.733 136.514 263.747 136.514 262.84C136.514 261.987 136.447 261.04 136.314 260C136.207 258.933 135.967 257.933 135.594 257C135.22 256.04 134.66 255.253 133.914 254.64C133.167 254.027 132.154 253.72 130.874 253.72C129.594 253.72 128.567 254.027 127.794 254.64C127.02 255.227 126.434 256 126.034 256.96C125.66 257.92 125.407 258.92 125.274 259.96C125.14 261 125.074 261.96 125.074 262.84C125.074 263.72 125.127 264.693 125.234 265.76C125.367 266.827 125.62 267.84 125.994 268.8C126.367 269.76 126.927 270.547 127.674 271.16C128.447 271.747 129.474 272.04 130.754 272.04Z" fill="#119EED"/>
</g>
<defs>
<clipPath id="clip0_2355_22670">
<rect width="312" height="302" fill="white"/>
</clipPath>
</defs>
</svg>
