<svg width="40" height="30" viewBox="0 0 40 30" fill="none" xmlns="http://www.w3.org/2000/svg">
<path d="M7.7628 13.2021C8.62534 12.9875 9.41599 12.8801 10.1348 12.8801C12.6864 12.8801 14.8068 13.8283 16.496 15.7245C17.9695 17.3345 18.7062 19.2487 18.7062 21.4669C18.7062 23.9714 17.7718 26.0644 15.903 27.746C14.2498 29.2487 12.2731 30 9.97305 30C7.16981 30 4.83378 28.9445 2.96496 26.8336C0.98832 24.6154 0 21.7889 0 18.3542C0 14.347 1.27583 10.5188 3.82749 6.86941C6.05571 3.72093 8.39173 1.59213 10.8356 0.483005C11.5184 0.161002 12.1294 0 12.6685 0C13.531 0 14.2677 0.339893 14.8787 1.01968C15.3819 1.55635 15.6334 2.20036 15.6334 2.9517C15.6334 3.45259 15.5436 3.82826 15.3639 4.07871C15.0764 4.50805 14.5373 4.99106 13.7466 5.52773C11.8059 6.8873 10.2965 8.42576 9.21833 10.1431C8.96676 10.5367 8.48158 11.5564 7.7628 13.2021ZM29.0566 13.2021C29.9191 12.9875 30.6918 12.8801 31.3747 12.8801C33.9623 12.8801 36.1006 13.8283 37.7898 15.7245C39.2633 17.3345 40 19.2308 40 21.4132C40 23.9535 39.0656 26.0644 37.1968 27.746C35.5436 29.2487 33.5669 30 31.2668 30C28.4636 30 26.1276 28.9445 24.2588 26.8336C22.2821 24.6154 21.2938 21.7889 21.2938 18.3542C21.2938 14.347 22.5696 10.5188 25.1213 6.86941C27.3495 3.72093 29.6855 1.59213 32.1294 0.483005C32.8122 0.161002 33.4232 0 33.9623 0C34.8248 0 35.5615 0.322004 36.1725 0.966011C36.6757 1.53846 36.9272 2.20036 36.9272 2.9517C36.9272 3.81038 36.2983 4.66905 35.0404 5.52773C33.0997 6.8873 31.5723 8.42576 30.4582 10.1431C30.2066 10.5367 29.7394 11.5564 29.0566 13.2021Z" fill="#F2D5E1"/>
</svg>
