<svg width="312" height="302" viewBox="0 0 312 302" fill="none" xmlns="http://www.w3.org/2000/svg">
<rect opacity="0.7" width="312" height="302" rx="8" fill="white"/>
<path d="M230.03 220.74H238.04V221.52H230.03V220.74ZM229.48 223.34H238.53V224.12H229.48V223.34ZM232.54 221.07H233.42V223.77H232.54V221.07ZM234.46 221.07H235.36V223.77H234.46V221.07ZM230.5 221.86L231.27 221.57C231.62 222.03 231.94 222.66 232.06 223.1L231.24 223.42C231.13 222.99 230.83 222.34 230.5 221.86ZM231.24 219.85L232.07 219.54C232.38 219.85 232.67 220.29 232.8 220.61L231.93 220.98C231.82 220.66 231.52 220.18 231.24 219.85ZM236.66 221.53L237.52 221.8C237.22 222.36 236.86 222.96 236.57 223.35L235.83 223.11C236.11 222.68 236.47 222.01 236.66 221.53ZM235.78 219.54L236.72 219.82C236.45 220.23 236.16 220.62 235.93 220.88L235.08 220.61C235.32 220.32 235.62 219.86 235.78 219.54ZM230.93 224.66H237.11V228.8H236.1V225.39H231.89V228.84H230.93V224.66ZM231.47 226.21H236.54V226.93H231.47V226.21ZM231.48 227.77H236.55V228.51H231.48V227.77ZM241.65 223.49V227.09H240.75V224.37H239.37V223.49H241.65ZM241.65 226.71C242.1 227.43 242.89 227.74 244 227.78C245.14 227.83 247.48 227.8 248.76 227.71C248.65 227.93 248.51 228.36 248.46 228.64C247.29 228.69 245.16 228.71 243.99 228.66C242.73 228.61 241.87 228.29 241.26 227.5C240.77 227.92 240.26 228.33 239.69 228.76L239.24 227.82C239.73 227.53 240.32 227.12 240.83 226.71H241.65ZM239.53 220.38L240.18 219.78C240.82 220.22 241.58 220.88 241.92 221.37L241.21 222.04C240.89 221.55 240.15 220.85 239.53 220.38ZM243.55 221.36L244.15 220.84C245.07 221.16 246.33 221.7 247 222.1L246.36 222.68C245.74 222.29 244.5 221.72 243.55 221.36ZM242.62 222.07H247.75V222.78H243.51V227.25H242.62V222.07ZM247.31 222.07H248.21V226.38C248.21 226.8 248.13 227.01 247.84 227.14C247.56 227.28 247.13 227.28 246.49 227.28C246.45 227.05 246.34 226.73 246.24 226.52C246.64 226.54 247.03 226.53 247.15 226.53C247.27 226.53 247.31 226.49 247.31 226.37V222.07ZM242.66 219.94H247.55V220.68H242.66V219.94ZM243.11 223.51H247.64V224.19H243.11V223.51ZM243.11 224.95H247.64V225.66H243.11V224.95ZM244.96 222.39H245.81V227.21H244.96V222.39ZM247.22 219.94H247.44L247.63 219.89L248.2 220.35C247.51 220.99 246.51 221.65 245.59 222.06C245.48 221.9 245.25 221.65 245.11 221.52C245.9 221.18 246.8 220.58 247.22 220.11V219.94Z" fill="#4A3E42"/>
<path d="M273.895 228.104C273.236 228.104 272.677 227.987 272.218 227.753C271.759 227.51 271.386 227.177 271.1 226.752C270.814 226.319 270.602 225.82 270.463 225.257C270.333 224.685 270.268 224.07 270.268 223.411C270.268 222.752 270.333 222.141 270.463 221.578C270.593 221.006 270.801 220.508 271.087 220.083C271.382 219.65 271.759 219.312 272.218 219.069C272.686 218.826 273.245 218.705 273.895 218.705C274.588 218.705 275.165 218.835 275.624 219.095C276.092 219.355 276.465 219.71 276.742 220.161C277.028 220.603 277.227 221.106 277.34 221.669C277.461 222.232 277.522 222.813 277.522 223.411C277.522 224.009 277.461 224.59 277.34 225.153C277.219 225.716 277.019 226.219 276.742 226.661C276.465 227.103 276.092 227.454 275.624 227.714C275.156 227.974 274.58 228.104 273.895 228.104ZM273.895 226.843C274.372 226.843 274.757 226.739 275.052 226.531C275.347 226.314 275.572 226.033 275.728 225.686C275.884 225.339 275.988 224.967 276.04 224.568C276.101 224.169 276.131 223.784 276.131 223.411C276.131 223.047 276.101 222.666 276.04 222.267C275.988 221.86 275.884 221.483 275.728 221.136C275.572 220.789 275.347 220.508 275.052 220.291C274.766 220.074 274.385 219.966 273.908 219.966C273.423 219.966 273.028 220.074 272.725 220.291C272.43 220.508 272.205 220.789 272.049 221.136C271.893 221.483 271.789 221.855 271.737 222.254C271.685 222.653 271.659 223.038 271.659 223.411C271.659 223.784 271.685 224.169 271.737 224.568C271.789 224.967 271.889 225.339 272.036 225.686C272.192 226.033 272.417 226.314 272.712 226.531C273.015 226.739 273.41 226.843 273.895 226.843ZM279.712 228.13C279.452 228.13 279.235 228.048 279.062 227.883C278.897 227.718 278.815 227.502 278.815 227.233C278.815 226.964 278.902 226.748 279.075 226.583C279.248 226.41 279.461 226.323 279.712 226.323C279.963 226.323 280.171 226.41 280.336 226.583C280.509 226.748 280.596 226.964 280.596 227.233C280.596 227.502 280.509 227.718 280.336 227.883C280.171 228.048 279.963 228.13 279.712 228.13ZM282.568 228L286.221 220.07H281.515V218.809H287.755V219.888L284.089 228H282.568Z" fill="#4A3E42"/>
<path d="M288.973 228L292.081 223.051H292.823L289.729 228H288.973ZM292.368 228.042C292.139 228.042 291.943 227.993 291.78 227.895C291.621 227.797 291.498 227.664 291.409 227.496C291.325 227.323 291.283 227.127 291.283 226.908C291.283 226.679 291.325 226.481 291.409 226.313C291.498 226.145 291.624 226.014 291.787 225.921C291.95 225.823 292.144 225.774 292.368 225.774C292.592 225.774 292.783 225.821 292.942 225.914C293.101 226.007 293.222 226.14 293.306 226.313C293.39 226.481 293.432 226.677 293.432 226.901C293.432 227.12 293.388 227.316 293.299 227.489C293.215 227.662 293.094 227.797 292.935 227.895C292.776 227.993 292.587 228.042 292.368 228.042ZM292.361 227.468C292.478 227.468 292.571 227.442 292.641 227.391C292.711 227.34 292.76 227.27 292.788 227.181C292.821 227.092 292.837 227.001 292.837 226.908C292.837 226.815 292.821 226.726 292.788 226.642C292.76 226.553 292.711 226.483 292.641 226.432C292.571 226.381 292.478 226.355 292.361 226.355C292.184 226.355 292.058 226.413 291.983 226.53C291.908 226.642 291.871 226.768 291.871 226.908C291.871 227.057 291.908 227.188 291.983 227.3C292.062 227.412 292.188 227.468 292.361 227.468ZM289.463 225.263C289.234 225.263 289.038 225.214 288.875 225.116C288.716 225.018 288.595 224.885 288.511 224.717C288.427 224.544 288.385 224.348 288.385 224.129C288.385 223.9 288.427 223.702 288.511 223.534C288.595 223.366 288.719 223.235 288.882 223.142C289.045 223.044 289.241 222.995 289.47 222.995C289.694 222.995 289.885 223.042 290.044 223.135C290.203 223.228 290.324 223.361 290.408 223.534C290.492 223.702 290.534 223.898 290.534 224.122C290.534 224.341 290.492 224.537 290.408 224.71C290.324 224.883 290.2 225.018 290.037 225.116C289.878 225.214 289.687 225.263 289.463 225.263ZM289.463 224.689C289.58 224.689 289.671 224.663 289.736 224.612C289.806 224.556 289.857 224.486 289.89 224.402C289.923 224.313 289.939 224.222 289.939 224.129C289.939 224.031 289.923 223.94 289.89 223.856C289.857 223.772 289.806 223.704 289.736 223.653C289.671 223.597 289.58 223.569 289.463 223.569C289.286 223.569 289.157 223.627 289.078 223.744C289.003 223.856 288.966 223.984 288.966 224.129C288.966 224.278 289.003 224.409 289.078 224.521C289.157 224.633 289.286 224.689 289.463 224.689Z" fill="#4A3E42"/>
<path d="M253 224L265 224" stroke="#4A3E42" stroke-dasharray="1 3"/>
<path d="M240.652 69.252H252.3V71.215H240.652V69.252ZM247.516 70.045C248.257 72.931 249.843 75.31 252.625 76.389C252.157 76.805 251.52 77.637 251.221 78.183C248.14 76.766 246.606 74.101 245.605 70.487L247.516 70.045ZM245.358 65.885H247.438C247.373 70.162 247.347 75.44 241.822 78.183C241.523 77.663 240.951 76.987 240.392 76.571C245.605 74.205 245.306 69.629 245.358 65.885ZM254.185 66.912H265.833V68.641H254.185V66.912ZM259.008 65.885H260.958V67.64H259.008V65.885ZM260.737 67.614H262.57V70.695C262.57 71.462 262.466 71.904 261.946 72.164C261.452 72.424 260.854 72.437 260.113 72.437C260.048 71.943 259.814 71.254 259.593 70.786C259.944 70.799 260.412 70.799 260.555 70.799C260.698 70.799 260.737 70.773 260.737 70.643V67.614ZM258.15 67.367H259.905V68.563C259.905 69.954 259.671 71.735 257.825 72.918C257.539 72.528 256.876 71.917 256.447 71.631C257.955 70.734 258.15 69.499 258.15 68.511V67.367ZM262.765 69.733L264.221 68.901C264.91 69.616 265.768 70.604 266.158 71.306L264.585 72.242C264.26 71.553 263.441 70.5 262.765 69.733ZM255.68 68.94L257.435 69.408C256.902 70.461 256.083 71.527 255.199 72.164C254.861 71.826 254.263 71.332 253.899 71.085C254.679 70.578 255.368 69.694 255.68 68.94ZM258.189 73.685C259.502 75.544 262.232 76.298 266.288 76.428C265.898 76.87 265.417 77.689 265.183 78.209C260.867 77.91 258.267 76.831 256.499 74.205L258.189 73.685ZM258.267 71.865L260.23 72.242C259.125 73.854 257.656 75.037 255.316 75.947C255.082 75.505 254.536 74.829 254.146 74.543C256.278 73.893 257.578 72.931 258.267 71.865ZM258.449 72.801H262.908V74.27H257.136L258.449 72.801ZM262.388 72.801H262.778L263.09 72.736L264.325 73.542C262.622 76.623 258.865 77.832 254.601 78.261C254.458 77.793 254.042 76.961 253.717 76.558C257.825 76.324 261.205 75.414 262.388 73.087V72.801ZM274.291 66.457C274.226 66.886 274.187 67.536 274.161 68.108C274.135 68.745 274.161 69.408 274.161 70.071C274.161 71.514 274.421 74.426 274.421 75.492C274.421 76.701 273.862 77.897 271.431 77.897C269.533 77.897 267.895 77.26 267.895 75.349C267.895 73.88 269.143 72.749 271.6 72.749C274.408 72.749 276.904 74.14 278.217 75.388L277.008 77.26C275.721 75.973 273.706 74.491 271.301 74.491C270.469 74.491 269.949 74.764 269.949 75.245C269.949 75.83 270.56 75.973 271.275 75.973C272.042 75.973 272.263 75.648 272.263 74.803C272.263 73.932 272.107 71.254 272.107 70.071C272.107 69.265 272.094 68.667 272.081 68.108C272.055 67.367 272.016 66.821 271.925 66.457H274.291ZM273.108 68.862C273.81 68.862 276.176 68.823 277.658 68.667L277.736 70.539C276.228 70.669 273.849 70.721 273.121 70.721L273.108 68.862ZM282.742 67.588C282.638 68.134 282.56 68.979 282.56 69.356C282.56 70.214 282.56 71.059 282.638 71.93C282.794 73.633 283.054 74.829 283.808 74.829C284.406 74.829 284.861 73.204 285.056 72.32L286.642 74.27C285.732 76.571 284.9 77.377 283.769 77.377C282.222 77.377 280.948 76.064 280.584 72.515C280.454 71.28 280.441 69.785 280.441 68.966C280.441 68.576 280.415 68.017 280.324 67.562L282.742 67.588ZM289.099 67.835C290.373 69.33 291.4 72.853 291.517 74.725L289.424 75.531C289.242 73.568 288.605 70.149 287.084 68.485L289.099 67.835Z" fill="#119EED"/>
<path d="M242.634 51.232C241.667 51.232 240.73 51.1257 239.821 50.913C238.912 50.681 238.081 50.3233 237.327 49.84C236.592 49.3373 236.003 48.68 235.558 47.868C235.133 47.056 234.92 46.0797 234.92 44.939C234.92 44.185 235.026 43.5083 235.239 42.909C235.471 42.2903 235.8 41.749 236.225 41.285C236.67 40.8017 237.201 40.415 237.82 40.125C237.298 39.7963 236.873 39.4097 236.544 38.965C236.215 38.501 235.974 37.9983 235.819 37.457C235.664 36.9157 235.587 36.3647 235.587 35.804C235.587 34.7793 235.79 33.919 236.196 33.223C236.602 32.5077 237.143 31.9373 237.82 31.512C238.497 31.0673 239.26 30.7483 240.111 30.555C240.962 30.3423 241.822 30.236 242.692 30.236C243.581 30.236 244.442 30.3423 245.273 30.555C246.104 30.7483 246.858 31.077 247.535 31.541C248.212 31.9857 248.753 32.5753 249.159 33.31C249.565 34.0253 249.768 34.8953 249.768 35.92C249.768 36.442 249.681 36.9737 249.507 37.515C249.352 38.037 249.101 38.5203 248.753 38.965C248.424 39.4097 247.999 39.7867 247.477 40.096C248.096 40.3667 248.627 40.734 249.072 41.198C249.517 41.662 249.855 42.213 250.087 42.851C250.319 43.489 250.435 44.2043 250.435 44.997C250.435 46.1377 250.213 47.1043 249.768 47.897C249.323 48.6897 248.724 49.3373 247.97 49.84C247.216 50.3233 246.375 50.681 245.447 50.913C244.538 51.1257 243.601 51.232 242.634 51.232ZM242.663 47.491C243.088 47.491 243.514 47.4427 243.939 47.346C244.364 47.2493 244.751 47.0947 245.099 46.882C245.447 46.65 245.718 46.3697 245.911 46.041C246.124 45.693 246.23 45.2677 246.23 44.765C246.23 44.1463 246.075 43.6437 245.766 43.257C245.457 42.851 245.031 42.5513 244.49 42.358C243.968 42.1453 243.359 42.039 242.663 42.039C241.986 42.039 241.368 42.1453 240.807 42.358C240.266 42.5513 239.84 42.851 239.531 43.257C239.222 43.6437 239.067 44.1463 239.067 44.765C239.067 45.2677 239.173 45.693 239.386 46.041C239.599 46.3697 239.869 46.65 240.198 46.882C240.546 47.0947 240.933 47.2493 241.358 47.346C241.783 47.4427 242.218 47.491 242.663 47.491ZM242.692 38.878C243.311 38.878 243.833 38.7813 244.258 38.588C244.703 38.3753 245.041 38.0853 245.273 37.718C245.524 37.3313 245.65 36.906 245.65 36.442C245.65 35.862 245.524 35.3883 245.273 35.021C245.022 34.6343 244.664 34.3443 244.2 34.151C243.755 33.9383 243.224 33.832 242.605 33.832C242.006 33.832 241.484 33.9383 241.039 34.151C240.614 34.3443 240.275 34.6247 240.024 34.992C239.792 35.3593 239.676 35.804 239.676 36.326C239.676 36.848 239.802 37.3023 240.053 37.689C240.304 38.0757 240.652 38.3753 241.097 38.588C241.561 38.7813 242.093 38.878 242.692 38.878ZM253.132 51L260.962 34.325H251.16V30.468H265.689V33.571L257.743 51H253.132Z" fill="#119EED"/>
<path d="M265.009 51.224C264.598 51.224 264.272 51.1027 264.029 50.86C263.805 50.5987 263.693 50.2813 263.693 49.908C263.693 49.516 263.814 49.1987 264.057 48.956C264.3 48.7133 264.617 48.592 265.009 48.592C265.382 48.592 265.69 48.7133 265.933 48.956C266.176 49.1987 266.297 49.516 266.297 49.908C266.297 50.2813 266.176 50.5987 265.933 50.86C265.709 51.1027 265.401 51.224 265.009 51.224Z" fill="#119EED"/>
<path d="M274.06 51V49.05H268.675V47.415L273.61 40.38H276.205V47.1H277.405V49.05H276.205V51H274.06ZM271.135 47.1H274.06V42.75L271.135 47.1Z" fill="#119EED"/>
<path d="M280.457 51L287.357 40.38H289.517L282.647 51H280.457ZM288.392 51.105C287.882 51.105 287.432 51 287.042 50.79C286.662 50.57 286.362 50.265 286.142 49.875C285.932 49.485 285.827 49.025 285.827 48.495C285.827 47.965 285.937 47.505 286.157 47.115C286.377 46.725 286.682 46.425 287.072 46.215C287.462 45.995 287.912 45.885 288.422 45.885C288.922 45.885 289.362 45.99 289.742 46.2C290.122 46.41 290.417 46.71 290.627 47.1C290.837 47.48 290.942 47.94 290.942 48.48C290.942 49.01 290.832 49.475 290.612 49.875C290.402 50.265 290.102 50.57 289.712 50.79C289.332 51 288.892 51.105 288.392 51.105ZM288.392 49.53C288.612 49.53 288.792 49.485 288.932 49.395C289.072 49.295 289.172 49.165 289.232 49.005C289.302 48.845 289.337 48.68 289.337 48.51C289.337 48.34 289.302 48.18 289.232 48.03C289.172 47.87 289.072 47.74 288.932 47.64C288.792 47.54 288.612 47.49 288.392 47.49C288.042 47.49 287.792 47.6 287.642 47.82C287.492 48.03 287.417 48.265 287.417 48.525C287.427 48.785 287.507 49.02 287.657 49.23C287.807 49.43 288.052 49.53 288.392 49.53ZM281.627 45.48C281.107 45.48 280.657 45.375 280.277 45.165C279.897 44.945 279.597 44.64 279.377 44.25C279.167 43.86 279.062 43.405 279.062 42.885C279.062 42.345 279.167 41.88 279.377 41.49C279.597 41.1 279.902 40.8 280.292 40.59C280.682 40.37 281.132 40.26 281.642 40.26C282.152 40.26 282.592 40.365 282.962 40.575C283.342 40.785 283.637 41.085 283.847 41.475C284.057 41.855 284.162 42.315 284.162 42.855C284.162 43.385 284.057 43.85 283.847 44.25C283.637 44.64 283.337 44.945 282.947 45.165C282.567 45.375 282.127 45.48 281.627 45.48ZM281.627 43.89C281.847 43.89 282.027 43.845 282.167 43.755C282.307 43.655 282.407 43.53 282.467 43.38C282.527 43.22 282.557 43.05 282.557 42.87C282.557 42.7 282.522 42.54 282.452 42.39C282.392 42.23 282.292 42.1 282.152 42C282.022 41.9 281.847 41.85 281.627 41.85C281.277 41.85 281.022 41.96 280.862 42.18C280.712 42.39 280.642 42.63 280.652 42.9C280.652 43.16 280.727 43.39 280.877 43.59C281.037 43.79 281.287 43.89 281.627 43.89Z" fill="#119EED"/>
<g opacity="0.8">
<rect width="66" height="2" transform="matrix(-1 0 0 1 292 57)" fill="#119EED"/>
<path d="M226 58L208 76" stroke="#119EED" stroke-width="2"/>
</g>
<path d="M27.2879 67.457C27.2229 67.886 27.1839 68.536 27.1579 69.108C27.1319 69.745 27.1579 70.408 27.1579 71.071C27.1579 72.514 27.4179 75.426 27.4179 76.492C27.4179 77.701 26.8589 78.897 24.4279 78.897C22.5299 78.897 20.8919 78.26 20.8919 76.349C20.8919 74.88 22.1399 73.749 24.5969 73.749C27.4049 73.749 29.9009 75.14 31.2139 76.388L30.0049 78.26C28.7179 76.973 26.7029 75.491 24.2979 75.491C23.4659 75.491 22.9459 75.764 22.9459 76.245C22.9459 76.83 23.5569 76.973 24.2719 76.973C25.0389 76.973 25.2599 76.648 25.2599 75.803C25.2599 74.932 25.1039 72.254 25.1039 71.071C25.1039 70.265 25.0909 69.667 25.0779 69.108C25.0519 68.367 25.0129 67.821 24.9219 67.457H27.2879ZM26.1049 69.862C26.8069 69.862 29.1729 69.823 30.6549 69.667L30.7329 71.539C29.2249 71.669 26.8459 71.721 26.1179 71.721L26.1049 69.862ZM35.7381 68.588C35.6341 69.134 35.5561 69.979 35.5561 70.356C35.5561 71.214 35.5561 72.059 35.6341 72.93C35.7901 74.633 36.0501 75.829 36.8041 75.829C37.4021 75.829 37.8571 74.204 38.0521 73.32L39.6381 75.27C38.7281 77.571 37.8961 78.377 36.7651 78.377C35.2181 78.377 33.9441 77.064 33.5801 73.515C33.4501 72.28 33.4371 70.785 33.4371 69.966C33.4371 69.576 33.4111 69.017 33.3201 68.562L35.7381 68.588ZM42.0951 68.835C43.3691 70.33 44.3961 73.853 44.5131 75.725L42.4201 76.531C42.2381 74.568 41.6011 71.149 40.0801 69.485L42.0951 68.835Z" fill="#119EED"/>
<path d="M24.3176 52V39.025H20.8426V36.325C21.5259 36.3083 22.1426 36.25 22.6926 36.15C23.2426 36.0333 23.7342 35.8333 24.1676 35.55C24.6009 35.25 24.9759 34.8333 25.2926 34.3H27.8926V52H24.3176ZM34.0588 52V39.025H30.5838V36.325C31.2671 36.3083 31.8838 36.25 32.4338 36.15C32.9838 36.0333 33.4755 35.8333 33.9088 35.55C34.3421 35.25 34.7171 34.8333 35.0338 34.3H37.6338V52H34.0588Z" fill="#119EED"/>
<path d="M42.0081 52.2C41.6414 52.2 41.3498 52.0917 41.1331 51.875C40.9331 51.6417 40.8331 51.3583 40.8331 51.025C40.8331 50.675 40.9414 50.3917 41.1581 50.175C41.3748 49.9583 41.6581 49.85 42.0081 49.85C42.3414 49.85 42.6164 49.9583 42.8331 50.175C43.0498 50.3917 43.1581 50.675 43.1581 51.025C43.1581 51.3583 43.0498 51.6417 42.8331 51.875C42.6331 52.0917 42.3581 52.2 42.0081 52.2Z" fill="#119EED"/>
<path d="M48.2589 52.104C47.7302 52.104 47.2406 52.0173 46.7899 51.844C46.3392 51.662 45.9579 51.3847 45.6459 51.012C45.3426 50.6393 45.1476 50.1713 45.0609 49.608H46.8809C46.9762 49.868 47.1626 50.0673 47.4399 50.206C47.7172 50.336 48.0119 50.401 48.3239 50.401C48.6792 50.401 48.9782 50.3317 49.2209 50.193C49.4722 50.0457 49.6716 49.855 49.8189 49.621C49.9662 49.3783 50.0746 49.114 50.1439 48.828C50.2132 48.5333 50.2522 48.2343 50.2609 47.931C50.2609 47.8963 50.2609 47.8617 50.2609 47.827C50.2609 47.7837 50.2609 47.7447 50.2609 47.71C50.0702 47.9873 49.8406 48.204 49.5719 48.36C49.3032 48.516 49.0259 48.6243 48.7399 48.685C48.4539 48.7457 48.1809 48.776 47.9209 48.776C47.3749 48.776 46.8809 48.6633 46.4389 48.438C45.9969 48.204 45.6459 47.8703 45.3859 47.437C45.1346 47.0037 45.0089 46.4793 45.0089 45.864C45.0089 45.1793 45.1649 44.603 45.4769 44.135C45.7889 43.6583 46.2006 43.2987 46.7119 43.056C47.2319 42.8133 47.7996 42.692 48.4149 42.692C49.0909 42.692 49.6586 42.8263 50.1179 43.095C50.5772 43.3637 50.9412 43.7277 51.2099 44.187C51.4786 44.6463 51.6692 45.1577 51.7819 45.721C51.9032 46.2843 51.9639 46.8607 51.9639 47.45C51.9639 48.0913 51.8946 48.6937 51.7559 49.257C51.6259 49.8117 51.4136 50.3057 51.1189 50.739C50.8329 51.1637 50.4516 51.4973 49.9749 51.74C49.5069 51.9827 48.9349 52.104 48.2589 52.104ZM48.3369 47.216C48.6749 47.216 48.9522 47.1467 49.1689 47.008C49.3942 46.8693 49.5632 46.696 49.6759 46.488C49.7972 46.2713 49.8579 46.046 49.8579 45.812C49.8579 45.5173 49.7886 45.266 49.6499 45.058C49.5199 44.8413 49.3422 44.6767 49.1169 44.564C48.9002 44.4427 48.6489 44.382 48.3629 44.382C48.0509 44.382 47.7822 44.447 47.5569 44.577C47.3316 44.707 47.1582 44.8803 47.0369 45.097C46.9156 45.3137 46.8549 45.5477 46.8549 45.799C46.8549 46.1977 46.9806 46.5357 47.2319 46.813C47.4919 47.0817 47.8602 47.216 48.3369 47.216Z" fill="#119EED"/>
<path d="M55.0627 52L61.0427 42.796H62.9147L56.9607 52H55.0627ZM61.9397 52.091C61.4977 52.091 61.1077 52 60.7697 51.818C60.4403 51.6273 60.1803 51.363 59.9897 51.025C59.8077 50.687 59.7167 50.2883 59.7167 49.829C59.7167 49.3697 59.812 48.971 60.0027 48.633C60.1933 48.295 60.4577 48.035 60.7957 47.853C61.1337 47.6623 61.5237 47.567 61.9657 47.567C62.399 47.567 62.7803 47.658 63.1097 47.84C63.439 48.022 63.6947 48.282 63.8767 48.62C64.0587 48.9493 64.1497 49.348 64.1497 49.816C64.1497 50.2753 64.0543 50.6783 63.8637 51.025C63.6817 51.363 63.4217 51.6273 63.0837 51.818C62.7543 52 62.373 52.091 61.9397 52.091ZM61.9397 50.726C62.1303 50.726 62.2863 50.687 62.4077 50.609C62.529 50.5223 62.6157 50.4097 62.6677 50.271C62.7283 50.1323 62.7587 49.9893 62.7587 49.842C62.7587 49.6947 62.7283 49.556 62.6677 49.426C62.6157 49.2873 62.529 49.1747 62.4077 49.088C62.2863 49.0013 62.1303 48.958 61.9397 48.958C61.6363 48.958 61.4197 49.0533 61.2897 49.244C61.1597 49.426 61.0947 49.6297 61.0947 49.855C61.1033 50.0803 61.1727 50.284 61.3027 50.466C61.4327 50.6393 61.645 50.726 61.9397 50.726ZM56.0767 47.216C55.626 47.216 55.236 47.125 54.9067 46.943C54.5773 46.7523 54.3173 46.488 54.1267 46.15C53.9447 45.812 53.8537 45.4177 53.8537 44.967C53.8537 44.499 53.9447 44.096 54.1267 43.758C54.3173 43.42 54.5817 43.16 54.9197 42.978C55.2577 42.7873 55.6477 42.692 56.0897 42.692C56.5317 42.692 56.913 42.783 57.2337 42.965C57.563 43.147 57.8187 43.407 58.0007 43.745C58.1827 44.0743 58.2737 44.473 58.2737 44.941C58.2737 45.4003 58.1827 45.8033 58.0007 46.15C57.8187 46.488 57.5587 46.7523 57.2207 46.943C56.8913 47.125 56.51 47.216 56.0767 47.216ZM56.0767 45.838C56.2673 45.838 56.4233 45.799 56.5447 45.721C56.666 45.6343 56.7527 45.526 56.8047 45.396C56.8567 45.2573 56.8827 45.11 56.8827 44.954C56.8827 44.8067 56.8523 44.668 56.7917 44.538C56.7397 44.3993 56.653 44.2867 56.5317 44.2C56.419 44.1133 56.2673 44.07 56.0767 44.07C55.7733 44.07 55.5523 44.1653 55.4137 44.356C55.2837 44.538 55.223 44.746 55.2317 44.98C55.2317 45.2053 55.2967 45.4047 55.4267 45.578C55.5653 45.7513 55.782 45.838 56.0767 45.838Z" fill="#119EED"/>
<g opacity="0.8">
<rect x="20" y="58" width="66" height="2" fill="#119EED"/>
<path d="M86 59L106.5 75" stroke="#119EED" stroke-width="2"/>
</g>
<ellipse cx="156" cy="143" rx="90" ry="87" fill="white"/>
<path fill-rule="evenodd" clip-rule="evenodd" d="M148.528 56.2954C126.839 58.0181 107.329 67.1748 92.7304 81.1242L117.114 104.863C126.039 96.6575 137.919 91.177 151.455 90.1682L148.528 56.2954Z" fill="#95D9FF"/>
<path fill-rule="evenodd" clip-rule="evenodd" d="M117.116 104.863C106.445 114.675 100 128.382 100 143C100 171.194 123.976 196 156 196C188.024 196 212 171.194 212 143C212 114.806 188.024 90 156 90C155.999 90 155.999 90 155.998 90V56C155.999 56 155.999 56 156 56C205.706 56 246 94.9512 246 143C246 191.049 205.706 230 156 230C106.294 230 66 191.049 66 143C66 118.793 76.2271 96.8956 92.7323 81.1243L117.116 104.863Z" fill="#64C7FF"/>
<mask id="path-23-inside-1_1132_21109" fill="white">
<path fill-rule="evenodd" clip-rule="evenodd" d="M148.534 56.2952C102.322 59.9647 66.002 97.3822 66.002 143C66.002 191.049 106.296 230 156.002 230C205.708 230 246.002 191.049 246.002 143C246.002 94.9515 205.708 56.0005 156.003 56V90C188.026 90.0005 212.002 114.806 212.002 143C212.002 171.194 188.026 196 156.002 196C123.978 196 100.002 171.194 100.002 143C100.002 116.155 121.738 92.3821 151.461 90.1681L148.534 56.2952Z"/>
</mask>
<path d="M148.534 56.2952L151.025 56.08L150.811 53.6066L148.336 53.8031L148.534 56.2952ZM156.003 56L156.003 53.5L153.503 53.5V56H156.003ZM156.003 90H153.503V92.5L156.003 92.5L156.003 90ZM151.461 90.1681L151.647 92.6612L154.17 92.4733L153.952 89.9528L151.461 90.1681ZM148.336 53.8031C100.906 57.5692 63.502 95.9976 63.502 143H68.502C68.502 98.7667 103.738 62.3601 148.732 58.7874L148.336 53.8031ZM63.502 143C63.502 192.509 104.996 232.5 156.002 232.5V227.5C107.596 227.5 68.502 189.589 68.502 143H63.502ZM156.002 232.5C207.008 232.5 248.502 192.509 248.502 143H243.502C243.502 189.589 204.407 227.5 156.002 227.5V232.5ZM248.502 143C248.502 93.4916 207.008 53.5005 156.003 53.5L156.003 58.5C204.408 58.5005 243.502 96.4114 243.502 143H248.502ZM153.503 56V90H158.503V56H153.503ZM214.502 143C214.502 113.361 189.341 87.5005 156.003 87.5L156.003 92.5C186.711 92.5004 209.502 116.252 209.502 143H214.502ZM156.002 198.5C189.341 198.5 214.502 172.639 214.502 143H209.502C209.502 169.749 186.71 193.5 156.002 193.5V198.5ZM97.502 143C97.502 172.639 122.663 198.5 156.002 198.5V193.5C125.294 193.5 102.502 169.749 102.502 143H97.502ZM151.276 87.675C120.314 89.9813 97.502 114.782 97.502 143H102.502C102.502 117.529 123.163 94.7829 151.647 92.6612L151.276 87.675ZM153.952 89.9528L151.025 56.08L146.043 56.5105L148.971 90.3834L153.952 89.9528Z" fill="#119EED" mask="url(#path-23-inside-1_1132_21109)"/>
<path d="M131.241 113.256C131.193 113.484 131.145 114 131.133 114.3C131.073 115.248 131.037 116.544 131.037 117.66C131.037 118.968 131.109 121.044 131.109 121.74C131.109 123.216 130.581 123.624 129.789 123.624C128.625 123.624 126.969 122.616 126.969 121.344C126.969 120.18 128.469 118.956 130.137 118.368C131.205 117.984 132.417 117.792 133.329 117.792C135.177 117.792 136.641 118.752 136.641 120.408C136.641 121.836 135.897 122.904 133.989 123.372C133.437 123.492 132.897 123.528 132.405 123.576L131.865 122.016C132.393 122.016 132.921 122.016 133.329 121.932C134.301 121.764 135.081 121.272 135.081 120.408C135.081 119.58 134.361 119.112 133.317 119.112C132.297 119.112 131.241 119.328 130.305 119.7C129.225 120.108 128.457 120.756 128.457 121.272C128.457 121.656 129.021 121.98 129.333 121.98C129.549 121.98 129.705 121.884 129.705 121.464C129.705 120.84 129.645 119.172 129.645 117.72C129.645 116.352 129.657 114.864 129.657 114.312C129.657 114.072 129.621 113.472 129.585 113.256H131.241ZM134.661 114.564C135.573 115.008 136.965 115.788 137.613 116.244L136.881 117.468C136.305 116.988 134.745 116.088 134.001 115.728L134.661 114.564ZM127.293 115.224C128.001 115.308 128.517 115.308 128.949 115.308C130.197 115.308 132.069 115.08 133.305 114.72L133.341 116.208C131.985 116.52 130.053 116.736 128.997 116.736C128.205 116.736 127.737 116.724 127.329 116.676L127.293 115.224ZM147.867 112.788L148.911 113.976C146.439 114.612 142.983 114.912 140.043 115.008C140.007 114.648 139.827 114.06 139.695 113.748C142.587 113.628 145.899 113.316 147.867 112.788ZM139.803 116.196H149.295V117.576H139.803V116.196ZM138.975 118.992H150.003V120.396H138.975V118.992ZM143.751 114.48H145.251V122.364C145.251 123.216 145.035 123.6 144.459 123.816C143.883 124.044 143.007 124.08 141.783 124.068C141.687 123.66 141.411 123.012 141.195 122.64C142.083 122.676 143.091 122.664 143.367 122.664C143.643 122.664 143.751 122.58 143.751 122.34V114.48ZM158.667 112.8H160.095V116.196H158.667V112.8ZM156.171 113.748H162.651V114.912H156.171V113.748ZM156.603 115.62H162.291V116.796H156.603V115.62ZM156.135 117.336H162.759V119.724H161.511V118.452H157.335V119.724H156.135V117.336ZM159.735 119.052H161.031V122.364C161.031 122.712 161.055 122.76 161.223 122.76C161.283 122.76 161.535 122.76 161.619 122.76C161.799 122.76 161.847 122.568 161.871 121.26C162.123 121.488 162.675 121.692 163.023 121.788C162.915 123.504 162.591 123.972 161.763 123.972C161.571 123.972 161.175 123.972 160.995 123.972C159.963 123.972 159.735 123.576 159.735 122.376V119.052ZM157.575 119.052H158.871V120.024C158.871 121.26 158.547 123 156.303 124.092C156.087 123.804 155.643 123.384 155.319 123.132C157.311 122.196 157.575 120.876 157.575 119.988V119.052ZM153.351 112.824L154.599 113.256C154.107 114.192 153.555 115.26 153.099 115.932L152.139 115.536C152.559 114.816 153.075 113.652 153.351 112.824ZM154.707 114.24L155.871 114.78C154.995 116.124 153.831 117.792 152.907 118.824L152.079 118.356C152.979 117.276 154.071 115.524 154.707 114.24ZM151.491 115.62L152.199 114.66C152.823 115.224 153.555 116.004 153.843 116.568L153.063 117.672C152.799 117.084 152.091 116.232 151.491 115.62ZM154.299 117.12L155.295 116.7C155.775 117.516 156.231 118.572 156.375 119.256L155.295 119.748C155.163 119.052 154.743 117.948 154.299 117.12ZM151.455 118.08C152.535 118.02 154.083 117.936 155.583 117.84L155.595 119.016C154.191 119.124 152.727 119.232 151.611 119.316L151.455 118.08ZM154.623 120.132L155.631 119.82C155.919 120.492 156.159 121.368 156.243 121.944L155.175 122.292C155.115 121.704 154.887 120.816 154.623 120.132ZM151.971 119.868L153.123 120.06C153.003 121.212 152.751 122.4 152.403 123.168C152.163 123.012 151.635 122.784 151.359 122.664C151.695 121.956 151.875 120.876 151.971 119.868ZM153.291 118.716H154.527V124.08H153.291V118.716ZM165.176 114.396C166.928 114.6 168.392 114.624 169.664 114.528C170.756 114.456 171.74 114.264 172.736 113.952L172.928 115.32C172.064 115.56 171.02 115.764 169.976 115.836C168.74 115.932 167.084 115.944 165.26 115.764L165.176 114.396ZM164.96 116.904C167.12 117.12 169.064 117.084 170.504 116.94C171.8 116.832 172.7 116.592 173.396 116.388L173.636 117.804C172.916 117.984 172.028 118.152 171.056 118.26C169.544 118.428 167.204 118.464 165.044 118.32L164.96 116.904ZM168.968 114.732C168.848 114.288 168.704 113.844 168.536 113.376L170.144 113.196C170.288 114.348 170.588 115.404 170.9 116.328C171.188 117.168 171.776 118.404 172.328 119.244C172.496 119.484 172.652 119.664 172.868 119.868L172.148 120.972C171.476 120.828 170.168 120.684 169.292 120.588L169.412 119.436C169.916 119.484 170.576 119.544 170.924 119.58C170.288 118.512 169.844 117.468 169.544 116.592C169.244 115.74 169.124 115.308 168.968 114.732ZM167.264 119.7C166.976 120.096 166.724 120.504 166.724 121.02C166.724 121.908 167.564 122.268 169.16 122.268C170.288 122.268 171.308 122.184 172.172 122.016L172.088 123.54C171.248 123.672 170.144 123.756 169.16 123.756C166.772 123.756 165.284 123.048 165.248 121.344C165.236 120.564 165.488 119.976 165.776 119.412L167.264 119.7ZM182.095 114.78C181.927 116.004 181.687 117.408 181.267 118.824C180.547 121.248 179.515 122.736 178.207 122.736C176.863 122.736 175.759 121.26 175.759 119.232C175.759 116.472 178.171 114.096 181.279 114.096C184.243 114.096 186.127 116.16 186.127 118.788C186.127 121.308 184.579 123.096 181.555 123.564L180.643 122.148C181.111 122.088 181.447 122.028 181.771 121.956C183.295 121.584 184.495 120.492 184.495 118.728C184.495 116.844 183.319 115.5 181.243 115.5C178.699 115.5 177.307 117.576 177.307 119.088C177.307 120.3 177.787 120.888 178.243 120.888C178.759 120.888 179.215 120.12 179.719 118.5C180.067 117.372 180.331 115.992 180.451 114.732L182.095 114.78ZM130.49 131.086H146.564V133.336H130.49V131.086ZM137.78 132.058H140.354V143.56C140.354 145.036 140.012 145.684 139.022 146.062C138.014 146.458 136.538 146.512 134.594 146.512C134.45 145.774 133.946 144.64 133.532 143.974C134.99 144.028 136.664 144.046 137.168 144.046C137.618 144.028 137.78 143.902 137.78 143.524V132.058ZM156.536 129.736H158.696V132.148H156.536V129.736ZM149.858 130.942H165.338V134.398H163.304V132.688H151.802V134.398H149.858V130.942ZM160.208 138.322V139.348H161.972V138.322H160.208ZM156.698 138.322V139.348H158.426V138.322H156.698ZM153.224 138.322V139.348H154.916V138.322H153.224ZM151.406 137.062H163.898V140.608H151.406V137.062ZM149.642 141.274H165.662V143.074H149.642V141.274ZM156.554 142.372H158.696V144.568C158.696 145.558 158.48 146.062 157.67 146.35C156.878 146.62 155.798 146.602 154.376 146.602C154.268 146.044 153.98 145.27 153.71 144.748C154.628 144.784 155.852 144.766 156.158 144.766C156.446 144.766 156.554 144.712 156.554 144.478V142.372ZM154.376 133.534H156.266V134.614C156.266 135.028 156.374 135.064 157.04 135.064C157.328 135.064 158.66 135.064 159.056 135.064C159.542 135.064 159.632 134.956 159.704 134.218C160.064 134.452 160.802 134.704 161.306 134.776C161.126 136.198 160.604 136.576 159.29 136.576C158.858 136.576 157.184 136.576 156.788 136.576C154.844 136.576 154.376 136.126 154.376 134.632V133.534ZM152.81 133.39L154.376 134.11C153.746 135.262 152.81 136.36 151.334 137.026L149.966 135.766C151.244 135.262 152.252 134.362 152.81 133.39ZM155.546 133.192L156.644 132.148C157.616 132.472 158.768 133.066 159.416 133.534L158.3 134.704C157.67 134.218 156.5 133.552 155.546 133.192ZM160.748 134.29L162.062 133.21C163.214 133.912 164.654 134.992 165.356 135.802L163.952 136.99C163.322 136.162 161.918 135.046 160.748 134.29ZM175.873 132.238C175.747 131.824 175.531 131.176 175.315 130.582L177.745 130.294C178.015 131.68 178.447 133.102 178.879 134.254C179.437 135.766 180.283 137.314 180.877 138.142C181.183 138.592 181.507 138.97 181.831 139.348L180.733 140.95C179.725 140.752 177.439 140.518 175.927 140.392L176.107 138.484C176.989 138.574 178.177 138.664 178.735 138.718C178.087 137.656 177.295 136.144 176.737 134.65C176.341 133.66 176.089 132.832 175.873 132.238ZM169.321 133.084C172.687 133.48 175.423 133.462 177.583 133.228C179.185 133.03 180.769 132.724 182.191 132.292L182.461 134.542C181.273 134.884 179.725 135.154 178.285 135.316C175.891 135.604 173.047 135.676 169.357 135.37L169.321 133.084ZM172.939 139.204C172.345 140.068 172.057 140.86 172.057 141.634C172.057 143.164 173.407 143.794 175.873 143.812C177.835 143.812 179.419 143.614 180.679 143.362L180.553 145.648C179.527 145.828 177.907 146.062 175.729 146.062C172.039 146.062 169.735 144.64 169.735 142.03C169.735 140.932 170.077 139.906 170.689 138.682L172.939 139.204ZM156.5 150.63C157.346 150.63 158.03 151.314 158.03 152.16C158.03 153.006 157.346 153.69 156.5 153.69C155.654 153.69 154.97 153.006 154.97 152.16C154.97 151.314 155.654 150.63 156.5 150.63ZM136.049 160.152C135.909 160.345 135.594 160.87 135.437 161.237C134.719 162.9 133.424 165.28 131.919 167.03C129.959 169.287 127.317 171.457 124.604 172.735L122.784 170.845C125.619 169.795 128.314 167.66 129.959 165.84C131.114 164.527 132.182 162.795 132.584 161.552C131.849 161.552 127.387 161.552 126.634 161.552C125.917 161.552 124.954 161.64 124.569 161.675V159.172C125.042 159.242 126.127 159.295 126.634 159.295C127.562 159.295 132.042 159.295 132.812 159.295C133.582 159.295 134.264 159.207 134.632 159.085L136.049 160.152ZM132.147 165.577C133.949 167.047 136.434 169.655 137.572 171.055L135.577 172.788C134.282 170.985 132.374 168.902 130.502 167.205L132.147 165.577ZM152.9 159.592C152.9 160.135 153.355 160.59 153.915 160.59C154.457 160.59 154.93 160.135 154.93 159.592C154.93 159.032 154.457 158.577 153.915 158.577C153.355 158.577 152.9 159.032 152.9 159.592ZM151.815 159.592C151.815 158.437 152.76 157.492 153.915 157.492C155.07 157.492 156.015 158.437 156.015 159.592C156.015 160.73 155.07 161.675 153.915 161.675C152.76 161.675 151.815 160.73 151.815 159.592ZM144.727 158.595C144.657 159.12 144.605 159.907 144.605 160.415C144.605 161.482 144.605 167.922 144.605 169.235C144.605 170.005 144.955 170.197 145.742 170.337C146.267 170.425 146.985 170.442 147.755 170.442C149.592 170.442 152.41 170.232 153.862 169.847V172.403C152.2 172.648 149.557 172.753 147.632 172.753C146.495 172.753 145.427 172.683 144.675 172.56C143.17 172.28 142.277 171.457 142.277 169.935C142.277 167.922 142.277 161.5 142.277 160.415C142.277 160.012 142.225 159.12 142.155 158.595H144.727ZM143.572 163.967C145.83 163.477 148.822 162.532 150.66 161.78C151.272 161.517 151.867 161.237 152.567 160.835L153.495 163.04C152.83 163.32 152.042 163.652 151.465 163.88C149.4 164.667 145.97 165.7 143.59 166.26L143.572 163.967ZM158.694 163.897C159.342 163.95 160.602 164.02 161.512 164.02C163.577 164.02 169.352 164.02 170.909 164.02C171.732 164.02 172.502 163.932 172.974 163.897V166.662C172.554 166.645 171.662 166.557 170.927 166.557C169.334 166.557 163.577 166.557 161.512 166.557C160.532 166.557 159.359 166.61 158.694 166.662V163.897ZM185.912 158.98C186.402 159.715 187.119 160.835 187.504 161.64L185.999 162.305C185.474 161.202 185.089 160.502 184.442 159.61L185.912 158.98ZM188.204 158.035C188.729 158.735 189.464 159.82 189.849 160.607L188.379 161.342C187.819 160.222 187.399 159.575 186.752 158.717L188.204 158.035ZM178.947 170.582C178.947 169.252 178.947 162.007 178.947 160.52C178.947 159.89 178.877 159.032 178.754 158.42H181.502C181.432 159.032 181.344 159.802 181.344 160.52C181.344 162.462 181.344 169.287 181.344 170.582C181.344 171.09 181.432 172.315 181.502 173.015H178.772C178.877 172.333 178.947 171.282 178.947 170.582ZM180.819 162.935C183.164 163.582 186.927 164.965 188.659 165.822L187.662 168.237C185.684 167.205 182.727 166.085 180.819 165.455V162.935Z" fill="#4A3E42"/>
<path d="M177.291 257.359H191.574V259.751H177.291V257.359ZM176.578 261.453H192.241V263.868H176.578V261.453ZM181.431 271.297H187.296V273.298H181.431V271.297ZM180.235 255.473H182.811V263.5H180.235V255.473ZM185.893 255.473H188.561V263.5H185.893V255.473ZM180.649 268.583H182.282V274.655H180.649V268.583ZM186.468 268.583H188.055V274.08H186.468V268.583ZM189.113 265.248H191.689V274.448C191.689 275.621 191.482 276.265 190.7 276.656C189.918 277.001 188.791 277.024 187.25 277.024C187.158 276.357 186.882 275.391 186.583 274.724C187.48 274.77 188.446 274.77 188.745 274.77C189.021 274.77 189.113 274.678 189.113 274.402V265.248ZM177.245 265.248H190.079V267.64H179.683V277.047H177.245V265.248ZM171.679 257.658L173.312 255.68C174.669 256.278 176.417 257.313 177.291 258.118L175.566 260.303C174.784 259.475 173.059 258.325 171.679 257.658ZM170.575 264.006L172.047 261.913C173.427 262.373 175.29 263.224 176.233 263.96L174.669 266.283C173.818 265.547 172.001 264.581 170.575 264.006ZM171.15 275.161C172.208 273.39 173.703 270.492 174.876 267.778L177.038 269.434C176.026 271.895 174.807 274.563 173.634 276.817L171.15 275.161ZM183.018 263.132H185.64V267.065H185.341V272.677H183.317V267.065H183.018V263.132ZM204.96 267.686H214.091V270.262H204.96V267.686ZM200.222 268.997C201.901 273.39 205.696 274.218 210.135 274.218C211.147 274.241 214.551 274.218 215.839 274.172C215.448 274.816 215.034 276.081 214.896 276.863H209.974C204.362 276.863 200.268 275.621 197.968 269.848L200.222 268.997ZM203.718 264.19H206.57V275.529L203.718 274.632V264.19ZM199.808 259.084V262.235H210.434V259.084H199.808ZM197.071 256.462H213.355V264.857H197.071V256.462ZM198.06 266.237L200.958 266.582C200.314 270.4 199.026 274.701 196.197 277.001C195.737 276.449 194.817 275.552 194.242 275.138C196.703 273.16 197.738 269.411 198.06 266.237Z" fill="#4A3E42"/>
<path d="M221.54 270.15L221.115 260.15L221.04 257.15H223.94L223.865 260.15L223.465 270.15H221.54ZM222.49 276.35C221.415 276.35 220.565 275.5 220.565 274.325C220.565 273.125 221.415 272.3 222.49 272.3C223.59 272.3 224.415 273.125 224.415 274.325C224.415 275.5 223.59 276.35 222.49 276.35Z" fill="#4A3E42"/>
<rect x="86" y="266" width="67" height="14" fill="#FFED9A"/>
<path d="M160.81 264.27C160.72 264.66 160.63 265.14 160.555 265.515C160.405 266.19 160.225 267.12 160.06 267.885C159.565 270 158.365 274.275 156.79 276.81L154.825 276.03C156.61 273.63 157.735 269.67 158.155 267.78C158.44 266.43 158.605 265.155 158.59 264.03L160.81 264.27ZM165.985 265.77C166.9 267.075 168.16 269.865 168.625 271.29L166.72 272.175C166.33 270.51 165.265 267.87 164.185 266.535L165.985 265.77ZM154.735 267.345C155.275 267.375 155.785 267.36 156.34 267.345C157.54 267.315 160.39 266.985 161.5 266.985C163.09 266.985 164.215 267.69 164.215 269.865C164.215 271.635 163.99 274.065 163.36 275.355C162.865 276.405 162.025 276.735 160.9 276.735C160.315 276.735 159.61 276.645 159.1 276.525L158.77 274.545C159.355 274.71 160.21 274.86 160.6 274.86C161.11 274.86 161.5 274.71 161.725 274.215C162.145 273.375 162.34 271.545 162.34 270.075C162.34 268.875 161.83 268.695 160.885 268.695C160 268.695 157.405 269.025 156.58 269.13C156.145 269.19 155.365 269.295 154.915 269.37L154.735 267.345ZM165.715 263.7C166.09 264.24 166.615 265.2 166.9 265.755L165.7 266.265C165.385 265.65 164.92 264.765 164.515 264.18L165.715 263.7ZM167.485 263.01C167.875 263.58 168.43 264.54 168.7 265.065L167.5 265.575C167.2 264.945 166.705 264.075 166.3 263.505L167.485 263.01Z" fill="#4A3E42"/>
<path d="M138.745 276.5L147.485 263.048H150.221L141.519 276.5H138.745ZM148.796 276.633C148.15 276.633 147.58 276.5 147.086 276.234C146.605 275.955 146.225 275.569 145.946 275.075C145.68 274.581 145.547 273.998 145.547 273.327C145.547 272.656 145.687 272.073 145.965 271.579C146.244 271.085 146.63 270.705 147.124 270.439C147.618 270.16 148.188 270.021 148.834 270.021C149.468 270.021 150.025 270.154 150.506 270.42C150.988 270.686 151.361 271.066 151.627 271.56C151.893 272.041 152.026 272.624 152.026 273.308C152.026 273.979 151.887 274.568 151.608 275.075C151.342 275.569 150.962 275.955 150.468 276.234C149.987 276.5 149.43 276.633 148.796 276.633ZM148.796 274.638C149.075 274.638 149.303 274.581 149.48 274.467C149.658 274.34 149.784 274.176 149.86 273.973C149.949 273.77 149.993 273.561 149.993 273.346C149.993 273.131 149.949 272.928 149.86 272.738C149.784 272.535 149.658 272.371 149.48 272.244C149.303 272.117 149.075 272.054 148.796 272.054C148.353 272.054 148.036 272.193 147.846 272.472C147.656 272.738 147.561 273.036 147.561 273.365C147.574 273.694 147.675 273.992 147.865 274.258C148.055 274.511 148.366 274.638 148.796 274.638ZM140.227 269.508C139.569 269.508 138.999 269.375 138.517 269.109C138.036 268.83 137.656 268.444 137.377 267.95C137.111 267.456 136.978 266.88 136.978 266.221C136.978 265.537 137.111 264.948 137.377 264.454C137.656 263.96 138.042 263.58 138.536 263.314C139.03 263.035 139.6 262.896 140.246 262.896C140.892 262.896 141.45 263.029 141.918 263.295C142.4 263.561 142.773 263.941 143.039 264.435C143.305 264.916 143.438 265.499 143.438 266.183C143.438 266.854 143.305 267.443 143.039 267.95C142.773 268.444 142.393 268.83 141.899 269.109C141.418 269.375 140.861 269.508 140.227 269.508ZM140.227 267.494C140.506 267.494 140.734 267.437 140.911 267.323C141.089 267.196 141.215 267.038 141.291 266.848C141.367 266.645 141.405 266.43 141.405 266.202C141.405 265.987 141.361 265.784 141.272 265.594C141.196 265.391 141.07 265.227 140.892 265.1C140.728 264.973 140.506 264.91 140.227 264.91C139.784 264.91 139.461 265.049 139.258 265.328C139.068 265.594 138.98 265.898 138.992 266.24C138.992 266.569 139.087 266.861 139.277 267.114C139.48 267.367 139.797 267.494 140.227 267.494Z" fill="#119EED"/>
<path d="M98.7925 277.32C97.1658 277.32 95.6592 277.053 94.2725 276.52C92.8858 275.96 91.7125 275.107 90.7525 273.96C89.8192 272.813 89.2192 271.373 88.9525 269.64H94.5525C94.8458 270.44 95.4192 271.053 96.2725 271.48C97.1258 271.88 98.0325 272.08 98.9925 272.08C100.086 272.08 101.006 271.867 101.753 271.44C102.526 270.987 103.139 270.4 103.593 269.68C104.046 268.933 104.379 268.12 104.592 267.24C104.806 266.333 104.926 265.413 104.952 264.48C104.952 264.373 104.952 264.267 104.952 264.16C104.952 264.027 104.952 263.907 104.952 263.8C104.366 264.653 103.659 265.32 102.832 265.8C102.006 266.28 101.153 266.613 100.273 266.8C99.3925 266.987 98.5525 267.08 97.7525 267.08C96.0725 267.08 94.5525 266.733 93.1925 266.04C91.8325 265.32 90.7525 264.293 89.9525 262.96C89.1792 261.627 88.7925 260.013 88.7925 258.12C88.7925 256.013 89.2725 254.24 90.2325 252.8C91.1925 251.333 92.4592 250.227 94.0325 249.48C95.6325 248.733 97.3792 248.36 99.2725 248.36C101.353 248.36 103.099 248.773 104.513 249.6C105.926 250.427 107.046 251.547 107.873 252.96C108.699 254.373 109.286 255.947 109.633 257.68C110.006 259.413 110.193 261.187 110.193 263C110.193 264.973 109.979 266.827 109.553 268.56C109.152 270.267 108.499 271.787 107.593 273.12C106.713 274.427 105.539 275.453 104.073 276.2C102.632 276.947 100.872 277.32 98.7925 277.32ZM99.0325 262.28C100.072 262.28 100.926 262.067 101.592 261.64C102.286 261.213 102.806 260.68 103.153 260.04C103.526 259.373 103.713 258.68 103.713 257.96C103.713 257.053 103.499 256.28 103.072 255.64C102.672 254.973 102.126 254.467 101.432 254.12C100.766 253.747 99.9925 253.56 99.1125 253.56C98.1525 253.56 97.3258 253.76 96.6325 254.16C95.9392 254.56 95.4058 255.093 95.0325 255.76C94.6592 256.427 94.4725 257.147 94.4725 257.92C94.4725 259.147 94.8592 260.187 95.6325 261.04C96.4325 261.867 97.5658 262.28 99.0325 262.28ZM122.836 277.32C121.21 277.32 119.703 277.053 118.316 276.52C116.93 275.96 115.756 275.107 114.796 273.96C113.863 272.813 113.263 271.373 112.996 269.64H118.596C118.89 270.44 119.463 271.053 120.316 271.48C121.17 271.88 122.076 272.08 123.036 272.08C124.13 272.08 125.05 271.867 125.796 271.44C126.57 270.987 127.183 270.4 127.636 269.68C128.09 268.933 128.423 268.12 128.636 267.24C128.85 266.333 128.97 265.413 128.996 264.48C128.996 264.373 128.996 264.267 128.996 264.16C128.996 264.027 128.996 263.907 128.996 263.8C128.41 264.653 127.703 265.32 126.876 265.8C126.05 266.28 125.196 266.613 124.316 266.8C123.436 266.987 122.596 267.08 121.796 267.08C120.116 267.08 118.596 266.733 117.236 266.04C115.876 265.32 114.796 264.293 113.996 262.96C113.223 261.627 112.836 260.013 112.836 258.12C112.836 256.013 113.316 254.24 114.276 252.8C115.236 251.333 116.503 250.227 118.076 249.48C119.676 248.733 121.423 248.36 123.316 248.36C125.396 248.36 127.143 248.773 128.556 249.6C129.97 250.427 131.09 251.547 131.916 252.96C132.743 254.373 133.33 255.947 133.676 257.68C134.05 259.413 134.236 261.187 134.236 263C134.236 264.973 134.023 266.827 133.596 268.56C133.196 270.267 132.543 271.787 131.636 273.12C130.756 274.427 129.583 275.453 128.116 276.2C126.676 276.947 124.916 277.32 122.836 277.32ZM123.076 262.28C124.116 262.28 124.97 262.067 125.636 261.64C126.33 261.213 126.85 260.68 127.196 260.04C127.57 259.373 127.756 258.68 127.756 257.96C127.756 257.053 127.543 256.28 127.116 255.64C126.716 254.973 126.17 254.467 125.476 254.12C124.81 253.747 124.036 253.56 123.156 253.56C122.196 253.56 121.37 253.76 120.676 254.16C119.983 254.56 119.45 255.093 119.076 255.76C118.703 256.427 118.516 257.147 118.516 257.92C118.516 259.147 118.903 260.187 119.676 261.04C120.476 261.867 121.61 262.28 123.076 262.28Z" fill="#119EED"/>
</svg>
