<svg width="312" height="302" viewBox="0 0 312 302" fill="none" xmlns="http://www.w3.org/2000/svg">
<rect opacity="0.7" width="312" height="302" rx="8" fill="white"/>
<path d="M240.652 69.252H252.3V71.215H240.652V69.252ZM247.516 70.045C248.257 72.931 249.843 75.31 252.625 76.389C252.157 76.805 251.52 77.637 251.221 78.183C248.14 76.766 246.606 74.101 245.605 70.487L247.516 70.045ZM245.358 65.885H247.438C247.373 70.162 247.347 75.44 241.822 78.183C241.523 77.663 240.951 76.987 240.392 76.571C245.605 74.205 245.306 69.629 245.358 65.885ZM254.185 66.912H265.833V68.641H254.185V66.912ZM259.008 65.885H260.958V67.64H259.008V65.885ZM260.737 67.614H262.57V70.695C262.57 71.462 262.466 71.904 261.946 72.164C261.452 72.424 260.854 72.437 260.113 72.437C260.048 71.943 259.814 71.254 259.593 70.786C259.944 70.799 260.412 70.799 260.555 70.799C260.698 70.799 260.737 70.773 260.737 70.643V67.614ZM258.15 67.367H259.905V68.563C259.905 69.954 259.671 71.735 257.825 72.918C257.539 72.528 256.876 71.917 256.447 71.631C257.955 70.734 258.15 69.499 258.15 68.511V67.367ZM262.765 69.733L264.221 68.901C264.91 69.616 265.768 70.604 266.158 71.306L264.585 72.242C264.26 71.553 263.441 70.5 262.765 69.733ZM255.68 68.94L257.435 69.408C256.902 70.461 256.083 71.527 255.199 72.164C254.861 71.826 254.263 71.332 253.899 71.085C254.679 70.578 255.368 69.694 255.68 68.94ZM258.189 73.685C259.502 75.544 262.232 76.298 266.288 76.428C265.898 76.87 265.417 77.689 265.183 78.209C260.867 77.91 258.267 76.831 256.499 74.205L258.189 73.685ZM258.267 71.865L260.23 72.242C259.125 73.854 257.656 75.037 255.316 75.947C255.082 75.505 254.536 74.829 254.146 74.543C256.278 73.893 257.578 72.931 258.267 71.865ZM258.449 72.801H262.908V74.27H257.136L258.449 72.801ZM262.388 72.801H262.778L263.09 72.736L264.325 73.542C262.622 76.623 258.865 77.832 254.601 78.261C254.458 77.793 254.042 76.961 253.717 76.558C257.825 76.324 261.205 75.414 262.388 73.087V72.801ZM274.291 66.457C274.226 66.886 274.187 67.536 274.161 68.108C274.135 68.745 274.161 69.408 274.161 70.071C274.161 71.514 274.421 74.426 274.421 75.492C274.421 76.701 273.862 77.897 271.431 77.897C269.533 77.897 267.895 77.26 267.895 75.349C267.895 73.88 269.143 72.749 271.6 72.749C274.408 72.749 276.904 74.14 278.217 75.388L277.008 77.26C275.721 75.973 273.706 74.491 271.301 74.491C270.469 74.491 269.949 74.764 269.949 75.245C269.949 75.83 270.56 75.973 271.275 75.973C272.042 75.973 272.263 75.648 272.263 74.803C272.263 73.932 272.107 71.254 272.107 70.071C272.107 69.265 272.094 68.667 272.081 68.108C272.055 67.367 272.016 66.821 271.925 66.457H274.291ZM273.108 68.862C273.81 68.862 276.176 68.823 277.658 68.667L277.736 70.539C276.228 70.669 273.849 70.721 273.121 70.721L273.108 68.862ZM282.742 67.588C282.638 68.134 282.56 68.979 282.56 69.356C282.56 70.214 282.56 71.059 282.638 71.93C282.794 73.633 283.054 74.829 283.808 74.829C284.406 74.829 284.861 73.204 285.056 72.32L286.642 74.27C285.732 76.571 284.9 77.377 283.769 77.377C282.222 77.377 280.948 76.064 280.584 72.515C280.454 71.28 280.441 69.785 280.441 68.966C280.441 68.576 280.415 68.017 280.324 67.562L282.742 67.588ZM289.099 67.835C290.373 69.33 291.4 72.853 291.517 74.725L289.424 75.531C289.242 73.568 288.605 70.149 287.084 68.485L289.099 67.835Z" fill="#119EED"/>
<g opacity="0.8">
<rect width="66" height="2" transform="matrix(-1 0 0 1 292 57)" fill="#119EED"/>
<path d="M226 58L204 80" stroke="#119EED" stroke-width="2"/>
</g>
<path d="M236.816 51L244.646 34.325H234.844V30.468H249.373V33.571L241.427 51H236.816ZM256.108 51V35.949H252.077V32.817C252.87 32.7977 253.585 32.73 254.223 32.614C254.861 32.4787 255.432 32.2467 255.934 31.918C256.437 31.57 256.872 31.0867 257.239 30.468H260.255V51H256.108Z" fill="#119EED"/>
<path d="M265.009 51.224C264.598 51.224 264.272 51.1027 264.029 50.86C263.805 50.5987 263.693 50.2813 263.693 49.908C263.693 49.516 263.814 49.1987 264.057 48.956C264.3 48.7133 264.617 48.592 265.009 48.592C265.382 48.592 265.69 48.7133 265.933 48.956C266.176 49.1987 266.297 49.516 266.297 49.908C266.297 50.2813 266.176 50.5987 265.933 50.86C265.709 51.1027 265.401 51.224 265.009 51.224Z" fill="#119EED"/>
<path d="M272.976 51.12C272.476 51.12 272.011 51.06 271.581 50.94C271.151 50.81 270.766 50.615 270.426 50.355C270.096 50.095 269.816 49.765 269.586 49.365C269.366 48.965 269.216 48.49 269.136 47.94H271.251C271.311 48.14 271.421 48.33 271.581 48.51C271.741 48.69 271.941 48.835 272.181 48.945C272.431 49.055 272.711 49.11 273.021 49.11C273.401 49.11 273.721 49.045 273.981 48.915C274.241 48.775 274.441 48.585 274.581 48.345C274.721 48.105 274.791 47.82 274.791 47.49C274.791 46.99 274.631 46.59 274.311 46.29C274.001 45.98 273.561 45.825 272.991 45.825C272.661 45.825 272.351 45.885 272.061 46.005C271.781 46.115 271.511 46.27 271.251 46.47H269.421L269.616 40.38H276.606V42.345H271.641L271.521 44.505C271.821 44.295 272.166 44.15 272.556 44.07C272.956 43.98 273.351 43.94 273.741 43.95C274.431 43.97 275.016 44.12 275.496 44.4C275.976 44.68 276.341 45.07 276.591 45.57C276.851 46.07 276.981 46.655 276.981 47.325C276.981 48.135 276.801 48.825 276.441 49.395C276.091 49.965 275.611 50.395 275.001 50.685C274.401 50.975 273.726 51.12 272.976 51.12Z" fill="#119EED"/>
<path d="M280.457 51L287.357 40.38H289.517L282.647 51H280.457ZM288.392 51.105C287.882 51.105 287.432 51 287.042 50.79C286.662 50.57 286.362 50.265 286.142 49.875C285.932 49.485 285.827 49.025 285.827 48.495C285.827 47.965 285.937 47.505 286.157 47.115C286.377 46.725 286.682 46.425 287.072 46.215C287.462 45.995 287.912 45.885 288.422 45.885C288.922 45.885 289.362 45.99 289.742 46.2C290.122 46.41 290.417 46.71 290.627 47.1C290.837 47.48 290.942 47.94 290.942 48.48C290.942 49.01 290.832 49.475 290.612 49.875C290.402 50.265 290.102 50.57 289.712 50.79C289.332 51 288.892 51.105 288.392 51.105ZM288.392 49.53C288.612 49.53 288.792 49.485 288.932 49.395C289.072 49.295 289.172 49.165 289.232 49.005C289.302 48.845 289.337 48.68 289.337 48.51C289.337 48.34 289.302 48.18 289.232 48.03C289.172 47.87 289.072 47.74 288.932 47.64C288.792 47.54 288.612 47.49 288.392 47.49C288.042 47.49 287.792 47.6 287.642 47.82C287.492 48.03 287.417 48.265 287.417 48.525C287.427 48.785 287.507 49.02 287.657 49.23C287.807 49.43 288.052 49.53 288.392 49.53ZM281.627 45.48C281.107 45.48 280.657 45.375 280.277 45.165C279.897 44.945 279.597 44.64 279.377 44.25C279.167 43.86 279.062 43.405 279.062 42.885C279.062 42.345 279.167 41.88 279.377 41.49C279.597 41.1 279.902 40.8 280.292 40.59C280.682 40.37 281.132 40.26 281.642 40.26C282.152 40.26 282.592 40.365 282.962 40.575C283.342 40.785 283.637 41.085 283.847 41.475C284.057 41.855 284.162 42.315 284.162 42.855C284.162 43.385 284.057 43.85 283.847 44.25C283.637 44.64 283.337 44.945 282.947 45.165C282.567 45.375 282.127 45.48 281.627 45.48ZM281.627 43.89C281.847 43.89 282.027 43.845 282.167 43.755C282.307 43.655 282.407 43.53 282.467 43.38C282.527 43.22 282.557 43.05 282.557 42.87C282.557 42.7 282.522 42.54 282.452 42.39C282.392 42.23 282.292 42.1 282.152 42C282.022 41.9 281.847 41.85 281.627 41.85C281.277 41.85 281.022 41.96 280.862 42.18C280.712 42.39 280.642 42.63 280.652 42.9C280.652 43.16 280.727 43.39 280.877 43.59C281.037 43.79 281.287 43.89 281.627 43.89Z" fill="#119EED"/>
<path d="M27.2879 85.457C27.2229 85.886 27.1839 86.536 27.1579 87.108C27.1319 87.745 27.1579 88.408 27.1579 89.071C27.1579 90.514 27.4179 93.426 27.4179 94.492C27.4179 95.701 26.8589 96.897 24.4279 96.897C22.5299 96.897 20.8919 96.26 20.8919 94.349C20.8919 92.88 22.1399 91.749 24.5969 91.749C27.4049 91.749 29.9009 93.14 31.2139 94.388L30.0049 96.26C28.7179 94.973 26.7029 93.491 24.2979 93.491C23.4659 93.491 22.9459 93.764 22.9459 94.245C22.9459 94.83 23.5569 94.973 24.2719 94.973C25.0389 94.973 25.2599 94.648 25.2599 93.803C25.2599 92.932 25.1039 90.254 25.1039 89.071C25.1039 88.265 25.0909 87.667 25.0779 87.108C25.0519 86.367 25.0129 85.821 24.9219 85.457H27.2879ZM26.1049 87.862C26.8069 87.862 29.1729 87.823 30.6549 87.667L30.7329 89.539C29.2249 89.669 26.8459 89.721 26.1179 89.721L26.1049 87.862ZM35.7381 86.588C35.6341 87.134 35.5561 87.979 35.5561 88.356C35.5561 89.214 35.5561 90.059 35.6341 90.93C35.7901 92.633 36.0501 93.829 36.8041 93.829C37.4021 93.829 37.8571 92.204 38.0521 91.32L39.6381 93.27C38.7281 95.571 37.8961 96.377 36.7651 96.377C35.2181 96.377 33.9441 95.064 33.5801 91.515C33.4501 90.28 33.4371 88.785 33.4371 87.966C33.4371 87.576 33.4111 87.017 33.3201 86.562L35.7381 86.588ZM42.0951 86.835C43.3691 88.33 44.3961 91.853 44.5131 93.725L42.4201 94.531C42.2381 92.568 41.6011 89.149 40.0801 87.485L42.0951 86.835Z" fill="#119EED"/>
<g opacity="0.8">
<rect x="20" y="76" width="56" height="2" fill="#119EED"/>
<path d="M76 77L94 95" stroke="#119EED" stroke-width="2"/>
</g>
<path d="M52.0081 70.2C51.6414 70.2 51.3498 70.0917 51.1331 69.875C50.9331 69.6417 50.8331 69.3583 50.8331 69.025C50.8331 68.675 50.9414 68.3917 51.1581 68.175C51.3748 67.9583 51.6581 67.85 52.0081 67.85C52.3414 67.85 52.6164 67.9583 52.8331 68.175C53.0498 68.3917 53.1581 68.675 53.1581 69.025C53.1581 69.3583 53.0498 69.6417 52.8331 69.875C52.6331 70.0917 52.3581 70.2 52.0081 70.2Z" fill="#119EED"/>
<path d="M21.4107 70V67.05L26.3107 62.975C26.6607 62.675 27.0607 62.3417 27.5107 61.975C27.9774 61.5917 28.4191 61.1833 28.8357 60.75C29.2691 60.3167 29.6191 59.8583 29.8857 59.375C30.1691 58.8917 30.3107 58.3917 30.3107 57.875C30.3107 57.1583 30.0857 56.575 29.6357 56.125C29.2024 55.675 28.5607 55.45 27.7107 55.45C26.9107 55.45 26.2774 55.6333 25.8107 56C25.3607 56.35 25.0774 56.8 24.9607 57.35H21.5107C21.6107 56.1667 21.9607 55.1917 22.5607 54.425C23.1774 53.6417 23.9524 53.0583 24.8857 52.675C25.8191 52.2917 26.8024 52.1 27.8357 52.1C28.9524 52.1 29.9691 52.3083 30.8857 52.725C31.8024 53.1417 32.5274 53.75 33.0607 54.55C33.5941 55.3333 33.8607 56.3083 33.8607 57.475C33.8607 58.475 33.6691 59.3833 33.2857 60.2C32.9191 61 32.4107 61.75 31.7607 62.45C31.1107 63.1333 30.3774 63.7917 29.5607 64.425L26.7607 66.7H33.8357V70H21.4107ZM42.5494 70.2C41.2994 70.2 40.2327 69.9667 39.3494 69.5C38.4661 69.0333 37.7411 68.3917 37.1744 67.575C36.6077 66.7583 36.1911 65.8333 35.9244 64.8C35.6744 63.75 35.5494 62.65 35.5494 61.5C35.5494 60.2333 35.6911 59.0417 35.9744 57.925C36.2577 56.7917 36.6994 55.7917 37.2994 54.925C37.8994 54.0417 38.6577 53.35 39.5744 52.85C40.5077 52.35 41.6244 52.1 42.9244 52.1C43.9244 52.1 44.8327 52.275 45.6494 52.625C46.4827 52.975 47.1827 53.5083 47.7494 54.225C48.3161 54.925 48.6827 55.825 48.8494 56.925H45.4494C45.2494 56.4417 44.9077 56.0583 44.4244 55.775C43.9577 55.4917 43.4077 55.35 42.7744 55.35C42.1911 55.35 41.6827 55.4583 41.2494 55.675C40.8161 55.875 40.4411 56.1583 40.1244 56.525C39.8244 56.875 39.5744 57.275 39.3744 57.725C39.1744 58.175 39.0327 58.65 38.9494 59.15C38.8661 59.6333 38.8244 60.1167 38.8244 60.6C39.2244 60.05 39.6827 59.6167 40.1994 59.3C40.7327 58.9833 41.2661 58.7667 41.7994 58.65C42.3327 58.5167 42.8161 58.45 43.2494 58.45C44.4327 58.45 45.4494 58.6833 46.2994 59.15C47.1494 59.6167 47.7994 60.275 48.2494 61.125C48.7161 61.9583 48.9494 62.95 48.9494 64.1C48.9494 65.3333 48.6744 66.4083 48.1244 67.325C47.5744 68.2417 46.8161 68.95 45.8494 69.45C44.8994 69.95 43.7994 70.2 42.5494 70.2ZM42.5744 66.925C43.1744 66.925 43.6744 66.8 44.0744 66.55C44.4911 66.3 44.8077 65.975 45.0244 65.575C45.2411 65.1583 45.3494 64.7167 45.3494 64.25C45.3494 63.75 45.2411 63.3 45.0244 62.9C44.8077 62.4833 44.4994 62.15 44.0994 61.9C43.6994 61.65 43.2077 61.525 42.6244 61.525C42.0744 61.525 41.5661 61.65 41.0994 61.9C40.6494 62.1333 40.2994 62.4583 40.0494 62.875C39.7994 63.275 39.6744 63.7333 39.6744 64.25C39.6744 64.7167 39.7911 65.1583 40.0244 65.575C40.2577 65.975 40.5911 66.3 41.0244 66.55C41.4577 66.8 41.9744 66.925 42.5744 66.925Z" fill="#119EED"/>
<path d="M55.0578 70L58.5678 62.525H54.1738V60.796H60.6868V62.187L57.1248 70H55.0578Z" fill="#119EED"/>
<path d="M63.0627 70L69.0427 60.796H70.9147L64.9607 70H63.0627ZM69.9397 70.091C69.4977 70.091 69.1077 70 68.7697 69.818C68.4403 69.6273 68.1803 69.363 67.9897 69.025C67.8077 68.687 67.7167 68.2883 67.7167 67.829C67.7167 67.3697 67.812 66.971 68.0027 66.633C68.1933 66.295 68.4577 66.035 68.7957 65.853C69.1337 65.6623 69.5237 65.567 69.9657 65.567C70.399 65.567 70.7803 65.658 71.1097 65.84C71.439 66.022 71.6947 66.282 71.8767 66.62C72.0587 66.9493 72.1497 67.348 72.1497 67.816C72.1497 68.2753 72.0543 68.6783 71.8637 69.025C71.6817 69.363 71.4217 69.6273 71.0837 69.818C70.7543 70 70.373 70.091 69.9397 70.091ZM69.9397 68.726C70.1303 68.726 70.2863 68.687 70.4077 68.609C70.529 68.5223 70.6157 68.4097 70.6677 68.271C70.7283 68.1323 70.7587 67.9893 70.7587 67.842C70.7587 67.6947 70.7283 67.556 70.6677 67.426C70.6157 67.2873 70.529 67.1747 70.4077 67.088C70.2863 67.0013 70.1303 66.958 69.9397 66.958C69.6363 66.958 69.4197 67.0533 69.2897 67.244C69.1597 67.426 69.0947 67.6297 69.0947 67.855C69.1033 68.0803 69.1727 68.284 69.3027 68.466C69.4327 68.6393 69.645 68.726 69.9397 68.726ZM64.0767 65.216C63.626 65.216 63.236 65.125 62.9067 64.943C62.5773 64.7523 62.3173 64.488 62.1267 64.15C61.9447 63.812 61.8537 63.4177 61.8537 62.967C61.8537 62.499 61.9447 62.096 62.1267 61.758C62.3173 61.42 62.5817 61.16 62.9197 60.978C63.2577 60.7873 63.6477 60.692 64.0897 60.692C64.5317 60.692 64.913 60.783 65.2337 60.965C65.563 61.147 65.8187 61.407 66.0007 61.745C66.1827 62.0743 66.2737 62.473 66.2737 62.941C66.2737 63.4003 66.1827 63.8033 66.0007 64.15C65.8187 64.488 65.5587 64.7523 65.2207 64.943C64.8913 65.125 64.51 65.216 64.0767 65.216ZM64.0767 63.838C64.2673 63.838 64.4233 63.799 64.5447 63.721C64.666 63.6343 64.7527 63.526 64.8047 63.396C64.8567 63.2573 64.8827 63.11 64.8827 62.954C64.8827 62.8067 64.8523 62.668 64.7917 62.538C64.7397 62.3993 64.653 62.2867 64.5317 62.2C64.419 62.1133 64.2673 62.07 64.0767 62.07C63.7733 62.07 63.5523 62.1653 63.4137 62.356C63.2837 62.538 63.223 62.746 63.2317 62.98C63.2317 63.2053 63.2967 63.4047 63.4267 63.578C63.5653 63.7513 63.782 63.838 64.0767 63.838Z" fill="#119EED"/>
<ellipse cx="156" cy="143" rx="90" ry="87" fill="white"/>
<path fill-rule="evenodd" clip-rule="evenodd" d="M69.0283 165.465C79.2742 202.625 114.33 230 155.999 230C205.705 230 245.999 191.049 245.999 143C245.999 94.9513 205.705 56.0002 155.999 56V90C188.023 90.0002 211.999 114.806 211.999 143C211.999 171.194 188.023 196 155.999 196C129.367 196 108.301 178.844 101.962 156.851L69.0283 165.465Z" fill="#64C7FF"/>
<path fill-rule="evenodd" clip-rule="evenodd" d="M146.273 56.5022C101.142 61.1904 66 98.1281 66 143C66 150.768 67.0533 158.299 69.0293 165.466L101.963 156.851C100.68 152.398 100 147.747 100 143C100 116.571 121.069 93.1186 150.085 90.2863L146.273 56.5022Z" fill="#95D9FF"/>
<path fill-rule="evenodd" clip-rule="evenodd" d="M155.997 56C152.711 56 149.465 56.1703 146.27 56.5024L150.082 90.2865C152.019 90.0973 153.993 90 155.997 90V56Z" fill="#E3EFF6"/>
<path d="M146.27 56.5024L147.512 56.3622L147.373 55.131L146.14 55.2591L146.27 56.5024ZM155.997 56V54.75H154.747V56H155.997ZM155.997 90H154.747V91.25H155.997V90ZM150.082 90.2865L150.203 91.5305L151.466 91.4072L151.324 90.1463L150.082 90.2865ZM146.14 55.2591C100.414 60.0099 64.748 97.4478 64.748 143H67.248C67.248 98.8093 101.865 62.3727 146.399 57.7457L146.14 55.2591ZM64.748 143C64.748 191.779 105.642 231.25 155.998 231.25V228.75C106.942 228.75 67.248 190.319 67.248 143H64.748ZM155.998 231.25C206.354 231.25 247.248 191.779 247.248 143H244.748C244.748 190.319 205.054 228.75 155.998 228.75V231.25ZM247.248 143C247.248 94.2213 206.354 54.75 155.998 54.75V57.25C205.054 57.25 244.748 95.6812 244.748 143H247.248ZM155.998 54.75C155.998 54.75 155.998 54.75 155.998 54.75C155.998 54.75 155.998 54.75 155.997 54.75V57.25C155.998 57.25 155.998 57.25 155.998 57.25C155.998 57.25 155.998 57.25 155.998 57.25V54.75ZM157.247 90V56H154.747V90H157.247ZM155.998 88.75H155.998C155.998 88.75 155.998 88.75 155.998 88.75C155.998 88.75 155.998 88.75 155.998 88.75C155.998 88.75 155.998 88.75 155.998 88.75C155.998 88.75 155.998 88.75 155.998 88.75H155.998H155.998C155.998 88.75 155.998 88.75 155.998 88.75C155.998 88.75 155.998 88.75 155.998 88.75C155.998 88.75 155.998 88.75 155.998 88.75C155.998 88.75 155.998 88.75 155.998 88.75H155.998H155.998C155.998 88.75 155.998 88.75 155.998 88.75C155.998 88.75 155.998 88.75 155.998 88.75C155.998 88.75 155.998 88.75 155.998 88.75H155.998H155.998C155.998 88.75 155.998 88.75 155.998 88.75C155.998 88.75 155.998 88.75 155.998 88.75C155.998 88.75 155.998 88.75 155.998 88.75C155.998 88.75 155.998 88.75 155.998 88.75H155.998H155.998C155.998 88.75 155.998 88.75 155.998 88.75C155.998 88.75 155.998 88.75 155.998 88.75C155.998 88.75 155.998 88.75 155.998 88.75C155.998 88.75 155.998 88.75 155.998 88.75H155.998H155.998C155.998 88.75 155.998 88.75 155.998 88.75C155.998 88.75 155.998 88.75 155.998 88.75C155.998 88.75 155.998 88.75 155.998 88.75C155.998 88.75 155.998 88.75 155.998 88.75H155.998H155.998C155.998 88.75 155.998 88.75 155.998 88.75C155.998 88.75 155.998 88.75 155.998 88.75C155.998 88.75 155.998 88.75 155.998 88.75H155.998H155.998C155.998 88.75 155.998 88.75 155.998 88.75C155.998 88.75 155.998 88.75 155.998 88.75C155.998 88.75 155.998 88.75 155.998 88.75C155.998 88.75 155.998 88.75 155.998 88.75H155.998H155.998C155.998 88.75 155.998 88.75 155.998 88.75C155.998 88.75 155.998 88.75 155.998 88.75C155.998 88.75 155.998 88.75 155.998 88.75C155.998 88.75 155.998 88.75 155.998 88.75H155.998H155.998C155.998 88.75 155.998 88.75 155.998 88.75C155.998 88.75 155.998 88.75 155.998 88.75C155.998 88.75 155.998 88.75 155.998 88.75C155.998 88.75 155.998 88.75 155.998 88.75H155.998H155.998C155.998 88.75 155.998 88.75 155.998 88.75C155.998 88.75 155.998 88.75 155.998 88.75C155.998 88.75 155.998 88.75 155.998 88.75C155.998 88.75 155.998 88.75 155.998 88.75H155.998C155.998 88.75 155.998 88.75 155.998 88.75C155.998 88.75 155.998 88.75 155.998 88.75C155.998 88.75 155.998 88.75 155.998 88.75C155.998 88.75 155.998 88.75 155.998 88.75H155.998H155.998C155.998 88.75 155.998 88.75 155.998 88.75C155.997 88.75 155.997 88.75 155.997 88.75C155.997 88.75 155.997 88.75 155.997 88.75C155.997 88.75 155.997 88.75 155.997 88.75H155.997V91.25H155.997C155.997 91.25 155.997 91.25 155.997 91.25C155.997 91.25 155.997 91.25 155.997 91.25C155.997 91.25 155.997 91.25 155.998 91.25C155.998 91.25 155.998 91.25 155.998 91.25H155.998H155.998C155.998 91.25 155.998 91.25 155.998 91.25C155.998 91.25 155.998 91.25 155.998 91.25C155.998 91.25 155.998 91.25 155.998 91.25C155.998 91.25 155.998 91.25 155.998 91.25H155.998C155.998 91.25 155.998 91.25 155.998 91.25C155.998 91.25 155.998 91.25 155.998 91.25C155.998 91.25 155.998 91.25 155.998 91.25C155.998 91.25 155.998 91.25 155.998 91.25H155.998H155.998C155.998 91.25 155.998 91.25 155.998 91.25C155.998 91.25 155.998 91.25 155.998 91.25C155.998 91.25 155.998 91.25 155.998 91.25C155.998 91.25 155.998 91.25 155.998 91.25H155.998H155.998C155.998 91.25 155.998 91.25 155.998 91.25C155.998 91.25 155.998 91.25 155.998 91.25C155.998 91.25 155.998 91.25 155.998 91.25C155.998 91.25 155.998 91.25 155.998 91.25H155.998H155.998C155.998 91.25 155.998 91.25 155.998 91.25C155.998 91.25 155.998 91.25 155.998 91.25C155.998 91.25 155.998 91.25 155.998 91.25C155.998 91.25 155.998 91.25 155.998 91.25H155.998H155.998C155.998 91.25 155.998 91.25 155.998 91.25C155.998 91.25 155.998 91.25 155.998 91.25C155.998 91.25 155.998 91.25 155.998 91.25H155.998H155.998C155.998 91.25 155.998 91.25 155.998 91.25C155.998 91.25 155.998 91.25 155.998 91.25C155.998 91.25 155.998 91.25 155.998 91.25C155.998 91.25 155.998 91.25 155.998 91.25H155.998H155.998C155.998 91.25 155.998 91.25 155.998 91.25C155.998 91.25 155.998 91.25 155.998 91.25C155.998 91.25 155.998 91.25 155.998 91.25C155.998 91.25 155.998 91.25 155.998 91.25H155.998H155.998C155.998 91.25 155.998 91.25 155.998 91.25C155.998 91.25 155.998 91.25 155.998 91.25C155.998 91.25 155.998 91.25 155.998 91.25C155.998 91.25 155.998 91.25 155.998 91.25H155.998H155.998C155.998 91.25 155.998 91.25 155.998 91.25C155.998 91.25 155.998 91.25 155.998 91.25C155.998 91.25 155.998 91.25 155.998 91.25H155.998H155.998C155.998 91.25 155.998 91.25 155.998 91.25C155.998 91.25 155.998 91.25 155.998 91.25C155.998 91.25 155.998 91.25 155.998 91.25C155.998 91.25 155.998 91.25 155.998 91.25H155.998H155.998C155.998 91.25 155.998 91.25 155.998 91.25C155.998 91.25 155.998 91.25 155.998 91.25C155.998 91.25 155.998 91.25 155.998 91.25C155.998 91.25 155.998 91.25 155.998 91.25H155.998V88.75ZM213.248 143C213.248 114.084 188.679 88.75 155.998 88.75V91.25C187.364 91.25 210.748 115.529 210.748 143H213.248ZM155.998 197.25C188.679 197.25 213.248 171.916 213.248 143H210.748C210.748 170.471 187.364 194.75 155.998 194.75V197.25ZM98.748 143C98.748 171.916 123.317 197.25 155.998 197.25V194.75C124.632 194.75 101.248 170.471 101.248 143H98.748ZM149.96 89.0424C120.337 91.9347 98.748 115.895 98.748 143H101.248C101.248 117.247 121.795 94.3043 150.203 91.5305L149.96 89.0424ZM145.028 56.6425L148.84 90.4266L151.324 90.1463L147.512 56.3622L145.028 56.6425Z" fill="#119EED"/>
<path d="M121.968 120.627H126.401V122.148H121.968V120.627ZM115.767 119.691H122.332V121.134H115.767V119.691ZM117.483 122.382H120.616V123.773H117.483V122.382ZM117.483 125.086H120.616V126.477H117.483V125.086ZM125.972 120.627H126.245L126.518 120.588L127.532 120.835C127.025 126.1 125.322 129.298 122.384 131.092C122.15 130.689 121.708 130.104 121.357 129.805C123.944 128.453 125.543 125.255 125.972 120.965V120.627ZM123.489 122.187C124.126 125.567 125.517 128.44 128.013 129.792C127.662 130.091 127.181 130.689 126.934 131.092C124.204 129.441 122.813 126.399 121.994 122.473L123.489 122.187ZM116.664 120.289H118.146V128.791H116.664V120.289ZM120.005 120.289H121.513V131.17H120.005V120.289ZM115.468 128.219C116.755 128.076 118.692 127.816 120.525 127.556L120.616 128.973C118.926 129.272 117.119 129.558 115.754 129.766L115.468 128.219ZM133.928 119.535H138.517V120.978H133.928V119.535ZM138.023 119.535H138.179L138.426 119.483L139.492 119.613C139.297 121.147 138.959 123.097 138.647 124.657L137.23 124.488C137.542 122.928 137.88 120.809 138.023 119.691V119.535ZM138.53 122.798H140.194V124.189H138.296L138.53 122.798ZM139.869 122.798H140.142L140.415 122.746L141.403 123.071C140.675 127.335 138.673 129.766 135.748 131.079C135.54 130.702 135.15 130.143 134.838 129.857C137.425 128.882 139.297 126.503 139.869 123.071V122.798ZM134.773 120.12L136.281 120.146C136.203 124.904 135.891 128.648 134.123 131.092C133.876 130.832 133.161 130.299 132.797 130.065C134.513 127.998 134.76 124.436 134.773 120.12ZM136.203 122.525C136.944 125.996 138.504 128.713 141.702 129.792C141.351 130.104 140.883 130.754 140.649 131.17C137.36 129.805 135.917 126.776 135.085 122.733L136.203 122.525ZM129.261 125.593C130.47 125.333 132.264 124.891 133.967 124.449L134.149 125.879C132.602 126.321 130.938 126.75 129.638 127.088L129.261 125.593ZM129.469 121.407H133.954V122.863H129.469V121.407ZM131.107 118.963H132.641V129.493C132.641 130.247 132.511 130.637 132.069 130.871C131.627 131.105 131.003 131.157 130.08 131.144C130.041 130.754 129.846 130.117 129.651 129.727C130.158 129.74 130.691 129.74 130.86 129.74C131.042 129.727 131.107 129.675 131.107 129.493V118.963ZM146.085 120.718C145.994 121.173 145.929 121.94 145.929 122.304C145.929 123.149 145.929 124.111 146.007 125.06C146.189 126.932 146.579 128.219 147.398 128.219C148.022 128.219 148.529 126.685 148.776 125.658L150.089 127.231C149.218 129.506 148.412 130.286 147.372 130.286C145.929 130.286 144.694 129.012 144.33 125.528C144.2 124.332 144.187 122.798 144.187 122.005C144.187 121.654 144.174 121.095 144.083 120.692L146.085 120.718ZM152.585 121.004C153.82 122.499 154.821 125.749 154.964 127.738L153.248 128.414C153.053 126.308 152.351 123.162 150.934 121.55L152.585 121.004ZM157.189 119.951H168.616V121.355H157.189V119.951ZM162.025 118.963H163.637V120.783H162.025V118.963ZM157.618 122.382H167.615V123.721H159.1V131.144H157.618V122.382ZM166.809 122.382H168.317V129.48C168.317 130.234 168.161 130.676 167.654 130.91C167.134 131.144 166.406 131.183 165.379 131.183C165.314 130.767 165.08 130.078 164.872 129.688C165.548 129.727 166.302 129.727 166.523 129.714C166.744 129.714 166.809 129.649 166.809 129.467V122.382ZM160.894 123.552H162.272C162.168 125.112 161.726 125.996 159.659 126.464C159.542 126.139 159.217 125.632 158.944 125.385C160.556 125.099 160.829 124.592 160.894 123.552ZM163.299 123.552H164.651V124.54C164.651 124.826 164.677 124.852 164.911 124.852C165.028 124.852 165.457 124.852 165.587 124.852C165.795 124.852 165.847 124.761 165.886 124.124C166.133 124.306 166.679 124.488 167.03 124.566C166.9 125.671 166.562 125.97 165.756 125.97C165.522 125.97 164.924 125.97 164.703 125.97C163.546 125.97 163.299 125.632 163.299 124.566V123.552ZM160.374 126.464H161.752V130.559H160.374V126.464ZM161.232 126.464H165.509V129.857H161.232V128.713H164.105V127.608H161.232V126.464ZM159.516 121.329L161.063 121.069C161.297 121.485 161.544 122.044 161.648 122.421L160.036 122.746C159.958 122.369 159.724 121.771 159.516 121.329ZM164.599 121.056L166.328 121.316C166.016 121.888 165.743 122.356 165.509 122.707L163.962 122.447C164.183 122.044 164.456 121.459 164.599 121.056ZM174.375 120.965V122.72H178.951V120.965H174.375ZM172.867 119.483H180.55V124.202H172.867V119.483ZM171.086 125.294H176.052V131.092H174.492V126.776H172.555V131.17H171.086V125.294ZM177.157 125.294H182.305V131.105H180.732V126.776H178.652V131.17H177.157V125.294ZM171.736 129.025H175.142V130.52H171.736V129.025ZM177.872 129.025H181.512V130.52H177.872V129.025ZM191.627 121.095C191.445 122.421 191.185 123.942 190.73 125.476C189.95 128.102 188.832 129.714 187.415 129.714C185.959 129.714 184.763 128.115 184.763 125.918C184.763 122.928 187.376 120.354 190.743 120.354C193.954 120.354 195.995 122.59 195.995 125.437C195.995 128.167 194.318 130.104 191.042 130.611L190.054 129.077C190.561 129.012 190.925 128.947 191.276 128.869C192.927 128.466 194.227 127.283 194.227 125.372C194.227 123.331 192.953 121.875 190.704 121.875C187.948 121.875 186.44 124.124 186.44 125.762C186.44 127.075 186.96 127.712 187.454 127.712C188.013 127.712 188.507 126.88 189.053 125.125C189.43 123.903 189.716 122.408 189.846 121.043L191.627 121.095ZM134.198 147.542H136.86V153.548C136.86 154.296 136.97 154.384 137.696 154.384C138.026 154.384 139.302 154.384 139.698 154.384C140.424 154.384 140.556 153.944 140.644 150.842C141.194 151.304 142.36 151.744 143.064 151.92C142.8 155.858 142.118 156.892 139.94 156.892C139.434 156.892 137.784 156.892 137.3 156.892C134.814 156.892 134.198 156.056 134.198 153.57V147.542ZM128.346 147.63H131.14C130.81 152.228 129.842 155.352 123.836 157.024C123.55 156.32 122.868 155.242 122.296 154.714C127.532 153.46 128.06 151.172 128.346 147.63ZM134.594 142.35L136.794 141.052C138.708 142.702 141.128 145.056 142.25 146.728L139.852 148.224C138.862 146.574 136.552 144.088 134.594 142.35ZM128.962 140.172L131.866 140.986C130.898 142.9 129.754 144.99 128.852 146.332L126.63 145.562C127.466 144.088 128.456 141.844 128.962 140.172ZM123.726 144.506C127.708 144.418 133.89 144.22 139.566 144.044L139.456 146.486C133.89 146.816 127.84 147.08 123.814 147.212L123.726 144.506ZM123.022 138.676H142.338V141.162H123.022V138.676ZM131.272 136.322H133.978V140.062H131.272V136.322ZM154.614 136.344H157.32V139.864H154.614V136.344ZM146.562 138.258H165.416V142.988H162.688V140.568H149.18V142.988H146.562V138.258ZM148.52 142.306H163.634V144.44H148.52V142.306ZM146.386 149.28H165.724V151.568H146.386V149.28ZM148.872 145.76H163.194V147.894H148.872V145.76ZM157.298 149.742C158.596 152.646 161.456 154.252 166.032 154.736C165.482 155.286 164.8 156.342 164.47 157.046C159.432 156.232 156.616 154.142 154.922 150.226L157.298 149.742ZM154.548 141.052H157.21V147.168C157.21 151.04 155.604 154.824 147.596 156.98C147.31 156.408 146.54 155.396 145.968 154.846C153.58 153.108 154.548 150.094 154.548 147.146V141.052ZM173.82 142.504H189.11V144.594H173.82V142.504ZM173.996 148.928H186.074V150.996H173.996V148.928ZM176.812 141.052H179.298V146.046H183.324V141.052H185.92V148.048H176.812V141.052ZM185.392 148.928H185.898L186.36 148.818L188.01 149.654C185.634 154.428 180.31 156.254 174.128 157.024C173.93 156.364 173.446 155.374 173.028 154.824C178.66 154.34 183.61 152.778 185.392 149.258V148.928ZM178.506 150.534C180.486 152.998 184.6 154.34 189.66 154.78C189.11 155.33 188.45 156.386 188.12 157.046C182.774 156.386 178.704 154.626 176.24 151.348L178.506 150.534ZM178.638 136.322H181.388V139.622H178.638V136.322ZM172.038 138.302H189.22V140.656H172.038V138.302ZM170.74 138.302H173.27V144.506C173.27 148.092 172.94 153.504 170.938 156.914C170.476 156.474 169.376 155.748 168.76 155.462C170.608 152.338 170.74 147.74 170.74 144.506V138.302ZM134.461 176.561C133.252 174.611 132.537 172.531 132.537 169.97C132.537 167.422 133.252 165.316 134.461 163.366L135.189 163.717C134.071 165.563 133.525 167.76 133.525 169.97C133.525 172.18 134.071 174.377 135.189 176.223L134.461 176.561ZM137.358 168.436H148.72V169.528H137.358V168.436ZM137.215 173.805H148.837V174.975H137.215V173.805ZM140.296 170.971V171.686H145.639V170.971H140.296ZM138.775 169.97H147.251V172.687H138.775V169.97ZM139.867 172.817L141.206 172.427C141.492 172.804 141.791 173.337 141.908 173.714L140.504 174.182C140.413 173.792 140.127 173.233 139.867 172.817ZM144.781 172.336L146.146 172.804C145.821 173.337 145.522 173.831 145.262 174.182L144.027 173.74C144.274 173.363 144.612 172.752 144.781 172.336ZM139.659 166.395V166.967H146.185V166.395H139.659ZM139.659 164.874V165.433H146.185V164.874H139.659ZM138.229 163.847H147.693V167.994H138.229V163.847ZM140.92 162.95H142.233V167.617H140.92V162.95ZM143.559 162.95H144.898V167.617H143.559V162.95ZM155.974 170.763H157.508V174.104H155.974V170.763ZM153.257 165.602H160.329V166.642H153.257V165.602ZM154.466 168.163V168.839H159.094V168.163H154.466ZM153.036 167.149H160.615V169.853H153.036V167.149ZM152.152 170.334H161.499V175.131H159.965V171.465H153.621V175.157H152.152V170.334ZM152.945 172.089H160.641V173.064H152.945V172.089ZM152.945 173.74H160.628V174.858H152.945V173.74ZM155.961 162.963H157.573V164.718H155.961V162.963ZM151.242 163.704H162.396V166.564H160.849V165.017H152.724V166.564H151.242V163.704ZM169.991 164.783C169.9 164.484 169.744 164.016 169.588 163.587L171.343 163.379C171.538 164.38 171.85 165.407 172.162 166.239C172.565 167.331 173.176 168.449 173.605 169.047C173.826 169.372 174.06 169.645 174.294 169.918L173.501 171.075C172.773 170.932 171.122 170.763 170.03 170.672L170.16 169.294C170.797 169.359 171.655 169.424 172.058 169.463C171.59 168.696 171.018 167.604 170.615 166.525C170.329 165.81 170.147 165.212 169.991 164.783ZM165.259 165.394C167.69 165.68 169.666 165.667 171.226 165.498C172.383 165.355 173.527 165.134 174.554 164.822L174.749 166.447C173.891 166.694 172.773 166.889 171.733 167.006C170.004 167.214 167.95 167.266 165.285 167.045L165.259 165.394ZM167.872 169.814C167.443 170.438 167.235 171.01 167.235 171.569C167.235 172.674 168.21 173.129 169.991 173.142C171.408 173.142 172.552 172.999 173.462 172.817L173.371 174.468C172.63 174.598 171.46 174.767 169.887 174.767C167.222 174.767 165.558 173.74 165.558 171.855C165.558 171.062 165.805 170.321 166.247 169.437L167.872 169.814ZM177.541 176.561L176.8 176.223C177.918 174.377 178.464 172.18 178.464 169.97C178.464 167.76 177.918 165.563 176.8 163.717L177.541 163.366C178.737 165.316 179.452 167.422 179.452 169.97C179.452 172.531 178.737 174.611 177.541 176.561Z" fill="#4A3E42"/>
<path d="M232.03 220.74H240.04V221.52H232.03V220.74ZM231.48 223.34H240.53V224.12H231.48V223.34ZM234.54 221.07H235.42V223.77H234.54V221.07ZM236.46 221.07H237.36V223.77H236.46V221.07ZM232.5 221.86L233.27 221.57C233.62 222.03 233.94 222.66 234.06 223.1L233.24 223.42C233.13 222.99 232.83 222.34 232.5 221.86ZM233.24 219.85L234.07 219.54C234.38 219.85 234.67 220.29 234.8 220.61L233.93 220.98C233.82 220.66 233.52 220.18 233.24 219.85ZM238.66 221.53L239.52 221.8C239.22 222.36 238.86 222.96 238.57 223.35L237.83 223.11C238.11 222.68 238.47 222.01 238.66 221.53ZM237.78 219.54L238.72 219.82C238.45 220.23 238.16 220.62 237.93 220.88L237.08 220.61C237.32 220.32 237.62 219.86 237.78 219.54ZM232.93 224.66H239.11V228.8H238.1V225.39H233.89V228.84H232.93V224.66ZM233.47 226.21H238.54V226.93H233.47V226.21ZM233.48 227.77H238.55V228.51H233.48V227.77ZM243.65 223.49V227.09H242.75V224.37H241.37V223.49H243.65ZM243.65 226.71C244.1 227.43 244.89 227.74 246 227.78C247.14 227.83 249.48 227.8 250.76 227.71C250.65 227.93 250.51 228.36 250.46 228.64C249.29 228.69 247.16 228.71 245.99 228.66C244.73 228.61 243.87 228.29 243.26 227.5C242.77 227.92 242.26 228.33 241.69 228.76L241.24 227.82C241.73 227.53 242.32 227.12 242.83 226.71H243.65ZM241.53 220.38L242.18 219.78C242.82 220.22 243.58 220.88 243.92 221.37L243.21 222.04C242.89 221.55 242.15 220.85 241.53 220.38ZM245.55 221.36L246.15 220.84C247.07 221.16 248.33 221.7 249 222.1L248.36 222.68C247.74 222.29 246.5 221.72 245.55 221.36ZM244.62 222.07H249.75V222.78H245.51V227.25H244.62V222.07ZM249.31 222.07H250.21V226.38C250.21 226.8 250.13 227.01 249.84 227.14C249.56 227.28 249.13 227.28 248.49 227.28C248.45 227.05 248.34 226.73 248.24 226.52C248.64 226.54 249.03 226.53 249.15 226.53C249.27 226.53 249.31 226.49 249.31 226.37V222.07ZM244.66 219.94H249.55V220.68H244.66V219.94ZM245.11 223.51H249.64V224.19H245.11V223.51ZM245.11 224.95H249.64V225.66H245.11V224.95ZM246.96 222.39H247.81V227.21H246.96V222.39ZM249.22 219.94H249.44L249.63 219.89L250.2 220.35C249.51 220.99 248.51 221.65 247.59 222.06C247.48 221.9 247.25 221.65 247.11 221.52C247.9 221.18 248.8 220.58 249.22 220.11V219.94Z" fill="#4A3E42"/>
<path d="M273.767 228V220.837H271.921V219.862C272.268 219.836 272.58 219.797 272.857 219.745C273.135 219.684 273.382 219.585 273.598 219.446C273.815 219.299 274.006 219.086 274.17 218.809H275.145V228H273.767ZM278.201 228.13C277.941 228.13 277.725 228.048 277.551 227.883C277.387 227.718 277.304 227.502 277.304 227.233C277.304 226.964 277.391 226.748 277.564 226.583C277.738 226.41 277.95 226.323 278.201 226.323C278.453 226.323 278.661 226.41 278.825 226.583C278.999 226.748 279.085 226.964 279.085 227.233C279.085 227.502 278.999 227.718 278.825 227.883C278.661 228.048 278.453 228.13 278.201 228.13ZM283.943 228.104C283.519 228.104 283.107 228.056 282.708 227.961C282.31 227.866 281.95 227.714 281.629 227.506C281.317 227.289 281.066 227.008 280.875 226.661C280.685 226.314 280.589 225.89 280.589 225.387C280.589 225.04 280.646 224.728 280.758 224.451C280.871 224.165 281.036 223.918 281.252 223.71C281.478 223.502 281.738 223.337 282.032 223.216C281.729 223.051 281.491 222.856 281.317 222.631C281.144 222.397 281.027 222.15 280.966 221.89C280.906 221.63 280.875 221.383 280.875 221.149C280.875 220.707 280.962 220.334 281.135 220.031C281.309 219.719 281.543 219.468 281.837 219.277C282.132 219.078 282.461 218.935 282.825 218.848C283.189 218.753 283.566 218.705 283.956 218.705C284.338 218.705 284.71 218.753 285.074 218.848C285.438 218.935 285.768 219.078 286.062 219.277C286.357 219.476 286.591 219.732 286.764 220.044C286.938 220.356 287.024 220.733 287.024 221.175C287.024 221.4 286.99 221.639 286.92 221.89C286.86 222.141 286.743 222.38 286.569 222.605C286.396 222.83 286.153 223.021 285.841 223.177C286.153 223.298 286.418 223.467 286.634 223.684C286.86 223.901 287.029 224.152 287.141 224.438C287.254 224.724 287.31 225.045 287.31 225.4C287.31 225.894 287.215 226.314 287.024 226.661C286.834 227.008 286.574 227.289 286.244 227.506C285.924 227.714 285.564 227.866 285.165 227.961C284.775 228.056 284.368 228.104 283.943 228.104ZM283.943 226.856C284.151 226.856 284.368 226.834 284.593 226.791C284.819 226.748 285.031 226.674 285.23 226.57C285.43 226.457 285.59 226.306 285.711 226.115C285.841 225.916 285.906 225.669 285.906 225.374C285.906 225.01 285.815 224.724 285.633 224.516C285.451 224.299 285.209 224.143 284.905 224.048C284.611 223.944 284.29 223.892 283.943 223.892C283.605 223.892 283.285 223.944 282.981 224.048C282.687 224.143 282.444 224.299 282.253 224.516C282.071 224.724 281.98 225.01 281.98 225.374C281.98 225.669 282.041 225.916 282.162 226.115C282.292 226.306 282.457 226.457 282.656 226.57C282.864 226.674 283.081 226.748 283.306 226.791C283.532 226.834 283.744 226.856 283.943 226.856ZM283.956 222.748C284.268 222.748 284.546 222.696 284.788 222.592C285.04 222.488 285.243 222.336 285.399 222.137C285.555 221.929 285.633 221.678 285.633 221.383C285.642 221.036 285.568 220.759 285.412 220.551C285.256 220.334 285.048 220.178 284.788 220.083C284.537 219.979 284.255 219.927 283.943 219.927C283.623 219.927 283.332 219.979 283.072 220.083C282.821 220.178 282.622 220.33 282.474 220.538C282.336 220.746 282.266 221.01 282.266 221.331C282.266 221.652 282.344 221.92 282.5 222.137C282.656 222.345 282.86 222.501 283.111 222.605C283.371 222.7 283.653 222.748 283.956 222.748Z" fill="#4A3E42"/>
<path d="M288.973 228L292.081 223.051H292.823L289.729 228H288.973ZM292.368 228.042C292.139 228.042 291.943 227.993 291.78 227.895C291.621 227.797 291.498 227.664 291.409 227.496C291.325 227.323 291.283 227.127 291.283 226.908C291.283 226.679 291.325 226.481 291.409 226.313C291.498 226.145 291.624 226.014 291.787 225.921C291.95 225.823 292.144 225.774 292.368 225.774C292.592 225.774 292.783 225.821 292.942 225.914C293.101 226.007 293.222 226.14 293.306 226.313C293.39 226.481 293.432 226.677 293.432 226.901C293.432 227.12 293.388 227.316 293.299 227.489C293.215 227.662 293.094 227.797 292.935 227.895C292.776 227.993 292.587 228.042 292.368 228.042ZM292.361 227.468C292.478 227.468 292.571 227.442 292.641 227.391C292.711 227.34 292.76 227.27 292.788 227.181C292.821 227.092 292.837 227.001 292.837 226.908C292.837 226.815 292.821 226.726 292.788 226.642C292.76 226.553 292.711 226.483 292.641 226.432C292.571 226.381 292.478 226.355 292.361 226.355C292.184 226.355 292.058 226.413 291.983 226.53C291.908 226.642 291.871 226.768 291.871 226.908C291.871 227.057 291.908 227.188 291.983 227.3C292.062 227.412 292.188 227.468 292.361 227.468ZM289.463 225.263C289.234 225.263 289.038 225.214 288.875 225.116C288.716 225.018 288.595 224.885 288.511 224.717C288.427 224.544 288.385 224.348 288.385 224.129C288.385 223.9 288.427 223.702 288.511 223.534C288.595 223.366 288.719 223.235 288.882 223.142C289.045 223.044 289.241 222.995 289.47 222.995C289.694 222.995 289.885 223.042 290.044 223.135C290.203 223.228 290.324 223.361 290.408 223.534C290.492 223.702 290.534 223.898 290.534 224.122C290.534 224.341 290.492 224.537 290.408 224.71C290.324 224.883 290.2 225.018 290.037 225.116C289.878 225.214 289.687 225.263 289.463 225.263ZM289.463 224.689C289.58 224.689 289.671 224.663 289.736 224.612C289.806 224.556 289.857 224.486 289.89 224.402C289.923 224.313 289.939 224.222 289.939 224.129C289.939 224.031 289.923 223.94 289.89 223.856C289.857 223.772 289.806 223.704 289.736 223.653C289.671 223.597 289.58 223.569 289.463 223.569C289.286 223.569 289.157 223.627 289.078 223.744C289.003 223.856 288.966 223.984 288.966 224.129C288.966 224.278 289.003 224.409 289.078 224.521C289.157 224.633 289.286 224.689 289.463 224.689Z" fill="#4A3E42"/>
<path d="M255 224L267 224" stroke="#4A3E42" stroke-dasharray="1 3"/>
<path d="M177.291 257.359H191.574V259.751H177.291V257.359ZM176.578 261.453H192.241V263.868H176.578V261.453ZM181.431 271.297H187.296V273.298H181.431V271.297ZM180.235 255.473H182.811V263.5H180.235V255.473ZM185.893 255.473H188.561V263.5H185.893V255.473ZM180.649 268.583H182.282V274.655H180.649V268.583ZM186.468 268.583H188.055V274.08H186.468V268.583ZM189.113 265.248H191.689V274.448C191.689 275.621 191.482 276.265 190.7 276.656C189.918 277.001 188.791 277.024 187.25 277.024C187.158 276.357 186.882 275.391 186.583 274.724C187.48 274.77 188.446 274.77 188.745 274.77C189.021 274.77 189.113 274.678 189.113 274.402V265.248ZM177.245 265.248H190.079V267.64H179.683V277.047H177.245V265.248ZM171.679 257.658L173.312 255.68C174.669 256.278 176.417 257.313 177.291 258.118L175.566 260.303C174.784 259.475 173.059 258.325 171.679 257.658ZM170.575 264.006L172.047 261.913C173.427 262.373 175.29 263.224 176.233 263.96L174.669 266.283C173.818 265.547 172.001 264.581 170.575 264.006ZM171.15 275.161C172.208 273.39 173.703 270.492 174.876 267.778L177.038 269.434C176.026 271.895 174.807 274.563 173.634 276.817L171.15 275.161ZM183.018 263.132H185.64V267.065H185.341V272.677H183.317V267.065H183.018V263.132ZM204.96 267.686H214.091V270.262H204.96V267.686ZM200.222 268.997C201.901 273.39 205.696 274.218 210.135 274.218C211.147 274.241 214.551 274.218 215.839 274.172C215.448 274.816 215.034 276.081 214.896 276.863H209.974C204.362 276.863 200.268 275.621 197.968 269.848L200.222 268.997ZM203.718 264.19H206.57V275.529L203.718 274.632V264.19ZM199.808 259.084V262.235H210.434V259.084H199.808ZM197.071 256.462H213.355V264.857H197.071V256.462ZM198.06 266.237L200.958 266.582C200.314 270.4 199.026 274.701 196.197 277.001C195.737 276.449 194.817 275.552 194.242 275.138C196.703 273.16 197.738 269.411 198.06 266.237Z" fill="#4A3E42"/>
<path d="M221.54 270.15L221.115 260.15L221.04 257.15H223.94L223.865 260.15L223.465 270.15H221.54ZM222.49 276.35C221.415 276.35 220.565 275.5 220.565 274.325C220.565 273.125 221.415 272.3 222.49 272.3C223.59 272.3 224.415 273.125 224.415 274.325C224.415 275.5 223.59 276.35 222.49 276.35Z" fill="#4A3E42"/>
<rect x="86" y="266" width="67" height="14" fill="#FFED9A"/>
<path d="M160.81 264.27C160.72 264.66 160.63 265.14 160.555 265.515C160.405 266.19 160.225 267.12 160.06 267.885C159.565 270 158.365 274.275 156.79 276.81L154.825 276.03C156.61 273.63 157.735 269.67 158.155 267.78C158.44 266.43 158.605 265.155 158.59 264.03L160.81 264.27ZM165.985 265.77C166.9 267.075 168.16 269.865 168.625 271.29L166.72 272.175C166.33 270.51 165.265 267.87 164.185 266.535L165.985 265.77ZM154.735 267.345C155.275 267.375 155.785 267.36 156.34 267.345C157.54 267.315 160.39 266.985 161.5 266.985C163.09 266.985 164.215 267.69 164.215 269.865C164.215 271.635 163.99 274.065 163.36 275.355C162.865 276.405 162.025 276.735 160.9 276.735C160.315 276.735 159.61 276.645 159.1 276.525L158.77 274.545C159.355 274.71 160.21 274.86 160.6 274.86C161.11 274.86 161.5 274.71 161.725 274.215C162.145 273.375 162.34 271.545 162.34 270.075C162.34 268.875 161.83 268.695 160.885 268.695C160 268.695 157.405 269.025 156.58 269.13C156.145 269.19 155.365 269.295 154.915 269.37L154.735 267.345ZM165.715 263.7C166.09 264.24 166.615 265.2 166.9 265.755L165.7 266.265C165.385 265.65 164.92 264.765 164.515 264.18L165.715 263.7ZM167.485 263.01C167.875 263.58 168.43 264.54 168.7 265.065L167.5 265.575C167.2 264.945 166.705 264.075 166.3 263.505L167.485 263.01Z" fill="#4A3E42"/>
<path d="M138.745 276.5L147.485 263.048H150.221L141.519 276.5H138.745ZM148.796 276.633C148.15 276.633 147.58 276.5 147.086 276.234C146.605 275.955 146.225 275.569 145.946 275.075C145.68 274.581 145.547 273.998 145.547 273.327C145.547 272.656 145.687 272.073 145.965 271.579C146.244 271.085 146.63 270.705 147.124 270.439C147.618 270.16 148.188 270.021 148.834 270.021C149.468 270.021 150.025 270.154 150.506 270.42C150.988 270.686 151.361 271.066 151.627 271.56C151.893 272.041 152.026 272.624 152.026 273.308C152.026 273.979 151.887 274.568 151.608 275.075C151.342 275.569 150.962 275.955 150.468 276.234C149.987 276.5 149.43 276.633 148.796 276.633ZM148.796 274.638C149.075 274.638 149.303 274.581 149.48 274.467C149.658 274.34 149.784 274.176 149.86 273.973C149.949 273.77 149.993 273.561 149.993 273.346C149.993 273.131 149.949 272.928 149.86 272.738C149.784 272.535 149.658 272.371 149.48 272.244C149.303 272.117 149.075 272.054 148.796 272.054C148.353 272.054 148.036 272.193 147.846 272.472C147.656 272.738 147.561 273.036 147.561 273.365C147.574 273.694 147.675 273.992 147.865 274.258C148.055 274.511 148.366 274.638 148.796 274.638ZM140.227 269.508C139.569 269.508 138.999 269.375 138.517 269.109C138.036 268.83 137.656 268.444 137.377 267.95C137.111 267.456 136.978 266.88 136.978 266.221C136.978 265.537 137.111 264.948 137.377 264.454C137.656 263.96 138.042 263.58 138.536 263.314C139.03 263.035 139.6 262.896 140.246 262.896C140.892 262.896 141.45 263.029 141.918 263.295C142.4 263.561 142.773 263.941 143.039 264.435C143.305 264.916 143.438 265.499 143.438 266.183C143.438 266.854 143.305 267.443 143.039 267.95C142.773 268.444 142.393 268.83 141.899 269.109C141.418 269.375 140.861 269.508 140.227 269.508ZM140.227 267.494C140.506 267.494 140.734 267.437 140.911 267.323C141.089 267.196 141.215 267.038 141.291 266.848C141.367 266.645 141.405 266.43 141.405 266.202C141.405 265.987 141.361 265.784 141.272 265.594C141.196 265.391 141.07 265.227 140.892 265.1C140.728 264.973 140.506 264.91 140.227 264.91C139.784 264.91 139.461 265.049 139.258 265.328C139.068 265.594 138.98 265.898 138.992 266.24C138.992 266.569 139.087 266.861 139.277 267.114C139.48 267.367 139.797 267.494 140.227 267.494Z" fill="#119EED"/>
<path d="M98.6363 277.32C97.0096 277.32 95.5029 277.053 94.1162 276.52C92.7296 275.96 91.5562 275.107 90.5962 273.96C89.6629 272.813 89.0629 271.373 88.7962 269.64H94.3962C94.6896 270.44 95.2629 271.053 96.1162 271.48C96.9696 271.88 97.8762 272.08 98.8363 272.08C99.9296 272.08 100.85 271.867 101.596 271.44C102.37 270.987 102.983 270.4 103.436 269.68C103.89 268.933 104.223 268.12 104.436 267.24C104.65 266.333 104.77 265.413 104.796 264.48C104.796 264.373 104.796 264.267 104.796 264.16C104.796 264.027 104.796 263.907 104.796 263.8C104.21 264.653 103.503 265.32 102.676 265.8C101.85 266.28 100.996 266.613 100.116 266.8C99.2362 266.987 98.3962 267.08 97.5962 267.08C95.9162 267.08 94.3962 266.733 93.0362 266.04C91.6762 265.32 90.5962 264.293 89.7962 262.96C89.0229 261.627 88.6362 260.013 88.6362 258.12C88.6362 256.013 89.1162 254.24 90.0762 252.8C91.0362 251.333 92.3029 250.227 93.8762 249.48C95.4762 248.733 97.2229 248.36 99.1163 248.36C101.196 248.36 102.943 248.773 104.356 249.6C105.77 250.427 106.89 251.547 107.716 252.96C108.543 254.373 109.13 255.947 109.476 257.68C109.85 259.413 110.036 261.187 110.036 263C110.036 264.973 109.823 266.827 109.396 268.56C108.996 270.267 108.343 271.787 107.436 273.12C106.556 274.427 105.383 275.453 103.916 276.2C102.476 276.947 100.716 277.32 98.6363 277.32ZM98.8762 262.28C99.9162 262.28 100.77 262.067 101.436 261.64C102.13 261.213 102.65 260.68 102.996 260.04C103.37 259.373 103.556 258.68 103.556 257.96C103.556 257.053 103.343 256.28 102.916 255.64C102.516 254.973 101.97 254.467 101.276 254.12C100.61 253.747 99.8362 253.56 98.9562 253.56C97.9962 253.56 97.1696 253.76 96.4762 254.16C95.7829 254.56 95.2496 255.093 94.8762 255.76C94.5029 256.427 94.3162 257.147 94.3162 257.92C94.3162 259.147 94.7029 260.187 95.4762 261.04C96.2762 261.867 97.4096 262.28 98.8762 262.28ZM123.44 277.32C122.107 277.32 120.813 277.173 119.56 276.88C118.307 276.56 117.16 276.067 116.12 275.4C115.107 274.707 114.293 273.8 113.68 272.68C113.093 271.56 112.8 270.213 112.8 268.64C112.8 267.6 112.947 266.667 113.24 265.84C113.56 264.987 114.013 264.24 114.6 263.6C115.213 262.933 115.947 262.4 116.8 262C116.08 261.547 115.493 261.013 115.04 260.4C114.587 259.76 114.253 259.067 114.04 258.32C113.827 257.573 113.72 256.813 113.72 256.04C113.72 254.627 114 253.44 114.56 252.48C115.12 251.493 115.867 250.707 116.8 250.12C117.733 249.507 118.787 249.067 119.96 248.8C121.133 248.507 122.32 248.36 123.52 248.36C124.747 248.36 125.933 248.507 127.08 248.8C128.227 249.067 129.267 249.52 130.2 250.16C131.133 250.773 131.88 251.587 132.44 252.6C133 253.587 133.28 254.787 133.28 256.2C133.28 256.92 133.16 257.653 132.92 258.4C132.707 259.12 132.36 259.787 131.88 260.4C131.427 261.013 130.84 261.533 130.12 261.96C130.973 262.333 131.707 262.84 132.32 263.48C132.933 264.12 133.4 264.88 133.72 265.76C134.04 266.64 134.2 267.627 134.2 268.72C134.2 270.293 133.893 271.627 133.28 272.72C132.667 273.813 131.84 274.707 130.8 275.4C129.76 276.067 128.6 276.56 127.32 276.88C126.067 277.173 124.773 277.32 123.44 277.32ZM123.48 272.16C124.067 272.16 124.653 272.093 125.24 271.96C125.827 271.827 126.36 271.613 126.84 271.32C127.32 271 127.693 270.613 127.96 270.16C128.253 269.68 128.4 269.093 128.4 268.4C128.4 267.547 128.187 266.853 127.76 266.32C127.333 265.76 126.747 265.347 126 265.08C125.28 264.787 124.44 264.64 123.48 264.64C122.547 264.64 121.693 264.787 120.92 265.08C120.173 265.347 119.587 265.76 119.16 266.32C118.733 266.853 118.52 267.547 118.52 268.4C118.52 269.093 118.667 269.68 118.96 270.16C119.253 270.613 119.627 271 120.08 271.32C120.56 271.613 121.093 271.827 121.68 271.96C122.267 272.093 122.867 272.16 123.48 272.16ZM123.52 260.28C124.373 260.28 125.093 260.147 125.68 259.88C126.293 259.587 126.76 259.187 127.08 258.68C127.427 258.147 127.6 257.56 127.6 256.92C127.6 256.12 127.427 255.467 127.08 254.96C126.733 254.427 126.24 254.027 125.6 253.76C124.987 253.467 124.253 253.32 123.4 253.32C122.573 253.32 121.853 253.467 121.24 253.76C120.653 254.027 120.187 254.413 119.84 254.92C119.52 255.427 119.36 256.04 119.36 256.76C119.36 257.48 119.533 258.107 119.88 258.64C120.227 259.173 120.707 259.587 121.32 259.88C121.96 260.147 122.693 260.28 123.52 260.28Z" fill="#119EED"/>
</svg>
