<svg width="124" height="130" viewBox="0 0 124 130" fill="none" xmlns="http://www.w3.org/2000/svg">
<path d="M124 62C124 96.2417 96.2417 124 62 124C27.7583 124 0 96.2417 0 62C0 27.7583 27.7583 0 62 0C96.2417 0 124 27.7583 124 62Z" fill="white"/>
<path d="M78.5 130L65 122L75 122L78.5 130Z" fill="white"/>
<path d="M42.741 74.2722C40.973 74.2722 39.477 73.9549 38.253 73.3202C37.029 72.6856 36.0316 71.8129 35.261 70.7022C34.4903 69.5689 33.935 68.2656 33.595 66.7922C33.255 65.2962 33.085 63.7096 33.085 62.0322C33.085 60.3096 33.255 58.7003 33.595 57.2043C33.9576 55.7083 34.5243 54.3936 35.295 53.2603C36.0883 52.1269 37.097 51.2429 38.321 50.6082C39.5676 49.9736 41.0636 49.6562 42.809 49.6562C44.6223 49.6562 46.141 49.9849 47.365 50.6422C48.6116 51.2996 49.609 52.2176 50.357 53.3963C51.1276 54.5523 51.6716 55.8669 51.989 57.3403C52.329 58.8136 52.499 60.3549 52.499 61.9643C52.499 63.6189 52.329 65.1829 51.989 66.6562C51.649 68.1296 51.105 69.4443 50.357 70.6003C49.609 71.7336 48.6116 72.6289 47.365 73.2862C46.1183 73.9436 44.577 74.2722 42.741 74.2722ZM42.741 69.7843C43.8516 69.7843 44.7243 69.5349 45.359 69.0362C46.0163 68.5149 46.5036 67.8462 46.821 67.0302C47.161 66.2142 47.3763 65.3643 47.467 64.4803C47.5803 63.5736 47.637 62.7349 47.637 61.9643C47.637 61.2389 47.5803 60.4343 47.467 59.5503C47.3763 58.6436 47.1723 57.7936 46.855 57.0003C46.5376 56.1843 46.0616 55.5156 45.427 54.9943C44.7923 54.4729 43.931 54.2123 42.843 54.2123C41.755 54.2123 40.8823 54.4729 40.225 54.9943C39.5676 55.4929 39.069 56.1503 38.729 56.9662C38.4116 57.7822 38.1963 58.6322 38.083 59.5162C37.9696 60.4002 37.913 61.2163 37.913 61.9643C37.913 62.7123 37.9583 63.5396 38.049 64.4462C38.1623 65.3529 38.3776 66.2142 38.695 67.0302C39.0123 67.8462 39.4883 68.5149 40.123 69.0362C40.7803 69.5349 41.653 69.7843 42.741 69.7843Z" fill="#E5005A"/>
<path d="M22.3313 74.2383C21.1753 74.2383 20.0647 74.1022 18.9993 73.8302C17.934 73.5582 16.9593 73.1276 16.0753 72.5382C15.1913 71.9489 14.4547 71.2009 13.8653 70.2943C13.276 69.3649 12.9133 68.2543 12.7773 66.9622H17.6053C17.764 67.5969 18.07 68.1296 18.5233 68.5602C18.9993 68.9682 19.566 69.2629 20.2233 69.4443C20.9033 69.6256 21.6173 69.7162 22.3653 69.7162C22.864 69.7162 23.3513 69.6709 23.8273 69.5802C24.326 69.4896 24.768 69.3309 25.1533 69.1042C25.5613 68.8776 25.8787 68.5716 26.1053 68.1863C26.332 67.8009 26.4453 67.3136 26.4453 66.7242C26.4453 66.1802 26.3433 65.7269 26.1393 65.3643C25.9353 65.0016 25.6633 64.7069 25.3233 64.4803C24.9833 64.2536 24.5753 64.0949 24.0993 64.0043C23.646 63.9136 23.1587 63.8683 22.6373 63.8683H19.8493V59.7203H21.7193C22.3087 59.7203 22.8413 59.6636 23.3173 59.5503C23.7933 59.4142 24.19 59.2329 24.5073 59.0063C24.8473 58.7569 25.108 58.4623 25.2893 58.1223C25.4707 57.7596 25.5613 57.3516 25.5613 56.8983C25.5613 56.2182 25.414 55.6856 25.1193 55.3003C24.8247 54.8923 24.4167 54.5976 23.8953 54.4162C23.374 54.2349 22.7733 54.1442 22.0933 54.1442C21.4587 54.1442 20.858 54.2462 20.2913 54.4502C19.7473 54.6316 19.294 54.9036 18.9313 55.2663C18.5687 55.6289 18.3307 56.0709 18.2173 56.5922H13.4913C13.6273 55.3682 13.956 54.3256 14.4773 53.4642C14.9987 52.5803 15.6673 51.8549 16.4833 51.2882C17.2993 50.7216 18.206 50.3136 19.2033 50.0642C20.2233 49.7922 21.2773 49.6562 22.3653 49.6562C23.408 49.6562 24.4053 49.7696 25.3573 49.9962C26.3093 50.2229 27.1593 50.5969 27.9073 51.1182C28.678 51.6169 29.29 52.2856 29.7433 53.1242C30.1967 53.9629 30.4233 54.9716 30.4233 56.1502C30.4233 56.8756 30.2987 57.5556 30.0493 58.1902C29.8227 58.8249 29.4827 59.3916 29.0293 59.8903C28.5987 60.3663 28.0887 60.7629 27.4993 61.0802C28.3833 61.3296 29.1087 61.7376 29.6753 62.3043C30.242 62.8709 30.6613 63.5396 30.9333 64.3103C31.228 65.0809 31.3753 65.9082 31.3753 66.7922C31.3753 68.2429 31.1033 69.4556 30.5593 70.4303C30.038 71.3823 29.3353 72.1416 28.4513 72.7083C27.5673 73.2523 26.5927 73.6489 25.5273 73.8983C24.462 74.1249 23.3967 74.2383 22.3313 74.2383Z" fill="#E5005A"/>
<path d="M98.6777 61.4856C99.2777 61.4706 99.9377 61.4406 100.223 61.4106C101.633 61.2906 103.898 61.1106 106.643 60.8706C108.143 60.7506 109.913 60.6456 111.008 60.6006L111.023 62.9406C110.243 62.9556 108.968 62.9556 108.143 63.1206C106.523 63.4806 105.128 65.2356 105.128 67.0206C105.128 69.2256 107.198 70.0956 109.793 70.2456L108.938 72.7656C105.593 72.5106 102.728 70.6956 102.728 67.5006C102.728 65.4456 103.823 63.8556 104.633 63.1206C103.343 63.2556 100.703 63.5556 98.9027 63.9606L98.6777 61.4856ZM108.893 64.2006C109.268 64.7556 109.793 65.6556 110.063 66.2106L108.728 66.7956C108.323 65.9256 108.068 65.4306 107.588 64.7406L108.893 64.2006ZM110.588 63.4806C110.978 64.0206 111.533 64.8906 111.833 65.4306L110.513 66.0606C110.078 65.2056 109.793 64.7406 109.298 64.0656L110.588 63.4806Z" fill="#4A3E42"/>
<path d="M93.0184 59.7451C92.9734 60.0601 92.9284 60.4801 92.9134 60.8401C92.8684 61.7101 92.8534 63.9001 92.8534 65.1601C92.8534 66.6301 93.1084 69.3901 93.1084 70.6801C93.1084 72.0901 91.9684 73.0501 89.9884 73.0501C87.4534 73.0501 86.1484 72.0451 86.1484 70.3801C86.1484 68.7751 87.5884 67.6351 89.9734 67.6351C93.3484 67.6351 95.7934 69.2101 97.0984 70.3051L95.7934 72.3301C94.3234 70.9201 92.1784 69.4951 89.6734 69.4951C88.8334 69.4951 88.3534 69.8251 88.3534 70.2451C88.3534 70.7401 88.8484 70.9951 89.6284 70.9951C90.3934 70.9951 90.8134 70.7851 90.8134 70.0201C90.8134 69.2701 90.6334 66.6901 90.6334 65.1601C90.6334 63.6751 90.6634 61.5751 90.6634 60.8401C90.6634 60.5551 90.6334 60.0751 90.5584 59.7451H93.0184ZM86.5234 61.0201C87.6484 61.2001 89.2834 61.3501 90.1534 61.3501C92.2684 61.3501 94.2184 61.2601 96.5434 60.8851L96.5284 62.9551C95.0884 63.1651 92.5684 63.3451 90.1684 63.3451C89.2684 63.3451 87.5884 63.2101 86.5684 63.0751L86.5234 61.0201ZM86.4334 64.2901C87.3634 64.4701 89.2684 64.5751 89.9584 64.5751C93.0634 64.5751 94.9684 64.3801 96.7534 64.1701L96.7384 66.3001C94.6384 66.5251 93.1084 66.6151 89.9284 66.6151C89.1334 66.6151 87.4084 66.5401 86.4634 66.4201L86.4334 64.2901Z" fill="#4A3E42"/>
<path d="M69.916 61.3205H83.701V63.2855H69.916V61.3205ZM71.821 66.5855H75.541V68.1605H71.821V66.5855ZM71.821 68.8355H75.541V70.4105H71.821V68.8355ZM77.866 64.3055H79.861V70.4555H77.866V64.3055ZM74.791 64.1405H76.891V71.3855C76.891 72.2555 76.726 72.7505 76.171 73.0505C75.616 73.3655 74.926 73.3955 74.041 73.3955C73.936 72.8555 73.636 72.0455 73.366 71.5655C73.801 71.5955 74.371 71.5955 74.551 71.5805C74.731 71.5805 74.791 71.5205 74.791 71.3555V64.1405ZM80.851 63.9155H82.996V71.1305C82.996 72.1355 82.816 72.6755 82.156 73.0055C81.511 73.3355 80.671 73.3955 79.606 73.3805C79.501 72.7955 79.156 71.8805 78.841 71.3255C79.516 71.3705 80.296 71.3705 80.536 71.3555C80.776 71.3555 80.851 71.2955 80.851 71.1005V63.9155ZM71.836 59.8805L73.921 59.1605C74.446 59.7155 75.031 60.4655 75.271 61.0355L73.051 61.8005C72.871 61.2755 72.331 60.4655 71.836 59.8805ZM79.531 59.1455L81.916 59.8355C81.286 60.8105 80.626 61.7405 80.116 62.3705L78.151 61.7105C78.646 61.0055 79.216 59.9555 79.531 59.1455ZM70.666 64.1405H75.376V65.9555H72.721V73.3355H70.666V64.1405Z" fill="#E5005A"/>
<path d="M56.9855 64.5903H64.8305V66.7053H56.9855V64.5903ZM64.1255 64.5903H66.4205C66.4205 64.5903 66.4055 65.2353 66.3905 65.5053C66.2555 70.0053 66.0905 71.8203 65.5805 72.4653C65.1455 73.0353 64.6955 73.2003 64.0805 73.3053C63.5555 73.3953 62.7155 73.3953 61.8605 73.3803C61.8305 72.7353 61.5305 71.7903 61.1405 71.1753C61.8905 71.2353 62.5955 71.2503 62.9705 71.2503C63.2255 71.2503 63.3905 71.2053 63.5705 71.0253C63.8855 70.6653 64.0205 68.9853 64.1255 64.9803V64.5903ZM58.4705 59.3103L60.8405 60.0003C59.7005 62.6553 57.8405 65.1753 55.9355 66.6903C55.5305 66.2103 54.5855 65.3253 54.0605 64.9203C55.9205 63.6903 57.5855 61.5753 58.4705 59.3103ZM64.4555 59.2803C65.3855 61.1253 67.2455 63.2553 68.8955 64.5903C68.3105 65.0553 67.4555 65.9553 67.0355 66.5703C65.3405 64.9053 63.5255 62.4753 62.2955 60.1353L64.4555 59.2803ZM59.3855 65.2203H61.7705C61.5155 68.6403 60.9455 71.7903 56.3105 73.5453C56.0405 72.9303 55.4105 72.0003 54.8855 71.5203C58.9655 70.1853 59.1755 67.7853 59.3855 65.2203Z" fill="#E5005A"/>
<path d="M24 88H101V100H24V88Z" fill="#FFED9A"/>
<path d="M82.8593 80.3467L85.4433 80.8737C84.8143 82.5227 84.0663 84.2057 83.4543 85.3107L81.2953 84.7667C81.8903 83.5767 82.5363 81.7577 82.8593 80.3467ZM80.4453 83.7637C82.3153 83.7127 85.1033 83.5767 87.7213 83.4577L87.7043 85.5997C85.2223 85.7867 82.6043 85.9567 80.6323 86.0927L80.4453 83.7637ZM81.4483 86.6537H86.8543V88.6597H83.7263V96.5987H81.4483V86.6537ZM85.6643 86.6537H88.1123V94.2187C88.1123 95.2217 87.9253 95.8167 87.2793 96.1737C86.6333 96.5477 85.8343 96.5817 84.8313 96.5817C84.7123 95.9357 84.3553 94.9837 84.0493 94.4057C84.5423 94.4397 85.1883 94.4397 85.3923 94.4227C85.5963 94.4227 85.6643 94.3717 85.6643 94.1677V86.6537ZM82.4683 89.2377H87.0753V91.0397H82.4683V89.2377ZM82.4683 91.7027H87.0753V93.5047H82.4683V91.7027ZM89.3023 80.5507H91.7673V85.3617C91.7673 85.9907 91.8523 86.0587 92.4133 86.0587C92.6513 86.0587 93.5183 86.0587 93.8073 86.0587C94.3003 86.0587 94.4023 85.8207 94.4703 84.4267C94.9633 84.8007 95.9833 85.1917 96.6463 85.3277C96.3913 87.6057 95.7453 88.2517 94.0453 88.2517C93.5863 88.2517 92.4643 88.2517 92.0393 88.2517C89.8293 88.2517 89.3023 87.5547 89.3023 85.3957V80.5507ZM94.3343 81.4177L95.8813 83.2027C94.3173 83.9677 92.3963 84.5967 90.7473 85.0387C90.6453 84.5627 90.3223 83.8147 90.0673 83.3557C91.5803 82.8627 93.2293 82.0977 94.3343 81.4177ZM89.3023 88.5237H91.7503V93.6577C91.7503 94.3037 91.8523 94.3717 92.4303 94.3717C92.6683 94.3717 93.5863 94.3717 93.8753 94.3717C94.4023 94.3717 94.5043 94.0657 94.5893 92.4337C95.0993 92.8077 96.0853 93.1817 96.7483 93.3347C96.4933 95.7997 95.8643 96.5137 94.1133 96.5137C93.6543 96.5137 92.4813 96.5137 92.0393 96.5137C89.8463 96.5137 89.3023 95.8167 89.3023 93.6747V88.5237ZM94.4193 89.1017L96.0343 90.9037C94.4193 91.7537 92.4303 92.4677 90.7133 92.9777C90.5943 92.5017 90.2543 91.7197 89.9993 91.2607C91.5803 90.7167 93.2803 89.8497 94.4193 89.1017ZM85.2733 82.3527L87.3813 81.5707C88.1803 82.8287 89.0303 84.4777 89.3193 85.6337L87.0413 86.5177C86.8033 85.4127 86.0383 83.6787 85.2733 82.3527Z" fill="#4A3E42"/>
<path d="M74.1209 82.2333H76.7219V93.6233C76.7219 95.0173 76.3989 95.7313 75.4979 96.1223C74.5629 96.5473 73.2879 96.5983 71.5029 96.5983C71.3669 95.8673 70.8569 94.6433 70.4659 93.9803C71.6049 94.0653 73.1519 94.0483 73.5599 94.0483C73.9679 94.0483 74.1209 93.9293 74.1209 93.5723V82.2333ZM64.5669 85.6333H66.9639V93.6743H64.5669V85.6333ZM65.5869 85.6333H71.9789V92.3993H65.5869V90.0533H69.5309V87.9793H65.5869V85.6333ZM63.0879 81.5703H78.6259V84.0693H63.0879V81.5703Z" fill="#4A3E42"/>
<path d="M52.8711 88.3872L54.8431 87.4012C55.6931 88.5572 56.6281 90.1042 56.9681 91.1922L54.8261 92.2972C54.5371 91.2432 53.6871 89.6112 52.8711 88.3872ZM53.7041 83.2532H59.6031V85.5822H53.7041V83.2532ZM58.5321 83.2532H60.9121C60.9121 83.2532 60.9121 84.0522 60.8951 84.3582C60.6741 91.7362 60.4701 94.4732 59.7561 95.4082C59.2291 96.1392 58.7191 96.3602 57.9541 96.4962C57.3081 96.6152 56.2711 96.6152 55.2681 96.5812C55.2341 95.8842 54.8941 94.7962 54.4351 94.0992C55.4721 94.1842 56.4241 94.1842 56.8831 94.1842C57.2231 94.1842 57.4101 94.1162 57.6141 93.8782C58.1581 93.3172 58.3621 90.4102 58.5321 83.7292V83.2532ZM53.5001 80.4482L56.0671 81.0092C55.3701 83.5762 54.1801 86.1262 52.8881 87.6902C52.4121 87.2652 51.3071 86.5172 50.6951 86.1772C51.9701 84.8682 52.9901 82.6582 53.5001 80.4482ZM47.5841 80.4822L49.7601 81.2302C49.0291 82.5902 48.2471 84.1032 47.5841 85.0552L45.9351 84.3922C46.5301 83.3382 47.2271 81.7062 47.5841 80.4822ZM49.6071 82.5392L51.6811 83.3892C50.3891 85.3612 48.7231 87.6902 47.3971 89.1182L45.9181 88.3702C47.2271 86.8232 48.7401 84.3752 49.6071 82.5392ZM45.0001 84.7662L46.1391 83.0492C47.0231 83.8142 48.0771 84.8852 48.5021 85.6502L47.2611 87.5882C46.8701 86.7722 45.8501 85.5992 45.0001 84.7662ZM49.2671 86.7212L50.9841 85.9732C51.6471 87.1292 52.2931 88.6252 52.4971 89.6282L50.6441 90.4782C50.4741 89.4922 49.8791 87.9112 49.2671 86.7212ZM45.0001 87.8942C46.6151 87.8432 48.9951 87.7412 51.3071 87.6222L51.2901 89.5602C49.1651 89.7472 46.9211 89.9002 45.2041 90.0192L45.0001 87.8942ZM49.4881 91.0902L51.2901 90.4952C51.7151 91.5152 52.1571 92.8242 52.3611 93.6912L50.4571 94.3882C50.3041 93.5042 49.8621 92.1272 49.4881 91.0902ZM45.6121 90.6142L47.6351 90.9712C47.4991 92.6032 47.1421 94.3372 46.6831 95.4252C46.2581 95.1532 45.3401 94.7282 44.8301 94.5412C45.2721 93.5552 45.5101 92.0252 45.6121 90.6142ZM47.6011 89.0332H49.7771V96.6152H47.6011V89.0332Z" fill="#4A3E42"/>
<path d="M34.3069 88.9318H36.8909V94.0488C36.8909 95.2728 36.6189 95.9018 35.7009 96.2418C34.7999 96.5818 33.6269 96.6158 32.1819 96.6158C32.0459 95.9188 31.6379 94.8818 31.2809 94.2358C32.1989 94.2868 33.5249 94.2868 33.8649 94.2868C34.2049 94.2698 34.3069 94.2188 34.3069 93.9638V88.9318ZM29.3939 81.4348H39.6619V83.6958H29.3939V81.4348ZM38.7269 81.4348H39.3899L39.9509 81.2988L41.7189 82.7098C40.2569 84.1378 38.3019 85.7698 36.4489 86.8068C36.1089 86.3138 35.3779 85.5488 34.9699 85.1578C36.3979 84.3418 38.0809 82.8628 38.7269 81.9618V81.4348ZM27.7109 87.0448H41.4129V89.3908H27.7109V87.0448ZM31.7909 85.9908L33.0149 84.1208C34.7999 84.6648 37.7919 85.6338 39.2879 86.2458L37.9789 88.3708C36.6019 87.7418 33.6949 86.6538 31.7909 85.9908ZM40.5969 87.0448H41.0559L41.4809 86.8748L43.5209 87.7418C42.8579 89.3908 41.8719 91.1418 40.9539 92.3658L38.8289 91.1418C39.4749 90.1728 40.2229 88.6598 40.5969 87.4358V87.0448Z" fill="#4A3E42"/>
<path d="M63.5381 29.6182H76.5341V45.4942H73.7081V32.2642H66.2381V45.4942H63.5381V29.6182ZM65.3921 35.5582H74.8781V38.1502H65.3921V35.5582ZM65.3921 41.6602H74.8781V44.3062H65.3921V41.6602Z" fill="#E5005A"/>
<path d="M50.5601 28.6104H53.4581V36.1524H50.5601V28.6104ZM44.7461 30.1944L47.1401 29.2764C48.0581 30.5184 48.9041 32.1744 49.2641 33.3264L46.7261 34.3884C46.4381 33.2364 45.5921 31.4724 44.7461 30.1944ZM56.5361 29.0964L59.4881 29.9244C58.6961 31.5984 57.7961 33.2904 57.0581 34.4244L54.7181 33.6324C55.4021 32.3904 56.1581 30.5544 56.5361 29.0964ZM45.2681 34.7844H59.1461V45.6924H56.3381V37.4124H45.2681V34.7844ZM45.8981 38.5284H57.3281V41.0484H45.8981V38.5284ZM44.8361 42.3804H57.8141V44.9904H44.8361V42.3804Z" fill="#E5005A"/>
</svg>
