<svg width="130" height="80" viewBox="0 0 130 80" fill="none" xmlns="http://www.w3.org/2000/svg">
<mask id="mask0_1509_24479" style="mask-type:alpha" maskUnits="userSpaceOnUse" x="0" y="0" width="130" height="80">
<rect width="130" height="80" fill="#D9D9D9"/>
</mask>
<g mask="url(#mask0_1509_24479)">
</g>
<g clip-path="url(#clip0_1509_24479)">
<path d="M63.9231 78.5428C63.4563 78.429 63.0064 78.2549 62.5848 78.0249C61.3636 77.294 60.1445 76.5754 60.1445 74.5471C60.1445 68.001 60.23 62.3175 60.23 55.5862C60.1947 54.6642 60.3455 53.7444 60.6733 52.8816C61.1764 51.7023 62.5964 50.9488 63.3791 49.9335C64.1617 48.9181 64.173 48.3685 64.173 47.0546L64.1654 46.6353C66.7791 47.3934 68.9153 47.5401 71.5452 47.5401C73.0538 47.5701 74.5629 47.5161 76.0655 47.3782C77.1693 47.2453 78.4842 47.1111 79.6025 46.6841C79.6025 46.7927 79.6047 46.8615 79.6047 46.8615C79.6047 48.1752 79.616 48.9176 80.3987 49.9325C81.1813 50.9474 82.6013 51.7014 83.1045 52.8806C83.4323 53.7434 83.583 54.6632 83.5478 55.5853C83.5478 62.3168 83.6332 68 83.6332 74.5461C83.6332 76.5749 82.4142 77.293 81.1929 78.0239C79.5256 79.0219 74.6689 79.3835 72.0124 79.413C69.8661 79.3899 66.1622 79.1523 63.9231 78.5428Z" fill="white"/>
<path d="M71.8609 39.2932C70.3288 39.2932 68.5983 39.223 67.0702 39.3473C65.7895 39.4517 63.5305 39.5856 62.6991 40.7587C62.4294 41.139 62.4282 41.6365 62.4282 42.1025C62.4282 43.0567 62.2435 45.1919 62.6538 45.6648C63.022 46.0502 63.463 46.3592 63.9514 46.5739C66.6628 47.3846 68.8428 47.5399 71.5434 47.5399C73.0521 47.5699 74.5612 47.5159 76.0638 47.378C77.5717 47.1964 79.4736 47.0126 80.7299 46.0825C80.9193 45.9545 81.0745 45.7823 81.182 45.5808C81.4692 44.9804 81.4596 41.6421 81.1271 40.94C80.5114 39.6404 77.9936 39.5531 76.7784 39.4443C75.1442 39.2971 73.5011 39.2932 71.8609 39.2932Z" fill="white"/>
<path d="M61.4122 70.9281C61.0461 70.7392 60.6997 70.5147 60.3779 70.2577L60.1562 70.0791C60.1796 65.2898 60.2301 60.7456 60.2301 55.5859C60.2301 55.5122 60.2301 55.4384 60.2314 55.3647C61.149 56.404 62.6365 56.6339 63.9402 56.7685C64.4377 56.8199 68.4394 57.1297 72.1869 57.1297C75.8182 57.1297 79.6016 56.8742 80.634 56.685C81.6905 56.5204 82.6905 56.0998 83.5462 55.4601C83.5462 55.5021 83.5462 55.5441 83.5462 55.5861C83.5462 60.7453 83.5954 65.2903 83.6201 70.0793L83.3984 70.2579C82.469 71.0114 81.2162 71.4581 80.1449 71.7649C78.3242 72.2865 74.5622 72.6211 71.8894 72.6289C69.2131 72.6211 65.4257 72.2479 63.6287 71.7649C62.8617 71.5667 62.1186 71.2861 61.4122 70.9281Z" fill="white"/>
<path d="M39.5518 35.3847C41.0238 32.9009 42.3643 30.6382 43.3676 28.9421C43.4333 28.8313 43.5173 28.6976 43.6459 28.6875C44.3662 28.6308 45.9889 29.075 47.3624 29.4455C48.3248 30.5414 49.2153 31.4494 49.7266 32.2742C49.7928 32.3813 49.7019 32.5233 49.6374 32.6319C46.0618 38.6755 38.235 51.9421 35.4078 56.7205C36.3387 57.2679 37.2285 57.7917 37.8146 58.1368C38.4165 58.4911 38.5926 58.8436 38.3894 59.1866L37.6725 60.3966C37.4802 60.7216 36.9702 61.0056 36.2644 60.5902L33.2653 58.8245L33.1668 58.9682C32.7077 59.6333 30.0199 63.5 29.7054 63.9554L29.5559 64.1721L31.4256 65.273C31.96 65.5875 32.1152 65.9005 31.9359 66.2051L31.3005 67.2792C31.1298 67.5679 30.6769 67.8197 30.0504 67.4512L26.1421 65.1502L26.0928 65.1217L22.1372 62.7927C21.5105 62.4241 21.5129 61.9063 21.6836 61.6176L22.3192 60.5435C22.4995 60.2388 22.8494 60.2241 23.3838 60.5386L25.4249 61.7404L25.5402 61.5105C25.7882 61.0154 27.8746 56.7443 28.2364 56.0216C28.2364 56.0216 28.2586 55.9771 28.2977 55.8987L25.1504 54.0458C24.4445 53.6311 24.4477 53.0481 24.6396 52.7221L25.3555 51.5124C25.5584 51.1685 25.9527 51.1525 26.5546 51.5068L29.1198 53.0172L29.2429 52.7789C31.0899 49.6561 34.8121 43.3798 38.1946 37.6729C38.6557 36.8971 39.1098 36.1311 39.5518 35.3847Z" fill="white"/>
<path d="M48.289 24.4741C48.2083 24.5424 48.1398 24.6238 48.0863 24.7149C47.6108 25.5185 46.3937 27.5878 45.9191 28.3919C45.8561 28.499 45.778 28.645 45.7142 28.7528C45.6305 28.8943 45.6724 28.996 45.8273 29.0872C46.0696 29.2299 46.6471 29.5803 46.8653 29.7088L47.184 29.8964C47.4022 30.0249 47.9888 30.3598 48.2314 30.5025C48.3855 30.5934 48.4949 30.5811 48.5784 30.4406C49.2903 29.2368 50.1937 27.7252 50.9699 26.413C51.0752 26.2273 51.1063 26.0088 51.0571 25.8013C51.0224 25.6047 50.9145 24.9642 50.5911 24.7741L49.6536 24.2221C49.3849 24.0638 48.7838 24.2417 48.5912 24.3051C48.4805 24.3415 48.3779 24.3989 48.289 24.4741Z" fill="white"/>
<path d="M62.6041 73.2263C62.3853 72.5965 62.2409 71.9434 62.1738 71.2803C62.6487 71.4719 63.1352 71.6337 63.6303 71.7647C65.4281 72.2477 69.2147 72.6209 71.891 72.6288C74.5638 72.6209 78.3258 72.2863 80.1465 71.7647C80.6333 71.6283 81.1127 71.4666 81.5828 71.2805C81.5145 73.0587 80.7873 74.8077 79.6577 75.4445C78.2581 76.2334 74.5025 76.5928 72.0681 76.5928C69.6337 76.5928 65.6384 76.2948 64.2748 75.4445C63.3126 74.8448 62.94 74.1751 62.6041 73.2263Z" fill="#65B005"/>
<path d="M63.499 54.391C63.6289 53.8743 63.8824 53.3967 64.2378 52.9992C64.5104 52.7176 64.8393 52.4963 65.2031 52.3496C65.567 52.203 65.9577 52.1342 66.3499 52.1479L77.8052 52.0742C78.7001 52.0742 79.1363 52.3951 79.7633 53.1719C80.3413 53.8881 80.5745 55.8601 81.0257 56.5107L81.0503 56.5993C80.9129 56.632 80.775 56.6605 80.6366 56.6858C79.6035 56.875 75.82 57.1305 72.1894 57.1305C68.4419 57.1305 64.4403 56.8207 63.9428 56.7694C63.5606 56.7298 63.1626 56.6821 62.7676 56.6084L62.7922 56.5102C63.067 55.8174 63.303 55.1099 63.499 54.391Z" fill="#65B005"/>
<path d="M47.3884 29.4749L47.3638 29.4455C45.9903 29.075 44.3677 28.6308 43.6473 28.6875C43.5188 28.6976 43.4348 28.8313 43.369 28.9421C41.6247 31.8902 38.8623 36.5529 36.1602 41.11C38.3153 42.3818 40.3497 43.5851 42.4384 44.8197C45.1338 40.2545 47.8926 35.5822 49.6381 32.6321C49.7024 32.5235 49.7935 32.3815 49.7273 32.2744C49.2202 31.4568 48.341 30.5579 47.3884 29.4749Z" fill="#65B005"/>
<path d="M68.2649 1.3832C67.8797 0.99779 67.3835 0.741934 66.8456 0.651326C65.8986 0.476234 64.9203 0.666717 64.1088 1.1842C63.2633 1.70004 62.5916 2.45603 62.1797 3.35525C61.6025 4.57749 61.4498 5.56904 61.3712 7.05489C61.3702 7.07485 61.375 7.09467 61.3849 7.11202C61.3949 7.12937 61.4096 7.14352 61.4273 7.1528C61.4451 7.16207 61.4651 7.16609 61.485 7.16437C61.505 7.16265 61.524 7.15526 61.5399 7.14309C61.9873 6.82831 62.4747 6.57427 62.9892 6.38763C63.6189 6.14975 64.2861 6.0262 64.9594 6.0228C65.8413 6.06255 66.7215 5.91353 67.5408 5.58575C68.4304 5.19266 68.9707 4.19743 69.0261 3.22725C69.0315 2.88441 68.9667 2.54407 68.8358 2.22702C68.705 1.90997 68.5107 1.62285 68.2649 1.3832Z" fill="#65B005"/>
<path d="M72.0217 10.5095C72.0217 10.4289 72.0217 10.3466 72.0166 10.2623C71.983 9.94132 71.8664 9.63453 71.6781 9.37202C71.4899 9.10952 71.2365 8.90032 70.9428 8.76493C70.4793 8.57301 69.9817 8.47647 69.4799 8.48112C68.9781 8.48576 68.4824 8.59149 68.0225 8.79196C67.1074 9.16735 66.6099 9.54446 65.8039 10.2783C65.7961 10.2855 65.7908 10.2948 65.7884 10.305C65.7861 10.3153 65.7869 10.326 65.7907 10.3358C65.7946 10.3455 65.8013 10.3539 65.81 10.3599C65.8187 10.3658 65.829 10.369 65.8396 10.369C67.015 10.3749 67.6561 11.0519 68.637 11.7086C68.9571 11.9231 69.5314 12.2983 69.9107 12.3661C70.4062 12.456 71.1174 12.145 71.4775 11.7951C71.6569 11.6336 71.7986 11.4347 71.8927 11.2126C71.9867 10.9904 72.0308 10.7504 72.0217 10.5095Z" fill="#65B005"/>
<path d="M93.6679 38.2595C93.8968 38.5448 94.0099 38.9053 93.9851 39.2698C93.9804 39.5251 93.8843 39.7704 93.7142 39.9613C93.4349 40.1957 93.0576 40.1427 92.7264 40.0766C92.2642 39.9844 91.7778 39.8628 91.3086 39.9847C90.2974 40.2471 90.1019 41.2688 90.2381 42.1648C90.2994 42.5709 90.312 42.9119 90.0344 43.2519C89.7675 43.578 89.4217 43.5654 89.0373 43.5094C88.7627 43.4485 88.4777 43.452 88.2048 43.5196C87.9318 43.5871 87.6783 43.717 87.4641 43.8988C87.2544 44.085 87.1123 44.3351 87.0597 44.6102C87.0071 44.8852 87.047 45.1699 87.1732 45.42C87.2534 45.5539 87.383 45.6511 87.5342 45.6906C87.6853 45.7302 87.8461 45.709 87.9817 45.6316C88.1148 45.5506 88.2112 45.4213 88.2507 45.2709C88.2902 45.1205 88.2698 44.9607 88.1938 44.825C88.212 44.8619 88.3007 44.7233 88.3302 44.7049C88.4606 44.6433 88.6071 44.6244 88.7489 44.6508C89.266 44.7 89.7093 44.7766 90.2063 44.5641C90.6632 44.3564 91.0302 43.992 91.2407 43.5372C91.4589 43.0605 91.5166 42.5261 91.4049 42.014C91.3675 41.7929 91.2909 41.3983 91.4542 41.2109C91.6512 40.987 92.1233 41.1553 92.3641 41.204C93.3044 41.3936 94.3223 41.3072 94.8618 40.4001C95.0907 39.9729 95.1956 39.4906 95.1648 39.0072C95.1339 38.5238 94.9685 38.0586 94.6872 37.6638C94.6054 37.5317 94.4759 37.4361 94.3254 37.3967C94.1749 37.3574 94.0149 37.3772 93.8787 37.4523C93.7444 37.5322 93.6469 37.6615 93.6073 37.8124C93.5676 37.9633 93.5889 38.1237 93.6667 38.2591L93.6679 38.2595Z" fill="#4A3E42"/>
<path d="M107.285 26.7701C107.096 26.5593 106.56 26.2257 106.554 25.9053C106.588 25.7473 106.646 25.5954 106.727 25.455C106.809 25.2062 106.86 24.948 106.877 24.6865C106.975 23.7775 106.556 22.7882 105.672 22.4314C105.269 22.269 104.733 22.3457 104.37 22.112C104.155 21.922 103.983 21.6879 103.867 21.4256C103.439 20.6736 102.887 19.957 101.924 19.9904C101.42 20.024 100.932 20.1881 100.511 20.4665C100.32 20.5857 100.141 20.7247 99.9512 20.8439C99.8396 20.9373 99.7022 20.9949 99.5572 21.0092C99.375 20.9898 99.1858 20.7829 99.0235 20.6982C98.8104 20.5878 98.5808 20.5126 98.3436 20.4756C97.9059 20.3896 97.4542 20.4076 97.0248 20.5282C96.6008 20.6757 96.2355 20.9553 95.9828 21.3256C95.8602 21.5042 95.7623 21.6983 95.6917 21.903C95.6166 22.1096 95.6134 22.3393 95.5344 22.5417C95.4233 22.8277 94.9795 22.8348 94.7121 22.8857C94.3291 22.9396 93.9584 23.059 93.6161 23.2387C92.7865 23.7242 92.5247 24.6408 92.6852 25.5378C92.7833 25.8998 92.8573 26.2679 92.9069 26.6396C92.9241 27.0194 92.636 27.2858 92.4289 27.5838C91.8422 28.4321 92.0412 29.5047 92.7443 30.2221C93.0894 30.5518 93.4948 30.8122 93.9385 30.9891C94.2431 31.149 94.1717 31.5296 94.1683 31.8335C94.1503 32.2852 94.2257 32.7358 94.3899 33.1572C94.7783 34.0841 95.6178 34.4497 96.5864 34.4045C96.9475 34.3878 97.4238 34.2802 97.7565 34.463C98.0998 34.6514 98.3172 35.0575 98.6339 35.2919C99.4368 35.8857 100.597 35.6668 101.295 35.0096C101.568 34.7114 101.807 34.383 102.006 34.0308C102.079 33.9101 102.171 33.8013 102.277 33.7082C102.34 33.6666 102.41 33.6379 102.484 33.624C102.558 33.6101 102.634 33.6111 102.707 33.6272C103.167 33.6532 103.613 33.8004 104.075 33.8195C104.563 33.8415 105.047 33.7156 105.462 33.4584C105.858 33.2156 106.158 32.8433 106.309 32.4049C106.378 32.1738 106.407 31.9331 106.396 31.6925C106.36 31.4399 106.359 31.1838 106.392 30.9309C106.466 30.6508 106.741 30.4373 106.954 30.2464C107.265 29.9972 107.534 29.7007 107.753 29.3679C108.265 28.4886 107.921 27.4796 107.285 26.7701ZM98.7933 28.1557C98.9028 28.2782 98.9675 28.4341 98.977 28.5979C98.9765 28.7637 98.9105 28.9226 98.7933 29.0401C98.6751 29.1565 98.516 29.2223 98.35 29.2237C98.2676 29.2236 98.1861 29.2074 98.11 29.1759C98.034 29.1444 97.9649 29.0983 97.9067 29.0401C97.7023 28.7822 97.4925 28.5286 97.2812 28.2763L96.6202 28.9097C96.5629 28.972 96.4937 29.0221 96.4165 29.0569C96.3393 29.0918 96.2559 29.1107 96.1712 29.1126C96.0865 29.1144 96.0024 29.0991 95.9238 29.0676C95.8451 29.0362 95.7737 28.9891 95.7139 28.9294C95.654 28.8696 95.6068 28.7984 95.5752 28.72C95.5437 28.6416 95.5284 28.5576 95.5302 28.4731C95.5321 28.3886 95.551 28.3054 95.586 28.2284C95.6209 28.1515 95.6711 28.0823 95.7336 28.0252L96.4694 27.3199C96.2889 27.1086 96.1082 26.8967 95.9276 26.6841C95.8142 26.5647 95.7509 26.4064 95.7509 26.2419C95.7509 26.0773 95.8142 25.9191 95.9276 25.7997C96.0456 25.6832 96.2049 25.6178 96.3709 25.6178C96.5369 25.6178 96.6962 25.6832 96.8142 25.7997C96.9993 26.0191 97.1851 26.2375 97.3718 26.4549L97.9949 25.8576C98.1141 25.7487 98.2708 25.6898 98.4325 25.6933C98.5941 25.6968 98.7482 25.7624 98.8625 25.8765C98.9769 25.9905 99.0427 26.1442 99.0462 26.3055C99.0497 26.4668 98.9907 26.6232 98.8814 26.7421L98.1835 27.4111C98.3896 27.657 98.5938 27.9044 98.7933 28.1547V28.1557ZM104.175 28.1557C104.284 28.2783 104.349 28.4341 104.358 28.5979C104.358 28.7637 104.292 28.9226 104.175 29.0401C104.056 29.1565 103.897 29.2223 103.731 29.2237C103.649 29.2236 103.567 29.2074 103.491 29.1759C103.415 29.1444 103.346 29.0983 103.288 29.0401C103.083 28.7822 102.874 28.5286 102.662 28.2763L102.001 28.9097C101.944 28.972 101.875 29.0221 101.798 29.0569C101.721 29.0918 101.637 29.1107 101.553 29.1126C101.468 29.1144 101.384 29.0991 101.305 29.0676C101.226 29.0362 101.155 28.9891 101.095 28.9294C101.035 28.8696 100.988 28.7984 100.957 28.72C100.925 28.6416 100.91 28.5576 100.911 28.4731C100.913 28.3886 100.932 28.3054 100.967 28.2284C101.002 28.1515 101.052 28.0823 101.115 28.0252L101.851 27.3199C101.67 27.1086 101.49 26.8967 101.309 26.6841C101.195 26.5647 101.132 26.4064 101.132 26.2419C101.132 26.0773 101.195 25.9191 101.309 25.7997C101.427 25.6832 101.586 25.6178 101.752 25.6178C101.918 25.6178 102.078 25.6832 102.196 25.7997C102.381 26.0191 102.566 26.2375 102.753 26.4549L103.376 25.8576C103.495 25.7487 103.652 25.6898 103.814 25.6933C103.975 25.6968 104.129 25.7624 104.244 25.8765C104.358 25.9905 104.424 26.1442 104.427 26.3055C104.431 26.4668 104.372 26.6232 104.263 26.7421L103.565 27.4111C103.771 27.657 103.975 27.9044 104.175 28.1547V28.1557Z" fill="#4A3E42"/>
<path d="M64.635 43.138C65.4502 43.4916 66.3631 43.5903 67.2379 43.6972C68.29 43.8259 69.3489 43.9046 70.4074 43.9535C72.1595 44.0347 73.9151 43.9904 75.6609 43.821C76.839 43.7058 78.0497 43.5547 79.1427 43.0752C79.2773 42.9955 79.375 42.8662 79.4147 42.7152C79.4544 42.5642 79.4328 42.4036 79.3547 42.2684C79.273 42.1363 79.1434 42.0406 78.9929 42.0012C78.8423 41.9618 78.6824 41.9817 78.5462 42.0568C78.6363 42.0173 78.5181 42.0686 78.4969 42.0767C78.4477 42.0952 78.4002 42.1133 78.3511 42.1305C78.2585 42.163 78.165 42.1924 78.0706 42.2204C77.83 42.2914 77.5855 42.3492 77.3395 42.3995C76.8671 42.4963 76.3896 42.5646 75.9111 42.6162C74.9014 42.7251 73.8838 42.7754 72.8677 42.7975C71.1855 42.8315 69.5029 42.7603 67.8297 42.5843C67.2938 42.529 66.8062 42.4693 66.2782 42.3742C66.058 42.3347 65.8383 42.2905 65.6216 42.2347C65.5386 42.2133 65.4559 42.1905 65.3753 42.1647C65.333 42.1514 65.0682 42.048 65.2335 42.1197C65.097 42.0458 64.9374 42.0265 64.7872 42.0658C64.637 42.1051 64.5075 42.2 64.425 42.3312C64.347 42.4666 64.3255 42.627 64.3652 42.778C64.4049 42.929 64.5025 43.0583 64.637 43.138H64.635Z" fill="#4A3E42"/>
<path d="M71.8608 38.7038C69.9352 38.7019 68.017 38.6414 66.098 38.8429C64.6578 38.994 62.5763 39.2979 61.9902 40.8614C61.8613 41.2996 61.8095 41.7567 61.837 42.2126C61.8331 42.5506 61.8178 42.8887 61.8082 43.2265C61.7535 43.9544 61.7886 44.6863 61.9129 45.4057C62.0685 46.0999 62.6847 46.5471 63.2674 46.8954C63.6884 47.1154 64.1385 47.2746 64.6044 47.3684C65.1158 47.502 65.6317 47.6172 66.152 47.7138C68.2029 48.0914 70.2763 48.1334 72.3558 48.1278C74.3043 48.1517 76.251 48.0002 78.1722 47.6752C79.086 47.5365 79.9657 47.2288 80.7662 46.7679C81.1814 46.5457 81.5186 46.2024 81.7328 45.7838C81.8202 45.551 81.8746 45.3072 81.8944 45.0595C82.0588 43.7906 82.0346 42.5045 81.8225 41.2427C81.5742 39.8408 80.1427 39.3043 78.8889 39.0864C77.1192 38.8189 75.3309 38.6931 73.5411 38.71C72.9808 38.7033 72.4206 38.7031 71.8603 38.7031C71.0998 38.7031 71.0983 39.8824 71.8603 39.8824C73.7359 39.8824 75.5999 39.9273 77.4689 40.0902C78.0787 40.1297 78.6836 40.2258 79.2755 40.3771C79.5494 40.4437 79.8133 40.546 80.0604 40.6813C80.1586 40.7354 80.2517 40.7983 80.3385 40.8692C80.4195 40.9346 80.4888 41.0133 80.5433 41.1019C80.5744 41.154 80.6419 41.3382 80.581 41.151C80.5919 41.1844 80.6057 41.2174 80.6145 41.2515C80.6379 41.3446 80.6608 41.437 80.6781 41.5313C80.6891 41.5913 80.6987 41.6517 80.7074 41.7122C80.6928 41.6112 80.712 41.7522 80.7155 41.7841C80.7319 41.9325 80.7454 42.0812 80.7559 42.23C80.7986 42.847 80.8087 43.4659 80.7859 44.0839C80.7763 44.3566 80.7591 44.6291 80.7313 44.9005C80.7268 44.9448 80.7103 45.0612 80.7263 44.9519C80.7197 44.9981 80.7125 45.0443 80.7042 45.0902C80.6789 45.1742 80.6584 45.2595 80.6426 45.3457C80.6426 45.3617 80.6076 45.4329 80.6524 45.3275C80.7037 45.2069 80.6372 45.3521 80.6256 45.3668C80.573 45.4358 80.5136 45.4992 80.4483 45.5563C80.3 45.674 80.1408 45.7773 79.9727 45.8648C79.6309 46.048 79.2698 46.1928 78.896 46.2965C77.2706 46.7719 75.4928 46.8883 73.8076 46.9306C71.9121 47.0063 70.0138 46.9659 68.1234 46.8095C67.1957 46.7168 66.2756 46.5609 65.3693 46.3427C64.9349 46.2539 64.5063 46.1384 64.0862 45.9968C63.7985 45.8614 63.5331 45.6831 63.2994 45.4678C63.2479 45.4229 63.1984 45.3762 63.1494 45.3288C63.1219 45.3028 63.096 45.2753 63.0718 45.2462C63.0777 45.2533 63.1292 45.3445 63.1112 45.289C63.0748 45.1787 63.1132 45.3135 63.1004 45.2678C63.0834 45.2089 63.0657 45.1506 63.0511 45.0907C63.0041 44.8287 62.9806 44.5631 62.981 44.2969C62.9637 43.6311 63.0041 42.9661 63.0162 42.3003C62.9833 41.9459 63.0124 41.5884 63.1021 41.2439C63.2174 41.0044 63.406 40.8076 63.6407 40.682C64.2192 40.3666 64.8539 40.1672 65.5092 40.0949C67.1287 39.8362 68.792 39.8492 70.4265 39.8683C70.904 39.8738 71.3818 39.8799 71.8593 39.8804C72.6215 39.8838 72.6228 38.7046 71.8608 38.7038Z" fill="#4A3E42"/>
<path d="M63.5814 47.0537C63.5814 47.6576 63.6149 48.233 63.3974 48.7813C63.1473 49.3151 62.7883 49.7908 62.3434 50.1783C61.8538 50.6384 61.3167 51.0509 60.8658 51.5509C60.364 52.1054 60.0136 52.7792 59.8479 53.5077C59.6784 54.3519 59.608 55.2129 59.6381 56.0733C59.6381 56.9869 59.6361 57.9005 59.6322 58.8143C59.6259 60.5286 59.6164 62.243 59.6036 63.9575C59.5805 67.3685 59.5544 70.7793 59.5529 74.1902C59.5171 74.9193 59.6414 75.6473 59.9171 76.3234C60.1698 76.8548 60.544 77.3195 61.0096 77.6803C61.8009 78.3283 62.7161 78.8089 63.6996 79.0927C64.8837 79.3977 66.0907 79.6063 67.3087 79.7165C68.5504 79.8536 69.7988 79.9376 71.0476 79.9808C73.4962 80.0545 75.9461 79.884 78.3607 79.4718C79.3881 79.2998 80.4825 79.09 81.4048 78.5822C82.3761 78.0476 83.3863 77.3627 83.8589 76.3234C84.1872 75.6014 84.2234 74.8533 84.2229 74.0721C84.2229 73.1984 84.221 72.3249 84.2173 71.4514C84.211 69.7377 84.2015 68.0243 84.1887 66.3111C84.1641 62.8579 84.1394 59.4049 84.138 55.9517C84.138 54.3388 84.0003 52.721 82.8512 51.4865C82.0092 50.5819 80.7446 49.8896 80.3547 48.6487C80.2111 48.0642 80.1573 47.4613 80.1949 46.8606C80.1949 46.1018 79.0128 46.1005 79.0128 46.8606C78.9831 47.5161 79.0368 48.1726 79.1726 48.8145C79.3577 49.4579 79.689 50.0501 80.1407 50.5451C80.9517 51.4786 82.2326 52.1243 82.6527 53.3458C82.8843 54.1109 82.987 54.9091 82.9566 55.7077C82.9576 56.5864 82.9591 57.4653 82.9613 58.3443C82.9665 60.028 82.9752 61.7116 82.9874 63.3949C83.0095 66.7182 83.0366 70.0417 83.0411 73.3652C83.0411 74.0952 83.1206 74.8656 82.8933 75.5709C82.7296 76.0389 82.4344 76.4501 82.0429 76.7553C81.6585 77.0633 81.2455 77.334 80.8096 77.5639C80.4398 77.7556 80.0474 77.9004 79.6415 77.995C77.3628 78.6144 74.918 78.7529 72.5669 78.8131C71.4749 78.8409 70.3802 78.7851 69.2915 78.7114C68.0628 78.6378 66.8388 78.5018 65.624 78.3041C65.0822 78.2155 64.5453 78.0991 64.0156 77.9552C63.6349 77.8647 63.268 77.7243 62.9243 77.5376C62.0609 77.0502 61.1541 76.4885 60.8613 75.4913C60.6508 74.7742 60.7367 73.9853 60.7382 73.2473C60.7397 72.4002 60.7423 71.5531 60.7461 70.706C60.7533 69.0541 60.7631 67.4022 60.7756 65.7502C60.799 62.3619 60.8089 58.9733 60.8227 55.5846C60.7957 54.7896 60.911 53.9961 61.1632 53.2414C61.407 52.6999 61.7762 52.2239 62.2404 51.8526C63.1763 50.9966 64.2352 50.1682 64.6047 48.8949C64.7438 48.2911 64.7976 47.6709 64.7645 47.0523C64.7645 46.2934 63.5824 46.2922 63.5824 47.0523L63.5814 47.0537Z" fill="#4A3E42"/>
<path d="M59.9608 70.6747C61.2232 71.6778 62.7929 72.2296 64.3636 72.534C65.9429 72.8233 67.5384 73.016 69.1413 73.111C72.3849 73.3423 75.6445 73.1874 78.8513 72.6494C80.606 72.3494 82.4114 71.7932 83.8203 70.6747C83.9303 70.5637 83.992 70.4139 83.992 70.2578C83.992 70.1017 83.9303 69.9519 83.8203 69.8408C83.7077 69.7336 83.5581 69.6738 83.4024 69.6738C83.2468 69.6738 83.0971 69.7336 82.9845 69.8408C81.846 70.7447 80.3041 71.1818 78.8964 71.4481C77.4177 71.71 75.9238 71.8787 74.4238 71.9532C71.389 72.1438 68.3423 71.9964 65.3401 71.5139C63.7681 71.2574 62.0691 70.8506 60.7983 69.8408C60.6853 69.7346 60.5358 69.6754 60.3804 69.6754C60.2251 69.6754 60.0756 69.7346 59.9625 69.8408C59.8526 69.9519 59.791 70.1017 59.791 70.2578C59.791 70.4138 59.8526 70.5636 59.9625 70.6747H59.9608Z" fill="#4A3E42"/>
<path d="M59.8805 55.8561C60.9747 56.9788 62.588 57.2388 64.0834 57.3717C65.3288 57.4825 66.5791 57.5498 67.8267 57.608C71.5867 57.8003 75.3554 57.7469 79.1084 57.4483C80.7717 57.3083 82.4452 57.0358 83.8102 55.9952C83.9418 55.9128 84.037 55.7835 84.0763 55.6336C84.1157 55.4837 84.0964 55.3245 84.0223 55.1883C83.9425 55.0541 83.8129 54.9566 83.6616 54.917C83.5102 54.8774 83.3493 54.8989 83.2138 54.9768C82.5231 55.4906 81.7297 55.8502 80.8875 56.0313C80.7215 56.0698 80.5543 56.105 80.3861 56.132C80.3452 56.1386 80.3043 56.1443 80.2629 56.1507C80.1263 56.172 80.3179 56.145 80.2068 56.1583C79.9517 56.1891 79.696 56.2163 79.4399 56.2398C77.8047 56.3907 76.1605 56.4641 74.5191 56.5079C71.1744 56.5877 67.8278 56.4936 64.4929 56.2261C63.1892 56.1249 61.6763 56.0092 60.7146 55.0223C60.1834 54.4771 59.3481 55.3114 59.8788 55.8561H59.8805Z" fill="#4A3E42"/>
<path d="M50.6356 24.8029C52.3076 21.9776 54.0081 19.1698 55.6889 16.3502C56.2647 15.3838 56.8393 14.4175 57.4128 13.4512C57.8004 12.7962 56.7789 12.2022 56.392 12.8559C54.4657 16.1116 52.5167 19.354 50.5746 22.6004C50.2541 23.136 49.9344 23.6721 49.6156 24.2086C49.228 24.8636 50.2495 25.4576 50.6364 24.8039L50.6356 24.8029Z" fill="#4A3E42"/>
<path d="M47.9339 30.9715C48.1617 31.2261 48.3888 31.4816 48.6073 31.7442C48.7058 31.8638 48.8043 31.984 48.8981 32.1085C48.9392 32.1633 49.1257 32.4965 49.1678 32.496C48.9592 32.4987 49.299 32.113 49.1126 32.3574C49.0856 32.3969 49.0609 32.4379 49.0387 32.4802L48.92 32.681C48.8171 32.8552 48.7141 33.0293 48.6109 33.2033L47.2956 35.4291C46.2654 37.1726 45.2353 38.9163 44.2054 40.6603C42.0431 44.3217 39.8809 47.983 37.7186 51.644C36.8235 53.1599 35.9278 54.6754 35.0315 56.1908C34.6441 56.8457 35.6657 57.4398 36.0523 56.7858C37.9194 53.6308 39.7843 50.4746 41.6471 47.3172C43.8517 43.584 46.0565 39.851 48.2615 36.1182L49.7586 33.5853C50.0381 33.1129 50.5297 32.5392 50.2363 31.9761C49.8839 31.2993 49.2744 30.7008 48.7698 30.137C48.2622 29.5695 47.4286 30.406 47.9339 30.9708V30.9715Z" fill="#4A3E42"/>
<path d="M29.7536 53.0764C31.5693 50.0083 33.3867 46.9413 35.2058 43.8753C37.3786 40.2096 39.5513 36.5437 41.7239 32.8775C42.2272 32.0277 42.7306 31.1777 43.234 30.3277L43.5805 29.7422C43.6972 29.5864 43.7963 29.4182 43.876 29.2408L43.9182 29.1717C43.6891 29.2463 43.6298 29.2801 43.7403 29.2732C43.8124 29.2853 43.8859 29.2873 43.9585 29.2791C44.0993 29.2885 44.2395 29.3055 44.3784 29.33C44.7826 29.398 45.1823 29.4909 45.5802 29.5879C46.3191 29.768 46.6343 28.631 45.8945 28.4509C45.2259 28.2597 44.5388 28.1401 43.8448 28.0942C43.6966 28.0795 43.5471 28.0984 43.4073 28.1494C43.2675 28.2005 43.1411 28.2824 43.0375 28.389C42.8878 28.5763 42.7579 28.7784 42.6496 28.9922C42.2178 29.7218 41.7859 30.4512 41.354 31.1804C40.3062 32.9493 39.258 34.7181 38.2096 36.487C35.9797 40.2514 33.7496 44.0149 31.5193 47.7773C30.5901 49.3449 29.6612 50.9129 28.7328 52.4813C28.3451 53.1361 29.3667 53.7301 29.7536 53.0764Z" fill="#4A3E42"/>
<path d="M68.6831 0.966098C67.3655 -0.344097 65.199 -0.221258 63.7172 0.733933C62.3086 1.64146 61.4481 3.11847 61.0683 4.7252C60.9802 5.11239 60.9144 5.50432 60.8713 5.89904C60.8467 6.10099 60.8292 6.30343 60.8139 6.50611C60.7678 6.7588 60.7678 7.01773 60.8139 7.27041C60.8506 7.38543 60.9171 7.48876 61.0067 7.56994C61.0962 7.65112 61.2057 7.70729 61.324 7.73278C61.4475 7.75209 61.5739 7.74354 61.6937 7.70774C61.8136 7.67194 61.9239 7.60981 62.0165 7.52592C62.3982 7.27683 62.8083 7.0738 63.238 6.92106C64.8452 6.3361 66.7442 6.9132 68.2171 5.87718C68.5789 5.61373 68.8846 5.28112 69.1164 4.89869C69.3481 4.51626 69.5013 4.09167 69.5669 3.64963C69.6389 3.16435 69.5962 2.669 69.4423 2.20309C69.2884 1.73718 69.0275 1.31359 68.6803 0.966098C68.1612 0.409148 67.3259 1.24445 67.8445 1.79993C68.1199 2.07503 68.3075 2.42526 68.3837 2.80651C68.46 3.18777 68.4215 3.58301 68.273 3.94247C67.996 4.67361 67.4357 5.06129 66.6988 5.25414C65.7972 5.49024 64.8681 5.37698 63.9546 5.52218C63.4991 5.59615 63.0537 5.72305 62.6277 5.90027C62.3787 6.00223 62.1305 6.10836 61.8914 6.23194C61.7943 6.28107 61.6983 6.33512 61.6042 6.39113C61.5281 6.43634 61.3868 6.57195 61.323 6.59578H61.6372L61.5816 6.58374L61.8424 6.73533L61.801 6.69676L61.9529 6.95693C61.9468 6.73586 61.9664 6.51483 62.0113 6.29827C62.0268 6.12138 62.0441 5.94449 62.0682 5.76883C62.1228 5.37169 62.2086 4.97945 62.3248 4.59573C62.5318 3.84476 62.8962 3.1462 63.3941 2.54629C64.4324 1.37146 66.5434 0.505208 67.8445 1.79993C68.3865 2.33648 69.2226 1.5029 68.6831 0.966098Z" fill="#4A3E42"/>
<path d="M72.6135 10.5095C72.6236 9.88552 72.3993 9.28037 71.9847 8.81307C71.5278 8.33954 70.9209 8.03811 70.2667 7.95984C68.9253 7.73234 67.5597 8.1834 66.4695 8.96515C66.2313 9.13712 66.0015 9.32039 65.7799 9.51153C65.4903 9.76089 65.1039 10.0331 65.2177 10.4726C65.3255 10.8883 65.6797 10.935 66.0424 10.9662C66.3004 10.9906 66.5517 11.0625 66.7835 11.1782C67.296 11.4712 67.7873 11.7996 68.2539 12.1609C68.7027 12.4673 69.2117 12.8284 69.7545 12.9355C70.0912 12.9815 70.4338 12.9584 70.7611 12.8674C71.0885 12.7764 71.3938 12.6196 71.6582 12.4066C71.9548 12.1865 72.1958 11.9003 72.3617 11.5707C72.5275 11.2411 72.6138 10.8773 72.6135 10.5085C72.6322 9.74935 71.4501 9.74959 71.4313 10.5085C71.4268 10.7604 71.3466 11.0051 71.201 11.211C71.0555 11.4169 70.8513 11.5744 70.615 11.6632C70.4254 11.7609 70.2117 11.8021 69.9993 11.7816C69.7239 11.6983 69.4655 11.5671 69.2358 11.3942C68.7187 11.0681 68.2434 10.677 67.7237 10.3537C67.1604 9.99404 66.5091 9.79514 65.8405 9.77858L66.1387 9.85916L66.1003 9.8427L66.3712 10.195L66.3569 10.1586L66.2973 10.6129C66.3825 10.5252 66.4764 10.4463 66.5776 10.3775C66.6849 10.2844 66.7933 10.1918 66.9049 10.1039C67.0916 9.95715 67.2882 9.82351 67.4935 9.7039C67.9953 9.39093 68.5552 9.18205 69.1398 9.0897C70.1522 8.96367 71.4289 9.30787 71.4301 10.5078C71.4326 11.2681 72.6147 11.2696 72.6135 10.5095Z" fill="#4A3E42"/>
<path d="M26.0515 61.8083C26.8082 60.2949 27.5414 58.7698 28.2876 57.2513C28.4405 56.9402 28.5927 56.6292 28.7476 56.3194C28.823 56.1835 28.843 56.0239 28.8035 55.8737C28.764 55.7234 28.6681 55.5941 28.5356 55.5126C28.3999 55.4352 28.2392 55.414 28.088 55.4536C27.9368 55.4931 27.8072 55.5903 27.7271 55.7241C26.9503 57.2766 26.1965 58.8408 25.4316 60.3991C25.2984 60.6694 25.1661 60.9426 25.0307 61.213C24.9554 61.349 24.9354 61.5086 24.9749 61.6588C25.0144 61.809 25.1103 61.9383 25.2427 62.0198C25.3784 62.0972 25.5392 62.1184 25.6904 62.0788C25.8416 62.0393 25.9712 61.9422 26.0515 61.8083Z" fill="#4A3E42"/>
<path d="M30.2148 64.2535C31.1703 62.8697 32.1294 61.4881 33.092 60.1089C33.2867 59.828 33.4814 59.547 33.6761 59.266C33.7538 59.1306 33.7751 58.9702 33.7354 58.8194C33.6958 58.6685 33.5983 58.5391 33.4641 58.4592C33.328 58.3834 33.1678 58.3631 33.0171 58.4025C32.8664 58.4419 32.7368 58.5381 32.6556 58.6707C31.6751 60.0907 30.691 61.5083 29.7035 62.9234C29.5336 63.1691 29.3637 63.414 29.194 63.6582C29.1164 63.7936 29.0951 63.954 29.1348 64.1048C29.1744 64.2557 29.2718 64.385 29.406 64.465C29.5421 64.5408 29.7023 64.5612 29.8531 64.5217C30.0039 64.4823 30.1335 64.3862 30.2148 64.2535Z" fill="#4A3E42"/>
<path d="M31.0604 56.841L26.0103 53.8683C25.7257 53.7006 25.2651 53.5276 25.127 53.2102C25.159 53.2839 25.092 53.0859 25.1233 53.1981C25.1173 53.159 25.1173 53.1191 25.1233 53.08C25.1021 53.2028 25.139 53.0328 25.1459 53.0198C25.0814 53.1426 25.1775 52.9756 25.1816 52.9689C25.3612 52.6785 25.5296 52.381 25.7032 52.0872C25.7649 51.9997 25.8195 51.9074 25.8665 51.8113C25.8567 51.8373 25.9214 51.8093 25.8682 51.8135C25.7328 51.8238 25.9111 51.856 25.9443 51.8663C26.2084 51.9745 26.4597 52.1113 26.6938 52.2744L28.2024 53.1628L34.255 56.7266L37.3667 58.5586C37.4821 58.6205 37.5937 58.6892 37.7009 58.7644C37.7555 58.8062 37.8016 58.8711 37.858 58.9077C37.7868 58.8615 37.959 59.0133 37.8811 58.9399C37.8686 58.9278 37.8866 58.8637 37.8888 58.858C37.8289 59.0158 37.9735 58.7558 37.8248 58.9809C37.7083 59.157 37.608 59.3474 37.5004 59.5292C37.3915 59.7551 37.2581 59.9684 37.1027 60.1653C37.1327 60.1434 37.0288 60.2029 37.0103 60.2061C36.8459 60.2166 36.6829 60.1697 36.5493 60.0734C34.7062 59.0207 32.8897 57.9188 31.0604 56.8418C30.4038 56.4553 29.8084 57.4741 30.4639 57.8601C32.2787 58.9286 34.0841 60.0135 35.9088 61.0659C36.5801 61.4531 37.4652 61.5507 38.024 60.9097C38.233 60.6354 38.4169 60.343 38.5734 60.0358C38.7719 59.7007 39.0386 59.3607 39.0588 58.9573C39.098 58.176 38.3259 57.7535 37.7467 57.413L36.0671 56.4241L29.3318 52.4579L27.534 51.4003C26.956 51.0598 26.2931 50.5431 25.5828 50.6846C25.4131 50.724 25.2541 50.8002 25.1172 50.9077C24.9802 51.0152 24.8686 51.1514 24.7903 51.3067C24.5881 51.6406 24.3928 51.9786 24.1941 52.3139C24.0096 52.5981 23.9263 52.9359 23.9576 53.273C23.9889 53.6101 24.1329 53.9269 24.3665 54.1725C24.7322 54.5683 25.3023 54.8208 25.7638 55.0923L27.4303 56.0735L30.4629 57.8589C31.1205 58.2458 31.716 57.227 31.0604 56.841Z" fill="#4A3E42"/>
<path d="M26.4405 64.6414L22.8587 62.5328C22.6121 62.4244 22.3889 62.2692 22.2017 62.0758C22.1652 62.0227 22.182 62.0611 22.1771 61.9888C22.1771 61.982 22.1674 61.8906 22.1771 61.9508C22.1876 62.0178 22.212 61.8756 22.1798 61.9397C22.1581 61.982 22.2509 61.8196 22.2625 61.7999L22.4448 61.4916C22.5917 61.3081 22.7119 61.1049 22.8018 60.888C22.8334 60.7283 22.8326 60.8997 22.7986 60.8698C22.7835 60.879 22.7677 60.8873 22.7514 60.8943C22.7487 60.8993 22.7036 60.9029 22.7021 60.8907C22.7021 60.8939 22.8474 60.9285 22.8597 60.9329C23.2811 61.129 23.6849 61.3608 24.0665 61.626L29.048 64.5589L30.2811 65.2848C30.6609 65.5084 31.0283 65.7548 31.3987 65.9848C31.4233 65.9995 31.4618 66.0752 31.4199 65.9963C31.3884 65.9369 31.4901 65.8135 31.3706 66.0017C31.2372 66.2105 31.1175 66.4297 30.9911 66.6429C30.9419 66.7274 30.886 66.8107 30.8407 66.8975C30.836 66.9061 30.7641 67.0247 30.803 66.9697C30.8347 66.925 30.7766 66.9992 30.7744 67.0016C30.8094 66.9662 30.7385 67.0296 30.7239 67.0336C30.6672 67.0477 30.6078 67.0469 30.5515 67.0311C30.2449 66.9635 29.9139 66.6872 29.6455 66.5292L28.5373 65.8762L26.4408 64.6417C25.7842 64.2552 25.1887 65.274 25.844 65.66L28.0142 66.9375L29.1421 67.6008C29.4807 67.8374 29.8493 68.0279 30.2383 68.1674C30.4859 68.2399 30.7487 68.243 30.998 68.1765C31.2473 68.1099 31.4734 67.9762 31.6516 67.79C31.7896 67.6179 31.9104 67.4328 32.0122 67.2372C32.1668 66.9758 32.3434 66.7181 32.4766 66.4452C33.0431 65.2878 31.531 64.6498 30.7505 64.1903L24.9341 60.7666C24.4588 60.4868 23.9886 60.1657 23.4909 59.9271C22.9932 59.6886 22.4044 59.606 21.9773 60.0254C21.8001 60.236 21.6501 60.4679 21.5308 60.7157C21.4077 60.9233 21.273 61.128 21.1614 61.342C21.0523 61.5459 20.9968 61.7741 21.0001 62.0053C21.0035 62.2364 21.0655 62.463 21.1804 62.6637C21.4321 63.0951 21.8741 63.3216 22.2886 63.5661L23.4934 64.2753L25.8428 65.6588C26.5006 66.0464 27.0958 65.0274 26.4405 64.6414Z" fill="#4A3E42"/>
<path d="M33.4921 45.8856C34.0797 46.2317 34.6658 46.5803 35.2536 46.9262C35.3207 46.9653 35.3948 46.9908 35.4717 47.0013C35.5486 47.0119 35.6268 47.0071 35.7019 46.9875C35.777 46.9678 35.8475 46.9336 35.9093 46.8868C35.9711 46.84 36.0231 46.7815 36.0623 46.7146C36.1014 46.6477 36.127 46.5738 36.1376 46.4971C36.1481 46.4204 36.1434 46.3423 36.1237 46.2674C36.104 46.1925 36.0697 46.1222 36.0227 46.0605C35.9758 45.9988 35.9171 45.947 35.8501 45.9079C35.2625 45.562 34.6764 45.2134 34.0888 44.8672C34.0218 44.8281 33.9477 44.8026 33.8708 44.7921C33.7938 44.7816 33.7156 44.7863 33.6405 44.8059C33.5654 44.8255 33.4949 44.8598 33.4331 44.9066C33.3712 44.9534 33.3192 45.0119 33.28 45.0788C33.2408 45.1456 33.2152 45.2195 33.2047 45.2963C33.1942 45.373 33.1989 45.4511 33.2185 45.526C33.2382 45.6009 33.2725 45.6712 33.3195 45.7329C33.3664 45.7946 33.425 45.8465 33.4921 45.8856Z" fill="#4A3E42"/>
<path d="M35.9742 41.6926C36.5618 42.0388 37.1479 42.3874 37.7355 42.7333C37.8709 42.8122 38.0322 42.8343 38.1838 42.7946C38.3355 42.7549 38.4652 42.6568 38.5443 42.5218C38.6234 42.3867 38.6455 42.2258 38.6058 42.0745C38.566 41.9232 38.4676 41.7939 38.3323 41.715C37.7447 41.369 37.1585 41.0204 36.5707 40.6745C36.5036 40.6348 36.4294 40.6087 36.3522 40.5977C36.275 40.5867 36.1964 40.5911 36.1209 40.6106C36.0454 40.63 35.9745 40.6642 35.9123 40.7111C35.8501 40.758 35.7978 40.8167 35.7585 40.8839C35.7192 40.9511 35.6935 41.0253 35.6831 41.1024C35.6726 41.1795 35.6776 41.2579 35.6976 41.333C35.7177 41.4082 35.7524 41.4787 35.7999 41.5404C35.8474 41.6021 35.9066 41.6538 35.9742 41.6926Z" fill="#4A3E42"/>
<path d="M40.9337 33.3065C41.5213 33.6527 42.1074 34.0013 42.695 34.3472C42.762 34.3863 42.8361 34.4118 42.913 34.4223C42.9899 34.4329 43.0682 34.4282 43.1432 34.4086C43.2183 34.3889 43.2888 34.3547 43.3506 34.3079C43.4125 34.2611 43.4645 34.2026 43.5037 34.1358C43.5428 34.0689 43.5684 33.995 43.579 33.9183C43.5896 33.8416 43.5849 33.7636 43.5652 33.6887C43.5455 33.6138 43.5112 33.5434 43.4643 33.4818C43.4174 33.4201 43.3588 33.3682 43.2918 33.3291C42.7041 32.9829 42.118 32.6343 41.5302 32.2884C41.3949 32.2108 41.2344 32.1898 41.0836 32.2298C40.9328 32.2698 40.804 32.3677 40.7253 32.5021C40.6466 32.6364 40.6243 32.7964 40.6633 32.9471C40.7024 33.0978 40.7996 33.227 40.9337 33.3065Z" fill="#4A3E42"/>
<path d="M31.0117 50.0784C31.5993 50.4245 32.1864 50.7713 32.773 51.1191C32.9084 51.198 33.0696 51.2201 33.2213 51.1804C33.373 51.1407 33.5026 51.0426 33.5818 50.9075C33.6609 50.7725 33.683 50.6116 33.6432 50.4603C33.6035 50.309 33.5051 50.1797 33.3697 50.1007C32.7821 49.7548 32.1957 49.4062 31.6081 49.06C31.4728 48.9811 31.3115 48.9591 31.1599 48.9988C31.0082 49.0385 30.8786 49.1367 30.7995 49.2717C30.7204 49.4067 30.6983 49.5676 30.7381 49.7189C30.7779 49.8701 30.8763 49.9995 31.0117 50.0784Z" fill="#4A3E42"/>
<path d="M38.4529 37.4996C39.0243 37.8362 39.5951 38.1735 40.1655 38.5115C40.3008 38.5905 40.4621 38.6125 40.6138 38.5729C40.7654 38.5332 40.8951 38.435 40.9742 38.3C41.0534 38.165 41.0755 38.0041 41.0357 37.8528C40.9959 37.7015 40.8976 37.5721 40.7622 37.4932C40.1908 37.1569 39.621 36.8178 39.0496 36.4815C38.9143 36.4026 38.7531 36.3805 38.6014 36.4201C38.4498 36.4598 38.3201 36.5579 38.241 36.6929C38.1619 36.8279 38.1397 36.9888 38.1795 37.14C38.2192 37.2913 38.3176 37.4207 38.4529 37.4996Z" fill="#4A3E42"/>
<path d="M47.872 24.0571C47.4517 24.4553 47.1874 25.0766 46.8956 25.5722C46.5606 26.1405 46.226 26.7088 45.8915 27.2772L45.5162 27.914C45.3468 28.2016 45.082 28.5365 45.082 28.8822C45.082 29.2772 45.3776 29.504 45.6859 29.6887C45.9501 29.8465 46.2129 30.0066 46.4774 30.1639C46.8658 30.3951 47.2578 30.6198 47.6492 30.8459C47.9504 31.0201 48.2516 31.2218 48.6168 31.1173C49.0482 30.9945 49.2423 30.4805 49.4516 30.1282C49.9035 29.3666 50.3559 28.605 50.8088 27.8435C51.0152 27.4963 51.2275 27.1516 51.4272 26.8013C51.6399 26.4414 51.7094 26.0149 51.6218 25.6063C51.5763 25.2711 51.4628 24.9487 51.2881 24.6587C51.0381 24.2829 50.6086 24.0974 50.2306 23.8748C49.8762 23.6311 49.4414 23.5326 49.0162 23.5996C48.6495 23.6333 48.2972 23.7585 47.9917 23.9637C47.8602 24.046 47.765 24.1753 47.7257 24.3251C47.6863 24.475 47.7056 24.6342 47.7797 24.7703C47.8595 24.9046 47.9892 25.002 48.1406 25.0416C48.2919 25.0812 48.4529 25.0597 48.5885 24.9818C48.7839 24.8444 49.0136 24.7634 49.2522 24.7477C49.3022 24.7433 49.3526 24.7433 49.4026 24.7477C49.3583 24.7408 49.2696 24.6784 49.447 24.7833C49.6049 24.8767 49.763 24.9697 49.9213 25.0624C50.0154 25.1179 50.1092 25.1742 50.2037 25.2287C50.3353 25.3046 50.3045 25.2955 50.2673 25.2533C50.3255 25.3286 50.3662 25.416 50.3862 25.509C50.4679 25.6947 50.4963 25.8993 50.4682 26.1001C50.3901 26.2686 50.2953 26.4288 50.1853 26.5785C50.0815 26.7534 49.9778 26.9282 49.874 27.103C49.6632 27.4581 49.4522 27.8131 49.2411 28.168C49.0342 28.5159 48.8273 28.8637 48.6205 29.2116L48.3249 29.7096C48.2534 29.8546 48.1676 29.9922 48.0688 30.1204L48.3296 29.9688C48.5074 29.9064 48.5946 30.0425 48.4321 29.9337C48.3737 29.8941 48.3067 29.86 48.2456 29.8256L47.8558 29.601C47.6781 29.4985 47.5009 29.3953 47.3241 29.2915C47.1599 29.1942 46.9952 29.0959 46.8301 28.9967L46.4099 28.7441C46.3489 28.7075 46.2888 28.6655 46.225 28.6335C46.061 28.5508 46.2127 28.537 46.2432 28.7227V29.0392C46.3122 28.8785 46.3966 28.7249 46.4951 28.5805L46.7463 28.1542L47.4278 26.9968L48.1154 25.8294C48.2707 25.492 48.4699 25.1766 48.7079 24.8912C49.2608 24.3674 48.4239 23.5345 47.872 24.0571Z" fill="#4A3E42"/>
</g>
<defs>
<clipPath id="clip0_1509_24479">
<rect width="87" height="80" fill="white" transform="translate(21)"/>
</clipPath>
</defs>
</svg>
