<svg width="100" height="80" viewBox="0 0 100 80" fill="none" xmlns="http://www.w3.org/2000/svg">
<mask id="mask0_1592_28608" style="mask-type:alpha" maskUnits="userSpaceOnUse" x="0" y="0" width="100" height="80">
<rect width="100" height="80" fill="#D9D9D9"/>
</mask>
<g mask="url(#mask0_1592_28608)">
<path d="M32.3406 35.0424C32.35 34.8745 32.3525 34.7523 32.3539 34.6328C31.3665 34.1745 30.4557 33.4111 29.6596 32.4532C28.7232 31.3262 28.1731 30.1162 27.8582 29.0935C27.4429 29.19 26.9985 29.0334 26.7016 28.789C26.0165 28.2252 25.732 27.439 25.5586 26.9251C25.3136 26.1995 25.298 25.0266 25.6631 24.3902C25.7854 24.1769 26.0694 23.8139 26.7373 23.7901C27.109 23.7769 27.5565 23.9212 27.8239 24.3177C27.9028 24.292 27.9483 24.277 27.9483 24.277L28.8793 23.971C30.5282 23.4335 31.8077 23.0297 33.6332 22.1061C36.9828 20.4112 37.9896 19.7182 39.8436 18.0703C41.1925 19.7685 42.5948 21.9964 43.4316 23.7161C43.4316 23.7161 43.6155 24.1188 43.7125 24.3315C43.9784 23.9244 44.4318 23.7767 44.8074 23.7899C45.4753 23.8135 45.7593 24.1767 45.8817 24.39C46.2467 25.0264 46.2313 26.1993 45.9862 26.9249C45.8127 27.4388 45.5285 28.225 44.8431 28.7888C44.5608 29.0211 44.1453 29.1742 43.7478 29.1067L43.6724 29.0939C43.5426 29.4745 43.3803 29.8129 43.3257 29.98C43.0471 30.7401 41.495 33.4253 39.5392 34.4317C39.5392 34.6844 39.5388 34.8557 39.566 35.2515C39.5833 35.4754 39.6005 35.7169 39.6832 35.935C39.7927 36.2207 39.9425 36.4699 40.1805 36.6648C40.4866 36.9125 40.799 37.0809 41.1393 37.2311C40.9168 38.2068 40.6787 39.1889 40.4269 40.1717C39.0169 40.8704 37.4349 41.1868 35.8493 41.144C34.1967 41.1887 32.5482 40.843 31.0941 40.0806C30.8627 39.1728 30.6427 38.2657 30.4355 37.3637C30.9071 37.1761 31.311 36.9865 31.7122 36.6652C31.9511 36.4689 32.1007 36.2203 32.2108 35.9341C32.2939 35.7169 32.3105 35.4746 32.3271 35.2511C32.3327 35.1736 32.3371 35.1049 32.3406 35.0422V35.0424Z" fill="white"/>
<path d="M44.1888 28.8052C43.5354 28.8052 43.084 29.2672 43.084 29.8078C43.084 30.4127 43.5452 30.8292 44.189 30.8292C44.8576 30.8292 45.294 30.4087 45.294 29.8078C45.294 29.2635 44.8401 28.8052 44.189 28.8052H44.1888Z" fill="white"/>
<path d="M22.166 62.9861C20.972 62.9861 19.9449 62.6738 19.305 62.3352C18.6197 61.9726 18.1038 61.357 17.6536 60.7122C17.0048 59.7827 16.8382 58.5271 17.0023 57.394C17.6314 53.0534 18.9404 48.918 20.1828 44.7206C20.3926 44.0117 20.6072 43.4715 20.9961 42.8482L21.0296 42.7782C22.5788 40.3485 25.4491 39.1821 28.7951 37.8449C29.3673 37.3649 29.9648 36.9363 30.4162 36.6455C31.2212 40.2397 32.2731 44.0831 33.4049 47.5779C34.2436 50.1671 34.5197 51.0459 35.5923 53.7077H35.9384C37.0113 51.0459 37.2874 50.1671 38.1259 47.5779C39.2577 44.0831 40.3095 40.2397 41.1146 36.6455C41.5369 36.9175 42.0869 37.31 42.6245 37.7526C46.0697 39.1291 49.0368 40.2928 50.6215 42.778L50.6549 42.848C51.0437 43.4713 51.2583 44.0114 51.4683 44.7204C52.7109 48.9176 54.0199 53.0532 54.6488 57.3938C54.8129 58.5267 54.6465 59.7825 53.9975 60.712C53.5473 61.3568 53.0312 61.9726 52.346 62.335C51.706 62.6736 50.6788 62.9859 49.4851 62.9859L22.166 62.9861Z" fill="white"/>
<path d="M35.8668 48.5732C29.9305 48.6165 24.0231 48.6512 21.9255 48.6583C21.5918 48.6593 21.323 48.9317 21.3242 49.2673C21.3365 52.6938 21.5008 64.5521 21.6259 68.9108C21.6354 69.2436 21.909 69.5053 22.2402 69.5003C24.1359 69.4708 30.007 69.489 35.8668 69.5093C41.7265 69.4892 47.5977 69.471 49.4935 69.5003C49.8246 69.5055 50.0982 69.2436 50.1078 68.9108C50.2331 64.5521 50.3974 52.6938 50.4094 49.2673C50.4107 48.9319 50.1421 48.6595 49.8082 48.6583C47.7105 48.6512 41.8031 48.6165 35.8668 48.5732Z" fill="white"/>
<path d="M61.7247 58.1172H88.5989C88.5989 60.946 88.5989 64.9244 88.5989 67.8376H59.8737C59.8737 64.9258 59.8737 61.029 59.873 58.1172C60.1631 58.1172 60.6043 58.1172 61.7249 58.1172H61.7247Z" fill="white"/>
<path d="M58.1289 48.0679C58.1306 48.2206 58.1306 52.779 58.1306 54.7015C58.7216 54.7015 60.0184 54.7015 61.7236 54.7015C62.067 54.7015 79.3632 54.7015 86.856 54.7015C86.856 54.4481 86.856 54.3073 86.856 54.3073C86.856 52.2927 86.856 50.0625 86.856 48.0679C75.8406 48.0679 58.7218 48.0679 58.1291 48.0679H58.1289Z" fill="white"/>
<path d="M61.9728 42.4627C60.7679 42.4627 59.5168 42.4627 58.8262 42.4627V40.471C58.573 40.471 58.3746 40.471 58.2383 40.471V38.2817C58.9854 38.2817 59.6865 38.2817 59.6865 38.2817C59.6865 38.2817 75.6846 38.2817 86.9637 38.2817V40.471C87.1403 40.471 87.3356 40.471 87.5516 40.471C87.5516 40.471 87.5516 41.4264 87.5518 42.4627C82.3225 42.4627 70.4871 42.4627 61.9728 42.4627Z" fill="white"/>
<path d="M61.9746 42.4619C61.9746 44.0834 61.9746 47.7633 61.9746 48.0676H90.2203V42.4619H61.9746ZM88.0319 46.4634H78.8025V46.426C78.8025 46.426 78.8025 44.4628 78.8002 44.0661C79.6154 44.0661 83.8492 44.0661 88.0319 44.0661V46.4634Z" fill="white"/>
<path d="M47.7689 27.3717V27.3065C47.4419 25.4832 46.9674 24.0019 46.5139 21.8372C46.1327 20.0139 45.9405 17.6772 45.1836 16.0989C44.6167 14.9189 43.4412 13.0971 41.6342 12.2597C40.9495 11.8638 40.4864 11.5963 40.4864 11.5963L40.2354 11.4513C38.8541 10.8798 37.4154 10.5005 35.3717 10.5005C32.0211 10.5005 29.2485 12.066 27.9251 13.359C26.4432 14.9686 25.8341 16.5751 25.1394 19.607C24.6854 21.5887 24.2363 23.9994 23.8808 26.0019C23.575 27.8114 23.5432 29.6301 24.3848 31.2327C25.3486 33.0679 27.1498 33.946 29.8661 34.2716H31.3227L31.7072 34.2785C30.9682 33.8211 30.2802 33.1965 29.6619 32.4525C28.7256 31.3256 28.1754 30.1156 27.8605 29.0929C27.4452 29.1894 27.0008 29.0327 26.7037 28.7883C26.0186 28.2246 25.7342 27.4384 25.5607 26.9245C25.3157 26.1989 25.3002 25.026 25.6652 24.3895C25.7875 24.1763 26.0715 23.813 26.7395 23.7894C27.1111 23.7763 27.5586 23.9206 27.826 24.3171C27.9049 24.2914 27.9504 24.2763 27.9504 24.2763L28.8814 23.9703C30.5303 23.4329 31.8098 23.0291 33.6354 22.1056C36.9849 20.4108 37.9917 19.7177 39.8457 18.0699C41.1946 19.7681 42.5969 21.996 43.4338 23.7157C43.4338 23.7157 43.6176 24.1184 43.7146 24.3311C43.9806 23.9239 44.4339 23.7763 44.8095 23.7894C45.4774 23.813 45.7614 24.1763 45.8838 24.3895C46.2488 25.026 46.2334 26.1989 45.9883 26.9245C45.8148 27.4384 45.5306 28.2246 44.8452 28.7883C44.7939 28.8305 44.737 28.869 44.678 28.9049C45.0561 29.0676 45.2958 29.4137 45.2958 29.8077C45.2958 30.4086 44.8593 30.8291 44.1908 30.8291C43.7331 30.8291 43.3714 30.6158 43.1986 30.2768C42.7228 31.2767 41.3053 33.5111 39.5604 34.4202L40.0829 34.4296H41.5295C44.1017 34.548 45.9577 33.4562 47.0214 31.5681C47.8071 30.1736 47.9823 28.626 47.7689 27.3717Z" fill="#65B005"/>
<path d="M33.7343 48.5883C34.4411 48.5835 35.1547 48.5783 35.869 48.573C36.5151 48.5778 37.1606 48.5822 37.8013 48.5868C37.9016 48.2779 38.0086 47.947 38.1279 47.579C38.8845 45.2416 39.6058 42.7476 40.2405 40.277L40.1663 40.2573C38.8014 40.8955 37.2865 41.1835 35.7659 41.1426C34.2473 41.1835 32.7321 40.8955 31.3674 40.2573L31.2949 40.277C31.9296 42.7478 32.649 45.2416 33.4075 47.579C33.527 47.9477 33.6338 48.2789 33.7343 48.5883Z" fill="#65B005"/>
<path d="M61.7266 58.1166V54.7012C62.162 54.7012 89.864 54.7012 90.2558 54.7012C90.2558 54.7887 90.2558 57.0364 90.2558 58.1166H61.7266Z" fill="#65B005"/>
<path d="M59.6895 34.646C70.9222 34.646 87.9351 34.646 87.9351 34.646V38.2813C76.6285 38.2813 59.6895 38.2813 59.6895 38.2813C59.6895 37.977 59.6895 36.2675 59.6895 34.646Z" fill="#65B005"/>
<path d="M88.0324 44.0659V46.4632H78.8031C78.8031 46.4446 78.8031 46.4258 78.8031 46.4258C78.8031 46.4258 78.8031 44.4624 78.8008 44.0659C79.616 44.0659 83.8498 44.0659 88.0324 44.0659Z" fill="#65B005"/>
<path d="M17.7087 60.2891H9.4817C8.83995 60.2891 8.83891 61.2917 9.4817 61.2917H17.7087C18.3504 61.2917 18.3514 60.2891 17.7087 60.2891Z" fill="#4A3E42"/>
<path d="M53.9426 61.2917H59.8739C60.5157 61.2917 60.5167 60.2891 59.8739 60.2891H53.9426C53.3009 60.2891 53.2999 61.2917 53.9426 61.2917Z" fill="#4A3E42"/>
<path d="M34.2201 31.6439C34.7303 31.9148 35.2796 32.0303 35.8567 32.0266C36.4551 32.0226 37.0474 31.899 37.525 31.5246C37.7317 31.3628 37.7068 30.9834 37.525 30.8157C37.3058 30.6133 37.0405 30.643 36.8199 30.8157C36.9886 30.6835 36.7893 30.8284 36.7343 30.8575C36.6902 30.8807 36.5724 30.913 36.7183 30.87C36.6724 30.8836 36.6281 30.9049 36.5824 30.9197C36.458 30.96 36.3308 30.9857 36.202 31.007C36.2741 30.9951 36.2411 31.0018 36.1883 31.007C36.1509 31.0108 36.1135 31.0139 36.0761 31.0162C35.9862 31.0221 35.8958 31.0244 35.8056 31.0237C35.7248 31.0233 35.6442 31.0204 35.5636 31.015C35.5266 31.0125 35.4896 31.0095 35.4527 31.0058C35.4317 31.0037 35.2962 30.9784 35.4215 31.0031C35.3018 30.9797 35.1832 30.959 35.066 30.9237C35.0162 30.9087 34.9678 30.8907 34.9185 30.8738C34.7993 30.8328 35.0118 30.9199 34.904 30.8688C34.8431 30.8399 34.7829 30.8096 34.7232 30.7781C34.4926 30.6557 34.1706 30.7117 34.041 30.958C33.9192 31.1896 33.9739 31.5132 34.2201 31.6439Z" fill="#4A3E42"/>
<path d="M35.5663 27.8176C35.6359 28.0841 35.7026 28.3546 35.7423 28.6274L35.7244 28.4941C35.7292 28.5315 35.7313 28.5683 35.7275 28.6059L35.7454 28.4726C35.7427 28.4899 35.739 28.5062 35.7332 28.5229L35.7834 28.4033C35.7782 28.415 35.7728 28.425 35.7658 28.4356L35.8437 28.3341C35.8354 28.3441 35.8275 28.3521 35.8173 28.3602L35.9183 28.2819C35.8979 28.2951 35.8765 28.3057 35.8545 28.3159L35.9735 28.2654C35.9384 28.2802 35.9035 28.2909 35.8659 28.2969L35.9985 28.279C35.9646 28.2829 35.9314 28.2827 35.8975 28.279L36.03 28.2969C35.992 28.2915 35.9546 28.2823 35.9166 28.2771C35.8503 28.2562 35.7841 28.2533 35.7178 28.2681C35.6515 28.271 35.5896 28.2909 35.5325 28.3276C35.429 28.3884 35.3303 28.5077 35.3033 28.6272C35.2742 28.7554 35.2805 28.8996 35.3536 29.0134C35.4184 29.1145 35.5271 29.2269 35.6515 29.2438C35.7456 29.2565 35.8372 29.2803 35.933 29.2847C36.0841 29.2914 36.223 29.2442 36.3577 29.1818C36.5257 29.1038 36.6574 28.9472 36.7021 28.7655C36.7401 28.6109 36.7243 28.4818 36.6982 28.3268C36.6543 28.0659 36.5943 27.8073 36.5276 27.5514C36.496 27.4305 36.4054 27.3148 36.2985 27.2519C36.1915 27.189 36.034 27.1623 35.9143 27.2014C35.6546 27.2857 35.4951 27.5462 35.5661 27.818L35.5663 27.8176Z" fill="#4A3E42"/>
<path d="M31.3891 25.5015C31.2547 25.941 31.3424 26.9519 32.1703 27.038C33.2647 27.0313 33.3229 25.8092 32.9545 25.2345C32.6529 24.7639 31.766 24.5682 31.3891 25.5015Z" fill="#4A3E42"/>
<path d="M40.1542 25.5016C40.2888 25.9411 40.2011 26.9521 39.373 27.0379C38.2786 27.0312 38.2202 25.8091 38.5888 25.2344C38.8904 24.7641 39.7773 24.5683 40.1542 25.5016Z" fill="#4A3E42"/>
<path d="M23.3983 25.8684C23.0183 28.1514 23.0694 30.6279 24.6288 32.4826C25.8799 33.9704 27.846 34.5127 29.694 34.7514C30.2266 34.8204 30.7842 34.7727 31.3209 34.7727C31.9626 34.7727 31.9637 33.7701 31.3209 33.7701C30.8613 33.7701 30.4007 33.7803 29.9414 33.7701C29.592 33.7624 29.2359 33.6828 28.8941 33.6145C28.4425 33.5243 27.9952 33.4087 27.5604 33.2554C25.9804 32.6979 24.8394 31.5451 24.3984 29.9039C24.0687 28.6768 24.1532 27.3755 24.3595 26.1347C24.404 25.868 24.2897 25.595 24.0113 25.5181C23.7724 25.4521 23.4427 25.5998 23.3981 25.8682L23.3983 25.8684Z" fill="#4A3E42"/>
<path d="M40.7348 11.163C40.0922 10.7916 39.3461 10.5644 38.6298 10.3822C37.6924 10.1437 36.7224 10.0269 35.7566 10.0035C33.7508 9.95488 31.7669 10.4079 29.9774 11.3203C29.265 11.6834 28.5917 12.1222 27.9776 12.6361C27.4295 13.0948 26.976 13.6629 26.5798 14.257C25.6626 15.6324 25.1893 17.2519 24.8033 18.845C24.2411 21.1648 23.8142 23.5185 23.3968 25.8682C23.3495 26.1345 23.4687 26.4086 23.745 26.4848C23.9862 26.5514 24.3107 26.4027 24.3583 26.1347C24.7154 24.1242 25.0865 22.1148 25.5307 20.1217C25.8884 18.5169 26.2588 16.8527 27.0549 15.4002C27.3803 14.8067 27.7692 14.2555 28.2294 13.7623C28.6793 13.28 29.2214 12.9118 29.786 12.5713C31.2999 11.6583 33.0459 11.1064 34.8105 11.0158C35.8852 10.9606 36.9784 11.0358 38.03 11.2691C38.4792 11.3688 38.9217 11.497 39.3561 11.6491C39.5612 11.721 39.7639 11.7993 39.9659 11.8793C40.1067 11.9351 40.0159 11.9029 39.9891 11.8885C40.0215 11.9062 40.0533 11.9254 40.0851 11.944L40.2314 12.0286C40.7888 12.3507 41.2915 11.4849 40.7348 11.163Z" fill="#4A3E42"/>
<path d="M47.2844 27.5048C47.5719 29.2697 46.98 31.206 45.7198 32.4737C45.195 33.0015 44.5525 33.4017 43.8476 33.6365C43.0793 33.8924 42.3081 33.9419 41.5047 33.9281C41.0298 33.9199 40.5543 33.9281 40.0794 33.9281C39.4376 33.9281 39.4366 34.9307 40.0794 34.9307C41.404 34.9307 42.7654 35.0341 44.0455 34.6253C45.8692 34.043 47.2173 32.6268 47.8987 30.8498C48.3387 29.7027 48.4434 28.4477 48.2463 27.2383C48.2026 26.9709 47.8727 26.822 47.633 26.8882C47.3504 26.9663 47.241 27.2366 47.2848 27.5048H47.2844Z" fill="#4A3E42"/>
<path d="M41.9436 12.9952C43.4817 13.9603 44.6283 15.6647 45.135 17.3997C45.4392 18.4416 45.6004 19.5206 45.7793 20.5895C45.9667 21.7089 46.2072 22.8143 46.4781 23.9163C46.7659 25.0867 47.0709 26.2524 47.2859 27.4393C47.3341 27.7058 47.6561 27.8566 47.8992 27.7894C48.178 27.7123 48.2958 27.4399 48.2474 27.1727C47.8431 24.94 47.1556 22.7719 46.7761 20.5329C46.5899 19.4344 46.4308 18.3258 46.1302 17.2514C45.8719 16.3281 45.4691 15.4648 44.9441 14.6652C44.2864 13.6636 43.4645 12.768 42.4467 12.1294C41.9008 11.7869 41.3997 12.6539 41.9436 12.9952Z" fill="#4A3E42"/>
<path d="M38.8174 35.2303C40.0332 34.9463 41.0541 34.0727 41.8595 33.1516C42.5478 32.3645 43.1698 31.4803 43.6236 30.5341C43.7405 30.2903 43.69 29.9925 43.4447 29.8481C43.2263 29.7197 42.88 29.783 42.7624 30.028C42.3507 30.8869 41.8005 31.6953 41.1945 32.3963C40.4749 33.2286 39.6077 34.0167 38.5521 34.2634C37.9272 34.4094 38.1917 35.3763 38.8172 35.2303H38.8174Z" fill="#4A3E42"/>
<path d="M43.3402 28.4117C43.3392 28.4203 43.3382 28.4289 43.3369 28.4376L43.3548 28.3044C43.3344 28.4554 43.3008 28.6043 43.2584 28.7505C43.2376 28.8172 43.2347 28.8838 43.2495 28.9504C43.2524 29.0171 43.2721 29.0793 43.3087 29.1368C43.34 29.1953 43.3828 29.242 43.4371 29.2773C43.4853 29.3216 43.5418 29.3515 43.6066 29.3672L43.7391 29.3851C43.8291 29.3849 43.913 29.3619 43.9907 29.3166L44.0917 29.2383C44.1534 29.1758 44.1962 29.1021 44.2199 29.0171C44.2776 28.818 44.3121 28.6175 44.3375 28.4117C44.3399 28.3428 44.3258 28.2783 44.2945 28.2185C44.2743 28.1563 44.24 28.1026 44.1914 28.0573C44.1463 28.0084 44.0927 27.9739 44.031 27.9537C43.9716 27.9223 43.9076 27.9079 43.8389 27.9104L43.7063 27.9284C43.6218 27.9522 43.5484 27.9952 43.4863 28.0573L43.4084 28.1588C43.3633 28.2369 43.3407 28.3213 43.3402 28.4117Z" fill="#4A3E42"/>
<path d="M27.1849 28.5128C27.5667 30.1615 28.3439 31.701 29.4504 32.9772C30.5363 34.2301 31.9798 35.2947 33.6482 35.5464C33.9142 35.5865 34.1842 35.4794 34.2615 35.1964C34.3261 34.9597 34.1811 34.6201 33.9133 34.5797C32.394 34.3506 31.1442 33.4088 30.1555 32.2683C29.161 31.1209 28.4887 29.7243 28.1466 28.2463C28.0011 27.6182 27.0393 27.8841 27.1849 28.5128Z" fill="#4A3E42"/>
<path d="M28.0203 23.7773C27.4467 23.2627 26.6236 23.1428 25.927 23.4795C25.423 23.723 25.1239 24.217 24.9926 24.7486C24.6932 25.9606 24.9938 27.3463 25.679 28.3788C26.1491 29.0871 26.8925 29.7248 27.7958 29.607C28.0627 29.5721 28.2944 29.4014 28.2944 29.1057C28.2944 28.8619 28.0646 28.5693 27.7958 28.6044C27.1297 28.6912 26.6801 28.1517 26.3851 27.6164C26.1362 27.1648 25.9437 26.6398 25.8967 26.1237C25.8498 25.6076 25.8554 25.0139 26.1412 24.5642C26.1606 24.5364 26.1554 24.5418 26.1259 24.5807C26.1404 24.5625 26.1556 24.5448 26.1716 24.5279C26.1842 24.5153 26.2848 24.4211 26.2464 24.4508C26.3351 24.3825 26.4337 24.342 26.5414 24.3161C26.8114 24.2509 27.105 24.2977 27.3154 24.4863C27.7931 24.9147 28.5005 24.2081 28.0203 23.7773Z" fill="#4A3E42"/>
<path d="M44.2279 24.4864C44.4092 24.3228 44.6525 24.2685 44.891 24.2955C45.1119 24.3205 45.2405 24.3976 45.3647 24.5209C45.4389 24.5944 45.3358 24.4668 45.3929 24.552C45.4127 24.5814 45.4318 24.6111 45.4497 24.642C45.4999 24.7291 45.5276 24.8026 45.5575 24.9025C45.6356 25.1625 45.6626 25.4276 45.6647 25.6985C45.6684 26.217 45.5577 26.6959 45.367 27.1755C45.1763 27.6551 44.875 28.193 44.4257 28.4701C43.8795 28.8071 44.3799 29.6745 44.929 29.336C45.6146 28.9132 46.0418 28.1748 46.3287 27.4422C46.5921 26.7697 46.7151 26.0486 46.6424 25.3257C46.5753 24.6575 46.3762 23.9817 45.7993 23.5855C45.1038 23.1076 44.1338 23.227 43.5228 23.7779C43.0439 24.2096 43.7511 24.9167 44.2279 24.4868V24.4864Z" fill="#4A3E42"/>
<path d="M30.7192 37.7846C31.3749 37.5103 32.0696 37.1751 32.4614 36.5499C32.8208 35.9765 32.8424 35.2878 32.8512 34.6297C32.8547 34.3673 32.6193 34.1162 32.3526 34.1284C32.0794 34.1407 31.8577 34.3485 31.854 34.6297C31.8508 34.867 31.839 35.1038 31.8201 35.3403C31.817 35.3785 31.8139 35.4167 31.8101 35.4549C31.8062 35.4938 31.7962 35.5569 31.8081 35.4836C31.7956 35.5604 31.7806 35.6369 31.7582 35.7115C31.7493 35.7411 31.7387 35.7704 31.7283 35.7996C31.6832 35.9268 31.7553 35.7526 31.72 35.8197C31.6869 35.8825 31.6585 35.9467 31.6221 36.0079C31.6078 36.0319 31.593 36.0557 31.5774 36.0791C31.5531 36.1158 31.5249 36.1505 31.5689 36.0964C31.5243 36.1516 31.4759 36.2038 31.4239 36.252C31.4025 36.2719 31.3801 36.2903 31.3581 36.3095C31.421 36.2545 31.3431 36.3203 31.3294 36.3302C31.2685 36.3746 31.2064 36.4173 31.143 36.458C31.0259 36.5334 30.9043 36.6019 30.7803 36.6652C30.7149 36.6984 30.6488 36.7302 30.5821 36.7607C30.5551 36.773 30.5281 36.7851 30.5011 36.7972C30.4934 36.8006 30.3584 36.8578 30.4543 36.8177C30.2146 36.9179 30.016 37.1542 30.1062 37.4343C30.1807 37.6662 30.4616 37.8924 30.7194 37.7844L30.7192 37.7846Z" fill="#4A3E42"/>
<path d="M39.041 34.4373C39.041 35.0742 39.0437 35.7386 39.3115 36.3264C39.6011 36.9624 40.2098 37.3526 40.8225 37.6331C41.0593 37.7416 41.3701 37.7092 41.5047 37.4533C41.6203 37.2333 41.5793 36.8835 41.3259 36.7673C41.0614 36.6462 40.8055 36.5081 40.5699 36.336C40.5499 36.3214 40.4832 36.2664 40.5337 36.3091C40.5061 36.2857 40.4787 36.2621 40.4525 36.237C40.4064 36.1931 40.3634 36.1461 40.3233 36.0966C40.3673 36.1509 40.3393 36.1165 40.3149 36.0795C40.2996 36.0561 40.2846 36.0325 40.2705 36.0083C40.2341 35.9471 40.2057 35.8831 40.1728 35.8203C40.139 35.7553 40.1957 35.8913 40.1728 35.8207C40.1604 35.782 40.1448 35.7447 40.1334 35.7056C40.1122 35.6333 40.0989 35.5596 40.0858 35.4856C40.0802 35.4495 40.0806 35.4526 40.0873 35.495L40.0821 35.4455C40.0796 35.4127 40.076 35.38 40.0733 35.3472C40.0665 35.2653 40.0611 35.1834 40.0561 35.1013C40.043 34.8799 40.0388 34.6589 40.0388 34.4373C40.0388 34.1751 39.8095 33.9239 39.5402 33.936C39.271 33.9481 39.0416 34.1563 39.0416 34.4373H39.041Z" fill="#4A3E42"/>
<path d="M31.1961 40.6895C32.6778 41.3735 34.2251 41.6413 35.8473 41.6445C37.4694 41.6476 39.02 41.3721 40.4984 40.6895C40.7431 40.5765 40.8036 40.2209 40.6773 40.0035C40.5304 39.751 40.2408 39.7102 39.995 39.8237C38.6812 40.4304 37.282 40.6445 35.8473 40.6418C34.4125 40.6391 33.016 40.4317 31.6995 39.8237C31.455 39.7106 31.1627 39.7539 31.0173 40.0035C30.8916 40.2195 30.9504 40.5758 31.1961 40.6895Z" fill="#4A3E42"/>
<path d="M44.1865 28.3032C43.5022 28.3115 42.8918 28.6955 42.6567 29.3518C42.4339 29.9736 42.7042 30.6729 43.2236 31.0454C43.7343 31.4115 44.4805 31.4128 45.0259 31.1281C45.6094 30.8231 45.867 30.1532 45.7603 29.5216C45.6333 28.7709 44.9033 28.312 44.1865 28.3032C43.9256 28.3001 43.6759 28.5359 43.6879 28.8043C43.7002 29.0785 43.9069 29.3023 44.1865 29.3056C44.2198 29.306 44.2528 29.3087 44.2858 29.3092C44.3729 29.3106 44.2605 29.3094 44.2493 29.3018C44.2829 29.3244 44.3598 29.3227 44.4011 29.3344C44.4302 29.3426 44.4583 29.3532 44.4872 29.3624C44.5665 29.3877 44.456 29.3534 44.45 29.3457C44.4757 29.3775 44.5634 29.4052 44.6004 29.4299C44.6122 29.4378 44.692 29.4896 44.6176 29.4407C44.5466 29.394 44.6174 29.4435 44.6305 29.4558C44.6625 29.4857 44.6901 29.5293 44.7238 29.556C44.6419 29.4909 44.675 29.4848 44.702 29.5314C44.7132 29.5508 44.7263 29.5694 44.7373 29.5891C44.7481 29.6083 44.7562 29.6308 44.7682 29.649C44.7847 29.6841 44.777 29.6649 44.745 29.5911C44.7516 29.6081 44.7576 29.625 44.7633 29.6421C44.7761 29.6816 44.7772 29.7394 44.7963 29.7743C44.7926 29.7676 44.7859 29.6417 44.7892 29.7232C44.7903 29.7511 44.7928 29.7789 44.7928 29.8069C44.7928 29.8263 44.7923 29.846 44.7913 29.8654C44.7888 29.9162 44.7595 29.9757 44.798 29.8456C44.7838 29.8934 44.7797 29.9446 44.7651 29.9926C44.7591 30.0127 44.7464 30.0356 44.7439 30.0559C44.7566 29.9561 44.7855 29.9705 44.7577 30.0208C44.7367 30.0588 44.7151 30.0958 44.6926 30.1332C44.6635 30.1814 44.6361 30.1649 44.7165 30.1039C44.7049 30.1127 44.693 30.1313 44.6824 30.1428C44.6648 30.1618 44.6463 30.18 44.6272 30.1975C44.5813 30.2393 44.5563 30.2249 44.6469 30.1852C44.6081 30.2021 44.5721 30.2355 44.5339 30.256C44.5111 30.2683 44.4813 30.2773 44.4601 30.2921C44.4683 30.2865 44.5775 30.2504 44.5013 30.2725C44.455 30.2861 44.4097 30.3018 44.3625 30.3124C44.3374 30.318 44.2966 30.3178 44.274 30.3289L44.3455 30.3189C44.3247 30.3212 44.3037 30.3228 44.2827 30.3241C44.2293 30.3274 44.1755 30.3281 44.1221 30.3258C44.1014 30.3249 44.0806 30.3224 44.0596 30.3216C43.9489 30.317 44.1782 30.3454 44.0712 30.3233C44.023 30.3134 43.9755 30.303 43.9285 30.2886C43.9102 30.283 43.8924 30.2758 43.8741 30.2704C43.7908 30.2451 43.9848 30.3268 43.8649 30.265C43.8242 30.2441 43.7866 30.219 43.748 30.195C43.7098 30.171 43.7239 30.1495 43.7848 30.2249C43.7692 30.2055 43.7434 30.1894 43.7251 30.1716C43.706 30.153 43.6235 30.0515 43.6761 30.1236C43.7295 30.1967 43.6773 30.1229 43.6688 30.1098C43.6543 30.0874 43.6408 30.0645 43.6283 30.0411C43.6026 29.9928 43.6094 29.945 43.6333 30.0632C43.63 30.0469 43.62 30.0281 43.6146 30.012C43.5999 29.9678 43.5907 29.9224 43.5799 29.8771C43.5556 29.7754 43.5855 30.0022 43.5828 29.8959C43.5824 29.8763 43.5803 29.8564 43.5797 29.8368C43.5791 29.8082 43.5793 29.7796 43.5809 29.7511C43.5849 29.6818 43.6142 29.6858 43.5758 29.7752C43.5955 29.7294 43.6028 29.6661 43.6173 29.6179C43.6399 29.5427 43.6032 29.6563 43.5976 29.6626C43.6185 29.6386 43.631 29.5951 43.6478 29.5671C43.6572 29.5517 43.6676 29.537 43.6769 29.5216C43.7243 29.4433 43.5928 29.6091 43.674 29.5264C43.7037 29.4959 43.7623 29.4566 43.7823 29.4203L43.7251 29.4637C43.7401 29.4524 43.7555 29.4414 43.771 29.4309C43.7947 29.4151 43.819 29.4 43.844 29.386C43.8645 29.3745 43.889 29.366 43.9082 29.3526C43.9426 29.3363 43.9254 29.3434 43.8562 29.3735C43.8747 29.3662 43.8934 29.3591 43.9123 29.3528C43.9709 29.3328 44.0307 29.32 44.0912 29.3071C44.1641 29.2914 44.0673 29.3288 44.0538 29.3119C44.0602 29.3198 44.171 29.3056 44.1859 29.3054C44.4466 29.3023 44.6968 29.0771 44.6845 28.8041C44.6725 28.5353 44.4653 28.2994 44.1859 28.3028L44.1865 28.3032Z" fill="#4A3E42"/>
<path d="M30.4534 48.4011C29.7244 47.0853 29.006 45.7637 28.3056 44.4323C28.1347 44.1073 27.9649 43.7819 27.7964 43.4556C27.7206 43.309 27.6452 43.1623 27.57 43.0153C27.5284 42.9343 27.4885 42.8265 27.4358 42.7525C27.387 42.6842 27.409 42.6339 27.3695 42.7337C27.4179 42.6119 27.6178 42.467 27.7092 42.3724C27.8361 42.2408 27.9649 42.1108 28.095 41.9822C28.3659 41.714 28.6422 41.4514 28.9193 41.1901C29.1524 40.9704 29.0911 40.5582 28.8184 40.4028C28.5711 40.2618 28.3239 40.1204 28.0771 39.9786C27.961 39.912 27.8448 39.8451 27.7287 39.7783C27.6707 39.7449 27.6128 39.7114 27.5548 39.678C27.5259 39.6613 27.4969 39.6446 27.468 39.6279C27.4042 39.5861 27.4086 39.5966 27.4809 39.6594L27.549 39.9124C27.5453 40.0241 27.5953 39.8568 27.6217 39.8127C27.6633 39.7432 27.7081 39.6757 27.7547 39.6093C27.8459 39.4794 27.9485 39.3586 28.054 39.2404C28.3202 38.9419 28.6106 38.6658 28.9108 38.4024C29.4626 37.9182 30.052 37.4766 30.6678 37.0781L29.9352 36.7786C30.8464 40.834 31.9693 44.8401 33.2738 48.785C33.4753 49.3943 34.4387 49.1332 34.2355 48.5184C32.931 44.5735 31.8081 40.5674 30.8969 36.512C30.8277 36.2043 30.4272 36.0423 30.1644 36.2125C29.1998 36.8368 28.2579 37.5581 27.4698 38.3995C27.2768 38.6054 27.0963 38.8231 26.9303 39.0518C26.7703 39.2724 26.5682 39.5537 26.5543 39.8334C26.5314 40.2951 26.9274 40.4722 27.269 40.6689C27.6174 40.8695 27.966 41.0694 28.3152 41.2684L28.2142 40.4812C27.9128 40.7654 27.6124 41.051 27.319 41.3436C27.0504 41.6116 26.7091 41.8919 26.5179 42.2234C26.2728 42.6483 26.4637 43.0412 26.6644 43.4337C26.8453 43.7875 27.028 44.1407 27.2118 44.4931C27.9853 45.9753 28.7826 47.4448 29.5929 48.907C29.9053 49.4707 30.7669 48.9657 30.454 48.4008L30.4534 48.4011Z" fill="#4A3E42"/>
<path d="M38.2585 48.7854C39.5428 44.8317 40.6832 40.8371 41.595 36.779L40.8625 37.0785C41.4785 37.4772 42.0683 37.9186 42.6205 38.4028C42.9209 38.6662 43.2117 38.9423 43.4779 39.2408C43.5834 39.359 43.6862 39.4798 43.7774 39.6097C43.824 39.6759 43.8686 39.7436 43.9104 39.8131C43.9362 39.8562 43.9881 40.0254 43.9831 39.9128L44.0513 39.6598C44.0934 39.5784 44.1177 39.6045 44.0203 39.6534C43.9607 39.6832 43.9035 39.7204 43.8458 39.7536C43.7149 39.8288 43.5842 39.9038 43.4533 39.979C43.2067 40.1206 42.9601 40.262 42.7135 40.4032C42.4408 40.5595 42.3797 40.9701 42.6126 41.1905C42.877 41.4407 43.1407 41.6916 43.3997 41.9475C43.5298 42.0759 43.6588 42.2057 43.7862 42.337C43.889 42.4432 44.1032 42.5977 44.1603 42.7341C44.1275 42.656 44.1663 42.6414 44.0941 42.7529C44.0502 42.8206 44.0188 42.9002 43.9823 42.9718C43.8996 43.1333 43.8167 43.2948 43.7334 43.456C43.5649 43.7823 43.3952 44.1077 43.2244 44.4327C42.5251 45.7637 41.8073 47.0847 41.0783 48.3994C40.7655 48.9635 41.6264 49.4697 41.9395 48.9055C42.7499 47.4444 43.546 45.9753 44.3186 44.4937C44.5025 44.1413 44.6849 43.7881 44.8658 43.4343C45.0605 43.0537 45.2498 42.6777 45.0329 42.2589C44.8598 41.9247 44.5089 41.6423 44.2465 41.3793C43.9424 41.0746 43.6306 40.7775 43.3179 40.4816L43.2169 41.2688C43.5653 41.0693 43.9137 40.8692 44.2619 40.6693C44.6032 40.4732 45.0032 40.2967 44.977 39.8338C44.9616 39.5625 44.774 39.2939 44.6201 39.0779C44.4499 38.8393 44.2621 38.6133 44.0618 38.3999C43.2732 37.5587 42.3307 36.8374 41.3656 36.2129C41.1028 36.0429 40.7023 36.2047 40.6331 36.5124C39.7213 40.5705 38.5809 44.5652 37.2966 48.5188C37.097 49.1336 38.0597 49.397 38.2585 48.7854Z" fill="#4A3E42"/>
<path d="M21.5005 62.4509C20.588 62.3579 19.6102 62.0883 18.9217 61.4497C18.2213 60.8005 17.6891 59.9867 17.5117 59.0386C17.3168 57.9965 17.5636 56.9206 17.7516 55.8962C17.9646 54.7355 18.2213 53.5833 18.5066 52.4384C19.0779 50.1466 19.762 47.8855 20.4358 45.6225C20.7146 44.6867 20.9751 43.7637 21.5181 42.9411C21.9619 42.2687 22.5422 41.6815 23.1802 41.194C24.8864 39.8906 26.9517 39.1186 28.9251 38.3303C29.1752 38.2304 29.3504 37.995 29.2733 37.7137C29.2079 37.4745 28.9116 37.2629 28.66 37.3636C26.7477 38.1275 24.769 38.8706 23.0626 40.0494C22.3097 40.5695 21.6116 41.1736 21.0468 41.8984C20.4198 42.7028 19.9949 43.6112 19.7024 44.5881C18.9867 46.9783 18.2589 49.3675 17.6423 51.7859C17.3344 52.9932 17.0565 54.2087 16.8263 55.4334C16.6123 56.5728 16.3441 57.7567 16.4916 58.9202C16.6489 60.1614 17.2605 61.2402 18.1559 62.1019C19.0602 62.9723 20.2804 63.3294 21.5003 63.4537C21.7685 63.4811 21.9989 63.2037 21.9989 62.9524C21.9989 62.6585 21.7693 62.4785 21.5003 62.4511L21.5005 62.4509Z" fill="#4A3E42"/>
<path d="M50.2323 63.4448C51.3178 63.3199 52.4076 63.0197 53.2634 62.3081C54.0962 61.6154 54.7876 60.6128 55.0475 59.5536C55.334 58.3857 55.1423 57.2358 54.9401 56.0726C54.7239 54.8275 54.4554 53.5919 54.1534 52.3652C53.549 49.9098 52.8117 47.4908 52.0914 45.068C51.7939 44.0674 51.4615 43.0861 50.8512 42.2289C50.3068 41.4648 49.6402 40.8241 48.8902 40.2669C48.0139 39.6158 47.0422 39.1051 46.0542 38.6495C45.507 38.3972 44.9523 38.1616 44.3955 37.9314C44.0992 37.809 43.8024 37.6886 43.5051 37.5692C43.246 37.4649 42.9034 37.2515 42.6223 37.2515C41.9806 37.2515 41.9795 38.2541 42.6223 38.2541C42.4991 38.2541 42.647 38.2948 42.6595 38.3032C42.7169 38.3418 42.8033 38.3606 42.8679 38.3865C42.9919 38.4362 43.1159 38.4859 43.24 38.5359C43.4839 38.634 43.7276 38.7324 43.9706 38.8323C44.4258 39.019 44.8787 39.2105 45.3272 39.413C46.1709 39.7937 47.0024 40.2102 47.7814 40.7134C49.2195 41.6423 50.3598 42.9 50.8948 44.5537C51.6221 46.8021 52.2682 49.0922 52.8715 51.3772C53.1682 52.501 53.4422 53.631 53.6787 54.7692C53.8006 55.3561 53.9124 55.9452 54.0125 56.5363C54.1031 57.0715 54.2034 57.6089 54.209 58.1532C54.2149 58.7043 54.1343 59.2532 53.9377 59.7696C53.7466 60.2715 53.4055 60.7225 53.0508 61.1195C52.3139 61.9442 51.3124 62.3179 50.2323 62.4422C49.9647 62.4729 49.7337 62.6506 49.7337 62.9435C49.7337 63.1906 49.963 63.4757 50.2323 63.4448Z" fill="#4A3E42"/>
<path d="M21.9233 48.157C21.5412 48.1804 21.1883 48.3508 20.9842 48.6884C20.8407 48.9259 20.823 49.1864 20.8243 49.4558C20.8257 49.7844 20.8282 50.113 20.8307 50.4415C20.8378 51.3266 20.8471 52.2114 20.8573 53.0962C20.8833 55.3705 20.9146 57.6445 20.9498 59.9186C20.984 62.1323 21.021 64.3462 21.0682 66.5597C21.0775 67.0013 21.0875 67.4429 21.0983 67.8843C21.1081 68.2832 21.0721 68.7214 21.149 69.1139C21.2601 69.6815 21.7664 70.0021 22.3141 70.0002C22.4362 69.9998 22.5584 69.9979 22.6805 69.9971C23.6846 69.9904 24.6887 69.9889 25.6927 69.987C27.3028 69.9839 28.9131 69.9822 30.5232 69.981C32.4158 69.9795 34.3086 69.9791 36.2012 69.9791C38.0847 69.9791 39.9682 69.9799 41.8514 69.9814C43.3994 69.9827 44.9474 69.9843 46.4953 69.9879C47.4125 69.99 48.33 69.9906 49.2472 69.9985C49.4549 70.0004 49.6558 70.0069 49.8578 69.9394C50.2134 69.8204 50.4864 69.5127 50.5735 69.1478C50.6223 68.9431 50.6096 68.7179 50.6152 68.5082C50.6385 67.6338 50.6574 66.7594 50.6751 65.8851C50.7214 63.6072 50.7586 61.3292 50.7927 59.0511C50.8259 56.8301 50.8558 54.6089 50.8799 52.3877C50.8886 51.5701 50.8969 50.7523 50.9023 49.9346C50.905 49.5348 50.9643 49.0771 50.7613 48.7174C50.5311 48.3091 50.1131 48.1574 49.6698 48.1564C48.8107 48.1543 47.9516 48.1543 47.0926 48.1537C45.5733 48.1528 44.0538 48.1524 42.5345 48.152C40.6685 48.1516 38.8025 48.1514 36.9365 48.1514C35.0158 48.1514 33.0951 48.1514 31.1745 48.1516C29.49 48.1518 27.8056 48.1522 26.1209 48.1528C24.9878 48.1532 23.855 48.1537 22.7219 48.1551C22.4558 48.1555 22.1894 48.1558 21.9233 48.1566C21.2817 48.1587 21.2805 49.1613 21.9233 49.1592C22.6612 49.1567 23.3994 49.1569 24.1373 49.1565C25.5423 49.1555 26.9475 49.155 28.3526 49.1548C30.1345 49.1544 31.9166 49.1542 33.6984 49.154C35.595 49.154 37.4916 49.154 39.3883 49.154C41.1106 49.154 42.8329 49.1544 44.5549 49.155C45.8218 49.1555 47.0886 49.1559 48.3555 49.1571C48.7291 49.1575 49.1026 49.1578 49.4761 49.1584C49.5786 49.1584 49.7005 49.1402 49.8013 49.1592C49.9918 49.1949 49.9068 49.6582 49.9058 49.8218C49.8945 51.6123 49.8723 53.4026 49.8493 55.1929C49.8195 57.5006 49.7857 59.8081 49.747 62.1156C49.7138 64.1002 49.6787 66.085 49.6292 68.0693C49.6247 68.2502 49.6201 68.4311 49.6151 68.612C49.6124 68.7102 49.6484 68.9203 49.5621 68.9819C49.4973 69.0283 49.3139 68.9961 49.2326 68.9955C48.8782 68.9926 48.5236 68.9911 48.1692 68.9899C46.9384 68.9853 45.7077 68.9832 44.477 68.9815C42.7728 68.9792 41.0684 68.9777 39.3642 68.9771C37.4803 68.9763 35.5965 68.9761 33.7126 68.9767C31.9384 68.9771 30.1644 68.9782 28.3902 68.9802C27.0153 68.9817 25.6404 68.9836 24.2655 68.9878C23.8198 68.989 23.3742 68.9905 22.9288 68.993C22.7798 68.9938 22.6311 68.9947 22.4821 68.9959C22.4005 68.9965 22.2268 69.0262 22.1647 68.9784C22.0751 68.9096 22.1159 68.6778 22.113 68.5708C22.108 68.3885 22.1034 68.2061 22.0988 68.0238C22.0882 67.5991 22.0787 67.1743 22.0695 66.7496C22.0477 65.7455 22.0286 64.7414 22.0105 63.7374C21.969 61.4309 21.9335 59.1242 21.9017 56.8178C21.8743 54.8257 21.8489 52.8336 21.8312 50.8413C21.8283 50.5077 21.8256 50.1744 21.8236 49.8408C21.8227 49.7025 21.7405 49.1709 21.9233 49.1596C22.5609 49.1206 22.5652 48.1177 21.9233 48.157Z" fill="#4A3E42"/>
<path d="M24.1611 67.4814C27.0241 67.4637 29.8876 67.4787 32.7506 67.4875C36.22 67.4982 39.6893 67.4823 43.1589 67.4768C44.5276 67.4748 45.8965 67.4729 47.2654 67.4814C47.9071 67.4854 47.9079 66.4828 47.2654 66.4788C44.4655 66.4613 41.6652 66.4763 38.8651 66.4853C35.3616 66.4964 31.8585 66.4794 28.355 66.4744C26.957 66.4723 25.5591 66.4703 24.1613 66.479C23.5198 66.483 23.5185 67.4856 24.1613 67.4816L24.1611 67.4814Z" fill="#4A3E42"/>
<path d="M33.9767 57.5306C33.9759 57.9231 33.9755 58.3156 33.9763 58.7081C33.9771 59.1507 33.9167 59.637 34.2584 59.9785C34.59 60.3098 35.0454 60.2553 35.4723 60.2548C35.8567 60.2544 36.241 60.2546 36.6255 60.2555C36.8514 60.2561 37.0693 60.2471 37.2723 60.1331C37.4908 60.01 37.6707 59.7824 37.7256 59.535C37.7719 59.3262 37.7559 59.1018 37.7565 58.889C37.7572 58.6822 37.7574 58.4756 37.7574 58.2688C37.7574 58.08 37.7574 57.8912 37.757 57.7021C37.7565 57.4659 37.7445 57.2361 37.6142 57.0295C37.4669 56.796 37.2249 56.6316 36.9519 56.5946C36.7726 56.5704 36.5908 56.5792 36.4103 56.5792C35.9815 56.5792 35.5525 56.5792 35.1237 56.5792C34.8738 56.5792 34.6272 56.5863 34.4111 56.7325C34.1379 56.9174 33.9917 57.2023 33.9771 57.5306C33.9655 57.793 34.2148 58.0436 34.4757 58.0319C34.7558 58.0194 34.9619 57.8116 34.9743 57.5306C34.9799 57.4032 34.9448 57.6321 34.982 57.5143L34.9619 57.5668C34.9914 57.5204 34.9866 57.5246 34.9475 57.5797C34.9804 57.5588 35.0028 57.5536 34.9292 57.5877C35.0323 57.5398 34.8279 57.5893 34.944 57.5785C34.8031 57.5916 34.9953 57.582 35.0302 57.582C35.1075 57.582 35.1848 57.582 35.2621 57.582C35.5814 57.582 35.9005 57.582 36.2198 57.582C36.3688 57.582 36.5179 57.582 36.6669 57.582C36.7093 57.582 36.8094 57.5657 36.848 57.5837L36.7901 57.5785C36.8433 57.5958 36.8377 57.5925 36.7735 57.5689C36.8757 57.6111 36.7024 57.5262 36.7865 57.5799L36.7533 57.5356C36.7799 57.5839 36.7795 57.5768 36.7519 57.5146C36.7878 57.6284 36.7622 57.4072 36.7595 57.5308C36.7581 57.5945 36.7597 57.6585 36.76 57.7224C36.7602 57.8818 36.7604 58.0409 36.7604 58.2003C36.7604 58.5297 36.7602 58.8591 36.7583 59.1883C36.7583 59.2033 36.7676 59.2975 36.7575 59.3067L36.7683 59.2503C36.7639 59.275 36.7575 59.2992 36.7489 59.3228C36.7708 59.3017 36.7633 59.2259 36.7498 59.3013L36.7826 59.2568C36.7427 59.2942 36.7487 59.2915 36.8005 59.2487C36.6862 59.2787 36.8796 59.2355 36.8034 59.252C36.7302 59.2677 36.9289 59.2568 36.8048 59.2535C36.7325 59.2516 36.66 59.2531 36.5877 59.2528C36.2738 59.2522 35.9599 59.252 35.646 59.2522C35.4923 59.2522 35.3385 59.2524 35.185 59.2528C35.1227 59.2528 35.0603 59.2531 34.998 59.2533C34.9733 59.2533 34.9118 59.2633 34.8902 59.252C34.9536 59.2618 34.9671 59.2618 34.9303 59.252C34.8948 59.2407 34.9062 59.246 34.9644 59.2675C34.8522 59.2198 35.0502 59.3243 34.9509 59.257C34.9897 59.3122 34.9943 59.3166 34.9648 59.2702L34.9847 59.3228L34.9737 59.2871C34.9617 59.2315 34.9627 59.238 34.9764 59.3067C34.9615 59.2932 34.9756 59.1699 34.9754 59.1474C34.9745 58.9704 34.9741 58.7933 34.9737 58.6164C34.9733 58.2546 34.9737 57.8928 34.9743 57.5311C34.975 57.2689 34.7446 57.0176 34.4757 57.0297C34.205 57.0419 33.9777 57.2499 33.9771 57.5311L33.9767 57.5306Z" fill="#4A3E42"/>
<path d="M39.4892 17.7152C38.32 18.7533 37.148 19.6295 35.7738 20.4068C33.8737 21.4815 31.9208 22.431 29.8506 23.1239C29.1731 23.3505 28.4929 23.5694 27.8142 23.7925C27.2069 23.9922 27.4668 24.9606 28.0793 24.7594C29.6858 24.2314 31.3015 23.7317 32.8461 23.0351C33.9165 22.5524 34.9621 22.0016 35.9896 21.4332C36.7136 21.0328 37.4248 20.6075 38.0991 20.1269C38.8325 19.6041 39.521 19.0219 40.1943 18.4241C40.6763 17.9961 39.9689 17.2893 39.4892 17.7152Z" fill="#4A3E42"/>
<path d="M39.4893 18.4239C41.0152 20.3517 42.317 22.4737 43.3387 24.7116C43.4511 24.9577 43.8049 25.0185 44.021 24.8915C44.2724 24.7436 44.3127 24.4526 44.1999 24.2055C43.1407 21.8857 41.7752 19.7119 40.1944 17.7148C40.0265 17.5028 39.6644 17.5385 39.4893 17.7148C39.2809 17.9243 39.321 18.2113 39.4893 18.4237V18.4239Z" fill="#4A3E42"/>
<path d="M62.2216 58.1159V54.7005L61.723 55.2018C62.7134 55.2018 63.7035 55.2018 64.6939 55.2018C66.9517 55.2018 69.2095 55.2018 71.4674 55.2018C74.1702 55.2018 76.8731 55.2018 79.5759 55.2018C81.9291 55.2018 84.2823 55.2018 86.6355 55.2018C87.4215 55.2018 88.2076 55.2018 88.9935 55.2018C89.3864 55.2018 89.7865 55.2244 90.1789 55.2018C90.2032 55.2003 90.228 55.2018 90.2523 55.2018L89.7537 54.7005C89.7537 55.8389 89.7537 56.9773 89.7537 58.1159L90.2523 57.6146C88.5541 57.6146 86.856 57.6146 85.1578 57.6146C82.7751 57.6146 80.3926 57.6146 78.0099 57.6146H64.5599C63.63 57.6146 62.6926 57.5797 61.7631 57.6146C61.7498 57.615 61.7363 57.6146 61.723 57.6146C61.0813 57.6146 61.0802 58.6172 61.723 58.6172H90.2523C90.5217 58.6172 90.7509 58.3874 90.7509 58.1159C90.7509 56.9775 90.7509 55.8391 90.7509 54.7005C90.7509 54.4296 90.5224 54.1992 90.2523 54.1992C89.2688 54.1992 88.2855 54.1992 87.302 54.1992C85.0477 54.1992 82.7934 54.1992 80.5391 54.1992C77.8364 54.1992 75.1338 54.1992 72.4311 54.1992C70.0748 54.1992 67.7185 54.1992 65.3622 54.1992C64.1757 54.1992 62.9857 54.1718 61.7995 54.1992C61.7741 54.1998 61.7486 54.1992 61.7232 54.1992C61.4538 54.1992 61.2246 54.4289 61.2246 54.7005V58.1159C61.2246 58.7611 62.2218 58.7622 62.2218 58.1159H62.2216Z" fill="#4A3E42"/>
<path d="M86.3555 48.33C86.3555 50.3223 86.3555 52.3146 86.3555 54.3069C86.3555 54.9521 87.3527 54.9532 87.3527 54.3069C87.3527 52.3146 87.3527 50.3223 87.3527 48.33C87.3527 47.6848 86.3555 47.6837 86.3555 48.33Z" fill="#4A3E42"/>
<path d="M60.5032 50.8019C61.5257 50.8019 62.5481 50.8019 63.5706 50.8019C65.382 50.8019 67.1936 50.8019 69.005 50.8019C71.09 50.8019 73.1752 50.8019 75.2602 50.8019H80.8822C82.0298 50.8019 83.1774 50.8019 84.325 50.8019H84.5251C85.1668 50.8019 85.1679 49.7993 84.5251 49.7993C83.5025 49.7993 82.4802 49.7993 81.4576 49.7993H76.0233C73.9383 49.7993 71.8531 49.7993 69.7681 49.7993C67.8942 49.7993 66.0202 49.7993 64.1461 49.7993C62.9985 49.7993 61.8509 49.7993 60.7032 49.7993H60.5032C59.8614 49.7993 59.8604 50.8019 60.5032 50.8019Z" fill="#4A3E42"/>
<path d="M60.5032 52.9689C61.5257 52.9689 62.5481 52.9689 63.5706 52.9689H69.005C71.09 52.9689 73.1752 52.9689 75.2602 52.9689C77.1341 52.9689 79.008 52.9689 80.8822 52.9689C82.0298 52.9689 83.1774 52.9689 84.325 52.9689H84.5251C85.1668 52.9689 85.1679 51.9663 84.5251 51.9663C83.5025 51.9663 82.4802 51.9663 81.4576 51.9663H76.0233C73.9383 51.9663 71.8531 51.9663 69.7681 51.9663H64.1461C62.9985 51.9663 61.8509 51.9663 60.7032 51.9663H60.5032C59.8614 51.9663 59.8604 52.9689 60.5032 52.9689Z" fill="#4A3E42"/>
<path d="M61.7242 54.1995C60.5265 54.1995 59.3288 54.1995 58.1311 54.1995L58.6297 54.7008C58.6297 52.714 58.6302 50.7269 58.6289 48.74C58.6289 48.5157 58.63 48.2916 58.6281 48.0672L58.1295 48.5685C59.3278 48.5685 60.5261 48.5685 61.7242 48.5685C62.3659 48.5685 62.367 47.5659 61.7242 47.5659C60.5259 47.5659 59.3276 47.5659 58.1295 47.5659C57.8617 47.5659 57.6286 47.7957 57.6309 48.0672C57.6454 49.7489 57.6325 51.4312 57.6325 53.1129C57.6325 53.6422 57.6325 54.1715 57.6325 54.7008C57.6325 54.9718 57.8611 55.2021 58.1311 55.2021C59.3288 55.2021 60.5265 55.2021 61.7242 55.2021C62.3659 55.2021 62.367 54.1995 61.7242 54.1995Z" fill="#4A3E42"/>
<path d="M88.0969 58.4449C88.0969 61.5756 88.0969 64.7063 88.0969 67.837L88.5955 67.3357H61.0429C60.6727 67.3357 60.2891 67.3066 59.9196 67.3357C59.9034 67.3369 59.8865 67.3357 59.8703 67.3357L60.3689 67.837C60.3689 64.5968 60.3689 61.3567 60.3683 58.1165L59.8697 58.6179C60.4869 58.6179 61.1044 58.6179 61.7216 58.6179C62.3633 58.6179 62.3644 57.6152 61.7216 57.6152C61.1044 57.6152 60.4869 57.6152 59.8697 57.6152C59.6002 57.6152 59.3711 57.845 59.3711 58.1165C59.3719 61.3567 59.3717 64.5968 59.3717 67.837C59.3717 68.1079 59.6002 68.3383 59.8703 68.3383H62.7261C65.0122 68.3383 67.2985 68.3383 69.5846 68.3383H85.0577C86.2182 68.3383 87.3862 68.3765 88.5463 68.3383C88.5627 68.3377 88.5791 68.3383 88.5955 68.3383C88.865 68.3383 89.0941 68.1085 89.0941 67.837C89.0941 64.7063 89.0941 61.5756 89.0941 58.4449C89.0941 57.7997 88.0969 57.7986 88.0969 58.4449Z" fill="#4A3E42"/>
<path d="M62.0266 63.4782C63.1229 63.4782 64.2194 63.4782 65.3157 63.4782C67.1192 63.4782 68.9227 63.4782 70.7262 63.4782C72.7958 63.4782 74.8657 63.4782 76.9353 63.4782H82.5172C83.7283 63.4782 84.9395 63.4782 86.1505 63.4782H86.3969C87.0387 63.4782 87.0397 62.4756 86.3969 62.4756C85.3006 62.4756 84.2041 62.4756 83.1078 62.4756H77.6973C75.6277 62.4756 73.5579 62.4756 71.4883 62.4756C69.6276 62.4756 67.767 62.4756 65.9064 62.4756C64.6952 62.4756 63.484 62.4756 62.273 62.4756H62.0266C61.3849 62.4756 61.3838 63.4782 62.0266 63.4782Z" fill="#4A3E42"/>
<path d="M62.0266 61.1135C63.1229 61.1135 64.2194 61.1135 65.3157 61.1135C67.1192 61.1135 68.9227 61.1135 70.7262 61.1135C72.7958 61.1135 74.8657 61.1135 76.9353 61.1135H82.5172C83.7283 61.1135 84.9395 61.1135 86.1505 61.1135H86.3969C87.0387 61.1135 87.0397 60.1108 86.3969 60.1108C85.3006 60.1108 84.2041 60.1108 83.1078 60.1108H77.6973C75.6277 60.1108 73.5579 60.1108 71.4883 60.1108C69.6276 60.1108 67.767 60.1108 65.9064 60.1108C64.6952 60.1108 63.484 60.1108 62.273 60.1108H62.0266C61.3849 60.1108 61.3838 61.1135 62.0266 61.1135Z" fill="#4A3E42"/>
<path d="M62.0266 65.82C63.0326 65.82 64.0385 65.82 65.0444 65.82C66.7816 65.82 68.5187 65.82 70.2559 65.82C72.2453 65.82 74.2347 65.82 76.2242 65.82H81.6128C82.7363 65.82 83.8599 65.82 84.9832 65.82H85.1994C85.8412 65.82 85.8422 64.8174 85.1994 64.8174C84.1935 64.8174 83.1876 64.8174 82.1816 64.8174H76.9702C74.9808 64.8174 72.9913 64.8174 71.0019 64.8174C69.2057 64.8174 67.4095 64.8174 65.6132 64.8174C64.4897 64.8174 63.3662 64.8174 62.2429 64.8174H62.0266C61.3849 64.8174 61.3838 65.82 62.0266 65.82Z" fill="#4A3E42"/>
<path d="M88.05 42.1996V40.4701C88.05 40.1991 87.8215 39.9688 87.5514 39.9688C86.8184 39.9688 86.0855 39.9688 85.3525 39.9688C85.0918 39.9688 84.8419 40.1994 84.8539 40.4701C84.866 40.7408 85.0731 40.9714 85.3525 40.9714C86.0855 40.9714 86.8184 40.9714 87.5514 40.9714L87.0528 40.4701V42.1996C87.0528 42.4617 87.2821 42.713 87.5514 42.7009C87.8206 42.6888 88.05 42.4805 88.05 42.1996Z" fill="#4A3E42"/>
<path d="M86.4648 38.2805V40.4698C86.4648 40.732 86.6942 40.9832 86.9635 40.9711C87.2327 40.959 87.4621 40.7508 87.4621 40.4698V38.2805C87.4621 38.0184 87.2327 37.7671 86.9635 37.7792C86.6942 37.7913 86.4648 37.9996 86.4648 38.2805Z" fill="#4A3E42"/>
<path d="M58.3262 40.47V42.4617C58.3262 42.7326 58.5547 42.963 58.8248 42.963C59.8737 42.963 60.9224 42.963 61.9714 42.963C62.2321 42.963 62.482 42.7324 62.47 42.4617C62.4579 42.191 62.2508 41.9604 61.9714 41.9604C60.9224 41.9604 59.8737 41.9604 58.8248 41.9604L59.3234 42.4617V40.47C59.3234 40.2078 59.094 39.9566 58.8248 39.9687C58.5555 39.9808 58.3262 40.189 58.3262 40.47Z" fill="#4A3E42"/>
<path d="M61.1334 37.7793C60.1679 37.7793 59.2025 37.7793 58.2369 37.7793C57.9674 37.7793 57.7383 38.0091 57.7383 38.2806V40.4699C57.7383 40.7408 57.9668 40.9712 58.2369 40.9712C59.2698 40.9712 60.3028 40.9712 61.3357 40.9712C63.1882 40.9712 65.041 40.9712 66.8935 40.9712C69.0308 40.9712 71.1684 40.9712 73.3057 40.9712C75.2235 40.9712 77.1414 40.9712 79.0592 40.9712C80.2228 40.9712 81.3864 40.9712 82.5501 40.9712C82.6161 40.9712 82.682 40.9712 82.748 40.9712C83.3898 40.9712 83.3908 39.9686 82.748 39.9686C81.7151 39.9686 80.6822 39.9686 79.6492 39.9686C77.7967 39.9686 75.944 39.9686 74.0914 39.9686C71.9541 39.9686 69.8165 39.9686 67.6792 39.9686C65.7614 39.9686 63.8435 39.9686 61.9257 39.9686C60.7621 39.9686 59.5985 39.9686 58.4349 39.9686C58.3688 39.9686 58.303 39.9686 58.2369 39.9686L58.7355 40.4699V38.2806L58.2369 38.7819C59.2023 38.7819 60.1677 38.7819 61.1334 38.7819C61.7751 38.7819 61.7761 37.7793 61.1334 37.7793Z" fill="#4A3E42"/>
<path d="M59.6883 35.1467C64.5004 35.1467 69.3128 35.1467 74.1249 35.1467C77.9885 35.1467 81.852 35.1467 85.7156 35.1467C86.455 35.1467 87.1944 35.1467 87.9338 35.1467L87.4352 34.6454V38.2807L87.9338 37.7794C83.1037 37.7794 78.2737 37.7794 73.4437 37.7794C69.5943 37.7794 65.7448 37.7794 61.8956 37.7794C61.1598 37.7794 60.4239 37.7794 59.6881 37.7794L60.1867 38.2807C60.1867 37.069 60.1867 35.8573 60.1867 34.6454C60.1867 34.0001 59.1895 33.9991 59.1895 34.6454C59.1895 35.8571 59.1895 37.0688 59.1895 38.2807C59.1895 38.5516 59.418 38.782 59.6881 38.782C61.8262 38.782 63.9642 38.782 66.1024 38.782C70.7074 38.782 75.3122 38.782 79.9172 38.782C82.5893 38.782 85.2617 38.782 87.9338 38.782C88.2032 38.782 88.4324 38.5522 88.4324 38.2807V34.6454C88.4324 34.3744 88.2038 34.144 87.9338 34.144C85.7943 34.1445 83.6549 34.144 81.5157 34.144C76.9036 34.144 72.2917 34.144 67.6796 34.144C65.0158 34.144 62.3518 34.144 59.6881 34.144C59.0463 34.144 59.0453 35.1467 59.6881 35.1467H59.6883Z" fill="#4A3E42"/>
<path d="M61.9734 42.9631C66.7856 42.9631 71.5979 42.9631 76.4101 42.9631C80.2736 42.9631 84.1372 42.9631 88.0007 42.9631C88.7401 42.9631 89.4795 42.9631 90.2189 42.9631L89.7203 42.4618V48.0675L90.2189 47.5662C85.3889 47.5662 80.5589 47.5662 75.7289 47.5662C71.8794 47.5662 68.03 47.5662 64.1808 47.5662C63.4449 47.5662 62.7091 47.5662 61.9732 47.5662L62.4718 48.0675C62.4718 46.1988 62.4718 44.3304 62.4718 42.4618C62.4718 41.8165 61.4746 41.8155 61.4746 42.4618C61.4746 44.3304 61.4746 46.1988 61.4746 48.0675C61.4746 48.3384 61.7031 48.5688 61.9732 48.5688C64.1114 48.5688 66.2494 48.5688 68.3875 48.5688C72.9926 48.5688 77.5974 48.5688 82.2024 48.5688C84.8745 48.5688 87.5468 48.5688 90.2189 48.5688C90.4884 48.5688 90.7175 48.339 90.7175 48.0675V42.4618C90.7175 42.1908 90.489 41.9604 90.2189 41.9604C88.0795 41.9609 85.9401 41.9604 83.8008 41.9604C79.1888 41.9604 74.5769 41.9604 69.9648 41.9604C67.301 41.9604 64.637 41.9604 61.9732 41.9604C61.3315 41.9604 61.3306 42.9631 61.9734 42.9631Z" fill="#4A3E42"/>
<path d="M66.4688 42.4623V48.0681C66.4688 48.7133 67.466 48.7143 67.466 48.0681V47.8537C67.466 47.2085 66.4688 47.2075 66.4688 47.8537V48.0681C66.4688 48.7133 67.466 48.7143 67.466 48.0681V42.4623C67.466 41.8171 66.4688 41.8161 66.4688 42.4623Z" fill="#4A3E42"/>
<path d="M64.3281 42.5097V48.0197C64.3281 48.665 65.3253 48.666 65.3253 48.0197V42.5097C65.3253 41.8645 64.3281 41.8634 64.3281 42.5097Z" fill="#4A3E42"/>
<path d="M87.5324 44.0658V46.4631L88.031 45.9618H78.8017L79.3003 46.4631C79.3003 45.6639 79.3021 44.8649 79.298 44.0658L78.7994 44.5671C81.8766 44.5671 84.9538 44.5671 88.031 44.5671C88.6728 44.5671 88.6738 43.5645 88.031 43.5645C84.9538 43.5645 81.8766 43.5645 78.7994 43.5645C78.531 43.5645 78.2993 43.7942 78.3008 44.0658C78.3052 44.8649 78.3031 45.6639 78.3031 46.4631C78.3031 46.734 78.5316 46.9644 78.8017 46.9644H88.031C88.3005 46.9644 88.5296 46.7346 88.5296 46.4631V44.0658C88.5296 43.4205 87.5324 43.4195 87.5324 44.0658Z" fill="#4A3E42"/>
</g>
</svg>
