<svg width="162" height="13" viewBox="0 0 162 13" fill="none" xmlns="http://www.w3.org/2000/svg">
<path d="M139.994 0.0268555C141.209 0.418355 144.111 0.958356 145.299 1.07986L144.975 2.37586C143.652 2.20036 140.696 1.59286 139.656 1.32286L139.994 0.0268555ZM139.859 2.60536C139.683 3.44236 139.44 5.29186 139.319 6.11536C140.588 5.08936 142.005 4.63036 143.544 4.63036C145.731 4.63036 147.108 5.96686 147.108 7.57336C147.108 10.0034 145.056 11.7449 139.778 11.2994L139.373 9.90886C143.544 10.4489 145.65 9.32836 145.65 7.53286C145.65 6.54736 144.719 5.83186 143.436 5.83186C141.762 5.83186 140.345 6.45286 139.44 7.54636C139.224 7.80286 139.089 8.01886 138.995 8.26186L137.753 7.95136C138.023 6.68236 138.347 3.92836 138.428 2.40286L139.859 2.60536Z" fill="white"/>
<path d="M129.697 0.0811718C129.576 0.499672 129.495 0.931672 129.414 1.32317C129.211 2.40317 128.725 4.73867 128.293 5.99417C129.427 5.26517 130.575 4.96817 131.898 4.96817C134.058 4.96817 135.394 6.08867 135.394 7.73567C135.394 10.6517 132.492 11.7182 128.28 11.2592L127.915 9.89567C130.966 10.3547 133.977 9.89567 133.977 7.77617C133.977 6.85817 133.207 6.11567 131.736 6.11567C130.156 6.11567 128.712 6.66917 127.861 7.72217C127.699 7.92467 127.591 8.10017 127.456 8.32967L126.201 7.88417C127.213 5.89967 127.942 2.57867 128.118 1.24217C128.185 0.742672 128.199 0.418671 128.172 0.0136719L129.697 0.0811718ZM125.269 1.74167C126.052 1.87667 127.105 1.98467 127.929 1.98467C129.657 1.98467 132.276 1.78217 134.436 1.30967L134.463 2.59217C132.64 2.90267 129.846 3.19967 127.942 3.19967C126.984 3.19967 126.066 3.14567 125.283 3.06467L125.269 1.74167Z" fill="white"/>
<path d="M114.516 1.12026C115.502 1.22826 116.744 1.28226 118.134 1.28226C119.444 1.28226 120.888 1.20126 121.887 1.09326V2.49726C120.956 2.57826 119.403 2.65926 118.134 2.65926C116.757 2.65926 115.596 2.60526 114.516 2.51076V1.12026ZM115.313 6.68226C115.164 7.19526 115.056 7.65426 115.056 8.14026C115.056 9.09876 116.015 9.77376 118.08 9.77376C119.916 9.77376 121.658 9.57126 122.751 9.23376L122.765 10.7188C121.698 10.9888 120.024 11.1778 118.121 11.1778C115.232 11.1778 113.652 10.2193 113.652 8.45076C113.652 7.72176 113.814 7.07376 113.922 6.54726L115.313 6.68226Z" fill="white"/>
<path d="M103.963 2.61885C104.733 2.69985 105.475 2.74035 106.285 2.74035C107.919 2.74035 109.593 2.60535 110.97 2.32185V3.64485C109.539 3.87435 107.878 3.98235 106.272 3.98235C105.489 3.98235 104.76 3.95535 103.963 3.90135V2.61885ZM108.864 0.269848C108.823 0.526347 108.796 0.823348 108.783 1.10685C108.756 1.57935 108.742 2.52435 108.742 3.40185C108.742 5.65635 108.945 7.60035 108.945 8.95035C108.945 10.1923 108.351 11.2453 106.474 11.2453C104.638 11.2453 103.572 10.5028 103.572 9.19335C103.572 7.96485 104.652 7.04685 106.447 7.04685C108.837 7.04685 110.443 8.23485 111.55 9.24735L110.808 10.3678C109.336 8.99085 107.973 8.07285 106.339 8.07285C105.435 8.07285 104.814 8.46435 104.814 9.05835C104.814 9.69285 105.421 10.0033 106.285 10.0033C107.284 10.0033 107.595 9.49035 107.595 8.63985C107.595 7.68135 107.419 5.26485 107.419 3.41535C107.419 2.44335 107.406 1.56585 107.406 1.12035C107.406 0.904347 107.379 0.512848 107.338 0.269848H108.864ZM102.235 0.377848C102.141 0.620848 102.006 1.17435 101.965 1.41735C101.722 2.52435 101.304 5.31885 101.304 6.76335C101.304 7.24935 101.331 7.72185 101.398 8.20785C101.601 7.65435 101.884 6.99285 102.1 6.47985L102.775 7.01985C102.424 8.03235 101.952 9.40935 101.803 10.0978C101.763 10.2868 101.736 10.5703 101.749 10.7188C101.749 10.8538 101.763 11.0698 101.776 11.2318L100.575 11.3263C100.305 10.3678 100.048 8.85585 100.048 7.03335C100.048 5.02185 100.48 2.45685 100.642 1.37685C100.696 1.02585 100.737 0.607347 100.75 0.256348L102.235 0.377848Z" fill="white"/>
<path d="M90.356 9.50396C90.356 8.62646 90.356 2.82146 90.356 1.68746C90.356 1.26896 90.329 0.634465 90.248 0.188965H91.9085C91.8545 0.634465 91.8005 1.21496 91.8005 1.68746C91.8005 3.52346 91.814 8.70746 91.814 9.50396C91.814 9.90896 91.8545 10.7325 91.9085 11.232H90.248C90.329 10.746 90.356 10.017 90.356 9.50396ZM91.4901 3.71246C93.2856 4.22546 96.0935 5.26496 97.511 5.96696L96.917 7.42496C95.378 6.61496 92.9616 5.69696 91.4901 5.22446V3.71246Z" fill="white"/>
<path d="M76.3223 5.697C78.6983 5.076 80.7233 4.158 82.2218 3.2265C83.6258 2.349 85.0568 1.107 85.9613 0L87.1088 1.08C85.9208 2.295 84.3953 3.4965 82.8158 4.4685C81.3173 5.3865 79.1438 6.3855 76.9973 7.0335L76.3223 5.697ZM81.9788 3.915L83.4638 3.5235V9.6525C83.4638 10.1925 83.4908 10.935 83.5718 11.232H81.8843C81.9383 10.9485 81.9788 10.1925 81.9788 9.6525V3.915Z" fill="white"/>
<path d="M72.3709 4.64377C72.3709 8.12677 71.5744 10.0573 68.4154 11.4613L67.2814 10.3813C69.8059 9.46327 70.9939 8.30227 70.9939 4.71127V1.29577C70.9939 0.769266 70.9534 0.323766 70.9129 0.134766H72.4519C72.4249 0.323766 72.3709 0.769266 72.3709 1.29577V4.64377ZM67.4974 0.229265C67.4704 0.418265 67.4299 0.823266 67.4299 1.30927V6.20977C67.4299 6.74977 67.4704 7.33027 67.4839 7.51927H65.9854C66.0124 7.33027 66.0529 6.76327 66.0529 6.20977V1.30927C66.0529 0.985265 66.0259 0.580266 65.9854 0.229265H67.4974ZM63.3394 2.76727C63.5014 2.79427 64.1224 2.87527 64.7299 2.87527H73.6399C74.2879 2.87527 74.7199 2.83477 74.9899 2.79427V4.21177C74.7739 4.19827 74.2879 4.17127 73.6399 4.17127H64.7299C64.1089 4.17127 63.5554 4.21177 63.3394 4.22527V2.76727Z" fill="white"/>
<path d="M56.1983 10.4489C56.2523 10.2194 56.3063 9.89537 56.3063 9.58487C56.3063 8.92337 56.3063 2.55137 56.3063 1.59287C56.3063 1.03937 56.2253 0.593867 56.2118 0.526367H57.7913C57.7778 0.593867 57.7103 1.05287 57.7103 1.60637C57.7103 2.55137 57.7103 8.47787 57.7103 9.07187C58.8983 8.54537 60.4103 7.38437 61.3958 5.95337L62.2058 7.12787C61.0583 8.65337 59.1548 10.0709 57.6158 10.8404C57.3593 10.9754 57.2108 11.0969 57.1028 11.1914L56.1983 10.4489ZM49.9883 10.3274C51.1493 9.50387 51.9188 8.28887 52.3103 7.04687C52.7018 5.84537 52.7153 3.21287 52.7153 1.64687C52.7153 1.18787 52.6748 0.863868 52.6073 0.553368H54.1733C54.1598 0.674867 54.0923 1.16087 54.0923 1.63337C54.0923 3.17237 54.0518 6.04787 53.6873 7.41137C53.2823 8.88287 52.4183 10.2059 51.2843 11.1779L49.9883 10.3274Z" fill="white"/>
<path d="M42.6794 2.33545C42.7199 2.60545 42.8009 2.92945 42.8819 3.28045C43.2599 4.61695 44.6504 9.65245 44.9474 10.6649C45.0284 10.9079 45.1769 11.4074 45.2714 11.6639L43.8269 12.0419C43.7864 11.7044 43.7054 11.3129 43.6109 10.9619C43.3004 9.90895 41.9504 4.73845 41.5859 3.56395C41.4914 3.22645 41.3699 2.92945 41.2349 2.68645L42.6794 2.33545ZM49.1594 4.29295C48.5924 5.45395 47.2154 7.41145 46.2839 8.35645L45.0959 7.76245C45.8789 7.08745 46.8644 5.88595 47.2829 5.14345C46.6349 5.25145 40.6814 6.47995 39.6554 6.69595L39.3179 5.41345C39.7229 5.37295 40.0739 5.33245 40.4924 5.25145C41.1944 5.14345 46.8644 4.07695 47.7149 3.87445C47.9174 3.83395 48.1469 3.76645 48.3089 3.68545L49.1594 4.29295Z" fill="white"/>
<path d="M29.7917 0.229492C30.6287 0.688493 32.1542 1.68749 32.7887 2.14649L31.9922 3.32099C31.2902 2.80799 29.8592 1.86299 29.0222 1.39049L29.7917 0.229492ZM27.5507 9.85499C29.0492 9.59849 30.6962 9.09899 32.1137 8.30249C34.3817 7.01999 36.2042 5.22449 37.2842 3.30749L38.1077 4.73849C36.9062 6.57449 35.0162 8.30249 32.8427 9.57149C31.4657 10.3545 29.5757 11.0025 28.3472 11.2455L27.5507 9.85499ZM27.7397 3.28049C28.5767 3.73949 30.1157 4.68449 30.7502 5.14349L29.9672 6.33149C29.2652 5.83199 27.8207 4.90049 26.9702 4.45499L27.7397 3.28049Z" fill="white"/>
<path d="M21.569 2.56494C21.569 3.07794 21.9875 3.49644 22.5005 3.49644C23.0135 3.49644 23.432 3.07794 23.432 2.56494C23.432 2.05194 23.0135 1.63344 22.5005 1.63344C21.9875 1.63344 21.569 2.05194 21.569 2.56494ZM20.813 2.56494C20.813 1.63344 21.569 0.877441 22.5005 0.877441C23.432 0.877441 24.188 1.63344 24.188 2.56494C24.188 3.49644 23.432 4.25244 22.5005 4.25244C21.569 4.25244 20.813 3.49644 20.813 2.56494ZM12.5645 7.06044C12.929 6.74994 13.199 6.47994 13.5905 6.10194C14.2115 5.46744 15.332 4.04994 16.223 2.99694C16.979 2.10594 17.681 1.95744 18.653 2.87544C19.517 3.68544 20.624 4.83294 21.4205 5.69694C22.325 6.65544 23.6885 8.14044 24.728 9.24744L23.5535 10.5029C22.622 9.35544 21.4475 7.96494 20.6105 7.00644C19.8275 6.10194 18.599 4.77894 18.0725 4.23894C17.5865 3.76644 17.3165 3.80694 16.8845 4.33344C16.2905 5.07594 15.2375 6.49344 14.657 7.23594C14.36 7.61394 14.063 8.05944 13.8335 8.36994L12.5645 7.06044Z" fill="white"/>
<path d="M10.6791 1.66052C10.5846 1.78202 10.3821 2.13302 10.2876 2.34902C9.7476 3.65852 8.7216 5.53502 7.5876 6.81752C6.0756 8.53202 4.1046 10.1655 1.9851 11.151L0.891602 10.0035C3.0651 9.18002 5.1036 7.54652 6.4401 6.06152C7.3446 5.03552 8.2626 3.55052 8.5866 2.49752C8.0736 2.49752 4.1316 2.49752 3.6186 2.49752C3.1056 2.49752 2.3631 2.56502 2.1606 2.57852V1.05302C2.4171 1.09352 3.2136 1.13402 3.6186 1.13402C4.2261 1.13402 8.0871 1.13402 8.6406 1.13402C9.1401 1.13402 9.5721 1.08002 9.8151 0.999023L10.6791 1.66052ZM7.7631 5.94002C9.1941 7.11452 11.0436 9.05852 11.9481 10.1655L10.7466 11.205C9.7611 9.88202 8.2221 8.20802 6.7776 6.91202L7.7631 5.94002Z" fill="white"/>
<path fill-rule="evenodd" clip-rule="evenodd" d="M160.497 1.6531H152.553V2.87533V3.48644V9.59755H158.664H159.275H160.497V1.6531ZM151.942 1.6531V2.87533H150.72C150.382 2.87533 150.108 3.14893 150.108 3.48644V11.4309C150.108 11.7684 150.382 12.042 150.72 12.042H158.664C159.001 12.042 159.275 11.7684 159.275 11.4309V10.2087H160.497C160.835 10.2087 161.108 9.93505 161.108 9.59755V1.6531C161.108 1.3156 160.835 1.04199 160.497 1.04199H152.553C152.215 1.04199 151.942 1.3156 151.942 1.6531ZM158.664 11.4309V10.2087H152.553C152.215 10.2087 151.942 9.93505 151.942 9.59755V3.48644H150.72V11.4309H158.664Z" fill="white"/>
</svg>
