<svg width="162" height="15" viewBox="0 0 162 15" fill="none" xmlns="http://www.w3.org/2000/svg">
<path d="M139.474 0.294434C140.689 0.685933 143.591 1.22593 144.779 1.34743L144.455 2.64343C143.132 2.46793 140.176 1.86043 139.136 1.59043L139.474 0.294434ZM139.339 2.87293C139.163 3.70993 138.92 5.55943 138.799 6.38293C140.068 5.35693 141.485 4.89793 143.024 4.89793C145.211 4.89793 146.588 6.23443 146.588 7.84093C146.588 10.2709 144.536 12.0124 139.258 11.5669L138.853 10.1764C143.024 10.7164 145.13 9.59593 145.13 7.80043C145.13 6.81493 144.199 6.09943 142.916 6.09943C141.242 6.09943 139.825 6.72043 138.92 7.81393C138.704 8.07043 138.569 8.28643 138.475 8.52943L137.233 8.21893C137.503 6.94993 137.827 4.19593 137.908 2.67043L139.339 2.87293Z" fill="#C50018"/>
<path d="M129.177 0.348262C129.056 0.766762 128.975 1.19876 128.894 1.59026C128.691 2.67026 128.205 5.00576 127.773 6.26126C128.907 5.53226 130.055 5.23526 131.378 5.23526C133.538 5.23526 134.874 6.35576 134.874 8.00276C134.874 10.9188 131.972 11.9853 127.76 11.5263L127.395 10.1628C130.446 10.6218 133.457 10.1628 133.457 8.04326C133.457 7.12526 132.687 6.38276 131.216 6.38276C129.636 6.38276 128.192 6.93626 127.341 7.98926C127.179 8.19176 127.071 8.36726 126.936 8.59676L125.681 8.15126C126.693 6.16676 127.422 2.84576 127.598 1.50926C127.665 1.00976 127.679 0.685761 127.652 0.280762L129.177 0.348262ZM124.749 2.00876C125.532 2.14376 126.585 2.25176 127.409 2.25176C129.137 2.25176 131.756 2.04926 133.916 1.57676L133.943 2.85926C132.12 3.16976 129.326 3.46676 127.422 3.46676C126.464 3.46676 125.546 3.41276 124.763 3.33176L124.749 2.00876Z" fill="#C50018"/>
<path d="M113.996 1.38784C114.982 1.49584 116.224 1.54984 117.614 1.54984C118.924 1.54984 120.368 1.46884 121.367 1.36084V2.76484C120.436 2.84584 118.883 2.92684 117.614 2.92684C116.237 2.92684 115.076 2.87284 113.996 2.77834V1.38784ZM114.793 6.94984C114.644 7.46284 114.536 7.92184 114.536 8.40784C114.536 9.36634 115.495 10.0413 117.56 10.0413C119.396 10.0413 121.138 9.83884 122.231 9.50134L122.245 10.9863C121.178 11.2563 119.504 11.4453 117.601 11.4453C114.712 11.4453 113.132 10.4868 113.132 8.71834C113.132 7.98934 113.294 7.34134 113.402 6.81484L114.793 6.94984Z" fill="#C50018"/>
<path d="M103.443 2.88643C104.213 2.96743 104.955 3.00793 105.765 3.00793C107.399 3.00793 109.073 2.87293 110.45 2.58943V3.91243C109.019 4.14193 107.358 4.24993 105.752 4.24993C104.969 4.24993 104.24 4.22293 103.443 4.16893V2.88643ZM108.344 0.537426C108.303 0.793926 108.276 1.09093 108.263 1.37443C108.236 1.84693 108.222 2.79193 108.222 3.66943C108.222 5.92393 108.425 7.86793 108.425 9.21793C108.425 10.4599 107.831 11.5129 105.954 11.5129C104.118 11.5129 103.052 10.7704 103.052 9.46093C103.052 8.23243 104.132 7.31443 105.927 7.31443C108.317 7.31443 109.923 8.50243 111.03 9.51493L110.288 10.6354C108.816 9.25843 107.453 8.34043 105.819 8.34043C104.915 8.34043 104.294 8.73193 104.294 9.32593C104.294 9.96043 104.901 10.2709 105.765 10.2709C106.764 10.2709 107.075 9.75793 107.075 8.90743C107.075 7.94893 106.899 5.53243 106.899 3.68293C106.899 2.71093 106.886 1.83343 106.886 1.38793C106.886 1.17193 106.859 0.780426 106.818 0.537426H108.344ZM101.715 0.645426C101.621 0.888426 101.486 1.44193 101.445 1.68493C101.202 2.79193 100.784 5.58643 100.784 7.03093C100.784 7.51693 100.811 7.98943 100.878 8.47543C101.081 7.92193 101.364 7.26043 101.58 6.74743L102.255 7.28743C101.904 8.29993 101.432 9.67693 101.283 10.3654C101.243 10.5544 101.216 10.8379 101.229 10.9864C101.229 11.1214 101.243 11.3374 101.256 11.4994L100.055 11.5939C99.7848 10.6354 99.5283 9.12343 99.5283 7.30093C99.5283 5.28943 99.9603 2.72443 100.122 1.64443C100.176 1.29343 100.217 0.874925 100.23 0.523926L101.715 0.645426Z" fill="#C50018"/>
<path d="M89.836 9.77105C89.836 8.89355 89.836 3.08855 89.836 1.95455C89.836 1.53605 89.809 0.901555 89.728 0.456055H91.3885C91.3345 0.901555 91.2805 1.48205 91.2805 1.95455C91.2805 3.79055 91.294 8.97455 91.294 9.77105C91.294 10.1761 91.3345 10.9996 91.3885 11.4991H89.728C89.809 11.0131 89.836 10.2841 89.836 9.77105ZM90.97 3.97955C92.7655 4.49255 95.5735 5.53205 96.991 6.23405L96.397 7.69205C94.858 6.88205 92.4415 5.96405 90.97 5.49155V3.97955Z" fill="#C50018"/>
<path d="M75.0972 4.979C75.5427 5.0195 76.3662 5.06 77.1087 5.06C78.3642 5.06 83.3457 5.06 84.4392 5.06C85.1007 5.06 85.6272 5.006 85.9512 4.979V6.653C85.6542 6.6395 85.0332 6.5855 84.4527 6.5855C83.3457 6.5855 78.3642 6.5855 77.1087 6.5855C76.3527 6.5855 75.5562 6.6125 75.0972 6.653V4.979Z" fill="#C50018"/>
<path d="M73.4588 2.468C73.2968 2.6435 73.1618 2.8055 73.0673 2.954C72.0278 4.6415 70.1108 7.0445 67.8428 8.6915L66.7898 7.7195C68.7878 6.329 70.4213 4.304 71.1368 3.035C69.9353 3.035 64.4273 3.035 63.5498 3.035C63.0098 3.035 62.3618 3.089 62.0918 3.116V1.6175C62.4563 1.6715 63.0773 1.7255 63.5498 1.7255C64.3058 1.7255 69.9623 1.7255 71.3528 1.7255C71.7848 1.7255 72.1628 1.685 72.3923 1.604L73.4588 2.468ZM66.7628 8.90751C65.9663 8.0975 64.4813 6.815 63.7253 6.275L64.8458 5.3705C65.5073 5.87 66.9788 7.0715 67.9778 8.03C68.8418 8.8805 69.8948 10.001 70.5023 10.7435L69.2603 11.729C68.7338 11.0135 67.6268 9.785 66.7628 8.90751Z" fill="#C50018"/>
<path d="M59.8471 1.92761C59.7526 2.04911 59.5501 2.40011 59.4556 2.61611C58.9156 3.92561 57.8896 5.80211 56.7556 7.08461C55.2436 8.79911 53.2726 10.4326 51.1531 11.4181L50.0596 10.2706C52.2331 9.44711 54.2716 7.81361 55.6081 6.32861C56.5126 5.30261 57.4306 3.81761 57.7546 2.76461C57.2416 2.76461 53.2996 2.76461 52.7866 2.76461C52.2736 2.76461 51.5311 2.83211 51.3286 2.84561V1.32011C51.5851 1.36061 52.3816 1.40111 52.7866 1.40111C53.3941 1.40111 57.2551 1.40111 57.8086 1.40111C58.3081 1.40111 58.7401 1.34711 58.9831 1.26611L59.8471 1.92761ZM56.9311 6.20711C58.3621 7.38161 60.2116 9.32561 61.1161 10.4326L59.9146 11.4721C58.9291 10.1491 57.3901 8.47511 55.9456 7.17911L56.9311 6.20711Z" fill="#C50018"/>
<path d="M44.9449 14.3316C44.3756 14.3316 43.8249 14.2522 43.2929 14.0936C42.7609 13.9442 42.2756 13.6782 41.8369 13.2956L42.4109 12.1476C42.7469 12.4182 43.1156 12.6329 43.5169 12.7916C43.9276 12.9502 44.3616 13.0296 44.8189 13.0296C45.5749 13.0296 46.1209 12.8242 46.4569 12.4136C46.7929 12.0029 46.9609 11.4662 46.9609 10.8036V10.0896C46.7929 10.3229 46.5829 10.5189 46.3309 10.6776C46.0883 10.8269 45.8176 10.9342 45.5189 10.9996C45.2203 11.0742 44.9169 11.1116 44.6089 11.1116C43.8903 11.1116 43.3163 10.9669 42.8869 10.6776C42.4669 10.3789 42.1636 9.97292 41.9769 9.45958C41.7996 8.94625 41.7109 8.35358 41.7109 7.68158V3.62158H43.1669V7.33158C43.1669 7.63025 43.1856 7.92892 43.2229 8.22758C43.2603 8.52625 43.3396 8.79692 43.4609 9.03958C43.5823 9.27292 43.7596 9.46425 43.9929 9.61358C44.2263 9.75358 44.5436 9.82358 44.9449 9.82358C45.4489 9.82358 45.8456 9.70225 46.1349 9.45958C46.4243 9.20758 46.6296 8.88092 46.7509 8.47958C46.8723 8.06892 46.9329 7.62558 46.9329 7.14958V3.62158H48.3749V10.6496C48.3749 11.2282 48.3049 11.7462 48.1649 12.2036C48.0343 12.6609 47.8243 13.0482 47.5349 13.3656C47.2549 13.6829 46.9003 13.9209 46.4709 14.0796C46.0509 14.2476 45.5423 14.3316 44.9449 14.3316Z" fill="#C50018"/>
<path d="M38.5989 11.084C37.8056 11.084 37.2363 10.8693 36.8909 10.44C36.5549 10.0013 36.3869 9.38998 36.3869 8.60598V4.90998H35.2109V3.62198H36.3869V1.47998H37.8289V3.62198H40.0829V4.90998H37.8289V8.36798C37.8289 8.62931 37.8523 8.86731 37.8989 9.08198C37.9549 9.29665 38.0576 9.46465 38.2069 9.58598C38.3563 9.70731 38.5709 9.77265 38.8509 9.78198C39.0656 9.78198 39.2523 9.74465 39.4109 9.66998C39.5789 9.59531 39.7143 9.51131 39.8169 9.41798L40.3769 10.496C40.1996 10.636 40.0129 10.7526 39.8169 10.846C39.6303 10.93 39.4343 10.9906 39.2289 11.028C39.0236 11.0653 38.8136 11.084 38.5989 11.084Z" fill="#C50018"/>
<path d="M32.2362 10.9999V3.62195H33.6782V10.9999H32.2362ZM32.9502 2.64195C32.6702 2.64195 32.4415 2.55795 32.2642 2.38995C32.0962 2.21261 32.0122 1.98861 32.0122 1.71795C32.0122 1.44728 32.1009 1.22795 32.2782 1.05995C32.4555 0.882612 32.6795 0.793945 32.9502 0.793945C33.2022 0.793945 33.4215 0.882612 33.6082 1.05995C33.8042 1.22795 33.9022 1.44728 33.9022 1.71795C33.9022 1.98861 33.8089 2.21261 33.6222 2.38995C33.4449 2.55795 33.2209 2.64195 32.9502 2.64195Z" fill="#C50018"/>
<path d="M28.73 10.9996V1.10156H30.172V10.9996H28.73Z" fill="#C50018"/>
<path d="M22.9814 11.0839C22.6454 11.0839 22.3188 11.0419 22.0014 10.9579C21.6934 10.8646 21.4181 10.7293 21.1754 10.5519C20.9328 10.3653 20.7368 10.1366 20.5874 9.86593C20.4474 9.58593 20.3774 9.25926 20.3774 8.88593C20.3774 8.43793 20.4614 8.06926 20.6294 7.77993C20.8068 7.48126 21.0401 7.25259 21.3294 7.09393C21.6188 6.92593 21.9501 6.80926 22.3234 6.74393C22.7061 6.66926 23.1028 6.63193 23.5134 6.63193H25.3194C25.3194 6.26793 25.2634 5.95059 25.1514 5.67993C25.0394 5.39993 24.8621 5.18526 24.6194 5.03593C24.3861 4.87726 24.0734 4.79793 23.6814 4.79793C23.4481 4.79793 23.2241 4.82593 23.0094 4.88193C22.8041 4.92859 22.6268 5.00793 22.4774 5.11993C22.3281 5.23193 22.2254 5.38126 22.1694 5.56793H20.6574C20.7134 5.21326 20.8394 4.90993 21.0354 4.65793C21.2314 4.39659 21.4741 4.18193 21.7634 4.01393C22.0528 3.84593 22.3608 3.72459 22.6874 3.64993C23.0234 3.56593 23.3641 3.52393 23.7094 3.52393C24.7734 3.52393 25.5388 3.83659 26.0054 4.46193C26.4814 5.07793 26.7194 5.92726 26.7194 7.00993V10.9999H25.4734L25.4174 10.0619C25.2028 10.3513 24.9461 10.5706 24.6474 10.7199C24.3581 10.8693 24.0688 10.9673 23.7794 11.0139C23.4901 11.0606 23.2241 11.0839 22.9814 11.0839ZM23.2054 9.86593C23.6254 9.86593 23.9941 9.79593 24.3114 9.65593C24.6288 9.50659 24.8761 9.29659 25.0534 9.02593C25.2308 8.74593 25.3194 8.41926 25.3194 8.04593V7.73793H24.0034C23.7328 7.73793 23.4668 7.74726 23.2054 7.76593C22.9534 7.77526 22.7201 7.81259 22.5054 7.87793C22.3001 7.93393 22.1321 8.03193 22.0014 8.17193C21.8801 8.31193 21.8194 8.51259 21.8194 8.77393C21.8194 9.02593 21.8848 9.23126 22.0154 9.38993C22.1461 9.54859 22.3188 9.66993 22.5334 9.75393C22.7481 9.82859 22.9721 9.86593 23.2054 9.86593Z" fill="#C50018"/>
<path d="M17.5316 11.084C16.7382 11.084 16.1689 10.8693 15.8236 10.44C15.4876 10.0013 15.3196 9.38998 15.3196 8.60598V4.90998H14.1436V3.62198H15.3196V1.47998H16.7616V3.62198H19.0156V4.90998H16.7616V8.36798C16.7616 8.62931 16.7849 8.86731 16.8316 9.08198C16.8876 9.29665 16.9902 9.46465 17.1396 9.58598C17.2889 9.70731 17.5036 9.77265 17.7836 9.78198C17.9982 9.78198 18.1849 9.74465 18.3436 9.66998C18.5116 9.59531 18.6469 9.51131 18.7496 9.41798L19.3096 10.496C19.1322 10.636 18.9456 10.7526 18.7496 10.846C18.5629 10.93 18.3669 10.9906 18.1616 11.028C17.9562 11.0653 17.7462 11.084 17.5316 11.084Z" fill="#C50018"/>
<path d="M11.1693 10.9999V3.62195H12.6113V10.9999H11.1693ZM11.8833 2.64195C11.6033 2.64195 11.3746 2.55795 11.1973 2.38995C11.0293 2.21261 10.9453 1.98861 10.9453 1.71795C10.9453 1.44728 11.034 1.22795 11.2113 1.05995C11.3886 0.882612 11.6126 0.793945 11.8833 0.793945C12.1353 0.793945 12.3546 0.882612 12.5413 1.05995C12.7373 1.22795 12.8353 1.44728 12.8353 1.71795C12.8353 1.98861 12.742 2.21261 12.5553 2.38995C12.378 2.55795 12.154 2.64195 11.8833 2.64195Z" fill="#C50018"/>
<path d="M4.12243 10.9996L0.44043 1.10156H2.06443L5.15843 9.73956L8.23843 1.10156H9.83443L6.18043 10.9996H4.12243Z" fill="#C50018"/>
<path fill-rule="evenodd" clip-rule="evenodd" d="M161.389 0.611111H153.444V1.83333V2.44444V8.55556H159.556H160.167H161.389V0.611111ZM152.833 0.611111V1.83333H151.611C151.274 1.83333 151 2.10694 151 2.44444V10.3889C151 10.7264 151.274 11 151.611 11H159.556C159.893 11 160.167 10.7264 160.167 10.3889V9.16667H161.389C161.726 9.16667 162 8.89306 162 8.55556V0.611111C162 0.273609 161.726 0 161.389 0H153.444C153.107 0 152.833 0.273609 152.833 0.611111ZM159.556 10.3889V9.16667H153.444C153.107 9.16667 152.833 8.89306 152.833 8.55556V2.44444H151.611V10.3889H159.556Z" fill="#C50018"/>
</svg>
