<svg width="100" height="80" viewBox="0 0 100 80" fill="none" xmlns="http://www.w3.org/2000/svg">
<mask id="mask0_1592_29408" style="mask-type:alpha" maskUnits="userSpaceOnUse" x="0" y="0" width="100" height="80">
<rect width="100" height="80" fill="#D9D9D9"/>
</mask>
<g mask="url(#mask0_1592_29408)">
<path d="M67.2901 51.1494C67.2874 50.9341 67.2816 50.7171 67.2816 50.5732C67.2816 50.5732 67.2816 50.4212 67.2816 50.1597C66.0442 50.1597 61.5437 50.179 60.4603 50.179L58.9022 56.0631L58.7422 56.6674C61.2677 56.6674 64.7871 56.6674 64.7871 56.6674C65.1301 56.3634 65.452 56.0363 65.7506 55.6884C66.6593 54.5501 67.1936 53.1571 67.2801 51.7014C67.2925 51.5628 67.2927 51.3568 67.2901 51.1494Z" fill="white"/>
<path d="M45.421 57.5413L45.7267 57.2045L43.7716 54.3281L41.0555 50.7054C39.2035 50.7054 36.7064 50.7196 34.9785 50.6665C34.9838 50.87 34.9864 50.9846 34.9864 50.9846C35.0373 53.1947 35.7573 55.2501 37.7391 56.8567C38.7022 57.6133 39.7295 58.2841 40.809 58.8612L43.0809 60.1202L45.421 57.5413Z" fill="white"/>
<path d="M45.9304 11.0159C47.1353 10.3493 48.7634 9.92334 50.9568 9.92334C61.0318 9.92334 59.1793 18.911 59.1793 18.911C59.3041 18.7953 59.4504 18.7056 59.6099 18.647C59.7694 18.5884 59.9389 18.5621 60.1086 18.5697C60.3244 18.5626 60.538 18.6145 60.7267 18.7197C60.9153 18.8249 61.072 18.9795 61.1801 19.167C61.5452 19.8006 61.5288 20.9678 61.2845 21.6907C61.1113 22.2022 60.8279 22.9847 60.1443 23.5458C59.9939 23.6714 59.8192 23.7644 59.6312 23.8189C59.4432 23.8733 59.2459 23.8881 59.052 23.8623L58.9471 23.8444C58.8442 24.1935 58.7186 24.5355 58.5712 24.8681C58.2963 25.6165 56.7904 28.2218 54.8773 29.2787C54.8988 29.457 54.9274 29.6367 54.9584 29.8184C54.9871 30.0498 55.0305 30.279 55.0885 30.5047C54.9701 30.7898 54.8063 31.0537 54.6035 31.2861C54.27 31.695 53.8775 32.0517 53.4391 32.3444C52.2788 33.0195 51.2808 33.5079 50.9582 33.5022C50.6337 33.5079 49.6357 33.0195 48.4754 32.3444C48.0458 32.0629 47.6609 31.7183 47.3333 31.3221C47.2018 31.1732 47.0868 31.0104 46.9905 30.8365C47.2175 30.5556 47.2256 30.2003 47.2948 29.8189C47.3191 29.6829 47.3392 29.551 47.3575 29.4212C46.427 28.9995 45.5965 28.3018 44.807 27.3544C43.9564 26.3234 43.3252 25.1286 42.9522 23.8436C42.7456 23.8873 42.5318 23.8833 42.327 23.8317C42.1222 23.7802 41.9318 23.6826 41.7702 23.5462C41.0866 22.9851 40.803 22.203 40.6299 21.6911C40.3865 20.9688 40.3703 19.8016 40.7342 19.1674C40.8423 18.9799 40.999 18.8253 41.1877 18.7201C41.3765 18.6149 41.5901 18.5631 41.8059 18.5701C41.9755 18.5626 42.145 18.5889 42.3045 18.6474C42.464 18.706 42.6104 18.7957 42.7351 18.9114C42.7351 18.9114 41.6008 13.4107 45.9304 11.0159Z" fill="white"/>
<path d="M43.6952 25.6822C43.388 25.0947 43.1393 24.4781 42.9528 23.8416C42.7621 23.8831 42.5648 23.8833 42.3741 23.8421C42.1833 23.801 42.0035 23.7195 41.8467 23.603C40.9601 24.2744 40.361 25.2587 40.1707 26.3567C39.9732 27.5779 40.4953 28.8552 40.7235 30.072C40.9547 31.151 40.8651 32.2744 40.4659 33.3028C41.9619 32.5549 43.5004 31.8958 45.0734 31.3286C45.2976 31.0148 45.6732 30.4412 45.8655 30.1832C45.9757 30.0306 46.1221 29.908 46.2915 29.8266C46.3264 29.8101 46.3645 29.8017 46.4031 29.8022C46.433 29.8072 46.4618 29.8174 46.4883 29.8323C46.5015 29.8231 46.6836 29.5024 46.8702 29.17C46.0817 28.6912 45.3835 28.0765 44.8079 27.3542C44.3791 26.8379 44.0061 26.2775 43.6952 25.6822Z" fill="#957F6E"/>
<path d="M60.458 12.2657C60.3253 11.8225 60.1572 11.3907 59.9555 10.9745C58.8898 8.81837 57.0817 7.12248 54.8658 6.20067C53.6149 5.66976 52.2605 5.42918 50.904 5.49688C46.3695 5.24573 42.0433 8.66799 41.1686 12.9809C40.9306 14.1446 40.9601 16.1331 41.1773 17.0611C41.1773 17.0611 41.4228 18.1282 41.5611 18.5967C41.6419 18.5811 41.7237 18.5719 41.8059 18.5694C42.0092 18.559 42.212 18.5984 42.3968 18.6841C42.5815 18.7699 42.7427 18.8994 42.8664 19.0616C46.7727 17.7193 51.845 15.1596 54.3463 12.8997C54.801 13.9807 55.3306 15.0285 55.9314 16.0352C56.7483 17.2519 57.8217 18.2737 59.0756 19.0284C59.2003 18.8762 59.3588 18.7553 59.5385 18.6756C59.7182 18.5959 59.9139 18.5596 60.1101 18.5694C60.2872 18.573 60.4622 18.6088 60.6266 18.6749C61.2609 17.0107 60.916 14.3345 60.6381 12.9809C60.6039 12.8115 60.5642 12.6436 60.519 12.4769C60.4992 12.4065 60.4788 12.3361 60.458 12.2657Z" fill="#957F6E"/>
<path d="M43.7804 32.9569C44.0143 32.8755 44.2409 32.7569 44.4658 32.6537C44.8257 32.4884 45.1851 32.322 45.544 32.1544C45.8474 32.0132 46.151 31.8721 46.4546 31.7311C46.5205 31.7004 46.5903 31.6739 46.6544 31.6395C46.4389 31.7551 46.5949 31.667 46.6598 31.6395C46.7501 31.6041 46.8382 31.5634 46.9236 31.5174C47.0608 31.4415 47.1858 31.3449 47.294 31.231C47.7094 30.7833 47.7461 30.1241 47.8283 29.5475C47.8584 29.4227 47.84 29.2911 47.7768 29.1795C47.7136 29.0679 47.6105 28.9845 47.4883 28.9465C47.3638 28.913 47.2312 28.93 47.1191 28.9939C47.007 29.0578 46.9245 29.1634 46.8895 29.2878C46.8517 29.5524 46.8083 29.817 46.7637 30.0793C46.7484 30.1767 46.7265 30.2729 46.6982 30.3673C46.6905 30.3917 46.6816 30.4157 46.673 30.4399C46.6747 30.4351 46.71 30.3624 46.6842 30.411C46.6712 30.4357 46.5797 30.5779 46.6461 30.4939C46.6145 30.5313 46.5806 30.5667 46.5446 30.5999C46.4923 30.6518 46.6012 30.5635 46.5365 30.6081C46.5162 30.6219 46.4959 30.6353 46.4757 30.6488C46.3766 30.7051 46.2732 30.7535 46.1665 30.7935C46.1075 30.8195 46.0493 30.8468 45.9906 30.8749C45.3618 31.1651 44.7362 31.4594 44.1078 31.7488C43.958 31.818 43.8078 31.8867 43.6573 31.9548C43.6041 31.9788 43.5506 32.0024 43.497 32.0262C43.3871 32.0753 43.621 31.9802 43.5209 32.0152C43.3982 32.0524 43.2943 32.1355 43.231 32.2474C43.1677 32.3593 43.1498 32.4914 43.181 32.6162C43.2163 32.7405 43.2989 32.8459 43.4109 32.9096C43.5228 32.9734 43.6553 32.9906 43.7798 32.9573L43.7804 32.9569Z" fill="#4A3E42"/>
<path d="M54.3914 29.2788C54.432 29.5918 54.4843 29.9026 54.532 30.215C54.561 30.4416 54.6225 30.6627 54.7146 30.8716C54.8356 31.1183 55.0228 31.3261 55.2552 31.4718C55.39 31.5557 55.5338 31.624 55.684 31.6753C55.7793 31.7103 55.5244 31.6012 55.6471 31.6599C56.2254 31.936 56.8056 32.2094 57.3847 32.4833C57.6338 32.6014 57.8811 32.7275 58.1365 32.8311C58.2609 32.8648 58.3936 32.8478 58.5057 32.7839C58.6178 32.7201 58.7003 32.6145 58.7353 32.49C58.7664 32.3652 58.7485 32.2331 58.6852 32.1212C58.6219 32.0093 58.5181 31.9262 58.3953 31.889C58.6399 31.989 58.3973 31.886 58.3393 31.8587C58.2253 31.8052 58.1115 31.7515 57.9979 31.6975C57.6831 31.5483 57.3684 31.399 57.0538 31.2498C56.7876 31.1233 56.5212 30.9971 56.2546 30.8712C56.1808 30.8366 56.1073 30.8022 56.0315 30.7694C55.9935 30.7534 55.9536 30.7393 55.9156 30.723C55.9678 30.7456 55.8921 30.7106 55.8881 30.7086C55.8597 30.6937 55.8313 30.6793 55.8035 30.663C55.772 30.6447 55.6564 30.5502 55.7264 30.6152C55.6885 30.58 55.6546 30.5419 55.6183 30.5057C55.6964 30.5836 55.6071 30.4782 55.585 30.4405C55.5763 30.4257 55.5444 30.3557 55.5726 30.4202C55.6029 30.4888 55.5649 30.3954 55.5601 30.3795C55.5281 30.2765 55.5039 30.1712 55.4876 30.0646C55.4444 29.8082 55.3927 29.5001 55.3643 29.278C55.3603 29.1497 55.3078 29.0278 55.2173 28.937C55.1269 28.8463 55.0053 28.7935 54.8775 28.7896C54.7486 28.7902 54.6251 28.8419 54.534 28.9334C54.4428 29.0248 54.3913 29.1487 54.3906 29.278L54.3914 29.2788Z" fill="#4A3E42"/>
<path d="M41.6682 23.1294C40.9563 23.6364 40.3965 24.3293 40.0496 25.1331C39.7027 25.9368 39.5819 26.8206 39.7005 27.6884C39.8306 28.6319 40.1671 29.5321 40.2987 30.4742C40.4387 31.3804 40.3359 32.3076 40.0009 33.1607C39.9674 33.2856 39.9843 33.4187 40.048 33.5312C40.1116 33.6436 40.2169 33.7264 40.3409 33.7615C40.4653 33.7928 40.5969 33.7749 40.7084 33.7113C40.82 33.6478 40.9028 33.5436 40.9397 33.4204C41.2642 32.5877 41.3902 31.6903 41.3077 30.8C41.2318 29.8722 40.9503 28.9923 40.7557 28.0871C40.5499 27.2958 40.5842 26.4608 40.8541 25.6891C41.12 25.0055 41.5727 24.411 42.1603 23.974C42.2689 23.906 42.3474 23.7989 42.3799 23.6747C42.4124 23.5504 42.3963 23.4184 42.3349 23.3057C42.2691 23.1945 42.1623 23.1138 42.0377 23.081C41.913 23.0482 41.7805 23.066 41.6688 23.1304L41.6682 23.1294Z" fill="#4A3E42"/>
<path d="M58.6358 23.1083C58.4994 23.6893 58.3129 24.2572 58.0784 24.8057C58.0488 24.8804 58.1256 24.7074 58.077 24.8073C58.0601 24.8417 58.0451 24.8769 58.0289 24.9115C57.9909 24.9915 57.951 25.0705 57.91 25.1488C57.8086 25.3424 57.7005 25.5321 57.5875 25.7187C57.0099 26.7069 56.2715 27.591 55.4028 28.3344C54.9323 28.7418 54.3741 29.0344 53.7721 29.1892C53.1621 29.3317 53.4203 30.2736 54.0309 30.1311C55.2886 29.838 56.3377 28.9212 57.1603 27.9628C57.8694 27.164 58.4612 26.2676 58.9176 25.3009C58.947 25.2356 58.9746 25.1694 59.0019 25.1033C59.0105 25.0829 59.0527 24.9811 59.0241 25.0479C58.9916 25.123 59.0338 25.0275 59.0413 25.0111C59.0689 24.9484 59.0953 24.8849 59.1212 24.8214C59.1529 24.7446 59.1821 24.6671 59.2121 24.5894C59.3643 24.1923 59.4856 23.7841 59.5748 23.3682C59.701 22.7546 58.7634 22.4929 58.6358 23.1083Z" fill="#4A3E42"/>
<path d="M42.3205 23.3391C42.6927 24.9853 43.4577 26.5163 44.5497 27.8005C45.6238 29.0606 47.0088 30.0641 48.6738 30.3128C48.7982 30.3431 48.9294 30.3246 49.0407 30.2612C49.152 30.1978 49.235 30.0942 49.2728 29.9715C49.3062 29.8466 49.2892 29.7136 49.2255 29.6012C49.1618 29.4887 49.0566 29.406 48.9326 29.3707C47.4131 29.1438 46.2187 28.2599 45.2381 27.1098C44.2635 25.9468 43.5846 24.564 43.2595 23.08C43.121 22.467 42.182 22.7265 42.3205 23.3397V23.3391Z" fill="#4A3E42"/>
<path d="M61.1137 18.6769C61.1137 18.8055 61.1451 18.6698 61.1622 18.6179C61.1825 18.5538 61.2027 18.4888 61.2204 18.4239C61.2638 18.2664 61.2993 18.1066 61.3285 17.9458C61.3883 17.6119 61.429 17.2748 61.4502 16.9361C61.4882 16.2762 61.4755 15.6143 61.4121 14.9563C61.2938 13.6262 61.0672 12.3033 60.5344 11.0726C59.4187 8.49375 57.1498 6.48639 54.5255 5.54693C53.7608 5.2757 52.9649 5.10242 52.1569 5.0312C51.7556 5.00166 51.3531 4.99317 50.9509 5.00576C50.63 5.01003 50.3105 4.99008 49.9892 5.00677C48.6951 5.08032 47.428 5.40794 46.2596 5.97107C43.9522 7.06968 42.1327 8.98772 41.1531 11.3543C40.3011 13.4496 40.3646 15.8318 40.9005 17.9953C40.9614 18.2395 41.0222 18.4837 41.0936 18.7253C41.2707 19.3267 42.2107 19.0713 42.0324 18.4656C41.7746 17.6612 41.6035 16.8314 41.5221 15.9904C41.4117 14.8396 41.4961 13.6784 41.7716 12.5559C42.3892 10.3159 43.9737 8.41214 45.9543 7.23923C46.957 6.64263 48.0636 6.2426 49.2151 6.06042C49.8067 5.99258 50.4023 5.96586 50.9976 5.98043C51.7248 5.95616 52.4524 6.0195 53.1646 6.1691C54.4456 6.46228 55.6516 7.02012 56.7057 7.80703C57.7598 8.59394 58.6389 9.59265 59.2868 10.7394C59.9625 11.9522 60.265 13.2933 60.4104 14.6638C60.4905 15.3676 60.5157 16.0766 60.4859 16.7843C60.4725 17.1105 60.436 17.4352 60.3765 17.7561C60.3455 17.9155 60.3084 18.0736 60.2629 18.2293C60.2016 18.3722 60.1603 18.5229 60.14 18.6771C60.14 19.3056 61.1137 19.3064 61.1137 18.6769Z" fill="#4A3E42"/>
<path d="M53.9743 13.2564C54.522 14.5132 55.1084 15.8068 55.9484 16.8983C56.8035 17.9744 57.85 18.8822 59.0348 19.5756C59.5725 19.9013 60.0626 19.0571 59.5263 18.7322C58.4266 18.0955 57.4583 17.2539 56.6732 16.2527C55.8878 15.2052 55.3364 13.9578 54.8151 12.7633C54.7493 12.6521 54.6425 12.5713 54.5179 12.5385C54.3932 12.5057 54.2607 12.5235 54.1489 12.588C54.0399 12.6557 53.961 12.7628 53.9284 12.8872C53.8959 13.0116 53.9123 13.1438 53.9743 13.2564Z" fill="#4A3E42"/>
<path d="M54.0503 12.5117C52.8782 13.5771 51.5159 14.4305 50.146 15.2135C48.5475 16.1256 46.8951 16.9391 45.1979 17.6494C44.3007 18.0256 43.3913 18.3736 42.469 18.6831C41.8777 18.8814 42.1312 19.8251 42.7278 19.625C44.4694 19.0328 46.1727 18.3327 47.8279 17.5287C49.494 16.7436 51.1016 15.839 52.638 14.8219C53.3762 14.3335 54.0781 13.7922 54.7384 13.2022C55.2037 12.7791 54.5134 12.09 54.0499 12.5115L54.0503 12.5117Z" fill="#4A3E42"/>
<path d="M43.081 18.5656C42.8014 18.3152 42.454 18.1538 42.0828 18.1021C41.7116 18.0503 41.3334 18.1104 40.9963 18.2748C40.763 18.4015 40.5601 18.5781 40.4022 18.7921C40.2442 19.006 40.1349 19.2521 40.0821 19.513C39.9434 20.1374 39.9341 20.7837 40.0548 21.4118C40.1755 22.04 40.4235 22.6365 40.7835 23.1645C41.2515 23.8516 41.9789 24.467 42.8642 24.3502C42.992 24.3461 43.1135 24.2933 43.2039 24.2026C43.2943 24.1119 43.3469 23.99 43.351 23.8617C43.351 23.6246 43.1267 23.3383 42.8642 23.3733C42.1962 23.4618 41.7446 22.9204 41.4481 22.3845C41.1837 21.9221 41.017 21.4101 40.9582 20.8803C40.9138 20.3735 40.9146 19.7581 41.2128 19.3239C41.2679 19.2438 41.1572 19.3716 41.2426 19.2908C41.276 19.2554 41.3116 19.2221 41.3491 19.191C41.3008 19.2263 41.4221 19.1503 41.4337 19.1453C41.4939 19.1163 41.5575 19.0947 41.6229 19.0811C41.7558 19.0469 41.8949 19.0449 42.0288 19.0754C42.1626 19.1059 42.2872 19.1679 42.3923 19.2564C42.8589 19.6738 43.5486 18.9853 43.082 18.5656H43.081Z" fill="#4A3E42"/>
<path d="M59.5249 19.2562C59.63 19.1676 59.7547 19.1055 59.8885 19.075C60.0224 19.0446 60.1616 19.0466 60.2945 19.081C60.3899 19.1062 60.4819 19.1431 60.5683 19.1909C60.6061 19.2216 60.6416 19.2549 60.6746 19.2906C60.7706 19.3857 60.6363 19.2243 60.7046 19.3238C61.0022 19.7577 61.0045 20.3736 60.9592 20.8801C60.8999 21.4098 60.7332 21.9217 60.4693 22.3844C60.173 22.9207 59.7208 23.4616 59.0532 23.3731C58.9243 23.3737 58.8008 23.4253 58.7096 23.5168C58.6185 23.6083 58.567 23.7322 58.5664 23.8616C58.5695 23.9901 58.6218 24.1125 58.7125 24.2035C58.8031 24.2944 58.9251 24.3469 59.0532 24.35C60.517 24.5444 61.4085 22.9426 61.7745 21.7604C62.099 20.7108 62.1031 19.0669 61.0951 18.3758C60.7497 18.1555 60.3418 18.0548 59.9339 18.0891C59.5261 18.1233 59.1406 18.2906 58.8364 18.5654C58.3678 18.9849 59.0585 19.6738 59.5249 19.2562Z" fill="#4A3E42"/>
<path d="M49.3971 26.3446C49.9057 26.6089 50.4722 26.7409 51.0449 26.7286C51.6437 26.7529 52.2334 26.5763 52.721 26.2267C52.8123 26.1351 52.8636 26.0109 52.8636 25.8814C52.8636 25.7518 52.8123 25.6276 52.721 25.536C52.6279 25.4479 52.5047 25.3989 52.3768 25.3989C52.2488 25.3989 52.1257 25.4479 52.0325 25.536C52.1837 25.4179 52.0808 25.4981 52.0421 25.5232C52.0096 25.5439 51.9763 25.5632 51.9423 25.5812C51.8976 25.6046 51.784 25.6327 51.922 25.5954C51.8755 25.608 51.8303 25.6308 51.7844 25.6457C51.6584 25.6848 51.5295 25.7143 51.399 25.7338C51.4712 25.7222 51.4274 25.7299 51.3804 25.7338C51.3426 25.7375 51.3047 25.7407 51.2668 25.7432C51.1757 25.7491 51.0842 25.7513 50.9931 25.7509C50.9112 25.7509 50.8294 25.7479 50.7479 25.7419C50.7104 25.7395 50.673 25.7364 50.6357 25.7326C50.6179 25.7307 50.4807 25.7065 50.5994 25.7291C50.4782 25.7086 50.358 25.6818 50.2395 25.6489C50.1892 25.6339 50.1401 25.6158 50.0902 25.5987C49.9722 25.558 50.1781 25.6422 50.0714 25.5917C50.0105 25.5624 49.9497 25.5321 49.8888 25.5002C49.7773 25.4348 49.6445 25.4165 49.5196 25.4494C49.3947 25.4823 49.2879 25.5636 49.2228 25.6755C49.1576 25.7874 49.1394 25.9206 49.1722 26.0459C49.205 26.1713 49.286 26.2784 49.3975 26.3438L49.3971 26.3446Z" fill="#4A3E42"/>
<path d="M50.767 22.4896C50.8414 22.7588 50.9009 23.032 50.9453 23.3078L50.9279 23.1779C50.9332 23.2153 50.9343 23.2531 50.9309 23.2907L50.9484 23.1608C50.9459 23.1782 50.9418 23.1952 50.936 23.2117L50.9851 23.0951C50.9801 23.1064 50.9741 23.1173 50.9672 23.1277L51.0433 23.0288C51.0354 23.0385 51.0265 23.0474 51.0167 23.0552L51.1151 22.9789C51.0945 22.9918 51.0729 23.0033 51.0506 23.0131L51.1668 22.9638C51.132 22.9788 51.0955 22.9895 51.0581 22.9958L51.1875 22.9783C51.1538 22.9823 51.1198 22.9823 51.0861 22.9783L51.2155 22.9958C51.177 22.9903 51.1392 22.9809 51.1007 22.9754C51.0379 22.9551 50.9709 22.9521 50.9066 22.9667C50.8422 22.9694 50.7797 22.9894 50.7256 23.0245C50.6704 23.0568 50.6221 23.0998 50.5834 23.1509C50.5448 23.202 50.5165 23.2603 50.5003 23.3224C50.4841 23.3844 50.4802 23.4491 50.4889 23.5127C50.4976 23.5762 50.5187 23.6375 50.551 23.6929C50.5819 23.7479 50.6236 23.7962 50.6736 23.8347C50.7236 23.8731 50.7808 23.9011 50.8419 23.9167C50.9356 23.9293 51.0267 23.9532 51.122 23.9574C51.2684 23.958 51.4128 23.9231 51.5429 23.8557C51.6263 23.8169 51.7001 23.76 51.759 23.6891C51.8178 23.6182 51.8603 23.5351 51.8833 23.4458C51.9137 23.3027 51.9124 23.1547 51.8794 23.0123C51.835 22.7477 51.7744 22.4874 51.7068 22.2289C51.6718 22.1069 51.5921 22.0026 51.4837 21.937C51.4001 21.8879 51.3038 21.865 51.2072 21.8711C51.1105 21.8772 51.0178 21.9121 50.941 21.9713C50.8642 22.0305 50.8068 22.1114 50.7761 22.2035C50.7453 22.2957 50.7427 22.3949 50.7684 22.4886L50.767 22.4896Z" fill="#4A3E42"/>
<path d="M46.5206 20.1549C46.3845 20.5989 46.4734 21.6202 47.3117 21.7069C48.4197 21.7004 48.4785 20.4654 48.1057 19.8852C47.8 19.4096 46.9022 19.2121 46.5206 20.1549Z" fill="#4A3E42"/>
<path d="M55.3931 20.1549C55.5294 20.599 55.4406 21.6203 54.602 21.707C53.494 21.7002 53.435 20.4655 53.808 19.885C54.1137 19.4096 55.0116 19.2122 55.3931 20.1549Z" fill="#4A3E42"/>
<path d="M58.9025 56.0631L58.6633 56.9666L45.726 57.2047L43.7709 54.3283L41.0547 50.7056C39.0283 50.7056 36.2289 50.7227 34.5108 50.6498C34.1538 50.6335 33.6467 50.3995 33.7177 49.6546C33.9022 47.7537 34.878 42.4071 35.521 39.8976C35.9673 38.1575 36.4358 36.6127 38.0485 34.9255C39.267 33.6588 42.4871 32.285 45.0722 31.3278C45.2953 31.0144 45.672 30.4407 45.8643 30.1824C45.9745 30.0298 46.1209 29.9072 46.2903 29.8258C46.3251 29.8093 46.3633 29.8009 46.4019 29.8014C46.4318 29.8065 46.4606 29.8166 46.4871 29.8315C46.5641 29.8712 46.6189 30.0163 46.6858 30.1728C46.8317 30.5912 47.0508 30.9802 47.3329 31.3213C47.6605 31.7175 48.0455 32.0621 48.475 32.3436C49.6353 33.0187 50.6333 33.5072 50.9579 33.5015C51.2804 33.5072 52.2784 33.0187 53.4387 32.3436C53.8772 32.0509 54.2696 31.6942 54.6031 31.2853C54.882 30.9586 55.0912 30.5781 55.2177 30.1671C55.2745 30.0043 55.2745 29.8276 55.3496 29.788C55.3769 29.7734 55.4063 29.7632 55.4368 29.7578C55.4747 29.7574 55.5122 29.7657 55.5463 29.7823C55.7411 29.8772 55.9128 30.0137 56.0494 30.1822C56.3255 30.5524 56.9748 31.5674 57.0304 31.5403C59.5579 32.5003 62.6237 33.8446 63.7534 35.0248C65.3683 36.7123 65.6835 38.304 66.2828 39.9965C66.871 41.6557 67.9623 48.1182 68.0311 49.5579C68.0526 50.0077 67.6163 50.1595 67.2873 50.1595C66.0584 50.1595 61.5466 50.1788 60.4606 50.1788L58.9025 56.0631Z" fill="#1492D9"/>
<path d="M62.3178 63.5814H78.4038C79.0302 63.5814 79.0312 62.6045 78.4038 62.6045H62.3178C61.6914 62.6045 61.6904 63.5814 62.3178 63.5814Z" fill="#4A3E42"/>
<path d="M22.4702 63.5839C25.962 63.5839 29.4538 63.5839 32.9453 63.5839C35.3974 63.5839 37.8494 63.5839 40.3015 63.5839H43.2428C43.8692 63.5839 43.8702 62.6069 43.2428 62.6069H37.7079C34.602 62.6069 31.4962 62.6069 28.3906 62.6069C26.417 62.6069 24.4435 62.6069 22.4702 62.6069C21.8438 62.6069 21.8428 63.5839 22.4702 63.5839Z" fill="#4A3E42"/>
<path d="M39.2481 58.7365C39.0883 60.1872 38.9542 61.6412 38.8262 63.0952C38.8272 63.2244 38.8788 63.3481 38.9699 63.4395C39.061 63.5308 39.1842 63.5826 39.313 63.5836C39.4413 63.581 39.5636 63.5287 39.6543 63.4376C39.7451 63.3466 39.7972 63.2239 39.7999 63.0952C39.9278 61.6412 40.0619 60.1872 40.2218 58.7365C40.221 58.6072 40.1694 58.4834 40.0783 58.392C39.9872 58.3006 39.8638 58.2488 39.7349 58.248C39.6067 58.2509 39.4846 58.3033 39.3939 58.3943C39.3032 58.4853 39.251 58.6079 39.2481 58.7365Z" fill="#4A3E42"/>
<path d="M34.5002 50.9846C34.5408 52.5422 34.9081 54.0985 35.7711 55.4111C36.7681 56.9283 38.3036 57.9712 39.8441 58.8728C40.8291 59.4496 41.8373 59.9879 42.8353 60.5417C43.3842 60.847 43.8759 60.0026 43.3268 59.6981C41.704 58.7989 40.0271 57.9567 38.529 56.8541C37.3028 55.9512 36.3206 54.7985 35.8494 53.3298C35.6133 52.5699 35.4869 51.78 35.4739 50.9842C35.4573 50.3567 34.4836 50.3543 34.5002 50.9842V50.9846Z" fill="#4A3E42"/>
<path d="M41.2616 50.2158C39.0347 50.2158 36.7989 50.2657 34.5744 50.1633C34.5669 50.1633 34.3929 50.1405 34.5186 50.1643C34.4823 50.1576 34.4472 50.1478 34.4115 50.1385C34.39 50.1328 34.3018 50.0941 34.3785 50.1279C34.3748 50.1263 34.2495 50.044 34.3176 50.0961C34.2909 50.0759 34.2672 50.0519 34.2472 50.0249C34.2858 50.0876 34.215 49.9531 34.2371 50.0056C34.1986 49.8927 34.1878 49.7721 34.2059 49.6541C34.2158 49.523 34.2334 49.3919 34.2491 49.2615C34.2744 49.0527 34.2842 48.9816 34.3057 48.8276C34.4274 47.9524 34.5726 47.0805 34.7249 46.21C35.0578 44.3073 35.4181 42.4041 35.8684 40.5258C36.0685 39.5735 36.3543 38.6414 36.7224 37.741C37.166 36.7018 37.8287 35.7714 38.6649 35.0138C39.4954 34.2931 40.5703 33.7723 41.5707 33.2987C42.7903 32.7227 44.0455 32.2247 45.3094 31.758C45.4321 31.7207 45.5357 31.6375 45.599 31.5257C45.6623 31.4139 45.6803 31.282 45.6494 31.1572C45.6143 31.0328 45.5318 30.9273 45.4197 30.8635C45.3077 30.7997 45.1751 30.7826 45.0506 30.8161C43.8503 31.2589 42.6598 31.7319 41.4951 32.2625C40.4423 32.7112 39.4372 33.2648 38.4947 33.9149C37.557 34.6222 36.7827 35.5246 36.225 36.5601C35.6984 37.5741 35.3046 38.652 35.0536 39.7673C34.5667 41.669 34.2044 43.6062 33.8596 45.5378C33.692 46.4763 33.5328 47.4165 33.3967 48.3601C33.2845 49.1396 32.9707 50.2276 33.6675 50.8182C34.1101 51.1937 34.6941 51.1478 35.2382 51.162C35.881 51.1787 36.5242 51.186 37.1673 51.1903C38.532 51.1994 39.8968 51.1929 41.2616 51.1927C41.8882 51.1927 41.8892 50.2158 41.2616 50.2158Z" fill="#4A3E42"/>
<path d="M60.4618 50.6676C62.2874 50.6676 64.1131 50.6564 65.9387 50.6511C66.3277 50.6501 66.7165 50.6492 67.1053 50.6484C67.6317 50.6484 68.204 50.532 68.4362 49.9923C68.5746 49.6711 68.5054 49.3003 68.4681 48.9634C68.4235 48.5625 68.3691 48.1626 68.3125 47.7627C68.0285 45.7669 67.682 43.7746 67.2544 41.8047C67.0971 41.0512 66.8967 40.3075 66.6542 39.5771C66.2258 38.3181 65.8428 37.0392 65.0985 35.9224C64.7296 35.3442 64.2807 34.8215 63.7652 34.3699C63.3082 33.9978 62.8195 33.6666 62.3047 33.3802C61.0378 32.6812 59.7259 32.0679 58.3775 31.5444C58.0351 31.4059 57.6914 31.2702 57.3464 31.1374C57.222 31.1039 57.0894 31.1209 56.9773 31.1848C56.8653 31.2486 56.7828 31.3541 56.7476 31.4785C56.7162 31.6033 56.7339 31.7355 56.7973 31.8474C56.8606 31.9594 56.9647 32.0424 57.0876 32.0793C58.3883 32.5672 59.6636 33.1209 60.9085 33.7382C61.9215 34.2509 62.9234 34.7994 63.6762 35.6574C64.5415 36.6439 65.045 37.8166 65.4543 39.0492C65.7124 39.826 65.9751 40.5901 66.1631 41.3873C66.6069 43.2676 66.938 45.1791 67.2348 47.088C67.3591 47.8878 67.4512 48.466 67.5228 49.2343C67.5327 49.3414 67.5352 49.4499 67.5469 49.5567C67.5642 49.7112 67.5378 49.6243 67.5457 49.6062C67.5601 49.572 67.6226 49.6005 67.524 49.619C67.4563 49.6316 67.3991 49.665 67.3427 49.6687C67.0153 49.6902 66.6802 49.6707 66.3522 49.6715C64.3892 49.6766 62.4262 49.689 60.4632 49.6892C59.8368 49.6892 59.8358 50.6661 60.4632 50.6661L60.4618 50.6676Z" fill="#4A3E42"/>
<path d="M45.5994 31.4226C45.7373 31.2227 45.8728 31.021 46.0099 30.8205C46.0663 30.7391 46.1225 30.6561 46.1799 30.5747C46.2341 30.4979 46.34 30.4143 46.3828 30.3382C46.4363 30.2423 46.6037 30.3213 46.3174 30.2444C46.1006 30.1859 46.1754 30.2085 46.2335 30.3425C46.2767 30.4403 46.3166 30.5397 46.3588 30.638C46.448 30.8576 46.5566 31.0687 46.6834 31.2689C47.3112 32.2141 48.235 32.7974 49.2158 33.3137C49.604 33.5258 50.0057 33.7119 50.4183 33.871C50.6836 33.982 50.9766 34.0085 51.2574 33.9469C51.6186 33.8421 51.9674 33.6982 52.2977 33.5178C52.793 33.281 53.2754 33.0178 53.7428 32.7294C54.2219 32.41 54.6474 32.0163 55.0035 31.563C55.1823 31.3502 55.3345 31.1163 55.4566 30.8663C55.5254 30.7202 55.5867 30.5692 55.6431 30.4186C55.6633 30.365 55.6836 30.3117 55.699 30.2558C55.7118 30.2162 55.722 30.1759 55.7297 30.1351C55.7617 30.0364 55.7497 30.0357 55.6936 30.133L55.4787 30.2586C55.3412 30.2163 55.3221 30.2195 55.4213 30.2684L55.4836 30.3091C55.5311 30.3444 55.5755 30.3836 55.6165 30.4263C55.6944 30.5157 55.7654 30.611 55.8289 30.7112C56.0102 30.974 56.1871 31.2404 56.3713 31.5001C56.4388 31.6093 56.5455 31.6884 56.6694 31.721C56.7933 31.7536 56.925 31.7373 57.0372 31.6753C57.148 31.6092 57.2284 31.5021 57.2611 31.3771C57.2937 31.252 57.2761 31.1191 57.2119 31.007C56.9076 30.5763 56.6415 30.0451 56.2522 29.6853C56.0402 29.4893 55.7412 29.263 55.4366 29.2697C55.0144 29.279 54.8686 29.6053 54.7722 29.9558C54.5952 30.5091 54.2734 31.0047 53.8405 31.3908C53.3758 31.813 52.8508 32.1632 52.283 32.43C51.8849 32.6691 51.46 32.8604 51.0173 32.9999C50.9824 33.0088 50.9475 33.017 50.912 33.0229C51.0526 32.9999 50.9676 33.009 50.9323 33.0119C50.9501 33.0105 51.0509 33.0434 50.9702 33.017C50.9341 33.005 50.8945 32.9995 50.8578 32.9889C50.6801 32.935 50.5069 32.8669 50.34 32.7854C49.2624 32.2857 48.0388 31.689 47.4244 30.6129C47.2597 30.3247 47.1718 29.9989 47.0106 29.7109C46.9677 29.6267 46.9086 29.5518 46.8367 29.4906C46.7648 29.4295 46.6815 29.3833 46.5917 29.3546C46.5018 29.326 46.4072 29.3156 46.3133 29.3239C46.2194 29.3322 46.1281 29.3592 46.0446 29.4032C45.4578 29.6855 45.1135 30.4133 44.7583 30.9296C44.6943 31.0417 44.6768 31.1746 44.7094 31.2996C44.7421 31.4245 44.8224 31.5316 44.933 31.5978C45.045 31.6607 45.177 31.6775 45.3012 31.6448C45.4253 31.6122 45.5321 31.5325 45.5989 31.4226H45.5994Z" fill="#4A3E42"/>
<path d="M50.3477 33.6469V34.6771C50.349 34.8065 50.3998 34.9303 50.4897 35.0231C50.5577 35.0917 50.6446 35.1384 50.7392 35.1573C50.8338 35.1763 50.9319 35.1666 51.021 35.1295C51.1101 35.0925 51.1862 35.0297 51.2397 34.9491C51.2932 34.8686 51.3216 34.7739 51.3213 34.6771V34.5859C51.32 34.4566 51.2692 34.3327 51.1793 34.24C51.1113 34.1714 51.0244 34.1247 50.9298 34.1057C50.8352 34.0868 50.7371 34.0965 50.648 34.1335C50.5589 34.1706 50.4828 34.2334 50.4293 34.3139C50.3758 34.3945 50.3474 34.4892 50.3477 34.5859V34.6771C50.349 34.8065 50.3998 34.9303 50.4897 35.0231C50.5577 35.0917 50.6446 35.1384 50.7392 35.1573C50.8338 35.1763 50.9319 35.1666 51.021 35.1295C51.1101 35.0925 51.1862 35.0297 51.2397 34.9491C51.2932 34.8686 51.3216 34.7739 51.3213 34.6771V33.6469C51.32 33.5175 51.2692 33.3937 51.1793 33.3009C51.1113 33.2323 51.0244 33.1856 50.9298 33.1667C50.8352 33.1477 50.7371 33.1574 50.648 33.1945C50.5589 33.2315 50.4828 33.2943 50.4293 33.3749C50.3758 33.4554 50.3474 33.5501 50.3477 33.6469Z" fill="#4A3E42"/>
<path d="M62.8042 63.2041C62.7169 61.716 62.6082 60.227 62.5638 58.7366C62.5451 58.1093 61.5712 58.1067 61.5901 58.7366C61.6345 60.227 61.7433 61.716 61.8305 63.2041C61.8333 63.3328 61.8855 63.4554 61.9762 63.5464C62.0669 63.6374 62.1891 63.6897 62.3173 63.6926C62.4461 63.6915 62.5693 63.6397 62.6604 63.5483C62.7514 63.4569 62.8031 63.3333 62.8042 63.2041Z" fill="#4A3E42"/>
<path d="M66.7952 50.5733C66.8134 51.0342 66.8052 51.4958 66.7704 51.9558C66.7067 52.5113 66.5795 53.0576 66.3915 53.584C66.0018 54.6847 65.2988 55.5456 64.4442 56.3204C63.9776 56.7431 64.6687 57.4323 65.1326 57.0114C66.0987 56.1768 66.8439 55.1154 67.3017 53.9217C67.5091 53.3403 67.6504 52.7373 67.723 52.1242C67.7726 51.6085 67.7877 51.0901 67.7683 50.5725C67.7656 49.944 66.7919 49.9426 66.7946 50.5725L66.7952 50.5733Z" fill="#4A3E42"/>
<path d="M61.416 55.5018C62.0426 55.5018 62.0436 54.5249 61.416 54.5249C60.7884 54.5249 60.7884 55.5018 61.416 55.5018Z" fill="#4A3E42"/>
<path d="M62.2714 51.5619L62.261 51.5676C61.7912 51.8351 61.2959 52.0551 60.7827 52.2242C61.4452 54.5818 61.7314 57.7277 61.7766 60.0125C61.8322 62.8618 61.2555 66.7438 60.1376 67.9943L59.1313 68.8287C59.1144 69.2647 59.0935 69.7204 59.0692 70.2078C59.0747 70.3718 59.1128 70.533 59.1814 70.682C59.2351 70.8377 59.4743 70.9873 59.597 71.1001C59.9865 71.4548 60.2143 72.0306 59.8244 72.5614C59.6538 72.7934 59.255 72.933 58.9597 72.9684C58.1483 73.0659 57.6367 72.9776 56.8009 72.7598C56.8183 72.9588 56.7711 73.158 56.6662 73.3278C56.0171 74.3412 53.8355 74.8187 52.8843 74.295C52.3445 73.9978 52.2729 73.6417 52.1841 72.9863C52.1108 72.6546 51.9812 72.0686 51.824 71.3541H51.2721C51.2855 71.4739 51.2812 71.5951 51.2593 71.7137C51.1808 72.1458 50.742 72.3676 50.3487 72.5386C49.5817 72.8721 48.1076 72.9116 47.4021 72.8477C44.5934 72.5935 42.04 72.3407 39.6181 70.0535C38.5191 69.0156 37.6955 67.6813 37.7793 66.1662C37.8631 64.6512 38.5576 63.4201 40.0411 63.3423L40.2547 63.3309C40.3042 62.9885 40.3862 62.6515 40.4995 62.3247C41.1939 60.4541 41.5894 59.5889 42.5597 58.1753C43.4804 56.8769 44.5425 55.6856 45.7264 54.6233C46.8633 53.5595 48.908 52.0907 49.7292 51.3794L50.1836 50.9858C50.0157 50.8001 49.8712 50.5945 49.7533 50.3736C49.3588 49.7201 49.1007 48.9931 48.9945 48.2365C48.8635 47.3263 48.88 46.4008 49.0434 45.4959C49.241 44.3947 49.7366 43.3691 50.4759 42.5314L50.4838 42.4499L50.5122 42.1579C50.6162 40.8757 50.6962 40.3237 50.8367 39.4335C50.8832 39.1366 50.9544 38.9404 51.0944 38.8671C51.161 38.8339 51.2343 38.8165 51.3086 38.8161C51.383 38.8158 51.4565 38.8325 51.5234 38.8651C52.1977 39.2043 53.3186 40.0793 54.0164 40.6286C55.2538 40.2531 56.6809 40.0449 58.0249 40.2623C58.7866 39.3088 59.1276 38.8822 59.6149 38.2958C59.669 38.2139 59.7428 38.1469 59.8294 38.101C59.9161 38.0551 60.0129 38.0318 60.1108 38.0333C60.2022 38.0437 60.29 38.0747 60.3679 38.1238C60.4457 38.1729 60.5116 38.2389 60.5606 38.317C60.9575 39.0968 61.3137 39.8968 61.628 40.7137L62.0438 41.8524C62.8982 42.518 63.5556 43.4045 63.9455 44.4168C64.5005 45.7371 64.5135 46.9922 64.3334 48.4136C64.2321 49.1978 63.5982 50.839 62.2714 51.5619Z" fill="#C6C6C6"/>
<path d="M58.6987 63.4419C58.6736 63.8728 58.6218 64.3044 58.6326 64.7367C58.6423 65.1338 58.6665 65.5305 58.6756 65.9277C58.6934 66.7199 58.6863 67.5124 58.6626 68.3045C58.6503 68.7115 58.6346 69.1186 58.6155 69.5256C58.5953 69.9703 58.5472 70.3874 58.7127 70.8111C58.8512 71.1661 59.1551 71.2918 59.3791 71.5707C59.4722 71.6642 59.5277 71.789 59.5348 71.921C59.542 72.0531 59.5003 72.1831 59.4178 72.2862C59.19 72.5181 58.7232 72.5126 58.4279 72.5179C58 72.516 57.5742 72.4585 57.1611 72.3467C56.5526 72.1989 56.2925 73.1404 56.9023 73.2888C57.7094 73.4848 58.6596 73.6348 59.4655 73.3499C59.6793 73.2891 59.8763 73.1795 60.0409 73.0296C60.2055 72.8798 60.3333 72.6937 60.4142 72.486C60.4952 72.2783 60.5272 72.0547 60.5077 71.8325C60.4881 71.6104 60.4176 71.3958 60.3016 71.2055C60.2059 71.0373 60.0846 70.8851 59.942 70.7545C59.8246 70.6742 59.7176 70.5797 59.6233 70.4731C59.5492 70.2954 59.5311 70.0992 59.5714 69.9109C59.5835 69.6585 59.5949 69.406 59.6054 69.1534C59.642 68.2772 59.6651 67.4002 59.6582 66.5233C59.6543 66.0321 59.6415 65.5411 59.6198 65.0501C59.6098 64.5137 59.6273 63.977 59.6724 63.4423C59.7089 62.8144 58.7352 62.8165 58.6987 63.4423V63.4419Z" fill="#4A3E42"/>
<path d="M54.4149 62.768C54.4233 62.8274 54.4028 62.6663 54.418 62.7912C54.4235 62.837 54.4293 62.8828 54.4346 62.9286C54.4468 63.0324 54.4582 63.1363 54.4689 63.2404C54.4951 63.4911 54.5182 63.7421 54.5399 63.9934C54.5941 64.6156 54.6401 65.2384 54.6829 65.8616C54.7734 67.18 54.8507 68.4999 54.906 69.8203C54.9263 70.3228 54.9466 70.826 54.9466 71.3289C54.9477 71.4355 54.9831 71.539 55.0475 71.6239C55.1119 71.7087 55.2019 71.7705 55.304 71.8C55.5078 71.8394 55.6997 71.9258 55.8644 72.0524C56.0292 72.1789 56.1625 72.3422 56.2536 72.5292C56.2842 72.6036 56.305 72.6817 56.3154 72.7615C56.3179 72.7952 56.3179 72.829 56.3173 72.8632C56.315 73.0187 56.3359 72.7792 56.31 72.9296C56.2923 73.0326 56.2939 73.0155 56.2191 73.1231C56.2651 73.0568 56.1643 73.1883 56.1667 73.1856C56.1248 73.232 56.0801 73.2758 56.0339 73.3179C55.6977 73.5905 55.305 73.7841 54.8845 73.8847C54.6825 73.9421 54.476 73.982 54.2673 74.004C54.0387 74.0246 53.8088 74.0246 53.5802 74.004C53.4939 73.991 53.4085 73.9724 53.3246 73.9482C53.277 73.9351 53.2302 73.9194 53.1842 73.9014C53.2715 73.9368 53.137 73.876 53.1311 73.8725C53.0398 73.8264 52.957 73.7652 52.8861 73.6914C52.8828 73.6877 52.8311 73.6193 52.8631 73.6651C52.8489 73.6448 52.7794 73.506 52.795 73.5452C52.7251 73.3208 52.6781 73.0898 52.6546 72.8559C52.6047 72.5783 52.5329 72.3027 52.472 72.0274C52.1994 70.7911 51.8937 69.5669 51.5592 68.3456C51.1785 66.9513 50.7943 65.5626 50.4673 64.1542C50.3253 63.5422 49.3861 63.8013 49.5283 64.4139C49.8585 65.8361 50.2474 67.2384 50.6316 68.6472C51.0062 70.021 51.3361 71.4003 51.643 72.7906C51.7647 73.3401 51.7834 73.9222 52.1789 74.3626C52.5643 74.7914 53.1445 74.9546 53.7003 74.9913C54.7679 75.0615 56.0893 74.6994 56.8376 73.8959C57.8946 72.7604 56.881 71.1563 55.5631 70.8583L55.9205 71.3293C55.9205 70.2567 55.8546 69.1821 55.7957 68.1115C55.7225 66.7817 55.6379 65.4519 55.5251 64.1249C55.4793 63.5852 55.429 63.0462 55.3539 62.5089C55.319 62.3844 55.2365 62.2788 55.1244 62.2149C55.0123 62.1511 54.8796 62.1341 54.7551 62.1678C54.6325 62.2051 54.5288 62.2883 54.4655 62.4001C54.4022 62.5119 54.3842 62.6438 54.4151 62.7686L54.4149 62.768Z" fill="#4A3E42"/>
<path d="M49.3854 51.0336C48.6525 51.6645 47.8664 52.2344 47.1072 52.833C46.2036 53.5378 45.3423 54.2955 44.5277 55.102C42.8923 56.7351 41.4994 58.5925 40.6012 60.7338C40.1163 61.8896 39.5818 63.1419 39.7303 64.4269C39.734 64.5553 39.7865 64.6774 39.877 64.7682C39.9675 64.859 40.0892 64.9116 40.2172 64.9154C40.346 64.9146 40.4694 64.8629 40.5605 64.7714C40.6517 64.68 40.7032 64.5562 40.704 64.4269C40.576 63.3195 41.0188 62.2696 41.4264 61.268C41.7863 60.3858 42.2331 59.5417 42.7599 58.7484C44.0449 56.8053 45.7381 55.1598 47.5524 53.7162C48.3898 53.0499 49.2628 52.4231 50.0738 51.7244C50.1641 51.6322 50.2147 51.5082 50.2147 51.379C50.2147 51.2498 50.1641 51.1257 50.0738 51.0336C49.9813 50.9444 49.8579 50.8945 49.7296 50.8945C49.6013 50.8945 49.4779 50.9444 49.3854 51.0336Z" fill="#4A3E42"/>
<path d="M60.6336 53.6767C61.051 55.7873 61.2717 57.9322 61.2929 60.0839C61.3385 61.9447 61.1313 63.8032 60.6768 65.6079C60.5728 66.0199 60.4397 66.4239 60.2786 66.817C60.2078 66.9817 60.1274 67.142 60.0379 67.2972C59.9973 67.3674 59.9539 67.4354 59.9091 67.5027C59.9135 67.496 59.8255 67.6189 59.8669 67.5638C59.8938 67.5282 59.806 67.6358 59.7951 67.6484C59.3831 68.1192 60.0691 68.8128 60.4835 68.3392C60.9821 67.7693 61.2659 67.0395 61.4858 66.3243C61.7526 65.413 61.9431 64.481 62.0554 63.5379C62.301 61.5045 62.3252 59.4504 62.1278 57.4118C62.0209 56.0703 61.8356 54.7362 61.573 53.4164C61.556 53.3545 61.5271 53.2966 61.4878 53.246C61.4485 53.1954 61.3996 53.153 61.344 53.1213C61.2317 53.0573 61.0986 53.0407 60.9741 53.0752C60.8496 53.1096 60.7438 53.1923 60.68 53.305C60.6163 53.4177 60.5997 53.5512 60.634 53.6761L60.6336 53.6767Z" fill="#4A3E42"/>
<path d="M40.0414 62.853C39.5045 62.8792 38.9871 63.0633 38.5538 63.3824C38.1204 63.7014 37.7901 64.1413 37.6041 64.6473C37.1619 65.7876 37.186 67.0569 37.6713 68.1795C38.1912 69.4024 39.147 70.381 40.1927 71.1713C41.2012 71.9212 42.3461 72.466 43.563 72.7752C44.7217 73.0488 45.9008 73.227 47.0884 73.3081C48.1389 73.405 49.3069 73.4233 50.3161 73.0728C50.8516 72.887 51.4446 72.5884 51.6681 72.032C51.7733 71.7512 51.7953 71.4459 51.7316 71.1528C51.6679 70.8598 51.521 70.5915 51.3089 70.3802C50.8526 69.9434 50.1729 69.8307 49.5706 69.7602C48.8696 69.6774 48.1612 69.6845 47.4582 69.6251C46.0703 69.5079 44.6258 69.2341 43.3924 68.5605C42.9261 68.3299 42.51 68.0089 42.168 67.6161C41.8615 67.19 41.654 66.7004 41.5607 66.1833C41.4246 65.5699 40.4856 65.8296 40.6217 66.443C40.7924 67.3702 41.2809 68.2084 42.0025 68.8124C42.8666 69.4698 43.8591 69.9371 44.9152 70.1838C46.1994 70.4773 47.5092 70.6429 48.8258 70.6781C49.3463 70.7058 49.9167 70.728 50.4033 70.938C50.696 71.0646 50.9269 71.4265 50.7459 71.7202C50.6072 71.8786 50.4284 71.9964 50.2285 72.0613C50.0329 72.1454 49.8288 72.2083 49.6199 72.2489C49.1202 72.3457 48.6119 72.3913 48.103 72.3851C47.0882 72.3718 46.0761 72.2747 45.0771 72.0949C44.0112 71.9429 42.9752 71.6266 42.0056 71.1572C40.9406 70.6222 40.0012 69.866 39.2498 68.9388C38.5109 68.0073 38.1035 66.8576 38.323 65.6663C38.4993 64.7108 39.0192 63.8973 40.0416 63.8306C40.1698 63.8276 40.2919 63.7752 40.3826 63.6842C40.4732 63.5933 40.5255 63.4707 40.5284 63.3421C40.5273 63.2129 40.4756 63.0893 40.3846 62.9979C40.2935 62.9066 40.1703 62.8548 40.0416 62.8536L40.0414 62.853Z" fill="#4A3E42"/>
<path d="M54.3309 40.2589C53.8806 39.9046 53.4286 39.5519 52.9651 39.215C52.557 38.8786 52.1063 38.598 51.6247 38.3806C51.4624 38.322 51.287 38.31 51.1182 38.346C50.9495 38.3819 50.7941 38.4644 50.6695 38.5841C50.4778 38.8235 50.3655 39.117 50.3486 39.4236C50.2729 39.908 50.2027 40.3934 50.1473 40.8807C50.0879 41.4025 50.0488 41.926 49.998 42.4478C49.9989 42.5771 50.0505 42.7008 50.1416 42.7922C50.2327 42.8836 50.356 42.9354 50.4849 42.9363C50.6131 42.9335 50.7354 42.8812 50.8261 42.7901C50.9168 42.6991 50.969 42.5765 50.9717 42.4478C51.0101 42.0522 51.0407 41.6559 51.0805 41.2604C51.1025 41.0405 51.1271 40.8208 51.1543 40.6014C51.1598 40.5567 51.1656 40.5121 51.1713 40.4675C51.1738 40.4488 51.1845 40.3708 51.1713 40.4655C51.1744 40.4437 51.1772 40.4219 51.1803 40.4001C51.1946 40.2982 51.2093 40.1965 51.2243 40.0949C51.2565 39.8771 51.2835 39.6565 51.3277 39.4407C51.3402 39.3797 51.3561 39.3194 51.3754 39.2602C51.3957 39.1949 51.3693 39.2722 51.3693 39.2722C51.3618 39.2616 51.4223 39.2095 51.3734 39.2557C51.3141 39.3119 51.4383 39.2195 51.3616 39.2685C51.3385 39.2834 51.317 39.2946 51.293 39.3093C51.3225 39.2924 51.3379 39.3152 51.3192 39.3009C51.315 39.3032 51.3104 39.3044 51.3056 39.3044C51.3009 39.3044 51.2962 39.3032 51.292 39.3009C51.2628 39.2907 51.2778 39.2946 51.3375 39.3125C51.2803 39.2873 51.3669 39.3329 51.3825 39.342C51.426 39.3658 51.4693 39.3903 51.5123 39.4157C51.6071 39.4711 51.7002 39.5291 51.7923 39.5887C51.9929 39.7183 52.1892 39.8547 52.3832 39.9943C52.839 40.322 53.229 40.6252 53.642 40.9509C53.7353 41.0388 53.8584 41.0877 53.9864 41.0877C54.1143 41.0877 54.2375 41.0388 54.3307 40.9509C54.4212 40.8588 54.4719 40.7348 54.4719 40.6055C54.4719 40.4762 54.4212 40.3522 54.3307 40.2601L54.3309 40.2589Z" fill="#4A3E42"/>
<path d="M58.501 40.4407C58.8412 40.0147 59.181 39.5885 59.5254 39.1658C59.6674 38.9904 59.8094 38.8115 59.9577 38.6407C59.9903 38.6017 60.0256 38.5651 60.0633 38.531C60.1132 38.4903 60.0605 38.5247 60.0569 38.5282C60.0532 38.5316 60.1542 38.4624 60.0625 38.5219C60.1289 38.4789 60.0705 38.5587 60.0767 38.517L60.0441 38.5129L60.0826 38.5235C60.0702 38.496 60.0451 38.4985 60.095 38.5294C60.1078 38.5373 60.1587 38.573 60.1222 38.5416C60.0982 38.5186 60.0663 38.5056 60.033 38.5055C59.9998 38.5054 59.9678 38.5181 59.9436 38.5409C59.9195 38.5638 59.905 38.5951 59.9031 38.6284C59.9013 38.6617 59.9123 38.6944 59.9338 38.7198C59.9553 38.7452 59.9857 38.7613 60.0188 38.7649C60.0518 38.7684 60.0849 38.7591 60.1113 38.7389C60.1377 38.7186 60.1553 38.689 60.1606 38.656C60.1658 38.6231 60.1582 38.5894 60.1394 38.562C60.1563 38.5937 60.1715 38.6263 60.1873 38.6584C60.2235 38.7314 60.2596 38.8046 60.2956 38.8778C60.3642 39.0179 60.4318 39.1584 60.4985 39.2993C60.6273 39.5725 60.752 39.8476 60.8701 40.1256C61.0121 40.4608 61.1427 40.8005 61.2677 41.1433L61.5811 42.0015C61.6183 42.1246 61.7011 42.2286 61.8126 42.2921C61.924 42.3556 62.0555 42.3738 62.1799 42.3428C62.3038 42.3074 62.4089 42.2246 62.4725 42.1122C62.5362 41.9997 62.5532 41.8667 62.5201 41.7418C62.2576 41.0236 61.9991 40.3066 61.6979 39.6032C61.5663 39.2955 61.4271 38.9906 61.2829 38.6883C61.132 38.3727 61.006 37.9984 60.7216 37.7792C60.5942 37.6754 60.4439 37.6036 60.2832 37.57C60.1225 37.5364 59.9562 37.5419 59.798 37.5861C59.4735 37.6844 59.2706 37.9467 59.0641 38.1966C58.6416 38.7095 58.2272 39.2293 57.8125 39.7487C57.7247 39.8421 57.6758 39.9657 57.6758 40.0941C57.6758 40.2225 57.7247 40.3461 57.8125 40.4395C57.9043 40.5302 58.0279 40.5811 58.1568 40.5811C58.2856 40.5811 58.4093 40.5302 58.501 40.4395V40.4407Z" fill="#4A3E42"/>
<path d="M58.3272 48.6581C58.0517 48.7686 57.3982 48.7664 57.3012 48.236C57.2503 47.5285 58.0315 47.4252 58.4197 47.6323C58.7372 47.8011 58.9076 48.3644 58.3272 48.6581Z" fill="#4A3E42"/>
<path d="M54.2056 46.1592C54.1206 46.5421 54.2622 47.3942 54.9702 47.4085C55.8978 47.325 55.866 46.2828 55.5154 45.821C55.2284 45.4428 54.4631 45.3398 54.2056 46.1592Z" fill="#4A3E42"/>
<path d="M61.2076 45.5901C61.3529 45.9542 61.3496 46.8184 60.6535 46.9464C59.7244 47.0138 59.5887 45.9801 59.8607 45.4676C60.0835 45.0481 60.822 44.8228 61.2076 45.5901Z" fill="#4A3E42"/>
<path d="M56.5102 49.7969C56.6455 49.9367 56.8091 50.0457 56.9898 50.1167C57.1706 50.1876 57.3645 50.219 57.5584 50.2085C57.7612 50.2055 57.9597 50.1484 58.1332 50.043C58.3407 49.9014 58.4981 49.6976 58.583 49.4607L57.6931 49.5773C57.8049 49.7668 57.9711 49.9181 58.1699 50.0115C58.3688 50.105 58.591 50.1361 58.8077 50.101C59.0025 50.0746 59.1892 50.006 59.3549 49.9C59.5206 49.7939 59.6613 49.6529 59.7672 49.4868C59.8312 49.3746 59.8488 49.2417 59.8161 49.1167C59.7835 48.9917 59.7032 48.8846 59.5925 48.8184C59.4804 48.7558 59.3485 48.739 59.2244 48.7717C59.1002 48.8043 58.9935 48.8839 58.9264 48.9936C58.8889 49.0526 58.9264 48.983 58.9448 48.9763C58.9306 48.9814 58.901 49.0248 58.8878 49.0374C58.8783 49.0467 58.8221 49.1007 58.8734 49.0541C58.9248 49.0075 58.8678 49.0563 58.8542 49.0649C58.8302 49.0801 58.8051 49.0927 58.7809 49.1072C58.7201 49.1426 58.7822 49.095 58.8049 49.0992C58.7555 49.1069 58.7073 49.121 58.6617 49.1414C58.6085 49.1627 58.7513 49.1393 58.6953 49.1383C58.6751 49.1383 58.6533 49.1414 58.6325 49.1418C58.6071 49.1381 58.5815 49.1371 58.556 49.1387C58.5777 49.1245 58.6665 49.1666 58.5907 49.1387C58.5148 49.1108 58.5974 49.1524 58.6032 49.1469C58.5805 49.1359 58.5589 49.1227 58.5387 49.1074C58.6227 49.1601 58.559 49.1135 58.5371 49.0948C58.4905 49.0541 58.5923 49.1807 58.5339 49.084C58.4845 49.0018 58.4123 48.936 58.326 48.8946C58.2398 48.8531 58.1434 48.838 58.0487 48.8509C57.955 48.8649 57.8673 48.9052 57.7955 48.9671C57.7237 49.029 57.6708 49.11 57.643 49.2008C57.6653 49.1452 57.6604 49.1416 57.6365 49.1969C57.6141 49.2486 57.69 49.1467 57.6482 49.1833C57.5703 49.2517 57.6448 49.1833 57.6553 49.1894L57.5965 49.2262C57.5951 49.2022 57.6892 49.202 57.6093 49.2189C57.5848 49.2231 57.5606 49.229 57.5369 49.2364C57.5442 49.2238 57.6505 49.2295 57.5734 49.2303C57.5464 49.2303 57.5196 49.2328 57.4922 49.2324C57.4707 49.2324 57.448 49.2279 57.4265 49.2289C57.3685 49.2315 57.5423 49.2551 57.4399 49.2289C57.3902 49.2169 57.3427 49.202 57.2938 49.1882C57.2377 49.1713 57.364 49.2324 57.3178 49.1973C57.2948 49.182 57.2708 49.1684 57.2458 49.1566C57.1762 49.1184 57.2661 49.1743 57.2661 49.1743C57.2592 49.1774 57.202 49.1106 57.1977 49.1058C57.106 49.015 56.9823 48.9641 56.8535 48.9641C56.7246 48.9641 56.601 49.015 56.5092 49.1058C56.4206 49.1987 56.3711 49.3225 56.3711 49.4511C56.3711 49.5798 56.4206 49.7035 56.5092 49.7965L56.5102 49.7969Z" fill="#4A3E42"/>
<path d="M57.582 48.7834L57.6104 49.1369L57.6147 49.1878C57.6181 49.3162 57.6705 49.4385 57.7611 49.5294C57.8516 49.6202 57.9735 49.6728 58.1015 49.6762L58.2309 49.6587C58.3122 49.6362 58.3862 49.5929 58.4458 49.5332L58.5218 49.4342C58.5654 49.3595 58.5884 49.2744 58.5884 49.1878L58.5598 48.8343L58.5557 48.7834C58.5507 48.6548 58.5003 48.5322 58.4137 48.4374C58.3191 48.3506 58.197 48.3001 58.0689 48.2949L57.9395 48.3124C57.8582 48.3348 57.7841 48.3781 57.7246 48.438L57.6484 48.5367C57.6048 48.6115 57.5819 48.6967 57.582 48.7834Z" fill="#4A3E42"/>
<path d="M47.7963 49.9398C48.2791 49.7877 48.7619 49.6363 49.2568 49.5301C49.4175 49.4957 49.5794 49.4668 49.7414 49.4399C49.8598 49.4204 49.9782 49.402 50.0966 49.3848C50.1133 49.3823 50.2938 49.3577 50.2143 49.3681C50.2837 49.3589 50.3532 49.3504 50.4228 49.3418C50.5509 49.3387 50.673 49.2862 50.7636 49.1953C50.8542 49.1043 50.9065 48.9819 50.9097 48.8534C50.8991 48.615 50.6936 48.3321 50.4228 48.3649C49.9542 48.4219 49.4838 48.4854 49.0215 48.5831C48.5181 48.6895 48.0276 48.8434 47.5373 48.9977C47.4756 49.0147 47.4179 49.0438 47.3675 49.0832C47.317 49.1226 47.2748 49.1717 47.2432 49.2275C47.2116 49.2833 47.1913 49.3447 47.1834 49.4084C47.1755 49.4721 47.1802 49.5367 47.1972 49.5986C47.2142 49.6604 47.2432 49.7183 47.2825 49.769C47.3218 49.8196 47.3706 49.8619 47.4262 49.8936C47.4818 49.9253 47.5431 49.9457 47.6066 49.9536C47.6701 49.9615 47.7347 49.9568 47.7963 49.9398Z" fill="#4A3E42"/>
<path d="M49.3205 51.9613C49.5874 51.6531 49.88 51.3682 50.1951 51.1098C50.2325 51.0801 50.2699 51.0506 50.3075 51.0213L50.3684 50.9738C50.4165 50.9362 50.2844 51.0382 50.3536 50.9854C50.4317 50.9258 50.51 50.8668 50.5903 50.8102C50.7648 50.6877 50.947 50.5768 51.136 50.4783C51.2467 50.4121 51.327 50.305 51.3597 50.18C51.3924 50.0549 51.3747 49.922 51.3106 49.8099C51.2435 49.7002 51.1367 49.6208 51.0126 49.5881C50.8885 49.5555 50.7566 49.5721 50.6445 49.6347C49.8871 50.0631 49.2068 50.6161 48.632 51.2706C48.5419 51.3624 48.4917 51.4863 48.4922 51.6151C48.4927 51.744 48.544 51.8674 48.6348 51.9585C48.7256 52.0497 48.8486 52.1011 48.977 52.1016C49.1055 52.1021 49.2289 52.0517 49.3205 51.9613Z" fill="#4A3E42"/>
<path d="M66.0543 48.1877C65.4922 48.0859 64.9293 47.988 64.3597 47.9404C63.9057 47.9023 63.4481 47.8964 62.9927 47.8997C62.8636 47.8997 62.7398 47.9512 62.6485 48.0428C62.5572 48.1344 62.5059 48.2586 62.5059 48.3882C62.5059 48.5177 62.5572 48.6419 62.6485 48.7335C62.7398 48.8251 62.8636 48.8766 62.9927 48.8766C63.439 48.8736 63.8885 48.8793 64.3341 48.9153C64.6092 48.9375 64.8007 48.9621 65.02 48.9967C65.2792 49.0374 65.5372 49.0842 65.7955 49.1306C65.9199 49.162 66.0516 49.1441 66.1631 49.0805C66.2747 49.0169 66.3575 48.9126 66.3943 48.7893C66.427 48.6644 66.4097 48.5317 66.3462 48.4195C66.2827 48.3072 66.1779 48.2243 66.0543 48.1885V48.1877Z" fill="#4A3E42"/>
<path d="M64.951 50.4934C64.3362 49.9383 63.6264 49.4995 62.8558 49.1982C62.7313 49.1644 62.5986 49.1813 62.4864 49.2452C62.3743 49.309 62.2918 49.4147 62.2569 49.5393C62.226 49.6641 62.2441 49.7961 62.3073 49.9079C62.3706 50.0197 62.4743 50.1029 62.5969 50.1403C62.6448 50.158 62.6919 50.1773 62.7389 50.1953C62.801 50.2189 62.6525 50.1568 62.7111 50.1832C62.7347 50.1938 62.7584 50.2036 62.7817 50.2148C62.8574 50.2494 62.9318 50.2864 63.0049 50.3253C63.1608 50.4081 63.3132 50.4987 63.4643 50.5899C63.611 50.6784 63.7538 50.7731 63.8903 50.8758C63.9057 50.8874 63.9207 50.8999 63.9367 50.9108C63.9014 50.8866 63.8615 50.8518 63.9197 50.898C63.9518 50.9235 63.9836 50.9493 64.0152 50.9754C64.0982 51.0435 64.1796 51.1136 64.2605 51.184C64.352 51.2743 64.4755 51.3248 64.6039 51.3242C64.7323 51.3237 64.8554 51.2723 64.9462 51.1812C65.037 51.0901 65.0882 50.9666 65.0888 50.8378C65.0893 50.7089 65.039 50.5851 64.949 50.4932L64.951 50.4934Z" fill="#4A3E42"/>
<path d="M54.165 41.0915C55.3277 40.7455 56.5759 40.5481 57.7871 40.7164C57.9114 40.7465 58.0425 40.728 58.1538 40.6646C58.265 40.6013 58.3481 40.4978 58.3861 40.3753C58.4195 40.2504 58.4026 40.1172 58.3389 40.0048C58.2753 39.8923 58.17 39.8095 58.0459 39.7743C56.6551 39.6016 55.2436 39.7296 53.9062 40.1496C53.3067 40.3277 53.5613 41.2708 54.165 41.0915Z" fill="#4A3E42"/>
<path d="M61.7914 42.2676C63.2519 43.4454 63.9894 45.2966 63.947 47.1542C63.961 47.8836 63.8358 48.609 63.5781 49.2912C63.3131 49.9625 62.8673 50.5467 62.2906 50.9784C61.449 51.5263 60.4948 51.8759 59.4994 52.0011C59.3753 52.0363 59.2701 52.1191 59.2065 52.2315C59.1428 52.344 59.1259 52.4771 59.1594 52.6019C59.1964 52.7251 59.2793 52.8291 59.3908 52.8926C59.5023 52.9561 59.6338 52.9742 59.7582 52.943C60.7618 52.7955 61.7272 52.4538 62.6009 51.9368C63.3553 51.4666 63.9561 50.7853 64.3296 49.9769C64.6768 49.2295 64.871 48.4197 64.9006 47.5956C64.9938 46.5007 64.8396 45.3989 64.4497 44.372C64.0442 43.2856 63.3656 42.3228 62.4798 41.5772C62.3867 41.4891 62.2636 41.4399 62.1356 41.4399C62.0076 41.4399 61.8844 41.4891 61.7914 41.5772C61.7009 41.6693 61.6502 41.7933 61.6502 41.9226C61.6502 42.0519 61.7009 42.1759 61.7914 42.268V42.2676Z" fill="#4A3E42"/>
<path d="M49.9468 42.3926C48.8282 43.7686 48.3568 45.5515 48.429 47.3094C48.4956 48.9282 48.9818 50.5942 50.2228 51.703C50.6894 52.1199 51.3805 51.4313 50.9113 51.0123C49.8597 50.0726 49.4585 48.6827 49.4027 47.3094C49.3419 45.8291 49.6837 44.254 50.6352 43.0834C50.7232 42.99 50.7721 42.8664 50.7721 42.738C50.7721 42.6096 50.7232 42.486 50.6352 42.3926C50.5435 42.3019 50.4198 42.251 50.291 42.251C50.1622 42.251 50.0385 42.3019 49.9468 42.3926Z" fill="#4A3E42"/>
<path d="M54.4277 40.8789C54.4609 40.9527 54.4933 41.027 54.5248 41.1018L54.4757 40.9851C54.6072 41.299 54.725 41.6187 54.8307 41.9417C54.8668 42.0632 54.9463 42.1672 55.0539 42.2338C55.1091 42.2662 55.1701 42.2873 55.2334 42.296C55.2968 42.3048 55.3613 42.3009 55.4231 42.2846C55.485 42.2683 55.543 42.24 55.594 42.2012C55.6449 42.1624 55.6878 42.1139 55.72 42.0585C55.7526 42.0021 55.7737 41.9398 55.7822 41.8752C55.7906 41.8106 55.7861 41.7449 55.7691 41.682C55.6256 41.2411 55.4583 40.8084 55.2679 40.3858C55.2037 40.276 55.0993 40.1956 54.977 40.1619C54.8504 40.128 54.7156 40.1456 54.6019 40.2109C54.4927 40.2757 54.4128 40.3804 54.3788 40.503L54.3613 40.6328C54.3612 40.7195 54.3842 40.8046 54.4279 40.8793L54.4277 40.8789Z" fill="#4A3E42"/>
<path d="M55.7846 40.5414C56.0106 41.1563 56.2019 41.7835 56.3574 42.42C56.3917 42.5449 56.4741 42.651 56.5864 42.715C56.642 42.7467 56.7033 42.7671 56.7668 42.775C56.8303 42.7829 56.8947 42.7782 56.9563 42.7612C57.018 42.7441 57.0757 42.7151 57.1261 42.6756C57.1766 42.6362 57.2188 42.5872 57.2504 42.5314C57.282 42.4756 57.3023 42.4141 57.3102 42.3504C57.3181 42.2867 57.3134 42.2221 57.2964 42.1603C57.1409 41.5237 56.9496 40.8966 56.7234 40.2817C56.6864 40.1606 56.6072 40.0569 56.5002 39.9897C56.4166 39.9406 56.3203 39.9177 56.2237 39.9238C56.127 39.93 56.0344 39.9649 55.9576 40.0241C55.8809 40.0834 55.8234 40.1642 55.7927 40.2564C55.762 40.3485 55.7594 40.4478 55.7852 40.5414H55.7846Z" fill="#4A3E42"/>
<path d="M57.1321 40.4553C57.2944 40.8511 57.4419 41.2539 57.5678 41.6632C57.6036 41.7849 57.6831 41.8889 57.791 41.9551C57.8745 42.0041 57.9708 42.027 58.0674 42.0209C58.1641 42.0147 58.2567 41.9798 58.3334 41.9206C58.4102 41.8614 58.4676 41.7806 58.4983 41.6885C58.5291 41.5964 58.5318 41.4972 58.506 41.4035C58.38 40.9942 58.2336 40.5914 58.0705 40.1956C58.0327 40.075 57.9537 39.9716 57.8474 39.9037C57.7922 39.8713 57.7311 39.8502 57.6678 39.8415C57.6044 39.8327 57.54 39.8366 57.4781 39.8529C57.4162 39.8692 57.3582 39.8975 57.3072 39.9363C57.2563 39.9751 57.2135 40.0236 57.1812 40.079C57.1475 40.1349 57.1257 40.1972 57.1173 40.262C57.1088 40.3267 57.1139 40.3926 57.1321 40.4553Z" fill="#4A3E42"/>
<path d="M45.3064 53.7122C46.1677 52.8408 47.067 52.0093 48.0043 51.2176C48.0362 51.1812 48.0764 51.153 48.1214 51.1353C48.1663 51.1176 48.2149 51.1109 48.2629 51.1158C48.3501 51.1406 48.3948 51.2349 48.4303 51.3193C48.8253 52.2515 49.3941 53.0993 50.1062 53.8174C50.2157 53.9092 50.3006 54.0269 50.3535 54.1599C50.4367 54.4448 50.2028 54.7163 49.9831 54.915C48.6064 56.1582 47.0149 57.1386 45.2871 57.8081" fill="#FEBE69"/>
<path d="M45.6491 54.0578C46.0916 53.6113 46.5438 53.1744 47.0056 52.7473C47.2305 52.5397 47.4579 52.3346 47.6878 52.1319C47.8087 52.0253 47.9304 51.9194 48.0529 51.8142L48.1998 51.6884L48.3103 51.5944C48.3736 51.5463 48.3574 51.5494 48.2617 51.6037L48.0158 51.537C47.9683 51.4812 47.966 51.4904 48.0087 51.5646C48.0312 51.6178 48.0541 51.6707 48.0779 51.7234C48.1134 51.8022 48.1502 51.8805 48.188 51.9583C48.2766 52.1397 48.3721 52.3174 48.4746 52.4915C48.6875 52.8495 48.9255 53.1918 49.1866 53.516C49.3035 53.6626 49.4252 53.805 49.5518 53.9434C49.6349 54.034 49.8289 54.1645 49.8721 54.2788C49.8859 54.2982 49.8907 54.2913 49.8867 54.2585C49.8808 54.2955 49.8641 54.33 49.8386 54.3574C49.7972 54.4145 49.7496 54.4667 49.6966 54.5131C49.5518 54.6556 49.3934 54.786 49.2384 54.9165C48.0177 55.9407 46.6386 56.7581 45.1554 57.3366C45.0329 57.3742 44.9295 57.4574 44.8662 57.5691C44.8029 57.6808 44.7847 57.8126 44.8152 57.9374C44.8504 58.0618 44.9329 58.1673 45.045 58.2312C45.1571 58.295 45.2898 58.312 45.4142 58.2785C46.3573 57.9149 47.264 57.4628 48.1223 56.9281C48.5449 56.6627 48.9538 56.377 49.3489 56.0711C49.7642 55.7799 50.1502 55.4488 50.5013 55.0824C50.8804 54.6452 50.9815 54.0969 50.5946 53.6294C50.2987 53.2716 49.9613 52.9604 49.6903 52.5794C49.3978 52.1681 49.145 51.7297 48.9355 51.2701C48.8676 51.0439 48.7268 50.8467 48.5353 50.7092C48.2383 50.5391 47.933 50.6516 47.687 50.8501C46.7323 51.638 45.8219 52.4785 44.9601 53.3677C44.5179 53.8142 45.2061 54.5052 45.6498 54.0584L45.6491 54.0578Z" fill="#4A3E42"/>
<path d="M60.0633 59.7398C59.8309 59.7567 59.6302 60.0247 59.5716 60.2649C59.5354 60.441 59.5651 60.6243 59.655 60.7798C59.773 60.9726 59.9354 61.1342 60.1286 61.2511C60.3217 61.368 60.5399 61.4367 60.765 61.4514C61.2319 61.4817 61.7008 61.4425 62.1563 61.3352C62.4346 61.2962 62.7068 61.2214 62.9661 61.1128C63.5795 60.8264 64.0049 60.193 64.2846 59.5552C64.7701 58.4618 64.9191 57.2478 64.7124 56.0688C64.6564 55.6738 64.5222 55.2941 64.3177 54.9519C63.9536 54.485 63.7142 54.1936 63.1554 54.1058C62.9287 54.0838 62.7004 54.0877 62.4746 54.1174C61.8935 54.2527 61.3283 54.4496 60.7887 54.7048C60.5746 54.8019 60.3998 54.9694 60.2934 55.1796C60.0175 55.8844 60.6222 56.0821 60.8934 56.2937C60.6047 56.2934 60.3166 56.3196 60.0327 56.3721C59.882 56.4273 59.749 56.5223 59.6476 56.6471C59.5462 56.7718 59.4803 56.9217 59.4568 57.081C59.4461 57.2336 59.4774 57.3862 59.5473 57.5222C59.6172 57.6581 59.723 57.7722 59.8532 57.8519L60.2149 58.029C59.9844 58.0535 59.7636 58.1352 59.5724 58.2667C59.4182 58.3637 59.2996 58.5085 59.2347 58.6791C59.1698 58.8498 59.1621 59.037 59.2128 59.2125C59.3358 59.4834 59.5596 59.6952 59.8363 59.8027" fill="white"/>
<path d="M60.0818 59.3818C59.9386 59.324 59.8105 59.2339 59.7073 59.1187C59.7668 59.1834 59.6889 59.0859 59.6812 59.0751C59.6313 59.0043 59.6812 59.1189 59.6747 59.0592C59.6732 59.0438 59.6576 58.9371 59.6623 59.0185C59.6623 59.0059 59.6692 58.8844 59.6611 58.9396C59.653 58.9947 59.6801 58.8761 59.684 58.8647C59.6637 58.9276 59.6905 58.8521 59.7043 58.8272C59.7154 58.8069 59.7672 58.7364 59.7276 58.7849C59.7549 58.7527 59.7844 58.7224 59.8159 58.6943C59.8406 58.674 59.8412 58.6715 59.8175 58.6898L59.8651 58.6577C59.9134 58.6268 59.9638 58.5996 60.0161 58.5763C59.9791 58.5915 60.0611 58.5628 60.0601 58.563C60.1155 58.5472 60.1696 58.5319 60.2262 58.5203C60.5305 58.4572 61.0015 58.4483 61.3672 58.4061C61.8249 58.3532 62.2801 58.2877 62.734 58.204C62.8579 58.1685 62.9629 58.0857 63.0265 57.9733C63.0901 57.8609 63.1072 57.7279 63.074 57.603C63.0374 57.4796 62.9546 57.3752 62.843 57.3116C62.7314 57.248 62.5996 57.2302 62.4752 57.2619C61.9703 57.3553 61.5129 57.4168 61.0066 57.4681C60.4721 57.5222 59.9019 57.5076 59.4227 57.7854C59.1935 57.909 59.0036 58.0948 58.8745 58.3215C58.7453 58.5482 58.6823 58.8067 58.6925 59.0676C58.7277 59.3226 58.8291 59.5639 58.9867 59.7672C59.1442 59.9705 59.3522 60.1287 59.5899 60.2258C59.7021 60.2878 59.8339 60.3042 59.9578 60.2716C60.0818 60.239 60.1885 60.1599 60.256 60.0506C60.3201 59.9385 60.3376 59.8056 60.305 59.6806C60.2723 59.5556 60.192 59.4484 60.0814 59.3822L60.0818 59.3818Z" fill="#4A3E42"/>
<path d="M60.0992 57.4305C60.0933 57.4273 60.0065 57.3666 60.0529 57.4057C60.1038 57.4487 60.0211 57.3689 60.0124 57.3591C60.0813 57.4369 59.9483 57.2166 59.9777 57.2981C59.9605 57.2519 59.9477 57.2042 59.9395 57.1556C59.9501 57.2246 59.9466 57.1328 59.9432 57.1078C59.9337 57.0379 59.9158 57.1973 59.9472 57.0927C59.9728 57.0072 59.927 57.1177 59.955 57.0679C59.9734 57.0341 59.9921 57.0013 60.013 56.9692C59.9769 57.0247 60.0176 56.9628 60.0381 56.9409C60.0638 56.9124 60.0915 56.8857 60.1209 56.8611C60.0537 56.916 60.1359 56.8595 60.1479 56.8493C60.1844 56.8183 60.0825 56.8586 60.1623 56.844C60.2132 56.8346 60.2625 56.8206 60.3138 56.8133C60.2619 56.8208 60.3298 56.8133 60.3452 56.8112C60.4004 56.8069 60.4556 56.8029 60.5108 56.7998C61.2634 56.7722 62.013 56.6896 62.7537 56.5527C62.8153 56.5357 62.873 56.5066 62.9234 56.4672C62.9739 56.4278 63.0161 56.3788 63.0477 56.323C63.0792 56.2672 63.0996 56.2057 63.1074 56.1421C63.1153 56.0784 63.1106 56.0138 63.0936 55.9519C63.0767 55.8901 63.0477 55.8322 63.0084 55.7816C62.9691 55.731 62.9203 55.6886 62.8647 55.657C62.809 55.6253 62.7478 55.6049 62.6843 55.597C62.6209 55.5891 62.5565 55.5938 62.4948 55.6108C62.0872 55.6919 61.6751 55.7477 61.2607 55.7781C60.81 55.8188 60.2998 55.769 59.8673 55.9137C59.6283 55.9995 59.4179 56.1508 59.2602 56.3504C59.1024 56.55 59.0036 56.7899 58.9748 57.043C58.9555 57.2872 59.0047 57.5319 59.1166 57.7495C59.2286 57.9672 59.399 58.1491 59.6085 58.2748C59.6637 58.3077 59.7249 58.3293 59.7884 58.3384C59.852 58.3475 59.9168 58.3439 59.979 58.3277C60.0411 58.3116 60.0995 58.2833 60.1508 58.2445C60.202 58.2056 60.2451 58.1569 60.2775 58.1013C60.3099 58.0457 60.331 57.9841 60.3396 57.9203C60.3482 57.8564 60.3441 57.7915 60.3276 57.7292C60.3111 57.667 60.2825 57.6086 60.2434 57.5575C60.2043 57.5063 60.1555 57.4635 60.0998 57.4314L60.0992 57.4305Z" fill="#4A3E42"/>
<path d="M39.2845 56.6342C39.1193 57.0808 39.0502 57.5574 39.0816 58.0326C39.1597 59.1266 39.8188 59.6478 40.5097 60.0133C40.855 60.1667 41.2078 60.3026 41.5667 60.4204C41.6851 60.4539 41.8092 60.4626 41.9311 60.4457C42.053 60.4289 42.1701 60.3869 42.2751 60.3225C42.9216 59.8662 42.5004 59.2766 42.382 58.9001C42.6343 59.0943 42.9035 59.2654 43.1865 59.4111C43.3469 59.4634 43.5191 59.4669 43.6816 59.4213C43.844 59.3756 43.9893 59.2828 44.0993 59.1545C44.1967 59.0142 44.2563 58.851 44.2722 58.6807C44.2881 58.5105 44.2597 58.339 44.19 58.183C44.19 58.183 44.0952 58.0066 43.9715 57.7772C44.1837 57.9084 44.4258 57.9832 44.6748 57.9946C44.8675 58.0089 45.0591 57.9547 45.216 57.8415C45.3729 57.7282 45.485 57.5632 45.5326 57.3753C45.5783 57.0255 45.4945 56.6712 45.2969 56.3794C45.3931 56.3811 45.4886 56.3631 45.5775 56.3264C45.6665 56.2897 45.747 56.2352 45.8142 56.1661C45.9491 56.0098 46.0228 55.8097 46.0217 55.603C46.0196 55.3233 45.9617 55.0469 45.8514 54.7901C45.7411 54.5333 45.5806 54.3012 45.3795 54.1077C44.9955 53.7102 45.0064 53.6599 44.5358 53.3894C44.2676 53.2193 43.9782 53.0853 43.6751 52.9907C42.9581 52.8031 42.2215 53.0953 41.6162 53.5032C40.5151 54.2591 39.6947 55.3599 39.2834 56.6334" fill="white"/>
<path d="M60.7981 55.6431C60.7252 55.5881 60.6709 55.5344 60.7372 55.3813C60.8246 55.1778 61.095 55.0964 61.2798 55.0187C61.5151 54.9187 61.7549 54.8294 61.9989 54.7531C62.1275 54.7123 62.2572 54.6765 62.3876 54.6425C62.4592 54.624 62.5334 54.61 62.6042 54.5884C62.4478 54.636 62.5541 54.5941 62.6071 54.591C63.029 54.5662 63.3519 54.5894 63.6497 54.9059C63.9745 55.2659 64.1816 55.717 64.2431 56.1987C64.4504 57.3816 64.2576 58.6001 63.6954 59.6604C63.4548 60.1082 63.1207 60.562 62.6188 60.7275C62.3189 60.8157 62.0126 60.8807 61.7028 60.9219C61.4004 60.9839 61.0901 60.9976 60.7835 60.9626C60.5286 60.9372 60.2934 60.8142 60.1266 60.6192C60.0305 60.4869 60.0106 60.3056 60.1581 60.2195C60.2356 60.1985 60.3158 60.1891 60.396 60.1916C60.5106 60.1778 60.6248 60.166 60.7409 60.1572C60.9271 60.143 61.1121 60.1259 61.2975 60.1015C61.6938 60.0496 62.0864 59.9771 62.4789 59.9026C62.6027 59.8672 62.7078 59.7844 62.7714 59.672C62.835 59.5596 62.8521 59.4267 62.8191 59.3018C62.7825 59.1783 62.6997 59.0738 62.588 59.0102C62.4764 58.9466 62.3445 58.9288 62.22 58.9605C61.7919 59.0511 61.3595 59.12 60.9244 59.1669C60.5329 59.2011 60.0193 59.1699 59.6686 59.3655C58.8637 59.8147 58.9544 60.9243 59.5962 61.4653C60.2682 62.0321 61.1449 61.9985 61.9624 61.8634C62.7882 61.7268 63.5213 61.5123 64.0733 60.8409C65.1009 59.59 65.451 57.7709 65.2257 56.1942C65.1744 55.8062 65.0743 55.4263 64.9277 55.0636C64.7889 54.7577 64.5976 54.4785 64.3625 54.239C64.1402 54.0032 63.8654 53.8236 63.5606 53.7149C63.2558 53.6062 62.9297 53.5715 62.6089 53.6135C62.2382 53.6574 61.8744 53.7475 61.5259 53.8818C61.1318 53.9955 60.7533 54.158 60.3993 54.3655C60.2055 54.4841 60.0438 54.6488 59.9286 54.8449C59.8133 55.0411 59.748 55.2627 59.7384 55.4902C59.7315 55.9262 59.9798 56.2369 60.3088 56.4861C60.4205 56.5506 60.553 56.5684 60.6777 56.5356C60.8024 56.5028 60.9092 56.4221 60.9749 56.3108C61.0371 56.1983 61.0536 56.066 61.021 55.9415C60.9885 55.8171 60.9095 55.71 60.8003 55.6425L60.7981 55.6431Z" fill="#4A3E42"/>
<path d="M39.7523 56.7631C39.9947 56.0288 40.3846 55.3521 40.8977 54.7748C41.427 54.1864 42.1122 53.6208 42.9019 53.4519C43.2888 53.3815 43.688 53.456 44.0239 53.6611C44.1959 53.7533 44.3687 53.8488 44.531 53.9571C44.5884 53.9955 44.6148 54.0181 44.6121 54.0157C44.6584 54.0564 44.702 54.0995 44.7448 54.1437C45.0165 54.3893 45.2435 54.6805 45.4156 55.0042C45.5004 55.1935 45.6757 55.7412 45.4059 55.8671C45.2872 55.9225 45.2144 55.8041 45.1111 55.7359C44.904 55.5991 44.7012 55.4595 44.5014 55.3121C44.1781 55.0769 43.8409 54.8614 43.4918 54.667C42.9455 54.3574 42.4542 55.201 43.0005 55.5104C43.3834 55.7265 43.7528 55.966 44.1066 56.2274C44.5316 56.5418 45.0219 56.9804 45.5874 56.8355C46.8392 56.5152 46.6088 54.9199 46.0158 54.1152C45.4661 53.3695 44.6421 52.693 43.7178 52.4988C42.5842 52.2605 41.5051 52.8855 40.6835 53.6123C39.8184 54.3946 39.1734 55.3912 38.8129 56.5023C38.613 57.0997 39.5531 57.3559 39.7516 56.762L39.7523 56.7631Z" fill="#4A3E42"/>
<path d="M44.9003 56.6613C44.9528 56.7544 44.9952 56.8528 45.0267 56.955C45.0404 57.0006 45.0518 57.047 45.0608 57.0938C45.0673 57.1292 45.0679 57.1302 45.063 57.0964C45.0656 57.1215 45.0669 57.1465 45.0671 57.1715C45.0671 57.21 45.0612 57.2778 45.0733 57.2031C45.0655 57.2483 45.0532 57.2927 45.0368 57.3356C45.0658 57.2588 45.0182 57.3592 45.0058 57.3797C45.0397 57.3234 45.0145 57.3698 44.9873 57.3987C44.9602 57.4276 44.9159 57.4573 44.9723 57.419C44.937 57.4431 44.9 57.4647 44.8616 57.4835C44.951 57.4398 44.8307 57.4894 44.8147 57.4935C44.7892 57.5002 44.6685 57.5071 44.7679 57.5041C44.6137 57.5121 44.4601 57.4804 44.3216 57.4119C43.9877 57.2375 43.681 57.0034 43.3633 56.8013C43.0388 56.5943 42.7024 56.4073 42.3598 56.2315C42.2477 56.169 42.1158 56.1523 41.9917 56.185C41.8676 56.2176 41.7609 56.297 41.6937 56.4067C41.6298 56.5188 41.6123 56.6516 41.645 56.7766C41.6776 56.9015 41.7578 57.0086 41.8683 57.0749C42.2762 57.2842 42.673 57.5145 43.0572 57.7648C43.4889 58.0463 43.9126 58.3794 44.4354 58.4582C44.7019 58.51 44.9778 58.4822 45.2287 58.3783C45.4797 58.2744 45.6948 58.099 45.8474 57.8737C46.1892 57.3427 46.0207 56.6851 45.7417 56.1692C45.7095 56.1138 45.6666 56.0653 45.6157 56.0266C45.5648 55.9878 45.5067 55.9595 45.4449 55.9432C45.383 55.9269 45.3186 55.9231 45.2552 55.9318C45.1919 55.9405 45.1309 55.9617 45.0757 55.994C45.0205 56.0264 44.9722 56.0694 44.9335 56.1205C44.8949 56.1716 44.8667 56.2298 44.8505 56.2919C44.8343 56.354 44.8304 56.4186 44.8391 56.4822C44.8478 56.5457 44.8689 56.6069 44.9011 56.6623L44.9003 56.6613Z" fill="#4A3E42"/>
<path d="M43.7709 58.4287C43.8186 58.5244 43.7545 58.3353 43.7756 58.4477C43.7802 58.4723 43.7924 58.5875 43.7871 58.4749C43.7892 58.5175 43.7924 58.5594 43.7912 58.6019C43.7912 58.6158 43.7743 58.7296 43.7871 58.6681C43.7999 58.6066 43.7715 58.7228 43.7681 58.7344C43.7612 58.7589 43.7131 58.8588 43.7514 58.788C43.7301 58.8291 43.7063 58.8689 43.68 58.907C43.748 58.8114 43.6786 58.8954 43.6569 58.9139C43.7076 58.8706 43.6883 58.8893 43.6437 58.9139C43.6265 58.9241 43.6088 58.9343 43.5908 58.9418C43.639 58.9226 43.6465 58.919 43.6131 58.931C43.581 58.9386 43.5463 58.9492 43.5149 58.9599C43.4135 58.9952 43.5818 58.9671 43.4841 58.9665C43.4435 58.9665 43.4062 58.9665 43.3664 58.965C43.4455 58.9695 43.4058 58.9681 43.35 58.9526C43.4222 58.973 43.3662 58.9589 43.3258 58.9382C43.2818 58.9154 43.2386 58.8909 43.1962 58.8653C42.5863 58.499 42.0426 58.0394 41.4006 57.7235C41.3454 57.6912 41.2844 57.67 41.221 57.6613C41.1577 57.6526 41.0933 57.6564 41.0314 57.6727C40.9696 57.689 40.9115 57.7173 40.8606 57.7561C40.8096 57.7948 40.7668 57.8433 40.7345 57.8987C40.7023 57.954 40.6812 58.0153 40.6725 58.0788C40.6638 58.1424 40.6677 58.207 40.6839 58.2691C40.7001 58.3311 40.7283 58.3894 40.767 58.4405C40.8056 58.4916 40.8539 58.5346 40.9091 58.5669C41.2713 58.754 41.6205 58.9653 41.9544 59.1995C42.3303 59.4517 42.7268 59.8225 43.1804 59.9169C43.4297 59.9684 43.6884 59.9471 43.9259 59.8556C44.1635 59.764 44.3699 59.6062 44.5208 59.4006C44.6624 59.1856 44.7452 58.9372 44.7611 58.68C44.777 58.4229 44.7254 58.1661 44.6115 57.9352C44.5458 57.824 44.439 57.7432 44.3144 57.7104C44.1897 57.6776 44.0572 57.6954 43.9456 57.76C43.8364 57.8275 43.7573 57.9346 43.7248 58.0591C43.6923 58.1835 43.7088 58.3158 43.7709 58.4283V58.4287Z" fill="#4A3E42"/>
<path d="M42.0818 59.4693C42.1006 59.5255 42.114 59.5827 42.1313 59.6391C42.1418 59.6965 42.143 59.6965 42.1349 59.6391C42.1377 59.6682 42.1389 59.6974 42.1384 59.7266C42.1347 59.7847 42.1357 59.7853 42.1414 59.7284C42.1352 59.7581 42.1268 59.7873 42.1163 59.8157C42.141 59.7585 42.0919 59.8391 42.0747 59.8552C42.0173 59.9153 41.9416 59.9546 41.8595 59.9668C41.7774 59.9791 41.6937 59.9636 41.6213 59.9228C41.3798 59.838 41.1396 59.7498 40.9008 59.6582C40.8449 59.6353 40.8409 59.6338 40.8886 59.6539C40.8641 59.6431 40.8395 59.6321 40.8154 59.6208C40.7675 59.5982 40.7211 59.5731 40.6748 59.5477C40.5752 59.4929 40.4772 59.4347 40.3823 59.372C40.0293 59.1544 39.7659 58.8167 39.6401 58.4206C39.5038 57.8699 39.543 57.2902 39.7521 56.7631C39.7853 56.6382 39.7683 56.5052 39.7047 56.3928C39.6411 56.2804 39.536 56.1976 39.4121 56.1623C39.2877 56.1306 39.1559 56.1485 39.0443 56.212C38.9327 56.2756 38.8499 56.38 38.8133 56.5034C38.4066 57.6024 38.509 58.9648 39.3792 59.8113C39.7324 60.1434 40.1455 60.4049 40.5963 60.5818C41.0984 60.7882 41.6455 61.0462 42.1954 60.8871C42.3845 60.8315 42.5585 60.7335 42.7043 60.6004C42.85 60.4673 42.9637 60.3027 43.0366 60.119C43.1374 59.8231 43.1315 59.5012 43.02 59.2092C42.9831 59.086 42.9003 58.9817 42.7887 58.9182C42.6772 58.8546 42.5455 58.8367 42.4212 58.8681C42.2974 58.9038 42.1925 58.9867 42.1291 59.0992C42.0656 59.2116 42.0486 59.3445 42.0818 59.4693Z" fill="#4A3E42"/>
</g>
</svg>
