<svg width="130" height="80" viewBox="0 0 130 80" fill="none" xmlns="http://www.w3.org/2000/svg">
<mask id="mask0_1509_25210" style="mask-type:alpha" maskUnits="userSpaceOnUse" x="0" y="0" width="130" height="80">
<rect width="130" height="80" fill="#D9D9D9"/>
</mask>
<g mask="url(#mask0_1509_25210)">
</g>
<g clip-path="url(#clip0_1509_25210)">
<path d="M83.7613 52.7425C83.7583 52.4964 83.7515 52.2484 83.7515 52.084C83.7515 52.084 83.7515 51.9102 83.7515 51.6113C82.3374 51.6113 77.194 51.6334 75.9558 51.6334L74.1751 58.3581L73.9922 59.0487C76.8785 59.0487 80.9007 59.0487 80.9007 59.0487C81.2927 58.7013 81.6606 58.3275 82.0019 57.9299C83.0403 56.629 83.6511 55.037 83.7499 53.3733C83.764 53.2149 83.7643 52.9795 83.7613 52.7425Z" fill="white"/>
<path d="M58.7664 60.0474L59.1158 59.6625L56.8814 56.3751L53.7772 52.2349C51.6606 52.2349 48.8068 52.2511 46.832 52.1904C46.8381 52.423 46.8411 52.554 46.8411 52.554C46.8993 55.0798 47.722 57.4288 49.987 59.265C51.0877 60.1297 52.2617 60.8963 53.4955 61.5559L56.092 62.9947L58.7664 60.0474Z" fill="white"/>
<path d="M59.3496 6.87555C60.7267 6.11379 62.5874 5.62695 65.0942 5.62695C76.6085 5.62695 74.4914 15.8986 74.4914 15.8986C74.6339 15.7664 74.8012 15.6639 74.9835 15.5969C75.1658 15.53 75.3595 15.4999 75.5534 15.5085C75.8 15.5005 76.0441 15.5598 76.2597 15.68C76.4754 15.8002 76.6545 15.9769 76.7779 16.1912C77.1952 16.9153 77.1764 18.2493 76.8973 19.0755C76.6993 19.66 76.3755 20.5543 75.5942 21.1956C75.4223 21.3392 75.2226 21.4454 75.0078 21.5077C74.7929 21.5699 74.5675 21.5868 74.3458 21.5573L74.2259 21.5368C74.1084 21.9358 73.9649 22.3267 73.7964 22.7068C73.4822 23.5621 71.7611 26.5396 69.5747 27.7475C69.5993 27.9513 69.632 28.1567 69.6675 28.3644C69.7002 28.6287 69.7499 28.8907 69.8161 29.1487C69.6808 29.4746 69.4936 29.7761 69.2618 30.0417C68.8806 30.509 68.4321 30.9167 67.9311 31.2512C66.605 32.0227 65.4644 32.581 65.0958 32.5744C64.7248 32.581 63.5842 32.0227 62.2582 31.2512C61.7673 30.9295 61.3273 30.5356 60.953 30.0828C60.8026 29.9127 60.6713 29.7266 60.5612 29.5278C60.8206 29.2069 60.8299 28.8007 60.9089 28.3648C60.9368 28.2095 60.9597 28.0587 60.9806 27.9103C59.9172 27.4284 58.9681 26.631 58.0658 25.5483C57.0937 24.37 56.3722 23.0045 55.9459 21.5359C55.7098 21.5859 55.4655 21.5813 55.2314 21.5224C54.9973 21.4635 54.7797 21.3519 54.595 21.1961C53.8138 20.5548 53.4897 19.6609 53.2919 19.0759C53.0137 18.2504 52.9952 16.9165 53.4111 16.1917C53.5346 15.9774 53.7137 15.8007 53.9294 15.6805C54.1451 15.5603 54.3892 15.501 54.6358 15.509C54.8298 15.5004 55.0235 15.5305 55.2057 15.5974C55.388 15.6644 55.5553 15.7669 55.6979 15.8991C55.6979 15.8991 54.4015 9.61257 59.3496 6.87555Z" fill="white"/>
<path d="M56.7949 23.637C56.4437 22.9655 56.1595 22.2609 55.9464 21.5334C55.7285 21.5808 55.503 21.581 55.285 21.534C55.0669 21.487 54.8615 21.3938 54.6822 21.2607C53.669 22.028 52.9843 23.153 52.7668 24.4078C52.541 25.8034 53.1378 27.2632 53.3986 28.654C53.6628 29.8871 53.5604 31.1709 53.1041 32.3463C54.8139 31.4916 56.5722 30.7382 58.3699 30.09C58.6261 29.7314 59.0554 29.0759 59.2752 28.781C59.4011 28.6066 59.5685 28.4665 59.7621 28.3734C59.8019 28.3546 59.8455 28.345 59.8896 28.3455C59.9238 28.3513 59.9567 28.363 59.9869 28.38C60.002 28.3695 60.2102 28.0029 60.4235 27.6231C59.5223 27.0758 58.7244 26.3733 58.0665 25.5478C57.5764 24.9578 57.1501 24.3173 56.7949 23.637Z" fill="#957F6E"/>
<path d="M75.9524 8.30391C75.8007 7.79738 75.6087 7.30392 75.3782 6.82829C74.1601 4.36408 72.0937 2.42592 69.5613 1.3724C68.1316 0.765656 66.5838 0.490705 65.0335 0.56807C59.8511 0.281041 54.9069 4.19222 53.9072 9.12126C53.6353 10.4513 53.6689 12.7238 53.9172 13.7844C53.9172 13.7844 54.1977 15.004 54.3558 15.5394C54.4481 15.5215 54.5417 15.5111 54.6356 15.5082C54.868 15.4964 55.0997 15.5413 55.3109 15.6393C55.522 15.7373 55.7062 15.8853 55.8477 16.0707C60.312 14.5367 66.1089 11.6113 68.9676 9.02846C69.4872 10.264 70.0925 11.4614 70.7791 12.6119C71.7128 14.0025 72.9395 15.1703 74.3725 16.0328C74.515 15.8588 74.6962 15.7207 74.9016 15.6296C75.1069 15.5385 75.3306 15.497 75.5548 15.5082C75.7572 15.5123 75.9572 15.5532 76.1451 15.6287C76.87 13.7268 76.4759 10.6683 76.1583 9.12126C76.1192 8.92774 76.0738 8.73577 76.0222 8.54534C75.9995 8.46487 75.9762 8.38439 75.9524 8.30391Z" fill="#957F6E"/>
<path d="M56.8916 31.9512C57.1589 31.8582 57.4179 31.7226 57.675 31.6046C58.0862 31.4158 58.4969 31.2256 58.9071 31.0341C59.254 30.8727 59.6008 30.7114 59.9478 30.5503C60.0232 30.5151 60.1029 30.4849 60.1762 30.4456C59.93 30.5777 60.1082 30.477 60.1824 30.4456C60.2856 30.4052 60.3862 30.3586 60.4838 30.306C60.6407 30.2192 60.7835 30.1089 60.9071 29.9788C61.3819 29.467 61.4239 28.7137 61.5178 28.0547C61.5522 27.9121 61.5311 27.7617 61.459 27.6341C61.3868 27.5065 61.2689 27.4113 61.1292 27.3678C60.9869 27.3295 60.8354 27.349 60.7073 27.422C60.5792 27.495 60.4849 27.6157 60.4449 27.7579C60.4017 28.0603 60.3521 28.3627 60.3011 28.6625C60.2836 28.7738 60.2586 28.8837 60.2262 28.9916C60.2174 29.0195 60.2072 29.047 60.1975 29.0747C60.1994 29.0691 60.2397 28.986 60.2102 29.0416C60.1954 29.0698 60.0909 29.2324 60.1667 29.1363C60.1306 29.179 60.0918 29.2195 60.0508 29.2575C59.9909 29.3168 60.1154 29.2158 60.0415 29.2668C60.0183 29.2826 59.9951 29.2979 59.9719 29.3133C59.8587 29.3777 59.7406 29.433 59.6186 29.4787C59.5512 29.5085 59.4846 29.5396 59.4176 29.5717C58.699 29.9034 57.984 30.2397 57.2658 30.5705C57.0945 30.6496 56.9229 30.7281 56.7509 30.8059C56.6901 30.8333 56.6289 30.8603 56.5677 30.8875C56.4421 30.9436 56.7094 30.835 56.5951 30.875C56.4548 30.9174 56.3361 31.0125 56.2638 31.1404C56.1914 31.2683 56.1709 31.4192 56.2065 31.5619C56.2469 31.7039 56.3413 31.8243 56.4693 31.8972C56.5973 31.9701 56.7487 31.9897 56.8909 31.9517L56.8916 31.9512Z" fill="#4A3E42"/>
<path d="M69.0185 27.7472C69.0649 28.1049 69.1247 28.4601 69.1792 28.8171C69.2123 29.076 69.2826 29.3288 69.3878 29.5675C69.5261 29.8494 69.7401 30.087 70.0056 30.2534C70.1597 30.3494 70.3241 30.4274 70.4957 30.486C70.6047 30.526 70.3133 30.4014 70.4535 30.4684C71.1145 30.784 71.7775 31.0964 72.4394 31.4095C72.7241 31.5444 73.0067 31.6886 73.2985 31.807C73.4408 31.8454 73.5924 31.826 73.7205 31.753C73.8486 31.6801 73.9429 31.5594 73.9829 31.4171C74.0185 31.2745 73.998 31.1236 73.9257 30.9957C73.8533 30.8678 73.7347 30.7727 73.5944 30.7303C73.874 30.8445 73.5967 30.7268 73.5304 30.6956C73.4001 30.6345 73.27 30.5731 73.1402 30.5114C72.7804 30.3408 72.4208 30.1702 72.0613 29.9997C71.757 29.8551 71.4525 29.7109 71.1479 29.567C71.0635 29.5275 70.9796 29.4882 70.8929 29.4507C70.8495 29.4324 70.8038 29.4163 70.7605 29.3977C70.8201 29.4235 70.7336 29.3835 70.7289 29.3812C70.6965 29.3642 70.664 29.3477 70.6323 29.3291C70.5963 29.3081 70.4642 29.2002 70.5442 29.2744C70.5008 29.2342 70.4621 29.1907 70.4206 29.1493C70.5099 29.2384 70.4079 29.1179 70.3826 29.0748C70.3726 29.0579 70.3362 28.9779 70.3684 29.0516C70.403 29.13 70.3596 29.0232 70.3541 29.0051C70.3176 28.8874 70.2899 28.7671 70.2713 28.6452C70.2219 28.3522 70.1628 28 70.1304 27.7462C70.1258 27.5996 70.0658 27.4603 69.9624 27.3565C69.859 27.2528 69.7201 27.1925 69.574 27.188C69.4266 27.1888 69.2856 27.2479 69.1814 27.3524C69.0772 27.4569 69.0184 27.5984 69.0176 27.7462L69.0185 27.7472Z" fill="#4A3E42"/>
<path d="M54.479 20.7197C53.6654 21.299 53.0256 22.091 52.6292 23.0096C52.2327 23.9282 52.0948 24.9382 52.2303 25.9299C52.3789 27.0083 52.7635 28.0371 52.914 29.1138C53.0739 30.1494 52.9565 31.2091 52.5736 32.1841C52.5353 32.3268 52.5546 32.4789 52.6274 32.6075C52.7001 32.736 52.8204 32.8306 52.9622 32.8707C53.1043 32.9065 53.2548 32.886 53.3822 32.8134C53.5096 32.7408 53.6043 32.6217 53.6465 32.4809C54.0174 31.5292 54.1614 30.5037 54.0671 29.4862C53.9804 28.4258 53.6586 27.4202 53.4363 26.3856C53.201 25.4812 53.2402 24.527 53.5487 23.6451C53.8525 22.8638 54.3699 22.1844 55.0415 21.685C55.1656 21.6072 55.2553 21.4848 55.2925 21.3428C55.3296 21.2008 55.3112 21.05 55.2411 20.9211C55.1658 20.7941 55.0438 20.7019 54.9013 20.6644C54.7589 20.6269 54.6074 20.6472 54.4797 20.7209L54.479 20.7197Z" fill="#4A3E42"/>
<path d="M73.8687 20.6956C73.7129 21.3595 73.4997 22.0086 73.2316 22.6355C73.1978 22.7208 73.2856 22.5231 73.23 22.6373C73.2108 22.6766 73.1936 22.7169 73.1751 22.7564C73.1317 22.8478 73.086 22.9381 73.0392 23.0276C72.9233 23.2488 72.7997 23.4656 72.6706 23.6789C72.0105 24.8082 71.1666 25.8187 70.1738 26.6683C69.636 27.1339 68.9982 27.4683 68.3101 27.6452C67.613 27.808 67.9081 28.8845 68.6059 28.7217C70.0433 28.3867 71.2423 27.3389 72.1824 26.2436C72.9928 25.3307 73.6691 24.3063 74.1907 23.2014C74.2243 23.1267 74.2558 23.0511 74.2871 22.9755C74.2969 22.9523 74.3451 22.836 74.3124 22.9123C74.2753 22.9981 74.3235 22.889 74.3321 22.8702C74.3637 22.7985 74.3938 22.7259 74.4235 22.6534C74.4596 22.5657 74.493 22.4771 74.5273 22.3882C74.7013 21.9345 74.8399 21.4679 74.9418 20.9926C75.086 20.2913 74.0145 19.9922 73.8687 20.6956Z" fill="#4A3E42"/>
<path d="M55.2229 20.9588C55.6483 22.8403 56.5225 24.59 57.7705 26.0577C58.998 27.4977 60.581 28.6446 62.4838 28.9289C62.626 28.9634 62.7759 28.9423 62.9031 28.8699C63.0303 28.7974 63.1252 28.679 63.1684 28.5388C63.2065 28.3961 63.1871 28.244 63.1143 28.1155C63.0416 27.987 62.9214 27.8924 62.7797 27.8522C61.043 27.5928 59.678 26.5826 58.5573 25.2682C57.4435 23.9391 56.6676 22.3588 56.2961 20.6627C56.1377 19.9621 55.0646 20.2587 55.2229 20.9595V20.9588Z" fill="#4A3E42"/>
<path d="M76.7007 15.6308C76.7007 15.7778 76.7366 15.6227 76.7561 15.5634C76.7793 15.4901 76.8025 15.4159 76.8226 15.3417C76.8722 15.1617 76.9128 14.9791 76.9462 14.7953C77.0145 14.4137 77.061 14.0284 77.0853 13.6414C77.1287 12.8871 77.1142 12.1307 77.0417 11.3787C76.9066 9.85861 76.6476 8.34671 76.0386 6.94017C74.7635 3.99289 72.1705 1.69875 69.1713 0.625063C68.2973 0.315092 67.3877 0.117057 66.4642 0.035653C66.0056 0.00189694 65.5456 -0.00780798 65.086 0.00657793C64.7193 0.0114625 64.3541 -0.0113323 63.9869 0.00774093C62.5079 0.0917945 61.0598 0.466223 59.7245 1.1098C57.0874 2.36536 55.008 4.55743 53.8884 7.26209C52.9147 9.65672 52.9873 12.3793 53.5998 14.8519C53.6693 15.131 53.7389 15.4101 53.8205 15.6862C54.0229 16.3735 55.0972 16.0816 54.8934 15.3894C54.5987 14.4701 54.4032 13.5217 54.3101 12.5605C54.184 11.2454 54.2804 9.91828 54.5952 8.63537C55.3012 6.07536 57.112 3.89962 59.3756 2.55914C60.5215 1.87731 61.7862 1.42013 63.1022 1.21191C63.7784 1.13439 64.459 1.10384 65.1393 1.1205C65.9705 1.09276 66.802 1.16515 67.616 1.33612C69.0799 1.67119 70.4583 2.30873 71.663 3.20806C72.8677 4.10739 73.8723 5.24878 74.6128 6.55941C75.3851 7.94547 75.7307 9.47808 75.8969 11.0444C75.9885 11.8488 76.0173 12.659 75.9832 13.4679C75.9679 13.8406 75.9261 14.2118 75.8582 14.5785C75.8227 14.7607 75.7803 14.9414 75.7284 15.1193C75.6583 15.2826 75.611 15.4548 75.5879 15.6311C75.5879 16.3493 76.7007 16.3503 76.7007 15.6308Z" fill="#4A3E42"/>
<path d="M68.5418 9.43597C69.1677 10.8723 69.8379 12.3507 70.7979 13.5981C71.7752 14.828 72.9712 15.8654 74.3252 16.658C74.9398 17.0301 75.4999 16.0653 74.887 15.6941C73.6302 14.9663 72.5235 14.0045 71.6263 12.8603C70.7286 11.6631 70.0985 10.2375 69.5027 8.87238C69.4275 8.74529 69.3055 8.65303 69.163 8.61555C69.0205 8.57807 68.869 8.59839 68.7414 8.67211C68.6168 8.74939 68.5265 8.8718 68.4894 9.014C68.4522 9.15619 68.471 9.30727 68.5418 9.43597Z" fill="#4A3E42"/>
<path d="M68.6298 8.5847C67.2903 9.80236 65.7333 10.7777 64.1678 11.6725C62.3409 12.7149 60.4524 13.6446 58.5128 14.4565C57.4874 14.8863 56.4481 15.2841 55.394 15.6378C54.7182 15.8644 55.008 16.943 55.6898 16.7143C57.6802 16.0375 59.6268 15.2373 61.5184 14.3185C63.4226 13.4212 65.2598 12.3873 67.0158 11.2249C67.8594 10.6668 68.6616 10.0482 69.4162 9.37391C69.948 8.89034 69.1591 8.10275 68.6294 8.58446L68.6298 8.5847Z" fill="#4A3E42"/>
<path d="M56.0918 15.5036C55.7723 15.2174 55.3751 15.033 54.9509 14.9738C54.5267 14.9146 54.0945 14.9833 53.7093 15.1712C53.4425 15.316 53.2107 15.5178 53.0302 15.7623C52.8497 16.0069 52.7248 16.2881 52.6644 16.5863C52.5059 17.2999 52.4953 18.0385 52.6332 18.7564C52.7711 19.4743 53.0546 20.1561 53.4661 20.7594C54.0009 21.5447 54.8322 22.2481 55.8439 22.1145C55.99 22.1099 56.1289 22.0496 56.2322 21.9459C56.3356 21.8422 56.3957 21.7029 56.4003 21.5563C56.4003 21.2853 56.1439 20.9581 55.8439 20.9981C55.0805 21.0992 54.5645 20.4805 54.2255 19.8681C53.9234 19.3396 53.7328 18.7544 53.6657 18.1489C53.6149 17.5698 53.6158 16.8664 53.9566 16.3702C54.0197 16.2786 53.8931 16.4247 53.9907 16.3323C54.0289 16.2919 54.0696 16.2538 54.1124 16.2183C54.0572 16.2586 54.1959 16.1718 54.2091 16.166C54.278 16.1329 54.3506 16.1083 54.4254 16.0927C54.5773 16.0536 54.7363 16.0514 54.8892 16.0862C55.0421 16.121 55.1845 16.1919 55.3047 16.293C55.8379 16.7701 56.6261 15.9832 56.0929 15.5036H56.0918Z" fill="#4A3E42"/>
<path d="M74.8864 16.293C75.0065 16.1918 75.149 16.1208 75.302 16.086C75.455 16.0512 75.6141 16.0535 75.766 16.0928C75.875 16.1216 75.9802 16.1638 76.0789 16.2184C76.1221 16.2534 76.1627 16.2915 76.2004 16.3323C76.3101 16.441 76.1566 16.2565 76.2347 16.3703C76.5748 16.8662 76.5774 17.57 76.5257 18.149C76.4579 18.7543 76.2674 19.3394 75.9658 19.8681C75.6271 20.481 75.1104 21.0993 74.3474 20.9981C74.2001 20.9988 74.0589 21.0578 73.9547 21.1623C73.8505 21.2669 73.7917 21.4085 73.791 21.5563C73.7946 21.7032 73.8544 21.8432 73.958 21.9471C74.0615 22.051 74.201 22.111 74.3474 22.1146C76.0203 22.3367 77.0392 20.5061 77.4574 19.1549C77.8283 17.9554 77.833 16.0767 76.681 15.2868C76.2862 15.0351 75.8201 14.92 75.3539 14.9591C74.8878 14.9983 74.4472 15.1895 74.0996 15.5036C73.5641 15.983 74.3534 16.7703 74.8864 16.293Z" fill="#4A3E42"/>
<path d="M63.3104 24.3942C63.8917 24.6963 64.5392 24.8472 65.1936 24.8331C65.8779 24.8609 66.552 24.6591 67.1092 24.2596C67.2135 24.1549 67.2721 24.0129 67.2721 23.8648C67.2721 23.7168 67.2135 23.5748 67.1092 23.4701C67.0027 23.3695 66.862 23.3135 66.7158 23.3135C66.5695 23.3135 66.4288 23.3695 66.3224 23.4701C66.4951 23.3352 66.3775 23.4268 66.3333 23.4555C66.2962 23.4792 66.2581 23.5013 66.2192 23.5217C66.1682 23.5485 66.0384 23.5806 66.196 23.538C66.1429 23.5524 66.0912 23.5785 66.0388 23.5955C65.8948 23.6402 65.7475 23.6739 65.5984 23.6962C65.6809 23.6829 65.6308 23.6918 65.577 23.6962C65.5339 23.7004 65.4906 23.7041 65.4472 23.7069C65.3431 23.7136 65.2386 23.7162 65.1345 23.7157C65.0408 23.7157 64.9474 23.7123 64.8542 23.7055C64.8113 23.7027 64.7686 23.6992 64.726 23.6948C64.7056 23.6927 64.5489 23.665 64.6845 23.6908C64.5459 23.6674 64.4086 23.6368 64.2732 23.5992C64.2157 23.582 64.1596 23.5613 64.1026 23.5417C63.9677 23.4952 64.203 23.5915 64.081 23.5338C64.0115 23.5003 63.9419 23.4657 63.8724 23.4292C63.745 23.3545 63.5932 23.3336 63.4504 23.3712C63.3077 23.4088 63.1856 23.5017 63.1112 23.6296C63.0367 23.7574 63.0159 23.9097 63.0534 24.0529C63.0908 24.1962 63.1835 24.3186 63.3109 24.3933L63.3104 24.3942Z" fill="#4A3E42"/>
<path d="M64.8758 19.9883C64.9608 20.296 65.0288 20.6081 65.0795 20.9233L65.0596 20.7749C65.0657 20.8176 65.0669 20.8609 65.0631 20.9038L65.083 20.7554C65.0802 20.7752 65.0755 20.7947 65.0689 20.8135L65.125 20.6803C65.1192 20.6932 65.1124 20.7057 65.1046 20.7175L65.1915 20.6044C65.1825 20.6156 65.1723 20.6257 65.1611 20.6347L65.2736 20.5474C65.25 20.5623 65.2253 20.5753 65.1999 20.5865L65.3327 20.5302C65.2929 20.5473 65.2512 20.5596 65.2084 20.5668L65.3563 20.5468C65.3178 20.5513 65.2789 20.5513 65.2404 20.5468L65.3883 20.5668C65.3443 20.5605 65.3012 20.5498 65.2571 20.5435C65.1854 20.5203 65.1088 20.5168 65.0353 20.5335C64.9617 20.5366 64.8903 20.5594 64.8285 20.5996C64.7654 20.6365 64.7101 20.6857 64.6659 20.7441C64.6217 20.8025 64.5895 20.8691 64.5709 20.94C64.5524 21.0109 64.548 21.0848 64.5579 21.1575C64.5678 21.2301 64.592 21.3001 64.6289 21.3634C64.6642 21.4264 64.7118 21.4815 64.769 21.5255C64.8261 21.5695 64.8915 21.6014 64.9613 21.6193C65.0684 21.6337 65.1725 21.6609 65.2815 21.6658C65.4488 21.6665 65.6138 21.6266 65.7625 21.5495C65.8578 21.5051 65.9422 21.4401 66.0094 21.3591C66.0767 21.2781 66.1252 21.1831 66.1515 21.081C66.1862 20.9176 66.1847 20.7484 66.1471 20.5856C66.0963 20.2832 66.027 19.9857 65.9498 19.6903C65.9097 19.5509 65.8187 19.4317 65.6948 19.3568C65.5993 19.3007 65.4892 19.2744 65.3788 19.2814C65.2683 19.2883 65.1624 19.3282 65.0746 19.3959C64.9869 19.4636 64.9212 19.556 64.8861 19.6613C64.8509 19.7666 64.8479 19.8801 64.8774 19.9871L64.8758 19.9883Z" fill="#4A3E42"/>
<path d="M60.0241 17.32C59.8686 17.8275 59.9701 18.9947 60.9283 19.0938C62.1945 19.0864 62.2618 17.6749 61.8357 17.0118C61.4863 16.4682 60.4602 16.2426 60.0241 17.32Z" fill="#4A3E42"/>
<path d="M70.1647 17.32C70.3205 17.8276 70.2189 18.9947 69.2606 19.0938C67.9943 19.0862 67.9268 17.675 68.3532 17.0116C68.7025 16.4682 69.7286 16.2426 70.1647 17.32Z" fill="#4A3E42"/>
<path d="M74.1753 58.3584L73.902 59.3909L59.1163 59.663L56.8819 56.3757L53.7777 52.2354C51.4618 52.2354 48.2625 52.2549 46.2989 52.1716C45.8909 52.153 45.3113 51.8855 45.3924 51.0342C45.6034 48.8617 46.7185 42.7513 47.4534 39.8833C47.9634 37.8946 48.499 36.1292 50.342 34.2009C51.7346 32.7532 55.4147 31.1831 58.3691 30.0892C58.6241 29.731 59.0546 29.0753 59.2744 28.7801C59.4003 28.6057 59.5677 28.4657 59.7613 28.3726C59.8011 28.3538 59.8447 28.3442 59.8888 28.3447C59.9229 28.3505 59.9559 28.3622 59.9861 28.3791C60.0742 28.4245 60.1368 28.5903 60.2133 28.7692C60.38 29.2474 60.6305 29.6919 60.9529 30.0818C61.3272 30.5346 61.7672 30.9284 62.2581 31.2501C63.5841 32.0217 64.7247 32.5799 65.0957 32.5734C65.4643 32.5799 66.6049 32.0217 67.9309 31.2501C68.432 30.9156 68.8805 30.508 69.2616 30.0406C69.5804 29.6673 69.8195 29.2324 69.9641 28.7627C70.029 28.5766 70.029 28.3747 70.1148 28.3294C70.146 28.3127 70.1796 28.3011 70.2145 28.2949C70.2578 28.2944 70.3006 28.304 70.3397 28.3229C70.5622 28.4313 70.7585 28.5873 70.9146 28.7799C71.2301 29.203 71.9722 30.363 72.0357 30.3321C74.9243 31.4292 78.4282 32.9656 79.7193 34.3144C81.5649 36.2429 81.9251 38.0621 82.6099 39.9964C83.2823 41.8925 84.5295 49.2783 84.6081 50.9237C84.6327 51.4378 84.134 51.6113 83.758 51.6113C82.3535 51.6113 77.1972 51.6334 75.956 51.6334L74.1753 58.3584Z" fill="#1492D9"/>
<path d="M78.0784 66.9505H96.4625C97.1784 66.9505 97.1795 65.834 96.4625 65.834H78.0784C77.3625 65.834 77.3613 66.9505 78.0784 66.9505Z" fill="#4A3E42"/>
<path d="M32.5374 66.9534C36.5281 66.9534 40.5186 66.9534 44.509 66.9534C47.3114 66.9534 50.1138 66.9534 52.9161 66.9534H56.2777C56.9936 66.9534 56.9947 65.8369 56.2777 65.8369H49.952C46.4023 65.8369 42.8529 65.8369 39.3035 65.8369C37.048 65.8369 34.7926 65.8369 32.5374 65.8369C31.8215 65.8369 31.8203 66.9534 32.5374 66.9534Z" fill="#4A3E42"/>
<path d="M51.7127 61.4137C51.53 63.0717 51.3768 64.7334 51.2305 66.3951C51.2316 66.5428 51.2906 66.6841 51.3947 66.7885C51.4988 66.893 51.6397 66.9522 51.7869 66.9533C51.9335 66.9503 52.0733 66.8905 52.1769 66.7865C52.2806 66.6824 52.3402 66.5422 52.3433 66.3951C52.4895 64.7334 52.6428 63.0717 52.8255 61.4137C52.8245 61.2659 52.7656 61.1245 52.6615 61.02C52.5573 60.9155 52.4164 60.8564 52.2691 60.8555C52.1225 60.8588 51.9829 60.9187 51.8793 61.0226C51.7757 61.1266 51.716 61.2667 51.7127 61.4137Z" fill="#4A3E42"/>
<path d="M46.2854 52.5545C46.3318 54.3346 46.7516 56.1133 47.7378 57.6133C48.8773 59.3473 50.6322 60.5392 52.3927 61.5696C53.5185 62.2288 54.6707 62.844 55.8113 63.4769C56.4386 63.8258 57.0006 62.8608 56.373 62.5128C54.5184 61.4852 52.6018 60.5227 50.8898 59.2625C49.4884 58.2306 48.3658 56.9132 47.8273 55.2347C47.5576 54.3663 47.4131 53.4636 47.3982 52.554C47.3792 51.8369 46.2664 51.8341 46.2854 52.554V52.5545Z" fill="#4A3E42"/>
<path d="M54.0127 51.6758C51.4677 51.6758 48.9125 51.7328 46.3702 51.6158C46.3617 51.6158 46.1627 51.5897 46.3065 51.6169C46.265 51.6093 46.2249 51.5981 46.1841 51.5874C46.1595 51.5809 46.0587 51.5367 46.1463 51.5753C46.1421 51.5734 45.9988 51.4795 46.0767 51.539C46.0462 51.5158 46.0191 51.4884 45.9963 51.4576C46.0403 51.5292 45.9594 51.3755 45.9847 51.4355C45.9407 51.3065 45.9284 51.1686 45.949 51.0338C45.9604 50.884 45.9805 50.7342 45.9984 50.5851C46.0274 50.3465 46.0385 50.2653 46.0631 50.0892C46.2022 49.089 46.3681 48.0926 46.5423 47.0977C46.9227 44.9231 47.3344 42.7481 47.8491 40.6014C48.0777 39.5131 48.4044 38.4478 48.8251 37.4187C49.3321 36.2311 50.0894 35.1678 51.0451 34.3019C51.9942 33.4783 53.2227 32.883 54.366 32.3418C55.7598 31.6835 57.1944 31.1143 58.6389 30.581C58.7791 30.5383 58.8975 30.4433 58.9698 30.3155C59.0421 30.1877 59.0628 30.037 59.0274 29.8943C58.9873 29.7522 58.893 29.6316 58.7649 29.5587C58.6369 29.4857 58.4853 29.4663 58.3431 29.5045C56.9713 30.0106 55.6107 30.5512 54.2796 31.1576C53.0765 31.6704 51.9277 32.303 50.8506 33.0461C49.7789 33.8544 48.894 34.8857 48.2566 36.0692C47.6548 37.228 47.2048 38.46 46.9178 39.7345C46.3614 41.9079 45.9474 44.1218 45.5533 46.3295C45.3618 47.402 45.1798 48.4766 45.0242 49.5549C44.896 50.4458 44.5374 51.6893 45.3337 52.3643C45.8396 52.7934 46.507 52.7409 47.1288 52.7571C47.8634 52.7762 48.5986 52.7846 49.3335 52.7895C50.8932 52.7999 52.453 52.7925 54.0127 52.7923C54.7289 52.7923 54.73 51.6758 54.0127 51.6758Z" fill="#4A3E42"/>
<path d="M75.9555 52.1916C78.042 52.1916 80.1285 52.1788 82.2149 52.1727C82.6594 52.1716 83.1039 52.1706 83.5482 52.1697C84.1498 52.1697 84.8038 52.0367 85.0692 51.4198C85.2273 51.0528 85.1483 50.629 85.1056 50.244C85.0546 49.7858 84.9925 49.3287 84.9278 48.8717C84.6033 46.5908 84.2073 44.3139 83.7186 42.0625C83.5388 41.2014 83.3098 40.3514 83.0326 39.5167C82.543 38.0778 82.1053 36.6162 81.2547 35.3399C80.8331 34.679 80.32 34.0816 79.7309 33.5656C79.2086 33.1403 78.65 32.7618 78.0617 32.4345C76.6139 31.6356 75.1145 30.9347 73.5735 30.3364C73.1822 30.1781 72.7894 30.023 72.3951 29.8712C72.2528 29.833 72.1013 29.8524 71.9733 29.9254C71.8452 29.9983 71.7509 30.1189 71.7107 30.261C71.6748 30.4037 71.6951 30.5547 71.7675 30.6827C71.8399 30.8106 71.9588 30.9056 72.0993 30.9477C73.5858 31.5053 75.0433 32.1381 76.466 32.8436C77.6238 33.4295 78.7688 34.0564 79.6291 35.037C80.6181 36.1645 81.1935 37.5047 81.6613 38.9133C81.9562 39.8012 82.2564 40.6744 82.4713 41.5854C82.9786 43.7344 83.3569 45.919 83.6961 48.1006C83.8382 49.0147 83.9435 49.6755 84.0253 50.5536C84.0367 50.6759 84.0394 50.7999 84.0529 50.922C84.0726 51.0986 84.0425 50.9993 84.0515 50.9786C84.068 50.9395 84.1394 50.972 84.0267 50.9932C83.9493 51.0076 83.8839 51.0458 83.8194 51.05C83.4453 51.0746 83.0623 51.0523 82.6874 51.0532C80.444 51.059 78.2006 51.0732 75.9572 51.0735C75.2413 51.0735 75.2401 52.1899 75.9572 52.1899L75.9555 52.1916Z" fill="#4A3E42"/>
<path d="M58.971 30.1974C59.1286 29.969 59.2835 29.7385 59.4402 29.5094C59.5046 29.4164 59.5689 29.3215 59.6345 29.2284C59.6964 29.1407 59.8174 29.0451 59.8663 28.9581C59.9275 28.8486 60.1188 28.9388 59.7917 28.8509C59.5438 28.7842 59.6294 28.81 59.6957 28.963C59.7451 29.0749 59.7907 29.1884 59.8389 29.3008C59.9409 29.5517 60.065 29.7931 60.2099 30.0218C60.9274 31.102 61.9831 31.7687 63.104 32.3588C63.5477 32.6011 64.0068 32.8138 64.4783 32.9956C64.7816 33.1225 65.1164 33.1528 65.4374 33.0824C65.8502 32.9626 66.2488 32.7982 66.6262 32.5921C67.1923 32.3214 67.7436 32.0206 68.2778 31.691C68.8253 31.3259 69.3117 30.876 69.7186 30.3579C69.923 30.1148 70.097 29.8474 70.2365 29.5617C70.3151 29.3947 70.3851 29.2221 70.4496 29.05C70.4728 28.9888 70.4959 28.9279 70.5136 28.8639C70.5281 28.8187 70.5398 28.7727 70.5486 28.726C70.5852 28.6133 70.5714 28.6125 70.5073 28.7237L70.2618 28.8672C70.1046 28.8188 70.0827 28.8225 70.1962 28.8784L70.2673 28.9249C70.3216 28.9652 70.3724 29.0101 70.4192 29.0589C70.5083 29.161 70.5894 29.2699 70.6619 29.3845C70.8692 29.6848 71.0713 29.9893 71.2818 30.2861C71.359 30.4109 71.4809 30.5013 71.6226 30.5385C71.7642 30.5758 71.9147 30.5571 72.0429 30.4863C72.1695 30.4108 72.2614 30.2883 72.2987 30.1454C72.3361 30.0025 72.3159 29.8506 72.2425 29.7225C71.8948 29.2303 71.5906 28.6232 71.1458 28.212C70.9035 27.988 70.5618 27.7293 70.2136 27.737C69.7311 27.7477 69.5644 28.1205 69.4543 28.5211C69.252 29.1535 68.8843 29.7199 68.3895 30.1611C67.8584 30.6437 67.2584 31.0439 66.6095 31.3488C66.1545 31.6221 65.6689 31.8407 65.1629 32.0001C65.123 32.0103 65.0832 32.0196 65.0426 32.0264C65.2033 32.0001 65.1061 32.0106 65.0658 32.0138C65.0862 32.0122 65.2014 32.0499 65.1091 32.0196C65.0679 32.0059 65.0227 31.9996 64.9807 31.9875C64.7775 31.926 64.5796 31.8482 64.3888 31.7549C63.1574 31.1839 61.759 30.5019 61.0567 29.2721C60.8685 28.9428 60.7681 28.5704 60.5838 28.2413C60.5348 28.145 60.4673 28.0594 60.3851 27.9895C60.3029 27.9196 60.2077 27.8668 60.105 27.8341C60.0024 27.8014 59.8942 27.7894 59.7869 27.7989C59.6796 27.8085 59.5752 27.8393 59.4798 27.8896C58.8092 28.2122 58.4157 29.044 58.0098 29.6341C57.9366 29.7622 57.9166 29.914 57.9539 30.0569C57.9912 30.1997 58.083 30.3221 58.2094 30.3977C58.3375 30.4695 58.4883 30.4888 58.6302 30.4515C58.7721 30.4141 58.8941 30.3231 58.9705 30.1974H58.971Z" fill="#4A3E42"/>
<path d="M64.3984 32.7398V33.9172C64.4 34.065 64.4581 34.2066 64.5607 34.3126C64.6385 34.391 64.7378 34.4444 64.8459 34.466C64.954 34.4877 65.0661 34.4766 65.1679 34.4343C65.2698 34.3919 65.3568 34.3201 65.4179 34.2281C65.479 34.136 65.5115 34.0278 65.5112 33.9172V33.813C65.5097 33.6652 65.4516 33.5236 65.3489 33.4176C65.2711 33.3392 65.1719 33.2859 65.0638 33.2642C64.9556 33.2425 64.8436 33.2536 64.7417 33.296C64.6399 33.3383 64.5529 33.4101 64.4918 33.5021C64.4307 33.5942 64.3982 33.7024 64.3984 33.813V33.9172C64.4 34.065 64.4581 34.2066 64.5607 34.3126C64.6385 34.391 64.7378 34.4444 64.8459 34.466C64.954 34.4877 65.0661 34.4766 65.1679 34.4343C65.2698 34.3919 65.3568 34.3201 65.4179 34.2281C65.479 34.136 65.5115 34.0278 65.5112 33.9172V32.7398C65.5097 32.592 65.4516 32.4504 65.3489 32.3444C65.2711 32.266 65.1719 32.2126 65.0638 32.191C64.9556 32.1693 64.8436 32.1804 64.7417 32.2227C64.6399 32.2651 64.5529 32.3369 64.4918 32.4289C64.4307 32.521 64.3982 32.6292 64.3984 32.7398Z" fill="#4A3E42"/>
<path d="M78.6339 66.5196C78.5342 64.8188 78.41 63.1171 78.3592 61.4138C78.3379 60.6969 77.2248 60.6939 77.2464 61.4138C77.2972 63.1171 77.4214 64.8188 77.5211 66.5196C77.5244 66.6666 77.584 66.8067 77.6877 66.9107C77.7913 67.0147 77.931 67.0746 78.0775 67.0778C78.2247 67.0766 78.3655 67.0173 78.4695 66.9129C78.5736 66.8085 78.6326 66.6673 78.6339 66.5196Z" fill="#4A3E42"/>
<path d="M83.1942 52.0842C83.2151 52.611 83.2056 53.1385 83.166 53.6642C83.0931 54.2991 82.9478 54.9235 82.7329 55.5251C82.2876 56.783 81.484 57.7669 80.5073 58.6524C79.9741 59.1355 80.764 59.9231 81.2942 59.442C82.3982 58.4883 83.2499 57.2752 83.7731 55.9109C84.0102 55.2465 84.1717 54.5574 84.2546 53.8566C84.3113 53.2673 84.3285 52.6749 84.3063 52.0833C84.3033 51.365 83.1905 51.3634 83.1935 52.0833L83.1942 52.0842Z" fill="#4A3E42"/>
<path d="M77.0477 57.7166C77.7638 57.7166 77.765 56.6001 77.0477 56.6001C76.3304 56.6001 76.3304 57.7166 77.0477 57.7166Z" fill="#4A3E42"/>
<path d="M78.0252 53.214L78.0134 53.2205C77.4764 53.5262 76.9104 53.7775 76.3238 53.9708C77.0809 56.6653 77.4081 60.2606 77.4598 62.8718C77.5233 66.1282 76.8642 70.5648 75.5866 71.9939L74.4365 72.9476C74.4172 73.4458 74.3933 73.9666 74.3655 74.5237C74.3718 74.7111 74.4154 74.8954 74.4937 75.0656C74.5552 75.2436 74.8285 75.4145 74.9687 75.5434C75.4139 75.9488 75.6742 76.6068 75.2286 77.2135C75.0337 77.4786 74.5779 77.6382 74.2403 77.6787C73.313 77.7901 72.7283 77.6891 71.7732 77.4402C71.7931 77.6676 71.7391 77.8954 71.6193 78.0894C70.8774 79.2476 68.3841 79.7932 67.297 79.1948C66.6801 78.8552 66.5983 78.4481 66.4968 77.6991C66.4131 77.32 66.2649 76.6503 66.0853 75.8337H65.4544C65.4698 75.9706 65.4649 76.1092 65.4398 76.2447C65.3501 76.7385 64.8487 76.992 64.3992 77.1874C63.5226 77.5686 61.8379 77.6138 61.0316 77.5407C57.8217 77.2502 54.9034 76.9613 52.1356 74.3474C50.8795 73.1611 49.9383 71.6362 50.034 69.9047C50.1298 68.1732 50.9236 66.7662 52.619 66.6773L52.8631 66.6643C52.9197 66.2729 53.0134 65.8879 53.1429 65.5143C53.9364 63.3765 54.3885 62.3877 55.4974 60.7721C56.5497 59.2883 57.7635 57.9267 59.1164 56.7127C60.4159 55.4969 62.7527 53.8182 63.6911 53.0053L64.2104 52.5555C64.0186 52.3433 63.8535 52.1083 63.7187 51.8558C63.2679 51.109 62.9728 50.2781 62.8515 49.4135C62.7017 48.3732 62.7206 47.3155 62.9073 46.2813C63.1332 45.0227 63.6996 43.8507 64.5445 42.8932L64.5536 42.8002L64.586 42.4664C64.7049 41.001 64.7963 40.3702 64.9569 39.3528C65.01 39.0134 65.0914 38.7892 65.2514 38.7055C65.3275 38.6675 65.4113 38.6476 65.4963 38.6472C65.5812 38.6468 65.6652 38.6659 65.7417 38.7032C66.5123 39.0909 67.7934 40.0908 68.5909 40.7186C70.005 40.2895 71.636 40.0515 73.1721 40.3C74.0426 39.2102 74.4323 38.7227 74.9891 38.0526C75.051 37.9589 75.1353 37.8823 75.2344 37.8299C75.3334 37.7775 75.444 37.7509 75.556 37.7525C75.6604 37.7645 75.7608 37.7998 75.8497 37.8559C75.9387 37.9121 76.014 37.9875 76.0699 38.0768C76.5236 38.968 76.9307 39.8823 77.2898 40.8159L77.7651 42.1173C78.7415 42.8779 79.4929 43.8911 79.9385 45.048C80.5728 46.5569 80.5876 47.9914 80.3817 49.6159C80.2661 50.5121 79.5416 52.3878 78.0252 53.214Z" fill="#C6C6C6"/>
<path d="M73.9406 66.7912C73.9118 67.2836 73.8527 67.777 73.865 68.271C73.8761 68.7248 73.9037 69.1782 73.9141 69.6322C73.9345 70.5375 73.9264 71.4432 73.8993 72.3485C73.8852 72.8137 73.8673 73.2789 73.8455 73.7441C73.8223 74.2524 73.7674 74.729 73.9566 75.2132C74.1149 75.6189 74.4622 75.7626 74.7181 76.0813C74.8246 76.1882 74.888 76.3308 74.8962 76.4817C74.9043 76.6326 74.8567 76.7813 74.7624 76.8991C74.502 77.1641 73.9686 77.1578 73.6311 77.1638C73.1421 77.1617 72.6554 77.096 72.1833 76.9682C71.4878 76.7994 71.1906 77.8754 71.8875 78.0449C72.8099 78.2689 73.8958 78.4403 74.8169 78.1147C75.0613 78.0452 75.2864 77.92 75.4745 77.7487C75.6626 77.5774 75.8086 77.3648 75.9012 77.1274C75.9937 76.8901 76.0303 76.6345 76.0079 76.3806C75.9856 76.1267 75.905 75.8814 75.7725 75.664C75.6631 75.4718 75.5244 75.2978 75.3614 75.1486C75.2273 75.0568 75.105 74.9487 74.9972 74.8269C74.9126 74.6238 74.8919 74.3997 74.9379 74.1844C74.9518 73.896 74.9648 73.6074 74.9768 73.3187C75.0186 72.3174 75.045 71.3151 75.0371 70.3128C75.0326 69.7515 75.018 69.1903 74.9933 68.6292C74.9818 68.0161 75.0018 67.4028 75.0533 66.7917C75.0951 66.0741 73.9823 66.0765 73.9406 66.7917V66.7912Z" fill="#4A3E42"/>
<path d="M69.0448 66.0212C69.0543 66.0891 69.0309 65.9049 69.0483 66.0477C69.0546 66.1001 69.0613 66.1524 69.0673 66.2047C69.0812 66.3234 69.0943 66.4422 69.1065 66.5611C69.1364 66.8477 69.1628 67.1344 69.1876 67.4217C69.2495 68.1328 69.3022 68.8445 69.3511 69.5568C69.4545 71.0635 69.5428 72.572 69.6061 74.0811C69.6293 74.6554 69.6525 75.2304 69.6525 75.8051C69.6538 75.927 69.6942 76.0452 69.7678 76.1422C69.8414 76.2392 69.9442 76.3099 70.061 76.3436C70.2938 76.3886 70.5131 76.4873 70.7014 76.632C70.8898 76.7766 71.042 76.9632 71.1461 77.177C71.1812 77.262 71.2049 77.3512 71.2169 77.4424C71.2196 77.481 71.2196 77.5196 71.2189 77.5587C71.2164 77.7364 71.2403 77.4626 71.2106 77.6345C71.1904 77.7522 71.1923 77.7327 71.1067 77.8557C71.1594 77.7799 71.0441 77.9301 71.0469 77.9271C70.9989 77.9802 70.9479 78.0302 70.8951 78.0783C70.5108 78.3898 70.062 78.6111 69.5815 78.7261C69.3507 78.7917 69.1147 78.8373 68.8761 78.8624C68.6149 78.886 68.3521 78.886 68.0909 78.8624C67.9922 78.8476 67.8946 78.8263 67.7988 78.7987C67.7444 78.7837 67.6908 78.7658 67.6383 78.7452C67.738 78.7857 67.5843 78.7161 67.5776 78.7122C67.4733 78.6595 67.3786 78.5895 67.2975 78.5051C67.2938 78.5009 67.2347 78.4228 67.2713 78.4751C67.2551 78.4519 67.1756 78.2932 67.1934 78.3381C67.1136 78.0816 67.0598 77.8177 67.033 77.5503C66.976 77.233 66.8939 76.9181 66.8244 76.6034C66.5128 75.1906 66.1634 73.7915 65.7811 72.3956C65.346 70.8021 64.9069 69.2151 64.5332 67.6055C64.3709 66.906 63.2975 67.2021 63.4601 67.9023C63.8375 69.5277 64.2819 71.1303 64.721 72.7404C65.1492 74.3104 65.5261 75.8867 65.8769 77.4756C66.016 78.1037 66.0373 78.7689 66.4894 79.2723C66.9299 79.7623 67.5929 79.9489 68.2281 79.9908C69.4482 80.071 70.9584 79.6572 71.8136 78.7389C73.0216 77.4412 71.8632 75.6079 70.357 75.2673L70.7655 75.8056C70.7655 74.5798 70.6901 73.3516 70.6229 72.1282C70.5392 70.6083 70.4425 69.0885 70.3136 67.572C70.2613 66.9551 70.2038 66.3392 70.118 65.7251C70.078 65.5828 69.9838 65.4621 69.8556 65.3891C69.7275 65.3161 69.5759 65.2968 69.4336 65.3353C69.2934 65.3779 69.1749 65.4729 69.1026 65.6007C69.0303 65.7285 69.0097 65.8793 69.0451 66.0219L69.0448 66.0212Z" fill="#4A3E42"/>
<path d="M63.2976 52.6101C62.46 53.3312 61.5617 53.9824 60.694 54.6665C59.6614 55.4721 58.677 56.338 57.746 57.2598C55.877 59.1262 54.285 61.2489 53.2585 63.6961C52.7044 65.017 52.0935 66.4482 52.2632 67.9169C52.2675 68.0636 52.3275 68.2031 52.4309 68.3069C52.5343 68.4106 52.6734 68.4708 52.8196 68.4751C52.9669 68.4742 53.1079 68.4151 53.212 68.3106C53.3162 68.2061 53.3751 68.0646 53.376 67.9169C53.2297 66.6513 53.7358 65.4513 54.2016 64.3067C54.613 63.2984 55.1235 62.3338 55.7256 61.4271C57.1942 59.2064 59.1293 57.3258 61.2028 55.676C62.1598 54.9145 63.1576 54.1981 64.0845 53.3995C64.1876 53.2942 64.2454 53.1525 64.2454 53.0048C64.2454 52.8572 64.1876 52.7154 64.0845 52.6101C63.9787 52.5081 63.8377 52.4512 63.6911 52.4512C63.5444 52.4512 63.4034 52.5081 63.2976 52.6101Z" fill="#4A3E42"/>
<path d="M76.1525 55.6309C76.6294 58.043 76.8816 60.4944 76.9059 62.9534C76.958 65.0801 76.7212 67.204 76.2018 69.2666C76.0829 69.7375 75.9308 70.1992 75.7468 70.6485C75.6658 70.8367 75.5739 71.0199 75.4716 71.1972C75.4252 71.2775 75.3756 71.3551 75.3244 71.4321C75.3295 71.4245 75.2288 71.565 75.2761 71.5019C75.307 71.4612 75.2066 71.5843 75.1941 71.5987C74.7232 72.1367 75.5073 72.9294 75.9809 72.3881C76.5507 71.7368 76.8751 70.9027 77.1264 70.0854C77.4313 69.0439 77.649 67.9787 77.7774 66.9008C78.058 64.577 78.0857 62.2294 77.8601 59.8996C77.7379 58.3664 77.5262 56.8417 77.2261 55.3334C77.2066 55.2627 77.1735 55.1965 77.1286 55.1387C77.0837 55.0808 77.0279 55.0324 76.9643 54.9962C76.836 54.923 76.6839 54.9041 76.5416 54.9434C76.3993 54.9828 76.2784 55.0772 76.2055 55.206C76.1326 55.3348 76.1137 55.4874 76.1529 55.6302L76.1525 55.6309Z" fill="#4A3E42"/>
<path d="M52.6182 66.1182C52.0046 66.1481 51.4133 66.3585 50.918 66.7231C50.4228 67.0878 50.0453 67.5905 49.8327 68.1688C49.3273 69.472 49.3549 70.9226 49.9095 72.2056C50.5036 73.6033 51.596 74.7216 52.7911 75.6248C53.9437 76.4818 55.2522 77.1045 56.643 77.4579C57.9672 77.7705 59.3147 77.9742 60.6719 78.0669C61.8726 78.1776 63.2075 78.1985 64.3608 77.798C64.9728 77.5856 65.6505 77.2444 65.906 76.6085C66.0262 76.2876 66.0514 75.9387 65.9785 75.6037C65.9057 75.2688 65.7379 74.9621 65.4954 74.7207C64.974 74.2215 64.1971 74.0927 63.5088 74.0122C62.7076 73.9175 61.8981 73.9256 61.0946 73.8577C59.5084 73.7237 57.8575 73.4109 56.448 72.641C55.9151 72.3775 55.4395 72.0107 55.0487 71.5617C54.6983 71.0747 54.4611 70.5152 54.3546 69.9242C54.199 69.2232 53.1259 69.52 53.2814 70.221C53.4765 71.2807 54.0348 72.2386 54.8595 72.9289C55.847 73.6803 56.9813 74.2143 58.1883 74.4962C59.6559 74.8317 61.1529 75.0209 62.6575 75.0612C63.2524 75.0928 63.9043 75.1182 64.4605 75.3582C64.795 75.5029 65.0588 75.9165 64.8521 76.2521C64.6935 76.4332 64.4892 76.5678 64.2607 76.642C64.0371 76.738 63.8039 76.8099 63.5652 76.8564C62.994 76.967 62.4132 77.0192 61.8315 77.012C60.6717 76.9968 59.5151 76.8859 58.3733 76.6803C57.1552 76.5067 55.9711 76.1452 54.863 75.6087C53.6459 74.9973 52.5723 74.133 51.7136 73.0734C50.869 72.0088 50.4035 70.6948 50.6543 69.3334C50.8558 68.2413 51.45 67.3116 52.6184 67.2353C52.7649 67.232 52.9045 67.1721 53.0081 67.0681C53.1117 66.9641 53.1714 66.8241 53.1748 66.6771C53.1735 66.5294 53.1145 66.3882 53.0104 66.2838C52.9063 66.1794 52.7656 66.1201 52.6184 66.1189L52.6182 66.1182Z" fill="#4A3E42"/>
<path d="M68.9499 40.2963C68.4353 39.8914 67.9188 39.4883 67.389 39.1033C66.9226 38.7189 66.4075 38.3982 65.8571 38.1496C65.6716 38.0827 65.4711 38.069 65.2783 38.1101C65.0854 38.1512 64.9078 38.2454 64.7654 38.3822C64.5463 38.6558 64.418 38.9913 64.3986 39.3417C64.3122 39.8953 64.232 40.4501 64.1687 41.0069C64.1007 41.6033 64.056 42.2015 63.998 42.7979C63.9991 42.9457 64.058 43.0871 64.1621 43.1915C64.2663 43.296 64.4072 43.3551 64.5544 43.3562C64.701 43.353 64.8407 43.2932 64.9444 43.1892C65.0481 43.0852 65.1077 42.945 65.1108 42.7979C65.1546 42.3458 65.1897 41.8929 65.2351 41.4409C65.2603 41.1896 65.2884 40.9385 65.3195 40.6878C65.3257 40.6366 65.3325 40.5857 65.339 40.5347C65.3417 40.5133 65.354 40.4242 65.339 40.5324C65.3424 40.5075 65.3457 40.4826 65.3492 40.4577C65.3655 40.3413 65.3823 40.225 65.3995 40.1088C65.4363 39.86 65.4672 39.6078 65.5177 39.3613C65.5319 39.2915 65.5501 39.2226 65.5722 39.1549C65.5954 39.0803 65.5652 39.1687 65.5652 39.1687C65.5566 39.1566 65.6257 39.097 65.5699 39.1498C65.5022 39.214 65.644 39.1084 65.5564 39.1645C65.53 39.1815 65.5054 39.1943 65.478 39.211C65.5117 39.1917 65.5293 39.2177 65.508 39.2015C65.5032 39.2041 65.4979 39.2055 65.4924 39.2055C65.487 39.2055 65.4816 39.2041 65.4769 39.2015C65.4435 39.1898 65.4607 39.1943 65.5288 39.2147C65.4634 39.1859 65.5624 39.238 65.5803 39.2485C65.6301 39.2756 65.6795 39.3037 65.7287 39.3327C65.8369 39.3959 65.9433 39.4622 66.0486 39.5304C66.2779 39.6785 66.5023 39.8344 66.7239 39.9939C67.2448 40.3684 67.6906 40.715 68.1626 41.0872C68.2692 41.1876 68.4099 41.2436 68.5562 41.2436C68.7024 41.2436 68.8431 41.1876 68.9497 41.0872C69.0531 40.982 69.111 40.8402 69.111 40.6924C69.111 40.5447 69.0531 40.4029 68.9497 40.2977L68.9499 40.2963Z" fill="#4A3E42"/>
<path d="M73.7166 40.5038C74.1053 40.017 74.4936 39.5299 74.8873 39.0468C75.0496 38.8463 75.2119 38.6418 75.3813 38.4467C75.4186 38.4021 75.459 38.3602 75.5021 38.3213C75.5591 38.2748 75.4989 38.3141 75.4947 38.3181C75.4905 38.322 75.606 38.2429 75.5012 38.3109C75.577 38.2618 75.5102 38.353 75.5174 38.3053L75.4801 38.3006L75.5241 38.3127C75.51 38.2813 75.4812 38.2841 75.5383 38.3195C75.5529 38.3285 75.6111 38.3692 75.5693 38.3334C75.5419 38.3071 75.5054 38.2923 75.4675 38.2922C75.4295 38.292 75.3929 38.3065 75.3653 38.3326C75.3377 38.3588 75.3211 38.3946 75.319 38.4326C75.3169 38.4706 75.3294 38.508 75.354 38.5371C75.3786 38.5661 75.4134 38.5845 75.4511 38.5886C75.4889 38.5926 75.5268 38.582 75.5569 38.5588C75.5871 38.5357 75.6072 38.5018 75.6132 38.4642C75.6192 38.4266 75.6105 38.3881 75.589 38.3567C75.6083 38.393 75.6257 38.4302 75.6438 38.4669C75.6852 38.5504 75.7264 38.6339 75.7676 38.7177C75.8459 38.8777 75.9232 39.0383 75.9994 39.1994C76.1466 39.5115 76.2892 39.826 76.4241 40.1437C76.5864 40.5268 76.7357 40.9151 76.8785 41.3068L77.2367 42.2876C77.2792 42.4283 77.3739 42.5471 77.5012 42.6197C77.6286 42.6923 77.7789 42.7131 77.921 42.6777C78.0627 42.6372 78.1828 42.5426 78.2555 42.4141C78.3282 42.2856 78.3477 42.1336 78.3098 41.9908C78.0098 41.17 77.7145 40.3505 77.3702 39.5467C77.2197 39.195 77.0607 38.8465 76.8959 38.5011C76.7234 38.1404 76.5794 37.7126 76.2544 37.4621C76.1088 37.3434 75.937 37.2614 75.7534 37.223C75.5697 37.1846 75.3796 37.1909 75.1989 37.2414C74.8279 37.3537 74.5961 37.6535 74.3601 37.9392C73.8772 38.5253 73.4036 39.1194 72.9297 39.713C72.8293 39.8197 72.7734 39.9609 72.7734 40.1077C72.7734 40.2545 72.8293 40.3957 72.9297 40.5024C73.0346 40.6061 73.1759 40.6643 73.3231 40.6643C73.4704 40.6643 73.6117 40.6061 73.7166 40.5024V40.5038Z" fill="#4A3E42"/>
<path d="M73.5171 49.8953C73.2023 50.0216 72.4553 50.0191 72.3445 49.4129C72.2863 48.6044 73.1791 48.4862 73.6228 48.723C73.9856 48.9159 74.1804 49.5597 73.5171 49.8953Z" fill="#4A3E42"/>
<path d="M68.8064 47.0392C68.7093 47.4767 68.8711 48.4506 69.6802 48.4669C70.7404 48.3715 70.704 47.1804 70.3034 46.6526C69.9753 46.2205 69.1006 46.1028 68.8064 47.0392Z" fill="#4A3E42"/>
<path d="M76.8085 46.3891C76.9745 46.8053 76.9708 47.7929 76.1751 47.9392C75.1133 48.0162 74.9582 46.8348 75.2691 46.2491C75.5237 45.7697 76.3678 45.5122 76.8085 46.3891Z" fill="#4A3E42"/>
<path d="M71.4403 51.1967C71.5949 51.3564 71.7818 51.481 71.9884 51.5621C72.195 51.6432 72.4166 51.679 72.6381 51.667C72.87 51.6637 73.0968 51.5984 73.2951 51.4779C73.5322 51.3161 73.7122 51.0832 73.8091 50.8124L72.7921 50.9457C72.9199 51.1623 73.1099 51.3352 73.3371 51.442C73.5643 51.5487 73.8183 51.5844 74.066 51.5442C74.2886 51.5141 74.502 51.4357 74.6914 51.3145C74.8807 51.1932 75.0415 51.0321 75.1625 50.8422C75.2357 50.7141 75.2558 50.5622 75.2185 50.4193C75.1811 50.2765 75.0894 50.154 74.9629 50.0784C74.8348 50.0068 74.684 49.9877 74.5422 50.025C74.4003 50.0623 74.2783 50.1532 74.2016 50.2786C74.1587 50.3461 74.2016 50.2665 74.2227 50.2589C74.2065 50.2647 74.1726 50.3142 74.1576 50.3286C74.1467 50.3393 74.0824 50.401 74.1411 50.3477C74.1997 50.2944 74.1346 50.3503 74.1191 50.36C74.0917 50.3775 74.063 50.3919 74.0354 50.4084C73.9658 50.4489 74.0368 50.3945 74.0627 50.3993C74.0063 50.4081 73.9513 50.4242 73.8991 50.4475C73.8383 50.4719 74.0015 50.4452 73.9375 50.444C73.9144 50.444 73.8896 50.4475 73.8657 50.448C73.8367 50.4438 73.8075 50.4426 73.7783 50.4445C73.8031 50.4282 73.9046 50.4763 73.8179 50.4445C73.7312 50.4126 73.8256 50.4601 73.8323 50.4538C73.8063 50.4412 73.7816 50.4261 73.7586 50.4087C73.8546 50.4689 73.7818 50.4156 73.7567 50.3942C73.7034 50.3477 73.8198 50.4924 73.753 50.3819C73.6966 50.288 73.614 50.2127 73.5155 50.1654C73.4169 50.1181 73.3067 50.1008 73.1985 50.1156C73.0915 50.1316 72.9912 50.1776 72.9091 50.2483C72.8271 50.3191 72.7666 50.4117 72.7348 50.5154C72.7603 50.4519 72.7548 50.4477 72.7274 50.511C72.7019 50.5701 72.7886 50.4535 72.7408 50.4954C72.6518 50.5736 72.7369 50.4954 72.749 50.5024L72.6817 50.5445C72.6801 50.517 72.7877 50.5168 72.6963 50.5361C72.6683 50.5409 72.6407 50.5476 72.6136 50.5561C72.6219 50.5417 72.7434 50.5482 72.6553 50.5491C72.6245 50.5491 72.5939 50.5519 72.5626 50.5515C72.538 50.5515 72.512 50.5464 72.4875 50.5475C72.4211 50.5505 72.6198 50.5775 72.5028 50.5475C72.446 50.5338 72.3917 50.5168 72.3358 50.501C72.2716 50.4817 72.416 50.5515 72.3632 50.5115C72.3369 50.4939 72.3094 50.4784 72.2809 50.4649C72.2014 50.4212 72.3041 50.4852 72.3041 50.4852C72.2962 50.4887 72.2308 50.4124 72.2259 50.4068C72.1211 50.3031 71.9798 50.2449 71.8325 50.2449C71.6853 50.2449 71.544 50.3031 71.4391 50.4068C71.3378 50.5131 71.2812 50.6545 71.2812 50.8015C71.2812 50.9486 71.3378 51.09 71.4391 51.1962L71.4403 51.1967Z" fill="#4A3E42"/>
<path d="M72.666 50.0387L72.6985 50.4427L72.7033 50.5009C72.7073 50.6477 72.7671 50.7874 72.8706 50.8913C72.9742 50.9951 73.1134 51.0552 73.2597 51.0591L73.4076 51.0391C73.5004 51.0133 73.585 50.9639 73.6531 50.8956L73.7401 50.7826C73.7899 50.6971 73.8161 50.5999 73.8161 50.5009L73.7834 50.0969L73.7788 50.0387C73.773 49.8918 73.7155 49.7517 73.6165 49.6433C73.5084 49.5441 73.3688 49.4864 73.2224 49.4805L73.0745 49.5005C72.9816 49.5261 72.897 49.5755 72.829 49.644L72.7418 49.7568C72.692 49.8423 72.6658 49.9396 72.666 50.0387Z" fill="#4A3E42"/>
<path d="M61.4821 51.36C62.0338 51.1862 62.5856 51.0132 63.1512 50.8917C63.3349 50.8524 63.5199 50.8194 63.7051 50.7887C63.8403 50.7664 63.9756 50.7454 64.111 50.7257C64.13 50.7229 64.3364 50.6947 64.2455 50.7066C64.3248 50.6961 64.4043 50.6864 64.4838 50.6766C64.6302 50.673 64.7697 50.613 64.8733 50.5091C64.9768 50.4052 65.0366 50.2653 65.0402 50.1183C65.0281 49.846 64.7933 49.5227 64.4838 49.5601C63.9483 49.6252 63.4107 49.6978 62.8823 49.8095C62.3069 49.9311 61.7464 50.1069 61.186 50.2833C61.1156 50.3027 61.0496 50.336 60.9919 50.381C60.9343 50.4261 60.886 50.4821 60.8499 50.5459C60.8138 50.6096 60.7906 50.6799 60.7816 50.7527C60.7726 50.8255 60.7779 50.8993 60.7974 50.97C60.8168 51.0407 60.8499 51.1069 60.8948 51.1647C60.9397 51.2226 60.9955 51.271 61.0591 51.3072C61.1227 51.3434 61.1927 51.3667 61.2652 51.3758C61.3378 51.3848 61.4116 51.3795 61.4821 51.36Z" fill="#4A3E42"/>
<path d="M63.2239 53.6704C63.529 53.3181 63.8635 52.9926 64.2236 52.6972C64.2663 52.6632 64.3091 52.6295 64.352 52.596L64.4216 52.5418C64.4765 52.4988 64.3256 52.6153 64.4047 52.5551C64.4939 52.4869 64.5834 52.4195 64.6752 52.3548C64.8746 52.2148 65.0829 52.0881 65.2988 51.9754C65.4253 51.8999 65.5172 51.7774 65.5545 51.6345C65.5919 51.4916 65.5717 51.3397 65.4984 51.2116C65.4217 51.0862 65.2997 50.9954 65.1578 50.9581C65.016 50.9208 64.8653 50.9399 64.7371 51.0113C63.8716 51.501 63.0941 52.133 62.4371 52.881C62.3342 52.9859 62.2768 53.1275 62.2773 53.2747C62.2779 53.422 62.3365 53.5631 62.4403 53.6672C62.5441 53.7713 62.6847 53.8301 62.8315 53.8307C62.9782 53.8313 63.1193 53.7737 63.2239 53.6704Z" fill="#4A3E42"/>
<path d="M82.3484 49.3578C81.706 49.2415 81.0626 49.1297 80.4117 49.0752C79.8928 49.0317 79.3698 49.025 78.8494 49.0287C78.7018 49.0287 78.5603 49.0875 78.4559 49.1922C78.3516 49.2969 78.293 49.4389 78.293 49.587C78.293 49.735 78.3516 49.877 78.4559 49.9817C78.5603 50.0864 78.7018 50.1452 78.8494 50.1452C79.3594 50.1417 79.8731 50.1482 80.3825 50.1894C80.6968 50.2147 80.9157 50.2429 81.1663 50.2824C81.4625 50.3289 81.7574 50.3824 82.0526 50.4355C82.1947 50.4714 82.3452 50.4509 82.4727 50.3782C82.6002 50.3055 82.6948 50.1863 82.7369 50.0454C82.7743 49.9027 82.7546 49.751 82.682 49.6227C82.6094 49.4944 82.4896 49.3997 82.3484 49.3588V49.3578Z" fill="#4A3E42"/>
<path d="M81.088 51.9929C80.3854 51.3585 79.5741 50.857 78.6934 50.5126C78.5512 50.474 78.3995 50.4933 78.2713 50.5663C78.1432 50.6393 78.0489 50.7601 78.009 50.9025C77.9737 51.0451 77.9944 51.1959 78.0667 51.3237C78.139 51.4516 78.2574 51.5466 78.3976 51.5893C78.4523 51.6096 78.5061 51.6317 78.5599 51.6521C78.6308 51.6791 78.4611 51.6082 78.5281 51.6384C78.555 51.6505 78.5821 51.6617 78.6088 51.6745C78.6953 51.714 78.7804 51.7564 78.8638 51.8008C79.0421 51.8954 79.2162 51.999 79.3889 52.1032C79.5565 52.2043 79.7197 52.3125 79.8757 52.43C79.8934 52.4432 79.9105 52.4574 79.9288 52.47C79.8885 52.4423 79.8428 52.4025 79.9094 52.4553C79.946 52.4845 79.9824 52.5139 80.0186 52.5437C80.1134 52.6216 80.2063 52.7016 80.2988 52.7821C80.4035 52.8854 80.5445 52.943 80.6913 52.9424C80.8381 52.9418 80.9787 52.8831 81.0825 52.7789C81.1863 52.6748 81.2448 52.5337 81.2454 52.3865C81.246 52.2392 81.1886 52.0977 81.0857 51.9927L81.088 51.9929Z" fill="#4A3E42"/>
<path d="M68.7606 41.2479C70.0894 40.8524 71.5159 40.6268 72.9001 40.8192C73.0422 40.8536 73.1921 40.8324 73.3192 40.76C73.4463 40.6876 73.5413 40.5694 73.5847 40.4293C73.6229 40.2866 73.6036 40.1344 73.5308 40.0059C73.458 39.8773 73.3377 39.7827 73.1959 39.7425C71.6064 39.5451 69.9932 39.6914 68.4647 40.1714C67.7797 40.3749 68.0706 41.4528 68.7606 41.2479Z" fill="#4A3E42"/>
<path d="M77.4764 42.5919C79.1456 43.9379 79.9885 46.0537 79.9401 48.1766C79.9561 49.0102 79.8129 49.8393 79.5184 50.6189C79.2156 51.3861 78.7061 52.0537 78.0469 52.5472C77.0851 53.1733 75.9946 53.5729 74.857 53.716C74.7152 53.7562 74.595 53.8508 74.5222 53.9793C74.4495 54.1078 74.4302 54.2599 74.4684 54.4026C74.5108 54.5434 74.6055 54.6623 74.7329 54.7349C74.8603 54.8075 75.0106 54.8281 75.1528 54.7925C76.2997 54.6239 77.4031 54.2333 78.4016 53.6425C79.2638 53.1051 79.9505 52.3265 80.3773 51.4026C80.7741 50.5484 80.996 49.6229 81.0299 48.6811C81.1363 47.4298 80.9602 46.1705 80.5145 44.997C80.0511 43.7553 79.2756 42.655 78.2632 41.8029C78.1569 41.7021 78.0161 41.646 77.8698 41.646C77.7235 41.646 77.5828 41.7021 77.4764 41.8029C77.373 41.9081 77.3151 42.0499 77.3151 42.1976C77.3151 42.3453 77.373 42.4871 77.4764 42.5923V42.5919Z" fill="#4A3E42"/>
<path d="M63.94 42.7346C62.6617 44.3072 62.1229 46.3448 62.2055 48.3538C62.2815 50.2039 62.8372 52.108 64.2555 53.3752C64.7887 53.8515 65.5786 53.0647 65.0424 52.5857C63.8405 51.5118 63.382 49.9234 63.3182 48.3538C63.2487 46.6621 63.6393 44.862 64.7268 43.5241C64.8273 43.4174 64.8833 43.2761 64.8833 43.1294C64.8833 42.9826 64.8273 42.8413 64.7268 42.7346C64.622 42.6309 64.4807 42.5728 64.3334 42.5728C64.1862 42.5728 64.0449 42.6309 63.94 42.7346Z" fill="#4A3E42"/>
<path d="M69.0602 41.0047C69.0982 41.0891 69.1352 41.174 69.1712 41.2594L69.1151 41.1262C69.2654 41.4848 69.4 41.8502 69.5208 42.2194C69.5621 42.3583 69.6529 42.4771 69.7758 42.5532C69.8389 42.5902 69.9087 42.6144 69.9811 42.6243C70.0535 42.6343 70.1272 42.6299 70.1979 42.6113C70.2686 42.5927 70.3349 42.5603 70.3931 42.516C70.4514 42.4716 70.5003 42.4162 70.5372 42.3529C70.5744 42.2885 70.5986 42.2172 70.6082 42.1434C70.6178 42.0695 70.6128 41.9945 70.5933 41.9226C70.4293 41.4187 70.2381 40.9241 70.0204 40.4411C69.9471 40.3157 69.8278 40.2239 69.688 40.1853C69.5433 40.1466 69.3893 40.1667 69.2593 40.2413C69.1346 40.3154 69.0432 40.435 69.0043 40.5751L68.9844 40.7235C68.9842 40.8225 69.0105 40.9198 69.0604 41.0052L69.0602 41.0047Z" fill="#4A3E42"/>
<path d="M70.6112 40.6191C70.8695 41.3218 71.0881 42.0385 71.2659 42.766C71.3051 42.9087 71.3993 43.03 71.5276 43.1032C71.5912 43.1394 71.6612 43.1627 71.7338 43.1717C71.8063 43.1808 71.8799 43.1754 71.9504 43.1559C72.0208 43.1364 72.0868 43.1032 72.1445 43.0582C72.2021 43.0131 72.2504 42.9571 72.2865 42.8933C72.3226 42.8295 72.3458 42.7593 72.3548 42.6865C72.3638 42.6137 72.3585 42.5399 72.339 42.4692C72.1613 41.7417 71.9426 41.0249 71.6841 40.3223C71.6419 40.1839 71.5513 40.0654 71.4291 39.9885C71.3336 39.9324 71.2235 39.9062 71.1131 39.9132C71.0026 39.9202 70.8967 39.9601 70.809 40.0278C70.7213 40.0955 70.6556 40.188 70.6205 40.2933C70.5854 40.3986 70.5824 40.512 70.6119 40.6191H70.6112Z" fill="#4A3E42"/>
<path d="M72.1504 40.5207C72.3359 40.9731 72.5044 41.4334 72.6484 41.9012C72.6892 42.0402 72.7801 42.1591 72.9034 42.2347C72.9989 42.2908 73.1089 42.3169 73.2194 42.3099C73.3298 42.3029 73.4356 42.263 73.5234 42.1954C73.6111 42.1277 73.6767 42.0353 73.7118 41.9301C73.747 41.8248 73.75 41.7114 73.7206 41.6044C73.5766 41.1366 73.4093 40.6763 73.2229 40.2239C73.1797 40.086 73.0894 39.9679 72.9679 39.8903C72.9048 39.8533 72.835 39.8291 72.7626 39.8192C72.6902 39.8092 72.6165 39.8136 72.5458 39.8322C72.4751 39.8508 72.4088 39.8832 72.3506 39.9275C72.2923 39.9719 72.2434 40.0273 72.2065 40.0906C72.168 40.1545 72.1431 40.2257 72.1334 40.2997C72.1238 40.3738 72.1296 40.449 72.1504 40.5207Z" fill="#4A3E42"/>
<path d="M58.6353 55.6717C59.6197 54.6758 60.6474 53.7255 61.7186 52.8207C61.7552 52.7792 61.801 52.7469 61.8524 52.7267C61.9038 52.7065 61.9593 52.6988 62.0142 52.7044C62.1139 52.7328 62.1649 52.8405 62.2055 52.937C62.657 54.0023 63.3071 54.9713 64.1209 55.7919C64.246 55.8969 64.3431 56.0314 64.4035 56.1834C64.4985 56.509 64.2312 56.8193 63.9801 57.0463C62.4068 58.4671 60.588 59.5877 58.6133 60.3528" fill="#FEBE69"/>
<path d="M59.0282 56.0667C59.5339 55.5563 60.0506 55.0571 60.5784 54.5689C60.8354 54.3317 61.0953 54.0972 61.3581 53.8656C61.4962 53.7438 61.6353 53.6228 61.7753 53.5025L61.9432 53.3587L62.0695 53.2513C62.1419 53.1964 62.1233 53.1999 62.0139 53.262L61.7329 53.1857C61.6787 53.1219 61.676 53.1325 61.7248 53.2173C61.7505 53.278 61.7767 53.3385 61.8039 53.3987C61.8445 53.4888 61.8865 53.5783 61.9297 53.6671C62.031 53.8745 62.1402 54.0776 62.2573 54.2766C62.5006 54.6857 62.7725 55.077 63.071 55.4475C63.2046 55.6149 63.3437 55.7778 63.4883 55.9359C63.5834 56.0394 63.805 56.1885 63.8544 56.3193C63.8702 56.3414 63.8757 56.3334 63.8711 56.296C63.8644 56.3383 63.8453 56.3777 63.8161 56.409C63.7689 56.4743 63.7144 56.5339 63.6539 56.587C63.4883 56.7498 63.3073 56.8989 63.1302 57.048C61.7351 58.2185 60.1589 59.1527 58.4639 59.8138C58.3239 59.8568 58.2057 59.9519 58.1334 60.0796C58.0611 60.2073 58.0402 60.3579 58.0751 60.5005C58.1153 60.6427 58.2096 60.7633 58.3377 60.8362C58.4658 60.9092 58.6174 60.9286 58.7597 60.8903C59.8375 60.4748 60.8737 59.9581 61.8546 59.347C62.3376 59.0437 62.8049 58.7172 63.2565 58.3675C63.7311 58.0348 64.1722 57.6563 64.5735 57.2376C65.0068 56.7379 65.1223 56.1113 64.6802 55.577C64.3419 55.1681 63.9564 54.8125 63.6467 54.377C63.3124 53.9069 63.0235 53.4059 62.784 52.8807C62.7064 52.6222 62.5456 52.3967 62.3266 52.2397C61.9872 52.0452 61.6383 52.1738 61.3571 52.4006C60.266 53.3011 59.2256 54.2617 58.2406 55.2779C57.7352 55.7882 58.5218 56.5779 59.0289 56.0674L59.0282 56.0667Z" fill="#4A3E42"/>
<path d="M75.5021 62.5604C75.2364 62.5797 75.0071 62.886 74.9401 63.1605C74.8987 63.3617 74.9326 63.5712 75.0354 63.749C75.1703 63.9693 75.3559 64.154 75.5766 64.2876C75.7973 64.4211 76.0468 64.4996 76.304 64.5165C76.8376 64.5511 77.3735 64.5064 77.8941 64.3837C78.2122 64.3391 78.5232 64.2537 78.8196 64.1295C79.5206 63.8022 80.0068 63.0784 80.3264 62.3494C80.8813 61.0998 81.0515 59.7123 80.8154 58.365C80.7513 57.9135 80.5979 57.4795 80.3642 57.0884C79.9481 56.5549 79.6745 56.2218 79.0359 56.1215C78.7768 56.0963 78.5158 56.1008 78.2578 56.1348C77.5937 56.2894 76.9478 56.5144 76.3311 56.8061C76.0864 56.9171 75.8867 57.1085 75.765 57.3487C75.4497 58.1542 76.1408 58.3801 76.4507 58.622C76.1208 58.6216 75.7915 58.6515 75.4671 58.7115C75.2948 58.7746 75.1428 58.8832 75.027 59.0258C74.9111 59.1684 74.8358 59.3397 74.8089 59.5217C74.7966 59.6961 74.8324 59.8705 74.9123 60.0259C74.9922 60.1813 75.1131 60.3117 75.2619 60.4028L75.6752 60.6051C75.4118 60.6332 75.1595 60.7266 74.941 60.8768C74.7647 60.9876 74.6292 61.1531 74.5551 61.3482C74.4809 61.5432 74.4721 61.7572 74.53 61.9577C74.6706 62.2673 74.9264 62.5094 75.2427 62.6322" fill="white"/>
<path d="M75.5226 62.1512C75.3589 62.0851 75.2125 61.9822 75.0947 61.8505C75.1626 61.9244 75.0736 61.813 75.0647 61.8007C75.0077 61.7198 75.0647 61.8507 75.0573 61.7826C75.0557 61.7649 75.0379 61.643 75.0432 61.736C75.0432 61.7216 75.0511 61.5828 75.0418 61.6458C75.0325 61.7088 75.0636 61.5732 75.068 61.5602C75.0448 61.6321 75.0754 61.5458 75.0912 61.5174C75.1039 61.4941 75.163 61.4137 75.1178 61.469C75.149 61.4322 75.1827 61.3976 75.2187 61.3655C75.247 61.3422 75.2477 61.3395 75.2205 61.3604L75.275 61.3236C75.3301 61.2884 75.3878 61.2573 75.4475 61.2306C75.4053 61.248 75.499 61.2152 75.4978 61.2155C75.5611 61.1973 75.623 61.1799 75.6877 61.1666C76.0354 61.0945 76.5737 61.0843 76.9917 61.0361C77.5147 60.9757 78.035 60.9008 78.5538 60.8052C78.6953 60.7646 78.8154 60.6699 78.888 60.5414C78.9607 60.413 78.9802 60.261 78.9423 60.1183C78.9005 59.9773 78.8059 59.8579 78.6783 59.7853C78.5508 59.7126 78.4001 59.6923 78.258 59.7285C77.6809 59.8352 77.1582 59.9055 76.5795 59.9641C75.9687 60.026 75.317 60.0092 74.7694 60.3267C74.5075 60.468 74.2904 60.6803 74.1428 60.9394C73.9952 61.1985 73.9232 61.4939 73.9348 61.7921C73.9751 62.0836 74.091 62.3594 74.271 62.5917C74.451 62.824 74.6888 63.0048 74.9604 63.1158C75.0887 63.1867 75.2393 63.2054 75.3809 63.1682C75.5226 63.1309 75.6446 63.0405 75.7218 62.9156C75.7949 62.7874 75.815 62.6355 75.7777 62.4927C75.7403 62.3498 75.6486 62.2273 75.5221 62.1517L75.5226 62.1512Z" fill="#4A3E42"/>
<path d="M75.5416 59.9211C75.5349 59.9173 75.4357 59.848 75.4888 59.8927C75.547 59.9418 75.4524 59.8506 75.4424 59.8394C75.5212 59.9283 75.3692 59.6766 75.4028 59.7696C75.3831 59.7169 75.3685 59.6624 75.3592 59.6068C75.3713 59.6857 75.3673 59.5808 75.3634 59.5522C75.3525 59.4724 75.3321 59.6545 75.368 59.5349C75.3972 59.4372 75.3448 59.5635 75.3768 59.5066C75.3979 59.4679 75.4192 59.4305 75.4431 59.3937C75.4019 59.4572 75.4485 59.3865 75.4719 59.3614C75.5013 59.3289 75.5329 59.2984 75.5665 59.2702C75.4897 59.333 75.5836 59.2684 75.5973 59.2567C75.639 59.2214 75.5226 59.2674 75.6137 59.2507C75.6719 59.24 75.7283 59.224 75.7869 59.2156C75.7276 59.2242 75.8052 59.2156 75.8229 59.2133C75.8859 59.2084 75.949 59.2037 76.012 59.2002C76.8722 59.1687 77.7289 59.0743 78.5754 58.9178C78.6458 58.8984 78.7118 58.8651 78.7694 58.8201C78.8271 58.775 78.8753 58.719 78.9114 58.6553C78.9475 58.5915 78.9707 58.5212 78.9797 58.4485C78.9887 58.3757 78.9833 58.3019 78.9639 58.2312C78.9445 58.1605 78.9114 58.0944 78.8665 58.0365C78.8216 57.9787 78.7658 57.9303 78.7022 57.8941C78.6387 57.8579 78.5686 57.8346 78.4961 57.8256C78.4236 57.8165 78.35 57.8219 78.2796 57.8414C77.8137 57.934 77.3427 57.9978 76.8691 58.0326C76.354 58.0791 75.7709 58.0221 75.2767 58.1875C75.0035 58.2855 74.7631 58.4584 74.5828 58.6866C74.4025 58.9147 74.2895 59.1889 74.2566 59.4782C74.2346 59.7572 74.2908 60.0369 74.4187 60.2856C74.5467 60.5343 74.7414 60.7422 74.9809 60.8859C75.044 60.9235 75.1139 60.9482 75.1865 60.9586C75.2592 60.969 75.3332 60.9649 75.4043 60.9464C75.4753 60.928 75.5421 60.8957 75.6006 60.8512C75.6592 60.8068 75.7084 60.7512 75.7454 60.6876C75.7824 60.6241 75.8066 60.5537 75.8164 60.4808C75.8262 60.4078 75.8216 60.3336 75.8027 60.2624C75.7838 60.1912 75.7511 60.1245 75.7064 60.0661C75.6617 60.0077 75.606 59.9587 75.5423 59.922L75.5416 59.9211Z" fill="#4A3E42"/>
<path d="M51.7539 59.0107C51.5652 59.5211 51.4862 60.0657 51.5221 60.6089C51.6114 61.8591 52.3646 62.4548 53.1542 62.8726C53.5489 63.0479 53.9521 63.2031 54.3623 63.3378C54.4976 63.3761 54.6394 63.386 54.7787 63.3667C54.918 63.3475 55.0519 63.2995 55.1718 63.2259C55.9107 62.7044 55.4294 62.0306 55.294 61.6002C55.5823 61.8223 55.8901 62.0177 56.2134 62.1843C56.3968 62.2441 56.5936 62.2481 56.7792 62.1959C56.9649 62.1437 57.131 62.0376 57.2567 61.891C57.368 61.7307 57.4361 61.5441 57.4542 61.3496C57.4724 61.155 57.44 60.9591 57.3603 60.7808C57.3603 60.7808 57.252 60.5791 57.1106 60.317C57.3531 60.467 57.6298 60.5525 57.9144 60.5654C58.1346 60.5818 58.3536 60.5199 58.5329 60.3904C58.7122 60.261 58.8403 60.0724 58.8948 59.8576C58.947 59.4579 58.8511 59.0529 58.6254 58.7195C58.7353 58.7214 58.8444 58.7008 58.9461 58.6589C59.0477 58.617 59.1398 58.5546 59.2165 58.4757C59.3707 58.2971 59.4549 58.0684 59.4537 57.8321C59.4513 57.5125 59.3852 57.1966 59.2591 56.9031C59.133 56.6096 58.9496 56.3444 58.7197 56.1232C58.2809 55.6689 58.2934 55.6115 57.7556 55.3023C57.449 55.1079 57.1182 54.9547 56.7719 54.8467C55.9524 54.6322 55.1106 54.9662 54.4188 55.4324C53.1604 56.2963 52.2228 57.5543 51.7528 59.0098" fill="white"/>
<path d="M76.3409 57.8784C76.2577 57.8156 76.1956 57.7542 76.2714 57.5792C76.3713 57.3466 76.6803 57.2536 76.8915 57.1647C77.1605 57.0505 77.4345 56.9484 77.7134 56.8612C77.8603 56.8147 78.0085 56.7737 78.1576 56.7349C78.2394 56.7137 78.3242 56.6977 78.4051 56.673C78.2264 56.7275 78.3479 56.6795 78.4084 56.676C78.8906 56.6477 79.2597 56.6742 79.6 57.0359C79.9712 57.4473 80.2079 57.9629 80.2781 58.5134C80.515 59.8653 80.2947 61.2578 79.6522 62.4697C79.3772 62.9814 78.9954 63.5001 78.4218 63.6892C78.079 63.79 77.729 63.8642 77.3749 63.9113C77.0293 63.9822 76.6747 63.9979 76.3242 63.9578C76.033 63.9288 75.7642 63.7883 75.5736 63.5655C75.4637 63.4143 75.441 63.207 75.6095 63.1086C75.6981 63.0846 75.7897 63.0739 75.8814 63.0768C76.0124 63.0609 76.143 63.0474 76.2756 63.0374C76.4884 63.0212 76.6998 63.0016 76.9117 62.9737C77.3647 62.9144 77.8133 62.8316 78.2619 62.7465C78.4034 62.7059 78.5235 62.6113 78.5962 62.4829C78.6689 62.3545 78.6884 62.2026 78.6507 62.0598C78.6088 61.9187 78.5142 61.7993 78.3866 61.7266C78.259 61.6539 78.1083 61.6335 77.9661 61.6698C77.4768 61.7733 76.9826 61.852 76.4854 61.9056C76.0379 61.9447 75.4509 61.9091 75.0501 62.1326C74.1302 62.646 74.2338 63.9141 74.9673 64.5324C75.7354 65.1802 76.7374 65.1418 77.6716 64.9873C78.6154 64.8313 79.4533 64.5861 80.0841 63.8188C81.2585 62.3892 81.6587 60.3102 81.4011 58.5082C81.3425 58.0648 81.228 57.6307 81.0605 57.2161C80.9019 56.8665 80.6833 56.5475 80.4146 56.2737C80.1606 56.0042 79.8465 55.799 79.4981 55.6748C79.1498 55.5505 78.7771 55.5108 78.4105 55.5589C77.9868 55.609 77.571 55.712 77.1727 55.8654C76.7223 55.9954 76.2898 56.1811 75.8852 56.4183C75.6637 56.5538 75.4789 56.742 75.3472 56.9662C75.2155 57.1904 75.1408 57.4437 75.1299 57.7037C75.122 58.2019 75.4057 58.5571 75.7818 58.8418C75.9094 58.9156 76.0609 58.9359 76.2034 58.8984C76.3459 58.861 76.4679 58.7687 76.5431 58.6415C76.6141 58.5129 76.6329 58.3617 76.5958 58.2195C76.5586 58.0772 76.4682 57.9548 76.3435 57.8777L76.3409 57.8784Z" fill="#4A3E42"/>
<path d="M52.2889 59.158C52.566 58.3188 53.0115 57.5454 53.598 56.8857C54.2028 56.2132 54.986 55.5668 55.8885 55.3738C56.3307 55.2933 56.7869 55.3784 57.1707 55.6129C57.3673 55.7183 57.5648 55.8273 57.7503 55.9511C57.8159 55.9951 57.846 56.0209 57.843 56.0181C57.8959 56.0646 57.9457 56.1139 57.9946 56.1644C58.3052 56.4451 58.5646 56.7778 58.7613 57.1478C58.8582 57.3641 59.0585 57.9901 58.7502 58.134C58.6146 58.1973 58.5313 58.0619 58.4133 57.984C58.1766 57.8277 57.9448 57.6681 57.7165 57.4997C57.347 57.2309 56.9617 56.9847 56.5626 56.7624C55.9383 56.4086 55.3768 57.3727 56.0011 57.7263C56.4388 57.9733 56.861 58.247 57.2653 58.5458C57.751 58.9051 58.3113 59.4064 58.9577 59.2408C60.3883 58.8746 60.1249 57.0515 59.4473 56.1318C58.819 55.2796 57.8773 54.5064 56.8209 54.2845C55.5254 54.0121 54.2921 54.7264 53.3532 55.5571C52.3645 56.4512 51.6273 57.5901 51.2152 58.86C50.9869 59.5427 52.0612 59.8355 52.2882 59.1568L52.2889 59.158Z" fill="#4A3E42"/>
<path d="M58.1724 59.042C58.2324 59.1484 58.2808 59.2609 58.3168 59.3777C58.3325 59.4299 58.3455 59.4828 58.3558 59.5363C58.3632 59.5768 58.3639 59.578 58.3583 59.5393C58.3613 59.568 58.3627 59.5966 58.3629 59.6252C58.3629 59.6691 58.3562 59.7466 58.3701 59.6612C58.3611 59.7129 58.3472 59.7636 58.3284 59.8127C58.3615 59.725 58.3071 59.8396 58.2929 59.8631C58.3316 59.7987 58.3029 59.8517 58.2718 59.8848C58.2408 59.9178 58.1902 59.9517 58.2547 59.908C58.2143 59.9356 58.172 59.9602 58.1281 59.9817C58.2303 59.9317 58.0929 59.9885 58.0745 59.9931C58.0453 60.0008 57.9074 60.0087 58.021 60.0052C57.8448 60.0144 57.6692 59.9781 57.511 59.8999C57.1294 59.7005 56.7788 59.433 56.4158 59.2021C56.0449 58.9655 55.6605 58.7518 55.2689 58.5508C55.1407 58.4794 54.99 58.4604 54.8482 58.4977C54.7064 58.535 54.5844 58.6258 54.5076 58.7511C54.4346 58.8792 54.4147 59.031 54.452 59.1738C54.4893 59.3166 54.5809 59.439 54.7072 59.5147C55.1733 59.7539 55.6268 60.0171 56.066 60.3032C56.5593 60.6249 57.0436 61.0057 57.641 61.0957C57.9456 61.1548 58.2609 61.1231 58.5477 61.0044C58.8345 60.8856 59.0804 60.6851 59.2548 60.4276C59.6454 59.8208 59.4528 59.0693 59.134 58.4796C59.0971 58.4163 59.0482 58.3609 58.99 58.3166C58.9317 58.2723 58.8654 58.2399 58.7947 58.2214C58.724 58.2028 58.6504 58.1983 58.578 58.2083C58.5056 58.2183 58.4359 58.2425 58.3728 58.2795C58.3097 58.3165 58.2545 58.3656 58.2103 58.424C58.1662 58.4824 58.1339 58.549 58.1154 58.6199C58.0969 58.6908 58.0924 58.7647 58.1024 58.8373C58.1123 58.91 58.1364 58.9799 58.1733 59.0432L58.1724 59.042Z" fill="#4A3E42"/>
<path d="M56.8802 61.062C56.9347 61.1713 56.8614 60.9552 56.8855 61.0836C56.8909 61.1118 56.9048 61.2434 56.8988 61.1148C56.9011 61.1634 56.9048 61.2113 56.9034 61.2599C56.9034 61.2757 56.8842 61.4058 56.8988 61.3355C56.9134 61.2653 56.8809 61.3981 56.877 61.4114C56.8691 61.4393 56.8141 61.5535 56.858 61.4725C56.8336 61.5195 56.8063 61.565 56.7764 61.6086C56.854 61.4993 56.7747 61.5953 56.7499 61.6165C56.8079 61.567 56.7859 61.5884 56.7349 61.6165C56.7152 61.6281 56.695 61.6398 56.6743 61.6484C56.7295 61.6263 56.738 61.6222 56.6999 61.636C56.6632 61.6447 56.6236 61.6567 56.5876 61.6691C56.4717 61.7093 56.6641 61.6772 56.5524 61.6765C56.506 61.6765 56.4634 61.6765 56.4179 61.6749C56.5084 61.68 56.4629 61.6784 56.3992 61.6607C56.4817 61.684 56.4177 61.6679 56.3716 61.6442C56.3213 61.6181 56.2719 61.5902 56.2234 61.5609C55.5263 61.1422 54.905 60.617 54.1713 60.256C54.1082 60.219 54.0385 60.1948 53.9661 60.1849C53.8937 60.1749 53.82 60.1793 53.7494 60.1979C53.6787 60.2165 53.6123 60.2489 53.5541 60.2932C53.4959 60.3375 53.447 60.3929 53.4101 60.4562C53.3732 60.5195 53.3491 60.5894 53.3392 60.6621C53.3292 60.7347 53.3336 60.8086 53.3522 60.8795C53.3707 60.9504 53.403 61.017 53.4471 61.0754C53.4913 61.1338 53.5465 61.1829 53.6096 61.2199C54.0235 61.4337 54.4226 61.6752 54.8042 61.9428C55.2338 62.231 55.687 62.6548 56.2054 62.7628C56.4902 62.8216 56.7859 62.7972 57.0574 62.6926C57.3289 62.5881 57.5648 62.4076 57.7373 62.1727C57.899 61.927 57.9937 61.643 58.0119 61.3492C58.0301 61.0553 57.9711 60.7618 57.8409 60.4979C57.7658 60.3708 57.6438 60.2785 57.5013 60.241C57.3589 60.2035 57.2074 60.2239 57.0798 60.2977C56.9551 60.3748 56.8647 60.4972 56.8275 60.6395C56.7904 60.7817 56.8092 60.9329 56.8802 61.0615V61.062Z" fill="#4A3E42"/>
<path d="M54.9506 62.2511C54.9722 62.3153 54.9875 62.3807 55.0072 62.4451C55.0193 62.5107 55.0206 62.5107 55.0114 62.4451C55.0145 62.4783 55.0159 62.5117 55.0153 62.5451C55.0111 62.6115 55.0123 62.6122 55.0188 62.5472C55.0117 62.5811 55.002 62.6145 54.99 62.647C55.0183 62.5816 54.9622 62.6737 54.9425 62.6921C54.8769 62.7608 54.7904 62.8057 54.6966 62.8197C54.6028 62.8337 54.5071 62.816 54.4244 62.7693C54.1484 62.6724 53.8739 62.5716 53.6009 62.467C53.5371 62.4408 53.5325 62.4391 53.587 62.4621C53.559 62.4497 53.5309 62.4372 53.5033 62.4242C53.4486 62.3983 53.3955 62.3697 53.3427 62.3407C53.2288 62.2781 53.1169 62.2116 53.0084 62.1399C52.6049 61.8911 52.3038 61.5053 52.1601 61.0525C52.0044 60.4232 52.0491 59.7607 52.2881 59.1582C52.3261 59.0155 52.3066 58.8635 52.2339 58.7351C52.1612 58.6066 52.0411 58.512 51.8995 58.4716C51.7574 58.4354 51.6068 58.4558 51.4792 58.5285C51.3517 58.6011 51.2571 58.7204 51.2152 58.8614C50.7503 60.1175 50.8674 61.6745 51.862 62.6419C52.2656 63.0215 52.7377 63.3204 53.2529 63.5225C53.8267 63.7584 54.452 64.0533 55.0805 63.8714C55.2966 63.8079 55.4955 63.6958 55.6621 63.5437C55.8287 63.3916 55.9585 63.2035 56.0419 62.9936C56.157 62.6554 56.1503 62.2875 56.0228 61.9538C55.9807 61.813 55.8861 61.6938 55.7586 61.6212C55.6311 61.5486 55.4806 61.5281 55.3385 61.564C55.197 61.6048 55.0772 61.6996 55.0047 61.8281C54.9321 61.9565 54.9127 62.1084 54.9506 62.2511Z" fill="#4A3E42"/>
</g>
<defs>
<clipPath id="clip0_1509_25210">
<rect width="65" height="80" fill="white" transform="translate(32)"/>
</clipPath>
</defs>
</svg>
