<svg width="454" height="266" viewBox="0 0 454 266" fill="none" xmlns="http://www.w3.org/2000/svg">
<g clip-path="url(#clip0_2414_22173)">
<path d="M352.433 211.794C351.816 209.258 349.608 201.41 348.821 200.405C348.283 199.718 347.646 199.189 346.464 199.693C345.45 200.126 345.615 201.295 345.806 202.262C346.017 203.327 347.272 208.35 348.003 210.961C347.438 210.326 346.487 210.097 345.728 210.444C344.925 210.81 344.615 211.496 344.705 211.991L344.877 212.938C344.353 212.6 343.574 212.638 342.998 212.947C342.303 213.318 341.604 214.313 341.946 215.031L342.404 215.993C342.333 215.934 342.261 215.876 342.261 215.876C341.379 215.151 339.848 215.597 339.599 216.564C339.408 217.306 339.731 218.181 340.144 218.86C340.193 218.94 340.246 219.027 340.301 219.117C340.353 219.276 340.382 219.366 340.382 219.366C340.942 221.1 342.032 223.749 343.665 225.638C344.423 226.513 345.299 227.382 345.986 228.321C346.874 229.534 346.901 230.92 347.532 232.429C350.432 231.501 353.991 229.912 356.808 228.504L356.67 227.866C356.408 226.659 356.12 225.089 356.291 224.066C356.281 223.865 357.18 221.182 357.444 220.682C357.83 219.961 358.001 218.519 357.927 217.852C357.807 216.752 357.522 215.179 356.703 214.032C356.539 213.804 356.338 213.619 356.106 213.468C356.08 213.448 356.049 213.431 356.023 213.418C355.814 213.29 355.587 213.19 355.342 213.112C355.248 213.082 355.151 213.055 355.05 213.032C354.999 213.019 354.949 213.009 354.899 212.998C354.848 212.985 354.802 212.975 354.755 212.968C354.681 212.952 354.607 212.942 354.533 212.932C354.483 212.925 354.436 212.918 354.389 212.912C354.379 212.912 354.365 212.908 354.352 212.908C353.784 212.842 353.198 212.842 352.661 212.865L352.569 212.396C352.543 212.261 352.496 212.056 352.433 211.795L352.433 211.794Z" fill="white"/>
<path d="M409.774 264.064C409.562 262.681 409.356 261.235 409.17 259.704H409.084C405.347 259.704 391.936 259.995 388.969 259.995C388.969 259.995 388.802 259.989 388.542 259.98C388.292 261.979 388.011 263.834 387.726 265.593C387.569 266.346 387.373 267.183 387.124 268.054L386.68 269.593C394.098 269.593 404.688 269.593 411.013 269.593C410.779 268.687 410.584 267.929 410.584 267.929C410.348 267.105 410.165 266.313 410.015 265.593C409.934 265.092 409.854 264.582 409.774 264.064Z" fill="white"/>
<path d="M391.89 259.964C390.599 259.983 389.569 259.995 388.968 259.995C388.968 259.995 388.791 259.998 388.539 260.004C389.06 255.843 389.447 251.059 389.447 245.215C389.447 237.133 388.975 229.196 388.772 225.734C388.532 221.577 388.151 217.833 388.021 213.993L388.872 214.186C391.688 214.939 395.65 215.577 398.609 215.585C401.714 215.593 406.133 215.102 409.165 213.895L409.216 213.878C409.311 217.826 409.198 221.78 408.974 225.734C408.771 229.196 408.3 237.133 408.3 245.215C408.3 250.918 408.668 255.611 409.168 259.702L409.083 259.703C406.103 259.703 396.972 259.888 391.89 259.963V259.964Z" fill="#95D9FF"/>
<path d="M416.211 209.871C421.225 211.804 425.293 207.31 425.261 203.537C425.242 201.229 424.893 199.449 424.178 197.222C423.285 194.445 421.557 188.803 421.432 178.722C421.681 175.885 421.423 171.786 421.311 170.21C420.922 164.749 418.48 158.65 414.967 155.261C413.447 153.795 411.021 151.619 407.385 150.277C404.942 149.336 402.671 148.883 398.385 148.883C391.358 148.883 385.104 152.503 382.329 155.16C377.725 159.568 374.804 167.62 375.172 178.722C375.174 186.813 374.557 192.649 373.694 195.965C373.103 198.234 372.602 202.014 372.583 204.321C372.552 208.094 376.353 212.232 381.959 210.953L416.211 209.871Z" fill="#726A69"/>
<path d="M390.025 205.097C390.325 204.804 390.538 204.531 390.635 204.293C391.104 203.128 391.019 201.546 391.023 200.249C388.97 199.36 387.09 197.857 385.417 195.855C383.584 193.662 382.55 191.221 381.942 189.072C381.514 189.006 381.257 188.967 381.257 188.967C380.482 188.847 379.752 188.495 379.156 188.019C378.38 187.392 377.822 186.568 377.394 185.706C376.515 183.939 376.132 181.962 376.301 180.023C376.347 179.53 376.427 179.026 376.675 178.583C377.027 177.952 377.727 177.488 378.495 177.373C379.496 177.224 380.588 177.68 381.06 178.524C383.918 173.583 394.25 167.884 402.859 166.035C402.859 166.035 403.183 165.987 403.713 165.912C405.749 165.626 407.811 166.323 409.231 167.81C412.429 171.161 414.377 175.254 415.515 178.991C416.148 178.418 416.609 178.002 416.609 178.002C417.164 177.501 417.986 177.259 418.754 177.374C419.522 177.489 420.222 177.953 420.574 178.584C420.822 179.027 420.902 179.531 420.948 180.023C421.116 181.963 420.734 183.94 419.855 185.707C419.427 186.568 418.869 187.392 418.093 188.02C417.497 188.496 416.767 188.848 415.992 188.967C415.992 188.967 415.86 188.987 415.632 189.023C415.459 189.668 415.266 190.212 415.171 190.501C414.542 192.207 410.944 198.229 406.467 200.17C406.472 201.479 406.377 203.109 406.858 204.294C407.181 205.092 408.695 206.275 410.286 207.351C410.286 207.351 413.027 209.255 412.573 210.945C412.081 212.78 409.166 213.897 409.166 213.897C406.133 215.103 401.715 215.594 398.61 215.586C395.65 215.579 391.689 214.94 388.873 214.187C388.873 214.187 385.351 213.113 384.915 211.522C384.214 208.966 387.045 207.273 387.045 207.273C388.225 206.541 389.346 205.765 390.026 205.098L390.025 205.097Z" fill="white"/>
<path d="M417.239 178.63C417.96 178.019 419.178 178.127 419.733 178.909C420.051 179.356 420.069 179.994 420.089 180.522C420.114 181.163 420.087 181.813 419.981 182.446C419.586 184.792 418.366 187.653 415.755 188.108C415.281 188.19 415.015 188.771 415.134 189.203C415.271 189.704 415.754 189.907 416.229 189.825C419.828 189.198 421.547 185.103 421.836 181.855C421.976 180.293 421.931 178.348 420.612 177.271C419.236 176.148 417.316 176.238 415.981 177.371C415.614 177.683 415.66 178.31 415.981 178.63C416.344 178.994 416.872 178.942 417.24 178.63H417.239Z" fill="#726A69"/>
<path d="M415.075 186.971C415.049 187.731 414.874 188.47 414.658 189.197C414.573 189.482 414.48 189.764 414.386 190.046C414.355 190.139 414.182 190.571 414.296 190.316C413.956 191.077 413.544 191.803 413.101 192.509C411.825 194.547 410.265 196.481 408.371 197.977C407.323 198.804 406.147 199.465 404.848 199.765C403.732 200.023 404.205 201.74 405.322 201.482C408.002 200.864 410.25 198.944 412.024 196.924C413.485 195.259 414.864 193.371 415.778 191.341C416.387 189.989 416.805 188.452 416.855 186.971C416.895 185.825 415.114 185.827 415.075 186.971Z" fill="#726A69"/>
<path d="M381.269 177.371C379.933 176.238 378.013 176.148 376.637 177.271C375.319 178.348 375.274 180.293 375.413 181.854C375.702 185.103 377.421 189.198 381.02 189.824C381.494 189.907 381.98 189.698 382.116 189.203C382.234 188.773 381.97 188.19 381.494 188.108C378.884 187.653 377.661 184.791 377.268 182.445C377.162 181.812 377.135 181.163 377.16 180.522C377.18 179.997 377.198 179.37 377.51 178.923C378.062 178.132 379.282 178.013 380.01 178.63C380.376 178.941 380.91 178.99 381.269 178.63C381.588 178.312 381.637 177.683 381.269 177.371Z" fill="#726A69"/>
<path d="M380.507 186.736C381.488 192.388 384.559 197.928 389.8 200.649C391.233 201.392 392.757 201.842 394.361 202.009C394.839 202.06 395.251 201.565 395.251 201.119C395.251 200.596 394.841 200.279 394.361 200.229C389.023 199.672 384.863 194.872 383.188 190.064C382.757 188.827 382.448 187.552 382.224 186.262C382.142 185.788 381.56 185.522 381.129 185.64C380.628 185.778 380.424 186.26 380.507 186.736Z" fill="#726A69"/>
<path d="M381.722 210.095C379.343 210.619 376.841 210.088 375.13 208.295C374.424 207.555 373.914 206.664 373.653 205.693C373.379 204.678 373.475 203.556 373.566 202.431C373.682 200.992 373.871 199.56 374.132 198.141C374.324 197.09 374.609 196.063 374.827 195.019C375.303 192.729 375.557 190.389 375.737 188.06C375.989 184.822 376.133 181.544 376.049 178.297C375.97 175.202 376.127 172.086 376.673 169.035C377.494 164.449 379.182 159.744 382.399 156.351C383.975 154.69 385.897 153.436 387.944 152.397C390.578 151.06 393.484 150.14 396.431 149.866C398.065 149.714 399.727 149.752 401.363 149.867C402.58 149.953 403.786 150.122 404.968 150.428C407.554 151.097 409.998 152.292 412.108 153.929C414.069 155.45 415.762 157.238 417.029 159.378C418.551 161.949 419.563 164.819 420.104 167.753C420.563 170.24 420.62 172.84 420.643 175.363C420.658 176.844 420.525 178.32 420.561 179.799C420.601 181.45 420.688 183.1 420.83 184.746C421.19 188.887 421.908 192.987 423.158 196.955C423.543 198.177 423.916 199.398 424.134 200.663C424.357 201.952 424.528 203.46 424.244 204.67C423.754 206.761 422.12 208.655 420.007 209.251C418.809 209.59 417.602 209.446 416.447 209.013C415.997 208.844 415.471 209.201 415.352 209.635C415.215 210.134 415.522 210.561 415.974 210.73C418.659 211.736 421.584 211.1 423.65 209.125C424.591 208.226 425.303 207.102 425.742 205.88C426.206 204.59 426.194 203.24 426.074 201.891C425.864 199.517 425.092 197.321 424.444 195.05C423.882 193.079 423.452 191.073 423.131 189.049C422.649 186.02 422.422 182.951 422.344 179.887C422.305 178.33 422.441 176.776 422.423 175.216C422.407 173.851 422.347 172.486 422.261 171.123C422.077 168.162 421.536 165.271 420.475 162.491C419.398 159.668 417.894 156.912 415.734 154.767C413.805 152.852 411.603 151.171 409.122 150.04C406.642 148.909 404.075 148.276 401.363 148.085C397.949 147.845 394.563 148.088 391.286 149.122C388.557 149.982 385.916 151.265 383.605 152.959C379.706 155.818 377.279 160.05 375.894 164.623C375.021 167.503 374.557 170.506 374.359 173.505C374.246 175.216 374.245 176.924 374.279 178.637C374.315 180.437 374.254 182.247 374.185 184.046C374.08 186.814 373.894 189.651 373.495 192.352C373.155 194.644 372.507 196.868 372.168 199.16C371.946 200.655 371.769 202.163 371.709 203.674C371.663 204.843 371.793 205.967 372.244 207.053C373.226 209.413 375.31 211.211 377.797 211.824C379.247 212.182 380.743 212.132 382.195 211.812C383.314 211.566 382.84 209.849 381.722 210.095Z" fill="#726A69"/>
<path d="M405.574 200.628C405.569 201.411 405.559 202.199 405.652 202.978C405.738 203.692 405.861 204.476 406.279 205.081C407.159 206.351 408.578 207.265 409.837 208.119C410.235 208.389 410.823 208.195 411.055 207.799C411.312 207.36 411.135 206.852 410.736 206.581C410.137 206.175 409.542 205.76 408.982 205.301C408.736 205.1 408.496 204.893 408.269 204.672C408.169 204.576 408.072 204.477 407.979 204.374C407.932 204.323 407.886 204.269 407.842 204.216C407.751 204.107 407.94 204.376 407.817 204.182C407.763 204.097 407.709 204.015 407.664 203.925C407.615 203.829 407.712 204.069 407.662 203.911C407.635 203.827 407.605 203.745 407.581 203.66C407.5 203.377 407.441 203.065 407.415 202.809C407.34 202.085 407.351 201.355 407.356 200.628C407.363 199.482 405.583 199.48 405.575 200.628H405.574Z" fill="#726A69"/>
<path d="M390.135 200.706C390.139 201.418 390.149 202.133 390.074 202.842C390.048 203.086 389.981 203.43 389.895 203.718C389.87 203.801 389.842 203.881 389.814 203.962C389.834 203.906 389.864 203.876 389.82 203.946C389.789 203.995 389.617 204.249 389.741 204.091C388.929 205.119 387.697 205.818 386.596 206.503C386.187 206.757 386.029 207.298 386.276 207.722C386.514 208.129 387.084 208.296 387.494 208.041C388.214 207.594 388.923 207.129 389.597 206.614C390.18 206.169 390.747 205.708 391.184 205.114C391.59 204.561 391.724 203.846 391.813 203.181C391.923 202.359 391.921 201.533 391.916 200.706C391.908 199.561 390.128 199.558 390.135 200.706Z" fill="#726A69"/>
<path d="M374.81 251.72C373.257 253.702 371.166 256.33 369.241 257.737C366.774 259.54 363.547 260.394 359.941 259.445C355.728 258.337 353.329 254.62 351.576 250.632C349.053 244.892 347.257 238.727 345.467 232.996C349.057 232.217 354.781 229.596 358.372 227.704C359.501 230.472 360.522 233.001 361.61 235.601C364.536 228.328 364.863 224.562 367.499 217.679C367.966 216.461 368.554 215.46 369.443 214.507C370.279 213.611 371.573 213.361 372.676 212.829C376.26 211.097 382.015 209.548 385.505 207.68L385.85 207.495C386.669 206.635 387.497 205.829 388.299 205.135C387.51 212.531 388.354 218.507 388.772 225.735C388.975 229.197 389.446 237.135 389.446 245.216C389.446 253.854 388.602 260.176 387.725 265.594C387.568 266.347 387.372 267.184 387.123 268.054L386.678 269.786C380.954 269.787 373.962 269.787 373.962 269.787C374.93 262.622 376.064 252.879 376.064 251.335C376.064 250.949 376.055 250.56 376.039 250.168C375.69 250.595 375.274 251.129 374.81 251.721V251.72Z" fill="white"/>
<path d="M424.184 212.323C420.479 210.845 415.372 209.291 412.464 207.734C412.464 207.734 412.443 207.723 412.404 207.7C411.2 206.534 409.915 205.441 408.55 204.475C409.419 211.536 409.378 218.636 408.974 225.734C408.771 229.196 408.3 237.134 408.3 245.215C408.3 253.853 409.144 260.175 410.014 265.593C410.165 266.313 410.348 267.105 410.584 267.929L411.031 269.593C416.445 269.593 423.793 269.593 423.793 269.593C422.844 262.486 421.682 252.859 421.682 251.334L436.839 234.789C434.352 228.295 433.915 224.569 431.428 218.075C430.96 216.854 430.371 215.851 429.479 214.895C428.641 213.997 427.344 213.746 426.238 213.213C425.631 212.92 424.937 212.623 424.184 212.323Z" fill="white"/>
<path d="M388.636 215.045C391.356 215.766 394.175 216.234 396.983 216.417C399.67 216.592 402.398 216.371 405.048 215.912C406.529 215.656 408.001 215.304 409.403 214.755C409.85 214.58 410.162 214.158 410.025 213.66C409.908 213.233 409.38 212.862 408.93 213.038C406.518 213.984 403.895 214.396 401.323 214.591C398.751 214.787 396.173 214.659 393.614 214.261C392.098 214.025 390.592 213.722 389.11 213.329C388.001 213.034 387.528 214.752 388.636 215.046L388.636 215.045Z" fill="#64C7FF"/>
<path d="M385.056 206.911C382.936 208.036 380.644 208.816 378.392 209.626C377.191 210.058 375.99 210.487 374.802 210.954C373.716 211.381 372.672 211.908 371.587 212.331C370.353 212.811 369.268 213.292 368.41 214.338C367.515 215.429 366.941 216.638 366.448 217.952C365.518 220.432 364.749 222.962 364.02 225.507C363.189 228.409 362.321 231.292 361.244 234.114C361.072 234.563 361.434 235.09 361.865 235.209C362.367 235.346 362.788 235.038 362.961 234.587C364.797 229.774 365.926 224.746 367.632 219.892C368.069 218.648 368.482 217.373 369.198 216.256C369.518 215.758 369.903 215.211 370.38 214.85C370.797 214.533 371.308 214.338 371.793 214.151C372.84 213.746 373.845 213.244 374.887 212.826C376.036 212.363 377.202 211.942 378.368 211.522C380.928 210.6 383.545 209.727 385.954 208.448C386.967 207.911 386.069 206.373 385.056 206.911Z" fill="#726A69"/>
<path d="M365.48 242.283C363.272 237.397 361.255 232.432 359.232 227.467C359.011 226.925 358.479 226.643 357.924 226.935C355.838 228.032 353.708 229.048 351.539 229.97C349.5 230.837 347.4 231.659 345.231 232.138C344.772 232.239 344.471 232.791 344.609 233.233C345.752 236.895 346.853 240.572 348.119 244.195C348.773 246.066 349.47 247.921 350.236 249.748C350.868 251.256 351.53 252.754 352.365 254.162C353.937 256.814 356.128 259.128 359.112 260.127C362.359 261.214 366.026 260.804 368.94 259.011C371.954 257.157 374.073 254.073 376.23 251.345C376.528 250.968 376.598 250.453 376.23 250.085C375.92 249.776 375.271 249.706 374.971 250.085C373.133 252.41 371.352 254.938 369.016 256.798C366.622 258.703 363.473 259.365 360.505 258.669C357.725 258.017 355.674 256.093 354.186 253.729C352.408 250.903 351.245 247.675 350.127 244.547C348.738 240.658 347.556 236.701 346.326 232.76L345.704 233.855C347.977 233.354 350.164 232.472 352.301 231.566C354.516 230.627 356.693 229.593 358.823 228.473L357.514 227.941C359.596 233.048 361.671 238.156 363.942 243.183C364.14 243.621 364.776 243.727 365.16 243.502C365.611 243.238 365.679 242.724 365.48 242.284V242.283Z" fill="#726A69"/>
<path d="M353.428 212.158C353.16 210.817 352.759 209.493 352.39 208.178C351.862 206.298 351.313 204.42 350.683 202.572C350.197 201.15 349.716 199.376 348.168 198.765C346.895 198.263 345.212 198.966 344.864 200.33C344.625 201.263 344.885 202.261 345.096 203.176C345.687 205.735 346.343 208.283 347.038 210.815C347.341 211.919 349.06 211.45 348.755 210.342C348.164 208.189 347.614 206.025 347.088 203.856C346.913 203.137 346.718 202.415 346.601 201.685C346.546 201.337 346.488 200.854 346.647 200.634C346.798 200.427 347.34 200.326 347.587 200.441C347.723 200.504 347.845 200.635 347.974 200.776C348.018 200.824 348.177 201.035 348.068 200.877C348.092 200.912 348.118 200.946 348.139 200.984C348.236 201.162 348.325 201.342 348.407 201.528C348.469 201.667 348.34 201.354 348.423 201.567C348.447 201.629 348.473 201.689 348.497 201.751C348.559 201.909 348.618 202.067 348.677 202.227C348.802 202.568 348.922 202.912 349.038 203.257C349.616 204.974 350.127 206.715 350.619 208.458C351.008 209.838 351.431 211.226 351.711 212.632C351.805 213.104 352.367 213.375 352.806 213.254C353.298 213.119 353.523 212.632 353.428 212.159L353.428 212.158Z" fill="#726A69"/>
<path d="M339.523 219.602C340.2 221.683 341.111 223.755 342.431 225.511C343.203 226.538 344.134 227.427 344.945 228.421C345.736 229.39 345.977 230.489 346.321 231.663C346.643 232.761 348.362 232.294 348.039 231.19C347.695 230.02 347.444 228.805 346.705 227.805C345.913 226.732 344.947 225.813 344.105 224.783C342.771 223.152 341.888 221.118 341.24 219.129C340.887 218.044 339.167 218.508 339.523 219.602Z" fill="#726A69"/>
<path d="M353.62 218.796C353.532 218.194 353.356 217.594 353.194 217.008C353.042 216.458 352.732 215.979 352.246 215.667C351.749 215.348 351.175 215.284 350.605 215.203C350.464 215.183 350.321 215.135 350.176 215.127C350.037 215.118 350.083 215.091 350.156 215.139C350.315 215.242 350.062 214.989 350.031 214.908C349.972 214.753 349.972 214.643 350.015 214.489C350.028 214.441 350.235 214.026 350.141 214.116C350.417 213.849 351.221 213.855 351.593 213.825C352.111 213.781 352.63 213.747 353.15 213.742C353.782 213.735 354.229 213.758 354.737 213.874C355.157 213.97 355.602 214.115 355.897 214.447C356.207 214.797 356.413 215.271 356.565 215.708C356.853 216.531 357.072 217.456 357.052 218.333C357.017 219.806 356.302 221.058 355.839 222.446C355.727 222.782 355.616 223.12 355.519 223.461C355.49 223.56 355.461 223.659 355.441 223.76C355.422 223.855 355.414 223.953 355.401 224.049C355.438 223.77 355.376 224.23 355.368 224.311C355.255 225.57 355.548 226.879 355.81 228.103C356.051 229.223 357.768 228.749 357.528 227.629C357.27 226.429 357.107 225.291 357.18 224.066C357.172 224.202 357.125 224.292 357.188 224.108C357.231 223.981 357.26 223.849 357.299 223.721C357.421 223.32 357.554 222.921 357.69 222.524C357.807 222.183 357.927 221.843 358.056 221.506C358.084 221.431 358.114 221.357 358.143 221.282C358.23 221.059 358.065 221.44 358.153 221.256C358.251 221.05 358.352 220.845 358.432 220.631C358.763 219.748 358.911 218.674 358.804 217.736C358.67 216.562 358.427 215.412 357.914 214.341C357.349 213.159 356.414 212.418 355.135 212.14C353.921 211.876 352.657 211.945 351.43 212.058C350.83 212.113 350.205 212.17 349.64 212.391C349 212.643 348.652 213.104 348.401 213.734C347.901 214.986 348.483 216.625 349.901 216.886C350.294 216.958 351.091 216.91 351.374 217.233C351.554 217.437 351.568 217.859 351.637 218.113C351.742 218.496 351.845 218.875 351.903 219.269C351.973 219.745 352.576 220.007 352.998 219.891C353.509 219.75 353.69 219.273 353.62 218.796Z" fill="#726A69"/>
<path d="M343.682 219.472C343.724 219.619 343.691 219.281 343.687 219.486C343.683 219.698 343.734 219.371 343.684 219.52C343.664 219.578 343.561 219.805 343.664 219.615C343.62 219.696 343.583 219.778 343.534 219.855C343.509 219.894 343.48 219.931 343.457 219.97C343.463 219.96 343.56 219.857 343.491 219.926C343.436 219.981 343.389 220.043 343.333 220.098C343.327 220.103 343.255 220.182 343.237 220.184C343.239 220.184 343.417 220.071 343.27 220.156C343.245 220.17 343.219 220.185 343.196 220.201C343.031 220.309 343.236 220.183 343.236 220.189C343.236 220.194 342.95 220.266 343.089 220.234C343.21 220.205 343.064 220.235 343.03 220.236C342.993 220.239 342.957 220.24 342.92 220.24C342.874 220.24 342.572 220.214 342.781 220.245C342.68 220.23 342.58 220.208 342.482 220.181C342.433 220.167 342.385 220.151 342.336 220.136C342.322 220.132 342.204 220.086 342.302 220.126C342.39 220.162 342.178 220.06 342.144 220.039C342.102 220.014 342.063 219.988 342.024 219.96C342.052 219.979 342.158 220.08 342.045 219.971C341.976 219.904 341.906 219.838 341.84 219.767C341.779 219.7 341.724 219.629 341.664 219.561C341.574 219.458 341.736 219.665 341.656 219.551C341.633 219.518 341.607 219.485 341.584 219.452C341.457 219.276 341.338 219.095 341.222 218.912C341.011 218.58 340.803 218.246 340.636 217.89C340.624 217.867 340.576 217.733 340.625 217.865C340.61 217.825 340.595 217.785 340.581 217.744C340.548 217.65 340.518 217.555 340.493 217.459C340.479 217.404 340.469 217.348 340.455 217.294C340.446 217.262 340.43 217.12 340.448 217.284C340.436 217.176 340.442 217.067 340.435 216.959C340.433 216.923 340.453 216.782 340.426 216.957C340.432 216.918 340.44 216.879 340.449 216.84C340.459 216.801 340.478 216.76 340.483 216.721C340.494 216.629 340.464 216.806 340.446 216.804C340.445 216.804 340.494 216.719 340.499 216.707C340.556 216.586 340.511 216.775 340.457 216.75C340.46 216.751 340.605 216.597 340.615 216.586C340.713 216.488 340.576 216.635 340.572 216.618C340.57 216.611 340.661 216.559 340.67 216.554C340.705 216.533 340.741 216.517 340.775 216.496C340.909 216.414 340.657 216.52 340.755 216.501C340.834 216.485 340.911 216.448 340.989 216.43C341.03 216.42 341.071 216.415 341.11 216.405C341.214 216.376 340.895 216.411 341.089 216.411C341.172 216.411 341.255 216.412 341.338 216.412C341.483 216.414 341.284 216.406 341.287 216.403C341.296 216.394 341.395 216.425 341.409 216.429C341.449 216.439 341.488 216.454 341.529 216.464C341.679 216.5 341.448 216.398 341.518 216.457C341.564 216.495 341.813 216.649 341.632 216.506C341.997 216.793 342.539 216.889 342.891 216.506C343.185 216.185 343.282 215.554 342.891 215.247C342.002 214.548 340.824 214.431 339.823 214.987C338.744 215.586 338.483 216.8 338.776 217.932C338.922 218.499 339.199 219.023 339.503 219.519C339.799 220.003 340.112 220.479 340.48 220.912C341.231 221.793 342.447 222.207 343.581 221.942C344.754 221.668 345.733 220.179 345.4 218.999C345.273 218.551 344.764 218.228 344.304 218.377C343.848 218.525 343.547 218.992 343.683 219.472L343.682 219.472Z" fill="#726A69"/>
<path d="M345.781 212.546C344.766 211.432 342.963 211.689 341.936 212.629C341.403 213.117 340.968 213.853 340.966 214.593C340.963 215.307 341.408 215.972 341.759 216.568C342.317 217.518 342.984 218.43 343.62 219.331C343.905 219.735 344.197 220.167 344.577 220.49C345.099 220.935 345.856 221.138 346.536 221.109C348.317 221.033 349.31 219.293 348.86 217.651C348.558 216.547 346.84 217.016 347.143 218.125C347.171 218.227 347.197 218.325 347.204 218.411C347.209 218.465 347.207 218.519 347.207 218.573C347.207 218.584 347.184 218.747 347.204 218.639C347.159 218.888 347.145 218.903 347.005 219.093C347.088 218.981 346.927 219.161 346.899 219.191C346.832 219.263 346.916 219.187 346.931 219.175C346.902 219.197 346.871 219.218 346.84 219.237C346.708 219.32 346.642 219.331 346.435 219.33C346.229 219.329 346.155 219.314 345.926 219.24C345.897 219.231 345.858 219.187 345.753 219.16C345.74 219.157 345.633 219.09 345.766 219.175C345.889 219.255 345.754 219.161 345.73 219.137C345.624 219.027 345.524 218.914 345.426 218.797C345.362 218.722 345.431 218.806 345.44 218.818C345.405 218.774 345.372 218.728 345.338 218.682C345.277 218.6 345.217 218.516 345.157 218.432C344.713 217.802 344.279 217.163 343.842 216.529C343.527 216.072 343.241 215.594 342.98 215.105C342.92 214.993 342.866 214.877 342.804 214.765C342.739 214.647 342.77 214.744 342.744 214.624C342.765 214.721 342.745 214.595 342.744 214.599C342.766 214.483 342.811 214.385 342.828 214.353C342.94 214.143 343.039 214.02 343.234 213.853C343.358 213.747 343.504 213.678 343.676 213.632C343.842 213.588 344.025 213.572 344.17 213.599C344.076 213.581 344.259 213.625 344.278 213.631C344.423 213.679 344.176 213.591 344.317 213.642C344.466 213.696 344.394 213.664 344.522 213.805C344.846 214.161 345.452 214.134 345.781 213.805C346.135 213.451 346.106 212.903 345.781 212.546L345.781 212.546Z" fill="#726A69"/>
<path d="M349.826 216.305C349.839 216.559 349.846 216.712 349.745 216.943C349.793 216.833 349.617 217.134 349.673 217.058C349.691 217.034 349.48 217.245 349.516 217.218C349.412 217.297 349.355 217.313 349.201 217.362C349.048 217.41 349.14 217.382 349.19 217.376C349.147 217.381 349.1 217.386 349.057 217.383C349.007 217.38 348.981 217.376 348.925 217.349C348.584 217.186 348.356 216.816 348.145 216.47C347.797 215.899 347.439 215.334 347.078 214.771C346.478 213.837 345.84 212.901 345.581 211.849C345.577 211.835 345.545 211.678 345.571 211.8C345.598 211.929 345.615 211.698 345.573 211.809C345.525 211.94 345.657 211.567 345.584 211.74C345.652 211.579 345.711 211.502 345.862 211.389C346.211 211.126 346.602 211.11 346.97 211.281C347.391 211.476 347.695 211.956 347.964 212.31C348.296 212.744 348.618 213.188 348.907 213.652C349.512 214.622 351.053 213.729 350.444 212.753C350.085 212.177 349.675 211.631 349.26 211.095C348.835 210.548 348.41 209.994 347.766 209.694C346.295 209.008 344.277 209.647 343.859 211.336C343.683 212.047 343.961 212.767 344.244 213.409C344.559 214.122 344.975 214.785 345.393 215.441C345.831 216.128 346.257 216.823 346.694 217.511C347.106 218.158 347.639 218.772 348.376 219.044C349.165 219.334 350.056 219.065 350.686 218.549C351.351 218.005 351.649 217.15 351.607 216.306C351.582 215.826 351.215 215.416 350.716 215.416C350.253 215.416 349.801 215.823 349.826 216.306L349.826 216.305Z" fill="#726A69"/>
<path d="M412.785 208.892C417.016 210.906 421.605 212.036 425.852 214.011C426.905 214.502 428.148 214.747 428.955 215.638C429.838 216.612 430.371 217.772 430.825 218.992C431.739 221.446 432.496 223.949 433.216 226.465C434.042 229.352 434.909 232.219 435.981 235.025C436.152 235.474 436.58 235.783 437.076 235.647C437.506 235.529 437.87 235.003 437.698 234.552C435.774 229.516 434.618 224.243 432.784 219.179C432.308 217.863 431.834 216.531 431.016 215.383C430.632 214.844 430.213 214.303 429.691 213.892C429.139 213.457 428.514 213.181 427.864 212.923C426.824 212.512 425.817 212.032 424.781 211.609C423.644 211.145 422.49 210.723 421.335 210.306C418.768 209.38 416.151 208.529 413.683 207.354C413.249 207.147 412.722 207.234 412.465 207.673C412.238 208.061 412.348 208.684 412.784 208.892H412.785Z" fill="#726A69"/>
<path d="M369.795 214.256C370.509 221.815 371.511 229.372 372.847 236.846C373.139 238.484 373.453 240.12 373.817 241.744C374.304 243.92 374.789 246.09 375.014 248.312C375.155 249.703 375.22 251.093 375.107 252.486C374.999 253.82 374.854 255.151 374.708 256.481C374.229 260.843 373.691 265.2 373.104 269.549C373.04 270.025 373.218 270.505 373.725 270.645C374.14 270.758 374.756 270.502 374.821 270.023C375.361 266.017 375.863 262.006 376.319 257.991C376.616 255.377 377.045 252.714 376.926 250.078C376.739 245.973 375.628 242.028 374.866 238.013C374.139 234.186 373.551 230.332 373.018 226.473C372.457 222.411 371.961 218.338 371.576 214.256C371.53 213.778 371.199 213.366 370.685 213.366C370.239 213.366 369.749 213.775 369.795 214.256V214.256Z" fill="#726A69"/>
<path d="M388.968 260.885C394.445 260.883 399.924 260.709 405.401 260.631C406.628 260.614 407.855 260.595 409.083 260.595C410.229 260.594 410.231 258.814 409.083 258.814C403.473 258.816 397.862 258.984 392.252 259.068C391.157 259.085 390.063 259.104 388.968 259.105C387.822 259.105 387.82 260.886 388.968 260.885Z" fill="#64C7FF"/>
<path d="M387.336 205.865C386.923 210.363 387.111 214.861 387.437 219.357C387.701 223.004 387.951 226.65 388.136 230.302C388.572 238.891 388.858 247.535 388.072 256.112C387.895 258.042 387.669 259.967 387.397 261.886C387.114 263.887 386.815 265.869 386.265 267.817C385.953 268.922 387.671 269.393 387.982 268.29C388.482 266.522 388.77 264.732 389.035 262.916C389.289 261.17 389.515 259.419 389.7 257.663C390.139 253.498 390.339 249.311 390.338 245.123C390.335 237.097 389.938 229.063 389.344 221.06C388.967 215.996 388.652 210.936 389.117 205.865C389.161 205.386 388.677 204.975 388.227 204.975C387.709 204.975 387.381 205.385 387.337 205.865H387.336Z" fill="#726A69"/>
<path d="M385.792 240.073C384.726 236.929 383.739 233.759 382.737 230.593C382.239 229.018 381.738 227.444 381.222 225.874C381.025 225.275 380.824 224.675 380.681 224.059C380.618 223.789 380.577 223.532 380.568 223.255C380.564 223.118 380.559 223.296 380.554 223.317C380.564 223.271 380.574 223.223 380.59 223.179C380.647 223.014 380.61 223.1 380.664 222.991C381.297 221.696 382.325 220.553 383.318 219.524C383.644 219.186 383.673 218.6 383.318 218.265C382.669 217.654 382.054 217.009 381.482 216.325C381.215 216.005 380.979 215.662 380.716 215.34C380.63 215.234 380.667 215.143 380.639 215.261C380.665 215.154 380.811 215.009 380.877 214.917C381.625 213.859 382.419 212.833 383.236 211.828C385.116 209.514 387.122 207.238 389.432 205.341C389.805 205.036 389.749 204.398 389.432 204.082C389.064 203.714 388.546 203.776 388.173 204.082C386.2 205.702 384.46 207.606 382.817 209.553C381.998 210.524 381.206 211.518 380.437 212.529C380.119 212.947 379.806 213.368 379.5 213.794C379.1 214.35 378.716 214.933 378.905 215.656C379.1 216.401 379.793 217.073 380.277 217.648C380.833 218.309 381.43 218.932 382.059 219.525V218.265C381.06 219.301 380.088 220.433 379.354 221.675C379.08 222.138 378.814 222.656 378.788 223.204C378.755 223.914 378.981 224.666 379.183 225.34C380.15 228.567 381.237 231.765 382.258 234.977C382.849 236.838 383.448 238.697 384.075 240.547C384.441 241.626 386.162 241.163 385.792 240.073L385.792 240.073Z" fill="#726A69"/>
<path d="M424.683 269.593C424.158 265.659 423.66 261.721 423.202 257.778C422.901 255.18 422.476 252.542 422.608 249.92C422.813 245.888 423.941 242.003 424.678 238.054C425.389 234.25 425.968 230.422 426.494 226.588C427.056 222.488 427.561 218.378 427.951 214.257C427.996 213.778 427.509 213.367 427.061 213.367C426.541 213.367 426.216 213.776 426.17 214.257C425.466 221.701 424.48 229.142 423.159 236.502C422.456 240.416 421.37 244.271 420.959 248.231C420.815 249.626 420.739 251.025 420.856 252.424C420.968 253.771 421.119 255.115 421.271 256.458C421.765 260.842 422.319 265.22 422.902 269.593C422.966 270.07 423.266 270.483 423.793 270.483C424.224 270.483 424.747 270.073 424.683 269.593Z" fill="#726A69"/>
<path d="M410.844 206.99C412.571 208.626 414.116 210.402 415.515 212.325C415.874 212.817 416.226 213.314 416.578 213.811C416.778 214.095 416.978 214.378 417.178 214.661C417.28 214.805 417.373 214.994 417.498 215.117C417.528 215.146 417.622 215.372 417.614 215.183C417.622 215.357 417.274 215.676 417.174 215.806C416.935 216.113 416.684 216.413 416.428 216.706C415.95 217.251 415.445 217.769 414.918 218.266C414.564 218.599 414.59 219.188 414.918 219.525C415.689 220.319 416.502 221.103 417.165 221.992C417.404 222.312 417.609 222.625 417.68 222.896C417.69 222.934 417.714 222.777 417.668 222.948C417.662 222.973 417.664 222.996 417.644 223.112C417.601 223.353 417.555 223.593 417.502 223.833C416.982 226.218 416.078 228.526 415.354 230.855C415.014 231.952 416.732 232.421 417.072 231.328C417.524 229.871 417.982 228.415 418.465 226.967C418.811 225.931 419.119 224.889 419.32 223.813C419.408 223.343 419.517 222.858 419.388 222.385C419.259 221.913 418.989 221.483 418.702 221.093C417.951 220.074 417.057 219.172 416.177 218.266V219.525C416.785 218.952 417.363 218.349 417.904 217.712C418.384 217.147 419.04 216.499 419.286 215.785C419.565 214.973 419.117 214.332 418.667 213.695C418.24 213.09 417.815 212.485 417.383 211.884C415.795 209.673 414.081 207.605 412.103 205.731C411.271 204.943 410.01 206.2 410.844 206.99H410.844Z" fill="#726A69"/>
<path d="M411.442 267.693C410.949 265.946 410.675 264.174 410.416 262.382C410.176 260.721 409.969 259.055 409.797 257.386C409.369 253.219 409.182 249.033 409.19 244.845C409.198 240.414 409.337 235.983 409.548 231.557C409.718 227.991 409.972 224.428 410.077 220.859C410.235 215.498 410.108 210.124 409.478 204.794C409.422 204.316 409.11 203.903 408.588 203.903C408.151 203.903 407.641 204.313 407.698 204.794C408.262 209.575 408.425 214.392 408.336 219.204C408.268 222.953 408.011 226.692 407.822 230.437C407.389 239.029 407.11 247.676 407.906 256.255C408.091 258.254 408.332 260.247 408.611 262.235C408.891 264.233 409.175 266.22 409.724 268.165C410.035 269.266 411.753 268.799 411.441 267.692L411.442 267.693Z" fill="#726A69"/>
<path d="M395.355 192.464C396.432 193.033 397.593 193.272 398.812 193.264C400.053 193.256 401.305 193.011 402.298 192.237C402.678 191.941 402.609 191.288 402.298 190.978C401.924 190.603 401.42 190.681 401.039 190.978C401.309 190.768 401.098 190.93 401.028 190.974C400.959 191.018 400.887 191.06 400.814 191.098C400.753 191.13 400.49 191.234 400.734 191.144C400.635 191.181 400.539 191.219 400.438 191.251C400.169 191.338 399.892 191.399 399.612 191.44C399.743 191.421 399.583 191.442 399.531 191.447C399.45 191.455 399.369 191.462 399.288 191.467C399.092 191.48 398.897 191.484 398.701 191.483C398.525 191.482 398.35 191.476 398.175 191.464C398.095 191.459 398.014 191.452 397.934 191.444C397.927 191.444 397.638 191.403 397.816 191.431C397.555 191.39 397.297 191.336 397.044 191.26C396.935 191.228 396.83 191.189 396.723 191.152C396.495 191.074 396.852 191.219 396.646 191.122C396.513 191.06 396.383 190.994 396.254 190.926C395.829 190.702 395.286 190.818 395.035 191.245C394.8 191.648 394.928 192.238 395.355 192.464L395.355 192.464Z" fill="#726A69"/>
<path d="M398.363 184.314C398.514 184.889 398.658 185.474 398.745 186.063L398.713 185.826C398.724 185.907 398.728 185.986 398.72 186.068L398.752 185.831C398.746 185.868 398.738 185.904 398.725 185.94L398.815 185.727C398.804 185.752 398.792 185.774 398.777 185.797L398.916 185.616C398.898 185.638 398.881 185.655 398.859 185.673L399.039 185.534C398.995 185.562 398.948 185.585 398.901 185.607L399.113 185.517C399.037 185.549 398.962 185.573 398.88 185.586L399.117 185.554C399.043 185.563 398.971 185.562 398.897 185.553L399.134 185.585C399.051 185.574 398.97 185.554 398.888 185.543C398.769 185.506 398.651 185.5 398.533 185.527C398.414 185.532 398.304 185.567 398.202 185.632C398.017 185.74 397.841 185.952 397.793 186.164C397.741 186.392 397.752 186.648 397.882 186.85C397.998 187.03 398.192 187.229 398.414 187.26C398.602 187.285 398.784 187.333 398.975 187.341C399.267 187.353 399.538 187.264 399.8 187.145C400.122 186.997 400.374 186.708 400.459 186.361C400.532 186.067 400.5 185.81 400.451 185.515C400.355 184.952 400.225 184.393 400.08 183.841C399.962 183.39 399.439 183.072 398.985 183.219C398.522 183.369 398.237 183.831 398.364 184.314L398.363 184.314Z" fill="#726A69"/>
<path d="M389.108 179.362C388.816 180.312 389.007 182.495 390.805 182.681C393.182 182.667 393.308 180.027 392.508 178.785C391.853 177.769 389.927 177.346 389.108 179.362Z" fill="#726A69"/>
<path d="M408.141 179.363C408.434 180.312 408.243 182.495 406.445 182.681C404.068 182.666 403.942 180.027 404.742 178.785C405.397 177.769 407.323 177.347 408.141 179.363Z" fill="#726A69"/>
<path d="M403.076 242.191C402.632 242.618 402.218 243.063 401.884 243.503C402.084 243.77 403.523 245.091 403.93 245.394L404.13 245.543C405.29 243.896 406.818 242.908 408.633 242.183C411.337 241.102 414.221 240.566 417.106 240.662C419.97 240.756 423.13 241.656 425.265 243.692C427.01 241.691 430.266 240.138 432.781 239.51C435.262 238.89 437.846 238.869 440.385 239.106C442.042 239.26 443.545 239.735 444.773 240.358C444.81 240.322 444.83 240.301 444.83 240.301C445.275 239.879 446.165 238.989 446.921 238.188C444.185 236.12 442.651 235.811 439.426 235.497C436.971 235.258 434.181 235.178 431.782 235.777C429.381 236.377 426.304 237.378 424.598 239.275C422.679 237.922 419.992 237.154 417.106 237.059C414.22 236.964 411.336 237.5 408.633 238.58C407.443 239.056 406.172 239.66 405.153 240.435C404.503 240.928 403.754 241.539 403.076 242.191L403.076 242.191Z" fill="white"/>
<path d="M437.817 250.736C439.671 249.086 445.527 243.586 447.099 242.013C445.809 240.679 443.344 239.381 440.384 239.106C437.845 238.869 435.262 238.89 432.781 239.51C430.266 240.138 427.01 241.691 425.265 243.692C423.13 241.655 419.97 240.756 417.106 240.661C414.22 240.566 411.337 241.102 408.633 242.182C406.446 243.057 404.676 244.312 403.463 246.639C405.14 248.106 411.36 252.887 413.106 254.272L437.817 250.736V250.736Z" fill="#64C7FF"/>
<path d="M429.665 247.281C429.563 247.199 429.461 247.118 429.358 247.039C428.043 246.023 427.089 245.863 425.737 246.619C425.737 246.619 425.385 246.924 425.011 247.249C424.458 246.662 423.989 246.176 423.789 246.002C423.163 245.46 422.283 245.27 421.622 245.515C420.767 245.833 420.41 246.3 420.41 247.016C420.41 247.016 420.375 247.275 420.329 247.624C419.875 247.145 419.468 246.732 419.156 246.453C418.893 246.217 417.608 245.584 416.754 246.226C416 246.792 415.883 247.551 416.32 248.216C416.37 248.292 416.404 248.375 416.445 248.455L416.254 248.355C414.779 247.584 413.648 248.783 413.502 249.346C413.392 249.771 413.392 250.535 413.722 251.173C414.276 252.244 416.695 254.929 418.001 256.309C420.993 258.425 425.768 256.951 429.592 256.062C429.994 255.968 430.722 255.693 431.107 255.41C432.538 254.417 433.274 253.197 434.443 251.906C434.846 251.461 435.481 250.85 435.755 250.316C436.135 249.572 436.449 248.764 436.237 247.957C436.128 247.543 435.925 247.131 435.568 246.896C435 246.521 434.238 246.7 433.607 246.957C432.666 247.342 431.785 247.874 431.009 248.529C430.597 248.078 430.142 247.667 429.665 247.281Z" fill="white"/>
<path d="M430.657 254.641C429.843 255.201 428.806 255.333 427.866 255.56C426.758 255.827 425.647 256.089 424.523 256.277C422.6 256.6 420.416 256.753 418.683 255.698C417.702 255.1 416.806 256.64 417.784 257.236C419.861 258.5 422.381 258.402 424.697 258.043C425.899 257.856 427.085 257.579 428.266 257.295C429.379 257.026 430.592 256.841 431.556 256.179C431.951 255.907 432.13 255.397 431.875 254.961C431.646 254.569 431.056 254.368 430.657 254.641Z" fill="#726A69"/>
<path d="M432.338 248.757C431.484 247.621 430.391 246.555 429.163 245.825C428.596 245.489 427.953 245.259 427.288 245.256C426.576 245.254 425.903 245.513 425.288 245.85C424.866 246.08 424.73 246.661 424.968 247.068C425.217 247.493 425.763 247.619 426.186 247.387C426.289 247.331 426.481 247.231 426.526 247.211C426.476 247.234 426.618 247.176 426.634 247.171C426.69 247.151 426.745 247.132 426.802 247.115C426.921 247.08 427.044 247.049 427.168 247.032C426.992 247.056 427.269 247.036 427.327 247.037C427.351 247.037 427.565 247.052 427.443 247.04C427.336 247.029 427.5 247.052 427.52 247.056C427.627 247.079 427.731 247.109 427.834 247.145C427.883 247.162 428.009 247.22 427.899 247.168C427.953 247.194 428.006 247.22 428.06 247.248C428.188 247.315 428.311 247.388 428.432 247.467C428.88 247.756 429.278 248.094 429.692 248.472C430.082 248.828 430.536 249.303 430.801 249.656C431.09 250.039 431.57 250.238 432.02 249.975C432.398 249.754 432.63 249.143 432.339 248.757L432.338 248.757Z" fill="#726A69"/>
<path d="M428.476 249.63C427.56 248.769 426.74 247.791 425.881 246.875C425.454 246.421 425.031 245.96 424.583 245.526C423.82 244.789 422.793 244.394 421.732 244.571C420.491 244.777 419.547 245.751 419.519 247.016C419.493 248.162 421.274 248.162 421.3 247.016C421.3 246.956 421.302 246.895 421.308 246.835C421.295 246.929 421.299 246.924 421.32 246.82C421.354 246.721 421.352 246.716 421.314 246.805C421.337 246.756 421.363 246.71 421.392 246.665C421.305 246.801 421.494 246.566 421.534 246.535C421.445 246.604 421.727 246.433 421.762 246.416C422.138 246.241 422.466 246.259 422.855 246.444C423.4 246.704 423.829 247.295 424.235 247.723C425.227 248.772 426.165 249.899 427.217 250.889C428.051 251.674 429.313 250.417 428.476 249.63Z" fill="#726A69"/>
<path d="M404.379 244.625C404.606 244.798 404.342 244.59 404.302 244.556C404.207 244.477 404.114 244.396 404.021 244.314C403.818 244.135 403.617 243.953 403.418 243.769C403.111 243.484 402.775 243.203 402.513 242.874V244.133C404.414 241.68 407.104 239.998 410.015 239.017C413.095 237.98 416.489 237.597 419.694 238.239C421.285 238.558 422.81 239.115 424.149 240.044C424.459 240.259 424.977 240.178 425.228 239.905C426.183 238.864 427.456 238.167 428.758 237.652C430.127 237.111 431.582 236.671 433.034 236.425C434.714 236.141 436.452 236.169 438.147 236.282C439.584 236.378 441.056 236.49 442.455 236.849C443.955 237.233 445.243 238.035 446.471 238.957L446.291 237.559C445.61 238.278 444.917 238.988 444.2 239.672C443.37 240.465 444.63 241.723 445.46 240.931C446.176 240.247 446.869 239.537 447.55 238.818C447.98 238.365 447.831 237.766 447.37 237.42C446.148 236.502 444.845 235.706 443.374 235.257C441.924 234.814 440.375 234.685 438.871 234.557C437.039 234.401 435.186 234.356 433.359 234.592C431.717 234.804 430.098 235.249 428.55 235.833C426.87 236.467 425.199 237.305 423.969 238.646L425.047 238.507C422.325 236.618 418.802 236.033 415.548 236.179C412.063 236.335 408.379 237.308 405.409 239.18C403.875 240.147 402.365 241.44 401.253 242.875C400.932 243.29 400.92 243.716 401.253 244.134C401.861 244.897 402.706 245.575 403.479 246.164C403.863 246.455 404.476 246.224 404.698 245.844C404.965 245.387 404.762 244.918 404.378 244.626L404.379 244.625Z" fill="#726A69"/>
<path d="M415.264 254.261C412.225 251.858 408.978 249.715 405.872 247.4C405.67 247.249 405.468 247.098 405.267 246.946C405.181 246.88 405.094 246.814 405.008 246.748C404.967 246.717 404.925 246.685 404.885 246.654C404.772 246.567 405.044 246.778 404.86 246.634C404.6 246.431 404.341 246.227 404.092 246.011L404.231 247.09C404.856 245.913 405.696 244.885 406.805 244.133C408.03 243.302 409.432 242.773 410.845 242.36C413.906 241.463 417.275 241.193 420.377 242.046C421.947 242.478 423.44 243.202 424.635 244.323C424.97 244.637 425.566 244.692 425.894 244.323C427.666 242.326 430.345 241.061 432.895 240.401C434.586 239.963 436.331 239.829 438.074 239.863C439.707 239.894 441.333 240.023 442.893 240.537C444.208 240.97 445.491 241.65 446.469 242.644V241.385C443.694 244.154 440.723 246.746 437.818 249.377C437.191 249.945 436.565 250.512 435.933 251.074C435.076 251.838 436.339 253.094 437.193 252.333C440.157 249.692 443.088 247.01 445.99 244.3C446.575 243.754 447.162 243.209 447.729 242.644C448.071 242.302 448.066 241.728 447.729 241.385C445.435 239.053 442.121 238.273 438.964 238.113C435.435 237.935 431.993 238.486 428.81 240.05C427.276 240.804 425.777 241.777 424.635 243.064H425.894C423.454 240.775 420.048 239.814 416.76 239.764C414.81 239.734 412.844 239.985 410.957 240.48C409.328 240.908 407.669 241.492 406.232 242.384C404.725 243.321 403.525 244.626 402.694 246.191C402.519 246.521 402.53 247.006 402.833 247.27C404.122 248.389 405.547 249.369 406.926 250.372C408.676 251.645 410.438 252.902 412.189 254.174C412.574 254.454 412.958 254.734 413.34 255.017C413.483 255.124 413.627 255.231 413.769 255.339C413.802 255.364 414.021 255.532 413.905 255.441C413.788 255.352 413.972 255.494 414.005 255.521C414.382 255.819 414.896 255.888 415.264 255.521C415.574 255.211 415.643 254.561 415.264 254.262L415.264 254.261Z" fill="#119EED"/>
<path d="M416.702 247.586C415.675 247.084 414.539 247.093 413.611 247.801C412.874 248.361 412.507 249.129 412.548 250.059C412.59 251.001 412.982 251.76 413.53 252.496C414.091 253.249 414.696 253.969 415.314 254.676C415.98 255.439 416.663 256.188 417.358 256.925C418.147 257.759 419.404 256.499 418.617 255.666C417.974 254.985 417.343 254.293 416.724 253.589C416.112 252.893 415.446 252.12 414.964 251.457C414.79 251.217 414.594 250.964 414.471 250.692C414.367 250.461 414.327 250.193 414.326 249.942C414.326 249.917 414.338 249.637 414.324 249.757C414.328 249.727 414.402 249.44 414.35 249.588C414.3 249.732 414.404 249.503 414.422 249.473C414.533 249.288 414.306 249.586 414.466 249.415C414.543 249.333 414.621 249.251 414.71 249.183C414.595 249.272 414.816 249.126 414.828 249.119C415.058 248.982 415.421 248.936 415.803 249.123C416.235 249.334 416.766 249.24 417.021 248.804C417.251 248.412 417.136 247.798 416.702 247.585V247.586Z" fill="#726A69"/>
<path d="M424.406 250.78C423.545 249.847 422.706 248.894 421.849 247.957C421.426 247.494 421.001 247.034 420.564 246.584C420.224 246.235 419.879 245.847 419.466 245.584C418.168 244.76 416.36 244.892 415.507 246.277C414.534 247.859 415.956 249.292 416.903 250.45C417.967 251.752 419.059 253.019 420.257 254.201C421.074 255.006 422.334 253.748 421.516 252.942C420.584 252.023 419.707 251.057 418.869 250.051C418.443 249.539 418.024 249.021 417.602 248.506C417.402 248.262 417.241 248.04 417.087 247.767C417.032 247.67 416.993 247.601 416.98 247.562C416.974 247.545 416.929 247.351 416.95 247.444C416.969 247.524 416.976 247.293 416.947 247.421C417.037 247.021 417.391 246.816 417.78 246.842C417.944 246.852 417.683 246.821 417.842 246.849C417.89 246.857 417.938 246.868 417.986 246.88C418.106 246.91 418.226 246.948 418.341 246.994C418.209 246.941 418.44 247.047 418.485 247.073C418.519 247.092 418.556 247.12 418.592 247.138C418.734 247.206 418.479 247.012 418.549 247.104C418.806 247.443 419.201 247.734 419.498 248.044C419.879 248.443 420.254 248.849 420.627 249.256C421.47 250.18 422.297 251.119 423.146 252.039C423.472 252.392 424.075 252.369 424.405 252.039C424.757 251.687 424.733 251.134 424.405 250.78H424.406Z" fill="#726A69"/>
<path d="M432.079 248.816C432.574 248.469 433.093 248.162 433.641 247.907C433.997 247.741 434.554 247.463 434.958 247.585C435.276 247.681 435.389 248.12 435.413 248.41C435.457 248.941 435.189 249.52 434.93 249.967C434.692 250.377 434.338 250.713 434.016 251.056C433.646 251.451 433.298 251.865 432.954 252.284C432.257 253.133 431.561 254.001 430.657 254.641C430.266 254.919 430.08 255.418 430.338 255.86C430.565 256.247 431.162 256.458 431.556 256.179C432.763 255.324 433.637 254.22 434.581 253.1C434.994 252.609 435.45 252.158 435.867 251.67C436.373 251.079 436.739 250.432 436.988 249.692C437.459 248.292 437.055 246.317 435.442 245.875C433.992 245.477 432.318 246.479 431.18 247.278C430.787 247.554 430.603 248.057 430.861 248.496C431.088 248.885 431.683 249.093 432.079 248.816Z" fill="#726A69"/>
<path d="M13.4501 200.268C13.7986 197.946 14.3847 194.291 14.6906 191.99L56.1707 176.892C57.8839 178.458 60.6828 180.882 62.4423 182.437" fill="#ECBB7A"/>
<path d="M14.2711 200.941C14.6857 198.182 15.142 195.429 15.5116 192.663L14.9762 193.297L54.7579 178.818C55.2939 178.623 55.8706 178.466 56.3883 178.225C56.4098 178.215 56.4341 178.208 56.4566 178.2L55.6385 178.058C57.6995 179.939 59.8189 181.755 61.9102 183.602C62.7152 184.313 63.7817 183.03 62.9759 182.318C60.8847 180.471 58.7653 178.655 56.7043 176.774C56.4904 176.578 56.1521 176.535 55.8862 176.632L19.4968 189.876C17.8261 190.484 16.1213 191.037 14.4734 191.705C14.4511 191.713 14.428 191.721 14.4052 191.729C14.1393 191.826 13.908 192.077 13.8698 192.364C13.5001 195.13 13.0439 197.883 12.6293 200.643C12.4695 201.705 14.1111 202.005 14.2711 200.941Z" fill="#D0903A"/>
<path d="M49.8296 167.766L49.71 167.79C51.022 170.48 55.0263 178.69 56.9054 182.543C56.7878 181.954 56.7144 181.587 56.7144 181.587L53.87 167.315C53.8325 167.126 53.6494 167.004 53.4611 167.042L50.7756 167.577L49.8296 167.766Z" fill="white"/>
<path d="M8.66144 184.403C8.75975 184.355 27.4769 175.226 48.3681 165.037C60.1741 189.243 71.4735 212.41 71.7609 213C57.608 219.903 46.2069 225.463 32.0543 232.366C31.9583 232.169 8.66658 184.414 8.66144 184.403Z" fill="white"/>
<path d="M9.258 185.036C12.2581 183.572 15.2583 182.109 18.2582 180.646C24.2334 177.732 30.2085 174.817 36.1838 171.903C38.1831 170.928 40.1828 169.953 42.1822 168.978C43.2009 168.481 44.2199 167.984 45.2386 167.487C45.7798 167.223 46.321 166.959 46.8623 166.695C47.1214 166.568 47.3803 166.442 47.6394 166.316C47.8156 166.23 48.1894 165.989 48.3364 165.992L47.9171 165.916C47.7717 165.866 47.6776 165.493 47.7807 165.724C47.8177 165.808 47.861 165.889 47.9011 165.971L48.3568 166.905L50.042 170.36L55.5735 181.701L62.2581 195.406C64.1708 199.328 66.0835 203.25 67.9966 207.172L69.8956 211.065L70.4895 212.283C70.5858 212.481 70.6657 212.717 70.7897 212.899C70.8162 212.938 70.8079 212.971 70.8078 212.969L70.8835 212.55C70.9387 212.389 71.2978 212.315 71.0943 212.403C71.0247 212.433 70.9574 212.47 70.8892 212.503L70.1146 212.881L67.2583 214.274C64.134 215.798 61.0096 217.322 57.8853 218.846C54.1237 220.681 50.3617 222.515 46.6002 224.35C43.3534 225.933 40.1064 227.517 36.8596 229.101L33.6485 230.667C33.17 230.9 32.5775 231.092 32.1416 231.402C32.1031 231.429 32.0845 231.413 32.087 231.413L32.5063 231.488C32.6533 231.539 32.746 231.911 32.6433 231.68C32.6063 231.596 32.5631 231.515 32.5229 231.433L32.0672 230.5L30.382 227.044C28.5382 223.264 26.6944 219.484 24.8505 215.703C22.6222 211.135 20.3943 206.566 18.1659 201.998C16.2532 198.076 14.3405 194.154 12.4275 190.233L10.5284 186.339L9.93458 185.121C9.83825 184.924 9.75836 184.688 9.63429 184.506C9.60863 184.468 9.61547 184.432 9.61536 184.436L9.53973 184.855L9.45574 184.933C10.3323 184.315 9.36886 182.952 8.4887 183.572C7.60853 184.193 8.00212 184.944 8.3468 185.651L9.42296 187.858C10.7125 190.501 12.0017 193.145 13.2913 195.789C15.0307 199.355 16.7706 202.922 18.51 206.489C20.328 210.217 22.1463 213.944 23.9643 217.672C25.4701 220.759 26.9757 223.846 28.4814 226.933L30.9475 231.989C31.0023 232.101 31.0557 232.214 31.1118 232.326C31.4194 232.938 32.0504 233.244 32.705 232.972C33.2034 232.765 33.6844 232.495 34.1691 232.258C36.6809 231.033 39.1925 229.808 41.7046 228.583C45.3179 226.821 48.9316 225.058 52.5449 223.296L63.3126 218.044L70.5135 214.532C70.9175 214.335 71.3242 214.143 71.726 213.941C72.3382 213.633 72.642 212.994 72.3638 212.341C72.3006 212.193 72.2214 212.05 72.1508 211.905C71.2713 210.101 70.3915 208.297 69.512 206.494C67.9747 203.343 66.4377 200.191 64.9004 197.039L59.4444 185.853C57.7165 182.31 55.9883 178.767 54.2606 175.224C53.0138 172.667 51.7668 170.111 50.52 167.554L49.5357 165.536C49.467 165.395 49.3996 165.254 49.3297 165.113C49.2885 165.031 49.2523 164.943 49.202 164.866C48.5102 163.816 47.3454 164.614 46.5255 165.014C39.5722 168.405 32.6191 171.796 25.6658 175.188C20.9927 177.467 16.3198 179.746 11.6466 182.025C10.6603 182.506 9.67429 182.987 8.68795 183.468C8.28299 183.666 8.02367 184.082 8.18938 184.538C8.3312 184.927 8.85111 185.235 9.25857 185.036L9.258 185.036Z" fill="#726A69"/>
<path d="M21.5571 193.771C28.4777 190.396 35.3988 187.02 42.3195 183.645C44.2965 182.68 46.2736 181.716 48.2507 180.752C48.6556 180.554 48.9149 180.138 48.7492 179.683C48.6074 179.293 48.0875 178.985 47.68 179.184C40.7597 182.559 33.8393 185.935 26.9189 189.31C24.9416 190.275 22.9638 191.239 20.9865 192.203C20.5815 192.401 20.3222 192.817 20.4879 193.273C20.6297 193.662 21.1496 193.97 21.5571 193.771Z" fill="#726A69"/>
<path d="M35.9772 178.458C30.1956 181.278 24.4138 184.098 18.6322 186.918C18.2272 187.115 17.9679 187.532 18.1336 187.987C18.2755 188.377 18.7954 188.685 19.2028 188.486C24.9845 185.666 30.7662 182.846 36.5479 180.026C36.9528 179.829 37.2121 179.412 37.0464 178.957C36.9046 178.567 36.3847 178.26 35.9772 178.458Z" fill="#726A69"/>
<path d="M57.5477 181.52C57.0989 179.269 56.6505 177.017 56.2017 174.766C55.7063 172.28 55.2239 169.791 54.7153 167.307C54.6176 166.83 54.4017 166.46 53.9282 166.279C53.5667 166.14 53.2367 166.241 52.878 166.313C52.1554 166.457 51.4333 166.601 50.7108 166.745C50.2694 166.833 49.9063 167.157 49.9459 167.643C49.979 168.051 50.3997 168.496 50.8442 168.408L52.2288 168.132L53.1406 167.95C53.2455 167.929 53.449 167.864 53.528 167.888L53.1445 167.709C53.0105 167.619 53.0191 167.227 53.0586 167.475C53.0747 167.575 53.0985 167.675 53.1185 167.774L53.3262 168.817L54.0122 172.258L55.5371 179.91C55.6528 180.491 55.7687 181.072 55.8844 181.653C55.9726 182.095 56.2971 182.458 56.7828 182.418C57.1909 182.385 57.6363 181.964 57.5477 181.52Z" fill="#726A69"/>
<path d="M62.4424 182.437C62.3212 182.481 39.2269 190.887 13.4502 200.269L34.9895 259.448C52.4519 253.092 66.5192 247.972 83.9816 241.616C83.8933 241.373 62.4472 182.451 62.4424 182.437Z" fill="#ECBB7A"/>
<path d="M62.1574 181.653C59.0128 182.798 55.8681 183.943 52.7235 185.087C44.9925 187.901 37.2615 190.715 29.5306 193.529C24.0755 195.514 18.6203 197.5 13.1652 199.485C12.7416 199.639 12.5121 200.13 12.6667 200.554L32.6685 255.509C33.1678 256.881 33.6328 258.271 34.1681 259.629C34.1817 259.663 34.1933 259.698 34.2059 259.733C34.3601 260.157 34.8505 260.386 35.2751 260.232C41.6941 257.895 48.1127 255.559 54.5316 253.223C60.7481 250.96 66.9645 248.698 73.181 246.435C76.8763 245.09 80.572 243.745 84.2673 242.4C84.6909 242.246 84.9204 241.755 84.7658 241.331C84.566 240.782 84.3661 240.232 84.1662 239.683C83.6406 238.239 83.1149 236.795 82.5892 235.35C81.8168 233.228 81.0444 231.106 80.272 228.984C79.3273 226.388 78.3826 223.793 77.4379 221.197C76.4092 218.371 75.3806 215.545 74.3518 212.718C73.3093 209.854 72.2669 206.99 71.2245 204.126C70.2575 201.469 69.2906 198.813 68.3236 196.156C67.5063 193.911 66.689 191.665 65.8717 189.42C65.2812 187.797 64.6906 186.174 64.1 184.552C63.8215 183.786 63.562 183.011 63.2633 182.253C63.2501 182.22 63.2387 182.185 63.2265 182.152C62.8593 181.143 61.2909 181.712 61.6587 182.722C61.8512 183.251 62.0438 183.78 62.2362 184.309C62.7562 185.738 63.2761 187.166 63.796 188.595C64.5642 190.705 65.3325 192.816 66.1007 194.927C67.0428 197.515 67.9849 200.103 68.9272 202.692C69.9549 205.516 70.9826 208.339 72.0103 211.163C73.0533 214.029 74.0963 216.894 75.1394 219.76C76.1085 222.423 77.0777 225.086 78.0468 227.748C78.8678 230.004 79.6888 232.26 80.5099 234.516C81.1058 236.153 81.7019 237.791 82.2978 239.428C82.5821 240.209 82.8288 241.019 83.1553 241.784C83.1714 241.822 83.1838 241.862 83.198 241.901L83.6966 240.832C77.2776 243.168 70.859 245.504 64.44 247.841C58.2236 250.103 52.0071 252.366 45.7906 254.628C42.0953 255.973 38.3997 257.319 34.7044 258.664L35.7735 259.162L14.2344 199.984L13.7358 201.053C22.9856 197.686 32.2353 194.32 41.4853 190.953C47.5052 188.762 53.525 186.571 59.5448 184.38C60.606 183.994 61.6672 183.607 62.728 183.221C63.7369 182.854 63.168 181.286 62.1574 181.653Z" fill="#D0903A"/>
<path d="M37.1624 191.638L55.8544 242.994C56.2216 244.003 57.7899 243.434 57.4221 242.423L38.7301 191.068C38.3629 190.059 36.7945 190.628 37.1624 191.638Z" fill="#D0903A"/>
<path d="M35.8101 259.597C36.0942 257.708 36.3935 255.821 36.6764 253.931C36.7451 253.473 36.8129 253.014 36.8788 252.555C36.9106 252.332 36.9422 252.11 36.9733 251.887C36.9838 251.812 37.002 251.731 37.0051 251.657C37.02 251.304 37.1159 251.881 36.7343 251.873C36.7705 251.874 36.8197 251.839 36.8541 251.829C37.6111 251.613 38.353 251.284 39.0924 251.015L77.3583 237.087C77.4723 237.046 77.6822 237.013 77.7773 236.934C77.3776 237.266 77.22 236.663 77.4299 236.943C77.4702 236.997 77.5557 237.057 77.6025 237.099C77.7534 237.236 77.9047 237.372 78.0565 237.508C78.4347 237.846 78.8144 238.183 79.1951 238.52C79.9476 239.185 80.703 239.847 81.4582 240.509C82.1224 241.091 82.7869 241.673 83.4487 242.258C84.2538 242.968 85.3202 241.685 84.5145 240.973C83.0485 239.678 81.5712 238.396 80.1066 237.099C79.7622 236.795 79.4183 236.489 79.0758 236.182C78.7124 235.856 78.3464 235.413 77.8458 235.313C77.6048 235.264 77.3668 235.318 77.1388 235.391C76.4342 235.619 75.7425 235.9 75.0468 236.153L36.4788 250.19C36.0967 250.33 35.7397 250.459 35.5242 250.855C35.3265 251.218 35.3212 251.666 35.2637 252.069C35.1893 252.591 35.1126 253.112 35.0347 253.632C34.8862 254.625 34.733 255.618 34.5801 256.611C34.4418 257.506 34.3032 258.402 34.1685 259.298C34.0087 260.36 35.6503 260.66 35.8103 259.596L35.8101 259.597Z" fill="#D0903A"/>
</g>
<defs>
<clipPath id="clip0_2414_22173">
<rect width="454" height="266" fill="white"/>
</clipPath>
</defs>
</svg>
