<svg width="370" height="240" viewBox="0 0 370 240" fill="none" xmlns="http://www.w3.org/2000/svg">
<g clip-path="url(#clip0_2421_23016)">
<path d="M276.722 186.294C276.152 183.951 274.112 176.7 273.384 175.772C272.887 175.137 272.298 174.648 271.206 175.114C270.27 175.514 270.422 176.594 270.599 177.487C270.794 178.471 271.954 183.112 272.629 185.525C272.107 184.938 271.228 184.727 270.527 185.046C269.785 185.385 269.498 186.018 269.581 186.476L269.741 187.351C269.257 187.039 268.537 187.074 268.004 187.359C267.363 187.702 266.716 188.621 267.032 189.285L267.456 190.174C267.39 190.119 267.324 190.065 267.324 190.065C266.509 189.395 265.095 189.808 264.865 190.701C264.688 191.386 264.986 192.195 265.368 192.822C265.413 192.897 265.462 192.977 265.513 193.06C265.561 193.207 265.587 193.29 265.587 193.29C266.105 194.892 267.112 197.34 268.621 199.084C269.321 199.893 270.13 200.695 270.765 201.563C271.586 202.684 271.61 203.964 272.194 205.358C274.873 204.502 278.161 203.033 280.764 201.732L280.636 201.143C280.394 200.027 280.128 198.577 280.286 197.632C280.276 197.446 281.107 194.967 281.352 194.506C281.708 193.839 281.866 192.507 281.798 191.891C281.687 190.874 281.423 189.421 280.667 188.361C280.515 188.151 280.329 187.98 280.115 187.841C280.091 187.822 280.063 187.807 280.038 187.794C279.846 187.676 279.635 187.583 279.409 187.512C279.322 187.484 279.232 187.459 279.139 187.438C279.093 187.425 279.046 187.416 279 187.407C278.953 187.394 278.91 187.385 278.866 187.379C278.798 187.364 278.73 187.354 278.662 187.345C278.615 187.339 278.572 187.333 278.528 187.327C278.519 187.327 278.507 187.323 278.495 187.323C277.97 187.262 277.428 187.262 276.933 187.283L276.848 186.85C276.823 186.725 276.78 186.536 276.721 186.295L276.722 186.294Z" fill="white"/>
<path d="M329.698 234.587C329.502 233.309 329.312 231.973 329.14 230.559H329.06C325.608 230.559 313.218 230.827 310.476 230.827C310.476 230.827 310.323 230.822 310.082 230.814C309.851 232.66 309.591 234.374 309.328 236C309.183 236.695 309.002 237.469 308.772 238.273L308.361 239.695C315.215 239.695 325 239.695 330.843 239.695C330.627 238.858 330.446 238.158 330.446 238.158C330.229 237.396 330.059 236.665 329.92 236C329.846 235.536 329.772 235.066 329.698 234.587Z" fill="white"/>
<path d="M313.175 230.798C311.982 230.815 311.03 230.826 310.475 230.826C310.475 230.826 310.311 230.829 310.078 230.835C310.56 226.991 310.917 222.571 310.917 217.172C310.917 209.705 310.482 202.371 310.294 199.173C310.072 195.332 309.72 191.873 309.6 188.326L310.387 188.504C312.988 189.2 316.648 189.789 319.383 189.796C322.251 189.804 326.333 189.35 329.135 188.235L329.182 188.22C329.27 191.867 329.166 195.52 328.958 199.173C328.771 202.371 328.335 209.705 328.335 217.172C328.335 222.441 328.675 226.777 329.138 230.556L329.059 230.557C326.306 230.557 317.87 230.728 313.175 230.797V230.798Z" fill="#95D9FF"/>
<path d="M335.645 184.518C340.277 186.304 344.036 182.152 344.006 178.666C343.988 176.534 343.666 174.889 343.005 172.832C342.181 170.266 340.584 165.053 340.469 155.74C340.698 153.118 340.46 149.331 340.356 147.875C339.997 142.83 337.741 137.195 334.495 134.064C333.091 132.709 330.85 130.699 327.49 129.459C325.233 128.59 323.135 128.171 319.176 128.171C312.683 128.171 306.905 131.516 304.341 133.971C300.087 138.043 297.389 145.482 297.729 155.739C297.73 163.215 297.161 168.607 296.363 171.67C295.817 173.767 295.355 177.258 295.337 179.39C295.308 182.876 298.82 186.699 303.999 185.518L335.645 184.518Z" fill="#726A69"/>
<path d="M311.452 180.107C311.729 179.836 311.926 179.584 312.016 179.364C312.449 178.288 312.371 176.826 312.374 175.627C310.478 174.806 308.74 173.418 307.195 171.568C305.502 169.542 304.546 167.287 303.985 165.302C303.588 165.24 303.352 165.204 303.352 165.204C302.635 165.094 301.961 164.768 301.41 164.329C300.693 163.749 300.178 162.988 299.782 162.192C298.97 160.559 298.617 158.732 298.772 156.941C298.815 156.486 298.889 156.02 299.118 155.611C299.443 155.027 300.09 154.599 300.8 154.493C301.724 154.355 302.733 154.776 303.17 155.556C305.81 150.991 315.356 145.726 323.31 144.018C323.31 144.018 323.609 143.973 324.099 143.904C325.98 143.64 327.885 144.283 329.197 145.657C332.151 148.753 333.951 152.535 335.002 155.988C335.587 155.458 336.013 155.073 336.013 155.073C336.526 154.611 337.285 154.387 337.995 154.494C338.705 154.6 339.351 155.028 339.676 155.611C339.906 156.021 339.98 156.487 340.022 156.941C340.177 158.733 339.824 160.56 339.012 162.192C338.617 162.988 338.101 163.75 337.384 164.329C336.833 164.769 336.159 165.094 335.443 165.205C335.443 165.205 335.321 165.223 335.11 165.256C334.951 165.852 334.772 166.354 334.684 166.621C334.103 168.198 330.779 173.761 326.642 175.554C326.647 176.764 326.56 178.27 327.004 179.365C327.303 180.102 328.701 181.195 330.171 182.189C330.171 182.189 332.703 183.948 332.284 185.509C331.83 187.205 329.136 188.237 329.136 188.237C326.334 189.351 322.252 189.805 319.383 189.798C316.649 189.791 312.989 189.201 310.387 188.505C310.387 188.505 307.134 187.513 306.731 186.043C306.084 183.682 308.699 182.117 308.699 182.117C309.789 181.441 310.825 180.724 311.453 180.107L311.452 180.107Z" fill="white"/>
<path d="M336.594 155.655C337.26 155.09 338.386 155.189 338.899 155.912C339.192 156.325 339.209 156.915 339.228 157.402C339.25 157.994 339.226 158.595 339.127 159.18C338.763 161.347 337.636 163.991 335.223 164.411C334.785 164.487 334.539 165.024 334.649 165.423C334.776 165.885 335.222 166.073 335.661 165.997C338.986 165.418 340.575 161.635 340.842 158.634C340.97 157.191 340.929 155.394 339.71 154.399C338.439 153.361 336.665 153.445 335.432 154.491C335.093 154.779 335.135 155.359 335.432 155.655C335.767 155.991 336.255 155.943 336.595 155.655H336.594Z" fill="#726A69"/>
<path d="M334.596 163.36C334.572 164.063 334.411 164.745 334.212 165.417C334.133 165.68 334.047 165.941 333.96 166.201C333.931 166.287 333.772 166.686 333.877 166.45C333.563 167.154 333.182 167.824 332.773 168.477C331.594 170.359 330.153 172.146 328.403 173.529C327.435 174.293 326.349 174.904 325.148 175.181C324.117 175.419 324.554 177.005 325.586 176.767C328.062 176.196 330.139 174.422 331.778 172.556C333.128 171.018 334.402 169.273 335.246 167.397C335.809 166.148 336.195 164.729 336.242 163.361C336.278 162.301 334.633 162.303 334.596 163.36Z" fill="#726A69"/>
<path d="M303.362 154.491C302.128 153.445 300.354 153.361 299.083 154.399C297.865 155.394 297.823 157.19 297.952 158.633C298.219 161.635 299.807 165.418 303.133 165.997C303.57 166.073 304.019 165.88 304.144 165.422C304.253 165.026 304.01 164.487 303.57 164.411C301.158 163.991 300.029 161.347 299.666 159.179C299.568 158.594 299.543 157.994 299.566 157.402C299.584 156.917 299.601 156.338 299.889 155.925C300.399 155.194 301.526 155.084 302.199 155.655C302.538 155.942 303.03 155.987 303.362 155.655C303.657 155.36 303.702 154.78 303.362 154.491Z" fill="#726A69"/>
<path d="M302.659 163.143C303.565 168.365 306.403 173.483 311.245 175.997C312.569 176.684 313.977 177.1 315.458 177.254C315.901 177.301 316.281 176.843 316.281 176.432C316.281 175.948 315.902 175.655 315.458 175.609C310.527 175.095 306.683 170.66 305.136 166.218C304.738 165.075 304.452 163.897 304.245 162.705C304.169 162.267 303.632 162.021 303.234 162.131C302.771 162.258 302.583 162.704 302.659 163.143Z" fill="#726A69"/>
<path d="M303.781 184.725C301.584 185.209 299.272 184.719 297.691 183.061C297.039 182.378 296.568 181.555 296.326 180.658C296.074 179.72 296.162 178.684 296.246 177.644C296.353 176.315 296.528 174.992 296.769 173.681C296.947 172.71 297.21 171.761 297.411 170.796C297.851 168.681 298.086 166.519 298.252 164.366C298.485 161.376 298.618 158.347 298.541 155.347C298.467 152.488 298.613 149.608 299.117 146.789C299.876 142.552 301.435 138.205 304.407 135.071C305.863 133.537 307.639 132.378 309.53 131.418C311.963 130.183 314.648 129.333 317.371 129.08C318.881 128.939 320.416 128.974 321.928 129.081C323.052 129.16 324.166 129.316 325.259 129.599C327.647 130.217 329.906 131.32 331.855 132.833C333.667 134.238 335.231 135.89 336.401 137.868C337.808 140.243 338.743 142.894 339.243 145.605C339.666 147.903 339.719 150.305 339.741 152.636C339.754 154.004 339.632 155.368 339.665 156.735C339.702 158.26 339.782 159.785 339.914 161.305C340.246 165.13 340.909 168.919 342.064 172.584C342.42 173.714 342.765 174.842 342.966 176.011C343.172 177.202 343.33 178.594 343.067 179.713C342.615 181.645 341.105 183.395 339.153 183.945C338.046 184.258 336.931 184.125 335.864 183.725C335.448 183.569 334.962 183.899 334.852 184.3C334.725 184.761 335.009 185.155 335.427 185.312C337.908 186.241 340.61 185.653 342.519 183.829C343.388 182.998 344.046 181.959 344.452 180.831C344.881 179.639 344.869 178.392 344.758 177.145C344.564 174.951 343.851 172.923 343.252 170.824C342.733 169.004 342.336 167.15 342.039 165.28C341.594 162.482 341.384 159.647 341.313 156.815C341.276 155.377 341.402 153.941 341.385 152.501C341.37 151.239 341.315 149.978 341.236 148.719C341.065 145.983 340.565 143.312 339.585 140.744C338.59 138.136 337.201 135.589 335.205 133.608C333.423 131.839 331.389 130.285 329.097 129.24C326.805 128.195 324.433 127.611 321.928 127.434C318.773 127.212 315.645 127.437 312.618 128.392C310.096 129.187 307.656 130.372 305.521 131.937C301.919 134.578 299.677 138.489 298.397 142.713C297.59 145.374 297.162 148.149 296.979 150.92C296.874 152.5 296.873 154.078 296.905 155.661C296.938 157.324 296.882 158.996 296.818 160.658C296.721 163.215 296.549 165.837 296.18 168.332C295.867 170.45 295.268 172.504 294.955 174.622C294.75 176.004 294.586 177.397 294.531 178.793C294.488 179.872 294.608 180.911 295.025 181.915C295.932 184.095 297.858 185.756 300.155 186.322C301.495 186.653 302.877 186.606 304.219 186.311C305.252 186.084 304.815 184.497 303.781 184.725Z" fill="#726A69"/>
<path d="M325.817 175.978C325.813 176.702 325.803 177.429 325.889 178.15C325.969 178.809 326.082 179.533 326.469 180.092C327.282 181.266 328.593 182.11 329.755 182.899C330.123 183.148 330.667 182.969 330.881 182.604C331.118 182.198 330.954 181.728 330.586 181.478C330.032 181.103 329.483 180.72 328.965 180.296C328.739 180.11 328.517 179.918 328.307 179.714C328.215 179.625 328.125 179.534 328.039 179.439C327.996 179.391 327.953 179.342 327.912 179.293C327.828 179.192 328.003 179.441 327.889 179.262C327.84 179.183 327.79 179.108 327.748 179.024C327.703 178.935 327.793 179.157 327.746 179.011C327.721 178.934 327.694 178.857 327.671 178.779C327.596 178.518 327.542 178.23 327.517 177.993C327.448 177.324 327.459 176.649 327.463 175.978C327.47 174.919 325.825 174.918 325.818 175.978H325.817Z" fill="#726A69"/>
<path d="M311.554 176.05C311.558 176.708 311.567 177.369 311.498 178.024C311.474 178.249 311.412 178.567 311.332 178.833C311.309 178.909 311.284 178.984 311.257 179.059C311.276 179.007 311.304 178.979 311.263 179.043C311.234 179.089 311.075 179.324 311.19 179.178C310.44 180.128 309.302 180.773 308.284 181.406C307.907 181.641 307.76 182.141 307.989 182.532C308.209 182.908 308.736 183.063 309.114 182.827C309.779 182.414 310.435 181.984 311.057 181.509C311.596 181.098 312.119 180.672 312.523 180.123C312.898 179.612 313.022 178.951 313.104 178.337C313.206 177.577 313.204 176.815 313.199 176.05C313.192 174.992 311.547 174.99 311.554 176.05Z" fill="#726A69"/>
<path d="M297.395 223.181C295.96 225.012 294.029 227.44 292.25 228.74C289.971 230.406 286.99 231.195 283.658 230.318C279.766 229.294 277.549 225.86 275.929 222.176C273.598 216.873 271.939 211.177 270.285 205.882C273.603 205.163 278.89 202.741 282.209 200.993C283.251 203.55 284.194 205.887 285.2 208.289C287.903 201.569 288.205 198.09 290.641 191.73C291.072 190.605 291.615 189.681 292.437 188.8C293.209 187.973 294.405 187.742 295.424 187.249C298.735 185.65 304.052 184.219 307.276 182.492L307.595 182.322C308.351 181.528 309.117 180.783 309.858 180.142C309.129 186.974 309.908 192.496 310.295 199.174C310.482 202.372 310.918 209.706 310.918 217.172C310.918 225.153 310.137 230.993 309.328 235.999C309.183 236.695 309.001 237.468 308.771 238.272L308.36 239.872C303.072 239.873 296.611 239.873 296.611 239.873C297.506 233.253 298.554 224.252 298.554 222.825C298.554 222.469 298.546 222.109 298.53 221.747C298.208 222.142 297.824 222.635 297.395 223.182V223.181Z" fill="white"/>
<path d="M343.011 186.783C339.588 185.418 334.87 183.982 332.183 182.543C332.183 182.543 332.164 182.533 332.127 182.512C331.016 181.435 329.828 180.425 328.567 179.532C329.37 186.056 329.332 192.616 328.959 199.173C328.771 202.372 328.336 209.705 328.336 217.172C328.336 225.152 329.116 230.993 329.92 235.999C330.059 236.664 330.229 237.396 330.446 238.157L330.859 239.694C335.861 239.694 342.65 239.694 342.65 239.694C341.774 233.128 340.7 224.234 340.7 222.825L354.703 207.539C352.405 201.539 352.002 198.097 349.704 192.097C349.271 190.969 348.727 190.042 347.903 189.159C347.129 188.329 345.93 188.098 344.909 187.605C344.349 187.334 343.707 187.06 343.011 186.783Z" fill="white"/>
<path d="M310.169 189.298C312.682 189.964 315.286 190.396 317.881 190.565C320.364 190.727 322.883 190.522 325.332 190.099C326.7 189.862 328.061 189.537 329.356 189.03C329.769 188.868 330.057 188.478 329.93 188.018C329.822 187.624 329.334 187.28 328.918 187.443C326.69 188.317 324.267 188.698 321.891 188.878C319.514 189.059 317.133 188.941 314.768 188.573C313.368 188.355 311.976 188.075 310.607 187.712C309.582 187.44 309.145 189.027 310.169 189.298L310.169 189.298Z" fill="#64C7FF"/>
<path d="M306.862 181.782C304.903 182.822 302.786 183.542 300.705 184.291C299.595 184.69 298.485 185.087 297.388 185.518C296.385 185.912 295.42 186.4 294.418 186.79C293.278 187.233 292.275 187.678 291.482 188.645C290.656 189.653 290.125 190.769 289.67 191.983C288.811 194.274 288.1 196.612 287.427 198.964C286.659 201.645 285.856 204.308 284.861 206.915C284.703 207.33 285.037 207.817 285.436 207.927C285.899 208.054 286.289 207.769 286.448 207.353C288.145 202.906 289.187 198.261 290.764 193.776C291.168 192.627 291.549 191.449 292.211 190.417C292.506 189.956 292.862 189.451 293.302 189.118C293.688 188.825 294.16 188.645 294.608 188.472C295.576 188.097 296.504 187.634 297.466 187.247C298.528 186.82 299.605 186.431 300.683 186.043C303.048 185.191 305.466 184.385 307.692 183.203C308.627 182.707 307.797 181.286 306.862 181.782Z" fill="#726A69"/>
<path d="M288.776 214.464C286.736 209.949 284.872 205.362 283.003 200.775C282.799 200.274 282.308 200.014 281.795 200.284C279.868 201.297 277.899 202.236 275.896 203.087C274.012 203.888 272.072 204.648 270.068 205.09C269.644 205.184 269.366 205.694 269.493 206.102C270.549 209.486 271.567 212.883 272.736 216.23C273.34 217.958 273.984 219.673 274.692 221.361C275.276 222.753 275.887 224.137 276.659 225.439C278.111 227.889 280.135 230.027 282.892 230.95C285.892 231.954 289.28 231.575 291.973 229.918C294.757 228.205 296.715 225.356 298.708 222.835C298.983 222.487 299.048 222.012 298.708 221.672C298.422 221.386 297.821 221.322 297.544 221.672C295.846 223.82 294.201 226.156 292.043 227.874C289.831 229.634 286.922 230.246 284.179 229.603C281.611 229 279.716 227.223 278.341 225.038C276.698 222.428 275.624 219.445 274.591 216.555C273.307 212.962 272.215 209.306 271.079 205.665L270.505 206.677C272.605 206.214 274.626 205.399 276.6 204.562C278.646 203.694 280.657 202.739 282.625 201.705L281.416 201.213C283.339 205.932 285.257 210.651 287.355 215.295C287.538 215.699 288.125 215.797 288.48 215.59C288.897 215.346 288.959 214.871 288.776 214.464V214.464Z" fill="#726A69"/>
<path d="M277.64 186.631C277.393 185.391 277.022 184.168 276.681 182.953C276.193 181.216 275.686 179.481 275.104 177.774C274.655 176.46 274.21 174.821 272.78 174.257C271.604 173.793 270.05 174.442 269.728 175.703C269.507 176.565 269.747 177.486 269.943 178.332C270.488 180.696 271.094 183.05 271.736 185.39C272.016 186.409 273.604 185.976 273.323 184.952C272.777 182.964 272.269 180.964 271.782 178.96C271.621 178.296 271.44 177.629 271.333 176.954C271.282 176.633 271.228 176.187 271.376 175.984C271.514 175.792 272.016 175.698 272.244 175.805C272.369 175.864 272.482 175.984 272.602 176.115C272.642 176.159 272.788 176.354 272.688 176.208C272.711 176.24 272.735 176.272 272.753 176.307C272.843 176.471 272.925 176.638 273.001 176.809C273.059 176.938 272.939 176.648 273.016 176.845C273.039 176.902 273.062 176.958 273.084 177.015C273.141 177.161 273.197 177.308 273.251 177.455C273.367 177.77 273.477 178.088 273.584 178.407C274.118 179.993 274.59 181.601 275.045 183.212C275.404 184.486 275.795 185.769 276.054 187.069C276.141 187.505 276.66 187.755 277.066 187.643C277.52 187.518 277.728 187.068 277.64 186.631L277.64 186.631Z" fill="#726A69"/>
<path d="M264.793 193.509C265.418 195.431 266.26 197.345 267.48 198.968C268.193 199.917 269.053 200.738 269.802 201.656C270.533 202.552 270.756 203.567 271.074 204.652C271.371 205.666 272.959 205.234 272.66 204.214C272.343 203.133 272.111 202.011 271.428 201.087C270.696 200.095 269.804 199.247 269.026 198.295C267.794 196.788 266.978 194.909 266.379 193.072C266.053 192.069 264.464 192.498 264.793 193.509Z" fill="#726A69"/>
<path d="M277.818 192.763C277.736 192.207 277.574 191.652 277.425 191.111C277.284 190.603 276.997 190.16 276.548 189.872C276.089 189.578 275.559 189.518 275.032 189.444C274.902 189.425 274.77 189.38 274.636 189.373C274.508 189.365 274.55 189.34 274.618 189.384C274.764 189.479 274.53 189.246 274.502 189.171C274.447 189.027 274.448 188.925 274.487 188.783C274.5 188.739 274.69 188.355 274.604 188.439C274.859 188.193 275.601 188.198 275.945 188.17C276.423 188.13 276.903 188.098 277.383 188.093C277.967 188.087 278.38 188.108 278.85 188.215C279.238 188.304 279.649 188.438 279.921 188.745C280.208 189.068 280.398 189.506 280.539 189.91C280.804 190.67 281.007 191.525 280.988 192.335C280.957 193.696 280.296 194.853 279.868 196.135C279.765 196.446 279.662 196.758 279.572 197.073C279.546 197.164 279.518 197.256 279.5 197.349C279.483 197.437 279.475 197.527 279.463 197.616C279.497 197.359 279.44 197.784 279.433 197.858C279.328 199.021 279.599 200.231 279.842 201.361C280.064 202.396 281.65 201.958 281.428 200.924C281.19 199.815 281.04 198.764 281.107 197.632C281.1 197.758 281.056 197.841 281.114 197.67C281.154 197.554 281.181 197.431 281.217 197.313C281.329 196.942 281.452 196.574 281.578 196.207C281.686 195.892 281.797 195.578 281.916 195.267C281.942 195.198 281.97 195.129 281.996 195.06C282.077 194.853 281.925 195.206 282.006 195.036C282.097 194.845 282.189 194.656 282.263 194.458C282.569 193.642 282.706 192.65 282.607 191.784C282.484 190.699 282.259 189.637 281.785 188.647C281.263 187.555 280.399 186.87 279.217 186.613C278.096 186.37 276.928 186.433 275.794 186.538C275.241 186.589 274.662 186.641 274.141 186.846C273.55 187.078 273.228 187.504 272.996 188.086C272.534 189.243 273.072 190.757 274.382 190.998C274.745 191.065 275.481 191.021 275.743 191.319C275.909 191.508 275.922 191.897 275.986 192.132C276.083 192.486 276.178 192.836 276.231 193.2C276.296 193.64 276.853 193.882 277.243 193.774C277.715 193.645 277.883 193.204 277.818 192.763Z" fill="#726A69"/>
<path d="M268.636 193.388C268.674 193.524 268.644 193.212 268.641 193.401C268.637 193.597 268.684 193.295 268.638 193.432C268.62 193.486 268.525 193.695 268.62 193.521C268.579 193.595 268.544 193.671 268.499 193.742C268.477 193.778 268.45 193.812 268.428 193.848C268.433 193.839 268.523 193.744 268.46 193.807C268.409 193.858 268.365 193.916 268.313 193.966C268.308 193.971 268.242 194.044 268.225 194.046C268.227 194.046 268.391 193.942 268.255 194.02C268.232 194.033 268.209 194.047 268.187 194.062C268.035 194.162 268.224 194.045 268.224 194.051C268.224 194.055 267.959 194.122 268.088 194.092C268.2 194.065 268.065 194.093 268.034 194.094C268 194.096 267.966 194.098 267.932 194.098C267.89 194.098 267.611 194.074 267.804 194.102C267.711 194.088 267.618 194.068 267.527 194.043C267.482 194.031 267.437 194.016 267.393 194.002C267.38 193.998 267.271 193.956 267.361 193.992C267.443 194.026 267.247 193.931 267.215 193.912C267.177 193.889 267.141 193.864 267.104 193.839C267.13 193.857 267.228 193.95 267.124 193.849C267.059 193.787 266.995 193.726 266.935 193.661C266.878 193.599 266.827 193.533 266.772 193.471C266.689 193.375 266.838 193.566 266.764 193.461C266.743 193.43 266.719 193.4 266.697 193.37C266.581 193.207 266.47 193.04 266.363 192.871C266.168 192.564 265.976 192.256 265.821 191.927C265.811 191.905 265.766 191.781 265.812 191.904C265.798 191.866 265.784 191.829 265.771 191.792C265.74 191.705 265.713 191.617 265.69 191.528C265.677 191.478 265.668 191.426 265.655 191.376C265.647 191.346 265.632 191.215 265.648 191.367C265.637 191.266 265.642 191.166 265.636 191.066C265.634 191.033 265.653 190.903 265.628 191.065C265.633 191.028 265.641 190.992 265.649 190.957C265.658 190.921 265.676 190.883 265.68 190.846C265.691 190.762 265.663 190.925 265.646 190.923C265.645 190.923 265.691 190.844 265.696 190.833C265.748 190.722 265.706 190.896 265.657 190.873C265.659 190.874 265.793 190.732 265.803 190.722C265.893 190.631 265.767 190.767 265.762 190.751C265.761 190.745 265.845 190.697 265.854 190.692C265.885 190.673 265.919 190.658 265.95 190.639C266.074 190.563 265.841 190.661 265.932 190.643C266.005 190.629 266.076 190.594 266.148 190.577C266.185 190.569 266.224 190.564 266.26 190.554C266.356 190.528 266.061 190.56 266.241 190.56C266.317 190.56 266.394 190.561 266.471 190.561C266.604 190.562 266.421 190.555 266.423 190.553C266.432 190.545 266.523 190.573 266.536 190.577C266.573 190.586 266.609 190.6 266.647 190.609C266.786 190.643 266.572 190.548 266.637 190.603C266.68 190.638 266.91 190.78 266.742 190.648C267.079 190.913 267.58 191.002 267.905 190.648C268.177 190.352 268.266 189.769 267.905 189.485C267.084 188.839 265.996 188.731 265.071 189.244C264.074 189.798 263.832 190.92 264.103 191.966C264.239 192.489 264.494 192.974 264.775 193.432C265.049 193.879 265.338 194.318 265.678 194.718C266.371 195.533 267.495 195.915 268.543 195.67C269.626 195.417 270.531 194.041 270.223 192.951C270.106 192.537 269.636 192.239 269.211 192.377C268.79 192.513 268.511 192.945 268.637 193.388L268.636 193.388Z" fill="#726A69"/>
<path d="M270.574 186.99C269.637 185.96 267.971 186.197 267.023 187.066C266.53 187.517 266.128 188.197 266.126 188.881C266.124 189.54 266.535 190.155 266.858 190.705C267.374 191.582 267.991 192.426 268.578 193.258C268.842 193.631 269.111 194.03 269.462 194.328C269.945 194.739 270.644 194.928 271.272 194.901C272.918 194.83 273.835 193.223 273.42 191.706C273.14 190.686 271.553 191.119 271.833 192.143C271.859 192.238 271.883 192.329 271.89 192.408C271.894 192.458 271.892 192.508 271.892 192.557C271.892 192.568 271.871 192.718 271.889 192.618C271.847 192.849 271.835 192.863 271.706 193.038C271.782 192.934 271.634 193.1 271.608 193.128C271.546 193.195 271.623 193.124 271.637 193.114C271.61 193.134 271.581 193.153 271.553 193.171C271.431 193.247 271.37 193.258 271.179 193.257C270.989 193.256 270.921 193.242 270.708 193.174C270.682 193.165 270.646 193.124 270.549 193.1C270.537 193.097 270.438 193.035 270.56 193.114C270.675 193.187 270.549 193.101 270.528 193.079C270.429 192.977 270.337 192.873 270.246 192.764C270.188 192.695 270.251 192.773 270.259 192.784C270.227 192.743 270.196 192.7 270.165 192.659C270.109 192.582 270.053 192.505 269.999 192.427C269.588 191.846 269.187 191.255 268.783 190.669C268.492 190.247 268.228 189.806 267.987 189.353C267.932 189.25 267.881 189.142 267.824 189.039C267.764 188.93 267.793 189.02 267.768 188.909C267.789 188.999 267.77 188.882 267.769 188.886C267.789 188.779 267.831 188.688 267.847 188.659C267.95 188.464 268.041 188.351 268.221 188.197C268.336 188.099 268.471 188.035 268.63 187.992C268.783 187.952 268.952 187.937 269.087 187.962C269 187.946 269.169 187.986 269.186 187.992C269.32 188.036 269.091 187.955 269.222 188.002C269.36 188.051 269.293 188.022 269.412 188.153C269.711 188.481 270.271 188.456 270.575 188.153C270.902 187.826 270.875 187.319 270.575 186.989L270.574 186.99Z" fill="#726A69"/>
<path d="M274.314 190.462C274.326 190.697 274.333 190.838 274.239 191.051C274.283 190.95 274.121 191.228 274.173 191.157C274.189 191.136 273.994 191.33 274.027 191.305C273.931 191.378 273.879 191.393 273.736 191.438C273.596 191.483 273.68 191.457 273.727 191.451C273.687 191.456 273.643 191.461 273.603 191.458C273.557 191.455 273.534 191.451 273.481 191.426C273.166 191.276 272.956 190.934 272.761 190.614C272.439 190.087 272.109 189.565 271.775 189.045C271.221 188.182 270.631 187.317 270.392 186.345C270.389 186.332 270.359 186.187 270.382 186.3C270.407 186.419 270.423 186.205 270.385 186.308C270.34 186.429 270.463 186.085 270.395 186.244C270.458 186.095 270.512 186.025 270.652 185.92C270.974 185.677 271.336 185.662 271.676 185.82C272.064 186.001 272.345 186.444 272.594 186.771C272.9 187.172 273.198 187.582 273.465 188.011C274.024 188.907 275.448 188.082 274.885 187.18C274.553 186.648 274.175 186.144 273.791 185.648C273.399 185.143 273.005 184.631 272.411 184.354C271.052 183.72 269.188 184.311 268.801 185.871C268.638 186.528 268.895 187.193 269.157 187.787C269.448 188.445 269.833 189.058 270.219 189.664C270.623 190.298 271.017 190.94 271.421 191.576C271.801 192.174 272.293 192.741 272.974 192.992C273.704 193.261 274.526 193.012 275.108 192.535C275.723 192.032 275.999 191.243 275.959 190.463C275.937 190.019 275.597 189.64 275.137 189.64C274.708 189.64 274.291 190.017 274.314 190.463L274.314 190.462Z" fill="#726A69"/>
<path d="M332.481 183.612C336.39 185.473 340.631 186.517 344.554 188.342C345.527 188.795 346.675 189.022 347.421 189.845C348.237 190.745 348.729 191.817 349.148 192.944C349.993 195.211 350.693 197.524 351.358 199.849C352.121 202.515 352.921 205.164 353.912 207.757C354.07 208.172 354.466 208.457 354.924 208.332C355.321 208.223 355.658 207.737 355.498 207.32C353.721 202.667 352.653 197.795 350.959 193.116C350.519 191.901 350.081 190.671 349.325 189.609C348.971 189.112 348.583 188.612 348.101 188.232C347.591 187.83 347.014 187.575 346.413 187.337C345.452 186.957 344.521 186.514 343.565 186.123C342.514 185.694 341.448 185.304 340.381 184.919C338.009 184.063 335.591 183.277 333.311 182.191C332.91 182.001 332.423 182.08 332.185 182.487C331.976 182.845 332.078 183.42 332.48 183.612H332.481Z" fill="#726A69"/>
<path d="M292.762 188.569C293.422 195.552 294.347 202.534 295.581 209.439C295.851 210.953 296.141 212.464 296.477 213.965C296.927 215.975 297.376 217.98 297.584 220.033C297.714 221.318 297.774 222.602 297.669 223.889C297.569 225.121 297.436 226.351 297.3 227.58C296.858 231.611 296.361 235.636 295.818 239.654C295.759 240.094 295.924 240.537 296.393 240.666C296.776 240.771 297.345 240.535 297.405 240.091C297.904 236.391 298.367 232.685 298.789 228.975C299.064 226.561 299.46 224.1 299.349 221.664C299.177 217.872 298.151 214.227 297.447 210.518C296.775 206.982 296.232 203.421 295.74 199.856C295.221 196.103 294.763 192.34 294.407 188.569C294.365 188.127 294.058 187.746 293.584 187.746C293.172 187.746 292.719 188.124 292.762 188.569V188.569Z" fill="#726A69"/>
<path d="M310.474 231.65C315.535 231.647 320.597 231.487 325.657 231.415C326.791 231.398 327.925 231.381 329.059 231.381C330.118 231.381 330.119 229.735 329.059 229.736C323.876 229.738 318.692 229.892 313.509 229.971C312.498 229.986 311.486 230.004 310.474 230.005C309.416 230.005 309.414 231.65 310.474 231.65Z" fill="#64C7FF"/>
<path d="M308.967 180.817C308.586 184.973 308.76 189.128 309.061 193.282C309.304 196.652 309.535 200.02 309.707 203.394C310.11 211.329 310.374 219.316 309.647 227.24C309.484 229.023 309.275 230.802 309.024 232.575C308.762 234.423 308.486 236.254 307.978 238.054C307.69 239.075 309.277 239.511 309.565 238.492C310.026 236.857 310.292 235.204 310.537 233.526C310.772 231.913 310.981 230.295 311.152 228.673C311.557 224.825 311.742 220.957 311.741 217.087C311.738 209.672 311.372 202.25 310.822 194.856C310.475 190.177 310.183 185.502 310.613 180.817C310.654 180.374 310.206 179.995 309.791 179.995C309.312 179.995 309.009 180.373 308.968 180.817H308.967Z" fill="#726A69"/>
<path d="M307.542 212.421C306.557 209.516 305.645 206.587 304.72 203.663C304.259 202.208 303.797 200.753 303.32 199.303C303.138 198.749 302.952 198.195 302.82 197.626C302.762 197.376 302.723 197.139 302.715 196.884C302.711 196.756 302.707 196.921 302.702 196.94C302.712 196.898 302.721 196.854 302.736 196.813C302.788 196.66 302.755 196.74 302.804 196.639C303.389 195.442 304.339 194.387 305.256 193.436C305.558 193.124 305.585 192.582 305.256 192.273C304.656 191.708 304.089 191.112 303.56 190.48C303.314 190.185 303.095 189.868 302.852 189.57C302.772 189.472 302.807 189.388 302.781 189.498C302.805 189.399 302.94 189.265 303.001 189.18C303.692 188.202 304.425 187.254 305.18 186.325C306.918 184.188 308.771 182.085 310.905 180.332C311.249 180.05 311.198 179.461 310.905 179.169C310.565 178.829 310.087 178.886 309.742 179.169C307.919 180.666 306.312 182.425 304.794 184.224C304.036 185.121 303.305 186.039 302.594 186.973C302.3 187.359 302.012 187.749 301.728 188.142C301.359 188.656 301.004 189.195 301.179 189.862C301.359 190.551 302 191.171 302.447 191.703C302.961 192.313 303.512 192.89 304.093 193.437V192.273C303.17 193.23 302.272 194.276 301.594 195.423C301.341 195.851 301.095 196.33 301.071 196.836C301.041 197.492 301.249 198.187 301.436 198.809C302.33 201.791 303.334 204.746 304.277 207.713C304.823 209.432 305.377 211.15 305.956 212.859C306.294 213.856 307.883 213.428 307.542 212.421L307.542 212.421Z" fill="#726A69"/>
<path d="M343.472 239.694C342.987 236.06 342.527 232.421 342.104 228.779C341.826 226.378 341.433 223.941 341.556 221.518C341.745 217.794 342.787 214.204 343.468 210.555C344.124 207.041 344.66 203.504 345.145 199.962C345.665 196.174 346.132 192.377 346.492 188.57C346.533 188.127 346.083 187.747 345.669 187.747C345.189 187.747 344.889 188.125 344.846 188.57C344.196 195.447 343.285 202.322 342.064 209.122C341.415 212.738 340.412 216.299 340.032 219.959C339.899 221.247 339.829 222.54 339.937 223.832C340.04 225.076 340.18 226.318 340.32 227.559C340.776 231.61 341.288 235.654 341.827 239.694C341.886 240.135 342.163 240.517 342.65 240.517C343.049 240.517 343.531 240.138 343.472 239.694Z" fill="#726A69"/>
<path d="M330.688 181.856C332.283 183.368 333.711 185.008 335.003 186.785C335.334 187.24 335.66 187.699 335.985 188.158C336.17 188.42 336.355 188.682 336.54 188.944C336.634 189.076 336.72 189.251 336.835 189.364C336.863 189.391 336.95 189.6 336.942 189.425C336.949 189.586 336.629 189.881 336.535 190.001C336.315 190.285 336.083 190.562 335.846 190.833C335.405 191.336 334.938 191.815 334.451 192.274C334.125 192.582 334.149 193.126 334.451 193.437C335.164 194.171 335.915 194.895 336.527 195.716C336.748 196.012 336.938 196.301 337.003 196.552C337.012 196.587 337.035 196.442 336.993 196.6C336.986 196.623 336.988 196.644 336.97 196.751C336.93 196.974 336.887 197.196 336.839 197.417C336.358 199.621 335.523 201.753 334.854 203.905C334.54 204.918 336.127 205.352 336.441 204.342C336.859 202.996 337.282 201.651 337.728 200.313C338.048 199.355 338.333 198.393 338.518 197.399C338.6 196.964 338.701 196.516 338.581 196.08C338.462 195.643 338.213 195.246 337.948 194.886C337.254 193.944 336.428 193.111 335.614 192.274V193.437C336.176 192.908 336.711 192.351 337.21 191.762C337.653 191.24 338.259 190.642 338.487 189.982C338.745 189.231 338.331 188.639 337.916 188.051C337.521 187.492 337.128 186.933 336.729 186.377C335.262 184.335 333.678 182.424 331.851 180.693C331.082 179.965 329.917 181.126 330.687 181.856H330.688Z" fill="#726A69"/>
<path d="M331.24 237.939C330.784 236.325 330.531 234.688 330.292 233.032C330.07 231.498 329.879 229.959 329.72 228.417C329.325 224.567 329.152 220.7 329.159 216.831C329.166 212.737 329.296 208.643 329.49 204.554C329.647 201.259 329.882 197.967 329.979 194.67C330.125 189.717 330.007 184.752 329.426 179.827C329.374 179.386 329.085 179.004 328.603 179.004C328.199 179.004 327.728 179.383 327.781 179.827C328.302 184.244 328.452 188.695 328.37 193.14C328.307 196.604 328.07 200.059 327.896 203.519C327.495 211.457 327.238 219.446 327.973 227.372C328.144 229.219 328.367 231.06 328.624 232.897C328.883 234.743 329.146 236.578 329.653 238.376C329.94 239.393 331.527 238.961 331.239 237.939L331.24 237.939Z" fill="#726A69"/>
<path d="M316.376 168.435C317.372 168.961 318.444 169.182 319.57 169.175C320.717 169.167 321.873 168.94 322.792 168.225C323.142 167.952 323.078 167.349 322.792 167.062C322.445 166.716 321.98 166.788 321.628 167.062C321.877 166.868 321.682 167.018 321.618 167.058C321.554 167.099 321.488 167.138 321.42 167.173C321.364 167.202 321.121 167.299 321.346 167.216C321.255 167.249 321.166 167.285 321.073 167.315C320.824 167.395 320.568 167.451 320.31 167.489C320.43 167.471 320.282 167.491 320.235 167.495C320.16 167.503 320.085 167.509 320.01 167.514C319.83 167.526 319.649 167.53 319.468 167.529C319.305 167.528 319.143 167.523 318.982 167.512C318.908 167.506 318.834 167.501 318.759 167.493C318.753 167.492 318.486 167.455 318.65 167.481C318.409 167.443 318.17 167.393 317.937 167.323C317.836 167.293 317.739 167.257 317.641 167.223C317.43 167.151 317.759 167.285 317.569 167.195C317.447 167.138 317.326 167.077 317.207 167.014C316.814 166.807 316.312 166.915 316.081 167.309C315.864 167.681 315.982 168.227 316.376 168.435L316.376 168.435Z" fill="#726A69"/>
<path d="M319.155 160.905C319.295 161.437 319.428 161.977 319.508 162.521L319.479 162.303C319.489 162.377 319.493 162.451 319.485 162.526L319.515 162.307C319.51 162.342 319.502 162.374 319.49 162.408L319.573 162.211C319.563 162.234 319.552 162.254 319.538 162.276L319.666 162.109C319.65 162.129 319.634 162.145 319.613 162.161L319.78 162.033C319.739 162.059 319.696 162.08 319.652 162.1L319.848 162.017C319.778 162.047 319.708 162.069 319.633 162.081L319.852 162.051C319.783 162.059 319.717 162.059 319.649 162.051L319.868 162.08C319.791 162.07 319.717 162.051 319.64 162.041C319.531 162.007 319.421 162.002 319.312 162.026C319.203 162.031 319.101 162.063 319.006 162.124C318.836 162.223 318.673 162.419 318.628 162.615C318.58 162.826 318.591 163.062 318.711 163.249C318.818 163.415 318.997 163.599 319.203 163.627C319.376 163.65 319.544 163.695 319.72 163.702C319.99 163.714 320.241 163.631 320.483 163.521C320.78 163.384 321.013 163.117 321.092 162.797C321.159 162.525 321.13 162.288 321.084 162.015C320.996 161.495 320.876 160.979 320.742 160.468C320.633 160.052 320.149 159.758 319.73 159.894C319.302 160.032 319.039 160.46 319.156 160.906L319.155 160.905Z" fill="#726A69"/>
<path d="M310.606 156.331C310.336 157.208 310.512 159.225 312.173 159.397C314.369 159.384 314.486 156.945 313.747 155.798C313.141 154.859 311.362 154.468 310.606 156.331Z" fill="#726A69"/>
<path d="M328.191 156.331C328.461 157.208 328.285 159.226 326.623 159.397C324.427 159.384 324.311 156.945 325.05 155.798C325.655 154.859 327.435 154.469 328.191 156.331Z" fill="#726A69"/>
<path d="M323.51 214.378C323.1 214.773 322.717 215.184 322.408 215.591C322.593 215.837 323.923 217.058 324.299 217.338L324.484 217.475C325.555 215.954 326.967 215.041 328.644 214.371C331.142 213.373 333.807 212.877 336.472 212.965C339.118 213.053 342.038 213.884 344.01 215.765C345.622 213.917 348.631 212.482 350.954 211.902C353.246 211.329 355.634 211.309 357.979 211.528C359.511 211.671 360.899 212.11 362.033 212.685C362.067 212.652 362.086 212.632 362.086 212.632C362.497 212.242 363.319 211.42 364.018 210.68C361.49 208.769 360.073 208.484 357.093 208.194C354.825 207.973 352.248 207.899 350.031 208.453C347.813 209.007 344.97 209.931 343.394 211.684C341.62 210.434 339.138 209.725 336.472 209.637C333.806 209.549 331.141 210.044 328.644 211.042C327.545 211.482 326.37 212.04 325.428 212.756C324.828 213.212 324.136 213.776 323.51 214.379L323.51 214.378Z" fill="white"/>
<path d="M355.607 222.274C357.319 220.749 362.73 215.667 364.183 214.215C362.991 212.982 360.714 211.783 357.979 211.528C355.633 211.31 353.246 211.329 350.954 211.902C348.631 212.482 345.622 213.917 344.01 215.765C342.038 213.884 339.118 213.053 336.472 212.966C333.806 212.877 331.142 213.373 328.644 214.371C326.623 215.178 324.988 216.338 323.867 218.488C325.417 219.843 331.164 224.26 332.776 225.54L355.607 222.274V222.274Z" fill="#64C7FF"/>
<path d="M348.076 219.081C347.983 219.005 347.888 218.931 347.793 218.857C346.578 217.918 345.696 217.771 344.447 218.469C344.447 218.469 344.122 218.751 343.776 219.051C343.265 218.51 342.832 218.06 342.647 217.9C342.069 217.399 341.256 217.223 340.646 217.45C339.856 217.743 339.526 218.175 339.526 218.836C339.526 218.836 339.494 219.075 339.451 219.398C339.032 218.955 338.655 218.574 338.367 218.316C338.124 218.098 336.937 217.513 336.148 218.106C335.451 218.629 335.343 219.33 335.747 219.945C335.793 220.015 335.825 220.092 335.863 220.165L335.686 220.073C334.323 219.361 333.278 220.469 333.144 220.989C333.042 221.381 333.042 222.087 333.347 222.677C333.859 223.666 336.094 226.147 337.3 227.422C340.064 229.377 344.476 228.015 348.009 227.194C348.38 227.107 349.053 226.853 349.409 226.591C350.731 225.674 351.411 224.547 352.491 223.354C352.863 222.943 353.45 222.378 353.703 221.885C354.054 221.198 354.344 220.451 354.148 219.705C354.048 219.323 353.86 218.943 353.531 218.725C353.005 218.379 352.302 218.544 351.719 218.782C350.849 219.137 350.035 219.629 349.318 220.234C348.937 219.817 348.517 219.437 348.076 219.081Z" fill="white"/>
<path d="M348.993 225.881C348.241 226.398 347.283 226.521 346.414 226.73C345.39 226.977 344.364 227.219 343.325 227.393C341.549 227.691 339.531 227.832 337.93 226.857C337.023 226.305 336.196 227.728 337.1 228.278C339.018 229.446 341.347 229.356 343.486 229.024C344.597 228.852 345.692 228.595 346.784 228.333C347.812 228.085 348.933 227.914 349.823 227.302C350.189 227.051 350.354 226.58 350.118 226.176C349.906 225.814 349.361 225.628 348.993 225.881Z" fill="#726A69"/>
<path d="M350.547 220.445C349.757 219.395 348.748 218.41 347.613 217.736C347.089 217.425 346.495 217.213 345.88 217.21C345.223 217.208 344.602 217.447 344.033 217.759C343.643 217.972 343.518 218.508 343.738 218.884C343.968 219.277 344.472 219.393 344.863 219.179C344.958 219.127 345.136 219.035 345.177 219.017C345.131 219.037 345.262 218.984 345.277 218.979C345.328 218.961 345.379 218.944 345.431 218.928C345.542 218.895 345.656 218.866 345.77 218.851C345.608 218.873 345.863 218.855 345.917 218.856C345.939 218.856 346.137 218.869 346.024 218.858C345.926 218.848 346.077 218.869 346.095 218.873C346.194 218.894 346.29 218.922 346.385 218.955C346.43 218.971 346.547 219.024 346.445 218.977C346.495 219 346.545 219.025 346.594 219.05C346.712 219.112 346.826 219.18 346.938 219.253C347.352 219.52 347.719 219.832 348.102 220.181C348.462 220.511 348.882 220.949 349.127 221.275C349.394 221.629 349.837 221.813 350.253 221.57C350.602 221.366 350.816 220.802 350.548 220.445L350.547 220.445Z" fill="#726A69"/>
<path d="M346.978 221.251C346.132 220.455 345.374 219.552 344.58 218.706C344.186 218.286 343.795 217.86 343.381 217.46C342.676 216.778 341.727 216.414 340.747 216.577C339.6 216.768 338.728 217.667 338.702 218.836C338.679 219.895 340.324 219.895 340.348 218.836C340.348 218.78 340.35 218.724 340.355 218.669C340.343 218.755 340.347 218.751 340.366 218.655C340.398 218.563 340.396 218.558 340.361 218.641C340.382 218.596 340.406 218.553 340.433 218.512C340.353 218.637 340.527 218.42 340.564 218.392C340.482 218.455 340.742 218.297 340.775 218.282C341.122 218.12 341.425 218.137 341.785 218.308C342.289 218.548 342.685 219.094 343.059 219.489C343.976 220.458 344.843 221.499 345.815 222.414C346.585 223.139 347.751 221.978 346.978 221.251Z" fill="#726A69"/>
<path d="M324.715 216.627C324.925 216.787 324.681 216.595 324.644 216.563C324.556 216.49 324.471 216.415 324.385 216.339C324.197 216.174 324.011 216.006 323.827 215.836C323.543 215.573 323.233 215.313 322.991 215.009V216.173C324.747 213.906 327.233 212.352 329.923 211.446C332.768 210.488 335.903 210.134 338.864 210.727C340.335 211.021 341.744 211.536 342.981 212.394C343.267 212.593 343.746 212.518 343.978 212.266C344.86 211.305 346.036 210.66 347.239 210.184C348.504 209.685 349.848 209.278 351.19 209.051C352.742 208.788 354.348 208.814 355.913 208.919C357.241 209.007 358.601 209.111 359.894 209.442C361.28 209.797 362.469 210.538 363.604 211.391L363.438 210.099C362.808 210.763 362.168 211.419 361.506 212.051C360.739 212.783 361.903 213.945 362.669 213.214C363.332 212.582 363.972 211.926 364.601 211.262C364.998 210.843 364.86 210.29 364.434 209.97C363.306 209.122 362.101 208.387 360.743 207.972C359.403 207.562 357.972 207.443 356.583 207.325C354.89 207.181 353.178 207.139 351.49 207.357C349.973 207.553 348.477 207.964 347.047 208.504C345.494 209.089 343.951 209.864 342.814 211.103L343.811 210.974C341.296 209.229 338.041 208.688 335.035 208.823C331.814 208.968 328.411 209.866 325.666 211.596C324.25 212.489 322.855 213.684 321.827 215.01C321.53 215.393 321.52 215.787 321.827 216.173C322.388 216.878 323.169 217.505 323.884 218.048C324.238 218.317 324.804 218.104 325.01 217.753C325.257 217.331 325.069 216.897 324.715 216.628L324.715 216.627Z" fill="#726A69"/>
<path d="M334.771 225.53C331.963 223.31 328.963 221.33 326.094 219.191C325.907 219.052 325.721 218.912 325.536 218.771C325.455 218.711 325.376 218.65 325.296 218.589C325.258 218.56 325.22 218.53 325.182 218.501C325.078 218.421 325.329 218.616 325.159 218.483C324.919 218.296 324.68 218.107 324.45 217.907L324.578 218.904C325.155 217.817 325.932 216.867 326.956 216.172C328.088 215.405 329.383 214.916 330.688 214.534C333.516 213.706 336.63 213.456 339.496 214.244C340.946 214.643 342.325 215.312 343.429 216.348C343.739 216.638 344.29 216.689 344.593 216.348C346.229 214.503 348.705 213.334 351.061 212.724C352.623 212.32 354.235 212.196 355.845 212.227C357.354 212.256 358.857 212.375 360.298 212.85C361.513 213.25 362.698 213.878 363.602 214.797V213.633C361.037 216.192 358.293 218.587 355.609 221.018C355.03 221.542 354.451 222.066 353.868 222.585C353.076 223.291 354.242 224.451 355.031 223.749C357.77 221.308 360.478 218.83 363.159 216.327C363.7 215.822 364.242 215.319 364.765 214.797C365.082 214.481 365.077 213.95 364.765 213.633C362.646 211.479 359.584 210.759 356.668 210.611C353.407 210.446 350.227 210.955 347.287 212.4C345.869 213.097 344.484 213.996 343.43 215.185H344.593C342.338 213.07 339.191 212.182 336.154 212.136C334.352 212.108 332.535 212.34 330.793 212.798C329.287 213.193 327.755 213.732 326.427 214.557C325.035 215.422 323.926 216.627 323.158 218.074C322.997 218.379 323.007 218.827 323.287 219.071C324.477 220.105 325.794 221.01 327.068 221.937C328.685 223.113 330.313 224.274 331.931 225.45C332.286 225.708 332.641 225.967 332.993 226.228C333.126 226.327 333.259 226.426 333.391 226.526C333.421 226.549 333.623 226.703 333.515 226.62C333.408 226.537 333.577 226.669 333.608 226.694C333.956 226.969 334.432 227.033 334.772 226.694C335.057 226.408 335.122 225.807 334.772 225.53L334.771 225.53Z" fill="#119EED"/>
<path d="M336.099 219.363C335.151 218.899 334.102 218.907 333.243 219.561C332.563 220.08 332.223 220.788 332.262 221.648C332.301 222.518 332.662 223.22 333.169 223.899C333.688 224.595 334.247 225.26 334.817 225.914C335.433 226.619 336.063 227.311 336.706 227.991C337.434 228.762 338.596 227.598 337.869 226.828C337.275 226.199 336.691 225.559 336.12 224.909C335.554 224.266 334.939 223.552 334.494 222.939C334.333 222.718 334.152 222.484 334.039 222.233C333.942 222.019 333.906 221.772 333.904 221.54C333.904 221.517 333.916 221.258 333.902 221.369C333.906 221.341 333.975 221.076 333.927 221.213C333.88 221.346 333.976 221.134 333.993 221.106C334.095 220.935 333.886 221.211 334.034 221.053C334.105 220.977 334.177 220.901 334.259 220.839C334.153 220.92 334.357 220.786 334.368 220.779C334.581 220.653 334.916 220.61 335.269 220.783C335.668 220.978 336.159 220.892 336.395 220.488C336.606 220.126 336.5 219.559 336.099 219.363V219.363Z" fill="#726A69"/>
<path d="M343.217 222.314C342.422 221.452 341.647 220.571 340.855 219.706C340.465 219.278 340.071 218.853 339.668 218.437C339.354 218.115 339.036 217.756 338.654 217.514C337.454 216.753 335.784 216.874 334.996 218.154C334.097 219.615 335.411 220.939 336.285 222.009C337.268 223.212 338.277 224.383 339.384 225.474C340.139 226.218 341.303 225.056 340.548 224.311C339.687 223.462 338.876 222.57 338.102 221.64C337.709 221.167 337.321 220.689 336.931 220.213C336.746 219.987 336.598 219.782 336.456 219.53C336.405 219.441 336.369 219.377 336.357 219.341C336.351 219.326 336.309 219.146 336.329 219.232C336.346 219.306 336.353 219.092 336.326 219.21C336.409 218.841 336.736 218.652 337.096 218.675C337.247 218.685 337.006 218.656 337.153 218.682C337.197 218.69 337.242 218.7 337.286 218.711C337.397 218.739 337.508 218.773 337.614 218.816C337.492 218.767 337.706 218.865 337.747 218.889C337.779 218.907 337.813 218.933 337.846 218.949C337.977 219.012 337.741 218.833 337.806 218.918C338.044 219.231 338.409 219.5 338.683 219.786C339.036 220.155 339.382 220.53 339.726 220.906C340.505 221.76 341.27 222.627 342.054 223.477C342.355 223.803 342.912 223.782 343.217 223.477C343.542 223.152 343.519 222.641 343.217 222.314H343.217Z" fill="#726A69"/>
<path d="M350.306 220.499C350.764 220.178 351.243 219.894 351.75 219.659C352.079 219.506 352.593 219.249 352.966 219.361C353.26 219.45 353.364 219.856 353.387 220.124C353.427 220.614 353.18 221.15 352.94 221.563C352.721 221.941 352.394 222.251 352.097 222.569C351.755 222.934 351.433 223.316 351.115 223.703C350.471 224.487 349.828 225.289 348.993 225.881C348.631 226.137 348.46 226.599 348.698 227.006C348.907 227.364 349.459 227.56 349.824 227.301C350.938 226.511 351.746 225.491 352.618 224.457C353 224.004 353.421 223.586 353.806 223.136C354.274 222.589 354.612 221.992 354.842 221.309C355.278 220.015 354.904 218.19 353.414 217.781C352.074 217.414 350.528 218.34 349.476 219.078C349.113 219.333 348.943 219.797 349.181 220.204C349.391 220.563 349.941 220.755 350.306 220.499Z" fill="#726A69"/>
<path d="M12.9379 176.464C13.2732 174.23 13.8371 170.712 14.1315 168.499L54.0417 153.972C55.69 155.479 58.383 157.811 60.0759 159.307" fill="#ECBB7A"/>
<path d="M13.7292 177.112C14.1281 174.457 14.5671 171.808 14.9228 169.146L14.4076 169.757L52.6837 155.826C53.1994 155.638 53.7542 155.487 54.2524 155.255C54.2731 155.245 54.2964 155.239 54.3181 155.231L53.531 155.094C55.514 156.904 57.5532 158.651 59.5652 160.429C60.3398 161.113 61.3659 159.878 60.5907 159.193C58.5786 157.416 56.5394 155.669 54.5564 153.859C54.3506 153.671 54.0251 153.629 53.7693 153.722L18.7571 166.465C17.1497 167.05 15.5094 167.582 13.9238 168.224C13.9024 168.233 13.8802 168.24 13.8582 168.248C13.6024 168.342 13.3798 168.583 13.343 168.859C12.9874 171.52 12.5484 174.169 12.1495 176.824C11.9958 177.846 13.5752 178.135 13.7292 177.112Z" fill="#D0903A"/>
<path d="M47.9403 145.191L47.8252 145.214C49.0876 147.803 52.9403 155.702 54.7483 159.409C54.6352 158.843 54.5646 158.49 54.5646 158.49L51.8278 144.758C51.7917 144.576 51.6155 144.459 51.4343 144.495L48.8505 145.01L47.9403 145.191Z" fill="white"/>
<path d="M8.33214 161.2C8.42672 161.153 26.4355 152.37 46.536 142.566C57.8952 165.856 68.7669 188.146 69.0435 188.714C55.4262 195.355 44.4566 200.705 30.8397 207.347C30.7473 207.158 8.33708 161.21 8.33214 161.2Z" fill="white"/>
<path d="M8.90477 161.808C11.7914 160.4 14.678 158.992 17.5644 157.585C23.3134 154.781 29.0624 151.977 34.8115 149.173C36.7352 148.234 38.6592 147.296 40.5829 146.358C41.563 145.88 42.5435 145.401 43.5236 144.923C44.0443 144.669 44.5651 144.415 45.0859 144.161C45.3352 144.04 45.5843 143.919 45.8336 143.797C46.0031 143.714 46.3627 143.482 46.5042 143.485L46.1008 143.412C45.9609 143.364 45.8704 143.005 45.9695 143.228C46.0052 143.308 46.0467 143.386 46.0854 143.465L46.5238 144.363L48.1453 147.688L53.4674 158.6L59.899 171.786C61.7393 175.56 63.5796 179.333 65.4203 183.106L67.2475 186.853L67.8188 188.024C67.9115 188.214 67.9884 188.441 68.1077 188.617C68.1332 188.654 68.1252 188.686 68.1251 188.684L68.1979 188.281C68.251 188.126 68.5966 188.055 68.4008 188.14C68.3338 188.169 68.269 188.204 68.2035 188.236L67.4581 188.6L64.71 189.94C61.7039 191.406 58.6977 192.873 55.6917 194.339C52.0725 196.104 48.4529 197.869 44.8337 199.634C41.7098 201.158 38.5857 202.682 35.4618 204.205L32.3721 205.713C31.9118 205.937 31.3417 206.122 30.9223 206.42C30.8853 206.446 30.8674 206.43 30.8698 206.43L31.2732 206.503C31.4147 206.551 31.5038 206.909 31.405 206.687C31.3694 206.607 31.3278 206.529 31.2892 206.45L30.8508 205.551L29.2293 202.227C27.4552 198.589 25.6813 194.952 23.9072 191.315C21.7632 186.919 19.6196 182.524 17.4756 178.128C15.6352 174.355 13.7949 170.582 11.9543 166.808L10.1271 163.062L9.55574 161.89C9.46306 161.7 9.38619 161.473 9.26682 161.298C9.24213 161.261 9.24872 161.228 9.2486 161.231L9.17584 161.635L9.09503 161.709C9.93846 161.114 9.01144 159.803 8.16458 160.4C7.31773 160.997 7.69643 161.72 8.02806 162.4L9.06349 164.523C10.3042 167.067 11.5446 169.611 12.7855 172.154C14.459 175.586 16.133 179.018 17.8066 182.449C19.5558 186.036 21.3053 189.622 23.0545 193.209C24.5033 196.179 25.9519 199.149 27.4006 202.12L29.7734 206.984C29.8262 207.092 29.8775 207.201 29.9315 207.308C30.2274 207.897 30.8346 208.192 31.4644 207.931C31.9439 207.731 32.4067 207.471 32.8731 207.243C35.2898 206.065 37.7064 204.886 40.1234 203.707C43.5999 202.012 47.0768 200.316 50.5534 198.62L60.9136 193.567L67.842 190.188C68.2307 189.999 68.622 189.814 69.0086 189.619C69.5976 189.323 69.8899 188.708 69.6222 188.08C69.5614 187.938 69.4852 187.8 69.4172 187.66C68.5711 185.925 67.7245 184.189 66.8784 182.454C65.3993 179.422 63.9204 176.389 62.4413 173.357L57.1918 162.594C55.5293 159.185 53.8665 155.776 52.2042 152.368C51.0045 149.908 49.8047 147.448 48.6051 144.988L47.6581 143.047C47.592 142.911 47.5271 142.775 47.4598 142.64C47.4202 142.56 47.3854 142.475 47.337 142.402C46.6714 141.392 45.5507 142.159 44.7618 142.544C38.0717 145.807 31.3817 149.07 24.6916 152.333C20.1953 154.526 15.6993 156.719 11.203 158.912C10.254 159.375 9.30531 159.837 8.3563 160.3C7.96667 160.49 7.71715 160.891 7.8766 161.329C8.01305 161.704 8.51328 162 8.90532 161.809L8.90477 161.808Z" fill="#726A69"/>
<path d="M20.7381 170.213C27.3968 166.965 34.0559 163.718 40.7147 160.47C42.6169 159.542 44.5192 158.614 46.4214 157.687C46.811 157.497 47.0605 157.096 46.9011 156.658C46.7646 156.283 46.2644 155.987 45.8723 156.178C39.2139 159.426 32.5554 162.673 25.897 165.921C23.9945 166.849 22.0915 167.777 20.189 168.705C19.7994 168.895 19.5499 169.295 19.7093 169.734C19.8458 170.108 20.346 170.404 20.7381 170.213Z" fill="#726A69"/>
<path d="M34.6136 155.48C29.0508 158.193 23.4878 160.906 17.925 163.619C17.5354 163.809 17.2859 164.21 17.4453 164.648C17.5818 165.023 18.082 165.319 18.474 165.128C24.0369 162.414 29.5998 159.701 35.1626 156.988C35.5522 156.798 35.8018 156.397 35.6423 155.959C35.5059 155.584 35.0056 155.289 34.6136 155.48Z" fill="#726A69"/>
<path d="M55.3666 158.425C54.9348 156.259 54.5033 154.093 54.0716 151.927C53.5949 149.535 53.1307 147.14 52.6414 144.75C52.5474 144.291 52.3396 143.935 51.8841 143.761C51.5363 143.627 51.2187 143.725 50.8736 143.793C50.1784 143.932 49.4837 144.071 48.7885 144.209C48.3638 144.294 48.0144 144.606 48.0525 145.073C48.0844 145.466 48.4891 145.894 48.9168 145.809L50.249 145.544L51.1263 145.369C51.2272 145.349 51.423 145.286 51.4991 145.309L51.13 145.136C51.0011 145.05 51.0093 144.673 51.0474 144.911C51.0629 145.008 51.0858 145.104 51.105 145.2L51.3048 146.202L51.9649 149.514L53.4321 156.876C53.5434 157.435 53.6549 157.994 53.7663 158.553C53.8511 158.978 54.1633 159.327 54.6306 159.289C55.0233 159.257 55.4518 158.853 55.3666 158.425Z" fill="#726A69"/>
<path d="M60.0755 159.309C59.9589 159.351 37.7387 167.438 12.9375 176.465L33.6616 233.404C50.4631 227.289 63.998 222.363 80.7996 216.247C80.7146 216.014 60.0802 159.321 60.0755 159.309Z" fill="#ECBB7A"/>
<path d="M59.8022 158.554C56.7766 159.655 53.751 160.757 50.7253 161.858C43.287 164.565 35.8486 167.273 28.4102 169.98C23.1616 171.89 17.9129 173.801 12.6642 175.711C12.2567 175.859 12.0359 176.331 12.1845 176.74L31.4294 229.614C31.9097 230.934 32.3572 232.272 32.8722 233.579C32.8853 233.612 32.8965 233.645 32.9086 233.679C33.057 234.086 33.5288 234.307 33.9373 234.158C40.1133 231.91 46.2891 229.663 52.4651 227.415C58.4463 225.238 64.4274 223.061 70.4086 220.884C73.9641 219.59 77.5199 218.296 81.0753 217.002C81.4829 216.853 81.7037 216.381 81.555 215.973C81.3628 215.445 81.1704 214.916 80.9781 214.388C80.4723 212.998 79.9665 211.608 79.4607 210.219C78.7176 208.177 77.9744 206.135 77.2313 204.093C76.3223 201.596 75.4133 199.099 74.5044 196.601C73.5146 193.882 72.5249 191.163 71.5351 188.443C70.5321 185.688 69.5291 182.932 68.5261 180.176C67.5958 177.62 66.6654 175.064 65.7351 172.508C64.9487 170.347 64.1624 168.187 63.376 166.026C62.8078 164.465 62.2395 162.904 61.6713 161.343C61.4033 160.606 61.1537 159.86 60.8663 159.131C60.8536 159.099 60.8426 159.066 60.8308 159.034C60.4775 158.063 58.9685 158.61 59.3224 159.583C59.5076 160.091 59.6929 160.601 59.8781 161.109C60.3784 162.484 60.8785 163.858 61.3788 165.233C62.118 167.263 62.8572 169.294 63.5963 171.325C64.5028 173.815 65.4092 176.306 66.3158 178.797C67.3046 181.513 68.2934 184.23 69.2822 186.947C70.2857 189.704 71.2893 192.461 72.2929 195.219C73.2253 197.78 74.1578 200.343 75.0902 202.904C75.8802 205.075 76.6701 207.245 77.4602 209.416C78.0335 210.991 78.607 212.567 79.1804 214.142C79.4539 214.893 79.6913 215.673 80.0054 216.409C80.0209 216.445 80.0329 216.484 80.0465 216.522L80.5262 215.493C74.3502 217.741 68.1745 219.988 61.9984 222.236C56.0173 224.413 50.0361 226.59 44.0549 228.767C40.4994 230.061 36.9437 231.356 33.3882 232.65L34.4169 233.129L13.693 176.191L13.2133 177.219C22.1129 173.98 31.0126 170.741 39.9125 167.502C45.7045 165.394 51.4965 163.286 57.2885 161.177C58.3096 160.806 59.3306 160.434 60.3513 160.063C61.322 159.709 60.7745 158.2 59.8022 158.554Z" fill="#D0903A"/>
<path d="M35.7535 168.16L53.7381 217.573C54.0914 218.543 55.6004 217.996 55.2465 217.023L37.2619 167.611C36.9086 166.641 35.3996 167.188 35.7535 168.16Z" fill="#D0903A"/>
<path d="M34.453 233.548C34.7263 231.73 35.0143 229.914 35.2865 228.096C35.3526 227.655 35.4179 227.214 35.4812 226.772C35.5119 226.558 35.5422 226.344 35.5721 226.13C35.5822 226.058 35.5997 225.98 35.6028 225.908C35.6171 225.569 35.7094 226.124 35.3422 226.116C35.377 226.117 35.4243 226.084 35.4575 226.074C36.1858 225.866 36.8996 225.549 37.6111 225.29L74.4287 211.89C74.5383 211.85 74.7403 211.819 74.8319 211.743C74.4472 212.062 74.2957 211.482 74.4976 211.751C74.5363 211.803 74.6186 211.861 74.6636 211.902C74.8089 212.033 74.9544 212.164 75.1005 212.294C75.4643 212.62 75.8297 212.945 76.1959 213.268C76.92 213.908 77.6469 214.545 78.3734 215.182C79.0124 215.742 79.6518 216.302 80.2886 216.864C81.0632 217.548 82.0893 216.314 81.314 215.629C79.9035 214.383 78.4821 213.149 77.073 211.902C76.7416 211.608 76.4107 211.314 76.0812 211.019C75.7315 210.705 75.3794 210.279 74.8978 210.183C74.6659 210.136 74.4368 210.187 74.2175 210.258C73.5396 210.478 72.874 210.747 72.2047 210.991L35.0964 224.497C34.7287 224.631 34.3852 224.756 34.1779 225.137C33.9876 225.486 33.9826 225.917 33.9273 226.305C33.8557 226.806 33.7819 227.308 33.7069 227.809C33.564 228.764 33.4166 229.719 33.2695 230.674C33.1365 231.536 33.0031 232.398 32.8735 233.26C32.7198 234.282 34.2992 234.57 34.4532 233.547L34.453 233.548Z" fill="#D0903A"/>
</g>
<defs>
<clipPath id="clip0_2421_23016">
<rect width="370" height="240" fill="white"/>
</clipPath>
</defs>
</svg>
