<svg width="370" height="240" viewBox="0 0 370 240" fill="none" xmlns="http://www.w3.org/2000/svg">
<g clip-path="url(#clip0_2421_23016)">
<path d="M278.722 186.294C278.152 183.951 276.112 176.7 275.384 175.772C274.887 175.137 274.298 174.648 273.206 175.114C272.27 175.514 272.422 176.594 272.599 177.487C272.794 178.471 273.954 183.112 274.629 185.525C274.107 184.938 273.228 184.727 272.527 185.046C271.785 185.385 271.498 186.018 271.581 186.476L271.741 187.351C271.257 187.039 270.537 187.074 270.004 187.359C269.363 187.702 268.716 188.621 269.032 189.285L269.456 190.174C269.39 190.119 269.324 190.065 269.324 190.065C268.509 189.395 267.095 189.808 266.865 190.701C266.688 191.386 266.986 192.195 267.368 192.822C267.413 192.897 267.462 192.977 267.513 193.06C267.561 193.207 267.587 193.29 267.587 193.29C268.105 194.892 269.112 197.34 270.621 199.084C271.321 199.893 272.13 200.695 272.765 201.563C273.586 202.684 273.61 203.964 274.194 205.358C276.873 204.502 280.161 203.033 282.764 201.732L282.636 201.143C282.394 200.027 282.128 198.577 282.286 197.632C282.276 197.446 283.107 194.967 283.352 194.506C283.708 193.839 283.866 192.507 283.798 191.891C283.687 190.874 283.423 189.421 282.667 188.361C282.515 188.151 282.329 187.98 282.115 187.841C282.091 187.822 282.063 187.807 282.038 187.794C281.846 187.676 281.635 187.583 281.409 187.512C281.322 187.484 281.232 187.459 281.139 187.438C281.093 187.425 281.046 187.416 281 187.407C280.953 187.394 280.91 187.385 280.866 187.379C280.798 187.364 280.73 187.354 280.662 187.345C280.615 187.339 280.572 187.333 280.528 187.327C280.519 187.327 280.507 187.323 280.495 187.323C279.97 187.262 279.428 187.262 278.933 187.283L278.848 186.85C278.823 186.725 278.78 186.536 278.721 186.295L278.722 186.294Z" fill="white"/>
<path d="M331.698 234.587C331.502 233.309 331.312 231.973 331.14 230.559H331.06C327.608 230.559 315.218 230.827 312.476 230.827C312.476 230.827 312.323 230.822 312.082 230.814C311.851 232.66 311.591 234.374 311.328 236C311.183 236.695 311.002 237.469 310.772 238.273L310.361 239.695C317.215 239.695 327 239.695 332.843 239.695C332.627 238.858 332.446 238.158 332.446 238.158C332.229 237.396 332.059 236.665 331.92 236C331.846 235.536 331.772 235.066 331.698 234.587Z" fill="white"/>
<path d="M315.175 230.798C313.982 230.815 313.03 230.826 312.475 230.826C312.475 230.826 312.311 230.829 312.078 230.835C312.56 226.991 312.917 222.571 312.917 217.172C312.917 209.705 312.482 202.371 312.294 199.173C312.072 195.332 311.72 191.873 311.6 188.326L312.387 188.504C314.988 189.2 318.648 189.789 321.383 189.796C324.251 189.804 328.333 189.35 331.135 188.235L331.182 188.22C331.27 191.867 331.166 195.52 330.958 199.173C330.771 202.371 330.335 209.705 330.335 217.172C330.335 222.441 330.675 226.777 331.138 230.556L331.059 230.557C328.306 230.557 319.87 230.728 315.175 230.797V230.798Z" fill="#95D9FF"/>
<path d="M337.645 184.518C342.277 186.304 346.036 182.152 346.006 178.666C345.988 176.534 345.666 174.889 345.005 172.832C344.181 170.266 342.584 165.053 342.469 155.74C342.698 153.118 342.46 149.331 342.356 147.875C341.997 142.83 339.741 137.195 336.495 134.064C335.091 132.709 332.85 130.699 329.49 129.459C327.233 128.59 325.135 128.171 321.176 128.171C314.683 128.171 308.905 131.516 306.341 133.971C302.087 138.043 299.389 145.482 299.729 155.739C299.73 163.215 299.161 168.607 298.363 171.67C297.817 173.767 297.355 177.258 297.337 179.39C297.308 182.876 300.82 186.699 305.999 185.518L337.645 184.518Z" fill="#726A69"/>
<path d="M313.452 180.107C313.729 179.836 313.926 179.584 314.016 179.364C314.449 178.288 314.371 176.826 314.374 175.627C312.478 174.806 310.74 173.418 309.195 171.568C307.502 169.542 306.546 167.287 305.985 165.302C305.588 165.24 305.352 165.204 305.352 165.204C304.635 165.094 303.961 164.768 303.41 164.329C302.693 163.749 302.178 162.988 301.782 162.192C300.97 160.559 300.617 158.732 300.772 156.941C300.815 156.486 300.889 156.02 301.118 155.611C301.443 155.027 302.09 154.599 302.8 154.493C303.724 154.355 304.733 154.776 305.17 155.556C307.81 150.991 317.356 145.726 325.31 144.018C325.31 144.018 325.609 143.973 326.099 143.904C327.98 143.64 329.885 144.283 331.197 145.657C334.151 148.753 335.951 152.535 337.002 155.988C337.587 155.458 338.013 155.073 338.013 155.073C338.526 154.611 339.285 154.387 339.995 154.494C340.705 154.6 341.351 155.028 341.676 155.611C341.906 156.021 341.98 156.487 342.022 156.941C342.177 158.733 341.824 160.56 341.012 162.192C340.617 162.988 340.101 163.75 339.384 164.329C338.833 164.769 338.159 165.094 337.443 165.205C337.443 165.205 337.321 165.223 337.11 165.256C336.951 165.852 336.772 166.354 336.684 166.621C336.103 168.198 332.779 173.761 328.642 175.554C328.647 176.764 328.56 178.27 329.004 179.365C329.303 180.102 330.701 181.195 332.171 182.189C332.171 182.189 334.703 183.948 334.284 185.509C333.83 187.205 331.136 188.237 331.136 188.237C328.334 189.351 324.252 189.805 321.383 189.798C318.649 189.791 314.989 189.201 312.387 188.505C312.387 188.505 309.134 187.513 308.731 186.043C308.084 183.682 310.699 182.117 310.699 182.117C311.789 181.441 312.825 180.724 313.453 180.107L313.452 180.107Z" fill="white"/>
<path d="M338.594 155.655C339.26 155.09 340.386 155.189 340.899 155.912C341.192 156.325 341.209 156.915 341.228 157.402C341.25 157.994 341.226 158.595 341.127 159.18C340.763 161.347 339.636 163.991 337.223 164.411C336.785 164.487 336.539 165.024 336.649 165.423C336.776 165.885 337.222 166.073 337.661 165.997C340.986 165.418 342.575 161.635 342.842 158.634C342.97 157.191 342.929 155.394 341.71 154.399C340.439 153.361 338.665 153.445 337.432 154.491C337.093 154.779 337.135 155.359 337.432 155.655C337.767 155.991 338.255 155.943 338.595 155.655H338.594Z" fill="#726A69"/>
<path d="M336.596 163.36C336.572 164.063 336.411 164.745 336.212 165.417C336.133 165.68 336.047 165.941 335.96 166.201C335.931 166.287 335.772 166.686 335.877 166.45C335.563 167.154 335.182 167.824 334.773 168.477C333.594 170.359 332.153 172.146 330.403 173.529C329.435 174.293 328.349 174.904 327.148 175.181C326.117 175.419 326.554 177.005 327.586 176.767C330.062 176.196 332.139 174.422 333.778 172.556C335.128 171.018 336.402 169.273 337.246 167.397C337.809 166.148 338.195 164.729 338.242 163.361C338.278 162.301 336.633 162.303 336.596 163.36Z" fill="#726A69"/>
<path d="M305.362 154.491C304.128 153.445 302.354 153.361 301.083 154.399C299.865 155.394 299.823 157.19 299.952 158.633C300.219 161.635 301.807 165.418 305.133 165.997C305.57 166.073 306.019 165.88 306.144 165.422C306.253 165.026 306.01 164.487 305.57 164.411C303.158 163.991 302.029 161.347 301.666 159.179C301.568 158.594 301.543 157.994 301.566 157.402C301.584 156.917 301.601 156.338 301.889 155.925C302.399 155.194 303.526 155.084 304.199 155.655C304.538 155.942 305.03 155.987 305.362 155.655C305.657 155.36 305.702 154.78 305.362 154.491Z" fill="#726A69"/>
<path d="M304.659 163.143C305.565 168.365 308.403 173.483 313.245 175.997C314.569 176.684 315.977 177.1 317.458 177.254C317.901 177.301 318.281 176.843 318.281 176.432C318.281 175.948 317.902 175.655 317.458 175.609C312.527 175.095 308.683 170.66 307.136 166.218C306.738 165.075 306.452 163.897 306.245 162.705C306.169 162.267 305.632 162.021 305.234 162.131C304.771 162.258 304.583 162.704 304.659 163.143Z" fill="#726A69"/>
<path d="M305.781 184.725C303.584 185.209 301.272 184.719 299.691 183.061C299.039 182.378 298.568 181.555 298.326 180.658C298.074 179.72 298.162 178.684 298.246 177.644C298.353 176.315 298.528 174.992 298.769 173.681C298.947 172.71 299.21 171.761 299.411 170.796C299.851 168.681 300.086 166.519 300.252 164.366C300.485 161.376 300.618 158.347 300.541 155.347C300.467 152.488 300.613 149.608 301.117 146.789C301.876 142.552 303.435 138.205 306.407 135.071C307.863 133.537 309.639 132.378 311.53 131.418C313.963 130.183 316.648 129.333 319.371 129.08C320.881 128.939 322.416 128.974 323.928 129.081C325.052 129.16 326.166 129.316 327.259 129.599C329.647 130.217 331.906 131.32 333.855 132.833C335.667 134.238 337.231 135.89 338.401 137.868C339.808 140.243 340.743 142.894 341.243 145.605C341.666 147.903 341.719 150.305 341.741 152.636C341.754 154.004 341.632 155.368 341.665 156.735C341.702 158.26 341.782 159.785 341.914 161.305C342.246 165.13 342.909 168.919 344.064 172.584C344.42 173.714 344.765 174.842 344.966 176.011C345.172 177.202 345.33 178.594 345.067 179.713C344.615 181.645 343.105 183.395 341.153 183.945C340.046 184.258 338.931 184.125 337.864 183.725C337.448 183.569 336.962 183.899 336.852 184.3C336.725 184.761 337.009 185.155 337.427 185.312C339.908 186.241 342.61 185.653 344.519 183.829C345.388 182.998 346.046 181.959 346.452 180.831C346.881 179.639 346.869 178.392 346.758 177.145C346.564 174.951 345.851 172.923 345.252 170.824C344.733 169.004 344.336 167.15 344.039 165.28C343.594 162.482 343.384 159.647 343.313 156.815C343.276 155.377 343.402 153.941 343.385 152.501C343.37 151.239 343.315 149.978 343.236 148.719C343.065 145.983 342.565 143.312 341.585 140.744C340.59 138.136 339.201 135.589 337.205 133.608C335.423 131.839 333.389 130.285 331.097 129.24C328.805 128.195 326.433 127.611 323.928 127.434C320.773 127.212 317.645 127.437 314.618 128.392C312.096 129.187 309.656 130.372 307.521 131.937C303.919 134.578 301.677 138.489 300.397 142.713C299.59 145.374 299.162 148.149 298.979 150.92C298.874 152.5 298.873 154.078 298.905 155.661C298.938 157.324 298.882 158.996 298.818 160.658C298.721 163.215 298.549 165.837 298.18 168.332C297.867 170.45 297.268 172.504 296.955 174.622C296.75 176.004 296.586 177.397 296.531 178.793C296.488 179.872 296.608 180.911 297.025 181.915C297.932 184.095 299.858 185.756 302.155 186.322C303.495 186.653 304.877 186.606 306.219 186.311C307.252 186.084 306.815 184.497 305.781 184.725Z" fill="#726A69"/>
<path d="M327.817 175.978C327.813 176.702 327.803 177.429 327.889 178.15C327.969 178.809 328.082 179.533 328.469 180.092C329.282 181.266 330.593 182.11 331.755 182.899C332.123 183.148 332.667 182.969 332.881 182.604C333.118 182.198 332.954 181.728 332.586 181.478C332.032 181.103 331.483 180.72 330.965 180.296C330.739 180.11 330.517 179.918 330.307 179.714C330.215 179.625 330.125 179.534 330.039 179.439C329.996 179.391 329.953 179.342 329.912 179.293C329.828 179.192 330.003 179.441 329.889 179.262C329.84 179.183 329.79 179.108 329.748 179.024C329.703 178.935 329.793 179.157 329.746 179.011C329.721 178.934 329.694 178.857 329.671 178.779C329.596 178.518 329.542 178.23 329.517 177.993C329.448 177.324 329.459 176.649 329.463 175.978C329.47 174.919 327.825 174.918 327.818 175.978H327.817Z" fill="#726A69"/>
<path d="M313.554 176.05C313.558 176.708 313.567 177.369 313.498 178.024C313.474 178.249 313.412 178.567 313.332 178.833C313.309 178.909 313.284 178.984 313.257 179.059C313.276 179.007 313.304 178.979 313.263 179.043C313.234 179.089 313.075 179.324 313.19 179.178C312.44 180.128 311.302 180.773 310.284 181.406C309.907 181.641 309.76 182.141 309.989 182.532C310.209 182.908 310.736 183.063 311.114 182.827C311.779 182.414 312.435 181.984 313.057 181.509C313.596 181.098 314.119 180.672 314.523 180.123C314.898 179.612 315.022 178.951 315.104 178.337C315.206 177.577 315.204 176.815 315.199 176.05C315.192 174.992 313.547 174.99 313.554 176.05Z" fill="#726A69"/>
<path d="M299.395 223.181C297.96 225.012 296.029 227.44 294.25 228.74C291.971 230.406 288.99 231.195 285.658 230.318C281.766 229.294 279.549 225.86 277.929 222.176C275.598 216.873 273.939 211.177 272.285 205.882C275.603 205.163 280.89 202.741 284.209 200.993C285.251 203.55 286.194 205.887 287.2 208.289C289.903 201.569 290.205 198.09 292.641 191.73C293.072 190.605 293.615 189.681 294.437 188.8C295.209 187.973 296.405 187.742 297.424 187.249C300.735 185.65 306.052 184.219 309.276 182.492L309.595 182.322C310.351 181.528 311.117 180.783 311.858 180.142C311.129 186.974 311.908 192.496 312.295 199.174C312.482 202.372 312.918 209.706 312.918 217.172C312.918 225.153 312.137 230.993 311.328 235.999C311.183 236.695 311.001 237.468 310.771 238.272L310.36 239.872C305.072 239.873 298.611 239.873 298.611 239.873C299.506 233.253 300.554 224.252 300.554 222.825C300.554 222.469 300.546 222.109 300.53 221.747C300.208 222.142 299.824 222.635 299.395 223.182V223.181Z" fill="white"/>
<path d="M345.011 186.783C341.588 185.418 336.87 183.982 334.183 182.543C334.183 182.543 334.164 182.533 334.127 182.512C333.016 181.435 331.828 180.425 330.567 179.532C331.37 186.056 331.332 192.616 330.959 199.173C330.771 202.372 330.336 209.705 330.336 217.172C330.336 225.152 331.116 230.993 331.92 235.999C332.059 236.664 332.229 237.396 332.446 238.157L332.859 239.694C337.861 239.694 344.65 239.694 344.65 239.694C343.774 233.128 342.7 224.234 342.7 222.825L356.703 207.539C354.405 201.539 354.002 198.097 351.704 192.097C351.271 190.969 350.727 190.042 349.903 189.159C349.129 188.329 347.93 188.098 346.909 187.605C346.349 187.334 345.707 187.06 345.011 186.783Z" fill="white"/>
<path d="M312.169 189.298C314.682 189.964 317.286 190.396 319.881 190.565C322.364 190.727 324.883 190.522 327.332 190.099C328.7 189.862 330.061 189.537 331.356 189.03C331.769 188.868 332.057 188.478 331.93 188.018C331.822 187.624 331.334 187.28 330.918 187.443C328.69 188.317 326.267 188.698 323.891 188.878C321.514 189.059 319.133 188.941 316.768 188.573C315.368 188.355 313.976 188.075 312.607 187.712C311.582 187.44 311.145 189.027 312.169 189.298L312.169 189.298Z" fill="#64C7FF"/>
<path d="M308.862 181.782C306.903 182.822 304.786 183.542 302.705 184.291C301.595 184.69 300.485 185.087 299.388 185.518C298.385 185.912 297.42 186.4 296.418 186.79C295.278 187.233 294.275 187.678 293.482 188.645C292.656 189.653 292.125 190.769 291.67 191.983C290.811 194.274 290.1 196.612 289.427 198.964C288.659 201.645 287.856 204.308 286.861 206.915C286.703 207.33 287.037 207.817 287.436 207.927C287.899 208.054 288.289 207.769 288.448 207.353C290.145 202.906 291.187 198.261 292.764 193.776C293.168 192.627 293.549 191.449 294.211 190.417C294.506 189.956 294.862 189.451 295.302 189.118C295.688 188.825 296.16 188.645 296.608 188.472C297.576 188.097 298.504 187.634 299.466 187.247C300.528 186.82 301.605 186.431 302.683 186.043C305.048 185.191 307.466 184.385 309.692 183.203C310.627 182.707 309.797 181.286 308.862 181.782Z" fill="#726A69"/>
<path d="M290.776 214.464C288.736 209.949 286.872 205.362 285.003 200.775C284.799 200.274 284.308 200.014 283.795 200.284C281.868 201.297 279.899 202.236 277.896 203.087C276.012 203.888 274.072 204.648 272.068 205.09C271.644 205.184 271.366 205.694 271.493 206.102C272.549 209.486 273.567 212.883 274.736 216.23C275.34 217.958 275.984 219.673 276.692 221.361C277.276 222.753 277.887 224.137 278.659 225.439C280.111 227.889 282.135 230.027 284.892 230.95C287.892 231.954 291.28 231.575 293.973 229.918C296.757 228.205 298.715 225.356 300.708 222.835C300.983 222.487 301.048 222.012 300.708 221.672C300.422 221.386 299.821 221.322 299.544 221.672C297.846 223.82 296.201 226.156 294.043 227.874C291.831 229.634 288.922 230.246 286.179 229.603C283.611 229 281.716 227.223 280.341 225.038C278.698 222.428 277.624 219.445 276.591 216.555C275.307 212.962 274.215 209.306 273.079 205.665L272.505 206.677C274.605 206.214 276.626 205.399 278.6 204.562C280.646 203.694 282.657 202.739 284.625 201.705L283.416 201.213C285.339 205.932 287.257 210.651 289.355 215.295C289.538 215.699 290.125 215.797 290.48 215.59C290.897 215.346 290.959 214.871 290.776 214.464V214.464Z" fill="#726A69"/>
<path d="M279.64 186.631C279.393 185.391 279.022 184.168 278.681 182.953C278.193 181.216 277.686 179.481 277.104 177.774C276.655 176.46 276.21 174.821 274.78 174.257C273.604 173.793 272.05 174.442 271.728 175.703C271.507 176.565 271.747 177.486 271.943 178.332C272.488 180.696 273.094 183.05 273.736 185.39C274.016 186.409 275.604 185.976 275.323 184.952C274.777 182.964 274.269 180.964 273.782 178.96C273.621 178.296 273.44 177.629 273.333 176.954C273.282 176.633 273.228 176.187 273.376 175.984C273.514 175.792 274.016 175.698 274.244 175.805C274.369 175.864 274.482 175.984 274.602 176.115C274.642 176.159 274.788 176.354 274.688 176.208C274.711 176.24 274.735 176.272 274.753 176.307C274.843 176.471 274.925 176.638 275.001 176.809C275.059 176.938 274.939 176.648 275.016 176.845C275.039 176.902 275.062 176.958 275.084 177.015C275.141 177.161 275.197 177.308 275.251 177.455C275.367 177.77 275.477 178.088 275.584 178.407C276.118 179.993 276.59 181.601 277.045 183.212C277.404 184.486 277.795 185.769 278.054 187.069C278.141 187.505 278.66 187.755 279.066 187.643C279.52 187.518 279.728 187.068 279.64 186.631L279.64 186.631Z" fill="#726A69"/>
<path d="M266.793 193.509C267.418 195.431 268.26 197.345 269.48 198.968C270.193 199.917 271.053 200.738 271.802 201.656C272.533 202.552 272.756 203.567 273.074 204.652C273.371 205.666 274.959 205.234 274.66 204.214C274.343 203.133 274.111 202.011 273.428 201.087C272.696 200.095 271.804 199.247 271.026 198.295C269.794 196.788 268.978 194.909 268.379 193.072C268.053 192.069 266.464 192.498 266.793 193.509Z" fill="#726A69"/>
<path d="M279.818 192.763C279.736 192.207 279.574 191.652 279.425 191.111C279.284 190.603 278.997 190.16 278.548 189.872C278.089 189.578 277.559 189.518 277.032 189.444C276.902 189.425 276.77 189.38 276.636 189.373C276.508 189.365 276.55 189.34 276.618 189.384C276.764 189.479 276.53 189.246 276.502 189.171C276.447 189.027 276.448 188.925 276.487 188.783C276.5 188.739 276.69 188.355 276.604 188.439C276.859 188.193 277.601 188.198 277.945 188.17C278.423 188.13 278.903 188.098 279.383 188.093C279.967 188.087 280.38 188.108 280.85 188.215C281.238 188.304 281.649 188.438 281.921 188.745C282.208 189.068 282.398 189.506 282.539 189.91C282.804 190.67 283.007 191.525 282.988 192.335C282.957 193.696 282.296 194.853 281.868 196.135C281.765 196.446 281.662 196.758 281.572 197.073C281.546 197.164 281.518 197.256 281.5 197.349C281.483 197.437 281.475 197.527 281.463 197.616C281.497 197.359 281.44 197.784 281.433 197.858C281.328 199.021 281.599 200.231 281.842 201.361C282.064 202.396 283.65 201.958 283.428 200.924C283.19 199.815 283.04 198.764 283.107 197.632C283.1 197.758 283.056 197.841 283.114 197.67C283.154 197.554 283.181 197.431 283.217 197.313C283.329 196.942 283.452 196.574 283.578 196.207C283.686 195.892 283.797 195.578 283.916 195.267C283.942 195.198 283.97 195.129 283.996 195.06C284.077 194.853 283.925 195.206 284.006 195.036C284.097 194.845 284.189 194.656 284.263 194.458C284.569 193.642 284.706 192.65 284.607 191.784C284.484 190.699 284.259 189.637 283.785 188.647C283.263 187.555 282.399 186.87 281.217 186.613C280.096 186.37 278.928 186.433 277.794 186.538C277.241 186.589 276.662 186.641 276.141 186.846C275.55 187.078 275.228 187.504 274.996 188.086C274.534 189.243 275.072 190.757 276.382 190.998C276.745 191.065 277.481 191.021 277.743 191.319C277.909 191.508 277.922 191.897 277.986 192.132C278.083 192.486 278.178 192.836 278.231 193.2C278.296 193.64 278.853 193.882 279.243 193.774C279.715 193.645 279.883 193.204 279.818 192.763Z" fill="#726A69"/>
<path d="M270.636 193.388C270.674 193.524 270.644 193.212 270.641 193.401C270.637 193.597 270.684 193.295 270.638 193.432C270.62 193.486 270.525 193.695 270.62 193.521C270.579 193.595 270.544 193.671 270.499 193.742C270.477 193.778 270.45 193.812 270.428 193.848C270.433 193.839 270.523 193.744 270.46 193.807C270.409 193.858 270.365 193.916 270.313 193.966C270.308 193.971 270.242 194.044 270.225 194.046C270.227 194.046 270.391 193.942 270.255 194.02C270.232 194.033 270.209 194.047 270.187 194.062C270.035 194.162 270.224 194.045 270.224 194.051C270.224 194.055 269.959 194.122 270.088 194.092C270.2 194.065 270.065 194.093 270.034 194.094C270 194.096 269.966 194.098 269.932 194.098C269.89 194.098 269.611 194.074 269.804 194.102C269.711 194.088 269.618 194.068 269.527 194.043C269.482 194.031 269.437 194.016 269.393 194.002C269.38 193.998 269.271 193.956 269.361 193.992C269.443 194.026 269.247 193.931 269.215 193.912C269.177 193.889 269.141 193.864 269.104 193.839C269.13 193.857 269.228 193.95 269.124 193.849C269.059 193.787 268.995 193.726 268.935 193.661C268.878 193.599 268.827 193.533 268.772 193.471C268.689 193.375 268.838 193.566 268.764 193.461C268.743 193.43 268.719 193.4 268.697 193.37C268.581 193.207 268.47 193.04 268.363 192.871C268.168 192.564 267.976 192.256 267.821 191.927C267.811 191.905 267.766 191.781 267.812 191.904C267.798 191.866 267.784 191.829 267.771 191.792C267.74 191.705 267.713 191.617 267.69 191.528C267.677 191.478 267.668 191.426 267.655 191.376C267.647 191.346 267.632 191.215 267.648 191.367C267.637 191.266 267.642 191.166 267.636 191.066C267.634 191.033 267.653 190.903 267.628 191.065C267.633 191.028 267.641 190.992 267.649 190.957C267.658 190.921 267.676 190.883 267.68 190.846C267.691 190.762 267.663 190.925 267.646 190.923C267.645 190.923 267.691 190.844 267.696 190.833C267.748 190.722 267.706 190.896 267.657 190.873C267.659 190.874 267.793 190.732 267.803 190.722C267.893 190.631 267.767 190.767 267.762 190.751C267.761 190.745 267.845 190.697 267.854 190.692C267.885 190.673 267.919 190.658 267.95 190.639C268.074 190.563 267.841 190.661 267.932 190.643C268.005 190.629 268.076 190.594 268.148 190.577C268.185 190.569 268.224 190.564 268.26 190.554C268.356 190.528 268.061 190.56 268.241 190.56C268.317 190.56 268.394 190.561 268.471 190.561C268.604 190.562 268.421 190.555 268.423 190.553C268.432 190.545 268.523 190.573 268.536 190.577C268.573 190.586 268.609 190.6 268.647 190.609C268.786 190.643 268.572 190.548 268.637 190.603C268.68 190.638 268.91 190.78 268.742 190.648C269.079 190.913 269.58 191.002 269.905 190.648C270.177 190.352 270.266 189.769 269.905 189.485C269.084 188.839 267.996 188.731 267.071 189.244C266.074 189.798 265.832 190.92 266.103 191.966C266.239 192.489 266.494 192.974 266.775 193.432C267.049 193.879 267.338 194.318 267.678 194.718C268.371 195.533 269.495 195.915 270.543 195.67C271.626 195.417 272.531 194.041 272.223 192.951C272.106 192.537 271.636 192.239 271.211 192.377C270.79 192.513 270.511 192.945 270.637 193.388L270.636 193.388Z" fill="#726A69"/>
<path d="M272.574 186.99C271.637 185.96 269.971 186.197 269.023 187.066C268.53 187.517 268.128 188.197 268.126 188.881C268.124 189.54 268.535 190.155 268.858 190.705C269.374 191.582 269.991 192.426 270.578 193.258C270.842 193.631 271.111 194.03 271.462 194.328C271.945 194.739 272.644 194.928 273.272 194.901C274.918 194.83 275.835 193.223 275.42 191.706C275.14 190.686 273.553 191.119 273.833 192.143C273.859 192.238 273.883 192.329 273.89 192.408C273.894 192.458 273.892 192.508 273.892 192.557C273.892 192.568 273.871 192.718 273.889 192.618C273.847 192.849 273.835 192.863 273.706 193.038C273.782 192.934 273.634 193.1 273.608 193.128C273.546 193.195 273.623 193.124 273.637 193.114C273.61 193.134 273.581 193.153 273.553 193.171C273.431 193.247 273.37 193.258 273.179 193.257C272.989 193.256 272.921 193.242 272.708 193.174C272.682 193.165 272.646 193.124 272.549 193.1C272.537 193.097 272.438 193.035 272.56 193.114C272.675 193.187 272.549 193.101 272.528 193.079C272.429 192.977 272.337 192.873 272.246 192.764C272.188 192.695 272.251 192.773 272.259 192.784C272.227 192.743 272.196 192.7 272.165 192.659C272.109 192.582 272.053 192.505 271.999 192.427C271.588 191.846 271.187 191.255 270.783 190.669C270.492 190.247 270.228 189.806 269.987 189.353C269.932 189.25 269.881 189.142 269.824 189.039C269.764 188.93 269.793 189.02 269.768 188.909C269.789 188.999 269.77 188.882 269.769 188.886C269.789 188.779 269.831 188.688 269.847 188.659C269.95 188.464 270.041 188.351 270.221 188.197C270.336 188.099 270.471 188.035 270.63 187.992C270.783 187.952 270.952 187.937 271.087 187.962C271 187.946 271.169 187.986 271.186 187.992C271.32 188.036 271.091 187.955 271.222 188.002C271.36 188.051 271.293 188.022 271.412 188.153C271.711 188.481 272.271 188.456 272.575 188.153C272.902 187.826 272.875 187.319 272.575 186.989L272.574 186.99Z" fill="#726A69"/>
<path d="M276.314 190.462C276.326 190.697 276.333 190.838 276.239 191.051C276.283 190.95 276.121 191.228 276.173 191.157C276.189 191.136 275.994 191.33 276.027 191.305C275.931 191.378 275.879 191.393 275.736 191.438C275.596 191.483 275.68 191.457 275.727 191.451C275.687 191.456 275.643 191.461 275.603 191.458C275.557 191.455 275.534 191.451 275.481 191.426C275.166 191.276 274.956 190.934 274.761 190.614C274.439 190.087 274.109 189.565 273.775 189.045C273.221 188.182 272.631 187.317 272.392 186.345C272.389 186.332 272.359 186.187 272.382 186.3C272.407 186.419 272.423 186.205 272.385 186.308C272.34 186.429 272.463 186.085 272.395 186.244C272.458 186.095 272.512 186.025 272.652 185.92C272.974 185.677 273.336 185.662 273.676 185.82C274.064 186.001 274.345 186.444 274.594 186.771C274.9 187.172 275.198 187.582 275.465 188.011C276.024 188.907 277.448 188.082 276.885 187.18C276.553 186.648 276.175 186.144 275.791 185.648C275.399 185.143 275.005 184.631 274.411 184.354C273.052 183.72 271.188 184.311 270.801 185.871C270.638 186.528 270.895 187.193 271.157 187.787C271.448 188.445 271.833 189.058 272.219 189.664C272.623 190.298 273.017 190.94 273.421 191.576C273.801 192.174 274.293 192.741 274.974 192.992C275.704 193.261 276.526 193.012 277.108 192.535C277.723 192.032 277.999 191.243 277.959 190.463C277.937 190.019 277.597 189.64 277.137 189.64C276.708 189.64 276.291 190.017 276.314 190.463L276.314 190.462Z" fill="#726A69"/>
<path d="M334.481 183.612C338.39 185.473 342.631 186.517 346.554 188.342C347.527 188.795 348.675 189.022 349.421 189.845C350.237 190.745 350.729 191.817 351.148 192.944C351.993 195.211 352.693 197.524 353.358 199.849C354.121 202.515 354.921 205.164 355.912 207.757C356.07 208.172 356.466 208.457 356.924 208.332C357.321 208.223 357.658 207.737 357.498 207.32C355.721 202.667 354.653 197.795 352.959 193.116C352.519 191.901 352.081 190.671 351.325 189.609C350.971 189.112 350.583 188.612 350.101 188.232C349.591 187.83 349.014 187.575 348.413 187.337C347.452 186.957 346.521 186.514 345.565 186.123C344.514 185.694 343.448 185.304 342.381 184.919C340.009 184.063 337.591 183.277 335.311 182.191C334.91 182.001 334.423 182.08 334.185 182.487C333.976 182.845 334.078 183.42 334.48 183.612H334.481Z" fill="#726A69"/>
<path d="M294.762 188.569C295.422 195.552 296.347 202.534 297.581 209.439C297.851 210.953 298.141 212.464 298.477 213.965C298.927 215.975 299.376 217.98 299.584 220.033C299.714 221.318 299.774 222.602 299.669 223.889C299.569 225.121 299.436 226.351 299.3 227.58C298.858 231.611 298.361 235.636 297.818 239.654C297.759 240.094 297.924 240.537 298.393 240.666C298.776 240.771 299.345 240.535 299.405 240.091C299.904 236.391 300.367 232.685 300.789 228.975C301.064 226.561 301.46 224.1 301.349 221.664C301.177 217.872 300.151 214.227 299.447 210.518C298.775 206.982 298.232 203.421 297.74 199.856C297.221 196.103 296.763 192.34 296.407 188.569C296.365 188.127 296.058 187.746 295.584 187.746C295.172 187.746 294.719 188.124 294.762 188.569V188.569Z" fill="#726A69"/>
<path d="M312.474 231.65C317.535 231.647 322.597 231.487 327.657 231.415C328.791 231.398 329.925 231.381 331.059 231.381C332.118 231.381 332.119 229.735 331.059 229.736C325.876 229.738 320.692 229.892 315.509 229.971C314.498 229.986 313.486 230.004 312.474 230.005C311.416 230.005 311.414 231.65 312.474 231.65Z" fill="#64C7FF"/>
<path d="M310.967 180.817C310.586 184.973 310.76 189.128 311.061 193.282C311.304 196.652 311.535 200.02 311.707 203.394C312.11 211.329 312.374 219.316 311.647 227.24C311.484 229.023 311.275 230.802 311.024 232.575C310.762 234.423 310.486 236.254 309.978 238.054C309.69 239.075 311.277 239.511 311.565 238.492C312.026 236.857 312.292 235.204 312.537 233.526C312.772 231.913 312.981 230.295 313.152 228.673C313.557 224.825 313.742 220.957 313.741 217.087C313.738 209.672 313.372 202.25 312.822 194.856C312.475 190.177 312.183 185.502 312.613 180.817C312.654 180.374 312.206 179.995 311.791 179.995C311.312 179.995 311.009 180.373 310.968 180.817H310.967Z" fill="#726A69"/>
<path d="M309.542 212.421C308.557 209.516 307.645 206.587 306.72 203.663C306.259 202.208 305.797 200.753 305.32 199.303C305.138 198.749 304.952 198.195 304.82 197.626C304.762 197.376 304.723 197.139 304.715 196.884C304.711 196.756 304.707 196.921 304.702 196.94C304.712 196.898 304.721 196.854 304.736 196.813C304.788 196.66 304.755 196.74 304.804 196.639C305.389 195.442 306.339 194.387 307.256 193.436C307.558 193.124 307.585 192.582 307.256 192.273C306.656 191.708 306.089 191.112 305.56 190.48C305.314 190.185 305.095 189.868 304.852 189.57C304.772 189.472 304.807 189.388 304.781 189.498C304.805 189.399 304.94 189.265 305.001 189.18C305.692 188.202 306.425 187.254 307.18 186.325C308.918 184.188 310.771 182.085 312.905 180.332C313.249 180.05 313.198 179.461 312.905 179.169C312.565 178.829 312.087 178.886 311.742 179.169C309.919 180.666 308.312 182.425 306.794 184.224C306.036 185.121 305.305 186.039 304.594 186.973C304.3 187.359 304.012 187.749 303.728 188.142C303.359 188.656 303.004 189.195 303.179 189.862C303.359 190.551 304 191.171 304.447 191.703C304.961 192.313 305.512 192.89 306.093 193.437V192.273C305.17 193.23 304.272 194.276 303.594 195.423C303.341 195.851 303.095 196.33 303.071 196.836C303.041 197.492 303.249 198.187 303.436 198.809C304.33 201.791 305.334 204.746 306.277 207.713C306.823 209.432 307.377 211.15 307.956 212.859C308.294 213.856 309.883 213.428 309.542 212.421L309.542 212.421Z" fill="#726A69"/>
<path d="M345.472 239.694C344.987 236.06 344.527 232.421 344.104 228.779C343.826 226.378 343.433 223.941 343.556 221.518C343.745 217.794 344.787 214.204 345.468 210.555C346.124 207.041 346.66 203.504 347.145 199.962C347.665 196.174 348.132 192.377 348.492 188.57C348.533 188.127 348.083 187.747 347.669 187.747C347.189 187.747 346.889 188.125 346.846 188.57C346.196 195.447 345.285 202.322 344.064 209.122C343.415 212.738 342.412 216.299 342.032 219.959C341.899 221.247 341.829 222.54 341.937 223.832C342.04 225.076 342.18 226.318 342.32 227.559C342.776 231.61 343.288 235.654 343.827 239.694C343.886 240.135 344.163 240.517 344.65 240.517C345.049 240.517 345.531 240.138 345.472 239.694Z" fill="#726A69"/>
<path d="M332.688 181.856C334.283 183.368 335.711 185.008 337.003 186.785C337.334 187.24 337.66 187.699 337.985 188.158C338.17 188.42 338.355 188.682 338.54 188.944C338.634 189.076 338.72 189.251 338.835 189.364C338.863 189.391 338.95 189.6 338.942 189.425C338.949 189.586 338.629 189.881 338.535 190.001C338.315 190.285 338.083 190.562 337.846 190.833C337.405 191.336 336.938 191.815 336.451 192.274C336.125 192.582 336.149 193.126 336.451 193.437C337.164 194.171 337.915 194.895 338.527 195.716C338.748 196.012 338.938 196.301 339.003 196.552C339.012 196.587 339.035 196.442 338.993 196.6C338.986 196.623 338.988 196.644 338.97 196.751C338.93 196.974 338.887 197.196 338.839 197.417C338.358 199.621 337.523 201.753 336.854 203.905C336.54 204.918 338.127 205.352 338.441 204.342C338.859 202.996 339.282 201.651 339.728 200.313C340.048 199.355 340.333 198.393 340.518 197.399C340.6 196.964 340.701 196.516 340.581 196.08C340.462 195.643 340.213 195.246 339.948 194.886C339.254 193.944 338.428 193.111 337.614 192.274V193.437C338.176 192.908 338.711 192.351 339.21 191.762C339.653 191.24 340.259 190.642 340.487 189.982C340.745 189.231 340.331 188.639 339.916 188.051C339.521 187.492 339.128 186.933 338.729 186.377C337.262 184.335 335.678 182.424 333.851 180.693C333.082 179.965 331.917 181.126 332.687 181.856H332.688Z" fill="#726A69"/>
<path d="M333.24 237.939C332.784 236.325 332.531 234.688 332.292 233.032C332.07 231.498 331.879 229.959 331.72 228.417C331.325 224.567 331.152 220.7 331.159 216.831C331.166 212.737 331.296 208.643 331.49 204.554C331.647 201.259 331.882 197.967 331.979 194.67C332.125 189.717 332.007 184.752 331.426 179.827C331.374 179.386 331.085 179.004 330.603 179.004C330.199 179.004 329.728 179.383 329.781 179.827C330.302 184.244 330.452 188.695 330.37 193.14C330.307 196.604 330.07 200.059 329.896 203.519C329.495 211.457 329.238 219.446 329.973 227.372C330.144 229.219 330.367 231.06 330.624 232.897C330.883 234.743 331.146 236.578 331.653 238.376C331.94 239.393 333.527 238.961 333.239 237.939L333.24 237.939Z" fill="#726A69"/>
<path d="M318.376 168.435C319.372 168.961 320.444 169.182 321.57 169.175C322.717 169.167 323.873 168.94 324.792 168.225C325.142 167.952 325.078 167.349 324.792 167.062C324.445 166.716 323.98 166.788 323.628 167.062C323.877 166.868 323.682 167.018 323.618 167.058C323.554 167.099 323.488 167.138 323.42 167.173C323.364 167.202 323.121 167.299 323.346 167.216C323.255 167.249 323.166 167.285 323.073 167.315C322.824 167.395 322.568 167.451 322.31 167.489C322.43 167.471 322.282 167.491 322.235 167.495C322.16 167.503 322.085 167.509 322.01 167.514C321.83 167.526 321.649 167.53 321.468 167.529C321.305 167.528 321.143 167.523 320.982 167.512C320.908 167.506 320.834 167.501 320.759 167.493C320.753 167.492 320.486 167.455 320.65 167.481C320.409 167.443 320.17 167.393 319.937 167.323C319.836 167.293 319.739 167.257 319.641 167.223C319.43 167.151 319.759 167.285 319.569 167.195C319.447 167.138 319.326 167.077 319.207 167.014C318.814 166.807 318.312 166.915 318.081 167.309C317.864 167.681 317.982 168.227 318.376 168.435L318.376 168.435Z" fill="#726A69"/>
<path d="M321.155 160.905C321.295 161.437 321.428 161.977 321.508 162.521L321.479 162.303C321.489 162.377 321.493 162.451 321.485 162.526L321.515 162.307C321.51 162.342 321.502 162.374 321.49 162.408L321.573 162.211C321.563 162.234 321.552 162.254 321.538 162.276L321.666 162.109C321.65 162.129 321.634 162.145 321.613 162.161L321.78 162.033C321.739 162.059 321.696 162.08 321.652 162.1L321.848 162.017C321.778 162.047 321.708 162.069 321.633 162.081L321.852 162.051C321.783 162.059 321.717 162.059 321.649 162.051L321.868 162.08C321.791 162.07 321.717 162.051 321.64 162.041C321.531 162.007 321.421 162.002 321.312 162.026C321.203 162.031 321.101 162.063 321.006 162.124C320.836 162.223 320.673 162.419 320.628 162.615C320.58 162.826 320.591 163.062 320.711 163.249C320.818 163.415 320.997 163.599 321.203 163.627C321.376 163.65 321.544 163.695 321.72 163.702C321.99 163.714 322.241 163.631 322.483 163.521C322.78 163.384 323.013 163.117 323.092 162.797C323.159 162.525 323.13 162.288 323.084 162.015C322.996 161.495 322.876 160.979 322.742 160.468C322.633 160.052 322.149 159.758 321.73 159.894C321.302 160.032 321.039 160.46 321.156 160.906L321.155 160.905Z" fill="#726A69"/>
<path d="M312.606 156.331C312.336 157.208 312.512 159.225 314.173 159.397C316.369 159.384 316.486 156.945 315.747 155.798C315.141 154.859 313.362 154.468 312.606 156.331Z" fill="#726A69"/>
<path d="M330.191 156.331C330.461 157.208 330.285 159.226 328.623 159.397C326.427 159.384 326.311 156.945 327.05 155.798C327.655 154.859 329.435 154.469 330.191 156.331Z" fill="#726A69"/>
<path d="M325.51 214.378C325.1 214.773 324.717 215.184 324.408 215.591C324.593 215.837 325.923 217.058 326.299 217.338L326.484 217.475C327.555 215.954 328.967 215.041 330.644 214.371C333.142 213.373 335.807 212.877 338.472 212.965C341.118 213.053 344.038 213.884 346.01 215.765C347.622 213.917 350.631 212.482 352.954 211.902C355.246 211.329 357.634 211.309 359.979 211.528C361.511 211.671 362.899 212.11 364.033 212.685C364.067 212.652 364.086 212.632 364.086 212.632C364.497 212.242 365.319 211.42 366.018 210.68C363.49 208.769 362.073 208.484 359.093 208.194C356.825 207.973 354.248 207.899 352.031 208.453C349.813 209.007 346.97 209.931 345.394 211.684C343.62 210.434 341.138 209.725 338.472 209.637C335.806 209.549 333.141 210.044 330.644 211.042C329.545 211.482 328.37 212.04 327.428 212.756C326.828 213.212 326.136 213.776 325.51 214.379L325.51 214.378Z" fill="white"/>
<path d="M357.607 222.274C359.319 220.749 364.73 215.667 366.183 214.215C364.991 212.982 362.714 211.783 359.979 211.528C357.633 211.31 355.246 211.329 352.954 211.902C350.631 212.482 347.622 213.917 346.01 215.765C344.038 213.884 341.118 213.053 338.472 212.966C335.806 212.877 333.142 213.373 330.644 214.371C328.623 215.178 326.988 216.338 325.867 218.488C327.417 219.843 333.164 224.26 334.776 225.54L357.607 222.274V222.274Z" fill="#64C7FF"/>
<path d="M350.076 219.081C349.983 219.005 349.888 218.931 349.793 218.857C348.578 217.918 347.696 217.771 346.447 218.469C346.447 218.469 346.122 218.751 345.776 219.051C345.265 218.51 344.832 218.06 344.647 217.9C344.069 217.399 343.256 217.223 342.646 217.45C341.856 217.743 341.526 218.175 341.526 218.836C341.526 218.836 341.494 219.075 341.451 219.398C341.032 218.955 340.655 218.574 340.367 218.316C340.124 218.098 338.937 217.513 338.148 218.106C337.451 218.629 337.343 219.33 337.747 219.945C337.793 220.015 337.825 220.092 337.863 220.165L337.686 220.073C336.323 219.361 335.278 220.469 335.144 220.989C335.042 221.381 335.042 222.087 335.347 222.677C335.859 223.666 338.094 226.147 339.3 227.422C342.064 229.377 346.476 228.015 350.009 227.194C350.38 227.107 351.053 226.853 351.409 226.591C352.731 225.674 353.411 224.547 354.491 223.354C354.863 222.943 355.45 222.378 355.703 221.885C356.054 221.198 356.344 220.451 356.148 219.705C356.048 219.323 355.86 218.943 355.531 218.725C355.005 218.379 354.302 218.544 353.719 218.782C352.849 219.137 352.035 219.629 351.318 220.234C350.937 219.817 350.517 219.437 350.076 219.081Z" fill="white"/>
<path d="M350.993 225.881C350.241 226.398 349.283 226.521 348.414 226.73C347.39 226.977 346.364 227.219 345.325 227.393C343.549 227.691 341.531 227.832 339.93 226.857C339.023 226.305 338.196 227.728 339.1 228.278C341.018 229.446 343.347 229.356 345.486 229.024C346.597 228.852 347.692 228.595 348.784 228.333C349.812 228.085 350.933 227.914 351.823 227.302C352.189 227.051 352.354 226.58 352.118 226.176C351.906 225.814 351.361 225.628 350.993 225.881Z" fill="#726A69"/>
<path d="M352.547 220.445C351.757 219.395 350.748 218.41 349.613 217.736C349.089 217.425 348.495 217.213 347.88 217.21C347.223 217.208 346.602 217.447 346.033 217.759C345.643 217.972 345.518 218.508 345.738 218.884C345.968 219.277 346.472 219.393 346.863 219.179C346.958 219.127 347.136 219.035 347.177 219.017C347.131 219.037 347.262 218.984 347.277 218.979C347.328 218.961 347.379 218.944 347.431 218.928C347.542 218.895 347.656 218.866 347.77 218.851C347.608 218.873 347.863 218.855 347.917 218.856C347.939 218.856 348.137 218.869 348.024 218.858C347.926 218.848 348.077 218.869 348.095 218.873C348.194 218.894 348.29 218.922 348.385 218.955C348.43 218.971 348.547 219.024 348.445 218.977C348.495 219 348.545 219.025 348.594 219.05C348.712 219.112 348.826 219.18 348.938 219.253C349.352 219.52 349.719 219.832 350.102 220.181C350.462 220.511 350.882 220.949 351.127 221.275C351.394 221.629 351.837 221.813 352.253 221.57C352.602 221.366 352.816 220.802 352.548 220.445L352.547 220.445Z" fill="#726A69"/>
<path d="M348.978 221.251C348.132 220.455 347.374 219.552 346.58 218.706C346.186 218.286 345.795 217.86 345.381 217.46C344.676 216.778 343.727 216.414 342.747 216.577C341.6 216.768 340.728 217.667 340.702 218.836C340.679 219.895 342.324 219.895 342.348 218.836C342.348 218.78 342.35 218.724 342.355 218.669C342.343 218.755 342.347 218.751 342.366 218.655C342.398 218.563 342.396 218.558 342.361 218.641C342.382 218.596 342.406 218.553 342.433 218.512C342.353 218.637 342.527 218.42 342.564 218.392C342.482 218.455 342.742 218.297 342.775 218.282C343.122 218.12 343.425 218.137 343.785 218.308C344.289 218.548 344.685 219.094 345.059 219.489C345.976 220.458 346.843 221.499 347.815 222.414C348.585 223.139 349.751 221.978 348.978 221.251Z" fill="#726A69"/>
<path d="M326.715 216.627C326.925 216.787 326.681 216.595 326.644 216.563C326.556 216.49 326.471 216.415 326.385 216.339C326.197 216.174 326.011 216.006 325.827 215.836C325.543 215.573 325.233 215.313 324.991 215.009V216.173C326.747 213.906 329.233 212.352 331.923 211.446C334.768 210.488 337.903 210.134 340.864 210.727C342.335 211.021 343.744 211.536 344.981 212.394C345.267 212.593 345.746 212.518 345.978 212.266C346.86 211.305 348.036 210.66 349.239 210.184C350.504 209.685 351.848 209.278 353.19 209.051C354.742 208.788 356.348 208.814 357.913 208.919C359.241 209.007 360.601 209.111 361.894 209.442C363.28 209.797 364.469 210.538 365.604 211.391L365.438 210.099C364.808 210.763 364.168 211.419 363.506 212.051C362.739 212.783 363.903 213.945 364.669 213.214C365.332 212.582 365.972 211.926 366.601 211.262C366.998 210.843 366.86 210.29 366.434 209.97C365.306 209.122 364.101 208.387 362.743 207.972C361.403 207.562 359.972 207.443 358.583 207.325C356.89 207.181 355.178 207.139 353.49 207.357C351.973 207.553 350.477 207.964 349.047 208.504C347.494 209.089 345.951 209.864 344.814 211.103L345.811 210.974C343.296 209.229 340.041 208.688 337.035 208.823C333.814 208.968 330.411 209.866 327.666 211.596C326.25 212.489 324.855 213.684 323.827 215.01C323.53 215.393 323.52 215.787 323.827 216.173C324.388 216.878 325.169 217.505 325.884 218.048C326.238 218.317 326.804 218.104 327.01 217.753C327.257 217.331 327.069 216.897 326.715 216.628L326.715 216.627Z" fill="#726A69"/>
<path d="M336.771 225.53C333.963 223.31 330.963 221.33 328.094 219.191C327.907 219.052 327.721 218.912 327.536 218.771C327.455 218.711 327.375 218.65 327.296 218.589C327.258 218.56 327.22 218.53 327.182 218.501C327.078 218.421 327.329 218.616 327.159 218.483C326.919 218.296 326.68 218.107 326.45 217.907L326.578 218.904C327.155 217.817 327.932 216.867 328.956 216.172C330.088 215.405 331.383 214.916 332.688 214.534C335.516 213.706 338.63 213.456 341.496 214.244C342.946 214.643 344.325 215.312 345.429 216.348C345.739 216.638 346.29 216.689 346.593 216.348C348.229 214.503 350.705 213.334 353.061 212.724C354.623 212.32 356.235 212.196 357.845 212.227C359.354 212.256 360.857 212.375 362.298 212.85C363.513 213.25 364.698 213.878 365.602 214.797V213.633C363.037 216.192 360.293 218.587 357.609 221.018C357.03 221.542 356.451 222.066 355.868 222.585C355.076 223.291 356.242 224.451 357.031 223.749C359.77 221.308 362.478 218.83 365.159 216.327C365.7 215.822 366.242 215.319 366.765 214.797C367.082 214.481 367.077 213.95 366.765 213.633C364.646 211.479 361.584 210.759 358.668 210.611C355.407 210.446 352.227 210.955 349.287 212.4C347.869 213.097 346.484 213.996 345.43 215.185H346.593C344.338 213.07 341.191 212.182 338.154 212.136C336.352 212.108 334.535 212.34 332.793 212.798C331.287 213.193 329.755 213.732 328.427 214.557C327.035 215.422 325.926 216.627 325.158 218.074C324.997 218.379 325.007 218.827 325.287 219.071C326.477 220.105 327.794 221.01 329.068 221.937C330.685 223.113 332.313 224.274 333.931 225.45C334.286 225.708 334.641 225.967 334.993 226.228C335.126 226.327 335.259 226.426 335.391 226.526C335.421 226.549 335.623 226.703 335.515 226.62C335.408 226.537 335.577 226.669 335.608 226.694C335.956 226.969 336.432 227.033 336.772 226.694C337.057 226.408 337.122 225.807 336.772 225.53L336.771 225.53Z" fill="#119EED"/>
<path d="M338.099 219.363C337.151 218.899 336.102 218.907 335.243 219.561C334.563 220.08 334.223 220.788 334.262 221.648C334.301 222.518 334.662 223.22 335.169 223.899C335.688 224.595 336.247 225.26 336.817 225.914C337.433 226.619 338.063 227.311 338.706 227.991C339.434 228.762 340.596 227.598 339.869 226.828C339.275 226.199 338.691 225.559 338.12 224.909C337.554 224.266 336.939 223.552 336.494 222.939C336.333 222.718 336.152 222.484 336.039 222.233C335.942 222.019 335.906 221.772 335.904 221.54C335.904 221.517 335.916 221.258 335.902 221.369C335.906 221.341 335.975 221.076 335.927 221.213C335.88 221.346 335.976 221.134 335.993 221.106C336.095 220.935 335.886 221.211 336.034 221.053C336.105 220.977 336.177 220.901 336.259 220.839C336.153 220.92 336.357 220.786 336.368 220.779C336.581 220.653 336.916 220.61 337.269 220.783C337.668 220.978 338.159 220.892 338.395 220.488C338.606 220.126 338.5 219.559 338.099 219.363V219.363Z" fill="#726A69"/>
<path d="M345.217 222.314C344.422 221.452 343.647 220.571 342.855 219.706C342.465 219.278 342.071 218.853 341.668 218.437C341.354 218.115 341.036 217.756 340.654 217.514C339.454 216.753 337.784 216.874 336.996 218.154C336.097 219.615 337.411 220.939 338.285 222.009C339.268 223.212 340.277 224.383 341.384 225.474C342.139 226.218 343.303 225.056 342.548 224.311C341.687 223.462 340.876 222.57 340.102 221.64C339.709 221.167 339.321 220.689 338.931 220.213C338.746 219.987 338.598 219.782 338.456 219.53C338.405 219.441 338.369 219.377 338.357 219.341C338.351 219.326 338.309 219.146 338.329 219.232C338.346 219.306 338.353 219.092 338.326 219.21C338.409 218.841 338.736 218.652 339.096 218.675C339.247 218.685 339.006 218.656 339.153 218.682C339.197 218.69 339.242 218.7 339.286 218.711C339.397 218.739 339.508 218.773 339.614 218.816C339.492 218.767 339.706 218.865 339.747 218.889C339.779 218.907 339.813 218.933 339.846 218.949C339.977 219.012 339.741 218.833 339.806 218.918C340.044 219.231 340.409 219.5 340.683 219.786C341.036 220.155 341.382 220.53 341.726 220.906C342.505 221.76 343.27 222.627 344.054 223.477C344.355 223.803 344.912 223.782 345.217 223.477C345.542 223.152 345.519 222.641 345.217 222.314H345.217Z" fill="#726A69"/>
<path d="M352.306 220.499C352.764 220.178 353.243 219.894 353.75 219.659C354.079 219.506 354.593 219.249 354.966 219.361C355.26 219.45 355.364 219.856 355.387 220.124C355.427 220.614 355.18 221.15 354.94 221.563C354.721 221.941 354.394 222.251 354.097 222.569C353.755 222.934 353.433 223.316 353.115 223.703C352.471 224.487 351.828 225.289 350.993 225.881C350.631 226.137 350.46 226.599 350.698 227.006C350.907 227.364 351.459 227.56 351.824 227.301C352.938 226.511 353.746 225.491 354.618 224.457C355 224.004 355.421 223.586 355.806 223.136C356.274 222.589 356.612 221.992 356.842 221.309C357.278 220.015 356.904 218.19 355.414 217.781C354.074 217.414 352.528 218.34 351.476 219.078C351.113 219.333 350.943 219.797 351.181 220.204C351.391 220.563 351.941 220.755 352.306 220.499Z" fill="#726A69"/>
<path d="M11.9379 178.464C12.2732 176.23 12.8371 172.712 13.1315 170.499L53.0417 155.972C54.69 157.479 57.383 159.811 59.0759 161.307" fill="#ECBB7A"/>
<path d="M12.7292 179.112C13.1281 176.457 13.5671 173.808 13.9228 171.146L13.4076 171.757L51.6837 157.826C52.1994 157.638 52.7542 157.487 53.2524 157.255C53.2731 157.245 53.2964 157.239 53.3181 157.231L52.531 157.094C54.514 158.904 56.5532 160.651 58.5652 162.429C59.3398 163.113 60.3659 161.878 59.5907 161.193C57.5786 159.416 55.5394 157.669 53.5564 155.859C53.3506 155.671 53.0251 155.629 52.7693 155.722L17.7571 168.465C16.1497 169.05 14.5094 169.582 12.9238 170.224C12.9024 170.233 12.8802 170.24 12.8582 170.248C12.6024 170.342 12.3798 170.583 12.343 170.859C11.9874 173.52 11.5484 176.169 11.1495 178.824C10.9958 179.846 12.5752 180.135 12.7292 179.112Z" fill="#D0903A"/>
<path d="M46.9403 147.191L46.8252 147.214C48.0876 149.803 51.9403 157.702 53.7483 161.409C53.6352 160.843 53.5646 160.49 53.5646 160.49L50.8278 146.758C50.7917 146.576 50.6155 146.459 50.4343 146.495L47.8505 147.01L46.9403 147.191Z" fill="white"/>
<path d="M7.33214 163.2C7.42672 163.153 25.4355 154.37 45.536 144.566C56.8952 167.856 67.7669 190.146 68.0435 190.714C54.4262 197.355 43.4566 202.705 29.8397 209.347C29.7473 209.158 7.33708 163.21 7.33214 163.2Z" fill="white"/>
<path d="M7.90477 163.808C10.7914 162.4 13.678 160.992 16.5644 159.585C22.3134 156.781 28.0624 153.977 33.8115 151.173C35.7352 150.234 37.6592 149.296 39.5829 148.358C40.563 147.88 41.5435 147.401 42.5236 146.923C43.0443 146.669 43.5651 146.415 44.0859 146.161C44.3352 146.04 44.5843 145.919 44.8336 145.797C45.0031 145.714 45.3627 145.482 45.5042 145.485L45.1008 145.412C44.9609 145.364 44.8703 145.005 44.9695 145.228C45.0052 145.308 45.0467 145.386 45.0854 145.465L45.5238 146.363L47.1453 149.688L52.4674 160.6L58.899 173.786C60.7393 177.56 62.5796 181.333 64.4203 185.106L66.2475 188.853L66.8188 190.024C66.9115 190.214 66.9884 190.441 67.1077 190.617C67.1332 190.654 67.1252 190.686 67.1251 190.684L67.1979 190.281C67.251 190.126 67.5966 190.055 67.4008 190.14C67.3338 190.169 67.269 190.204 67.2035 190.236L66.4581 190.6L63.71 191.94C60.7039 193.406 57.6977 194.873 54.6917 196.339C51.0725 198.104 47.4529 199.869 43.8337 201.634C40.7098 203.158 37.5857 204.682 34.4618 206.205L31.3721 207.713C30.9118 207.937 30.3417 208.122 29.9223 208.42C29.8853 208.446 29.8674 208.43 29.8698 208.43L30.2732 208.503C30.4147 208.551 30.5038 208.909 30.405 208.687C30.3694 208.607 30.3278 208.529 30.2892 208.45L29.8508 207.551L28.2293 204.227C26.4552 200.589 24.6813 196.952 22.9072 193.315C20.7632 188.919 18.6196 184.524 16.4756 180.128C14.6352 176.355 12.7949 172.582 10.9543 168.808L9.12709 165.062L8.55574 163.89C8.46306 163.7 8.38619 163.473 8.26682 163.298C8.24213 163.261 8.24872 163.228 8.2486 163.231L8.17584 163.635L8.09503 163.709C8.93846 163.114 8.01144 161.803 7.16458 162.4C6.31773 162.997 6.69643 163.72 7.02806 164.4L8.06349 166.523C9.30421 169.067 10.5446 171.611 11.7855 174.154C13.459 177.586 15.133 181.018 16.8066 184.449C18.5558 188.036 20.3053 191.622 22.0545 195.209C23.5033 198.179 24.9519 201.149 26.4006 204.12L28.7734 208.984C28.8262 209.092 28.8775 209.201 28.9315 209.308C29.2274 209.897 29.8346 210.192 30.4644 209.931C30.9439 209.731 31.4067 209.471 31.8731 209.243C34.2898 208.065 36.7064 206.886 39.1234 205.707C42.5999 204.012 46.0768 202.316 49.5534 200.62L59.9136 195.567L66.842 192.188C67.2307 191.999 67.622 191.814 68.0086 191.619C68.5976 191.323 68.8899 190.708 68.6222 190.08C68.5614 189.938 68.4852 189.8 68.4172 189.66C67.5711 187.925 66.7245 186.189 65.8784 184.454C64.3993 181.422 62.9204 178.389 61.4413 175.357L56.1918 164.594C54.5293 161.185 52.8665 157.776 51.2042 154.368C50.0045 151.908 48.8047 149.448 47.6051 146.988L46.6581 145.047C46.592 144.911 46.5271 144.775 46.4598 144.64C46.4202 144.56 46.3854 144.475 46.337 144.402C45.6714 143.392 44.5507 144.159 43.7618 144.544C37.0717 147.807 30.3817 151.07 23.6916 154.333C19.1953 156.526 14.6993 158.719 10.203 160.912C9.254 161.375 8.30531 161.837 7.3563 162.3C6.96667 162.49 6.71715 162.891 6.8766 163.329C7.01305 163.704 7.51328 164 7.90532 163.809L7.90477 163.808Z" fill="#726A69"/>
<path d="M19.7381 172.213C26.3968 168.965 33.0559 165.718 39.7147 162.47C41.6169 161.542 43.5192 160.614 45.4214 159.687C45.811 159.497 46.0605 159.096 45.9011 158.658C45.7646 158.283 45.2644 157.987 44.8723 158.178C38.2139 161.426 31.5554 164.673 24.897 167.921C22.9945 168.849 21.0915 169.777 19.189 170.705C18.7994 170.895 18.5499 171.295 18.7093 171.734C18.8458 172.108 19.346 172.404 19.7381 172.213Z" fill="#726A69"/>
<path d="M33.6136 157.48C28.0508 160.193 22.4878 162.906 16.925 165.619C16.5354 165.809 16.2859 166.21 16.4453 166.648C16.5818 167.023 17.082 167.319 17.474 167.128C23.0369 164.414 28.5998 161.701 34.1626 158.988C34.5522 158.798 34.8018 158.397 34.6423 157.959C34.5059 157.584 34.0056 157.289 33.6136 157.48Z" fill="#726A69"/>
<path d="M54.3666 160.425C53.9348 158.259 53.5033 156.093 53.0716 153.927C52.5949 151.535 52.1307 149.14 51.6414 146.75C51.5474 146.291 51.3396 145.935 50.8841 145.761C50.5363 145.627 50.2187 145.725 49.8736 145.793C49.1784 145.932 48.4837 146.071 47.7885 146.209C47.3638 146.294 47.0144 146.606 47.0525 147.073C47.0844 147.466 47.4891 147.894 47.9168 147.809L49.249 147.544L50.1263 147.369C50.2272 147.349 50.423 147.286 50.4991 147.309L50.13 147.136C50.0011 147.05 50.0093 146.673 50.0474 146.911C50.0629 147.008 50.0858 147.104 50.105 147.2L50.3048 148.202L50.9649 151.514L52.4321 158.876C52.5434 159.435 52.6549 159.994 52.7663 160.553C52.8511 160.978 53.1633 161.327 53.6306 161.289C54.0233 161.257 54.4518 160.853 54.3666 160.425Z" fill="#726A69"/>
<path d="M59.0755 161.309C58.9589 161.351 36.7387 169.438 11.9375 178.465L32.6616 235.404C49.4631 229.289 62.998 224.363 79.7996 218.247C79.7146 218.014 59.0802 161.321 59.0755 161.309Z" fill="#ECBB7A"/>
<path d="M58.8022 160.554C55.7766 161.655 52.751 162.757 49.7253 163.858C42.287 166.565 34.8486 169.273 27.4102 171.98C22.1616 173.89 16.9129 175.801 11.6642 177.711C11.2567 177.859 11.0359 178.331 11.1845 178.74L30.4294 231.614C30.9097 232.934 31.3572 234.272 31.8722 235.579C31.8853 235.612 31.8965 235.645 31.9086 235.679C32.057 236.086 32.5288 236.307 32.9373 236.158C39.1133 233.911 45.2891 231.663 51.4651 229.415C57.4463 227.238 63.4274 225.061 69.4086 222.884C72.9641 221.59 76.5199 220.296 80.0753 219.002C80.4829 218.853 80.7037 218.381 80.555 217.973C80.3628 217.445 80.1704 216.916 79.9781 216.388C79.4723 214.998 78.9665 213.608 78.4607 212.219C77.7176 210.177 76.9744 208.135 76.2313 206.093C75.3223 203.596 74.4133 201.099 73.5044 198.601C72.5146 195.882 71.5249 193.163 70.5351 190.443C69.5321 187.688 68.5291 184.932 67.5261 182.176C66.5958 179.62 65.6654 177.064 64.7351 174.508C63.9487 172.347 63.1624 170.187 62.376 168.026C61.8078 166.465 61.2395 164.904 60.6713 163.343C60.4033 162.606 60.1537 161.86 59.8663 161.131C59.8536 161.099 59.8426 161.066 59.8308 161.034C59.4775 160.063 57.9685 160.61 58.3224 161.583C58.5076 162.091 58.6929 162.601 58.8781 163.109C59.3784 164.484 59.8785 165.858 60.3788 167.233C61.118 169.263 61.8572 171.294 62.5963 173.325C63.5028 175.815 64.4092 178.306 65.3158 180.797C66.3046 183.513 67.2934 186.23 68.2822 188.947C69.2857 191.704 70.2893 194.461 71.2929 197.219C72.2253 199.78 73.1578 202.343 74.0902 204.904C74.8802 207.075 75.6701 209.245 76.4602 211.416C77.0335 212.991 77.607 214.567 78.1804 216.142C78.4539 216.893 78.6913 217.673 79.0054 218.409C79.0209 218.445 79.0329 218.484 79.0465 218.522L79.5262 217.493C73.3502 219.741 67.1745 221.988 60.9984 224.236C55.0173 226.413 49.0361 228.59 43.0549 230.767C39.4994 232.061 35.9437 233.356 32.3882 234.65L33.4169 235.129L12.693 178.191L12.2133 179.219C21.1129 175.98 30.0126 172.741 38.9125 169.502C44.7045 167.394 50.4965 165.286 56.2885 163.177C57.3096 162.806 58.3306 162.434 59.3513 162.063C60.322 161.709 59.7745 160.2 58.8022 160.554Z" fill="#D0903A"/>
<path d="M34.7535 170.16L52.7381 219.573C53.0914 220.543 54.6004 219.996 54.2465 219.023L36.2619 169.611C35.9086 168.641 34.3996 169.188 34.7535 170.16Z" fill="#D0903A"/>
<path d="M33.453 235.548C33.7263 233.73 34.0143 231.914 34.2865 230.096C34.3526 229.655 34.4179 229.214 34.4812 228.772C34.5119 228.558 34.5422 228.344 34.5721 228.13C34.5822 228.058 34.5997 227.98 34.6028 227.908C34.6171 227.569 34.7094 228.124 34.3422 228.116C34.377 228.117 34.4243 228.084 34.4575 228.074C35.1858 227.866 35.8996 227.549 36.6111 227.29L73.4287 213.89C73.5383 213.85 73.7403 213.819 73.8319 213.743C73.4472 214.062 73.2957 213.482 73.4976 213.751C73.5363 213.803 73.6186 213.861 73.6636 213.902C73.8089 214.033 73.9544 214.164 74.1005 214.294C74.4643 214.62 74.8297 214.945 75.1959 215.268C75.92 215.908 76.6469 216.545 77.3734 217.182C78.0124 217.742 78.6518 218.302 79.2886 218.864C80.0632 219.548 81.0893 218.314 80.314 217.629C78.9035 216.383 77.4821 215.149 76.073 213.902C75.7416 213.608 75.4107 213.314 75.0812 213.019C74.7315 212.705 74.3794 212.279 73.8978 212.183C73.6659 212.136 73.4368 212.187 73.2175 212.258C72.5396 212.478 71.874 212.747 71.2047 212.991L34.0964 226.497C33.7287 226.631 33.3852 226.756 33.1779 227.137C32.9876 227.486 32.9826 227.917 32.9273 228.305C32.8557 228.806 32.7819 229.308 32.7069 229.809C32.564 230.764 32.4166 231.719 32.2695 232.674C32.1365 233.536 32.0031 234.398 31.8735 235.26C31.7198 236.282 33.2992 236.57 33.4532 235.547L33.453 235.548Z" fill="#D0903A"/>
</g>
<defs>
<clipPath id="clip0_2421_23016">
<rect width="370" height="240" fill="white"/>
</clipPath>
</defs>
</svg>
