<svg width="454" height="266" viewBox="0 0 454 266" fill="none" xmlns="http://www.w3.org/2000/svg">
<g clip-path="url(#clip0_2414_22480)">
<path d="M58.3331 186.957C58.5927 186.73 58.8977 186.562 59.2275 186.465C59.5574 186.368 59.9041 186.343 60.2442 186.393C60.578 186.441 60.897 186.563 61.1777 186.751C61.4584 186.939 61.6937 187.188 61.8664 187.479C62.0663 187.882 62.1801 188.322 62.2005 188.772C62.3461 190.531 62.0089 192.297 61.2258 193.876C60.8565 194.674 60.3206 195.382 59.6548 195.953C59.1138 196.395 58.4684 196.688 57.7815 196.803L57.4609 196.853C57.3074 197.433 57.1344 197.921 57.0497 198.181C56.4879 199.717 53.267 205.145 49.2629 206.877C49.256 207.964 49.2323 209.218 49.6119 210.158C49.8985 210.872 51.2429 211.931 52.6565 212.893C52.6565 212.893 51.8788 223.486 41.9207 223.486C31.9625 223.486 32.0132 212.824 32.0132 212.824C33.5223 211.881 34.9227 210.855 35.2028 210.158C35.5721 209.235 35.5553 208.019 35.5488 206.946C33.5893 206.044 31.8687 204.689 30.5265 202.992C29.067 201.187 28.0055 199.091 27.4124 196.841C26.5121 196.846 25.6388 196.533 24.9447 195.955C24.2789 195.385 23.7431 194.676 23.374 193.878C22.5908 192.299 22.2536 190.533 22.3993 188.774C22.4195 188.325 22.5332 187.884 22.7331 187.482C22.9057 187.19 23.1411 186.94 23.4219 186.752C23.7027 186.564 24.0219 186.441 24.3559 186.394C24.696 186.344 25.0428 186.368 25.3726 186.466C25.7024 186.563 26.0075 186.731 26.267 186.958C26.267 186.958 26.959 171.756 42.7751 171.756C59.031 171.755 58.3331 186.957 58.3331 186.957Z" fill="white"/>
<path d="M62.201 188.773C62.1806 188.323 62.0668 187.883 61.8669 187.48C61.6942 187.189 61.4589 186.94 61.1782 186.752C60.8975 186.564 60.5785 186.442 60.2448 186.394C59.9047 186.344 59.5579 186.369 59.2281 186.466C58.8983 186.563 58.5932 186.731 58.3336 186.958C56.0294 185.807 54.3819 183.779 53.2471 182.156C50.9126 178.818 50.245 176.493 49.8114 174.148C47.7606 176.673 43.1973 179.505 39.1356 180.831C38.6157 180.998 38.0879 181.138 37.554 181.251C36.8543 181.429 36.1438 181.56 35.427 181.643C34.1386 182.64 32.7893 183.554 31.387 184.381C30.5287 184.892 27.3055 186.386 26.1479 186.862C25.8952 186.667 25.6065 186.526 25.2987 186.446C24.991 186.365 24.6704 186.348 24.3558 186.394C24.022 186.442 23.7031 186.564 23.4224 186.752C23.1417 186.94 22.9063 187.189 22.7336 187.48C22.5337 187.883 22.42 188.323 22.3999 188.773L21.3942 187.605C21.0647 177.635 23.6694 170.405 27.7737 166.447C30.2479 164.061 35.8224 160.811 42.0876 160.811C45.9098 160.811 47.9326 161.217 50.11 162.062L51.3393 162.539L53.6475 163.8C55.1213 164.606 55.5148 165.221 56.869 166.537C59.9993 169.58 62.1776 175.057 62.5246 179.961C62.6234 181.376 62.8541 185.056 62.633 187.605L62.201 188.773Z" fill="#D0903A"/>
<path d="M19.7325 204.587C19.1896 206.312 18.8969 208.107 18.8633 209.916C18.8347 211.491 19.1048 213.26 20.355 214.206C20.907 214.925 21.6016 215.52 22.3943 215.953C23.1871 216.387 24.0608 216.65 24.9598 216.725L32.0144 212.823C33.5235 211.881 34.9239 210.855 35.204 210.158C35.573 209.235 35.5565 208.02 35.5499 206.948C33.5909 206.044 31.8704 204.689 30.5277 202.991C29.0807 201.203 28.0251 199.128 27.4304 196.9L26.8195 196.805C26.1326 196.69 25.4872 196.397 24.9462 195.955C24.2804 195.384 23.7446 194.676 23.3755 193.878C22.5923 192.299 22.2551 190.533 22.4008 188.774L21.3949 187.604C21.3982 194.87 20.8479 200.111 20.0769 203.088C19.955 203.563 19.8363 204.114 19.7243 204.705" fill="#D0903A"/>
<path d="M62.6347 187.604C62.7434 196.658 64.2855 201.723 65.0796 204.216C65.7069 206.041 66.0342 207.957 66.0483 209.888C66.0681 212.387 64.0977 215.242 61.2705 215.863L59.312 216.292L52.656 212.892C51.2425 211.929 49.8981 210.871 49.6114 210.157C49.2319 209.217 49.2556 207.963 49.2628 206.875C53.2666 205.146 56.4875 199.717 57.0493 198.181C57.134 197.922 57.3066 197.434 57.4605 196.854L57.7811 196.803C58.468 196.688 59.1134 196.395 59.6543 195.953C60.3202 195.382 60.856 194.674 61.2254 193.876C62.0085 192.297 62.3456 190.531 62.2001 188.772L62.6347 187.604Z" fill="#D0903A"/>
<path d="M10.4368 255.073C11.2145 240.981 12.0863 229.552 13.5269 224.715C14.0577 222.933 14.7263 221.357 15.6107 220.645C16.495 219.932 17.9663 219.458 18.9884 218.961C22.1157 217.439 26.2812 215.56 28.7548 213.991C29.1581 213.622 29.5884 213.264 30.0428 212.911L31.5559 211.879L31.5826 211.86C33.5402 217.727 35.7956 224.502 37.9021 230.417C39.3608 234.514 40.9994 238.851 42.4822 242.976C44.106 238.407 45.3001 235.172 46.8991 230.681C49.0126 224.747 51.5336 217.911 53.0038 211.829L54.4866 212.841C54.707 213.012 54.9228 213.183 55.1324 213.356C58.3236 215.245 62.5277 216.357 65.9374 218.018C66.916 218.492 68.066 218.718 68.8074 219.518C69.5658 220.338 70.1529 221.303 70.534 222.356C72.6856 228.012 73.1041 231.314 75.1734 236.857C75.7589 234.875 76.3227 232.905 76.9365 230.783C80.2833 232.135 85.58 233.938 88.8236 234.299C87.7692 239.565 86.7478 245.219 85.0465 250.559C83.8643 254.27 82.0856 257.799 78.4661 259.176C77.1126 259.715 75.6546 259.937 74.2034 259.822C72.7522 259.708 71.3461 259.261 70.0924 258.516C67.6541 257.084 64.7545 253.75 63.277 252.292C63.1185 253.758 64.0678 262.396 64.4388 267.496H9.79199C10.0075 263.202 10.2184 259.032 10.4368 255.073Z" fill="#B3B3B3"/>
<path d="M42.1032 220.394H41.9629C39.3831 220.323 36.8201 219.952 34.325 219.288L34.0439 219.214C35.3191 223.003 36.6378 226.864 37.9027 230.416C39.3614 234.513 41.0001 238.85 42.4828 242.975C44.1066 238.406 45.3007 235.171 46.8998 230.68C48.2247 226.96 49.7098 222.886 50.9965 218.864L50.2445 219.058C47.9097 219.994 44.5303 220.385 42.1032 220.394Z" fill="white"/>
<path d="M80.4492 217.957C81.3629 215.723 82.0614 214.406 83.2288 212.136C83.301 211.996 83.8064 211.286 84.2862 211.146C84.5006 211.082 84.7283 211.078 84.9449 211.134C85.1615 211.19 85.3589 211.305 85.5159 211.465C85.6719 211.613 85.7967 211.791 85.8829 211.989C85.969 212.186 86.0148 212.399 86.0174 212.615C86.0136 214.12 85.7871 215.615 85.3455 217.053C87.8989 216.707 93.0124 214.262 95.7393 212.81C96.3944 212.462 97.0461 212.063 97.7822 211.958C98.5401 211.846 99.8845 212.375 100.15 213.109C101.186 212.605 101.75 212.615 102.396 212.861C103.161 213.156 103.386 213.464 103.537 213.9C103.63 214.142 103.671 214.4 103.659 214.659C103.648 214.917 103.583 215.171 103.469 215.403C103.432 215.467 103.41 215.539 103.403 215.613C103.409 215.688 103.435 215.76 103.477 215.823C103.685 216.274 103.745 216.781 103.648 217.269C103.551 217.758 103.301 218.202 102.936 218.537C103.075 218.772 103.137 219.045 103.113 219.317C103.088 219.59 102.979 219.847 102.8 220.053C100.825 222.31 93.7712 226.457 89.7408 228.022C89.5151 228.091 89.3051 228.204 89.1226 228.354C88.9352 228.56 88.7982 228.807 88.7226 229.075C88.4435 229.845 88.2422 230.363 88.0073 231.097C86.3195 230.635 81.928 229.41 79.5117 228.511C79.7095 227.851 79.8581 227.177 79.9562 226.495C79.9562 226.495 79.9892 226.119 80.0122 225.829C79.5325 223.314 79.3087 220.811 80.2603 218.429C80.3238 218.266 80.3868 218.109 80.4492 217.957Z" fill="white"/>
<path d="M103.818 218.601C103.697 217.729 102.678 217.314 101.907 217.397C101.429 217.488 100.971 217.664 100.556 217.918C100.129 218.132 99.7043 218.35 99.2789 218.567C97.6139 219.418 95.9377 220.296 94.1386 220.826C93.1636 221.113 93.5785 222.652 94.5591 222.362C96.1012 221.867 97.5968 221.235 99.0284 220.475C99.7428 220.117 100.452 219.749 101.166 219.389C101.432 219.216 101.719 219.078 102.02 218.976C102.126 218.96 102.236 218.976 102.333 219.023C102.287 219.002 102.269 218.857 102.292 219.023C102.348 219.226 102.482 219.398 102.665 219.503C102.847 219.607 103.062 219.634 103.265 219.579C103.464 219.519 103.632 219.383 103.735 219.201C103.838 219.018 103.867 218.803 103.817 218.6L103.818 218.601Z" fill="#726A69"/>
<path d="M103.815 214.955C103.632 214.774 103.415 214.631 103.175 214.536C102.936 214.442 102.681 214.397 102.424 214.405C101.964 214.419 101.514 214.541 101.109 214.763C100.102 215.219 99.1227 215.736 98.1108 216.181C96.4877 216.895 94.768 217.716 93.2065 218.359C93.0079 218.42 92.8401 218.556 92.7374 218.738C92.6347 218.92 92.6049 219.135 92.6539 219.339C92.7109 219.542 92.845 219.714 93.0271 219.818C93.2092 219.922 93.4247 219.95 93.627 219.895C95.2227 219.238 96.7819 218.494 98.3603 217.797C99.2499 217.403 100.128 216.988 101.004 216.565C101.37 216.389 101.736 216.203 102.112 216.047C102.24 215.985 102.386 215.97 102.524 216.003C102.454 215.993 102.718 216.062 102.698 216.054C102.654 216.035 102.605 215.974 102.698 216.082C102.847 216.23 103.048 216.312 103.257 216.312C103.466 216.312 103.667 216.23 103.816 216.082C103.961 215.93 104.042 215.729 104.042 215.519C104.042 215.309 103.961 215.107 103.816 214.955H103.815Z" fill="#726A69"/>
<path d="M102.292 219.025C102.414 219.485 101.969 219.791 101.667 220.07C101.303 220.407 100.894 220.741 100.542 221.009C99.4684 221.825 98.3392 222.566 97.1929 223.273C94.8568 224.756 92.4043 226.044 89.8598 227.123C89.4947 227.241 89.1433 227.398 88.8117 227.592C88.4133 227.898 88.1218 228.324 87.979 228.808C87.6495 229.682 87.3358 230.562 87.0673 231.457C86.7707 232.44 88.298 232.861 88.5922 231.88C88.8285 231.093 89.1056 230.32 89.388 229.55C89.4895 229.272 89.5422 228.975 89.8242 228.841C90.0961 228.711 90.3897 228.616 90.6674 228.499C91.9551 227.955 93.2112 227.337 94.4458 226.682C97.013 225.359 99.4607 223.812 101.761 222.06C102.844 221.211 104.236 220.175 103.818 218.602C103.554 217.613 102.029 218.032 102.293 219.025L102.292 219.025Z" fill="#726A69"/>
<path d="M86.3565 217.667C88.8304 217.063 91.2058 215.941 93.4929 214.838C94.5947 214.307 95.6715 213.732 96.7549 213.167C97.2456 212.912 97.8004 212.661 98.3273 212.777C98.5781 212.83 98.8189 212.923 99.0404 213.053C99.1295 213.104 99.2127 213.164 99.2885 213.233C99.3059 213.249 99.4203 213.396 99.3873 213.321C99.4225 213.437 99.4828 213.543 99.5639 213.632C99.6449 213.721 99.7447 213.791 99.8559 213.837C99.9671 213.882 100.087 213.902 100.207 213.896C100.327 213.889 100.443 213.855 100.549 213.797C100.772 213.663 101.019 213.574 101.277 213.537C101.534 213.5 101.796 213.515 102.048 213.581C102.26 213.652 102.458 213.756 102.637 213.891C102.749 213.988 102.685 213.921 102.747 214.048C102.804 214.165 102.712 213.949 102.761 214.074C102.802 214.177 102.833 214.285 102.854 214.394C102.914 214.747 102.755 214.971 102.661 215.294C102.545 215.691 102.708 215.977 102.832 216.32C102.914 216.578 102.929 216.852 102.874 217.117C102.819 217.383 102.697 217.629 102.52 217.832C101.849 218.598 102.963 219.73 103.638 218.959C104.101 218.442 104.391 217.792 104.465 217.1C104.496 216.803 104.484 216.504 104.431 216.21C104.382 215.924 104.221 215.671 104.164 215.401V215.825C104.286 215.467 104.381 215.1 104.445 214.728C104.463 214.375 104.413 214.022 104.3 213.688C104.136 213.171 103.797 212.729 103.342 212.439C102.175 211.684 100.947 211.854 99.7501 212.421L100.912 212.897C100.473 211.845 99.3735 211.285 98.2838 211.167C97.1082 211.038 96.0399 211.755 95.0432 212.279C93.137 213.281 91.188 214.221 89.1929 215.027C88.134 215.473 87.0447 215.842 85.9334 216.13C84.9449 216.372 85.3634 217.908 86.3539 217.666L86.3565 217.667Z" fill="#726A69"/>
<path d="M99.7516 212.421C98.4422 213.04 97.1848 213.769 95.8806 214.4C94.3791 215.126 92.9227 215.944 91.4449 216.717C90.5414 217.19 91.3404 218.565 92.2433 218.093C93.7208 217.32 95.1775 216.502 96.6787 215.776C97.9829 215.145 99.2406 214.415 100.55 213.797C100.73 213.689 100.86 213.515 100.913 213.311C100.966 213.107 100.938 212.89 100.833 212.707C100.724 212.528 100.551 212.399 100.349 212.345C100.148 212.292 99.9338 212.319 99.7516 212.421Z" fill="#726A69"/>
<path d="M90.2746 218.334C91.6956 219.525 93.0566 220.783 94.3575 222.109C94.5062 222.256 94.7067 222.339 94.9153 222.338C95.1239 222.337 95.3237 222.253 95.4712 222.104C95.6188 221.956 95.702 221.754 95.7029 221.544C95.7037 221.334 95.6221 221.132 95.4758 220.982C94.1767 219.658 92.8157 218.4 91.3929 217.208C91.2424 217.062 91.0421 216.981 90.8338 216.981C90.6254 216.981 90.4251 217.062 90.2746 217.208C90.1286 217.358 90.0469 217.56 90.0469 217.771C90.0469 217.981 90.1286 218.183 90.2746 218.334Z" fill="#726A69"/>
<path d="M93.9195 220.918C93.0763 220.935 92.2341 220.977 91.3935 221.047C90.5752 221.075 89.763 221.2 88.9737 221.419C88.3172 221.637 87.71 221.984 87.187 222.439C86.6639 222.894 86.2354 223.449 85.9261 224.072C85.8256 224.255 85.7989 224.471 85.8517 224.674C85.9045 224.877 86.0327 225.051 86.2098 225.162C86.3914 225.266 86.6065 225.295 86.8088 225.241C87.0112 225.188 87.1846 225.057 87.2919 224.876C87.5153 224.397 87.838 223.972 88.2383 223.629C88.6385 223.287 89.107 223.034 89.6122 222.89C90.2682 222.737 90.937 222.648 91.6097 222.622C92.3785 222.563 93.1484 222.526 93.9195 222.511C94.9357 222.49 94.9409 220.896 93.9195 220.918Z" fill="#726A69"/>
<path d="M79.1651 226.495C79.1585 226.568 79.1239 226.764 79.172 226.469C79.1637 226.52 79.1565 226.572 79.1479 226.624C79.1272 226.745 79.1031 226.867 79.0774 226.987C79.0171 227.27 78.9456 227.55 78.8748 227.829C78.7384 228.352 78.5881 228.87 78.4464 229.391C78.3907 229.595 78.4175 229.813 78.5211 229.997C78.6247 230.18 78.7966 230.315 78.9988 230.371C79.2011 230.428 79.4172 230.4 79.5997 230.296C79.7821 230.192 79.9159 230.019 79.9717 229.815C80.2682 228.725 80.6448 227.624 80.7463 226.496C80.7456 226.285 80.6621 226.083 80.5139 225.933C80.3658 225.784 80.1651 225.7 79.9555 225.699C79.7475 225.705 79.5493 225.79 79.4022 225.938C79.255 226.087 79.17 226.286 79.1647 226.496L79.1651 226.495Z" fill="#726A69"/>
<path d="M88.5029 231.233C87.3496 230.919 81.4186 229.301 78.9408 228.29C78.7174 228.861 78.2666 230.256 77.9819 231.007L77.916 231.168C80.8888 232.317 84.9015 233.648 87.8228 234.153L87.8403 234.095C88.1213 233.177 88.5256 231.539 88.6202 231.265L88.5029 231.233Z" fill="white"/>
<path d="M20.6035 187.604C20.6035 191.855 20.4885 196.218 19.82 200.382C19.7102 201.066 19.583 201.748 19.4246 202.423C19.3194 202.871 19.2018 203.316 19.1059 203.766C18.9705 204.404 18.7688 205.021 18.6163 205.655C18.3066 206.949 18.1269 208.271 18.0802 209.601C18.0094 210.658 18.1303 211.72 18.437 212.733C19.2328 215.057 21.967 216.69 24.3575 216.66C25.3744 216.647 25.377 215.054 24.3575 215.067C23.3173 215.043 22.3095 214.697 21.4721 214.075C20.7552 213.65 20.2082 212.986 19.9254 212.198C19.6687 211.251 19.5839 210.265 19.6753 209.287C19.7408 208.048 19.936 206.82 20.2575 205.622C20.7055 204.021 21.0709 202.398 21.3525 200.759C21.6332 198.996 21.8138 197.216 21.9377 195.435C22.1202 192.829 22.1848 190.215 22.1851 187.602C22.1851 186.577 20.6035 186.575 20.6035 187.602V187.604Z" fill="#B47119"/>
<path d="M61.844 187.604C61.8514 191.974 62.3241 196.33 63.2539 200.598C63.5254 201.779 63.85 202.946 64.2134 204.101C64.5474 205.106 64.8172 206.131 65.0214 207.17C65.2659 208.282 65.3307 209.427 65.2131 210.561C65.0342 211.641 64.5461 212.646 63.8086 213.452C63.0712 214.257 62.1164 214.828 61.0614 215.095C60.0696 215.324 60.4894 216.861 61.4819 216.631C62.5631 216.354 63.5646 215.825 64.4054 215.087C65.2461 214.348 65.9027 213.421 66.3219 212.379C67.2583 210.131 66.8053 207.442 66.1875 205.164C65.825 203.829 65.3673 202.525 65.025 201.184C64.5986 199.499 64.2644 197.791 64.024 196.069C63.6446 193.263 63.4451 190.436 63.4266 187.605C63.4131 186.58 61.8315 186.578 61.845 187.605L61.844 187.604Z" fill="#B47119"/>
<path d="M56.9669 195.013C56.9279 195.693 56.803 196.365 56.5952 197.012C56.5201 197.268 56.4371 197.522 56.3527 197.776C56.327 197.853 56.3007 197.93 56.2743 198.008C56.2212 198.164 56.243 198.086 56.2634 198.041C55.9516 198.72 55.5953 199.377 55.1968 200.008C54.0763 201.877 52.6458 203.538 50.9673 204.92C50.056 205.674 48.9911 206.216 47.8483 206.508C46.8568 206.739 47.2766 208.275 48.2687 208.045C50.6761 207.485 52.6926 205.74 54.2795 203.909C55.6097 202.428 56.721 200.76 57.5791 198.959C58.15 197.72 58.4791 196.382 58.5485 195.017C58.5815 193.992 56.9999 193.993 56.9669 195.017V195.013Z" fill="#726A69"/>
<path d="M26.3148 195.662C27.3264 200.48 30.1499 205.176 34.6568 207.405C35.862 208.002 37.1631 208.377 38.4991 208.514C38.7084 208.513 38.9088 208.428 39.0568 208.279C39.2048 208.13 39.2886 207.928 39.2899 207.717C39.2854 207.508 39.2006 207.308 39.0533 207.159C38.906 207.011 38.7074 206.925 38.4991 206.921C34.0637 206.456 30.4356 202.593 28.8405 198.606C28.4101 197.515 28.0753 196.388 27.8398 195.238C27.6292 194.236 26.1043 194.66 26.3148 195.662Z" fill="#726A69"/>
<path d="M50.3211 161.295C47.4376 160.182 44.2879 159.891 41.2186 160.034C37.6569 160.24 34.1915 161.278 31.0957 163.064C28.82 164.31 26.8393 166.038 25.2899 168.129C23.695 170.412 22.5239 172.966 21.8334 175.67C20.779 179.541 20.4782 183.605 20.604 187.605C20.637 188.628 22.2186 188.632 22.1856 187.605C21.9955 181.565 22.7313 175.038 26.0408 169.839C27.2922 167.891 28.9579 166.247 30.9174 165.027C33.643 163.268 36.7233 162.143 39.9346 161.733C41.9006 161.526 43.8837 161.546 45.8452 161.794C47.2344 161.968 48.5966 162.316 49.9003 162.83C50.1025 162.885 50.3179 162.857 50.4999 162.753C50.6819 162.649 50.8159 162.477 50.873 162.274C50.9239 162.07 50.8949 161.855 50.792 161.673C50.6892 161.491 50.5205 161.355 50.3211 161.295Z" fill="#B47119"/>
<path d="M63.4245 187.605C63.549 185.786 63.5555 183.961 63.444 182.14C63.3972 180.513 63.2388 178.891 62.9701 177.286C62.2854 173.593 60.7842 169.9 58.3772 167.003C57.7439 166.24 57.0167 165.56 56.3195 164.859C55.6478 164.171 54.8822 163.584 54.0459 163.114C53.1536 162.619 52.3549 163.994 53.2476 164.489C53.9057 164.85 54.5108 165.302 55.0453 165.831C55.6602 166.438 56.2905 167.042 56.8704 167.683C58.0108 168.987 58.9502 170.457 59.6573 172.042C60.413 173.686 60.9779 175.413 61.3408 177.187C61.6254 178.691 61.793 180.215 61.8419 181.745C61.9731 183.696 61.9731 185.655 61.8419 187.606C61.8436 187.817 61.9274 188.018 62.0754 188.168C62.2233 188.317 62.4235 188.401 62.6327 188.403C62.8412 188.398 63.0399 188.313 63.1874 188.165C63.3348 188.016 63.4194 187.816 63.4235 187.606L63.4245 187.605Z" fill="#B47119"/>
<path d="M48.4722 206.878C48.4514 207.58 48.4745 208.282 48.5414 208.981C48.5751 209.644 48.7661 210.289 49.0983 210.862C49.8795 211.999 51.1412 212.817 52.2576 213.58C52.3472 213.633 52.4463 213.667 52.5492 213.682C52.6521 213.696 52.7568 213.689 52.8572 213.663C52.9577 213.636 53.052 213.59 53.1347 213.527C53.2175 213.464 53.287 213.385 53.3395 213.294C53.3919 213.204 53.4261 213.104 53.4403 213.001C53.4544 212.897 53.4481 212.792 53.4218 212.69C53.3954 212.589 53.3496 212.494 53.2868 212.411C53.224 212.327 53.1456 212.257 53.0559 212.205C52.5241 211.841 51.9956 211.47 51.498 211.059C51.2802 210.88 51.0671 210.694 50.8647 210.495C50.7768 210.409 50.6901 210.321 50.6077 210.23C50.5659 210.183 50.5254 210.136 50.4855 210.088C50.4048 209.99 50.5728 210.231 50.4637 210.057C50.416 209.981 50.3682 209.908 50.3277 209.827C50.2842 209.741 50.3708 209.956 50.3257 209.815C50.302 209.74 50.2756 209.666 50.2538 209.59C50.1834 209.341 50.1339 209.087 50.1059 208.829C50.0531 208.18 50.0358 207.528 50.0538 206.877C50.0604 205.852 48.4788 205.851 48.4722 206.877V206.878Z" fill="#726A69"/>
<path d="M34.7594 206.947C34.7767 207.585 34.7586 208.223 34.705 208.858C34.6743 209.123 34.6211 209.386 34.5462 209.642C34.5241 209.716 34.4994 209.788 34.4741 209.86C34.4919 209.81 34.5185 209.783 34.4797 209.845C34.4517 209.89 34.2988 210.117 34.4095 209.976C33.6885 210.896 32.5939 211.521 31.6153 212.133C31.5257 212.186 31.4472 212.256 31.3844 212.34C31.3217 212.423 31.2758 212.518 31.2495 212.619C31.2231 212.72 31.2169 212.826 31.231 212.929C31.2451 213.033 31.2794 213.133 31.3318 213.223C31.3842 213.313 31.4538 213.393 31.5365 213.456C31.6192 213.519 31.7135 213.565 31.814 213.592C31.9145 213.618 32.0191 213.625 32.122 213.61C32.2249 213.596 32.324 213.562 32.4137 213.509C33.0526 213.108 33.6829 212.693 34.2813 212.232C34.8126 211.855 35.2876 211.403 35.6916 210.891C36.0177 210.37 36.2102 209.775 36.2517 209.161C36.3333 208.426 36.3639 207.686 36.3433 206.947C36.3367 205.922 34.7551 205.92 34.7617 206.947H34.7594Z" fill="#726A69"/>
<path d="M39.7932 175.889C38.3861 177.98 36.6265 179.807 34.594 181.287C32.8288 182.623 30.934 183.776 28.9384 184.728C28.3947 184.987 27.8486 185.241 27.3001 185.491C27.0585 185.601 26.8169 185.709 26.5752 185.816C26.4687 185.864 26.362 185.911 26.2553 185.957L26.1442 186.005C25.9136 186.105 26.276 185.95 26.0652 186.038C25.8669 186.1 25.6997 186.236 25.5973 186.419C25.495 186.601 25.4653 186.815 25.5142 187.018C25.5711 187.221 25.7052 187.394 25.8873 187.498C26.0695 187.602 26.285 187.63 26.4873 187.575C28.2706 186.86 30.0102 186.04 31.697 185.118C34.0983 183.765 36.3174 182.106 38.2999 180.184C39.3764 179.128 40.3352 177.958 41.159 176.693C41.7158 175.83 40.3471 175.033 39.7932 175.889Z" fill="#B47119"/>
<path d="M38.9229 180.062C38.313 180.256 37.6945 180.403 37.0711 180.544C36.792 180.608 36.5129 180.671 36.2315 180.724C36.0887 180.751 35.9459 180.775 35.8032 180.797C35.7616 180.803 35.5007 180.847 35.7175 180.81C35.6302 180.825 35.5412 180.832 35.4539 180.843C35.2457 180.848 35.0475 180.934 34.9003 181.082C34.753 181.23 34.6681 181.43 34.6631 181.64C34.6802 182.03 35.0137 182.488 35.4539 182.436C36.7739 182.281 38.0764 182 39.3443 181.599C39.4445 181.571 39.5382 181.524 39.6202 181.46C39.7021 181.395 39.7707 181.316 39.822 181.225C39.8733 181.134 39.9063 181.033 39.9191 180.929C39.9319 180.826 39.9243 180.72 39.8967 180.619C39.8691 180.518 39.8221 180.424 39.7582 180.341C39.6944 180.259 39.615 180.19 39.5247 180.138C39.4344 180.086 39.3348 180.053 39.2317 180.04C39.1286 180.027 39.024 180.035 38.9239 180.063L38.9229 180.062Z" fill="#B47119"/>
<path d="M49.1974 173.651C47.9235 175.088 46.4318 176.314 44.7778 177.282C42.9419 178.437 40.977 179.371 38.9238 180.062C37.9607 180.38 38.3729 181.918 39.3443 181.598C41.5291 180.868 43.6209 179.881 45.5761 178.657C47.2971 177.588 49.0053 176.343 50.316 174.777C50.4593 174.625 50.5392 174.424 50.5392 174.214C50.5392 174.004 50.4593 173.803 50.316 173.651C50.1669 173.503 49.9661 173.42 49.7569 173.42C49.5476 173.42 49.3465 173.503 49.1974 173.651Z" fill="#B47119"/>
<path d="M58.7328 186.27C56.3604 185.062 54.647 182.932 53.2368 180.717C51.9771 178.761 51.0965 176.583 50.6416 174.298C50.614 174.197 50.5669 174.102 50.5031 174.02C50.4393 173.937 50.3599 173.868 50.2696 173.816C50.1792 173.765 50.0797 173.731 49.9766 173.718C49.8735 173.706 49.7689 173.713 49.6687 173.741C49.5686 173.769 49.4749 173.816 49.3929 173.881C49.3109 173.945 49.2424 174.025 49.1911 174.116C49.1398 174.207 49.1068 174.307 49.0939 174.411C49.0811 174.515 49.0887 174.62 49.1163 174.721C49.4683 176.529 50.0796 178.277 50.9312 179.907C51.9521 181.883 53.2529 183.698 54.7927 185.297C55.7088 186.244 56.7696 187.037 57.9348 187.645C58.8409 188.107 59.6426 186.733 58.7328 186.27Z" fill="#B47119"/>
<path d="M58.8931 187.521C59.0556 187.387 59.243 187.288 59.4444 187.229C59.6457 187.169 59.8567 187.152 60.065 187.176C60.2733 187.201 60.4746 187.267 60.6569 187.372C60.8393 187.476 60.9989 187.616 61.1264 187.784C61.3582 188.221 61.466 188.714 61.4381 189.208C61.4651 189.793 61.432 190.378 61.3393 190.955C60.9854 193.061 59.899 195.627 57.5714 196.036C57.3702 196.093 57.1995 196.228 57.0962 196.412C56.9928 196.595 56.9652 196.812 57.0192 197.015C57.0789 197.217 57.2134 197.387 57.3946 197.49C57.5758 197.594 57.7898 197.623 57.9919 197.572C61.1917 197.01 62.7209 193.354 62.9861 190.445C63.1143 189.037 63.0787 187.275 61.8988 186.304C61.3112 185.827 60.575 185.574 59.8202 185.59C59.0654 185.607 58.3406 185.891 57.7741 186.394C57.6274 186.544 57.5452 186.746 57.5452 186.957C57.5452 187.168 57.6274 187.37 57.7741 187.52C57.9244 187.666 58.1248 187.747 58.3332 187.747C58.5417 187.747 58.7421 187.666 58.8924 187.52L58.8931 187.521Z" fill="#726A69"/>
<path d="M26.8278 186.395C26.2613 185.892 25.5366 185.607 24.7818 185.591C24.0271 185.575 23.2909 185.828 22.7034 186.305C21.5228 187.276 21.4866 189.037 21.6151 190.445C21.8787 193.355 23.4092 197.011 26.609 197.573C26.811 197.623 27.0245 197.593 27.2054 197.49C27.3863 197.386 27.521 197.217 27.5817 197.016C27.6357 196.813 27.608 196.596 27.5047 196.413C27.4014 196.229 27.2307 196.094 27.0294 196.037C24.7022 195.628 23.6155 193.062 23.2619 190.956C23.1694 190.379 23.1363 189.794 23.1631 189.209C23.1376 188.715 23.2453 188.222 23.4748 187.785C23.6021 187.617 23.7617 187.476 23.944 187.372C24.1263 187.267 24.3277 187.201 24.5361 187.176C24.7444 187.151 24.9556 187.169 25.1569 187.229C25.3583 187.288 25.5457 187.387 25.7081 187.521C25.859 187.666 26.0592 187.746 26.2673 187.746C26.4754 187.746 26.6756 187.666 26.8265 187.521C26.9732 187.371 27.0554 187.169 27.0554 186.958C27.0554 186.747 26.9732 186.545 26.8265 186.395H26.8278Z" fill="#726A69"/>
<path d="M88.6028 234.307C88.8859 233.372 89.076 232.404 89.3827 231.477C89.4361 231.273 89.4081 231.057 89.3048 230.873C89.2016 230.69 89.0312 230.555 88.8302 230.497C87.4393 230.117 86.0508 229.73 84.6669 229.325C82.8151 228.782 80.9419 228.248 79.1511 227.522C78.7267 227.35 78.3181 227.715 78.178 228.078C77.8327 228.974 77.5566 229.896 77.2195 230.795C77.1654 230.999 77.1929 231.216 77.2963 231.399C77.3996 231.583 77.5704 231.718 77.7718 231.775C77.9738 231.827 78.1879 231.798 78.3691 231.694C78.5504 231.59 78.6849 231.42 78.7445 231.219C79.0819 230.32 79.358 229.398 79.7033 228.502L78.7306 229.058C80.5215 229.784 82.3947 230.32 84.2465 230.861C85.6304 231.266 87.0189 231.654 88.4097 232.033L87.8575 231.053C87.551 231.98 87.3606 232.948 87.0775 233.883C86.781 234.866 88.3063 235.286 88.6028 234.307Z" fill="#726A69"/>
<path d="M34.1147 220.056C36.818 220.811 39.6111 221.192 42.4165 221.187C45.1006 221.142 47.9403 220.817 50.4537 219.826C50.6525 219.764 50.8205 219.629 50.9232 219.446C51.0259 219.264 51.0555 219.049 51.0059 218.846C50.9489 218.643 50.8149 218.471 50.6329 218.367C50.4508 218.263 50.2354 218.235 50.0333 218.29C47.6394 219.234 44.9724 219.551 42.4165 219.593C39.7531 219.598 37.1014 219.237 34.5351 218.519C33.5503 218.256 33.1302 219.793 34.1147 220.055V220.056Z" fill="#726A69"/>
<path d="M38.6416 246.569C38.73 246.649 38.8114 246.736 38.8847 246.83L38.7612 246.669C38.8393 246.773 38.9056 246.886 38.9589 247.005L38.8791 246.815C38.9332 246.944 38.9707 247.08 38.9905 247.22L38.9622 247.008C38.9811 247.158 38.9811 247.31 38.9622 247.46L38.9905 247.248C38.9673 247.412 38.9238 247.572 38.861 247.725L38.9407 247.535C38.8912 247.655 38.8275 247.768 38.7509 247.872L38.8748 247.711C38.8021 247.804 38.7182 247.888 38.6251 247.96L38.7849 247.835C38.6753 247.917 38.5562 247.986 38.4303 248.039L38.6191 247.959C38.4709 248.019 38.316 248.061 38.1578 248.084L38.3684 248.055C38.1895 248.078 38.0085 248.078 37.8297 248.055L38.0399 248.084C37.8882 248.063 37.7397 248.023 37.5977 247.965L37.7868 248.046C37.68 248 37.5789 247.942 37.4857 247.872L37.6458 247.997C37.537 247.91 37.4386 247.811 37.3525 247.702L37.4761 247.863C37.3969 247.759 37.3311 247.646 37.2804 247.526L37.3601 247.716C37.3198 247.613 37.2913 247.506 37.2751 247.396L37.3031 247.608C37.2873 247.48 37.2873 247.35 37.3031 247.221L37.2748 247.433C37.2981 247.271 37.3419 247.112 37.4049 246.962L37.3252 247.152C37.4053 246.969 37.5076 246.796 37.6297 246.638L37.5061 246.799C37.5751 246.709 37.6541 246.627 37.7417 246.555L37.5819 246.68C37.682 246.603 37.7907 246.539 37.9058 246.489L37.717 246.569C37.869 246.505 38.0286 246.462 38.1918 246.44L37.9816 246.468C38.1369 246.449 38.2941 246.449 38.4495 246.468L38.2392 246.44C38.3712 246.459 38.5005 246.494 38.6244 246.544L38.4353 246.463C38.5476 246.511 38.6533 246.573 38.75 246.648L38.5901 246.524C38.6076 246.538 38.6247 246.552 38.6416 246.567C38.7932 246.712 38.9928 246.795 39.2017 246.799C39.3584 246.8 39.5117 246.753 39.6421 246.666C39.7725 246.578 39.8741 246.454 39.9341 246.308C39.9942 246.162 40.0098 246.002 39.9791 245.847C39.9485 245.692 39.8728 245.55 39.7619 245.439C39.3424 245.071 38.807 244.865 38.2511 244.858C37.7647 244.846 37.2856 244.978 36.8731 245.238C36.451 245.528 36.1217 245.935 35.9252 246.41C35.7288 246.886 35.6737 247.408 35.7666 247.914C35.9055 248.465 36.2414 248.946 36.71 249.263C36.9955 249.445 37.314 249.568 37.647 249.626C37.9801 249.683 38.3212 249.674 38.6506 249.598C38.9801 249.522 39.2915 249.382 39.5668 249.184C39.8421 248.987 40.0759 248.737 40.2548 248.448C40.4793 248.024 40.582 247.545 40.5513 247.066C40.5028 246.442 40.22 245.861 39.7605 245.44C39.6118 245.292 39.4113 245.21 39.2027 245.211C38.9941 245.212 38.7943 245.296 38.6467 245.444C38.4992 245.593 38.416 245.794 38.4151 246.004C38.4143 246.214 38.4959 246.416 38.6422 246.566L38.6416 246.569Z" fill="#90898C"/>
<path d="M42.772 267.494C43.4294 261.398 44.1655 255.321 44.4367 249.191C44.4924 248.264 44.4624 247.333 44.3471 246.412C44.1781 245.424 43.9005 244.458 43.5193 243.532C43.4586 243.331 43.324 243.162 43.143 243.058C42.9621 242.955 42.7487 242.925 42.5467 242.976C42.3453 243.033 42.1745 243.168 42.0711 243.351C41.9677 243.535 41.94 243.752 41.9941 243.955C42.329 244.772 42.5878 245.617 42.7671 246.482C42.8848 247.268 42.919 248.064 42.8689 248.858C42.8066 250.507 42.6907 252.154 42.5776 253.8C42.3743 256.758 42.0504 259.703 41.7265 262.649C41.5483 264.264 41.3641 265.879 41.1904 267.495C41.1918 267.706 41.2756 267.908 41.4236 268.057C41.5716 268.206 41.7719 268.29 41.9812 268.292C42.1895 268.287 42.388 268.201 42.5353 268.053C42.6826 267.905 42.7674 267.705 42.772 267.495V267.494Z" fill="#90898C"/>
<path d="M28.8 213.012C27.0581 214.125 25.2422 215.116 23.3652 215.978C21.3707 216.952 19.3782 217.952 17.3353 218.822C16.4051 219.219 15.3935 219.64 14.7046 220.416C14.0101 221.275 13.4836 222.259 13.1529 223.315C12.717 224.559 12.3812 225.835 12.1486 227.132C11.5483 230.293 11.2148 233.508 10.9153 236.71C10.5074 241.073 10.2141 245.448 9.94886 249.82C9.63352 255.027 9.36663 260.235 9.105 265.442C9.07074 266.126 9.03614 266.81 9.00121 267.494C8.95014 268.519 10.5317 268.516 10.5828 267.494C11.0649 257.831 11.5054 248.156 12.3338 238.515C12.6191 235.2 12.9341 231.916 13.4696 228.7C13.6486 227.557 13.8859 226.423 14.1803 225.304C14.4151 224.381 14.7384 223.483 15.1458 222.623C15.4864 221.845 16.0771 221.205 16.8226 220.807C17.8674 220.243 18.9973 219.834 20.0655 219.32C21.202 218.773 22.3424 218.235 23.4779 217.686C25.556 216.682 27.6764 215.681 29.5967 214.387C30.4386 213.82 29.6478 212.44 28.7987 213.012H28.8Z" fill="#90898C"/>
<path d="M52.2124 211.742C51.2048 215.849 49.873 219.869 48.4831 223.857C47.0992 227.827 45.6708 231.782 44.2424 235.736C43.4464 237.94 42.6535 240.145 41.8638 242.35C41.81 242.554 41.8377 242.771 41.941 242.954C42.0443 243.137 42.2148 243.272 42.416 243.33C42.6181 243.382 42.8322 243.353 43.0136 243.249C43.1949 243.146 43.3293 242.975 43.3887 242.774C46.2208 234.824 49.2538 226.93 51.8173 218.886C52.5245 216.665 53.1821 214.428 53.7377 212.164C53.9818 211.168 52.4569 210.744 52.2124 211.741V211.742Z" fill="#90898C"/>
<path d="M48.2871 241.175C50.276 238.313 52.1966 235.404 54.0491 232.448C54.986 230.952 55.9045 229.444 56.8047 227.925C57.6838 226.442 58.5998 224.961 59.3949 223.43C59.5245 223.216 59.598 222.971 59.6085 222.721C59.6189 222.47 59.5661 222.22 59.4549 221.995C59.1992 221.6 58.8854 221.245 58.5241 220.945C57.8242 220.251 57.097 219.584 56.3668 218.924L56.2067 220.176C56.8591 219.786 57.5016 219.379 58.1672 219.011C58.8143 218.654 59.7376 218.356 59.5 217.402C59.2864 216.799 58.9688 216.238 58.5619 215.746C58.1912 215.23 57.7837 214.742 57.3428 214.286C56.1301 213.097 54.7998 212.035 53.3726 211.119C52.5278 210.542 51.7357 211.922 52.5746 212.494L53.5301 213.146C53.9214 213.404 54.298 213.684 54.6583 213.985C55.3455 214.539 55.9895 215.146 56.5849 215.799C56.8592 216.103 57.1133 216.424 57.3454 216.762C57.4553 216.923 57.5598 217.087 57.6591 217.254C57.7147 217.348 57.7687 217.442 57.8212 217.537C57.84 217.57 57.9487 217.815 57.9481 217.743L58.0562 217.341L58.0025 217.427L58.2862 217.141C57.8396 217.42 57.3775 217.674 56.9022 217.9C56.4004 218.192 55.9072 218.5 55.4083 218.798C55.305 218.861 55.217 218.946 55.1511 219.048C55.0851 219.149 55.0429 219.265 55.0275 219.385C55.0121 219.505 55.024 219.628 55.0623 219.743C55.1006 219.858 55.1642 219.963 55.2485 220.049C55.8442 220.589 56.4376 221.131 57.0159 221.689C57.2953 221.959 57.5706 222.232 57.8417 222.51C57.8598 222.529 58.01 222.719 58.0552 222.732C58.0282 222.724 58.0591 222.569 58.0552 222.575C57.9672 222.749 57.8644 222.918 57.7685 223.088C56.9542 224.532 56.1235 225.966 55.2765 227.392C53.6053 230.202 51.871 232.974 50.0737 235.707C49.0425 237.275 47.9913 238.829 46.92 240.37C46.816 240.553 46.7875 240.77 46.8406 240.973C46.8936 241.177 47.024 241.352 47.2037 241.46C47.3858 241.562 47.6001 241.59 47.8019 241.536C48.0036 241.483 48.177 241.353 48.2858 241.174L48.2871 241.175Z" fill="#90898C"/>
<path d="M21.3794 267.494C21.6256 264.131 21.9683 260.776 22.2562 257.417C22.3693 256.095 22.4869 254.771 22.5419 253.445C22.5675 252.503 22.5206 251.562 22.4016 250.628C21.7505 244.838 20.4809 239.144 19.5721 233.393C19.2631 231.437 18.9711 229.477 18.6495 227.525C18.4699 226.19 18.2041 224.869 17.8538 223.57C17.5572 222.592 16.03 223.009 16.3285 223.993C16.6315 225.101 16.8647 226.227 17.0267 227.365C17.315 229.06 17.5717 230.761 17.8363 232.461C18.3016 235.448 18.8416 238.419 19.3784 241.394C19.8792 244.169 20.3738 247.052 20.7201 249.785C20.8744 250.798 20.9608 251.821 20.9788 252.845C20.9695 254.009 20.8608 255.175 20.7666 256.334C20.4644 260.056 20.072 263.769 19.7995 267.494C19.7995 267.599 19.8199 267.702 19.8597 267.799C19.8994 267.896 19.9577 267.984 20.0311 268.058C20.1045 268.131 20.1917 268.19 20.2877 268.23C20.3836 268.27 20.4864 268.291 20.5903 268.291C20.6941 268.291 20.797 268.27 20.8929 268.23C20.9889 268.19 21.076 268.131 21.1495 268.058C21.2229 267.984 21.2812 267.896 21.3209 267.799C21.3606 267.702 21.3811 267.599 21.3811 267.494H21.3794Z" fill="#90898C"/>
<path d="M66.7664 223.374C65.9489 229.489 65.171 235.596 64.0737 241.669C63.563 244.495 63.0559 247.325 62.6898 250.175C62.5441 251.132 62.4712 252.099 62.4717 253.067C62.5007 254.245 62.6035 255.423 62.7023 256.597C63.0018 260.231 63.3818 263.858 63.6477 267.494C63.6526 267.704 63.7375 267.903 63.8848 268.052C64.032 268.2 64.2303 268.286 64.4385 268.291C64.6477 268.289 64.8478 268.204 64.9958 268.055C65.1437 267.906 65.2276 267.705 65.2293 267.494C64.9917 264.244 64.6635 261.001 64.3818 257.755C64.1894 255.534 63.9251 253.302 64.1653 251.077C64.449 248.447 64.9538 245.696 65.4329 243.017C65.9601 240.074 66.4801 237.133 66.912 234.173C67.2116 232.12 67.4874 230.064 67.7533 228.007C67.8594 227.186 67.9643 226.365 68.0679 225.543C68.1119 225.194 68.1558 224.845 68.1997 224.496L68.2581 224.045C68.2676 223.973 68.3184 223.59 68.291 223.797C68.3395 223.594 68.3095 223.379 68.2069 223.197C68.1043 223.015 67.9368 222.879 67.7384 222.817C67.5362 222.762 67.3208 222.79 67.1387 222.894C66.9567 222.998 66.8227 223.171 66.7657 223.374H66.7664Z" fill="#90898C"/>
<path d="M30.8414 212.139C33.6013 220.41 36.3902 228.665 39.4015 236.846C40.2734 239.216 41.1479 241.584 41.995 243.963C42.0553 244.164 42.1899 244.333 42.371 244.437C42.5521 244.54 42.7657 244.57 42.9677 244.519C43.1689 244.461 43.3396 244.326 43.4429 244.143C43.5462 243.96 43.5739 243.743 43.52 243.539C42.0099 239.301 40.4157 235.095 38.8977 230.86C37.4308 226.767 36.0311 222.65 34.6472 218.529C33.8838 216.26 33.1242 213.988 32.3683 211.716C32.0457 210.749 30.5175 211.164 30.8431 212.14L30.8414 212.139Z" fill="#90898C"/>
<path d="M37.6636 240.547C33.9171 235.154 30.4176 229.599 27.165 223.882C27.0481 223.677 26.9315 223.471 26.8151 223.264C26.7637 223.173 26.7116 223.081 26.6605 222.989C26.6401 222.953 26.5228 222.683 26.535 222.792C26.5373 222.813 26.5498 222.892 26.5297 222.909C26.6427 222.809 26.7462 222.683 26.8513 222.577C26.9963 222.429 27.1425 222.283 27.2899 222.138C27.9558 221.484 28.6445 220.853 29.3367 220.227C29.421 220.14 29.4846 220.035 29.5229 219.92C29.5611 219.805 29.573 219.683 29.5576 219.562C29.5421 219.442 29.4999 219.327 29.4339 219.225C29.3679 219.124 29.2799 219.038 29.1766 218.976C28.6777 218.677 28.1845 218.37 27.6826 218.077C27.2074 217.851 26.7453 217.598 26.2987 217.319L26.5824 217.605L26.5287 217.519L26.6365 217.921C26.6365 217.981 26.7188 217.796 26.732 217.771C26.7834 217.675 26.8363 217.579 26.8905 217.484C26.9988 217.295 27.1129 217.109 27.2329 216.927C27.4602 216.58 27.7086 216.247 27.9766 215.931C28.5564 215.256 29.1912 214.631 29.8745 214.062C30.2315 213.757 30.6074 213.475 30.9997 213.218L31.9553 212.566C32.7932 211.995 32.0027 210.614 31.1569 211.191C29.7229 212.105 28.399 213.183 27.2118 214.405C26.7787 214.876 26.3785 215.378 26.014 215.905C25.6156 216.408 25.3018 216.973 25.0852 217.578C24.8443 218.498 25.7211 218.806 26.3511 219.15C27.0408 219.526 27.7044 219.948 28.3782 220.351L28.2184 219.1C27.5647 219.692 26.9139 220.287 26.2829 220.902C25.7116 221.46 24.9138 222.059 24.9728 222.944C25.0465 223.35 25.2094 223.734 25.4496 224.069C25.682 224.481 25.9159 224.893 26.1511 225.304C26.5685 226.034 26.991 226.762 27.4187 227.489C29.1967 230.512 31.0472 233.49 32.9701 236.423C34.0573 238.081 35.1666 239.724 36.2981 241.351C36.4078 241.529 36.5812 241.658 36.7825 241.712C36.9839 241.765 37.1978 241.738 37.3802 241.637C37.56 241.529 37.6906 241.354 37.7436 241.151C37.7967 240.947 37.7681 240.73 37.6639 240.547L37.6636 240.547Z" fill="#90898C"/>
<path d="M73.4796 244.954C75.0026 240.336 76.3463 235.665 77.6973 230.993L76.7246 231.55C78.7084 232.349 80.7235 233.066 82.7699 233.699C84.7407 234.349 86.7665 234.816 88.8219 235.093L88.0594 234.085C87.4209 237.276 86.8165 240.475 86.0857 243.646C85.3964 246.639 84.6768 249.713 83.4826 252.551C82.563 254.738 81.2173 256.848 79.0953 258.01C77.8426 258.678 76.4486 259.034 75.0309 259.046C73.6132 259.058 72.2133 258.727 70.9494 258.08C69.6806 257.366 68.5168 256.477 67.4916 255.439C66.4204 254.425 65.4115 253.347 64.3861 252.288C63.6743 251.553 62.5567 252.68 63.2677 253.417C65.1933 255.408 67.0899 257.573 69.4502 259.057C70.7945 259.893 72.3092 260.412 73.8809 260.575C75.4525 260.738 77.0404 260.54 78.5256 259.998C84.2339 257.923 85.857 251.202 87.1718 245.912C88.1089 242.14 88.8229 238.318 89.5857 234.509C89.6148 234.391 89.6172 234.267 89.5927 234.148C89.5682 234.029 89.5175 233.917 89.4443 233.82C89.3711 233.724 89.2773 233.645 89.1697 233.589C89.0622 233.534 88.9436 233.503 88.8229 233.5C86.8661 233.218 84.9389 232.757 83.0652 232.123C81.0662 231.502 79.0931 230.799 77.146 230.014C76.9438 229.96 76.7287 229.988 76.5468 230.092C76.3649 230.196 76.2307 230.367 76.173 230.57C74.822 235.241 73.477 239.912 71.9554 244.53C71.6338 245.505 73.1607 245.924 73.4806 244.954H73.4796Z" fill="#90898C"/>
<path d="M75.935 236.643C74.4523 232.654 73.501 228.502 72.1349 224.475C71.4429 222.438 70.751 220.016 68.9967 218.621C68.173 217.966 67.1456 217.713 66.2115 217.268C65.2084 216.79 64.1821 216.364 63.1471 215.958C60.8033 215.037 58.4059 214.226 56.1791 213.033C55.2809 212.552 54.4809 213.926 55.3811 214.409C57.3653 215.408 59.4102 216.281 61.5035 217.022C62.5164 217.409 63.531 217.796 64.5234 218.235C64.9788 218.436 65.4236 218.662 65.881 218.859C66.3462 219.06 66.8312 219.218 67.2896 219.434C69.1733 220.324 69.8337 222.658 70.465 224.479C71.121 226.371 71.6759 228.296 72.2232 230.222C72.8786 232.528 73.5742 234.819 74.4088 237.066C74.4694 237.266 74.604 237.436 74.785 237.539C74.966 237.643 75.1795 237.673 75.3815 237.622C75.5828 237.565 75.7535 237.43 75.8569 237.246C75.9602 237.063 75.9878 236.846 75.9337 236.642L75.935 236.643Z" fill="#90898C"/>
<path d="M80.8659 226.079C80.5147 224.546 80.3619 222.973 80.4112 221.399C80.4992 219.898 81.0373 218.545 81.632 217.182C82.1576 215.983 82.7434 214.814 83.3415 213.65C83.588 213.17 84.3629 211.175 85.0809 212.176C85.23 212.453 85.2779 212.774 85.2164 213.083C85.2012 213.482 85.1738 213.88 85.1317 214.274C85.031 215.174 84.8402 216.061 84.5623 216.922C84.2512 217.901 85.7778 218.32 86.0872 217.346C86.3707 216.439 86.5693 215.508 86.6803 214.564C86.7792 213.763 86.9634 212.743 86.7172 211.959C86.5982 211.537 86.3615 211.158 86.0353 210.868C85.7091 210.578 85.3071 210.388 84.877 210.322C84.0532 210.224 83.3879 210.65 82.8828 211.273C82.441 211.897 82.0649 212.565 81.7609 213.268C81.4198 213.935 81.0834 214.605 80.7645 215.284C80.0396 216.827 79.2461 218.44 78.9726 220.138C78.629 222.27 78.9216 224.405 79.3417 226.504C79.3974 226.707 79.5312 226.88 79.7137 226.985C79.8961 227.089 80.1123 227.116 80.3145 227.06C80.5168 227.004 80.6886 226.869 80.7922 226.685C80.8958 226.502 80.9227 226.284 80.8669 226.08L80.8659 226.079Z" fill="#726A69"/>
<path d="M39.7103 199.942C40.6613 200.438 41.7205 200.685 42.7908 200.66C43.8991 200.708 44.9918 200.384 45.8974 199.738C46.0446 199.588 46.1271 199.386 46.1271 199.175C46.1271 198.964 46.0446 198.762 45.8974 198.612C45.7464 198.467 45.5458 198.386 45.3372 198.386C45.1286 198.386 44.928 198.467 44.7771 198.612C45.0163 198.424 44.8281 198.569 44.7669 198.609C44.7056 198.649 44.641 198.686 44.5761 198.72C44.522 198.749 44.2881 198.842 44.5033 198.762C44.4156 198.795 44.3293 198.828 44.2397 198.859C43.9991 198.935 43.7527 198.992 43.5029 199.028C43.6185 199.011 43.4749 199.03 43.4301 199.035C43.3579 199.042 43.2854 199.048 43.2129 199.052C43.0386 199.064 42.864 199.068 42.6894 199.067C42.5328 199.067 42.3767 199.061 42.2205 199.05C42.149 199.045 42.0775 199.04 42.006 199.032C41.9997 199.032 41.7424 198.996 41.8992 199.021C41.6667 198.985 41.4369 198.933 41.2112 198.867C41.115 198.838 41.0208 198.803 40.9259 198.77C40.7229 198.7 41.0392 198.829 40.856 198.742C40.738 198.686 40.6215 198.628 40.5064 198.567C40.3243 198.464 40.11 198.437 39.9084 198.49C39.7067 198.544 39.5333 198.673 39.4243 198.852C39.3208 199.035 39.2925 199.252 39.3455 199.456C39.3985 199.659 39.5287 199.834 39.708 199.942H39.7103Z" fill="#726A69"/>
<path d="M42.3935 192.628C42.5356 193.145 42.6493 193.669 42.7342 194.198L42.7062 193.987C42.7163 194.058 42.7182 194.131 42.7118 194.203L42.7401 193.992C42.7354 194.025 42.7274 194.058 42.7164 194.089L42.7961 193.899C42.7871 193.921 42.776 193.942 42.7632 193.961L42.8868 193.8C42.8717 193.819 42.8545 193.836 42.8357 193.851L42.9958 193.726C42.9561 193.751 42.9148 193.773 42.8723 193.793L43.0614 193.712C42.9947 193.741 42.9247 193.762 42.8531 193.774L43.0634 193.745C42.9985 193.753 42.9329 193.753 42.868 193.745L43.0782 193.774C43.0044 193.763 42.9322 193.745 42.8584 193.735C42.7565 193.702 42.6476 193.697 42.5431 193.721C42.4385 193.726 42.337 193.758 42.2492 193.816C42.0681 193.922 41.9365 194.097 41.8833 194.301C41.8301 194.506 41.8596 194.723 41.9655 194.905C42.0157 194.995 42.0834 195.074 42.1646 195.137C42.2458 195.199 42.3388 195.245 42.438 195.27C42.605 195.293 42.7675 195.337 42.9368 195.343C43.1919 195.345 43.4435 195.285 43.6706 195.168C43.8142 195.102 43.9414 195.005 44.0429 194.884C44.1444 194.762 44.2176 194.619 44.2572 194.466C44.3091 194.215 44.3066 193.957 44.2499 193.708C44.1649 193.202 44.0489 192.7 43.9204 192.204C43.8928 192.103 43.8457 192.009 43.7819 191.926C43.7181 191.844 43.6387 191.775 43.5484 191.723C43.458 191.671 43.3585 191.638 43.2554 191.625C43.1523 191.612 43.0477 191.62 42.9476 191.648C42.8474 191.676 42.7537 191.723 42.6717 191.787C42.5897 191.852 42.5212 191.932 42.4699 192.023C42.4186 192.114 42.3856 192.214 42.3727 192.318C42.3599 192.422 42.3675 192.527 42.3951 192.628H42.3935Z" fill="#726A69"/>
<path d="M34.1432 188.18C33.8829 189.033 34.0526 190.994 35.6556 191.16C37.7746 191.148 37.8873 188.777 37.174 187.662C36.5891 186.75 34.8721 186.371 34.1432 188.18Z" fill="#726A69"/>
<path d="M51.1092 188.18C51.3695 189.033 51.1998 190.993 49.5968 191.16C47.4781 191.147 47.3651 188.777 48.0784 187.662C48.6623 186.75 50.3793 186.371 51.1092 188.18Z" fill="#726A69"/>
<mask id="path-49-inside-1_2414_22480" fill="white">
<path fill-rule="evenodd" clip-rule="evenodd" d="M84.141 175.966C78.2226 175.966 73.4248 180.764 73.4248 186.682C73.4248 192.409 77.9168 197.086 83.5695 197.383L85.3859 201.016C85.5701 201.384 86.096 201.384 86.2803 201.016L88.0891 197.398H104.445C110.364 197.398 115.162 192.6 115.162 186.682C115.162 180.764 110.364 175.966 104.445 175.966H84.141Z"/>
</mask>
<path fill-rule="evenodd" clip-rule="evenodd" d="M84.141 175.966C78.2226 175.966 73.4248 180.764 73.4248 186.682C73.4248 192.409 77.9168 197.086 83.5695 197.383L85.3859 201.016C85.5701 201.384 86.096 201.384 86.2803 201.016L88.0891 197.398H104.445C110.364 197.398 115.162 192.6 115.162 186.682C115.162 180.764 110.364 175.966 104.445 175.966H84.141Z" fill="white"/>
<path d="M83.5695 197.383L84.9112 196.712C84.6697 196.23 84.1874 195.914 83.6482 195.885L83.5695 197.383ZM86.2803 201.016L84.9386 200.345L84.9386 200.345L86.2803 201.016ZM88.0891 197.398V195.898C87.521 195.898 87.0016 196.219 86.7475 196.727L88.0891 197.398ZM74.9248 186.682C74.9248 181.592 79.051 177.466 84.141 177.466V174.466C77.3942 174.466 71.9248 179.935 71.9248 186.682H74.9248ZM83.6482 195.885C78.788 195.63 74.9248 191.607 74.9248 186.682H71.9248C71.9248 193.211 77.0456 198.543 83.4908 198.881L83.6482 195.885ZM86.7275 200.345L84.9112 196.712L82.2279 198.054L84.0442 201.687L86.7275 200.345ZM84.9386 200.345C85.3072 199.608 86.359 199.608 86.7275 200.345L84.0442 201.687C84.7813 203.161 86.8849 203.161 87.6219 201.687L84.9386 200.345ZM86.7475 196.727L84.9386 200.345L87.6219 201.687L89.4308 198.069L86.7475 196.727ZM104.445 195.898H88.0891V198.898H104.445V195.898ZM113.662 186.682C113.662 191.772 109.535 195.898 104.445 195.898V198.898C111.192 198.898 116.662 193.429 116.662 186.682H113.662ZM104.445 177.466C109.535 177.466 113.662 181.592 113.662 186.682H116.662C116.662 179.935 111.192 174.466 104.445 174.466V177.466ZM84.141 177.466H104.445V174.466H84.141V177.466Z" fill="#DAA1B8" mask="url(#path-49-inside-1_2414_22480)"/>
<circle cx="86.3971" cy="186.682" r="1.69203" fill="#DAA1B8"/>
<circle cx="94.2936" cy="186.682" r="1.69203" fill="#DAA1B8"/>
<circle cx="102.19" cy="186.682" r="1.69203" fill="#DAA1B8"/>
</g>
<defs>
<clipPath id="clip0_2414_22480">
<rect width="454" height="266" fill="white"/>
</clipPath>
</defs>
</svg>
