<svg width="370" height="240" viewBox="0 0 370 240" fill="none" xmlns="http://www.w3.org/2000/svg">
<path d="M276.993 12.631V50.7759C276.993 50.9891 277.035 51.2002 277.116 51.3973C277.198 51.5943 277.318 51.7734 277.469 51.9241C277.62 52.0749 277.799 52.1945 277.996 52.2759C278.194 52.3574 278.405 52.3992 278.619 52.399C296.118 52.399 323.773 52.399 339.767 52.399C339.98 52.3993 340.191 52.3576 340.389 52.2763C340.586 52.195 340.765 52.0756 340.916 51.9251C341.067 51.7745 341.186 51.5958 341.268 51.399C341.35 51.2022 341.392 50.9913 341.391 50.7783V12.6334C341.392 12.42 341.35 12.2087 341.268 12.0114C341.186 11.8142 341.066 11.635 340.915 11.4841C340.764 11.3331 340.585 11.2134 340.387 11.1318C340.189 11.0502 339.978 11.0082 339.764 11.0083H278.616C278.403 11.0083 278.192 11.0503 277.995 11.1319C277.797 11.2134 277.618 11.333 277.468 11.4837C277.317 11.6344 277.197 11.8133 277.116 12.0102C277.035 12.2071 276.993 12.418 276.993 12.631Z" fill="#D9D9D9"/>
<path d="M341.393 18.4751V22.5302H276.993V18.4751H341.393Z" fill="#726A69"/>
<path d="M288.667 39.3244L288.659 40.9324C288.662 41.1916 288.764 41.4398 288.945 41.6255C289.129 41.809 289.378 41.9121 289.638 41.9121C289.898 41.9121 290.147 41.809 290.331 41.6255C290.511 41.4391 290.613 41.1913 290.617 40.9324L290.625 39.3244C290.623 39.0653 290.52 38.817 290.339 38.6313C290.156 38.4478 289.906 38.3447 289.646 38.3447C289.386 38.3447 289.137 38.4478 288.953 38.6313C288.773 38.8177 288.671 39.0655 288.667 39.3244Z" fill="#726A69"/>
<path d="M286.073 39.3112L286.064 40.9197C286.067 41.1788 286.169 41.427 286.35 41.6128C286.534 41.7963 286.783 41.8994 287.043 41.8994C287.303 41.8994 287.553 41.7963 287.736 41.6128C287.917 41.4264 288.019 41.1786 288.022 40.9197L288.031 39.3112C288.028 39.0521 287.926 38.8039 287.745 38.6181C287.561 38.4346 287.312 38.3315 287.052 38.3315C286.792 38.3315 286.542 38.4346 286.359 38.6181C286.179 38.8047 286.077 39.0524 286.073 39.3112Z" fill="#726A69"/>
<path d="M283.478 39.2976L283.47 40.9056C283.472 41.1648 283.574 41.4131 283.756 41.5987C283.847 41.6896 283.955 41.7617 284.074 41.8109C284.193 41.8602 284.32 41.8855 284.449 41.8855C284.578 41.8855 284.705 41.8602 284.824 41.8109C284.943 41.7617 285.051 41.6896 285.142 41.5987C285.322 41.4121 285.424 41.1644 285.428 40.9056L285.436 39.2976C285.434 39.0384 285.331 38.7902 285.15 38.6044C284.967 38.421 284.717 38.3179 284.457 38.3179C284.197 38.3179 283.948 38.421 283.764 38.6044C283.584 38.7908 283.482 39.0387 283.478 39.2976Z" fill="#726A69"/>
<path d="M280.883 39.2849L280.875 40.8929C280.878 41.152 280.98 41.4002 281.161 41.586C281.345 41.7695 281.594 41.8726 281.854 41.8726C282.114 41.8726 282.363 41.7695 282.547 41.586C282.727 41.3996 282.829 41.1518 282.833 40.8929L282.841 39.2849C282.839 39.0257 282.736 38.7775 282.555 38.5917C282.371 38.4083 282.122 38.3052 281.862 38.3052C281.602 38.3052 281.353 38.4083 281.169 38.5917C280.989 38.7782 280.887 39.026 280.883 39.2849Z" fill="#726A69"/>
<path d="M336.54 31.2124H328.934C327.673 31.2124 327.671 33.1694 328.934 33.1694H336.54C337.802 33.1694 337.804 31.2124 336.54 31.2124Z" fill="#726A69"/>
<path d="M325.01 31.2124H317.404C316.142 31.2124 316.14 33.1694 317.404 33.1694H325.01C326.271 33.1694 326.274 31.2124 325.01 31.2124Z" fill="#726A69"/>
<path d="M313.481 31.2124H305.874C304.613 31.2124 304.611 33.1694 305.874 33.1694H313.481C314.742 33.1694 314.744 31.2124 313.481 31.2124Z" fill="#726A69"/>
<path d="M301.952 31.2124H294.345C293.084 31.2124 293.082 33.1694 294.345 33.1694H301.952C303.213 33.1694 303.215 31.2124 301.952 31.2124Z" fill="#726A69"/>
<path d="M336.317 44.5785C335.566 45.4972 334.815 46.4151 334.062 47.3321C333.885 47.5204 333.783 47.7671 333.776 48.0253C333.778 48.2847 333.88 48.5334 334.062 48.7184C334.247 48.9012 334.496 49.0037 334.757 49.0038C334.886 49.0055 335.014 48.981 335.133 48.932C335.252 48.8829 335.36 48.8103 335.451 48.7184C336.2 47.7986 336.952 46.8807 337.706 45.9647C337.883 45.7764 337.985 45.5298 337.992 45.2716C337.991 45.0122 337.888 44.7634 337.706 44.5785C337.521 44.3955 337.272 44.2929 337.011 44.293C336.882 44.2914 336.754 44.3158 336.635 44.3649C336.516 44.4139 336.408 44.4866 336.317 44.5785Z" fill="#726A69"/>
<path d="M276.994 19.4536H341.393C342.654 19.4536 342.657 17.4966 341.393 17.4966H276.994C275.732 17.4966 275.73 19.4536 276.994 19.4536Z" fill="#726A69"/>
<path d="M276.994 23.5088H341.393C342.654 23.5088 342.657 21.5518 341.393 21.5518H276.994C275.732 21.5518 275.73 23.5088 276.994 23.5088Z" fill="#726A69"/>
<path d="M276.014 12.631V49.3489C276.014 50.2772 275.891 51.2725 276.381 52.1079C277.349 53.7628 279.513 53.3775 281.134 53.3775H338.015C338.778 53.4297 339.545 53.4102 340.305 53.3192C340.776 53.2189 341.209 52.9912 341.558 52.6612C341.908 52.3311 342.159 51.9115 342.285 51.4482C342.521 50.5463 342.372 49.4691 342.372 48.5436V13.6275C342.416 13.0711 342.386 12.5115 342.285 11.9628C342.158 11.4989 341.907 11.0786 341.557 10.7479C341.207 10.4171 340.774 10.1886 340.303 10.0873C339.534 9.99562 338.759 9.9761 337.987 10.029H279.493C278.775 10.029 278.058 9.98821 277.4 10.3327C276.986 10.5589 276.639 10.8907 276.396 11.2944C276.152 11.698 276.02 12.159 276.014 12.6302C275.96 13.8896 277.92 13.8872 277.974 12.6302C278 12.0137 278.538 11.986 279.027 11.986H328.497C332.206 11.986 335.917 11.953 339.626 11.986C340.253 11.9913 340.412 12.3476 340.412 12.9307V49.8287C340.412 50.1957 340.515 50.7171 340.356 51.0543C340.111 51.5713 339.395 51.418 338.932 51.418H279.203C278.705 51.418 278.062 51.4841 277.978 50.8435C277.948 50.3984 277.947 49.9519 277.975 49.5066V12.631C277.974 11.372 276.014 11.3695 276.014 12.631Z" fill="#726A69"/>
<path d="M279.839 15.1678L281.772 16.2817C281.829 16.3145 281.894 16.3317 281.96 16.3315C282.026 16.3314 282.091 16.3139 282.148 16.2809C282.205 16.2479 282.253 16.2004 282.286 16.1433C282.319 16.0862 282.336 16.0215 282.336 15.9555C282.336 15.2102 282.336 14.4677 282.336 13.7278C282.336 13.6619 282.319 13.5972 282.286 13.5402C282.252 13.4832 282.205 13.436 282.148 13.4032C282.09 13.3704 282.025 13.3533 281.959 13.3535C281.893 13.3537 281.829 13.3713 281.772 13.4045L279.84 14.5179C279.783 14.551 279.736 14.5984 279.703 14.6554C279.67 14.7124 279.652 14.777 279.652 14.8428C279.652 14.9086 279.67 14.9732 279.702 15.0302C279.735 15.0873 279.782 15.1347 279.839 15.1678Z" fill="#726A69"/>
<path d="M288.623 28.1006H282.95C282.811 28.1006 282.673 28.1279 282.545 28.181C282.416 28.2341 282.3 28.312 282.202 28.4101C282.104 28.5082 282.026 28.6246 281.973 28.7528C281.92 28.881 281.892 29.0183 281.893 29.157V34.1033C281.892 34.242 281.92 34.3793 281.973 34.5074C282.026 34.6355 282.104 34.7519 282.202 34.85C282.3 34.9481 282.417 35.0259 282.545 35.0789C282.673 35.132 282.811 35.1593 282.95 35.1593H288.623C288.762 35.1595 288.899 35.1323 289.028 35.0794C289.156 35.0264 289.273 34.9487 289.371 34.8507C289.469 34.7527 289.547 34.6363 289.6 34.5082C289.654 34.3802 289.681 34.2428 289.681 34.1042V29.1566C289.681 28.8765 289.57 28.6079 289.371 28.4099C289.173 28.2118 288.904 28.1006 288.623 28.1006Z" fill="#ECBB7A"/>
<path d="M288.847 27.1223H283.336C282.959 27.0918 282.58 27.1174 282.211 27.1981C281.856 27.3079 281.542 27.5225 281.311 27.8136C281.081 28.1047 280.944 28.4587 280.919 28.829C280.842 29.8556 280.912 30.9104 280.912 31.9386V33.8394C280.912 34.4701 280.938 35.0756 281.409 35.573C281.957 36.1523 282.675 36.1389 283.412 36.1389H287.852C288.614 36.1389 289.392 36.2257 290.016 35.7038C290.688 35.1424 290.661 34.3584 290.661 33.5597V29.8589C290.696 29.4117 290.679 28.9619 290.61 28.5187C290.509 28.1258 290.282 27.7766 289.964 27.5246C289.646 27.2725 289.254 27.1315 288.847 27.1231C288.588 27.1231 288.338 27.2262 288.154 27.4097C287.971 27.5932 287.867 27.8421 287.867 28.1016C287.867 28.3611 287.971 28.61 288.154 28.7935C288.338 28.977 288.588 29.0801 288.847 29.0801C288.77 29.0756 288.766 29.0357 288.708 29.0035C288.895 29.1083 288.703 29.0691 288.71 28.9888C288.727 28.7752 288.7 29.2636 288.7 29.242V33.4056C288.7 33.4871 288.731 34.3225 288.7 34.3299C288.67 34.3372 288.782 34.1823 288.777 34.1896C288.622 34.4668 288.867 34.0966 288.847 34.1818C288.836 34.2304 287.296 34.1818 287.163 34.1818H283.03C283.05 34.1818 282.567 34.2096 282.78 34.1916C282.861 34.1847 282.902 34.3763 282.795 34.1892C282.8 34.1969 282.915 34.3115 282.872 34.3274C282.894 34.071 282.894 33.8132 282.872 33.5568V30.132C282.9 29.763 282.9 29.3925 282.872 29.0235C282.875 28.9943 282.875 28.965 282.872 28.9358C282.892 28.944 282.841 29.032 282.836 29.0373C282.772 29.0963 282.781 29.0853 282.865 29.0043C282.845 29.0354 282.815 29.0591 282.78 29.0716C282.567 29.0536 283.051 29.0809 283.03 29.0809H288.847C290.109 29.0793 290.111 27.1223 288.847 27.1223Z" fill="#D0903A"/>
<path d="M332.233 72.2289C342.699 61.7507 352.702 51.8755 360.125 44.2304C364.514 38.8078 359.114 32.2538 353.745 31.9256C351.849 31.8094 350.371 32.2282 349.207 33.2103C345.059 36.711 325.058 54.0482 319.072 59.2759" fill="#726A69"/>
<path d="M332.926 72.9206C339.672 66.1664 346.453 59.4469 353.183 52.6776C354.663 51.1889 356.14 49.6967 357.612 48.2009C358.283 47.5184 358.953 46.8349 359.622 46.1505C360.337 45.4826 360.979 44.7403 361.536 43.9362C363.579 40.6916 362.729 36.7291 360.174 34.0459C357.652 31.3958 353.505 30.0201 350.028 31.5511C349.048 31.9816 348.265 32.7265 347.46 33.4123C346.737 34.0285 346.015 34.6459 345.293 35.2646C340.887 39.0405 336.491 42.8285 332.105 46.6283C327.927 50.2434 323.758 53.8695 319.599 57.5065C319.273 57.7936 318.947 58.081 318.622 58.3689C317.676 59.2063 319.066 60.5864 320.008 59.753C323.735 56.453 327.503 53.1978 331.266 49.9386C335.733 46.0691 340.207 42.2082 344.689 38.3558C346.195 37.0626 347.703 35.7715 349.213 34.4826C349.996 33.7223 350.977 33.1967 352.045 32.9655C353.624 32.7146 355.241 33.0018 356.636 33.7809C359.264 35.2079 361.407 38.225 360.576 41.3109C360.103 43.0698 358.773 44.2216 357.543 45.4774C356.152 46.8981 354.757 48.314 353.357 49.7249C346.974 56.1639 340.536 62.5467 334.123 68.9551C333.262 69.8154 332.402 70.6762 331.541 71.5376C330.649 72.4305 332.035 73.8151 332.927 72.9214L332.926 72.9206Z" fill="#726A69"/>
<path d="M338.172 61.0895C343.075 56.1985 347.972 51.3022 352.863 46.4004C354.09 45.1634 355.316 43.9238 356.539 42.6816C357.423 41.7818 356.038 40.3984 355.152 41.2978C350.528 46.0012 345.858 50.6589 341.188 55.3171C339.721 56.7799 338.255 58.2428 336.788 59.7057C335.894 60.597 337.28 61.9811 338.174 61.0895H338.172Z" fill="#726A69"/>
<path d="M326.247 74.3513C330.405 74.6212 334.109 72.2471 333.846 66.9929C333.571 61.5038 328.929 57.8911 324.82 57.3916C320.684 56.8889 317.072 59.497 317.346 64.9873C317.616 70.3394 322.619 74.116 326.247 74.3513Z" fill="#E5005A"/>
<path d="M326.246 75.3297C328.052 75.473 329.858 75.063 331.424 74.1543C332.993 73.1766 334.119 71.6271 334.562 69.8346C335.626 65.6188 333.69 61.2114 330.304 58.6493C327.467 56.5035 323.368 55.4883 320.096 57.2684C316.499 59.2254 315.644 64.0177 316.858 67.6496C318.176 71.591 322.004 75.017 326.246 75.3297C326.506 75.3297 326.756 75.2266 326.939 75.0431C327.123 74.8596 327.227 74.6107 327.227 74.3512C327.227 74.0917 327.123 73.8428 326.939 73.6593C326.756 73.4758 326.506 73.3727 326.246 73.3727C325.965 73.3574 325.687 73.3128 325.415 73.2398C325.067 73.1571 324.724 73.0518 324.389 72.9246C323.707 72.6528 323.058 72.3047 322.455 71.887C321.091 70.9582 319.98 69.7059 319.22 68.2424C317.805 65.5014 317.876 61.4308 320.374 59.4167C321.412 58.6451 322.685 58.2544 323.978 58.3105C325.459 58.3716 326.901 58.8051 328.17 59.5708C329.662 60.4156 330.89 61.6565 331.718 63.1557C332.547 64.6549 332.943 66.3539 332.863 68.0643C332.841 68.8627 332.647 69.6471 332.293 70.3633C331.938 71.0795 331.433 71.7106 330.811 72.2132C329.479 73.1917 327.889 73.4689 326.246 73.3727C324.986 73.2989 324.99 75.2563 326.246 75.3297Z" fill="#726A69"/>
<path d="M98.7454 189.357V168.654L72.9386 142.977L47.1318 168.654V202.512H98.7454V189.357Z" fill="white"/>
<path d="M87.2902 176.995H75.1836V187.792H87.2902V176.995Z" fill="#95D9FF"/>
<path d="M46.1426 169.273V202.514C46.1463 202.773 46.2514 203.02 46.4356 203.203C46.6197 203.387 46.8684 203.491 47.1288 203.495H92.414C94.4917 203.495 96.5837 203.566 98.6602 203.495C98.6894 203.495 98.7181 203.495 98.7473 203.495C99.0077 203.491 99.2564 203.387 99.4406 203.203C99.6247 203.02 99.7298 202.773 99.7336 202.514V169.273C99.7336 168.01 97.7611 168.008 97.7611 169.273V202.514L98.7473 201.532H49.2468C48.5778 201.532 47.8833 201.478 47.2159 201.532C47.1872 201.535 47.1576 201.532 47.1288 201.532L48.1151 202.514V169.273C48.1151 168.01 46.1426 168.008 46.1426 169.273Z" fill="#726A69"/>
<path d="M44.6849 172.473L47.5758 169.597L54.4795 162.728L62.8273 154.422L70.0754 147.21L72.4457 144.851C72.8196 144.479 73.2445 144.123 73.5844 143.718C73.5992 143.701 73.6181 143.685 73.6345 143.668H72.2398L75.1307 146.545L82.0344 153.414L90.3822 161.719L97.6303 168.933C98.7969 170.094 99.9295 171.308 101.139 172.424C101.157 172.441 101.173 172.458 101.189 172.475C102.088 173.369 103.483 171.981 102.584 171.087L99.6932 168.211L92.7895 161.342L84.4417 153.034L77.1936 145.823C76.027 144.662 74.8944 143.448 73.6846 142.331C73.6674 142.315 73.6514 142.298 73.6345 142.281C73.4477 142.101 73.1975 142 72.9371 142C72.6768 142 72.4266 142.101 72.2398 142.281L69.3489 145.158L62.4451 152.027L54.0974 160.332L46.8493 167.543C45.6826 168.704 44.463 169.831 43.3403 171.034C43.3243 171.052 43.307 171.068 43.2902 171.084C42.3915 171.979 43.7858 173.367 44.6849 172.472V172.473Z" fill="#726A69"/>
<path d="M87.2905 176.013H75.1835C74.9231 176.017 74.6744 176.121 74.4902 176.305C74.3061 176.488 74.201 176.735 74.1973 176.994V187.792C74.201 188.051 74.3061 188.298 74.4902 188.482C74.6744 188.665 74.9231 188.769 75.1835 188.773H87.2905C87.5509 188.769 87.7996 188.665 87.9838 188.482C88.1679 188.298 88.273 188.051 88.2768 187.792V176.994C88.2768 175.732 86.3043 175.73 86.3043 176.994V187.792L87.2905 186.811H75.1835L76.1698 187.792V176.994L75.1835 177.976H87.2905C88.5591 177.976 88.5611 176.013 87.2905 176.013Z" fill="#64C7FF"/>
<path d="M47.1293 183.374H61.0731L60.0869 182.393V202.515C60.0869 203.777 62.0594 203.78 62.0594 202.515V182.393C62.0557 182.134 61.9506 181.886 61.7664 181.703C61.5822 181.52 61.3335 181.415 61.0731 181.412H47.1293C45.8603 181.412 45.8582 183.374 47.1293 183.374Z" fill="#726A69"/>
<path d="M17.5708 224.579C16.7572 224.568 15.9534 224.402 15.203 224.089C14.5168 223.774 13.9107 223.31 13.4296 222.731C12.9486 222.151 12.6051 221.471 12.4246 220.742C12.1348 219.728 11.9979 218.678 12.0186 217.624C12.0577 214.565 12.2886 211.179 14.5422 209.12C15.8161 207.956 17.5083 207.334 19.1924 206.948C22.3426 206.225 23.8877 206.065 27.6416 205.347C28.3724 205.193 29.0524 204.859 29.6186 204.374C35.1749 199.799 38.8906 196.857 44.2007 195.275C48.9453 193.861 58.6747 193.243 63.5615 194.046C68.4484 194.848 71.2234 195.548 75.5609 197.816C78.2521 199.565 79.4471 200.31 81.6057 202.968C82.7025 204.317 84.117 206.636 84.6319 208.639C85.0866 210.661 85.3683 212.718 85.4739 214.788C85.6666 217.223 85.524 220.88 83.5014 222.703C82.585 223.553 80.9799 223.993 79.2753 224.089L62.6381 224.437C55.8298 224.437 44.167 224.482 38.48 224.482L17.5708 224.579Z" fill="white"/>
<path d="M73.0644 215.819C72.0235 215.798 70.989 215.986 70.0227 216.372C69.0563 216.757 68.1777 217.332 67.4393 218.062C66.7009 218.793 66.1177 219.663 65.7244 220.622C65.3311 221.581 65.1358 222.609 65.1501 223.645C65.1501 228.366 68.4541 231.618 73.0644 231.618C77.8526 231.618 80.979 228.336 80.979 223.645C80.9942 222.609 80.7995 221.581 80.4066 220.621C80.0136 219.662 79.4304 218.791 78.6917 218.06C77.9531 217.33 77.0741 216.755 76.1073 216.37C75.1404 215.985 74.1055 215.797 73.0644 215.819Z" fill="#726A69"/>
<path d="M73.0637 221.098C72.7183 221.091 72.3751 221.153 72.0545 221.281C71.7338 221.409 71.4423 221.6 71.1973 221.842C70.9523 222.084 70.7588 222.373 70.6283 222.691C70.4978 223.01 70.4331 223.351 70.4378 223.694C70.42 224.044 70.4755 224.393 70.6008 224.72C70.726 225.046 70.9183 225.344 71.1652 225.592C71.4122 225.841 71.7086 226.036 72.0354 226.165C72.3623 226.294 72.7125 226.353 73.0637 226.34C73.416 226.357 73.768 226.3 74.0968 226.173C74.4255 226.046 74.7236 225.851 74.9714 225.602C75.2193 225.352 75.4115 225.053 75.5353 224.724C75.6591 224.396 75.7118 224.045 75.69 223.694C75.695 223.351 75.6304 223.009 75.5 222.691C75.3696 222.373 75.1761 222.084 74.931 221.841C74.6859 221.599 74.3942 221.408 74.0734 221.28C73.7526 221.153 73.4092 221.091 73.0637 221.098Z" fill="white"/>
<path d="M27.7763 215.819C26.7354 215.798 25.7009 215.986 24.7346 216.372C23.7682 216.757 22.8897 217.332 22.1512 218.062C21.4128 218.793 20.8296 219.663 20.4363 220.622C20.043 221.581 19.8477 222.609 19.8621 223.645C19.8621 228.366 23.166 231.618 27.7763 231.618C32.5645 231.618 35.6909 228.336 35.6909 223.645C35.7061 222.609 35.5115 221.581 35.1185 220.621C34.7255 219.662 34.1423 218.791 33.4036 218.06C32.665 217.33 31.786 216.755 30.8192 216.37C29.8523 215.985 28.8175 215.797 27.7763 215.819Z" fill="#726A69"/>
<path d="M27.7756 221.098C27.4302 221.091 27.087 221.153 26.7664 221.281C26.4457 221.409 26.1542 221.6 25.9092 221.842C25.6642 222.084 25.4707 222.373 25.3402 222.691C25.2098 223.01 25.145 223.351 25.1497 223.694C25.132 224.044 25.1875 224.393 25.3127 224.72C25.4379 225.046 25.6302 225.344 25.8772 225.592C26.1242 225.841 26.4205 226.036 26.7473 226.165C27.0742 226.294 27.4244 226.353 27.7756 226.34C28.1279 226.357 28.4799 226.3 28.8087 226.173C29.1374 226.046 29.4355 225.851 29.6834 225.602C29.9312 225.352 30.1234 225.053 30.2472 224.724C30.371 224.396 30.4237 224.045 30.4019 223.694C30.4069 223.351 30.3423 223.009 30.2119 222.691C30.0815 222.373 29.888 222.084 29.6429 221.841C29.3978 221.599 29.1061 221.408 28.7853 221.28C28.4645 221.153 28.1211 221.091 27.7756 221.098Z" fill="white"/>
<path d="M12.5104 212.75C12.8129 211.367 13.52 210.104 14.5424 209.12C15.277 208.469 16.1235 207.956 17.0413 207.604C17.7855 207.717 18.6703 207.861 19.4297 208.024C19.6307 208.051 19.8274 208.103 20.0153 208.179C20.1387 208.221 20.2405 208.31 20.2992 208.426C20.3579 208.542 20.3688 208.676 20.3296 208.8C19.9763 209.91 19.4807 210.97 18.8552 211.954C18.5849 212.413 18.1454 212.751 17.6298 212.894C15.7966 213.38 13.8081 213.31 12.376 213.344C12.4157 213.143 12.4605 212.945 12.5104 212.75Z" fill="white"/>
<path d="M38.4804 225.462C44.8199 225.462 51.1598 225.434 57.4993 225.421C59.2124 225.418 60.9254 225.416 62.6385 225.415C63.9079 225.415 63.9099 223.453 62.6385 223.453C56.1046 223.453 49.5707 223.479 43.0369 223.494C41.5178 223.497 39.9985 223.499 38.4792 223.499C37.2098 223.499 37.2077 225.462 38.4792 225.462H38.4804Z" fill="#726A69"/>
<path d="M44.0324 206.808C40.9725 206.876 38.0389 206.917 36.1769 206.894C36.1042 206.891 36.0338 206.868 35.9738 206.827C35.9137 206.786 35.8664 206.729 35.8373 206.663C35.8081 206.597 35.7982 206.524 35.8088 206.452C35.8194 206.38 35.85 206.313 35.8971 206.258C37.0685 204.765 38.4615 203.459 40.0282 202.384C42.5895 200.682 45.4267 199.432 48.415 198.69C50.2437 198.174 52.1367 197.919 54.0374 197.933C54.0926 197.934 54.1469 197.948 54.1966 197.972C54.2462 197.996 54.2901 198.03 54.3252 198.072C54.3603 198.115 54.3858 198.164 54.4 198.217C54.4141 198.27 54.4166 198.326 54.4073 198.38C54.1496 199.978 53.5164 203.417 53.1428 206.218C53.1321 206.307 53.0901 206.389 53.0244 206.45C52.9586 206.511 52.8734 206.546 52.7836 206.551C50.4047 206.641 47.153 206.739 44.0324 206.808Z" fill="#95D9FF"/>
<path d="M57.9379 206.463C58.0891 205.166 58.918 199.304 59.0536 198.157C59.0589 198.097 59.0862 198.041 59.1303 198C59.1744 197.959 59.2323 197.935 59.2928 197.934C60.4582 197.955 61.6207 198.03 62.7804 198.158C65.0026 198.449 67.1896 198.964 69.3077 199.693C71.994 200.687 75.1019 203.132 76.4929 206.16C76.55 206.285 76.5196 206.462 76.3885 206.462H57.9375" fill="#95D9FF"/>
<path d="M84.1978 223.397C86.9922 220.802 86.6297 216.35 86.3026 212.92C86.0856 210.643 85.7659 208.389 84.8117 206.291C83.9458 204.449 82.8062 202.748 81.4314 201.244C78.9185 198.425 75.555 196.492 72.0587 195.136C70.3269 194.479 68.5414 193.972 66.7219 193.62C64.9451 193.238 63.1455 192.969 61.3341 192.815C57.7321 192.594 54.1172 192.701 50.5347 193.135C47.0623 193.524 43.7013 194.172 40.5046 195.622C36.7963 197.304 33.5799 199.877 30.4478 202.429C29.6148 203.108 28.7765 204.016 27.7142 204.321C26.6919 204.57 25.6571 204.765 24.6141 204.906C22.8516 205.215 21.0895 205.519 19.3431 205.908C17.2687 206.372 15.1515 207.092 13.6265 208.636C12.2585 210.021 11.5821 211.907 11.3006 213.795C10.7455 217.516 10.5803 222.512 14.2779 224.704C15.2847 225.263 16.4179 225.558 17.5711 225.562C18.8409 225.599 18.8401 223.636 17.5711 223.6C15.8678 223.55 14.3218 222.755 13.6163 221.166C12.8425 219.422 12.9518 217.387 13.082 215.531C13.2008 213.831 13.509 212.05 14.5109 210.627C15.5694 209.123 17.4039 208.401 19.1294 207.973C20.7797 207.564 22.458 207.266 24.1329 206.975C25.0723 206.812 26.0113 206.648 26.9491 206.475C28.0098 206.347 29.0253 205.973 29.9132 205.382C31.6621 204.096 33.2722 202.621 35.0088 201.316C36.4593 200.204 37.985 199.193 39.5751 198.29C42.3792 196.776 45.436 195.781 48.5972 195.353C51.9944 194.847 55.4278 194.622 58.8624 194.679C62.1499 194.729 65.4177 195.196 68.5863 196.069C72.0064 196.941 75.2082 198.507 77.9902 200.67C80.7024 202.846 83.048 206.033 83.8136 209.447C84.2382 211.471 84.48 213.528 84.536 215.594C84.651 217.178 84.4515 218.769 83.9488 220.276C83.7089 220.936 83.3166 221.53 82.8035 222.012C81.8735 222.876 83.2707 224.261 84.1982 223.4L84.1978 223.397Z" fill="#726A69"/>
<path d="M44.0316 205.827C42.1142 205.868 40.1963 205.905 38.2785 205.917C37.8922 205.918 37.5058 205.919 37.1193 205.919H36.6298C36.5423 205.91 36.454 205.91 36.3664 205.919C35.9829 205.896 36.0934 206.2 36.698 206.832L36.8016 206.709C37.0604 206.451 37.3006 206.175 37.5203 205.884C37.7948 205.581 38.0767 205.284 38.3693 204.998C40.883 202.545 44.2457 200.921 47.5928 199.935C48.6571 199.611 49.7399 199.352 50.8355 199.158C51.3426 199.073 51.8517 199.013 52.3642 198.973C52.6126 198.954 52.8618 198.939 53.1117 198.93C53.2349 198.925 53.3582 198.922 53.4815 198.92L53.6668 198.917C53.9156 198.944 53.9138 198.912 53.6615 198.82L53.4079 198.387C53.4449 198.184 53.4503 198.16 53.424 198.315L53.3981 198.47C53.3767 198.601 53.3545 198.732 53.3323 198.862C53.2893 199.117 53.2458 199.373 53.2017 199.628C53.0847 200.309 52.9684 200.991 52.8528 201.672C52.73 202.402 52.6111 203.133 52.4961 203.864C52.4388 204.232 52.3832 204.6 52.3292 204.968C52.305 205.135 52.2812 205.302 52.2577 205.469C52.2421 205.578 52.2273 205.688 52.2121 205.796C52.1908 206.09 52.1771 206.144 52.171 205.957L52.5248 205.605C52.7274 205.474 52.4468 205.583 52.3276 205.587L51.8521 205.605C51.5185 205.616 51.1846 205.628 50.8507 205.639C50.1291 205.663 49.4072 205.686 48.6851 205.707C47.1342 205.754 45.5829 205.794 44.0312 205.83C42.7639 205.858 42.7594 207.821 44.0312 207.792C45.9215 207.75 47.8118 207.699 49.7021 207.64C50.5256 207.614 51.3492 207.587 52.1727 207.559C52.6161 207.596 53.0618 207.52 53.4675 207.338C53.6658 207.208 53.8302 207.034 53.9471 206.828C54.0639 206.623 54.1299 206.393 54.1394 206.157C54.3662 204.514 54.6399 202.877 54.9202 201.242C55.0328 200.584 55.147 199.926 55.2584 199.268C55.3948 198.458 55.5321 197.583 54.6683 197.115C54.2331 196.947 53.7619 196.895 53.3003 196.962C52.8313 196.975 52.3633 197.005 51.8965 197.053C50.952 197.147 50.0143 197.299 49.089 197.509C47.2662 197.929 45.485 198.511 43.7666 199.247C40.6563 200.525 37.8837 202.499 35.6641 205.016C35.3059 205.344 35.0293 205.75 34.8562 206.202C34.8026 206.439 34.8126 206.686 34.8854 206.918C34.9582 207.15 35.0912 207.358 35.2709 207.523C35.8815 208.083 37.0288 207.884 37.7981 207.882C39.8762 207.875 41.9543 207.837 44.0316 207.791C45.2989 207.762 45.3035 205.799 44.0316 205.827Z" fill="#64C7FF"/>
<path d="M58.9239 206.463C59.0928 205.032 59.2675 203.862 59.4692 202.393C59.5813 201.575 59.6929 200.758 59.8041 199.943C59.8559 199.561 59.9072 199.18 59.9578 198.8C59.9726 198.687 59.9878 198.573 60.0022 198.459C60.0092 198.404 60.0199 198.348 60.0232 198.293C60.0285 198.211 60.1021 198.149 60.0466 198.303L59.7926 198.736L59.8777 198.656L59.4425 198.909C59.6517 198.895 59.8618 198.904 60.0688 198.937C60.3277 198.948 60.5863 198.96 60.8446 198.976C61.3616 199.006 61.8779 199.047 62.3935 199.098C63.0962 199.169 63.7906 199.281 64.4835 199.418C66.0138 199.699 67.5195 200.1 68.9865 200.616C70.3453 201.137 71.5993 201.895 72.6886 202.857C73.2985 203.379 73.8592 203.956 74.364 204.58C74.6095 204.889 74.8363 205.212 75.0433 205.548C75.1548 205.727 75.2605 205.908 75.3605 206.094C75.4107 206.186 75.4587 206.279 75.5056 206.372C75.5913 206.565 75.5977 206.559 75.5245 206.357L75.6593 205.862L75.6182 205.936L76.2079 205.486C76.3764 205.424 76.1968 205.481 76.0953 205.481H57.9377C56.6683 205.481 56.6662 207.444 57.9377 207.444H74.6784C75.335 207.508 75.997 207.496 76.6509 207.408C79.0873 206.792 75.566 202.893 74.7889 202.123C73.3717 200.709 71.6829 199.594 69.8232 198.844C68.0238 198.168 66.1586 197.68 64.2579 197.388C63.192 197.211 62.1174 197.089 61.0386 197.025C60.4161 196.949 59.7878 196.93 59.1618 196.97C58.8616 197.011 58.586 197.158 58.3846 197.383C58.1831 197.608 58.0689 197.898 58.0626 198.199C57.8912 199.529 57.7256 200.717 57.5255 202.177C57.3295 203.604 57.1207 205.031 56.9502 206.463C56.9516 206.723 57.056 206.971 57.2406 207.155C57.4253 207.339 57.6753 207.443 57.9364 207.444C58.1961 207.438 58.4435 207.333 58.6271 207.15C58.8108 206.967 58.9166 206.721 58.9227 206.463H58.9239Z" fill="#64C7FF"/>
<path d="M49.4443 210.979H52.2168C52.4784 210.979 52.7293 210.875 52.9142 210.691C53.0992 210.507 53.2031 210.258 53.2031 209.997C53.2031 209.737 53.0992 209.488 52.9142 209.304C52.7293 209.119 52.4784 209.016 52.2168 209.016H49.4443C49.1827 209.016 48.9318 209.119 48.7469 209.304C48.5619 209.488 48.458 209.737 48.458 209.997C48.458 210.258 48.5619 210.507 48.7469 210.691C48.9318 210.875 49.1827 210.979 49.4443 210.979Z" fill="#726A69"/>
<path d="M16.9161 208.573C17.4721 208.655 18.0318 208.713 18.5874 208.798C18.8307 208.835 19.0735 208.88 19.3135 208.931C19.3678 208.942 19.4216 208.954 19.475 208.969C19.5399 208.99 19.5461 208.989 19.4943 208.964C19.4315 208.908 19.4237 208.902 19.4721 208.945C19.5206 208.988 19.5153 208.98 19.4541 208.904C19.4319 208.5 19.3932 208.421 19.3382 208.666L19.2971 208.792C19.2563 208.913 19.2135 209.035 19.1689 209.156C19.0867 209.382 19.0065 209.575 18.9075 209.79C18.6781 210.279 18.4243 210.757 18.1469 211.221C18.0111 211.523 17.774 211.769 17.4762 211.916C16.9504 212.087 16.4053 212.192 15.8534 212.23C14.7998 212.343 13.7396 212.343 12.681 212.357C11.4129 212.374 11.4092 214.337 12.681 214.319C14.0587 214.334 15.4355 214.25 16.8011 214.068C17.4835 214.006 18.1446 213.798 18.739 213.459C19.3001 213.039 19.7511 212.49 20.054 211.86C20.3871 211.271 20.6813 210.66 20.9347 210.033C21.2034 209.369 21.5581 208.601 21.1578 207.915C20.8015 207.305 20.1465 207.092 19.4927 206.97C18.8126 206.844 18.0934 206.779 17.4409 206.681C17.189 206.621 16.9232 206.658 16.6977 206.785C16.4722 206.912 16.304 207.12 16.2274 207.367C16.1598 207.618 16.1943 207.885 16.3232 208.111C16.4522 208.337 16.6653 208.503 16.9165 208.574L16.9161 208.573Z" fill="#726A69"/>
</svg>
