<svg width="454" height="266" viewBox="0 0 454 266" fill="none" xmlns="http://www.w3.org/2000/svg">
<mask id="mask0_1254_32577" style="mask-type:alpha" maskUnits="userSpaceOnUse" x="15" y="183" width="83" height="83">
<rect x="15" y="183" width="83" height="83" fill="#D9D9D9"/>
</mask>
<g mask="url(#mask0_1254_32577)">
<path d="M25.0634 243.389H92.8273V267.981H20.3956C20.3956 260.615 20.3956 250.755 20.3936 243.389H25.0634Z" fill="white"/>
<path d="M15.999 217.965C16.0032 218.352 16.0032 229.884 16.0032 234.748H88.4357C88.4357 234.107 88.4357 233.751 88.4357 233.751C88.4357 228.654 88.4357 223.012 88.4357 217.964L15.999 217.965Z" fill="white"/>
<path d="M25.6966 203.784H17.7599V198.745H16.2778V193.205H88.7103V198.745H90.1929C90.1929 198.745 90.1929 201.162 90.1929 203.784H25.6966Z" fill="white"/>
<path d="M25.0635 243.389V234.748H97.0011V243.389H25.0635Z" fill="#119EED"/>
<path d="M26.0622 243.388V234.747L25.0634 235.755H93.854C94.838 235.755 95.8314 235.795 96.8149 235.755C96.8765 235.753 96.9398 235.755 97.001 235.755L96.0021 234.747V243.388L97.001 242.381H32.2309C29.8793 242.381 27.5127 242.302 25.162 242.381C25.1287 242.381 25.0954 242.381 25.0621 242.381C23.7764 242.381 23.7744 244.396 25.0621 244.396H97.001C97.2647 244.392 97.5166 244.285 97.7031 244.097C97.8897 243.909 97.9961 243.654 97.9999 243.388V234.747C97.9961 234.481 97.8897 234.227 97.7031 234.039C97.5166 233.851 97.2647 233.744 97.001 233.74H34.2661C31.2644 233.74 28.2582 233.69 25.2569 233.74C25.1924 233.74 25.1279 233.74 25.0634 233.74C24.7996 233.744 24.5477 233.851 24.3612 234.039C24.1747 234.227 24.0682 234.481 24.0645 234.747V243.388C24.0645 244.685 26.0622 244.687 26.0622 243.388Z" fill="#097BBB"/>
<path d="M87.436 218.629V233.751C87.436 235.047 89.4338 235.05 89.4338 233.751V218.629C89.4338 217.333 87.436 217.331 87.436 218.629Z" fill="#726A69"/>
<path d="M21.9877 224.622H82.5599C83.8452 224.622 83.8477 222.607 82.5599 222.607H21.9877C20.7024 222.607 20.7003 224.622 21.9877 224.622Z" fill="#726A69"/>
<path d="M21.9877 230.106H82.5599C83.8452 230.106 83.8477 228.09 82.5599 228.09H21.9877C20.7024 228.09 20.7003 230.106 21.9877 230.106Z" fill="#726A69"/>
<path d="M25.0635 233.74H16.0031L17.002 234.748C17.002 229.72 17.002 224.693 17.002 219.665C17.002 219.098 17.0049 218.531 17.002 217.965L16.0031 218.972H25.0635C26.3487 218.972 26.3508 216.957 25.0635 216.957H15.9989C15.7351 216.961 15.4831 217.068 15.2965 217.256C15.1099 217.444 15.0036 217.699 15 217.965C15.0383 222.22 15.0042 226.478 15.0042 230.734V234.748C15.0078 235.014 15.1142 235.268 15.3008 235.456C15.4873 235.644 15.7393 235.752 16.0031 235.755H25.0635C26.3487 235.755 26.3508 233.74 25.0635 233.74Z" fill="#726A69"/>
<path d="M91.8283 244.219V267.981L92.8272 266.973H23.3448C22.4091 266.973 21.4518 266.914 20.5179 266.973C20.4763 266.976 20.4346 266.973 20.3955 266.973L21.3944 267.981C21.3944 261.506 21.3944 255.031 21.3944 248.556V243.389L20.3955 244.396H25.0654C26.3506 244.396 26.3527 242.381 25.0654 242.381H20.3934C20.1297 242.385 19.8778 242.492 19.6913 242.68C19.5047 242.868 19.3983 243.122 19.3945 243.389C19.3962 249.863 19.3969 256.338 19.3966 262.814V267.981C19.4004 268.247 19.5068 268.501 19.6933 268.689C19.8799 268.877 20.1318 268.985 20.3955 268.989H89.8779C90.819 268.989 91.7638 269.014 92.7048 268.989C92.7464 268.989 92.7881 268.989 92.8272 268.989C93.0909 268.985 93.3428 268.877 93.5293 268.689C93.7159 268.501 93.8223 268.247 93.8261 267.981V244.219C93.8261 242.922 91.8283 242.92 91.8283 244.219Z" fill="#726A69"/>
<path d="M25.8312 256.692H87.2817C88.5674 256.692 88.5695 254.677 87.2817 254.677H25.8312C24.5456 254.677 24.5435 256.692 25.8312 256.692Z" fill="#726A69"/>
<path d="M25.8312 250.71H87.2817C88.5674 250.71 88.5695 248.695 87.2817 248.695H25.8312C24.5456 248.695 24.5435 250.71 25.8312 250.71Z" fill="#726A69"/>
<path d="M25.8312 262.619H84.2617C85.5474 262.619 85.5495 260.604 84.2617 260.604H25.8312C24.5456 260.604 24.5435 262.619 25.8312 262.619Z" fill="#726A69"/>
<path d="M19.9292 184.008H91.1518V193.205H19.9292V184.008Z" fill="#119EED"/>
<path d="M91.191 203.12V198.745C91.1872 198.479 91.0808 198.225 90.8943 198.037C90.7078 197.848 90.4559 197.741 90.1921 197.737H84.6478C84.3829 197.737 84.1288 197.843 83.9415 198.032C83.7542 198.221 83.6489 198.478 83.6489 198.745C83.6489 199.012 83.7542 199.269 83.9415 199.458C84.1288 199.646 84.3829 199.753 84.6478 199.753H90.1921L89.1932 198.745V203.12C89.1932 203.387 89.2985 203.643 89.4858 203.832C89.6731 204.021 89.9272 204.127 90.1921 204.127C90.457 204.127 90.7111 204.021 90.8984 203.832C91.0858 203.643 91.191 203.387 91.191 203.12Z" fill="#726A69"/>
<path d="M87.7114 193.205V198.745C87.7114 199.012 87.8167 199.269 88.004 199.458C88.1913 199.647 88.4454 199.753 88.7103 199.753C88.9753 199.753 89.2293 199.647 89.4167 199.458C89.604 199.269 89.7092 199.012 89.7092 198.745V193.205C89.7092 192.938 89.604 192.681 89.4167 192.492C89.2293 192.303 88.9753 192.197 88.7103 192.197C88.4454 192.197 88.1913 192.303 88.004 192.492C87.8167 192.681 87.7114 192.938 87.7114 193.205Z" fill="#726A69"/>
<path d="M16.7607 198.745V203.783C16.7645 204.049 16.871 204.304 17.0575 204.492C17.244 204.68 17.4959 204.787 17.7596 204.791H25.6963C26.9815 204.791 26.984 202.776 25.6963 202.776H17.7596L18.7585 203.783V198.745C18.7585 197.448 16.7607 197.446 16.7607 198.745Z" fill="#726A69"/>
<path d="M23.5809 192.197H16.2777C16.014 192.201 15.7621 192.308 15.5755 192.497C15.389 192.685 15.2826 192.939 15.2788 193.205V198.745C15.2826 199.011 15.389 199.265 15.5755 199.453C15.7621 199.642 16.014 199.749 16.2777 199.753H78.0845C79.3701 199.753 79.3722 197.737 78.0845 197.737H16.2777L17.2766 198.745V193.205L16.2777 194.213H23.5809C24.8661 194.213 24.8686 192.197 23.5809 192.197Z" fill="#726A69"/>
<path d="M19.9291 185.015H89.3416C89.9118 185.015 90.507 185.066 91.0772 185.015C91.1017 185.015 91.1271 185.015 91.1517 185.015L90.1528 184.008V193.205L91.1517 192.197H21.7258C21.1602 192.197 20.5684 192.147 20.0044 192.197C19.9798 192.197 19.954 192.197 19.9291 192.197L20.928 193.205V184.008C20.928 182.711 18.9302 182.709 18.9302 184.008V193.205C18.9339 193.471 19.0404 193.725 19.2269 193.913C19.4134 194.101 19.6653 194.209 19.9291 194.213H91.1517C91.4154 194.209 91.6673 194.101 91.8538 193.913C92.0403 193.725 92.1468 193.471 92.1506 193.205V184.008C92.1468 183.742 92.0403 183.488 91.8538 183.299C91.6673 183.111 91.4154 183.004 91.1517 183H19.9291C18.6438 183 18.6417 185.015 19.9291 185.015Z" fill="#097BBB"/>
<path d="M25.6963 203.783H96.9168V217.965H25.6963V203.783Z" fill="#95D9FF"/>
<path d="M25.6963 204.791H95.1063C95.6769 204.791 96.2717 204.841 96.8419 204.791C96.8664 204.788 96.8922 204.791 96.9168 204.791L95.9179 203.783V217.964L96.9168 216.957H27.491C26.9253 216.957 26.3335 216.906 25.7691 216.957C25.7446 216.959 25.7188 216.957 25.6942 216.957L26.6931 217.964V203.783C26.6931 202.486 24.6953 202.484 24.6953 203.783V217.964C24.699 218.231 24.8054 218.485 24.9919 218.673C25.1785 218.861 25.4304 218.968 25.6942 218.972H96.9168C97.1805 218.968 97.4324 218.861 97.619 218.673C97.8055 218.485 97.9119 218.231 97.9157 217.964V203.783C97.912 203.517 97.8056 203.263 97.6191 203.075C97.4325 202.886 97.1806 202.779 96.9168 202.775H25.6963C24.4085 202.775 24.406 204.791 25.6963 204.791Z" fill="#119EED"/>
<path d="M37.291 203.783V217.964C37.291 219.261 39.2888 219.264 39.2888 217.964V217.422C39.2888 216.125 37.291 216.123 37.291 217.422V217.964C37.291 219.261 39.2888 219.264 39.2888 217.964V203.783C39.2888 202.486 37.291 202.484 37.291 203.783Z" fill="#119EED"/>
<path d="M31.8931 203.904V217.844C31.8931 219.141 33.8909 219.143 33.8909 217.844V203.904C33.8909 202.607 31.8931 202.605 31.8931 203.904Z" fill="#119EED"/>
<path d="M91.3991 207.841V213.906H68.1269V213.812C68.1269 213.812 68.1269 208.845 68.1211 207.841H91.3991Z" fill="white"/>
<path d="M90.4001 207.842V213.907L91.399 212.899H68.1268L69.1257 213.907C69.1257 211.885 69.1307 209.863 69.1199 207.842L68.121 208.849H91.399C92.6843 208.849 92.6863 206.834 91.399 206.834H68.121C67.8571 206.838 67.6051 206.945 67.4186 207.133C67.232 207.321 67.1256 207.576 67.1221 207.842C67.1329 209.863 67.1279 211.885 67.1279 213.907C67.1316 214.173 67.238 214.427 67.4245 214.615C67.6111 214.803 67.863 214.911 68.1268 214.914H91.399C91.6628 214.911 91.9147 214.803 92.1012 214.615C92.2877 214.427 92.3941 214.173 92.3979 213.907V207.842C92.3979 206.545 90.4001 206.543 90.4001 207.842Z" fill="#119EED"/>
</g>
<mask id="mask1_1254_32577" style="mask-type:alpha" maskUnits="userSpaceOnUse" x="326" y="151" width="113" height="115">
<rect x="326" y="151" width="113" height="115" fill="#D9D9D9"/>
</mask>
<g mask="url(#mask1_1254_32577)">
<path d="M409.385 204.819C415.094 206.738 421.97 205.466 425.698 200.466C428.969 196.08 428.168 191.085 427.414 186.043C427.026 183.45 426.455 180.926 426.249 178.177C425.947 174.137 425.376 169.09 423.849 165.59C422.706 162.974 420.277 158.905 416.355 156.911L413.869 155.357L413.331 155.017C409.981 153.447 406.343 152.583 402.645 152.478C395.221 152.153 388.933 155.281 385.873 157.956C382.441 161.306 380.935 164.736 379.104 171.249C378.063 174.985 376.992 178.716 376.193 182.514C375.394 186.304 374.892 190.363 375.983 194.152C377.052 197.866 379.606 200.183 383.164 201.457L409.385 204.819Z" fill="#645D5C"/>
<path d="M422.706 186.652C422.522 186.129 422.03 185.199 420.501 184.828C419.723 184.629 418.898 184.736 418.196 185.126C417.865 185.175 417.531 185.2 417.196 185.201C416.655 185.215 415.86 185.268 415.054 185.222L414.841 184.733C412.222 178.797 406.286 171.626 402.414 168.355C400.518 170.143 398.525 171.824 396.444 173.391C394.411 174.849 392.242 176.106 389.966 177.144C388.274 177.916 386.528 178.565 384.742 179.084C382.945 179.568 381.109 179.895 379.254 180.06C379.41 183.31 379.407 186.559 379.472 189.545C379.54 192.669 380.002 195.643 381.131 198.196C381.784 199.712 382.724 201.087 383.898 202.247C385.952 204.344 388.538 205.842 391.379 206.579V209.01C391.402 210.43 389.881 211.227 388.682 211.639C388.715 213.246 388.906 216.15 389.187 219.645C392.212 220.612 395.391 221 398.559 220.79C401.762 220.771 404.932 220.141 407.899 218.935C409.129 216.045 410.284 213.276 411.32 210.743C410.547 210.285 409.92 209.617 409.512 208.817C409.222 208.086 409.025 207.323 408.923 206.544C408.779 205.549 408.696 204.547 408.676 203.542V202.949L410.195 201.79C411.373 200.759 412.456 199.625 413.432 198.401C413.432 198.401 414.384 197.18 414.804 196.471C414.804 196.471 414.914 196.284 415.087 195.995C416.196 196.179 417.334 196.047 418.371 195.615C419.82 194.855 421.01 193.68 421.789 192.241C422.688 190.771 423.256 188.218 422.706 186.652Z" fill="white"/>
<path d="M368.654 223.618C369.832 221.705 371.316 219.998 373.046 218.566C375.562 216.516 378.66 215.265 381.685 214.135C383.513 213.41 386.973 212.394 388.685 211.638C388.808 217.662 391.164 241.915 392.097 247.257H394.717C400.31 236.705 406.917 221.517 411.363 210.65C419.941 214.6 430.447 217.555 435.1 226.613C437.911 232.085 438.125 239.34 437.997 245.571C437.85 252.701 437.273 259.815 436.27 266.876H348.777C347.388 259.893 345.6 252.996 343.422 246.218L359.344 241.296C359.476 241.212 359.627 241.164 359.783 241.155C359.939 241.146 360.095 241.177 360.236 241.245C360.377 241.313 360.498 241.416 360.588 241.544C360.678 241.672 360.734 241.82 360.751 241.976L362.657 247.215C363.45 241.478 363.894 235.581 365.701 230.042C366.42 227.788 367.411 225.631 368.654 223.618Z" fill="#95D9FF"/>
<path d="M390.357 209.008C390.356 209.144 390.327 209.278 390.272 209.403C390.217 209.527 390.137 209.639 390.037 209.731C389.752 210 389.426 210.22 389.069 210.383C388.348 210.718 387.608 211.01 386.852 211.258C385.046 211.906 383.198 212.445 381.412 213.148C381.155 213.227 380.937 213.401 380.804 213.635C380.672 213.869 380.633 214.145 380.697 214.407C380.771 214.668 380.945 214.889 381.18 215.022C381.416 215.156 381.695 215.192 381.956 215.122C383.946 214.339 386.007 213.762 388.008 213.006C388.229 212.923 388.448 212.837 388.666 212.748C388.936 212.637 389.069 212.582 389.233 212.524C389.731 212.351 390.208 212.123 390.653 211.841C391.16 211.555 391.587 211.146 391.892 210.651C392.198 210.155 392.373 209.591 392.402 209.009C392.423 207.692 390.376 207.691 390.355 209.009L390.357 209.008Z" fill="#119EED"/>
<path d="M391.777 245.134C391.029 239.597 389.858 227.952 389.19 219.648L389.292 219.68C392.286 220.624 395.429 221 398.561 220.789C401.764 220.77 404.935 220.139 407.902 218.931C403.859 228.414 398.989 239.191 394.715 247.258H392.094C392.001 246.724 391.894 246.005 391.777 245.134Z" fill="white"/>
<path d="M389.028 220.668C392.215 221.669 395.439 221.902 398.758 221.809C401.98 221.75 405.165 221.112 408.161 219.924C408.418 219.845 408.636 219.671 408.768 219.437C408.901 219.203 408.94 218.927 408.876 218.666C408.802 218.405 408.629 218.184 408.393 218.05C408.158 217.916 407.879 217.881 407.617 217.951C404.797 219.083 401.796 219.697 398.758 219.762C397.225 219.836 395.69 219.806 394.162 219.672C392.604 219.498 391.066 219.17 389.572 218.692C388.313 218.296 387.774 220.269 389.028 220.666V220.668Z" fill="#726A69"/>
<path d="M410.257 210.661C406.307 220.299 402.154 229.864 397.616 239.238C396.395 241.759 395.142 244.264 393.831 246.739L394.715 246.232H392.094L393.081 246.983C392.961 246.295 392.865 245.603 392.77 244.911C392.75 244.764 392.796 245.102 392.776 244.954C392.769 244.901 392.761 244.849 392.755 244.796C392.741 244.687 392.726 244.579 392.712 244.471C392.68 244.228 392.649 243.985 392.619 243.742C392.552 243.208 392.487 242.674 392.423 242.139C392.12 239.592 391.847 237.041 391.584 234.489C391.014 228.938 390.49 223.381 390.069 217.815C389.914 215.759 389.75 213.698 389.706 211.637C389.678 210.321 387.631 210.315 387.659 211.637C387.753 216.038 388.214 220.447 388.608 224.829C389.106 230.385 389.652 235.938 390.299 241.478C390.535 243.497 390.759 245.525 391.109 247.528C391.169 247.743 391.298 247.933 391.476 248.068C391.653 248.204 391.87 248.278 392.094 248.28H394.715C394.894 248.28 395.07 248.234 395.225 248.145C395.38 248.056 395.509 247.927 395.599 247.773C400.548 238.425 404.841 228.72 408.979 218.991C410.079 216.404 411.163 213.809 412.231 211.206C412.301 210.944 412.266 210.665 412.132 210.43C411.998 210.194 411.777 210.02 411.516 209.947C411.254 209.881 410.978 209.919 410.743 210.052C410.509 210.186 410.335 210.404 410.257 210.662V210.661Z" fill="#119EED"/>
<path d="M381.701 216.56C381.3 217.079 380.908 217.606 380.532 218.144C380.134 218.713 379.566 219.347 379.539 220.073C379.516 220.672 379.873 221.105 380.2 221.562C380.533 222.026 380.864 222.491 381.194 222.957C381.348 223.173 381.502 223.389 381.656 223.604C381.727 223.702 381.951 224.138 382.062 224.163L382.098 224.213C382.07 224.129 382.067 224.039 382.09 223.954C382.112 223.868 382.16 223.792 382.226 223.733C382.226 223.733 382.205 223.759 382.202 223.761C382.153 223.787 382.102 223.875 382.066 223.917L380.872 225.286L379.637 226.704C379.376 226.945 379.181 227.248 379.07 227.586C378.96 227.923 378.938 228.283 379.006 228.632C379.395 230.528 379.892 232.408 380.334 234.292C380.941 236.884 381.549 239.476 382.155 242.068C382.454 243.35 384.43 242.807 384.129 241.524C383.144 237.316 382.158 233.11 381.171 228.905L381.053 228.399C380.908 227.78 381.102 228.383 380.829 228.445C380.899 228.429 381.042 228.2 381.085 228.151L382.286 226.773C383.064 225.878 384.634 224.62 383.936 223.301C383.656 222.845 383.347 222.407 383.01 221.991C382.663 221.504 382.316 221.017 381.969 220.528C381.898 220.43 381.828 220.331 381.756 220.233L381.637 220.068C381.521 219.862 381.487 219.945 381.537 220.316C381.551 220.323 382.018 219.586 382.075 219.501C382.519 218.85 382.987 218.217 383.468 217.593C383.603 217.358 383.641 217.079 383.572 216.817C383.503 216.555 383.334 216.331 383.101 216.193C382.865 216.063 382.588 216.028 382.327 216.096C382.066 216.165 381.842 216.331 381.701 216.56Z" fill="#119EED"/>
<path d="M415.259 216.817C415.844 217.773 416.342 218.779 416.745 219.825C416.94 220.343 417.114 220.869 417.257 221.403C417.296 221.516 417.326 221.631 417.346 221.749C417.346 221.746 416.669 222.067 417.37 221.621C417.238 221.689 417.1 221.746 416.958 221.792C416.438 221.986 415.918 222.178 415.401 222.378C414.862 222.587 414.166 222.762 413.756 223.189C413.569 223.387 413.435 223.629 413.366 223.892C413.296 224.155 413.294 224.431 413.358 224.696C413.507 225.268 413.985 225.682 414.358 226.118C414.709 226.529 415.055 226.945 415.404 227.358C415.586 227.572 415.768 227.786 415.952 227.998C416.03 228.088 416.109 228.179 416.189 228.269L416.306 228.4C416.489 228.659 416.525 228.545 416.413 228.057C416.277 228.042 415.616 229.201 415.508 229.356C415.156 229.866 414.806 230.377 414.458 230.889C413.155 232.808 411.876 234.745 410.596 236.68C409.096 238.947 407.59 241.21 406.046 243.447C405.912 243.682 405.875 243.961 405.943 244.223C406.012 244.484 406.181 244.709 406.413 244.848C406.649 244.979 406.926 245.015 407.187 244.946C407.448 244.878 407.673 244.711 407.814 244.481C410.62 240.413 413.29 236.254 416.062 232.163C416.752 231.145 417.571 230.156 418.181 229.09C418.878 227.871 417.761 226.979 417.036 226.127C416.665 225.691 416.298 225.25 415.927 224.813C415.834 224.703 415.463 224.142 415.325 224.115L415.308 224.099C415.189 223.978 415.184 224.121 415.292 224.528C415.097 224.677 415.074 224.715 415.223 224.641C415.312 224.604 415.401 224.568 415.49 224.532C416.037 224.312 416.589 224.106 417.14 223.901C417.716 223.688 418.377 223.53 418.822 223.08C419.803 222.086 419.217 220.662 418.814 219.544C418.342 218.234 417.742 216.974 417.023 215.782C416.344 214.656 414.573 215.683 415.256 216.816L415.259 216.817Z" fill="#119EED"/>
<path d="M398.726 187.102C398.543 186.071 399.025 183.812 400.928 183.849C403.412 184.17 403.205 186.948 402.207 188.143C401.391 189.122 399.323 189.316 398.726 187.102Z" fill="#726A69"/>
<path d="M383.909 185.749C383.749 184.717 384.208 182.448 385.953 182.47C388.227 182.772 388.015 185.559 387.092 186.765C386.337 187.752 384.438 187.963 383.909 185.749Z" fill="#726A69"/>
<path d="M391.327 188.808C390.959 189.32 390.602 189.841 390.28 190.383C390.137 190.598 390.036 190.838 389.981 191.09C389.93 191.33 389.939 191.58 390.008 191.815C390.09 192.053 390.228 192.267 390.41 192.44C390.641 192.668 390.921 192.838 391.23 192.937C391.348 192.977 391.473 192.988 391.594 193.017C391.861 193.084 392.143 193.047 392.383 192.913C392.557 192.812 392.697 192.661 392.786 192.48C392.875 192.3 392.908 192.097 392.882 191.897C392.856 191.697 392.771 191.509 392.639 191.358C392.507 191.206 392.333 191.096 392.138 191.043C391.995 191.019 391.854 190.985 391.715 190.941L391.96 191.044C391.884 191.01 391.813 190.967 391.747 190.916L391.954 191.076C391.883 191.018 391.818 190.953 391.76 190.882L391.92 191.089C391.904 191.07 391.89 191.048 391.88 191.025L391.983 191.269C391.969 191.235 391.96 191.2 391.955 191.164L391.992 191.436C391.99 191.411 391.99 191.386 391.992 191.361L391.955 191.633C391.965 191.567 391.983 191.502 392.008 191.439L391.904 191.684C392.073 191.341 392.271 191.014 392.498 190.706C392.692 190.414 392.891 190.125 393.095 189.84C393.163 189.722 393.207 189.592 393.225 189.457C393.243 189.321 393.234 189.184 393.198 189.052C393.125 188.796 392.957 188.577 392.729 188.44C392.611 188.372 392.48 188.327 392.345 188.31C392.209 188.292 392.072 188.301 391.94 188.337C391.689 188.419 391.473 188.585 391.328 188.806L391.327 188.808Z" fill="#726A69"/>
<path d="M413.924 195.953C413.522 196.589 413.087 197.203 412.62 197.794C412.903 197.418 412.565 197.854 412.497 197.937C412.33 198.139 412.16 198.339 411.988 198.538C411.605 198.98 411.207 199.409 410.794 199.827C410.591 200.032 410.384 200.233 410.174 200.432C410.06 200.539 409.945 200.645 409.829 200.75C409.77 200.803 409.711 200.855 409.652 200.907C409.525 201.013 409.533 201.013 409.677 200.907C409.643 201.002 409.314 201.144 409.235 201.196L408.024 201.985C407.908 202.053 407.807 202.143 407.725 202.25C407.644 202.357 407.585 202.479 407.551 202.61C407.516 202.74 407.508 202.875 407.527 203.008C407.545 203.141 407.589 203.27 407.657 203.386C407.725 203.502 407.815 203.603 407.922 203.685C408.029 203.766 408.151 203.825 408.281 203.859C408.411 203.894 408.546 203.902 408.68 203.883C408.813 203.865 408.941 203.821 409.057 203.753L410.314 202.933C411.014 202.451 411.66 201.895 412.241 201.275C413.555 199.987 414.713 198.547 415.689 196.987C415.757 196.871 415.801 196.743 415.82 196.61C415.838 196.476 415.83 196.341 415.796 196.211C415.762 196.081 415.702 195.959 415.621 195.852C415.54 195.745 415.438 195.655 415.322 195.587C415.206 195.519 415.078 195.475 414.944 195.456C414.811 195.438 414.676 195.446 414.546 195.48C414.416 195.514 414.294 195.574 414.187 195.655C414.079 195.736 413.989 195.838 413.922 195.954L413.924 195.953Z" fill="#726A69"/>
<path d="M403.69 204.486C401.02 205.51 398.186 206.042 395.326 206.056C392.782 206.048 390.282 205.394 388.06 204.156C385.841 202.939 383.983 201.156 382.676 198.989C381.375 196.712 380.799 194.072 380.593 191.479C380.299 187.814 380.455 184.109 380.299 180.434C380.243 179.122 378.196 179.115 378.252 180.434C378.4 183.908 378.295 187.397 378.504 190.867C378.679 193.778 379.229 196.697 380.537 199.325C383.068 204.403 388.593 207.617 394.147 208.047C397.592 208.314 401 207.612 404.234 206.458C404.492 206.38 404.711 206.206 404.844 205.971C404.977 205.737 405.014 205.46 404.949 205.199C404.875 204.938 404.701 204.718 404.466 204.584C404.23 204.45 403.952 204.414 403.69 204.484V204.486Z" fill="#726A69"/>
<path d="M418.713 186.01C418.984 185.869 419.28 185.785 419.585 185.764C419.889 185.742 420.195 185.783 420.482 185.885C420.731 185.957 420.965 186.071 421.176 186.221C421.251 186.277 421.32 186.339 421.384 186.407C421.433 186.453 421.477 186.504 421.517 186.559C421.567 186.634 421.612 186.712 421.657 186.791C421.677 186.828 421.774 187.053 421.721 186.919C421.667 186.785 421.763 187.067 421.777 187.111C421.823 187.262 421.856 187.416 421.877 187.573C421.933 188.12 421.909 188.672 421.804 189.212C421.395 191.46 419.95 193.821 417.787 194.763C417.976 194.681 417.696 194.788 417.633 194.806C417.485 194.852 417.335 194.891 417.184 194.927C416.918 194.988 416.647 195.028 416.374 195.044C415.746 195.117 415.111 195.002 414.548 194.714C413.404 194.057 412.374 195.823 413.516 196.481C414.896 197.275 416.687 197.249 418.176 196.78C419.754 196.281 421.033 195.09 421.995 193.783C422.921 192.551 423.541 191.117 423.804 189.598C424.031 188.208 424.066 186.6 423.198 185.406C422.563 184.593 421.661 184.03 420.652 183.817C419.642 183.604 418.59 183.755 417.681 184.243C416.524 184.873 417.556 186.641 418.714 186.01H418.713Z" fill="#726A69"/>
<path d="M390.98 198.345C392.444 199.139 394.134 199.41 395.772 199.113C396.328 198.969 396.87 198.778 397.393 198.54C397.651 198.463 397.87 198.289 398.003 198.055C398.136 197.82 398.174 197.543 398.108 197.282C398.033 197.021 397.859 196.801 397.624 196.667C397.389 196.534 397.11 196.497 396.849 196.566C396.37 196.78 395.877 196.962 395.374 197.109C395.323 197.12 395.108 197.129 395.08 197.164C395.103 197.136 395.283 197.143 395.122 197.157C395.057 197.163 394.991 197.169 394.925 197.174C394.693 197.189 394.461 197.191 394.229 197.18C394.117 197.175 394.005 197.167 393.894 197.157C393.838 197.151 393.782 197.143 393.726 197.139C393.811 197.146 393.866 197.161 393.748 197.142C393.515 197.104 393.285 197.059 393.057 196.999C392.84 196.942 392.626 196.873 392.417 196.792C392.289 196.744 392.395 196.804 392.453 196.808C392.395 196.791 392.339 196.764 392.289 196.729C392.196 196.682 392.105 196.63 392.016 196.575C391.782 196.438 391.503 196.4 391.24 196.469C390.977 196.538 390.753 196.708 390.616 196.943C390.479 197.177 390.441 197.456 390.51 197.719C390.578 197.982 390.749 198.206 390.983 198.343L390.98 198.345Z" fill="#726A69"/>
<path d="M415.813 196.079C415.564 196.062 415.313 196.096 415.077 196.178C414.841 196.26 414.624 196.388 414.438 196.556C414.253 196.723 414.103 196.926 413.997 197.153C413.891 197.379 413.832 197.625 413.823 197.875C413.823 198.958 414.654 199.704 415.813 199.704C417.017 199.704 417.803 198.951 417.803 197.875C417.794 197.625 417.735 197.379 417.629 197.153C417.524 196.926 417.374 196.723 417.188 196.555C417.003 196.388 416.785 196.259 416.549 196.178C416.313 196.096 416.062 196.062 415.813 196.079Z" fill="white"/>
<path d="M415.813 195.056C415.189 195.045 414.576 195.23 414.061 195.583C413.546 195.935 413.153 196.44 412.937 197.026C412.752 197.601 412.758 198.22 412.952 198.792C413.146 199.363 413.519 199.857 414.016 200.201C414.515 200.521 415.089 200.704 415.682 200.73C416.274 200.756 416.863 200.624 417.388 200.349C417.908 200.057 418.321 199.607 418.569 199.064C418.817 198.522 418.887 197.915 418.768 197.33C418.529 195.931 417.156 195.07 415.813 195.056C415.542 195.056 415.281 195.163 415.089 195.355C414.897 195.547 414.79 195.808 414.79 196.079C414.79 196.35 414.897 196.611 415.089 196.803C415.281 196.995 415.542 197.102 415.813 197.102C415.873 197.102 415.932 197.108 415.992 197.109C416.159 197.111 415.912 197.097 415.893 197.091C415.978 197.12 416.077 197.125 416.167 197.15C416.219 197.165 416.27 197.184 416.321 197.2C416.48 197.25 416.227 197.158 416.224 197.158C416.323 197.191 416.415 197.242 416.495 197.308C416.524 197.328 416.665 197.432 416.514 197.318C416.362 197.204 416.497 197.31 416.524 197.335C416.584 197.391 416.633 197.458 416.692 197.514C416.503 197.335 416.585 197.363 416.633 197.445C416.654 197.48 416.676 197.513 416.697 197.548C416.718 197.584 416.732 197.622 416.753 197.656C416.789 197.713 416.658 197.391 416.731 197.613C416.745 197.656 416.812 197.818 416.79 197.85C416.785 197.858 416.767 197.557 416.773 197.724C416.773 197.775 416.779 197.824 416.779 197.874C416.779 197.987 416.711 198.246 416.793 197.91C416.772 197.995 416.761 198.087 416.735 198.174C416.723 198.211 416.705 198.249 416.696 198.287C416.751 198.041 416.781 198.105 416.734 198.194C416.696 198.262 416.657 198.329 416.617 198.395C416.565 198.481 416.493 198.485 416.68 198.317C416.658 198.337 416.637 198.365 416.618 198.387C416.586 198.421 416.553 198.454 416.519 198.485C416.438 198.558 416.358 198.563 416.58 198.442C416.51 198.48 416.447 198.532 416.376 198.57C416.335 198.598 416.291 198.62 416.244 198.635C416.244 198.635 416.504 198.542 416.348 198.587C416.262 198.611 416.183 198.64 416.098 198.659C416.046 198.674 415.992 198.684 415.938 198.688L416.1 198.666C416.063 198.67 416.025 198.673 415.988 198.676C415.891 198.682 415.795 198.683 415.698 198.679C415.661 198.679 415.623 198.673 415.586 198.671C415.376 198.662 415.842 198.72 415.64 198.679C415.555 198.661 415.47 198.642 415.384 198.616C415.352 198.607 415.32 198.594 415.287 198.584C415.119 198.533 415.534 198.707 415.3 198.587C415.227 198.55 415.159 198.505 415.089 198.462C415.02 198.418 415.009 198.355 415.181 198.535C415.149 198.501 415.108 198.472 415.074 198.439C415.04 198.407 414.876 198.211 414.996 198.366C415.115 198.522 415.013 198.386 414.992 198.355C414.966 198.314 414.942 198.273 414.919 198.231C414.872 198.143 414.866 198.028 414.941 198.301C414.932 198.27 414.917 198.239 414.907 198.209C414.881 198.13 414.865 198.049 414.845 197.967C414.799 197.775 414.86 198.236 414.854 198.035C414.854 197.999 414.85 197.964 414.849 197.929C414.849 197.877 414.849 197.826 414.849 197.775C414.856 197.655 414.914 197.613 414.835 197.852C414.865 197.761 414.882 197.662 414.91 197.57C414.957 197.414 414.862 197.688 414.862 197.68C414.857 197.641 414.932 197.543 414.952 197.51C414.973 197.476 414.988 197.456 415.005 197.428C415.098 197.275 414.823 197.621 414.98 197.462C415.041 197.399 415.12 197.339 415.175 197.272C415.027 197.453 415.029 197.378 415.129 197.311C415.171 197.282 415.214 197.255 415.26 197.23C415.297 197.209 415.34 197.193 415.375 197.17C415.448 197.137 415.406 197.153 415.252 197.221C415.285 197.207 415.319 197.195 415.353 197.183C415.459 197.15 415.566 197.122 415.675 197.101C415.78 197.079 415.742 197.144 415.574 197.114C415.654 197.117 415.733 197.113 415.812 197.103C415.947 197.103 416.08 197.076 416.204 197.025C416.328 196.974 416.441 196.898 416.536 196.803C416.631 196.708 416.706 196.595 416.758 196.471C416.809 196.347 416.836 196.214 416.836 196.079C416.836 195.945 416.809 195.812 416.758 195.688C416.706 195.564 416.631 195.451 416.536 195.356C416.441 195.261 416.328 195.185 416.204 195.134C416.08 195.082 415.947 195.056 415.812 195.056L415.813 195.056Z" fill="#726A69"/>
<path d="M407.655 203.54C407.672 205.008 407.837 206.471 408.147 207.906C408.294 208.648 408.588 209.353 409.012 209.98C409.517 210.627 410.126 211.184 410.814 211.63C411.049 211.767 411.328 211.806 411.591 211.737C411.853 211.668 412.078 211.497 412.215 211.263C412.351 211.029 412.39 210.749 412.321 210.487C412.252 210.224 412.082 210 411.847 209.863C411.613 209.709 411.392 209.537 411.184 209.348C411.073 209.247 410.964 209.14 410.862 209.029C410.813 208.975 410.764 208.921 410.718 208.865C410.784 208.945 410.708 208.852 410.686 208.822C410.37 208.297 410.158 207.715 410.063 207.109C409.991 206.776 409.935 206.44 409.888 206.102C409.863 205.916 409.904 206.226 409.882 206.048C409.874 205.979 409.865 205.909 409.857 205.839C409.841 205.704 409.827 205.568 409.814 205.432C409.753 204.803 409.725 204.173 409.703 203.542C409.703 203.271 409.595 203.01 409.403 202.818C409.211 202.626 408.951 202.519 408.679 202.519C408.408 202.519 408.147 202.626 407.955 202.818C407.763 203.01 407.656 203.271 407.656 203.542L407.655 203.54Z" fill="#726A69"/>
<path d="M399.167 266.014C400.917 262.753 402.313 259.316 403.332 255.758C403.37 255.612 403.358 255.457 403.298 255.318C403.238 255.179 403.134 255.064 403.001 254.991C402.055 254.459 400.564 253.471 400.235 252.81C398.916 250.149 397.138 249.198 394.734 247.399C393.55 246.519 392.32 245.703 391.049 244.955C390.249 244.467 388.847 243.396 387.884 243.314C386.92 243.231 386.404 243.259 385.857 244.064C385.679 244.287 385.561 244.551 385.515 244.833C385.47 245.114 385.498 245.403 385.597 245.67C385.931 246.312 386.373 246.892 386.903 247.385C387.465 247.967 388.15 248.587 388.742 249.214C386.584 248.997 384.417 248.89 382.249 248.891C381.674 248.866 381.105 249.009 380.612 249.305C380.21 249.59 379.887 249.973 379.674 250.417C379.552 250.699 379.488 251.003 379.488 251.311C379.488 251.618 379.552 251.922 379.674 252.204C379.997 252.906 380.482 253.521 381.089 253.999C380.574 255.548 380.193 256.332 380.702 257.906C381.278 259.684 381.604 261.91 382.761 263.553C383.084 264.044 383.503 264.465 383.992 264.79C384.458 265.039 384.96 265.212 385.48 265.302C388.514 265.745 392.657 265.554 395.53 265.887C396.397 266.108 397.242 266.41 398.054 266.789C398.211 266.853 398.387 266.857 398.547 266.8C398.707 266.742 398.839 266.628 398.92 266.478C399.003 266.322 399.086 266.168 399.167 266.014Z" fill="white"/>
<path d="M422.022 239.802C422.296 238.328 422.531 237.048 422.695 236.131C422.748 235.833 422.686 235.525 422.522 235.27C422.358 235.016 422.104 234.832 421.811 234.757C415.452 233.129 398.954 229.496 393.481 228.264C393.171 228.196 392.846 228.252 392.577 228.422C392.309 228.593 392.118 228.862 392.048 229.172L388.913 243.202L388.831 243.606C389.594 244.015 390.334 244.465 391.049 244.954C392.32 245.703 393.55 246.518 394.734 247.398C397.139 249.198 398.916 250.149 400.235 252.809C400.563 253.471 402.055 254.459 403 254.99L403.794 254.226C405.719 254.858 417.994 256.932 418.909 256.794L419 256.231L419.346 254.095C419.96 250.775 421.178 244.358 422.022 239.802Z" fill="white"/>
<path d="M389.962 249.045C389.188 248.126 388.274 247.343 387.449 246.472C386.905 245.899 386.031 245.008 386.937 244.365C386.947 244.358 387.124 244.303 387.052 244.314C387.277 244.289 387.503 244.292 387.727 244.322C388.109 244.396 388.474 244.539 388.805 244.744C389.676 245.233 390.504 245.813 391.353 246.34C393.022 247.377 394.605 248.541 396.181 249.713C396.89 250.223 397.543 250.806 398.13 251.453C398.767 252.174 399.091 253.092 399.706 253.814C400.378 254.525 401.158 255.127 402.017 255.597C402.107 255.652 402.392 255.896 402.486 255.872C402.254 255.929 402.435 255.166 402.284 255.714C402.248 255.843 402.212 255.972 402.175 256.101C402.021 256.638 401.854 257.172 401.674 257.701C400.899 259.961 399.97 262.165 398.894 264.298C398.811 264.465 398.145 265.977 398.037 265.961L398.208 265.833C398.344 265.823 398.365 265.805 398.272 265.78C398.246 265.733 398.027 265.677 397.979 265.657C397.753 265.564 397.528 265.47 397.301 265.379C396.419 265.031 395.486 264.825 394.538 264.771C392.295 264.605 390.042 264.639 387.796 264.502C386.743 264.439 385.445 264.47 384.51 263.905C383.558 263.331 383.028 262.079 382.686 261.075C382.3 259.944 382.04 258.773 381.691 257.63C381.51 257.129 381.454 256.592 381.527 256.065C381.665 255.453 381.849 254.852 382.077 254.268C382.129 254.093 382.132 253.908 382.085 253.733C382.039 253.557 381.945 253.398 381.814 253.272C381.26 252.841 380.499 252.074 380.514 251.314C380.531 250.975 380.665 250.653 380.894 250.403C381.122 250.152 381.431 249.989 381.766 249.941C382.763 249.85 383.767 249.856 384.763 249.958C385.88 250 386.996 250.071 388.109 250.171C388.38 250.169 388.639 250.061 388.831 249.869C389.022 249.678 389.131 249.418 389.133 249.148C389.128 248.878 389.018 248.621 388.827 248.43C388.636 248.239 388.379 248.13 388.109 248.124C386.716 248.002 385.322 247.922 383.926 247.885C382.703 247.854 381.243 247.685 380.158 248.377C379.614 248.71 379.171 249.184 378.875 249.749C378.58 250.315 378.444 250.95 378.482 251.586C378.676 252.837 379.353 253.962 380.367 254.719L380.103 253.723C379.688 254.964 379.3 256.121 379.533 257.445C379.64 258.058 379.869 258.654 380.033 259.254C380.196 259.854 380.348 260.454 380.529 261.048C380.872 262.311 381.452 263.496 382.237 264.543C382.676 265.071 383.218 265.505 383.829 265.819C384.44 266.132 385.108 266.32 385.793 266.369C388.338 266.692 390.914 266.632 393.472 266.753C394.468 266.739 395.46 266.895 396.403 267.214C396.864 267.388 397.314 267.621 397.783 267.775C398.134 267.886 398.512 267.882 398.861 267.764C399.21 267.645 399.512 267.418 399.722 267.115C400.112 266.484 400.457 265.825 400.753 265.144C401.079 264.483 401.394 263.817 401.698 263.145C402.276 261.862 402.817 260.561 403.299 259.239C403.516 258.642 403.72 258.039 403.911 257.432C404.148 256.845 404.305 256.23 404.38 255.602C404.421 254.244 402.803 253.746 401.907 253.06C401.618 252.854 401.361 252.607 401.145 252.326C400.86 251.794 400.546 251.277 400.203 250.779C399.544 249.904 398.767 249.124 397.896 248.46C396.105 247.049 394.239 245.736 392.307 244.525C391.199 243.839 390.124 243.019 388.909 242.532C387.818 242.096 386.338 242.087 385.451 242.953C384.879 243.496 384.527 244.233 384.465 245.02C384.487 245.813 384.796 246.572 385.334 247.155C386.286 248.366 387.521 249.316 388.512 250.492C388.705 250.682 388.965 250.788 389.236 250.788C389.506 250.788 389.766 250.682 389.959 250.492C390.146 250.298 390.25 250.038 390.25 249.769C390.25 249.499 390.146 249.24 389.959 249.045H389.962Z" fill="#726A69"/>
<path d="M389.899 243.473L391.969 234.214L392.968 229.739C392.983 229.641 393.005 229.543 393.034 229.448C393.153 229.15 393.367 229.287 393.644 229.349C394.589 229.561 395.535 229.773 396.481 229.984C401.933 231.201 407.387 232.414 412.832 233.668C415.282 234.232 417.732 234.8 420.173 235.401C420.64 235.46 421.098 235.575 421.538 235.742C421.689 235.827 421.672 235.82 421.687 235.987C421.678 235.887 421.659 236.129 421.647 236.191L421.582 236.552C421.366 237.742 421.147 238.931 420.924 240.119C419.972 245.236 418.922 250.339 418.09 255.476L417.92 256.519L418.907 255.768C418.355 255.788 417.802 255.74 417.262 255.626C417.186 255.617 416.904 255.578 417.134 255.61C417.006 255.592 416.876 255.574 416.747 255.556C416.482 255.519 416.218 255.481 415.954 255.441C415.359 255.353 414.766 255.262 414.174 255.167C411.638 254.762 409.104 254.326 406.586 253.82C405.735 253.673 404.893 253.478 404.064 253.236C402.808 252.831 402.269 254.807 403.52 255.21C405.359 255.803 407.352 256.058 409.249 256.398C411.715 256.84 414.189 257.258 416.673 257.595C417.405 257.76 418.156 257.834 418.907 257.814C419.13 257.81 419.345 257.734 419.523 257.599C419.7 257.464 419.83 257.277 419.894 257.063C420.704 252.057 421.697 247.084 422.629 242.098C422.881 240.751 423.131 239.403 423.379 238.057C423.629 236.696 424.149 235.1 422.811 234.125C422.282 233.815 421.699 233.609 421.092 233.519C420.563 233.387 420.034 233.258 419.505 233.131C418.252 232.828 416.998 232.532 415.742 232.241C409.991 230.901 404.229 229.616 398.465 228.33C397.368 228.085 396.271 227.84 395.174 227.595C394.748 227.499 394.321 227.399 393.895 227.308C393.448 227.181 392.973 227.192 392.533 227.34C392.092 227.487 391.707 227.765 391.427 228.136C391.154 228.574 390.978 229.066 390.91 229.578L390.421 231.765L387.982 242.68L387.927 242.927C387.64 244.211 389.613 244.758 389.9 243.471L389.899 243.473Z" fill="#726A69"/>
<path d="M415.557 213.587C422.095 216.356 429.346 219.331 433.323 225.575C435.455 228.925 436.353 232.881 436.731 236.791C437.148 241.1 437.026 245.459 436.835 249.778C436.594 255.221 436.101 260.646 435.358 266.052C435.295 266.314 435.334 266.589 435.466 266.823C435.599 267.057 435.816 267.231 436.073 267.311C436.334 267.382 436.613 267.346 436.849 267.212C437.084 267.078 437.258 266.857 437.331 266.597C438.022 261.607 438.52 256.594 438.793 251.565C439.11 247.037 439.138 242.493 438.879 237.961C438.573 233.787 437.825 229.53 435.83 225.803C434.01 222.405 431.215 219.685 428.04 217.547C424.489 215.156 420.518 213.482 416.591 211.819C416.355 211.691 416.079 211.657 415.819 211.726C415.559 211.794 415.334 211.958 415.191 212.186C415.056 212.421 415.019 212.699 415.087 212.961C415.156 213.223 415.325 213.448 415.558 213.586L415.557 213.587Z" fill="#119EED"/>
<path d="M368.974 244.159C369.313 251.49 369.593 258.822 369.814 266.157C369.854 267.471 371.901 267.477 371.861 266.157C371.64 258.823 371.36 251.49 371.021 244.159C370.96 242.848 368.913 242.84 368.974 244.159Z" fill="#119EED"/>
<path d="M364.151 243.589C364.777 238.582 365.426 233.507 367.237 228.764C368.772 224.743 371.261 220.892 374.89 218.471C377.07 217.016 379.511 216.036 381.955 215.122C382.213 215.043 382.431 214.869 382.564 214.635C382.697 214.401 382.735 214.124 382.671 213.863C382.597 213.602 382.423 213.381 382.187 213.247C381.952 213.114 381.673 213.078 381.411 213.148C379.062 213.958 376.792 214.984 374.631 216.212C372.569 217.461 370.752 219.077 369.27 220.978C366.2 224.901 364.487 229.64 363.485 234.477C362.862 237.487 362.485 240.541 362.104 243.589C362.106 243.86 362.214 244.119 362.406 244.311C362.597 244.503 362.857 244.611 363.128 244.612C363.397 244.606 363.654 244.496 363.844 244.305C364.035 244.115 364.145 243.858 364.151 243.589Z" fill="#119EED"/>
<path d="M366.604 255.071L361.957 242.303C361.595 241.306 361.225 240.214 359.976 240.16C359.493 240.183 359.017 240.286 358.568 240.466L356.855 240.996L350.406 242.989L343.15 245.231C342.892 245.308 342.673 245.482 342.539 245.717C342.406 245.952 342.369 246.229 342.436 246.491C344.165 253.391 345.971 260.271 347.791 267.148C348.127 268.42 350.102 267.881 349.765 266.604C347.945 259.727 346.14 252.846 344.409 245.947L343.693 247.205L355.584 243.529L358.607 242.595C359.059 242.501 359.501 242.369 359.929 242.199C359.917 242.252 359.692 242.081 359.688 242.084C359.684 242.087 359.759 242.223 359.761 242.232C359.846 242.508 359.944 242.78 360.055 243.046L362.198 248.931L364.628 255.614C364.706 255.872 364.881 256.09 365.115 256.223C365.349 256.356 365.626 256.394 365.887 256.329C366.148 256.255 366.369 256.082 366.502 255.846C366.636 255.61 366.672 255.332 366.602 255.07L366.604 255.071Z" fill="#119EED"/>
<path d="M328.738 227.627C329.427 227.454 330.146 227.443 330.839 227.594C331.257 227.729 331.665 227.856 332.024 227.971C332.05 227.792 332.071 227.651 332.071 227.651C332.09 227.415 332.162 227.185 332.283 226.981C332.404 226.777 332.571 226.603 332.769 226.474C333.492 225.923 334.578 226.202 335.165 226.364C337.249 226.942 345.718 230.175 348.517 231.89C349.48 232.48 351.217 232.527 352.898 231.464C353.036 230.3 353.239 229.144 353.507 228.003C353.584 227.524 353.779 227.072 354.076 226.688C354.372 226.305 354.761 226.002 355.205 225.807C355.511 225.699 355.837 225.661 356.159 225.696C356.481 225.731 356.791 225.838 357.067 226.008C357.598 226.352 357.894 227.222 358.042 227.837C359.038 231.976 359.402 232.344 359.793 236.344L359.826 236.689L359.54 239.407C359.292 241.685 358.265 243.808 356.631 245.416C355.007 247.003 352.831 248.297 349.078 248.259C345.179 247.577 341.524 245.494 339.491 244.281C338.001 243.392 336.676 242.453 334.524 240.914C333.454 240.15 329.853 237.256 329.556 236.952C329.053 236.437 328.55 235.463 328.896 234.603C328.627 234.41 328.372 234.198 328.132 233.969C327.857 233.67 327.662 233.306 327.565 232.911C327.469 232.517 327.473 232.104 327.578 231.712C327.598 231.66 327.62 231.611 327.644 231.562C327.141 230.709 326.768 230.178 327.23 228.953C327.355 228.626 327.557 228.334 327.82 228.103C328.083 227.872 328.398 227.708 328.738 227.627Z" fill="white"/>
<path d="M353.889 231.717C354.026 230.765 354.161 229.817 354.364 228.876C354.552 228.006 354.859 226.589 356.05 226.708C356.57 226.76 356.746 227.125 356.902 227.579C357.12 228.289 357.298 229.011 357.436 229.74C357.769 231.203 358.079 232.672 358.334 234.15C358.548 235.203 358.674 236.273 358.711 237.348C358.692 238.118 358.617 238.885 358.485 239.644C358.299 240.831 357.879 241.97 357.251 242.995C356.624 244.02 355.8 244.911 354.827 245.618C353.98 246.221 353.029 246.662 352.022 246.919C351.422 247.072 350.81 247.168 350.192 247.208C349.412 247.254 348.63 247.168 347.879 246.952C345.329 246.224 342.891 245.152 340.629 243.768C337.115 241.663 333.788 239.259 330.687 236.583C330.237 236.205 329.377 235.263 329.973 234.78C330.508 234.348 332.07 235.262 332.736 235.614C335.4 237.033 337.944 238.668 340.342 240.502C340.576 240.637 340.855 240.674 341.117 240.606C341.379 240.537 341.604 240.368 341.742 240.134C341.872 239.898 341.907 239.621 341.839 239.361C341.77 239.1 341.604 238.875 341.375 238.734C338.993 236.915 336.469 235.291 333.827 233.877C332.718 233.289 331.42 232.562 330.127 232.655C329.737 232.688 329.359 232.809 329.022 233.008C328.685 233.208 328.398 233.481 328.182 233.807C327.965 234.134 327.826 234.505 327.773 234.893C327.72 235.281 327.756 235.676 327.878 236.048C328.162 237.052 328.834 237.699 329.602 238.331C330.432 239.014 331.271 239.687 332.118 240.351C334.092 241.921 336.149 243.385 338.278 244.738C340.716 246.32 343.336 247.6 346.081 248.552C346.882 248.819 347.7 249.034 348.528 249.195C349.365 249.319 350.216 249.31 351.05 249.168C352.436 249.009 353.778 248.586 355.006 247.923C357.528 246.493 359.392 244.134 360.201 241.349C360.453 240.334 360.615 239.298 360.685 238.254C360.771 236.989 360.692 235.719 360.45 234.475C360.204 232.869 359.876 231.276 359.523 229.692C359.197 228.232 359.016 226.149 357.689 225.202C357.026 224.766 356.225 224.592 355.441 224.712C354.657 224.833 353.945 225.239 353.443 225.854C352.61 226.86 352.386 228.176 352.174 229.43C352.076 230.009 352 230.592 351.918 231.173C351.855 231.434 351.894 231.71 352.026 231.944C352.159 232.178 352.376 232.352 352.633 232.432C352.895 232.502 353.173 232.467 353.409 232.333C353.645 232.199 353.818 231.978 353.892 231.717H353.889Z" fill="#726A69"/>
<path d="M329.414 233.721C328.932 233.353 328.387 232.846 328.518 232.163C328.572 231.945 328.695 231.75 328.87 231.608C329.044 231.466 329.26 231.385 329.485 231.377C330.275 231.27 331.125 231.668 331.847 231.955C334.182 232.902 336.463 233.974 338.681 235.169C339.896 235.79 341.064 236.497 342.178 237.285C342.413 237.42 342.691 237.457 342.953 237.388C343.215 237.319 343.44 237.15 343.578 236.917C343.709 236.682 343.744 236.405 343.676 236.144C343.607 235.883 343.441 235.659 343.211 235.517C340.82 233.76 338.028 232.473 335.338 231.248C334.16 230.711 332.971 230.182 331.756 229.736C330.483 229.27 328.971 229.067 327.787 229.884C327.347 230.177 326.994 230.583 326.765 231.059C326.535 231.536 326.438 232.065 326.482 232.592C326.606 233.911 327.387 234.727 328.384 235.488C328.619 235.624 328.898 235.661 329.16 235.592C329.422 235.524 329.646 235.354 329.784 235.121C329.915 234.885 329.949 234.608 329.881 234.347C329.813 234.087 329.647 233.862 329.417 233.721H329.414Z" fill="#726A69"/>
<path d="M343.487 232.003C340.671 230.477 337.761 229.133 334.774 227.978C332.49 227.035 329.126 225.331 326.97 227.495C326.381 228.126 326.037 228.946 326 229.809C326.009 230.59 326.255 231.35 326.704 231.989C327.374 233.122 329.144 232.093 328.472 230.955C328.145 230.403 327.931 230.053 328.148 229.418C328.217 229.199 328.346 229.005 328.521 228.857C328.695 228.709 328.908 228.614 329.134 228.582C330.453 228.259 331.913 228.997 333.143 229.504C336.296 230.804 339.488 232.075 342.454 233.769C343.599 234.423 344.632 232.656 343.487 232.001L343.487 232.003Z" fill="#726A69"/>
<path d="M333.095 227.652C333.155 227.086 334.037 227.15 334.438 227.236C334.856 227.334 335.269 227.453 335.674 227.593C336.812 227.966 337.935 228.384 339.053 228.81C341.726 229.782 344.343 230.902 346.893 232.163C347.489 232.523 348.11 232.841 348.751 233.113C349.913 233.455 351.159 233.385 352.276 232.916C352.533 232.837 352.751 232.663 352.884 232.429C353.017 232.194 353.055 231.918 352.991 231.657C352.917 231.396 352.743 231.175 352.508 231.041C352.272 230.907 351.993 230.872 351.732 230.942C350.879 231.272 349.872 231.483 349.033 231.007C348.559 230.738 348.086 230.472 347.597 230.229C346.218 229.542 344.799 228.935 343.378 228.342C340.872 227.252 338.313 226.29 335.71 225.459C334.897 225.16 334.022 225.072 333.166 225.203C332.598 225.333 332.086 225.641 331.705 226.082C331.325 226.523 331.094 227.074 331.048 227.655C331.05 227.926 331.159 228.185 331.35 228.376C331.542 228.568 331.801 228.676 332.072 228.678C332.341 228.672 332.598 228.563 332.789 228.372C332.98 228.181 333.089 227.924 333.095 227.655V227.652Z" fill="#726A69"/>
<path d="M341.735 240.337L346.621 235.896C346.812 235.703 346.918 235.443 346.918 235.172C346.918 234.902 346.812 234.642 346.621 234.449C346.427 234.262 346.167 234.158 345.898 234.158C345.628 234.158 345.369 234.262 345.174 234.449L340.287 238.891C340.097 239.084 339.991 239.344 339.991 239.615C339.991 239.886 340.097 240.146 340.287 240.339C340.482 240.525 340.742 240.629 341.011 240.629C341.281 240.629 341.54 240.525 341.735 240.339V240.337Z" fill="#726A69"/>
</g>
</svg>
