<svg width="370" height="240" viewBox="0 0 370 240" fill="none" xmlns="http://www.w3.org/2000/svg">
<g clip-path="url(#clip0_2421_22925)">
<mask id="mask0_2421_22925" style="mask-type:alpha" maskUnits="userSpaceOnUse" x="9" y="173" width="68" height="69">
<path d="M76.2681 173.131H9V241.21H76.2681V173.131Z" fill="#D9D9D9"/>
</mask>
<g mask="url(#mask0_2421_22925)">
<path d="M17.1558 222.074H72.0756V242.006H13.3728C13.3728 236.035 13.3728 228.045 13.3711 222.074H17.1558Z" fill="white"/>
<path d="M9.80957 201.468C9.81291 201.782 9.81291 211.129 9.81291 215.07H68.5168C68.5168 214.551 68.5168 214.262 68.5168 214.262C68.5168 210.131 68.5168 205.559 68.5168 201.468L9.80957 201.468Z" fill="white"/>
<path d="M17.6686 189.976H11.2363V185.892H10.0352V181.402H68.7384V185.892H69.94C69.94 185.892 69.94 187.851 69.94 189.976H17.6686Z" fill="white"/>
<path d="M17.1553 222.074V215.07H75.4577V222.074H17.1553Z" fill="#119EED"/>
<path d="M17.9668 222.074V215.071L17.1572 215.888H72.9095C73.7063 215.888 74.5118 215.92 75.3086 215.888C75.3587 215.886 75.4101 215.888 75.4596 215.888L74.6501 215.071V222.074L75.4596 221.258H22.9662C21.0603 221.258 19.1423 221.194 17.2372 221.258C17.2102 221.258 17.1832 221.258 17.1562 221.258C16.1142 221.258 16.1126 222.891 17.1562 222.891H75.4596C75.6733 222.888 75.8776 222.801 76.0286 222.648C76.1802 222.496 76.2664 222.29 76.269 222.074V215.071C76.2664 214.856 76.1802 214.649 76.0286 214.497C75.8776 214.345 75.6733 214.257 75.4596 214.255H24.6156C22.183 214.255 19.7465 214.215 17.3141 214.255C17.2618 214.255 17.2095 214.255 17.1572 214.255C16.9435 214.257 16.7393 214.345 16.5882 214.497C16.437 214.649 16.3507 214.856 16.3477 215.071V222.074C16.3477 223.125 17.9668 223.127 17.9668 222.074Z" fill="#097BBB"/>
<path d="M67.707 202.008V214.263C67.707 215.314 69.326 215.316 69.326 214.263V202.008C69.326 200.957 67.707 200.956 67.707 202.008Z" fill="#726A69"/>
<path d="M14.6637 206.864H63.755C64.7969 206.864 64.7989 205.231 63.755 205.231H14.6637C13.622 205.231 13.6204 206.864 14.6637 206.864Z" fill="#726A69"/>
<path d="M14.6637 211.309H63.755C64.7969 211.309 64.7989 209.676 63.755 209.676H14.6637C13.622 209.676 13.6204 211.309 14.6637 211.309Z" fill="#726A69"/>
<path d="M17.156 214.254H9.8129L10.6225 215.071C10.6225 210.996 10.6225 206.921 10.6225 202.846C10.6225 202.388 10.6249 201.928 10.6225 201.469L9.8129 202.285H17.156C18.1976 202.285 18.1994 200.652 17.156 200.652H9.80956C9.59577 200.655 9.39152 200.742 9.24031 200.895C9.0891 201.047 9.00287 201.253 9 201.469C9.03099 204.918 9.00334 208.369 9.00334 211.818V215.071C9.00635 215.286 9.09257 215.492 9.24378 215.645C9.39493 215.798 9.59911 215.884 9.8129 215.887H17.156C18.1976 215.887 18.1994 214.254 17.156 214.254Z" fill="#726A69"/>
<path d="M71.2679 222.747V242.005L72.0774 241.189H15.7649C15.0066 241.189 14.2308 241.14 13.4739 241.189C13.4402 241.191 13.4064 241.189 13.3747 241.189L14.1843 242.005C14.1843 236.758 14.1843 231.51 14.1843 226.262V222.074L13.3747 222.891H17.1594C18.2011 222.891 18.2027 221.258 17.1594 221.258H13.373C13.1592 221.26 12.9551 221.348 12.8039 221.5C12.6528 221.653 12.5665 221.859 12.5635 222.074C12.5648 227.322 12.5653 232.569 12.5651 237.818V242.005C12.5682 242.221 12.6544 242.427 12.8057 242.58C12.9568 242.732 13.1609 242.819 13.3747 242.822H69.687C70.4498 242.822 71.2159 242.843 71.9786 242.822C72.012 242.822 72.0461 242.822 72.0774 242.822C72.2912 242.819 72.4956 242.732 72.6465 242.58C72.7981 242.427 72.8843 242.221 72.8869 242.005V222.747C72.8869 221.697 71.2679 221.695 71.2679 222.747Z" fill="#726A69"/>
<path d="M17.7782 232.856H67.5811C68.623 232.856 68.6251 231.223 67.5811 231.223H17.7782C16.7362 231.223 16.7346 232.856 17.7782 232.856Z" fill="#726A69"/>
<path d="M17.7782 228.008H67.5811C68.623 228.008 68.6251 226.374 67.5811 226.374H17.7782C16.7362 226.374 16.7346 228.008 17.7782 228.008Z" fill="#726A69"/>
<path d="M17.7782 237.659H65.1339C66.1759 237.659 66.1772 236.026 65.1339 236.026H17.7782C16.7362 236.026 16.7346 237.659 17.7782 237.659Z" fill="#726A69"/>
<path d="M12.9941 173.949H70.7172V181.402H12.9941V173.949Z" fill="#119EED"/>
<path d="M70.7493 189.438V185.893C70.7466 185.677 70.6605 185.471 70.5089 185.319C70.3579 185.166 70.1536 185.079 69.9398 185.076H65.4469C65.2318 185.076 65.0261 185.162 64.8738 185.315C64.7222 185.468 64.6367 185.676 64.6367 185.893C64.6367 186.109 64.7222 186.317 64.8738 186.47C65.0261 186.623 65.2318 186.709 65.4469 186.709H69.9398L69.1303 185.893V189.438C69.1303 189.655 69.2158 189.863 69.3674 190.015C69.5191 190.168 69.7254 190.255 69.9398 190.255C70.1549 190.255 70.3606 190.168 70.5122 190.015C70.6645 189.863 70.7493 189.655 70.7493 189.438Z" fill="#726A69"/>
<path d="M67.9307 181.402V185.893C67.9307 186.109 68.0162 186.317 68.1678 186.47C68.3194 186.623 68.5258 186.709 68.7402 186.709C68.9552 186.709 69.1609 186.623 69.3125 186.47C69.4648 186.317 69.5497 186.109 69.5497 185.893V181.402C69.5497 181.186 69.4648 180.978 69.3125 180.825C69.1609 180.672 68.9552 180.585 68.7402 180.585C68.5258 180.585 68.3194 180.672 68.1678 180.825C68.0162 180.978 67.9307 181.186 67.9307 181.402Z" fill="#726A69"/>
<path d="M10.4268 185.893V189.976C10.4298 190.191 10.5161 190.398 10.6673 190.55C10.8184 190.702 11.0226 190.79 11.2363 190.792H17.6686C18.7103 190.792 18.7123 189.159 17.6686 189.159H11.2363L12.0459 189.976V185.893C12.0459 184.841 10.4268 184.839 10.4268 185.893Z" fill="#726A69"/>
<path d="M15.9541 180.585H10.0351C9.82135 180.589 9.61724 180.676 9.46603 180.828C9.31488 180.981 9.22859 181.187 9.22559 181.402V185.893C9.22859 186.108 9.31488 186.314 9.46603 186.466C9.61724 186.619 9.82135 186.706 10.0351 186.709H60.1271C61.169 186.709 61.1703 185.076 60.1271 185.076H10.0351L10.8447 185.893V181.402L10.0351 182.219H15.9541C16.9957 182.219 16.9977 180.585 15.9541 180.585Z" fill="#726A69"/>
<path d="M12.9951 174.765H69.2513C69.7135 174.765 70.1957 174.806 70.6579 174.765C70.6773 174.765 70.698 174.765 70.718 174.765L69.9085 173.948V181.402L70.718 180.585H14.4513C13.9929 180.585 13.5133 180.544 13.0562 180.585C13.0362 180.585 13.0153 180.585 12.9951 180.585L13.8047 181.402V173.948C13.8047 172.897 12.1855 172.895 12.1855 173.948V181.402C12.1886 181.618 12.2748 181.823 12.4261 181.976C12.5772 182.129 12.7814 182.215 12.9951 182.219H70.718C70.9318 182.215 71.1361 182.129 71.2871 181.976C71.438 181.823 71.5249 181.618 71.5275 181.402V173.948C71.5249 173.732 71.438 173.527 71.2871 173.374C71.1361 173.222 70.9318 173.135 70.718 173.131H12.9951C11.9535 173.131 11.9518 174.765 12.9951 174.765Z" fill="#097BBB"/>
<path d="M17.668 189.976H75.389V201.47H17.668V189.976Z" fill="#95D9FF"/>
<path d="M17.6697 190.792H73.9234C74.3863 190.792 74.8679 190.833 75.33 190.792C75.3501 190.79 75.3708 190.792 75.3908 190.792L74.5813 189.975V201.469L75.3908 200.652H19.1242C18.6658 200.652 18.1861 200.612 17.7287 200.652C17.7088 200.654 17.6879 200.652 17.668 200.652L18.4775 201.469V189.975C18.4775 188.925 16.8584 188.923 16.8584 189.975V201.469C16.8614 201.685 16.9476 201.891 17.0988 202.043C17.25 202.196 17.4542 202.283 17.668 202.286H75.3908C75.6046 202.283 75.8089 202.196 75.9599 202.043C76.1115 201.891 76.1976 201.685 76.2003 201.469V189.975C76.1976 189.76 76.1115 189.554 75.9599 189.402C75.8089 189.249 75.6046 189.162 75.3908 189.159H17.6697C16.626 189.159 16.624 190.792 17.6697 190.792Z" fill="#119EED"/>
<path d="M27.0674 189.976V201.47C27.0674 202.521 28.6865 202.522 28.6865 201.47V201.03C28.6865 199.979 27.0674 199.977 27.0674 201.03V201.47C27.0674 202.521 28.6865 202.522 28.6865 201.47V189.976C28.6865 188.925 27.0674 188.923 27.0674 189.976Z" fill="#119EED"/>
<path d="M22.6904 190.073V201.37C22.6904 202.422 24.3096 202.424 24.3096 201.37V190.073C24.3096 189.022 22.6904 189.02 22.6904 190.073Z" fill="#119EED"/>
<path d="M70.9172 193.264V198.18H52.0564V198.103C52.0564 198.103 52.0564 194.078 52.0518 193.264H70.9172Z" fill="white"/>
<path d="M70.1077 193.264V198.179L70.9171 197.363H52.0564L52.8658 198.179C52.8658 196.541 52.8699 194.902 52.8612 193.264L52.0517 194.08H70.9171C71.9591 194.08 71.9611 192.447 70.9171 192.447H52.0517C51.838 192.45 51.6336 192.537 51.4826 192.689C51.331 192.842 51.2449 193.048 51.2422 193.264C51.2509 194.902 51.2469 196.541 51.2469 198.179C51.2495 198.395 51.3357 198.601 51.4873 198.753C51.6382 198.906 51.8426 198.993 52.0564 198.996H70.9171C71.1315 198.993 71.3352 198.906 71.4862 198.753C71.6378 198.601 71.724 198.395 71.7273 198.179V193.264C71.7273 192.212 70.1077 192.211 70.1077 193.264Z" fill="#119EED"/>
</g>
<mask id="mask1_2421_22925" style="mask-type:alpha" maskUnits="userSpaceOnUse" x="256" y="132" width="107" height="110">
<path d="M362.792 132H256V241.209H362.792V132Z" fill="#D9D9D9"/>
</mask>
<g mask="url(#mask1_2421_22925)">
<path d="M334.798 182.449C340.193 184.262 346.691 183.061 350.214 178.335C353.305 174.19 352.548 169.47 351.835 164.706C351.469 162.255 350.929 159.87 350.735 157.272C350.449 153.455 349.909 148.685 348.467 145.378C347.387 142.905 345.091 139.06 341.385 137.175L339.036 135.707L338.527 135.386C335.361 133.902 331.924 133.085 328.429 132.986C321.414 132.68 315.471 135.635 312.58 138.163C309.337 141.329 307.914 144.571 306.183 150.725C305.199 154.256 304.188 157.782 303.432 161.371C302.677 164.952 302.203 168.788 303.234 172.369C304.244 175.878 306.657 178.067 310.02 179.271L334.798 182.449Z" fill="#645D5C"/>
<path d="M347.385 165.281C347.212 164.787 346.747 163.908 345.302 163.557C344.567 163.369 343.787 163.47 343.124 163.839C342.811 163.885 342.495 163.909 342.178 163.91C341.667 163.923 340.916 163.973 340.154 163.929L339.953 163.467C337.478 157.858 331.869 151.082 328.21 147.991C326.418 149.68 324.535 151.268 322.568 152.749C320.647 154.127 318.597 155.315 316.447 156.296C314.848 157.026 313.198 157.639 311.51 158.129C309.811 158.587 308.076 158.895 306.324 159.051C306.471 162.123 306.468 165.193 306.529 168.015C306.593 170.967 307.031 173.778 308.097 176.19C308.715 177.622 309.603 178.922 310.712 180.018C312.653 182 315.097 183.415 317.781 184.112V186.41C317.803 187.751 316.366 188.505 315.233 188.894C315.264 190.412 315.445 193.157 315.71 196.459C318.569 197.373 321.573 197.74 324.567 197.541C327.593 197.523 330.589 196.928 333.393 195.788C334.556 193.057 335.647 190.44 336.625 188.047C335.895 187.614 335.303 186.983 334.917 186.227C334.643 185.537 334.457 184.815 334.361 184.079C334.224 183.139 334.146 182.191 334.128 181.242V180.681L335.563 179.587C336.676 178.612 337.699 177.541 338.621 176.384C338.621 176.384 339.521 175.23 339.918 174.56C339.918 174.56 340.022 174.384 340.186 174.11C341.233 174.284 342.309 174.159 343.288 173.751C344.658 173.033 345.783 171.923 346.518 170.562C347.369 169.173 347.906 166.761 347.385 165.281Z" fill="white"/>
<path d="M296.307 200.213C297.42 198.406 298.822 196.793 300.457 195.439C302.835 193.503 305.762 192.32 308.622 191.253C310.349 190.567 313.619 189.606 315.236 188.892C315.352 194.585 317.578 217.504 318.46 222.552H320.937C326.221 212.581 332.466 198.228 336.667 187.958C344.772 191.691 354.701 194.484 359.098 203.043C361.755 208.215 361.957 215.071 361.836 220.959C361.697 227.696 361.152 234.42 360.203 241.092H277.524C276.211 234.493 274.521 227.976 272.463 221.57L287.509 216.919C287.634 216.84 287.776 216.794 287.924 216.786C288.072 216.777 288.219 216.806 288.352 216.871C288.485 216.935 288.6 217.032 288.685 217.153C288.77 217.274 288.823 217.415 288.838 217.562L290.64 222.512C291.389 217.092 291.809 211.519 293.516 206.284C294.195 204.154 295.133 202.115 296.307 200.213Z" fill="#95D9FF"/>
<path d="M316.816 186.408C316.816 186.537 316.789 186.664 316.737 186.781C316.685 186.898 316.609 187.003 316.515 187.09C316.245 187.345 315.937 187.553 315.6 187.707C314.918 188.023 314.219 188.3 313.504 188.534C311.798 189.146 310.052 189.656 308.364 190.32C308.121 190.394 307.915 190.559 307.79 190.78C307.664 191.002 307.628 191.263 307.689 191.51C307.758 191.756 307.923 191.965 308.145 192.091C308.368 192.218 308.631 192.251 308.878 192.185C310.758 191.446 312.707 190.9 314.598 190.186C314.805 190.108 315.013 190.026 315.219 189.942C315.475 189.837 315.6 189.785 315.755 189.73C316.226 189.568 316.676 189.351 317.097 189.085C317.576 188.815 317.979 188.428 318.268 187.96C318.557 187.492 318.723 186.958 318.749 186.409C318.769 185.164 316.835 185.163 316.815 186.409L316.816 186.408Z" fill="#119EED"/>
<path d="M318.158 220.546C317.452 215.313 316.345 204.309 315.714 196.461L315.811 196.492C318.639 197.384 321.61 197.739 324.57 197.539C327.596 197.522 330.593 196.926 333.396 195.784C329.576 204.746 324.974 214.929 320.935 222.553H318.458C318.371 222.049 318.269 221.369 318.158 220.546Z" fill="white"/>
<path d="M315.562 197.426C318.573 198.373 321.62 198.593 324.756 198.505C327.801 198.449 330.811 197.846 333.642 196.724C333.885 196.649 334.09 196.484 334.216 196.263C334.342 196.042 334.378 195.781 334.318 195.534C334.248 195.288 334.084 195.079 333.861 194.953C333.639 194.826 333.376 194.792 333.128 194.858C330.463 195.929 327.627 196.509 324.756 196.571C323.308 196.64 321.857 196.612 320.413 196.485C318.941 196.321 317.487 196.011 316.076 195.559C314.886 195.185 314.376 197.05 315.562 197.424V197.426Z" fill="#726A69"/>
<path d="M335.622 187.97C331.89 197.077 327.965 206.117 323.676 214.975C322.522 217.357 321.339 219.724 320.1 222.063L320.935 221.584H318.458L319.391 222.294C319.278 221.644 319.186 220.99 319.097 220.336C319.079 220.197 319.121 220.517 319.102 220.376C319.095 220.326 319.089 220.277 319.083 220.227C319.069 220.124 319.055 220.022 319.042 219.92C319.013 219.69 318.983 219.461 318.954 219.231C318.891 218.727 318.83 218.222 318.769 217.717C318.483 215.31 318.224 212.898 317.977 210.487C317.438 205.242 316.942 199.99 316.545 194.73C316.398 192.787 316.243 190.84 316.202 188.892C316.175 187.649 314.241 187.643 314.268 188.892C314.356 193.051 314.791 197.218 315.164 201.359C315.634 206.608 316.15 211.856 316.762 217.092C316.984 219 317.197 220.916 317.527 222.809C317.584 223.012 317.706 223.191 317.874 223.32C318.041 223.448 318.247 223.518 318.458 223.519H320.935C321.104 223.519 321.27 223.475 321.417 223.392C321.563 223.308 321.686 223.186 321.77 223.04C326.447 214.206 330.504 205.035 334.414 195.842C335.454 193.397 336.479 190.945 337.487 188.485C337.554 188.238 337.52 187.974 337.394 187.751C337.268 187.528 337.059 187.365 336.812 187.295C336.564 187.233 336.303 187.269 336.081 187.395C335.86 187.52 335.695 187.726 335.622 187.97Z" fill="#119EED"/>
<path d="M308.637 193.544C308.258 194.035 307.888 194.532 307.532 195.041C307.156 195.578 306.62 196.177 306.594 196.863C306.572 197.43 306.91 197.839 307.219 198.271C307.533 198.709 307.846 199.149 308.158 199.589C308.304 199.793 308.449 199.997 308.595 200.2C308.662 200.292 308.873 200.705 308.978 200.729L309.012 200.776C308.985 200.696 308.983 200.612 309.004 200.531C309.026 200.45 309.07 200.378 309.133 200.322C309.133 200.322 309.114 200.347 309.11 200.349C309.064 200.374 309.016 200.456 308.981 200.497L307.853 201.79L306.687 203.13C306.44 203.357 306.256 203.645 306.151 203.963C306.047 204.282 306.026 204.622 306.09 204.952C306.457 206.743 306.928 208.52 307.344 210.3C307.919 212.75 308.493 215.199 309.066 217.649C309.348 218.86 311.216 218.347 310.931 217.135C310.001 213.159 309.069 209.183 308.137 205.209L308.024 204.732C307.887 204.147 308.071 204.717 307.813 204.775C307.879 204.76 308.014 204.544 308.055 204.498L309.19 203.195C309.925 202.349 311.409 201.16 310.749 199.914C310.484 199.483 310.192 199.069 309.874 198.676C309.546 198.216 309.218 197.755 308.89 197.294C308.823 197.201 308.757 197.108 308.689 197.015L308.576 196.859C308.467 196.664 308.435 196.742 308.482 197.094C308.495 197.1 308.936 196.403 308.991 196.323C309.41 195.709 309.852 195.109 310.307 194.52C310.435 194.298 310.47 194.035 310.405 193.787C310.34 193.539 310.18 193.328 309.96 193.197C309.737 193.074 309.475 193.041 309.229 193.106C308.982 193.171 308.77 193.328 308.637 193.544Z" fill="#119EED"/>
<path d="M340.35 193.786C340.903 194.689 341.373 195.641 341.754 196.629C341.939 197.119 342.103 197.615 342.238 198.12C342.275 198.227 342.303 198.336 342.322 198.447C342.322 198.444 341.683 198.748 342.345 198.326C342.22 198.39 342.089 198.444 341.955 198.487C341.464 198.671 340.973 198.852 340.484 199.042C339.975 199.239 339.317 199.405 338.929 199.808C338.753 199.995 338.626 200.223 338.561 200.472C338.495 200.721 338.493 200.982 338.553 201.231C338.694 201.772 339.146 202.163 339.499 202.575C339.83 202.965 340.157 203.357 340.487 203.747C340.659 203.95 340.831 204.152 341.005 204.352C341.079 204.437 341.154 204.523 341.229 204.608L341.339 204.732C341.512 204.977 341.546 204.869 341.441 204.407C341.312 204.394 340.687 205.489 340.585 205.636C340.253 206.117 339.922 206.6 339.593 207.084C338.361 208.898 337.153 210.728 335.943 212.557C334.526 214.699 333.103 216.838 331.644 218.952C331.516 219.174 331.482 219.437 331.547 219.684C331.611 219.932 331.771 220.144 331.991 220.275C332.214 220.4 332.476 220.433 332.722 220.368C332.969 220.303 333.181 220.146 333.314 219.928C335.966 216.084 338.489 212.154 341.109 208.289C341.761 207.327 342.535 206.391 343.111 205.384C343.77 204.232 342.714 203.389 342.029 202.584C341.678 202.172 341.332 201.756 340.981 201.343C340.894 201.239 340.542 200.708 340.412 200.682L340.396 200.668C340.284 200.553 340.279 200.688 340.381 201.073C340.196 201.214 340.174 201.25 340.315 201.179C340.4 201.145 340.484 201.111 340.568 201.077C341.085 200.869 341.606 200.674 342.128 200.481C342.672 200.28 343.296 200.13 343.717 199.705C344.644 198.766 344.09 197.42 343.71 196.363C343.263 195.126 342.696 193.935 342.017 192.809C341.375 191.744 339.702 192.715 340.347 193.785L340.35 193.786Z" fill="#119EED"/>
<path d="M324.726 165.705C324.552 164.732 325.008 162.596 326.806 162.632C329.154 162.935 328.957 165.56 328.015 166.689C327.244 167.614 325.289 167.797 324.726 165.705Z" fill="#726A69"/>
<path d="M310.725 164.428C310.573 163.453 311.006 161.309 312.655 161.329C314.805 161.615 314.604 164.248 313.732 165.387C313.019 166.321 311.224 166.52 310.725 164.428Z" fill="#726A69"/>
<path d="M317.733 167.318C317.385 167.802 317.048 168.295 316.744 168.807C316.609 169.01 316.514 169.237 316.462 169.475C316.413 169.702 316.422 169.937 316.487 170.16C316.564 170.385 316.695 170.587 316.866 170.751C317.085 170.966 317.35 171.126 317.642 171.22C317.753 171.258 317.872 171.268 317.986 171.295C318.238 171.359 318.504 171.325 318.731 171.198C318.895 171.102 319.028 170.96 319.112 170.789C319.196 170.618 319.227 170.426 319.203 170.237C319.178 170.049 319.099 169.871 318.974 169.728C318.849 169.584 318.684 169.48 318.5 169.43C318.365 169.408 318.232 169.376 318.101 169.334L318.332 169.432C318.26 169.4 318.192 169.359 318.13 169.311L318.326 169.462C318.26 169.406 318.197 169.346 318.143 169.279L318.294 169.474C318.278 169.456 318.266 169.435 318.256 169.414L318.353 169.644C318.34 169.612 318.332 169.579 318.327 169.545L318.362 169.802C318.36 169.778 318.36 169.754 318.362 169.731L318.327 169.988C318.336 169.925 318.353 169.864 318.376 169.805L318.279 170.036C318.438 169.712 318.626 169.402 318.839 169.112C319.024 168.836 319.211 168.563 319.404 168.294C319.469 168.183 319.511 168.059 319.527 167.931C319.544 167.803 319.535 167.673 319.501 167.549C319.432 167.306 319.274 167.1 319.058 166.971C318.946 166.906 318.823 166.864 318.695 166.847C318.567 166.83 318.437 166.84 318.313 166.873C318.075 166.951 317.872 167.107 317.735 167.316L317.733 167.318Z" fill="#726A69"/>
<path d="M339.087 174.07C338.708 174.672 338.297 175.252 337.856 175.81C338.123 175.455 337.804 175.867 337.739 175.945C337.581 176.136 337.421 176.325 337.259 176.513C336.896 176.931 336.52 177.337 336.13 177.731C335.938 177.925 335.743 178.115 335.544 178.303C335.436 178.404 335.328 178.504 335.217 178.604C335.163 178.654 335.107 178.704 335.051 178.752C334.931 178.853 334.939 178.853 335.075 178.752C335.043 178.842 334.732 178.976 334.656 179.026L333.513 179.771C333.403 179.835 333.307 179.921 333.231 180.021C333.154 180.123 333.098 180.238 333.065 180.361C333.033 180.484 333.025 180.612 333.042 180.737C333.06 180.864 333.102 180.985 333.166 181.095C333.23 181.204 333.315 181.3 333.416 181.377C333.517 181.453 333.633 181.51 333.755 181.542C333.878 181.574 334.006 181.582 334.132 181.565C334.258 181.548 334.379 181.506 334.489 181.441L335.677 180.667C336.338 180.211 336.949 179.686 337.498 179.1C338.739 177.882 339.833 176.522 340.756 175.048C340.82 174.938 340.862 174.817 340.879 174.691C340.897 174.565 340.889 174.437 340.857 174.314C340.825 174.191 340.768 174.076 340.692 173.975C340.615 173.873 340.519 173.789 340.409 173.725C340.3 173.66 340.178 173.618 340.052 173.601C339.926 173.584 339.799 173.592 339.676 173.624C339.553 173.656 339.437 173.712 339.336 173.789C339.235 173.866 339.149 173.962 339.085 174.071L339.087 174.07Z" fill="#726A69"/>
<path d="M329.415 182.134C326.892 183.101 324.213 183.603 321.511 183.617C319.107 183.609 316.745 182.991 314.645 181.821C312.548 180.671 310.792 178.987 309.556 176.939C308.327 174.787 307.783 172.292 307.589 169.842C307.31 166.379 307.458 162.878 307.31 159.405C307.258 158.164 305.323 158.158 305.376 159.405C305.516 162.687 305.417 165.985 305.614 169.263C305.78 172.015 306.299 174.773 307.535 177.256C309.927 182.056 315.149 185.093 320.396 185.499C323.652 185.751 326.873 185.087 329.929 183.997C330.173 183.923 330.379 183.759 330.505 183.537C330.631 183.315 330.667 183.054 330.605 182.807C330.534 182.561 330.371 182.352 330.148 182.226C329.925 182.1 329.662 182.066 329.415 182.132V182.134Z" fill="#726A69"/>
<path d="M343.615 164.673C343.87 164.54 344.151 164.461 344.438 164.441C344.726 164.421 345.014 164.459 345.286 164.555C345.521 164.624 345.743 164.731 345.942 164.873C346.013 164.925 346.078 164.984 346.139 165.048C346.185 165.092 346.227 165.14 346.264 165.192C346.311 165.263 346.354 165.337 346.396 165.412C346.416 165.446 346.507 165.659 346.457 165.533C346.406 165.406 346.497 165.673 346.51 165.714C346.553 165.856 346.585 166.003 346.605 166.15C346.658 166.667 346.635 167.189 346.536 167.699C346.149 169.824 344.783 172.055 342.74 172.946C342.918 172.867 342.654 172.968 342.594 172.986C342.454 173.03 342.312 173.066 342.169 173.1C341.918 173.158 341.662 173.195 341.404 173.211C340.811 173.279 340.21 173.171 339.679 172.899C338.598 172.278 337.624 173.946 338.703 174.569C340.007 175.319 341.7 175.295 343.107 174.851C344.598 174.379 345.807 173.254 346.716 172.019C347.591 170.855 348.177 169.499 348.425 168.065C348.64 166.75 348.673 165.231 347.852 164.103C347.253 163.334 346.4 162.803 345.447 162.601C344.493 162.4 343.498 162.542 342.639 163.003C341.545 163.599 342.521 165.27 343.615 164.673H343.615Z" fill="#726A69"/>
<path d="M317.406 176.33C318.789 177.081 320.386 177.336 321.935 177.055C322.46 176.92 322.972 176.739 323.466 176.515C323.71 176.441 323.917 176.277 324.043 176.055C324.169 175.834 324.204 175.572 324.142 175.325C324.071 175.079 323.907 174.871 323.685 174.744C323.462 174.618 323.199 174.584 322.952 174.649C322.5 174.851 322.033 175.023 321.558 175.162C321.511 175.172 321.307 175.18 321.28 175.214C321.302 175.187 321.472 175.194 321.32 175.207C321.258 175.213 321.197 175.219 321.134 175.223C320.915 175.237 320.695 175.239 320.476 175.229C320.37 175.225 320.265 175.217 320.159 175.207C320.107 175.202 320.054 175.195 320.001 175.19C320.082 175.197 320.133 175.211 320.022 175.193C319.802 175.157 319.584 175.114 319.369 175.058C319.164 175.004 318.962 174.939 318.764 174.863C318.643 174.817 318.743 174.874 318.798 174.877C318.743 174.861 318.69 174.837 318.643 174.803C318.555 174.758 318.47 174.71 318.385 174.658C318.164 174.528 317.9 174.492 317.651 174.557C317.404 174.622 317.191 174.783 317.062 175.005C316.933 175.227 316.896 175.49 316.961 175.738C317.026 175.987 317.188 176.198 317.409 176.328L317.406 176.33Z" fill="#726A69"/>
<path d="M340.873 174.19C340.638 174.174 340.401 174.206 340.178 174.284C339.955 174.361 339.749 174.482 339.574 174.64C339.399 174.799 339.257 174.991 339.157 175.205C339.057 175.419 339.001 175.651 338.993 175.887C338.993 176.911 339.778 177.616 340.873 177.616C342.011 177.616 342.753 176.904 342.753 175.887C342.745 175.651 342.689 175.418 342.59 175.205C342.49 174.99 342.348 174.799 342.173 174.64C341.997 174.482 341.792 174.36 341.569 174.283C341.345 174.205 341.109 174.174 340.873 174.19Z" fill="white"/>
<path d="M340.873 173.223C340.284 173.213 339.705 173.387 339.218 173.72C338.731 174.054 338.36 174.53 338.156 175.084C337.981 175.628 337.986 176.213 338.17 176.753C338.353 177.293 338.705 177.76 339.175 178.085C339.646 178.387 340.189 178.56 340.75 178.584C341.309 178.609 341.865 178.485 342.361 178.224C342.853 177.949 343.244 177.523 343.478 177.011C343.713 176.498 343.778 175.924 343.666 175.372C343.439 174.05 342.143 173.236 340.873 173.223C340.617 173.223 340.371 173.324 340.189 173.506C340.008 173.687 339.906 173.933 339.906 174.19C339.906 174.446 340.008 174.692 340.189 174.874C340.371 175.055 340.617 175.157 340.873 175.157C340.93 175.157 340.986 175.162 341.043 175.163C341.201 175.165 340.967 175.152 340.949 175.146C341.03 175.173 341.123 175.177 341.207 175.202C341.257 175.216 341.305 175.234 341.354 175.249C341.504 175.296 341.265 175.209 341.262 175.209C341.356 175.24 341.442 175.288 341.518 175.351C341.545 175.37 341.679 175.468 341.536 175.36C341.392 175.252 341.52 175.353 341.545 175.377C341.602 175.429 341.649 175.493 341.704 175.546C341.526 175.377 341.603 175.403 341.649 175.48C341.667 175.513 341.689 175.544 341.709 175.578C341.729 175.612 341.742 175.648 341.762 175.68C341.796 175.733 341.672 175.429 341.741 175.639C341.754 175.68 341.817 175.833 341.797 175.863C341.792 175.871 341.774 175.586 341.78 175.745C341.78 175.792 341.786 175.839 341.786 175.886C341.786 175.992 341.722 176.237 341.8 175.92C341.78 176 341.77 176.087 341.744 176.169C341.734 176.205 341.716 176.24 341.708 176.276C341.76 176.043 341.788 176.105 341.744 176.189C341.708 176.253 341.671 176.316 341.633 176.378C341.584 176.459 341.516 176.464 341.692 176.305C341.672 176.324 341.652 176.35 341.634 176.37C341.604 176.403 341.573 176.434 341.541 176.463C341.464 176.532 341.388 176.537 341.598 176.423C341.532 176.458 341.472 176.507 341.406 176.544C341.367 176.57 341.325 176.591 341.281 176.605C341.281 176.605 341.527 176.517 341.379 176.56C341.298 176.583 341.223 176.609 341.142 176.627C341.094 176.642 341.043 176.652 340.992 176.656L341.145 176.634C341.11 176.638 341.074 176.641 341.039 176.644C340.947 176.649 340.856 176.65 340.765 176.646C340.73 176.646 340.694 176.641 340.659 176.639C340.461 176.63 340.901 176.686 340.71 176.646C340.63 176.629 340.549 176.612 340.469 176.587C340.437 176.578 340.407 176.567 340.376 176.557C340.218 176.509 340.61 176.673 340.388 176.559C340.32 176.525 340.256 176.482 340.189 176.441C340.124 176.4 340.113 176.34 340.276 176.511C340.245 176.478 340.207 176.451 340.175 176.42C340.143 176.389 339.988 176.204 340.101 176.351C340.214 176.499 340.117 176.369 340.098 176.34C340.073 176.302 340.05 176.263 340.029 176.223C339.984 176.14 339.979 176.031 340.049 176.289C340.041 176.26 340.027 176.231 340.018 176.203C339.992 176.127 339.977 176.051 339.958 175.974C339.915 175.792 339.973 176.228 339.968 176.038C339.968 176.004 339.963 175.971 339.962 175.938C339.962 175.889 339.962 175.841 339.962 175.792C339.969 175.679 340.024 175.64 339.95 175.865C339.978 175.779 339.994 175.686 340.02 175.598C340.064 175.451 339.975 175.71 339.974 175.703C339.97 175.665 340.041 175.573 340.06 175.541C340.08 175.51 340.094 175.491 340.11 175.464C340.198 175.32 339.938 175.647 340.086 175.497C340.144 175.437 340.218 175.381 340.27 175.317C340.131 175.487 340.133 175.417 340.227 175.353C340.267 175.326 340.308 175.301 340.351 175.277C340.386 175.258 340.426 175.242 340.46 175.221C340.528 175.189 340.489 175.205 340.344 175.268C340.375 175.256 340.407 175.244 340.439 175.233C340.539 175.202 340.64 175.175 340.743 175.155C340.842 175.135 340.807 175.195 340.648 175.168C340.723 175.17 340.798 175.167 340.873 175.157C341 175.157 341.126 175.132 341.243 175.083C341.36 175.035 341.467 174.964 341.557 174.874C341.646 174.784 341.718 174.677 341.766 174.56C341.815 174.443 341.84 174.317 341.84 174.19C341.84 174.063 341.815 173.937 341.766 173.82C341.718 173.703 341.646 173.596 341.557 173.506C341.467 173.416 341.36 173.345 341.243 173.297C341.126 173.248 341 173.223 340.873 173.223Z" fill="#726A69"/>
<path d="M333.163 181.24C333.179 182.627 333.335 184.01 333.629 185.366C333.768 186.068 334.045 186.733 334.445 187.326C334.922 187.937 335.498 188.464 336.149 188.885C336.37 189.015 336.634 189.051 336.883 188.986C337.13 188.921 337.343 188.76 337.472 188.538C337.601 188.316 337.638 188.053 337.573 187.805C337.508 187.556 337.347 187.345 337.125 187.215C336.904 187.069 336.694 186.907 336.499 186.729C336.393 186.633 336.291 186.532 336.194 186.427C336.147 186.376 336.102 186.325 336.058 186.272C336.121 186.347 336.048 186.259 336.028 186.232C335.729 185.735 335.529 185.185 335.439 184.613C335.37 184.298 335.318 183.98 335.274 183.661C335.25 183.485 335.288 183.778 335.268 183.61C335.26 183.545 335.252 183.479 335.244 183.413C335.229 183.284 335.216 183.156 335.204 183.027C335.146 182.434 335.119 181.838 335.099 181.242C335.099 180.986 334.996 180.74 334.815 180.558C334.634 180.376 334.388 180.275 334.131 180.275C333.874 180.275 333.629 180.376 333.448 180.558C333.266 180.74 333.164 180.986 333.164 181.242L333.163 181.24Z" fill="#726A69"/>
<path d="M325.142 240.277C326.796 237.196 328.116 233.947 329.078 230.586C329.114 230.447 329.102 230.301 329.045 230.17C328.989 230.039 328.89 229.93 328.765 229.86C327.871 229.359 326.462 228.425 326.151 227.799C324.904 225.285 323.225 224.387 320.953 222.686C319.834 221.855 318.672 221.084 317.471 220.377C316.714 219.916 315.39 218.903 314.479 218.825C313.569 218.748 313.081 218.774 312.564 219.535C312.395 219.745 312.284 219.995 312.241 220.261C312.198 220.528 312.224 220.8 312.318 221.053C312.634 221.659 313.051 222.208 313.552 222.673C314.084 223.223 314.731 223.809 315.29 224.402C313.251 224.197 311.203 224.095 309.154 224.096C308.612 224.072 308.074 224.208 307.608 224.487C307.228 224.756 306.923 225.118 306.722 225.538C306.605 225.805 306.546 226.092 306.546 226.383C306.546 226.673 306.605 226.96 306.722 227.227C307.026 227.891 307.484 228.472 308.058 228.924C307.572 230.387 307.212 231.128 307.693 232.615C308.237 234.295 308.545 236.399 309.638 237.952C309.944 238.416 310.34 238.813 310.802 239.121C311.242 239.356 311.717 239.519 312.208 239.605C315.075 240.023 318.99 239.843 321.705 240.157C322.525 240.366 323.323 240.652 324.09 241.01C324.239 241.071 324.405 241.074 324.556 241.02C324.707 240.965 324.832 240.857 324.908 240.716C324.987 240.569 325.065 240.422 325.142 240.277Z" fill="white"/>
<path d="M346.74 215.508C346.999 214.115 347.222 212.905 347.377 212.039C347.427 211.757 347.368 211.466 347.213 211.225C347.059 210.985 346.818 210.811 346.541 210.74C340.532 209.202 324.941 205.769 319.77 204.604C319.477 204.54 319.169 204.593 318.916 204.754C318.662 204.915 318.481 205.17 318.415 205.463L315.452 218.721L315.375 219.103C316.096 219.489 316.796 219.914 317.471 220.376C318.672 221.084 319.835 221.855 320.953 222.686C323.226 224.386 324.905 225.285 326.152 227.799C326.462 228.424 327.871 229.358 328.765 229.86L329.515 229.138C331.334 229.736 342.934 231.695 343.799 231.565L343.885 231.033L344.212 229.015C344.792 225.877 345.943 219.813 346.74 215.508Z" fill="white"/>
<path d="M316.444 224.242C315.713 223.374 314.849 222.633 314.069 221.811C313.556 221.27 312.729 220.427 313.586 219.82C313.596 219.813 313.762 219.761 313.694 219.771C313.906 219.747 314.121 219.751 314.332 219.779C314.694 219.849 315.038 219.984 315.351 220.178C316.174 220.64 316.956 221.188 317.758 221.686C319.336 222.666 320.832 223.766 322.321 224.874C322.991 225.356 323.608 225.907 324.163 226.517C324.764 227.199 325.072 228.067 325.652 228.749C326.288 229.421 327.024 229.99 327.836 230.434C327.921 230.486 328.191 230.716 328.279 230.694C328.06 230.748 328.231 230.026 328.088 230.545C328.055 230.666 328.02 230.788 327.986 230.91C327.839 231.418 327.682 231.922 327.512 232.422C326.779 234.557 325.902 236.641 324.885 238.656C324.807 238.814 324.177 240.243 324.076 240.228L324.237 240.107C324.365 240.098 324.386 240.081 324.297 240.057C324.272 240.012 324.066 239.96 324.02 239.941C323.807 239.852 323.594 239.764 323.38 239.678C322.546 239.348 321.664 239.155 320.769 239.103C318.648 238.946 316.52 238.978 314.398 238.849C313.403 238.789 312.176 238.819 311.292 238.285C310.392 237.742 309.892 236.559 309.568 235.611C309.204 234.541 308.958 233.435 308.628 232.355C308.458 231.882 308.404 231.374 308.473 230.876C308.604 230.298 308.778 229.73 308.993 229.177C309.042 229.013 309.045 228.838 309.001 228.673C308.957 228.506 308.868 228.356 308.745 228.236C308.221 227.83 307.502 227.105 307.516 226.386C307.532 226.066 307.659 225.762 307.875 225.525C308.091 225.288 308.382 225.134 308.699 225.089C309.642 225.003 310.59 225.008 311.531 225.105C312.587 225.145 313.641 225.212 314.694 225.306C314.95 225.304 315.195 225.202 315.375 225.021C315.556 224.84 315.659 224.595 315.661 224.339C315.655 224.084 315.552 223.841 315.372 223.661C315.191 223.481 314.948 223.377 314.694 223.372C313.377 223.257 312.06 223.181 310.74 223.146C309.584 223.117 308.205 222.957 307.179 223.611C306.665 223.925 306.246 224.374 305.968 224.908C305.688 225.442 305.56 226.042 305.596 226.643C305.779 227.826 306.418 228.888 307.377 229.604L307.128 228.663C306.736 229.836 306.368 230.929 306.589 232.18C306.69 232.759 306.907 233.323 307.061 233.89C307.215 234.457 307.36 235.024 307.53 235.585C307.854 236.778 308.402 237.899 309.144 238.887C309.56 239.386 310.071 239.796 310.648 240.093C311.226 240.389 311.857 240.566 312.505 240.613C314.91 240.918 317.344 240.862 319.762 240.976C320.703 240.963 321.639 241.11 322.532 241.412C322.967 241.576 323.392 241.797 323.835 241.942C324.167 242.047 324.524 242.043 324.854 241.932C325.183 241.819 325.468 241.604 325.667 241.319C326.036 240.721 326.362 240.099 326.642 239.456C326.95 238.831 327.248 238.201 327.534 237.566C328.081 236.354 328.592 235.124 329.047 233.875C329.253 233.311 329.446 232.742 329.626 232.168C329.85 231.613 329.999 231.032 330.069 230.439C330.107 229.155 328.579 228.685 327.732 228.036C327.459 227.842 327.216 227.609 327.012 227.343C326.743 226.84 326.445 226.352 326.122 225.881C325.499 225.055 324.765 224.317 323.941 223.689C322.249 222.356 320.486 221.115 318.66 219.971C317.613 219.323 316.597 218.548 315.449 218.088C314.418 217.675 313.019 217.667 312.181 218.485C311.64 218.999 311.309 219.695 311.249 220.439C311.271 221.188 311.562 221.905 312.071 222.456C312.971 223.6 314.137 224.498 315.074 225.61C315.257 225.789 315.502 225.889 315.758 225.889C316.014 225.889 316.259 225.789 316.442 225.61C316.618 225.426 316.717 225.181 316.717 224.926C316.717 224.671 316.618 224.426 316.442 224.242H316.444Z" fill="#726A69"/>
<path d="M316.384 218.976L318.34 210.227L319.284 205.998C319.298 205.905 319.319 205.813 319.346 205.724C319.459 205.441 319.661 205.571 319.923 205.63C320.816 205.83 321.71 206.03 322.604 206.229C327.756 207.379 332.91 208.526 338.055 209.711C340.37 210.243 342.686 210.78 344.993 211.349C345.434 211.405 345.867 211.513 346.283 211.671C346.425 211.752 346.41 211.744 346.424 211.902C346.415 211.808 346.396 212.036 346.386 212.095L346.324 212.437C346.12 213.561 345.913 214.684 345.702 215.807C344.803 220.643 343.811 225.465 343.025 230.32L342.864 231.305L343.797 230.595C343.274 230.614 342.753 230.569 342.242 230.461C342.17 230.452 341.904 230.416 342.121 230.446C342 230.429 341.877 230.413 341.755 230.395C341.505 230.36 341.255 230.324 341.006 230.286C340.444 230.204 339.883 230.117 339.323 230.027C336.927 229.645 334.533 229.232 332.153 228.754C331.349 228.615 330.554 228.432 329.77 228.203C328.583 227.82 328.074 229.687 329.255 230.068C330.994 230.629 332.877 230.869 334.669 231.191C337 231.608 339.338 232.004 341.685 232.321C342.377 232.478 343.087 232.547 343.797 232.529C344.007 232.525 344.211 232.454 344.378 232.326C344.545 232.199 344.668 232.021 344.729 231.819C345.495 227.089 346.433 222.389 347.314 217.677C347.552 216.404 347.787 215.131 348.022 213.858C348.258 212.572 348.75 211.064 347.486 210.143C346.985 209.85 346.434 209.656 345.861 209.57C345.362 209.446 344.861 209.324 344.361 209.203C343.178 208.918 341.993 208.637 340.806 208.362C335.371 207.096 329.925 205.882 324.478 204.666C323.442 204.435 322.405 204.204 321.369 203.972C320.966 203.882 320.563 203.787 320.16 203.701C319.738 203.58 319.289 203.591 318.873 203.731C318.457 203.87 318.093 204.133 317.828 204.483C317.57 204.898 317.403 205.362 317.339 205.845L316.877 207.913L314.573 218.227L314.52 218.461C314.249 219.673 316.114 220.192 316.385 218.976L316.384 218.976Z" fill="#726A69"/>
<path d="M340.632 190.734C346.81 193.35 353.663 196.162 357.421 202.063C359.435 205.229 360.284 208.966 360.641 212.662C361.035 216.734 360.92 220.853 360.739 224.934C360.511 230.078 360.046 235.204 359.344 240.314C359.284 240.561 359.321 240.821 359.446 241.042C359.572 241.263 359.777 241.428 360.019 241.503C360.266 241.57 360.53 241.536 360.752 241.41C360.975 241.283 361.139 241.074 361.209 240.828C361.862 236.113 362.331 231.376 362.59 226.623C362.889 222.344 362.916 218.051 362.671 213.768C362.382 209.823 361.675 205.8 359.79 202.279C358.07 199.068 355.429 196.497 352.428 194.476C349.072 192.216 345.32 190.635 341.61 189.063C341.386 188.942 341.125 188.911 340.879 188.975C340.633 189.04 340.422 189.195 340.286 189.41C340.158 189.632 340.123 189.895 340.188 190.143C340.253 190.391 340.413 190.603 340.633 190.733L340.632 190.734Z" fill="#119EED"/>
<path d="M296.61 219.626C296.93 226.553 297.195 233.482 297.403 240.414C297.441 241.655 299.375 241.66 299.337 240.414C299.129 233.482 298.865 226.553 298.544 219.626C298.486 218.386 296.552 218.379 296.61 219.626Z" fill="#119EED"/>
<path d="M292.052 219.086C292.643 214.354 293.257 209.559 294.968 205.076C296.419 201.277 298.771 197.638 302.2 195.35C304.26 193.975 306.568 193.049 308.877 192.185C309.121 192.111 309.326 191.946 309.452 191.725C309.578 191.503 309.614 191.242 309.553 190.995C309.483 190.749 309.319 190.54 309.096 190.414C308.873 190.287 308.61 190.254 308.363 190.32C306.142 191.086 303.998 192.055 301.955 193.215C300.007 194.396 298.291 195.922 296.89 197.719C293.989 201.427 292.369 205.905 291.423 210.475C290.834 213.32 290.477 216.206 290.118 219.086C290.119 219.343 290.222 219.588 290.403 219.769C290.584 219.95 290.829 220.052 291.085 220.053C291.34 220.047 291.582 219.943 291.763 219.763C291.942 219.583 292.046 219.341 292.052 219.086Z" fill="#119EED"/>
<path d="M294.373 229.936L289.982 217.871C289.639 216.928 289.289 215.896 288.109 215.846C287.653 215.867 287.203 215.965 286.779 216.135L285.16 216.635L279.066 218.519L272.209 220.638C271.965 220.711 271.758 220.875 271.631 221.097C271.506 221.319 271.47 221.581 271.534 221.828C273.167 228.349 274.875 234.851 276.594 241.349C276.912 242.551 278.778 242.041 278.459 240.835C276.74 234.336 275.034 227.834 273.399 221.314L272.721 222.503L283.959 219.03L286.816 218.147C287.242 218.058 287.66 217.933 288.065 217.773C288.054 217.823 287.841 217.661 287.837 217.664C287.834 217.667 287.904 217.795 287.906 217.803C287.986 218.064 288.079 218.321 288.184 218.573L290.208 224.134L292.505 230.449C292.579 230.693 292.744 230.899 292.965 231.025C293.186 231.151 293.448 231.187 293.695 231.125C293.941 231.055 294.15 230.891 294.276 230.669C294.403 230.446 294.437 230.183 294.371 229.936L294.373 229.936Z" fill="#119EED"/>
<path d="M258.587 204.002C259.238 203.839 259.917 203.829 260.573 203.971C260.968 204.099 261.353 204.219 261.692 204.328C261.718 204.158 261.737 204.026 261.737 204.026C261.754 203.802 261.823 203.586 261.938 203.393C262.052 203.2 262.209 203.035 262.397 202.912C263.08 202.393 264.107 202.656 264.661 202.81C266.63 203.355 274.634 206.411 277.278 208.031C278.188 208.589 279.83 208.633 281.419 207.628C281.548 206.528 281.741 205.436 281.994 204.358C282.066 203.906 282.251 203.478 282.531 203.115C282.812 202.753 283.179 202.467 283.599 202.283C283.888 202.181 284.196 202.145 284.5 202.178C284.804 202.211 285.098 202.312 285.358 202.473C285.86 202.798 286.139 203.62 286.279 204.201C287.221 208.113 287.565 208.461 287.934 212.24L287.966 212.566L287.695 215.134C287.461 217.288 286.49 219.294 284.946 220.813C283.412 222.313 281.355 223.536 277.809 223.5C274.124 222.855 270.67 220.887 268.749 219.74C267.341 218.901 266.088 218.013 264.055 216.559C263.044 215.836 259.641 213.102 259.361 212.815C258.885 212.328 258.41 211.408 258.737 210.595C258.483 210.412 258.241 210.212 258.014 209.996C257.755 209.713 257.571 209.369 257.479 208.996C257.388 208.624 257.392 208.234 257.491 207.863C257.51 207.814 257.531 207.767 257.553 207.721C257.078 206.916 256.726 206.414 257.163 205.256C257.28 204.947 257.471 204.671 257.72 204.453C257.968 204.234 258.266 204.08 258.587 204.002Z" fill="white"/>
<path d="M282.354 207.867C282.484 206.967 282.611 206.072 282.803 205.183C282.981 204.36 283.27 203.021 284.396 203.134C284.888 203.182 285.054 203.528 285.202 203.957C285.407 204.628 285.576 205.31 285.706 205.999C286.02 207.382 286.313 208.769 286.554 210.166C286.757 211.162 286.876 212.173 286.911 213.188C286.893 213.916 286.822 214.641 286.698 215.358C286.521 216.48 286.125 217.556 285.532 218.525C284.938 219.494 284.16 220.336 283.241 221.003C282.44 221.573 281.541 221.99 280.59 222.233C280.023 222.377 279.444 222.469 278.861 222.506C278.124 222.55 277.384 222.468 276.675 222.264C274.265 221.576 271.96 220.564 269.824 219.255C266.502 217.266 263.359 214.995 260.429 212.465C260.003 212.108 259.19 211.218 259.754 210.762C260.26 210.354 261.736 211.217 262.365 211.549C264.882 212.891 267.286 214.436 269.552 216.168C269.774 216.297 270.037 216.332 270.285 216.267C270.533 216.202 270.745 216.042 270.875 215.822C270.999 215.599 271.031 215.337 270.967 215.09C270.902 214.844 270.745 214.632 270.529 214.498C268.278 212.779 265.893 211.245 263.395 209.908C262.347 209.352 261.121 208.666 259.899 208.753C259.53 208.785 259.174 208.899 258.855 209.087C258.537 209.276 258.265 209.534 258.061 209.843C257.856 210.151 257.724 210.501 257.675 210.868C257.625 211.235 257.659 211.608 257.774 211.96C258.042 212.908 258.677 213.52 259.403 214.118C260.187 214.762 260.98 215.399 261.78 216.027C263.646 217.51 265.589 218.893 267.601 220.172C269.905 221.667 272.381 222.877 274.976 223.776C275.733 224.028 276.506 224.231 277.288 224.384C278.079 224.501 278.883 224.492 279.671 224.358C280.981 224.208 282.249 223.808 283.41 223.182C285.793 221.83 287.555 219.601 288.319 216.969C288.557 216.009 288.711 215.031 288.777 214.044C288.858 212.85 288.784 211.649 288.554 210.473C288.322 208.956 288.012 207.451 287.677 205.954C287.37 204.574 287.199 202.605 285.945 201.71C285.318 201.299 284.562 201.134 283.82 201.248C283.08 201.362 282.407 201.746 281.933 202.326C281.145 203.277 280.934 204.52 280.733 205.706C280.641 206.253 280.57 206.804 280.492 207.353C280.432 207.6 280.469 207.86 280.594 208.081C280.719 208.303 280.924 208.468 281.167 208.543C281.415 208.609 281.678 208.576 281.901 208.45C282.123 208.323 282.287 208.114 282.357 207.867H282.354Z" fill="#726A69"/>
<path d="M259.226 209.76C258.771 209.413 258.256 208.934 258.38 208.288C258.431 208.082 258.547 207.898 258.712 207.764C258.877 207.63 259.081 207.554 259.293 207.546C260.04 207.445 260.844 207.821 261.526 208.092C263.732 208.986 265.888 210 267.984 211.129C269.132 211.716 270.236 212.384 271.288 213.129C271.511 213.256 271.774 213.291 272.022 213.226C272.269 213.161 272.481 213.002 272.612 212.781C272.736 212.559 272.768 212.297 272.704 212.051C272.639 211.804 272.482 211.592 272.265 211.458C270.005 209.798 267.366 208.582 264.825 207.423C263.712 206.916 262.588 206.416 261.44 205.995C260.237 205.554 258.808 205.363 257.689 206.134C257.274 206.412 256.94 206.796 256.723 207.246C256.506 207.695 256.414 208.196 256.456 208.694C256.573 209.94 257.311 210.712 258.254 211.431C258.475 211.559 258.738 211.595 258.986 211.529C259.234 211.464 259.446 211.305 259.577 211.084C259.7 210.861 259.733 210.599 259.668 210.353C259.603 210.106 259.446 209.894 259.229 209.76H259.226Z" fill="#726A69"/>
<path d="M272.525 208.137C269.864 206.695 267.114 205.425 264.291 204.334C262.133 203.443 258.954 201.833 256.917 203.877C256.361 204.473 256.035 205.249 256 206.064C256.009 206.802 256.24 207.52 256.665 208.123C257.298 209.195 258.971 208.223 258.336 207.147C258.027 206.625 257.825 206.294 258.03 205.694C258.095 205.488 258.217 205.304 258.382 205.165C258.547 205.025 258.748 204.934 258.962 204.904C260.208 204.6 261.588 205.297 262.75 205.776C265.73 207.004 268.745 208.205 271.549 209.806C272.631 210.424 273.607 208.754 272.525 208.136V208.137Z" fill="#726A69"/>
<path d="M262.705 204.026C262.761 203.491 263.594 203.551 263.973 203.633C264.369 203.725 264.759 203.837 265.142 203.97C266.217 204.322 267.278 204.718 268.334 205.12C270.86 206.039 273.334 207.097 275.743 208.288C276.307 208.629 276.893 208.929 277.499 209.186C278.597 209.509 279.774 209.444 280.83 209C281.073 208.925 281.279 208.76 281.405 208.539C281.53 208.318 281.566 208.057 281.505 207.81C281.436 207.564 281.272 207.355 281.049 207.228C280.827 207.102 280.563 207.068 280.316 207.135C279.51 207.447 278.559 207.646 277.765 207.196C277.317 206.942 276.871 206.691 276.409 206.461C275.105 205.812 273.765 205.238 272.422 204.678C270.054 203.648 267.636 202.738 265.176 201.953C264.407 201.671 263.58 201.588 262.771 201.711C262.235 201.834 261.751 202.126 261.391 202.542C261.031 202.959 260.814 203.479 260.771 204.028C260.772 204.284 260.874 204.529 261.055 204.71C261.237 204.891 261.481 204.993 261.738 204.995C261.992 204.99 262.235 204.886 262.415 204.706C262.595 204.526 262.699 204.283 262.705 204.028V204.026Z" fill="#726A69"/>
<path d="M270.869 216.014L275.487 211.817C275.667 211.635 275.767 211.389 275.767 211.133C275.767 210.877 275.667 210.632 275.487 210.449C275.303 210.273 275.057 210.175 274.803 210.175C274.548 210.175 274.303 210.273 274.119 210.449L269.501 214.648C269.322 214.83 269.221 215.076 269.221 215.332C269.221 215.587 269.322 215.833 269.501 216.016C269.685 216.192 269.93 216.29 270.185 216.29C270.44 216.29 270.685 216.192 270.869 216.016V216.014Z" fill="#726A69"/>
</g>
</g>
<defs>
<clipPath id="clip0_2421_22925">
<rect width="370" height="240" fill="white"/>
</clipPath>
</defs>
</svg>
