<svg width="454" height="266" viewBox="0 0 454 266" fill="none" xmlns="http://www.w3.org/2000/svg">
<path d="M48.8842 34.8998C49.1657 34.6236 49.4538 34.3641 49.7458 34.1118V29.8154H40.6758V55.9552H46.5395C42.2818 49.5826 42.7132 40.9564 48.8842 34.8998Z" fill="#64C7FF"/>
<path d="M41.8242 55.9552V29.8154L40.6753 30.9643H49.7424L48.5935 29.8154V33.0002C48.5935 34.4785 50.8913 34.4813 50.8913 33.0002V29.8154C50.887 29.512 50.7646 29.2223 50.55 29.0078C50.3355 28.7933 50.0458 28.6708 49.7424 28.6665H40.6753C40.3719 28.6708 40.0822 28.7933 39.8677 29.0078C39.6531 29.2223 39.5307 29.512 39.5264 29.8154V55.9552C39.5264 57.4339 41.8242 57.4363 41.8242 55.9552Z" fill="#119EED"/>
<path d="M25.5254 55.9551V38.0894H34.5926V55.9551" fill="#95D9FF"/>
<path d="M26.6748 55.9551V38.0893L25.5259 39.2382H34.593L33.4441 38.0893V55.9551C33.4441 57.4338 35.7419 57.4362 35.7419 55.9551V38.0893C35.7376 37.786 35.6152 37.4962 35.4006 37.2817C35.1861 37.0672 34.8964 36.9448 34.593 36.9404H25.5259C25.2225 36.9446 24.9327 37.067 24.7181 37.2816C24.5036 37.4961 24.3812 37.7859 24.377 38.0893V55.9551C24.377 57.4338 26.6748 57.4362 26.6748 55.9551Z" fill="#64C7FF"/>
<path d="M55.8291 25.6971V24.1499H64.8924V30.8259H55.8291V25.6971Z" fill="#119EED"/>
<path d="M56.9784 29.9939V24.1499L55.8296 25.2988H64.8929L63.744 24.1499V29.8307C63.744 31.3094 66.0418 31.3118 66.0418 29.8307V24.1499C66.0375 23.8465 65.915 23.5568 65.7005 23.3423C65.486 23.1277 65.1963 23.0053 64.8929 23.001H55.8296C55.5262 23.0052 55.2364 23.1276 55.0218 23.3421C54.8073 23.5567 54.6849 23.8465 54.6807 24.1499V29.9939C54.6807 31.4726 56.9784 31.475 56.9784 29.9939Z" fill="#097BBB"/>
<path d="M17 19.1096V55.9547C17.0043 56.258 17.1268 56.5477 17.3413 56.7623C17.5558 56.9768 17.8455 57.0992 18.1489 57.1036H46.5391C48.0173 57.1036 48.0197 54.8058 46.5391 54.8058H18.1489L19.2978 55.9547V19.1096C19.2978 17.6313 17 17.6289 17 19.1096Z" fill="#726A69"/>
<path d="M72.2334 54.0146L79.9128 61.6941C80.5068 62.303 80.8368 63.1215 80.8313 63.9722C80.8258 64.8228 80.4853 65.637 79.8835 66.2383C79.2817 66.8395 78.4671 67.1793 77.6165 67.184C76.7658 67.1887 75.9476 66.8579 75.3392 66.2633L67.6426 58.5667" fill="#119EED"/>
<path d="M71.4211 54.8275C73.9254 57.3315 76.4297 59.8357 78.934 62.3403C79.2882 62.6432 79.5362 63.0514 79.6418 63.5053C79.7474 63.9592 79.705 64.435 79.5209 64.8631C79.3731 65.1647 79.1556 65.4267 78.8864 65.6275C78.6172 65.8283 78.304 65.962 77.9728 66.0176C77.6416 66.0732 77.3019 66.049 76.9818 65.9472C76.6618 65.8453 76.3707 65.6686 76.1326 65.4318C74.8918 64.235 73.6912 62.9904 72.4719 61.7716L68.4551 57.7548C67.4082 56.7079 65.7829 58.3321 66.8303 59.3795C69.3924 61.9416 71.9046 64.5692 74.5222 67.0714C75.2747 67.8212 76.2738 68.2723 77.3339 68.3407C78.394 68.4091 79.4429 68.0903 80.2855 67.4434C81.1282 66.7966 81.7072 65.8658 81.9151 64.824C82.123 63.7822 81.9455 62.7005 81.4156 61.7798C80.9925 61.1502 80.4897 60.5782 79.9196 60.0779L77.5122 57.6705L73.0444 53.2028C71.9975 52.1558 70.3723 53.7801 71.4197 54.8275H71.4211Z" fill="#097BBB"/>
<path d="M51.7619 37.8273C52.9659 36.5972 54.4051 35.6219 55.9938 34.9596C57.5825 34.2972 59.2883 33.9613 61.0095 33.9719C62.7307 33.9825 64.4322 34.3393 66.0126 35.0212C67.5931 35.703 69.0201 36.6959 70.2089 37.9407C75.7049 43.5416 75.5915 51.2215 70.1519 56.5624C64.5032 62.1077 56.9947 61.8377 51.5341 56.2752C50.3098 55.0643 49.342 53.6192 48.6885 52.0261C48.035 50.433 47.7092 48.7246 47.7305 47.0028C47.7517 45.2811 48.1197 43.5812 48.8123 42.0047C49.505 40.4283 50.5081 39.0075 51.7619 37.8273Z" fill="white"/>
<path d="M52.5738 38.64C56.1114 35.211 61.3858 34.0683 65.8981 36.2465C70.4104 38.4246 73.5703 43.3524 73.0758 48.4219C72.5856 53.4483 68.2835 57.9764 63.4485 59.1478C58.5265 60.3397 53.3574 57.5948 50.7303 53.4282C49.3063 51.1843 48.6764 48.5276 48.9413 45.8833C49.2808 43.1217 50.564 40.5622 52.5738 38.6381C53.624 37.594 51.9993 35.9688 50.949 37.0133C48.7906 39.102 47.3379 41.8122 46.7934 44.766C46.3275 47.5516 46.7061 50.413 47.8805 52.9816C50.2516 58.2234 56.1057 62.1617 61.9344 61.694C67.979 61.2115 73.5191 56.3861 75.016 50.5282C76.5134 44.6612 73.6234 38.5328 68.7081 35.2096C66.1208 33.4635 63.0228 32.6354 59.9095 32.8577C56.5292 33.1525 53.3589 34.6218 50.949 37.0105C49.8853 38.0459 51.511 39.6702 52.5738 38.64Z" fill="#726A69"/>
<path d="M438.858 218.548C439.528 220.917 439.866 223.367 439.863 225.829C439.863 236.531 434.936 244.993 426.685 249.162L426.568 248.927C425.655 247.261 423.287 242.966 420.841 238.516C425.287 236.269 427.941 231.702 427.941 225.936C427.944 224.609 427.76 223.289 427.396 222.014C432.235 220.556 436.945 219.128 438.858 218.548Z" fill="#64C7FF"/>
<path d="M426.569 248.929L426.685 249.164C422.742 251.102 418.395 252.079 414.001 252.012C399.014 252.012 388.252 241.445 388.144 226.068H400.066C400.123 234.359 405.928 240.056 414.001 240.056C416.371 240.092 418.715 239.565 420.841 238.519C423.287 242.968 425.655 247.262 426.569 248.929Z" fill="#95D9FF"/>
<path d="M413.997 200.127V212.084C412.164 212.048 410.343 212.382 408.642 213.065C406.941 213.747 405.394 214.765 404.094 216.057C402.794 217.35 401.767 218.89 401.075 220.587C400.382 222.285 400.038 224.104 400.063 225.937C400.063 225.98 400.063 226.023 400.067 226.067H388.144C388.14 225.989 388.14 225.907 388.14 225.829C388.14 211.967 398.711 200.132 413.997 200.127Z" fill="white"/>
<path d="M438.858 218.547C436.945 219.127 432.235 220.556 427.395 222.015C425.794 216.339 420.733 212.084 414.001 212.084H413.997V200.127H414.001C426.489 200.127 435.88 208.019 438.858 218.547Z" fill="#119EED"/>
<path d="M388.144 227.197H400.066C401.518 227.197 401.521 224.94 400.066 224.94H388.144C386.692 224.94 386.689 227.197 388.144 227.197Z" fill="#726A69"/>
<path d="M412.869 200.128V212.084C412.869 213.537 415.126 213.539 415.126 212.084V200.128C415.126 198.675 412.869 198.673 412.869 200.128Z" fill="#726A69"/>
<path d="M427.695 223.103C431.518 221.951 435.339 220.796 439.159 219.636C440.545 219.216 439.954 217.037 438.559 217.459C434.738 218.619 430.917 219.775 427.095 220.927C425.708 221.345 426.299 223.524 427.695 223.103Z" fill="#726A69"/>
<path d="M419.867 239.087C421.774 242.558 423.683 246.029 425.595 249.499C426.294 250.773 428.244 249.635 427.544 248.359C425.64 244.886 423.731 241.416 421.817 237.948C421.117 236.675 419.168 237.812 419.868 239.087H419.867Z" fill="#726A69"/>
<path d="M420.272 237.541C415.479 239.937 408.949 239.307 405.027 235.566C401.393 232.101 400.307 226.408 401.883 221.698C402.713 219.299 404.247 217.207 406.286 215.695C408.325 214.184 410.773 213.323 413.309 213.226C416.024 213.076 418.72 213.76 421.034 215.187C423.163 216.542 424.826 218.516 425.802 220.844C427.982 226.038 426.699 233.028 422.029 236.468C421.473 236.872 420.885 237.232 420.272 237.543C418.979 238.206 420.12 240.154 421.411 239.492C427.521 236.356 430.166 228.976 428.673 222.45C427.996 219.464 426.41 216.76 424.133 214.712C421.738 212.617 418.743 211.33 415.575 211.035C409.519 210.416 403.444 213.426 400.633 218.896C397.917 224.185 398.47 231.048 402.152 235.746C406.024 240.691 413.001 242.258 418.886 240.502C419.755 240.239 420.599 239.901 421.409 239.492C422.71 238.842 421.568 236.894 420.272 237.541Z" fill="#726A69"/>
<path d="M439.946 218.248C438.412 212.82 435.188 208.022 430.742 204.551C426.055 201.062 420.397 199.124 414.556 199.006C408.715 198.888 402.982 200.596 398.159 203.892C393.732 207.063 390.385 211.516 388.57 216.65C386.742 222.02 386.505 227.804 387.887 233.305C389.101 238.469 391.876 243.134 395.834 246.666C399.926 250.158 404.974 252.337 410.321 252.92C415.906 253.636 421.581 252.769 426.697 250.417C431.263 248.237 435.034 244.686 437.485 240.26C440.178 235.23 441.369 229.533 440.918 223.846C440.781 221.952 440.455 220.076 439.946 218.247C439.555 216.85 437.377 217.444 437.769 218.847C439.303 224.514 439.023 230.518 436.97 236.017C435.372 240.344 432.475 244.071 428.676 246.688C424.499 249.513 419.516 250.804 414.499 250.878C409.43 251.029 404.427 249.701 400.1 247.055C396.106 244.505 393.007 240.772 391.236 236.376C389.295 231.537 388.761 226.249 389.696 221.12C390.593 216.091 393.069 211.479 396.765 207.951C400.46 204.424 405.182 202.166 410.248 201.503C415.706 200.704 421.276 201.662 426.154 204.238C430.698 206.725 434.32 210.611 436.479 215.32C436.999 216.461 437.43 217.64 437.768 218.847C438.169 220.241 440.348 219.649 439.946 218.248Z" fill="#726A69"/>
</svg>
