<svg width="370" height="240" viewBox="0 0 370 240" fill="none" xmlns="http://www.w3.org/2000/svg">
<path d="M45.6731 31.7854C45.954 31.5097 46.2416 31.2508 46.533 30.9991V26.7114H37.4814V52.7978H43.3332C39.0842 46.4383 39.5147 37.8296 45.6731 31.7854Z" fill="#64C7FF"/>
<path d="M38.6281 52.7974V26.711L37.4815 27.8576H46.5302L45.3836 26.711V29.8894C45.3836 31.3646 47.6767 31.3674 47.6767 29.8894V26.711C47.6724 26.4083 47.5502 26.1192 47.3361 25.9051C47.122 25.691 46.8329 25.5688 46.5302 25.5645H37.4815C37.1787 25.5688 36.8896 25.691 36.6755 25.9051C36.4615 26.1192 36.3393 26.4083 36.335 26.711V52.7974C36.335 54.2731 38.6281 54.2755 38.6281 52.7974Z" fill="#119EED"/>
<path d="M22.3623 52.7976V34.9683H31.411V52.7976" fill="#95D9FF"/>
<path d="M23.5089 52.7976V34.9683L22.3624 36.1148H31.411L30.2645 34.9683V52.7976C30.2645 54.2733 32.5576 54.2757 32.5576 52.7976V34.9683C32.5533 34.6655 32.4311 34.3764 32.217 34.1623C32.0029 33.9482 31.7138 33.826 31.411 33.8218H22.3624C22.0596 33.8259 21.7704 33.9481 21.5563 34.1622C21.3422 34.3763 21.22 34.6655 21.2158 34.9683V52.7976C21.2158 54.2733 23.5089 54.2757 23.5089 52.7976Z" fill="#64C7FF"/>
<path d="M52.6035 22.6016V21.0576H61.6485V27.7201H52.6035V22.6016Z" fill="#119EED"/>
<path d="M53.7511 26.8893V21.0572L52.6046 22.2037H61.6496L60.5025 21.0572V26.7264C60.5025 28.2021 62.7961 28.2045 62.7961 26.7264V21.0572C62.7917 20.7544 62.6694 20.4653 62.4554 20.2512C62.2414 20.0372 61.9521 19.915 61.6496 19.9106H52.6046C52.3018 19.9148 52.0126 20.037 51.7984 20.2511C51.5843 20.4652 51.4622 20.7544 51.458 21.0572V26.8893C51.458 28.365 53.7511 28.3674 53.7511 26.8893Z" fill="#097BBB"/>
<path d="M13.8545 16.0272V52.7971C13.8588 53.0998 13.981 53.3889 14.195 53.603C14.4092 53.8171 14.6983 53.9393 15.001 53.9436H43.3332C44.8084 53.9436 44.8108 51.6505 43.3332 51.6505H15.001L16.1476 52.7971V16.0272C16.1476 14.552 13.8545 14.5496 13.8545 16.0272Z" fill="#726A69"/>
<path d="M68.9751 50.8608L76.6391 58.5246C77.2315 59.1322 77.5609 59.9488 77.5553 60.7979C77.5502 61.6469 77.2101 62.4596 76.6096 63.0595C76.009 63.6594 75.1964 63.9989 74.3474 64.0033C73.4983 64.0077 72.6819 63.6776 72.0745 63.0846L64.3936 55.4036" fill="#119EED"/>
<path d="M68.1642 51.6721C70.663 54.171 73.1624 56.6701 75.6613 59.1696C76.0152 59.472 76.2624 59.8792 76.3678 60.3323C76.4733 60.7854 76.4312 61.2598 76.2474 61.6871C76.0999 61.9884 75.8828 62.2494 75.6142 62.4502C75.3456 62.6504 75.0331 62.7841 74.7024 62.8393C74.3717 62.8951 74.0328 62.8707 73.7134 62.769C73.394 62.6673 73.1035 62.491 72.8656 62.2551C71.6275 61.0602 70.4296 59.8184 69.2128 58.602L65.2042 54.5934C64.1593 53.5487 62.5372 55.1696 63.5827 56.2149C66.1392 58.7717 68.6468 61.3941 71.2585 63.891C72.0097 64.639 73.0068 65.0896 74.0648 65.158C75.1228 65.2258 76.1696 64.9076 77.0104 64.2625C77.8513 63.6168 78.4293 62.6881 78.6364 61.6482C78.8441 60.6084 78.6671 59.5291 78.1381 58.6102C77.7158 57.982 77.2144 57.4111 76.6452 56.9119L74.2424 54.5094L69.7839 50.0507C68.739 49.0059 67.1175 50.6268 68.1623 51.6721H68.1642Z" fill="#097BBB"/>
<path d="M48.5457 34.7066C49.7472 33.479 51.1834 32.5058 52.7689 31.8448C54.3543 31.1838 56.0566 30.8486 57.7743 30.8591C59.492 30.8697 61.1902 31.2259 62.7672 31.9063C64.3442 32.5867 65.7686 33.5776 66.9547 34.8199C72.4399 40.4093 72.3263 48.0735 66.8982 53.4035C61.2611 58.9375 53.7677 58.6681 48.3183 53.1169C47.0965 51.9085 46.1307 50.4663 45.4786 48.8765C44.8264 47.2867 44.5012 45.5817 44.5225 43.8635C44.5437 42.1452 44.9108 40.4488 45.6021 38.8756C46.2933 37.3023 47.2944 35.8845 48.5457 34.7066Z" fill="white"/>
<path d="M49.3555 35.5182C52.8859 32.0963 58.1495 30.9559 62.6527 33.1296C67.1558 35.3032 70.3091 40.221 69.8159 45.2801C69.3264 50.2963 65.0329 54.8151 60.2078 55.9841C55.2961 57.1737 50.1375 54.4344 47.5158 50.2762C46.0947 48.037 45.4661 45.3857 45.7305 42.7468C46.0692 39.9908 47.3498 37.4366 49.3555 35.5164C50.4036 34.4744 48.7822 32.8525 47.7341 33.8949C45.5801 35.9793 44.1303 38.684 43.5869 41.6317C43.122 44.4117 43.4999 47.2672 44.6719 49.8305C47.0381 55.0617 52.8802 58.9919 58.6971 58.5252C64.7291 58.0436 70.2583 53.2281 71.7518 47.3822C73.2465 41.5271 70.3624 35.4112 65.4571 32.0948C62.8748 30.3524 59.783 29.5259 56.6762 29.7478C53.3028 30.042 50.1391 31.5082 47.7341 33.8921C46.6726 34.9253 48.2949 36.5463 49.3555 35.5182Z" fill="#726A69"/>
<path d="M357.753 195.508C358.421 197.872 358.758 200.317 358.755 202.774C358.755 213.454 353.839 221.899 345.605 226.059L345.488 225.825C344.576 224.162 342.214 219.876 339.772 215.435C344.209 213.193 346.858 208.635 346.858 202.881C346.86 201.557 346.677 200.239 346.314 198.967C351.143 197.512 355.843 196.086 357.753 195.508Z" fill="#64C7FF"/>
<path d="M345.487 225.827L345.603 226.061C341.668 227.996 337.33 228.97 332.945 228.904C317.989 228.904 307.249 218.359 307.141 203.013H319.039C319.094 211.286 324.888 216.972 332.945 216.972C335.31 217.008 337.649 216.482 339.771 215.438C342.212 219.878 344.575 224.163 345.487 225.827Z" fill="#95D9FF"/>
<path d="M332.942 177.125V189.057C331.113 189.022 329.296 189.355 327.598 190.036C325.9 190.717 324.356 191.733 323.059 193.023C321.762 194.312 320.737 195.85 320.046 197.544C319.355 199.238 319.012 201.053 319.036 202.882C319.036 202.926 319.036 202.968 319.041 203.012H307.141C307.138 202.934 307.138 202.852 307.138 202.774C307.138 188.941 317.687 177.13 332.942 177.125Z" fill="white"/>
<path d="M357.752 195.508C355.842 196.086 351.142 197.512 346.312 198.968C344.714 193.304 339.663 189.057 332.946 189.057H332.941V177.125H332.946C345.407 177.125 354.78 185.001 357.752 195.508Z" fill="#119EED"/>
<path d="M307.142 204.14H319.039C320.489 204.14 320.491 201.887 319.039 201.887H307.142C305.693 201.887 305.69 204.14 307.142 204.14Z" fill="#726A69"/>
<path d="M331.815 177.125V189.057C331.815 190.507 334.068 190.509 334.068 189.057V177.125C334.068 175.675 331.815 175.674 331.815 177.125Z" fill="#726A69"/>
<path d="M346.613 200.054C350.428 198.905 354.24 197.751 358.053 196.594C359.436 196.174 358.846 194 357.454 194.422C353.641 195.579 349.828 196.733 346.014 197.882C344.63 198.3 345.22 200.474 346.613 200.054Z" fill="#726A69"/>
<path d="M338.8 216.005C340.704 219.469 342.609 222.933 344.517 226.395C345.214 227.667 347.16 226.531 346.462 225.259C344.562 221.792 342.657 218.329 340.747 214.868C340.048 213.598 338.103 214.733 338.802 216.005H338.8Z" fill="#726A69"/>
<path d="M339.203 214.462C334.42 216.853 327.904 216.225 323.99 212.492C320.363 209.034 319.279 203.352 320.852 198.651C321.68 196.257 323.212 194.17 325.246 192.661C327.281 191.152 329.724 190.294 332.255 190.197C334.964 190.047 337.654 190.729 339.964 192.154C342.088 193.507 343.749 195.477 344.722 197.799C346.898 202.982 345.618 209.958 340.957 213.391C340.402 213.795 339.815 214.154 339.203 214.464C337.913 215.126 339.052 217.07 340.34 216.409C346.438 213.28 349.078 205.916 347.587 199.402C346.912 196.422 345.329 193.724 343.057 191.68C340.666 189.589 337.678 188.305 334.516 188.01C328.472 187.393 322.41 190.396 319.604 195.856C316.894 201.134 317.446 207.983 321.12 212.671C324.985 217.606 331.947 219.17 337.821 217.417C338.687 217.155 339.53 216.818 340.338 216.409C341.637 215.761 340.498 213.817 339.203 214.462Z" fill="#726A69"/>
<path d="M358.838 195.209C357.308 189.791 354.09 185.003 349.652 181.539C344.975 178.058 339.328 176.124 333.499 176.006C327.67 175.888 321.95 177.593 317.136 180.882C312.718 184.047 309.378 188.49 307.567 193.614C305.743 198.973 305.506 204.745 306.885 210.235C308.097 215.389 310.866 220.044 314.816 223.569C318.899 227.054 323.937 229.228 329.273 229.81C334.847 230.524 340.51 229.659 345.616 227.312C350.173 225.137 353.936 221.593 356.383 217.176C359.069 212.156 360.258 206.471 359.808 200.795C359.671 198.905 359.346 197.033 358.837 195.208C358.447 193.814 356.274 194.406 356.666 195.807C358.196 201.462 357.917 207.454 355.868 212.942C354.273 217.26 351.382 220.98 347.591 223.59C343.422 226.41 338.45 227.699 333.443 227.772C328.384 227.923 323.391 226.597 319.074 223.957C315.087 221.412 311.995 217.687 310.227 213.3C308.29 208.471 307.758 203.193 308.69 198.075C309.586 193.056 312.057 188.453 315.745 184.933C319.432 181.413 324.145 179.159 329.2 178.498C334.647 177.701 340.206 178.656 345.074 181.227C349.609 183.709 353.223 187.587 355.378 192.287C355.897 193.425 356.327 194.602 356.665 195.806C357.065 197.198 359.238 196.607 358.838 195.209Z" fill="#726A69"/>
</svg>
