<svg width="370" height="240" viewBox="0 0 370 240" fill="none" xmlns="http://www.w3.org/2000/svg">
<path d="M53.222 35.7866C53.5695 35.4455 53.9254 35.1251 54.2859 34.8137V29.5088H43.0869V61.7842H50.327C45.0699 53.9159 45.6025 43.2647 53.222 35.7866Z" fill="#64C7FF"/>
<path d="M44.5051 61.7838V29.5084L43.0865 30.927H54.282L52.8634 29.5084V33.4408C52.8634 35.2661 55.7006 35.2696 55.7006 33.4408V29.5084C55.6952 29.1339 55.544 28.7762 55.2791 28.5113C55.0142 28.2464 54.6565 28.0952 54.282 28.0898H43.0865C42.7119 28.0952 42.3542 28.2464 42.0893 28.5113C41.8245 28.7762 41.6733 29.1339 41.668 29.5084V61.7838C41.668 63.6096 44.5051 63.6125 44.5051 61.7838Z" fill="#119EED"/>
<path d="M24.3809 61.7839V39.7246H35.5763V61.7839" fill="#95D9FF"/>
<path d="M25.7991 61.784V39.7247L24.3805 41.1432H35.5759L34.1574 39.7247V61.784C34.1574 63.6098 36.9945 63.6128 36.9945 61.784V39.7247C36.9891 39.3501 36.838 38.9924 36.5731 38.7275C36.3082 38.4626 35.9505 38.3114 35.5759 38.3062H24.3805C24.0059 38.3113 23.6481 38.4624 23.3832 38.7274C23.1183 38.9923 22.9671 39.3501 22.9619 39.7247V61.784C22.9619 63.6098 25.7991 63.6128 25.7991 61.784Z" fill="#64C7FF"/>
<path d="M61.7969 24.424V22.5137H72.9878V30.7568H61.7969V24.424Z" fill="#119EED"/>
<path d="M63.217 29.729V22.5133L61.7985 23.9319H72.9895L71.5702 22.5133V29.5275C71.5702 31.3533 74.408 31.3562 74.408 29.5275V22.5133C74.4025 22.1387 74.2511 21.781 73.9864 21.5161C73.7216 21.2512 73.3637 21.1001 72.9895 21.0947H61.7985C61.4238 21.0999 61.066 21.251 60.8011 21.5159C60.5362 21.7808 60.3851 22.1387 60.3799 22.5133V29.729C60.3799 31.5548 63.217 31.5578 63.217 29.729Z" fill="#097BBB"/>
<path d="M13.8545 16.2899V61.7834C13.8598 62.158 14.011 62.5157 14.2758 62.7806C14.5408 63.0455 14.8984 63.1966 15.273 63.202H50.327C52.1522 63.202 52.1552 60.3649 50.327 60.3649H15.273L16.6916 61.7834V16.2899C16.6916 14.4647 13.8545 14.4618 13.8545 16.2899Z" fill="#726A69"/>
<path d="M82.0523 59.3877L91.5346 68.8696C92.2675 69.6215 92.6751 70.6318 92.6681 71.6823C92.6619 72.7328 92.2411 73.7382 91.4981 74.4805C90.755 75.2227 89.7496 75.6427 88.6991 75.6482C87.6486 75.6536 86.6385 75.2452 85.887 74.5115L76.3838 65.0082" fill="#119EED"/>
<path d="M81.049 60.3917C84.1407 63.4834 87.2331 66.5755 90.3247 69.6679C90.7626 70.0421 91.0685 70.546 91.199 71.1065C91.3294 71.6671 91.2774 72.2541 91.0499 72.7828C90.8675 73.1555 90.5988 73.4785 90.2665 73.7269C89.9342 73.9746 89.5476 74.14 89.1384 74.2083C88.7292 74.2774 88.31 74.2471 87.9148 74.1213C87.5196 73.9955 87.1601 73.7774 86.8659 73.4854C85.334 72.0072 83.8519 70.4707 82.3464 68.9658L77.3867 64.0061C76.094 62.7135 74.087 64.719 75.3805 66.0122C78.5436 69.1756 81.6461 72.4202 84.8775 75.5095C85.8068 76.435 87.0406 76.9925 88.3496 77.0771C89.6586 77.1609 90.9536 76.7673 91.994 75.9692C93.0344 75.1702 93.7495 74.0212 94.0057 72.7347C94.2627 71.4482 94.0437 70.1127 93.3892 68.9759C92.8667 68.1986 92.2463 67.4922 91.5421 66.8746L88.5693 63.9021L83.0529 58.3856C81.7602 57.093 79.754 59.0984 81.0467 60.3917H81.049Z" fill="#097BBB"/>
<path d="M56.7758 39.4012C58.2624 37.8824 60.0393 36.6782 62.001 35.8604C63.9626 35.0426 66.0687 34.6279 68.194 34.6409C70.3191 34.654 72.4203 35.0947 74.3714 35.9365C76.3225 36.7784 78.0849 38.0043 79.5523 39.5414C86.3389 46.4569 86.1983 55.9394 79.4824 62.534C72.508 69.3809 63.2368 69.0475 56.4945 62.1793C54.9828 60.6843 53.7879 58.8999 52.981 56.9329C52.1741 54.9659 51.7718 52.8565 51.7981 50.7305C51.8243 48.6046 52.2786 46.5058 53.1338 44.5593C53.9891 42.6127 55.2277 40.8585 56.7758 39.4012Z" fill="white"/>
<path d="M57.7778 40.4049C62.1458 36.1711 68.6582 34.7602 74.2297 37.4496C79.8012 40.1389 83.7026 46.2234 83.0923 52.4829C82.4867 58.6891 77.1746 64.28 71.2048 65.7264C65.1277 67.1981 58.7454 63.809 55.5016 58.6643C53.7434 55.8938 52.9656 52.6134 53.2928 49.3484C53.7119 45.9386 55.2963 42.7784 57.7778 40.4026C59.0746 39.1135 57.0685 37.1068 55.7717 38.3965C53.1067 40.9754 51.3129 44.3217 50.6406 47.9688C50.0654 51.4084 50.533 54.9413 51.983 58.1128C54.9106 64.5851 62.1387 69.4478 69.3356 68.8703C76.7988 68.2745 83.6397 62.3165 85.4875 55.0836C87.3369 47.8394 83.7686 40.2726 77.6994 36.1693C74.5045 34.0135 70.6792 32.991 66.8354 33.2654C62.6616 33.6294 58.7472 35.4436 55.7717 38.393C54.4584 39.6714 56.4656 41.6769 57.7778 40.4049Z" fill="#726A69"/>
<path d="M357.031 187.136C357.858 190.061 358.275 193.087 358.271 196.126C358.271 209.34 352.189 219.789 342.001 224.936L341.857 224.646C340.729 222.588 337.805 217.286 334.785 211.791C340.274 209.017 343.552 203.378 343.552 196.258C343.555 194.621 343.328 192.99 342.878 191.416C348.854 189.616 354.669 187.852 357.031 187.136Z" fill="#64C7FF"/>
<path d="M341.855 224.648L341.999 224.938C337.13 227.332 331.762 228.537 326.338 228.456C307.833 228.456 294.545 215.408 294.411 196.422H309.132C309.201 206.658 316.369 213.692 326.338 213.692C329.263 213.736 332.158 213.086 334.783 211.795C337.803 217.288 340.727 222.59 341.855 224.648Z" fill="#95D9FF"/>
<path d="M326.334 164.393V179.155C324.071 179.112 321.822 179.523 319.721 180.366C317.621 181.209 315.711 182.466 314.106 184.061C312.501 185.657 311.233 187.56 310.378 189.655C309.523 191.751 309.098 193.997 309.129 196.26C309.129 196.314 309.129 196.366 309.134 196.42H294.412C294.407 196.325 294.407 196.223 294.407 196.127C294.407 179.012 307.459 164.398 326.334 164.393Z" fill="white"/>
<path d="M357.03 187.136C354.667 187.852 348.852 189.616 342.876 191.418C340.898 184.41 334.65 179.155 326.338 179.155H326.333V164.393H326.338C341.756 164.393 353.353 174.136 357.03 187.136Z" fill="#119EED"/>
<path d="M294.412 197.816H309.133C310.927 197.816 310.929 195.028 309.133 195.028H294.412C292.62 195.028 292.616 197.816 294.412 197.816Z" fill="#726A69"/>
<path d="M324.94 164.392V179.155C324.94 180.949 327.727 180.951 327.727 179.155V164.392C327.727 162.598 324.94 162.596 324.94 164.392Z" fill="#726A69"/>
<path d="M343.249 192.761C347.968 191.339 352.686 189.912 357.402 188.48C359.114 187.961 358.385 185.271 356.662 185.792C351.944 187.225 347.227 188.652 342.508 190.074C340.795 190.591 341.525 193.281 343.249 192.761Z" fill="#726A69"/>
<path d="M333.583 212.497C335.937 216.783 338.295 221.068 340.656 225.352C341.518 226.925 343.926 225.52 343.062 223.946C340.711 219.657 338.354 215.372 335.991 211.09C335.126 209.518 332.719 210.922 333.584 212.497H333.583Z" fill="#726A69"/>
<path d="M334.08 210.588C328.162 213.546 320.1 212.768 315.258 208.15C310.771 203.871 309.429 196.841 311.376 191.025C312.4 188.063 314.295 185.48 316.812 183.614C319.33 181.747 322.352 180.685 325.484 180.566C328.835 180.379 332.164 181.224 335.022 182.986C337.65 184.66 339.704 187.098 340.909 189.971C343.6 196.384 342.017 205.015 336.25 209.262C335.563 209.762 334.838 210.206 334.08 210.59C332.485 211.409 333.893 213.814 335.487 212.996C343.031 209.124 346.298 200.013 344.454 191.955C343.617 188.268 341.659 184.929 338.848 182.4C335.891 179.813 332.193 178.225 328.281 177.86C320.804 177.096 313.303 180.812 309.831 187.566C306.478 194.098 307.161 202.571 311.707 208.372C316.489 214.477 325.102 216.412 332.37 214.244C333.442 213.918 334.485 213.502 335.485 212.996C337.091 212.194 335.682 209.789 334.08 210.588Z" fill="#726A69"/>
<path d="M358.374 186.766C356.48 180.063 352.499 174.139 347.009 169.853C341.222 165.546 334.235 163.153 327.023 163.007C319.811 162.861 312.734 164.971 306.778 169.041C301.312 172.956 297.179 178.454 294.938 184.793C292.681 191.424 292.389 198.565 294.095 205.358C295.594 211.733 299.02 217.494 303.907 221.855C308.96 226.166 315.192 228.856 321.795 229.577C328.691 230.46 335.697 229.39 342.015 226.485C347.652 223.794 352.309 219.41 355.336 213.945C358.66 207.734 360.131 200.7 359.573 193.678C359.405 191.34 359.003 189.024 358.373 186.765C357.89 185.04 355.201 185.773 355.686 187.506C357.58 194.503 357.234 201.916 354.699 208.706C352.725 214.049 349.149 218.651 344.458 221.881C339.301 225.369 333.148 226.964 326.954 227.055C320.695 227.242 314.517 225.602 309.175 222.335C304.243 219.186 300.417 214.577 298.23 209.15C295.834 203.175 295.174 196.645 296.328 190.312C297.437 184.103 300.494 178.408 305.057 174.052C309.619 169.697 315.45 166.909 321.704 166.09C328.443 165.104 335.322 166.287 341.344 169.468C346.955 172.537 351.427 177.336 354.093 183.151C354.735 184.559 355.267 186.015 355.685 187.505C356.18 189.227 358.869 188.496 358.374 186.766Z" fill="#726A69"/>
</svg>
