<svg width="370" height="240" viewBox="0 0 370 240" fill="none" xmlns="http://www.w3.org/2000/svg">
<g clip-path="url(#clip0_2421_22881)">
<mask id="mask0_2421_22881" style="mask-type:alpha" maskUnits="userSpaceOnUse" x="10" y="141" width="61" height="101">
<path d="M70.8449 141H10.374V241.443H70.8449V141Z" fill="#D9D9D9"/>
</mask>
<g mask="url(#mask0_2421_22881)">
<path d="M52.6075 237.657C50.0021 237.803 46.7905 237.71 44.7166 237.387C42.5635 237.049 40.6593 236.275 39.7194 235.571C38.2934 234.496 37.4658 233.258 36.9878 231.704C36.8069 231.121 36.4455 229.399 36.1884 227.722C35.9314 229.399 35.57 231.121 35.3891 231.704C34.9112 233.259 34.0835 234.496 32.6576 235.571C31.7176 236.275 29.8134 237.049 27.6604 237.387C25.5861 237.71 22.3745 237.803 19.7694 237.657C19.2767 240.705 19.2063 243.836 19.2917 246.965H53.0851C53.1702 243.836 53.1 240.706 52.6075 237.657V237.657Z" fill="#726A69"/>
<path d="M20.0142 246.966C19.8854 242.235 20.121 237.449 21.6917 232.939C21.996 232.066 20.6007 231.691 20.2986 232.559C18.6893 237.179 18.4374 242.118 18.5692 246.966C18.5942 247.886 20.0394 247.889 20.0142 246.966Z" fill="#726A69"/>
<path d="M50.6851 232.94C52.2527 237.45 52.4885 242.235 52.3593 246.966C52.3347 247.888 53.7794 247.887 53.804 246.966C53.9362 242.119 53.6846 237.179 52.078 232.559C51.7767 231.693 50.3812 232.065 50.6851 232.94Z" fill="#726A69"/>
<path d="M29.2675 181.494C25.4567 181.494 20.7875 179.947 19.2875 177.185C17.9777 174.773 18.2859 171.93 18.762 169.206C19.9608 162.676 19.3011 155.312 24.5748 150.306C26.5348 148.446 30.9508 145.911 35.9128 145.911C38.9652 145.911 42.2153 146.53 44.8641 148.094C46.3448 148.968 47.6444 150.156 48.5673 151.611C50.7248 153.891 51.5038 156.531 51.9394 159.491C52.4231 162.781 52.8721 166.079 53.5521 169.336C54.1686 172.289 54.4873 175.204 52.5246 177.784C50.1796 180.866 45.9701 181.652 42.1954 181.652" fill="#D0903A"/>
<path d="M29.2668 180.778C27.3205 180.771 25.3537 180.401 23.5521 179.664C21.9768 179.02 20.4705 178.034 19.7343 176.476C18.7685 174.431 19.0235 172.008 19.3804 169.852C19.7157 167.825 19.9748 165.798 20.206 163.757C20.6406 159.922 21.1889 155.918 23.4669 152.672C25.6384 149.578 29.3288 147.663 33.0081 146.919C35.2048 146.475 37.5226 146.549 39.7175 146.974C41.9124 147.399 44.1167 148.219 45.8599 149.654C46.3016 150.018 46.7111 150.415 47.0924 150.84C47.7114 151.53 48.7302 150.514 48.1137 149.827C46.4666 147.99 44.2632 146.757 41.9097 146.039C39.6037 145.337 37.0684 145.046 34.6622 145.248C32.2954 145.446 29.9991 146.14 27.8827 147.202C26.2234 148.033 24.6557 149.103 23.4016 150.473C20.4187 153.731 19.4722 158.017 18.9389 162.257C18.6804 164.311 18.5082 166.378 18.1684 168.421C17.7651 170.847 17.3119 173.342 17.9572 175.771C18.2323 176.805 18.7015 177.783 19.4111 178.593C20.0341 179.304 20.8299 179.877 21.6548 180.337C23.5187 181.374 25.6477 181.925 27.7644 182.134C28.2637 182.183 28.7648 182.208 29.2668 182.21C30.1965 182.213 30.1977 180.781 29.2668 180.778Z" fill="#B47119"/>
<path d="M48.5248 152.643C50.0463 154.482 50.7571 156.751 51.1451 159.065C51.6165 161.875 51.9507 164.705 52.4621 167.511C52.8905 169.863 53.6572 172.338 53.1421 174.74C52.6717 176.935 51.1256 178.624 49.1347 179.611C47.0074 180.667 44.5429 180.932 42.1948 180.936C41.2654 180.938 41.2636 182.371 42.1948 182.369C46.8501 182.359 52.2551 181.058 54.1681 176.321C55.1577 173.87 54.6652 171.212 54.1594 168.715C53.5521 165.718 53.1314 162.688 52.6886 159.664C52.48 158.24 52.2212 156.822 51.7298 155.463C51.2224 154.06 50.4994 152.782 49.5467 151.63C49.2986 151.331 48.7816 151.375 48.5248 151.63C48.2266 151.926 48.2768 152.343 48.5248 152.643Z" fill="#B47119"/>
<path d="M47.3119 187.77C47.1869 187.72 43.6977 186.073 43.618 186.045C42.3867 185.603 42.4346 184.821 42.2799 183.944C42.1809 183.383 42.1071 182.825 42.0629 182.262C45.0199 180.707 47.3565 176.717 47.7793 175.579C47.9238 175.28 48.16 174.666 48.3512 174.039L48.5106 174.066C49.1142 174.167 49.7451 173.938 50.174 173.59C51.2143 172.746 51.6458 171.568 51.9097 170.799C52.2818 169.712 52.3048 167.956 51.7509 167.003C51.5648 166.683 51.1333 166.14 50.1192 166.104C49.6533 166.088 49.1091 166.232 48.7048 166.618L47.5143 164.771C46.2885 161.858 44.4827 159.228 42.3771 157.099C39.4797 159.496 37.9066 160.504 32.6716 162.97C29.8188 164.314 26.7098 165.221 24.133 166.003L23.6698 166.617C23.2656 166.232 22.7211 166.088 22.2553 166.104C21.2413 166.14 20.8097 166.683 20.624 167.003C20.0696 167.955 20.0931 169.711 20.4651 170.798C20.7285 171.568 21.1603 172.745 22.2008 173.589C22.6618 173.964 23.3574 174.201 24.0006 174.037C24.4718 175.624 25.3254 177.54 26.8242 179.319C28.0202 180.738 29.2782 181.784 30.6871 182.418C30.6871 182.418 30.7497 182.446 30.8119 182.477C30.7692 182.968 30.7 183.436 30.6121 183.944C30.4523 184.821 30.5056 185.603 29.274 186.045C29.194 186.073 25.3028 187.879 25.0626 187.958C25.0626 187.958 26.3526 195.743 36.3178 195.743C46.2829 195.743 47.3119 187.77 47.3119 187.77Z" fill="white"/>
<path d="M24.1813 166.111C23.3314 165.355 22.1131 165.179 21.0742 165.657C20.2977 166.015 19.8402 166.753 19.6406 167.556C19.1922 169.359 19.6443 171.408 20.6718 172.946C21.3772 174.002 22.4995 174.961 23.8647 174.782C24.2514 174.731 24.587 174.489 24.587 174.065C24.587 173.718 24.2542 173.298 23.8647 173.349C22.8234 173.486 22.1173 172.631 21.6662 171.805C21.2932 171.121 21.0097 170.338 20.9426 169.561C20.877 168.802 20.8818 167.877 21.3345 167.23C21.4182 167.11 21.2764 167.281 21.3829 167.176C21.4103 167.149 21.5632 167.018 21.5286 167.042C21.6646 166.947 21.8091 166.892 21.9701 166.856C22.3861 166.762 22.8378 166.838 23.1601 167.124C23.8505 167.738 24.8753 166.729 24.1816 166.111L24.1813 166.111Z" fill="#726A69"/>
<path d="M49.2167 167.124C49.5401 166.836 49.9895 166.763 50.4067 166.856C50.5671 166.892 50.7131 166.947 50.8484 167.042C50.8033 167.011 50.9468 167.131 50.9689 167.151C50.9935 167.175 51.017 167.2 51.0396 167.227C50.9955 167.165 50.9965 167.166 51.0427 167.229C51.4952 167.877 51.4998 168.803 51.4342 169.562C51.367 170.338 51.0842 171.122 50.7106 171.805C50.2586 172.631 49.5545 173.487 48.5121 173.349C48.1247 173.298 47.79 173.715 47.79 174.066C47.79 174.495 48.1237 174.731 48.5121 174.782C50.7403 175.074 52.1106 172.644 52.6497 170.857C53.1222 169.291 53.1289 166.859 51.611 165.829C50.5686 165.121 49.1122 165.296 48.1954 166.111C47.502 166.728 48.5264 167.738 49.2173 167.124L49.2167 167.124Z" fill="#726A69"/>
<path d="M47.8918 172.938C47.7032 173.844 47.3542 174.727 47.037 175.507C47.1093 175.33 47.0032 175.578 46.9601 175.666C46.8991 175.793 46.8346 175.918 46.7685 176.042C46.6168 176.328 46.4543 176.608 46.2847 176.884C45.3823 178.353 44.2836 179.731 42.94 180.829C42.2114 181.424 41.3856 181.889 40.474 182.099C39.5686 182.307 39.9518 183.688 40.858 183.48C42.7736 183.039 44.3687 181.657 45.6204 180.214C46.6562 179.021 47.6243 177.676 48.2802 176.234C48.3448 176.091 48.4022 175.946 48.4637 175.801C48.3735 176.012 48.5688 175.564 48.578 175.542C48.6251 175.429 48.6707 175.316 48.7143 175.202C48.949 174.59 49.1509 173.96 49.2842 173.318C49.4717 172.419 48.0799 172.034 47.8913 172.937L47.8918 172.938Z" fill="#726A69"/>
<path d="M23.0558 173.274C23.6252 175.762 24.8032 178.088 26.4825 180.021C28.109 181.894 30.2046 183.383 32.7146 183.752C33.1002 183.809 33.4911 183.657 33.6031 183.252C33.6967 182.914 33.4869 182.428 33.0987 182.371C30.8035 182.033 28.9914 180.721 27.504 179.009C25.986 177.261 24.9624 175.137 24.4489 172.893C24.2434 171.995 22.8502 172.374 23.0558 173.274Z" fill="#726A69"/>
<path d="M35.9145 171.385C36.0217 171.789 36.1243 172.2 36.1857 172.615L36.1598 172.425C36.167 172.481 36.1703 172.538 36.1643 172.594L36.1902 172.404C36.1863 172.43 36.1803 172.455 36.1712 172.481L36.2441 172.31C36.2362 172.327 36.2278 172.342 36.217 172.359L36.3299 172.214C36.3172 172.229 36.3049 172.241 36.2892 172.253L36.4355 172.141C36.4042 172.161 36.3711 172.177 36.3371 172.193L36.5095 172.121C36.4554 172.143 36.4018 172.16 36.3437 172.169L36.5357 172.143C36.4833 172.15 36.4325 172.149 36.3801 172.143L36.5721 172.169C36.5134 172.161 36.456 172.147 36.3972 172.139C36.3013 172.109 36.2053 172.105 36.1092 172.126C36.0132 172.13 35.9236 172.158 35.8408 172.211C35.6909 172.298 35.5479 172.468 35.5088 172.639C35.4667 172.822 35.4757 173.028 35.5817 173.19C35.6755 173.335 35.833 173.496 36.0132 173.52C36.1544 173.538 36.2913 173.574 36.4349 173.58C36.6591 173.59 36.8661 173.521 37.066 173.43C37.3146 173.317 37.5097 173.091 37.5756 172.825C37.6318 172.6 37.608 172.408 37.5695 172.182C37.5021 171.786 37.4094 171.393 37.3068 171.004C37.2611 170.832 37.1298 170.666 36.9748 170.576C36.8198 170.487 36.5917 170.448 36.4184 170.504C36.0422 170.625 35.811 170.997 35.9139 171.385L35.9145 171.385Z" fill="#726A69"/>
<path d="M29.4355 167.876C29.2282 168.544 29.3633 170.08 30.6394 170.211C32.326 170.201 32.4157 168.344 31.8481 167.47C31.383 166.755 30.0164 166.458 29.4355 167.876Z" fill="#726A69"/>
<path d="M42.9417 167.876C43.1491 168.544 43.014 170.08 41.7379 170.211C40.0512 170.201 39.9613 168.343 40.5292 167.47C40.9942 166.755 42.3608 166.458 42.9417 167.876Z" fill="#726A69"/>
<path d="M41.8668 156.592C40.3201 157.87 38.7397 159.025 36.956 160.019C34.3746 161.458 31.6701 162.751 28.8805 163.738C27.2513 164.315 25.5949 164.81 23.9413 165.311C23.055 165.58 23.4327 166.964 24.3254 166.693C27.45 165.745 30.5463 164.77 33.5002 163.369C35.7334 162.309 37.9753 161.223 40.0128 159.818C41.0093 159.131 41.9564 158.375 42.8883 157.605C43.188 157.357 43.1465 156.848 42.8883 156.592C42.5915 156.298 42.1674 156.344 41.8668 156.592Z" fill="#B47119"/>
<path d="M41.8671 157.605C43.9928 159.768 45.6732 162.37 46.8915 165.132C47.0478 165.487 47.5711 165.568 47.8796 165.389C48.2485 165.175 48.2957 164.765 48.1389 164.409C46.8731 161.539 45.0965 158.838 42.8886 156.592C42.2386 155.931 41.2177 156.944 41.8671 157.605Z" fill="#B47119"/>
<path d="M49.0463 173.766C48.0434 173.766 47.3506 174.465 47.3506 175.284C47.3506 176.199 48.0588 176.83 49.0468 176.83C50.0728 176.83 50.7426 176.193 50.7426 175.284C50.7426 174.459 50.0456 173.766 49.0463 173.766Z" fill="white"/>
<path d="M49.0464 173.049C48.0163 173.062 47.0939 173.63 46.7398 174.605C46.4046 175.528 46.8079 176.567 47.59 177.121C48.3612 177.666 49.4891 177.67 50.3127 177.246C51.1905 176.793 51.5805 175.8 51.4201 174.862C51.2295 173.745 50.1277 173.063 49.0464 173.049C48.6682 173.045 48.3069 173.382 48.3243 173.766C48.3423 174.157 48.6415 174.477 49.0464 174.482C49.0976 174.482 49.1484 174.486 49.1991 174.487C49.3472 174.49 49.1504 174.486 49.1545 174.478C49.1622 174.462 49.3605 174.52 49.3877 174.527C49.4323 174.54 49.4758 174.555 49.5199 174.569C49.6429 174.608 49.4763 174.56 49.4728 174.548C49.4804 174.573 49.6711 174.654 49.7034 174.676C49.7208 174.687 49.8422 174.756 49.7346 174.695C49.6337 174.639 49.7377 174.702 49.7587 174.722C49.8028 174.762 49.8525 174.842 49.9017 174.873C49.7971 174.808 49.8294 174.767 49.875 174.845C49.8925 174.874 49.9124 174.902 49.9294 174.932C49.9458 174.96 49.9581 174.995 49.977 175.022C50.0006 175.072 49.9903 175.046 49.9452 174.945C49.9555 174.97 49.9647 174.996 49.9734 175.022C49.9914 175.077 49.9934 175.178 50.0237 175.222C50.0165 175.211 50.0093 175.036 50.0144 175.156C50.0165 175.198 50.0201 175.24 50.0201 175.283C50.0201 175.312 50.019 175.342 50.018 175.371C50.0139 175.452 49.9668 175.518 50.0267 175.352C50.0016 175.422 49.998 175.504 49.976 175.575C49.9673 175.603 49.9447 175.642 49.9437 175.671C49.9478 175.551 50.0062 175.547 49.9606 175.628C49.9283 175.685 49.8955 175.742 49.8612 175.798C49.8135 175.875 49.7864 175.828 49.8909 175.763C49.8745 175.773 49.853 175.805 49.8387 175.821C49.8115 175.85 49.7828 175.878 49.7536 175.904C49.6772 175.972 49.6654 175.928 49.7751 175.892C49.7177 175.911 49.6578 175.969 49.6019 175.999C49.5691 176.017 49.5173 176.03 49.4886 176.053C49.5025 176.043 49.6547 175.996 49.5414 176.028C49.4702 176.049 49.401 176.072 49.3287 176.088C49.3052 176.093 49.2078 176.099 49.1929 176.113L49.2913 176.1C49.2596 176.103 49.2273 176.106 49.195 176.108C49.113 176.113 49.0305 176.114 48.9485 176.11C48.9167 176.109 48.8844 176.105 48.8527 176.104C48.6856 176.098 49.0197 176.137 48.8588 176.105C48.7855 176.09 48.7123 176.075 48.64 176.053C48.6118 176.044 48.5847 176.033 48.5565 176.025C48.4847 175.998 48.5021 176.006 48.6087 176.049C48.5831 176.038 48.5575 176.026 48.5324 176.013C48.4699 175.981 48.4119 175.943 48.353 175.907C48.291 175.869 48.3376 175.853 48.4002 175.945C48.3807 175.917 48.3346 175.89 48.3089 175.865C48.2895 175.846 48.2705 175.827 48.2521 175.807C48.2362 175.791 48.1567 175.687 48.2305 175.788C48.3054 175.892 48.2269 175.78 48.2157 175.763C48.1936 175.73 48.1726 175.695 48.1537 175.659C48.1106 175.58 48.1378 175.534 48.1567 175.682C48.1537 175.66 48.1362 175.628 48.1286 175.605C48.106 175.537 48.0917 175.469 48.0753 175.401C48.0384 175.25 48.0819 175.575 48.0778 175.418C48.0773 175.388 48.0737 175.358 48.0727 175.328C48.0717 175.285 48.0722 175.242 48.0747 175.199C48.0758 175.178 48.0773 175.157 48.0799 175.136C48.086 175.079 48.0819 175.108 48.0681 175.224C48.1009 175.164 48.1116 175.052 48.1321 174.985C48.166 174.875 48.1163 175.034 48.106 175.043C48.1378 175.014 48.1598 174.937 48.1834 174.899C48.1977 174.875 48.2136 174.853 48.2285 174.83C48.2977 174.716 48.1101 174.95 48.2305 174.828C48.2649 174.793 48.3838 174.711 48.3966 174.668L48.3171 174.727C48.3407 174.71 48.3638 174.693 48.3879 174.677C48.4242 174.653 48.4617 174.63 48.4996 174.609C48.5308 174.592 48.5688 174.579 48.598 174.559C48.6477 174.536 48.6246 174.545 48.5288 174.586C48.557 174.575 48.5857 174.565 48.6149 174.555C48.7051 174.525 48.7963 174.505 48.8896 174.486C49.0013 174.462 48.8445 174.489 48.8434 174.491C48.8516 174.474 49.0243 174.482 49.0464 174.482C49.4241 174.478 49.7864 174.156 49.7684 173.766C49.751 173.381 49.4512 173.045 49.0464 173.049Z" fill="#726A69"/>
<path d="M34.5506 177.588C34.6425 177.54 34.7351 177.494 34.829 177.45C34.987 177.376 34.6809 177.502 34.8625 177.438C34.9305 177.414 34.9982 177.39 35.0674 177.369C35.2546 177.312 35.4451 177.275 35.6377 177.242C35.5312 177.26 35.595 177.247 35.6651 177.239C35.7211 177.233 35.7774 177.228 35.8336 177.224C35.9694 177.214 36.1057 177.209 36.2421 177.208C36.369 177.207 36.4961 177.21 36.6228 177.218C36.6811 177.221 36.7396 177.225 36.7979 177.23C36.8169 177.232 37.0339 177.263 36.8651 177.236C37.0556 177.267 37.244 177.304 37.4285 177.362C37.5043 177.385 37.5837 177.428 37.6611 177.444C37.6382 177.439 37.5142 177.374 37.5985 177.42C37.6307 177.436 37.6644 177.451 37.6969 177.467C37.7445 177.492 37.7911 177.518 37.8365 177.547C37.8965 177.584 38.0626 177.712 37.8383 177.538C38.1357 177.767 38.5739 177.846 38.8598 177.538C39.0976 177.281 39.1782 176.771 38.8598 176.525C38.1339 175.964 37.2295 175.781 36.3212 175.776C35.44 175.77 34.6012 175.943 33.8223 176.351C33.4876 176.526 33.3582 177.016 33.5631 177.331C33.7826 177.669 34.1934 177.775 34.5515 177.588H34.5506Z" fill="#726A69"/>
<path d="M25.2554 188.648C25.6337 188.517 25.9997 188.328 26.3635 188.163C26.9426 187.9 27.5205 187.634 28.0983 187.369C28.5522 187.16 29.0054 186.951 29.4598 186.743C29.5068 186.722 29.5547 186.702 29.601 186.679C29.6338 186.663 29.706 186.633 29.549 186.7C29.3551 186.783 29.549 186.704 29.5992 186.684C29.6988 186.644 29.7984 186.604 29.895 186.557C30.314 186.358 30.6941 186.035 30.9165 185.625C31.1269 185.238 31.1992 184.822 31.2659 184.393C31.3655 183.755 31.4763 183.12 31.5347 182.476C31.5699 182.09 31.1778 181.76 30.8124 181.76C30.3925 181.76 30.1253 182.089 30.0901 182.476C30.0449 182.971 29.9613 183.458 29.883 183.948C29.8328 184.264 29.7948 184.583 29.6826 184.884C29.6459 184.983 29.7383 184.786 29.6829 184.876C29.6621 184.909 29.6438 184.945 29.6236 184.98C29.5459 185.111 29.6507 184.981 29.5655 185.055C29.5324 185.084 29.5023 185.117 29.4698 185.147C29.5487 185.075 29.4653 185.152 29.4463 185.164C29.3572 185.221 29.2564 185.279 29.1691 185.32C29.0409 185.379 28.882 185.437 28.7423 185.501C27.776 185.941 26.8132 186.389 25.8468 186.829C25.5961 186.943 25.3454 187.057 25.0938 187.169C25.014 187.205 24.934 187.24 24.8542 187.275C24.6736 187.354 25.0191 187.215 24.8711 187.267C24.503 187.394 24.2583 187.757 24.3667 188.148C24.4647 188.502 24.8852 188.776 25.2551 188.648L25.2554 188.648Z" fill="#726A69"/>
<path d="M41.3531 182.405C41.4079 183.006 41.4955 183.6 41.5945 184.195C41.6471 184.511 41.6763 184.835 41.772 185.141C41.8897 185.519 42.0896 185.882 42.389 186.149C42.5554 186.298 42.742 186.431 42.9421 186.531C43.0719 186.596 43.207 186.652 43.3424 186.704C43.6172 186.809 43.1835 186.624 43.2862 186.677C44.1412 187.118 45.036 187.496 45.9073 187.904C46.3101 188.093 46.7098 188.29 47.1208 188.461C47.4805 188.61 47.9151 188.299 48.0094 187.961C48.1237 187.547 47.8659 187.23 47.5046 187.08C47.8705 187.231 47.4805 187.062 47.3944 187.022C47.2079 186.935 47.0214 186.847 46.8348 186.76C46.3301 186.524 45.8251 186.286 45.3204 186.05C44.9301 185.866 44.54 185.682 44.1484 185.501C44.0208 185.442 43.8113 185.359 43.7436 185.329C43.6621 185.292 43.5844 185.248 43.5077 185.203C43.4926 185.194 43.3716 185.112 43.4391 185.161C43.4975 185.205 43.4156 185.141 43.4105 185.136C43.3783 185.105 43.2314 184.936 43.3226 185.061C43.2726 184.992 43.2332 184.92 43.1929 184.845C43.1547 184.775 43.2079 184.884 43.2103 184.89C43.1914 184.838 43.1727 184.786 43.1571 184.734C43.1357 184.661 43.1182 184.589 43.1026 184.516C43.0662 184.344 43.0427 184.169 43.0159 183.995C42.9349 183.465 42.8462 182.94 42.7974 182.405C42.7622 182.02 42.4904 181.688 42.0751 181.688C41.7115 181.688 41.3176 182.017 41.3528 182.405L41.3531 182.405Z" fill="#726A69"/>
<path d="M36.4901 210.505C36.473 210.542 36.4558 210.578 36.4393 210.613H35.9526C34.3066 207.145 29.4707 192.596 27.8239 186.746L27.088 186.958C26.8581 187.025 24.6396 187.605 24.255 187.725C21.2502 188.661 18.5912 189.641 16.3683 191.568C14.889 192.851 13.9563 194.629 13.3475 196.456C12.5987 198.705 12.2902 201.1 12.0178 203.443C11.718 206.021 11.4996 208.637 11.5883 211.234C11.6777 214.793 11.7554 218.311 12.9719 221.517C13.699 223.434 15.0109 225.177 16.8576 226.165C17.5791 226.55 18.3868 226.748 19.2094 226.779C18.782 230.436 18.177 234.748 17.8099 236.942C17.7828 237.243 18.0025 237.512 18.3005 237.541C18.7579 237.589 19.2515 237.628 19.7692 237.655C20.1694 237.679 20.5878 237.697 21.0121 237.706C21.1325 237.711 21.2559 237.715 21.3763 237.715C21.5027 237.718 21.6291 237.721 21.7555 237.721C23.8713 237.744 26.0924 237.631 27.6604 237.386C29.8123 237.049 31.7174 236.276 32.6565 235.572C34.083 234.495 34.9107 233.259 35.3892 231.702C35.5698 231.12 35.9309 229.398 36.1897 227.72C36.4456 229.398 36.8068 231.12 36.9873 231.702C37.4658 233.259 38.2935 234.495 39.7201 235.572C40.6591 236.276 42.5642 237.049 44.7161 237.386C46.2843 237.631 48.5053 237.744 50.6208 237.721C50.7986 237.718 50.9733 237.715 51.1476 237.711C51.3013 237.708 51.4515 237.706 51.5991 237.703C51.6565 237.7 51.7103 237.697 51.7677 237.697C51.906 237.69 52.0444 237.685 52.1802 237.679C52.8541 237.649 53.4952 237.601 54.0758 237.541C54.3741 237.512 54.5939 237.243 54.5668 236.942C54.1573 234.498 53.4501 229.415 53.0288 225.549C55.5573 224.731 57.7102 223.23 58.9447 220.356C60.1357 217.583 60.2797 214.428 60.2797 211.453C60.2833 208.194 60.2233 204.902 59.9102 201.655C59.6294 198.743 59.408 196.106 57.6728 193.598C55.1663 189.975 51.1327 188.843 47.1821 187.433C46.3432 186.747 45.4781 186.139 44.8289 185.729C43.5549 190.632 38.289 206.615 36.4901 210.505Z" fill="#EBEBEB"/>
<path d="M33.7873 205.048C32.2109 200.647 30.2772 194.806 28.9268 190.443C29.1687 190.538 29.3264 190.6 29.3264 190.6C31.4133 191.563 33.7314 191.998 36.0548 191.937C38.3783 191.999 40.6963 191.563 42.7832 190.6C42.7832 190.6 43.0817 190.484 43.4889 190.325C41.3813 197.16 37.8073 207.726 36.4398 210.613H35.9531C35.4601 209.575 34.6812 207.542 33.7873 205.047V205.048Z" fill="#64C7FF"/>
<path d="M18.4871 226.777C18.1985 229.242 17.874 231.703 17.5147 234.158C17.4419 234.656 17.3675 235.153 17.2905 235.649C17.2219 236.091 17.0681 236.594 17.0876 237.041C17.121 237.802 17.7278 238.197 18.4263 238.27C19.0758 238.338 19.7295 238.375 20.382 238.402C22.9931 238.509 25.6937 238.482 28.2703 238.006C30.5413 237.585 32.8205 236.726 34.3789 234.97C36.1221 233.006 36.4974 230.407 36.8865 227.911C36.9461 227.529 36.7888 227.141 36.3821 227.03C36.0399 226.937 35.5536 227.146 35.4937 227.53C35.3165 228.667 35.1136 229.804 34.8475 230.923C34.6447 231.778 34.3344 232.585 33.8465 233.321C32.7146 235.028 30.8965 235.884 28.9603 236.386C26.6315 236.99 24.1492 237.028 21.7559 237.004C21.1609 236.998 20.5655 236.982 19.9712 236.95C19.6516 236.932 19.3319 236.914 19.0126 236.889C18.8811 236.879 18.7496 236.868 18.6183 236.856C18.5936 236.854 18.4432 236.823 18.4263 236.838C18.3929 236.867 18.4684 236.834 18.4991 236.908C18.5521 237.037 18.5133 237.093 18.5449 236.9C18.5584 236.818 18.5717 236.736 18.5849 236.655C18.6183 236.447 18.6511 236.238 18.6836 236.03C18.758 235.552 18.8296 235.073 18.8997 234.595C19.281 231.994 19.6262 229.387 19.932 226.777C19.9772 226.393 19.5679 226.061 19.2097 226.061C18.7818 226.061 18.5322 226.392 18.4871 226.777Z" fill="#726A69"/>
<path d="M52.3066 225.549C52.5649 227.909 52.8693 230.265 53.1952 232.616C53.3372 233.643 53.4848 234.669 53.6416 235.693C53.7036 236.1 53.761 236.509 53.8343 236.914C53.8661 237.09 53.8225 237.044 53.8779 236.909C53.9209 236.804 54.0475 236.827 53.8235 236.85C53.4899 236.885 53.1542 236.908 52.8191 236.928C50.308 237.086 47.7272 237.076 45.2306 236.743C43.0787 236.456 40.7941 235.794 39.2498 234.205C37.5298 232.435 37.2445 229.851 36.8867 227.53C36.8277 227.148 36.3428 226.936 35.9982 227.03C35.5859 227.143 35.4345 227.527 35.4938 227.911C35.8547 230.253 36.1966 232.713 37.715 234.63C39.2495 236.568 41.5874 237.516 43.9693 237.979C46.6439 238.499 49.4671 238.519 52.1806 238.395C52.8678 238.364 53.6467 238.39 54.3165 238.223C55.0411 238.042 55.3599 237.369 55.2518 236.68C55.1016 235.722 54.9494 234.765 54.8105 233.805C54.4129 231.058 54.0531 228.307 53.7518 225.548C53.7098 225.164 53.4499 224.832 53.0297 224.832C52.6715 224.832 52.2646 225.161 52.3071 225.548L52.3066 225.549Z" fill="#726A69"/>
<path d="M28.9609 191.218C31.2196 192.247 33.581 192.648 36.0537 192.653C38.5264 192.658 40.8929 192.245 43.1465 191.218C43.501 191.057 43.5889 190.549 43.4056 190.238C43.1928 189.878 42.7733 189.819 42.4173 189.981C40.3975 190.902 38.2579 191.216 36.0534 191.221C33.8488 191.225 31.7051 190.9 29.6895 189.981C29.3353 189.82 28.9115 189.882 28.7011 190.238C28.5191 190.547 28.6048 191.056 28.9609 191.218Z" fill="#119EED"/>
<path d="M26.9552 186.31C27.8253 189.513 28.8567 192.677 29.8869 195.832C31.1037 199.558 32.3557 203.276 33.7149 206.954C34.2145 208.306 34.7126 209.669 35.3287 210.975C35.4337 211.197 35.716 211.329 35.9523 211.329H36.4398C36.6761 211.329 36.9587 211.197 37.0634 210.975C37.603 209.831 38.0467 208.639 38.4888 207.456C39.1325 205.733 39.7432 203.997 40.3427 202.258C41.6739 198.396 42.9506 194.514 44.1556 190.611C44.6335 189.064 45.1091 187.513 45.5184 185.945C45.7516 185.053 44.3585 184.671 44.1252 185.565C43.2886 188.769 42.2472 191.927 41.224 195.077C39.9924 198.866 38.7247 202.648 37.3499 206.389C37.0637 207.167 36.7724 207.944 36.4669 208.715C36.3423 209.03 36.2144 209.343 36.0838 209.655C36.0434 209.751 36.1404 209.526 36.0561 209.719C36.0299 209.779 36.004 209.838 35.9775 209.898C35.9249 210.016 35.8713 210.134 35.8159 210.252L36.4395 209.896H35.952L36.5755 210.252C36.1021 209.249 35.6874 208.13 35.2658 207C34.6349 205.31 34.0351 203.61 33.4464 201.905C32.1526 198.161 30.9114 194.397 29.7358 190.614C29.2525 189.059 28.7748 187.5 28.3481 185.928C28.1064 185.039 26.7126 185.417 26.9549 186.309L26.9552 186.31Z" fill="#817F7F"/>
<path d="M41.7062 211.49C44.751 206.257 47.7617 200.999 50.5439 195.622C50.7529 195.219 50.959 194.808 50.8298 194.34C50.7125 193.918 50.3783 193.613 50.0826 193.309C49.4595 192.664 48.8066 192.049 48.1501 191.439L48.0041 192.563C48.5258 192.268 49.048 191.973 49.5702 191.677C50.0714 191.393 50.6689 191.137 50.6284 190.463C50.6043 190.063 50.3153 189.66 50.0837 189.342C49.8244 188.987 49.5394 188.65 49.235 188.332C48.0604 187.105 46.664 186.049 45.2316 185.135C44.4477 184.635 43.7226 185.874 44.5024 186.372C45.427 186.963 46.3119 187.616 47.1406 188.333C47.5777 188.712 48.001 189.108 48.391 189.535C48.557 189.716 48.7185 189.903 48.863 190.102C48.9316 190.197 48.9972 190.295 49.0587 190.394C49.0874 190.441 49.1125 190.492 49.1438 190.538C49.1781 190.589 49.1945 190.71 49.1889 190.579L49.2873 190.217C49.3478 190.102 49.3642 190.152 49.2325 190.218C49.1438 190.263 49.0582 190.317 48.9716 190.366C48.7758 190.477 48.5801 190.588 48.3843 190.699C48.0143 190.908 47.6443 191.117 47.2748 191.327C46.8802 191.55 46.7906 192.137 47.1288 192.451C47.6638 192.949 48.1968 193.45 48.7133 193.968C48.8302 194.084 48.946 194.202 49.0613 194.321C49.1515 194.414 49.4144 194.606 49.4492 194.731C49.4087 194.585 49.3667 194.764 49.3278 194.84C49.2453 195 49.1617 195.16 49.0787 195.32C48.4299 196.566 47.7683 197.805 47.0975 199.04C45.7243 201.567 44.3134 204.074 42.8835 206.57C42.0805 207.972 41.2713 209.371 40.4586 210.767C39.9934 211.567 41.2412 212.29 41.7062 211.49Z" fill="#817F7F"/>
<path d="M61.7572 156.242C61.3877 156.12 61.1156 155.971 61.0489 155.565C61.0218 155.4 61.0587 155.044 61.1166 154.793C61.3093 153.956 61.6706 153.095 62.1687 152.396C62.6299 151.748 63.2889 151.348 64.0002 151.022C64.8181 150.647 65.7693 150.382 66.4093 149.72C67.8212 148.258 67.2493 145.916 65.4741 145.031C64.6347 144.613 63.7035 144.565 62.8318 144.89C61.9355 145.225 61.3175 145.847 60.6425 146.487C60.2146 146.892 59.3604 146.603 59.1969 146.097C58.9776 145.42 59.6632 144.501 60.1009 144.063C61.2339 142.93 62.8928 142.544 64.4614 142.69C65.9527 142.83 67.3815 143.496 68.3408 144.671C69.3832 145.948 69.7132 147.705 69.1987 149.263C68.8999 150.167 68.3034 150.993 67.4753 151.48C66.6717 151.952 65.7769 152.264 64.9247 152.635C64.0002 153.037 63.3156 153.715 62.9804 154.675C62.7918 155.216 62.5822 156.458 61.7582 156.241C60.866 156.008 60.4104 157.369 61.3108 157.606C62.3778 157.885 63.3909 157.418 63.8593 156.419C64.1965 155.699 64.2964 154.797 64.9411 154.269C65.2634 154.006 65.6929 153.872 66.0737 153.714C66.5021 153.537 66.93 153.356 67.3507 153.159C68.3321 152.699 69.1859 152.109 69.8198 151.215C70.9651 149.597 71.146 147.445 70.4911 145.591C69.8357 143.737 68.2757 142.327 66.456 141.672C64.7187 141.047 62.7401 141.07 61.0336 141.749C60.1034 142.12 59.2973 142.73 58.6767 143.512C58.0884 144.252 57.5867 145.303 57.7666 146.277C57.9577 147.312 58.9473 148.013 59.9548 148.11C60.4704 148.159 60.9705 148.034 61.3913 147.735C61.7428 147.486 62.0088 147.126 62.3383 146.846C63.0148 146.273 63.8747 145.886 64.7459 146.264C65.4982 146.591 66.0035 147.422 65.6939 148.224C65.5018 148.723 65.0954 148.958 64.6336 149.17C64.115 149.408 63.58 149.613 63.0691 149.866C62.1149 150.341 61.297 151.015 60.7456 151.935C60.187 152.867 59.7186 153.993 59.6181 155.088C59.508 156.291 60.167 157.228 61.3108 157.606C62.1912 157.896 62.6422 156.533 61.7582 156.241L61.7572 156.242Z" fill="#E5005A"/>
<path d="M60.0455 161.59C59.9917 161.572 59.9389 161.551 59.8851 161.533C59.8554 161.524 59.7493 161.489 59.9 161.545C59.8195 161.515 59.7339 161.452 59.6642 161.402C59.6535 161.394 59.5868 161.354 59.5776 161.335L59.6417 161.392C59.615 161.368 59.5894 161.343 59.5643 161.316C59.51 161.26 59.4198 161.184 59.3936 161.109L59.4423 161.181C59.4239 161.15 59.4065 161.12 59.3901 161.088C59.3731 161.056 59.3578 161.024 59.3434 160.992C59.3296 160.961 59.3127 160.833 59.3178 160.931C59.3229 161.038 59.3147 160.892 59.3111 160.873C59.305 160.841 59.2993 160.809 59.2947 160.777L59.2891 160.73C59.2829 160.667 59.2829 160.667 59.2876 160.727L59.2911 160.772C59.2901 160.741 59.2901 160.711 59.2906 160.68C59.2917 160.634 59.2947 160.589 59.2988 160.544C59.3029 160.506 59.3091 160.469 59.3137 160.432C59.3265 160.335 59.2655 160.604 59.3111 160.462C59.3327 160.393 59.3506 160.323 59.3767 160.256C59.3844 160.237 59.4095 160.195 59.4095 160.178C59.409 160.281 59.3419 160.3 59.3942 160.213C59.4336 160.149 59.471 160.083 59.5151 160.022C59.5351 159.995 59.5587 159.97 59.5771 159.942C59.6304 159.862 59.4408 160.08 59.5433 159.983C59.5899 159.938 59.635 159.892 59.6852 159.851C59.7047 159.835 59.7252 159.821 59.7447 159.805C59.8502 159.719 59.6078 159.872 59.6924 159.839C59.7524 159.815 59.8656 159.77 59.9169 159.729C59.8256 159.803 59.8082 159.761 59.8969 159.739C59.9348 159.729 59.9737 159.721 60.0127 159.715C60.0106 159.715 60.1029 159.696 60.1085 159.701L60.0224 159.705C60.0557 159.704 60.0891 159.703 60.1224 159.703C60.1997 159.704 60.2771 159.71 60.354 159.721L60.3801 159.724C60.4575 159.738 60.4509 159.736 60.3591 159.719C60.3806 159.711 60.4596 159.744 60.4857 159.751C60.5687 159.775 60.6482 159.808 60.7291 159.84C60.7978 159.867 60.8045 159.912 60.6845 159.815C60.704 159.831 60.7373 159.843 60.7599 159.856C60.8424 159.901 60.9218 159.952 60.9966 160.009C61.01 160.019 61.0648 160.053 61.0756 160.072L61.0074 160.014C61.033 160.038 61.0581 160.063 61.0822 160.089C61.1068 160.116 61.1294 160.144 61.1534 160.172C61.2703 160.302 61.1078 160.075 61.1591 160.172C61.196 160.242 61.2677 160.331 61.2759 160.412C61.259 160.249 61.2621 160.378 61.2723 160.423C61.2821 160.467 61.2872 160.511 61.2959 160.555C61.32 160.675 61.2851 160.518 61.2959 160.504C61.2846 160.519 61.298 160.618 61.2969 160.638C61.2949 160.705 61.2857 160.771 61.2785 160.838C61.2682 160.937 61.3226 160.665 61.2826 160.811C61.2744 160.84 61.2677 160.869 61.259 160.898C61.2462 160.941 61.2319 160.983 61.216 161.025C61.1965 161.077 61.1232 161.187 61.2242 161.023C61.1811 161.093 61.1458 161.167 61.0996 161.236C61.0781 161.267 61.0551 161.297 61.0335 161.327C60.9444 161.456 61.1534 161.208 61.0427 161.318C60.9843 161.376 60.9254 161.432 60.8603 161.484C60.8086 161.524 60.7332 161.542 60.8921 161.467C60.8521 161.486 60.8142 161.514 60.7752 161.534C60.7409 161.552 60.7066 161.568 60.6712 161.582C60.5036 161.653 60.7799 161.568 60.64 161.594C60.5877 161.604 60.4427 161.665 60.3965 161.638L60.4801 161.634C60.4462 161.636 60.4124 161.636 60.3786 161.635C60.3274 161.635 60.2761 161.632 60.2254 161.627C60.2136 161.625 60.1377 161.623 60.1224 161.613C60.2172 161.633 60.2259 161.635 60.1485 161.617C60.1137 161.609 60.0798 161.6 60.0455 161.59C59.6837 161.486 59.2455 161.658 59.1379 162.043C59.0364 162.404 59.2102 162.842 59.5976 162.954C60.1475 163.112 60.703 163.109 61.2375 162.906C61.6782 162.739 62.0605 162.401 62.3183 162.011C62.883 161.156 62.884 159.98 62.1943 159.183C61.606 158.504 60.6102 158.153 59.7314 158.301C58.852 158.449 58.135 159.191 57.9326 160.047C57.7983 160.614 57.8296 161.24 58.1232 161.759C58.4476 162.332 58.9709 162.754 59.5976 162.954C59.9568 163.068 60.3991 162.878 60.5052 162.5C60.6087 162.131 60.4293 161.712 60.045 161.589L60.0455 161.59Z" fill="#E5005A"/>
<path d="M46.9889 188.126C49.0536 188.861 51.1665 189.516 53.0985 190.563C55.0797 191.637 56.7477 193.152 57.7701 195.17C58.8283 197.26 59.0016 199.655 59.2137 201.946C59.4776 204.791 59.5463 207.649 59.5555 210.505C59.5699 214.868 59.6227 220.45 55.75 223.388C52.8033 225.622 48.7318 225.727 45.1869 225.907C39.4632 226.198 33.7081 226.291 27.9814 226.019C27.2675 225.984 26.5542 225.938 25.8424 225.875C25.4533 225.84 25.1201 226.228 25.1201 226.59C25.1201 227.007 25.4524 227.272 25.8424 227.307C28.8223 227.573 31.8331 227.589 34.8232 227.597C37.8335 227.606 40.844 227.543 43.8509 227.405C45.9941 227.307 48.1455 227.219 50.2697 226.904C52.1883 226.62 54.1208 226.107 55.7858 225.091C57.6123 223.976 58.915 222.32 59.719 220.363C60.7527 217.848 60.9607 215.066 60.9956 212.378C61.0335 209.461 60.9879 206.534 60.7921 203.622C60.7004 202.263 60.5794 200.902 60.4114 199.55C60.2602 198.337 60.0583 197.125 59.658 195.965C58.8447 193.607 57.293 191.635 55.2488 190.2C53.3644 188.879 51.1644 188.077 49.0044 187.318C48.4607 187.127 47.9159 186.938 47.3727 186.745C47.0058 186.614 46.582 186.892 46.4846 187.245C46.3744 187.642 46.6204 187.996 46.9889 188.126Z" fill="#817F7F"/>
<path d="M26.896 186.268C22.8522 187.416 18.3447 188.429 15.3279 191.565C13.4363 193.532 12.5117 196.217 11.9763 198.83C11.678 200.286 11.4924 201.762 11.3193 203.237C11.1396 204.769 10.9855 206.306 10.9052 207.847C10.8269 209.351 10.8522 210.851 10.8946 212.356C10.9362 213.833 10.9955 215.311 11.1646 216.78C11.4689 219.425 12.0714 222.209 13.7285 224.371C15.2583 226.368 17.5267 227.74 20.124 227.463C21.3721 227.331 22.6043 226.918 23.6266 226.183C24.6869 225.421 25.5453 224.444 26.2487 223.352C27.7643 221.001 28.7813 218.288 29.6125 215.635C30.5181 212.745 31.18 209.787 31.8667 206.84C32.0359 206.114 32.2072 205.388 32.3832 204.663C32.6008 203.768 31.2083 203.385 30.99 204.283C29.6526 209.785 28.6434 215.466 26.1256 220.595C25.1423 222.597 23.868 224.74 21.687 225.625C20.6926 226.028 19.5504 226.192 18.4901 225.982C17.3967 225.767 16.4483 225.168 15.6601 224.4C13.9049 222.69 13.1696 220.285 12.773 217.938C12.5472 216.601 12.4527 215.245 12.3929 213.891C12.3299 212.469 12.2767 211.039 12.2923 209.615C12.3243 206.74 12.6249 203.846 13.0541 201.004C13.4351 198.482 14.0078 195.868 15.4444 193.709C16.7481 191.749 18.9018 190.488 21.0465 189.604C22.8339 188.868 24.6869 188.34 26.5529 187.844C26.7952 187.78 27.0384 187.718 27.2797 187.649C28.1718 187.396 27.7929 186.014 26.896 186.268Z" fill="#817F7F"/>
<path d="M17.8822 208.068C19.698 205.261 21.3259 202.339 23.0032 199.45C23.4679 198.649 22.2197 197.927 21.7557 198.727C20.0784 201.617 18.4505 204.538 16.6347 207.345C16.1316 208.123 17.3815 208.843 17.8822 208.068Z" fill="#817F7F"/>
<path d="M26.9601 188.398C27.2192 187.281 27.5523 186.248 27.9698 185.388C28.9446 183.381 30.3959 182.733 32.5562 182.441C33.5975 182.3 34.681 182.394 35.6528 182.79C36.7483 183.238 37.6163 184.199 37.0126 185.467C37.9489 185.671 38.3423 186.268 38.3052 187.019C38.2854 187.426 38.0037 188.171 37.3012 188.313L37.1817 188.337C37.7861 188.63 37.8851 189.159 37.8947 189.514C37.9118 190.144 37.3439 190.816 36.8181 190.758C36.438 190.715 36.1277 190.682 35.8403 190.656C36.0311 190.762 36.1392 190.822 36.1392 190.822C36.5003 191.021 36.7218 191.447 36.7474 191.76C36.7745 192.09 36.6981 192.439 36.5073 192.705C36.2069 193.125 35.6964 193.149 35.2574 193.198C34.6834 193.262 34.164 193.412 33.9716 193.945C33.897 194.152 33.6105 195.501 33.5 195.898C33.2782 196.698 32.9234 197.481 32.3326 198.082C31.7418 198.683 30.8892 199.084 30.0221 199.018C30.0221 199.018 29.6663 198.991 29.4015 198.971C28.0369 198.41 26.189 197.547 25.7448 196.869C25.2485 196.111 26.195 194.611 26.2738 193.345C26.3762 191.704 26.595 189.969 26.9601 188.398Z" fill="white"/>
<path d="M37.7864 185.475C38.376 183.761 37.0027 182.457 35.4753 181.965C33.9479 181.474 32.2047 181.619 30.6933 182.108C29.3747 182.534 28.3027 183.362 27.6 184.553C26.7909 185.924 26.375 187.541 26.0771 189.089C25.9049 189.984 25.7779 190.889 25.6819 191.795C25.5988 192.577 25.6027 193.371 25.3921 194.133C25.1989 194.832 24.8985 195.53 24.8805 196.264C24.863 196.977 25.2389 197.484 25.783 197.899C26.388 198.361 27.0742 198.709 27.7622 199.031C28.099 199.189 28.4396 199.339 28.7824 199.483C29.013 199.581 29.2017 199.668 29.453 199.691C29.6224 199.707 29.7928 199.718 29.9625 199.73C31.7217 199.85 33.169 198.614 33.8374 197.086C34.127 196.424 34.2847 195.74 34.4454 195.04C34.5068 194.774 34.5366 194.448 34.6488 194.196C34.7325 194.008 34.9353 193.974 35.134 193.935C35.5126 193.861 35.8984 193.866 36.2647 193.732C36.7692 193.546 37.1318 193.178 37.3256 192.682C37.6877 191.756 37.3503 190.731 36.5037 190.203C35.7142 189.711 34.9886 190.95 35.7745 191.44C36.0883 191.636 36.1648 192.194 35.7889 192.385C35.5598 192.5 35.2056 192.484 34.9585 192.521C34.6344 192.569 34.3078 192.653 34.0246 192.822C33.1109 193.371 33.0781 194.624 32.8448 195.55C32.5454 196.738 31.8646 198.041 30.5316 198.283C30.3207 198.321 30.1088 198.308 29.896 198.292C29.769 198.284 29.6107 198.287 29.4991 198.251C29.3859 198.214 29.2574 198.139 29.1424 198.088C28.4983 197.807 27.8591 197.508 27.2521 197.155C27.0546 197.04 26.8274 196.903 26.6625 196.777C26.5785 196.712 26.4993 196.64 26.4244 196.565C26.428 196.569 26.292 196.399 26.3501 196.485C26.3961 196.553 26.344 196.384 26.3464 196.474C26.3435 196.363 26.3266 196.14 26.3705 195.945C26.4464 195.608 26.5535 195.281 26.6546 194.952C27.0754 193.585 27.0513 192.157 27.2553 190.75C27.4624 189.321 27.758 187.889 28.2624 186.531C28.6254 185.554 29.1544 184.556 30.0342 183.983C31.0887 183.296 32.5442 183.038 33.8031 183.105C34.8466 183.16 36.8829 183.672 36.3938 185.094C36.0932 185.968 37.4881 186.344 37.787 185.475H37.7864Z" fill="#726A69"/>
<path d="M33.2675 185.719C34.0004 185.768 34.7341 185.822 35.4621 185.92C35.3388 185.903 35.5699 185.936 35.5699 185.936C35.6445 185.946 35.7192 185.958 35.7938 185.969C35.9702 185.997 36.146 186.027 36.3217 186.06C36.4782 186.089 36.635 186.117 36.7906 186.152C36.8653 186.168 36.9396 186.186 37.0127 186.208C37.0585 186.222 37.1039 186.237 37.1488 186.253C37.0931 186.229 37.0877 186.227 37.1328 186.248C37.1909 186.276 37.2454 186.309 37.3016 186.34C37.3281 186.356 37.3537 186.373 37.3787 186.391C37.3125 186.339 37.3098 186.339 37.3706 186.391C37.4091 186.433 37.4512 186.471 37.4885 186.515C37.3802 186.389 37.4852 186.522 37.5024 186.552C37.5415 186.62 37.5563 186.693 37.5222 186.581C37.5412 186.644 37.559 186.707 37.5758 186.77C37.6222 186.946 37.5894 186.699 37.5831 186.839C37.5804 186.897 37.5783 186.963 37.5828 187.02C37.5927 187.15 37.6261 186.862 37.5873 187.002C37.5743 187.05 37.5665 187.099 37.5529 187.147C37.5472 187.166 37.4756 187.358 37.5166 187.263C37.5574 187.169 37.4615 187.362 37.4503 187.38C37.4298 187.413 37.3218 187.541 37.4259 187.426C37.385 187.471 37.3441 187.512 37.2995 187.554C37.4088 187.453 37.277 187.562 37.2442 187.584C37.1704 187.62 37.1689 187.622 37.2397 187.588C37.1969 187.603 37.1533 187.614 37.109 187.623C36.7292 187.712 36.5038 188.141 36.6046 188.504C36.7115 188.889 37.1123 189.093 37.4931 189.004C39.0963 188.629 39.5441 186.351 38.3249 185.321C37.6797 184.775 36.8002 184.679 35.9909 184.56C35.0872 184.426 34.1786 184.348 33.2672 184.287C32.8775 184.261 32.5449 184.635 32.5449 185.003C32.5449 185.412 32.8766 185.693 33.2672 185.719L33.2675 185.719Z" fill="#726A69"/>
<path d="M33.2001 188.512C33.8948 188.548 34.5888 188.601 35.2801 188.68C35.3698 188.69 35.4595 188.701 35.5488 188.713C35.5868 188.717 35.625 188.722 35.6629 188.727C35.6301 188.722 35.5471 188.711 35.6954 188.732C35.863 188.757 36.0301 188.782 36.1968 188.812C36.3566 188.84 36.5185 188.867 36.675 188.91C36.7413 188.928 36.8075 188.949 36.871 188.975C36.7392 188.921 36.9315 189.02 36.9673 189.039C37.0097 189.062 37.0491 189.122 36.9511 189.023C36.9688 189.041 36.9902 189.054 37.0076 189.073C37.0576 189.127 37.1087 189.236 37.0356 189.091C37.0552 189.13 37.0843 189.168 37.1069 189.205C37.1052 189.202 37.1488 189.277 37.1458 189.282C37.1443 189.285 37.0946 189.12 37.119 189.228C37.1292 189.274 37.1464 189.318 37.1569 189.364C37.1611 189.383 37.1638 189.402 37.169 189.421C37.1927 189.509 37.1211 189.413 37.1599 189.342C37.1307 189.395 37.1738 189.582 37.1674 189.645C37.1813 189.508 37.1422 189.703 37.1277 189.746C37.1021 189.824 37.1298 189.742 37.1362 189.729C37.1163 189.769 37.0922 189.807 37.0717 189.846C37.016 189.954 37.1097 189.826 37.0272 189.913C36.9974 189.944 36.9667 189.973 36.9366 190.004C36.8881 190.054 36.8776 190.04 36.936 190.007C36.9017 190.027 36.8671 190.046 36.8325 190.066C36.8409 190.061 36.9474 190.026 36.8713 190.045C36.79 190.066 36.9207 190.044 36.927 190.044C36.8902 190.042 36.8547 190.044 36.8177 190.042C36.6269 190.031 36.4355 190 36.2453 189.98C35.4766 189.9 34.711 189.871 33.9381 189.882C33.5604 189.888 33.198 190.207 33.2158 190.598C33.2332 190.981 33.5333 191.321 33.9381 191.314C34.7368 191.302 35.5269 191.336 36.3211 191.42C36.7855 191.469 37.1876 191.516 37.6141 191.274C38.0339 191.037 38.3279 190.629 38.4974 190.189C38.7237 189.601 38.6268 188.843 38.2557 188.33C37.7393 187.617 36.9023 187.468 36.0798 187.35C35.1248 187.214 34.1638 187.129 33.2004 187.079C32.8224 187.059 32.4612 187.422 32.4781 187.795C32.4965 188.2 32.7956 188.49 33.2004 188.511L33.2001 188.512Z" fill="#726A69"/>
<path d="M30.2252 216.977C34.4024 216.638 38.5776 216.282 42.7429 215.817C44.1765 215.657 45.6087 215.487 47.04 215.308C47.4274 215.26 47.7625 215.014 47.7625 214.592C47.7625 214.243 47.4299 213.827 47.04 213.876C42.5919 214.43 38.134 214.886 33.6671 215.262C32.5201 215.358 31.3728 215.451 30.2252 215.545C29.8364 215.576 29.5029 215.851 29.5029 216.261C29.5029 216.624 29.8343 217.009 30.2252 216.977Z" fill="#817F7F"/>
<path d="M49.0862 204.78C49.0821 205.943 48.9268 207.12 48.8176 208.277C48.75 208.993 48.6793 209.708 48.6014 210.423C48.5706 210.701 48.5394 210.978 48.505 211.255C48.4968 211.318 48.4881 211.381 48.4809 211.444C48.5076 211.227 48.4922 211.365 48.484 211.415C48.4717 211.494 48.4604 211.574 48.4461 211.653C48.3749 212.033 48.5517 212.426 48.9504 212.534C49.3019 212.63 49.7672 212.416 49.839 212.034C50.0639 210.827 50.1393 209.579 50.2546 208.358C50.3663 207.174 50.5267 205.97 50.5308 204.78C50.5339 203.858 49.0897 203.857 49.0862 204.78Z" fill="#817F7F"/>
</g>
</g>
<defs>
<clipPath id="clip0_2421_22881">
<rect width="370" height="240" fill="white"/>
</clipPath>
</defs>
</svg>
