<svg width="454" height="266" viewBox="0 0 454 266" fill="none" xmlns="http://www.w3.org/2000/svg">
<mask id="mask0_1254_32259" style="mask-type:alpha" maskUnits="userSpaceOnUse" x="16" y="133" width="81" height="133">
<rect x="16" y="133" width="81" height="133" fill="#D9D9D9"/>
</mask>
<g mask="url(#mask0_1254_32259)">
<path d="M72.4803 261.948C69.0073 262.143 64.7264 262.019 61.9618 261.588C59.0918 261.138 56.5536 260.105 55.3007 259.166C53.3999 257.732 52.2967 256.08 51.6596 254.006C51.4185 253.229 50.9367 250.932 50.5941 248.694C50.2515 250.932 49.7696 253.229 49.5285 254.006C48.8915 256.081 47.7882 257.732 45.8874 259.166C44.6346 260.105 42.0963 261.138 39.2263 261.588C36.4613 262.019 32.1804 262.143 28.7078 261.948C28.051 266.016 27.9572 270.191 28.0711 274.366H73.1166C73.2306 270.191 73.1367 266.016 72.4803 261.949V261.948Z" fill="#726A69"/>
<path d="M29.0356 274.367C28.8639 268.056 29.178 261.672 31.2718 255.655C31.6774 254.491 29.8175 253.99 29.4147 255.147C27.2696 261.311 26.9338 267.901 27.1096 274.367C27.1429 275.595 29.0693 275.599 29.0356 274.367Z" fill="#726A69"/>
<path d="M69.9176 255.655C72.0078 261.672 72.3215 268.056 72.1498 274.367C72.1165 275.597 74.0421 275.597 74.0754 274.367C74.2515 267.901 73.9158 261.311 71.7743 255.147C71.3727 253.992 69.512 254.488 69.9172 255.655H69.9176Z" fill="#726A69"/>
<path d="M41.3687 187.022C36.289 187.022 30.0651 184.958 28.0656 181.274C26.3197 178.056 26.7305 174.263 27.3652 170.629C28.9631 161.917 28.0837 152.093 35.1135 145.415C37.726 142.933 43.6125 139.552 50.2267 139.552C54.2955 139.552 58.6278 140.377 62.1586 142.464C64.1324 143.63 65.8647 145.214 67.0951 147.156C69.9711 150.198 71.009 153.719 71.5895 157.669C72.2346 162.058 72.8327 166.458 73.7394 170.803C74.5614 174.743 74.9859 178.631 72.3698 182.073C69.2438 186.185 63.6329 187.233 58.6013 187.233" fill="#D0903A"/>
<path d="M41.3684 186.067C38.7739 186.057 36.1522 185.565 33.7508 184.581C31.651 183.722 29.6431 182.407 28.6618 180.328C27.3745 177.6 27.7142 174.367 28.19 171.491C28.637 168.787 28.9824 166.083 29.2905 163.36C29.8698 158.243 30.6007 152.901 33.6372 148.571C36.5317 144.443 41.451 141.888 46.3554 140.897C49.2836 140.305 52.3731 140.403 55.2989 140.97C58.2247 141.536 61.1629 142.63 63.4865 144.545C64.0751 145.03 64.6211 145.56 65.1294 146.127C65.9546 147.048 67.3126 145.692 66.491 144.776C64.2953 142.326 61.3583 140.68 58.2211 139.723C55.1472 138.785 51.7677 138.398 48.5603 138.666C45.4054 138.931 42.3444 139.857 39.5233 141.273C37.3116 142.383 35.2219 143.81 33.5502 145.637C29.5741 149.984 28.3124 155.702 27.6015 161.359C27.2569 164.099 27.0274 166.856 26.5745 169.582C26.0369 172.818 25.4327 176.146 26.2929 179.387C26.6595 180.767 27.285 182.072 28.231 183.152C29.0614 184.1 30.1221 184.865 31.2218 185.478C33.7062 186.862 36.5442 187.598 39.3657 187.876C40.0312 187.942 40.6992 187.975 41.3684 187.977C42.6076 187.982 42.6092 186.071 41.3684 186.067Z" fill="#B47119"/>
<path d="M67.0385 148.532C69.0669 150.986 70.0145 154.013 70.5316 157.099C71.1598 160.849 71.6055 164.625 72.2867 168.367C72.858 171.506 73.8798 174.807 73.1938 178.011C72.5664 180.941 70.5055 183.193 67.8513 184.51C65.0158 185.918 61.7309 186.272 58.6009 186.278C57.3621 186.281 57.3597 188.192 58.6009 188.189C64.8064 188.177 72.0111 186.441 74.561 180.121C75.8801 176.852 75.2234 173.305 74.5494 169.974C73.7402 165.976 73.179 161.934 72.5888 157.899C72.3108 155.999 71.9662 154.107 71.3111 152.294C70.6347 150.422 69.671 148.718 68.4005 147.181C68.0703 146.782 67.3811 146.841 67.0389 147.181C66.6409 147.576 66.7079 148.132 67.0389 148.532L67.0385 148.532Z" fill="#B47119"/>
<path d="M65.4228 195.395C65.2559 195.328 60.6051 193.131 60.4987 193.093C58.8575 192.504 58.9213 191.461 58.7151 190.29C58.5831 189.542 58.4848 188.798 58.4259 188.046C62.3674 185.972 65.4818 180.649 66.0454 179.131C66.238 178.733 66.5529 177.913 66.8081 177.076L67.0207 177.112C67.8251 177.247 68.6659 176.941 69.2376 176.477C70.6245 175.351 71.1998 173.78 71.5512 172.753C72.0471 171.304 72.0784 168.961 71.3394 167.689C71.0919 167.263 70.5166 166.538 69.165 166.49C68.544 166.468 67.8182 166.662 67.2795 167.176L65.6924 164.712C64.0584 160.826 61.6513 157.317 58.8447 154.477C54.9825 157.675 52.8856 159.02 45.9075 162.309C42.1047 164.102 37.9605 165.312 34.5257 166.355L33.9082 167.175C33.3695 166.662 32.6437 166.468 32.0227 166.49C30.6711 166.537 30.0958 167.263 29.8483 167.689C29.1093 168.96 29.1406 171.303 29.6365 172.753C29.9875 173.78 30.5632 175.35 31.9501 176.477C32.5647 176.976 33.4918 177.292 34.3491 177.073C34.9774 179.191 36.1151 181.747 38.113 184.12C39.7073 186.014 41.3842 187.408 43.2621 188.255C43.2621 188.255 43.3456 188.292 43.4286 188.333C43.3716 188.989 43.2794 189.613 43.1622 190.29C42.9492 191.46 43.0202 192.504 41.3786 193.093C41.2719 193.131 36.085 195.54 35.7649 195.646C35.7649 195.646 37.4843 206.031 50.7678 206.031C64.0512 206.031 65.4224 195.395 65.4224 195.395H65.4228Z" fill="white"/>
<path d="M34.5892 166.501C33.4562 165.492 31.8323 165.257 30.4474 165.896C29.4124 166.373 28.8026 167.358 28.5366 168.429C27.9388 170.834 28.5414 173.568 29.911 175.619C30.8514 177.028 32.3474 178.307 34.1671 178.068C34.6827 178 35.13 177.678 35.13 177.113C35.13 176.649 34.6863 176.089 34.1671 176.157C32.7791 176.34 31.8379 175.2 31.2365 174.097C30.7395 173.185 30.3616 172.14 30.2721 171.104C30.1846 170.091 30.1911 168.857 30.7944 167.993C30.906 167.833 30.717 168.061 30.859 167.922C30.8955 167.885 31.0993 167.711 31.0532 167.743C31.2345 167.616 31.4271 167.543 31.6417 167.494C32.1961 167.369 32.7983 167.47 33.228 167.853C34.1483 168.672 35.5143 167.325 34.5896 166.502L34.5892 166.501Z" fill="#726A69"/>
<path d="M67.9606 167.851C68.3914 167.468 68.9904 167.369 69.5468 167.493C69.7607 167.541 69.9552 167.616 70.1354 167.742C70.0756 167.7 70.2666 167.86 70.2962 167.887C70.3291 167.919 70.3604 167.953 70.3905 167.988C70.3319 167.906 70.3328 167.907 70.3941 167.992C70.9975 168.856 71.0035 170.091 70.9165 171.103C70.827 172.139 70.4499 173.184 69.952 174.096C69.3495 175.198 68.4107 176.339 67.0214 176.156C66.5051 176.089 66.0586 176.644 66.0586 177.112C66.0586 177.684 66.5035 177.999 67.0214 178.067C69.9913 178.457 71.8183 175.214 72.5368 172.831C73.1663 170.742 73.1751 167.497 71.1524 166.123C69.7627 165.179 67.821 165.413 66.5994 166.5C65.6751 167.323 67.0403 168.67 67.961 167.851L67.9606 167.851Z" fill="#726A69"/>
<path d="M66.1945 175.607C65.943 176.816 65.478 177.994 65.0548 179.035C65.1511 178.798 65.0099 179.129 64.9529 179.247C64.8715 179.416 64.7856 179.583 64.6973 179.749C64.4947 180.13 64.2781 180.504 64.0523 180.872C62.8495 182.832 61.3848 184.67 59.594 186.134C58.6227 186.928 57.5219 187.549 56.3067 187.829C55.1 188.106 55.6107 189.949 56.8186 189.671C59.3721 189.083 61.4983 187.24 63.1668 185.315C64.5473 183.722 65.8379 181.929 66.7121 180.005C66.7987 179.815 66.8749 179.62 66.9572 179.428C66.8368 179.709 67.0972 179.11 67.1092 179.081C67.1718 178.931 67.2328 178.78 67.291 178.628C67.6039 177.811 67.8727 176.971 68.0508 176.115C68.3003 174.914 66.4449 174.401 66.1937 175.607L66.1945 175.607Z" fill="#726A69"/>
<path d="M33.0885 176.056C33.8476 179.376 35.4178 182.479 37.6564 185.059C39.8243 187.557 42.6177 189.543 45.9636 190.036C46.4775 190.112 46.9986 189.909 47.1478 189.369C47.2726 188.918 46.993 188.27 46.4755 188.193C43.4161 187.742 41.0006 185.992 39.018 183.708C36.9944 181.376 35.63 178.542 34.9456 175.549C34.6716 174.35 32.8145 174.857 33.0885 176.056Z" fill="#726A69"/>
<path d="M50.2298 173.535C50.3726 174.076 50.5094 174.624 50.5913 175.177L50.5568 174.923C50.5664 174.999 50.5708 175.074 50.5628 175.15L50.5973 174.896C50.5921 174.931 50.584 174.964 50.572 174.998L50.6691 174.77C50.6587 174.793 50.6474 174.813 50.633 174.835L50.7834 174.642C50.7666 174.662 50.7501 174.678 50.7293 174.695L50.9242 174.545C50.8825 174.572 50.8384 174.594 50.7931 174.614L51.0229 174.518C50.9507 174.548 50.8793 174.57 50.8019 174.582L51.0578 174.548C50.988 174.556 50.9202 174.555 50.8504 174.548L51.1064 174.582C51.0282 174.571 50.9515 174.552 50.8733 174.542C50.7453 174.502 50.6173 174.496 50.4894 174.525C50.3614 174.53 50.2418 174.568 50.1315 174.638C49.9317 174.754 49.7412 174.981 49.689 175.209C49.6329 175.453 49.6449 175.728 49.7861 175.945C49.9113 176.138 50.1211 176.352 50.3614 176.384C50.5495 176.409 50.7321 176.457 50.9234 176.465C51.2223 176.478 51.4983 176.386 51.7647 176.265C52.0961 176.114 52.3561 175.811 52.4439 175.457C52.5189 175.157 52.4872 174.902 52.4359 174.6C52.346 174.071 52.2225 173.547 52.0857 173.028C52.0247 172.798 51.8498 172.577 51.6432 172.457C51.4366 172.337 51.1325 172.287 50.9014 172.361C50.3999 172.522 50.0918 173.018 50.229 173.536L50.2298 173.535Z" fill="#726A69"/>
<path d="M41.5922 168.855C41.3158 169.746 41.496 171.796 43.197 171.97C45.4452 171.957 45.5647 169.479 44.8081 168.314C44.1883 167.36 42.3665 166.963 41.5922 168.855Z" fill="#726A69"/>
<path d="M59.5963 168.855C59.8727 169.746 59.6926 171.796 57.9916 171.97C55.7434 171.957 55.6234 169.479 56.3804 168.314C57.0002 167.36 58.822 166.963 59.5963 168.855Z" fill="#726A69"/>
<path d="M58.1638 153.802C56.1021 155.507 53.9955 157.047 51.6178 158.374C48.1769 160.293 44.5719 162.018 40.8533 163.335C38.6818 164.105 36.4737 164.765 34.2696 165.434C33.0881 165.793 33.5916 167.638 34.7815 167.277C38.9465 166.013 43.0739 164.712 47.0114 162.842C49.9882 161.429 52.9765 159.98 55.6925 158.105C57.0208 157.188 58.2833 156.18 59.5254 155.153C59.925 154.822 59.8696 154.143 59.5254 153.801C59.1298 153.409 58.5646 153.47 58.1638 153.802Z" fill="#B47119"/>
<path d="M58.1639 155.153C60.9975 158.038 63.2372 161.51 64.8612 165.195C65.0694 165.668 65.7671 165.776 66.1787 165.538C66.6705 165.252 66.7331 164.705 66.5241 164.23C64.8367 160.401 62.4686 156.798 59.5255 153.802C58.659 152.92 57.2982 154.271 58.1639 155.153Z" fill="#B47119"/>
<path d="M67.7334 176.712C66.3967 176.712 65.4731 177.645 65.4731 178.737C65.4731 179.958 66.4167 180.799 67.7338 180.799C69.1014 180.799 69.9944 179.95 69.9944 178.737C69.9944 177.638 69.0653 176.712 67.7334 176.712Z" fill="white"/>
<path d="M67.7337 175.756C66.3608 175.773 65.1312 176.531 64.659 177.832C64.2125 179.063 64.7501 180.449 65.7928 181.188C66.8202 181.916 68.3238 181.921 69.4218 181.355C70.5921 180.751 71.1116 179.426 70.8982 178.175C70.6438 176.684 69.1755 175.774 67.7337 175.756C67.2298 175.75 66.748 176.2 66.7712 176.712C66.7949 177.235 67.1941 177.661 67.7341 177.667C67.8019 177.668 67.8697 177.673 67.9375 177.675C68.1348 177.678 67.8725 177.673 67.8781 177.662C67.8885 177.641 68.1525 177.717 68.189 177.727C68.2484 177.744 68.3062 177.765 68.3647 177.784C68.5288 177.836 68.307 177.772 68.3021 177.756C68.3126 177.789 68.5665 177.897 68.6098 177.926C68.6331 177.942 68.7944 178.033 68.6512 177.952C68.5168 177.877 68.6552 177.961 68.6833 177.987C68.7418 178.041 68.8084 178.149 68.8742 178.19C68.7346 178.103 68.7779 178.048 68.8385 178.151C68.8618 178.19 68.8883 178.228 68.9107 178.267C68.9328 178.306 68.9492 178.352 68.9741 178.388C69.0058 178.455 68.9918 178.421 68.932 178.285C68.9456 178.319 68.9581 178.353 68.9693 178.388C68.9938 178.462 68.9962 178.596 69.0367 178.655C69.0271 178.641 69.0174 178.406 69.0243 178.567C69.0267 178.623 69.0315 178.679 69.0315 178.736C69.0315 178.775 69.0307 178.815 69.0287 178.854C69.0235 178.961 68.9609 179.05 69.0403 178.829C69.007 178.922 69.0026 179.03 68.9733 179.126C68.9617 179.164 68.9312 179.216 68.93 179.254C68.9356 179.094 69.013 179.088 68.9524 179.196C68.9095 179.273 68.8654 179.348 68.8197 179.423C68.7567 179.526 68.7202 179.463 68.8594 179.376C68.8377 179.39 68.8092 179.433 68.7896 179.454C68.7535 179.493 68.7158 179.53 68.6764 179.565C68.5745 179.656 68.5589 179.597 68.7053 179.548C68.6287 179.574 68.5485 179.652 68.4742 179.691C68.4305 179.715 68.3615 179.733 68.3234 179.764C68.3415 179.749 68.5449 179.687 68.394 179.73C68.2989 179.758 68.2067 179.789 68.11 179.811C68.0791 179.818 67.9487 179.824 67.929 179.844L68.0602 179.826C68.0177 179.83 67.9748 179.834 67.9319 179.837C67.8227 179.843 67.7124 179.845 67.6033 179.84C67.5608 179.838 67.5182 179.833 67.4753 179.831C67.2531 179.823 67.698 179.876 67.4841 179.833C67.3859 179.813 67.2884 179.792 67.1921 179.763C67.1548 179.751 67.1183 179.738 67.081 179.726C66.9851 179.69 67.0083 179.7 67.1508 179.759C67.1163 179.743 67.0822 179.727 67.0485 179.71C66.9654 179.668 66.8884 179.617 66.8094 179.569C66.7267 179.518 66.7889 179.496 66.8727 179.62C66.8467 179.581 66.7853 179.546 66.7508 179.513C66.7247 179.488 66.6994 179.462 66.675 179.436C66.6541 179.414 66.5478 179.275 66.6461 179.41C66.746 179.549 66.6417 179.4 66.6268 179.377C66.5971 179.332 66.5694 179.285 66.5438 179.238C66.4868 179.133 66.5229 179.071 66.5482 179.269C66.5442 179.239 66.5205 179.196 66.5101 179.165C66.48 179.076 66.4611 178.985 66.4391 178.893C66.3901 178.692 66.4479 179.126 66.4427 178.916C66.4419 178.876 66.4375 178.837 66.4363 178.797C66.4347 178.739 66.4355 178.681 66.4387 178.624C66.4403 178.596 66.4423 178.568 66.4455 178.54C66.4535 178.464 66.4483 178.503 66.4298 178.657C66.4736 178.577 66.4876 178.428 66.5149 178.339C66.5602 178.192 66.494 178.403 66.4804 178.416C66.5229 178.377 66.5522 178.274 66.5835 178.223C66.6023 178.192 66.624 178.163 66.6433 178.132C66.7359 177.979 66.486 178.291 66.6461 178.13C66.6922 178.083 66.8507 177.973 66.8675 177.915L66.762 177.994C66.7929 177.971 66.8242 177.949 66.8559 177.928C66.9044 177.896 66.9542 177.866 67.0047 177.837C67.0465 177.814 67.0974 177.797 67.1363 177.77C67.2025 177.739 67.1716 177.751 67.044 177.807C67.0818 177.792 67.1199 177.778 67.1588 177.765C67.2787 177.725 67.4007 177.699 67.5247 177.673C67.6739 177.641 67.4645 177.678 67.4633 177.68C67.4741 177.657 67.7048 177.668 67.7341 177.667C68.2375 177.661 68.7202 177.232 68.6965 176.712C68.6732 176.2 68.2733 175.75 67.7337 175.756Z" fill="#726A69"/>
<path d="M48.4112 181.812C48.5335 181.748 48.6571 181.686 48.7823 181.628C48.9929 181.53 48.5849 181.696 48.8268 181.612C48.9175 181.58 49.0077 181.548 49.1 181.519C49.3495 181.444 49.6035 181.394 49.8602 181.35C49.7182 181.374 49.8033 181.356 49.8967 181.346C49.9714 181.338 50.0464 181.332 50.1214 181.326C50.3023 181.313 50.4841 181.306 50.6658 181.305C50.8351 181.304 51.0044 181.308 51.1733 181.318C51.2511 181.322 51.329 181.328 51.4068 181.335C51.4321 181.337 51.7213 181.378 51.4962 181.342C51.7502 181.383 52.0013 181.433 52.2473 181.509C52.3483 181.541 52.4543 181.598 52.5574 181.62C52.5269 181.613 52.3616 181.527 52.4739 181.587C52.5168 181.609 52.5618 181.628 52.6051 181.651C52.6685 181.684 52.7307 181.719 52.7912 181.757C52.8711 181.806 53.0925 181.976 52.7937 181.745C53.19 182.051 53.7741 182.157 54.1553 181.745C54.4722 181.402 54.5797 180.721 54.1553 180.393C53.1876 179.645 51.9821 179.401 50.7713 179.394C49.5967 179.386 48.4786 179.617 47.4403 180.161C46.9942 180.395 46.8217 181.048 47.0949 181.469C47.3874 181.919 47.935 182.061 48.4124 181.811L48.4112 181.812Z" fill="#726A69"/>
<path d="M36.0214 196.567C36.5256 196.392 37.0135 196.139 37.4985 195.919C38.2704 195.569 39.0406 195.214 39.8109 194.86C40.4159 194.582 41.02 194.302 41.6258 194.025C41.6884 193.997 41.7522 193.971 41.814 193.94C41.8577 193.918 41.954 193.878 41.7446 193.968C41.4862 194.079 41.7446 193.973 41.8116 193.946C41.9444 193.893 42.0772 193.84 42.2059 193.778C42.7644 193.511 43.2711 193.08 43.5675 192.534C43.848 192.017 43.9442 191.463 44.0333 190.891C44.1661 190.039 44.3137 189.192 44.3916 188.333C44.4385 187.818 43.9158 187.377 43.4287 187.377C42.8691 187.377 42.5128 187.817 42.4659 188.333C42.4057 188.993 42.2942 189.642 42.1899 190.297C42.1229 190.718 42.0723 191.144 41.9227 191.546C41.8738 191.677 41.9969 191.414 41.9231 191.534C41.8954 191.579 41.8709 191.626 41.8441 191.672C41.7406 191.848 41.8802 191.674 41.7666 191.773C41.7225 191.811 41.6824 191.856 41.6391 191.895C41.7442 191.8 41.6331 191.902 41.6078 191.918C41.489 191.994 41.3546 192.073 41.2383 192.127C41.0674 192.206 40.8556 192.283 40.6694 192.368C39.3812 192.955 38.0979 193.553 36.8097 194.14C36.4755 194.292 36.1413 194.444 35.8059 194.594C35.6996 194.641 35.5929 194.688 35.4866 194.734C35.2459 194.841 35.7064 194.655 35.5091 194.724C35.0184 194.894 34.6923 195.377 34.8367 195.899C34.9675 196.371 35.5279 196.738 36.021 196.566L36.0214 196.567Z" fill="#726A69"/>
<path d="M57.4789 188.238C57.5519 189.039 57.6687 189.832 57.8007 190.625C57.8709 191.047 57.9098 191.478 58.0374 191.888C58.1942 192.392 58.4606 192.877 58.8598 193.233C59.0816 193.431 59.3304 193.608 59.5971 193.742C59.7701 193.828 59.9502 193.903 60.1307 193.972C60.497 194.112 59.9189 193.866 60.0557 193.937C61.1954 194.524 62.3881 195.029 63.5495 195.574C64.0863 195.826 64.6191 196.088 65.1671 196.316C65.6469 196.515 66.2262 196.101 66.3514 195.649C66.5038 195.098 66.1604 194.674 65.679 194.474C66.1664 194.676 65.6469 194.45 65.5322 194.397C65.2834 194.281 65.0347 194.164 64.786 194.048C64.1128 193.732 63.44 193.415 62.7673 193.099C62.2469 192.855 61.727 192.609 61.2051 192.368C61.035 192.289 60.7557 192.178 60.6655 192.137C60.5568 192.089 60.4533 192.03 60.351 191.97C60.3309 191.958 60.1696 191.848 60.2595 191.915C60.3373 191.972 60.2282 191.887 60.2214 191.881C60.1785 191.838 59.9827 191.614 60.1042 191.78C60.0376 191.689 59.9851 191.592 59.9313 191.493C59.8804 191.398 59.9514 191.545 59.9546 191.553C59.9293 191.483 59.9044 191.415 59.8836 191.344C59.8551 191.248 59.8318 191.151 59.811 191.053C59.7624 190.823 59.7311 190.59 59.6954 190.358C59.5875 189.651 59.4692 188.951 59.4042 188.237C59.3572 187.723 58.995 187.282 58.4413 187.282C57.9567 187.282 57.4316 187.72 57.4785 188.237L57.4789 188.238Z" fill="#726A69"/>
<path d="M50.9965 225.725C50.9736 225.775 50.9508 225.824 50.9287 225.87H50.28C48.086 221.244 41.6398 201.832 39.4446 194.029L38.4637 194.312C38.1572 194.4 35.2001 195.174 34.6874 195.334C30.682 196.583 27.1376 197.89 24.1745 200.462C22.2027 202.173 20.9595 204.546 20.1479 206.983C19.1498 209.983 18.7386 213.178 18.3755 216.305C17.9759 219.744 17.6847 223.233 17.803 226.697C17.9222 231.447 18.0257 236.139 19.6472 240.417C20.6165 242.974 22.3652 245.298 24.8268 246.616C25.7885 247.132 26.8652 247.394 27.9616 247.436C27.392 252.316 26.5856 258.068 26.0962 260.994C26.0601 261.396 26.3529 261.755 26.7501 261.794C27.3599 261.858 28.0178 261.91 28.7078 261.946C29.2414 261.977 29.799 262.001 30.3647 262.013C30.5252 262.021 30.6897 262.025 30.8501 262.025C31.0186 262.029 31.1871 262.033 31.3556 262.033C34.1759 262.065 37.1366 261.914 39.2267 261.587C42.0952 261.137 44.6346 260.106 45.8863 259.167C47.7879 257.73 48.8911 256.082 49.529 254.003C49.7697 253.227 50.2511 250.93 50.5961 248.693C50.9371 250.93 51.4185 253.227 51.6593 254.003C52.2971 256.082 53.4004 257.73 55.302 259.167C56.5536 260.106 59.0931 261.137 61.9615 261.587C64.0517 261.914 67.0124 262.065 69.8326 262.033C70.0693 262.029 70.302 262.025 70.5347 262.021C70.7393 262.017 70.9399 262.013 71.1365 262.009C71.2127 262.005 71.2849 262.001 71.3611 262.001C71.5457 261.993 71.7302 261.985 71.9107 261.978C72.8094 261.938 73.6639 261.874 74.4382 261.794C74.8353 261.755 75.1282 261.396 75.0921 260.994C74.5465 257.734 73.6037 250.953 73.0425 245.795C76.4128 244.704 79.2824 242.702 80.928 238.868C82.5159 235.168 82.7077 230.959 82.7077 226.99C82.7121 222.642 82.6326 218.25 82.215 213.919C81.8403 210.033 81.5454 206.516 79.2323 203.17C75.8916 198.337 70.5146 196.827 65.2488 194.946C64.1303 194.03 62.9773 193.219 62.112 192.672C60.4138 199.213 53.3944 220.536 50.9965 225.725Z" fill="#EBEBEB"/>
<path d="M47.3931 218.445C45.2917 212.574 42.7141 204.782 40.9141 198.96C41.2366 199.087 41.4468 199.17 41.4468 199.17C44.2286 200.456 47.3185 201.036 50.4156 200.954C53.5127 201.037 56.6025 200.456 59.3843 199.17C59.3843 199.17 59.7823 199.015 60.3251 198.804C57.5156 207.922 52.7516 222.019 50.9287 225.87H50.28C49.6228 224.485 48.5846 221.773 47.3931 218.445V218.445Z" fill="#64C7FF"/>
<path d="M26.9986 247.435C26.6139 250.723 26.1814 254.007 25.7024 257.282C25.6053 257.945 25.5062 258.608 25.4035 259.271C25.3121 259.86 25.1071 260.532 25.1331 261.127C25.1777 262.143 25.9864 262.67 26.9176 262.767C27.7833 262.858 28.6547 262.907 29.5244 262.943C33.0051 263.087 36.6048 263.05 40.0393 262.414C43.0666 261.853 46.1047 260.708 48.182 258.365C50.5057 255.744 51.0059 252.278 51.5247 248.947C51.6041 248.438 51.3943 247.92 50.8523 247.772C50.3961 247.648 49.7478 247.927 49.668 248.439C49.4317 249.956 49.1613 251.472 48.8067 252.966C48.5363 254.105 48.1227 255.182 47.4724 256.164C45.9635 258.442 43.54 259.584 40.9592 260.253C37.8549 261.059 34.546 261.11 31.3558 261.078C30.5627 261.07 29.7691 261.048 28.9768 261.006C28.5508 260.983 28.1247 260.958 27.6991 260.925C27.5238 260.912 27.3484 260.897 27.1735 260.881C27.1406 260.878 26.94 260.837 26.9176 260.856C26.873 260.895 26.9737 260.851 27.0147 260.95C27.0853 261.122 27.0335 261.197 27.0756 260.94C27.0937 260.831 27.1113 260.721 27.129 260.612C27.1735 260.334 27.2173 260.057 27.2606 259.779C27.3597 259.141 27.4552 258.502 27.5486 257.864C28.0569 254.394 28.5171 250.917 28.9247 247.435C28.9848 246.921 28.4392 246.479 27.9618 246.479C27.3914 246.479 27.0592 246.92 26.999 247.435L26.9986 247.435Z" fill="#726A69"/>
<path d="M72.0793 245.795C72.4231 248.944 72.8287 252.086 73.2632 255.224C73.4529 256.593 73.6491 257.962 73.8581 259.328C73.9412 259.871 74.0174 260.417 74.1153 260.958C74.1578 261.192 74.0996 261.13 74.173 260.95C74.2304 260.811 74.3993 260.841 74.1012 260.872C73.6559 260.919 73.2086 260.949 72.7621 260.977C69.4151 261.186 65.9746 261.173 62.6468 260.729C59.7784 260.346 56.733 259.463 54.6746 257.343C52.3818 254.983 52.0015 251.535 51.5245 248.439C51.4459 247.928 50.7996 247.646 50.3402 247.771C49.7906 247.921 49.5888 248.435 49.6679 248.947C50.1489 252.071 50.6046 255.353 52.6286 257.911C54.6742 260.496 57.7905 261.76 60.9655 262.379C64.5303 263.073 68.2938 263.098 71.9108 262.933C72.8267 262.892 73.8653 262.927 74.7584 262.704C75.724 262.462 76.1489 261.565 76.0048 260.645C75.8046 259.367 75.602 258.09 75.4167 256.809C74.8863 253.146 74.4069 249.474 74.0054 245.794C73.9492 245.281 73.603 244.839 73.0425 244.839C72.5655 244.839 72.0231 245.278 72.0797 245.794L72.0793 245.795Z" fill="#726A69"/>
<path d="M40.9608 199.995C43.9716 201.368 47.1193 201.903 50.4153 201.909C53.7114 201.915 56.8659 201.365 59.8699 199.995C60.3425 199.78 60.4596 199.102 60.2153 198.688C59.9317 198.206 59.3725 198.129 58.8979 198.345C56.2055 199.573 53.3536 199.992 50.4149 199.998C47.4763 200.004 44.6187 199.57 41.932 198.345C41.4598 198.129 40.895 198.212 40.6146 198.688C40.3718 199.099 40.4862 199.778 40.9608 199.995Z" fill="#119EED"/>
<path d="M38.286 193.447C39.4458 197.72 40.8206 201.94 42.1939 206.15C43.8158 211.121 45.4847 216.081 47.2965 220.988C47.9624 222.792 48.6264 224.61 49.4476 226.351C49.5876 226.648 49.9639 226.825 50.2788 226.825H50.9287C51.2436 226.825 51.6204 226.648 51.76 226.351C52.4793 224.825 53.0706 223.236 53.6599 221.657C54.5181 219.358 55.3321 217.043 56.1312 214.723C57.9056 209.57 59.6074 204.391 61.2137 199.185C61.8508 197.12 62.4847 195.051 63.0303 192.96C63.3412 191.769 61.4841 191.261 61.1732 192.452C60.0579 196.728 58.6699 200.941 57.3059 205.143C55.6642 210.198 53.9745 215.243 52.1419 220.234C51.7604 221.272 51.372 222.309 50.9648 223.337C50.7987 223.757 50.6282 224.175 50.4541 224.591C50.4004 224.719 50.5296 224.419 50.4172 224.676C50.3823 224.756 50.3478 224.835 50.3125 224.915C50.2423 225.073 50.1709 225.23 50.0971 225.387L50.9283 224.913H50.2784L51.1097 225.387C50.4786 224.049 49.9258 222.556 49.3637 221.049C48.5229 218.795 47.7233 216.526 46.9386 214.252C45.2139 209.256 43.5595 204.235 41.9925 199.189C41.3482 197.114 40.7115 195.035 40.1426 192.938C39.8205 191.752 37.9626 192.255 38.2856 193.446L38.286 193.447Z" fill="#817F7F"/>
<path d="M57.9495 227.04C62.0082 220.058 66.0212 213.044 69.7301 205.871C70.0085 205.333 70.2833 204.784 70.1108 204.16C69.9548 203.598 69.5091 203.191 69.1151 202.784C68.2843 201.924 67.4141 201.104 66.5391 200.289L66.3442 201.79C67.0402 201.396 67.7359 201.001 68.4319 200.607C69.0999 200.228 69.8966 199.888 69.8424 198.988C69.8104 198.454 69.4256 197.916 69.1167 197.493C68.7709 197.018 68.391 196.569 67.9854 196.145C66.4196 194.508 64.5581 193.1 62.6489 191.88C61.6038 191.213 60.6374 192.866 61.6769 193.531C62.9093 194.318 64.0887 195.19 65.1932 196.147C65.7761 196.651 66.3406 197.18 66.8601 197.749C67.0815 197.992 67.297 198.24 67.4891 198.507C67.5806 198.634 67.6681 198.763 67.7503 198.896C67.7888 198.959 67.8221 199.027 67.8634 199.088C67.9096 199.156 67.9312 199.318 67.9236 199.142L68.0552 198.66C68.1354 198.506 68.1575 198.573 67.9822 198.662C67.8638 198.722 67.7499 198.794 67.6344 198.859C67.3732 199.007 67.1124 199.155 66.8513 199.302C66.3582 199.581 65.8652 199.861 65.3725 200.14C64.8466 200.438 64.7266 201.221 65.1775 201.64C65.8912 202.305 66.6013 202.973 67.2897 203.663C67.4454 203.819 67.6003 203.977 67.7535 204.135C67.8743 204.26 68.2245 204.514 68.271 204.682C68.2169 204.487 68.1611 204.725 68.109 204.827C67.9986 205.041 67.8879 205.254 67.7768 205.467C66.9122 207.13 66.03 208.783 65.1358 210.43C63.3056 213.802 61.4249 217.146 59.5189 220.476C58.4486 222.347 57.3698 224.212 56.2866 226.076C55.6664 227.143 57.3297 228.106 57.9495 227.04V227.04Z" fill="#817F7F"/>
<path d="M84.6772 153.334C84.185 153.172 83.8224 152.973 83.7333 152.432C83.697 152.211 83.7461 151.736 83.8234 151.401C84.0805 150.284 84.562 149.136 85.2257 148.204C85.8408 147.339 86.7192 146.806 87.6673 146.37C88.7572 145.87 90.0256 145.517 90.8783 144.634C92.7607 142.683 91.9979 139.559 89.6317 138.378C88.5127 137.819 87.2715 137.756 86.1094 138.19C84.9153 138.636 84.091 139.466 83.1914 140.32C82.6214 140.862 81.4827 140.476 81.2642 139.799C80.9724 138.896 81.8863 137.671 82.4696 137.087C83.9796 135.575 86.1908 135.06 88.2822 135.255C90.2697 135.441 92.1746 136.33 93.4528 137.897C94.8427 139.6 95.2828 141.946 94.5968 144.023C94.1987 145.229 93.4034 146.332 92.2995 146.981C91.2282 147.61 90.0355 148.027 88.8995 148.522C87.6671 149.059 86.7548 149.964 86.3081 151.244C86.0566 151.965 85.777 153.622 84.6786 153.334C83.4896 153.021 82.882 154.838 84.0821 155.153C85.5044 155.527 86.8553 154.903 87.4792 153.57C87.9291 152.61 88.0618 151.406 88.9215 150.702C89.3511 150.351 89.9234 150.173 90.4308 149.962C91.0025 149.725 91.5726 149.484 92.1336 149.221C93.4417 148.608 94.5796 147.821 95.4245 146.627C96.9511 144.47 97.1924 141.599 96.3192 139.125C95.446 136.651 93.3667 134.771 90.9408 133.897C88.6253 133.063 85.9876 133.093 83.7127 134C82.4732 134.494 81.3985 135.308 80.5708 136.351C79.7867 137.339 79.1181 138.741 79.3579 140.04C79.6129 141.421 80.9322 142.356 82.2748 142.485C82.9618 142.551 83.6289 142.383 84.1892 141.985C84.6584 141.653 85.0125 141.172 85.4521 140.799C86.3537 140.034 87.4998 139.517 88.661 140.023C89.6639 140.459 90.3375 141.568 89.9252 142.638C89.6691 143.303 89.1274 143.617 88.5117 143.9C87.8201 144.218 87.1073 144.49 86.426 144.829C85.1541 145.461 84.0639 146.361 83.3287 147.588C82.5842 148.832 81.96 150.334 81.8261 151.795C81.679 153.4 82.557 154.65 84.0816 155.153C85.2553 155.541 85.8565 153.723 84.6781 153.334L84.6772 153.334Z" fill="#E5005A"/>
<path d="M82.3951 160.468C82.3228 160.445 82.2527 160.416 82.1808 160.393C82.1413 160.38 82.0003 160.334 82.201 160.409C82.0933 160.368 81.9798 160.285 81.8869 160.218C81.8723 160.207 81.7835 160.154 81.7711 160.129L81.8563 160.205C81.8209 160.172 81.7866 160.139 81.7533 160.104C81.6811 160.029 81.561 159.927 81.5258 159.828L81.5912 159.923C81.5665 159.882 81.5429 159.841 81.5211 159.799C81.499 159.757 81.4783 159.714 81.4588 159.67C81.4409 159.63 81.418 159.459 81.4246 159.589C81.4319 159.732 81.4206 159.538 81.4157 159.512C81.4075 159.47 81.4004 159.427 81.3944 159.385L81.3864 159.321C81.3786 159.238 81.3781 159.237 81.3848 159.318L81.3894 159.378C81.3882 159.337 81.3879 159.296 81.3889 159.255C81.3903 159.194 81.3939 159.133 81.3998 159.073C81.4048 159.023 81.4131 158.974 81.4194 158.925C81.4363 158.795 81.3554 159.153 81.4157 158.964C81.445 158.872 81.4686 158.779 81.5035 158.689C81.5135 158.664 81.5472 158.607 81.5471 158.585C81.5464 158.723 81.4572 158.748 81.527 158.632C81.5791 158.546 81.6288 158.459 81.6881 158.377C81.7143 158.341 81.7457 158.307 81.7703 158.27C81.8413 158.163 81.5886 158.455 81.7252 158.325C81.7879 158.265 81.8476 158.204 81.9146 158.15C81.9408 158.128 81.9682 158.109 81.9941 158.088C82.1349 157.973 81.8116 158.177 81.9243 158.133C82.0044 158.102 82.1552 158.042 82.2236 157.987C82.1016 158.084 82.0789 158.029 82.1965 157.999C82.2476 157.986 82.2993 157.975 82.3513 157.967C82.3484 157.967 82.4714 157.942 82.4786 157.949L82.3642 157.954C82.4085 157.952 82.453 157.952 82.4974 157.952C82.6007 157.953 82.7038 157.962 82.806 157.975L82.8408 157.98C82.9442 157.998 82.935 157.995 82.813 157.972C82.8413 157.963 82.9466 158.006 82.9814 158.016C83.0924 158.048 83.1985 158.091 83.3061 158.134C83.3979 158.17 83.4065 158.23 83.2465 158.102C83.2728 158.123 83.3168 158.138 83.3472 158.155C83.4568 158.216 83.5629 158.284 83.6628 158.36C83.6804 158.373 83.7538 158.418 83.7682 158.443L83.6769 158.366C83.7112 158.398 83.7445 158.432 83.7767 158.467C83.8097 158.502 83.8394 158.54 83.8718 158.577C84.0273 158.75 83.811 158.447 83.8791 158.577C83.9284 158.671 84.0238 158.789 84.0351 158.898C84.0128 158.68 84.0164 158.852 84.0303 158.913C84.0435 158.971 84.0501 159.03 84.0619 159.088C84.0939 159.249 84.0476 159.039 84.0617 159.021C84.0467 159.039 84.0643 159.172 84.0632 159.199C84.0604 159.289 84.0478 159.377 84.0385 159.466C84.0249 159.598 84.0973 159.234 84.0437 159.43C84.0332 159.469 84.0238 159.507 84.0124 159.546C83.9951 159.603 83.9762 159.66 83.955 159.716C83.9291 159.784 83.8316 159.932 83.9659 159.712C83.9085 159.806 83.8618 159.905 83.7997 159.997C83.7715 160.038 83.7405 160.077 83.712 160.118C83.593 160.29 83.8719 159.96 83.7241 160.106C83.6461 160.184 83.5677 160.259 83.4807 160.327C83.4118 160.381 83.3113 160.405 83.5233 160.305C83.4703 160.33 83.4197 160.368 83.3674 160.394C83.3221 160.418 83.2758 160.439 83.2291 160.459C83.0054 160.553 83.3737 160.44 83.1873 160.475C83.1178 160.488 82.924 160.57 82.8628 160.533L82.9738 160.528C82.929 160.53 82.8839 160.53 82.839 160.529C82.7708 160.528 82.7026 160.524 82.6345 160.517C82.6187 160.516 82.5178 160.514 82.4974 160.5C82.6237 160.527 82.6352 160.529 82.5318 160.506C82.4858 160.494 82.4398 160.482 82.3945 160.468C81.9122 160.33 81.3286 160.56 81.1849 161.073C81.0501 161.555 81.2815 162.139 81.798 162.288C82.5307 162.5 83.2716 162.495 83.9839 162.224C84.5711 162.001 85.081 161.551 85.4247 161.03C86.1773 159.89 86.1787 158.321 85.2589 157.258C84.4747 156.351 83.1476 155.883 81.9759 156.081C80.8042 156.279 79.8482 157.268 79.5782 158.41C79.3992 159.167 79.4409 160.002 79.8326 160.694C80.2652 161.459 80.9624 162.022 81.798 162.288C82.2766 162.441 82.8665 162.187 83.0074 161.683C83.1453 161.19 82.9068 160.632 82.3942 160.468L82.3951 160.468Z" fill="#E5005A"/>
<path d="M64.9912 195.87C67.7433 196.85 70.56 197.724 73.1356 199.121C75.7761 200.554 77.9999 202.574 79.3623 205.267C80.7732 208.055 81.0039 211.25 81.2871 214.307C81.6385 218.102 81.73 221.916 81.7424 225.725C81.7613 231.546 81.8319 238.993 76.6696 242.912C72.742 245.893 67.3145 246.033 62.5894 246.273C54.9598 246.662 47.2884 246.785 39.6548 246.422C38.7032 246.376 37.7524 246.314 36.8036 246.229C36.2849 246.183 35.8408 246.701 35.8408 247.185C35.8408 247.74 36.2837 248.094 36.8036 248.14C40.7757 248.495 44.7891 248.516 48.7748 248.528C52.7874 248.539 56.8004 248.455 60.8086 248.272C63.6653 248.141 66.5334 248.023 69.3649 247.603C71.922 247.224 74.498 246.54 76.7177 245.184C79.1524 243.697 80.8883 241.488 81.9607 238.877C83.3383 235.521 83.6156 231.811 83.6621 228.224C83.7126 224.332 83.6521 220.427 83.3905 216.543C83.2685 214.73 83.1073 212.914 82.883 211.111C82.682 209.492 82.4128 207.875 81.8793 206.327C80.7949 203.182 78.7268 200.551 76.0016 198.637C73.4898 196.874 70.5576 195.804 67.6783 194.792C66.9534 194.537 66.2273 194.285 65.5032 194.027C65.0137 193.853 64.4493 194.224 64.3189 194.694C64.172 195.224 64.5002 195.695 64.9912 195.87V195.87Z" fill="#817F7F"/>
<path d="M38.2077 193.391C32.8175 194.923 26.809 196.275 22.7876 200.458C20.2662 203.082 19.0338 206.664 18.3201 210.15C17.9225 212.092 17.675 214.062 17.4443 216.029C17.2048 218.074 16.9994 220.123 16.8923 222.18C16.788 224.186 16.8217 226.187 16.8782 228.195C16.9336 230.165 17.0126 232.138 17.2381 234.097C17.6437 237.625 18.4468 241.34 20.6557 244.224C22.6949 246.888 25.7186 248.718 29.1808 248.349C30.8445 248.172 32.4869 247.622 33.8497 246.641C35.263 245.624 36.4072 244.321 37.3448 242.865C39.3651 239.727 40.7207 236.109 41.8287 232.57C43.0359 228.713 43.9181 224.768 44.8335 220.836C45.059 219.867 45.2873 218.899 45.522 217.932C45.812 216.737 43.9558 216.227 43.6649 217.424C41.8821 224.765 40.5369 232.344 37.1807 239.186C35.87 241.857 34.1714 244.716 31.2641 245.896C29.9386 246.434 28.4161 246.653 27.0028 246.374C25.5453 246.086 24.2812 245.287 23.2305 244.263C20.8908 241.981 19.9107 238.773 19.382 235.641C19.0811 233.858 18.9551 232.048 18.8753 230.243C18.7915 228.345 18.7204 226.438 18.7413 224.538C18.7838 220.703 19.1846 216.842 19.7567 213.05C20.2646 209.685 21.028 206.198 22.9428 203.318C24.6808 200.703 27.5516 199.02 30.4104 197.842C32.793 196.859 35.263 196.156 37.7503 195.494C38.0733 195.408 38.3974 195.325 38.7192 195.234C39.9083 194.896 39.4028 193.052 38.2073 193.391L38.2077 193.391Z" fill="#817F7F"/>
<path d="M26.1921 222.475C28.6124 218.73 30.7824 214.832 33.0182 210.977C33.6376 209.91 31.9739 208.946 31.3553 210.013C29.1195 213.868 26.9495 217.765 24.5292 221.511C23.8585 222.549 25.5246 223.508 26.1921 222.475Z" fill="#817F7F"/>
<path d="M38.2933 196.233C38.6387 194.744 39.0828 193.365 39.6392 192.218C40.9387 189.541 42.8731 188.677 45.7528 188.286C47.1409 188.099 48.5851 188.223 49.8805 188.752C51.3408 189.349 52.4978 190.632 51.6931 192.323C52.9411 192.596 53.4655 193.391 53.4161 194.394C53.3896 194.938 53.0141 195.93 52.0778 196.12L51.9185 196.152C52.7241 196.543 52.8561 197.248 52.8689 197.722C52.8918 198.563 52.1348 199.46 51.4339 199.382C50.9272 199.325 50.5136 199.28 50.1305 199.246C50.3848 199.387 50.5288 199.467 50.5288 199.467C51.0102 199.733 51.3055 200.301 51.3396 200.719C51.3757 201.16 51.2738 201.625 51.0195 201.98C50.6191 202.54 49.9387 202.571 49.3534 202.637C48.5883 202.723 47.8959 202.923 47.6395 203.634C47.5401 203.909 47.1581 205.709 47.0109 206.24C46.7152 207.307 46.2422 208.351 45.4547 209.153C44.6672 209.955 43.5307 210.49 42.3749 210.402C42.3749 210.402 41.9007 210.366 41.5477 210.339C39.7287 209.59 37.2655 208.44 36.6733 207.534C36.0118 206.523 37.2735 204.522 37.3786 202.833C37.515 200.644 37.8067 198.33 38.2933 196.233V196.233Z" fill="white"/>
<path d="M52.7246 192.334C53.5105 190.047 51.6799 188.307 49.644 187.652C47.608 186.997 45.2844 187.189 43.2696 187.842C41.5121 188.411 40.0831 189.515 39.1463 191.104C38.068 192.933 37.5135 195.091 37.1164 197.155C36.8869 198.349 36.7176 199.556 36.5896 200.765C36.4789 201.809 36.4841 202.867 36.2033 203.884C35.9457 204.816 35.5454 205.748 35.5213 206.728C35.498 207.679 35.9991 208.356 36.7244 208.909C37.5308 209.525 38.4455 209.989 39.3626 210.419C39.8115 210.63 40.2656 210.83 40.7226 211.023C41.0299 211.152 41.2814 211.269 41.6164 211.3C41.8423 211.321 42.0693 211.335 42.2956 211.351C44.6405 211.512 46.5697 209.863 47.4608 207.824C47.8467 206.941 48.0569 206.028 48.2711 205.095C48.353 204.739 48.3927 204.305 48.5423 203.969C48.6539 203.717 48.9243 203.673 49.189 203.621C49.6937 203.522 50.208 203.529 50.6963 203.349C51.3686 203.102 51.8521 202.611 52.1104 201.949C52.593 200.713 52.1433 199.346 51.0148 198.642C49.9625 197.985 48.9953 199.638 50.0427 200.292C50.4612 200.553 50.5631 201.299 50.062 201.552C49.7567 201.707 49.2845 201.685 48.9551 201.734C48.5231 201.798 48.0878 201.91 47.7103 202.136C46.4923 202.867 46.4486 204.54 46.1377 205.775C45.7385 207.361 44.831 209.098 43.0542 209.421C42.773 209.472 42.4906 209.454 42.2069 209.434C42.0376 209.422 41.8266 209.426 41.6778 209.378C41.5269 209.33 41.3556 209.229 41.2024 209.162C40.3438 208.787 39.4917 208.388 38.6826 207.916C38.4194 207.762 38.1165 207.581 37.8967 207.412C37.7847 207.326 37.6792 207.229 37.5793 207.13C37.5841 207.135 37.4028 206.908 37.4802 207.022C37.5416 207.113 37.4722 206.889 37.4754 207.008C37.4714 206.86 37.4489 206.562 37.5075 206.301C37.6086 205.853 37.7514 205.416 37.8862 204.978C38.4471 203.153 38.415 201.249 38.687 199.371C38.963 197.465 39.357 195.554 40.0293 193.743C40.5131 192.44 41.2184 191.107 42.3911 190.343C43.7968 189.427 45.7369 189.083 47.415 189.172C48.8059 189.246 51.5203 189.929 50.8684 191.826C50.4676 192.993 52.327 193.493 52.7254 192.334L52.7246 192.334Z" fill="#726A69"/>
<path d="M46.7005 192.659C47.6774 192.725 48.6555 192.797 49.6259 192.927C49.4614 192.905 49.7695 192.948 49.7695 192.948C49.869 192.962 49.9685 192.977 50.068 192.993C50.3031 193.03 50.5374 193.071 50.7717 193.114C50.9803 193.153 51.1893 193.191 51.3967 193.237C51.4962 193.258 51.5953 193.282 51.6928 193.311C51.7538 193.33 51.8144 193.35 51.8741 193.372C51.7999 193.339 51.7927 193.337 51.8529 193.365C51.9303 193.402 52.0029 193.447 52.0779 193.488C52.1132 193.509 52.1473 193.532 52.1806 193.556C52.0924 193.487 52.0888 193.487 52.1698 193.556C52.2212 193.612 52.2773 193.663 52.3271 193.721C52.1826 193.553 52.3227 193.731 52.3455 193.771C52.3977 193.862 52.4173 193.959 52.372 193.81C52.3973 193.894 52.4209 193.977 52.4434 194.062C52.5052 194.296 52.4615 193.966 52.453 194.153C52.4494 194.231 52.4466 194.318 52.4526 194.395C52.4659 194.568 52.5104 194.184 52.4586 194.371C52.4414 194.435 52.431 194.5 52.4129 194.563C52.4053 194.59 52.3098 194.845 52.3644 194.719C52.4189 194.593 52.291 194.851 52.2761 194.875C52.2488 194.92 52.1048 195.09 52.2436 194.937C52.1891 194.997 52.1345 195.052 52.0751 195.108C52.2207 194.972 52.045 195.118 52.0013 195.147C51.903 195.196 51.901 195.198 51.9953 195.153C51.9383 195.172 51.8801 195.188 51.8212 195.2C51.3149 195.318 51.0144 195.891 51.1488 196.375C51.2912 196.889 51.8256 197.161 52.3331 197.042C54.4702 196.542 55.0671 193.503 53.4419 192.128C52.5818 191.401 51.4096 191.273 50.3308 191.113C49.1261 190.935 47.9149 190.83 46.7001 190.749C46.1806 190.714 45.7373 191.213 45.7373 191.704C45.7373 192.25 46.1794 192.625 46.7001 192.66L46.7005 192.659Z" fill="#726A69"/>
<path d="M46.6111 196.385C47.5371 196.433 48.4622 196.504 49.3837 196.61C49.5032 196.623 49.6228 196.638 49.7419 196.653C49.7925 196.659 49.8434 196.666 49.894 196.672C49.8502 196.666 49.7395 196.651 49.9373 196.679C50.1608 196.712 50.3834 196.746 50.6057 196.785C50.8187 196.822 51.0345 196.859 51.2431 196.916C51.3314 196.941 51.4197 196.969 51.5043 197.003C51.3286 196.931 51.5849 197.063 51.6327 197.088C51.6892 197.119 51.7418 197.199 51.611 197.067C51.6347 197.091 51.6632 197.11 51.6864 197.135C51.753 197.206 51.8212 197.352 51.7238 197.158C51.7498 197.209 51.7887 197.26 51.8188 197.31C51.8164 197.306 51.8746 197.406 51.8706 197.413C51.8686 197.417 51.8024 197.196 51.8349 197.341C51.8485 197.402 51.8714 197.461 51.8854 197.522C51.891 197.547 51.8947 197.574 51.9015 197.599C51.9332 197.716 51.8377 197.588 51.8894 197.493C51.8505 197.564 51.9079 197.813 51.8995 197.898C51.9179 197.714 51.8658 197.974 51.8465 198.032C51.8124 198.135 51.8493 198.026 51.8577 198.009C51.8313 198.063 51.7992 198.113 51.7719 198.166C51.6977 198.31 51.8224 198.139 51.7125 198.254C51.6728 198.296 51.6319 198.335 51.5918 198.376C51.5272 198.443 51.5131 198.425 51.591 198.379C51.5452 198.406 51.4991 198.432 51.453 198.458C51.4642 198.452 51.6062 198.405 51.5047 198.43C51.3964 198.458 51.5705 198.429 51.5789 198.43C51.53 198.427 51.4826 198.43 51.4333 198.427C51.1789 198.411 50.9238 198.37 50.6703 198.344C49.6456 198.237 48.625 198.198 47.5948 198.213C47.0913 198.221 46.6083 198.647 46.632 199.169C46.6553 199.68 47.0552 200.133 47.5948 200.124C48.6595 200.108 49.7126 200.153 50.7714 200.265C51.3904 200.33 51.9263 200.393 52.4948 200.071C53.0545 199.754 53.4464 199.21 53.6723 198.622C53.974 197.838 53.8448 196.827 53.3501 196.143C52.6617 195.191 51.546 194.993 50.4496 194.836C49.1767 194.654 47.8957 194.54 46.6115 194.474C46.1077 194.448 45.6262 194.932 45.6487 195.429C45.6732 195.969 46.0719 196.357 46.6115 196.385L46.6111 196.385Z" fill="#726A69"/>
<path d="M42.645 234.36C48.2129 233.908 53.7785 233.433 59.3308 232.813C61.2416 232.6 63.1508 232.372 65.0588 232.134C65.5747 232.07 66.0216 231.741 66.0216 231.179C66.0216 230.713 65.5783 230.159 65.0588 230.223C59.1294 230.963 53.1871 231.571 47.2328 232.072C45.7039 232.2 44.1747 232.325 42.645 232.449C42.1266 232.491 41.6821 232.858 41.6821 233.405C41.6821 233.889 42.1238 234.402 42.645 234.36Z" fill="#817F7F"/>
<path d="M67.7868 218.088C67.7811 219.641 67.5737 221.21 67.4285 222.754C67.3387 223.709 67.2444 224.663 67.1401 225.617C67.0995 225.987 67.0578 226.357 67.0117 226.727C67.0013 226.811 66.9896 226.894 66.9796 226.978C67.0153 226.69 66.9948 226.873 66.984 226.941C66.9672 227.046 66.9527 227.152 66.9331 227.258C66.8384 227.764 67.0739 228.288 67.6054 228.433C68.074 228.561 68.6946 228.276 68.7897 227.766C69.0902 226.156 69.1901 224.49 69.3437 222.862C69.493 221.283 69.7064 219.676 69.712 218.088C69.7164 216.858 67.7912 216.857 67.7868 218.088Z" fill="#817F7F"/>
</g>
</svg>
