<svg width="63" height="21" viewBox="0 0 63 21" fill="none" xmlns="http://www.w3.org/2000/svg">
<path fill-rule="evenodd" clip-rule="evenodd" d="M7.96675 6.23834C7.96675 7.32596 7.10605 9.50879 6.04431 9.50879C4.98257 9.50879 4.12186 7.32596 4.12186 6.23834C4.12186 5.15073 4.98257 4.26904 6.04431 4.26904C7.10605 4.26904 7.96675 5.15073 7.96675 6.23834ZM10.017 13.1638C9.41 12.2714 7.48553 10.9846 6.61444 11.6065C5.74335 12.2283 6.2555 14.5233 6.86253 15.4156C7.46957 16.3079 8.66782 16.5272 9.53892 15.9054C10.41 15.2835 10.6241 14.0561 10.017 13.1638ZM6.98806 10.3361C7.2563 11.3884 9.53552 11.69 10.5628 11.4153C11.5901 11.1405 12.2055 10.0646 11.9372 9.01232C11.669 7.95998 10.6188 7.32964 9.59145 7.60442C8.56415 7.87919 6.71983 9.28374 6.98806 10.3361ZM1.33845 11.1397C2.34992 11.4704 4.64163 11.2941 4.96445 10.258C5.28728 9.22187 3.51896 7.71823 2.50749 7.38754C1.49601 7.05685 0.414354 7.62872 0.0915326 8.66485C-0.231288 9.70097 0.326974 10.809 1.33845 11.1397ZM5.03449 11.4712C5.95267 12.0174 5.62699 14.3478 5.09385 15.2883C4.56071 16.2289 3.38418 16.5486 2.466 16.0025C1.54782 15.4564 1.23569 14.2512 1.76883 13.3106C2.30198 12.3701 4.11632 10.9251 5.03449 11.4712Z" fill="#FDD000"/>
<path d="M58.9024 16.992V4.536H55.5664V1.944C56.2224 1.928 56.8144 1.872 57.3424 1.776C57.8704 1.664 58.3424 1.472 58.7584 1.2C59.1744 0.911999 59.5344 0.511999 59.8384 0H62.3344V16.992H58.9024Z" fill="#E5005A"/>
<path d="M45.0117 20.538V7.50599H47.3697L47.4957 8.69399C47.8797 8.22599 48.3177 7.88399 48.8097 7.66799C49.3137 7.45199 49.8657 7.34399 50.4657 7.34399C51.4017 7.34399 52.1757 7.55999 52.7877 7.99199C53.3997 8.42399 53.8557 9.01199 54.1557 9.75599C54.4677 10.488 54.6237 11.31 54.6237 12.222C54.6237 13.158 54.4617 13.998 54.1377 14.742C53.8257 15.474 53.3517 16.056 52.7157 16.488C52.0797 16.908 51.2877 17.118 50.3397 17.118C49.9317 17.118 49.5477 17.07 49.1877 16.974C48.8277 16.878 48.5097 16.752 48.2337 16.596C47.9577 16.428 47.7237 16.242 47.5317 16.038V20.538H45.0117ZM49.9077 14.85C50.4717 14.85 50.9157 14.724 51.2397 14.472C51.5637 14.22 51.7917 13.902 51.9237 13.518C52.0557 13.122 52.1217 12.714 52.1217 12.294C52.1217 11.838 52.0497 11.406 51.9057 10.998C51.7617 10.59 51.5217 10.266 51.1857 10.026C50.8617 9.774 50.4177 9.64799 49.8537 9.64799C49.3497 9.64799 48.9237 9.774 48.5757 10.026C48.2277 10.266 47.9637 10.584 47.7837 10.98C47.6037 11.376 47.5137 11.802 47.5137 12.258C47.5137 12.714 47.5977 13.14 47.7657 13.536C47.9457 13.932 48.2097 14.25 48.5577 14.49C48.9177 14.73 49.3677 14.85 49.9077 14.85Z" fill="#E5005A"/>
<path d="M38.9949 17.118C37.9989 17.118 37.1529 16.92 36.4569 16.524C35.7609 16.128 35.2269 15.57 34.8549 14.85C34.4829 14.118 34.2969 13.266 34.2969 12.294C34.2969 11.31 34.4889 10.452 34.8729 9.71999C35.2569 8.97599 35.7969 8.39399 36.4929 7.97399C37.2009 7.55399 38.0349 7.34399 38.9949 7.34399C39.7149 7.34399 40.3449 7.46399 40.8849 7.70399C41.4369 7.94399 41.8989 8.27999 42.2709 8.712C42.6549 9.14399 42.9369 9.648 43.1169 10.224C43.3089 10.788 43.3989 11.4 43.3869 12.06C43.3869 12.228 43.3809 12.39 43.3689 12.546C43.3569 12.702 43.3329 12.858 43.2969 13.014H36.7989C36.8349 13.374 36.9369 13.704 37.1049 14.004C37.2729 14.304 37.5069 14.544 37.8069 14.724C38.1189 14.892 38.5029 14.976 38.9589 14.976C39.2589 14.976 39.5349 14.946 39.7869 14.886C40.0389 14.814 40.2549 14.706 40.4349 14.562C40.6149 14.418 40.7409 14.25 40.8129 14.058H43.2969C43.1409 14.766 42.8469 15.348 42.4149 15.804C41.9949 16.26 41.4849 16.596 40.8849 16.812C40.2849 17.016 39.6549 17.118 38.9949 17.118ZM36.8529 11.25H40.9749C40.9629 10.926 40.8789 10.626 40.7229 10.35C40.5789 10.062 40.3569 9.83399 40.0569 9.66599C39.7689 9.48599 39.3969 9.39599 38.9409 9.39599C38.4849 9.39599 38.1009 9.48599 37.7889 9.66599C37.4889 9.84599 37.2609 10.08 37.1049 10.368C36.9609 10.644 36.8769 10.938 36.8529 11.25Z" fill="#E5005A"/>
<path d="M30.9329 17.118C29.8649 17.118 29.0729 16.818 28.5569 16.218C28.0529 15.618 27.8009 14.796 27.8009 13.752V9.75595H26.3789V7.50595H27.8009V4.94995H30.3209V7.50595H33.2009V9.75595H30.3209V13.23C30.3209 13.542 30.3569 13.812 30.4289 14.04C30.5129 14.268 30.6449 14.448 30.8249 14.58C31.0169 14.7 31.2749 14.76 31.5989 14.76C31.8869 14.76 32.1269 14.718 32.3189 14.634C32.5229 14.538 32.6909 14.436 32.8229 14.328L33.6149 16.272C33.3629 16.476 33.0809 16.644 32.7689 16.776C32.4689 16.896 32.1629 16.98 31.8509 17.028C31.5389 17.088 31.2329 17.118 30.9329 17.118Z" fill="#E5005A"/>
<path d="M20.346 17.136C19.458 17.136 18.63 16.998 17.862 16.722C17.106 16.446 16.47 16.008 15.954 15.408C15.45 14.808 15.132 14.034 15 13.086H17.628C17.736 13.494 17.934 13.824 18.222 14.076C18.51 14.316 18.852 14.49 19.248 14.598C19.656 14.706 20.082 14.76 20.526 14.76C20.862 14.76 21.192 14.718 21.516 14.634C21.84 14.55 22.104 14.406 22.308 14.202C22.524 13.998 22.632 13.722 22.632 13.374C22.632 13.11 22.572 12.894 22.452 12.726C22.344 12.558 22.182 12.426 21.966 12.33C21.762 12.222 21.51 12.126 21.21 12.042C20.958 11.97 20.694 11.91 20.418 11.862C20.154 11.814 19.89 11.754 19.626 11.682C19.374 11.61 19.128 11.526 18.888 11.43C18.432 11.31 17.994 11.166 17.574 10.998C17.154 10.818 16.782 10.596 16.458 10.332C16.134 10.056 15.876 9.714 15.684 9.306C15.504 8.898 15.414 8.406 15.414 7.83C15.414 7.206 15.516 6.678 15.72 6.246C15.936 5.814 16.218 5.46 16.566 5.184C16.926 4.896 17.322 4.674 17.754 4.518C18.198 4.362 18.642 4.254 19.086 4.194C19.53 4.134 19.95 4.104 20.346 4.104C21.174 4.104 21.918 4.248 22.578 4.536C23.238 4.824 23.778 5.256 24.198 5.832C24.618 6.408 24.858 7.134 24.918 8.01H22.416C22.368 7.65 22.236 7.356 22.02 7.128C21.804 6.9 21.528 6.732 21.192 6.624C20.868 6.516 20.502 6.462 20.094 6.462C19.83 6.462 19.572 6.486 19.32 6.534C19.068 6.582 18.84 6.66 18.636 6.768C18.444 6.864 18.288 6.996 18.168 7.164C18.06 7.332 18.006 7.536 18.006 7.776C18.006 8.016 18.072 8.226 18.204 8.406C18.336 8.574 18.528 8.724 18.78 8.856C19.044 8.976 19.35 9.09 19.698 9.198C20.058 9.318 20.436 9.414 20.832 9.486C21.228 9.558 21.606 9.654 21.966 9.774C22.422 9.894 22.848 10.038 23.244 10.206C23.64 10.362 23.988 10.566 24.288 10.818C24.588 11.058 24.822 11.37 24.99 11.754C25.158 12.126 25.242 12.588 25.242 13.14C25.242 13.872 25.104 14.496 24.828 15.012C24.564 15.516 24.198 15.924 23.73 16.236C23.274 16.548 22.752 16.776 22.164 16.92C21.576 17.064 20.97 17.136 20.346 17.136Z" fill="#E5005A"/>
</svg>
